<svg width="64" height="64" viewBox="0 0 64 64" fill="none" xmlns="http://www.w3.org/2000/svg">
<rect width="64" height="64" rx="32" fill="#9BCDFB"/>
<g filter="url(#filter0_d_1860_17125)">
<path d="M30.7052 57.1333C10.8521 46.7333 10.5644 26.5111 11.1398 20.1555C11.1398 19 12.003 18.1333 13.1539 17.8444C21.7857 16.4 27.5403 10.6222 30.4175 7.73331C31.2807 6.86665 32.7193 6.86665 33.5825 7.73331C36.172 10.9111 42.2143 16.6889 50.8461 17.8444C51.997 18.1333 52.8601 19 52.8601 20.1555C53.4356 26.5111 53.1479 46.4444 33.2948 57.1333C32.4316 57.7111 31.5684 57.7111 30.7052 57.1333Z" fill="#519AF4" stroke="#01090F" stroke-width="0.5" stroke-miterlimit="10" stroke-linecap="round" stroke-linejoin="round"/>
<path fill-rule="evenodd" clip-rule="evenodd" d="M31.9375 7.08417C31.3831 7.09929 30.8335 7.31567 30.4175 7.73332C27.5403 10.6222 21.7857 16.4 13.1539 17.8444C12.003 18.1333 11.1398 19 11.1398 20.1555C10.5644 26.5111 10.8521 46.7333 30.7052 57.1333C31.116 57.4083 31.5267 57.5524 31.9375 57.5656V7.08417Z" fill="#9BCDFB"/>
<path d="M30.4175 7.73332L30.5947 7.90974V7.90974L30.4175 7.73332ZM31.9375 7.08417H32.1875C32.1875 7.01668 32.1602 6.95206 32.1119 6.905C32.0635 6.85793 31.9981 6.83242 31.9307 6.83426L31.9375 7.08417ZM13.1539 17.8444L13.1127 17.5979C13.1061 17.599 13.0996 17.6003 13.0931 17.6019L13.1539 17.8444ZM11.1398 20.1555L11.3888 20.1781C11.3895 20.1706 11.3898 20.1631 11.3898 20.1555H11.1398ZM30.7052 57.1333L30.8443 56.9256C30.8369 56.9206 30.8292 56.916 30.8212 56.9119L30.7052 57.1333ZM31.9375 57.5656L31.9294 57.8155C31.9971 57.8177 32.0628 57.7923 32.1114 57.7452C32.16 57.6982 32.1875 57.6333 32.1875 57.5656H31.9375ZM30.5947 7.90974C30.9626 7.54034 31.4499 7.34756 31.9443 7.33407L31.9307 6.83426C31.3162 6.85102 30.7044 7.09101 30.2404 7.5569L30.5947 7.90974ZM13.1952 18.091C21.9137 16.632 27.7182 10.7978 30.5947 7.90974L30.2404 7.5569C27.3623 10.4466 21.6578 16.1679 13.1127 17.5979L13.1952 18.091ZM11.3898 20.1555C11.3898 19.1441 12.1436 18.3558 13.2148 18.0869L13.0931 17.6019C11.8625 17.9108 10.8898 18.8558 10.8898 20.1555H11.3898ZM30.8212 56.9119C11.1088 46.5856 10.8158 26.5065 11.3888 20.1781L10.8909 20.133C10.313 26.5156 10.5954 46.8811 30.5892 57.3548L30.8212 56.9119ZM31.9456 57.3158C31.5903 57.3043 31.2241 57.1798 30.8443 56.9256L30.5662 57.3411C31.0079 57.6367 31.4632 57.8004 31.9294 57.8155L31.9456 57.3158ZM32.1875 57.5656V7.08417H31.6875V57.5656H32.1875Z" fill="#01090F"/>
<path fill-rule="evenodd" clip-rule="evenodd" d="M44.7753 23.1079C45.6305 23.807 45.7571 25.067 45.058 25.9222L33.0526 40.6092C32.3537 41.4643 31.0941 41.591 30.2388 40.8924L23.4357 35.3351C22.5803 34.6363 22.4533 33.3764 23.1521 32.521C23.8509 31.6655 25.1108 31.5385 25.9662 32.2373L31.221 36.5297L41.961 23.3907C42.6601 22.5355 43.9201 22.4089 44.7753 23.1079Z" fill="#FFC664" stroke="#01090F" stroke-width="0.5" stroke-miterlimit="10" stroke-linecap="round" stroke-linejoin="round"/>
</g>
<defs>
<filter id="filter0_d_1860_17125" x="9.75024" y="5.83331" width="46.4995" height="54.9833" filterUnits="userSpaceOnUse" color-interpolation-filters="sRGB">
<feFlood flood-opacity="0" result="BackgroundImageFix"/>
<feColorMatrix in="SourceAlpha" type="matrix" values="0 0 0 0 0 0 0 0 0 0 0 0 0 0 0 0 0 0 127 0" result="hardAlpha"/>
<feOffset dx="1" dy="1"/>
<feGaussianBlur stdDeviation="1"/>
<feComposite in2="hardAlpha" operator="out"/>
<feColorMatrix type="matrix" values="0 0 0 0 0 0 0 0 0 0 0 0 0 0 0 0 0 0 0.15 0"/>
<feBlend mode="normal" in2="BackgroundImageFix" result="effect1_dropShadow_1860_17125"/>
<feBlend mode="normal" in="SourceGraphic" in2="effect1_dropShadow_1860_17125" result="shape"/>
</filter>
</defs>
</svg>
