<svg xmlns="http://www.w3.org/2000/svg" xmlns:xlink="http://www.w3.org/1999/xlink" width="624" zoomAndPan="magnify" viewBox="0 0 468 308.250004" height="411" preserveAspectRatio="xMidYMid meet" version="1.0"><defs><clipPath id="id1"><path d="M 0.566406 0 L 467.429688 0 L 467.429688 307.5 L 0.566406 307.5 Z M 0.566406 0 " clip-rule="nonzero"/></clipPath><clipPath id="id2"><path d="M 2 55.160156 L 94 55.160156 L 94 131 L 2 131 Z M 2 55.160156 " clip-rule="nonzero"/></clipPath><clipPath id="id3"><path d="M 165 55.160156 L 324 55.160156 L 324 146 L 165 146 Z M 165 55.160156 " clip-rule="nonzero"/></clipPath><clipPath id="id4"><path d="M 0.566406 106 L 133 106 L 133 197 L 0.566406 197 Z M 0.566406 106 " clip-rule="nonzero"/></clipPath><clipPath id="id5"><path d="M 352 92 L 467.429688 92 L 467.429688 252.679688 L 352 252.679688 Z M 352 92 " clip-rule="nonzero"/></clipPath><clipPath id="id6"><path d="M 176 179 L 252 179 L 252 252.679688 L 176 252.679688 Z M 176 179 " clip-rule="nonzero"/></clipPath><clipPath id="id7"><path d="M 85 109 L 203 109 L 203 252.679688 L 85 252.679688 Z M 85 109 " clip-rule="nonzero"/></clipPath><clipPath id="id8"><path d="M 366 117 L 467.429688 117 L 467.429688 230 L 366 230 Z M 366 117 " clip-rule="nonzero"/></clipPath><clipPath id="id9"><path d="M 292 55.160156 L 458 55.160156 L 458 155 L 292 155 Z M 292 55.160156 " clip-rule="nonzero"/></clipPath></defs><g clip-path="url(#id1)"><path fill="rgb(100%, 100%, 100%)" d="M 0.566406 0 L 467.433594 0 L 467.433594 307.5 L 0.566406 307.5 Z M 0.566406 0 " fill-opacity="1" fill-rule="nonzero"/><path fill="rgb(100%, 100%, 100%)" d="M 0.566406 0 L 467.433594 0 L 467.433594 307.5 L 0.566406 307.5 Z M 0.566406 0 " fill-opacity="1" fill-rule="nonzero"/><path fill="rgb(100%, 100%, 100%)" d="M 0.566406 0 L 467.433594 0 L 467.433594 307.5 L 0.566406 307.5 Z M 0.566406 0 " fill-opacity="1" fill-rule="nonzero"/></g><path fill="rgb(17.248535%, 44.309998%, 94.119263%)" d="M 78.382812 114.097656 L 77.699219 116.070312 L 75.195312 115.820312 L 72.511719 117.195312 L 70.738281 120.390625 L 69.800781 116.726562 L 67.878906 116.320312 L 68.050781 114.554688 L 69.398438 115.003906 L 69.65625 112.359375 L 66.316406 110.347656 L 63.527344 110.082031 L 63.253906 108.367188 L 61.707031 107.828125 L 60.648438 108.429688 L 59.28125 107.566406 L 59.226562 105.566406 L 62.726562 103.277344 L 60.917969 100.457031 L 61.324219 99.195312 L 59.464844 98.453125 L 58.082031 99.191406 L 57.730469 100.984375 L 54.699219 106.269531 L 52.914062 106.28125 L 52.183594 107.371094 L 50.042969 108.152344 L 51.378906 109.558594 L 56.097656 110.722656 L 57.742188 112.28125 L 59.125 116.054688 L 58.050781 116.855469 L 56.792969 122.003906 L 55.535156 121.789062 L 49.867188 119.667969 L 46.433594 117.578125 L 44.257812 117.828125 L 42.742188 119.238281 L 39.996094 116.023438 L 37.691406 115.410156 L 35.445312 116.277344 L 34.328125 115.710938 L 33.363281 117.539062 L 30.214844 116.238281 L 28.328125 115.9375 L 27.628906 114.746094 L 28.652344 112.324219 L 26.675781 110.492188 L 26.765625 109.050781 L 24.046875 107.523438 L 22.015625 107.519531 L 20.574219 105.511719 L 19.171875 105.183594 L 15.789062 103.214844 L 15.054688 100.824219 L 11.804688 102.132812 L 11.132812 101.761719 L 11.144531 94.539062 L 10.871094 70.679688 L 17.90625 68.980469 L 17.046875 67.03125 L 15.882812 66.667969 L 16.207031 64.320312 L 15 63.300781 L 15.726562 61.226562 L 16.902344 60.988281 L 17.304688 59.363281 L 18.980469 59.21875 L 21.03125 61.035156 L 22.007812 60.492188 L 25.746094 61.835938 L 26.203125 63.363281 L 29.832031 65.785156 L 29.945312 67.480469 L 31.441406 68.628906 L 34.59375 68.898438 L 37.035156 67.972656 L 37.675781 65.949219 L 37.21875 64.671875 L 38.472656 63.953125 L 39.753906 64.574219 L 40.710938 62.980469 L 42.605469 64.480469 L 50.042969 71.152344 L 54.480469 74.9375 L 57.308594 75.203125 L 57.089844 77.839844 L 55.089844 79.121094 L 54.519531 81.667969 L 57.285156 83.613281 L 56.125 86.074219 L 53.597656 85.410156 L 53.601562 86.605469 L 55.441406 88.105469 L 55.925781 90.101562 L 58.367188 92.753906 L 60.292969 93.332031 L 60.972656 92.3125 L 62.730469 92.46875 L 64.308594 93.996094 L 67.6875 90.457031 L 70.671875 93.753906 L 71.53125 95.988281 L 70.035156 96.320312 L 68.875 94.925781 L 66.503906 94.480469 L 64.792969 94.878906 L 63.671875 96.339844 L 63.695312 100.722656 L 65.582031 101.695312 L 65.339844 107.554688 L 68.257812 109.167969 L 71.769531 108.96875 L 74.402344 109.347656 L 74.601562 110.78125 L 76.488281 113.792969 Z M 63.324219 73.167969 L 64.53125 73.742188 L 64.839844 75.292969 L 66.507812 77.773438 L 66.246094 79.367188 L 64.972656 79.941406 L 61.085938 78.261719 L 60.207031 76.378906 L 59.046875 76.089844 L 59.792969 74.140625 Z M 69.207031 79.519531 L 70.917969 80.9375 L 73.378906 80.980469 L 75.332031 83.152344 L 76.363281 82.839844 L 77.964844 83.8125 L 77.152344 85.054688 L 74.78125 86.226562 L 74.011719 88.085938 L 72.433594 84.921875 L 69.625 84.234375 L 71.25 81.757812 L 68.703125 81.335938 Z M 62.097656 84.613281 L 64.578125 85.828125 L 66.289062 88.175781 L 64.117188 89.703125 L 63.898438 91.429688 L 61.679688 89.371094 L 61.375 87.777344 Z M 75.113281 89.414062 L 75.726562 89.789062 L 77.261719 92.933594 L 78.535156 94.4375 L 77.328125 96.429688 L 75.199219 97.3125 L 72.476562 95.742188 L 72.433594 93.132812 L 73.726562 89.921875 Z M 80.972656 93.816406 L 83.957031 96.472656 L 82.441406 97.910156 L 80.578125 95.699219 Z M 84.980469 111.753906 L 84.019531 112.597656 L 83.617188 114.574219 L 80.828125 116.6875 L 79.140625 116.351562 L 78.921875 114.453125 L 79.523438 113.433594 Z M 84.980469 111.753906 " fill-opacity="1" fill-rule="nonzero"/><g clip-path="url(#id2)"><path stroke-linecap="butt" transform="matrix(2.899712, 0, 0, 2.904697, 0.573201, 55.158498)" fill="none" stroke-linejoin="miter" d="M 26.833568 20.29098 L 26.597822 20.970106 L 25.734321 20.884039 L 24.808852 21.35741 L 24.197261 22.45746 L 23.873953 21.196034 L 23.211171 21.056174 L 23.270444 20.448322 L 23.7352 20.602975 L 23.824109 19.692542 L 22.672324 18.999968 L 21.710483 18.908521 L 21.616185 18.318152 L 21.082727 18.132569 L 20.717658 18.339669 L 20.246167 18.042467 L 20.227308 17.353927 L 21.434324 16.565872 L 20.810609 15.594923 L 20.950709 15.160551 L 20.309482 14.905038 L 19.832603 15.159206 L 19.711362 15.776472 L 18.666 17.595992 L 18.050367 17.600026 L 17.798456 17.975227 L 17.060236 18.244188 L 17.52095 18.728317 L 19.148267 19.129069 L 19.715403 19.665646 L 20.192283 20.964727 L 19.821826 21.240412 L 19.388054 23.012864 L 18.954282 22.9389 L 16.999616 22.208671 L 15.815501 21.489201 L 15.065157 21.575268 L 14.542475 22.060743 L 13.595452 20.953969 L 12.800654 20.742834 L 12.026061 21.041381 L 11.640786 20.846384 L 11.308048 21.475753 L 10.222272 21.027933 L 9.571615 20.924383 L 9.330481 20.514218 L 9.683426 19.680439 L 9.001784 19.049726 L 9.032768 18.553493 L 8.095175 18.027674 L 7.394674 18.026329 L 6.897588 17.3351 L 6.413973 17.222136 L 5.24737 16.544355 L 4.994112 15.721335 L 3.873311 16.171844 L 3.641607 16.044088 L 3.645649 13.557544 L 3.55135 5.343479 L 5.977508 4.758489 L 5.681142 4.087432 L 5.279701 3.962365 L 5.391512 3.154137 L 4.975253 2.803143 L 5.225816 2.089052 L 5.631299 2.007019 L 5.770052 1.44758 L 6.347965 1.397823 L 7.055201 2.023157 L 7.39198 1.836229 L 8.681171 2.298842 L 8.838783 2.82466 L 10.090255 3.658439 L 10.129321 4.242084 L 10.645267 4.637457 L 11.73239 4.730248 L 12.574338 4.411529 L 12.795265 3.714921 L 12.637652 3.27517 L 13.070077 3.027726 L 13.511931 3.24155 L 13.841975 2.692869 L 14.495326 3.209274 L 17.060236 5.5062 L 18.590561 6.809316 L 19.565873 6.900762 L 19.490435 7.808505 L 18.800711 8.249601 L 18.604032 9.126414 L 19.557791 9.796126 L 19.157697 10.643353 L 18.286113 10.414736 L 18.28746 10.826247 L 18.921952 11.342651 L 19.088994 12.029847 L 19.930942 12.942969 L 20.595071 13.142 L 20.829469 12.791006 L 21.435671 12.844798 L 21.979907 13.370617 L 23.145162 12.152224 L 24.17436 13.287239 L 24.470725 14.056467 L 23.95478 14.170775 L 23.554686 13.69068 L 22.736986 13.537372 L 22.146949 13.674542 L 21.760327 14.177499 L 21.768409 15.68637 L 22.419067 16.021226 L 22.335545 18.038433 L 23.341841 18.593837 L 24.552899 18.525252 L 25.460856 18.655698 L 25.529559 19.149241 L 26.180216 20.186085 Z M 21.640433 6.200119 L 22.056692 6.397806 L 22.163114 6.931693 L 22.738333 7.785644 L 22.648076 8.334324 L 22.208916 8.53201 L 20.868535 7.953744 L 20.565434 7.305549 L 20.16534 7.206033 L 20.42264 6.534976 Z M 23.669191 8.386771 L 24.259228 8.874935 L 25.107911 8.889728 L 25.78147 9.637439 L 26.137109 9.529855 L 26.689426 9.864711 L 26.409226 10.292359 L 25.591526 10.695801 L 25.326144 11.335927 L 24.781909 10.246636 L 23.813332 10.00995 L 24.373733 9.157344 L 23.495413 9.012105 Z M 21.217438 10.140396 L 22.072858 10.55863 L 22.662895 11.366858 L 21.913898 11.892676 L 21.838459 12.48708 L 21.073297 11.778368 L 20.968222 11.229688 Z M 25.706031 11.793161 L 25.917529 11.922262 L 26.446945 13.00483 L 26.886105 13.522579 L 26.469846 14.20843 L 25.735668 14.512356 L 24.796727 13.971744 L 24.781909 13.073415 L 25.227805 11.967986 Z M 27.726706 13.308756 L 28.755903 14.223223 L 28.233222 14.718111 L 27.590647 13.956951 Z M 29.108848 19.484097 L 28.777457 19.774575 L 28.638704 20.455046 L 27.676863 21.182585 L 27.094909 21.066932 L 27.01947 20.413357 L 27.226926 20.062363 Z M 29.108848 19.484097 " stroke="rgb(100%, 100%, 100%)" stroke-width="0.5" stroke-opacity="1" stroke-miterlimit="4"/></g><path stroke-linecap="butt" transform="matrix(2.899712, 0, 0, 2.904697, 0.573201, 55.158498)" fill-opacity="1" fill="rgb(17.248535%, 44.309998%, 94.119263%)" fill-rule="nonzero" stroke-linejoin="miter" d="M 63.360636 28.189017 L 64.137923 28.111018 L 64.334602 27.581165 L 64.934069 27.531407 L 64.412735 26.370841 L 64.519157 25.647336 L 64.965052 24.960141 L 64.850548 24.462564 L 66.526361 23.574993 L 66.665114 23.876229 L 67.985288 23.905814 L 68.55916 23.17962 L 68.622474 21.833471 L 68.280307 21.204102 L 68.582061 20.944555 L 68.703301 19.902332 L 70.323883 20.43084 L 70.917961 20.390496 L 71.490486 20.999692 L 72.068399 21.201413 L 72.719056 21.155689 L 73.63779 21.46365 L 73.897783 20.814109 L 77.112003 19.145207 L 77.799033 19.067208 L 77.927009 17.842091 L 77.765355 16.842902 L 78.63694 17.571786 L 78.534559 17.81385 L 78.872685 19.032243 L 79.904576 19.244722 L 79.666137 19.810885 L 79.887064 20.098673 L 79.544896 20.758972 L 79.011438 21.314376 L 79.368424 24.302532 L 80.171305 25.264067 L 80.486531 26.189292 L 80.5943 27.191172 L 80.389538 28.090846 L 80.886624 29.618544 L 80.591606 30.859798 L 81.102163 31.584648 L 80.943203 32.799006 L 81.593861 33.611268 L 81.988566 34.704594 L 80.168611 35.73068 L 78.692171 36.702973 L 76.846621 37.501787 L 75.694837 37.524649 L 75.112882 37.326963 L 74.545746 37.508511 L 73.856022 37.447995 L 73.341424 37.751921 L 72.44155 37.75999 L 71.433907 38.876177 L 71.260129 39.400651 L 70.62429 39.635992 L 70.58657 40.47246 L 70.358908 40.78311 L 70.337354 41.922159 L 70.563669 42.735766 L 70.46533 43.12307 L 70.139328 43.137863 L 70.011351 42.819144 L 69.712292 42.910591 L 69.347223 42.665836 L 68.495845 42.74249 L 67.955651 42.317532 L 66.865834 42.274498 L 66.473823 42.573045 L 65.253335 42.458736 L 65.17655 41.977296 L 64.283411 41.135449 L 64.970441 39.116897 L 64.839771 38.640837 L 65.371882 37.7573 L 65.599544 36.939659 L 64.636356 36.580596 L 64.229527 36.017123 L 64.193155 35.077105 L 63.565398 34.393944 L 63.32157 33.350376 L 62.515994 32.680663 L 62.491746 32.099708 L 62.154967 31.565821 L 61.19582 30.722628 L 61.661922 30.198154 L 62.311233 30.643285 L 62.885104 30.024675 L 63.289239 29.103484 Z M 63.360636 28.189017 " stroke="rgb(100%, 100%, 100%)" stroke-width="0.5" stroke-opacity="1" stroke-miterlimit="4"/><path fill="rgb(17.248535%, 44.309998%, 94.119263%)" d="M 315.707031 63.867188 L 315.019531 69.949219 L 314.035156 69.550781 L 310.960938 71.71875 L 308.511719 77.035156 L 306.414062 77.476562 L 302.6875 80.148438 L 302.210938 80.886719 L 301.109375 79.402344 L 302.003906 77.199219 L 300.628906 75.710938 L 301.386719 74.53125 L 299.539062 73.679688 L 297.878906 72.167969 L 294.460938 74.09375 L 293.4375 72.976562 L 291.949219 72.976562 L 292.226562 70.6875 L 290.804688 69.375 L 291.449219 67.835938 L 290.066406 67.019531 L 288.644531 68.230469 L 286.277344 66.648438 L 283.914062 69.40625 L 282.011719 69.246094 L 280.058594 70.003906 L 279.203125 74.683594 L 278.324219 75.503906 L 277.257812 78.316406 L 277.59375 80.984375 L 277.070312 81.804688 L 275.882812 83.464844 L 275.882812 83.90625 L 275.269531 86.828125 L 275.203125 87.402344 L 274.984375 88.753906 L 274.851562 88.597656 L 273.425781 90.367188 L 273.007812 92.140625 L 270.878906 91.742188 L 269.996094 93.917969 L 270.027344 95.707031 L 268.957031 96.222656 L 267.519531 99.75 L 267.394531 99.882812 L 267.039062 99.707031 L 264.953125 99.597656 L 263.261719 98.820312 L 261.652344 99.804688 L 259.398438 99.058594 L 257.96875 97.78125 L 257.835938 94.949219 L 255.300781 93.628906 L 254.074219 93.914062 L 252.125 93.285156 L 249.0625 93.636719 L 247.160156 95.691406 L 247.019531 98.804688 L 244.632812 100.71875 L 246.789062 105.347656 L 246.507812 107.949219 L 245.84375 109.617188 L 243.710938 110.648438 L 238.984375 110.21875 L 235.753906 108.085938 L 233.898438 110.476562 L 232.277344 111.0625 L 229.28125 110.445312 L 228.300781 106.90625 L 228.601562 106.203125 L 226.074219 104.085938 L 226.542969 106.988281 L 226.167969 110.546875 L 224.179688 110.773438 L 214.859375 115.621094 L 214.105469 117.507812 L 211.441406 116.613281 L 209.554688 116.746094 L 207.878906 116.160156 L 206.21875 114.390625 L 204.496094 114.503906 L 199.796875 112.972656 L 199.445312 115.996094 L 198.570312 116.753906 L 199.5625 118.578125 L 199.378906 122.492188 L 197.714844 124.597656 L 193.886719 124.515625 L 193.484375 123.640625 L 188.625 126.214844 L 188.960938 127.664062 L 187.664062 129.660156 L 187.355469 131.761719 L 188.871094 135.132812 L 187.132812 135.277344 L 186.558594 136.8125 L 184.304688 137.039062 L 185.828125 135.398438 L 185.566406 133.738281 L 184.164062 132.394531 L 183.410156 130.054688 L 185.683594 128.347656 L 184.964844 126.433594 L 181.984375 123.117188 L 179.886719 123.550781 L 175.011719 121.433594 L 173.984375 120.011719 L 173.984375 117.710938 L 174.269531 117.625 L 175.058594 117.394531 L 177.914062 116.707031 L 179.867188 114.675781 L 180.921875 112.816406 L 182.238281 112.175781 L 183.027344 110.296875 L 185.308594 108.4375 L 187.988281 107.796875 L 188.183594 106.691406 L 189.742188 106.339844 L 192.660156 104.214844 L 194.683594 103.550781 L 197.097656 102.089844 L 200.828125 100.652344 L 203.898438 99.015625 L 206.269531 99.0625 L 207.257812 98.265625 L 209.605469 97.910156 L 210.8125 96.847656 L 214.761719 96.894531 L 216.257812 95.988281 L 219.765625 95.941406 L 220.644531 94.925781 L 223.542969 94.726562 L 224.222656 93.707031 L 229.050781 92.957031 L 230.894531 91.871094 L 232.738281 91.714844 L 236.25 89.726562 L 237.785156 87.378906 L 240.089844 84.964844 L 242.4375 83.285156 L 244.699219 79.453125 L 247.265625 79.058594 L 247.179688 83.394531 L 249.59375 83.617188 L 249.636719 81.890625 L 252.359375 79.632812 L 251.984375 77.507812 L 252.996094 76.15625 L 255.410156 77.546875 L 257.011719 76.800781 L 259.117188 74.054688 L 261.335938 72.96875 L 263.265625 72.726562 L 264.695312 71.042969 L 264.757812 69.824219 L 267.480469 68.273438 L 267.699219 66.8125 L 270.222656 64.175781 L 269.191406 62.515625 L 270.949219 61.296875 L 272.945312 59.171875 L 275.425781 60.054688 L 278.410156 58.0625 L 280.34375 59.503906 L 279.597656 61.210938 L 283.0625 61.519531 L 286.882812 60.523438 L 288.222656 61.542969 L 292.0625 62.007812 L 293.53125 62.648438 L 296.496094 62.273438 L 298.554688 63.402344 L 299.917969 63.003906 L 303.738281 64.863281 L 306.457031 65.261719 L 308.761719 63.933594 L 310.144531 64.53125 L 314.996094 63.578125 Z M 261.859375 99.480469 L 261.902344 99.480469 L 261.640625 99.546875 Z M 261.859375 99.480469 " fill-opacity="1" fill-rule="nonzero"/><g clip-path="url(#id3)"><path stroke-linecap="butt" transform="matrix(2.899712, 0, 0, 2.904697, 0.573201, 55.158498)" fill="none" stroke-linejoin="miter" d="M 108.677641 2.99814 L 108.440549 5.092 L 108.101075 4.95483 L 107.040895 5.701197 L 106.196252 7.531476 L 105.472851 7.683439 L 104.187701 8.603285 L 104.023353 8.857453 L 103.643466 8.346427 L 103.951956 7.587957 L 103.477771 7.075587 L 103.739112 6.669456 L 103.101925 6.376289 L 102.529401 5.855849 L 101.350674 6.518838 L 100.997729 6.134224 L 100.484478 6.134224 L 100.580123 5.346168 L 100.089773 4.894314 L 100.312047 4.364461 L 99.835168 4.083397 L 99.344817 4.500286 L 98.528464 3.955641 L 97.713459 4.905073 L 97.057413 4.849936 L 96.383855 5.110828 L 96.088836 6.721903 L 95.785735 7.004312 L 95.417972 7.972572 L 95.533824 8.891073 L 95.35331 9.173482 L 94.943787 9.745024 L 94.943787 9.896987 L 94.73229 10.9029 L 94.709389 11.100587 L 94.63395 11.565889 L 94.588148 11.512097 L 94.09645 12.121293 L 93.952309 12.731834 L 93.21813 12.594664 L 92.913682 13.34372 L 92.924459 13.959641 L 92.555349 14.137155 L 92.05961 15.351513 L 92.016502 15.397237 L 91.893915 15.336721 L 91.174554 15.299066 L 90.591253 15.03145 L 90.036241 15.370341 L 89.258955 15.113483 L 88.76591 14.673732 L 88.720108 13.698749 L 87.845829 13.244205 L 87.422834 13.342376 L 86.750623 13.125862 L 85.694484 13.246895 L 85.038438 13.954262 L 84.989942 15.026071 L 84.166853 15.685025 L 84.910462 17.278618 L 84.813469 18.174258 L 84.58446 18.748489 L 83.848934 19.103518 L 82.218923 18.955589 L 81.104857 18.221326 L 80.464977 19.044346 L 79.905923 19.246067 L 78.872685 19.033588 L 78.534559 17.815195 L 78.638287 17.57313 L 77.766702 16.844246 L 77.928356 17.843436 L 77.799033 19.068553 L 77.113351 19.146552 L 73.89913 20.815454 L 73.639137 21.464994 L 72.720403 21.157034 L 72.069746 21.202758 L 71.491833 21.001037 L 70.919308 20.39184 L 70.32523 20.43084 L 68.704648 19.903676 L 68.583408 20.944555 L 68.281654 21.205447 L 68.623821 21.833471 L 68.560507 23.180965 L 67.986635 23.905814 L 66.666461 23.877574 L 66.527708 23.576337 L 64.851895 24.462564 L 64.967747 24.961486 L 64.520504 25.648681 L 64.414082 26.372186 L 64.936763 27.532752 L 64.337296 27.58251 L 64.13927 28.111018 L 63.361984 28.189017 L 63.887359 27.624199 L 63.797102 27.052657 L 63.313487 26.590044 L 63.053494 25.784506 L 63.837516 25.196827 L 63.589646 24.537873 L 62.561796 23.396134 L 61.838395 23.545407 L 60.157193 22.816523 L 59.802901 22.327014 L 59.802901 21.534924 L 59.901241 21.505339 L 60.173358 21.425995 L 61.158101 21.18931 L 61.831659 20.490011 L 62.195381 19.849884 L 62.649359 19.629336 L 62.921476 18.982485 L 63.708193 18.342359 L 64.632315 18.121811 L 64.69967 17.741231 L 65.23717 17.620199 L 66.243466 16.888625 L 66.941273 16.660008 L 67.773791 16.157051 L 69.060287 15.662163 L 70.119121 15.09869 L 70.936821 15.114828 L 71.277641 14.840488 L 72.087258 14.718111 L 72.503517 14.352324 L 73.865452 14.368461 L 74.381398 14.056467 L 75.591109 14.040329 L 75.89421 13.69068 L 76.893771 13.622095 L 77.128169 13.271101 L 78.793205 13.012899 L 79.429044 12.639043 L 80.064883 12.585251 L 81.275941 11.900745 L 81.805358 11.092518 L 82.600157 10.261429 L 83.409774 9.683163 L 84.189754 8.36391 L 85.07481 8.228084 L 85.045174 9.720817 L 85.877692 9.797471 L 85.89251 9.203068 L 86.83145 8.425771 L 86.702127 7.694197 L 87.05103 7.228895 L 87.883548 7.707645 L 88.435866 7.450787 L 89.161962 6.50539 L 89.927124 6.131534 L 90.5926 6.048156 L 91.085645 5.468546 L 91.107199 5.048967 L 92.046139 4.515079 L 92.121577 4.012122 L 92.991815 3.104379 L 92.636176 2.532838 L 93.242379 2.113259 L 93.930755 1.381685 L 94.786174 1.685611 L 95.815371 0.999761 L 96.482194 1.495993 L 96.224895 2.083673 L 97.419787 2.189912 L 98.737267 1.846987 L 99.199328 2.197981 L 100.523544 2.358013 L 101.03006 2.578561 L 102.052522 2.44946 L 102.762452 2.838108 L 103.232596 2.700938 L 104.550076 3.341065 L 105.487669 3.478235 L 106.282468 3.021002 L 106.759347 3.226757 L 108.432466 2.898624 Z M 90.107638 15.258722 L 90.122456 15.258722 L 90.032199 15.281584 Z M 90.107638 15.258722 " stroke="rgb(100%, 100%, 100%)" stroke-width="0.5" stroke-opacity="1" stroke-miterlimit="4"/></g><path fill="rgb(17.248535%, 44.309998%, 94.119263%)" d="M 118.917969 158.828125 L 118.03125 160.621094 L 118.722656 162.359375 L 115.878906 161.585938 L 116.183594 162.300781 L 116.859375 164.0625 L 117.941406 164.117188 L 118.90625 164.5 L 118.871094 162.339844 L 120.109375 161.449219 L 121.175781 163.039062 L 119.957031 165.476562 L 122.191406 166.886719 L 121.476562 168.390625 L 120 169.292969 L 120.1875 171.453125 L 119.117188 172.246094 L 118.164062 173.035156 L 115.691406 175.242188 L 115.714844 176.558594 L 114.613281 180.261719 L 114.394531 182.683594 L 113.320312 183.890625 L 114.144531 184.828125 L 112.34375 187.960938 L 110.820312 187.273438 L 107.941406 183.835938 L 107.503906 182.160156 L 108.472656 181.253906 L 108.472656 179.179688 L 105.835938 174.96875 L 103.753906 173.113281 L 103.882812 177.261719 L 101.929688 177.261719 L 99.40625 175.5625 L 96.792969 174.902344 L 91.332031 173.027344 L 88.742188 172.785156 L 86.960938 171.878906 L 80.882812 170.402344 L 77.921875 170.511719 L 76.273438 170.136719 L 74.015625 171.703125 L 72.28125 170.335938 L 71.644531 171.527344 L 69.625 171.679688 L 69.144531 170.445312 L 67.386719 170.488281 L 68.351562 166.871094 L 67.34375 165.015625 L 68.484375 162.476562 L 67.5625 160.09375 L 66.355469 161.308594 L 65.71875 163.933594 L 63.722656 164.773438 L 60.539062 162.058594 L 58.34375 162.148438 L 57.25 165.015625 L 54.21875 164.640625 L 52.351562 165.28125 L 50.949219 164.109375 L 49.941406 162.324219 L 48.292969 164.882812 L 46.144531 166.25 L 43.488281 165.015625 L 34.554688 162.277344 L 32.933594 161.550781 L 27.46875 161.902344 L 25.691406 162.765625 L 19.476562 164.265625 L 17.347656 165.898438 L 16.121094 167.996094 L 15.726562 170.269531 L 15.988281 173.09375 L 15.769531 175.628906 L 16.054688 178.410156 L 17.347656 180.59375 L 17.65625 182.402344 L 15.746094 185.449219 L 14.25 184.851562 L 14.757812 179.585938 L 13.441406 176.527344 L 13.304688 172.28125 L 11.597656 171.183594 L 12.042969 168.664062 L 10.761719 166.136719 L 8.28125 164.777344 L 7.027344 165.859375 L 5.996094 164.257812 L 3.941406 163.023438 L 2.363281 162.769531 L 2.351562 160.566406 L 3.644531 159.789062 L 5.371094 159.777344 L 7.652344 158.050781 L 10.445312 154.585938 L 11.855469 153.324219 L 12.933594 153.726562 L 15.671875 153.070312 L 17.160156 152.132812 L 18.691406 149.535156 L 19.171875 147.648438 L 18.78125 144.460938 L 19.800781 143.113281 L 19.613281 138.035156 L 17.75 135.429688 L 16.726562 133.023438 L 14.183594 131.261719 L 12.558594 128.632812 L 13.039062 126.703125 L 14.414062 126.40625 L 14.851562 125 L 16.320312 124.53125 L 15.496094 121.652344 L 17.148438 120.023438 L 19.78125 119.65625 L 21.359375 118.539062 L 24.214844 117.984375 L 26.089844 115.566406 L 27.628906 114.742188 L 28.332031 115.9375 L 30.214844 116.238281 L 33.363281 117.539062 L 34.328125 115.710938 L 35.449219 116.277344 L 37.691406 115.40625 L 40 116.019531 L 42.742188 119.238281 L 44.261719 117.828125 L 46.4375 117.578125 L 49.871094 119.667969 L 55.539062 121.789062 L 58.839844 122.898438 L 61.277344 123.089844 L 64.414062 126.925781 L 66.351562 126.746094 L 69.042969 127.265625 L 73.398438 127.402344 L 73.613281 135.703125 L 73.441406 140.117188 L 72.269531 142.636719 L 74.933594 143.433594 L 73.570312 144.625 L 72.847656 147.464844 L 70.996094 149.4375 L 71.359375 152.667969 L 77.722656 151.378906 L 78.8125 149.660156 L 80.4375 151.792969 L 80.886719 154.152344 L 81.777344 154.808594 L 83.359375 154.207031 L 83.988281 157.050781 L 83.449219 159.144531 L 85.210938 161.175781 L 86.503906 161.207031 L 87.015625 162.496094 L 89.90625 161.417969 L 91.71875 161.816406 L 95.089844 161.4375 L 98.621094 161.5625 L 98.332031 164.25 L 100.550781 166.253906 L 101.71875 166.492188 L 104.839844 166.035156 L 106.4375 167.375 L 108.246094 164.4375 L 110.699219 165.019531 L 111.503906 166.15625 L 113.277344 163.890625 L 114.332031 163.605469 L 115.640625 159.671875 L 117.28125 157.511719 Z M 118.808594 167.128906 L 116.519531 167.570312 L 116.652344 168.671875 L 119.277344 169.269531 L 119.578125 167.402344 Z M 118.917969 158.828125 L 121.65625 157.207031 L 123.425781 159.519531 L 123.878906 163.449219 L 122.277344 162.914062 L 121.75 160.808594 L 118.925781 159.839844 Z M 58.980469 162.609375 L 60.207031 163.007812 L 61.21875 164.773438 L 59.179688 165.015625 L 58.386719 163.734375 Z M 57.882812 164.773438 L 59.8125 165.722656 L 58.9375 167.464844 L 56.808594 165.546875 Z M 56.71875 165.632812 L 58.496094 167.355469 L 58.167969 168.902344 L 55.378906 169.320312 L 53.976562 170.289062 L 51.230469 168.019531 L 54.589844 165.921875 Z M 62.535156 169.1875 L 65.71875 170.046875 L 63.304688 172.40625 L 60.1875 170.953125 Z M 59.636719 176.488281 L 59.109375 180.042969 L 55.90625 180.570312 L 56.28125 179.070312 L 57.621094 177.195312 Z M 59.636719 176.488281 " fill-opacity="1" fill-rule="nonzero"/><g clip-path="url(#id4)"><path stroke-linecap="butt" transform="matrix(2.899712, 0, 0, 2.904697, 0.573201, 55.158498)" fill="none" stroke-linejoin="miter" d="M 40.812598 35.690336 L 40.506802 36.307601 L 40.745242 36.906039 L 39.764541 36.639768 L 39.869616 36.885867 L 40.102667 37.492374 L 40.475818 37.511201 L 40.808556 37.642992 L 40.796432 36.899315 L 41.223468 36.5927 L 41.591231 37.140035 L 41.170931 37.979193 L 41.941481 38.464667 L 41.694959 38.982417 L 41.185749 39.293067 L 41.250411 40.036744 L 40.881301 40.309739 L 40.552604 40.581389 L 39.699879 41.341204 L 39.707962 41.794403 L 39.328075 43.069278 L 39.252636 43.903056 L 38.882179 44.318601 L 39.166421 44.641354 L 38.5454 45.719887 L 38.020025 45.483202 L 37.0272 44.299774 L 36.876323 43.722853 L 37.210408 43.410858 L 37.210408 42.696767 L 36.301104 41.247068 L 35.583091 40.608286 L 35.627546 42.036468 L 34.953987 42.036468 L 34.08375 41.451478 L 33.182529 41.224206 L 31.29926 40.5787 L 30.406121 40.495322 L 29.791836 40.183327 L 27.695723 39.674991 L 26.674608 39.712646 L 26.106125 39.583545 L 25.327491 40.122811 L 24.729372 39.65213 L 24.509792 40.062295 L 23.813332 40.114742 L 23.647637 39.689784 L 23.041434 39.704577 L 23.374172 38.459288 L 23.026616 37.820506 L 23.419974 36.946383 L 23.102055 36.126052 L 22.685796 36.544287 L 22.466216 37.447995 L 21.777839 37.737128 L 20.679939 36.802489 L 19.922859 36.83342 L 19.545667 37.820506 L 18.500304 37.691405 L 17.856382 37.911953 L 17.372767 37.508511 L 17.025211 36.893936 L 16.456728 37.774783 L 15.715814 38.245464 L 14.799775 37.820506 L 11.718919 36.877798 L 11.159865 36.627664 L 9.275249 36.748697 L 8.662311 37.045899 L 6.519048 37.562304 L 5.78487 38.124432 L 5.361875 38.846592 L 5.225816 39.629268 L 5.316073 40.601562 L 5.240635 41.47434 L 5.338974 42.43184 L 5.78487 43.183586 L 5.891292 43.80623 L 5.232552 44.855178 L 4.716606 44.649423 L 4.891732 42.836626 L 4.437753 41.783645 L 4.390604 40.321842 L 3.801914 39.943952 L 3.955485 39.076553 L 3.513631 38.206465 L 2.658212 37.738473 L 2.225788 38.110984 L 1.870149 37.559614 L 1.161565 37.134656 L 0.61733 37.047243 L 0.613289 36.288774 L 1.059185 36.021158 L 1.65461 36.017123 L 2.441326 35.42272 L 3.404515 34.229878 L 3.890824 33.795506 L 4.262628 33.934021 L 5.206957 33.708094 L 5.720208 33.385341 L 6.248278 32.491046 L 6.413973 31.841505 L 6.279262 30.744145 L 6.630859 30.280187 L 6.566198 28.531942 L 5.923623 27.634957 L 5.570678 26.806558 L 4.693705 26.200051 L 4.133305 25.294997 L 4.299 24.630664 L 4.773185 24.528459 L 4.924062 24.044329 L 5.430578 23.882953 L 5.146337 22.891832 L 5.716167 22.331048 L 6.624124 22.204637 L 7.168359 21.820023 L 8.153101 21.629061 L 8.799717 20.796627 L 9.330481 20.512873 L 9.572962 20.924383 L 10.222272 21.027933 L 11.308048 21.475753 L 11.640786 20.846384 L 12.027409 21.041381 L 12.800654 20.74149 L 13.596799 20.952624 L 14.542475 22.060743 L 15.066504 21.575268 L 15.816848 21.489201 L 17.000963 22.208671 L 18.95563 22.9389 L 20.093943 23.320825 L 20.934544 23.38672 L 22.016279 24.707318 L 22.684449 24.645457 L 23.612612 24.824316 L 25.114647 24.871384 L 25.188738 27.729093 L 25.129465 29.248722 L 24.72533 30.116121 L 25.644064 30.390461 L 25.17392 30.800627 L 24.924704 31.7783 L 24.28617 32.457426 L 24.411452 33.569579 L 26.605905 33.125794 L 26.981751 32.53408 L 27.542151 33.268343 L 27.69707 34.080605 L 28.004212 34.306532 L 28.549795 34.099432 L 28.76668 35.07845 L 28.580778 35.799265 L 29.188328 36.498563 L 29.634223 36.509322 L 29.810696 36.953107 L 30.807562 36.581941 L 31.432624 36.719111 L 32.595186 36.588665 L 33.812979 36.631699 L 33.713293 37.556924 L 34.478455 38.246809 L 34.881243 38.328842 L 35.957589 38.1715 L 36.50856 38.632768 L 37.132275 37.621475 L 37.978264 37.821851 L 38.25577 38.213189 L 38.867361 37.433202 L 39.231083 37.335032 L 39.682367 35.980813 L 40.248156 35.237137 Z M 40.774878 38.548045 L 39.985468 38.700008 L 40.03127 39.079243 L 40.936532 39.284998 L 41.04026 38.642181 Z M 40.812598 35.690336 L 41.756926 35.132242 L 42.36717 35.928366 L 42.523436 37.281239 L 41.971118 37.097001 L 41.789257 36.372152 L 40.815292 36.03864 Z M 20.142439 36.992106 L 20.565434 37.129276 L 20.914337 37.737128 L 20.211142 37.820506 L 19.937678 37.37941 Z M 19.7639 37.737128 L 20.429375 38.063916 L 20.127621 38.663698 L 19.393443 38.003399 Z M 19.362459 38.032985 L 19.975397 38.626044 L 19.862239 39.158586 L 18.900398 39.30248 L 18.416783 39.635992 L 17.46976 38.854661 L 18.62828 38.132501 Z M 21.368316 39.256757 L 22.466216 39.552614 L 21.633698 40.364876 L 20.558698 39.864609 Z M 20.368755 41.770197 L 20.186894 42.993969 L 19.082259 43.175517 L 19.211582 42.659112 L 19.673643 42.013606 Z M 20.368755 41.770197 " stroke="rgb(100%, 100%, 100%)" stroke-width="0.5" stroke-opacity="1" stroke-miterlimit="4"/></g><path fill="rgb(17.248535%, 44.309998%, 94.119263%)" d="M 397.199219 101.214844 L 398.773438 100.953125 L 402.132812 102.582031 L 404.402344 105.078125 L 406.171875 106.320312 L 407.726562 106.699219 L 407.90625 108.351562 L 411.691406 111.03125 L 411.375 111.925781 L 412.753906 114.289062 L 414.101562 115.707031 L 415.476562 115.730469 L 416.734375 117.160156 L 420.378906 118.660156 L 421.691406 119.804688 L 422.003906 121.519531 L 424.832031 123.148438 L 425.417969 125.972656 L 424.289062 126.808594 L 423.054688 126.015625 L 420.164062 126.632812 L 418.078125 128.898438 L 414.238281 130.046875 L 413.800781 132.003906 L 411.832031 133.851562 L 411.394531 135.515625 L 409.03125 136.6875 L 408.328125 137.941406 L 408.496094 140.089844 L 409.316406 142.503906 L 411.109375 143.621094 L 411.742188 144.96875 L 410.460938 146.621094 L 412.566406 148.308594 L 413.789062 147.933594 L 414.105469 150.238281 L 415.601562 151.058594 L 416.320312 153.855469 L 415.429688 154.800781 L 416.457031 156.6875 L 417.246094 160.042969 L 418.394531 161.871094 L 419.574219 162.199219 L 420.414062 164.652344 L 422.015625 165.722656 L 422.449219 167.75 L 423.613281 167.914062 L 427.878906 169.632812 L 430.78125 171.882812 L 431.816406 174.683594 L 431.996094 178.417969 L 433.617188 178.058594 L 435.359375 179.542969 L 436.542969 181.621094 L 437.386719 181.652344 L 440.609375 179.988281 L 442.96875 180.292969 L 444.800781 179.847656 L 444.664062 178.734375 L 446.824219 177.175781 L 450.761719 176.9375 L 451.941406 175.996094 L 460.710938 173.984375 L 460.804688 175.488281 L 462.097656 176.453125 L 461.972656 177.621094 L 462.832031 180.828125 L 462.183594 183.507812 L 462.949219 185.949219 L 464.316406 187.40625 L 465.015625 191.121094 L 466.304688 193.074219 L 465.300781 193.90625 L 462.703125 194.070312 L 460.253906 193.585938 L 457.746094 194.625 L 456.269531 194.3125 L 454.6875 195.066406 L 452.414062 197.851562 L 452.449219 201.695312 L 454.769531 206.085938 L 454.761719 207.984375 L 453.175781 207.667969 L 451.425781 208.855469 L 449.429688 211.019531 L 448.226562 210.578125 L 446.542969 212.839844 L 444.453125 214.867188 L 442.746094 215.226562 L 442.566406 216.804688 L 441.320312 219.535156 L 439.550781 219.765625 L 437.75 221.734375 L 437.632812 223.097656 L 434.921875 226.46875 L 432.976562 225.71875 L 431.175781 223.738281 L 430.871094 221.828125 L 429.4375 218.808594 L 428.527344 214.097656 L 425.984375 212.089844 L 424.636719 209.960938 L 422.625 209.257812 L 420.9375 210.441406 L 420.25 214.710938 L 419.339844 216.671875 L 419.96875 218.734375 L 423.265625 226.851562 L 422.441406 229.535156 L 420.804688 230.277344 L 419.8125 231.628906 L 415.667969 231.453125 L 413.851562 236.585938 L 412.253906 242.132812 L 410.410156 249.554688 L 409.382812 249.4375 L 405.078125 246.046875 L 402.839844 243.867188 L 401.109375 242.921875 L 401.128906 241.644531 L 399.484375 240.675781 L 398.058594 236.070312 L 397.574219 233.605469 L 395.3125 234.15625 L 393.820312 231.777344 L 392.503906 231.554688 L 390.484375 229.179688 L 390.835938 228.121094 L 386.402344 225.519531 L 387.167969 223.847656 L 387.433594 221.378906 L 386.25 220.828125 L 384.386719 221.664062 L 385.21875 218.644531 L 382.300781 216.75 L 382.214844 215.097656 L 379.796875 214.394531 L 377.511719 211.441406 L 378.832031 210.292969 L 378.832031 208.375 L 374.507812 200.574219 L 373.808594 197.972656 L 369.984375 195.257812 L 368.472656 190.804688 L 367.550781 189.484375 L 367.75 187.210938 L 365.792969 183.925781 L 365.707031 182.226562 L 367.707031 179.449219 L 368.910156 181.699219 L 370.644531 182.625 L 371.613281 182.136719 L 374.398438 183.019531 L 377.386719 181.324219 L 380.367188 178.875 L 381.464844 176.117188 L 381.660156 173.046875 L 379.886719 172.230469 L 379.117188 170.6875 L 376.832031 168.28125 L 378.785156 167.972656 L 380.015625 166.582031 L 379.578125 165.613281 L 381.070312 164.332031 L 382.714844 166.363281 L 385.042969 165.632812 L 386.511719 163.738281 L 385.894531 161.265625 L 388.421875 157.15625 L 388.730469 154.597656 L 390.328125 155.632812 L 390.636719 157.863281 L 391.492188 159.210938 L 393.839844 160.757812 L 394.761719 160.777344 L 397.15625 163.648438 L 398.011719 165.480469 L 397.921875 167.070312 L 399.503906 169.585938 L 402.839844 170.027344 L 403.167969 168.988281 L 404.921875 167.90625 L 400.753906 167.621094 L 399.066406 166.363281 L 398.605469 163.292969 L 396.894531 160.777344 L 396.539062 159.1875 L 394.828125 155.703125 L 394.738281 153.382812 L 392.195312 150.226562 L 391.933594 149.144531 L 393.25 147.199219 L 390.921875 144.945312 L 390.878906 146.648438 L 392.460938 147.664062 L 391.429688 149.339844 L 392.941406 152.277344 L 393.316406 154.351562 L 392.699219 155.125 L 389.800781 150.863281 L 388.175781 150.488281 L 386.140625 152.125 L 386.25 155.125 L 383.988281 155.941406 L 383.527344 156.804688 L 380.566406 156.9375 L 379.949219 155.171875 L 382.867188 152.632812 L 379.90625 151.703125 L 378.371094 152.960938 L 377.058594 152.78125 L 375.910156 150.601562 L 373.738281 151.945312 L 372.007812 154.285156 L 371.285156 153.753906 L 370.992188 148.453125 L 369.324219 144.65625 L 369.023438 147.089844 L 370.199219 149.363281 L 370.152344 153.53125 L 371.878906 155.253906 L 372.050781 156.515625 L 370.75 157.859375 L 370.425781 161.105469 L 369.261719 159.890625 L 367.808594 160.246094 L 367.6875 156.085938 L 366.152344 150.390625 L 364.679688 148.296875 L 364.554688 146.769531 L 363.359375 145.386719 L 362.339844 140.121094 L 363.4375 139.316406 L 363.703125 136.78125 L 361.796875 134.984375 L 360.585938 132.105469 L 361.351562 129.070312 L 363.019531 128.195312 L 363.445312 125.195312 L 362.902344 123.859375 L 365.574219 122.070312 L 367.082031 122.113281 L 369.136719 121.261719 L 372.46875 121.695312 L 373.464844 123.660156 L 374.710938 124.605469 L 377.148438 123.019531 L 376.964844 121.734375 L 377.871094 120.449219 L 379.328125 120.75 L 382.078125 118.199219 L 384.636719 118.128906 L 387.210938 119.398438 L 389.121094 115.515625 L 388.953125 114.320312 L 392.394531 112.71875 L 392.148438 110.277344 L 393.539062 108.21875 L 394.375 105.945312 L 396.226562 105.28125 Z M 382.109375 188.902344 L 380.714844 188.148438 L 379 189.066406 L 377.601562 190.59375 L 375.28125 190.710938 L 374.390625 192.203125 L 375.15625 193.804688 L 374.527344 195.585938 L 376.011719 199.023438 L 377.65625 199.074219 L 377.753906 200.574219 L 379.253906 203.222656 L 379.839844 206.128906 L 382.601562 210.453125 L 384.796875 212.914062 L 386.691406 214.460938 L 389.527344 213.289062 L 391.15625 213.742188 L 393.597656 215.757812 L 394.542969 215.40625 L 394.9375 217.933594 L 396.0625 221.074219 L 397.632812 220.191406 L 397.773438 218.929688 L 399.046875 218.207031 L 399.949219 218.144531 L 400.878906 219.734375 L 401.445312 220.304688 L 401.773438 220.351562 L 402.585938 220.078125 L 403.488281 219.464844 L 403.988281 218.6875 L 404.820312 218.261719 L 405.414062 217.734375 L 405.484375 213.449219 L 404.46875 208.84375 L 405.171875 206.859375 L 404.195312 204.199219 L 402.917969 204.109375 L 402.292969 201.058594 L 401.640625 200.242188 L 400.554688 195.503906 L 399.3125 192.238281 L 398.429688 191.671875 L 394.953125 194.359375 L 394.214844 190.582031 L 392.5625 189.597656 L 391.308594 185.867188 L 390.855469 185.394531 L 388.738281 183.351562 L 388.339844 181.757812 L 387.390625 180.988281 L 386.160156 180.355469 L 382.585938 182.621094 L 382.515625 183.617188 L 384.523438 184.695312 L 384.664062 188.394531 L 384.394531 189.015625 L 384.214844 189.144531 L 383.847656 189.203125 L 383.023438 189.148438 Z M 382.109375 188.902344 " fill-opacity="1" fill-rule="nonzero"/><g clip-path="url(#id5)"><path stroke-linecap="butt" transform="matrix(2.899712, 0, 0, 2.904697, 0.573201, 55.158498)" fill="none" stroke-linejoin="miter" d="M 136.781189 15.855815 L 137.324077 15.765713 L 138.482598 16.326497 L 139.265273 17.185827 L 139.875516 17.613475 L 140.411669 17.743921 L 140.473636 18.312773 L 141.778992 19.235309 L 141.669876 19.543269 L 142.145408 20.356876 L 142.610163 20.84504 L 143.084348 20.853108 L 143.51812 21.345307 L 144.77498 21.861712 L 145.227611 22.255739 L 145.33538 22.846109 L 146.310693 23.406892 L 146.51276 24.379186 L 146.123444 24.666974 L 145.697755 24.393978 L 144.700888 24.606458 L 143.981528 25.386444 L 142.657312 25.781817 L 142.506435 26.455564 L 141.827488 27.091656 L 141.676611 27.664543 L 140.861606 28.067984 L 140.619125 28.499666 L 140.677051 29.239309 L 140.959945 30.070398 L 141.578272 30.455012 L 141.796505 30.91897 L 141.35465 31.487822 L 142.080746 32.068777 L 142.502394 31.939676 L 142.61151 32.733111 L 143.127456 33.01552 L 143.375325 33.9784 L 143.068183 34.303842 L 143.422475 34.953383 L 143.694592 36.10857 L 144.090644 36.737938 L 144.497474 36.850902 L 144.787104 37.695439 L 145.339422 38.063916 L 145.488952 38.761869 L 145.890392 38.818351 L 147.361444 39.410065 L 148.362351 40.184672 L 148.719337 41.148897 L 148.781305 42.43453 L 149.340358 42.310808 L 149.941172 42.821834 L 150.349349 43.53727 L 150.640326 43.548028 L 151.751697 42.975141 L 152.565355 43.080036 L 153.197153 42.926728 L 153.150004 42.543459 L 153.89496 42.006882 L 155.252853 41.924849 L 155.659682 41.600751 L 158.683959 40.908177 L 158.71629 41.425927 L 159.162186 41.758093 L 159.119078 42.16019 L 159.415444 43.264274 L 159.191822 44.18681 L 159.455857 45.027313 L 159.927348 45.528925 L 160.168482 46.807834 L 160.61303 47.480236 L 160.266821 47.76668 L 159.370989 47.823161 L 158.526347 47.656406 L 157.661498 48.014124 L 157.152288 47.906539 L 156.606705 48.166086 L 155.822684 49.124932 L 155.834808 50.44822 L 156.634995 51.95978 L 156.632301 52.613355 L 156.085371 52.504426 L 155.481863 52.913246 L 154.793486 53.658268 L 154.378574 53.506305 L 153.797967 54.284947 L 153.07726 54.9829 L 152.48857 55.106622 L 152.426602 55.649923 L 151.996872 56.589941 L 151.386628 56.669285 L 150.765608 57.347066 L 150.725194 57.816403 L 149.790295 58.976969 L 149.119431 58.718767 L 148.49841 58.036951 L 148.393335 57.379342 L 147.898943 56.339808 L 147.585065 54.717974 L 146.708092 54.026744 L 146.243337 53.293826 L 145.549572 53.051761 L 144.967617 53.459237 L 144.730525 54.929108 L 144.416647 55.6042 L 144.633532 56.314257 L 145.770499 59.10876 L 145.486257 60.032641 L 144.921815 60.288154 L 144.579648 60.753456 L 143.150357 60.69294 L 142.523948 62.460013 L 141.972977 64.369635 L 141.337138 66.924764 L 140.982846 66.884419 L 139.498324 65.717129 L 138.726426 64.966728 L 138.129653 64.641286 L 138.136389 64.201535 L 137.569253 63.868023 L 137.077555 62.282499 L 136.910513 61.433927 L 136.130532 61.623544 L 135.615933 60.804559 L 135.161955 60.727905 L 134.465496 59.910264 L 134.586736 59.545822 L 133.057759 58.650182 L 133.321794 58.074606 L 133.413398 57.224689 L 133.005221 57.035072 L 132.362647 57.32286 L 132.649583 56.283326 L 131.643286 55.631096 L 131.61365 55.062244 L 130.779785 54.820179 L 129.991721 53.803507 L 130.447047 53.408134 L 130.447047 52.747835 L 128.955789 50.062261 L 128.714655 49.166621 L 127.395828 48.231982 L 126.874493 46.698905 L 126.556574 46.244361 L 126.625277 45.461685 L 125.950371 44.330704 L 125.920735 43.745714 L 126.610458 42.789558 L 127.02537 43.564166 L 127.62349 43.882884 L 127.957575 43.714784 L 128.918069 44.01871 L 129.948614 43.435064 L 130.976464 42.591872 L 131.355003 41.64244 L 131.422359 40.585424 L 130.810768 40.30436 L 130.545386 39.773162 L 129.757323 38.944762 L 130.430881 38.838523 L 130.855223 38.359773 L 130.704346 38.026261 L 131.218945 37.585165 L 131.786081 38.284463 L 132.588962 38.032985 L 133.095478 37.380755 L 132.882634 36.529494 L 133.754218 35.114759 L 133.86064 34.233913 L 134.411611 34.590286 L 134.518033 35.358169 L 134.813052 35.822127 L 135.622669 36.354669 L 135.940589 36.361393 L 136.766371 37.349824 L 137.06139 37.980538 L 137.030406 38.527873 L 137.575988 39.393927 L 138.726426 39.54589 L 138.839584 39.188172 L 139.444439 38.815661 L 138.007066 38.717491 L 137.425111 38.284463 L 137.266151 37.227447 L 136.676114 36.361393 L 136.553527 35.814058 L 135.96349 34.614492 L 135.932506 33.815678 L 135.055533 32.729076 L 134.965276 32.356566 L 135.419254 31.686853 L 134.616373 30.910901 L 134.601555 31.497236 L 135.147137 31.846885 L 134.791498 32.423806 L 135.312832 33.435099 L 135.442155 34.14919 L 135.229311 34.415461 L 134.22975 32.948279 L 133.66935 32.819178 L 132.967502 33.382651 L 133.005221 34.415461 L 132.225241 34.696525 L 132.066281 34.993727 L 131.045167 35.03945 L 130.832322 34.431599 L 131.838618 33.557476 L 130.817504 33.237412 L 130.288087 33.670439 L 129.835456 33.608578 L 129.439404 32.858178 L 128.690407 33.32079 L 128.093634 34.126328 L 127.844417 33.943435 L 127.743384 32.118535 L 127.168165 30.811385 L 127.064437 31.649198 L 127.469919 32.431875 L 127.453754 33.866781 L 128.049179 34.45984 L 128.108452 34.894212 L 127.659862 35.356824 L 127.548052 36.474357 L 127.146611 36.056123 L 126.645484 36.1785 L 126.603723 34.746283 L 126.074306 32.785558 L 125.566443 32.064743 L 125.523335 31.538924 L 125.111118 31.062864 L 124.75952 29.250067 L 125.13806 28.973038 L 125.229664 28.10026 L 124.572271 27.481649 L 124.154665 26.490529 L 124.4187 25.445616 L 124.993918 25.144379 L 125.140754 24.11157 L 124.953505 23.651646 L 125.874933 23.035726 L 126.39492 23.050519 L 127.103503 22.757351 L 128.252594 22.906625 L 128.596108 23.583061 L 129.025839 23.908504 L 129.866439 23.362513 L 129.803125 22.920073 L 130.115656 22.477632 L 130.618131 22.581182 L 131.566501 21.703025 L 132.448862 21.678818 L 133.336612 22.11588 L 133.995352 20.779144 L 133.937426 20.367634 L 135.124236 19.816264 L 135.039368 18.975761 L 135.518941 18.267049 L 135.807224 17.484373 L 136.445757 17.255757 Z M 131.577278 46.043985 L 131.096357 45.784438 L 130.504973 46.100467 L 130.022705 46.626285 L 129.222518 46.66663 L 128.915375 47.180345 L 129.17941 47.731715 L 128.962524 48.344945 L 129.474429 49.528373 L 130.041565 49.545856 L 130.075243 50.062261 L 130.592535 50.974038 L 130.794603 51.974573 L 131.747014 53.463271 L 132.504094 54.310498 L 133.157446 54.84304 L 134.135452 54.439599 L 134.6972 54.595596 L 135.539148 55.289516 L 135.86515 55.168483 L 136.001209 56.038572 L 136.389178 57.119794 L 136.930719 56.815869 L 136.979216 56.381497 L 137.418376 56.132708 L 137.72956 56.111191 L 138.050173 56.658526 L 138.245505 56.854868 L 138.358663 56.871006 L 138.638863 56.776869 L 138.950047 56.565735 L 139.122478 56.298119 L 139.409414 56.151535 L 139.614176 55.969987 L 139.638424 54.494736 L 139.288174 52.909212 L 139.530655 52.226051 L 139.193875 51.310239 L 138.753368 51.279309 L 138.53783 50.229016 L 138.312861 49.947952 L 137.938363 48.316705 L 137.509979 47.192448 L 137.205531 46.997451 L 136.006597 47.922677 L 135.751992 46.622251 L 135.182162 46.28336 L 134.749737 44.999072 L 134.593472 44.836351 L 133.863335 44.133018 L 133.725929 43.584338 L 133.398579 43.319411 L 132.974238 43.101553 L 131.741626 43.88154 L 131.717378 44.224465 L 132.409796 44.595631 L 132.458292 45.86916 L 132.365341 46.082984 L 132.303374 46.127363 L 132.176745 46.147535 L 131.892503 46.128708 Z M 131.577278 46.043985 " stroke="rgb(100%, 100%, 100%)" stroke-width="0.5" stroke-opacity="1" stroke-miterlimit="4"/></g><path stroke-linecap="butt" transform="matrix(2.899712, 0, 0, 2.904697, 0.573201, 55.158498)" fill-opacity="1" fill="rgb(17.248535%, 44.309998%, 94.119263%)" fill-rule="nonzero" stroke-linejoin="miter" d="M 65.254683 42.458736 L 66.473823 42.57439 L 66.865834 42.274498 L 67.955651 42.317532 L 68.495845 42.74249 L 69.34857 42.667181 L 69.713639 42.910591 L 70.019434 42.864867 L 70.109691 43.168793 L 70.389891 43.229309 L 70.822316 43.60182 L 70.942209 44.284981 L 71.510692 45.067657 L 73.077389 45.73468 L 73.63779 45.567924 L 72.886098 46.015744 L 73.159563 46.448771 L 72.434814 47.113105 L 71.452766 47.583786 L 70.653926 47.400893 L 69.374165 48.558769 L 68.877079 50.058226 L 68.614392 50.336601 L 67.73203 50.608251 L 67.261886 51.087002 L 67.66198 52.425082 L 68.086322 52.691353 L 68.262794 53.564131 L 67.655244 54.935832 L 66.491336 55.206138 L 65.2466 57.230068 L 63.82135 58.967556 L 63.599076 59.060347 L 62.767905 58.211776 L 61.58379 58.007365 L 60.993752 57.365894 L 59.107789 54.240568 L 58.89225 53.02621 L 59.0795 52.672526 L 58.391123 52.215293 L 57.493943 52.216637 L 58.264494 49.134346 L 59.021574 47.679267 L 59.895852 47.777438 L 60.325583 46.7648 L 60.651585 46.677388 L 61.238928 45.214241 L 60.842875 44.869971 L 60.656973 44.111501 L 60.824016 43.87616 L 61.981189 43.974331 L 63.081783 43.643509 L 63.723011 43.078691 L 64.005905 42.371324 L 64.442371 42.22743 Z M 65.254683 42.458736 " stroke="rgb(100%, 100%, 100%)" stroke-width="0.5" stroke-opacity="1" stroke-miterlimit="4"/><path fill="rgb(17.248535%, 44.309998%, 94.119263%)" d="M 214.097656 187.519531 L 217.257812 192.65625 L 217.960938 195.632812 L 220.441406 198.546875 L 222.371094 200.023438 L 225.25 201.5 L 228.035156 205.160156 L 232.578125 208.882812 L 233.433594 210.847656 L 235.957031 213.3125 L 237.625 215.585938 L 238.65625 215.980469 L 240.585938 220.253906 L 240.808594 222.082031 L 242.367188 223.757812 L 243.726562 226.359375 L 243.089844 227.523438 L 243.199219 229.96875 L 240.699219 231.535156 L 238.65625 231.226562 L 235.496094 233.1875 L 232.644531 233.054688 L 230.074219 234.488281 L 227.617188 232.832031 L 226.894531 233.472656 L 224.105469 233.558594 L 221.207031 232.703125 L 219.78125 234.042969 L 217.542969 235.035156 L 214.230469 238.183594 L 214.996094 240.675781 L 216.03125 241.796875 L 212.058594 242.964844 L 211.398438 244.460938 L 210.039062 245.453125 L 209.007812 247.828125 L 202.925781 247.257812 L 201.851562 248.3125 L 198.515625 247.9375 L 196.890625 248.710938 L 194.464844 248.910156 L 194.136719 244.832031 L 191.742188 243.933594 L 189.945312 241.8125 L 189.988281 239.027344 L 188.824219 237.363281 L 186.34375 236.109375 L 187.070312 234.425781 L 185.019531 231.246094 L 185.871094 229.839844 L 184.960938 228.414062 L 184.992188 226.710938 L 185.632812 226.441406 L 189.769531 221.394531 L 193.375 215.515625 L 196.753906 214.730469 L 198.511719 210.746094 L 198.003906 208.210938 L 196.769531 207.4375 L 195.613281 203.550781 L 196.976562 202.160156 L 199.535156 201.371094 L 200.292969 200.5625 L 201.734375 196.207031 L 205.449219 192.84375 L 207.761719 193.375 L 210.609375 192.007812 L 212.714844 190.078125 L 211.921875 188.820312 Z M 214.097656 187.519531 " fill-opacity="1" fill-rule="nonzero"/><g clip-path="url(#id6)"><path stroke-linecap="butt" transform="matrix(2.899712, 0, 0, 2.904697, 0.573201, 55.158498)" fill="none" stroke-linejoin="miter" d="M 73.636442 45.567924 L 74.72626 47.336342 L 74.968741 48.361083 L 75.82416 49.364307 L 76.489636 49.872643 L 77.482461 50.380979 L 78.442955 51.641061 L 80.009651 52.92266 L 80.30467 53.599096 L 81.174907 54.447668 L 81.750126 55.230344 L 82.105765 55.366169 L 82.771241 56.837385 L 82.848026 57.466754 L 83.385526 58.043675 L 83.854322 58.939315 L 83.634742 59.340067 L 83.672462 60.181914 L 82.810307 60.721181 L 82.105765 60.614941 L 81.015948 61.290033 L 80.032552 61.24431 L 79.14615 61.737853 L 78.298813 61.167656 L 78.049597 61.388204 L 77.087755 61.417789 L 76.088195 61.123277 L 75.596497 61.584545 L 74.824599 61.926125 L 73.682244 63.010038 L 73.946279 63.868023 L 74.303265 64.253982 L 72.933248 64.656078 L 72.705585 65.171139 L 72.236788 65.512719 L 71.881149 66.33036 L 69.783689 66.134019 L 69.413232 66.497116 L 68.262794 66.368014 L 67.702394 66.634286 L 66.865834 66.702871 L 66.752676 65.298895 L 65.926894 64.98959 L 65.30722 64.259361 L 65.322038 63.300516 L 64.920598 62.727629 L 64.065178 62.295947 L 64.315742 61.716336 L 63.608506 60.621665 L 63.902177 60.137536 L 63.588299 59.646682 L 63.599076 59.060347 L 63.820003 58.967556 L 65.2466 57.230068 L 66.489989 55.206138 L 67.655244 54.935832 L 68.261447 53.564131 L 68.086322 52.691353 L 67.660633 52.425082 L 67.261886 51.087002 L 67.73203 50.608251 L 68.614392 50.336601 L 68.875732 50.058226 L 69.372818 48.558769 L 70.653926 47.400893 L 71.451419 47.583786 L 72.433467 47.113105 L 73.159563 46.448771 L 72.886098 46.015744 Z M 73.636442 45.567924 " stroke="rgb(100%, 100%, 100%)" stroke-width="0.5" stroke-opacity="1" stroke-miterlimit="4"/></g><path stroke-linecap="butt" transform="matrix(2.899712, 0, 0, 2.904697, 0.573201, 55.158498)" fill-opacity="1" fill="rgb(17.248535%, 44.309998%, 94.119263%)" fill-rule="nonzero" stroke-linejoin="miter" d="M 92.05961 15.350169 L 92.555349 14.13581 L 92.923112 13.958296 L 92.913682 13.342376 L 93.21813 12.59332 L 93.952309 12.73049 L 94.095103 12.121293 L 94.588148 11.510752 L 94.632603 11.564544 L 94.708041 11.099242 L 94.730942 10.901556 L 94.943787 9.895642 L 94.943787 9.743679 L 95.351963 9.172137 L 95.533824 8.889728 L 95.417972 7.971227 L 95.785735 7.002968 L 96.088836 6.720559 L 96.382507 5.109483 L 97.057413 4.848591 L 97.713459 4.905073 L 98.528464 3.954296 L 99.344817 4.498942 L 99.835168 4.082052 L 100.312047 4.364461 L 100.089773 4.892969 L 100.580123 5.346168 L 100.484478 6.132879 L 100.997729 6.132879 L 101.349327 6.517493 L 102.529401 5.854505 L 103.100578 6.374944 L 103.739112 6.668111 L 103.477771 7.074242 L 103.951956 7.586613 L 103.643466 8.345082 L 104.023353 8.856108 L 103.493936 9.122379 L 103.47373 9.789402 L 104.343967 9.870091 L 105.358346 9.246101 L 106.056152 9.024209 L 106.62733 9.211136 L 107.318401 9.001347 L 107.978488 9.130448 L 108.366457 9.525821 L 108.163043 9.935986 L 108.882403 10.11619 L 110.14061 10.21974 L 111.160377 10.022053 L 111.700571 9.754437 L 112.894117 9.818988 L 113.376384 9.381927 L 113.310376 8.889728 L 113.834404 8.22405 L 114.596872 8.593871 L 115.871244 7.788333 L 117.864977 8.380047 L 118.632834 7.774885 L 119.261937 7.957779 L 119.97052 8.721628 L 120.769361 9.098173 L 121.173496 9.539269 L 123.211683 9.338893 L 123.86234 8.733731 L 124.39041 8.779454 L 124.464502 9.734265 L 125.121895 10.081225 L 125.496393 11.111345 L 125.892445 11.567234 L 126.832733 11.79854 L 127.021329 11.010485 L 127.533233 10.788592 L 127.975088 11.356099 L 128.837242 11.59413 L 129.117443 11.298273 L 129.844886 11.088483 L 130.262492 12.132052 L 130.150681 12.509942 L 131.457384 13.238826 L 132.195604 12.930865 L 133.215372 13.008864 L 134.671605 13.375996 L 135.847638 13.892401 L 135.967531 14.669698 L 136.32317 14.988416 L 136.216747 15.558613 L 136.782536 15.855815 L 136.447104 17.255757 L 135.808571 17.483028 L 135.520288 18.267049 L 135.039368 18.975761 L 135.125583 19.816264 L 133.937426 20.367634 L 133.996699 20.777799 L 133.336612 22.11588 L 132.450209 21.678818 L 131.567848 21.70168 L 130.619478 22.581182 L 130.115656 22.477632 L 129.804472 22.920073 L 129.867787 23.362513 L 129.028533 23.908504 L 128.597456 23.583061 L 128.253941 22.906625 L 127.103503 22.757351 L 126.396267 23.049174 L 125.87628 23.035726 L 124.954852 23.651646 L 125.143448 24.11157 L 124.995266 25.144379 L 124.420047 25.445616 L 124.154665 26.490529 L 124.573618 27.481649 L 125.229664 28.10026 L 125.139407 28.973038 L 124.760867 29.250067 L 125.112465 31.061519 L 125.523335 31.538924 L 125.566443 32.064743 L 126.075653 32.785558 L 126.60507 34.746283 L 126.646831 36.1785 L 125.323962 33.722887 L 124.574965 33.449892 L 124.514345 32.682008 L 124.604602 31.442099 L 124.265128 30.902832 L 123.688562 30.530321 L 123.560586 30.005847 L 123.924308 28.628768 L 123.727629 28.233395 L 122.296991 27.532752 L 122.21347 27.160241 L 121.661152 26.864384 L 121.259711 27.289342 L 120.646773 26.346635 L 120.010934 26.354703 L 119.511154 25.882677 L 119.548873 25.227757 L 118.921117 25.160517 L 117.596901 24.497528 L 117.393486 23.455305 L 117.021682 23.250895 L 116.325223 23.806299 L 116.023469 23.31948 L 115.061627 23.334273 L 114.555111 22.877039 L 114.13077 21.926262 L 114.009529 21.225619 L 113.298252 20.678284 L 113.298252 20.35822 L 111.852795 19.948055 L 109.861757 18.881625 L 109.581557 18.965003 L 108.809659 18.577699 L 106.031904 17.891849 L 105.282907 17.92278 L 102.959131 17.648439 L 101.384352 17.67937 L 97.941121 18.082811 L 97.631285 18.203844 L 96.761047 19.155965 L 95.972984 19.726162 L 95.39103 19.750369 L 94.922233 18.550803 L 94.019665 17.672646 L 93.280098 17.232895 L 92.501464 16.411219 L 92.019197 15.391858 Z M 90.122456 15.258722 L 90.106291 15.258722 L 90.030852 15.281584 Z M 113.237631 32.797661 L 113.698345 33.093518 L 114.637286 33.366514 L 114.675005 34.14919 L 115.265042 34.583562 L 115.332398 35.046174 L 114.833965 35.289584 L 115.258306 36.369462 L 114.781427 37.599958 L 113.758965 37.501787 L 113.478765 37.281239 L 112.631429 38.108294 L 111.874349 37.706198 L 111.633215 37.212654 L 112.079111 37.006899 L 112.108748 36.171776 L 111.639951 35.62444 L 111.964606 34.931866 L 111.610314 33.868126 L 111.602232 33.199758 L 112.859092 33.199758 Z M 107.749478 33.936711 L 108.611633 34.931866 L 108.400135 35.374307 L 107.674039 34.970865 L 107.393839 34.42353 Z M 116.045022 35.563924 L 115.256959 35.395824 L 115.56006 34.76511 L 115.984402 35.106691 Z M 108.052579 37.000175 L 108.604897 37.82723 L 108.696501 38.68656 L 108.105117 38.68656 L 107.582435 39.985641 L 106.97758 39.013347 L 107.446377 38.047778 L 107.326483 37.599958 Z M 108.052579 37.000175 " stroke="rgb(100%, 100%, 100%)" stroke-width="0.5" stroke-opacity="1" stroke-miterlimit="4"/><path fill="rgb(17.248535%, 44.309998%, 94.119263%)" d="M 173.980469 117.710938 L 173.980469 120.011719 L 175.007812 121.433594 L 179.882812 123.550781 L 181.980469 123.117188 L 184.960938 126.433594 L 185.679688 128.347656 L 183.40625 130.054688 L 184.160156 132.394531 L 185.5625 133.738281 L 185.824219 135.398438 L 184.300781 137.039062 L 184.097656 139.695312 L 182.925781 142.371094 L 181.261719 144.167969 L 179.378906 142.875 L 178.023438 144.398438 L 180.808594 146.847656 L 181.785156 148.402344 L 181.851562 150.085938 L 184.191406 152.035156 L 184.898438 155.066406 L 186.714844 157.046875 L 186.824219 159.777344 L 188.003906 161.417969 L 190.792969 162.457031 L 190.136719 164.835938 L 188.59375 167.402344 L 188.972656 168.78125 L 186.976562 174.644531 L 189.570312 177.09375 L 189.792969 178.488281 L 187.441406 177.816406 L 186.171875 178.234375 L 185.351562 180.289062 L 183.492188 181.929688 L 180.300781 182.894531 L 176.949219 182.605469 L 176.464844 183.289062 L 177.003906 185.492188 L 178.148438 186.492188 L 176.449219 190.742188 L 175.5 191 L 174.253906 193.9375 L 171.71875 193.652344 L 169.527344 197.878906 L 167.289062 206.835938 L 169.890625 206.828125 L 171.890625 208.15625 L 171.347656 209.1875 L 171.96875 212.714844 L 177.441406 221.789062 L 179.148438 223.652344 L 182.585938 224.246094 L 184.996094 226.710938 L 184.964844 228.417969 L 185.875 229.839844 L 185.023438 231.246094 L 187.074219 234.425781 L 186.347656 236.113281 L 188.828125 237.367188 L 189.992188 239.03125 L 189.949219 241.8125 L 191.746094 243.933594 L 194.140625 244.835938 L 194.46875 248.910156 L 192.75 248.820312 L 189.851562 249.964844 L 186.714844 250.78125 L 181.535156 249.964844 L 179.582031 250.78125 L 177.472656 250.140625 L 176.902344 250.714844 L 172.863281 250.957031 L 172.007812 248.183594 L 168.714844 246.796875 L 170.226562 245.101562 L 169.746094 243.625 L 170.621094 241.621094 L 172.554688 241.070312 L 172.402344 239.441406 L 170.84375 236.445312 L 169.789062 235.433594 L 169.371094 233.605469 L 170.667969 232.128906 L 168.1875 228.582031 L 166.339844 227.589844 L 167.242188 226.226562 L 167.527344 222.527344 L 165.550781 220.476562 L 166.058594 219.484375 L 163.554688 216.664062 L 161.140625 215.585938 L 159.910156 213.578125 L 161.558594 212.011719 L 160.019531 210.097656 L 161.359375 207.648438 L 159.625 207.628906 L 156.992188 205.972656 L 157.210938 203.992188 L 159.097656 201.71875 L 159.121094 198.4375 L 157.980469 197.882812 L 155.367188 200.332031 L 152.996094 200.175781 L 150.078125 198.921875 L 149.507812 201.699219 L 150.628906 202.953125 L 150.738281 205.492188 L 149.792969 207.628906 L 147.535156 208.996094 L 146.65625 210.667969 L 148.652344 210.78125 L 148.609375 212.078125 L 147.488281 214.109375 L 148.433594 215.429688 L 147.554688 217.765625 L 145.929688 218.976562 L 144.570312 217.347656 L 142.046875 216.996094 L 140.511719 214.835938 L 137.21875 214.855469 L 133.507812 213.578125 L 130.195312 213.246094 L 129.710938 211.949219 L 127.320312 210.957031 L 123.894531 211.261719 L 121.789062 209.699219 L 124.488281 208.289062 L 124.378906 207.03125 L 121.085938 206.328125 L 119.570312 207.558594 L 118.804688 204.71875 L 117.441406 204.011719 L 118.234375 198.082031 L 115.6875 198.082031 L 117.136719 196.273438 L 115.378906 196.03125 L 114.765625 192.699219 L 113.46875 191.886719 L 112.375 189.238281 L 110.816406 187.273438 L 112.339844 187.960938 L 114.140625 184.828125 L 113.316406 183.890625 L 114.390625 182.683594 L 114.609375 180.261719 L 115.714844 176.558594 L 115.6875 175.242188 L 118.160156 173.035156 L 119.113281 175.519531 L 121.597656 175.414062 L 122.28125 176.25 L 124.628906 175.203125 L 124.832031 173.800781 L 123.316406 172.246094 L 121.753906 173.503906 L 119.117188 172.246094 L 120.183594 171.453125 L 119.996094 169.292969 L 121.476562 168.390625 L 122.1875 166.886719 L 123.597656 165.703125 L 123.300781 164.011719 L 122.273438 162.910156 L 123.875 163.445312 L 123.421875 159.519531 L 121.652344 157.203125 L 121.726562 155.441406 L 122.753906 154.746094 L 124.574219 155.40625 L 126.609375 155.269531 L 127.84375 156.246094 L 128.722656 153.222656 L 130.453125 153.164062 L 130.863281 151.375 L 132.5625 148.378906 L 133.867188 148.664062 L 135.28125 152.015625 L 136.753906 152.429688 L 135.375 147.367188 L 137.363281 145.082031 L 138.199219 146.449219 L 140.1875 145.683594 L 141.515625 147.578125 L 140.171875 149.996094 L 143.566406 150.328125 L 142.242188 147.808594 L 143.949219 147.625 L 145.628906 151.472656 L 148.703125 151.675781 L 150.429688 150.324219 L 150.53125 146.449219 L 149.519531 145.414062 L 148.082031 145.609375 L 147.386719 143.632812 L 145.449219 140.316406 L 145.484375 136.125 L 145.949219 133.46875 L 146.839844 131.824219 L 146.035156 127.894531 L 147.136719 125.414062 L 147.152344 125.371094 L 155.015625 123.535156 L 158.617188 123.335938 L 159.582031 122.363281 L 161.976562 121.613281 L 164.542969 121.457031 L 167.679688 119.84375 L 168.648438 118.9375 L 171.0625 118.851562 L 172.335938 117.457031 Z M 129.472656 166.125 L 127.828125 164.78125 L 126.75 162.390625 L 125.125 165.976562 L 123.976562 166.28125 L 125.371094 168.480469 L 127.574219 168.585938 Z M 133.078125 156.9375 L 132.46875 158.1875 L 131.433594 159.386719 L 130.058594 158.394531 L 129.6875 159.261719 L 129.933594 159.90625 L 131.277344 160.140625 L 134.027344 161.75 L 134.550781 161.675781 L 136.5625 161.328125 L 137.582031 159.445312 L 137.289062 158.035156 L 136.582031 157.828125 L 136.09375 157.050781 L 134.054688 157.078125 L 133.714844 156.121094 Z M 153.722656 206.527344 L 155.65625 207.847656 L 155.675781 210.207031 L 154.226562 210.050781 Z M 101.292969 236.664062 L 98.265625 233.757812 L 95.742188 231.777344 L 95.015625 228.40625 L 93.742188 226.445312 L 95.914062 226.160156 L 97.582031 223.1875 L 97.519531 221.578125 L 98.703125 220.210938 L 100.589844 219.859375 L 101.949219 217.765625 L 103.617188 216.15625 L 106.339844 217.058594 L 106.910156 219.726562 L 106.824219 221.644531 L 108.117188 224.351562 L 110.136719 224.066406 L 110.664062 226.3125 L 110.160156 227.304688 L 107.703125 227.964844 L 106.648438 232.394531 L 108.25 233.40625 L 109.699219 236.445312 L 111.191406 236.554688 L 114.042969 235.808594 L 116.304688 239.089844 L 116.960938 241.335938 L 115.382812 241.179688 L 113.144531 242.0625 L 109.28125 240.210938 L 106.777344 239.460938 L 103.949219 239.308594 L 102.695312 238.648438 Z M 156.445312 220.960938 L 159.695312 221.136719 L 160.59375 221.730469 L 159.519531 223.976562 L 157.542969 225.300781 L 154.339844 223.714844 L 148.941406 228.230469 L 146.613281 228.625 L 145.714844 226.070312 L 147.207031 225.277344 L 150.453125 224.925781 L 152.144531 222.609375 Z M 147.449219 221.46875 L 149.46875 222.855469 L 146.351562 223.667969 Z M 99.25 243.800781 L 101.710938 244.019531 L 102.015625 246.003906 L 100.632812 248.003906 L 99.140625 245.671875 Z M 99.25 243.800781 " fill-opacity="1" fill-rule="nonzero"/><g clip-path="url(#id7)"><path stroke-linecap="butt" transform="matrix(2.899712, 0, 0, 2.904697, 0.573201, 55.158498)" fill="none" stroke-linejoin="miter" d="M 59.801554 21.534924 L 59.801554 22.327014 L 60.155846 22.816523 L 61.837048 23.545407 L 62.560449 23.396134 L 63.588299 24.537873 L 63.836169 25.196827 L 63.052147 25.784506 L 63.31214 26.590044 L 63.795755 27.052657 L 63.886012 27.624199 L 63.360636 28.189017 L 63.290586 29.103484 L 62.886451 30.024675 L 62.31258 30.643285 L 61.663269 30.198154 L 61.19582 30.722628 L 62.156314 31.565821 L 62.493093 32.101053 L 62.515994 32.680663 L 63.322917 33.351721 L 63.566745 34.395289 L 64.193155 35.077105 L 64.230874 36.017123 L 64.637703 36.581941 L 65.599544 36.939659 L 65.373229 37.758645 L 64.841118 38.642181 L 64.971788 39.116897 L 64.283411 41.135449 L 65.177897 41.978641 L 65.254683 42.458736 L 64.443718 42.22743 L 64.005905 42.371324 L 63.723011 43.078691 L 63.081783 43.643509 L 61.981189 43.975676 L 60.825363 43.87616 L 60.65832 44.111501 L 60.844223 44.869971 L 61.238928 45.214241 L 60.652932 46.677388 L 60.325583 46.766145 L 59.895852 47.777438 L 59.021574 47.679267 L 58.265841 49.134346 L 57.493943 52.217982 L 58.391123 52.215293 L 59.080847 52.672526 L 58.893598 53.027555 L 59.107789 54.241913 L 60.9951 57.365894 L 61.58379 58.007365 L 62.769252 58.211776 L 63.600423 59.060347 L 63.589646 59.648027 L 63.903524 60.137536 L 63.609853 60.621665 L 64.317089 61.716336 L 64.066526 62.297291 L 64.921945 62.728974 L 65.323385 63.30186 L 65.308567 64.259361 L 65.928241 64.98959 L 66.754023 65.30024 L 66.867181 66.702871 L 66.27445 66.67194 L 65.274889 67.065968 L 64.193155 67.347032 L 62.406878 67.065968 L 61.73332 67.347032 L 61.005877 67.126484 L 60.809197 67.32417 L 59.416279 67.407548 L 59.12126 66.452737 L 57.985641 65.975332 L 58.506975 65.391686 L 58.34128 64.88335 L 58.643034 64.193466 L 59.309857 64.003848 L 59.257319 63.443065 L 58.71982 62.4116 L 58.356098 62.063295 L 58.211957 61.433927 L 58.659199 60.925591 L 57.80378 59.704509 L 57.166594 59.362928 L 57.477778 58.893591 L 57.576117 57.620062 L 56.894476 56.914039 L 57.069602 56.572459 L 56.2061 55.60151 L 55.373582 55.230344 L 54.94924 54.539115 L 55.517723 53.999848 L 54.986959 53.340894 L 55.44902 52.497702 L 54.8509 52.490978 L 53.942944 51.92078 L 54.018382 51.238965 L 54.66904 50.456288 L 54.677122 49.326653 L 54.283764 49.13569 L 53.382543 49.978883 L 52.564843 49.925091 L 51.558547 49.493408 L 51.361868 50.449564 L 51.748491 50.881247 L 51.78621 51.75537 L 51.460208 52.490978 L 50.681574 52.961659 L 50.378473 53.537235 L 51.06685 53.576235 L 51.052031 54.02271 L 50.665409 54.722008 L 50.991411 55.176552 L 50.68831 55.980745 L 50.127909 56.397634 L 49.659113 55.836851 L 48.788875 55.715819 L 48.259459 54.972142 L 47.123839 54.978866 L 45.844078 54.539115 L 44.701723 54.424806 L 44.534681 53.978331 L 43.710246 53.636751 L 42.528824 53.741646 L 41.802728 53.203724 L 42.733586 52.718249 L 42.695867 52.285222 L 41.560247 52.043158 L 41.037566 52.466771 L 40.773531 51.489098 L 40.303388 51.245689 L 40.576852 49.204275 L 39.698532 49.204275 L 40.198312 48.581631 L 39.59211 48.498253 L 39.380613 47.351135 L 38.93337 47.071416 L 38.556177 46.159638 L 38.018678 45.483202 L 38.544053 45.719887 L 39.165074 44.641354 L 38.880832 44.318601 L 39.251289 43.903056 L 39.326728 43.069278 L 39.707962 41.794403 L 39.698532 41.341204 L 40.551257 40.581389 L 40.879953 41.436685 L 41.73672 41.400375 L 41.972465 41.688164 L 42.782082 41.327756 L 42.852132 40.844971 L 42.329451 40.309739 L 41.790604 40.742766 L 40.881301 40.309739 L 41.249063 40.036744 L 41.184402 39.293067 L 41.694959 38.982417 L 41.940134 38.464667 L 42.426443 38.057192 L 42.324063 37.474891 L 41.969771 37.095656 L 42.522089 37.279895 L 42.365823 35.928366 L 41.755579 35.130897 L 41.781174 34.52439 L 42.135466 34.285015 L 42.763223 34.512287 L 43.46507 34.465219 L 43.890759 34.80142 L 44.19386 33.760541 L 44.790633 33.740369 L 44.93208 33.124449 L 45.518076 32.092984 L 45.968013 32.191155 L 46.455669 33.344997 L 46.963532 33.487546 L 46.488 31.74468 L 47.173683 30.957969 L 47.461966 31.42865 L 48.147648 31.165069 L 48.605668 31.817299 L 48.142259 32.649733 L 49.312904 32.764041 L 48.856231 31.896642 L 49.444921 31.833437 L 50.024181 33.158069 L 51.084362 33.227999 L 51.679788 32.762696 L 51.714813 31.42865 L 51.36591 31.072277 L 50.870171 31.139518 L 50.630384 30.459046 L 49.962214 29.317308 L 49.974338 27.874332 L 50.134645 26.959865 L 50.441788 26.393703 L 50.164282 25.040829 L 50.544168 24.186879 L 50.549557 24.172086 L 53.261303 23.540028 L 54.503344 23.471443 L 54.836082 23.136586 L 55.661865 22.878384 L 56.54692 22.824592 L 57.628655 22.269187 L 57.96274 21.957193 L 58.795258 21.927607 L 59.234418 21.447512 Z M 44.452507 38.20243 L 43.885371 37.739818 L 43.513567 36.916797 L 42.953166 38.151328 L 42.557114 38.256223 L 43.038034 39.013347 L 43.797808 39.049657 Z M 45.695896 35.03945 L 45.485745 35.469788 L 45.128759 35.882643 L 44.654574 35.541062 L 44.526598 35.839609 L 44.611467 36.061502 L 45.074875 36.14219 L 46.023245 36.696249 L 46.203759 36.670698 L 46.897524 36.551011 L 47.249121 35.902815 L 47.148087 35.41734 L 46.904259 35.346066 L 46.73587 35.07845 L 46.032675 35.087863 L 45.915476 34.758386 Z M 52.815407 52.111743 L 53.48223 52.566287 L 53.488965 53.378548 L 52.989185 53.324756 Z M 34.734407 62.486909 L 33.690392 61.486374 L 32.820154 60.804559 L 32.569591 59.643992 L 32.130431 58.9689 L 32.879428 58.87073 L 33.454646 57.847334 L 33.433092 57.293274 L 33.841269 56.822593 L 34.491926 56.70156 L 34.960723 55.980745 L 35.535942 55.426686 L 36.474882 55.737335 L 36.671561 56.655837 L 36.641924 57.316136 L 37.08782 58.248085 L 37.784279 58.149915 L 37.96614 58.923177 L 37.792362 59.264757 L 36.945026 59.492029 L 36.581304 61.017038 L 37.133622 61.365342 L 37.633402 62.4116 L 38.148001 62.449254 L 39.131396 62.192397 L 39.911377 63.322032 L 40.137692 64.095295 L 39.593457 64.041503 L 38.821559 64.345429 L 37.489261 63.707991 L 36.625759 63.449789 L 35.650447 63.397341 L 35.218022 63.17007 Z M 53.754347 57.080795 L 54.875149 57.141311 L 55.184985 57.345722 L 54.814528 58.118984 L 54.132887 58.574873 L 53.028252 58.028882 L 51.166536 59.583476 L 50.363655 59.719301 L 50.053818 58.839799 L 50.568417 58.566804 L 51.687871 58.445772 L 52.271172 57.648303 Z M 50.651938 57.25562 L 51.348397 57.733025 L 50.273398 58.012745 Z M 34.029865 64.943867 L 34.878549 65.019176 L 34.983624 65.702336 L 34.506744 66.390876 L 33.992146 65.588028 Z M 34.029865 64.943867 " stroke="rgb(100%, 100%, 100%)" stroke-width="0.5" stroke-opacity="1" stroke-miterlimit="4"/></g><path stroke-linecap="butt" transform="matrix(2.899712, 0, 0, 2.904697, 0.573201, 55.158498)" fill-opacity="1" fill="rgb(17.248535%, 44.309998%, 94.119263%)" fill-rule="nonzero" stroke-linejoin="miter" d="M 92.017849 15.393202 L 92.501464 16.412564 L 93.278751 17.23424 L 94.018318 17.673991 L 94.920886 18.552148 L 95.056945 19.165379 L 95.624081 20.421426 L 95.434137 21.045415 L 94.072202 21.257895 L 93.588587 21.478442 L 92.59711 21.501304 L 91.453408 21.981399 L 90.689592 22.445357 L 90.409392 23.198447 L 89.978315 23.662405 L 89.826091 24.38591 L 90.091473 24.613182 L 90.160176 25.336686 L 90.614154 25.800644 L 90.235614 26.302256 L 90.348772 26.713766 L 89.92443 27.154862 L 88.487057 27.725059 L 88.1166 28.09757 L 88.660835 28.538666 L 89.432733 28.888315 L 91.053314 28.61532 L 89.501436 29.907677 L 87.328536 30.507459 L 87.018699 31.131449 L 86.32224 31.39772 L 85.966601 31.793092 L 85.165067 32.196534 L 84.755543 33.024933 L 83.046052 34.157259 L 81.988566 34.704594 L 81.595208 33.611268 L 80.94455 32.799006 L 81.10351 31.584648 L 80.591606 30.859798 L 80.886624 29.618544 L 80.389538 28.090846 L 80.5943 27.191172 L 80.486531 26.189292 L 80.172653 25.264067 L 79.369771 24.302532 L 79.011438 21.314376 L 79.546243 20.758972 L 79.888411 20.098673 L 79.666137 19.810885 L 79.905923 19.244722 L 80.464977 19.044346 L 81.104857 18.219981 L 82.218923 18.954245 L 83.848934 19.102173 L 84.58446 18.747145 L 84.813469 18.172913 L 84.910462 17.277273 L 84.166853 15.68368 L 84.989942 15.024726 L 85.038438 13.954262 L 85.694484 13.24555 L 86.750623 13.124517 L 87.422834 13.341031 L 87.845829 13.24286 L 88.720108 13.697404 L 88.76591 14.672387 L 89.258955 15.112138 L 90.036241 15.368996 L 90.591253 15.030105 L 91.174554 15.297721 L 91.892568 15.335376 L 92.015155 15.395892 Z M 92.017849 15.393202 " stroke="rgb(100%, 100%, 100%)" stroke-width="0.5" stroke-opacity="1" stroke-miterlimit="4"/><path fill="rgb(17.248535%, 44.309998%, 94.119263%)" d="M 460.71875 173.988281 L 451.949219 175.996094 L 450.765625 176.941406 L 446.832031 177.175781 L 444.667969 178.734375 L 444.804688 179.847656 L 442.972656 180.292969 L 440.613281 179.988281 L 437.390625 181.65625 L 436.550781 181.625 L 435.363281 179.542969 L 433.625 178.058594 L 432 178.421875 L 431.824219 174.683594 L 430.785156 171.882812 L 427.882812 169.632812 L 423.617188 167.914062 L 422.453125 167.75 L 422.019531 165.722656 L 420.417969 164.65625 L 419.582031 162.199219 L 418.398438 161.871094 L 417.246094 160.042969 L 416.460938 156.6875 L 415.433594 154.800781 L 416.324219 153.859375 L 415.605469 151.0625 L 414.113281 150.242188 L 413.796875 147.9375 L 412.574219 148.3125 L 410.464844 146.621094 L 411.746094 144.96875 L 411.113281 143.621094 L 409.324219 142.503906 L 408.5 140.089844 L 408.332031 137.941406 L 409.035156 136.6875 L 411.398438 135.515625 L 411.839844 133.851562 L 413.804688 132.003906 L 414.242188 130.050781 L 418.078125 128.898438 L 420.167969 126.632812 L 423.058594 126.015625 L 424.292969 126.8125 L 427.863281 127.898438 L 430.46875 129.589844 L 431.753906 132.671875 L 433.015625 132.730469 L 434.886719 133.839844 L 435.152344 134.828125 L 434.164062 136.984375 L 436.285156 140.171875 L 437.433594 140.707031 L 439.019531 140.054688 L 440.207031 140.476562 L 442.015625 144.742188 L 443.601562 146.238281 L 444.984375 148.269531 L 445.089844 149.914062 L 448.21875 150.007812 L 450.105469 153.03125 L 451.410156 154.175781 L 453.757812 158.703125 L 453.019531 161.332031 L 454.574219 164.28125 L 454.71875 166.144531 L 456.339844 167.839844 L 456.835938 169.84375 L 458.792969 170.261719 L 459.941406 171.4375 Z M 388.339844 181.757812 L 388.738281 183.347656 L 390.855469 185.394531 L 391.308594 185.863281 L 392.5625 189.59375 L 394.214844 190.582031 L 394.957031 194.355469 L 398.429688 191.667969 L 399.316406 192.238281 L 400.558594 195.503906 L 401.644531 200.242188 L 402.292969 201.058594 L 402.917969 204.109375 L 404.195312 204.199219 L 405.171875 206.859375 L 404.46875 208.84375 L 405.484375 213.445312 L 405.414062 217.734375 L 404.820312 218.261719 L 403.988281 218.6875 L 403.488281 219.460938 L 402.585938 220.078125 L 401.777344 220.351562 L 401.449219 220.304688 L 400.878906 219.734375 L 399.949219 218.144531 L 399.046875 218.207031 L 397.773438 218.929688 L 397.632812 220.191406 L 396.0625 221.074219 L 394.941406 217.933594 L 394.546875 215.40625 L 393.597656 215.757812 L 391.160156 213.742188 L 389.527344 213.289062 L 386.691406 214.460938 L 384.800781 212.914062 L 382.601562 210.453125 L 379.84375 206.128906 L 379.253906 203.222656 L 377.753906 200.570312 L 377.65625 199.074219 L 376.011719 199.019531 L 374.53125 195.585938 L 375.15625 193.804688 L 374.390625 192.203125 L 375.28125 190.710938 L 377.601562 190.59375 L 379 189.066406 L 380.714844 188.144531 L 382.113281 188.902344 L 383.023438 189.144531 L 383.847656 189.203125 L 384.214844 189.140625 L 384.394531 189.015625 L 384.664062 188.394531 L 384.523438 184.695312 L 382.515625 183.617188 L 382.585938 182.617188 L 386.160156 180.351562 L 387.390625 180.984375 Z M 388.339844 181.757812 " fill-opacity="1" fill-rule="nonzero"/><g clip-path="url(#id8)"><path stroke-linecap="butt" transform="matrix(2.899712, 0, 0, 2.904697, 0.573201, 55.158498)" fill="none" stroke-linejoin="miter" d="M 158.686654 40.909522 L 155.662377 41.600751 L 155.2542 41.926194 L 153.897654 42.006882 L 153.151351 42.543459 L 153.1985 42.926728 L 152.566703 43.080036 L 151.753044 42.975141 L 150.641673 43.549373 L 150.352043 43.538614 L 149.942519 42.821834 L 149.343052 42.310808 L 148.782652 42.435875 L 148.722032 41.148897 L 148.363699 40.184672 L 147.362791 39.410065 L 145.891739 38.818351 L 145.490299 38.761869 L 145.340769 38.063916 L 144.788451 37.696784 L 144.500168 36.850902 L 144.091992 36.737938 L 143.694592 36.10857 L 143.423822 34.953383 L 143.06953 34.303842 L 143.376673 33.979744 L 143.128803 33.016865 L 142.614205 32.734456 L 142.505088 31.941021 L 142.083441 32.070122 L 141.355998 31.487822 L 141.797852 30.91897 L 141.579619 30.455012 L 140.96264 30.070398 L 140.678398 29.239309 L 140.620472 28.499666 L 140.862953 28.067984 L 141.677958 27.664543 L 141.830183 27.091656 L 142.507782 26.455564 L 142.658659 25.783161 L 143.981528 25.386444 L 144.702235 24.606458 L 145.699102 24.393978 L 146.124791 24.668319 L 147.356055 25.042174 L 148.254582 25.624475 L 148.697783 26.685525 L 149.132902 26.705697 L 149.778171 27.087622 L 149.869775 27.427857 L 149.528954 28.170189 L 150.260439 29.26755 L 150.656491 29.451788 L 151.20342 29.227206 L 151.612944 29.372445 L 152.236659 30.840971 L 152.783588 31.356031 L 153.260468 32.055329 L 153.29684 32.621492 L 154.37588 32.653767 L 155.026538 33.694646 L 155.476475 34.088674 L 156.286092 35.647302 L 156.031487 36.552355 L 156.567639 37.567683 L 156.617482 38.209154 L 157.176536 38.7928 L 157.34762 39.482684 L 158.022525 39.626578 L 158.418577 40.031364 Z M 133.725929 43.584338 L 133.863335 44.131673 L 134.593472 44.836351 L 134.749737 44.997727 L 135.182162 46.282015 L 135.751992 46.622251 L 136.007944 47.921332 L 137.205531 46.996107 L 137.511327 47.192448 L 137.93971 48.316705 L 138.314208 49.947952 L 138.53783 50.229016 L 138.753368 51.279309 L 139.193875 51.310239 L 139.530655 52.226051 L 139.288174 52.909212 L 139.638424 54.493391 L 139.614176 55.969987 L 139.409414 56.151535 L 139.122478 56.298119 L 138.950047 56.56439 L 138.638863 56.776869 L 138.36001 56.871006 L 138.246852 56.854868 L 138.050173 56.658526 L 137.72956 56.111191 L 137.418376 56.132708 L 136.979216 56.381497 L 136.930719 56.815869 L 136.389178 57.119794 L 136.002556 56.038572 L 135.866497 55.168483 L 135.539148 55.289516 L 134.698547 54.595596 L 134.135452 54.439599 L 133.157446 54.84304 L 132.505441 54.310498 L 131.747014 53.463271 L 130.79595 51.974573 L 130.592535 50.974038 L 130.075243 50.060916 L 130.041565 49.545856 L 129.474429 49.527029 L 128.963871 48.344945 L 129.17941 47.731715 L 128.915375 47.180345 L 129.222518 46.66663 L 130.022705 46.626285 L 130.504973 46.100467 L 131.096357 45.783093 L 131.578625 46.043985 L 131.892503 46.127363 L 132.176745 46.147535 L 132.303374 46.126018 L 132.365341 46.082984 L 132.458292 45.86916 L 132.409796 44.595631 L 131.717378 44.224465 L 131.741626 43.880195 L 132.974238 43.100208 L 133.398579 43.318066 Z M 133.725929 43.584338 " stroke="rgb(100%, 100%, 100%)" stroke-width="0.5" stroke-opacity="1" stroke-miterlimit="4"/></g><path fill="rgb(17.248535%, 44.309998%, 94.119263%)" d="M 443.601562 146.234375 L 442.015625 144.738281 L 440.207031 140.472656 L 439.019531 140.050781 L 437.433594 140.703125 L 436.285156 140.167969 L 434.164062 136.980469 L 435.152344 134.824219 L 434.886719 133.835938 L 433.015625 132.726562 L 431.753906 132.667969 L 430.46875 129.585938 L 427.863281 127.898438 L 424.292969 126.808594 L 425.421875 125.972656 L 424.835938 123.148438 L 422.007812 121.519531 L 421.691406 119.800781 L 420.382812 118.660156 L 416.738281 117.160156 L 415.480469 115.730469 L 414.105469 115.707031 L 412.753906 114.289062 L 411.378906 111.925781 L 411.695312 111.03125 L 407.910156 108.351562 L 407.730469 106.699219 L 406.171875 106.320312 L 404.40625 105.078125 L 402.136719 102.578125 L 398.777344 100.953125 L 397.203125 101.214844 L 395.566406 100.355469 L 395.875 98.699219 L 394.839844 97.773438 L 394.492188 95.515625 L 391.082031 94.015625 L 386.859375 92.945312 L 383.902344 92.722656 L 381.761719 93.617188 L 377.972656 91.496094 L 378.296875 90.402344 L 377.085938 87.371094 L 374.976562 87.976562 L 374.164062 88.839844 L 371.664062 88.148438 L 370.382812 86.5 L 368.898438 87.140625 L 368.351562 89.433594 L 365.625 88.757812 L 364.476562 87.433594 L 363.394531 84.445312 L 361.484375 83.433594 L 361.269531 80.664062 L 359.738281 80.527344 L 357.851562 82.289062 L 351.941406 82.867188 L 350.769531 81.585938 L 348.453125 80.492188 L 346.398438 78.273438 L 344.574219 77.742188 L 342.347656 79.5 L 336.566406 77.785156 L 332.871094 80.121094 L 330.660156 79.046875 L 329.144531 80.980469 L 329.332031 82.410156 L 327.9375 83.683594 L 324.472656 83.492188 L 322.910156 84.269531 L 319.949219 84.847656 L 316.300781 84.542969 L 314.21875 84.023438 L 314.804688 82.828125 L 313.679688 81.683594 L 311.769531 81.304688 L 309.761719 81.914062 L 308.105469 81.371094 L 306.082031 82.015625 L 303.144531 83.828125 L 300.621094 83.59375 L 300.675781 81.65625 L 302.210938 80.882812 L 302.6875 80.148438 L 306.414062 77.476562 L 308.511719 77.035156 L 310.960938 71.714844 L 314.035156 69.550781 L 315.019531 69.949219 L 315.707031 63.867188 L 319.554688 63.226562 L 324.296875 63.15625 L 323.707031 64.796875 L 322.167969 65.527344 L 318.152344 65.640625 L 316.332031 67.808594 L 316.15625 70.089844 L 317.886719 73.410156 L 319.074219 72.59375 L 320.917969 73.167969 L 322.804688 72.015625 L 325.175781 71.75 L 328.535156 72.96875 L 328.929688 74.339844 L 333.1875 74.652344 L 335.117188 73.234375 L 335.6875 74.054688 L 338.496094 73.367188 L 338.78125 72.257812 L 340.710938 72.925781 L 343.613281 71.839844 L 344.511719 73.078125 L 348.570312 74.585938 L 349.425781 73.855469 L 353.925781 74.71875 L 355.527344 72.988281 L 357.285156 73.34375 L 360.246094 75.027344 L 363.625 75.117188 L 363.957031 76 L 366.875 76.089844 L 367.597656 77.574219 L 372.996094 79.875 L 374.863281 79.984375 L 376.730469 81.625 L 380.414062 82.773438 L 380.855469 83.417969 L 384.167969 85.140625 L 387.132812 85.035156 L 390.640625 86.492188 L 392.507812 87.992188 L 396.988281 88.550781 L 398.496094 89.457031 L 398.5 90.476562 L 400.320312 91.429688 L 400.78125 92.777344 L 405.128906 95.453125 L 406.269531 98.152344 L 409.78125 101.164062 L 411.011719 101.824219 L 412.128906 100.410156 L 413.183594 101.890625 L 416.101562 103.992188 L 416.1875 105.851562 L 420.535156 108.660156 L 419.855469 111.6875 L 422.664062 115.003906 L 423.34375 117.105469 L 424.925781 117.570312 L 428.984375 122.035156 L 430.390625 122.851562 L 430.960938 121.285156 L 433.023438 123.78125 L 434.667969 124.863281 L 434.800781 126.898438 L 437.324219 126.652344 L 437.457031 129.0625 L 436.863281 131.207031 L 442.085938 134.234375 L 446.167969 135.269531 L 447.265625 134.277344 L 448.867188 134.054688 L 449.363281 136.230469 L 448.773438 138.980469 L 445.132812 142.667969 Z M 443.601562 146.234375 " fill-opacity="1" fill-rule="nonzero"/><g clip-path="url(#id9)"><path stroke-linecap="butt" transform="matrix(2.899712, 0, 0, 2.904697, 0.573201, 55.158498)" fill="none" stroke-linejoin="miter" d="M 152.783588 31.354686 L 152.236659 30.839626 L 151.612944 29.3711 L 151.20342 29.225861 L 150.656491 29.450443 L 150.260439 29.266205 L 149.528954 28.168845 L 149.869775 27.426512 L 149.778171 27.086277 L 149.132902 26.704353 L 148.697783 26.68418 L 148.254582 25.62313 L 147.356055 25.042174 L 146.124791 24.666974 L 146.514107 24.379186 L 146.31204 23.406892 L 145.336727 22.846109 L 145.227611 22.254395 L 144.776327 21.861712 L 143.519467 21.345307 L 143.085695 20.853108 L 142.61151 20.84504 L 142.145408 20.356876 L 141.671223 19.543269 L 141.780339 19.235309 L 140.474983 18.312773 L 140.413016 17.743921 L 139.875516 17.613475 L 139.26662 17.185827 L 138.483945 16.325152 L 137.325425 15.765713 L 136.782536 15.855815 L 136.218095 15.559958 L 136.324517 14.989761 L 135.967531 14.671042 L 135.847638 13.893745 L 134.671605 13.377341 L 133.215372 13.008864 L 132.195604 12.93221 L 131.457384 13.240171 L 130.150681 12.509942 L 130.262492 12.133396 L 129.844886 11.089828 L 129.117443 11.298273 L 128.837242 11.595475 L 127.975088 11.357444 L 127.533233 10.789937 L 127.021329 11.010485 L 126.832733 11.799885 L 125.892445 11.567234 L 125.496393 11.111345 L 125.123242 10.08257 L 124.464502 9.734265 L 124.39041 8.780799 L 123.86234 8.733731 L 123.211683 9.340238 L 121.173496 9.539269 L 120.769361 9.098173 L 119.97052 8.721628 L 119.261937 7.957779 L 118.632834 7.774885 L 117.864977 8.380047 L 115.871244 7.789678 L 114.596872 8.593871 L 113.834404 8.22405 L 113.311723 8.889728 L 113.376384 9.381927 L 112.895464 9.820333 L 111.700571 9.754437 L 111.161724 10.022053 L 110.14061 10.221085 L 108.882403 10.11619 L 108.16439 9.937331 L 108.366457 9.525821 L 107.978488 9.131793 L 107.319748 9.001347 L 106.62733 9.211136 L 106.056152 9.024209 L 105.358346 9.246101 L 104.345314 9.870091 L 103.475077 9.789402 L 103.493936 9.122379 L 104.023353 8.856108 L 104.187701 8.603285 L 105.472851 7.683439 L 106.196252 7.531476 L 107.040895 5.699852 L 108.101075 4.95483 L 108.440549 5.092 L 108.677641 2.99814 L 110.004551 2.777592 L 111.639951 2.753386 L 111.436536 3.318203 L 110.905772 3.569682 L 109.520936 3.608681 L 108.89318 4.355048 L 108.83256 5.140413 L 109.429332 6.283497 L 109.838856 6.002433 L 110.474695 6.200119 L 111.125352 5.803402 L 111.943052 5.711955 L 113.101573 6.131534 L 113.237631 6.603561 L 114.705988 6.711145 L 115.371464 6.222981 L 115.568143 6.50539 L 116.53672 6.268704 L 116.63506 5.88678 L 117.300535 6.116741 L 118.301443 5.742886 L 118.61128 6.169189 L 120.010934 6.688283 L 120.305952 6.436805 L 121.857831 6.734007 L 122.410149 6.138258 L 123.016351 6.260635 L 124.037466 6.840246 L 125.202722 6.871177 L 125.317226 7.175103 L 126.323523 7.206033 L 126.572739 7.717059 L 128.434454 8.509149 L 129.078376 8.546803 L 129.722298 9.111621 L 130.992629 9.506993 L 131.144853 9.728886 L 132.287208 10.321945 L 133.30967 10.285635 L 134.51938 10.787247 L 135.163302 11.303652 L 136.708445 11.495959 L 137.228432 11.807954 L 137.229779 12.158948 L 137.857536 12.48708 L 138.016495 12.951038 L 139.515836 13.872229 L 139.909194 14.801488 L 141.120252 15.838333 L 141.544594 16.065605 L 141.929869 15.578785 L 142.293591 16.088466 L 143.299887 16.811971 L 143.329524 17.452098 L 144.828864 18.419012 L 144.594466 19.461236 L 145.563043 20.602975 L 145.797441 21.32648 L 146.343024 21.486511 L 147.742678 23.023623 L 148.22764 23.304687 L 148.424319 22.76542 L 149.135596 23.62475 L 149.702733 23.997261 L 149.748534 24.697904 L 150.618772 24.613182 L 150.664574 25.442926 L 150.459812 26.181224 L 152.260907 27.223447 L 153.668644 27.57982 L 154.047184 27.23824 L 154.599502 27.161586 L 154.770585 27.910642 L 154.567171 28.857384 L 153.311658 30.12688 Z M 152.783588 31.354686 " stroke="rgb(100%, 100%, 100%)" stroke-width="0.5" stroke-opacity="1" stroke-miterlimit="4"/></g><path stroke-linecap="butt" transform="matrix(2.899712, 0, 0, 2.904697, 0.573201, 55.158498)" fill-opacity="1" fill="rgb(17.248535%, 44.309998%, 94.119263%)" fill-rule="nonzero" stroke-linejoin="miter" d="M 50.545516 24.188223 L 50.165629 25.042174 L 50.443135 26.393703 L 50.135992 26.959865 L 49.975685 27.874332 L 49.963561 29.317308 L 50.631731 30.459046 L 50.871518 31.139518 L 51.367257 31.073622 L 51.71616 31.429995 L 51.681135 32.764041 L 51.084362 33.227999 L 50.025529 33.158069 L 49.447615 31.834781 L 48.857578 31.897987 L 49.314251 32.765386 L 48.143607 32.651078 L 48.608362 31.818644 L 48.148995 31.165069 L 47.463313 31.42865 L 47.17503 30.957969 L 46.489347 31.74468 L 46.964879 33.488891 L 46.457016 33.346342 L 45.96936 32.191155 L 45.519423 32.092984 L 44.933428 33.125794 L 44.79198 33.740369 L 44.195208 33.761886 L 43.893453 34.802765 L 43.466417 34.466564 L 42.76457 34.512287 L 42.136813 34.285015 L 41.782522 34.525735 L 41.758274 35.132242 L 40.813945 35.688991 L 40.248156 35.237137 L 39.682367 35.979469 L 39.229736 37.335032 L 38.867361 37.433202 L 38.254423 38.213189 L 37.976917 37.820506 L 37.130928 37.621475 L 36.507213 38.631423 L 35.956242 38.1715 L 34.879896 38.327497 L 34.478455 38.245464 L 33.713293 37.556924 L 33.811632 36.631699 L 32.593839 36.588665 L 31.431277 36.719111 L 30.807562 36.581941 L 29.809349 36.953107 L 29.632876 36.509322 L 29.186981 36.498563 L 28.579431 35.799265 L 28.765333 35.07845 L 28.549795 34.099432 L 28.002865 34.306532 L 27.69707 34.07926 L 27.542151 33.268343 L 26.980404 32.53408 L 26.604558 33.124449 L 24.411452 33.568234 L 24.284823 32.457426 L 24.924704 31.7783 L 25.172573 30.800627 L 25.642717 30.390461 L 24.72533 30.116121 L 25.129465 29.248722 L 25.187391 27.729093 L 25.1133 24.871384 L 23.612612 24.822971 L 22.684449 24.644112 L 22.014932 24.707318 L 20.933197 23.38672 L 20.092596 23.320825 L 18.954282 22.937555 L 19.388054 23.012864 L 19.821826 21.240412 L 20.192283 20.964727 L 19.715403 19.665646 L 19.148267 19.127724 L 17.519603 18.726973 L 17.060236 18.242843 L 17.798456 17.973882 L 18.04902 17.598682 L 18.666 17.595992 L 19.711362 15.776472 L 19.832603 15.159206 L 20.309482 14.905038 L 20.950709 15.160551 L 20.810609 15.594923 L 21.434324 16.564527 L 20.227308 17.353927 L 20.246167 18.041122 L 20.717658 18.338324 L 21.08138 18.132569 L 21.616185 18.316807 L 21.710483 18.908521 L 22.672324 18.999968 L 23.824109 19.691197 L 23.7352 20.602975 L 23.270444 20.448322 L 23.211171 21.056174 L 23.873953 21.194689 L 24.197261 22.45746 L 24.808852 21.35741 L 25.734321 20.882694 L 26.596475 20.970106 L 26.833568 20.289635 L 27.01947 20.412013 L 27.094909 21.066932 L 27.676863 21.181241 L 28.638704 20.455046 L 28.777457 19.774575 L 29.108848 19.484097 L 29.632876 19.925193 L 30.837199 19.818954 L 31.132217 19.575544 L 31.184755 18.616699 L 31.813858 18.821109 L 32.071158 19.40072 L 33.002015 19.209757 L 33.811632 19.445098 L 34.491926 20.062363 L 34.993054 19.810885 L 35.40123 18.866832 L 35.045591 18.082811 L 33.811632 17.687439 L 32.805336 16.673456 L 32.487417 15.851781 L 31.828677 15.273515 L 30.548916 14.55001 L 31.245375 14.184223 L 31.661634 14.527148 L 32.320374 14.038984 L 31.412417 13.849367 L 31.343715 13.232102 L 32.350011 13.254963 L 33.10709 14.373841 L 33.796814 14.847212 L 33.539515 15.371686 L 33.918054 16.36953 L 35.643711 16.575286 L 35.991267 17.093035 L 36.81705 17.481684 L 37.467707 18.706801 L 38.746121 20.328635 L 40.396339 22.101087 L 41.812158 23.288549 L 42.826537 23.79823 L 43.370772 23.531959 L 44.627632 23.90447 L 45.171867 23.683922 L 46.079824 23.858746 L 46.799184 24.254119 L 47.608801 24.147879 L 48.305261 24.285049 L 48.62318 23.987848 L 49.985115 23.889677 Z M 46.032675 35.087863 L 46.73587 35.07845 L 46.905606 35.346066 L 47.148087 35.41734 L 47.250468 35.902815 L 46.897524 36.551011 L 46.205106 36.670698 L 46.024592 36.696249 L 45.076222 36.14219 L 44.611467 36.061502 L 44.527945 35.839609 L 44.654574 35.541062 L 45.130107 35.882643 L 45.485745 35.469788 L 45.695896 35.03945 L 45.916823 34.758386 Z M 41.941481 38.466012 L 41.172278 37.979193 L 41.591231 37.14138 L 41.223468 36.594044 L 40.796432 36.90066 L 40.808556 37.644337 L 40.475818 37.512546 L 40.102667 37.493718 L 39.869616 36.885867 L 39.764541 36.641112 L 40.746589 36.906039 L 40.508149 36.307601 L 40.813945 35.690336 L 40.815292 36.03864 L 41.789257 36.372152 L 41.971118 37.097001 L 42.32541 37.476236 L 42.42779 38.058536 Z M 44.452507 38.20243 L 43.799155 39.049657 L 43.039381 39.013347 L 42.558461 38.256223 L 42.953166 38.151328 L 43.514914 36.916797 L 43.885371 37.739818 Z M 41.04026 38.642181 L 40.937879 39.284998 L 40.03127 39.079243 L 39.986815 38.700008 L 40.774878 38.54939 Z M 40.882648 40.309739 L 41.791951 40.742766 L 42.330798 40.309739 L 42.853479 40.844971 L 42.783429 41.327756 L 41.973812 41.688164 L 41.738067 41.40172 L 40.881301 41.43803 L 40.552604 40.581389 Z M 40.882648 40.309739 " stroke="rgb(100%, 100%, 100%)" stroke-width="0.5" stroke-opacity="1" stroke-miterlimit="4"/></svg>