<svg width="112" height="113" viewBox="0 0 112 113" fill="none" xmlns="http://www.w3.org/2000/svg">
<g clip-path="url(#clip0)">
<path d="M111.974 43.7007C111.713 49.609 110.548 55.4316 108.527 60.9371C108.406 61.2781 108.285 61.61 108.173 61.951C96.5639 95.6957 105.415 116.776 61.029 112.37C58.2537 112.093 55.2803 111.725 52.0741 111.245C37.362 109.061 23.3308 106.95 13.5572 100.498C2.62866 93.3084 -2.99073 80.7083 1.62889 56.5496C8.89446 18.5373 9.73909 9.025 52.1 2.05668C88.6691 -3.95303 112.965 15.2191 111.974 43.7007Z" fill="#EAF1FE"/>
<path d="M29.1398 18.012L28.7175 21.6159L30.1827 24.8973L26.8128 24.4457L23.7445 26.0126L24.1668 22.4086L22.7017 19.1273L26.0716 19.5789L29.1398 18.012Z" fill="#15357A"/>
<path d="M18.8835 62.2827L18.5819 64.882L19.642 67.2509L17.2115 66.9283L14.9965 68.062L15.2981 65.4535L14.238 63.0938L16.6771 63.4164L18.8835 62.2827Z" fill="#2C71F0"/>
<path d="M99.072 33.0269L98.7789 35.5248L99.796 37.8014L97.4517 37.4973L95.3228 38.5849L95.6159 36.0778L94.5989 33.8011L96.9432 34.1145L99.072 33.0269Z" fill="#15357A"/>
<path d="M81.0762 22.0122V72.1638C81.0762 72.7921 80.8428 73.3946 80.4274 73.8388C80.012 74.2831 79.4486 74.5327 78.8612 74.5327H44.8173C44.2298 74.5327 43.6664 74.2831 43.2511 73.8388C42.8357 73.3946 42.6023 72.7921 42.6023 72.1638V22.0122H81.0762Z" fill="white" stroke="#15357A" stroke-width="1.5" stroke-linecap="round" stroke-linejoin="round"/>
<path opacity="0.1" d="M67.5965 27.5149H47.6183C47.1518 27.5149 46.7737 27.9193 46.7737 28.4182V30.953C46.7737 31.4518 47.1518 31.8563 47.6183 31.8563H67.5965C68.0629 31.8563 68.4411 31.4518 68.4411 30.953V28.4182C68.4411 27.9193 68.0629 27.5149 67.5965 27.5149Z" fill="#15357A"/>
<path opacity="0.1" d="M67.5965 34.8245H47.6183C47.1518 34.8245 46.7737 35.2289 46.7737 35.7278V38.2625C46.7737 38.7614 47.1518 39.1658 47.6183 39.1658H67.5965C68.0629 39.1658 68.4411 38.7614 68.4411 38.2625V35.7278C68.4411 35.2289 68.0629 34.8245 67.5965 34.8245Z" fill="#15357A"/>
<path opacity="0.1" d="M76.0342 42.7788H47.6183C47.1518 42.7788 46.7737 43.1832 46.7737 43.6821V46.2169C46.7737 46.7158 47.1518 47.1202 47.6183 47.1202H76.0342C76.5006 47.1202 76.8788 46.7158 76.8788 46.2169V43.6821C76.8788 43.1832 76.5006 42.7788 76.0342 42.7788Z" fill="#15357A"/>
<path opacity="0.1" d="M76.0342 50.8625H47.6183C47.1518 50.8625 46.7737 51.267 46.7737 51.7658V54.3006C46.7737 54.7995 47.1518 55.2039 47.6183 55.2039H76.0342C76.5006 55.2039 76.8788 54.7995 76.8788 54.3006V51.7658C76.8788 51.267 76.5006 50.8625 76.0342 50.8625Z" fill="#15357A"/>
<path opacity="0.1" d="M76.0342 58.937H47.6183C47.1518 58.937 46.7737 59.3414 46.7737 59.8403V62.3751C46.7737 62.874 47.1518 63.2784 47.6183 63.2784H76.0342C76.5006 63.2784 76.8788 62.874 76.8788 62.3751V59.8403C76.8788 59.3414 76.5006 58.937 76.0342 58.937Z" fill="#15357A"/>
<path opacity="0.1" d="M84.1788 76.1181V86.6166H38.4221V33.3772H42.5936V28.7686H48.8938C51.6464 28.7665 54.3011 29.8607 56.3404 31.8379C57.2244 32.6863 57.97 33.6863 58.5468 34.7967C59.2479 36.11 59.7045 37.5561 59.8913 39.0551V39.1381L60.3309 42.7789L60.8738 47.1111L61.3392 50.798L61.8736 55.1394L61.9943 56.0611C62.287 58.3403 63.3393 60.4298 64.9576 61.9454C66.5759 63.4611 68.6515 64.301 70.8026 64.3106H81.0761V70.0807C82.03 70.7225 82.8155 71.6135 83.3583 72.6698C83.9011 73.7261 84.1835 74.9128 84.1788 76.1181Z" fill="#15357A"/>
<path d="M84.1788 76.1181V91.1977H34.9402V33.3772H45.386C47.2461 33.3717 49.0776 33.8662 50.7124 34.8152C52.4505 35.8332 53.9003 37.3328 54.9097 39.1565C55.5354 40.2734 55.9811 41.4948 56.2284 42.7697C56.2973 43.0729 56.3463 43.3809 56.3749 43.6915L56.8058 47.148L57.2885 50.8349L57.8228 55.1763L58.2882 58.9093L58.5209 60.7528C58.6283 61.6181 58.8428 62.4643 59.1587 63.2691C59.8438 64.9734 60.9815 66.4251 62.4309 67.4442C63.8802 68.4634 65.5774 69.0051 67.312 69.0023H77.5683C78.8096 68.9981 80.0264 69.3721 81.0761 70.0807C82.0301 70.7225 82.8155 71.6135 83.3583 72.6698C83.9012 73.7261 84.1835 74.9128 84.1788 76.1181Z" fill="#D5E3FC" stroke="#15357A" stroke-width="1.5" stroke-linecap="round" stroke-linejoin="round"/>
<path d="M79.878 31.8563C83.9145 31.8563 87.1867 28.3568 87.1867 24.0399C87.1867 19.7231 83.9145 16.2236 79.878 16.2236C75.8415 16.2236 72.5693 19.7231 72.5693 24.0399C72.5693 28.3568 75.8415 31.8563 79.878 31.8563Z" fill="#EAF1FE" stroke="#2C71F0" stroke-width="1.5" stroke-linecap="round" stroke-linejoin="round"/>
<path d="M77.1201 24.0401L79.3782 26.1232L82.4637 21.616" fill="#EAF1FE"/>
<path d="M77.1201 24.0401L79.3782 26.1232L82.4637 21.616" stroke="#2C71F0" stroke-width="1.5" stroke-linecap="round" stroke-linejoin="round"/>
<path d="M53.5739 81.6577H39.5513V86.1466H53.5739V81.6577Z" fill="white" stroke="#15357A" stroke-width="1.5" stroke-linecap="round" stroke-linejoin="round"/>
<path opacity="0.1" d="M59.5637 96.4331C76.5425 96.4331 90.3066 95.0052 90.3066 93.2439C90.3066 91.4825 76.5425 90.0547 59.5637 90.0547C42.5849 90.0547 28.8208 91.4825 28.8208 93.2439C28.8208 95.0052 42.5849 96.4331 59.5637 96.4331Z" fill="#15357A"/>
</g>
<defs>
<clipPath id="clip0">
<rect width="112" height="112" fill="white" transform="translate(0 0.950684)"/>
</clipPath>
</defs>
</svg>
