<svg fill="none" height="112" viewBox="0 0 112 112" width="112" xmlns="http://www.w3.org/2000/svg"><g stroke="#000" stroke-width=".6"><path d="m61.496 16.9265h-10.662v7.0225h10.662z" fill="#f45183"/><path d="m63.1362 18.7488h-13.9493c-1.5857 0-2.8744-1.2887-2.8744-2.8744s1.2887-2.8744 2.8744-2.8744h13.9493c1.5857 0 2.8744 1.2887 2.8744 2.8744s-1.2887 2.8744-2.8744 2.8744z" fill="#ff928e"/><path d="m30.311 27.5799-6.0122 6.0121 4.2395 4.2395 6.0121-6.0121z" fill="#f45183"/><path d="m32.2022 27.3318-8.3967 8.3968c-.8457.8457-2.22.8457-3.0657 0-.8458-.8457-.8458-2.22 0-3.0657l8.3967-8.3968c.8457-.8457 2.22-.8457 3.0657 0s.8457 2.22 0 3.0657z" fill="#ff928e"/><path d="m56.0385 93.0002c19.9036 0 36.0386-16.135 36.0386-36.0386 0-19.9035-16.135-36.0385-36.0386-36.0385-19.9035 0-36.0385 16.135-36.0385 36.0385 0 19.9036 16.135 36.0386 36.0385 36.0386z" fill="#008d98"/><path d="m56.0384 91.0615c18.8332 0 34.1005-15.2673 34.1005-34.1005 0-18.8331-15.2673-34.1004-34.1005-34.1004-18.8331 0-34.1004 15.2673-34.1004 34.1004 0 18.8332 15.2673 34.1005 34.1004 34.1005z" fill="#97dde5"/><path d="m56.0385 87.2107c16.7063 0 30.2494-13.5431 30.2494-30.2494s-13.5431-30.2494-30.2494-30.2494-30.2494 13.5431-30.2494 30.2494 13.5431 30.2494 30.2494 30.2494z" fill="#f6f6f6"/><g fill="#f8bc20"><path d="m56.1893 33.5273c-.4178 0-.7601-.3423-.7601-.7601v-1.7871c0-.4228.3423-.7601.7601-.7601.4179 0 .7602.3423.7602.7601v1.7871c0 .4178-.3423.7601-.7602.7601z"/><path d="m56.1893 84.0691c-.4178 0-.7601-.3423-.7601-.7602v-1.787c0-.4229.3423-.7602.7601-.7602.4179 0 .7602.3423.7602.7602v1.787c0 .4229-.3423.7602-.7602.7602z"/><path d="m38.9473 40.6664c-.1963 0-.3876-.0755-.5386-.2215l-1.2636-1.2635c-.297-.297-.297-.7803 0-1.0773s.7803-.297 1.0773 0l1.2635 1.2635c.297.297.297.7803 0 1.0773-.151.151-.3423.2215-.5386.2215z"/><path d="m74.689 76.4025c-.1963 0-.3876-.0755-.5386-.2215l-1.2636-1.2635c-.297-.297-.297-.7803 0-1.0773s.7803-.297 1.0773 0l1.2635 1.2635c.297.297.297.7803 0 1.0773-.151.151-.3423.2215-.5386.2215z"/><path d="m37.6882 76.4025c-.1964 0-.3877-.0755-.5387-.2215-.297-.297-.297-.7803 0-1.0773l1.2636-1.2635c.297-.297.7802-.297 1.0772 0s.297.7803 0 1.0773l-1.2635 1.2635c-.151.151-.3423.2215-.5386.2215z"/><path d="m73.425 40.6667c-.1964 0-.3876-.0756-.5387-.2215-.297-.297-.297-.7803 0-1.0773l1.2636-1.2636c.297-.297.7802-.297 1.0772 0 .2971.2971.2971.7803 0 1.0773l-1.2635 1.2636c-.151.151-.3423.2215-.5386.2215z"/><path d="m31.8084 57.9026h-1.787c-.4179 0-.7602-.3423-.7602-.7601 0-.4179.3423-.7602.7602-.7602h1.787c.4179 0 .7602.3423.7602.7602 0 .4178-.3423.7601-.7602.7601z"/><path d="m82.3499 57.9028h-1.787c-.4179 0-.7602-.3423-.7602-.7601s.3423-.7601.7602-.7601h1.787c.4179 0 .7602.3423.7602.7601s-.3423.7601-.7602.7601z"/><path d="m58.0057 56.8549h-3.6346v-15.7615c0-1.0018.8155-1.8173 1.8173-1.8173 1.0017 0 1.8173.8155 1.8173 1.8173z"/></g><path d="m56.1892 61.0238c2.302 0 4.1681-1.8661 4.1681-4.1681s-1.8661-4.1682-4.1681-4.1682c-2.3021 0-4.1682 1.8662-4.1682 4.1682s1.8661 4.1681 4.1682 4.1681z" fill="#f45183"/></g></svg>