<svg xmlns="http://www.w3.org/2000/svg" xmlns:xlink="http://www.w3.org/1999/xlink" width="411" zoomAndPan="magnify" viewBox="0 0 308.25 262.500001" height="350" preserveAspectRatio="xMidYMid meet" version="1.0"><defs><clipPath id="id1"><path d="M 0 0.0703125 L 307.5 0.0703125 L 307.5 261.933594 L 0 261.933594 Z M 0 0.0703125 " clip-rule="nonzero"/></clipPath><clipPath id="id2"><path d="M 97 174 L 164 174 L 164 261.03125 L 97 261.03125 Z M 97 174 " clip-rule="nonzero"/></clipPath><clipPath id="id3"><path d="M 162 137 L 210.8125 137 L 210.8125 224 L 162 224 Z M 162 137 " clip-rule="nonzero"/></clipPath><clipPath id="id4"><path d="M 96.355469 1.484375 L 160 1.484375 L 160 73 L 96.355469 73 Z M 96.355469 1.484375 " clip-rule="nonzero"/></clipPath></defs><g clip-path="url(#id1)"><path fill="rgb(100%, 100%, 100%)" d="M 0 0.0703125 L 308.25 0.0703125 L 308.25 5393.695312 L 0 5393.695312 Z M 0 0.0703125 " fill-opacity="1" fill-rule="nonzero"/><path fill="rgb(100%, 100%, 100%)" d="M 0 0.0703125 L 307.5 0.0703125 L 307.5 261.933594 L 0 261.933594 Z M 0 0.0703125 " fill-opacity="1" fill-rule="nonzero"/><path fill="rgb(100%, 100%, 100%)" d="M 0 0.0703125 L 307.5 0.0703125 L 307.5 261.933594 L 0 261.933594 Z M 0 0.0703125 " fill-opacity="1" fill-rule="nonzero"/><path fill="rgb(100%, 100%, 100%)" d="M 0 0.0703125 L 307.5 0.0703125 L 307.5 261.933594 L 0 261.933594 Z M 0 0.0703125 " fill-opacity="1" fill-rule="nonzero"/></g><path stroke-linecap="round" transform="matrix(1.79466, 0, 0, 1.793581, 95.458473, 0.0691852)" fill-opacity="1" fill="rgb(17.248535%, 44.309998%, 94.119263%)" fill-rule="nonzero" stroke-linejoin="round" d="M 45.328998 70.817402 C 46.732903 72.339758 51.125275 82.133799 46.412943 79.468043 C 45.942798 79.274209 44.730434 80.249911 44.327764 80.435033 C 40.742909 80.737761 42.778027 83.497168 40.581841 84.481581 C 43.341765 90.464287 46.641486 92.078115 37.689144 93.426239 C 37.319123 94.393229 35.416777 94.611019 34.550492 94.317002 C 34.171764 93.147467 33.179236 93.896666 32.060465 93.12351 C 33.002931 92.086827 31.033111 92.1979 30.504198 91.692626 C 28.408136 88.275492 29.156885 90.420729 27.298072 88.856993 C 27.574499 87.343349 27.448257 85.642404 25.706979 87.21703 C 23.73063 86.609394 19.555917 88.04899 19.616862 84.766886 C 19.455794 83.758516 20.844463 80.282579 19.135834 80.761718 C 17.858172 79.618318 16.334554 81.073159 15.148309 79.400527 C 14.214549 77.076702 16.108188 79.239362 15.964533 77.564553 C 15.796935 75.983394 17.70581 76.471245 17.673161 75.057784 C 18.7484 74.857417 20.113126 75.286464 21.114361 74.737632 C 20.659452 72.139391 26.355605 72.947394 27.591912 69.345138 C 27.996759 68.87471 28.375487 68.15818 29.021936 68.757104 C 29.905634 69.042409 30.2343 67.587568 31.16806 67.796647 C 31.605556 66.189353 33.388189 65.501135 34.861745 65.239786 C 35.845567 63.480039 37.351771 62.733017 39.345534 63.085838 C 39.876624 63.068414 40.026809 62.151516 40.540486 62.286546 C 40.675435 62.65679 40.877858 62.404153 41.078105 62.277835 C 42.029278 62.362773 41.946567 62.621944 43.039218 62.269123 C 43.282997 65.019818 44.689079 67.966524 45.328998 70.817402 Z M 45.328998 70.817402 " stroke="rgb(100%, 100%, 100%)" stroke-width="0.252" stroke-opacity="1" stroke-miterlimit="4"/><path fill="rgb(17.248535%, 44.309998%, 94.119263%)" d="M 163.007812 246.664062 C 161.148438 246.121094 161.285156 247.691406 162.039062 248.746094 C 162.039062 249.320312 161.207031 250.226562 161.617188 250.722656 C 164.320312 254.40625 162.339844 254.332031 159.730469 256.777344 L 159.53125 258.617188 L 158.960938 258.269531 C 156.242188 256.957031 157.539062 260.835938 155.515625 260.789062 C 152.117188 259.023438 147.4375 254.285156 143.390625 256.125 C 143.195312 257.4375 142.589844 255.945312 142.53125 255.386719 C 142.273438 253.773438 144.917969 251.328125 142.667969 250.980469 C 141.972656 251.253906 144.597656 245.019531 144.507812 244.308594 C 144.902344 240.808594 143.679688 241.382812 141.109375 240.460938 C 141.066406 239.300781 140.144531 238.832031 139.132812 238.484375 C 135.902344 238.742188 138.527344 236.085938 139.78125 235.269531 C 136.65625 233.371094 136.597656 225.128906 132.140625 225.929688 C 128.425781 225.113281 132.804688 225.582031 129.167969 223.636719 C 128.789062 225.597656 127.777344 223.425781 126.8125 221.71875 C 118.613281 216.890625 107.242188 212.816406 102.484375 203.339844 C 102.457031 199.945312 99.691406 196.804688 97.59375 194.585938 C 104.402344 188.113281 104.117188 206.75 108.996094 201.289062 C 113.238281 190.796875 105.792969 191.539062 103.859375 184.128906 C 104.539062 186.046875 105.71875 185.714844 106.925781 187.3125 C 109.222656 185.984375 108.554688 181.277344 105.761719 180.703125 C 102.757812 180.703125 104.644531 185.488281 103.40625 182.183594 C 101.203125 178.214844 94.242188 172.238281 104.496094 175.136719 C 105.855469 176.886719 108.222656 173.808594 108.148438 175.542969 C 108.585938 176.945312 109.929688 176.175781 109.945312 178.230469 C 110.867188 178.574219 113.75 179.042969 113.613281 180.433594 C 113.855469 182.046875 115.773438 179.917969 115.878906 181.761719 C 116.03125 183.359375 118.523438 183.117188 119.789062 183.222656 C 120.546875 183.78125 121.859375 184.914062 122.824219 184.761719 C 128.082031 186.496094 123.730469 188.382812 126.402344 188.640625 C 127.734375 189.910156 125.363281 193.621094 127.628906 194.269531 C 131.160156 193.953125 130.84375 199.039062 128.425781 200.546875 C 127.21875 201.179688 131.523438 205.617188 132.640625 205.921875 C 130.8125 207.519531 134.496094 209.542969 132.746094 211.351562 C 136.171875 214.566406 137.773438 220.152344 139.691406 224.691406 C 140.914062 226.910156 142.683594 224.226562 145.144531 225.644531 C 148.375 227.636719 153.703125 232.871094 156.890625 235.390625 C 156.964844 237.113281 158.234375 238.574219 159.035156 239.964844 C 158.824219 242 159.910156 241.308594 161.316406 241.683594 C 163.445312 243.074219 161.269531 244.433594 163.007812 246.664062 Z M 163.007812 246.664062 " fill-opacity="1" fill-rule="nonzero"/><g clip-path="url(#id2)"><path stroke-linecap="round" transform="matrix(1.79466, 0, 0, 1.793581, 95.458473, 0.0691852)" fill="none" stroke-linejoin="round" d="M 37.639082 137.487444 C 36.603022 137.184715 36.679203 138.060233 37.099286 138.648267 C 37.099286 138.968419 36.635671 139.473693 36.864214 139.750287 C 38.370419 141.804052 37.266884 141.762672 35.812918 143.126041 L 35.701911 144.151834 L 35.384128 143.958001 C 33.869217 143.226225 34.591847 145.388885 33.46437 145.36275 C 31.570731 144.378337 28.963168 141.736537 26.708214 142.762331 C 26.599384 143.494107 26.262012 142.662147 26.229363 142.350707 C 26.085707 141.451232 27.559263 140.087863 26.305544 139.894029 C 25.918109 140.046483 27.380782 136.570545 27.330721 136.174167 C 27.550557 134.222763 26.869282 134.542916 25.437082 134.02893 C 25.413139 133.382092 24.899462 133.120743 24.335724 132.92691 C 22.535678 133.070651 23.998351 131.589676 24.697039 131.134493 C 22.955761 130.076031 22.923112 125.480651 20.439616 125.927122 C 18.369672 125.471939 20.809637 125.733288 18.783226 124.648691 C 18.572096 125.742 18.008357 124.531084 17.470738 123.579339 C 12.902062 120.887448 6.565989 118.615893 3.914894 113.332294 C 3.899658 111.439695 2.358627 109.688659 1.189795 108.451608 C 4.983603 104.842819 4.824711 115.233606 7.543281 112.188894 C 9.907065 106.33904 5.758471 106.752842 4.681056 102.621355 C 5.059784 103.690707 5.717116 103.505585 6.389684 104.396348 C 7.669523 103.65586 7.297325 101.031484 5.741059 100.711332 C 4.067256 100.711332 5.118552 103.379266 4.428571 101.536758 C 3.20097 99.324006 -0.677725 95.991811 5.035841 97.607817 C 5.793297 98.583519 7.112314 96.867329 7.070959 97.834319 C 7.314738 98.616187 8.063487 98.18714 8.072194 99.332718 C 8.58587 99.524374 10.192199 99.785722 10.116018 100.561057 C 10.250967 101.460532 11.319676 100.273573 11.378444 101.301545 C 11.463331 102.192308 12.852 102.057278 13.557217 102.116081 C 13.979477 102.427522 14.710813 103.059114 15.248433 102.974176 C 18.178132 103.941166 15.753403 104.993094 17.242195 105.136836 C 17.984415 105.844655 16.66322 107.913666 17.925647 108.275198 C 19.89329 108.098788 19.716986 110.93442 18.369672 111.775092 C 17.697104 112.127913 20.095713 114.602013 20.71822 114.77189 C 19.699573 115.662653 21.752103 116.790808 20.776988 117.799178 C 22.685863 119.591595 23.578268 122.705999 24.646977 125.236726 C 25.328252 126.473776 26.31425 124.977555 27.685506 125.768134 C 29.485551 126.878866 32.454429 129.79726 34.230532 131.202009 C 34.271887 132.162465 34.979281 132.977001 35.425483 133.752336 C 35.307947 134.887025 35.913041 134.501535 36.696616 134.710614 C 37.882861 135.485949 36.670497 136.24386 37.639082 137.487444 Z M 37.639082 137.487444 " stroke="rgb(100%, 100%, 100%)" stroke-width="0.252" stroke-opacity="1" stroke-miterlimit="4"/></g><path stroke-linecap="round" transform="matrix(1.79466, 0, 0, 1.793581, 95.458473, 0.0691852)" fill-opacity="1" fill="rgb(17.248535%, 44.309998%, 94.119263%)" fill-rule="nonzero" stroke-linejoin="round" d="M 1.744827 97.43794 C 3.477398 95.301415 4.302328 94.149303 3.941013 91.093702 C 3.849596 88.9746 6.204674 90.235607 5.06849 88.578221 C 4.757237 88.09037 5.371037 87.484912 5.699703 87.140803 C 5.412392 86.273997 3.662409 85.09575 5.362331 84.78431 C 6.868536 82.959225 5.952188 83.294622 6.457159 85.010812 C 6.339623 85.407191 5.775884 87.031908 6.43104 86.970927 C 6.498514 86.097587 11.058484 85.88633 9.317207 82.545423 C 8.122255 79.104332 8.80353 83.20315 7.121021 84.499004 C 6.785825 83.479744 8.729526 82.125087 7.702172 80.829233 C 6.339623 80.561351 7.25597 79.491999 7.811002 79.021572 C 7.845828 78.895253 7.482336 78.575101 7.734821 78.601236 C 8.468334 78.357311 8.468334 80.029942 9.167022 78.642616 C 9.299794 78.525009 9.510924 78.440071 9.669816 78.56639 C 10.890886 79.197982 11.622223 77.211732 12.673519 77.699583 C 14.112249 78.263661 13.777053 77.825902 14.972005 77.523173 C 14.197137 80.922883 18.110657 79.971139 20.036945 80.888037 C 19.993413 81.865916 19.555917 82.915667 19.767047 83.908792 C 18.522034 87.670034 25.471907 87.526293 20.565858 88.075125 C 20.145775 87.064577 18.674396 87.922671 18.421911 88.713251 C 18.34573 89.042115 18.522034 90.000393 17.990944 89.823983 C 17.5208 89.858829 17.024536 89.638861 17.100716 90.329257 C 19.27949 94.190683 16.613159 93.879243 19.262077 95.116293 C 19.540681 96.656072 22.048121 97.875699 19.884584 98.918916 C 20.113126 98.995143 20.365611 99.162841 20.448322 99.42419 C 21.173129 102.706294 23.123359 101.325502 23.393257 103.370555 C 21.601918 104.296165 20.365611 106.180053 19.473207 108.107499 C 19.312139 108.645442 18.656983 108.242529 18.278255 108.198971 C 16.225725 108.486455 18.548153 105.136836 16.637101 104.875487 C 17.385851 103.65586 15.753403 103.050403 14.819643 102.950219 C 13.994713 102.301203 12.843293 101.922248 11.798527 101.898291 C 10.832118 101.284121 11.983538 100.702621 10.227024 100.846362 C 10.168256 99.768299 8.914536 99.567932 8.072194 99.315295 C 8.046074 98.339593 7.602049 98.583519 7.088372 97.951926 C 7.282089 97.058985 6.296091 97.799473 5.960895 97.893123 C 4.604875 97.522879 3.268445 96.899998 1.744827 97.43794 Z M 1.744827 97.43794 " stroke="rgb(100%, 100%, 100%)" stroke-width="0.252" stroke-opacity="1" stroke-miterlimit="4"/><path stroke-linecap="round" transform="matrix(1.79466, 0, 0, 1.793581, 95.458473, 0.0691852)" fill-opacity="1" fill="rgb(17.248535%, 44.309998%, 94.119263%)" fill-rule="nonzero" stroke-linejoin="round" d="M 9.367269 68.404283 C 9.023366 64.322888 5.884714 67.402446 5.699703 64.50801 C 5.969601 63.279671 5.421099 62.001241 4.942248 61.040785 C 5.858595 62.621944 7.238557 60.940601 6.666112 59.729685 C 8.181023 59.2157 10.723288 56.103473 8.668581 55.016698 C 7.676053 54.722681 7.290795 53.468207 6.666112 52.771278 C 8.265911 53.335355 10.823412 52.568732 12.077131 53.594526 C 12.288261 52.99778 13.439681 52.971645 13.962064 52.795234 C 17.30314 56.051203 17.781991 52.424991 19.044417 52.686339 C 19.960764 53.949524 21.314607 53.485631 22.198306 55.286758 C 24.435847 56.103473 23.384551 59.139473 21.458263 59.450914 C 21.299371 59.374687 20.970705 58.886836 20.870582 59.224411 C 20.961999 59.838581 19.429675 60.099929 19.085773 60.326432 C 17.697104 61.55477 16.613159 61.772561 15.914471 59.838581 C 15.568392 57.802239 15.670692 58.930394 14.869705 59.468337 C 10.142137 58.634199 16.460797 66.324383 12.649576 67.872874 C 11.909533 70.279459 11.049778 67.831494 9.367269 68.404283 Z M 9.367269 68.404283 " stroke="rgb(100%, 100%, 100%)" stroke-width="0.252" stroke-opacity="1" stroke-miterlimit="4"/><path stroke-linecap="round" transform="matrix(1.79466, 0, 0, 1.793581, 95.458473, 0.0691852)" fill-opacity="1" fill="rgb(17.248535%, 44.309998%, 94.119263%)" fill-rule="nonzero" stroke-linejoin="round" d="M 22.039414 87.16476 C 22.544385 86.652953 25.101886 87.199607 25.715686 87.223564 C 26.120533 86.85332 27.709448 85.97998 27.306778 87.240987 C 27.239304 91.019653 28.323249 87.661323 30.510728 91.701337 C 34.356775 92.962345 29.990522 92.89483 34.330655 93.837863 C 34.389423 94.654577 35.475545 94.410652 36.006635 94.417186 C 39.471777 92.685751 38.370419 99.903329 41.162992 100.155966 C 41.533014 100.417315 42.408005 100.282285 42.340531 100.940012 C 42.645254 101.687034 41.474246 102.420988 41.929154 103.202856 C 43.156755 104.22865 41.744143 106.373886 42.804146 107.552133 C 38.23547 107.502041 42.207759 109.470868 38.076578 110.396478 C 37.319123 111.187057 38.12664 111.877453 36.561667 111.330799 C 35.072875 110.337674 33.388189 107.266828 32.195414 105.994931 C 30.798039 105.909993 30.974343 105.759717 30.15812 104.775304 C 28.9044 104.22865 29.779392 104.951714 29.165592 105.230486 C 27.744274 104.801439 26.129239 104.36368 24.570796 104.135 C 22.746808 103.285617 23.798104 102.915373 22.753338 102.224977 C 20.750869 101.687034 21.079535 100.197347 20.10442 99.027811 C 19.734398 99.003854 20.028239 98.844867 20.204543 98.768641 C 21.945821 97.716712 19.305609 96.682207 19.447088 95.310127 C 18.125893 94.713381 17.664455 94.005561 18.202074 92.568144 C 17.614393 91.566307 16.014595 89.512542 18.337023 89.832695 C 18.304374 88.898373 18.55686 87.890003 19.666924 87.746261 C 20.330786 87.173472 20.306843 88.327762 20.944586 88.00761 C 21.575799 88.066413 22.864344 88.125217 22.039414 87.16476 Z M 22.039414 87.16476 " stroke="rgb(100%, 100%, 100%)" stroke-width="0.252" stroke-opacity="1" stroke-miterlimit="4"/><g clip-path="url(#id3)"><path stroke-linecap="round" transform="matrix(1.79466, 0, 0, 1.793581, 95.458473, 0.0691852)" fill-opacity="1" fill="rgb(17.248535%, 44.309998%, 94.119263%)" fill-rule="nonzero" stroke-linejoin="round" d="M 48.382763 76.750017 C 52.840433 76.732593 50.359113 83.834743 53.556533 85.7513 C 55.902905 86.374181 56.804016 82.588981 61.340043 85.903753 C 61.836307 87.434821 61.810188 89.756468 61.490228 91.337627 C 60.406283 92.398267 61.355279 91.96922 61.422754 93.114798 C 64.678942 95.721751 65.066376 100.61986 62.230271 103.588345 C 60.354045 104.119754 61.851543 105.759717 59.722832 106.6091 C 58.075148 105.927416 56.55153 105.583307 56.022617 107.695875 C 53.286635 108.368848 55.441466 109.747462 54.464174 111.58997 C 53.909142 113.896372 51.419116 114.686952 51.965441 117.202432 C 52.032916 120.745884 50.191515 118.506998 50.772666 120.931006 C 51.142688 122.192014 50.459236 124.252312 49.020506 124.472281 C 47.102924 122.65373 45.437828 120.290702 44.730434 117.681572 C 44.075278 116.015474 46.774258 115.906579 44.310351 115.553758 C 42.754084 111.801227 44.630311 111.960214 42.760614 108.736914 C 43.755319 107.375723 42.466774 107.761212 42.331825 106.25628 C 42.669197 101.856911 41.271822 104.161134 42.349237 100.778847 C 39.186642 99.996979 39.177936 96.362055 37.41054 93.938046 C 37.889391 92.709708 40.760322 92.979768 41.835561 92.685751 C 45.429122 91.246155 42.357944 87.746261 41.004101 85.7513 C 39.976747 82.983182 41.617901 85.827526 41.879092 82.066284 C 42.222995 80.400186 44.713021 80.644111 45.78173 79.542091 C 47.675369 79.021572 48.920383 82.183891 48.382763 76.750017 Z M 48.382763 76.750017 " stroke="rgb(100%, 100%, 100%)" stroke-width="0.252" stroke-opacity="1" stroke-miterlimit="4"/></g><path stroke-linecap="round" transform="matrix(1.79466, 0, 0, 1.793581, 95.458473, 0.0691852)" fill-opacity="1" fill="rgb(17.248535%, 44.309998%, 94.119263%)" fill-rule="nonzero" stroke-linejoin="round" d="M 49.029212 124.504949 C 46.042922 126.340924 41.567839 123.394218 40.566605 127.76963 C 40.725496 129.385635 38.479249 128.451314 37.578138 128.939165 C 37.789267 129.124287 38.226763 131.86627 38.302944 132.162465 C 39.506602 133.416938 43.106693 138.001429 39.624138 138.39563 C 38.23547 137.537535 36.805446 137.639897 37.284297 135.518617 C 37.166761 134.560339 36.198175 134.669234 35.484252 134.542916 C 35.01193 132.547954 33.851804 130.008516 31.764448 129.268029 C 26.364312 122.738668 25.260777 128.240057 23.889521 123.252654 C 22.955761 121.407968 22.36808 119.188682 20.776988 117.80789 C 21.878346 116.671023 19.4645 115.579893 20.750869 114.89603 C 20.683394 114.645571 20.119656 114.704375 19.986884 114.384223 C 19.869347 113.75263 17.512093 112.103956 18.378379 111.783804 C 21.114361 109.142004 17.673161 108.492988 19.355671 108.334001 C 19.919409 106.582965 21.567093 105.204351 22.544385 103.790891 C 22.577034 102.882704 26.936757 104.7165 27.565793 105.003984 C 28.651915 104.683832 28.458198 105.003984 29.291834 105.204351 C 29.5182 104.455152 29.324483 104.472575 30.149413 104.766592 C 30.974343 105.768429 30.798039 105.903459 32.186708 105.986219 C 33.725561 107.443238 35.172998 111.354756 37.578138 111.54859 C 37.70438 109.344549 40.061634 110.62298 40.305413 108.991729 C 40.346768 108.562681 39.968041 107.820016 40.590547 107.71112 C 43.51154 107.880997 43.132812 106.535051 42.871621 109.497003 C 44.66296 111.034604 42.954331 113.526128 44.225464 115.444863 C 44.369119 115.671365 44.898032 115.671365 45.141811 115.704033 C 45.975447 115.806395 44.275525 116.562128 44.671666 117.396266 C 45.27676 120.164384 47.061569 122.586215 49.029212 124.504949 Z M 49.029212 124.504949 " stroke="rgb(100%, 100%, 100%)" stroke-width="0.252" stroke-opacity="1" stroke-miterlimit="4"/><g clip-path="url(#id4)"><path stroke-linecap="round" transform="matrix(1.79466, 0, 0, 1.793581, 95.458473, 0.0691852)" fill-opacity="1" fill="rgb(17.248535%, 44.309998%, 94.119263%)" fill-rule="nonzero" stroke-linejoin="round" d="M 17.697104 3.988373 C 16.66322 6.083518 17.174721 8.986666 19.666924 9.903565 C 20.313373 10.23025 21.079535 9.313352 20.339492 10.526446 C 19.799696 11.434632 18.680926 12.427757 19.799696 13.259717 C 20.10442 15.195875 20.028239 17.365069 20.726926 19.26638 C 19.867171 22.833789 22.130831 22.110725 24.100651 20.470762 C 24.723158 20.494719 26.549322 20.806159 26.851869 19.965488 C 28.440785 19.821746 31.562024 22.522349 33.126997 22.17824 C 39.051693 24.887554 31.790567 25.275221 32.513197 29.389285 C 32.228063 29.877135 31.453195 30.515262 32.665559 30.079681 C 36.376656 30.911641 32.724327 33.083012 30.747977 33.873592 C 29.72933 34.276504 29.938283 35.724812 29.039349 36.262754 C 28.011995 36.68309 27.448257 37.902717 26.817044 38.686763 C 26.194537 38.769523 24.799339 38.945934 24.488085 38.205446 C 24.294368 37.717595 25.160654 37.499805 24.790632 36.99453 C 23.099417 34.638037 23.460732 32.989362 21.112184 35.75748 C 20.533209 36.036252 19.943352 35.557113 19.455794 35.304476 C 18.892055 35.463463 18.084538 35.824995 17.427206 35.724812 C 17.858172 36.565483 18.169425 37.062046 17.159485 37.65008 C 16.536978 38.046459 15.94712 37.112137 15.424737 36.885635 C 14.80223 36.785452 12.479802 37.576031 13.163253 36.186528 C 13.768347 35.707388 11.378444 35.245672 10.967067 35.67472 C 12.799761 41.117305 7.458393 34.781779 7.440981 37.811245 C 10.074662 41.025833 11.310969 41.319851 6.380978 39.072252 C 4.681056 39.324889 3.570992 41.00841 3.9236 38.087839 C 3.529636 37.314683 2.854891 37.029377 3.403394 36.036252 C 3.621053 35.260918 2.854891 34.420246 3.958426 34.176321 C 4.463396 32.410039 2.191029 32.113844 4.284915 28.110854 C 3.823477 25.787029 -1.687666 24.972492 1.744827 22.245755 C 3.007253 20.747356 5.438512 16.23038 5.808533 14.488056 C 7.3648 12.360242 9.939713 10.541691 10.570927 7.917315 C 12.455859 6.797871 12.042306 6.024715 12.582102 4.182207 C 14.314673 1.194121 17.183427 -1.271268 17.697104 3.988373 Z M 17.697104 3.988373 " stroke="rgb(100%, 100%, 100%)" stroke-width="0.252" stroke-opacity="1" stroke-miterlimit="4"/></g><path stroke-linecap="round" transform="matrix(1.79466, 0, 0, 1.793581, 95.458473, 0.0691852)" fill-opacity="1" fill="rgb(17.248535%, 44.309998%, 94.119263%)" fill-rule="nonzero" stroke-linejoin="round" d="M 46.280171 61.563482 C 46.480418 64.902211 44.025217 64.028871 44.066572 65.457577 C 43.376591 64.599482 42.68661 63.397278 43.039218 62.269123 C 42.636548 62.319215 42.140284 62.589275 41.735437 62.395442 C 40.962745 61.933726 40.851739 62.833201 40.540486 62.277835 C 40.020279 62.151516 39.867917 63.059703 39.345534 63.077126 C 37.721793 62.774397 36.535548 63.253536 35.340596 64.37298 C 30.789333 63.303628 31.858042 61.319556 29.72933 61.55477 C 29.333189 62.2517 28.710683 62.554429 28.366781 61.613574 C 26.329486 60.526799 26.21195 57.937269 24.34443 56.606569 C 23.031942 56.312552 21.693335 54.746638 20.920644 53.670752 C 21.020767 52.07217 19.440558 51.163983 20.054358 49.759234 C 20.130539 47.873168 19.212015 46.309432 21.719454 47.579151 C 23.360608 47.511636 23.19301 46.409616 23.91564 47.655378 C 26.220656 48.992612 24.109358 46.198359 27.718155 47.217619 C 28.997994 44.726095 33.196649 45.172565 32.733033 42.85963 C 32.833157 42.363067 30.184239 41.099882 31.27689 40.814577 C 32.682972 40.823288 33.634144 39.374981 34.315419 38.290384 C 34.374187 38.122685 34.121702 37.188364 34.567904 37.937564 C 34.702853 41.470126 37.436659 36.64171 38.329063 37.87876 C 38.311651 39.072252 39.968041 40.209119 39.732968 41.402611 C 40.414243 41.302427 42.037984 41.158686 41.424184 40.209119 C 42.492893 39.788783 44.33647 40.729638 45.396473 40.402952 C 46.782965 39.586238 46.497831 41.84037 46.70896 42.7246 C 46.471711 43.312634 45.59672 43.902847 45.278936 44.449501 C 44.369119 46.670964 45.344234 50.194815 46.119103 52.366187 C 46.31282 54.023573 44.007804 54.23483 42.854208 54.502712 C 42.542954 57.532179 44.260289 57.220738 44.469242 59.712262 C 44.780496 60.696675 45.7752 59.720974 46.280171 61.563482 Z M 46.280171 61.563482 " stroke="rgb(100%, 100%, 100%)" stroke-width="0.252" stroke-opacity="1" stroke-miterlimit="4"/><path stroke-linecap="round" transform="matrix(1.79466, 0, 0, 1.793581, 95.458473, 0.0691852)" fill-opacity="1" fill="rgb(17.248535%, 44.309998%, 94.119263%)" fill-rule="nonzero" stroke-linejoin="round" d="M 6.920774 80.435033 C 6.339623 78.978014 7.922008 75.774315 6.674819 74.308585 C 6.777119 73.426533 7.819708 74.267204 7.610755 72.450831 C 7.602049 71.322676 9.552279 69.589063 9.367269 68.410817 C 10.24226 68.116799 11.269614 68.654742 11.942182 69.201396 C 12.93471 67.520053 14.382147 66.367941 13.988183 64.19657 C 12.928181 62.571852 13.060953 61.528635 13.195902 59.492294 C 14.223256 58.98702 15.048186 59.971433 15.374675 58.886836 C 16.090776 58.348893 15.694635 60.376523 16.47821 60.687964 C 16.806876 62.412865 20.298137 59.897384 20.877112 59.233123 C 21.129597 58.828033 21.484382 59.862538 22.063357 59.365975 C 24.276956 57.699878 22.9057 55.328139 24.77322 56.985525 C 30.856807 66.729474 28.308012 58.525304 32.119233 63.044458 C 32.380425 63.758811 36.015341 63.935221 35.122937 64.928346 C 33.699442 66.115304 32.178001 65.146136 31.16806 67.805359 C 30.175532 67.59628 29.770685 69.321181 28.786864 68.64603 C 27.56797 68.310633 26.869282 71.011236 25.791867 71.566602 C 25.378313 72.063164 19.549388 73.653035 21.181835 74.360854 C 21.702042 75.319133 18.210781 74.907509 17.673161 75.066496 C 17.664455 75.377936 17.555625 75.824407 17.250902 76.000817 C 14.937179 76.623698 16.948355 78.760223 14.954592 78.178722 C 15.409501 76.665078 13.777053 78.718843 12.42321 77.590688 C 11.437212 77.767098 10.679756 79.180559 9.528337 78.525009 C 9.023366 78.448783 8.997247 79.509423 8.477041 79.139179 C 8.342092 78.616481 7.3648 78.263661 7.811002 79.045529 C 7.475806 79.306878 7.012191 79.870955 6.920774 80.435033 Z M 6.920774 80.435033 " stroke="rgb(100%, 100%, 100%)" stroke-width="0.252" stroke-opacity="1" stroke-miterlimit="4"/><path stroke-linecap="round" transform="matrix(1.79466, 0, 0, 1.793581, 95.458473, 0.0691852)" fill-opacity="1" fill="rgb(17.248535%, 44.309998%, 94.119263%)" fill-rule="nonzero" stroke-linejoin="round" d="M 10.832118 52.880173 C 11.363208 53.106675 12.018363 49.809326 12.127193 51.651834 C 13.195902 53.156767 12.793232 49.371567 12.103251 50.491011 C 11.378444 49.033992 10.303205 49.715676 11.615693 47.831788 C 11.683167 45.669128 10.688463 44.475636 12.364442 43.430241 C 12.725757 41.269759 11.404563 41.378654 9.857003 40.670835 C 10.065956 40.108935 7.86324 38.702008 7.57593 38.399279 C 7.029604 35.513555 9.267145 37.558608 10.503452 38.046459 C 11.733229 37.928852 11.49598 36.406496 10.967067 35.681253 C 12.305674 35.075796 12.02707 35.807572 13.280789 35.833707 C 13.389619 36.145147 12.690932 36.60033 13.195902 36.876924 C 13.559394 37.255879 14.693401 36.903058 15.130896 36.8595 C 15.964533 36.868212 16.637101 38.390568 17.462031 37.432289 C 18.210781 37.003242 17.681868 36.280177 17.438089 35.733523 C 19.440558 35.639873 18.783226 35.043127 20.844463 35.85113 C 21.75428 35.548401 23.334489 32.728014 23.671862 35.160734 C 23.704511 36.127724 25.589443 37.103426 24.505498 37.819957 C 24.218187 38.954645 26.170595 38.80437 26.81922 38.686763 C 27.474376 37.390909 28.812983 36.54806 29.711917 35.480886 C 29.72933 33.95853 31.975578 33.326938 33.052993 32.72148 C 35.695381 29.036464 37.797974 34.202456 35.458132 36.036252 C 34.887864 36.60033 34.145645 37.406155 34.324126 38.299096 C 33.625438 39.686422 32.404367 40.69697 30.965637 41.017122 C 35.963103 45.131185 29.494258 43.96165 28.425549 46.662253 C 27.735568 48.025622 25.48932 45.980568 25.134535 47.982063 C 24.420611 48.219455 23.780691 47.537771 23.452025 47.015073 C 20.524503 49.033992 19.684337 44.305759 20.063064 49.765768 C 19.616862 51.10518 19.810579 50.676132 20.550622 51.752018 C 21.290665 54.613786 20.406967 53.838451 18.683102 52.560021 C 17.564331 54.561516 15.368145 54.437375 13.97077 52.803946 C 12.599515 52.947688 12.035776 53.973481 10.832118 52.880173 Z M 10.832118 52.880173 " stroke="rgb(100%, 100%, 100%)" stroke-width="0.252" stroke-opacity="1" stroke-miterlimit="4"/><path stroke-linecap="round" transform="matrix(1.79466, 0, 0, 1.793581, 95.458473, 0.0691852)" fill-opacity="1" fill="rgb(17.248535%, 44.309998%, 94.119263%)" fill-rule="nonzero" stroke-linejoin="round" d="M 47.287935 38.863173 C 45.194049 41.243624 44.874089 40.250499 41.820324 40.124181 C 40.877858 40.285346 42.58431 41.158686 39.732968 41.402611 C 40.011573 40.159027 38.100521 38.972069 38.387831 37.726307 C 37.393127 37.414866 36.940395 38.131397 36.400599 38.795658 C 33.449134 40.276634 34.389423 36.127724 36.241707 35.287053 C 36.814152 30.77661 36.132877 33.006786 33.111761 29.894559 C 32.143176 30.229956 31.546788 30.582777 32.506667 29.389285 C 31.781861 26.36853 36.291769 25.392828 35.33189 23.365198 C 33.261946 22.404742 29.896928 21.161158 27.692036 20.083095 C 27.121767 19.889261 26.573265 20.050426 26.229363 20.570945 C 26.10312 20.605792 23.924347 20.385824 23.865579 20.553522 C 22.603153 22.186951 19.616862 22.463545 20.735633 19.695427 C 20.248075 17.626417 20.010826 15.372285 19.801873 13.268428 C 18.404498 11.896348 20.885818 9.659639 22.26578 8.9932 C 23.108123 7.673389 24.95823 8.313694 26.179301 7.823665 C 28.129532 3.920858 29.999228 6.74778 32.345599 8.675226 C 32.463135 8.842925 33.388189 11.399786 33.557964 11.408497 C 33.901866 11.719938 34.339362 12.148985 34.213119 12.662971 C 33.103055 13.832506 34.694147 13.967536 34.82039 15.010753 C 34.145645 18.837333 39.195349 15.195875 44.216757 21.496555 C 47.052863 25.225129 46.782965 30.406366 48.458944 34.631503 C 48.500299 36.447876 46.539186 37.003242 47.287935 38.863173 Z M 47.287935 38.863173 " stroke="rgb(100%, 100%, 100%)" stroke-width="0.252" stroke-opacity="1" stroke-miterlimit="4"/></svg>