<svg xmlns="http://www.w3.org/2000/svg" xmlns:xlink="http://www.w3.org/1999/xlink" width="624" zoomAndPan="magnify" viewBox="0 0 468 308.250004" height="411" preserveAspectRatio="xMidYMid meet" version="1.0"><defs><clipPath id="id1"><path d="M 0.566406 0 L 467.429688 0 L 467.429688 307.5 L 0.566406 307.5 Z M 0.566406 0 " clip-rule="nonzero"/></clipPath><clipPath id="id2"><path d="M 63.144531 16 L 205 16 L 205 227 L 63.144531 227 Z M 63.144531 16 " clip-rule="nonzero"/></clipPath><clipPath id="id3"><path d="M 318 264 L 443 264 L 443 307.5 L 318 307.5 Z M 318 264 " clip-rule="nonzero"/></clipPath><clipPath id="id4"><path d="M 310 256 L 445.460938 256 L 445.460938 307.5 L 310 307.5 Z M 310 256 " clip-rule="nonzero"/></clipPath></defs><g clip-path="url(#id1)"><path fill="rgb(100%, 100%, 100%)" d="M 0.566406 0 L 467.433594 0 L 467.433594 6292.191406 L 0.566406 6292.191406 Z M 0.566406 0 " fill-opacity="1" fill-rule="nonzero"/><path fill="rgb(100%, 100%, 100%)" d="M 0.566406 0 L 467.433594 0 L 467.433594 307.5 L 0.566406 307.5 Z M 0.566406 0 " fill-opacity="1" fill-rule="nonzero"/><path fill="rgb(100%, 100%, 100%)" d="M 0.566406 0 L 467.433594 0 L 467.433594 307.5 L 0.566406 307.5 Z M 0.566406 0 " fill-opacity="1" fill-rule="nonzero"/><path fill="rgb(100%, 100%, 100%)" d="M 0.566406 0 L 467.433594 0 L 467.433594 307.5 L 0.566406 307.5 Z M 0.566406 0 " fill-opacity="1" fill-rule="nonzero"/></g><path stroke-linecap="butt" transform="matrix(2.831998, 0, 0, 2.835621, 63.142783, -7.932665)" fill-opacity="1" fill="rgb(17.248535%, 44.309998%, 94.119263%)" fill-rule="nonzero" stroke-linejoin="miter" d="M 52.57778 8.34909 L 52.746058 8.04327 L 52.346053 7.773268 L 52.548814 7.50602 L 52.955715 7.519796 L 52.948819 6.90678 L 54.303317 7.340713 L 55.572297 7.255304 L 55.950233 7.376529 L 56.417825 7.055557 L 56.815071 7.063822 L 56.977831 7.373774 L 56.87852 7.587297 L 57.055073 7.357243 L 57.055073 6.909535 L 57.441285 6.770401 L 57.935084 6.866831 L 57.61508 6.698768 L 57.583355 6.562389 L 57.604045 5.717942 L 57.766806 5.461715 L 57.183351 4.928598 L 56.844036 4.812882 L 56.01782 5.069109 L 55.681264 4.59936 L 55.377812 4.436807 L 55.106085 4.461603 L 55.40402 4.051089 L 55.724023 3.90369 L 56.030234 4.205376 L 56.249547 4.721963 L 56.452308 4.573186 L 56.195753 3.940884 L 56.572309 4.01114 L 56.758518 3.911955 L 57.230248 4.307316 L 57.718529 5.020894 L 57.875772 5.055333 L 58.306122 4.509818 L 58.430262 4.519461 L 59.198546 5.635288 L 59.700621 5.587073 L 59.84683 5.800596 L 60.257869 5.972791 L 60.593045 5.932842 L 60.983395 5.636666 L 61.297881 5.690391 L 61.097879 6.037537 L 61.395813 6.208355 L 61.707541 6.008608 L 62.100649 6.306162 L 62.16134 6.645043 L 62.633069 6.576164 L 63.057902 6.661573 L 63.795841 6.453561 L 64.08412 6.853055 L 64.700679 7.251171 L 65.126891 7.333825 L 65.406894 6.795197 L 66.15311 6.755248 L 66.375182 6.576164 L 66.143455 6.636777 L 66.175179 6.343356 L 66.638633 6.277233 L 67.006913 5.983812 L 66.995878 5.778555 L 67.103466 5.78131 L 67.201398 5.895648 L 66.620702 6.456316 L 66.743462 6.599583 L 66.39863 7.032138 L 66.590356 7.296631 L 67.020706 6.9178 L 67.42347 6.79933 L 67.17795 7.109282 L 67.275882 7.258059 L 67.489677 7.160252 L 67.540712 7.248416 L 67.307606 7.584542 L 67.470367 7.861432 L 68.052442 7.813217 L 68.206927 7.693369 L 68.409688 7.17816 L 67.870371 6.964638 L 68.663484 6.339223 L 68.986246 6.279988 L 68.918659 6.501776 L 69.307629 7.309029 L 69.550391 7.226375 L 69.36694 7.037649 L 69.601426 6.978413 L 69.895222 7.128568 L 70.190398 7.528061 L 69.515908 8.074954 L 69.223491 8.546081 L 69.155904 8.904248 L 68.790382 8.767869 L 68.93797 9.580632 L 68.684174 10.16472 L 68.657967 10.072423 L 68.423481 10.152321 L 68.390377 9.580632 L 67.937958 10.127525 L 67.638645 9.967728 L 67.147604 10.243241 L 67.044155 10.420947 L 67.169674 10.59452 L 66.964154 10.874165 L 66.91036 11.207536 L 67.147604 11.637336 L 67.433125 11.455497 L 67.060707 12.80551 L 66.263456 13.680264 L 66.023453 14.301545 L 65.543448 14.546752 L 65.844141 15.247932 L 67.9752 16.530444 L 68.286928 17.154481 L 69.006936 17.498872 L 69.566943 18.040255 L 70.332469 18.071939 L 71.31317 18.709751 L 72.380769 19.080316 L 72.732497 19.639607 L 73.143536 19.989508 L 73.143536 49.202138 L 47.105992 49.221424 L 47.086682 14.957266 L 47.62324 15.282371 L 47.638412 15.885744 L 47.828759 15.650181 L 47.751517 14.860836 L 48.423249 15.133594 L 49.043946 15.946357 L 49.203948 15.885744 L 48.897737 15.407729 L 48.958428 14.860836 L 49.40395 14.93798 L 49.817748 14.652824 L 49.3005 14.815377 L 49.038428 14.647314 L 48.783253 14.2368 L 49.121188 14.159656 L 49.32119 13.962664 L 48.995669 14.065982 L 48.649458 14.002614 L 48.123935 13.59761 L 48.158418 13.360669 L 48.514284 12.791735 L 49.209465 12.355047 L 49.48671 10.938911 L 49.692229 10.725388 L 49.820506 10.96784 L 50.10051 10.91687 L 50.746034 10.369977 L 50.315685 9.845125 L 50.388789 9.189404 L 50.50879 9.135679 L 50.63293 9.250017 L 50.929485 9.09573 L 51.006727 8.442764 L 51.455008 8.243017 L 51.721218 8.546081 L 51.977773 8.528173 L 51.732253 8.45654 L 51.649493 8.143833 L 51.748805 7.719543 L 51.660528 7.65342 L 52.212258 7.725053 Z M 52.758472 6.285498 L 51.412249 5.4135 L 51.038452 4.271499 L 51.118453 4.008385 L 51.641217 4.555278 L 52.023291 4.675126 L 52.586056 4.431297 L 52.889508 4.562165 L 53.31572 4.29354 L 53.523998 4.70681 L 53.435721 4.38446 L 53.66331 4.085528 L 54.086763 4.256346 L 54.406767 4.677881 L 54.430215 4.898291 L 53.692276 5.675237 Z M 69.983499 12.90194 L 70.153156 12.819286 L 70.078673 13.192606 L 69.926947 13.250464 L 68.44693 13.008012 L 68.593138 12.031319 L 68.675898 11.890808 L 69.158662 11.743408 L 69.075903 11.557437 L 69.318664 11.354935 L 69.444183 11.363201 L 69.310388 11.578101 L 69.417976 11.888053 L 69.692461 11.936267 L 69.906257 11.634581 L 70.012465 11.802644 L 69.575219 12.195249 L 69.404182 12.863368 L 69.873153 12.994237 Z M 51.40949 5.989322 L 50.929485 5.804728 L 50.260512 5.975546 L 50.052233 5.872229 L 50.191545 5.507175 L 50.432927 5.592584 L 50.540515 5.487889 L 50.483962 4.952016 L 50.721207 4.538747 L 50.977761 4.485022 L 51.403973 5.552634 L 51.826047 5.800596 L 51.75846 5.946618 Z M 68.809693 4.866607 L 69.59315 3.589605 L 69.452459 4.133743 L 68.980729 4.794974 Z M 57.497837 4.538747 L 57.22611 3.677769 L 57.446802 3.59236 L 57.586114 4.048334 Z M 70.404194 17.815712 L 70.057983 17.424484 L 70.275917 17.106266 L 70.515919 17.62423 Z M 67.9352 11.954176 L 67.85244 11.685551 L 67.823474 11.877032 L 67.657955 11.821929 L 67.684162 11.573968 L 67.937958 11.372843 L 68.190375 11.568458 Z M 67.881406 5.554012 L 67.881406 5.41901 L 68.146237 5.208243 L 68.36417 5.197223 L 68.747623 4.898291 L 68.430378 5.266101 Z M 68.870383 17.266064 L 68.85521 16.978153 L 69.103489 16.903764 L 69.052454 17.231625 Z M 68.870383 17.266064 " stroke="rgb(100%, 100%, 100%)" stroke-width="0.5" stroke-opacity="1" stroke-miterlimit="4"/><path fill="rgb(17.248535%, 44.309998%, 94.119263%)" d="M 75.488281 131.601562 L 75.636719 130.210938 L 73.800781 128.269531 L 71.9375 124.175781 L 71.070312 123.648438 L 70.328125 121.546875 L 70.351562 120.328125 L 68.507812 117.417969 L 68.464844 115.640625 L 69.679688 111.40625 L 70.246094 110.269531 L 71.410156 109.355469 L 71.613281 108.59375 L 71.542969 106.390625 L 72.019531 104.941406 L 71.929688 104.078125 L 70.691406 101.167969 L 72.964844 95.625 L 73.757812 94.445312 L 74.84375 94.066406 L 74.949219 94.277344 L 74.140625 97.371094 L 74.671875 98.488281 L 74.414062 100.125 L 74.769531 100.488281 L 76.558594 99.730469 L 78.839844 94.421875 L 81.234375 93.089844 L 82.132812 93.023438 L 85.402344 91.585938 L 86.777344 89.960938 L 88.308594 89.128906 L 89.285156 87.660156 L 91.210938 86.761719 L 91.941406 85.914062 L 93.800781 85.363281 L 95.703125 83.996094 L 97.085938 84.59375 L 98.648438 83.753906 L 100.90625 84.707031 L 103.714844 84.230469 L 105.066406 83.640625 L 107.757812 81.378906 L 108.21875 81.597656 L 112.863281 80.828125 L 114.328125 78.703125 L 115.148438 78.074219 L 116.039062 77.992188 L 119.265625 78.957031 L 120.933594 78.097656 L 125.457031 77.289062 L 131.113281 74.808594 L 133.160156 73.097656 L 134.898438 70.746094 L 136.136719 68.078125 L 137.269531 66.550781 L 137.457031 65.203125 L 138.597656 64.925781 L 141.859375 62.203125 L 142.058594 61.121094 L 141.167969 60.710938 L 140.832031 60.183594 L 140.742188 58.566406 L 140.261719 57.308594 L 140.539062 54.617188 L 142.214844 52.507812 L 142.773438 52.152344 L 143.816406 52.144531 L 143.402344 51.214844 L 143.75 50.746094 L 145.273438 50.511719 L 145.34375 49.136719 L 146.4375 48.296875 L 146.648438 47.546875 L 147.230469 47.335938 L 147.789062 47.894531 L 147.207031 48.070312 L 146.9375 49.015625 L 148.082031 50.117188 L 152.011719 57.640625 L 151.914062 55.675781 L 152.367188 54.300781 L 151.996094 53.164062 L 152.148438 52.515625 L 152.667969 52.5 L 154.308594 54.308594 L 154.796875 54.324219 L 154.109375 53.710938 L 153.816406 52.53125 L 154.59375 51.636719 L 153.566406 51.59375 L 152.269531 49.761719 L 152.3125 48.832031 L 151.390625 48.847656 L 150.765625 48.28125 L 152.53125 48.539062 L 153.089844 47.691406 L 153.074219 46.925781 L 151.867188 46.488281 L 151.957031 45.5 L 153.234375 45.21875 L 153.890625 45.734375 L 153.289062 46.246094 L 154.585938 47.261719 L 155.183594 46.125 L 156.625 46.464844 L 157.367188 47.480469 L 158.210938 47.523438 L 158.632812 47.039062 L 159.382812 47.402344 L 162.804688 47.496094 L 160.523438 46.820312 L 158.761719 46.835938 L 158.558594 45.921875 L 159.003906 44.910156 L 159.335938 44.832031 L 159.730469 45.429688 L 160.339844 45.007812 L 160.523438 43.34375 L 161.445312 42.414062 L 160.539062 42.359375 L 159.871094 43.496094 L 158.769531 42.882812 L 158.535156 41.21875 L 159.238281 39.609375 L 160.257812 39.933594 L 160.871094 39.613281 L 160.929688 37.785156 L 161.277344 37.703125 L 165.183594 39.964844 L 164.320312 39.199219 L 164.496094 38.109375 L 162.976562 38.398438 L 163.1875 37.492188 L 163.738281 37.492188 L 164.0625 36.929688 L 162.734375 37.574219 L 162.265625 36.921875 L 162.886719 36.417969 L 163.542969 36.507812 L 164.34375 35.570312 L 165.054688 36.945312 L 165.03125 35.855469 L 166.34375 36.886719 L 167.273438 36.6875 L 165.210938 35.132812 L 165.703125 34.738281 L 164.828125 33.4375 L 166.464844 31.546875 L 168.535156 31.765625 L 168.460938 29.738281 L 168.777344 29.015625 L 169.683594 29.445312 L 168.972656 32.453125 L 169.628906 30.546875 L 170.617188 31.054688 L 170.46875 31.960938 L 171.101562 32.558594 L 172.203125 31.480469 L 173.097656 28.234375 L 172.558594 26.859375 L 172.039062 26.527344 L 173.675781 26.820312 L 173.609375 27.457031 L 173.1875 27.636719 L 173.464844 28.558594 L 174.25 29.105469 L 174.628906 27.570312 L 176.011719 26.851562 L 175.625 27.796875 L 176.820312 29.074219 L 178.367188 26.902344 L 178.011719 25.421875 L 178.933594 25.050781 L 179.734375 24.863281 L 180.242188 25.269531 L 181.148438 26.910156 L 181.359375 26.3125 L 183.578125 26.769531 L 184.363281 27.878906 L 185.488281 28.636719 L 187.941406 32.054688 L 188.296875 31.878906 L 189.6875 33.074219 L 189.839844 33.898438 L 188.863281 36.4375 L 188.894531 38.941406 L 188.464844 39.804688 L 189.089844 39.257812 L 189.378906 37.398438 L 190.40625 38.179688 L 190.648438 38.980469 L 190.683594 38.164062 L 189.867188 36.144531 L 190.804688 34.859375 L 191.191406 35.96875 L 191.96875 35.992188 L 191.46875 33.90625 L 192.6875 33.558594 L 196.492188 34.511719 L 196.539062 131.671875 L 196.492188 184.699219 L 189.785156 187.960938 L 182.832031 190.226562 L 177.523438 190.703125 L 173.359375 189.957031 L 172.453125 190.402344 L 171.660156 190.226562 L 167.914062 192.933594 L 166.171875 193.441406 L 161.617188 196.34375 L 157.8125 197.199219 L 156.367188 198.699219 L 155.136719 202.804688 L 153.613281 204.132812 L 153.324219 204.964844 L 151.730469 206.207031 L 150.320312 206.101562 L 148.671875 207.316406 L 148.121094 206.015625 L 147.441406 205.730469 L 146.023438 206.214844 L 141.996094 206.273438 L 141.242188 206.796875 L 141.152344 207.292969 L 140.0625 207.410156 L 139.746094 207.300781 L 139.679688 206.078125 L 139.042969 205.40625 L 137.300781 206.136719 L 134.679688 205.328125 L 129.769531 205.714844 L 127.128906 206.3125 L 126.113281 206.871094 L 122.738281 206.425781 L 121.167969 206.910156 L 119.550781 208.113281 L 118.335938 210.402344 L 117.171875 211.542969 L 116.214844 212.113281 L 113.78125 211.605469 L 112.371094 212.566406 L 112.492188 213.132812 L 112.203125 213.457031 L 110.21875 214.289062 L 108.617188 216.097656 L 106.976562 216.972656 L 104.976562 217.335938 L 105.136719 217.753906 L 106.269531 218.003906 L 105.761719 218.289062 L 104.0625 217.519531 L 103.292969 217.730469 L 103.105469 218.417969 L 100.832031 217.222656 L 97.691406 217.214844 L 97.070312 217.625 L 93.6875 217.058594 L 91.691406 215.726562 L 89.699219 215.265625 L 88.394531 213.164062 L 85.78125 210.941406 L 83.695312 210.09375 L 82.722656 210.734375 L 81.792969 209.746094 L 81.339844 204.125 L 81.695312 202.476562 L 83.53125 203.75 L 84.980469 203.4375 L 87.570312 199.9375 L 86.601562 194.160156 L 87.425781 192.722656 L 86.914062 193.949219 L 87.621094 195.128906 L 87.976562 193.207031 L 87.515625 184.949219 L 82.117188 173.386719 L 81.921875 171.203125 L 81.210938 169.183594 L 81.542969 163.800781 L 80.804688 161.160156 L 80.371094 160.140625 L 78.605469 158.039062 L 78.320312 155.824219 L 77.652344 154.476562 L 74.800781 150.792969 L 74.308594 148.578125 L 74.6875 147.246094 L 74.527344 146.289062 L 73.015625 142.566406 L 70.140625 137.917969 L 67.640625 135.253906 L 67.179688 133.796875 L 67.699219 131.875 L 68.078125 134.160156 L 68.335938 132.707031 L 69.550781 134.210938 L 69.816406 136.253906 L 70.609375 137.589844 L 71.761719 137.128906 L 72.351562 136.253906 L 72.398438 134.695312 L 69.851562 132.3125 L 69.375 130.347656 L 68.546875 129 L 69.1875 127.464844 L 71.054688 129.773438 L 71.355469 130.628906 L 70.925781 131.949219 L 71.1875 133.425781 L 71.882812 133.167969 L 72.542969 131.898438 L 73.199219 134.621094 L 74.105469 135.835938 L 75.132812 135.027344 L 75.351562 134.292969 L 74.941406 133.296875 L 75.222656 131.535156 Z M 67.003906 132.910156 L 64.929688 129.636719 L 64.558594 128.214844 L 64.945312 126.953125 L 65.351562 127.050781 L 65.222656 127.699219 L 67.027344 131.980469 Z M 159.78125 39.328125 L 159.34375 38.308594 L 160.085938 37.761719 L 160.792969 38.949219 Z M 84.738281 86.027344 L 84.195312 85.921875 L 84.203125 85.460938 L 85.3125 84.160156 L 85.484375 85.082031 Z M 164.835938 32.597656 L 164.402344 32.363281 L 164.457031 31.71875 L 165.03125 30.835938 L 165.410156 31.257812 Z M 164.835938 32.597656 " fill-opacity="1" fill-rule="nonzero"/><g clip-path="url(#id2)"><path stroke-linecap="butt" transform="matrix(2.831998, 0, 0, 2.835621, 63.142783, -7.932665)" fill="none" stroke-linejoin="miter" d="M 4.359289 49.207648 L 4.411703 48.717235 L 3.76342 48.032586 L 3.105481 46.588898 L 2.799271 46.402927 L 2.537199 45.661797 L 2.545475 45.231997 L 1.894433 44.205712 L 1.87926 43.57892 L 2.30823 42.08564 L 2.508233 41.684769 L 2.919272 41.362419 L 2.990997 41.093794 L 2.966169 40.316848 L 3.134447 39.805771 L 3.102722 39.50133 L 2.665476 38.475044 L 3.468244 36.52028 L 3.748247 36.104256 L 4.1317 35.970632 L 4.168942 36.045021 L 3.883421 37.136052 L 4.07101 37.530035 L 3.979974 38.107235 L 4.105493 38.235348 L 4.737224 37.968101 L 5.542751 36.095991 L 6.388278 35.626241 L 6.705523 35.602823 L 7.860019 35.095879 L 8.345542 34.522812 L 8.886238 34.229391 L 9.231069 33.711427 L 9.911077 33.394587 L 10.169011 33.095656 L 10.825571 32.901419 L 11.497303 32.419271 L 11.985584 32.630039 L 12.537315 32.333862 L 13.334565 32.669988 L 14.326301 32.501925 L 14.803548 32.293913 L 15.753904 31.496303 L 15.916664 31.573447 L 17.556683 31.302067 L 18.073931 30.552672 L 18.363589 30.330884 L 18.678076 30.301955 L 19.817399 30.642213 L 20.406372 30.339149 L 22.003632 30.053993 L 24.000896 29.17924 L 24.723663 28.575867 L 25.337463 27.746573 L 25.77471 26.805697 L 26.174715 26.267069 L 26.240922 25.791809 L 26.643686 25.694002 L 27.795423 24.73384 L 27.865769 24.352255 L 27.551282 24.20761 L 27.43266 24.021639 L 27.400936 23.451328 L 27.231279 23.007752 L 27.329211 22.05861 L 27.920942 21.314725 L 28.118185 21.189367 L 28.486466 21.186612 L 28.340257 20.858752 L 28.463017 20.693444 L 29.000954 20.61079 L 29.025782 20.125887 L 29.411994 19.829711 L 29.486477 19.565219 L 29.691997 19.49083 L 29.88924 19.687822 L 29.683721 19.749812 L 29.588547 20.083183 L 29.99269 20.471656 L 31.380292 23.124845 L 31.345809 22.43193 L 31.505811 21.947027 L 31.374775 21.546156 L 31.428569 21.31748 L 31.612019 21.31197 L 32.191336 21.949782 L 32.363752 21.955293 L 32.120991 21.739015 L 32.017541 21.322991 L 32.292027 21.007528 L 31.929264 20.992375 L 31.471328 20.346298 L 31.4865 20.018437 L 31.160979 20.023948 L 30.940287 19.824201 L 31.563743 19.91512 L 31.760986 19.616188 L 31.755469 19.346186 L 31.329257 19.191899 L 31.360982 18.843375 L 31.812021 18.74419 L 32.043748 18.926029 L 31.831332 19.10649 L 32.289268 19.464656 L 32.500305 19.063785 L 33.009277 19.183633 L 33.271349 19.5418 L 33.569283 19.556953 L 33.71825 19.386135 L 33.983081 19.514249 L 35.191371 19.54731 L 34.385844 19.308992 L 33.763768 19.314502 L 33.692043 18.992152 L 33.849286 18.635363 L 33.966529 18.607811 L 34.105841 18.818579 L 34.321016 18.669802 L 34.385844 18.082959 L 34.711365 17.755099 L 34.391362 17.735813 L 34.155497 18.136684 L 33.766527 17.920407 L 33.683767 17.333564 L 33.932046 16.766008 L 34.29205 16.880346 L 34.508604 16.767385 L 34.529294 16.122685 L 34.652054 16.093756 L 36.031381 16.891366 L 35.72655 16.621364 L 35.788619 16.237023 L 35.252061 16.338963 L 35.326545 16.019368 L 35.52103 16.019368 L 35.635514 15.820999 L 35.166543 16.048297 L 35.001024 15.818244 L 35.220337 15.640538 L 35.452064 15.672222 L 35.734826 15.341606 L 35.985863 15.826509 L 35.977587 15.442169 L 36.441041 15.805846 L 36.76932 15.73559 L 36.041036 15.187319 L 36.214831 15.048185 L 35.905862 14.589456 L 36.4838 13.922715 L 37.214843 13.999859 L 37.188636 13.284903 L 37.300361 13.030053 L 37.620365 13.181585 L 37.369327 14.24231 L 37.601054 13.570059 L 37.950024 13.749142 L 37.897609 14.068737 L 38.12106 14.279504 L 38.51003 13.899296 L 38.825896 12.754541 L 38.635549 12.269638 L 38.452099 12.152545 L 39.030036 12.255862 L 39.006588 12.480405 L 38.857621 12.543773 L 38.955553 12.868878 L 39.232797 13.061737 L 39.366592 12.520355 L 39.854873 12.266883 L 39.71832 12.600253 L 40.140394 13.050717 L 40.686607 12.284791 L 40.561089 11.762694 L 40.88661 11.631826 L 41.169372 11.565702 L 41.348684 11.708969 L 41.668688 12.287546 L 41.743171 12.076779 L 42.526629 12.237954 L 42.803873 12.629182 L 43.201119 12.89643 L 44.067336 14.101798 L 44.192855 14.039808 L 44.683895 14.461343 L 44.737689 14.752009 L 44.392857 15.647426 L 44.403892 16.530444 L 44.252166 16.834886 L 44.472858 16.642027 L 44.574928 15.986306 L 44.937691 16.261819 L 45.023209 16.54422 L 45.035623 16.256309 L 44.747344 15.544108 L 45.078382 15.09089 L 45.214936 15.482118 L 45.489422 15.490383 L 45.312868 14.754764 L 45.743218 14.632161 L 47.086682 14.968286 L 47.103234 49.232444 L 47.086682 67.93288 L 44.718378 69.083146 L 42.263177 69.882134 L 40.388673 70.050196 L 38.918311 69.787082 L 38.598307 69.944124 L 38.318304 69.882134 L 36.99553 70.836786 L 36.38035 71.015869 L 34.772056 72.039399 L 33.428592 72.341086 L 32.918241 72.870071 L 32.483753 74.317891 L 31.945816 74.786263 L 31.843746 75.079684 L 31.280981 75.517749 L 30.783044 75.480555 L 30.200968 75.908978 L 30.006483 75.450249 L 29.76648 75.349686 L 29.265785 75.520504 L 27.843699 75.541168 L 27.577489 75.725761 L 27.545765 75.900712 L 27.160933 75.942039 L 27.049207 75.903467 L 27.025759 75.47229 L 26.800929 75.235349 L 26.185749 75.492953 L 25.260221 75.207797 L 23.526408 75.344176 L 22.593983 75.554943 L 22.235358 75.751935 L 21.04362 75.594893 L 20.489131 75.765711 L 19.91809 76.190001 L 19.48912 76.997253 L 19.07808 77.399502 L 18.740145 77.600627 L 17.880825 77.421543 L 17.382888 77.760424 L 17.425647 77.960171 L 17.323577 78.074509 L 16.622879 78.36793 L 16.057356 79.005742 L 15.478039 79.314317 L 14.771823 79.44243 L 14.828376 79.589829 L 15.228381 79.677994 L 15.049068 79.778556 L 14.449061 79.507176 L 14.177334 79.581564 L 14.111126 79.824015 L 13.308358 79.402481 L 12.19938 79.399726 L 11.980067 79.54437 L 10.78557 79.344623 L 10.080735 78.874874 L 9.377278 78.712321 L 8.916583 77.971191 L 7.993814 77.187357 L 7.257253 76.888426 L 6.913801 77.114346 L 6.585521 76.765823 L 6.42552 74.783507 L 6.551038 74.202175 L 7.199322 74.651261 L 7.711052 74.541056 L 8.625545 73.306758 L 8.283472 71.269341 L 8.57451 70.762397 L 8.393818 71.194952 L 8.643476 71.610977 L 8.768995 70.933215 L 8.606235 68.021044 L 6.700006 63.943454 L 6.631039 63.173395 L 6.380002 62.461194 L 6.497245 60.562911 L 6.236552 59.631677 L 6.083447 59.272133 L 5.459991 58.531003 L 5.3593 57.749924 L 5.123436 57.274665 L 4.116527 55.975622 L 3.942732 55.194543 L 4.076527 54.724793 L 4.019974 54.38729 L 3.486175 53.074471 L 2.470991 51.43517 L 1.588222 50.495671 L 1.425462 49.981839 L 1.608912 49.304077 L 1.742707 50.109953 L 1.833742 49.597499 L 2.262713 50.127861 L 2.356507 50.848327 L 2.63651 51.319454 L 3.043411 51.156902 L 3.25169 50.848327 L 3.268242 50.298679 L 2.368921 49.458365 L 2.200643 48.76545 L 1.908226 48.29019 L 2.134435 47.748807 L 2.793753 48.562948 L 2.899961 48.864634 L 2.748236 49.330251 L 2.84065 49.850971 L 3.08617 49.760051 L 3.319277 49.312343 L 3.551003 50.272505 L 3.871007 50.700928 L 4.23377 50.415772 L 4.311012 50.15679 L 4.166183 49.805511 L 4.265495 49.184229 Z M 1.363392 49.669132 L 0.63097 48.514733 L 0.499934 48.0133 L 0.636487 47.568346 L 0.779937 47.602786 L 0.734419 47.831461 L 1.371668 49.341272 Z M 34.123772 16.666823 L 33.969288 16.307279 L 34.23136 16.11442 L 34.481018 16.533199 Z M 7.625534 33.135605 L 7.433807 33.098411 L 7.436566 32.935858 L 7.828295 32.477129 L 7.888985 32.802234 Z M 35.908621 14.29328 L 35.755516 14.210626 L 35.774826 13.983328 L 35.977587 13.671998 L 36.111382 13.820775 Z M 35.908621 14.29328 " stroke="rgb(100%, 100%, 100%)" stroke-width="0.5" stroke-opacity="1" stroke-miterlimit="4"/></g><path stroke-linecap="butt" transform="matrix(2.831998, 0, 0, 2.835621, 63.142783, -7.932665)" fill-opacity="1" fill="rgb(17.248535%, 44.309998%, 94.119263%)" fill-rule="nonzero" stroke-linejoin="miter" d="M 105.108045 82.602563 L 104.77149 82.431745 L 104.310795 81.647911 L 104.316312 81.157498 L 104.455624 80.474226 L 105.215633 79.914935 L 106.150816 80.499022 L 105.535636 80.682238 L 105.396325 80.875097 L 105.230805 81.539083 L 105.273564 82.375265 Z M 105.108045 82.602563 " stroke="rgb(100%, 100%, 100%)" stroke-width="0.5" stroke-opacity="1" stroke-miterlimit="4"/><path stroke-linecap="butt" transform="matrix(2.831998, 0, 0, 2.835621, 63.142783, -7.932665)" fill-opacity="1" fill="rgb(17.248535%, 44.309998%, 94.119263%)" fill-rule="nonzero" stroke-linejoin="miter" d="M 107.815663 88.32772 L 102.680431 85.740654 L 102.419738 85.719991 L 102.684569 85.05876 L 102.236288 84.277681 L 102.087321 83.098486 L 101.771455 82.898739 L 101.287311 82.690727 L 101.039033 82.787156 L 100.630752 82.708635 L 100.360404 82.754095 L 100.091435 83.09022 L 99.34522 83.285835 L 98.95625 83.258283 L 97.750718 82.80782 L 97.164505 83.072312 L 95.736902 82.8643 L 94.910685 82.280213 L 94.438956 82.466184 L 94.089986 82.362866 L 93.369978 82.456541 L 93.214114 82.887718 L 93.259632 83.250018 L 92.636176 83.365733 L 92.278931 83.157721 L 91.670648 82.44552 L 91.521681 82.103884 L 90.772706 81.413725 L 89.833385 80.810351 L 89.329931 80.629891 L 89.236137 80.178049 L 88.785097 79.986568 L 88.652682 79.693147 L 88.609923 78.624157 L 87.993364 78.288031 L 87.22232 78.122723 L 87.004387 77.906446 L 86.787832 78.034559 L 86.564382 78.613136 L 86.318862 78.564922 L 86.070583 77.965681 L 85.819545 77.732873 L 85.807131 77.231439 L 85.404368 76.555055 L 84.838844 76.245103 L 84.385046 76.338778 L 83.956075 76.227195 L 83.396069 76.621178 L 82.545025 76.133521 L 82.047088 76.096326 L 81.822258 75.936529 L 81.836051 58.949783 L 104.851491 58.949783 L 106.337025 57.628699 L 106.657029 57.541912 L 107.030826 57.725128 L 108.728777 57.437217 L 109.230852 57.821558 L 110.150863 57.744414 L 110.880526 58.077785 L 111.619845 58.714219 L 111.654328 59.215653 L 111.836399 59.506319 L 112.119161 59.325858 L 112.379854 58.791363 L 112.87917 58.570953 L 113.164691 58.864374 L 113.71918 58.597127 L 113.811595 58.061254 L 113.550902 57.468901 L 114.156426 57.085938 L 114.731605 56.895835 L 115.073678 56.528025 L 115.390923 56.741547 L 115.865412 56.844865 L 116.883355 56.821446 L 117.105426 56.528025 L 117.808883 56.333788 L 118.025437 56.15746 L 118.232336 56.346186 L 118.272336 56.562464 L 118.179921 57.274665 L 118.36751 57.829823 L 118.312337 58.491054 L 117.857159 59.087539 L 117.537155 60.027038 L 117.617156 60.258469 L 117.294394 62.09614 L 116.614386 64.151466 L 116.577144 65.045505 L 116.777146 65.42709 L 116.120587 67.813032 L 115.145403 69.423405 L 115.196438 70.351883 L 114.030908 71.30378 L 114.080563 71.605467 L 113.119173 72.01047 L 112.430889 73.312269 L 112.084678 73.483087 L 112.054333 73.640129 L 112.177093 73.748957 L 112.084678 74.119521 L 111.75364 74.563097 L 111.559155 75.74367 L 111.05708 75.899335 L 111.334325 76.048112 L 110.579833 77.005519 L 110.308106 77.797618 L 110.425348 77.940885 L 110.280519 78.597983 L 110.036378 78.920333 L 110.33983 79.427277 L 110.294312 79.661463 L 110.21707 79.727586 L 110.120517 79.624269 L 110.116379 79.388705 L 109.855687 79.496155 L 109.908101 79.795087 L 109.436371 80.146365 L 108.342566 82.676951 L 108.265323 84.061403 L 108.097046 84.280436 L 107.590833 86.199383 L 107.604626 86.725613 L 107.891526 87.058983 L 107.928768 87.3097 L 107.927388 87.429548 L 107.720489 87.492916 Z M 105.230805 81.539083 L 105.396325 80.877852 L 105.535636 80.682238 L 106.150816 80.501777 L 105.217012 79.91769 L 104.457003 80.476981 L 104.319071 81.160253 L 104.313553 81.653421 L 104.775628 82.437255 L 105.135632 82.594297 L 105.276323 82.380775 Z M 105.230805 81.539083 " stroke="rgb(100%, 100%, 100%)" stroke-width="0.5" stroke-opacity="1" stroke-miterlimit="4"/><path stroke-linecap="butt" transform="matrix(2.831998, 0, 0, 2.835621, 63.142783, -7.932665)" fill-opacity="1" fill="rgb(17.248535%, 44.309998%, 94.119263%)" fill-rule="nonzero" stroke-linejoin="miter" d="M 68.235893 76.54128 L 67.947614 77.005519 L 67.713128 77.108836 L 67.466229 77.533126 L 67.166915 77.720475 L 66.987602 78.074509 L 66.783462 78.69579 L 66.983464 78.712321 L 67.369676 78.439563 L 67.409676 78.624157 L 67.364159 79.314317 L 67.226226 79.373552 L 66.735186 78.852833 L 66.553115 78.880384 L 66.426217 79.180693 L 66.321388 79.177938 L 65.404136 78.026294 L 65.084132 77.818282 L 64.786198 77.922977 L 65.063442 77.367818 L 65.075856 77.586851 L 65.455171 77.991855 L 65.606897 78.09655 L 65.895176 78.002875 L 65.566896 77.775577 L 65.217927 75.871783 L 64.558609 75.045245 L 64.001361 74.592026 L 64.052396 74.018959 L 63.617908 73.002317 L 63.28687 72.874203 L 62.521344 73.090481 L 62.346169 72.893489 L 61.783404 71.434649 L 62.015131 71.451179 L 62.169615 71.730825 L 62.42617 71.285872 L 62.366859 70.98143 L 61.897888 70.519946 L 61.140638 70.821632 L 61.227536 70.351883 L 61.4234 70.33122 L 61.063396 69.829786 L 60.587528 69.49366 L 60.620632 69.368302 L 60.423388 69.306312 L 60.073039 69.687897 L 59.15027 69.624529 L 58.046809 68.826919 L 57.466113 68.756663 L 56.721276 69.10381 L 56.340582 69.066615 L 55.106085 68.032065 L 53.308823 67.19175 L 52.281225 67.653234 L 50.414996 67.549917 L 47.086682 67.93288 L 47.103234 49.218668 L 73.140777 49.199383 L 81.825016 49.199383 L 81.833292 58.947028 L 81.820878 75.933774 L 81.745015 75.834589 L 81.73536 90.341719 L 80.953282 90.370648 L 80.465 90.108911 L 79.961546 89.601967 L 79.281538 88.397976 L 78.913258 88.258842 L 78.21256 87.19674 L 78.302217 87.010769 L 78.158767 86.528621 L 78.21256 86.19525 L 78.529806 85.739277 L 78.41808 84.874166 L 77.910488 83.639869 L 77.110479 82.573634 L 76.273228 81.752605 L 77.204273 82.488225 L 77.944971 83.66191 L 77.673244 82.873943 L 76.321504 81.514287 L 76.315987 81.200202 L 76.495299 81.128569 L 76.713233 81.317295 L 76.732543 81.824239 L 77.004271 81.793932 L 77.064961 80.671217 L 76.649784 80.46596 L 76.424953 80.687748 L 75.947707 80.792443 L 75.918741 81.029384 L 76.140812 81.151987 L 76.009776 81.32005 L 75.227698 81.253927 L 74.69252 81.658931 L 73.64699 81.714034 L 73.409746 81.536328 L 73.583541 81.229131 L 73.966994 81.03765 L 74.409758 80.559635 L 74.484241 79.746872 L 74.624933 79.43692 L 74.572518 78.396859 L 73.932511 77.52486 L 73.772509 76.949039 L 73.404229 76.322247 L 73.15595 76.749292 L 73.190433 77.053733 L 72.915947 77.336134 L 72.815256 77.684658 L 72.775256 78.336246 L 72.406976 79.818505 L 72.19318 79.992078 L 71.460758 79.775801 L 70.915924 79.981058 L 70.724198 80.229019 L 70.321434 80.168406 L 69.929706 80.426011 L 69.753152 80.242795 L 70.057983 79.874985 L 70.3104 79.011252 L 70.553161 79.106304 L 71.057995 79.026406 L 71.355929 79.219265 L 71.500758 79.140743 L 71.686967 78.157163 L 71.670415 76.855364 L 71.550414 76.415921 L 71.818003 76.188623 L 71.987661 75.453004 L 72.987672 74.327534 L 72.598702 73.357728 L 72.686979 73.095991 L 73.270434 72.845274 L 73.249744 72.668946 L 73.001465 72.432005 L 72.601461 70.916684 L 72.446976 70.799591 L 72.423528 71.357505 L 72.555943 71.511792 L 72.575254 71.876847 L 72.478701 72.37277 L 71.958695 72.500883 L 71.649726 72.837009 L 70.844199 74.695343 L 70.646955 74.860651 L 70.295227 74.874427 L 70.089707 74.749068 L 69.841429 75.187134 L 68.537965 75.999897 Z M 72.884223 81.922046 L 73.324228 82.043272 L 73.467678 82.420724 L 73.25802 82.610828 L 72.913189 82.442765 L 72.449735 82.408326 L 72.041454 82.599808 L 72.026282 82.919402 L 71.564207 83.189405 L 71.281445 82.901494 L 70.900751 82.829861 L 70.681438 83.042006 L 69.415217 83.087465 L 68.910383 82.591542 L 69.033143 82.06669 L 70.593162 81.685105 L 71.164203 81.431633 L 71.769727 81.482603 L 71.940763 81.645155 L 71.978005 81.986791 L 72.538012 82.186538 L 72.707669 82.200314 Z M 72.884223 81.922046 " stroke="rgb(100%, 100%, 100%)" stroke-width="0.5" stroke-opacity="1" stroke-miterlimit="4"/><path stroke-linecap="butt" transform="matrix(2.831998, 0, 0, 2.835621, 63.142783, -7.932665)" fill-opacity="1" fill="rgb(17.248535%, 44.309998%, 94.119263%)" fill-rule="nonzero" stroke-linejoin="miter" d="M 106.659787 89.139105 L 105.880468 89.356761 L 102.985262 89.45319 L 101.393519 90.040032 L 100.273506 90.975399 L 98.827972 92.498985 L 97.547957 92.741436 L 96.934157 92.735926 L 96.833466 92.887458 L 97.156229 93.477056 L 97.488646 93.24287 L 97.550716 93.018327 L 97.654166 93.066541 L 97.696925 94.069408 L 97.438991 94.333901 L 97.222436 94.149307 L 97.0114 93.596904 L 96.707948 93.215318 L 96.484497 93.120266 L 96.302426 93.280064 L 96.016905 93.255268 L 95.76173 92.498985 L 95.505175 92.459035 L 95.156206 92.613323 L 94.601716 92.103624 L 94.648613 91.759233 L 95.007238 91.471322 L 94.684476 90.929939 L 94.136883 90.971266 L 94.014123 91.38178 L 93.487221 91.925918 L 93.113423 91.957602 L 92.707901 91.485097 L 93.356185 91.348719 L 93.779638 90.602079 L 93.687223 90.259065 L 93.1617 89.621253 L 92.030652 90.472588 L 91.571336 90.564884 L 91.587888 90.698508 L 91.987893 90.767386 L 92.347897 90.595191 L 92.547899 90.650293 L 92.561693 90.920296 L 92.411346 91.148972 L 91.556164 91.293616 L 90.684429 91.883214 L 90.049939 92.664293 L 89.729936 92.752457 L 89.182343 93.266288 L 87.750602 92.44526 L 87.041629 92.217962 L 86.265068 91.618721 L 85.814028 91.439638 L 85.179538 91.573262 L 84.614014 91.176523 L 83.996076 91.085604 L 83.616761 91.285351 L 83.705038 91.573262 L 83.47607 91.63663 L 83.136756 91.471322 L 82.382264 90.692998 L 81.731222 90.341719 L 81.742257 75.834589 L 81.81674 75.933774 L 82.04157 76.093571 L 82.539507 76.130765 L 83.390552 76.618423 L 83.950558 76.22444 L 84.379529 76.336022 L 84.833327 76.242348 L 85.398851 76.5523 L 85.801614 77.228684 L 85.814028 77.730118 L 86.065065 77.962926 L 86.313344 78.562166 L 86.558864 78.610381 L 86.782315 78.031804 L 86.998869 77.903691 L 87.216803 78.119968 L 87.987846 78.285276 L 88.604405 78.621402 L 88.647164 79.690392 L 88.77958 79.983813 L 89.230619 80.175294 L 89.324414 80.627135 L 89.827868 80.807596 L 90.767189 81.410969 L 91.516163 82.101129 L 91.665131 82.442765 L 92.273413 83.154966 L 92.630659 83.362978 L 93.254115 83.247263 L 93.209976 82.884963 L 93.364461 82.453786 L 94.084469 82.360111 L 94.433439 82.463429 L 94.905168 82.277457 L 95.731385 82.861545 L 97.158987 83.069557 L 97.745201 82.805065 L 98.950732 83.255528 L 99.339702 83.283079 L 100.087297 83.087465 L 100.356266 82.75134 L 100.625235 82.707258 L 101.033515 82.784401 L 101.280415 82.687972 L 101.767317 82.895984 L 102.080424 83.095731 L 102.230771 84.274926 L 102.679052 85.056005 L 102.4156 85.717236 L 102.676293 85.739277 L 107.808766 88.324965 L 107.251518 88.498538 L 106.927377 88.994461 Z M 94.436197 91.684844 L 94.227919 91.604946 L 94.262402 91.199942 L 94.727235 91.296371 L 94.844478 91.434128 Z M 94.43068 92.197298 L 94.190677 92.01546 L 93.753431 92.01546 L 93.956192 91.818468 L 94.22516 91.764743 Z M 94.43068 92.197298 " stroke="rgb(100%, 100%, 100%)" stroke-width="0.5" stroke-opacity="1" stroke-miterlimit="4"/><path stroke-linecap="butt" transform="matrix(2.831998, 0, 0, 2.835621, 63.142783, -7.932665)" fill-opacity="1" fill="rgb(17.248535%, 44.309998%, 94.119263%)" fill-rule="nonzero" stroke-linejoin="miter" d="M 107.815663 38.370349 L 107.990837 38.589382 L 107.650144 37.6857 L 107.876353 37.093347 L 108.105322 37.101613 L 108.458429 37.813813 L 109.593615 38.418564 L 109.422578 37.786262 L 109.502579 37.623709 L 109.713616 37.660904 L 109.919136 37.968101 L 109.855687 38.316624 L 110.247415 38.874538 L 110.062586 40.119856 L 110.225346 40.455982 L 110.190863 40.90369 L 110.382589 41.293541 L 110.833629 41.456093 L 111.251565 42.197223 L 111.553637 42.306051 L 111.996401 42.78131 L 112.350888 42.963149 L 112.32744 43.122946 L 112.548132 43.015496 L 112.622615 42.778555 L 112.750893 42.815749 L 113.47366 43.538971 L 114.047459 44.773268 L 115.019885 45.419346 L 115.134369 46.007566 L 115.610236 46.794155 L 116.294382 46.933289 L 116.407487 47.403039 L 116.251623 47.805287 L 116.328865 48.357691 L 116.512316 48.474784 L 116.66818 48.853614 L 117.094391 49.116729 L 116.767491 50.192606 L 117.011632 52.687375 L 116.658524 52.991817 L 116.745422 53.434015 L 117.299911 53.972643 L 117.480603 54.595302 L 117.727502 54.938316 L 117.811641 55.171124 L 117.748192 55.605057 L 118.025437 56.154705 L 117.810262 56.331033 L 117.105426 56.52527 L 116.883355 56.818691 L 115.865412 56.84211 L 115.390923 56.738792 L 115.073678 56.52527 L 114.731605 56.893079 L 114.156426 57.083183 L 113.550902 57.466146 L 113.811595 58.058499 L 113.71918 58.594371 L 113.164691 58.861619 L 112.87917 58.568198 L 112.379854 58.789986 L 112.119161 59.323103 L 111.836399 59.503564 L 111.654328 59.212898 L 111.619845 58.711464 L 110.881905 58.07503 L 110.150863 57.741659 L 109.230852 57.818803 L 108.728777 57.434462 L 107.030826 57.722373 L 106.658408 57.539157 L 106.338404 57.627321 L 104.851491 58.947028 L 81.836051 58.947028 L 81.830534 49.202138 L 73.144915 49.202138 L 73.144915 19.989508 L 73.984925 20.551555 L 74.995971 20.664515 L 75.584944 20.955181 L 76.070467 21.024059 L 76.449781 21.548911 L 76.510472 21.938762 L 76.793234 22.360297 L 77.304964 22.469124 L 77.82497 22.896169 L 78.39877 23.061477 L 78.990501 23.477501 L 80.084306 23.357653 L 81.347769 22.688157 L 81.705015 21.331256 L 82.393299 20.437217 L 82.660888 19.835221 L 83.065031 18.549954 L 82.990547 18.045765 L 83.164342 16.940959 L 83.758832 15.421505 L 83.473311 14.637671 L 83.342275 13.797357 L 83.572623 12.79449 L 83.218136 12.215913 L 83.193308 11.859124 L 83.404345 10.98437 L 83.827798 10.160587 L 83.553312 9.285834 L 83.998835 8.893228 L 84.139526 8.501999 L 84.313321 8.554347 L 84.532634 9.138434 L 84.556082 9.013076 L 84.393322 8.539194 L 83.913316 7.917912 L 83.998835 7.847656 L 83.750556 7.792554 L 83.818143 8.087353 L 83.649865 8.141078 L 83.553312 8.029495 L 84.078836 7.092751 L 84.292631 6.43152 L 84.41815 6.376418 L 84.489875 6.727697 L 84.798844 6.667084 L 84.575393 6.245549 L 85.084364 4.624156 L 85.156089 3.381593 L 85.721613 3.22455 L 86.01541 2.680413 L 86.502312 2.800261 L 86.222309 3.114345 L 86.201619 3.384348 L 86.489898 3.15705 L 86.881627 3.49042 L 87.007145 3.765933 L 87.230596 4.677881 L 87.212665 5.975546 L 87.527151 6.253814 L 87.916121 6.183559 L 88.193366 6.43152 L 87.913363 6.881984 L 87.841638 7.453673 L 88.415438 7.685104 L 88.425093 7.995056 L 88.862339 8.288477 L 88.667854 8.973126 L 89.107859 9.061291 L 89.129929 10.317629 L 89.339586 10.696459 L 89.156136 11.656622 L 89.361655 12.189739 L 89.607176 12.447344 L 89.887179 13.605875 L 90.190631 13.82353 L 90.550635 13.826286 L 91.775477 13.133371 L 91.895478 12.863368 L 92.009962 12.890919 L 92.190654 13.1623 L 92.295483 13.820775 L 92.476174 14.037053 L 93.113423 14.218891 L 93.294115 14.62114 L 94.32723 15.191452 L 94.092745 15.754876 L 94.252747 16.341718 L 94.134125 16.684732 L 94.456887 17.547087 L 94.456887 18.08847 L 94.756201 18.589903 L 94.582406 19.661648 L 95.753454 21.080539 L 96.116217 20.955181 L 96.185183 21.04059 L 95.974146 21.559932 L 96.407255 22.44295 L 96.616912 23.429287 L 96.587946 24.226896 L 96.321736 24.791698 L 96.342426 25.082364 L 96.930019 25.851045 L 97.281747 25.984668 L 97.118987 27.050903 L 97.950721 27.831982 L 98.524521 27.962851 L 98.879007 28.316885 L 99.416945 28.436733 L 99.612809 28.621327 L 100.459715 28.650255 L 100.371439 28.333416 L 100.81834 29.02633 L 100.931445 29.613173 L 101.147999 29.912104 L 101.439037 29.917615 L 101.415589 29.562203 L 101.590763 29.564958 L 101.851456 30.125627 L 102.742501 30.288179 L 102.971469 30.56507 L 102.902502 30.682163 L 103.305266 31.080279 L 103.458371 31.012778 L 103.418371 30.642213 L 104.055619 31.109208 L 104.331485 31.160178 L 104.81149 32.088656 L 104.396313 31.847582 L 104.255622 31.906817 L 104.041826 32.17131 L 104.219759 32.650702 L 105.626672 33.767907 L 105.697018 34.380923 L 106.284611 35.320422 L 106.247369 35.908642 L 106.51082 36.853651 L 107.019792 37.703608 L 106.942549 38.154072 L 107.364623 37.808303 Z M 116.801974 48.551927 L 116.559213 48.365956 L 116.40197 47.791512 L 116.753698 47.090332 L 116.710939 46.747318 L 117.262669 45.992413 L 117.254393 45.741696 L 117.025425 45.426234 L 117.379912 45.058424 L 117.403361 45.708635 L 117.639225 46.058536 L 116.931631 47.722634 Z M 76.464954 20.608035 L 76.51323 20.125887 L 76.92427 19.712618 L 77.582208 19.565219 L 78.140835 19.656138 L 78.156008 19.832466 L 78.030489 19.890324 L 77.716003 19.829711 L 77.449793 19.935783 L 77.31324 20.325634 Z M 111.433636 42.179315 L 110.967424 41.607626 L 110.828112 41.140631 L 110.956389 41.111702 L 111.418463 41.461604 L 111.639156 42.063599 Z M 97.139677 25.840024 L 96.939675 25.762881 L 96.884502 25.484613 L 96.550705 25.114048 L 97.081745 25.277978 L 97.321748 25.623747 Z M 117.742675 54.792294 L 117.819917 53.767386 L 118.131645 53.772896 L 117.880607 54.775763 Z M 117.796469 53.597946 L 117.603363 53.059318 L 117.603363 52.621252 L 117.851642 52.484874 Z M 85.252642 2.855363 L 85.070571 2.709341 L 85.058157 2.524748 L 85.350574 2.386991 L 85.473334 2.709341 Z M 85.532645 1.378614 L 85.270573 1.199531 L 85.382299 1.028713 L 85.542301 0.999784 L 85.705061 1.162337 Z M 77.275998 21.765189 L 77.193238 21.591616 L 77.489793 21.314725 L 77.638761 21.420798 L 77.687037 21.642586 L 77.344964 21.63432 Z M 77.275998 21.765189 " stroke="rgb(100%, 100%, 100%)" stroke-width="0.5" stroke-opacity="1" stroke-miterlimit="4"/><g clip-path="url(#id3)"><path fill="rgb(17.248535%, 44.309998%, 94.119263%)" d="M 343.378906 308.328125 L 342.699219 308.667969 L 342.546875 308.328125 L 341.488281 308.160156 L 340.78125 307.625 L 338.296875 307.378906 L 337.765625 306.867188 L 336.777344 307.171875 L 336.1875 306.972656 L 335.320312 305.605469 L 335.804688 305.265625 L 337.773438 305.769531 L 337.789062 305.027344 L 337.207031 304.542969 L 336.890625 305.121094 L 334.535156 304.710938 L 332.554688 301.148438 L 331.867188 301 L 331.445312 300.320312 L 330.578125 297.578125 L 329.808594 297.066406 L 329.363281 293.128906 L 329.511719 292.929688 L 331.175781 294.425781 L 331.527344 296.078125 L 332.207031 294.171875 L 331.4375 293.898438 L 329.980469 292.292969 L 329.714844 290.683594 L 327.316406 287.152344 L 325.109375 281.730469 L 324.558594 278.636719 L 325.222656 278.035156 L 325.238281 276.777344 L 325.738281 276.445312 L 327.570312 276.664062 L 328.644531 277.457031 L 329.941406 277.25 L 337.472656 281.082031 L 339.980469 281.003906 L 340.691406 281.40625 L 340.652344 281.027344 L 341.875 280.144531 L 342.304688 280.28125 L 342.488281 280.996094 L 343.605469 281.203125 L 342.621094 280.566406 L 342.585938 280.042969 L 344.207031 279.136719 L 345.273438 279.496094 L 346.988281 279.144531 L 347.488281 279.589844 L 348.074219 279.234375 L 349.085938 277.695312 L 349.609375 277.566406 L 350.945312 278.214844 L 351.464844 277.910156 L 352.039062 276.636719 L 352.925781 276.890625 L 354.511719 278.320312 L 354.964844 279.339844 L 354.441406 281.203125 L 354.871094 283.023438 L 354.519531 284.328125 L 354.851562 286.054688 L 354.441406 288.265625 L 355.257812 292.757812 L 354.828125 293.367188 L 354.53125 293.121094 L 354.8125 291.847656 L 353.875 289.703125 L 352.925781 291.589844 L 352.304688 296.078125 L 351.8125 297.089844 L 351.90625 298.238281 L 351.316406 298.851562 L 350.984375 299.96875 L 351.453125 300.121094 L 351.542969 299.605469 L 352.265625 300.347656 L 351.875 302.308594 L 352.234375 303.933594 L 351.453125 303.433594 L 350.554688 304.144531 L 349.253906 302.109375 L 349.148438 301.574219 L 349.867188 300.6875 L 350.484375 301.953125 L 351.453125 301.679688 L 350.847656 300.621094 L 348.652344 299.484375 L 348.199219 299.824219 L 348.609375 301.148438 L 348.394531 301.589844 L 347.585938 301.851562 L 347.425781 300.152344 L 346.683594 299.675781 L 346.941406 300.324219 L 346.066406 302.886719 L 346.113281 304.40625 L 345.546875 304.550781 L 344.886719 304.128906 L 344.179688 302.714844 L 343.832031 302.917969 L 343.824219 303.675781 L 344.859375 304.621094 Z M 353.316406 271.546875 L 352.574219 271.136719 L 352.410156 270.109375 L 351.472656 268.347656 L 350.304688 267.304688 L 351.300781 265.988281 L 352.003906 265.6875 L 353.625 267.855469 L 354.632812 268.550781 L 354.984375 270.949219 Z M 318.828125 270.070312 L 318.539062 269.859375 L 318.585938 268.445312 L 318.117188 267.832031 L 318.140625 267.25 L 318.28125 265.535156 L 318.925781 265.058594 L 318.941406 264.164062 L 319.289062 264.066406 L 320.359375 265.003906 L 320.667969 267.847656 L 320.335938 268.988281 Z M 355.039062 274.003906 L 354.863281 273.269531 L 352.960938 273.511719 L 352.230469 273.195312 L 352.246094 272.777344 L 352.789062 272.332031 L 353.914062 272.476562 L 355.0625 271.894531 L 356.179688 273.222656 Z M 346.542969 307.148438 L 345.5 307.015625 L 345.070312 306.117188 L 346.519531 304.324219 L 347.046875 305.710938 Z M 441.457031 448.601562 L 441.09375 448.566406 L 441.085938 447.398438 L 441.554688 445.296875 L 442.121094 444.6875 Z M 347.023438 304.324219 L 346.457031 303.136719 L 346.988281 302.214844 L 347.609375 304.089844 Z M 352.378906 298.625 L 352.417969 297.144531 L 353.316406 296.816406 L 353.648438 297.65625 L 353.074219 297.664062 Z M 326.757812 276.4375 L 326.566406 275.8125 L 327.058594 275.226562 L 327.796875 276.074219 Z M 326.757812 276.4375 " fill-opacity="1" fill-rule="nonzero"/></g><g clip-path="url(#id4)"><path stroke-linecap="butt" transform="matrix(2.831998, 0, 0, 2.835621, 63.142783, -7.932665)" fill="none" stroke-linejoin="miter" d="M 98.953491 111.531414 L 98.713488 111.651262 L 98.659695 111.531414 L 98.285897 111.472178 L 98.036239 111.283452 L 97.158987 111.196666 L 96.971399 111.016205 L 96.622429 111.123655 L 96.414151 111.053399 L 96.107941 110.571251 L 96.278977 110.451403 L 96.974158 110.629109 L 96.979675 110.367372 L 96.774155 110.196554 L 96.66243 110.400433 L 95.830696 110.255789 L 95.131378 108.99945 L 94.888616 108.947103 L 94.739649 108.707407 L 94.433439 107.740357 L 94.161711 107.559896 L 94.004468 106.171311 L 94.056882 106.101055 L 94.644475 106.628662 L 94.768615 107.211372 L 95.008618 106.539121 L 94.73689 106.442691 L 94.222402 105.876512 L 94.128607 105.308956 L 93.281701 104.063637 L 92.502382 102.151578 L 92.307897 101.060547 L 92.542382 100.848402 L 92.547899 100.404827 L 92.724453 100.287734 L 93.371357 100.364877 L 93.750672 100.644523 L 94.208608 100.571512 L 96.86795 101.922902 L 97.753477 101.895351 L 98.004515 102.03724 L 97.990721 101.903617 L 98.42245 101.592287 L 98.574176 101.640502 L 98.639005 101.892596 L 99.033492 101.965607 L 98.685902 101.741064 L 98.673488 101.55647 L 99.245908 101.236875 L 99.622464 101.363611 L 100.227989 101.239631 L 100.404542 101.396673 L 100.611441 101.271315 L 100.968687 100.728554 L 101.153517 100.683095 L 101.625246 100.91177 L 101.808697 100.80432 L 102.011458 100.355234 L 102.324565 100.444776 L 102.884571 100.948964 L 103.044573 101.308509 L 102.859743 101.965607 L 103.011469 102.607552 L 102.88733 103.067658 L 103.004573 103.676542 L 102.859743 104.456243 L 103.148023 106.040442 L 102.996297 106.255342 L 102.891468 106.168556 L 102.990779 105.71947 L 102.659741 104.963187 L 102.324565 105.628551 L 102.105252 107.211372 L 101.931457 107.568161 L 101.964561 107.973165 L 101.756282 108.189443 L 101.639039 108.583426 L 101.804559 108.637151 L 101.836283 108.455313 L 102.091459 108.71705 L 101.953526 109.408587 L 102.080424 109.981654 L 101.804559 109.805326 L 101.487314 110.056042 L 101.027998 109.338331 L 100.990756 109.149605 L 101.244552 108.836898 L 101.462486 109.283229 L 101.804559 109.186799 L 101.590763 108.813479 L 100.815582 108.412608 L 100.65558 108.532456 L 100.800409 108.99945 L 100.724546 109.155115 L 100.439026 109.247412 L 100.382473 108.648172 L 100.120401 108.480109 L 100.211437 108.708784 L 99.902468 109.612467 L 99.91902 110.148339 L 99.719017 110.199309 L 99.485911 110.050532 L 99.236253 109.551854 L 99.113493 109.623487 L 99.110734 109.890735 L 99.476256 110.224105 Z M 102.462497 98.560268 L 102.200425 98.415624 L 102.142494 98.053324 L 101.811455 97.432043 L 101.399037 97.064233 L 101.750765 96.599994 L 101.999044 96.493921 L 102.571464 97.25847 L 102.92733 97.503676 L 103.05147 98.349501 Z M 90.284425 98.039549 L 90.182355 97.96516 L 90.198907 97.466482 L 90.033387 97.250204 L 90.041663 97.044947 L 90.091319 96.440196 L 90.318908 96.272134 L 90.324425 95.956671 L 90.447185 95.922232 L 90.825121 96.252848 L 90.934088 97.255714 L 90.816845 97.657963 Z M 103.07078 99.426756 L 103.008711 99.167774 L 102.336979 99.253183 L 102.079045 99.1416 L 102.084562 98.994201 L 102.276288 98.837158 L 102.673534 98.888128 L 103.079056 98.682871 L 103.473544 99.151243 Z M 100.070745 111.115389 L 99.702465 111.068552 L 99.550739 110.751712 L 100.062469 110.11941 L 100.248679 110.608446 Z M 133.585618 160.999749 L 133.45734 160.987351 L 133.454581 160.575459 L 133.620101 159.83433 L 133.820103 159.61943 Z M 100.240403 110.11941 L 100.0404 109.700631 L 100.227989 109.375526 L 100.447302 110.036756 Z M 102.131459 108.109544 L 102.145252 107.587447 L 102.462497 107.471732 L 102.57974 107.767908 L 102.376979 107.770663 Z M 93.084457 100.284978 L 93.01687 100.064568 L 93.190665 99.857934 L 93.451358 100.156865 Z M 93.084457 100.284978 " stroke="rgb(100%, 100%, 100%)" stroke-width="0.5" stroke-opacity="1" stroke-miterlimit="4"/></g></svg>