<svg xmlns="http://www.w3.org/2000/svg" xmlns:xlink="http://www.w3.org/1999/xlink" width="624" zoomAndPan="magnify" viewBox="0 0 468 308.250004" height="411" preserveAspectRatio="xMidYMid meet" version="1.0"><defs><clipPath id="id1"><path d="M 0.566406 0 L 467.429688 0 L 467.429688 307.5 L 0.566406 307.5 Z M 0.566406 0 " clip-rule="nonzero"/></clipPath><clipPath id="id2"><path d="M 387 108 L 467.429688 108 L 467.429688 240 L 387 240 Z M 387 108 " clip-rule="nonzero"/></clipPath><clipPath id="id3"><path d="M 186 196 L 348 196 L 348 275.121094 L 186 275.121094 Z M 186 196 " clip-rule="nonzero"/></clipPath><clipPath id="id4"><path d="M 295 32.710938 L 467.429688 32.710938 L 467.429688 188 L 295 188 Z M 295 32.710938 " clip-rule="nonzero"/></clipPath><clipPath id="id5"><path d="M 0.566406 155 L 58 155 L 58 239 L 0.566406 239 Z M 0.566406 155 " clip-rule="nonzero"/></clipPath></defs><g clip-path="url(#id1)"><path fill="rgb(100%, 100%, 100%)" d="M 0.566406 0 L 467.433594 0 L 467.433594 307.5 L 0.566406 307.5 Z M 0.566406 0 " fill-opacity="1" fill-rule="nonzero"/><path fill="rgb(100%, 100%, 100%)" d="M 0.566406 0 L 467.433594 0 L 467.433594 307.5 L 0.566406 307.5 Z M 0.566406 0 " fill-opacity="1" fill-rule="nonzero"/><path fill="rgb(100%, 100%, 100%)" d="M 0.566406 0 L 467.433594 0 L 467.433594 307.5 L 0.566406 307.5 Z M 0.566406 0 " fill-opacity="1" fill-rule="nonzero"/></g><path fill="rgb(17.248535%, 44.309998%, 94.119263%)" d="M 460.550781 117.351562 L 460.492188 124.84375 L 465.984375 127.054688 L 462.007812 130.335938 L 461.464844 138.882812 L 456.921875 140.378906 L 460.734375 144.867188 L 461.726562 153.824219 L 449.246094 155.601562 L 448.191406 152.699219 L 445.871094 156.101562 L 441.136719 156.214844 L 439.367188 151.632812 L 432.585938 149.113281 L 421.511719 157.65625 L 435.253906 161.441406 L 439.058594 168.867188 L 435.253906 172.414062 L 435.816406 176.320312 L 430.746094 180.660156 L 422.929688 180.605469 L 422.144531 185.496094 L 425.480469 191.902344 L 421.039062 198.546875 L 423.363281 204.121094 L 427.882812 205.519531 L 423.847656 208.410156 L 427.34375 211.621094 L 422.4375 214.066406 L 426.890625 216.496094 L 413.59375 215.46875 L 412.523438 219.972656 L 404 227.601562 L 395.910156 231.214844 L 405.457031 217.347656 L 401.402344 209.773438 L 403.007812 203.730469 L 397.9375 183.066406 L 406.214844 179.277344 L 412.921875 176.375 L 416.445312 171.039062 L 414.925781 166.574219 L 418.480469 159.59375 L 414.53125 155.722656 L 414.277344 147.070312 L 412.167969 146.324219 L 413.222656 144.703125 L 415.582031 146.691406 L 419.371094 141.847656 L 417.105469 139.78125 L 420.847656 138.410156 L 423.003906 133.625 L 427.269531 132.839844 L 430.914062 137.886719 L 438.101562 130.789062 L 438.613281 126.585938 L 445.9375 125.242188 L 449.660156 121.011719 L 455.046875 125.597656 L 457.144531 121.042969 L 454.714844 118.296875 L 458.359375 119.992188 L 460.296875 117.042969 Z M 460.550781 117.351562 " fill-opacity="1" fill-rule="nonzero"/><g clip-path="url(#id2)"><path stroke-linecap="butt" transform="matrix(2.8818, 0, 0, 2.885835, 0.57422, 32.712088)" fill="none" stroke-linejoin="miter" d="M 159.614352 29.32928 L 159.59402 31.925474 L 161.499838 32.691608 L 160.11995 33.828627 L 159.931537 36.790291 L 158.355102 37.308718 L 159.67806 38.863998 L 160.022354 41.967789 L 155.691564 42.583674 L 155.325582 41.577954 L 154.520421 42.756935 L 152.877567 42.796189 L 152.26353 41.208423 L 149.9104 40.335355 L 146.067586 43.295665 L 150.8362 44.607298 L 152.156447 47.18048 L 150.8362 48.409544 L 151.03139 49.763138 L 149.271964 51.266981 L 146.559629 51.248031 L 146.287176 52.942731 L 147.444764 55.162625 L 145.903572 57.465089 L 146.710089 59.396668 L 148.27839 59.881255 L 146.878169 60.882914 L 148.091333 61.995569 L 146.388837 62.842919 L 147.934096 63.684854 L 143.320008 63.328859 L 142.948604 64.889553 L 139.990925 67.533122 L 137.183706 68.785197 L 140.496523 63.979938 L 139.089525 61.355319 L 139.646631 59.261308 L 137.887205 52.100795 L 140.759488 50.787809 L 143.086864 49.782088 L 144.309516 47.933079 L 143.78223 46.385921 L 145.015726 43.967048 L 143.645326 42.625636 L 143.557219 39.627425 L 142.825255 39.368888 L 143.191237 38.807147 L 144.009953 39.496126 L 145.324778 37.817669 L 144.538594 37.101618 L 145.837153 36.626506 L 146.585383 34.968354 L 148.065578 34.696281 L 149.33025 36.445125 L 151.824352 33.985644 L 152.001921 32.529177 L 154.543464 32.06354 L 155.835246 30.597598 L 157.704467 32.186718 L 158.432365 30.608427 L 157.58925 29.65685 L 158.853922 30.24431 L 159.526245 29.222346 Z M 159.614352 29.32928 " stroke="rgb(100%, 100%, 100%)" stroke-width="0.5" stroke-opacity="1" stroke-miterlimit="4"/></g><path fill="rgb(17.248535%, 44.309998%, 94.119263%)" d="M 194.222656 207.707031 L 199.210938 205.074219 L 199.527344 207.554688 L 210.488281 209.496094 L 218.835938 215.09375 L 230.316406 212.445312 L 231.945312 208.332031 L 237.25 208.070312 L 239.382812 210.558594 L 257.109375 213.183594 L 262.5625 221.589844 L 266.535156 224.59375 L 271.460938 223.601562 L 276.539062 216.277344 L 287.847656 210.128906 L 289.6875 214.324219 L 297.679688 214.578125 L 299.707031 218.480469 L 304.300781 214.664062 L 312.582031 216.949219 L 326.363281 212.324219 L 337.40625 224.59375 L 334.304688 235.441406 L 337.519531 236.949219 L 337.121094 245.390625 L 339.765625 247.25 L 334.4375 251.542969 L 333.039062 249.285156 L 327.757812 251.542969 L 324.78125 259.765625 L 318.570312 260.390625 L 317.722656 263.679688 L 310.878906 266.722656 L 309.484375 271.632812 L 307.023438 267.136719 L 302.441406 267.355469 L 301.484375 265.226562 L 285.105469 266.277344 L 282.664062 262.558594 L 270.285156 258.671875 L 263.234375 260.027344 L 237.828125 253.78125 L 229.761719 256.175781 L 225.464844 252.9375 L 206.132812 251.300781 L 196.769531 246.765625 L 198.246094 239.679688 L 211.21875 237.484375 L 213.351562 234.890625 L 200.105469 220.109375 L 198.765625 217.046875 L 201.671875 213.054688 L 198.304688 212.714844 Z M 194.222656 207.707031 " fill-opacity="1" fill-rule="nonzero"/><g clip-path="url(#id3)"><path stroke-linecap="butt" transform="matrix(2.8818, 0, 0, 2.885835, 0.57422, 32.712088)" fill="none" stroke-linejoin="miter" d="M 67.197054 60.639267 L 68.928014 59.726945 L 69.037809 60.586477 L 72.841313 61.259213 L 75.737995 63.198914 L 79.72178 62.281177 L 80.287019 60.855842 L 82.127774 60.765152 L 82.867872 61.627391 L 89.019085 62.537006 L 90.911349 65.449941 L 92.289882 66.490855 L 93.999154 66.147042 L 95.761291 63.609053 L 99.685434 61.478496 L 100.32387 62.932256 L 103.097202 63.020239 L 103.800702 64.37248 L 105.394758 63.050019 L 108.268396 63.841871 L 113.050564 62.239216 L 116.882534 66.490855 L 115.806275 70.249786 L 116.921843 70.772273 L 116.783583 73.69739 L 117.70125 74.341701 L 115.852362 75.829301 L 115.367097 75.046924 L 113.534474 75.829301 L 112.501591 78.678617 L 110.346362 78.895192 L 110.052221 80.034918 L 107.677403 81.089368 L 107.193493 82.790836 L 106.339534 81.232849 L 104.749545 81.30865 L 104.417449 80.570942 L 98.733881 80.935058 L 97.886699 79.646437 L 93.591152 78.299611 L 91.144493 78.769308 L 82.328387 76.604911 L 79.5293 77.434664 L 78.038261 76.312534 L 71.329942 75.745378 L 68.080833 74.173856 L 68.593208 71.718436 L 73.09479 70.957716 L 73.834887 70.058929 L 69.238421 64.936929 L 68.773488 63.875711 L 69.781973 62.492338 L 68.61354 62.374575 Z M 67.197054 60.639267 " stroke="rgb(100%, 100%, 100%)" stroke-width="0.5" stroke-opacity="1" stroke-miterlimit="4"/></g><path fill="rgb(17.248535%, 44.309998%, 94.119263%)" d="M 337.890625 35.660156 L 345.257812 37.621094 L 345.515625 42.246094 L 351.59375 41.226562 L 352.636719 37.445312 L 364.0625 41.398438 L 377.40625 50.1875 L 386.359375 48.199219 L 401.703125 60.132812 L 418.890625 61.726562 L 423.09375 55.28125 L 428.585938 54.007812 L 435.984375 56.988281 L 437.105469 61.832031 L 450.34375 62.765625 L 453.410156 78.367188 L 447.316406 87.058594 L 446.285156 93.328125 L 453.71875 103.839844 L 454.773438 112.199219 L 460.3125 117.042969 L 458.375 119.992188 L 454.726562 118.296875 L 457.167969 121.042969 L 455.058594 125.597656 L 449.683594 121.011719 L 445.953125 125.242188 L 438.636719 126.578125 L 438.125 130.78125 L 430.9375 137.882812 L 427.289062 132.832031 L 423.027344 133.609375 L 420.878906 138.402344 L 417.125 139.773438 L 419.394531 141.84375 L 415.605469 146.6875 L 413.246094 144.703125 L 412.191406 146.324219 L 414.300781 147.0625 L 414.554688 155.722656 L 418.5 159.59375 L 414.949219 166.574219 L 416.464844 171.03125 L 412.9375 176.367188 L 406.238281 179.269531 L 402.699219 170.527344 L 399.375 173.535156 L 391.058594 169.523438 L 389.378906 165.953125 L 386.886719 166.363281 L 387.5625 161.667969 L 380.625 160.703125 L 379.160156 153.785156 L 376.625 154.726562 L 372.691406 150.101562 L 366.714844 150.480469 L 360.597656 147.09375 L 360.222656 144.445312 L 353.886719 144.023438 L 353.207031 146.640625 L 348.910156 146.226562 L 347.828125 149.90625 L 334.195312 150.667969 L 331.515625 153.597656 L 320.140625 150.292969 L 318.414062 141.101562 L 321.691406 139.089844 L 321.417969 136.5 L 319.492188 133.566406 L 305.878906 128.328125 L 303.152344 124.089844 L 305.09375 108.085938 L 310.34375 107.363281 L 317.34375 113.59375 L 325.855469 110.53125 L 328.824219 106.730469 L 334.472656 109.632812 L 335.199219 104.472656 L 334.878906 98.921875 L 332.300781 98.511719 L 333.617188 92.546875 L 330.761719 92.628906 L 332.195312 89.601562 L 327.757812 84.222656 L 331.109375 82.019531 L 317.246094 74.816406 L 324.328125 57.175781 L 334.574219 57.824219 L 334.5 38.796875 L 335.546875 35.597656 Z M 416.035156 102.210938 L 411.421875 106.011719 L 408.371094 104.132812 L 407.03125 112.355469 L 409.367188 116.589844 L 422.265625 116.980469 L 426.949219 113.453125 L 430.3125 115.4375 L 428.925781 104.15625 L 420.171875 99.175781 L 419.710938 99.011719 L 417.332031 102.210938 L 416.953125 101.652344 Z M 416.035156 102.210938 " fill-opacity="1" fill-rule="nonzero"/><g clip-path="url(#id4)"><path stroke-linecap="butt" transform="matrix(2.8818, 0, 0, 2.885835, 0.57422, 32.712088)" fill="none" stroke-linejoin="miter" d="M 117.050615 1.021565 L 119.607069 1.701069 L 119.696531 3.303725 L 121.805673 2.950437 L 122.167589 1.640158 L 126.132397 3.009995 L 130.76275 6.055582 L 133.869533 5.366602 L 139.193897 9.501833 L 145.158053 10.054099 L 146.61656 7.820669 L 148.522378 7.379397 L 151.089676 8.412189 L 151.478702 10.090646 L 156.072457 10.414155 L 157.136516 15.82041 L 155.021952 18.832157 L 154.664103 21.004676 L 157.2436 24.647198 L 157.609582 27.54389 L 159.531667 29.222346 L 158.859344 30.24431 L 157.593317 29.65685 L 158.440498 30.608427 L 157.708533 32.186718 L 155.843379 30.597598 L 154.548886 32.06354 L 152.010054 32.52647 L 151.832485 33.982937 L 149.338383 36.443771 L 148.072356 34.693574 L 146.593516 34.962939 L 145.847997 36.623799 L 144.545371 37.098911 L 145.332911 37.816316 L 144.018086 39.494773 L 143.19937 38.807147 L 142.833388 39.368888 L 143.565352 39.624718 L 143.653459 42.625636 L 145.022504 43.967048 L 143.790363 46.385921 L 144.316293 47.930372 L 143.092286 49.779381 L 140.767621 50.785102 L 139.539547 47.755758 L 138.386025 48.798025 L 135.500187 47.407884 L 134.917327 46.170699 L 134.052524 46.312826 L 134.287024 44.685806 L 131.879674 44.351468 L 131.371365 41.954253 L 130.491652 42.280469 L 129.126674 40.677814 L 127.052775 40.809113 L 124.930077 39.635546 L 124.79995 38.717809 L 122.601346 38.571621 L 122.365491 39.478529 L 120.874452 39.335048 L 120.498981 40.610134 L 115.768322 40.874085 L 114.838456 41.889281 L 110.891269 40.74414 L 110.292143 37.559133 L 111.429399 36.862032 L 111.334514 35.964599 L 110.666258 34.94805 L 105.942376 33.13288 L 104.996244 31.66423 L 105.669922 26.118555 L 107.4917 25.86814 L 109.920738 28.027123 L 112.874351 26.965905 L 113.904523 25.648858 L 115.864561 26.654578 L 116.116682 24.86648 L 116.005532 22.943023 L 115.110909 22.800895 L 115.567709 20.733957 L 114.576846 20.762383 L 115.074311 19.713347 L 113.534474 17.849448 L 114.697485 17.086021 L 109.886851 14.589993 L 112.344354 8.477162 L 115.899804 8.701858 L 115.87405 2.108501 L 116.237321 0.999908 Z M 144.16719 24.082749 L 142.566356 25.399796 L 141.507718 24.748718 L 141.042785 27.598033 L 141.853368 29.065329 L 146.329196 29.200689 L 147.954428 27.978393 L 149.121505 28.666019 L 148.640306 24.756839 L 145.602653 23.031007 L 145.442705 22.974156 L 144.617212 24.082749 L 144.48573 23.889185 Z M 144.16719 24.082749 " stroke="rgb(100%, 100%, 100%)" stroke-width="0.5" stroke-opacity="1" stroke-miterlimit="4"/></g><path stroke-linecap="butt" transform="matrix(2.8818, 0, 0, 2.885835, 0.57422, 32.712088)" fill-opacity="1" fill="rgb(17.248535%, 44.309998%, 94.119263%)" fill-rule="nonzero" stroke-linejoin="miter" d="M 92.266838 8.761417 L 96.692513 11.7867 L 95.665051 12.889879 L 96.844328 14.278667 L 101.123609 14.717231 L 102.443856 15.634968 L 103.532315 14.340932 L 104.43236 14.489827 L 105.264631 12.613746 L 105.945087 13.593748 L 107.170449 13.993058 L 108.214177 13.224217 L 109.894984 14.5927 L 114.705618 17.088728 L 113.542607 17.852155 L 115.082444 19.718762 L 114.584979 20.76509 L 115.575842 20.738018 L 115.117686 22.80631 L 116.013665 22.947084 L 116.127526 24.871895 L 115.871339 26.659993 L 113.912656 25.654272 L 112.882484 26.971319 L 109.92616 28.032537 L 107.498478 25.876261 L 105.675344 26.123969 L 105.001666 31.669645 L 105.945087 33.138294 L 110.670324 34.953464 L 111.338581 35.967306 L 111.43211 36.866093 L 110.294854 37.564547 L 110.891269 40.749554 L 109.946493 40.241957 L 106.457462 41.923121 L 106.311069 42.840857 L 101.984345 45.12031 L 100.799647 44.942989 L 100.304893 43.761301 L 96.509522 44.788679 L 96.596273 43.217157 L 95.639297 42.189779 L 90.81782 41.703838 L 89.07466 44.438099 L 89.039417 45.82824 L 90.33391 46.779816 L 89.661587 49.577696 L 86.789304 49.237943 L 84.520214 47.303657 L 85.471768 44.772436 L 84.663896 44.045556 L 85.93399 41.797236 L 83.70692 41.075771 L 84.255893 39.557038 L 85.359262 39.986127 L 85.57614 39.183446 L 82.716057 39.301209 L 80.535074 38.199383 L 80.38597 34.479706 L 82.012558 34.811337 L 82.25519 33.663489 L 80.77364 32.587381 L 77.630259 33.862467 L 75.563137 31.551882 L 73.162564 31.807711 L 71.641705 32.992106 L 69.505453 30.493371 L 69.531207 28.950274 L 75.000609 24.871895 L 81.536781 22.741337 L 83.72183 19.457518 L 83.72183 15.444111 L 85.184404 14.45328 L 89.83509 16.819363 L 91.74633 13.684439 L 92.044538 11.034101 L 91.149915 10.500785 Z M 92.266838 8.761417 " stroke="rgb(100%, 100%, 100%)" stroke-width="0.5" stroke-opacity="1" stroke-miterlimit="4"/><path stroke-linecap="butt" transform="matrix(2.8818, 0, 0, 2.885835, 0.57422, 32.712088)" fill-opacity="1" fill="rgb(17.248535%, 44.309998%, 94.119263%)" fill-rule="nonzero" stroke-linejoin="miter" d="M 110.891269 40.749554 L 114.838456 41.894695 L 115.772388 40.876792 L 120.498981 40.615549 L 120.874452 39.337756 L 122.368202 39.481237 L 122.601346 38.571621 L 124.802661 38.717809 L 124.932788 39.635546 L 127.055486 40.809113 L 129.126674 40.679167 L 130.491652 42.283177 L 131.371365 41.954253 L 131.879674 44.351468 L 134.287024 44.685806 L 134.052524 46.312826 L 134.917327 46.170699 L 135.500187 47.407884 L 138.386025 48.798025 L 139.539547 47.755758 L 140.759488 50.787809 L 137.887205 52.100795 L 139.646631 59.261308 L 139.089525 61.355319 L 140.496523 63.979938 L 137.183706 68.785197 L 136.942429 71.666999 L 137.941425 74.233414 L 133.907487 72.192194 L 128.791868 73.185732 L 126.835896 75.476013 L 124.988364 74.233414 L 117.70125 74.341701 L 116.783583 73.698744 L 116.921843 70.772273 L 115.806275 70.249786 L 116.882534 66.490855 L 113.050564 62.239216 L 108.268396 63.841871 L 105.396113 63.050019 L 103.800702 64.37248 L 103.098558 63.021593 L 100.32387 62.932256 L 99.685434 61.478496 L 95.761291 63.609053 L 93.999154 66.148396 L 92.289882 66.490855 L 90.911349 65.449941 L 93.511178 61.731618 L 92.929673 60.434875 L 95.319402 59.452165 L 93.311921 58.1473 L 91.754463 54.748425 L 89.416243 55.815058 L 87.239327 55.062459 L 86.331148 50.843306 L 86.789304 49.237943 L 89.662942 49.577696 L 90.33391 46.779816 L 89.039417 45.82824 L 89.07466 44.438099 L 90.81782 41.703838 L 95.639297 42.189779 L 96.596273 43.217157 L 96.509522 44.788679 L 100.304893 43.761301 L 100.799647 44.942989 L 101.984345 45.12031 L 106.311069 42.840857 L 106.457462 41.923121 L 109.946493 40.241957 Z M 110.891269 40.749554 " stroke="rgb(100%, 100%, 100%)" stroke-width="0.5" stroke-opacity="1" stroke-miterlimit="4"/><path stroke-linecap="butt" transform="matrix(2.8818, 0, 0, 2.885835, 0.57422, 32.712088)" fill-opacity="1" fill="rgb(17.248535%, 44.309998%, 94.119263%)" fill-rule="nonzero" stroke-linejoin="miter" d="M 71.641705 32.992106 L 73.162564 31.807711 L 75.563137 31.551882 L 77.631614 33.862467 L 80.77364 32.587381 L 82.25519 33.663489 L 82.012558 34.811337 L 80.38597 34.479706 L 80.535074 38.199383 L 82.716057 39.301209 L 85.57614 39.183446 L 85.359262 39.986127 L 84.255893 39.557038 L 83.70692 41.075771 L 85.93399 41.797236 L 84.663896 44.045556 L 85.471768 44.772436 L 84.520214 47.303657 L 86.789304 49.237943 L 86.331148 50.843306 L 87.239327 55.062459 L 89.416243 55.815058 L 91.754463 54.748425 L 93.311921 58.1473 L 95.319402 59.452165 L 92.929673 60.434875 L 93.511178 61.731618 L 90.911349 65.449941 L 89.019085 62.537006 L 82.867872 61.627391 L 82.127774 60.765152 L 80.287019 60.855842 L 79.723135 62.281177 L 75.737995 63.198914 L 72.841313 61.259213 L 69.037809 60.586477 L 68.928014 59.726945 L 67.197054 60.639267 L 63.979121 58.960811 L 62.000105 59.093463 L 58.611381 61.646341 L 56.485973 61.271396 L 55.35685 57.784537 L 55.950554 54.44522 L 63.476234 53.833396 L 64.221753 51.693363 L 65.722281 51.72991 L 66.898846 49.445043 L 68.261113 49.09717 L 66.841915 46.958491 L 67.579302 46.043461 L 65.677549 45.252962 L 65.677549 44.317629 L 66.313274 43.068261 L 70.034094 43.043897 L 69.536629 43.73423 L 70.904318 44.929453 L 69.989363 45.886444 L 70.32688 46.681004 L 74.622427 49.523552 L 75.546871 48.631533 L 76.244948 42.628343 L 74.916568 41.499446 L 72.640701 41.499446 L 74.637337 37.598387 Z M 71.641705 32.992106 " stroke="rgb(100%, 100%, 100%)" stroke-width="0.5" stroke-opacity="1" stroke-miterlimit="4"/><path stroke-linecap="butt" transform="matrix(2.8818, 0, 0, 2.885835, 0.57422, 32.712088)" fill-opacity="1" fill="rgb(17.248535%, 44.309998%, 94.119263%)" fill-rule="nonzero" stroke-linejoin="miter" d="M 58.611381 61.646341 L 61.99875 59.093463 L 63.979121 58.958103 L 67.197054 60.639267 L 68.61354 62.374575 L 69.781973 62.489631 L 68.773488 63.873004 L 69.238421 64.934222 L 73.834887 70.056222 L 73.092079 70.955009 L 68.590497 71.715729 L 68.078122 74.171148 L 65.440339 74.325458 L 62.330845 72.866284 L 61.068884 70.581417 L 59.580556 70.306637 L 60.067177 68.610583 L 59.430097 67.305719 L 58.146448 67.564255 L 56.635077 66.443479 L 57.165073 65.661102 L 56.171499 63.476401 Z M 58.811993 41.894695 L 59.079025 42.911244 L 62.84322 42.388757 L 64.069938 44.545032 L 65.677549 44.317629 L 65.674838 45.252962 L 67.575235 46.043461 L 66.84056 46.955784 L 68.258402 49.094463 L 66.896135 49.442336 L 65.71957 51.727203 L 64.219042 51.690656 L 63.476234 53.833396 L 55.949199 54.44522 L 55.35685 57.784537 L 56.485973 61.274103 L 48.386921 64.70005 L 45.704406 63.358638 L 43.991067 64.268253 L 42.799592 63.40466 L 41.225868 64.838116 L 39.466442 63.998888 L 36.229532 64.809691 L 34.791358 66.419114 L 34.52026 69.211579 L 33.204079 70.867025 L 27.117929 70.225421 L 27.832273 69.149314 L 25.805815 67.56967 L 23.322558 68.728346 L 21.746123 68.147654 L 22.135149 65.590715 L 20.026007 63.703805 L 18.517346 66.000854 L 16.961244 65.839776 L 16.749788 67.813316 L 14.948342 68.285721 L 13.90597 66.025219 L 15.218084 64.276375 L 14.663689 61.259213 L 16.299765 59.211225 L 16.496311 56.011329 L 15.651841 55.452294 L 18.801999 54.382955 L 21.008737 52.045298 L 21.836941 50.461593 L 21.056179 45.805229 L 21.946736 45.782218 L 21.414028 46.69454 L 22.833226 47.326669 L 23.847132 47.365923 L 24.39475 46.285755 L 28.127769 47.966919 L 30.407703 47.264403 L 31.032584 48.000758 L 30.020033 48.949628 L 31.402633 48.997004 L 32.268791 51.533639 L 35.173606 51.587783 L 37.055026 50.437228 L 38.0486 50.615902 L 37.439985 51.627037 L 38.371206 51.564772 L 39.818869 49.956702 L 41.578295 50.097476 L 40.794822 49.243358 L 41.823639 47.983162 L 44.74472 47.930372 L 46.082588 45.480366 L 50.425578 45.872908 L 53.848189 44.539618 L 57.89026 45.131139 L 57.0607 42.234447 L 58.997695 40.906571 Z M 58.811993 41.894695 " stroke="rgb(100%, 100%, 100%)" stroke-width="0.5" stroke-opacity="1" stroke-miterlimit="4"/><path fill="rgb(17.248535%, 44.309998%, 94.119263%)" d="M 22.980469 164.007812 L 23.769531 168.15625 L 27.289062 169.863281 L 33.050781 168.25 L 34.875 173.882812 L 40.269531 176.042969 L 40.789062 185.222656 L 45.882812 181.882812 L 49.144531 182.824219 L 45.6875 192.722656 L 48.113281 194.332031 L 47.546875 203.566406 L 42.832031 209.472656 L 44.429688 218.1875 L 40.644531 223.226562 L 43.652344 229.753906 L 41.234375 230.597656 L 36.035156 225.316406 L 27.542969 222.375 L 27.648438 214.792969 L 11.316406 211.238281 L 12.726562 205.109375 L 8.941406 201.316406 L 6.675781 192.683594 L 15.25 182.046875 L 14.34375 176.425781 L 10.578125 175.476562 L 4.898438 166.996094 L 18.773438 169.410156 Z M 22.980469 164.007812 " fill-opacity="1" fill-rule="nonzero"/><g clip-path="url(#id5)"><path stroke-linecap="butt" transform="matrix(2.8818, 0, 0, 2.885835, 0.57422, 32.712088)" fill="none" stroke-linejoin="miter" d="M 7.775089 45.496609 L 8.048898 46.934126 L 9.270195 47.525647 L 11.269542 46.966612 L 11.902556 48.918495 L 13.774487 49.667033 L 13.954767 52.847979 L 15.722326 51.690656 L 16.85416 52.016872 L 15.654552 55.44688 L 16.496311 56.004561 L 16.299765 59.204457 L 14.663689 61.251092 L 15.218084 64.27096 L 13.904614 66.017097 L 14.948342 68.278953 L 14.109293 68.571329 L 12.305136 66.74127 L 9.358301 65.722013 L 9.3949 63.094687 L 3.727596 61.862916 L 4.216928 59.739127 L 2.903459 58.424787 L 2.117275 55.433344 L 5.092575 51.747507 L 4.778101 49.799685 L 3.471409 49.470762 L 1.500527 46.532109 L 6.315227 47.36863 Z M 7.775089 45.496609 " stroke="rgb(100%, 100%, 100%)" stroke-width="0.5" stroke-opacity="1" stroke-miterlimit="4"/></g><path stroke-linecap="butt" transform="matrix(2.8818, 0, 0, 2.885835, 0.57422, 32.712088)" fill-opacity="1" fill="rgb(17.248535%, 44.309998%, 94.119263%)" fill-rule="nonzero" stroke-linejoin="miter" d="M 145.51048 23.01341 L 145.598587 23.033714 L 148.640306 24.759546 L 149.121505 28.667373 L 147.954428 27.979747 L 146.329196 29.203396 L 141.853368 29.068037 L 141.04143 27.598033 L 141.507718 24.748718 L 142.566356 25.399796 L 144.16719 24.082749 L 144.615857 24.085456 L 145.44135 22.97957 Z M 145.51048 23.01341 " stroke="rgb(100%, 100%, 100%)" stroke-width="0.5" stroke-opacity="1" stroke-miterlimit="4"/></svg>