<svg width="350" height="277" viewBox="0 0 350 277" fill="none" xmlns="http://www.w3.org/2000/svg">
<g filter="url(#filter0_d_1022_348337)">
<path d="M255.993 256.605H22.1854C17.678 256.605 14 254.674 14 252.263V95.1187C14 92.7277 17.642 90.7766 22.1854 90.7766H255.993C260.5 90.7766 264.178 92.7085 264.178 95.1187V252.283C264.178 254.674 260.536 256.605 255.993 256.605Z" fill="white" stroke="#2C71F0" stroke-width="1.02795"/>
</g>
<path d="M77.9633 229.336H79.004L79.5196 227.911H82.4729L82.9885 229.336H84.0573L81.6197 222.773H80.3915L77.9633 229.336ZM79.8384 227.002L80.9634 223.908H81.0291L82.1541 227.002H79.8384Z" fill="black"/>
<path d="M86.8786 229.458C87.8536 229.458 88.3318 228.83 88.463 228.642H88.5193V229.336H89.4849V222.304H88.5005V225.145H88.4349C88.2755 224.892 87.7692 224.311 86.8317 224.311C85.4629 224.311 84.4972 225.38 84.4972 226.898C84.4972 228.417 85.4723 229.458 86.8786 229.458ZM87.0192 228.567C86.1192 228.567 85.5004 227.911 85.5004 226.889C85.5004 225.905 86.1192 225.211 87.0098 225.211C87.8724 225.211 88.5286 225.83 88.5286 226.889C88.5286 227.817 87.9567 228.567 87.0192 228.567Z" fill="black"/>
<path d="M92.9396 229.458C93.9146 229.458 94.3928 228.83 94.524 228.642H94.5803V229.336H95.546V222.304H94.5615V225.145H94.4959C94.3365 224.892 93.8303 224.311 92.8927 224.311C91.5239 224.311 90.5583 225.38 90.5583 226.898C90.5583 228.417 91.5333 229.458 92.9396 229.458ZM93.0802 228.567C92.1802 228.567 91.5614 227.911 91.5614 226.889C91.5614 225.905 92.1802 225.211 93.0709 225.211C93.9334 225.211 94.5897 225.83 94.5897 226.889C94.5897 227.817 94.0178 228.567 93.0802 228.567Z" fill="black"/>
<path d="M101.546 229.336H102.361V228.502H101.696C101.18 228.502 100.983 228.22 100.983 227.752V225.239H102.408V224.433H100.983V223.045H100.055V224.123C100.055 224.32 99.9331 224.442 99.7644 224.442H99.1175V225.239H99.9988V227.78C99.9988 228.802 100.58 229.336 101.546 229.336Z" fill="black"/>
<path d="M105.817 229.458C107.317 229.458 108.405 228.352 108.405 226.889C108.405 225.426 107.336 224.311 105.827 224.311C104.317 224.311 103.23 225.417 103.23 226.889C103.23 228.361 104.308 229.458 105.817 229.458ZM105.817 228.567C104.898 228.567 104.233 227.864 104.233 226.889C104.233 225.923 104.889 225.211 105.817 225.211C106.745 225.211 107.402 225.914 107.402 226.889C107.402 227.855 106.745 228.567 105.817 228.567Z" fill="black"/>
<path d="M114.349 229.458C115.503 229.458 116.496 228.764 116.712 227.639H115.709C115.54 228.192 114.996 228.567 114.368 228.567C113.449 228.567 112.812 227.855 112.812 226.889C112.812 225.942 113.421 225.211 114.349 225.211C114.996 225.211 115.531 225.586 115.7 226.148H116.712C116.487 225.023 115.503 224.311 114.34 224.311C112.849 224.311 111.799 225.436 111.799 226.889C111.799 228.333 112.831 229.458 114.349 229.458Z" fill="black"/>
<path d="M120.155 229.458C121.655 229.458 122.743 228.352 122.743 226.889C122.743 225.426 121.674 224.311 120.164 224.311C118.655 224.311 117.567 225.417 117.567 226.889C117.567 228.361 118.646 229.458 120.155 229.458ZM120.155 228.567C119.236 228.567 118.571 227.864 118.571 226.889C118.571 225.923 119.227 225.211 120.155 225.211C121.083 225.211 121.739 225.914 121.739 226.889C121.739 227.855 121.083 228.567 120.155 228.567Z" fill="black"/>
<path d="M123.93 229.336H124.914V226.476C124.914 225.764 125.42 225.23 126.105 225.23C126.723 225.23 127.202 225.689 127.202 226.373V229.336H128.186V226.186C128.186 225.126 127.502 224.311 126.386 224.311C125.655 224.311 125.148 224.686 124.951 225.089H124.886V224.433H123.93V229.336Z" fill="black"/>
<path d="M131.631 229.336H132.447V228.502H131.781C131.266 228.502 131.069 228.22 131.069 227.752V225.239H132.494V224.433H131.069V223.045H130.14V224.123C130.14 224.32 130.019 224.442 129.85 224.442H129.203V225.239H130.084V227.78C130.084 228.802 130.665 229.336 131.631 229.336Z" fill="black"/>
<path d="M133.662 229.336H134.646V226.917C134.646 226.008 135.125 225.38 135.959 225.38H136.418V224.423H135.987C135.293 224.423 134.825 224.892 134.675 225.286H134.609V224.433H133.662V229.336Z" fill="black"/>
<path d="M139.414 229.458C140.389 229.458 140.867 228.83 140.998 228.642H141.054V229.336H142.02V224.433H141.036V225.145H140.97C140.811 224.892 140.304 224.311 139.367 224.311C137.998 224.311 137.032 225.38 137.032 226.898C137.032 228.417 138.007 229.458 139.414 229.458ZM139.554 228.567C138.654 228.567 138.035 227.911 138.035 226.889C138.035 225.905 138.654 225.211 139.545 225.211C140.407 225.211 141.064 225.83 141.064 226.889C141.064 227.817 140.492 228.567 139.554 228.567Z" fill="black"/>
<path d="M145.643 229.458C146.797 229.458 147.79 228.764 148.006 227.639H147.003C146.834 228.192 146.29 228.567 145.662 228.567C144.743 228.567 144.106 227.855 144.106 226.889C144.106 225.942 144.715 225.211 145.643 225.211C146.29 225.211 146.825 225.586 146.993 226.148H148.006C147.781 225.023 146.797 224.311 145.634 224.311C144.143 224.311 143.093 225.436 143.093 226.889C143.093 228.333 144.125 229.458 145.643 229.458Z" fill="black"/>
<path d="M151.233 229.336H152.049V228.502H151.383C150.868 228.502 150.671 228.22 150.671 227.752V225.239H152.096V224.433H150.671V223.045H149.743V224.123C149.743 224.32 149.621 224.442 149.452 224.442H148.805V225.239H149.686V227.78C149.686 228.802 150.268 229.336 151.233 229.336Z" fill="black"/>
<path d="M78.512 217.093H83.618C85.6085 217.093 87.4085 215.795 87.4085 213.545C87.4085 211.987 86.4393 211.121 85.6431 210.758V210.654C86.4739 210.152 87.0104 209.287 87.0104 208.196C87.0104 206.362 85.6431 204.977 83.2545 204.977H78.512V217.093ZM81.1256 209.841V207.21H82.9084C83.7565 207.21 84.3276 207.729 84.3276 208.473C84.3276 209.269 83.7911 209.841 82.891 209.841H81.1256ZM81.1256 214.791V211.814H82.8564C83.7392 211.814 84.5007 212.281 84.5007 213.268C84.5007 214.306 83.843 214.791 82.891 214.791H81.1256Z" fill="black"/>
<path d="M92.8128 217.318C94.3186 217.318 95.0802 216.47 95.3398 216.054H95.4783V217.093H98.1438V207.954H95.461V208.993H95.3225C95.011 208.508 94.1802 207.729 92.7436 207.729C90.2858 207.729 88.5896 209.702 88.5896 212.575C88.5896 215.449 90.3031 217.318 92.8128 217.318ZM93.4186 214.895C92.1551 214.895 91.307 213.943 91.307 212.523C91.307 211.121 92.1551 210.152 93.4013 210.152C94.6302 210.152 95.5129 211.07 95.5129 212.523C95.5129 213.874 94.6994 214.895 93.4186 214.895Z" fill="black"/>
<path d="M104.44 217.318C106.949 217.318 108.732 215.812 109.026 213.648H106.292C106.067 214.375 105.357 214.895 104.457 214.895C103.159 214.895 102.311 213.856 102.311 212.523C102.311 211.208 103.124 210.152 104.44 210.152C105.392 210.152 106.084 210.723 106.326 211.502H109.044C108.784 209.269 106.967 207.729 104.422 207.729C101.48 207.729 99.5932 209.823 99.5932 212.523C99.5932 215.206 101.497 217.318 104.44 217.318Z" fill="black"/>
<path d="M119.743 217.093L116.575 211.243L119.518 207.954H116.212L113.615 211.07H113.512V204.112H110.829V217.093H113.512V214.652L114.723 213.302L116.731 217.093H119.743Z" fill="black"/>
<path d="M124.603 221.299C127.874 221.299 129.38 219.378 129.38 216.989V207.954H126.697V208.993H126.559C126.282 208.543 125.434 207.729 123.945 207.729C121.609 207.729 119.826 209.546 119.826 212.472C119.826 215.414 121.643 217.197 124.014 217.197C125.468 217.197 126.265 216.383 126.576 215.933H126.715V216.989C126.715 218.408 126.005 219.135 124.603 219.135C123.426 219.135 122.837 218.616 122.716 217.924H120.259C120.345 219.672 121.764 221.299 124.603 221.299ZM124.655 214.774C123.391 214.774 122.543 213.891 122.543 212.472C122.543 211.07 123.391 210.152 124.638 210.152C125.866 210.152 126.749 211.018 126.749 212.472C126.749 213.822 125.936 214.774 124.655 214.774Z" fill="black"/>
<path d="M131.467 217.093H134.15V212.939C134.15 211.364 134.998 210.412 136.313 210.412H137.369V207.885H136.486C135.258 207.885 134.444 208.664 134.133 209.339H133.994V207.954H131.467V217.093Z" fill="black"/>
<path d="M143.25 217.318C146.192 217.318 148.183 215.224 148.183 212.523C148.183 209.823 146.192 207.729 143.267 207.729C140.307 207.729 138.334 209.823 138.334 212.523C138.334 215.224 140.325 217.318 143.25 217.318ZM143.25 214.895C141.986 214.895 141.052 213.925 141.052 212.523C141.052 211.139 141.986 210.152 143.25 210.152C144.531 210.152 145.465 211.139 145.465 212.523C145.465 213.908 144.531 214.895 143.25 214.895Z" fill="black"/>
<path d="M153.161 217.318C154.39 217.318 155.255 216.695 155.602 216.089H155.74V217.093H158.284V207.954H155.602V213.077C155.602 214.047 154.978 214.825 154.044 214.825C153.126 214.825 152.573 214.168 152.573 213.216V207.954H149.89V214.047C149.89 215.951 151.136 217.318 153.161 217.318Z" fill="black"/>
<path d="M160.388 217.093H163.07V211.97C163.07 211 163.694 210.221 164.628 210.221C165.546 210.221 166.099 210.896 166.099 211.831V217.093H168.782V211C168.782 209.096 167.536 207.729 165.511 207.729C164.282 207.729 163.417 208.335 163.053 208.958H162.915V207.954H160.388V217.093Z" fill="black"/>
<path d="M174.47 217.318C175.976 217.318 176.737 216.47 176.997 216.054H177.135V217.093H179.801V204.112H177.118V208.993H176.98C176.668 208.508 175.837 207.729 174.401 207.729C171.943 207.729 170.247 209.702 170.247 212.575C170.247 215.449 171.96 217.318 174.47 217.318ZM175.076 214.895C173.812 214.895 172.964 213.943 172.964 212.523C172.964 211.121 173.812 210.152 175.058 210.152C176.287 210.152 177.17 211.07 177.17 212.523C177.17 213.874 176.356 214.895 175.076 214.895Z" fill="black"/>
<path d="M192.151 217.318C195.405 217.318 197.777 215.31 198.296 212.645H195.301C194.851 213.804 193.709 214.687 192.151 214.687C190.057 214.687 188.62 213.147 188.62 211.035C188.62 208.958 190.057 207.383 192.151 207.383C193.709 207.383 194.869 208.283 195.198 209.477H198.175C197.655 206.812 195.44 204.752 192.151 204.752C188.378 204.752 185.782 207.469 185.782 211.035C185.782 214.618 188.361 217.318 192.151 217.318Z" fill="black"/>
<path d="M200.109 217.093H202.792V211.935C202.792 210.983 203.45 210.221 204.384 210.221C205.302 210.221 205.89 210.896 205.89 211.831V217.093H208.573V211C208.573 209.096 207.344 207.729 205.319 207.729C204.09 207.729 203.276 208.335 202.913 208.958H202.775V204.112H200.109V217.093Z" fill="black"/>
<path d="M214.674 217.318C217.149 217.318 218.811 216.089 219.226 214.168H216.803C216.544 214.739 215.834 215.258 214.778 215.258C213.515 215.258 212.667 214.427 212.58 213.268H219.313V212.489C219.313 209.945 217.738 207.729 214.726 207.729C211.94 207.729 210.036 209.719 210.036 212.575C210.036 215.327 212.026 217.318 214.674 217.318ZM212.632 211.485C212.753 210.585 213.584 209.771 214.726 209.771C215.921 209.771 216.717 210.516 216.821 211.485H212.632Z" fill="black"/>
<path d="M225.412 217.318C227.922 217.318 229.705 215.812 229.999 213.648H227.264C227.039 214.375 226.33 214.895 225.43 214.895C224.132 214.895 223.283 213.856 223.283 212.523C223.283 211.208 224.097 210.152 225.412 210.152C226.364 210.152 227.057 210.723 227.299 211.502H230.016C229.757 209.269 227.939 207.729 225.395 207.729C222.453 207.729 220.566 209.823 220.566 212.523C220.566 215.206 222.47 217.318 225.412 217.318Z" fill="black"/>
<path d="M240.715 217.093L237.548 211.243L240.49 207.954H237.185L234.588 211.07H234.484V204.112H231.802V217.093H234.484V214.652L235.696 213.302L237.704 217.093H240.715Z" fill="black"/>
<rect x="36.4811" y="205.031" width="24.1689" height="24.1689" rx="3.96651" stroke="#2C71F0" stroke-width="1.02795"/>
<path d="M58.636 247.398L46.4841 258.252V214.332L81.8942 241.449L66.0282 244.009L76.3411 264.995L69.0571 268.385L58.636 247.398Z" fill="black"/>
<path d="M47.205 215.774L80.1631 240.98L66.8934 243.143L64.9822 243.468L65.8476 245.199L75.4033 264.635L69.4175 267.411L59.7176 247.903L58.8882 246.208L57.4819 247.47L47.2411 256.629V215.774H47.205ZM45.7627 212.89V259.875L58.4195 248.588L68.7324 269.358L77.3505 265.356L67.1458 244.622L83.6969 241.917L45.7627 212.89Z" fill="white"/>
<path d="M169.844 183.352L159.335 172.843C158.987 172.494 158.464 172.494 158.116 172.843L157.187 173.772C156.838 174.12 156.838 174.642 157.187 174.991L167.696 185.5C168.044 185.848 168.567 185.848 168.915 185.5L169.844 184.571C170.163 184.252 170.163 183.7 169.844 183.352Z" fill="#2C71F0"/>
<path fill-rule="evenodd" clip-rule="evenodd" d="M153.064 162.072C149.522 162.072 146.648 164.946 146.648 168.488C146.648 172.03 149.522 174.904 153.064 174.904C156.606 174.904 159.48 172.03 159.48 168.488C159.48 164.946 156.606 162.072 153.064 162.072ZM143.948 168.488C143.948 163.466 148.042 159.372 153.064 159.372C158.086 159.372 162.179 163.466 162.179 168.488C162.179 173.51 158.086 177.603 153.064 177.603C148.013 177.603 143.948 173.539 143.948 168.488Z" fill="#2C71F0"/>
<path d="M153.064 158.502C151.09 158.502 149.145 159.082 147.52 160.185C145.865 161.289 144.588 162.827 143.833 164.656C143.078 166.485 142.875 168.488 143.252 170.433C143.63 172.378 144.559 174.149 145.952 175.543C147.345 176.936 149.116 177.894 151.061 178.3C153.006 178.707 155.01 178.504 156.838 177.749C158.667 176.994 160.235 175.746 161.338 174.091C162.441 172.465 163.051 170.52 163.051 168.546C163.051 167.24 162.819 165.933 162.325 164.714C161.832 163.495 161.106 162.392 160.177 161.434C159.248 160.505 158.145 159.75 156.926 159.257C155.677 158.763 154.371 158.502 153.064 158.502ZM156.78 175.31C155.648 175.949 154.371 176.268 153.064 176.268C151.003 176.268 149.058 175.455 147.607 174.004C146.155 172.552 145.313 170.607 145.313 168.575C145.313 167.646 145.488 166.717 145.807 165.846C146.475 164.192 147.694 162.798 149.262 161.927C150.829 161.056 152.658 160.766 154.4 161.085C156.171 161.405 157.767 162.334 158.929 163.698C160.09 165.063 160.758 166.775 160.787 168.575C160.787 169.94 160.409 171.304 159.712 172.494C159.016 173.685 157.971 174.643 156.78 175.31Z" fill="#2C71F0"/>
<path fill-rule="evenodd" clip-rule="evenodd" d="M119.592 142.419L119.621 142.39C119.621 142.361 119.65 142.332 119.679 142.274C119.737 142.158 119.824 142.013 119.94 141.809C120.173 141.403 120.55 140.793 121.015 140.097C121.973 138.674 123.395 136.845 125.253 135.103C128.969 131.678 134.282 128.833 141.191 130.604C145.342 131.765 148.913 134.203 151.264 137.513C153.616 140.793 154.632 144.741 154.138 148.631V148.661C154.051 149.502 153.935 150.402 153.761 151.302C153.732 151.389 153.732 151.476 153.732 151.535H155.067C153.732 151.535 153.732 151.535 153.732 151.535V151.564V151.622C153.732 151.651 153.732 151.709 153.732 151.796C153.732 151.912 153.761 152.086 153.79 152.289C153.848 152.696 153.993 153.247 154.313 153.799C154.632 154.38 155.125 154.96 155.88 155.367C156.635 155.773 157.564 155.918 158.638 155.773C159.364 155.686 159.886 155.018 159.799 154.263C159.712 153.538 159.044 153.015 158.29 153.102C157.651 153.189 157.303 153.073 157.099 152.957C156.896 152.841 156.751 152.696 156.635 152.493C156.519 152.26 156.432 152.028 156.403 151.796C156.374 151.709 156.374 151.651 156.374 151.593C156.548 150.664 156.664 149.735 156.751 148.922C157.332 144.335 156.112 139.748 153.384 135.916C150.655 132.084 146.532 129.297 141.829 127.991H141.8C133.701 125.901 127.459 129.326 123.337 133.129C121.276 135.016 119.737 137.048 118.692 138.587C118.17 139.371 117.792 140.009 117.502 140.474C117.357 140.706 117.27 140.88 117.212 141.026C117.183 141.084 117.154 141.142 117.125 141.171L117.096 141.229C117.096 141.229 117.096 141.229 118.257 141.809L117.096 141.229C116.776 141.896 117.037 142.709 117.705 143.029C118.46 143.348 119.244 143.087 119.592 142.419Z" fill="black"/>
<path d="M149.319 155.715C148.855 155.715 148.39 155.482 148.158 155.047C147.142 153.247 146.794 151.186 147.2 149.212C147.316 148.167 147.374 147.093 147.345 146.048C147.287 144.422 146.968 142.825 146.358 141.287C145.865 140.096 145.081 138.993 144.036 138.093C143.02 137.193 141.771 136.468 140.407 136.003C139.042 135.568 137.562 135.364 136.139 135.48C134.717 135.597 133.323 135.974 132.046 136.613C130.682 137.426 129.491 138.529 128.592 139.806C127.692 141.083 127.111 142.477 126.85 143.986C126.85 144.015 126.85 144.015 126.85 144.044C125.659 149.473 119.911 150.112 117.037 149.705C116.312 149.589 115.789 148.922 115.905 148.167C116.021 147.441 116.689 146.918 117.415 147.035C117.444 147.035 119.011 147.267 120.666 146.86C122.64 146.396 123.801 145.293 124.208 143.522C124.527 141.635 125.253 139.864 126.385 138.267C127.517 136.671 128.969 135.335 130.682 134.29C130.711 134.261 130.74 134.261 130.769 134.261C132.365 133.448 134.107 132.955 135.907 132.839C137.736 132.694 139.507 132.926 141.22 133.506C142.933 134.087 144.471 134.958 145.807 136.148C147.142 137.338 148.129 138.761 148.797 140.329C149.522 142.187 149.929 144.073 149.987 146.019C150.016 147.209 149.958 148.428 149.813 149.647C149.813 149.676 149.813 149.734 149.784 149.763C149.493 151.128 149.726 152.55 150.422 153.77C150.8 154.408 150.568 155.25 149.929 155.599C149.784 155.657 149.551 155.715 149.319 155.715Z" fill="black"/>
<path fill-rule="evenodd" clip-rule="evenodd" d="M135.617 140.851C134.775 141.171 134.021 141.664 133.44 142.303C132.859 142.913 132.482 143.638 132.279 144.393C132.134 146.077 131.64 147.703 130.827 149.183C129.985 150.693 128.795 152.028 127.373 153.102C125.95 154.176 124.295 154.96 122.524 155.396C120.754 155.831 118.925 155.947 117.096 155.715C116.37 155.628 115.848 154.931 115.935 154.205C116.022 153.48 116.718 152.957 117.444 153.044C118.925 153.247 120.405 153.16 121.857 152.783C123.279 152.435 124.615 151.796 125.747 150.954C126.879 150.112 127.808 149.038 128.476 147.877C129.143 146.687 129.521 145.409 129.608 144.103C129.608 144.016 129.637 143.958 129.637 143.871C129.956 142.593 130.566 141.432 131.466 140.474C132.366 139.516 133.498 138.761 134.775 138.297C134.833 138.268 134.862 138.268 134.92 138.239C136.082 137.948 137.301 137.919 138.462 138.152C139.623 138.384 140.756 138.848 141.714 139.545C142.672 140.242 143.455 141.142 143.978 142.158C144.501 143.203 144.762 144.335 144.733 145.496C144.617 148.312 143.92 151.099 142.643 153.654C142.643 153.683 142.614 153.712 142.584 153.77C142.526 153.857 142.468 154.002 142.381 154.176C142.207 154.496 141.946 154.96 141.568 155.512C140.814 156.586 139.623 158.037 137.823 159.547C134.224 162.537 128.243 165.702 118.663 166.718C117.938 166.805 117.27 166.253 117.183 165.527C117.096 164.802 117.647 164.134 118.373 164.047C127.46 163.089 132.946 160.128 136.111 157.486C137.707 156.151 138.723 154.902 139.362 154.002C139.681 153.538 139.885 153.189 140.001 152.928C140.059 152.812 140.117 152.725 140.146 152.667C140.146 152.638 140.175 152.638 140.175 152.638C140.175 152.638 140.175 152.638 140.175 152.609L135.617 140.851ZM140.175 152.638C140.204 152.609 140.204 152.58 140.204 152.551C141.307 150.315 141.917 147.906 142.033 145.438C142.062 144.742 141.888 144.045 141.568 143.406C141.249 142.767 140.756 142.187 140.117 141.722C139.478 141.258 138.752 140.939 137.94 140.793C137.156 140.648 136.372 140.648 135.588 140.822" fill="black"/>
<path fill-rule="evenodd" clip-rule="evenodd" d="M137.621 142.855C138.346 142.913 138.898 143.58 138.84 144.306C138.085 152.667 132.511 156.905 127.373 159.024C124.789 160.07 122.293 160.621 120.435 160.882C119.506 161.028 118.722 161.086 118.17 161.144C117.909 161.173 117.677 161.173 117.532 161.173C117.444 161.173 117.386 161.173 117.357 161.173H117.299H117.27C117.27 161.173 117.27 161.173 117.241 159.837L117.27 161.173C116.515 161.173 115.906 160.592 115.906 159.837C115.906 159.083 116.486 158.473 117.241 158.473H117.27C117.299 158.473 117.357 158.473 117.415 158.473C117.532 158.473 117.735 158.444 117.967 158.444C118.46 158.415 119.157 158.328 120.028 158.212C121.741 157.95 124.034 157.457 126.357 156.528C130.973 154.641 135.53 151.07 136.169 144.074C136.227 143.319 136.866 142.767 137.621 142.855Z" fill="black"/>
<path fill-rule="evenodd" clip-rule="evenodd" d="M138.027 165.759C138.201 166.485 137.766 167.211 137.04 167.385L120.899 171.449C120.174 171.623 119.448 171.188 119.274 170.462C119.099 169.736 119.535 169.011 120.261 168.836L136.402 164.772C137.098 164.598 137.824 165.033 138.027 165.759Z" fill="black"/>
<path fill-rule="evenodd" clip-rule="evenodd" d="M138.782 171.275C138.956 172.001 138.52 172.727 137.795 172.901L124.237 176.327C123.512 176.501 122.786 176.065 122.612 175.369C122.437 174.643 122.873 173.917 123.599 173.743L137.156 170.317C137.882 170.114 138.607 170.55 138.782 171.275Z" fill="black"/>
<path fill-rule="evenodd" clip-rule="evenodd" d="M131.176 179.81C135.733 178.968 140.436 179.113 144.907 180.216L145.546 177.604C140.698 176.413 135.617 176.268 130.682 177.168L128.36 177.604C127.634 177.749 127.14 178.445 127.286 179.171C127.431 179.897 128.127 180.391 128.853 180.245L131.176 179.81Z" fill="black"/>
<g filter="url(#filter1_d_1022_348337)">
<path d="M330.774 177.502H203.443C200.25 177.502 197.644 175.38 197.644 172.733V24.9621C197.644 22.3358 200.224 20.1926 203.443 20.1926H330.774C333.967 20.1926 336.573 22.3147 336.573 24.9621V172.754C336.573 175.38 333.967 177.502 330.774 177.502Z" fill="white" stroke="#2C71F0" stroke-width="1.02795"/>
</g>
<path d="M210.266 135.896H213.884C215.294 135.896 216.569 134.976 216.569 133.382C216.569 132.278 215.883 131.665 215.318 131.408V131.334C215.907 130.979 216.287 130.365 216.287 129.593C216.287 128.293 215.318 127.312 213.626 127.312H210.266V135.896ZM212.118 130.758V128.894H213.381C213.982 128.894 214.386 129.262 214.386 129.789C214.386 130.353 214.006 130.758 213.369 130.758H212.118ZM212.118 134.265V132.156H213.344C213.97 132.156 214.509 132.487 214.509 133.186C214.509 133.922 214.043 134.265 213.369 134.265H212.118Z" fill="black"/>
<path d="M220.398 136.055C221.465 136.055 222.005 135.454 222.189 135.16H222.287V135.896H224.175V129.421H222.274V130.157H222.176C221.956 129.814 221.367 129.262 220.349 129.262C218.608 129.262 217.406 130.66 217.406 132.695C217.406 134.731 218.62 136.055 220.398 136.055ZM220.827 134.339C219.932 134.339 219.331 133.664 219.331 132.659C219.331 131.665 219.932 130.979 220.815 130.979C221.686 130.979 222.311 131.628 222.311 132.659C222.311 133.615 221.735 134.339 220.827 134.339Z" fill="black"/>
<path d="M228.636 136.055C230.414 136.055 231.677 134.988 231.885 133.456H229.948C229.788 133.971 229.286 134.339 228.648 134.339C227.728 134.339 227.127 133.603 227.127 132.659C227.127 131.727 227.704 130.979 228.636 130.979C229.31 130.979 229.801 131.383 229.972 131.935H231.898C231.714 130.353 230.426 129.262 228.623 129.262C226.539 129.262 225.202 130.746 225.202 132.659C225.202 134.559 226.551 136.055 228.636 136.055Z" fill="black"/>
<path d="M239.478 135.896L237.234 131.751L239.319 129.421H236.976L235.137 131.628H235.063V126.699H233.163V135.896H235.063V134.167L235.922 133.21L237.344 135.896H239.478Z" fill="black"/>
<path d="M242.921 138.876C245.239 138.876 246.306 137.515 246.306 135.822V129.421H244.405V130.157H244.307C244.111 129.838 243.51 129.262 242.455 129.262C240.8 129.262 239.537 130.549 239.537 132.622C239.537 134.706 240.824 135.97 242.504 135.97C243.535 135.97 244.099 135.393 244.319 135.074H244.418V135.822C244.418 136.828 243.915 137.343 242.921 137.343C242.088 137.343 241.671 136.975 241.585 136.485H239.843C239.905 137.723 240.91 138.876 242.921 138.876ZM242.958 134.253C242.063 134.253 241.462 133.627 241.462 132.622C241.462 131.628 242.063 130.979 242.946 130.979C243.817 130.979 244.442 131.592 244.442 132.622C244.442 133.578 243.866 134.253 242.958 134.253Z" fill="black"/>
<path d="M247.785 135.896H249.685V132.953C249.685 131.837 250.286 131.162 251.218 131.162H251.966V129.372H251.341C250.47 129.372 249.894 129.924 249.673 130.402H249.575V129.421H247.785V135.896Z" fill="black"/>
<path d="M256.133 136.055C258.217 136.055 259.628 134.572 259.628 132.659C259.628 130.746 258.217 129.262 256.145 129.262C254.048 129.262 252.65 130.746 252.65 132.659C252.65 134.572 254.06 136.055 256.133 136.055ZM256.133 134.339C255.238 134.339 254.575 133.652 254.575 132.659C254.575 131.677 255.238 130.979 256.133 130.979C257.04 130.979 257.702 131.677 257.702 132.659C257.702 133.64 257.04 134.339 256.133 134.339Z" fill="black"/>
<path d="M263.155 136.055C264.026 136.055 264.639 135.614 264.884 135.185H264.982V135.896H266.785V129.421H264.884V133.051C264.884 133.738 264.442 134.29 263.78 134.29C263.13 134.29 262.738 133.824 262.738 133.149V129.421H260.837V133.738C260.837 135.087 261.72 136.055 263.155 136.055Z" fill="black"/>
<path d="M268.275 135.896H270.176V132.266C270.176 131.579 270.617 131.028 271.279 131.028C271.929 131.028 272.322 131.506 272.322 132.168V135.896H274.222V131.579C274.222 130.23 273.339 129.262 271.905 129.262C271.034 129.262 270.421 129.691 270.163 130.132H270.065V129.421H268.275V135.896Z" fill="black"/>
<path d="M278.252 136.055C279.319 136.055 279.859 135.454 280.042 135.16H280.141V135.896H282.029V126.699H280.128V130.157H280.03C279.809 129.814 279.221 129.262 278.203 129.262C276.462 129.262 275.26 130.66 275.26 132.695C275.26 134.731 276.474 136.055 278.252 136.055ZM278.681 134.339C277.786 134.339 277.185 133.664 277.185 132.659C277.185 131.665 277.786 130.979 278.669 130.979C279.54 130.979 280.165 131.628 280.165 132.659C280.165 133.615 279.589 134.339 278.681 134.339Z" fill="black"/>
<path d="M290.779 136.055C293.085 136.055 294.765 134.633 295.133 132.744H293.011C292.692 133.566 291.883 134.191 290.779 134.191C289.296 134.191 288.278 133.1 288.278 131.604C288.278 130.132 289.296 129.016 290.779 129.016C291.883 129.016 292.705 129.654 292.938 130.5H295.047C294.679 128.612 293.109 127.152 290.779 127.152C288.106 127.152 286.267 129.078 286.267 131.604C286.267 134.142 288.094 136.055 290.779 136.055Z" fill="black"/>
<path d="M296.417 135.896H298.318V132.242C298.318 131.567 298.784 131.028 299.446 131.028C300.096 131.028 300.513 131.506 300.513 132.168V135.896H302.414V131.579C302.414 130.23 301.543 129.262 300.109 129.262C299.238 129.262 298.662 129.691 298.404 130.132H298.306V126.699H296.417V135.896Z" fill="black"/>
<path d="M306.737 136.055C308.49 136.055 309.668 135.185 309.962 133.824H308.245C308.061 134.228 307.558 134.596 306.81 134.596C305.915 134.596 305.314 134.007 305.253 133.186H310.023V132.634C310.023 130.831 308.907 129.262 306.774 129.262C304.799 129.262 303.45 130.672 303.45 132.695C303.45 134.645 304.861 136.055 306.737 136.055ZM305.29 131.923C305.376 131.285 305.964 130.709 306.774 130.709C307.62 130.709 308.184 131.236 308.257 131.923H305.29Z" fill="black"/>
<path d="M314.345 136.055C316.123 136.055 317.386 134.988 317.594 133.456H315.657C315.498 133.971 314.995 134.339 314.357 134.339C313.437 134.339 312.836 133.603 312.836 132.659C312.836 131.727 313.413 130.979 314.345 130.979C315.019 130.979 315.51 131.383 315.681 131.935H317.607C317.423 130.353 316.135 129.262 314.333 129.262C312.248 129.262 310.911 130.746 310.911 132.659C310.911 134.559 312.26 136.055 314.345 136.055Z" fill="black"/>
<path d="M325.187 135.896L322.943 131.751L325.028 129.421H322.685L320.846 131.628H320.772V126.699H318.872V135.896H320.772V134.167L321.631 133.21L323.053 135.896H325.187Z" fill="black"/>
<path d="M240.06 151.055C241.839 151.055 243.102 149.988 243.31 148.456H241.373C241.213 148.971 240.71 149.339 240.073 149.339C239.153 149.339 238.552 148.603 238.552 147.659C238.552 146.727 239.128 145.979 240.06 145.979C240.735 145.979 241.225 146.383 241.397 146.935H243.322C243.138 145.353 241.851 144.262 240.048 144.262C237.963 144.262 236.627 145.746 236.627 147.659C236.627 149.559 237.976 151.055 240.06 151.055Z" fill="black"/>
<path d="M247.702 151.055C249.787 151.055 251.197 149.572 251.197 147.659C251.197 145.746 249.787 144.262 247.714 144.262C245.617 144.262 244.219 145.746 244.219 147.659C244.219 149.572 245.63 151.055 247.702 151.055ZM247.702 149.339C246.807 149.339 246.145 148.652 246.145 147.659C246.145 146.677 246.807 145.979 247.702 145.979C248.609 145.979 249.272 146.677 249.272 147.659C249.272 148.64 248.609 149.339 247.702 149.339Z" fill="black"/>
<path d="M252.443 150.896H254.344V147.254C254.344 146.555 254.761 146.028 255.386 146.028C256.036 146.028 256.392 146.494 256.392 147.156V150.896H258.293V147.266C258.293 146.543 258.71 146.028 259.335 146.028C259.997 146.028 260.316 146.494 260.316 147.205V150.896H262.217V146.543C262.217 145.194 261.272 144.262 259.862 144.262C259.053 144.262 258.44 144.544 257.986 145.145H257.9C257.508 144.593 256.87 144.262 256.024 144.262C255.166 144.262 254.601 144.691 254.332 145.12H254.234V144.421H252.443V150.896Z" fill="black"/>
<path d="M263.628 153.716H265.529V150.16H265.627C265.836 150.516 266.4 151.055 267.454 151.055C269.196 151.055 270.385 149.657 270.385 147.622C270.385 145.586 269.171 144.262 267.405 144.262C266.326 144.262 265.787 144.85 265.603 145.145H265.505V144.421H263.628V153.716ZM266.976 149.339C266.105 149.339 265.492 148.689 265.492 147.659C265.492 146.69 266.069 145.979 266.976 145.979C267.859 145.979 268.46 146.641 268.46 147.659C268.46 148.652 267.859 149.339 266.976 149.339Z" fill="black"/>
<path d="M273.556 150.896H274.206V149.228H273.973C273.629 149.228 273.433 149.032 273.433 148.64V141.699H271.532V148.86C271.532 150.123 272.256 150.896 273.556 150.896Z" fill="black"/>
<path d="M278.259 151.055C280.013 151.055 281.19 150.185 281.484 148.824H279.767C279.583 149.228 279.081 149.596 278.333 149.596C277.437 149.596 276.836 149.007 276.775 148.186H281.545V147.634C281.545 145.831 280.43 144.262 278.296 144.262C276.321 144.262 274.973 145.672 274.973 147.695C274.973 149.645 276.383 151.055 278.259 151.055ZM276.812 146.923C276.898 146.285 277.486 145.709 278.296 145.709C279.142 145.709 279.706 146.236 279.78 146.923H276.812Z" fill="black"/>
<path d="M285.744 150.896H287.056V149.326H286.223C285.658 149.326 285.389 149.032 285.389 148.554V145.905H287.081V144.421H285.389V142.668H283.586V143.857C283.586 144.2 283.402 144.433 283.059 144.433H282.446V145.905H283.488V148.652C283.488 150.074 284.334 150.896 285.744 150.896Z" fill="black"/>
<path d="M291.169 151.055C292.922 151.055 294.099 150.185 294.394 148.824H292.677C292.493 149.228 291.99 149.596 291.242 149.596C290.347 149.596 289.746 149.007 289.685 148.186H294.455V147.634C294.455 145.831 293.339 144.262 291.205 144.262C289.231 144.262 287.882 145.672 287.882 147.695C287.882 149.645 289.292 151.055 291.169 151.055ZM289.722 146.923C289.807 146.285 290.396 145.709 291.205 145.709C292.052 145.709 292.616 146.236 292.689 146.923H289.722Z" fill="black"/>
<path d="M296.201 148.333H297.305L297.722 145.525V142.312H295.784V145.525L296.201 148.333ZM296.741 151.055C297.366 151.055 297.783 150.638 297.783 150.038C297.783 149.461 297.366 149.02 296.741 149.02C296.165 149.02 295.699 149.461 295.699 150.038C295.699 150.638 296.165 151.055 296.741 151.055Z" fill="black"/>
<path d="M268.333 101.015C281.413 101.015 292.016 90.4122 292.016 77.3325C292.016 64.2528 281.413 53.6497 268.333 53.6497C255.254 53.6497 244.651 64.2528 244.651 77.3325C244.651 90.4122 255.254 101.015 268.333 101.015Z" fill="#2AE21D"/>
<path d="M271.271 45.4485H264.936V50.3792H271.271V45.4485Z" fill="black"/>
<path d="M295.746 56.1785L293.217 53.6492C292.834 53.266 292.195 53.266 291.812 53.6492L287.673 57.788C287.29 58.1712 287.29 58.8099 287.673 59.1931L290.202 61.7224C290.585 62.1056 291.224 62.1056 291.607 61.7224L295.746 57.5836C296.155 57.2004 296.155 56.5617 295.746 56.1785Z" fill="black"/>
<path d="M243.22 53.6493L240.691 56.1786C240.307 56.5618 240.307 57.2005 240.691 57.5837L244.829 61.7225C245.212 62.1057 245.851 62.1057 246.234 61.7225L248.764 59.1932C249.147 58.81 249.147 58.1713 248.764 57.7881L244.625 53.6493C244.242 53.2406 243.628 53.2406 243.22 53.6493Z" fill="black"/>
<path d="M272.575 40.7988H263.633C263.071 40.7988 262.637 41.2587 262.637 41.7952V44.7332C262.637 45.2952 263.096 45.7296 263.633 45.7296H272.6C273.162 45.7296 273.597 45.2697 273.597 44.7332V41.7952C273.597 41.2587 273.137 40.7988 272.575 40.7988Z" fill="black"/>
<path d="M264.322 41.6165V44.9888" stroke="white" stroke-width="1.02795" stroke-linecap="round"/>
<path d="M266.341 41.6165V44.9888" stroke="white" stroke-width="1.02795" stroke-linecap="round"/>
<path d="M268.334 41.6165V44.9888" stroke="white" stroke-width="1.02795" stroke-linecap="round"/>
<path d="M270.352 41.6165V44.9888" stroke="white" stroke-width="1.02795" stroke-linecap="round"/>
<path d="M272.345 41.6165V44.9888" stroke="white" stroke-width="1.02795" stroke-linecap="round"/>
<path d="M268.512 106.687C252.493 106.687 239.464 93.6577 239.464 77.6392C239.464 61.6207 252.493 48.5913 268.512 48.5913C284.53 48.5913 297.559 61.6207 297.559 77.6392C297.559 93.6577 284.53 106.687 268.512 106.687ZM268.512 54.2629C255.61 54.2629 245.135 64.7375 245.135 77.6392C245.135 90.5409 255.61 101.015 268.512 101.015C281.413 101.015 291.888 90.5409 291.888 77.6392C291.888 64.7375 281.388 54.2629 268.512 54.2629Z" fill="#2C71F0" stroke="black" stroke-width="1.02795"/>
<path d="M276.841 67.9053L265.421 79.6062L261.232 75.5696L257.118 79.8106L265.524 87.9603L281.082 72.0185L276.841 67.9053Z" fill="white"/>
<path d="M75.7032 98.3748L79.7695 103.039L123.507 64.9116L119.441 60.2471L75.7032 98.3748Z" fill="#D1D3D5" stroke="black" stroke-width="1.02795"/>
<path d="M120.079 62.2308L114.941 72.3252L122.747 65.4032L121.421 63.8827L120.079 62.2308Z" fill="black"/>
<path d="M62.9526 113.049L63.1983 113.332C64.8684 115.246 67.7797 115.446 69.6955 113.777L114.564 74.7029L108.266 67.4839L63.3982 106.558C61.4824 108.227 61.2825 111.135 62.9526 113.049Z" fill="white" stroke="black" stroke-width="1.02795"/>
<path d="M174.751 67.4238C190.496 53.6963 192.138 29.72 178.414 13.9719C164.69 -1.77302 140.71 -3.41541 124.965 10.3089C109.22 24.0363 107.578 48.0126 121.302 63.7575C135.026 79.5024 159.006 81.1448 174.751 67.4205V67.4238ZM123.223 62.0052C110.378 47.2722 111.91 24.9125 126.646 12.0676C141.383 -0.777248 163.739 0.755202 176.587 15.4914C189.432 30.2244 187.9 52.5841 173.163 65.429C158.427 78.2738 136.071 76.7414 123.223 62.0052Z" fill="black" stroke="black" stroke-width="1.02795"/>
<path opacity="0.43" d="M123.122 62.1727C110.271 47.4301 111.81 24.983 126.552 12.1349C141.292 -0.716419 163.739 0.822522 176.59 15.562C189.441 30.3014 187.902 52.7516 173.16 65.5997C158.42 78.4479 135.973 76.9122 123.122 62.1727Z" fill="white" stroke="black" stroke-width="1.02795"/>
<defs>
<filter id="filter0_d_1022_348337" x="0.504727" y="79.0844" width="282.217" height="197.868" filterUnits="userSpaceOnUse" color-interpolation-filters="sRGB">
<feFlood flood-opacity="0" result="BackgroundImageFix"/>
<feColorMatrix in="SourceAlpha" type="matrix" values="0 0 0 0 0 0 0 0 0 0 0 0 0 0 0 0 0 0 127 0" result="hardAlpha"/>
<feOffset dx="2.52414" dy="4.3271"/>
<feGaussianBlur stdDeviation="7.75272"/>
<feComposite in2="hardAlpha" operator="out"/>
<feColorMatrix type="matrix" values="0 0 0 0 0 0 0 0 0 0 0 0 0 0 0 0 0 0 0.25 0"/>
<feBlend mode="normal" in2="BackgroundImageFix" result="effect1_dropShadow_1022_348337"/>
<feBlend mode="normal" in="SourceGraphic" in2="effect1_dropShadow_1022_348337" result="shape"/>
</filter>
<filter id="filter1_d_1022_348337" x="187.933" y="11.7589" width="161.928" height="180.309" filterUnits="userSpaceOnUse" color-interpolation-filters="sRGB">
<feFlood flood-opacity="0" result="BackgroundImageFix"/>
<feColorMatrix in="SourceAlpha" type="matrix" values="0 0 0 0 0 0 0 0 0 0 0 0 0 0 0 0 0 0 127 0" result="hardAlpha"/>
<feOffset dx="1.78835" dy="3.06574"/>
<feGaussianBlur stdDeviation="5.49279"/>
<feComposite in2="hardAlpha" operator="out"/>
<feColorMatrix type="matrix" values="0 0 0 0 0 0 0 0 0 0 0 0 0 0 0 0 0 0 0.25 0"/>
<feBlend mode="normal" in2="BackgroundImageFix" result="effect1_dropShadow_1022_348337"/>
<feBlend mode="normal" in="SourceGraphic" in2="effect1_dropShadow_1022_348337" result="shape"/>
</filter>
</defs>
</svg>
