<svg xmlns="http://www.w3.org/2000/svg" xmlns:xlink="http://www.w3.org/1999/xlink" width="624" zoomAndPan="magnify" viewBox="0 0 468 308.250004" height="411" preserveAspectRatio="xMidYMid meet" version="1.0"><defs><clipPath id="id1"><path d="M 0.566406 0 L 467.429688 0 L 467.429688 307.5 L 0.566406 307.5 Z M 0.566406 0 " clip-rule="nonzero"/></clipPath><clipPath id="id2"><path d="M 56.089844 171 L 226 171 L 226 298 L 56.089844 298 Z M 56.089844 171 " clip-rule="nonzero"/></clipPath><clipPath id="id3"><path d="M 200 174 L 380 174 L 380 307.5 L 200 307.5 Z M 200 174 " clip-rule="nonzero"/></clipPath><clipPath id="id4"><path d="M 230 105 L 412.222656 105 L 412.222656 229 L 230 229 Z M 230 105 " clip-rule="nonzero"/></clipPath></defs><g clip-path="url(#id1)"><path fill="rgb(100%, 100%, 100%)" d="M 0.566406 0 L 467.433594 0 L 467.433594 307.5 L 0.566406 307.5 Z M 0.566406 0 " fill-opacity="1" fill-rule="nonzero"/><path fill="rgb(100%, 100%, 100%)" d="M 0.566406 0 L 467.433594 0 L 467.433594 307.5 L 0.566406 307.5 Z M 0.566406 0 " fill-opacity="1" fill-rule="nonzero"/><path fill="rgb(100%, 100%, 100%)" d="M 0.566406 0 L 467.433594 0 L 467.433594 307.5 L 0.566406 307.5 Z M 0.566406 0 " fill-opacity="1" fill-rule="nonzero"/></g><path fill="rgb(17.248535%, 44.309998%, 94.119263%)" d="M 84.992188 215.472656 L 90.789062 215.019531 L 90.84375 214.3125 L 91.972656 213.945312 L 93.4375 214.730469 L 93.320312 216.230469 L 95.324219 216.910156 L 95.382812 216.449219 L 95.800781 217.65625 L 96.148438 216.453125 L 97.039062 215.867188 L 97.503906 216.121094 L 97.183594 217 L 97.796875 216.308594 L 99.707031 217.320312 L 101.695312 216.164062 L 102.257812 216.304688 L 102.246094 217.5 L 106.683594 217.40625 L 108.238281 216.550781 L 108.628906 217.019531 L 108.136719 214.628906 L 109.511719 211.214844 L 108.652344 211.410156 L 109.117188 211.003906 L 108.390625 210.253906 L 109.691406 208.222656 L 111.152344 207.761719 L 109.726562 206.675781 L 109.878906 205.929688 L 113.355469 202.882812 L 114.109375 202.964844 L 113.867188 205.105469 L 115.011719 205.601562 L 116.253906 205.054688 L 116.917969 205.773438 L 117.929688 204.652344 L 118.546875 205.621094 L 120.675781 205.429688 L 121.429688 204.558594 L 122.648438 204.753906 L 123.703125 206.6875 L 123.101562 207.402344 L 124.574219 209.011719 L 125.90625 206.613281 L 126.527344 206.828125 L 126.023438 210.3125 L 126.402344 212.144531 L 127.289062 211 L 128.238281 211.652344 L 129.179688 210.363281 L 131.441406 211.742188 L 132.121094 209.90625 L 134.085938 209.074219 L 134.5625 211.410156 L 135.929688 211.929688 L 137.019531 210.578125 L 136.769531 209.921875 L 135.515625 210.050781 L 135.261719 208.765625 L 136.488281 207.675781 L 135.335938 205.632812 L 137.398438 205.980469 L 139.578125 205.527344 L 139.460938 203.550781 L 140.398438 202.117188 L 142.988281 200.871094 L 143.828125 199.558594 L 145.664062 199.15625 L 145.511719 198.367188 L 146.257812 197.480469 L 145.074219 195.816406 L 145.871094 195.605469 L 146.441406 193.933594 L 145.976562 193.933594 L 146.160156 192.144531 L 144.746094 190.792969 L 145.585938 190.046875 L 145.664062 188.777344 L 146.355469 188.773438 L 145.703125 187.464844 L 146.527344 185.539062 L 146.027344 184.535156 L 147.539062 184.285156 L 148.320312 181.195312 L 148.0625 179.519531 L 148.59375 179.625 L 149.632812 177.882812 L 153.152344 178.796875 L 154.171875 178.113281 L 155.511719 178.578125 L 156.085938 177.59375 L 157.480469 177.457031 L 157.316406 178.152344 L 159.878906 178.34375 L 159.882812 178.984375 L 161.269531 178.984375 L 162.289062 179.960938 L 163.828125 178.699219 L 164.152344 179.824219 L 165.386719 179.054688 L 166.355469 179.558594 L 171.402344 179.582031 L 172.042969 180.761719 L 173.789062 180.015625 L 174.574219 182.664062 L 175.273438 182.777344 L 174.730469 186.378906 L 173.203125 186.433594 L 173.144531 187.5625 L 171.738281 188.390625 L 171.96875 189.117188 L 170.574219 189.476562 L 170.96875 190.855469 L 172.378906 191.375 L 172.875 192.847656 L 173.691406 192.695312 L 174.414062 194.335938 L 175.515625 195.085938 L 177.792969 195.046875 L 178.226562 196.960938 L 179.257812 197.03125 L 179.855469 199.167969 L 177.808594 198.859375 L 177.21875 199.730469 L 177.417969 202.117188 L 175.996094 201.96875 L 174.925781 202.71875 L 175.550781 205.46875 L 177.386719 207.789062 L 174.699219 210.484375 L 174.828125 212.308594 L 176.839844 213.46875 L 176.894531 214.136719 L 179.292969 210.660156 L 179.753906 212.375 L 180.882812 211.785156 L 182.003906 208.746094 L 183.421875 210.472656 L 184.832031 210.359375 L 185.695312 211.710938 L 186.703125 211.980469 L 186.5 211.414062 L 188.019531 211.300781 L 188.425781 214.519531 L 189.769531 216.269531 L 192.28125 215.921875 L 192.976562 216.949219 L 195.648438 218.277344 L 197.613281 215.578125 L 198.445312 217.757812 L 198.117188 219.339844 L 199.101562 219.792969 L 199.519531 221.582031 L 198.007812 222.046875 L 198.40625 225.410156 L 197.375 225.425781 L 197.421875 226.632812 L 198.523438 227.191406 L 198.660156 228.863281 L 199.253906 228.917969 L 199.34375 233.085938 L 201.761719 233.1875 L 202.128906 235.390625 L 203.136719 235.289062 L 203.300781 237.332031 L 205.601562 237.292969 L 205.664062 238.484375 L 207.359375 238.949219 L 206.757812 240.964844 L 207.003906 243.136719 L 210.933594 243.097656 L 210.976562 244.078125 L 212.253906 245.128906 L 214.4375 245.226562 L 215.304688 246.433594 L 216.8125 246.875 L 217.71875 249.808594 L 216.515625 251.28125 L 217.296875 252.441406 L 216.148438 255.546875 L 216.316406 258.410156 L 218.125 258.675781 L 218.453125 260.34375 L 219.710938 260.34375 L 219.753906 261.832031 L 216.164062 265.394531 L 217.019531 268.410156 L 215.648438 270.851562 L 217.875 273.441406 L 216.949219 275.679688 L 217.617188 276.941406 L 216.617188 278.210938 L 215.777344 278.070312 L 215.304688 278.699219 L 215.085938 281.832031 L 216.1875 283.761719 L 216.003906 285.476562 L 216.550781 285.449219 L 215.707031 286.632812 L 214.78125 286.101562 L 214.929688 284.929688 L 214.242188 285.402344 L 213.820312 284.65625 L 212.863281 285.605469 L 210.480469 284.863281 L 209.746094 285.558594 L 206.1875 285.710938 L 207.273438 282.699219 L 206.398438 281.945312 L 204.894531 282.109375 L 204.636719 275.671875 L 196.996094 275.964844 L 195.320312 277.941406 L 191.625 276.125 L 189.671875 276.65625 L 188.171875 275.472656 L 188.0625 273.921875 L 185.878906 272.640625 L 182.277344 272.402344 L 180.449219 274.25 L 177.847656 274.152344 L 177.730469 273.339844 L 176.796875 273.101562 L 176.019531 271.910156 L 175.121094 272.035156 L 175.011719 269.644531 L 173.988281 270.363281 L 168.742188 269.828125 L 166.375 270.238281 L 166.289062 269.445312 L 165.703125 269.550781 L 164.003906 267.5625 L 160.910156 266.261719 L 157.722656 267.316406 L 154.234375 266.734375 L 154.136719 265.632812 L 152.496094 265.210938 L 152.074219 265.351562 L 152.558594 266.871094 L 146.148438 266.851562 L 143.375 265.847656 L 142.769531 266.886719 L 141.816406 266.394531 L 141.421875 267.027344 L 139.058594 267.027344 L 136.328125 266.089844 L 133.535156 264.183594 L 132.359375 264.652344 L 131.050781 264.117188 L 129.039062 265.152344 L 127.441406 265.160156 L 122.640625 268.378906 L 121.417969 268.386719 L 120.949219 267.542969 L 118.207031 268.375 L 117.503906 267.429688 L 115.050781 269.175781 L 113.539062 268.40625 L 111.90625 268.628906 L 110.339844 268.042969 L 104.738281 269.261719 L 101.4375 269.226562 L 99.652344 270.550781 L 99.820312 271.210938 L 98.082031 273.957031 L 98.910156 277.058594 L 97.183594 278.964844 L 91.734375 281.960938 L 90.054688 284.636719 L 87.167969 286.980469 L 84.453125 285.941406 L 82.941406 286.367188 L 82.839844 285.371094 L 84.0625 283.976562 L 80.957031 283.132812 L 79.671875 283.527344 L 79.253906 281.902344 L 76.628906 282.902344 L 75.476562 282.679688 L 72.90625 284.410156 L 73.808594 286.25 L 74.957031 286.90625 L 73.976562 288.667969 L 75.429688 291.378906 L 73.441406 291.46875 L 72.953125 290.042969 L 71.300781 289.632812 L 71.75 288.339844 L 70.398438 285.683594 L 70.304688 283.253906 L 71.082031 280.042969 L 69.941406 278.242188 L 71.09375 276.355469 L 72.085938 276.496094 L 73.683594 275.273438 L 74.046875 274.046875 L 72.640625 271.667969 L 72.8125 269.554688 L 73.710938 269.785156 L 73.386719 269.035156 L 73.972656 268.601562 L 73.023438 267.164062 L 74.234375 266.203125 L 74.046875 265.269531 L 73.539062 265.261719 L 75.148438 264.417969 L 74.976562 263.601562 L 75.808594 262.730469 L 74.121094 258.78125 L 74.578125 258.675781 L 74.484375 257.449219 L 73.191406 256.734375 L 73.328125 255.894531 L 72.519531 255.253906 L 71.039062 255.171875 L 70.691406 255.671875 L 69.371094 253.433594 L 68.457031 253.152344 L 68.960938 251.558594 L 67.695312 251.851562 L 67.347656 251.226562 L 66.15625 251.96875 L 65.832031 251.386719 L 65.261719 251.667969 L 65.054688 250.296875 L 64.328125 250.605469 L 63.976562 249.875 L 62 249.796875 L 61.667969 249.027344 L 60.324219 249.449219 L 58.136719 248.761719 L 58.070312 245.832031 L 57.1875 245.328125 L 62.195312 236.511719 L 66.066406 231.125 L 68.078125 229.101562 L 71.972656 226.820312 L 76.675781 225.550781 L 77.511719 226.011719 L 83.28125 221.640625 L 84.964844 219.652344 Z M 84.992188 215.472656 " fill-opacity="1" fill-rule="nonzero"/><g clip-path="url(#id2)"><path stroke-linecap="butt" transform="matrix(2.198355, 0, 0, 2.196406, 56.088227, 0.0024635)" fill="none" stroke-linejoin="miter" d="M 13.147994 98.101238 L 15.784908 97.894935 L 15.809785 97.573032 L 16.323308 97.405855 L 16.989644 97.763328 L 16.936337 98.446262 L 17.847885 98.755716 L 17.874539 98.545857 L 18.064667 99.095405 L 18.22281 98.547635 L 18.627943 98.280864 L 18.839393 98.396465 L 18.693688 98.796621 L 18.972661 98.481832 L 19.841563 98.942456 L 20.746004 98.416028 L 21.001877 98.480053 L 20.996546 99.024266 L 23.015101 98.981582 L 23.722305 98.592097 L 23.899995 98.805514 L 23.676106 97.717088 L 24.301574 96.162702 L 23.910657 96.251626 L 24.122107 96.066665 L 23.791604 95.725198 L 24.383311 94.800392 L 25.04787 94.590532 L 24.399303 94.096117 L 24.468602 93.756428 L 26.05004 92.369219 L 26.392981 92.406567 L 26.282814 93.38117 L 26.803444 93.607036 L 27.368497 93.35805 L 27.67057 93.685289 L 28.130786 93.174868 L 28.411536 93.615929 L 29.379944 93.528784 L 29.722885 93.132184 L 30.277277 93.221108 L 30.757039 94.101452 L 30.483397 94.426913 L 31.153287 95.159644 L 31.759209 94.067661 L 32.041736 94.165477 L 31.812516 95.751875 L 31.984875 96.585979 L 32.38823 96.064886 L 32.820016 96.361891 L 33.248248 95.774995 L 34.277072 96.402796 L 34.586252 95.566914 L 35.480031 95.188099 L 35.696812 96.251626 L 36.318726 96.488163 L 36.81448 95.872811 L 36.700759 95.574028 L 36.130375 95.632717 L 36.014876 95.0476 L 36.572822 94.551406 L 36.048637 93.621264 L 36.986839 93.779548 L 37.978347 93.573246 L 37.92504 92.673338 L 38.351496 92.020638 L 39.529578 91.453305 L 39.911611 90.855738 L 40.746752 90.672556 L 40.677453 90.313304 L 41.01684 89.909591 L 40.478441 89.151961 L 40.840928 89.055924 L 41.100355 88.294737 L 40.888904 88.294737 L 40.972418 87.480196 L 40.329181 86.864845 L 40.711214 86.525156 L 40.746752 85.947152 L 41.061263 85.945374 L 40.764521 85.349585 L 41.139446 84.472798 L 40.912004 84.015731 L 41.599663 83.901908 L 41.955042 82.495136 L 41.837767 81.732171 L 42.079425 81.78019 L 42.552079 80.986991 L 44.153063 81.403153 L 44.616833 81.091921 L 45.226309 81.303559 L 45.487512 80.855384 L 46.121865 80.793137 L 46.047235 81.109705 L 47.212879 81.196851 L 47.214656 81.48852 L 47.845454 81.48852 L 48.309224 81.933138 L 49.009322 81.358692 L 49.156804 81.870892 L 49.718303 81.520533 L 50.158974 81.749956 L 52.454724 81.760627 L 52.746135 82.297725 L 53.540408 81.958037 L 53.897564 83.163842 L 54.215629 83.215418 L 53.96864 84.85517 L 53.273874 84.880069 L 53.24722 85.394047 L 52.607537 85.771084 L 52.712374 86.10188 L 52.078022 86.265499 L 52.257489 86.8933 L 52.898948 87.129837 L 53.124614 87.800322 L 53.495986 87.730961 L 53.824711 88.47792 L 54.325796 88.819387 L 55.361727 88.801602 L 55.558963 89.673054 L 56.028063 89.705066 L 56.299929 90.677891 L 55.368835 90.537392 L 55.100523 90.933991 L 55.191145 92.020638 L 54.544355 91.953056 L 54.057485 92.294523 L 54.341788 93.546568 L 55.17693 94.602981 L 53.954425 95.830128 L 54.013063 96.660675 L 54.928164 97.188882 L 54.953041 97.493 L 56.044055 95.910159 L 56.253729 96.690909 L 56.767252 96.42236 L 57.277222 95.038707 L 57.922235 95.824793 L 58.563695 95.773217 L 58.956389 96.388569 L 59.414828 96.511283 L 59.32243 96.253405 L 60.013642 96.201829 L 60.19844 97.667291 L 60.809692 98.464047 L 61.952237 98.305763 L 62.268524 98.773501 L 63.483922 99.378182 L 64.377701 98.149257 L 64.75618 99.141645 L 64.60692 99.861927 L 65.054698 100.06823 L 65.244826 100.88277 L 64.557167 101.094409 L 64.738411 102.625674 L 64.26931 102.632788 L 64.290633 103.182336 L 64.791718 103.436658 L 64.853909 104.197844 L 65.123997 104.222743 L 65.164866 106.120374 L 66.264765 106.166614 L 66.431793 107.169673 L 66.890232 107.123433 L 66.964862 108.053574 L 68.011454 108.03579 L 68.039885 108.578224 L 68.811058 108.789862 L 68.537416 109.707554 L 68.64936 110.696385 L 70.436918 110.678601 L 70.456464 111.124997 L 71.037509 111.603407 L 72.030794 111.647869 L 72.425266 112.197417 L 73.111148 112.398384 L 73.523388 113.734018 L 72.976103 114.404502 L 73.331483 114.932709 L 72.809075 116.346595 L 72.885482 117.650216 L 73.708185 117.771152 L 73.857444 118.53056 L 74.429605 118.53056 L 74.449151 119.208158 L 72.816183 120.830126 L 73.205323 122.203107 L 72.581632 123.314653 L 73.594464 124.49378 L 73.173339 125.512846 L 73.477188 126.087292 L 73.022303 126.665296 L 72.64027 126.601271 L 72.425266 126.887605 L 72.325759 128.313941 L 72.826844 129.192507 L 72.74333 129.973256 L 72.992096 129.960807 L 72.608286 130.499684 L 72.187161 130.257812 L 72.254683 129.72427 L 71.94195 129.939465 L 71.750045 129.599777 L 71.314705 130.031946 L 70.230798 129.694036 L 69.896742 130.010604 L 68.277989 130.079965 L 68.771966 128.708762 L 68.373941 128.365517 L 67.689836 128.440212 L 67.572561 125.509289 L 64.096951 125.642674 L 63.334662 126.542582 L 61.653718 125.715592 L 60.76527 125.957464 L 60.082941 125.418587 L 60.033188 124.712533 L 59.039903 124.129193 L 57.401604 124.020707 L 56.570017 124.861924 L 55.386604 124.817463 L 55.333297 124.44754 L 54.908618 124.339053 L 54.555016 123.796619 L 54.14633 123.85353 L 54.096577 122.765105 L 53.63103 123.092344 L 51.244658 122.848693 L 50.167858 123.035432 L 50.128766 122.674402 L 49.862232 122.722421 L 49.089282 121.817178 L 47.68198 121.224947 L 46.232032 121.705134 L 44.645263 121.440142 L 44.600841 120.938613 L 43.854544 120.746537 L 43.66264 120.810562 L 43.882975 121.502389 L 40.967087 121.493496 L 39.705491 121.036429 L 39.430072 121.509502 L 38.996509 121.285415 L 38.817042 121.573527 L 37.74202 121.573527 L 36.499969 121.146694 L 35.229488 120.278799 L 34.694642 120.492216 L 34.099382 120.248565 L 33.18428 120.71986 L 32.457529 120.723417 L 30.273723 122.188879 L 29.717555 122.192436 L 29.504327 121.808286 L 28.256946 122.187101 L 27.937104 121.75671 L 26.821213 122.551688 L 26.133554 122.201329 L 25.390811 122.302701 L 24.678276 122.03593 L 22.130206 122.590814 L 20.628728 122.574808 L 19.816687 123.17771 L 19.893093 123.478272 L 19.102374 124.728539 L 19.479076 126.140647 L 18.693688 127.008542 L 16.214917 128.37263 L 15.450852 129.590885 L 14.137725 130.657969 L 12.902782 130.184895 L 12.215123 130.378748 L 12.168924 129.925238 L 12.725092 129.290323 L 11.312459 128.906172 L 10.72786 129.085798 L 10.537732 128.345953 L 9.343658 128.801243 L 8.819473 128.69987 L 7.650275 129.487733 L 8.060738 130.325394 L 8.583146 130.624178 L 8.137145 131.426269 L 8.798151 132.660529 L 7.89371 132.701434 L 7.671598 132.052292 L 6.919971 131.865552 L 7.124314 131.276877 L 6.509508 130.067515 L 6.466862 128.961305 L 6.820465 127.4994 L 6.301611 126.679524 L 6.825795 125.820521 L 7.277127 125.884546 L 8.003878 125.327884 L 8.169129 124.769444 L 7.529446 123.686354 L 7.60763 122.7242 L 8.016316 122.82913 L 7.868834 122.487663 L 8.135368 122.290252 L 7.703582 121.635774 L 8.25442 121.19827 L 8.169129 120.773215 L 7.938133 120.769658 L 8.670214 120.385507 L 8.592031 120.013806 L 8.97051 119.617207 L 8.20289 117.819171 L 8.410787 117.771152 L 8.368142 117.212711 L 7.779989 116.887251 L 7.84218 116.504879 L 7.474363 116.213209 L 6.800919 116.175861 L 6.642775 116.403506 L 6.042184 115.384441 L 5.62639 115.256391 L 5.85561 114.530774 L 5.279895 114.664159 L 5.121751 114.379603 L 4.579798 114.717513 L 4.432316 114.452521 L 4.172889 114.580571 L 4.078713 113.956327 L 3.74821 114.096826 L 3.58829 113.764252 L 2.68918 113.728682 L 2.538144 113.378323 L 1.926891 113.570398 L 0.931829 113.257387 L 0.901622 111.923532 L 0.500043 111.694109 L 2.778025 107.680095 L 4.538929 105.22758 L 5.454031 104.306331 L 7.225597 103.267703 L 9.364981 102.689699 L 9.745236 102.899559 L 12.369713 100.909447 L 13.135555 100.004205 Z M 13.147994 98.101238 " stroke="rgb(100%, 100%, 100%)" stroke-width="0.5" stroke-opacity="1" stroke-miterlimit="4"/></g><path fill="rgb(17.248535%, 44.309998%, 94.119263%)" d="M 251.027344 221.539062 L 251.535156 221.898438 L 252.578125 220.890625 L 252.910156 221.429688 L 255.382812 221.441406 L 257.5 220.433594 L 259.230469 221.089844 L 260.15625 220.394531 L 261.460938 221.0625 L 262.601562 219.273438 L 264.527344 219.265625 L 264.476562 218.242188 L 263.785156 218.429688 L 263.171875 217.78125 L 263.492188 216.164062 L 265.21875 216.726562 L 266.023438 215.75 L 266.839844 215.890625 L 269.753906 211.824219 L 269.550781 210.328125 L 275.257812 209.523438 L 274.777344 207.378906 L 277.683594 203.539062 L 284.238281 206.078125 L 284.554688 205.339844 L 285.203125 205.425781 L 285.140625 206.207031 L 286.1875 206.734375 L 287.933594 205.945312 L 289.515625 204.21875 L 293.746094 204.457031 L 295.210938 205.523438 L 297.242188 204.875 L 296.914062 204.175781 L 297.664062 203.332031 L 295.671875 202.464844 L 294.425781 200.695312 L 295.949219 198.773438 L 295.523438 197.84375 L 294.429688 198.222656 L 293.617188 196.578125 L 294.5625 195.9375 L 294.070312 194.730469 L 294.726562 193.847656 L 295.503906 194.777344 L 297.070312 194.90625 L 299.097656 193.855469 L 298.347656 193.058594 L 299.101562 191.40625 L 298.0625 190.890625 L 299.832031 190.253906 L 298.78125 187.433594 L 299.015625 186.664062 L 298.308594 185.8125 L 298.273438 183.289062 L 301.78125 180.632812 L 302.183594 182.574219 L 303.242188 182.128906 L 302.914062 181.6875 L 303.386719 181.445312 L 304.097656 181.96875 L 303.53125 183.480469 L 305.265625 183.738281 L 305.773438 182.089844 L 310.351562 183.164062 L 313.277344 188.707031 L 315.917969 188.28125 L 316.933594 186.964844 L 316.972656 187.589844 L 319.375 186.566406 L 321.054688 186.828125 L 321.160156 185.832031 L 322.28125 184.945312 L 323.980469 185.472656 L 324.40625 184.296875 L 325.300781 184.449219 L 325.761719 183.171875 L 327.085938 183.304688 L 328.050781 181.023438 L 328.660156 181.359375 L 327.941406 182.6875 L 328.621094 183.054688 L 328.308594 183.761719 L 331.777344 184.433594 L 331.257812 185.503906 L 332.203125 186.417969 L 333.722656 186.238281 L 333.699219 185.367188 L 335.285156 184.804688 L 337.832031 185.167969 L 338.492188 184.589844 L 338.332031 183.902344 L 339.09375 183.644531 L 344.167969 183.523438 L 343.90625 184.839844 L 342.875 185.824219 L 343.449219 186.726562 L 344.160156 186.21875 L 345.144531 186.527344 L 345.125 188.058594 L 346.078125 188.660156 L 346.136719 190.097656 L 347.363281 189.855469 L 347.664062 190.855469 L 348.339844 191.042969 L 348.414062 192.03125 L 347.613281 192.800781 L 348.15625 193.792969 L 351.355469 193.503906 L 351.984375 195.234375 L 353.007812 194.859375 L 353.019531 195.289062 L 355.84375 195.347656 L 356.347656 196.46875 L 357.09375 196.46875 L 356.09375 196.765625 L 355.910156 199.773438 L 353.527344 199.722656 L 352.746094 200.535156 L 356.875 203.222656 L 357.695312 205.085938 L 357.558594 206.726562 L 361.574219 210.765625 L 363.582031 210.878906 L 363.617188 211.953125 L 362.941406 212.554688 L 365.398438 214.851562 L 365.882812 217.851562 L 364.457031 219.992188 L 362.082031 220.835938 L 364.371094 223.609375 L 364.53125 226.664062 L 367.019531 228.664062 L 368.523438 228.835938 L 367.171875 230.042969 L 366.308594 229.503906 L 365.632812 231.578125 L 364.34375 231.421875 L 364.898438 232.703125 L 365.957031 232.210938 L 366.722656 233.050781 L 366.035156 234.558594 L 365.148438 234.964844 L 366.109375 235.25 L 365.601562 237.460938 L 366.609375 237.371094 L 366.960938 238.554688 L 366.765625 242.617188 L 365.226562 243.082031 L 366.777344 245.023438 L 366.960938 244.632812 L 367.769531 245.746094 L 369.921875 246.515625 L 369.402344 247.070312 L 369.832031 249.476562 L 369.058594 250.722656 L 372.472656 251.21875 L 373.113281 255.125 L 370.308594 256.597656 L 370.023438 255.917969 L 368.488281 255.460938 L 362.894531 254.808594 L 361.503906 255.324219 L 360.800781 255.078125 L 360.449219 253.925781 L 358.652344 253.871094 L 357.664062 254.386719 L 357.957031 255.089844 L 355.71875 256.039062 L 354.722656 259.15625 L 353.152344 259.765625 L 352.128906 259.257812 L 351.648438 258.011719 L 349.726562 257.558594 L 349.054688 256.214844 L 343.355469 257.667969 L 342.011719 256.976562 L 342.078125 257.84375 L 341.386719 257.941406 L 341.925781 259.308594 L 341.042969 258.808594 L 341.59375 259.617188 L 341.019531 259.941406 L 341.273438 260.871094 L 340.679688 260.984375 L 341.320312 262.605469 L 340.214844 262.007812 L 339.871094 262.523438 L 340.507812 263.058594 L 339.601562 263.261719 L 339.75 264.105469 L 337.910156 264.550781 L 338.441406 264.992188 L 338.101562 265.414062 L 337.324219 264.929688 L 336.847656 265.347656 L 337.394531 266.96875 L 336.605469 268.300781 L 334.570312 268.085938 L 333.09375 270.171875 L 332.683594 271.980469 L 331.085938 272.683594 L 331.738281 274.375 L 331.28125 275.636719 L 329.699219 276.035156 L 331 276.5 L 330.074219 279.214844 L 327.882812 279.679688 L 328.125 282.277344 L 326.625 281.480469 L 326.144531 281.832031 L 326.808594 282.582031 L 325.84375 284.328125 L 327.59375 285.539062 L 325.882812 286.066406 L 327.515625 287.113281 L 326.585938 288.0625 L 327.265625 289.335938 L 328.53125 289.023438 L 328.042969 291.132812 L 328.828125 293.085938 L 329.996094 293.746094 L 328.488281 294.671875 L 328.65625 295.96875 L 329.855469 296.074219 L 331.167969 298.742188 L 330.53125 299.910156 L 331.027344 301.175781 L 328.945312 302.652344 L 329.621094 303.046875 L 329.296875 303.445312 L 330.03125 303.175781 L 329.484375 304.535156 L 327.035156 305.675781 L 325.78125 304.578125 L 323.785156 305 L 324.144531 303.082031 L 321.980469 302.921875 L 319.132812 299.996094 L 320.246094 298.976562 L 319.664062 296.53125 L 320.042969 296.292969 L 316.21875 292.6875 L 313.539062 291.144531 L 313.117188 292.457031 L 311.832031 291.394531 L 311.53125 292.53125 L 307.769531 291.570312 L 307.597656 292.421875 L 306.328125 292.746094 L 305.929688 293.519531 L 304.535156 292.433594 L 303.355469 292.742188 L 302.714844 295.027344 L 301.414062 294.34375 L 300.414062 294.769531 L 300.019531 294.1875 L 299.597656 295.230469 L 297.824219 294.300781 L 297.179688 292.460938 L 297.855469 292.167969 L 297.789062 290.945312 L 297.523438 290.085938 L 296.757812 290.09375 L 295.058594 291.664062 L 293.699219 291.5625 L 291.875 294.011719 L 290.28125 292.984375 L 288.886719 297.753906 L 285.585938 296.972656 L 282.335938 298.949219 L 281.660156 294.472656 L 280.335938 294.046875 L 279.570312 292.042969 L 279.785156 287.902344 L 278.25 287.53125 L 278.046875 286.121094 L 276.980469 285.25 L 277.238281 284.625 L 276.488281 284.300781 L 276.597656 282.828125 L 274.453125 282.929688 L 270.480469 287.453125 L 269.621094 287.53125 L 269.363281 286.542969 L 267.164062 286.613281 L 264.089844 288.257812 L 261.816406 292.542969 L 262.558594 294.59375 L 261.484375 296.734375 L 260.929688 293.753906 L 259.628906 295.140625 L 258.953125 294.855469 L 257.457031 288.660156 L 257.882812 288.21875 L 257.0625 288.238281 L 258.066406 287.757812 L 254.332031 287.65625 L 254.328125 287.054688 L 252.933594 286.449219 L 251.191406 286.3125 L 246.925781 289.46875 L 246.601562 287.425781 L 244.3125 284.542969 L 243.398438 284.675781 L 243.410156 281.082031 L 240.292969 283.195312 L 239.574219 285.4375 L 238.628906 285.589844 L 237.761719 287.117188 L 235.308594 287.929688 L 231.761719 288.382812 L 233.058594 286.25 L 231.085938 287.265625 L 230.71875 284.945312 L 228.679688 284.144531 L 227.675781 284.644531 L 227.359375 284.980469 L 228.054688 285.496094 L 227.582031 287.609375 L 228.402344 289.335938 L 226.59375 289.964844 L 224.988281 293.335938 L 221.601562 290.863281 L 223.65625 288.066406 L 223.792969 285.75 L 220.96875 285.042969 L 220.0625 285.679688 L 217.464844 283.847656 L 217 284.65625 L 216.246094 283.855469 L 215.152344 281.925781 L 215.367188 278.792969 L 215.839844 278.160156 L 216.679688 278.3125 L 217.679688 277.039062 L 217.015625 275.773438 L 217.945312 273.535156 L 215.714844 270.941406 L 217.085938 268.507812 L 216.230469 265.492188 L 219.820312 261.929688 L 219.78125 260.441406 L 218.519531 260.441406 L 218.191406 258.773438 L 216.386719 258.511719 L 216.21875 255.648438 L 217.359375 252.539062 L 216.585938 251.382812 L 217.785156 249.910156 L 216.882812 246.972656 L 215.375 246.53125 L 214.511719 245.324219 L 212.328125 245.226562 L 211.046875 244.175781 L 211 243.195312 L 207.074219 243.238281 L 206.832031 241.0625 L 207.433594 239.054688 L 210.558594 236.058594 L 210.890625 235.429688 L 209.972656 233.164062 L 211.175781 232.558594 L 211.933594 230.667969 L 216.371094 230.886719 L 217.21875 229.863281 L 218.164062 230.753906 L 219.066406 229.808594 L 219.265625 230.332031 L 219.910156 230.011719 L 219.859375 230.917969 L 220.585938 230.945312 L 219.96875 233.714844 L 223.835938 235.523438 L 224.023438 236.664062 L 226.976562 236.367188 L 230.316406 237.277344 L 232.363281 236.675781 L 232.402344 235.039062 L 233.246094 234.550781 L 232.820312 232.261719 L 233.722656 231.769531 L 238.433594 231.160156 L 238.875 233.378906 L 241.167969 232.945312 L 241.386719 234.066406 L 246.582031 233.238281 L 249.921875 229.914062 L 249.976562 223.746094 Z M 363.480469 233.949219 L 363.390625 233.316406 L 365.105469 233.738281 L 364.847656 234.636719 L 364.410156 233.902344 Z M 363.480469 233.949219 " fill-opacity="1" fill-rule="nonzero"/><g clip-path="url(#id3)"><path stroke-linecap="butt" transform="matrix(2.198355, 0, 0, 2.196406, 56.088227, 0.0024635)" fill="none" stroke-linejoin="miter" d="M 88.674985 100.863207 L 88.905982 101.026827 L 89.380413 100.567981 L 89.531449 100.81341 L 90.656225 100.818745 L 91.619303 100.359899 L 92.406468 100.658683 L 92.827593 100.342114 L 93.421076 100.646233 L 93.93993 99.831693 L 94.81594 99.828136 L 94.79284 99.362176 L 94.47833 99.447542 L 94.199357 99.152316 L 94.345063 98.416028 L 95.130451 98.672128 L 95.496492 98.22751 L 95.867863 98.291535 L 97.193428 96.440144 L 97.101029 95.758989 L 99.697075 95.392624 L 99.478517 94.416242 L 100.800528 92.668003 L 103.782161 93.82401 L 103.926089 93.487879 L 104.221054 93.527005 L 104.192624 93.8827 L 104.668832 94.122794 L 105.463105 93.763542 L 106.182748 92.977457 L 108.107127 93.085944 L 108.773463 93.571467 L 109.697449 93.27624 L 109.54819 92.957894 L 109.889354 92.573744 L 108.983137 92.178923 L 108.416307 91.373274 L 109.109297 90.498265 L 108.915615 90.074989 L 108.418084 90.247501 L 108.048489 89.498763 L 108.478498 89.207094 L 108.254609 88.657546 L 108.553128 88.255611 L 108.90673 88.678887 L 109.619266 88.737577 L 110.541475 88.259168 L 110.200311 87.896359 L 110.543252 87.144065 L 110.070598 86.909306 L 110.875532 86.619415 L 110.397547 85.335358 L 110.504161 84.984998 L 110.182542 84.597291 L 110.16655 83.448398 L 111.762203 82.239036 L 111.945224 83.122937 L 112.426763 82.920191 L 112.277503 82.719224 L 112.492508 82.608958 L 112.815903 82.847274 L 112.558253 83.535543 L 113.347195 83.652922 L 113.578192 82.902406 L 115.660715 83.391486 L 116.99161 85.91514 L 118.192792 85.721286 L 118.654785 85.121941 L 118.672554 85.406497 L 119.765346 84.940537 L 120.529411 85.059694 L 120.577388 84.606184 L 121.087357 84.20247 L 121.860307 84.442564 L 122.053989 83.907244 L 122.460898 83.976604 L 122.670572 83.395043 L 123.27294 83.455512 L 123.711833 82.416883 L 123.989029 82.569832 L 123.66208 83.174513 L 123.97126 83.341689 L 123.829108 83.663593 L 125.406993 83.96949 L 125.170665 84.456792 L 125.600674 84.872955 L 126.291887 84.791145 L 126.281226 84.394545 L 127.002646 84.138445 L 128.161182 84.303843 L 128.461478 84.040629 L 128.388625 83.727618 L 128.73512 83.610239 L 131.043309 83.555106 L 130.924257 84.154451 L 130.455156 84.602627 L 130.71636 85.013454 L 131.039755 84.782253 L 131.487533 84.922752 L 131.478649 85.619913 L 131.912211 85.893798 L 131.938865 86.548276 L 132.49681 86.438011 L 132.633631 86.8933 L 132.941034 86.978667 L 132.974795 87.428621 L 132.610532 87.77898 L 132.85752 88.230712 L 134.312799 88.099105 L 134.598879 88.886969 L 135.064426 88.716235 L 135.069757 88.911867 L 136.354453 88.938544 L 136.583673 89.448966 L 136.92306 89.448966 L 136.468174 89.58413 L 136.38466 90.953554 L 135.300753 90.930434 L 134.945374 91.300357 L 136.823554 92.523946 L 137.196702 93.372278 L 137.134511 94.119237 L 138.96116 95.958178 L 139.874485 96.009754 L 139.890477 96.498834 L 139.583074 96.772719 L 140.700742 97.818461 L 140.921077 99.184328 L 140.27251 100.158932 L 139.192157 100.543082 L 140.233418 101.805798 L 140.306271 103.196564 L 141.438154 104.107142 L 142.122259 104.185395 L 141.507453 104.734943 L 141.114759 104.489514 L 140.807356 105.433883 L 140.22098 105.362744 L 140.473299 105.946084 L 140.954838 105.721996 L 141.30311 106.104368 L 140.990376 106.790858 L 140.587021 106.975819 L 141.024137 107.105648 L 140.793141 108.112264 L 141.25158 108.071359 L 141.411501 108.610236 L 141.322656 110.459848 L 140.622559 110.671487 L 141.327987 111.555388 L 141.411501 111.377541 L 141.779318 111.884406 L 142.758388 112.234765 L 142.522061 112.487308 L 142.71752 113.582847 L 142.365694 114.15018 L 143.918702 114.376046 L 144.210113 116.15452 L 142.934301 116.825004 L 142.804588 116.51555 L 142.106267 116.307468 L 139.561751 116.010463 L 138.929176 116.245222 L 138.609335 116.133178 L 138.449414 115.608528 L 137.632042 115.58363 L 137.182487 115.818388 L 137.315754 116.138513 L 136.297592 116.570682 L 135.844484 117.989904 L 135.130171 118.267346 L 134.664624 118.036144 L 134.446066 117.468811 L 133.571833 117.262508 L 133.266207 116.650714 L 130.673714 117.312306 L 130.062462 116.997516 L 130.092669 117.392337 L 129.778158 117.436799 L 130.02337 118.059264 L 129.621792 117.83162 L 129.872334 118.199764 L 129.61113 118.347377 L 129.726628 118.770654 L 129.45654 118.822229 L 129.747951 119.560296 L 129.245089 119.288189 L 129.088723 119.522948 L 129.378357 119.766599 L 128.966117 119.859079 L 129.033639 120.24323 L 128.19672 120.445975 L 128.438378 120.646943 L 128.283788 120.839018 L 127.930186 120.618487 L 127.713405 120.808784 L 127.96217 121.54685 L 127.603237 122.15331 L 126.677474 122.055494 L 126.005807 123.005198 L 125.819233 123.828631 L 125.092482 124.148757 L 125.389224 124.918836 L 125.181327 125.493282 L 124.461684 125.674687 L 125.05339 125.886325 L 124.632266 127.122364 L 123.635427 127.334002 L 123.745594 128.516687 L 123.063266 128.153878 L 122.844708 128.313941 L 123.14678 128.655408 L 122.707887 129.450385 L 123.503936 130.001712 L 122.725656 130.241806 L 123.468398 130.718437 L 123.045497 131.150606 L 123.354677 131.730388 L 123.930392 131.58811 L 123.70828 132.548486 L 124.065436 133.437722 L 124.596728 133.738284 L 123.910846 134.159782 L 123.987252 134.750235 L 124.53276 134.798254 L 125.129797 136.012951 L 124.840163 136.544715 L 125.065829 137.12094 L 124.118743 137.793203 L 124.426146 137.972829 L 124.278663 138.154233 L 124.61272 138.031518 L 124.363954 138.650427 L 123.24984 139.169741 L 122.679456 138.66999 L 121.771462 138.862065 L 121.934937 137.988835 L 120.950536 137.915918 L 119.655178 136.583841 L 120.161594 136.11966 L 119.896836 135.006336 L 120.069195 134.897849 L 118.329613 133.256318 L 117.110662 132.553821 L 116.918757 133.151388 L 116.334158 132.667643 L 116.197337 133.185179 L 114.486186 132.747675 L 114.408002 133.135382 L 113.830511 133.282995 L 113.649268 133.635133 L 113.014916 133.140717 L 112.478293 133.281217 L 112.186882 134.321623 L 111.595175 134.010391 L 111.14029 134.204244 L 110.960823 133.939252 L 110.768918 134.414104 L 109.962207 133.990827 L 109.669019 133.153166 L 109.976422 133.019781 L 109.946215 132.463119 L 109.825386 132.071855 L 109.477114 132.075412 L 108.704164 132.790358 L 108.085804 132.744118 L 107.255994 133.85922 L 106.53102 133.391482 L 105.896668 135.562998 L 104.39519 135.207303 L 102.916812 136.10721 L 102.609409 134.06908 L 102.007041 133.875227 L 101.658769 132.96287 L 101.756498 131.077688 L 101.058178 130.908733 L 100.965779 130.266704 L 100.480687 129.870105 L 100.597962 129.585549 L 100.256798 129.437936 L 100.306551 128.767452 L 99.331034 128.813692 L 97.523931 130.873164 L 97.133013 130.908733 L 97.015738 130.45878 L 96.015345 130.490792 L 94.616928 131.239529 L 93.582774 133.190514 L 93.920384 134.124213 L 93.431738 135.098816 L 93.179418 133.741841 L 92.587712 134.373199 L 92.280309 134.243371 L 91.599757 131.422712 L 91.793439 131.221745 L 91.420291 131.230637 L 91.876953 131.011885 L 90.17824 130.965644 L 90.176463 130.69176 L 89.542111 130.416096 L 88.749615 130.35385 L 86.809244 131.790856 L 86.661761 130.860714 L 85.6205 129.548201 L 85.204706 129.608669 L 85.210037 127.972474 L 83.792073 128.934628 L 83.465124 129.955472 L 83.035115 130.024832 L 82.640644 130.720215 L 81.524753 131.090138 L 79.911331 131.29644 L 80.501261 130.325394 L 79.603928 130.787797 L 79.4369 129.731384 L 78.50936 129.366797 L 78.052697 129.594442 L 77.908769 129.74739 L 78.225056 129.982149 L 78.010052 130.944303 L 78.3832 131.730388 L 77.560497 132.016722 L 76.830192 133.551544 L 75.289623 132.425771 L 76.224271 131.152384 L 76.286462 130.097749 L 75.001766 129.775846 L 74.589526 130.065737 L 73.407889 129.231633 L 73.196439 129.599777 L 72.853498 129.23519 L 72.355967 128.356624 L 72.453696 126.930289 L 72.6687 126.642176 L 73.050733 126.711537 L 73.505619 126.131754 L 73.203546 125.555529 L 73.626448 124.536464 L 72.61184 123.355558 L 73.23553 122.247569 L 72.84639 120.874588 L 74.479358 119.25262 L 74.461589 118.575022 L 73.887651 118.575022 L 73.738392 117.815614 L 72.917466 117.696456 L 72.841059 116.392835 L 73.359913 114.97717 L 73.008088 114.450742 L 73.553595 113.780258 L 73.143132 112.442846 L 72.45725 112.241879 L 72.064556 111.69233 L 71.07127 111.647869 L 70.488448 111.169459 L 70.467125 110.723063 L 68.681344 110.742626 L 68.571177 109.752016 L 68.844819 108.837881 L 70.266336 107.473792 L 70.417372 107.187458 L 69.999802 106.155943 L 70.547086 105.88028 L 70.891804 105.019499 L 72.910358 105.119093 L 73.295945 104.653134 L 73.725954 105.058625 L 74.136417 104.628235 L 74.227039 104.86655 L 74.520227 104.720715 L 74.497127 105.133321 L 74.82763 105.145771 L 74.54688 106.406708 L 76.306008 107.230141 L 76.391299 107.749455 L 77.734633 107.614291 L 79.253879 108.028676 L 80.184973 107.754791 L 80.202742 107.00961 L 80.586552 106.787301 L 80.39287 105.745116 L 80.803333 105.521028 L 82.946271 105.243587 L 83.14706 106.253759 L 84.190098 106.056349 L 84.289604 106.566771 L 86.652877 106.189734 L 88.172124 104.676254 L 88.197 101.868044 Z M 139.828286 106.513416 L 139.787417 106.225304 L 140.567475 106.417379 L 140.4502 106.826428 L 140.251187 106.492075 Z M 139.828286 106.513416 " stroke="rgb(100%, 100%, 100%)" stroke-width="0.5" stroke-opacity="1" stroke-miterlimit="4"/></g><path stroke-linecap="butt" transform="matrix(2.198355, 0, 0, 2.196406, 56.088227, 0.0024635)" fill-opacity="1" fill="rgb(17.248535%, 44.309998%, 94.119263%)" fill-rule="nonzero" stroke-linejoin="miter" d="M 74.187947 70.097399 L 73.784591 69.498054 L 74.116871 69.325542 Z M 79.335617 68.030813 L 79.161481 67.619986 L 79.445784 67.787163 Z M 81.65802 67.378114 L 82.022284 67.829846 L 81.711327 68.064604 L 81.13739 67.390563 Z M 74.061787 65.172807 L 74.617956 65.475148 L 74.969782 65.316863 L 74.889821 65.610311 L 75.209663 65.8095 L 76.695148 65.430686 L 76.522789 66.254119 L 75.589918 66.725414 L 75.899098 67.77827 L 75.673433 68.38473 L 76.405514 68.92005 L 76.513905 68.160642 L 77.510744 68.206882 L 77.843023 68.564355 L 77.343715 68.944949 L 77.322393 69.32732 L 76.871061 69.42158 L 76.265139 68.992967 L 76.112326 69.647446 L 75.565042 69.908881 L 75.314499 69.352219 L 75.588142 69.161922 L 75.44599 68.864917 L 74.614402 69.185043 L 72.117862 69.101454 L 71.513718 68.697741 L 71.32359 68.114402 L 70.943334 68.423856 L 70.50444 68.149971 L 71.158338 67.746258 L 71.158338 66.629377 L 71.966826 65.489375 Z M 74.061787 65.172807 " stroke="rgb(100%, 100%, 100%)" stroke-width="0.5" stroke-opacity="1" stroke-miterlimit="4"/><path stroke-linecap="butt" transform="matrix(2.198355, 0, 0, 2.196406, 56.088227, 0.0024635)" fill-opacity="1" fill="rgb(17.248535%, 44.309998%, 94.119263%)" fill-rule="nonzero" stroke-linejoin="miter" d="M 50.930147 35.573678 L 51.633798 35.927594 L 51.850579 36.971558 L 52.26815 37.216987 L 52.209512 37.430404 L 53.632807 38.742917 L 53.089076 39.596584 L 53.202798 40.704573 L 54.63853 40.329315 L 54.985025 40.636991 L 55.951657 42.25718 L 56.69973 42.570191 L 56.607332 43.82935 L 57.154616 45.387293 L 57.566856 45.847917 L 57.876036 45.561583 L 58.254515 45.814126 L 58.872875 45.662956 L 58.654317 47.039494 L 59.206931 47.251133 L 59.137632 47.541024 L 58.60634 47.530353 L 58.622332 48.464051 L 57.794299 48.126142 L 58.030626 48.391134 L 57.831613 48.994036 L 58.103479 49.111416 L 58.01108 49.42087 L 58.306045 49.376408 L 58.476627 50.221183 L 58.206539 51.170888 L 57.920458 51.309609 L 58.354021 51.553259 L 57.550864 52.595445 L 56.962711 52.570546 L 56.74593 53.079189 L 56.482949 53.098753 L 56.594893 53.616288 L 56.331913 53.61451 L 55.724214 55.008833 L 55.786405 55.538818 L 54.709606 55.906962 L 53.382264 58.16918 L 51.902109 58.018009 L 51.496977 57.404436 L 51.203789 57.672986 L 50.915932 57.44712 L 49.266972 58.921474 L 48.760556 58.955265 L 48.465591 58.359476 L 47.582474 59.894299 L 47.671318 60.205531 L 49.098166 60.99873 L 49.19945 60.712396 L 48.746341 60.298012 L 50.020376 59.944096 L 49.609913 61.125002 L 50.340217 63.285847 L 50.903493 63.495707 L 52.877626 62.540667 L 53.000231 63.867408 L 52.643075 64.836676 L 53.389372 64.664164 L 54.171206 64.041698 L 54.800228 65.498268 L 54.316912 66.113619 L 53.465778 66.216771 L 53.908226 67.018862 L 52.971801 67.353215 L 52.465386 67.884979 L 52.234389 67.596866 L 52.017608 67.927662 L 51.39214 67.970345 L 51.825703 68.976961 L 51.335279 69.037429 L 51.303295 69.446478 L 51.580491 69.722141 L 51.910994 69.521174 L 52.186413 69.850192 L 51.845249 70.132969 L 52.138437 70.566916 L 51.926986 70.778555 L 52.73192 72.436092 L 53.723428 72.722426 L 53.542185 73.501397 L 54.24939 73.759276 L 54.220959 74.095407 L 54.906842 74.698309 L 55.619377 76.048171 L 56.621547 76.542586 L 56.600224 77.300216 L 55.811282 77.887112 L 56.102693 78.1112 L 56.418981 77.803524 L 56.532702 78.136098 L 56.777914 78.061402 L 56.843659 79.976818 L 57.241684 80.906959 L 56.134677 81.312451 L 54.476833 81.36047 L 54.023724 81.901126 L 53.545739 81.959816 L 52.749689 82.301282 L 52.460055 81.764183 L 50.162528 81.755291 L 49.723634 81.52409 L 49.160358 81.876227 L 49.014652 81.364027 L 48.314555 81.938474 L 47.849008 81.495634 L 47.219987 81.495634 L 47.216433 81.202186 L 46.052566 81.116819 L 46.127195 80.798473 L 45.492843 80.858941 L 45.229862 81.308894 L 44.623941 81.095478 L 44.160171 81.40671 L 42.559187 80.992326 L 42.084755 81.783747 L 41.843097 81.737506 L 41.962149 82.500471 L 41.60677 83.907244 L 40.919111 84.021066 L 41.146554 84.479912 L 40.771629 85.356699 L 41.066594 85.948931 L 40.752083 85.952488 L 40.716545 86.530492 L 40.336289 86.868402 L 40.979526 87.485532 L 40.896012 88.300072 L 41.107462 88.300072 L 40.849812 89.063037 L 40.487325 89.157297 L 41.023948 89.916705 L 40.682784 90.320418 L 40.75386 90.67967 L 39.918718 90.862852 L 39.534909 91.460419 L 38.358603 92.027752 L 37.932148 92.680452 L 37.985455 93.582138 L 36.993946 93.786662 L 36.055745 93.628378 L 36.57993 94.55852 L 36.021984 95.054714 L 36.137482 95.639831 L 36.707866 95.581142 L 36.821588 95.878147 L 36.325833 96.495277 L 35.70392 96.25874 L 35.487138 95.195213 L 34.593359 95.574028 L 34.282402 96.40991 L 33.255356 95.782109 L 32.827124 96.369005 L 32.395338 96.070222 L 31.991982 96.591315 L 31.823177 95.760768 L 32.048843 94.174369 L 31.766317 94.076553 L 31.160395 95.164979 L 30.490505 94.435805 L 30.764147 94.110344 L 30.284385 93.23 L 29.729993 93.141077 L 29.387052 93.537676 L 28.418643 93.624821 L 28.136117 93.18376 L 27.6759 93.694182 L 27.372051 93.366943 L 26.808775 93.615929 L 26.288144 93.390063 L 26.400089 92.415459 L 26.057148 92.376333 L 24.47571 93.765321 L 24.406411 94.105009 L 25.053201 94.599425 L 24.390419 94.809284 L 23.798712 95.73409 L 24.129215 96.075557 L 23.917764 96.260518 L 24.308681 96.171595 L 23.683214 97.72598 L 23.90888 98.814406 L 23.73119 98.600989 L 23.023985 98.990475 L 21.005431 99.033158 L 21.010761 98.488945 L 20.758442 98.42492 L 19.852225 98.94957 L 18.983322 98.490724 L 18.706126 98.805514 L 18.850055 98.405357 L 18.640381 98.289756 L 18.235249 98.556527 L 18.075328 99.102519 L 17.888754 98.554749 L 17.860323 98.764609 L 16.948775 98.456933 L 17.003859 97.775778 L 16.337523 97.414748 L 15.822223 97.581924 L 15.797346 97.903828 L 13.160432 98.110131 L 12.78373 93.82401 L 13.281261 93.246006 L 12.931212 91.433742 L 12.048095 89.877578 L 12.803276 87.764752 L 11.918381 86.726124 L 11.774452 85.708837 L 11.150762 85.347807 L 8.517401 77.643461 L 7.220266 71.41347 L 6.665875 70.670068 L 6.722735 68.379394 L 6.250081 68.052155 L 6.104375 65.400452 L 6.449093 65.733026 L 7.19539 65.761482 L 7.675152 66.230999 L 9.372088 65.859298 L 10.313843 66.305694 L 10.455995 66.960173 L 10.706538 66.993964 L 11.166754 66.689845 L 10.889558 65.976677 L 11.639408 65.414679 L 12.476327 65.724134 L 12.799722 65.035865 L 13.601102 65.505382 L 13.709493 66.188315 L 14.038219 66.22922 L 15.877307 65.86819 L 16.097642 65.363104 L 16.566743 65.450249 L 17.561805 64.998517 L 17.714618 65.569407 L 18.073551 65.711684 L 18.412938 65.489375 L 19.4311 66.825009 L 19.71185 66.899705 L 19.971277 66.592029 L 20.150743 66.908597 L 21.197335 66.748534 L 21.302172 66.972622 L 21.271965 66.725414 L 21.428332 66.906818 L 21.79615 66.723636 L 22.853403 65.283072 L 24.557447 63.858515 L 25.884789 63.694896 L 25.678669 65.190592 L 26.496041 65.094554 L 27.025556 64.340482 L 27.787845 64.292463 L 28.219631 63.943882 L 28.152109 63.360543 L 28.743815 63.163132 L 28.251615 63.186253 L 27.910451 62.86257 L 27.871359 62.129839 L 27.071756 60.968496 L 28.052603 60.402942 L 27.844706 60.004564 L 28.718939 59.97433 L 30.191986 59.266498 L 30.783693 60.091709 L 32.118142 60.326468 L 34.269964 57.888181 L 34.579144 56.781971 L 34.771049 56.664591 L 35.078452 56.988273 L 35.353871 56.381814 L 35.93847 56.710832 L 36.773611 56.64325 L 37.706482 56.122157 L 37.926817 55.672203 L 38.678445 55.889177 L 39.211513 55.311173 L 39.485156 55.428552 L 39.527801 56.081252 L 40.265213 56.3747 L 40.70766 57.683656 L 39.940041 57.616074 L 40.24389 58.558665 L 39.462056 58.882347 L 39.389203 59.179352 L 39.789005 59.720008 L 41.336682 60.070367 L 41.571232 60.502536 L 42.297983 60.168183 L 42.640924 59.371428 L 43.209531 59.736015 L 43.481396 59.287839 L 44.112194 59.684439 L 43.740823 58.955265 L 43.787022 58.400381 L 43.317922 57.937978 L 44.124633 57.377759 L 43.643094 57.271051 L 43.388998 56.460067 L 42.582286 56.24665 L 42.708446 55.684653 L 42.329967 55.056852 L 41.198084 55.344964 L 40.689892 54.996383 L 40.085747 55.218693 L 40.043101 54.731391 L 39.794336 54.688708 L 40.732537 53.465118 L 40.75386 52.702153 L 40.970641 52.847988 L 41.382881 52.136599 L 41.345566 51.160217 L 40.972418 51.080185 L 41.521479 50.777845 L 42.251784 48.90867 L 43.580902 47.72065 L 43.099363 44.720365 L 43.376559 42.774716 L 43.156224 41.247007 L 43.419205 40.608535 L 43.833222 40.549846 L 43.932728 39.641046 L 45.101926 38.467254 L 45.212093 37.585131 L 46.379515 37.352151 L 47.26974 36.738578 L 48.621958 37.200981 L 48.465591 37.016019 L 48.915146 36.855957 L 48.86717 36.436237 L 49.380693 36.370434 L 49.569044 35.895581 Z M 38.944979 56.273327 L 38.708652 56.214638 L 39.177752 55.988771 Z M 38.944979 56.273327 " stroke="rgb(100%, 100%, 100%)" stroke-width="0.5" stroke-opacity="1" stroke-miterlimit="4"/><path fill="rgb(17.248535%, 44.309998%, 94.119263%)" d="M 285.027344 125.601562 L 286.066406 125.347656 L 286.667969 125.898438 L 287.71875 124.710938 L 288.273438 124.996094 L 289.867188 121.644531 L 291.464844 121.773438 L 291.042969 120.398438 L 291.496094 119.546875 L 293.289062 118.871094 L 293.273438 119.59375 L 295.871094 121.28125 L 300.378906 120.660156 L 301.320312 119.796875 L 302.382812 120.507812 L 303.316406 119.105469 L 303.730469 119.441406 L 303.101562 120.324219 L 304.085938 121.324219 L 303.679688 121.878906 L 305.332031 122.707031 L 307.007812 121.726562 L 306.433594 123.527344 L 307.777344 123.523438 L 308.21875 123.289062 L 307.429688 121.140625 L 309.117188 121.675781 L 309.113281 121.101562 L 310.074219 120.78125 L 308.574219 119.394531 L 309.78125 119.472656 L 310.480469 120.421875 L 311.402344 118.894531 L 310.480469 117.898438 L 310.746094 117.082031 L 312.175781 116.8125 L 311.410156 118.207031 L 312.90625 117.695312 L 313.824219 118.96875 L 313.773438 120.03125 L 314.597656 119.976562 L 315.15625 117.917969 L 316.363281 118.851562 L 317.792969 118.96875 L 318.289062 116.40625 L 319.261719 116.917969 L 318.96875 119.007812 L 317.566406 120.234375 L 316.910156 122.246094 L 319.589844 122.945312 L 320.738281 121.117188 L 322.300781 121.257812 L 322.414062 119.660156 L 323.226562 120.210938 L 324.496094 123.933594 L 325.464844 123.222656 L 325.644531 124.355469 L 326.960938 124.980469 L 326.546875 123.636719 L 327.933594 123.617188 L 326.585938 123.144531 L 328.195312 121.847656 L 327.582031 121.535156 L 328.316406 119.914062 L 329.492188 119.09375 L 327.949219 117.773438 L 332.457031 116.402344 L 332.222656 114.429688 L 333.21875 114.105469 L 334.480469 114.902344 L 335.789062 114.894531 L 336.023438 116.023438 L 337.417969 115.59375 L 338.964844 116.097656 L 339.910156 115.628906 L 340.320312 113.429688 L 341.226562 112.710938 L 341.941406 114.144531 L 344.230469 114.359375 L 344.871094 115.980469 L 346.40625 113.808594 L 349.210938 112.488281 L 348.632812 111.398438 L 351.296875 111.492188 L 352.378906 111.761719 L 352.527344 113.667969 L 353.75 115.78125 L 353.105469 117.21875 L 354.878906 118 L 355.65625 119.703125 L 354.34375 120.9375 L 355.609375 121.375 L 355.425781 125.535156 L 357.074219 126.011719 L 357.726562 125.28125 L 357.996094 126.878906 L 358.960938 126.761719 L 357.828125 127.699219 L 359.855469 127.902344 L 361.363281 129.621094 L 362.070312 129.53125 L 361.90625 130.804688 L 364.132812 131.390625 L 364.492188 132.289062 L 366.804688 132.527344 L 367.824219 131.980469 L 368.613281 134.335938 L 372.246094 133.753906 L 371.492188 135.945312 L 372.71875 136.023438 L 374.023438 134.957031 L 374.589844 135.679688 L 375.207031 135.234375 L 375.574219 135.855469 L 376.742188 135.660156 L 376.175781 136.5 L 376.480469 138.558594 L 375.230469 140.425781 L 376.445312 141.367188 L 376.5 142.925781 L 375.148438 143.863281 L 374.351562 148.03125 L 373.191406 148.460938 L 373.917969 149.140625 L 372.535156 150.53125 L 372.890625 151.074219 L 371.683594 151.195312 L 372.234375 151.890625 L 371.859375 153.511719 L 373.414062 152.789062 L 376.808594 154.746094 L 377.082031 154.078125 L 378.714844 154.210938 L 380.097656 152.992188 L 382.234375 153.324219 L 382.09375 152.878906 L 383.527344 153.046875 L 385.128906 152.105469 L 386.972656 153.695312 L 388.128906 153.3125 L 388.808594 155.277344 L 390.941406 154.71875 L 390.492188 155.699219 L 392.335938 155.625 L 393.980469 158.363281 L 397.308594 157.066406 L 397.410156 158.09375 L 398.730469 159.050781 L 398.808594 160.296875 L 397.128906 161.40625 L 396.164062 161.265625 L 395.613281 162.285156 L 395.792969 163.425781 L 396.234375 163.667969 L 396.207031 162.4375 L 396.902344 163.296875 L 396.132812 165.234375 L 398.078125 167.585938 L 397.839844 168.691406 L 400.691406 170 L 400.300781 170.667969 L 402.5625 170.953125 L 402.644531 173.078125 L 403.472656 173.253906 L 404.175781 171.460938 L 405.664062 172.757812 L 404.691406 173.019531 L 404.5625 173.632812 L 408.671875 173.960938 L 407.941406 175 L 408.476562 176.460938 L 407.664062 176.554688 L 407.632812 177.292969 L 408.925781 178.472656 L 407.601562 178.1875 L 407.0625 179.480469 L 408.027344 181.800781 L 406.234375 182.132812 L 405.605469 181.535156 L 404.34375 183.128906 L 403.0625 181.566406 L 403.164062 183.066406 L 402.433594 183.101562 L 401.882812 184.523438 L 400.472656 183.855469 L 399.75 184.371094 L 399.652344 183.53125 L 398.335938 183.769531 L 399.269531 184.964844 L 396.878906 189.546875 L 395.566406 190.894531 L 393.5625 190.988281 L 392.617188 193.410156 L 391.527344 194.429688 L 389.367188 194.46875 L 389.132812 196.214844 L 387.269531 195.691406 L 386.753906 196.886719 L 383.945312 197.585938 L 381.144531 196.777344 L 381.082031 196.222656 L 380.097656 197.113281 L 378.039062 197.234375 L 377.292969 196.921875 L 377.140625 195.652344 L 374.261719 195.515625 L 373.066406 193.695312 L 372.726562 191.503906 L 371.15625 190.230469 L 370.617188 190.492188 L 366.871094 188.320312 L 365.089844 190.535156 L 358.597656 189.351562 L 359.101562 191.550781 L 357.140625 193.695312 L 357.210938 194.574219 L 358.414062 195.578125 L 358.09375 196.351562 L 357.074219 196.449219 L 356.332031 196.449219 L 355.824219 195.328125 L 353.007812 195.269531 L 352.996094 194.832031 L 351.96875 195.210938 L 351.339844 193.484375 L 348.140625 193.769531 L 347.601562 192.773438 L 348.402344 192.011719 L 348.328125 191.019531 L 347.652344 190.832031 L 347.347656 189.835938 L 346.121094 190.078125 L 346.070312 188.640625 L 345.109375 188.039062 L 345.128906 186.507812 L 344.148438 186.203125 L 343.4375 186.710938 L 342.863281 185.804688 L 343.886719 184.820312 L 344.15625 183.503906 L 339.074219 183.625 L 338.316406 183.878906 L 338.472656 184.5625 L 337.8125 185.144531 L 335.269531 184.785156 L 333.679688 185.347656 L 333.707031 186.21875 L 332.191406 186.398438 L 331.238281 185.484375 L 331.761719 184.417969 L 328.289062 183.746094 L 328.605469 183.039062 L 327.921875 182.675781 L 328.640625 181.351562 L 328.03125 181.011719 L 327.070312 183.292969 L 325.746094 183.160156 L 325.285156 184.433594 L 324.390625 184.285156 L 323.957031 185.457031 L 322.265625 184.929688 L 321.144531 185.816406 L 321.039062 186.816406 L 319.355469 186.550781 L 316.953125 187.566406 L 316.910156 186.949219 L 315.894531 188.265625 L 313.257812 188.695312 L 310.335938 183.144531 L 305.757812 182.070312 L 305.246094 183.71875 L 303.519531 183.46875 L 304.082031 181.953125 L 303.371094 181.429688 L 302.894531 181.671875 L 303.226562 182.113281 L 302.164062 182.558594 L 301.761719 180.617188 L 298.253906 183.273438 L 298.285156 185.796875 L 298.996094 186.65625 L 298.761719 187.425781 L 299.808594 190.246094 L 298.046875 190.878906 L 299.082031 191.402344 L 298.324219 193.050781 L 299.074219 193.847656 L 297.050781 194.902344 L 295.484375 194.773438 L 294.710938 193.839844 L 294.050781 194.722656 L 294.542969 195.933594 L 293.597656 196.574219 L 294.410156 198.222656 L 295.503906 197.835938 L 295.929688 198.769531 L 294.40625 200.6875 L 295.652344 202.464844 L 297.652344 203.332031 L 296.902344 204.175781 L 297.230469 204.867188 L 295.199219 205.519531 L 293.738281 204.453125 L 289.507812 204.214844 L 287.925781 205.945312 L 286.179688 206.726562 L 285.128906 206.203125 L 285.191406 205.417969 L 284.542969 205.335938 L 284.230469 206.078125 L 277.671875 203.535156 L 274.761719 207.375 L 275.238281 209.519531 L 269.539062 210.328125 L 269.742188 211.824219 L 266.828125 215.890625 L 266.015625 215.75 L 265.210938 216.726562 L 263.484375 216.164062 L 263.164062 217.78125 L 263.78125 218.4375 L 264.476562 218.246094 L 264.523438 219.265625 L 262.59375 219.277344 L 261.457031 221.070312 L 260.152344 220.398438 L 259.230469 221.09375 L 257.496094 220.433594 L 255.378906 221.441406 L 252.90625 221.429688 L 252.578125 220.886719 L 251.535156 221.890625 L 251.03125 221.539062 L 250.441406 220.339844 L 247.273438 218.898438 L 247.3125 217.859375 L 247.480469 216.9375 L 249.347656 215.667969 L 250.308594 213.347656 L 249.144531 210.726562 L 250.867188 210.269531 L 251.398438 208.960938 L 249.636719 205.210938 L 250.148438 203.941406 L 250.996094 204.011719 L 251.859375 203.042969 L 253.773438 203.886719 L 254.523438 202.414062 L 253.417969 201.144531 L 252.976562 199.222656 L 253.496094 198.144531 L 252.917969 196.242188 L 253.496094 195.617188 L 252.515625 194.203125 L 251.945312 194.476562 L 252.570312 193.433594 L 251.839844 192.417969 L 248.882812 193.226562 L 247.566406 192.125 L 247.792969 193.027344 L 246.578125 193.40625 L 246.578125 192.285156 L 245.289062 192.640625 L 246.613281 190.851562 L 245.167969 189.867188 L 244.246094 191.363281 L 243.515625 190.398438 L 242.832031 190.46875 L 242.65625 191.179688 L 241.941406 190.398438 L 240.664062 190.945312 L 240.425781 189.738281 L 237.84375 188.75 L 238.046875 187.820312 L 237.207031 187.242188 L 236.855469 185.585938 L 237.921875 185.957031 L 239.023438 185.246094 L 241.058594 186.34375 L 244.617188 186.660156 L 245.847656 186.585938 L 245.84375 185.628906 L 249.683594 185.207031 L 249.652344 182.714844 L 248.503906 181.34375 L 246.867188 180.707031 L 246.742188 180.027344 L 247.09375 178.621094 L 247.835938 178.765625 L 248.671875 177.800781 L 248.6875 174.570312 L 246.160156 173.054688 L 247.515625 172.308594 L 248.628906 172.96875 L 251.078125 170.429688 L 251.367188 170.855469 L 251.808594 170.511719 L 251.808594 169.5625 L 252.761719 170.976562 L 253.144531 170.328125 L 254.667969 170.199219 L 254.738281 169.527344 L 254.105469 169.691406 L 253.683594 169.074219 L 253.96875 169.964844 L 251.878906 169.433594 L 253.234375 168.183594 L 255.25 168.285156 L 255.382812 166.921875 L 256.667969 166.976562 L 256.648438 164.851562 L 259.945312 166.878906 L 262.402344 166.980469 L 262.257812 165.910156 L 263.765625 165.367188 L 264.355469 166.839844 L 265.824219 166.988281 L 267.191406 169.636719 L 268.9375 169.929688 L 269.320312 170.539062 L 268.714844 167.757812 L 269.472656 167.585938 L 268.605469 166.820312 L 270.347656 165.984375 L 270.550781 166.488281 L 273.253906 166.761719 L 273.695312 165.972656 L 272.730469 163.847656 L 273.023438 163.152344 L 273.851562 163.566406 L 274.28125 162.902344 L 274.234375 160.253906 L 275.117188 160.34375 L 275.183594 161.152344 L 276.074219 160.828125 L 276.960938 162.324219 L 277.703125 162.140625 L 279.839844 160.214844 L 281.503906 159.734375 L 282.257812 156.609375 L 283.023438 156.605469 L 283.953125 158.035156 L 284.84375 157.796875 L 284.695312 156.035156 L 285.898438 155.570312 L 284.414062 155.09375 L 284.730469 154.039062 L 288.394531 153.9375 L 288.539062 152.988281 L 287.179688 152.179688 L 286.039062 152.402344 L 285.691406 151.15625 L 283.484375 151.304688 L 285.867188 149.148438 L 284.582031 149.898438 L 283.894531 149.394531 L 285.101562 148.394531 L 284.09375 147.984375 L 285.050781 145.984375 L 284.132812 145.429688 L 284.222656 143.730469 L 283.253906 142.945312 L 283.945312 142.152344 L 283.742188 141.21875 L 282.539062 140.035156 L 284.964844 138.125 L 286.265625 138.144531 L 285.839844 137.53125 L 286.667969 130.363281 L 286.148438 129.816406 L 287.4375 127.664062 L 286.425781 126.460938 L 285.246094 126.460938 Z M 285.027344 125.601562 " fill-opacity="1" fill-rule="nonzero"/><g clip-path="url(#id4)"><path stroke-linecap="butt" transform="matrix(2.198355, 0, 0, 2.196406, 56.088227, 0.0024635)" fill="none" stroke-linejoin="miter" d="M 104.141094 57.183905 L 104.613748 57.068305 L 104.88739 57.319069 L 105.365375 56.778414 L 105.617695 56.908242 L 106.342669 55.382312 L 107.069419 55.441002 L 106.877515 54.814979 L 107.083635 54.427272 L 107.89923 54.119596 L 107.892122 54.448614 L 109.073759 55.216914 L 111.124297 54.934137 L 111.55253 54.541094 L 112.035845 54.864776 L 112.460524 54.226305 L 112.648875 54.379253 L 112.362794 54.781188 L 112.810572 55.236477 L 112.625775 55.489021 L 113.377402 55.866057 L 114.139691 55.41966 L 113.878487 56.239536 L 114.48974 56.237758 L 114.690529 56.131049 L 114.331596 55.152889 L 115.099215 55.39654 L 115.097438 55.135104 L 115.534555 54.98927 L 114.852227 54.357912 L 115.401288 54.393481 L 115.719352 54.82565 L 116.1387 54.130267 L 115.719352 53.676756 L 115.840181 53.305055 L 116.490525 53.182341 L 116.142254 53.817256 L 116.822805 53.584276 L 117.240376 54.164058 L 117.217276 54.647803 L 117.592201 54.622904 L 117.846297 53.685649 L 118.395359 54.110704 L 119.045703 54.164058 L 119.271369 52.99738 L 119.713816 53.23036 L 119.580549 54.181843 L 118.942643 54.740283 L 118.644124 55.656197 L 119.863075 55.974544 L 120.385483 55.142218 L 121.096241 55.206243 L 121.147771 54.478848 L 121.517366 54.729612 L 122.094857 56.424497 L 122.535528 56.100815 L 122.617265 56.616573 L 123.216079 56.901128 L 123.027728 56.289333 L 123.658526 56.280441 L 123.045497 56.065246 L 123.777578 55.474793 L 123.498606 55.332515 L 123.832662 54.594449 L 124.367508 54.220969 L 123.665634 53.619845 L 125.716173 52.995601 L 125.609559 52.097472 L 126.062668 51.949859 L 126.636605 52.312667 L 127.231866 52.30911 L 127.338479 52.823089 L 127.972831 52.627457 L 128.676483 52.85688 L 129.106492 52.643463 L 129.293066 51.642183 L 129.705306 51.314944 L 130.030478 51.967644 L 131.071739 52.06546 L 131.36315 52.803526 L 132.061471 51.814695 L 133.337282 51.213571 L 133.074302 50.717377 L 134.286145 50.76006 L 134.778346 50.882775 L 134.845868 51.75067 L 135.402036 52.712824 L 135.108848 53.367302 L 135.915559 53.722997 L 136.269162 54.498411 L 135.672125 55.060408 L 136.247839 55.259597 L 136.164325 57.153671 L 136.914175 57.370645 L 137.210917 57.038071 L 137.333523 57.765466 L 137.772416 57.712112 L 137.257116 58.138946 L 138.179326 58.231426 L 138.865208 59.013954 L 139.186826 58.97305 L 139.112196 59.552832 L 140.125028 59.819603 L 140.288502 60.228652 L 141.340425 60.337138 L 141.804195 60.088152 L 142.163128 61.160572 L 143.815642 60.895579 L 143.472701 61.893302 L 144.030646 61.928872 L 144.62413 61.443349 L 144.88178 61.772366 L 145.16253 61.56962 L 145.329558 61.852398 L 145.86085 61.763474 L 145.6032 62.145846 L 145.741798 63.083101 L 145.173191 63.933211 L 145.725806 64.361823 L 145.750682 65.071434 L 145.135876 65.498268 L 144.773389 67.395899 L 144.245651 67.591531 L 144.576154 67.900985 L 143.947132 68.534121 L 144.10883 68.781329 L 143.559769 68.836462 L 143.810311 69.15303 L 143.639729 69.891096 L 144.346934 69.562079 L 145.891057 70.453094 L 146.01544 70.148975 L 146.758183 70.209443 L 147.387204 69.65456 L 148.359167 69.80573 L 148.295198 69.602984 L 148.947319 69.679458 L 149.675847 69.250846 L 150.514542 69.974685 L 151.040504 69.800394 L 151.349684 70.694966 L 152.319869 70.440645 L 152.115526 70.887041 L 152.954221 70.85325 L 153.702295 72.09996 L 155.216211 71.509507 L 155.26241 71.977246 L 155.863001 72.412971 L 155.898539 72.980304 L 155.134474 73.485391 L 154.69558 73.421366 L 154.445038 73.885547 L 154.526775 74.404861 L 154.727564 74.515127 L 154.715126 73.954908 L 155.031414 74.346172 L 154.681365 75.228295 L 155.566259 76.298935 L 155.457869 76.802243 L 156.755003 77.398032 L 156.577314 77.702151 L 157.606137 77.831979 L 157.643452 78.799469 L 158.020154 78.8795 L 158.339995 78.063181 L 159.016993 78.653634 L 158.574545 78.772792 L 158.515908 79.052012 L 160.385203 79.201404 L 160.052923 79.674477 L 160.296358 80.339626 L 159.926764 80.38231 L 159.912549 80.718441 L 160.500701 81.25554 L 159.898333 81.125712 L 159.653122 81.714386 L 160.092015 82.770799 L 159.27642 82.92197 L 158.990339 82.649863 L 158.416402 83.37548 L 157.83358 82.664091 L 157.879779 83.347025 L 157.547499 83.363031 L 157.296957 84.010395 L 156.655497 83.706276 L 156.326771 83.941035 L 156.282349 83.558663 L 155.683535 83.66715 L 156.108213 84.211363 L 155.020752 86.297512 L 154.423715 86.911085 L 153.512167 86.953768 L 153.082158 88.056422 L 152.586404 88.520603 L 151.60378 88.538388 L 151.497166 89.333365 L 150.649586 89.09505 L 150.415036 89.639263 L 149.137447 89.957609 L 147.863412 89.589466 L 147.834982 89.336922 L 147.387204 89.742414 L 146.45078 89.797547 L 146.111392 89.655269 L 146.042093 89.077265 L 144.732521 89.015019 L 144.18879 88.18625 L 144.0342 87.188527 L 143.319888 86.608744 L 143.074676 86.727902 L 141.370632 85.739071 L 140.560367 86.747465 L 137.607165 86.208588 L 137.836385 87.209868 L 136.944383 88.18625 L 136.976367 88.586407 L 137.523651 89.043474 L 137.377945 89.395612 L 136.914175 89.440074 L 136.576565 89.440074 L 136.345568 88.929652 L 135.064426 88.902975 L 135.059095 88.703786 L 134.591771 88.876298 L 134.305691 88.090213 L 132.850413 88.220041 L 132.605201 87.766531 L 132.969465 87.419728 L 132.935704 86.967996 L 132.628301 86.882629 L 132.489703 86.429119 L 131.931757 86.539384 L 131.908658 85.884906 L 131.471541 85.611021 L 131.480425 84.91386 L 131.034424 84.775139 L 130.711029 85.00634 L 130.449825 84.593734 L 130.915372 84.145559 L 131.037978 83.546214 L 128.726236 83.601346 L 128.381518 83.716947 L 128.452594 84.02818 L 128.152298 84.293172 L 126.995538 84.129553 L 126.272341 84.385653 L 126.28478 84.782253 L 125.595344 84.864062 L 125.161781 84.4479 L 125.399885 83.962376 L 123.820224 83.656479 L 123.964153 83.334575 L 123.653196 83.169177 L 123.980145 82.566275 L 123.702949 82.411548 L 123.265832 83.450176 L 122.663464 83.389708 L 122.45379 83.96949 L 122.046881 83.901908 L 121.849646 84.43545 L 121.080249 84.195356 L 120.57028 84.59907 L 120.522304 85.054359 L 119.756461 84.933423 L 118.66367 85.395826 L 118.644124 85.114827 L 118.182131 85.714172 L 116.982726 85.909805 L 115.653607 83.382594 L 113.571084 82.893514 L 113.338311 83.64403 L 112.552922 83.530207 L 112.808796 82.84016 L 112.4854 82.601844 L 112.268619 82.71211 L 112.419655 82.913077 L 111.936339 83.115823 L 111.753319 82.231922 L 110.157666 83.441284 L 110.171881 84.590177 L 110.495276 84.981442 L 110.388662 85.331801 L 110.864871 86.615858 L 110.06349 86.903971 L 110.534368 87.142286 L 110.18965 87.892802 L 110.530814 88.255611 L 109.610382 88.735798 L 108.897846 88.677109 L 108.54602 88.252054 L 108.245725 88.653989 L 108.469614 89.205315 L 108.039605 89.496985 L 108.409199 90.247501 L 108.90673 90.071432 L 109.100412 90.496487 L 108.407423 91.369717 L 108.974253 92.178923 L 109.884024 92.573744 L 109.542859 92.957894 L 109.692119 93.272684 L 108.768133 93.569689 L 108.103573 93.084165 L 106.179194 92.975679 L 105.459551 93.763542 L 104.665278 94.119237 L 104.187293 93.880921 L 104.215723 93.523448 L 103.920759 93.4861 L 103.778607 93.82401 L 100.795197 92.666224 L 99.471409 94.414463 L 99.688191 95.390845 L 97.095699 95.758989 L 97.188097 96.440144 L 95.862532 98.291535 L 95.492938 98.22751 L 95.126897 98.672128 L 94.341509 98.416028 L 94.195803 99.152316 L 94.476553 99.451099 L 94.79284 99.363954 L 94.814163 99.828136 L 93.936376 99.833471 L 93.419299 100.64979 L 92.825816 100.343893 L 92.406468 100.660461 L 91.617526 100.359899 L 90.654448 100.818745 L 89.529673 100.81341 L 89.380413 100.566202 L 88.905982 101.02327 L 88.676762 100.863207 L 88.408451 100.317216 L 86.967388 99.660959 L 86.985157 99.187885 L 87.061563 98.768166 L 87.91092 98.190162 L 88.348036 97.133749 L 87.818521 95.940393 L 88.602133 95.732312 L 88.84379 95.136523 L 88.04241 93.429189 L 88.275184 92.851185 L 88.66077 92.883198 L 89.053464 92.442137 L 89.924144 92.826287 L 90.265308 92.155802 L 89.762446 91.577799 L 89.561657 90.70279 L 89.797984 90.211931 L 89.535003 89.345815 L 89.797984 89.061259 L 89.351983 88.417452 L 89.092556 88.541945 L 89.376859 88.067092 L 89.04458 87.604689 L 87.699469 87.972833 L 87.100655 87.471304 L 87.203715 87.882131 L 86.6511 88.054643 L 86.6511 87.544221 L 86.064724 87.706062 L 86.667092 86.891522 L 86.00964 86.443346 L 85.590293 87.124502 L 85.258013 86.685219 L 84.947056 86.717231 L 84.867096 87.040913 L 84.541924 86.685219 L 83.960879 86.934205 L 83.852488 86.384657 L 82.677959 85.934703 L 82.770358 85.511427 L 82.388325 85.248212 L 82.228404 84.49414 L 82.713497 84.663095 L 83.214582 84.339413 L 84.140345 84.839164 L 85.759098 84.98322 L 86.31882 84.949429 L 86.317043 84.513703 L 88.063733 84.321628 L 88.049518 83.186962 L 87.52711 82.562718 L 86.78259 82.272827 L 86.72573 81.963372 L 86.88565 81.323122 L 87.223261 81.388926 L 87.603517 80.949643 L 87.610624 79.478845 L 86.460972 78.788798 L 87.077555 78.449109 L 87.583971 78.749671 L 88.698085 77.593664 L 88.829575 77.787517 L 89.030365 77.631012 L 89.030365 77.198843 L 89.463927 77.84265 L 89.638063 77.547424 L 90.331053 77.488734 L 90.363037 77.182837 L 90.07518 77.257532 L 89.883275 76.976534 L 90.012988 77.382026 L 89.062349 77.140153 L 89.678932 76.571042 L 90.595811 76.617282 L 90.656225 75.996595 L 91.240824 76.021494 L 91.23194 75.054004 L 92.73164 75.977032 L 93.849308 76.023272 L 93.783563 75.53597 L 94.469445 75.288763 L 94.737757 75.959247 L 95.40587 76.026829 L 96.027784 77.232634 L 96.822056 77.366019 L 96.996192 77.643461 L 96.720773 76.377188 L 97.065491 76.298935 L 96.67102 75.950355 L 97.463516 75.569761 L 97.555915 75.799184 L 98.785527 75.923678 L 98.986317 75.564426 L 98.547423 74.596937 L 98.68069 74.280368 L 99.057392 74.468886 L 99.252851 74.166546 L 99.231528 72.960741 L 99.633107 73.001646 L 99.663314 73.36979 L 100.068447 73.222177 L 100.471802 73.903332 L 100.809412 73.819744 L 101.781375 72.942956 L 102.538333 72.724204 L 102.881274 71.301426 L 103.229546 71.299647 L 103.652447 71.950568 L 104.05758 71.842082 L 103.990057 71.03999 L 104.537342 70.828352 L 103.862121 70.611378 L 104.00605 70.13119 L 105.672779 70.08495 L 105.738524 69.652781 L 105.120164 69.284637 L 104.60131 69.38601 L 104.443166 68.818677 L 103.43922 68.886259 L 104.523126 67.904542 L 103.938527 68.246009 L 103.625794 68.016586 L 104.174855 67.561297 L 103.716415 67.374557 L 104.151755 66.463979 L 103.734184 66.211435 L 103.775053 65.4378 L 103.334383 65.080326 L 103.648893 64.719296 L 103.556495 64.294241 L 103.009211 63.755364 L 104.112663 62.885691 L 104.70437 62.894583 L 104.510688 62.615363 L 104.88739 59.351864 L 104.651063 59.102878 L 105.237439 58.122939 L 104.777223 57.57517 L 104.2406 57.57517 Z M 104.141094 57.183905 " stroke="rgb(100%, 100%, 100%)" stroke-width="0.5" stroke-opacity="1" stroke-miterlimit="4"/></g><path stroke-linecap="butt" transform="matrix(2.198355, 0, 0, 2.196406, 56.088227, 0.0024635)" fill-opacity="1" fill="rgb(17.248535%, 44.309998%, 94.119263%)" fill-rule="nonzero" stroke-linejoin="miter" d="M 52.264596 37.216987 L 52.765681 36.356206 L 53.099738 36.617641 L 53.346726 36.466471 L 53.37871 36.148125 L 53.049985 36.096549 L 53.273874 35.735519 L 55.670907 36.850621 L 55.999633 36.546503 L 56.996472 37.186753 L 57.748099 36.482477 L 57.446027 35.988062 L 58.043064 36.108998 L 58.332698 35.799544 L 58.814237 36.213928 L 59.07011 36.119669 L 59.517888 36.708344 L 59.891037 36.683445 L 59.896367 36.343757 L 60.225093 36.228156 L 60.635556 36.423788 L 60.864776 36.148125 L 61.143749 36.406003 L 61.275239 35.87424 L 60.811469 35.514988 L 61.122426 35.006345 L 61.468921 35.040136 L 61.653718 35.548779 L 62.094388 34.90675 L 62.551051 34.812491 L 63.560328 35.819107 L 63.675826 36.441573 L 64.471876 36.046752 L 65.458054 36.039638 L 65.538014 35.715956 L 65.108005 35.58257 L 65.475823 35.410058 L 65.845417 35.564785 L 66.504646 35.331805 L 66.677005 35.790651 L 67.025277 35.289122 L 67.226066 35.564785 L 67.535246 35.315799 L 67.686282 35.703506 L 68.530308 35.53633 L 68.777297 35.995176 L 68.5463 36.51449 L 69.470286 37.216987 L 69.280158 38.239609 L 69.729713 38.364102 L 70.106415 39.13596 L 70.96288 39.662388 L 71.307598 39.432965 L 72.377289 40.117677 L 72.466134 41.037147 L 72.984988 40.78994 L 73.448758 40.969565 L 73.120032 42.164699 L 74.767215 42.095339 L 75.865337 42.796057 L 75.875999 44.729258 L 76.565435 45.341052 L 76.407291 45.910164 L 76.915483 46.682021 L 77.848354 46.326327 L 78.070466 46.482832 L 78.676388 45.799899 L 79.017552 46.064891 L 78.834532 46.505952 L 79.399585 46.83497 L 80.124559 46.738932 L 80.57589 47.51079 L 81.044991 47.329386 L 81.149828 46.634002 L 82.043607 46.134252 L 82.414978 46.393909 L 83.145283 45.899493 L 82.965816 45.481552 L 83.187928 45.168541 L 83.132845 45.374843 L 84.113692 44.905327 L 85.307766 45.766108 L 85.478348 46.703363 L 85.526324 46.080897 L 85.668476 46.585984 L 86.002533 46.404579 L 86.134023 46.977248 L 86.549817 47.128418 L 87.342313 48.268419 L 87.678146 48.263084 L 88.079725 47.565922 L 88.522172 45.18099 L 90.496304 45.202332 L 90.650894 44.883985 L 91.034704 45.209445 L 91.439836 45.127636 L 92.227002 46.484611 L 92.015551 47.156874 L 92.200348 47.651289 L 92.774286 47.791789 L 93.502813 47.439651 L 94.398369 47.91806 L 95.212188 47.82558 L 95.61732 47.455657 L 95.349009 46.81185 L 95.951377 46.585984 L 97.820672 47.493005 L 98.10853 46.511288 L 99.268843 45.849696 L 100.235475 46.176935 L 101.123923 45.872816 L 100.979995 46.169821 L 101.363804 46.358339 L 101.038632 46.680243 L 101.298059 47.649511 L 101.790259 47.878934 L 102.502795 47.854035 L 102.964788 47.377404 L 103.373474 47.706422 L 103.979396 46.966577 L 103.7022 47.380961 L 104.299237 47.507233 L 104.65284 46.584205 L 105.292523 46.4277 L 105.738524 47.329386 L 105.214339 47.754441 L 105.274754 48.440931 L 104.889167 49.282149 L 105.061526 49.826362 L 104.242377 50.891667 L 104.556888 51.019717 L 104.851852 51.804024 L 104.597756 51.868049 L 104.556888 52.504743 L 104.965574 53.045398 L 104.523126 53.064962 L 104.196177 53.536257 L 103.275745 53.518472 L 103.330829 53.900844 L 103.686208 53.963091 L 103.535172 54.320564 L 103.869229 54.916352 L 104.468043 55.078193 L 103.918982 55.428552 L 103.913651 56.189739 L 103.632901 56.52587 L 103.440996 56.20041 L 103.49075 56.661034 L 103.137147 57.148336 L 103.638232 57.463126 L 104.158863 57.192798 L 104.258369 57.58584 L 104.794992 57.58584 L 105.255208 58.131832 L 104.668832 59.11177 L 104.905159 59.362535 L 104.528457 62.624255 L 104.722139 62.903475 L 104.128655 62.894583 L 103.025203 63.764256 L 103.572487 64.301355 L 103.664885 64.72641 L 103.348598 65.08744 L 103.791045 65.443135 L 103.750176 66.218549 L 104.167747 66.472871 L 103.732407 67.383449 L 104.190847 67.571967 L 103.638232 68.027257 L 103.950966 68.254901 L 104.535565 67.913434 L 103.451658 68.898708 L 104.457381 68.829348 L 104.615525 69.396681 L 105.134379 69.295308 L 105.752739 69.661673 L 105.686994 70.093842 L 104.020265 70.140083 L 103.878113 70.62027 L 104.553334 70.837244 L 104.007826 71.052439 L 104.075349 71.852752 L 103.670216 71.959461 L 103.247315 71.30854 L 102.90082 71.312097 L 102.556102 72.733097 L 101.802698 72.951849 L 100.828958 73.828636 L 100.494902 73.912224 L 100.089769 73.231069 L 99.686414 73.378682 L 99.656207 73.010538 L 99.254628 72.967855 L 99.277728 74.175438 L 99.080492 74.479557 L 98.70379 74.289261 L 98.570523 74.605829 L 99.011193 75.57154 L 98.810404 75.930791 L 97.577237 75.806298 L 97.484839 75.576875 L 96.692343 75.957469 L 97.085037 76.306049 L 96.742096 76.384302 L 97.017515 77.652353 L 96.843379 77.374912 L 96.049106 77.239748 L 95.428969 76.033943 L 94.760856 75.966361 L 94.490768 75.295876 L 93.806663 75.541306 L 93.872408 76.030386 L 92.75474 75.984146 L 91.253262 75.05934 L 91.263924 76.02505 L 90.681102 76.000152 L 90.61891 76.620839 L 89.703808 76.576377 L 89.089002 77.145489 L 90.039642 77.387361 L 89.909928 76.980091 L 90.101833 77.262868 L 90.387914 77.188172 L 90.35593 77.492291 L 89.664717 77.55098 L 89.490581 77.847986 L 89.055241 77.204178 L 89.057018 77.634569 L 88.856229 77.794631 L 88.724738 77.598999 L 87.612401 78.756785 L 87.105986 78.454445 L 86.492956 78.792355 L 87.642608 79.485959 L 87.635501 80.9532 L 87.253468 81.394261 L 86.917635 81.330236 L 86.757714 81.968708 L 86.812798 82.278162 L 87.55554 82.568053 L 88.077948 83.190519 L 88.09394 84.326963 L 86.345474 84.519038 L 86.349028 84.954764 L 85.787528 84.988555 L 84.170552 84.842721 L 83.244789 84.346527 L 82.743704 84.670209 L 82.256835 84.499475 L 82.418532 85.253548 L 82.798788 85.51854 L 82.706389 85.940039 L 83.880918 86.395328 L 83.989309 86.941319 L 84.572131 86.694111 L 84.897303 87.049806 L 84.975487 86.724345 L 85.286443 86.692333 L 85.618723 87.129837 L 86.036294 86.45046 L 86.695522 86.898636 L 86.062947 87.706062 L 86.6511 87.544221 L 86.6511 88.054643 L 87.203715 87.882131 L 87.100655 87.471304 L 87.697692 87.972833 L 89.046357 87.604689 L 89.378636 88.067092 L 89.094333 88.541945 L 89.35376 88.417452 L 89.799761 89.061259 L 89.53678 89.345815 L 89.799761 90.211931 L 89.563434 90.70279 L 89.764223 91.577799 L 90.267085 92.155802 L 89.925921 92.826287 L 89.055241 92.442137 L 88.662547 92.881419 L 88.27696 92.851185 L 88.044187 93.429189 L 88.84379 95.136523 L 88.602133 95.732312 L 87.820298 95.942172 L 88.35159 97.135527 L 87.912697 98.19194 L 87.061563 98.769944 L 86.985157 99.191442 L 86.969165 99.662738 L 88.410228 100.320773 L 88.678539 100.866764 L 88.161462 101.816469 L 88.136586 104.624678 L 86.617339 106.139937 L 84.254066 106.516973 L 84.15456 106.006552 L 83.113299 106.202184 L 82.91251 105.195568 L 80.769572 105.474788 L 80.359109 105.697097 L 80.552791 106.739283 L 80.168981 106.961592 L 80.151212 107.706772 L 79.220118 107.982435 L 77.700872 107.566273 L 76.357538 107.701437 L 76.272247 107.182122 L 74.513119 106.358689 L 74.793869 105.09953 L 74.46692 105.085302 L 74.488243 104.672697 L 74.195055 104.818532 L 74.104433 104.581995 L 73.69397 105.010607 L 73.265738 104.606893 L 72.880151 105.072853 L 70.863373 104.97148 L 70.518655 105.832261 L 69.971371 106.107925 L 70.388942 107.139439 L 70.237906 107.425773 L 68.816388 108.789862 L 68.043438 108.578224 L 68.016785 108.03579 L 66.968416 108.055353 L 66.893786 107.125211 L 66.435347 107.169673 L 66.266542 106.166614 L 65.166643 106.118595 L 65.125774 104.222743 L 64.855686 104.197844 L 64.795271 103.436658 L 64.295963 103.180558 L 64.272864 102.629231 L 64.741964 102.625674 L 64.562498 101.094409 L 65.24838 100.88277 L 65.056475 100.06823 L 64.612251 99.861927 L 64.76151 99.141645 L 64.381254 98.149257 L 63.487475 99.378182 L 62.273855 98.773501 L 61.957567 98.305763 L 60.815023 98.462268 L 60.201994 97.663734 L 60.017196 96.201829 L 59.325983 96.253405 L 59.420159 96.511283 L 58.96172 96.388569 L 58.569026 95.773217 L 57.927566 95.824793 L 57.280775 95.038707 L 56.770806 96.42236 L 56.25906 96.694466 L 56.051163 95.911938 L 54.960148 97.494779 L 54.935272 97.19066 L 54.016616 96.662453 L 53.959756 95.833685 L 55.182261 94.608317 L 54.347119 93.551904 L 54.062816 92.29808 L 54.549685 91.956613 L 55.194699 92.022417 L 55.105854 90.937548 L 55.375942 90.540949 L 56.305259 90.67967 L 56.035171 89.708623 L 55.56607 89.674832 L 55.368835 88.805159 L 54.334681 88.821165 L 53.833596 88.479698 L 53.506647 87.736296 L 53.137052 87.805657 L 52.911387 87.135173 L 52.269927 86.900414 L 52.088683 86.272613 L 52.723036 86.105437 L 52.619976 85.778197 L 53.257881 85.401161 L 53.288089 84.887182 L 53.982855 84.862284 L 54.229844 83.222532 L 53.910003 83.170956 L 53.5564 81.965151 L 54.034385 81.906461 L 54.489271 81.364027 L 56.145338 81.317787 L 57.252345 80.910516 L 56.85432 79.980375 L 56.788575 78.066738 L 56.54514 78.141434 L 56.433196 77.808859 L 56.116908 78.116535 L 55.811282 77.887112 L 56.586009 77.287766 L 56.609109 76.528358 L 55.606939 76.033943 L 54.892626 74.684082 L 54.208521 74.081179 L 54.238728 73.745048 L 53.531524 73.487169 L 53.712767 72.711755 L 52.721259 72.423642 L 51.914548 70.769662 L 52.127775 70.559802 L 51.83281 70.125855 L 52.173975 69.843078 L 51.898556 69.51406 L 51.571607 69.715028 L 51.294411 69.439364 L 51.326395 69.030315 L 51.815041 68.969847 L 51.381479 67.963232 L 52.006946 67.920548 L 52.223728 67.591531 L 52.456501 67.877865 L 52.964694 67.346101 L 53.901118 67.015305 L 53.458671 66.211435 L 54.309804 66.110062 L 54.79312 65.492932 L 54.164099 64.036363 L 53.382264 64.660607 L 52.635968 64.83134 L 52.994901 63.863851 L 52.870518 62.535331 L 50.89994 63.490371 L 50.334886 63.280512 L 49.606359 61.123224 L 50.016822 59.942317 L 48.74101 60.296234 L 49.194119 60.712396 L 49.092836 60.99873 L 47.665988 60.205531 L 47.57892 59.894299 L 48.460261 58.359476 L 48.757002 58.955265 L 49.261641 58.921474 L 50.910601 57.448898 L 51.202012 57.674764 L 51.4952 57.409772 L 51.898556 58.023345 L 53.380487 58.174515 L 54.709606 55.912297 L 55.786405 55.544153 L 55.724214 55.014168 L 56.33369 53.618067 L 56.59667 53.619845 L 56.486503 53.104088 L 56.75126 53.082746 L 56.968042 52.575881 L 57.554418 52.60078 L 58.357575 51.556816 L 57.924012 51.313165 L 58.211869 51.176223 L 58.480181 50.22474 L 58.311376 49.379965 L 58.014634 49.426205 L 58.107032 49.116751 L 57.836944 48.999372 L 58.035957 48.396469 L 57.797852 48.129698 L 58.627663 48.469387 L 58.611671 47.53391 L 59.14474 47.544581 L 59.214039 47.256468 L 58.661424 47.04483 L 58.881759 45.666513 L 58.263399 45.82124 L 57.88492 45.566919 L 57.57574 45.855031 L 57.1635 45.394407 L 56.616216 43.838243 L 56.708615 42.579084 L 55.960541 42.267851 L 54.993909 40.645883 L 54.647415 40.341764 L 53.211682 40.715244 L 53.099738 39.607255 L 53.645245 38.753588 L 52.220174 37.442853 Z M 74.061787 65.172807 L 74.617956 65.475148 L 74.969782 65.316863 L 74.891598 65.610311 L 75.209663 65.8095 L 76.695148 65.430686 L 76.522789 66.254119 L 75.589918 66.725414 L 75.900875 67.77827 L 75.673433 68.38473 L 76.405514 68.92005 L 76.513905 68.158864 L 77.512521 68.206882 L 77.843023 68.564355 L 77.345492 68.944949 L 77.322393 69.32732 L 76.871061 69.42158 L 76.265139 68.992967 L 76.112326 69.647446 L 75.565042 69.908881 L 75.314499 69.352219 L 75.588142 69.161922 L 75.44599 68.863139 L 74.616179 69.185043 L 72.117862 69.101454 L 71.513718 68.697741 L 71.32359 68.114402 L 70.945111 68.423856 L 70.50444 68.149971 L 71.158338 67.746258 L 71.158338 66.629377 L 71.966826 65.489375 Z M 81.659797 67.378114 L 82.022284 67.829846 L 81.711327 68.064604 L 81.164043 67.315867 Z M 79.335617 68.030813 L 79.161481 67.619986 L 79.447561 67.787163 Z M 74.104433 70.148975 L 73.784591 69.498054 L 74.116871 69.323764 Z M 74.104433 70.148975 " stroke="rgb(100%, 100%, 100%)" stroke-width="0.5" stroke-opacity="1" stroke-miterlimit="4"/><path stroke-linecap="butt" transform="matrix(2.198355, 0, 0, 2.196406, 56.088227, 0.0024635)" fill-opacity="1" fill="rgb(17.248535%, 44.309998%, 94.119263%)" fill-rule="nonzero" stroke-linejoin="miter" d="M 83.298096 1.000159 L 83.47934 1.836041 L 84.14923 1.992547 L 84.915072 2.743063 L 84.925733 3.523812 L 85.512109 3.365528 L 86.103816 4.308119 L 87.169954 4.286777 L 87.328098 3.673204 L 87.09177 3.196573 L 87.310329 2.808866 L 87.942904 3.171675 L 87.873605 3.458009 L 88.644778 2.928024 L 89.666494 2.94403 L 90.016542 2.668367 L 91.150202 3.143219 L 92.177249 3.050738 L 91.498474 3.907962 L 91.852077 4.740288 L 92.541512 5.325406 L 92.617919 6.171959 L 93.177641 7.054082 L 94.27754 6.924253 L 94.958092 7.443567 L 95.189088 6.481413 L 96.299649 6.134611 L 96.610606 6.29823 L 96.608829 5.796701 L 97.632321 5.750461 L 97.774473 5.334298 L 98.995201 5.104875 L 99.405664 5.641974 L 99.778812 5.284501 L 100.160845 5.33252 L 101.184338 6.483192 L 101.822244 6.227092 L 102.632508 6.348028 L 103.487196 6.961601 L 104.585318 7.043411 L 105.063303 7.429339 L 104.619079 7.856173 L 105.187686 8.016236 L 105.519965 8.540885 L 104.117994 9.07087 L 104.633294 9.901417 L 104.290353 9.903196 L 104.045141 10.346035 L 104.08601 11.365101 L 103.624017 11.998237 L 103.522734 13.075992 L 105.100618 14.071937 L 105.614141 14.795775 L 106.177417 14.893591 L 107.202687 13.977678 L 107.341285 13.246725 L 107.883238 12.645601 L 108.151549 12.759424 L 108.807224 12.293464 L 110.043944 11.97156 L 110.285602 12.606475 L 110.916401 12.61181 L 112.160228 10.844008 L 111.994977 10.554117 L 112.451639 10.203758 L 113.338311 10.511433 L 113.741666 10.337143 L 113.746997 9.990341 L 114.155683 9.960107 L 115.975225 11.107222 L 116.426557 11.09833 L 116.597139 10.559452 L 117.011156 10.547003 L 116.993387 9.705785 L 117.213722 10.194865 L 118.866236 10.017018 L 119.020826 11.114336 L 119.866629 11.012963 L 120.339283 11.717238 L 122.327631 11.646099 L 122.850038 12.247223 L 122.478667 12.576241 L 123.038389 13.513496 L 123.926838 13.54373 L 124.729995 14.189316 L 125.072936 15.012749 L 124.927231 15.766822 L 125.424762 15.809505 L 125.181327 16.229225 L 125.467407 16.250566 L 125.419431 16.869475 L 125.680635 16.896152 L 125.847663 16.27013 L 126.412716 16.175871 L 126.999092 18.235343 L 127.734727 18.230007 L 127.725843 17.94723 L 128.047461 17.918774 L 128.445486 17.351441 L 128.210936 17.070443 L 128.681813 17.01531 L 129.424556 17.557744 L 129.749728 17.262518 L 130.145976 19.629666 L 129.442325 20.116967 L 130.222383 20.933286 L 129.17046 21.564644 L 129.803035 23.860653 L 129.577369 24.511574 L 129.211328 24.589827 L 127.992377 25.96103 L 127.903532 27.339347 L 128.944794 27.600782 L 128.950125 27.99916 L 129.326827 28.157444 L 129.598692 29.576666 L 130.222383 29.850551 L 130.403626 30.494358 L 130.673714 30.544156 L 130.464041 31.234203 L 130.862065 31.312456 L 130.622184 32.808152 L 130.888719 34.58129 L 130.711029 34.734238 L 129.865226 34.366094 L 129.378357 34.872959 L 130.321889 36.030745 L 129.865226 36.173023 L 129.897211 36.649654 L 129.314388 36.662103 L 129.317942 36.992899 L 128.525446 36.935988 L 127.928409 37.232993 L 128.166513 38.163135 L 127.823572 38.61131 L 127.960393 38.938549 L 127.54993 39.038143 L 126.769872 41.062046 L 128.274904 41.670284 L 128.980332 42.440363 L 130.137092 43.080613 L 130.520901 43.75999 L 130.863842 43.487883 L 130.773221 44.97113 L 132.447057 45.277027 L 132.834421 44.944453 L 133.11517 45.170319 L 133.955642 45.092066 L 134.369659 46.267637 L 133.275091 47.665517 L 133.124055 48.64012 L 132.480818 48.969138 L 132.333336 49.659185 L 133.596709 50.594662 L 134.2435 50.48084 L 134.286145 50.76006 L 133.074302 50.717377 L 133.335506 51.213571 L 132.061471 51.814695 L 131.36315 52.803526 L 131.071739 52.06546 L 130.030478 51.967644 L 129.705306 51.314944 L 129.293066 51.642183 L 129.104715 52.643463 L 128.676483 52.85688 L 127.972831 52.627457 L 127.338479 52.823089 L 127.231866 52.30911 L 126.636605 52.312667 L 126.062668 51.949859 L 125.607782 52.097472 L 125.716173 52.995601 L 123.663857 53.619845 L 124.367508 54.220969 L 123.832662 54.594449 L 123.496829 55.332515 L 123.777578 55.474793 L 123.045497 56.065246 L 123.658526 56.280441 L 123.027728 56.289333 L 123.214302 56.901128 L 122.617265 56.616573 L 122.535528 56.102594 L 122.09308 56.424497 L 121.517366 54.729612 L 121.147771 54.478848 L 121.094465 55.206243 L 120.383706 55.142218 L 119.863075 55.974544 L 118.644124 55.657975 L 118.942643 54.740283 L 119.580549 54.183621 L 119.713816 53.23036 L 119.271369 52.99738 L 119.045703 54.164058 L 118.395359 54.110704 L 117.846297 53.685649 L 117.590424 54.622904 L 117.217276 54.647803 L 117.238599 54.164058 L 116.822805 53.584276 L 116.142254 53.817256 L 116.490525 53.182341 L 115.840181 53.305055 L 115.719352 53.676756 L 116.1387 54.130267 L 115.719352 54.82565 L 115.401288 54.393481 L 114.852227 54.35969 L 115.534555 54.98927 L 115.097438 55.135104 L 115.099215 55.39654 L 114.331596 55.152889 L 114.690529 56.131049 L 114.48974 56.237758 L 113.878487 56.239536 L 114.139691 55.41966 L 113.377402 55.867835 L 112.625775 55.490799 L 112.810572 55.236477 L 112.362794 54.781188 L 112.647098 54.379253 L 112.460524 54.226305 L 112.035845 54.864776 L 111.55253 54.541094 L 111.122521 54.934137 L 109.073759 55.216914 L 107.892122 54.448614 L 107.89923 54.119596 L 107.081858 54.427272 L 106.877515 54.814979 L 107.069419 55.441002 L 106.342669 55.382312 L 105.617695 56.908242 L 105.363599 56.778414 L 104.88739 57.319069 L 104.611971 57.068305 L 104.141094 57.183905 L 103.620463 57.454233 L 103.119378 57.139444 L 103.471204 56.652142 L 103.423227 56.191517 L 103.615132 56.516978 L 103.895882 56.180847 L 103.901213 55.41966 L 104.450274 55.067522 L 103.849683 54.90746 L 103.515626 54.309893 L 103.666662 53.95242 L 103.309506 53.891952 L 103.256199 53.507801 L 104.176632 53.525586 L 104.505357 53.054291 L 104.947805 53.032949 L 104.537342 52.494072 L 104.57821 51.857378 L 104.834083 51.791575 L 104.537342 51.00549 L 104.224608 50.87744 L 105.040203 49.813913 L 104.869621 49.2697 L 105.253431 48.428482 L 105.194793 47.74377 L 105.718978 47.315158 L 105.2712 46.413472 L 104.633294 46.569977 L 104.281469 47.493005 L 103.684431 47.366733 L 103.95985 46.954128 L 103.352152 47.692194 L 102.943465 47.364955 L 102.481472 47.841586 L 101.77249 47.866484 L 101.28029 47.63884 L 101.020863 46.669572 L 101.346035 46.349447 L 100.962226 46.160929 L 101.106154 45.863924 L 100.217706 46.168043 L 99.251074 45.839025 L 98.090761 46.500617 L 97.802903 47.482334 L 95.937162 46.575313 L 95.333017 46.802957 L 95.601328 47.446765 L 95.196196 47.816687 L 94.382377 47.907389 L 93.486821 47.427202 L 92.758294 47.779339 L 92.184356 47.640618 L 91.999559 47.146203 L 92.212787 46.475718 L 91.425621 45.118743 L 91.022266 45.196996 L 90.638456 44.871536 L 90.482089 45.193439 L 88.511511 45.172098 L 88.069064 47.55703 L 87.667485 48.254192 L 87.328098 48.259527 L 86.537379 47.121304 L 86.123362 46.970134 L 85.991871 46.395687 L 85.659592 46.57887 L 85.51744 46.073783 L 85.467687 46.696249 L 85.295328 45.758994 L 84.104807 44.899991 L 83.12396 45.369508 L 83.17549 45.161427 L 82.956932 45.474438 L 83.136398 45.890601 L 82.404317 46.385016 L 82.034723 46.127138 L 81.139167 46.626889 L 81.036107 47.322272 L 80.568783 47.505454 L 80.115674 46.731819 L 79.3907 46.827856 L 78.827424 46.500617 L 79.010444 46.057777 L 78.66928 45.792785 L 78.063359 46.475718 L 77.841246 46.319213 L 76.91193 46.676686 L 76.40196 45.901272 L 76.561881 45.33216 L 75.870668 44.720365 L 75.860007 42.787165 L 74.761885 42.086447 L 73.116478 42.154029 L 73.443427 40.957116 L 72.983211 40.779269 L 72.464357 41.02292 L 72.373736 40.107006 L 71.304044 39.420515 L 70.961103 39.649938 L 70.104639 39.125289 L 69.727936 38.351653 L 69.278382 38.228938 L 69.46851 37.206316 L 68.544523 36.505598 L 68.77552 35.986283 L 68.526754 35.527437 L 67.682728 35.694614 L 67.533469 35.306907 L 67.224289 35.557671 L 67.0235 35.282008 L 66.677005 35.783538 L 66.502869 35.324691 L 65.84364 35.557671 L 65.474046 35.404723 L 65.106228 35.573678 L 65.538014 35.707063 L 65.458054 36.030745 L 64.471876 36.037859 L 63.67405 36.430902 L 63.560328 35.808436 L 62.551051 34.803599 L 62.094388 34.897858 L 61.653718 35.539887 L 61.468921 35.031243 L 61.122426 34.997452 L 60.809692 35.506096 L 61.275239 35.865347 L 61.143749 36.397111 L 60.864776 36.139232 L 60.635556 36.414896 L 60.223316 36.217485 L 59.892814 36.334864 L 59.88926 36.674553 L 59.516111 36.70123 L 59.066557 36.112555 L 58.81246 36.210371 L 58.330921 35.794208 L 58.037733 36.103663 L 57.442473 35.986283 L 57.744545 36.480699 L 56.994695 37.184974 L 55.996079 36.544724 L 55.66913 36.848843 L 53.272097 35.73374 L 53.049985 36.096549 L 53.37871 36.148125 L 53.346726 36.466471 L 53.099738 36.617641 L 52.765681 36.356206 L 52.264596 37.216987 L 51.848802 36.971558 L 51.632021 35.927594 L 50.930147 35.573678 L 51.573383 33.539104 L 52.028269 33.25277 L 51.372594 32.331521 L 53.488878 31.115045 L 54.183645 31.595233 L 54.439518 31.383595 L 55.235567 31.710834 L 56.1329 30.821597 L 56.56824 31.301785 L 58.789361 30.894515 L 58.85866 30.56194 L 59.274453 30.45701 L 58.821345 29.701159 L 59.288669 29.647805 L 59.706239 29.19963 L 59.729339 28.363747 L 61.419168 27.319784 L 61.367638 26.547926 L 60.71374 26.133542 L 59.537434 26.103308 L 58.631217 25.596443 L 58.08571 26.113979 L 58.019964 25.735164 L 57.655701 26.190453 L 57.271891 25.985929 L 56.925396 26.185118 L 54.926387 25.342121 L 55.381273 25.114477 L 55.470118 24.716099 L 56.770806 24.161215 L 56.561132 22.612165 L 56.836551 22.645956 L 56.600224 22.308046 L 56.987588 21.738935 L 56.328359 20.659401 L 57.748099 19.000086 L 58.286499 18.749321 L 58.121248 17.67868 L 58.412659 17.187822 L 58.060833 15.633436 L 58.338029 14.930939 L 59.521442 15.030534 L 59.963889 15.592531 L 60.617787 15.729474 L 60.905645 15.144356 L 62.087281 14.649941 L 62.959737 12.416178 L 63.359539 12.458862 L 64.470099 11.2495 L 65.841863 11.313525 L 65.984015 10.803103 L 66.792503 10.554117 L 68.924779 12.513994 L 70.028232 12.103167 L 70.323197 11.660327 L 71.424873 12.256116 L 74.497127 12.449969 L 74.896929 10.667939 L 74.642833 9.36254 L 75.120818 8.738296 L 75.120818 8.275893 L 76.522789 6.9865 L 77.548059 6.689495 L 77.796824 6.173737 L 77.572935 5.892739 L 78.093566 5.464127 L 77.720418 5.079976 L 78.777671 4.576668 L 79.25921 4.7723 L 80.474607 2.566994 L 80.80511 2.399817 L 81.586945 2.639911 L 82.029392 2.022781 L 82.418532 2.120597 L 82.473616 1.706213 Z M 83.298096 1.000159 " stroke="rgb(100%, 100%, 100%)" stroke-width="0.5" stroke-opacity="1" stroke-miterlimit="4"/></svg>