<svg xmlns="http://www.w3.org/2000/svg" xmlns:xlink="http://www.w3.org/1999/xlink" width="624" zoomAndPan="magnify" viewBox="0 0 468 308.250004" height="411" preserveAspectRatio="xMidYMid meet" version="1.0"><defs><clipPath id="id1"><path d="M 0.566406 0 L 467.429688 0 L 467.429688 307.5 L 0.566406 307.5 Z M 0.566406 0 " clip-rule="nonzero"/></clipPath><clipPath id="id2"><path d="M 277 102 L 421.667969 102 L 421.667969 217 L 277 217 Z M 277 102 " clip-rule="nonzero"/></clipPath><clipPath id="id3"><path d="M 276 160 L 389 160 L 389 307.5 L 276 307.5 Z M 276 160 " clip-rule="nonzero"/></clipPath><clipPath id="id4"><path d="M 46.082031 17 L 147 17 L 147 130 L 46.082031 130 Z M 46.082031 17 " clip-rule="nonzero"/></clipPath></defs><g clip-path="url(#id1)"><path fill="rgb(100%, 100%, 100%)" d="M 0.566406 0 L 467.433594 0 L 467.433594 307.5 L 0.566406 307.5 Z M 0.566406 0 " fill-opacity="1" fill-rule="nonzero"/><path fill="rgb(100%, 100%, 100%)" d="M 0.566406 0 L 467.433594 0 L 467.433594 307.5 L 0.566406 307.5 Z M 0.566406 0 " fill-opacity="1" fill-rule="nonzero"/><path fill="rgb(100%, 100%, 100%)" d="M 0.566406 0 L 467.433594 0 L 467.433594 307.5 L 0.566406 307.5 Z M 0.566406 0 " fill-opacity="1" fill-rule="nonzero"/></g><path stroke-linecap="butt" transform="matrix(1.8969, 0, 0, 1.89814, 46.082215, 0.00166256)" fill-opacity="1" fill="rgb(17.248535%, 44.309998%, 94.119263%)" fill-rule="nonzero" stroke-linejoin="miter" d="M 114.666863 1.168032 L 117.566331 2.736179 L 117.906112 7.475606 L 114.139687 8.092987 L 119.973631 7.864556 L 121.6087 9.796958 L 127.152285 2.334882 L 129.685201 3.551122 L 131.023734 6.747097 L 129.361894 9.885449 L 132.568195 16.267109 L 137.955275 17.168485 L 137.792592 20.695787 L 136.616742 24.007007 L 139.052872 29.649867 L 126.332691 35.716663 L 124.736748 38.982608 L 116.374007 40.882083 L 115.049889 38.636874 L 110.23323 41.869892 L 109.559845 39.760508 L 104.421939 42.49962 L 94.850399 42.143598 L 94.096702 39.324225 L 86.9407 38.766524 L 84.41808 38.498993 L 83.619079 33.580525 L 90.703007 31.563748 L 91.58232 29.18889 L 89.434489 21.189692 L 91.069559 18.761328 L 86.773898 13.149336 L 85.705131 11.430959 L 96.676982 12.245902 L 93.96079 5.541146 L 98.791864 2.987247 L 102.107306 2.651804 L 101.979631 7.430331 L 107.28434 7.4612 Z M 114.666863 1.168032 " stroke="rgb(100%, 100%, 100%)" stroke-width="0.5" stroke-opacity="1" stroke-miterlimit="4"/><path stroke-linecap="butt" transform="matrix(1.8969, 0, 0, 1.89814, 46.082215, 0.00166256)" fill-opacity="1" fill="rgb(17.248535%, 44.309998%, 94.119263%)" fill-rule="nonzero" stroke-linejoin="miter" d="M 79.797053 65.429145 L 82.595616 63.517322 L 87.309311 66.832657 L 91.794426 63.181878 L 93.740447 64.601854 L 99.887401 61.45527 L 101.508056 63.686073 L 105.101501 60.778209 L 107.084589 62.490412 L 107.510861 57.948547 L 113.511606 57.345572 L 121.917592 62.451311 L 124.812942 60.28842 L 126.726014 61.879205 L 124.860305 70.578101 L 115.033415 74.790696 L 108.561094 73.494196 L 108.816445 76.71075 L 105.342437 76.480261 L 104.178943 78.688427 L 98.511801 79.74209 L 98.668307 77.303436 L 95.723534 76.784836 L 91.652335 78.478517 L 83.96092 69.014069 L 80.114182 71.370406 Z M 79.797053 65.429145 " stroke="rgb(100%, 100%, 100%)" stroke-width="0.5" stroke-opacity="1" stroke-miterlimit="4"/><path stroke-linecap="butt" transform="matrix(1.8969, 0, 0, 1.89814, 46.082215, 0.00166256)" fill-opacity="1" fill="rgb(17.248535%, 44.309998%, 94.119263%)" fill-rule="nonzero" stroke-linejoin="miter" d="M 96.446342 49.97816 L 96.650211 50.130448 L 99.667058 58.520653 L 94.294393 60.720587 L 87.210466 56.394805 L 89.906065 51.202632 L 94.014331 49.986392 L 96.283659 49.613906 Z M 96.446342 49.97816 " stroke="rgb(100%, 100%, 100%)" stroke-width="0.5" stroke-opacity="1" stroke-miterlimit="4"/><path stroke-linecap="butt" transform="matrix(1.8969, 0, 0, 1.89814, 46.082215, 0.00166256)" fill-opacity="1" fill="rgb(17.248535%, 44.309998%, 94.119263%)" fill-rule="nonzero" stroke-linejoin="miter" d="M 47.153326 60.520967 L 55.849671 64.280816 L 58.265208 60.152596 L 62.418778 59.444666 L 63.258965 62.136447 L 69.430631 63.373266 L 70.246106 66.711239 L 79.797053 65.427087 L 80.114182 71.368348 L 83.96092 69.014069 L 91.652335 78.478517 L 95.723534 76.784836 L 98.668307 77.305494 L 98.509742 79.744148 L 104.178943 78.688427 L 103.820628 86.699972 L 106.155853 88.041746 L 104.96353 95.765181 L 95.264315 96.991711 L 89.383007 101.430679 L 95.136639 103.274589 L 93.205033 108.33917 L 96.786124 126.251446 L 81.986069 123.320945 L 82.908627 117.879762 L 86.48148 116.20666 L 84.941138 111.160601 L 81.281795 111.105036 L 85.359172 100.099194 L 83.003354 98.738898 L 81.745133 101.220769 L 75.981205 93.182471 L 69.733345 95.732254 L 61.854535 93.803968 L 59.83644 97.473268 L 57.297346 92.338717 L 57.379717 85.424052 L 54.725303 82.277467 L 49.220845 82.981282 L 50.147521 80.079592 L 47.900845 79.311981 L 42.870021 82.668475 L 38.562005 80.013738 L 35.903472 69.326876 L 36.992832 65.830442 L 32.756891 61.447038 L 39.307464 61.494371 L 42.058664 65.171903 Z M 16.723327 65.379754 L 15.656619 61.887437 L 21.72738 59.990019 L 20.518582 58.397177 L 23.766069 57.036881 L 24.713338 60.053815 L 20.662732 62.375167 L 19.138864 66.501329 Z M 16.723327 65.379754 " stroke="rgb(100%, 100%, 100%)" stroke-width="0.5" stroke-opacity="1" stroke-miterlimit="4"/><path fill="rgb(17.248535%, 44.309998%, 94.119263%)" d="M 351.5 108.074219 L 350.496094 116.253906 L 369.847656 123.691406 L 370.785156 116.632812 L 383.191406 116.679688 L 385.085938 122.261719 L 392.550781 121.722656 L 398.390625 136.339844 L 407.246094 136.324219 L 398.492188 149.121094 L 403.097656 156.222656 L 415.121094 157.222656 L 417.597656 165.222656 L 414.191406 173.746094 L 420.574219 180.519531 L 416.105469 185.234375 L 410.886719 182.984375 L 408.257812 190.777344 L 398.253906 195.558594 L 399.65625 203.472656 L 395.332031 204.570312 L 394.707031 211.453125 L 392.191406 205.972656 L 387.117188 207.941406 L 383.597656 203.398438 L 379.214844 181.230469 L 367.933594 178.644531 L 366.253906 188.675781 L 369.722656 188.90625 L 362.617188 192.6875 L 354.527344 191.621094 L 354.320312 177.132812 L 336.417969 171.914062 L 334.039062 166.992188 L 329.796875 169.660156 L 325.203125 166.296875 L 322.605469 173.972656 L 313.324219 176.121094 L 307.28125 170.296875 L 303.671875 158.796875 L 300.289062 160.375 L 298.171875 153.699219 L 287.933594 150.59375 L 282.929688 133.96875 L 286.46875 117.457031 L 294.261719 123.738281 L 300.53125 125.761719 L 301.421875 121.421875 L 313.980469 122.59375 L 321.957031 117.808594 L 324.933594 122.226562 L 330.621094 121.496094 L 350.957031 108.058594 Z M 351.5 108.074219 " fill-opacity="1" fill-rule="nonzero"/><g clip-path="url(#id2)"><path stroke-linecap="butt" transform="matrix(1.8969, 0, 0, 1.89814, 46.082215, 0.00166256)" fill="none" stroke-linejoin="miter" d="M 161.008929 56.936042 L 160.479694 61.24536 L 170.681373 65.163671 L 171.175601 61.44498 L 177.715878 61.469675 L 178.714629 64.410466 L 182.649916 64.126471 L 185.728542 71.827268 L 190.396932 71.819036 L 185.782083 78.560835 L 188.209975 82.302163 L 194.548443 82.828994 L 195.854028 87.043647 L 194.058334 91.534064 L 197.4232 95.102525 L 195.067382 97.586454 L 192.316182 96.401083 L 190.930286 100.506665 L 185.656467 103.025579 L 186.395749 107.194958 L 184.116124 107.773238 L 183.786639 111.399321 L 182.460462 108.512037 L 179.785456 109.549237 L 177.930043 107.155857 L 175.61953 95.47707 L 169.672325 94.114716 L 168.786834 99.399496 L 170.615476 99.520914 L 166.869644 101.512996 L 162.604872 100.95118 L 162.49573 93.318295 L 153.058044 90.568892 L 151.803942 87.975892 L 149.567562 89.381463 L 147.145847 87.60958 L 145.776425 91.653424 L 140.883573 92.785289 L 137.697865 89.716906 L 135.795089 83.658343 L 134.011751 84.489749 L 132.895621 80.972736 L 127.498245 79.336677 L 124.860305 70.578101 L 126.726014 61.879205 L 130.83428 65.188366 L 134.139427 66.254377 L 134.608943 63.96801 L 141.229532 64.585391 L 145.434585 62.064419 L 147.003757 64.391945 L 150.002071 64.007111 L 160.722689 56.927811 Z M 161.008929 56.936042 " stroke="rgb(100%, 100%, 100%)" stroke-width="0.5" stroke-opacity="1" stroke-miterlimit="4"/></g><path stroke-linecap="butt" transform="matrix(1.8969, 0, 0, 1.89814, 46.082215, 0.00166256)" fill-opacity="1" fill="rgb(17.248535%, 44.309998%, 94.119263%)" fill-rule="nonzero" stroke-linejoin="miter" d="M 165.638193 60.401607 L 171.17766 61.447038 L 170.681373 65.163671 L 160.479694 61.24536 Z M 152.957139 19.284043 L 154.293613 23.788865 L 169.206928 30.106729 L 162.392766 44.82303 L 164.256416 45.817013 L 158.525436 52.143109 L 160.724748 56.923695 L 150.002071 64.002995 L 147.005816 64.389887 L 145.434585 62.060303 L 141.229532 64.581275 L 134.608943 63.96801 L 134.139427 66.254377 L 130.830162 65.188366 L 135.167008 49.568631 L 130.352409 49.132349 L 127.881271 46.432336 L 131.6374 40.132994 L 133.746104 39.842825 L 131.693001 37.772541 L 128.641146 40.610435 L 124.736748 38.984666 L 126.332691 35.718721 L 139.052872 29.653983 L 136.616742 24.009065 L 137.792592 20.697845 L 146.946097 20.551732 L 150.442757 17.454538 Z M 152.957139 19.284043 " stroke="rgb(100%, 100%, 100%)" stroke-width="0.5" stroke-opacity="1" stroke-miterlimit="4"/><path fill="rgb(17.248535%, 44.309998%, 94.119263%)" d="M 322.605469 173.972656 L 325.203125 166.296875 L 329.796875 169.660156 L 334.042969 166.992188 L 336.421875 171.914062 L 354.324219 177.132812 L 354.527344 191.621094 L 362.617188 192.6875 L 369.722656 188.90625 L 366.253906 188.675781 L 367.933594 178.644531 L 379.214844 181.230469 L 383.597656 203.398438 L 371.277344 214.113281 L 363.742188 229.054688 L 365.425781 233.820312 L 359.515625 236.84375 L 355.609375 246.085938 L 360.320312 249.140625 L 356.101562 255.542969 L 357.4375 262.304688 L 360.714844 261.660156 L 364.359375 272.53125 L 370.050781 274.546875 L 368.0625 279.390625 L 372.453125 281.285156 L 365.742188 297.761719 L 347.265625 297.96875 L 343.550781 304.527344 L 338.253906 301.152344 L 330.144531 305.921875 L 325.96875 291.335938 L 318.1875 286.136719 L 314.800781 289.074219 L 316.496094 282.699219 L 311.128906 276.960938 L 300.511719 276.839844 L 293.535156 266.46875 L 281.398438 260.671875 L 283.402344 252.972656 L 296.054688 242.582031 L 281.875 226.710938 L 288.546875 223.03125 L 290.859375 212.613281 L 291.851562 217.09375 L 310.546875 214.039062 L 307.957031 210.984375 L 311.691406 207.117188 L 304.574219 198.574219 L 322.636719 187.710938 L 322.101562 183.523438 L 317.65625 183.722656 L 322.652344 180.503906 Z M 322.605469 173.972656 " fill-opacity="1" fill-rule="nonzero"/><g clip-path="url(#id3)"><path stroke-linecap="butt" transform="matrix(1.8969, 0, 0, 1.89814, 46.082215, 0.00166256)" fill="none" stroke-linejoin="miter" d="M 145.776425 91.653424 L 147.145847 87.60958 L 149.567562 89.381463 L 151.806001 87.975892 L 153.060103 90.568892 L 162.497789 93.318295 L 162.604872 100.95118 L 166.869644 101.512996 L 170.615476 99.520914 L 168.786834 99.399496 L 169.672325 94.114716 L 175.61953 95.47707 L 177.930043 107.155857 L 171.43507 112.800776 L 167.462717 120.672381 L 168.350267 123.183063 L 165.234574 124.775906 L 163.175293 129.644983 L 165.658786 131.254289 L 163.434762 134.627246 L 164.139037 138.189533 L 165.866774 137.849974 L 167.788083 143.57721 L 170.788456 144.639105 L 169.740282 147.190946 L 172.054914 148.189045 L 168.517069 156.869419 L 158.776668 156.97849 L 156.818292 160.433765 L 154.025906 158.655708 L 149.750838 161.168448 L 147.549467 153.484114 L 143.447378 150.745002 L 141.661981 152.292569 L 142.555709 148.934018 L 139.726257 145.91091 L 134.12913 145.847114 L 130.451254 140.383293 L 124.053067 137.329316 L 125.109478 133.273124 L 131.77949 127.799014 L 124.304299 119.43762 L 127.821552 117.499044 L 129.040646 112.010528 L 129.563704 114.370981 L 139.419424 112.761675 L 138.054121 111.152369 L 140.022793 109.115012 L 136.270783 104.614306 L 145.7929 98.891186 L 145.510778 96.685078 L 143.167316 96.790033 L 145.801137 95.094293 Z M 145.776425 91.653424 " stroke="rgb(100%, 100%, 100%)" stroke-width="0.5" stroke-opacity="1" stroke-miterlimit="4"/></g><path stroke-linecap="butt" transform="matrix(1.8969, 0, 0, 1.89814, 46.082215, 0.00166256)" fill-opacity="1" fill="rgb(17.248535%, 44.309998%, 94.119263%)" fill-rule="nonzero" stroke-linejoin="miter" d="M 104.178943 78.688427 L 105.340378 76.480261 L 108.814386 76.71075 L 108.561094 73.494196 L 115.031356 74.790696 L 124.860305 70.578101 L 127.498245 79.336677 L 132.895621 80.972736 L 134.011751 84.489749 L 135.795089 83.658343 L 137.697865 89.716906 L 140.883573 92.785289 L 145.774366 91.653424 L 145.801137 95.096351 L 143.165257 96.790033 L 145.510778 96.685078 L 145.79084 98.891186 L 136.270783 104.614306 L 140.022793 109.115012 L 138.054121 111.152369 L 139.419424 112.761675 L 129.563704 114.370981 L 129.038587 112.010528 L 127.821552 117.499044 L 124.304299 119.43762 L 131.77949 127.799014 L 125.109478 133.273124 L 124.053067 137.329316 L 118.072914 137.991971 L 117.846393 132.192708 L 119.942742 128.817692 L 114.911917 124.140004 L 117.53956 118.661778 L 116.466675 116.531814 L 120.34842 110.85191 L 116.806456 108.337112 L 110.023184 114.941029 L 109.979939 121.99975 L 96.786124 126.249388 L 93.205033 108.337112 L 95.136639 103.272532 L 89.383007 101.428621 L 95.264315 96.989653 L 104.96353 95.763123 L 106.155853 88.039688 L 103.822688 86.699972 Z M 104.178943 78.688427 " stroke="rgb(100%, 100%, 100%)" stroke-width="0.5" stroke-opacity="1" stroke-miterlimit="4"/><path stroke-linecap="butt" transform="matrix(1.8969, 0, 0, 1.89814, 46.082215, 0.00166256)" fill-opacity="1" fill="rgb(17.248535%, 44.309998%, 94.119263%)" fill-rule="nonzero" stroke-linejoin="miter" d="M 86.773898 13.153452 L 91.069559 18.765443 L 89.43243 21.193808 L 91.578201 29.193006 L 90.703007 31.565806 L 83.619079 33.582583 L 84.41808 38.501051 L 86.9407 38.768582 L 86.570029 41.645577 L 82.082855 44.333242 L 83.021888 47.239047 L 79.562295 47.204062 L 76.829629 54.793731 L 77.900455 58.730563 L 72.140645 59.845964 L 72.284795 63.373266 L 69.428572 63.373266 L 63.258965 62.136447 L 62.418778 59.444666 L 58.263149 60.152596 L 55.847612 64.280816 L 47.153326 60.523025 L 50.314323 57.440237 L 46.803248 52.443568 L 48.125307 50.033725 L 44.945777 49.455445 L 47.219223 46.350019 L 44.844872 45.228444 L 46.496415 37.926886 L 40.639819 33.753392 L 44.680129 28.771129 L 42.097791 26.233694 L 43.180973 19.518648 L 45.580035 21.947013 L 50.6088 21.85029 L 50.017786 18.506143 L 53.87688 16.966807 L 63.380463 20.438545 L 64.07444 24.377435 L 68.97553 23.677737 L 68.952878 25.51959 L 77.824262 21.973766 Z M 86.773898 13.153452 " stroke="rgb(100%, 100%, 100%)" stroke-width="0.5" stroke-opacity="1" stroke-miterlimit="4"/><path stroke-linecap="butt" transform="matrix(1.8969, 0, 0, 1.89814, 46.082215, 0.00166256)" fill-opacity="1" fill="rgb(17.248535%, 44.309998%, 94.119263%)" fill-rule="nonzero" stroke-linejoin="miter" d="M 124.738808 38.984666 L 128.641146 40.610435 L 131.693001 37.772541 L 133.748163 39.842825 L 131.639459 40.132994 L 127.881271 46.432336 L 130.352409 49.132349 L 135.167008 49.568631 L 130.832221 65.188366 L 126.723955 61.879205 L 124.815001 60.28842 L 121.919652 62.449253 L 113.507488 57.345572 L 107.508801 57.948547 L 107.08253 62.490412 L 105.097383 60.778209 L 101.505996 63.686073 L 99.885342 61.45527 L 93.738387 64.603912 L 91.790307 63.183936 L 87.305193 66.836773 L 82.591498 63.521438 L 79.794994 65.431202 L 70.244047 66.715355 L 69.430631 63.377382 L 72.282736 63.377382 L 72.140645 59.852138 L 77.900455 58.734678 L 76.831688 54.801963 L 79.564354 47.212294 L 83.023947 47.243163 L 82.086974 44.337357 L 86.572088 41.649693 L 86.944818 38.772698 L 94.098762 39.332457 L 94.854518 42.149771 L 104.423998 42.507852 L 109.563964 39.768739 L 110.23529 41.878124 L 115.051949 38.645106 L 116.376066 40.890314 Z M 96.283659 49.613906 L 90.785378 50.38769 L 87.243414 56.48947 L 94.296453 60.720587 L 99.667058 58.518595 L 96.648152 50.130448 Z M 96.283659 49.613906 " stroke="rgb(100%, 100%, 100%)" stroke-width="0.5" stroke-opacity="1" stroke-miterlimit="4"/><path fill="rgb(17.248535%, 44.309998%, 94.119263%)" d="M 126.746094 22.648438 L 127.996094 37.050781 L 125.9375 49.796875 L 130.835938 54.613281 L 123.171875 64.070312 L 134.28125 71.992188 L 131.148438 85.851562 L 135.652344 87.980469 L 131.339844 93.875 L 137.371094 94.972656 L 134.863281 99.546875 L 141.523438 109.03125 L 135.527344 114.878906 L 125.867188 123.707031 L 120.648438 116.726562 L 108.222656 116.632812 L 105.59375 111.464844 L 92.960938 113.996094 L 91.164062 108.273438 L 85.003906 110.851562 L 87.296875 113.871094 L 75.78125 117.472656 L 77.804688 124.101562 L 70.757812 121.148438 L 64.34375 108.359375 L 55.878906 108.042969 L 52.421875 102.359375 L 51.527344 91.640625 L 55.550781 87.398438 L 47.03125 65.652344 L 108.785156 28.332031 L 109.039062 23.28125 L 110.207031 28.566406 L 110.238281 23.15625 L 113.121094 26.742188 Z M 126.746094 22.648438 " fill-opacity="1" fill-rule="nonzero"/><g clip-path="url(#id4)"><path stroke-linecap="butt" transform="matrix(1.8969, 0, 0, 1.89814, 46.082215, 0.00166256)" fill="none" stroke-linejoin="miter" d="M 42.524062 11.931038 L 43.183032 19.518648 L 42.097791 26.233694 L 44.680129 28.771129 L 40.639819 33.753392 L 46.496415 37.926886 L 44.844872 45.228444 L 47.219223 46.350019 L 44.945777 49.455445 L 48.125307 50.033725 L 46.803248 52.443568 L 50.314323 57.440237 L 47.153326 60.520967 L 42.060724 65.171903 L 39.309524 61.494371 L 32.75895 61.44498 L 31.373054 58.722331 L 24.713338 60.055873 L 23.766069 57.040997 L 20.518582 58.399235 L 21.72738 59.990019 L 15.656619 61.887437 L 16.723327 65.379754 L 13.008383 63.823954 L 9.627043 57.086272 L 5.164581 56.919579 L 3.342117 53.925282 L 2.870541 48.278305 L 4.991601 46.043386 L 0.500309 34.586856 L 33.055486 14.925335 L 33.18934 12.264423 L 33.805065 15.048811 L 33.821539 12.198569 L 35.341289 14.087755 Z M 42.524062 11.931038 " stroke="rgb(100%, 100%, 100%)" stroke-width="0.5" stroke-opacity="1" stroke-miterlimit="4"/></g></svg>