<svg xmlns="http://www.w3.org/2000/svg" xmlns:xlink="http://www.w3.org/1999/xlink" width="411" zoomAndPan="magnify" viewBox="0 0 308.25 262.500001" height="350" preserveAspectRatio="xMidYMid meet" version="1.0"><defs><clipPath id="id1"><path d="M 0 0.0703125 L 307.5 0.0703125 L 307.5 261.933594 L 0 261.933594 Z M 0 0.0703125 " clip-rule="nonzero"/></clipPath><clipPath id="id2"><path d="M 15 0.40625 L 292 0.40625 L 292 260.292969 L 15 260.292969 Z M 15 0.40625 " clip-rule="nonzero"/></clipPath></defs><g clip-path="url(#id1)"><path fill="rgb(100%, 100%, 100%)" d="M 0 0.0703125 L 308.25 0.0703125 L 308.25 1882.488281 L 0 1882.488281 Z M 0 0.0703125 " fill-opacity="1" fill-rule="nonzero"/><path fill="rgb(100%, 100%, 100%)" d="M 0 0.0703125 L 307.5 0.0703125 L 307.5 261.933594 L 0 261.933594 Z M 0 0.0703125 " fill-opacity="1" fill-rule="nonzero"/><path fill="rgb(100%, 100%, 100%)" d="M 0 0.0703125 L 307.5 0.0703125 L 307.5 261.933594 L 0 261.933594 Z M 0 0.0703125 " fill-opacity="1" fill-rule="nonzero"/><path fill="rgb(100%, 100%, 100%)" d="M 0 0.0703125 L 307.5 0.0703125 L 307.5 261.933594 L 0 261.933594 Z M 0 0.0703125 " fill-opacity="1" fill-rule="nonzero"/></g><path fill="rgb(17.248535%, 44.309998%, 94.119263%)" d="M 213.53125 215.117188 C 215.898438 211.683594 220.636719 211.253906 224.296875 210.824219 C 225.589844 210.609375 227.316406 210.609375 227.746094 210.179688 C 229.039062 208.675781 229.683594 200.085938 230.117188 195.359375 C 230.332031 193.640625 230.332031 192.136719 230.546875 191.0625 C 231.191406 185.050781 237.007812 184.621094 244.332031 184.191406 L 247.347656 183.976562 C 250.148438 183.761719 251.652344 183.546875 251.867188 183.117188 C 252.082031 182.6875 251.867188 181.183594 251.4375 179.464844 C 251.007812 177.960938 250.574219 175.816406 250.363281 173.453125 C 249.929688 170.660156 250.574219 168.511719 251.867188 166.578125 C 254.882812 162.5 261.34375 162.285156 266.515625 161.855469 C 267.378906 161.855469 268.238281 161.855469 269.097656 161.640625 C 275.347656 160.996094 284.609375 160.351562 288.054688 153.90625 C 289.5625 150.898438 285.039062 145.960938 280.085938 140.804688 C 275.777344 136.082031 270.605469 130.710938 268.453125 124.910156 C 267.59375 122.976562 266.730469 119.972656 268.238281 118.039062 C 270.175781 115.675781 274.914062 117.179688 279.652344 118.683594 C 282.238281 119.542969 285.039062 120.402344 286.332031 120.1875 C 288.054688 119.972656 289.992188 119.113281 290.421875 117.609375 C 291.070312 115.460938 289.128906 112.023438 285.039062 108.375 C 281.378906 104.9375 277.070312 102.574219 272.976562 100.210938 C 265.871094 96.132812 258.976562 92.050781 255.960938 84.101562 C 252.515625 74.867188 261.5625 60.691406 268.453125 50.382812 C 271.253906 46.300781 273.40625 42.648438 274.269531 40.503906 C 274.914062 38.785156 274.484375 38.140625 274.484375 37.925781 C 273.40625 35.992188 268.023438 35.5625 263.5 35.132812 C 261.777344 34.917969 259.835938 34.917969 258.332031 34.703125 C 257.253906 34.488281 256.175781 34.273438 255.316406 33.84375 C 252.945312 37.925781 247.5625 43.292969 239.59375 40.074219 C 231.625 36.636719 229.039062 31.910156 226.667969 26.972656 C 226.023438 25.46875 225.160156 23.964844 224.296875 22.460938 C 221.929688 18.59375 217.621094 17.734375 215.898438 17.519531 C 213.53125 17.304688 211.808594 17.949219 211.59375 18.164062 C 211.160156 18.808594 210.945312 19.453125 210.300781 19.667969 C 209.4375 19.882812 209.007812 19.453125 208.359375 19.023438 C 207.285156 18.164062 204.914062 16.445312 198.453125 13.871094 C 194.578125 12.367188 191.777344 12.152344 190.269531 13.226562 C 188.761719 14.300781 188.546875 16.230469 188.546875 17.304688 L 188.546875 17.734375 C 188.546875 18.378906 188.113281 18.808594 187.683594 19.023438 C 186.605469 19.667969 185.097656 19.023438 179.5 15.800781 C 178.636719 15.371094 177.777344 14.945312 177.34375 14.730469 C 175.835938 14.515625 166.792969 19.023438 165.5 20.3125 C 165.285156 20.742188 164.636719 21.171875 163.5625 21.171875 C 160.761719 20.957031 156.023438 16.015625 154.300781 13.011719 C 153.867188 12.152344 153.007812 11.722656 152.359375 11.722656 C 150.851562 11.722656 148.914062 12.796875 147.621094 14.515625 C 145.039062 17.949219 140.730469 15.371094 136.421875 13.011719 C 134.484375 11.9375 132.546875 10.863281 131.039062 10.21875 C 128.238281 9.359375 122.421875 9.144531 117.683594 9.144531 C 113.375 9.144531 110.574219 8.929688 109.285156 8.5 C 108.207031 8.070312 106.699219 6.996094 105.191406 5.492188 C 101.960938 2.699219 98.945312 0.339844 97.4375 2.054688 C 93.558594 6.351562 81.066406 8.714844 77.40625 7.210938 C 75.253906 6.566406 69.222656 6.996094 65.773438 8.929688 C 64.914062 9.359375 64.050781 10.21875 63.835938 11.078125 C 63.621094 12.367188 63.40625 14.730469 63.191406 17.089844 C 62.757812 23.75 62.328125 28.261719 60.175781 29.546875 C 59.527344 29.976562 58.667969 30.191406 57.375 29.546875 C 53.929688 27.832031 52.207031 25.683594 49.40625 22.03125 C 48.328125 20.742188 47.035156 19.023438 45.3125 17.089844 C 39.5 10.21875 26.789062 4.847656 24.421875 6.351562 C 22.050781 7.855469 14.082031 32.769531 16.882812 42.21875 C 18.605469 48.234375 25.714844 50.382812 30.667969 51.886719 C 33.25 52.746094 34.976562 53.175781 36.050781 54.25 C 37.34375 55.753906 41.867188 61.335938 39.929688 71.429688 C 39.5 74.4375 41.003906 75.511719 44.238281 77.445312 C 47.25 79.378906 51.128906 81.742188 51.558594 87.324219 C 51.773438 90.761719 51.558594 93.339844 51.558594 95.058594 C 51.34375 98.0625 51.34375 99.136719 53.28125 101.929688 C 55.867188 105.796875 75.46875 124.265625 85.375 133.289062 L 207.5 256.574219 C 211.375 258.71875 215.253906 260.226562 217.621094 259.792969 C 220.421875 259.363281 223.222656 258.933594 225.589844 258.292969 C 226.238281 258.078125 226.882812 258.078125 227.53125 257.863281 C 224.945312 252.707031 216.976562 235.523438 213.746094 223.496094 C 212.023438 220.273438 212.238281 217.265625 213.53125 215.117188 Z M 213.53125 215.117188 " fill-opacity="1" fill-rule="nonzero"/><g clip-path="url(#id2)"><path stroke-linecap="butt" transform="matrix(1.970557, 0, 0, 1.968829, 13.959456, 0.0735074)" fill="none" stroke-linejoin="round" d="M 101.276821 109.224176 C 102.478099 107.480198 104.882637 107.261953 106.740059 107.043708 C 107.396202 106.934585 108.272382 106.934585 108.490436 106.71634 C 109.14658 105.952482 109.47366 101.58956 109.693696 99.188863 C 109.802723 98.315882 109.802723 97.552023 109.91175 97.00641 C 110.238831 93.952961 113.190486 93.734715 116.907312 93.51647 L 118.437653 93.407347 C 119.858967 93.298225 120.622155 93.189102 120.731182 92.970857 C 120.840209 92.752612 120.731182 91.988753 120.513128 91.115772 C 120.295075 90.351914 120.075039 89.262672 119.967994 88.062323 C 119.747958 86.643728 120.075039 85.552502 120.731182 84.570399 C 122.261523 82.499053 125.540259 82.38993 128.164834 82.171685 C 128.602924 82.171685 129.039031 82.171685 129.475139 82.062562 C 132.64683 81.735194 137.34688 81.407826 139.095275 78.134147 C 139.860445 76.606431 137.564934 74.098594 135.051368 71.479651 C 132.864884 69.080937 130.240309 66.352872 129.148058 63.406561 C 128.71195 62.424457 128.273861 60.898724 129.039031 59.916621 C 130.022255 58.716272 132.426794 59.48013 134.831332 60.243989 C 136.14362 60.680479 137.564934 61.11697 138.221077 61.007847 C 139.095275 60.898724 140.078499 60.462234 140.296553 59.698375 C 140.625616 58.607149 139.640409 56.861187 137.564934 55.008086 C 135.707512 53.262124 133.521027 52.061775 131.44357 50.861427 C 127.837753 48.790081 124.338981 46.716751 122.80864 42.679213 C 121.060245 37.988924 125.651268 30.788815 129.148058 25.552913 C 130.569372 23.479583 131.661623 21.624498 132.099713 20.535256 C 132.426794 19.662275 132.20874 19.334907 132.20874 19.225784 C 131.661623 18.243681 128.930004 18.025436 126.634493 17.80719 C 125.760295 17.698068 124.775089 17.698068 124.0119 17.588945 C 123.464784 17.479822 122.917667 17.3707 122.481559 17.152454 C 121.278299 19.225784 118.54668 21.951866 114.502773 20.317011 C 110.458867 18.571049 109.14658 16.170351 107.943319 13.662514 C 107.616239 12.898656 107.178149 12.134798 106.740059 11.370939 C 105.538781 9.406732 103.352296 8.970241 102.478099 8.861119 C 101.276821 8.751996 100.402623 9.079364 100.293596 9.188487 C 100.07356 9.515855 99.964533 9.843222 99.637453 9.952345 C 99.199363 10.061468 98.981309 9.843222 98.652246 9.624977 C 98.107112 9.188487 96.903851 8.315506 93.625115 7.008018 C 91.658667 6.24416 90.237352 6.135037 89.472182 6.68065 C 88.707011 7.226263 88.597984 8.206383 88.597984 8.751996 L 88.597984 8.970241 C 88.597984 9.297609 88.377948 9.515855 88.159895 9.624977 C 87.612778 9.952345 86.847607 9.624977 84.006961 7.988138 C 83.568871 7.769892 83.132764 7.553631 82.912728 7.444509 C 82.147557 7.335386 77.558516 9.624977 76.902373 10.279713 C 76.793346 10.497958 76.464283 10.716203 75.919148 10.716203 C 74.497834 10.607081 72.093296 8.09726 71.219098 6.571528 C 70.999062 6.135037 70.562955 5.916792 70.233892 5.916792 C 69.468721 5.916792 68.485497 6.462405 67.829353 7.335386 C 66.519048 9.079364 64.332564 7.769892 62.146079 6.571528 C 61.162855 6.025914 60.17963 5.480301 59.41446 5.152933 C 57.993146 4.716443 55.04149 4.60732 52.636952 4.60732 C 50.450467 4.60732 49.029153 4.498198 48.374992 4.279952 C 47.827875 4.061707 47.062704 3.516094 46.297534 2.752236 C 44.658166 1.333641 43.127825 0.135277 42.362654 1.006274 C 40.394223 3.188726 34.054805 4.389075 32.197384 3.625217 C 31.105132 3.297849 28.04445 3.516094 26.294073 4.498198 C 25.857966 4.716443 25.419876 5.152933 25.310849 5.589424 C 25.201822 6.24416 25.092795 7.444509 24.983768 8.642874 C 24.763732 12.025675 24.545678 14.31725 23.453427 14.970002 C 23.124364 15.188247 22.688256 15.29737 22.032113 14.970002 C 20.283718 14.099005 19.409521 13.007779 17.988206 11.152694 C 17.44109 10.497958 16.784946 9.624977 15.910749 8.642874 C 12.961076 5.152933 6.510648 2.424868 5.30937 3.188726 C 4.10611 3.952585 0.0622035 16.606841 1.483518 21.406253 C 2.357715 24.461687 5.965514 25.552913 8.479079 26.316771 C 9.789384 26.753262 10.665564 26.971507 11.210699 27.51712 C 11.866842 28.280979 14.162354 31.116183 13.179129 36.242962 C 12.961076 37.770679 13.724264 38.316292 15.365614 39.298396 C 16.893973 40.2805 18.862404 41.480849 19.080458 44.316053 C 19.189485 46.062015 19.080458 47.371486 19.080458 48.244467 C 18.971431 49.7702 18.971431 50.315813 19.954655 51.734408 C 21.266942 53.698615 31.214159 63.079193 36.24129 67.662343 L 98.216138 130.280876 C 100.182587 131.370118 102.151018 132.13596 103.352296 131.915731 C 104.77361 131.697486 106.194924 131.47924 107.396202 131.153857 C 107.725265 131.044734 108.052346 131.044734 108.381409 130.935611 C 107.069122 128.316668 103.025215 119.588842 101.385847 113.479959 C 100.51165 111.843119 100.620677 110.315403 101.276821 109.224176 Z M 101.276821 109.224176 " stroke="rgb(100%, 100%, 100%)" stroke-width="0.5" stroke-opacity="1" stroke-miterlimit="10"/></g></svg>