<svg width="24" height="24" viewBox="0 0 24 24" fill="none" xmlns="http://www.w3.org/2000/svg">
<path d="M16.17 12.5825L5 12.5825C4.45 12.5825 4 12.1325 4 11.5825C4 11.0325 4.45 10.5825 5 10.5825L16.17 10.5825L11.29 5.7025C10.9 5.3125 10.9 4.6825 11.29 4.2925C11.68 3.9025 12.31 3.9025 12.7 4.2925L19.29 10.8825C19.68 11.2725 19.68 11.9025 19.29 12.2925L12.7 18.8825C12.5132 19.0698 12.2595 19.175 11.995 19.175C11.7305 19.175 11.4768 19.0698 11.29 18.8825C10.9 18.4925 10.9 17.8525 11.29 17.4625L16.17 12.5825Z" fill="#2C71F0"/>
</svg>
