<svg xmlns="http://www.w3.org/2000/svg" xmlns:xlink="http://www.w3.org/1999/xlink" width="624" zoomAndPan="magnify" viewBox="0 0 468 308.250004" height="411" preserveAspectRatio="xMidYMid meet" version="1.0"><defs><clipPath id="id1"><path d="M 0.566406 0 L 467.429688 0 L 467.429688 307.5 L 0.566406 307.5 Z M 0.566406 0 " clip-rule="nonzero"/></clipPath></defs><g clip-path="url(#id1)"><path fill="rgb(100%, 100%, 100%)" d="M 0.566406 0 L 467.433594 0 L 467.433594 307.5 L 0.566406 307.5 Z M 0.566406 0 " fill-opacity="1" fill-rule="nonzero"/><path fill="rgb(100%, 100%, 100%)" d="M 0.566406 0 L 467.433594 0 L 467.433594 307.5 L 0.566406 307.5 Z M 0.566406 0 " fill-opacity="1" fill-rule="nonzero"/><path fill="rgb(100%, 100%, 100%)" d="M 0.566406 0 L 467.433594 0 L 467.433594 307.5 L 0.566406 307.5 Z M 0.566406 0 " fill-opacity="1" fill-rule="nonzero"/></g><path stroke-linecap="butt" transform="matrix(2.899753, 0, 0, 2.900087, 0.569906, 1.512736)" fill-opacity="1" fill="rgb(17.248535%, 44.309998%, 94.119263%)" fill-rule="nonzero" stroke-linejoin="round" d="M 104.082296 83.496617 C 104.237212 81.896449 104.786828 80.313791 105.698813 79.040931 L 105.596434 78.938563 L 106.610798 77.940479 C 107.452734 77.114803 108.519636 76.683781 109.690263 76.460189 C 110.739653 76.236596 111.908933 76.185413 113.113239 76.134229 C 117.499389 75.858106 119.770595 73.983162 121.593219 72.453035 C 124.517768 69.976008 126.546497 68.272125 131.932193 72.831526 L 132.085762 72.986424 C 137.607516 77.595661 139.294082 79.007257 145.812688 75.773248 C 144.712109 74.551571 143.680232 73.227527 143.526663 71.970829 C 143.335375 70.405682 143.02689 69.029107 142.510951 67.946165 C 142.028691 66.914407 141.341671 66.173589 140.359636 65.795098 C 139.22538 65.347913 137.677565 64.729666 136.661853 63.696561 C 135.543762 62.562436 135.045336 61.013452 136.249641 58.846221 C 137.35022 56.816379 138.58955 56.179275 139.843698 55.526008 C 140.980649 54.941435 142.132417 54.339352 143.232996 52.515592 C 144.488491 50.383382 144.282385 47.888844 144.042602 45.170714 C 143.870173 43.123361 143.680232 40.973641 144.058767 38.669022 C 144.764646 34.488113 150.990931 31.581411 155.273355 29.569079 C 156.805005 28.845771 158.095525 28.243687 158.71519 27.780339 C 160.624027 26.368743 160.606515 23.049877 160.417921 18.147006 C 158.576439 18.388109 150.904717 19.333662 148.050217 18.043291 C 145.176858 16.736757 139.448998 13.622626 138.69193 12.45348 C 138.209669 11.730172 134.5981 10.096331 131.604849 9.649146 C 128.646622 9.219471 127.819504 8.48 124.723874 5.726849 C 122.195371 3.490924 114.902184 5.485746 109.053086 7.085914 C 108.037375 7.36069 107.040522 7.636814 106.09486 7.877916 C 99.712311 9.529268 89.270957 16.633043 87.964272 19.14509 C 86.897371 21.208606 82.631112 23.06604 77.88394 23.06604 C 76.042457 23.06604 74.116108 22.791264 72.293485 22.137997 C 65.343808 19.660969 61.507273 18.55917 59.047473 18.301904 L 58.910069 18.284394 C 56.330377 18.009618 53.663124 17.733495 50.842301 20.486645 C 47.55673 23.703144 35.756154 17.390024 34.466982 16.203368 C 33.382568 15.222794 28.617883 13.795035 26.312999 15.205284 C 23.73196 16.787941 15.475598 18.868967 13.635463 16.719247 C 12.379968 15.240304 11.399281 12.281071 13.806544 6.587545 C 14.047675 6.036646 14.065187 5.520767 13.910271 5.056072 C 13.343143 3.490924 10.762104 2.355452 8.492244 1.357367 C 8.35484 1.288673 8.233601 1.23749 8.078685 1.168795 C 8.319815 1.839573 8.508409 2.700269 8.388517 3.663333 C 8.199924 5.107255 7.390318 6.381463 5.979907 7.464405 C 5.222838 8.048978 4.535818 8.531183 3.898641 8.978368 C 1.112843 10.939517 -0.0577851 11.747682 0.750474 15.101569 C 1.026629 16.203368 1.164033 17.338841 1.336461 18.421782 C 1.799863 22.016772 2.264611 25.405679 6.410978 27.968911 C 7.752687 28.812097 9.163099 29.586589 10.520973 30.32606 C 14.942148 32.750557 18.743657 34.849093 17.694268 37.757142 C 17.523187 38.221837 17.384436 38.685186 17.230867 39.167391 C 16.283857 42.074093 15.320682 45.066999 11.038259 46.839576 C 9.57531 47.441659 8.302303 47.716435 7.305451 47.922518 C 4.930518 48.439743 4.139771 48.610805 4.259663 51.79363 C 4.449604 56.747685 4.449604 56.747685 5.963742 58.846221 C 6.410978 59.465815 6.772 59.877979 7.06432 60.222797 C 8.164899 61.513168 8.629648 62.217619 7.321616 64.143746 C 6.858214 64.815871 6.375953 65.263056 5.946229 65.67522 C 4.983054 66.5871 4.483281 67.034285 5.257862 69.356414 C 5.824991 71.07646 7.011784 72.125728 8.663325 73.588507 C 10.349892 75.084961 12.44867 76.942394 14.61615 80.245097 L 15.028362 80.864691 C 18.400147 85.991154 22.735108 92.56154 21.891825 97.876575 C 23.749472 98.427475 31.318814 100.578542 34.792979 99.820213 L 36.048474 99.545437 C 39.95371 98.702251 44.855799 97.636819 47.160683 96.087835 L 47.694134 95.726855 C 50.704897 93.697012 56.948695 89.482429 60.510421 92.836316 C 62.350557 94.591382 62.401746 96.139019 62.436771 97.274492 C 62.454283 98.35878 62.487961 98.770945 64.0708 99.029558 C 65.808556 99.304334 68.027226 98.978374 70.004766 98.686087 C 72.533268 98.307597 74.545832 98.013963 75.337925 98.978374 C 75.595221 99.304334 75.922566 99.769029 76.266076 100.284908 C 77.454216 102.091158 79.019543 104.534512 81.065785 104.414634 C 83.301967 104.242225 84.420058 103.587611 86.106624 102.589527 C 86.518836 102.348424 86.966073 102.091158 87.464499 101.816382 C 89.184742 100.853318 93.451001 98.857149 95.928313 101.110584 C 96.977703 102.057485 99.023944 102.434629 100.606784 101.937607 C 101.34634 101.712667 102.29335 101.196788 102.63686 100.096336 C 103.341392 97.790371 102.568158 96.672408 101.157747 94.642566 C 100.951641 94.350279 100.728023 94.024319 100.504404 93.697012 C 99.849715 92.716438 99.643609 91.580966 99.953441 90.445493 C 100.384513 88.742958 101.793577 87.435077 102.58567 87.056586 C 102.92918 86.901687 103.635059 86.764299 104.459483 86.626911 C 104.082296 85.663847 103.962404 84.579558 104.082296 83.496617 Z M 104.082296 83.496617 " stroke="rgb(100%, 100%, 100%)" stroke-width="0.5" stroke-opacity="1" stroke-miterlimit="10"/></svg>