<svg xmlns="http://www.w3.org/2000/svg" xmlns:xlink="http://www.w3.org/1999/xlink" width="411" zoomAndPan="magnify" viewBox="0 0 308.25 262.500001" height="350" preserveAspectRatio="xMidYMid meet" version="1.0"><defs><clipPath id="id1"><path d="M 0 0.0703125 L 307.5 0.0703125 L 307.5 261.933594 L 0 261.933594 Z M 0 0.0703125 " clip-rule="nonzero"/></clipPath><clipPath id="id2"><path d="M 129 193 L 183.429688 193 L 183.429688 261.933594 L 129 261.933594 Z M 129 193 " clip-rule="nonzero"/></clipPath><clipPath id="id3"><path d="M 154 15 L 183.429688 15 L 183.429688 55 L 154 55 Z M 154 15 " clip-rule="nonzero"/></clipPath><clipPath id="id4"><path d="M 156 0.0703125 L 174 0.0703125 L 174 16 L 156 16 Z M 156 0.0703125 " clip-rule="nonzero"/></clipPath></defs><g clip-path="url(#id1)"><path fill="rgb(100%, 100%, 100%)" d="M 0 0.0703125 L 307.5 0.0703125 L 307.5 261.933594 L 0 261.933594 Z M 0 0.0703125 " fill-opacity="1" fill-rule="nonzero"/><path fill="rgb(100%, 100%, 100%)" d="M 0 0.0703125 L 307.5 0.0703125 L 307.5 261.933594 L 0 261.933594 Z M 0 0.0703125 " fill-opacity="1" fill-rule="nonzero"/><path fill="rgb(100%, 100%, 100%)" d="M 0 0.0703125 L 307.5 0.0703125 L 307.5 261.933594 L 0 261.933594 Z M 0 0.0703125 " fill-opacity="1" fill-rule="nonzero"/></g><path stroke-linecap="butt" transform="matrix(1.61393, 0, 0, 1.616435, -42.519498, 0.0694107)" fill-opacity="1" fill="rgb(17.248535%, 44.309998%, 94.119263%)" fill-rule="nonzero" stroke-linejoin="miter" d="M 118.068701 107.886489 L 118.189718 107.5675 L 117.836349 107.613415 L 117.514445 107.46117 L 116.933564 106.88844 L 116.480962 107.074517 L 116.25103 107.038268 L 116.17842 106.88119 L 116.226827 106.646782 L 116.565674 106.588784 L 116.679429 106.405123 L 116.364786 105.875892 L 116.456759 105.588318 L 117.204642 105.481989 L 118.414809 104.616852 L 118.906136 103.352979 L 118.925499 102.930077 L 118.49468 103.278065 L 117.899278 102.789915 L 117.899278 102.661836 L 117.161076 102.415345 L 116.75688 102.031108 L 116.766561 101.748368 L 117.224004 101.339966 L 117.608838 100.387832 L 118.160674 100.242837 L 118.141311 100.122008 L 119.244983 100.337084 L 119.641918 99.786103 L 119.794399 99.846517 L 120.055795 100.44583 L 120.472092 100.689905 L 120.556804 100.984728 L 121.006986 100.93398 L 121.052972 100.755152 L 121.503155 100.532827 L 121.854103 100.641573 L 122.021106 100.958145 L 121.46685 101.958611 L 121.537039 102.702918 L 121.355514 102.898662 L 121.595127 103.060573 L 122.810135 103.02674 L 123.468466 103.159653 L 123.749224 103.630886 L 123.487828 103.887044 L 123.371652 104.587853 L 123.204649 104.819845 L 122.909368 104.810179 L 122.517274 104.573354 L 121.996903 104.749764 L 121.619331 104.624102 L 121.39666 104.790846 L 120.733488 104.616852 L 120.622153 104.76668 L 120.67056 105.283829 L 122.226834 105.619734 L 123.042487 106.78211 L 123.141721 107.120432 L 122.599566 107.905822 L 121.6871 108.277975 L 121.553982 109.060948 L 121.677419 109.611929 L 122.013845 109.769007 L 122.159065 110.199159 L 121.638693 110.846803 L 121.200613 110.996631 L 121.701622 111.450949 L 121.938815 113.483295 L 121.486212 113.961778 L 121.082016 114.10194 L 120.961 115.128988 L 121.328891 115.621971 L 121.309528 115.996541 L 120.827881 116.274448 L 120.370438 116.907593 L 120.058215 116.907593 L 119.758094 117.091253 L 119.72905 117.224166 L 119.893633 117.352244 L 119.825863 117.782396 L 119.165112 119.30726 L 119.230461 119.524753 L 119.852487 120.087816 L 119.9493 121.385521 L 118.973906 121.992084 L 119.082821 123.574946 L 118.460795 124.200841 L 117.729854 124.447332 L 117.424892 124.884734 L 117.134452 125.790952 L 114.249414 123.304288 L 113.908147 123.125461 L 113.445863 123.224541 L 113.177206 122.663894 L 113.808914 122.009 L 114.305082 122.352155 L 114.387373 121.702094 L 113.704839 121.404854 L 114.07031 121.250193 L 113.603185 121.071366 L 112.877085 120.341558 L 112.371235 120.080567 L 112.419642 119.713246 L 112.758489 119.50542 L 113.327267 119.821992 L 113.56204 120.621881 L 113.760507 120.827291 L 113.85732 120.798292 L 113.395036 119.737412 L 114.205848 119.691497 L 114.568898 119.940405 L 115.183663 119.855824 L 115.757282 120.372973 L 115.88556 120.892538 L 116.084027 120.556633 L 116.54147 120.660547 L 116.749619 120.45272 L 116.785924 120.160314 L 116.742358 120.053984 L 116.718155 120.312559 L 116.46402 120.517968 L 116.10339 120.300476 L 115.5927 119.640749 L 115.563656 119.275844 L 115.832313 119.275844 L 116.096129 119.640749 L 116.938405 119.725329 L 116.575355 119.536835 L 116.146956 119.546502 L 115.372449 118.657199 L 115.294998 118.292295 L 115.551554 117.95639 L 115.331303 117.473074 L 115.186083 117.775146 L 115.328883 117.973306 L 115.190924 118.688615 L 114.665712 118.976188 L 114.343807 118.891608 L 114.261516 118.691031 L 113.20625 118.497705 L 112.463208 118.618534 L 112.071114 118.330961 L 112.511615 117.661567 L 112.717343 117.555237 L 113.082813 117.618069 L 113.578982 118.468706 L 113.891205 118.509788 L 113.63707 118.461456 L 113.499111 118.188382 L 113.629809 117.958807 L 114.307502 117.898392 L 114.259096 117.516572 L 113.917829 117.750981 L 113.477328 117.816228 L 112.760909 117.013923 L 113.431341 115.998958 L 113.905727 115.972376 L 114.121137 116.603104 L 114.036425 115.974792 L 114.658451 115.126571 L 114.338967 114.846248 L 114.017062 114.899413 L 113.666114 114.358098 L 113.603185 113.964195 L 113.365992 113.865115 L 112.468049 113.956945 L 112.458367 114.220353 L 113.053769 114.302517 L 112.83836 114.50551 L 111.214316 113.797451 L 110.989225 113.224721 L 111.432146 112.66649 L 111.417624 112.354751 L 110.979543 112.968563 L 110.635856 113.215054 L 109.851668 113.323801 L 109.319194 113.572709 L 109.207859 113.942446 L 109.718549 113.570292 L 109.892814 113.62829 L 110.142108 114.394347 L 109.674983 114.756834 L 109.418428 114.691587 L 108.958565 113.998027 L 108.977927 113.25372 L 109.178815 112.951647 L 109.425689 112.961313 L 109.975105 112.528745 L 109.950902 112.366834 L 110.173572 112.125175 L 110.388982 112.009179 L 110.539043 112.200089 L 110.601971 111.695024 L 110.960181 111.301121 L 111.383739 111.301121 L 111.816979 110.825054 L 112.288944 109.508016 L 113.27644 109.350938 L 113.445863 109.549098 L 113.958974 109.379937 L 114.104194 109.549098 L 114.273618 110.05658 L 114.138079 110.677642 L 113.942032 110.94105 L 114.21553 110.762223 L 114.283299 110.232991 L 114.535014 110.479482 L 114.547115 110.713891 L 114.21795 111.144043 L 113.457965 111.458199 L 112.901288 111.153709 L 113.390196 111.533113 L 114.309923 111.218957 L 114.443041 111.646692 L 114.898064 111.914933 L 114.401895 111.291454 L 114.585841 110.967632 L 114.806091 110.945883 L 115.224809 111.42195 L 115.077168 112.096176 L 114.479346 112.898482 L 114.864179 113.103892 L 116.309118 110.64381 L 115.466842 111.760271 L 115.682252 110.692142 L 115.537032 110.211242 L 115.931546 109.425852 L 116.422874 108.894204 L 117.086045 108.775791 L 116.643124 108.625963 L 116.381728 108.683961 L 115.81295 109.278441 L 116.021099 107.799492 L 116.984391 107.096266 L 117.630621 107.768076 Z M 118.085643 104.549188 L 117.231265 105.332161 L 116.773822 105.465073 L 116.352684 104.935841 L 116.691531 104.778763 L 116.998913 104.829511 L 116.703633 104.660351 L 116.413193 104.788429 L 116.176 104.133535 L 116.330901 103.908793 L 116.781083 103.833879 L 116.933564 103.104071 L 117.671766 102.879329 L 118.405127 103.343313 L 118.57213 103.633303 L 118.247806 104.10937 L 117.734695 103.961958 L 118.192138 104.264031 Z M 110.587449 123.091629 L 110.468853 123.139961 L 110.326053 122.791973 L 110.205037 122.098413 L 110.284908 121.815673 L 109.958163 121.61993 L 109.628997 121.760092 L 109.440211 121.665845 L 109.510401 121.501517 L 109.970264 121.351689 L 110.115484 121.143863 L 109.495879 121.271942 L 109.343398 120.16998 L 109.590272 119.875157 L 110.057396 119.744662 L 110.962601 122.161245 L 110.977123 122.668727 Z M 112.446266 123.05538 L 112.054172 122.77264 L 111.2482 122.617979 L 111.132024 122.178161 L 111.485393 121.699677 L 111.737108 121.685178 L 112.013026 122.103247 L 112.165507 121.912337 L 111.836342 121.310607 L 112.075955 120.312559 L 112.267161 121.155946 L 112.562442 121.682761 L 112.530977 122.492316 L 112.690719 122.707392 L 112.748807 122.528565 L 112.891607 122.591396 L 112.826258 122.924885 Z M 111.148967 121.854339 L 110.604392 120.815208 L 110.415606 120.058817 L 111.107821 120.182063 L 111.862965 120.588049 L 111.75163 121.462852 Z M 115.314361 107.026185 L 114.997297 106.820776 L 114.455143 106.835275 L 114.094513 106.409957 L 113.726622 106.504203 L 113.680636 106.076468 L 113.883944 105.866225 L 114.94405 105.747813 L 115.403913 106.342292 Z M 113.428921 119.638332 L 112.848041 119.302427 L 113.506372 118.780445 L 114.680234 119.162265 L 114.951311 119.051102 L 115.079589 119.142932 L 115.011819 119.442589 L 114.847237 119.519919 L 114.087252 119.452255 Z M 113.603185 104.860927 L 113.247396 104.616852 L 113.165105 104.053788 L 113.654012 103.928126 L 114.450302 103.959541 L 114.837555 104.27853 Z M 111.003747 110.757389 L 110.923876 110.467399 L 111.386159 110.35382 L 111.282085 110.232991 L 111.023109 110.26199 L 110.897252 109.735175 L 111.018269 109.672344 L 111.410363 109.856004 L 112.124361 109.39927 L 111.865386 110.455317 L 111.468451 110.815387 Z M 109.28773 123.038464 L 109.812943 122.68806 L 109.515241 122.799222 L 109.14493 122.697726 L 109.234483 121.864005 L 110.139688 121.81084 L 110.205037 122.615562 L 109.636258 123.065047 Z M 112.976319 109.290524 L 112.848041 109.065781 L 113.005363 108.843456 L 112.947275 108.188562 L 113.179627 107.755993 L 113.56446 107.983152 L 113.775029 108.633213 L 113.687897 108.841039 Z M 111.596728 120.051568 L 111.139285 119.884823 L 111.161068 119.732579 L 111.011008 119.657665 L 110.686683 119.889657 L 110.384141 119.858241 L 110.660059 119.515086 L 111.083618 119.401507 L 111.780674 118.794944 L 111.855704 119.896906 Z M 115.566076 109.205943 L 115.152199 108.790291 L 115.142517 108.157146 L 115.466842 107.748744 L 115.793587 107.879239 Z M 113.559619 105.873475 L 113.290962 105.808227 L 113.320006 105.65115 L 113.910568 105.131584 L 114.547115 105.283829 L 114.733481 105.532737 Z M 115.268375 104.573354 L 115.021501 104.28578 L 115.011819 103.855628 L 115.437798 103.671968 L 115.764543 104.430775 Z M 114.472085 100.970228 L 113.917829 100.716487 L 113.956554 100.43858 L 114.721379 100.349167 L 114.900484 100.189672 L 115.210287 100.745486 L 114.919847 100.772069 L 114.839976 100.549743 L 114.566478 100.583575 L 114.675393 100.822817 Z M 114.447882 107.357257 L 114.019483 107.202596 L 113.988018 106.774861 L 114.232472 106.685447 L 114.413997 106.924689 L 114.990036 106.929522 L 115.111053 107.060017 L 115.082009 107.323425 Z M 112.758489 121.349273 L 112.521296 120.844207 L 112.627791 120.293226 L 113.269179 120.952953 Z M 115.181243 111.289038 L 114.660871 110.638977 L 114.743162 110.394902 L 114.999718 110.380402 L 115.466842 110.663143 Z M 113.157844 103.7058 L 112.802055 103.618803 L 112.705241 103.307064 L 113.436182 103.012241 L 113.598345 103.067822 L 113.741144 103.367479 L 113.123959 103.531806 Z M 114.493868 109.039199 L 114.251835 108.969118 L 114.092093 108.546216 L 114.355909 108.186145 L 114.781888 108.548633 L 114.692335 108.935286 Z M 109.261106 123.562863 L 109.14493 123.485532 L 109.149771 123.118211 L 109.58059 123.217291 L 110.113064 122.77989 L 110.263125 122.883803 L 110.326053 123.139961 L 110.209877 123.280122 Z M 114.00254 108.374639 L 114.259096 107.656913 L 114.803671 107.886489 L 115.031182 107.830907 L 114.888382 108.319057 L 114.305082 108.089482 Z M 113.900886 115.788715 L 113.7121 115.515641 L 113.850059 115.095156 L 114.341387 115.075823 L 114.525332 115.218402 L 114.188906 115.667886 Z M 114.948891 105.539987 L 114.672973 105.204082 L 114.65119 104.868177 L 114.818193 104.699016 L 114.985196 104.771513 L 115.186083 105.293495 L 115.16188 105.535154 Z M 113.574141 121.967918 L 112.869824 121.416937 L 113.339369 121.073782 L 113.499111 121.13903 L 113.448284 121.41452 L 113.750826 121.801174 Z M 112.192131 109.073031 L 112.296205 108.548633 L 112.673777 108.360139 L 112.581804 109.114113 L 112.439005 109.189027 Z M 114.743162 110.259573 L 114.624566 109.976833 L 114.762525 109.725509 L 115.328883 109.39202 L 115.413595 109.817339 L 115.082009 109.778673 L 114.917426 110.194326 Z M 110.643117 118.939939 L 110.621334 118.765945 L 110.263125 118.623367 L 110.783496 118.272963 L 111.037631 118.705531 L 110.902093 118.935106 L 110.585029 119.03177 Z M 114.375272 109.933335 L 114.111455 109.324356 L 114.338967 109.09478 L 114.561637 109.172111 L 114.568898 109.329189 L 114.544695 109.740008 Z M 113.211091 105.100169 L 112.952115 104.96484 L 112.782692 104.529855 L 113.073132 104.471857 L 113.438602 104.998672 Z M 113.20141 107.540917 L 112.816577 107.287176 L 112.814156 107.052768 L 113.237715 107.0721 L 113.453124 107.519168 Z M 114.305082 103.734799 L 114.034005 103.62122 L 114.034005 103.241816 L 114.585841 103.408561 L 114.619725 103.681634 Z M 117.134452 101.368965 L 116.737517 101.076558 L 116.841592 100.832483 L 117.11751 100.706821 L 117.226425 100.854232 Z M 114.428519 102.722251 L 114.155021 102.514425 L 114.050947 102.127772 L 114.246994 101.910279 L 114.607624 102.309015 L 114.423678 102.37668 Z M 115.556395 101.852281 L 115.23691 101.226386 L 115.324042 100.967812 L 115.626584 101.284384 L 115.696774 101.596123 Z M 113.053769 122.245825 L 112.862563 121.629596 L 113.482168 122.018666 Z M 113.368413 107.089016 L 113.099756 106.825609 L 113.189308 106.436539 L 113.576562 106.699947 L 113.479748 107.098683 Z M 112.947275 104.375194 L 112.426903 104.367944 L 112.281683 104.235032 L 112.47773 104.027206 L 112.668936 104.032039 L 112.964217 104.116619 Z M 112.952115 115.723467 L 112.901288 115.351314 L 113.416819 115.240151 L 113.378094 115.476976 Z M 110.95776 105.402242 L 110.749612 104.95759 L 110.935977 104.720765 L 111.161068 105.042171 L 111.161068 105.25483 Z M 114.556797 103.181402 L 114.222791 103.002575 L 114.109035 102.698085 L 114.672973 102.833414 L 114.687495 103.203151 Z M 113.402297 103.841129 L 113.261918 103.638136 L 113.508792 103.490724 L 113.830697 103.464142 L 114.00254 103.7058 Z M 114.237313 122.079081 L 113.869422 121.847089 L 113.668534 121.503934 L 113.896046 121.496684 L 114.246994 121.743176 Z M 115.45232 110.44565 L 115.004558 110.237824 L 115.207866 109.836671 L 115.386971 109.962334 Z M 115.440219 104.996256 L 115.265954 104.875426 L 115.263534 104.628935 L 115.67015 104.537105 L 115.674991 104.955174 Z M 114.881121 102.127772 L 114.522912 102.048024 L 114.413997 101.883697 L 114.7238 101.687953 L 115.004558 101.965861 Z M 114.314763 105.092919 L 113.8549 104.899592 L 114.561637 104.730431 L 114.568898 104.967257 Z M 111.24336 118.691031 L 111.064255 118.54362 L 111.023109 118.231881 L 111.361956 118.289879 L 111.524118 118.502538 L 111.507176 118.623367 Z M 111.921053 104.322029 L 111.795196 104.056205 L 111.850864 103.700967 L 112.11226 103.916043 L 112.061433 104.249531 Z M 114.706857 107.710078 L 114.389794 107.610998 L 114.389794 107.507085 L 115.01666 107.441838 L 115.01908 107.589249 Z M 114.915006 102.748833 L 114.595522 102.688419 L 114.537434 102.490259 L 115.08927 102.458843 L 115.108633 102.690835 Z M 117.533807 100.054343 L 117.833929 99.926264 L 118.090484 100.090592 Z M 117.533807 100.054343 " stroke="rgb(100%, 100%, 100%)" stroke-width="0.5" stroke-opacity="1" stroke-miterlimit="4"/><path fill="rgb(17.248535%, 44.309998%, 94.119263%)" d="M 146.429688 226.667969 L 146.136719 226.605469 L 145.957031 226.148438 L 145.722656 223.574219 L 145.410156 223.105469 L 145.941406 226.929688 L 145.742188 227.3125 L 144.453125 226.21875 L 144.015625 224.480469 L 144.273438 224.320312 L 145.144531 226.074219 L 145.3125 226.019531 L 144.339844 223.824219 L 144.9375 223.304688 L 144.1875 223.519531 L 143.75 224.101562 L 143.277344 222.886719 L 142.683594 222.707031 L 142.6875 220.664062 L 143.160156 220.8125 L 143.695312 221.425781 L 144.242188 222.753906 L 143.335938 219.363281 L 143.542969 219.222656 L 143.792969 219.765625 L 143.6875 218.855469 L 143.441406 218.804688 L 142.703125 219.542969 L 141.753906 219.265625 L 141.519531 219.078125 L 141.394531 218.148438 L 140.960938 217.820312 L 140.902344 216.941406 L 141.253906 216.558594 L 142.660156 216.472656 L 142.957031 216.847656 L 143.476562 214.757812 L 144.089844 214.617188 L 144.609375 215.1875 L 144.765625 214.824219 L 143.984375 214.390625 L 143.625 213.808594 L 144.246094 213.34375 L 144.410156 212.65625 L 143.363281 213.789062 L 143.105469 215.59375 L 142.460938 216.179688 L 141.960938 216.121094 L 141.566406 215.65625 L 140.6875 213.277344 L 141.078125 213.140625 L 142.078125 213.707031 L 142.75 213.820312 L 141.5625 212.941406 L 140.671875 212.859375 L 138.609375 211.054688 L 138.703125 210.605469 L 139.144531 210.210938 L 140.371094 210.101562 L 141.125 211.148438 L 142.371094 211.714844 L 142.871094 211.722656 L 141.265625 211.023438 L 140.257812 209.320312 L 140.433594 208.804688 L 140.792969 208.851562 L 141.542969 209.488281 L 142.757812 209.992188 L 142.703125 209.523438 L 140.5 208.320312 L 140.375 207.78125 L 141.183594 207.378906 L 141.808594 207.34375 L 141.859375 207.097656 L 140.636719 207.285156 L 140.519531 206.355469 L 140.921875 205.941406 L 141.730469 205.671875 L 142.457031 205.84375 L 142.804688 206.710938 L 143.484375 207.210938 L 143.621094 207.683594 L 143.679688 207.425781 L 143.445312 206.757812 L 142.953125 206.628906 L 142.839844 205.621094 L 141.609375 205.230469 L 141.828125 203.476562 L 142.613281 204.148438 L 142.972656 204.144531 L 142.480469 203.898438 L 142.191406 203.414062 L 142.035156 202.136719 L 142.480469 201.597656 L 143.074219 201.828125 L 143.058594 201.652344 L 142.738281 201.480469 L 141.957031 201.566406 L 141.964844 202.609375 L 141.402344 203.925781 L 141.058594 205.625 L 140.238281 204.789062 L 140.125 201.105469 L 139.84375 199.945312 L 140.214844 199.25 L 140.585938 199.453125 L 141.074219 199.207031 L 141.839844 199.378906 L 146.496094 203.398438 L 146.917969 203.515625 L 146.664062 203.808594 L 144.957031 203.867188 L 144.347656 205.695312 L 144.695312 206.210938 L 145.050781 207.699219 L 144.625 208.195312 L 144.492188 208.90625 L 144.933594 209.398438 L 144.589844 210.355469 L 145.648438 211.40625 L 145.929688 212.046875 L 146.183594 214.242188 L 146.664062 215.648438 L 147.277344 215.480469 L 147.859375 214.808594 L 148.585938 214.425781 L 149.242188 214.84375 L 150.011719 214.28125 L 150.640625 214.375 L 151.039062 214.6875 L 150.804688 215.332031 L 151.304688 216.339844 L 151.183594 217.625 L 150.828125 217.816406 L 150.511719 218.429688 L 150.613281 218.847656 L 151.269531 219.503906 L 150.945312 220.113281 L 150.761719 221.554688 L 150.488281 221.796875 L 151.0625 223.320312 L 151.863281 223.683594 L 152.777344 224.648438 L 153.03125 225.835938 L 162.960938 225.839844 L 165.75 227.082031 L 166.929688 227.078125 L 169.03125 228.234375 L 171.074219 228.648438 L 171.042969 229.066406 L 170.695312 228.617188 L 168.441406 228.316406 L 167.355469 227.617188 L 166.746094 227.625 L 165.699219 228.140625 L 165.589844 229.113281 L 164.632812 230.351562 L 163.925781 230.113281 L 163.390625 230.230469 L 160.363281 231.851562 L 158.730469 232.09375 L 158.566406 233.347656 L 158.726562 234.335938 L 158.027344 236.011719 L 157.785156 237.746094 L 158.082031 239.613281 L 157.875 241.011719 L 157.507812 241.558594 L 156.277344 242.113281 L 155.402344 241.667969 L 154.125 241.449219 L 153.324219 240.851562 L 151.964844 240.371094 L 151.066406 239.433594 L 150.214844 237.894531 L 150.371094 237.15625 L 151.09375 236.511719 L 151.984375 236.625 L 152.074219 237.753906 L 151.382812 238.167969 L 152.019531 238.117188 L 152.5 237.777344 L 152.488281 236.488281 L 153.257812 236.324219 L 153.675781 238.117188 L 153.351562 238.574219 L 152.542969 239.050781 L 152.539062 239.300781 L 153.625 238.84375 L 153.839844 238.402344 L 153.925781 236.253906 L 156.058594 235.257812 L 157.097656 233.4375 L 156.898438 232.761719 L 155.945312 232.59375 L 154.625 233.316406 L 153.097656 234.382812 L 152.46875 235.464844 L 152.023438 235.539062 L 151.421875 234.796875 L 150.992188 234.644531 L 149.886719 234.929688 L 149.738281 235.101562 L 150.679688 235.050781 L 151.589844 235.96875 L 150.800781 236.351562 L 150.054688 236.015625 L 149.804688 236.148438 L 149.933594 236.375 L 150.394531 236.546875 L 149.886719 237.550781 L 149.449219 237.535156 L 149.207031 237.207031 L 149.683594 238.050781 L 149.976562 237.886719 L 150.503906 238.699219 L 150.492188 239.074219 L 149.933594 239.160156 L 147.019531 236.863281 L 146.625 236.753906 L 145.820312 235.777344 L 147.667969 235.808594 L 148.652344 236.960938 L 148.875 236.933594 L 148.960938 236.480469 L 148.453125 235.980469 L 148.632812 235.621094 L 149.164062 235.675781 L 148.558594 235.429688 L 148.148438 235.671875 L 147.699219 235.28125 L 148.003906 234.640625 L 147.632812 233.84375 L 147.589844 233.167969 L 148.828125 232.210938 L 149.539062 232.644531 L 150.378906 232.785156 L 151.679688 231.363281 L 152.53125 231.238281 L 153.113281 231.65625 L 153.652344 231.734375 L 154.382812 231.675781 L 155.292969 231.246094 L 154.9375 230.609375 L 151.886719 230.214844 L 150.949219 230.292969 L 150.386719 231.429688 L 149.730469 230.875 L 149.980469 230.511719 L 150.519531 230.292969 L 150.410156 230.144531 L 149.742188 230.421875 L 148.472656 230.46875 L 147.90625 231.175781 L 148.371094 231.035156 L 149.039062 231.289062 L 149.050781 231.488281 L 148.425781 232.300781 L 147.636719 232.707031 L 147.351562 233.132812 L 147.65625 234.238281 L 147.484375 234.945312 L 146.328125 235.304688 L 145.726562 235.050781 L 145.046875 234.402344 L 146.160156 233.4375 L 145.527344 233.347656 L 144.492188 232.6875 L 144.757812 232.472656 L 145.367188 232.65625 L 146.179688 232.558594 L 146.050781 231.964844 L 146.859375 230.164062 L 147.078125 230.039062 L 147.953125 230.246094 L 147.320312 229.941406 L 146.609375 230.007812 L 146.503906 230.773438 L 146.007812 231.550781 L 145.6875 231.472656 L 145.492188 230.84375 L 144.488281 231.707031 L 144.210938 232.199219 L 143.785156 231.996094 L 143.839844 230.945312 L 144.53125 230.460938 L 144.28125 230.378906 L 143.929688 229.441406 L 144.015625 229.023438 L 144.320312 229.089844 L 144.453125 228.636719 L 144.359375 227.847656 L 143.636719 226.679688 L 143.59375 226.175781 L 143.875 226.203125 L 144.574219 227.484375 L 144.980469 227.3125 L 145.71875 227.746094 L 146.144531 227.582031 L 146.539062 226.800781 L 147.464844 226.453125 L 147.460938 227.441406 L 148.085938 228.085938 L 148.507812 226.378906 L 148.039062 227.570312 L 147.691406 227.320312 L 147.6875 226.59375 L 148.113281 225.507812 L 148.425781 225.347656 L 148.984375 225.761719 L 148.960938 226.242188 L 149.8125 227.546875 L 149.597656 228.574219 L 147.765625 229.675781 L 147.917969 229.734375 L 149.570312 229.019531 L 150.039062 228.53125 L 150.15625 227.574219 L 149.21875 226.285156 L 149.125 225.558594 L 149.292969 225.402344 L 149.890625 225.5 L 150.210938 225.179688 L 149.953125 223.574219 L 148.882812 222.363281 L 147.824219 222.042969 L 146.789062 221.191406 L 146.136719 221.355469 L 146.0625 221.671875 L 146.597656 221.566406 L 147.507812 221.953125 L 148.90625 223.285156 L 149.730469 223.664062 L 149.332031 224.4375 L 148.847656 224.480469 L 148.355469 223.957031 L 145.917969 222.605469 L 146.210938 223.410156 L 146.910156 223.460938 L 147.402344 224.023438 L 147.082031 224.566406 L 146.398438 224.808594 L 147.023438 224.714844 L 147.535156 224.335938 L 147.769531 224.683594 L 146.664062 225.351562 Z M 170.042969 250.140625 L 170.007812 251.046875 L 168.726562 250.273438 L 169.460938 251.15625 L 169.179688 251.382812 L 167.804688 251.609375 L 164.761719 250.441406 L 164.898438 249.3125 L 164.445312 249.597656 L 164.308594 250.328125 L 161.511719 250.734375 L 161.289062 250.175781 L 161.714844 249.257812 L 161.066406 250.375 L 159.699219 250.3125 L 159 250.621094 L 158.621094 250.371094 L 158.867188 250.054688 L 160.164062 249.367188 L 160.550781 248.683594 L 160.0625 248.710938 L 159.71875 249.097656 L 159.894531 249.339844 L 158.808594 249.757812 L 158.304688 249.734375 L 158.1875 249.453125 L 158.957031 249.207031 L 158.445312 249.230469 L 157.578125 250.054688 L 157.921875 248.640625 L 157.695312 248.589844 L 157.464844 249.027344 L 156.832031 249.386719 L 156.351562 249.171875 L 156.199219 248.945312 L 156.390625 248.261719 L 156.023438 247.765625 L 155.675781 248.054688 L 155.25 249.273438 L 154.226562 248.515625 L 153.503906 248.941406 L 152.828125 248.9375 L 152.566406 248.15625 L 152.707031 247.144531 L 153.488281 247.980469 L 154.261719 248.253906 L 154.746094 248 L 154.144531 247.296875 L 153.46875 247.203125 L 153.363281 246.832031 L 153.660156 246.660156 L 153.960938 246.667969 L 154.46875 247.523438 L 154.832031 247.679688 L 155.230469 247.4375 L 154.691406 247.199219 L 154.636719 246.734375 L 155.4375 247.050781 L 155.804688 246.878906 L 155.558594 246.730469 L 155.855469 246.445312 L 157.933594 247.324219 L 158.09375 246.1875 L 158.742188 245.972656 L 159.769531 246.203125 L 159.257812 247.175781 L 159.042969 248.417969 L 159.222656 248.207031 L 159.617188 248.550781 L 159.289062 247.824219 L 159.894531 246.613281 L 161.46875 248.15625 L 162.261719 247.960938 L 160.640625 246.910156 L 160.128906 245.730469 L 158.566406 245.4375 L 158.191406 244.382812 L 158.390625 244.324219 L 161.171875 245.976562 L 162.238281 246.929688 L 162.613281 246.433594 L 162.085938 246.246094 L 161.929688 245.917969 L 162.675781 245.34375 L 163.101562 245.773438 L 164.132812 248.082031 L 164.300781 247.390625 L 163.5625 245.917969 L 163.691406 245.648438 L 166.828125 247.050781 L 166.957031 247.40625 L 165.980469 248.714844 L 166.199219 249.257812 L 166.699219 247.96875 L 167.035156 247.839844 L 167.234375 248.308594 L 167.378906 248.070312 L 167.347656 247.175781 L 168.179688 247.296875 L 168.1875 246.972656 L 167.695312 246.617188 L 162.722656 244.023438 L 162.035156 241.710938 L 162.203125 240.882812 L 163.386719 240.117188 L 164.167969 240.03125 L 166.316406 238.8125 L 166.28125 237.414062 L 165.191406 237.234375 L 163.519531 237.46875 L 161.832031 238.527344 L 160.640625 237.609375 L 160.464844 236.851562 L 160.652344 234.535156 L 161.121094 233.957031 L 161.199219 234.78125 L 161.972656 234.570312 L 162.441406 233.632812 L 162.378906 233.402344 L 161.839844 233.304688 L 161.445312 232.582031 L 160.789062 232.53125 L 160.878906 232.28125 L 162.203125 232.023438 L 162.917969 232.925781 L 163.386719 232.929688 L 164.492188 232.152344 L 165.011719 231.1875 L 164.988281 230.390625 L 165.984375 229.796875 L 167.367188 231.71875 L 168.316406 231.394531 L 169.132812 230.792969 L 170.136719 231.347656 Z M 138.234375 209.835938 L 137.675781 209.472656 L 137.820312 209.191406 L 138.441406 208.761719 L 138.734375 208.964844 L 138.351562 208.597656 L 137.59375 209.050781 L 137.417969 206.863281 L 137.601562 205.671875 L 138.792969 204.265625 L 137.277344 205.71875 L 137.15625 205.230469 L 136.972656 205.464844 L 136.972656 206.402344 L 137.191406 206.792969 L 136.917969 208.578125 L 136.257812 208.175781 L 135.464844 206.441406 L 135.492188 205.40625 L 135.09375 204.855469 L 134.75 205.035156 L 134.589844 203.910156 L 135.015625 203.640625 L 135.53125 204.738281 L 136.136719 205.398438 L 135.34375 203.898438 L 135.363281 203.515625 L 135.605469 203.453125 L 136.160156 204.113281 L 136.65625 203.355469 L 136.535156 203.027344 L 137.429688 204.070312 L 137.902344 202.164062 L 137.160156 201.320312 L 136.6875 200.148438 L 136.746094 199.800781 L 137.125 199.515625 L 138.34375 198.890625 L 139.382812 199.140625 L 139.476562 199.460938 L 139.890625 203.84375 L 139.480469 205.699219 L 139.601562 206.054688 L 139.101562 207.128906 L 139.445312 206.777344 L 139.4375 206.453125 L 139.761719 206.382812 L 140.039062 207.292969 L 139.703125 208.972656 L 138.929688 209.773438 Z M 170.40625 254.902344 L 169.839844 254.34375 L 169.503906 254.488281 L 170.230469 255.269531 L 171.214844 255.046875 L 172.503906 255.660156 L 172.476562 256.289062 L 173.003906 256.320312 L 172.789062 256.804688 L 173.109375 257.34375 L 173.519531 257.441406 L 173.457031 258.175781 L 173.003906 258.605469 L 172.191406 257.703125 L 172.046875 256.917969 L 171.476562 256.433594 L 170.898438 256.636719 L 170.546875 256.320312 L 169.5625 256.304688 L 168.9375 256.683594 L 168.472656 256.230469 L 168.324219 255.929688 L 168.496094 255.667969 L 169.28125 255.558594 L 169.355469 255.097656 L 168.6875 255.332031 L 168.613281 255.15625 L 169.132812 253.773438 L 167.984375 254.492188 L 167.125 254.085938 L 166.867188 253.292969 L 165.941406 253.550781 L 166.628906 253.558594 L 166.773438 254.105469 L 166.222656 254.3125 L 166.140625 254.691406 L 166.585938 255.378906 L 166.601562 255.941406 L 167.417969 256.074219 L 167.285156 256.710938 L 166.476562 256.503906 L 165.941406 256.605469 L 165.601562 255.808594 L 166.109375 255.335938 L 165.597656 255.121094 L 165.183594 255.488281 L 164.980469 255.097656 L 164.511719 254.878906 L 164.695312 254.292969 L 165.53125 253.671875 L 163.707031 254.414062 L 163.386719 254.105469 L 163.785156 253.964844 L 163.464844 253.617188 L 162.804688 253.492188 L 163.511719 252.675781 L 167.152344 251.957031 L 169.03125 251.898438 L 169.519531 251.589844 L 170.695312 251.433594 L 171.25 251.652344 L 171.65625 252.453125 L 171.597656 252.691406 L 170.3125 253.382812 L 169.363281 253.285156 L 168.054688 252.292969 L 167.847656 252.511719 L 169.316406 253.660156 L 171.375 253.738281 L 172.265625 254.496094 L 172.238281 254.671875 Z M 145.78125 241.609375 L 146.039062 241.429688 L 146.089844 240.585938 L 144.390625 240.941406 L 144.878906 240.542969 L 144.828125 240.1875 L 144.3125 240.175781 L 144.199219 239.710938 L 144.363281 239.445312 L 144.828125 239.53125 L 145.21875 239.292969 L 146.066406 240.132812 L 147.621094 240.195312 L 147.613281 239.964844 L 146.992188 240.101562 L 145.949219 239.824219 L 145.199219 238.453125 L 146.851562 238.828125 L 146.496094 238.050781 L 146.996094 237.882812 L 147.847656 238.117188 L 148.03125 240.292969 L 148.382812 239.097656 L 148.113281 238.441406 L 148.492188 238.578125 L 149.082031 239.648438 L 149.527344 239.292969 L 150.292969 239.519531 L 150.472656 240.109375 L 150.066406 240.328125 L 150.285156 240.910156 L 150.652344 240.421875 L 151.34375 240.746094 L 151.839844 241.394531 L 151.300781 242.023438 L 150.753906 241.917969 L 150.417969 242.203125 L 150.425781 242.832031 L 150.902344 243.066406 L 150.882812 243.476562 L 150.347656 243.53125 L 149.800781 244.007812 L 149.339844 243.6875 L 148.308594 244.3125 L 147.257812 243.8125 L 148.550781 243.253906 L 148.808594 241.742188 L 148.425781 241.535156 L 147.785156 242 L 147.332031 241.96875 L 147.089844 241.464844 L 146.710938 243.207031 L 146.238281 242.992188 Z M 173 251.214844 L 176.308594 251.3125 L 177.375 251.605469 L 178.25 252.699219 L 178.054688 253.828125 L 177.320312 254.808594 L 177.042969 254.878906 L 176.257812 254.613281 L 176.34375 253.964844 L 175.804688 253.597656 L 175.363281 253.753906 L 175.15625 254.476562 L 173.960938 254.238281 L 174.105469 254.136719 L 173.941406 253.695312 L 172.757812 254.15625 L 172.550781 253.925781 L 172.265625 251.941406 L 171.6875 251.992188 L 171.460938 251.480469 Z M 145.476562 236.726562 L 145.882812 236.679688 L 146.855469 237.351562 L 146.859375 237.574219 L 144.84375 237.242188 L 144.765625 236.902344 L 142.75 234.949219 L 141.84375 235.316406 L 140.503906 235.199219 L 139.992188 234.214844 L 139.144531 233.796875 L 139.097656 232.910156 L 138.332031 232.316406 L 138.550781 231.984375 L 138.855469 232.140625 L 140.320312 233.949219 L 140.898438 234.082031 L 141.527344 233.839844 L 143.664062 235.0625 L 144.246094 234.96875 L 144.5 235.332031 L 144.421875 236.023438 L 144.667969 236.628906 L 144.945312 236.316406 L 144.789062 235.660156 L 144.925781 235.558594 L 145.742188 236.367188 Z M 156.308594 243.234375 L 156.433594 243.789062 L 156.851562 243.878906 L 157.316406 243.675781 L 157.71875 244.023438 L 157.832031 245.511719 L 157.144531 246.539062 L 155.976562 245.886719 L 155.480469 244.953125 L 155.496094 244.660156 L 155.835938 244.476562 L 155.632812 244.144531 L 155.207031 244.5 L 154.964844 245.378906 L 154.347656 245.191406 L 154.183594 244.730469 L 154.472656 244.070312 L 154.339844 243.046875 L 154.597656 242.648438 L 155.339844 242.617188 Z M 160.238281 245.140625 L 159.347656 244.734375 L 158.710938 244.121094 L 158.402344 243.550781 L 158.304688 242.054688 L 158.882812 241.667969 L 159.742188 241.921875 L 159.765625 241.566406 L 159.328125 241.214844 L 159.304688 240.394531 L 159.8125 240.035156 L 160.09375 239.339844 L 160.414062 239.230469 L 160.417969 240.664062 L 161.164062 243.179688 L 161.035156 243.4375 L 160.496094 243.414062 L 159.5 242.371094 L 159.527344 242.875 L 160.171875 244.238281 Z M 154.285156 242.621094 L 154.027344 242.890625 L 154.363281 243.976562 L 153.964844 244.546875 L 153.503906 244.394531 L 152.957031 243.183594 L 152.820312 243.316406 L 153.015625 244.171875 L 153.910156 245.167969 L 153.449219 246.085938 L 152.878906 246.019531 L 152.851562 245.355469 L 151.441406 243.832031 L 151.265625 242.46875 L 151.59375 242.429688 L 152.265625 242.820312 L 152.621094 241.925781 L 152.859375 241.808594 L 154.359375 242.417969 Z M 136.714844 211.8125 L 135.789062 212.957031 L 135.351562 212.910156 L 135.332031 212.710938 L 135.875 211.875 L 134.617188 212.316406 L 135.058594 210.585938 L 135.660156 210.722656 L 135.21875 210.953125 L 135.339844 211.226562 L 136.246094 211.402344 L 136.171875 210.75 L 135.011719 210.035156 L 134.917969 209.742188 L 135.34375 209.40625 L 136.316406 209.652344 L 137 210.484375 L 136.632812 210.914062 L 137.707031 210.71875 L 137.746094 210.417969 L 138.035156 210.410156 L 137.984375 211.113281 Z M 138.453125 218.464844 L 137.597656 218.054688 L 137.1875 217.128906 L 137.414062 216.585938 L 138.605469 216.890625 L 138.996094 216.671875 L 139.011719 215.863281 L 138.640625 215.445312 L 138.785156 215.292969 L 140.074219 216.144531 L 140.273438 217.734375 L 140.117188 218.269531 L 139.722656 217.523438 L 139.074219 217.898438 L 138.929688 218.3125 Z M 161.140625 251.136719 L 161.339844 251.210938 L 160.335938 251.636719 L 160.296875 252.023438 L 159.28125 251.980469 L 159.160156 252.171875 L 160.414062 252.457031 L 161.476562 252.351562 L 161.589844 253.082031 L 161.300781 253.25 L 160.828125 252.835938 L 160.632812 253.191406 L 160.992188 253.398438 L 160.972656 253.617188 L 160.207031 253.96875 L 160.027344 253.761719 L 160.105469 253.160156 L 159.808594 252.808594 L 159.328125 253.214844 L 157.726562 252.460938 L 157.832031 251.617188 L 158.402344 251.496094 L 159.9375 251.804688 L 159.78125 251.539062 L 160.304688 251.234375 Z M 141.105469 216.324219 L 140.792969 215.78125 L 140.53125 215.996094 L 139.519531 215.355469 L 139.226562 214.417969 L 139.980469 213.660156 L 138.726562 213.269531 L 139.269531 212.824219 L 140.304688 213.371094 L 141.253906 215.652344 Z M 163.449219 252.441406 L 163.480469 252.078125 L 163.207031 251.691406 L 163.324219 251.125 L 163.734375 250.957031 L 164.582031 250.871094 L 167.269531 251.695312 Z M 142.625 232.050781 L 141.789062 231.023438 L 142.257812 230.285156 L 143.550781 229.304688 L 143.898438 229.921875 L 143.597656 230.984375 L 143.195312 231.804688 Z M 137.058594 221.488281 L 136.921875 221.1875 L 138.09375 220.195312 L 137.371094 220.585938 L 137.238281 220.164062 L 138.070312 219.273438 L 139.003906 219.132812 L 139.40625 219.851562 L 139.300781 220.652344 L 138.910156 220.933594 L 138.664062 220.273438 L 138.117188 221.121094 Z M 135.296875 215.835938 L 134.636719 215.59375 L 134.332031 214.746094 L 134.78125 214.289062 L 135.058594 214.390625 L 134.925781 213.765625 L 134.597656 213.507812 L 134.859375 213.167969 L 136.53125 213.46875 L 135.980469 214.265625 L 135.574219 214.136719 L 135.605469 215.496094 Z M 136.066406 208.621094 L 135.558594 208.054688 L 135.640625 208.53125 L 135.449219 208.523438 L 134.777344 207.539062 L 134.089844 208.054688 L 133.863281 206.667969 L 134.078125 206.386719 L 135.128906 206.367188 L 135.964844 207.910156 Z M 137.160156 226.871094 L 136.691406 225.625 L 137.230469 224.28125 L 137.355469 224.75 L 137.882812 224.570312 L 137.726562 223.5625 L 137.351562 222.910156 L 137.683594 222.683594 L 138.097656 222.925781 L 138.222656 224.023438 L 137.605469 226.257812 Z M 135.664062 202.050781 L 135.328125 201.039062 L 134.40625 201.769531 L 133.679688 201.199219 L 133.769531 200.285156 L 134.171875 200.148438 L 135.429688 200.375 L 135.953125 201.667969 Z M 137.25 203.609375 L 136.765625 203.03125 L 135.765625 202.609375 L 136.375 201.589844 L 137.128906 201.636719 L 137.550781 202.070312 L 137.382812 203.765625 Z M 135.390625 222.804688 L 135.363281 222.027344 L 135.800781 221.441406 L 135.894531 220.09375 L 136.324219 219.738281 L 136.980469 220.320312 L 136.972656 220.910156 L 136.601562 220.921875 L 136.199219 222.328125 Z M 141.441406 229.199219 L 141.015625 228.644531 L 140.976562 227.976562 L 141.15625 227.804688 L 141.644531 227.996094 L 141.4375 227.539062 L 140.046875 227.109375 L 140.582031 226.582031 L 142.535156 228.605469 L 142.3125 228.890625 Z M 134.332031 203.5625 L 133.59375 203.101562 L 133.878906 202.53125 L 134.328125 202.371094 L 135.226562 201.316406 L 135.519531 202.175781 Z M 138.566406 216.644531 L 137.328125 216.25 L 137.222656 215.402344 L 137.5625 214.902344 L 137.921875 214.777344 L 138.316406 215.109375 L 138.746094 216.058594 Z M 141.347656 225.476562 L 140.25 224.957031 L 139.582031 223.460938 L 140.25 223.683594 L 141.722656 224.839844 Z M 157.453125 251.648438 L 156.703125 251.210938 L 156.003906 251.644531 L 155.65625 251.546875 L 155.410156 251 L 155.683594 250.488281 L 157.390625 250.972656 L 157.777344 250.757812 L 158.207031 251.382812 Z M 143.625 227.769531 L 142.855469 226.691406 L 141.609375 225.863281 L 141.882812 225.085938 L 143.386719 226.4375 L 143.816406 227.605469 L 143.789062 227.894531 Z M 142.078125 224.207031 L 140.964844 223.386719 L 140.996094 223.152344 L 141.464844 223.105469 L 141.734375 222.640625 L 141.734375 222.011719 L 142.582031 223.855469 Z M 176.777344 259.277344 L 176.738281 258.949219 L 175.667969 258.789062 L 175.648438 258.554688 L 175.714844 258.109375 L 176.609375 257.300781 L 177.226562 259.003906 Z M 137.675781 227.066406 L 137.535156 226.855469 L 138.277344 224.550781 L 139.078125 224.554688 L 138.199219 226.578125 Z M 151.050781 243.8125 L 151.496094 244.402344 L 151.007812 245.359375 L 150.144531 245.40625 L 149.921875 244.910156 L 150.671875 243.816406 Z M 143.023438 229.207031 L 142.636719 228.4375 L 141.75 227.460938 L 141.941406 227.070312 L 143.351562 228.21875 L 143.484375 229.023438 Z M 145.15625 237.832031 L 145.332031 237.992188 L 144.964844 238.496094 L 145.332031 239.097656 L 144.84375 239.371094 L 143.230469 238.128906 L 144.15625 238.515625 L 144.597656 238.347656 L 144.382812 238.128906 L 144.457031 237.796875 Z M 135.929688 201.363281 L 135.398438 199.828125 L 136.046875 200.015625 L 136.578125 200.53125 L 136.636719 201.171875 Z M 139.972656 219.246094 L 139.277344 218.914062 L 139.050781 218.394531 L 139.625 217.757812 L 140.179688 218.628906 Z M 140.730469 219.34375 L 140.425781 216.921875 L 140.660156 217.132812 L 141.199219 219.183594 L 140.828125 219.589844 Z M 161.5 245.558594 L 160.53125 245.195312 L 160.285156 244.804688 L 160.355469 244.433594 L 161.746094 244.996094 L 161.820312 245.28125 Z M 145.972656 244.3125 L 144.957031 243.75 L 145.367188 243.375 L 146.433594 243.617188 L 146.542969 244.144531 Z M 179.214844 254.160156 L 179.351562 254.9375 L 179.085938 255.097656 L 178.214844 255.003906 L 178.308594 254.3125 Z M 146.796875 226.308594 L 147.089844 225.3125 L 147.964844 224.910156 L 147.4375 226.234375 Z M 141.789062 220.664062 L 141.636719 219.5 L 142.210938 219.449219 L 142.425781 220.265625 Z M 136.332031 200.097656 L 135.71875 199.589844 L 136.648438 198.535156 L 136.710938 199.0625 Z M 138.257812 213.445312 L 138.109375 213.347656 L 138.269531 212.5625 L 138.621094 212.320312 L 139.359375 212.464844 Z M 139.96875 206.289062 L 139.980469 204.792969 L 140.707031 205.773438 Z M 136.4375 225.03125 L 136.636719 223.691406 L 137.058594 223.496094 L 137.1875 223.730469 L 136.96875 224.640625 Z M 141.492188 221.28125 L 140.910156 220.871094 L 140.84375 220.023438 L 141.246094 219.878906 L 141.613281 220.757812 Z M 180.710938 254.640625 L 180.417969 254.503906 L 180.472656 253.882812 L 180.925781 253.550781 L 181.484375 253.726562 L 181.074219 254.484375 Z M 160.542969 250.605469 L 160.84375 250.964844 L 159.433594 251.183594 L 159.089844 250.894531 L 159.894531 250.554688 Z M 136.664062 215.886719 L 136.421875 215.226562 L 136.589844 214.730469 L 137.054688 214.703125 L 137.070312 215.96875 Z M 150.171875 246.929688 L 149.773438 246.179688 L 150.351562 245.847656 L 151.023438 246.085938 L 150.996094 246.367188 Z M 138.433594 226.421875 L 139.367188 225.25 L 139.550781 225.363281 L 139.589844 225.910156 L 138.449219 226.613281 Z M 161.121094 244.496094 L 160.464844 243.996094 L 160.40625 243.679688 L 161.335938 243.46875 L 161.46875 243.890625 Z M 143.015625 239.53125 L 142.847656 239.074219 L 142.957031 238.320312 L 143.808594 238.902344 Z M 145.25 234 L 145.03125 234.003906 L 144.820312 233.746094 L 145.011719 233.59375 L 144.625 233.398438 L 143.484375 233.472656 L 144.402344 233.0625 L 145.164062 233.28125 L 145.441406 233.597656 Z M 143.25 224.355469 L 142.9375 224.203125 L 142.527344 223.042969 L 143.257812 223.578125 L 143.410156 223.929688 Z M 175.359375 260.304688 L 175.136719 259.820312 L 174.152344 259.972656 L 174.171875 259.558594 L 175.878906 259.53125 L 175.816406 260.074219 L 175.453125 260.066406 Z M 178.453125 252.023438 L 179.273438 252.304688 L 179.546875 253.085938 L 178.210938 252.277344 L 178.222656 252.007812 Z M 138.308594 228.5625 L 137.933594 227.8125 L 138.964844 227.613281 L 138.617188 228.410156 Z M 143.300781 220.621094 L 142.871094 220.5 L 142.636719 220.042969 L 143.082031 219.601562 L 143.457031 220.039062 Z M 136.96875 199.390625 L 136.769531 199.222656 L 137.042969 198.640625 L 137.898438 198.753906 Z M 138.183594 227.464844 L 138.097656 226.925781 L 139.015625 226.382812 L 138.644531 227.300781 Z M 174.753906 257.746094 L 174.886719 256.734375 L 175.152344 256.550781 L 175.46875 257.359375 Z M 162.117188 252.136719 L 161.902344 252.007812 L 162.039062 251.765625 L 163.007812 251.371094 L 162.894531 251.875 Z M 141.902344 236.574219 L 141.5 237.167969 L 140.933594 237.109375 L 141.644531 236.367188 Z M 177.253906 260.238281 L 176.4375 259.546875 L 177.253906 259.621094 L 177.453125 260.203125 Z M 142.925781 225.054688 L 142.445312 224.914062 L 142.625 224.152344 L 143.128906 224.78125 Z M 142.925781 225.054688 " fill-opacity="1" fill-rule="nonzero"/><g clip-path="url(#id2)"><path stroke-linecap="butt" transform="matrix(1.61393, 0, 0, 1.616435, -42.519498, 0.0694107)" fill="none" stroke-linejoin="miter" d="M 117.073944 140.18412 L 116.892419 140.145455 L 116.781083 139.862715 L 116.635863 138.270187 L 116.442237 137.980197 L 116.771402 140.346032 L 116.647965 140.582857 L 115.849255 139.906213 L 115.578178 138.830834 L 115.73792 138.731754 L 116.277654 139.8168 L 116.381728 139.782968 L 115.779065 138.424848 L 116.149376 138.103443 L 115.684672 138.236355 L 115.413595 138.596425 L 115.120734 137.844868 L 114.752844 137.733705 L 114.755264 136.469832 L 115.048124 136.561663 L 115.37971 136.941066 L 115.718557 137.762704 L 115.157039 135.66511 L 115.285317 135.578113 L 115.440219 135.914018 L 115.374869 135.350955 L 115.222388 135.319539 L 114.764945 135.776273 L 114.176804 135.604696 L 114.031584 135.4887 L 113.954134 134.913553 L 113.685477 134.71056 L 113.649172 134.166829 L 113.867002 133.930004 L 114.738322 133.876839 L 114.922267 134.108831 L 115.244171 132.815959 L 115.624164 132.728962 L 115.946068 133.081783 L 116.042882 132.857041 L 115.558815 132.5888 L 115.336144 132.228729 L 115.720977 131.941156 L 115.822631 131.515837 L 115.173982 132.216646 L 115.01424 133.333108 L 114.614885 133.695595 L 114.305082 133.659346 L 114.060628 133.371773 L 113.516053 131.900074 L 113.758087 131.815494 L 114.377692 132.165898 L 114.793989 132.235979 L 114.058208 131.692248 L 113.506372 131.6415 L 112.228436 130.525038 L 112.286524 130.247131 L 112.560021 130.003056 L 113.320006 129.935392 L 113.787131 130.583036 L 114.559217 130.933441 L 114.86902 130.938274 L 113.874263 130.505706 L 113.249816 129.452075 L 113.358731 129.133086 L 113.581402 129.162085 L 114.046106 129.555989 L 114.79883 129.867728 L 114.764945 129.577738 L 113.399877 128.83343 L 113.322426 128.499942 L 113.823436 128.251034 L 114.210689 128.229284 L 114.242153 128.07704 L 113.484589 128.193036 L 113.411979 127.617889 L 113.661273 127.361731 L 114.162282 127.194987 L 114.612464 127.301317 L 114.827874 127.837798 L 115.249012 128.147121 L 115.333724 128.439527 L 115.370029 128.280033 L 115.224809 127.866797 L 114.919847 127.78705 L 114.849657 127.163571 L 114.087252 126.921913 L 114.222791 125.836867 L 114.709278 126.25252 L 114.931948 126.250103 L 114.626986 126.097858 L 114.447882 125.798202 L 114.351068 125.007979 L 114.626986 124.674491 L 114.994877 124.817069 L 114.985196 124.708323 L 114.786728 124.601993 L 114.302662 124.655158 L 114.307502 125.300386 L 113.958974 126.114774 L 113.745985 127.165988 L 113.237715 126.648839 L 113.167525 124.370001 L 112.993261 123.652276 L 113.223193 123.222125 L 113.453124 123.347787 L 113.755666 123.195542 L 114.230052 123.301872 L 117.115089 125.788536 L 117.376486 125.861033 L 117.219164 126.042277 L 116.161478 126.078526 L 115.783906 127.209486 L 115.999316 127.528475 L 116.219566 128.449194 L 115.95575 128.7561 L 115.873458 129.195918 L 116.146956 129.500407 L 115.933967 130.09247 L 116.589877 130.742531 L 116.764141 131.13885 L 116.921463 132.49697 L 117.219164 133.36694 L 117.599156 133.263027 L 117.959786 132.847375 L 118.409968 132.610549 L 118.816584 132.869124 L 119.29339 132.521136 L 119.683064 132.579134 L 119.929938 132.77246 L 119.784718 133.171197 L 120.09452 133.794675 L 120.01949 134.589731 L 119.79924 134.708143 L 119.603193 135.087547 L 119.666121 135.346121 L 120.072737 135.752107 L 119.87185 136.129094 L 119.758094 137.020813 L 119.588671 137.170642 L 119.94446 138.113109 L 120.440628 138.337851 L 121.006986 138.934747 L 121.164308 139.669388 L 127.316796 139.671805 L 129.044915 140.440278 L 129.775855 140.437862 L 131.077995 141.15317 L 132.343829 141.409328 L 132.324467 141.667902 L 132.109057 141.389995 L 130.712525 141.203919 L 130.039672 140.77135 L 129.6621 140.776183 L 129.01345 141.095172 L 128.945681 141.696901 L 128.352699 142.462958 L 127.914619 142.315547 L 127.583033 142.388044 L 125.707274 143.390926 L 124.695575 143.540754 L 124.593921 144.316477 L 124.693154 144.927873 L 124.259915 145.964587 L 124.109854 147.03755 L 124.293799 148.192677 L 124.165522 149.057813 L 123.93801 149.396135 L 123.175605 149.73929 L 122.63345 149.463799 L 121.842001 149.328471 L 121.345833 148.958733 L 120.503557 148.661494 L 119.94688 148.081514 L 119.419247 147.12938 L 119.516061 146.672646 L 119.963822 146.27391 L 120.515658 146.343991 L 120.571326 147.042383 L 120.142927 147.298541 L 120.537441 147.267125 L 120.835142 147.056883 L 120.827881 146.25941 L 121.304687 146.157914 L 121.563663 147.267125 L 121.362775 147.549865 L 120.861766 147.844689 L 120.859346 147.99935 L 121.532199 147.71661 L 121.665317 147.443536 L 121.718564 146.114415 L 123.040067 145.498186 L 123.683875 144.372059 L 123.560438 143.95399 L 122.969877 143.850077 L 122.151804 144.297145 L 121.205454 144.956872 L 120.81578 145.626265 L 120.539862 145.67218 L 120.16713 145.21303 L 119.900894 145.118783 L 119.215939 145.295194 L 119.123966 145.401523 L 119.707267 145.370108 L 120.271205 145.938005 L 119.782297 146.17483 L 119.320014 145.967004 L 119.165112 146.049167 L 119.244983 146.189329 L 119.530583 146.295659 L 119.215939 146.916721 L 118.944862 146.907054 L 118.794801 146.704061 L 119.090082 147.226043 L 119.271607 147.124547 L 119.598352 147.627196 L 119.591091 147.859188 L 119.244983 147.912353 L 117.439414 146.491402 L 117.19496 146.423738 L 116.696372 145.819592 L 117.84119 145.838925 L 118.451114 146.551817 L 118.589073 146.534901 L 118.64232 146.254577 L 118.327677 145.945254 L 118.439012 145.722929 L 118.768177 145.756761 L 118.393026 145.604516 L 118.138891 145.754344 L 117.860552 145.512686 L 118.049338 145.116366 L 117.819407 144.623383 L 117.792783 144.205315 L 118.560029 143.613252 L 119.000529 143.881492 L 119.520901 143.968489 L 120.326872 143.088853 L 120.854505 143.011523 L 121.215135 143.270097 L 121.549141 143.318429 L 122.001743 143.28218 L 122.565681 143.016356 L 122.345431 142.622453 L 120.45515 142.378378 L 119.87427 142.42671 L 119.525742 143.129935 L 119.119126 142.78678 L 119.274027 142.562038 L 119.608033 142.42671 L 119.540264 142.334879 L 119.126387 142.506457 L 118.339778 142.535456 L 117.98883 142.972857 L 118.27685 142.88586 L 118.690727 143.042938 L 118.697988 143.166184 L 118.310734 143.668833 L 117.821827 143.920158 L 117.645143 144.183565 L 117.833929 144.867458 L 117.727434 145.30486 L 117.011015 145.527185 L 116.638284 145.370108 L 116.217146 144.968955 L 116.906941 144.372059 L 116.514847 144.316477 L 115.873458 143.908075 L 116.038041 143.775163 L 116.415613 143.888742 L 116.919042 143.828328 L 116.839171 143.461007 L 117.340181 142.346962 L 117.475719 142.269632 L 118.017874 142.397711 L 117.62578 142.209217 L 117.185279 142.250299 L 117.11993 142.723949 L 116.812548 143.204849 L 116.61408 143.156518 L 116.493064 142.767448 L 115.871038 143.301513 L 115.699194 143.606002 L 115.435378 143.48034 L 115.469263 142.830279 L 115.897662 142.530623 L 115.74276 142.479874 L 115.52493 141.899894 L 115.578178 141.64132 L 115.766964 141.682402 L 115.849255 141.402078 L 115.791167 140.913929 L 115.343405 140.19137 L 115.316781 139.879631 L 115.491046 139.896547 L 115.924285 140.689186 L 116.176 140.582857 L 116.633443 140.851097 L 116.897259 140.749601 L 117.141713 140.266284 L 117.715332 140.051208 L 117.712912 140.662604 L 118.100165 141.06134 L 118.361561 140.005293 L 118.071121 140.742351 L 117.855712 140.58769 L 117.853291 140.138205 L 118.117108 139.466395 L 118.310734 139.367315 L 118.656842 139.623473 L 118.64232 139.920713 L 119.169953 140.727852 L 119.036834 141.363413 L 117.901698 142.044889 L 117.996091 142.081138 L 119.019892 141.638903 L 119.310332 141.336831 L 119.382942 140.744768 L 118.802062 139.947295 L 118.743974 139.497811 L 118.848048 139.401148 L 119.21836 139.461562 L 119.416827 139.263402 L 119.257085 138.270187 L 118.593913 137.521046 L 117.938003 137.322886 L 117.296614 136.796071 L 116.892419 136.897568 L 116.846432 137.093311 L 117.178018 137.028063 L 117.741956 137.267305 L 118.608435 138.09136 L 119.119126 138.325768 L 118.872252 138.804252 L 118.57213 138.830834 L 118.267168 138.507012 L 116.75688 137.670874 L 116.938405 138.16869 L 117.371645 138.200106 L 117.676607 138.548094 L 117.47814 138.883999 L 117.054581 139.033827 L 117.441835 138.975829 L 117.758898 138.74142 L 117.904118 138.956496 L 117.219164 139.369732 Z M 131.704861 154.705368 L 131.683078 155.266015 L 130.889209 154.787532 L 131.344232 155.333679 L 131.169968 155.473841 L 130.31801 155.614003 L 128.43257 154.891445 L 128.517282 154.193052 L 128.236523 154.369463 L 128.151811 154.821364 L 126.418852 155.072688 L 126.280893 154.727117 L 126.54471 154.15922 L 126.142934 154.850363 L 125.295818 154.811697 L 124.862578 155.002607 L 124.627805 154.847946 L 124.780286 154.652203 L 125.583837 154.226884 L 125.82345 153.803982 L 125.520909 153.820898 L 125.307919 154.06014 L 125.416834 154.209968 L 124.743981 154.468543 L 124.431758 154.454043 L 124.359148 154.280049 L 124.835954 154.127804 L 124.51889 154.142304 L 123.981576 154.652203 L 124.194566 153.7774 L 124.054186 153.745984 L 123.911387 154.016642 L 123.519293 154.238967 L 123.221592 154.106055 L 123.127199 153.965893 L 123.245795 153.542991 L 123.018284 153.236085 L 122.802874 153.414912 L 122.539057 154.168886 L 121.90493 153.700069 L 121.457168 153.963477 L 121.03845 153.96106 L 120.876288 153.477744 L 120.96342 152.851849 L 121.447487 153.368997 L 121.926713 153.538158 L 122.226834 153.38108 L 121.854103 152.946095 L 121.435385 152.888097 L 121.370036 152.658522 L 121.553982 152.552192 L 121.740347 152.557025 L 122.054991 153.086257 L 122.280082 153.18292 L 122.526956 153.033092 L 122.19295 152.885681 L 122.159065 152.598107 L 122.655233 152.793851 L 122.882745 152.687521 L 122.730264 152.595691 L 122.914209 152.41928 L 124.201827 152.963011 L 124.30106 152.259786 L 124.702836 152.126874 L 125.339384 152.269452 L 125.02232 152.871181 L 124.889202 153.639655 L 125.000537 153.509159 L 125.244991 153.721818 L 125.041683 153.272334 L 125.416834 152.523193 L 126.392229 153.477744 L 126.883557 153.356914 L 125.879118 152.706854 L 125.562054 151.977045 L 124.593921 151.795802 L 124.361569 151.143324 L 124.485006 151.107076 L 126.208283 152.12929 L 126.869035 152.718936 L 127.101387 152.41203 L 126.774642 152.296034 L 126.677828 152.093041 L 127.140112 151.737804 L 127.403928 152.003628 L 128.042896 153.431828 L 128.146971 153.004093 L 127.689528 152.093041 L 127.769399 151.926297 L 129.712927 152.793851 L 129.792798 153.01376 L 129.187714 153.823315 L 129.323253 154.15922 L 129.633056 153.361748 L 129.841204 153.282 L 129.964641 153.57199 L 130.054194 153.424579 L 130.034831 152.871181 L 130.550362 152.946095 L 130.555203 152.745519 L 130.250241 152.52561 L 127.169156 150.920999 L 126.743177 149.490382 L 126.847252 148.978066 L 127.580613 148.504416 L 128.064679 148.451251 L 129.395863 147.697277 L 129.37408 146.83214 L 128.698807 146.720977 L 127.662904 146.865972 L 126.61732 147.520866 L 125.879118 146.952969 L 125.770203 146.484152 L 125.886379 145.051119 L 126.176819 144.693464 L 126.225226 145.203363 L 126.704452 145.072868 L 126.994892 144.492888 L 126.956167 144.35031 L 126.62216 144.289895 L 126.377707 143.842827 L 125.971091 143.811412 L 126.026758 143.65675 L 126.847252 143.497256 L 127.290173 144.055486 L 127.580613 144.057903 L 128.265567 143.577003 L 128.587471 142.980107 L 128.572949 142.487124 L 129.190135 142.119803 L 130.046933 143.308762 L 130.635074 143.108186 L 131.140924 142.736032 L 131.762949 143.079187 Z M 111.996084 129.771064 L 111.649976 129.546322 L 111.739528 129.372328 L 112.124361 129.106504 L 112.305886 129.232166 L 112.068694 129.005008 L 111.599149 129.285331 L 111.490234 127.932045 L 111.603989 127.194987 L 112.342191 126.325017 L 111.403102 127.223986 L 111.328071 126.921913 L 111.214316 127.066908 L 111.214316 127.646888 L 111.349854 127.888546 L 111.180431 128.992925 L 110.771395 128.744017 L 110.280067 127.671054 L 110.297009 127.030659 L 110.050135 126.689921 L 109.837146 126.801084 L 109.737912 126.105108 L 110.001729 125.938364 L 110.321213 126.617424 L 110.696364 127.025826 L 110.205037 126.097858 L 110.217138 125.861033 L 110.367199 125.822368 L 110.710886 126.23077 L 111.018269 125.761953 L 110.943238 125.55896 L 111.497495 126.204188 L 111.790355 125.024895 L 111.330492 124.502913 L 111.037631 123.777939 L 111.073936 123.562863 L 111.308709 123.386452 L 112.063853 122.999799 L 112.707662 123.15446 L 112.76575 123.35262 L 113.022305 126.064026 L 112.76817 127.211903 L 112.8432 127.431812 L 112.533398 128.096372 L 112.746387 127.87888 L 112.741546 127.678304 L 112.942434 127.634805 L 113.114278 128.197869 L 112.906129 129.237 L 112.426903 129.732399 Z M 131.929952 157.651182 L 131.579004 157.305611 L 131.370855 157.395025 L 131.821037 157.878341 L 132.430962 157.740596 L 133.229672 158.119999 L 133.212729 158.509069 L 133.539474 158.528402 L 133.406356 158.828058 L 133.604823 159.161547 L 133.858958 159.221961 L 133.820233 159.676279 L 133.539474 159.942103 L 133.036045 159.383872 L 132.946493 158.898139 L 132.593124 158.598483 L 132.234914 158.724145 L 132.017084 158.528402 L 131.40716 158.518736 L 131.019907 158.753144 L 130.731887 158.472821 L 130.639915 158.286744 L 130.746409 158.124833 L 131.232896 158.057168 L 131.278883 157.772011 L 130.865006 157.917006 L 130.819019 157.80826 L 131.140924 156.95279 L 130.429345 157.397441 L 129.896872 157.146116 L 129.73713 156.65555 L 129.163511 156.815045 L 129.58949 156.819878 L 129.679042 157.158199 L 129.337775 157.286278 L 129.286948 157.520687 L 129.562866 157.946005 L 129.572547 158.293993 L 130.078397 158.376157 L 129.996106 158.77006 L 129.495097 158.641981 L 129.163511 158.704813 L 128.952942 158.21183 L 129.267585 157.919423 L 128.950522 157.786511 L 128.693966 158.01367 L 128.568109 157.772011 L 128.277669 157.636683 L 128.391424 157.274195 L 128.909376 156.889959 L 127.77908 157.349109 L 127.580613 157.158199 L 127.827487 157.071202 L 127.629019 156.856127 L 127.219983 156.778796 L 127.658063 156.27373 L 129.913814 155.829079 L 131.077995 155.79283 L 131.380537 155.60192 L 132.109057 155.505257 L 132.452745 155.640585 L 132.704459 156.135985 L 132.668154 156.283396 L 131.871864 156.711132 L 131.283723 156.650717 L 130.472911 156.036905 L 130.344634 156.172234 L 131.254679 156.882709 L 132.530195 156.931041 L 133.082031 157.399858 L 133.065089 157.508604 Z M 116.672168 149.42755 L 116.83191 149.316388 L 116.863375 148.794406 L 115.81053 149.014315 L 116.113071 148.767823 L 116.081607 148.547914 L 115.762123 148.540664 L 115.691933 148.253091 L 115.793587 148.088763 L 116.081607 148.141928 L 116.32364 147.994517 L 116.848853 148.514082 L 117.812146 148.552747 L 117.807305 148.410169 L 117.422472 148.494749 L 116.776243 148.323172 L 116.311539 147.474951 L 117.33534 147.706943 L 117.115089 147.226043 L 117.424892 147.12213 L 117.952525 147.267125 L 118.066281 148.613162 L 118.284111 147.873688 L 118.117108 147.467702 L 118.35188 147.552282 L 118.71735 148.214426 L 118.993268 147.994517 L 119.467654 148.134679 L 119.578989 148.499583 L 119.327275 148.634911 L 119.462813 148.994982 L 119.690325 148.692909 L 120.118724 148.893486 L 120.426106 149.294638 L 120.0921 149.683708 L 119.753253 149.61846 L 119.545105 149.794871 L 119.549945 150.183941 L 119.845226 150.328936 L 119.833124 150.582677 L 119.501539 150.616509 L 119.162692 150.911332 L 118.877092 150.713173 L 118.238124 151.099826 L 117.587055 150.790503 L 118.388185 150.444932 L 118.547927 149.509714 L 118.310734 149.381635 L 117.9138 149.669209 L 117.633041 149.649876 L 117.48298 149.338137 L 117.248208 150.415933 L 116.955347 150.283021 Z M 133.537054 155.369928 L 135.587077 155.430343 L 136.247828 155.611586 L 136.789983 156.28823 L 136.668966 156.986622 L 136.213943 157.593184 L 136.042099 157.636683 L 135.555612 157.472355 L 135.60886 157.071202 L 135.274854 156.844044 L 135.001356 156.940707 L 134.873078 157.387775 L 134.132456 157.240363 L 134.222008 157.177532 L 134.120354 156.904458 L 133.386993 157.189615 L 133.258716 157.047037 L 133.082031 155.819412 L 132.723822 155.850828 L 132.583443 155.534256 Z M 116.483382 146.406822 L 116.735097 146.377823 L 117.33776 146.793475 L 117.340181 146.93122 L 116.091288 146.725811 L 116.042882 146.515568 L 114.793989 145.307276 L 114.232472 145.534435 L 113.402297 145.461938 L 113.085234 144.852959 L 112.560021 144.594384 L 112.530977 144.04582 L 112.056592 143.6785 L 112.192131 143.47309 L 112.380917 143.569753 L 113.288542 144.688631 L 113.646751 144.770795 L 114.036425 144.620967 L 115.360347 145.377357 L 115.720977 145.319359 L 115.878299 145.544102 L 115.829892 145.971837 L 115.982373 146.346407 L 116.154217 146.15308 L 116.057404 145.747095 L 116.142115 145.684263 L 116.647965 146.184496 Z M 123.194968 150.432849 L 123.272419 150.776004 L 123.531394 150.831585 L 123.819414 150.705923 L 124.068708 150.920999 L 124.138898 151.841717 L 123.712919 152.477278 L 122.98924 152.073709 L 122.681857 151.496145 L 122.691538 151.314902 L 122.902107 151.201322 L 122.77625 150.995913 L 122.512434 151.215822 L 122.362373 151.759553 L 121.97996 151.643557 L 121.878306 151.3584 L 122.057411 150.949998 L 121.97512 150.316853 L 122.134862 150.070362 L 122.594725 150.051029 Z M 125.629824 151.612141 L 125.077988 151.360817 L 124.683473 150.981413 L 124.492267 150.628592 L 124.431758 149.703041 L 124.789968 149.463799 L 125.322441 149.620877 L 125.336963 149.400968 L 125.065886 149.183476 L 125.051364 148.675993 L 125.366007 148.453667 L 125.540271 148.023516 L 125.738739 147.955851 L 125.741159 148.842737 L 126.203443 150.399017 L 126.123572 150.558511 L 125.789566 150.544012 L 125.172381 149.898784 L 125.189323 150.210523 L 125.588678 151.053911 Z M 121.941235 150.053445 L 121.781493 150.22019 L 121.989642 150.892 L 121.742768 151.244821 L 121.457168 151.150574 L 121.118322 150.401433 L 121.03361 150.483597 L 121.154627 151.012829 L 121.708883 151.629058 L 121.423284 152.196955 L 121.069915 152.155873 L 121.052972 151.745054 L 120.179232 150.802586 L 120.070317 149.959199 L 120.273625 149.935033 L 120.689922 150.176691 L 120.910173 149.623294 L 121.057813 149.550796 L 121.987221 149.927783 Z M 111.054574 130.993855 L 110.480955 131.701914 L 110.209877 131.672915 L 110.197776 131.549669 L 110.534202 131.032521 L 109.754854 131.305595 L 110.028352 130.235048 L 110.401084 130.319629 L 110.127586 130.462207 L 110.202616 130.631368 L 110.764134 130.740114 L 110.718147 130.336545 L 109.999308 129.89431 L 109.94122 129.713066 L 110.205037 129.50524 L 110.8077 129.657485 L 111.231258 130.172217 L 111.003747 130.438041 L 111.669339 130.317212 L 111.693542 130.131135 L 111.872647 130.126302 L 111.841182 130.561287 Z M 112.131622 135.109296 L 111.601569 134.855555 L 111.347434 134.282825 L 111.487813 133.94692 L 112.226015 134.135413 L 112.468049 134.000085 L 112.47773 133.499852 L 112.247798 133.241278 L 112.337351 133.147031 L 113.136061 133.673846 L 113.259498 134.657395 L 113.162684 134.988467 L 112.918231 134.5269 L 112.516455 134.758892 L 112.426903 135.015049 Z M 126.188921 155.321596 L 126.312358 155.367511 L 125.690332 155.630919 L 125.666129 155.870161 L 125.036842 155.843578 L 124.961812 155.961991 L 125.738739 156.138401 L 126.397069 156.073154 L 126.467259 156.525055 L 126.288154 156.628968 L 125.995294 156.37281 L 125.874277 156.592719 L 126.096948 156.720798 L 126.084846 156.856127 L 125.610461 157.073619 L 125.499126 156.94554 L 125.547532 156.573386 L 125.363587 156.355894 L 125.065886 156.607218 L 124.073549 156.140818 L 124.138898 155.618836 L 124.492267 155.543922 L 125.443458 155.734832 L 125.346645 155.570504 L 125.670969 155.382011 Z M 113.775029 133.785009 L 113.581402 133.449104 L 113.41924 133.582016 L 112.792373 133.185696 L 112.610848 132.605716 L 113.077973 132.136899 L 112.301046 131.895241 L 112.637472 131.61975 L 113.27886 131.958072 L 113.867002 133.369356 Z M 127.619338 156.128735 L 127.638701 155.903993 L 127.469277 155.664751 L 127.541887 155.314347 L 127.796022 155.210434 L 128.321235 155.157269 L 129.986424 155.667168 Z M 114.716539 143.514172 L 114.198587 142.878611 L 114.489027 142.421876 L 115.290158 141.815314 L 115.505568 142.197134 L 115.319202 142.854445 L 115.069907 143.361927 Z M 111.267563 136.979731 L 111.182851 136.793655 L 111.908952 136.179842 L 111.46119 136.421501 L 111.378898 136.16051 L 111.89443 135.609529 L 112.472889 135.522532 L 112.722184 135.967183 L 112.656835 136.462583 L 112.414801 136.636577 L 112.26232 136.228174 L 111.923474 136.752573 Z M 110.175993 133.482936 L 109.766956 133.333108 L 109.57817 132.808709 L 109.856509 132.525969 L 110.028352 132.5888 L 109.946061 132.202147 L 109.742753 132.042652 L 109.904915 131.83241 L 110.940818 132.018487 L 110.599551 132.51147 L 110.347836 132.431722 L 110.367199 133.272693 Z M 110.652798 129.019507 L 110.338155 128.669103 L 110.388982 128.963926 L 110.270386 128.959093 L 109.854088 128.350114 L 109.428109 128.669103 L 109.28773 127.811216 L 109.420848 127.637222 L 110.071918 127.625139 L 110.58987 128.579689 Z M 111.330492 140.309783 L 111.040052 139.538893 L 111.374058 138.707588 L 111.451508 138.997578 L 111.778254 138.886415 L 111.68144 138.262937 L 111.449088 137.859368 L 111.654816 137.719206 L 111.911372 137.869034 L 111.988823 138.548094 L 111.60641 139.930379 Z M 110.403504 124.954815 L 110.195355 124.32892 L 109.624156 124.780821 L 109.173974 124.427999 L 109.229642 123.862519 L 109.478936 123.777939 L 110.258284 123.9181 L 110.582609 124.717989 Z M 111.386159 125.919031 L 111.086038 125.561377 L 110.466433 125.300386 L 110.844005 124.669658 L 111.311129 124.698657 L 111.572525 124.966897 L 111.468451 126.015694 Z M 110.234081 137.79412 L 110.217138 137.31322 L 110.488216 136.950732 L 110.546304 136.117011 L 110.81254 135.897102 L 111.219156 136.257173 L 111.214316 136.622077 L 110.984384 136.629327 L 110.73509 137.499297 Z M 113.983178 141.750066 L 113.719361 141.406911 L 113.695158 140.993676 L 113.806493 140.887346 L 114.109035 141.005759 L 113.980757 140.723019 L 113.119118 140.457194 L 113.450704 140.130956 L 114.660871 141.382746 L 114.522912 141.559156 Z M 109.57817 125.890032 L 109.120727 125.604875 L 109.297411 125.252054 L 109.57575 125.152974 L 110.132427 124.500497 L 110.313952 125.032145 Z M 112.201812 133.983169 L 111.434566 133.739094 L 111.369217 133.214695 L 111.579786 132.905373 L 111.802457 132.828042 L 112.046911 133.033451 L 112.313147 133.620681 Z M 113.92509 139.447063 L 113.244976 139.125657 L 112.831099 138.200106 L 113.244976 138.337851 L 114.157442 139.05316 Z M 123.904126 155.638169 L 123.439422 155.367511 L 123.006182 155.635752 L 122.790772 155.575338 L 122.638291 155.237016 L 122.807714 154.920444 L 123.8654 155.2201 L 124.105013 155.087188 L 124.37125 155.473841 Z M 115.336144 140.865597 L 114.859338 140.19862 L 114.087252 139.686304 L 114.256675 139.205404 L 115.188504 140.041542 L 115.454741 140.7641 L 115.437798 140.942928 Z M 114.377692 138.661673 L 113.687897 138.154191 L 113.70726 138.009196 L 113.9977 137.980197 L 114.164703 137.692623 L 114.164703 137.303554 L 114.689915 138.444181 Z M 135.877517 160.357755 L 135.853313 160.154762 L 135.190142 160.055682 L 135.17804 159.910687 L 135.219186 159.635197 L 135.773442 159.134964 L 136.155855 160.188594 Z M 111.649976 140.430612 L 111.562844 140.300116 L 112.022707 138.874333 L 112.518876 138.876749 L 111.974301 140.128539 Z M 119.937199 150.790503 L 120.213117 151.155407 L 119.910575 151.74747 L 119.375681 151.776469 L 119.237722 151.469563 L 119.702426 150.79292 Z M 114.963413 141.754899 L 114.7238 141.278833 L 114.174384 140.674687 L 114.29298 140.433029 L 115.166721 141.143504 L 115.249012 141.64132 Z M 116.284915 147.090715 L 116.39383 147.189795 L 116.166319 147.501534 L 116.39383 147.873688 L 116.091288 148.042848 L 115.09169 147.274375 L 115.66531 147.513617 L 115.938807 147.409704 L 115.805689 147.274375 L 115.851675 147.068965 Z M 110.568087 124.529496 L 110.238921 123.579779 L 110.640697 123.695775 L 110.969862 124.014764 L 111.006167 124.411083 Z M 113.073132 135.592613 L 112.642313 135.387203 L 112.501933 135.065798 L 112.857722 134.671895 L 113.20141 135.210793 Z M 113.542677 135.653027 L 113.353891 134.154746 L 113.499111 134.285241 L 113.833117 135.553947 L 113.603185 135.805272 Z M 126.411591 151.870716 L 125.811349 151.645974 L 125.658868 151.404315 L 125.702434 151.17474 L 126.564072 151.522728 L 126.610059 151.699138 Z M 116.790765 151.099826 L 116.161478 150.751838 L 116.415613 150.519846 L 117.076364 150.669674 L 117.144133 150.995913 Z M 137.387805 157.192032 L 137.472517 157.672932 L 137.307934 157.772011 L 136.7682 157.714014 L 136.826288 157.286278 Z M 117.301455 139.961795 L 117.48298 139.345566 L 118.025135 139.096658 L 117.69839 139.91588 Z M 114.198587 136.469832 L 114.104194 135.749691 L 114.459983 135.718275 L 114.593102 136.223341 Z M 110.817381 123.746523 L 110.437389 123.432367 L 111.013428 122.77989 L 111.052153 123.106129 Z M 112.010606 132.003987 L 111.918633 131.943573 L 112.017867 131.457839 L 112.235697 131.308011 L 112.69314 131.397425 Z M 113.070712 127.576807 L 113.077973 126.651256 L 113.528155 127.257818 Z M 110.88273 139.171572 L 111.006167 138.342684 L 111.267563 138.221855 L 111.347434 138.36685 L 111.211895 138.929914 Z M 114.014642 136.851653 L 113.654012 136.597911 L 113.612867 136.073513 L 113.862161 135.984099 L 114.089672 136.52783 Z M 138.314793 157.489271 L 138.133268 157.404691 L 138.167153 157.020454 L 138.447911 156.815045 L 138.794019 156.923791 L 138.539884 157.392608 Z M 125.81861 154.992941 L 126.004975 155.215267 L 125.131235 155.350595 L 124.918246 155.171768 L 125.416834 154.961525 Z M 111.023109 133.514351 L 110.873049 133.105949 L 110.977123 132.799043 L 111.265143 132.782127 L 111.274824 133.5651 Z M 119.392624 152.718936 L 119.145749 152.254953 L 119.503959 152.049543 L 119.920256 152.196955 L 119.903314 152.370949 Z M 112.119521 140.031876 L 112.69798 139.306901 L 112.811736 139.376982 L 112.835939 139.715303 L 112.129202 140.150288 Z M 126.176819 151.213405 L 125.770203 150.904083 L 125.733898 150.708339 L 126.309937 150.577844 L 126.392229 150.838835 Z M 114.958572 148.141928 L 114.854498 147.859188 L 114.922267 147.392788 L 115.4499 147.752858 Z M 116.343003 144.720047 L 116.207464 144.722463 L 116.076766 144.562969 L 116.195363 144.468722 L 115.95575 144.347893 L 115.249012 144.393808 L 115.817791 144.140067 L 116.289756 144.275395 L 116.461599 144.471139 Z M 115.103792 138.753503 L 114.910165 138.659257 L 114.65603 137.941531 L 115.108633 138.272603 L 115.203026 138.490096 Z M 134.998936 160.993317 L 134.860977 160.69366 L 134.251052 160.787907 L 134.263154 160.531749 L 135.32084 160.514833 L 135.282115 160.850738 L 135.057024 160.845905 Z M 136.91584 155.870161 L 137.42411 156.044155 L 137.593533 156.527471 L 136.765779 156.027239 L 136.77304 155.860494 Z M 112.04207 141.356163 L 111.809718 140.892179 L 112.448686 140.768934 L 112.233276 141.261917 Z M 115.135256 136.44325 L 114.86902 136.368336 L 114.7238 136.085596 L 114.999718 135.812522 L 115.23207 136.083179 Z M 111.211895 123.309121 L 111.088458 123.205208 L 111.257882 122.845138 L 111.787935 122.915218 Z M 111.964619 140.677103 L 111.911372 140.343615 L 112.48015 140.00771 L 112.250219 140.575607 Z M 134.623784 159.410455 L 134.706075 158.78456 L 134.870658 158.67098 L 135.066705 159.171213 Z M 126.794004 155.940242 L 126.660886 155.860494 L 126.745597 155.710666 L 127.34584 155.466591 L 127.275651 155.778331 Z M 114.268777 146.312575 L 114.019483 146.679896 L 113.668534 146.643647 L 114.109035 146.184496 Z M 136.172797 160.952235 L 135.666948 160.5245 L 136.172797 160.570415 L 136.296235 160.930485 Z M 114.902904 139.186072 L 114.605203 139.099075 L 114.716539 138.627841 L 115.028762 139.016911 Z M 114.902904 139.186072 " stroke="rgb(100%, 100%, 100%)" stroke-width="0.5" stroke-opacity="1" stroke-miterlimit="4"/></g><path stroke-linecap="butt" transform="matrix(1.61393, 0, 0, 1.616435, -42.519498, 0.0694107)" fill-opacity="1" fill="rgb(17.248535%, 44.309998%, 94.119263%)" fill-rule="nonzero" stroke-linejoin="miter" d="M 126.409171 6.868487 L 126.927123 6.844321 L 127.933981 6.153178 L 128.814983 6.153178 L 129.320833 6.530165 L 129.821842 6.467334 L 129.88477 6.08793 L 130.199414 5.773775 L 130.685901 5.773775 L 130.855324 6.245008 L 132.322046 7.494382 L 131.540279 8.410267 L 132.067911 9.135242 L 131.893647 9.601642 L 131.225635 9.809468 L 131.489452 10.570692 L 131.324869 10.691521 L 131.373276 10.952512 L 132.249436 11.568741 L 131.934793 11.921562 L 131.956576 12.470126 L 131.131242 12.378296 L 130.714945 12.46771 L 130.819019 12.673119 L 131.54996 12.83503 L 131.249839 13.692917 L 130.952138 13.820996 L 128.410787 14.420309 L 127.144953 14.294646 L 126.777062 12.876112 L 126.866614 12.397629 L 126.639103 12.153554 L 126.915021 9.330985 Z M 126.409171 6.868487 " stroke="rgb(100%, 100%, 100%)" stroke-width="0.5" stroke-opacity="1" stroke-miterlimit="4"/><path fill="rgb(17.248535%, 44.309998%, 94.119263%)" d="M 170.71875 20.46875 L 171.140625 20.472656 L 172.367188 22.457031 L 172.378906 24.195312 L 172.800781 24.953125 L 172.902344 26.152344 L 173.636719 26.953125 L 173.695312 28.042969 L 174.125 29.46875 L 173.984375 31 L 174.417969 31.28125 L 175.53125 31.410156 L 177.585938 30.964844 L 178.535156 31.980469 L 176.792969 37.726562 L 172.03125 39.863281 L 171.6875 40.421875 L 171.316406 40.460938 L 170.707031 41.410156 L 170.378906 42.222656 L 171.5 43.980469 L 170.765625 44.265625 L 170.570312 44.828125 L 170.078125 44.878906 L 169.402344 45.417969 L 168.199219 45.65625 L 167.5625 46.753906 L 167.613281 47.761719 L 166.089844 47.761719 L 165.886719 48.375 L 165.378906 48.476562 L 164.871094 49.085938 L 163.644531 47.921875 L 162.882812 47.851562 L 161.625 48.609375 L 160.273438 48.847656 L 159.542969 49.519531 L 159.6875 48.960938 L 159.167969 47.957031 L 159.671875 46.53125 L 160.621094 45.375 L 160.710938 44.773438 L 159.933594 41.667969 L 160.367188 38.207031 L 160.300781 36.765625 L 160.929688 35.128906 L 160.429688 34.496094 L 160.175781 34.859375 L 159.730469 34.777344 L 159.976562 32.34375 L 160.34375 32.050781 L 160.488281 32.433594 L 160.964844 32.292969 L 161.476562 31.332031 L 161.355469 30.789062 L 162.160156 24.550781 L 162.683594 23.175781 L 164.726562 23.378906 L 168.824219 22.410156 L 169.308594 22.203125 L 169.792969 20.816406 L 168.613281 20.554688 L 168.445312 20.222656 L 169.117188 20.078125 L 170.449219 20.226562 Z M 170.71875 20.46875 " fill-opacity="1" fill-rule="nonzero"/><g clip-path="url(#id3)"><path stroke-linecap="butt" transform="matrix(1.61393, 0, 0, 1.616435, -42.519498, 0.0694107)" fill="none" stroke-linejoin="miter" d="M 132.123579 12.619954 L 132.384975 12.622371 L 133.14496 13.849995 L 133.152221 14.925374 L 133.413617 15.394192 L 133.476546 16.136083 L 133.931568 16.631482 L 133.967873 17.305709 L 134.23411 18.187761 L 134.146978 19.135062 L 134.415635 19.309056 L 135.10543 19.388803 L 136.378526 19.113313 L 136.966667 19.741624 L 135.887198 23.296418 L 132.936811 24.618289 L 132.723822 24.96386 L 132.49389 24.988026 L 132.116318 25.575256 L 131.91301 26.077905 L 132.607646 27.165367 L 132.152623 27.341778 L 132.031606 27.689766 L 131.726644 27.721181 L 131.307927 28.05467 L 130.562464 28.202081 L 130.167949 28.881141 L 130.199414 29.50462 L 129.255484 29.50462 L 129.129626 29.884023 L 128.814983 29.946854 L 128.500339 30.323841 L 127.740355 29.6037 L 127.26839 29.560201 L 126.489042 30.029018 L 125.651607 30.17643 L 125.199004 30.592082 L 125.288557 30.246511 L 124.966652 29.625449 L 125.278875 28.743396 L 125.867016 28.028087 L 125.922684 27.655934 L 125.441038 25.73475 L 125.709695 23.593658 L 125.668549 22.701938 L 126.058223 21.68939 L 125.74842 21.297904 L 125.591098 21.522646 L 125.31518 21.471898 L 125.467661 19.966367 L 125.695173 19.785123 L 125.784725 20.021948 L 126.080006 19.934951 L 126.397069 19.340472 L 126.322039 19.004567 L 126.820628 15.145283 L 127.144953 14.294646 L 128.410787 14.420309 L 130.949717 13.820996 L 131.249839 13.692917 L 131.54996 12.83503 L 130.819019 12.673119 L 130.714945 12.46771 L 131.131242 12.378296 L 131.956576 12.470126 Z M 132.123579 12.619954 " stroke="rgb(100%, 100%, 100%)" stroke-width="0.5" stroke-opacity="1" stroke-miterlimit="4"/></g><path stroke-linecap="butt" transform="matrix(1.61393, 0, 0, 1.616435, -42.519498, 0.0694107)" fill-opacity="1" fill="rgb(17.248535%, 44.309998%, 94.119263%)" fill-rule="nonzero" stroke-linejoin="miter" d="M 131.908169 27.960423 L 131.833139 28.499321 L 132.164725 29.366874 L 132.464846 30.84824 L 131.937213 31.365389 L 131.871864 32.083114 L 132.801273 33.467816 L 132.71172 33.941466 L 131.673397 34.354702 L 131.153025 34.282204 L 130.843223 35.166674 L 130.298647 36.128474 L 129.962221 37.29085 L 129.582229 37.452761 L 129.405544 37.921578 L 128.427729 38.919627 L 128.381743 39.555188 L 128.134869 39.90076 L 128.207479 40.364744 L 127.982388 41.457039 L 127.63386 41.614117 L 127.222403 42.172348 L 127.440233 43.112398 L 127.05298 43.078566 L 125.789566 42.5735 L 125.731478 42.121599 L 124.94729 41.341043 L 124.598761 41.502954 L 124.221189 42.385007 L 123.71534 42.447838 L 123.253056 41.614117 L 122.512434 41.778445 L 122.48581 40.630568 L 123.148982 39.905593 L 123.190127 39.489941 L 123.57496 38.73355 L 123.763746 36.899364 L 124.075969 36.295218 L 124.378511 36.104308 L 124.448701 35.611325 L 124.209088 34.502113 L 124.792388 33.815804 L 124.668951 33.380819 L 125.087669 32.286107 L 125.264353 31.355722 L 125.199004 30.592082 L 125.651607 30.17643 L 126.489042 30.029018 L 127.26839 29.560201 L 127.740355 29.6037 L 128.500339 30.323841 L 128.814983 29.946854 L 129.129626 29.884023 L 129.257904 29.50462 L 130.199414 29.50462 L 130.167949 28.881141 L 130.564884 28.202081 L 131.307927 28.05467 L 131.726644 27.721181 L 132.031606 27.689766 Z M 131.908169 27.960423 " stroke="rgb(100%, 100%, 100%)" stroke-width="0.5" stroke-opacity="1" stroke-miterlimit="4"/><path stroke-linecap="butt" transform="matrix(1.61393, 0, 0, 1.616435, -42.519498, 0.0694107)" fill-opacity="1" fill="rgb(17.248535%, 44.309998%, 94.119263%)" fill-rule="nonzero" stroke-linejoin="miter" d="M 122.512434 41.778445 L 123.253056 41.614117 L 123.71534 42.447838 L 124.218769 42.385007 L 124.596341 41.502954 L 124.94729 41.341043 L 125.729057 42.121599 L 125.789566 42.5735 L 127.05298 43.078566 L 127.440233 43.114815 L 127.41603 43.511135 L 127.624179 44.042783 L 127.55883 44.782257 L 127.858951 45.487899 L 127.515264 46.162126 L 126.885977 46.413451 L 126.636682 46.855685 L 126.300256 47.844068 L 126.368025 48.610125 L 125.641925 49.093441 L 125.516068 49.704837 L 125.428936 50.611055 L 125.840393 51.621187 L 126.551971 52.019923 L 126.464839 52.413826 L 126.193761 52.580571 L 126.283314 53.257214 L 125.89122 53.240298 L 125.813769 52.972057 L 125.334543 52.843978 L 124.94729 52.382411 L 123.967054 52.41141 L 123.64515 52.788397 L 122.839179 52.935808 L 122.514854 52.831895 L 122.369634 52.957558 L 122.454346 51.396445 L 121.955757 49.107941 L 122.011425 48.445797 L 121.837161 47.609659 L 121.917032 46.050963 L 122.023526 45.794806 L 122.34301 45.867303 L 122.795613 45.470983 L 123.006182 44.613096 L 123.168344 44.451185 L 123.006182 43.851873 L 123.102995 42.641165 L 122.955355 42.218263 Z M 122.512434 41.778445 " stroke="rgb(100%, 100%, 100%)" stroke-width="0.5" stroke-opacity="1" stroke-miterlimit="4"/><path stroke-linecap="butt" transform="matrix(1.61393, 0, 0, 1.616435, -42.519498, 0.0694107)" fill-opacity="1" fill="rgb(17.248535%, 44.309998%, 94.119263%)" fill-rule="nonzero" stroke-linejoin="miter" d="M 127.164315 60.995113 L 127.140112 60.838035 L 126.798845 60.606043 L 126.757699 60.11306 L 126.217965 60.086477 L 126.121151 59.472665 L 125.937206 59.368752 L 124.73188 59.748156 L 124.308321 60.238722 L 124.305901 60.490047 L 124.042085 60.550461 L 123.725021 60.555294 L 123.461205 60.171058 L 123.057009 59.997064 L 122.853701 59.620077 L 122.333329 59.651492 L 122.013845 59.51858 L 122.188109 59.407418 L 122.292183 59.054596 L 122.812555 59.102928 L 122.969877 58.933767 L 123.112677 58.404536 L 122.945673 57.768974 L 123.35713 57.365405 L 123.420059 56.925587 L 124.042085 56.734677 L 124.017881 55.939621 L 124.898883 55.765627 L 125.366007 55.900956 L 125.651607 56.335941 L 126.009816 56.174029 L 126.564072 56.570349 L 126.997312 56.246527 L 127.011834 56.734677 L 127.316796 57.191411 L 127.551569 56.971502 L 127.718572 56.986001 L 127.948503 57.116497 L 128.042896 57.532149 L 127.737934 58.17496 L 127.624179 59.035264 L 127.904937 60.796953 L 127.677426 60.966114 Z M 127.164315 60.995113 " stroke="rgb(100%, 100%, 100%)" stroke-width="0.5" stroke-opacity="1" stroke-miterlimit="4"/><path stroke-linecap="butt" transform="matrix(1.61393, 0, 0, 1.616435, -42.519498, 0.0694107)" fill-opacity="1" fill="rgb(17.248535%, 44.309998%, 94.119263%)" fill-rule="nonzero" stroke-linejoin="miter" d="M 122.369634 52.957558 L 122.517274 52.831895 L 122.977138 52.943058 L 123.64515 52.788397 L 123.969475 52.41141 L 124.94971 52.382411 L 125.336963 52.843978 L 125.816189 52.972057 L 125.89364 53.240298 L 126.288154 53.257214 L 126.535028 53.426375 L 126.830309 54.310844 L 127.449915 55.030986 L 127.478959 55.349975 L 126.999733 56.248944 L 126.566493 56.572766 L 126.012236 56.176446 L 125.654027 56.338357 L 125.368428 55.900956 L 124.903724 55.765627 L 124.020302 55.942038 L 124.044505 56.737093 L 123.422479 56.928003 L 123.35713 57.370238 L 122.948094 57.771391 L 123.115097 58.409369 L 122.974717 58.936184 L 122.814975 59.105345 L 122.292183 59.057013 L 122.188109 59.412251 L 121.883147 59.61041 L 121.771812 59.752989 L 121.299847 59.639409 L 121.507995 59.020764 L 121.912191 58.820188 L 122.009004 58.469783 L 121.662897 56.45677 L 122.26556 56.091866 L 122.662494 54.779661 L 122.790772 53.750197 Z M 1.08913 34.332952 L 0.423538 34.569778 L 0.590541 34.098544 L 1.149638 34.20729 Z M 1.08913 34.332952 " stroke="rgb(100%, 100%, 100%)" stroke-width="0.5" stroke-opacity="1" stroke-miterlimit="4"/><path stroke-linecap="butt" transform="matrix(1.61393, 0, 0, 1.616435, -42.519498, 0.0694107)" fill-opacity="1" fill="rgb(17.248535%, 44.309998%, 94.119263%)" fill-rule="nonzero" stroke-linejoin="miter" d="M 116.042882 77.041224 L 116.483382 77.304631 L 117.328079 76.473327 L 117.427313 76.166421 L 117.139293 75.695187 L 117.616099 74.996794 L 117.652404 74.629474 L 117.33534 74.443397 L 117.633041 74.07366 L 118.073542 74.008412 L 118.460795 74.237987 L 119.174793 74.337067 L 119.661281 75.074125 L 120.181652 75.279535 L 120.668139 75.79185 L 121.754869 75.849848 L 121.917032 76.7609 L 122.071933 76.927644 L 122.219573 76.664237 L 122.713321 76.417745 L 122.817396 76.229252 L 124.102593 76.17367 L 124.192145 77.42546 L 124.66169 77.99819 L 124.545514 78.551588 L 124.347047 78.759414 L 123.928329 78.79083 L 122.834338 79.469889 L 122.742365 79.989455 L 122.853701 80.815926 L 122.514854 82.304541 L 122.173587 82.398788 L 121.90493 82.174046 L 121.839581 81.879223 L 121.553982 81.864723 L 121.101379 81.555401 L 120.501136 81.523985 L 119.87669 81.888889 L 119.128807 81.630315 L 118.506781 81.649647 L 118.129209 81.018919 L 117.664505 81.028586 L 117.257889 81.473237 L 116.877897 81.420072 L 116.935985 80.818343 L 115.999316 77.923276 L 115.926706 77.304631 Z M 116.042882 77.041224 " stroke="rgb(100%, 100%, 100%)" stroke-width="0.5" stroke-opacity="1" stroke-miterlimit="4"/><path stroke-linecap="butt" transform="matrix(1.61393, 0, 0, 1.616435, -42.519498, 0.0694107)" fill-opacity="1" fill="rgb(17.248535%, 44.309998%, 94.119263%)" fill-rule="nonzero" stroke-linejoin="miter" d="M 118.371243 67.553719 L 118.731872 67.713213 L 119.269187 68.317359 L 119.966243 68.665347 L 120.363177 68.67743 L 120.610051 68.194113 L 120.982783 68.682263 L 121.597548 68.704012 L 121.798435 69.056833 L 122.386576 69.291242 L 123.115097 69.818057 L 123.248215 69.83739 L 123.691136 69.175246 L 123.875082 69.218744 L 124.046925 69.600565 L 123.49993 71.07468 L 123.737123 72.152476 L 123.468466 72.908867 L 123.751645 73.539595 L 123.521713 74.501395 L 124.102593 76.17367 L 122.817396 76.229252 L 122.713321 76.417745 L 122.219573 76.664237 L 122.071933 76.927644 L 121.917032 76.7609 L 121.754869 75.849848 L 120.668139 75.79185 L 120.181652 75.279535 L 119.661281 75.074125 L 119.174793 74.337067 L 118.460795 74.237987 L 118.073542 74.008412 L 117.633041 74.07366 L 117.33534 74.443397 L 117.652404 74.629474 L 117.616099 74.996794 L 117.139293 75.695187 L 117.429733 76.166421 L 117.328079 76.473327 L 116.483382 77.304631 L 116.042882 77.041224 L 116.202624 75.963428 L 115.946068 75.236036 L 115.517669 74.622224 L 115.462002 74.124408 L 115.757282 73.612092 L 115.488625 73.09011 L 115.609642 72.493214 L 115.779065 72.307138 L 116.004156 72.522213 L 116.46402 72.633376 L 117.011015 72.343386 L 117.250628 70.422203 L 117.538648 70.574448 L 117.727434 70.487451 L 118.192138 68.998835 Z M 118.371243 67.553719 " stroke="rgb(100%, 100%, 100%)" stroke-width="0.5" stroke-opacity="1" stroke-miterlimit="4"/><path stroke-linecap="butt" transform="matrix(1.61393, 0, 0, 1.616435, -42.519498, 0.0694107)" fill-opacity="1" fill="rgb(17.248535%, 44.309998%, 94.119263%)" fill-rule="nonzero" stroke-linejoin="miter" d="M 122.013845 59.51858 L 122.333329 59.651492 L 122.853701 59.620077 L 123.057009 59.997064 L 123.461205 60.171058 L 123.725021 60.555294 L 124.042085 60.550461 L 124.305901 60.490047 L 124.308321 60.238722 L 124.73188 59.748156 L 125.937206 59.368752 L 126.121151 59.472665 L 126.217965 60.086477 L 126.757699 60.115476 L 126.798845 60.608459 L 127.140112 60.838035 L 127.164315 60.995113 L 127.171576 61.439764 L 126.568913 62.454729 L 126.159877 63.7621 L 125.361167 63.692019 L 124.802069 63.237702 L 123.775848 62.935629 L 123.115097 62.981544 L 122.84644 63.213536 L 122.873063 63.431028 L 121.890408 63.312616 L 121.118322 63.032292 L 120.668139 62.556225 L 120.714126 61.507428 L 120.934376 61.229521 L 120.830302 60.446548 L 121.302267 59.634576 L 121.769391 59.745739 L 121.883147 59.605577 Z M 122.013845 59.51858 " stroke="rgb(100%, 100%, 100%)" stroke-width="0.5" stroke-opacity="1" stroke-miterlimit="4"/><path stroke-linecap="butt" transform="matrix(1.61393, 0, 0, 1.616435, -42.519498, 0.0694107)" fill-opacity="1" fill="rgb(17.248535%, 44.309998%, 94.119263%)" fill-rule="nonzero" stroke-linejoin="miter" d="M 112.40754 99.46953 L 111.89443 99.672523 L 111.691122 99.273787 L 112.000924 99.143292 Z M 116.328481 94.737861 L 116.263132 94.875606 L 116.146956 94.638781 L 115.653208 94.409206 L 115.573337 94.111966 L 115.948489 94.145798 Z M 114.815772 91.709882 L 114.462404 91.808962 L 114.856918 92.031288 L 115.411174 91.6688 L 115.822631 91.637385 L 116.045302 91.787213 L 115.975112 92.352693 L 116.219566 92.739347 L 116.057404 93.012421 L 116.39383 93.297577 L 116.476121 93.546485 L 116.398671 93.79781 L 115.517669 94.020136 L 115.442639 94.46962 L 115.679832 94.679863 L 115.331303 94.824858 L 115.152199 94.665363 L 115.215127 94.493786 L 115.023921 94.696779 L 115.062646 95.095515 L 116.054983 95.943736 L 116.076766 96.274808 L 115.704035 96.30139 L 115.566076 96.533382 L 116.081607 97.323605 L 115.152199 97.374353 L 115.200605 97.74409 L 115.428117 98.053413 L 115.362768 98.444899 L 114.87386 98.565728 L 114.593102 98.372402 L 113.537836 98.193574 L 113.140901 97.898751 L 113.871842 96.325556 L 113.963815 94.974686 L 113.767768 94.643614 L 113.888785 93.486071 L 114.198587 93.087335 L 114.406736 92.098952 L 114.246994 91.6688 L 114.355909 91.49964 L 114.731061 91.533472 Z M 115.258693 85.105361 L 116.224407 85.187525 L 116.415613 85.501681 L 116.727836 85.564512 L 117.233686 85.187525 L 117.737115 85.373602 L 118.051759 85.939082 L 119.058617 86.758304 L 119.687904 87.009628 L 120.317191 86.190407 L 121.406341 86.207323 L 121.336152 86.680973 L 121.043291 87.033794 L 121.403921 88.002844 L 121.207874 89.708952 L 121.365196 90.535423 L 121.157047 90.975241 L 121.566083 91.87421 L 121.76213 92.881925 L 121.17883 93.23233 L 121.004566 93.029337 L 120.825461 93.051086 L 120.459991 93.70598 L 120.735909 94.068467 L 120.433367 95.030267 L 120.554384 96.182977 L 120.443048 96.842705 L 120.711705 97.27769 L 121.411182 97.400935 L 121.718564 97.591845 L 121.716144 98.12591 L 121.215135 98.246739 L 121.086857 98.81222 L 121.842001 99.46953 L 121.837161 99.8586 L 121.498314 100.05676 L 121.498314 100.184839 L 121.851683 100.64399 L 121.500734 100.535243 L 121.048132 100.757569 L 121.004566 100.936396 L 120.554384 100.987144 L 120.469672 100.692321 L 120.053375 100.448246 L 119.791979 99.848934 L 119.637077 99.788519 L 119.242563 100.3395 L 118.138891 100.124424 L 118.138891 99.940764 L 118.088064 100.093009 L 117.831508 99.928681 L 117.528967 100.05676 L 117.538648 99.382533 L 117.291774 98.768721 L 117.403109 98.200824 L 117.942844 97.864919 L 117.879915 97.357437 L 118.150992 96.876537 L 118.484998 97.036031 L 118.492259 96.439135 L 118.20908 96.158812 L 118.112267 95.776991 L 118.126789 94.931187 L 118.313155 94.614615 L 119.14817 94.878023 L 118.681045 94.546951 L 118.150992 93.722896 L 118.465636 93.42324 L 118.940021 93.270995 L 119.136068 93.498154 L 119.424088 94.440621 L 119.528162 94.404372 L 119.307912 93.005171 L 119.399885 92.359943 L 119.203837 92.316445 L 118.881933 92.570186 L 118.477737 92.509771 L 118.092904 92.183533 L 118.777859 91.306313 L 119.353898 91.255565 L 119.758094 90.982491 L 119.888792 90.054523 L 119.770196 90.098021 L 119.58625 90.999407 L 119.024733 91.224149 L 118.71251 91.09607 L 118.296212 90.402511 L 117.875074 90.259933 L 117.524126 90.375929 L 117.325659 90.690084 L 117.48056 91.168568 L 117.040059 91.567304 L 116.388989 91.504473 L 116.02836 91.639801 L 115.273215 91.419892 L 115.469263 90.871328 L 115.861357 90.80608 L 116.071926 90.414594 L 115.841994 90.743249 L 115.362768 90.733583 L 114.86902 90.243016 L 114.910165 89.66062 L 114.544695 88.536909 L 114.474505 88.060842 L 115.275636 86.127576 L 115.15946 85.740922 Z M 115.258693 85.105361 " stroke="rgb(100%, 100%, 100%)" stroke-width="0.5" stroke-opacity="1" stroke-miterlimit="4"/><path stroke-linecap="butt" transform="matrix(1.61393, 0, 0, 1.616435, -42.519498, 0.0694107)" fill-opacity="1" fill="rgb(17.248535%, 44.309998%, 94.119263%)" fill-rule="nonzero" stroke-linejoin="miter" d="M 124.046925 69.600565 L 123.875082 69.218744 L 123.691136 69.175246 L 123.245795 69.83739 L 123.115097 69.818057 L 122.384156 69.291242 L 121.796015 69.056833 L 121.595127 68.704012 L 120.980362 68.682263 L 120.610051 68.194113 L 120.360757 68.67743 L 119.966243 68.665347 L 119.269187 68.317359 L 118.731872 67.713213 L 118.371243 67.553719 L 118.981167 66.927824 L 118.799642 66.026438 L 119.225621 65.67845 L 119.591091 64.733566 L 120.140507 64.252666 L 120.280886 63.353698 L 120.668139 62.556225 L 121.118322 63.032292 L 121.890408 63.312616 L 122.873063 63.431028 L 122.84644 63.213536 L 123.115097 62.981544 L 123.775848 62.935629 L 124.802069 63.237702 L 125.361167 63.692019 L 126.159877 63.7621 L 126.092107 64.436327 L 125.578997 64.595821 L 125.491865 64.82298 L 125.958989 65.202384 L 125.971091 66.268097 L 126.213124 66.961656 L 125.992874 67.285478 L 126.04128 68.008036 L 125.908162 68.307693 L 125.424095 68.363274 L 125.048944 68.78376 L 125.044103 69.354073 L 124.250233 69.641646 Z M 124.046925 69.600565 " stroke="rgb(100%, 100%, 100%)" stroke-width="0.5" stroke-opacity="1" stroke-miterlimit="4"/><path fill="rgb(17.248535%, 44.309998%, 94.119263%)" d="M 168.398438 9.402344 L 167.613281 9.402344 L 167.109375 9.910156 L 167.003906 10.523438 L 166.195312 10.625 L 165.378906 10.015625 L 163.957031 10.015625 L 162.332031 11.132812 L 161.496094 11.171875 L 161.144531 7.8125 L 161.34375 6.742188 L 160.859375 6.253906 L 162.273438 6.105469 L 163.179688 5.714844 L 164.132812 4.28125 L 163.742188 3 L 163.820312 2.628906 L 163.921875 2.472656 L 164.601562 2.535156 L 165.558594 1.675781 L 165.625 2.367188 L 166.453125 3.261719 L 166.644531 4.25 L 167.78125 4.570312 L 167.378906 5.175781 L 167.683594 5.601562 L 168.035156 6.992188 L 168.027344 7.945312 L 168.503906 9.167969 Z M 168.398438 9.402344 " fill-opacity="1" fill-rule="nonzero"/><g clip-path="url(#id4)"><path stroke-linecap="butt" transform="matrix(1.61393, 0, 0, 1.616435, -42.519498, 0.0694107)" fill="none" stroke-linejoin="miter" d="M 130.685901 5.773775 L 130.199414 5.773775 L 129.887191 6.08793 L 129.821842 6.467334 L 129.320833 6.530165 L 128.814983 6.153178 L 127.933981 6.153178 L 126.927123 6.844321 L 126.409171 6.868487 L 126.191341 4.790225 L 126.314778 4.128082 L 126.014657 3.826009 L 126.890818 3.734179 L 127.452335 3.49252 L 128.042896 2.605634 L 127.800863 1.812995 L 127.84927 1.58342 L 127.912198 1.486756 L 128.333336 1.525422 L 128.926318 0.993774 L 128.967464 1.421509 L 129.480575 1.974906 L 129.599171 2.586302 L 130.303488 2.784462 L 130.054194 3.159032 L 130.24298 3.422439 L 130.46081 4.282743 L 130.455969 4.872389 L 130.75125 5.62878 Z M 130.685901 5.773775 " stroke="rgb(100%, 100%, 100%)" stroke-width="0.5" stroke-opacity="1" stroke-miterlimit="4"/></g><path stroke-linecap="butt" transform="matrix(1.61393, 0, 0, 1.616435, -42.519498, 0.0694107)" fill-opacity="1" fill="rgb(17.248535%, 44.309998%, 94.119263%)" fill-rule="nonzero" stroke-linejoin="miter" d="M 121.406341 86.209739 L 120.317191 86.192823 L 119.687904 87.012045 L 119.058617 86.758304 L 118.051759 85.939082 L 117.737115 85.373602 L 117.233686 85.187525 L 116.730256 85.564512 L 116.415613 85.501681 L 116.224407 85.187525 L 115.261114 85.105361 L 115.328883 84.711458 L 115.544293 84.44805 L 115.432957 83.79799 L 116.451918 83.370254 L 116.444657 82.877272 L 116.948086 81.550567 L 116.877897 81.420072 L 117.257889 81.473237 L 117.664505 81.028586 L 118.129209 81.018919 L 118.506781 81.649647 L 119.128807 81.630315 L 119.87669 81.888889 L 120.501136 81.523985 L 121.101379 81.555401 L 121.553982 81.864723 L 121.839581 81.879223 L 121.90735 82.174046 L 121.83232 82.841023 L 122.062252 83.771407 L 121.955757 84.174977 L 121.556402 84.457717 L 121.46927 84.834704 L 121.786334 85.245523 L 121.842001 85.14886 L 121.950916 85.223774 L 121.965438 85.380851 L 121.798435 85.753005 L 121.592707 85.692591 Z M 121.406341 86.209739 " stroke="rgb(100%, 100%, 100%)" stroke-width="0.5" stroke-opacity="1" stroke-miterlimit="4"/></svg>