<svg xmlns="http://www.w3.org/2000/svg" xmlns:xlink="http://www.w3.org/1999/xlink" width="411" zoomAndPan="magnify" viewBox="0 0 308.25 262.500001" height="350" preserveAspectRatio="xMidYMid meet" version="1.0"><defs><clipPath id="id1"><path d="M 0 0.0703125 L 307.5 0.0703125 L 307.5 261.933594 L 0 261.933594 Z M 0 0.0703125 " clip-rule="nonzero"/></clipPath><clipPath id="id2"><path d="M 134 194 L 215 194 L 215 261.933594 L 134 261.933594 Z M 134 194 " clip-rule="nonzero"/></clipPath><clipPath id="id3"><path d="M 129 190 L 220 190 L 220 261.933594 L 129 261.933594 Z M 129 190 " clip-rule="nonzero"/></clipPath><clipPath id="id4"><path d="M 190 133 L 250.640625 133 L 250.640625 180 L 190 180 Z M 190 133 " clip-rule="nonzero"/></clipPath><clipPath id="id5"><path d="M 186 128 L 250.640625 128 L 250.640625 185 L 186 185 Z M 186 128 " clip-rule="nonzero"/></clipPath><clipPath id="id6"><path d="M 146 0.0703125 L 187 0.0703125 L 187 32 L 146 32 Z M 146 0.0703125 " clip-rule="nonzero"/></clipPath><clipPath id="id7"><path d="M 141 0.0703125 L 192 0.0703125 L 192 36 L 141 36 Z M 141 0.0703125 " clip-rule="nonzero"/></clipPath><clipPath id="id8"><path d="M 182 92 L 250.640625 92 L 250.640625 159 L 182 159 Z M 182 92 " clip-rule="nonzero"/></clipPath><clipPath id="id9"><path d="M 19.453125 0.0703125 L 250.640625 0.0703125 L 250.640625 261.933594 L 19.453125 261.933594 Z M 19.453125 0.0703125 " clip-rule="nonzero"/></clipPath></defs><g clip-path="url(#id1)"><path fill="rgb(100%, 100%, 100%)" d="M 0 0.0703125 L 307.5 0.0703125 L 307.5 261.933594 L 0 261.933594 Z M 0 0.0703125 " fill-opacity="1" fill-rule="nonzero"/><path fill="rgb(100%, 100%, 100%)" d="M 0 0.0703125 L 307.5 0.0703125 L 307.5 261.933594 L 0 261.933594 Z M 0 0.0703125 " fill-opacity="1" fill-rule="nonzero"/><path fill="rgb(100%, 100%, 100%)" d="M 0 0.0703125 L 307.5 0.0703125 L 307.5 261.933594 L 0 261.933594 Z M 0 0.0703125 " fill-opacity="1" fill-rule="nonzero"/></g><g clip-path="url(#id2)"><path fill="rgb(17.248535%, 44.309998%, 94.119263%)" d="M 134.5 207.242188 L 143.09375 204.394531 L 145.292969 204.457031 L 146.75 205.332031 L 147.457031 206.386719 L 151.527344 206.507812 L 153.492188 207.8125 L 155.289062 207.664062 L 156.195312 206.34375 L 156.78125 206.34375 L 157.738281 207.445312 L 158.183594 207.5625 L 159.105469 207.5625 L 159.980469 206.964844 L 160.777344 206.851562 L 161.859375 208.113281 L 163.289062 208.96875 L 163.765625 208.996094 L 165.386719 207.023438 L 166.042969 206.972656 L 166.230469 207.519531 L 167.777344 208.097656 L 168.679688 207.484375 L 168.628906 206.582031 L 169.492188 204.640625 L 171.96875 202.210938 L 172.832031 202.003906 L 174.90625 202.390625 L 175.5 201.957031 L 176.851562 199.707031 L 178.191406 198.609375 L 180.417969 196.179688 L 180.609375 195.722656 L 180.523438 195.082031 L 180.820312 194.839844 L 182.007812 194.894531 L 186.449219 197.566406 L 188.054688 198.074219 L 188.667969 197.820312 L 189.886719 199.441406 L 190.546875 202.390625 L 191.175781 203.417969 L 192.351562 202.941406 L 192.625 202.425781 L 196.683594 203.734375 L 198.0625 205.230469 L 199.132812 205.578125 L 199.703125 205.449219 L 199.421875 204.980469 L 200.382812 204.257812 L 201.167969 204.671875 L 201.445312 205.03125 L 200.859375 207.1875 L 200.882812 209.0625 L 200.367188 209.886719 L 200.390625 210.5 L 201.164062 211.230469 L 201.296875 211.917969 L 200.320312 212.566406 L 200.21875 212.914062 L 200.542969 213.628906 L 202.519531 215.195312 L 202.964844 215.230469 L 203.5625 214.789062 L 203.6875 214.421875 L 202.761719 213.808594 L 203.039062 213.136719 L 203.566406 212.796875 L 205.839844 212.644531 L 205.917969 213.238281 L 205.484375 214.476562 L 205.597656 214.800781 L 206.125 214.890625 L 209.207031 213.863281 L 210.476562 214.957031 L 210.753906 216.691406 L 213.375 216.339844 L 213.324219 215.109375 L 213.714844 214.257812 L 214.734375 219.359375 L 213.542969 222.355469 L 206.644531 260.566406 L 205.4375 265.621094 L 205.445312 265.179688 L 204.929688 264.648438 L 202.769531 262.992188 L 201.824219 260.839844 L 200.976562 259.777344 L 199.554688 258.628906 L 198.921875 258.449219 L 196.695312 259.589844 L 196.257812 259.589844 L 193.109375 258.320312 L 203.660156 241.96875 L 203.164062 241.054688 L 202.808594 241.105469 L 201.617188 240.1875 L 201.226562 239.011719 L 200 237.910156 L 199.351562 237.769531 L 198.671875 238.078125 L 195.671875 237.785156 L 194.304688 236.3125 L 194.175781 235.628906 L 190.9375 233.511719 L 189.050781 234.355469 L 187.046875 234.890625 L 185.648438 235.667969 L 182.859375 235.449219 L 182.046875 234.402344 L 180.3125 233.65625 L 177.835938 233.503906 L 177.53125 232.273438 L 175.675781 233.597656 L 174.667969 235.027344 L 174.371094 235.941406 L 172.882812 235.808594 L 168.941406 237.871094 L 167.785156 237.753906 L 163.109375 236.414062 L 158.421875 237.992188 L 157.578125 236.296875 L 156.476562 236.460938 L 155.335938 235.839844 L 154.671875 235.160156 L 154.40625 233.84375 L 155.273438 233.109375 L 155.585938 232.238281 L 155.074219 228.699219 L 154.390625 227.511719 L 153.355469 226.832031 L 152.683594 227.453125 L 151.753906 227.902344 L 148.640625 226.199219 L 148.367188 225.90625 L 148.695312 224.40625 L 149.339844 223.703125 L 147.796875 221.433594 L 147.589844 219.957031 L 146.019531 218.507812 L 144.433594 218.59375 L 143.003906 218.199219 L 142.570312 217.296875 L 139.199219 215.132812 L 136.988281 214.527344 L 136.582031 214.179688 L 135.90625 212.863281 L 136.46875 211.640625 L 135.367188 210.492188 Z M 134.5 207.242188 " fill-opacity="1" fill-rule="nonzero"/></g><g clip-path="url(#id3)"><path stroke-linecap="butt" transform="matrix(1.689944, 0, 0, 1.686856, 15.639781, -5.337929)" fill="none" stroke-linejoin="miter" d="M 70.333812 126.021462 L 75.419039 124.333318 L 76.720395 124.370369 L 77.582572 124.889085 L 78.000947 125.514324 L 80.409496 125.58611 L 81.572164 126.359554 L 82.635438 126.271557 L 83.171699 125.488851 L 83.518419 125.488851 L 84.084728 126.141878 L 84.348235 126.211349 L 84.893741 126.211349 L 85.41151 125.857047 L 85.883049 125.789892 L 86.523326 126.537862 L 87.369322 127.045 L 87.651321 127.06121 L 88.61058 125.891783 L 88.998907 125.861679 L 89.109857 126.185876 L 90.025198 126.5286 L 90.559147 126.165035 L 90.529098 125.630109 L 91.039932 124.479207 L 92.505402 123.038843 L 93.016236 122.916111 L 94.243625 123.145365 L 94.594968 122.888322 L 95.394735 121.55448 L 96.187568 120.903769 L 97.505104 119.463405 L 97.618366 119.192468 L 97.567514 118.812694 L 97.743186 118.669121 L 98.445871 118.701541 L 101.074009 120.285478 L 102.024022 120.586519 L 102.386922 120.435998 L 103.1081 121.397013 L 103.498738 123.145365 L 103.870884 123.754393 L 104.566636 123.471878 L 104.728438 123.166206 L 107.130052 123.941965 L 107.946 124.828877 L 108.579342 125.034974 L 108.916816 124.958556 L 108.750391 124.680673 L 109.319011 124.252268 L 109.783616 124.497732 L 109.94773 124.710777 L 109.60101 125.989042 L 109.614879 127.100577 L 109.309766 127.589189 L 109.323634 127.952754 L 109.781305 128.385789 L 109.859895 128.793352 L 109.282028 129.177758 L 109.22193 129.383855 L 109.413782 129.807628 L 110.583384 130.736223 L 110.846891 130.757064 L 111.200545 130.49539 L 111.274512 130.277714 L 110.726695 129.91415 L 110.890809 129.51585 L 111.202857 129.314384 L 112.548131 129.224072 L 112.59436 129.576058 L 112.337787 130.310134 L 112.40482 130.502337 L 112.716868 130.555598 L 114.540615 129.94657 L 115.291842 130.594965 L 115.455956 131.623135 L 117.00695 131.414722 L 116.976901 130.685277 L 117.208048 130.180455 L 117.81134 133.204757 L 117.106343 134.980897 L 113.024293 157.633054 L 112.310049 160.629567 L 112.314672 160.367893 L 112.009559 160.052958 L 110.731318 159.071103 L 110.171943 157.795153 L 109.670354 157.165283 L 108.82898 156.484468 L 108.454523 156.377946 L 107.136987 157.05413 L 106.878102 157.05413 L 105.01506 156.301528 L 111.258332 146.608016 L 110.964776 146.066143 L 110.754432 146.096247 L 110.049435 145.552058 L 109.818288 144.855033 L 109.092488 144.202006 L 108.708784 144.118641 L 108.306589 144.301581 L 106.531382 144.127904 L 105.722369 143.254886 L 105.646091 142.849639 L 103.729885 141.59453 L 102.613446 142.094721 L 101.427664 142.411972 L 100.600159 142.872795 L 98.949771 142.743116 L 98.468986 142.122509 L 97.442695 141.680211 L 95.977225 141.589899 L 95.79693 140.860454 L 94.698984 141.645476 L 94.102625 142.493021 L 93.926954 143.034894 L 93.046285 142.956161 L 90.714015 144.178849 L 90.029821 144.109378 L 87.262995 143.315094 L 84.489235 144.250636 L 83.989958 143.245623 L 83.338124 143.342882 L 82.663176 142.974686 L 82.270227 142.571755 L 82.113047 141.791365 L 82.626193 141.356013 L 82.81111 140.839613 L 82.508308 138.74159 L 82.103801 138.037618 L 81.491262 137.634687 L 81.09369 138.002883 L 80.543561 138.269188 L 78.701322 137.259544 L 78.539519 137.085866 L 78.733682 136.196638 L 79.115074 135.779813 L 78.202045 134.434392 L 78.079537 133.559058 L 77.150328 132.699934 L 76.211872 132.75088 L 75.365875 132.516994 L 75.109302 131.982068 L 73.114507 130.699171 L 71.806216 130.340238 L 71.565824 130.134141 L 71.16594 129.353751 L 71.498791 128.628938 L 70.846958 127.948122 Z M 70.333812 126.021462 " stroke="rgb(100%, 100%, 100%)" stroke-width="0.5" stroke-opacity="1" stroke-miterlimit="4"/></g><path stroke-linecap="butt" transform="matrix(1.689944, 0, 0, 1.686856, 15.639781, -5.337929)" fill-opacity="1" fill="rgb(17.248535%, 44.309998%, 94.119263%)" fill-rule="nonzero" stroke-linejoin="miter" d="M 67.560052 65.963836 L 67.284987 65.917522 L 65.826452 66.34361 L 64.150638 66.586759 L 63.748443 67.135579 L 62.826168 67.779343 L 61.709729 67.031373 L 60.688061 66.952639 L 58.519905 66.348242 L 58.686331 68.196169 L 58.524528 68.316585 L 56.961976 68.28185 L 55.998095 68.721832 L 54.858542 68.687097 L 53.850742 67.55472 L 53.767529 67.318519 L 53.964004 66.649282 L 53.478596 65.280705 L 53.665825 64.778199 L 53.714366 64.051069 L 52.974696 63.877392 L 52.803648 63.726872 L 52.662648 63.344782 L 52.567878 62.094305 L 51.775045 61.668216 L 49.082186 62.168407 L 48.085944 62.124409 L 47.304668 61.026768 L 47.172914 59.417358 L 46.324606 57.622692 L 45.6381 57.124817 L 45.547953 55.87434 L 46.070345 55.698347 L 46.775342 55.846552 L 47.221455 55.47604 L 47.239947 55.12637 L 46.948702 54.403872 L 47.10357 54.172302 L 48.455779 54.121357 L 49.648495 54.473343 L 49.826478 54.376083 L 50.09692 52.757411 L 49.872708 52.060386 L 49.255546 51.201262 L 48.691548 50.995164 L 48.113681 50.534341 L 45.104152 47.320152 L 44.399154 47.165 L 44.267401 46.287351 L 44.611809 46.183144 L 45.037119 45.826527 L 45.330675 44.631627 L 45.994066 44.075859 L 46.569622 43.902182 L 46.853932 43.457568 L 46.872424 44.478791 L 46.336163 44.284272 L 46.10964 44.430161 L 46.042607 45.34023 L 46.537261 45.594957 L 47.061964 45.636639 L 47.621339 45.500013 L 47.74847 45.342546 L 47.868666 44.356059 L 47.471094 40.803778 L 47.013423 40.125278 L 46.491032 39.752451 L 46.001001 39.601931 L 45.998689 39.303206 L 46.414753 38.789121 L 48.421107 38.268089 L 50.716393 36.357638 L 50.771868 36.070491 L 51.097785 36.552157 L 51.19949 37.640535 L 51.462997 38.35377 L 51.781979 38.698809 L 52.859123 39.242998 L 53.04404 39.655192 L 52.896106 40.940404 L 51.426013 42.528973 L 51.088539 43.33252 L 50.771868 45.270759 L 50.004461 46.159987 L 49.912003 47.482251 L 50.15933 48.804514 L 51.555456 50.777489 L 56.333257 50.728859 L 57.92817 48.748938 L 58.048366 48.04265 L 58.686331 47.169632 L 58.982198 47.11637 L 59.687196 47.554037 L 59.846687 47.410464 L 60.137932 46.426292 L 60.940011 46.12062 L 61.330649 45.365703 L 62.386989 44.363006 L 64.75162 44.277325 L 65.137635 44.038808 L 65.983631 42.957377 L 66.977562 43.800291 L 68.496196 44.796041 L 68.803621 45.219814 L 68.89608 46.829224 L 69.099489 47.079319 L 68.877588 48.130646 L 68.241935 49.946153 L 69.247423 51.076214 L 69.751322 50.687177 L 70.289894 49.784054 L 70.477123 49.661322 L 70.657417 49.737741 L 70.800728 50.309718 L 70.292206 51.092424 L 70.181255 52.234063 L 70.763745 54.156092 L 71.741495 54.112094 L 74.536059 51.47683 L 74.436666 51.933022 L 74.552239 53.134869 L 74.85273 53.588746 L 74.942877 54.209353 L 74.512944 54.603022 L 73.759406 54.968902 L 72.841753 56.22401 L 71.27689 57.476803 L 70.349992 57.775528 L 70.005584 58.203932 L 69.917748 58.52813 L 69.991715 59.343256 L 70.234419 59.741556 L 70.153518 59.940706 L 69.256668 60.941087 L 68.653376 61.267601 L 68.399114 61.589483 L 68.14023 62.383767 L 68.179525 63.958442 L 68.017722 64.122856 Z M 67.560052 65.963836 " stroke="rgb(100%, 100%, 100%)" stroke-width="0.5" stroke-opacity="1" stroke-miterlimit="4"/><path stroke-linecap="butt" transform="matrix(1.689944, 0, 0, 1.686856, 15.639781, -5.337929)" fill-opacity="1" fill="rgb(17.248535%, 44.309998%, 94.119263%)" fill-rule="nonzero" stroke-linejoin="miter" d="M 113.391816 63.435094 L 110.655039 61.290757 L 109.908435 60.961928 L 108.216442 60.929509 L 106.790267 61.554747 L 105.396452 61.647375 L 102.495561 61.529274 L 100.301979 61.003611 L 97.648415 61.858103 L 96.740009 61.871998 L 96.467256 61.658953 L 95.195949 61.726109 L 93.136432 62.159144 L 91.915978 62.978901 L 91.717192 62.971954 L 90.524475 62.525024 L 89.752445 61.510749 L 89.699281 60.528893 L 90.496737 59.632718 L 91.680208 58.944955 L 91.779601 58.391504 L 92.757352 56.367584 L 93.002367 55.068477 L 93.573299 54.167671 L 94.04715 54.387662 L 94.467837 54.383031 L 95.711406 53.820316 L 96.668353 53.709162 L 97.976644 54.040307 L 99.227147 54.04957 L 100.66488 54.609969 L 102.151153 54.408503 L 103.260657 53.80179 L 103.468689 53.544748 L 105.054355 53.327072 L 106.644644 53.704531 L 109.097111 54.84617 L 109.790551 54.508078 L 110.76599 54.491868 L 117.328244 62.643125 L 116.951475 62.948797 L 116.188691 63.254469 L 114.117617 63.171104 Z M 113.391816 63.435094 " stroke="rgb(100%, 100%, 100%)" stroke-width="0.5" stroke-opacity="1" stroke-miterlimit="4"/><path stroke-linecap="butt" transform="matrix(1.689944, 0, 0, 1.686856, 15.639781, -5.337929)" fill-opacity="1" fill="rgb(17.248535%, 44.309998%, 94.119263%)" fill-rule="nonzero" stroke-linejoin="miter" d="M 62.021777 17.903841 L 63.968032 16.889565 L 64.125212 16.30601 L 65.66696 14.775333 L 65.847255 15.29405 L 66.374269 15.701612 L 67.007611 16.845567 L 66.966005 19.784188 L 66.878169 20.198698 L 66.062221 20.90267 L 65.14688 23.053953 L 62.118859 20.907301 L 62.040269 20.499738 L 62.18358 19.666087 L 61.94781 18.809279 L 62.188203 18.589288 L 62.102679 18.274353 L 61.957056 18.427189 Z M 62.021777 17.903841 " stroke="rgb(100%, 100%, 100%)" stroke-width="0.5" stroke-opacity="1" stroke-miterlimit="4"/><path stroke-linecap="butt" transform="matrix(1.689944, 0, 0, 1.686856, 15.639781, -5.337929)" fill-opacity="1" fill="rgb(17.248535%, 44.309998%, 94.119263%)" fill-rule="nonzero" stroke-linejoin="miter" d="M 75.876709 43.246839 L 75.259548 43.733136 L 75.067696 44.29585 L 75.079253 44.907195 L 75.677923 46.942693 L 75.497629 48.482632 L 74.71173 50.008677 L 74.540682 51.479145 L 71.743807 54.11441 L 70.763745 54.158408 L 70.183567 52.236379 L 70.296829 51.09474 L 70.80304 50.312034 L 70.659729 49.740056 L 70.481746 49.665954 L 70.294517 49.788686 L 69.753634 50.689492 L 69.249734 51.07853 L 68.244246 49.948469 L 68.882211 48.135278 L 69.1018 47.083951 L 68.900703 46.833855 L 68.810555 45.22213 L 68.50313 44.798357 L 66.984497 43.802607 L 65.988254 42.959693 L 66.402007 42.762858 L 66.635465 42.253405 L 67.795821 41.973205 L 68.653376 40.243379 L 68.290475 39.210578 L 68.292787 37.485383 L 68.646441 37.177395 L 68.135607 36.03344 L 67.553117 35.294733 L 65.82414 34.268878 L 65.431191 33.787213 L 64.952717 32.7822 L 65.005881 31.508566 L 64.816341 31.066268 L 64.409523 30.586919 L 61.228944 28.041967 L 61.12724 26.904959 L 60.706553 26.724335 L 59.83513 25.645219 L 59.370525 24.577683 L 58.808838 24.746728 L 58.912854 24.306746 L 59.271132 23.848238 L 59.146313 21.585801 L 59.735737 21.307917 L 59.557754 20.314483 L 60.461537 19.270103 L 61.610336 18.637917 L 61.864598 18.668021 L 61.954745 18.811595 L 62.190514 19.670719 L 62.047203 20.50437 L 62.125793 20.909617 L 65.153815 23.056269 L 64.837144 24.098333 L 64.929603 24.399374 L 65.727059 24.705046 L 66.23327 25.418281 L 66.166237 25.791108 L 65.581436 26.099096 L 65.491289 26.351507 L 65.544453 27.152739 L 66.316483 29.801897 L 66.196286 30.911116 L 66.762596 31.161212 L 67.174037 31.107951 L 67.772707 31.517829 L 68.422229 32.21717 L 70.571893 32.995245 L 71.697577 33.893735 L 72.462673 34.80612 L 73.801012 35.243787 L 75.049204 35.405886 L 74.991418 36.054281 L 75.38899 36.607733 L 75.523055 37.80958 L 75.465268 38.569129 L 75.858218 39.319416 L 76.198003 41.072399 L 76.14484 42.128357 Z M 61.957056 18.427189 L 61.790631 18.360034 L 61.829926 17.91542 L 62.021777 17.901525 Z M 61.957056 18.427189 " stroke="rgb(100%, 100%, 100%)" stroke-width="0.5" stroke-opacity="1" stroke-miterlimit="4"/><path stroke-linecap="butt" transform="matrix(1.689944, 0, 0, 1.686856, 15.639781, -5.337929)" fill-opacity="1" fill="rgb(17.248535%, 44.309998%, 94.119263%)" fill-rule="nonzero" stroke-linejoin="miter" d="M 88.009599 55.323204 L 89.449643 55.22826 L 89.727019 54.980481 L 90.015952 54.406188 L 90.972899 53.861999 L 91.996879 53.905997 L 92.366714 53.669796 L 92.949203 54.107463 L 93.573299 54.169986 L 93.002367 55.068477 L 92.757352 56.367584 L 91.779601 58.391504 L 91.680208 58.944955 L 90.496737 59.632718 L 89.699281 60.528893 L 89.343315 60.860038 L 89.128349 61.344019 L 89.049759 62.812171 L 89.528232 63.326256 L 88.971169 65.250601 L 90.002083 65.695215 L 90.450508 66.459395 L 90.041378 67.705241 L 89.278594 68.020176 L 89.100611 67.913654 L 88.904136 67.987756 L 87.97955 69.210444 L 86.735981 70.106619 L 85.809082 70.233983 L 85.041675 69.555483 L 83.839713 71.049109 L 83.58314 71.773922 L 84.2604 72.619152 L 83.957597 73.107764 L 83.34737 73.343965 L 82.935929 73.820999 L 82.568406 75.092317 L 82.901257 75.791658 L 82.499062 76.465526 L 81.606836 76.437738 L 80.365578 75.337781 L 79.427122 74.953375 L 78.269078 74.101198 L 78.197422 73.830262 L 78.361536 73.202708 L 78.858502 72.593679 L 78.694387 71.653506 L 78.329176 70.954165 L 77.915423 69.641164 L 77.258967 68.856143 L 76.58633 68.682465 L 75.84666 67.950705 L 75.4514 68.038701 L 74.991418 68.362899 L 74.845795 68.983506 L 74.235568 69.608744 L 73.505144 69.81021 L 72.270821 68.888562 L 71.632856 68.666255 L 70.828466 67.640401 L 70.731384 67.286099 L 71.179809 66.739595 L 71.022629 65.831841 L 70.772991 65.544695 L 69.853027 66.091199 L 69.067128 65.903628 L 67.909083 66.149092 L 67.738035 66.290349 L 67.560052 65.963836 L 68.017722 64.122856 L 68.179525 63.958442 L 68.14023 62.383767 L 68.399114 61.589483 L 68.653376 61.267601 L 70.169698 63.303099 L 70.440139 63.381833 L 71.043432 63.131737 L 71.286136 63.219734 L 71.723004 64.155276 L 72.582869 64.951876 L 73.613783 65.528485 L 74.138486 66.306559 L 76.519297 65.882786 L 77.111033 66.315822 L 77.342179 66.16067 L 77.72126 64.31969 L 78.285258 62.955744 L 78.578814 62.55976 L 79.873236 63.316993 L 79.984186 63.796343 L 79.635154 64.738832 L 79.660581 65.36407 L 80.009612 65.799421 L 80.612905 65.854998 L 81.306345 65.433541 L 81.227755 64.875458 L 81.419607 64.426212 L 82.15003 64.215484 L 83.007585 64.361373 L 85.464674 61.494539 L 85.862246 60.630784 L 85.83682 60.151434 L 85.471608 59.306204 L 85.478543 58.349821 L 85.75823 58.308139 L 86.306048 58.64623 L 86.604227 59.549353 L 87.323093 59.484513 L 87.660567 59.190419 L 88.266172 57.449015 L 88.173713 55.774765 Z M 88.009599 55.323204 " stroke="rgb(100%, 100%, 100%)" stroke-width="0.5" stroke-opacity="1" stroke-miterlimit="4"/><path stroke-linecap="butt" transform="matrix(1.689944, 0, 0, 1.686856, 15.639781, -5.337929)" fill-opacity="1" fill="rgb(17.248535%, 44.309998%, 94.119263%)" fill-rule="nonzero" stroke-linejoin="miter" d="M 54.199774 110.728593 L 54.095758 110.969425 L 52.845254 111.388566 L 51.317374 111.335305 L 50.032199 110.82122 L 49.549102 110.047777 L 49.916626 108.375843 L 49.447398 107.398619 L 49.193136 107.167049 L 48.781695 107.129998 L 48.504319 107.296728 L 47.905649 107.984491 L 46.967194 108.181325 L 47.223767 107.725132 L 47.429487 106.071724 L 47.205275 105.539113 L 45.406954 104.427578 L 44.639547 104.629044 L 42.665554 104.691568 L 42.758013 103.422566 L 43.36824 102.852904 L 43.666419 102.299452 L 42.237933 100.768776 L 41.671623 99.851759 L 41.495952 99.759131 L 40.483529 99.872601 L 39.33473 99.814708 L 38.865503 99.687345 L 38.225226 99.226521 L 37.413902 97.642584 L 36.489315 96.290216 L 36.366807 95.8896 L 36.403791 95.50751 L 36.785183 96.197588 L 37.129591 96.36895 L 37.827654 96.278637 L 38.229849 95.891916 L 38.047243 95.586244 L 37.890064 94.51176 L 38.528029 93.46738 L 40.111383 91.64261 L 41.435854 89.479748 L 42.180146 90.456973 L 43.687222 91.554614 L 45.390774 91.712081 L 45.60574 91.406409 L 46.162803 91.672714 L 46.72449 92.302584 L 48.848728 91.149367 L 49.276349 91.100737 L 50.432083 90.586652 L 50.649361 90.183721 L 50.626246 89.808577 L 50.466755 89.595533 L 50.681721 89.225022 L 51.130146 89.171761 L 51.939159 89.322281 L 53.222023 89.996149 L 53.964004 90.172142 L 53.915463 90.880746 L 54.710608 92.242376 L 56.846403 97.371647 L 55.949554 97.503642 L 55.078131 96.857562 L 54.662067 96.723251 L 54.354642 96.908507 L 53.700497 97.721317 L 53.180417 97.862575 L 52.50778 97.716686 L 52.290502 97.837102 L 51.361292 98.883798 L 51.781979 100.345003 L 51.781979 100.627518 L 51.638668 100.752566 L 51.000703 100.79888 L 49.703971 100.301005 L 49.015154 100.590467 L 49.139973 102.549547 L 49.327202 102.764907 L 49.858839 102.764907 L 50.298018 102.95711 L 50.714082 103.542982 L 50.690967 104.515575 L 50.792671 104.740198 L 51.488423 105.400172 L 52.484665 106.023094 L 53.379203 105.974465 L 53.383826 106.382028 L 52.60255 107.928914 L 52.283568 108.243849 L 52.228092 108.537942 L 52.399141 109.517483 L 53.772152 110.212192 Z M 54.199774 110.728593 " stroke="rgb(100%, 100%, 100%)" stroke-width="0.5" stroke-opacity="1" stroke-miterlimit="4"/><path stroke-linecap="butt" transform="matrix(1.689944, 0, 0, 1.686856, 15.639781, -5.337929)" fill-opacity="1" fill="rgb(17.248535%, 44.309998%, 94.119263%)" fill-rule="nonzero" stroke-linejoin="miter" d="M 75.876709 43.246839 L 76.135594 42.12141 L 76.188757 41.065452 L 75.84666 39.312468 L 75.453711 38.562182 L 75.511498 37.802633 L 75.379744 36.600786 L 74.97986 36.047334 L 75.039958 35.398939 L 75.654809 34.419399 L 74.887402 33.555643 L 74.309535 32.191697 L 73.544439 30.985219 L 72.756229 30.429451 L 73.357211 29.61201 L 73.625341 29.466121 L 75.902136 29.447595 L 75.382056 27.967864 L 73.156113 24.931984 L 73.472784 23.797292 L 74.371945 22.255038 L 78.227471 20.527527 L 77.684276 19.580406 L 77.702768 19.186738 L 78.024062 18.510554 L 77.189623 17.524067 L 77.145705 17.232289 L 77.388409 16.783043 L 77.716637 17.209132 L 77.98939 17.283234 L 80.277742 17.294813 L 80.892592 17.547224 L 82.48057 19.251577 L 82.62157 19.617458 L 82.399669 20.515948 L 82.10149 20.645627 L 81.576787 21.307917 L 82.103801 21.66685 L 83.638615 21.423702 L 84.234973 21.497804 L 83.94604 24.478108 L 83.580828 25.575748 L 83.321944 27.817344 L 82.589209 29.341073 L 81.033592 31.265418 L 79.905596 33.01377 L 79.76922 33.537118 L 79.45486 34.30593 L 79.230648 35.852816 L 79.29768 37.622009 L 78.562634 38.698809 L 78.4147 39.632035 L 78.925534 41.445226 L 79.191353 41.526276 L 79.457172 41.303969 L 79.420188 40.523578 L 79.545007 40.352217 L 79.877858 40.326744 L 80.194529 40.599996 L 80.141366 41.959311 L 79.658269 42.15383 L 79.510335 42.547498 L 80.22689 43.846605 L 80.550495 45.02298 L 79.914842 46.555972 L 79.434057 47.151106 L 78.759109 47.431305 L 77.723571 47.558669 L 77.432327 47.218261 L 76.443019 47.146475 L 76.3182 46.894063 L 76.88682 45.525486 Z M 75.876709 43.246839 " stroke="rgb(100%, 100%, 100%)" stroke-width="0.5" stroke-opacity="1" stroke-miterlimit="4"/><path stroke-linecap="butt" transform="matrix(1.689944, 0, 0, 1.686856, 15.639781, -5.337929)" fill-opacity="1" fill="rgb(17.248535%, 44.309998%, 94.119263%)" fill-rule="nonzero" stroke-linejoin="miter" d="M 41.831115 38.284299 L 42.018343 38.407031 L 42.462145 39.205946 L 42.610079 39.796449 L 43.026143 40.294324 L 44.038565 40.815356 L 44.542465 41.618904 L 45.617297 42.457186 L 45.806838 43.209788 L 46.384704 43.568721 L 46.853932 43.457568 L 46.56731 43.899866 L 45.996378 44.073543 L 45.328364 44.629311 L 45.034808 45.824211 L 44.609498 46.183144 L 44.267401 46.287351 L 44.396843 47.165 L 45.104152 47.320152 L 48.113681 50.534341 L 48.689237 50.995164 L 49.253235 51.198946 L 49.870396 52.060386 L 50.094609 52.757411 L 49.824167 54.376083 L 49.648495 54.473343 L 48.455779 54.121357 L 47.10357 54.172302 L 46.948702 54.403872 L 47.239947 55.12637 L 47.219144 55.47604 L 46.773031 55.846552 L 46.070345 55.698347 L 45.547953 55.87434 L 45.6381 57.124817 L 46.324606 57.622692 L 47.170603 59.417358 L 47.302357 61.024452 L 48.083632 62.124409 L 49.084498 62.168407 L 51.772733 61.668216 L 52.567878 62.094305 L 52.660337 63.342466 L 52.801336 63.726872 L 52.972385 63.877392 L 53.714366 64.051069 L 53.663513 64.780514 L 53.480907 65.280705 L 53.961692 66.649282 L 53.765218 67.318519 L 53.846119 67.55472 L 54.853919 68.687097 L 52.565567 69.69211 L 51.592439 70.641546 L 52.660337 73.070713 L 53.386137 73.536168 L 53.180417 74.196142 L 52.581747 74.538865 L 51.382096 75.567035 L 49.747888 78.873852 L 49.678544 79.302256 L 49.835724 80.17759 L 50.575394 81.055239 L 50.445951 81.395647 L 49.380365 82.247824 L 47.905649 82.715595 L 47.387881 82.73412 L 46.497966 82.229298 L 45.182742 81.789316 L 44.232729 80.976506 L 43.925304 80.851458 L 43.340502 80.948717 L 42.956799 80.411475 L 43.012274 80.263271 L 42.106179 80.184537 L 41.676246 79.494459 L 42.337326 77.55622 L 42.256425 75.919021 L 41.953622 74.515708 L 41.775639 72.473263 L 41.784885 71.790132 L 42.009098 70.977322 L 41.893524 70.428502 L 41.544493 68.930245 L 40.254694 68.335111 L 40.518201 67.714504 L 41.317969 67.334729 L 41.900459 67.522301 L 42.207884 67.406516 L 42.935996 66.526551 L 43.028454 66.061095 L 42.094622 63.882023 L 40.668447 62.001677 L 40.793266 61.073082 L 41.4451 61.485276 L 41.653132 61.086976 L 41.932819 60.044912 L 42.080753 58.370662 L 41.438165 57.198919 L 40.883413 56.971981 L 38.981076 55.429726 L 39.110518 54.471027 L 38.844699 53.720741 L 36.859149 52.076595 L 37.640425 49.696058 L 38.202112 49.642797 L 38.465619 49.147238 L 38.102719 48.223274 L 38.10503 47.653612 L 38.24603 47.39657 L 39.006502 47.785607 L 39.614418 49.121765 L 39.831696 49.246813 L 42.175523 47.572563 L 42.184769 47.338677 L 41.803377 46.840802 L 42.515309 45.636639 L 43.271158 45.326336 L 43.435273 44.733517 L 43.27347 43.890603 L 42.721029 42.832329 L 41.875032 42.007941 L 41.754836 40.924194 L 41.463591 40.421688 L 41.241691 40.217906 L 40.864921 40.224853 L 40.795577 39.752451 L 41.782574 38.555235 Z M 41.521378 79.686662 L 41.738656 79.81171 L 41.930508 80.247061 L 42.277228 80.353583 L 40.102137 80.881562 L 40.194596 80.536523 L 41.197773 79.59635 Z M 41.521378 79.686662 " stroke="rgb(100%, 100%, 100%)" stroke-width="0.5" stroke-opacity="1" stroke-miterlimit="4"/><path stroke-linecap="butt" transform="matrix(1.689944, 0, 0, 1.686856, 15.639781, -5.337929)" fill-opacity="1" fill="rgb(17.248535%, 44.309998%, 94.119263%)" fill-rule="nonzero" stroke-linejoin="miter" d="M 60.549373 75.046003 L 59.398262 74.145197 L 58.466741 74.094251 L 57.475122 73.735318 L 56.414159 73.985414 L 56.076685 73.987729 L 55.870964 73.818683 L 55.494195 72.795145 L 55.630572 72.470947 L 56.670732 71.505301 L 57.611499 70.972691 L 58.168562 70.150618 L 57.366483 69.580956 L 56.099799 69.990835 L 55.937997 69.784737 L 55.998095 68.721832 L 56.964288 68.28185 L 58.526839 68.316585 L 58.686331 68.196169 L 58.522217 66.348242 L 60.688061 66.952639 L 61.709729 67.031373 L 62.828479 67.779343 L 63.748443 67.135579 L 64.15295 66.586759 L 65.828763 66.34361 L 67.287299 65.917522 L 67.560052 65.963836 L 67.738035 66.290349 L 67.502265 68.471737 L 67.566986 68.895509 L 67.141676 69.909785 L 66.732547 70.509551 L 66.152369 70.340505 L 65.181552 70.315032 L 64.296261 70.521129 L 63.750754 70.88701 L 63.149773 71.662769 L 61.6635 71.797079 L 61.399993 72.093488 L 60.926142 73.772369 L 61.210452 74.469394 Z M 60.549373 75.046003 " stroke="rgb(100%, 100%, 100%)" stroke-width="0.5" stroke-opacity="1" stroke-miterlimit="4"/><path stroke-linecap="butt" transform="matrix(1.689944, 0, 0, 1.686856, 15.639781, -5.337929)" fill-opacity="1" fill="rgb(17.248535%, 44.309998%, 94.119263%)" fill-rule="nonzero" stroke-linejoin="miter" d="M 65.983631 42.957377 L 65.137635 44.038808 L 64.75162 44.277325 L 62.386989 44.363006 L 61.330649 45.365703 L 60.940011 46.12062 L 60.137932 46.426292 L 59.846687 47.410464 L 59.689507 47.554037 L 58.982198 47.11637 L 58.686331 47.169632 L 58.050677 48.04265 L 57.92817 48.748938 L 56.333257 50.726544 L 51.555456 50.777489 L 50.15933 48.804514 L 49.912003 47.482251 L 50.004461 46.159987 L 50.771868 45.270759 L 51.088539 43.33252 L 51.426013 42.528973 L 52.896106 40.940404 L 53.04404 39.655192 L 52.859123 39.242998 L 51.781979 38.698809 L 51.462997 38.35377 L 51.19949 37.640535 L 51.097785 36.552157 L 50.771868 36.070491 L 51.812028 35.762504 L 52.31824 35.22063 L 53.189663 32.918826 L 53.977873 31.962443 L 55.605145 31.133423 L 56.582896 30.975956 L 57.445073 31.142686 L 57.932792 31.865184 L 59.335853 32.819251 L 60.399128 33.89142 L 61.31678 34.150778 L 62.065695 34.736649 L 62.426284 35.71619 L 62.313022 36.540578 L 62.024089 36.424793 L 61.305223 36.51279 L 60.574799 36.790673 L 60.56093 37.056979 L 61.115682 38.499658 L 61.386124 40.125278 L 61.6635 40.206328 L 62.248301 40.04886 L 62.481759 40.185487 L 62.574218 41.095556 L 63.288461 40.903353 L 64.275457 40.062755 L 65.623043 40.625469 L 66.309548 41.239129 L 66.415876 41.961627 L 66.630842 42.251089 L 66.397384 42.760543 Z M 65.983631 42.957377 " stroke="rgb(100%, 100%, 100%)" stroke-width="0.5" stroke-opacity="1" stroke-miterlimit="4"/><path stroke-linecap="butt" transform="matrix(1.689944, 0, 0, 1.686856, 15.639781, -5.337929)" fill-opacity="1" fill="rgb(17.248535%, 44.309998%, 94.119263%)" fill-rule="nonzero" stroke-linejoin="miter" d="M 92.553943 114.204455 L 93.379136 115.102946 L 94.010167 116.205218 L 94.343018 117.224125 L 94.941688 117.374646 L 95.632816 118.004515 L 97.267023 118.967846 L 97.567514 118.812694 L 97.618366 119.192468 L 97.502793 119.463405 L 96.187568 120.903769 L 95.394735 121.55448 L 94.594968 122.888322 L 94.241313 123.145365 L 93.013924 122.916111 L 92.50309 123.038843 L 91.03762 124.479207 L 90.529098 125.630109 L 90.559147 126.165035 L 90.025198 126.5286 L 89.109857 126.185876 L 88.998907 125.861679 L 88.61058 125.891783 L 87.651321 127.06121 L 87.369322 127.045 L 86.521014 126.537862 L 85.883049 125.789892 L 85.409199 125.857047 L 84.893741 126.211349 L 84.348235 126.211349 L 84.084728 126.141878 L 83.516107 125.488851 L 83.171699 125.488851 L 82.635438 126.271557 L 81.572164 126.359554 L 80.409496 125.58611 L 77.998636 125.514324 L 77.58026 124.889085 L 76.720395 124.370369 L 75.419039 124.333318 L 74.267929 124.018383 L 73.632275 123.673344 L 72.846376 122.872112 L 72.136756 122.677594 L 71.313874 122.207507 L 70.701335 121.623951 L 69.695847 121.315963 L 69.393045 121.816154 L 68.267361 121.605426 L 67.518445 121.158496 L 67.310413 120.415157 L 67.664068 120.090959 L 67.150922 118.808063 L 66.963693 118.669121 L 65.653092 118.456077 L 64.652227 118.03462 L 64.411834 116.939294 L 64.564391 116.49468 L 64.444195 116.244585 L 63.392477 115.68187 L 62.837725 116.017647 L 62.569595 115.957438 L 62.27835 115.353041 L 62.331514 114.73475 L 61.954745 113.720474 L 61.684303 113.512061 L 61.302911 113.419434 L 60.336718 113.576901 L 59.541573 113.363857 L 59.201788 112.840509 L 58.321119 112.34495 L 57.264779 112.590414 L 56.397979 112.277794 L 55.757702 111.573822 L 55.681424 111.045843 L 55.452589 110.756381 L 54.199774 110.728593 L 53.769841 110.212192 L 52.399141 109.517483 L 52.225781 108.537942 L 52.281256 108.243849 L 52.60255 107.928914 L 53.383826 106.382028 L 53.379203 105.974465 L 55.189081 105.798472 L 55.496506 105.580796 L 59.100083 101.002661 L 59.278066 100.458472 L 61.212764 98.31182 L 61.608025 97.575428 L 61.908515 96.542627 L 62.215941 96.255481 L 62.745266 96.422211 L 63.024954 96.350424 L 64.032753 95.526036 L 64.462686 94.991109 L 64.109032 94.206088 L 64.085917 93.851786 L 64.985078 92.610572 L 66.623908 93.124657 L 67.756526 93.921257 L 68.186459 94.534917 L 68.121738 95.208785 L 67.280364 96.528733 L 67.423675 98.381291 L 67.899837 99.798498 L 68.054706 101.607058 L 68.981604 102.920059 L 69.709716 103.292887 L 71.76461 103.674977 L 72.605984 104.645254 L 73.775586 105.490484 L 74.801877 105.446486 L 76.595576 104.920822 L 77.164196 105.048186 L 77.221983 105.97678 L 78.139635 107.178628 L 78.886239 107.908072 L 79.45486 109.503588 L 81.542115 111.187101 L 81.720098 111.488141 L 82.44821 111.796129 L 83.019142 111.768341 L 84.484612 110.668384 L 84.602497 110.473866 L 84.456874 110.043146 L 84.803594 109.531377 L 86.061032 109.165496 L 86.682817 109.322964 L 86.883914 109.649477 L 87.679059 110.170509 L 88.233811 110.156615 L 88.816301 110.721645 L 89.967411 112.250006 L 90.633114 113.70658 L 91.046866 113.549113 Z M 92.553943 114.204455 " stroke="rgb(100%, 100%, 100%)" stroke-width="0.5" stroke-opacity="1" stroke-miterlimit="4"/><path stroke-linecap="butt" transform="matrix(1.689944, 0, 0, 1.686856, 15.639781, -5.337929)" fill-opacity="1" fill="rgb(17.248535%, 44.309998%, 94.119263%)" fill-rule="nonzero" stroke-linejoin="miter" d="M 82.901257 75.791658 L 82.568406 75.092317 L 82.935929 73.820999 L 83.34737 73.343965 L 83.957597 73.107764 L 84.2604 72.619152 L 83.58314 71.773922 L 83.842024 71.049109 L 85.041675 69.555483 L 85.809082 70.233983 L 86.738292 70.106619 L 87.97955 69.210444 L 88.904136 67.987756 L 89.100611 67.911338 L 89.278594 68.020176 L 90.041378 67.705241 L 90.450508 66.459395 L 90.002083 65.695215 L 88.971169 65.250601 L 89.528232 63.326256 L 89.049759 62.812171 L 89.128349 61.344019 L 89.343315 60.860038 L 89.701592 60.528893 L 89.754756 61.510749 L 90.524475 62.525024 L 91.717192 62.971954 L 91.915978 62.978901 L 93.136432 62.159144 L 95.195949 61.726109 L 96.467256 61.658953 L 96.740009 61.871998 L 97.648415 61.858103 L 100.301979 61.003611 L 102.495561 61.529274 L 105.396452 61.647375 L 106.790267 61.554747 L 108.216442 60.929509 L 109.908435 60.961928 L 110.657351 61.290757 L 113.391816 63.435094 L 112.820884 64.108962 L 112.226837 65.632691 L 110.997136 67.202734 L 110.074861 67.712188 L 108.558539 67.904391 L 107.670936 68.254061 L 105.479665 69.580956 L 105.36178 70.215457 L 103.857015 71.600245 L 103.189001 71.954546 L 102.151153 73.70753 L 101.605647 74.210036 L 100.396749 74.983479 L 99.171672 75.344728 L 97.068237 76.294164 L 96.243044 76.875405 L 95.13354 77.271389 L 93.10176 78.778908 L 92.50309 79.052161 L 92.228026 79.029004 L 91.821208 78.607547 L 91.527651 78.510287 L 90.663163 78.612178 L 89.868018 78.910903 L 89.093677 79.619507 L 87.230634 79.855708 L 86.000934 79.964546 L 84.174875 78.019359 L 83.71027 77.380227 L 83.50455 76.780461 L 82.901257 75.981545 Z M 82.901257 75.791658 " stroke="rgb(100%, 100%, 100%)" stroke-width="0.5" stroke-opacity="1" stroke-miterlimit="4"/><path stroke-linecap="butt" transform="matrix(1.689944, 0, 0, 1.686856, 15.639781, -5.337929)" fill-opacity="1" fill="rgb(17.248535%, 44.309998%, 94.119263%)" fill-rule="nonzero" stroke-linejoin="miter" d="M 66.732547 70.509551 L 67.141676 69.909785 L 67.566986 68.895509 L 67.499954 68.471737 L 67.738035 66.290349 L 67.909083 66.149092 L 69.067128 65.903628 L 69.853027 66.091199 L 70.772991 65.544695 L 71.022629 65.831841 L 71.179809 66.739595 L 70.731384 67.286099 L 70.828466 67.640401 L 71.635168 68.666255 L 72.270821 68.888562 L 73.507456 69.81021 L 74.235568 69.608744 L 74.848107 68.983506 L 74.993729 68.362899 L 75.4514 68.038701 L 75.84666 67.950705 L 76.58633 68.682465 L 77.258967 68.856143 L 77.917735 69.641164 L 78.329176 70.954165 L 78.694387 71.653506 L 78.858502 72.593679 L 78.361536 73.202708 L 78.197422 73.830262 L 78.269078 74.101198 L 79.429434 74.953375 L 80.365578 75.337781 L 81.606836 76.437738 L 82.499062 76.465526 L 82.901257 75.791658 L 82.901257 75.981545 L 82.161588 79.830235 L 81.403427 80.226219 L 79.852432 79.834866 L 78.925534 80.159064 L 78.449372 80.054858 L 78.236717 79.876549 L 77.829899 78.468605 L 77.383786 78.18609 L 76.179512 77.880417 L 75.879021 78.109672 L 75.400547 78.973427 L 75.569284 79.19805 L 75.848972 79.267521 L 76.258101 80.124329 L 76.297396 80.812091 L 76.043135 80.939454 L 75.428285 80.951033 L 73.888848 81.736054 L 72.897229 82.497919 L 72.425689 82.597494 L 72.409509 82.000044 L 72.885671 79.888128 L 73.003556 78.704806 L 73.384948 77.97073 L 73.967438 77.248232 L 73.918897 75.208102 L 73.431178 74.948744 L 73.195408 74.988111 L 72.194543 76.717937 L 71.87556 78.929429 L 71.974953 80.54347 L 71.466431 81.780053 L 70.745253 81.886575 L 70.211304 82.639177 L 70.23673 83.287572 L 70.044879 84.019333 L 69.672732 84.693201 L 69.138784 85.299914 L 69.235865 84.746462 L 68.711162 84.304163 L 68.949243 83.709029 L 69.009341 82.328873 L 69.323701 81.685109 L 69.314455 81.400278 L 68.905325 80.705569 L 68.678802 80.443895 L 68.412983 80.365161 L 68.075509 80.478631 L 67.848985 80.842195 L 67.347397 80.939454 L 65.308683 80.075699 L 66.295679 77.885049 L 65.98132 75.937547 L 66.487531 74.832959 L 66.905907 72.167591 Z M 66.732547 70.509551 " stroke="rgb(100%, 100%, 100%)" stroke-width="0.5" stroke-opacity="1" stroke-miterlimit="4"/><path stroke-linecap="butt" transform="matrix(1.689944, 0, 0, 1.686856, 15.639781, -5.337929)" fill-opacity="1" fill="rgb(17.248535%, 44.309998%, 94.119263%)" fill-rule="nonzero" stroke-linejoin="miter" d="M 69.138784 85.299914 L 69.672732 84.693201 L 70.044879 84.019333 L 70.23673 83.287572 L 70.211304 82.639177 L 70.745253 81.886575 L 71.466431 81.780053 L 71.974953 80.54347 L 71.87556 78.929429 L 72.194543 76.717937 L 73.195408 74.988111 L 73.428866 74.948744 L 73.918897 75.208102 L 73.967438 77.248232 L 73.384948 77.97073 L 73.003556 78.704806 L 72.885671 79.888128 L 72.409509 82.000044 L 72.425689 82.597494 L 71.79697 82.641492 L 71.556578 82.822117 L 70.199747 84.301848 L 69.534044 85.556956 L 69.16421 85.499064 Z M 69.138784 85.299914 " stroke="rgb(100%, 100%, 100%)" stroke-width="0.5" stroke-opacity="1" stroke-miterlimit="4"/><g clip-path="url(#id4)"><path fill="rgb(17.248535%, 44.309998%, 94.119263%)" d="M 241.578125 133.484375 L 242.027344 135.492188 L 243.0625 138.085938 L 243.691406 138.507812 L 244.742188 138.417969 L 245.070312 138.636719 L 245.941406 139.851562 L 246.839844 142.445312 L 248.039062 142.972656 L 248.257812 143.882812 L 247.398438 145.191406 L 245.964844 146.152344 L 239.578125 152.167969 L 239.730469 152.960938 L 240.65625 152.875 L 243.226562 153.5 L 244.363281 155.308594 L 245.164062 155.730469 L 247.738281 158.59375 L 249.871094 159.894531 L 250.167969 160.789062 L 249.480469 161.765625 L 249.566406 162.269531 L 251.144531 165.730469 L 253.097656 171.003906 L 254.148438 174.769531 L 254.710938 178.089844 L 255.050781 178.578125 L 251.757812 179.347656 L 251.554688 177.53125 L 252.054688 173.808594 L 251.824219 172.207031 L 251.140625 170.382812 L 250.382812 169.046875 L 248.710938 167 L 247.507812 164.351562 L 246.175781 163.875 L 243.546875 165.308594 L 242.257812 166.578125 L 241.921875 167.4375 L 239.921875 169.59375 L 238.261719 170.21875 L 237.414062 170.207031 L 236.730469 169.847656 L 235.839844 168.492188 L 235.210938 166.925781 L 233.734375 166.511719 L 232.757812 168.5 L 233.148438 169.734375 L 233.957031 169.878906 L 234.433594 170.550781 L 214.832031 170.488281 L 211.917969 169.597656 L 209.558594 170.21875 L 208.199219 170.816406 L 207.21875 170.769531 L 206.6875 170.335938 L 203.804688 169.71875 L 202.363281 168.53125 L 201.988281 168 L 201.875 166.550781 L 202.507812 165.996094 L 202.265625 164.984375 L 202.527344 164.464844 L 203.839844 163.570312 L 204.710938 162.527344 L 204.195312 161.652344 L 203.472656 161.3125 L 202.785156 161.714844 L 199.78125 162.28125 L 196.902344 162.308594 L 194.488281 161.175781 L 193.570312 159.207031 L 192.355469 157.703125 L 191.332031 157.695312 L 190.988281 157.238281 L 196.367188 153.648438 L 196.691406 153.183594 L 198.617188 152.671875 L 199.816406 151.027344 L 199.769531 148.585938 L 200.574219 147.238281 L 202.578125 146.9375 L 202.46875 145.757812 L 201.976562 144.859375 L 202.503906 144.164062 L 203.828125 143.695312 L 204.277344 143.957031 L 205.074219 143.957031 L 206.972656 142.292969 L 210.484375 140.992188 L 211.082031 140.40625 L 211.015625 139.460938 L 211.339844 139.117188 L 212.808594 139.035156 L 213.609375 139.445312 L 216.464844 138.730469 L 217.59375 139.371094 L 217.691406 139.910156 L 222.039062 139.027344 L 222.886719 139.386719 L 224.511719 137.894531 L 225.511719 137.605469 L 227.4375 137.75 L 228.230469 137.496094 L 228.707031 136.71875 L 231.292969 134.578125 L 236.195312 134.253906 L 237.503906 134.894531 L 238.058594 135.863281 L 240.050781 134.03125 Z M 241.578125 133.484375 " fill-opacity="1" fill-rule="nonzero"/></g><g clip-path="url(#id5)"><path stroke-linecap="butt" transform="matrix(1.689944, 0, 0, 1.686856, 15.639781, -5.337929)" fill="none" stroke-linejoin="miter" d="M 133.69574 82.296453 L 133.961559 83.486722 L 134.574098 85.024346 L 134.946244 85.274441 L 135.568029 85.22118 L 135.762192 85.350859 L 136.277649 86.071041 L 136.809286 87.608664 L 137.518907 87.921284 L 137.648349 88.460841 L 137.139826 89.2366 L 136.291518 89.806262 L 132.512269 93.372437 L 132.602417 93.842523 L 133.150234 93.791578 L 134.671179 94.16209 L 135.343816 95.234258 L 135.817667 95.484353 L 137.340924 97.18176 L 138.602985 97.952887 L 138.778656 98.483182 L 138.371838 99.062106 L 138.42269 99.360831 L 139.356523 101.41254 L 140.512256 104.538732 L 141.134041 106.771065 L 141.466892 108.739408 L 141.66799 109.02887 L 139.719423 109.485063 L 139.599227 108.408263 L 139.895094 106.201403 L 139.758718 105.251967 L 139.354211 104.170536 L 138.905787 103.378567 L 137.916479 102.165142 L 137.204547 100.595098 L 136.416337 100.312583 L 134.86072 101.162444 L 134.097936 101.915046 L 133.89915 102.4245 L 132.715679 103.702765 L 131.733305 104.073277 L 131.231717 104.06633 L 130.82721 103.853285 L 130.300196 103.049738 L 129.92805 102.121143 L 129.054315 101.875679 L 128.476448 103.05437 L 128.707595 103.78613 L 129.186069 103.871811 L 129.468068 104.270111 L 117.869127 104.23306 L 116.144773 103.705081 L 114.748647 104.073277 L 113.944256 104.427578 L 113.364078 104.39979 L 113.049719 104.142748 L 111.343856 103.776867 L 110.490925 103.072895 L 110.269024 102.75796 L 110.201992 101.898836 L 110.576449 101.570007 L 110.433138 100.970241 L 110.588007 100.662254 L 111.36466 100.131959 L 111.880117 99.513667 L 111.575003 98.994951 L 111.147382 98.793485 L 110.740563 99.032002 L 108.963045 99.367779 L 107.259494 99.383988 L 105.831008 98.712436 L 105.287813 97.545324 L 104.568947 96.653781 L 103.963343 96.649149 L 103.759934 96.378212 L 106.942823 94.250086 L 107.134675 93.974518 L 108.274228 93.671162 L 108.983849 92.696253 L 108.956111 91.248942 L 109.432273 90.450026 L 110.618056 90.271717 L 110.553335 89.572376 L 110.26209 89.039766 L 110.574138 88.627572 L 111.357725 88.349688 L 111.623544 88.50484 L 112.095083 88.50484 L 113.218456 87.518352 L 115.296465 86.747225 L 115.650119 86.39987 L 115.610824 85.839471 L 115.802676 85.63569 L 116.671787 85.58706 L 117.145638 85.830208 L 118.83532 85.406436 L 119.503334 85.78621 L 119.561121 86.105776 L 122.133783 85.582429 L 122.635372 85.795473 L 123.596942 84.910876 L 124.188677 84.739515 L 125.328231 84.825196 L 125.797458 84.674675 L 126.079457 84.213851 L 127.609648 82.944849 L 130.510539 82.752646 L 131.284881 83.13242 L 131.613109 83.706713 L 132.791957 82.620651 Z M 133.69574 82.296453 " stroke="rgb(100%, 100%, 100%)" stroke-width="0.5" stroke-opacity="1" stroke-miterlimit="4"/></g><path stroke-linecap="butt" transform="matrix(1.689944, 0, 0, 1.686856, 15.639781, -5.337929)" fill-opacity="1" fill="rgb(17.248535%, 44.309998%, 94.119263%)" fill-rule="nonzero" stroke-linejoin="miter" d="M 110.43545 100.970241 L 105.585992 102.415237 L 103.473312 102.366607 L 102.229743 103.334569 L 101.305156 103.478142 L 100.375946 104.052435 L 98.561445 106.233823 L 97.902677 106.6877 L 97.169942 108.392053 L 97.220794 109.408645 L 96.508862 110.381238 L 95.903258 110.971741 L 95.360063 111.071316 L 95.057261 111.305201 L 94.789131 112.043909 L 92.556254 114.204455 L 91.049178 113.549113 L 90.633114 113.70658 L 89.967411 112.250006 L 88.816301 110.721645 L 88.236123 110.156615 L 87.679059 110.170509 L 86.883914 109.647162 L 86.685128 109.322964 L 86.061032 109.165496 L 84.803594 109.531377 L 84.456874 110.043146 L 84.602497 110.473866 L 84.484612 110.668384 L 83.019142 111.768341 L 82.44821 111.796129 L 81.720098 111.488141 L 81.542115 111.187101 L 79.45486 109.503588 L 78.886239 107.908072 L 78.139635 107.178628 L 77.221983 105.97678 L 77.164196 105.048186 L 77.300573 98.944006 L 77.554834 98.094145 L 79.623597 98.358134 L 80.335529 98.274769 L 81.731655 97.966781 L 83.50455 97.362384 L 84.329744 96.109592 L 84.951528 95.887285 L 85.346789 96.114223 L 87.156668 95.67424 L 87.882468 94.847536 L 89.500495 94.020832 L 92.047731 93.789262 L 92.863679 93.951361 L 95.362375 93.490537 L 98.383462 93.536851 L 99.529949 93.277493 L 101.048583 93.270546 L 101.635696 93.404856 L 101.70504 93.900416 L 102.562594 93.745264 L 104.155195 94.349661 L 105.123699 94.398291 L 105.384895 94.164405 L 105.627599 93.527588 L 106.975184 94.04862 L 107.134675 93.974518 L 106.942823 94.250086 L 103.759934 96.378212 L 103.963343 96.649149 L 104.568947 96.653781 L 105.287813 97.545324 L 105.831008 98.712436 L 107.259494 99.383988 L 108.965357 99.367779 L 110.742875 99.032002 L 111.147382 98.793485 L 111.575003 98.994951 L 111.882428 99.513667 L 111.36466 100.131959 L 110.588007 100.662254 Z M 110.43545 100.970241 " stroke="rgb(100%, 100%, 100%)" stroke-width="0.5" stroke-opacity="1" stroke-miterlimit="4"/><path stroke-linecap="butt" transform="matrix(1.689944, 0, 0, 1.686856, 15.639781, -5.337929)" fill-opacity="1" fill="rgb(17.248535%, 44.309998%, 94.119263%)" fill-rule="nonzero" stroke-linejoin="miter" d="M 53.379203 105.974465 L 52.484665 106.023094 L 51.488423 105.400172 L 50.792671 104.740198 L 50.690967 104.515575 L 50.714082 103.542982 L 50.298018 102.95711 L 49.858839 102.764907 L 49.327202 102.764907 L 49.139973 102.549547 L 49.015154 100.590467 L 49.703971 100.301005 L 51.000703 100.79888 L 51.638668 100.752566 L 51.781979 100.627518 L 51.781979 100.345003 L 51.361292 98.883798 L 52.290502 97.837102 L 52.50778 97.716686 L 53.180417 97.862575 L 53.700497 97.721317 L 54.354642 96.908507 L 54.662067 96.723251 L 55.078131 96.857562 L 55.949554 97.503642 L 56.848715 97.371647 L 54.710608 92.242376 L 55.196016 92.244692 L 56.139094 91.955229 L 57.484368 90.790433 L 58.894363 90.549601 L 58.912854 90.028569 L 59.564688 88.979558 L 61.247436 88.301058 L 63.833967 87.909705 L 64.109032 87.990755 L 64.159884 88.581258 L 63.718394 89.194918 L 63.924114 89.428803 L 64.34249 89.535325 L 64.892619 89.461223 L 65.528272 89.000399 L 66.341909 88.020859 L 66.242516 87.509089 L 66.827317 86.453131 L 68.121738 84.753409 L 68.711162 84.304163 L 69.235865 84.746462 L 69.138784 85.299914 L 68.66031 86.455447 L 68.165656 87.136262 L 67.846674 88.326531 L 67.957624 89.289861 L 67.053841 90.681596 L 65.232405 91.973755 L 64.985078 92.610572 L 64.088229 93.851786 L 64.111343 94.206088 L 64.462686 94.991109 L 64.035065 95.526036 L 63.024954 96.350424 L 62.747578 96.422211 L 62.215941 96.255481 L 61.908515 96.542627 L 61.608025 97.575428 L 61.215075 98.31182 L 59.278066 100.458472 L 59.100083 101.002661 L 55.496506 105.580796 L 55.191393 105.798472 Z M 53.379203 105.974465 " stroke="rgb(100%, 100%, 100%)" stroke-width="0.5" stroke-opacity="1" stroke-miterlimit="4"/><g clip-path="url(#id6)"><path fill="rgb(17.248535%, 44.309998%, 94.119263%)" d="M 157.992188 30.925781 L 156.984375 30.800781 L 154.390625 31.210938 L 153.5 30.605469 L 154.386719 29.488281 L 154.890625 29.269531 L 155.265625 27.753906 L 155.027344 27.136719 L 152.34375 24.261719 L 151.304688 23.835938 L 147.4375 23.816406 L 146.976562 23.691406 L 146.421875 22.972656 L 146.160156 21.972656 L 146.464844 19.792969 L 147.78125 17.910156 L 147.886719 17.214844 L 150.34375 17.175781 L 151.953125 16.820312 L 153.207031 15.953125 L 153.375 15.507812 L 154.226562 14.726562 L 160.238281 10.441406 L 164.277344 8.816406 L 165.90625 8.648438 L 168.441406 7.164062 L 168.859375 6.738281 L 170.367188 3.621094 L 170.253906 1.976562 L 169.886719 1.742188 L 170.058594 1.425781 L 172.140625 1.152344 L 173.164062 1.25 L 172.410156 2.214844 L 172.820312 2.796875 L 173.597656 2.703125 L 174.78125 1.917969 L 175.65625 0.246094 L 177.535156 -0.621094 L 178.523438 -1.519531 L 178.140625 -1.804688 L 177.351562 -1.734375 L 176.832031 -1.398438 L 177.03125 -1.835938 L 177.570312 -2.136719 L 180.171875 -1.917969 L 184.242188 -0.289062 L 185.121094 0.433594 L 186.828125 3.75 L 186.835938 4.558594 L 186.5625 5.074219 L 184.132812 6.683594 L 183.453125 7.75 L 182.191406 8.40625 L 178.601562 9.339844 L 176.300781 10.230469 L 173.105469 10.792969 L 169.234375 17.5625 L 167.488281 18.953125 L 164.703125 19.628906 Z M 157.992188 30.925781 " fill-opacity="1" fill-rule="nonzero"/></g><g clip-path="url(#id7)"><path stroke-linecap="butt" transform="matrix(1.689944, 0, 0, 1.686856, 15.639781, -5.337929)" fill="none" stroke-linejoin="miter" d="M 84.234973 21.497804 L 83.638615 21.423702 L 82.103801 21.66685 L 81.576787 21.307917 L 82.10149 20.645627 L 82.399669 20.515948 L 82.62157 19.617458 L 82.48057 19.251577 L 80.892592 17.547224 L 80.277742 17.294813 L 77.98939 17.283234 L 77.716637 17.209132 L 77.388409 16.783043 L 77.23354 16.190225 L 77.413835 14.898065 L 78.192799 13.781899 L 78.255209 13.369705 L 79.709121 13.346548 L 80.661446 13.135819 L 81.403427 12.621734 L 81.50282 12.357745 L 82.006719 11.894605 L 85.564067 9.354284 L 87.954124 8.390954 L 88.918005 8.291379 L 90.418147 7.411414 L 90.665474 7.159003 L 91.5577 5.311076 L 91.490668 4.336167 L 91.27339 4.197225 L 91.375094 4.009654 L 92.607106 3.847555 L 93.212711 3.905447 L 92.766597 4.477425 L 93.009301 4.822464 L 93.469283 4.766887 L 94.169658 4.301431 L 94.687426 3.310313 L 95.799242 2.796228 L 96.384043 2.263617 L 96.157519 2.094571 L 95.690603 2.136254 L 95.383178 2.335404 L 95.501063 2.076046 L 95.820045 1.897737 L 97.359482 2.027416 L 99.76803 2.993062 L 100.288111 3.421466 L 101.298222 5.387494 L 101.302844 5.866843 L 101.141042 6.172515 L 99.703309 7.126583 L 99.301114 7.758768 L 98.55451 8.147806 L 96.430272 8.701258 L 95.068818 9.229237 L 93.178039 9.562697 L 90.887375 13.575802 L 89.854149 14.40019 L 88.206073 14.800806 Z M 84.234973 21.497804 " stroke="rgb(100%, 100%, 100%)" stroke-width="0.5" stroke-opacity="1" stroke-miterlimit="4"/></g><path stroke-linecap="butt" transform="matrix(1.689944, 0, 0, 1.686856, 15.639781, -5.337929)" fill-opacity="1" fill="rgb(17.248535%, 44.309998%, 94.119263%)" fill-rule="nonzero" stroke-linejoin="miter" d="M 75.039958 35.398939 L 73.791766 35.23684 L 72.453427 34.799173 L 71.688332 33.886788 L 70.564959 32.990613 L 68.415295 32.212539 L 67.765772 31.510882 L 67.16248 31.101004 L 66.755661 31.154265 L 66.189352 30.906485 L 66.309548 29.797266 L 65.535207 27.148107 L 65.484355 26.346876 L 65.57219 26.094465 L 66.159303 25.786477 L 66.226335 25.413649 L 65.717813 24.705046 L 64.92498 24.397058 L 64.830209 24.096017 L 65.14688 23.053953 L 66.062221 20.90267 L 66.878169 20.198698 L 66.966005 19.784188 L 67.0053 16.845567 L 66.374269 15.701612 L 65.844943 15.29405 L 65.664649 14.775333 L 65.914287 14.967536 L 69.050948 16.046651 L 70.241353 16.146226 L 71.075793 15.99339 L 70.74063 16.22496 L 69.427717 16.259696 L 68.225754 17.162818 L 68.075509 17.681534 L 68.211885 18.068256 L 68.914571 17.785741 L 69.427717 18.234986 L 69.499372 18.461924 L 70.095731 18.466556 L 70.444762 18.068256 L 71.667528 14.842488 L 71.598184 13.721691 L 72.055855 13.001509 L 72.37946 12.79078 L 73.731668 12.561526 L 75.118548 13.240025 L 75.844349 13.425281 L 78.255209 13.369705 L 78.192799 13.781899 L 77.413835 14.898065 L 77.23354 16.190225 L 77.388409 16.783043 L 77.145705 17.232289 L 77.189623 17.524067 L 78.024062 18.510554 L 77.700457 19.186738 L 77.681965 19.580406 L 78.227471 20.527527 L 74.371945 22.255038 L 73.472784 23.797292 L 73.153802 24.931984 L 75.382056 27.967864 L 75.902136 29.447595 L 73.625341 29.466121 L 73.357211 29.61201 L 72.756229 30.429451 L 73.544439 30.985219 L 74.309535 32.191697 L 74.887402 33.555643 L 75.654809 34.419399 Z M 75.039958 35.398939 " stroke="rgb(100%, 100%, 100%)" stroke-width="0.5" stroke-opacity="1" stroke-miterlimit="4"/><path stroke-linecap="butt" transform="matrix(1.689944, 0, 0, 1.686856, 15.639781, -5.337929)" fill-opacity="1" fill="rgb(17.248535%, 44.309998%, 94.119263%)" fill-rule="nonzero" stroke-linejoin="miter" d="M 101.605647 74.210036 L 101.635696 93.404856 L 101.048583 93.270546 L 99.529949 93.277493 L 98.383462 93.536851 L 95.362375 93.490537 L 92.863679 93.951361 L 92.047731 93.789262 L 89.500495 94.020832 L 87.882468 94.847536 L 87.156668 95.67424 L 85.3491 96.114223 L 84.951528 95.887285 L 84.329744 96.109592 L 83.50455 97.3647 L 81.731655 97.966781 L 80.335529 98.274769 L 79.623597 98.358134 L 77.554834 98.094145 L 77.300573 98.944006 L 77.164196 105.048186 L 76.595576 104.920822 L 74.804189 105.446486 L 73.775586 105.490484 L 72.605984 104.645254 L 71.766921 103.674977 L 69.709716 103.292887 L 68.981604 102.920059 L 68.054706 101.607058 L 67.899837 99.798498 L 67.423675 98.381291 L 67.282676 96.528733 L 68.121738 95.208785 L 68.186459 94.534917 L 67.756526 93.921257 L 66.623908 93.124657 L 64.985078 92.610572 L 65.232405 91.973755 L 67.053841 90.681596 L 67.957624 89.289861 L 67.846674 88.326531 L 68.165656 87.136262 L 68.66031 86.455447 L 69.138784 85.299914 L 69.16421 85.499064 L 69.534044 85.556956 L 70.199747 84.301848 L 71.556578 82.822117 L 71.79697 82.641492 L 72.425689 82.597494 L 72.897229 82.497919 L 73.888848 81.736054 L 75.428285 80.951033 L 76.043135 80.939454 L 76.297396 80.812091 L 76.258101 80.124329 L 75.848972 79.267521 L 75.569284 79.19805 L 75.400547 78.973427 L 75.879021 78.109672 L 76.179512 77.880417 L 77.383786 78.18609 L 77.829899 78.468605 L 78.236717 79.876549 L 78.449372 80.054858 L 78.925534 80.159064 L 79.852432 79.834866 L 81.403427 80.226219 L 82.161588 79.830235 L 82.901257 75.981545 L 83.50455 76.780461 L 83.71027 77.380227 L 84.174875 78.019359 L 86.000934 79.964546 L 87.230634 79.855708 L 89.093677 79.619507 L 89.868018 78.910903 L 90.663163 78.612178 L 91.527651 78.510287 L 91.821208 78.607547 L 92.228026 79.029004 L 92.50309 79.052161 L 93.10176 78.778908 L 95.13354 77.271389 L 96.243044 76.875405 L 97.068237 76.294164 L 99.171672 75.344728 L 100.396749 74.983479 Z M 101.605647 74.210036 " stroke="rgb(100%, 100%, 100%)" stroke-width="0.5" stroke-opacity="1" stroke-miterlimit="4"/><path stroke-linecap="butt" transform="matrix(1.689944, 0, 0, 1.686856, 15.639781, -5.337929)" fill-opacity="1" fill="rgb(17.248535%, 44.309998%, 94.119263%)" fill-rule="nonzero" stroke-linejoin="miter" d="M 46.967194 108.181325 L 46.289934 108.355002 L 44.916923 109.172444 L 44.540154 109.531377 L 44.593317 111.326043 L 45.346856 114.081723 L 45.330675 114.306346 L 44.445384 114.637491 L 44.29745 115.353041 L 44.50317 116.047751 L 44.560957 117.163917 L 43.234175 117.386224 L 41.706295 116.927716 L 41.301789 116.661411 L 41.024413 115.447985 L 41.096068 114.68612 L 40.901905 114.36887 L 40.619906 114.276242 L 40.215399 114.366554 L 39.159059 113.67416 L 39.041174 113.468063 L 39.068912 112.912296 L 38.858568 112.648306 L 38.666717 112.571888 L 37.566458 112.921558 L 37.187378 112.870613 L 36.910002 112.757144 L 36.468512 112.291689 L 35.805121 112.016121 L 34.848173 111.904967 L 33.438179 110.830483 L 32.437313 110.462287 L 31.362481 109.29286 L 30.664418 109.133077 L 30.472567 109.234967 L 30.174387 108.815826 L 29.35844 108.412895 L 28.101002 106.974846 L 27.634085 105.935098 L 26.970694 105.62711 L 25.995255 105.453433 L 25.810338 105.140813 L 26.55463 104.00149 L 27.423742 103.309096 L 27.763528 103.20489 L 28.558672 103.353095 L 29.892388 103.883389 L 30.213682 103.860232 L 30.608943 102.443025 L 30.13047 101.488958 L 29.58034 101.055922 L 29.268292 99.830918 L 30.424026 97.600901 L 30.504927 97.966781 L 30.828533 97.552271 L 31.374039 97.466591 L 31.466497 96.889982 L 31.730005 96.850615 L 32.506657 97.517536 L 33.280999 96.748724 L 34.635518 97.049765 L 35.925317 96.716304 L 36.274348 96.382844 L 36.362184 95.882653 L 36.484692 96.280953 L 37.409279 97.633321 L 38.220603 99.217258 L 38.86088 99.680398 L 39.330108 99.805445 L 40.476595 99.865654 L 41.489018 99.749869 L 41.662378 99.842497 L 42.23331 100.761829 L 43.661796 102.292505 L 43.358994 102.845957 L 42.751078 103.415618 L 42.65862 104.684621 L 44.632612 104.622097 L 45.400019 104.420631 L 47.198341 105.529851 L 47.420241 106.067093 L 47.214521 107.718185 Z M 34.612404 96.940927 L 33.764095 96.213798 L 33.988308 95.620979 L 34.540748 95.55614 L 34.801944 96.028542 L 34.931386 96.593572 Z M 34.612404 96.940927 " stroke="rgb(100%, 100%, 100%)" stroke-width="0.5" stroke-opacity="1" stroke-miterlimit="4"/><path stroke-linecap="butt" transform="matrix(1.689944, 0, 0, 1.686856, 15.639781, -5.337929)" fill-opacity="1" fill="rgb(17.248535%, 44.309998%, 94.119263%)" fill-rule="nonzero" stroke-linejoin="miter" d="M 92.366714 53.669796 L 91.996879 53.905997 L 90.972899 53.861999 L 90.015952 54.406188 L 89.72933 54.980481 L 89.449643 55.22826 L 88.009599 55.323204 L 87.685993 55.369518 L 87.558863 55.218998 L 87.584289 54.494184 L 87.429421 54.348295 L 86.532571 54.684071 L 84.627923 53.878208 L 84.627923 50.800646 L 83.44214 48.473369 L 81.412672 48.401583 L 80.90415 49.024506 L 80.277742 49.077767 L 78.775289 48.616943 L 78.440126 48.100542 L 77.723571 47.558669 L 78.759109 47.431305 L 79.434057 47.151106 L 79.914842 46.555972 L 80.550495 45.02298 L 80.22689 43.846605 L 79.510335 42.547498 L 79.658269 42.15383 L 80.141366 41.959311 L 80.194529 40.599996 L 79.877858 40.326744 L 79.545007 40.352217 L 79.420188 40.523578 L 79.457172 41.303969 L 79.191353 41.526276 L 78.925534 41.445226 L 78.4147 39.632035 L 78.562634 38.698809 L 79.299992 37.622009 L 79.230648 35.852816 L 79.45486 34.30593 L 79.76922 33.537118 L 81.255493 33.539434 L 83.271092 32.284325 L 83.546156 32.68031 L 83.763434 33.252287 L 83.724139 33.472278 L 84.454563 34.034993 L 85.460051 34.40782 L 86.557998 38.608496 L 88.853284 41.009875 L 89.186135 41.202078 L 89.676166 43.279259 L 89.752445 44.140699 L 89.588331 44.275009 L 89.174578 44.277325 L 88.504253 45.488435 L 88.384056 49.517749 L 89.056693 50.381505 L 90.381164 50.552866 L 91.405144 51.16421 L 91.312685 51.761661 L 91.495291 52.368373 L 92.248829 53.665164 Z M 92.366714 53.669796 " stroke="rgb(100%, 100%, 100%)" stroke-width="0.5" stroke-opacity="1" stroke-miterlimit="4"/><path stroke-linecap="butt" transform="matrix(1.689944, 0, 0, 1.686856, 15.639781, -5.337929)" fill-opacity="1" fill="rgb(17.248535%, 44.309998%, 94.119263%)" fill-rule="nonzero" stroke-linejoin="miter" d="M 54.199774 110.728593 L 55.452589 110.756381 L 55.681424 111.045843 L 55.757702 111.573822 L 56.397979 112.277794 L 57.264779 112.590414 L 58.32343 112.34495 L 59.201788 112.840509 L 59.543885 113.363857 L 60.336718 113.576901 L 61.305223 113.419434 L 61.684303 113.512061 L 61.954745 113.720474 L 62.331514 114.73475 L 62.27835 115.353041 L 62.571906 115.957438 L 62.837725 116.017647 L 63.392477 115.68187 L 64.444195 116.244585 L 64.564391 116.49468 L 64.411834 116.939294 L 64.652227 118.03462 L 65.655403 118.456077 L 66.966005 118.669121 L 67.153234 118.808063 L 67.664068 120.090959 L 67.312725 120.415157 L 67.518445 121.158496 L 68.267361 121.605426 L 69.393045 121.816154 L 69.695847 121.315963 L 70.701335 121.623951 L 71.313874 122.207507 L 72.136756 122.677594 L 72.846376 122.872112 L 73.632275 123.673344 L 74.267929 124.018383 L 75.419039 124.333318 L 70.331501 126.021462 L 70.1096 125.697264 L 68.075509 124.187429 L 67.835116 124.405105 L 67.113939 123.981332 L 66.996054 123.300517 L 66.508334 122.527073 L 66.124631 122.506232 L 65.673895 122.760959 L 64.931914 122.443708 L 64.141392 121.725842 L 63.038823 120.991766 L 62.393923 120.910716 L 62.195137 121.471115 L 61.878466 121.721211 L 61.624205 121.693422 L 61.016289 121.302069 L 60.209587 121.126076 L 58.868937 120.262321 L 57.105287 120.121063 L 55.660621 119.021107 L 54.449412 117.37233 L 52.519337 116.825825 L 51.016884 116.855929 L 50.952163 117.995253 L 49.646184 118.493128 L 49.269415 118.381974 L 49.010531 118.117985 L 48.014288 117.888731 L 47.914895 118.076302 L 47.505766 118.210613 L 46.588113 118.300925 L 44.983955 117.671055 L 44.563268 117.163917 L 44.507793 116.047751 L 44.302073 115.353041 L 44.447695 114.637491 L 45.332987 114.30403 L 45.349167 114.081723 L 44.595629 111.323727 L 44.540154 109.529061 L 44.916923 109.172444 L 46.292246 108.355002 L 46.967194 108.181325 L 47.905649 107.984491 L 48.504319 107.296728 L 48.781695 107.129998 L 49.193136 107.167049 L 49.447398 107.398619 L 49.916626 108.375843 L 49.549102 110.047777 L 50.032199 110.82122 L 51.317374 111.335305 L 52.845254 111.388566 L 54.095758 110.969425 Z M 54.199774 110.728593 " stroke="rgb(100%, 100%, 100%)" stroke-width="0.5" stroke-opacity="1" stroke-miterlimit="4"/><path stroke-linecap="butt" transform="matrix(1.689944, 0, 0, 1.686856, 15.639781, -5.337929)" fill-opacity="1" fill="rgb(17.248535%, 44.309998%, 94.119263%)" fill-rule="nonzero" stroke-linejoin="miter" d="M 57.639236 76.185327 L 59.934523 76.354373 L 60.535504 76.011649 L 60.602537 76.136697 L 58.797281 78.609862 L 58.723314 79.628769 L 57.623056 81.268284 L 57.537532 82.011623 L 57.151517 81.55543 L 57.008206 81.073765 L 56.102111 77.194971 L 56.277782 76.838353 L 57.641548 76.785092 L 57.752498 76.599836 Z M 57.639236 76.185327 " stroke="rgb(100%, 100%, 100%)" stroke-width="0.5" stroke-opacity="1" stroke-miterlimit="4"/><path stroke-linecap="butt" transform="matrix(1.689944, 0, 0, 1.686856, 15.639781, -5.337929)" fill-opacity="1" fill="rgb(17.248535%, 44.309998%, 94.119263%)" fill-rule="nonzero" stroke-linejoin="miter" d="M 60.535504 76.011649 L 59.934523 76.354373 L 57.639236 76.185327 L 55.822423 75.608718 L 55.092 74.555075 L 54.33615 73.820999 L 53.797578 73.466697 L 53.386137 73.538484 L 52.662648 73.070713 L 51.59475 70.641546 L 52.567878 69.69211 L 54.858542 68.687097 L 55.998095 68.721832 L 55.937997 69.784737 L 56.099799 69.990835 L 57.366483 69.580956 L 58.168562 70.150618 L 57.611499 70.972691 L 56.670732 71.505301 L 55.630572 72.470947 L 55.491884 72.795145 L 55.870964 73.818683 L 56.076685 73.987729 L 56.414159 73.985414 L 57.475122 73.735318 L 58.46443 74.094251 L 59.398262 74.145197 L 60.549373 75.046003 L 60.179538 75.529984 Z M 60.535504 76.011649 " stroke="rgb(100%, 100%, 100%)" stroke-width="0.5" stroke-opacity="1" stroke-miterlimit="4"/><path stroke-linecap="butt" transform="matrix(1.689944, 0, 0, 1.686856, 15.639781, -5.337929)" fill-opacity="1" fill="rgb(17.248535%, 44.309998%, 94.119263%)" fill-rule="nonzero" stroke-linejoin="miter" d="M 74.536059 51.47683 L 74.707107 50.006361 L 75.495317 48.482632 L 75.675612 46.942693 L 75.076942 44.907195 L 75.065385 44.29585 L 75.259548 43.733136 L 75.876709 43.246839 L 76.88682 45.525486 L 76.3182 46.894063 L 76.443019 47.146475 L 77.432327 47.218261 L 77.72126 47.558669 L 78.440126 48.100542 L 78.775289 48.616943 L 80.277742 49.077767 L 80.90415 49.024506 L 81.412672 48.401583 L 83.44214 48.473369 L 84.627923 50.800646 L 84.627923 53.878208 L 86.53026 54.684071 L 87.429421 54.348295 L 87.584289 54.494184 L 87.558863 55.218998 L 87.685993 55.369518 L 88.007287 55.323204 L 88.173713 55.774765 L 88.266172 57.449015 L 87.660567 59.190419 L 87.323093 59.484513 L 86.601915 59.549353 L 86.306048 58.64623 L 85.75823 58.308139 L 85.478543 58.349821 L 85.471608 59.306204 L 85.83682 60.151434 L 85.862246 60.630784 L 85.464674 61.494539 L 83.007585 64.361373 L 82.15003 64.215484 L 81.419607 64.426212 L 81.227755 64.875458 L 81.306345 65.433541 L 80.612905 65.854998 L 80.009612 65.799421 L 79.660581 65.36407 L 79.635154 64.738832 L 79.984186 63.796343 L 79.873236 63.316993 L 78.578814 62.55976 L 78.285258 62.955744 L 77.72126 64.31969 L 77.342179 66.16067 L 77.111033 66.315822 L 76.519297 65.882786 L 74.138486 66.306559 L 73.613783 65.528485 L 72.582869 64.951876 L 71.723004 64.155276 L 71.286136 63.219734 L 71.043432 63.131737 L 70.440139 63.381833 L 70.169698 63.303099 L 68.653376 61.267601 L 69.256668 60.941087 L 70.153518 59.940706 L 70.234419 59.741556 L 69.994026 59.343256 L 69.917748 58.52813 L 70.005584 58.203932 L 70.349992 57.775528 L 71.27689 57.476803 L 72.841753 56.22401 L 73.759406 54.968902 L 74.512944 54.603022 L 74.942877 54.209353 L 74.85273 53.588746 L 74.552239 53.134869 L 74.438977 51.933022 Z M 74.536059 51.47683 " stroke="rgb(100%, 100%, 100%)" stroke-width="0.5" stroke-opacity="1" stroke-miterlimit="4"/><path stroke-linecap="butt" transform="matrix(1.689944, 0, 0, 1.686856, 15.639781, -5.337929)" fill-opacity="1" fill="rgb(17.248535%, 44.309998%, 94.119263%)" fill-rule="nonzero" stroke-linejoin="miter" d="M 57.445073 31.142686 L 57.801039 31.23763 L 58.096907 31.098688 L 58.443627 30.65639 L 58.721003 29.938523 L 58.776478 29.371177 L 58.62161 28.803831 L 58.057612 27.893762 L 58.727937 25.791108 L 58.801904 24.742097 L 59.36359 24.575367 L 59.828195 25.642904 L 60.697307 26.722019 L 61.117994 26.900328 L 61.22201 28.039651 L 64.400277 30.584603 L 64.809406 31.061637 L 65.001258 31.503935 L 64.948094 32.777569 L 65.426568 33.784897 L 65.817206 34.264247 L 67.546183 35.290101 L 68.128673 36.028809 L 68.639507 37.172764 L 68.288164 37.480751 L 68.285852 39.205946 L 68.648753 40.241063 L 67.791198 41.97089 L 66.630842 42.251089 L 66.415876 41.961627 L 66.309548 41.239129 L 65.623043 40.625469 L 64.277769 40.062755 L 63.288461 40.903353 L 62.574218 41.095556 L 62.481759 40.185487 L 62.248301 40.04886 L 61.6635 40.206328 L 61.386124 40.125278 L 61.115682 38.499658 L 60.56093 37.056979 L 60.574799 36.790673 L 61.307534 36.51279 L 62.024089 36.424793 L 62.313022 36.540578 L 62.426284 35.71619 L 62.065695 34.736649 L 61.319091 34.150778 L 60.399128 33.89142 L 59.335853 32.819251 L 57.932792 31.865184 Z M 57.445073 31.142686 " stroke="rgb(100%, 100%, 100%)" stroke-width="0.5" stroke-opacity="1" stroke-miterlimit="4"/><path stroke-linecap="butt" transform="matrix(1.689944, 0, 0, 1.686856, 15.639781, -5.337929)" fill-opacity="1" fill="rgb(17.248535%, 44.309998%, 94.119263%)" fill-rule="nonzero" stroke-linejoin="miter" d="M 57.537532 82.011623 L 57.623056 81.268284 L 58.723314 79.628769 L 58.797281 78.609862 L 60.602537 76.136697 L 60.535504 76.011649 L 60.179538 75.529984 L 60.549373 75.046003 L 61.208141 74.469394 L 60.926142 73.772369 L 61.397681 72.093488 L 61.6635 71.797079 L 63.149773 71.662769 L 63.750754 70.88701 L 64.293949 70.521129 L 65.181552 70.315032 L 66.152369 70.340505 L 66.732547 70.509551 L 66.905907 72.167591 L 66.487531 74.832959 L 65.979008 75.937547 L 66.295679 77.885049 L 65.308683 80.075699 L 67.345085 80.937139 L 67.848985 80.842195 L 68.075509 80.478631 L 68.412983 80.365161 L 68.67649 80.443895 L 68.903014 80.705569 L 69.314455 81.400278 L 69.323701 81.685109 L 69.00703 82.328873 L 68.946932 83.709029 L 68.708851 84.304163 L 68.121738 84.753409 L 66.827317 86.453131 L 66.242516 87.509089 L 66.341909 88.020859 L 65.525961 89.000399 L 64.892619 89.461223 L 64.340179 89.535325 L 63.924114 89.428803 L 63.718394 89.194918 L 64.157573 88.581258 L 64.10672 87.990755 L 63.833967 87.909705 L 61.245124 88.301058 L 59.562377 88.979558 L 58.912854 90.028569 L 58.894363 90.549601 L 57.484368 90.790433 L 56.139094 91.955229 L 55.193704 92.244692 L 54.710608 92.242376 L 53.915463 90.880746 L 53.964004 90.172142 L 54.812312 87.615612 L 55.616703 84.220798 L 56.351749 83.13242 L 56.899567 83.243574 L 57.484368 82.775803 Z M 57.537532 82.011623 " stroke="rgb(100%, 100%, 100%)" stroke-width="0.5" stroke-opacity="1" stroke-miterlimit="4"/><path stroke-linecap="butt" transform="matrix(1.689944, 0, 0, 1.686856, 15.639781, -5.337929)" fill-opacity="1" fill="rgb(17.248535%, 44.309998%, 94.119263%)" fill-rule="nonzero" stroke-linejoin="miter" d="M 53.964004 90.172142 L 53.222023 89.996149 L 51.939159 89.322281 L 51.130146 89.171761 L 50.67941 89.225022 L 50.466755 89.595533 L 50.623934 89.808577 L 50.647049 90.183721 L 50.432083 90.586652 L 49.274038 91.100737 L 48.848728 91.149367 L 46.72449 92.302584 L 46.160492 91.672714 L 45.60574 91.406409 L 45.390774 91.712081 L 43.687222 91.554614 L 42.180146 90.456973 L 41.435854 89.479748 L 40.867233 89.083764 L 41.038282 88.824406 L 41.856541 88.303374 L 42.998405 86.8468 L 43.30583 86.763435 L 43.978467 85.904311 L 44.12409 84.931718 L 45.00707 83.514511 L 44.248909 83.739133 L 43.52542 84.223114 L 42.794996 84.255534 L 42.591587 84.14438 L 42.487571 83.537667 L 42.600833 83.206523 L 43.278093 83.005057 L 43.536977 82.171406 L 42.841226 81.83563 L 42.346572 82.35203 L 42.04377 83.204207 L 41.835738 83.442724 L 41.301789 82.754962 L 41.163101 81.395647 L 41.27174 81.048292 L 42.110802 80.684728 L 42.693292 80.705569 L 42.95911 80.416107 L 43.342814 80.953349 L 43.927615 80.856089 L 44.23504 80.978821 L 45.185053 81.793947 L 46.500278 82.23393 L 47.390192 82.738752 L 47.907961 82.720226 L 49.382677 82.252455 L 50.448263 81.400278 L 50.573082 81.059871 L 49.838036 80.182221 L 49.680856 79.306887 L 49.7502 78.876168 L 51.382096 75.569351 L 52.581747 74.541181 L 53.180417 74.198458 L 53.386137 73.538484 L 53.795267 73.466697 L 54.33615 73.820999 L 55.089688 74.555075 L 55.822423 75.608718 L 57.639236 76.185327 L 57.752498 76.599836 L 57.641548 76.785092 L 56.277782 76.838353 L 56.102111 77.194971 L 57.008206 81.073765 L 57.151517 81.55543 L 57.537532 82.011623 L 57.484368 82.775803 L 56.899567 83.243574 L 56.351749 83.13242 L 55.616703 84.220798 L 54.812312 87.615612 Z M 53.964004 90.172142 " stroke="rgb(100%, 100%, 100%)" stroke-width="0.5" stroke-opacity="1" stroke-miterlimit="4"/><path fill="rgb(17.248535%, 44.309998%, 94.119263%)" d="M 187.34375 119.84375 L 188.265625 118.996094 L 190.023438 116.039062 L 191.152344 115.441406 L 193.695312 113.105469 L 193.894531 112.035156 L 197.597656 109.796875 L 199.097656 109.207031 L 201.660156 108.882812 L 203.214844 108.023438 L 205.292969 105.375 L 206.300781 102.804688 L 207.265625 101.667969 L 208.492188 101.222656 L 211.992188 101.363281 L 213.28125 100.847656 L 213.917969 100.332031 L 214.851562 99.898438 L 215.738281 99.855469 L 216.46875 100.777344 L 216.933594 100.886719 L 217.679688 100.625 L 219.40625 98.976562 L 219.910156 98.769531 L 223.585938 99.246094 L 226.632812 100.0625 L 229.597656 99.179688 L 231.757812 99.542969 L 234.398438 98.664062 L 236.324219 98.9375 L 237.578125 98.746094 L 239.609375 97.304688 L 242.757812 97.660156 L 243.90625 98.027344 L 244.992188 98.941406 L 245.660156 99.140625 L 245.105469 99.769531 L 245.050781 100.289062 L 246.3125 102.304688 L 243 105.566406 L 242.492188 107.308594 L 242.78125 108.992188 L 243.070312 109.472656 L 242.53125 110.589844 L 240.046875 112.113281 L 239.328125 113.339844 L 240.085938 118.671875 L 239.710938 122.457031 L 239.164062 125.265625 L 240.351562 128.882812 L 240.089844 129.4375 L 240.007812 130.53125 L 240.324219 131.574219 L 241.578125 133.480469 L 240.050781 134.03125 L 238.058594 135.863281 L 237.503906 134.894531 L 236.195312 134.253906 L 231.292969 134.578125 L 228.707031 136.71875 L 228.230469 137.496094 L 227.441406 137.75 L 225.515625 137.605469 L 224.511719 137.894531 L 222.886719 139.386719 L 222.039062 139.027344 L 217.691406 139.910156 L 217.597656 139.371094 L 216.464844 138.730469 L 213.609375 139.445312 L 212.8125 139.035156 L 211.339844 139.117188 L 211.015625 139.460938 L 211.082031 140.40625 L 210.484375 140.992188 L 206.972656 142.292969 L 205.074219 143.957031 L 204.277344 143.957031 L 203.828125 143.695312 L 202.503906 144.164062 L 201.980469 144.859375 L 202.472656 145.757812 L 202.578125 146.9375 L 200.574219 147.238281 L 199.769531 148.585938 L 199.816406 151.027344 L 198.617188 152.671875 L 196.691406 153.183594 L 196.421875 153.308594 L 194.144531 152.429688 L 193.734375 153.503906 L 193.292969 153.898438 L 191.65625 153.816406 L 188.964844 152.796875 L 187.515625 153.058594 L 187.394531 152.222656 Z M 187.34375 119.84375 " fill-opacity="1" fill-rule="nonzero"/><g clip-path="url(#id8)"><path stroke-linecap="butt" transform="matrix(1.689944, 0, 0, 1.686856, 15.639781, -5.337929)" fill="none" stroke-linejoin="miter" d="M 101.603335 74.210036 L 102.148841 73.70753 L 103.189001 71.954546 L 103.857015 71.600245 L 105.36178 70.215457 L 105.479665 69.580956 L 107.670936 68.254061 L 108.558539 67.904391 L 110.074861 67.712188 L 110.994825 67.202734 L 112.224525 65.632691 L 112.820884 64.108962 L 113.391816 63.435094 L 114.117617 63.171104 L 116.188691 63.254469 L 116.951475 62.948797 L 117.328244 62.643125 L 117.880684 62.386083 L 118.405387 62.36061 L 118.837632 62.907115 L 119.112696 62.971954 L 119.554186 62.816802 L 120.575855 61.839578 L 120.874034 61.716846 L 123.049124 61.999361 L 124.852068 62.483342 L 126.606472 61.959994 L 127.884713 62.175354 L 129.447264 61.654322 L 130.586818 61.816421 L 131.328798 61.702952 L 132.530761 60.848459 L 134.393803 61.059188 L 135.073375 61.276863 L 135.715962 61.818737 L 136.111223 61.936837 L 135.782995 62.309665 L 135.750634 62.617652 L 136.497238 63.812553 L 134.537114 65.74616 L 134.236624 66.778962 L 134.407672 67.777027 L 134.578721 68.061858 L 134.259738 68.724148 L 132.789645 69.62727 L 132.364336 70.354399 L 132.81276 73.515327 L 132.590859 75.759238 L 132.267254 77.424225 L 132.96994 79.568561 L 132.815072 79.89739 L 132.766531 80.545786 L 132.95376 81.164077 L 133.69574 82.294138 L 132.791957 82.620651 L 131.613109 83.706713 L 131.284881 83.13242 L 130.510539 82.752646 L 127.609648 82.944849 L 126.079457 84.213851 L 125.797458 84.674675 L 125.330542 84.825196 L 124.190989 84.739515 L 123.596942 84.910876 L 122.635372 85.795473 L 122.133783 85.582429 L 119.561121 86.105776 L 119.505646 85.78621 L 118.83532 85.406436 L 117.145638 85.830208 L 116.674099 85.58706 L 115.802676 85.63569 L 115.610824 85.839471 L 115.650119 86.39987 L 115.296465 86.747225 L 113.218456 87.518352 L 112.095083 88.50484 L 111.623544 88.50484 L 111.357725 88.349688 L 110.574138 88.627572 L 110.264401 89.039766 L 110.555646 89.572376 L 110.618056 90.271717 L 109.432273 90.450026 L 108.956111 91.248942 L 108.983849 92.696253 L 108.274228 93.671162 L 107.134675 93.974518 L 106.975184 94.04862 L 105.627599 93.527588 L 105.384895 94.164405 L 105.123699 94.398291 L 104.155195 94.349661 L 102.562594 93.745264 L 101.70504 93.900416 L 101.633384 93.404856 Z M 101.603335 74.210036 " stroke="rgb(100%, 100%, 100%)" stroke-width="0.5" stroke-opacity="1" stroke-miterlimit="4"/></g><path stroke-linecap="butt" transform="matrix(1.689944, 0, 0, 1.686856, 15.639781, -5.337929)" fill-opacity="1" fill="rgb(17.248535%, 44.309998%, 94.119263%)" fill-rule="nonzero" stroke-linejoin="miter" d="M 117.208048 130.180455 L 116.976901 130.685277 L 117.00695 131.414722 L 115.455956 131.623135 L 115.291842 130.594965 L 114.540615 129.94657 L 112.716868 130.555598 L 112.40482 130.502337 L 112.337787 130.310134 L 112.59436 129.576058 L 112.548131 129.224072 L 111.202857 129.314384 L 110.890809 129.51585 L 110.726695 129.91415 L 111.274512 130.277714 L 111.200545 130.49539 L 110.846891 130.757064 L 110.583384 130.736223 L 109.413782 129.807628 L 109.22193 129.383855 L 109.282028 129.177758 L 109.859895 128.793352 L 109.781305 128.385789 L 109.323634 127.952754 L 109.309766 127.589189 L 109.614879 127.100577 L 109.60101 125.989042 L 109.94773 124.710777 L 109.783616 124.497732 L 109.319011 124.252268 L 108.750391 124.680673 L 108.916816 124.958556 L 108.579342 125.034974 L 107.946 124.828877 L 107.130052 123.941965 L 104.728438 123.166206 L 104.566636 123.471878 L 103.870884 123.754393 L 103.496426 123.145365 L 103.1081 121.397013 L 102.386922 120.435998 L 102.024022 120.586519 L 101.074009 120.285478 L 98.445871 118.701541 L 97.743186 118.669121 L 97.567514 118.812694 L 97.269335 118.967846 L 95.635128 118.004515 L 94.941688 117.374646 L 94.345329 117.224125 L 94.012478 116.205218 L 93.379136 115.102946 L 92.556254 114.204455 L 94.789131 112.043909 L 95.057261 111.305201 L 95.360063 111.073632 L 95.903258 110.971741 L 96.508862 110.381238 L 97.220794 109.408645 L 97.169942 108.392053 L 97.902677 106.6877 L 98.561445 106.233823 L 100.375946 104.052435 L 101.305156 103.478142 L 102.229743 103.334569 L 103.473312 102.366607 L 105.585992 102.415237 L 110.43545 100.970241 L 110.578761 101.570007 L 110.204303 101.898836 L 110.269024 102.75796 L 110.493237 103.072895 L 111.343856 103.776867 L 113.049719 104.142748 L 113.36639 104.39979 L 113.401062 110.432183 L 115.576152 110.378922 L 117.272769 110.75175 L 118.195044 110.425236 L 119.24445 111.122261 L 120.076578 112.402842 L 119.896284 113.449538 L 120.196774 114.480023 L 119.41781 114.739381 L 118.678141 114.676858 L 117.043933 113.604689 L 114.912761 114.165088 L 113.844863 114.880639 L 111.47561 115.035791 L 111.348479 122.05004 L 112.53195 123.437143 L 114.378812 124.868244 L 115.414349 125.231809 L 115.643185 125.474957 L 115.957544 126.563335 L 115.559972 127.408565 L 115.585398 127.704974 L 116.489181 129.383855 L 117.282015 130.022988 Z M 117.208048 130.180455 " stroke="rgb(100%, 100%, 100%)" stroke-width="0.5" stroke-opacity="1" stroke-miterlimit="4"/><g clip-path="url(#id9)"><path fill="rgb(0%, 0%, 0%)" d="M 16.355469 -4.273438 L 16.355469 -5.960938 L 14.667969 -5.960938 L 14.667969 -4.273438 Z M 255.050781 -4.273438 L 256.738281 -4.273438 L 256.738281 -5.960938 L 255.050781 -5.960938 Z M 255.050781 265.621094 L 255.050781 267.308594 L 256.738281 267.308594 L 256.738281 265.621094 Z M 16.355469 265.621094 L 14.667969 265.621094 L 14.667969 267.308594 L 16.355469 267.308594 Z M 16.355469 -2.589844 L 255.050781 -2.589844 L 255.050781 -5.960938 L 16.355469 -5.960938 Z M 253.359375 -4.273438 L 253.359375 265.621094 L 256.738281 265.621094 L 256.738281 -4.273438 Z M 255.050781 263.933594 L 16.355469 263.933594 L 16.355469 267.308594 L 255.050781 267.308594 Z M 18.046875 265.621094 L 18.046875 -4.273438 L 14.667969 -4.273438 L 14.667969 265.621094 Z M 18.046875 265.621094 " fill-opacity="1" fill-rule="nonzero"/></g></svg>