<svg fill="none" height="112" viewBox="0 0 112 112" width="112" xmlns="http://www.w3.org/2000/svg"><circle cx="56.5968" cy="52.339" fill="#fbe62e" r="50.339" stroke="#06122c"/><ellipse cx="68.3562" cy="101.305" fill="#01090f" rx="26.0847" ry="4.11864"/><g stroke="#01090f"><path d="m46.9338 26.9732c-.0639 1.3478 1.3212 1.3463 1.7074.7547s.1323-1.4042.485-1.9089c.2391-.3515.5228-.6703.8439-.9484-.52.1017-1.0359.2089-1.5478.3217-.0759.0809-.1589.1549-.2478.2211-.216.1677-1.186.4894-1.2407 1.5598z" fill="#9bcdfb" stroke-linecap="round" stroke-linejoin="round"/><path d="m43.8079 100.325c-.7481-.7898-1.744-1.7443-1.3563-2.7628.2813-.7395 1.2164-1.1008 1.4186-1.8647.3208-1.1923-1.2665-1.9577-1.7835-3.0783-.5169-1.1207.1414-2.4396.6934-3.5724.5519-1.1329.935-2.6469.0319-3.519-1.1054-1.0673-3.1428-.1921-4.3606-1.1268-1.0126-.7745-.9032-2.3236-1.4688-3.4687-.8773-1.7732-3.4574-2.7978-3.2172-4.7632.152-1.1816 1.2893-1.9241 2.2305-2.6514.9411-.7273 1.8443-1.944 1.3151-3.0098-.7708-1.5521-2.2608-.4177-3.5669-1.5552-1.113-.9682-.9868-3.1226-2.3871-3.5861-.6477-.2134-1.338.0671-2.01.1876-.672.1204-1.5326-.0412-1.7303-.6953-.1307-.4269.0882-.8935 0-1.3326-.152-.8157-1.2163-1.0673-2.0374-.9148-.821.1525-1.6116.4284-2.4327.3476-1.6876-.1631-2.7504-1.7854-2.9146-2.8969s-.0897-2.2992-.5778-3.3147c-.1532-.3057-.3688-.5757-.6329-.7924-.264-.2167-.5706-.3753-.8997-.4655-.7031 3.0282-1.0572 6.1274-1.0552 9.2367 0 17.7033 11.3136 32.7536 27.0851 38.2867.7906-.526.3619-1.942-.3436-2.688z" fill="#9bcdfb" stroke-linecap="round" stroke-linejoin="round"/><path d="m40.9772 29.268c1.2954-.0716 1.4946-1.0856 2.8219-1.0551 1.6527.0381 1.2726-1.3066.3299-1.7732-1.5616.5491-3.088 1.1943-4.5704 1.9318.111.433.4455.9514 1.4186.8965z" fill="#9bcdfb" stroke-linecap="round" stroke-linejoin="round"/><path d="m50.345 101.565c1.9675-1.7782 3.0835-3.5545 5.0509-5.3369.8834-.7989 1.855-1.8769 1.5205-3.0204-.2205-.7456-.9655-1.2838-1.0491-2.0553-.1293-1.1831 1.3076-1.8906 2.492-1.9821s3.4042.0137 4.2025-.866c1.1981-1.3219 0-3.4428.3223-5.2008.2448-1.3493 1.3988-2.4395 1.4855-3.8117.1307-2.0828-2.1606-3.426-4.1721-3.9643-2.0116-.5382-4.3698-.9864-5.355-2.8252-.5109-.953-.6933-2.2993-1.7257-2.6164-.6538-.2028-1.3806.1418-2.0359-.0519-1.4505-.4269-1.338-2.9167-2.7656-3.4092-1.3061-.4482-2.6167 1.2198-3.9456.8462-1.189-.3354-1.5508-2.0888-2.755-2.3663-1.5037-.3446-3.2294 3.0387-5.393 2.5539-1.9112-.4285-1.0643-3.0006-1.9522-4.0801-.9017-1.1024-2.5848-.4895-2.3795-1.9379.152-1.046.8058-2.6012-.2372-2.7445-1.1388-.1631-1.6953 1.915-3.7509 2.3023-.8378.1525-2.267-.1997-2.4206-2.5097-.1216-1.8296 1.3426-4.0175 4.4093-4.475 4.3956-.6541 4.096 1.3723 5.5055 1.8648 1.4094.4924 1.9325.1936 2.6532-1.1192.669-1.2197.0425-2.9487.967-3.9855.5139-.5764 1.3425-.7258 2.0054-1.1207 1.9553-1.1694 2.1894-4.2692 4.2572-5.2038 1.1115-.5032 2.3947-.34 3.6111-.4147 1.2163-.0747 2.6106-.7929 1.8245-2.5173-.2113-.4574-.7754-.6937-.9807-1.1603-.5762-1.3067 1.4368-2.3465 2.1393-.9697 1.4292 2.8039 2.8219-.3537 3.4179.5199.5063.741-.5504 1.6208 0 2.3862.2524.3522.888.2271 1.4642.3217.6355.1021 1.2164.3918 1.563.0732.6599-.6099.5519-1.4348-.5762-1.9242-.2676-.1159-.8302-.2775-.9305-.552-.3361-.9026 1.1874-.9666 1.2954-1.7534.1839-1.3264-.9655-1.4469-1.4429-2.0812-.6264-.8309-.444-2.4486-1.4855-2.1345-1.0415.314-1.6983 1.0459-2.4053.2165-.3554-.4492-.6292-.9576-.8089-1.5019-.6082-1.6512-3.386-1.3463-3.6719.215-.4561 2.467-.9457 3.0799-2.2806 3.6593-1.1981.5092-1.1358 2.7628-2.3384 2.2642-.6082-.2547-.1019-1.7748-1.2027-2.6728-.593-.4834-1.6953-.1525-2.2807-.6419-1.2604-1.081-.2341-2.7567.5945-2.9839 2.0602-.5656 1.9492-1.6375 3.3115-1.8296 1.1586-.1677 1.7622 1.0871 2.5422.8508.853-.2562.8849-1.5964 1.5676-2.0355.9731-.6266 1.4444 0 2.8006-1.4713.7846-.8508 3.605-.3721 3.5807.7867-.0152.7532-2.3582.8401-2.492 1.7321-.0715.4803.9122.5123 1.8002.6906.5549.1114 1.154.5627 1.531.5429.7922-.0427.5641-.9957 1.3365-1.1222 1.2164-.1998 2.4449-.3568 2.3795-1.4927-.0578-.9636-1.2376-.183-1.4231-1.6497-.1521-1.2198-2.3993-1.7489-3.0637-2.4396-.3963-.4099-.869-.7378-1.3912-.9651-1.1089.1159-2.2036.277-3.2842.4833-.3211.2781-.6048.5969-.8438.9484-.3528.5047-.0973 1.3173-.485 1.9089s-1.7713.5931-1.7075-.7547c.0502-1.0673 1.0202-1.3966 1.2407-1.5598.089-.0661.1719-.1401.2478-.2211-1.4542.3357-2.8886.7521-4.2967 1.2473.9426.4665 1.3227 1.8113-.33 1.7732-1.3273-.0305-1.5204.9834-2.8219 1.0551-.9731.0549-1.3076-.4574-1.4186-.8966-5.343 2.658-10.0349 6.4661-13.7408 11.1525-3.7058 4.6864-6.3342 10.1355-7.6973 15.9583.3291.0901.6356.2487.8997.4654.264.2167.4796.4867.6329.7924.488 1.0155.415 2.1987.5777 3.3147.1627 1.1161 1.227 2.7445 2.9147 2.897.8256.0808 1.6223-.1921 2.4327-.3477.8104-.1555 1.8793.1022 2.0374.9149.0851.4391-.1338.9056 0 1.3325.1976.6541 1.0643.8142 1.7303.6953.6659-.1189 1.3683-.401 2.01-.1875 1.4003.4574 1.2741 2.6179 2.3871 3.5861 1.306 1.1374 2.796 0 3.5669 1.5552.5291 1.0673-.374 2.287-1.3152 3.0097-.9411.7227-2.086 1.4698-2.2305 2.6515-.2402 1.9653 2.34 2.9899 3.2173 4.7632.5656 1.145.4561 2.6941 1.4687 3.4687 1.2164.9346 3.2553.0594 4.3606 1.1267.9032.8721.5185 2.3877-.0319 3.519s-1.2163 2.4304-.6933 3.5724 2.1043 1.886 1.7835 3.0784c-.2053.7623-1.1373 1.1252-1.4186 1.8647-.3877 1.0185.6082 1.9729 1.3562 2.7627.7055.746 1.1343 2.162.3421 2.68 1.4936.524 3.0167.958 4.5613 1.301-.041-.988.8226-2.013 1.6284-2.741z" fill="#7fdfb3" stroke-linecap="round" stroke-linejoin="round"/><path d="m95.6428 51.1962c-.2906.024-.5706.1202-.8148.28-.2442.1597-.4449.3778-.584.6348-.1232.247-.6432.8462-.9488.8462-1.5204 0-.9563-.8981-2.4813-1.2045-.7283-.1525-1.9553.6449-2.3689.0259-.2432-.3659-.3162-.8157-.4941-1.2198-.6082-1.3722-2.6167-1.8601-3.7844-.9148-.3466.2805-.6173.6541-.9913.8981-1.5797 1.023-3.608-.831-5.4629-.5154-.585.1179-1.1076.4444-1.471.919s-.543 1.0651-.5056 1.6623c.0334.3492.1429.7029.0654 1.046-.1217.5489-.6675.8813-1.1799 1.1084-1.0035.4452-1.8549.4574-2.9436 1.4454-.8149.738-1.3683 1.97-.8149 2.9153.152.2485.3603.4574.4911.7151.6295 1.2441-.8803 2.5355-1.0065 3.9245-.1521 1.6406 1.5843 2.7445 2.4099 4.1716.6507 1.1192.973 2.7231 2.2365 2.9945s2.3689-1.1313 3.6673-1.0978c.7694.0199 1.4809.5489 2.2457.4575.6082-.0687 1.0932-.5062 1.6071-.8356.5139-.3293 1.2164-.5519 1.709-.1951.4713.3415.523 1.0474.9366 1.4576.6386.6373 1.8595.3278 2.4555 1.0048.8134.927.1079 1.7.2919 2.9198.1733 1.1542.9685 2.3221 1.6603 3.2613.7344.9987.669 2.374.4105 3.5876-.2584 1.2137-.6842 2.4304-.5549 3.6593.1019.9712.6948 1.9653 1.5447 2.3404 4.557-6.7143 6.9882-14.651 6.9758-22.7729.0056-4.6049-.7724-9.177-2.3004-13.5195z" fill="#7fdfb3" stroke-linecap="round" stroke-linejoin="round"/><path d="m84.7132 38.064c-.4166.7181-.5002 1.8388-1.3167 1.9821-.2599.0208-.5212-.0097-.7693-.0899-.6949-.1525-1.4764-.1342-2.0542.2805-.2056.148-.3696.3468-.4761.5771-.1066.2302-.1521.4842-.132.7372.0517.7136.6173.8599 1.005 1.2091.2448.2211.4135.6099.2265.8767-.6173.4193-1.4398.3202-2.1636.1525-.7784-.1906-1.5934-.4574-2.3627-.1723-.2061.076-.3909.2006-.5388.3632-.1479.1627-.2546.3587-.3111.5714-.2388.9148.637 1.0673.8575 1.6436.2904.7624-.7298 1.758-.1521 2.3466.3041.3049.818.2012 1.1951 0 .3771-.2013.7405-.494 1.1692-.4925.3847 0 .7222.2348 1.0719.3979.6082.2836 1.3532.3477 1.9371.0168.6705-.3812 1.0126-1.3722.4409-1.9821-.1528-.1515-.2557-.3462-.295-.558-.0821-.5901.4729-.7106.8697-.5901.2965.0915.5611.276.8667.3339.8073.1525 1.4672-.6099 1.9765-1.2533.264-.3565.5919-.6606.967-.8965.1056-.0583.2234-.0906.3439-.0942.1204-.0037.24.0215.3489.0733.1088.0518.2038.1288.2771.2247.0734.0959.1229.2079.1446.3268.0916.4477.3068.8606.6211 1.1916.3142.3311.7149.5669 1.1563.6807.5398.122 1.1221.0518 1.5965.4239.1092.0815.1931.1923.2421.3197.0489.1273.0609.266.0346.3999-.1885.8142-1.6041.4727-1.896 1.3509-.1931.5763.2418 1.1557.8408 1.2426.9199.1342 1.6436-.6602 1.9158-1.4942.2888-.8889.8985-1.2518 1.3684-1.5247-1.6942-3.398-3.8544-6.5415-6.4178-9.3388-.853-.436-2.1089-.061-2.5878.7639z" fill="#7fdfb3" stroke-linecap="round" stroke-linejoin="round"/><path d="m93.7082 46.6314c-.4683.2775-1.078.6404-1.3684 1.5247-.2722.834-.9959 1.6284-1.9158 1.4942-.599-.0869-1.0339-.6663-.8408-1.2426.292-.8782 1.7075-.5367 1.896-1.3509.0264-.1339.0144-.2726-.0346-.3999-.049-.1274-.1329-.2382-.2421-.3197-.4744-.3721-1.0567-.305-1.5965-.4239-.4402-.1139-.8398-.3493-1.1535-.6795-.3136-.3301-.5287-.7418-.6208-1.1883-.0217-.1188-.0712-.2308-.1446-.3267-.0733-.0959-.1683-.1729-.2772-.2247-.1088-.0519-.2284-.077-.3488-.0734-.1205.0037-.2383.0359-.3439.0942-.3751.236-.703.54-.967.8966-.5078.6495-1.1677 1.4057-1.9766 1.2533-.304-.058-.5701-.2425-.8666-.3339-.3968-.1205-.9518 0-.8697.59.0393.2118.1422.4066.295.5581.5716.6098.2296 1.5978-.441 1.9821-.5838.3308-1.3288.2668-1.937-.0168-.3497-.1632-.6872-.398-1.0719-.398-.4288 0-.7937.2882-1.1692.4925-.3756.2043-.8971.305-1.1951 0-.5717-.5885.4561-1.578.1521-2.3465-.2205-.5794-1.0963-.7334-.8576-1.6436.0565-.2128.1633-.4087.3112-.5714s.3327-.2873.5388-.3633c.7693-.2805 1.5842-.0183 2.3627.1723.7237.1754 1.5463.2745 2.1636-.1524.187-.2714.0182-.6557-.2265-.8767-.3878-.3492-.9534-.4956-1.0051-1.2091-.02-.2531.0255-.507.132-.7373.1066-.2302.2706-.429.4762-.577.5778-.4147 1.3593-.4361 2.0541-.2806.2481.0802.5095.1108.7694.09.8164-.1525.9001-1.2686 1.3167-1.9821.4789-.8249 1.7348-1.203 2.5847-.7715-3.783-4.1426-8.3852-7.4494-13.5131-9.7096-5.128-2.2602-10.6693-3.4243-16.2707-3.4181-1.4195.0002-2.8379.0745-4.2497.2226.5219.2274.9945.5547 1.3912.9636.6645.6983 2.9086 1.2198 3.0637 2.4395.1855 1.4668 1.3684.6862 1.4231 1.6498.0654 1.1359-1.157 1.2929-2.3794 1.4926-.7724.1266-.5444 1.0795-1.3365 1.1222-.3771.0198-.9761-.4315-1.5311-.5428-.894-.1784-1.8717-.2104-1.8002-.6907.1338-.8919 2.4768-.9788 2.492-1.732.0243-1.1588-2.7961-1.6376-3.5806-.7868-1.3563 1.4714-1.8245.8447-2.8007 1.4714-.6826.4391-.7146 1.7793-1.5675 2.0354-.78.2364-1.3836-1.0184-2.5422-.8507-1.3684.1982-1.2513 1.27-3.3115 1.8296-.8287.2272-1.855 1.9013-.5945 2.9838.5808.4971 1.6831.1525 2.2806.642 1.1008.898.5915 2.4181 1.2027 2.6728 1.2027.4985 1.1403-1.755 2.3384-2.2642 1.3426-.5718 1.8383-1.1847 2.2807-3.6593.2858-1.5613 3.0622-1.8662 3.6719-.215.1797.5443.4535 1.0527.8088 1.5018.707.8295 1.3684.1007 2.4054-.2165 1.0369-.3171.859 1.3006 1.4854 2.1346.4775.6343 1.6269.7624 1.4429 2.0812-.1079.7868-1.6314.8508-1.2954 1.7534.1004.2745.6629.4361.9305.552 1.1282.4894 1.2361 1.3158.5763 1.9241-.3452.3187-.9275.029-1.563-.0731-.5763-.0946-1.2164.0305-1.4642-.3217-.5504-.7624.5063-1.6452 0-2.3862-.596-.8737-1.9888 2.287-3.418-.5199-.7024-1.3723-2.7155-.337-2.1392.9697.2052.4665.7693.6968.9807 1.1603.7921 1.7244-.6082 2.4395-1.8246 2.5173-1.2163.0777-2.4996-.0885-3.611.4147-2.0739.9392-2.308 4.0343-4.2572 5.2038-.6629.3949-1.4916.5443-2.0055 1.1206-.9244 1.0353-.3041 2.7674-.967 3.9856-.7207 1.3128-1.2422 1.6177-2.6532 1.1191-1.4109-.4985-1.1099-2.5188-5.5055-1.8647-3.0682.4574-4.5324 2.6393-4.4092 4.475.152 2.3099 1.5827 2.6682 2.4205 2.5097 2.0556-.3873 2.6121-2.4655 3.7509-2.3023 1.043.1525.3832 1.7046.2372 2.7444-.2037 1.4485 1.4779.8356 2.3795 1.9379.8834 1.0795.041 3.6593 1.9522 4.0801 2.1636.4849 3.8893-2.8969 5.393-2.5538 1.2042.2775 1.5661 2.0309 2.7551 2.3663 1.3288.3751 2.6394-1.2945 3.9455-.8462 1.4277.4925 1.3152 2.9823 2.7657 3.4092.6553.1937 1.3821-.1524 2.0358.0519 1.0324.3171 1.2164 1.6634 1.7257 2.6164.9853 1.8387 3.345 2.287 5.355 2.8252s4.3029 1.8815 4.1721 3.9642c-.0866 1.3723-1.2407 2.4579-1.4855 3.8118-.3193 1.758.8758 3.8788-.3223 5.2008-.7982.8797-3.0196.7821-4.2025.866-1.1829.0838-2.6212.7928-2.492 1.9821.0836.7715.8287 1.3097 1.0491 2.0553.3391 1.1435-.6325 2.2215-1.5204 3.0204-1.9675 1.7778-3.0835 3.5541-5.0509 5.3368-.8058.728-1.6725 1.753-1.6345 2.744 2.8885.643 5.8385.967 8.7973.965 6.6019.005 13.1043-1.614 18.938-4.713 5.8338-3.1 10.821-7.5861 14.5253-13.0663-.8499-.375-1.4429-1.3722-1.5448-2.3404-.1292-1.235.295-2.4502.555-3.6593.26-1.209.3238-2.592-.4105-3.5876-.6918-.9392-1.487-2.1071-1.6603-3.2613-.184-1.2198.5215-1.9928-.292-2.9198-.596-.677-1.8169-.3675-2.4555-1.0048-.4135-.4101-.4652-1.1161-.9366-1.4576-.4956-.3568-1.195-.1342-1.7089.1951-.5139.3294-1.0005.7624-1.6071.8356-.7603.0869-1.4764-.4422-2.2457-.4574-1.2985-.0336-2.3978 1.3722-3.6673 1.0978-1.2696-.2745-1.5858-1.8754-2.2366-2.9946-.8256-1.424-2.5574-2.531-2.4099-4.1715.1262-1.389 1.636-2.6805 1.0065-3.9246-.1307-.2577-.3421-.4666-.4911-.7151-.561-.9453 0-2.1773.815-2.9152 1.0886-.985 1.9401-1.0002 2.9436-1.4454.5124-.2272 1.0643-.5596 1.1798-1.1085.0776-.3431-.0319-.6968-.0654-1.046-.0374-.5971.1422-1.1877.5056-1.6623s.886-.8011 1.471-.919c1.855-.3156 3.8832 1.5385 5.463.5154.374-.244.6446-.6175.9913-.8981 1.1677-.9422 3.1762-.4574 3.7843.9149.1779.4025.2509.8523.4942 1.2197.4135.619 1.6405-.1723 2.3688-.0259 1.5205.3049.9625 1.2045 2.4814 1.2045.3041 0 .8256-.5992.9487-.8462.1391-.2569.3399-.4751.5841-.6348s.5242-.256.8147-.28c-.5503-1.5577-1.1951-3.0802-1.9309-4.5589z" fill="#9bcdfb" stroke-miterlimit="10"/><path d="m17.834 37.1691c0 .5835.1146 1.1612.3372 1.7003.2227.539.549 1.0288.9605 1.4414.4114.4126.8998.7398 1.4373.9631.5376.2233 1.1137.3382 1.6955.3382.6008.0009 1.1953-.1215 1.747-.3598-.7961-.3432-1.4745-.9128-1.9512-1.6385-.4767-.7258-.7308-1.5757-.7308-2.4447.0003-.8687.2545-1.7183.7312-2.4437.4767-.7255 1.1549-1.2949 1.9508-1.6379-.5517-.2383-1.1462-.3608-1.747-.3598-1.1747 0-2.3014.4679-3.1323 1.3007-.8308.8329-1.2978 1.9626-1.2982 3.1407z" fill="#00ac6b" stroke-linecap="round" stroke-linejoin="round"/><path d="m84.4922 42.1408c0 .5835.1146 1.1612.3373 1.7003.2226.539.549 1.0288.9604 1.4414.4114.4125.8998.7398 1.4374.9631.5375.2233 1.1136.3382 1.6954.3382.6008.0009 1.1953-.1215 1.747-.3598-.7961-.3432-1.4745-.9128-1.9512-1.6386-.4767-.7257-.7308-1.5756-.7308-2.4446.0003-.8687.2545-1.7183.7312-2.4438.4767-.7254 1.1549-1.2948 1.9508-1.6378-.5517-.2383-1.1462-.3608-1.747-.3599-1.1747 0-2.3014.4679-3.1323 1.3008-.8308.8329-1.2978 1.9626-1.2982 3.1407z" fill="#00ac6b" stroke-linecap="round" stroke-linejoin="round"/><path d="m25.972 29.0621c-.073 0-.1444 0-.2159 0s-.152 0-.2159 0h-3.0652c.5159.0133 1.0293.0777 1.5326.1921 3.6977.8463 6.4664 4.318 6.4664 8.4743 0 5.1657-4.0535 11.4475-6.4664 14.7271-.9335 1.2716-1.6208 2.0904-1.7303 2.22h3.4971s8.1966-9.781 8.1966-16.9471c-.0015-4.7128-3.5623-8.5459-7.999-8.6664z" fill="#00ac6b" stroke-linecap="round" stroke-linejoin="round"/><path d="m92.6322 34.0339c-.073 0-.1445 0-.2159 0-.0715 0-.1521 0-.2159 0h-3.0652c.5159.0133 1.0292.0777 1.5326.1921 3.6977.8463 6.4664 4.318 6.4664 8.4744 0 5.1656-4.0535 11.4474-6.4664 14.727-.9336 1.2716-1.6208 2.0904-1.7303 2.22h3.497s8.1965-9.781 8.1965-16.947c-.001-4.7129-3.5622-8.546-7.9988-8.6665z" fill="#00ac6b" stroke-linecap="round" stroke-linejoin="round"/><path d="m24.0081 29.2542c-.5033-.1144-1.0166-.1788-1.5326-.1921-.0714 0-.1429 0-.2144 0-4.5369 0-8.2103 3.8834-8.2103 8.6725 0 7.1661 7.8044 16.4821 8.1982 16.9471h.0334c.1095-.1296.7967-.9484 1.7303-2.22 2.4129-3.2796 6.4664-9.5614 6.4664-14.7271-.0045-4.1624-2.7733-7.6341-6.471-8.4804zm0 12.0025c-.5517.2383-1.1462.3608-1.747.3598-.5822 0-1.1587-.115-1.6965-.3386s-1.0265-.5512-1.4379-.9643c-.4115-.4131-.7378-.9034-.9602-1.443-.2224-.5395-.3365-1.1178-.3359-1.7016.0004-1.1781.4674-2.3078 1.2982-3.1407.8309-.8329 1.9576-1.3008 3.1323-1.3008.6008-.0009 1.1953.1215 1.747.3598.7962.3428 1.4746.9121 1.9514 1.6376.4767.7255.7307 1.5752.7307 2.4441.0012.8698-.2523 1.7209-.7291 2.4476s-1.1559 1.297-1.953 1.6401z" fill="#00ac6b" stroke-linecap="round" stroke-linejoin="round"/><path d="m90.6683 34.226c-.5033-.1144-1.0167-.1788-1.5326-.1921-.0715 0-.1429 0-.2144 0-4.537 0-8.2104 3.8835-8.2104 8.6725 0 7.1661 7.8044 16.4821 8.1982 16.9471h.0335c.1095-.1296.7967-.9484 1.7303-2.22 2.4129-3.2796 6.4664-9.5614 6.4664-14.7271-.0046-4.1624-2.7733-7.6341-6.471-8.4804zm0 12.0025c-.5517.2383-1.1463.3608-1.747.3598-.5822 0-1.1587-.115-1.6966-.3386-.5378-.2236-1.0264-.5512-1.4379-.9643s-.7377-.9034-.9601-1.443c-.2224-.5395-.3366-1.1178-.336-1.7016.0004-1.1781.4674-2.3078 1.2983-3.1407.8308-.8329 1.9575-1.3008 3.1323-1.3008.6007-.0009 1.1953.1215 1.747.3599.7961.3427 1.4746.912 1.9513 1.6375s.7308 1.5752.7307 2.4441c.0013.8699-.2522 1.7209-.729 2.4476s-1.1559 1.297-1.953 1.6401z" fill="#00ac6b" stroke-linecap="round" stroke-linejoin="round"/><path d="m38.4492 79.5876c0 1.1781.4666 2.3079 1.2972 3.1411.8305.8332 1.9571 1.3015 3.1318 1.3019.6012.0008 1.1963-.1216 1.7486-.3599-.7962-.3431-1.4746-.9127-1.9513-1.6385-.4767-.7257-.7308-1.5756-.7308-2.4446.0003-.8688.2546-1.7184.7312-2.4438.4767-.7254 1.1549-1.2948 1.9509-1.6379-.5523-.2382-1.1474-.3606-1.7486-.3598-1.1746 0-2.3011.468-3.1318 1.3009-.8306.8329-1.2972 1.9626-1.2972 3.1406z" fill="#ffc664" stroke-linecap="round" stroke-linejoin="round"/><path d="m41.791 21.0427c0 1.178.4666 2.3079 1.2972 3.1411.8305.8332 1.9571 1.3014 3.1318 1.3018.6012.0009 1.1963-.1216 1.7485-.3598-.7961-.3431-1.4745-.9128-1.9512-1.6385s-.7308-1.5756-.7308-2.4446c.0003-.8688.2546-1.7184.7312-2.4438.4767-.7254 1.1549-1.2948 1.9508-1.6379-.5522-.2382-1.1473-.3606-1.7485-.3598-1.1746 0-2.3012.4679-3.1318 1.3009-.8306.8329-1.2972 1.9626-1.2972 3.1406z" fill="#ffc664" stroke-linecap="round" stroke-linejoin="round"/><path d="m46.5916 71.4749c-.0715 0-.1429 0-.2144 0s-.1444 0-.2159 0h-3.0652c.5159.0133 1.0293.0776 1.5326.1921 3.6962.8462 6.4664 4.3179 6.4664 8.4743 0 5.1656-4.055 11.4474-6.4664 14.7271-.9351 1.2716-1.6208 2.0903-1.7303 2.2199h3.497s8.1967-9.781 8.1967-16.947c-.0015-4.7114-3.5639-8.5445-8.0005-8.6664z" fill="#ffc664" stroke-linecap="round" stroke-linejoin="round"/><path d="m49.9353 12.9298c-.0714 0-.1429 0-.2144 0-.0714 0-.1444 0-.2159 0h-3.0652c.516.0133 1.0293.0777 1.5326.1921 3.6962.8462 6.4665 4.318 6.4665 8.4743 0 5.1657-4.055 11.4475-6.4665 14.7271-.935 1.2716-1.6207 2.0904-1.7302 2.22h3.497s8.1967-9.781 8.1967-16.9471c-.0015-4.7113-3.5639-8.5444-8.0006-8.6664z" fill="#ffc664" stroke-linecap="round" stroke-linejoin="round"/><path d="m44.6268 71.6686c-.5033-.1145-1.0166-.1789-1.5326-.1922-.0714 0-.1429 0-.2159 0-4.5354 0-8.2103 3.8835-8.2103 8.6725 0 7.1661 7.8044 16.4821 8.1967 16.9471h.0349c.1095-.1296.7952-.9484 1.7303-2.22 2.4114-3.2796 6.4664-9.5614 6.4664-14.7271-.003-4.1624-2.7733-7.6341-6.4695-8.4803zm0 12.0024c-.5522.2382-1.1473.3607-1.7485.3598-1.1748-.0004-2.3013-.4687-3.1319-1.3018-.8305-.8332-1.2971-1.9631-1.2971-3.1412 0-.5832.1146-1.1608.3371-1.6996.2226-.5389.5489-1.0285.9601-1.4409.4113-.4125.8996-.7396 1.4369-.9628.5374-.2232 1.1133-.3381 1.6949-.3381.6012-.0009 1.1963.1216 1.7485.3598.796.343 1.4742.9125 1.9509 1.6379.4766.7254.7309 1.575.7312 2.4437.0002.8693-.2537 1.7196-.7304 2.4456s-1.1553 1.2959-1.9517 1.6391z" fill="#ffc664" stroke-linecap="round" stroke-linejoin="round"/><path d="m47.9686 13.1235c-.5033-.1145-1.0166-.1788-1.5326-.1921-.0714 0-.1429 0-.2159 0-4.5354 0-8.2103 3.8834-8.2103 8.6725 0 7.1661 7.8044 16.482 8.1967 16.9471h.0349c.1095-.1296.7952-.9484 1.7303-2.22 2.4114-3.2796 6.4664-9.5614 6.4664-14.7271-.003-4.1624-2.7733-7.6342-6.4695-8.4804zm0 12.0025c-.5522.2382-1.1473.3606-1.7485.3598-1.1748-.0004-2.3013-.4687-3.1319-1.3019-.8305-.8332-1.2971-1.963-1.2971-3.1411 0-.5833.1146-1.1608.3371-1.6997.2226-.5388.5489-1.0285.9601-1.4409.4113-.4124.8996-.7396 1.4369-.9628.5374-.2232 1.1133-.3381 1.6949-.3381.6012-.0008 1.1963.1216 1.7485.3599.796.343 1.4742.9124 1.9509 1.6379.4766.7254.7309 1.575.7312 2.4437.0002.8693-.2537 1.7195-.7304 2.4456-.4767.726-1.1553 1.2958-1.9517 1.6391z" fill="#ffc664" stroke-linecap="round" stroke-linejoin="round"/><path d="m53.4727 61.0975c0 .5833.1145 1.1608.3371 1.6997.2226.5388.5488 1.0285.9601 1.4409s.8995.7396 1.4369.9628c.5373.2232 1.1133.3381 1.6949.3381.6012.0008 1.1962-.1216 1.7485-.3599-.796-.3427-1.4742-.9121-1.9507-1.6376-.4765-.7256-.7302-1.5753-.7298-2.444-.0004-.8691.2535-1.7192.7303-2.445.4767-.7258 1.1553-1.2953 1.9517-1.6381-.5525-.2375-1.1474-.3599-1.7485-.3599-1.175 0-2.302.4681-3.1329 1.3014-.8309.8332-1.2976 1.9633-1.2976 3.1416z" fill="#00ac6b" stroke-linecap="round" stroke-linejoin="round"/><path d="m61.6146 52.9847c-.0715 0-.1429 0-.2159 0h-.2144-3.0652c.516.0139 1.0293.0787 1.5326.1937 3.6962.8462 6.4664 4.3164 6.4664 8.4727 0 5.1657-4.055 11.4475-6.4664 14.7287-.9351 1.27-1.6223 2.0888-1.7318 2.2199h3.497s8.1982-9.7809 8.1982-16.9486c-.0015-4.7128-3.5639-8.5444-8.0005-8.6664z" fill="#00ac6b" stroke-linecap="round" stroke-linejoin="round"/><path d="m59.6542 53.1784c-.5033-.115-1.0166-.1798-1.5326-.1937-.0715 0-.1429 0-.2159 0-4.537 0-8.2104 3.8819-8.2104 8.671 0 7.1661 7.8029 16.482 8.1967 16.9486h.0334c.1095-.1311.7968-.9499 1.7318-2.22 2.4114-3.2811 6.4664-9.5629 6.4664-14.7286-.003-4.1609-2.7687-7.6311-6.4694-8.4773zm0 12.0009c-.5523.2382-1.1473.3607-1.7485.3598-.582.0006-1.1585-.1138-1.6963-.3367-.5379-.223-1.0267-.55-1.4385-.9625-.4117-.4125-.7384-.9023-.9612-1.4415-.2229-.5392-.3376-1.1171-.3376-1.7007 0-1.1781.4666-2.308 1.2971-3.1411.8306-.8332 1.9571-1.3015 3.1319-1.3019.6011 0 1.196.1224 1.7485.3598.7962.3432 1.4746.9128 1.9513 1.6385s.7307 1.5757.7308 2.4447c.0002.8682-.2532 1.7176-.7291 2.443-.4758.7254-1.1532 1.295-1.9484 1.6386z" fill="#00ac6b" stroke-linecap="round" stroke-linejoin="round"/></g></svg>