<svg xmlns="http://www.w3.org/2000/svg" xmlns:xlink="http://www.w3.org/1999/xlink" width="411" zoomAndPan="magnify" viewBox="0 0 308.25 262.500001" height="350" preserveAspectRatio="xMidYMid meet" version="1.0"><defs><clipPath id="id1"><path d="M 0 0.0703125 L 307.5 0.0703125 L 307.5 261.933594 L 0 261.933594 Z M 0 0.0703125 " clip-rule="nonzero"/></clipPath><clipPath id="id2"><path d="M 56 29 L 258.871094 29 L 258.871094 259 L 56 259 Z M 56 29 " clip-rule="nonzero"/></clipPath><clipPath id="id3"><path d="M 55 28 L 258.871094 28 L 258.871094 260 L 55 260 Z M 55 28 " clip-rule="nonzero"/></clipPath></defs><g clip-path="url(#id1)"><path fill="rgb(100%, 100%, 100%)" d="M 0 0.0703125 L 307.5 0.0703125 L 307.5 261.933594 L 0 261.933594 Z M 0 0.0703125 " fill-opacity="1" fill-rule="nonzero"/><path fill="rgb(100%, 100%, 100%)" d="M 0 0.0703125 L 307.5 0.0703125 L 307.5 261.933594 L 0 261.933594 Z M 0 0.0703125 " fill-opacity="1" fill-rule="nonzero"/><path fill="rgb(100%, 100%, 100%)" d="M 0 0.0703125 L 307.5 0.0703125 L 307.5 261.933594 L 0 261.933594 Z M 0 0.0703125 " fill-opacity="1" fill-rule="nonzero"/></g><g clip-path="url(#id2)"><path fill="rgb(17.248535%, 44.309998%, 94.119263%)" d="M 226.957031 258.941406 C 225.367188 258.574219 223.816406 257.308594 222.636719 255.640625 C 221.328125 253.765625 220.394531 251.238281 220.3125 248.753906 C 220.269531 247.164062 220.515625 245.492188 220.761719 243.824219 C 221.289062 240.4375 221.859375 236.851562 219.820312 233.351562 C 218.558594 231.109375 217.011719 229.273438 215.417969 227.765625 C 213.21875 225.648438 211.015625 224.222656 209.507812 223.445312 C 208.324219 222.835938 206.042969 222.265625 203.921875 222.101562 C 202.863281 222.019531 201.882812 222.0625 201.070312 222.222656 C 200.375 222.386719 199.84375 222.671875 199.683594 223.082031 C 199.640625 223.160156 199.601562 223.285156 199.601562 223.40625 C 199.519531 224.546875 200.210938 226.175781 201.109375 227.726562 C 202.25 229.722656 203.800781 231.554688 204.777344 232.25 C 205.757812 232.902344 206.652344 234.042969 207.347656 235.265625 C 208.078125 236.570312 208.570312 238.078125 208.609375 239.21875 C 208.609375 239.460938 208.652344 239.789062 208.691406 240.113281 C 208.773438 240.765625 208.8125 241.582031 208.773438 242.316406 C 208.609375 244.3125 207.425781 246.105469 202.78125 245.574219 C 199.234375 245.167969 196.417969 244.515625 194.421875 243.617188 C 192.34375 242.722656 191.039062 241.5 190.589844 239.992188 C 190.183594 238.6875 189.488281 237.503906 188.675781 236.445312 C 187.898438 235.386719 187.003906 234.449219 186.269531 233.714844 C 185.496094 232.941406 184.800781 231.921875 184.71875 230.699219 C 184.636719 229.519531 185.128906 228.175781 186.757812 226.789062 C 188.144531 225.605469 189.246094 224.34375 190.101562 223.082031 C 191.039062 221.695312 191.652344 220.390625 191.976562 219.207031 C 192.34375 217.824219 192.832031 211.667969 192.628906 205.964844 C 192.507812 202.335938 192.140625 198.914062 191.28125 197.160156 C 190.140625 194.757812 185.984375 189.867188 181.292969 185.140625 C 176.972656 180.78125 172.203125 176.582031 168.941406 174.667969 C 163.96875 171.773438 159.035156 166.679688 155.8125 163.378906 C 154.550781 162.117188 153.613281 161.097656 153 160.609375 L 153 160.566406 C 151.53125 159.34375 147.007812 159.792969 143.296875 160.121094 C 141.789062 160.242188 140.445312 160.363281 139.425781 160.363281 C 137.425781 160.363281 134.613281 158.976562 132.371094 156.695312 C 130.496094 154.820312 129.027344 152.335938 128.703125 149.523438 C 128.171875 145.285156 129.230469 144.714844 130.617188 143.902344 C 131.1875 143.535156 131.882812 143.167969 132.453125 142.351562 C 133.878906 140.273438 131.71875 136.15625 130.496094 133.792969 C 130.25 133.347656 130.089844 132.980469 129.925781 132.695312 C 129.476562 131.757812 127.273438 129.066406 124.664062 126.132812 C 121.730469 122.792969 118.304688 119.164062 116.226562 117.207031 C 113.863281 115.007812 109.050781 111.667969 104.972656 108.855469 C 102.28125 107.019531 99.960938 105.390625 98.859375 104.453125 C 97.511719 103.3125 95.109375 102.128906 93.152344 101.722656 C 92.5 101.601562 91.886719 101.558594 91.4375 101.683594 C 91.070312 101.761719 90.828125 101.96875 90.703125 102.253906 C 90.625 102.496094 90.625 102.863281 90.746094 103.3125 C 90.988281 104.25 91.152344 105.308594 91.355469 106.410156 C 92.007812 110.238281 92.785156 114.722656 96.453125 116.394531 C 99.265625 117.65625 103.140625 120.140625 106.359375 123.15625 C 108.847656 125.480469 110.96875 128.128906 111.863281 130.820312 C 112.597656 133.058594 111.988281 135.710938 110.84375 138.195312 C 108.804688 142.597656 105.097656 146.589844 104.363281 147.242188 C 104.199219 147.40625 103.914062 147.8125 103.585938 148.261719 C 102.894531 149.238281 101.996094 150.542969 100.9375 151.195312 C 99.632812 152.011719 98.207031 151.886719 96.859375 149.359375 C 95.597656 146.996094 94.984375 145.367188 94.457031 143.941406 C 93.804688 142.230469 93.3125 140.925781 91.96875 139.089844 C 90.746094 137.421875 89.644531 136.199219 88.460938 135.261719 C 87.28125 134.363281 85.976562 133.753906 84.304688 133.265625 C 83.242188 132.9375 81.695312 132.695312 80.023438 132.449219 C 76.355469 131.839844 71.949219 131.144531 69.625 129.394531 C 68.199219 128.332031 66.242188 125.03125 64.367188 121.121094 C 61.675781 115.617188 59.066406 108.9375 58.171875 105.921875 C 57.355469 103.191406 57.027344 100.296875 57.394531 97.484375 C 57.722656 94.917969 58.617188 92.429688 60.207031 90.148438 C 62.207031 87.335938 63.023438 85.21875 63.757812 83.425781 C 64.203125 82.285156 64.613281 81.304688 65.222656 80.328125 C 66.078125 78.902344 66.976562 77.964844 67.832031 77.027344 C 68.527344 76.253906 69.261719 75.519531 69.953125 74.460938 C 70.644531 73.480469 71.011719 72.015625 71.136719 70.386719 C 71.257812 68.46875 71.054688 66.308594 70.644531 64.515625 C 70.277344 62.847656 69.464844 61.175781 68.527344 59.789062 C 67.589844 58.445312 66.570312 57.46875 65.671875 57.183594 C 64.449219 56.816406 61.511719 55.878906 59.269531 54.941406 C 57.804688 54.289062 56.621094 53.636719 56.335938 53.105469 C 56.253906 52.902344 56.171875 52.699219 56.171875 52.453125 C 56.171875 51.84375 56.5 51.027344 57.027344 50.292969 C 57.519531 49.5625 58.253906 48.828125 59.066406 48.296875 C 59.761719 47.851562 60.574219 47.523438 61.351562 47.523438 C 61.71875 47.523438 62.164062 47.5625 62.613281 47.605469 C 63.023438 47.644531 63.429688 47.644531 63.835938 47.6875 C 66.203125 47.769531 68.8125 47.238281 68.933594 42.144531 C 68.972656 41.371094 68.933594 40.636719 68.851562 39.902344 C 69.707031 38.964844 70.929688 37.703125 72.15625 36.480469 C 73.621094 35.011719 75.128906 33.585938 76.066406 32.894531 C 76.558594 32.527344 77.007812 32.121094 77.496094 31.628906 C 79.574219 29.550781 82.589844 26.578125 88.175781 33.585938 C 91.5625 37.785156 96.453125 41.328125 101.34375 43.976562 C 107.785156 47.484375 114.308594 49.5625 117.613281 49.601562 C 122.054688 49.683594 123.933594 47.6875 126.378906 45.078125 C 127.273438 44.140625 128.253906 43.121094 129.4375 42.105469 C 131.3125 40.554688 133.472656 39.945312 135.511719 40.105469 C 137.753906 40.3125 139.832031 41.410156 141.257812 43.121094 C 142.6875 44.875 144.886719 46.382812 147.171875 47.484375 C 150.066406 48.910156 153.164062 49.765625 155.078125 49.96875 C 156.589844 50.089844 158.136719 52.984375 159.566406 55.550781 C 160.503906 57.261719 161.398438 58.851562 162.296875 59.789062 C 164.539062 62.03125 172.242188 62.96875 175.585938 63.417969 L 176.648438 63.539062 C 176.972656 63.578125 177.382812 64.273438 177.789062 65.046875 C 178.847656 66.878906 179.988281 68.917969 182.925781 68.226562 C 186.472656 67.371094 187.777344 65.941406 189.449219 64.191406 L 190.101562 63.539062 C 191.039062 62.5625 191.730469 62.277344 192.875 61.867188 C 193.8125 61.5 194.992188 61.011719 196.789062 60.035156 C 198.09375 59.300781 198.949219 58.078125 199.558594 56.652344 C 200.253906 57.996094 200.988281 59.503906 201.722656 61.054688 C 205.554688 68.957031 209.914062 78.453125 211.871094 83.019531 C 213.828125 87.621094 222.308594 103.84375 230.953125 119.246094 C 237.3125 130.617188 243.753906 141.535156 247.707031 146.996094 C 253.457031 154.945312 255.945312 156.777344 258.390625 158.121094 C 258.144531 158.367188 257.820312 158.570312 257.492188 158.734375 C 256.351562 159.386719 254.925781 159.710938 253.375 159.304688 C 252.847656 159.140625 252.316406 158.9375 251.785156 158.652344 C 250.601562 158 249.300781 157.390625 247.996094 157.0625 C 245.996094 156.53125 243.957031 156.410156 242.082031 157.105469 C 240.164062 157.753906 238.453125 159.261719 237.230469 161.789062 C 236.78125 162.726562 236.375 163.867188 236.089844 165.171875 C 235.761719 166.597656 235.4375 168.3125 235.070312 170.226562 C 234.132812 175.484375 233.359375 182.167969 233.683594 187.789062 C 234.050781 193.820312 235.640625 198.628906 239.636719 199.730469 L 239.679688 199.730469 L 239.960938 199.8125 L 240.003906 199.8125 C 241.511719 200.136719 242.652344 200.625 243.507812 201.238281 C 244.570312 202.011719 245.179688 202.949219 245.464844 203.96875 C 245.753906 205.027344 245.753906 206.167969 245.589844 207.1875 C 245.382812 208.371094 244.976562 209.386719 244.527344 210.121094 C 243.917969 211.140625 242.203125 212.078125 240.328125 213.136719 C 237.558594 214.644531 234.417969 216.394531 232.828125 219.371094 C 230.667969 223.40625 233.070312 227.074219 235.519531 230.824219 C 236.375 232.125 237.191406 233.429688 237.84375 234.734375 C 239.554688 238.320312 235.925781 241.296875 233.722656 243.089844 L 233.113281 243.578125 C 232.746094 243.863281 232.257812 244.230469 231.726562 244.636719 C 228.792969 246.757812 224.632812 249.773438 226.058594 254.824219 C 226.222656 255.800781 226.550781 257.269531 226.957031 258.941406 Z M 226.957031 258.941406 " fill-opacity="1" fill-rule="nonzero"/></g><g clip-path="url(#id3)"><path stroke-linecap="butt" transform="matrix(1.62716, 0, 0, 1.626424, 26.186285, 0.0734771)" fill="none" stroke-linejoin="round" d="M 123.387237 159.163868 C 122.410171 158.938104 121.45711 158.15994 120.732112 157.134396 C 119.927893 155.98156 119.354136 154.427633 119.303722 152.900126 C 119.277315 151.922617 119.428557 150.894671 119.579798 149.869128 C 119.903886 147.786818 120.254382 145.582019 119.00124 143.430059 C 118.225828 142.051459 117.275169 140.922641 116.295701 139.995568 C 114.944132 138.693824 113.590162 137.817189 112.663509 137.339242 C 111.936111 136.964571 110.534128 136.613916 109.230572 136.513043 C 108.579994 136.462607 107.97743 136.489026 107.478093 136.587497 C 107.050777 136.68837 106.724288 136.863697 106.625861 137.11588 C 106.599454 137.163915 106.575447 137.240771 106.575447 137.315225 C 106.525033 138.016533 106.949949 139.01806 107.5021 139.971551 C 108.203091 141.198841 109.156152 142.325258 109.756315 142.752768 C 110.35888 143.153859 110.90863 143.855167 111.335947 144.606912 C 111.784869 145.409094 112.087352 146.336166 112.111359 147.037475 C 112.111359 147.186383 112.137766 147.388129 112.161772 147.587473 C 112.212186 147.988564 112.236193 148.490528 112.212186 148.942056 C 112.111359 150.169346 111.38396 151.271745 108.529581 150.945108 C 106.349785 150.695327 104.618913 150.294236 103.392178 149.741836 C 102.115029 149.191837 101.31321 148.440092 101.037135 147.513019 C 100.787467 146.710838 100.36015 145.98311 99.860814 145.332238 C 99.383083 144.681366 98.833333 144.104948 98.38201 143.653421 C 97.90668 143.177876 97.479363 142.551021 97.428949 141.799276 C 97.378536 141.07395 97.681018 140.247751 98.682092 139.395133 C 99.534324 138.667405 100.211309 137.891643 100.737053 137.11588 C 101.31321 136.263262 101.690113 135.46108 101.889367 134.733353 C 102.115029 133.883136 102.415111 130.097992 102.290277 126.591449 C 102.215857 124.360231 101.990195 122.256305 101.462051 121.177923 C 100.761059 119.700852 98.206762 116.693872 95.323575 113.787765 C 92.66845 111.107421 89.737249 108.525549 87.732702 107.348696 C 84.676667 105.569005 81.64464 102.437134 79.664099 100.407663 C 78.888687 99.6319 78.31253 99.005046 77.935627 98.704828 L 77.935627 98.678409 C 77.03298 97.926664 74.253021 98.202864 71.972399 98.40461 C 71.045745 98.479064 70.21992 98.553518 69.593349 98.553518 C 68.364213 98.553518 66.635741 97.7009 65.257765 96.298283 C 64.10545 95.145447 63.202804 93.617939 63.00355 91.888685 C 62.67706 89.282796 63.327638 88.932142 64.179871 88.432579 C 64.530366 88.206816 64.957683 87.981052 65.308179 87.479088 C 66.184418 86.201361 64.856856 83.669926 64.10545 82.216872 C 63.954209 81.943074 63.855782 81.71731 63.754955 81.541983 C 63.478879 80.965565 62.12491 79.310765 60.521272 77.507057 C 58.718379 75.453568 56.613005 73.22235 55.335856 72.019078 C 53.883459 70.666897 50.925852 68.613408 48.419567 66.884154 C 46.765516 65.755336 45.339526 64.75381 44.662542 64.177392 C 43.834315 63.476083 42.357912 62.748355 41.155184 62.498574 C 40.754274 62.42412 40.377371 62.397701 40.101296 62.474557 C 39.875634 62.522592 39.726794 62.649884 39.649973 62.825211 C 39.60196 62.974119 39.60196 63.199883 39.67638 63.476083 C 39.825221 64.052501 39.926048 64.703373 40.050882 65.380664 C 40.451792 67.734371 40.929522 70.49157 43.183738 71.519515 C 44.91221 72.295278 47.29366 73.822786 49.2718 75.67693 C 50.801018 77.105966 52.104574 78.734347 52.654324 80.389147 C 53.105647 81.765345 52.731145 83.396127 52.027753 84.923635 C 50.77461 87.630398 48.496388 90.084978 48.045065 90.486068 C 47.944238 90.586942 47.76899 90.836723 47.567335 91.112923 C 47.142419 91.713358 46.590268 92.51554 45.93969 92.916631 C 45.137871 93.418595 44.261632 93.341739 43.433406 91.787812 C 42.657994 90.334759 42.281091 89.333232 41.957003 88.456597 C 41.556093 87.404634 41.253611 86.602452 40.427785 85.473634 C 39.67638 84.44809 38.999395 83.696345 38.271997 83.119927 C 37.546999 82.567527 36.74518 82.192855 35.717699 81.892637 C 35.064721 81.690891 34.114061 81.541983 33.086581 81.390673 C 30.832365 81.016001 28.124426 80.588491 26.696036 79.512511 C 25.819796 78.859238 24.617068 76.829766 23.464753 74.425623 C 21.810702 71.041569 20.207064 66.934591 19.657314 65.080446 C 19.155577 63.401629 18.953922 61.621939 19.179583 59.892685 C 19.381238 58.31474 19.930989 56.784831 20.908055 55.382214 C 22.137191 53.65296 22.638928 52.351216 23.090251 51.248817 C 23.363926 50.547508 23.615995 49.944671 23.990497 49.344236 C 24.516241 48.4676 25.068391 47.891182 25.594135 47.314764 C 26.021452 46.839219 26.472775 46.387692 26.897691 45.73682 C 27.322607 45.133983 27.548268 44.23333 27.625089 43.231804 C 27.69951 42.052549 27.574676 40.724385 27.322607 39.621986 C 27.096945 38.596442 26.597609 37.568497 26.021452 36.715879 C 25.445294 35.88968 24.818723 35.289244 24.266572 35.113917 C 23.515167 34.888154 21.709874 34.311736 20.331898 33.735318 C 19.431652 33.334227 18.704254 32.933136 18.529006 32.606499 C 18.478592 32.481609 18.428178 32.356718 18.428178 32.205408 C 18.428178 31.830737 18.629833 31.328773 18.953922 30.877245 C 19.256404 30.42812 19.707728 29.976592 20.207064 29.649955 C 20.634381 29.376157 21.133717 29.17441 21.611447 29.17441 C 21.837109 29.17441 22.110784 29.198428 22.386859 29.224847 C 22.638928 29.248864 22.888596 29.248864 23.138264 29.275284 C 24.593061 29.32572 26.196699 28.999083 26.27112 25.867212 C 26.295126 25.391668 26.27112 24.94014 26.220706 24.488613 C 26.746449 23.912195 27.497855 23.136432 28.25166 22.384687 C 29.151906 21.481632 30.078559 20.604997 30.654717 20.179888 C 30.957199 19.954125 31.233275 19.704344 31.533357 19.401724 C 32.810505 18.123998 34.663811 16.296272 38.096749 20.604997 C 40.178117 23.186869 43.183738 25.365248 46.189358 26.993629 C 50.148039 29.150393 54.157134 30.42812 56.188089 30.452137 C 58.917634 30.502573 60.072349 29.275284 61.57516 27.67092 C 62.12491 27.094502 62.727474 26.467648 63.454873 25.843195 C 64.607187 24.889704 65.93475 24.515032 67.187892 24.613503 C 68.565868 24.740796 69.843017 25.415685 70.719256 26.467648 C 71.597896 27.54603 72.949465 28.473102 74.353849 29.150393 C 76.132735 30.027029 78.036454 30.55301 79.212776 30.677901 C 80.141829 30.752355 81.092489 32.532045 81.971129 34.109989 C 82.547286 35.161952 83.097036 36.139461 83.649187 36.715879 C 85.027163 38.094478 89.761256 38.670896 91.816217 38.947097 L 92.469195 39.021551 C 92.66845 39.045568 92.920518 39.473078 93.170187 39.948623 C 93.820764 41.07504 94.521756 42.328749 96.327049 41.903641 C 98.506844 41.377659 99.308663 40.498622 100.336143 39.422642 L 100.737053 39.021551 C 101.31321 38.421115 101.738126 38.245788 102.441518 37.993605 C 103.017675 37.767842 103.742673 37.467624 104.846975 36.867189 C 105.648794 36.415661 106.174537 35.663916 106.54904 34.78728 C 106.976356 35.613479 107.42768 36.540552 107.879003 37.494043 C 110.234046 42.352766 112.913177 48.1914 114.115906 50.999036 C 115.318634 53.828287 120.530457 63.80272 125.843108 73.272787 C 129.751375 80.264256 133.710056 86.977124 136.139519 90.334759 C 139.673284 95.222303 141.202502 96.348719 142.705312 97.174919 C 142.554071 97.326228 142.354817 97.451119 142.153162 97.551992 C 141.45217 97.953083 140.575931 98.152427 139.622871 97.902646 C 139.298782 97.801773 138.972293 97.676883 138.645804 97.501555 C 137.918405 97.100465 137.118987 96.725793 136.317168 96.524047 C 135.088032 96.19741 133.83489 96.122956 132.682576 96.550466 C 131.503854 96.949155 130.452367 97.876227 129.700961 99.430154 C 129.424886 100.006572 129.175218 100.70788 128.99997 101.510062 C 128.798315 102.386698 128.599061 103.441062 128.373399 104.617916 C 127.797242 107.85066 127.321912 111.960039 127.521166 115.416146 C 127.746828 119.124434 128.723895 122.080978 131.179765 122.758269 L 131.206172 122.758269 L 131.37902 122.808706 L 131.405427 122.808706 C 132.33208 123.008051 133.033071 123.308268 133.558815 123.685342 C 134.211793 124.160886 134.586295 124.737304 134.761543 125.364159 C 134.939192 126.015031 134.939192 126.716339 134.838364 127.343194 C 134.711129 128.070922 134.461461 128.695374 134.185386 129.146902 C 133.810884 129.773756 132.756996 130.350174 131.604681 131.001046 C 129.902616 131.928119 127.972489 133.004099 126.995423 134.834226 C 125.66786 137.315225 127.144263 139.57046 128.649474 141.876132 C 129.175218 142.675912 129.676955 143.478094 130.077864 144.280275 C 131.129351 146.485074 128.899142 148.315201 127.545173 149.4176 L 127.170671 149.717818 C 126.945009 149.893145 126.644927 150.118909 126.318438 150.36869 C 124.515546 151.672836 121.958847 153.52698 122.835087 156.632432 C 122.935914 157.232867 123.137569 158.135922 123.387237 159.163868 Z M 123.387237 159.163868 " stroke="rgb(100%, 100%, 100%)" stroke-width="0.5" stroke-opacity="1" stroke-miterlimit="10"/></g></svg>