<svg xmlns="http://www.w3.org/2000/svg" xmlns:xlink="http://www.w3.org/1999/xlink" width="624" zoomAndPan="magnify" viewBox="0 0 468 308.250004" height="411" preserveAspectRatio="xMidYMid meet" version="1.0"><defs><clipPath id="id1"><path d="M 0.566406 0 L 467.429688 0 L 467.429688 307.5 L 0.566406 307.5 Z M 0.566406 0 " clip-rule="nonzero"/></clipPath></defs><g clip-path="url(#id1)"><path fill="rgb(100%, 100%, 100%)" d="M 0.566406 0 L 467.433594 0 L 467.433594 307.5 L 0.566406 307.5 Z M 0.566406 0 " fill-opacity="1" fill-rule="nonzero"/><path fill="rgb(100%, 100%, 100%)" d="M 0.566406 0 L 467.433594 0 L 467.433594 307.5 L 0.566406 307.5 Z M 0.566406 0 " fill-opacity="1" fill-rule="nonzero"/><path fill="rgb(100%, 100%, 100%)" d="M 0.566406 0 L 467.433594 0 L 467.433594 307.5 L 0.566406 307.5 Z M 0.566406 0 " fill-opacity="1" fill-rule="nonzero"/></g><path stroke-linecap="butt" transform="matrix(2.418534, 0, 0, 2.421253, 77.82781, 0.00148622)" fill-opacity="1" fill="rgb(17.248535%, 44.309998%, 94.119263%)" fill-rule="evenodd" stroke-linejoin="round" d="M 21.810862 63.007514 C 21.260102 61.703954 21.098589 60.443952 20.216728 59.198471 C 19.342942 57.944923 16.986465 56.817214 17.265883 59.798625 C 17.530764 62.773583 18.02984 63.901292 18.682353 64.912843 C 19.342942 65.916326 20.92254 66.692332 21.47976 65.806621 C 22.02406 64.912843 21.810862 63.007514 21.810862 63.007514 Z M 21.810862 63.007514 " stroke="rgb(100%, 100%, 100%)" stroke-width="0.2" stroke-opacity="1" stroke-miterlimit="10"/><path stroke-linecap="butt" transform="matrix(2.418534, 0, 0, 2.421253, 77.82781, 0.00148622)" fill-opacity="1" fill="rgb(17.248535%, 44.309998%, 94.119263%)" fill-rule="evenodd" stroke-linejoin="round" d="M 27.38468 56.52359 C 27.38468 56.039595 26.569039 54.435957 26.569039 54.435957 C 25.688792 53.306634 24.815006 51.578771 24.264247 51.460999 " stroke="rgb(100%, 100%, 100%)" stroke-width="0.2" stroke-opacity="1" stroke-miterlimit="10"/><path stroke-linecap="butt" transform="matrix(2.418534, 0, 0, 2.421253, 77.82781, 0.00148622)" fill-opacity="1" fill="rgb(17.248535%, 44.309998%, 94.119263%)" fill-rule="evenodd" stroke-linejoin="round" d="M 35.114698 84.495295 C 34.071323 82.943283 33.748297 82.349582 32.383511 81.513883 C 31.01065 80.678185 29.306686 79.074547 29.153249 80.386174 C 28.98366 81.697802 29.967275 82.891657 30.907281 83.719289 C 31.839212 84.546921 32.764682 85.500392 33.976031 86.634554 C 35.172843 87.77033 36.435875 88.481803 36.825122 88.005874 C 37.199832 87.528332 35.114698 84.495295 35.114698 84.495295 Z M 35.114698 84.495295 " stroke="rgb(100%, 100%, 100%)" stroke-width="0.2" stroke-opacity="1" stroke-miterlimit="10"/><path stroke-linecap="butt" transform="matrix(2.418534, 0, 0, 2.421253, 77.82781, 0.00148622)" fill-opacity="1" fill="rgb(17.248535%, 44.309998%, 94.119263%)" fill-rule="evenodd" stroke-linejoin="round" d="M 31.671238 68.779966 C 30.621403 67.886188 28.000045 65.8647 28.382831 67.116635 C 28.772078 68.370183 29.645864 69.021963 30.45989 70.327137 C 31.281992 71.630698 31.45158 72.282479 32.824442 73.718332 C 34.189228 75.147731 34.630159 75.981816 35.826971 76.217361 C 37.031859 76.459359 38.067158 76.217361 37.530934 75.26389 C 37.501862 75.23485 31.840827 68.934844 31.671238 68.779966 Z M 31.671238 68.779966 " stroke="rgb(100%, 100%, 100%)" stroke-width="0.2" stroke-opacity="1" stroke-miterlimit="10"/><path stroke-linecap="butt" transform="matrix(2.418534, 0, 0, 2.421253, 77.82781, 0.00148622)" fill-opacity="1" fill="rgb(17.248535%, 44.309998%, 94.119263%)" fill-rule="evenodd" stroke-linejoin="round" d="M 74.666031 109.779212 C 71.377624 109.185511 67.801724 108.651503 66.766424 109.419442 C 65.724665 110.197061 69.512147 112.278241 70.665351 112.094323 C 71.802404 111.918471 74.548127 112.094323 76.142261 112.218548 C 77.72832 112.336321 78.330764 110.848842 77.515123 110.439059 C 76.684945 110.027663 74.666031 109.779212 74.666031 109.779212 Z M 74.666031 109.779212 " stroke="rgb(100%, 100%, 100%)" stroke-width="0.2" stroke-opacity="1" stroke-miterlimit="10"/><path stroke-linecap="butt" transform="matrix(2.418534, 0, 0, 2.421253, 77.82781, 0.00148622)" fill-opacity="1" fill="rgb(17.248535%, 44.309998%, 94.119263%)" fill-rule="evenodd" stroke-linejoin="round" d="M 76.684945 115.083801 C 75.208715 115.201573 72.74241 114.783724 71.802404 115.55973 C 70.876933 116.337349 72.301479 119.068696 73.732485 118.710539 C 75.150571 118.358836 77.778389 118.234611 79.430668 118.00068 C 81.068411 117.758682 82.874128 117.171434 82.652855 116.453508 C 82.447733 115.743648 81.184701 114.79179 80.194625 114.79179 C 79.202935 114.783724 76.684945 115.083801 76.684945 115.083801 Z M 76.684945 115.083801 " stroke="rgb(100%, 100%, 100%)" stroke-width="0.2" stroke-opacity="1" stroke-miterlimit="10"/><path stroke-linecap="butt" transform="matrix(2.418534, 0, 0, 2.421253, 77.82781, 0.00148622)" fill-opacity="1" fill="rgb(17.248535%, 44.309998%, 94.119263%)" fill-rule="evenodd" stroke-linejoin="round" d="M 74.995518 121.025651 C 73.945683 120.849799 69.901394 121.209569 70.825249 122.395357 C 71.758795 123.589213 75.208715 124.17646 75.759475 123.700532 C 76.310235 123.222989 77.235705 121.73551 77.235705 121.73551 Z M 74.995518 121.025651 " stroke="rgb(100%, 100%, 100%)" stroke-width="0.2" stroke-opacity="1" stroke-miterlimit="10"/><path stroke-linecap="butt" transform="matrix(2.418534, 0, 0, 2.421253, 77.82781, 0.00148622)" fill-opacity="1" fill="rgb(17.248535%, 44.309998%, 94.119263%)" fill-rule="evenodd" stroke-linejoin="round" d="M 58.498568 111.215065 C 56.355289 112.042697 56.032262 111.926538 55.819065 112.996168 C 55.599407 114.065797 55.429818 116.21151 56.744535 116.21151 C 58.057637 116.21151 59.974798 116.335736 60.304284 115.14188 C 60.627311 113.954478 61.567317 114.432021 61.619001 113.654401 C 61.685222 112.878395 61.17807 111.450609 60.804975 111.274758 C 60.415728 111.097293 58.498568 111.215065 58.498568 111.215065 Z M 58.498568 111.215065 " stroke="rgb(100%, 100%, 100%)" stroke-width="0.2" stroke-opacity="1" stroke-miterlimit="10"/><path stroke-linecap="butt" transform="matrix(2.418534, 0, 0, 2.421253, 77.82781, 0.00148622)" fill-opacity="1" fill="rgb(17.248535%, 44.309998%, 94.119263%)" fill-rule="evenodd" stroke-linejoin="round" d="M 90.326343 121.091797 C 88.359114 120.614254 86.170611 120.256098 85.671535 120.914332 C 85.17892 121.567725 85.245141 123.948982 86.611542 124.123221 C 87.976328 124.300686 88.791969 124.066755 90.106686 124.542683 C 91.434323 125.018612 94.22527 124.90084 94.548296 124.123221 C 94.871323 123.347215 95.64174 121.207955 95.208885 121.091797 C 94.761494 120.974024 93.167359 121.033717 92.792649 121.149876 C 92.417938 121.274101 90.326343 121.091797 90.326343 121.091797 Z M 90.326343 121.091797 " stroke="rgb(100%, 100%, 100%)" stroke-width="0.2" stroke-opacity="1" stroke-miterlimit="10"/><path stroke-linecap="butt" transform="matrix(2.418534, 0, 0, 2.421253, 77.82781, 0.00148622)" fill-opacity="1" fill="rgb(17.248535%, 44.309998%, 94.119263%)" fill-rule="evenodd" stroke-linejoin="round" d="M 67.20574 103.859949 C 66.083224 103.243661 65.259507 102.254697 64.886412 103.119436 C 64.497165 103.984174 64.584382 104.877952 65.319267 105.053804 C 66.052536 105.237722 66.023464 105.089297 67.124984 105.860463 C 68.226503 106.636469 69.54122 107.112397 70.582979 106.928479 C 71.626354 106.746174 72.330551 105.558772 71.626354 105.200616 C 70.914081 104.848913 69.371631 104.782767 68.938776 104.673061 C 68.491385 104.547222 67.20574 103.859949 67.20574 103.859949 Z M 67.20574 103.859949 " stroke="rgb(100%, 100%, 100%)" stroke-width="0.2" stroke-opacity="1" stroke-miterlimit="10"/><path stroke-linecap="butt" transform="matrix(2.418534, 0, 0, 2.421253, 77.82781, 0.00148622)" fill-opacity="1" fill="rgb(17.248535%, 44.309998%, 94.119263%)" fill-rule="nonzero" stroke-linejoin="round" d="M 59.335206 80.49588 C 58.571249 79.374624 58.608397 78.77447 58.681078 77.791959 C 58.718226 77.257951 58.747298 76.575517 58.697229 75.557514 C 58.637469 74.341072 57.792755 73.828037 56.912509 73.294029 C 55.980578 72.714848 54.922667 72.069521 55.202085 70.509442 C 55.657552 67.900707 54.570569 66.464855 54.21847 66.098631 C 54.086029 65.959886 53.469049 65.761448 52.961898 65.600116 C 51.332231 65.088694 48.872386 64.304622 48.1908 62.055657 C 47.271791 59.006486 49.570122 50.844711 50.847691 50.039666 C 52.220553 49.174927 56.49419 51.380333 58.256298 53.461513 C 58.777985 54.076187 59.173693 54.589222 59.511255 55.021591 C 60.326896 56.054115 60.730679 56.581669 61.633537 57.051145 C 62.074468 56.926919 62.184297 54.860259 62.235981 53.974548 C 62.27959 53.196929 62.316738 52.472549 62.433027 51.995007 C 62.536396 51.490038 62.882034 51.080256 63.439254 50.735006 C 64.62153 50.025146 66.729276 49.805735 67.617599 50.120331 C 68.431625 50.420409 71.88316 49.841228 72.887772 48.750625 C 73.908535 47.650342 75.304008 48.86033 76.324771 49.746042 C 76.714018 50.068705 77.103264 50.413955 77.30031 50.478488 C 77.616876 50.589807 78.644099 50.604327 79.643866 50.6253 C 81.192776 50.662406 82.932273 50.691446 83.930424 51.01411 C 84.510256 51.204481 85.149848 51.564251 85.744216 51.914341 C 86.727831 52.479002 87.748594 53.058183 88.079696 52.596774 C 88.665989 51.790115 89.502627 51.314187 90.222975 51.365813 C 90.759199 51.402919 91.214666 51.702996 91.507004 52.222485 C 92.028692 53.145302 93.254576 54.214932 93.651899 54.289145 C 94.254343 53.73255 97.374776 52.046633 98.116121 52.398336 C 98.246947 52.464482 98.497292 52.603228 98.797707 52.772626 C 99.165957 52.992037 99.936374 53.438926 100.377305 53.629298 C 100.458062 53.130783 100.648647 52.464482 101.265627 52.046633 C 101.984361 51.556184 103.07942 51.578771 104.49589 52.149885 C 106.374287 52.888785 107.198004 53.467966 107.587251 53.768043 C 107.953886 53.321154 108.709767 53.248555 109.032793 53.234035 C 110.237681 53.175955 111.867348 53.651884 112.755671 55.124843 C 113.049625 55.621745 113.298355 56.113807 113.534164 56.581669 C 114.296506 58.091735 114.876338 59.28559 117.050305 60.187435 C 119.180663 61.06508 120.427544 59.403362 120.845863 58.669303 C 120.002764 57.893297 119.3341 56.420338 119.3341 53.695444 C 119.3341 52.530628 121.089748 51.849808 123.937224 50.844711 C 125.127576 50.420409 126.35346 49.996106 127.175562 49.549217 C 126.53597 49.416925 125.324622 49.342712 124.450836 49.292699 C 122.446458 49.168474 121.183425 49.073288 120.640741 48.721585 C 119.847712 48.215003 118.511998 47.145373 118.452238 45.709521 C 118.423166 44.764116 118.936778 43.863885 120.009225 43.028186 C 120.597133 42.573231 120.897547 42.302193 121.036448 42.148928 C 120.926619 42.119888 120.795794 42.082782 120.663353 42.045676 C 120.112593 41.900477 119.356712 41.710106 118.6509 41.218044 C 117.402403 40.332332 116.425249 37.855889 115.412561 35.232634 C 114.789121 33.643516 114.149529 32.001159 113.424335 30.645972 C 113.064161 29.987738 112.710447 29.636035 112.3212 29.569889 C 111.52171 29.445663 110.405655 30.529813 109.136162 31.796267 C 108.305984 32.631966 107.351442 33.59189 106.28707 34.361443 C 103.292617 36.552328 97.557286 35.027743 94.142899 34.125898 C 93.372481 33.914554 92.703817 33.745155 92.241889 33.64997 C 90.554077 33.335373 89.54785 32.185077 88.659528 31.173527 C 88.129765 30.573373 87.638765 30.016778 87.065394 29.686048 C 86.545321 29.385971 85.913805 29.195599 85.251601 28.990708 C 83.915888 28.580925 82.404125 28.119516 81.258997 26.602997 L 81.11202 26.419079 C 79.869984 24.792855 79.869984 24.792855 76.119649 21.817897 L 73.989291 20.133593 C 69.988611 16.939223 64.136991 9.187231 60.443186 4.000414 C 60.517482 5.589532 60.598238 8.022416 60.370505 9.259831 C 60.260676 9.847078 60.281673 10.389153 60.289748 10.997374 C 60.296209 12.228335 60.333357 13.612562 59.474107 15.890567 C 58.564788 18.257304 56.750996 17.495818 55.664012 17.048929 C 54.76923 16.682706 54.52696 16.637533 54.430052 16.858558 C 53.930977 18.089519 52.74224 18.470262 51.5745 18.842939 C 51.002744 19.03331 50.40676 19.217228 49.922221 19.510852 C 49.452218 19.788343 48.770632 19.957741 48.06482 20.140046 C 46.002298 20.646628 44.563216 21.151596 44.710193 23.005299 C 44.820021 24.404045 45.290025 24.829961 45.832709 25.33493 C 46.472301 25.914111 47.19911 26.565891 47.066669 28.676111 C 46.882544 31.730121 44.782873 32.448048 43.527917 32.873964 C 43.212966 32.983669 42.919012 33.086922 42.772035 33.188561 C 42.440933 33.422492 41.794881 33.554784 40.649753 33.774195 C 39.158987 34.053299 36.376115 34.595374 36.376115 35.555298 C 36.376115 36.155452 36.868731 36.529742 37.66176 37.086337 C 38.638914 37.775223 39.871259 38.631895 39.945555 40.537224 C 39.989164 41.731079 39.680674 42.581297 39.026546 43.079812 C 37.866882 43.965524 36.11931 43.357303 35.429649 43.050773 C 33.858126 42.368339 31.135015 42.082782 29.482735 42.808775 C 27.455746 43.702553 24.593733 40.127441 22.316398 36.895965 C 21.943303 36.360344 21.730106 36.155452 21.626737 36.082853 C 21.508833 36.390997 21.442612 37.328334 21.407079 38.023674 C 21.332783 39.027158 21.274639 40.156481 21.032369 41.197071 C 20.694807 42.691003 20.2458 43.446036 19.599748 43.621887 C 19.504455 43.64286 19.417238 43.658994 19.328406 43.658994 C 18.595136 43.658994 17.868327 42.895894 17.207738 42.105368 L 16.891173 41.731079 C 16.626291 41.408415 16.259656 40.969593 16.149827 40.969593 C 15.965702 40.976046 15.334186 41.885957 14.996624 42.368339 C 14.424867 43.174998 13.741667 43.599301 13.000321 43.562194 C 11.406187 43.518635 9.447033 41.563294 6.817599 37.409 C 5.107175 34.70508 4.167169 33.819368 3.719777 33.525744 C 4.086412 34.235604 4.36583 35.145515 4.535419 35.936041 C 4.827757 37.357374 4.373906 37.855889 3.647097 38.654482 C 3.177093 39.15945 2.574649 39.819297 2.03035 41.050259 C 0.930446 43.541221 1.686327 46.185449 2.09011 47.577743 C 2.141794 47.761661 2.191863 47.929446 2.222551 48.047218 C 2.33884 48.51508 2.721626 49.373365 3.19809 50.449448 C 3.924899 52.075673 4.858445 54.193959 5.554567 56.420338 C 6.105326 58.201441 6.494573 59.146845 6.943579 59.643747 C 7.339287 60.084182 7.838362 60.171302 8.639467 60.222928 C 9.542325 60.282621 9.923496 59.417882 10.349891 58.449891 C 10.621233 57.827151 10.915187 57.160851 11.370654 56.581669 C 11.517631 56.399365 11.69368 56.17834 11.86973 55.952475 C 12.824272 54.742487 13.652834 53.71803 14.189058 51.856261 C 14.739818 49.936413 16.267732 48.705452 18.102521 47.219586 C 18.58706 46.82271 19.094211 46.404861 19.585211 45.988625 C 20.943537 44.823809 22.287326 44.867369 23.51321 45.423963 C 24.67449 45.951518 25.693638 46.932415 26.486667 47.731008 C 26.743473 47.995592 27.074575 48.281149 27.44121 48.589293 C 29.329298 50.192931 32.060485 52.508042 31.091406 56.625229 C 30.671472 58.406332 30.811988 60.392326 31.207696 62.237962 C 31.81014 65.029002 32.977879 67.484471 33.644929 68.444396 C 34.555863 69.75441 39.769506 73.792544 42.544302 75.938257 C 43.167742 76.428705 43.68943 76.817515 43.975308 77.051446 C 44.496995 77.469296 44.996071 77.711293 45.459613 77.930704 C 46.464225 78.422766 47.323475 78.832549 48.006675 80.568479 C 48.219873 81.125074 48.255406 81.586483 48.139116 81.946253 C 48.021212 82.320542 47.74987 82.554473 47.389695 82.664179 C 47.095741 82.759365 46.729107 82.751298 46.296251 82.649659 C 45.180196 82.385075 43.556989 81.375138 41.941858 79.573062 C 40.950167 78.451806 39.974628 78.114623 39.167062 78.238848 L 39.158987 78.238848 C 38.792352 78.290474 38.446714 78.458259 38.160835 78.685737 C 37.874957 78.919668 37.632688 79.221359 37.477635 79.558542 C 37.206293 80.15063 37.169145 80.868556 37.506707 81.476777 C 37.955714 82.304409 39.864799 84.364616 42.2132 86.766846 C 46.33986 90.964699 51.773161 96.122476 53.307536 97.551876 C 54.724006 98.884477 56.612094 98.768318 58.850666 98.636026 C 60.165383 98.55536 61.589929 98.460174 63.153376 98.636026 C 65.319267 98.878023 67.116908 99.244246 68.916164 99.807294 C 70.700884 100.386475 72.469453 101.162481 74.569123 102.248244 C 77.498971 103.756696 79.08503 105.360334 81.097484 107.397955 C 82.006803 108.314319 82.983957 109.309736 84.195305 110.401953 C 86.684223 112.658984 92.198281 116.498681 96.111743 119.238094 C 98.364852 120.798173 100.097887 122.006548 100.472598 122.372771 C 100.847308 122.747061 102.029584 123.765064 103.489663 124.849214 L 69.218194 90.254839 C 68.901628 89.888616 60.385041 82.070478 59.335206 80.49588 Z M 59.335206 80.49588 " stroke="rgb(100%, 100%, 100%)" stroke-width="0.2" stroke-opacity="1" stroke-miterlimit="10"/></svg>