<svg width="374" height="288" viewBox="0 0 374 288" fill="none" xmlns="http://www.w3.org/2000/svg">
<path d="M242.789 66.2711L241.222 57.6529C240.046 50.21 234.17 44.334 226.728 43.1588L218.109 41.5918L226.728 40.0249C234.17 38.8497 240.046 32.9737 241.222 25.5307L242.789 16.9126L244.356 25.5307C245.531 32.9737 251.407 38.8497 258.85 40.0249L267.468 41.5918L258.85 43.1588C251.407 44.334 245.531 50.21 244.356 57.6529L242.789 66.2711Z" fill="white" stroke="black" stroke-width="0.82" stroke-miterlimit="10" stroke-linejoin="round"/>
<path d="M355.088 209.735L353.951 203.479C353.098 198.077 348.833 193.812 343.431 192.959L337.176 191.822L343.431 190.685C348.833 189.832 353.098 185.567 353.951 180.165L355.088 173.91L356.226 180.165C357.078 185.567 361.343 189.832 366.746 190.685L373.001 191.822L366.746 192.959C361.343 193.812 357.078 198.077 356.226 203.479L355.088 209.735Z" fill="white" stroke="black" stroke-width="0.82" stroke-miterlimit="10" stroke-linejoin="round"/>
<path d="M298.19 255.042L297.588 251.731C297.136 248.871 294.879 246.613 292.019 246.161L288.707 245.559L292.019 244.957C294.879 244.506 297.136 242.248 297.588 239.388L298.19 236.076L298.792 239.388C299.244 242.248 301.502 244.506 304.362 244.957L307.673 245.559L304.362 246.161C301.502 246.613 299.244 248.871 298.792 251.731L298.19 255.042Z" fill="white" stroke="#FFA9C6" stroke-width="0.82" stroke-miterlimit="10" stroke-linejoin="round"/>
<path d="M337.174 121.211L334.9 108.7C333.194 97.8961 324.664 89.3664 313.86 87.6605L301.35 85.3859L313.86 83.1113C324.664 81.4053 333.194 72.8756 334.9 62.0713L337.174 49.561L339.449 62.0713C341.155 72.8756 349.685 81.4053 360.489 83.1113L372.999 85.3859L360.489 87.6605C349.685 89.3664 341.155 97.8961 339.449 108.7L337.174 121.211Z" fill="white" stroke="#FFA9C6" stroke-width="0.82" stroke-miterlimit="10" stroke-linejoin="round"/>
<path d="M166.303 52.8663C147.043 48.1541 126.772 49.84 108.55 57.6693C90.3289 65.4986 75.1471 79.0462 65.2974 96.2663C55.4478 113.486 51.4652 133.444 53.951 153.125C56.4368 172.806 65.2561 191.142 79.0771 205.363C85.0395 193.053 94.349 182.671 105.938 175.41C117.527 168.149 130.926 164.303 144.598 164.312C158.27 164.32 171.662 168.184 183.238 175.46C194.814 182.736 204.105 193.13 210.045 205.448C221.29 193.907 229.286 179.598 233.223 163.97C237.159 148.342 236.895 131.952 232.458 116.462C228.021 100.971 219.568 86.9305 207.957 75.7637C196.346 64.597 181.99 56.701 166.343 52.8764L166.303 52.8663ZM144.405 153.668C136.459 153.68 128.689 151.335 122.075 146.929C115.462 142.524 110.304 136.255 107.251 128.917C104.199 121.578 103.389 113.498 104.926 105.698C106.462 97.8978 110.275 90.728 115.883 85.0945C121.491 79.461 128.641 75.6167 136.431 74.0474C144.221 72.4781 152.301 73.2543 159.649 76.2779C166.997 79.3016 173.283 84.4368 177.714 91.0347C182.145 97.6327 184.521 105.397 184.541 113.347C184.553 118.631 183.525 123.865 181.514 128.752C179.503 133.638 176.549 138.081 172.822 141.825C169.095 145.57 164.666 148.543 159.79 150.575C154.915 152.607 149.686 153.658 144.405 153.668Z" fill="#9BCDFB" stroke="black" stroke-width="0.82" stroke-miterlimit="10"/>
<path d="M144.422 164.353C130.782 164.364 117.419 168.216 105.863 175.468C94.3064 182.721 85.0235 193.081 79.0761 205.364C87.5871 214.116 97.7637 221.073 109.006 225.827C120.249 230.58 132.329 233.033 144.535 233.041C156.741 233.049 168.826 230.611 180.077 225.873C191.328 221.134 201.517 214.189 210.044 205.449C204.094 193.104 194.776 182.695 183.164 175.423C171.553 168.151 158.122 164.314 144.422 164.353V164.353Z" fill="white" stroke="black" stroke-width="0.82" stroke-miterlimit="10"/>
<path d="M144.287 73.2691C136.336 73.2841 128.569 75.6581 121.966 80.0907C115.363 84.5233 110.223 90.8153 107.195 98.1706C104.166 105.526 103.387 113.614 104.954 121.412C106.522 129.209 110.366 136.366 116.001 141.976C121.635 147.586 128.807 151.398 136.608 152.929C144.41 154.46 152.49 153.641 159.828 150.576C167.165 147.511 173.429 142.338 177.828 135.711C182.227 129.084 184.563 121.302 184.539 113.347C184.508 102.693 180.252 92.488 172.704 84.9733C165.157 77.4586 154.936 73.249 144.287 73.2691V73.2691Z" fill="white" stroke="black" stroke-width="0.82" stroke-miterlimit="10"/>
<path d="M298.056 115.509L239.652 134.272C235.64 135.56 233.433 139.857 234.722 143.868L245.724 178.115C247.013 182.126 251.309 184.333 255.321 183.045L313.725 164.282C317.736 162.993 319.943 158.697 318.655 154.685L307.653 120.439C306.364 116.427 302.067 114.22 298.056 115.509Z" fill="#CFD8DC" stroke="black" stroke-width="0.82" stroke-miterlimit="10"/>
<path d="M309.273 125.363L236.502 149.109L240.335 160.856L313.107 137.11L309.273 125.363Z" fill="#607D8B" stroke="black" stroke-width="0.82" stroke-miterlimit="10"/>
<path d="M290.483 147.621H229.138C224.925 147.621 221.51 151.036 221.51 155.249V191.22C221.51 195.433 224.925 198.849 229.138 198.849H290.483C294.696 198.849 298.111 195.433 298.111 191.22V155.249C298.111 151.036 294.696 147.621 290.483 147.621Z" fill="#CFD8DC" stroke="black" stroke-width="0.82" stroke-miterlimit="10"/>
<circle cx="259.95" cy="172.55" r="15.089" fill="#7FDFB3" stroke="black" stroke-width="0.82"/>
<path d="M255.617 176.56C255.846 178.332 257.265 180.261 260.264 180.261C262.911 180.261 264.56 178.508 264.56 176.579C264.56 174.837 263.401 173.546 261.333 173.095L258.842 172.741C256.773 172.285 255.617 170.988 255.617 169.257C255.617 167.328 257.265 165.575 259.913 165.575C262.909 165.575 264.331 167.504 264.558 169.276" stroke="black" stroke-width="0.82"/>
<path d="M260.264 163.739V182.721" stroke="black" stroke-width="0.82"/>
<path d="M128.556 6.83708L130.191 11.8679C130.598 13.1222 131.767 13.9714 133.086 13.9714L138.375 13.9714C140.53 13.9714 141.426 16.7285 139.683 17.995L135.403 21.1042C134.336 21.8794 133.89 23.2534 134.297 24.5077L135.932 29.5385C136.598 31.5877 134.253 33.2917 132.509 32.0252L128.23 28.916C127.163 28.1408 125.718 28.1408 124.651 28.916L120.372 32.0252C118.629 33.2917 116.283 31.5877 116.949 29.5385L118.584 24.5077C118.991 23.2534 118.545 21.8794 117.478 21.1042L113.198 17.995C111.455 16.7285 112.351 13.9714 114.506 13.9714L119.796 13.9714C121.114 13.9714 122.283 13.1222 122.691 11.8679L124.325 6.83708C124.991 4.78791 127.89 4.78791 128.556 6.83708Z" fill="#FCEE70" stroke="black" stroke-width="0.82"/>
<path d="M71.6575 226.001L73.2921 231.032C73.6997 232.286 74.8685 233.135 76.1873 233.135L81.4771 233.135C83.6317 233.135 84.5275 235.893 82.7844 237.159L78.5049 240.268C77.438 241.043 76.9915 242.417 77.3991 243.672L79.0337 248.703C79.6995 250.752 77.3541 252.456 75.611 251.189L71.3315 248.08C70.2646 247.305 68.8198 247.305 67.7529 248.08L63.4734 251.189C61.7303 252.456 59.3849 250.752 60.0507 248.703L61.6853 243.672C62.0929 242.417 61.6464 241.043 60.5795 240.268L56.3 237.159C54.5569 235.893 55.4527 233.135 57.6073 233.135L62.8971 233.135C64.2159 233.135 65.3847 232.286 65.7923 231.032L67.4269 226.001C68.0927 223.952 70.9917 223.952 71.6575 226.001Z" fill="#FCEE70" stroke="black" stroke-width="0.82"/>
<path d="M62.1751 33.1789L63.8097 38.2097C64.2173 39.464 65.3861 40.3132 66.7049 40.3132L71.9946 40.3132C74.1493 40.3132 75.0451 43.0703 73.302 44.3368L69.0225 47.446C67.9555 48.2212 67.5091 49.5952 67.9166 50.8495L69.5512 55.8803C70.2171 57.9295 67.8717 59.6335 66.1286 58.367L61.8491 55.2578C60.7822 54.4826 59.3374 54.4826 58.2705 55.2578L53.991 58.367C52.2478 59.6335 49.9025 57.9295 50.5683 55.8803L52.2029 50.8495C52.6105 49.5952 52.164 48.2212 51.0971 47.446L46.8176 44.3368C45.0744 43.0703 45.9703 40.3132 48.1249 40.3132L53.4146 40.3132C54.7335 40.3132 55.9023 39.464 56.3098 38.2097L57.9445 33.1789C58.6103 31.1297 61.5093 31.1297 62.1751 33.1789Z" fill="#FCEE70" stroke="black" stroke-width="0.82"/>
<path d="M29.511 170.156L31.1457 175.187C31.5532 176.442 32.722 177.291 34.0408 177.291L39.3306 177.291C41.4852 177.291 42.381 180.048 40.6379 181.314L36.3584 184.424C35.2915 185.199 34.845 186.573 35.2526 187.827L36.8872 192.858C37.553 194.907 35.2076 196.611 33.4645 195.345L29.185 192.235C28.1181 191.46 26.6733 191.46 25.6064 192.235L21.3269 195.345C19.5838 196.611 17.2384 194.907 17.9042 192.858L19.5389 187.827C19.9464 186.573 19.4999 185.199 18.433 184.424L14.1535 181.314C12.4104 180.048 13.3062 177.291 15.4608 177.291L20.7506 177.291C22.0694 177.291 23.2382 176.442 23.6458 175.187L25.2804 170.156C25.9462 168.107 28.8452 168.107 29.511 170.156Z" fill="#FCEE70" stroke="black" stroke-width="0.82"/>
<path d="M23.1888 98.5065L24.8234 103.537C25.2309 104.792 26.3998 105.641 27.7186 105.641L33.0083 105.641C35.1629 105.641 36.0588 108.398 34.3157 109.664L30.0362 112.774C28.9692 113.549 28.5228 114.923 28.9303 116.177L30.5649 121.208C31.2307 123.257 28.8854 124.961 27.1423 123.695L22.8628 120.585C21.7958 119.81 20.3511 119.81 19.2841 120.585L15.0046 123.695C13.2615 124.961 10.9162 123.257 11.582 121.208L13.2166 116.177C13.6241 114.923 13.1777 113.549 12.1107 112.774L7.83124 109.664C6.08812 108.398 6.98396 105.641 9.13858 105.641L14.4283 105.641C15.7471 105.641 16.916 104.792 17.3235 103.537L18.9581 98.5065C19.6239 96.4573 22.523 96.4573 23.1888 98.5065Z" fill="#FCEE70" stroke="black" stroke-width="0.82"/>
<path d="M266.628 209.623H144.59V287.097H266.628V209.623Z" fill="#FFA9C6" stroke="black" stroke-width="0.82" stroke-miterlimit="10"/>
<path d="M196.809 203.087V210.51V234.078V250.835V287.097L212.824 287.1V250.835V234.078V210.51V203.087H196.809Z" fill="#FF928E" stroke="black" stroke-width="0.82" stroke-miterlimit="10"/>
<path d="M266.628 252.936H212.07L205.019 247.371L198.091 252.936H144.59V236.92H197.85L204.884 240.773L211.706 236.92H266.628V252.936Z" fill="#FF928E" stroke="black" stroke-width="0.82" stroke-miterlimit="10"/>
<path d="M212.887 247.158C212.887 248.747 212.415 250.3 211.532 251.622C210.649 252.943 209.394 253.972 207.926 254.58C206.458 255.188 204.843 255.347 203.284 255.036C201.726 254.726 200.294 253.96 199.171 252.836C198.048 251.712 197.283 250.28 196.974 248.722C196.665 247.163 196.825 245.548 197.433 244.08C198.042 242.612 199.073 241.358 200.395 240.476C201.716 239.594 203.27 239.124 204.859 239.125C206.989 239.126 209.03 239.973 210.536 241.48C212.041 242.986 212.887 245.029 212.887 247.158Z" fill="#FF928E" stroke="black" stroke-width="0.82" stroke-miterlimit="10"/>
<path d="M212.692 245.701C212.692 245.681 212.692 245.661 212.678 245.642C212.645 245.463 212.592 245.292 212.544 245.119C212.466 244.834 212.373 244.554 212.264 244.279C212.197 244.097 212.127 243.921 212.046 243.745C211.965 243.568 211.833 243.345 211.722 243.149C211.484 242.745 211.215 242.361 210.919 241.999C210.863 241.929 210.807 241.859 210.748 241.792C210.535 241.555 210.309 241.331 210.071 241.12L209.984 241.05C209.179 240.361 208.245 239.838 207.236 239.514L232.849 221.568C233.392 221.186 234.021 220.944 234.68 220.865C235.339 220.786 236.007 220.873 236.625 221.116C237.242 221.359 237.79 221.752 238.218 222.259C238.646 222.766 238.942 223.372 239.078 224.021C239.488 226.162 240.235 228.225 241.291 230.132C242.207 231.705 243.326 233.151 244.618 234.433C246.82 236.655 245.67 240.443 242.617 241.148L216.201 247.136L215.476 247.301L212.958 247.861L212.76 247.905C212.785 247.648 212.81 247.391 212.81 247.127C212.814 246.649 212.775 246.172 212.692 245.701V245.701Z" fill="#FF928E" stroke="black" stroke-width="0.82" stroke-miterlimit="10"/>
<path d="M198.012 251.381C197.343 250.33 196.942 249.131 196.842 247.889L194.159 247.285L161.609 265.704L176.937 267.358L173.21 281.7L200.507 253.891C200.507 253.891 199.198 253.194 198.012 251.381Z" fill="#FF928E" stroke="black" stroke-width="0.82" stroke-miterlimit="10"/>
<path d="M196.825 247.119C196.825 247.382 196.85 247.642 196.875 247.9L196.677 247.855L194.158 247.295L193.434 247.13L167.018 241.143C163.965 240.451 162.821 236.666 165.017 234.427C166.309 233.146 167.427 231.701 168.344 230.13C169.4 228.221 170.147 226.158 170.557 224.016C170.693 223.366 170.989 222.76 171.417 222.252C171.845 221.745 172.393 221.352 173.011 221.108C173.629 220.865 174.298 220.779 174.957 220.858C175.616 220.937 176.246 221.179 176.788 221.562L202.399 239.508C201.39 239.833 200.456 240.355 199.651 241.045L199.564 241.117C199.326 241.327 199.099 241.55 198.887 241.786C198.826 241.853 198.772 241.926 198.714 241.996C198.416 242.36 198.148 242.746 197.911 243.152C197.799 243.347 197.687 243.538 197.589 243.742C197.491 243.946 197.421 244.136 197.345 244.343C197.256 244.576 197.18 244.813 197.119 245.054C197.071 245.253 197.01 245.44 196.97 245.642C196.97 245.661 196.97 245.681 196.97 245.7C196.879 246.168 196.831 246.643 196.825 247.119V247.119Z" fill="#FF928E" stroke="black" stroke-width="0.82" stroke-miterlimit="10"/>
<path d="M209.148 253.891L236.446 281.7L232.722 267.358L248.046 265.704L215.492 247.285L212.808 247.889C212.709 249.132 212.307 250.332 211.639 251.384C210.455 253.194 209.148 253.891 209.148 253.891Z" fill="#FF928E" stroke="black" stroke-width="0.82" stroke-miterlimit="10"/>
<path d="M268.313 191.822H141.728C140.357 191.822 139.246 192.933 139.246 194.304V208.848C139.246 210.219 140.357 211.33 141.728 211.33H268.313C269.684 211.33 270.795 210.219 270.795 208.848V194.304C270.795 192.933 269.684 191.822 268.313 191.822Z" fill="#FFA9C6" stroke="black" stroke-width="0.82" stroke-miterlimit="10"/>
<line x1="126.441" y1="286.85" x2="337.176" y2="286.85" stroke="black" stroke-width="0.82"/>
</svg>
