<svg xmlns="http://www.w3.org/2000/svg" width="881" height="483" fill="#1b1b1b" xmlns:v="https://vecta.io/nano"><path d="M399.439 340.274c-14.838 0-28.067-2.86-39.687-8.581s-20.827-14.033-27.62-24.938c-6.614-11.084-9.922-24.223-9.922-39.419 0-15.91 3.218-29.944 9.654-42.1s15.374-21.542 26.815-28.156c11.62-6.793 24.939-10.19 39.955-10.19 15.553 0 28.604 3.397 39.151 10.19 10.547 6.614 18.413 16.178 23.598 28.692 5.363 12.514 7.955 27.352 7.776 44.514h-132.2v-24.938h111.552l-15.821 11.798c0-8.759-1.251-16.446-3.754-23.061-2.324-6.614-6.078-11.888-11.263-15.821-5.005-3.933-11.352-5.899-19.039-5.899-7.865 0-14.748 2.145-20.648 6.435s-10.458 10.548-13.675 18.771-4.827 17.877-4.827 28.961c0 9.832 1.698 18.324 5.095 25.475 3.575 7.15 8.402 12.603 14.48 16.357 6.257 3.575 13.14 5.363 20.648 5.363 10.369 0 18.95-2.771 25.743-8.313 6.972-5.72 12.067-12.871 15.285-21.452l30.301 18.234c-8.581 12.872-19.039 22.436-31.374 28.693-12.156 6.257-25.564 9.385-40.223 9.385zm157.551 0c-14.838 0-28.067-2.86-39.687-8.581s-20.826-14.033-27.62-24.938c-6.614-11.084-9.921-24.223-9.921-39.419 0-15.91 3.217-29.944 9.653-42.1s15.374-21.542 26.816-28.156c11.62-6.793 24.938-10.19 39.955-10.19 15.553 0 28.603 3.397 39.15 10.19 10.548 6.614 18.413 16.178 23.598 28.692 5.363 12.514 7.955 27.352 7.776 44.514h-132.2v-24.938h111.552l-15.821 11.798c0-8.759-1.251-16.446-3.754-23.061-2.324-6.614-6.078-11.888-11.262-15.821-5.006-3.933-11.352-5.899-19.039-5.899-7.866 0-14.749 2.145-20.648 6.435s-10.458 10.548-13.676 18.771-4.827 17.877-4.827 28.961c0 9.832 1.698 18.324 5.095 25.475 3.575 7.15 8.402 12.603 14.48 16.357 6.257 3.575 13.14 5.363 20.648 5.363 10.369 0 18.95-2.771 25.743-8.313 6.972-5.72 12.067-12.871 15.285-21.452l30.301 18.234c-8.581 12.872-19.039 22.436-31.374 28.693-12.156 6.257-25.564 9.385-40.223 9.385zm81.664-195.484h35.932v156.87c0 12.693.626 24.313 1.877 34.86h-37.809V144.79zM155.551 263.684c0-53.108 33.9-76.707 71.073-76.707 33.927 0 48.233 21.556 48.233 21.556v-63.672h36.745v156.913c0 12.88.443 24.502 1.342 34.866h-38.075v-17.611s-14.579 21.362-48.233 21.362c-35.876 0-71.085-20.587-71.085-76.707zm80.458 48.512c26.025 0 42.85-19.808 42.85-48.512 0-29.709-16.837-48.513-42.85-48.513s-42.228 17.875-42.228 48.513 16.899 48.512 42.228 48.512zm461.817-10.001h35.397v34.324h-35.397v-34.324z"/></svg>