<svg width="665" height="386" viewBox="0 0 665 386" fill="none" xmlns="http://www.w3.org/2000/svg">
<rect x="8" y="8" width="649" height="369.35" rx="21.1057" fill="white"/>
<rect x="4" y="4" width="657" height="377.35" rx="25.1057" stroke="#F78400" stroke-opacity="0.2" stroke-width="8"/>
<g clip-path="url(#clip0_844_7304)">
<path d="M377.048 239.759C385.279 253.906 393.419 267.892 401.552 281.862C365.536 309.17 309.502 312.471 268.021 281.023C220.286 244.805 212.44 183.007 237.997 138.522C267.391 87.3545 322.397 76.0385 357.813 84.3361C356.855 86.3968 335.644 129.979 335.644 129.979C335.644 129.979 333.967 130.088 333.018 130.106C322.55 130.545 314.753 132.958 306.396 137.237C297.228 141.975 289.371 148.865 283.512 157.305C277.652 165.745 273.97 175.478 272.786 185.652C271.55 195.971 272.991 206.431 276.972 216.045C280.338 224.173 285.099 231.392 291.482 237.486C301.274 246.845 312.926 252.639 326.433 254.557C339.224 256.376 351.525 254.576 363.052 248.839C367.375 246.69 371.053 244.317 375.353 241.062C375.9 240.711 376.387 240.265 377.048 239.759Z" fill="#B5B5B5" fill-opacity="0.1"/>
<path d="M377.128 115.693C375.038 113.656 373.101 111.777 371.174 109.886C370.023 108.759 368.915 107.586 367.737 106.486C367.315 106.089 366.819 105.547 366.819 105.547C366.819 105.547 367.22 104.704 367.392 104.359C369.647 99.8766 373.181 96.6006 377.373 93.9943C382.009 91.0904 387.41 89.6129 392.893 89.7486C399.91 89.8849 406.434 91.6154 411.939 96.2763C416.002 99.7159 418.086 104.08 418.453 109.289C419.065 118.078 415.393 124.809 408.101 129.506C403.817 132.27 399.197 134.406 394.564 136.937C392.009 138.334 389.824 139.561 387.327 142.089C385.13 144.625 385.023 147.016 385.023 147.016L418.215 146.974V161.614H366.982C366.982 161.614 366.982 160.614 366.982 160.199C366.786 153.005 367.633 146.234 370.959 139.701C374.019 133.706 378.775 129.318 384.488 125.939C388.888 123.336 393.521 121.12 397.93 118.529C400.65 116.932 402.572 114.59 402.557 111.193C402.557 108.277 400.415 105.686 397.355 104.877C390.139 102.949 382.795 106.025 378.977 112.565C378.42 113.52 377.851 114.469 377.128 115.693Z" fill="#B5B5B5" fill-opacity="0.1"/>
<path d="M441.33 224.198L413.359 176.358H358.007L329.855 224.692H385.614L413.129 272.304L441.33 224.198Z" fill="#B5B5B5" fill-opacity="0.1"/>
</g>
<line x1="333.5" y1="9" x2="333.5" y2="341" stroke="#CDD0D6"/>
<line x1="268.853" y1="8.65955" x2="268.853" y2="377.35" stroke="#DDE0E3" stroke-width="0.659553" stroke-dasharray="2.64 2.64"/>
<line x1="398.126" y1="8.65955" x2="398.126" y2="377.35" stroke="#DDE0E3" stroke-width="0.659553" stroke-dasharray="2.64 2.64"/>
<line x1="462.761" y1="8.65955" x2="462.761" y2="377.35" stroke="#DDE0E3" stroke-width="0.659553" stroke-dasharray="2.64 2.64"/>
<line x1="527.398" y1="8.65955" x2="527.398" y2="377.35" stroke="#DDE0E3" stroke-width="0.659553" stroke-dasharray="2.64 2.64"/>
<line x1="592.034" y1="8.65955" x2="592.034" y2="377.35" stroke="#DDE0E3" stroke-width="0.659553" stroke-dasharray="2.64 2.64"/>
<line x1="204.216" y1="8.65955" x2="204.217" y2="377.35" stroke="#DDE0E3" stroke-width="0.659553" stroke-dasharray="2.64 2.64"/>
<line x1="139.581" y1="8" x2="139.581" y2="377.35" stroke="#DDE0E3" stroke-width="0.659553" stroke-dasharray="2.64 2.64"/>
<line x1="74.945" y1="8.65955" x2="74.945" y2="377.35" stroke="#DDE0E3" stroke-width="0.659553" stroke-dasharray="2.64 2.64"/>
<line x1="8" y1="45.2647" x2="657" y2="45.2648" stroke="#DDE0E3" stroke-width="0.659553" stroke-dasharray="2.64 2.64"/>
<line x1="8" y1="82.1996" x2="657" y2="82.1997" stroke="#DDE0E3" stroke-width="0.659553" stroke-dasharray="2.64 2.64"/>
<line x1="8" y1="119.135" x2="657" y2="119.135" stroke="#DDE0E3" stroke-width="0.659553" stroke-dasharray="2.64 2.64"/>
<line x1="8" y1="156.07" x2="627.32" y2="156.07" stroke="#DDE0E3" stroke-width="0.659553" stroke-dasharray="2.64 2.64"/>
<line x1="8" y1="192.834" x2="627.32" y2="192.834" stroke="#CDD0D6"/>
<line x1="8" y1="229.94" x2="627.32" y2="229.94" stroke="#DDE0E3" stroke-width="0.659553" stroke-dasharray="2.64 2.64"/>
<line x1="8" y1="266.874" x2="657" y2="266.875" stroke="#DDE0E3" stroke-width="0.659553" stroke-dasharray="2.64 2.64"/>
<line x1="8" y1="303.809" x2="657" y2="303.809" stroke="#DDE0E3" stroke-width="0.659553" stroke-dasharray="2.64 2.64"/>
<line x1="8" y1="340.744" x2="657" y2="340.745" stroke="#DDE0E3" stroke-width="0.659553" stroke-dasharray="2.64 2.64"/>
<path d="M295.092 364.787C292.852 364.787 291.368 363.457 291.368 361.511H293.174C293.188 362.393 293.916 363.079 295.148 363.079C296.198 363.079 296.87 362.631 296.87 361.889C296.87 359.649 291.662 361.455 291.662 357.451C291.662 355.897 292.894 354.623 295.05 354.623C296.912 354.623 298.494 355.603 298.55 357.647H296.688C296.674 356.835 296.1 356.289 295.05 356.289C294.014 356.289 293.51 356.807 293.51 357.423C293.51 359.467 298.788 357.787 298.788 361.749C298.788 363.485 297.444 364.787 295.092 364.787ZM303.374 364.787C301.316 364.787 299.902 363.247 299.902 360.965C299.902 358.655 301.302 357.059 303.318 357.059C304.592 357.059 305.306 357.815 305.558 358.193H305.656V357.241H307.476V364.605H305.684V363.667H305.586C305.376 363.975 304.718 364.787 303.374 364.787ZM303.724 363.149C304.942 363.149 305.698 362.169 305.698 360.937C305.698 359.551 304.858 358.711 303.71 358.711C302.548 358.711 301.75 359.635 301.75 360.937C301.75 362.267 302.548 363.149 303.724 363.149ZM312.525 364.605C310.999 364.605 310.075 363.737 310.075 362.155V358.697H308.829V357.255H309.655C309.977 357.255 310.187 357.045 310.187 356.695V355.211H311.895V357.241H313.925V358.697H311.895V362.085C311.895 362.701 312.203 363.093 312.903 363.093H313.883V364.605H312.525ZM316.382 356.261C315.724 356.261 315.262 355.855 315.262 355.197C315.262 354.567 315.724 354.147 316.382 354.147C317.04 354.147 317.502 354.567 317.502 355.197C317.502 355.855 317.04 356.261 316.382 356.261ZM315.472 364.605V357.241H317.292V364.605H315.472ZM321.781 364.787C319.793 364.787 318.799 363.849 318.729 362.393H320.409C320.479 363.023 320.983 363.359 321.809 363.359C322.649 363.359 323.125 362.995 323.125 362.477C323.125 360.909 318.897 362.393 318.897 359.313C318.897 358.067 319.975 357.059 321.795 357.059C323.391 357.059 324.581 357.871 324.693 359.341H323.083C322.999 358.809 322.579 358.459 321.781 358.459C321.039 358.459 320.563 358.781 320.563 359.257C320.563 360.657 324.889 359.187 324.889 362.379C324.889 363.779 323.755 364.787 321.781 364.787ZM327.189 364.605V358.697H325.929V357.241H327.231V356.653C327.231 355.071 328.337 354.105 329.933 354.105H330.885V355.617H330.115C329.331 355.617 328.995 356.093 328.995 356.709V357.241H330.941V358.697H329.009V364.605H327.189ZM335.216 364.787C333.158 364.787 331.744 363.247 331.744 360.965C331.744 358.655 333.144 357.059 335.16 357.059C336.434 357.059 337.148 357.815 337.4 358.193H337.498V357.241H339.318V364.605H337.526V363.667H337.428C337.218 363.975 336.56 364.787 335.216 364.787ZM335.566 363.149C336.784 363.149 337.54 362.169 337.54 360.937C337.54 359.551 336.7 358.711 335.552 358.711C334.39 358.711 333.592 359.635 333.592 360.937C333.592 362.267 334.39 363.149 335.566 363.149ZM344.563 364.787C342.253 364.787 340.713 363.093 340.713 360.923C340.713 358.753 342.253 357.059 344.563 357.059C346.453 357.059 347.923 358.221 348.203 359.957H346.341C346.117 359.229 345.431 358.711 344.577 358.711C343.345 358.711 342.561 359.691 342.561 360.923C342.561 362.197 343.387 363.135 344.591 363.135C345.431 363.135 346.117 362.659 346.327 361.945H348.189C347.909 363.653 346.453 364.787 344.563 364.787ZM353.007 364.605C351.481 364.605 350.557 363.737 350.557 362.155V358.697H349.311V357.255H350.137C350.459 357.255 350.669 357.045 350.669 356.695V355.211H352.377V357.241H354.407V358.697H352.377V362.085C352.377 362.701 352.685 363.093 353.385 363.093H354.365V364.605H353.007ZM356.864 356.261C356.206 356.261 355.744 355.855 355.744 355.197C355.744 354.567 356.206 354.147 356.864 354.147C357.522 354.147 357.984 354.567 357.984 355.197C357.984 355.855 357.522 356.261 356.864 356.261ZM355.954 364.605V357.241H357.774V364.605H355.954ZM363.09 364.787C360.78 364.787 359.17 363.121 359.17 360.923C359.17 358.739 360.766 357.059 363.09 357.059C365.4 357.059 367.01 358.739 367.01 360.923C367.01 363.107 365.386 364.787 363.09 364.787ZM363.09 363.135C364.294 363.135 365.162 362.211 365.162 360.923C365.162 359.649 364.294 358.711 363.09 358.711C361.872 358.711 361.018 359.649 361.018 360.923C361.018 362.225 361.886 363.135 363.09 363.135ZM368.614 364.605V357.241H370.35V358.137H370.448C370.742 357.591 371.47 357.059 372.52 357.059C374.172 357.059 375.18 358.221 375.18 359.789V364.605H373.36V360.265C373.36 359.369 372.786 358.767 371.946 358.767C371.064 358.767 370.434 359.467 370.434 360.391V364.605H368.614Z" fill="#0D2049"/>
<path d="M635 135.418L644.8 135.418L644.8 137.672L637.52 140.682L637.52 140.766L644.8 143.483L644.8 145.737L635 145.736L635 143.944L641.118 143.944L641.118 143.861L635 141.508L635 139.884L641.272 137.294L641.272 137.21L635 137.21L635 135.418ZM634.818 150.882C634.818 148.824 636.358 147.41 638.64 147.41C640.95 147.41 642.546 148.81 642.546 150.826C642.546 152.1 641.79 152.814 641.412 153.066L641.412 153.164L642.364 153.164L642.364 154.984L635 154.984L635 153.192L635.938 153.192L635.938 153.094C635.63 152.884 634.818 152.226 634.818 150.882ZM636.456 151.232C636.456 152.45 637.436 153.206 638.668 153.206C640.054 153.206 640.894 152.366 640.894 151.218C640.894 150.056 639.97 149.258 638.668 149.258C637.338 149.258 636.456 150.056 636.456 151.232ZM635 156.841L642.364 156.841L642.364 158.563L641.16 158.563L641.16 158.675C641.734 158.913 642.392 159.585 642.392 160.607L642.392 161.279L640.656 161.279L640.656 160.523C640.656 159.361 639.802 158.661 638.486 158.661L635 158.661L635 156.841ZM635 169.619L635 167.575L638.262 165.727L637.086 164.663L635 164.663L635 162.843L645.5 162.843L645.5 164.663L639.536 164.663L639.536 164.747L642.364 167.183L642.364 169.437L639.634 166.973L635 169.619ZM634.818 173.61C634.818 171.44 636.442 169.9 638.64 169.9C640.964 169.9 642.546 171.454 642.546 173.61C642.546 175.976 640.796 177.264 638.724 177.264L638.15 177.264L638.15 171.664C637.03 171.72 636.274 172.49 636.274 173.666C636.274 174.562 636.694 175.248 637.296 175.5L637.296 177.194C635.798 176.83 634.818 175.514 634.818 173.61ZM639.438 171.692L639.438 175.528C640.432 175.444 641.09 174.674 641.09 173.61C641.09 172.588 640.362 171.804 639.438 171.692ZM635 182.072C635 180.546 635.868 179.622 637.45 179.622L640.908 179.622L640.908 178.376L642.35 178.376L642.35 179.202C642.35 179.524 642.56 179.734 642.91 179.734L644.394 179.734L644.394 181.442L642.364 181.442L642.364 183.472L640.908 183.472L640.908 181.442L637.52 181.442C636.904 181.442 636.512 181.75 636.512 182.45L636.512 183.43L635 183.43L635 182.072ZM635 188.793L644.8 188.793L644.8 192.503C644.8 194.379 643.526 195.779 641.636 195.779C639.774 195.779 638.43 194.323 638.43 192.503L638.43 190.655L635 190.655L635 188.793ZM640.026 190.655L640.026 192.307C640.026 193.245 640.684 193.875 641.636 193.876C642.574 193.876 643.204 193.245 643.204 192.307L643.204 190.655L640.026 190.655ZM635 197.241L642.364 197.241L642.364 198.963L641.16 198.963L641.16 199.075C641.734 199.313 642.392 199.985 642.392 201.007L642.392 201.679L640.656 201.679L640.656 200.923C640.656 199.761 639.802 199.061 638.486 199.061L635 199.061L635 197.241ZM634.818 206.245C634.818 204.075 636.442 202.535 638.64 202.535C640.964 202.535 642.546 204.089 642.546 206.245C642.546 208.611 640.796 209.899 638.724 209.899L638.15 209.899L638.15 204.299C637.03 204.355 636.274 205.125 636.274 206.301C636.274 207.197 636.694 207.883 637.296 208.135L637.296 209.829C635.798 209.465 634.818 208.149 634.818 206.245ZM639.438 204.327L639.438 208.163C640.432 208.079 641.09 207.309 641.09 206.245C641.09 205.223 640.362 204.439 639.438 204.327ZM634.818 214.147C634.818 212.159 635.756 211.165 637.212 211.095L637.212 212.775C636.582 212.845 636.246 213.349 636.246 214.175C636.246 215.015 636.61 215.491 637.128 215.491C638.696 215.491 637.212 211.263 640.292 211.263C641.538 211.263 642.546 212.341 642.546 214.161C642.546 215.757 641.734 216.947 640.264 217.059L640.264 215.449C640.796 215.365 641.146 214.945 641.146 214.147C641.146 213.405 640.824 212.929 640.348 212.929C638.948 212.929 640.418 217.255 637.226 217.255C635.826 217.255 634.818 216.121 634.818 214.147ZM634.818 222.186C634.818 220.016 636.442 218.476 638.64 218.476C640.964 218.476 642.546 220.03 642.546 222.186C642.546 224.552 640.796 225.84 638.724 225.84L638.15 225.84L638.15 220.24C637.03 220.296 636.274 221.066 636.274 222.242C636.274 223.138 636.694 223.824 637.296 224.076L637.296 225.77C635.798 225.406 634.818 224.09 634.818 222.186ZM639.438 220.268L639.438 224.104C640.432 224.02 641.09 223.25 641.09 222.186C641.09 221.164 640.362 220.38 639.438 220.268ZM635 227.456L642.364 227.456L642.364 229.192L641.468 229.192L641.468 229.29C642.014 229.584 642.546 230.312 642.546 231.362C642.546 233.014 641.384 234.022 639.816 234.022L635 234.022L635 232.202L639.34 232.202C640.236 232.202 640.838 231.628 640.838 230.788C640.838 229.906 640.138 229.276 639.214 229.276L635 229.276L635 227.456ZM634.818 239.266C634.818 236.956 636.512 235.416 638.682 235.416C640.852 235.416 642.546 236.956 642.546 239.266C642.546 241.156 641.384 242.626 639.648 242.906L639.648 241.044C640.376 240.82 640.894 240.134 640.894 239.28C640.894 238.048 639.914 237.264 638.682 237.264C637.408 237.264 636.47 238.09 636.47 239.294C636.47 240.134 636.946 240.82 637.66 241.03L637.66 242.892C635.952 242.612 634.818 241.156 634.818 239.266ZM634.818 247.766C634.818 245.596 636.442 244.056 638.64 244.056C640.964 244.056 642.546 245.61 642.546 247.766C642.546 250.132 640.796 251.42 638.724 251.42L638.15 251.42L638.15 245.82C637.03 245.876 636.274 246.646 636.274 247.822C636.274 248.718 636.694 249.404 637.296 249.656L637.296 251.35C635.798 250.986 634.818 249.67 634.818 247.766ZM639.438 245.848L639.438 249.684C640.432 249.6 641.09 248.83 641.09 247.766C641.09 246.744 640.362 245.96 639.438 245.848Z" fill="#0D2049"/>
<path d="M545.47 362V353.6H546.766V357.14H550.846V353.6H552.13V362H550.846V358.34H546.766V362H545.47ZM554.835 354.74C554.355 354.74 554.007 354.416 554.007 353.936C554.007 353.48 554.355 353.144 554.835 353.144C555.327 353.144 555.675 353.48 555.675 353.936C555.675 354.416 555.327 354.74 554.835 354.74ZM554.199 362V355.724H555.459V362H554.199ZM560.077 364.916C558.397 364.916 557.413 363.98 557.269 362.84H558.433C558.577 363.476 559.189 363.86 560.077 363.86C561.373 363.86 561.973 363.152 561.973 361.976V361.076H561.889C561.721 361.328 561.097 362.132 559.861 362.132C558.097 362.132 556.825 360.812 556.825 358.856C556.825 356.9 558.085 355.568 559.801 355.568C561.013 355.568 561.673 356.312 561.865 356.636H561.949V355.724H563.209V361.976C563.209 363.752 562.081 364.916 560.077 364.916ZM560.053 360.992C561.253 360.992 561.985 360.044 561.985 358.856C561.985 357.5 561.145 356.72 560.041 356.72C558.901 356.72 558.109 357.596 558.109 358.856C558.109 360.164 558.901 360.992 560.053 360.992ZM565.05 362V353H566.298V356.564H566.382C566.646 356.048 567.294 355.568 568.23 355.568C569.658 355.568 570.546 356.612 570.546 357.968V362H569.286V358.208C569.286 357.332 568.65 356.744 567.858 356.744C567.006 356.744 566.31 357.392 566.31 358.28V362H565.05ZM575.716 362V353.6H578.812C580.384 353.6 581.5 354.644 581.5 356.216C581.5 357.776 580.336 358.868 578.812 358.868H577.012V362H575.716ZM577.012 357.752H578.692C579.592 357.752 580.192 357.104 580.192 356.216C580.192 355.34 579.592 354.716 578.692 354.716H577.012V357.752ZM585.352 362.156C583.468 362.156 582.196 360.764 582.196 358.88C582.196 356.888 583.54 355.568 585.328 355.568C587.284 355.568 588.4 357.008 588.4 358.796V359.264H583.456C583.504 360.356 584.236 361.1 585.388 361.1C586.18 361.1 586.864 360.716 587.116 360.104H588.34C588.016 361.316 586.9 362.156 585.352 362.156ZM583.48 358.292H587.152C587.068 357.236 586.3 356.624 585.328 356.624C584.368 356.624 583.576 357.308 583.48 358.292ZM589.929 362V355.724H591.141V356.816H591.225C591.417 356.312 592.017 355.712 592.905 355.712H593.457V356.936H592.869C591.801 356.936 591.189 357.74 591.189 358.904V362H589.929ZM595.402 362V356.756H594.274V355.724H595.414V355.1C595.414 353.792 596.326 353 597.646 353H598.354V354.068H597.718C596.962 354.068 596.65 354.536 596.65 355.136V355.724H598.402V356.756H596.662V362H595.402ZM602.43 362.156C600.498 362.156 599.118 360.752 599.118 358.868C599.118 356.984 600.51 355.568 602.442 355.568C604.374 355.568 605.742 356.996 605.742 358.868C605.742 360.74 604.35 362.156 602.43 362.156ZM602.43 361.016C603.618 361.016 604.458 360.104 604.458 358.868C604.458 357.62 603.618 356.72 602.43 356.72C601.242 356.72 600.402 357.632 600.402 358.868C600.402 360.116 601.254 361.016 602.43 361.016ZM607.261 362V355.724H608.473V356.816H608.557C608.749 356.312 609.349 355.712 610.237 355.712H610.789V356.936H610.201C609.133 356.936 608.521 357.74 608.521 358.904V362H607.261ZM612.242 362V355.724H613.466V356.552H613.55C613.826 356.024 614.414 355.568 615.314 355.568C616.214 355.568 616.874 355.988 617.234 356.624H617.318C617.738 355.88 618.398 355.568 619.25 355.568C620.63 355.568 621.542 356.528 621.542 357.884V362H620.282V358.316C620.282 357.296 619.79 356.744 618.962 356.744C618.17 356.744 617.534 357.332 617.534 358.34V362H616.274V358.172C616.274 357.296 615.71 356.744 614.918 356.744C614.126 356.744 613.502 357.38 613.502 358.304V362H612.242ZM626.063 362.156C624.179 362.156 622.907 360.764 622.907 358.88C622.907 356.888 624.251 355.568 626.039 355.568C627.995 355.568 629.111 357.008 629.111 358.796V359.264H624.167C624.215 360.356 624.947 361.1 626.099 361.1C626.891 361.1 627.575 360.716 627.827 360.104H629.051C628.727 361.316 627.611 362.156 626.063 362.156ZM624.191 358.292H627.863C627.779 357.236 627.011 356.624 626.039 356.624C625.079 356.624 624.287 357.308 624.191 358.292ZM630.64 362V355.724H631.852V356.816H631.936C632.128 356.312 632.728 355.712 633.616 355.712H634.168V356.936H633.58C632.512 356.936 631.9 357.74 631.9 358.904V362H630.64ZM637.781 362.156C636.185 362.156 635.345 361.352 635.261 360.14H636.449C636.533 360.788 637.001 361.124 637.817 361.124C638.645 361.124 639.101 360.752 639.101 360.2C639.101 358.664 635.429 359.96 635.429 357.404C635.429 356.348 636.365 355.568 637.805 355.568C639.065 355.568 640.049 356.252 640.145 357.452H638.993C638.921 356.924 638.513 356.576 637.757 356.576C637.049 356.576 636.605 356.912 636.605 357.38C636.605 358.772 640.325 357.476 640.325 360.14C640.325 361.328 639.353 362.156 637.781 362.156Z" fill="#0D2049"/>
<path d="M523.521 32.542V24.142H525.033L527.949 30.91H528.021L530.685 24.142H532.185V32.542H530.937V26.794H530.865L528.585 32.542H527.337L524.841 26.734H524.769V32.542H523.521ZM537.11 32.698C535.178 32.698 533.798 31.294 533.798 29.41C533.798 27.526 535.19 26.11 537.122 26.11C539.054 26.11 540.422 27.538 540.422 29.41C540.422 31.282 539.03 32.698 537.11 32.698ZM537.11 31.558C538.298 31.558 539.138 30.646 539.138 29.41C539.138 28.162 538.298 27.262 537.11 27.262C535.922 27.262 535.082 28.174 535.082 29.41C535.082 30.658 535.934 31.558 537.11 31.558ZM541.941 32.542V26.266H543.165V27.094H543.249C543.525 26.566 544.113 26.11 545.013 26.11C545.913 26.11 546.573 26.53 546.933 27.166H547.017C547.437 26.422 548.097 26.11 548.949 26.11C550.329 26.11 551.241 27.07 551.241 28.426V32.542H549.981V28.858C549.981 27.838 549.489 27.286 548.661 27.286C547.869 27.286 547.233 27.874 547.233 28.882V32.542H545.973V28.714C545.973 27.838 545.409 27.286 544.617 27.286C543.825 27.286 543.201 27.922 543.201 28.846V32.542H541.941ZM555.762 32.698C553.878 32.698 552.606 31.306 552.606 29.422C552.606 27.43 553.95 26.11 555.738 26.11C557.694 26.11 558.81 27.55 558.81 29.338V29.806H553.866C553.914 30.898 554.646 31.642 555.798 31.642C556.59 31.642 557.274 31.258 557.526 30.646H558.75C558.426 31.858 557.31 32.698 555.762 32.698ZM553.89 28.834H557.562C557.478 27.778 556.71 27.166 555.738 27.166C554.778 27.166 553.986 27.85 553.89 28.834ZM560.339 32.542V26.266H561.563V27.106H561.647C561.899 26.59 562.547 26.11 563.483 26.11C564.911 26.11 565.787 27.154 565.787 28.51V32.542H564.527V28.75C564.527 27.874 563.915 27.286 563.123 27.286C562.247 27.286 561.599 27.97 561.599 28.882V32.542H560.339ZM570.197 32.542C568.961 32.542 568.217 31.858 568.217 30.55V27.298H567.089V26.278H567.917C568.133 26.278 568.289 26.122 568.289 25.87V24.49H569.477V26.266H571.301V27.298H569.477V30.514C569.477 31.114 569.729 31.474 570.389 31.474H571.241V32.542H570.197ZM575.005 32.698C573.576 32.698 572.701 31.654 572.701 30.298V26.266H573.961V30.07C573.961 30.958 574.573 31.534 575.365 31.534C576.241 31.534 576.889 30.862 576.889 29.95V26.266H578.148V32.542H576.925V31.702H576.841C576.589 32.218 575.941 32.698 575.005 32.698ZM579.992 32.542V26.266H581.216V27.094H581.3C581.576 26.566 582.164 26.11 583.064 26.11C583.964 26.11 584.624 26.53 584.984 27.166H585.068C585.488 26.422 586.148 26.11 587 26.11C588.38 26.11 589.292 27.07 589.292 28.426V32.542H588.032V28.858C588.032 27.838 587.54 27.286 586.712 27.286C585.92 27.286 585.284 27.874 585.284 28.882V32.542H584.024V28.714C584.024 27.838 583.46 27.286 582.668 27.286C581.876 27.286 581.252 27.922 581.252 28.846V32.542H579.992ZM594.455 32.542V24.142H595.751V31.39H599.255V32.542H594.455ZM603.259 32.698C601.375 32.698 600.103 31.306 600.103 29.422C600.103 27.43 601.447 26.11 603.235 26.11C605.191 26.11 606.307 27.55 606.307 29.338V29.806H601.363C601.411 30.898 602.143 31.642 603.295 31.642C604.087 31.642 604.771 31.258 605.023 30.646H606.247C605.923 31.858 604.807 32.698 603.259 32.698ZM601.387 28.834H605.059C604.975 27.778 604.207 27.166 603.235 27.166C602.275 27.166 601.483 27.85 601.387 28.834ZM610.44 32.698C608.64 32.698 607.392 31.366 607.392 29.422C607.392 27.478 608.628 26.11 610.38 26.11C611.58 26.11 612.228 26.854 612.432 27.178H612.516V26.266H613.776V32.542H612.54V31.654H612.468C612.3 31.894 611.688 32.698 610.44 32.698ZM610.62 31.558C611.82 31.558 612.552 30.598 612.552 29.41C612.552 28.054 611.712 27.262 610.608 27.262C609.468 27.262 608.676 28.15 608.676 29.41C608.676 30.718 609.468 31.558 610.62 31.558ZM618.197 32.698C616.397 32.698 615.149 31.366 615.149 29.422C615.149 27.478 616.385 26.11 618.137 26.11C619.337 26.11 619.985 26.854 620.189 27.178H620.273V23.542H621.533V32.542H620.297V31.654H620.225C620.057 31.894 619.445 32.698 618.197 32.698ZM618.377 31.558C619.577 31.558 620.309 30.598 620.309 29.41C620.309 28.054 619.469 27.262 618.365 27.262C617.225 27.262 616.433 28.15 616.433 29.41C616.433 30.718 617.225 31.558 618.377 31.558ZM626.063 32.698C624.179 32.698 622.907 31.306 622.907 29.422C622.907 27.43 624.251 26.11 626.039 26.11C627.995 26.11 629.111 27.55 629.111 29.338V29.806H624.167C624.215 30.898 624.947 31.642 626.099 31.642C626.891 31.642 627.575 31.258 627.827 30.646H629.051C628.727 31.858 627.611 32.698 626.063 32.698ZM624.191 28.834H627.863C627.779 27.778 627.011 27.166 626.039 27.166C625.079 27.166 624.287 27.85 624.191 28.834ZM630.64 32.542V26.266H631.852V27.358H631.936C632.128 26.854 632.728 26.254 633.616 26.254H634.168V27.478H633.58C632.512 27.478 631.9 28.282 631.9 29.446V32.542H630.64ZM637.781 32.698C636.185 32.698 635.345 31.894 635.261 30.682H636.449C636.533 31.33 637.001 31.666 637.817 31.666C638.645 31.666 639.101 31.294 639.101 30.742C639.101 29.206 635.429 30.502 635.429 27.946C635.429 26.89 636.365 26.11 637.805 26.11C639.065 26.11 640.049 26.794 640.145 27.994H638.993C638.921 27.466 638.513 27.118 637.757 27.118C637.049 27.118 636.605 27.454 636.605 27.922C636.605 29.314 640.325 28.018 640.325 30.682C640.325 31.87 639.353 32.698 637.781 32.698Z" fill="#0D2049"/>
<path d="M32.908 32.3684C30.376 32.3684 28.552 30.5084 28.552 28.0124C28.552 25.5404 30.388 23.6564 32.908 23.6564C34.96 23.6564 36.448 24.8924 36.94 26.6444H35.548C35.176 25.5284 34.132 24.8804 32.908 24.8804C31.192 24.8804 29.896 26.2244 29.896 28.0124C29.896 29.8244 31.192 31.1444 32.908 31.1444C34.132 31.1444 35.164 30.5084 35.548 29.3924H36.964C36.496 31.1684 34.948 32.3684 32.908 32.3684ZM41.3793 32.3684C39.4473 32.3684 38.0673 30.9644 38.0673 29.0804C38.0673 27.1964 39.4593 25.7804 41.3913 25.7804C43.3233 25.7804 44.6913 27.2084 44.6913 29.0804C44.6913 30.9524 43.2993 32.3684 41.3793 32.3684ZM41.3793 31.2284C42.5673 31.2284 43.4073 30.3164 43.4073 29.0804C43.4073 27.8324 42.5673 26.9324 41.3793 26.9324C40.1913 26.9324 39.3513 27.8444 39.3513 29.0804C39.3513 30.3284 40.2033 31.2284 41.3793 31.2284ZM46.2106 32.2124V25.9364H47.4346V26.7764H47.5186C47.7706 26.2604 48.4186 25.7804 49.3546 25.7804C50.7826 25.7804 51.6586 26.8244 51.6586 28.1804V32.2124H50.3986V28.4204C50.3986 27.5444 49.7866 26.9564 48.9946 26.9564C48.1186 26.9564 47.4706 27.6404 47.4706 28.5524V32.2124H46.2106ZM56.0682 32.2124C54.8322 32.2124 54.0882 31.5284 54.0882 30.2204V26.9684H52.9602V25.9484H53.7882C54.0042 25.9484 54.1602 25.7924 54.1602 25.5404V24.1604H55.3482V25.9364H57.1722V26.9684H55.3482V30.1844C55.3482 30.7844 55.6002 31.1444 56.2602 31.1444H57.1122V32.2124H56.0682ZM61.3796 32.3684C59.4956 32.3684 58.2236 30.9764 58.2236 29.0924C58.2236 27.1004 59.5676 25.7804 61.3556 25.7804C63.3116 25.7804 64.4276 27.2204 64.4276 29.0084V29.4764H59.4836C59.5316 30.5684 60.2636 31.3124 61.4156 31.3124C62.2076 31.3124 62.8916 30.9284 63.1436 30.3164H64.3676C64.0436 31.5284 62.9276 32.3684 61.3796 32.3684ZM59.5076 28.5044H63.1796C63.0956 27.4484 62.3276 26.8364 61.3556 26.8364C60.3956 26.8364 59.6036 27.5204 59.5076 28.5044ZM65.9567 32.2124V25.9364H67.1807V26.7764H67.2647C67.5167 26.2604 68.1647 25.7804 69.1007 25.7804C70.5287 25.7804 71.4047 26.8244 71.4047 28.1804V32.2124H70.1447V28.4204C70.1447 27.5444 69.5327 26.9564 68.7407 26.9564C67.8647 26.9564 67.2167 27.6404 67.2167 28.5524V32.2124H65.9567ZM75.8263 32.3684C74.0263 32.3684 72.7783 31.0364 72.7783 29.0924C72.7783 27.1484 74.0143 25.7804 75.7663 25.7804C76.9663 25.7804 77.6143 26.5244 77.8183 26.8484H77.9023V23.2124H79.1623V32.2124H77.9263V31.3244H77.8543C77.6863 31.5644 77.0743 32.3684 75.8263 32.3684ZM76.0063 31.2284C77.2063 31.2284 77.9383 30.2684 77.9383 29.0804C77.9383 27.7244 77.0983 26.9324 75.9943 26.9324C74.8543 26.9324 74.0623 27.8204 74.0623 29.0804C74.0623 30.3884 74.8543 31.2284 76.0063 31.2284ZM83.6921 32.3684C81.8081 32.3684 80.5361 30.9764 80.5361 29.0924C80.5361 27.1004 81.8801 25.7804 83.6681 25.7804C85.6241 25.7804 86.7401 27.2204 86.7401 29.0084V29.4764H81.7961C81.8441 30.5684 82.5761 31.3124 83.7281 31.3124C84.5201 31.3124 85.2041 30.9284 85.4561 30.3164H86.6801C86.3561 31.5284 85.2401 32.3684 83.6921 32.3684ZM81.8201 28.5044H85.4921C85.4081 27.4484 84.6401 26.8364 83.6681 26.8364C82.7081 26.8364 81.9161 27.5204 81.8201 28.5044ZM88.2692 32.2124V25.9364H89.4812V27.0284H89.5652C89.7572 26.5244 90.3572 25.9244 91.2452 25.9244H91.7972V27.1484H91.2092C90.1412 27.1484 89.5292 27.9524 89.5292 29.1164V32.2124H88.2692ZM95.4096 32.3684C93.8136 32.3684 92.9736 31.5644 92.8896 30.3524H94.0776C94.1616 31.0004 94.6296 31.3364 95.4456 31.3364C96.2736 31.3364 96.7296 30.9644 96.7296 30.4124C96.7296 28.8764 93.0576 30.1724 93.0576 27.6164C93.0576 26.5604 93.9936 25.7804 95.4336 25.7804C96.6936 25.7804 97.6776 26.4644 97.7736 27.6644H96.6216C96.5496 27.1364 96.1416 26.7884 95.3856 26.7884C94.6776 26.7884 94.2336 27.1244 94.2336 27.5924C94.2336 28.9844 97.9536 27.6884 97.9536 30.3524C97.9536 31.5404 96.9816 32.3684 95.4096 32.3684Z" fill="#0D2049"/>
<path d="M29.068 362V353.6H30.448L34.432 359.816H34.504V353.6H35.764V362H34.372L30.412 355.784H30.34V362H29.068ZM38.4677 354.74C37.9877 354.74 37.6397 354.416 37.6397 353.936C37.6397 353.48 37.9877 353.144 38.4677 353.144C38.9597 353.144 39.3077 353.48 39.3077 353.936C39.3077 354.416 38.9597 354.74 38.4677 354.74ZM37.8317 362V355.724H39.0917V362H37.8317ZM43.722 362.156C41.778 362.156 40.458 360.716 40.458 358.868C40.458 357.008 41.802 355.568 43.71 355.568C45.198 355.568 46.458 356.48 46.746 357.92H45.45C45.234 357.2 44.55 356.72 43.722 356.72C42.534 356.72 41.754 357.656 41.754 358.868C41.754 360.104 42.57 361.016 43.746 361.016C44.55 361.016 45.246 360.536 45.462 359.828H46.746C46.47 361.268 45.198 362.156 43.722 362.156ZM48.2848 362V353H49.5328V356.564H49.6168C49.8808 356.048 50.5288 355.568 51.4648 355.568C52.8928 355.568 53.7808 356.612 53.7808 357.968V362H52.5208V358.208C52.5208 357.332 51.8848 356.744 51.0928 356.744C50.2408 356.744 49.5448 357.392 49.5448 358.28V362H48.2848ZM58.3093 362.156C56.4253 362.156 55.1533 360.764 55.1533 358.88C55.1533 356.888 56.4973 355.568 58.2853 355.568C60.2413 355.568 61.3573 357.008 61.3573 358.796V359.264H56.4133C56.4613 360.356 57.1933 361.1 58.3453 361.1C59.1373 361.1 59.8213 360.716 60.0733 360.104H61.2973C60.9733 361.316 59.8573 362.156 58.3093 362.156ZM56.4373 358.292H60.1093C60.0253 357.236 59.2573 356.624 58.2853 356.624C57.3253 356.624 56.5333 357.308 56.4373 358.292Z" fill="#0D2049"/>
<rect x="555.099" y="55.158" width="60.0193" height="60.0193" rx="11.5422" fill="#112A62"/>
<rect x="555.099" y="55.158" width="60.0193" height="60.0193" rx="11.5422" stroke="#E8F0FF" stroke-width="7.25508"/>
<path d="M578.687 100.832C576.646 100.832 574.824 100.336 573.221 99.3452C571.617 98.354 570.349 96.9983 569.416 95.2782C568.483 93.5581 568.017 91.6048 568.017 89.4182C568.017 87.2317 568.483 85.2929 569.416 83.602C570.349 81.8819 571.617 80.5408 573.221 79.5787C574.824 78.5875 576.646 78.0918 578.687 78.0918C580.32 78.0918 581.748 78.398 582.973 79.0102C584.197 79.6224 585.188 80.4825 585.946 81.5903V70.4904L591.544 69.5033V100.307H586.559L585.946 97.2024C585.247 98.1645 584.314 99.0099 583.148 99.7388C582.011 100.468 580.524 100.832 578.687 100.832ZM579.868 95.9342C581.675 95.9342 583.148 95.3365 584.285 94.1412C585.451 92.9167 586.034 91.357 586.034 89.4619C586.034 87.5669 585.451 86.0218 584.285 84.8264C583.148 83.602 581.675 82.9897 579.868 82.9897C578.089 82.9897 576.617 83.5874 575.451 84.7827C574.285 85.978 573.702 87.5232 573.702 89.4182C573.702 91.3132 574.285 92.873 575.451 94.0975C576.617 95.3219 578.089 95.9342 579.868 95.9342Z" fill="white"/>
<ellipse cx="597.648" cy="96.7326" rx="3.80227" ry="3.80227" fill="white"/>
<g style="mix-blend-mode:darken">
<rect x="426" y="159" width="42.2114" height="26.3821" rx="13.1911" fill="#DCDCDC"/>
<g clip-path="url(#clip1_844_7304)">
<path d="M450.786 165.01C451.299 165.01 451.721 165.01 452.142 165.01C452.751 165.01 453.362 165.03 453.969 165.001C454.29 164.986 454.512 165.105 454.731 165.311C456.97 167.414 456.918 170.837 454.611 172.879C454.555 172.928 454.498 172.976 454.434 173.031C454.657 173.186 454.888 173.318 455.085 173.488C455.717 174.029 456.063 174.754 456.103 175.552C456.167 176.856 456.12 178.165 456.12 179.497H452.93C452.93 179.386 452.93 179.273 452.93 179.161C452.929 178.16 452.941 177.159 452.921 176.159C452.893 174.792 452.253 173.796 451.027 173.175C450.964 173.143 450.904 173.104 450.813 173.051C452.16 172.026 453.129 170.81 453.133 169.051C453.137 167.295 452.185 166.069 450.785 165.01H450.786Z" fill="#515151"/>
<path d="M447.506 173.053C448.381 173.467 448.872 174.172 449.103 175.068C449.172 175.335 449.236 175.611 449.24 175.883C449.254 177.083 449.246 178.283 449.246 179.503H446.033C446.033 179.376 446.034 179.253 446.033 179.13C446.022 178.066 446.042 177.001 445.99 175.939C445.929 174.688 445.278 173.789 444.176 173.203C444.095 173.16 444.015 173.114 443.898 173.049C445.267 172.036 446.223 170.799 446.227 169.053C446.23 167.311 445.294 166.065 443.972 165.01C444.372 165.01 444.772 165.01 445.173 165.01C445.825 165.01 446.477 165.021 447.128 165.004C447.385 164.997 447.569 165.084 447.752 165.252C450.031 167.339 450.038 170.721 447.761 172.816C447.683 172.888 447.606 172.96 447.506 173.053V173.053Z" fill="#515151"/>
<path d="M436.999 173.051C440.118 170.781 440.06 167.235 437.01 165.037C437.119 165.026 437.196 165.011 437.273 165.011C438.289 165.01 439.303 165.004 440.318 165.017C440.461 165.019 440.632 165.084 440.741 165.177C443.132 167.209 443.159 170.795 440.805 172.861C440.741 172.916 440.679 172.974 440.596 173.05C441.532 173.505 442.034 174.271 442.237 175.248C442.29 175.507 442.33 175.773 442.332 176.037C442.342 177.185 442.337 178.333 442.337 179.502H439.123C439.123 179.281 439.123 179.062 439.123 178.842C439.123 178.044 439.12 177.246 439.123 176.447C439.131 174.938 438.516 173.803 437.123 173.134C437.086 173.117 437.055 173.09 436.998 173.052L436.999 173.051Z" fill="#515151"/>
</g>
</g>
<rect x="135.953" y="56.1473" width="42.2114" height="26.3821" rx="13.1911" fill="#DCDCDC"/>
<rect width="21.1057" height="21.1057" transform="translate(146.506 58.7855)" fill="#DCDCDC"/>
<path d="M161.672 71.9727V62.5314H159.111V63.1634C158.249 62.6089 157.245 62.3146 156.219 62.3158C153.246 62.3158 150.826 64.7464 150.826 67.7344C150.826 70.7225 153.246 73.1531 156.22 73.1531C157.233 73.1546 158.226 72.8679 159.082 72.3264C159.082 72.4094 159.078 72.484 159.078 72.5343C159.078 74.1047 157.804 75.3849 156.241 75.3849C155.709 75.3836 155.189 75.2322 154.739 74.9481L153.473 77.1757C154.308 77.685 155.267 77.9553 156.245 77.9571C159.219 77.9571 161.672 75.5258 161.672 72.5378C161.672 72.4219 161.679 72.0808 161.672 71.9727ZM156.22 70.5843C154.657 70.5843 153.382 69.3048 153.382 67.7344C153.382 66.1633 154.656 64.8838 156.22 64.8838C157.783 64.8838 159.057 66.1633 159.057 67.7344C159.057 69.3048 157.783 70.585 156.22 70.585V70.5843Z" fill="#515151"/>
<rect x="146.506" y="197.951" width="42.2114" height="26.3821" rx="13.1911" fill="#DCDCDC"/>
<rect width="21.1057" height="21.1057" transform="translate(157.059 200.589)" fill="#DCDCDC"/>
<path fill-rule="evenodd" clip-rule="evenodd" d="M157.597 211.448C157.597 214.358 159.955 216.716 162.865 216.716H163.618V214.76H162.865C161.039 214.76 159.554 213.274 159.554 211.448C159.554 209.622 161.039 208.137 162.865 208.137H164.674V218.372C164.674 219.453 165.55 220.329 166.63 220.329V206.18H162.865C159.955 206.18 157.597 208.539 157.597 211.448ZM171.9 206.181H171.147V208.137H171.9C173.725 208.137 175.211 209.623 175.211 211.449C175.211 213.275 173.725 214.761 171.9 214.761H170.09V204.525C170.09 203.444 169.214 202.568 168.133 202.568V216.717H171.9C174.809 216.717 177.168 214.359 177.168 211.449C177.168 208.539 174.809 206.181 171.9 206.181Z" fill="#515151"/>
<rect x="350.308" y="130.017" width="42.2114" height="26.3821" rx="13.1911" fill="#DCDCDC"/>
<rect width="21.1057" height="21.1057" transform="translate(360.86 132.656)" fill="#DCDCDC"/>
<path d="M370.285 139.847V136.071L373.973 138.925C375.251 139.927 375.493 141.384 375.463 141.348C374.631 140.315 373.521 139.861 372.756 139.849L370.285 139.847Z" fill="#515151" fill-opacity="0.5"/>
<path d="M372.701 147.197C372.701 147.642 372.315 148.007 371.879 148.007H369.523V143.254H371.879C372.318 143.254 372.701 143.615 372.701 144.064V147.197ZM369.542 140.665V135.953H366.796V150.646H372.542C374.158 150.646 375.468 149.271 375.468 147.573V143.737C375.468 142.04 374.158 140.665 372.542 140.665H369.542Z" fill="#515151"/>
<rect x="257.971" y="281.055" width="42.2114" height="26.3821" rx="13.1911" fill="#DCDCDC"/>
<rect width="21.1057" height="21.1057" transform="translate(268.523 283.693)" fill="#DCDCDC"/>
<path d="M279.643 295.802C279.203 295.053 275.26 287.99 275.26 287.99C274.602 286.975 273.244 286.686 272.224 287.344L272.175 287.38C271.161 288.092 270.92 289.493 271.626 290.507L277.096 300.293C277.53 300.915 278.249 301.271 279.01 301.253C279.764 301.284 280.489 300.927 280.917 300.306L283.224 296.164C282.541 297.07 281.261 297.263 280.338 296.605C280.066 296.375 279.831 296.11 279.643 295.808V295.802Z" fill="#515151"/>
<path d="M285.784 287.374C284.751 286.685 283.357 286.963 282.662 287.996L279.275 294.051C279.613 294.673 279.885 295.125 279.988 295.288C280.163 295.572 280.374 295.826 280.61 296.055C281.896 296.955 283.181 296.007 283.592 295.5L286.393 290.495C287.082 289.463 286.804 288.074 285.784 287.38V287.374Z" fill="#515151"/>
<rect x="214.44" y="272.481" width="42.2114" height="26.3821" rx="13.1911" fill="#DCDCDC"/>
<rect width="21.1057" height="21.1057" transform="translate(224.993 275.119)" fill="#DCDCDC"/>
<path fill-rule="evenodd" clip-rule="evenodd" d="M236.662 277.872C236.68 277.903 236.695 277.93 236.707 277.949C237.205 278.738 240.99 284.793 240.989 286.995C240.989 289.275 239.913 290.644 237.286 292.937C237.286 292.937 236.447 293.589 235.63 293.589C234.877 293.589 234.203 293.147 234.203 293.147C231.457 290.963 230.27 289.274 230.27 286.995C230.27 284.793 234.025 278.785 234.522 277.996C234.528 277.986 234.535 277.975 234.544 277.961C234.679 277.742 235.078 277.098 235.63 277.098C236.223 277.098 236.525 277.63 236.662 277.872ZM236.224 285.789L238.637 283.851C237.952 282.466 237.061 280.872 236.224 279.459V285.789ZM231.458 286.995C231.458 285.859 233.356 282.293 235.037 279.459V292.075C234.588 291.866 234.204 291.523 234.204 291.523C231.889 289.355 231.458 288.585 231.458 286.995ZM236.224 292.076C236.673 291.867 237.057 291.523 237.057 291.523C239.371 289.355 239.803 288.585 239.803 286.995C239.803 286.592 239.563 285.882 239.179 285.007L239.158 284.962L236.224 287.319V292.076Z" fill="#515151"/>
<rect x="197.292" y="314.032" width="42.2114" height="26.3821" rx="13.1911" fill="#DCDCDC"/>
<rect width="21.1057" height="21.1057" transform="translate(207.845 316.671)" fill="#DCDCDC"/>
<path d="M218.189 321.347L217.14 322.397C216.586 322.951 216.586 323.849 217.14 324.404L218.189 325.453V326.626C218.189 326.982 217.9 327.271 217.544 327.271H217.305C216.535 326.781 215.621 326.497 214.641 326.497C213.661 326.497 212.747 326.781 211.977 327.271H211.738C211.382 327.271 211.093 326.982 211.093 326.626V320.82C211.093 320.463 211.382 320.174 211.738 320.174H217.544C217.9 320.174 218.189 320.463 218.189 320.82V321.347Z" fill="#515151"/>
<path d="M218.835 331.464C218.835 329.148 216.958 327.271 214.642 327.271C212.326 327.271 210.448 329.148 210.448 331.464C210.448 333.78 212.326 335.658 214.642 335.658C216.958 335.658 218.835 333.78 218.835 331.464Z" fill="#515151"/>
<path d="M218.836 334.129C219.326 333.359 219.61 332.445 219.61 331.464C219.61 330.484 219.326 329.57 218.836 328.8V328.561C218.836 328.205 219.125 327.916 219.481 327.916H225.287C225.644 327.916 225.932 328.205 225.932 328.561V334.367C225.932 334.724 225.644 335.013 225.287 335.013H219.481C219.125 335.013 218.836 334.724 218.836 334.367V334.129Z" fill="#515151"/>
<path d="M217.688 322.944C217.436 323.196 217.436 323.604 217.688 323.856L220.974 327.142H223.526L226.812 323.856C227.064 323.604 227.064 323.196 226.812 322.944L222.706 318.838C222.454 318.586 222.046 318.586 221.794 318.838L217.688 322.944Z" fill="#515151"/>
<rect x="163.654" y="301.501" width="42.2114" height="26.3821" rx="13.1911" fill="#DCDCDC"/>
<rect width="21.1057" height="21.1057" transform="translate(174.207 304.139)" fill="#DCDCDC"/>
<path d="M186.883 321.605C190.812 321.605 193.994 318.422 193.994 314.493C193.994 310.564 190.812 307.381 186.883 307.381H178.981V308.963H186.883C189.936 308.963 192.413 311.44 192.413 314.493C192.413 317.546 189.936 320.023 186.883 320.023H180.562V313.702H175.822V315.284H178.981V321.605H186.883ZM186.883 318.442C189.064 318.442 190.832 316.674 190.832 314.493C190.832 312.312 189.064 310.544 186.883 310.544H175.822V312.125H186.883C188.192 312.125 189.255 313.187 189.255 314.497C189.255 315.807 188.192 316.869 186.883 316.869H183.724V315.288H186.883V313.706H182.143V318.446H186.883V318.442Z" fill="#515151"/>
<rect x="473.645" y="237.524" width="42.2114" height="26.3821" rx="13.1911" fill="#DCDCDC"/>
<rect width="21.1057" height="21.1057" transform="translate(484.197 240.163)" fill="#DCDCDC"/>
<path d="M500.027 246.795V249.556C500.027 251.758 498.951 252.881 494.543 252.881H493.404V257.971H488.814V243.46H494.543C498.951 243.46 500.027 244.588 500.027 246.795ZM495.441 246.93C495.441 246.569 495.201 246.434 494.552 246.434H493.404V249.917H494.543C495.201 249.917 495.432 249.791 495.432 249.416L495.441 246.93Z" fill="#515151"/>
<rect x="559.386" y="171.569" width="42.2114" height="26.3821" rx="13.1911" fill="#DCDCDC"/>
<rect width="21.1057" height="21.1057" transform="translate(569.938 174.208)" fill="#DCDCDC"/>
<path fill-rule="evenodd" clip-rule="evenodd" d="M584.708 182.168L590.079 180.756C590.296 180.699 590.428 180.837 590.371 181.065C590.371 181.065 589.76 183.508 589.496 184.563C589.421 184.863 589.219 185.111 588.948 185.235C588.065 185.638 585.974 186.593 584.12 187.44C584.798 186.599 585.205 185.519 585.205 184.341C585.205 184.315 585.205 184.289 585.204 184.263L588.587 183.109L588.775 182.415L585.131 183.478C585.05 183.015 584.906 182.575 584.708 182.168ZM575.835 182.053L570.902 180.756C570.685 180.699 570.554 180.837 570.611 181.065C570.611 181.065 571.222 183.508 571.486 184.563C571.561 184.863 571.763 185.111 572.034 185.235C572.756 185.564 574.287 186.264 575.835 186.971V184.283L572.395 183.109L572.207 182.415L575.835 183.473V182.053ZM578.391 180.743H576.417V190.037H578.454V187.976C579.053 188.333 579.749 188.538 580.491 188.538C582.741 188.538 584.565 186.659 584.565 184.341C584.565 182.023 582.741 180.144 580.491 180.144C579.723 180.144 579.005 180.363 578.391 180.743ZM580.491 186.439C581.616 186.439 582.528 185.5 582.528 184.341C582.528 183.182 581.616 182.242 580.491 182.242C579.366 182.242 578.454 183.182 578.454 184.341C578.454 185.5 579.366 186.439 580.491 186.439Z" fill="#515151"/>
<defs>
<clipPath id="clip0_844_7304">
<rect width="217.652" height="221.61" fill="white" transform="translate(223.674 81.8699)"/>
</clipPath>
<clipPath id="clip1_844_7304">
<rect width="19.3784" height="14.5032" fill="white" transform="translate(437 165)"/>
</clipPath>
</defs>
</svg>
