<svg width="69" height="25" viewBox="0 0 69 25" fill="none" xmlns="http://www.w3.org/2000/svg">
<path d="M28.9987 23.7045C27.2521 23.7045 25.6948 23.3678 24.3269 22.6943C22.9591 22.0209 21.8753 21.0424 21.0756 19.7587C20.297 18.4539 19.9076 16.9072 19.9076 15.1184C19.9076 13.2455 20.2864 11.5936 21.044 10.1625C21.8016 8.73155 22.8538 7.62673 24.2007 6.84809C25.5685 6.04842 27.1363 5.64858 28.904 5.64858C30.7349 5.64858 32.2711 6.04842 33.5127 6.84809C34.7543 7.62673 35.6802 8.75259 36.2905 10.2257C36.9218 11.6988 37.227 13.4454 37.2059 15.4657H21.6438V12.53H34.7753L32.9129 13.9189C32.9129 12.8878 32.7656 11.9829 32.471 11.2042C32.1974 10.4256 31.7555 9.8048 31.1452 9.34183C30.556 8.87886 29.8089 8.64737 28.904 8.64737C27.9781 8.64737 27.1679 8.8999 26.4734 9.40496C25.779 9.91002 25.2423 10.6466 24.8635 11.6146C24.4848 12.5826 24.2954 13.719 24.2954 15.0237C24.2954 16.1812 24.4953 17.1808 24.8951 18.0225C25.316 18.8643 25.8842 19.5062 26.5997 19.9481C27.3362 20.369 28.1464 20.5794 29.0303 20.5794C30.2509 20.5794 31.261 20.2532 32.0606 19.6008C32.8814 18.9274 33.4811 18.0857 33.8599 17.0756L37.4269 19.2221C36.4168 20.7372 35.1857 21.8631 33.7337 22.5996C32.3027 23.3362 30.7243 23.7045 28.9987 23.7045Z" fill="white"/>
<path d="M47.5451 23.7045C45.7984 23.7045 44.2412 23.3678 42.8733 22.6943C41.5054 22.0209 40.4217 21.0424 39.622 19.7587C38.8434 18.4539 38.454 16.9072 38.454 15.1184C38.454 13.2455 38.8328 11.5936 39.5904 10.1625C40.348 8.73155 41.4002 7.62673 42.747 6.84809C44.1149 6.04842 45.6827 5.64858 47.4504 5.64858C49.2813 5.64858 50.8175 6.04842 52.0591 6.84809C53.3007 7.62673 54.2266 8.75259 54.8369 10.2257C55.4682 11.6988 55.7734 13.4454 55.7523 15.4657H40.1902V12.53H53.3217L51.4593 13.9189C51.4593 12.8878 51.312 11.9829 51.0174 11.2042C50.7438 10.4256 50.3019 9.8048 49.6916 9.34183C49.1024 8.87886 48.3553 8.64737 47.4504 8.64737C46.5245 8.64737 45.7143 8.8999 45.0198 9.40496C44.3254 9.91002 43.7887 10.6466 43.4099 11.6146C43.0311 12.5826 42.8417 13.719 42.8417 15.0237C42.8417 16.1812 43.0417 17.1808 43.4415 18.0225C43.8624 18.8643 44.4306 19.5062 45.1461 19.9481C45.8826 20.369 46.6928 20.5794 47.5767 20.5794C48.7972 20.5794 49.8074 20.2532 50.607 19.6008C51.4278 18.9274 52.0275 18.0857 52.4063 17.0756L55.9733 19.2221C54.9632 20.7372 53.7321 21.8631 52.2801 22.5996C50.849 23.3362 49.2707 23.7045 47.5451 23.7045Z" fill="white"/>
<path d="M57.1583 0.69268H61.3881V19.1589C61.3881 20.6531 61.4618 22.0209 61.6091 23.2625H57.1583V0.69268Z" fill="white"/>
<path d="M0.289062 14.6885C0.289062 8.43686 4.27973 5.65878 8.65559 5.65878C12.6493 5.65878 14.3334 8.19628 14.3334 8.19628V0.701057H18.6589V19.1723C18.6589 20.6885 18.7111 22.0567 18.8169 23.2767H14.3348V21.2035C14.3348 21.2035 12.6185 23.7182 8.657 23.7182C4.43372 23.7182 0.289062 21.2948 0.289062 14.6885ZM9.76037 20.3992C12.8239 20.3992 14.8045 18.0675 14.8045 14.6885C14.8045 11.1912 12.8225 8.97772 9.76037 8.97772C6.69829 8.97772 4.78945 11.082 4.78945 14.6885C4.78945 18.295 6.77869 20.3992 9.76037 20.3992Z" fill="white"/>
<path d="M64.123 19.2222H68.2898V23.2626H64.123V19.2222Z" fill="white"/>
</svg>
