<?xml version="1.0" encoding="utf-8"?>
<!-- Generator: Adobe Illustrator 16.0.0, SVG Export Plug-In . SVG Version: 6.00 Build 0)  -->
<!DOCTYPE svg PUBLIC "-//W3C//DTD SVG 1.1//EN" "http://www.w3.org/Graphics/SVG/1.1/DTD/svg11.dtd">
<svg version="1.1" id="Layer_1" xmlns="http://www.w3.org/2000/svg" xmlns:xlink="http://www.w3.org/1999/xlink" x="0px" y="0px"
	 width="211.5px" height="68px" viewBox="0 0 211.5 68" enable-background="new 0 0 211.5 68" xml:space="preserve">
<g>
	<g>
		<path fill="#131110" d="M97.979,30.25c0,3.635-0.684,6.785-2.049,9.455s-3.141,4.857-5.328,6.562
			c-2.209,1.707-4.688,2.981-7.438,3.824c-2.75,0.844-5.592,1.266-8.521,1.266H56.938V49.22c0.582,0,1.34-0.056,2.273-0.165
			c0.934-0.111,1.551-0.236,1.852-0.377c0.602-0.262,1.039-0.648,1.311-1.16c0.27-0.512,0.406-1.128,0.406-1.851V14.833
			c0-0.682-0.115-1.294-0.348-1.836c-0.229-0.542-0.686-0.974-1.369-1.295c-0.621-0.301-1.295-0.521-2.018-0.662
			s-1.344-0.231-1.865-0.271V8.631h18.668c2.568,0,5.098,0.396,7.588,1.189c2.486,0.793,4.656,1.861,6.504,3.206
			c2.508,1.787,4.475,4.125,5.9,7.017C97.266,22.934,97.979,26.336,97.979,30.25z M90.602,30.235c0-2.868-0.383-5.461-1.145-7.778
			c-0.764-2.316-1.877-4.337-3.342-6.062c-1.385-1.646-3.088-2.938-5.104-3.881c-2.018-0.942-4.262-1.415-6.73-1.415
			c-0.822,0-1.752,0.016-2.785,0.045c-1.035,0.031-1.803,0.056-2.303,0.076v32.824c0,1.824,0.531,3.088,1.594,3.79
			c1.064,0.702,2.701,1.054,4.91,1.054c2.549,0,4.775-0.451,6.684-1.354c1.906-0.902,3.453-2.157,4.637-3.762
			c1.244-1.684,2.152-3.635,2.725-5.852S90.602,33.143,90.602,30.235z"/>
		<path fill="#131110" d="M128.84,44.371c-1.244,2.369-2.91,4.256-4.998,5.66c-2.088,1.406-4.486,2.109-7.195,2.109
			c-2.389,0-4.482-0.422-6.279-1.266c-1.795-0.844-3.275-1.986-4.441-3.432c-1.164-1.445-2.031-3.133-2.604-5.059
			c-0.572-1.928-0.857-3.965-0.857-6.113c0-1.928,0.305-3.818,0.918-5.676c0.613-1.855,1.51-3.527,2.695-5.013
			c1.143-1.425,2.562-2.575,4.259-3.448c1.697-0.872,3.598-1.31,5.707-1.31c2.168,0,4.023,0.341,5.57,1.024
			c1.545,0.682,2.799,1.615,3.764,2.8c0.922,1.124,1.609,2.449,2.062,3.975c0.451,1.525,0.676,3.182,0.676,4.968v1.987h-19.66
			c0,1.952,0.184,3.722,0.557,5.312c0.371,1.589,0.959,2.986,1.762,4.194c0.781,1.166,1.807,2.088,3.07,2.762
			c1.266,0.674,2.771,1.01,4.518,1.01c1.785,0,3.326-0.418,4.621-1.256c1.295-0.837,2.545-2.345,3.748-4.524L128.84,44.371z
			 M122.186,33.05c0-1.12-0.094-2.321-0.285-3.601c-0.191-1.282-0.496-2.353-0.918-3.214c-0.463-0.92-1.094-1.671-1.896-2.251
			c-0.805-0.581-1.838-0.871-3.102-0.871c-2.109,0-3.859,0.876-5.254,2.627c-1.396,1.752-2.154,4.188-2.273,7.31H122.186z"/>
		<path fill="#131110" d="M146.184,51.357h-14.482v-1.988c0.461-0.039,0.953-0.084,1.475-0.135c0.523-0.05,0.953-0.126,1.295-0.227
			c0.562-0.181,0.984-0.497,1.266-0.948c0.281-0.452,0.422-1.039,0.422-1.764v-34.41c0-0.724-0.156-1.401-0.467-2.034
			c-0.312-0.632-0.719-1.129-1.221-1.49c-0.361-0.241-1.023-0.462-1.986-0.663c-0.965-0.202-1.736-0.321-2.318-0.361V5.409
			l11.17-0.662l0.422,0.451v40.739c0,0.703,0.131,1.279,0.391,1.73c0.262,0.451,0.684,0.799,1.266,1.039
			c0.441,0.201,0.879,0.352,1.311,0.453c0.43,0.1,0.918,0.17,1.459,0.209V51.357z"/>
		<path fill="#131110" d="M179.244,23.505c-0.902,0.161-1.76,0.487-2.574,0.979c-0.812,0.49-1.51,1.359-2.092,2.604
			c-1.186,2.69-2.41,5.496-3.674,8.416c-1.264,2.922-2.58,5.987-3.943,9.199c-0.402,0.924-0.83,2.018-1.281,3.281
			c-0.451,1.265-0.867,2.48-1.248,3.644h-2.35c-1.908-4.717-3.662-9.018-5.27-12.902c-1.605-3.884-3.271-7.863-4.998-11.938
			c-0.402-0.923-1.049-1.641-1.943-2.153c-0.893-0.511-1.789-0.838-2.693-0.978v-1.988h13.74v2.109
			c-0.602,0.019-1.355,0.145-2.26,0.375c-0.902,0.23-1.354,0.546-1.354,0.945c0,0.062,0.049,0.217,0.15,0.468
			c0.1,0.251,0.201,0.536,0.301,0.856c0.82,2.045,1.982,4.903,3.482,8.572c1.502,3.67,2.723,6.627,3.664,8.875
			c0.723-1.727,1.631-3.871,2.725-6.438c1.094-2.566,2.273-5.434,3.539-8.602c0.201-0.541,0.391-1.048,0.572-1.519
			c0.18-0.473,0.271-0.948,0.271-1.43c0-0.34-0.166-0.646-0.498-0.917c-0.33-0.271-0.729-0.506-1.189-0.706
			c-0.461-0.201-0.912-0.352-1.354-0.451c-0.441-0.101-0.805-0.17-1.084-0.211v-1.928h11.359V23.505z"/>
		<path fill="#131110" d="M178.281,61.053c0-1.004,0.275-1.822,0.828-2.453c0.551-0.633,1.238-0.949,2.062-0.949
			c0.641,0,1.193,0.119,1.656,0.358c0.461,0.239,0.873,0.546,1.232,0.926c0.303,0.299,0.623,0.708,0.965,1.225
			c0.34,0.518,0.611,0.946,0.812,1.284c1.002-0.541,2.201-1.952,3.596-4.236c1.395-2.282,2.404-4.285,3.027-6.008
			c-1.908-4.756-3.633-9.01-5.178-12.762c-1.547-3.753-3.162-7.637-4.846-11.65c-0.383-0.923-1.025-1.641-1.928-2.153
			c-0.902-0.511-1.807-0.838-2.711-0.978v-1.988h13.557v2.109c-0.604,0.019-1.326,0.145-2.17,0.376
			c-0.842,0.229-1.264,0.495-1.264,0.797c0,0.12,0.045,0.321,0.135,0.601c0.092,0.281,0.197,0.572,0.316,0.873
			c0.762,1.986,1.922,4.85,3.484,8.59c1.561,3.74,2.773,6.734,3.633,8.979c0.904-2.145,1.844-4.366,2.818-6.663
			s2.064-5.009,3.271-8.139c0.141-0.381,0.34-0.907,0.604-1.578c0.26-0.674,0.391-1.249,0.391-1.73c0-0.522-0.457-1.009-1.369-1.46
			c-0.914-0.451-1.781-0.727-2.605-0.827v-1.928h11.025v1.868c-0.602,0.101-1.395,0.446-2.379,1.038
			c-0.982,0.593-1.715,1.431-2.197,2.514c-2.389,5.541-4.512,10.589-6.369,15.146c-1.855,4.557-3.266,7.908-4.229,10.056
			c-1.266,2.812-2.395,5.004-3.389,6.579c-0.992,1.576-1.961,2.815-2.906,3.719c-0.922,0.844-1.76,1.41-2.514,1.702
			c-0.752,0.29-1.529,0.437-2.332,0.437c-1.566,0-2.797-0.372-3.689-1.115C178.729,62.869,178.281,62.016,178.281,61.053z"/>
	</g>
	<g>
		<path fill="#8E1020" d="M26.884,36.063c-2.921-6.658-3.093-13.715-1.341-19.188c3.405,8.102,11.316,13.35,14.492,19.138
			c1.584,2.889,1.916,5.896,1.279,8.121c3.281-3.795,5.267-8.743,5.267-14.155c0-11.961-9.698-21.657-21.658-21.657
			c-11.961,0-21.659,9.696-21.659,21.657c0,11.963,9.698,21.658,21.659,21.658c0.612,0,1.222-0.028,1.824-0.077
			c-2.498-0.681-5.12-2.364-6.999-5.039c-2.792-3.975-3.835-8.569-3.412-12.383c5.806,9.146,10.144,8.743,13.074,12.033
			c1.507,1.688,1.626,3.533,1.309,4.68c3.046-0.844,5.818-2.336,8.167-4.318C34.323,45.849,29.617,42.292,26.884,36.063z"/>
	</g>
</g>
</svg>
