<svg width="126" height="25" viewBox="0 0 126 25" fill="none" xmlns="http://www.w3.org/2000/svg">
<path d="M35.498 4.82617H41.3373C45.0646 4.82617 48.1378 6.9284 48.1378 11.7334V12.7471C48.1378 17.5897 45.2568 19.767 41.4534 19.767H35.498V4.82617ZM38.7635 7.52911V17.0265H41.2612C43.3745 17.0265 44.795 15.6751 44.795 12.6719V11.8837C44.795 8.88052 43.2971 7.52911 41.1451 7.52911H38.7635ZM49.8666 7.67922H52.4792L52.9024 10.4946C53.4017 8.58016 54.6686 7.56664 56.9741 7.56664H57.7817V10.795H56.4361C53.7861 10.795 53.132 11.6959 53.132 14.2486V19.8045H49.9053V7.67922H49.8666ZM58.4346 13.9858V13.648C58.4346 9.59369 61.0846 7.37887 64.697 7.37887C68.3844 7.37887 70.9595 9.59369 70.9595 13.648V13.9858C70.9595 17.9651 68.4618 20.1047 64.697 20.1047C60.7014 20.0672 58.4346 17.9651 58.4346 13.9858ZM67.6554 13.9483V13.648C67.6554 11.3957 66.502 10.0442 64.6583 10.0442C62.8521 10.0442 61.6613 11.283 61.6613 13.648V13.9483C61.6613 16.1256 62.8134 17.3644 64.6583 17.3644C66.502 17.3268 67.6554 16.1256 67.6554 13.9483ZM72.6496 7.67922H75.3383L75.6454 9.9691C76.2995 8.43005 77.6826 7.37887 79.7184 7.37887C82.869 7.37887 84.9436 9.59369 84.9436 13.6856V14.0234C84.9436 18.0026 82.6381 20.1047 79.7184 20.1047C77.7587 20.1047 76.4143 19.2413 75.7615 17.8524V23.9713H72.6109L72.6496 7.67922ZM81.6782 13.9483V13.6856C81.6782 11.283 80.41 10.0817 78.7198 10.0817C76.9136 10.0817 75.7228 11.4332 75.7228 13.6856V13.9107C75.7228 16.0505 76.8749 17.4019 78.6811 17.4019C80.5248 17.3644 81.6782 16.2007 81.6782 13.9483ZM89.7069 17.5521L89.4385 19.767H86.6724V3.625H89.823V9.81898C90.5145 8.24228 91.8976 7.37887 93.8561 7.37887C96.8144 7.4164 99.0051 9.40604 99.0051 13.4227V13.7982C99.0051 17.8148 96.9305 20.1047 93.7799 20.1047C91.7054 20.0672 90.361 19.1287 89.7069 17.5521ZM95.701 13.7982V13.4978C95.701 11.283 94.4715 10.0442 92.7426 10.0442C90.9751 10.0442 89.7456 11.4332 89.7456 13.5353V13.7982C89.7456 16.0505 90.9364 17.3644 92.704 17.3644C94.5863 17.3644 95.701 16.2007 95.701 13.7982ZM100.388 13.9858V13.648C100.388 9.59369 103.039 7.37887 106.651 7.37887C110.338 7.37887 112.913 9.59369 112.913 13.648V13.9858C112.913 17.9651 110.377 20.1047 106.651 20.1047C102.655 20.0672 100.388 17.9651 100.388 13.9858ZM109.646 13.9483V13.648C109.646 11.3957 108.494 10.0442 106.651 10.0442C104.844 10.0442 103.654 11.283 103.654 13.648V13.9483C103.654 16.1256 104.806 17.3644 106.651 17.3644C108.494 17.3268 109.646 16.1256 109.646 13.9483ZM117.138 13.4978L112.797 7.67922H116.524L119.021 11.3205L121.557 7.67922H125.245L120.827 13.4603L125.475 19.767H121.826L118.983 15.7501L116.217 19.767H112.413L117.138 13.4978Z" fill="white"/>
<path d="M15.4441 4.82671L8.22078 9.33141L15.4441 13.8361L8.22078 18.3409L0.998047 13.7986L8.22078 9.29388L0.998047 4.82671L8.22078 0.322021L15.4441 4.82671ZM8.18233 19.7674L15.4054 15.2627L22.6278 19.7674L15.4054 24.2721L8.18233 19.7674ZM15.4441 13.7986L22.6665 9.29388L15.4441 4.82671L22.6278 0.322021L29.8501 4.82671L22.6278 9.33141L29.8501 13.8361L22.6278 18.3409L15.4441 13.7986Z" fill="white"/>
</svg>
