<svg xmlns="http://www.w3.org/2000/svg" xmlns:xlink="http://www.w3.org/1999/xlink" width="1572.02" height="671.95" viewBox="0 0 1572.02 671.95"><defs><clipPath id="a" transform="translate(0 0)"><rect width="1572.02" height="671.95" fill="none"/></clipPath><clipPath id="b" transform="translate(0 0)"><rect width="1572.02" height="671.95" fill="none"/></clipPath></defs><title>brand_employeebenefitnews_logo_color</title><g clip-path="url(#a)"><g clip-path="url(#b)"><path d="M472.23,521.93C451.81,635.55,352.4,672,248.54,672,71,672,0,565.43,0,413.64c0-150,92.32-253.86,245-253.86,165.1,0,232.56,109.18,232.56,265.4a262.22,262.22,0,0,1-1.77,30.18H165.1c0,52.37,9.77,118.95,83.44,118.95,54.15,0,69.24-36.4,69.24-52.38ZM312.45,370.15c0-33.73-2.66-112.73-70.12-112.73-74.56,0-77.23,92.31-77.23,112.73Z" transform="translate(0 0)" fill="#48217a"/><path d="M523.71,97.64H474V0H688.82V240.55h1.77c14.2-45.27,70.12-80.77,146.46-80.77,182.86,0,182.86,200.6,182.86,256.53,0,126.93-47,255.64-189.07,255.64-72.79,0-121.61-24-150.9-91.43h-1.78v77.23H474V560.1h49.7ZM769.59,569c69.24,0,79.89-66.57,79.89-152.67,0-93.21-10.65-153.57-79.89-153.57-74.56,0-86.1,95-86.1,153.57,0,55,13.31,152.67,86.1,152.67" transform="translate(0 0)" fill="#48217a"/><path d="M1361.64,359.5c0-39.95,0-91.43-58.58-91.43-41.72,0-69.24,33.73-69.24,103V560.1h45.28v97.65H1019V560.1h49.71V271.62H1019V174h205v80.77h1.78c23.07-71,83.43-95,152.67-95,66.58,0,148.24,24.85,148.24,132.25V560.1H1572v97.65H1317.26V560.1h44.38Z" transform="translate(0 0)" fill="#48217a"/><polygon points="753.08 84.18 761.08 84.18 761.08 102.25 753.08 102.25 753.08 97.01 748.39 97.01 748.39 110.39 763.77 110.39 763.77 102.18 773.98 102.18 773.98 118.39 731.42 118.39 731.42 110.39 735.97 110.39 735.97 77.01 731.42 77.01 731.42 69.01 773.98 69.01 773.98 84.39 763.77 84.39 763.77 77.01 748.39 77.01 748.39 89.42 753.08 89.42 753.08 84.18" fill="#939598"/><path d="M827.21,94.18c0-3.1-.69-6.07-4.48-6.07-3.38,0-5.38,2.62-5.38,7.45V110.8h3.17v7.59H801.14V110.8h3.38V94.18c0-3.1-.69-6.07-4.48-6.07-3.38,0-5.38,2.62-5.38,7.45V110.8H798v7.59H778V110.8h3.86V88.39H778V80.8H793.9v6.28H794c1.79-5.52,6.48-7.38,11.86-7.38,5,0,9.72,2.2,10.41,6.55h.14c2-5.45,6.76-6.55,12.07-6.55S840,81.63,840,90V110.8h3.58v7.59H823.83V110.8h3.38Z" transform="translate(0 0)" fill="#939598"/><path d="M850.78,88.39h-3.86V80.8h15.86V87h.14c2.28-5.24,6.62-7.31,11.59-7.31,11.72,0,14.83,9.72,14.83,19.72,0,10.28-3,20.07-14.9,20.07-5,0-8.69-2.34-10.69-6.14h-.14V122h4.69v7.59H846.92V122h3.86Zm19.11,23.1c5.38,0,6.2-5.17,6.2-11.86,0-7.24-.82-11.93-6.2-11.93-5.79,0-6.69,7.38-6.69,11.93,0,4.27,1,11.86,6.69,11.86" transform="translate(0 0)" fill="#939598"/><polygon points="896.78 74.87 892.91 74.87 892.91 67.28 909.6 67.28 909.6 110.8 913.12 110.8 913.12 118.39 892.91 118.39 892.91 110.8 896.78 110.8 896.78 74.87" fill="#939598"/><path d="M935.26,79.7c12,0,19.17,8.27,19.17,19.93,0,11.45-7.38,19.86-19.17,19.86s-19.11-8.41-19.11-19.86c0-11.66,7.17-19.93,19.11-19.93m-5.87,19.86c0,8.62,2,11.93,5.94,11.93s5.86-3.31,5.86-11.86-2-11.93-5.93-11.93-5.87,3.38-5.87,11.86" transform="translate(0 0)" fill="#939598"/><path d="M957,80.8h19.59v7.59H973l5.66,16.27h.14L984,88.39H980.7V80.8h17.1v7.59h-2.21L981.8,121.15a16.92,16.92,0,0,1-4.35,6.69c-2.34,2-5.51,2.27-8.62,2.27-4.07,0-5.1-.34-5.79-.55v-8.62a19.74,19.74,0,0,0,4.48.76c2.76,0,3.59-1.66,4.35-3.17L959.73,88.39H957Z" transform="translate(0 0)" fill="#939598"/><path d="M1036.41,107.84c-1.58,8.82-9.31,11.65-17.38,11.65-13.79,0-19.31-8.27-19.31-20.07s7.18-19.72,19-19.72c12.83,0,18.07,8.48,18.07,20.62a20.1,20.1,0,0,1-.14,2.34h-24.14c0,4.07.76,9.24,6.48,9.24,4.21,0,5.38-2.82,5.38-4.06ZM1024,96c0-2.62-.21-8.76-5.45-8.76-5.79,0-6,7.18-6,8.76Z" transform="translate(0 0)" fill="#939598"/><path d="M1074.75,107.84c-1.58,8.82-9.31,11.65-17.38,11.65-13.79,0-19.31-8.27-19.31-20.07s7.18-19.72,19-19.72c12.82,0,18.07,8.48,18.07,20.62a20.1,20.1,0,0,1-.14,2.34h-24.14c0,4.07.76,9.24,6.48,9.24,4.21,0,5.38-2.82,5.38-4.06ZM1062.34,96c0-2.62-.21-8.76-5.45-8.76-5.79,0-6,7.18-6,8.76Z" transform="translate(0 0)" fill="#939598"/><path d="M1100,77h-4.55V69h26.69c8.21,0,15,2.83,15,12,0,6.41-3.38,11-9.86,12.07v.13c6.89.49,10.69,5,10.69,11.8,0,10.21-7.24,13.38-16.62,13.38h-25.87v-8H1100Zm16.7,12.41c4.89,0,7.58-1.58,7.58-6.83,0-5-3.17-6-7.58-6h-4.28V89.42Zm.89,21.38c4.35,0,7.52-2.07,7.52-6.69,0-5.24-2.41-7.1-7.52-7.1h-5.17V110.8Z" transform="translate(0 0)" fill="#939598"/><path d="M1178.25,107.84c-1.58,8.82-9.31,11.65-17.37,11.65-13.8,0-19.32-8.27-19.32-20.07s7.18-19.72,19-19.72c12.83,0,18.07,8.48,18.07,20.62a20.1,20.1,0,0,1-.14,2.34h-24.14c0,4.07.76,9.24,6.49,9.24,4.2,0,5.37-2.82,5.37-4.06ZM1165.84,96c0-2.62-.21-8.76-5.45-8.76-5.79,0-6,7.18-6,8.76Z" transform="translate(0 0)" fill="#939598"/><path d="M1206.94,95.21c0-3.1,0-7.1-4.55-7.1-3.24,0-5.38,2.62-5.38,8V110.8h3.51v7.59h-20.2V110.8h3.86V88.39h-3.86V80.8h15.93v6.28h.14c1.79-5.52,6.48-7.38,11.86-7.38,5.17,0,11.52,1.93,11.52,10.27V110.8h3.51v7.59h-19.79V110.8h3.45Z" transform="translate(0 0)" fill="#939598"/><path d="M1262.59,107.84c-1.59,8.82-9.32,11.65-17.38,11.65-13.8,0-19.32-8.27-19.32-20.07s7.18-19.72,19-19.72c12.83,0,18.07,8.48,18.07,20.62a20.1,20.1,0,0,1-.14,2.34h-24.14c0,4.07.76,9.24,6.49,9.24,4.2,0,5.38-2.82,5.38-4.06ZM1250.17,96c0-2.62-.21-8.76-5.45-8.76-5.79,0-6,7.18-6,8.76Z" transform="translate(0 0)" fill="#939598"/><path d="M1269.2,88.39h-4.55V80.8h4.55V77.7c0-8.21,5.86-11.59,13.38-11.59a46.6,46.6,0,0,1,7.86.76v8a17.61,17.61,0,0,0-4.07-.35c-3.51,0-4.34,1.8-4.34,4.14V80.8h6.21v7.59H1282V110.8h5.52v7.59H1265V110.8h4.21Z" transform="translate(0 0)" fill="#939598"/><path d="M1295.33,88.39h-3.86V80.8h16.69v30h3.52v7.59h-20.21V110.8h3.86Zm0-21.87h12.83V77.15h-12.83Z" transform="translate(0 0)" fill="#939598"/><path d="M1335.12,105h7v4.14c0,7.31-4.55,10.34-11.45,10.34-10.21,0-12.41-5-12.41-12.76V88.39H1314V80.8h4.28V75.35l12.82-4.48V80.8h8.49v7.59h-8.49V108c0,2.35.28,3.86,2.07,3.86s1.93-2.13,1.93-4Z" transform="translate(0 0)" fill="#939598"/><polygon points="1400.91 77.01 1395.6 77.01 1395.6 69.01 1415.12 69.01 1415.12 77.01 1411.12 77.01 1411.12 118.39 1394.63 118.39 1378.56 80.18 1378.43 80.18 1378.43 110.39 1383.88 110.39 1383.88 118.39 1363.67 118.39 1363.67 110.39 1368.22 110.39 1368.22 77.01 1363.67 77.01 1363.67 69.01 1385.67 69.01 1400.77 106.18 1400.91 106.18 1400.91 77.01" fill="#939598"/><path d="M1454.14,107.84c-1.58,8.82-9.31,11.65-17.38,11.65-13.79,0-19.31-8.27-19.31-20.07s7.18-19.72,19-19.72c12.82,0,18.07,8.48,18.07,20.62a20.1,20.1,0,0,1-.14,2.34h-24.14c0,4.07.76,9.24,6.48,9.24,4.21,0,5.38-2.82,5.38-4.06ZM1441.73,96c0-2.62-.21-8.76-5.45-8.76-5.79,0-6,7.18-6,8.76Z" transform="translate(0 0)" fill="#939598"/><polygon points="1504.9 88.39 1501.31 88.39 1501.31 80.8 1518.41 80.8 1518.41 88.39 1515.86 88.39 1507.66 118.39 1491.93 118.39 1487.38 91.49 1487.24 91.49 1481.93 118.39 1466.28 118.39 1458.2 88.39 1455.79 88.39 1455.79 80.8 1474.55 80.8 1474.55 88.39 1470.83 88.39 1474.89 109.42 1475.03 109.42 1480.62 80.8 1495.17 80.8 1500.62 109.42 1500.76 109.42 1504.9 88.39" fill="#939598"/><path d="M1544.82,80.8h9v12H1544c0-3.93-1.73-6.07-5.86-6.07-3.38,0-5.25,1.38-5.25,3.59,0,1.31,1,2.48,3.24,3.1l8,2.28c7.37,2.07,10.27,5,10.27,11.79,0,7.86-5.72,12-13.31,12-6.9,0-9-2.76-10.07-5h-.14v3.86h-9.38V105.56h10.21a8.22,8.22,0,0,0,1.31,5.1c1,1.18,2.48,1.8,4.83,1.8,3.24,0,5-1.73,5-3.73,0-1.79-.76-2.34-4.56-3.58l-6.62-2.21c-6.48-2.14-10.34-4.69-10.34-11.73,0-7.58,6.82-11.51,13.45-11.51a12.56,12.56,0,0,1,10.07,4.13Z" transform="translate(0 0)" fill="#939598"/></g></g></svg>