<svg width="182" height="78" viewBox="0 0 182 78" fill="none" xmlns="http://www.w3.org/2000/svg">
<g clip-path="url(#clip0_608_12791)">
<path d="M72.092 61.2304V16.7588H99.6863V27.7431H82.2014V34.0624H97.2992V43.4849H82.2014V50.0406H99.7985V61.2304H72.092ZM103.93 61.2304V16.7588H131.524V27.7431H114.029V34.0624H129.137V43.4849H114.029V50.0406H131.596V61.2304H103.93ZM143.49 61.2304C138.196 61.2304 135.523 58.6616 135.523 53.452V24.8968C135.523 19.4509 138.196 16.7588 143.49 16.7588H165.566V27.9383H147.316C147.08 27.9057 146.839 27.9287 146.613 28.0057C146.387 28.0826 146.182 28.2113 146.014 28.3816C145.846 28.5519 145.719 28.7593 145.644 28.9873C145.569 29.2152 145.548 29.4577 145.582 29.6954V48.2938C145.548 48.5315 145.569 48.7739 145.644 49.0019C145.719 49.2299 145.846 49.4372 146.014 49.6076C146.182 49.7779 146.387 49.9066 146.613 49.9835C146.839 50.0604 147.08 50.0835 147.316 50.0508H156.15V43.3924H150.519V34.1446H165.913V61.2304H143.49ZM36.0001 63.789L36.0511 63.7684L36.0919 63.789V63.7479L60.993 52.7944V41.7484L36.0511 52.7224L11.0989 41.7484V52.7944L36.0001 63.7479V63.789Z" fill="white"/>
<path d="M36.0001 50.1953L36.0511 50.1748L36.0919 50.1953V50.1645L60.9931 39.2007V28.165L36.0511 39.1391L11.0989 28.165V39.2007L36.0001 50.1645V50.1953Z" fill="#DB1E26"/>
<path d="M36.0001 36.6109L36.0511 36.5903L36.0919 36.6109V36.5698L60.9931 25.6163V14.5703L36.0511 25.5444L11.0989 14.5703V25.6163L36.0001 36.5698V36.6109Z" fill="white"/>
<path d="M36.0001 63.7779L36.0511 63.7573L36.0919 63.7779V63.7368L60.9931 52.7833V41.7373L36.0511 52.7114L11.0989 41.7373V52.7833L36.0001 63.7368V63.7779Z" fill="white"/>
</g>
<defs>
<clipPath id="clip0_608_12791">
<rect width="182" height="78" fill="white"/>
</clipPath>
</defs>
</svg>
