<svg width="172" height="142" viewBox="0 0 172 142" fill="none" xmlns="http://www.w3.org/2000/svg">
<path d="M128.429 135.296H5.51219C3.14258 135.296 1.20898 134.28 1.20898 133.013V50.3994C1.20898 49.1424 3.12362 48.1167 5.51219 48.1167H128.429C130.798 48.1167 132.732 49.1324 132.732 50.3994V133.023C132.732 134.28 130.817 135.296 128.429 135.296Z" fill="#F5F9FF" stroke="black" stroke-width="0.6"/>
<path d="M34.8363 121.228H35.3834L35.6544 120.479H37.207L37.4781 121.228H38.04L36.7585 117.778H36.1128L34.8363 121.228ZM35.822 120.001L36.4135 118.374H36.448L37.0394 120.001H35.822ZM39.5232 121.292C40.0358 121.292 40.2871 120.962 40.3561 120.864H40.3857V121.228H40.8934V117.532H40.3758V119.025H40.3413C40.2575 118.892 39.9914 118.586 39.4985 118.586C38.7789 118.586 38.2712 119.148 38.2712 119.947C38.2712 120.745 38.7838 121.292 39.5232 121.292ZM39.5971 120.824C39.1239 120.824 38.7986 120.479 38.7986 119.942C38.7986 119.424 39.1239 119.06 39.5922 119.06C40.0456 119.06 40.3906 119.385 40.3906 119.942C40.3906 120.43 40.09 120.824 39.5971 120.824ZM42.7095 121.292C43.2221 121.292 43.4735 120.962 43.5425 120.864H43.5721V121.228H44.0797V117.532H43.5622V119.025H43.5277C43.4439 118.892 43.1778 118.586 42.6849 118.586C41.9653 118.586 41.4576 119.148 41.4576 119.947C41.4576 120.745 41.9702 121.292 42.7095 121.292ZM42.7835 120.824C42.3103 120.824 41.985 120.479 41.985 119.942C41.985 119.424 42.3103 119.06 42.7785 119.06C43.232 119.06 43.577 119.385 43.577 119.942C43.577 120.43 43.2764 120.824 42.7835 120.824ZM47.2339 121.228H47.6627V120.79H47.3128C47.0417 120.79 46.9382 120.642 46.9382 120.395V119.074H47.6874V118.651H46.9382V117.921H46.4502V118.488C46.4502 118.591 46.3862 118.655 46.2974 118.655H45.9574V119.074H46.4207V120.41C46.4207 120.947 46.7262 121.228 47.2339 121.228ZM49.4796 121.292C50.2682 121.292 50.8399 120.711 50.8399 119.942C50.8399 119.173 50.278 118.586 49.4845 118.586C48.6909 118.586 48.1192 119.168 48.1192 119.942C48.1192 120.716 48.686 121.292 49.4796 121.292ZM49.4796 120.824C48.9965 120.824 48.6466 120.454 48.6466 119.942C48.6466 119.434 48.9916 119.06 49.4796 119.06C49.9675 119.06 50.3125 119.429 50.3125 119.942C50.3125 120.45 49.9675 120.824 49.4796 120.824ZM53.9651 121.292C54.5713 121.292 55.0938 120.928 55.2071 120.336H54.6797C54.591 120.627 54.3051 120.824 53.9749 120.824C53.4919 120.824 53.1567 120.45 53.1567 119.942C53.1567 119.444 53.4771 119.06 53.9651 119.06C54.3051 119.06 54.5861 119.257 54.6748 119.552H55.2071C55.0888 118.961 54.5713 118.586 53.9601 118.586C53.1765 118.586 52.6244 119.178 52.6244 119.942C52.6244 120.701 53.1666 121.292 53.9651 121.292ZM57.0171 121.292C57.8057 121.292 58.3775 120.711 58.3775 119.942C58.3775 119.173 57.8156 118.586 57.0221 118.586C56.2285 118.586 55.6568 119.168 55.6568 119.942C55.6568 120.716 56.2236 121.292 57.0171 121.292ZM57.0171 120.824C56.5341 120.824 56.1842 120.454 56.1842 119.942C56.1842 119.434 56.5292 119.06 57.0171 119.06C57.5051 119.06 57.8501 119.429 57.8501 119.942C57.8501 120.45 57.5051 120.824 57.0171 120.824ZM59.0015 121.228H59.519V119.725C59.519 119.35 59.7852 119.069 60.145 119.069C60.4703 119.069 60.7216 119.311 60.7216 119.671V121.228H61.2392V119.572C61.2392 119.015 60.8794 118.586 60.2928 118.586C59.9084 118.586 59.6422 118.784 59.5387 118.996H59.5042V118.651H59.0015V121.228ZM63.0503 121.228H63.4791V120.79H63.1292C62.8581 120.79 62.7546 120.642 62.7546 120.395V119.074H63.5038V118.651H62.7546V117.921H62.2667V118.488C62.2667 118.591 62.2026 118.655 62.1139 118.655H61.7738V119.074H62.2371V120.41C62.2371 120.947 62.5427 121.228 63.0503 121.228ZM64.118 121.228H64.6355V119.957C64.6355 119.479 64.8869 119.148 65.3255 119.148H65.5671V118.646H65.3403C64.9756 118.646 64.7292 118.892 64.6503 119.099H64.6158V118.651H64.118V121.228ZM67.1417 121.292C67.6543 121.292 67.9057 120.962 67.9747 120.864H68.0043V121.228H68.5119V118.651H67.9944V119.025H67.9599C67.8761 118.892 67.61 118.586 67.1171 118.586C66.3975 118.586 65.8898 119.148 65.8898 119.947C65.8898 120.745 66.4024 121.292 67.1417 121.292ZM67.2157 120.824C66.7425 120.824 66.4172 120.479 66.4172 119.942C66.4172 119.424 66.7425 119.06 67.2107 119.06C67.6642 119.06 68.0092 119.385 68.0092 119.942C68.0092 120.43 67.7085 120.824 67.2157 120.824ZM70.4168 121.292C71.0231 121.292 71.5455 120.928 71.6589 120.336H71.1315C71.0428 120.627 70.7569 120.824 70.4267 120.824C69.9437 120.824 69.6085 120.45 69.6085 119.942C69.6085 119.444 69.9289 119.06 70.4168 119.06C70.7569 119.06 71.0379 119.257 71.1266 119.552H71.6589C71.5406 118.961 71.0231 118.586 70.4119 118.586C69.6282 118.586 69.0762 119.178 69.0762 119.942C69.0762 120.701 69.6184 121.292 70.4168 121.292ZM73.3556 121.228H73.7844V120.79H73.4344C73.1633 120.79 73.0598 120.642 73.0598 120.395V119.074H73.809V118.651H73.0598V117.921H72.5719V118.488C72.5719 118.591 72.5078 118.655 72.4191 118.655H72.079V119.074H72.5423V120.41C72.5423 120.947 72.8479 121.228 73.3556 121.228Z" fill="black"/>
<path d="M35.1249 114.586H37.8092C38.8556 114.586 39.802 113.904 39.802 112.721C39.802 111.902 39.2924 111.447 38.8738 111.256V111.201C39.3106 110.937 39.5927 110.482 39.5927 109.909C39.5927 108.945 38.8738 108.217 37.6181 108.217H35.1249V114.586ZM36.4989 110.774V109.39H37.4361C37.882 109.39 38.1823 109.663 38.1823 110.055C38.1823 110.473 37.9002 110.774 37.427 110.774H36.4989ZM36.4989 113.376V111.811H37.4088C37.8729 111.811 38.2733 112.057 38.2733 112.575C38.2733 113.121 37.9275 113.376 37.427 113.376H36.4989ZM42.6431 114.704C43.4347 114.704 43.8351 114.259 43.9716 114.04H44.0444V114.586H45.4457V109.782H44.0353V110.328H43.9625C43.7987 110.073 43.3619 109.663 42.6067 109.663C41.3146 109.663 40.4229 110.701 40.4229 112.211C40.4229 113.722 41.3237 114.704 42.6431 114.704ZM42.9616 113.431C42.2973 113.431 41.8514 112.93 41.8514 112.184C41.8514 111.447 42.2973 110.937 42.9525 110.937C43.5985 110.937 44.0626 111.42 44.0626 112.184C44.0626 112.894 43.6349 113.431 42.9616 113.431ZM48.7555 114.704C50.0749 114.704 51.0121 113.913 51.1668 112.775H49.7291C49.6108 113.158 49.2377 113.431 48.7646 113.431C48.0821 113.431 47.6363 112.885 47.6363 112.184C47.6363 111.492 48.0639 110.937 48.7555 110.937C49.2559 110.937 49.6199 111.238 49.7473 111.647H51.1759C51.0394 110.473 50.084 109.663 48.7464 109.663C47.1995 109.663 46.2077 110.764 46.2077 112.184C46.2077 113.594 47.2086 114.704 48.7555 114.704ZM56.8005 114.586L55.1354 111.511L56.6823 109.782H54.9443L53.5794 111.42H53.5248V107.762H52.1144V114.586H53.5248V113.303L54.1617 112.593L55.2173 114.586H56.8005ZM59.3557 116.797C61.0754 116.797 61.8671 115.787 61.8671 114.532V109.782H60.4567V110.328H60.3839C60.2383 110.091 59.7924 109.663 59.0099 109.663C57.7815 109.663 56.8443 110.619 56.8443 112.157C56.8443 113.704 57.7997 114.641 59.0463 114.641C59.8106 114.641 60.2292 114.213 60.393 113.977H60.4658V114.532C60.4658 115.278 60.0927 115.66 59.3557 115.66C58.7369 115.66 58.4275 115.387 58.3638 115.023H57.0717C57.1172 115.942 57.8634 116.797 59.3557 116.797ZM59.383 113.367C58.7187 113.367 58.2729 112.903 58.2729 112.157C58.2729 111.42 58.7187 110.937 59.3739 110.937C60.0199 110.937 60.484 111.392 60.484 112.157C60.484 112.866 60.0563 113.367 59.383 113.367ZM62.9643 114.586H64.3747V112.402C64.3747 111.574 64.8205 111.074 65.5121 111.074H66.0671V109.745H65.6031C64.957 109.745 64.5293 110.155 64.3656 110.51H64.2928V109.782H62.9643V114.586ZM69.1587 114.704C70.7056 114.704 71.752 113.603 71.752 112.184C71.752 110.764 70.7056 109.663 69.1678 109.663C67.6118 109.663 66.5745 110.764 66.5745 112.184C66.5745 113.603 67.6209 114.704 69.1587 114.704ZM69.1587 113.431C68.4944 113.431 68.0031 112.921 68.0031 112.184C68.0031 111.456 68.4944 110.937 69.1587 110.937C69.832 110.937 70.3234 111.456 70.3234 112.184C70.3234 112.912 69.832 113.431 69.1587 113.431ZM74.3692 114.704C75.0152 114.704 75.4702 114.377 75.6522 114.058H75.725V114.586H77.0626V109.782H75.6522V112.475C75.6522 112.985 75.3246 113.394 74.8332 113.394C74.351 113.394 74.0598 113.048 74.0598 112.548V109.782H72.6494V112.985C72.6494 113.986 73.3046 114.704 74.3692 114.704ZM78.1683 114.586H79.5787V111.893C79.5787 111.383 79.9063 110.974 80.3976 110.974C80.8799 110.974 81.1711 111.329 81.1711 111.82V114.586H82.5814V111.383C82.5814 110.382 81.9263 109.663 80.8617 109.663C80.2156 109.663 79.7607 109.982 79.5696 110.31H79.4968V109.782H78.1683V114.586ZM85.5716 114.704C86.3632 114.704 86.7636 114.259 86.9001 114.04H86.9729V114.586H88.3742V107.762H86.9638V110.328H86.891C86.7272 110.073 86.2904 109.663 85.5352 109.663C84.2431 109.663 83.3513 110.701 83.3513 112.211C83.3513 113.722 84.2522 114.704 85.5716 114.704ZM85.89 113.431C85.2258 113.431 84.7799 112.93 84.7799 112.184C84.7799 111.447 85.2258 110.937 85.8809 110.937C86.527 110.937 86.9911 111.42 86.9911 112.184C86.9911 112.894 86.5634 113.431 85.89 113.431ZM94.867 114.704C96.5777 114.704 97.8243 113.649 98.0973 112.248H96.5231C96.2865 112.857 95.6859 113.321 94.867 113.321C93.766 113.321 93.0108 112.512 93.0108 111.401C93.0108 110.31 93.766 109.481 94.867 109.481C95.6859 109.481 96.2956 109.955 96.4685 110.582H98.0336C97.7606 109.181 96.5959 108.098 94.867 108.098C92.8834 108.098 91.5185 109.527 91.5185 111.401C91.5185 113.285 92.8743 114.704 94.867 114.704ZM99.0505 114.586H100.461V111.875C100.461 111.374 100.807 110.974 101.298 110.974C101.78 110.974 102.09 111.329 102.09 111.82V114.586H103.5V111.383C103.5 110.382 102.854 109.663 101.789 109.663C101.143 109.663 100.716 109.982 100.525 110.31H100.452V107.762H99.0505V114.586ZM106.708 114.704C108.009 114.704 108.882 114.058 109.101 113.048H107.827C107.69 113.349 107.317 113.622 106.762 113.622C106.098 113.622 105.652 113.185 105.607 112.575H109.146V112.166C109.146 110.828 108.318 109.663 106.735 109.663C105.27 109.663 104.269 110.71 104.269 112.211C104.269 113.658 105.316 114.704 106.708 114.704ZM105.634 111.638C105.698 111.165 106.134 110.737 106.735 110.737C107.363 110.737 107.781 111.128 107.836 111.638H105.634ZM112.353 114.704C113.672 114.704 114.61 113.913 114.764 112.775H113.327C113.208 113.158 112.835 113.431 112.362 113.431C111.68 113.431 111.234 112.885 111.234 112.184C111.234 111.492 111.661 110.937 112.353 110.937C112.853 110.937 113.217 111.238 113.345 111.647H114.773C114.637 110.473 113.681 109.663 112.344 109.663C110.797 109.663 109.805 110.764 109.805 112.184C109.805 113.594 110.806 114.704 112.353 114.704ZM120.398 114.586L118.733 111.511L120.28 109.782H118.542L117.177 111.42H117.122V107.762H115.712V114.586H117.122V113.303L117.759 112.593L118.815 114.586H120.398Z" fill="black"/>
<rect x="13.0283" y="108.182" width="12.706" height="12.706" rx="2.08526" fill="white" stroke="#2C71F0" stroke-width="0.6"/>
<path d="M24.6746 130.455L18.2861 136.161V113.072L36.9018 127.327L28.5608 128.673L33.9825 139.706L30.1532 141.488L24.6746 130.455Z" fill="black"/>
<path d="M18.6655 113.83L35.9921 127.081L29.016 128.218L28.0113 128.389L28.4662 129.299L33.4898 139.516L30.343 140.976L25.2436 130.72L24.8075 129.829L24.0682 130.493L18.6845 135.308V113.83H18.6655ZM17.9072 112.313V137.014L24.5611 131.081L29.9828 142L34.5135 139.896L29.1487 128.995L37.8499 127.574L17.9072 112.313Z" fill="white"/>
<path d="M83.1391 96.7844L77.6144 91.2597C77.4312 91.0765 77.1565 91.0765 76.9734 91.2597L76.485 91.748C76.3019 91.9312 76.3019 92.2059 76.485 92.389L82.0098 97.9138C82.1929 98.0969 82.4676 98.0969 82.6508 97.9138L83.1391 97.4254C83.307 97.2575 83.307 96.9676 83.1391 96.7844Z" fill="#2C71F0"/>
<path fill-rule="evenodd" clip-rule="evenodd" d="M74.3176 85.5976C72.4556 85.5976 70.9447 87.1085 70.9447 88.9704C70.9447 90.8324 72.4556 92.3433 74.3176 92.3433C76.1795 92.3433 77.6904 90.8324 77.6904 88.9704C77.6904 87.1085 76.1795 85.5976 74.3176 85.5976ZM69.5254 88.9704C69.5254 86.3301 71.6773 84.1782 74.3176 84.1782C76.9579 84.1782 79.1098 86.3301 79.1098 88.9704C79.1098 91.6107 76.9579 93.7626 74.3176 93.7626C71.662 93.7626 69.5254 91.626 69.5254 88.9704Z" fill="#2C71F0"/>
<path d="M74.3172 83.7202C73.2794 83.7202 72.2569 84.0254 71.4022 84.6054C70.5323 85.1853 69.8608 85.9942 69.464 86.9557C69.0672 87.9172 68.9604 88.9703 69.1588 89.9928C69.3572 91.0153 69.8455 91.9463 70.5781 92.6789C71.3107 93.4114 72.2417 93.9151 73.2642 94.1287C74.2867 94.3424 75.3398 94.2356 76.3013 93.8388C77.2628 93.442 78.0869 92.7857 78.6669 91.9158C79.2468 91.0611 79.5673 90.0386 79.5673 89.0008C79.5673 88.314 79.4452 87.6272 79.1858 86.9862C78.9263 86.3452 78.5448 85.7653 78.0564 85.2617C77.568 84.7733 76.9881 84.3765 76.3471 84.117C75.6908 83.8576 75.004 83.7202 74.3172 83.7202ZM76.2708 92.5568C75.6756 92.8925 75.004 93.0604 74.3172 93.0604C73.2337 93.0604 72.2111 92.6331 71.448 91.87C70.685 91.1069 70.2424 90.0844 70.2424 89.0161C70.2424 88.5277 70.3339 88.0393 70.5018 87.5814C70.8528 86.7115 71.4938 85.979 72.318 85.5211C73.1421 85.0632 74.1036 84.9106 75.0193 85.0785C75.9503 85.2464 76.7897 85.7348 77.4001 86.4521C78.0106 87.1694 78.3616 88.0698 78.3769 89.0161C78.3769 89.7334 78.1785 90.4507 77.8122 91.0764C77.4459 91.7021 76.8965 92.2058 76.2708 92.5568Z" fill="#2C71F0"/>
<path fill-rule="evenodd" clip-rule="evenodd" d="M56.7207 75.2654L56.736 75.2502C56.736 75.2349 56.7512 75.2197 56.7665 75.1891C56.797 75.1281 56.8428 75.0518 56.9038 74.9449C57.0259 74.7313 57.2243 74.4108 57.4685 74.0445C57.9722 73.2967 58.72 72.3352 59.6968 71.4195C61.6503 69.6186 64.4432 68.1229 68.0755 69.0539C70.2579 69.6644 72.1351 70.9464 73.3713 72.6862C74.6075 74.4108 75.1417 76.4864 74.8822 78.5315V78.5467C74.8364 78.9893 74.7754 79.4624 74.6838 79.9355C74.6686 79.9813 74.6686 80.0271 74.6686 80.0576H75.3706C74.6686 80.0576 74.6686 80.0576 74.6686 80.0576V80.0729V80.1034C74.6686 80.1187 74.6686 80.1492 74.6686 80.195C74.6686 80.256 74.6838 80.3476 74.6991 80.4544C74.7296 80.6681 74.8059 80.9581 74.9738 81.2481C75.1417 81.5533 75.4011 81.8585 75.7979 82.0722C76.1947 82.2859 76.6831 82.3622 77.2478 82.2859C77.6293 82.2401 77.9041 81.889 77.8583 81.4922C77.8125 81.1107 77.4615 80.836 77.0646 80.8818C76.7289 80.9276 76.5457 80.8665 76.4389 80.8055C76.3321 80.7444 76.2558 80.6681 76.1947 80.5613C76.1337 80.4392 76.0879 80.3171 76.0726 80.195C76.0574 80.1492 76.0574 80.1187 76.0574 80.0882C76.1489 79.5998 76.21 79.1114 76.2558 78.6841C76.561 76.2727 75.92 73.8614 74.4854 71.8468C73.0508 69.8322 70.8836 68.3671 68.4112 67.6803H68.396C64.1379 66.5815 60.8567 68.3824 58.6895 70.3817C57.6059 71.3737 56.797 72.442 56.2476 73.2509C55.9729 73.663 55.7745 73.9987 55.6218 74.2429C55.5455 74.365 55.4998 74.4566 55.4692 74.5329C55.454 74.5634 55.4387 74.5939 55.4235 74.6092L55.4082 74.6397C55.4082 74.6397 55.4082 74.6397 56.0187 74.9449L55.4082 74.6397C55.2403 74.9907 55.3777 75.4181 55.7287 75.5859C56.1255 75.7538 56.5376 75.6165 56.7207 75.2654Z" fill="black"/>
<path d="M72.3483 82.2552C72.1041 82.2552 71.8599 82.1331 71.7378 81.9042C71.2036 80.9579 71.0205 79.8744 71.2341 78.8365C71.2952 78.2871 71.3257 77.7224 71.3105 77.173C71.2799 76.3184 71.112 75.479 70.7915 74.6701C70.5321 74.0444 70.12 73.4644 69.5706 72.9913C69.0364 72.5182 68.3802 72.1366 67.6629 71.8924C66.9456 71.6635 66.1672 71.5567 65.4194 71.6177C64.6716 71.6788 63.939 71.8772 63.2675 72.2129C62.5502 72.6403 61.9245 73.2202 61.4514 73.8917C60.9782 74.5633 60.673 75.2958 60.5356 76.0894C60.5356 76.1047 60.5356 76.1047 60.5356 76.12C59.9099 78.9739 56.8881 79.3097 55.3772 79.096C54.9956 79.035 54.7209 78.6839 54.7819 78.2871C54.843 77.9056 55.194 77.6309 55.5756 77.6919C55.5908 77.6919 56.415 77.814 57.2849 77.6003C58.3227 77.3562 58.9332 76.7762 59.1468 75.8452C59.3147 74.8532 59.6962 73.9223 60.2915 73.0829C60.8867 72.2435 61.6497 71.5414 62.5502 70.992C62.5655 70.9767 62.5807 70.9767 62.596 70.9767C63.4354 70.5494 64.3511 70.29 65.2973 70.2289C66.2588 70.1526 67.1898 70.2747 68.0902 70.5799C68.9907 70.8852 69.7995 71.343 70.5016 71.9688C71.2036 72.5945 71.7225 73.3423 72.0735 74.1664C72.4551 75.1432 72.6687 76.1352 72.6993 77.1578C72.7145 77.7835 72.684 78.4245 72.6077 79.0655C72.6077 79.0807 72.6077 79.1113 72.5924 79.1265C72.4398 79.8438 72.5619 80.5917 72.9282 81.2326C73.1266 81.5684 73.0045 82.011 72.6688 82.1941C72.5924 82.2247 72.4704 82.2552 72.3483 82.2552Z" fill="black"/>
<path fill-rule="evenodd" clip-rule="evenodd" d="M65.1454 74.4414C64.7028 74.6093 64.306 74.8687 64.0008 75.2045C63.6956 75.525 63.4972 75.9065 63.3903 76.3033C63.314 77.1885 63.0546 78.0432 62.6272 78.8215C62.1846 79.6152 61.5589 80.3172 60.8111 80.8819C60.0633 81.4466 59.1933 81.8586 58.2624 82.0876C57.3314 82.3165 56.3699 82.3775 55.4084 82.2554C55.0269 82.2097 54.7522 81.8434 54.798 81.4618C54.8437 81.0803 55.21 80.8056 55.5916 80.8514C56.3699 80.9582 57.1483 80.9124 57.9113 80.714C58.6592 80.5309 59.3612 80.1951 59.9564 79.7525C60.5516 79.3099 61.04 78.7452 61.391 78.1348C61.7421 77.509 61.9405 76.8375 61.9862 76.1507C61.9862 76.1049 62.0015 76.0744 62.0015 76.0286C62.1694 75.3571 62.4899 74.7466 62.963 74.243C63.4361 73.7394 64.0313 73.3426 64.7028 73.0984C64.7334 73.0831 64.7486 73.0831 64.7791 73.0679C65.3896 72.9152 66.0306 72.9 66.6411 73.0221C67.2516 73.1442 67.8468 73.3884 68.3504 73.7546C68.854 74.1209 69.2661 74.594 69.5408 75.1282C69.8155 75.6776 69.9529 76.2728 69.9376 76.8833C69.8766 78.3637 69.5103 79.8288 68.8388 81.1719C68.8388 81.1871 68.8235 81.2024 68.8083 81.2329C68.7777 81.2787 68.7472 81.355 68.7014 81.4466C68.6099 81.6144 68.4725 81.8586 68.2741 82.1486C67.8773 82.7133 67.2515 83.4764 66.3053 84.27C64.4129 85.842 61.2689 87.5055 56.2325 88.0397C55.851 88.0854 55.5 87.7955 55.4542 87.4139C55.4084 87.0324 55.6984 86.6814 56.0799 86.6356C60.8569 86.1319 63.7414 84.5752 65.4049 83.1864C66.2443 82.4844 66.7784 81.8281 67.1142 81.355C67.2821 81.1108 67.3889 80.9277 67.45 80.7903C67.4805 80.7293 67.511 80.6835 67.5263 80.653C67.5263 80.6377 67.5415 80.6377 67.5415 80.6377C67.5415 80.6377 67.5415 80.6377 67.5415 80.6224L65.1454 74.4414ZM67.5415 80.6377C67.5568 80.6224 67.5568 80.6072 67.5568 80.5919C68.1367 79.4168 68.4572 78.15 68.5183 76.8528C68.5335 76.4865 68.442 76.1202 68.2741 75.7845C68.1062 75.4487 67.8468 75.1435 67.511 74.8993C67.1752 74.6551 66.7937 74.4872 66.3664 74.4109C65.9543 74.3346 65.5422 74.3346 65.1302 74.4262" fill="black"/>
<path fill-rule="evenodd" clip-rule="evenodd" d="M66.198 75.4945C66.5796 75.525 66.8696 75.876 66.839 76.2576C66.4422 80.653 63.512 82.8812 60.8106 83.9953C59.4523 84.5447 58.1398 84.8347 57.1631 84.9721C56.6747 85.0484 56.2626 85.0789 55.9727 85.1094C55.8353 85.1247 55.7132 85.1247 55.6369 85.1247C55.5911 85.1247 55.5606 85.1247 55.5453 85.1247H55.5148H55.4995C55.4995 85.1247 55.4995 85.1247 55.4843 84.4226L55.4995 85.1247C55.1027 85.1247 54.7822 84.8194 54.7822 84.4226C54.7822 84.0258 55.0875 83.7053 55.4843 83.7053H55.4995C55.5148 83.7053 55.5453 83.7053 55.5758 83.7053C55.6369 83.7053 55.7437 83.6901 55.8658 83.6901C56.1253 83.6748 56.4916 83.629 56.9494 83.568C57.8499 83.4306 59.0555 83.1712 60.2765 82.6828C62.7031 81.6908 65.0992 79.8136 65.435 76.1355C65.4655 75.7387 65.8012 75.4487 66.198 75.4945Z" fill="black"/>
<path fill-rule="evenodd" clip-rule="evenodd" d="M66.4124 87.5361C66.504 87.9177 66.2751 88.2992 65.8935 88.3908L57.408 90.5274C57.0265 90.619 56.6449 90.3901 56.5533 90.0085C56.4618 89.627 56.6907 89.2454 57.0722 89.1539L65.5578 87.0172C65.9241 86.9256 66.3056 87.1546 66.4124 87.5361Z" fill="black"/>
<path fill-rule="evenodd" clip-rule="evenodd" d="M66.809 90.4357C66.9006 90.8172 66.6717 91.1988 66.2901 91.2903L59.1629 93.0912C58.7813 93.1828 58.3998 92.9539 58.3082 92.5876C58.2167 92.206 58.4456 91.8245 58.8271 91.7329L65.9544 89.932C66.3359 89.8252 66.7175 90.0541 66.809 90.4357Z" fill="black"/>
<path fill-rule="evenodd" clip-rule="evenodd" d="M62.8104 94.9226C65.2065 94.4801 67.6789 94.5564 70.0292 95.1363L70.365 93.7628C67.8162 93.137 65.1454 93.0607 62.5509 93.5338L61.33 93.7628C60.9484 93.8391 60.689 94.2053 60.7653 94.5869C60.8416 94.9684 61.2079 95.2279 61.5894 95.1516L62.8104 94.9226Z" fill="black"/>
<path d="M167.741 93.7088H100.802C99.1228 93.7088 97.7529 92.5932 97.7529 91.2014V13.516C97.7529 12.1352 99.1094 11.0085 100.802 11.0085H167.741C169.42 11.0085 170.79 12.1242 170.79 13.516V91.2125C170.79 92.5932 169.42 93.7088 167.741 93.7088Z" fill="white" stroke="black" stroke-width="0.6"/>
<path d="M104.397 71.5273H106.299C107.04 71.5273 107.711 71.0438 107.711 70.2057C107.711 69.6255 107.35 69.3032 107.053 69.1678V69.1291C107.363 68.9422 107.563 68.6198 107.563 68.2137C107.563 67.5303 107.053 67.0146 106.164 67.0146H104.397V71.5273ZM105.371 68.8261V67.8462H106.035C106.351 67.8462 106.563 68.0396 106.563 68.3168C106.563 68.6134 106.364 68.8261 106.028 68.8261H105.371ZM105.371 70.6699V69.5611H106.015C106.344 69.5611 106.628 69.7351 106.628 70.1026C106.628 70.4894 106.383 70.6699 106.028 70.6699H105.371ZM109.724 71.6112C110.285 71.6112 110.568 71.2953 110.665 71.1405H110.717V71.5273H111.709V68.1234H110.71V68.5102H110.659C110.543 68.3297 110.233 68.0396 109.698 68.0396C108.783 68.0396 108.151 68.7745 108.151 69.8447C108.151 70.9149 108.789 71.6112 109.724 71.6112ZM109.949 70.7086C109.479 70.7086 109.163 70.354 109.163 69.8254C109.163 69.3032 109.479 68.9422 109.943 68.9422C110.401 68.9422 110.73 69.2838 110.73 69.8254C110.73 70.3282 110.427 70.7086 109.949 70.7086ZM114.054 71.6112C114.989 71.6112 115.653 71.0503 115.763 70.2444H114.744C114.66 70.5152 114.396 70.7086 114.061 70.7086C113.577 70.7086 113.262 70.3218 113.262 69.8254C113.262 69.3354 113.565 68.9422 114.054 68.9422C114.409 68.9422 114.667 69.1549 114.757 69.445H115.769C115.673 68.6134 114.996 68.0396 114.048 68.0396C112.952 68.0396 112.249 68.8197 112.249 69.8254C112.249 70.8246 112.958 71.6112 114.054 71.6112ZM119.754 71.5273L118.575 69.3483L119.671 68.1234H118.439L117.472 69.2838H117.434V66.6922H116.434V71.5273H117.434V70.6183L117.885 70.1155L118.633 71.5273H119.754ZM121.565 73.0939C122.783 73.0939 123.344 72.3783 123.344 71.4887V68.1234H122.345V68.5102H122.293C122.19 68.3426 121.874 68.0396 121.32 68.0396C120.449 68.0396 119.785 68.7165 119.785 69.806C119.785 70.902 120.462 71.566 121.345 71.566C121.887 71.566 122.184 71.263 122.3 71.0954H122.351V71.4887C122.351 72.0173 122.087 72.2881 121.565 72.2881C121.126 72.2881 120.907 72.0947 120.862 71.8368H119.947C119.979 72.4879 120.507 73.0939 121.565 73.0939ZM121.584 70.6635C121.113 70.6635 120.798 70.3347 120.798 69.806C120.798 69.2838 121.113 68.9422 121.578 68.9422C122.035 68.9422 122.364 69.2645 122.364 69.806C122.364 70.3089 122.061 70.6635 121.584 70.6635ZM124.121 71.5273H125.121V69.9801C125.121 69.3934 125.437 69.0389 125.926 69.0389H126.32V68.0976H125.991C125.533 68.0976 125.23 68.3877 125.114 68.6392H125.063V68.1234H124.121V71.5273ZM128.51 71.6112C129.606 71.6112 130.347 70.8311 130.347 69.8254C130.347 68.8197 129.606 68.0396 128.517 68.0396C127.414 68.0396 126.679 68.8197 126.679 69.8254C126.679 70.8311 127.421 71.6112 128.51 71.6112ZM128.51 70.7086C128.039 70.7086 127.691 70.3476 127.691 69.8254C127.691 69.3096 128.039 68.9422 128.51 68.9422C128.987 68.9422 129.335 69.3096 129.335 69.8254C129.335 70.3411 128.987 70.7086 128.51 70.7086ZM132.202 71.6112C132.659 71.6112 132.982 71.3791 133.111 71.1534H133.162V71.5273H134.11V68.1234H133.111V70.0317C133.111 70.3927 132.879 70.6828 132.531 70.6828C132.189 70.6828 131.983 70.4378 131.983 70.0833V68.1234H130.983V70.3927C130.983 71.1019 131.447 71.6112 132.202 71.6112ZM134.893 71.5273H135.893V69.6191C135.893 69.2581 136.125 68.9679 136.473 68.9679C136.815 68.9679 137.021 69.2194 137.021 69.5675V71.5273H138.02V69.2581C138.02 68.5489 137.556 68.0396 136.802 68.0396C136.344 68.0396 136.022 68.2652 135.886 68.4973H135.835V68.1234H134.893V71.5273ZM140.139 71.6112C140.699 71.6112 140.983 71.2953 141.08 71.1405H141.131V71.5273H142.124V66.6922H141.125V68.5102H141.073C140.957 68.3297 140.648 68.0396 140.113 68.0396C139.197 68.0396 138.566 68.7745 138.566 69.8447C138.566 70.9149 139.204 71.6112 140.139 71.6112ZM140.364 70.7086C139.894 70.7086 139.578 70.354 139.578 69.8254C139.578 69.3032 139.894 68.9422 140.358 68.9422C140.816 68.9422 141.144 69.2838 141.144 69.8254C141.144 70.3282 140.841 70.7086 140.364 70.7086ZM146.724 71.6112C147.936 71.6112 148.82 70.8633 149.013 69.8705H147.898C147.73 70.3024 147.305 70.6312 146.724 70.6312C145.944 70.6312 145.409 70.0575 145.409 69.2709C145.409 68.4973 145.944 67.9107 146.724 67.9107C147.305 67.9107 147.737 68.2459 147.859 68.6907H148.968C148.775 67.6979 147.949 66.9307 146.724 66.9307C145.319 66.9307 144.352 67.9429 144.352 69.2709C144.352 70.6054 145.313 71.6112 146.724 71.6112ZM149.688 71.5273H150.688V69.6062C150.688 69.2516 150.933 68.9679 151.281 68.9679C151.622 68.9679 151.842 69.2194 151.842 69.5675V71.5273H152.841V69.2581C152.841 68.5489 152.383 68.0396 151.629 68.0396C151.171 68.0396 150.868 68.2652 150.733 68.4973H150.681V66.6922H149.688V71.5273ZM155.114 71.6112C156.035 71.6112 156.654 71.1534 156.809 70.4378H155.906C155.81 70.6506 155.545 70.844 155.152 70.844C154.682 70.844 154.366 70.5345 154.333 70.1026H156.841V69.8125C156.841 68.8648 156.255 68.0396 155.133 68.0396C154.095 68.0396 153.386 68.781 153.386 69.8447C153.386 70.8698 154.127 71.6112 155.114 71.6112ZM154.353 69.4386C154.398 69.1033 154.707 68.8003 155.133 68.8003C155.578 68.8003 155.874 69.0775 155.913 69.4386H154.353ZM159.113 71.6112C160.048 71.6112 160.712 71.0503 160.822 70.2444H159.803C159.719 70.5152 159.455 70.7086 159.12 70.7086C158.636 70.7086 158.32 70.3218 158.32 69.8254C158.32 69.3354 158.623 68.9422 159.113 68.9422C159.468 68.9422 159.726 69.1549 159.816 69.445H160.828C160.731 68.6134 160.054 68.0396 159.107 68.0396C158.011 68.0396 157.308 68.8197 157.308 69.8254C157.308 70.8246 158.017 71.6112 159.113 71.6112ZM164.813 71.5273L163.633 69.3483L164.729 68.1234H163.498L162.531 69.2838H162.492V66.6922H161.493V71.5273H162.492V70.6183L162.943 70.1155L163.691 71.5273H164.813ZM120.061 79.6112C120.995 79.6112 121.659 79.0503 121.769 78.2444H120.75C120.667 78.5152 120.402 78.7086 120.067 78.7086C119.584 78.7086 119.268 78.3218 119.268 77.8254C119.268 77.3354 119.571 76.9422 120.061 76.9422C120.415 76.9422 120.673 77.1549 120.763 77.445H121.775C121.679 76.6134 121.002 76.0396 120.054 76.0396C118.958 76.0396 118.255 76.8197 118.255 77.8254C118.255 78.8246 118.965 79.6112 120.061 79.6112ZM124.078 79.6112C125.174 79.6112 125.915 78.8311 125.915 77.8254C125.915 76.8197 125.174 76.0396 124.084 76.0396C122.982 76.0396 122.247 76.8197 122.247 77.8254C122.247 78.8311 122.988 79.6112 124.078 79.6112ZM124.078 78.7086C123.607 78.7086 123.259 78.3476 123.259 77.8254C123.259 77.3096 123.607 76.9422 124.078 76.9422C124.555 76.9422 124.903 77.3096 124.903 77.8254C124.903 78.3411 124.555 78.7086 124.078 78.7086ZM126.57 79.5273H127.57V77.6126C127.57 77.2452 127.789 76.9679 128.118 76.9679C128.459 76.9679 128.646 77.2129 128.646 77.5611V79.5273H129.646V77.6191C129.646 77.2387 129.865 76.9679 130.194 76.9679C130.542 76.9679 130.709 77.2129 130.709 77.5868V79.5273H131.709V77.2387C131.709 76.5296 131.212 76.0396 130.471 76.0396C130.045 76.0396 129.723 76.1879 129.484 76.5038H129.439C129.233 76.2137 128.898 76.0396 128.453 76.0396C128.002 76.0396 127.705 76.2652 127.563 76.4909H127.512V76.1234H126.57V79.5273ZM132.451 81.0101H133.45V79.1405H133.501C133.611 79.3275 133.908 79.6112 134.462 79.6112C135.378 79.6112 136.003 78.8762 136.003 77.806C136.003 76.7359 135.365 76.0396 134.436 76.0396C133.869 76.0396 133.585 76.349 133.489 76.5038H133.437V76.1234H132.451V81.0101ZM134.211 78.7086C133.753 78.7086 133.431 78.3669 133.431 77.8254C133.431 77.3161 133.734 76.9422 134.211 76.9422C134.675 76.9422 134.991 77.2903 134.991 77.8254C134.991 78.3476 134.675 78.7086 134.211 78.7086ZM137.67 79.5273H138.011V78.6506H137.889C137.708 78.6506 137.605 78.5474 137.605 78.3411V74.6922H136.606V78.4572C136.606 79.1212 136.986 79.5273 137.67 79.5273ZM140.142 79.6112C141.064 79.6112 141.683 79.1534 141.838 78.4378H140.935C140.838 78.6506 140.574 78.844 140.181 78.844C139.71 78.844 139.394 78.5345 139.362 78.1026H141.87V77.8125C141.87 76.8648 141.283 76.0396 140.162 76.0396C139.124 76.0396 138.414 76.781 138.414 77.8447C138.414 78.8698 139.156 79.6112 140.142 79.6112ZM139.382 77.4386C139.427 77.1033 139.736 76.8003 140.162 76.8003C140.606 76.8003 140.903 77.0775 140.942 77.4386H139.382ZM144.077 79.5273H144.767V78.7021H144.329C144.032 78.7021 143.89 78.5474 143.89 78.296V76.9035H144.78V76.1234H143.89V75.2015H142.943V75.8269C142.943 76.0074 142.846 76.1299 142.666 76.1299H142.343V76.9035H142.891V78.3476C142.891 79.0954 143.336 79.5273 144.077 79.5273ZM146.929 79.6112C147.851 79.6112 148.47 79.1534 148.625 78.4378H147.722C147.625 78.6506 147.361 78.844 146.968 78.844C146.497 78.844 146.181 78.5345 146.149 78.1026H148.657V77.8125C148.657 76.8648 148.07 76.0396 146.948 76.0396C145.91 76.0396 145.201 76.781 145.201 77.8447C145.201 78.8698 145.943 79.6112 146.929 79.6112ZM146.168 77.4386C146.213 77.1033 146.523 76.8003 146.948 76.8003C147.393 76.8003 147.69 77.0775 147.728 77.4386H146.168ZM149.575 78.18H150.155L150.374 76.7036V75.0146H149.356V76.7036L149.575 78.18ZM149.858 79.6112C150.187 79.6112 150.406 79.392 150.406 79.0761C150.406 78.7731 150.187 78.541 149.858 78.541C149.555 78.541 149.311 78.7731 149.311 79.0761C149.311 79.392 149.555 79.6112 149.858 79.6112Z" fill="black"/>
<path d="M134.916 53.4986C141.792 53.4986 147.367 47.9243 147.367 41.0481C147.367 34.1719 141.792 28.5977 134.916 28.5977C128.04 28.5977 122.466 34.1719 122.466 41.0481C122.466 47.9243 128.04 53.4986 134.916 53.4986Z" fill="#F78400"/>
<path d="M136.461 24.2864H133.13V26.8785H136.461V24.2864Z" fill="black"/>
<path d="M149.328 29.9273L147.998 28.5976C147.797 28.3962 147.461 28.3962 147.259 28.5976L145.084 30.7734C144.882 30.9749 144.882 31.3107 145.084 31.5121L146.413 32.8418C146.615 33.0433 146.951 33.0433 147.152 32.8418L149.328 30.666C149.543 30.4645 149.543 30.1288 149.328 29.9273Z" fill="black"/>
<path d="M121.713 28.5972L120.384 29.9269C120.182 30.1283 120.182 30.4641 120.384 30.6656L122.559 32.8414C122.761 33.0428 123.097 33.0428 123.298 32.8414L124.628 31.5117C124.829 31.3103 124.829 30.9745 124.628 30.773L122.452 28.5972C122.25 28.3823 121.928 28.3823 121.713 28.5972Z" fill="black"/>
<path d="M137.146 21.8418H132.445C132.149 21.8418 131.921 22.0836 131.921 22.3656V23.9102C131.921 24.2056 132.163 24.434 132.445 24.434H137.159C137.454 24.434 137.683 24.1922 137.683 23.9102V22.3656C137.683 22.0836 137.441 21.8418 137.146 21.8418Z" fill="black"/>
<path d="M132.808 22.2715V24.0444" stroke="white" stroke-width="0.6" stroke-linecap="round"/>
<path d="M133.868 22.2715V24.0444" stroke="white" stroke-width="0.6" stroke-linecap="round"/>
<path d="M134.916 22.2715V24.0444" stroke="white" stroke-width="0.6" stroke-linecap="round"/>
<path d="M135.978 22.2715V24.0444" stroke="white" stroke-width="0.6" stroke-linecap="round"/>
<path d="M137.025 22.2715V24.0444" stroke="white" stroke-width="0.6" stroke-linecap="round"/>
<path d="M135.009 56.4799C126.588 56.4799 119.738 49.6301 119.738 41.209C119.738 32.7878 126.588 25.938 135.009 25.938C143.43 25.938 150.28 32.7878 150.28 41.209C150.28 49.6301 143.43 56.4799 135.009 56.4799ZM135.009 28.9197C128.227 28.9197 122.72 34.4263 122.72 41.209C122.72 47.9916 128.227 53.4983 135.009 53.4983C141.792 53.4983 147.299 47.9916 147.299 41.209C147.299 34.4263 141.778 28.9197 135.009 28.9197Z" fill="white" stroke="black" stroke-width="0.6"/>
<path d="M139.389 36.092L133.386 42.2434L131.183 40.1213L129.021 42.3509L133.439 46.6353L141.619 38.2544L139.389 36.092Z" fill="white"/>
<path d="M33.6475 52.1105L35.7852 54.5627L58.7787 34.5184L56.641 32.0662L33.6475 52.1105Z" fill="#D1D3D5" stroke="black" stroke-width="0.6"/>
<path d="M56.9769 33.1092L54.2754 38.416L58.3792 34.777L57.6824 33.9777L56.9769 33.1092Z" fill="black"/>
<path d="M26.9442 59.8256L27.0733 59.9743C27.9514 60.9805 29.4818 61.0855 30.489 60.2084L54.077 39.6663L50.7664 35.8711L27.1784 56.4132C26.1713 57.2903 26.0662 58.8193 26.9442 59.8256Z" fill="#FBE62E" stroke="black" stroke-width="0.6"/>
<path d="M85.7182 35.839C93.9956 28.6222 94.859 16.0175 87.644 7.73849C80.4289 -0.538878 67.8225 -1.40231 59.5451 5.81276C51.2678 13.0295 50.4043 25.6342 57.6194 33.9116C64.8345 42.189 77.4409 43.0524 85.7182 35.8373V35.839ZM58.629 32.9904C51.8762 25.245 52.6819 13.4901 60.4289 6.73738C68.176 -0.0153835 79.9292 0.790251 86.6837 8.53732C93.4364 16.2827 92.6308 28.0376 84.8837 34.7903C77.1366 41.5431 65.3835 40.7374 58.629 32.9904Z" fill="black" stroke="black" stroke-width="0.6"/>
<path opacity="0.43" d="M58.5765 33.0784C51.8203 25.3279 52.6294 13.5272 60.3798 6.77271C68.1286 0.0165405 79.9294 0.825587 86.6855 8.57436C93.4417 16.3231 92.6327 28.1256 84.8822 34.8801C77.1334 41.6345 65.3327 40.8272 58.5765 33.0784Z" fill="white" stroke="black" stroke-width="0.6"/>
</svg>
