<svg width="447" height="353" viewBox="0 0 447 353" fill="none" xmlns="http://www.w3.org/2000/svg">
<path d="M339.78 140.95V15.4001L90.3397 15.4001L90.3397 140.95L339.78 140.95Z" fill="white" stroke="#231F20" stroke-width="2.40144" stroke-miterlimit="10"/>
<path d="M339.78 132.56V15.4058L98.9427 15.4058L98.9427 132.56L339.78 132.56Z" fill="#231F20"/>
<path d="M352.599 127.55V2L103.158 2L103.158 127.55L352.599 127.55Z" fill="#00A700" stroke="#231F20" stroke-width="2.40144" stroke-miterlimit="10"/>
<path d="M322.037 16.137H292.046H163.76H133.769C133.769 25.9077 125.831 33.8761 115.992 33.8761V95.6313C125.783 95.6313 133.769 103.552 133.769 113.37H163.76H292.046H322.037C322.037 103.6 329.975 95.6313 339.814 95.6313V33.8761C329.975 33.8761 322.037 25.9552 322.037 16.137Z" fill="#85ED73" stroke="#231F20" stroke-width="2.40144" stroke-miterlimit="10"/>
<path d="M227.881 98.1933C246.388 98.1933 261.39 83.2223 261.39 64.7545C261.39 46.2867 246.388 31.3157 227.881 31.3157C209.375 31.3157 194.372 46.2867 194.372 64.7545C194.372 83.2223 209.375 98.1933 227.881 98.1933Z" fill="#00A700" stroke="#231F20" stroke-width="2.40144" stroke-miterlimit="10"/>
<path d="M50.8786 351C77.4178 351 98.9321 329.531 98.9321 303.047C98.9321 276.564 77.4178 255.095 50.8786 255.095C24.3395 255.095 2.8252 276.564 2.8252 303.047C2.8252 329.531 24.3395 351 50.8786 351Z" fill="#FBE62E" stroke="#231F20" stroke-width="2.40144" stroke-miterlimit="10"/>
<path d="M50.8786 344.739C77.4178 344.739 98.9321 323.27 98.9321 296.786C98.9321 270.303 77.4178 248.833 50.8786 248.833C24.3395 248.833 2.8252 270.303 2.8252 296.786C2.8252 323.27 24.3395 344.739 50.8786 344.739Z" fill="white" stroke="#231F20" stroke-width="2.40144" stroke-miterlimit="10"/>
<path d="M86.5023 311.537C94.6496 291.909 85.3094 269.407 65.6404 261.276C45.9714 253.146 23.4219 262.467 15.2745 282.094C7.12718 301.722 16.4673 324.224 36.1363 332.355C55.8053 340.485 78.3549 331.164 86.5023 311.537Z" fill="#F8BC20" stroke="#231F20" stroke-width="2.40144" stroke-miterlimit="10"/>
<path d="M32.2012 286.16V284.12C32.2012 282.65 32.4864 281.322 33.1043 280.089C33.7221 278.856 34.6252 277.907 35.766 277.148C36.9542 276.437 38.3802 276.057 40.0437 276.057C41.7548 276.057 43.1807 276.437 44.369 277.148C45.5097 277.86 46.4128 278.856 46.9832 280.089C47.5536 281.322 47.8863 282.65 47.8863 284.12V286.16C47.8863 287.63 47.6011 288.958 46.9832 290.192C46.3653 291.425 45.5097 292.373 44.3215 293.132C43.1332 293.891 41.7073 294.223 40.0437 294.223C38.3326 294.223 36.9067 293.844 35.7184 293.132C34.5302 292.373 33.6746 291.425 33.0567 290.192C32.4864 288.958 32.2012 287.63 32.2012 286.16ZM33.7697 315.52L60.3868 276.863H64.9022L38.2851 315.52H33.7697ZM36.6215 284.12V286.16C36.6215 287.251 36.8592 288.199 37.382 289.101C37.9048 290.002 38.8079 290.429 40.0912 290.429C41.3746 290.429 42.2301 290.002 42.753 289.101C43.2758 288.199 43.5135 287.251 43.5135 286.16V284.12C43.5135 283.029 43.2758 282.081 42.753 281.18C42.2777 280.279 41.3746 279.852 40.0912 279.852C38.8079 279.852 37.9524 280.279 37.4295 281.18C36.9067 282.081 36.6215 283.029 36.6215 284.12ZM51.6887 308.263V306.223C51.6887 304.753 52.0214 303.425 52.6393 302.192C53.2572 300.958 54.1603 300.01 55.301 299.251C56.4418 298.492 57.9152 298.16 59.5788 298.16C61.2899 298.16 62.7158 298.539 63.9041 299.251C65.0448 299.962 65.9479 300.958 66.5183 302.192C67.1362 303.425 67.4213 304.753 67.4213 306.223V308.263C67.4213 309.733 67.1362 311.061 66.5183 312.294C65.9004 313.528 65.0448 314.476 63.8565 315.235C62.6683 315.994 61.2424 316.326 59.5788 316.326C57.8677 316.326 56.4418 315.947 55.2535 315.235C54.0652 314.476 53.2097 313.528 52.5918 312.294C51.9739 311.061 51.6887 309.733 51.6887 308.263ZM56.0615 306.223V308.263C56.0615 309.354 56.3467 310.302 56.8696 311.203C57.3924 312.105 58.2955 312.532 59.5788 312.532C60.8621 312.532 61.7177 312.105 62.2405 311.203C62.7633 310.302 63.001 309.354 63.001 308.263V306.223C63.001 305.132 62.7634 304.184 62.288 303.283C61.8127 302.381 60.9097 301.954 59.5788 301.954C58.2955 301.954 57.4399 302.381 56.9171 303.283C56.3467 304.184 56.1091 305.132 56.0615 306.223Z" fill="black"/>
<path d="M223.273 351C249.812 351 271.327 329.53 271.327 303.047C271.327 276.563 249.812 255.094 223.273 255.094C196.734 255.094 175.22 276.563 175.22 303.047C175.22 329.53 196.734 351 223.273 351Z" fill="#FBE62E" stroke="#231F20" stroke-width="2.40144" stroke-miterlimit="10"/>
<path d="M223.273 344.741C249.812 344.741 271.327 323.272 271.327 296.788C271.327 270.305 249.812 248.836 223.273 248.836C196.734 248.836 175.22 270.305 175.22 296.788C175.22 323.272 196.734 344.741 223.273 344.741Z" fill="white" stroke="#231F20" stroke-width="2.40144" stroke-miterlimit="10"/>
<path d="M258.899 311.536C267.046 291.909 257.706 269.406 238.037 261.276C218.368 253.146 195.818 262.466 187.671 282.094C179.524 301.722 188.864 324.224 208.533 332.354C228.202 340.485 250.751 331.164 258.899 311.536Z" fill="#F8BC20" stroke="#231F20" stroke-width="2.40144" stroke-miterlimit="10"/>
<path d="M204.592 286.163V284.123C204.592 282.653 204.877 281.325 205.495 280.091C206.113 278.858 207.016 277.91 208.157 277.151C209.345 276.439 210.771 276.06 212.434 276.06C214.145 276.06 215.571 276.439 216.76 277.151C217.9 277.862 218.803 278.858 219.374 280.091C219.944 281.325 220.277 282.653 220.277 284.123V286.163C220.277 287.633 219.992 288.961 219.374 290.194C218.756 291.427 217.9 292.376 216.712 293.135C215.524 293.894 214.098 294.226 212.434 294.226C210.723 294.226 209.297 293.846 208.109 293.135C206.921 292.376 206.065 291.427 205.447 290.194C204.877 288.961 204.592 287.633 204.592 286.163ZM206.16 315.522L232.777 276.866H237.293L210.676 315.522H206.16ZM209.012 284.123V286.163C209.012 287.254 209.25 288.202 209.773 289.103C210.295 290.005 211.199 290.431 212.482 290.431C213.765 290.431 214.621 290.005 215.144 289.103C215.666 288.202 215.904 287.254 215.904 286.163V284.123C215.904 283.032 215.666 282.084 215.144 281.182C214.668 280.281 213.765 279.854 212.482 279.854C211.199 279.854 210.343 280.281 209.82 281.182C209.297 282.084 209.012 283.032 209.012 284.123ZM224.079 308.265V306.226C224.079 304.756 224.412 303.427 225.03 302.194C225.648 300.961 226.551 300.012 227.692 299.254C228.832 298.495 230.306 298.163 231.969 298.163C233.681 298.163 235.106 298.542 236.295 299.254C237.435 299.965 238.339 300.961 238.909 302.194C239.527 303.427 239.812 304.756 239.812 306.226V308.265C239.812 309.736 239.527 311.064 238.909 312.297C238.291 313.53 237.435 314.479 236.247 315.238C235.059 315.997 233.633 316.329 231.969 316.329C230.258 316.329 228.832 315.949 227.644 315.238C226.456 314.479 225.6 313.53 224.982 312.297C224.365 311.064 224.079 309.736 224.079 308.265ZM228.452 306.226V308.265C228.452 309.356 228.737 310.305 229.26 311.206C229.783 312.107 230.686 312.534 231.969 312.534C233.253 312.534 234.108 312.107 234.631 311.206C235.154 310.305 235.392 309.356 235.392 308.265V306.226C235.392 305.135 235.154 304.186 234.679 303.285C234.203 302.384 233.3 301.957 231.969 301.957C230.686 301.957 229.831 302.384 229.308 303.285C228.737 304.186 228.5 305.135 228.452 306.226Z" fill="black"/>
<path d="M395.664 351C422.203 351 443.717 329.531 443.717 303.047C443.717 276.564 422.203 255.095 395.664 255.095C369.125 255.095 347.61 276.564 347.61 303.047C347.61 329.531 369.125 351 395.664 351Z" fill="#FBE62E" stroke="#231F20" stroke-width="2.40144" stroke-miterlimit="10"/>
<path d="M395.664 344.738C422.203 344.738 443.717 323.269 443.717 296.786C443.717 270.302 422.203 248.833 395.664 248.833C369.125 248.833 347.61 270.302 347.61 296.786C347.61 323.269 369.125 344.738 395.664 344.738Z" fill="white" stroke="#231F20" stroke-width="2.40144" stroke-miterlimit="10"/>
<path d="M431.295 311.534C439.443 291.906 430.102 269.404 410.433 261.273C390.764 253.143 368.215 262.464 360.067 282.091C351.92 301.719 361.26 324.221 380.929 332.352C400.598 340.482 423.148 331.161 431.295 311.534Z" fill="#F8BC20" stroke="#231F20" stroke-width="2.40144" stroke-miterlimit="10"/>
<path d="M376.985 286.163V284.123C376.985 282.653 377.271 281.325 377.888 280.092C378.506 278.858 379.409 277.91 380.55 277.151C381.738 276.44 383.164 276.06 384.828 276.06C386.539 276.06 387.965 276.44 389.153 277.151C390.294 277.862 391.197 278.858 391.767 280.092C392.338 281.325 392.67 282.653 392.67 284.123V286.163C392.67 287.633 392.385 288.961 391.767 290.195C391.149 291.428 390.294 292.376 389.106 293.135C387.917 293.894 386.491 294.226 384.828 294.226C383.117 294.226 381.691 293.847 380.503 293.135C379.314 292.376 378.459 291.428 377.841 290.195C377.223 288.961 376.985 287.633 376.985 286.163ZM378.554 315.523L405.171 276.866H409.686L383.069 315.523H378.554ZM381.406 284.123V286.163C381.406 287.254 381.643 288.202 382.166 289.104C382.689 290.005 383.592 290.432 384.875 290.432C386.159 290.432 387.014 290.005 387.537 289.104C388.06 288.202 388.298 287.254 388.298 286.163V284.123C388.298 283.032 388.06 282.084 387.537 281.183C387.062 280.281 386.159 279.855 384.875 279.855C383.592 279.855 382.737 280.281 382.214 281.183C381.691 282.084 381.406 283.032 381.406 284.123ZM396.473 308.266V306.226C396.473 304.756 396.806 303.428 397.424 302.195C398.041 300.961 398.944 300.013 400.085 299.254C401.226 298.495 402.699 298.163 404.363 298.163C406.074 298.163 407.5 298.542 408.688 299.254C409.877 299.965 410.732 300.961 411.302 302.195C411.92 303.428 412.206 304.756 412.206 306.226V308.266C412.206 309.736 411.92 311.064 411.302 312.297C410.685 313.531 409.829 314.479 408.641 315.238C407.452 315.997 406.027 316.329 404.363 316.329C402.652 316.329 401.226 315.95 400.038 315.238C398.849 314.479 397.994 313.531 397.376 312.297C396.758 311.064 396.473 309.736 396.473 308.266ZM400.846 306.226V308.266C400.846 309.357 401.131 310.305 401.654 311.206C402.177 312.108 403.08 312.534 404.363 312.534C405.646 312.534 406.502 312.108 407.025 311.206C407.548 310.305 407.785 309.357 407.785 308.266V306.226C407.785 305.135 407.548 304.187 407.072 303.285C406.597 302.384 405.694 301.957 404.363 301.957C403.08 301.957 402.224 302.384 401.701 303.285C401.131 304.187 400.893 305.135 400.846 306.226Z" fill="black"/>
<path d="M395.666 216.201V172.28H50.8789V216.201" stroke="#231F20" stroke-width="2.40144" stroke-miterlimit="10"/>
<path d="M407.549 212.739L395.666 233.229L383.831 212.739H407.549Z" fill="#231F20"/>
<path d="M39.042 212.739L50.8771 233.229L62.7598 212.739H39.042Z" fill="#231F20"/>
<path d="M223.271 172.28V216.201" stroke="#231F20" stroke-width="2.40144" stroke-miterlimit="10"/>
<path d="M211.436 212.739L223.271 233.229L235.153 212.739H211.436Z" fill="#231F20"/>
</svg>
