<svg width="416" height="160" viewBox="0 0 416 160" fill="none" xmlns="http://www.w3.org/2000/svg">
<rect width="416" height="160" fill="#FBE62E"/>
<path d="M235.158 104.396H228.528V128.675H235.158V104.396Z" fill="#D9D9D9" stroke="black" stroke-width="0.8" stroke-linecap="round" stroke-linejoin="round"/>
<path d="M212.536 99.4636H251.308V103.449C251.308 103.696 251.205 103.929 251.022 104.103C250.84 104.277 250.595 104.375 250.336 104.375H213.511C213.253 104.375 213.008 104.277 212.825 104.103C212.643 103.929 212.54 103.696 212.54 103.449V99.4636H212.536Z" fill="#D9D9D9" stroke="black" stroke-width="0.8" stroke-linecap="round" stroke-linejoin="round"/>
<path d="M258.731 20.9764V88.5932H204.541V20.6453C204.532 19.911 204.674 19.1852 204.96 18.5061C205.245 17.8269 205.668 17.2072 206.207 16.6809C206.746 16.1545 207.384 15.7386 208.092 15.4499C208.801 15.1613 209.558 15.0085 210.329 15H252.951C254.551 15.0637 256.057 15.7258 257.144 16.8464C258.227 17.967 258.802 19.4526 258.735 20.9764H258.731Z" fill="white" stroke="black" stroke-width="0.8" stroke-linecap="round" stroke-linejoin="round"/>
<path d="M230.413 99.4637C230.413 93.4872 224.545 88.606 217.308 88.606H264.373C271.623 88.606 277.487 93.4788 277.487 99.4764L230.409 99.4679L230.413 99.4637Z" fill="white" stroke="black" stroke-width="0.8" stroke-linecap="round" stroke-linejoin="round"/>
<path d="M230.043 99.4552H196.574V20.9764C196.552 19.5969 197.011 18.2514 197.88 17.152C198.392 16.4899 199.06 15.9508 199.831 15.5773C200.602 15.2037 201.449 15.0042 202.313 15H210.325C209.554 15.0085 208.797 15.1613 208.088 15.4499C207.38 15.7386 206.743 16.1588 206.204 16.6809C205.664 17.2072 205.241 17.8269 204.956 18.5061C204.671 19.1852 204.528 19.9153 204.537 20.6453V88.5932H218.636C221.662 88.5932 224.558 89.7392 226.697 91.7724C228.836 93.8098 230.034 96.5731 230.034 99.4509L230.043 99.4552Z" stroke="black" stroke-width="0.8" stroke-linecap="round" stroke-linejoin="round"/>
<path d="M230.043 99.4543H196.248V20.6488C196.248 20.0842 196.346 19.5239 196.529 18.9849C196.73 18.3397 197.055 17.7327 197.492 17.2021C198.017 16.523 198.699 15.9754 199.488 15.5934C200.277 15.2114 201.145 15.0077 202.032 15.0034H210.325C209.554 15.0119 208.796 15.1647 208.088 15.4533C207.379 15.742 206.742 16.1622 206.203 16.6843C205.664 17.2106 205.241 17.8303 204.955 18.5095C204.67 19.1886 204.528 19.9187 204.537 20.6488V88.5966H218.635C221.661 88.5966 224.557 89.7426 226.696 91.7758C228.835 93.8132 230.034 96.5765 230.034 99.4543H230.043Z" fill="#F5A6A7" stroke="black" stroke-width="0.8" stroke-linecap="round" stroke-linejoin="round"/>
<path opacity="0.1" d="M258.326 78.5332H205.027V88.1515H258.326V78.5332Z" fill="black"/>
<path d="M205.976 141.948C207.366 141.948 208.498 140.874 208.498 139.546C208.498 138.217 207.371 137.143 205.976 137.143C204.581 137.143 203.454 138.217 203.454 139.546C203.454 140.874 204.581 141.948 205.976 141.948Z" stroke="black" stroke-width="0.8" stroke-linecap="round" stroke-linejoin="round"/>
<path d="M222.513 142.822C224.304 142.822 225.757 141.439 225.757 139.732C225.757 138.026 224.304 136.642 222.513 136.642C220.721 136.642 219.269 138.026 219.269 139.732C219.269 141.439 220.721 142.822 222.513 142.822Z" fill="#607D8B" stroke="black" stroke-width="0.8" stroke-linecap="round" stroke-linejoin="round"/>
<path d="M260.888 141.876C262.278 141.876 263.41 140.802 263.41 139.474C263.41 138.145 262.283 137.071 260.888 137.071C259.493 137.071 258.366 138.145 258.366 139.474C258.366 140.802 259.493 141.876 260.888 141.876Z" fill="#607D8B" stroke="black" stroke-width="0.8" stroke-linecap="round" stroke-linejoin="round"/>
<path d="M206.039 128.675C205.535 128.675 205.032 128.768 204.568 128.955C204.1 129.137 203.677 129.409 203.32 129.749C202.964 130.088 202.683 130.491 202.487 130.937C202.296 131.383 202.198 131.858 202.198 132.338V133.433C202.296 134.312 202.732 135.122 203.418 135.717C204.105 136.311 205 136.633 205.932 136.633C206.863 136.633 207.754 136.307 208.445 135.717C209.136 135.127 209.568 134.312 209.666 133.433H218.734C218.832 134.312 219.269 135.122 219.955 135.717C220.645 136.307 221.537 136.633 222.468 136.633C223.399 136.633 224.291 136.307 224.981 135.717C225.672 135.127 226.104 134.312 226.202 133.433H255.866C255.969 134.312 256.401 135.122 257.091 135.712C257.782 136.302 258.673 136.629 259.6 136.633C260.527 136.633 261.423 136.307 262.109 135.717C262.8 135.127 263.232 134.312 263.334 133.437V131.247C263.334 130.568 263.054 129.914 262.546 129.435C262.042 128.951 261.36 128.679 260.643 128.679H206.034L206.039 128.675Z" fill="white" stroke="black" stroke-width="0.8" stroke-linecap="round" stroke-linejoin="round"/>
<path d="M167.811 149.614C166.697 149.614 165.628 149.21 164.812 148.489C163.997 147.767 163.498 146.782 163.417 145.726H214.586C214.501 146.782 214.007 147.771 213.191 148.489C212.376 149.21 211.306 149.614 210.192 149.614H167.811Z" fill="black"/>
<path d="M214.226 146.027C214.07 146.94 213.579 147.772 212.844 148.374C212.104 148.973 211.169 149.308 210.193 149.308H167.811C166.84 149.308 165.9 148.973 165.165 148.374C164.425 147.772 163.935 146.944 163.783 146.027H214.23H214.226ZM214.921 145.42H163.093C163.093 146.01 163.213 146.596 163.449 147.144C163.685 147.691 164.033 148.183 164.474 148.604C164.911 149.02 165.432 149.355 166.007 149.58C166.582 149.805 167.192 149.919 167.816 149.919H210.197C210.817 149.919 211.432 149.805 212.006 149.58C212.581 149.355 213.103 149.024 213.539 148.604C213.976 148.188 214.328 147.691 214.564 147.144C214.8 146.596 214.925 146.014 214.925 145.42H214.921Z" fill="black"/>
<path d="M299.019 155H84.0821C83.6008 155 83.1329 154.839 82.7586 154.555C82.3843 154.266 82.1259 153.863 82.0278 153.413L80.8247 147.823C80.7623 147.534 80.7668 147.233 80.8425 146.944C80.9183 146.655 81.0564 146.388 81.2525 146.159C81.4486 145.93 81.6981 145.743 81.9788 145.616C82.2596 145.488 82.567 145.425 82.879 145.425H300.227C300.538 145.425 300.846 145.488 301.127 145.616C301.407 145.743 301.657 145.925 301.853 146.159C302.049 146.388 302.192 146.655 302.263 146.944C302.339 147.233 302.343 147.53 302.281 147.823L301.073 153.413C300.975 153.863 300.717 154.266 300.342 154.555C299.968 154.843 299.5 155 299.019 155Z" fill="#607D8B" stroke="black" stroke-width="0.8" stroke-miterlimit="10"/>
<path d="M166.589 145.42H218.418C218.418 146.613 217.919 147.759 217.032 148.604C216.145 149.448 214.942 149.924 213.69 149.924H171.308C170.056 149.924 168.853 149.448 167.966 148.604C167.08 147.759 166.581 146.613 166.581 145.42H166.585H166.589Z" fill="black" stroke="black" stroke-width="0.8" stroke-miterlimit="10"/>
<path d="M215.384 143.128C216.498 143.128 217.568 143.327 218.383 143.688C219.199 144.049 219.698 144.541 219.778 145.068H168.609C168.694 144.541 169.188 144.049 170.004 143.688C170.819 143.327 171.889 143.128 173.003 143.128H215.384Z" fill="black"/>
<path d="M168.969 144.915C169.125 144.461 169.615 144.045 170.35 143.743C171.09 143.446 172.03 143.281 173.002 143.276H215.383C216.355 143.276 217.295 143.442 218.03 143.743C218.77 144.045 219.26 144.456 219.411 144.915H168.965H168.969ZM168.274 145.216H220.102C220.102 144.923 219.982 144.63 219.746 144.359C219.509 144.087 219.162 143.841 218.721 143.633C218.284 143.425 217.763 143.259 217.188 143.149C216.613 143.039 216.003 142.979 215.379 142.979H172.997C172.378 142.979 171.763 143.039 171.188 143.149C170.613 143.259 170.092 143.425 169.655 143.633C169.219 143.841 168.867 144.087 168.63 144.363C168.394 144.635 168.27 144.928 168.27 145.22L168.274 145.216Z" fill="black"/>
<path d="M297.999 141.235C299.915 141.235 301.639 142.334 302.37 144.023C302.433 144.168 302.428 144.316 302.352 144.461C302.277 144.605 302.138 144.736 301.942 144.851C301.746 144.966 301.497 145.059 301.216 145.123C300.935 145.186 300.628 145.22 300.316 145.216H82.9683C82.6564 145.216 82.3489 145.182 82.0682 145.123C81.7875 145.059 81.5379 144.966 81.3419 144.851C81.1458 144.736 81.0032 144.601 80.9319 144.461C80.8562 144.316 80.8517 144.168 80.9141 144.023C81.6449 142.338 83.3693 141.235 85.2854 141.235H298.003H297.999Z" fill="#607D8B" stroke="black" stroke-width="0.8" stroke-miterlimit="10"/>
<path d="M171.425 71.5002H165.69V81.5218H171.425V71.5002Z" fill="black"/>
<path d="M171.042 71.8736V81.1523H166.082V71.8736H171.042ZM171.817 71.135H165.307V81.8994H171.817V71.135Z" fill="black"/>
<path d="M164.304 65.4977C164.656 65.4977 164.937 65.226 164.937 64.895C164.937 64.5639 164.652 64.2922 164.304 64.2922C163.957 64.2922 163.672 64.5639 163.672 64.895C163.672 65.226 163.957 65.4977 164.304 65.4977Z" fill="black"/>
<path d="M166.987 70.613C167.339 70.613 167.62 70.3413 167.62 70.0102C167.62 69.6791 167.334 69.4075 166.987 69.4075C166.639 69.4075 166.354 69.6791 166.354 70.0102C166.354 70.3413 166.639 70.613 166.987 70.613Z" fill="black"/>
<path d="M171.05 75.736C171.402 75.736 171.683 75.4643 171.683 75.1332C171.683 74.8022 171.398 74.5305 171.05 74.5305C170.702 74.5305 170.417 74.8022 170.417 75.1332C170.417 75.4643 170.702 75.736 171.05 75.736Z" fill="black"/>
<path d="M164.304 75.736C164.656 75.736 164.937 75.4643 164.937 75.1332C164.937 74.8022 164.652 74.5305 164.304 74.5305C163.957 74.5305 163.672 74.8022 163.672 75.1332C163.672 75.4643 163.957 75.736 164.304 75.736Z" fill="black"/>
<path d="M206.053 132.368H161.631C160.039 132.368 158.748 133.598 158.748 135.114V138.268C158.748 139.785 160.039 141.014 161.631 141.014H206.053C207.645 141.014 208.936 139.785 208.936 138.268V135.114C208.936 133.598 207.645 132.368 206.053 132.368Z" fill="#D9D9D9" stroke="black" stroke-width="0.8"/>
<path d="M205.474 76.2199C205.541 76.0332 205.572 75.8379 205.576 75.6384L205.607 71.7079C205.607 71.2156 205.407 70.7401 205.042 70.3878C204.676 70.0355 204.182 69.836 203.665 69.8318L164.322 69.5559C163.912 69.5559 163.507 69.6748 163.173 69.904C162.838 70.1332 162.584 70.4558 162.451 70.825C162.384 71.0118 162.353 71.2071 162.348 71.4066L162.322 75.3413C162.322 75.5875 162.366 75.8295 162.464 76.0544C162.562 76.2794 162.705 76.4874 162.887 76.6614C163.066 76.8354 163.284 76.9755 163.52 77.0689C163.756 77.1665 164.01 77.2132 164.269 77.2174L203.607 77.4849C204.017 77.4891 204.422 77.3702 204.756 77.141C205.091 76.9118 205.345 76.5892 205.474 76.2199Z" fill="black"/>
<path d="M162.843 70.9567C162.794 71.1053 162.762 71.2581 162.762 71.4151L162.736 75.3499C162.736 75.7404 162.892 76.1182 163.181 76.3941C163.471 76.67 163.859 76.827 164.268 76.827L203.611 77.1029C203.936 77.1029 204.257 77.0095 204.52 76.827C204.787 76.6445 204.983 76.3898 205.086 76.0969C205.135 75.9484 205.166 75.7956 205.166 75.6385L205.197 71.708C205.197 71.3175 205.037 70.944 204.756 70.6638C204.466 70.3879 204.074 70.2309 203.664 70.2266L164.322 69.9507C163.997 69.9507 163.68 70.0483 163.413 70.2266C163.15 70.4049 162.95 70.6638 162.843 70.9567ZM162.072 70.7105C162.228 70.2606 162.531 69.8701 162.936 69.5984C163.342 69.3225 163.827 69.1782 164.322 69.1825L203.664 69.4499C203.976 69.4499 204.284 69.5135 204.569 69.6281C204.854 69.7427 205.113 69.9125 205.331 70.1205C205.549 70.3285 205.719 70.5789 205.834 70.8548C205.95 71.1307 206.008 71.4236 206.004 71.7165L205.977 75.6513C205.977 75.8805 205.937 76.1097 205.866 76.3261C205.705 76.7761 205.402 77.1624 204.997 77.4383C204.591 77.7142 204.105 77.8585 203.606 77.8542L164.268 77.5868C163.957 77.5868 163.649 77.5231 163.364 77.4085C163.079 77.2939 162.82 77.1241 162.602 76.9161C162.384 76.7039 162.21 76.4577 162.094 76.1818C161.978 75.9059 161.92 75.613 161.92 75.3202L161.951 71.3897C161.951 71.1605 161.987 70.9312 162.063 70.7148L162.072 70.7105Z" fill="black"/>
<path d="M207.956 80.4562C208.023 80.2694 208.054 80.0742 208.058 79.8747L208.085 75.9399C208.085 75.6937 208.041 75.4518 207.943 75.2268C207.844 75.0019 207.706 74.7939 207.524 74.6199C207.345 74.4458 207.132 74.3057 206.895 74.2124C206.659 74.119 206.405 74.0681 206.147 74.0681L166.804 73.8006C166.394 73.7964 165.989 73.9153 165.655 74.1445C165.321 74.3737 165.067 74.6963 164.937 75.0655C164.87 75.2523 164.839 75.4475 164.835 75.647L164.808 79.5818C164.808 79.828 164.853 80.0699 164.951 80.2949C165.049 80.5199 165.187 80.7279 165.37 80.9019C165.548 81.0759 165.762 81.216 165.998 81.3094C166.234 81.4028 166.488 81.4537 166.746 81.4537L206.089 81.7296C206.499 81.7296 206.904 81.6107 207.238 81.3815C207.573 81.1523 207.827 80.8297 207.96 80.4605L207.956 80.4562Z" fill="black"/>
<path d="M205.402 85.176C205.469 84.9892 205.505 84.794 205.505 84.5945L205.536 80.6639C205.536 80.4177 205.492 80.1758 205.394 79.9508C205.295 79.7259 205.153 79.5179 204.975 79.3439C204.796 79.1698 204.578 79.0298 204.342 78.9364C204.106 78.843 203.852 78.7921 203.593 78.7921L164.273 78.5247C163.859 78.5247 163.458 78.6435 163.124 78.8727C162.789 79.1019 162.535 79.4245 162.406 79.798C162.339 79.9848 162.308 80.1801 162.304 80.3796L162.272 84.3101C162.272 84.5563 162.317 84.7982 162.415 85.0232C162.513 85.2481 162.656 85.4561 162.834 85.6301C163.012 85.8042 163.231 85.9442 163.467 86.0376C163.703 86.131 163.957 86.1819 164.215 86.1819L203.553 86.4494C203.963 86.4494 204.364 86.3305 204.698 86.1013C205.033 85.8721 205.278 85.5495 205.407 85.1802L205.402 85.176Z" fill="black"/>
<path d="M162.781 79.9123C162.727 80.0609 162.7 80.2137 162.7 80.3707L162.669 84.3012C162.669 84.4965 162.705 84.6875 162.781 84.8658C162.856 85.0441 162.968 85.2096 163.11 85.3454C163.253 85.4812 163.422 85.5916 163.609 85.668C163.796 85.7444 163.997 85.7826 164.202 85.7826L203.535 86.0543C203.861 86.0543 204.182 85.9609 204.449 85.7826C204.716 85.6043 204.912 85.3454 205.019 85.0526C205.073 84.904 205.095 84.7469 205.091 84.5941L205.122 80.6636C205.122 80.4684 205.086 80.2773 205.01 80.0991C204.935 79.9208 204.819 79.7552 204.676 79.6194C204.534 79.4836 204.364 79.3732 204.177 79.2968C203.99 79.2204 203.789 79.1822 203.584 79.1822L164.251 78.9106C163.926 78.9106 163.605 79.004 163.342 79.1865C163.075 79.369 162.879 79.6237 162.776 79.9165L162.781 79.9123ZM162.001 79.6619C162.161 79.212 162.464 78.8214 162.87 78.5455C163.275 78.2696 163.761 78.1211 164.26 78.1253L203.593 78.397C204.222 78.4012 204.819 78.6432 205.26 79.0719C205.701 79.4963 205.946 80.0694 205.942 80.6679L205.91 84.5984C205.91 84.8276 205.875 85.0568 205.799 85.2733C205.639 85.7232 205.336 86.1137 204.93 86.3853C204.525 86.6612 204.039 86.8056 203.54 86.8013L164.198 86.5466C163.569 86.5424 162.972 86.3005 162.531 85.8718C162.09 85.4431 161.845 84.8743 161.849 84.2758L161.88 80.3453C161.88 80.116 161.92 79.8868 161.992 79.6704V79.6576L162.001 79.6619Z" fill="black"/>
<path d="M206.027 129.061C206.249 128.432 206.365 127.775 206.374 127.108L206.824 67.1911C206.833 65.5357 206.151 63.944 204.935 62.764C203.714 61.584 202.052 60.9133 200.314 60.9006L170.178 60.6969C169.318 60.6884 168.462 60.8454 167.665 61.151C166.867 61.4609 166.141 61.9151 165.526 62.4923C164.911 63.0696 164.425 63.753 164.091 64.5085C163.757 65.2641 163.583 66.0748 163.578 66.8982L163.128 126.815C163.119 128.471 163.797 130.062 165.018 131.238C166.239 132.418 167.896 133.085 169.634 133.102L199.775 133.31C201.156 133.318 202.502 132.911 203.625 132.151C204.748 131.387 205.59 130.304 206.031 129.061H206.027Z" fill="black"/>
<path d="M203.897 124.201C204.107 123.598 204.218 122.966 204.223 122.329L204.637 66.313C204.646 64.7255 203.995 63.2017 202.823 62.0726C201.656 60.9435 200.061 60.3026 198.399 60.2899L172.059 60.1243C170.735 60.1116 169.443 60.5021 168.369 61.2322C167.291 61.9622 166.484 63.0022 166.066 64.1949C165.852 64.7977 165.745 65.4258 165.74 66.0625L165.321 122.083C165.312 123.671 165.963 125.194 167.135 126.323C168.302 127.452 169.898 128.093 171.56 128.106L197.891 128.284C199.214 128.297 200.511 127.907 201.589 127.172C202.667 126.438 203.474 125.398 203.897 124.201Z" fill="black"/>
<path d="M195.755 61.0416C195.826 60.8421 195.862 60.6383 195.862 60.4261V60.286L174.589 60.1375V60.2818C174.589 60.5407 174.638 60.7954 174.74 61.0373C174.843 61.275 174.994 61.4957 175.182 61.6782C175.373 61.8608 175.6 62.0093 175.85 62.1069C176.099 62.2046 176.367 62.2598 176.639 62.2598L193.777 62.3743C194.213 62.3828 194.637 62.2598 194.993 62.0178C195.35 61.7801 195.617 61.4363 195.755 61.0458V61.0416Z" fill="black"/>
<path d="M184.442 61.1897L188.724 61.2194V61.3807L184.442 61.351V61.1897Z" fill="black"/>
<path d="M184.036 60.9604C184.054 60.9095 184.09 60.867 184.134 60.8331C184.179 60.8033 184.237 60.7864 184.29 60.7864L188.853 60.8288C188.889 60.8288 188.924 60.8373 188.956 60.8501C188.987 60.8628 189.018 60.884 189.04 60.9052C189.063 60.9307 189.085 60.9562 189.098 60.9859C189.112 61.0156 189.116 61.0495 189.116 61.0835V61.5165C189.112 61.5419 189.098 61.5716 189.085 61.5929C189.067 61.6353 189.04 61.6693 189.005 61.699C188.969 61.7287 188.924 61.7457 188.88 61.7542L184.326 61.7117C184.254 61.7117 184.188 61.6862 184.134 61.6353C184.085 61.5886 184.058 61.5207 184.058 61.4528V61.0283L184.085 60.9519H184.036V60.9604Z" fill="black"/>
<path d="M182.419 61.1809L182.383 61.3041H182.419V61.1809Z" fill="black"/>
<path d="M182.005 61.0501C182.036 60.9694 182.09 60.9015 182.161 60.8506C182.232 60.7996 182.321 60.7742 182.41 60.7742C182.468 60.7742 182.522 60.7869 182.575 60.8081C182.629 60.8293 182.673 60.8591 182.713 60.8973C182.754 60.9355 182.785 60.9821 182.803 61.0288C182.825 61.0798 182.834 61.1307 182.834 61.1859V61.3132L182.794 61.4278C182.767 61.5085 182.709 61.5806 182.638 61.6316C182.566 61.6825 182.477 61.708 182.388 61.7122C182.33 61.7122 182.277 61.6995 182.223 61.6783C182.17 61.6571 182.125 61.6273 182.085 61.5891C182.045 61.5509 182.014 61.5042 181.996 61.4533C181.974 61.4024 181.965 61.3514 181.965 61.2962V61.1689C181.974 61.1265 181.987 61.084 182.009 61.0458L182.005 61.0501Z" fill="black"/>
<path d="M187.783 89.3869C187.881 89.1067 187.93 88.8138 187.935 88.5167C187.935 87.7782 187.636 87.0735 187.092 86.5472C186.745 86.2076 186.308 85.9572 185.827 85.8214C185.346 85.6856 184.838 85.6728 184.352 85.7789C183.866 85.885 183.412 86.11 183.042 86.4284C182.672 86.7467 182.391 87.1542 182.235 87.6084C182.137 87.8885 182.084 88.1814 182.079 88.4743C182.079 88.8393 182.151 89.2001 182.293 89.5397C182.436 89.8792 182.65 90.1848 182.917 90.4438C183.184 90.7027 183.505 90.9107 183.857 91.0507C184.209 91.1908 184.588 91.2672 184.971 91.2672C185.586 91.28 186.192 91.1017 186.696 90.7664C187.199 90.4268 187.578 89.9471 187.779 89.3911L187.783 89.3869Z" fill="black"/>
<path d="M182.663 87.7436C182.579 87.9856 182.534 88.236 182.534 88.4907C182.543 89.1146 182.806 89.7089 183.269 90.1503C183.497 90.3753 183.773 90.5536 184.076 90.6767C184.379 90.7998 184.704 90.8592 185.034 90.8592C185.564 90.8634 186.077 90.7106 186.509 90.422C186.941 90.1291 187.262 89.7174 187.431 89.242C187.516 89 187.561 88.7496 187.561 88.4949C187.561 87.9304 187.347 87.3828 186.964 86.9541C186.58 86.5254 186.05 86.2368 185.466 86.1434C184.883 86.05 184.281 86.1561 183.773 86.4448C183.265 86.7334 182.877 87.1833 182.681 87.7182L182.668 87.7521L182.663 87.7436ZM181.906 87.4635C182.173 86.7122 182.73 86.0882 183.466 85.7105C184.196 85.3327 185.052 85.2308 185.858 85.4303C186.665 85.6256 187.365 86.1052 187.819 86.7716C188.274 87.438 188.447 88.2403 188.305 89.0213C188.162 89.8023 187.721 90.5069 187.057 90.9908C186.398 91.4747 185.569 91.7039 184.74 91.6317C183.911 91.5596 183.14 91.1945 182.583 90.6045C182.026 90.0145 181.719 89.2505 181.728 88.4567C181.728 88.1214 181.79 87.7861 181.906 87.4677V87.4635Z" fill="black"/>
<path d="M197.253 89.4509C197.351 89.175 197.4 88.8822 197.4 88.5893C197.4 87.855 197.102 87.1461 196.562 86.6198C196.019 86.0934 195.283 85.7963 194.508 85.7878C193.893 85.7878 193.296 85.9661 192.797 86.3014C192.298 86.641 191.924 87.1207 191.728 87.6725C191.558 88.1606 191.531 88.6827 191.652 89.1835C191.772 89.6844 192.035 90.1428 192.409 90.5121C192.757 90.8517 193.194 91.1021 193.675 91.2379C194.156 91.3737 194.664 91.3865 195.15 91.2804C195.635 91.1743 196.09 90.9493 196.46 90.6309C196.83 90.3126 197.106 89.9051 197.266 89.4509H197.253Z" fill="black"/>
<path d="M192.114 87.7989C192.03 88.0409 191.985 88.2913 191.976 88.546C191.967 89.1148 192.172 89.6708 192.556 90.108C192.939 90.5452 193.473 90.8381 194.066 90.9315C194.654 91.0248 195.265 90.9145 195.777 90.6216C196.29 90.3287 196.673 89.8661 196.86 89.327C196.945 89.0893 196.989 88.8389 196.989 88.5842C196.989 88.0196 196.784 87.4679 196.401 87.0349C196.018 86.602 195.488 86.3133 194.899 86.22C194.311 86.1266 193.71 86.2327 193.202 86.5213C192.689 86.8099 192.306 87.2641 192.114 87.7989ZM191.339 87.5485C191.606 86.793 192.159 86.1563 192.894 85.77C193.629 85.3837 194.489 85.2776 195.3 85.4686C196.116 85.6597 196.82 86.1393 197.283 86.8057C197.742 87.4721 197.925 88.2786 197.787 89.0681C197.649 89.8576 197.208 90.5664 196.548 91.0546C195.889 91.5469 195.055 91.7804 194.222 91.7125C193.389 91.6445 192.609 91.2795 192.043 90.6938C191.477 90.1038 191.165 89.3355 191.17 88.5375C191.17 88.2022 191.228 87.8668 191.339 87.5485Z" fill="black"/>
<path d="M178.302 89.323C178.4 89.0429 178.453 88.75 178.458 88.4571C178.444 87.8077 178.195 87.1837 177.753 86.6914C177.308 86.199 176.697 85.8722 176.029 85.766C175.356 85.6599 174.665 85.7788 174.077 86.1056C173.489 86.4324 173.039 86.946 172.807 87.553C172.709 87.8332 172.656 88.126 172.656 88.4231C172.669 89.0726 172.919 89.6965 173.36 90.1889C173.805 90.6813 174.416 91.0081 175.084 91.1142C175.757 91.2204 176.448 91.1015 177.036 90.7747C177.624 90.4478 178.074 89.9342 178.306 89.3273H178.302V89.323Z" fill="black"/>
<path d="M173.173 87.6677C173.088 87.9097 173.043 88.1601 173.043 88.4148C173.034 88.9835 173.239 89.5396 173.623 89.9768C174.006 90.414 174.541 90.7069 175.133 90.8002C175.721 90.8936 176.332 90.7833 176.844 90.4904C177.357 90.1975 177.74 89.7348 177.927 89.1958C178.012 88.9581 178.056 88.7076 178.056 88.453C178.056 87.8205 177.802 87.2093 177.335 86.7551C177.032 86.4665 176.662 86.2543 176.247 86.1397C175.837 86.0251 175.401 86.0166 174.986 86.1057C174.572 86.1948 174.184 86.3858 173.868 86.6617C173.551 86.9334 173.311 87.2814 173.173 87.6635V87.6677ZM172.402 87.4215C172.651 86.7084 173.164 86.1015 173.841 85.7152C174.518 85.3289 175.32 85.1846 176.1 85.3077C176.88 85.435 177.589 85.8213 178.092 86.3986C178.6 86.9758 178.872 87.7059 178.867 88.4615C178.863 88.9199 178.752 89.3698 178.547 89.7815C178.342 90.1932 178.043 90.5583 177.678 90.8512C177.308 91.1441 176.88 91.3563 176.417 91.4794C175.953 91.5982 175.467 91.6195 174.995 91.5473C174.523 91.4709 174.073 91.2969 173.676 91.0422C173.28 90.7875 172.945 90.4479 172.7 90.0574C172.455 89.6669 172.299 89.2297 172.246 88.7755C172.192 88.3214 172.246 87.863 172.397 87.43L172.402 87.4215Z" fill="black"/>
<path d="M187.685 98.8777C187.783 98.5975 187.837 98.3047 187.837 98.0075C187.837 97.3114 187.57 96.6408 187.075 96.1272C186.58 95.6136 185.903 95.2952 185.172 95.2358C184.441 95.1764 183.72 95.3844 183.14 95.8088C182.561 96.2375 182.178 96.8573 182.057 97.5449C181.937 98.2325 182.093 98.9371 182.494 99.5186C182.895 100.1 183.515 100.516 184.223 100.686C184.932 100.856 185.685 100.762 186.326 100.427C186.968 100.092 187.454 99.5398 187.685 98.8777Z" fill="black"/>
<path d="M182.57 97.2311C182.486 97.473 182.441 97.7234 182.441 97.9781C182.441 98.6106 182.699 99.2175 183.163 99.6675C183.631 100.117 184.264 100.372 184.927 100.376C185.386 100.376 185.841 100.262 186.238 100.032C186.634 99.8033 186.955 99.4807 187.169 99.0902C187.383 98.6997 187.476 98.2625 187.445 97.8211C187.414 97.3839 187.254 96.9594 186.986 96.6029C186.719 96.2463 186.353 95.9662 185.926 95.7922C185.502 95.6181 185.034 95.5629 184.58 95.6266C184.121 95.6903 183.693 95.8728 183.341 96.1572C182.989 96.4373 182.722 96.8109 182.575 97.2268L182.57 97.2311ZM181.795 96.9806C182.062 96.2251 182.615 95.5884 183.35 95.2021C184.085 94.8159 184.945 94.7098 185.756 94.9008C186.572 95.0918 187.276 95.5714 187.739 96.2378C188.198 96.9042 188.381 97.7107 188.243 98.5002C188.105 99.2897 187.663 99.9986 187.004 100.487C186.344 100.979 185.511 101.212 184.678 101.145C183.845 101.077 183.065 100.712 182.499 100.126C181.933 99.5359 181.621 98.7676 181.626 97.9696C181.626 97.6343 181.683 97.299 181.795 96.9806Z" fill="black"/>
<path d="M197.177 98.9455C197.275 98.6696 197.328 98.3767 197.333 98.0838C197.319 97.4344 197.07 96.8104 196.629 96.3181C196.183 95.8257 195.573 95.4989 194.9 95.3927C194.227 95.2866 193.541 95.4055 192.948 95.7323C192.36 96.0591 191.91 96.5727 191.674 97.1797C191.527 97.5957 191.486 98.0414 191.553 98.4743C191.62 98.9073 191.794 99.3233 192.061 99.6798C192.329 100.036 192.681 100.329 193.091 100.533C193.501 100.737 193.955 100.843 194.414 100.847C195.025 100.847 195.622 100.66 196.116 100.321C196.611 99.9812 196.981 99.4973 197.172 98.9455H197.177Z" fill="black"/>
<path d="M192.038 97.2948C191.954 97.5367 191.909 97.7871 191.909 98.0418C191.9 98.6106 192.105 99.1667 192.489 99.6039C192.872 100.041 193.406 100.334 193.995 100.427C194.583 100.521 195.189 100.415 195.701 100.117C196.214 99.8246 196.597 99.3661 196.789 98.8228C196.873 98.5809 196.913 98.3305 196.918 98.0758C196.927 97.507 196.722 96.951 196.339 96.5138C195.955 96.0766 195.421 95.7837 194.832 95.6903C194.244 95.5969 193.638 95.703 193.126 96.0002C192.613 96.293 192.23 96.7514 192.038 97.2948ZM191.268 97.0486C191.539 96.2973 192.096 95.6691 192.827 95.2913C193.562 94.9135 194.418 94.8117 195.225 95.0069C196.031 95.2022 196.735 95.6818 197.19 96.3482C197.644 97.0146 197.818 97.8211 197.675 98.6021C197.533 99.3874 197.087 100.088 196.428 100.576C195.768 101.06 194.935 101.289 194.106 101.217C193.273 101.145 192.502 100.78 191.945 100.19C191.388 99.5996 191.08 98.8313 191.089 98.0376C191.089 97.7022 191.152 97.3669 191.268 97.0486Z" fill="black"/>
<path d="M178.238 98.8139C178.336 98.538 178.385 98.2451 178.385 97.9522C178.372 97.3028 178.122 96.6789 177.681 96.1865C177.235 95.6941 176.625 95.3673 175.952 95.2612C175.279 95.155 174.593 95.2739 174 95.6007C173.408 95.9276 172.962 96.4411 172.726 97.0481C172.556 97.5363 172.53 98.0583 172.65 98.5592C172.77 99.0601 173.033 99.5185 173.408 99.8878C173.755 100.227 174.192 100.478 174.673 100.614C175.154 100.749 175.662 100.762 176.148 100.656C176.634 100.55 177.088 100.325 177.458 100.007C177.828 99.6883 178.109 99.2808 178.265 98.8266L178.233 98.8139H178.238Z" fill="black"/>
<path d="M173.101 97.163C173.016 97.4049 172.971 97.6554 172.971 97.9101C172.971 98.4746 173.176 99.0264 173.56 99.4593C173.943 99.8923 174.473 100.181 175.061 100.274C175.645 100.368 176.251 100.262 176.759 99.973C177.272 99.6843 177.655 99.2301 177.846 98.6953C177.993 98.2708 178.011 97.8167 177.9 97.3837C177.788 96.9508 177.557 96.556 177.223 96.2419C176.924 95.9533 176.55 95.741 176.14 95.6264C175.73 95.5118 175.293 95.5033 174.879 95.5925C174.46 95.6859 174.077 95.8769 173.76 96.1485C173.444 96.4202 173.203 96.7682 173.069 97.1545L173.105 97.1672L173.101 97.163ZM172.29 96.9041C172.557 96.1443 173.11 95.5076 173.849 95.1213C174.585 94.7351 175.449 94.6289 176.264 94.82C177.08 95.011 177.788 95.4906 178.252 96.157C178.715 96.8234 178.894 97.6342 178.76 98.4237C178.622 99.2132 178.181 99.9262 177.517 100.414C176.853 100.907 176.019 101.14 175.182 101.072C174.344 101.004 173.564 100.639 172.998 100.049C172.432 99.4593 172.12 98.6868 172.125 97.8846C172.125 97.5493 172.183 97.2139 172.299 96.8956L172.29 96.9041Z" fill="black"/>
<path d="M187.636 108.377C187.734 108.097 187.787 107.804 187.787 107.507C187.774 106.858 187.525 106.234 187.083 105.741C186.638 105.249 186.027 104.922 185.354 104.816C184.682 104.71 183.991 104.829 183.403 105.156C182.815 105.483 182.364 105.996 182.133 106.607C182.035 106.887 181.981 107.18 181.977 107.473C181.995 108.118 182.249 108.734 182.694 109.222C183.14 109.706 183.746 110.033 184.414 110.139C185.083 110.245 185.769 110.126 186.353 109.804C186.936 109.481 187.391 108.976 187.627 108.373H187.636V108.377Z" fill="black"/>
<path d="M182.495 106.726C182.326 107.206 182.317 107.723 182.473 108.207C182.629 108.691 182.945 109.116 183.368 109.417C183.796 109.718 184.309 109.884 184.843 109.893C185.378 109.901 185.895 109.744 186.327 109.451C186.759 109.158 187.085 108.742 187.254 108.263C187.423 107.783 187.428 107.265 187.267 106.781C187.107 106.297 186.791 105.877 186.363 105.576C185.935 105.274 185.418 105.113 184.888 105.109C184.362 105.105 183.845 105.257 183.413 105.546C182.981 105.839 182.66 106.251 182.49 106.726H182.495ZM181.724 106.48C181.991 105.724 182.544 105.088 183.279 104.706C184.014 104.319 184.874 104.213 185.685 104.404C186.501 104.595 187.205 105.075 187.668 105.741C188.127 106.408 188.31 107.214 188.172 108.004C188.034 108.793 187.593 109.502 186.933 109.99C186.274 110.482 185.44 110.716 184.607 110.648C183.774 110.58 182.994 110.215 182.428 109.629C181.862 109.039 181.55 108.271 181.555 107.473C181.555 107.138 181.613 106.802 181.724 106.484V106.48Z" fill="black"/>
<path d="M187.56 117.872C187.805 117.176 187.752 116.412 187.409 115.75C187.066 115.088 186.46 114.587 185.729 114.349C184.998 114.116 184.196 114.167 183.501 114.494C182.81 114.821 182.28 115.398 182.035 116.094C181.937 116.374 181.883 116.667 181.883 116.964C181.897 117.613 182.146 118.237 182.592 118.73C183.037 119.222 183.648 119.549 184.321 119.655C184.994 119.761 185.684 119.642 186.272 119.316C186.861 118.989 187.311 118.475 187.542 117.864L187.565 117.872H187.56Z" fill="black"/>
<path d="M182.423 116.222C182.209 116.82 182.258 117.478 182.552 118.043C182.846 118.611 183.367 119.04 183.996 119.244C184.624 119.448 185.315 119.401 185.907 119.121C186.504 118.841 186.954 118.344 187.168 117.745C187.253 117.504 187.297 117.253 187.306 116.998C187.315 116.43 187.11 115.874 186.727 115.436C186.344 114.999 185.809 114.706 185.216 114.613C184.624 114.52 184.018 114.63 183.505 114.923C182.993 115.216 182.61 115.678 182.423 116.217V116.222ZM181.643 115.971C181.897 115.258 182.409 114.655 183.087 114.273C183.764 113.887 184.561 113.743 185.341 113.87C186.121 113.993 186.825 114.379 187.333 114.952C187.841 115.525 188.117 116.256 188.117 117.007C188.117 117.342 188.059 117.678 187.948 117.996C187.667 118.794 187.066 119.447 186.273 119.821C185.479 120.195 184.57 120.254 183.733 119.982C182.895 119.715 182.209 119.142 181.817 118.386C181.424 117.635 181.362 116.765 181.647 115.967L181.643 115.971Z" fill="black"/>
<path d="M197.106 108.445C197.204 108.165 197.257 107.872 197.257 107.575C197.244 106.926 196.994 106.302 196.553 105.81C196.107 105.317 195.497 104.99 194.829 104.884C194.156 104.778 193.465 104.897 192.877 105.224C192.289 105.551 191.839 106.064 191.602 106.671C191.504 106.951 191.451 107.244 191.451 107.541C191.464 108.191 191.714 108.815 192.155 109.307C192.601 109.799 193.211 110.126 193.879 110.232C194.552 110.339 195.243 110.22 195.831 109.893C196.419 109.566 196.869 109.057 197.101 108.445H197.106Z" fill="black"/>
<path d="M191.972 106.79C191.887 107.032 191.842 107.282 191.842 107.537C191.842 108.102 192.047 108.653 192.43 109.086C192.814 109.519 193.344 109.808 193.932 109.905C194.516 109.999 195.122 109.893 195.63 109.604C196.138 109.315 196.526 108.861 196.717 108.326C196.864 107.902 196.882 107.448 196.771 107.015C196.659 106.582 196.428 106.187 196.093 105.873C195.625 105.423 194.993 105.169 194.329 105.164C193.803 105.16 193.286 105.313 192.858 105.606C192.43 105.899 192.11 106.31 191.94 106.786L191.976 106.794L191.972 106.79ZM191.161 106.531C191.428 105.771 191.98 105.135 192.72 104.748C193.455 104.362 194.315 104.256 195.135 104.447C195.951 104.638 196.659 105.118 197.123 105.784C197.586 106.45 197.764 107.261 197.631 108.051C197.493 108.84 197.051 109.553 196.387 110.046C195.723 110.538 194.89 110.771 194.052 110.703C193.215 110.636 192.435 110.271 191.869 109.681C191.303 109.091 190.991 108.318 190.996 107.516C190.996 107.18 191.054 106.845 191.165 106.527L191.161 106.531Z" fill="black"/>
<path d="M178.163 108.314C178.261 108.034 178.314 107.741 178.319 107.448C178.306 106.799 178.056 106.175 177.615 105.682C177.169 105.19 176.559 104.863 175.89 104.753C175.222 104.642 174.527 104.765 173.939 105.092C173.35 105.419 172.9 105.933 172.664 106.54C172.566 106.82 172.513 107.113 172.513 107.41C172.526 108.059 172.776 108.683 173.217 109.176C173.662 109.668 174.273 109.995 174.941 110.101C175.614 110.207 176.3 110.088 176.893 109.761C177.481 109.434 177.931 108.921 178.167 108.314H178.163Z" fill="black"/>
<path d="M173.024 106.667C172.94 106.904 172.895 107.155 172.895 107.409C172.886 107.978 173.091 108.534 173.474 108.971C173.858 109.409 174.392 109.701 174.981 109.799C175.569 109.892 176.175 109.786 176.687 109.493C177.2 109.201 177.583 108.742 177.775 108.199C177.859 107.957 177.904 107.706 177.904 107.452C177.913 106.883 177.708 106.327 177.324 105.89C176.941 105.453 176.407 105.16 175.814 105.066C175.221 104.973 174.615 105.083 174.103 105.376C173.59 105.673 173.207 106.132 173.02 106.675L173.024 106.667ZM172.253 106.42C172.507 105.707 173.02 105.109 173.697 104.723C174.375 104.336 175.172 104.196 175.952 104.319C176.727 104.442 177.436 104.829 177.944 105.402C178.452 105.979 178.728 106.705 178.724 107.456C178.724 107.914 178.617 108.369 178.412 108.785C178.207 109.201 177.908 109.57 177.543 109.867C177.173 110.164 176.741 110.381 176.277 110.499C175.814 110.618 175.324 110.644 174.847 110.567C174.37 110.491 173.92 110.317 173.519 110.058C173.122 109.799 172.788 109.459 172.539 109.065C172.294 108.67 172.138 108.229 172.089 107.77C172.04 107.312 172.093 106.849 172.249 106.416L172.253 106.42Z" fill="black"/>
<path d="M162.914 73.0452L202.252 73.3169C203.557 73.3254 204.609 74.3398 204.6 75.5835L204.569 79.514C204.56 80.7577 203.495 81.7594 202.189 81.7509L162.852 81.4793C161.546 81.4708 160.494 80.4563 160.503 79.2127L160.534 75.2821C160.543 74.0385 161.608 73.0367 162.914 73.0452Z" fill="black"/>
<path d="M165.4 77.2723L204.738 77.5439C206.044 77.5524 207.095 78.5669 207.082 79.8105L207.051 83.7411C207.042 84.9847 205.977 85.9865 204.671 85.978L165.334 85.7063C164.028 85.6978 162.976 84.6834 162.985 83.4397L163.016 79.5092C163.025 78.2655 164.09 77.2638 165.396 77.2723H165.4Z" fill="black"/>
<path d="M162.852 82.0008L202.19 82.2724C203.495 82.2809 204.547 83.2954 204.534 84.5391L204.503 88.4696C204.494 89.7133 203.429 90.715 202.123 90.7065L162.785 90.4348C161.48 90.4263 160.428 89.4119 160.437 88.1682L160.468 84.2377C160.477 82.994 161.542 81.9923 162.848 82.0008H162.852Z" fill="black"/>
<path d="M204.645 130.093C204.868 129.465 204.984 128.807 204.992 128.14L205.443 68.2233C205.456 66.5679 204.774 64.9761 203.553 63.7961C202.332 62.6161 200.67 61.9497 198.932 61.937L168.805 61.712C167.945 61.7035 167.089 61.8606 166.292 62.1662C165.494 62.4718 164.768 62.9302 164.153 63.5032C163.538 64.0805 163.052 64.7639 162.718 65.5194C162.384 66.275 162.21 67.0857 162.206 67.9049L161.747 127.847C161.738 129.503 162.42 131.095 163.64 132.27C164.861 133.45 166.519 134.121 168.257 134.134L198.398 134.342C199.774 134.35 201.125 133.943 202.243 133.179C203.366 132.415 204.204 131.332 204.645 130.089V130.093Z" fill="#FBE62E" stroke="black" stroke-width="0.8"/>
<path d="M202.506 128.106C202.72 127.503 202.831 126.871 202.84 126.234L203.255 70.2179C203.264 69.4326 203.108 68.6516 202.796 67.9215C202.484 67.1915 202.029 66.5293 201.45 65.969C200.871 65.4087 200.18 64.963 199.418 64.6574C198.656 64.3518 197.841 64.1948 197.016 64.1905L170.681 64.0123C169.358 63.9995 168.065 64.39 166.991 65.1201C165.913 65.8502 165.107 66.8901 164.688 68.0828C164.474 68.6856 164.362 69.3138 164.358 69.9462L163.939 125.967C163.93 127.554 164.581 129.078 165.753 130.207C166.92 131.336 168.515 131.977 170.178 131.99L196.513 132.168C197.836 132.181 199.128 131.79 200.207 131.06C201.285 130.33 202.092 129.29 202.51 128.097L202.506 128.106Z" fill="white" stroke="black" stroke-width="0.8"/>
<path d="M172.847 63.4861V64.0124C172.838 64.6364 173.092 65.2391 173.551 65.6806C174.01 66.1263 174.639 66.3809 175.294 66.3852L192.432 66.4998C193.087 66.4998 193.715 66.2621 194.183 65.8206C194.651 65.3834 194.914 64.7849 194.923 64.161V63.6262" fill="#FBE62E"/>
<path d="M172.847 63.4861V64.0124C172.838 64.6364 173.092 65.2391 173.551 65.6806C174.01 66.1263 174.639 66.3809 175.294 66.3852L192.432 66.4998C193.087 66.4998 193.715 66.2621 194.183 65.8206C194.651 65.3834 194.914 64.7849 194.923 64.161V63.6262" stroke="black" stroke-width="0.8" stroke-miterlimit="10" stroke-linecap="round"/>
<path d="M182.895 63.9573L187.454 63.987C187.601 63.987 187.721 64.1016 187.721 64.2459V64.6789C187.721 64.8189 187.596 64.9335 187.445 64.9335L182.886 64.9038C182.739 64.9038 182.619 64.7892 182.619 64.6449V64.2119C182.619 64.0719 182.744 63.9573 182.895 63.9573Z" fill="black"/>
<path d="M181.001 63.9487H181.01C181.246 63.9487 181.433 64.1313 181.433 64.3562V64.4921C181.433 64.717 181.237 64.8953 181.006 64.8953H180.997C180.761 64.8953 180.573 64.7128 180.573 64.4878V64.352C180.573 64.127 180.765 63.9487 181.001 63.9487Z" fill="black"/>
<path d="M185.679 93.0284L185.808 92.7016C185.822 92.6082 185.831 92.5106 185.831 92.4172C185.831 91.8611 185.603 91.3263 185.198 90.9273C184.935 90.6684 184.61 90.4816 184.249 90.3798C183.888 90.2779 183.505 90.2651 183.139 90.3458C182.774 90.4264 182.431 90.5962 182.154 90.8339C181.874 91.0759 181.669 91.3815 181.548 91.721C181.477 91.929 181.437 92.1498 181.428 92.3705C181.446 92.8501 181.637 93.3085 181.972 93.6693C182.306 94.0344 182.765 94.2806 183.268 94.357C183.772 94.4376 184.289 94.3485 184.73 94.1065C185.171 93.8646 185.51 93.4826 185.692 93.0284H185.679Z" fill="#F5A6A7" stroke="black" stroke-width="0.8"/>
<path d="M185.679 102.669L185.808 102.342C185.822 102.248 185.831 102.151 185.831 102.057C185.831 101.501 185.603 100.966 185.198 100.567C184.935 100.309 184.61 100.122 184.249 100.02C183.888 99.918 183.505 99.9053 183.139 99.9859C182.774 100.067 182.431 100.236 182.154 100.474C181.874 100.716 181.669 101.022 181.548 101.361C181.477 101.569 181.437 101.79 181.428 102.011C181.446 102.49 181.637 102.949 181.972 103.309C182.306 103.675 182.765 103.921 183.268 103.997C183.772 104.078 184.289 103.989 184.73 103.747C185.171 103.505 185.51 103.123 185.692 102.669H185.679Z" fill="#F5A6A7" stroke="black" stroke-width="0.8"/>
<path d="M195.256 92.8886C195.354 92.4302 195.292 91.9548 195.074 91.5303C194.815 91.0337 194.361 90.6559 193.808 90.4777C193.256 90.2994 192.654 90.3376 192.133 90.5838C191.611 90.83 191.215 91.2629 191.028 91.7893C190.956 91.9972 190.916 92.2137 190.916 92.4344C190.925 92.9225 191.117 93.3895 191.447 93.7587C191.781 94.128 192.244 94.3742 192.748 94.4549C193.256 94.5355 193.773 94.4464 194.218 94.1959C194.659 93.9498 194.998 93.5635 195.176 93.1051L195.261 92.8843L195.256 92.8886Z" fill="#F5A6A7" stroke="black" stroke-width="0.8"/>
<path d="M173.065 90.5923C172.624 90.8385 172.285 91.2205 172.111 91.6747C172.04 91.8784 172.004 92.0949 172 92.3114C172.009 92.7995 172.196 93.2664 172.53 93.6357C172.864 94.005 173.323 94.2511 173.831 94.3318C174.339 94.4124 174.856 94.3233 175.302 94.0729C175.707 93.8479 176.024 93.5041 176.211 93.0966L176.247 92.9947C176.318 92.7867 176.358 92.5703 176.367 92.3495C176.354 91.8657 176.166 91.3988 175.837 91.0337C175.502 90.6644 175.043 90.4182 174.535 90.3333C174.032 90.2527 173.511 90.3418 173.069 90.588L173.065 90.5923Z" fill="#F5A6A7" stroke="black" stroke-width="0.8"/>
<path d="M191.927 100.219C191.486 100.465 191.147 100.847 190.973 101.302C190.902 101.505 190.867 101.722 190.862 101.938C190.871 102.426 191.058 102.893 191.392 103.263C191.727 103.632 192.19 103.878 192.693 103.959C193.201 104.039 193.718 103.95 194.164 103.7C194.605 103.454 194.939 103.072 195.118 102.613C195.189 102.409 195.225 102.197 195.225 101.985C195.216 101.497 195.028 101.03 194.694 100.661C194.36 100.291 193.901 100.045 193.393 99.9603C192.885 99.8797 192.368 99.9688 191.923 100.215L191.927 100.219Z" fill="#F5A6A7" stroke="black" stroke-width="0.8"/>
<path d="M175.222 103.564C175.663 103.318 176.002 102.936 176.175 102.481C176.247 102.278 176.282 102.061 176.287 101.845C176.278 101.361 176.091 100.89 175.756 100.525C175.422 100.155 174.963 99.9091 174.455 99.8285C173.952 99.7478 173.43 99.8369 172.989 100.083C172.548 100.329 172.21 100.711 172.036 101.166C171.964 101.369 171.929 101.586 171.924 101.802C171.933 102.286 172.12 102.757 172.455 103.122C172.789 103.492 173.248 103.738 173.756 103.818C174.259 103.899 174.781 103.81 175.222 103.564Z" fill="#F5A6A7" stroke="black" stroke-width="0.8"/>
<path d="M185.666 111.688C185.68 111.595 185.688 111.497 185.688 111.403C185.688 110.847 185.461 110.313 185.056 109.914C184.793 109.655 184.468 109.468 184.107 109.366C183.746 109.264 183.362 109.251 182.997 109.332C182.632 109.413 182.288 109.583 182.012 109.82C181.736 110.058 181.522 110.368 181.406 110.707C181.335 110.915 181.29 111.136 181.286 111.353C181.304 111.832 181.495 112.291 181.825 112.651C182.159 113.016 182.618 113.263 183.122 113.343C183.625 113.424 184.142 113.335 184.583 113.093C185.025 112.851 185.363 112.469 185.546 112.015L185.675 111.688H185.666Z" fill="#F5A6A7" stroke="black" stroke-width="0.8"/>
<path d="M184.695 122.584C185.07 122.329 185.355 121.969 185.502 121.553C185.689 121.026 185.649 120.453 185.39 119.957C185.132 119.46 184.677 119.082 184.125 118.904C183.572 118.726 182.971 118.764 182.449 119.01C181.928 119.256 181.531 119.689 181.344 120.215C181.233 120.53 181.202 120.861 181.255 121.192C181.304 121.519 181.438 121.828 181.638 122.1C181.839 122.368 182.106 122.588 182.414 122.741C182.721 122.894 183.064 122.974 183.412 122.974C183.875 122.974 184.325 122.843 184.7 122.588L184.695 122.584Z" fill="#F5A6A7" stroke="black" stroke-width="0.8"/>
<path d="M195.034 112.087L195.114 111.875C195.168 111.633 195.176 111.382 195.136 111.136C195.087 110.809 194.954 110.499 194.753 110.228C194.553 109.956 194.285 109.74 193.978 109.583C193.67 109.426 193.327 109.349 192.984 109.345C192.525 109.345 192.071 109.477 191.696 109.731C191.322 109.986 191.037 110.347 190.89 110.767C190.818 110.975 190.778 111.191 190.778 111.412C190.787 111.896 190.974 112.367 191.309 112.732C191.643 113.101 192.102 113.348 192.61 113.428C193.113 113.509 193.635 113.42 194.076 113.174C194.517 112.927 194.86 112.541 195.034 112.083V112.087Z" fill="#F5A6A7" stroke="black" stroke-width="0.8"/>
<path d="M172.913 109.587C172.472 109.833 172.133 110.215 171.959 110.674C171.888 110.877 171.852 111.09 171.852 111.302C171.861 111.786 172.048 112.257 172.383 112.626C172.717 112.995 173.176 113.242 173.684 113.322C174.187 113.403 174.709 113.314 175.154 113.068C175.56 112.843 175.881 112.499 176.063 112.091L176.099 111.994C176.175 111.786 176.215 111.565 176.219 111.344C176.206 110.86 176.019 110.394 175.689 110.028C175.355 109.659 174.891 109.413 174.388 109.332C173.88 109.252 173.363 109.341 172.917 109.587H172.913Z" fill="#F5A6A7" stroke="black" stroke-width="0.8"/>
<path d="M129.788 138.62C129.788 138.501 129.909 138.416 130.029 138.455L131.455 138.938C131.571 138.977 131.611 139.117 131.535 139.206L130.149 140.857C130.042 140.984 129.833 140.912 129.828 140.751L129.788 138.616V138.62Z" fill="black"/>
<path d="M156.655 50.701C156.847 50.1661 157.252 49.7247 157.782 49.4743C158.317 49.2239 158.932 49.1814 159.494 49.3639L165.411 51.257C165.973 51.4353 166.44 51.8216 166.703 52.3267C166.971 52.8318 167.011 53.4175 166.828 53.9566L166.788 54.0754L156.619 50.8241L156.66 50.7052L156.655 50.701Z" fill="black"/>
<path d="M159.974 49.3981C160.255 48.8335 160.741 48.3878 161.342 48.1459C161.944 47.8997 162.617 47.8742 163.24 48.0737C163.86 48.2732 164.381 48.6807 164.706 49.2198C165.032 49.7588 165.139 50.3955 165.005 51.0068L159.979 49.3981H159.974Z" fill="black"/>
<path d="M164.629 50.4763L160.597 49.1859C160.828 48.8973 161.136 48.6681 161.483 48.5238C161.835 48.3794 162.219 48.32 162.597 48.354C162.976 48.3879 163.342 48.5153 163.658 48.719C163.974 48.9228 164.228 49.2029 164.398 49.5297C164.554 49.8226 164.634 50.1452 164.629 50.472V50.4763ZM165.311 51.4313C165.57 50.6928 165.512 49.8821 165.146 49.1859C164.781 48.4856 164.139 47.955 163.364 47.7088C162.589 47.4626 161.742 47.5178 161.007 47.8658C160.276 48.2139 159.714 48.8209 159.451 49.5594L159.411 49.6783L165.271 51.5502L165.311 51.4313Z" fill="black"/>
<path d="M156.021 73.5883L152.83 72.5696C152.47 72.455 152.077 72.6375 151.957 72.9813L132.377 128.548C132.257 128.891 132.453 129.265 132.809 129.38L136 130.398C136.361 130.513 136.753 130.33 136.873 129.987L156.453 74.4202C156.574 74.0764 156.382 73.7029 156.021 73.5883Z" fill="black"/>
<path d="M136.472 129.855C136.45 129.918 136.401 129.969 136.339 129.999C136.276 130.029 136.205 130.033 136.138 130.012L132.948 128.993C132.881 128.972 132.827 128.925 132.796 128.866C132.765 128.806 132.76 128.739 132.783 128.675L152.363 73.1086C152.385 73.0449 152.434 72.9939 152.496 72.9642C152.559 72.9345 152.63 72.9303 152.697 72.9515L155.887 73.9702C155.954 73.9914 156.008 74.0381 156.039 74.0975C156.07 74.157 156.074 74.2249 156.052 74.2885L136.472 129.855L137.279 130.114L136.472 129.855ZM156.859 74.5475C156.952 74.2801 156.93 73.9872 156.801 73.7367C156.667 73.4863 156.44 73.2911 156.159 73.2019L152.969 72.1832C152.688 72.0941 152.38 72.1153 152.118 72.2384C151.85 72.3658 151.65 72.5822 151.556 72.8496L131.976 128.416C131.883 128.683 131.905 128.976 132.034 129.227C132.163 129.477 132.4 129.672 132.676 129.761L135.866 130.78C136.147 130.869 136.45 130.848 136.717 130.725C136.98 130.598 137.185 130.381 137.279 130.114L156.859 74.5475Z" fill="black"/>
<path d="M154.948 67.9686C154.997 67.8243 155.077 67.6927 155.18 67.5739C155.282 67.4592 155.412 67.3659 155.554 67.298C155.697 67.2301 155.853 67.1876 156.013 67.1791C156.174 67.1706 156.334 67.1876 156.481 67.2343C156.708 67.3064 156.913 67.4423 157.06 67.6206C157.207 67.8031 157.296 68.0195 157.314 68.2488C157.332 68.478 157.279 68.7072 157.158 68.9067C157.038 69.1062 156.86 69.2675 156.646 69.3693C156.432 69.4712 156.187 69.5136 155.946 69.4839C155.706 69.4542 155.483 69.3609 155.3 69.208C155.117 69.0595 154.988 68.86 154.926 68.6393C154.863 68.4185 154.868 68.1851 154.948 67.9644V67.9686Z" fill="black"/>
<path d="M156.846 68.5752C156.815 68.6686 156.761 68.7535 156.694 68.8299C156.627 68.9063 156.543 68.9657 156.454 69.0082C156.262 69.0931 156.044 69.1058 155.848 69.0421C155.701 68.9954 155.567 68.9063 155.473 68.7875C155.38 68.6686 155.322 68.5243 155.308 68.3757C155.3 68.2272 155.335 68.0786 155.411 67.947C155.491 67.8197 155.607 67.7136 155.745 67.6457C155.888 67.5777 156.044 67.5565 156.2 67.5735C156.356 67.5947 156.503 67.6584 156.619 67.756C156.734 67.8537 156.819 67.9852 156.859 68.1295C156.899 68.2738 156.895 68.4267 156.841 68.5667L156.846 68.5752ZM157.652 68.8342C157.724 68.6389 157.75 68.4352 157.737 68.2272C157.724 68.0234 157.666 67.8197 157.568 67.6372C157.47 67.4546 157.336 67.2891 157.176 67.1533C157.015 67.0174 156.824 66.9156 156.619 66.8519C156.311 66.7543 155.977 66.7458 155.665 66.8265C155.353 66.9071 155.072 67.0769 154.858 67.3103C154.645 67.5438 154.511 67.8324 154.466 68.138C154.426 68.4436 154.48 68.7577 154.627 69.0336C154.774 69.3095 155.001 69.5387 155.282 69.6958C155.562 69.8486 155.888 69.9208 156.209 69.8996C156.534 69.8783 156.841 69.768 157.1 69.577C157.358 69.386 157.55 69.1313 157.652 68.8384V68.8342Z" fill="black"/>
<path d="M157.536 61.6781C157.822 61.5423 158.156 61.5211 158.459 61.6144C158.686 61.6866 158.891 61.8224 159.038 62.0007C159.185 62.1832 159.274 62.3997 159.292 62.6289C159.31 62.8581 159.256 63.0873 159.136 63.2868C159.016 63.4863 158.838 63.6476 158.619 63.7495C158.405 63.8514 158.16 63.8895 157.92 63.8598C157.679 63.8301 157.456 63.7325 157.274 63.5839C157.091 63.4311 156.962 63.2316 156.899 63.0109C156.837 62.7902 156.846 62.5525 156.922 62.336C157.024 62.0474 157.242 61.8097 157.532 61.6739L157.536 61.6781Z" fill="black"/>
<path d="M158.829 62.947C158.797 63.0404 158.744 63.1295 158.673 63.2017C158.606 63.2781 158.521 63.3375 158.427 63.38C158.334 63.4224 158.231 63.4522 158.129 63.4564C158.026 63.4649 157.919 63.4521 157.821 63.4182C157.674 63.3715 157.541 63.2824 157.447 63.1635C157.354 63.0447 157.296 62.9046 157.282 62.756C157.273 62.6075 157.309 62.4589 157.385 62.3273C157.461 62.2 157.581 62.0939 157.719 62.026C157.857 61.958 158.018 61.9326 158.173 61.9538C158.329 61.9708 158.476 62.0345 158.592 62.1321C158.708 62.2297 158.797 62.357 158.837 62.5014C158.878 62.6457 158.873 62.7985 158.824 62.9385L158.829 62.947ZM159.635 63.206C159.702 63.0107 159.733 62.807 159.715 62.6032C159.702 62.3995 159.644 62.2 159.546 62.0175C159.448 61.8349 159.314 61.6694 159.154 61.5378C158.989 61.402 158.802 61.3001 158.597 61.2364C158.289 61.1388 157.955 61.1303 157.643 61.211C157.327 61.2916 157.046 61.4614 156.832 61.6949C156.618 61.9283 156.485 62.217 156.445 62.5268C156.404 62.8324 156.458 63.1465 156.605 63.4224C156.752 63.6983 156.979 63.9275 157.26 64.0803C157.541 64.2331 157.866 64.3053 158.191 64.2799C158.517 64.2586 158.824 64.144 159.083 63.953C159.341 63.762 159.533 63.5031 159.631 63.2102L159.635 63.206Z" fill="black"/>
<path d="M158.962 56.5756C159.011 56.4313 159.092 56.2997 159.194 56.1809C159.297 56.0663 159.426 55.9729 159.568 55.9049C159.711 55.837 159.867 55.7946 160.027 55.7861C160.188 55.7734 160.348 55.7946 160.5 55.8413C160.727 55.9135 160.932 56.0493 161.079 56.2275C161.226 56.4101 161.315 56.6265 161.333 56.8557C161.351 57.0849 161.297 57.3142 161.177 57.5137C161.057 57.7132 160.879 57.8745 160.665 57.9763C160.451 58.0782 160.206 58.1206 159.965 58.0909C159.724 58.0612 159.502 57.9678 159.319 57.815C159.136 57.6665 159.007 57.467 158.945 57.2463C158.882 57.0255 158.887 56.7921 158.967 56.5714L158.962 56.5756Z" fill="black"/>
<path d="M160.46 57.6121C160.273 57.7012 160.054 57.7139 159.858 57.6503C159.711 57.6036 159.577 57.5145 159.484 57.3956C159.39 57.2768 159.332 57.1325 159.319 56.9839C159.31 56.8353 159.346 56.6868 159.426 56.5552C159.506 56.4236 159.622 56.3217 159.76 56.2538C159.898 56.1859 160.059 56.1647 160.215 56.1817C160.371 56.2029 160.518 56.2665 160.633 56.3642C160.749 56.4618 160.834 56.5934 160.874 56.7377C160.914 56.882 160.91 57.0348 160.856 57.1749C160.789 57.3616 160.642 57.5187 160.455 57.6036L160.46 57.6121ZM161.698 56.5297C161.614 56.2326 161.44 55.9609 161.195 55.7572C160.95 55.5534 160.647 55.4219 160.326 55.3837C160.005 55.3455 159.675 55.3964 159.386 55.5322C159.096 55.668 158.851 55.8845 158.691 56.1562C158.53 56.4236 158.454 56.7334 158.477 57.0433C158.499 57.3532 158.615 57.6503 158.815 57.8922C159.016 58.1384 159.283 58.3209 159.595 58.4186C159.8 58.4865 160.014 58.5119 160.228 58.4992C160.442 58.4865 160.651 58.4313 160.847 58.3421C161.039 58.253 161.213 58.1257 161.355 57.9686C161.498 57.8158 161.605 57.6333 161.672 57.438C161.779 57.1452 161.788 56.8268 161.703 56.5297H161.698Z" fill="black"/>
<path d="M130.426 127.38L138.073 129.825L132.213 138.883C132.177 138.943 132.128 138.93 132.128 138.93L129.419 138.064C129.419 138.064 129.392 138.043 129.383 138.026C129.374 138.009 129.374 137.992 129.379 137.975L130.431 127.376L130.426 127.38Z" fill="white" stroke="black" stroke-width="0.8"/>
<path d="M158.17 44.6233L130.025 124.498L140.19 127.746L168.334 47.8747L158.17 44.6275V44.6233Z" fill="#F5A6A7" stroke="black" stroke-width="0.8"/>
<path d="M130.007 124.541L140.185 127.792L139.579 129.515C139.494 129.749 139.316 129.944 139.084 130.055C138.852 130.165 138.58 130.182 138.335 130.105L130.02 127.448C129.775 127.368 129.57 127.198 129.454 126.977C129.339 126.756 129.321 126.498 129.401 126.264L130.007 124.541Z" fill="white" stroke="black" stroke-width="0.8"/>
<path d="M158.258 44.3641C158.45 43.8251 158.855 43.3837 159.386 43.129C159.92 42.8785 160.535 42.8361 161.097 43.0144L167.01 44.9075C167.571 45.09 168.035 45.4762 168.302 45.9813C168.565 46.4865 168.605 47.0722 168.418 47.6113L168.378 47.7259L158.214 44.4788L158.254 44.3641H158.258Z" fill="white" stroke="black" stroke-width="0.8"/>
<path d="M161.577 43.065C161.858 42.5005 162.343 42.0548 162.945 41.8129C163.546 41.5667 164.219 41.5412 164.839 41.7407C165.458 41.9402 165.979 42.3477 166.305 42.8868C166.63 43.4258 166.737 44.0625 166.603 44.6738L161.577 43.065Z" fill="black" stroke="black" stroke-width="0.8"/>
<path d="M157.759 66.8565L154.577 65.8378C153.994 65.6511 153.361 65.9524 153.165 66.5085L133.585 122.075C133.389 122.631 133.705 123.234 134.289 123.42L137.475 124.439C138.059 124.626 138.692 124.324 138.888 123.768L158.467 68.2021C158.664 67.646 158.347 67.0433 157.763 66.8565H157.759Z" fill="#607D8B" stroke="black" stroke-width="0.8" stroke-linejoin="round"/>
<path d="M156.556 61.6267C156.596 61.4697 156.672 61.3254 156.774 61.198C156.877 61.0707 157.006 60.9688 157.153 60.8882C157.3 60.8117 157.465 60.7651 157.63 60.7523C157.795 60.7396 157.964 60.7566 158.124 60.8075C158.285 60.8584 158.432 60.9391 158.552 61.0452C158.677 61.1513 158.775 61.2829 158.846 61.4272C158.917 61.5715 158.953 61.7286 158.953 61.8899C158.953 62.0512 158.922 62.2082 158.855 62.3568C158.735 62.6242 158.512 62.8407 158.236 62.9595C157.955 63.0784 157.639 63.0954 157.349 63.002C157.059 62.9086 156.814 62.7133 156.667 62.4587C156.52 62.204 156.48 61.9026 156.556 61.6182V61.6267Z" fill="white" stroke="black" stroke-width="0.8"/>
<path d="M158.539 55.9984C158.641 55.7098 158.86 55.4679 159.145 55.332C159.43 55.1962 159.764 55.175 160.067 55.2726C160.295 55.3448 160.5 55.4806 160.647 55.6589C160.794 55.8414 160.883 56.0579 160.901 56.2871C160.918 56.5163 160.865 56.7455 160.745 56.945C160.624 57.1445 160.446 57.3058 160.232 57.4077C160.014 57.5095 159.773 57.5477 159.533 57.518C159.292 57.4883 159.069 57.3907 158.886 57.2421C158.704 57.0935 158.575 56.8898 158.512 56.6691C158.45 56.4483 158.459 56.2107 158.539 55.9942V55.9984Z" fill="white" stroke="black" stroke-width="0.8"/>
<path d="M161.332 51.6902C161.965 51.8939 162.651 51.5671 162.865 50.9643C163.079 50.3616 162.736 49.708 162.103 49.5042C161.471 49.3005 160.784 49.6273 160.57 50.23C160.357 50.8328 160.7 51.4864 161.332 51.6902Z" fill="white" stroke="black" stroke-width="0.8"/>
</svg>
