<svg width="40" height="40" viewBox="0 0 40 40" fill="none" xmlns="http://www.w3.org/2000/svg">
<g clip-path="url(#clip0_1102_26010)">
<path d="M20 40C31.0457 40 40 31.0457 40 20C40 8.9543 31.0457 0 20 0C8.9543 0 0 8.9543 0 20C0 31.0457 8.9543 40 20 40Z" fill="#F0F0F0"/>
<path d="M19.1299 20.0005H39.9994C39.9994 18.1953 39.7588 16.4467 39.3104 14.7831H19.1299V20.0005Z" fill="#D80027"/>
<path d="M19.1299 9.56441H37.0639C35.8396 7.56659 34.2744 5.80073 32.4492 4.34698H19.1299V9.56441Z" fill="#D80027"/>
<path d="M19.9996 40.0008C24.7065 40.0008 29.0329 38.3739 32.4493 35.653H7.5498C10.9663 38.3739 15.2926 40.0008 19.9996 40.0008Z" fill="#D80027"/>
<path d="M2.93496 30.4319H37.064C38.0469 28.8281 38.8091 27.0749 39.3105 25.2144H0.688477C1.1898 27.0749 1.95207 28.8281 2.93496 30.4319Z" fill="#D80027"/>
<path d="M20 20C20 8.95437 20 7.65219 20 0C8.95437 0 0 8.95437 0 20H20Z" fill="#0052B4"/>
<path d="M13.2997 17.1194C10.5683 17.1194 8.35406 14.9051 8.35406 12.1738C8.35406 9.44243 10.5684 7.22813 13.2997 7.22813C14.1513 7.22813 14.9527 7.44352 15.6523 7.82259C14.5548 6.74938 13.0538 6.08688 11.3975 6.08688C8.03586 6.08688 5.31055 8.81212 5.31055 12.1738C5.31055 15.5356 8.03586 18.2608 11.3975 18.2608C13.0538 18.2608 14.5548 17.5983 15.6523 16.5251C14.9527 16.904 14.1514 17.1194 13.2997 17.1194Z" fill="#FFDA44"/>
<path d="M14.6938 8.69397L15.5718 10.5301L17.5547 10.0719L16.6668 11.9031L18.2614 13.1677L16.276 13.6153L16.2815 15.6505L14.6938 14.3773L13.106 15.6505L13.1114 13.6153L11.126 13.1677L12.7207 11.9031L11.8326 10.0719L13.8157 10.5301L14.6938 8.69397Z" fill="#FFDA44"/>
</g>
<defs>
<clipPath id="clip0_1102_26010">
<rect width="40" height="40" fill="white"/>
</clipPath>
</defs>
</svg>
