<svg width="40" height="40" viewBox="0 0 40 40" fill="none" xmlns="http://www.w3.org/2000/svg">
<g clip-path="url(#clip0_1102_43956)">
<path d="M40 20C40 31.0456 31.0456 40 20 40C8.95437 40 0 31.0456 0 20C0 20.0047 20 0.00226562 20 0C31.0456 0 40 8.95437 40 20Z" fill="#0052B4"/>
<path d="M19.9453 20.0013H19.9988C19.9988 19.9831 19.9988 19.9658 19.9988 19.9478C19.981 19.9656 19.9632 19.9835 19.9453 20.0013Z" fill="#F0F0F0"/>
<path d="M20 10.4326C20 6.91343 20 4.60741 20 -0.00219727H19.9966C8.9525 -0.000400391 0 8.95311 0 19.9977H10.4348V14.1218L16.3107 19.9977H19.9466C19.9645 19.9799 19.9823 19.9621 20.0001 19.9442C20.0001 18.5968 20.0001 17.3945 20.0001 16.3086L14.1241 10.4326H20Z" fill="#F0F0F0"/>
<path d="M10.1191 2.60962C6.99102 4.39079 4.39055 6.99126 2.60938 10.1193V20.0009H7.8268V7.82712V7.82704H20.0007C20.0007 6.18149 20.0007 4.61384 20.0007 2.60962H10.1191Z" fill="#D80027"/>
<path d="M20.0012 17.541L12.8955 10.4353H10.436C10.436 10.4353 10.436 10.4353 10.436 10.4353L20.0011 20.0004H20.0012C20.0012 20.0004 20.0012 18.3047 20.0012 17.541Z" fill="#D80027"/>
<path d="M12.0631 23.4746L13.1608 25.7698L15.6395 25.1969L14.5295 27.4861L16.5227 29.0668L14.0409 29.6262L14.0479 32.1702L12.0631 30.5786L10.0784 32.1702L10.0854 29.6262L7.60352 29.0668L9.59688 27.4861L8.48672 25.1969L10.9655 25.7698L12.0631 23.4746Z" fill="#F0F0F0"/>
<path d="M29.9461 27.8264L30.4949 28.974L31.7343 28.6875L31.1792 29.8321L32.1759 30.6225L30.935 30.9022L30.9384 32.1742L29.9461 31.3784L28.9537 32.1742L28.9572 30.9022L27.7163 30.6225L28.7129 29.8321L28.1579 28.6875L29.3972 28.974L29.9461 27.8264Z" fill="#F0F0F0"/>
<path d="M24.8392 15.6482L25.388 16.7959L26.6273 16.5093L26.0723 17.6539L27.069 18.4443L25.8281 18.724L25.8315 19.996L24.8392 19.2002L23.8469 19.996L23.8502 18.724L22.6094 18.4443L23.606 17.6539L23.051 16.5093L24.2904 16.7959L24.8392 15.6482Z" fill="#F0F0F0"/>
<path d="M29.9461 8.69385L30.4949 9.8415L31.7343 9.55502L31.1793 10.6996L32.1758 11.4899L30.935 11.7697L30.9384 13.0417L29.9461 12.2459L28.9537 13.0417L28.9572 11.7697L27.7163 11.4899L28.7129 10.6996L28.1579 9.55502L29.3972 9.8415L29.9461 8.69385Z" fill="#F0F0F0"/>
<path d="M34.4056 13.9109L34.9544 15.0585L36.1938 14.772L35.6388 15.9166L36.6354 16.707L35.3945 16.9867L35.3979 18.2587L34.4056 17.4629L33.4133 18.2587L33.4166 16.9867L32.1758 16.707L33.1724 15.9166L32.6174 14.772L33.8567 15.0585L34.4056 13.9109Z" fill="#F0F0F0"/>
<path d="M31.2159 20L31.6475 21.3286H33.0446L31.9143 22.1498L32.3461 23.4783L31.2159 22.6572L30.0857 23.4783L30.5174 22.1498L29.3872 21.3286H30.7842L31.2159 20Z" fill="#F0F0F0"/>
</g>
<defs>
<clipPath id="clip0_1102_43956">
<rect width="40" height="40" fill="white"/>
</clipPath>
</defs>
</svg>
