<svg width="40" height="40" viewBox="0 0 40 40" fill="none" xmlns="http://www.w3.org/2000/svg">
<g clip-path="url(#clip0_1102_25772)">
<path d="M20 40C31.0457 40 40 31.0457 40 20C40 8.9543 31.0457 0 20 0C8.9543 0 0 8.9543 0 20C0 31.0457 8.9543 40 20 40Z" fill="#F0F0F0"/>
<path d="M20 14.7836H39.311C38.8095 12.9231 38.0473 11.1699 37.0645 9.56613H20V14.7836Z" fill="#338AF3"/>
<path d="M7.54934 35.6535H32.4488C34.274 34.1998 35.8393 32.434 37.0636 30.4361H2.93457C4.15887 32.4339 5.72418 34.1998 7.54934 35.6535Z" fill="#338AF3"/>
<path d="M6.9556 4.83789C5.38325 6.19187 4.02395 7.78632 2.93457 9.56413H6.9556V4.83789Z" fill="#338AF3"/>
<path d="M20 20.0005C20 17.9633 20 16.2584 20 14.7831H12.1739V20.0005H6.95648V14.7831H0.688984C0.240625 16.4467 0 18.1953 0 20.0005C0 21.8057 0.240625 23.5543 0.688984 25.2179H39.3111C39.7594 23.5543 40 21.8057 40 20.0005H20Z" fill="#338AF3"/>
<path d="M19.9999 0C17.2227 0 14.5777 0.566641 12.1738 1.58969V9.56523H19.9999C19.9999 7.74398 19.9999 6.195 19.9999 4.34781H32.4497C29.0332 1.62688 24.7069 0 19.9999 0Z" fill="#338AF3"/>
</g>
<defs>
<clipPath id="clip0_1102_25772">
<rect width="40" height="40" fill="white"/>
</clipPath>
</defs>
</svg>
