<svg width="40" height="40" viewBox="0 0 40 40" fill="none" xmlns="http://www.w3.org/2000/svg">
<g clip-path="url(#clip0_1102_46427)">
<circle cx="20" cy="20" r="20" fill="#C4C4C4"/>
<path d="M0 19.998C0 28.5972 5.4275 35.9281 13.0434 38.7539L14.7826 19.9979L13.0434 1.24197C5.4275 4.06791 0 11.3987 0 19.998Z" fill="#6DA544"/>
<path d="M40.0006 20C40.0006 8.95437 31.0462 0 20.0006 0C17.5542 0 15.2107 0.440078 13.0439 1.24398V38.756C15.2107 39.56 17.5542 40 20.0006 40C31.0462 40 40.0006 31.0456 40.0006 20Z" fill="#D80027"/>
<path d="M13.0434 26.9564C16.8854 26.9564 19.9999 23.8419 19.9999 19.9999C19.9999 16.158 16.8854 13.0435 13.0434 13.0435C9.20144 13.0435 6.08691 16.158 6.08691 19.9999C6.08691 23.8419 9.20144 26.9564 13.0434 26.9564Z" fill="#FFDA44"/>
<path d="M9.13086 16.5204V20.8683C9.13086 23.0294 10.8827 24.7813 13.0439 24.7813C15.2051 24.7813 16.9569 23.0294 16.9569 20.8683V16.5204H9.13086Z" fill="#D80027"/>
<path d="M13.0436 22.176C12.3244 22.176 11.7393 21.5909 11.7393 20.8716V19.1326H14.3479V20.8717C14.3479 21.5909 13.7628 22.176 13.0436 22.176Z" fill="#F0F0F0"/>
</g>
<defs>
<clipPath id="clip0_1102_46427">
<rect width="40" height="40" fill="white"/>
</clipPath>
</defs>
</svg>
