<svg width="40" height="40" viewBox="0 0 40 40" fill="none" xmlns="http://www.w3.org/2000/svg">
<g clip-path="url(#clip0_1102_25957)">
<path d="M0 20.0017C0 22.4481 0.440078 24.7915 1.24398 26.9582L20 28.6973L38.756 26.9582C39.5599 24.7915 40 22.4481 40 20.0017C40 17.5553 39.5599 15.2118 38.756 13.0452L20 11.306L1.24398 13.0452C0.440078 15.2118 0 17.5553 0 20.0017H0Z" fill="#FFDA44"/>
<path d="M38.7562 13.0435C35.9303 5.42758 28.5995 0 20.0002 0C11.4009 0 4.07 5.42758 1.24414 13.0435H38.7562Z" fill="#D80027"/>
<path d="M1.24414 26.9566C4.07 34.5725 11.4009 40.0001 20.0002 40.0001C28.5995 40.0001 35.9303 34.5725 38.7562 26.9566H1.24414Z" fill="#D80027"/>
</g>
<defs>
<clipPath id="clip0_1102_25957">
<rect width="40" height="40" fill="white"/>
</clipPath>
</defs>
</svg>
