<svg width="40" height="40" viewBox="0 0 40 40" fill="none" xmlns="http://www.w3.org/2000/svg">
<rect width="40" height="40" rx="20" fill="white"/>
<g clip-path="url(#clip0_1582_20996)">
<path d="M20 32C26.6274 32 32 26.6274 32 20C32 13.3726 26.6274 8 20 8C13.3726 8 8 13.3726 8 20C8 26.6274 13.3726 32 20 32Z" fill="#F0F0F0"/>
<path d="M19.479 20.0003H32.0007C32.0007 18.9172 31.8563 17.868 31.5873 16.8699H19.479V20.0003Z" fill="#D80027"/>
<path d="M19.479 13.7386H30.2394C29.5049 12.5399 28.5656 11.4804 27.4705 10.6082H19.479V13.7386Z" fill="#D80027"/>
<path d="M20.0001 32.0004C22.8243 32.0004 25.4201 31.0243 27.4699 29.3917H12.5303C14.5801 31.0243 17.1759 32.0004 20.0001 32.0004Z" fill="#D80027"/>
<path d="M9.76146 26.2591H30.2389C30.8286 25.2968 31.286 24.2449 31.5868 23.1287H8.41357C8.71437 24.2449 9.17173 25.2968 9.76146 26.2591Z" fill="#D80027"/>
<path d="M13.5586 9.87397H14.6522L13.635 10.613L14.0235 11.8087L13.0064 11.0697L11.9892 11.8087L12.3249 10.7757C11.4293 11.5217 10.6443 12.3958 9.99744 13.3696H10.3478L9.70034 13.84C9.59947 14.0083 9.50272 14.1792 9.41 14.3527L9.71919 15.3043L9.14234 14.8852C8.99895 15.189 8.8678 15.4997 8.74991 15.8168L9.09055 16.8653H10.3478L9.33064 17.6043L9.71919 18.8L8.70205 18.061L8.09277 18.5037C8.03178 18.9939 8 19.4932 8 20H20C20 13.3726 20 12.5913 20 8C17.6294 8 15.4196 8.68766 13.5586 9.87397ZM14.0235 18.8L13.0064 18.061L11.9892 18.8L12.3778 17.6043L11.3606 16.8653H12.6179L13.0064 15.6695L13.3949 16.8653H14.6522L13.635 17.6043L14.0235 18.8ZM13.635 14.1086L14.0235 15.3043L13.0064 14.5654L11.9892 15.3043L12.3778 14.1086L11.3606 13.3696H12.6179L13.0064 12.1739L13.3949 13.3696H14.6522L13.635 14.1086ZM18.3279 18.8L17.3107 18.061L16.2936 18.8L16.6821 17.6043L15.665 16.8653H16.9222L17.3107 15.6695L17.6992 16.8653H18.9565L17.9393 17.6043L18.3279 18.8ZM17.9393 14.1086L18.3279 15.3043L17.3107 14.5654L16.2936 15.3043L16.6821 14.1086L15.665 13.3696H16.9222L17.3107 12.1739L17.6992 13.3696H18.9565L17.9393 14.1086ZM17.9393 10.613L18.3279 11.8087L17.3107 11.0697L16.2936 11.8087L16.6821 10.613L15.665 9.87397H16.9222L17.3107 8.67823L17.6992 9.87397H18.9565L17.9393 10.613Z" fill="#0052B4"/>
</g>
<defs>
<clipPath id="clip0_1582_20996">
<rect width="24" height="24" fill="white" transform="translate(8 8)"/>
</clipPath>
</defs>
</svg>
