<svg width="40" height="40" viewBox="0 0 40 40" fill="none" xmlns="http://www.w3.org/2000/svg">
<g clip-path="url(#clip0_1102_25839)">
<path d="M20 40C31.0457 40 40 31.0457 40 20C40 8.9543 31.0457 0 20 0C8.9543 0 0 8.9543 0 20C0 31.0457 8.9543 40 20 40Z" fill="#F0F0F0"/>
<path d="M40.0005 20.0004C40.0005 11.4012 34.573 4.07026 26.957 1.24448V38.7566C34.573 35.9306 40.0005 28.5998 40.0005 20.0004Z" fill="#FF9811"/>
<path d="M0 20.0004C0 28.5998 5.4275 35.9306 13.0435 38.7565V1.24448C5.4275 4.07026 0 11.4012 0 20.0004Z" fill="#6DA544"/>
</g>
<defs>
<clipPath id="clip0_1102_25839">
<rect width="40" height="40" fill="white"/>
</clipPath>
</defs>
</svg>
