<svg width="38" height="40" viewBox="0 0 38 40" fill="none" xmlns="http://www.w3.org/2000/svg">
<path fill-rule="evenodd" clip-rule="evenodd" d="M2.84961 6.74375L18.4996 0.875L34.1496 6.74375V18.6573C34.1496 28.5364 27.4788 37.7503 18.4996 40C9.52042 37.7503 2.84961 28.5364 2.84961 18.6573V6.74375ZM24.3075 27.0815C23.6234 25.9083 22.9388 24.7338 22.2465 23.5457C22.2267 23.5609 22.2087 23.5754 22.1917 23.5892L22.1914 23.5894L22.1913 23.5895L22.1913 23.5895L22.1913 23.5895C22.1608 23.6141 22.1334 23.6363 22.104 23.6552C21.7424 23.9285 21.433 24.1278 21.0694 24.3082C20.0999 24.79 19.0653 24.9412 17.9895 24.7885C16.8536 24.6274 15.8735 24.1408 15.05 23.3549C14.5131 22.8431 14.1127 22.2368 13.8296 21.5542C13.4948 20.7469 13.3736 19.8684 13.4775 19.0018C13.5771 18.1473 13.8869 17.33 14.3796 16.6212C14.8724 15.9124 15.5332 15.3338 16.3044 14.9359C17.0072 14.5765 17.663 14.3739 18.5434 14.337C18.6232 14.3355 18.7642 14.3264 18.7642 14.3264C18.7642 14.3264 20.5482 10.6663 20.6288 10.4933C17.6501 9.79645 13.0238 10.7468 10.5516 15.0438C8.40214 18.7796 9.06201 23.9695 13.0768 27.011C16.5656 29.652 21.2783 29.3749 24.3075 27.0815ZM22.2533 13.1266L22.102 12.9795C21.9823 12.8631 21.8672 12.7513 21.7525 12.639C21.7156 12.6029 21.6792 12.5662 21.6428 12.5295L21.6427 12.5294C21.5837 12.47 21.5247 12.4105 21.4635 12.3534C21.428 12.3201 21.3863 12.2745 21.3863 12.2745C21.3863 12.2745 21.42 12.2038 21.4344 12.1748C21.6241 11.7984 21.9213 11.5232 22.2739 11.3044C22.6638 11.0605 23.118 10.9364 23.5792 10.9478C24.1694 10.9593 24.7181 11.1046 25.181 11.496C25.5228 11.7849 25.6981 12.1514 25.729 12.5888C25.7804 13.3269 25.4716 13.8922 24.8583 14.2866C24.6154 14.4431 24.3596 14.5757 24.0994 14.7105C23.9736 14.7757 23.8467 14.8414 23.7198 14.9107C23.5049 15.028 23.3211 15.1311 23.1111 15.3433C22.9263 15.5564 22.9173 15.7572 22.9173 15.7572L25.7089 15.7536V16.9831H21.3999V16.8642C21.3834 16.2601 21.4547 15.6915 21.7345 15.1428C21.9918 14.6394 22.3918 14.2709 22.8723 13.9871C23.0604 13.8759 23.2537 13.7732 23.4469 13.6705C23.6337 13.5711 23.8206 13.4718 24.0029 13.3648C24.2316 13.2307 24.3933 13.034 24.392 12.7487C24.392 12.5038 24.2118 12.2862 23.9545 12.2183C23.3476 12.0564 22.7299 12.3147 22.4088 12.864C22.3807 12.912 22.3523 12.9598 22.321 13.0125L22.2533 13.1266ZM25.3005 18.2213L27.653 22.2388L25.2812 26.2788L22.967 22.2803H18.2774L20.6451 18.2213H25.3005Z" fill="#15357A"/>
</svg>
