<svg xmlns="http://www.w3.org/2000/svg" xmlns:xlink="http://www.w3.org/1999/xlink" width="411" zoomAndPan="magnify" viewBox="0 0 308.25 262.500001" height="350" preserveAspectRatio="xMidYMid meet" version="1.0"><defs><clipPath id="id1"><path d="M 0 0.0703125 L 307.5 0.0703125 L 307.5 261.933594 L 0 261.933594 Z M 0 0.0703125 " clip-rule="nonzero"/></clipPath><clipPath id="id2"><path d="M 118 151 L 229 151 L 229 261.933594 L 118 261.933594 Z M 118 151 " clip-rule="nonzero"/></clipPath><clipPath id="id3"><path d="M 57.574219 85 L 138 85 L 138 169 L 57.574219 169 Z M 57.574219 85 " clip-rule="nonzero"/></clipPath><clipPath id="id4"><path d="M 183 119 L 249.855469 119 L 249.855469 169 L 183 169 Z M 183 119 " clip-rule="nonzero"/></clipPath><clipPath id="id5"><path d="M 178 114 L 249.855469 114 L 249.855469 174 L 178 174 Z M 178 114 " clip-rule="nonzero"/></clipPath><clipPath id="id6"><path d="M 103 0.0703125 L 177 0.0703125 L 177 67 L 103 67 Z M 103 0.0703125 " clip-rule="nonzero"/></clipPath></defs><g clip-path="url(#id1)"><path fill="rgb(100%, 100%, 100%)" d="M 0 0.0703125 L 307.5 0.0703125 L 307.5 261.933594 L 0 261.933594 Z M 0 0.0703125 " fill-opacity="1" fill-rule="nonzero"/><path fill="rgb(100%, 100%, 100%)" d="M 0 0.0703125 L 307.5 0.0703125 L 307.5 261.933594 L 0 261.933594 Z M 0 0.0703125 " fill-opacity="1" fill-rule="nonzero"/><path fill="rgb(100%, 100%, 100%)" d="M 0 0.0703125 L 307.5 0.0703125 L 307.5 261.933594 L 0 261.933594 Z M 0 0.0703125 " fill-opacity="1" fill-rule="nonzero"/></g><path stroke-linecap="butt" transform="matrix(1.615816, 0, 0, 1.616406, 57.572878, 0.0718563)" fill-opacity="1" fill="rgb(17.248535%, 44.309998%, 94.119263%)" fill-rule="nonzero" stroke-linejoin="miter" d="M 37.012886 152.594543 L 37.128927 153.017453 L 36.427849 153.044036 Z M 42.150092 116.301638 L 43.900368 116.233973 L 44.734409 114.769497 L 46.056786 114.962827 L 46.223594 113.648182 L 45.805365 113.263938 L 45.433069 113.793179 L 45.628887 113.305021 L 44.625621 113.111691 L 44.877042 112.519617 L 47.289715 112.10879 L 48.0609 112.990859 L 48.133426 112.227205 L 49.189877 112.053208 L 48.878018 113.78593 L 49.243062 114.126674 L 49.975567 113.329187 L 50.314018 114.109758 L 51.119049 113.254272 L 52.052207 115.646732 L 51.266517 116.748714 L 51.880564 116.946878 L 52.605817 116.219473 L 52.760537 118.147941 L 53.935446 118.131025 L 54.532571 116.915462 L 55.277164 117.650116 L 54.916955 118.87293 L 55.789675 119.899996 L 55.08618 120.231074 L 55.729238 122.183709 L 55.12486 122.609035 L 55.308591 123.764183 L 56.899312 124.76225 L 56.401305 125.699901 L 56.930739 125.881148 L 56.930739 126.893715 L 58.190261 127.135377 L 59.592416 129.312758 L 59.154847 129.532671 L 59.546484 130.448573 L 59.067817 132.630787 L 60.075918 133.785935 L 58.995292 134.293427 L 59.345831 133.677187 L 58.959029 133.587772 L 58.349817 134.448091 L 57.160403 133.486273 L 56.981507 134.220928 L 57.849393 135.31566 L 57.69709 136.978299 L 56.720416 137.200629 L 55.893628 138.237362 L 55.064423 137.857952 L 54.177197 138.215612 L 53.318982 139.77917 L 54.534988 141.644806 L 55.451224 144.914503 L 54.699379 149.624509 L 55.468147 150.711991 L 54.510813 151.139734 L 55.214308 151.659309 L 55.378699 153.239783 L 54.682456 153.967188 L 54.041817 153.073036 L 53.236786 153.735191 L 51.791116 153.232533 L 50.507419 154.494012 L 49.032739 154.668009 L 48.532315 155.711992 L 41.963944 153.1987 L 39.459405 153.798024 L 38.354603 152.084635 L 37.859014 152.454379 L 38.141863 153.297782 L 37.30057 152.935288 L 37.249802 151.574727 L 36.872671 151.739057 L 36.360159 150.900488 L 36.036213 151.688308 L 35.888745 150.924654 L 35.236017 150.74824 L 35.352058 151.258149 L 34.162643 151.482895 L 33.15696 153.321948 L 34.056273 153.984104 L 35.717101 153.343698 L 36.014455 153.817357 L 35.342388 154.82509 L 34.617135 154.097685 L 33.80727 154.699426 L 34.198906 155.158585 L 32.857189 155.373665 L 30.565391 154.329682 L 29.078623 155.533162 L 27.185714 155.796574 L 26.530569 154.970088 L 25.633673 154.958005 L 23.965592 156.014071 L 23.213747 155.46308 L 23.878562 155.376081 L 23.960757 154.716342 L 22.645633 154.924172 L 21.632696 152.872456 L 22.101693 152.178884 L 22.212898 149.394929 L 23.061444 147.613875 L 22.379707 146.415228 L 22.473989 144.755005 L 23.972845 141.255729 L 24.63766 140.765154 L 24.480522 139.465009 L 25.856084 134.680087 L 27.565263 132.418124 L 29.08104 131.536055 L 30.923182 128.338858 L 32.552583 125.697484 L 32.961142 123.068194 L 34.220664 121.88163 L 33.727492 121.29439 L 34.464832 119.121842 L 33.630792 118.819764 L 33.369701 116.175974 L 34.051438 116.180807 L 35.15624 117.551035 L 35.86457 117.021793 L 35.596226 115.656399 L 36.848496 115.388153 L 36.971788 117.123292 L 38.533499 117.343205 L 38.651957 117.990861 L 39.51259 117.773364 L 39.229741 118.483853 L 38.572179 118.45727 L 38.260321 119.602751 L 38.88162 119.899996 L 40.170152 118.708599 L 40.189492 117.751615 L 42.44261 117.495452 L 41.75362 116.543301 Z M 42.150092 116.301638 " stroke="rgb(100%, 100%, 100%)" stroke-width="0.5" stroke-opacity="1" stroke-miterlimit="4"/><path fill="rgb(17.248535%, 44.309998%, 94.119263%)" d="M 145.226562 157.691406 L 146.613281 156.144531 L 147.328125 156.828125 L 148.597656 156.457031 L 149.191406 157.867188 L 151.234375 158.425781 L 152.585938 161.6875 L 153.773438 161.429688 L 154.589844 162.945312 L 155.691406 162.660156 L 156.84375 163.648438 L 157.003906 167.007812 L 159.28125 167.835938 L 159.589844 166.320312 L 161.984375 166.546875 L 161.960938 165.542969 L 159.265625 164.0625 L 159.214844 163.246094 L 161.6875 161.734375 L 163.84375 161.738281 L 164.863281 163.191406 L 167.578125 162.574219 L 168.464844 163.75 L 168.21875 165.207031 L 170.410156 165.765625 L 171.097656 162.777344 L 170.335938 158.90625 L 171.234375 159.011719 L 172.378906 157.539062 L 174.152344 157.847656 L 173.933594 160.035156 L 174.402344 160.835938 L 175.234375 160.5 L 176.050781 162.308594 L 181.410156 160.851562 L 182.359375 161.832031 L 184.410156 160.726562 L 185.652344 161.871094 L 185.53125 163.097656 L 188.101562 164.160156 L 188.917969 165.535156 L 187.90625 166.390625 L 190.492188 169.015625 L 190.15625 170.9375 L 191.726562 172.003906 L 191.4375 172.589844 L 196.207031 175.082031 L 195.953125 176.539062 L 197.402344 177.03125 L 195.84375 181.351562 L 194.40625 182.769531 L 196.863281 184.570312 L 196.992188 186.757812 L 197.667969 186.710938 L 198.28125 189.324219 L 199.410156 189.785156 L 199.683594 192.636719 L 201.769531 193.902344 L 202.246094 195.429688 L 205.65625 195.523438 L 207.421875 196.800781 L 210.546875 202.117188 L 212.847656 202.703125 L 215.019531 204.765625 L 215.222656 206.882812 L 217.136719 208.324219 L 217.898438 207.285156 L 219.929688 208.074219 L 220.808594 210.253906 L 222.1875 210.070312 L 224.308594 213.6875 L 223.367188 215.460938 L 224.257812 215.988281 L 223.960938 218.636719 L 222.054688 221.761719 L 217.417969 219.402344 L 215.960938 220.394531 L 215.960938 224.390625 L 213.78125 227.667969 L 207.265625 229.796875 L 201.789062 233.894531 L 201.878906 235.558594 L 204.214844 238.972656 L 205.539062 239.582031 L 206.902344 242.488281 L 204.914062 246.378906 L 207.183594 246.378906 L 208.507812 247.503906 L 207.796875 253.511719 L 206.890625 254.378906 L 202.601562 251.542969 L 202.265625 250.753906 L 203.179688 249.800781 L 201.820312 248.605469 L 202.3125 247.921875 L 198.605469 247.941406 L 198 249.179688 L 196.367188 249.417969 L 195.144531 247.265625 L 191.300781 247.757812 L 191.230469 245.789062 L 189.382812 247.105469 L 190.207031 249.996094 L 186.179688 249.40625 L 182.765625 250.738281 L 178.4375 250.347656 L 177.101562 252.789062 L 174.191406 252.84375 L 173.164062 254.101562 L 173.945312 254.953125 L 172.191406 254.8125 L 170.75 256.414062 L 169.820312 256.476562 L 170.425781 255.46875 L 169.4375 255.289062 L 167.5625 256.4375 L 164.667969 256.382812 L 163.804688 253.851562 L 162.425781 253.804688 L 163.433594 252.859375 L 162.8125 252.121094 L 160.539062 252.824219 L 156.816406 251.148438 L 156.269531 252.226562 L 155.257812 252.1875 L 153.84375 251.554688 L 154.371094 250.640625 L 153.484375 250.667969 L 154.265625 255.308594 L 153.4375 256.890625 L 151.234375 259.226562 L 148.019531 260.3125 L 149.292969 256.867188 L 148.164062 256.542969 L 146.402344 257.699219 L 146.292969 254.683594 L 144.355469 253.777344 L 143.726562 251.832031 L 141.703125 252.382812 L 140.476562 251.773438 L 140.183594 250.320312 L 138.832031 252.222656 L 136 251.78125 L 136.804688 250.089844 L 139.1875 249.808594 L 141.261719 247.765625 L 143.597656 248.578125 L 144.902344 247.507812 L 145.933594 248.957031 L 147.0625 247.78125 L 146.792969 245.222656 L 145.660156 244.382812 L 147.203125 243.691406 L 145.964844 241.9375 L 147.179688 234.320312 L 145.703125 229.039062 L 143.734375 226.019531 L 145.121094 223.488281 L 146.554688 222.914062 L 147.894531 223.527344 L 149.230469 221.847656 L 150.8125 221.492188 L 151.054688 218.804688 L 149.652344 217.027344 L 149.9375 215.84375 L 151.859375 217.398438 L 152.847656 216.003906 L 153.46875 216.148438 L 152.902344 217.148438 L 154.648438 216.328125 L 153.023438 214.457031 L 153.792969 210.929688 L 153.15625 209.449219 L 153.871094 209.09375 L 151.597656 205.574219 L 149.5625 205.183594 L 149.566406 203.546875 L 148.710938 203.253906 L 149.515625 201.738281 L 146.941406 200.125 L 146.644531 198.257812 L 147.621094 197.566406 L 146.582031 194.414062 L 147.71875 193.878906 L 146.308594 192.21875 L 146.886719 190.242188 L 145.683594 189.054688 L 144.71875 191.019531 L 142.824219 191.042969 L 142.570312 187.929688 L 141.402344 189.101562 L 140.410156 188.78125 L 141.675781 187 L 140.171875 183.136719 L 138.871094 184.515625 L 138.324219 183.253906 L 137.140625 184.542969 L 136.554688 183.992188 L 137.058594 181.191406 L 135.347656 181.472656 L 135.226562 182.707031 L 133.984375 181.28125 L 130.089844 181.945312 L 129.683594 182.902344 L 131.304688 183.214844 L 130.988281 184.003906 L 131.589844 183.152344 L 132.261719 183.769531 L 131.988281 185.898438 L 129.855469 185.582031 L 128.503906 187.953125 L 125.679688 188.0625 L 124.925781 186.714844 L 126.609375 182.816406 L 125.765625 182.238281 L 126.332031 181.488281 L 125.410156 181.195312 L 125.320312 179.414062 L 124.285156 179.496094 L 123.90625 175.179688 L 124.558594 174.675781 L 124.128906 173.164062 L 123.042969 172.914062 L 123.484375 171.503906 L 126.015625 170.378906 L 126.6875 171.507812 L 128.136719 169.648438 L 131.230469 170.21875 L 132.558594 171.738281 L 134.1875 171.410156 L 133.9375 166.648438 L 137.355469 166.910156 L 137.140625 165.6875 L 139.066406 164.429688 L 139.386719 160.667969 L 142.300781 161.363281 L 144.734375 159.304688 Z M 145.226562 157.691406 " fill-opacity="1" fill-rule="nonzero"/><g clip-path="url(#id2)"><path stroke-linecap="butt" transform="matrix(1.615816, 0, 0, 1.616406, 57.572878, 0.0718563)" fill="none" stroke-linejoin="miter" d="M 54.247305 97.512363 L 55.10552 96.555379 L 55.547924 96.978288 L 56.333615 96.748709 L 56.701076 97.621111 L 57.965433 97.966689 L 58.801891 99.984573 L 59.536814 99.825075 L 60.042073 100.762726 L 60.72381 100.586313 L 61.436975 101.197719 L 61.536093 103.276019 L 62.945501 103.788343 L 63.136484 102.850692 L 64.618417 102.990857 L 64.603912 102.369783 L 62.935831 101.453882 L 62.904403 100.948807 L 64.434686 100.013572 L 65.769151 100.015989 L 66.400121 100.914974 L 68.080289 100.533147 L 68.629064 101.260552 L 68.47676 102.161953 L 69.832983 102.507531 L 70.258464 100.658811 L 69.78705 98.263934 L 70.343077 98.329183 L 71.051407 97.418115 L 72.148956 97.609028 L 72.013576 98.962339 L 72.303677 99.457748 L 72.818606 99.249918 L 73.323865 100.368816 L 76.640687 99.467414 L 77.228142 100.073988 L 78.497334 99.390082 L 79.266101 100.098154 L 79.191159 100.856975 L 80.781879 101.514297 L 81.287139 102.36495 L 80.661004 102.894191 L 82.261394 104.518165 L 82.053489 105.707145 L 83.025327 106.366885 L 82.846432 106.729379 L 85.79821 108.271187 L 85.641071 109.172589 L 86.537967 109.477084 L 85.573381 112.149873 L 84.683738 113.027109 L 86.204351 114.141174 L 86.284129 115.494485 L 86.702358 115.465485 L 87.081907 117.082209 L 87.780567 117.367371 L 87.949792 119.131509 L 89.240742 119.914496 L 89.535678 120.859397 L 91.646163 120.917396 L 92.738877 121.707633 L 94.672884 124.996662 L 96.096796 125.359157 L 97.440931 126.635136 L 97.566641 127.944947 L 98.751221 128.836683 L 99.222635 128.19386 L 100.479739 128.682019 L 101.023679 130.030497 L 101.877059 129.916915 L 103.189766 132.154712 L 102.607147 133.25186 L 103.158339 133.578105 L 102.974608 135.216578 L 101.794864 137.14988 L 98.925281 135.690237 L 98.023551 136.30406 L 98.023551 138.77627 L 96.674581 140.80382 L 92.642176 142.120882 L 89.252829 144.655924 L 89.308432 145.685407 L 90.754102 147.797539 L 91.573638 148.174533 L 92.417348 149.972503 L 91.186836 152.379464 L 92.591409 152.379464 L 93.410944 153.075452 L 92.970958 156.792225 L 92.410096 157.328716 L 89.755671 155.574245 L 89.547765 155.086086 L 90.113462 154.496429 L 89.272169 153.756941 L 89.576775 153.334031 L 87.28256 153.346114 L 86.907846 154.112185 L 85.897327 154.259599 L 85.140647 152.928038 L 82.761819 153.232533 L 82.718304 152.014553 L 81.574822 152.828956 L 82.084916 154.61726 L 79.592465 154.25235 L 77.479562 155.076419 L 74.800963 154.834757 L 73.974175 156.345149 L 72.173131 156.378981 L 71.537326 157.157135 L 72.020828 157.68396 L 70.935367 157.596961 L 70.043306 158.587778 L 69.467939 158.626445 L 69.842653 158.002955 L 69.231023 157.89179 L 68.070619 158.602278 L 66.279245 158.568445 L 65.744976 157.002471 L 64.891595 156.973472 L 65.515312 156.388648 L 65.130929 155.931905 L 63.723939 156.366898 L 61.420053 155.330165 L 61.081602 155.997154 L 60.455467 155.972988 L 59.580329 155.581494 L 59.906692 155.016004 L 59.357918 155.03292 L 59.84142 157.903873 L 59.328908 158.882607 L 57.965433 160.32775 L 55.975824 160.999572 L 56.763931 158.868107 L 56.065271 158.667527 L 54.974975 159.382849 L 54.907285 157.517213 L 53.7082 156.956555 L 53.318982 155.753075 L 52.066712 156.093819 L 51.307614 155.716826 L 51.126301 154.81784 L 50.289843 155.994738 L 48.53715 155.721659 L 49.035156 154.675259 L 50.509837 154.501262 L 51.793534 153.237366 L 53.239204 153.740025 L 54.046652 153.077869 L 54.684874 153.974437 L 55.383534 153.247033 L 55.216726 151.664142 L 54.515648 151.144567 L 55.470564 150.716824 L 54.704214 149.631759 L 55.456059 144.919336 L 54.542241 141.652056 L 53.323817 139.784003 L 54.182032 138.218029 L 55.069258 137.862785 L 55.898463 138.242195 L 56.725251 137.203046 L 57.704342 136.983133 L 57.854228 135.320493 L 56.986342 134.220928 L 57.16282 133.48869 L 58.352234 134.450508 L 58.963864 133.587772 L 59.348248 133.677187 L 58.997709 134.295843 L 60.078336 133.788352 L 59.072652 132.630787 L 59.548901 130.448573 L 59.154847 129.532671 L 59.597251 129.312758 L 58.190261 127.135377 L 56.930739 126.893715 L 56.933157 125.881148 L 56.403723 125.699901 L 56.901729 124.76225 L 55.308591 123.764183 L 55.12486 122.609035 L 55.729238 122.181292 L 55.08618 120.231074 L 55.789675 119.899996 L 54.916955 118.87293 L 55.274746 117.650116 L 54.530153 116.915462 L 53.933029 118.131025 L 52.760537 118.145525 L 52.603399 116.219473 L 51.880564 116.944461 L 51.266517 116.746298 L 52.04979 115.644316 L 51.119049 113.254272 L 50.314018 114.107341 L 49.975567 113.32677 L 49.243062 114.124257 L 48.880436 113.783513 L 49.192294 112.050791 L 48.133426 112.224789 L 48.058483 112.988443 L 47.289715 112.106374 L 44.879459 112.5172 L 44.628038 113.109274 L 45.631304 113.302604 L 45.435486 113.790763 L 45.807782 113.263938 L 46.223594 113.645765 L 46.054368 114.962827 L 44.734409 114.76708 L 43.897951 116.233973 L 42.150092 116.301638 L 41.683513 115.467902 L 42.725459 113.056108 L 42.203277 112.698447 L 42.553816 112.234455 L 41.983284 112.053208 L 41.927681 110.951226 L 41.287041 111.001975 L 41.052543 108.331602 L 41.456267 108.019857 L 41.190341 107.084623 L 40.518274 106.929959 L 40.791452 106.057556 L 42.357998 105.361568 L 42.773809 106.059973 L 43.670705 104.909658 L 45.585372 105.262486 L 46.407325 106.202554 L 47.415426 105.999557 L 47.260705 103.053689 L 49.376025 103.215603 L 49.243062 102.459199 L 50.434894 101.681045 L 50.63313 99.353833 L 52.436591 99.783992 L 53.942699 98.51043 Z M 54.247305 97.512363 " stroke="rgb(100%, 100%, 100%)" stroke-width="0.5" stroke-opacity="1" stroke-miterlimit="4"/></g><path stroke-linecap="butt" transform="matrix(1.615816, 0, 0, 1.616406, 57.572878, 0.0718563)" fill-opacity="1" fill="rgb(17.248535%, 44.309998%, 94.119263%)" fill-rule="nonzero" stroke-linejoin="miter" d="M 98.504635 52.97151 L 98.51914 52.97876 L 99.109012 53.476585 L 98.920446 54.588233 L 100.820608 55.912545 L 100.228318 57.140192 L 102.130898 57.741932 L 100.706985 59.945896 L 100.656217 59.138742 L 98.540897 58.739999 L 98.369254 58.234924 L 97.77213 58.442754 L 97.767295 59.160492 L 96.191079 58.307422 L 94.003234 58.851163 L 93.534237 58.394421 L 94.527833 56.337871 L 93.884776 56.178374 L 94.034661 54.709065 L 95.166055 54.680065 L 95.219241 53.829412 L 95.77285 53.841496 L 96.021853 53.131007 L 97.008197 53.918828 L 98.439362 53.334004 L 98.291894 52.947344 L 98.475625 52.838595 L 98.550567 52.860345 Z M 98.504635 52.97151 " stroke="rgb(100%, 100%, 100%)" stroke-width="0.5" stroke-opacity="1" stroke-miterlimit="4"/><path stroke-linecap="butt" transform="matrix(1.615816, 0, 0, 1.616406, 57.572878, 0.0718563)" fill-opacity="1" fill="rgb(17.248535%, 44.309998%, 94.119263%)" fill-rule="nonzero" stroke-linejoin="miter" d="M 70.031218 43.295335 L 71.653367 43.536998 L 72.015993 42.896592 L 73.447158 43.232503 L 73.691327 41.422449 L 75.187764 40.663628 L 76.0073 41.238786 L 77.129024 41.086538 L 76.848593 40.475131 L 77.670546 40.571796 L 79.766526 39.452898 L 80.075967 37.906257 L 81.669105 38.607079 L 82.454795 38.191419 L 82.812586 38.947823 L 84.541105 39.455315 L 85.21559 40.557297 L 88.005395 40.465465 L 88.295496 41.052705 L 89.221402 41.113121 L 89.393045 41.884025 L 91.914506 41.603696 L 91.641328 42.15952 L 92.441523 42.335934 L 94.305422 40.552463 L 95.349786 41.287118 L 96.241847 39.907224 L 97.605322 40.595963 L 98.001793 39.518147 L 98.61584 39.641395 L 99.096924 39.054155 L 99.466803 37.350433 L 100.441059 37.10152 L 101.570036 35.562129 L 102.841645 35.47513 L 102.350891 34.84439 L 102.587807 33.875323 L 103.673268 35.049804 L 104.17611 36.838108 L 108.351147 36.702777 L 108.169834 38.196252 L 106.518676 40.293884 L 108.626743 40.349467 L 109.349578 39.245068 L 110.563168 38.824575 L 111.017659 40.284218 L 110.106258 41.647196 L 109.941868 44.240236 L 107.1158 46.746279 L 107.326124 48.379918 L 106.840204 49.365902 L 109.787147 51.226705 L 113.478683 55.00631 L 113.036279 55.820713 L 113.415828 56.726948 L 112.139383 58.742415 L 112.888811 61.28954 L 114.452939 62.079777 L 114.039545 64.597903 L 115.033141 65.658802 L 114.208771 69.087996 L 112.869471 70.637054 L 115.016218 74.10733 L 114.66568 75.721637 L 114.237781 75.395392 L 114.010535 76.316127 L 113.183747 76.378959 L 112.572117 75.753053 L 110.263397 76.548123 L 109.552649 77.343194 L 107.031188 76.516707 L 106.392965 77.886935 L 105.691888 77.908684 L 106.059349 78.541841 L 105.234979 80.0184 L 104.727302 79.537491 L 102.333968 80.238313 L 99.367685 80.095732 L 97.513456 78.372677 L 97.242695 78.952667 L 96.536783 78.715838 L 95.809113 79.786404 L 95.134628 79.554407 L 94.626951 78.899501 L 95.042762 76.917867 L 94.220809 75.989883 L 94.448055 75.475141 L 93.05557 74.385242 L 94.769584 72.925599 L 94.165207 69.539905 L 92.91052 69.718735 L 92.961288 69.119412 L 92.028129 69.129078 L 91.832311 68.382341 L 90.466419 68.382341 L 90.372136 67.700852 L 89.53326 67.807183 L 88.13594 66.780117 L 87.376843 67.406023 L 86.443684 67.331108 L 85.662829 66.337874 L 85.087462 66.693118 L 82.29524 63.503171 L 83.315428 62.265857 L 82.648196 61.763199 L 83.443556 59.781565 L 83.008405 58.341255 L 83.748162 57.009694 L 82.607098 56.076876 L 81.869758 56.613367 L 81.927778 55.835213 L 81.333071 55.883545 L 81.66427 53.868078 L 82.435455 53.783497 L 82.038984 51.896111 L 82.798081 50.054641 L 82.486223 48.853577 L 81.978546 48.50075 L 81.088903 49.039658 L 81.064728 48.176922 L 79.205664 48.565999 L 77.312754 47.843427 L 77.438465 46.927526 L 76.125758 46.142122 L 75.51171 46.391034 L 75.2893 45.733712 L 74.636572 45.658796 L 74.815468 45.088472 L 74.305374 45.136805 L 72.424552 44.220903 L 70.952289 44.713895 Z M 98.439362 53.334004 L 97.008197 53.918828 L 96.021853 53.131007 L 95.77285 53.841496 L 95.219241 53.829412 L 95.168473 54.680065 L 94.037079 54.711481 L 93.884776 56.178374 L 94.527833 56.337871 L 93.534237 58.396838 L 94.005651 58.851163 L 96.188661 58.307422 L 97.764877 59.162908 L 97.769712 58.44517 L 98.366837 58.23734 L 98.540897 58.742415 L 100.6538 59.141159 L 100.70215 59.948312 L 102.12848 57.744348 L 100.223483 57.142608 L 100.81819 55.914962 L 98.918029 54.59065 L 99.106594 53.479002 L 98.516722 52.981176 L 98.550567 52.862762 L 98.473207 52.843429 L 98.289476 52.947344 Z M 98.439362 53.334004 " stroke="rgb(100%, 100%, 100%)" stroke-width="0.5" stroke-opacity="1" stroke-miterlimit="4"/><path stroke-linecap="butt" transform="matrix(1.615816, 0, 0, 1.616406, 57.572878, 0.0718563)" fill-opacity="1" fill="rgb(17.248535%, 44.309998%, 94.119263%)" fill-rule="nonzero" stroke-linejoin="miter" d="M 34.249674 41.057539 L 34.394724 41.038205 L 35.644576 41.37895 L 35.39799 41.818776 L 35.96127 42.234436 L 38.618112 42.401183 L 39.055681 43.106838 L 40.102462 42.662179 L 40.598051 43.215586 L 40.145977 43.4355 L 40.682664 43.841493 L 40.571459 44.936225 L 39.979169 45.62738 L 39.089526 45.064306 L 38.521411 45.489633 L 37.875937 44.781561 L 37.182112 45.078806 L 35.90325 42.340767 L 34.50593 41.685862 L 34.240004 41.030956 Z M 34.643728 32.882089 L 36.442354 32.795091 L 35.89358 33.553912 L 36.089398 35.2673 L 35.332718 35.470297 L 35.095802 34.663143 L 35.383485 34.290983 Z M 34.643728 32.882089 " stroke="rgb(100%, 100%, 100%)" stroke-width="0.5" stroke-opacity="1" stroke-miterlimit="4"/><path stroke-linecap="butt" transform="matrix(1.615816, 0, 0, 1.616406, 57.572878, 0.0718563)" fill-opacity="1" fill="rgb(17.248535%, 44.309998%, 94.119263%)" fill-rule="nonzero" stroke-linejoin="miter" d="M 50.222153 33.935739 L 50.751587 32.311765 L 51.590463 33.292916 L 52.494611 31.867106 L 53.427769 32.00002 L 53.686443 31.246033 L 54.542241 31.313698 L 54.745312 30.39538 L 55.879123 29.999053 L 56.188564 30.318048 L 55.557595 31.311282 L 56.558443 32.265849 L 56.263507 33.307416 L 55.644625 33.580494 L 55.789675 34.677643 L 56.423063 34.716309 L 57.907413 36.272617 L 57.680167 36.606111 L 56.783271 37.410848 L 55.954066 37.410848 L 54.375433 35.958455 L 53.509965 36.978272 L 52.615487 37.029021 L 52.460766 36.117953 L 51.921662 36.683444 L 51.218167 35.965705 L 50.795103 34.008237 Z M 50.222153 33.935739 " stroke="rgb(100%, 100%, 100%)" stroke-width="0.5" stroke-opacity="1" stroke-miterlimit="4"/><path stroke-linecap="butt" transform="matrix(1.615816, 0, 0, 1.616406, 57.572878, 0.0718563)" fill-opacity="1" fill="rgb(17.248535%, 44.309998%, 94.119263%)" fill-rule="nonzero" stroke-linejoin="miter" d="M 46.632153 74.387659 L 48.882853 74.607572 L 49.704806 75.825552 L 48.931203 75.678138 L 49.146362 76.352377 L 48.616927 76.154213 L 48.363089 77.070115 L 49.098012 78.024682 L 49.114934 79.102498 L 48.266389 79.450492 L 48.143096 80.257646 L 47.664429 80.153731 L 48.05123 80.61289 L 50.275338 81.632707 L 50.773345 80.779637 L 50.340611 81.132465 L 49.864362 80.221396 L 51.109379 79.776737 L 51.070699 79.312745 L 51.967594 80.066732 L 51.781446 79.17983 L 52.439008 79.116998 L 52.775042 79.986984 L 53.345574 81.85262 L 54.418948 81.973451 L 54.588174 83.0416 L 56.756679 83.88017 L 56.265925 85.376062 L 55.840443 84.551992 L 55.245736 84.834738 L 55.954066 85.303563 L 55.523749 86.465961 L 56.355372 86.961369 L 56.343285 87.522027 L 54.21346 87.415695 L 53.959621 88.060935 L 54.522901 88.810089 L 53.067561 88.860838 L 53.551062 89.075918 L 53.343157 89.559243 L 53.862921 89.276498 L 54.486638 90.078818 L 54.058739 91.057552 L 53.096571 91.330631 L 52.112645 94.999071 L 53.188436 95.218984 L 53.108658 94.452913 L 54.402025 94.377998 L 54.769487 95.359148 L 54.18445 95.600811 L 54.244887 97.512363 L 53.942699 98.51043 L 52.436591 99.783992 L 50.63313 99.353833 L 50.434894 101.681045 L 49.243062 102.459199 L 49.376025 103.215603 L 47.260705 103.053689 L 47.415426 105.999557 L 46.407325 106.202554 L 45.585372 105.262486 L 43.670705 104.909658 L 42.773809 106.059973 L 42.357998 105.361568 L 40.791452 106.057556 L 40.518274 106.929959 L 41.190341 107.084623 L 41.456267 108.019857 L 41.052543 108.331602 L 41.284624 111.001975 L 41.927681 110.951226 L 41.983284 112.053208 L 42.553816 112.234455 L 42.203277 112.698447 L 42.725459 113.056108 L 41.683513 115.467902 L 42.150092 116.301638 L 41.75362 116.550551 L 42.44261 117.502702 L 40.19191 117.761281 L 40.17257 118.715849 L 38.884038 119.907246 L 38.260321 119.610001 L 38.572179 118.466936 L 39.232159 118.491102 L 39.515007 117.780614 L 38.654374 117.998111 L 38.533499 117.348038 L 36.974206 117.128125 L 36.848496 115.395403 L 35.598644 115.666065 L 35.86457 117.029043 L 35.15624 117.558284 L 34.053856 116.188057 L 33.372118 116.183224 L 32.557418 114.032426 L 34.104623 112.638032 L 33.389041 112.509951 L 32.823344 111.429718 L 32.083586 108.367852 L 30.301882 107.195788 L 26.458044 108.4621 L 25.014791 106.746295 L 25.846414 106.221887 L 26.02531 105.356734 L 27.028576 105.842476 L 27.062421 105.011157 L 26.441121 104.525415 L 26.774737 103.822176 L 27.780421 103.131021 L 28.355788 103.570847 L 28.404138 102.464032 L 29.308286 102.676695 L 29.472677 101.900958 L 28.708744 100.388149 L 27.468562 99.648661 L 28.070522 98.790759 L 27.869869 97.343199 L 28.493586 96.681043 L 29.262354 97.166785 L 29.678165 96.816374 L 29.535532 94.092836 L 30.086724 93.104435 L 29.65399 91.980704 L 31.365586 90.124734 L 32.552583 90.525894 L 33.858037 89.34658 L 33.83628 88.387179 L 34.851633 87.294864 L 34.404394 86.055134 L 37.211122 85.443728 L 36.899263 84.88307 L 37.817916 83.413761 L 37.232879 82.084616 L 35.603479 82.630774 L 35.107889 82.009701 L 35.920172 80.801387 L 36.875088 79.967651 L 40.020267 79.706655 L 40.136307 78.916418 L 39.41589 77.79752 L 41.057378 77.048365 L 41.995371 77.517191 L 42.050974 78.561174 L 43.605432 78.261512 L 45.609547 75.537973 L 45.164725 75.054648 Z M 46.632153 74.387659 " stroke="rgb(100%, 100%, 100%)" stroke-width="0.5" stroke-opacity="1" stroke-miterlimit="4"/><path stroke-linecap="butt" transform="matrix(1.615816, 0, 0, 1.616406, 57.572878, 0.0718563)" fill-opacity="1" fill="rgb(17.248535%, 44.309998%, 94.119263%)" fill-rule="nonzero" stroke-linejoin="miter" d="M 102.793295 20.632207 L 103.634588 22.106349 L 105.483982 23.155165 L 108.186757 25.864204 L 107.647652 26.190449 L 108.005443 27.195766 L 105.745073 27.043518 L 104.490386 27.705674 L 104.3405 27.041102 L 104.120507 27.720174 L 103.020541 27.560676 L 104.456541 26.282281 L 104.07941 24.532643 L 104.792575 24.535059 L 104.717632 25.726456 L 105.03916 25.12955 L 105.776501 25.554876 L 105.868366 24.631724 L 104.87477 22.889336 L 104.093915 22.906253 L 104.30182 23.935736 L 104.246218 23.524909 L 103.446022 24.278897 L 103.40009 23.234914 L 102.271113 23.86082 L 102.81747 21.915436 L 102.000352 20.80862 Z M 88.551752 14.873384 L 88.878115 15.16338 L 88.186708 15.14163 Z M 86.325226 13.696487 L 86.741038 14.319977 L 91.290789 14.501224 L 91.4165 14.899967 L 89.825779 15.313211 L 87.695954 14.938633 L 86.385664 16.282278 L 88.588014 15.252795 L 88.193961 16.146947 L 88.503402 15.52829 L 88.955476 16.15178 L 89.615456 15.588706 L 89.941819 16.736604 L 91.387489 15.206879 L 92.760634 14.709054 L 92.709867 15.56454 L 93.5705 16.207363 L 93.72522 18.104415 L 94.687389 18.375077 L 94.232897 18.742404 L 94.786506 18.454826 L 96.099214 19.145981 L 96.570628 20.267296 L 97.145995 20.313212 L 96.454587 20.789287 L 97.740702 20.477543 L 97.288628 21.130032 L 97.653672 20.876286 L 98.398264 22.396344 L 98.818911 22.410844 L 98.690783 21.567441 L 101.531355 20.586291 L 101.369382 21.021284 L 102.703847 22.135349 L 101.952002 23.672323 L 104.1471 25.997119 L 102.989113 26.987936 L 102.897248 27.725007 L 106.574278 29.960387 L 108.694433 29.776723 L 108.024784 30.77479 L 108.863659 31.117951 L 110.563168 38.829408 L 109.349578 39.249901 L 108.626743 40.356717 L 106.518676 40.293884 L 108.169834 38.198669 L 108.351147 36.705193 L 104.17611 36.840524 L 103.673268 35.049804 L 102.587807 33.87774 L 102.350891 34.846807 L 102.844063 35.477547 L 101.570036 35.564545 L 100.441059 37.103937 L 99.466803 37.352849 L 99.099342 39.056571 L 98.61584 39.643812 L 98.001793 39.518147 L 97.605322 40.598379 L 96.244264 39.909641 L 95.349786 41.287118 L 94.305422 40.55488 L 92.441523 42.338351 L 91.641328 42.161937 L 91.914506 41.606113 L 89.393045 41.886442 L 89.221402 41.113121 L 88.295496 41.052705 L 88.005395 40.467881 L 85.21559 40.557297 L 84.543523 39.457731 L 82.815004 38.947823 L 82.454795 38.193835 L 81.669105 38.609495 L 80.075967 37.908673 L 79.766526 39.455315 L 77.670546 40.574213 L 76.848593 40.477548 L 77.129024 41.088955 L 76.0073 41.238786 L 75.187764 40.666045 L 73.691327 41.422449 L 73.449576 43.234919 L 72.015993 42.899008 L 71.653367 43.539414 L 70.031218 43.297752 L 68.957845 42.988424 L 69.124653 42.053189 L 67.741838 41.335451 L 66.429131 38.761743 L 65.534653 38.440331 L 64.468531 39.382816 L 62.720672 37.961839 L 61.376538 38.099587 L 61.864874 36.166285 L 64.342821 34.883056 L 64.306558 33.558745 L 65.445205 33.631244 L 65.979474 31.954104 L 65.60476 30.849706 L 64.666767 30.791707 L 63.484605 29.706641 L 63.656248 27.074934 L 65.058403 25.936703 L 65.454875 26.51911 L 66.151117 26.308864 L 65.222794 25.982619 L 65.358174 25.245548 L 67.098781 24.165315 L 68.916747 23.969569 L 69.944188 24.653474 L 69.917596 25.711957 L 70.925697 25.192382 L 72.52367 26.557776 L 72.830693 25.015968 L 72.339939 25.197215 L 72.327852 24.329646 L 72.153791 25.12955 L 71.597764 25.047384 L 71.571171 24.249897 L 72.917724 23.805238 L 72.912889 25.008718 L 73.292438 23.599825 L 73.993515 23.549076 L 74.655912 22.311762 L 74.382734 22.03385 L 73.437488 23.234914 L 73.384303 22.67909 L 75.34732 20.951201 L 77.50132 21.113115 L 81.08165 20.264879 L 81.864923 19.080732 L 83.79893 17.797503 Z M 94.25949 11.033364 L 93.217543 14.225728 L 93.662365 11.296776 Z M 97.93652 9.228144 L 97.211268 10.330126 L 97.77213 11.562605 L 100.530507 11.412774 L 101.098621 11.876767 L 99.761739 14.452891 L 100.262163 15.417125 L 101.021261 15.492041 L 102.232433 16.804269 L 101.51685 18.399243 L 101.408063 17.79267 L 100.68281 17.766087 L 101.434655 17.123264 L 100.221066 17.345594 L 101.188069 16.57469 L 100.296009 17.050765 L 99.894702 16.53844 L 98.843086 16.78252 L 96.911497 18.377494 L 96.981604 18.889819 L 97.07347 18.507991 L 97.757625 18.727905 L 97.426426 19.448059 L 96.120971 18.805237 L 96.51986 18.918818 L 96.676998 18.188997 L 95.835705 18.735154 L 94.955732 18.375077 L 94.875954 17.79267 L 94.184547 18.116498 L 94.762331 17.710505 L 93.853348 17.004849 L 94.022574 16.154197 L 95.73417 15.861785 L 95.1032 14.854051 L 94.312675 15.013549 L 94.675301 14.278894 L 93.940378 14.462558 L 94.561678 13.476574 L 95.303853 13.645738 L 94.93881 14.469808 L 95.862298 13.749653 L 95.315941 13.626405 L 95.352204 13.070581 L 94.566513 13.133413 L 94.232897 12.28276 L 95.521429 12.087013 L 96.292614 12.990832 L 96.200749 12.132929 L 96.940507 11.528773 L 96.735018 12.232011 L 97.20885 11.985515 L 97.682682 13.445158 L 98.178271 13.942983 L 98.852756 13.72307 L 98.961544 11.862267 L 98.110581 12.166762 L 97.133907 10.772368 L 95.509342 12.000015 L 96.038776 10.081213 L 94.450473 12.012098 L 95.543187 9.810551 Z M 97.93652 9.228144 " stroke="rgb(100%, 100%, 100%)" stroke-width="0.5" stroke-opacity="1" stroke-miterlimit="4"/><path stroke-linecap="butt" transform="matrix(1.615816, 0, 0, 1.616406, 57.572878, 0.0718563)" fill-opacity="1" fill="rgb(17.248535%, 44.309998%, 94.119263%)" fill-rule="nonzero" stroke-linejoin="miter" d="M 12.629894 33.027087 L 11.409053 33.350915 L 11.759591 33.964738 L 10.599187 33.329165 L 11.824864 32.563094 Z M 20.206366 30.069135 L 20.680198 30.453379 L 19.672097 30.272132 Z M 22.488494 29.55681 L 23.165397 29.854055 L 21.033154 30.327714 L 21.216885 29.665559 Z M 24.354811 29.058985 L 25.5684 29.281315 L 23.660986 29.658309 Z M 26.583754 28.771407 L 27.545922 29.208816 L 25.947949 28.959903 Z M 36.80498 26.647191 L 37.863849 27.857922 L 39.447317 28.135834 L 41.074301 27.75884 L 40.868812 27.041102 L 43.508732 26.92752 L 44.857701 27.500261 L 47.328395 30.963287 L 47.901345 32.633177 L 50.222153 33.938155 L 50.795103 34.008237 L 51.215749 35.968122 L 51.919244 36.683444 L 52.460766 36.117953 L 52.613069 37.029021 L 53.509965 36.978272 L 54.375433 35.956039 L 55.954066 37.408432 L 56.783271 37.408432 L 57.680167 36.603695 L 61.37412 38.09717 L 62.720672 37.959423 L 64.468531 39.380399 L 65.534653 38.437915 L 66.426713 38.759326 L 67.741838 41.333034 L 69.122235 42.050772 L 68.957845 42.986007 L 70.031218 43.295335 L 70.949872 44.713895 L 72.424552 44.220903 L 74.305374 45.136805 L 73.759017 45.924625 L 73.157057 45.782044 L 73.065192 47.174022 L 70.628343 48.508 L 66.663629 47.802345 L 65.822336 49.046908 L 63.595811 49.27407 L 63.9947 52.009692 L 64.386336 51.956527 L 65.55641 54.220906 L 66.286498 53.926078 L 65.786073 55.115058 L 66.699892 56.642366 L 65.885191 56.678616 L 65.742558 57.374604 L 67.55569 59.182241 L 66.375945 59.883063 L 67.688653 62.246524 L 66.762747 62.884514 L 67.362289 63.416172 L 67.168888 64.225742 L 65.858599 64.875815 L 66.1487 65.844882 L 62.727925 65.987463 L 60.948639 66.934781 L 62.094538 67.913515 L 61.606201 68.317092 L 62.080033 69.307909 L 61.149292 70.180311 L 61.108194 70.963298 L 62.73276 74.481907 L 61.930147 74.933817 L 62.162228 76.197712 L 61.509501 75.76272 L 60.390194 76.291961 L 59.280558 75.501724 L 58.470692 75.598389 L 57.552039 77.534107 L 56.710746 78.012599 L 56.307022 77.693605 L 55.685722 78.819753 L 54.583339 79.097665 L 54.30049 78.703755 L 52.775042 79.98215 L 52.436591 79.114581 L 51.779029 79.177414 L 51.965177 80.061899 L 51.068281 79.310328 L 51.106961 79.771904 L 49.861944 80.216563 L 50.338193 81.130048 L 50.770928 80.774804 L 50.270503 81.627873 L 48.046395 80.60564 L 47.659594 80.148898 L 48.138261 80.252813 L 48.261554 79.445659 L 49.110099 79.097665 L 49.093177 78.022266 L 48.360671 77.065282 L 48.61451 76.14938 L 49.143944 76.347543 L 48.928786 75.673304 L 49.699971 75.823135 L 48.882853 74.602739 L 46.629735 74.385242 L 45.645809 74.312743 L 45.648227 72.381858 L 46.56688 71.320959 L 46.745776 69.936232 L 45.000335 70.083646 L 45.210658 68.964748 L 44.340355 68.464506 L 44.352442 67.611437 L 43.501479 67.867599 L 43.075998 67.449523 L 43.320166 65.586303 L 42.546563 65.057062 L 42.802819 64.32724 L 40.963095 64.211242 L 40.629479 62.959429 L 41.376489 63.186592 L 41.274954 62.338356 L 41.804388 62.181276 L 40.370806 61.168709 L 42.399095 58.553918 L 42.029216 57.722599 L 42.575573 57.029027 L 42.094489 56.586784 L 41.487695 56.528785 L 39.996092 58.604668 L 38.946893 58.865663 L 37.029809 58.737582 L 36.962118 56.449036 L 36.309391 55.876296 L 35.093384 56.565034 L 34.392307 56.289539 L 33.297175 57.712932 L 31.829748 57.415687 L 32.001391 58.578085 L 33.645297 59.44807 L 33.625957 62.541353 L 34.585707 63.172093 L 33.161795 64.718734 L 31.609754 64.203992 L 30.401 65.506554 L 28.336448 65.586303 L 27.676468 66.284708 L 26.441121 65.276975 L 28.027007 64.619652 L 28.263922 63.628835 L 26.656279 62.7516 L 27.379114 61.439371 L 27.057586 60.70955 L 27.831188 60.559719 L 27.120441 59.390071 L 24.236353 58.640917 L 23.91966 57.548601 L 22.880131 57.084609 L 22.326521 57.986011 L 22.819693 58.205924 L 22.56102 59.162908 L 18.862232 61.499787 L 15.854851 61.971029 L 15.371349 60.956046 L 15.982979 59.199158 L 14.91444 57.217524 L 14.28347 57.903846 L 11.904642 57.328688 L 11.135874 56.81878 L 10.906211 55.419553 L 12.025517 55.19964 L 11.322022 53.851162 L 11.832117 53.39442 L 15.743645 53.510418 L 16.164292 49.11699 L 17.837208 45.767545 L 17.348871 42.944924 L 17.962918 42.082188 L 17.735673 40.699878 L 18.197417 39.054155 L 19.0097 39.015489 L 15.216629 38.55633 L 15.463214 34.419064 L 16.314178 35.163385 L 15.56475 34.363482 L 16.381868 34.907223 L 16.889545 34.254733 L 16.193302 33.452413 L 18.192582 31.480445 L 19.693855 31.113118 L 21.806757 31.463529 L 24.108225 30.40988 L 24.11306 30.837623 L 25.435437 30.60321 L 25.800481 30.088468 L 25.48137 30.678125 L 28.273593 30.653959 L 28.493586 32.084602 L 29.433997 32.20785 L 30.142327 34.394898 L 28.708744 35.054637 L 28.745007 35.680543 L 30.519458 37.234435 L 31.370421 37.205435 L 31.962711 36.09137 L 31.924031 34.713892 L 30.857909 34.738059 L 31.549317 32.768508 L 32.272152 32.744341 L 33.90397 34.02757 L 34.605048 33.899489 L 35.093384 34.660727 L 35.3303 35.46788 L 36.084563 35.264883 L 35.891162 33.551495 L 36.439937 32.792674 L 34.638893 32.882089 L 34.138468 30.953621 L 34.984596 28.326747 L 35.808967 26.891271 Z M 34.237586 41.033372 L 34.503512 41.688278 L 35.900832 42.343184 L 37.179694 45.081223 L 37.873519 44.783977 L 38.518994 45.492049 L 39.087108 45.066723 L 39.976752 45.629797 L 40.569041 44.938642 L 40.680247 43.843909 L 40.14356 43.437916 L 40.595634 43.218003 L 40.100045 42.664595 L 39.053263 43.106838 L 38.615694 42.4036 L 35.958852 42.236853 L 35.393155 41.821193 L 35.642159 41.381367 L 34.392307 41.038205 Z M 34.237586 41.033372 " stroke="rgb(100%, 100%, 100%)" stroke-width="0.5" stroke-opacity="1" stroke-miterlimit="4"/><path fill="rgb(17.248535%, 44.309998%, 94.119263%)" d="M 83.203125 100.246094 L 88.0625 99.488281 L 94.042969 95.710938 L 94.460938 94.160156 L 93.664062 93.808594 L 94.558594 92.351562 L 96.234375 93.097656 L 96.746094 94.863281 L 101.40625 96.078125 L 102.550781 97.964844 L 101.304688 98.207031 L 101.824219 99.386719 L 100.65625 101.507812 L 103.25 102.921875 L 102.867188 104.523438 L 100.308594 105.585938 L 102.300781 107.222656 L 103.367188 106.09375 L 106.703125 105.960938 L 108.65625 103.855469 L 111.164062 104.683594 L 113.460938 102.1875 L 111.910156 101.167969 L 111.941406 96.167969 L 109.285156 94.761719 L 109.007812 92.882812 L 111.378906 93.363281 L 113.144531 91.066406 L 114.285156 91.507812 L 116.25 90.398438 L 117.304688 91.320312 L 117.414062 95.019531 L 120.511719 95.230469 L 122.207031 94.804688 L 124.617188 91.453125 L 125.597656 91.546875 L 126.375 92.257812 L 125.492188 93.382812 L 126.089844 94.722656 L 122.8125 98.953125 L 125.125 100.589844 L 124.269531 100.839844 L 124.433594 102.214844 L 123.226562 101.84375 L 123.765625 103.867188 L 126.734375 104.054688 L 126.320312 105.238281 L 127.570312 106.085938 L 127.175781 109.101562 L 127.863281 109.78125 L 129.242188 109.367188 L 129.222656 110.746094 L 130.628906 111.554688 L 130.289062 113.363281 L 133.109375 113.125 L 132.820312 115.363281 L 131.332031 117.074219 L 131.332031 120.199219 L 132.921875 120.3125 L 130.550781 121.390625 L 131.273438 122.171875 L 128.03125 126.574219 L 125.523438 127.058594 L 125.429688 125.371094 L 123.914062 124.613281 L 121.261719 125.824219 L 122.429688 127.632812 L 122.238281 128.910156 L 117.15625 129.332031 L 115.613281 130.679688 L 114.304688 132.632812 L 115.105469 133.636719 L 117.734375 132.753906 L 118.679688 134.902344 L 117.199219 137.277344 L 117.699219 138.183594 L 113.164062 139.171875 L 113.886719 141.175781 L 112.246094 142.941406 L 112.28125 144.492188 L 110.171875 146.398438 L 108.257812 145.75 L 105.488281 148.75 L 106.1875 150.566406 L 105.296875 152.164062 L 103.542969 151.769531 L 102.035156 149.207031 L 102.042969 146.894531 L 99.117188 145.683594 L 99.578125 144.183594 L 98.382812 143.707031 L 97.195312 144.507812 L 97.757812 146.921875 L 95.636719 147.710938 L 95.859375 149.003906 L 94.210938 150.382812 L 89.683594 151.074219 L 88.867188 153.671875 L 86.316406 154.195312 L 86.074219 153.371094 L 84.9375 154.949219 L 84.28125 154.5625 L 83.742188 155.421875 L 83.039062 154.761719 L 81.828125 156.117188 L 80.421875 156.253906 L 80.433594 157.121094 L 79.421875 157.324219 L 79.796875 159.242188 L 78.910156 159.761719 L 77.722656 158.484375 L 76.5625 159.101562 L 77.691406 162.78125 L 75.664062 163.574219 L 74.992188 162.457031 L 74.351562 163.3125 L 73.597656 161.902344 L 70.484375 163.566406 L 69.65625 161.859375 L 69.488281 164.027344 L 68.175781 162.152344 L 68.90625 160.3125 L 68.375 158.589844 L 65.785156 158.375 L 64.792969 156.84375 L 66.675781 154.089844 L 64.769531 154.09375 L 63.597656 151.03125 L 61.886719 151.050781 L 61.613281 149.261719 L 60.519531 148.515625 L 61.585938 147.902344 L 61.460938 146.886719 L 62.609375 146.863281 L 63.042969 144.398438 L 61.472656 143.972656 L 61.585938 142.339844 L 58.933594 142.640625 L 58.257812 140.226562 L 59.261719 139.617188 L 60.207031 140.628906 L 61.28125 138.785156 L 64.695312 136.613281 L 63.976562 136.09375 L 64.511719 135.386719 L 62.777344 136.121094 L 62.554688 133.796875 L 65.765625 129.8125 L 65.507812 124.800781 L 62.957031 121.671875 L 63.480469 119.984375 L 61.730469 119.382812 L 61.972656 117.945312 L 60.125 117.210938 L 60.867188 115.726562 L 59.925781 114.351562 L 62.398438 112.988281 L 64.519531 113.789062 L 63.539062 111.738281 L 69.445312 114.253906 L 69.230469 112.664062 L 70.84375 113.367188 L 75.316406 111.21875 L 76.308594 111.839844 L 78.351562 108.882812 L 75.367188 107.097656 L 75.507812 106.046875 L 76.398438 105.886719 L 76.902344 104.421875 L 78.867188 104.351562 L 81.554688 100.792969 Z M 83.203125 100.246094 " fill-opacity="1" fill-rule="nonzero"/><g clip-path="url(#id3)"><path stroke-linecap="butt" transform="matrix(1.615816, 0, 0, 1.616406, 57.572878, 0.0718563)" fill="none" stroke-linejoin="miter" d="M 15.862103 61.973446 L 18.869484 61.50462 L 22.57069 59.167742 L 22.829363 58.208341 L 22.336191 57.990844 L 22.889801 57.089442 L 23.926912 57.551018 L 24.243606 58.643334 L 27.127693 59.394905 L 27.836023 60.562135 L 27.064838 60.711966 L 27.386367 61.441788 L 26.663532 62.754016 L 28.268758 63.628835 L 28.031842 64.619652 L 26.448374 65.276975 L 27.681303 66.289542 L 28.341283 65.591136 L 30.405835 65.508971 L 31.614589 64.206409 L 33.16663 64.718734 L 34.588125 63.174509 L 33.628374 62.54377 L 33.647714 59.450487 L 32.003808 58.580501 L 31.832165 57.418104 L 33.299593 57.715349 L 34.392307 56.294372 L 35.098219 56.567451 L 36.314226 55.881129 L 36.966953 56.451453 L 37.034644 58.739999 L 38.951728 58.870496 L 40.000927 58.607084 L 41.49253 56.533618 L 42.099324 56.591617 L 42.580408 57.031443 L 42.034051 57.727432 L 42.40393 58.556335 L 40.375641 61.173542 L 41.806806 62.186109 L 41.277371 62.340773 L 41.378907 63.191426 L 40.631896 62.961846 L 40.965513 64.213659 L 42.802819 64.329657 L 42.546563 65.061895 L 43.320166 65.586303 L 43.075998 67.451939 L 43.501479 67.872432 L 44.35486 67.61627 L 44.342772 68.469339 L 45.213075 68.969581 L 45.002752 70.088479 L 46.748193 69.941065 L 46.569298 71.325792 L 45.648227 72.384275 L 45.648227 74.317577 L 46.632153 74.387659 L 45.164725 75.054648 L 45.611964 75.537973 L 43.605432 78.261512 L 42.053392 78.561174 L 41.995371 77.517191 L 41.057378 77.048365 L 39.41589 77.79752 L 40.138725 78.916418 L 40.020267 79.706655 L 36.875088 79.967651 L 35.920172 80.801387 L 35.110307 82.009701 L 35.605896 82.630774 L 37.232879 82.084616 L 37.817916 83.413761 L 36.901681 84.88307 L 37.211122 85.443728 L 34.404394 86.055134 L 34.851633 87.294864 L 33.83628 88.387179 L 33.858037 89.34658 L 32.552583 90.525894 L 31.368004 90.124734 L 29.65399 91.980704 L 30.086724 93.104435 L 29.535532 94.092836 L 28.450071 93.848756 L 27.516912 92.263449 L 27.521747 90.832806 L 25.711033 90.083651 L 25.996299 89.155667 L 25.256542 88.860838 L 24.521619 89.356247 L 24.86974 90.849722 L 23.557033 91.337881 L 23.694831 92.137784 L 22.674643 92.990854 L 19.87275 93.418597 L 19.367491 95.025654 L 17.788858 95.349482 L 17.638972 94.839574 L 16.935477 95.815891 L 16.529336 95.576645 L 16.19572 96.108303 L 15.760568 95.699893 L 15.01114 96.538462 L 14.140837 96.623044 L 14.14809 97.159535 L 13.521955 97.2852 L 13.754036 98.471764 L 13.205261 98.793175 L 12.470339 98.002938 L 11.752339 98.384765 L 12.450999 100.661228 L 11.196312 101.151803 L 10.7805 100.460648 L 10.384029 100.989889 L 9.91745 100.117487 L 7.990695 101.14697 L 7.478184 100.090904 L 7.374231 101.432132 L 6.561948 100.272151 L 7.014022 99.13392 L 6.685241 98.068187 L 5.082433 97.935273 L 4.468385 96.987955 L 5.633625 95.284233 L 4.45388 95.28665 L 3.728628 93.392014 L 2.669759 93.404097 L 2.500533 92.297282 L 1.823631 91.835706 L 2.483611 91.456296 L 2.406251 90.827973 L 3.116998 90.813473 L 3.385342 89.288581 L 2.413503 89.025169 L 2.483611 88.015019 L 0.842123 88.201099 L 0.423894 86.707623 L 1.045193 86.33063 L 1.63023 86.956536 L 2.295045 85.815888 L 4.407948 84.472243 L 3.963126 84.150832 L 4.294325 83.713423 L 3.220951 84.167748 L 3.083153 82.729855 L 5.070345 80.264896 L 4.910789 77.164363 L 3.332156 75.228645 L 3.656103 74.184662 L 2.573059 73.812502 L 2.722944 72.923183 L 1.579463 72.468857 L 2.038789 71.550539 L 1.45617 70.699886 L 2.986453 69.856483 L 4.29916 70.351892 L 3.692365 69.083162 L 7.347638 70.63947 L 7.214675 69.655903 L 8.213106 70.090896 L 10.981154 68.761751 L 11.595201 69.145995 L 12.859558 67.316608 L 11.012581 66.212209 L 11.099611 65.562137 L 11.650803 65.463055 L 11.962662 64.55682 L 13.178669 64.513321 L 14.841915 62.311773 Z M 15.862103 61.973446 " stroke="rgb(100%, 100%, 100%)" stroke-width="0.5" stroke-opacity="1" stroke-miterlimit="4"/></g><path stroke-linecap="butt" transform="matrix(1.615816, 0, 0, 1.616406, 57.572878, 0.0718563)" fill-opacity="1" fill="rgb(17.248535%, 44.309998%, 94.119263%)" fill-rule="nonzero" stroke-linejoin="miter" d="M 7.371813 101.432132 L 7.478184 100.090904 L 7.990695 101.14697 L 9.91745 100.117487 L 10.384029 100.989889 L 10.7805 100.460648 L 11.196312 101.151803 L 12.450999 100.661228 L 11.752339 98.384765 L 12.470339 98.002938 L 13.205261 98.793175 L 13.754036 98.471764 L 13.521955 97.2852 L 14.14809 97.159535 L 14.140837 96.623044 L 15.01114 96.538462 L 15.760568 95.699893 L 16.19572 96.108303 L 16.529336 95.576645 L 16.935477 95.815891 L 17.638972 94.839574 L 17.788858 95.349482 L 19.367491 95.025654 L 19.87275 93.418597 L 22.674643 92.990854 L 23.694831 92.137784 L 23.557033 91.337881 L 24.86974 90.849722 L 24.521619 89.356247 L 25.256542 88.860838 L 25.996299 89.155667 L 25.711033 90.083651 L 27.521747 90.832806 L 27.516912 92.263449 L 28.450071 93.848756 L 29.535532 94.092836 L 29.678165 96.816374 L 29.262354 97.166785 L 28.493586 96.681043 L 27.869869 97.343199 L 28.070522 98.790759 L 27.468562 99.648661 L 28.708744 100.388149 L 29.472677 101.900958 L 29.308286 102.676695 L 28.404138 102.464032 L 28.355788 103.570847 L 27.780421 103.131021 L 26.774737 103.822176 L 26.441121 104.525415 L 27.062421 105.011157 L 27.028576 105.842476 L 26.02531 105.356734 L 25.846414 106.221887 L 25.014791 106.746295 L 26.458044 108.4621 L 30.3043 107.195788 L 32.083586 108.367852 L 32.823344 111.429718 L 33.389041 112.509951 L 34.104623 112.638032 L 32.557418 114.032426 L 33.372118 116.183224 L 33.630792 118.827014 L 34.46725 119.129092 L 33.729909 121.299223 L 34.220664 121.886463 L 32.958724 123.073027 L 32.552583 125.704734 L 30.923182 128.343691 L 27.072091 126.543304 L 26.201788 127.021796 L 25.273464 126.391056 L 23.719006 126.809133 L 21.84302 125.77965 L 21.403033 124.378006 L 20.651188 124.462588 L 20.743053 124.083177 L 19.715612 124.585836 L 18.775201 123.010195 L 20.012966 121.91063 L 20.211201 120.417154 L 18.789706 120.032911 L 18.28203 119.158092 L 18.973437 118.336438 L 18.492353 116.17114 L 17.80578 116.540884 L 15.405194 115.066742 L 14.278635 115.16824 L 9.98514 117.471286 L 7.04545 116.82363 L 6.757766 116.412803 L 7.698177 114.494001 L 8.812648 113.413769 L 8.962534 111.688297 L 7.700594 111.668964 L 6.815786 110.871477 L 6.310527 111.12039 L 5.167045 109.899993 L 5.02683 108.897093 L 4.436958 108.824594 L 3.585995 106.702796 L 3.984884 104.518165 L 4.623106 104.230586 L 4.436958 103.176937 L 5.769005 102.538947 L 6.163059 101.475631 L 6.815786 101.801876 Z M 7.371813 101.432132 " stroke="rgb(100%, 100%, 100%)" stroke-width="0.5" stroke-opacity="1" stroke-miterlimit="4"/><path stroke-linecap="butt" transform="matrix(1.615816, 0, 0, 1.616406, 57.572878, 0.0718563)" fill-opacity="1" fill="rgb(17.248535%, 44.309998%, 94.119263%)" fill-rule="nonzero" stroke-linejoin="miter" d="M 7.04545 116.82363 L 9.98514 117.471286 L 14.281053 115.16824 L 15.405194 115.066742 L 17.80578 116.540884 L 18.492353 116.17114 L 18.975854 118.336438 L 18.28203 119.158092 L 18.789706 120.032911 L 20.211201 120.417154 L 20.012966 121.91063 L 18.777619 123.010195 L 19.715612 124.585836 L 18.823551 125.436489 L 17.05877 125.32774 L 16.297255 124.636585 L 15.750898 125.467905 L 15.47772 123.940596 L 14.085235 123.297774 L 12.958676 123.503187 L 12.92483 124.677668 L 11.677396 124.457755 L 10.787753 122.181292 L 9.460541 120.861814 L 9.893275 120.49207 L 9.107584 119.769498 L 9.26714 119.320006 L 7.676419 118.307439 L 6.883476 118.418604 Z M 7.04545 116.82363 " stroke="rgb(100%, 100%, 100%)" stroke-width="0.5" stroke-opacity="1" stroke-miterlimit="4"/><g clip-path="url(#id4)"><path fill="rgb(17.248535%, 44.309998%, 94.119263%)" d="M 191.886719 138.855469 L 190.074219 137.117188 L 190.160156 133.945312 L 189.0625 131.171875 L 190.085938 130.890625 L 189.089844 126.457031 L 190.296875 125.5 L 190.839844 123.085938 L 194.835938 122.464844 L 195.199219 121.554688 L 196.105469 122.035156 L 199.015625 120.988281 L 198.671875 121.511719 L 200.386719 119.699219 L 202.050781 120.277344 L 203.578125 119.023438 L 205.621094 120.582031 L 206.398438 119.546875 L 207.933594 120.308594 L 210.183594 122.070312 L 209.820312 122.898438 L 211.148438 124.398438 L 210.472656 127.601562 L 211.292969 128.660156 L 212.386719 129.039062 L 213.5625 127.308594 L 214.699219 127.691406 L 215.140625 126.753906 L 218.136719 129.539062 L 222.925781 129.773438 L 226.796875 128.636719 L 227.617188 129.417969 L 228.949219 127.03125 L 228.351562 126.007812 L 229.492188 125.96875 L 230.523438 123.753906 L 234.597656 125.089844 L 235.742188 123.800781 L 239.476562 122.519531 L 240.46875 123.53125 L 241.800781 123.429688 L 242.167969 121.941406 L 242.859375 122.464844 L 242.984375 124.324219 L 247.460938 126.210938 L 248.019531 130.453125 L 249.359375 132.753906 L 248.015625 139.273438 L 244.230469 147.722656 L 240.554688 146.492188 L 241.1875 144.074219 L 239.429688 144.5 L 240.113281 142.269531 L 238.027344 141.082031 L 238.089844 140.277344 L 237.898438 141.042969 L 236.183594 141.195312 L 233.953125 139.996094 L 233.066406 142.234375 L 234.425781 142.320312 L 234.125 143.3125 L 235.921875 143.921875 L 235.710938 145.179688 L 233.207031 145.28125 L 229.253906 148.007812 L 225.574219 148.621094 L 225.53125 150.222656 L 224.664062 150.78125 L 217.792969 151.503906 L 217.753906 153.671875 L 216.546875 154.847656 L 214.574219 153.324219 L 213.546875 155.621094 L 211.972656 155.214844 L 210.890625 158.109375 L 207.492188 157.902344 L 207.257812 159.90625 L 205.722656 161.386719 L 203.058594 159.542969 L 202.867188 160.46875 L 202.554688 159.886719 L 201.308594 160.433594 L 200.707031 161.582031 L 200.007812 160.945312 L 196.671875 161.59375 L 192.886719 166.652344 L 193.011719 168.890625 L 192.035156 168.757812 L 192.113281 167.328125 L 190.984375 166.511719 L 191.304688 165.703125 L 190.179688 165.644531 L 189.839844 164.027344 L 188.101562 164.160156 L 185.53125 163.097656 L 185.652344 161.871094 L 184.410156 160.726562 L 183.820312 159.910156 L 184.949219 159.742188 L 185.289062 158.660156 L 183.300781 156.996094 L 186.03125 153.84375 L 187.175781 156.566406 L 187.671875 155.734375 L 189.398438 155.71875 L 189.117188 153.992188 L 189.964844 154.523438 L 190.164062 153.699219 L 191.488281 153.976562 L 192.601562 152.882812 L 191.449219 151.863281 L 191.53125 150.453125 L 190.703125 150.421875 L 192.019531 148.957031 L 191.214844 147.71875 L 193.222656 147.632812 L 193.785156 146.625 L 195.175781 146.980469 L 196.058594 145.285156 L 199.617188 144.46875 L 198.652344 141.9375 L 196.554688 141.257812 L 196.472656 139.742188 L 193.011719 138.417969 Z M 191.886719 138.855469 " fill-opacity="1" fill-rule="nonzero"/></g><g clip-path="url(#id5)"><path stroke-linecap="butt" transform="matrix(1.615816, 0, 0, 1.616406, 57.572878, 0.0718563)" fill="none" stroke-linejoin="miter" d="M 83.124445 85.859387 L 82.002721 84.783988 L 82.055906 82.821687 L 81.376586 81.105882 L 82.009974 80.931885 L 81.393509 78.189013 L 82.140519 77.59694 L 82.476553 76.103464 L 84.949664 75.71922 L 85.174492 75.156146 L 85.735354 75.453391 L 87.536398 74.805735 L 87.323657 75.129563 L 88.384944 74.008248 L 89.414802 74.365909 L 90.360048 73.590172 L 91.624405 74.554406 L 92.105489 73.914 L 93.05557 74.385242 L 94.448055 75.475141 L 94.223227 75.987466 L 95.04518 76.915451 L 94.626951 78.897085 L 95.134628 79.551991 L 95.81153 79.786404 L 96.5392 78.715838 L 97.242695 78.952667 L 97.515874 78.372677 L 99.370103 80.095732 L 102.333968 80.24073 L 104.729719 79.537491 L 105.237396 80.020816 L 106.061767 78.544257 L 105.691888 77.911101 L 106.3978 77.886935 L 107.036023 76.516707 L 109.557484 77.343194 L 110.265814 76.545707 L 112.576952 75.753053 L 113.190999 76.378959 L 114.01537 76.316127 L 114.242616 75.395392 L 114.670515 75.71922 L 114.747875 76.869535 L 117.51834 78.036766 L 117.864044 80.661223 L 118.693249 82.084616 L 117.861626 86.117966 L 115.51906 91.345131 L 113.244185 90.583893 L 113.635821 89.088001 L 112.547942 89.351413 L 112.971006 87.971519 L 111.680057 87.236865 L 111.718737 86.73904 L 111.600279 87.212699 L 110.538993 87.306947 L 109.158595 86.565042 L 108.609821 87.94977 L 109.451114 88.002936 L 109.264965 88.616759 L 110.377019 88.993753 L 110.246474 89.771907 L 108.696851 89.834739 L 106.250332 91.521545 L 103.973039 91.900955 L 103.946447 92.891772 L 103.40976 93.23735 L 99.157362 93.684426 L 99.133187 95.025654 L 98.386177 95.753059 L 97.165335 94.810574 L 96.52953 96.231551 L 95.555274 95.980221 L 94.885624 97.770942 L 92.782392 97.642861 L 92.637341 98.882591 L 91.68726 99.798492 L 90.03852 98.657844 L 89.920062 99.230585 L 89.726661 98.870507 L 88.955476 99.208835 L 88.583179 99.919324 L 88.150445 99.525413 L 86.085893 99.926573 L 83.743327 103.056105 L 83.820688 104.440833 L 83.21631 104.358667 L 83.264661 103.474182 L 82.566001 102.969107 L 82.764236 102.468865 L 82.067994 102.432616 L 81.857671 101.432132 L 80.781879 101.514297 L 79.191159 100.856975 L 79.266101 100.098154 L 78.497334 99.390082 L 78.13229 98.885007 L 78.83095 98.781092 L 79.041273 98.111687 L 77.810761 97.082203 L 79.5006 95.131985 L 80.20893 96.816374 L 80.515953 96.301633 L 81.584492 96.291966 L 81.410431 95.223817 L 81.935031 95.552478 L 82.058324 95.04257 L 82.877859 95.214151 L 83.566849 94.537495 L 82.853684 93.906755 L 82.904452 93.034353 L 82.39194 93.01502 L 83.20664 92.108785 L 82.708634 91.342714 L 83.951233 91.289548 L 84.299354 90.666059 L 85.159987 90.885972 L 85.706344 89.837156 L 87.908695 89.33208 L 87.31157 87.766106 L 86.013368 87.345613 L 85.9626 86.407962 L 83.820688 85.588725 Z M 83.124445 85.859387 " stroke="rgb(100%, 100%, 100%)" stroke-width="0.5" stroke-opacity="1" stroke-miterlimit="4"/></g><path stroke-linecap="butt" transform="matrix(1.615816, 0, 0, 1.616406, 57.572878, 0.0718563)" fill-opacity="1" fill="rgb(17.248535%, 44.309998%, 94.119263%)" fill-rule="nonzero" stroke-linejoin="miter" d="M 74.307791 45.136805 L 74.817886 45.088472 L 74.63899 45.65638 L 75.291717 45.731295 L 75.514128 46.391034 L 76.128175 46.142122 L 77.440882 46.927526 L 77.315172 47.841011 L 79.205664 48.565999 L 81.067145 48.176922 L 81.09132 49.037241 L 81.980963 48.50075 L 82.48864 48.853577 L 82.800499 50.052224 L 82.041401 51.896111 L 82.437873 53.783497 L 81.669105 53.868078 L 81.335489 55.883545 L 81.930196 55.835213 L 81.874593 56.61095 L 82.609516 56.074459 L 83.75058 57.007277 L 83.010822 58.338839 L 83.445974 59.779148 L 82.650613 61.760782 L 83.317846 62.263441 L 82.297657 63.500754 L 85.08988 66.690702 L 85.662829 66.337874 L 86.443684 67.331108 L 87.376843 67.403607 L 88.13594 66.780117 L 89.535678 67.807183 L 90.374553 67.700852 L 90.468836 68.382341 L 91.832311 68.382341 L 92.030547 69.129078 L 92.963705 69.119412 L 92.91052 69.718735 L 94.167624 69.539905 L 94.769584 72.925599 L 93.05557 74.385242 L 92.105489 73.914 L 91.624405 74.554406 L 90.360048 73.590172 L 89.414802 74.365909 L 88.384944 74.008248 L 87.323657 75.129563 L 87.536398 74.805735 L 85.735354 75.453391 L 85.174492 75.156146 L 84.952082 75.71922 L 82.476553 76.103464 L 82.140519 77.59694 L 81.393509 78.189013 L 82.009974 80.931885 L 81.376586 81.105882 L 82.055906 82.821687 L 82.002721 84.783988 L 83.124445 85.859387 L 82.696546 86.922703 L 83.22598 87.285197 L 82.256559 88.943004 L 81.855253 88.193849 L 79.708505 88.367846 L 78.079105 86.577126 L 76.379596 86.838121 L 75.219192 85.426811 L 72.854869 85.600808 L 72.661468 83.754505 L 71.327003 83.176931 L 72.738828 81.627873 L 71.716222 79.870986 L 70.717791 79.266829 L 66.491986 79.112165 L 65.894861 76.639955 L 65.121259 75.798969 L 65.227629 75.313227 L 65.682121 75.530723 L 65.57575 74.979732 L 62.735178 74.484324 L 61.110612 70.968132 L 61.154127 70.187561 L 62.08245 69.310325 L 61.608619 68.321925 L 62.096955 67.918348 L 60.953474 66.939614 L 62.73276 65.992296 L 66.153535 65.847299 L 65.863434 64.880648 L 67.171306 64.230575 L 67.367124 63.418589 L 66.765164 62.886931 L 67.693488 62.248941 L 66.380781 59.883063 L 67.560525 59.184658 L 65.747393 57.374604 L 65.890026 56.678616 L 66.704727 56.642366 L 65.790908 55.115058 L 66.288915 53.926078 L 65.558828 54.223323 L 64.388753 51.956527 L 63.997117 52.009692 L 63.598228 49.27407 L 65.824754 49.049324 L 66.666047 47.802345 L 70.630761 48.508 L 73.067609 47.174022 L 73.157057 45.782044 L 73.761434 45.922209 Z M 74.307791 45.136805 " stroke="rgb(100%, 100%, 100%)" stroke-width="0.5" stroke-opacity="1" stroke-miterlimit="4"/><path fill="rgb(17.248535%, 44.309998%, 94.119263%)" d="M 112.746094 23.234375 L 113.515625 24.035156 L 112.882812 24.582031 L 112.007812 23.179688 Z M 166.871094 20.453125 L 169.945312 21.414062 L 171.699219 25.054688 L 169.148438 24.339844 L 167.683594 25.039062 L 166.984375 23.421875 L 165.644531 23.585938 L 166.160156 24.109375 L 165.339844 23.617188 L 165.765625 21.230469 Z M 112.925781 20.359375 L 112.628906 21.757812 L 112.246094 20.042969 Z M 117.375 19.488281 L 117.320312 21.53125 L 115.558594 21.902344 L 114.957031 20.429688 Z M 114.257812 18.742188 L 114.671875 19.46875 L 113.300781 18.804688 Z M 110.667969 16.566406 L 110.976562 17.449219 L 110.1875 17.597656 L 108.730469 15.570312 L 110.191406 13.886719 L 109.746094 14.78125 Z M 113.636719 12.367188 L 114.914062 12.746094 L 114.503906 15.128906 L 111.003906 14.339844 L 111.597656 12.695312 Z M 111.816406 1.710938 L 112.394531 1.90625 L 110.945312 1.953125 L 111.863281 3.023438 L 110.046875 4.726562 L 110.410156 7.203125 L 111.582031 7.964844 L 115.199219 7.621094 L 115.914062 6.753906 L 122.402344 7.066406 L 128.402344 8.945312 L 128.695312 10.402344 L 129.628906 10.71875 L 130.660156 10.765625 L 132.027344 9.261719 L 132.59375 11.183594 L 136.277344 8.011719 L 136.121094 9.667969 L 140.050781 10.902344 L 141.308594 12.472656 L 142.402344 12.101562 L 142.398438 10.886719 L 143.464844 11.527344 L 145.144531 14.886719 L 144.328125 14.855469 L 145.097656 15.46875 L 144.9375 19.726562 L 143.628906 21.4375 L 140.902344 22.484375 L 141.578125 23.421875 L 146.992188 22.109375 L 148.542969 23.15625 L 147.148438 28.304688 L 148.21875 27.726562 L 149.097656 24.644531 L 151.125 23.871094 L 156.859375 26.433594 L 159.015625 28.535156 L 160.808594 28.257812 L 163.746094 25.78125 L 165.707031 26.273438 L 167.523438 25.207031 L 167.800781 26.128906 L 166.371094 26.816406 L 167.117188 32.351562 L 162.480469 36.351562 L 161.210938 35.59375 L 160.003906 37.644531 L 160.695312 39.414062 L 162.472656 39.644531 L 163.167969 40.890625 L 162.949219 42.078125 L 164.449219 42.609375 L 163.324219 42.945312 L 162.683594 42.007812 L 160.417969 43.84375 L 160.140625 48.101562 L 162.050781 49.851562 L 163.566406 49.945312 L 164.171875 51.734375 L 163.308594 54.445312 L 161.472656 54.324219 L 161.527344 56.464844 L 157.523438 58.542969 L 156.734375 61.667969 L 150.761719 59.25 L 151.132812 58.710938 L 148.734375 56.199219 L 147.703125 56.140625 L 147.472656 54.363281 L 148.476562 53.921875 L 148.953125 52.238281 L 147.332031 50.695312 L 148.351562 49.085938 L 147.851562 48.570312 L 146.019531 49.210938 L 145.691406 50.699219 L 144.304688 50.585938 L 143.890625 51.804688 L 142.382812 51.59375 L 140.917969 53.898438 L 139.566406 52.308594 L 138.714844 54.9375 L 134.960938 52.824219 L 134.035156 50.128906 L 130.046875 44.53125 L 127.867188 43.605469 L 123.601562 43.789062 L 121.550781 41.664062 L 121.0625 39.253906 L 119.457031 38.503906 L 121.007812 37.742188 L 122.644531 38.128906 L 123.203125 37.351562 L 122.011719 34.738281 L 120.550781 35.160156 L 119.53125 33.308594 L 120.167969 29.34375 L 117.464844 29.132812 L 116.800781 29.929688 L 114.765625 28.425781 L 115.324219 26.773438 L 116.03125 27.300781 L 117.042969 26.660156 L 115.296875 26.210938 L 115.558594 25.519531 L 120.832031 24.859375 L 124.554688 22.425781 L 123.5625 22.296875 L 123.175781 20.859375 L 121.367188 23.023438 L 119.46875 22.640625 L 121.277344 18.25 L 121.007812 17.648438 L 119.628906 18.089844 L 120.503906 17.34375 L 117.097656 13.515625 L 115.148438 7.808594 L 111.304688 9.121094 L 109.765625 7.949219 L 108.53125 12.597656 L 108.871094 6.808594 L 110.910156 1.6875 Z M 111.816406 1.710938 " fill-opacity="1" fill-rule="nonzero"/><g clip-path="url(#id6)"><path stroke-linecap="butt" transform="matrix(1.615816, 0, 0, 1.616406, 57.572878, 0.0718563)" fill="none" stroke-linejoin="miter" d="M 34.145721 14.329643 L 34.62197 14.825052 L 34.230334 15.16338 L 33.688812 14.295811 Z M 67.64272 12.609005 L 69.545299 13.203495 L 70.630761 15.455792 L 69.052128 15.013549 L 68.145562 15.446125 L 67.712828 14.445641 L 66.883622 14.54714 L 67.202733 14.870968 L 66.695057 14.566473 L 66.958565 13.089914 Z M 34.256926 12.551006 L 34.073196 13.416158 L 33.83628 12.355259 Z M 37.010469 12.012098 L 36.976623 13.275994 L 35.886327 13.505573 L 35.514031 12.594505 Z M 35.081297 11.550522 L 35.337553 12.000015 L 34.489007 11.589188 Z M 32.859606 10.204461 L 33.05059 10.750619 L 32.562253 10.84245 L 31.660522 9.588221 L 32.56467 8.546655 L 32.289074 9.100062 Z M 34.696913 7.606587 L 35.487438 7.841 L 35.2336 9.315142 L 33.067512 8.826984 L 33.434973 7.809584 Z M 33.570354 1.014028 L 33.928145 1.13486 L 33.031249 1.163859 L 33.599364 1.826015 L 32.475222 2.879664 L 32.700051 4.411806 L 33.425303 4.883048 L 35.663916 4.670385 L 36.10632 4.133894 L 40.121802 4.327224 L 43.835095 5.489622 L 44.016409 6.391023 L 44.594193 6.58677 L 45.232415 6.61577 L 46.078543 5.685368 L 46.429082 6.874349 L 48.708793 4.912048 L 48.612092 5.936698 L 51.044106 6.700352 L 51.822544 7.671836 L 52.499446 7.442256 L 52.497029 6.690685 L 53.157008 7.087012 L 54.196537 9.165311 L 53.691278 9.145978 L 54.167527 9.525389 L 54.068409 12.159512 L 53.258544 13.217995 L 51.571123 13.865651 L 51.989352 14.445641 L 55.340019 13.633655 L 56.29977 14.281311 L 55.436719 17.466425 L 56.099116 17.108764 L 56.643056 15.202046 L 57.897743 14.723554 L 61.446645 16.308861 L 62.78111 17.609006 L 63.890747 17.437426 L 65.708713 15.905284 L 66.922302 16.209779 L 68.046444 15.55004 L 68.218087 16.120364 L 67.333279 16.54569 L 67.795023 19.970051 L 64.92544 22.444677 L 64.13975 21.975851 L 63.39274 23.244581 L 63.820639 24.339313 L 64.920605 24.481894 L 65.350922 25.252798 L 65.215541 25.987452 L 66.143865 26.316113 L 65.447622 26.523943 L 65.051151 25.943953 L 63.648996 27.079768 L 63.477353 29.713891 L 64.659514 30.79654 L 65.597508 30.854539 L 65.972222 31.961354 L 65.437952 33.638493 L 64.301723 33.563578 L 64.335568 34.88789 L 61.857622 36.173535 L 61.369285 38.106837 L 57.672915 36.610945 L 57.902578 36.27745 L 56.418228 34.723559 L 55.780005 34.68731 L 55.637372 33.587744 L 56.258672 33.314665 L 56.553608 32.273099 L 55.550342 31.318531 L 56.181312 30.322881 L 55.871871 30.003886 L 54.738059 30.400213 L 54.534988 31.320948 L 53.676773 31.250866 L 53.420517 32.004854 L 52.487359 31.874356 L 51.580793 33.300166 L 50.744335 32.316598 L 50.217318 33.942988 L 47.894092 32.635593 L 47.321143 30.968121 L 44.852866 27.505094 L 43.503897 26.932353 L 40.863977 27.045935 L 39.594785 25.73129 L 39.292597 24.240231 L 38.299001 23.776238 L 39.258752 23.304996 L 40.271688 23.544242 L 40.617391 23.063333 L 39.880051 21.44661 L 38.975903 21.707606 L 38.344933 20.562124 L 38.738987 18.109248 L 37.066071 17.97875 L 36.655095 18.471742 L 35.395573 17.541341 L 35.741277 16.519107 L 36.178846 16.845352 L 36.80498 16.449025 L 35.724354 16.171113 L 35.886327 15.74337 L 39.149964 15.33496 L 41.453849 13.829402 L 40.839802 13.749653 L 40.600469 12.860334 L 39.481162 14.199145 L 38.306253 13.962316 L 39.42556 11.246027 L 39.258752 10.873867 L 38.405371 11.146945 L 38.946893 10.68537 L 36.838825 8.317075 L 35.632489 4.786383 L 33.25366 5.59837 L 32.301162 4.873382 L 31.537229 7.749168 L 31.747552 4.167727 L 33.009492 0.999529 Z M 33.570354 1.014028 " stroke="rgb(100%, 100%, 100%)" stroke-width="0.5" stroke-opacity="1" stroke-miterlimit="4"/></g><path stroke-linecap="butt" transform="matrix(1.615816, 0, 0, 1.616406, 57.572878, 0.0718563)" fill-opacity="1" fill="rgb(17.248535%, 44.309998%, 94.119263%)" fill-rule="nonzero" stroke-linejoin="miter" d="M 62.735178 74.484324 L 65.57575 74.979732 L 65.682121 75.530723 L 65.227629 75.313227 L 65.121259 75.798969 L 65.894861 76.639955 L 66.491986 79.112165 L 70.717791 79.266829 L 71.716222 79.870986 L 72.738828 81.627873 L 71.327003 83.176931 L 72.661468 83.754505 L 72.854869 85.600808 L 75.219192 85.426811 L 76.379596 86.838121 L 78.079105 86.577126 L 79.708505 88.367846 L 81.855253 88.193849 L 82.256559 88.943004 L 83.22598 87.285197 L 82.696546 86.922703 L 83.124445 85.859387 L 83.820688 85.588725 L 85.9626 86.407962 L 86.013368 87.345613 L 87.309152 87.766106 L 87.908695 89.33208 L 85.706344 89.837156 L 85.159987 90.885972 L 84.299354 90.666059 L 83.951233 91.289548 L 82.708634 91.342714 L 83.20664 92.108785 L 82.39194 93.01502 L 82.904452 93.034353 L 82.853684 93.906755 L 83.566849 94.537495 L 82.877859 95.214151 L 82.058324 95.04257 L 81.935031 95.552478 L 81.410431 95.223817 L 81.584492 96.291966 L 80.513536 96.301633 L 80.20893 96.816374 L 79.5006 95.131985 L 77.810761 97.082203 L 79.041273 98.111687 L 78.83095 98.781092 L 78.13229 98.885007 L 78.497334 99.390082 L 77.228142 100.073988 L 76.640687 99.467414 L 73.323865 100.368816 L 72.818606 99.249918 L 72.303677 99.457748 L 72.013576 98.962339 L 72.148956 97.609028 L 71.051407 97.418115 L 70.343077 98.329183 L 69.78705 98.263934 L 70.260882 100.658811 L 69.832983 102.507531 L 68.47676 102.161953 L 68.629064 101.260552 L 68.080289 100.533147 L 66.400121 100.914974 L 65.769151 100.015989 L 64.434686 100.013572 L 62.904403 100.948807 L 62.935831 101.453882 L 64.603912 102.369783 L 64.618417 102.990857 L 63.136484 102.850692 L 62.945501 103.788343 L 61.536093 103.276019 L 61.436975 101.197719 L 60.72381 100.586313 L 60.042073 100.762726 L 59.536814 99.825075 L 58.801891 99.984573 L 57.965433 97.966689 L 56.701076 97.621111 L 56.336032 96.748709 L 55.547924 96.978288 L 55.10552 96.555379 L 54.247305 97.512363 L 54.186867 95.600811 L 54.769487 95.359148 L 54.402025 94.377998 L 53.108658 94.452913 L 53.188436 95.218984 L 52.112645 94.999071 L 53.098988 91.330631 L 54.058739 91.057552 L 54.486638 90.078818 L 53.862921 89.276498 L 53.343157 89.559243 L 53.551062 89.075918 L 53.067561 88.860838 L 54.522901 88.810089 L 53.959621 88.060935 L 54.21346 87.415695 L 56.343285 87.522027 L 56.355372 86.961369 L 55.523749 86.465961 L 55.954066 85.303563 L 55.245736 84.834738 L 55.840443 84.551992 L 56.265925 85.376062 L 56.756679 83.88017 L 54.588174 83.0416 L 54.418948 81.973451 L 53.345574 81.85262 L 52.77746 79.986984 L 54.302908 78.708588 L 54.585756 79.102498 L 55.68814 78.827003 L 56.311857 77.700854 L 56.713164 78.019849 L 57.554457 77.541357 L 58.47311 75.605639 L 59.282975 75.508974 L 60.390194 76.299211 L 61.511918 75.769969 L 62.164646 76.204962 L 61.932565 74.93865 Z M 62.735178 74.484324 " stroke="rgb(100%, 100%, 100%)" stroke-width="0.5" stroke-opacity="1" stroke-miterlimit="4"/></svg>