<svg width="460" height="240" viewBox="0 0 460 240" fill="none" xmlns="http://www.w3.org/2000/svg">
<g clip-path="url(#clip0_1227_1325)">
<path d="M290.208 195.987C288.304 194.569 286.226 193.4 284.025 192.51C281.926 191.625 279.778 190.861 277.591 190.222C266.505 186.91 250.611 184.812 232.998 184.812C227.762 184.812 222.677 184.998 217.823 185.342C216.02 185.468 214.262 185.617 212.549 185.79C210.261 186.016 208.039 186.274 205.883 186.563C190.101 188.746 178.231 192.745 174.05 197.583C172.979 198.82 172.407 200.107 172.407 201.428C172.407 208.72 189.665 214.953 213.546 217.175C215.826 217.389 218.165 217.564 220.563 217.701C224.578 217.932 228.74 218.056 232.998 218.056C253.587 218.056 271.834 215.212 282.789 210.884C289.593 208.179 293.589 204.933 293.589 201.428C293.589 199.543 292.395 197.703 290.208 195.987Z" fill="#01090F" stroke="#01090F" stroke-width="1.25" stroke-linecap="round" stroke-linejoin="round"/>
<path d="M207.923 28.4813C207.772 31.6693 211.061 31.6694 211.98 30.2705C212.9 28.8717 212.29 26.9434 213.14 25.7494C213.708 24.9181 214.38 24.1635 215.141 23.5043C213.909 23.7361 212.684 23.9873 211.47 24.2771C211.288 24.4677 211.09 24.6434 210.879 24.8026C210.346 25.1774 208.043 25.9464 207.923 28.4813Z" fill="#FCEE70" stroke="#01090F" stroke-width="1.25" stroke-linecap="round" stroke-linejoin="round"/>
<path d="M200.5 202.074C198.726 200.203 196.365 197.943 197.281 195.535C197.95 193.785 200.164 192.931 200.651 191.122C201.423 188.302 197.644 186.485 196.419 183.838C195.194 181.191 196.755 178.042 198.062 175.384C199.368 172.725 200.283 169.12 198.139 167.056C195.515 164.529 190.681 166.6 187.787 164.39C185.387 162.554 185.65 158.891 184.309 156.182C182.23 151.982 176.101 149.559 176.673 144.906C177.013 142.109 179.734 140.354 181.967 138.635C184.201 136.915 186.345 134.033 185.086 131.509C183.258 127.834 179.722 130.52 176.623 127.83C173.98 125.535 174.281 120.438 170.958 119.329C169.412 118.823 167.782 119.484 166.19 119.77C164.597 120.056 162.553 119.673 162.078 118.127C161.773 117.115 162.291 116.01 162.078 114.974C161.692 113.042 159.172 112.435 157.24 112.802C155.308 113.17 153.418 113.811 151.444 113.622C147.436 113.235 144.913 109.394 144.527 106.755C144.14 104.116 144.31 101.314 143.155 98.9106C142.791 98.1866 142.279 97.5474 141.652 97.0347C141.025 96.522 140.297 96.1474 139.515 95.9352C137.849 103.102 137.01 110.437 137.015 117.795C137.015 159.691 163.863 195.307 201.288 208.399C203.197 207.19 202.177 203.84 200.5 202.074Z" fill="#FCEE70" stroke="#01090F" stroke-width="1.25" stroke-linecap="round" stroke-linejoin="round"/>
<path d="M193.776 33.9105C196.867 33.7405 197.323 31.3408 200.473 31.4142C204.395 31.5031 203.494 28.3228 201.245 27.2177C197.545 28.5183 193.928 30.045 190.414 31.7891C190.685 32.8169 191.457 34.0419 193.776 33.9105Z" fill="#FCEE70" stroke="#01090F" stroke-width="1.25" stroke-linecap="round" stroke-linejoin="round"/>
<path d="M216.012 205.007L230.016 192.39C232.114 190.5 234.417 187.946 233.618 185.241C233.092 183.479 231.326 182.204 231.125 180.376C230.816 177.578 234.217 175.901 237.037 175.7C239.858 175.499 243.096 175.735 244.994 173.652C247.838 170.522 244.994 165.507 245.767 161.345C246.35 158.149 249.086 155.576 249.291 152.334C249.6 147.403 244.163 144.219 239.391 142.955C234.618 141.691 229.019 140.637 226.681 136.266C225.472 134.009 225.035 130.825 222.589 130.083C221.043 129.604 219.312 130.42 217.755 129.964C214.316 128.951 214.582 123.058 211.186 121.895C208.094 120.832 204.98 124.786 201.823 123.897C199.002 123.124 198.144 118.954 195.288 118.298C191.718 117.482 187.622 125.489 182.49 124.341C177.95 123.329 179.951 117.243 177.853 114.681C175.755 112.119 171.724 113.521 172.207 110.098C172.555 107.621 174.14 103.942 171.643 103.586C168.938 103.2 167.621 108.119 162.756 109.035C160.765 109.421 157.377 108.56 157.013 103.096C156.723 98.7523 160.197 93.5859 167.478 92.5039C177.911 90.9582 177.2 95.7382 180.546 96.9168C183.893 98.0954 185.129 97.3766 186.841 94.2698C188.426 91.3871 186.942 87.2872 189.133 84.8373C190.354 83.4732 192.321 83.1215 193.893 82.1825C198.53 79.4196 199.091 72.0931 204.014 69.8712C206.649 68.681 209.694 69.0674 212.585 68.8896C215.475 68.7119 218.767 67.0117 216.897 62.931C216.395 61.8336 215.058 61.2887 214.579 60.1835C213.211 57.0922 217.991 54.6307 219.656 57.8882C223.045 64.527 226.349 57.0535 227.771 59.1209C228.973 60.8752 226.469 62.9581 227.771 64.7666C228.374 65.6012 229.881 65.3075 231.249 65.5394C232.756 65.7828 234.139 66.4668 234.958 65.7133C236.504 64.2719 236.268 62.3166 233.591 61.1573C232.957 60.883 231.624 60.5004 231.38 59.8551C230.584 57.7181 234.201 57.5674 234.472 55.7049C234.904 52.5671 232.176 52.2812 231.044 50.778C229.556 48.8111 229.989 44.9818 227.52 45.7353C225.051 46.4888 223.489 48.2122 221.812 46.2492C220.964 45.1873 220.31 43.9838 219.88 42.6941C218.431 38.7835 211.843 39.5061 211.166 43.2003C210.096 49.043 208.921 50.4882 205.733 51.8407C202.893 53.0463 203.028 58.3828 200.184 57.2004C198.731 56.5976 199.941 52.9999 197.333 50.8785C195.922 49.7192 193.306 50.5346 191.923 49.356C188.928 46.7979 191.366 42.8332 193.333 42.2961C198.221 40.9552 197.97 38.4319 201.189 37.9488C203.94 37.5624 205.374 40.5224 207.225 39.9659C209.246 39.3593 209.323 36.1867 210.942 35.1473C213.261 33.6634 214.374 35.1473 217.589 31.6695C219.451 29.6524 226.144 30.7885 226.09 33.5321C226.051 35.3135 220.491 35.5222 220.174 37.632C220.004 38.7681 222.326 38.8415 224.448 39.2666C225.762 39.5294 227.184 40.5958 228.08 40.5494C229.958 40.449 229.417 38.1962 231.253 37.8948C234.155 37.4195 237.049 37.0485 236.898 34.359C236.763 32.0829 233.961 33.9301 233.521 30.4562C233.135 27.5541 227.825 26.3176 226.249 24.6598C225.309 23.6901 224.188 22.9153 222.948 22.3799C220.318 22.6555 217.72 23.0356 215.154 23.5199C214.393 24.1791 213.721 24.9337 213.153 25.7649C212.314 26.959 212.921 28.8834 211.993 30.2862C211.066 31.6889 207.785 31.6849 207.936 28.497C208.056 25.962 210.359 25.193 210.881 24.8066C211.091 24.6474 211.289 24.4718 211.472 24.2811C208.02 25.0757 204.616 26.0613 201.274 27.2334C203.511 28.3385 204.412 31.5188 200.501 31.4299C197.352 31.3565 196.877 33.7485 193.805 33.9262C191.486 34.0576 190.713 32.8326 190.439 31.8048C177.761 38.0944 166.628 47.1049 157.833 58.193C149.039 69.2812 142.8 82.1738 139.562 95.9508C140.344 96.1629 141.073 96.5376 141.7 97.0503C142.327 97.563 142.839 98.2022 143.203 98.9262C144.362 101.33 144.184 104.131 144.574 106.771C144.965 109.41 147.484 113.251 151.491 113.637C153.45 113.827 155.356 113.185 157.288 112.818C159.22 112.451 161.751 113.058 162.126 114.99C162.327 116.025 161.809 117.131 162.126 118.143C162.601 119.689 164.645 120.075 166.237 119.785C167.829 119.495 169.472 118.839 171.006 119.345C174.329 120.438 174.027 125.527 176.671 127.846C179.762 130.551 183.305 127.846 185.133 131.525C186.393 134.048 184.248 136.935 182.015 138.65C179.781 140.366 177.061 142.128 176.721 144.922C176.149 149.559 182.278 151.997 184.357 156.198C185.701 158.903 185.438 162.57 187.834 164.405C190.729 166.616 195.563 164.544 198.187 167.072C200.331 169.135 199.419 172.721 198.109 175.399C196.799 178.077 195.215 181.153 196.467 183.854C197.719 186.555 201.46 188.317 200.698 191.138C200.211 192.947 197.993 193.8 197.329 195.551C196.413 197.958 198.774 200.219 200.548 202.089C202.225 203.855 203.253 207.205 201.359 208.43C204.901 209.674 208.514 210.706 212.179 211.522C212.051 209.157 214.099 206.734 216.012 205.007Z" fill="#FF6201" stroke="#01090F" stroke-width="1.25" stroke-linecap="round" stroke-linejoin="round"/>
<path d="M323.51 85.8071C322.822 85.8629 322.158 86.0888 321.579 86.4645C320.999 86.8402 320.522 87.3539 320.191 87.9595C319.897 88.5391 318.664 89.9572 317.942 89.9572C314.336 89.9572 315.67 87.8357 312.053 87.1093C310.321 86.7653 307.416 88.655 306.43 87.1711C305.851 86.3056 305.681 85.239 305.271 84.2885C303.826 81.0386 299.061 79.8871 296.291 82.1167C295.467 82.7814 294.826 83.6624 293.937 84.2382C290.189 86.661 285.374 82.2752 280.973 83.021C279.587 83.3028 278.349 84.0765 277.489 85.1994C276.629 86.3223 276.204 87.7185 276.293 89.1302C276.37 89.9572 276.633 90.7958 276.452 91.6073C276.158 92.9018 274.863 93.6901 273.646 94.2272C271.266 95.2821 269.249 95.3169 266.66 97.6509C264.728 99.3936 263.398 102.311 264.728 104.549C265.075 105.136 265.582 105.63 265.887 106.241C267.378 109.186 263.796 112.242 263.499 115.515C263.147 119.399 267.255 122.019 269.218 125.388C270.763 128.039 271.536 131.834 274.523 132.479C277.51 133.124 280.146 129.797 283.229 129.878C285.053 129.925 286.742 131.177 288.558 130.972C289.996 130.81 291.151 129.774 292.372 128.994C293.593 128.213 295.251 127.687 296.426 128.534C297.6 129.38 297.67 131.011 298.648 131.984C300.166 133.488 303.064 132.757 304.479 134.361C306.411 136.552 303.443 139.875 303.88 142.762C304.289 145.494 307.47 146.765 309.108 148.987C310.855 151.352 310.7 154.606 310.082 157.488C309.464 160.371 308.463 163.238 308.768 166.16C309.012 168.478 310.418 170.797 312.435 171.701C323.249 155.81 329.018 137.028 328.99 117.807C328.996 106.906 327.143 96.0843 323.51 85.8071Z" fill="#FF6201" stroke="#01090F" stroke-width="1.25" stroke-linecap="round" stroke-linejoin="round"/>
<path d="M297.573 54.7274C296.58 56.4276 296.383 59.0823 294.443 59.4301C293.827 59.4803 293.207 59.408 292.619 59.2175C290.969 58.8311 289.118 58.9007 287.742 59.8822C287.254 60.2324 286.866 60.7031 286.614 61.2482C286.362 61.7934 286.255 62.3944 286.305 62.9929C286.428 64.6777 287.769 65.0254 288.689 65.8524C289.272 66.374 289.67 67.286 289.226 67.9275C287.765 68.9206 285.81 68.7003 284.094 68.2675C282.243 67.8192 280.311 67.1972 278.483 67.8618C277.995 68.0422 277.557 68.3371 277.206 68.7217C276.855 69.1062 276.601 69.5693 276.466 70.0721C275.902 72.2284 277.981 72.5916 278.503 73.9633C279.191 75.7834 276.772 78.1252 278.116 79.5163C278.824 80.2466 280.048 79.9954 280.949 79.5163C281.849 79.0371 282.711 78.357 283.727 78.357C284.639 78.357 285.443 78.9173 286.27 79.3037C287.711 79.9761 289.481 80.1268 290.868 79.3424C292.46 78.4382 293.272 76.108 291.915 74.6589C291.551 74.3013 291.307 73.8396 291.216 73.3374C291.019 71.9385 292.337 71.6564 293.276 71.9424C293.979 72.1549 294.609 72.5954 295.335 72.7152C297.267 73.0746 298.813 71.2893 300.023 69.7514C300.65 68.9074 301.428 68.1869 302.318 67.6261C302.569 67.4877 302.848 67.411 303.135 67.4025C303.421 67.3939 303.705 67.4538 303.963 67.5769C304.222 67.7001 304.447 67.8831 304.62 68.1107C304.794 68.3383 304.911 68.604 304.961 68.8858C305.182 69.944 305.694 70.9195 306.439 71.702C307.185 72.4845 308.134 73.0429 309.181 73.3142C310.46 73.604 311.843 73.4379 312.968 74.3189C313.228 74.511 313.428 74.7734 313.544 75.0753C313.661 75.3771 313.689 75.7059 313.625 76.023C313.18 77.9551 309.818 77.1398 309.127 79.2149C308.667 80.5789 309.699 81.9546 311.121 82.1594C313.308 82.4763 315.02 80.6137 315.665 78.6197C316.353 76.5215 317.802 75.6598 318.911 75.0029C314.891 66.9615 309.765 59.5226 303.682 52.9034C301.688 51.8832 298.705 52.7759 297.573 54.7274Z" fill="#FF6201" stroke="#01090F" stroke-width="1.25" stroke-linecap="round" stroke-linejoin="round"/>
<path d="M318.922 75.0027C317.813 75.6596 316.364 76.5213 315.676 78.6196C315.031 80.598 313.319 82.4838 311.132 82.1592C309.71 81.9544 308.678 80.5787 309.138 79.2147C309.83 77.1396 313.192 77.9472 313.636 76.0228C313.7 75.7057 313.672 75.3769 313.556 75.0751C313.44 74.7732 313.239 74.5109 312.979 74.3187C311.855 73.4377 310.471 73.6038 309.192 73.314C308.146 73.0427 307.196 72.4843 306.451 71.7018C305.705 70.9193 305.193 69.9438 304.973 68.8856C304.922 68.6038 304.805 68.3381 304.632 68.1105C304.458 67.8829 304.233 67.6999 303.975 67.5767C303.716 67.4536 303.432 67.3937 303.146 67.4023C302.86 67.4108 302.58 67.4875 302.329 67.6259C301.44 68.1867 300.662 68.9072 300.034 69.7512C298.828 71.2969 297.263 73.0744 295.347 72.715C294.62 72.5798 293.99 72.1393 293.287 71.9422C292.348 71.6562 291.03 71.9422 291.228 73.3372C291.319 73.8394 291.563 74.3011 291.927 74.6587C293.283 76.1078 292.472 78.438 290.88 79.3422C289.493 80.1151 287.723 79.9759 286.281 79.3035C285.454 78.9171 284.651 78.3607 283.739 78.3568C282.722 78.3568 281.857 79.0408 280.96 79.5161C280.064 79.9914 278.835 80.2542 278.128 79.5161C276.772 78.125 279.191 75.7832 278.514 73.9632C277.993 72.5914 275.914 72.2282 276.478 70.072C276.613 69.5691 276.867 69.106 277.218 68.7215C277.569 68.3369 278.007 68.0421 278.495 67.8616C280.323 67.197 282.255 67.8191 284.106 68.2673C285.822 68.6885 287.777 68.9204 289.237 67.9273C289.682 67.2858 289.284 66.3816 288.7 65.8522C287.781 65.0252 286.44 64.6929 286.316 62.9927C286.267 62.3942 286.373 61.7932 286.625 61.248C286.877 60.7029 287.266 60.2322 287.754 59.882C289.129 58.9005 290.98 58.8464 292.63 59.2173C293.218 59.4078 293.838 59.4801 294.454 59.4299C296.386 59.0821 296.591 56.4274 297.584 54.7272C298.716 52.7757 301.7 51.883 303.705 52.9032C294.727 43.0989 283.805 35.2729 271.635 29.9237C259.466 24.5746 246.315 21.8197 233.021 21.8349C229.652 21.8354 226.286 22.0121 222.935 22.3643C224.175 22.8998 225.296 23.6745 226.235 24.6442C227.812 26.2942 233.137 27.5308 233.508 30.4405C233.948 33.9183 236.75 32.0674 236.885 34.3434C237.044 37.0484 234.141 37.4038 231.239 37.8791C229.404 38.1805 229.945 40.4333 228.067 40.5338C227.17 40.5802 225.748 39.5137 224.435 39.251C222.313 38.8259 219.991 38.7525 220.161 37.6164C220.478 35.5065 226.038 35.2978 226.077 33.5164C226.131 30.7728 219.438 29.6522 217.576 31.6538C214.361 35.1316 213.24 33.6516 210.929 35.1316C209.31 36.1711 209.233 39.3437 207.212 39.9504C205.361 40.5068 203.927 37.5352 201.176 37.9332C197.942 38.4046 198.208 40.9396 193.32 42.2804C191.353 42.8176 188.915 46.7823 191.909 49.3404C193.285 50.519 195.901 49.7269 197.319 50.8629C199.928 52.9844 198.718 56.5819 200.171 57.1848C203.023 58.3672 202.876 53.0308 205.72 51.8251C208.908 50.4727 210.083 49.0274 211.153 43.1847C211.829 39.4905 218.418 38.7679 219.867 42.6785C220.296 43.9681 220.951 45.1717 221.799 46.2335C223.476 48.1966 225.034 46.4693 227.507 45.7197C229.98 44.97 229.543 48.811 231.031 50.7625C232.163 52.2657 234.895 52.5516 234.458 55.6894C234.199 57.5519 230.594 57.7026 231.367 59.8395C231.61 60.4848 232.944 60.8673 233.577 61.1417C236.255 62.301 236.51 64.2563 234.945 65.6976C234.126 66.4705 232.743 65.7672 231.236 65.5238C229.868 65.3035 228.361 65.5972 227.758 64.7509C226.456 62.9425 228.96 60.8596 227.758 59.1053C226.343 57.0379 223.04 64.5152 219.643 57.8726C217.977 54.6151 213.197 57.0765 214.565 60.1679C215.052 61.2731 216.389 61.818 216.884 62.9154C218.766 66.996 215.435 68.7117 212.571 68.874C209.708 69.0363 206.636 68.6654 204.001 69.8555C199.078 72.0775 198.521 79.4041 193.88 82.167C192.307 83.106 190.341 83.4576 189.119 84.8216C186.928 87.2716 188.412 91.3715 186.828 94.2542C185.116 97.3455 183.88 98.0836 180.533 96.9012C177.187 95.7187 177.894 90.9387 167.464 92.4883C160.184 93.5703 156.71 98.7367 157 103.08C157.363 108.544 160.752 109.394 162.742 109.019C167.619 108.1 168.925 103.184 171.63 103.571C174.107 103.926 172.542 107.605 172.194 110.082C171.711 113.51 175.699 112.057 177.84 114.665C179.981 117.273 177.936 123.309 182.477 124.326C187.609 125.485 191.705 117.467 195.275 118.282C198.131 118.939 198.989 123.089 201.81 123.881C204.967 124.77 208.073 120.817 211.173 121.879C214.565 123.039 214.299 128.936 217.742 129.948C219.287 130.404 221.022 129.589 222.576 130.068C225.022 130.821 225.459 134.005 226.668 136.251C228.987 140.602 234.605 141.66 239.377 142.939C244.15 144.218 249.587 147.387 249.278 152.318C249.073 155.56 246.337 158.134 245.753 161.329C244.981 165.491 247.832 170.507 244.981 173.637C243.083 175.72 239.833 175.488 237.024 175.685C234.215 175.882 230.803 177.563 231.112 180.361C231.313 182.188 233.079 183.452 233.604 185.226C234.404 187.931 232.101 190.485 230.003 192.374L215.999 204.991C214.086 206.718 212.038 209.141 212.135 211.483C218.986 213.002 225.984 213.768 233.002 213.767C248.67 213.777 264.101 209.946 277.946 202.611C291.791 195.275 303.627 184.659 312.419 171.689C310.402 170.8 308.995 168.447 308.752 166.148C308.446 163.227 309.451 160.352 310.066 157.477C310.68 154.602 310.838 151.348 309.092 148.975C307.453 146.753 304.273 145.498 303.864 142.75C303.427 139.864 306.391 136.54 304.462 134.349C303.048 132.746 300.15 133.476 298.631 131.973C297.654 130.999 297.53 129.33 296.409 128.522C295.289 127.714 293.573 128.201 292.356 128.982C291.139 129.763 289.979 130.798 288.542 130.96C286.726 131.165 285.037 129.913 283.213 129.867C280.122 129.786 277.521 133.113 274.507 132.467C271.493 131.822 270.743 128.027 269.202 125.377C267.238 122.007 263.131 119.387 263.482 115.503C263.78 112.219 267.347 109.162 265.871 106.229C265.561 105.619 265.055 105.124 264.711 104.537C263.378 102.3 264.711 99.382 266.643 97.6392C269.232 95.3207 271.25 95.2705 273.63 94.2156C274.847 93.6785 276.142 92.8901 276.435 91.5956C276.617 90.7841 276.354 89.9456 276.277 89.1187C276.188 87.707 276.613 86.3107 277.473 85.1878C278.333 84.0649 279.57 83.2911 280.956 83.0094C285.358 82.2597 290.173 86.6494 293.921 84.2265C294.81 83.6546 295.467 82.7697 296.274 82.1051C299.045 79.8754 303.809 81.027 305.255 84.2768C305.68 85.2274 305.85 86.2939 306.414 87.1595C307.392 88.6241 310.305 86.7537 312.036 87.0976C315.653 87.8241 314.32 89.9456 317.925 89.9456C318.648 89.9456 319.881 88.5275 320.174 87.9478C320.506 87.3423 320.983 86.8286 321.563 86.4529C322.142 86.0772 322.806 85.8513 323.494 85.7954C322.191 82.1084 320.664 78.5041 318.922 75.0027Z" fill="#FCEE70" stroke="#01090F" stroke-width="1.25" stroke-linecap="round" stroke-linejoin="round"/>
<path d="M345.076 57.6433C346.422 57.0379 347.827 56.5742 349.269 56.2599C348.956 56.1478 348.647 56.0203 348.345 55.8735C346.054 54.8273 344.111 53.1445 342.749 51.0255C341.387 48.9064 340.663 46.4405 340.663 43.9215C340.66 41.2688 341.461 38.6773 342.959 36.4881C344.457 34.2989 346.582 32.6145 349.056 31.6565C350.575 31.0635 352.191 30.7594 353.821 30.7599C357.311 30.7599 360.659 32.1466 363.127 34.6149C365.596 37.0832 366.982 40.4308 366.982 43.9215C366.982 45.9871 366.495 48.0235 365.559 49.8648C364.622 51.7061 363.265 53.3002 361.596 54.5171C361.526 54.5403 361.46 54.5752 361.395 54.5984H361.456C360.504 55.2805 359.464 55.8316 358.365 56.2368C365.406 57.7593 371.074 62.7055 373.374 69.1587C378.14 64.1605 380.796 57.5171 380.789 50.6105C380.788 43.4675 377.95 36.6174 372.899 31.5666C367.848 26.5158 360.998 23.6779 353.855 23.6769C346.713 23.6779 339.862 26.5158 334.812 31.5666C329.761 36.6174 326.923 43.4675 326.922 50.6105C326.912 57.4818 329.54 64.0949 334.264 69.0853C335.209 66.5516 336.652 64.2333 338.51 62.2678C340.367 60.3024 342.6 58.7298 345.076 57.6433Z" fill="#FF6201" stroke="#01090F" stroke-width="1.25" stroke-linejoin="round"/>
<path d="M358.326 56.6746C359.425 56.2694 360.465 55.7183 361.417 55.0361H361.355C361.421 55.013 361.487 54.9782 361.556 54.955C363.225 53.7381 364.583 52.144 365.519 50.3027C366.456 48.4614 366.943 46.425 366.943 44.3594C366.943 40.8687 365.556 37.5211 363.088 35.0528C360.62 32.5845 357.272 31.1978 353.782 31.1978C352.151 31.1973 350.536 31.5014 349.017 32.0943C346.543 33.0524 344.418 34.7368 342.92 36.926C341.421 39.1152 340.621 41.7067 340.624 44.3594C340.624 46.8784 341.348 49.3443 342.71 51.4634C344.072 53.5824 346.014 55.2652 348.306 56.3114C348.607 56.4505 348.917 56.578 349.23 56.6978C347.788 57.0121 346.383 57.4758 345.037 58.0812C342.561 59.172 340.33 60.7489 338.475 62.7184C336.621 64.6878 335.181 67.0097 334.24 69.5463C335.526 70.9101 336.951 72.1365 338.491 73.2057C342.993 76.3373 348.348 78.0125 353.832 78.0051C359.316 78.0118 364.67 76.3367 369.173 73.2057C370.684 72.1558 372.083 70.9542 373.35 69.6197C371.035 63.1433 365.366 58.1971 358.326 56.6746Z" fill="white" stroke="#01090F" stroke-width="1.25" stroke-linecap="round" stroke-linejoin="round"/>
<path d="M363.346 68.8198C368.739 68.8198 373.111 64.4479 373.111 59.0549C373.111 53.6619 368.739 49.29 363.346 49.29C357.953 49.29 353.581 53.6619 353.581 59.0549C353.581 64.4479 357.953 68.8198 363.346 68.8198Z" fill="#FCEE70" stroke="#01090F" stroke-width="1.25" stroke-linecap="round" stroke-linejoin="round"/>
<path d="M363.292 54.0279V64.0826" stroke="#01090F" stroke-width="1.25" stroke-linecap="round" stroke-linejoin="round"/>
<path d="M368.319 59.0551H358.265" stroke="#01090F" stroke-width="1.25" stroke-linecap="round" stroke-linejoin="round"/>
<path d="M182.875 151.22C184.221 150.615 185.626 150.151 187.068 149.837C186.754 149.721 186.445 149.594 186.144 149.451C183.852 148.404 181.909 146.721 180.547 144.601C179.185 142.481 178.461 140.014 178.462 137.495C178.463 134.843 179.265 132.253 180.762 130.065C182.26 127.876 184.383 126.191 186.855 125.23C188.375 124.638 189.992 124.335 191.623 124.337C195.113 124.338 198.459 125.725 200.926 128.192C203.393 130.659 204.78 134.005 204.781 137.495C204.783 139.562 204.297 141.601 203.36 143.445C202.424 145.288 201.065 146.884 199.394 148.102L199.193 148.187H199.255C198.302 148.868 197.262 149.419 196.164 149.825C203.204 151.344 208.873 156.294 211.172 162.747C215.938 157.749 218.594 151.106 218.588 144.199C218.588 140.662 217.891 137.16 216.538 133.892C215.184 130.624 213.2 127.655 210.699 125.154C208.198 122.653 205.229 120.669 201.961 119.316C198.694 117.962 195.191 117.266 191.654 117.266C184.511 117.266 177.66 120.103 172.609 125.154C167.558 130.205 164.721 137.056 164.721 144.199C164.712 151.07 167.34 157.683 172.063 162.674C173.006 160.138 174.448 157.817 176.306 155.849C178.163 153.882 180.397 152.308 182.875 151.22Z" fill="#FF6201" stroke="#01090F" stroke-width="1.25" stroke-miterlimit="10"/>
<path d="M196.176 149.837C197.274 149.43 198.314 148.879 199.267 148.199H199.205L199.406 148.114C201.075 146.897 202.433 145.303 203.369 143.462C204.306 141.62 204.793 139.584 204.793 137.518C204.792 134.029 203.405 130.683 200.938 128.215C198.47 125.748 195.124 124.361 191.635 124.36C190.004 124.358 188.387 124.661 186.867 125.253C184.395 126.214 182.272 127.899 180.774 130.088C179.276 132.276 178.475 134.866 178.474 137.518C178.473 140.038 179.197 142.504 180.559 144.624C181.921 146.744 183.863 148.428 186.156 149.474C186.457 149.609 186.766 149.737 187.079 149.86C185.637 150.175 184.232 150.638 182.886 151.244C180.411 152.334 178.179 153.911 176.324 155.88C174.47 157.85 173.03 160.172 172.09 162.709C173.376 164.072 174.801 165.297 176.34 166.364C180.842 169.498 186.197 171.175 191.681 171.168C197.166 171.175 202.521 169.498 207.022 166.364C208.532 165.315 209.932 164.115 211.2 162.782C208.885 156.306 203.216 151.356 196.176 149.837Z" fill="white" stroke="#01090F" stroke-width="1.25" stroke-linecap="round" stroke-linejoin="round"/>
<path d="M201.196 161.979C206.589 161.979 210.96 157.607 210.96 152.214C210.96 146.821 206.589 142.449 201.196 142.449C195.803 142.449 191.431 146.821 191.431 152.214C191.431 157.607 195.803 161.979 201.196 161.979Z" fill="#FCEE70" stroke="#01090F" stroke-width="1.25" stroke-linecap="round" stroke-linejoin="round"/>
<path d="M201.142 147.186V157.245" stroke="#01090F" stroke-width="1.25" stroke-linecap="round" stroke-linejoin="round"/>
<path d="M206.173 152.214H196.114" stroke="#01090F" stroke-width="1.25" stroke-linecap="round" stroke-linejoin="round"/>
<path d="M313.806 184.959C315.15 184.353 316.554 183.889 317.995 183.576C317.682 183.46 317.377 183.332 317.075 183.189C314.783 182.144 312.84 180.461 311.477 178.342C310.114 176.223 309.39 173.757 309.389 171.237C309.39 168.585 310.191 165.994 311.689 163.805C313.186 161.616 315.31 159.93 317.782 158.968C319.303 158.379 320.92 158.076 322.551 158.076C326.038 158.081 329.38 159.47 331.844 161.938C334.307 164.405 335.69 167.75 335.689 171.237C335.69 173.302 335.202 175.338 334.266 177.179C333.33 179.02 331.972 180.613 330.303 181.829L330.102 181.914H330.163C329.211 182.596 328.171 183.148 327.072 183.552C334.109 185.071 339.778 190.021 342.077 196.474C346.845 191.477 349.501 184.833 349.492 177.926C349.493 174.389 348.796 170.886 347.443 167.618C346.09 164.351 344.106 161.381 341.605 158.88C339.104 156.379 336.134 154.395 332.866 153.042C329.598 151.688 326.096 150.992 322.559 150.993C315.415 150.993 308.565 153.83 303.514 158.881C298.463 163.932 295.625 170.783 295.625 177.926C295.618 184.797 298.246 191.409 302.967 196.401C303.915 193.865 305.362 191.545 307.225 189.579C309.087 187.614 311.325 186.042 313.806 184.959Z" fill="#FF6201" stroke="#01090F" stroke-width="1.25" stroke-miterlimit="10"/>
<path d="M327.093 183.576C328.192 183.171 329.232 182.62 330.184 181.937H330.122L330.323 181.852C331.992 180.636 333.35 179.043 334.286 177.202C335.223 175.362 335.71 173.326 335.71 171.26C335.711 167.773 334.328 164.429 331.864 161.961C329.401 159.493 326.058 158.104 322.571 158.099C320.94 158.099 319.324 158.402 317.803 158.992C315.331 159.953 313.207 161.639 311.709 163.828C310.212 166.017 309.41 168.608 309.41 171.26C309.41 173.78 310.135 176.246 311.498 178.365C312.86 180.484 314.804 182.167 317.096 183.212C317.397 183.348 317.702 183.475 318.015 183.599C316.575 183.913 315.171 184.376 313.827 184.982C311.347 186.07 309.111 187.646 307.252 189.616C305.393 191.585 303.95 193.909 303.007 196.447C304.295 197.808 305.719 199.033 307.257 200.103C311.759 203.236 317.114 204.913 322.598 204.906C328.083 204.914 333.438 203.237 337.939 200.103C339.45 199.054 340.85 197.854 342.117 196.521C339.814 190.044 334.145 185.094 327.093 183.576Z" fill="white" stroke="#01090F" stroke-width="1.25" stroke-linecap="round" stroke-linejoin="round"/>
<path d="M332.123 195.721C337.516 195.721 341.888 191.349 341.888 185.956C341.888 180.563 337.516 176.191 332.123 176.191C326.73 176.191 322.358 180.563 322.358 185.956C322.358 191.349 326.73 195.721 332.123 195.721Z" fill="#FCEE70" stroke="#01090F" stroke-width="1.25" stroke-linecap="round" stroke-linejoin="round"/>
<path d="M332.072 180.925V190.983" stroke="#01090F" stroke-width="1.25" stroke-linecap="round" stroke-linejoin="round"/>
<path d="M232.998 155.413C295.645 155.413 346.428 138.569 346.428 117.795C346.428 110.55 340.246 103.783 329.549 98.0411" stroke="white" stroke-width="1.25" stroke-linejoin="round"/>
<path d="M134.627 99.0535C125.052 104.572 119.557 110.971 119.557 117.795C119.557 127.842 131.408 136.95 150.722 143.685L155.675 145.393" stroke="white" stroke-width="1.25" stroke-linejoin="round"/>
<path d="M337.1 185.952H327.041" stroke="#01090F" stroke-width="1.25" stroke-linecap="round" stroke-linejoin="round"/>
<path d="M364.428 89.7757C353.798 84.3001 340.145 79.5355 324.24 75.7331" stroke="white" stroke-width="1.25" stroke-linecap="round" stroke-linejoin="round"/>
<path d="M322.423 57.7489C319.679 57.2981 316.904 56.8667 314.096 56.4545" stroke="white" stroke-width="1.25" stroke-linejoin="round"/>
<path d="M358.963 169.904C405.082 157.65 434.613 138.816 434.613 117.695C434.613 100.379 414.766 84.5975 382.21 72.7227" stroke="white" stroke-width="1.25" stroke-linecap="round" stroke-linejoin="round"/>
<path d="M126.396 174.46C157.31 180.863 193.858 184.561 232.999 184.561C250.218 184.561 266.93 183.846 282.886 182.498" stroke="white" stroke-width="1.25" stroke-linejoin="round"/>
<path d="M68.2581 79.1337C45.0303 90.0308 31.3857 103.335 31.3857 117.695C31.3857 131.517 44.0295 144.358 65.6961 155.019" stroke="white" stroke-width="1.25" stroke-linejoin="round"/>
<path d="M155.28 55.9753C146.006 57.2583 137.118 58.7653 128.617 60.4771" stroke="white" stroke-width="1.25" stroke-linejoin="round"/>
<path d="M348.646 152.627C358.341 149.088 366.579 145.104 373.048 140.776" stroke="white" stroke-width="1.25" stroke-linejoin="round"/>
<path d="M219.481 169.413C223.936 169.54 228.444 169.604 233.006 169.607C251.482 169.637 269.942 168.521 288.28 166.264" stroke="white" stroke-width="1.25" stroke-linejoin="round"/>
<path d="M126.322 155.645C135.835 158.551 145.503 160.923 155.281 162.747" stroke="white" stroke-width="1.25" stroke-linejoin="round"/>
<path d="M82.5408 103.803C78.7887 108.254 76.7793 112.946 76.7793 117.795C76.7793 124.631 80.771 131.158 88.0242 137.116" stroke="white" stroke-width="1.25" stroke-linejoin="round"/>
<path d="M142.872 75.4551C139.333 76.2872 135.903 77.1644 132.582 78.0866" stroke="white" stroke-width="1.25" stroke-linejoin="round"/>
<path d="M86.0882 173.49C87.4104 172.896 88.7909 172.441 90.2074 172.134C89.8983 172.018 89.5969 171.894 89.3032 171.747C87.0507 170.719 85.1413 169.065 83.8025 166.983C82.4638 164.9 81.7522 162.476 81.7525 160C81.7529 157.394 82.5404 154.849 84.0118 152.699C85.4833 150.548 87.5701 148.892 89.9988 147.948C91.4919 147.367 93.0801 147.069 94.6822 147.07C98.1117 147.073 101.4 148.439 103.823 150.865C106.246 153.292 107.606 156.582 107.604 160.012C107.604 162.042 107.124 164.044 106.204 165.854C105.283 167.664 103.948 169.23 102.306 170.426C102.241 170.449 102.179 170.48 102.109 170.507H102.171C101.239 171.175 100.223 171.717 99.1492 172.118C106.062 173.61 111.635 178.471 113.895 184.812C118.578 179.9 121.187 173.371 121.179 166.585C121.179 159.565 118.391 152.834 113.427 147.87C108.464 142.907 101.732 140.119 94.7131 140.119C87.6942 140.12 80.9631 142.908 75.9999 147.871C71.0368 152.835 68.2481 159.566 68.2471 166.585C68.2388 173.34 70.824 179.841 75.4693 184.746C76.3949 182.254 77.8118 179.974 79.636 178.04C81.4601 176.106 83.6543 174.559 86.0882 173.49Z" fill="#FF6201" stroke="#01090F" stroke-width="1.25" stroke-miterlimit="10"/>
<path d="M99.1612 172.134C100.24 171.731 101.26 171.187 102.195 170.514H102.133C102.202 170.487 102.264 170.457 102.33 170.433C103.968 169.235 105.3 167.666 106.216 165.855C107.133 164.043 107.609 162.041 107.605 160.012C107.604 156.582 106.24 153.293 103.815 150.869C101.39 148.444 98.1005 147.082 94.671 147.082C93.069 147.081 91.4807 147.378 89.9876 147.959C87.5589 148.903 85.4721 150.559 84.0007 152.71C82.5292 154.861 81.7417 157.406 81.7414 160.012C81.741 162.488 82.4526 164.911 83.7913 166.994C85.1301 169.077 87.0395 170.731 89.292 171.759C89.5857 171.894 89.8871 172.018 90.1963 172.145C88.7797 172.453 87.3992 172.907 86.077 173.502C83.6442 174.573 81.4515 176.123 79.6294 178.059C77.8072 179.994 76.3926 182.276 75.4697 184.77C76.7307 186.109 78.1281 187.314 79.6392 188.363C84.062 191.44 89.3221 193.085 94.7097 193.078C100.097 193.085 105.357 191.439 109.78 188.363C111.263 187.33 112.638 186.149 113.884 184.839C111.647 178.486 106.059 173.625 99.1612 172.134Z" fill="white" stroke="#01090F" stroke-width="1.25" stroke-linecap="round" stroke-linejoin="round"/>
<path d="M104.088 184.063C109.387 184.063 113.683 179.767 113.683 174.468C113.683 169.169 109.387 164.873 104.088 164.873C98.7889 164.873 94.4932 169.169 94.4932 174.468C94.4932 179.767 98.7889 184.063 104.088 184.063Z" fill="#FCEE70" stroke="#01090F" stroke-width="1.25" stroke-linecap="round" stroke-linejoin="round"/>
<path d="M104.037 169.529V179.41" stroke="#01090F" stroke-width="1.25" stroke-linecap="round" stroke-linejoin="round"/>
<path d="M108.98 174.468H99.0996" stroke="#01090F" stroke-width="1.25" stroke-linecap="round" stroke-linejoin="round"/>
<path d="M374.884 120.179C376.205 119.585 377.584 119.13 379 118.823C378.694 118.711 378.393 118.583 378.095 118.437C375.844 117.409 373.935 115.755 372.596 113.673C371.258 111.591 370.545 109.168 370.545 106.693C370.544 104.087 371.332 101.542 372.803 99.3914C374.275 97.2406 376.362 95.5847 378.791 94.6407C380.285 94.0588 381.875 93.7601 383.478 93.7598C386.908 93.7608 390.196 95.1239 392.621 97.5493C395.046 99.9746 396.408 103.264 396.408 106.693C396.409 108.723 395.93 110.724 395.01 112.533C394.089 114.342 392.755 115.909 391.114 117.103C391.048 117.131 390.983 117.161 390.917 117.185H390.979C390.046 117.853 389.028 118.395 387.953 118.796C394.87 120.288 400.438 125.153 402.699 131.494C407.384 126.583 409.994 120.054 409.987 113.266C409.987 109.791 409.303 106.349 407.973 103.138C406.643 99.9263 404.694 97.0085 402.236 94.5508C399.778 92.0931 396.861 90.1437 393.649 88.8138C390.438 87.484 386.996 86.7998 383.521 86.8003C380.045 86.7998 376.603 87.484 373.392 88.8138C370.181 90.1437 367.263 92.0931 364.805 94.5508C362.348 97.0085 360.398 99.9263 359.068 103.138C357.738 106.349 357.054 109.791 357.055 113.266C357.046 120.021 359.629 126.522 364.273 131.428C365.199 128.938 366.615 126.66 368.438 124.728C370.261 122.796 372.453 121.249 374.884 120.179Z" fill="#FF6201" stroke="#01090F" stroke-width="1.25" stroke-miterlimit="10"/>
<path d="M387.953 118.823C389.029 118.422 390.046 117.88 390.979 117.212H390.917C390.983 117.188 391.049 117.157 391.114 117.13C392.755 115.935 394.09 114.369 395.01 112.56C395.93 110.751 396.409 108.75 396.408 106.72C396.408 103.291 395.046 100.002 392.622 97.5761C390.197 95.1507 386.908 93.7876 383.479 93.7866C381.875 93.787 380.286 94.0858 378.791 94.6677C376.362 95.6116 374.275 97.2675 372.804 99.4182C371.332 101.569 370.545 104.114 370.545 106.72C370.546 109.195 371.258 111.618 372.597 113.7C373.935 115.782 375.844 117.436 378.096 118.464C378.393 118.599 378.695 118.726 379 118.85C377.585 119.157 376.205 119.612 374.885 120.206C372.451 121.278 370.258 122.828 368.435 124.763C366.612 126.699 365.197 128.981 364.273 131.474C365.536 132.814 366.934 134.019 368.447 135.068C372.869 138.146 378.129 139.792 383.517 139.786C388.905 139.792 394.165 138.146 398.588 135.068C400.071 134.037 401.446 132.857 402.691 131.548C400.439 125.18 394.87 120.314 387.953 118.823Z" fill="white" stroke="#01090F" stroke-width="1.25" stroke-linecap="round" stroke-linejoin="round"/>
<path d="M392.884 130.756C398.183 130.756 402.479 126.46 402.479 121.161C402.479 115.862 398.183 111.566 392.884 111.566C387.585 111.566 383.289 115.862 383.289 121.161C383.289 126.46 387.585 130.756 392.884 130.756Z" fill="#FCEE70" stroke="#01090F" stroke-width="1.25" stroke-linecap="round" stroke-linejoin="round"/>
<path d="M392.834 116.218V126.099" stroke="#01090F" stroke-width="1.25" stroke-linecap="round" stroke-linejoin="round"/>
<path d="M397.772 121.161H387.892" stroke="#01090F" stroke-width="1.25" stroke-linecap="round" stroke-linejoin="round"/>
<path d="M89.8668 82.3449C91.1873 81.7489 92.5666 81.293 93.9822 80.9847C93.6756 80.8739 93.3742 80.7451 93.078 80.5983C90.8263 79.5692 88.9177 77.915 87.5791 75.8324C86.2405 73.7499 85.5283 71.3266 85.5273 68.851C85.5282 66.2453 86.3159 63.7006 87.7873 61.55C89.2587 59.3995 91.3451 57.7434 93.7735 56.7985C95.268 56.2179 96.8575 55.9204 98.4608 55.9213C100.162 55.9213 101.846 56.2569 103.417 56.9089C104.988 57.5609 106.415 58.5163 107.616 59.7206C108.817 60.925 109.769 62.3544 110.416 63.9271C111.064 65.4998 111.395 67.1849 111.39 68.8858C111.39 70.9154 110.911 72.9162 109.991 74.7252C109.071 76.5343 107.737 78.1004 106.097 79.296C106.031 79.323 105.965 79.3539 105.899 79.3771H105.957C105.027 80.0477 104.011 80.5897 102.936 80.9886C109.853 82.484 115.421 87.3451 117.681 93.6863C122.368 88.7743 124.978 82.2438 124.969 75.455C124.968 68.4361 122.18 61.7049 117.216 56.7418C112.253 51.7787 105.522 48.99 98.5033 48.989C91.4868 48.9931 84.759 51.7833 79.799 56.7462C74.839 61.7091 72.0528 68.4384 72.0528 75.455C72.0446 82.2099 74.6282 88.7104 79.2711 93.6168C80.1915 91.1236 81.6038 88.841 83.424 86.9046C85.2442 84.9682 87.4353 83.4176 89.8668 82.3449Z" fill="#FF6201" stroke="#01090F" stroke-width="1.25" stroke-miterlimit="10"/>
<path d="M102.936 80.9845C104.011 80.5857 105.027 80.0436 105.958 79.373H105.9C105.965 79.3499 106.031 79.319 106.097 79.2919C107.736 78.0967 109.07 76.5312 109.99 74.7229C110.91 72.9145 111.39 70.9145 111.391 68.8856C111.391 65.4564 110.028 62.1677 107.604 59.7429C105.179 57.3181 101.89 55.9559 98.461 55.9559C96.8577 55.955 95.2682 56.2525 93.7737 56.8331C91.3453 57.778 89.2589 59.4341 87.7875 61.5846C86.3161 63.7352 85.5284 66.2799 85.5275 68.8856C85.5285 71.3612 86.2407 73.7845 87.5793 75.867C88.9179 77.9496 90.8265 79.6037 93.0782 80.6328C93.3744 80.7693 93.6758 80.8981 93.9824 81.0192C92.5668 81.3275 91.1875 81.7834 89.867 82.3794C87.4359 83.4464 85.244 84.991 83.4212 86.9213C81.5984 88.8516 80.1819 91.1284 79.2559 93.6166C80.5193 94.9541 81.9179 96.1572 83.4292 97.2065C87.8516 100.284 93.1118 101.931 98.4997 101.925C103.888 101.931 109.148 100.284 113.57 97.2065C115.054 96.1752 116.429 94.9957 117.674 93.6861C115.421 87.3411 109.853 82.4799 102.936 80.9845Z" fill="white" stroke="#01090F" stroke-width="1.25" stroke-linecap="round" stroke-linejoin="round"/>
<path d="M107.865 92.9172C113.164 92.9172 117.46 88.6214 117.46 83.3223C117.46 78.0232 113.164 73.7275 107.865 73.7275C102.566 73.7275 98.2705 78.0232 98.2705 83.3223C98.2705 88.6214 102.566 92.9172 107.865 92.9172Z" fill="#FCEE70" stroke="#01090F" stroke-width="1.25" stroke-linecap="round" stroke-linejoin="round"/>
<path d="M107.816 78.3801V88.2647" stroke="#01090F" stroke-width="1.25" stroke-linecap="round" stroke-linejoin="round"/>
<path d="M112.755 83.3224H102.874" stroke="#01090F" stroke-width="1.25" stroke-linecap="round" stroke-linejoin="round"/>
</g>
<defs>
<clipPath id="clip0_1227_1325">
<rect width="404" height="196.928" fill="white" transform="translate(31 21.4485)"/>
</clipPath>
</defs>
</svg>
