<svg width="460" height="241" viewBox="0 0 460 241" fill="none" xmlns="http://www.w3.org/2000/svg">
<path d="M366.56 71.4962H274.422C267.505 71.4962 261.897 77.1035 261.897 84.0205V205.375C261.897 212.292 267.505 217.9 274.422 217.9H366.56C373.477 217.9 379.084 212.292 379.084 205.375V84.0205C379.084 77.1035 373.477 71.4962 366.56 71.4962Z" fill="#C8D1D5" stroke="#01090F" stroke-width="1.25" stroke-linecap="round" stroke-linejoin="round"/>
<path d="M358.308 71.4962H266.17C259.253 71.4962 253.646 77.1035 253.646 84.0205V205.375C253.646 212.292 259.253 217.9 266.17 217.9H358.308C365.225 217.9 370.832 212.292 370.832 205.375V84.0205C370.832 77.1035 365.225 71.4962 358.308 71.4962Z" fill="white" stroke="#01090F" stroke-width="1.25" stroke-linecap="round" stroke-linejoin="round"/>
<path d="M275.127 143.616H349.768" stroke="#01090F" stroke-width="1.25" stroke-linecap="round" stroke-linejoin="round"/>
<path d="M275.127 159.998H349.768" stroke="#01090F" stroke-width="1.25" stroke-linecap="round" stroke-linejoin="round"/>
<path d="M275.127 176.374H349.768" stroke="#01090F" stroke-width="1.25" stroke-linecap="round" stroke-linejoin="round"/>
<path d="M275.127 192.756H349.768" stroke="#01090F" stroke-width="1.25" stroke-linecap="round" stroke-linejoin="round"/>
<path d="M331.238 129.892C341.843 129.892 350.441 121.295 350.441 110.69C350.441 100.085 341.843 91.4875 331.238 91.4875C320.633 91.4875 312.036 100.085 312.036 110.69C312.036 121.295 320.633 129.892 331.238 129.892Z" fill="#FF6201" stroke="#01090F" stroke-width="1.25" stroke-miterlimit="10"/>
<path d="M326.366 129.892C336.971 129.892 345.569 121.295 345.569 110.69C345.569 100.085 336.971 91.4875 326.366 91.4875C315.761 91.4875 307.164 100.085 307.164 110.69C307.164 121.295 315.761 129.892 326.366 129.892Z" fill="#E25600" stroke="#01090F" stroke-width="1.25" stroke-miterlimit="10"/>
<path d="M29 217.899L443.719 217.899" stroke="#01090F" stroke-width="1.25" stroke-miterlimit="10"/>
<path d="M272.022 47.2786C253.083 28.1658 227.887 17.6464 201.059 17.6464C200.97 17.6464 200.87 17.6464 200.78 17.6464C174.337 17.6464 149.404 27.8921 130.555 46.5155C111.668 65.1705 101.091 90.0403 100.775 116.536C100.454 143.321 110.584 168.612 129.297 187.751C148.031 206.911 173.064 217.62 199.791 217.904C200.159 217.904 200.522 217.91 200.886 217.91C227.26 217.91 252.114 207.769 270.975 189.288C290.108 170.533 300.791 145.49 301.044 118.767C301.301 91.8137 290.993 66.423 272.022 47.2786ZM193.182 73.4955C193.055 73.4955 192.929 73.4955 192.792 73.4955C186.672 73.4955 170.227 71.459 163.686 69.8698C163.77 69.6382 163.855 69.412 163.944 69.1857C168.822 56.7718 174.516 47.8732 181.852 41.1848C185.451 37.9064 189.166 35.6436 193.182 34.2912V73.4955ZM155.751 125.514H193.187V146.647C191.813 146.763 190.44 146.874 189.061 146.984C184.83 147.321 180.457 147.673 176.163 148.205C171.911 148.731 167.596 149.463 163.423 150.168C162.034 150.405 160.634 150.641 159.229 150.873C157.313 142.758 156.145 134.239 155.751 125.514ZM173.09 110.169C170.269 110.169 167.47 110.169 164.691 110.169H155.735C156.14 101.37 157.303 92.8346 159.203 84.7622C160.608 84.9885 162.002 85.2253 163.391 85.4568C167.564 86.1567 171.874 86.8777 176.126 87.4092C180.384 87.9407 184.746 88.2985 188.966 88.6458C190.408 88.7668 191.85 88.8826 193.308 89.0089C193.308 91.3875 193.308 93.766 193.308 96.1446C193.308 100.828 193.308 105.506 193.318 110.19C186.598 110.169 179.799 110.163 173.09 110.163V110.169ZM148.757 169.538C151.83 177.884 155.403 185.199 159.587 191.709C151.204 187.115 143.821 181.158 137.185 173.632L148.757 169.533V169.538ZM137.122 61.971C143.752 54.4301 151.157 48.4521 159.587 43.8318C155.382 50.3781 151.804 57.7191 148.736 66.0809L137.122 61.971ZM144.116 81.8416C143.7 83.6571 143.263 85.5305 143.021 87.4512C142.174 94.0923 141.358 101.233 140.453 109.932C140.442 110.042 140.432 110.132 140.421 110.206H140.332C136.275 110.169 132.175 110.158 128.129 110.158C126.355 110.158 124.587 110.158 122.845 110.158C120.719 110.158 118.588 110.158 116.467 110.158C117.62 97.5707 121.435 85.6936 127.818 74.8059L144.352 80.8365C144.279 81.168 144.2 81.4995 144.126 81.8311L144.116 81.8416ZM140.385 125.582C140.858 135.633 142.205 145.437 144.394 154.767L127.855 160.792C121.498 149.978 117.672 138.149 116.467 125.582H140.385ZM193.197 162.145V201.223C192.024 200.781 190.908 200.355 189.866 199.844C184.736 197.345 180.268 193.529 175.795 187.846C170.969 181.71 167.012 174.474 163.723 165.75C173.432 163.708 183.104 162.524 193.192 162.14L193.197 162.145ZM285.362 125.587C285.325 125.893 285.288 126.203 285.251 126.508C285.015 128.482 284.794 130.35 284.467 132.218C282.736 142.237 279.215 151.852 273.995 160.798C273.964 160.85 273.937 160.892 273.916 160.929C273.864 160.913 273.795 160.887 273.716 160.861C269.754 159.35 265.712 157.882 261.797 156.461C260.434 155.967 259.066 155.472 257.703 154.972C257.635 154.946 257.566 154.925 257.503 154.899C259.734 145.358 261.06 135.744 261.539 125.598H285.362V125.587ZM261.555 110.079C261.055 99.8651 259.708 90.0508 257.55 80.8681L274.027 74.8532C280.368 85.6726 284.178 97.5128 285.362 110.085H261.555V110.079ZM208.705 110.095V88.8773C220.672 88.3616 231.818 86.9671 242.674 84.6254C244.605 92.7872 245.758 101.154 246.178 110.095H208.705ZM246.178 125.619C245.742 134.507 244.589 142.848 242.658 151.004C231.402 148.605 220.277 147.221 208.748 146.784V125.619H246.184H246.178ZM242.4 43.9212C250.762 48.5205 258.119 54.4775 264.723 61.9973L253.204 66.0967C250.125 57.7401 246.563 50.4202 242.4 43.9265V43.9212ZM208.753 73.4955V34.3175C209.695 34.6595 210.589 34.9963 211.437 35.3857C216.352 37.6485 220.825 41.2585 225.108 46.4261C230.392 52.7883 234.586 60.2713 238.238 69.8645C228.75 71.8853 219.067 73.0746 208.753 73.4955ZM238.201 165.755C237.764 166.902 237.348 167.986 236.901 169.044C232.791 178.769 228.223 186.057 222.519 191.988C218.162 196.518 213.636 199.555 208.695 201.27V162.155C218.499 162.492 228.187 163.676 238.201 165.755ZM242.053 191.919C243.826 189.051 245.631 186.094 247.215 183.057C248.941 179.747 250.383 176.395 251.909 172.848C252.372 171.77 252.841 170.686 253.319 169.596L264.66 173.617C258.013 181.173 250.562 187.209 242.053 191.919Z" fill="#FF6201" stroke="#01090F" stroke-width="1.25" stroke-miterlimit="10"/>
<path d="M193.301 217.551C192.933 217.551 192.57 217.551 192.201 217.546C165.369 217.262 140.236 206.511 121.428 187.272C102.642 168.059 92.4696 142.668 92.7906 115.778C93.1063 89.1767 103.726 64.2122 122.686 45.4783C141.609 26.7865 166.647 16.4934 193.191 16.4934H193.464C220.402 16.4934 245.703 27.0602 264.711 46.2414C283.761 65.4647 294.106 90.9501 293.849 118.014C293.591 144.847 282.871 169.99 263.659 188.814C244.751 207.342 219.765 217.546 193.296 217.546L193.301 217.551ZM201.495 199.959C206.178 198.239 210.483 195.292 214.64 190.966C220.307 185.072 224.849 177.821 228.943 168.138C229.338 167.201 229.711 166.238 230.069 165.296C220.36 163.307 211.004 162.165 201.495 161.813V199.959ZM156.67 165.296C159.917 173.795 163.795 180.852 168.521 186.856C172.952 192.492 177.377 196.271 182.45 198.744C183.313 199.165 184.224 199.528 185.213 199.907V161.813C175.436 162.202 166.09 163.344 156.67 165.302V165.296ZM245.94 169.338C245.514 170.311 245.098 171.285 244.683 172.248C243.146 175.811 241.704 179.168 239.973 182.488C238.626 185.078 237.142 187.561 235.6 190.066C243.372 185.577 250.187 179.989 256.381 173.037L245.94 169.333V169.338ZM130.285 173.064C136.457 179.973 143.198 185.477 150.839 189.856C147.045 183.741 143.798 176.995 140.936 169.291L130.285 173.064ZM250.376 153.893C251.382 154.261 252.387 154.624 253.392 154.993L254.344 155.34C258.202 156.74 262.19 158.187 266.153 159.703C271.299 150.841 274.778 141.321 276.488 131.412C276.809 129.57 277.03 127.723 277.262 125.766L277.325 125.245H254.323C253.834 135.175 252.539 144.552 250.371 153.898L250.376 153.893ZM109.314 125.234C110.551 137.464 114.292 149.015 120.439 159.566L136.336 153.772C134.216 144.642 132.9 135.043 132.411 125.234H109.309H109.314ZM201.542 145.663C212.845 146.11 223.723 147.462 234.763 149.794C236.61 141.89 237.726 133.854 238.168 125.266H201.542V145.657V145.663ZM148.577 125.161C148.982 133.586 150.113 141.826 151.944 149.678C153.228 149.467 154.502 149.252 155.77 149.036C159.959 148.325 164.274 147.599 168.526 147.068C172.815 146.536 177.172 146.184 181.392 145.847C182.692 145.742 183.95 145.642 185.202 145.536V125.161H148.577ZM120.528 109.026C123.807 109.026 128.106 109.026 132.474 109.068C133.374 100.422 134.189 93.3024 135.037 86.6614C135.284 84.7248 135.715 82.8409 136.136 81.0201L136.289 80.3571L120.397 74.5632C114.219 85.1879 110.488 96.7808 109.304 109.037C111.282 109.037 120.534 109.032 120.534 109.032L120.528 109.026ZM165.5 109.026C172.078 109.026 178.74 109.026 185.334 109.047C185.318 104.495 185.323 99.9487 185.323 95.3968C185.323 93.1393 185.323 90.8817 185.323 88.6242C184.15 88.5242 182.976 88.4242 181.813 88.3295L181.35 88.2927C177.104 87.9454 172.746 87.5823 168.494 87.056C164.253 86.5298 159.954 85.8089 155.802 85.1142L155.744 85.1037C154.476 84.8932 153.202 84.6774 151.918 84.4669C150.103 92.2762 148.977 100.538 148.561 109.026H165.5ZM238.168 108.947C237.736 100.301 236.626 92.2447 234.779 84.3407C224.117 86.6192 213.224 87.9822 201.5 88.5032V108.947H238.168ZM277.33 108.932C276.12 96.6966 272.394 85.1405 266.258 74.579L250.419 80.3623C252.508 89.3504 253.823 98.9594 254.334 108.932H277.33ZM156.623 68.8378C163.29 70.3797 179.235 72.3478 185.197 72.3478V34.0906C181.435 35.443 177.94 37.6164 174.53 40.7212C167.237 47.3675 161.58 56.2187 156.723 68.5747C156.691 68.6589 156.654 68.7484 156.623 68.8326V68.8378ZM201.547 72.332C211.546 71.9058 220.897 70.7533 230.106 68.822C226.501 59.4656 222.397 52.1773 217.208 45.9256C212.961 40.8106 208.536 37.2323 203.673 34.9905C202.979 34.6695 202.237 34.3853 201.547 34.1275V72.3267V72.332ZM235.963 44.2785C239.736 50.3828 242.972 57.1291 245.84 64.8437L256.444 61.0706C250.303 54.1717 243.588 48.662 235.968 44.2785H235.963ZM140.909 64.8279C143.767 57.1081 147.024 50.3354 150.834 44.1838C143.146 48.5884 136.384 54.1191 130.216 61.0443L140.909 64.8279Z" fill="#E25600"/>
<path d="M193.191 16.8931C193.26 16.8931 193.333 16.8931 193.402 16.8931C193.423 16.8931 193.449 16.8931 193.47 16.8931C220.297 16.8931 245.493 27.4125 264.433 46.5253C283.409 65.6697 293.712 91.0604 293.454 118.014C293.197 144.736 282.519 169.785 263.385 188.535C244.525 207.016 219.676 217.151 193.296 217.156C192.928 217.156 192.57 217.156 192.202 217.151C165.48 216.867 140.442 206.158 121.708 186.998C102.995 167.859 92.8648 142.568 93.1858 115.783C93.5015 89.287 104.079 64.4173 122.965 45.7623C141.815 27.1389 166.748 16.8931 193.191 16.8931ZM185.208 72.7423C185.34 72.7423 185.471 72.7423 185.598 72.7423V33.5379C181.588 34.8903 177.867 37.1531 174.268 40.4315C166.927 47.12 161.238 56.0186 156.36 68.4324C156.271 68.6587 156.186 68.885 156.107 69.1165C162.649 70.7057 179.093 72.7423 185.213 72.7423M201.158 72.7423C211.472 72.3213 221.155 71.132 230.643 69.1112C226.991 59.518 222.792 52.0297 217.514 45.6728C213.23 40.5105 208.757 36.9005 203.842 34.6324C202.995 34.243 202.1 33.9062 201.158 33.5642V72.7423ZM141.152 65.3276C144.225 56.9658 147.804 49.6248 152.003 43.0785C143.573 47.6988 136.169 53.6821 129.538 61.2178L141.152 65.3276ZM245.609 65.3434L257.128 61.2441C250.524 53.7294 243.168 47.7672 234.806 43.1679C238.968 49.6669 242.531 56.9816 245.609 65.3382M108.873 109.415C110.993 109.415 113.125 109.415 115.251 109.415C116.998 109.415 118.761 109.415 120.534 109.415C124.581 109.415 128.68 109.426 132.737 109.463H132.827C132.837 109.389 132.848 109.3 132.858 109.189C133.764 100.491 134.579 93.3443 135.427 86.7085C135.674 84.7877 136.105 82.9091 136.521 81.0989C136.6 80.7673 136.674 80.4358 136.747 80.1043L120.213 74.0736C113.83 84.9614 110.015 96.8385 108.862 109.426M253.955 109.331H277.762C276.578 96.7595 272.768 84.9193 266.427 74.0999L249.951 80.1148C252.108 89.3028 253.45 99.1118 253.955 109.326M201.106 109.342H238.579C238.158 100.396 237.005 92.034 235.074 83.8721C224.218 86.2138 213.072 87.6084 201.106 88.1241V109.342ZM148.146 109.421H157.102C159.875 109.421 162.68 109.421 165.501 109.421C172.21 109.421 179.004 109.421 185.729 109.447C185.713 104.764 185.713 100.085 185.719 95.4019C185.719 93.0233 185.719 90.6447 185.719 88.2662C184.266 88.1399 182.819 88.0188 181.377 87.9031C177.157 87.5557 172.794 87.1979 168.537 86.6664C164.285 86.1349 159.975 85.414 155.802 84.7141C154.413 84.4825 153.018 84.2457 151.613 84.0194C149.714 92.0919 148.546 100.622 148.146 109.426M151.64 150.125C153.045 149.893 154.445 149.657 155.834 149.42C160.007 148.715 164.322 147.983 168.574 147.457C172.868 146.925 177.241 146.573 181.472 146.236C182.845 146.126 184.224 146.015 185.598 145.899V124.766H148.161C148.556 133.491 149.724 142.01 151.64 150.125ZM120.266 160.05L136.805 154.024C134.616 144.694 133.269 134.89 132.795 124.839H108.878C110.083 137.406 113.909 149.236 120.266 160.05ZM266.322 160.181C266.343 160.144 266.369 160.102 266.401 160.05C271.621 151.104 275.141 141.489 276.873 131.47C277.194 129.602 277.42 127.734 277.657 125.76C277.694 125.455 277.731 125.15 277.767 124.839H253.945C253.466 134.985 252.14 144.605 249.909 154.14C249.977 154.166 250.045 154.187 250.109 154.214C251.471 154.714 252.84 155.208 254.203 155.703C258.113 157.124 262.159 158.592 266.122 160.102C266.201 160.134 266.264 160.155 266.322 160.171M235.058 150.251C236.99 142.089 238.147 133.754 238.579 124.866H201.143V146.031C212.672 146.462 223.802 147.846 235.053 150.251M185.598 200.47V161.392C175.51 161.77 165.832 162.954 156.129 165.002C159.423 173.721 163.375 180.962 168.2 187.098C172.668 192.781 177.141 196.591 182.272 199.096C183.314 199.607 184.424 200.033 185.603 200.475M201.095 200.517C206.042 198.807 210.562 195.77 214.919 191.234C220.618 185.304 225.191 178.015 229.301 168.29C229.749 167.227 230.164 166.143 230.601 165.002C220.587 162.923 210.899 161.739 201.095 161.402V200.517ZM151.998 190.955C147.814 184.446 144.241 177.126 141.168 168.785L129.596 172.884C136.232 180.404 143.62 186.367 151.998 190.961M234.448 191.171C242.957 186.456 250.409 180.425 257.055 172.869L245.714 168.848C245.236 169.938 244.767 171.027 244.304 172.1C242.778 175.647 241.336 178.999 239.61 182.309C238.026 185.346 236.221 188.303 234.448 191.171ZM193.186 16.109C166.537 16.109 141.399 26.4443 122.402 45.2045C103.368 64.0068 92.7069 89.0713 92.3911 115.778C92.0701 142.773 102.279 168.264 121.139 187.556C140.021 206.869 165.253 217.662 192.191 217.946C192.56 217.946 192.928 217.951 193.296 217.951C219.871 217.951 244.957 207.705 263.938 189.103C283.224 170.201 293.986 144.963 294.244 118.025C294.502 90.8552 284.114 65.2698 264.99 45.9728C245.904 26.7126 220.503 16.109 193.465 16.109H193.186ZM157.155 68.5587C161.975 56.3501 167.579 47.5988 174.794 41.0209C178.004 38.0951 181.288 36.0112 184.803 34.664V71.9529C178.72 71.874 163.89 70.0374 157.155 68.5534V68.5587ZM201.937 71.9266V34.7061C202.458 34.9061 202.995 35.1218 203.5 35.3586C208.305 37.5741 212.688 41.1156 216.893 46.1833C221.976 52.3086 226.012 59.4286 229.559 68.5377C220.645 70.3848 211.588 71.4951 201.932 71.9266H201.937ZM130.896 60.8757C136.563 54.5872 142.741 49.4722 149.677 45.3203C146.262 51.0352 143.299 57.292 140.668 64.333L130.896 60.8757ZM246.067 64.3436C243.436 57.3131 240.489 51.0878 237.111 45.415C243.983 49.5459 250.109 54.6398 255.75 60.8968L246.067 64.3436ZM109.731 108.637C110.946 96.7122 114.588 85.414 120.566 75.0419L135.821 80.6042L135.784 80.7673L135.748 80.9199C135.327 82.7512 134.89 84.6457 134.637 86.6085C133.8 93.1496 132.995 100.17 132.111 108.668C127.896 108.631 123.723 108.626 120.524 108.626C118.75 108.626 116.982 108.626 115.235 108.626C113.398 108.626 111.562 108.626 109.725 108.626L109.731 108.637ZM250.882 80.62L266.08 75.0682C272.016 85.3771 275.652 96.628 276.894 108.542H254.708C254.187 98.8066 252.903 89.4239 250.882 80.62ZM201.895 88.8818C213.362 88.3503 224.034 87.019 234.485 84.8088C236.242 92.4444 237.316 100.233 237.753 108.558H201.895V88.8818ZM148.972 108.631C149.393 100.438 150.482 92.4655 152.213 84.9141C153.361 85.1035 154.502 85.2929 155.639 85.4824H155.671C159.86 86.1875 164.175 86.9137 168.437 87.4452C172.71 87.9767 177.078 88.3398 181.304 88.6871L181.582 88.7082C182.693 88.7976 183.808 88.8924 184.924 88.9871C184.924 91.1026 184.924 93.2127 184.924 95.3282V95.3966C184.924 100.301 184.924 104.432 184.935 108.652C179.351 108.637 173.315 108.631 165.501 108.631H148.972ZM148.988 125.555H184.803V145.173C183.672 145.268 182.54 145.357 181.404 145.447C177.152 145.789 172.779 146.141 168.469 146.673C164.201 147.204 159.875 147.936 155.697 148.641C154.545 148.836 153.392 149.03 152.234 149.225C150.487 141.637 149.398 133.68 148.982 125.555H148.988ZM109.746 125.629H132.038C132.532 135.211 133.821 144.589 135.874 153.524L120.613 159.087C114.661 148.783 111.009 137.537 109.746 125.634V125.629ZM254.692 125.629H276.873V125.666C276.631 127.639 276.41 129.491 276.094 131.338C274.41 141.095 271.005 150.472 265.974 159.208C262.138 157.745 258.244 156.334 254.471 154.966L253.771 154.714C252.792 154.356 251.808 154.003 250.829 153.645C252.929 144.505 254.192 135.327 254.692 125.634V125.629ZM201.927 125.66H237.742C237.295 133.933 236.216 141.695 234.458 149.325C223.65 147.062 212.988 145.736 201.927 145.278V125.66ZM157.192 165.591C166.301 163.723 175.352 162.618 184.803 162.218V199.328C184.029 199.028 183.303 198.723 182.609 198.386C177.594 195.939 173.21 192.197 168.816 186.609C164.196 180.736 160.391 173.853 157.192 165.586V165.591ZM201.879 199.391V162.223C211.078 162.586 220.14 163.691 229.522 165.591C229.217 166.391 228.901 167.196 228.565 167.985C224.497 177.615 219.976 184.83 214.34 190.692C210.383 194.813 206.294 197.665 201.874 199.386L201.879 199.391ZM130.959 173.237L140.689 169.79C143.32 176.81 146.272 183.041 149.672 188.724C142.778 184.598 136.626 179.504 130.959 173.237ZM236.742 188.924C237.989 186.866 239.189 184.804 240.305 182.667C242.041 179.331 243.489 175.973 245.02 172.416L245.036 172.379C245.399 171.532 245.767 170.685 246.135 169.832L255.676 173.216C249.982 179.531 243.757 184.698 236.742 188.924Z" fill="#01090F"/>
<path d="M113.006 180.133C123.821 174.94 128.378 161.963 123.185 151.148C117.992 140.333 105.014 135.776 94.1994 140.969C83.3844 146.162 78.8272 159.139 84.0204 169.954C89.2137 180.769 102.191 185.327 113.006 180.133Z" fill="#FCEE70" stroke="#01090F" stroke-width="1.25" stroke-miterlimit="10"/>
<path d="M146.925 216.731C140.453 199.049 123.503 186.42 103.579 186.42C83.6562 186.42 66.7062 199.049 60.2336 216.731C60.0915 217.12 60.002 217.515 59.9336 217.915H147.241C147.167 217.515 147.067 217.12 146.925 216.731Z" fill="#FCEE70" stroke="#01090F" stroke-width="1.25" stroke-miterlimit="10"/>
<path d="M104.121 180.131C114.936 174.938 119.493 161.961 114.3 151.146C109.107 140.331 96.1296 135.774 85.3146 140.967C74.4997 146.16 69.9424 159.138 75.1357 169.952C80.3289 180.767 93.3062 185.325 104.121 180.131Z" fill="#FCEE70" stroke="#01090F" stroke-width="1.25" stroke-miterlimit="10"/>
<path d="M138.048 216.731C131.576 199.049 114.626 186.42 94.7024 186.42C74.7792 186.42 57.8293 199.049 51.3566 216.731C51.2145 217.12 51.1251 217.515 51.0566 217.915H138.364C138.29 217.515 138.19 217.12 138.048 216.731Z" fill="#FCEE70" stroke="#01090F" stroke-width="1.25" stroke-miterlimit="10"/>
<path d="M235.321 180.13C246.136 174.937 250.694 161.959 245.5 151.145C240.307 140.33 227.33 135.772 216.515 140.966C205.7 146.159 201.143 159.136 206.336 169.951C211.529 180.766 224.506 185.323 235.321 180.13Z" fill="#FCEE70" stroke="#01090F" stroke-width="1.25" stroke-miterlimit="10"/>
<path d="M269.248 216.732C262.776 199.05 245.826 186.421 225.903 186.421C205.979 186.421 189.029 199.05 182.557 216.732C182.415 217.121 182.325 217.516 182.257 217.916H269.564C269.491 217.516 269.391 217.121 269.248 216.732Z" fill="#FCEE70" stroke="#01090F" stroke-width="1.25" stroke-miterlimit="10"/>
<path d="M226.445 180.126C237.26 174.932 241.818 161.955 236.624 151.14C231.431 140.325 218.454 135.768 207.639 140.961C196.824 146.154 192.267 159.132 197.46 169.947C202.653 180.762 215.63 185.319 226.445 180.126Z" fill="#FCEE70" stroke="#01090F" stroke-width="1.25" stroke-miterlimit="10"/>
<path d="M260.371 216.731C253.898 199.049 236.948 186.42 217.025 186.42C197.102 186.42 180.152 199.049 173.679 216.731C173.537 217.12 173.447 217.515 173.379 217.915H260.686C260.613 217.515 260.513 217.12 260.371 216.731Z" fill="#FCEE70" stroke="#01090F" stroke-width="1.25" stroke-miterlimit="10"/>
<path d="M179.523 168.993C193.309 161.987 198.805 145.131 191.799 131.345C184.793 117.559 167.937 112.062 154.151 119.069C140.364 126.075 134.868 142.931 141.874 156.717C148.881 170.503 165.736 176 179.523 168.993Z" fill="#FCEE70" stroke="#01090F" stroke-width="1.25" stroke-miterlimit="10"/>
<path d="M222.736 216.389C214.395 193.598 192.546 177.317 166.861 177.317C141.175 177.317 119.326 193.598 110.985 216.389C110.801 216.889 110.69 217.4 110.596 217.916H223.141C223.047 217.4 222.915 216.889 222.731 216.389H222.736Z" fill="#FCEE70" stroke="#01090F" stroke-width="1.25" stroke-miterlimit="10"/>
<path d="M168.074 168.995C181.861 161.989 187.357 145.133 180.351 131.347C173.344 117.56 156.489 112.064 142.702 119.07C128.916 126.077 123.42 142.932 130.426 156.719C137.433 170.505 154.288 176.001 168.074 168.995Z" fill="#FCEE70" stroke="#01090F" stroke-width="1.25" stroke-miterlimit="10"/>
<path d="M211.289 216.389C202.948 193.598 181.099 177.316 155.413 177.316C129.728 177.316 107.879 193.598 99.5378 216.389C99.3537 216.889 99.2432 217.399 99.1484 217.915H211.694C211.599 217.399 211.468 216.889 211.283 216.389H211.289Z" fill="#FCEE70" stroke="#01090F" stroke-width="1.25" stroke-miterlimit="10"/>
<path d="M410.62 124.428L409.219 116.724C408.167 110.071 402.916 104.816 396.26 103.764L388.556 102.363L396.26 100.962C402.912 99.9099 408.167 94.6587 409.219 88.0023L410.62 80.2981L412.022 88.0023C413.073 94.6546 418.325 99.9099 424.981 100.962L432.685 102.363L424.981 103.764C418.325 104.816 413.073 110.067 412.022 116.724L410.62 124.428Z" fill="white" stroke="#01090F" stroke-width="1.25" stroke-linejoin="round"/>
<path d="M119.087 34.9068L118.345 30.818C117.787 27.287 115.004 24.5032 111.473 23.9454L107.384 23.2034L111.473 22.4614C115.004 21.9036 117.787 19.1198 118.345 15.5888L119.087 11.5L119.829 15.5888C120.387 19.1198 123.171 21.9036 126.702 22.4614L130.791 23.2034L126.702 23.9454C123.171 24.5032 120.387 27.287 119.829 30.818L119.087 34.9068Z" fill="white" stroke="#01090F" stroke-width="1.25" stroke-linejoin="round"/>
<path d="M360.653 56.635L355.702 53.2092C351.513 50.1623 345.798 50.1623 341.609 53.2092L336.657 56.635L340.083 51.6831C343.13 47.4943 343.13 41.7794 340.083 37.5906L336.657 32.6388L341.609 36.0645C345.798 39.1114 351.513 39.1114 355.702 36.0645L360.653 32.6388L357.228 37.5906C354.181 41.7794 354.181 47.4943 357.228 51.6831L360.653 56.635Z" fill="white" stroke="#01090F" stroke-width="1.25" stroke-linejoin="round"/>
<path d="M72.9529 133.407L67.1433 129.387C62.2283 125.814 55.5293 125.814 50.6143 129.387L44.8047 133.407L48.8251 127.598C52.3982 122.683 52.3982 115.978 48.8251 111.069L44.8047 105.259L50.6143 109.279C55.5293 112.853 62.2283 112.853 67.1433 109.279L72.9529 105.259L68.9325 111.069C65.3594 115.984 65.3594 122.683 68.9325 127.598L72.9529 133.407Z" fill="white" stroke="#01090F" stroke-width="1.25" stroke-linejoin="round"/>
<path d="M359.333 143.1C359.364 143.1 359.39 143.1 359.422 143.1H359.333Z" fill="#7304DF" stroke="#01090F" stroke-width="1.25" stroke-miterlimit="10"/>
<path d="M359.45 210.385H359.523C359.523 210.385 359.476 210.385 359.45 210.385Z" fill="#7304DF" stroke="#01090F" stroke-width="1.25" stroke-miterlimit="10"/>
<path d="M406.092 210.337H406.17C406.17 210.337 406.118 210.337 406.092 210.337Z" fill="#7304DF" stroke="#01090F" stroke-width="1.25" stroke-miterlimit="10"/>
<path d="M406.012 142.963C406.038 142.963 406.069 142.963 406.095 142.958H406.012V142.963Z" fill="#7304DF" stroke="#01090F" stroke-width="1.25" stroke-miterlimit="10"/>
<path d="M359.421 143.1C359.51 143.1 359.605 143.1 359.694 143.1C359.573 143.1 359.479 143.1 359.421 143.1Z" fill="#7304DF" stroke="#01090F" stroke-width="1.25" stroke-miterlimit="10"/>
<path d="M406.259 142.958H406.097C406.149 142.958 406.207 142.958 406.259 142.958Z" fill="#7304DF" stroke="#01090F" stroke-width="1.25" stroke-miterlimit="10"/>
<path d="M403.591 185.973L400.018 183.5C396.992 181.3 392.872 181.3 389.851 183.5L386.278 185.973L388.752 182.4C390.951 179.374 390.951 175.254 388.752 172.228L386.278 168.655L389.851 171.128C392.877 173.328 396.998 173.328 400.018 171.128L403.591 168.655L401.118 172.228C398.918 175.254 398.918 179.374 401.118 182.4L403.591 185.973Z" fill="white" stroke="#01090F" stroke-width="1.25" stroke-linejoin="round"/>
<path d="M333.602 101.208L323.391 113.253L319.248 109.546L315.585 113.903L323.93 121.376L337.82 104.976L333.602 101.208Z" fill="#FCEE70" stroke="#01090F" stroke-width="1.25" stroke-miterlimit="10" stroke-linecap="round" stroke-linejoin="round"/>
</svg>
