<svg width="640" height="442" viewBox="0 0 640 442" fill="none" xmlns="http://www.w3.org/2000/svg">
<line x1="65.625" y1="387.603" x2="551.68" y2="387.603" stroke="#01090F" stroke-width="1.25" stroke-linecap="round"/>
<path d="M499.635 271.562L427.695 146.296H411.342L483.282 271.562H499.635Z" fill="#FFAE1F" stroke="#01090F" stroke-width="1.25" stroke-linecap="round" stroke-linejoin="round"/>
<path d="M411.341 146.296L339.413 271.562H355.766H483.282L411.341 146.296Z" fill="#FFC664" stroke="#01090F" stroke-width="1.25" stroke-linecap="round" stroke-linejoin="round"/>
<path d="M432.419 266.556C428.457 245.069 420.65 226.653 420.533 186.011" stroke="#FFAE1F" stroke-width="1.25" stroke-linecap="round" stroke-linejoin="round"/>
<path d="M436.569 200.629C434.037 219.045 437.554 238.926 441.024 246.499C444.247 253.533 448.374 259.98 450.566 267.635" stroke="#FFAE1F" stroke-width="1.25" stroke-linecap="round" stroke-linejoin="round"/>
<path d="M409.292 265.959C406.877 260.203 402.903 255.01 398.53 256.897C395.811 258.058 393.537 260.613 391.685 264.189" stroke="#FFAE1F" stroke-width="1.25" stroke-linecap="round" stroke-linejoin="round"/>
<path d="M454.516 241.541C457.212 250.227 458.994 259.429 459.826 268.772" stroke="#FFAE1F" stroke-width="1.25" stroke-linecap="round" stroke-linejoin="round"/>
<path d="M380.196 263.086C381.673 259.077 383.138 255.056 384.357 250.895C387.007 241.833 388.425 231.599 386.092 222.386" stroke="#FFAE1F" stroke-width="1.25" stroke-linecap="round" stroke-linejoin="round"/>
<path d="M407.005 188.169C405.188 227.837 415.41 236.312 420.286 264.024" stroke="#FFAE1F" stroke-width="1.25" stroke-linecap="round" stroke-linejoin="round"/>
<path d="M363.538 262.618C363.538 257.823 363.691 253.205 364.089 248.961" stroke="#FFAE1F" stroke-width="1.25" stroke-linecap="round" stroke-linejoin="round"/>
<path d="M398.014 203.853C399.667 216.982 400.019 229.677 398.014 241.599" stroke="#FFAE1F" stroke-width="1.25" stroke-linecap="round" stroke-linejoin="round"/>
<path d="M405.95 193.186H208.885C201.757 193.186 195.99 187.418 195.99 180.291C195.99 173.164 201.757 167.396 208.885 167.396H405.95C413.077 167.396 418.844 173.164 418.844 180.291C418.844 187.418 413.077 193.186 405.95 193.186Z" fill="#FFC664" stroke="#01090F" stroke-width="1.25" stroke-linecap="round" stroke-linejoin="round"/>
<path d="M235.682 176.575C255.774 171.182 277.824 175.508 298.373 179.74C318.922 183.971 341.148 188.051 361.017 182.201" stroke="#FFAE1F" stroke-width="1.25" stroke-linecap="round" stroke-linejoin="round"/>
<path d="M245.341 184.452C260.158 183.55 275.175 184.523 289.593 187.313" stroke="#FFAE1F" stroke-width="1.25" stroke-linecap="round" stroke-linejoin="round"/>
<path d="M313.834 175.028C333.575 173.023 353.538 171.007 373.326 172.707C386.689 173.855 399.807 176.692 411.986 181.088" stroke="#FFAE1F" stroke-width="1.25" stroke-linecap="round" stroke-linejoin="round"/>
<path d="M374.474 180.748C381.836 184.488 390.792 186.328 399.595 185.93" stroke="#FFAE1F" stroke-width="1.25" stroke-linecap="round" stroke-linejoin="round"/>
<path d="M313.248 150.692C313.131 153.189 315.71 153.189 316.425 152.099C317.14 150.997 316.671 149.497 317.328 148.559C317.773 147.902 318.301 147.316 318.899 146.8C317.926 146.988 316.965 147.187 316.015 147.398C315.874 147.551 315.722 147.691 315.558 147.809C315.159 148.125 313.354 148.723 313.248 150.704V150.692Z" fill="#549CF1" stroke="#01090F" stroke-width="1.25" stroke-linecap="round" stroke-linejoin="round"/>
<path d="M307.435 286.883C306.04 285.418 304.187 283.648 304.914 281.749C305.442 280.377 307.177 279.709 307.552 278.291C308.15 276.075 305.196 274.657 304.234 272.57C303.273 270.483 304.492 268.045 305.524 265.935C306.555 263.837 307.27 261.023 305.582 259.406C303.519 257.425 299.733 259.054 297.459 257.319C295.572 255.877 295.783 253.005 294.727 250.884C293.098 247.59 288.292 245.691 288.737 242.045C289.019 239.853 291.14 238.47 292.887 237.121C294.634 235.773 296.322 233.511 295.337 231.53C293.907 228.646 291.129 230.756 288.69 228.646C286.616 226.853 286.85 222.844 284.248 221.988C283.04 221.589 281.751 222.117 280.508 222.34C279.254 222.562 277.66 222.257 277.285 221.05C277.038 220.253 277.449 219.385 277.285 218.577C277.003 217.064 275.022 216.596 273.487 216.877C271.963 217.158 270.486 217.674 268.962 217.522C265.82 217.217 263.839 214.204 263.534 212.141C263.229 210.078 263.37 207.874 262.456 205.987C262.174 205.424 261.764 204.92 261.272 204.51C260.779 204.111 260.205 203.818 259.595 203.642C258.283 209.269 257.626 215.025 257.626 220.792C257.626 253.662 278.691 281.608 308.056 291.877C309.533 290.904 308.724 288.266 307.411 286.883H307.435Z" fill="#549CF1" stroke="#01090F" stroke-width="1.25" stroke-linecap="round" stroke-linejoin="round"/>
<path d="M302.16 154.948C304.575 154.819 304.938 152.932 307.411 152.99C310.494 153.061 309.779 150.564 308.021 149.696C305.114 150.716 302.277 151.912 299.51 153.284C299.722 154.092 300.343 155.054 302.148 154.948H302.16Z" fill="#549CF1" stroke="#01090F" stroke-width="1.25" stroke-linecap="round" stroke-linejoin="round"/>
<path d="M319.603 289.192C323.26 285.887 325.347 282.593 329.004 279.287C330.645 277.798 332.462 275.805 331.829 273.684C331.419 272.3 330.035 271.304 329.871 269.862C329.625 267.67 332.31 266.357 334.513 266.181C336.717 266.017 340.855 266.205 342.344 264.575C344.571 262.125 342.344 258.187 342.942 254.916C343.399 252.408 345.544 250.391 345.708 247.836C345.955 243.967 341.688 241.471 337.936 240.474C334.185 239.478 329.801 238.645 327.961 235.234C327.011 233.464 326.671 230.967 324.749 230.381C323.53 230.006 322.181 230.639 320.962 230.287C318.266 229.49 318.465 224.872 315.816 223.957C313.39 223.125 310.94 226.22 308.466 225.528C306.251 224.907 305.583 221.648 303.332 221.132C300.53 220.487 297.318 226.771 293.286 225.88C289.722 225.083 291.305 220.312 289.652 218.307C287.976 216.256 284.834 217.393 285.221 214.708C285.502 212.762 286.721 209.879 284.775 209.609C282.654 209.304 281.622 213.161 277.789 213.888C276.23 214.169 273.569 213.513 273.287 209.222C273.065 205.823 275.784 201.767 281.493 200.911C289.675 199.692 289.124 203.455 291.75 204.369C294.376 205.284 295.349 204.733 296.685 202.294C297.928 200.032 296.767 196.82 298.491 194.897C299.452 193.831 300.987 193.549 302.23 192.823C305.876 190.654 306.309 184.898 310.154 183.163C312.229 182.226 314.609 182.53 316.883 182.39C319.145 182.249 321.748 180.913 320.282 177.712C319.884 176.868 318.841 176.423 318.454 175.555C317.375 173.129 321.126 171.195 322.439 173.75C325.1 178.955 327.691 173.094 328.805 174.711C329.742 176.083 327.785 177.724 328.805 179.143C329.274 179.799 330.458 179.565 331.536 179.74C332.72 179.928 333.798 180.467 334.443 179.881C335.674 178.744 335.475 177.22 333.365 176.306C332.872 176.095 331.817 175.79 331.63 175.286C331.008 173.61 333.845 173.492 334.045 172.027C334.385 169.565 332.251 169.343 331.36 168.159C330.2 166.611 330.528 163.61 328.594 164.196C326.659 164.783 325.429 166.142 324.116 164.595C323.459 163.763 322.943 162.813 322.615 161.805C321.478 158.734 316.309 159.308 315.781 162.204C314.937 166.787 314.023 167.924 311.538 169.003C309.31 169.952 309.428 174.137 307.189 173.211C306.051 172.742 307.001 169.917 304.95 168.252C303.848 167.35 301.796 167.971 300.706 167.057C298.362 165.052 300.272 161.934 301.808 161.512C305.641 160.457 305.442 158.476 307.974 158.113C310.131 157.796 311.256 160.129 312.71 159.695C314.292 159.214 314.363 156.729 315.629 155.92C317.446 154.76 318.313 155.92 320.845 153.189C322.31 151.607 327.562 152.498 327.515 154.654C327.492 156.049 323.119 156.214 322.873 157.866C322.744 158.757 324.573 158.816 326.226 159.144C327.257 159.355 328.371 160.187 329.074 160.152C330.551 160.07 330.129 158.3 331.559 158.066C333.822 157.691 336.108 157.397 335.99 155.299C335.885 153.506 333.681 154.959 333.341 152.24C333.06 149.977 328.875 148.993 327.632 147.715C326.894 146.953 326.015 146.343 325.042 145.921C322.979 146.132 320.939 146.437 318.923 146.824C318.325 147.34 317.797 147.938 317.352 148.582C316.695 149.52 317.176 151.032 316.449 152.122C315.722 153.224 313.155 153.224 313.272 150.716C313.366 148.735 315.171 148.125 315.582 147.82C315.746 147.703 315.898 147.562 316.039 147.41C313.331 148.031 310.658 148.805 308.033 149.731C309.791 150.599 310.494 153.095 307.423 153.025C304.95 152.966 304.586 154.854 302.171 154.983C300.354 155.088 299.733 154.139 299.534 153.318C289.581 158.253 280.848 165.322 273.944 174.032C267.039 182.73 262.151 192.846 259.607 203.666C260.217 203.83 260.791 204.123 261.284 204.533C261.776 204.932 262.175 205.436 262.468 206.01C263.382 207.898 263.241 210.09 263.546 212.165C263.851 214.239 265.832 217.264 268.973 217.545C270.509 217.698 271.998 217.193 273.498 216.9C275.011 216.607 277.003 217.088 277.296 218.6C277.461 219.421 277.05 220.276 277.296 221.074C277.66 222.293 279.277 222.586 280.52 222.363C281.763 222.14 283.064 221.613 284.26 222.011C286.862 222.855 286.627 226.876 288.702 228.67C291.129 230.78 293.907 228.67 295.349 231.553C296.334 233.534 294.657 235.797 292.899 237.145C291.141 238.481 289.019 239.876 288.749 242.068C288.304 245.714 293.11 247.625 294.739 250.907C295.794 253.029 295.583 255.913 297.471 257.343C299.733 259.078 303.531 257.448 305.594 259.429C307.271 261.047 306.556 263.86 305.536 265.959C304.516 268.057 303.273 270.472 304.246 272.594C305.219 274.715 308.161 276.099 307.564 278.314C307.177 279.732 305.442 280.401 304.926 281.772C304.199 283.659 306.063 285.441 307.446 286.907C308.759 288.29 309.556 290.916 308.079 291.889C310.858 292.862 313.694 293.67 316.578 294.303C316.496 292.475 318.114 290.564 319.614 289.216L319.603 289.192Z" fill="#88EB7A" stroke="#01090F" stroke-width="1.25" stroke-linecap="round" stroke-linejoin="round"/>
<path d="M403.945 195.659C403.406 195.706 402.878 195.882 402.433 196.175C401.976 196.468 401.601 196.879 401.343 197.359C401.108 197.816 400.147 198.93 399.573 198.93C396.736 198.93 397.791 197.265 394.954 196.691C393.594 196.41 391.308 197.887 390.546 196.738C390.089 196.058 389.96 195.226 389.632 194.475C388.495 191.932 384.755 191.017 382.587 192.776C381.942 193.292 381.438 193.995 380.746 194.44C377.804 196.339 374.029 192.893 370.571 193.479C369.481 193.702 368.508 194.3 367.828 195.191C367.148 196.07 366.82 197.172 366.89 198.274C366.949 198.918 367.16 199.575 367.008 200.219C366.785 201.239 365.765 201.861 364.816 202.283C362.952 203.115 361.358 203.127 359.33 204.967C357.817 206.339 356.786 208.624 357.817 210.383C358.099 210.84 358.486 211.227 358.732 211.707C359.904 214.017 357.091 216.42 356.856 218.999C356.575 222.047 359.81 224.098 361.346 226.747C362.553 228.822 363.163 231.8 365.507 232.304C367.863 232.808 369.915 230.205 372.341 230.264C373.772 230.299 375.096 231.284 376.526 231.108C377.663 230.979 378.566 230.17 379.516 229.561C380.477 228.951 381.778 228.541 382.692 229.197C383.571 229.83 383.665 231.143 384.439 231.905C385.623 233.089 387.897 232.515 389.011 233.769C390.523 235.492 389.21 236.922 389.55 239.185C389.878 241.33 391.355 243.499 392.645 245.245C394.016 247.097 393.887 249.653 393.407 251.904C392.926 254.154 392.129 256.417 392.375 258.703C392.563 260.508 393.664 262.348 395.247 263.052C403.734 250.579 408.259 235.844 408.235 220.769C408.235 212.223 406.794 203.724 403.957 195.671L403.945 195.659Z" fill="#88EB7A" stroke="#01090F" stroke-width="1.25" stroke-linecap="round" stroke-linejoin="round"/>
<path d="M383.595 171.277C382.821 172.613 382.669 174.688 381.145 174.958C380.664 174.993 380.172 174.934 379.715 174.794C378.425 174.512 376.972 174.548 375.893 175.31C375.507 175.579 375.202 175.954 375.003 176.376C374.803 176.798 374.721 177.279 374.756 177.748C374.85 179.073 375.905 179.342 376.632 179.999C377.089 180.409 377.406 181.136 377.054 181.628C375.905 182.402 374.369 182.226 373.021 181.909C371.568 181.558 370.056 181.065 368.626 181.593C368.239 181.733 367.899 181.968 367.617 182.273C367.336 182.577 367.148 182.941 367.043 183.339C366.598 185.039 368.227 185.321 368.637 186.387C369.176 187.806 367.277 189.646 368.356 190.748C368.919 191.311 369.88 191.123 370.583 190.748C371.286 190.373 371.966 189.834 372.764 189.834C373.479 189.834 374.112 190.267 374.756 190.572C375.893 191.1 377.277 191.217 378.367 190.607C379.621 189.904 380.254 188.064 379.187 186.927C378.906 186.645 378.707 186.282 378.636 185.895C378.484 184.805 379.516 184.57 380.254 184.805C380.805 184.969 381.297 185.321 381.872 185.426C383.372 185.707 384.603 184.289 385.553 183.093C386.045 182.437 386.655 181.862 387.358 181.429C387.557 181.323 387.768 181.265 388.003 181.253C388.225 181.253 388.448 181.288 388.647 181.394C388.847 181.487 389.022 181.628 389.163 181.816C389.304 181.991 389.398 182.202 389.433 182.425C389.609 183.257 390.007 184.019 390.593 184.641C391.179 185.25 391.93 185.696 392.75 185.907C393.758 186.129 394.837 186 395.728 186.692C395.927 186.844 396.091 187.044 396.173 187.29C396.267 187.524 396.29 187.782 396.243 188.028C395.892 189.541 393.254 188.908 392.715 190.537C392.352 191.604 393.16 192.682 394.286 192.846C395.997 193.092 397.345 191.615 397.849 190.068C398.389 188.415 399.526 187.747 400.393 187.243C397.24 180.936 393.219 175.099 388.448 169.906C386.866 169.097 384.521 169.788 383.63 171.324L383.595 171.277Z" fill="#88EB7A" stroke="#01090F" stroke-width="1.25" stroke-linecap="round" stroke-linejoin="round"/>
<path d="M400.346 187.184C399.479 187.7 398.342 188.368 397.802 190.021C397.298 191.568 395.95 193.045 394.239 192.799C393.125 192.635 392.316 191.556 392.668 190.49C393.207 188.86 395.845 189.493 396.196 187.981C396.243 187.735 396.22 187.477 396.126 187.243C396.032 187.008 395.88 186.797 395.681 186.645C394.802 185.953 393.711 186.082 392.703 185.859C391.883 185.648 391.144 185.215 390.558 184.593C389.972 183.984 389.573 183.222 389.398 182.389C389.362 182.167 389.269 181.956 389.128 181.78C388.987 181.604 388.811 181.463 388.612 181.358C388.413 181.264 388.19 181.217 387.967 181.217C387.745 181.217 387.522 181.288 387.323 181.393C386.619 181.827 386.01 182.401 385.517 183.058C384.568 184.265 383.349 185.672 381.837 185.39C381.274 185.285 380.77 184.945 380.219 184.769C379.48 184.546 378.449 184.769 378.601 185.859C378.672 186.258 378.871 186.609 379.152 186.891C380.219 188.028 379.574 189.857 378.332 190.572C377.241 191.181 375.858 191.064 374.721 190.536C374.065 190.232 373.443 189.798 372.728 189.798C371.931 189.798 371.251 190.337 370.548 190.712C369.845 191.087 368.883 191.275 368.321 190.712C367.254 189.622 369.165 187.782 368.602 186.352C368.192 185.273 366.562 184.992 367.008 183.304C367.113 182.905 367.312 182.542 367.582 182.237C367.852 181.932 368.203 181.698 368.59 181.557C370.02 181.041 371.544 181.522 372.986 181.874C374.334 182.202 375.87 182.378 377.019 181.592C377.37 181.088 377.054 180.373 376.597 179.963C375.87 179.318 374.827 179.049 374.721 177.712C374.686 177.243 374.768 176.774 374.967 176.341C375.166 175.919 375.471 175.544 375.858 175.274C376.937 174.5 378.39 174.465 379.68 174.758C380.137 174.911 380.629 174.969 381.11 174.922C382.634 174.641 382.786 172.566 383.56 171.241C384.451 169.706 386.795 169.002 388.378 169.811C381.332 162.121 372.763 155.979 363.221 151.782C353.668 147.586 343.352 145.429 332.931 145.44C330.293 145.44 327.644 145.581 325.018 145.851C325.991 146.273 326.87 146.882 327.609 147.644C328.851 148.945 333.024 149.907 333.318 152.169C333.657 154.889 335.861 153.447 335.967 155.229C336.084 157.339 333.81 157.632 331.536 157.995C330.094 158.23 330.528 160 329.051 160.082C328.347 160.117 327.234 159.285 326.202 159.074C324.537 158.745 322.72 158.687 322.849 157.796C323.096 156.143 327.456 155.979 327.491 154.584C327.538 152.427 322.287 151.548 320.821 153.119C318.301 155.85 317.422 154.689 315.605 155.85C314.339 156.67 314.269 159.156 312.686 159.625C311.233 160.058 310.107 157.737 307.95 158.042C305.406 158.405 305.617 160.398 301.784 161.441C300.237 161.864 298.326 164.97 300.682 166.986C301.761 167.912 303.812 167.268 304.926 168.182C306.977 169.846 306.028 172.672 307.165 173.14C309.404 174.067 309.287 169.882 311.514 168.932C314.011 167.865 314.937 166.728 315.757 162.133C316.285 159.238 321.454 158.663 322.592 161.735C322.931 162.743 323.436 163.692 324.092 164.524C325.405 166.06 326.636 164.712 328.57 164.126C330.504 163.54 330.164 166.541 331.336 168.088C332.227 169.26 334.361 169.507 334.021 171.956C333.822 173.422 330.985 173.539 331.606 175.215C331.794 175.719 332.837 176.024 333.341 176.235C335.439 177.15 335.639 178.673 334.419 179.81C333.775 180.397 332.696 179.869 331.512 179.67C330.434 179.494 329.25 179.728 328.781 179.072C327.761 177.654 329.719 176.012 328.781 174.641C327.667 173.023 325.077 178.884 322.416 173.68C321.103 171.136 317.363 173.058 318.43 175.485C318.817 176.352 319.86 176.774 320.259 177.642C321.736 180.842 319.122 182.167 316.859 182.319C314.597 182.46 312.205 182.155 310.131 183.093C306.274 184.839 305.828 190.583 302.206 192.752C300.975 193.491 299.428 193.76 298.467 194.839C296.744 196.761 297.904 199.973 296.662 202.235C295.325 204.674 294.352 205.236 291.726 204.31C289.101 203.384 289.663 199.633 281.481 200.852C275.772 201.696 273.041 205.752 273.275 209.163C273.557 213.454 276.218 214.122 277.777 213.829C281.61 213.114 282.642 209.245 284.763 209.55C286.709 209.832 285.478 212.715 285.209 214.649C284.834 217.334 287.964 216.197 289.64 218.248C291.281 220.253 289.722 225.047 293.274 225.821C297.306 226.724 300.518 220.44 303.32 221.073C305.559 221.589 306.239 224.848 308.454 225.469C310.928 226.161 313.366 223.066 315.804 223.898C318.465 224.813 318.254 229.431 320.95 230.229C322.17 230.592 323.529 229.947 324.737 230.322C326.659 230.908 326.999 233.405 327.949 235.175C329.777 238.587 334.173 239.419 337.924 240.427C341.664 241.423 345.931 243.92 345.696 247.789C345.532 250.332 343.387 252.349 342.93 254.869C342.332 258.128 344.559 262.067 342.332 264.528C340.843 266.158 336.705 265.982 334.501 266.134C332.298 266.287 329.625 267.611 329.859 269.815C330.012 271.245 331.407 272.242 331.817 273.637C332.45 275.758 330.645 277.763 328.98 279.24C325.311 282.546 323.236 285.84 319.579 289.145C318.078 290.493 316.461 292.404 316.531 294.245C321.912 295.44 327.398 296.038 332.907 296.038C345.204 296.038 357.313 293.037 368.168 287.281C379.035 281.526 388.319 273.191 395.212 263.016C393.629 262.324 392.527 260.472 392.34 258.667C392.094 256.369 392.891 254.119 393.371 251.868C393.852 249.617 393.969 247.05 392.609 245.21C391.32 243.463 389.843 241.294 389.515 239.149C389.175 236.887 390.488 235.445 388.976 233.722C387.862 232.468 385.588 233.042 384.404 231.858C383.63 231.096 383.536 229.783 382.657 229.15C381.731 228.482 380.43 228.904 379.48 229.513C378.519 230.123 377.616 230.932 376.491 231.061C375.073 231.225 373.748 230.24 372.306 230.217C369.891 230.158 367.84 232.761 365.472 232.257C363.104 231.752 362.518 228.775 361.311 226.7C359.775 224.051 356.551 221.999 356.821 218.952C357.055 216.373 359.869 213.97 358.697 211.66C358.45 211.18 358.064 210.793 357.782 210.336C356.739 208.577 357.782 206.291 359.294 204.92C361.322 203.091 362.905 203.068 364.78 202.235C365.73 201.813 366.762 201.192 366.973 200.172C367.113 199.539 366.914 198.883 366.855 198.226C366.785 197.113 367.125 196.023 367.793 195.143C368.473 194.264 369.446 193.655 370.536 193.432C373.994 192.846 377.769 196.292 380.711 194.393C381.403 193.936 381.907 193.244 382.552 192.729C384.72 190.982 388.46 191.885 389.597 194.428C389.925 195.179 390.066 196.011 390.511 196.691C391.285 197.84 393.571 196.374 394.919 196.644C397.756 197.207 396.712 198.883 399.537 198.883C400.1 198.883 401.073 197.769 401.307 197.312C401.565 196.831 401.94 196.433 402.398 196.128C402.855 195.835 403.371 195.647 403.91 195.612C402.89 192.717 401.683 189.892 400.311 187.149L400.346 187.184Z" fill="#4790F2" stroke="#01090F" stroke-width="1.25" stroke-linecap="round" stroke-linejoin="round"/>
<path d="M317.586 181.17L239.656 207.545C235.107 209.081 232.669 214.028 234.205 218.6L267.52 317.033C269.067 321.593 274.002 324.043 278.562 322.507L356.493 296.132C361.041 294.596 363.479 289.649 361.944 285.077L328.629 186.644C327.081 182.084 322.146 179.634 317.586 181.17Z" fill="#BD80FF" stroke="#01090F" stroke-width="1.25" stroke-linecap="round" stroke-linejoin="round"/>
<path d="M315.863 202L253.664 223.054C250.979 223.956 249.549 226.875 250.452 229.56L255.059 243.158C255.973 245.842 258.88 247.284 261.565 246.381L323.764 225.328C326.448 224.425 327.878 221.506 326.976 218.822L322.369 205.224C321.454 202.54 318.547 201.098 315.863 202Z" fill="#FCEE70" stroke="#01090F" stroke-width="1.25" stroke-linecap="round" stroke-linejoin="round"/>
<path d="M273.51 252.09L267.227 254.212C264.062 255.29 262.362 258.725 263.429 261.902L264.226 264.27C265.304 267.447 268.739 269.146 271.916 268.08L278.199 265.958C281.364 264.879 283.064 261.445 281.997 258.268L281.2 255.9C280.122 252.723 276.687 251.023 273.51 252.09Z" fill="#CFD8DC" stroke="#01090F" stroke-width="1.25" stroke-linecap="round" stroke-linejoin="round"/>
<path d="M298.771 243.545L292.488 245.667C289.323 246.745 287.623 250.18 288.69 253.356L289.487 255.724C290.566 258.901 294 260.601 297.177 259.534L303.46 257.412C306.625 256.334 308.325 252.899 307.258 249.723L306.461 247.355C305.383 244.178 301.948 242.478 298.771 243.545Z" fill="#CFD8DC" stroke="#01090F" stroke-width="1.25" stroke-linecap="round" stroke-linejoin="round"/>
<path d="M324.021 234.999L317.738 237.121C314.573 238.199 312.873 241.634 313.94 244.811L314.737 247.179C315.816 250.355 319.25 252.055 322.427 250.988L328.71 248.867C331.875 247.788 333.575 244.353 332.508 241.177L331.711 238.809C330.633 235.632 327.198 233.932 324.021 234.999Z" fill="#CFD8DC" stroke="#01090F" stroke-width="1.25" stroke-linecap="round" stroke-linejoin="round"/>
<path d="M280.063 271.467L273.779 273.589C270.614 274.668 268.915 278.102 269.981 281.279L270.778 283.647C271.857 286.824 275.292 288.524 278.468 287.457L284.752 285.335C287.917 284.257 289.616 280.822 288.55 277.645L287.753 275.277C286.674 272.1 283.239 270.389 280.063 271.467Z" fill="#CFD8DC" stroke="#01090F" stroke-width="1.25" stroke-linecap="round" stroke-linejoin="round"/>
<path d="M305.325 262.922L299.042 265.043C295.877 266.122 294.177 269.556 295.244 272.733L296.041 275.101C297.12 278.278 300.554 279.978 303.731 278.911L310.014 276.789C313.179 275.711 314.879 272.276 313.812 269.099L313.015 266.731C311.937 263.555 308.502 261.843 305.325 262.922Z" fill="#CFD8DC" stroke="#01090F" stroke-width="1.25" stroke-linecap="round" stroke-linejoin="round"/>
<path d="M330.587 254.376L324.303 256.498C321.138 257.576 319.439 261.011 320.505 264.187L321.302 266.555C322.381 269.732 325.816 271.432 328.992 270.365L335.276 268.243C338.441 267.165 340.14 263.73 339.074 260.553L338.276 258.186C337.198 255.009 333.763 253.297 330.587 254.376Z" fill="#CFD8DC" stroke="#01090F" stroke-width="1.25" stroke-linecap="round" stroke-linejoin="round"/>
<path d="M286.627 290.844L280.344 292.966C277.179 294.045 275.479 297.479 276.546 300.656L277.343 303.024C278.422 306.201 281.856 307.912 285.033 306.834L291.316 304.712C294.481 303.634 296.181 300.199 295.114 297.022L294.317 294.654C293.239 291.477 289.804 289.778 286.627 290.844Z" fill="#CFD8DC" stroke="#01090F" stroke-width="1.25" stroke-linecap="round" stroke-linejoin="round"/>
<path d="M311.877 282.299L305.594 284.421C302.428 285.499 300.729 288.934 301.795 292.111L302.593 294.479C303.671 297.655 307.106 299.367 310.282 298.288L316.566 296.167C319.731 295.088 321.43 291.654 320.364 288.477L319.567 286.109C318.488 282.932 315.053 281.232 311.877 282.299Z" fill="#CFD8DC" stroke="#01090F" stroke-width="1.25" stroke-linecap="round" stroke-linejoin="round"/>
<path d="M337.14 273.753L330.856 275.875C327.691 276.953 325.992 280.388 327.058 283.565L327.855 285.933C328.934 289.11 332.369 290.821 335.545 289.743L341.828 287.621C344.994 286.542 346.693 283.108 345.627 279.931L344.829 277.563C343.751 274.386 340.316 272.686 337.14 273.753Z" fill="#CFD8DC" stroke="#01090F" stroke-width="1.25" stroke-linecap="round" stroke-linejoin="round"/>
<path d="M440.532 207.182L369.142 278.572L376.117 285.546L447.507 214.157L440.532 207.182Z" fill="#F5E644" stroke="#01090F" stroke-width="1.25" stroke-linecap="round" stroke-linejoin="round"/>
<path d="M447.506 214.227L376.116 285.617L383.619 293.119L455.008 221.73L447.506 214.227Z" fill="#F5E644" stroke="#01090F" stroke-width="1.25" stroke-linecap="round" stroke-linejoin="round"/>
<path d="M455.007 221.648L383.618 293.049L391.155 300.587L462.557 229.186L455.019 221.648H455.007Z" fill="#F5E644" stroke="#01090F" stroke-width="1.25" stroke-linecap="round" stroke-linejoin="round"/>
<path d="M472.498 219.244L476.202 215.54C488.089 203.654 466.074 181.639 454.188 193.526L450.484 197.23L472.498 219.244Z" fill="#FF9FBF" stroke="#01090F" stroke-width="1.25" stroke-linecap="round" stroke-linejoin="round"/>
<path d="M362.237 307.479L374.264 304.619L365.109 295.463L362.237 307.479Z" fill="#01090F" stroke="#01090F" stroke-width="1.25" stroke-linecap="round" stroke-linejoin="round"/>
<path d="M383.619 293.049L376.116 285.558L369.142 278.583L365.109 295.475L374.264 304.619L391.156 300.598L383.619 293.049Z" fill="#FCEB64" stroke="#01090F" stroke-width="1.25" stroke-linecap="round" stroke-linejoin="round"/>
<path d="M445.525 202.177L440.531 207.171L447.506 214.146L454.997 221.648L462.534 229.185L467.528 224.192L445.513 202.177H445.525Z" fill="#CFD8DC" stroke="#01090F" stroke-width="1.25" stroke-linecap="round" stroke-linejoin="round"/>
<path d="M472.498 219.245L450.483 197.23L445.536 202.177L467.551 224.191L472.498 219.245Z" fill="#90A4AE" stroke="#01090F" stroke-width="1.25" stroke-linecap="round" stroke-linejoin="round"/>
<path d="M447.084 306.072L502.578 221.717L494.337 216.29L438.843 300.644L447.084 306.072Z" fill="#F5E644" stroke="#01090F" stroke-width="1.25" stroke-linecap="round" stroke-linejoin="round"/>
<path d="M438.832 300.574L494.326 216.22L485.463 210.394L429.97 294.748L438.832 300.574Z" fill="#F5E644" stroke="#01090F" stroke-width="1.25" stroke-linecap="round" stroke-linejoin="round"/>
<path d="M429.981 294.819L485.463 210.464L476.554 204.603L421.06 288.958L429.969 294.819H429.981Z" fill="#F5E644" stroke="#01090F" stroke-width="1.25" stroke-linecap="round" stroke-linejoin="round"/>
<path d="M413.347 300.715L410.475 305.087C401.237 319.131 427.249 336.234 436.487 322.202L439.37 317.818L413.358 300.715H413.347Z" fill="#FF9FBF" stroke="#01090F" stroke-width="1.25" stroke-linecap="round" stroke-linejoin="round"/>
<path d="M503.504 192.013L492.297 197.253L503.117 204.368L503.504 192.025V192.013Z" fill="#01090F" stroke="#01090F" stroke-width="1.25" stroke-linecap="round" stroke-linejoin="round"/>
<path d="M485.475 210.476L494.337 216.302L502.578 221.718L503.117 204.357L492.297 197.241L476.566 204.591L485.475 210.464V210.476Z" fill="#FFC664" stroke="#01090F" stroke-width="1.25" stroke-linecap="round" stroke-linejoin="round"/>
<path d="M443.215 311.98L447.095 306.072L438.854 300.656L430.004 294.83L421.095 288.969L417.215 294.877L443.227 311.992L443.215 311.98Z" fill="#CFD8DC" stroke="#01090F" stroke-width="1.25" stroke-linecap="round" stroke-linejoin="round"/>
<path d="M413.347 300.715L439.359 317.818L443.204 311.969L417.192 294.854L413.347 300.703V300.715Z" fill="#CFD8DC" stroke="#01090F" stroke-width="1.25" stroke-linecap="round" stroke-linejoin="round"/>
<path d="M359.974 89.7117C358.157 89.3365 356.305 89.1255 354.441 89.0786C354.184 89.0786 353.926 89.0669 353.668 89.0669C337.292 89.0669 324.022 101.727 324.022 117.353C324.022 140.739 352.191 171.135 353.609 172.636H353.726C354.125 172.214 383.314 140.728 383.314 117.353C383.314 103.802 373.315 92.4781 359.974 89.7234V89.7117ZM353.668 133.389C350.69 133.389 347.783 132.51 345.31 130.846C342.836 129.193 340.914 126.836 339.777 124.082C338.64 121.327 338.347 118.303 338.921 115.372C339.495 112.453 340.937 109.769 343.036 107.659C345.134 105.549 347.818 104.118 350.737 103.532C353.656 102.946 356.68 103.251 359.424 104.388C362.167 105.525 364.523 107.459 366.176 109.933C367.828 112.406 368.708 115.325 368.708 118.303C368.708 122.3 367.125 126.133 364.3 128.958C361.475 131.783 357.653 133.366 353.668 133.366V133.389Z" fill="#FD483F" stroke="#01090F" stroke-width="1.25" stroke-linecap="round" stroke-linejoin="round"/>
<path d="M259.866 271.561H499.413V379.618C499.413 383.639 496.154 386.898 492.133 386.898H259.866V271.561Z" fill="#FFC664" stroke="#01090F" stroke-width="1.25" stroke-linecap="round" stroke-linejoin="round"/>
<path d="M267.039 309.483C288.62 317.103 314.034 311.511 335.966 304.501C357.899 297.491 380.558 288.934 404.202 290.962C419.278 292.252 433.063 297.773 447.013 302.345C460.962 306.916 476.295 310.667 491.124 308.194" stroke="#FFAE1F" stroke-width="1.25" stroke-linecap="round" stroke-linejoin="round"/>
<path d="M274.834 345.225C290.085 340.712 307.27 343.619 322.837 347.44C338.404 351.262 354.218 356.033 370.536 355.072C380.265 354.497 389.549 351.907 398.927 349.867C428.995 343.326 461.115 342.353 491.757 347.065" stroke="#FFAE1F" stroke-width="1.25" stroke-linecap="round" stroke-linejoin="round"/>
<path d="M272.186 326.399C311.268 319.448 425.034 334.452 496.142 327.946" stroke="#FFAE1F" stroke-width="1.25" stroke-linecap="round" stroke-linejoin="round"/>
<path d="M473.166 282.615L296.497 283.553C291.609 283.577 286.533 283.635 282.102 285.206C277.671 286.777 274.049 290.341 274.799 294.021C276.065 300.211 286.92 301.571 295.091 300.961C314.187 299.531 332.954 295.651 350.385 289.52" stroke="#FFAE1F" stroke-width="1.25" stroke-linecap="round" stroke-linejoin="round"/>
<path d="M336.47 316.74C356.281 310.984 376.877 305.123 398.013 306.271C423.884 307.678 448.22 319.494 473.998 317.326" stroke="#FFAE1F" stroke-width="1.25" stroke-linecap="round" stroke-linejoin="round"/>
<path d="M373.08 317.619C384.568 314.536 394.403 314.853 402.608 317.701" stroke="#FFAE1F" stroke-width="1.25" stroke-linecap="round" stroke-linejoin="round"/>
<path d="M324.948 334.452C349.553 334.522 365.965 346.959 405.891 340.02" stroke="#FFAE1F" stroke-width="1.25" stroke-linecap="round" stroke-linejoin="round"/>
<path d="M279.992 373.769C292.875 379.958 309.439 379.442 324.303 376.91C339.167 374.378 353.609 370.053 368.801 369.255C390.288 368.142 411.131 374.167 431.938 378.375C452.757 382.584 476.073 384.811 494.875 376.793" stroke="#FFAE1F" stroke-width="1.25" stroke-linecap="round" stroke-linejoin="round"/>
<path d="M279.711 359.655C350.619 372.925 428.292 346.327 497.103 364.942" stroke="#FFAE1F" stroke-width="1.25" stroke-linecap="round" stroke-linejoin="round"/>
<path d="M429.159 367.357C445.629 371.6 463.424 372.843 480.632 370.967" stroke="#FFAE1F" stroke-width="1.25" stroke-linecap="round" stroke-linejoin="round"/>
<path d="M444.493 291.197C453.237 289.439 462.346 292.135 470.692 294.772L485.474 299.461" stroke="#FFAE1F" stroke-width="1.25" stroke-linecap="round" stroke-linejoin="round"/>
<path d="M187.925 146.296L259.865 271.562H276.218L204.278 146.296H187.925Z" fill="#FFAE1F" stroke="#01090F" stroke-width="1.25" stroke-linecap="round" stroke-linejoin="round"/>
<path d="M187.925 146.296L115.984 271.562V378.963C115.984 383.347 119.536 386.899 123.92 386.899H259.865V271.562L187.925 146.296Z" fill="#FFC664" stroke="#01090F" stroke-width="1.25" stroke-linecap="round" stroke-linejoin="round"/>
<path d="M205.391 271.561C205.731 239.864 189.976 228.411 191.348 176.844" stroke="#FFAE1F" stroke-width="1.25" stroke-linecap="round" stroke-linejoin="round"/>
<path d="M194.325 381.224C194.513 370.088 194.067 360.663 193.716 352.012" stroke="#FFAE1F" stroke-width="1.25" stroke-linecap="round" stroke-linejoin="round"/>
<path d="M213.104 341.063C214.288 348.613 215.238 358.671 215.156 373.3" stroke="#FFAE1F" stroke-width="1.25" stroke-linecap="round" stroke-linejoin="round"/>
<path d="M207.29 195.94C204.758 211.215 208.275 227.72 211.745 233.991C215.215 240.263 219.728 245.983 221.756 253.005C224.733 263.274 221.92 273.73 218.18 284.034" stroke="#FFAE1F" stroke-width="1.25" stroke-linecap="round" stroke-linejoin="round"/>
<path d="M184.174 264.775C183.682 260.191 182.697 255.69 181.091 251.317C179.004 245.62 174.339 239.044 169.076 240.919C160.424 243.991 156.345 258.726 155.454 275.254" stroke="#FFAE1F" stroke-width="1.25" stroke-linecap="round" stroke-linejoin="round"/>
<path d="M172.85 381.553C172.381 371.6 172.006 361.367 172.299 351.227" stroke="#FFAE1F" stroke-width="1.25" stroke-linecap="round" stroke-linejoin="round"/>
<path d="M175.206 265.864C174.608 263.672 173.659 261.269 171.713 260.519C169.427 259.628 166.895 261.668 166.028 264.188C165.488 265.759 165.406 267.435 165.488 269.123" stroke="#FFAE1F" stroke-width="1.25" stroke-linecap="round" stroke-linejoin="round"/>
<path d="M248.096 373.476C251.144 365.552 252.293 356.713 251.238 348.168C249.796 336.48 244.533 325.848 241.497 314.548C236.327 295.346 237.71 274.949 240.102 254.939" stroke="#FFAE1F" stroke-width="1.25" stroke-linecap="round" stroke-linejoin="round"/>
<path d="M235.834 379.642C240.945 358.213 239.621 334.932 232.107 314.395C231.509 312.777 230.712 310.995 229.211 310.491C227.242 309.835 225.249 311.933 224.874 314.184C224.499 316.435 225.249 318.697 225.906 320.866C230.325 335.472 231.063 351.438 228.039 366.477" stroke="#FFAE1F" stroke-width="1.25" stroke-linecap="round" stroke-linejoin="round"/>
<path d="M225.249 229.876C230.243 243.228 232.107 258.034 230.583 272.405C229.762 280.177 227.98 287.785 225.929 295.276" stroke="#FFAE1F" stroke-width="1.25" stroke-linecap="round" stroke-linejoin="round"/>
<path d="M141.867 290.599C141.105 280.107 142.524 269.428 145.97 259.64C148.62 252.126 152.441 245.163 155.079 237.649C157.716 230.135 159.146 221.636 156.813 213.993" stroke="#FFAE1F" stroke-width="1.25" stroke-linecap="round" stroke-linejoin="round"/>
<path d="M177.739 185.601C175.594 224.578 190.317 227.251 193.06 263.157" stroke="#FFAE1F" stroke-width="1.25" stroke-linecap="round" stroke-linejoin="round"/>
<path d="M145.607 330.56C146.815 335.472 148.104 339.915 149.171 343.197C153.497 356.514 156.65 371.073 152.864 384.589" stroke="#FFAE1F" stroke-width="1.25" stroke-linecap="round" stroke-linejoin="round"/>
<path d="M126.546 380.029L125.175 270.788" stroke="#FFAE1F" stroke-width="1.25" stroke-linecap="round" stroke-linejoin="round"/>
<path d="M136.534 378.563C138.844 363.102 138.011 347.077 134.12 332.025" stroke="#FFAE1F" stroke-width="1.25" stroke-linecap="round" stroke-linejoin="round"/>
<path d="M134.142 281.877C135.104 273.59 134.576 263.626 134.353 254.002" stroke="#FFAE1F" stroke-width="1.25" stroke-linecap="round" stroke-linejoin="round"/>
<path d="M133.92 318.58C133.709 310.948 133.756 301.453 133.545 293.822" stroke="#FFAE1F" stroke-width="1.25" stroke-linecap="round" stroke-linejoin="round"/>
<path d="M163.343 347.3C165.184 358.19 165.582 368.728 163.343 378.61" stroke="#FFAE1F" stroke-width="1.25" stroke-linecap="round" stroke-linejoin="round"/>
<path d="M251.179 265.454V296.764" stroke="#FFAE1F" stroke-width="1.25" stroke-linecap="round" stroke-linejoin="round"/>
<path d="M169.192 202.176C171.033 213.066 171.431 223.605 169.192 233.487" stroke="#FFAE1F" stroke-width="1.25" stroke-linecap="round" stroke-linejoin="round"/>
<path d="M152.606 308.463C152.606 289.461 167.025 273.835 185.511 271.901C184.245 271.772 182.956 271.702 181.654 271.702C161.351 271.702 144.893 288.16 144.893 308.463C144.893 328.767 161.351 345.225 181.654 345.225C182.956 345.225 184.245 345.155 185.511 345.026C167.025 343.103 152.606 327.465 152.606 308.475V308.463Z" fill="#FFAE1F" stroke="#01090F" stroke-width="1.25" stroke-linecap="round" stroke-linejoin="round"/>
<path d="M218.415 308.464C218.415 289.462 203.996 273.836 185.51 271.901C167.024 273.824 152.605 289.462 152.605 308.464C152.605 327.466 167.024 343.092 185.51 345.014C203.996 343.092 218.415 327.454 218.415 308.464Z" fill="#FFC664" stroke="#01090F" stroke-width="1.25" stroke-linecap="round" stroke-linejoin="round"/>
<path d="M203.727 327.695C206.504 327.695 208.756 325.443 208.756 322.666C208.756 319.889 206.504 317.637 203.727 317.637C200.95 317.637 198.698 319.889 198.698 322.666C198.698 325.443 200.95 327.695 203.727 327.695Z" fill="#FFAE1F" stroke="#01090F" stroke-width="1.25" stroke-linecap="round" stroke-linejoin="round"/>
<path d="M177.328 328.082C174.632 328.082 172.217 327.425 170.095 326.113C167.974 324.8 166.297 323.006 165.066 320.732C163.836 318.458 163.214 315.879 163.214 312.983C163.214 310.088 163.836 307.533 165.066 305.294C166.297 303.019 167.974 301.249 170.095 299.972C172.217 298.659 174.62 298.002 177.328 298.002C179.485 298.002 181.372 298.413 182.99 299.221C184.608 300.03 185.921 301.167 186.917 302.633V287.956L194.314 286.655V327.39H187.726L186.917 323.287C185.991 324.565 184.76 325.679 183.213 326.64C181.712 327.601 179.743 328.082 177.316 328.082H177.328ZM178.887 321.599C181.278 321.599 183.224 320.814 184.725 319.232C186.272 317.614 187.034 315.551 187.034 313.042C187.034 310.533 186.26 308.494 184.725 306.911C183.224 305.294 181.278 304.485 178.887 304.485C176.496 304.485 174.585 305.27 173.049 306.853C171.502 308.435 170.74 310.475 170.74 312.983C170.74 315.492 171.514 317.555 173.049 319.173C174.597 320.791 176.543 321.599 178.887 321.599Z" fill="#FFAE1F" stroke="#01090F" stroke-width="1.25" stroke-linecap="round" stroke-linejoin="round"/>
<path d="M199.776 327.695C202.553 327.695 204.805 325.443 204.805 322.666C204.805 319.889 202.553 317.637 199.776 317.637C196.998 317.637 194.747 319.889 194.747 322.666C194.747 325.443 196.998 327.695 199.776 327.695Z" fill="#FFC664" stroke="#01090F" stroke-width="1.25" stroke-linecap="round" stroke-linejoin="round"/>
<path d="M173.377 328.082C170.681 328.082 168.266 327.425 166.145 326.113C164.023 324.8 162.347 323.006 161.116 320.732C159.885 318.458 159.264 315.879 159.264 312.983C159.264 310.088 159.885 307.533 161.116 305.294C162.347 303.019 164.023 301.249 166.145 299.972C168.266 298.659 170.669 298.002 173.377 298.002C175.534 298.002 177.422 298.413 179.039 299.221C180.657 300.03 181.97 301.167 182.966 302.633V287.956L190.363 286.655V327.39H183.775L182.966 323.287C182.04 324.565 180.809 325.679 179.262 326.64C177.762 327.601 175.792 328.082 173.366 328.082H173.377ZM174.936 321.599C177.328 321.599 179.274 320.814 180.774 319.232C182.322 317.614 183.083 315.551 183.083 313.042C183.083 310.533 182.31 308.494 180.774 306.911C179.274 305.294 177.328 304.485 174.936 304.485C172.545 304.485 170.634 305.27 169.099 306.853C167.551 308.435 166.789 310.475 166.789 312.983C166.789 315.492 167.563 317.555 169.099 319.173C170.646 320.791 172.592 321.599 174.936 321.599Z" fill="#FFC664" stroke="#01090F" stroke-width="1.25" stroke-linecap="round" stroke-linejoin="round"/>
<path d="M527.912 253.823L527.368 250.699C526.906 248.009 524.787 245.917 522.124 245.455L519 244.912L522.124 244.368C524.814 243.906 526.906 241.787 527.368 239.124L527.912 236L528.455 239.124C528.917 241.814 531.036 243.906 533.699 244.368L536.823 244.912L533.699 245.455C531.009 245.917 528.917 248.036 528.455 250.699L527.912 253.823Z" fill="#FBE62E" stroke="#01090F" stroke-width="1.25" stroke-miterlimit="10"/>
<path d="M472.5 90L471.921 86.6596C471.419 83.8018 469.179 81.562 466.34 81.0793L463 80.5L466.34 79.9207C469.198 79.4187 471.438 77.1789 471.921 74.3405L472.5 71L473.079 74.3405C473.581 77.1982 475.821 79.438 478.66 79.9207L482 80.5L478.66 81.0793C475.802 81.5813 473.562 83.8212 473.079 86.6596L472.5 90Z" fill="white" stroke="#01090F" stroke-width="1.25" stroke-miterlimit="10"/>
<path d="M209.5 90L208.384 83.4809C207.444 77.9016 203.04 73.5556 197.519 72.6159L191 71.5L197.519 70.3841C203.098 69.4444 207.444 65.0397 208.384 59.519L209.5 53L210.616 59.519C211.556 65.0984 215.96 69.4444 221.481 70.3841L228 71.5L221.481 72.6159C215.902 73.5556 211.556 77.9603 210.616 83.4809L209.5 90Z" fill="white" stroke="#01090F" stroke-width="1.25" stroke-miterlimit="10"/>
<path d="M138 150L136.311 140.133C134.889 131.689 128.222 125.111 119.867 123.689L110 122L119.867 120.311C128.311 118.889 134.889 112.222 136.311 103.867L138 94L139.689 103.867C141.111 112.311 147.778 118.889 156.133 120.311L166 122L156.133 123.689C147.689 125.111 141.111 131.778 139.689 140.133L138 150Z" fill="white" stroke="#01090F" stroke-width="1.25" stroke-miterlimit="10"/>
<path d="M49.027 299.054C51.8034 299.054 54.0541 296.803 54.0541 294.027C54.0541 291.251 51.8034 289 49.027 289C46.2507 289 44 291.251 44 294.027C44 296.803 46.2507 299.054 49.027 299.054Z" fill="#FFC664" stroke="#01090F" stroke-width="1.25" stroke-miterlimit="10"/>
<path d="M244.027 141.054C246.803 141.054 249.054 138.803 249.054 136.027C249.054 133.251 246.803 131 244.027 131C241.251 131 239 133.251 239 136.027C239 138.803 241.251 141.054 244.027 141.054Z" fill="#BD80FF" stroke="#01090F" stroke-width="1.25" stroke-miterlimit="10"/>
<path d="M479.027 281.054C481.803 281.054 484.054 278.803 484.054 276.027C484.054 273.251 481.803 271 479.027 271C476.251 271 474 273.251 474 276.027C474 278.803 476.251 281.054 479.027 281.054Z" fill="#2AE21D" stroke="#01090F" stroke-width="1.25" stroke-miterlimit="10"/>
<path d="M53.5273 160.055C58.2368 160.055 62.0547 156.237 62.0547 151.527C62.0547 146.818 58.2368 143 53.5273 143C48.8178 143 45 146.818 45 151.527C45 156.237 48.8178 160.055 53.5273 160.055Z" fill="#F45183" stroke="#01090F" stroke-width="1.25" stroke-miterlimit="10"/>
<path d="M589.238 365.476C592.683 365.476 595.476 362.683 595.476 359.238C595.476 355.793 592.683 353 589.238 353C585.793 353 583 355.793 583 359.238C583 362.683 585.793 365.476 589.238 365.476Z" fill="#F45183" stroke="#01090F" stroke-width="1.25" stroke-miterlimit="10"/>
</svg>
