<svg width="607" height="373" viewBox="0 0 607 373" fill="none" xmlns="http://www.w3.org/2000/svg">
<rect x="104.006" y="0.35373" width="152.941" height="130.008" rx="7.3911" fill="#FFA9C6" stroke="black" stroke-width="0.70746"/>
<path d="M209.91 33.1073C195.438 25.5822 177.605 31.2145 170.08 45.6874" stroke="white" stroke-width="2.69594" stroke-linecap="round"/>
<rect x="-0.314664" y="-0.0439577" width="6.05164" height="55.5312" rx="3.02582" transform="matrix(-0.602476 -0.798137 -0.798137 0.602476 171.191 79.892)" fill="#FF7D00" stroke="black" stroke-width="0.449323"/>
<circle cx="35.7553" cy="35.7553" r="33.7333" transform="matrix(-1 0 0 1 231.323 20.7972)" stroke="#FF7D00" stroke-width="4.04391"/>
<circle cx="35.7553" cy="35.7553" r="35.5306" transform="matrix(-1 0 0 1 231.323 20.7972)" stroke="black" stroke-width="0.449323"/>
<circle cx="32.5048" cy="32.5048" r="32.2802" transform="matrix(-1 0 0 1 228.072 24.0477)" stroke="black" stroke-width="0.449323"/>
<rect x="124.745" y="227.221" width="117.015" height="107.419" rx="5.30595" fill="#FFFBEB" stroke="black" stroke-width="0.70746"/>
<rect x="139.473" y="254.518" width="86.0963" height="3.77064" rx="1.88532" fill="#2C71F0"/>
<path d="M141.373 271.154H223.288" stroke="#2C71F0" stroke-width="0.70746"/>
<path d="M141.373 278.813H223.288" stroke="#2C71F0" stroke-width="0.70746"/>
<path d="M141.373 286.138H223.288" stroke="#2C71F0" stroke-width="0.70746"/>
<path d="M141.373 294.131H223.288" stroke="#2C71F0" stroke-width="0.70746"/>
<path d="M207.81 320.109C208.435 319.09 209.395 318.002 210.763 318.241C212.225 318.496 213.176 320.949 213.068 322.248C213.056 322.402 212.353 325.276 211.878 324.493C211.557 323.965 211.628 322.846 211.743 322.294C212.024 320.932 212.681 318.51 214.078 317.834C215.894 316.954 216.267 320.618 216.323 321.631C216.363 322.353 216.46 323.451 216.014 324.094C215.659 324.607 215.432 323.477 215.404 323.303C215.207 322.087 215.479 320.933 216.037 319.845C216.319 319.295 217.24 317.582 218.116 317.864C219.139 318.193 219.034 320.131 218.967 320.9C218.84 322.353 218.469 323.758 217.98 325.126" stroke="#2C71F0" stroke-width="0.70746" stroke-linecap="round"/>
<path d="M206.996 328.924C213.11 327.778 219.067 326.036 225.168 324.856" stroke="#2C71F0" stroke-width="0.70746" stroke-linecap="round"/>
<path d="M356.954 331.736C434.677 331.736 497.685 268.729 497.685 191.006C497.685 113.282 434.677 50.2754 356.954 50.2754C279.231 50.2754 216.224 113.282 216.224 191.006C216.224 268.729 279.231 331.736 356.954 331.736Z" fill="#00AC6B" stroke="black" stroke-width="0.70746" stroke-miterlimit="10"/>
<path d="M357.841 50.2751C411.763 136.519 411.118 246.218 355.987 331.736" stroke="black" stroke-width="0.70746" stroke-miterlimit="10" stroke-linejoin="round"/>
<path d="M357.841 50.2751L355.987 331.736" stroke="black" stroke-width="0.70746" stroke-miterlimit="10" stroke-linejoin="round"/>
<path d="M357.841 50.2751C485.03 101.618 483.901 282.085 355.987 331.736" stroke="black" stroke-width="0.70746" stroke-miterlimit="10" stroke-linejoin="round"/>
<path d="M357.679 50.2751C302.628 135.874 301.903 245.492 355.906 331.736" stroke="black" stroke-width="0.70746" stroke-miterlimit="10" stroke-linejoin="round"/>
<path d="M357.68 50.2751C229.846 99.9257 228.717 280.473 355.907 331.736" stroke="black" stroke-width="0.70746" stroke-miterlimit="10" stroke-linejoin="round"/>
<path d="M497.604 191.972L216.143 190.198" stroke="black" stroke-width="0.70746" stroke-miterlimit="10" stroke-linejoin="round"/>
<path d="M224.768 240.574L488.384 242.266" stroke="black" stroke-width="0.70746" stroke-miterlimit="10" stroke-linejoin="round"/>
<path d="M257.976 291.112L455.127 292.402" stroke="black" stroke-width="0.70746" stroke-miterlimit="10" stroke-linejoin="round"/>
<path d="M225.57 139.823L488.557 141.516" stroke="black" stroke-width="0.70746" stroke-miterlimit="10" stroke-linejoin="round"/>
<path d="M259.266 89.689L456.337 90.9786" stroke="black" stroke-width="0.70746" stroke-miterlimit="10" stroke-linejoin="round"/>
<rect x="440.85" y="12.2939" width="128.751" height="108.013" rx="10.2582" fill="#FFFBEB" stroke="black" stroke-width="0.70746"/>
<path d="M531.288 44.3561C525.012 37.201 515.805 32.6788 505.539 32.6788V66.9289L531.288 44.3561Z" fill="#FFE342" stroke="black" stroke-width="0.70746" stroke-miterlimit="10"/>
<path d="M505.54 32.6787C486.626 32.6787 471.29 48.0095 471.29 66.9288H505.54V32.6787Z" fill="#FFEBD7" stroke="black" stroke-width="0.70746" stroke-miterlimit="10"/>
<path d="M471.289 66.7357C471.289 85.6495 486.626 100.986 505.539 100.986C512.868 100.986 519.654 98.6731 525.224 94.7535L505.539 66.7357H471.289Z" fill="#FFA9C6" stroke="black" stroke-width="0.70746" stroke-miterlimit="10"/>
<path d="M539.789 66.9236C539.789 58.2756 536.576 50.3822 531.288 44.3508L505.539 66.9236L525.224 94.9414C534.03 88.7418 539.789 78.5086 539.789 66.9236Z" fill="#FF7D00" stroke="black" stroke-width="0.70746" stroke-miterlimit="10"/>
<path d="M519.568 320.008C516.91 318.839 514.037 317.882 511.163 317.245C511.803 317.032 512.444 316.713 512.978 316.501C518.32 314.056 522.71 310.017 525.401 304.808C528.198 299.706 529.188 293.753 528.258 288.014C527.328 282.274 524.585 276.959 520.342 273.026C516.099 268.987 510.677 266.542 504.925 265.904C499.173 265.266 493.304 266.648 488.279 269.731C483.255 272.813 479.394 277.384 477.342 282.805C475.182 288.226 474.938 294.285 476.508 299.812C478.078 305.446 481.57 310.335 486.242 313.737C486.348 313.843 486.455 313.843 486.667 313.949H486.561C488.472 315.331 490.598 316.394 492.725 317.245C482.696 319.371 473.714 325.11 467.597 333.401C461.236 326.811 457.016 318.414 455.357 309.379C453.699 300.344 454.812 290.99 458.372 282.593C462.039 274.089 468.045 266.861 475.638 261.759C483.337 256.657 492.304 253.893 501.47 253.893C510.636 253.787 519.681 256.444 527.329 261.44C534.976 266.436 541.015 273.557 544.701 282.061C548.388 290.458 549.406 299.812 547.868 308.847C546.223 317.882 542.023 326.28 535.701 332.976C531.574 327.343 526.054 322.878 519.568 320.008Z" fill="#FF7D00" stroke="black" stroke-width="0.720701" stroke-miterlimit="10"/>
<path d="M501.055 347.539C494.76 347.433 488.472 346.157 482.724 343.713C476.975 341.268 471.659 337.654 467.415 333.083C473.645 324.792 482.637 319.052 492.89 316.82C490.654 315.97 488.526 314.907 486.613 313.525H486.719C486.613 313.525 486.4 313.419 486.294 313.312C481.511 309.805 478.122 304.915 476.443 299.388C474.765 293.754 475.116 287.802 477.277 282.38C479.439 276.959 483.304 272.282 488.333 269.306C493.364 266.224 499.238 264.948 505.103 265.48C510.968 266.117 516.503 268.562 520.75 272.601C524.997 276.641 527.851 281.849 528.781 287.695C529.712 293.435 528.721 299.388 525.921 304.49C523.121 309.592 518.725 313.737 513.271 316.182C512.63 316.501 511.989 316.714 511.347 316.926C514.331 317.564 517.1 318.521 519.868 319.69C526.362 322.56 531.789 327.125 536.135 332.759C531.629 337.542 526.372 341.268 520.278 343.819C514.184 346.37 507.669 347.645 501.055 347.539Z" fill="#FF7D00" stroke="black" stroke-width="0.720701" stroke-miterlimit="10"/>
<path d="M519.568 320.008C516.91 318.839 514.037 317.883 511.163 317.245C511.803 317.032 512.444 316.713 512.978 316.501C518.32 314.056 522.71 310.017 525.401 304.808C528.198 299.706 529.188 293.754 528.258 288.014C527.328 282.274 524.585 276.959 520.342 273.026C516.099 268.987 510.677 266.542 504.925 265.904C499.173 265.267 493.304 266.649 488.279 269.731C483.255 272.814 479.394 277.384 477.342 282.805C475.182 288.226 474.938 294.285 476.508 299.813C478.078 305.446 481.57 310.336 486.242 313.737C486.348 313.843 486.455 313.843 486.667 313.95H486.561C488.472 315.332 490.598 316.395 492.725 317.245C482.696 319.371 473.714 325.111 467.597 333.402C461.236 326.811 457.016 318.414 455.357 309.379C453.699 300.344 454.812 290.99 458.372 282.593C462.039 274.089 468.045 266.861 475.638 261.759C483.337 256.657 492.304 253.893 501.47 253.893C510.636 253.787 519.681 256.444 527.329 261.44C534.976 266.436 541.015 273.558 544.701 282.061C548.388 290.459 549.406 299.813 547.868 308.848C546.223 317.883 542.023 326.28 535.701 332.976C531.574 327.343 526.054 322.878 519.568 320.008Z" fill="#FF7D00" stroke="black" stroke-width="0.720701" stroke-miterlimit="10"/>
<path d="M501.055 347.54C494.76 347.433 488.472 346.158 482.723 343.713C476.975 341.268 471.659 337.654 467.415 333.083C473.645 324.792 482.637 319.053 492.89 316.82C490.654 315.97 488.526 314.907 486.613 313.525H486.719C486.613 313.525 486.4 313.419 486.294 313.313C481.511 309.805 478.122 304.915 476.443 299.388C474.765 293.754 475.115 287.802 477.277 282.381C479.439 276.96 483.303 272.283 488.333 269.307C493.363 266.224 499.238 264.949 505.103 265.48C510.968 266.118 516.503 268.563 520.75 272.602C524.997 276.641 527.851 281.849 528.781 287.696C529.712 293.435 528.721 299.388 525.921 304.49C523.121 309.592 518.725 313.738 513.271 316.183C512.63 316.501 511.988 316.714 511.347 316.927C514.331 317.564 517.1 318.521 519.868 319.69C526.362 322.56 531.789 327.125 536.135 332.759C531.629 337.542 526.372 341.268 520.278 343.819C514.183 346.37 507.669 347.646 501.055 347.54Z" fill="#FF7D00" stroke="black" stroke-width="0.720701" stroke-miterlimit="10"/>
<rect x="498.038" y="105.303" width="108.02" height="39.894" rx="19.947" fill="#2C71F0" stroke="black" stroke-width="0.70746"/>
<path d="M512.137 136.793L527.537 125.592L539.905 136.793L558.805 117.425L573.972 136.793L585.64 115.092" stroke="#FFFBEB" stroke-width="2.12238" stroke-linecap="round"/>
<path d="M588.008 111.042L589.549 117.762L581.304 112.652L588.008 111.042Z" fill="#FFFBEB"/>
<path d="M534.863 324.328C534.734 324.29 534.595 324.328 534.503 324.426C534.411 324.525 534.384 324.667 534.432 324.793L549.709 364.946C549.758 365.076 549.88 365.165 550.019 365.173C550.158 365.181 550.289 365.106 550.353 364.983L557.286 351.63L572.521 365.707C572.662 365.837 572.881 365.831 573.015 365.694L579.068 359.485C579.134 359.417 579.171 359.325 579.168 359.23C579.166 359.134 579.125 359.044 579.056 358.979L563.926 344.889L576.791 337.447C576.913 337.376 576.981 337.24 576.965 337.099C576.948 336.959 576.85 336.842 576.714 336.802L534.863 324.328Z" fill="#FFA9C6" stroke="black" stroke-width="0.70746" stroke-linejoin="round"/>
<path d="M230.283 365.124C256.14 365.124 277.102 344.162 277.102 318.305C277.102 292.448 256.14 271.486 230.283 271.486C204.426 271.486 183.464 292.448 183.464 318.305C183.464 344.162 204.426 365.124 230.283 365.124Z" fill="#FCEB64" stroke="black" stroke-width="0.70746" stroke-linecap="round" stroke-linejoin="round"/>
<path d="M230.283 354.494C250.269 354.494 266.471 338.292 266.471 318.306C266.471 298.319 250.269 282.117 230.283 282.117C210.296 282.117 194.094 298.319 194.094 318.306C194.094 338.292 210.296 354.494 230.283 354.494Z" fill="#FCEB64" stroke="black" stroke-width="0.70746" stroke-linecap="round" stroke-linejoin="round"/>
<path d="M227.534 347.223V340.217C218.299 338.71 214.114 331.898 213.656 326.532L222.687 324.496C223.013 328.294 225.64 331.705 231.271 331.705C234.55 331.705 236.902 330.126 236.902 327.581C236.902 325.677 235.466 324.434 232.829 323.844L227.005 322.469C219.663 320.698 215.152 316.248 215.152 310.026C215.152 302.685 220.651 297.645 227.524 296.463V289.336H235.059V296.606C237.86 297.121 240.442 298.464 242.473 300.46C244.504 302.456 245.89 305.015 246.453 307.807L237.35 310.23C236.963 308.194 235.843 304.793 230.67 304.793C227.005 304.793 225.172 306.961 225.172 309.059C225.172 310.821 226.475 312.195 229.031 312.786L234.733 314.028C243.51 315.993 246.952 321.156 246.952 327C246.952 332.845 242.625 338.659 235.028 340.034V347.162L227.534 347.223Z" fill="#FCEB64" stroke="black" stroke-width="0.70746" stroke-linecap="round" stroke-linejoin="round"/>
<mask id="path-42-inside-1_698_38730" fill="white">
<path fill-rule="evenodd" clip-rule="evenodd" d="M249.608 12.5687C252.508 12.5742 255.266 13.5764 257.544 15.2578C259.539 13.5673 262.139 12.5638 265.055 12.5693C268.165 12.5751 271.111 13.7271 273.478 15.6337C275.521 13.7171 278.283 12.5634 281.41 12.5693C283.619 12.5734 285.746 13.1562 287.642 14.1772C289.371 13.1485 291.412 12.5647 293.639 12.5688C296.748 12.5747 299.694 13.7266 302.061 15.6331C304.105 13.7166 306.867 12.563 309.993 12.5688C316.985 12.5819 323.149 18.3887 323.763 25.5387C324.376 32.6886 319.206 38.4742 312.215 38.461C309.105 38.4552 306.159 37.3033 303.792 35.3968C301.749 37.3133 298.986 38.4669 295.86 38.461C293.651 38.4569 291.524 37.8741 289.629 36.8531C287.899 37.8818 285.858 38.4657 283.631 38.4615C280.522 38.4557 277.576 37.3037 275.209 35.3971C273.165 37.3137 270.403 38.4674 267.277 38.4615C264.377 38.4561 261.619 37.4538 259.341 35.7724C257.346 37.463 254.746 38.4664 251.83 38.461C244.839 38.4479 238.674 32.6411 238.06 25.4911C237.447 18.3412 242.617 12.5556 249.608 12.5687Z"/>
</mask>
<path fill-rule="evenodd" clip-rule="evenodd" d="M249.608 12.5687C252.508 12.5742 255.266 13.5764 257.544 15.2578C259.539 13.5673 262.139 12.5638 265.055 12.5693C268.165 12.5751 271.111 13.7271 273.478 15.6337C275.521 13.7171 278.283 12.5634 281.41 12.5693C283.619 12.5734 285.746 13.1562 287.642 14.1772C289.371 13.1485 291.412 12.5647 293.639 12.5688C296.748 12.5747 299.694 13.7266 302.061 15.6331C304.105 13.7166 306.867 12.563 309.993 12.5688C316.985 12.5819 323.149 18.3887 323.763 25.5387C324.376 32.6886 319.206 38.4742 312.215 38.461C309.105 38.4552 306.159 37.3033 303.792 35.3968C301.749 37.3133 298.986 38.4669 295.86 38.461C293.651 38.4569 291.524 37.8741 289.629 36.8531C287.899 37.8818 285.858 38.4657 283.631 38.4615C280.522 38.4557 277.576 37.3037 275.209 35.3971C273.165 37.3137 270.403 38.4674 267.277 38.4615C264.377 38.4561 261.619 37.4538 259.341 35.7724C257.346 37.463 254.746 38.4664 251.83 38.461C244.839 38.4479 238.674 32.6411 238.06 25.4911C237.447 18.3412 242.617 12.5556 249.608 12.5687Z" fill="#FCEB64"/>
<path d="M257.544 15.2578L257.154 15.81L257.625 16.1575L258.034 15.8112L257.544 15.2578ZM249.608 12.5687L249.671 13.2739L249.608 12.5687ZM265.055 12.5693L265.118 13.2745L265.055 12.5693ZM273.478 15.6337L273.06 16.1649L273.561 16.5685L273.99 16.1664L273.478 15.6337ZM281.41 12.5693L281.347 11.8641L281.41 12.5693ZM287.642 14.1772L287.347 14.7902L287.715 14.9881L288.047 14.7907L287.642 14.1772ZM293.639 12.5688L293.576 11.8636L293.639 12.5688ZM302.061 15.6331L301.644 16.1644L302.145 16.5679L302.574 16.1658L302.061 15.6331ZM309.993 12.5688L309.93 11.8636L309.993 12.5688ZM323.763 25.5387L323.055 25.5349L323.055 25.5349L323.763 25.5387ZM312.215 38.461L312.278 39.1662L312.215 38.461ZM303.792 35.3968L304.21 34.8655L303.709 34.4619L303.28 34.8641L303.792 35.3968ZM295.86 38.461L295.797 37.7559L295.86 38.461ZM289.629 36.8531L289.923 36.2402L289.555 36.0422L289.223 36.2396L289.629 36.8531ZM283.631 38.4615L283.568 37.7563L283.631 38.4615ZM275.209 35.3971L275.626 34.8659L275.125 34.4623L274.696 34.8644L275.209 35.3971ZM267.277 38.4615L267.34 39.1667L267.277 38.4615ZM259.341 35.7724L259.731 35.2203L259.26 34.8728L258.851 35.219L259.341 35.7724ZM251.83 38.461L251.767 37.7558L251.83 38.461ZM238.06 25.4911L238.769 25.4949L238.06 25.4911ZM257.934 14.7057C255.528 12.9299 252.612 11.8693 249.545 11.8636L249.671 13.2739C252.405 13.2791 255.004 14.223 257.154 15.81L257.934 14.7057ZM264.992 11.8641C261.908 11.8583 259.161 12.9201 257.055 14.7045L258.034 15.8112C259.918 14.2145 262.369 13.2693 265.118 13.2745L264.992 11.8641ZM273.895 15.1025C271.396 13.0895 268.281 11.8703 264.992 11.8641L265.118 13.2745C268.049 13.28 270.826 14.3648 273.06 16.1649L273.895 15.1025ZM281.347 11.8641C278.041 11.8579 275.121 13.0787 272.965 15.101L273.99 16.1664C275.921 14.3554 278.526 13.269 281.473 13.2745L281.347 11.8641ZM287.936 13.5642C285.932 12.4849 283.682 11.8685 281.347 11.8641L281.473 13.2745C283.556 13.2784 285.56 13.8276 287.347 14.7902L287.936 13.5642ZM293.576 11.8636C291.222 11.8592 289.063 12.4767 287.236 13.5637L288.047 14.7907C289.678 13.8203 291.602 13.2701 293.702 13.274L293.576 11.8636ZM302.478 15.1019C299.979 13.0889 296.864 11.8698 293.576 11.8636L293.702 13.274C296.632 13.2795 299.409 14.3643 301.644 16.1644L302.478 15.1019ZM309.93 11.8636C306.624 11.8574 303.705 13.0782 301.549 15.1004L302.574 16.1658C304.505 14.3549 307.11 13.2685 310.056 13.274L309.93 11.8636ZM324.471 25.5425C323.826 18.0201 317.332 11.8775 309.93 11.8636L310.056 13.274C316.638 13.2864 322.473 18.7574 323.055 25.5349L324.471 25.5425ZM312.278 39.1662C319.677 39.1801 325.117 33.0631 324.471 25.5425L323.055 25.5349C323.636 32.3141 318.735 37.7682 312.152 37.7559L312.278 39.1662ZM303.375 35.928C305.874 37.9409 308.989 39.1601 312.278 39.1662L312.152 37.7559C309.221 37.7504 306.444 36.6656 304.21 34.8655L303.375 35.928ZM295.923 39.1662C299.229 39.1724 302.148 37.9517 304.305 35.9295L303.28 34.8641C301.349 36.675 298.744 37.7614 295.797 37.7559L295.923 39.1662ZM289.334 37.4661C291.338 38.5455 293.588 39.1619 295.923 39.1662L295.797 37.7559C293.714 37.7519 291.71 37.2028 289.923 36.2402L289.334 37.4661ZM283.694 39.1667C286.048 39.1711 288.207 38.5536 290.034 37.4667L289.223 36.2396C287.592 37.2101 285.668 37.7603 283.568 37.7563L283.694 39.1667ZM274.791 35.9283C277.291 37.9413 280.406 39.1605 283.694 39.1667L283.568 37.7563C280.638 37.7508 277.861 36.666 275.626 34.8659L274.791 35.9283ZM267.34 39.1667C270.646 39.1729 273.565 37.9521 275.721 35.9298L274.696 34.8644C272.765 36.6754 270.16 37.7618 267.214 37.7563L267.34 39.1667ZM258.95 36.3246C261.357 38.1004 264.273 39.161 267.34 39.1667L267.214 37.7563C264.48 37.7512 261.881 36.8073 259.731 35.2203L258.95 36.3246ZM251.893 39.1662C254.976 39.1719 257.724 38.1102 259.83 36.3258L258.851 35.219C256.967 36.8158 254.516 37.7609 251.767 37.7558L251.893 39.1662ZM237.352 25.4873C237.997 33.0097 244.492 39.1523 251.893 39.1662L251.767 37.7558C245.185 37.7434 239.35 32.2724 238.769 25.4949L237.352 25.4873ZM249.545 11.8636C242.146 11.8497 236.706 17.9667 237.352 25.4873L238.769 25.4949C238.187 18.7157 243.088 13.2616 249.671 13.2739L249.545 11.8636Z" fill="black" mask="url(#path-42-inside-1_698_38730)"/>
<rect x="0.941865" y="108.445" width="185.939" height="40.7696" rx="20.3848" fill="#FFFBEB" stroke="black" stroke-width="0.70746"/>
<path d="M32.3636 129.65C30.714 119.34 34.8381 119.34 44.736 129.65C54.634 139.96 58.7581 139.96 57.1085 129.65C55.4588 119.34 59.5829 119.34 69.4809 129.65C79.3788 139.96 83.503 139.96 81.8533 129.65C80.2036 119.34 84.3278 119.34 94.2257 129.65C104.124 139.96 108.248 139.96 106.598 129.65C104.948 119.34 109.073 119.34 118.971 129.65C128.868 139.96 132.993 139.96 131.343 129.65C129.693 119.34 133.817 119.34 143.715 129.65C153.613 139.96 157.737 139.96 156.088 129.65" stroke="black" stroke-width="0.70746"/>
<path d="M449.472 248.696C447.838 247.978 446.072 247.39 444.305 246.998C444.699 246.867 445.093 246.671 445.421 246.54C448.705 245.037 451.403 242.554 453.057 239.353C454.777 236.217 455.385 232.558 454.814 229.029C454.242 225.501 452.556 222.234 449.948 219.816C447.34 217.333 444.006 215.831 440.471 215.438C436.935 215.046 433.327 215.896 430.239 217.791C427.15 219.686 424.777 222.495 423.515 225.828C422.188 229.16 422.038 232.884 423.003 236.282C423.968 239.745 426.114 242.75 428.986 244.841C429.052 244.907 429.117 244.907 429.248 244.972H429.182C430.357 245.821 431.664 246.475 432.972 246.998C426.807 248.304 421.286 251.833 417.525 256.929C413.615 252.878 411.021 247.716 410.001 242.162C408.982 236.609 409.666 230.859 411.855 225.697C414.109 220.47 417.8 216.027 422.468 212.89C427.201 209.754 432.713 208.055 438.347 208.055C443.981 207.99 449.541 209.623 454.242 212.694C458.943 215.765 462.655 220.143 464.921 225.37C467.188 230.532 467.813 236.282 466.868 241.836C465.857 247.39 463.275 252.551 459.389 256.668C456.852 253.205 453.459 250.461 449.472 248.696Z" fill="#FF7D00" stroke="black" stroke-width="0.443017" stroke-miterlimit="10"/>
<path d="M438.091 265.62C434.222 265.555 430.357 264.77 426.823 263.268C423.289 261.765 420.022 259.543 417.413 256.734C421.243 251.637 426.77 248.109 433.073 246.737C431.698 246.214 430.39 245.561 429.214 244.711H429.279C429.214 244.711 429.083 244.646 429.018 244.581C426.078 242.424 423.994 239.419 422.963 236.021C421.931 232.558 422.147 228.899 423.475 225.567C424.804 222.234 427.18 219.359 430.272 217.53C433.364 215.635 436.975 214.851 440.58 215.178C444.185 215.57 447.588 217.073 450.198 219.555C452.809 222.038 454.563 225.24 455.135 228.834C455.707 232.362 455.098 236.021 453.377 239.157C451.656 242.294 448.954 244.842 445.601 246.345C445.207 246.541 444.813 246.671 444.418 246.802C446.253 247.194 447.955 247.782 449.656 248.501C453.648 250.265 456.984 253.071 459.655 256.534C456.886 259.475 453.654 261.765 449.908 263.333C446.162 264.901 442.157 265.685 438.091 265.62Z" fill="#FF7D00" stroke="black" stroke-width="0.443017" stroke-miterlimit="10"/>
</svg>
