<svg width="371" height="233" viewBox="0 0 371 233" fill="none" xmlns="http://www.w3.org/2000/svg">
<path d="M316.067 231.825H140.586L193.875 172.728H369.349L316.067 231.825Z" fill="black" stroke="black" stroke-width="1.2"/>
<path d="M132.623 155.836C171.499 155.836 203.015 124.321 203.015 85.444C203.015 46.5675 171.499 15.0518 132.623 15.0518C93.7462 15.0518 62.2305 46.5675 62.2305 85.444C62.2305 124.321 93.7462 155.836 132.623 155.836Z" fill="#FFA0C0" stroke="black" stroke-width="1.2"/>
<path d="M270.455 209.968H43.1406L112.17 133.57H339.484L270.455 209.968Z" fill="#FFEB33" stroke="black" stroke-width="1.2"/>
<path d="M142.252 170.826C142.252 165.069 146.627 160.331 152.241 159.759C152.613 159.721 152.994 159.702 153.366 159.702H202.435C208.202 159.702 212.93 164.077 213.511 169.691C213.55 170.063 213.559 170.444 213.559 170.826V173.962H142.242V170.826H142.252Z" fill="#FF9418" stroke="black" stroke-width="1.2"/>
<path d="M133.344 185.295C133.344 177.555 139.625 171.274 147.365 171.274H209.188C216.928 171.274 223.209 177.546 223.209 185.295V189.251H133.344V185.295Z" fill="#FF9418" stroke="black" stroke-width="1.2"/>
<path d="M202.982 119.224L202.915 119.091C201.752 116.86 199.35 115.716 196.986 116.012C198.54 114.248 198.95 111.646 197.797 109.444C196.405 106.785 193.279 105.67 190.543 106.709L175.959 78.8092C178.438 77.1792 179.353 73.9193 177.951 71.2314C176.789 69.0105 174.396 67.8571 172.051 68.1526C173.634 66.3892 174.062 63.7775 172.9 61.5566L172.833 61.4232C171.336 58.5636 167.8 57.4484 164.941 58.9449L122.4 81.173C119.541 82.6695 118.416 86.2058 119.912 89.0654L119.979 89.1988C121.152 91.4388 123.563 92.5826 125.927 92.268C124.373 94.0314 123.963 96.6336 125.117 98.845C126.585 101.657 130.007 102.753 132.837 101.39L136.793 109.216L61.616 150.984C60.3959 149.22 58.0415 148.572 56.078 149.564C54.7054 150.25 53.8666 151.565 53.7046 152.986C52.0937 151.584 49.7393 151.194 47.6995 152.194C44.9925 153.519 43.8678 156.798 45.1927 159.505L51.9221 173.241C53.247 175.948 56.526 177.072 59.233 175.747C61.7399 174.518 62.8551 171.639 61.9686 169.075C63.1601 169.676 64.6185 169.742 65.9053 169.094C68.0213 168.027 68.8887 165.472 67.8879 163.337L143.303 121.445L147.364 129.213C144.552 130.729 143.465 134.227 144.952 137.067C146.115 139.288 148.498 140.432 150.843 140.146C149.27 141.91 148.851 144.521 150.014 146.742L150.081 146.876C151.577 149.735 155.104 150.85 157.973 149.354L200.513 127.126C203.373 125.629 204.478 122.093 202.982 119.233V119.224Z" fill="white" stroke="black" stroke-width="1.2"/>
<path d="M149.902 80.0865L170.357 69.3918C173.217 67.8953 174.322 64.359 172.826 61.4995L172.759 61.366C171.263 58.5065 167.736 57.3913 164.867 58.8878L155.001 64.054C149.387 66.9802 138.168 72.8423 138.168 72.8423L122.326 81.1159C119.467 82.6124 118.361 86.1487 119.858 89.0082L119.924 89.1417C121.421 92.0012 124.957 93.1164 127.817 91.6199L137.11 86.7683" stroke="black" stroke-width="1.2"/>
<path d="M173.022 128.203L152.548 138.898C149.689 140.394 148.583 143.93 150.079 146.79L150.146 146.923C151.643 149.783 155.179 150.898 158.038 149.402L167.923 144.235C173.518 141.309 184.756 135.447 184.756 135.447L200.579 127.174C203.438 125.677 204.544 122.141 203.047 119.281L202.981 119.148C201.484 116.288 197.957 115.173 195.088 116.67L185.795 121.521" stroke="black" stroke-width="1.2"/>
<path d="M53.4834 152.728L58.7164 163.985" stroke="black" stroke-width="1.2"/>
<path d="M63.6572 154.558L68.2039 164.157" stroke="black" stroke-width="1.2"/>
<path d="M136.434 108.5L141.219 117.718" stroke="black" stroke-width="1.2"/>
<path d="M132.429 101.561L169.65 82.2974" stroke="black" stroke-width="1.2"/>
<path d="M153.875 125.848L191.097 106.584" stroke="black" stroke-width="1.2"/>
<path d="M311.051 65.3701L309.44 56.5818C308.229 48.9945 302.253 43.0085 294.656 41.8075L285.887 40.2157L294.656 38.6143C302.243 37.4229 308.229 31.4274 309.44 23.8401L311.051 15.0518L312.633 23.8401C313.843 31.4274 319.82 37.4229 327.417 38.6143L336.186 40.2157L327.417 41.8075C319.829 43.0085 313.843 48.9945 312.633 56.5818L311.051 65.3701Z" fill="#FFA0C0" stroke="black" stroke-width="1.2"/>
<path d="M223.551 15.0616L228.555 14.1466C232.882 13.4603 236.285 10.0479 236.972 5.73001L237.877 0.735352L238.792 5.73001C239.469 10.0574 242.881 13.4603 247.209 14.1466L252.213 15.0616L247.209 15.9576C242.881 16.6439 239.478 20.0563 238.792 24.3742L237.877 29.3689L236.972 24.3742C236.285 20.0468 232.882 16.6439 228.555 15.9576L223.551 15.0616Z" fill="white" stroke="black" stroke-width="1.2"/>
<path d="M0.707031 130.278L6.69808 129.181C11.8789 128.359 15.9528 124.27 16.7745 119.095L17.8585 113.109L18.9541 119.095C19.7643 124.281 23.8496 128.359 29.0304 129.181L35.0215 130.278L29.0304 131.352C23.8496 132.174 19.7757 136.264 18.9541 141.438L17.8585 147.424L16.7745 141.438C15.9528 136.252 11.8789 132.174 6.69808 131.352L0.707031 130.278Z" fill="white" stroke="black" stroke-width="1.2"/>
</svg>
