<svg fill="none" height="122" viewBox="0 0 392 122" width="392" xmlns="http://www.w3.org/2000/svg"><path d="m48.6587 81.7573c-23.4834 0-43.08692 16.8925-47.60194 39.3677h390.06824c0-.056 0-.113 0-.171 0-23.5462-18.825-42.6104-42.027-42.6104-4.777 0-9.375.8133-13.653 2.304l-1.317.4587.16-1.3851c.315-2.7369.487-5.5174.487-8.3418 0-38.9542-31.151-70.5044-69.545-70.5044-33.49 0-61.46 24.003-68.062 55.9887l-.273 1.3244-1.097-.7921c-11.378-8.223-25.301-13.066-40.341-13.066-33.122 0-60.8374 23.4715-67.8365 54.9178l-.3915 1.7592-1.1402-1.3956c-8.9144-10.9094-22.3767-17.8541-37.4301-17.8541z" fill="#00ac6b" stroke="#06122c" stroke-miterlimit="10" stroke-width="1.75"/></svg>