<svg width="260" height="200" viewBox="0 0 260 200" fill="none" xmlns="http://www.w3.org/2000/svg">
<path d="M0 95.9302L4.26078 89.9651L0 84L5.96506 88.2608L11.9302 84L7.66941 89.9651L11.9302 95.9302L5.96506 91.6694L0 95.9302Z" fill="white"/>
<path d="M242 163L240.984 157.413C240.222 152.587 236.413 148.778 231.587 148.016L226 147L231.587 145.984C236.413 145.222 240.222 141.413 240.984 136.587L242 131L243.016 136.587C243.778 141.413 247.587 145.222 252.413 145.984L258 147L252.413 148.016C247.587 148.778 243.778 152.587 243.016 157.413L242 163Z" fill="white" stroke="black" stroke-width="2.13039" stroke-miterlimit="10" stroke-linejoin="round"/>
<path d="M121 8.43592L128.23 7.23081L129.436 0L130.641 7.23076L137.871 8.43592L130.641 9.64108L129.436 16.8718L128.23 9.64103L121 8.43592Z" fill="white"/>
<path d="M126.172 197.894C169.345 197.894 204.343 162.896 204.343 119.723C204.343 76.5495 169.345 41.5508 126.172 41.5508C82.9987 41.5508 48 76.5495 48 119.723C48 162.896 82.9987 197.894 126.172 197.894Z" fill="#231F20"/>
<path d="M124.953 193.629C166.798 193.629 200.721 159.707 200.721 117.861C200.721 76.016 166.798 42.0938 124.953 42.0938C83.1078 42.0938 49.1855 76.016 49.1855 117.861C49.1855 159.707 83.1078 193.629 124.953 193.629Z" fill="#FB5D96"/>
<path d="M124.883 193.557C166.688 193.557 200.577 159.668 200.577 117.863C200.577 76.0576 166.688 42.168 124.883 42.168C83.0776 42.168 49.188 76.0576 49.188 117.863C49.188 159.668 83.0776 193.557 124.883 193.557Z" stroke="#231F20" stroke-width="2.02175" stroke-miterlimit="10"/>
<path d="M135.519 132.65C116.504 132.65 86.9985 130.101 75.6334 128.206C75.1234 128.134 74.7592 127.624 74.832 127.041C74.9049 126.531 75.4148 126.167 75.9977 126.239C91.734 128.862 131.949 131.412 157.812 130.173C186.516 128.862 205.531 125.074 207.498 120.338C207.935 119.245 207.79 118.153 205.968 116.696L205.895 114C209.392 116.404 210.266 118.808 209.392 121.14C206.26 128.862 175.807 131.412 157.958 132.213C150.527 132.432 142.95 132.65 135.519 132.65Z" fill="white"/>
<path d="M72.0637 111.012C71.918 111.012 71.6995 110.939 71.5538 110.866C71.0438 110.575 70.8981 109.992 71.1895 109.482C71.481 108.972 78.2563 97.2428 92.2442 86.1691C105.139 75.9696 133.843 61.6904 163.932 65.1873C164.442 65.2602 164.879 65.7702 164.806 66.2801C164.733 66.863 164.223 67.2272 163.713 67.1544C134.281 63.8031 106.086 77.791 93.4827 87.7719C79.7862 98.6271 73.0108 110.356 72.938 110.502C72.7194 110.794 72.428 111.012 72.0637 111.012Z" fill="white"/>
<path d="M170.124 157.058C169.614 157.058 169.176 156.621 169.104 156.111C169.031 152.032 159.851 128.427 147.466 104.167C138.432 86.4635 120.802 55.2822 104.847 45.2285C99.7471 42.0229 95.1574 41.2215 91.2961 42.97C87.5806 44.6456 86.8521 48.8711 86.7064 51.1296L84.7393 52.2952C84.6665 50.1825 85.0308 43.5528 90.4948 41.1487C95.0117 39.1088 100.184 39.9102 105.867 43.48C112.861 47.924 127.869 61.5476 149.215 103.147C161.381 126.897 170.925 151.012 171.071 155.893C171.143 156.621 170.706 157.058 170.124 157.058C170.196 157.058 170.124 157.058 170.124 157.058Z" fill="white"/>
<path d="M130.128 170.756C125.319 170.756 119.855 170.318 113.881 169.226C97.4164 166.093 82.7728 158.443 70.2421 146.568C69.8778 146.204 69.8049 145.548 70.2421 145.184C70.6063 144.82 71.262 144.747 71.6263 145.184C83.8657 156.768 98.2178 164.272 114.246 167.331C130.2 170.391 142.731 168.06 147.394 166.894C147.904 166.749 148.487 167.113 148.632 167.623C148.778 168.133 148.414 168.716 147.904 168.861C144.844 169.517 138.506 170.756 130.128 170.756Z" fill="white"/>
<path d="M172.091 79.1039C171.581 78.8854 170.998 79.1039 170.78 79.6139C153.732 117.425 135.81 147.513 119.054 166.674C104.556 183.211 91.2239 191.152 81.5344 188.894C76.3618 187.728 74.4677 183.576 73.812 179.933C73.0835 179.35 72.3549 178.695 71.6992 177.966C72.1363 182.629 74.0306 189.185 81.0245 190.788C82.1901 191.08 83.4286 191.225 84.74 191.225C94.6481 191.225 107.179 183.139 120.438 167.985C137.34 148.752 155.335 118.445 172.456 80.4881C172.82 79.9053 172.601 79.3225 172.091 79.1039Z" fill="white"/>
<path d="M182.218 88.1394C195.842 88.1394 206.988 77.4299 207.644 63.9521V56.7396H206.915C204.22 45.5201 194.166 37.2148 182.145 37.2148C170.124 37.2148 160.071 45.5201 157.375 56.7396H156.719C156.719 56.7396 156.719 62.2764 156.719 62.7135C156.719 63.1507 156.719 63.5149 156.719 63.9521C157.448 77.4299 168.594 88.1394 182.218 88.1394Z" fill="#FCEE70" stroke="#231F20" stroke-width="2.02175" stroke-miterlimit="10"/>
<path d="M182.218 83.4025C196.26 83.4025 207.644 72.0189 207.644 57.9766C207.644 43.9343 196.26 32.5508 182.218 32.5508C168.176 32.5508 156.792 43.9343 156.792 57.9766C156.792 72.0189 168.176 83.4025 182.218 83.4025Z" fill="#FBE62E" stroke="#231F20" stroke-width="2.02175" stroke-miterlimit="10"/>
<path d="M201.076 57.9765C201.076 68.3916 192.633 76.8347 182.218 76.8347C171.803 76.8347 163.359 68.3916 163.359 57.9765C163.359 47.5614 171.803 39.1183 182.218 39.1183C192.633 39.1183 201.076 47.5614 201.076 57.9765Z" fill="#BD80FF" stroke="black" stroke-width="1.47875"/>
<path d="M187.536 54.8447L186.516 57.0303H172.455L173.256 54.8447H187.536ZM185.642 59.1431L184.622 61.4015H172.528L173.329 59.1431H185.642ZM190.158 49.0165L188.92 51.712C188.556 51.3478 188.119 51.0564 187.609 50.7649C187.171 50.4735 186.661 50.255 186.079 50.1093C185.569 49.9636 184.986 49.8907 184.33 49.8907C183.165 49.8907 182.145 50.1821 181.27 50.8378C180.396 51.4206 179.668 52.3677 179.158 53.6062C178.648 54.8447 178.429 56.3747 178.429 58.196C178.429 60.0173 178.648 61.5472 179.158 62.7858C179.668 64.0243 180.396 64.8985 181.27 65.5542C182.145 66.137 183.165 66.5013 184.33 66.5013C184.986 66.5013 185.569 66.4284 186.079 66.2827C186.589 66.137 187.099 65.9185 187.609 65.627C188.046 65.3356 188.483 65.0442 188.847 64.7528L190.158 67.4484C189.43 68.1041 188.556 68.614 187.536 68.9783C186.516 69.3426 185.496 69.4883 184.403 69.4883C182.582 69.4883 181.052 69.0511 179.668 68.1041C178.283 67.2298 177.191 65.9185 176.389 64.2428C175.588 62.5672 175.223 60.5273 175.223 58.2688C175.223 55.9375 175.588 53.8976 176.389 52.222C177.191 50.5464 178.283 49.235 179.668 48.3608C181.052 47.4865 182.655 46.9766 184.403 46.9766C185.569 46.9766 186.589 47.1951 187.609 47.5594C188.483 47.778 189.357 48.3608 190.158 49.0165Z" fill="#FBE62E"/>
<path d="M50.4259 154.729C64.0495 154.729 75.196 144.02 75.8517 130.542V123.329H75.1231C72.4276 112.11 62.3738 103.805 50.353 103.805C38.3322 103.805 28.2784 112.11 25.5828 123.329H25C25 123.329 25 128.866 25 129.303C25 129.741 25 130.105 25 130.542C25.6557 144.02 36.8023 154.729 50.4259 154.729Z" fill="#FFAE1F" stroke="#231F20" stroke-width="2.02175" stroke-miterlimit="10"/>
<path d="M50.4259 149.992C64.4682 149.992 75.8517 138.609 75.8517 124.566C75.8517 110.524 64.4682 99.1406 50.4259 99.1406C36.3836 99.1406 25 110.524 25 124.566C25 138.609 36.3836 149.992 50.4259 149.992Z" fill="#FBE62E" stroke="#231F20" stroke-width="2.02175" stroke-miterlimit="10"/>
<path d="M69.2834 124.566C69.2834 134.981 60.8403 143.425 50.4252 143.425C40.0101 143.425 31.567 134.981 31.567 124.566C31.567 114.151 40.0101 105.708 50.4252 105.708C60.8403 105.708 69.2834 114.151 69.2834 124.566Z" fill="#FFAE1F" stroke="black" stroke-width="1.47875"/>
<path d="M55.161 119.465C55.0153 118.445 54.5781 117.644 53.7767 117.134C52.9753 116.551 51.8826 116.26 50.644 116.26C49.7698 116.26 48.9684 116.405 48.3127 116.697C47.657 116.988 47.1471 117.353 46.7828 117.862C46.4186 118.372 46.2728 118.882 46.2728 119.538C46.2728 120.048 46.4186 120.485 46.6371 120.849C46.8557 121.214 47.2199 121.578 47.5842 121.797C48.0213 122.015 48.3856 122.234 48.8955 122.452C49.3327 122.598 49.7698 122.744 50.2069 122.889L52.3197 123.472C53.0482 123.618 53.7039 123.909 54.5053 124.201C55.2338 124.492 55.8895 124.856 56.5452 125.366C57.2008 125.876 57.7108 126.459 58.0751 127.115C58.4394 127.771 58.6579 128.645 58.6579 129.665C58.6579 130.903 58.3665 131.996 57.7108 132.943C57.0552 133.89 56.1809 134.692 54.9424 135.202C53.7039 135.784 52.2468 136.003 50.5712 136.003C48.9684 136.003 47.5113 135.712 46.3457 135.202C45.18 134.692 44.233 133.963 43.5044 133.016C42.8487 132.069 42.4845 130.903 42.4116 129.592H45.7629C45.8357 130.393 46.0543 131.049 46.5642 131.559C47.0014 132.069 47.5842 132.506 48.3127 132.725C49.0413 132.943 49.7698 133.089 50.644 133.089C51.5911 133.089 52.3925 132.943 53.121 132.652C53.8496 132.36 54.4324 131.923 54.8695 131.413C55.3067 130.903 55.5252 130.248 55.5252 129.519C55.5252 128.863 55.3066 128.353 54.9424 127.916C54.5781 127.479 54.0681 127.188 53.4853 126.896C52.8296 126.605 52.174 126.386 51.3726 126.168L48.7498 125.439C47.0014 124.929 45.6172 124.274 44.5972 123.326C43.5773 122.379 43.0673 121.141 43.0673 119.684C43.0673 118.445 43.4316 117.353 44.0872 116.405C44.7429 115.458 45.69 114.73 46.8557 114.22C48.0213 113.71 49.3327 113.418 50.7898 113.418C52.2468 113.418 53.5582 113.71 54.7238 114.22C55.8895 114.73 56.7637 115.458 57.4194 116.333C58.0751 117.207 58.4394 118.3 58.4394 119.465H55.161ZM49.5512 138.334L49.6241 110.941H51.664L51.5911 138.334H49.5512Z" fill="#FBE62E"/>
<path d="M173.11 198.003C186.734 198.003 197.88 187.293 198.536 173.815V166.603H197.807C195.112 155.383 185.058 147.078 173.037 147.078C161.016 147.078 150.963 155.383 148.267 166.603H147.611C147.611 166.603 147.611 172.14 147.611 172.577C147.611 173.014 147.611 173.378 147.611 173.815C148.34 187.293 159.414 198.003 173.11 198.003Z" fill="#F8BC20" stroke="#231F20" stroke-width="2.02175" stroke-miterlimit="10"/>
<path d="M173.11 193.266C187.152 193.266 198.536 181.882 198.536 167.84C198.536 153.798 187.152 142.414 173.11 142.414C159.068 142.414 147.684 153.798 147.684 167.84C147.684 181.882 159.068 193.266 173.11 193.266Z" fill="#FBE62E" stroke="#231F20" stroke-width="2.02175" stroke-miterlimit="10"/>
<path d="M191.968 167.84C191.968 178.255 183.525 186.698 173.11 186.698C162.695 186.698 154.252 178.255 154.252 167.84C154.252 157.425 162.695 148.982 173.11 148.982C183.525 148.982 191.968 157.425 191.968 167.84Z" fill="#2C71F0" stroke="black" stroke-width="1.47875"/>
<path d="M168.957 158.006L174.202 169.809L171.798 171.193L165.387 158.006H168.957ZM179.594 168.862V171.047H166.917V168.862H179.594ZM179.594 173.087V175.273H166.917V173.087H179.594ZM174.931 168.352V179.862H171.653V168.352H174.931ZM172.527 169.736L177.772 157.934H181.342L174.931 171.12L172.527 169.736Z" fill="#FBE62E"/>
</svg>
