<svg width="178" height="134" viewBox="0 0 178 134" fill="none" xmlns="http://www.w3.org/2000/svg">
<path d="M93.0391 134C131.86 134 163.33 133.019 163.33 131.81C163.33 130.6 131.86 129.619 93.0391 129.619C54.2184 129.619 22.748 130.6 22.748 131.81C22.748 133.019 54.2184 134 93.0391 134Z" fill="#01090F"/>
<path d="M177.499 5.39816H0.20166V9.88609H177.499V5.39816Z" fill="#E25600"/>
<path d="M177.298 5.59685V9.68653H0.39825V5.59685H177.298ZM177.696 5.19861H0V10.0848H177.696V5.19861Z" fill="#01090F"/>
<path d="M156.682 19.335H135.528V38.9103H156.682V19.335Z" fill="#90A4AE" stroke="#01090F" stroke-width="0.6" stroke-miterlimit="10"/>
<path d="M114.834 19.0137H98.3984V27.6679H114.834V19.0137Z" fill="#90A4AE" stroke="#01090F" stroke-width="0.6" stroke-miterlimit="10"/>
<path d="M126.428 23.608L107.373 15.0151V13.1923C110.36 12.8094 112.673 10.2514 112.673 7.17268C112.673 3.81822 109.946 1.10709 106.607 1.10709C103.865 1.10709 101.537 2.94514 100.786 5.45716H102.41C103.084 3.8029 104.708 2.6388 106.607 2.6388C109.104 2.6388 111.141 4.67598 111.141 7.17268C111.141 9.66937 109.104 11.7066 106.607 11.7066H105.841V15.0151L86.7863 23.6233C85.5763 24.1747 84.7798 25.3848 84.7798 26.7174C84.7798 28.586 86.3115 30.1178 88.1802 30.1178H125.034C126.902 30.1178 128.434 28.586 128.434 26.7174C128.434 25.3848 127.638 24.1594 126.428 23.608ZM125.034 28.5707H88.1802C87.154 28.5707 86.3115 27.7283 86.3115 26.702C86.3115 25.9668 86.7404 25.3082 87.4144 25.0018L106.469 16.4089C106.515 16.4242 106.561 16.4242 106.607 16.4242C106.653 16.4242 106.699 16.4242 106.745 16.4089L125.799 25.0018C126.473 25.3082 126.902 25.9668 126.902 26.702C126.902 27.7436 126.06 28.5707 125.034 28.5707Z" fill="#2C71F0" stroke="#01090F" stroke-width="0.6" stroke-miterlimit="10"/>
<path d="M130.488 30.2094C129.814 23.5618 124.361 18.3387 117.682 18.1548C117.56 18.1548 117.437 18.1548 117.315 18.1548H113.792L106.516 26.6712L99.2405 18.1548H95.7328C95.6103 18.1548 95.4877 18.1548 95.3652 18.1548C88.6868 18.3387 83.2339 23.5771 82.5599 30.2094L80.9976 78.6882H132.05L130.488 30.2094Z" fill="#FCEE70" stroke="#01090F" stroke-width="0.6" stroke-miterlimit="10"/>
<path d="M88.1938 35.7237V80.9705H123.944V35.7237" fill="#FCEE70"/>
<path d="M88.1938 35.7237V80.9705H123.944V35.7237" stroke="#01090F" stroke-width="0.6" stroke-miterlimit="10"/>
<path d="M108.385 19.0278H104.495V21.2794H108.385V19.0278Z" fill="#E25600" stroke="#01090F" stroke-width="0.6" stroke-miterlimit="10"/>
<path d="M165.916 23.5168L146.862 14.9085V13.0858C149.848 12.7028 152.161 10.1449 152.161 7.06614C152.161 3.71168 149.435 1.00055 146.096 1.00055C143.354 1.00055 141.026 2.83861 140.275 5.35062H141.899C142.573 3.69637 144.196 2.53226 146.096 2.53226C148.592 2.53226 150.63 4.56944 150.63 7.06614C150.63 9.56283 148.592 11.6 146.096 11.6H145.33V14.9085L126.275 23.5168C125.065 24.0682 124.269 25.2782 124.269 26.6108C124.269 28.4795 125.8 30.0112 127.669 30.0112H164.522C166.391 30.0112 167.923 28.4795 167.923 26.6108C167.923 25.2782 167.126 24.0529 165.916 23.5168ZM164.522 28.4795H127.669C126.643 28.4795 125.8 27.6371 125.8 26.6108C125.8 25.8756 126.229 25.217 126.903 24.9106L145.958 16.3177C146.004 16.333 146.05 16.333 146.096 16.333C146.142 16.333 146.188 16.333 146.234 16.3177L165.288 24.9106C165.962 25.217 166.391 25.8756 166.391 26.6108C166.391 27.6371 165.549 28.4795 164.522 28.4795Z" fill="#2C71F0" stroke="#01090F" stroke-width="0.6" stroke-miterlimit="10"/>
<path d="M15.4531 34.8506V113.535H31.812L32.4706 51.6229C32.4706 51.3318 32.7157 51.0868 33.0067 51.0868C33.2978 51.0868 33.5428 51.3165 33.5428 51.6229L34.2015 113.535H50.5604V34.8506H15.4531Z" fill="#E25600" stroke="#01090F" stroke-width="0.6" stroke-miterlimit="10"/>
<path d="M50.5609 47.3034C44.0817 47.3034 38.8125 42.0496 38.8125 35.5552V34.8506H50.5609V47.3034Z" fill="#E25600" stroke="#01090F" stroke-width="0.6" stroke-miterlimit="10"/>
<path d="M49.6863 46.4C44.1414 46.109 39.776 41.3607 39.6841 35.7393L50.5594 35.8771V46.4306C50.5594 46.4153 49.9007 46.4 49.6863 46.4Z" fill="#CFD8DC" stroke="#01090F" stroke-width="0.6" stroke-miterlimit="10"/>
<path d="M15.4663 47.3033C21.9455 47.3033 27.2147 42.0495 27.2147 35.555V34.8504H15.4663V47.3033Z" fill="#E25600" stroke="#01090F" stroke-width="0.6" stroke-miterlimit="10"/>
<path d="M16.3594 46.2624C21.9043 45.9714 26.2697 41.223 26.3616 35.6017L15.4863 35.7395V46.293C15.4863 46.293 16.1297 46.2777 16.3594 46.2624Z" fill="#CFD8DC" stroke="#01090F" stroke-width="0.6" stroke-miterlimit="10"/>
<path d="M23.9245 111.926H22.9136V51.4693C22.9136 51.1936 23.1433 50.9638 23.419 50.9638C23.6948 50.9638 23.9245 51.1936 23.9245 51.4693V111.926Z" fill="#CFD8DC" stroke="#01090F" stroke-width="0.6" stroke-miterlimit="10"/>
<path d="M42.7033 111.926H41.6924V51.4691C41.6924 51.1934 41.9221 50.9637 42.1979 50.9637C42.4736 50.9637 42.7033 51.1934 42.7033 51.4691V111.926Z" fill="#CFD8DC" stroke="#01090F" stroke-width="0.6" stroke-miterlimit="10"/>
<path d="M50.5604 30.9601H15.4531V34.8507H50.5604V30.9601Z" fill="#E25600" stroke="#01090F" stroke-width="0.6" stroke-miterlimit="10"/>
<path d="M31.6865 44.2554V30.9601" stroke="#01090F" stroke-width="0.6" stroke-miterlimit="10"/>
<path d="M33.1428 33.6711C33.5658 33.6711 33.9087 33.3282 33.9087 32.9053C33.9087 32.4823 33.5658 32.1394 33.1428 32.1394C32.7198 32.1394 32.377 32.4823 32.377 32.9053C32.377 33.3282 32.7198 33.6711 33.1428 33.6711Z" fill="#01090F" stroke="#01090F" stroke-width="0.6" stroke-miterlimit="10"/>
<path d="M31.8146 111.957H15.4863V113.55H31.8146V111.957Z" fill="#CFD8DC" stroke="#01090F" stroke-width="0.6" stroke-miterlimit="10"/>
<path d="M50.4816 111.957H34.1533V113.55H50.4816V111.957Z" fill="#CFD8DC" stroke="#01090F" stroke-width="0.6" stroke-miterlimit="10"/>
<path d="M90.6329 48.4381V46.1865H90.6176L89.0706 30.9766C88.3966 24.3289 82.9436 19.1058 76.2653 18.922C76.1428 18.922 76.0202 18.922 75.8977 18.922H75.6679L74.5498 15.9964H69.4951C68.7292 16.4712 67.6723 16.41 66.8452 16.027C66.7686 16.0883 66.7073 16.1343 66.6154 16.1802C65.727 16.7469 64.3791 16.6397 63.506 15.9964H55.6023L54.4841 18.922H54.3309C54.2084 18.922 54.0859 18.922 53.9633 18.922C47.285 19.1058 41.832 24.3442 41.1581 30.9766L39.611 46.1865H39.5957V48.4381H46.8101V72.3482H82.5607V70.6786H82.5454V48.4381H90.6329Z" fill="#01090F" stroke="#01090F" stroke-width="0.6" stroke-miterlimit="10"/>
<path d="M52.8418 23.5162L33.787 14.908V13.0852C36.7739 12.7023 39.0868 10.1443 39.0868 7.06559C39.0868 3.71114 36.3603 1 33.0212 1C30.2794 1 27.9511 2.83806 27.2006 5.35007H28.8242C29.4982 3.69582 31.1218 2.53171 33.0212 2.53171C35.5179 2.53171 37.5551 4.5689 37.5551 7.06559C37.5551 9.56229 35.5179 11.5995 33.0212 11.5995H32.2553V14.908L13.1853 23.5162C11.9752 24.0676 11.1787 25.2777 11.1787 26.6103C11.1787 28.479 12.7104 30.0107 14.5791 30.0107H51.4326C53.3013 30.0107 54.833 28.479 54.833 26.6103C54.833 25.2777 54.0518 24.0523 52.8418 23.5162ZM51.4479 28.479H14.5945C13.5682 28.479 12.7258 27.6365 12.7258 26.6103C12.7258 25.875 13.1546 25.2164 13.8286 24.9101L32.8833 16.3171C32.9293 16.3325 32.9752 16.3325 33.0212 16.3325C33.0671 16.3325 33.1131 16.3325 33.159 16.3171L52.2137 24.9101C52.8877 25.2164 53.3166 25.875 53.3166 26.6103C53.3013 27.6365 52.4741 28.479 51.4479 28.479Z" fill="#2C71F0" stroke="#01090F" stroke-width="0.6" stroke-miterlimit="10"/>
<path d="M17.0929 27.2387H15.4233V31.0986H17.0929V27.2387Z" fill="#2C71F0" stroke="#01090F" stroke-width="0.6" stroke-miterlimit="10"/>
<path d="M50.6051 27.2387H48.9355V31.0986H50.6051V27.2387Z" fill="#2C71F0" stroke="#01090F" stroke-width="0.6" stroke-miterlimit="10"/>
<path d="M74.1957 19.0148H57.7603V27.669H74.1957V19.0148Z" fill="#90A4AE" stroke="#01090F" stroke-width="0.6" stroke-miterlimit="10"/>
<path d="M75.3329 15.2312H56.3701V19.0298H75.3329V15.2312Z" fill="#E25600" stroke="#01090F" stroke-width="0.6" stroke-miterlimit="10"/>
<path d="M85.7903 23.6087L66.7356 15.0158V13.193C69.7225 12.8101 72.0354 10.2522 72.0354 7.17341C72.0354 3.81895 69.3089 1.10782 65.9697 1.10782C63.2279 1.10782 60.8997 2.94588 60.1492 5.45789H61.7728C62.4467 3.80364 64.0704 2.63953 65.9697 2.63953C68.4664 2.63953 70.5036 4.67671 70.5036 7.17341C70.5036 9.6701 68.4664 11.7073 65.9697 11.7073H65.2039V15.0158L46.1491 23.624C44.9391 24.1754 44.1426 25.3855 44.1426 26.7181C44.1426 28.5868 45.6743 30.1185 47.543 30.1185H84.3964C86.2651 30.1185 87.7969 28.5868 87.7969 26.7181C87.7969 25.3855 87.0004 24.1601 85.7903 23.6087ZM84.3964 28.5715H47.543C46.5168 28.5715 45.6743 27.729 45.6743 26.7028C45.6743 25.9675 46.1032 25.3089 46.7771 25.0026L65.8319 16.4096C65.8778 16.425 65.9238 16.425 65.9697 16.425C66.0157 16.425 66.0616 16.425 66.1076 16.4096L85.1623 25.0179C85.8363 25.3242 86.2651 25.9829 86.2651 26.7181C86.2651 27.7443 85.4227 28.5715 84.3964 28.5715Z" fill="#2C71F0" stroke="#01090F" stroke-width="0.6" stroke-miterlimit="10"/>
<path d="M89.8507 30.2104C89.1768 23.5627 83.7238 18.3396 77.0455 18.1558C76.9229 18.1558 76.8004 18.1558 76.6778 18.1558H73.1549L65.8638 26.6568L58.5881 18.1404H55.0805C54.9579 18.1404 54.8354 18.1404 54.7128 18.1404C48.0345 18.3242 42.5815 23.5627 41.9076 30.195L40.3452 45.5581H91.3978L89.8507 30.2104Z" fill="#E25600" stroke="#01090F" stroke-width="0.6" stroke-miterlimit="10"/>
<path d="M47.563 35.7246V69.9278H83.3136V35.7246" fill="#E25600"/>
<path d="M47.563 35.7246V69.9278H83.3136V35.7246" stroke="#01090F" stroke-width="0.6" stroke-miterlimit="10"/>
<path d="M65.9697 69.9581H63.856V25.7681L65.9697 26.5339V69.9581Z" fill="#CFD8DC" stroke="#01090F" stroke-width="0.6" stroke-miterlimit="10"/>
<path d="M67.7465 19.0298H63.856V21.2815H67.7465V19.0298Z" fill="#E25600" stroke="#01090F" stroke-width="0.6" stroke-miterlimit="10"/>
<path d="M65.8013 69.9583H67.9151V25.7684L65.8013 26.5342V69.9583Z" fill="#E25600" stroke="#01090F" stroke-width="0.6" stroke-miterlimit="10"/>
<path d="M75.3141 15.23L78.7911 24.2672L65.8633 26.6566L75.3141 15.23Z" fill="#E25600" stroke="#01090F" stroke-width="0.6" stroke-miterlimit="10"/>
<path d="M64.8829 28.3419C65.2552 28.3419 65.5569 28.0402 65.5569 27.668C65.5569 27.2958 65.2552 26.994 64.8829 26.994C64.5107 26.994 64.209 27.2958 64.209 27.668C64.209 28.0402 64.5107 28.3419 64.8829 28.3419Z" fill="#E25600" stroke="#01090F" stroke-width="0.6" stroke-miterlimit="10"/>
<path d="M64.8829 33.2129C65.2552 33.2129 65.5569 32.9112 65.5569 32.539C65.5569 32.1668 65.2552 31.865 64.8829 31.865C64.5107 31.865 64.209 32.1668 64.209 32.539C64.209 32.9112 64.5107 33.2129 64.8829 33.2129Z" fill="#E25600" stroke="#01090F" stroke-width="0.6" stroke-miterlimit="10"/>
<path d="M64.8849 38.0839C65.2571 38.0839 65.5589 37.7821 65.5589 37.4099C65.5589 37.0377 65.2571 36.736 64.8849 36.736C64.5127 36.736 64.2109 37.0377 64.2109 37.4099C64.2109 37.7821 64.5127 38.0839 64.8849 38.0839Z" fill="#E25600" stroke="#01090F" stroke-width="0.6" stroke-miterlimit="10"/>
<path d="M64.8849 42.9545C65.2571 42.9545 65.5589 42.6528 65.5589 42.2806C65.5589 41.9084 65.2571 41.6066 64.8849 41.6066C64.5127 41.6066 64.2109 41.9084 64.2109 42.2806C64.2109 42.6528 64.5127 42.9545 64.8849 42.9545Z" fill="#E25600" stroke="#01090F" stroke-width="0.6" stroke-miterlimit="10"/>
<path d="M64.8849 47.8399C65.2571 47.8399 65.5589 47.5381 65.5589 47.1659C65.5589 46.7937 65.2571 46.4919 64.8849 46.4919C64.5127 46.4919 64.2109 46.7937 64.2109 47.1659C64.2109 47.5381 64.5127 47.8399 64.8849 47.8399Z" fill="#E25600" stroke="#01090F" stroke-width="0.6" stroke-miterlimit="10"/>
<path d="M64.8849 52.712C65.2571 52.712 65.5589 52.4103 65.5589 52.0381C65.5589 51.6659 65.2571 51.3641 64.8849 51.3641C64.5127 51.3641 64.2109 51.6659 64.2109 52.0381C64.2109 52.4103 64.5127 52.712 64.8849 52.712Z" fill="#E25600" stroke="#01090F" stroke-width="0.6" stroke-miterlimit="10"/>
<path d="M64.8849 57.5818C65.2571 57.5818 65.5589 57.2801 65.5589 56.9079C65.5589 56.5357 65.2571 56.2339 64.8849 56.2339C64.5127 56.2339 64.2109 56.5357 64.2109 56.9079C64.2109 57.2801 64.5127 57.5818 64.8849 57.5818Z" fill="#E25600" stroke="#01090F" stroke-width="0.6" stroke-miterlimit="10"/>
<path d="M64.8849 62.4536C65.2571 62.4536 65.5589 62.1519 65.5589 61.7797C65.5589 61.4075 65.2571 61.1057 64.8849 61.1057C64.5127 61.1057 64.2109 61.4075 64.2109 61.7797C64.2109 62.1519 64.5127 62.4536 64.8849 62.4536Z" fill="#E25600" stroke="#01090F" stroke-width="0.6" stroke-miterlimit="10"/>
<path d="M64.8849 67.3235C65.2571 67.3235 65.5589 67.0218 65.5589 66.6495C65.5589 66.2773 65.2571 65.9756 64.8849 65.9756C64.5127 65.9756 64.2109 66.2773 64.2109 66.6495C64.2109 67.0218 64.5127 67.3235 64.8849 67.3235Z" fill="#E25600" stroke="#01090F" stroke-width="0.6" stroke-miterlimit="10"/>
<path d="M47.5597 45.4357H40.3452V47.6873H47.5597V45.4357Z" fill="#CFD8DC" stroke="#01090F" stroke-width="0.6" stroke-miterlimit="10"/>
<path d="M91.4109 45.436H83.3081V47.6877H91.4109V45.436Z" fill="#CFD8DC" stroke="#01090F" stroke-width="0.6" stroke-miterlimit="10"/>
<path d="M65.9744 69.9289H47.563V71.5985H65.9744V69.9289Z" fill="#CFD8DC" stroke="#01090F" stroke-width="0.6" stroke-miterlimit="10"/>
<path d="M83.3243 69.9285H65.8013V71.5981H83.3243V69.9285Z" fill="#CFD8DC" stroke="#01090F" stroke-width="0.6" stroke-miterlimit="10"/>
<path d="M56.3662 15.23L52.8892 24.2672L65.8629 26.6566L56.3662 15.23Z" fill="#E25600" stroke="#01090F" stroke-width="0.6" stroke-miterlimit="10"/>
<path d="M161.906 57.4293H161.936V54.902H161.921L164.219 32.9832C161.982 30.2567 160.481 26.2896 160.175 21.7863L156.575 20.1167L145.822 34.5915L134.917 19.9483L131.47 21.5106C131.21 26.1364 129.693 30.2261 127.411 33.0138L129.709 54.9326H129.693V57.4599H129.724L122.862 125.774H145.746H145.899H168.783L161.906 57.4293Z" fill="#01090F" stroke="#01090F" stroke-width="0.6" stroke-miterlimit="10"/>
<path d="M162.395 55.5893L164.815 32.3838C162.579 29.6574 161.078 25.6902 160.772 21.187L157.172 19.5174L146.419 33.9921L135.529 19.3336L132.082 20.896C131.822 25.5217 130.306 29.6114 128.023 32.3991L130.443 55.6046L123.443 125.144H146.327H146.481H169.365L162.395 55.5893Z" fill="#E25600" stroke="#01090F" stroke-width="0.6" stroke-miterlimit="10"/>
<path d="M162.55 54.3024H130.292V56.8298H162.55V54.3024Z" fill="#CFD8DC" stroke="#01090F" stroke-width="0.6" stroke-miterlimit="10"/>
<path d="M148.516 19.3353H144.013V22.3987H148.516V19.3353Z" fill="#E25600" stroke="#01090F" stroke-width="0.6" stroke-miterlimit="10"/>
</svg>
