<svg width="246" height="229" viewBox="0 0 246 229" fill="none" xmlns="http://www.w3.org/2000/svg">
<path d="M79 17L78.4921 14.2063C78.1111 11.7936 76.2063 9.88889 73.7936 9.50793L71 9L73.7936 8.49206C76.2063 8.1111 78.1111 6.20635 78.4921 3.79365L79 1L79.5079 3.79365C79.8889 6.20635 81.7937 8.1111 84.2064 8.49206L87 9L84.2064 9.50793C81.7937 9.88889 79.8889 11.7936 79.5079 14.2063L79 17Z" fill="white" stroke="black" stroke-width="1.4" stroke-miterlimit="10" stroke-linejoin="round"/>
<path d="M174 158.125L172.857 151.839C172 146.411 167.714 142.125 162.286 141.268L156 140.125L162.286 138.982C167.714 138.125 172 133.839 172.857 128.411L174 122.125L175.143 128.411C176 133.839 180.286 138.125 185.714 138.982L192 140.125L185.714 141.268C180.286 142.125 176 146.411 175.143 151.839L174 158.125Z" fill="white" stroke="black" stroke-width="1.4" stroke-miterlimit="10" stroke-linejoin="round"/>
<path d="M234.5 125.125L233.833 121.458C233.333 118.292 230.833 115.792 227.667 115.292L224 114.625L227.667 113.958C230.833 113.458 233.333 110.958 233.833 107.792L234.5 104.125L235.167 107.792C235.667 110.958 238.167 113.458 241.333 113.958L245 114.625L241.333 115.292C238.167 115.792 235.667 118.292 235.167 121.458L234.5 125.125Z" fill="white" stroke="black" stroke-width="1.4" stroke-miterlimit="10" stroke-linejoin="round"/>
<path d="M202.5 92.125L200.69 82.1726C199.333 73.5774 192.548 66.7917 183.952 65.4345L174 63.625L183.952 61.8155C192.548 60.4583 199.333 53.6726 200.69 45.0774L202.5 35.125L204.31 45.0774C205.667 53.6726 212.452 60.4583 221.048 61.8155L231 63.625L221.048 65.4345C212.452 66.7917 205.667 73.5774 204.31 82.1726L202.5 92.125Z" fill="white" stroke="black" stroke-width="1.4" stroke-miterlimit="10" stroke-linejoin="round"/>
<path d="M35.4512 75.9159L30.8624 62.2625L38.7033 59.6289L43.2921 73.2823L56.5997 68.8065L59.1667 76.4346L45.8592 80.9104L50.4746 94.6436L42.6337 97.2771L38.0183 83.544L24.7839 87.9931L22.2168 80.365L35.4512 75.9159Z" fill="#FFC664" stroke="black" stroke-width="1.5437" stroke-miterlimit="10"/>
<path d="M90.2175 53.8828C95.9103 55.5055 99.4883 61.4576 97.8257 67.2768C96.1431 73.1691 90.0047 76.2017 84.3119 74.579C78.5526 72.9363 75.101 67.0241 76.7437 61.2648C78.4063 55.4456 84.5181 52.2601 90.2109 53.8828H90.2175ZM73.9971 94.4372L114.711 61.6172L122.053 63.7121L81.3458 96.5321L74.0037 94.4372H73.9971ZM85.9945 68.7C88.402 69.385 90.6964 68.0549 91.4412 65.4612C92.1794 62.8675 90.9158 60.5864 88.5084 59.9014C86.1009 59.2164 83.8198 60.48 83.0816 63.0737C82.3434 65.6674 83.6602 68.0283 85.9945 68.7ZM111.672 83.5571C117.365 85.1798 120.943 91.132 119.28 96.9511C117.617 102.77 111.459 105.876 105.766 104.253C100.007 102.611 96.5554 96.6984 98.1981 90.9391C99.8607 85.1133 105.972 81.9344 111.665 83.5571H111.672ZM107.449 98.3677C109.856 99.0527 112.151 97.7226 112.896 95.1289C113.64 92.5352 112.37 90.2541 109.963 89.5691C107.622 88.9041 105.274 90.1477 104.536 92.7414C103.798 95.3351 105.115 97.696 107.449 98.3677Z" fill="#F8BC20" stroke="black" stroke-width="1.5437" stroke-miterlimit="10"/>
<path d="M53.5736 73.3144L55.2828 65.1875L92.0997 72.922L90.3906 81.0488L53.5736 73.3144ZM50.4014 88.4308L52.1238 80.2308L88.9408 87.9653L87.2183 96.1653L50.4014 88.4308Z" fill="#FCEE70" stroke="black" stroke-width="1.5437" stroke-miterlimit="10"/>
<path d="M52.8282 124.629C51.9969 124.629 51.3252 123.957 51.3252 123.126V120.313C51.3252 117.034 53.992 114.367 57.2707 114.367H88.7872C92.0659 114.367 94.7327 117.034 94.7327 120.313V123.126C94.7327 123.957 94.061 124.629 93.2297 124.629C92.3984 124.629 91.7267 123.957 91.7267 123.126V120.313C91.7267 118.697 90.4099 117.38 88.7939 117.38H57.2707C55.6546 117.38 54.3379 118.697 54.3379 120.313V123.126C54.3379 123.957 53.6662 124.629 52.8348 124.629H52.8282Z" fill="#97DDE5" stroke="black" stroke-width="1.5437" stroke-miterlimit="10"/>
<path d="M123.044 221.062H23.1807V223.949C23.1807 225.897 26.0537 227.341 28.7072 227.341H117.285C119.779 227.341 122.997 226.25 123.037 223.949V221.062H123.044Z" fill="#97DDE5" stroke="black" stroke-width="1.5437" stroke-miterlimit="10"/>
<path d="M107.382 189.305H38.623V218.181H107.382V189.305Z" fill="#4AC7D3" stroke="black" stroke-width="1.5437" stroke-miterlimit="10"/>
<path d="M122.147 222.911C122.991 222.119 123.317 221.049 122.772 219.765L111.965 191.035H107.383V218.182L122.147 222.911Z" fill="#008D98" stroke="black" stroke-width="1.5437" stroke-miterlimit="10"/>
<path d="M38.623 191.035H34.0342L23.2272 219.765C22.8748 220.989 23.2272 222.046 24.0319 222.851L38.623 218.189V191.042V191.035Z" fill="#97DDE5" stroke="black" stroke-width="1.5437" stroke-miterlimit="10"/>
<path d="M107.382 218.188H38.6233L24.0322 222.849C25.0364 223.854 26.7589 224.459 28.7075 224.459H117.285C119.24 224.459 121.089 223.9 122.146 222.916L107.382 218.188Z" fill="#97DDE5" stroke="black" stroke-width="1.5437" stroke-miterlimit="10"/>
<path d="M73.0125 210.752C95.0612 210.752 112.935 192.878 112.935 170.829C112.935 148.78 95.0612 130.906 73.0125 130.906C50.9638 130.906 33.0898 148.78 33.0898 170.829C33.0898 192.878 50.9638 210.752 73.0125 210.752Z" fill="white" stroke="black" stroke-width="1.5437" stroke-miterlimit="10"/>
<path d="M103.885 113.949H98.7306C98.2319 113.949 97.8262 113.543 97.8262 113.045C97.8262 112.546 98.2319 112.14 98.7306 112.14H103.885C112.949 112.14 121.183 106.447 124.381 97.968C124.554 97.5024 125.08 97.263 125.545 97.4426C126.011 97.6155 126.25 98.1409 126.071 98.6064C122.612 107.784 113.694 113.949 103.885 113.949Z" fill="#97DDE5"/>
<path d="M47.3092 113.949H42.1551C32.3457 113.949 23.4274 107.784 19.9692 98.6064C19.7963 98.1409 20.029 97.6221 20.4946 97.4426C20.9668 97.263 21.4788 97.5024 21.6584 97.968C24.8506 106.447 33.0905 112.14 42.1551 112.14H47.3092C47.808 112.14 48.2137 112.546 48.2137 113.045C48.2137 113.543 47.808 113.949 47.3092 113.949Z" fill="#97DDE5"/>
<path d="M106.365 145.797V126.936C106.365 124.336 104.423 122.234 101.204 122.234H44.8346C41.6158 122.234 39.6738 124.343 39.6738 126.936V145.797C47.6411 137.783 60.4233 129.257 73.0192 129.257C85.6152 129.257 98.2644 137.058 106.365 145.797Z" fill="#4AC7D3" stroke="black" stroke-width="1.5437" stroke-miterlimit="10"/>
<path d="M99.9402 136.739C92.5382 130.88 83.181 127.375 73.0125 127.375C62.8439 127.375 53.4868 130.88 46.0781 136.739C36.016 144.699 29.5518 157.003 29.5518 170.829C29.5518 194.831 49.011 214.283 73.0058 214.283C97.0007 214.283 116.46 194.831 116.46 170.829C116.46 157.003 109.996 144.699 99.9335 136.739H99.9402ZM73.0125 210.752C50.9662 210.752 33.0898 192.875 33.0898 170.829C33.0898 159.158 38.0976 148.663 46.0781 141.361C53.1808 134.87 62.6311 130.906 73.0125 130.906C83.3939 130.906 92.8442 134.87 99.9402 141.361C107.921 148.663 112.929 159.158 112.929 170.829C112.929 192.875 95.0521 210.752 73.0058 210.752H73.0125Z" fill="#CFD8DC" stroke="black" stroke-width="1.5437" stroke-miterlimit="10"/>
<path d="M101.084 110.578H44.9743C44.001 110.578 43.2119 111.367 43.2119 112.34V112.607C43.2119 113.58 44.001 114.369 44.9743 114.369H101.084C102.058 114.369 102.847 113.58 102.847 112.607V112.34C102.847 111.367 102.058 110.578 101.084 110.578Z" fill="#97DDE5" stroke="black" stroke-width="1.5437" stroke-miterlimit="10"/>
<path d="M124.674 90.8867H21.3857C20.8054 90.8867 20.335 91.3572 20.335 91.9375C20.335 92.5178 20.8054 92.9883 21.3857 92.9883H124.674C125.254 92.9883 125.725 92.5178 125.725 91.9375C125.725 91.3572 125.254 90.8867 124.674 90.8867Z" fill="#CFD8DC" stroke="black" stroke-width="1.5437" stroke-miterlimit="10"/>
<path d="M22.1367 92.9922C23.5666 104.039 32.9969 110.576 44.429 110.576H101.63C113.062 110.576 122.492 104.039 123.922 92.9922H22.1367Z" fill="#90A4AE" stroke="black" stroke-width="1.5437" stroke-miterlimit="10"/>
<path opacity="0.77" d="M50.1417 107.708H94.6598C109.69 107.708 120.277 102.6 122.12 93.3359H24.1982C26.0138 102.6 36.4151 107.708 50.1417 107.708Z" fill="#F2F7F9"/>
<path d="M77.8347 100.923C77.8347 98.2692 75.6866 96.1211 73.0331 96.1211C70.3795 96.1211 68.2314 98.2692 68.2314 100.923V110.579H77.8414V100.923H77.8347Z" fill="#97DDE5" stroke="black" stroke-width="1.5437" stroke-miterlimit="10"/>
<path d="M104.124 165.53C103.718 163.156 103.06 160.868 102.162 158.707" stroke="black" stroke-width="1.5437" stroke-miterlimit="10"/>
<path d="M99.5146 187.963C100.878 185.862 101.995 183.587 102.827 181.18" stroke="black" stroke-width="1.5437" stroke-miterlimit="10"/>
<path d="M102.834 181.182C103.712 178.661 104.27 175.994 104.483 173.234" stroke="black" stroke-width="1.5437" stroke-miterlimit="10"/>
<path d="M104.476 173.234C104.536 172.442 104.576 171.644 104.576 170.839C104.576 169.031 104.417 167.262 104.124 165.539" stroke="black" stroke-width="1.5437" stroke-miterlimit="10"/>
<path d="M94.667 193.787C96.5092 192.051 98.1319 190.089 99.5152 187.961" stroke="black" stroke-width="1.5437" stroke-miterlimit="10"/>
<path d="M58.8078 142.641C56.3671 143.871 54.1126 145.407 52.0908 147.203" stroke="black" stroke-width="1.5437" stroke-miterlimit="10"/>
<path d="M52.0902 147.203C50.1615 148.912 48.4457 150.848 46.9893 152.976" stroke="black" stroke-width="1.5437" stroke-miterlimit="10"/>
<path d="M73.0128 139.266C70.5721 139.266 68.1913 139.545 65.9102 140.07" stroke="black" stroke-width="1.5437" stroke-miterlimit="10"/>
<path d="M65.9103 140.066C63.4164 140.638 61.0355 141.51 58.8076 142.64" stroke="black" stroke-width="1.5437" stroke-miterlimit="10"/>
<path d="M46.983 152.977C45.7526 154.766 44.6952 156.688 43.8506 158.723" stroke="black" stroke-width="1.5437" stroke-miterlimit="10"/>
<path d="M68.2247 202.036C65.2719 201.584 62.4521 200.726 59.8252 199.516" stroke="black" stroke-width="1.5437" stroke-miterlimit="10"/>
<path d="M51.3457 193.781C51.5452 193.967 51.7447 194.147 51.9509 194.327" stroke="black" stroke-width="1.5437" stroke-miterlimit="10"/>
<path d="M86.2539 199.496C89.1203 198.165 91.7472 196.416 94.0748 194.328" stroke="black" stroke-width="1.5437" stroke-miterlimit="10"/>
<path d="M68.2246 202.038C69.7875 202.277 71.3836 202.404 73.0063 202.404C74.629 202.404 76.265 202.271 77.8412 202.031" stroke="black" stroke-width="1.5437" stroke-miterlimit="10"/>
<path d="M94.0752 194.328C94.2747 194.148 94.4742 193.975 94.6671 193.789" stroke="black" stroke-width="1.5437" stroke-miterlimit="10"/>
<path d="M77.8477 202.029C80.8071 201.57 83.6336 200.712 86.2605 199.488" stroke="black" stroke-width="1.5437" stroke-miterlimit="10"/>
<path d="M51.9443 194.328C54.2853 196.43 56.9322 198.192 59.8251 199.522" stroke="black" stroke-width="1.5437" stroke-miterlimit="10"/>
<path d="M73.0127 139.266C81.0797 139.266 88.4351 142.298 94.0148 147.273" stroke="black" stroke-width="1.5437" stroke-miterlimit="10"/>
<path d="M102.162 158.717C101.311 156.675 100.247 154.74 99.0098 152.938" stroke="black" stroke-width="1.5437" stroke-miterlimit="10"/>
<path d="M94.0146 147.273C95.8967 148.949 97.5726 150.851 99.0091 152.933" stroke="black" stroke-width="1.5437" stroke-miterlimit="10"/>
<path d="M43.2324 181.293C44.097 183.747 45.2475 186.061 46.6574 188.196" stroke="black" stroke-width="1.5437" stroke-miterlimit="10"/>
<path d="M41.5498 173.344C41.7693 176.11 42.3412 178.771 43.2257 181.284" stroke="black" stroke-width="1.5437" stroke-miterlimit="10"/>
<path d="M41.849 165.805C41.583 167.441 41.4434 169.123 41.4434 170.839C41.4434 171.684 41.4899 172.522 41.5498 173.353" stroke="black" stroke-width="1.5437" stroke-miterlimit="10"/>
<path d="M46.6572 188.188C48.0073 190.229 49.5768 192.105 51.3458 193.781" stroke="black" stroke-width="1.5437" stroke-miterlimit="10"/>
<path d="M41.8486 165.801C42.2477 163.334 42.9194 160.96 43.8571 158.719" stroke="black" stroke-width="1.5437" stroke-miterlimit="10"/>
<path d="M73.0127 139.266V146.887" stroke="black" stroke-width="1.5437" stroke-miterlimit="10"/>
<path d="M94.0842 194.337L94.0752 194.328" stroke="black" stroke-width="1.5437" stroke-miterlimit="10"/>
<path d="M94.0751 194.329L88.9941 188.656" stroke="black" stroke-width="1.5437" stroke-miterlimit="10"/>
<path d="M51.9443 194.329L57.0319 188.656" stroke="black" stroke-width="1.5437" stroke-miterlimit="10"/>
<path d="M51.9443 194.337V194.328" stroke="black" stroke-width="1.5437" stroke-miterlimit="10"/>
<path d="M58.8076 142.633V142.642" stroke="black" stroke-width="1.5437" stroke-miterlimit="10"/>
<path d="M52.084 147.203H52.093" stroke="black" stroke-width="1.5437" stroke-miterlimit="10"/>
<path d="M99.0188 152.93L99.0098 152.939" stroke="black" stroke-width="1.5437" stroke-miterlimit="10"/>
<path d="M94.0146 147.279L94.0236 147.27" stroke="black" stroke-width="1.5437" stroke-miterlimit="10"/>
<path d="M99.5292 187.968L99.5146 187.961" stroke="black" stroke-width="1.5437" stroke-miterlimit="10"/>
<path d="M102.843 181.189L102.834 181.18" stroke="black" stroke-width="1.5437" stroke-miterlimit="10"/>
<path d="M104.486 173.234H104.477" stroke="black" stroke-width="1.5437" stroke-miterlimit="10"/>
<path d="M104.123 165.531L96.6084 166.815" stroke="black" stroke-width="1.5437" stroke-miterlimit="10"/>
<path d="M104.133 165.531H104.124" stroke="black" stroke-width="1.5437" stroke-miterlimit="10"/>
<path d="M41.8418 165.805H41.8508" stroke="black" stroke-width="1.5437" stroke-miterlimit="10"/>
<path d="M41.8486 165.805L49.3769 167.022" stroke="black" stroke-width="1.5437" stroke-miterlimit="10"/>
<path d="M41.5507 173.344H41.5361" stroke="black" stroke-width="1.5437" stroke-miterlimit="10"/>
<path d="M43.2256 181.293H43.2346" stroke="black" stroke-width="1.5437" stroke-miterlimit="10"/>
<path d="M46.6436 188.195L46.6581 188.188" stroke="black" stroke-width="1.5437" stroke-miterlimit="10"/>
<path d="M59.8252 199.523H59.8342" stroke="black" stroke-width="1.5437" stroke-miterlimit="10"/>
<path d="M68.2246 202.035V202.044" stroke="black" stroke-width="1.5437" stroke-miterlimit="10"/>
<path d="M77.8477 202.04V202.031" stroke="black" stroke-width="1.5437" stroke-miterlimit="10"/>
<path d="M86.2672 199.519L86.2539 199.492" stroke="black" stroke-width="1.5437" stroke-miterlimit="10"/>
<path d="M98.2715 160.331L102.162 158.715" stroke="black" stroke-width="1.5437" stroke-miterlimit="10"/>
<path d="M47.7479 160.335L43.8574 158.719" stroke="black" stroke-width="1.5437" stroke-miterlimit="10"/>
<path d="M65.9102 140.066L66.8545 144.176" stroke="black" stroke-width="1.5437" stroke-miterlimit="10"/>
<path d="M60.703 146.398L58.8076 142.641" stroke="black" stroke-width="1.5437" stroke-miterlimit="10"/>
<path d="M54.884 150.355L52.0908 147.203" stroke="black" stroke-width="1.5437" stroke-miterlimit="10"/>
<path d="M46.9834 152.977L50.4616 155.357" stroke="black" stroke-width="1.5437" stroke-miterlimit="10"/>
<path d="M95.5381 155.325L99.0096 152.938" stroke="black" stroke-width="1.5437" stroke-miterlimit="10"/>
<path d="M91.2148 150.419L94.0147 147.273" stroke="black" stroke-width="1.5437" stroke-miterlimit="10"/>
<path d="M87.3112 142.695L85.4092 146.446" stroke="black" stroke-width="1.5437" stroke-miterlimit="10"/>
<path d="M79.125 144.17L80.0694 140.066" stroke="black" stroke-width="1.5437" stroke-miterlimit="10"/>
<path d="M95.9834 185.68L99.5148 187.961" stroke="black" stroke-width="1.5437" stroke-miterlimit="10"/>
<path d="M102.833 181.181L98.8564 179.805" stroke="black" stroke-width="1.5437" stroke-miterlimit="10"/>
<path d="M100.279 172.914L104.476 173.233" stroke="black" stroke-width="1.5437" stroke-miterlimit="10"/>
<path d="M45.7462 173.016L41.5498 173.348" stroke="black" stroke-width="1.5437" stroke-miterlimit="10"/>
<path d="M47.1961 179.898L43.2324 181.295" stroke="black" stroke-width="1.5437" stroke-miterlimit="10"/>
<path d="M50.162 185.883L46.6572 188.191" stroke="black" stroke-width="1.5437" stroke-miterlimit="10"/>
<path d="M61.5878 195.691L59.832 199.522" stroke="black" stroke-width="1.5437" stroke-miterlimit="10"/>
<path d="M68.8631 197.879L68.2246 202.035" stroke="black" stroke-width="1.5437" stroke-miterlimit="10"/>
<path d="M77.2031 197.875L77.8482 202.032" stroke="black" stroke-width="1.5437" stroke-miterlimit="10"/>
<path d="M84.4912 195.672L86.2536 199.496" stroke="black" stroke-width="1.5437" stroke-miterlimit="10"/>
<path d="M75.3806 173.094C75.9459 172.502 76.2984 171.704 76.2984 170.826C76.2984 169.356 75.334 168.112 74.0039 167.687L73.0064 149.172L72.0088 167.68C70.6721 168.099 69.7011 169.349 69.7011 170.826C69.7011 171.71 70.0536 172.515 70.6255 173.107L67.1074 179.325C68.3777 181.227 70.5457 182.477 72.9997 182.477C75.4537 182.477 77.6284 181.22 78.8987 179.318L75.3806 173.094Z" fill="#FF4633" stroke="black" stroke-width="1.5437" stroke-miterlimit="10"/>
<path d="M74.0689 172.57C75.0342 171.973 75.3326 170.707 74.7355 169.742C74.1385 168.777 72.872 168.478 71.9068 169.075C70.9416 169.672 70.6432 170.939 71.2402 171.904C71.8373 172.869 73.1037 173.168 74.0689 172.57Z" fill="#FFAE1F" stroke="black" stroke-width="1.5437" stroke-linecap="round" stroke-linejoin="round"/>
<path d="M72.6871 170.794C72.6871 170.308 72.8999 169.883 73.2325 169.577C73.126 169.543 73.013 169.523 72.8933 169.523C72.195 169.523 71.623 170.089 71.623 170.794C71.623 171.499 72.1883 172.064 72.8933 172.064C73.013 172.064 73.126 172.044 73.2325 172.011C72.8999 171.711 72.6871 171.279 72.6871 170.794Z" fill="white"/>
<line y1="227.23" x2="144.054" y2="227.23" stroke="black" stroke-width="1.54"/>
</svg>
