<svg width="235" height="319" viewBox="0 0 235 319" fill="none" xmlns="http://www.w3.org/2000/svg">
<g clip-path="url(#clip0_580_5610)">
<path d="M209.219 203.477V246.876L135.529 256.951V213.547L209.219 203.477Z" fill="#FF4633" stroke="#1D1D1B" stroke-width="1.63364" stroke-linecap="round" stroke-linejoin="round"/>
<path d="M135.597 169.438C148.479 169.438 161.54 171.358 173.487 175.393C192.272 181.739 204.613 192.068 209.219 203.478L135.524 213.554L97.5656 251.715C61.4035 239.492 49.0781 212.51 70.0423 191.43C84.0797 177.319 109.481 169.438 135.597 169.438Z" fill="#FF928E" stroke="#1D1D1B" stroke-width="1.63364" stroke-linecap="round" stroke-linejoin="round"/>
<path d="M135.529 213.551V256.955L97.5708 295.111V251.712L135.529 213.551Z" fill="#FF4633" stroke="#1D1D1B" stroke-width="1.63364" stroke-linecap="round" stroke-linejoin="round"/>
<path d="M201.127 246.194C205.975 241.321 209.077 236.114 210.524 230.827V256.966C210.524 264.323 207.299 271.814 200.449 278.7C191.592 287.602 178.13 294.026 162.778 297.526V265.325C178.329 261.816 192.056 255.311 201.127 246.194L201.127 246.194Z" fill="#11B7C7" stroke="black" stroke-width="0.956425"/>
<path d="M209.235 213.695C213.494 224.262 211.109 235.756 201.037 245.885C191.983 254.984 178.198 261.489 162.548 264.97L135.545 223.771L209.235 213.695Z" fill="#97DDE5" stroke="#1D1D1B" stroke-width="1.63364" stroke-linecap="round" stroke-linejoin="round"/>
<path d="M162.548 264.97V298.151L135.545 256.952V223.766L162.548 264.97Z" fill="#008D98" stroke="#1D1D1B" stroke-width="1.63364" stroke-linecap="round" stroke-linejoin="round"/>
<path d="M162.538 278.772L135.529 237.573L135.476 237.942L135.529 237.562L97.5654 275.723C107.559 279.1 118.32 280.988 129.111 281.521H129.164C129.164 281.521 129.195 281.521 129.211 281.526C131.265 281.621 133.412 281.679 135.461 281.679C144.73 281.679 153.909 280.687 162.532 278.772H162.538Z" fill="#FBE62E" stroke="#1D1D1B" stroke-width="1.63364" stroke-linecap="round" stroke-linejoin="round"/>
<path d="M135.466 281.678C133.386 281.678 131.254 281.62 129.169 281.52C118.362 280.993 107.58 279.099 97.5654 275.723V295.104C107.57 298.48 118.346 300.374 129.148 300.901H129.211C131.275 301.001 133.402 301.059 135.461 301.059C144.73 301.059 153.909 300.068 162.532 298.153V278.772C153.914 280.687 144.735 281.678 135.461 281.678H135.466Z" fill="#F8BC20" stroke="#1D1D1B" stroke-width="1.63364" stroke-linecap="round" stroke-linejoin="round"/>
</g>
<path d="M59.8228 256.911V213.512C59.8228 228.731 73.3507 243.533 97.5709 251.71V295.109C73.3507 286.927 59.8228 272.125 59.8228 256.911Z" fill="#E31D09" stroke="black" stroke-width="1.8"/>
<path d="M212.532 263.122C224.035 263.122 233.446 254.08 234 242.7V236.61H233.385C231.109 227.137 222.62 220.125 212.471 220.125C202.321 220.125 193.833 227.137 191.557 236.61H191.003C191.003 236.61 191.003 241.285 191.003 241.654C191.003 242.023 191.003 242.331 191.003 242.7C191.618 254.08 200.968 263.122 212.532 263.122Z" fill="#F8BC20" stroke="#231F20" stroke-width="1.8" stroke-miterlimit="10"/>
<path d="M212.532 259.123C224.388 259.123 233.999 249.512 233.999 237.655C233.999 225.799 224.388 216.188 212.532 216.188C200.675 216.188 191.064 225.799 191.064 237.655C191.064 249.512 200.675 259.123 212.532 259.123Z" fill="#FBE62E" stroke="#231F20" stroke-width="1.8" stroke-miterlimit="10"/>
<path d="M228.179 237.656C228.179 246.298 221.174 253.303 212.532 253.303C203.891 253.303 196.885 246.298 196.885 237.656C196.885 229.015 203.891 222.009 212.532 222.009C221.174 222.009 228.179 229.015 228.179 237.656Z" fill="#11B7C7" stroke="black" stroke-width="1.8"/>
<path d="M209.025 229.351L213.454 239.316L211.424 240.484L206.011 229.351H209.025ZM218.006 238.516V240.361H207.303V238.516H218.006ZM218.006 242.084V243.929H207.303V242.084H218.006ZM214.069 238.085V247.804H211.301V238.085H214.069ZM212.039 239.254L216.468 229.289H219.482L214.069 240.423L212.039 239.254Z" fill="#FBE62E"/>
<path d="M133.109 318.001C144.612 318.001 154.023 308.959 154.577 297.579V291.489H153.962C151.686 282.016 143.197 275.004 133.048 275.004C122.898 275.004 114.41 282.016 112.134 291.489H111.642C111.642 291.489 111.642 296.164 111.642 296.533C111.642 296.902 111.642 297.21 111.642 297.579C112.195 308.959 121.607 318.001 133.109 318.001Z" fill="#FFAE1F" stroke="#231F20" stroke-width="1.8" stroke-miterlimit="10"/>
<path d="M133.109 314.002C144.966 314.002 154.577 304.39 154.577 292.534C154.577 280.678 144.966 271.066 133.109 271.066C121.253 271.066 111.642 280.678 111.642 292.534C111.642 304.39 121.253 314.002 133.109 314.002Z" fill="#FBE62E" stroke="#231F20" stroke-width="1.8" stroke-miterlimit="10"/>
<path d="M148.755 292.535C148.755 301.177 141.75 308.182 133.108 308.182C124.467 308.182 117.462 301.177 117.462 292.535C117.462 283.894 124.467 276.888 133.108 276.888C141.75 276.888 148.755 283.894 148.755 292.535Z" fill="#F78400" stroke="black" stroke-width="1.8"/>
<path d="M137.107 288.228C136.984 287.367 136.615 286.69 135.939 286.26C135.262 285.768 134.339 285.522 133.294 285.522C132.555 285.522 131.879 285.645 131.325 285.891C130.772 286.137 130.341 286.444 130.034 286.875C129.726 287.305 129.603 287.736 129.603 288.29C129.603 288.72 129.726 289.089 129.91 289.397C130.095 289.704 130.403 290.012 130.71 290.197C131.079 290.381 131.387 290.566 131.817 290.75C132.186 290.873 132.555 290.996 132.925 291.119L134.708 291.611C135.324 291.734 135.877 291.98 136.554 292.226C137.169 292.473 137.722 292.78 138.276 293.211C138.83 293.641 139.26 294.133 139.568 294.687C139.875 295.241 140.06 295.979 140.06 296.84C140.06 297.886 139.814 298.808 139.26 299.608C138.707 300.408 137.969 301.084 136.923 301.515C135.877 302.007 134.647 302.191 133.232 302.191C131.879 302.191 130.649 301.945 129.664 301.515C128.68 301.084 127.881 300.469 127.265 299.669C126.712 298.87 126.404 297.886 126.343 296.778H129.172C129.234 297.455 129.418 298.009 129.849 298.439C130.218 298.87 130.71 299.239 131.325 299.423C131.94 299.608 132.555 299.731 133.294 299.731C134.093 299.731 134.77 299.608 135.385 299.362C136 299.116 136.492 298.747 136.861 298.316C137.23 297.886 137.415 297.332 137.415 296.717C137.415 296.163 137.23 295.733 136.923 295.364C136.615 294.994 136.185 294.748 135.693 294.502C135.139 294.256 134.585 294.072 133.909 293.887L131.694 293.272C130.218 292.842 129.049 292.288 128.188 291.488C127.327 290.689 126.896 289.643 126.896 288.413C126.896 287.367 127.204 286.444 127.758 285.645C128.311 284.845 129.111 284.23 130.095 283.799C131.079 283.369 132.186 283.123 133.417 283.123C134.647 283.123 135.754 283.369 136.738 283.799C137.722 284.23 138.461 284.845 139.014 285.583C139.568 286.321 139.875 287.244 139.875 288.228H137.107ZM132.371 304.16L132.432 281.031H134.155L134.093 304.16H132.371Z" fill="#FBE62E"/>
<path d="M73.166 209.58C85.0223 209.58 94.6337 199.969 94.6337 188.112C94.6337 176.256 85.0223 166.645 73.166 166.645C61.3097 166.645 51.6982 176.256 51.6982 188.112C51.6982 199.969 61.3097 209.58 73.166 209.58Z" fill="#F8BC20" stroke="#231F20" stroke-width="1.8" stroke-miterlimit="10"/>
<path d="M73.166 205.935C85.0223 205.935 94.6337 196.324 94.6337 184.468C94.6337 172.611 85.0223 163 73.166 163C61.3097 163 51.6982 172.611 51.6982 184.468C51.6982 196.324 61.3097 205.935 73.166 205.935Z" fill="#FBE62E" stroke="#231F20" stroke-width="1.8" stroke-miterlimit="10"/>
<path d="M88.8122 184.469C88.8122 193.11 81.8069 200.115 73.1654 200.115C64.5239 200.115 57.5187 193.11 57.5187 184.469C57.5187 175.827 64.5239 168.822 73.1654 168.822C81.8069 168.822 88.8122 175.827 88.8122 184.469Z" fill="#FF4633" stroke="black" stroke-width="1.8"/>
<path d="M77.6558 181.823L76.7947 183.668H64.9229L65.5995 181.823H77.6558ZM76.0565 185.452L75.1953 187.359H64.9843L65.661 185.452H76.0565ZM79.8703 176.902L78.8246 179.178C78.517 178.87 78.1479 178.624 77.7174 178.378C77.3483 178.132 76.9177 177.948 76.4256 177.825C75.995 177.702 75.5029 177.64 74.9493 177.64C73.9651 177.64 73.1039 177.886 72.3658 178.44C71.6277 178.932 71.0125 179.732 70.5819 180.777C70.1514 181.823 69.9668 183.115 69.9668 184.653C69.9668 186.19 70.1514 187.482 70.5819 188.528C71.0125 189.574 71.6277 190.312 72.3658 190.865C73.1039 191.357 73.9651 191.665 74.9493 191.665C75.5029 191.665 75.995 191.603 76.4256 191.48C76.8562 191.357 77.2868 191.173 77.7174 190.927C78.0864 190.681 78.4555 190.435 78.7631 190.189L79.8703 192.465C79.2552 193.018 78.517 193.449 77.6558 193.756C76.7947 194.064 75.9335 194.187 75.0108 194.187C73.473 194.187 72.1813 193.818 71.0125 193.018C69.8438 192.28 68.9211 191.173 68.2445 189.758C67.5679 188.343 67.2603 186.621 67.2603 184.714C67.2603 182.746 67.5679 181.023 68.2445 179.609C68.9211 178.194 69.8438 177.087 71.0125 176.348C72.1813 175.61 73.5345 175.18 75.0108 175.18C75.995 175.18 76.8562 175.364 77.7174 175.672C78.4555 175.856 79.1937 176.348 79.8703 176.902Z" fill="#FBE62E"/>
<path d="M205.482 112.34L209.743 106.375L205.482 100.41L211.447 104.671L217.413 100.41L213.152 106.375L217.413 112.34L211.447 108.08L205.482 112.34Z" fill="white"/>
<path d="M71.001 100.41L70.1756 95.8705C69.5565 91.9498 66.4613 88.8546 62.5407 88.2356L58.001 87.4102L62.5407 86.5848C66.4613 85.9657 69.5565 82.8705 70.1756 78.9498L71.001 74.4102L71.8264 78.9498C72.4454 82.8705 75.5407 85.9657 79.4613 86.5848L84.001 87.4102L79.4613 88.2356C75.5407 88.8546 72.4454 91.9498 71.8264 95.8705L71.001 100.41Z" fill="white" stroke="black" stroke-width="1.8" stroke-miterlimit="10" stroke-linejoin="round"/>
<path d="M13.7833 307.565C20.6006 307.565 26.5657 302.026 26.5657 294.782C26.5657 287.965 21.0266 282 13.7833 282C6.96607 282 1.00098 287.539 1.00098 294.782C1.00098 301.6 6.96607 307.565 13.7833 307.565Z" stroke="#8DBCF6" stroke-width="1.8" stroke-miterlimit="10" stroke-linejoin="round"/>
<path d="M139.5 48L138.008 39.7936C136.889 32.7063 131.294 27.1111 124.206 25.9921L116 24.5L124.206 23.0079C131.294 21.8889 136.889 16.2936 138.008 9.20634L139.5 1L140.992 9.20634C142.111 16.2936 147.706 21.8889 154.794 23.0079L163 24.5L154.794 25.9921C147.706 27.1111 142.111 32.7063 140.992 39.7936L139.5 48Z" fill="white" stroke="black" stroke-width="1.8" stroke-miterlimit="10" stroke-linejoin="round"/>
<defs>
<clipPath id="clip0_580_5610">
<rect width="152.473" height="132.672" fill="white" transform="translate(59.2979 168.91)"/>
</clipPath>
</defs>
</svg>
