<svg id="Layer_1" data-name="Layer 1" xmlns="http://www.w3.org/2000/svg" viewBox="0 0 1199.9 237.47"><defs><style>.cls-1{fill:#1d1e1c;}</style></defs><path class="cls-1" d="M1199.9,88.16h-38.77V48.23H1131.9V88.16h-1.74c-12.15,0-21.12,8.39-21.12,20.54v6.08h22.86v80.16c0,25.17,14.18,39.06,39.93,39.06h28.07V207.38h-24c-9.55,0-14.75-5.21-14.75-14.76V114.78h15c9,0,14.47-2.31,18.52-6.66A20.7,20.7,0,0,0,1199.9,94Z"/><path class="cls-1" d="M1034.09,146.32c-11.28-.58-17.65-6.94-17.65-16.49,0-11.87,11-19.68,28.65-19.68,15.63,0,26.91,7.81,28.94,19.39H1103c-2-27.2-24.88-44.85-57.87-44.85-34.43,0-57,18.23-57,46.29,0,25.18,15.62,39.94,42.82,41.67l28.36,1.74c13,.87,19.39,6.94,19.39,17.07,0,12.16-11.29,20.55-30.39,20.55-18.52,0-31.83-9-33.85-21.7H985.19c2,28.64,27.2,47.16,63.66,47.16,35.59,0,58.17-18.52,58.17-47.16,0-25.47-15.92-40.52-44.57-42.25Z"/><path class="cls-1" d="M871.47,153a23,23,0,0,0-6.08,12.44v-4.34c0-29.81,17.08-50.35,41.38-50.35,20,0,34.15,13.6,38.2,35.3H891.73c-10.13,0-16.21,2.61-20.26,6.95m103.59,9.84c0-46.3-23.44-78.13-68.29-78.13-41.67,0-70.31,31-70.31,76.39,0,44.27,28.06,76.39,72.34,76.39,34.14,0,59.32-18.52,64.24-47.16H944.39c-4.34,13-18.81,21.12-35.3,21.12-25.76,0-40.22-17.07-43.12-41.09H975.06Z"/><polygon class="cls-1" points="771.64 203.33 733.44 88.16 701.9 88.16 752.54 234 789.29 234 839.93 88.16 809.83 88.16 771.64 203.33"/><path class="cls-1" d="M665.73,88.16c-12.45,0-17.66,2-21.71,5.5a29.82,29.82,0,0,0-9,16.78V88.16H605.83V234h29.22V116.81h32.12c13,0,18.81-2.9,22.86-7.24a21.82,21.82,0,0,0,5.21-14.18V88.16Z"/><path class="cls-1" d="M514.68,212.59c-16.5,0-26.91-8.39-26.91-21.71,0-13,10.12-21.41,26.33-21.41h39.06v21.41c-9.54,14.18-22,21.71-38.48,21.71m9.84-127.9c-36.46,0-60.77,20.25-62.22,51.21h28.94c1.74-15.33,14.47-25.17,32.12-25.17,18.23,0,29.8,11,29.8,28.07v25.75c-4.63-11.28-20-18.81-39.35-18.81-33.28,0-55,18.52-55,47.17,0,25.75,17.65,44,47.75,44,22,0,39.06-9.26,46.87-27.2V234H582.1V135.61c0-31-22.57-50.92-57.58-50.92"/><path class="cls-1" d="M392.28,84.69c-22.86,0-39.64,10.12-46.88,27.78V32H316.18V234H345.4V118.83c11.58-4.63,22-6.65,32.12-6.65,22.86,0,34.73,9.83,34.73,30.09V234h29.22V135.33c0-32.7-18.52-50.64-49.19-50.64"/><path class="cls-1" d="M102.39,146.54V234H87.64V102.52A14.57,14.57,0,0,1,102.39,88h43.68v43.73a14.57,14.57,0,0,1-14.46,14.77Z"/><path class="cls-1" d="M234,0V219.23A14.82,14.82,0,0,1,219.25,234H204.79V14.48A14.33,14.33,0,0,1,219.25,0Z"/><path class="cls-1" d="M175.57,0H190V219.23A14.76,14.76,0,0,1,175.57,234H160.82V73A14.57,14.57,0,0,1,175.57,58.5Z"/><path class="cls-1" d="M58.43,234H44V14.48A14.33,14.33,0,0,1,58.43,0H73.18V160.73A14.82,14.82,0,0,1,58.43,175.5Z"/><path class="cls-1" d="M0,234V14.48A14.57,14.57,0,0,1,14.75,0H29.21V219.23A14.57,14.57,0,0,1,14.75,234Z"/></svg>