<svg width="70" height="99" viewBox="0 0 70 99" fill="none" xmlns="http://www.w3.org/2000/svg">
<path d="M41.6736 97.3468L40.9959 93.6196C40.4877 90.4006 37.9463 87.8593 34.7273 87.3511L31 86.6734L34.7273 85.9957C37.9463 85.4875 40.4877 82.9462 40.9959 79.7272L41.6736 76L42.3513 79.7272C42.8596 82.9462 45.4009 85.4875 48.62 85.9957L52.3472 86.6734L48.62 87.3511C45.4009 87.8593 42.8596 90.4006 42.3513 93.6196L41.6736 97.3468Z" fill="white" stroke="#06122C" stroke-width="1.25" stroke-miterlimit="10" stroke-linejoin="round"/>
<path d="M23.4738 44.9467L22.1739 37.7973C21.199 31.6228 16.3242 26.7482 10.1496 25.7733L3 24.4734L10.1496 23.1735C16.3242 22.1985 21.199 17.3239 22.1739 11.1494L23.4738 4L24.7737 11.1494C25.7487 17.3239 30.6234 22.1985 36.7981 23.1735L43.9476 24.4734L36.7981 25.7733C30.6234 26.7482 25.7487 31.6228 24.7737 37.7973L23.4738 44.9467Z" fill="white" stroke="#06122C" stroke-width="1.25" stroke-miterlimit="10" stroke-linejoin="round"/>
<path d="M54.5416 66.249L53.7305 61.7876C53.1221 57.9346 50.0802 54.8928 46.2271 54.2844L41.7656 53.4732L46.2271 52.6621C50.0802 52.0537 53.1221 49.0119 53.7305 45.1589L54.5416 40.6975L55.3528 45.1589C55.9612 49.0119 59.0031 52.0537 62.8562 52.6621L67.3177 53.4732L62.8562 54.2844C59.0031 54.8928 55.9612 57.9346 55.3528 61.7876L54.5416 66.249Z" fill="white" stroke="#06122C" stroke-width="1.25" stroke-miterlimit="10" stroke-linejoin="round"/>
</svg>
