<svg width="1440" height="640" viewBox="0 0 1440 640" fill="none" xmlns="http://www.w3.org/2000/svg">
<g clip-path="url(#clip0_284_5210)">
<rect x="1129" width="138" height="138" rx="23.66" fill="#FCE2AD"/>
</g>
<g clip-path="url(#clip1_284_5210)">
<rect x="120" y="342" width="138" height="138" rx="23.66" fill="#FCE2AD"/>
</g>
<path d="M1227.61 115.401C1201.61 123.543 1204.03 101.403 1214.11 95.5433C1221.61 91.1858 1226.61 92.9009 1234.11 107.043C1237.49 113.414 1248.61 116.686 1250.61 107.686C1252.61 98.6858 1245.61 91.1858 1257.11 91.1858C1268.61 91.1858 1311.61 101.186 1295.11 111.186C1278.61 121.186 1271.11 118.186 1267.61 114.686C1264.11 111.186 1268.11 97.1858 1271.61 95.1858C1275.11 93.1857 1289.11 73.2832 1327.11 97.2832" stroke="#06122C" stroke-width="2"/>
<g clip-path="url(#clip2_284_5210)">
<path d="M76.1532 410.983C72.1909 407.715 72.9576 403.74 74.2037 398.984C76.0045 392.109 79.5998 387.283 87.1153 386.427C94.8549 385.546 103.604 387.547 107.286 395.066C110.549 401.73 108.495 411.542 105.866 418.084C104.725 420.922 102.072 425.404 98.6209 425.846C94.959 426.316 92.5218 423.733 91.5363 420.453C90.3708 416.573 91.2614 412.168 93.0924 408.61C96.0534 402.854 106.377 402.909 111.789 402.794C124.462 402.524 142.435 403.101 151.734 392.734C154.692 389.435 156.907 385.091 157.961 380.786C159.391 374.943 152.536 374.775 148.401 375.772C139.961 377.808 132.829 388.851 141.863 394.915C147.029 398.382 154.726 400.19 160.852 400.759C163.655 401.02 167.257 400.568 169.217 398.357" stroke="#06122C" stroke-width="2.04929" stroke-linecap="round" stroke-linejoin="round"/>
</g>
<path fill-rule="evenodd" clip-rule="evenodd" d="M1181.47 555.875C1180.85 555.927 1180.39 556.473 1180.44 557.094C1180.5 557.767 1180.62 559.322 1180.59 560.819C1180.58 561.571 1180.53 562.268 1180.43 562.814C1180.38 563.086 1180.32 563.291 1180.27 563.433C1180.23 563.524 1180.2 563.564 1180.2 563.574C1179.74 563.99 1179.71 564.692 1180.12 565.153C1180.53 565.62 1181.24 565.662 1181.71 565.249C1182.03 564.965 1182.23 564.601 1182.36 564.281C1182.49 563.952 1182.58 563.588 1182.65 563.225C1182.79 562.501 1182.84 561.662 1182.85 560.856C1182.88 559.236 1182.75 557.584 1182.69 556.906C1182.64 556.284 1182.09 555.823 1181.47 555.875ZM1189.88 558.28C1189.25 558.332 1188.79 558.878 1188.84 559.499C1189.02 561.644 1188.91 563.404 1188.49 565.488C1188.36 566.099 1188.75 566.695 1189.36 566.82C1189.98 566.945 1190.57 566.552 1190.7 565.941C1191.17 563.651 1191.29 561.675 1191.09 559.311C1191.04 558.689 1190.5 558.228 1189.88 558.28ZM1160.91 564.863C1160.75 564.26 1161.11 563.641 1161.71 563.48C1162.31 563.319 1162.93 563.676 1163.09 564.278C1165 571.414 1168.48 576.949 1174.82 580.982C1179.29 583.829 1184.03 584.057 1188.98 583.197C1191.47 582.766 1193.98 582.065 1196.53 581.293C1197.25 581.073 1197.98 580.846 1198.72 580.619L1198.72 580.618L1198.72 580.618C1200.53 580.056 1202.36 579.489 1204.15 579.008C1204.75 578.847 1205.37 579.204 1205.53 579.807C1205.69 580.409 1205.34 581.028 1204.74 581.189C1202.99 581.658 1201.23 582.204 1199.43 582.761L1199.43 582.761L1199.43 582.761C1198.69 582.992 1197.94 583.224 1197.18 583.454C1194.62 584.231 1192 584.966 1189.37 585.422C1184.1 586.337 1178.72 586.145 1173.61 582.886C1166.71 578.495 1162.94 572.436 1160.91 564.863Z" fill="#06122C"/>
<path fill-rule="evenodd" clip-rule="evenodd" d="M157.531 54.8751C158.152 54.9272 158.614 55.4732 158.562 56.0945C158.505 56.7667 158.381 58.3218 158.406 59.8192C158.418 60.5714 158.467 61.2682 158.568 61.814C158.619 62.0866 158.677 62.2911 158.735 62.4329C158.771 62.5239 158.798 62.5644 158.805 62.5745C159.256 62.9902 159.293 63.6922 158.884 64.1531C158.47 64.6196 157.757 64.6625 157.29 64.2488C156.97 63.9647 156.772 63.6009 156.642 63.2816C156.508 62.9517 156.416 62.5878 156.348 62.2254C156.214 61.5012 156.161 60.6621 156.148 59.8559C156.122 58.2365 156.255 56.5844 156.312 55.9057C156.364 55.2844 156.91 54.823 157.531 54.8751ZM149.125 57.2801C149.746 57.3323 150.208 57.8782 150.155 58.4995C149.975 60.644 150.089 62.404 150.515 64.4882C150.64 65.099 150.246 65.6955 149.635 65.8205C149.025 65.9455 148.428 65.5516 148.303 64.9408C147.835 62.6514 147.707 60.6754 147.905 58.3107C147.958 57.6894 148.504 57.228 149.125 57.2801ZM178.09 63.8628C178.252 63.2605 177.894 62.6415 177.292 62.4802C176.69 62.3188 176.071 62.6762 175.909 63.2784C173.997 70.4139 170.515 75.9489 164.182 79.9819C159.712 82.8289 154.97 83.0575 150.017 82.1975C147.532 81.7661 145.018 81.0646 142.475 80.2932C141.749 80.0731 141.018 79.8464 140.285 79.619L140.284 79.6186L140.284 79.6186C138.471 79.0561 136.644 78.4894 134.849 78.0085C134.247 77.8472 133.628 78.2046 133.467 78.8068C133.305 79.409 133.663 80.0281 134.265 80.1894C136.015 80.6583 137.775 81.2042 139.57 81.7612L139.57 81.7613L139.57 81.7613C140.313 81.9918 141.062 82.2242 141.819 82.4538C144.383 83.2313 147.005 83.9661 149.631 84.422C154.899 85.3367 160.279 85.1446 165.395 81.8864C172.291 77.4951 176.061 71.4366 178.09 63.8628Z" fill="#06122C"/>
<path d="M1195.71 280.706L1183 268L1170.29 280.706L1183 293.413L1195.71 280.706Z" stroke="#06122C" stroke-width="2" stroke-miterlimit="10" stroke-linejoin="round"/>
<path d="M327.706 624.706L315 612L302.294 624.706L315 637.413L327.706 624.706Z" stroke="#06122C" stroke-width="2" stroke-miterlimit="10" stroke-linejoin="round"/>
<path d="M1251 467C1258.73 467 1265 460.732 1265 453C1265 445.268 1258.73 439 1251 439C1243.27 439 1237 445.268 1237 453C1237 460.732 1243.27 467 1251 467Z" stroke="#06122C" stroke-width="2" stroke-miterlimit="10" stroke-linecap="round"/>
<path d="M269 223C276.732 223 283 216.732 283 209C283 201.268 276.732 195 269 195C261.268 195 255 201.268 255 209C255 216.732 261.268 223 269 223Z" stroke="#06122C" stroke-width="2" stroke-miterlimit="10" stroke-linecap="round"/>
<defs>
<clipPath id="clip0_284_5210">
<rect x="1129" width="138" height="138" rx="24" fill="white"/>
</clipPath>
<clipPath id="clip1_284_5210">
<rect x="120" y="342" width="138" height="138" rx="24" fill="white"/>
</clipPath>
<clipPath id="clip2_284_5210">
<rect width="105" height="58" fill="white" transform="translate(69 372)"/>
</clipPath>
</defs>
</svg>
