<svg width="85" height="46" viewBox="0 0 85 46" fill="none" xmlns="http://www.w3.org/2000/svg">
<path d="M34 36.876L34.2709 35.7583L34 36.876ZM42.5 21.876L43.619 21.6109L42.5 21.876ZM65.5 16.376L64.5431 17.0139L65.5 16.376ZM80.5 41.0259C81.1351 41.0259 81.65 40.511 81.65 39.8759V29.5259C81.65 28.8908 81.1351 28.3759 80.5 28.3759C79.8649 28.3759 79.35 28.8908 79.35 29.5259V38.7259H70.15C69.5149 38.7259 69 39.2408 69 39.8759C69 40.511 69.5149 41.0259 70.15 41.0259H80.5ZM2.02131 5.97979C4.42329 9.87266 8.59343 16.9466 13.9884 23.4777C19.3564 29.9761 26.1001 36.1442 33.7291 37.9936L34.2709 35.7583C27.3999 34.0926 21.0603 28.4273 15.7616 22.0129C10.4899 15.631 6.41005 8.71252 3.97869 4.77205L2.02131 5.97979ZM33.7291 37.9936C36.6198 38.6944 38.9362 38.5985 40.7164 37.7393C42.529 36.8645 43.5832 35.2979 44.135 33.5045C45.2055 30.0255 44.5007 25.3335 43.619 21.6109L41.381 22.141C42.2616 25.8593 42.8068 30.0006 41.9367 32.8281C41.5183 34.1879 40.8045 35.1429 39.7167 35.6679C38.5965 36.2086 36.8802 36.3909 34.2709 35.7583L33.7291 37.9936ZM43.619 21.6109C42.5266 16.9985 42.681 13.3954 43.5904 10.8577C44.4887 8.35075 46.1143 6.88022 48.1016 6.36404C50.1271 5.83793 52.7329 6.25197 55.6263 7.96004C58.5131 9.66422 61.6141 12.6204 64.5431 17.0139L66.4569 15.738C63.3859 11.1316 60.0493 7.90022 56.7955 5.9794C53.5483 4.06248 50.3104 3.41402 47.5234 4.13791C44.6981 4.87174 42.5425 6.96371 41.4252 10.0818C40.319 13.169 40.2234 17.2534 41.381 22.141L43.619 21.6109ZM64.5431 17.0139C69.5872 24.58 72.7426 29.8527 74.9315 33.5311C76.0227 35.3649 76.889 36.8285 77.6279 37.9766C78.3635 39.1197 79.0138 40.016 79.6868 40.6891L81.3132 39.0627C80.8196 38.5691 80.2764 37.842 79.562 36.7319C78.8507 35.6266 78.0102 34.2071 76.908 32.3549C74.7101 28.6614 71.5321 23.3509 66.4569 15.738L64.5431 17.0139Z" fill="black"/>
</svg>
