<svg fill="none" height="368" viewBox="0 0 620 368" width="620" xmlns="http://www.w3.org/2000/svg"><path d="m.878906 361.188h617.454094" stroke="#01090f" stroke-width="1.25"/><path d="m108.773 312.432h162.842v49.1597h-162.842z" fill="#01090f"/><path d="m543.125 198.428v-28.099h-74.259v28.099c0 5.559-4.528 10.086-10.086 10.086h-10.382c-13.334 0-24.117 10.774-24.117 24.117v104.622c0 13.334 10.774 24.117 24.117 24.117h115.157c13.333 0 24.117-10.774 24.117-24.117v-104.622c0-13.333-10.774-24.117-24.117-24.117h-10.382c-5.559 0-10.038-4.527-10.038-10.086z" fill="#e5e5e5" stroke="#01090f" stroke-miterlimit="10" stroke-width="1.25"/><path d="m587.709 337.255v-104.623c0-13.333-10.773-24.116-24.116-24.116h-10.382c-2.761 0-5.215-1.079-7.039-2.904h-72.837c0 4.967-4.031 9.007-9.007 9.007h-9.302c-11.911 0-21.557 9.647-21.557 21.557v93.505c0 11.91 9.646 21.557 21.557 21.557h128.194c2.808-3.983 4.48-8.806 4.48-13.974z" fill="#fff"/><path d="m543.125 198.428v-28.099h-74.259v28.099c0 5.559-4.528 10.086-10.086 10.086h-10.382c-13.334 0-24.117 10.774-24.117 24.117v104.622c0 13.334 10.774 24.117 24.117 24.117h115.157c13.333 0 24.117-10.774 24.117-24.117v-104.622c0-13.333-10.774-24.117-24.117-24.117h-10.382c-5.559 0-10.038-4.527-10.038-10.086z" stroke="#01090f" stroke-miterlimit="10" stroke-width="1.25"/><path d="m556.659 157.685h-101.327v38.978h101.327z" fill="#f78400" stroke="#01090f" stroke-miterlimit="10" stroke-width="1.25"/><path d="m587.662 251.581h-163.381v56.246h163.381z" fill="#f78400" stroke="#01090f" stroke-miterlimit="10" stroke-width="1.25"/><path d="m556.659 157.685h-101.327v16.189h101.327z" fill="#fbe62e" stroke="#01090f" stroke-miterlimit="10" stroke-width="1.25"/><path d="m424.281 326.279h95.32" stroke="#01090f" stroke-miterlimit="10" stroke-width="1.25"/><path d="m424.281 237.408h41.777" stroke="#01090f" stroke-miterlimit="10" stroke-width="1.25"/><path d="m506.02 299.115c10.706 0 19.388-8.682 19.388-19.388 0-10.707-8.682-19.389-19.388-19.389-10.707 0-19.389 8.682-19.389 19.389 0 10.706 8.682 19.388 19.389 19.388z" fill="#fff" stroke="#01090f" stroke-miterlimit="10" stroke-width="1.25"/><path d="m518.464 276.776h-8.167c-.343 0-.592-.296-.592-.592v-8.166c0-.344-.296-.592-.592-.592h-4.67c-.344 0-.593.296-.593.592v8.166c0 .344-.296.592-.592.592h-8.166c-.344 0-.592.296-.592.592v4.671c0 .344.296.592.592.592h8.166c.344 0 .592.296.592.592v8.166c0 .344.297.593.593.593h4.67c.344 0 .592-.296.592-.593v-8.118c0-.344.296-.592.592-.592h8.167c.343 0 .592-.296.592-.592v-4.671c.048-.344-.249-.64-.592-.64z" style="fill-rule:evenodd;clip-rule:evenodd;fill:#fbe62e;stroke:#01090f;stroke-width:1.25;stroke-miterlimit:10"/><path d="m433.431 307.876v-48.577h154.279v-7.727h-163.429v56.294h9.15z" fill="#000" fill-opacity=".1"/><path d="m587.662 251.581h-163.381v56.246h163.381z" stroke="#01090f" stroke-miterlimit="10" stroke-width="1.25"/><path d="m423.615 97.7069h-12.771v-6.5743h12.771c5.222 0 9.479-4.2572 9.479-9.4789s-4.257-9.4789-9.479-9.4789h-12.771v-6.5742h12.771c8.858 0 16.065 7.2062 16.065 16.0642 0 8.8581-7.207 16.0642-16.065 16.0642z" fill="#fff" stroke="#01090f" stroke-miterlimit="10" stroke-width="1.25"/><path d="m413.062 111.821v-33.7803c0-15.9534-12.938-28.8913-28.891-28.8913h-60.499c-15.953 0-28.891 12.9379-28.891 28.8913v33.7803c0 6.231 2.583 12.173 7.129 16.419l4.213 3.947c3.769 3.525 5.909 8.448 5.909 13.614v6.74c0 5.156-2.14 10.089-5.909 13.615l-4.213 3.946c-4.546 4.258-7.129 10.2-7.129 16.419v146.363c0 13.016 10.555 23.559 23.559 23.559h71.164c13.015 0 23.558-10.554 23.558-23.559v-146.363c0-6.23-2.583-12.173-7.128-16.419l-4.213-3.946c-3.77-3.526-5.909-8.448-5.909-13.615v-6.74c0-5.155 2.139-10.089 5.909-13.614l4.213-3.947c4.545-4.257 7.128-10.2 7.128-16.419z" fill="#dcebfd" stroke="#01090f" stroke-miterlimit="10" stroke-width="1.25"/><path d="m294.814 185.746c0 .255-.044.51-.044.765v146.363c0 13.015 10.554 23.559 23.558 23.559h71.164c13.015 0 23.559-10.555 23.559-23.559v-146.363c0-.255-.034-.51-.045-.765h-118.203z" fill="#9bcdfb" stroke="#01090f" stroke-miterlimit="10" stroke-width="1.25"/><path d="m379.48 354.213v-271.795h31.364v29.39c0 5.588-2.339 10.987-6.43 14.8l-4.213 3.947c-4.202 3.925-6.608 9.479-6.608 15.233v6.74c0 5.754 2.406 11.309 6.608 15.233l4.213 3.947c4.08 3.814 6.43 9.213 6.43 14.8v146.363c0 11.774-9.579 21.342-21.341 21.342z" fill="#fff" opacity=".5"/><path d="m294.781 81.333h118.281" stroke="#01090f" stroke-miterlimit="10" stroke-width="1.25"/><path d="m412.906 78.1163v3.2927h-118.281v-3.2927c0-14.5454 10.765-26.5852 24.756-28.5919v.1552h68.758v-.1552c14.002 1.9956 24.767 14.0354 24.767 28.5919z" fill="#bd80ff" stroke="#01090f" stroke-miterlimit="10" stroke-width="1.25"/><path d="m319.535 81.3322v-31.7404" stroke="#01090f" stroke-miterlimit="10" stroke-width="1.25"/><path d="m336.73 81.3322v-31.7404" stroke="#01090f" stroke-miterlimit="10" stroke-width="1.25"/><path d="m353.914 81.3322v-31.7404" stroke="#01090f" stroke-miterlimit="10" stroke-width="1.25"/><path d="m371.111 81.3322v-31.7404" stroke="#01090f" stroke-miterlimit="10" stroke-width="1.25"/><path d="m388.293 81.3322v-31.7404" stroke="#01090f" stroke-miterlimit="10" stroke-width="1.25"/><path d="m347.883 21.2451h12.062c15.643 0 28.348 12.7051 28.348 28.348h-68.758c0-15.6429 12.705-28.348 28.348-28.348z" fill="#fff" stroke="#01090f" stroke-miterlimit="10" stroke-width="1.25"/><path d="m362.108 7.74121h-16.385v13.69169h16.385z" fill="#dcebfd" stroke="#01090f" stroke-miterlimit="10" stroke-width="1.25"/><path d="m365.31 1h-22.793c-1.862 0-3.371 1.50892-3.371 3.37027s1.509 3.37028 3.371 3.37028h22.793c1.862 0 3.371-1.50893 3.371-3.37028s-1.509-3.37027-3.371-3.37027z" fill="#fff" stroke="#01090f" stroke-miterlimit="10" stroke-width="1.25"/><path d="m294.814 185.746c0 .255-.044.51-.044.765v146.363c0 13.015 10.554 23.559 23.558 23.559h71.164c13.015 0 23.559-10.555 23.559-23.559v-146.363c0-.255-.034-.51-.045-.765h-118.203z" stroke="#01090f" stroke-miterlimit="10" stroke-width="1.25"/><path d="m246.832 133.68-125.369.324c-11.037.028-19.968 8.206-19.939 18.272l.19 61.345c.029 10.065 9.007 18.205 20.045 18.176l125.368-.324c11.038-.028 19.969-8.206 19.94-18.272l-.19-61.345c-.029-10.065-9.008-18.205-20.045-18.176z" fill="#f78400" stroke="#01090f" stroke-miterlimit="10" stroke-width="1.25"/><path d="m266.896 157.212-165.353.429.057 19.778 165.353-.429z" fill="#ffc664" stroke="#01090f" stroke-miterlimit="10" stroke-width="1.25"/><path d="m113.25 199.162 30.396-.076" stroke="#01090f" stroke-miterlimit="10" stroke-width="1.25"/><path d="m113.275 209.788 30.396-.076" stroke="#01090f" stroke-miterlimit="10" stroke-width="1.25"/><path d="m310.443 96.6016-125.368.3241c-11.038.0286-19.969 8.2063-19.94 18.2723l.19 61.345c.029 10.065 9.008 18.205 20.045 18.176l125.369-.324c11.037-.028 19.968-8.206 19.94-18.272l-.191-61.345c-.029-10.065-9.007-18.205-20.045-18.1764z" fill="#fbe62e" stroke="#01090f" stroke-miterlimit="10" stroke-width="1.25"/><path d="m314.837 109.803-26.193.066c-2.735 0-4.946 2.031-4.937 4.528l.038 12.229c0 2.488 2.231 4.508 4.966 4.499l26.193-.067c2.735 0 4.947-2.03 4.937-4.527l-.038-12.229c0-2.488-2.23-4.509-4.966-4.499z" fill="#f78400" stroke="#01090f" stroke-miterlimit="10" stroke-width="1.25"/><path d="m319.841 126.531-.038-12.229-31.092 16.823 26.193-.067c2.735 0 4.946-2.03 4.937-4.527z" fill="#ffc664" stroke="#01090f" stroke-linejoin="round" stroke-width="1.25"/><path d="m183.895 172.644 24.448-.057" stroke="#01090f" stroke-miterlimit="10" stroke-width="1.25"/><path d="m220.322 172.541 24.449-.058" stroke="#01090f" stroke-miterlimit="10" stroke-width="1.25"/><path d="m256.76 172.444 24.448-.057" stroke="#01090f" stroke-miterlimit="10" stroke-width="1.25"/><path d="m293.191 172.359 24.449-.067" stroke="#01090f" stroke-miterlimit="10" stroke-width="1.25"/><path d="m376.967 313.181h64.0811v49.1597h-64.0811z" fill="#01090f"/><path d="m458.669 234.888h-30.703c-.827 6.636-6.471 11.785-13.344 11.785s-12.517-5.149-13.344-11.785h-168.452c-5.491 0-9.943 4.452-9.943 9.943v33.56c10.97 0 19.862 8.892 19.862 19.863 0 10.97-8.892 19.862-19.862 19.862v33.561c0 5.491 4.452 9.943 9.943 9.943h168.452c.827-6.637 6.471-11.786 13.344-11.786s12.517 5.149 13.344 11.786h30.703c5.491 0 9.943-4.452 9.943-9.943v-106.846c0-5.491-4.452-9.943-9.943-9.943z" fill="#fbe62e" stroke="#01090f" stroke-miterlimit="10" stroke-width="1.25"/><path d="m414.279 259.971v10.816" stroke="#01090f" stroke-miterlimit="10" stroke-width="1.25"/><path d="m414.279 281.889v10.817" stroke="#01090f" stroke-miterlimit="10" stroke-width="1.25"/><path d="m414.279 303.792v10.829" stroke="#01090f" stroke-miterlimit="10" stroke-width="1.25"/><path d="m414.279 325.71v10.817" stroke="#01090f" stroke-miterlimit="10" stroke-width="1.25"/><path d="m400.404 298.255s0 0 0-.012c0-.048-.011-.095-.011-.142-.024-.862-.189-1.724-.52-2.527-.354-.85-.874-1.63-1.523-2.279-.65-.65-1.429-1.169-2.28-1.523-.425-.178-.873-.307-1.322-.402-.449-.094-.909-.153-1.37-.165h-16.284l-4.924-10.333s-.024.012-.036.024l-10.037-21.02h-8.526l6.813 31.317h-4.452c-4.959.555-9.872 1.11-14.831 1.677l-8.845-8.845h-5.692v.035l4.44 11.112-4.889 1.111c-.354.082-.673.247-.933.495-.259.248-.448.555-.555.91v.071.094c-.023.13-.047.26-.047.39s.024.26.047.389v.095.071c.095.342.296.661.555.909.26.248.579.413.933.496l4.889 1.11-4.44 11.112v.036h5.68l8.845-8.845c4.959.555 9.872 1.11 14.832 1.677h4.463l-6.813 31.316h8.526l10.037-21.019s.024.012.036.024l4.924-10.333h16.284c.461 0 .921-.059 1.37-.166.449-.094.897-.224 1.322-.401.851-.354 1.63-.874 2.28-1.523.649-.65 1.169-1.429 1.523-2.28.331-.802.496-1.653.52-2.527 0-.047.011-.094.011-.141 0 0 0 0 0-.012z" fill="#a041ff" stroke="#01090f" stroke-width="1.25"/><path d="m429.182 276.065h25.566" stroke="#01090f" stroke-miterlimit="10" stroke-width="1.25"/><path d="m429.182 287.153h25.566" stroke="#01090f" stroke-miterlimit="10" stroke-width="1.25"/><path d="m429.182 298.254h25.566" stroke="#01090f" stroke-miterlimit="10" stroke-width="1.25"/><path d="m429.182 309.343h25.566" stroke="#01090f" stroke-miterlimit="10" stroke-width="1.25"/><path d="m429.182 320.43h25.566" stroke="#01090f" stroke-miterlimit="10" stroke-width="1.25"/><path d="m256.467 254.584h66.2" stroke="#01090f" stroke-miterlimit="10" stroke-width="1.25"/><path d="m256.467 265.671h66.2" stroke="#01090f" stroke-miterlimit="10" stroke-width="1.25"/><path d="m256.467 276.772h25.566" stroke="#01090f" stroke-miterlimit="10" stroke-width="1.25"/><path d="m256.467 329.039h66.2" stroke="#01090f" stroke-miterlimit="10" stroke-width="1.25"/><path d="m256.467 340.126h66.2" stroke="#01090f" stroke-miterlimit="10" stroke-width="1.25"/><path d="m320.9 256.81c0-2.114-1.707-3.837-3.821-3.845-1.364-.008-2.641-.016-2.96-.016h-2.776l1.093-.894c3.47-2.872 5.752-7.036 6.246-11.495.79-5.553-2.975-10.706-8.528-11.696-.789-.095-1.587-.199-2.377-.199-3.965.096-7.531 2.377-9.222 5.943l-.495.99-.399-1.093c-1.188-3.367-4.459-5.752-8.129-5.752-5.847 0-9.916 4.659-9.916 11.4 0 1.978.295 3.965.989 5.847l.399 1.093-1.093-.494c-.694-.296-1.388-.694-2.082-1.093-.295-.295-.694-.495-.989-.599-1.978-.893-4.26.096-5.154 2.083-.893 1.978.096 4.26 2.083 5.153 3.175 2.082 6.836 3.271 10.61 3.367 1.188 0 2.281-.096 3.374-.399h.2l.199.095c2.776 1.588 5.951 2.378 9.119 2.378 1.882 0 3.765-.2 5.552-.694l.295-.096.2.199c2.209 2.122 4.906 4.324 14.016 3.638 2.011-.151 3.566-1.827 3.566-3.837zm-31.559-12.182-.495.79-.399-.79c-.694-1.388-1.093-2.975-1.093-4.555 0-2.282.79-3.566 2.178-3.566.495 0 .989.295 1.189.79.79 1.388.096 4.754-1.388 7.331zm7.14 5.058-.79-.096.399-.694c.295-.494.598-.989.79-1.484l.598-1.093.399 1.293c.199.494.295.989.494 1.484l.2.598h-2.082zm14.272-9.908c-.495 2.872-2.083 5.353-4.46 7.036l-.494.399-.2-.694c-1.093-3.175-.989-6.941.2-8.919.398-.79 1.188-1.189 1.978-1.189.295 0 .598 0 .694.096 1.484.295 2.577 1.787 2.282 3.271z" fill="#a041ff" stroke="#01090f" stroke-linejoin="round" stroke-width="1.25"/><path d="m288.047 255.031s12.493-2.776 9.916-19.625" stroke="#01090f" stroke-linejoin="round" stroke-width="1.25"/><path d="m305.401 258.398 8.72-5.449-2.776-.199-8.624 3.869 2.68 1.787z" fill="#01090f"/><path d="m279.92 246.512s6.278 5.432 9.748-2.497" stroke="#01090f" stroke-linejoin="round" stroke-width="1.25"/><path d="m302.617 256.82s6.542-1.389 10.307-5.25" stroke="#01090f" stroke-linejoin="round" stroke-width="1.25"/><path d="m298.258 249.678c2.975 0 6.342-.989 8.528-3.271" stroke="#01090f" stroke-linejoin="round" stroke-width="1.25"/><path d="m67.7617 165.835h1.9864c5.7519 0 20.4226.893 30.9289 9.613 2.577 1.978 4.069 4.954 4.164 8.129.296 10.012-11.6946 22.002-14.2713 24.483l-22.8-42.217z" fill="#bd80ff"/><path d="m90.4689 208.746c-11.0011-3.471-19.3297-12.589-21.7071-23.885-.0957-.495-.1994-1.093-.2951-1.588-.8935-5.943-1.787-11.496-1.8827-17.543 7.6345 4.755 14.1761 11.201 18.0452 19.33 6.5417 13.674 5.8477 23.686 5.8477 23.686z" fill="#01090f" stroke="#01090f" stroke-linejoin="round" stroke-width="1.25"/><path d="m71.3386 182.284c-.0957-.495-.1995-1.093-.2952-1.588-.7898-4.363-1.2923-8.823-1.5875-13.179-.8935-.694-1.8827-1.292-2.8719-1.787.1994 5.944.7898 11.991 1.8827 17.838.1037.495.1994 1.093.2951 1.588 2.6805 11.296 11.2006 20.215 22.3054 23.39 0-1.292-.0957-2.577-.1994-3.869-9.9162-3.765-17.1519-12.19-19.5292-22.401z" fill="#a041ff" stroke="#01090f" stroke-linejoin="round" stroke-width="1.25"/><path d="m88.8809 303.894v56.728c0 1.883 8.4243 3.367 18.8351 3.367 10.411 0 18.739-1.484 18.739-3.367v-56.728z" fill="#a041ff" stroke="#01090f" stroke-linejoin="round" stroke-width="1.25"/><path d="m213.793 303.894v56.728c0 1.883 8.424 3.367 18.835 3.367s18.835-1.484 18.835-3.367v-56.728z" fill="#a041ff" stroke="#01090f" stroke-linejoin="round" stroke-width="1.25"/><path d="m168.485 352.558c62.305 0 112.819-40.598 112.819-90.681 0-50.084-50.514-90.689-112.819-90.689s-112.819 40.597-112.819 90.689c0 50.091 50.506 90.681 112.819 90.681z" fill="#cfa4ff" stroke="#01090f" stroke-linejoin="round" stroke-width="1.25"/><path d="m101.075 190.707c.495-4.164-1.2921-8.328-4.7544-10.705-10.7059-8.225-24.1002-12.788-29.6526-14.472h2.2895c6.8368 0 19.7286 1.093 29.541 8.72 4.9545 3.566 5.7515 9.214 2.5765 16.45z" fill="#fedfea" stroke="#01090f" stroke-linejoin="round" stroke-width="1.25"/><path d="m93.834 161.271c3.7654.599 20.622 3.766 30.538 15.66 2.082 2.378 3.071 5.649 2.481 8.824-1.683 9.812-15.764 19.329-18.635 21.212l-14.376-45.688z" fill="#bd80ff" stroke="#01090f" stroke-linejoin="round" stroke-width="1.25"/><path d="m123.08 193.685c1.388-3.965.598-8.329-2.178-11.496-8.624-10.411-19.928-17.638-24.986-20.518 5.951 1.189 19.824 4.954 28.456 15.365 3.869 4.659 3.47 10.211-1.292 16.649z" fill="#fedfea" stroke="#01090f" stroke-linejoin="round" stroke-width="1.25"/><path d="m107.913 207.757c-10.211-5.449-16.6569-16.059-16.8564-27.651v-1.683c.1995-5.943 1.6833-11.296 2.7762-17.144 6.6452 6.143 10.5062 13.283 12.6922 22.002 3.965 14.767 1.388 24.484 1.388 24.484z" fill="#01090f" stroke="#01090f" stroke-linejoin="round" stroke-width="1.25"/><path d="m94.2317 177.921v-1.684c.1994-4.459.5983-8.823 1.1886-13.282-.7897-.79-.7977-.894-1.5875-1.684-1.0929 5.848-2.5767 11.201-2.7762 17.144v1.684c.1995 11.599 6.6454 22.097 16.8564 27.65.295-1.293.495-2.481.599-3.766-8.7279-5.847-14.0809-15.556-14.2803-26.062z" fill="#a041ff" stroke="#01090f" stroke-linejoin="round" stroke-width="1.25"/><path d="m84.02 234.818c2.465 0 4.4595-1.994 4.4595-4.459s-1.9945-4.46-4.4595-4.46c-2.4651 0-4.4595 1.995-4.4595 4.46s1.9944 4.459 4.4595 4.459z" fill="#01090f"/><path d="m168.485 352.557c-61.467 0-111.6303-39.744-112.819-88.902 35.9868 55.995 82.384 67.794 115.1 67.794 46.095 0 89.126-23.191 104.89-41.228-7.037 17.247-20.822 32.803-38.859 43.908-19.729 12.094-43.422 18.436-68.304 18.436z" fill="#a041ff" stroke="#01090f" stroke-linejoin="round" stroke-width="1.25"/><path d="m95.5234 325.004v36.37c0 1.882 8.4246 3.27 18.8346 3.27 10.411 0 18.74-1.483 18.74-3.27v-19.426" fill="#a041ff"/><path d="m95.5234 325.004v36.37c0 1.882 8.4246 3.27 18.8346 3.27 10.411 0 18.74-1.483 18.74-3.27v-19.426" stroke="#01090f" stroke-linecap="round" stroke-linejoin="round" stroke-width="1.25"/><path d="m220.436 336.299v25.074c0 1.882 8.424 3.271 18.835 3.271 10.41 0 18.835-1.484 18.835-3.271v-50.251" fill="#a041ff"/><path d="m220.436 336.299v25.074c0 1.882 8.424 3.271 18.835 3.271 10.41 0 18.835-1.484 18.835-3.271v-50.251" stroke="#01090f" stroke-linecap="round" stroke-linejoin="round" stroke-width="1.25"/><path d="m197.039 183.074c-9.118-1.883-18.436-2.777-27.762-2.777-2.082 0-4.164.096-6.246.096-6.247.295-12.389.989-18.54 2.082-.399-.095-1.683-1.882-2.68-4.06 6.94-1.388 13.976-2.178 21.116-2.577 2.082-.096 4.164-.096 6.143-.096 9.613 0 19.234.989 28.647 2.976-.199 1.484-.399 2.975-.694 4.364z" fill="#a041ff" stroke="#01090f" stroke-linejoin="round" stroke-width="1.25"/><path d="m196.934 183.074c-9.119-1.882-18.436-2.776-27.754-2.776-2.082 0-4.164.096-6.247.096-6.246.295-12.389.989-18.539 2.082 0 0-.296-.096-.99-.989 6.446-1.189 12.988-1.987 19.529-2.282 2.083-.096 4.069-.096 6.143-.096 9.422 0 18.835.99 28.153 2.872-.096.399-.096.79-.295 1.093z" fill="#01090f"/><path d="m42.3848 300.624v-62.042h20.5183c5.7518 0 10.6102 14.176 10.6102 31.025 0 16.848-4.8584 31.025-10.6102 31.025h-20.5183z" fill="#bd80ff" stroke="#01090f" stroke-linejoin="round" stroke-width="1.25"/><path d="m41.8915 300.624c-5.7519 0-10.6103-14.176-10.6103-31.025s4.8584-31.025 10.6103-31.025c5.7518 0 10.5064 14.176 10.5064 31.025s-4.7546 31.025-10.5064 31.025z" fill="#a041ff" stroke="#01090f" stroke-linejoin="round" stroke-width="1.25"/><path d="m37.5276 277.928c1.2046 0 2.1778-3.726 2.1778-8.329s-.9732-8.328-2.1778-8.328-2.178 3.725-2.178 8.328.9734 8.329 2.178 8.329z" fill="#01090f"/><path d="m44.172 280.202c1.2046 0 2.1779-3.725 2.1779-8.328 0-4.604-.9733-8.329-2.1779-8.329s-2.1779 3.725-2.1779 8.329c0 4.603.9733 8.328 2.1779 8.328z" fill="#01090f"/><g stroke="#01090f" stroke-width="1.25"><path d="m313.607 357.847v4.012c0 .806-2.09 1.604-6.262 2.25-8.672 1.364-23.119 1.524-32.269.399-4.739-.558-7.148-1.364-7.148-2.25v-4.012c0 .805 2.409 1.683 7.148 2.249 9.15 1.125 23.597.966 32.269-.399 4.172-.638 6.262-1.444 6.262-2.249z" fill="#fbe62e" stroke-linejoin="round"/><path d="m306.461 355.605c9.15 1.125 9.549 3.127.885 4.491-8.671 1.365-23.119 1.524-32.269.399s-9.549-3.127-.886-4.491c8.672-1.364 23.12-1.524 32.27-.399z" fill="#01090f" stroke-linejoin="round"/><path d="m313.607 351.105v4.013c0 .806-2.09 1.604-6.262 2.25-8.672 1.364-23.119 1.524-32.269.399-4.739-.559-7.148-1.364-7.148-2.25v-4.013c0 .806 2.409 1.684 7.148 2.25 9.15 1.125 23.597.965 32.269-.399 4.172-.638 6.262-1.444 6.262-2.25z" fill="#fbe62e" stroke-linejoin="round"/><path d="m290.767 354.57c12.589-.12 22.784-1.659 22.768-3.43s-10.235-3.112-22.831-2.992c-12.589.12-22.784 1.659-22.768 3.43s10.235 3.112 22.831 2.992z" fill="#01090f" stroke-linejoin="round"/><path d="m313.607 344.446v4.013c0 .806-2.09 1.604-6.262 2.25-8.672 1.364-23.119 1.523-32.269.399-4.739-.559-7.148-1.444-7.148-2.25v-4.013c0 .806 2.409 1.683 7.148 2.25 9.15 1.125 23.597.965 32.269-.399 4.172-.726 6.262-1.524 6.262-2.25z" fill="#fbe62e" stroke-linejoin="round"/><path d="m306.461 342.203c9.15 1.125 9.549 3.127.885 4.491-8.671 1.364-23.119 1.524-32.269.399s-9.549-3.127-.886-4.491c8.672-1.365 23.12-1.524 32.27-.399z" fill="#01090f" stroke-linejoin="round"/><path d="m313.607 337.704v4.013c0 .806-2.09 1.603-6.262 2.249-8.672 1.365-23.119 1.524-32.269.399-4.739-.558-7.148-1.364-7.148-2.249v-4.013c0 .806 2.409 1.683 7.148 2.25 9.15 1.124 23.597.965 32.269-.399 4.172-.638 6.262-1.444 6.262-2.25z" fill="#fbe62e" stroke-linejoin="round"/><path d="m306.461 335.461c9.15 1.125 9.549 3.128.885 4.492-8.671 1.364-23.119 1.524-32.269.399s-9.549-3.127-.886-4.492c8.672-1.364 23.12-1.523 32.27-.399z" fill="#01090f" stroke-linejoin="round"/><path d="m313.607 330.963v4.013c0 .805-2.09 1.603-6.262 2.249-8.672 1.364-23.119 1.524-32.269.399-4.739-.558-7.148-1.364-7.148-2.25v-4.012c0 .806 2.409 1.683 7.148 2.249 9.15 1.125 23.597.966 32.269-.398 4.172-.639 6.262-1.444 6.262-2.25z" fill="#fbe62e" stroke-linejoin="round"/><path d="m290.767 334.426c12.589-.119 22.784-1.659 22.768-3.43s-10.235-3.111-22.831-2.992c-12.589.12-22.784 1.66-22.768 3.431s10.235 3.111 22.831 2.991z" fill="#01090f" stroke-linejoin="round"/><path d="m313.607 324.221v4.012c0 .806-2.09 1.604-6.262 2.25-8.672 1.364-23.119 1.524-32.269.399-4.739-.558-7.148-1.364-7.148-2.25v-4.012c0 .805 2.409 1.683 7.148 2.249 9.15 1.125 23.597.966 32.269-.399 4.172-.638 6.262-1.444 6.262-2.249z" fill="#fbe62e" stroke-linejoin="round"/><path d="m306.461 321.981c9.15 1.125 9.549 3.127.885 4.491-8.671 1.365-23.119 1.524-32.269.399s-9.549-3.127-.886-4.491c8.672-1.364 23.12-1.524 32.27-.399z" fill="#01090f" stroke-linejoin="round"/><path d="m313.607 317.481v4.013c0 .806-2.09 1.604-6.262 2.25-8.672 1.364-23.119 1.524-32.269.399-4.739-.559-7.148-1.364-7.148-2.25v-4.013c0 .806 2.409 1.684 7.148 2.25 9.15 1.125 23.597.965 32.269-.399 4.172-.638 6.262-1.444 6.262-2.25z" fill="#fbe62e" stroke-linejoin="round"/><path d="m306.461 315.239c9.15 1.125 9.549 3.127.885 4.491-8.671 1.364-23.119 1.524-32.269.399s-9.549-3.127-.886-4.491c8.672-1.364 23.12-1.524 32.27-.399z" fill="#fbe62e" stroke-linejoin="round"/><path d="m297.549 320.695v4.013l8.185-.806v-3.614l-8.185.399z" fill="#fff" stroke-linejoin="round"/><path d="m297.549 327.595v4.093l8.185-.806v-3.694l-8.185.399z" fill="#fff" stroke-linejoin="round"/><path d="m297.549 334.098v4.093l8.185-.806v-3.694l-8.185.399z" fill="#fff" stroke-linejoin="round"/><path d="m297.549 340.6v4.093l8.185-.806v-3.694l-8.185.399z" fill="#fff" stroke-linejoin="round"/><path d="m297.549 347.579v4.092l8.185-.885v-3.614l-8.185.399z" fill="#fff" stroke-linejoin="round"/><path d="m297.549 354.081v4.092l8.185-.806v-3.693l-8.185.399z" fill="#fff" stroke-linejoin="round"/><path d="m297.549 360.983v4.093l8.185-.806v-3.694l-8.185.399z" fill="#fff" stroke-linejoin="round"/><path d="m284.945 359.347v4.012c0 .806-2.09 1.604-6.262 2.25-8.672 1.364-23.119 1.524-32.269.399-4.739-.558-7.148-1.444-7.148-2.25v-4.012c0 .805 2.409 1.683 7.148 2.249 9.15 1.125 23.597.966 32.269-.399 4.252-.726 6.262-1.523 6.262-2.249z" fill="#fbe62e" stroke-linejoin="round"/><path d="m262.195 362.728c12.589-.119 22.784-1.659 22.768-3.43s-10.235-3.111-22.832-2.992c-12.588.12-22.784 1.66-22.768 3.431s10.236 3.111 22.832 2.991z" fill="#01090f" stroke-linejoin="round"/><path d="m284.945 353.005v4.013c0 .805-2.09 1.603-6.262 2.249-8.672 1.364-23.119 1.524-32.269.399-4.739-.558-7.148-1.364-7.148-2.25v-4.012c0 .805 2.409 1.683 7.148 2.249 9.15 1.125 23.597.966 32.269-.398 4.252-.639 6.262-1.444 6.262-2.25z" fill="#fbe62e" stroke-linejoin="round"/><path d="m277.885 350.763c9.15 1.125 9.549 3.127.885 4.492-8.672 1.364-23.119 1.523-32.269.399-9.15-1.125-9.549-3.128-.886-4.492 8.672-1.364 23.119-1.524 32.27-.399z" fill="#01090f" stroke-linejoin="round"/><path d="m284.945 346.67v4.013c0 .805-2.09 1.603-6.262 2.249-8.672 1.364-23.119 1.524-32.269.399-4.739-.558-7.148-1.364-7.148-2.249v-4.013c0 .806 2.409 1.683 7.148 2.249 9.15 1.125 23.597.966 32.269-.398 4.252-.639 6.262-1.444 6.262-2.25z" fill="#fbe62e" stroke-linejoin="round"/><path d="m277.886 344.42c9.151 1.125 9.55 3.128.886 4.492-8.672 1.364-23.119 1.524-32.269.399-9.151-1.125-9.549-3.127-.886-4.492 8.672-1.364 23.119-1.523 32.269-.399z" fill="#fbe62e" stroke-linejoin="round"/><path d="m267.689 349.798v4.093l8.106-.806v-3.693l-8.106.398z" fill="#fff" stroke-linejoin="round"/><path d="m267.689 356.298v4.093l8.106-.806v-3.693l-8.106.398z" fill="#fff" stroke-linejoin="round"/><path d="m267.291 362.879v4.013l8.105-.806v-3.613l-8.105.399z" fill="#fff" stroke-linejoin="round"/><path d="m340.74 359.593v4.012c0 .806-2.09 1.604-6.262 2.25-8.672 1.364-23.119 1.524-32.27.399-4.738-.558-7.147-1.444-7.147-2.25v-4.012c0 .805 2.409 1.683 7.147 2.249 9.151 1.125 23.598.966 32.27-.399 4.252-.638 6.262-1.443 6.262-2.249z" fill="#fbe62e" stroke-linejoin="round"/><path d="m333.68 357.344c9.15 1.125 9.549 3.128.885 4.492-8.672 1.364-23.119 1.523-32.269.399-9.151-1.125-9.549-3.128-.886-4.492 8.672-1.364 23.119-1.524 32.27-.399z" fill="#01090f" stroke-linejoin="round"/><path d="m340.74 352.693v4.013c0 .806-2.09 1.604-6.262 2.25-8.672 1.364-23.119 1.523-32.27.399-4.738-.559-7.147-1.365-7.147-2.25v-4.013c0 .806 2.409 1.684 7.147 2.25 9.151 1.125 23.598.965 32.27-.399 4.252-.638 6.262-1.524 6.262-2.25z" fill="#fbe62e" stroke-linejoin="round"/><path d="m333.68 350.443c9.15 1.125 9.549 3.127.885 4.491-8.672 1.364-23.119 1.524-32.269.399-9.151-1.125-9.549-3.127-.886-4.491 8.672-1.364 23.119-1.524 32.27-.399z" fill="#01090f" stroke-linejoin="round"/><path d="m340.74 345.712v4.013c0 .805-2.09 1.603-6.262 2.249-8.672 1.364-23.119 1.524-32.27.399-4.738-.558-7.147-1.364-7.147-2.249v-4.013c0 .806 2.409 1.683 7.147 2.249 9.151 1.125 23.598.966 32.27-.398 4.252-.639 6.262-1.444 6.262-2.25z" fill="#fbe62e" stroke-linejoin="round"/><path d="m333.68 343.463c9.15 1.125 9.549 3.128.885 4.492-8.672 1.364-23.119 1.524-32.269.399-9.151-1.125-9.549-3.128-.886-4.492 8.672-1.364 23.119-1.523 32.27-.399z" fill="#01090f" stroke-linejoin="round"/><path d="m340.74 338.812v4.012c0 .806-2.09 1.604-6.262 2.25-8.672 1.364-23.119 1.524-32.27.399-4.738-.559-7.147-1.444-7.147-2.25v-4.013c0 .806 2.409 1.684 7.147 2.25 9.151 1.125 23.598.965 32.27-.399 4.252-.638 6.262-1.444 6.262-2.249z" fill="#fbe62e" stroke-linejoin="round"/><path d="m333.681 336.562c9.151 1.125 9.55 3.127.886 4.491-8.672 1.365-23.119 1.524-32.269.399-9.151-1.125-9.549-3.127-.886-4.491 8.672-1.364 23.119-1.524 32.269-.399z" fill="#fbe62e" stroke-linejoin="round"/><path d="m324.291 342.02v4.013l8.185-.806v-3.614l-8.185.399z" fill="#fff" stroke-linejoin="round"/><path d="m324.291 348.919v4.092l8.185-.806v-3.693l-8.185.399z" fill="#fff" stroke-linejoin="round"/><path d="m324.291 355.82v4.092l8.185-.805v-3.694l-8.185.399z" fill="#fff" stroke-linejoin="round"/><path d="m324.291 362.798v4.013l8.185-.806v-3.613l-8.185.398z" fill="#fff" stroke-linejoin="round"/><path d="m81.9768 357.354v4.18c0 .837-2.1779 1.675-6.5257 2.337-9.0306 1.42-24.0842 1.588-33.6174.415-4.9302-.582-7.4431-1.42-7.4431-2.337v-4.181c0 .838 2.5049 1.755 7.4431 2.338 9.5332 1.172 24.5868 1.005 33.6174-.415 4.4356-.67 6.5257-1.508 6.5257-2.337z" fill="#fbe62e" stroke-linejoin="round"/><path d="m58.2597 360.96c13.1151-.127 23.7333-1.723 23.7173-3.574-.0159-1.851-10.666-3.239-23.7812-3.119-13.1151.128-23.7332 1.723-23.7173 3.574.016 1.851 10.6661 3.239 23.7812 3.119z" fill="#01090f" stroke-linejoin="round"/><path d="m81.9768 350.829v4.18c0 .838-2.1779 1.676-6.5257 2.338-9.0306 1.42-24.0842 1.587-33.6174.415-4.9302-.583-7.4431-1.42-7.4431-2.338v-4.18c0 .838 2.5049 1.755 7.4431 2.337 9.5332 1.173 24.5868 1.006 33.6174-.414 4.4356-.671 6.5257-1.508 6.5257-2.338z" fill="#fbe62e" stroke-linejoin="round"/><path d="m74.5334 348.491c9.5332 1.173 9.948 3.263.9174 4.683s-24.0843 1.587-33.6174.415c-9.5332-1.173-9.948-3.263-.9174-4.683s24.164-1.675 33.6174-.415z" fill="#01090f" stroke-linejoin="round"/><path d="m81.9768 344.224v4.18c0 .838-2.1779 1.675-6.5257 2.337-9.0306 1.42-24.0842 1.588-33.6174.415-4.9302-.582-7.4431-1.42-7.4431-2.337v-4.181c0 .838 2.5049 1.756 7.4431 2.338 9.5332 1.173 24.5868 1.005 33.6174-.415 4.4356-.67 6.5257-1.508 6.5257-2.337z" fill="#fbe62e" stroke-linejoin="round"/><path d="m74.5334 341.885c9.5332 1.173 9.948 3.263.9174 4.683s-24.0843 1.588-33.6174.415c-9.5332-1.173-9.948-3.263-.9174-4.683s24.164-1.587 33.6174-.415z" fill="#fbe62e" stroke-linejoin="round"/><path d="m63.9941 347.485v4.26l8.4483-.837v-3.846l-8.4483.415z" fill="#fff" stroke-linejoin="round"/><path d="m63.9941 354.258v4.26l8.4483-.838v-3.845l-8.4483.415z" fill="#fff" stroke-linejoin="round"/><path d="m63.582 361.033v4.26l8.4483-.837v-3.846l-8.4483.415z" fill="#fff" stroke-linejoin="round"/><path d="m596.913 196.823-.543-3.124c-.462-2.69-2.581-4.782-5.244-5.244l-3.124-.543 3.124-.544c2.69-.462 4.782-2.581 5.244-5.244l.543-3.124.544 3.124c.462 2.69 2.581 4.782 5.244 5.244l3.124.544-3.124.543c-2.69.462-4.782 2.581-5.244 5.244z" fill="#fbe62e" stroke-miterlimit="10"/><path d="m499.502 80-.579-3.3404c-.502-2.8578-2.742-5.0976-5.581-5.5803l-3.34-.5793 3.34-.5793c2.858-.502 5.098-2.7418 5.581-5.5802l.579-3.3405.579 3.3405c.502 2.8577 2.742 5.0975 5.581 5.5802l3.34.5793-3.34.5793c-2.858.502-5.098 2.7419-5.581 5.5803z" fill="#fff" stroke-miterlimit="10"/><path d="m47.502 97-.5127-2.9952c-.4318-2.5635-2.4556-4.5604-4.9921-4.9921l-2.9952-.5127 2.9952-.5127c2.5635-.4317 4.5603-2.4556 4.9921-4.9921l.5127-2.9952.5127 2.9952c.4317 2.5635 2.4555 4.5604 4.992 4.9921l2.9953.5127-2.9953.5127c-2.5635.4317-4.5603 2.4556-4.992 4.9921z" fill="#cfa4ff" stroke-miterlimit="10"/><path d="m22.7317 35.4595-.7075-4.1334c-.5958-3.5375-3.3886-6.2931-6.8889-6.8889l-4.1333-.7074 4.1333-.7076c3.5375-.5958 6.2931-3.3886 6.8889-6.8889l.7075-4.1333.7075 4.1333c.5958 3.5376 3.3886 6.2931 6.8889 6.8889l4.1333.7076-4.1333.7074c-3.5376.5958-6.2931 3.3886-6.8889 6.8889z" fill="#fbe62e" stroke-miterlimit="10"/><path d="m132.029 363.054c2.776 0 5.027-2.251 5.027-5.027s-2.251-5.027-5.027-5.027-5.027 2.251-5.027 5.027 2.251 5.027 5.027 5.027z" fill="#fff" stroke-miterlimit="10"/><path d="m540.502 51c2.485 0 4.5-2.0147 4.5-4.5s-2.015-4.5-4.5-4.5-4.5 2.0147-4.5 4.5 2.015 4.5 4.5 4.5z" fill="#bd80ff" stroke-miterlimit="10"/><path d="m165.002 66c3.866 0 7-3.134 7-7s-3.134-7-7-7-7 3.134-7 7 3.134 7 7 7z" fill="#9bcdfb" stroke-miterlimit="10"/><path d="m612.24 226.476c3.445 0 6.238-2.793 6.238-6.238s-2.793-6.238-6.238-6.238-6.238 2.793-6.238 6.238 2.793 6.238 6.238 6.238z" fill="#a041ff" stroke-miterlimit="10"/></g></svg>