<svg fill="none" height="442" viewBox="0 0 640 442" width="640" xmlns="http://www.w3.org/2000/svg"><rect height="336.175" rx="31" stroke="#000" width="468.398" x="86.7754" y="55.1572"/><path d="m87 94h468" stroke="#000"/><circle cx="466.161" cy="75.8984" fill="#f78400" r="8.64204" stroke="#000"/><circle cx="518.013" cy="75.8984" fill="#fceb64" r="8.64204" stroke="#000"/><circle cx="492.088" cy="75.8984" fill="#fff" r="8.64204" stroke="#000"/><rect fill="#001749" height="76.7327" rx="6.89689" stroke="#001749" stroke-width="1.25" width="76.7327" x="324.95" y="334"/><rect fill="#1c4396" height="76.7327" rx="6.89689" stroke="#001749" stroke-width="1.25" width="76.7327" x="322.158" y="334"/><path d="m376.359 363.416h-15.589l-.92-4.655c-.217-1.109-1.191-1.921-2.328-1.921h-12.693c-1.299 0-2.382 1.055-2.382 2.381v6.009 16.157 6.55h35.752v-22.734c0-.975-.812-1.787-1.84-1.787z" style="fill:#fff;stroke:#001749;stroke-width:1.25;stroke-miterlimit:10;stroke-linecap:round;stroke-linejoin:round"/><path d="m378.334 387.964h-35.86l7.984-18.187c.297-.677.974-1.137 1.732-1.137h31.719c1.38 0 2.3 1.407 1.732 2.652z" style="fill:#fff;stroke:#001749;stroke-width:1.25;stroke-miterlimit:10;stroke-linecap:round;stroke-linejoin:round"/><rect fill="#001749" height="76.7327" rx="6.89689" stroke="#001749" stroke-width="1.25" width="76.7327" x="409.584" y="334"/><rect fill="#fff" height="76.7327" rx="6.89689" stroke="#001749" stroke-width="1.25" width="76.7327" x="406.793" y="334"/><ellipse cx="445.658" cy="383.661" fill="#1c4396" rx="22.4999" ry="5.26118" stroke="#001749"/><ellipse cx="445.658" cy="373.139" fill="#1c4396" rx="22.4999" ry="5.26118" stroke="#001749"/><ellipse cx="445.658" cy="362.616" fill="#1c4396" rx="22.4999" ry="5.26118" stroke="#001749"/><path d="m151.158 341.254c0-3.81 3.089-6.9 6.9-6.9h150.203c3.809 0 6.897 3.088 6.897 6.897v63.207c0 3.809-3.088 6.896-6.897 6.896h-150.203c-3.811 0-6.9-3.089-6.9-6.9z" fill="#001749" stroke="#001749" stroke-width="1.25"/><path d="m151.158 341.254c0-3.81 3.089-6.9 6.9-6.9h147.203c3.809 0 6.897 3.088 6.897 6.897v63.207c0 3.809-3.088 6.896-6.897 6.896h-147.203c-3.811 0-6.9-3.089-6.9-6.9z" fill="#f78400" stroke="#001749" stroke-width="1.25"/><path d="m243.522 391.547c-.087 0-.158-.071-.158-.158v-31.838c0-.075.052-.139.125-.155l5.626-1.185c.097-.02.19.055.19.155v33.023c0 .087-.071.158-.158.158z" fill="#fff"/><path d="m175.482 392.216c-2.166 0-4.099-.536-5.801-1.608s-3.048-2.538-4.038-4.397c-.99-1.86-1.485-3.973-1.485-6.337s.495-4.461 1.485-6.289c.99-1.86 2.336-3.31 4.038-4.35 1.702-1.072 3.635-1.608 5.801-1.608 1.733 0 3.249.331 4.548.993 1.143.582 2.095 1.372 2.855 2.369.094.124.301.059.301-.097v-11.911c0-.074.052-.139.125-.154l5.625-1.185c.098-.021.19.054.19.154v33.695c0 .087-.07.158-.157.158h-5.003c-.076 0-.141-.054-.155-.128l-.555-2.869c-.027-.136-.204-.176-.289-.066-.715.919-1.632 1.735-2.751 2.448-1.207.788-2.785 1.182-4.734 1.182zm1.253-5.296c1.918 0 3.481-.646 4.687-1.939 1.238-1.324 1.857-3.011 1.857-5.06s-.619-3.719-1.857-5.012c-1.206-1.324-2.769-1.986-4.687-1.986-1.887 0-3.45.646-4.687 1.939-1.238 1.292-1.857 2.963-1.857 5.012s.619 3.736 1.857 5.06c1.237 1.324 2.8 1.986 4.687 1.986z" fill="#fff"/><path d="m203.611 392.219c-2.32 0-4.378-.504-6.172-1.513-1.795-1.008-3.202-2.427-4.223-4.255-1.021-1.829-1.532-3.941-1.532-6.337 0-2.427.495-4.587 1.485-6.478 1.021-1.892 2.413-3.358 4.177-4.398 1.794-1.072 3.898-1.608 6.312-1.608 2.258 0 4.254.505 5.986 1.514 1.733 1.008 3.079 2.395 4.038 4.161.99 1.734 1.485 3.672 1.485 5.816 0 .347-.015.709-.046 1.088 0 .333-.012.678-.036 1.036-.006.082-.074.146-.157.146h-17.181c-.092 0-.164.077-.156.168.149 1.748.764 3.127 1.843 4.135 1.145 1.04 2.522 1.56 4.131 1.56 1.206 0 2.212-.268 3.016-.803.807-.548 1.411-1.243 1.814-2.084.027-.056.082-.092.144-.092h5.722c.105 0 .18.101.149.202-.439 1.403-1.146 2.691-2.12 3.865-.99 1.198-2.228 2.144-3.713 2.837-1.454.694-3.109 1.04-4.966 1.04zm.047-19.671c-1.455 0-2.739.426-3.852 1.277-1.073.789-1.773 1.989-2.099 3.597-.02.097.054.186.153.186h11.107c.09 0 .162-.077.155-.167-.122-1.467-.675-2.64-1.659-3.521-1.021-.915-2.289-1.372-3.805-1.372z" fill="#fff"/><path d="m229.454 392.22c-2.321 0-4.378-.504-6.173-1.513-1.794-1.009-3.202-2.428-4.223-4.256s-1.532-3.941-1.532-6.336c0-2.428.495-4.587 1.485-6.479 1.021-1.891 2.414-3.357 4.177-4.397 1.795-1.072 3.899-1.608 6.312-1.608 2.258 0 4.254.504 5.987 1.513 1.732 1.009 3.078 2.396 4.037 4.161.99 1.734 1.485 3.673 1.485 5.817 0 .346-.015.709-.046 1.087 0 .333-.012.679-.036 1.036-.006.083-.074.146-.157.146h-17.181c-.091 0-.164.078-.156.168.15 1.749.764 3.127 1.844 4.135 1.144 1.041 2.521 1.561 4.13 1.561 1.207 0 2.212-.268 3.017-.804.806-.548 1.41-1.242 1.813-2.083.027-.056.083-.092.144-.092h5.722c.105 0 .181.101.149.201-.439 1.403-1.145 2.692-2.12 3.865-.99 1.198-2.228 2.144-3.713 2.838-1.454.693-3.109 1.04-4.965 1.04zm.046-19.671c-1.454 0-2.738.425-3.852 1.276-1.073.79-1.773 1.989-2.099 3.598-.02.096.055.185.153.185h11.107c.091 0 .163-.076.155-.167-.122-1.466-.675-2.64-1.659-3.521-1.021-.914-2.289-1.371-3.805-1.371z" fill="#fff"/><ellipse cx="257.089" cy="387.478" fill="#fff" rx="3.99936" ry="4.07499"/><path clip-rule="evenodd" d="m289.827 352.354c6.811 0 12.331 5.521 12.331 12.331s-5.52 12.331-12.331 12.331h-23.612c-.227 0-.452-.006-.676-.018-3.056 1.793-7.202 4.216-7.202 4.216v-7.043c-2.721-2.262-4.453-5.671-4.453-9.486 0-6.81 5.521-12.331 12.331-12.331z" fill="#2c71f0" fill-rule="evenodd"/><path d="m265.539 376.998-.165-.283.085-.05.098.005zm-7.202 4.216.165.283-.493.289v-.572zm0-7.043.209-.252.119.098v.154zm43.493-9.486c0-6.629-5.374-12.003-12.003-12.003v-.655c6.992 0 12.659 5.667 12.659 12.658zm-12.003 12.003c6.629 0 12.003-5.374 12.003-12.003h.656c0 6.992-5.667 12.659-12.659 12.659zm-23.612 0h23.612v.656h-23.612zm-.658-.018c.218.012.437.018.658.018v.656c-.232 0-.464-.006-.693-.019zm-7.22 4.544c-.166-.283-.166-.283-.166-.283h.001c0-.001.001-.001.002-.002.002-.001.005-.003.009-.005.008-.005.02-.012.035-.021.032-.018.078-.045.137-.08.12-.069.293-.171.512-.299.436-.255 1.05-.614 1.759-1.029 1.419-.83 3.219-1.884 4.748-2.78l.331.566c-1.528.896-3.329 1.95-4.748 2.78-.709.415-1.323.774-1.759 1.03-.218.127-.392.229-.512.299-.059.034-.105.061-.137.08-.015.009-.027.016-.035.02-.004.003-.007.004-.009.005-.001.001-.002.001-.002.002h-.001s0 0-.165-.283zm.328-7.043v7.043h-.656v-7.043zm-4.453-9.486c0 3.713 1.686 7.032 4.334 9.234l-.419.504c-2.792-2.321-4.571-5.822-4.571-9.738zm12.003-12.003c-6.629 0-12.003 5.374-12.003 12.003h-.656c0-6.991 5.668-12.658 12.659-12.658zm23.612 0h-23.612v-.655h23.612z" fill="#000"/><g stroke="#001749"><path d="m265.065 372.298v.287h.287 3.431.287v-.287-5.728h5.485v5.728.287h.287 3.453.287v-.287-15.201-.287h-.287-3.453-.287v.287 5.598h-5.485v-5.598-.287h-.287-3.431-.287v.287zm15.926 0v.287h.287 3.431.288v-.287-4.794h1.577l2.505 4.924.08.157h.176 3.822.491l-.241-.428-3.093-5.5c1.498-.872 2.587-2.504 2.587-4.544 0-3.155-2.431-5.303-5.673-5.303h-5.95-.287v.287zm4.006-8.3v-3.682h1.884c.614 0 1.093.188 1.415.492.321.302.513.744.513 1.305 0 .64-.21 1.103-.532 1.407-.324.306-.792.478-1.353.478z" fill="#fff" stroke-width=".5745"/><rect fill="#001749" height="76.7327" rx="6.89689" stroke-width="1.25" width="76.7327" x="237.641" y="85.8574"/><rect fill="#f78400" height="76.7327" rx="6.89689" stroke-width="1.25" width="76.7327" x="234.85" y="85.8574"/><path d="m289.05 115.273h-15.589l-.92-4.655c-.217-1.109-1.191-1.921-2.328-1.921h-12.693c-1.299 0-2.381 1.055-2.381 2.381v6.009 16.157 6.55h35.751v-22.734c0-.975-.811-1.787-1.84-1.787z" fill="#fff" stroke-linecap="round" stroke-linejoin="round" stroke-miterlimit="10" stroke-width="1.25"/><path d="m291.025 139.821h-35.86l7.984-18.187c.298-.677.974-1.137 1.732-1.137h31.719c1.381 0 2.301 1.407 1.732 2.652z" fill="#fff" stroke-linecap="round" stroke-linejoin="round" stroke-miterlimit="10" stroke-width="1.25"/><rect fill="#001749" height="76.7327" rx="6.89689" stroke-width="1.25" width="76.7327" x="196.359" y="168.029"/><rect fill="#1c4396" height="76.7327" rx="6.89689" stroke-width="1.25" width="76.7327" x="193.568" y="168.029"/><path d="m241.357 184.055h11.9797v42.679h-11.9797z" fill="#fff" stroke-width="1.25"/><path d="m209.973 212.508h11.9797v14.2263h-11.9797z" fill="#fff" stroke-width="1.25"/><path d="m225.664 198.281h11.9797v28.4537h-11.9797z" fill="#fff" stroke-width="1.25"/><rect fill="#001749" height="76.7327" rx="6.89689" stroke-width="1.25" width="76.7327" x="324.063" y="85.5146"/><rect fill="#1c4396" height="76.7327" rx="6.89689" stroke-width="1.25" width="76.7327" x="321.271" y="85.5146"/><path d="m383.879 127.529c.143-1.032.229-2.093.229-3.154 0-1.062-.086-2.123-.229-3.155l-4.331-1.549c-.401-1.434-.975-2.811-1.692-4.073l1.979-4.158c-1.262-1.692-2.782-3.212-4.474-4.474l-4.159 1.979c-1.261-.717-2.638-1.291-4.072-1.692l-1.549-4.331c-1.032-.144-2.094-.23-3.155-.23s-2.122.086-3.155.23l-1.548 4.331c-1.434.401-2.811.975-4.073 1.692l-4.158-1.979c-1.693 1.262-3.213 2.782-4.475 4.474l1.979 4.158c-.717 1.262-1.29 2.639-1.692 4.073l-4.33 1.549c-.144 1.032-.23 2.093-.23 3.155 0 1.061.086 2.122.23 3.154l4.33 1.549c.402 1.434.975 2.811 1.692 4.073l-1.979 4.158c1.262 1.692 2.782 3.212 4.475 4.474l4.158-1.979c1.262.717 2.639 1.291 4.073 1.693l1.548 4.33c1.033.144 2.094.23 3.155.23s2.123-.086 3.155-.23l1.549-4.33c1.434-.402 2.811-.976 4.072-1.693l4.159 1.979c1.692-1.262 3.212-2.782 4.474-4.474l-1.979-4.158c.717-1.262 1.291-2.639 1.692-4.073zm-21.453 8.174c-6.252 0-11.328-5.076-11.328-11.328 0-6.253 5.076-11.329 11.328-11.329 6.253 0 11.329 5.076 11.329 11.329 0 6.252-5.076 11.328-11.329 11.328z" fill="#f78400" stroke-miterlimit="10" stroke-width="1.25"/><rect fill="#001749" height="76.7327" rx="6.89689" stroke-width="1.25" width="76.7327" x="281.495" y="168.029"/><rect fill="#fff" height="76.7327" rx="6.89689" stroke-width="1.25" width="76.7327" x="278.703" y="168.029"/><path d="m340.192 206.434c0 11.975-9.707 21.682-21.682 21.682-11.974 0-21.682-9.707-21.682-21.682s9.708-21.682 21.682-21.682c11.975 0 21.682 9.707 21.682 21.682zm-34.281 0c0 6.958 5.641 12.599 12.599 12.599 6.959 0 12.599-5.641 12.599-12.599s-5.64-12.599-12.599-12.599c-6.958 0-12.599 5.641-12.599 12.599z" fill="#f78400" stroke-width="1.25"/></g><path clip-rule="evenodd" d="m318.165 188.932c.166-.005.333-.007.5-.007.179 0 .356.002.534.008l-.022.75c-.17-.005-.341-.007-.512-.007-.16 0-.32.002-.479.006zm-1.986.165c.328-.046.658-.082.991-.11l.062.748c-.319.027-.635.062-.949.106zm4.086-.101c.356.032.71.074 1.06.127l-.111.742c-.336-.05-.674-.091-1.016-.121zm-6.041.488c.32-.082.644-.156.972-.221l.146.737c-.314.062-.624.132-.931.211zm8.152-.171c.35.074.696.159 1.038.253l-.2.724c-.327-.09-.659-.171-.994-.243zm-10.053.776c.31-.118.624-.228.942-.329l.228.715c-.305.097-.605.203-.902.316zm12.112-.207c.337.116.671.242.999.377l-.286.694c-.314-.129-.634-.25-.957-.361zm-13.931 1.023c.294-.153.594-.297.898-.433l.307.685c-.291.13-.578.269-.86.415zm15.905-.209c.321.155.637.32.946.494l-.367.655c-.297-.167-.599-.325-.907-.474zm-17.622 1.223c.276-.184.558-.362.844-.531l.382.646c-.274.163-.544.332-.808.509zm19.484-.178c.299.193.593.394.88.604l-.443.606c-.275-.201-.557-.394-.844-.579zm-21.076 1.378c.254-.214.514-.422.78-.622l.452.6c-.255.192-.504.39-.747.596zm22.799-.118c.274.228.541.463.802.706l-.513.548c-.249-.232-.505-.458-.768-.675zm3.31 3.804c-.036.204-.231.34-.435.304l-3.327-.588c-.204-.036-.341-.231-.305-.435.037-.205.231-.341.435-.305l2.958.523.523-2.957c.036-.205.231-.341.435-.305s.341.231.305.435zm-27.557-2.316c.228-.241.463-.477.705-.705l.516.546c-.231.218-.457.444-.676.675zm25.807-.03c.245.258.483.523.712.795l-.574.484c-.22-.261-.447-.515-.682-.762zm-27.094 1.553c.2-.266.408-.526.622-.78l.574.485c-.206.243-.405.492-.596.747zm-1.109 1.656c.169-.286.347-.568.531-.844l.624.418c-.177.264-.346.534-.509.808zm-.917 1.771c.137-.304.281-.604.434-.898l.667.345c-.146.282-.285.569-.415.86zm-.711 1.863c.101-.318.211-.632.329-.942l.702.268c-.114.297-.219.597-.316.902zm-.497 1.931c.065-.327.139-.652.221-.972l.727.187c-.079.307-.149.617-.211.931zm-.276 1.974c.027-.333.064-.663.11-.991l.744.104c-.044.314-.079.63-.106.949zm-.062 1.495c0-.167.002-.334.007-.5l.75.021c-.004.159-.006.319-.006.479s.002.32.006.479l-.75.021c-.005-.166-.007-.333-.007-.5zm35.554 0c0 .167-.002.334-.007.5l-.75-.021c.004-.159.006-.319.006-.479zm-35.382 2.486c-.046-.328-.083-.658-.11-.991l.748-.062c.027.319.062.635.106.949zm35.32-.991c-.028.333-.065.663-.11.991l-.744-.104c.044-.314.079-.63.106-.949zm-34.933 2.946c-.082-.32-.156-.645-.221-.972l.737-.146c.062.314.132.624.211.931zm34.657-.972c-.065.327-.139.652-.221.972l-.727-.187c.079-.307.149-.617.211-.931zm-.497 1.931c-.101.318-.211.632-.329.942l-.702-.268c.113-.297.219-.597.316-.902zm-33.555.942c-.118-.31-.228-.624-.329-.942l.715-.228c.097.305.202.605.316.902zm.816 1.819c-.153-.294-.297-.594-.434-.898l.686-.307c.13.291.269.578.415.86zm32.027-.898c-.136.304-.28.604-.433.898l-.667-.345c.146-.282.285-.569.415-.86zm-31.013 2.615c-.184-.276-.362-.558-.531-.844l.646-.382c.163.274.332.544.509.808zm30.097-.844c-.169.286-.347.568-.531.844l-.624-.418c.177-.264.346-.534.509-.808zm-28.897 2.436c-.214-.254-.422-.514-.622-.78l.6-.452c.191.255.39.504.596.747zm27.788-.78c-.2.266-.408.526-.622.78l-.574-.485c.206-.243.404-.492.596-.747zm-1.287 1.523c-.228.241-.464.477-.705.705l-.516-.546c.231-.218.457-.444.675-.675zm-25.131.705c-.242-.228-.477-.464-.705-.705l.545-.516c.219.231.445.457.676.675zm23.683.665c-.254.214-.514.422-.78.622l-.452-.6c.255-.191.504-.39.747-.596zm-22.16.622c-.266-.2-.526-.408-.78-.622l.485-.574c.243.206.492.405.747.596zm1.656 1.109c-.286-.169-.568-.347-.844-.531l.418-.624c.264.177.534.346.808.509zm18.911-.531c-.275.184-.557.362-.843.531l-.382-.646c.274-.163.543-.332.808-.509zm-17.14 1.448c-.304-.137-.604-.281-.898-.434l.345-.667c.282.146.569.285.86.415zm15.424-.434c-.294.153-.594.297-.898.434l-.307-.686c.291-.13.578-.269.86-.415zm-13.561 1.145c-.318-.101-.632-.211-.942-.329l.268-.702c.297.113.597.219.902.316zm11.742-.329c-.31.118-.624.228-.942.329l-.228-.715c.305-.097.605-.203.902-.316zm-9.811.826c-.328-.065-.652-.139-.972-.221l.187-.727c.307.079.617.149.931.211zm7.91-.221c-.32.082-.645.156-.972.221l-.146-.737c.314-.062.624-.132.931-.211zm-5.936.497c-.333-.027-.663-.064-.991-.11l.104-.744c.314.044.63.079.949.106zm3.981-.11c-.328.046-.658.083-.991.11l-.062-.748c.319-.027.635-.062.949-.106zm-2.486.172c-.167 0-.334-.002-.5-.007l.021-.75c.159.004.319.006.479.006s.32-.002.479-.006l.021.75c-.166.005-.333.007-.5.007z" fill="#fff" fill-rule="evenodd"/><rect fill="#001749" height="76.7327" rx="6.89689" stroke="#001749" stroke-width="1.25" width="76.7327" x="153.791" y="250.544"/><rect fill="#fff" height="76.7327" rx="6.89689" stroke="#001749" stroke-width="1.25" width="76.7327" x="151" y="250.544"/><rect fill="#f78400" height="43.3643" rx="12.8076" stroke="#001749" stroke-width="1.25" transform="matrix(.9999994 -.00109244 .00109244 .9999994 -.29128 .193715)" width="25.6152" x="177.178" y="266.729"/><path d="m195.038 291.659c-.018-3.032-2.307-3.703-4.491-4.251l-.035-5.566c1.704.177 2.853 1.208 2.864 2.953l1.308-.008c-.016-2.7-2.122-3.933-4.179-4.108l-.007-1.121-1.059.006.007 1.122c-2.533.203-4.018 1.853-4.006 3.784.017 2.783 2.015 3.435 4.054 3.942l.037 6.106c-2.016-.216-3.27-1.538-3.281-3.282l-1.267.008c.016 2.513 1.938 4.266 4.556 4.478l.009 1.516 1.059-.006-.009-1.516c2.865-.184 4.453-1.939 4.44-4.057zm-8.331-7.197c-.008-1.288.92-2.415 2.746-2.613l.033 5.275c-1.519-.447-2.769-1.021-2.779-2.662zm3.884 10.07-.036-5.836c1.705.446 3.184 1.04 3.196 3.054.01 1.537-1.209 2.624-3.16 2.782z" fill="#fff"/><rect fill="#001749" height="76.7327" rx="6.89689" stroke="#001749" stroke-width="1.25" width="76.7327" x="238.95" y="251"/><rect fill="#f78400" height="76.7327" rx="6.89689" stroke="#001749" stroke-width="1.25" width="76.7327" x="236.158" y="251"/><path d="m275.379 268.361c-8.761 0-15.879 7.118-15.879 15.879 0 12.229 12.381 24.55 15.271 27.257.335.304.852.304 1.217 0 2.89-2.707 15.271-14.936 15.271-27.257 0-8.761-7.118-15.879-15.88-15.879zm0 23.819c-4.502 0-8.152-3.65-8.152-8.122 0-4.502 3.65-8.122 8.122-8.122 4.502 0 8.122 3.65 8.122 8.122.031 4.472-3.589 8.122-8.092 8.122z" fill="#fff" stroke="#001749" stroke-miterlimit="10" stroke-width="1.25"/><rect fill="#001749" height="76.7327" rx="6.89689" stroke="#001749" stroke-width="1.25" width="76.7327" x="281.792" y="3"/><rect fill="#fff" height="76.7327" rx="6.89689" stroke="#001749" stroke-width="1.25" width="76.7327" x="279" y="3"/><path d="m326.634 49.831c-1.251-.5648-2.557-.997-3.898-1.2896.292-.1091.577-.2283.858-.3559 2.449-1.1203 4.463-3.0178 5.73-5.3998 1.267-2.3819 1.717-5.1158 1.28-7.7796-.436-2.6638-1.735-5.1095-3.696-6.9594-1.961-1.85-4.474-3.0014-7.152-3.2766-2.679-.2752-5.373.3412-7.667 1.7541-2.294 1.4128-4.06 3.5435-5.027 6.0632-.966 2.5197-1.078 5.2882-.319 7.8783s2.347 4.8577 4.519 6.4528c.063.0247.123.0535.186.0761l-.057.0164c.885.635 1.851 1.1496 2.872 1.5304-4.638.9869-8.751 3.6504-11.555 7.4829-2.94-3.0645-4.919-6.926-5.692-11.1066-.773-4.1807-.307-8.4969 1.341-12.4146s4.405-7.2649 7.931-9.6272c3.526-2.3624 7.665-3.6363 11.905-3.664s8.396 1.1919 11.952 3.5079c3.556 2.3161 6.357 5.6269 8.055 9.5227 1.699 3.8958 2.222 8.2056 1.503 12.396s-2.648 8.0775-5.547 11.1801c-1.96-2.6037-4.549-4.6642-7.522-5.9876z" stroke="#001749" stroke-linecap="round" stroke-linejoin="round" stroke-width="1.25"/><path d="m318.154 62.5749c-2.913-.0294-5.791-.6365-8.466-1.7855-2.674-1.1491-5.09-2.8171-7.107-4.9061 2.839-3.8434 7.002-6.5146 11.697-7.5043-1.033-.3819-2.011-.8979-2.907-1.5347l.058-.0165c-.065-.0227-.125-.0516-.189-.0763-2.193-1.5986-3.796-3.8697-4.561-6.4629-.765-2.5931-.65-5.3644.327-7.8861.978-2.5218 2.763-4.654 5.082-6.0677 2.318-1.4138 5.04-2.0305 7.746-1.755 2.706.2754 5.245 1.4277 7.227 3.2791 1.981 1.8513 3.295 4.299 3.737 6.9653.442 2.6662-.011 5.4031-1.289 7.7882-1.279 2.3852-3.312 4.2862-5.786 5.4097-.284.1279-.573.2476-.868.3569 1.357.2934 2.679.7269 3.946 1.2933 3.006 1.3307 5.622 3.3992 7.601 6.0109-2.077 2.2072-4.595 3.96-7.393 5.1466-2.797 1.1866-5.813 1.7809-8.855 1.7451z" fill="#f78400" stroke="#001749" stroke-linecap="round" stroke-linejoin="round" stroke-width="1.25"/><rect fill="#001749" height="76.7327" rx="6.89689" stroke="#001749" stroke-width="1.25" width="76.7327" x="385.296" y="139.971"/><rect fill="#f78400" height="76.7327" rx="6.89689" stroke="#001749" stroke-width="1.25" width="76.7327" x="382.504" y="139.971"/><path clip-rule="evenodd" d="m429.016 157.548h-15.571v13.897h-13.896v15.571h13.896v13.897h15.571v-13.897h13.897v-15.571h-13.897z" fill="#fff" fill-rule="evenodd"/><path d="m413.445 157.548v-.625h-.625v.625zm15.571 0h.625v-.625h-.625zm-15.571 13.897v.625h.625v-.625zm-13.896 0v-.625h-.625v.625zm0 15.571h-.625v.625h.625zm13.896 0h.625v-.625h-.625zm0 13.897h-.625v.625h.625zm15.571 0v.625h.625v-.625zm0-13.897v-.625h-.625v.625zm13.897 0v.625h.625v-.625zm0-15.571h.625v-.625h-.625zm-13.897 0h-.625v.625h.625zm-15.571-13.272h15.571v-1.25h-15.571zm.625 13.272v-13.897h-1.25v13.897zm-14.521.625h13.896v-1.25h-13.896zm.625 14.946v-15.571h-1.25v15.571zm13.271-.625h-13.896v1.25h13.896zm.625 14.522v-13.897h-1.25v13.897zm14.946-.625h-15.571v1.25h15.571zm-.625-13.272v13.897h1.25v-13.897zm14.522-.625h-13.897v1.25h13.897zm-.625-14.946v15.571h1.25v-15.571zm-13.272.625h13.897v-1.25h-13.897zm-.625-14.522v13.897h1.25v-13.897z" fill="#001749"/><path d="m449.71 186.819 34.397-46.356 3.545 19.964 24.899-12.718 4.979 10.324-24.912 12.849 13.871 15.093z" fill="#fbe62e" stroke="#001749" stroke-linejoin="round" stroke-width="1.25"/><rect fill="#001749" height="163.848" rx="37.3089" stroke="#001749" stroke-width="1.25" transform="matrix(0 1 -1 0 741.818 -236.472)" width="74.6178" x="489.145" y="252.673"/><rect fill="#1c4396" height="164.166" rx="37.3089" stroke="#001749" stroke-width="1.25" transform="matrix(0 1 -1 0 737.594 -236.472)" width="74.6178" x="487.033" y="250.561"/><path d="m463.043 318.322c-17.052 7.052-36.592-1.053-43.645-18.105-7.052-17.051 1.053-36.591 18.105-43.644 17.051-7.052 36.591 1.053 43.644 18.105 7.053 17.051-1.053 36.591-18.104 43.644z" fill="#f78400" stroke="#001749" stroke-width="1.25"/><path d="m450.271 309.947c12.427 0 22.5-10.073 22.5-22.499 0-12.427-10.073-22.5-22.5-22.5-12.426 0-22.5 10.073-22.5 22.5 0 12.426 10.074 22.499 22.5 22.499z" fill="#fff" stroke="#001749" stroke-miterlimit="10" stroke-width="1.25"/><path d="m450.423 264.948-.225 45" stroke="#001749" stroke-linejoin="round" stroke-miterlimit="10" stroke-width="1.25"/><path d="m450.424 264.948c-15.921 7.977-16.038 36.798-.234 45" stroke="#001749" stroke-linejoin="round" stroke-miterlimit="10" stroke-width="1.25"/><path d="m450.102 264.948c15.922 7.977 16.039 36.798.235 45" stroke="#001749" stroke-linejoin="round" stroke-miterlimit="10" stroke-width="1.25"/><path d="m472.773 287.598-45-.301" stroke="#001749" stroke-linejoin="round" stroke-miterlimit="10" stroke-width="1.25"/><path d="m429.201 295.424 42.441.226" stroke="#001749" stroke-linejoin="round" stroke-miterlimit="10" stroke-width="1.25"/><path d="m434.468 303.476 31.53.226" stroke="#001749" stroke-linejoin="round" stroke-miterlimit="10" stroke-width="1.25"/><path d="m429.277 279.322 42.441.226" stroke="#001749" stroke-linejoin="round" stroke-miterlimit="10" stroke-width="1.25"/><path d="m434.695 271.271 31.53.225" stroke="#001749" stroke-linejoin="round" stroke-miterlimit="10" stroke-width="1.25"/></svg>