<svg width="722" height="636" viewBox="0 0 722 636" fill="none" xmlns="http://www.w3.org/2000/svg">
<rect width="722" height="636" rx="16" fill="#0C2B66"/>
<rect x="111" y="68" width="500" height="500" rx="32" fill="#FFA5C5"/>
<path d="M549.988 464.663H396.752C391.199 464.663 387.658 460.171 388.837 454.625L417.937 317.869C419.115 312.323 424.575 307.831 430.121 307.831H583.357C588.909 307.831 592.451 312.323 591.272 317.869L562.172 454.625C560.994 460.171 555.534 464.663 549.988 464.663Z" fill="#FFA9C6" stroke="black" stroke-width="1.16953" stroke-linejoin="round"/>
<path d="M416.138 326.36L417.945 317.869C419.124 312.323 424.583 307.831 430.129 307.831H583.366C588.918 307.831 592.459 312.323 591.281 317.869L589.473 326.36H416.138Z" fill="black" stroke="black" stroke-width="1.16953" stroke-linejoin="round"/>
<path d="M555.362 317.093C554.887 319.324 552.691 321.135 550.452 321.135C548.212 321.135 546.787 319.324 547.262 317.093C547.737 314.862 549.933 313.051 552.173 313.051C554.412 313.051 555.837 314.862 555.362 317.093Z" fill="white" stroke="black" stroke-width="1.16953" stroke-linejoin="round"/>
<path d="M568.339 317.093C567.864 319.324 565.668 321.135 563.428 321.135C561.189 321.135 559.764 319.324 560.239 317.093C560.714 314.862 562.91 313.051 565.149 313.051C567.389 313.051 568.814 314.862 568.339 317.093Z" fill="white" stroke="black" stroke-width="1.16953" stroke-linejoin="round"/>
<path d="M581.315 317.093C580.84 319.324 578.644 321.135 576.405 321.135C574.165 321.135 572.74 319.324 573.215 317.093C573.69 314.862 575.887 313.051 578.126 313.051C580.365 313.051 581.79 314.862 581.315 317.093Z" fill="white" stroke="black" stroke-width="1.16953" stroke-linejoin="round"/>
<path d="M194.926 302.958H348.162C353.714 302.958 357.255 298.466 356.077 292.921L326.977 156.164C325.799 150.618 320.339 146.126 314.793 146.126H161.556C156.004 146.126 152.463 150.618 153.641 156.164L182.741 292.921C183.92 298.466 189.38 302.958 194.926 302.958Z" fill="#FFA9C6" stroke="black" stroke-width="1.16953" stroke-linejoin="round"/>
<path d="M328.775 164.653L326.968 156.162C325.79 150.617 320.33 146.125 314.784 146.125H161.547C155.995 146.125 152.454 150.617 153.632 156.162L155.44 164.653H328.775Z" fill="black" stroke="black" stroke-width="1.16953" stroke-linejoin="round"/>
<path d="M189.551 155.386C190.026 157.617 192.222 159.429 194.461 159.429C196.701 159.429 198.126 157.617 197.651 155.386C197.176 153.156 194.98 151.344 192.74 151.344C190.501 151.344 189.076 153.156 189.551 155.386Z" fill="white" stroke="black" stroke-width="1.16953" stroke-linejoin="round"/>
<path d="M176.574 155.386C177.049 157.617 179.245 159.429 181.485 159.429C183.724 159.429 185.149 157.617 184.674 155.386C184.199 153.156 182.003 151.344 179.764 151.344C177.524 151.344 176.099 153.156 176.574 155.386Z" fill="white" stroke="black" stroke-width="1.16953" stroke-linejoin="round"/>
<path d="M163.598 155.386C164.073 157.617 166.269 159.429 168.508 159.429C170.748 159.429 172.173 157.617 171.698 155.386C171.223 153.156 169.027 151.344 166.787 151.344C164.548 151.344 163.123 153.156 163.598 155.386Z" fill="white" stroke="black" stroke-width="1.16953" stroke-linejoin="round"/>
<path d="M161.422 335.195C183.999 307.021 208.378 319.858 219.32 328.361C190.863 306.247 202.975 281.724 211.406 270.876C188.446 300.42 165.307 286.386 154.365 277.883C185.048 301.728 169.679 324.89 161.422 335.195Z" fill="#FBE62E" stroke="#01090F" stroke-width="1.16953"/>
<path fill-rule="evenodd" clip-rule="evenodd" d="M314.038 256.755C307.884 262.988 304.504 271.363 304.642 280.039C304.781 288.714 308.426 296.979 314.776 303.016C315.926 304.418 317.199 306.095 318.565 307.895C326.215 317.975 336.778 331.894 344.957 322.734C347.01 320.434 346.871 316.652 345.716 313.265L355.815 320.765C357.448 321.986 359.488 322.501 361.486 322.197C363.485 321.893 365.278 320.795 366.472 319.144C367.092 318.286 367.53 317.306 367.759 316.266C367.987 315.226 368 314.147 367.798 313.099C367.432 311.182 366.366 309.472 364.814 308.314L361.151 305.594L363.813 307.438C365.495 308.603 367.61 309.077 369.692 308.756C371.774 308.435 373.653 307.346 374.915 305.727C375.571 304.886 376.039 303.929 376.29 302.915C376.54 301.902 376.568 300.854 376.371 299.839C376.088 298.361 375.342 297.017 374.244 295.972C375.775 296.731 377.537 297.005 379.276 296.737C381.429 296.406 383.37 295.271 384.673 293.582C385.352 292.705 385.836 291.704 386.094 290.645C386.352 289.586 386.378 288.49 386.172 287.427C385.798 285.488 384.672 283.768 383.018 282.61L379.66 280.257C380.544 280.454 381.465 280.471 382.369 280.295C384.114 279.955 385.651 278.927 386.642 277.436C387.158 276.661 387.509 275.786 387.673 274.865C387.837 273.944 387.809 272.997 387.593 272.085C387.204 270.416 386.206 268.955 384.798 267.996L375.326 261.5C369.927 257.32 354.398 249.982 350.664 248.528C346.595 246.944 341.839 246.762 337.462 246.826C333.085 246.891 328.763 247.801 324.744 249.505C320.725 251.209 317.087 253.672 314.038 256.755Z" fill="#F78400"/>
<path d="M304.642 280.039L305.227 280.029L304.642 280.039ZM314.038 256.755L313.622 256.344L313.622 256.344L314.038 256.755ZM314.776 303.016L315.229 302.645C315.213 302.627 315.197 302.609 315.179 302.592L314.776 303.016ZM318.565 307.895L318.099 308.248L318.099 308.248L318.565 307.895ZM344.957 322.734L345.393 323.124L344.957 322.734ZM345.716 313.265L346.064 312.796C345.859 312.643 345.578 312.642 345.371 312.793C345.164 312.943 345.08 313.211 345.162 313.454L345.716 313.265ZM355.815 320.765L356.165 320.297L356.163 320.296L355.815 320.765ZM361.486 322.197L361.398 321.619L361.486 322.197ZM366.472 319.144L365.998 318.801L365.998 318.801L366.472 319.144ZM367.759 316.266L368.33 316.391L368.33 316.391L367.759 316.266ZM367.798 313.099L367.223 313.208L367.224 313.21L367.798 313.099ZM364.814 308.314L365.164 307.846L365.163 307.845L364.814 308.314ZM361.151 305.594L361.484 305.113C361.221 304.931 360.862 304.993 360.676 305.253C360.489 305.512 360.546 305.873 360.802 306.063L361.151 305.594ZM363.813 307.438L363.48 307.919L363.48 307.919L363.813 307.438ZM369.692 308.756L369.781 309.334L369.781 309.334L369.692 308.756ZM374.915 305.727L374.454 305.367L374.454 305.367L374.915 305.727ZM376.371 299.839L375.796 299.949L375.797 299.95L376.371 299.839ZM374.244 295.972L374.503 295.448C374.244 295.32 373.93 295.4 373.764 295.637C373.599 295.874 373.631 296.197 373.841 296.396L374.244 295.972ZM379.276 296.737L379.187 296.159L379.276 296.737ZM384.673 293.582L384.21 293.224L384.21 293.225L384.673 293.582ZM386.094 290.645L386.662 290.783L386.094 290.645ZM386.172 287.427L385.598 287.538L385.598 287.539L386.172 287.427ZM383.018 282.61L382.682 283.089L382.683 283.089L383.018 282.61ZM379.66 280.257L379.787 279.687C379.515 279.626 379.237 279.766 379.125 280.021C379.012 280.277 379.096 280.576 379.324 280.736L379.66 280.257ZM382.369 280.295L382.257 279.721L382.257 279.721L382.369 280.295ZM386.642 277.436L386.155 277.111L386.154 277.112L386.642 277.436ZM387.673 274.865L388.249 274.967L387.673 274.865ZM387.593 272.085L387.023 272.218L387.024 272.22L387.593 272.085ZM384.798 267.996L384.468 268.478L384.469 268.48L384.798 267.996ZM375.326 261.5L374.968 261.963C374.976 261.97 374.986 261.976 374.995 261.983L375.326 261.5ZM350.664 248.528L350.451 249.073L350.664 248.528ZM337.462 246.826L337.471 247.411L337.471 247.411L337.462 246.826ZM305.227 280.029C305.091 271.513 308.409 263.288 314.454 257.166L313.622 256.344C307.358 262.688 303.917 271.214 304.058 280.048L305.227 280.029ZM315.179 302.592C308.941 296.662 305.363 288.546 305.227 280.029L304.058 280.048C304.199 288.882 307.911 297.296 314.374 303.44L315.179 302.592ZM319.031 307.541C317.667 305.744 316.387 304.057 315.229 302.645L314.324 303.387C315.466 304.779 316.731 306.446 318.099 308.248L319.031 307.541ZM344.52 322.345C342.579 324.519 340.556 325.273 338.503 325.114C336.409 324.953 334.193 323.836 331.921 322.068C327.375 318.53 322.87 312.601 319.031 307.541L318.099 308.248C321.909 313.269 326.511 319.339 331.203 322.991C333.551 324.818 335.987 326.093 338.413 326.28C340.881 326.471 343.245 325.529 345.393 323.124L344.52 322.345ZM345.162 313.454C346.3 316.789 346.353 320.292 344.52 322.345L345.393 323.124C347.666 320.577 347.442 316.516 346.269 313.076L345.162 313.454ZM356.163 320.296L346.064 312.796L345.367 313.734L355.466 321.235L356.163 320.296ZM361.398 321.619C359.556 321.899 357.674 321.425 356.165 320.297L355.464 321.234C357.222 322.547 359.419 323.103 361.574 322.775L361.398 321.619ZM365.998 318.801C364.895 320.326 363.241 321.339 361.398 321.619L361.574 322.775C363.729 322.448 365.661 321.264 366.946 319.487L365.998 318.801ZM367.187 316.141C366.976 317.103 366.571 318.009 365.998 318.801L366.945 319.487C367.613 318.564 368.084 317.51 368.33 316.391L367.187 316.141ZM367.224 313.21C367.411 314.18 367.399 315.178 367.187 316.141L368.33 316.391C368.575 315.273 368.589 314.114 368.372 312.988L367.224 313.21ZM364.464 308.783C365.899 309.853 366.885 311.434 367.223 313.208L368.372 312.989C367.98 310.93 366.834 309.092 365.164 307.846L364.464 308.783ZM360.802 306.063L364.466 308.784L365.163 307.845L361.499 305.124L360.802 306.063ZM364.146 306.958L361.484 305.113L360.818 306.074L363.48 307.919L364.146 306.958ZM369.603 308.178C367.664 308.477 365.701 308.035 364.145 306.957L363.48 307.919C365.289 309.172 367.556 309.677 369.781 309.334L369.603 308.178ZM374.454 305.367C373.286 306.865 371.542 307.88 369.603 308.178L369.781 309.334C372.006 308.991 374.019 307.826 375.376 306.086L374.454 305.367ZM375.722 302.775C375.492 303.707 375.06 304.589 374.454 305.367L375.376 306.086C376.081 305.182 376.587 304.15 376.857 303.056L375.722 302.775ZM375.797 299.95C375.977 300.882 375.952 301.843 375.722 302.775L376.857 303.056C377.128 301.961 377.158 300.827 376.945 299.728L375.797 299.95ZM373.841 296.396C374.853 297.358 375.537 298.594 375.796 299.949L376.945 299.729C376.639 298.128 375.831 296.675 374.647 295.548L373.841 296.396ZM379.187 296.159C377.566 296.409 375.926 296.153 374.503 295.448L373.984 296.496C375.625 297.309 377.509 297.601 379.365 297.315L379.187 296.159ZM384.21 293.225C383.001 294.792 381.195 295.85 379.187 296.159L379.365 297.315C381.663 296.962 383.739 295.75 385.136 293.939L384.21 293.225ZM385.526 290.507C385.287 291.485 384.84 292.41 384.21 293.224L385.135 293.94C385.864 292.999 386.384 291.924 386.662 290.783L385.526 290.507ZM385.598 287.539C385.788 288.518 385.764 289.528 385.526 290.507L386.662 290.783C386.94 289.643 386.969 288.462 386.746 287.316L385.598 287.539ZM382.683 283.089C384.215 284.162 385.253 285.752 385.598 287.538L386.746 287.316C386.343 285.225 385.128 283.374 383.353 282.131L382.683 283.089ZM379.324 280.736L382.682 283.089L383.354 282.132L379.995 279.778L379.324 280.736ZM382.257 279.721C381.433 279.881 380.593 279.866 379.787 279.687L379.533 280.828C380.494 281.042 381.497 281.06 382.48 280.869L382.257 279.721ZM386.154 277.112C385.25 278.474 383.848 279.412 382.257 279.721L382.48 280.869C384.381 280.499 386.052 279.38 387.129 277.759L386.154 277.112ZM387.097 274.763C386.947 275.605 386.626 276.404 386.155 277.111L387.128 277.76C387.689 276.918 388.071 275.967 388.249 274.967L387.097 274.763ZM387.024 272.22C387.222 273.055 387.247 273.921 387.097 274.763L388.249 274.967C388.426 273.967 388.397 272.94 388.162 271.95L387.024 272.22ZM384.469 268.48C385.754 269.355 386.668 270.69 387.023 272.218L388.162 271.953C387.741 270.142 386.657 268.555 385.128 267.513L384.469 268.48ZM374.995 261.983L384.468 268.478L385.129 267.514L375.656 261.018L374.995 261.983ZM350.451 249.073C352.292 249.79 357.088 251.978 362.107 254.514C367.136 257.055 372.319 259.912 374.968 261.963L375.684 261.038C372.934 258.909 367.653 256.006 362.634 253.47C357.605 250.929 352.77 248.721 350.876 247.983L350.451 249.073ZM337.471 247.411C341.842 247.346 346.497 247.534 350.451 249.073L350.876 247.983C346.693 246.355 341.837 246.177 337.453 246.242L337.471 247.411ZM324.972 250.043C328.922 248.369 333.169 247.475 337.471 247.411L337.453 246.242C333.001 246.308 328.605 247.233 324.516 248.967L324.972 250.043ZM314.454 257.166C317.449 254.138 321.023 251.717 324.972 250.043L324.516 248.967C320.427 250.7 316.725 253.207 313.622 256.344L314.454 257.166Z" fill="black"/>
<path d="M330.665 232.069L279.359 277.07L237.212 244.269C208.856 224.602 257.32 171.006 275.115 185.402L330.665 232.069Z" fill="#2C71F0" stroke="black" stroke-width="1.16953" stroke-linecap="round" stroke-linejoin="round"/>
<path d="M322.732 219.458L274.733 279.986C274.191 280.669 274.306 281.662 274.989 282.203L301.045 302.865C301.728 303.407 302.72 303.292 303.262 302.609L351.26 242.081C351.802 241.398 351.687 240.405 351.004 239.864L324.949 219.202C324.266 218.66 323.273 218.775 322.732 219.458Z" fill="#2C71F0" stroke="black" stroke-width="1.16953" stroke-linecap="round" stroke-linejoin="round"/>
<path d="M308.309 278.651C308.701 283.237 305.302 287.272 300.717 287.664C296.132 288.057 292.096 284.658 291.704 280.073C291.311 275.487 294.71 271.452 299.295 271.06C303.881 270.667 307.916 274.066 308.309 278.651Z" fill="white" stroke="black" stroke-width="1.16953"/>
<path d="M360.964 305.434L348.383 296.57" stroke="black" stroke-width="1.16953" stroke-linecap="round"/>
<path d="M379.551 280.273L366.969 271.408" stroke="black" stroke-width="1.16953" stroke-linecap="round"/>
<path d="M374.404 295.999L361.823 287.134" stroke="black" stroke-width="1.16953" stroke-linecap="round"/>
<path d="M351.671 317.588L340.233 308.724" stroke="black" stroke-width="1.16953" stroke-linecap="round"/>
<path d="M433.945 358.277C440.24 352.186 443.811 343.891 443.871 335.214C443.932 326.538 440.477 318.192 434.266 312.011C426.357 303.244 396.159 268.161 391.986 293.778C393.336 301.95 399.972 310.181 403.408 313.346L395.948 301.877L378.204 339.797L373.703 348.99C376.195 350.735 393.531 363.396 397.563 365.072C401.594 366.749 405.922 367.631 410.3 367.666C414.677 367.702 419.019 366.891 423.076 365.28C427.133 363.669 430.826 361.289 433.945 358.277Z" fill="#F78400" stroke="black" stroke-width="1.16953" stroke-linejoin="round"/>
<path d="M382.622 300.171C382.444 299.119 382.482 298.041 382.734 297.006C382.986 295.971 383.446 295.001 384.087 294.158C385.318 292.535 387.136 291.478 389.14 291.22C391.145 290.962 393.173 291.523 394.778 292.781L405.392 301.048C406.996 302.306 408.046 304.158 408.31 306.195C408.575 308.233 408.032 310.29 406.801 311.913C405.57 313.536 403.752 314.593 401.747 314.851C399.742 315.109 397.714 314.548 396.11 313.289L385.496 305.023C383.97 303.83 382.944 302.096 382.622 300.171Z" fill="#F78400" stroke="black" stroke-width="1.16953" stroke-linejoin="round"/>
<path d="M373.134 313.218C372.96 312.198 373.011 311.151 373.285 310.144C373.559 309.137 374.049 308.19 374.724 307.365C376.023 305.775 377.926 304.729 380.015 304.455C382.104 304.182 384.207 304.705 385.862 305.908L399.641 315.931C401.295 317.135 402.365 318.92 402.617 320.895C402.869 322.869 402.282 324.871 400.985 326.461C399.685 328.05 397.782 329.097 395.694 329.37C393.605 329.643 391.501 329.121 389.846 327.917L376.067 317.894C374.494 316.753 373.446 315.082 373.134 313.218Z" fill="#F78400" stroke="black" stroke-width="1.16953" stroke-linejoin="round"/>
<path d="M365.415 325.852C365.241 324.831 365.286 323.784 365.547 322.778C365.808 321.772 366.28 320.828 366.932 320.006C368.183 318.424 370.022 317.388 372.045 317.125C374.068 316.862 376.109 317.395 377.719 318.605L391.125 328.687C392.735 329.897 393.782 331.686 394.035 333.661C394.289 335.635 393.729 337.633 392.478 339.215C391.226 340.797 389.386 341.833 387.363 342.096C385.339 342.359 383.298 341.827 381.687 340.617L368.281 330.535C366.753 329.387 365.73 327.714 365.415 325.852Z" fill="#F78400" stroke="black" stroke-width="1.16953" stroke-linecap="round" stroke-linejoin="round"/>
<path d="M361.888 340.72C361.692 339.804 361.687 338.856 361.871 337.939C362.056 337.022 362.427 336.155 362.961 335.393C363.986 333.925 365.546 332.932 367.299 332.632C369.052 332.333 370.854 332.752 372.31 333.797L381.962 340.75C383.417 341.795 384.406 343.381 384.711 345.159C385.016 346.936 384.612 348.76 383.589 350.229C382.564 351.697 381.003 352.689 379.25 352.988C377.497 353.286 375.695 352.867 374.24 351.821L364.588 344.872C363.203 343.882 362.238 342.398 361.888 340.72Z" fill="#F78400" stroke="black" stroke-width="1.16953" stroke-linejoin="round"/>
<path d="M418.364 344.031C412.59 338.45 411.553 330.09 413.435 320.006C412.547 319.3 407.725 315.286 406.919 314.478" stroke="black" stroke-width="1.16953" stroke-linejoin="round"/>
<path d="M416.754 388.917L463.803 339.483L508.73 368.36C538.74 385.397 495.293 443.135 476.275 430.398L416.754 388.917Z" fill="#00AC6B" stroke="black" stroke-width="1.16953" stroke-linecap="round" stroke-linejoin="round"/>
<path d="M443.776 315.876L395.194 375.959C394.828 376.411 394.899 377.074 395.35 377.439L421.662 398.714C422.114 399.08 422.777 399.009 423.142 398.558L471.724 338.474C472.089 338.022 472.019 337.36 471.567 336.995L445.255 315.719C444.803 315.354 444.141 315.424 443.776 315.876Z" fill="#00AC6B" stroke="black" stroke-width="1.16953" stroke-linecap="round" stroke-linejoin="round"/>
<circle cx="416.936" cy="377.244" r="7.7073" transform="rotate(85.559 416.936 377.244)" fill="#9BCDFB" stroke="black" stroke-width="1.16953"/>
<path d="M433.227 261.786L483.03 238.488M421.384 249.864L464.298 188.641M405.768 240.005L415.098 185.582" stroke="black" stroke-width="1.16953" stroke-linecap="round"/>
<g filter="url(#filter0_dd_2176_21788)">
<rect x="48" y="377" width="146" height="146" rx="24" fill="white"/>
<path d="M96.9004 460.968C96.9004 465.774 92.9736 469.701 88.1667 469.701C83.3599 469.701 79.4331 465.774 79.4331 460.968C79.4331 456.161 83.3599 452.234 88.1667 452.234H96.9004V460.968Z" fill="#E01E5A"/>
<path d="M101.301 460.968C101.301 456.161 105.228 452.234 110.034 452.234C114.841 452.234 118.768 456.161 118.768 460.968V482.836C118.768 487.643 114.841 491.569 110.034 491.569C105.228 491.569 101.301 487.643 101.301 482.836V460.968Z" fill="#E01E5A"/>
<path d="M110.034 425.898C105.228 425.898 101.301 421.971 101.301 417.164C101.301 412.357 105.228 408.431 110.034 408.431C114.841 408.431 118.768 412.357 118.768 417.164V425.898H110.034Z" fill="#36C5F0"/>
<path d="M110.035 430.299C114.842 430.299 118.768 434.226 118.768 439.033C118.768 443.84 114.842 447.767 110.035 447.767H88.1667C83.3599 447.767 79.4331 443.84 79.4331 439.033C79.4331 434.226 83.3599 430.299 88.1667 430.299H110.035Z" fill="#36C5F0"/>
<path d="M145.102 439.033C145.102 434.226 149.029 430.299 153.836 430.299C158.643 430.299 162.569 434.226 162.569 439.033C162.569 443.84 158.643 447.766 153.836 447.766H145.102V439.033Z" fill="#2EB67D"/>
<path d="M140.702 439.032C140.702 443.839 136.775 447.766 131.968 447.766C127.161 447.766 123.234 443.839 123.234 439.032V417.164C123.234 412.357 127.161 408.431 131.968 408.431C136.775 408.431 140.702 412.357 140.702 417.164V439.032Z" fill="#2EB67D"/>
<path d="M131.968 474.102C136.775 474.102 140.702 478.029 140.702 482.835C140.702 487.642 136.775 491.569 131.968 491.569C127.161 491.569 123.234 487.642 123.234 482.835V474.102H131.968Z" fill="#ECB22E"/>
<path d="M131.968 469.701C127.161 469.701 123.234 465.774 123.234 460.968C123.234 456.161 127.161 452.234 131.968 452.234H153.836C158.643 452.234 162.57 456.161 162.57 460.968C162.57 465.774 158.643 469.701 153.836 469.701H131.968Z" fill="#ECB22E"/>
</g>
<defs>
<filter id="filter0_dd_2176_21788" x="32.1758" y="361.176" width="184.242" height="184.242" filterUnits="userSpaceOnUse" color-interpolation-filters="sRGB">
<feFlood flood-opacity="0" result="BackgroundImageFix"/>
<feColorMatrix in="SourceAlpha" type="matrix" values="0 0 0 0 0 0 0 0 0 0 0 0 0 0 0 0 0 0 127 0" result="hardAlpha"/>
<feOffset dx="-5.27473" dy="-5.27473"/>
<feGaussianBlur stdDeviation="5.27473"/>
<feComposite in2="hardAlpha" operator="out"/>
<feColorMatrix type="matrix" values="0 0 0 0 0.403922 0 0 0 0 0.415686 0 0 0 0 0.439216 0 0 0 0.1 0"/>
<feBlend mode="normal" in2="BackgroundImageFix" result="effect1_dropShadow_2176_21788"/>
<feColorMatrix in="SourceAlpha" type="matrix" values="0 0 0 0 0 0 0 0 0 0 0 0 0 0 0 0 0 0 127 0" result="hardAlpha"/>
<feOffset dx="6.59341" dy="6.59341"/>
<feGaussianBlur stdDeviation="7.91209"/>
<feComposite in2="hardAlpha" operator="out"/>
<feColorMatrix type="matrix" values="0 0 0 0 0.403922 0 0 0 0 0.415686 0 0 0 0 0.439216 0 0 0 0.05 0"/>
<feBlend mode="normal" in2="effect1_dropShadow_2176_21788" result="effect2_dropShadow_2176_21788"/>
<feBlend mode="normal" in="SourceGraphic" in2="effect2_dropShadow_2176_21788" result="shape"/>
</filter>
</defs>
</svg>
