<svg fill="none" height="414" viewBox="0 0 587 414" width="587" xmlns="http://www.w3.org/2000/svg"><path d="m307.052 35.0709c2.754 1.9355 5.71 3.5876 8.288 5.1712 1.238-.9874 2.449-1.9649 3.659-2.9326-1.377-.8407-2.772-1.7107-4.121-2.6589-1.7-1.1926-2.864-1.4468-5.165-1.6227-1.792-.176-6.458-.4106-7.955.9384h.018c1.71-.4106 3.576-.088 5.276 1.1046z" fill="#000" stroke="#000" stroke-miterlimit="10" stroke-width="1.25"/><path d="m523.658 214.517c1.091.401 2.181.792 3.271 1.183.157.059.333.108.499.157.083 0 .157.029.24.058.49.108.971.127 1.442.108 1.728.117 7.41.41 7.733.42 2.31.029 4.306-1.427 5.147-3.959 1.894-5.738 3.77-11.476 5.627-17.224 1.044-3.197-.397-6.266-3.447-7.42v-.029c-2.864-1.065-5.756-2.063-8.611-3.187-.462-.185-1.044-.831-1.072-1.29-.222-5.24-.36-10.489-.517-16.11 2.328-1.202 5.063-2.756 7.909-4.017 3.696-1.643 5.045-5.797 3.105-9.639-2.403-4.76-4.5-9.707-6.745-14.565-.897-1.955-2.07-3.206-3.475-3.764l-.268-.097s-.092-.03-.138-.039c-1.331-.391-6.634-.47-8.935-.558-1.164-.097-2.467.186-3.881.9-1.108.557-2.217 1.124-3.317 1.691-.942-.997-1.885-1.955-2.864-2.874-1.95-1.838-4.084-3.5-6.2-5.298.924-2.845 1.802-5.739 2.846-8.544 1.617-4.37 1.552-7.253-1.284-8.475l-19.884-7.254c-.628-.166-1.395-.322-1.922-.361-1.922-.118-3.16-.049-6.505 0-.111 0-.231 0-.342 0-.027 0-.046 0-.074 0-.064 0-.12.019-.175.029-2.07.284-3.428 2.346-4.62 5.865-.961 2.845-1.829 5.748-2.689 8.348-2.836.186-5.617.352-8.408.528-.037 0-.074 0-.111 0-1.127-2.404-2.411-4.995-3.464-7.664-.74-1.857-2.033-3.137-3.549-3.753-.203-.069-.351-.127-.452-.166-.046-.02-.102-.03-.139-.049-.314-.088-.637-.157-.961-.196-.859-.088-4.777-.381-7.549-.322-1.395-.264-2.901-.04-4.333.762-2.661 1.486-5.35 2.913-8.066 4.291-.555-1.251-1.553-2.365-2.994-3.284-2.633-1.691-5.285-3.334-7.983-4.927-.85-.508-.979-.997-.832-2.014.749-5.0535 1.405-10.1171 1.978-15.2002.12-1.0264.406-1.4566 1.321-1.701 3.169-.8309 6.32-1.7106 9.48-2.61.175-.0488.36-.1173.536-.1857.074-.0391.157-.0782.249-.1075 2.809-1.1926 4.241-4.1448 3.447-7.3706-1.553-6.2953-3.105-12.6102-4.676-18.8957-.877-3.5192-4.518-6.7646-7.881-5.8555-1.95.5377-3.899 1.0753-5.858 1.613-.434.0293-.887.0977-1.331.215-.924.2542-1.848.5083-2.781.7723 0 0-.018 0-.027 0-2.218.6158-4.445 1.2414-6.672 1.7986-.517.1369-1.404-.0782-1.672-.4692-3.16-4.5357-6.237-9.1301-9.535-14.0373 3.317 4.8974 6.384 9.4918 9.535 14.0275.268.3911 1.164.5963 1.672.4693 2.236-.5572 4.454-1.1829 6.672-1.7987-.462-.0391-.961-.2151-1.165-.5083-3.16-4.5358-5.599-7.7225-8.916-12.62 1.404-2.5416 2.966-5.6501 4.795-8.5632 2.375-3.7928 1.239-8.3579-2.661-10.5573-4.832-2.7371-11.023-6.8232-15.763-9.7362-1.912-1.17308-3.658-1.55432-5.22-1.16331-.111.02933-3.021.49854-5.71 1.31971 1.423-.1858 2.984.2248 4.666 1.2708 4.74 2.913 9.397 6.0118 14.22 8.7391 1.7.9678 2.883 2.3852 3.465 3.9883-.582-1.6031-1.765-3.0205-3.465-3.9785-4.823-2.7371-9.48-5.8261-14.22-8.7294-1.682-1.0264-3.243-1.4467-4.666-1.2708-.185.0293-.379.0587-.554.1075-.121.0391-.213.0587-.287.088-.055.0196-.102.0391-.148.0489-1.478.5181-2.781 1.74-3.871 3.6853-.878 1.5543-1.728 3.1086-2.587 4.6628-.305.567-.61 1.1144-.915 1.6814-.517.9482-1.053 1.9159-1.571 2.8642-2.929-.5866-5.682-1.2611-8.463-1.6618-2.781-.4106-5.609-.5572-8.519-.8212v-.0195c2.901.2639 5.719.4105 8.5.8211 2.791.4106 5.544 1.0753 8.464 1.6618.517-.9482 1.053-1.9062 1.571-2.8642-.851-.1564-1.673-.2834-2.486-.4105-2.781-.4106-5.932-1.1535-8.962-1.7009-.851-3.2357-1.673-6.3931-2.504-9.48211-.915-3.39204-1.747-3.83193-4.094-4.16429-2.143-.30304-5.386-.34214-7.373-.05865 1.146.19551 2.07.98731 2.809 2.18967-.739-1.18281-1.654-1.96484-2.79-2.16035-.425-.0782-.86-.0782-1.349.02933l-11.033 3.05968-10.422 2.88372c-3.095 1.1633-3.308 3.8906-2.033 8.9542.786 3.1379 1.608 6.2758 2.319 9.1399-2.42 1.9453-4.813 3.8613-7.207 5.7773-.979.7918-1.977 1.5836-2.965 2.3754-1.211.9677-2.421 1.9453-3.659 2.9326-2.578-1.6032-5.526-3.2454-8.288-5.1712-1.7-1.1926-3.576-1.5152-5.276-1.1046h-.019c-.203.0684-.36.1075-.471.1466-.055.0196-.102.0391-.157.0587-1.599.567-3.012 1.8084-3.936 3.6169-2.606 5.1027-5.378 10.1077-8.307 15.0051-2.226 3.7244-1.173 8.2699 2.504 10.3032 2.948 1.6227 5.757 3.5093 8.63 5.2689-.582 3.5387-1.229 6.96-1.7 10.4107-.277 2.0528-.351 4.135-.388 6.2073-.009.831-.222 1.2708-.785 1.5446-.083.0391-.185.0782-.278.1173-.073.0195-.138.0488-.212.0684-3.169.8211-6.32 1.7107-9.48 2.61-3.354.9384-5.146 4.1056-4.278 7.6248 1.562 6.3638 3.142 12.7278 4.74 19.0908.832 3.275 3.881 5.162 6.994 4.341 1.202-.323 2.384-.646 3.585-.968 2.024-.557 4.057-1.115 6.062-1.721 1.053-.312 1.441.118 2.023.958.056.079.111.157.157.225 2.218 3.197 4.482 6.335 6.782 9.463-.526-.059-1.053-.088-1.598-.098l-31.23-.156s-.093.058-.139.088l17.713.088c4.832 2.688 6.791 6.803 6.338 12.639-.397 5.025-.12 10.088-.139 15.103 4.26 1.642 8.445 3.05 12.474 4.839 4.028 1.789 7.9 3.949 12.067 6.07-4.167-2.111-8.048-4.281-12.076-6.07-4.029-1.789-8.205-3.207-12.474-4.839.019-5.015-.259-10.078.139-15.103.462-5.836-1.506-9.951-6.329-12.639l-17.713-.088-16.715-.079c-4.85 2.64-6.846 6.736-6.44 12.581.351 5.025.037 10.088 0 14.683-4.37 1.896-8.676 3.753-12.981 5.611-1.858-1.945-3.743-3.989-5.535-6.11-2.208-2.629-5.045-3.92-7.9-3.92-2.365 0-12.926.02-16.391.03-.028 0-.065 0-.093 0h-.794c-.083 0-.176 0-.25.009-2.624.186-5.202 1.437-7.281 3.764-5.83 6.549-11.891 12.894-18.128 19.013-4.74 4.653-4.878 11.926-.138 16.52 3.797 3.676 7.317 7.703 10.958 11.564-2.218 5.054-4.463 9.922-6.486 14.898-1.192 2.952-2.089 6.061-2.929 9.15-.333 1.231-.823 1.808-1.765 1.984-.148.03-.296.049-.462.049-.12 0-.222 0-.351 0-5.073-.107-10.136-.098-15.209-.098-5.387 0-9.267 3.979-9.304 9.629-.019 3.06-.037 6.129-.046 9.189-3.936-2.542-8.224-5.494-11.716-7.762-1.885-1.222-3.622-1.652-5.202-1.3-.111.029-3.04.411-5.766 1.163-.185.02-.36.049-.536.088l-.295.079c-.056 0-.102.029-.157.048-1.488.479-2.819 1.672-3.964 3.588-.906 1.525-1.802 3.06-2.689 4.594-.323.548-.638 1.095-.952 1.643-.841-.167-1.663-.333-2.467-.47-2.772-.488-5.904-1.3-8.925-1.945-.776-3.265-1.525-6.442-2.283-9.541-.831-3.411-1.653-3.871-3.991-4.271-2.134-.362-5.378-.479-7.364-.255-.416-.078-.859-.097-1.349-.009l-11.0969 2.766-10.4871 2.61c-3.123 1.085-3.4002 3.803-2.2453 8.896.7115 3.157 1.4507 6.314 2.0882 9.198-2.4762 1.887-4.897 3.725-7.3455 5.582-.9979.762-2.005 1.535-3.0214 2.297-1.3582-.88-2.735-1.789-4.0747-2.776-1.6724-1.242-2.8274-1.525-5.1188-1.76-1.7925-.215-6.4955-.586-7.9924.734-.194.048-.3511.087-.4435.107-.0554.02-.1108.029-.157.049-1.617.528-3.0491 1.72-4.0285 3.519-2.7165 5.034-5.6178 9.971-8.6576 14.79-2.31 3.666-1.3675 8.241 2.2637 10.372 2.9013 1.71 5.6732 3.656 8.5005 5.493-.6745 3.52-1.3952 6.931-1.9496 10.362-.3233 2.043-.4527 4.126-.5266 6.198-.037.831-.2587 1.261-.8224 1.525-.0924.039-.1755.078-.2772.107-.0739.02-.1478.049-.2125.069-3.1877.733-6.3569 1.554-9.5261 2.356-3.3725.86-5.2297 3.959-4.4628 7.507 1.4045 6.413 2.8366 12.816 4.2873 19.209.7484 3.294 3.7605 5.269 6.8928 4.516 1.2104-.284 2.4115-.587 3.6219-.88 1.2104.743 2.6888 1.017 4.1948.655 1.349-.323 2.698-.645 4.047-.978 2.6796 4.077 5.433 8.104 8.2511 12.073.5821.821.693 1.329.1663 2.19-1.6354 2.678-3.2154 5.405-4.7862 8.133-2.3191 4.008-1.543 7.527 2.2268 10.019 4.8046 3.177 9.6185 6.335 14.4509 9.463 1.2289.802 2.4208 1.232 3.548 1.31 1.7556 1.085 7.6413-.02 9.1381-.274.0462 0 .0924-.019.1386-.029l.425-.108c1.4876-.449 2.8181-1.583 3.9269-3.411 1.5522-2.581 3.086-5.181 4.5644-7.811.3968.069.8038.157 1.2008.225 2.449.43 4.907.841 7.364 1.212 1.035.166 1.479.45 1.691 1.525.684 3.373 1.451 6.726 2.227 10.088.259 1.115.739 2.073 1.395 2.835.804 3.412 6.828 4.839 10.044 4.047 6.061-1.486 14.857-3.715 20.909-5.239.25-.069.499-.147.73-.235 2.763-1.075 4.906-5.787 4.223-8.954-.721-3.363-1.451-6.726-2.264-10.079-.259-1.065.018-1.534.878-2.16 3.04-2.209 6.024-4.497 8.99-6.813 1.561 1.036 3.141 2.062 4.721 3.079 1.008.645 1.996 1.046 2.948 1.212 4.583 2.688 9.461 4.008 12.446-.587 3.252-4.985 7.826-13.489 10.81-18.661 2.19-3.802 1.395-7.331-2.162-9.746-2.596-1.759-5.202-3.48-7.854-5.141-.831-.528-.951-1.027-.785-2.044.869-5.034 1.645-10.078 2.338-15.142.147-1.026.443-1.446 1.367-1.661 3.123-.733 6.218-1.506 9.323-2.307-1.155 1.222-2.31 2.444-3.456 3.665-4.86 5.172-4.897 10.773-.074 15.983 6.163 6.638 12.354 13.255 18.581 19.834 2.218 2.346 4.556 3.588 6.912 3.764h.027v.019h.86c2.402-.097 4.804-1.31 7.096-3.646 3.363-3.441 6.717-6.921 9.96-10.479.85-.929 1.525-1.193 2.439-.958-.905-.215-1.561.049-2.402.968-3.243 3.558-6.597 7.038-9.96 10.469-2.301 2.346-4.703 3.558-7.096 3.646l16.493.02s3.39.401 7.465-3.666c2.125-2.17 4.232-4.36 6.32-6.569 3.548 1.584 7.096 3.118 10.681 4.634 1.506.635 2.079 1.241 2.033 2.952-.12 5.357-.111 10.723-.102 16.09 0 5.484 3.835 9.619 8.981 9.658 9.656.078 19.311.127 28.967.137.406 0 .804-.029 1.192-.078h.046c5.22.029 10.441.068 15.67.078 5.147 0 9.018-4.076 9.074-9.551.055-5.357.12-10.723.037-16.08-.028-1.711.554-2.317 2.06-2.933 3.557-1.456 7.096-2.942 10.617-4.477 2.106 2.258 4.213 4.516 6.347 6.745 2.227 2.327 4.574 3.558 6.949 3.715h.175s.028.01.046.01h.573s.074 0 .12-.01h16.336s3.594.42 7.614-3.705c6.347-6.589 12.667-13.197 18.941-19.873.684-.733 1.257-1.476 1.737-2.229.397 4.223.832 8.456 1.33 12.669.13 1.075-.018 1.603-.933 2.101-2.827 1.555-5.627 3.197-8.417 4.83-4.102 2.414-5.137 6.07-2.911 10.44 2.846 5.571 5.711 11.153 8.612 16.696 1.025 1.984 2.337 3.255 3.844 3.851.046.02.092.039.138.049l.444.137c.489.127.988.176 1.515.166 3.243.597 7.382.538 7.382.538 2.172-.137 3.576-.616 5.507-1.691 1.386-.773 2.763-1.555 4.14-2.346 1.025.899 2.051 1.808 3.086 2.698 2.042 1.749 4.102 3.48 6.181 5.181.878.713 1.146 1.231.804 2.346-1.035 3.489-1.996 6.999-2.948 10.498-.97 3.588.795 7.058 4.149 8.124 6.302 1.984 12.622 3.939 18.932 5.894.259.088.536.147.795.186.453.078.896.098 1.33.078 2.042.127 6.847.332 7.836.284 3.123-.137 5.858-1.711 6.8-5.005.998-3.5 1.977-8.221 2.901-11.75.13-.509.305-.841.555-1.066 2.43-.283 4.86-.586 7.29-.909 1.109-.147 1.617.049 2.125 1.075.517 1.076 1.072 2.141 1.617 3.207.97 1.906 1.949 3.802 2.957 5.699 1.034 1.965 2.356 3.235 3.88 3.822.046.019.093.039.148.058l.37.118c.064.019.129.029.194.039.166.068.462.117.924.147l7.964.175c1.506-.156 3.438-.244 5.378-1.349 5.331-3.04 10.653-6.099 15.957-9.208 3.899-2.287 4.906-5.973 2.836-10.156-1.515-3.05-3.067-6.081-4.684-9.072-.508-.948-.37-1.466.286-2.307 2.975-3.763 5.895-7.586 8.75-11.447 1.266.391 2.532.782 3.798 1.163.185.059.379.108.573.147.092 0 .175.029.277.049.61.107 1.201.117 1.765.049 2.134.039 8.269.049 8.629.039 2.615-.098 4.814-1.867 5.627-4.77 1.858-6.609 3.696-13.217 5.517-19.835 1.016-3.685-.758-7.087-4.278-8.201h.018c-3.308-1.056-6.634-2.043-9.914-3.158-.536-.185-1.229-.879-1.275-1.388-.527-5.923-.933-11.877-1.405-18.231 2.587-1.486 5.6-3.411 8.769-4.995 4.102-2.062 5.433-6.852 3.049-11.095-2.966-5.259-5.581-10.753-8.38-16.119-1.128-2.161-2.514-3.519-4.14-4.067l-.305-.098c-.055-.019-.111-.029-.166-.039-1.515-.371-7.447-.156-10.099-.137-1.34-.068-2.818.343-4.407 1.242-1.229.704-2.449 1.408-3.678 2.111-1.118-1.075-2.236-2.121-3.4-3.108-2.319-1.985-4.805-3.734-7.299-5.66.905-3.265 1.755-6.598 2.79-9.854 1.136-3.548 1.349-6.217.24-7.918.185-.078.37-.156.564-.254 4.814-2.444 9.618-4.897 14.405-7.4 3.52-1.838 4.555-5.044 2.892-8.817-1.22-2.757-2.467-5.484-3.77-8.182-.407-.851-.268-1.32.342-2.024 2.772-3.177 5.488-6.422 8.158-9.697zm-326.651 90.549c-.628.636-1.247 1.291-1.866 1.926.148-.86.148-1.769-.055-2.718-1.396-6.344-2.8-12.688-4.223-19.032-.795-3.539-4.352-6.882-7.734-6.061v-.019c-2.032.488-4.056.997-6.079 1.495-.379.02-.758.078-1.146.176l-.019-.029c-.942.225-1.875.469-2.818.704-.462-.049-.961-.245-1.155-.528-.831-1.251-1.607-2.395-2.356-3.51.435.069.869.128 1.322.128 5.155.078 10.329.127 15.494.039 1.701-.03 2.116.772 2.68 2.307 2.698 7.312 5.525 14.565 8.464 21.769.591 1.467.582 2.268-.509 3.363zm192.278-76.169h.047c-5.073-.059-10.136 0-15.2-.147-.72-.019-1.764-.547-2.189-1.153.434.596 1.478 1.124 2.18 1.143 5.063.157 10.136.098 15.209.147 5.396.059 9.212 4.076 9.202 9.726-.018 10.108-.064 20.235-.129 30.353-.028 4.536-2.541 8.035-6.301 9.228 3.742-1.212 6.246-4.692 6.264-9.218.065-10.118.111-20.245.129-30.353 0-5.65-3.806-9.677-9.202-9.726zm2.246-73.804c-.028-.381-.083-.762-.185-1.153-.804-3.344-1.617-6.687-2.495-10.02-.074-.274-.111-.508-.111-.724 0 .196.037.411.111.665.887 3.324 1.691 6.667 2.495 10.02.102.41.157.811.185 1.212zm-18.313 19.355c-.157-.156-.305-.313-.453-.459.148.146.296.303.443.449.102.098.185.206.278.303-.093-.097-.176-.195-.268-.293zm-23.996-25.103h.046c.398.059.804.137 1.192.196 2.458.361 4.925.704 7.392 1.007.785.097 1.229.283 1.506.821-3.955 0-9.064 0-11.235 0 .369-.675.739-1.349 1.099-2.024zm-1.109 2.063c2.384.185 4.75 1.476 7.059 3.92.102.107.204.215.305.322-.101-.107-.194-.205-.295-.313-2.319-2.453-4.685-3.753-7.078-3.929zm24.883 127.245c-.813.206-1.247.773-1.673 1.897-.489 1.31-1.007 2.6-1.515 3.91.499-1.3.998-2.591 1.488-3.891.425-1.134.878-1.71 1.7-1.906zm25.307 10.411c-1.034-.313-2.014-.332-3.012-.391-.148 0-5.636.059-7.909.098-.194 0-.379 0-.573.009-.24 0-.388.01-.406.02-.037.01-.056.029-.093.039-.526.078-1.025.225-1.497.44 1.146-2.903 2.273-5.816 3.373-8.739.443-1.173.915-1.73 1.792-1.916h.019c.129-.02.268-.039.416-.049.018 0 .046 0 .064-.01h.351c5.064.108 10.136.108 15.209.098 2.051 0 3.881-.606 5.368-1.662.083.166.176.342.259.518-2.356 2.864-4.703 5.592-6.911 8.446-1.026 1.33-1.95 2.767-2.837 4.213-1.201-.371-2.402-.743-3.603-1.104zm81.347-50.969c.97-.088 1.423.118 1.829 1.037.416.967.859 1.935 1.284 2.893.398.87.804 1.73 1.202 2.591l-7.9-2.454c-.721-.147-1.599-.293-2.19-.293-.675 0-1.275 0-1.894.019.24-.84.471-1.652.702-2.395.139-.459.314-.743.554-.928 2.135-.137 4.269-.294 6.413-.479zm-24.901 14.8c.221.088.462.147.683.196.361.078.73.117 1.081.127.74.088 1.969.205 3.188.322-.49 1.828-.961 3.617-1.432 5.299-3.206.361-6.348.713-9.508 1.065h-.129c-1.404-2.659-2.984-5.513-4.333-8.504-.675-1.486-1.654-2.62-2.819-3.363 4.417 1.623 8.843 3.245 13.259 4.858zm-19.681-176.5618c-.028-.391-.092-.7918-.194-1.1926v-.0293c.102.4106.166.8211.194 1.2219zm-10.783-24.8098c-1.21.3324-2.411.6647-3.631.958 1.22-.303 2.421-.6354 3.631-.958zm-6.467 51.1156c-.047.752.147 1.182.868 1.613 2.689 1.593 5.35 3.225 7.983 4.926 2.273 1.457 3.456 3.392 3.502 5.582-.065-2.17-1.256-4.086-3.502-5.523-2.633-1.691-5.285-3.333-7.983-4.927-.748-.44-.933-.88-.868-1.671zm-3.816 35.689h.12c4.629 2.542 9.507 3.715 12.39-.938 1.368-2.209 2.966-5.103 4.574-8.094.563 1.241 1.109 2.483 1.681 3.715-2.189 2.424-4.361 4.721-6.412 7.136-.961 1.124-1.829 2.346-2.67 3.587-1.035-.381-2.079-.753-3.114-1.134-.905-.322-1.746-.381-2.633-.479-.13-.019-4.805-.195-6.865-.254-.296-.029-.582-.039-.869-.02-.046 0-.092 0-.102 0-.009 0-.018 0-.027 0-2.07.186-3.816 1.584-4.583 3.901-1.913 5.797-3.798 11.584-5.673 17.39-.961 2.991.489 6.129 3.307 7.195 2.92 1.095 5.849 2.189 8.787 3.206.971.332 1.063.88 1.1 1.857.185 4.712.471 9.404.832 14.106.073.948-.084 1.408-.897 1.809-2.55 1.251-5.082 2.561-7.595 3.89-3.714 1.946-4.758 5.123-2.966 9.062 2.292 5.034 4.583 10.069 6.93 15.074.832 1.779 1.931 2.971 3.234 3.558.037.019.083.039.12.049l.388.146c.416.127.85.196 1.294.215 2.836.675 6.523.802 6.523.802 1.913-.02 3.169-.391 4.906-1.251 1.248-.626 2.495-1.252 3.742-1.887.869.841 1.728 1.681 2.606 2.512 1.728 1.633 3.474 3.246 5.23 4.829.739.665.96 1.134.619 2.092-1.044 3.021-2.024 6.071-3.003 9.121-.998 3.118.425 6.256 3.335 7.331.148.059.296.108.444.156-.148-.019-.305-.039-.462-.048-.989-.059-5.479-.167-8.612.058-1.57-.215-3.252.137-4.814 1.115-3.141 1.955-6.319 3.841-9.535 5.65.019-5.064.056-10.137.065-15.191.009-5.65-3.807-9.678-9.203-9.727-5.073-.058-10.136 0-15.208-.146-.823-.02-2.07-.704-2.329-1.418-3.03-8.142-5.895-16.334-9.009-25.103 3.068-3.206 6.588-7.224 10.432-10.821 4.989-4.682 5.008-12.014 0-16.96-2.698-2.669-5.304-5.425-7.9-8.211 4.297-1.203 8.741-2.454 12.261-3.432.25-.068.499-.166.721-.254 2.735-1.153 4.768-5.904 4.01-9.052-.804-3.343-1.617-6.686-2.495-10.019-.286-1.056-.018-1.535.823-2.19 2.975-2.287 5.904-4.643 8.805-7.028.009 0 .018.009.028.019 1.589.987 3.178 1.975 4.777 2.933.997.596 1.968.967 2.901 1.124zm-192.223 16.57c3.409 4.066 7.198 7.771 10.459 11.261h-.009c-3.262-3.48-7.059-7.205-10.478-11.271-1.312-1.564-2.846-2.649-4.481-3.275 1.645.626 3.188 1.711 4.5 3.285zm83.638 194.89c-1.516.616-2.088 1.232-2.061 2.933.074 5.367.019 10.723-.037 16.08-.055 4.741-2.966 8.427-7.077 9.336 4.093-.919 6.976-4.604 7.031-9.326.056-5.357.12-10.723.037-16.09-.028-1.711.545-2.317 2.061-2.933 6.92-2.825 13.785-5.806 20.586-8.934.563-.264 1.034-.411 1.45-.44-.416.029-.868.186-1.413.44-6.801 3.118-13.666 6.099-20.577 8.915zm67.699-17.585c-6.274 6.676-12.594 13.284-18.941 19.873-1.451 1.495-2.939 2.541-4.454 3.128 1.506-.587 2.994-1.623 4.435-3.118 6.348-6.589 12.668-13.197 18.941-19.874 4.611-4.907 4.62-10.538.084-15.552-3.308-3.646-6.671-7.244-10.109-10.763-1.071-1.114-1.09-1.916-.489-3.372.619-1.476 1.219-2.953 1.829-4.438-.6 1.476-1.192 2.952-1.802 4.428-.6 1.456-.6 2.258.49 3.372 3.428 3.529 6.801 7.117 10.108 10.763 4.546 5.005 4.528 10.645-.083 15.553zm-4.675-44.224c-1.017 2.61-2.052 5.21-3.105 7.801 1.053-2.591 2.079-5.191 3.105-7.801z" fill="#000" stroke="#000" stroke-miterlimit="10" stroke-width="1.25"/><path d="m254.776 179.034c-9.313 6.129-16.317 15.797-19.338 27.244z" fill="#000" stroke="#000" stroke-miterlimit="10" stroke-width="1.25"/><path d="m254.776 179.034c-9.313 6.129-16.317 15.797-19.338 27.244" stroke="#000" stroke-miterlimit="10" stroke-width="1.25"/><path d="m432.286 354.345c-1.968-7.195-3.04-14.8-3.04-22.659 0-10.421 1.857-20.372 5.239-29.532" fill="#000"/><path d="m432.286 354.345c-1.968-7.195-3.04-14.8-3.04-22.659 0-10.421 1.857-20.372 5.239-29.532" stroke="#000" stroke-miterlimit="10" stroke-width="1.25"/><path d="m432.286 354.345c-1.968-7.195-3.04-14.8-3.04-22.659 0-10.421 1.857-20.372 5.239-29.532" stroke="#000" stroke-miterlimit="10" stroke-width="1.25"/><path d="m240.979 179.034c-9.313 6.129-16.317 15.797-19.338 27.244z" fill="#fff" stroke="#000" stroke-miterlimit="10" stroke-width="1.25"/><path d="m240.979 179.034c-9.313 6.129-16.317 15.797-19.338 27.244" stroke="#000" stroke-miterlimit="10" stroke-width="1.25"/><path d="m413.669 359.018c-1.968-7.195-3.04-14.8-3.04-22.66 0-10.42 1.857-20.371 5.239-29.531" fill="#fff"/><g stroke="#000" stroke-width="1.25"><path d="m413.669 359.018c-1.968-7.195-3.04-14.8-3.04-22.66 0-10.42 1.857-20.371 5.239-29.531" stroke-miterlimit="10"/><path d="m413.669 359.018c-1.968-7.195-3.04-14.8-3.04-22.66 0-10.42 1.857-20.371 5.239-29.531" stroke-miterlimit="10"/><path d="m333.283 145.447c-1.46 2.796-3.003 5.543-4.555 8.27-1.063 1.857-2.366 3.03-3.844 3.519l-.425.118s-.093.019-.139.029c-.434.088-.878.117-1.34.088 1.747 1.065 7.669-.196 9.157-.508.046 0 .092-.02.139-.03l.425-.117c1.478-.489 2.781-1.662 3.843-3.519 1.497-2.62 2.976-5.269 4.38-7.938-1.866-.283-3.724-.567-5.59-.889-1.035-.176-1.534 0-2.033.958z" fill="#1c4396" stroke-miterlimit="10"/><path d="m174.786 275.243c-3.178.772-6.338 1.613-9.544 2.327-.518.117-1.395-.118-1.663-.518-3.05-4.614-5.415-7.86-8.612-12.855 1.469-2.502 3.095-5.572 4.99-8.446 2.457-3.724 1.432-8.319-2.403-10.626-4.767-2.854-10.856-7.116-15.532-10.146-1.885-1.222-3.622-1.652-5.202-1.31-.129.029-3.732.508-6.661 1.427-1.627.518 1.977 6.373 1.09 7.908-.878 1.496-1.663 1.76-2.532 3.246-2.91-.665-5.95-1.379-8.731-1.858-2.772-.489-5.904-1.31-8.926-1.945-.776-3.265-1.524-6.442-2.282-9.541-.832-3.411-1.654-3.871-3.992-4.272-2.559-.44-6.7261-.528-8.3893-.078l-3.6127 2.366-10.487 2.61c-2.6703 2.424-3.3356 5.308-2.2453 8.895.9332 3.089 1.4506 6.315 2.0882 9.199-2.4763 1.887-4.8971 3.724-7.3456 5.582-2.2267 1.691-4.4627 3.392-6.7357 5.122-2.5409-1.672-5.4514-3.392-8.1587-5.396-1.6724-1.242-2.8273-1.525-5.1188-1.76-1.9588-.234-7.3548-.655-8.3249 1.125-2.7165 5.034-2.0974 13.04-5.1373 17.859-2.3099 3.666-1.3675 8.241 2.2637 10.372 2.9013 1.71 5.6732 3.656 8.5005 5.503-.6745 3.519-1.3952 6.931-1.9495 10.362-.3234 2.043-.4528 4.125-.5359 6.198-.037.831-.2587 1.261-.8224 1.525-.0924.039-.1755.078-.2772.107-.0739.02-.1478.049-.2125.069-3.1877.733-6.3569 1.554-9.5261 2.355-3.3725.861-5.2297 3.959-4.4628 7.508 1.4045 6.412 2.8366 12.815 4.2872 19.208.7485 3.295 3.7606 5.269 6.8929 4.517 3.2431-.773 6.4862-1.555 9.7109-2.435 1.0625-.283 1.4414.157 2.005 1.017 2.7165 4.145 5.5253 8.241 8.3989 12.288.5821.821.693 1.329.1663 2.189-1.6354 2.679-3.2154 5.406-4.7862 8.133-2.3191 4.008-1.543 7.527 2.2268 10.02 4.8046 3.177 5.3128 7.85 10.1452 10.978 1.7186 1.114 7.6689 0 9.1658-.254.0462 0 .0924-.02.1386-.03l.425-.107c1.4876-.45 2.8181-1.584 3.9269-3.412 1.6169-2.688 3.2246-5.405 4.7584-8.152.5359-.949 1.0256-1.115 2.0605-.919 2.2545.44 4.4997.86 6.7631 1.261 2.449.43 4.907.84 7.364 1.212 1.035.166 1.479.45 1.691 1.525.684 3.372-4.98 9.765-4.204 13.128.786 3.431 6.828 4.858 10.053 4.067 6.061-1.486 14.857-3.715 20.909-5.24.25-.068.499-.147.73-.234 2.763-1.076 4.907-5.787 4.223-8.955-.721-3.362-1.451-6.725-2.264-10.078-.259-1.066.019-1.535.878-2.16 3.936-2.865 7.807-5.827 11.623-8.867.841-.664 1.349-.762 2.227-.156.906.626 1.83 1.232 2.735 1.838 1.636 1.085-1.691 3.626 0 4.623 4.602 2.718 9.508 4.067 12.52-.547 3.252-4.985 7.826-13.49 10.81-18.661 2.19-3.803 1.396-7.332-2.162-9.746-2.596-1.76-5.202-3.48-7.853-5.142-.832-.528-.952-1.026-.786-2.043.869-5.034 1.645-10.078 2.338-15.142.148-1.026.443-1.447 1.367-1.662 3.188-.743 6.357-1.544 9.526-2.356.176-.048.361-.107.527-.166.083-.039.166-.068.25-.098 2.836-1.114 4.342-4.027 3.631-7.272-1.395-6.345-2.8-12.689-4.223-19.033-.794-3.539-4.352-6.882-7.733-6.061v-.019zm-51.252 66.815c-1.682.742-3.447 1.358-5.285 1.818-18.129 4.516-36.1923-7.322-40.4518-26.521-4.2595-19.179 6.9575-38.241 25.1318-42.757 1.746-.44 3.493-.714 5.221-.85 16.28-1.31 31.304 10.117 35.203 27.713 3.742 16.891-4.999 34.028-19.819 40.597z" fill="#f8bd20" stroke-miterlimit="10"/><path d="m236.619 249.632c-.314-27.459 18.257-50.333 43.047-54.986-2.67-.41-5.405-.606-8.186-.567-28.994.372-52.056 25.279-51.715 55.856.352 30.626 23.941 55.006 52.87 54.615 2.929-.039 5.803-.342 8.593-.88-25.03-3.841-44.295-26.383-44.609-54.038z" fill="#3f5d72" stroke-linejoin="round"/><path d="m204.133 351.199h.202c-.073 0-.138 0-.202-.019z" fill="#15357a" stroke-miterlimit="10"/><path d="m213.435 150.974c3.418 4.066 7.207 7.781 10.478 11.271 4.037-1.74 7.992-3.451 11.937-5.152-1.866-1.955-3.751-3.988-5.544-6.129-2.208-2.63-5.044-3.92-7.899-3.92-2.375 0-13.065.019-16.466.029 2.726.118 5.406 1.388 7.503 3.901z" fill="#1c4396" stroke-miterlimit="10"/><path d="m312.742 152.097c.019-5.015.102-11.29.148-16.491-.055-9.023-4.5-11.242-9.545-11.261l-31.23-.157s-.092.059-.138.088l17.712.088c4.832 2.689 6.791 6.804 6.339 12.64-.398 5.024-.121 10.088-.139 15.103 4.259 1.642 8.445 3.05 12.473 4.839 4.029 1.788 7.91 3.959 12.077 6.08 1.811-1.906 3.631-3.832 5.47-5.758-.231-.107-.462-.215-.684-.322-4.029-1.789-8.205-3.207-12.474-4.839h-.009z" fill="#1c4396" stroke-miterlimit="10"/><path d="m222.084 337.067c-3.243 3.558-6.597 7.038-9.961 10.479-2.3 2.346-4.703 3.558-7.096 3.646l16.493.019s3.391.401 7.466-3.665c2.125-2.17 4.232-4.37 6.32-6.579-3.28-1.466-6.542-2.962-9.794-4.487-1.497-.694-2.31-.635-3.428.587z" fill="#1c4396" stroke-miterlimit="10"/><path d="m317.661 336.939c-6.8 3.128-13.665 6.109-20.577 8.924-1.515.616-2.088 1.232-2.06 2.933.074 5.367.018 10.724-.037 16.08-.056 5.045-3.354 8.906-7.882 9.473 5.221.029 10.451.068 15.671.078 5.146 0 9.018-4.076 9.073-9.551.056-5.356.12-10.723.037-16.08-.027-1.711.555-2.317 2.061-2.933 3.566-1.456 7.114-2.952 10.644-4.486-1.183-1.271-2.347-2.532-3.511-3.832-1.109-1.242-1.922-1.3-3.41-.597z" fill="#1c4396" stroke-miterlimit="10"/><path d="m397.849 224.973c-5.072-.058-10.136 0-15.208-.146-.822-.02-2.07-.704-2.329-1.418-3.03-8.143-5.894-16.334-9.008-25.103 3.067-3.206 6.588-7.224 10.431-10.821 4.99-4.682 5.008-12.014 0-16.96-6.209-6.149-12.011-12.747-18.035-19.121-2.541-2.698-5.165-4.017-7.78-3.978-2.19.039-13.509.019-16.475.019 2.495.088 4.971 1.388 7.392 3.959 6.006 6.374 11.818 12.982 18.036 19.121 4.999 4.946 4.98 12.287 0 16.96-3.844 3.607-7.364 7.615-10.432 10.831 3.114 8.759 5.978 16.95 9.009 25.093.259.704 1.525 1.388 2.328 1.418 5.064.156 10.136.097 15.209.146 5.396.059 9.212 4.077 9.203 9.727-.019 10.107-.065 20.235-.13 30.352-.037 5.171-3.298 8.993-7.964 9.6h.379c5.063.107 10.135.107 15.208.097 5.341 0 9.203-4.047 9.24-9.687.064-10.118.111-20.245.129-30.352.009-5.651-3.807-9.678-9.203-9.727z" fill="#1c4396" stroke-miterlimit="10"/><path d="m371.609 301.973c-1.072-1.115-1.09-1.916-.49-3.373 3.031-7.273 5.941-14.604 8.722-21.975.453-1.192.924-1.75 1.839-1.926-.286.03-.563.04-.868.04-5.073 0-10.136 0-15.2-.098-1.469-.03-2.06.489-2.633 1.984-2.781 7.381-5.692 14.702-8.722 21.975-.601 1.457-.601 2.258.489 3.373 3.428 3.529 6.801 7.116 10.109 10.762 4.546 5.005 4.527 10.646-.084 15.553-6.273 6.676-12.593 13.284-18.941 19.873-2.31 2.395-4.74 3.607-7.17 3.695h16.419s3.594.42 7.614-3.705c6.347-6.588 12.667-13.196 18.941-19.873 4.611-4.907 4.62-10.538.083-15.543-3.308-3.646-6.671-7.243-10.108-10.762z" fill="#1c4396" stroke-miterlimit="10"/><path d="m337.875 351.854h.219c-.073 0-.137 0-.219 0z" fill="#15357a" stroke-miterlimit="10"/><path d="m338.754 147.461c.082 0 .164 0 .237-.02h-.237z" fill="#15357a" stroke-miterlimit="10"/><path d="m205.148 147.071h.792z" fill="#15357a" stroke-miterlimit="10"/><path d="m380.999 224.979c-5.073-.059-10.136 0-15.199-.147-.823-.019-2.07-.703-2.329-1.417-3.03-8.133-5.895-16.335-9.008-25.093 3.067-3.226 6.587-7.234 10.431-10.831 4.99-4.683 5.008-12.014 0-16.961-6.209-6.148-12.011-12.747-18.036-19.12-2.42-2.561-4.897-3.881-7.391-3.959h-.472c-.083 0-.157 0-.24.019-2.411.147-4.832 1.437-7.207 3.901-1.894 1.965-3.779 3.939-5.636 5.894-1.839 1.936-3.659 3.862-5.47 5.758-4.167-2.112-8.048-4.291-12.076-6.08-4.029-1.789-8.205-3.207-12.474-4.839.019-5.015-.259-10.078.139-15.103.462-5.836-1.506-9.951-6.339-12.64l-17.712-.087-16.715-.079c-4.851 2.64-6.846 6.736-6.44 12.581.351 5.025.037 10.088 0 14.683-4.38 1.896-8.685 3.753-13 5.611-3.945 1.71-7.891 3.411-11.938 5.151-3.261-3.489-7.059-7.204-10.478-11.271-2.097-2.502-4.786-3.783-7.502-3.9h-.795c-.083 0-.175 0-.249 0-2.624.186-5.202 1.437-7.281 3.764-5.83 6.549-11.892 12.893-18.129 19.013-4.739 4.653-4.878 11.925-.138 16.52 3.797 3.675 7.318 7.703 10.958 11.574-2.217 5.054-4.463 9.922-6.486 14.897-1.192 2.953-2.088 6.061-2.929 9.15-.333 1.232-.822 1.809-1.765 1.985-.148.029-.296.048-.462.048-.12 0-.222 0-.351 0-5.073-.107-10.136-.097-15.208-.097-5.387 0-9.268 3.978-9.305 9.628-.074 10.216-.111 20.431-.111 30.646 0 5.269 3.872 9.394 8.861 9.472 5.156.079 10.33.127 15.495.039 1.7-.029 2.116.773 2.68 2.307 2.698 7.312 5.525 14.566 8.463 21.77.592 1.466.582 2.268-.508 3.363-3.391 3.411-6.699 6.93-9.997 10.45-4.86 5.171-4.897 10.772-.074 15.982 6.163 6.638 12.353 13.256 18.581 19.834 2.217 2.347 4.555 3.578 6.911 3.764.074 0 .139 0 .203.019h.675c2.402-.097 4.804-1.309 7.096-3.646 3.363-3.441 6.717-6.921 9.96-10.479 1.128-1.232 1.931-1.29 3.419-.586 3.252 1.534 6.514 3.02 9.794 4.486 3.557 1.594 7.124 3.138 10.718 4.654 1.506.635 2.079 1.241 2.033 2.952-.12 5.357-.111 10.723-.102 16.09 0 5.484 3.835 9.619 8.981 9.648 9.656.078 19.311.127 28.967.137.406 0 .803-.029 1.192-.078 4.536-.567 7.826-4.428 7.881-9.473.055-5.356.12-10.723.037-16.09-.028-1.71.545-2.316 2.06-2.932 6.921-2.825 13.786-5.807 20.586-8.935 1.497-.684 2.31-.635 3.41.596 1.155 1.3 2.328 2.561 3.511 3.832 2.107 2.268 4.223 4.526 6.357 6.755 2.227 2.327 4.574 3.558 6.948 3.715.074 0 .139.009.222.009h.573c2.43-.088 4.86-1.309 7.17-3.695 6.347-6.588 12.667-13.196 18.941-19.873 4.611-4.907 4.62-10.538.083-15.552-3.308-3.647-6.671-7.244-10.108-10.763-1.072-1.114-1.09-1.916-.49-3.373 3.031-7.272 5.942-14.584 8.723-21.975.563-1.495 1.164-2.023 2.633-1.984 5.063.108 10.136.108 15.199.098.296 0 .582-.02.869-.039.129-.02.268-.039.416-.049 4.666-.596 7.936-4.419 7.964-9.6.065-10.117.111-20.244.13-30.352 0-5.65-3.807-9.677-9.203-9.726h.046zm-100.648 78.867c-2.8.489-5.673.743-8.611.724-28.93-.127-52.131-24.908-52.011-55.544.13-30.577 23.58-55.084 52.574-54.937 2.791 0 5.526.254 8.177.714 25.021 4.271 43.806 27.273 43.667 55.328-.138 26.95-19.191 49.463-43.815 53.706z" fill="#98caf8" stroke-miterlimit="10"/><path d="m167.552 276.885c-3.179.772-6.339 1.612-9.536 2.326-.517.117-1.395-.117-1.663-.518-3.049-4.614-6.006-9.296-9.203-14.282 1.469-2.512 3.096-5.572 4.99-8.446 2.458-3.724 1.432-8.318-2.403-10.625-4.767-2.855-9.341-6.071-14.007-9.111-1.885-1.222-3.622-1.652-5.193-1.31l-.295.078c-.056 0-.102.03-.157.049-1.488.479-2.818 1.672-3.964 3.588-.906 1.525-1.802 3.059-2.689 4.594-.878 1.496-1.737 2.991-2.606 4.477-2.91-.665-5.645-1.407-8.426-1.886-2.772-.489-5.59-.695-8.491-1.046-.693-3.138-1.349-6.325-2.052-9.482-.961-4.311-2.6144-7.449-5.7559-6.912l-11.0969 2.767-10.4871 2.61c-3.123 1.085-3.4002 3.802-2.2452 8.895.7114 3.158 1.4506 6.315 2.0881 9.199-2.4762 1.887-4.897 3.724-7.3455 5.582-2.2268 1.701-4.4628 3.392-6.7357 5.132-2.541-1.672-5.4515-3.392-8.1587-5.396-1.6724-1.242-3.5296-1.613-5.2482-1.252-.2125.059-.388.098-.4989.128-.0554.019-.1109.029-.1571.048-1.6077.528-3.0491 1.721-4.0285 3.52-2.7164 5.034-5.6177 9.97-8.6576 14.79-2.3099 3.665-1.3674 8.24 2.2638 10.371 2.9012 1.711 5.6731 3.656 8.5005 5.504-.6745 3.519-1.3952 6.93-1.9496 10.362-.3234 2.043-.4527 4.125-.5359 6.197-.037.831-.2587 1.261-.8223 1.525-.0924.039-.1756.078-.2772.108-.0739.019-.1479.048-.2125.068-3.1877.733-6.3569 1.554-9.5262 2.356-3.3725.86-5.2296 3.959-4.4627 7.507 1.4044 6.413 2.8365 12.816 4.2872 19.209.7484 3.294 3.7605 5.269 6.8928 4.516 3.2431-.772 6.4863-1.554 9.7109-2.434 1.0626-.283 1.4414.156 2.005 1.017 2.7165 4.144 5.5254 8.24 8.3989 12.287.5821.821.693 1.33.1663 2.19-1.6354 2.678-3.2154 5.406-4.7861 8.133-2.3192 4.008-1.5431 7.527 2.2267 10.02 4.8047 3.177 9.6186 6.334 14.4509 9.462 1.7186 1.115 3.3633 1.525 4.8601 1.261.0462 0 .0924-.019.1386-.029l.425-.108c1.4876-.449 2.8181-1.583 3.9269-3.411 1.6169-2.688 3.2246-5.406 4.7584-8.153.5359-.948 1.0256-1.114 2.0605-.919 2.2545.44 4.4997.861 6.7634 1.261 2.4486.43 4.9063.841 7.3638 1.212 1.035.167 1.479.45 1.691 1.525.684 3.373 1.451 6.726 2.227 10.089.785 3.431 3.77 5.415 6.994 4.623 6.062-1.486 12.114-2.991 18.156-4.516.25-.068.499-.147.73-.235 2.763-1.075 4.278-4.017 3.595-7.184-.721-3.363-1.451-6.726-2.264-10.079-.259-1.065.018-1.534.878-2.16 3.936-2.864 7.807-5.826 11.623-8.866.841-.665 1.349-.763 2.227-.167.915.626 1.829 1.232 2.735 1.838 1.635 1.085 3.289 2.161 4.943 3.226 1.719 1.105 3.373 1.496 4.879 1.222.046 0 .092-.02.138-.029l.351-.088c1.516-.44 2.865-1.594 3.973-3.461 3.05-5.142 6.062-10.283 9.046-15.455 2.19-3.802 1.395-7.331-2.162-9.746-2.596-1.759-5.211-3.48-7.854-5.141-.831-.528-.951-1.027-.785-2.043.868-5.035 1.654-10.079 2.347-15.142.138-1.027.443-1.447 1.367-1.662 3.188-.743 6.357-1.545 9.526-2.356.176-.049.361-.108.536-.166.083-.039.157-.069.25-.098 2.836-1.114 4.342-4.027 3.631-7.273-1.395-6.344-2.8-12.688-4.223-19.032-.794-3.539-3.76-5.455-7.142-4.634l-.018-.029z" fill="#fce530" stroke-miterlimit="10"/><path d="m394.958 128.369c-.878-.567-1.395-.469-2.218.215-3.742 3.138-7.548 6.198-11.401 9.169-.841.645-1.109 1.134-.823 2.19.887 3.324 1.691 6.667 2.495 10.02.758 3.147-.684 6.129-3.428 7.282-.231.098-.48.186-.721.254-6.005 1.692-12.02 3.353-18.045 5.005-2.171.587-4.25-.088-5.645-1.642.868 3.412 6.948 4.683 10.154 3.803 6.015-1.652 14.756-4.116 20.771-5.797.25-.068.499-.166.721-.254 2.735-1.154 4.767-5.904 4.01-9.052-.804-3.343-1.617-6.686-2.495-10.02-.286-1.056-.018-1.535.822-2.189 2.994-2.298 5.932-4.663 8.843-7.058-.083-.049-.166-.098-.24-.157-.924-.576-1.867-1.163-2.782-1.759h-.009z" fill="#df0465" stroke-miterlimit="10"/><path d="m381.832 8.015c4.739 2.9033 9.396 6.0021 14.219 8.7294 3.89 2.1994 5.027 6.7645 2.661 10.5573-1.829 2.9131-3.39 6.0314-4.795 8.5632 3.317 4.9072 6.385 9.5016 9.535 14.0374.268.391 1.165.5963 1.673.4692 2.236-.567 4.453-1.1828 6.671-1.7987-.462-.0391-.961-.215-1.164-.5083-3.16-4.5357-5.6-7.7225-8.917-12.6199 1.405-2.5416 2.966-5.6502 4.796-8.5632 2.374-3.7928 1.238-8.3579-2.661-10.5574-4.833-2.7371-11.023-6.82315-15.763-9.7362-1.913-1.17304-3.659-1.55428-5.221-1.16326-.111.02932-3.021.49854-5.71 1.31967 1.423-.18574 2.985.22483 4.666 1.27079z" fill="#df0465" stroke-miterlimit="10"/><path d="m298.736 31.1637c2.753 1.9355 5.71 3.5875 8.288 5.1711 1.238-.9873 2.448-1.9648 3.659-2.9326-1.377-.8406-2.772-1.7107-4.121-2.6589-1.7-1.1926-2.865-1.4467-5.165-1.6227-1.793-.1759-6.459-.4105-7.956.9385h.019c1.709-.4106 3.576-.088 5.276 1.1046z" fill="#df0465" stroke-miterlimit="10"/><path d="m347.938 7.96742c.786 3.13788 1.516 6.29528 2.283 9.42338 2.91.264 5.737.4106 8.519.8212 2.79.4105 5.543 1.0753 8.463 1.6618.518-.9482 1.053-1.9062 1.571-2.8642-.85-.1564-1.673-.2835-2.486-.4106-2.781-.4105-5.931-1.1534-8.962-1.7009-.85-3.2356-1.672-6.39303-2.504-9.48204-.915-3.39204-1.746-3.83193-4.093-4.16429-2.144-.303034-5.387-.342136-7.374-.05865 2.292.39101 3.669 3.15743 4.565 6.7743z" fill="#df0465" stroke-miterlimit="10"/><path d="m295.243 110.951c-2.024.557-4.066 1.056-6.098 1.564 1.219.753 2.698 1.026 4.213.665 1.349-.323 2.707-.645 4.047-.978-.056-.078-.102-.156-.157-.225-.564-.87-.943-1.31-2.005-1.016z" fill="#8ea2ac" stroke-linejoin="round"/><path d="m434.348 70.7447c-1.552-6.3051-3.105-12.6199-4.675-18.9055-.878-3.5191-4.519-6.7645-7.882-5.8554-1.949.5377-3.899 1.0753-5.858 1.613 2.8-.176 5.165 1.6129 5.914 4.653 1.58 6.2953 3.132 12.6004 4.675 18.9055.795 3.2259-.638 6.178-3.446 7.3706-.093.0293-.167.0684-.25.1075-.166.0685-.351.1271-.527.1858-3.15.8993-6.31 1.7791-9.48 2.61-.914.2346-1.21.6647-1.321 1.7009-.573 5.0832-1.238 10.1468-1.977 15.2006-.148 1.0069-.009 1.5152.832 2.0133 2.688 1.594 5.349 3.226 7.983 4.927 3.612 2.317 4.481 5.826 2.383 9.688-2.855 5.249-5.756 10.469-8.676 15.689-1.062 1.896-2.374 3.079-3.88 3.568l-.351.098s-.093.019-.148.029c-.638.137-1.312.147-1.996.029 4.666 2.591 9.609 3.823 12.511-.879 3.123-5.074 7.502-13.696 10.357-18.945 2.098-3.861 1.229-7.38-2.384-9.687-2.633-1.691-5.285-3.334-7.983-4.9271-.85-.5083-.979-.9971-.831-2.0137.748-5.0539 1.404-10.1175 1.977-15.2007.12-1.0264.407-1.4565 1.321-1.7009 3.17-.8309 6.32-1.7107 9.48-2.61.176-.0489.361-.1173.536-.1857.074-.0391.157-.0782.25-.1076 2.808-1.1926 4.241-4.1447 3.446-7.3706z" fill="#df0465" stroke-miterlimit="10"/><path d="m412.313 48.5537c1.219-.303 2.421-.6354 3.631-.958-.434.0293-.887.0978-1.33.2151-.934.2541-1.876.518-2.809.782.184.0195.369 0 .517-.0293z" fill="#cdd6da" stroke-linecap="round" stroke-linejoin="round"/><path d="m426.539 71.1444c-1.552-6.3051-3.104-12.62-4.675-18.9055-.758-3.0401-3.114-4.8192-5.914-4.6531-1.21.3324-2.411.6648-3.631.958-.138.0391-.323.0489-.517.0294-2.218.6158-4.445 1.2414-6.671 1.7986-.518.1369-1.405-.0782-1.673-.4692-3.16-4.5358-6.236-9.1302-9.535-14.0374 1.404-2.5416 2.966-5.6501 4.795-8.5632 2.375-3.7928 1.238-8.3579-2.661-10.5573-4.823-2.7371-9.48-5.8261-14.22-8.72939-1.681-1.02641-3.243-1.44675-4.666-1.27079-.184.02932-.378.05865-.554.10753-.12.0391-.213.05865-.286.08798-.056.01955-.102.0391-.148.04887-1.479.51809-2.781 1.74001-3.872 3.6853-.877 1.5543-1.728 3.1086-2.587 4.6628-.305.567-.61 1.1144-.915 1.6814-.517.9482-1.053 1.916-1.57 2.8642-2.929-.5866-5.683-1.2611-8.464-1.6618-2.781-.4106-5.608-.5572-8.519-.8212-.776-3.1183-1.506-6.2855-2.282-9.42339-.906-3.61687-2.282-6.38329-4.564-6.7743-.426-.07821-.86-.07821-1.349.02932l-11.033 3.05968-10.422 2.88372c-3.095 1.16327-3.308 3.89057-2.033 8.95417.786 3.1379 1.608 6.2758 2.319 9.14-2.42 1.9453-4.813 3.8612-7.207 5.7772-.979.7918-1.968 1.5836-2.966 2.3754-1.21.9678-2.42 1.9453-3.658 2.9326-2.578-1.6032-5.526-3.2454-8.288-5.1712-1.701-1.1925-3.576-1.5151-5.276-1.1046h-.019c-.203.0685-.36.1076-.471.1467-.055.0195-.102.0391-.157.0586-1.599.567-3.012 1.8084-3.936 3.6169-2.606 5.1027-5.378 10.1077-8.307 15.0051-2.226 3.7244-1.173 8.2699 2.504 10.3032 2.948 1.6227 5.757 3.5094 8.63 5.2689-.582 3.5387-1.229 6.96-1.7 10.4107-.277 2.0529-.351 4.135-.388 6.2074-.009.8309-.222 1.2708-.785 1.5445-.084.0391-.176.0782-.278.1173-.074.0195-.138.0489-.212.0684-3.169.8211-6.32 1.7107-9.48 2.61-3.354.9482-5.147 4.1057-4.278 7.6248 1.561 6.3637 3.141 12.7273 4.74 19.0913.832 3.275 3.881 5.161 6.994 4.34 1.202-.322 2.384-.645 3.585-.968 2.024-.557 4.057-1.114 6.062-1.72 1.053-.313 1.441.117 2.023.958l.157.225c2.772 3.998 5.618 7.937 8.519 11.838.601.811.721 1.31.213 2.18-1.571 2.727-3.077 5.493-4.583 8.26-2.218 4.066-1.358 7.566 2.458 9.961 4.869 3.05 9.766 6.08 14.672 9.081 1.238.763 2.421 1.154 3.548 1.222.462.029.915 0 1.34-.088.046 0 .092-.02.139-.029l.425-.118c1.478-.488 2.781-1.661 3.843-3.519 1.562-2.737 3.096-5.493 4.556-8.27.498-.958.997-1.143 2.032-.958 1.867.313 3.733.597 5.6.89.397.059.803.137 1.191.186 2.458.361 4.925.703 7.392 1.006 1.035.137 1.488.411 1.728 1.477.767 3.353 1.617 6.686 2.458 10.029.277 1.105.794 2.053 1.46 2.796 1.395 1.554 3.474 2.229 5.645 1.642 6.015-1.652 12.03-3.314 18.054-5.005.25-.068.499-.166.721-.254 2.735-1.154 4.176-4.135 3.428-7.283-.804-3.343-1.617-6.686-2.495-10.019-.286-1.056-.018-1.535.823-2.19 3.862-2.972 7.669-6.031 11.401-9.169.832-.694 1.331-.802 2.218-.215.915.596 1.857 1.182 2.781 1.759.083.049.166.098.24.157 1.59.987 3.179 1.974 4.777 2.932.998.596 1.968.968 2.902 1.124.693.118 1.358.108 1.995-.029.047 0 .093-.02.139-.029l.351-.098c1.506-.479 2.827-1.672 3.881-3.568 2.919-5.21 5.821-10.43 8.676-15.689 2.097-3.862 1.229-7.381-2.384-9.688-2.633-1.691-5.285-3.333-7.983-4.927-.85-.5079-.98-.9967-.832-2.0133.749-5.0539 1.405-10.1175 1.978-15.2007.12-1.0264.406-1.4565 1.321-1.7009 3.169-.8309 6.32-1.7107 9.48-2.61.175-.0489.36-.1173.536-.1857.074-.0391.157-.0782.249-.1075 2.809-1.1926 4.241-4.1448 3.447-7.3706v-.0587z" fill="#fa5d97" stroke-miterlimit="10"/><path d="m532.372 329.478c-3.307-1.046-6.634-2.033-9.914-3.147-.536-.186-1.229-.88-1.275-1.389-.527-5.923-.933-11.877-1.404-18.231 2.587-1.485 5.599-3.411 8.768-4.995 4.103-2.062 5.433-6.852 3.049-11.095-2.966-5.259-5.581-10.753-8.38-16.119-1.127-2.161-2.513-3.519-4.14-4.067l-.304-.098c-.056-.019-.111-.029-.167-.039-1.598-.391-8.149-.137-10.533-.137-1.802 0 1.95 3.06.37 3.969-1.553.9-3.077 1.789-4.611 2.669-2.347-2.219-4.491-4.419-6.81-6.393-2.319-1.985-4.804-3.734-7.299-5.66.905-3.265 1.755-6.598 2.79-9.854 1.617-5.034 1.386-8.309-1.885-9.54l-22.896-7.107c-.72-.147-1.598-.293-2.189-.293-2.273-.03-3.696.127-7.845.401-3.234.215 2.181 13.558 1.349 16.549-3.206.362-6.348.714-9.508 1.066-2.882.322-5.774.645-8.731.977-1.515-2.932-3.336-6.129-4.842-9.472-.924-2.063-2.448-3.441-4.213-4.047-.222-.069-.407-.127-.517-.166-.056-.02-.111-.03-.176-.039-.36-.088-.73-.137-1.109-.167-1.432-.088-10.173-.273-11.577.607-4.989 3.118-2.846 6.617-8.029 9.364-3.936 2.102-5.332 6.823-3.049 10.782 1.829 3.177 3.409 6.501 5.1 9.766-2.356 2.864-4.703 5.592-6.911 8.446-1.303 1.701-2.449 3.548-3.548 5.406-.435.743-.869 1.016-1.516.948-.101 0-.203-.029-.314-.059-.074-.019-.157-.039-.231-.068-3.298-1.085-6.616-2.102-9.923-3.109-1.035-.313-2.015-.332-3.012-.391-.185 0-8.723.088-8.889.137-1.996.548 4.758 2.307 4.093 4.692-1.876 6.677-3.733 13.353-5.562 20.03-.943 3.451.859 6.931 4.102 7.967 3.373 1.085 6.736 2.15 10.127 3.138 1.118.322 1.247.938 1.34 2.052.452 5.318 1.007 10.636 1.635 15.934.129 1.076-.018 1.603-.933 2.112-2.827 1.554-5.627 3.187-8.408 4.829-4.112 2.414-5.137 6.07-2.911 10.44 2.846 5.572-1.931 14.604 1.913 19.472 1.663 2.112 10.912 1.985 10.912 1.985 2.171-.137 3.576-.616 5.507-1.682 2.818-1.574 5.636-3.186 8.389-4.868.952-.586 1.497-.459 2.347.303 1.858 1.652 3.724 3.285 5.6 4.898 2.042 1.749 4.102 3.48 6.181 5.181.878.713 1.146 1.231.804 2.346-1.035 3.489-1.996 6.999-2.948 10.498-.97 3.598.795 7.058 4.149 8.124 6.301 1.984 4.712 4.154 11.023 6.1.259.087 7.512.42 8.759.361 3.123-.137 5.858-1.71 6.801-5.005.998-3.499 1.977-8.221 2.901-11.75.286-1.124.776-1.398 1.876-1.505 5.035-.46 10.062-1.036 15.069-1.711 1.109-.146 1.627 1.281 2.135 2.317.517 1.075 1.072 2.141 1.617 3.206.97 1.906 1.949 3.803 2.957 5.699 1.034 1.965-7.688 3.969-3.595 4.184l7.965.176c1.506-.156 3.437-.244 5.377-1.349 5.332-3.04 10.654-6.1 15.957-9.208 3.9-2.288 4.907-5.973 2.837-10.157-1.515-3.05-3.068-6.08-4.685-9.071-.508-.949-.369-1.467.287-2.307 3.28-4.145 6.505-8.358 9.637-12.63.637-.87 1.118-1.085 2.079-.772 3.298 1.085-.592 2.326 2.716 3.333.194.059 8.935.078 9.36.068 2.615-.097 4.814-1.867 5.627-4.77 1.857-6.608 3.696-13.216 5.516-19.834 1.016-3.685-.758-7.087-4.278-8.202h.019zm-79.978 31.428c-1.922-.245-3.844-.655-5.766-1.251-18.904-5.885-29.65-26.746-24.088-46.766 5.562-19.98 25.298-31.32 44.24-25.415 1.82.567 3.566 1.28 5.22 2.101 15.606 7.821 23.783 26.628 18.674 44.957-4.907 17.615-21.409 28.524-38.28 26.364z" fill="#157210" stroke-miterlimit="10"/><path d="m280.702 306.114c-2.92.508-5.914.772-8.963.763-30.14-.137-54.301-25.954-54.172-57.851.139-31.848 24.559-57.381 54.764-57.234 2.901.019 5.747.273 8.519.743 26.065 4.447 45.625 28.416 45.487 57.635-.139 28.075-19.986 51.535-45.635 55.954z" fill="#000" stroke-miterlimit="10"/><path d="m272.487 306.114c-2.92.508-5.913.772-8.963.763-30.139-.137-54.301-25.954-54.172-57.851.139-31.848 24.559-57.381 54.764-57.234 2.901.019 5.747.273 8.519.743 26.065 4.447 45.625 28.416 45.487 57.635-.139 28.075-19.986 51.535-45.635 55.954z" fill="#98caf8" stroke-miterlimit="10"/><path d="m254.562 279.437c-4.167 0-7.891-1.065-11.171-3.206s-5.867-5.074-7.77-8.788c-1.913-3.715-2.855-7.938-2.855-12.669s.951-8.915 2.855-12.571c1.912-3.715 4.499-6.618 7.77-8.69 3.28-2.141 6.995-3.216 11.171-3.216 3.336 0 6.255.655 8.759 1.984 2.162 1.144 3.973 2.688 5.424 4.643.203.274.647.127.647-.234v-23.637c0-.166.12-.313.268-.352l10.755-2.356c.203-.049.406.127.406.352v67.245c0 .205-.157.361-.342.361h-9.563c-.157 0-.305-.127-.332-.283l-1.044-5.611c-.056-.303-.444-.401-.619-.157-1.368 1.809-3.114 3.422-5.239 4.82-2.32 1.573-5.359 2.365-9.101 2.365zm2.412-10.596c3.695 0 6.698-1.3 9.027-3.881 2.374-2.649 3.576-6.012 3.576-10.108s-1.192-7.429-3.576-10.01c-2.319-2.649-5.332-3.969-9.027-3.969-3.696 0-6.634 1.301-9.028 3.881-2.374 2.581-3.575 5.914-3.575 10.01s1.192 7.459 3.575 10.108c2.375 2.649 5.387 3.969 9.028 3.969z" fill="#000" stroke-miterlimit="10"/><path d="m292.177 278.118c4.25 0 7.706-3.646 7.706-8.143s-3.446-8.153-7.706-8.153c-4.259 0-7.697 3.646-7.697 8.153 0 4.506 3.447 8.143 7.697 8.143z" fill="#000" stroke-miterlimit="10"/><path d="m248.843 279.437c-4.167 0-7.89-1.065-11.17-3.206-3.281-2.141-5.868-5.074-7.771-8.788-1.913-3.715-2.855-7.938-2.855-12.669s.952-8.915 2.855-12.571c1.913-3.715 4.5-6.618 7.771-8.69 3.28-2.141 6.994-3.216 11.17-3.216 3.336 0 6.256.655 8.75 1.984 2.162 1.144 3.973 2.688 5.424 4.643.203.274.647.127.647-.234v-23.637c0-.166.12-.313.268-.352l10.755-2.356c.203-.049.406.127.406.352v67.245c0 .205-.157.361-.342.361h-9.563c-.157 0-.305-.127-.332-.283l-1.044-5.611c-.056-.303-.444-.401-.619-.157-1.368 1.809-3.114 3.422-5.239 4.82-2.329 1.573-5.359 2.365-9.101 2.365zm2.412-10.596c3.696 0 6.699-1.3 9.027-3.881 2.375-2.649 3.576-6.012 3.576-10.108s-1.192-7.429-3.576-10.01c-2.319-2.649-5.331-3.969-9.027-3.969s-6.634 1.301-9.027 3.881c-2.375 2.581-3.576 5.914-3.576 10.01s1.192 7.459 3.576 10.108c2.374 2.649 5.386 3.969 9.027 3.969z" fill="#fff" stroke-miterlimit="10"/><path d="m286.458 278.118c4.251 0 7.706-3.646 7.706-8.143s-3.446-8.153-7.706-8.153c-4.259 0-7.696 3.646-7.696 8.153 0 4.506 3.446 8.143 7.696 8.143z" fill="#fff" stroke-miterlimit="10"/><path d="m118.386 340.866c-1.617.723-3.326 1.32-5.091 1.75-17.4631 4.36-34.8429-7.038-38.9454-25.533-4.1116-18.485 6.6896-36.824 24.1896-41.164 1.6818-.421 3.3628-.684 5.0358-.821 15.67-1.252 30.14 9.746 33.891 26.686 3.603 16.266-4.814 32.767-19.08 39.092z" fill="#000" stroke-miterlimit="10"/><path d="m99.5459 275.068c-17.8603 0-32.3389 15.318-32.3389 34.214 0 8.974 3.2709 17.136 8.6114 23.236 5.9134 6.745 14.3493 10.978 23.7275 10.978 9.3781 0 17.7771-4.214 23.6911-10.929 5.368-6.11 8.648-14.282 8.648-23.285 0-18.896-14.479-34.214-32.3391-34.214z" fill="#faec71" stroke-miterlimit="10"/><path d="m369.67 118.565c-1.876.89-3.835 1.643-5.895 2.209-1.127.313-2.264.567-3.391.763-19.126 3.402-37.772-9.091-42.78-29.3456-5.294-21.4177 6.782-43.1776 27.091-48.7984 1.949-.5475 3.908-.9091 5.849-1.1144 2.116-.2249 4.213-.2444 6.273-.1076 15.791 1.1242 29.724 12.8155 34.012 30.1863 4.656 18.8761-4.703 38.3877-21.178 46.2077z" fill="#000" stroke-miterlimit="10"/><path d="m363.404 118.565c-1.875.89-3.834 1.643-5.895 2.209-1.127.313-2.263.567-3.391.763-19.126 3.402-37.772-9.091-42.78-29.3456-5.294-21.4177 6.782-43.1776 27.082-48.7984 1.95-.5475 3.908-.9091 5.849-1.1144 2.116-.2249 4.213-.2444 6.274-.1076 15.79 1.1242 29.724 12.8155 34.011 30.1863 4.657 18.8761-4.703 38.3877-21.178 46.2077z" fill="#fa5d97" stroke-miterlimit="10"/><path d="m344.12 53.04s-11.854 11.8282-11.854 21.2418c0 12.2779 13.111 39.1112 13.111 39.1112h5.969s19.505-20.8997 19.505-39.1112c0-10.6942-7.013-19.5604-16.198-21.2124-.046 0-.535-.0294-.535-.0294zm7.604 29.8735c-5.34 0-9.683-4.5847-9.683-10.2446s4.334-10.2445 9.683-10.2445c5.35 0 9.684 4.5846 9.684 10.2445s-4.334 10.2446-9.684 10.2446z" fill="#000" stroke-miterlimit="10"/><path d="m345.296 53.04c-10.653 0-19.292 9.6287-19.292 21.4862 0 18.2212 19.292 38.8668 19.292 38.8668s19.293-20.6553 19.293-38.8668c0-11.8672-8.639-21.4862-19.293-21.4862zm.167 30.1276c-5.341 0-9.684-4.5846-9.684-10.2445 0-5.66 4.334-10.2446 9.684-10.2446s9.683 4.5846 9.683 10.2446c0 5.6599-4.333 10.2445-9.683 10.2445z" fill="#fff" stroke-miterlimit="10"/><path d="m101.414 309.312c-9.2122 0-16.9458 6.686-19.1171 15.718.4342.538.8777 1.046 1.3397 1.545 4.546 4.809 10.8289 7.781 17.7684 7.781 6.939 0 13.222-2.972 17.768-7.781l.018-.02c.878-.928 1.164-2.326.739-3.558-2.763-7.996-10.006-13.705-18.516-13.705z" fill="#000" stroke-miterlimit="10"/><path d="m101.415 306.193c5.821 0 10.552-4.995 10.552-11.154 0-6.158-4.722-11.163-10.552-11.163-5.8302 0-10.5517 4.995-10.5517 11.163 0 6.169 4.7215 11.154 10.5517 11.154z" fill="#000" stroke-miterlimit="10"/><path d="m97.1437 309.31c-8.5097 0-15.7537 5.708-18.5163 13.705-.4251 1.231-.1386 2.629.7391 3.558l.0185.019c4.5459 4.81 10.8289 7.782 17.7679 7.782 6.9391 0 13.2221-2.972 17.7681-7.782l.018-.019c.878-.929 1.165-2.327.74-3.558-2.763-7.997-10.007-13.705-18.5168-13.705z" fill="#fff" stroke-linecap="round" stroke-linejoin="round"/><path d="m97.1455 306.193c5.8215 0 10.5515-4.995 10.5515-11.163 0-6.169-4.721-11.154-10.5515-11.154-5.8303 0-10.5517 4.995-10.5517 11.154 0 6.158 4.7214 11.163 10.5517 11.163z" fill="#fff" stroke-linecap="round" stroke-linejoin="round"/><path d="m535.845 183.914c-2.864-1.066-5.756-2.063-8.611-3.187-.462-.186-1.044-.831-1.072-1.291-.222-5.239-.361-10.488-.518-16.109 2.329-1.203 5.064-2.757 7.91-4.018 3.695-1.642 5.044-5.797 3.104-9.638-2.402-4.761-4.5-9.707-6.745-14.566-.896-1.955-2.07-3.206-3.474-3.763l-.268-.098s-.092-.029-.139-.039c-1.395-.411-7.17-.479-9.258-.567-1.589-.078 1.599 2.776.176 3.509-1.395.724-2.781 1.437-4.167 2.151-1.978-2.063-3.779-4.086-5.747-5.924-1.95-1.838-4.084-3.499-6.2-5.298.924-2.845 1.802-5.738 2.846-8.544 1.617-4.369 1.552-7.253-1.285-8.475l-19.884-7.253c-.628-.166-1.395-.323-1.921-.362-1.996-.127-3.253-.049-6.921 0-2.855.039 1.395 12.024.536 14.634-2.837.185-5.618.352-8.417.528-2.55.166-5.11.322-7.715.488-1.22-2.649-2.689-5.542-3.881-8.543-.739-1.858-2.033-3.138-3.548-3.754-.203-.068-.351-.127-.453-.166-.046-.02-.102-.03-.139-.049-.314-.088-.637-.156-.96-.196-1.257-.136-8.935-.684-10.201.03-4.509 2.522-2.763 5.699-7.429 7.898-3.548 1.672-4.952 5.777-3.095 9.355 1.487 2.864 2.744 5.875 4.102 8.818-2.189 2.424-4.361 4.721-6.412 7.136-1.22 1.427-2.301 3.01-3.345 4.604-.416.625-.804.86-1.367.762-.093-.019-.176-.039-.268-.068-.065-.02-.139-.039-.203-.069-2.856-1.095-5.738-2.131-8.621-3.177-.906-.322-1.746-.381-2.633-.479-.158-.019-7.679-.303-7.836-.264-1.783.391 4.103 2.239 3.41 4.311-1.913 5.797-3.798 11.584-5.673 17.391-.961 2.991.489 6.129 3.307 7.194 2.92 1.095 5.849 2.19 8.787 3.207.97.332 1.063.879 1.1 1.857.185 4.712.471 9.404.831 14.106.074.958-.083 1.407-.896 1.808-2.55 1.251-5.082 2.561-7.595 3.891-3.714 1.945-4.758 5.122-2.966 9.061 2.292 5.035-2.264 12.767.915 17.225 1.386 1.935 9.535 2.219 9.535 2.219 1.913-.02 3.169-.391 4.907-1.252 2.55-1.261 5.081-2.551 7.585-3.92.869-.469 1.331-.332 2.052.372 1.57 1.535 3.141 3.05 4.74 4.555 1.727 1.633 3.474 3.236 5.229 4.829.739.665.952 1.134.619 2.092-1.044 3.021-2.032 6.071-3.003 9.121-.998 3.118.425 6.256 3.336 7.331 5.479 2.024 3.982 3.861 9.461 5.855.222.088 6.597.695 7.697.704 2.753.02 5.22-1.251 6.181-4.105 1.017-3.031 2.07-7.156 3.013-10.216.295-.967.739-1.202 1.709-1.251 4.453-.186 8.888-.479 13.333-.86.97-.088 1.386 1.202 1.792 2.131.416.968.86 1.935 1.294 2.893.785 1.721 1.571 3.441 2.374 5.142.841 1.77-6.92 3.158-3.326 3.529l6.995.509c1.321-.079 3.039-.069 4.786-.949 4.814-2.444 9.618-4.897 14.404-7.4 3.521-1.837 4.556-5.044 2.892-8.817-1.219-2.757-2.467-5.484-3.769-8.182-.407-.85-.268-1.32.341-2.023 3.05-3.51 6.043-7.068 8.981-10.695.592-.733 1.026-.909 1.858-.586 2.855 1.095-.61 2.023 2.273 3.05.157.058 7.863.459 8.241.469 2.31.029 4.306-1.427 5.147-3.959 1.894-5.738 3.76-11.476 5.627-17.214 1.044-3.207-.397-6.266-3.446-7.42v-.029zm-71.617 24.184c-1.681-.303-3.363-.743-5.026-1.349-16.41-5.993-25.058-24.83-19.376-42.21 5.683-17.371 23.478-26.462 39.934-20.44 1.58.576 3.086 1.28 4.509 2.082 13.435 7.556 19.884 24.467 14.682 40.372-5.008 15.289-19.958 24.174-34.723 21.535z" fill="#7406e4" stroke-linejoin="round"/><path d="m527.834 183.521c-2.865-1.065-5.757-2.062-8.612-3.196-.462-.186-1.044-.831-1.072-1.29-.221-5.24-.36-10.489-.517-16.11 2.328-1.203 5.063-2.757 7.909-4.018 3.696-1.642 5.045-5.797 3.105-9.638-2.403-4.761-4.5-9.707-6.745-14.566-.896-1.955-2.07-3.206-3.474-3.763l-.268-.098s-.093-.029-.148-.039c-1.395-.411-3.012-.176-4.805.733-1.432.724-2.864 1.457-4.287 2.19-1.395.723-2.781 1.437-4.158 2.15-1.986-2.062-3.788-4.086-5.747-5.923-1.949-1.838-4.084-3.5-6.2-5.299.933-2.844 1.83-5.728 2.846-8.543 1.525-4.253 1.441-7.4-1.293-8.475l-10.044-3.676-8.667-3.236-.831-.224c-2.855-.5381-4.528 1.603-5.96 5.826-.961 2.844-1.83 5.748-2.689 8.348-2.836.185-5.618.352-8.408.528-2.55.166-5.109.322-7.724.488-1.211-2.649-2.689-5.542-3.881-8.543-.739-1.858-2.033-3.138-3.548-3.754-.203-.068-.351-.127-.453-.166-.046-.02-.101-.029-.138-.049-1.525-.43-3.216-.244-4.823.645-4.509 2.522-9.12 4.888-13.786 7.087-3.548 1.672-4.953 5.777-3.095 9.355 1.487 2.864 2.744 5.875 4.102 8.818-2.19 2.424-4.361 4.721-6.412 7.136-1.22 1.427-2.301 3.01-3.345 4.604-.416.625-.804.86-1.368.762-.092-.019-.175-.039-.268-.068-.064-.02-.138-.039-.203-.069-2.855-1.094-5.738-2.131-8.62-3.177-3.068-1.094-5.988.362-7.05 3.568-1.913 5.797-3.798 11.584-5.673 17.391-.961 2.991.489 6.129 3.307 7.194 2.92 1.095 5.849 2.19 8.787 3.207.97.332 1.063.879 1.1 1.857.185 4.712.471 9.404.831 14.106.074.948-.083 1.407-.896 1.808-2.55 1.251-5.082 2.561-7.595 3.891-3.714 1.945-4.758 5.122-2.966 9.062 2.292 5.034 4.583 10.068 6.93 15.073.831 1.779 1.931 2.972 3.234 3.558.037.02.083.039.12.049l.388.147c1.377.44 2.975.234 4.703-.616 2.55-1.271 5.082-2.551 7.586-3.92.868-.469 1.33-.332 2.051.372 1.571 1.534 3.141 3.049 4.74 4.555 1.728 1.632 3.474 3.245 5.23 4.829.739.665.951 1.134.619 2.092-1.044 3.02-2.024 6.07-3.003 9.12-.998 3.118.425 6.256 3.335 7.332 5.479 2.023 10.949 4.017 16.429 6.011.221.088.461.147.683.196 2.689.616 5.258-.919 6.219-3.764 1.016-3.03 2.032-6.07 2.966-9.13.295-.967.739-1.202 1.709-1.251 4.453-.186 8.888-.479 13.333-.86.97-.088 1.423.117 1.829 1.036.416.968.859 1.936 1.284 2.894.786 1.73 1.58 3.44 2.375 5.141.841 1.77 1.95 2.952 3.271 3.539.046.02.083.039.12.059l.323.117c1.396.45 3.013.254 4.759-.635 4.814-2.444 9.618-4.898 14.405-7.4 3.52-1.838 4.555-5.044 2.892-8.818-1.22-2.756-2.467-5.484-3.77-8.182-.407-.85-.268-1.319.342-2.023 3.049-3.509 6.042-7.068 8.981-10.694.591-.734 1.025-.909 1.857-.587 2.855 1.095 5.738 2.131 8.62 3.177.158.059.333.108.499.157.084 0 .158.029.241.058 2.762.616 5.312-.889 6.273-3.822 1.895-5.738 3.761-11.476 5.627-17.224 1.044-3.206-.397-6.266-3.446-7.41l.037-.019zm-71.617 24.185c-1.682-.303-3.363-.743-5.027-1.349-16.409-5.993-25.058-24.84-19.375-42.21 5.673-17.342 23.487-26.462 39.934-20.441 1.589.577 3.086 1.281 4.509 2.083 13.443 7.556 19.893 24.467 14.682 40.382-5.008 15.288-19.958 24.174-34.723 21.535z" fill="#a041ff" stroke-miterlimit="10"/><path d="m455.33 218.147c-2.126-.382-4.241-.939-6.339-1.711-20.715-7.566-31.627-31.34-24.457-53.276 7.16-21.887 29.631-33.402 50.384-25.797 1.996.733 3.899 1.613 5.701 2.63 16.955 9.531 25.104 30.89 18.525 50.968-6.32 19.287-25.196 30.519-43.824 27.176z" fill="#000" stroke-linejoin="round"/><path d="m449.373 218.147c-2.126-.382-4.241-.939-6.339-1.711-20.715-7.566-31.627-31.34-24.457-53.276 7.16-21.887 29.631-33.402 50.384-25.797 1.995.733 3.899 1.613 5.701 2.63 16.954 9.531 25.104 30.89 18.525 50.968-6.32 19.287-25.196 30.519-43.824 27.176z" fill="#a042fd" stroke-miterlimit="10"/><path d="m485.886 177.402v-.167c0-16.295-12.539-29.56-27.941-29.56-15.403 0-27.941 13.265-27.941 29.56 0 16.296 12.538 29.561 27.941 29.561h.185c7.641-.059 14.561-3.363 19.578-8.671.222-.127.435-.313.583-.567.046-.068.046-.146.083-.215 4.601-5.23 7.456-12.209 7.502-19.893v-.058zm-9.397 16.754c-1.358-.87-2.781-1.632-4.297-2.306 1.719-3.92 2.726-8.231 2.939-12.63h7.216c-.416 5.689-2.541 10.87-5.877 14.936zm-42.974-14.936h7.456c.222 4.399 1.22 8.7 2.939 12.63-1.562.694-3.04 1.495-4.435 2.394-3.364-4.086-5.544-9.306-5.96-15.024zm5.784-18.769c1.441.948 2.984 1.799 4.601 2.522-1.718 3.92-2.716 8.211-2.938 12.61h-7.456c.342-5.757 2.457-10.997 5.784-15.132zm20.503-7.468c2.92 2.033 5.424 4.702 7.401 7.937-2.393.704-4.86 1.125-7.401 1.252v-9.199zm-3.437-.059v9.267c-2.578-.127-5.082-.547-7.494-1.251 1.996-3.255 4.537-5.963 7.494-7.996zm-9.203 11.232c2.957.948 6.034 1.505 9.203 1.652v9.756h-11.975c.222-3.998 1.164-7.869 2.763-11.408zm9.193 15.044v9.776c-3.159.146-6.236.694-9.193 1.652-1.598-3.539-2.559-7.43-2.781-11.428zm0 13.412v9.228c-2.938-2.033-5.479-4.722-7.474-7.977 2.402-.704 4.897-1.124 7.474-1.251zm3.438 9.179v-9.179c2.541.127 5.017.547 7.401 1.251-1.978 3.236-4.5 5.905-7.401 7.928zm9.119-11.173c-2.938-.948-5.978-1.486-9.119-1.633v-9.775h11.882c-.222 3.998-1.164 7.889-2.781 11.427zm-9.119-15.064v-9.756c3.141-.146 6.2-.694 9.119-1.632 1.599 3.529 2.541 7.409 2.763 11.408h-11.901zm10.755-15.826c-1.636-2.835-3.604-5.328-5.895-7.41 3.576 1.095 6.819 3.001 9.517 5.562-1.155.704-2.375 1.33-3.641 1.858h.019zm-25.003 0c-1.321-.567-2.596-1.203-3.779-1.946 2.763-2.58 6.098-4.506 9.757-5.562-2.319 2.112-4.324 4.634-5.978 7.508zm.037 35.357c1.525 2.659 3.382 5.015 5.479 7.019-3.363-1.036-6.44-2.835-9.036-5.201 1.136-.674 2.3-1.29 3.557-1.818zm24.956-.039c1.202.508 2.357 1.085 3.438 1.74-2.541 2.346-5.553 4.145-8.843 5.21 2.079-1.994 3.899-4.32 5.415-6.96zm4.583-19.482c-.221-4.399-1.219-8.69-2.938-12.61 1.58-.694 3.058-1.506 4.463-2.415 3.28 4.125 5.359 9.326 5.701 15.025h-7.235z" fill="#000" stroke-miterlimit="10"/><path d="m483.612 177.725v-.166c0-16.296-12.538-29.561-27.941-29.561-15.402 0-27.941 13.265-27.941 29.561 0 16.295 12.539 29.56 27.941 29.56h.185c7.641-.058 14.562-3.362 19.579-8.67.213-.225.638-.714.675-.783 4.601-5.229 7.456-12.209 7.502-19.892v-.059zm-9.424 16.745c-1.359-.87-2.754-1.623-4.269-2.297 1.719-3.92 2.726-8.231 2.938-12.63h7.216c-.415 5.689-2.541 10.87-5.876 14.937h-.009zm-42.946-14.937h7.456c.222 4.399 1.22 8.7 2.938 12.63-1.561.694-3.04 1.496-4.435 2.395-3.363-4.086-5.544-9.306-5.959-15.025zm5.784-18.768c1.441.948 2.984 1.798 4.601 2.522-1.719 3.92-2.717 8.211-2.938 12.61h-7.457c.342-5.758 2.458-10.997 5.784-15.132zm20.502-7.469c2.92 2.034 5.424 4.702 7.401 7.938-2.393.704-4.86 1.124-7.401 1.251v-9.199zm-3.437.01v9.199c-2.578-.127-5.082-.548-7.493-1.252 1.996-3.255 4.537-5.963 7.493-7.996zm-9.202 11.163c2.956.949 6.033 1.506 9.202 1.653v9.755h-11.974c.221-3.998 1.164-7.869 2.762-11.408zm9.193 15.045v9.775c-3.16.147-6.237.694-9.193 1.652-1.599-3.539-2.56-7.429-2.782-11.427zm0 13.411v9.228c-2.938-2.033-5.479-4.721-7.475-7.976 2.402-.704 4.897-1.124 7.475-1.252zm3.437 9.179v-9.179c2.541.128 5.017.548 7.401 1.252-1.977 3.235-4.499 5.904-7.401 7.927zm9.092-11.163c-2.938-.948-5.95-1.505-9.092-1.652v-9.775h11.883c-.222 3.998-1.165 7.888-2.782 11.427zm-9.092-15.083v-9.756c3.142-.147 6.2-.694 9.12-1.633 1.598 3.529 2.541 7.41 2.763 11.408zm10.755-15.827c-1.635-2.834-3.603-5.327-5.895-7.409 3.576 1.095 6.819 3.001 9.517 5.562-1.155.704-2.328 1.32-3.603 1.847zm-25.002.01c-1.322-.567-2.597-1.202-3.779-1.945 2.762-2.581 6.098-4.506 9.757-5.562-2.319 2.111-4.324 4.633-5.978 7.507zm.037 35.358c1.524 2.659 3.381 5.014 5.479 7.018-3.364-1.036-6.44-2.835-9.037-5.2 1.137-.675 2.301-1.29 3.558-1.818zm24.956-.039c1.201.508 2.356 1.085 3.437 1.74-2.541 2.346-5.553 4.144-8.842 5.21 2.079-1.994 3.899-4.321 5.414-6.96zm4.583-19.483c-.222-4.399-1.22-8.69-2.938-12.61 1.58-.694 3.058-1.505 4.462-2.414 3.281 4.125 5.36 9.325 5.701 15.024h-7.234z" fill="#fff" stroke-miterlimit="10"/><path d="m523.272 329.478c-3.308-1.046-6.634-2.033-9.914-3.148-.536-.186-1.229-.88-1.276-1.388-.526-5.924-.933-11.877-1.404-18.231 2.587-1.486 5.599-3.411 8.769-4.995 4.102-2.063 5.432-6.853 3.049-11.095-2.966-5.259-5.581-10.753-8.381-16.12-1.127-2.16-2.513-3.519-4.139-4.066l-.305-.098c-.056-.019-.111-.029-.157-.039-1.608-.391-3.41-.029-5.415 1.105-1.589.909-3.169 1.818-4.749 2.727-1.552.899-3.077 1.789-4.61 2.669-2.347-2.219-4.491-4.419-6.81-6.393-2.319-1.985-4.805-3.735-7.299-5.66.905-3.265 1.783-6.599 2.79-9.854 1.515-4.897 1.257-8.475-1.885-9.541l-11.577-3.607-9.979-3.186-.943-.206c-3.261-.449-5.054 2.063-6.467 6.941-.943 3.274-1.784 6.618-2.624 9.609-3.207.362-6.348.713-9.508 1.065-2.883.323-5.775.646-8.732.978-1.515-2.933-3.335-6.129-4.841-9.472-.924-2.063-2.449-3.441-4.214-4.047-.221-.069-.406-.127-.517-.167-.055-.019-.111-.029-.166-.039-1.747-.41-3.668-.107-5.433.997-4.99 3.119-10.09 6.051-15.264 8.808-3.936 2.092-5.331 6.823-3.049 10.772 1.829 3.177 3.409 6.501 5.1 9.766-2.356 2.864-4.703 5.591-6.911 8.446-1.303 1.701-2.449 3.548-3.548 5.406-.435.743-.869 1.016-1.516.938-.101 0-.194-.029-.314-.059-.074-.019-.157-.039-.231-.068-3.298-1.085-6.615-2.092-9.923-3.109-3.521-1.075-6.773.753-7.817 4.438-1.876 6.667-3.724 13.354-5.562 20.03-.943 3.451.859 6.931 4.111 7.967 3.364 1.085 6.736 2.151 10.127 3.138 1.118.322 1.238.928 1.34 2.053.453 5.317 1.007 10.635 1.635 15.933.13 1.076-.018 1.604-.933 2.102-2.827 1.554-5.627 3.197-8.417 4.829-4.103 2.415-5.138 6.071-2.911 10.44 2.846 5.572 5.71 11.154 8.612 16.696 1.025 1.985 2.337 3.256 3.843 3.852.047.02.093.039.139.049l.443.137c1.58.42 3.373.107 5.295-.968 2.818-1.574 5.636-3.187 8.399-4.868.951-.587 1.496-.46 2.347.303 1.857 1.652 3.723 3.284 5.599 4.897 2.042 1.75 4.102 3.48 6.181 5.181.878.714 1.146 1.232.804 2.346-1.035 3.49-1.996 6.999-2.947 10.499-.971 3.588.794 7.058 4.148 8.123 6.302 1.985 12.622 3.94 18.932 5.895.259.088.536.146.795.186 3.068.537 5.913-1.33 6.856-4.624.998-3.5 1.986-6.999 2.91-10.518.287-1.125.776-1.398 1.876-1.506 5.036-.459 10.062-1.036 15.07-1.72 1.109-.147 1.617.049 2.125 1.075.517 1.075 1.072 2.141 1.617 3.206.97 1.906 1.95 3.803 2.957 5.699 1.034 1.965 2.356 3.236 3.88 3.822.047.02.093.04.148.059l.37.117c1.607.431 3.418.127 5.359-.977 5.331-3.04 10.653-6.1 15.957-9.208 3.899-2.288 4.906-5.973 2.836-10.157-1.515-3.05-3.067-6.08-4.684-9.072-.499-.948-.37-1.466.286-2.307 3.28-4.144 6.505-8.357 9.637-12.619.638-.87 1.118-1.086 2.079-.773 3.299 1.085 6.616 2.092 9.924 3.109.184.058.378.107.572.146.093 0 .176.03.278.049 3.16.548 5.978-1.31 6.929-4.682 1.858-6.608 3.696-13.216 5.516-19.834 1.017-3.685-.757-7.087-4.277-8.202h.018zm-79.979 31.428c-1.913-.245-3.844-.655-5.766-1.252-18.904-5.884-29.65-26.745-24.087-46.765 5.562-19.981 25.298-31.32 44.239-25.416 1.82.567 3.567 1.281 5.221 2.102 15.605 7.82 23.783 26.628 18.673 44.957-4.906 17.615-21.408 28.524-38.28 26.364z" fill="#2ae31e"/><path d="m466.789 357.67c18.017-8.671 25.982-31.144 17.796-50.216-8.196-19.062-29.447-27.488-47.465-18.818-18.017 8.671-25.982 31.145-17.795 50.216 8.195 19.062 29.447 27.488 47.464 18.818z" fill="#000" stroke-miterlimit="10"/><path d="m460.876 357.67c18.018-8.671 25.982-31.154 17.787-50.216-8.196-19.062-29.447-27.488-47.465-18.827-18.017 8.67-25.982 31.153-17.795 50.215 8.195 19.062 29.447 27.489 47.464 18.828z" fill="#2ae31e"/><path d="m463.804 333.485c0-6.471-4.075-11.271-10.894-12.844l-.785-.118v-14.057c3.631 1.193 5.202 3.647 5.553 6.491l6.015-.831s-.037-.215-.055-.313c-.952-5.347-4.759-10.528-11.513-11.906v-4.8h-6.015v4.634c-6.948 1.017-11.947 6.373-11.947 13.285 0 6.461 4.066 11.251 10.884 12.844l1.072.167v14.105c-3.816-1.134-5.59-4.193-5.95-7.106l-.065-.499-6.061.802c.693 5.718 4.786 11.975 12.076 13.333v4.36h6.015v-4.291c6.81-1.115 11.67-6.432 11.67-13.246zm-23.617-20.469c0-2.962 2.033-5.953 5.923-6.843v13.402c-2.753-.684-5.923-2.395-5.923-6.569zm11.947 27.234v-13.275c2.689.723 5.646 2.454 5.646 6.501 0 2.893-1.941 5.826-5.646 6.774z" fill="#000" stroke-linecap="round" stroke-linejoin="round"/><path d="m459.814 333.484c0-6.471-4.074-11.271-10.893-12.844l-.786-.118v-14.057c3.631 1.193 5.322 4.174 5.664 7.019l5.969-.811c-.684-5.641-4.518-11.31-11.642-12.757v-4.8h-6.015v4.634c-6.958 1.016-11.947 6.373-11.947 13.284 0 6.462 4.066 11.252 10.884 12.845l1.072.166v14.106c-3.816-1.134-5.59-4.193-5.959-7.106l-5.969.811c.693 5.718 4.629 11.476 11.928 12.825v4.36h6.015v-4.291c6.81-1.115 11.67-6.433 11.67-13.246h-.009zm-23.616-20.469c0-2.962 2.032-5.953 5.931-6.843v13.402c-2.753-.684-5.931-2.395-5.931-6.569zm11.947 27.234v-13.275c2.688.723 5.645 2.454 5.645 6.501 0 2.893-1.94 5.826-5.645 6.774z" fill="#fff" stroke-miterlimit="10"/><path d="m276.911 84.6473c5.088 0 9.212-4.3635 9.212-9.746 0-5.3826-4.124-9.746-9.212-9.746-5.087 0-9.212 4.3634-9.212 9.746 0 5.3825 4.125 9.746 9.212 9.746z" fill="#9bcdfb"/><path d="m276.392 74.2042c1.42-1.0059 1.822-3.007.897-4.4697s-2.827-1.8331-4.248-.8272c-1.421 1.0058-1.822 3.007-.897 4.4697s2.827 1.833 4.248.8272z" fill="#fff"/><path d="m225.907 159.599c5.088 0 9.212-4.363 9.212-9.746 0-5.382-4.124-9.746-9.212-9.746-5.087 0-9.212 4.364-9.212 9.746 0 5.383 4.125 9.746 9.212 9.746z" fill="#fa5d97" stroke-miterlimit="10"/><path d="m225.423 149.575c1.421-1.006 1.822-3.007.897-4.469-.925-1.463-2.827-1.833-4.248-.828-1.42 1.006-1.822 3.007-.897 4.47s2.827 1.833 4.248.827z" fill="#fff"/><path d="m144.306 239.092c5.087 0 9.212-4.364 9.212-9.746 0-5.383-4.125-9.746-9.212-9.746-5.088 0-9.212 4.363-9.212 9.746 0 5.382 4.124 9.746 9.212 9.746z" fill="#fa5d97" stroke-miterlimit="10"/><path d="m143.821 229.067c1.421-1.005 1.823-3.007.898-4.469-.926-1.463-2.827-1.833-4.248-.827-1.421 1.005-1.823 3.007-.897 4.469.925 1.463 2.827 1.833 4.247.827z" fill="#fff"/><path d="m425.384 107.361c5.087 0 9.212-4.363 9.212-9.7459 0-5.3825-4.125-9.746-9.212-9.746-5.088 0-9.212 4.3635-9.212 9.746 0 5.3829 4.124 9.7459 9.212 9.7459z" fill="#fce530" stroke-miterlimit="10"/><path d="m424.688 97.3194c1.421-1.0058 1.823-3.007.898-4.4697s-2.827-1.833-4.248-.8272c-1.421 1.0059-1.822 3.007-.897 4.4697s2.827 1.8331 4.247.8272z" fill="#fff"/><path d="m506.989 133.479c5.088 0 9.212-4.363 9.212-9.746 0-5.382-4.124-9.746-9.212-9.746-5.087 0-9.212 4.364-9.212 9.746 0 5.383 4.125 9.746 9.212 9.746z" fill="#fa5d97" stroke-miterlimit="10"/><path d="m506.415 123.261c1.421-1.006 1.822-3.007.897-4.47s-2.827-1.833-4.247-.827c-1.421 1.006-1.823 3.007-.898 4.47.926 1.462 2.827 1.833 4.248.827z" fill="#fff"/><path d="m115.97 245.903c5.087 0 9.212-4.363 9.212-9.746 0-5.382-4.125-9.746-9.212-9.746-5.088 0-9.212 4.364-9.212 9.746 0 5.383 4.124 9.746 9.212 9.746z" fill="#98caf8" stroke-miterlimit="10"/><path d="m115.478 236.185c1.42-1.006 1.822-3.007.897-4.47s-2.827-1.833-4.248-.827-1.822 3.007-.897 4.469c.925 1.463 2.827 1.833 4.248.828z" fill="#fff"/><path d="m495.657 274.294c5.088 0 9.212-4.364 9.212-9.746 0-5.383-4.124-9.746-9.212-9.746-5.087 0-9.212 4.363-9.212 9.746 0 5.382 4.125 9.746 9.212 9.746z" fill="#fa5d97"/><path d="m494.692 264.544c1.421-1.006 1.823-3.007.898-4.47-.926-1.462-2.827-1.833-4.248-.827s-1.822 3.007-.897 4.47 2.827 1.833 4.247.827z" fill="#fff"/><path d="m239.509 145.972c5.087 0 9.212-4.363 9.212-9.746 0-5.382-4.125-9.746-9.212-9.746-5.088 0-9.212 4.364-9.212 9.746 0 5.383 4.124 9.746 9.212 9.746z" fill="#2ae31e"/><path d="m238.423 136.42c1.421-1.006 1.822-3.007.897-4.47-.925-1.462-2.827-1.833-4.248-.827-1.42 1.006-1.822 3.007-.897 4.47.925 1.462 2.827 1.833 4.248.827z" fill="#fff"/><path d="m205.46 408.468-8.728-6.461-8.728 6.461 6.107-9.234-6.107-9.234 8.728 6.461 8.728-6.461-6.107 9.234z" fill="#fff" stroke-linecap="round" stroke-linejoin="round"/><path d="m13.7065 190.878-.8076-4.692c-.6022-4.055-3.62732-7.255-7.46006-7.893l-4.43493-.854 4.43493-.854c3.83274-.638 6.85076-3.838 7.46006-7.893l.8076-4.692.8076 4.692c.6022 4.055 3.6273 7.255 7.4601 7.893l4.4349.854-4.4349.854c-3.8328.638-6.8508 3.838-7.4601 7.893z" fill="#fff" stroke-linejoin="round"/><path d="m584.286 266.11-7.141-5.291-7.141 5.291 5.002-7.555-5.002-7.555 7.141 5.292 7.141-5.292-5.001 7.555z" fill="#fff" stroke-miterlimit="10"/><path d="m482.46 20.4683-8.728-6.4609-8.728 6.4609 6.107-9.2342-6.107-9.2341 8.728 6.46091 8.728-6.46091-6.107 9.2341z" fill="#fff" stroke-linecap="round" stroke-linejoin="round"/></g></svg>