<svg fill="none" height="424" viewBox="0 0 611 424" width="611" xmlns="http://www.w3.org/2000/svg"><path d="m292.234 423.001c130.602 0 236.476-1.163 236.476-2.596s-105.874-2.595-236.476-2.595-236.4762 1.162-236.4762 2.595 105.8742 2.596 236.4762 2.596z" fill="#01090f" stroke="#01090f" stroke-miterlimit="10" stroke-width="1.25"/><path d="m253.545 37.2454-.543-3.0111c-.407-2.6005-2.441-4.6535-5.017-5.0641l-2.983-.5475 2.983-.5475c2.576-.4106 4.61-2.4636 5.017-5.0641l.543-3.0111.542 3.0111c.407 2.6005 2.441 4.6535 5.017 5.0641l2.983.5475-2.983.5475c-2.576.4106-4.61 2.4636-5.017 5.0641z" fill="#fff" stroke="#01090f" stroke-linejoin="round" stroke-miterlimit="10" stroke-width="1.25"/><path d="m520.761 260.298-1.001-5.554c-.75-4.797-4.502-8.585-9.255-9.342l-5.503-1.01 5.503-1.01c4.753-.757 8.505-4.545 9.255-9.342l1.001-5.555 1 5.555c.751 4.797 4.503 8.585 9.256 9.342l5.503 1.01-5.503 1.01c-4.753.757-8.505 4.545-9.256 9.342z" fill="#31dd9c" stroke="#01090f" stroke-linejoin="round" stroke-miterlimit="10" stroke-width="1.25"/><path d="m321.357 281.519c62.052 0 112.354-50.774 112.354-113.407s-50.302-113.4069-112.354-113.4069-112.355 50.7739-112.355 113.4069 50.303 113.407 112.355 113.407z" fill="#31dd9c" stroke="#01090f" stroke-miterlimit="10" stroke-width="1.25"/><path d="m300.396 278.876h-.002c-16.465-3.053-31.355-9.65-44.181-18.858 50.985 20.544 102.274-3.757 128.961-45.188 27.123-42.107 28.893-101.964-20.681-150.6486 47.362 20.1962 76.067 71.4796 66.278 124.4996-11.339 61.214-69.743 101.637-130.375 90.195z" fill="#01090f" opacity=".19" stroke="#01090f" stroke-width="1.25"/><path d="m435.117 146.137c.028-.348.333-.609.682-.581.211.016.422.033.632.05.349.028.609.333.581.682-.027.348-.333.609-.681.581-.211-.017-.421-.033-.632-.05-.349-.028-.609-.333-.582-.682zm-228.142.331c.029.349-.23.655-.579.684-.215.018-.43.036-.644.054-.349.03-.655-.229-.684-.578-.03-.348.229-.655.578-.684.214-.018.429-.036.645-.054.348-.029.655.23.684.578zm233.794.128c.029-.348.336-.607.685-.577.211.017.422.035.633.053.349.03.607.337.578.686-.03.348-.337.607-.686.577-.21-.018-.421-.036-.633-.054-.348-.03-.607-.336-.577-.685zm-239.547.366c.031.349-.226.657-.575.688-.214.019-.428.038-.642.058-.348.031-.656-.226-.688-.574-.031-.349.226-.657.574-.688.214-.02.429-.039.643-.058.349-.031.656.226.688.574zm245.199.127c.031-.348.34-.605.688-.573.211.019.422.038.632.058.349.032.605.34.573.689-.032.348-.34.605-.689.573-.21-.02-.42-.039-.631-.058-.349-.032-.605-.34-.573-.689zm-250.948.404c.034.348-.222.657-.57.691-.213.021-.426.041-.639.062-.348.034-.658-.221-.692-.57-.034-.348.221-.658.569-.691.214-.021.427-.042.641-.062.348-.034.657.221.691.57zm256.596.126c.034-.348.344-.603.692-.569.211.021.421.042.631.062.348.035.602.345.568.693s-.345.603-.693.568c-.209-.02-.419-.041-.629-.062-.348-.034-.603-.344-.569-.692zm-262.338.443c.036.348-.217.66-.565.696-.212.022-.424.044-.635.066-.348.036-.66-.216-.696-.564-.037-.348.216-.66.564-.696.212-.023.424-.045.636-.067.348-.036.66.217.696.565zm267.982.126c.037-.348.348-.6.696-.563.21.022.419.044.628.066.348.037.6.349.563.697s-.349.6-.697.563c-.209-.022-.417-.044-.627-.066-.348-.037-.6-.349-.563-.697zm-273.714.486c.039.348-.212.661-.559.7-.211.024-.421.047-.631.071-.348.039-.661-.211-.701-.559-.039-.347.211-.661.559-.7.21-.024.421-.047.632-.071.348-.039.661.211.7.559zm279.35.126c.039-.348.353-.598.701-.558.208.024.416.047.623.071.348.04.597.354.557.702-.039.347-.354.597-.701.557-.207-.024-.415-.047-.622-.071-.348-.04-.598-.353-.558-.701zm-285.069.533c.042.347-.206.663-.553.705-.215.026-.43.052-.644.078-.347.042-.663-.205-.705-.553-.043-.347.205-.663.552-.705.214-.026.429-.052.645-.078.347-.042.663.205.705.553zm290.693.125c.042-.347.358-.594.705-.551.207.025.413.05.619.076.347.043.594.359.551.706-.043.348-.36.594-.707.551-.205-.025-.411-.05-.617-.076-.347-.042-.594-.358-.551-.706zm-296.431.589c.045.347-.199.665-.546.711-.213.028-.425.055-.637.083-.347.046-.665-.198-.711-.545s.199-.665.545-.711c.212-.028.425-.056.638-.084.347-.045.665.199.711.546zm302.051.123c.046-.347.365-.591.712-.545.211.028.421.056.631.085.347.046.591.365.544.712-.046.346-.365.59-.712.543-.21-.028-.42-.056-.63-.084-.347-.046-.591-.364-.545-.711zm-307.766.65c.049.346-.192.667-.538.716-.21.03-.419.06-.627.09-.346.05-.668-.191-.717-.537-.05-.346.19-.667.537-.717.209-.03.418-.06.628-.09.347-.049.668.191.717.538zm313.393.123c.05-.347.372-.587.718-.537.116.017.232.034.347.051l.277.04c.346.05.586.372.535.718-.05.347-.372.586-.718.536-.207-.031-.414-.061-.622-.091-.347-.05-.587-.371-.537-.717zm-319.096.717c.054.346-.183.67-.528.724-.214.033-.426.066-.638.1-.346.054-.67-.182-.725-.527-.054-.346.182-.67.528-.725.212-.033.426-.067.64-.1.345-.054.669.183.723.528zm324.694.121c.055-.346.379-.582.725-.527.205.032.409.065.613.098.346.055.581.38.526.725-.055.346-.38.581-.726.526-.203-.033-.407-.065-.611-.098-.346-.054-.581-.379-.527-.724zm-330.393.802c.059.344-.172.672-.517.731-.208.036-.416.072-.623.108-.344.06-.672-.171-.732-.516-.06-.344.171-.672.515-.732.208-.037.416-.073.625-.108.345-.06.673.172.732.517zm335.994.118c.06-.345.388-.575.733-.515.209.036.417.073.624.109.344.061.574.39.514.734-.061.345-.39.575-.734.514-.207-.036-.414-.073-.622-.109-.344-.06-.575-.388-.515-.733zm-341.673.9c.066.343-.16.675-.503.741-.211.041-.421.081-.63.122-.343.066-.676-.158-.742-.501-.067-.344.157-.676.501-.743.21-.041.42-.082.632-.122.344-.066.676.159.742.503zm347.239.113c.067-.344.4-.568.743-.501.208.04.414.081.62.121.343.068.567.401.499.744-.067.344-.401.567-.744.499-.205-.04-.41-.08-.617-.12-.343-.067-.567-.4-.501-.743zm-352.885 1.022c.075.342-.142.679-.484.753-.213.047-.424.093-.634.139-.341.075-.679-.14-.755-.482-.075-.342.141-.68.482-.755.212-.047.424-.093.638-.14.342-.074.679.143.753.485zm358.452.113c.075-.341.414-.557.755-.482.205.045.408.09.61.135.341.077.556.415.48.757-.077.341-.415.556-.757.48-.2-.045-.402-.09-.605-.135-.342-.075-.558-.413-.483-.755zm-364.069 1.178c.085.339-.121.683-.46.769-.212.053-.422.107-.631.16-.338.087-.684-.117-.771-.456s.117-.684.456-.771c.211-.054.423-.108.637-.162.339-.085.683.12.769.46zm369.592.109c.086-.339.431-.544.77-.457.205.052.407.105.609.157.338.088.541.434.453.773-.088.338-.434.541-.773.453-.199-.052-.4-.104-.602-.155-.339-.087-.544-.432-.457-.771zm-375.171 1.399c.101.335-.087.689-.422.791-.207.063-.411.126-.613.189-.334.104-.69-.082-.794-.416s.082-.689.416-.794c.205-.064.413-.127.622-.191.335-.102.689.087.791.421zm380.636.099c.104-.335.458-.522.793-.419.2.062.398.123.594.185.334.106.519.462.413.795-.105.334-.461.519-.795.414-.193-.061-.388-.122-.586-.183-.334-.103-.522-.458-.419-.792zm-386.101 1.732c.129.326-.03.694-.355.823-.199.079-.394.158-.587.237-.323.133-.693-.021-.827-.344-.133-.324.021-.694.345-.828.197-.081.398-.162.602-.243.325-.129.693.03.822.355zm391.46.084c.13-.325.499-.482.824-.352.203.082.404.164.601.246.323.135.476.506.341.829s-.505.475-.828.341c-.192-.08-.388-.16-.586-.24-.325-.13-.483-.499-.352-.824zm-396.688 2.346c.188.295.1.687-.195.874-.18.115-.353.229-.519.344-.287.199-.682.126-.881-.161-.199-.288-.127-.683.161-.882.18-.124.366-.248.56-.37.295-.188.687-.101.874.195zm401.824.066c.189-.295.581-.38.875-.191.186.119.365.239.537.359.287.2.358.595.157.882-.2.287-.595.357-.882.157-.158-.11-.324-.221-.496-.332-.295-.189-.38-.581-.191-.875zm-405.856 3.94c.348.037.601.348.564.696-.009.084-.013.168-.013.253 0 .081.004.163.012.244.036.349-.217.66-.565.695-.349.036-.66-.218-.695-.566-.013-.124-.019-.249-.019-.373 0-.129.007-.257.02-.385.036-.348.348-.6.696-.564zm409.803.006c.348-.036.659.216.696.564.013.126.019.252.019.379 0 .124-.006.249-.019.373-.035.348-.346.602-.694.566-.348-.035-.602-.346-.566-.694.008-.082.012-.164.012-.245 0-.083-.004-.165-.013-.248-.036-.348.217-.659.565-.695zm-407.458 4.768c.202-.287.597-.356.883-.155.16.113.327.225.501.338.294.19.379.582.189.876s-.582.378-.876.188c-.187-.121-.368-.242-.542-.365-.287-.201-.356-.596-.155-.882zm405.112 0c.201.286.132.681-.155.882-.174.123-.355.244-.542.365-.294.19-.686.106-.876-.188s-.105-.686.189-.876c.174-.113.341-.225.501-.337.286-.202.682-.133.883.154zm-400.181 2.749c.135-.323.506-.475.829-.34.192.08.388.16.587.241.325.13.482.499.351.824-.13.325-.499.482-.824.351-.204-.082-.405-.165-.603-.247-.323-.135-.475-.507-.34-.829zm395.25 0c.135.322-.017.694-.34.829-.197.082-.398.165-.603.247-.324.131-.694-.026-.824-.351-.131-.325.026-.694.351-.824.199-.081.395-.161.587-.241.323-.135.694.017.829.34zm-389.933 1.979c.105-.333.461-.518.795-.412.193.061.388.122.584.182.335.104.522.458.419.793-.103.334-.458.521-.792.418-.2-.062-.398-.123-.593-.185-.334-.106-.519-.462-.413-.796zm384.617 0c.105.334-.08.69-.413.796-.196.062-.394.123-.593.185-.335.103-.689-.084-.793-.418-.103-.335.084-.689.419-.793.197-.06.391-.121.584-.182.334-.106.69.079.796.412zm-5.425 1.587c.088.338-.115.684-.453.773-.207.054-.415.107-.625.161-.339.087-.684-.118-.771-.457-.086-.339.118-.684.457-.771.208-.053.415-.106.619-.159.339-.089.685.114.773.453zm-373.768 0c.088-.339.434-.542.773-.453.205.053.411.106.619.159.339.087.543.432.457.771-.087.339-.432.544-.771.457-.21-.054-.418-.107-.625-.161-.338-.089-.541-.435-.453-.773zm368.244 1.354c.076.342-.139.68-.48.757-.209.046-.419.093-.63.14-.342.075-.68-.141-.755-.483s.141-.68.482-.755c.21-.046.419-.092.626-.139.341-.076.68.139.757.48zm-362.719 0c.076-.341.415-.556.756-.48.208.047.416.093.626.139.342.075.558.413.482.755-.075.342-.413.558-.755.483-.211-.047-.421-.094-.629-.14-.342-.077-.557-.415-.48-.757zm357.167 1.181c.068.343-.156.676-.499.744-.199.039-.399.078-.601.118-.343.066-.676-.158-.742-.501-.067-.344.157-.676.5-.743.109-.021.217-.042.325-.064.091-.017.182-.035.273-.053.343-.068.677.156.744.499zm-351.616 0c.068-.343.401-.567.744-.499.198.039.398.078.598.117.343.067.567.399.501.743-.067.343-.4.567-.743.501-.201-.04-.402-.079-.601-.118-.343-.068-.567-.401-.499-.744zm346.06 1.048c.061.345-.169.673-.514.734-.201.036-.403.071-.605.106-.345.06-.673-.17-.733-.515-.061-.345.17-.673.515-.733.202-.035.403-.07.603-.106.345-.061.673.169.734.514zm-340.504 0c.061-.345.39-.575.734-.514.201.036.402.071.603.106.345.06.576.388.516.733-.061.345-.389.575-.733.515-.203-.035-.405-.07-.606-.106-.345-.061-.575-.389-.514-.734zm334.919.948c.055.346-.18.67-.526.726-.202.032-.404.064-.607.096-.346.055-.67-.181-.725-.527-.055-.345.181-.67.527-.724.202-.032.404-.064.605-.097.346-.055.671.181.726.526zm-329.334 0c.056-.345.38-.581.726-.526.201.033.403.065.605.097.346.054.582.379.527.724-.055.346-.379.582-.725.527-.203-.032-.405-.064-.607-.096-.345-.056-.581-.38-.526-.726zm323.741.863c.05.346-.189.668-.536.718-.206.03-.414.06-.622.091-.346.05-.667-.191-.717-.537s.19-.667.536-.718c.139-.02.277-.04.416-.06l.204-.03c.347-.05.668.19.719.536zm-318.147 0c.05-.346.372-.586.718-.536.206.03.413.061.62.09.347.051.587.372.537.718s-.372.587-.718.537c-.208-.031-.415-.061-.622-.091-.346-.05-.586-.372-.535-.718zm312.558.789c.047.347-.197.666-.543.712-.212.029-.424.057-.637.085-.347.046-.665-.198-.711-.544-.046-.347.197-.666.544-.712.212-.028.424-.056.635-.085.347-.046.666.197.712.544zm-306.97 0c.046-.347.365-.59.712-.544.211.029.423.057.635.085.347.046.591.365.545.712-.046.346-.365.59-.712.544-.213-.028-.425-.056-.636-.085-.347-.046-.591-.365-.544-.712zm301.369.728c.043.348-.203.664-.551.707-.147.018-.294.036-.442.054l-.189.024c-.347.042-.663-.205-.706-.552s.204-.663.552-.706c.21-.026.42-.052.63-.078.347-.043.663.204.706.551zm-295.768 0c.043-.347.359-.594.707-.551.209.026.419.052.629.078.348.043.595.359.552.706-.042.347-.359.594-.706.552-.211-.026-.421-.052-.631-.078-.347-.043-.594-.359-.551-.707zm290.151.675c.04.348-.21.662-.557.702-.209.024-.417.048-.626.071-.348.04-.662-.21-.701-.558-.04-.347.21-.661.558-.701.208-.023.416-.047.624-.071.348-.04.662.21.702.557zm-284.534 0c.04-.347.354-.597.702-.557.208.024.416.048.625.071.347.04.597.354.558.701-.04.348-.354.598-.701.558-.209-.023-.418-.047-.626-.071-.348-.04-.597-.354-.558-.702zm278.897.628c.037.348-.215.66-.563.697-.207.022-.413.044-.621.066-.348.036-.659-.216-.696-.564s.215-.66.563-.696c.207-.022.414-.044.62-.066.348-.037.66.215.697.563zm-273.26 0c.037-.348.349-.6.697-.563.113.012.226.024.34.036.093.01.186.02.28.03.348.036.6.348.563.696-.036.348-.348.6-.696.564-.207-.022-.414-.044-.621-.066-.348-.037-.6-.349-.563-.697zm267.601.585c.035.348-.219.658-.568.693-.205.02-.41.04-.615.061-.349.034-.658-.221-.693-.569-.034-.348.221-.658.569-.693l.615-.06c.348-.034.658.22.692.568zm-261.942 0c.034-.348.344-.602.693-.568.204.02.409.04.614.06.348.035.603.345.569.693s-.344.603-.693.569c-.205-.021-.41-.041-.615-.061-.348-.035-.603-.345-.568-.693zm5.607.539c.032-.348.34-.605.688-.573.211.02.422.039.633.058.348.032.605.341.573.689s-.34.605-.688.573c-.212-.019-.423-.038-.634-.058-.348-.032-.605-.34-.572-.689zm250.729 0c.032.349-.225.657-.573.689-.211.02-.422.039-.633.058-.349.032-.657-.225-.689-.573s.225-.657.573-.689c.212-.019.422-.038.633-.058.348-.032.657.225.689.573zm-245.097.505c.029-.349.336-.607.685-.578.208.018.417.036.626.054.348.03.607.336.577.685-.029.348-.336.607-.685.577-.209-.017-.418-.035-.626-.053-.349-.03-.607-.337-.577-.685zm239.465 0c.029.348-.229.655-.577.685-.209.018-.418.036-.627.053-.349.03-.656-.229-.685-.577-.03-.349.229-.655.577-.685.209-.018.418-.036.626-.054.349-.029.656.229.686.578zm-5.66.471c.028.349-.232.654-.581.682l-.621.05c-.349.027-.654-.233-.681-.582-.028-.349.232-.654.581-.682.207-.016.414-.032.62-.049.349-.028.654.233.682.581zm-228.146 0c.028-.348.333-.609.682-.581.206.017.413.033.62.049.349.028.609.333.582.682-.028.349-.333.609-.682.582-.098-.008-.197-.016-.295-.024-.109-.008-.217-.017-.326-.026-.349-.028-.609-.333-.581-.682zm5.64.438c.026-.349.33-.611.679-.585.211.016.422.031.634.047.349.026.611.329.585.678-.025.349-.329.611-.678.586-.212-.016-.423-.032-.635-.047-.349-.026-.611-.33-.585-.679zm216.866 0c.026.349-.236.653-.585.679-.211.015-.423.031-.635.047-.349.025-.653-.237-.678-.586-.026-.349.236-.652.585-.678.212-.016.423-.031.634-.047.349-.026.653.236.679.585zm-211.232.407c.024-.349.327-.613.676-.589l.627.043c.349.024.613.327.589.676s-.326.612-.675.588l-.628-.043c-.35-.024-.613-.326-.589-.675zm205.598 0c.024.349-.239.651-.588.675l-.629.043c-.349.024-.651-.239-.675-.588s.24-.652.589-.676l.627-.043c.35-.024.652.24.676.589zm-199.932.38c.022-.35.323-.615.672-.592l.622.039c.349.023.614.324.592.673s-.323.614-.672.592l-.623-.04c-.349-.022-.614-.323-.591-.672zm194.267 0c.022.349-.243.65-.592.672l-.622.04c-.35.022-.651-.243-.673-.592s.243-.65.592-.673l.622-.039c.349-.023.65.242.673.592zm-188.624.351c.02-.35.32-.616.67-.595l.633.037c.349.021.615.32.595.67-.021.349-.32.615-.67.595l-.633-.037c-.35-.021-.616-.321-.595-.67zm182.98 0c.021.349-.245.649-.594.67l-.634.037c-.349.02-.649-.246-.67-.595-.02-.35.246-.649.596-.67l.633-.037c.349-.021.649.245.669.595zm-177.336.324c.019-.349.318-.617.668-.597l.626.034c.35.019.618.317.599.667-.019.349-.318.617-.667.598l-.628-.034c-.349-.019-.617-.318-.598-.668zm171.692 0c.019.35-.249.649-.598.668l-.627.034c-.35.019-.648-.249-.667-.598-.019-.35.249-.648.598-.667l.627-.034c.349-.02.648.248.667.597zm-166.014.302c.018-.349.315-.618.665-.601l.621.031c.349.018.619.315.601.665-.017.349-.315.618-.664.601l-.622-.031c-.35-.018-.619-.315-.601-.665zm160.336 0c.018.35-.251.647-.601.665l-.622.031c-.349.017-.646-.252-.664-.601-.017-.35.252-.647.601-.665l.621-.031c.35-.017.648.252.665.601zm-5.631.275c.016.35-.254.646-.604.662l-.631.029c-.349.016-.646-.254-.662-.603-.016-.35.255-.646.604-.662l.631-.029c.349-.017.646.254.662.603zm-149.074 0c.017-.349.313-.62.663-.603l.63.029c.35.016.62.312.604.662-.016.349-.312.619-.662.603l-.631-.029c-.35-.016-.62-.312-.604-.662zm5.662.253c.015-.349.31-.621.66-.606l.625.026c.349.015.621.31.606.66-.014.349-.31.621-.659.606l-.626-.026c-.349-.015-.621-.31-.606-.66zm137.75 0c.015.35-.257.645-.606.66l-.626.026c-.349.015-.645-.257-.659-.606-.015-.35.257-.645.606-.66l.625-.026c.35-.015.645.257.66.606zm-132.09.231c.014-.35.308-.622.658-.609l.633.024c.349.014.622.308.609.657-.013.35-.308.623-.657.609l-.634-.024c-.35-.013-.622-.307-.609-.657zm126.43 0c.013.35-.259.644-.609.657l-.634.024c-.349.014-.643-.259-.657-.609-.013-.349.26-.643.609-.657l.634-.024c.349-.013.643.259.657.609zm-120.782.208c.012-.35.305-.623.655-.611l.628.021c.349.012.623.305.611.655s-.305.624-.654.612l-.629-.022c-.349-.012-.623-.305-.611-.655zm115.134 0c.012.35-.261.643-.611.655l-.628.022c-.35.012-.643-.262-.655-.612s.262-.643.611-.655l.628-.021c.35-.012.643.261.655.611zm-5.681.188c.011.35-.264.642-.613.653l-.624.019c-.35.011-.642-.264-.653-.614s.264-.642.614-.653l.624-.019c.349-.01.642.264.652.614zm-103.772 0c.011-.35.303-.624.653-.614l.623.019c.35.011.625.303.614.653-.01.35-.303.625-.652.614l-.624-.019c-.35-.011-.625-.303-.614-.653zm98.136.166c.01.35-.266.641-.616.65l-.63.017c-.35.01-.641-.266-.65-.616-.01-.35.266-.641.616-.65l.63-.017c.349-.01.641.266.65.616zm-92.5 0c.01-.35.301-.626.651-.616l.629.017c.35.009.626.3.617.65-.01.35-.301.626-.651.616l-.63-.017c-.349-.009-.625-.3-.616-.65zm86.829.146c.008.35-.269.64-.618.649l-.626.014c-.35.008-.64-.268-.648-.618s.269-.64.619-.648l.625-.015c.349-.008.64.269.648.618zm-81.158 0c.009-.349.299-.626.649-.618l.625.015c.349.008.626.298.618.648s-.298.626-.648.618l-.625-.014c-.35-.009-.627-.299-.619-.649zm5.652.126c.007-.35.296-.627.646-.62l.631.012c.35.007.628.296.621.646s-.296.628-.646.621l-.632-.013c-.349-.007-.627-.296-.62-.646zm69.855 0c.007.35-.271.639-.621.646l-.632.013c-.349.007-.639-.271-.646-.621-.006-.35.272-.639.621-.646l.631-.012c.35-.007.639.27.647.62zm-64.193.107c.006-.35.294-.629.644-.623l.627.01c.35.006.629.294.623.644s-.294.629-.644.623l-.627-.01c-.35-.006-.629-.294-.623-.644zm58.53 0c.006.35-.273.638-.623.644l-.627.01c-.35.006-.638-.273-.644-.623-.005-.35.273-.638.623-.644l.627-.01c.35-.006.638.273.644.623zm-52.867.087c.005-.35.292-.63.642-.625l.632.008c.35.005.63.292.625.642s-.292.63-.642.625l-.632-.008c-.35-.005-.63-.292-.625-.642zm47.204 0c.005.35-.275.637-.625.642l-.632.008c-.35.005-.637-.275-.642-.625-.004-.35.276-.637.625-.642l.632-.008c.35-.005.638.275.642.625zm-41.548.068c.003-.35.29-.63.64-.627l.627.006c.35.004.631.29.628.64-.004.35-.29.631-.64.627l-.628-.006c-.35-.003-.631-.29-.627-.64zm35.892 0c.004.35-.277.637-.627.64l-.628.006c-.35.004-.636-.277-.64-.627-.003-.35.278-.636.628-.64l.627-.006c.35-.003.637.277.64.627zm-30.222.05c.003-.35.288-.632.638-.63l.632.005c.35.002.632.287.63.637s-.288.632-.638.63l-.633-.004c-.349-.003-.631-.288-.629-.638zm24.552 0c.002.35-.279.635-.629.638l-.633.004c-.35.002-.635-.28-.638-.63-.002-.35.28-.635.63-.637l.632-.005c.35-.002.636.28.638.63zm-18.901.03c.001-.349.286-.632.636-.631l.628.002c.35.001.633.286.632.636s-.286.632-.635.631l-.629-.002c-.35-.001-.633-.286-.632-.636zm13.25 0c.001.35-.281.635-.631.636l-.629.002c-.35.001-.635-.281-.636-.631s.282-.635.632-.636l.628-.002c.35-.001.635.282.636.631zm-7.575.013c0-.35.284-.634.634-.634h.632c.35 0 .634.284.634.634s-.284.633-.633.633h-.633c-.35 0-.634-.283-.634-.633z" style="fill-rule:evenodd;clip-rule:evenodd;fill:#fff;stroke:#fff;stroke-width:1.25;stroke-miterlimit:10;stroke-linecap:round"/><path d="m226.906 53.525c.011-.3497.303-.6244.653-.6136.223.007.447.016.671.0271.349.0173.618.3147.601.6642-.017.3494-.315.6187-.664.6013-.216-.0107-.432-.0194-.647-.0261-.35-.0108-.625-.3032-.614-.6529zm-3.987.1963c.049.3466-.193.6666-.54.7147-.212.0295-.423.0614-.634.0958-.346.0564-.671-.1778-.728-.5231-.056-.3453.178-.671.523-.7274.221-.0361.443-.0695.665-.1003.346-.0482.666.1938.714.5403zm9.876.3489c.062-.3444.392-.5732.736-.5112.218.0394.437.0803.655.1227.343.0669.567.3995.501.743-.067.3434-.4.5676-.743.5008-.213-.0413-.425-.0812-.638-.1195-.344-.062-.573-.3915-.511-.7358zm-15.629.9778c.127.3259-.034.6933-.36.8205-.198.0774-.395.1576-.592.2408-.322.1363-.694-.0144-.83-.3366s.014-.694.336-.8304c.208-.0878.416-.1725.626-.2541.326-.1273.693.0338.82.3598zm21.397.341c.1-.3353.453-.5258.788-.4256.212.0635.424.1281.636.1938.334.1038.521.4588.417.793-.104.3341-.459.5208-.793.417-.207-.0644-.415-.1276-.623-.1898-.335-.1002-.526-.4532-.425-.7884zm5.606 1.8993c.129-.3251.498-.4839.823-.3547.205.0818.41.1643.614.2474.324.1321.48.5018.348.8258s-.502.4797-.826.3476c-.201-.0818-.402-.1629-.604-.2433-.325-.1293-.484-.4976-.355-.8228zm-32.259.4494c.206.2829.144.6792-.139.8851-.075.0543-.149.1093-.223.1648-.062.0623-.123.1249-.184.1878-.243.2515-.644.2582-.896.015-.251-.2433-.258-.6443-.015-.8959.075-.0776.151-.1549.227-.2318l.033-.033.037-.028c.092-.0686.183-.1363.275-.2033.283-.206.68-.1436.885.1393zm37.689 1.8945c.152-.3151.531-.4473.846-.2951.202.0972.402.1947.601.2925.314.1544.443.5341.289.8481-.155.314-.534.4433-.848.289-.197-.0965-.394-.1927-.593-.2885-.315-.1522-.447-.5309-.295-.846zm-41.472 2.3011c.294.1904.378.5827.187.8763-.111.1716-.22.3446-.328.519-.183.298-.573.391-.871.2076-.298-.1833-.391-.5735-.208-.8715.113-.183.227-.3645.344-.5446.191-.2936.583-.3772.876-.1868zm46.735.4013c.171-.3052.558-.414.863-.2429.197.1103.392.2203.584.3299.304.173.411.5598.237.8639-.173.3041-.559.4104-.863.2374-.191-.1082-.383-.2169-.578-.3259-.305-.171-.414-.5571-.243-.8624zm5.11 3.015c.188-.2951.579-.3819.874-.1938.188.1197.372.2374.551.3531.293.1898.378.582.188.8759s-.582.3782-.876.1883c-.177-.1142-.358-.2305-.544-.3488-.295-.188-.381-.5796-.193-.8747zm-54.52 1.5526c.326.1268.487.4939.36.82-.073.1903-.146.3818-.216.5746-.12.3287-.484.498-.812.3781-.329-.1199-.498-.4836-.378-.8123.073-.2011.148-.4009.226-.5995.126-.3261.493-.4877.82-.3609zm-1.674 5.408c.343.0682.566.4017.498.7449-.04.1993-.078.3996-.114.6009-.063.3443-.392.5728-.737.5105-.344-.0624-.572-.392-.51-.7363.038-.2084.077-.4157.118-.6221.068-.3432.402-.5661.745-.4979zm-.783 5.5821c.35.0196.617.3188.597.6681-.011.2064-.022.4136-.031.6217-.014.3496-.31.6209-.659.606-.35-.0149-.621-.3103-.606-.6599.009-.2138.019-.4269.031-.639.02-.3494.319-.6166.668-.5969zm-.061 5.673c.349-.0193.648.2482.668.5976.011.2044.023.4095.037.6154.023.3491-.241.6508-.59.674-.349.0231-.651-.2412-.674-.5904-.014-.2103-.027-.42-.038-.629-.02-.3493.248-.6482.597-.6676zm.514 5.6163c.346-.0502.668.1899.718.5362.029.2037.06.408.091.6129.054.3458-.184.6693-.53.7225-.345.0531-.669-.1841-.722-.5299-.032-.2085-.063-.4165-.093-.6239-.05-.3463.19-.6676.536-.7178zm.973 5.5694c.342-.0749.68.1414.755.4831.045.204.09.4084.137.6133.077.3413-.137.6807-.478.7581s-.681-.1364-.758-.4777c-.047-.2078-.093-.4152-.139-.6222-.075-.3418.142-.6796.483-.7546zm1.347 5.503c.337-.095.687.101.782.437.057.203.116.407.175.61.097.336-.097.688-.433.785s-.687-.096-.785-.432c-.059-.207-.118-.412-.176-.618-.095-.337.1-.687.437-.782zm1.653 5.423c.331-.112.691.066.803.397.066.197.134.393.201.591.114.33-.062.691-.393.805-.331.113-.691-.063-.805-.394-.068-.199-.136-.398-.203-.596-.112-.332.065-.691.397-.803zm1.904 5.328c.327-.126.693.036.82.362.074.192.148.383.223.575.128.326-.032.693-.358.821s-.694-.033-.821-.359c-.076-.193-.151-.387-.226-.58-.126-.326.036-.693.362-.819zm2.119 5.241c.321-.138.694.01.832.332.081.189.163.378.246.567.14.321-.007.695-.328.834-.321.14-.694-.007-.834-.328-.083-.191-.166-.382-.248-.572-.138-.322.01-.694.332-.833zm2.305 5.166c.317-.149.694-.014.843.303.088.187.177.373.265.56.15.317.016.694-.3.845-.316.15-.694.015-.844-.301-.09-.188-.179-.377-.267-.564-.149-.317-.013-.694.303-.843zm2.47 5.091c.312-.158.694-.034.852.278.093.184.187.369.281.553.16.312.036.693-.275.853-.312.159-.693.035-.853-.276-.095-.186-.189-.371-.283-.556-.158-.312-.034-.694.278-.852zm2.616 5.021c.307-.167.692-.053.858.255.099.181.197.363.297.545.167.307.054.692-.253.859-.307.168-.692.055-.86-.253-.1-.182-.199-.365-.298-.547-.166-.308-.052-.693.256-.859zm2.745 4.952c.303-.174.691-.069.865.234.103.179.206.358.309.538.175.303.071.69-.232.865s-.69.071-.865-.232c-.104-.18-.208-.36-.311-.54-.174-.304-.069-.691.234-.865zm2.857 4.876c.299-.181.689-.085.87.214.109.181.218.361.328.542.182.299.087.689-.212.871-.299.181-.689.086-.871-.213-.11-.181-.22-.363-.33-.544-.181-.3-.085-.689.215-.87zm2.963 4.812c.296-.187.687-.099.874.197.113.177.226.355.339.533.188.295.101.687-.194.875s-.686.101-.874-.194c-.114-.179-.228-.358-.341-.536-.187-.296-.099-.687.196-.875zm3.063 4.753c.292-.193.685-.113.878.179.116.175.232.35.348.525.194.292.115.685-.177.879-.291.193-.685.114-.878-.177-.117-.176-.234-.352-.35-.528-.193-.292-.113-.685.179-.878zm3.155 4.695c.288-.198.683-.125.881.163.119.172.238.345.357.517.199.288.127.682-.161.881s-.682.127-.881-.16c-.12-.173-.239-.347-.358-.52-.199-.288-.126-.682.162-.881zm3.242 4.64c.285-.203.68-.138.884.147.121.17.243.34.364.509.204.285.139.68-.145.884s-.68.139-.884-.145c-.122-.17-.244-.341-.366-.511-.204-.285-.138-.68.147-.884zm3.323 4.586c.282-.208.678-.149.887.132.123.167.247.334.372.501.208.281.15.678-.131.887s-.677.15-.886-.131c-.125-.167-.249-.335-.374-.503-.208-.281-.149-.678.132-.886zm3.401 4.532c.278-.213.675-.16.888.118.126.165.253.33.38.495.213.277.161.675-.117.888-.277.213-.675.161-.888-.116-.127-.166-.254-.331-.381-.497-.213-.278-.16-.675.118-.888zm3.462 4.465c.274-.217.672-.171.889.104.131.164.261.329.392.494.218.274.172.673-.102.89-.275.218-.673.172-.891-.102-.131-.166-.262-.331-.393-.497-.217-.274-.17-.672.105-.889zm3.532 4.415c.271-.222.67-.181.892.09.132.163.264.325.397.487.222.271.182.67-.089.892-.271.221-.67.181-.892-.089-.049-.061-.099-.122-.149-.183-.083-.102-.166-.204-.25-.306-.221-.271-.18-.67.091-.891zm3.601 4.365c.268-.225.667-.19.892.078.135.16.269.32.404.48.226.267.191.667-.076.892-.268.226-.667.192-.893-.076-.135-.16-.27-.321-.405-.481-.225-.268-.19-.668.078-.893zm3.666 4.316c.264-.228.665-.199.893.065.137.158.273.316.41.473.229.265.201.665-.064.894-.264.229-.664.201-.894-.064-.137-.158-.274-.316-.41-.474-.229-.265-.2-.665.065-.894zm3.725 4.262c.261-.232.661-.209.894.053.139.157.279.314.419.47.233.261.21.662-.051.895s-.662.21-.895-.051c-.14-.158-.28-.315-.42-.472-.232-.262-.209-.662.053-.895zm3.778 4.205c.258-.236.659-.218.895.04.141.155.283.31.425.464.236.258.219.659-.039.895-.258.237-.659.219-.895-.039-.142-.155-.284-.31-.426-.465-.236-.258-.218-.659.04-.895zm3.838 4.156c.256-.24.656-.227.896.028.143.153.287.305.43.457.24.255.228.656-.027.896s-.655.228-.895-.027c-.144-.153-.288-.306-.432-.459-.239-.255-.227-.656.028-.895zm3.897 4.106c.252-.242.653-.235.896.017.145.15.29.3.435.45.243.252.237.653-.015.896-.251.243-.652.237-.896-.015-.145-.15-.291-.301-.436-.452-.243-.252-.236-.653.016-.896zm3.951 4.055c.249-.247.65-.245.896.004l.448.451c.246.248.245.649-.003.896-.248.246-.65.245-.896-.003l-.449-.453c-.246-.248-.245-.649.004-.895zm4.076 4.065c.245-.25.646-.255.896-.01.152.148.303.296.455.444.251.245.256.646.012.896-.245.251-.646.256-.896.012-.101-.099-.202-.197-.304-.296-.051-.05-.102-.1-.153-.15-.25-.245-.255-.646-.01-.896zm4.14 3.999c.24-.254.641-.265.895-.024.155.146.309.292.464.438.254.24.266.641.025.896-.24.254-.641.266-.895.026-.089-.084-.178-.169-.267-.253-.066-.062-.132-.125-.198-.187-.254-.241-.265-.642-.024-.896zm4.2 3.929c.236-.257.637-.275.895-.038.157.144.314.288.472.432.258.236.276.636.04.895-.236.258-.637.276-.895.04-.158-.144-.316-.289-.473-.433-.258-.237-.276-.638-.039-.896zm133.105.516c.013.021.028.045.044.07.186.296.097.687-.199.873-.297.187-.688.097-.874-.199-.049-.078-.086-.136-.111-.175l-.027-.043-.007-.01-.001-.002 1.06-.694.003.005.008.013.031.048c.019.028.043.066.073.114zm-128.845 3.341c.232-.261.633-.285.894-.053.16.142.321.284.481.425.262.232.287.632.055.894-.232.263-.632.287-.894.056-.161-.142-.322-.285-.483-.427-.261-.232-.285-.633-.053-.895zm130.451.729c.311-.161.693-.04.855.271.091.177.184.358.278.543.159.312.035.693-.277.852s-.693.034-.852-.278c-.093-.182-.184-.36-.274-.533-.161-.311-.04-.693.27-.855zm-126.119 3.064c.227-.266.627-.296.893-.069.161.138.321.276.482.413.266.227.298.627.07.893-.227.266-.627.298-.893.071-.161-.138-.323-.276-.484-.415-.265-.227-.296-.627-.068-.893zm128.495 1.846c.322-.138.694.011.832.333.081.187.161.377.242.569.135.323-.017.694-.34.829-.322.136-.694-.016-.829-.339-.079-.189-.158-.375-.237-.56-.138-.321.011-.694.332-.832zm-124.099 1.874c.223-.27.623-.308.892-.084.164.135.327.27.491.405.27.223.308.622.085.892-.222.27-.622.308-.892.085-.164-.135-.328-.271-.492-.406-.269-.224-.307-.623-.084-.892zm126.101 3.206c.332-.112.691.066.803.398.065.192.129.385.192.579.109.333-.073.69-.406.799-.332.108-.69-.073-.799-.406-.062-.19-.124-.38-.188-.568-.112-.331.067-.691.398-.802zm-121.643.434c.218-.274.617-.318.89-.1.167.133.333.265.499.398.274.217.32.616.102.89s-.617.319-.89.101c-.167-.133-.334-.266-.501-.399-.274-.218-.318-.617-.1-.89zm4.519 3.557c.214-.278.611-.329.889-.116.169.13.338.26.507.39.278.212.331.61.118.888s-.61.33-.888.117c-.17-.13-.34-.26-.51-.391-.277-.213-.329-.611-.116-.888zm118.684 1.234c.34-.079.681.132.761.473.015.067.031.134.046.201.031.132.06.265.09.397.075.342-.14.68-.482.756-.342.075-.68-.141-.755-.482-.035-.156-.07-.312-.106-.467-.009-.039-.018-.078-.027-.116-.08-.341.132-.682.473-.762zm-114.103 2.237c.208-.282.605-.341.886-.133.173.127.345.254.517.381.282.207.342.604.135.886-.208.282-.604.342-.886.134-.173-.127-.346-.254-.519-.382-.281-.208-.341-.605-.133-.886zm4.649 3.383c.202-.286.598-.353.883-.15.174.123.348.246.521.369.286.202.354.597.153.883-.202.286-.598.354-.883.152-.175-.123-.35-.247-.524-.371-.285-.202-.353-.598-.15-.883zm110.464-.262c.348-.038.661.212.7.56.023.204.044.408.064.613.033.348-.222.658-.57.691-.348.034-.658-.221-.691-.57-.019-.198-.04-.396-.062-.594-.039-.347.211-.661.559-.7zm-105.739 3.558c.196-.29.59-.365.88-.168.174.118.349.236.524.354.289.196.366.59.17.88s-.59.366-.88.17c-.094-.063-.187-.126-.281-.19-.082-.055-.164-.111-.245-.166-.29-.197-.365-.591-.168-.88zm106.047 1.885c.349.014.621.308.608.658-.008.206-.018.412-.031.618-.02.349-.32.616-.669.595-.349-.02-.616-.32-.595-.669.011-.198.021-.396.029-.594.013-.349.308-.622.658-.608zm-101.257 1.309c.191-.293.583-.377.877-.187.177.115.355.23.532.344.294.19.379.582.19.876-.19.294-.582.379-.876.189-.178-.115-.357-.23-.535-.345-.294-.191-.378-.583-.188-.877zm4.859 3.087c.184-.298.574-.391.872-.208.097.06.194.119.29.179.084.051.168.102.252.154.298.182.392.572.209.871-.182.298-.572.392-.871.209-.062-.038-.124-.076-.186-.114-.12-.073-.239-.146-.358-.22-.298-.183-.391-.573-.208-.871zm95.807 1.02c.341.079.553.419.474.76-.047.202-.096.403-.147.604-.088.338-.433.543-.772.455-.339-.087-.543-.432-.456-.771.049-.191.096-.382.141-.574.079-.341.419-.553.76-.474zm-90.878 1.95c.176-.302.564-.405.867-.229.183.107.367.214.55.32.303.175.406.563.231.865-.175.303-.562.407-.865.232-.185-.107-.369-.214-.554-.322-.302-.176-.405-.564-.229-.866zm5.002 2.845c.168-.307.553-.42.86-.252.099.055.199.11.299.164.086.047.173.095.26.142.307.167.421.552.254.859s-.552.421-.859.254c-.188-.102-.375-.204-.563-.307-.307-.168-.419-.553-.251-.86zm84.207.387c.315.153.447.532.294.846-.09.186-.183.371-.278.556-.16.311-.543.432-.853.272-.311-.161-.433-.543-.272-.854.09-.175.177-.35.263-.526.152-.315.531-.446.846-.294zm-79.131 2.321c.159-.312.541-.435.852-.276.19.097.379.194.569.29.312.158.437.539.278.851-.158.312-.539.437-.851.279-.191-.097-.382-.194-.572-.291-.312-.16-.435-.541-.276-.853zm5.154 2.558c.149-.317.527-.452.843-.302.193.091.385.181.578.271.316.148.453.526.305.843-.149.316-.526.453-.843.305-.111-.052-.222-.105-.334-.157-.082-.039-.165-.078-.247-.117-.316-.149-.452-.527-.302-.843zm71.174-.212c.271.221.312.62.091.891-.066.082-.133.163-.201.244-.07.084-.141.168-.213.252-.227.266-.627.297-.893.07s-.298-.627-.07-.893c.068-.08.136-.161.204-.242.064-.077.128-.154.191-.231.221-.271.62-.312.891-.091zm-65.94 2.602c.138-.321.511-.469.833-.331.126.055.252.109.378.163.069.029.138.059.207.088.322.138.472.51.334.832-.137.322-.509.471-.831.334-.196-.084-.393-.168-.59-.253-.322-.139-.47-.512-.331-.833zm61.981 1.555c.222.27.184.669-.086.891-.168.139-.338.275-.508.41-.275.216-.673.169-.89-.106-.216-.275-.169-.673.106-.89.163-.128.325-.259.486-.391.27-.223.669-.184.892.086zm-56.665.647c.126-.327.493-.489.82-.363.198.077.396.153.593.228.327.125.491.491.366.818-.124.327-.491.491-.818.366-.199-.076-.398-.153-.598-.23-.327-.126-.489-.493-.363-.819zm5.4 1.987c.112-.332.471-.51.803-.398.2.068.4.135.6.201.332.111.512.469.401.801-.11.332-.469.512-.801.402-.202-.067-.404-.135-.606-.203-.332-.112-.509-.472-.397-.803zm46.567.664c.166.308.05.692-.258.858-.191.103-.383.204-.576.303-.312.159-.694.036-.853-.276-.159-.311-.036-.693.276-.852.185-.095.37-.192.553-.291.308-.165.692-.05.858.258zm-41.087 1.074c.096-.337.446-.532.782-.436.203.057.404.114.606.169.337.094.535.443.441.78-.093.337-.443.535-.78.441-.204-.056-.408-.113-.612-.171-.337-.096-.532-.446-.437-.783zm35.842 1.281c.109.333-.073.691-.405.799-.207.067-.414.133-.622.197-.334.102-.689-.086-.791-.42-.103-.335.085-.689.42-.792.201-.061.401-.125.599-.189.333-.109.691.073.799.405zm-30.286.167c.077-.341.415-.557.757-.48.111.024.223.049.334.073.093.021.187.041.28.061.343.074.56.411.486.753-.073.342-.411.56-.753.486-.207-.045-.415-.09-.623-.137-.341-.076-.557-.414-.481-.756zm5.649 1.109c.053-.346.376-.583.722-.53.212.032.423.063.634.094.347.05.587.371.537.717-.05.347-.371.587-.717.537-.215-.031-.43-.063-.645-.096-.346-.053-.584-.376-.531-.722zm19.084.168c.057.345-.176.672-.521.729-.213.035-.427.069-.642.102-.346.052-.669-.186-.721-.532s.186-.669.532-.721c.209-.032.416-.065.623-.099.345-.057.672.176.729.521zm-13.363.529c.024-.349.327-.612.676-.588.135.01.27.019.404.027.075.005.151.01.226.014.35.022.616.322.595.671s-.322.615-.671.594c-.214-.013-.428-.027-.643-.042-.349-.024-.612-.327-.587-.676zm7.635.127c.014.35-.258.645-.608.659-.116.004-.232.009-.348.013-.097.003-.195.006-.292.009-.35.01-.641-.266-.651-.616-.01-.349.265-.641.615-.651.209-.006.418-.013.625-.021.35-.014.645.258.659.607z" style="fill-rule:evenodd;clip-rule:evenodd;fill:#fff;stroke:#fff;stroke-width:1.25;stroke-miterlimit:10;stroke-linecap:round"/><path d="m386.096 59.3834c-.049.0745-.099.1501-.149.227-.192.2926-.585.3742-.877.1824-.293-.1919-.374-.5846-.183-.8772.051-.0776.101-.1539.151-.2291zm-3.054 3.5811c.296.1866.385.5778.198.8738-.107.171-.217.3445-.327.5206-.187.2963-.578.3854-.874.1992s-.385-.5773-.199-.8735c.111-.1765.22-.3505.328-.5219.187-.296.578-.3847.874-.1982zm-3.045 4.8655c.298.1846.389.5752.205.8724l-.33.5306c-.184.2974-.575.3889-.872.2045s-.389-.575-.204-.8723l.329-.5311c.185-.2972.575-.3886.872-.2041zm-3.04 4.9109c.298.1837.391.574.207.8718l-.324.5249c-.184.2978-.574.3903-.872.2066s-.39-.574-.206-.8718l.324-.525c.183-.2978.574-.3903.871-.2065zm-3.053 4.9542c.298.1834.391.5736.207.8716l-.318.5173c-.183.2979-.574.3908-.872.2074s-.39-.5737-.207-.8716l.318-.5173c.184-.298.574-.3909.872-.2074zm-2.961 4.8104c.298.1834.391.5736.208.8716l-.343.5571c-.183.298-.573.3909-.871.2075s-.391-.5736-.208-.8716l.343-.5571c.183-.298.573-.3909.871-.2075zm-3.009 4.8881c.298.1835.391.5738.208.8717l-.332.5383c-.183.2979-.574.3906-.872.2071s-.39-.5738-.207-.8717l.332-.5382c.183-.2979.574-.3907.871-.2072zm-3.059 4.9636c.298.1837.39.574.207.8718l-.325.5262c-.184.2978-.574.3902-.872.2064s-.39-.5741-.206-.8719l.324-.5261c.184-.2977.574-.3902.872-.2064zm-2.971 4.8118c.297.1841.389.5745.205.8721l-.338.5471c-.184.2976-.575.3896-.872.2055-.298-.1841-.39-.5745-.206-.8721l.338-.547c.184-.2976.575-.3896.873-.2056zm-3.045 4.917c.297.185.389.575.204.873l-.33.532c-.184.297-.575.388-.872.204-.297-.185-.389-.575-.204-.872l.33-.532c.184-.298.575-.389.872-.205zm-3.017 4.858c.297.185.388.576.203.873l-.341.549c-.185.297-.576.388-.873.203s-.388-.576-.203-.873l.342-.549c.184-.297.575-.388.872-.203zm-3.042 4.883c.296.186.387.576.201.873l-.334.535c-.185.297-.576.387-.873.202s-.387-.576-.202-.873l.335-.535c.185-.297.576-.387.873-.202zm-3.045 4.869c.296.186.386.577.2.873l-.344.548c-.186.297-.577.386-.873.2s-.386-.577-.2-.873l.343-.548c.186-.296.577-.386.874-.2zm-3.054 4.863c.296.186.385.578.199.874l-.337.535c-.187.296-.578.385-.874.199-.296-.187-.385-.578-.199-.874l.338-.535c.186-.296.577-.385.873-.199zm-3.065 4.86c.296.187.384.579.197.874l-.345.546c-.187.295-.578.384-.874.196-.295-.187-.384-.578-.196-.874l.344-.545c.187-.295.579-.384.874-.197zm-3.073 4.852c.295.188.383.579.195.875l-.34.535c-.188.295-.579.382-.874.195-.296-.188-.383-.58-.195-.875l.34-.535c.187-.295.579-.382.874-.195zm-3.083 4.844c.295.188.382.58.193.875l-.346.542c-.188.294-.58.381-.875.192-.295-.188-.381-.58-.193-.875l.346-.541c.189-.295.58-.382.875-.193zm-3.098 4.843c.294.189.38.581.191.875l-.343.534c-.189.295-.581.38-.875.191-.295-.189-.38-.581-.191-.875l.342-.534c.189-.294.581-.38.876-.191zm-3.103 4.824c.294.189.379.581.189.875l-.347.539c-.19.294-.582.378-.876.188-.294-.189-.379-.581-.189-.875l.348-.539c.189-.294.581-.378.875-.188zm-3.126 4.832c.294.191.377.583.187.877l-.346.532c-.19.294-.583.377-.876.187-.294-.191-.377-.583-.186-.877l.345-.532c.191-.294.583-.377.876-.187zm-3.125 4.804c.293.192.375.584.184.877l-.35.535c-.191.293-.584.376-.877.184-.293-.191-.375-.584-.183-.877l.349-.535c.191-.293.584-.375.877-.184zm-3.154 4.817c.293.192.374.585.182.877l-.35.532c-.192.292-.585.373-.877.181-.293-.192-.374-.585-.181-.878l.349-.531c.192-.292.585-.373.877-.181zm-3.154 4.786c.292.193.372.586.179.878l-.353.532c-.193.292-.586.372-.878.178-.291-.193-.371-.586-.178-.878l.352-.532c.193-.291.586-.371.878-.178zm-3.18 4.792c.291.194.37.587.176.878l-.354.531c-.195.291-.588.37-.879.176-.291-.195-.37-.588-.175-.879l.353-.531c.195-.291.588-.369.879-.175zm-3.19 4.771c.291.195.368.588.173.879l-.356.53c-.195.29-.589.367-.879.172s-.368-.589-.172-.879l.355-.53c.195-.29.589-.367.879-.172zm-3.208 4.761c.29.196.366.59.17.88l-.358.528c-.196.29-.59.366-.88.169-.29-.196-.365-.59-.169-.88l.358-.527c.196-.29.59-.366.879-.17zm-3.229 4.755c.288.197.363.591.165.88l-.36.528c-.197.288-.592.363-.88.165-.289-.197-.363-.592-.166-.88l.36-.527c.197-.289.592-.364.881-.166zm-3.244 4.733c.288.199.36.593.162.882l-.361.524c-.199.288-.594.36-.882.162-.288-.199-.36-.594-.161-.882l.361-.523c.198-.288.593-.361.881-.163zm-3.27 4.728c.287.2.358.595.158.882l-.365.525c-.2.287-.595.358-.882.158s-.358-.595-.158-.882l.365-.525c.2-.287.595-.358.882-.158zm-3.288 4.707c.286.201.355.596.154.883l-.366.52c-.202.286-.597.355-.883.153-.286-.201-.355-.596-.153-.882l.365-.52c.201-.286.597-.355.883-.154zm-3.311 4.69c.285.202.352.598.15.883-.124.175-.248.349-.372.523-.203.285-.599.352-.884.149s-.352-.598-.149-.884c.078-.109.156-.219.234-.328l.138-.194c.203-.285.598-.352.883-.149zm-3.342 4.68c.284.204.349.6.145.884-.124.172-.248.344-.372.516-.204.284-.6.349-.884.144-.284-.204-.349-.6-.144-.884.124-.172.247-.344.371-.516.204-.284.6-.348.884-.144zm-3.355 4.642c.283.206.345.602.139.885-.127.174-.253.347-.38.521-.206.282-.602.344-.885.138s-.344-.602-.138-.885c.062-.086.125-.171.187-.257l.192-.263c.206-.283.602-.345.885-.139zm-3.406 4.65c.282.208.341.604.133.886-.126.17-.252.341-.378.511-.208.282-.605.341-.886.133s-.341-.605-.132-.886c.125-.17.251-.341.377-.511.208-.282.605-.341.886-.133zm-3.407 4.586c.28.21.336.607.126.887-.129.173-.259.345-.388.517-.21.28-.607.337-.887.126-.28-.21-.336-.607-.126-.887.129-.172.258-.344.388-.516.21-.28.607-.337.887-.127zm-3.481 4.611c.279.212.332.61.12.888-.129.169-.257.337-.386.506-.213.278-.61.331-.888.118-.278-.212-.331-.61-.119-.888.128-.168.257-.336.385-.505.213-.278.61-.331.888-.119zm-52.106.428 1.018.754-.001.001-.01.013-.033.045c-.029.04-.073.099-.13.178-.206.283-.602.345-.885.139s-.345-.602-.139-.885c.058-.08.103-.141.133-.182l.034-.047.012-.015zm48.633 4.096c.276.214.326.612.112.888-.133.172-.266.343-.399.513-.215.277-.613.326-.889.111-.276-.214-.326-.613-.111-.889.133-.17.265-.341.398-.512.215-.276.613-.326.889-.111zm-50.992.37c.291.195.368.589.173.879-.124.185-.251.374-.38.568-.194.291-.587.37-.879.176-.291-.194-.37-.587-.176-.878.131-.195.258-.386.383-.572.195-.291.589-.368.879-.173zm47.426 4.186c.274.218.32.616.103.89-.132.166-.263.332-.395.498-.218.274-.616.32-.89.102-.274-.217-.32-.616-.102-.89.072-.091.145-.183.217-.274.059-.074.118-.148.177-.223.217-.274.616-.32.89-.103zm-50.704.834c.296.186.387.576.201.873-.117.187-.234.375-.352.565-.184.298-.575.389-.872.205-.298-.184-.389-.575-.205-.872.119-.192.237-.382.355-.57.185-.296.576-.386.873-.201zm47.143 3.621c.272.221.313.62.093.892-.137.169-.274.337-.41.505-.221.272-.62.313-.892.092-.271-.22-.312-.619-.092-.891.137-.168.273-.336.41-.504.22-.272.619-.314.891-.094zm-50.247 1.495c.303.175.407.562.232.865-.11.191-.221.384-.332.577-.173.304-.56.409-.864.236-.304-.174-.409-.561-.235-.865.111-.195.222-.389.334-.582.175-.303.562-.406.865-.231zm46.584 2.98c.269.224.306.623.082.892-.135.163-.27.325-.405.487-.224.269-.624.305-.892.081-.269-.225-.305-.624-.081-.893.135-.161.269-.323.404-.485.224-.269.623-.305.892-.082zm-49.499 2.255c.31.162.43.545.268.855-.102.194-.204.389-.305.585-.161.311-.543.432-.854.272-.31-.161-.432-.543-.271-.854.102-.198.204-.395.307-.591.162-.31.545-.43.855-.267zm45.817 2.124c.266.228.297.628.069.894-.141.165-.283.329-.424.494-.228.265-.628.295-.893.067s-.296-.628-.068-.893c.141-.164.282-.328.423-.492.227-.266.627-.297.893-.07zm-48.489 3.23c.318.146.458.522.312.84-.092.2-.183.401-.274.602-.143.319-.519.461-.838.317s-.461-.519-.317-.838c.092-.203.184-.406.277-.609.146-.318.522-.458.84-.312zm44.72 1.116c.262.232.287.632.055.894-.139.157-.278.313-.416.469-.233.261-.633.285-.895.052-.261-.232-.285-.633-.052-.894.138-.155.276-.311.414-.467.232-.262.633-.286.894-.054zm-3.853 4.285c.258.237.274.638.037.895-.146.158-.292.316-.438.474-.238.256-.639.271-.895.034-.257-.238-.272-.639-.034-.896.145-.156.29-.313.435-.471.237-.257.638-.274.895-.036zm-43.221.101c.328.123.494.489.371.816-.078.206-.154.412-.229.617-.12.329-.483.498-.812.378s-.498-.484-.378-.812c.076-.21.154-.419.233-.628.123-.328.488-.494.815-.371zm39.344 4.031c.251.244.258.645.015.896-.15.155-.3.31-.449.464-.244.251-.645.256-.896.012s-.257-.645-.013-.896c.073-.074.146-.149.218-.224.076-.079.153-.157.229-.236.243-.252.644-.259.896-.016zm-41.238 1.649c.339.088.542.434.454.773-.055.212-.109.424-.161.635-.083.34-.426.548-.765.465-.34-.083-.548-.426-.465-.766.053-.217.108-.435.165-.653.088-.339.434-.542.772-.454zm37.145 2.492c.244.251.239.652-.012.896-.071.069-.142.138-.212.207-.08.077-.16.155-.24.232-.251.243-.652.236-.896-.015-.243-.252-.236-.653.015-.896.15-.144.299-.29.449-.436.251-.244.652-.238.896.012zm-38.298 3.37c.348.029.608.334.58.683-.017.219-.032.437-.044.653-.018.349-.317.617-.666.599-.35-.019-.618-.317-.599-.667.012-.228.028-.457.046-.687.028-.349.334-.609.683-.581zm34.128.58c.235.26.214.661-.045.895-.162.146-.323.291-.483.434-.261.233-.662.211-.895-.05s-.211-.661.05-.894c.159-.143.319-.286.479-.43.259-.235.66-.214.894.045zm-4.286 3.731c.221.271.181.67-.091.891-.174.143-.348.284-.522.424-.273.219-.672.175-.891-.097-.219-.273-.176-.672.097-.891.171-.138.343-.277.516-.417.271-.222.67-.181.891.09zm-29.654 1.654c.338-.087.684.118.771.457.052.206.11.408.172.608.105.334-.081.689-.415.793-.334.105-.689-.081-.794-.415-.069-.221-.133-.445-.191-.672-.087-.339.118-.684.457-.771zm25.121 1.854c.201.286.132.681-.155.882-.172.121-.343.24-.514.358-.288.198-.683.126-.881-.163-.199-.288-.126-.682.163-.881.167-.115.335-.232.504-.351.286-.201.681-.132.883.155zm-4.838 3.123c.167.307.055.692-.252.86-.179.097-.357.193-.534.286-.31.163-.693.045-.856-.265s-.044-.693.265-.856c.172-.09.344-.183.517-.277.307-.168.692-.055.86.252zm-17.66.322c.24-.254.641-.266.895-.025.077.072.155.143.234.213s.158.138.238.204c.27.223.307.622.084.892-.223.269-.622.307-.892.084-.09-.075-.18-.152-.269-.23-.09-.08-.178-.161-.265-.243-.254-.24-.266-.641-.025-.895zm12.493 2.076c.105.334-.081.69-.414.795-.226.071-.45.137-.673.199-.337.094-.686-.103-.78-.44s.103-.686.44-.78c.209-.058.419-.121.632-.188.334-.105.69.08.795.414zm-7.577.765c.053-.345.376-.583.722-.53.196.031.395.055.597.073.348.032.605.34.573.689-.032.348-.34.605-.688.573-.227-.021-.452-.048-.674-.082-.346-.053-.584-.377-.53-.723z" style="fill-rule:evenodd;clip-rule:evenodd;fill:#fff;stroke:#fff;stroke-width:1.25;stroke-linecap:round"/><path d="m348.268 73.5009c-21.679 7.6582-37.981 20.0451-47.923 36.5151l-6.06 10.038c-.494.818.14 1.847 1.098 1.762l24.994-2.115z" fill="#9eff00" stroke="#01090f" stroke-miterlimit="10" stroke-width="1.25"/><path d="m309.977 120.816 5.087-8.722 7.269 4.36-2.181 3.634z" fill="#01090f"/><path d="m387.008 96.8877c3.313 22.7633-.054 42.9583-9.997 59.4283l-6.06 10.038c-.494.818-1.7.736-2.071-.151l-9.771-23.102z" fill="#9eff00" stroke="#01090f" stroke-miterlimit="10" stroke-width="1.25"/><path d="m363.177 152.332 5.359-8.559-7.238-4.409-2.205 3.619z" fill="#01090f"/><path d="m322.155 160.552-1.163-15.55c-.387-5.224 2.57-10.121 7.377-12.192l15.439 9.321c.408 5.218-2.549 10.116-7.351 12.207z" fill="#9eff00" stroke="#01090f" stroke-miterlimit="10" stroke-width="1.25"/><path d="m328.315 140.872c-.163-2.244.732-4.391 2.329-5.852l10.148 6.126c-.549 2.094-2.031 3.886-4.093 4.788l-7.751 3.364z" fill="#fcee70" stroke="#01090f" stroke-miterlimit="10" stroke-width="1.25"/><path d="m349.729 146.593-28.067-16.944 11.918-8.159 17.804 10.748z" fill="#ff928e" stroke="#01090f" stroke-miterlimit="10" stroke-width="1.25"/><path d="m331.779 122.994 20.351 11.629-1.453 4.361z" fill="#01090f"/><g stroke="#01090f"><path d="m405.155 25.0309c-.031-.8735-.951-1.429-1.738-1.0494-39.889 19.4514-67.506 50.6384-87.664 87.5835-.307.566-.109 1.278.44 1.61 6.583 3.974 44.056 26.596 50.651 30.577.55.332 1.272.175 1.63-.359 23.308-35.027 38.036-74.0122 36.681-118.3621z" fill="#f8bc20" stroke-miterlimit="10" stroke-width="1.25"/><path d="m405.154 25.0303c-11.595 86.3347-63.065 103.7777-63.065 103.7777 10.821 6.533 21.514 12.988 24.754 14.944.55.332 1.272.175 1.63-.36 23.307-35.027 38.036-74.0117 36.681-118.3617z" fill="#000" fill-opacity=".2" stroke-miterlimit="10" stroke-width="1.25"/><path d="m369.664 82.8803c4.896 2.9555 11.262 1.3806 14.219-3.5176s1.385-11.2648-3.511-14.2203c-4.895-2.9555-11.261-1.3806-14.218 3.5175-2.957 4.8982-1.386 11.2649 3.51 14.2204z" fill="#9eff00" stroke-miterlimit="10" stroke-width="1.25"/><path d="m511.584 310.774h-425.7813v18.793h425.7813z" fill="#ff928e" stroke-miterlimit="10" stroke-width="1.25"/><path d="m467.918 284.566v135.286" stroke-linecap="round" stroke-miterlimit="10" stroke-width="1.25"/><path d="m503.58 284.566v135.286" stroke-linecap="round" stroke-miterlimit="10" stroke-width="1.25"/><path d="m467.918 409.097h35.661" stroke-linecap="round" stroke-miterlimit="10" stroke-width="1.25"/><path d="m467.918 395.06h35.661" stroke-linecap="round" stroke-miterlimit="10" stroke-width="1.25"/><path d="m467.918 381.021h35.661" stroke-linecap="round" stroke-miterlimit="10" stroke-width="1.25"/><path d="m467.918 366.983h35.661" stroke-linecap="round" stroke-miterlimit="10" stroke-width="1.25"/><path d="m467.918 352.944h35.661" stroke-linecap="round" stroke-miterlimit="10" stroke-width="1.25"/><path d="m467.918 338.907h35.661" stroke-linecap="round" stroke-miterlimit="10" stroke-width="1.25"/><path d="m467.918 324.869h35.661" stroke-linecap="round" stroke-miterlimit="10" stroke-width="1.25"/><path d="m467.918 310.831h35.661" stroke-linecap="round" stroke-miterlimit="10" stroke-width="1.25"/><path d="m467.918 296.794h35.661" stroke-linecap="round" stroke-miterlimit="10" stroke-width="1.25"/><path d="m268.333 271.26h140.946v19.585h-140.946z" fill="#9eff00" stroke-miterlimit="10" stroke-width="1.25"/><path d="m310.787 290.845h140.945v19.585h-140.945z" fill="#f8bc20" stroke-miterlimit="10" stroke-width="1.25"/><path d="m225.769 251.674h140.946v19.585h-140.946z" fill="#f8bc20" stroke-miterlimit="10" stroke-width="1.25"/><path d="m183.199 231.523h140.946v19.586h-140.946z" fill="#9eff00" stroke-miterlimit="10" stroke-width="1.25"/><path d="m310.951 310.829 18.708-19.182h-18.708z" fill="#01090f" stroke-width="1.25"/><path d="m268.09 290.464 18.708-19.182h-18.708z" fill="#01090f" stroke-width="1.25"/><path d="m225.701 271.046 18.708-19.182h-18.708z" fill="#01090f" stroke-width="1.25"/><path clip-rule="evenodd" d="m161.35 118.621h-45.301v107.868h45.301zm-3.168 3.168v101.532h-38.966v-101.532z" fill="#9eff00" fill-rule="evenodd" stroke-miterlimit="10" stroke-width="1.25"/><path d="m114.021 400.474h-22.445v2.782c0 4.216 3.4223 7.638 7.6383 7.638h7.1687c4.216 0 7.638-3.422 7.638-7.638z" fill="#f8bc20" stroke-miterlimit="10" stroke-width="1.25"/><path d="m84.9102 400.474h-22.4455v2.782c0 4.216 3.4223 7.638 7.6383 7.638h7.1689c4.216 0 7.6383-3.422 7.6383-7.638z" fill="#f8bc20" stroke-miterlimit="10" stroke-width="1.25"/><path d="m203.428 400.474h-22.446v2.782c0 4.216 3.423 7.638 7.639 7.638h7.168c4.216 0 7.639-3.422 7.639-7.638z" fill="#f8bc20" stroke-miterlimit="10" stroke-width="1.25"/><path d="m116.088 211.497h-47.8354c-8.0052 0-14.5084 6.503-14.5084 14.509v163.612c0 8.006 6.5032 14.509 14.5084 14.509h47.8354z" fill="#31dd9c" stroke-miterlimit="10" stroke-width="1.25"/><path d="m173.566 400.474h-22.445v2.782c0 4.216 3.422 7.638 7.638 7.638h7.169c4.216 0 7.638-3.422 7.638-7.638z" fill="#f8bc20" stroke-miterlimit="10" stroke-width="1.25"/><path d="m100.991 211.497h94.126c8.012 0 14.508 6.496 14.508 14.509v163.612c0 8.013-6.496 14.509-14.508 14.509h-94.126c-8.013 0-14.5087-6.496-14.5087-14.509v-163.612c0-8.013 6.4957-14.509 14.5087-14.509z" fill="#ff928e" stroke-miterlimit="10" stroke-width="1.25"/><path d="m192.206 419.149c-4.11 0-7.442-3.332-7.442-7.442s3.332-7.442 7.442-7.442c4.111 0 7.442 3.332 7.442 7.442s-3.331 7.442-7.442 7.442z" fill="#01090f" stroke-miterlimit="10" stroke-width="1.25"/><path d="m162.345 419.149c-4.11 0-7.442-3.332-7.442-7.442s3.332-7.442 7.442-7.442 7.442 3.332 7.442 7.442-3.332 7.442-7.442 7.442z" fill="#01090f" stroke-miterlimit="10" stroke-width="1.25"/><path d="m102.798 419.149c-4.1099 0-7.4417-3.332-7.4417-7.442s3.3318-7.442 7.4417-7.442c4.11 0 7.442 3.332 7.442 7.442s-3.332 7.442-7.442 7.442z" fill="#01090f" stroke-miterlimit="10" stroke-width="1.25"/><path d="m72.9369 419.149c-4.1101 0-7.442-3.332-7.442-7.442s3.3319-7.442 7.442-7.442 7.442 3.332 7.442 7.442-3.3319 7.442-7.442 7.442z" fill="#01090f" stroke-miterlimit="10" stroke-width="1.25"/><path d="m116.926 114.111h44.327c3.691 0 6.683 2.992 6.683 6.683 0 3.69-2.992 6.682-6.683 6.682h-44.327c-3.691 0-6.683-2.992-6.683-6.682 0-3.691 2.992-6.683 6.683-6.683z" fill="#ff928e" stroke-miterlimit="10" stroke-width="1.25"/><path d="m192.207 235.65v144.36" stroke-miterlimit="10" stroke-width="1.25"/><path d="m163.812 235.65v144.36" stroke-miterlimit="10" stroke-width="1.25"/><path d="m135.41 235.65v144.36" stroke-miterlimit="10" stroke-width="1.25"/><path d="m107.018 235.65v144.36" stroke-miterlimit="10" stroke-width="1.25"/><path d="m68.9102 235.649v144.36" stroke-miterlimit="10" stroke-width="1.25"/><path d="m307.847 310.649h-131.51c-4.021 0-7.28 3.26-7.28 7.281v95.18c0 4.021 3.259 7.28 7.28 7.28h131.51c4.021 0 7.28-3.259 7.28-7.28v-95.18c0-4.021-3.259-7.281-7.28-7.281z" fill="#f8bc20" stroke-miterlimit="10" stroke-width="1.25"/><path d="m295.668 310.649h-131.511c-4.021 0-7.28 3.26-7.28 7.281v95.18c0 4.021 3.259 7.28 7.28 7.28h131.511c4.02 0 7.28-3.259 7.28-7.28v-95.18c0-4.021-3.26-7.281-7.28-7.281z" fill="#31dd9c" stroke-miterlimit="10" stroke-width="1.25"/><path d="m168.156 338.773 61.711 36.729 61.793-36.822" stroke-linecap="round" stroke-linejoin="round" stroke-width="1.25"/><path d="m239.444 362.114h-11.23c-.998 0-1.806.809-1.806 1.806v18.088c0 .998.808 1.806 1.806 1.806h11.23c.997 0 1.806-.808 1.806-1.806v-18.088c0-.997-.809-1.806-1.806-1.806z" fill="#fead3b" stroke-linecap="round" stroke-linejoin="round" stroke-width="1.25"/><path d="m204.646 310.65h8.664c.002-4.33 1.47-8.532 4.165-11.921s6.458-5.765 10.676-6.742c-1.417-.339-2.868-.512-4.325-.516-5.087 0-9.965 2.02-13.562 5.617s-5.618 8.475-5.618 13.562z" fill="#f8bc20" stroke-miterlimit="10" stroke-width="1.25"/><path d="m232.476 281.471c-1.453.008-2.903.129-4.337.363 6.908 1.028 13.217 4.503 17.778 9.792 4.562 5.289 7.072 12.04 7.075 19.024h8.663c0-7.739-3.074-15.161-8.546-20.633s-12.894-8.546-20.633-8.546z" fill="#f8bc20" stroke-miterlimit="10" stroke-width="1.25"/><path d="m233.815 281.834c-1.43-.234-2.876-.355-4.325-.363-7.739 0-15.161 3.074-20.633 8.546s-8.546 12.894-8.546 20.633h9.999c0-5.087 2.021-9.965 5.618-13.562s8.475-5.617 13.562-5.617c1.457.004 2.908.177 4.325.515 4.225.971 7.996 3.344 10.698 6.734s4.175 7.595 4.179 11.93h10.012c-.004-6.99-2.52-13.745-7.088-19.034-4.569-5.29-10.886-8.761-17.801-9.782z" fill="#31dd9c" stroke-miterlimit="10" stroke-width="1.25"/><path d="m235.519 362.114h-11.231c-.997 0-1.806.809-1.806 1.806v18.088c0 .998.809 1.806 1.806 1.806h11.231c.997 0 1.805-.808 1.805-1.806v-18.088c0-.997-.808-1.806-1.805-1.806z" fill="#f5e644" stroke-linecap="round" stroke-linejoin="round" stroke-width="1.25"/><path d="m307.847 310.649h-131.51c-4.021 0-7.28 3.26-7.28 7.281v95.18c0 4.021 3.259 7.28 7.28 7.28h131.51c4.021 0 7.28-3.259 7.28-7.28v-95.18c0-4.021-3.259-7.281-7.28-7.281z" fill="#f8bc20" stroke-miterlimit="10" stroke-width="1.25"/><path d="m295.668 310.649h-131.511c-4.021 0-7.28 3.26-7.28 7.281v95.18c0 4.021 3.259 7.28 7.28 7.28h131.511c4.02 0 7.28-3.259 7.28-7.28v-95.18c0-4.021-3.26-7.281-7.28-7.281z" fill="#31dd9c" stroke-miterlimit="10" stroke-width="1.25"/><path d="m168.156 338.773 61.711 36.729 61.793-36.822" stroke-linecap="round" stroke-linejoin="round" stroke-width="1.25"/><path d="m239.444 362.114h-11.23c-.998 0-1.806.809-1.806 1.806v18.088c0 .998.808 1.806 1.806 1.806h11.23c.997 0 1.806-.808 1.806-1.806v-18.088c0-.997-.809-1.806-1.806-1.806z" fill="#fead3b" stroke-linecap="round" stroke-linejoin="round" stroke-width="1.25"/><path d="m233.815 281.834c-1.43-.234-2.876-.355-4.325-.363-7.739 0-15.161 3.074-20.633 8.546s-8.546 12.894-8.546 20.633h9.999c0-5.087 2.021-9.965 5.618-13.562s8.475-5.617 13.562-5.617c1.457.004 2.908.177 4.325.515 4.225.971 7.996 3.344 10.698 6.734s4.175 7.595 4.179 11.93h10.012c-.004-6.99-2.52-13.745-7.088-19.034-4.569-5.29-10.886-8.761-17.801-9.782z" fill="#31dd9c" stroke-miterlimit="10" stroke-width="1.25"/><path d="m235.519 362.114h-11.231c-.997 0-1.806.809-1.806 1.806v18.088c0 .998.809 1.806 1.806 1.806h11.231c.997 0 1.805-.808 1.805-1.806v-18.088c0-.997-.808-1.806-1.805-1.806z" fill="#f5e644" stroke-linecap="round" stroke-linejoin="round" stroke-width="1.25"/><path d="m203.411 329.505h-57.375c-3.569 0-6.462 2.884-6.462 6.442v77.404c0 3.558 2.893 6.443 6.462 6.443h57.375c3.568 0 6.462-2.885 6.462-6.443v-77.404c0-3.558-2.894-6.442-6.462-6.442z" fill="#ff928e" stroke-linecap="round" stroke-linejoin="round" stroke-width="1.25"/><path d="m199.608 329.505h-57.374c-3.569 0-6.463 2.884-6.463 6.442v77.404c0 3.558 2.894 6.443 6.463 6.443h57.374c3.569 0 6.462-2.885 6.462-6.443v-77.404c0-3.558-2.893-6.442-6.462-6.442z" fill="#01090f" stroke-linecap="round" stroke-linejoin="round" stroke-width="1.25"/><path d="m197.321 329.505h-57.375c-3.568 0-6.462 2.884-6.462 6.442v77.404c0 3.558 2.894 6.443 6.462 6.443h57.375c3.569 0 6.462-2.885 6.462-6.443v-77.404c0-3.558-2.893-6.442-6.462-6.442z" fill="#9eff00" stroke-linecap="round" stroke-linejoin="round" stroke-width="1.25"/><path d="m142.785 407.916v6.61" stroke-linecap="round" stroke-linejoin="round" stroke-width="1.25"/></g><path d="m142.785 329.505v67.479 4.879" fill="#fff"/><path d="m142.785 329.505v67.479 4.879" stroke="#01090f" stroke-linecap="round" stroke-linejoin="round" stroke-width="1.25"/><path d="m172.344 392.41c9.256 0 16.759-7.481 16.759-16.709s-7.503-16.709-16.759-16.709-16.76 7.481-16.76 16.709 7.504 16.709 16.76 16.709z" stroke="#01090f" stroke-linecap="round" stroke-linejoin="round" stroke-width="1.25"/><path d="m155.562 375.702h33.542" stroke="#01090f" stroke-linecap="round" stroke-linejoin="round" stroke-width="1.25"/><path d="m172.344 358.992v33.418" stroke="#01090f" stroke-linecap="round" stroke-linejoin="round" stroke-width="1.25"/><path d="m172.346 392.391h-.11l-.592-.48c-2.339-1.841-4.239-4.176-5.564-6.837-2.171-4.244-2.801-9.107-1.783-13.762 1.019-4.655 3.623-8.814 7.369-11.771l.592-.459h.109" stroke="#01090f" stroke-linecap="round" stroke-linejoin="round" stroke-width="1.25"/><path d="m172.803 392.391h.131c2.456-1.828 4.482-4.169 5.937-6.858 2.37-4.383 3.073-9.471 1.983-14.33-1.091-4.859-3.903-9.163-7.92-12.121h-.131" stroke="#01090f" stroke-linecap="round" stroke-linejoin="round" stroke-width="1.25"/><path d="m183.54 363.231c-1.409 1.123-2.983 2.022-4.667 2.665-2.097.805-4.325 1.219-6.572 1.223-4.059.011-8.005-1.326-11.217-3.8" stroke="#01090f" stroke-linecap="round" stroke-linejoin="round" stroke-width="1.25"/><path d="m161.041 388.046c1.714-1.321 3.65-2.326 5.718-2.97 1.769-.572 3.618-.86 5.477-.852 2.249.011 4.476.433 6.572 1.245 1.684.643 3.258 1.542 4.667 2.664" stroke="#01090f" stroke-linecap="round" stroke-linejoin="round" stroke-width="1.25"/><path d="m565.191 298.823-.544-3.124c-.461-2.69-2.581-4.782-5.243-5.244l-3.125-.543 3.125-.544c2.69-.462 4.782-2.581 5.243-5.244l.544-3.124.543 3.124c.462 2.69 2.581 4.782 5.244 5.244l3.124.544-3.124.543c-2.69.462-4.782 2.581-5.244 5.244z" fill="#fff" stroke="#01090f" stroke-miterlimit="10" stroke-width="1.25"/><path d="m524.502 58-.579-3.3404c-.502-2.8578-2.742-5.0976-5.581-5.5803l-3.34-.5793 3.34-.5793c2.858-.502 5.098-2.7418 5.581-5.5802l.579-3.3405.579 3.3405c.502 2.8577 2.742 5.0975 5.581 5.5802l3.34.5793-3.34.5793c-2.858.502-5.098 2.7419-5.581 5.5803z" fill="#fff" stroke="#01090f" stroke-miterlimit="10" stroke-width="1.25"/><path d="m12.502 318-.5127-2.995c-.4318-2.564-2.4556-4.561-4.99211-4.992l-2.99524-.513 2.99524-.513c2.5635-.431 4.56031-2.455 4.99211-4.992l.5127-2.995.5127 2.995c.4317 2.564 2.4555 4.561 4.992 4.992l2.9953.513-2.9953.513c-2.5635.431-4.5603 2.455-4.992 4.992z" fill="#cfa4ff" stroke="#01090f" stroke-miterlimit="10" stroke-width="1.25"/><path d="m25.7317 116.459-.7075-4.133c-.5958-3.537-3.3886-6.293-6.8889-6.889l-4.1333-.707 4.1333-.708c3.5375-.596 6.2931-3.388 6.8889-6.8887l.7075-4.1333.7075 4.1333c.5958 3.5377 3.3886 6.2927 6.8889 6.8887l4.1333.708-4.1333.707c-3.5376.596-6.2931 3.389-6.8889 6.889z" fill="#fbe62e" stroke="#01090f" stroke-miterlimit="10" stroke-width="1.25"/><path d="m594.732 157.459-.708-4.133c-.596-3.537-3.388-6.293-6.889-6.889l-4.133-.707 4.133-.708c3.538-.596 6.293-3.388 6.889-6.889l.708-4.133.707 4.133c.596 3.538 3.389 6.293 6.889 6.889l4.133.708-4.133.707c-3.537.596-6.293 3.389-6.889 6.889z" fill="#97dde5" stroke="#01090f" stroke-miterlimit="10" stroke-width="1.25"/><path d="m21.029 350.054c2.7763 0 5.027-2.251 5.027-5.027s-2.2507-5.027-5.027-5.027c-2.7764 0-5.027 2.251-5.027 5.027s2.2506 5.027 5.027 5.027z" fill="#fff" stroke="#01090f" stroke-miterlimit="10" stroke-width="1.25"/><path d="m565.502 29c2.485 0 4.5-2.0147 4.5-4.5s-2.015-4.5-4.5-4.5-4.5 2.0147-4.5 4.5 2.015 4.5 4.5 4.5z" fill="#bd80ff" stroke="#01090f" stroke-miterlimit="10" stroke-width="1.25"/><path d="m96.0019 34c3.866 0 7.0001-3.134 7.0001-7s-3.1341-7-7.0001-7-6.9999 3.134-6.9999 7 3.1339 7 6.9999 7z" fill="#9bcdfb" stroke="#01090f" stroke-miterlimit="10" stroke-width="1.25"/><path d="m540.24 380.476c3.445 0 6.238-2.793 6.238-6.238s-2.793-6.238-6.238-6.238-6.238 2.793-6.238 6.238 2.793 6.238 6.238 6.238z" fill="#a041ff" stroke="#01090f" stroke-miterlimit="10" stroke-width="1.25"/></svg>