<svg fill="none" height="442" viewBox="0 0 641 442" width="641" xmlns="http://www.w3.org/2000/svg"><path d="m231.582 422.669 186.574-.195-.179-171.185-186.574.196z" fill="#de0364" stroke="#000" stroke-miterlimit="10" stroke-width="1.25"/><path d="m176.049 422.571 186.574-.195-.179-171.184-186.574.195z" fill="#fb5d96" stroke="#000" stroke-miterlimit="10" stroke-width="1.25"/><path d="m271.766 400.289c5.692 0 10.962-2.319 14.757-6.114s6.114-9.065 6.114-14.757l-.211-128.178h-20.449l.21 128.178c0 7.8-4.216 14.546-10.541 18.13" fill="#2c71f0"/><path d="m271.766 400.289c5.692 0 10.962-2.319 14.757-6.114s6.114-9.065 6.114-14.757l-.211-128.178h-20.449l.21 128.178c0 7.8-4.216 14.546-10.541 18.13" stroke="#000" stroke-miterlimit="10" stroke-width="1.25"/><path d="m221.377 353.489c2.951-1.898 6.535-2.952 10.119-2.952 5.271 0 10.119 2.108 13.703 5.692s5.692 8.222 5.692 13.703v9.698c0 7.8 4.217 14.546 10.541 18.13 2.952 1.687 6.536 2.741 10.12 2.741h-20.45c-5.692 0-10.962-2.319-14.757-6.114-3.795-3.794-6.114-9.065-6.114-14.757v-9.698c.211-6.957-3.373-13.07-8.854-16.443z" fill="#80aaf6" stroke="#000" stroke-miterlimit="10" stroke-width="1.25"/><path d="m192.074 381.948v-12.228c0-5.27 2.108-10.119 5.692-13.703s8.222-5.692 13.703-5.692h20.45c-3.795 0-7.168 1.054-10.119 2.952-5.482 3.373-9.066 9.486-9.066 16.443v12.228z" fill="#d5e3fc" stroke="#000" stroke-miterlimit="10" stroke-width="1.25"/><path d="m406.686 397.336c-4.849-3.584-8.011-10.33-8.011-18.13l-.211-128.178h-15.601l.211 128.178c0 5.692 1.897 10.962 4.638 14.757 2.952 3.795 6.957 6.114 11.173 6.114" fill="#2c71f0"/><g stroke-miterlimit="10" stroke-width="1.25"><path d="m406.686 397.336c-4.849-3.584-8.011-10.33-8.011-18.13l-.211-128.178h-15.601l.211 128.178c0 5.692 1.897 10.962 4.638 14.757 2.952 3.795 6.957 6.114 11.173 6.114" stroke="#000"/><path d="m437.252 353.275c-2.319-1.898-4.849-2.952-7.8-2.952-4.006 0-7.801 2.108-10.331 5.692-2.74 3.584-4.216 8.222-4.216 13.703v9.698c0 7.8-3.162 14.547-8.011 18.131-2.319 1.686-5.06 2.74-7.8 2.74h15.6c4.427 0 8.433-2.319 11.174-6.114 2.951-3.794 4.638-9.065 4.638-14.757v-9.698c-.211-6.956 2.529-13.07 6.746-16.443z" fill="#80aaf6" stroke="#000"/><path d="m459.811 381.736v-12.227c0-5.271-1.687-10.12-4.427-13.704-2.741-3.584-6.325-5.692-10.33-5.692h-15.601c2.952 0 5.481 1.054 7.8 2.952 4.217 3.373 6.957 9.487 6.957 16.444v12.227z" fill="#d5e3fc" stroke="#000"/><path d="m254.045 63.6185-133.695 160.7705 19.735 16.411 133.695-160.7698z" fill="#fb5d96" stroke="#000"/><path d="m120.206 224.333-38.6943 46.53 19.7353 16.412 38.694-46.53z" fill="#de0364" stroke="#000"/><path d="m167.679 167.492-47.192 56.648c-6.927 8.296-19.327 9.36-27.7269 2.614-1.1631-.908-2.2223-1.997-2.9966-3.164l-.4391-.492c-2.1687-2.929-3.1979-6.167-3.5535-9.74 6.3112 2.42 13.9492 1.269 19.4451-3.276z" fill="#2c71f0" stroke="#000" stroke-linejoin="round"/><path d="m167.676 167.491-69.0561 25.572c-3.3414 1.21-6.1666 3.198-8.1907 5.886-3.321 4.109-4.832 9.257-4.5568 14.228.2785 3.287 1.3848 6.81 3.5535 9.739l-11.8256-15.45c-6.5597-7.855-5.763-18.466.048-25.237 2.9055-3.385 6.6891-5.785 11.6091-6.811z" fill="#d5e3fc" stroke="#000" stroke-linejoin="round"/><path d="m89.5312 222.736.336.675" stroke="#000" stroke-linejoin="round"/><path d="m165.762 168.319-73.368 6.254c-10.8991.963-20.254-7.053-21.2169-17.952-.1007-1.502-.0204-2.899.0599-4.297l.1307-.647c.5761-3.519 2.1611-6.7 4.3662-9.284 2.7321 6.14 8.7284 10.784 16.0784 11.394z" fill="#2c71f0" stroke="#000" stroke-linejoin="round"/><path d="m165.761 168.317-66.8262-31.136c-3.1807-1.585-6.6999-2.162-9.9878-1.883-5.0742.456-9.8934 2.984-13.2916 6.808-2.205 2.584-3.79 5.765-4.3662 9.284l2.7801-19.097c.9509-10.041 9.0141-16.963 17.842-17.671 4.3234-.406 8.9287.793 12.8837 3.545z" fill="#d5e3fc" stroke="#000" stroke-linejoin="round"/><path d="m71.2891 151.39-.0536.931" stroke="#000" stroke-linejoin="round"/><path d="m165.472 170.072 46.906-56.572c6.927-8.296 5.863-20.6964-2.613-27.7272-1.163-.9082-2.326-1.8163-3.697-2.3625l-.543-.3117c-3.181-1.585-6.804-1.9801-10.092-1.7016 3.406 5.8045 3.909 13.3119.273 19.647z" fill="#2c71f0" stroke="#000" stroke-linejoin="round"/><path d="m165.474 170.072 12.484-72.4779c.576-3.5192 2.161-6.7 4.262-9.1032 3.322-4.1093 8.037-6.4558 13.215-7.0931 3.288-.2785 6.911.1167 10.092 1.7017l-17.352-8.756c-8.869-5.0902-19.124-2.3142-24.754 4.5603-2.906 3.3853-4.467 7.7827-4.373 12.6491z" fill="#d5e3fc" stroke="#000" stroke-linejoin="round"/><path d="m206.251 83.5151-.724-.4155" stroke="#000" stroke-linejoin="round"/><path d="m166.749 167.439-8.61-73.0363c-1.248-10.822-11.095-18.399-21.917-17.1512-1.502.1007-2.926.4862-4.17.9757l-.75.0503c-3.342 1.2102-6.09 3.4828-8.114 6.171 6.65 1.4104 12.257 6.3132 14.47 13.3579z" fill="#2c71f0" stroke="#000" stroke-linejoin="round"/><path d="m166.751 167.438-43.995-59.177c-2.169-2.929-3.483-6.09-3.761-9.3775-.637-5.1781.874-10.3262 3.91-14.3584 2.024-2.6881 4.953-4.8569 8.113-6.171l-18.235 6.6177c-9.712 3.0876-14.7254 12.2411-13.8364 21.1732.4059 4.323 2.4944 8.65 6.1374 11.944z" fill="#d5e3fc" stroke="#000" stroke-linejoin="round"/><path d="m131.978 77.9426-.675.3359" stroke="#000" stroke-linejoin="round"/><path d="m102.834 114.874c6.347-3.094 13.184-4.945 19.84-6.9l43.374 58.581-61.381-49.426c-.62-.596-1.136-1.374-1.833-2.255z" fill="#80aaf6" stroke="#000" stroke-linejoin="round"/><path d="m158.9 87.6201c6.596 2.3422 12.75 5.8741 18.904 9.4061l-11.526 72.0658-7.461-78.3918c-.128-1.0356-.074-1.9673.083-3.0801z" fill="#80aaf6" stroke="#000" stroke-linejoin="round"/><path d="m227.391 153.157c-.473 3.339-1.98 6.804-4.289 9.569-3.321 4.11-8.037 6.456-12.826 6.835-4.789.38-9.86-.847-13.866-4.349-5.892-4.825-13.862-6.031-20.468-3.326-3.16 1.314-6.167 3.198-8.476 5.963l12.946-15.428c3.71-4.367 8.71-6.791 13.888-7.428 5.359-.534 10.688 1.081 15.056 4.791 5.091 4.125 12.129 5.278 18.035 3.373z" fill="#80aaf6" stroke="#000"/><path d="m232.575 121.486c4.109 3.321 6.456 8.036 6.835 12.825.379 4.79-.847 9.861-4.349 13.866l-12.946 15.429c2.413-2.947 3.817-6.231 4.289-9.57.918-6.21-1.502-12.893-6.671-17.303z" fill="#d5e3fc" stroke="#000"/><path d="m113.628 289.743c3.237-1.029 6.347-3.094 8.656-5.859 3.321-4.109 4.728-9.076 4.349-13.866-.379-4.789-2.725-9.505-6.835-12.826-5.892-4.825-8.44-12.544-7.107-19.478.473-3.338 2.161-6.7 4.47-9.465l-12.945 15.428c-3.71 4.368-5.1439 9.8-4.7916 15.056.5334 5.359 2.9566 10.359 7.4286 13.888 5.453 4.333 7.693 10.912 6.775 17.122z" fill="#80aaf6" stroke="#000"/><path d="m83.5514 300.634c4.1093 3.321 9.0765 4.728 13.8658 4.349 4.7898-.379 9.5048-2.726 12.8258-6.835l12.946-15.429c-2.413 2.947-5.419 4.831-8.657 5.86-6.009 2.085-13.047.933-18.2159-3.478z" fill="#d5e3fc" stroke="#000"/><path d="m509.274 177.362c7.135 0 13.443-5.842 13.443-13.443 0-7.135-5.843-13.443-13.443-13.443-7.136 0-13.444 5.842-13.444 13.443 0 7.187 6.256 13.443 13.444 13.443z" stroke="#f8bc20" stroke-linejoin="round"/><path d="m539.214 281.133h-212.976c-8.066 0-14.322-6.721-14.322-14.322v-135.107c0-8.066 6.722-14.322 14.322-14.322h212.976c8.066 0 14.322 6.722 14.322 14.322v135.159c0 8.014-6.256 14.27-14.322 14.27z" fill="#fbe62e" stroke="#000" stroke-linejoin="round"/><path d="m378.15 116.917v164.217" stroke="#000"/><path d="m311.447 195.458h242.086" stroke="#000"/><path d="m378.549 195.956-18.213-6.622c-6.071-2.392-7.932-10.087-3.173-14.87 4.485-4.507 12.417-2.913 14.796 3.188z" stroke="#000"/><path d="m378.551 195.956 20.034-6.62c6.678-2.391 8.725-10.084 3.49-14.865-4.933-4.505-13.658-2.942-16.276 3.188z" stroke="#000"/><path d="m378.55 195.955-19.261 21.669" stroke="#000" stroke-linecap="round"/><path d="m378.551 195.955 21.669 21.669" stroke="#000" stroke-linecap="round"/><path d="m520.818 423.99h99.717v-91.495h-99.717z" fill="#7304e2" stroke="#000"/><path d="m491.254 423.99h99.717v-91.495h-99.717z" fill="#bd80ff" stroke="#000"/><path d="m485.63 337.595h112.788v-13.914h-112.788z" fill="#bd80ff" stroke="#000"/><path d="m598.526 337.595h32.677v-13.914h-32.677z" fill="#7304e2" stroke="#000"/><path d="m558.508 323.776h39.634c5.902 0 10.54-4.849 10.54-10.541 0-.843 0-1.687-.21-2.319v-.422c-.422-1.897-1.476-3.584-2.741-4.848-1.265 3.373-4.216 6.113-8.011 6.957z" fill="#2c71f0" stroke="#000" stroke-linejoin="round"/><path d="m558.508 323.773 34.363-19.817c1.687-1.054 3.584-1.476 5.271-1.476 2.74 0 5.481 1.054 7.378 3.163 1.265 1.264 2.319 2.951 2.741 4.848l-2.319-10.119c-1.054-5.481-5.692-8.643-10.541-8.643-2.319 0-4.849.843-6.746 2.529z" fill="#d5e3fc" stroke="#000" stroke-linejoin="round"/><path d="m608.471 310.916v-.424" stroke="#000" stroke-linejoin="round"/><path d="m559.564 323.343 27.828-28.25c4.217-4.216 4.006-10.962 0-14.968-.632-.632-1.264-1.054-1.897-1.476l-.422-.21c-1.686-1.054-3.584-1.476-5.27-1.476 1.686 3.373 1.476 7.379-.843 10.541z" fill="#2c71f0" stroke="#000" stroke-linejoin="round"/><path d="m559.564 323.344 10.12-38.369c.421-1.897 1.475-3.584 2.74-4.849 1.898-1.897 4.638-3.162 7.379-3.162 1.897 0 3.584.422 5.27 1.476l-8.854-5.481c-4.427-3.163-10.119-2.109-13.492 1.265-1.687 1.686-2.741 4.005-2.952 6.535z" fill="#d5e3fc" stroke="#000" stroke-linejoin="round"/><path d="m585.496 278.442-.424-.212" stroke="#000" stroke-linejoin="round"/><path d="m560.405 323.776h-39.634c-5.903 0-10.541-4.849-10.541-10.541 0-.843 0-1.687.211-2.319v-.422c.422-1.897 1.476-3.584 2.741-4.848 1.265 3.373 4.216 6.113 8.011 6.957z" fill="#2c71f0" stroke="#000" stroke-linejoin="round"/><path d="m560.403 323.773-34.363-19.817c-1.686-1.054-3.584-1.476-5.27-1.476-2.741 0-5.482 1.054-7.379 3.163-1.265 1.264-2.319 2.951-2.741 4.848l2.319-10.119c1.054-5.481 5.692-8.643 10.541-8.643 2.319 0 4.849.843 6.746 2.529z" fill="#d5e3fc" stroke="#000" stroke-linejoin="round"/><path d="m510.442 310.492-.212.424" stroke="#000" stroke-linejoin="round"/><path d="m558.723 323.349-27.407-28.882c-4.005-4.216-3.794-10.962.422-14.968.633-.632 1.265-1.054 1.897-1.475l.422-.211c1.687-.843 3.584-1.265 5.481-1.265-1.686 3.373-1.686 7.378.633 10.541z" fill="#2c71f0" stroke="#000" stroke-linejoin="round"/><path d="m558.722 323.348-9.276-38.58c-.421-1.897-1.475-3.584-2.529-4.849-1.898-2.108-4.638-3.162-7.379-3.373-1.897 0-3.584.422-5.481 1.265l9.065-5.27c4.638-2.952 10.119-1.898 13.492 1.686 1.687 1.687 2.741 4.006 2.952 6.746z" fill="#d5e3fc" stroke="#000" stroke-linejoin="round"/><path d="m534.056 278.021-.423.212" stroke="#000" stroke-linejoin="round"/><path d="m559.141 278.865c-3.584 1.476-6.535 3.795-9.698 5.903l9.276 38.158.633-42.585c0-.422-.211-1.054-.211-1.476z" fill="#80aaf6" stroke="#000" stroke-linejoin="round"/><path d="m528.362 292.566c-1.265 3.584-1.898 7.379-2.53 11.174l33.942 20.027-29.936-30.147c-.422-.421-1.055-.632-1.476-1.054z" fill="#80aaf6" stroke="#000" stroke-linejoin="round"/><path d="m531.627 424h10.963v-86.435h-10.963z" fill="#2c71f0" stroke="#000"/><path d="m602.338 424h7.801v-86.435h-7.801z" fill="#2c71f0" stroke="#000"/><path d="m607.055 337.735h7.8v-13.914h-7.8z" fill="#80aaf6" stroke="#000" stroke-linejoin="round"/><path d="m531.627 337.735h10.963v-13.914h-10.963z" fill="#80aaf6" stroke="#000" stroke-linejoin="round"/><path d="m596.037 195.823-.544-3.124c-.462-2.69-2.581-4.782-5.244-5.244l-3.124-.543 3.124-.544c2.69-.462 4.782-2.581 5.244-5.244l.544-3.124.543 3.124c.462 2.69 2.581 4.782 5.244 5.244l3.124.544-3.124.543c-2.69.462-4.782 2.581-5.244 5.244z" fill="#fbe62e" stroke="#01090f"/><path d="m498.625 79-.579-3.3404c-.502-2.8578-2.742-5.0976-5.581-5.5803l-3.34-.5793 3.34-.5793c2.858-.502 5.098-2.7418 5.581-5.5802l.579-3.3405.579 3.3405c.502 2.8577 2.742 5.0975 5.581 5.5802l3.34.5793-3.34.5793c-2.858.502-5.098 2.7419-5.581 5.5803z" fill="#fff" stroke="#01090f"/><path d="m46.625 96-.5127-2.9952c-.4317-2.5635-2.4556-4.5604-4.9921-4.9921l-2.9952-.5127 2.9952-.5127c2.5635-.4317 4.5604-2.4556 4.9921-4.9921l.5127-2.9952.5127 2.9952c.4317 2.5635 2.4556 4.5604 4.9921 4.9921l2.9952.5127-2.9952.5127c-2.5635.4317-4.5604 2.4556-4.9921 4.9921z" fill="#cfa4ff" stroke="#01090f"/><path d="m21.8547 34.4595-.7075-4.1334c-.5958-3.5375-3.3886-6.2931-6.8889-6.8889l-4.1333-.7074 4.1333-.7076c3.5376-.5958 6.2931-3.3886 6.8889-6.8889l.7075-4.1333.7075 4.1333c.5958 3.5376 3.3886 6.2931 6.8889 6.8889l4.1334.7076-4.1334.7074c-3.5375.5958-6.2931 3.3886-6.8889 6.8889z" fill="#fbe62e" stroke="#01090f"/><path d="m131.152 362.054c2.776 0 5.027-2.251 5.027-5.027s-2.251-5.027-5.027-5.027-5.027 2.251-5.027 5.027 2.251 5.027 5.027 5.027z" fill="#fff" stroke="#01090f"/><path d="m539.625 50c2.485 0 4.5-2.0147 4.5-4.5s-2.015-4.5-4.5-4.5-4.5 2.0147-4.5 4.5 2.015 4.5 4.5 4.5z" fill="#bd80ff" stroke="#01090f"/><path d="m164.125 65c3.866 0 7-3.134 7-7s-3.134-7-7-7-7 3.134-7 7 3.134 7 7 7z" fill="#9bcdfb" stroke="#01090f"/><path d="m611.363 225.476c3.445 0 6.238-2.793 6.238-6.238s-2.793-6.238-6.238-6.238-6.238 2.793-6.238 6.238 2.793 6.238 6.238 6.238z" fill="#a041ff" stroke="#01090f"/></g></svg>