<svg width="657" height="415" viewBox="0 0 657 415" fill="none" xmlns="http://www.w3.org/2000/svg">
<rect x="309.356" y="7.92047" width="38.1105" height="401.384" rx="6.18779" fill="#9BCDFB" stroke="#01090F" stroke-width="1.2"/>
<path d="M293.432 1H30.6089C14.2603 1 1.00708 14.1964 1.00708 30.4751V384.602C1.00708 400.88 14.2603 414.077 30.6089 414.077H293.432C309.78 414.077 323.033 400.88 323.033 384.602V30.4751C323.033 14.1964 309.78 1 293.432 1Z" fill="#FFF4E0" stroke="#01090F" stroke-width="1.2" stroke-linecap="round" stroke-linejoin="round"/>
<path d="M43.6141 359.736V389.977" stroke="#01090F" stroke-width="1.2" stroke-linecap="round" stroke-linejoin="round"/>
<path d="M43.6141 1V309.722V332.041" fill="#15357A"/>
<path d="M43.6141 1V309.722V332.041" stroke="#01090F" stroke-width="1.2" stroke-linecap="round" stroke-linejoin="round"/>
<path d="M179.017 288.798C221.418 288.798 255.79 254.572 255.79 212.353C255.79 170.134 221.418 135.908 179.017 135.908C136.616 135.908 102.243 170.134 102.243 212.353C102.243 254.572 136.616 288.798 179.017 288.798Z" stroke="#01090F" stroke-width="1.5" stroke-linecap="round" stroke-linejoin="round"/>
<path d="M102.142 212.357H255.79" stroke="#01090F" stroke-width="1.5" stroke-linecap="round" stroke-linejoin="round"/>
<path d="M179.016 135.908V288.798" stroke="#01090F" stroke-width="1.5" stroke-linecap="round" stroke-linejoin="round"/>
<path d="M179.02 288.708H178.518L175.808 286.509C165.094 278.088 156.388 267.406 150.317 255.232V255.232C140.372 235.814 137.487 213.567 142.153 192.271C146.818 170.975 158.746 151.945 175.909 138.416L178.618 136.317H179.12" stroke="#01090F" stroke-width="1.5" stroke-linecap="round" stroke-linejoin="round"/>
<path d="M181.121 288.708H181.723C192.972 280.342 202.253 269.634 208.92 257.33C219.773 237.278 222.998 214 218.002 191.77C213.006 169.54 200.125 149.851 181.723 136.317H181.121" stroke="#01090F" stroke-width="1.5" stroke-linecap="round" stroke-linejoin="round"/>
<path d="M230.298 155.302C223.845 160.437 216.635 164.549 208.922 167.494C199.314 171.174 189.11 173.07 178.815 173.09C160.223 173.137 142.145 167.019 127.432 155.702" stroke="#01090F" stroke-width="1.5" stroke-linecap="round" stroke-linejoin="round"/>
<path d="M127.24 268.83C135.092 262.787 143.961 258.186 153.433 255.239V255.239C161.536 252.623 170.005 251.308 178.523 251.342C188.824 251.393 199.028 253.324 208.63 257.038C216.343 259.983 223.553 264.095 230.006 269.229" stroke="#01090F" stroke-width="1.5" stroke-linecap="round" stroke-linejoin="round"/>
<path d="M626.212 1H363.39C347.041 1 333.788 14.1964 333.788 30.4751V384.602C333.788 400.88 347.041 414.077 363.39 414.077H626.212C642.561 414.077 655.814 400.88 655.814 384.602V30.4751C655.814 14.1964 642.561 1 626.212 1Z" fill="#FFF4E0" stroke="#01090F" stroke-width="1.2" stroke-linecap="round" stroke-linejoin="round"/>
<path d="M613.612 1H361.953C346.298 1 333.608 14.1545 333.608 30.3814V383.383C333.608 399.61 346.298 412.764 361.953 412.764H613.612C629.266 412.764 641.957 399.61 641.957 383.383V30.3814C641.957 14.1545 629.266 1 613.612 1Z" fill="#FFF4E0" stroke="#01090F" stroke-width="1.2" stroke-linecap="round" stroke-linejoin="round"/>
<path d="M601.028 1H360.679C345.728 1 333.608 14.1545 333.608 30.3814V383.383C333.608 399.61 345.728 412.764 360.679 412.764H601.028C615.978 412.764 628.098 399.61 628.098 383.383V30.3814C628.098 14.1545 615.978 1 601.028 1Z" fill="#FFF4E0" stroke="#01090F" stroke-width="1.2" stroke-linecap="round" stroke-linejoin="round"/>
<rect width="157.082" height="95.095" rx="14.0659" transform="matrix(0.97028 0.241985 -0.242563 0.970136 465.597 14.9435)" fill="#FFA9C6" stroke="#FFA9C6" stroke-width="14.0659"/>
<path d="M469.288 86.2974L469.683 91.9129L475.168 93.281C475.425 93.3449 475.449 93.7011 475.204 93.798L469.962 95.9015L470.357 101.517C470.376 101.781 470.042 101.913 469.877 101.713L466.241 97.3958L460.999 99.4993C460.754 99.5962 460.526 99.3249 460.668 99.1004L463.659 94.3296L460.029 90.0134C459.858 89.8126 460.047 89.5097 460.303 89.5736L465.789 90.9417L468.781 86.1709C468.922 85.9463 469.269 86.0329 469.288 86.2974Z" stroke="#01090F" stroke-width="0.879118"/>
<path d="M579.365 113.75L579.759 119.366L585.245 120.734C585.501 120.798 585.526 121.154 585.28 121.251L580.039 123.354L580.434 128.97C580.453 129.234 580.119 129.366 579.953 129.166L576.317 124.849L571.076 126.952C570.83 127.049 570.603 126.778 570.744 126.553L573.736 121.782L570.105 117.466C569.934 117.265 570.124 116.963 570.38 117.027L575.866 118.395L578.857 113.624C578.998 113.399 579.346 113.486 579.365 113.75Z" stroke="#01090F" stroke-width="0.879118"/>
<rect width="157.082" height="95.095" rx="14.0659" transform="matrix(0.97028 0.241985 -0.242563 0.970136 465.597 14.9435)" stroke="#01090F" stroke-width="1.53584"/>
<path d="M480.928 69.1231C484.768 70.0809 488.088 68.3313 489.282 65.4225L485.289 64.4265C484.644 65.3008 483.378 65.9796 481.811 65.5888C479.786 65.0837 478.883 63.3364 479.375 61.3687C479.858 59.4391 481.487 58.2826 483.512 58.7877C485.098 59.1832 485.872 60.391 485.848 61.4607L489.841 62.4566C490.161 59.3095 488.274 56.2208 484.396 55.2535C480.154 54.1956 476.538 56.4802 475.554 60.4156C474.565 64.3702 476.667 68.0604 480.928 69.1231ZM497.601 73.2813C501.709 74.3058 505.54 72.0546 506.519 68.1382C507.493 64.241 505.196 60.441 501.069 59.4117C496.942 58.3824 493.115 60.6145 492.131 64.55C491.143 68.5046 493.455 72.2472 497.601 73.2813ZM498.485 69.747C496.459 69.2419 495.47 67.4326 495.953 65.503C496.426 63.6117 498.16 62.4408 500.185 62.946C502.172 63.4415 503.17 65.2939 502.698 67.1852C502.215 69.1147 500.472 70.2426 498.485 69.747ZM507.718 75.5406L516.392 77.704L517.204 74.4563L512.198 73.2078L514.73 63.0826L511.061 62.1677L507.718 75.5406ZM525.345 80.2006C529.453 81.2251 533.284 78.9738 534.263 75.0575C535.237 71.1602 532.94 67.3602 528.813 66.3309C524.686 65.3017 520.859 67.5338 519.875 71.4693C518.887 75.4238 521.199 79.1665 525.345 80.2006ZM526.228 76.6663C524.203 76.1612 523.214 74.3518 523.697 72.4223C524.17 70.531 525.904 69.3601 527.929 69.8652C529.916 70.3608 530.914 72.2131 530.442 74.1044C529.959 76.034 528.216 77.1619 526.228 76.6663ZM535.462 82.4599L538.997 83.3414L540.735 76.3875L540.85 76.4161L541.614 83.9943L544.327 84.6709L548.192 78.714L548.306 78.7425L546.678 85.2571L550.212 86.1386L553.556 72.7657L548.932 71.6125L544.48 78.9452L544.366 78.9166L543.429 70.2402L538.805 69.087L535.462 82.4599ZM553.457 86.9479L559.514 88.4585C561.693 89.0018 564.081 88.055 564.711 85.5332C565.122 83.8902 564.368 82.6872 563.618 82.0334L563.646 81.9188C564.64 81.5983 565.433 80.7813 565.719 79.635C566.235 77.5718 565.132 75.6527 562.457 74.9855L556.801 73.575L553.457 86.9479ZM558.984 79.6195L559.543 77.3843L561.148 77.7846C561.893 77.9705 562.218 78.5386 562.065 79.1499C561.898 79.8185 561.372 80.2152 560.589 80.0198L558.984 79.6195ZM557.699 84.7585L558.344 82.1795L559.892 82.5655C560.618 82.7466 561.119 83.3384 560.914 84.1599C560.694 85.0387 560.068 85.3494 559.247 85.1445L557.699 84.7585ZM566.396 90.1749L570.065 91.0898L573.409 77.7169L569.74 76.802L566.396 90.1749ZM572.449 91.6843L576.175 92.6135L577.292 90.741L581.84 91.8751L581.945 94.0526L585.862 95.0295L584.83 80.5654L580.072 79.3788L572.449 91.6843ZM579.06 87.7315L581.31 83.9291L581.501 83.9768L581.697 88.3891L579.06 87.7315Z" fill="#01090F"/>
<line y1="-0.703295" x2="126.142" y2="-0.703295" transform="matrix(0.97028 0.241985 -0.242563 0.970136 473.687 44.73)" stroke="#01090F" stroke-width="1.40659"/>
<line y1="-0.703295" x2="126.142" y2="-0.703295" transform="matrix(0.97028 0.241985 -0.242563 0.970136 466.576 76.4423)" stroke="#01090F" stroke-width="1.40659"/>
<path d="M488.966 97.4077L490.481 97.7856C492.003 98.1651 493.125 97.4738 493.495 95.9932C493.843 94.6013 493.197 93.389 491.675 93.0095L490.16 92.6317L488.966 97.4077ZM489.863 96.9502L490.735 93.4637L491.499 93.6543C492.496 93.9028 493.023 94.6938 492.745 95.806C492.455 96.9659 491.61 97.3859 490.628 97.1408L489.863 96.9502ZM493.596 98.5624L494.353 98.7513L494.988 97.8078L497.137 98.3439L497.253 99.4746L498.031 99.6686L497.451 94.4501L496.557 94.2271L493.596 98.5624ZM495.385 97.2039L496.767 95.1565L496.815 95.1684L497.071 97.6242L495.385 97.2039ZM499.818 100.114L500.548 100.296L501.578 96.1752L502.998 96.5292L503.161 95.8742L499.593 94.9841L499.429 95.6391L500.848 95.9931L499.818 100.114ZM503.182 100.953L506.082 101.677L506.243 101.035L504.08 100.496L504.445 99.0356L506.239 99.4832L506.4 98.8419L504.605 98.3943L504.951 97.0092L507.046 97.5317L507.208 96.8835L504.376 96.1772L503.182 100.953ZM508.355 99.6485C508.614 99.7131 508.855 99.5629 508.918 99.3105C508.981 99.058 508.838 98.8193 508.579 98.7547C508.333 98.6934 508.074 98.8317 508.011 99.0841C507.947 99.3366 508.11 99.5872 508.355 99.6485ZM507.722 102.18C507.982 102.244 508.22 102.101 508.284 101.849C508.347 101.596 508.205 101.351 507.946 101.286C507.7 101.225 507.439 101.37 507.376 101.622C507.313 101.875 507.477 102.118 507.722 102.18ZM511.968 103.144L512.447 103.264L513.248 100.058L513.285 100.068L513.915 103.63L514.48 103.771L516.589 100.892L516.626 100.901L515.825 104.106L516.304 104.226L517.378 99.9273L516.832 99.791L514.352 103.158L514.315 103.149L513.589 98.9822L513.042 98.8459L511.968 103.144ZM517.902 104.624L518.381 104.744L519.183 101.538L519.219 101.548L519.849 105.11L520.414 105.251L522.523 102.372L522.56 102.381L521.759 105.586L522.238 105.706L523.313 101.407L522.766 101.271L520.286 104.638L520.25 104.629L519.523 100.462L518.977 100.326L517.902 104.624ZM523.394 106.699L523.842 106.81L527.021 102.006L526.572 101.894L523.394 106.699ZM527.192 106.941L528.469 107.26C529.832 107.6 530.829 106.981 531.162 105.648C531.475 104.395 530.907 103.301 529.544 102.961L528.266 102.643L527.192 106.941ZM527.8 106.623L528.652 103.215L529.432 103.41C530.463 103.667 530.912 104.483 530.652 105.521C530.382 106.602 529.599 107.072 528.58 106.818L527.8 106.623ZM531.914 108.119L533.192 108.438C534.555 108.778 535.552 108.158 535.885 106.826C536.198 105.573 535.63 104.479 534.266 104.139L532.989 103.821L531.914 108.119ZM532.522 107.801L533.374 104.393L534.154 104.587C535.186 104.845 535.635 105.661 535.375 106.699C535.105 107.78 534.322 108.25 533.302 107.995L532.522 107.801ZM536.195 109.891L536.643 110.003L539.821 105.198L539.373 105.087L536.195 109.891ZM541.067 110.402L541.571 110.527L541.984 108.875L544.212 106.619L543.647 106.478L541.872 108.306L541.835 108.297L541.116 105.847L540.576 105.713L541.48 108.75L541.067 110.402ZM545.316 111.461L545.82 111.587L546.233 109.935L548.46 107.679L547.895 107.538L546.121 109.366L546.084 109.356L545.365 106.907L544.825 106.772L545.729 109.809L545.316 111.461ZM488.035 105.421L488.766 105.603L489.796 101.482L491.215 101.836L491.379 101.181L487.81 100.291L487.646 100.946L489.066 101.3L488.035 105.421ZM491.4 106.26L492.137 106.444L493.331 101.668L492.594 101.484L491.4 106.26ZM493.762 106.849L494.472 107.026L495.297 103.724L495.338 103.734L495.932 107.39L496.642 107.567L498.755 104.622L498.796 104.632L497.979 107.901L498.689 108.078L499.883 103.302L499.03 103.089L496.553 106.559L496.512 106.549L495.816 102.287L494.956 102.073L493.762 106.849ZM500.316 108.483L503.216 109.207L503.376 108.565L501.213 108.026L501.578 106.566L503.373 107.013L503.533 106.372L501.738 105.924L502.085 104.539L504.18 105.062L504.342 104.414L501.51 103.707L500.316 108.483ZM505.488 107.179C505.748 107.243 505.988 107.093 506.051 106.841C506.114 106.588 505.971 106.349 505.712 106.285C505.466 106.223 505.207 106.362 505.144 106.614C505.081 106.867 505.243 107.117 505.488 107.179ZM504.855 109.71C505.115 109.775 505.354 109.631 505.417 109.379C505.48 109.126 505.338 108.881 505.079 108.816C504.833 108.755 504.572 108.9 504.509 109.152C504.446 109.405 504.61 109.649 504.855 109.71ZM509.905 110.875L510.402 110.999L511.477 106.701L511.01 106.584C510.901 107.02 510.568 107.126 509.782 106.93L509.682 107.329L510.726 107.59L509.905 110.875ZM513.6 111.796L514.091 111.919L514.363 110.832L514.928 110.973L515.038 110.531L514.473 110.39L514.716 109.42L514.225 109.297L513.982 110.267L512.686 109.944L512.695 109.907L514.693 107.503L514.171 107.372L512.097 109.849L511.998 110.242L513.871 110.71L513.6 111.796ZM516.842 110.165C517.032 110.213 517.226 110.091 517.273 109.901C517.321 109.711 517.206 109.519 517.015 109.471C516.825 109.424 516.627 109.538 516.579 109.728C516.532 109.918 516.652 110.118 516.842 110.165ZM516.248 112.542C516.438 112.589 516.63 112.474 516.678 112.284C516.725 112.093 516.61 111.901 516.42 111.854C516.229 111.806 516.031 111.92 515.984 112.11C515.936 112.301 516.057 112.494 516.248 112.542ZM519.28 113.291C520.195 113.519 520.875 112.991 521.058 112.26C521.245 111.511 520.791 110.824 520.066 110.617L520.075 110.58L521.523 109.695L521.638 109.235L519.138 108.611L519.025 109.066L520.886 109.53L520.877 109.567L519.444 110.468L519.338 110.892L519.836 111.016C520.364 111.148 520.68 111.605 520.545 112.146C520.404 112.71 519.943 112.961 519.396 112.825C518.893 112.699 518.629 112.268 518.729 111.816L518.262 111.7C518.122 112.259 518.395 113.071 519.28 113.291ZM522.089 113.913L524.76 114.58L524.874 114.125L522.7 113.583L522.724 113.485C522.809 113.147 523.011 112.937 523.595 112.743L524.47 112.452C525.053 112.259 525.384 111.93 525.508 111.433C525.668 110.794 525.302 110.064 524.485 109.86C523.632 109.647 523.01 110.203 522.862 110.793L523.329 110.909C523.438 110.473 523.871 110.203 524.356 110.324C524.891 110.457 525.107 110.87 524.995 111.318C524.9 111.699 524.639 111.907 524.312 112.015L523.409 112.312C522.761 112.529 522.365 112.808 522.222 113.379L522.089 113.913Z" fill="#01090F"/>
<path d="M503.939 40.5751C504.639 40.7497 505.454 40.4116 505.668 39.5581L506.101 37.8264C506.314 36.9729 505.754 36.2916 505.054 36.117C504.353 35.9424 503.538 36.2805 503.325 37.1341L502.892 38.8657C502.678 39.7193 503.239 40.4005 503.939 40.5751ZM504.057 40.1023C503.535 39.9721 503.259 39.4857 503.391 38.9576L503.808 37.2873C503.939 36.7654 504.42 36.4612 504.935 36.5898C505.451 36.7185 505.732 37.2126 505.602 37.7346L505.184 39.4048C505.052 39.9329 504.579 40.2325 504.057 40.1023ZM508.128 41.6198C508.828 41.7944 509.643 41.4563 509.857 40.6028L510.29 38.8711C510.503 38.0176 509.943 37.3363 509.243 37.1617C508.542 36.9871 507.727 37.3252 507.514 38.1788L507.081 39.9104C506.867 40.764 507.428 41.4452 508.128 41.6198ZM508.246 41.147C507.724 41.0168 507.448 40.5304 507.58 40.0023L507.997 38.332C508.128 37.8101 508.608 37.5059 509.124 37.6346C509.64 37.7632 509.921 38.2573 509.791 38.7793L509.373 40.4495C509.241 40.9776 508.768 41.2772 508.246 41.147ZM512.317 42.6645C513.017 42.8391 513.832 42.501 514.046 41.6475L514.479 39.9158C514.692 39.0623 514.132 38.3811 513.432 38.2064C512.731 38.0318 511.916 38.37 511.703 39.2235L511.27 40.9552C511.056 41.8087 511.617 42.4899 512.317 42.6645ZM512.435 42.1917C511.913 42.0615 511.637 41.5751 511.769 41.047L512.186 39.3767C512.317 38.8548 512.797 38.5506 513.313 38.6793C513.829 38.8079 514.11 39.302 513.98 39.824L513.562 41.4942C513.43 42.0223 512.957 42.3219 512.435 42.1917ZM516.506 43.7093C517.206 43.8839 518.021 43.5457 518.235 42.6922L518.668 40.9605C518.881 40.107 518.321 39.4258 517.62 39.2512C516.92 39.0765 516.105 39.4147 515.892 40.2682L515.459 41.9999C515.245 42.8534 515.806 43.5346 516.506 43.7093ZM516.624 43.2364C516.102 43.1062 515.826 42.6198 515.958 42.0917L516.375 40.4215C516.506 39.8995 516.986 39.5953 517.502 39.724C518.018 39.8526 518.299 40.3468 518.169 40.8687L517.751 42.539C517.619 43.067 517.146 43.3666 516.624 43.2364ZM520.695 44.754C521.395 44.9286 522.21 44.5905 522.424 43.7369L522.857 42.0053C523.07 41.1517 522.51 40.4705 521.809 40.2959C521.109 40.1213 520.294 40.4594 520.081 41.3129L519.648 43.0446C519.434 43.8981 519.995 44.5794 520.695 44.754ZM520.813 44.2811C520.291 44.1509 520.015 43.6645 520.147 43.1364L520.564 41.4662C520.695 40.9442 521.175 40.64 521.691 40.7687C522.207 40.8974 522.488 41.3915 522.358 41.9134L521.94 43.5837C521.808 44.1118 521.335 44.4113 520.813 44.2811ZM524.405 45.5944L524.902 45.7184L525.977 41.42L525.51 41.3036C525.401 41.7396 525.068 41.8457 524.282 41.6496L524.182 42.0487L525.226 42.3091L524.405 45.5944ZM527.197 46.2907L527.762 46.4316L529.512 44.5719C529.699 44.3707 529.859 44.1235 529.933 43.8287C530.135 43.0182 529.667 42.2556 528.856 42.0534C528.046 41.8512 527.258 42.3136 527.059 43.1119C526.857 43.9163 527.309 44.6682 528.126 44.8719C528.261 44.9056 528.428 44.9148 528.537 44.8963L528.556 44.927L527.197 46.2907ZM528.262 44.4298C527.697 44.2889 527.438 43.761 527.568 43.2391C527.7 42.711 528.175 42.3792 528.74 42.5201C529.299 42.6595 529.563 43.1689 529.429 43.7032C529.299 44.2251 528.821 44.5692 528.262 44.4298ZM531.961 47.5636C532.808 47.775 533.524 47.4185 533.719 46.6387C533.877 46.0062 533.505 45.5612 533.263 45.3833L533.272 45.3465C533.528 45.2865 533.92 45.0514 534.041 44.5663C534.213 43.8786 533.757 43.2756 533.075 43.1055C532.387 42.934 531.707 43.2536 531.535 43.9414C531.414 44.4265 531.649 44.8178 531.847 44.9911L531.838 45.028C531.54 45.0711 531.003 45.2893 530.844 45.9218C530.649 46.7017 531.113 47.3523 531.961 47.5636ZM532.605 44.9846C532.157 44.8728 531.938 44.4723 532.034 44.0854C532.131 43.6985 532.493 43.4497 532.96 43.5661C533.427 43.6825 533.63 44.0723 533.533 44.4591C533.436 44.846 533.054 45.0964 532.605 44.9846ZM532.074 47.1092C531.479 46.9607 531.242 46.4972 531.354 46.049C531.489 45.5086 531.988 45.3134 532.492 45.439C532.995 45.5646 533.344 45.9712 533.209 46.5115C533.097 46.9598 532.67 47.2578 532.074 47.1092ZM536.549 48.6233L537.041 48.7458L537.313 47.6589L537.878 47.7998L537.988 47.3577L537.423 47.2168L537.666 46.2466L537.174 46.124L536.932 47.0943L535.636 46.7711L535.645 46.7342L537.643 44.3294L537.121 44.1992L535.046 46.6762L534.948 47.0692L536.821 47.5364L536.549 48.6233ZM539.311 49.312L539.839 49.4437L542.325 45.9473L542.431 45.5236L539.79 44.865L539.676 45.3194L541.801 45.8494L541.792 45.8862L539.311 49.312ZM543.926 50.5478C544.718 50.7454 545.5 50.2814 545.704 49.4647C545.891 48.7155 545.469 47.9252 544.652 47.7215C544.118 47.5883 543.782 47.811 543.782 47.811L543.745 47.8018L544.182 46.4432L546.056 46.9103L546.169 46.4559L543.86 45.88L543.106 48.2688L543.561 48.3821C543.665 48.2777 543.974 48.035 544.453 48.1545C545.042 48.3015 545.339 48.7864 545.2 49.3391C545.056 49.9163 544.539 50.2113 544.023 50.0826C543.55 49.9647 543.26 49.6118 543.298 49.1191L542.831 49.0027C542.705 49.741 543.183 50.3624 543.926 50.5478ZM548.099 51.5884C548.909 51.7906 549.697 51.3281 549.896 50.5298C550.098 49.7254 549.646 48.9735 548.829 48.7698C548.694 48.7361 548.527 48.727 548.418 48.7455L548.399 48.7148L549.758 47.351L549.193 47.2101L547.443 49.0699C547.256 49.2711 547.096 49.5183 547.022 49.813C546.82 50.6236 547.288 51.3862 548.099 51.5884ZM548.215 51.1217C547.656 50.9823 547.392 50.4729 547.526 49.9386C547.656 49.4167 548.134 49.0726 548.693 49.212C549.258 49.3529 549.517 49.8808 549.387 50.4027C549.255 50.9308 548.78 51.2626 548.215 51.1217ZM552.227 52.6114C553.142 52.8396 553.822 52.3113 554.005 51.5805C554.192 50.8314 553.738 50.144 553.013 49.9371L553.022 49.9003L554.47 49.0154L554.585 48.5548L552.085 47.9314L551.972 48.3858L553.833 48.8499L553.824 48.8868L552.391 49.7886L552.285 50.2123L552.783 50.3363C553.311 50.4681 553.627 50.9253 553.492 51.4657C553.351 52.0306 552.89 52.2811 552.343 52.1447C551.84 52.0191 551.576 51.588 551.676 51.1366L551.209 51.0202C551.069 51.579 551.342 52.3909 552.227 52.6114ZM556.373 53.652C557.165 53.8496 557.947 53.3856 558.151 52.5689C558.338 51.8197 557.916 51.0295 557.099 50.8258C556.565 50.6925 556.229 50.9153 556.229 50.9153L556.192 50.9061L556.629 49.5474L558.502 50.0146L558.616 49.5602L556.307 48.9842L555.553 51.373L556.007 51.4864C556.112 51.3819 556.421 51.1393 556.9 51.2587C557.489 51.4058 557.785 51.8907 557.647 52.4433C557.503 53.0205 556.986 53.3155 556.47 53.1869C555.997 53.0689 555.707 52.716 555.745 52.2233L555.278 52.1069C555.152 52.8453 555.63 53.4667 556.373 53.652ZM559.141 54.2574L561.812 54.9237L561.926 54.4693L559.752 53.9271L559.776 53.8288C559.861 53.4911 560.063 53.2807 560.647 53.087L561.522 52.7964C562.105 52.6027 562.436 52.2741 562.56 51.7767C562.72 51.138 562.354 50.4076 561.537 50.2039C560.684 49.991 560.062 50.547 559.914 51.1365L560.381 51.2529C560.49 50.8169 560.923 50.5465 561.408 50.6675C561.943 50.8008 562.159 51.2136 562.047 51.6618C561.952 52.0425 561.691 52.2514 561.364 52.3591L560.461 52.6558C559.813 52.8726 559.417 53.1521 559.274 53.7232L559.141 54.2574ZM564.519 55.6835C565.366 55.8949 566.082 55.5384 566.277 54.7585C566.435 54.1261 566.063 53.6811 565.821 53.5032L565.83 53.4663C566.086 53.4063 566.478 53.1713 566.599 52.6862C566.771 51.9984 566.315 51.3954 565.633 51.2254C564.945 51.0539 564.265 51.3735 564.093 52.0613C563.972 52.5464 564.207 52.9377 564.405 53.111L564.396 53.1478C564.098 53.191 563.561 53.4092 563.402 54.0417C563.207 54.8216 563.671 55.4721 564.519 55.6835ZM565.164 53.1045C564.715 52.9926 564.496 52.5921 564.592 52.2053C564.689 51.8184 565.051 51.5696 565.518 51.686C565.985 51.8024 566.188 52.1921 566.091 52.579C565.994 52.9659 565.612 53.2163 565.164 53.1045ZM564.632 55.2291C564.037 55.0805 563.8 54.6171 563.912 54.1688C564.047 53.6285 564.546 53.4333 565.05 53.5589C565.553 53.6845 565.902 54.091 565.767 54.6314C565.655 55.0797 565.228 55.3777 564.632 55.2291ZM567.83 56.4246L568.358 56.5563L570.844 53.0599L570.95 52.6362L568.309 51.9776L568.195 52.432L570.32 52.9619L570.311 52.9988L567.83 56.4246ZM572.577 57.6084L573.068 57.7309L573.34 56.644L573.905 56.7849L574.015 56.3428L573.45 56.2019L573.693 55.2317L573.202 55.1091L572.959 56.0794L571.663 55.7562L571.672 55.7193L573.67 53.3145L573.148 53.1843L571.074 55.6613L570.975 56.0543L572.848 56.5215L572.577 57.6084Z" fill="#01090F"/>
<path d="M353.42 218.89C352.274 218.276 352.294 216.627 353.453 216.041L456.53 163.939C458.166 163.112 460.102 163.135 461.718 164L563.536 218.514C564.682 219.128 564.663 220.777 563.503 221.363L460.426 273.465C458.79 274.292 456.854 274.27 455.238 273.404L353.42 218.89Z" fill="#F78400" stroke="#F78400" stroke-width="16.0579"/>
<path d="M353.42 218.89C352.274 218.276 352.294 216.627 353.453 216.041L456.53 163.939C458.166 163.112 460.102 163.135 461.718 164L563.536 218.514C564.682 219.128 564.663 220.777 563.503 221.363L460.426 273.465C458.79 274.292 456.854 274.27 455.238 273.404L353.42 218.89Z" stroke="#01090F" stroke-width="1.60579"/>
<path d="M470.449 189.996L460.558 182.675C460.573 182.318 460.582 182.002 460.585 181.739C460.627 178.184 459.709 175.292 458.535 175.278C457.361 175.264 456.375 178.134 456.333 181.689C456.33 181.952 456.331 182.268 456.338 182.625L446.277 189.711C445.974 189.925 446.198 190.397 446.559 190.299L456.553 187.557C456.71 190.062 456.948 192.799 457.248 194.885L453.793 197.473C453.708 197.537 453.655 197.638 453.654 197.745L453.646 198.397C453.644 198.641 453.89 198.811 454.121 198.722L457.717 197.326C457.889 197.935 458.071 198.294 458.266 198.296C458.461 198.298 458.651 197.944 458.837 197.34L462.399 198.82C462.625 198.914 462.879 198.75 462.881 198.506L462.889 197.854C462.89 197.747 462.843 197.647 462.757 197.579L459.364 194.909C459.71 192.834 460.013 190.104 460.232 187.6L470.158 190.577C470.514 190.683 470.752 190.217 470.454 189.996L470.449 189.996Z" fill="#01090F"/>
<path d="M394.029 225.811C398.188 225.86 400.529 223.662 400.566 220.537C400.641 214.175 392.409 216.417 392.434 214.281C392.441 213.674 393.075 213.3 394.087 213.311C395.278 213.325 395.9 213.94 395.936 214.705L400.207 214.755C400.044 211.426 397.796 209.533 394.132 209.49C390.333 209.445 388.172 211.556 388.139 214.366C388.062 220.907 396.068 218.753 396.044 220.821C396.036 221.518 395.424 221.893 394.188 221.879C392.659 221.861 391.881 221.154 391.802 220.187L387.711 220.139C387.649 223.51 389.893 225.762 394.029 225.811ZM403.658 225.632L407.974 225.683L408.16 209.947L403.844 209.897L403.658 225.632ZM411.79 225.728L415.949 225.777L416.052 217.032L416.187 217.034L421.164 225.838L425.997 225.895L426.183 210.16L422.024 210.111L421.921 218.855L421.786 218.854L416.809 210.049L411.976 209.992L411.79 225.728ZM437.755 226.326C443.037 226.388 446.249 222.874 446.021 217.408L437.861 217.312L437.82 220.796L441.192 220.836C440.824 221.528 439.601 222.323 437.802 222.302C435.419 222.274 433.934 220.48 433.962 218.12C433.989 215.85 435.515 214.136 437.898 214.164C439.562 214.184 440.72 215.075 441.113 216.113L445.856 216.169C445.244 212.767 442.331 210.057 437.947 210.006C432.957 209.947 429.521 213.436 429.466 218.067C429.411 222.72 432.742 226.267 437.755 226.326ZM447.612 226.15L451.996 226.201L452.743 223.827L458.094 223.89L458.785 226.281L463.393 226.335L458.431 210.539L452.834 210.473L447.612 226.15ZM453.913 220.019L455.408 215.202L455.633 215.205L457.015 220.055L453.913 220.019ZM466.196 226.368L470.512 226.419L470.567 221.721L472.546 221.744C475.693 221.781 478.351 219.452 478.388 216.26C478.426 213.045 475.913 210.745 472.676 210.707L466.382 210.633L466.196 226.368ZM470.61 218.079L470.655 214.325L472.183 214.343C473.217 214.355 474.019 215.039 474.005 216.208C473.991 217.4 473.173 218.11 472.139 218.097L470.61 218.079ZM489.331 226.933C494.164 226.99 497.825 223.481 497.879 218.873C497.933 214.287 494.379 210.67 489.523 210.613C484.668 210.556 481.007 214.042 480.952 218.673C480.897 223.327 484.453 226.876 489.331 226.933ZM489.38 222.774C486.997 222.746 485.421 220.997 485.448 218.726C485.474 216.501 487.091 214.744 489.474 214.772C491.812 214.799 493.41 216.594 493.383 218.82C493.357 221.09 491.718 222.802 489.38 222.774ZM501.164 226.78L505.48 226.831L505.536 222.043L507.065 222.061L509.346 226.877L514.09 226.932L510.965 221.207C512.505 220.259 513.558 218.63 513.582 216.629C513.62 213.415 511.106 211.159 507.869 211.121L501.35 211.044L501.164 226.78ZM505.579 218.401L505.623 214.737L507.376 214.758C508.41 214.77 509.212 215.409 509.198 216.578C509.184 217.769 508.367 218.434 507.333 218.422L505.579 218.401ZM517.243 226.969L527.876 227.095L527.919 223.43L521.602 223.356L521.631 220.951L526.778 221.011L526.821 217.37L521.674 217.309L521.702 214.926L527.794 214.998L527.837 211.356L517.429 211.234L517.243 226.969Z" fill="#01090F"/>
<path d="M439.966 250.006L440.857 250.017L441.313 248.802L443.842 248.831L444.27 250.057L445.185 250.068L443.164 244.423L442.112 244.411L439.966 250.006ZM441.596 248.026L442.59 245.388L442.646 245.389L443.579 248.049L441.596 248.026ZM446.514 250.083L447.381 250.094L447.406 247.958L448.466 247.97L449.589 250.12L450.568 250.131L449.319 247.852C449.939 247.635 450.444 247.038 450.454 246.235C450.466 245.216 449.736 244.501 448.587 244.487L446.58 244.463L446.514 250.083ZM447.415 247.203L447.439 245.22L448.506 245.233C449.205 245.241 449.569 245.679 449.563 246.225C449.555 246.891 449.109 247.223 448.515 247.216L447.415 247.203ZM452.084 250.149L452.951 250.159L452.976 248.024L454.036 248.036L455.159 250.185L456.138 250.197L454.889 247.918C455.509 247.7 456.014 247.104 456.024 246.301C456.036 245.281 455.306 244.566 454.157 244.553L452.15 244.529L452.084 250.149ZM452.985 247.269L453.009 245.286L454.076 245.298C454.775 245.307 455.139 245.745 455.133 246.29C455.125 246.957 454.679 247.289 454.085 247.282L452.985 247.269ZM457.654 250.214L458.521 250.225L458.587 244.605L457.72 244.595L457.654 250.214ZM461.934 250.265L462.89 250.276L465.067 244.681L464.104 244.67L462.445 249.211L462.396 249.21L460.869 244.632L459.929 244.621L461.934 250.265ZM465.362 250.305L466.254 250.316L466.71 249.101L469.238 249.13L469.666 250.356L470.581 250.367L468.56 244.722L467.508 244.71L465.362 250.305ZM466.992 248.325L467.986 245.687L468.043 245.688L468.975 248.348L466.992 248.325ZM471.91 250.382L475.121 250.42L475.131 249.649L472.786 249.622L472.844 244.773L471.976 244.762L471.91 250.382Z" fill="#01090F"/>
<path d="M366.064 220.328C367.565 220.346 368.796 219.145 368.813 217.646C368.831 216.147 367.629 214.918 366.128 214.901C364.628 214.883 363.397 216.083 363.379 217.582C363.361 219.081 364.564 220.31 366.064 220.328Z" fill="#01090F"/>
<path d="M549.923 222.492C551.424 222.51 552.654 221.31 552.672 219.811C552.69 218.312 551.488 217.083 549.987 217.065C548.486 217.047 547.256 218.248 547.238 219.747C547.22 221.246 548.422 222.475 549.923 222.492Z" fill="#01090F"/>
<path d="M402.132 234.323L513.534 235.634" stroke="#01090F" stroke-width="1.20434" stroke-linecap="round" stroke-dasharray="2.41 4.82"/>
<path d="M402.496 203.568L513.897 204.879" stroke="#01090F" stroke-width="1.20434" stroke-linecap="round" stroke-dasharray="2.41 4.82"/>
<ellipse cx="57.9184" cy="57.8536" rx="57.9184" ry="57.8536" transform="matrix(0.970585 -0.24076 0.241335 0.970442 337.821 63.7477)" fill="#FCEE70" stroke="#FCEE70" stroke-width="13.6011"/>
<ellipse cx="57.9184" cy="57.8536" rx="57.9184" ry="57.8536" transform="matrix(0.970585 -0.24076 0.241335 0.970442 337.821 63.7477)" stroke="#01090F" stroke-width="1.36011"/>
<path fill-rule="evenodd" clip-rule="evenodd" d="M351.784 119.891C350.604 115.145 350.047 110.39 350.063 105.713L459.092 78.6672C461.297 82.7938 463.033 87.2563 464.213 92.0025C465.327 96.4822 465.886 100.97 465.932 105.392L356.538 132.528C354.507 128.598 352.898 124.371 351.784 119.891Z" fill="#01090F"/>
<path d="M390.775 149.406L391.559 149.212L391.24 143.896L390.455 144.09L390.775 149.406ZM393.288 148.783L394.044 148.595L393.823 144.92L393.867 144.909L395.583 148.214L396.338 148.026L397.513 144.043L397.557 144.032L397.775 147.67L398.531 147.482L398.211 142.167L397.252 142.404L395.882 147.091L395.838 147.102L393.84 143.251L392.969 143.467L393.288 148.783ZM400.261 147.053L401.016 146.866L400.796 143.19L400.84 143.179L402.556 146.484L403.311 146.297L404.486 142.313L404.53 142.302L404.748 145.94L405.504 145.753L405.184 140.437L404.225 140.675L402.855 145.362L402.811 145.372L400.813 141.521L399.942 141.737L400.261 147.053ZM407.234 145.323L408.019 145.129L407.699 139.813L406.915 140.008L407.234 145.323ZM411.995 144.243C413.505 143.868 414.625 142.604 414.377 140.677L411.676 141.347L411.717 142.038L413.546 141.584C413.542 142.464 412.866 143.248 411.944 143.477C410.985 143.715 410.267 143.245 410.049 142.367C409.731 141.089 410.462 139.813 411.689 139.509C412.466 139.316 413.052 139.595 413.32 140.145L414.184 139.931C413.822 138.972 412.863 138.432 411.643 138.734C409.828 139.185 408.822 140.968 409.252 142.696C409.557 143.923 410.652 144.576 411.995 144.243ZM415.969 143.157L416.753 142.962L416.629 140.943L417.638 140.693L418.426 141.938C418.654 142.298 418.924 142.424 419.345 142.319L419.766 142.215L419.718 141.494L419.464 141.557C419.261 141.608 419.136 141.57 418.989 141.352L418.357 140.391C419.045 139.966 419.454 139.225 419.239 138.361C419.048 137.591 418.372 137.165 417.464 137.391L415.649 137.841L415.969 143.157ZM416.59 140.228L416.47 138.354L417.443 138.113C417.988 137.977 418.341 138.221 418.439 138.613C418.605 139.281 418.223 139.823 417.584 139.981L416.59 140.228ZM420.491 142.035L421.347 141.822L421.668 140.571L423.919 140.013L424.39 141.068L425.21 140.864L423.002 136.017L422.037 136.256L420.491 142.035ZM421.842 139.781L422.553 137.061L422.604 137.048L423.628 139.338L421.842 139.781ZM427.111 140.393L427.888 140.2L427.611 135.614L429.121 135.239L429.078 134.51L425.281 135.452L425.324 136.181L426.834 135.806L427.111 140.393ZM430.691 139.505L431.475 139.31L431.155 133.994L430.371 134.189L430.691 139.505ZM435.444 138.426C437.238 137.981 438.285 136.21 437.856 134.483C437.549 133.249 436.464 132.577 435.114 132.912C433.321 133.357 432.275 135.135 432.706 136.87C433.013 138.104 434.094 138.761 435.444 138.426ZM435.405 137.649C434.469 137.882 433.72 137.412 433.502 136.534C433.193 135.293 433.962 133.984 435.16 133.687C436.097 133.455 436.849 133.939 437.066 134.81C437.375 136.051 436.603 137.352 435.405 137.649ZM439.517 137.315L440.287 137.124L440.049 133.191L440.093 133.18L442.785 136.505L443.569 136.31L443.249 130.994L442.487 131.184L442.725 135.117L442.681 135.128L439.982 131.805L439.198 131.999L439.517 137.315Z" fill="#01090F"/>
<path d="M381.903 118.527L385.452 117.647L384.491 113.785L386.118 113.381C388.705 112.74 390.385 110.263 389.732 107.639C389.075 104.996 386.523 103.648 383.861 104.308L378.687 105.592L381.903 118.527ZM383.747 110.791L382.98 107.705L384.236 107.394C385.086 107.183 385.89 107.572 386.129 108.533C386.372 109.512 385.854 110.269 385.004 110.48L383.747 110.791ZM392.396 115.924L396 115.03L396.104 112.925L400.503 111.834L401.581 113.646L405.37 112.706L397.921 100.821L393.319 101.962L392.396 115.924ZM396.247 109.554L396.442 105.288L396.627 105.242L398.797 108.922L396.247 109.554ZM407.674 112.134L411.223 111.254L410.244 107.318L411.501 107.007L414.401 110.466L418.301 109.498L414.514 105.474C415.573 104.368 416.088 102.808 415.679 101.164C415.022 98.521 412.478 97.2097 409.817 97.8699L404.457 99.1993L407.674 112.134ZM409.499 104.325L408.75 101.313L410.192 100.955C411.042 100.744 411.836 101.097 412.075 102.057C412.319 103.037 411.791 103.756 410.941 103.967L409.499 104.325ZM420.893 108.855L424.442 107.975L421.225 95.04L417.677 95.9202L420.893 108.855ZM432.241 106.296C435.66 105.447 437.109 103.146 436.47 100.577C435.169 95.3478 428.902 98.9429 428.465 97.1875C428.341 96.6885 428.78 96.246 429.612 96.0397C430.591 95.7967 431.233 96.1673 431.426 96.7864L434.938 95.9154C434.091 93.2218 431.843 92.1511 428.831 92.8983C425.707 93.6731 424.388 95.8641 424.963 98.174C426.3 103.551 432.401 100.076 432.824 101.776C432.966 102.349 432.546 102.787 431.529 103.039C430.272 103.351 429.483 102.938 429.212 102.162L425.848 102.996C426.519 105.773 428.84 107.139 432.241 106.296Z" fill="#FCEE70"/>
<path d="M399.766 130.356L400.479 130.179L399.99 128.212L401.857 127.749L401.703 127.128L399.835 127.592L399.486 126.186L401.512 125.683L401.356 125.056L398.617 125.736L399.766 130.356ZM403.791 129.357L404.504 129.18L404.067 127.425L404.938 127.209L406.319 128.73L407.124 128.53L405.612 126.93C406.074 126.619 406.36 126.022 406.196 125.362C405.988 124.524 405.236 124.094 404.292 124.328L402.642 124.737L403.791 129.357ZM403.913 126.804L403.507 125.174L404.385 124.957C404.96 124.814 405.352 125.095 405.463 125.544C405.6 126.092 405.305 126.459 404.817 126.58L403.913 126.804ZM407.901 128.337L408.634 128.156L408.748 127.063L410.827 126.547L411.439 127.46L412.192 127.273L409.327 123.079L408.462 123.294L407.901 128.337ZM408.813 126.367L409.063 123.992L409.11 123.981L410.443 125.962L408.813 126.367ZM413.285 127.002L413.984 126.829L413.134 123.41L413.174 123.4L416.202 126.278L416.968 126.089L415.819 121.469L415.126 121.641L415.976 125.059L415.936 125.069L412.895 122.194L412.136 122.382L413.285 127.002ZM420.681 125.259C421.803 124.98 422.49 124.109 422.505 123.068L421.726 123.262C421.667 123.928 421.187 124.418 420.513 124.585C419.57 124.82 418.676 124.27 418.428 123.274C418.184 122.291 418.713 121.375 419.657 121.14C420.33 120.973 420.993 121.187 421.35 121.75L422.116 121.56C421.605 120.664 420.618 120.187 419.489 120.467C418.103 120.811 417.351 122.098 417.689 123.457C418.03 124.83 419.288 125.604 420.681 125.259ZM424.184 124.299L426.989 123.603L426.835 122.982L424.742 123.501L424.391 122.089L426.127 121.658L425.973 121.038L424.237 121.469L423.904 120.129L425.93 119.626L425.774 118.999L423.035 119.679L424.184 124.299Z" fill="#01090F"/>
<path d="M393.26 130.919L363.477 138.307M461.76 113.927L431.977 121.315" stroke="#01090F" stroke-width="0.850069" stroke-linecap="round"/>
<path d="M373.844 91.0318L377.049 83.4731C377.288 83.4212 377.499 83.3725 377.674 83.3291C380.037 82.7429 381.802 81.6596 381.615 80.9099C381.429 80.1603 379.362 80.0274 376.999 80.6136C376.824 80.657 376.614 80.7126 376.379 80.7784L370.006 75.5957C369.813 75.4397 369.538 75.664 369.663 75.8769L373.146 81.7656C371.511 82.2976 369.737 82.9212 368.404 83.4718L366.112 81.7185C366.056 81.6756 365.98 81.6595 365.909 81.6772L365.476 81.7848C365.313 81.825 365.242 82.0114 365.339 82.1432L366.864 84.1914C366.489 84.4054 366.281 84.5834 366.312 84.7078C366.343 84.8321 366.61 84.8925 367.042 84.9065L366.654 87.429C366.629 87.5892 366.78 87.7224 366.942 87.6821L367.376 87.5746C367.447 87.5569 367.505 87.5094 367.536 87.4431L368.74 84.8226C370.174 84.6853 372.034 84.4072 373.73 84.1149L373.41 90.9468C373.399 91.1917 373.748 91.2628 373.845 91.0352L373.844 91.0318Z" fill="#01090F"/>
<rect width="48.3293" height="11.4941" rx="2.72022" transform="matrix(0.970585 -0.24076 0.241335 0.970442 386.185 73.8568)" stroke="#01090F" stroke-width="0.850069"/>
<path d="M396.358 78.5456L396.732 78.4527L395.928 75.219L395.577 75.3061C395.658 75.6341 395.474 75.8219 394.883 75.9686L394.958 76.2689L395.743 76.0741L396.358 78.5456ZM399.138 77.856L399.507 77.7643L399.304 76.9467L399.729 76.8412L399.646 76.5086L399.221 76.614L399.04 75.8841L398.67 75.9758L398.851 76.7057L397.877 76.9476L397.87 76.9198L398.347 74.6188L397.954 74.7162L397.451 77.0923L397.525 77.3879L398.934 77.0384L399.138 77.856ZM400.715 75.6304C400.858 75.5948 400.944 75.4461 400.908 75.3029C400.873 75.1597 400.728 75.0728 400.585 75.1084C400.442 75.1439 400.351 75.2892 400.386 75.4324C400.422 75.5756 400.572 75.6659 400.715 75.6304ZM401.16 77.4182C401.303 77.3827 401.39 77.2385 401.354 77.0953C401.318 76.9521 401.174 76.8653 401.031 76.9008C400.888 76.9363 400.796 77.0816 400.832 77.2248C400.868 77.368 401.016 77.4537 401.16 77.4182ZM403.438 76.848C404.127 76.6773 404.392 76.0867 404.255 75.5369C404.115 74.9733 403.57 74.6768 403.016 74.7948L403.009 74.767L403.658 73.6692L403.572 73.3227L401.692 73.7892L401.777 74.1311L403.177 73.7838L403.184 73.8115L402.551 74.9151L402.63 75.2339L403.004 75.1411C403.401 75.0425 403.773 75.2348 403.874 75.6413C403.98 76.0663 403.762 76.3949 403.351 76.4969C402.972 76.5909 402.644 76.3976 402.551 76.0626L402.2 76.1497C402.305 76.5701 402.773 77.0131 403.438 76.848ZM405.524 76.2719L407.534 75.7733L407.449 75.4315L405.813 75.8372L405.795 75.7633C405.732 75.5092 405.792 75.298 406.111 74.9638L406.59 74.4625C406.909 74.1283 407.012 73.7937 406.919 73.4195C406.799 72.9391 406.299 72.5826 405.684 72.7351C405.042 72.8944 404.825 73.4827 404.936 73.9262L405.287 73.8391C405.205 73.5111 405.397 73.179 405.762 73.0884C406.164 72.9887 406.454 73.1867 406.538 73.5239C406.609 73.8103 406.509 74.041 406.33 74.2277L405.835 74.7428C405.481 75.1151 405.317 75.4403 405.424 75.87L405.524 76.2719ZM409.726 73.9346L410.905 73.6423L410.82 73.3005L409.641 73.5927L409.726 73.9346ZM414.83 74.0271C415.357 73.8964 415.779 73.3846 415.62 72.7425L415.296 71.4397C415.136 70.7976 414.523 70.5425 413.996 70.6732C413.47 70.8038 413.047 71.3156 413.207 71.9578L413.531 73.2605C413.691 73.9027 414.304 74.1577 414.83 74.0271ZM414.742 73.6714C414.349 73.7688 413.994 73.543 413.895 73.1457L413.583 71.8892C413.485 71.4965 413.697 71.1252 414.085 71.0289C414.473 70.9326 414.834 71.1618 414.932 71.5545L415.244 72.8111C415.343 73.2084 415.135 73.5739 414.742 73.6714ZM417.278 73.3561L417.676 73.2575L418.092 70.0594L418.013 69.7406L416.026 70.2335L416.111 70.5753L417.71 70.1788L417.717 70.2065L417.278 73.3561ZM419.748 73.2731L420.086 73.1895L420.5 68.8785L420.162 68.9622L419.748 73.2731ZM422.269 72.1182L424.278 71.6197L424.193 71.2778L422.558 71.6835L422.539 71.6096C422.476 71.3556 422.536 71.1444 422.856 70.8102L423.334 70.3089C423.653 69.9747 423.757 69.6401 423.664 69.2659C423.544 68.7855 423.043 68.429 422.429 68.5814C421.787 68.7407 421.57 69.3291 421.68 69.7726L422.031 69.6855C421.95 69.3575 422.142 69.0254 422.507 68.9348C422.909 68.8351 423.199 69.033 423.282 69.3703C423.354 69.6567 423.254 69.8874 423.075 70.0741L422.58 70.5892C422.226 70.9615 422.062 71.2867 422.169 71.7163L422.269 72.1182ZM426.403 71.0926L426.773 71.0009L426.57 70.1832L426.995 70.0778L426.912 69.7452L426.487 69.8506L426.305 69.1207L425.936 69.2124L426.117 69.9423L425.142 70.1841L425.135 70.1564L425.613 67.8554L425.22 67.9528L424.717 70.3288L424.791 70.6245L426.2 70.2749L426.403 71.0926Z" fill="#01090F"/>
<path d="M606.617 316.7C606.373 314.68 604.9 313.019 602.915 312.57C577.787 306.884 552.048 305.364 526.124 308.489C500.2 311.615 475.563 319.208 452.511 330.702C450.69 331.61 449.655 333.573 449.899 335.594L456.078 386.715C456.322 388.735 457.795 390.396 459.78 390.845C484.908 396.53 510.647 398.051 536.571 394.925C562.495 391.8 587.133 384.207 610.184 372.713C612.005 371.805 613.04 369.841 612.796 367.821L606.617 316.7Z" fill="#FFA9C6" stroke="#FFA9C6" stroke-width="13.9231"/>
<path d="M606.617 316.7C606.373 314.68 604.9 313.019 602.915 312.57C577.787 306.884 552.048 305.364 526.124 308.489C500.2 311.615 475.563 319.208 452.511 330.702C450.69 331.61 449.655 333.573 449.899 335.594L456.078 386.715C456.322 388.735 457.795 390.396 459.78 390.845C484.908 396.53 510.647 398.051 536.571 394.925C562.495 391.8 587.132 384.207 610.184 372.713C612.005 371.805 613.04 369.841 612.796 367.821L606.617 316.7Z" stroke="#01090F" stroke-width="1.39231"/>
<rect width="157.853" height="28.2373" transform="matrix(0.992811 -0.119689 0.119989 0.992775 451.342 347.527)" stroke="#01090F" stroke-width="0.870195"/>
<path d="M496.355 334.14L497.083 334.052L496.323 327.763L495.595 327.851L496.355 334.14ZM499.421 333.77L500.122 333.686L499.555 328.996L499.609 328.989L502.269 333.427L503.096 333.327L504.443 328.407L504.497 328.4L505.064 333.09L505.765 333.006L505.004 326.716L504.205 326.813L502.613 332.574L502.559 332.581L499.461 327.385L498.661 327.481L499.421 333.77ZM508.103 332.724L508.804 332.639L508.237 327.949L508.291 327.943L510.951 332.38L511.778 332.281L513.125 327.36L513.179 327.353L513.745 332.043L514.446 331.959L513.686 325.67L512.886 325.766L511.295 331.528L511.241 331.534L508.142 326.338L507.343 326.434L508.103 332.724ZM516.785 331.677L517.512 331.589L516.752 325.3L516.024 325.388L516.785 331.677ZM522.484 331.109C524.182 330.904 525.516 329.576 525.233 327.304L521.863 327.71L521.94 328.348L524.492 328.041C524.599 329.304 523.695 330.27 522.41 330.425C520.928 330.603 519.781 329.639 519.601 328.147C519.423 326.674 520.286 325.448 521.769 325.27C522.829 325.142 523.649 325.59 524.08 326.367L524.889 326.27C524.332 325.134 523.133 324.412 521.686 324.587C519.817 324.812 518.622 326.387 518.846 328.238C519.072 330.107 520.615 331.334 522.484 331.109ZM527.523 330.382L528.251 330.295L527.944 327.752L529.319 327.586L531.019 329.961L531.863 329.859L530.074 327.422C530.758 327.13 531.278 326.375 531.166 325.449C531.032 324.344 530.178 323.682 528.893 323.836L526.763 324.093L527.523 330.382ZM527.866 327.105L527.569 324.652L528.926 324.489C529.815 324.382 530.331 324.875 530.411 325.54C530.511 326.367 530.004 326.847 529.267 326.936L527.866 327.105ZM532.986 329.724L533.749 329.632L534.135 328.072L537.172 327.706L537.918 329.129L538.682 329.037L535.505 323.039L534.651 323.142L532.986 329.724ZM534.306 327.377L535.149 323.939L535.203 323.933L536.84 327.072L534.306 327.377ZM541.144 328.74L541.872 328.653L541.192 323.028L543.115 322.796L543.035 322.132L538.461 322.683L538.542 323.348L540.464 323.116L541.144 328.74ZM545.505 328.215L546.233 328.127L545.473 321.838L544.745 321.925L545.505 328.215ZM551.204 327.646C553.082 327.42 554.295 325.842 554.071 323.991C553.85 322.159 552.302 320.896 550.425 321.122C548.556 321.347 547.343 322.925 547.566 324.776C547.792 326.645 549.335 327.871 551.204 327.646ZM551.13 326.962C549.693 327.135 548.501 326.176 548.321 324.685C548.143 323.211 549.07 321.978 550.507 321.805C551.945 321.632 553.139 322.609 553.317 324.082C553.497 325.574 552.568 326.789 551.13 326.962ZM556.34 326.908L557.068 326.821L556.461 321.798L556.515 321.792L560.374 326.422L561.147 326.329L560.387 320.04L559.668 320.126L560.275 325.149L560.221 325.155L556.326 320.529L555.58 320.619L556.34 326.908Z" fill="#01090F"/>
<path d="M494.884 363.625C498.774 363.156 501.225 360.367 501.3 357.256L497.256 357.744C496.969 358.779 496.038 359.854 494.451 360.045C492.4 360.292 490.947 358.995 490.706 357.002C490.47 355.047 491.567 353.403 493.619 353.156C495.225 352.962 496.368 353.806 496.724 354.804L500.768 354.316C499.951 351.293 497.115 349.102 493.186 349.576C488.89 350.094 486.354 353.482 486.836 357.468C487.32 361.474 490.568 364.145 494.884 363.625ZM503.375 362.346L507.149 361.891L507.52 359.765L512.126 359.21L512.993 361.187L516.961 360.708L510.892 347.697L506.073 348.277L503.375 362.346ZM508.09 356.359L508.826 352.049L509.02 352.026L510.761 356.037L508.09 356.359ZM519.373 360.417L522.954 359.986L522.044 352.458L522.16 352.444L527.443 359.445L531.604 358.943L529.967 345.397L526.387 345.829L527.296 353.356L527.18 353.37L521.897 346.37L517.736 346.871L519.373 360.417ZM534.027 358.651L537.8 358.196L538.172 356.07L542.777 355.515L543.645 357.491L547.612 357.013L541.543 344.001L536.724 344.582L534.027 358.651ZM538.742 352.664L539.477 348.354L539.671 348.33L541.412 352.342L538.742 352.664ZM550.025 356.722L555.192 356.099C559.546 355.574 561.916 352.599 561.408 348.4C560.931 344.452 557.909 342.028 553.555 342.553L548.388 343.176L550.025 356.722ZM553.354 353.081L552.489 345.921L553.747 345.77C555.198 345.595 557.203 346.099 557.538 348.866C557.891 351.788 556.044 352.757 554.612 352.93L553.354 353.081ZM563.676 355.076L567.45 354.622L567.821 352.496L572.427 351.94L573.294 353.917L577.262 353.439L571.193 340.427L566.374 341.008L563.676 355.076ZM568.391 349.089L569.127 344.779L569.321 344.756L571.062 348.767L568.391 349.089Z" fill="#01090F"/>
<path d="M510.193 383.469L510.809 383.395L511.154 377.954L510.577 378.024C510.535 378.577 510.167 378.845 509.193 378.962L509.162 379.467L510.454 379.311L510.193 383.469ZM514.767 382.918L515.376 382.845L515.464 381.469L516.163 381.384L516.196 380.825L515.497 380.909L515.579 379.681L514.971 379.754L514.888 380.983L513.299 381.174L513.301 381.128L515.166 377.471L514.489 377.552L512.569 381.324L512.537 381.822L514.856 381.542L514.767 382.918ZM518.251 379.613C518.517 379.581 518.738 379.3 518.707 379.041C518.683 378.844 518.52 378.709 518.307 378.735C518.041 378.767 517.819 379.04 517.851 379.299C517.874 379.497 518.046 379.638 518.251 379.613ZM518.067 382.62C518.325 382.589 518.547 382.316 518.516 382.057C518.492 381.86 518.329 381.725 518.116 381.751C517.85 381.783 517.628 382.056 517.66 382.315C517.684 382.512 517.854 382.646 518.067 382.62ZM521.84 382.158C523.117 382.004 523.83 381.008 523.693 379.875C523.607 379.16 523.029 378.652 522.204 378.72L522.206 378.674L523.695 377.021L523.733 376.438L520.639 376.811L520.6 377.386L522.866 377.113L522.864 377.16L521.399 378.825L521.371 379.36L521.987 379.286C522.557 379.217 522.994 379.512 523.059 380.052C523.151 380.812 522.637 381.475 521.869 381.568C521.193 381.65 520.827 381.239 520.846 380.696L520.268 380.766C520.223 381.473 520.753 382.289 521.84 382.158ZM525.276 381.651L528.583 381.252L528.621 380.677L525.93 381.001L525.938 380.877C525.964 380.45 526.17 380.116 526.807 379.638L527.777 378.92C528.492 378.394 528.868 377.739 528.784 377.04C528.702 376.363 528.11 375.81 527.213 375.918C526.073 376.055 525.533 376.884 525.516 377.704L526.117 377.631C526.134 377.074 526.515 376.588 527.184 376.508C527.762 376.438 528.097 376.722 528.151 377.17C528.209 377.649 527.957 378.111 527.482 378.462L526.476 379.2C525.746 379.735 525.36 380.245 525.316 380.96L525.276 381.651ZM532.82 378.705L534.759 378.472L534.797 377.896L532.858 378.13L532.82 378.705ZM540.585 379.906C541.527 379.792 542.32 379.079 542.388 377.976L542.524 375.785C542.594 374.704 541.75 374.166 540.891 374.269C539.948 374.383 539.155 375.095 539.087 376.199L538.951 378.39C538.881 379.471 539.725 380.009 540.585 379.906ZM540.597 379.31C539.959 379.387 539.52 378.947 539.562 378.278L539.693 376.164C539.736 375.504 540.163 374.951 540.878 374.865C541.509 374.788 541.956 375.236 541.913 375.897L541.782 378.01C541.74 378.679 541.32 379.223 540.597 379.31ZM544.587 379.323L545.272 379.24L547.459 374.11L547.495 373.573L544.225 373.967L544.187 374.543L546.787 374.229L546.785 374.276L544.587 379.323ZM548.394 379.697L548.98 379.626L551.704 372.68L551.118 372.751L548.394 379.697ZM552.829 378.329L556.136 377.931L556.174 377.355L553.483 377.68L553.491 377.555C553.517 377.128 553.723 376.795 554.36 376.317L555.329 375.598C556.045 375.072 556.421 374.418 556.336 373.718C556.255 373.042 555.663 372.488 554.766 372.596C553.626 372.734 553.086 373.563 553.069 374.382L553.67 374.31C553.687 373.752 554.068 373.267 554.737 373.186C555.315 373.116 555.65 373.4 555.704 373.848C555.762 374.327 555.509 374.79 555.035 375.14L554.029 375.878C553.299 376.414 552.913 376.923 552.869 377.638L552.829 378.329ZM559.632 377.509L560.241 377.436L560.329 376.06L561.028 375.976L561.061 375.416L560.361 375.501L560.444 374.272L559.836 374.345L559.753 375.574L558.164 375.766L558.166 375.719L560.031 372.062L559.354 372.143L557.434 375.915L557.402 376.413L559.721 376.133L559.632 377.509Z" fill="#01090F"/>
<path d="M466.231 354.561L467.986 358.282L472.153 357.779C472.348 357.756 472.458 357.992 472.314 358.122L469.231 360.925L470.986 364.646C471.069 364.821 470.872 364.998 470.704 364.905L467.043 362.916L463.961 365.718C463.816 365.848 463.587 365.723 463.625 365.533L464.443 361.502L460.786 359.512C460.614 359.42 460.665 359.164 460.86 359.141L465.027 358.638L465.845 354.608C465.884 354.418 466.148 354.386 466.231 354.561Z" fill="#01090F"/>
<path d="M595.66 338.958L597.414 342.679L601.582 342.176C601.777 342.153 601.887 342.389 601.743 342.519L598.66 345.322L600.415 349.043C600.498 349.218 600.301 349.394 600.133 349.302L596.472 347.312L593.39 350.115C593.245 350.245 593.015 350.12 593.054 349.93L593.872 345.899L590.215 343.909C590.043 343.817 590.094 343.561 590.289 343.538L594.456 343.035L595.274 339.004C595.313 338.815 595.577 338.783 595.66 338.958Z" fill="#01090F"/>
<path d="M450.024 336.625L485.57 332.34" stroke="#01090F" stroke-width="0.870195" stroke-miterlimit="10"/>
<path d="M450.356 339.374L485.903 335.089" stroke="#01090F" stroke-width="0.870195" stroke-miterlimit="10"/>
<path d="M570.875 322.056L606.421 317.77" stroke="#01090F" stroke-width="0.870195" stroke-miterlimit="10"/>
<path d="M571.208 324.805L606.754 320.519" stroke="#01090F" stroke-width="0.870195" stroke-miterlimit="10"/>
<path d="M583.022 122.228L599.688 124.135C601.89 124.387 603.471 126.377 603.219 128.58L596.195 189.807C595.943 192.009 593.952 193.591 591.749 193.338L574.292 191.341L478.602 180.392L461.145 178.395C458.942 178.143 457.361 176.153 457.614 173.95L464.637 112.724C464.889 110.521 466.88 108.94 469.083 109.192L485.748 111.099C498.245 97.0492 517.169 89.0975 537.283 91.3989C557.397 93.7003 574.03 105.72 583.022 122.228Z" fill="#9BCDFB" stroke="#9BCDFB" stroke-width="16.0579"/>
<path d="M582.317 122.613L582.516 122.979L582.93 123.026L599.596 124.933C601.358 125.135 602.623 126.727 602.421 128.489L595.398 189.715C595.195 191.477 593.603 192.742 591.841 192.541L574.384 190.543L478.693 179.595L461.236 177.597C459.474 177.396 458.209 175.804 458.411 174.041L465.434 112.815C465.637 111.053 467.229 109.788 468.991 109.989L485.657 111.896L486.071 111.944L486.348 111.632C498.679 97.7698 517.348 89.9261 537.192 92.1965C557.035 94.467 573.445 106.324 582.317 122.613Z" stroke="#01090F" stroke-width="1.60579"/>
<path d="M535.79 103.06C512.519 100.4 491.49 117.09 488.821 140.339L573.094 149.973C575.763 126.724 559.062 105.72 535.79 103.06Z" stroke="#01090F" stroke-width="1.60579" stroke-miterlimit="10"/>
<path d="M512.272 119.837C508.943 126.131 506.54 133.805 505.571 142.246C505.533 142.577 505.495 142.908 505.468 143.241" stroke="#01090F" stroke-width="1.60579" stroke-miterlimit="10"/>
<path d="M554.906 124.716C551.705 112.632 544.728 104.086 535.802 103.066" stroke="#01090F" stroke-width="1.60579" stroke-miterlimit="10"/>
<path d="M554.909 124.716C556.726 131.598 557.327 139.615 556.358 148.057C556.32 148.388 556.282 148.719 556.233 149.049" stroke="#01090F" stroke-width="1.60579" stroke-miterlimit="10"/>
<path d="M512.271 119.84C518.128 108.792 526.861 102.042 535.787 103.062" stroke="#01090F" stroke-width="1.60579" stroke-miterlimit="10"/>
<path d="M512.269 119.838C508.555 118.071 505.278 115.997 502.553 113.706" stroke="#01090F" stroke-width="1.60579" stroke-miterlimit="10"/>
<path d="M512.271 119.837C518.277 122.705 525.416 124.774 533.194 125.664" stroke="#01090F" stroke-width="1.60579" stroke-miterlimit="10"/>
<path d="M565.751 120.936C562.577 122.552 558.915 123.833 554.897 124.716" stroke="#01090F" stroke-width="1.60579" stroke-miterlimit="10"/>
<path d="M533.196 125.665C540.974 126.555 548.397 126.151 554.898 124.713" stroke="#01090F" stroke-width="1.60579" stroke-miterlimit="10"/>
<path d="M533.196 125.663L535.788 103.065" stroke="#01090F" stroke-width="1.60579" stroke-miterlimit="10"/>
<path d="M533.195 125.665L530.846 146.145" stroke="#01090F" stroke-width="1.60579" stroke-miterlimit="10"/>
<rect width="137.674" height="24.4252" transform="matrix(0.993518 0.113677 -0.113962 0.993485 463.428 131.207)" fill="#01090F"/>
<path d="M481.2 151.358L484.299 151.712L484.998 145.615L485.099 145.627L486.594 151.975L488.972 152.247L491.588 146.759L491.688 146.771L491.033 152.483L494.132 152.837L495.477 141.112L491.423 140.648L488.463 147.369L488.362 147.358L486.599 140.096L482.545 139.632L481.2 151.358ZM496.223 153.077L499.49 153.451L500.229 151.736L504.216 152.192L504.549 154.029L507.983 154.422L505.492 142.258L501.32 141.78L496.223 153.077ZM501.394 148.984L502.879 145.506L503.046 145.525L503.705 149.249L501.394 148.984ZM514.054 155.338C516.968 155.671 519.218 153.96 519.545 151.112L520.365 143.96L517.149 143.591L516.33 150.727C516.202 151.85 515.54 152.436 514.401 152.306C513.262 152.175 512.751 151.455 512.88 150.333L513.698 143.197L510.482 142.829L509.661 149.981C509.335 152.829 511.139 155.004 514.054 155.338ZM521.791 156.002L525.008 156.37L525.417 152.802L526.556 152.933L527.889 156.7L531.424 157.104L529.531 152.594C530.753 152.004 531.664 150.87 531.835 149.379C532.109 146.983 530.407 145.108 527.994 144.832L523.136 144.277L521.791 156.002ZM525.728 150.089L526.041 147.358L527.348 147.508C528.119 147.596 528.668 148.134 528.568 149.005C528.466 149.893 527.805 150.326 527.035 150.238L525.728 150.089ZM533.773 157.373L536.99 157.741L538.335 146.016L535.118 145.648L533.773 157.373ZM542.48 158.369L545.696 158.737L546.724 149.776L549.89 150.138L550.207 147.374L540.676 146.283L540.359 149.047L543.508 149.408L542.48 158.369ZM551.21 159.368L554.426 159.736L555.771 148.011L552.555 147.643L551.21 159.368ZM562.103 160.835C565.018 161.169 567.268 159.458 567.594 156.61L568.415 149.457L565.198 149.089L564.38 156.225C564.251 157.347 563.59 157.934 562.451 157.803C561.312 157.673 560.8 156.953 560.929 155.83L561.748 148.694L558.531 148.326L557.711 155.479C557.384 158.327 559.188 160.502 562.103 160.835ZM573.987 162.195C577.086 162.55 579.002 161.089 579.269 158.76C579.813 154.02 573.498 155.062 573.681 153.471C573.733 153.019 574.235 152.788 574.988 152.874C575.876 152.975 576.293 153.481 576.261 154.055L579.444 154.419C579.578 151.922 578.045 150.339 575.315 150.026C572.484 149.702 570.71 151.111 570.47 153.205C569.911 158.08 576.05 157.085 575.873 158.626C575.813 159.146 575.328 159.379 574.407 159.273C573.268 159.143 572.741 158.556 572.757 157.829L569.708 157.48C569.403 159.99 570.905 161.842 573.987 162.195Z" fill="#9BCDFB"/>
<path d="M486.638 171.052L487.524 171.153L488.102 169.991L490.614 170.279L490.914 171.541L491.823 171.645L490.39 165.824L489.345 165.705L486.638 171.052ZM488.462 169.248L489.721 166.726L489.777 166.732L490.432 169.474L488.462 169.248ZM493.144 171.796L494.006 171.895L494.249 169.773L495.302 169.894L496.199 172.146L497.173 172.257L496.162 169.863C496.802 169.71 497.365 169.168 497.457 168.37C497.573 167.357 496.92 166.572 495.779 166.441L493.785 166.213L493.144 171.796ZM494.335 169.023L494.561 167.053L495.622 167.175C496.316 167.254 496.634 167.727 496.571 168.269C496.495 168.931 496.018 169.216 495.428 169.149L494.335 169.023ZM498.679 172.43L499.54 172.528L499.783 170.406L500.836 170.527L501.734 172.779L502.707 172.891L501.697 170.496C502.336 170.343 502.9 169.801 502.991 169.004C503.107 167.991 502.454 167.205 501.313 167.074L499.319 166.846L498.679 172.43ZM499.869 169.657L500.095 167.686L501.156 167.808C501.85 167.887 502.168 168.36 502.106 168.902C502.03 169.564 501.553 169.849 500.962 169.782L499.869 169.657ZM504.213 173.063L505.074 173.162L505.715 167.578L504.853 167.479L504.213 173.063ZM508.466 173.55L509.415 173.658L512.153 168.315L511.196 168.205L509.081 172.553L509.033 172.548L507.981 167.837L507.048 167.73L508.466 173.55ZM511.872 173.939L512.757 174.041L513.335 172.878L515.848 173.166L516.147 174.428L517.057 174.533L515.623 168.712L514.578 168.592L511.872 173.939ZM513.695 172.136L514.954 169.613L515.01 169.619L515.665 172.361L513.695 172.136ZM518.377 174.684L521.568 175.049L521.656 174.283L519.327 174.016L519.879 169.199L519.018 169.1L518.377 174.684Z" fill="#01090F"/>
<path d="M531.449 177.186L531.901 177.237L532.35 173.329L531.925 173.28C531.88 173.677 531.599 173.809 530.884 173.727L530.842 174.09L531.792 174.198L531.449 177.186ZM534.808 177.57L535.255 177.621L535.368 176.633L535.882 176.692L535.928 176.29L535.415 176.231L535.516 175.349L535.069 175.297L534.968 176.18L533.79 176.045L533.794 176.011L535.273 173.663L534.799 173.609L533.26 176.03L533.219 176.387L534.922 176.582L534.808 177.57ZM537.474 175.759C537.647 175.779 537.803 175.65 537.823 175.477C537.843 175.304 537.719 175.148 537.546 175.128C537.373 175.109 537.212 175.232 537.192 175.405C537.172 175.578 537.301 175.739 537.474 175.759ZM537.226 177.92C537.399 177.94 537.554 177.816 537.574 177.643C537.594 177.47 537.471 177.315 537.298 177.295C537.124 177.275 536.963 177.398 536.943 177.571C536.924 177.744 537.053 177.9 537.226 177.92ZM539.982 178.23C540.814 178.325 541.351 177.781 541.427 177.117C541.506 176.436 541.026 175.883 540.364 175.785L540.368 175.751L541.54 174.805L541.588 174.386L539.315 174.126L539.268 174.539L540.96 174.733L540.956 174.766L539.799 175.726L539.755 176.111L540.208 176.163C540.688 176.218 541.019 176.584 540.963 177.075C540.904 177.589 540.527 177.862 540.03 177.805C539.573 177.753 539.29 177.404 539.326 176.995L538.901 176.947C538.843 177.455 539.178 178.138 539.982 178.23ZM542.526 178.453L544.955 178.731L545.003 178.318L543.026 178.092L543.036 178.002C543.072 177.695 543.226 177.487 543.717 177.249L544.454 176.892C544.945 176.654 545.197 176.326 545.249 175.874C545.316 175.293 544.91 174.692 544.167 174.607C543.391 174.519 542.908 175.08 542.846 175.616L543.271 175.665C543.316 175.268 543.666 174.98 544.107 175.03C544.593 175.086 544.831 175.424 544.784 175.832C544.745 176.178 544.539 176.392 544.264 176.525L543.503 176.89C542.958 177.156 542.642 177.448 542.582 177.967L542.526 178.453ZM548.141 177.602L549.565 177.765L549.612 177.352L548.188 177.189L548.141 177.602ZM553.747 179.811C554.384 179.883 555.062 179.491 555.151 178.715L555.332 177.141C555.421 176.365 554.849 175.83 554.212 175.757C553.576 175.684 552.897 176.076 552.808 176.852L552.628 178.427C552.538 179.203 553.111 179.738 553.747 179.811ZM553.797 179.381C553.322 179.326 553.022 178.93 553.077 178.45L553.252 176.931C553.306 176.456 553.694 176.133 554.163 176.187C554.632 176.24 554.937 176.643 554.882 177.118L554.708 178.636C554.653 179.117 554.271 179.435 553.797 179.381ZM556.732 180.079L557.212 180.133L558.996 176.768L559.04 176.383L556.639 176.108L556.592 176.521L558.524 176.742L558.52 176.776L556.732 180.079ZM559.498 181.006L559.905 181.053L562.147 176.455L561.739 176.409L559.498 181.006ZM562.763 180.769L565.192 181.046L565.239 180.633L563.263 180.407L563.273 180.318C563.308 180.011 563.462 179.802 563.953 179.564L564.69 179.207C565.181 178.969 565.434 178.642 565.486 178.189C565.552 177.609 565.146 177.008 564.403 176.923C563.627 176.834 563.144 177.395 563.083 177.931L563.507 177.98C563.552 177.584 563.902 177.295 564.343 177.346C564.829 177.402 565.068 177.74 565.021 178.148C564.981 178.494 564.776 178.708 564.5 178.84L563.74 179.206C563.194 179.472 562.878 179.763 562.819 180.283L562.763 180.769ZM567.76 181.34L568.207 181.391L568.32 180.403L568.834 180.462L568.88 180.06L568.366 180.001L568.467 179.119L568.02 179.068L567.919 179.95L566.741 179.815L566.745 179.782L568.225 177.434L567.75 177.379L566.211 179.8L566.17 180.157L567.873 180.352L567.76 181.34Z" fill="#01090F"/>
<rect width="106.199" height="106.07" rx="13.0751" transform="matrix(0.989583 0.14396 -0.144318 0.989531 361.854 253.726)" fill="#9BCDFB" stroke="#9BCDFB" stroke-width="13.8442"/>
<rect width="106.199" height="106.07" rx="13.0751" transform="matrix(0.989583 0.14396 -0.144318 0.989531 361.854 253.726)" stroke="#01090F" stroke-width="1.42765"/>
<path d="M367.817 354.523C368.481 354.619 369.203 354.231 369.321 353.422L369.561 351.78C369.679 350.97 369.097 350.392 368.434 350.296C367.77 350.199 367.047 350.588 366.929 351.397L366.69 353.039C366.572 353.848 367.153 354.426 367.817 354.523ZM367.882 354.074C367.388 354.002 367.087 353.578 367.16 353.077L367.391 351.494C367.463 350.999 367.879 350.673 368.368 350.744C368.857 350.815 369.163 351.246 369.091 351.741L368.86 353.325C368.787 353.825 368.377 354.146 367.882 354.074ZM371.788 355.1C372.452 355.197 373.175 354.809 373.293 353.999L373.532 352.357C373.65 351.548 373.069 350.97 372.405 350.873C371.741 350.777 371.019 351.165 370.901 351.975L370.661 353.616C370.543 354.426 371.125 355.004 371.788 355.1ZM371.854 354.652C371.359 354.58 371.058 354.156 371.131 353.655L371.362 352.071C371.434 351.577 371.85 351.251 372.34 351.322C372.829 351.393 373.134 351.824 373.062 352.319L372.831 353.902C372.758 354.403 372.349 354.724 371.854 354.652ZM375.76 355.678C376.424 355.775 377.146 355.386 377.264 354.577L377.504 352.935C377.622 352.126 377.04 351.548 376.376 351.451C375.712 351.355 374.99 351.743 374.872 352.552L374.632 354.194C374.514 355.003 375.096 355.582 375.76 355.678ZM375.825 355.23C375.33 355.158 375.029 354.733 375.102 354.233L375.333 352.649C375.406 352.154 375.822 351.828 376.311 351.899C376.8 351.971 377.106 352.402 377.034 352.896L376.803 354.48C376.73 354.981 376.32 355.302 375.825 355.23ZM379.731 356.256C380.395 356.352 381.117 355.964 381.236 355.155L381.475 353.513C381.593 352.704 381.011 352.125 380.348 352.029C379.684 351.932 378.961 352.321 378.843 353.13L378.604 354.772C378.486 355.581 379.067 356.159 379.731 356.256ZM379.797 355.807C379.302 355.736 379.001 355.311 379.074 354.811L379.305 353.227C379.377 352.732 379.793 352.406 380.282 352.477C380.771 352.548 381.077 352.979 381.005 353.474L380.774 355.058C380.701 355.559 380.291 355.879 379.797 355.807ZM383.702 356.834C384.366 356.93 385.089 356.542 385.207 355.732L385.446 354.091C385.564 353.281 384.983 352.703 384.319 352.607C383.655 352.51 382.933 352.898 382.815 353.708L382.575 355.35C382.457 356.159 383.039 356.737 383.702 356.834ZM383.768 356.385C383.273 356.313 382.972 355.889 383.045 355.388L383.276 353.805C383.348 353.31 383.764 352.984 384.254 353.055C384.743 353.126 385.048 353.557 384.976 354.052L384.745 355.636C384.672 356.136 384.263 356.457 383.768 356.385ZM387.212 357.267L387.683 357.335L388.278 353.26L387.835 353.195C387.775 353.609 387.477 353.738 386.731 353.629L386.676 354.008L387.666 354.152L387.212 357.267ZM389.859 357.652L390.394 357.73L391.84 355.847C391.995 355.644 392.12 355.4 392.16 355.121C392.272 354.352 391.768 353.69 391 353.579C390.231 353.467 389.546 353.968 389.435 354.724C389.324 355.487 389.812 356.141 390.586 356.253C390.714 356.272 390.87 356.265 390.969 356.238L390.989 356.264L389.859 357.652ZM390.671 355.832C390.136 355.754 389.847 355.29 389.919 354.795C389.992 354.294 390.4 353.943 390.935 354.021C391.465 354.098 391.757 354.545 391.683 355.051C391.611 355.546 391.201 355.909 390.671 355.832ZM394.383 358.387C395.187 358.504 395.815 358.108 395.923 357.369C396.01 356.769 395.625 356.392 395.385 356.25L395.39 356.215C395.621 356.136 395.961 355.882 396.029 355.422C396.124 354.77 395.646 354.254 395 354.16C394.347 354.066 393.748 354.424 393.653 355.076C393.586 355.536 393.839 355.876 394.039 356.018L394.034 356.053C393.762 356.121 393.286 356.373 393.198 356.972C393.09 357.712 393.58 358.27 394.383 358.387ZM394.74 355.942C394.315 355.88 394.074 355.53 394.128 355.163C394.181 354.796 394.493 354.533 394.936 354.597C395.378 354.661 395.602 355.003 395.549 355.37C395.495 355.737 395.165 356.004 394.74 355.942ZM394.446 357.956C393.881 357.874 393.619 357.468 393.681 357.043C393.756 356.53 394.199 356.303 394.677 356.373C395.154 356.442 395.514 356.786 395.44 357.298C395.378 357.723 395.011 358.039 394.446 357.956ZM398.726 358.942L399.191 359.01L399.342 357.979L399.877 358.057L399.939 357.638L399.403 357.56L399.537 356.64L399.071 356.572L398.937 357.492L397.708 357.313L397.714 357.278L399.337 354.869L398.843 354.797L397.154 357.28L397.1 357.653L398.876 357.911L398.726 358.942ZM401.344 359.323L401.844 359.395L403.818 355.931L403.877 355.529L401.373 355.165L401.31 355.596L403.325 355.889L403.32 355.924L401.344 359.323ZM405.727 360.038C406.478 360.147 407.158 359.645 407.271 358.871C407.374 358.161 406.91 357.469 406.136 357.356C405.629 357.282 405.339 357.52 405.339 357.52L405.304 357.515L405.582 356.217L407.358 356.476L407.421 356.045L405.232 355.726L404.757 358.006L405.188 358.068C405.274 357.962 405.537 357.709 405.991 357.775C406.55 357.856 406.87 358.277 406.793 358.801C406.713 359.349 406.262 359.669 405.773 359.598C405.325 359.533 405.024 359.234 405.013 358.774L404.571 358.71C404.523 359.405 405.022 359.935 405.727 360.038ZM409.683 360.613C410.451 360.725 411.137 360.224 411.247 359.467C411.358 358.704 410.871 358.051 410.097 357.938C409.968 357.92 409.813 357.927 409.714 357.954L409.694 357.927L410.824 356.54L410.288 356.462L408.842 358.344C408.688 358.548 408.563 358.791 408.522 359.071C408.41 359.839 408.914 360.501 409.683 360.613ZM409.747 360.171C409.217 360.093 408.926 359.647 409 359.14C409.072 358.645 409.481 358.283 410.011 358.36C410.547 358.438 410.836 358.902 410.764 359.397C410.691 359.898 410.283 360.248 409.747 360.171ZM413.596 361.176C414.463 361.303 415.043 360.751 415.144 360.058C415.248 359.348 414.764 358.754 414.074 358.63L414.079 358.595L415.336 357.642L415.4 357.205L413.03 356.861L412.967 357.292L414.731 357.548L414.726 357.583L413.485 358.55L413.427 358.952L413.898 359.02C414.399 359.093 414.734 359.487 414.659 359.999C414.581 360.535 414.179 360.809 413.66 360.734C413.183 360.664 412.899 360.29 412.949 359.863L412.506 359.799C412.429 360.329 412.757 361.054 413.596 361.176ZM417.527 361.754C418.278 361.863 418.958 361.362 419.071 360.587C419.174 359.877 418.71 359.185 417.936 359.073C417.43 358.999 417.139 359.236 417.139 359.236L417.104 359.231L417.383 357.934L419.159 358.192L419.221 357.761L417.032 357.443L416.557 359.722L416.988 359.785C417.075 359.679 417.338 359.426 417.792 359.492C418.351 359.573 418.67 359.994 418.593 360.518C418.514 361.065 418.062 361.386 417.573 361.315C417.125 361.25 416.824 360.95 416.814 360.491L416.371 360.427C416.323 361.121 416.823 361.652 417.527 361.754ZM420.143 362.057L422.676 362.426L422.739 361.995L420.678 361.695L420.691 361.602C420.738 361.282 420.906 361.068 421.427 360.835L422.21 360.485C422.731 360.252 423.006 359.917 423.075 359.446C423.163 358.84 422.757 358.198 421.983 358.086C421.174 357.968 420.65 358.54 420.569 359.099L421.011 359.163C421.071 358.75 421.447 358.46 421.907 358.527C422.413 358.6 422.652 358.962 422.59 359.387C422.537 359.748 422.315 359.965 422.023 360.095L421.215 360.454C420.636 360.714 420.296 361.009 420.217 361.551L420.143 362.057ZM425.25 362.878C426.053 362.995 426.682 362.598 426.79 361.859C426.877 361.259 426.492 360.882 426.251 360.74L426.256 360.705C426.488 360.626 426.828 360.372 426.895 359.912C426.99 359.26 426.512 358.745 425.866 358.651C425.214 358.556 424.615 358.915 424.52 359.567C424.453 360.027 424.706 360.367 424.905 360.509L424.9 360.544C424.629 360.611 424.152 360.863 424.065 361.463C423.957 362.202 424.446 362.761 425.25 362.878ZM425.606 360.432C425.181 360.37 424.941 360.02 424.995 359.654C425.048 359.287 425.36 359.023 425.803 359.087C426.245 359.152 426.469 359.493 426.415 359.86C426.362 360.227 426.031 360.494 425.606 360.432ZM425.313 362.447C424.748 362.365 424.486 361.958 424.548 361.533C424.623 361.021 425.066 360.794 425.544 360.863C426.021 360.933 426.381 361.276 426.306 361.789C426.244 362.214 425.877 362.529 425.313 362.447ZM428.381 363.256L428.882 363.329L430.856 359.864L430.914 359.462L428.411 359.098L428.348 359.529L430.363 359.822L430.357 359.857L428.381 363.256ZM432.881 363.911L433.347 363.978L433.497 362.948L434.033 363.026L434.094 362.607L433.559 362.529L433.693 361.609L433.227 361.541L433.093 362.461L431.864 362.282L431.869 362.247L433.493 359.838L432.998 359.766L431.31 362.249L431.256 362.622L433.032 362.88L432.881 363.911Z" fill="#01090F"/>
<path d="M426.999 291.122L414.503 278.817C414.592 278.311 414.666 277.861 414.72 277.486C415.459 272.418 414.723 268.116 413.076 267.877C411.429 267.637 409.495 271.551 408.756 276.618C408.701 276.993 408.643 277.446 408.584 277.956L393.093 286.19C392.626 286.439 392.851 287.155 393.377 287.083L407.942 285.038C407.684 288.645 407.495 292.597 407.517 295.631L402.167 298.681C402.036 298.755 401.943 298.89 401.92 299.043L401.785 299.973C401.734 300.321 402.048 300.609 402.39 300.526L407.709 299.206C407.833 300.107 408.021 300.653 408.294 300.693C408.567 300.733 408.903 300.262 409.28 299.434L414.001 302.215C414.3 302.391 414.688 302.205 414.738 301.857L414.874 300.928C414.896 300.775 414.849 300.623 414.741 300.51L410.484 296.063C411.368 293.165 412.316 289.322 413.103 285.789L426.479 291.898C426.958 292.116 427.382 291.495 427.006 291.124L426.999 291.122Z" fill="#01090F"/>
<path d="M377.845 344.739L378.544 344.84L379.205 340.312L378.506 340.21L377.845 344.739ZM380.085 345.065L380.757 345.162L381.214 342.031L381.253 342.037L382.142 345.364L382.815 345.462L384.496 342.542L384.535 342.548L384.083 345.646L384.756 345.744L385.416 341.216L384.607 341.098L382.639 344.538L382.6 344.532L381.56 340.655L380.745 340.536L380.085 345.065ZM386.298 345.968L386.971 346.066L387.427 342.935L387.466 342.941L388.355 346.268L389.028 346.366L390.709 343.446L390.748 343.451L390.296 346.55L390.969 346.648L391.629 342.12L390.821 342.002L388.852 345.442L388.813 345.436L387.773 341.559L386.958 341.44L386.298 345.968ZM392.511 346.872L393.21 346.974L393.87 342.446L393.171 342.344L392.511 346.872ZM396.72 347.571C398.014 347.759 399.17 347.035 399.381 345.408L396.974 345.057L396.888 345.646L398.519 345.883C398.359 346.613 397.65 347.039 396.822 346.918C395.845 346.776 395.29 345.962 395.432 344.985C395.573 344.021 396.332 343.392 397.309 343.534C398.001 343.634 398.441 344.062 398.579 344.61L399.349 344.722C399.205 343.803 398.498 343.033 397.405 342.874C396.033 342.674 394.902 343.547 394.708 344.88C394.511 346.225 395.355 347.372 396.72 347.571ZM400.294 348.005L400.992 348.106L401.243 346.385L402.097 346.51L402.772 348.365L403.561 348.48L402.798 346.506C403.323 346.397 403.795 345.97 403.889 345.323C404.009 344.502 403.497 343.846 402.572 343.711L400.954 343.476L400.294 348.005ZM401.332 345.777L401.565 344.179L402.426 344.305C402.988 344.386 403.235 344.779 403.171 345.219C403.093 345.756 402.697 345.976 402.218 345.906L401.332 345.777ZM404.323 348.591L405.041 348.695L405.54 347.764L407.578 348.06L407.79 349.095L408.528 349.202L407.506 344.429L406.659 344.306L404.323 348.591ZM405.852 347.168L406.939 345.146L406.985 345.153L407.45 347.401L405.852 347.168ZM410.222 349.449L410.914 349.55L411.484 345.642L412.83 345.838L412.92 345.217L409.537 344.725L409.446 345.346L410.792 345.541L410.222 349.449ZM413.412 349.913L414.11 350.014L414.771 345.486L414.072 345.384L413.412 349.913ZM417.627 350.612C418.992 350.811 420.143 349.941 420.337 348.608C420.53 347.288 419.683 346.115 418.318 345.916C416.96 345.719 415.802 346.588 415.608 347.92C415.412 349.266 416.268 350.414 417.627 350.612ZM417.73 349.953C416.779 349.815 416.191 348.996 416.333 348.026C416.472 347.068 417.271 346.438 418.222 346.576C419.173 346.715 419.759 347.546 419.619 348.504C419.478 349.474 418.681 350.091 417.73 349.953ZM421.276 351.057L421.962 351.157L422.451 347.806L422.49 347.811L424.136 351.473L424.886 351.582L425.547 347.054L424.868 346.955L424.379 350.306L424.34 350.3L422.681 346.637L421.937 346.529L421.276 351.057Z" fill="#01090F"/>
<rect width="105.462" height="28.7274" transform="matrix(0.989583 0.14396 -0.144318 0.989531 354.944 301.104)" fill="#01090F"/>
<path d="M363.058 323.559L366.536 324.065L367.197 319.537L371.526 320.167L371.954 317.232L367.625 316.603L367.958 314.32L372.867 315.034L373.295 312.1L364.908 310.88L363.058 323.559ZM374.158 325.174L377.636 325.68L379.485 313.001L376.007 312.495L374.158 325.174ZM380.711 326.127L384.062 326.615L385.089 319.569L385.198 319.585L388.264 327.226L392.159 327.793L394.008 315.113L390.657 314.626L389.629 321.672L389.521 321.656L386.454 314.015L382.56 313.448L380.711 326.127ZM395.242 328.241L403.466 329.438L403.915 326.358L399.169 325.668L400.569 316.068L397.091 315.562L395.242 328.241ZM405.278 329.701L408.811 330.215L409.67 328.38L413.982 329.007L414.281 331.011L417.995 331.551L415.696 318.268L411.185 317.612L405.278 329.701ZM411.025 325.432L412.752 321.706L412.934 321.733L413.525 325.796L411.025 325.432ZM420.253 331.88L423.604 332.367L424.632 325.321L424.741 325.337L427.807 332.979L431.701 333.545L433.551 320.866L430.199 320.378L429.172 327.425L429.063 327.409L425.997 319.767L422.102 319.2L420.253 331.88ZM434.784 333.994L439.621 334.697C443.697 335.29 446.576 333.175 447.15 329.244C447.689 325.549 445.546 322.611 441.47 322.018L436.634 321.314L434.784 333.994ZM438.698 331.511L439.676 324.809L440.853 324.98C442.212 325.178 443.905 326.127 443.527 328.717C443.128 331.453 441.216 331.877 439.876 331.682L438.698 331.511Z" fill="#9BCDFB"/>
<path d="M431.807 348.982L450.855 351.753" stroke="#01090F" stroke-width="0.817191" stroke-miterlimit="10"/>
<path d="M431.469 351.298L450.517 354.069" stroke="#01090F" stroke-width="0.817191" stroke-miterlimit="10"/>
<path d="M431.131 353.614L450.179 356.385" stroke="#01090F" stroke-width="0.817191" stroke-miterlimit="10"/>
<path d="M353.645 337.611L372.693 340.383" stroke="#01090F" stroke-width="0.817191" stroke-miterlimit="10"/>
<path d="M353.308 339.927L372.356 342.698" stroke="#01090F" stroke-width="0.817191" stroke-miterlimit="10"/>
<path d="M352.97 342.243L372.018 345.014" stroke="#01090F" stroke-width="0.817191" stroke-miterlimit="10"/>
<path fill-rule="evenodd" clip-rule="evenodd" d="M541.774 283.856C533.529 301.238 514.59 311.937 494.574 308.89C470.135 305.169 453.343 282.366 457.068 257.958C460.793 233.549 483.625 216.778 508.064 220.499C527.847 223.511 542.619 239.026 545.554 257.775C546.558 257.428 547.504 257.032 548.449 256.636C551.928 255.18 555.407 253.724 561.772 254.693C568.136 255.662 571.023 258.084 573.91 260.506C576.797 262.928 579.684 265.35 586.049 266.319C592.413 267.288 595.892 265.835 599.37 264.382C602.78 262.957 606.191 261.533 612.323 262.391C612.522 262.419 612.666 262.606 612.636 262.805L608.754 288.239C608.724 288.438 608.53 288.573 608.331 288.545C602.192 287.685 598.781 289.111 595.371 290.536C591.895 291.989 588.42 293.441 582.057 292.472C575.69 291.503 572.801 289.08 569.912 286.657C567.024 284.236 564.137 281.815 557.78 280.847C551.423 279.879 547.944 281.334 544.465 282.79C543.584 283.158 542.702 283.527 541.774 283.856Z" fill="#00AC6B"/>
<path d="M541.774 283.856L539.827 278.367L537.548 279.175L536.512 281.36L541.774 283.856ZM494.574 308.89L495.451 303.131L495.451 303.131L494.574 308.89ZM457.068 257.958L462.826 258.836L457.068 257.958ZM508.064 220.499L507.188 226.257L508.064 220.499ZM545.554 257.775L539.8 258.676L540.877 265.555L547.458 263.279L545.554 257.775ZM548.449 256.636L550.698 262.009L550.698 262.009L548.449 256.636ZM561.772 254.693L562.648 248.935L561.772 254.693ZM573.91 260.506L577.653 256.044L577.653 256.044L573.91 260.506ZM586.049 266.319L585.172 272.077L586.049 266.319ZM599.37 264.382L601.615 269.756L601.615 269.756L599.37 264.382ZM612.323 262.391L611.515 268.159L611.515 268.159L612.323 262.391ZM612.636 262.805L618.394 263.684L618.394 263.684L612.636 262.805ZM608.754 288.239L614.512 289.118L614.512 289.118L608.754 288.239ZM608.331 288.545L609.139 282.777L609.139 282.777L608.331 288.545ZM595.371 290.536L597.617 295.91L597.617 295.91L595.371 290.536ZM582.057 292.472L581.18 298.231L582.057 292.472ZM569.912 286.657L566.169 291.12L566.169 291.12L569.912 286.657ZM544.465 282.79L546.712 288.163L546.712 288.163L544.465 282.79ZM536.512 281.36C529.339 296.48 512.859 305.782 495.451 303.131L493.697 314.648C516.322 318.092 537.718 305.997 547.037 286.352L536.512 281.36ZM495.451 303.131C474.186 299.894 459.587 280.057 462.826 258.836L451.31 257.079C447.098 284.674 466.084 310.444 493.697 314.648L495.451 303.131ZM462.826 258.836C466.065 237.614 485.921 223.019 507.188 226.257L508.941 214.741C481.329 210.537 455.522 229.485 451.31 257.079L462.826 258.836ZM507.188 226.257C524.392 228.876 537.247 242.368 539.8 258.676L551.309 256.874C547.991 235.684 531.303 218.145 508.941 214.741L507.188 226.257ZM547.458 263.279C548.664 262.862 549.776 262.395 550.698 262.009L546.201 251.263C545.231 251.669 544.452 251.993 543.651 252.27L547.458 263.279ZM550.698 262.009C553.84 260.694 556.116 259.724 560.895 260.451L562.648 248.935C554.697 247.725 550.016 249.667 546.201 251.263L550.698 262.009ZM560.895 260.451C565.676 261.179 567.56 262.781 570.167 264.968L577.653 256.044C574.487 253.387 570.597 250.145 562.648 248.935L560.895 260.451ZM570.167 264.968C573.333 267.625 577.223 270.866 585.172 272.077L586.925 260.561C582.144 259.833 580.26 258.231 577.653 256.044L570.167 264.968ZM585.172 272.077C593.121 273.287 597.8 271.35 601.615 269.756L597.125 259.007C593.983 260.32 591.706 261.288 586.925 260.561L585.172 272.077ZM601.615 269.756C604.718 268.46 606.947 267.52 611.515 268.159L613.131 256.623C605.434 255.545 600.843 257.454 597.125 259.007L601.615 269.756ZM611.515 268.159C608.616 267.754 606.402 265.049 606.878 261.926L618.394 263.684C618.931 260.163 616.428 257.085 613.131 256.623L611.515 268.159ZM606.878 261.926L602.996 287.36L614.512 289.118L618.394 263.684L606.878 261.926ZM602.996 287.36C603.478 284.208 606.384 282.391 609.139 282.777L607.523 294.313C610.677 294.755 613.97 292.668 614.512 289.118L602.996 287.36ZM609.139 282.777C601.435 281.698 596.844 283.608 593.125 285.162L597.617 295.91C600.718 294.614 602.948 293.673 607.523 294.313L609.139 282.777ZM593.125 285.162C589.986 286.474 587.713 287.442 582.933 286.714L581.18 298.231C589.128 299.44 593.804 297.504 597.617 295.91L593.125 285.162ZM582.933 286.714C578.151 285.986 576.264 284.383 573.654 282.195L566.169 291.12C569.337 293.777 573.23 297.02 581.18 298.231L582.933 286.714ZM573.654 282.195C570.488 279.539 566.598 276.298 558.656 275.089L556.903 286.605C561.676 287.332 563.56 288.932 566.169 291.12L573.654 282.195ZM558.656 275.089C550.713 273.88 546.031 275.821 542.217 277.416L546.712 288.163C549.857 286.848 552.132 285.879 556.903 286.605L558.656 275.089ZM542.217 277.416C541.315 277.794 540.579 278.1 539.827 278.367L543.722 289.345C544.826 288.954 545.853 288.523 546.712 288.163L542.217 277.416Z" fill="#00AC6B"/>
<path d="M535.129 258.567C547.855 260.504 549.038 252.755 561.764 254.692C574.49 256.63 573.308 264.379 586.045 266.318C598.782 268.257 599.954 260.506 612.691 262.445" stroke="#01090F" stroke-width="1.4561" stroke-miterlimit="10" stroke-linecap="round"/>
<path d="M533.799 267.285C546.525 269.222 547.708 261.473 560.434 263.41C573.16 265.347 571.977 273.097 584.714 275.036C597.451 276.975 598.623 269.224 611.36 271.163" stroke="#01090F" stroke-width="1.4561" stroke-miterlimit="10" stroke-linecap="round"/>
<path d="M532.468 276.002C545.195 277.94 546.377 270.19 559.104 272.128C571.83 274.065 570.647 281.814 583.384 283.753C596.121 285.693 597.293 277.942 610.03 279.881" stroke="#01090F" stroke-width="1.4561" stroke-miterlimit="10" stroke-linecap="round"/>
<path d="M531.137 284.72C543.864 286.658 545.046 278.908 557.773 280.846C570.499 282.783 569.316 290.533 582.053 292.472C594.79 294.411 595.962 286.66 608.699 288.599" stroke="#01090F" stroke-width="1.4561" stroke-miterlimit="10" stroke-linecap="round"/>
<path d="M473.736 282.563L474.917 282.743C476.104 282.923 476.909 282.317 477.085 281.162C477.251 280.077 476.672 279.2 475.486 279.019L474.305 278.839L473.736 282.563ZM474.387 282.15L474.802 279.432L475.398 279.523C476.174 279.641 476.633 280.206 476.5 281.073C476.362 281.977 475.749 282.358 474.983 282.241L474.387 282.15ZM477.346 283.112L477.936 283.202L478.352 282.438L480.028 282.693L480.197 283.547L480.803 283.639L479.989 279.705L479.292 279.598L477.346 283.112ZM478.612 281.95L479.518 280.292L479.555 280.297L479.926 282.15L478.612 281.95ZM482.196 283.851L482.766 283.938L483.256 280.724L484.362 280.893L484.44 280.382L481.658 279.959L481.58 280.469L482.687 280.638L482.196 283.851ZM484.819 284.25L487.08 284.594L487.157 284.094L485.47 283.838L485.644 282.699L487.043 282.912L487.119 282.412L485.72 282.199L485.885 281.119L487.518 281.368L487.595 280.863L485.388 280.526L484.819 284.25ZM488.667 282.887C488.869 282.918 489.041 282.786 489.071 282.59C489.101 282.393 488.975 282.221 488.773 282.19C488.581 282.161 488.394 282.285 488.364 282.482C488.334 282.679 488.475 282.858 488.667 282.887ZM488.365 284.861C488.568 284.892 488.739 284.765 488.769 284.568C488.799 284.372 488.674 284.195 488.472 284.164C488.28 284.135 488.092 284.264 488.062 284.461C488.032 284.658 488.174 284.832 488.365 284.861ZM491.668 285.293L492.042 285.35L492.423 282.851L492.452 282.855L493.186 285.524L493.627 285.591L495.028 283.247L495.057 283.251L494.675 285.751L495.049 285.807L495.56 282.456L495.134 282.391L493.486 285.134L493.457 285.129L492.606 282.006L492.18 281.942L491.668 285.293ZM496.295 285.997L496.668 286.054L497.05 283.555L497.078 283.559L497.813 286.228L498.253 286.295L499.654 283.951L499.683 283.956L499.302 286.455L499.675 286.512L500.187 283.16L499.76 283.096L498.112 285.838L498.083 285.833L497.232 282.711L496.806 282.646L496.295 285.997ZM500.627 287.186L500.976 287.239L503.054 283.352L502.704 283.299L500.627 287.186ZM503.537 287.1L504.533 287.251C505.596 287.413 506.311 286.87 506.469 285.831C506.618 284.855 506.107 284.062 505.044 283.9L504.048 283.748L503.537 287.1ZM503.977 286.814L504.383 284.157L504.991 284.249C505.795 284.372 506.195 284.962 506.072 285.771C505.943 286.614 505.38 287.028 504.585 286.907L503.977 286.814ZM507.219 287.66L508.215 287.812C509.278 287.974 509.992 287.431 510.151 286.392C510.3 285.415 509.789 284.622 508.726 284.46L507.73 284.309L507.219 287.66ZM507.659 287.375L508.065 284.717L508.673 284.81C509.477 284.932 509.877 285.522 509.754 286.331C509.625 287.174 509.062 287.588 508.267 287.467L507.659 287.375ZM510.606 288.705L510.956 288.758L513.033 284.871L512.684 284.818L510.606 288.705ZM514.354 288.746L514.747 288.806L514.943 287.518L516.479 285.641L516.039 285.574L514.817 287.093L514.789 287.088L514.066 285.273L513.645 285.209L514.551 287.459L514.354 288.746ZM517.667 289.251L518.059 289.311L518.256 288.023L519.792 286.145L519.351 286.078L518.13 287.597L518.101 287.592L517.379 285.778L516.957 285.714L517.863 287.963L517.667 289.251ZM473.467 289.603L474.037 289.689L474.527 286.476L475.634 286.645L475.712 286.134L472.929 285.71L472.851 286.221L473.958 286.39L473.467 289.603ZM476.09 290.002L476.665 290.089L477.233 286.366L476.659 286.278L476.09 290.002ZM477.932 290.282L478.485 290.367L478.878 287.792L478.91 287.797L479.624 290.54L480.177 290.624L481.577 288.23L481.608 288.235L481.22 290.783L481.773 290.867L482.341 287.143L481.676 287.042L480.037 289.863L480.005 289.858L479.17 286.661L478.5 286.559L477.932 290.282ZM483.041 291.06L485.302 291.404L485.378 290.904L483.692 290.648L483.866 289.509L485.265 289.722L485.341 289.222L483.942 289.009L484.107 287.929L485.74 288.178L485.817 287.672L483.609 287.336L483.041 291.06ZM486.888 289.697C487.09 289.728 487.263 289.596 487.293 289.4C487.323 289.203 487.197 289.031 486.995 289C486.803 288.971 486.616 289.095 486.585 289.292C486.555 289.489 486.697 289.668 486.888 289.697ZM486.587 291.671C486.789 291.702 486.961 291.575 486.991 291.378C487.021 291.182 486.896 291.005 486.693 290.974C486.502 290.945 486.313 291.074 486.283 291.271C486.253 291.468 486.396 291.642 486.587 291.671ZM490.517 292.198L490.905 292.257L491.416 288.906L491.052 288.85C491 289.19 490.754 289.295 490.141 289.202L490.094 289.513L490.908 289.637L490.517 292.198ZM493.397 292.637L493.78 292.695L493.91 291.848L494.35 291.915L494.403 291.57L493.962 291.503L494.078 290.746L493.695 290.688L493.579 291.445L492.569 291.291L492.573 291.262L493.923 289.288L493.516 289.226L492.113 291.261L492.066 291.567L493.527 291.789L493.397 292.637ZM495.751 291.163C495.899 291.185 496.038 291.079 496.06 290.931C496.083 290.782 495.982 290.644 495.833 290.622C495.685 290.599 495.542 290.7 495.519 290.848C495.497 290.997 495.602 291.14 495.751 291.163ZM495.468 293.016C495.616 293.038 495.754 292.937 495.777 292.788C495.8 292.64 495.698 292.502 495.55 292.479C495.401 292.457 495.259 292.558 495.236 292.706C495.213 292.854 495.319 292.993 495.468 293.016ZM497.831 293.371C498.545 293.479 499.025 293.028 499.112 292.458C499.201 291.874 498.806 291.383 498.239 291.277L498.243 291.248L499.283 290.471L499.338 290.112L497.389 289.815L497.335 290.169L498.786 290.39L498.781 290.419L497.755 291.208L497.704 291.539L498.092 291.598C498.504 291.66 498.777 291.986 498.713 292.407C498.646 292.848 498.313 293.072 497.887 293.007C497.494 292.947 497.262 292.637 497.306 292.286L496.942 292.231C496.875 292.667 497.142 293.266 497.831 293.371ZM500.015 293.644L502.098 293.961L502.152 293.607L500.457 293.349L500.469 293.272C500.509 293.009 500.648 292.834 501.079 292.645L501.725 292.361C502.156 292.172 502.384 291.898 502.443 291.51C502.519 291.013 502.188 290.482 501.551 290.385C500.886 290.284 500.452 290.752 500.382 291.211L500.746 291.267C500.798 290.927 501.108 290.69 501.486 290.748C501.903 290.811 502.097 291.11 502.044 291.46C501.999 291.756 501.815 291.934 501.573 292.039L500.907 292.33C500.429 292.541 500.147 292.782 500.079 293.228L500.015 293.644Z" fill="#01090F"/>
<path d="M479.118 268.428C482.047 268.874 483.917 267.555 484.253 265.354C484.937 260.873 478.906 261.64 479.136 260.135C479.201 259.708 479.686 259.506 480.398 259.615C481.237 259.742 481.615 260.237 481.565 260.781L484.574 261.239C484.789 258.874 483.39 257.316 480.809 256.923C478.133 256.516 476.399 257.791 476.097 259.77C475.394 264.378 481.257 263.65 481.034 265.107C480.959 265.597 480.491 265.802 479.62 265.669C478.543 265.505 478.064 264.93 478.104 264.239L475.223 263.801C474.844 266.173 476.204 267.984 479.118 268.428ZM485.929 269.254L488.97 269.717L489.475 266.408L490.868 266.62C493.085 266.957 495.191 265.577 495.535 263.329C495.88 261.064 494.335 259.193 492.055 258.846L487.621 258.171L485.929 269.254ZM489.866 263.843L490.27 261.198L491.347 261.362C492.075 261.473 492.573 262.035 492.447 262.858C492.319 263.698 491.671 264.118 490.943 264.007L489.866 263.843ZM494.919 270.623L498.007 271.093L498.77 269.492L502.539 270.065L502.789 271.821L506.035 272.315L504.101 260.679L500.158 260.079L494.919 270.623ZM499.972 266.92L501.505 263.67L501.664 263.695L502.158 267.253L499.972 266.92ZM508.009 272.616L511.05 273.078L512.741 261.995L509.701 261.532L508.009 272.616ZM513.738 273.488L516.667 273.934L517.607 267.774L517.702 267.789L520.341 274.493L523.745 275.011L525.437 263.928L522.507 263.482L521.567 269.641L521.472 269.626L518.834 262.922L515.429 262.404L513.738 273.488Z" fill="#01090F"/>
<ellipse cx="44.7612" cy="44.7071" rx="44.7612" ry="44.7071" transform="matrix(0.98861 0.150503 -0.150876 0.988553 463.813 213.762)" stroke="#01090F" stroke-width="1.4561"/>
<path d="M507.963 250.775L509.274 242.085C509.508 241.968 509.714 241.861 509.884 241.77C512.179 240.535 513.72 238.943 513.327 238.215C512.935 237.487 510.756 237.898 508.461 239.133C508.291 239.225 508.089 239.338 507.862 239.469L499.873 235.786C499.632 235.675 499.406 235.981 499.593 236.169L504.772 241.351C503.219 242.337 501.544 243.454 500.309 244.379L497.466 243.169C497.396 243.14 497.313 243.143 497.244 243.181L496.823 243.407C496.665 243.492 496.641 243.704 496.777 243.815L498.903 245.534C498.571 245.856 498.403 246.096 498.469 246.216C498.534 246.337 498.827 246.329 499.278 246.229L499.547 248.948C499.564 249.12 499.756 249.218 499.913 249.134L500.334 248.907C500.404 248.87 500.451 248.805 500.466 248.728L501.017 245.691C502.467 245.168 504.322 244.385 506.003 243.632L507.49 250.802C507.544 251.059 507.925 251.04 507.965 250.778L507.963 250.775Z" fill="#01090F"/>
<rect width="68.9897" height="20.5078" rx="1.4561" transform="matrix(0.98861 0.150503 -0.150876 0.988553 468.111 250.926)" stroke="#01090F" stroke-width="0.728048"/>
</svg>
