<svg fill="none" height="373" viewBox="0 0 637 373" width="637" xmlns="http://www.w3.org/2000/svg"><path d="m454.832 8.82715h-262.503v147.53585h262.503z" fill="#519af4" stroke="#01090f" stroke-miterlimit="10" stroke-width="1.25"/><path d="m439.98 23.3906h-232.809v118.4094h232.809z" fill="#9bcdfb" stroke="#01090f" stroke-miterlimit="10" stroke-width="1.25"/><path d="m80.3726 370.958h-37.9197l-7.9722-56.391h45.8919z" fill="#fdb54f" stroke="#01090f" stroke-miterlimit="10" stroke-width="1.25"/><path d="m95.3421 370.958h-14.9693v-56.391h22.9412z" fill="#f58f3b" stroke="#01090f" stroke-miterlimit="10" stroke-width="1.25"/><path d="m104.317 261.917s-1.806-.903-7.0517-.614c-2.5731.154-7.2228 1.753-7.6381-2.602-.5237-5.583 12.9468-3.613 12.9468-3.613-.293-2.247-.761-4.467-1.399-6.64l-.578-.145c-10.6899-2.638-15.6646 4.878-20.2421-.65-3.1148-3.777 2.4106-5.358 4.126-5.8 5.9408-1.518 12.9018-.551 12.9018-.551l.334-.109c-1.1887-2.044-2.535-3.992-4.0267-5.827l-.2889-.063c-12.2607-2.927-17.4611 3.614-23.3928 3.984-1.8057.099-5.7964-4.707 1.1556-7.914 6.654-3.071 15.2943-2.385 16.0888-2.394-6.1575-4.833-12.983-7.046-18.7612-5.99-16.8833 3.09-15.204 20.273-13.4435 22.333-2.3925-1.274-19.5196.84-18.8515 17.996.2257 5.881 3.8733 12.06 9.9314 17.02-.1625-.777-2.7086-9.034-1.1737-16.261 1.6071-7.49 7.2228-4.599 7.4756-2.855.975 5.863-4.3156 12.376 1.2098 23.714 0 .091.0813.181.1174.271 2.117 1.052 4.3113 1.94 6.5637 2.656 0-.217 0-.352 0-.352s-2.4648-6.586-2.2752-12.711c.0542-1.807.3973-7.516 4.758-5.294 6.3922 3.261.1445 9.757 5.0469 19.622l.2709.524c2.2556.151 4.5195.126 6.7714-.072 0 0-4.8844-12.711.6681-13.425 4.3337-.56 3.792 4.346 4.2073 6.893.8306 5.204 2.1397 6.749 2.1397 6.749 7.2004-.882 14.1879-3.032 20.6392-6.351 1.847-7.017 2.446-14.304 1.77-21.529zm-48.9349-4.67c-.9841.334-3.7649-.723-3.783-1.807 0-1.744 5.0741-4.364 6.32-3.099.8938 1.03-1.2459 4.463-2.537 4.906zm9.7869 8.23c-.65.361-2.5821-.398-2.7085-1.12-.2528-1.229 2.4015-4.174 3.521-3.614 1.1196.56.2258 4.156-.8125 4.734zm1.7335-22.585c-.1445 1.355-3.0246 4.191-4.1983 3.496-1.4987-.904-.0542-6.442 1.6522-6.803 1.0202-.253 2.6634 2.232 2.5461 3.27zm5.733 9.549c-.8035-.967 1.4898-4.192 2.7538-4.21.7313 0 1.8959 1.707 1.6793 2.412-.3341 1.111-3.6656 2.683-4.4331 1.762zm4.5143 20.67c-.341.208-.7354.312-1.1349.3-.3994-.013-.7863-.143-1.1132-.373-.5056-.822.6049-3.613 1.562-3.514.957.099 1.3181 2.855.7222 3.551zm9.9313-12.377c-.5417.732-3.3495.967-3.6114.108-.2618-.858 2.1759-2.611 3.0878-2.294.2877.268.4919.613.588.995.0961.381.08.782-.0463 1.155z" fill="#17a638" stroke="#01090f" stroke-linecap="round" stroke-linejoin="round" stroke-width="1.25"/><path d="m55.1831 280.066c-.9028-9.315.343-22.224 10.6265-25.738.0593-.018.1215-.024.1831-.018s.1213.025.1758.054.1027.069.1418.117.0684.103.0862.163c.0178.059.0237.121.0175.183-.0063.061-.0246.121-.054.176-.0293.054-.0691.103-.1171.142s-.1031.068-.1624.086c-10.0758 3.171-11.4752 15.791-10.8974 24.871z" fill="#91c46a"/><path d="m69.9901 284.647c-.3431-4.237-.5147-8.492-.4876-12.747s.0813-8.645 1.8057-12.72c.0527-.108.1454-.191.2584-.231.113-.041.2373-.035.3465.015.0546.025.1034.062.1436.107.0401.046.0708.098.0902.156.0193.057.027.118.0225.178s-.021.119-.0486.173c-1.8057 3.731-1.896 8.221-2.1849 12.331-.2889 4.111-.1625 8.492 0 12.738z" fill="#91c46a"/><path d="m89.4463 283.626c-4.0177-4.517-6.2116-10.38-7.4575-16.261-.0132-.058-.0148-.118-.0047-.176.0102-.058.0319-.113.0639-.163s.0736-.093.1223-.126c.0488-.033.1037-.057.1616-.068.0581-.014.1182-.015.177-.005s.115.032.1653.063c.0504.032.0939.074.1281.123.0343.049.0585.104.0713.162.9028 5.836 2.8169 11.744 6.5727 16.415z" fill="#91c46a"/><path d="m40.0061 266.199c-.0993-9.937 5.8324-18.646 16.1881-19.667.1197-.013.2398.022.3337.097.094.076.1542.185.1674.305s-.0218.24-.0971.334c-.0754.094-.185.154-.3047.167-10.1661.669-16.0617 9.034-16.2513 18.764z" fill="#91c46a"/><path d="m104.326 261.917s-1.806-.904-7.0516-.615c-2.5731.154-7.2228 1.753-7.6381-2.611-.5236-5.574 12.9467-3.613 12.9467-3.613-.297-2.247-.768-4.467-1.408-6.64l-.569-.154c-10.6898-2.629-15.6645 4.888-20.242-.641-3.1148-3.776 2.4107-5.357 4.1351-5.8 5.9317-1.518 12.8927-.551 12.8927-.551l.3341-.118c-1.1931-2.041-2.5392-3.989-4.0268-5.827l-.2889-.054c-12.2517-2.927-17.4611 3.614-23.3928 3.984-1.8057.1-5.7963-4.707 1.1556-7.923 6.654-3.062 15.2943-2.376 16.0888-2.385-6.1574-4.833-12.9829-7.046-18.7702-5.989-16.8743 3.089-15.195 20.272-13.4435 22.332l47.5079 38.133c1.847-7.017 2.446-14.304 1.77-21.528zm-37.4054-19.062c-.1535 1.355-3.0336 4.201-4.2073 3.496-1.4987-.903-.0541-6.441 1.6523-6.803 1.0292-.217 2.6634 2.268 2.555 3.307zm10.1661 7.76c-.3431 1.147-3.6746 2.71-4.442 1.807-.7675-.904 1.4897-4.192 2.7537-4.219.7313.009 1.9411 1.698 1.6883 2.412zm10.0216 10.073c-.5507.732-3.3495.976-3.6114.108-.2618-.867 2.1759-2.601 3.0878-2.285.2907.272.4954.623.5885 1.01.093.387.0705.793-.0649 1.167z" fill="#0e7e35" stroke="#01090f" stroke-linecap="round" stroke-linejoin="round" stroke-width="1.25"/><path d="m88.9138 237.94c-8.9744 1.41-20.9913 5.538-21.8851 16.063-.0072.12-.0617.232-.1514.311-.0898.08-.2074.121-.3272.114-.1197-.008-.2316-.062-.3112-.152s-.1203-.207-.1131-.327c1.1647-10.841 13.4796-14.87 22.7789-16.009z" fill="#91c46a"/><path d="m96.6056 251.401c-4.1802.732-8.3333 1.645-12.4232 2.711-3.9454 1.174-8.2972 2.267-11.5475 4.824-.0922.076-.211.113-.3304.102s-.2294-.069-.3061-.161c-.0766-.092-.1135-.211-.1024-.331.011-.119.0689-.229.1611-.306 3.6114-2.611 7.8548-3.469 12.0079-4.571 4.1531-.958 8.3334-1.717 12.5406-2.304z" fill="#91c46a"/><path d="m100.317 270.119c-5.363-2.647-11.5294-3.189-17.425-2.845-.0593.003-.1188-.005-.175-.024s-.108-.05-.1524-.089c-.0445-.04-.0807-.087-.1067-.141-.0259-.053-.041-.112-.0445-.171-.0012-.06.0096-.121.0316-.177s.055-.108.0969-.151c.0419-.044.092-.079.1474-.103.0555-.024.1151-.037.1755-.039 5.9679-.054 12.1795.804 17.4522 3.74z" fill="#91c46a"/><path d="m72.0847 226.142c-9.4257 2.339-16.3235 9.937-14.7525 19.992.0143.12-.0195.24-.094.335s-.1836.157-.3033.171-.2403-.019-.3351-.094-.1561-.184-.1705-.304c-1.264-10.344 5.9046-18.068 15.6554-20.1z" fill="#91c46a"/><path d="m55.0479 245.357 47.4991 38.079" stroke="#01090f" stroke-linejoin="round" stroke-width="1.25"/><path d="m124.793 318.055s-1.165-1.328-5.562-2.71c-2.148-.696-6.455-.904-5.417-4.517 1.346-4.716 11.737 1.192 11.737 1.192.473-1.926.793-3.887.957-5.863l-.415-.298c-7.891-5.547-14.337-.994-16.314-6.956-1.346-4.075 3.665-3.614 5.209-3.424 3.743.599 7.359 1.821 10.699 3.613h.307c-.324-2.045-.804-4.062-1.436-6.035l-.216-.135c-9.029-6.324-15.412-2.557-20.351-4.174-1.48-.488-3.241-5.691 3.449-6.098 6.401-.388 13.236 2.909 13.886 3.153-3.485-5.899-8.36-9.865-13.416-10.841-14.7529-2.837-18.8338 11.745-18.0574 13.958-1.5438-1.807-16.1971-5.511-21.0905 8.7-1.6703 4.878-.6591 11.075 2.7085 17.038.1084-.678.6501-8.257 4.1802-13.614 3.6927-5.602 7.3222-1.473 7.0062 0-1.0654 5.086-7.4396 8.736-6.5277 19.739.0045.084.0045.169 0 .253 1.3967 1.526 2.9057 2.945 4.5143 4.246l.1445-.271c.0986-3.793.831-7.543 2.1668-11.094.6139-1.436 2.7085-6.017 5.5615-2.809 4.1802 4.688-2.9703 8.004-2.1036 17.607l.0542.524c1.7964.84 3.656 1.538 5.5615 2.087 0 0 0-11.925 4.7942-10.742 3.7193.904 1.7244 4.743 1.2459 6.957-.966 4.517-.3882 6.188-.3882 6.188 6.1546 1.544 12.5346 1.984 18.8426 1.301 3.735-5.127 6.535-10.873 8.27-16.975zm-38.4253-19.342c-.9029 0-2.844-1.807-2.528-2.647.5417-1.437 5.5344-1.952 6.1122-.533.4244 1.111-2.4105 3.27-3.5842 3.18zm5.3719 9.82c-.641.09-1.9772-1.138-1.8689-1.807.1806-1.084 3.2774-2.647 4.0087-1.807s-1.1286 3.469-2.1669 3.614zm8.5954-17.915c-.551 1.066-3.8013 2.467-4.5145 1.527-.9029-1.211 1.9953-5.276 3.503-5.032.8575.154 1.4085 2.701.9845 3.505zm1.652 9.622c-.352-1.048 2.546-2.955 3.611-2.575.605.226 1.003 2.005.614 2.511-.704.831-3.918 1.057-4.252.064zm-2.844 18.312c-.3438.059-.6973.016-1.0178-.121-.3204-.138-.5941-.366-.7879-.656-.1535-.831 1.6522-2.774 2.3925-2.376.7402.397.0903 2.773-.6139 3.153zm12.017-6.957c-.677.425-3.043-.271-3.016-1.075s2.61-1.436 3.242-.903c.352.334.162 1.716-.253 1.978z" fill="#17a638" stroke="#01090f" stroke-linejoin="round" stroke-width="1.25"/><path d="m78.9373 317.269c2.1939-7.914 7.313-18.069 16.8471-17.68.1198 0 .2346.048.3193.132.0846.085.1321.2.1321.32 0 .119-.0475.234-.1321.319-.0847.085-.1995.132-.3193.132-9.2181-.641-14.3733 9.206-16.802 16.777z" fill="#91c46a"/><path d="m89.573 325.706c1.0563-3.568 2.2571-7.1 3.6114-10.569 1.3543-3.47 2.7898-7.038 5.5074-9.83.042-.042.0919-.076.1469-.098.055-.023.114-.035.1736-.035s.1186.012.1736.035c.055.022.1049.056.1469.098.0449.042.0807.092.1051.148.0245.056.0372.117.0372.178s-.0127.121-.0372.177c-.0244.056-.0602.106-.1051.148-2.6273 2.457-4.1621 6.089-5.706 9.341s-2.8349 6.866-4.0357 10.389z" fill="#91c46a"/><path d="m105.779 331.045c-1.869-4.95-1.806-10.443-1.002-15.611.009-.061.031-.12.065-.173.033-.052.077-.098.129-.132.052-.035.11-.059.171-.07.062-.011.125-.009.185.005.059.009.115.029.166.06s.095.071.131.119c.035.048.06.102.075.16.014.057.016.117.007.176-1.101 5.059-1.462 10.48.109 15.475z" fill="#91c46a"/><path d="m70.9558 301.142c2.7086-7.399 9.832-12.973 17.9306-11.247l1.5258.28c.1171.022.2208.089.2885.187.0676.098.0938.219.0727.337-.0119.064-.0376.125-.0754.178-.0377.054-.0866.099-.1433.131-.0567.033-.1197.053-.1849.059-.0651.005-.1308-.003-.1923-.025l-1.4446-.316c-7.7916-1.988-14.897 3.361-17.7771 10.416z" fill="#91c46a"/><path d="m124.802 318.064s-1.165-1.337-5.562-2.711c-2.149-.695-6.464-.903-5.417-4.517 1.345-4.715 11.737 1.193 11.737 1.193.474-1.926.794-3.887.957-5.863l-.415-.298c-7.891-5.547-14.337-.994-16.315-6.957-1.354-4.074 3.666-3.613 5.21-3.424 3.742.603 7.357 1.824 10.699 3.614h.307c-.324-2.045-.804-4.063-1.436-6.035l-.217-.135c-9.028-6.324-15.411-2.557-20.359-4.174-1.471-.479-3.232-5.691 3.458-6.098 6.401-.388 13.236 2.909 13.886 3.153-3.494-5.89-8.36-9.865-13.416-10.841-14.753-2.837-18.8339 11.744-18.0574 13.958l26.6884 46.155c3.729-5.144 6.522-10.906 8.252-17.02zm-24.485-27.392c-.5512 1.057-3.8014 2.467-4.5147 1.518-.9028-1.211 1.9863-5.276 3.5031-5.023.8846.099 1.4356 2.647 1.0116 3.505zm5.832 9.558c-.641.831-3.855 1.048-4.18.055-.325-.994 2.537-2.955 3.611-2.566.569.181.966 1.987.569 2.466zm4.993 11.41c-.677.425-3.043-.271-3.016-1.075s2.609-1.436 3.241-.903c.151.31.21.657.17 1-.04.342-.177.666-.395.933z" fill="#0e7e35" stroke="#01090f" stroke-linejoin="round" stroke-width="1.25"/><path d="m119.827 293.599c-7.764-1.68-18.869-2.105-22.905 6.207-.0527.107-.146.19-.2594.229-.1135.039-.2377.031-.3455-.022-.1077-.052-.1902-.146-.2291-.259-.039-.114-.0313-.238.0214-.346 4.4056-8.474 15.7546-7.86 23.7176-5.809z" fill="#91c46a"/><path d="m121.841 307.025c-3.612-.714-7.331-1.283-11.015-1.671-3.684-.389-7.494-.768-10.9427.289-.0593.019-.1217.026-.1837.021s-.1224-.023-.1778-.051c-.0553-.029-.1045-.068-.1447-.115-.0402-.048-.0707-.103-.0896-.162-.019-.06-.0261-.122-.021-.184.0052-.062.0225-.123.051-.178.0286-.055.0677-.105.1152-.145s.1025-.071.1618-.09c3.7735-.975 7.5295-.316 11.2855.118s7.34 1.256 10.961 2.123z" fill="#91c46a"/><path d="m118.924 323.484c-3.548-3.849-8.405-6.234-13.335-7.797-.112-.039-.205-.12-.259-.226s-.064-.229-.03-.343c.019-.059.05-.113.091-.16.041-.046.09-.084.146-.111.055-.027.116-.043.178-.046.061-.003.123.007.181.028 4.885 1.87 9.67 4.517 13.028 8.655z" fill="#91c46a"/><path d="m109.842 278.63c-7.548-1.021-15.7276 2.484-17.8854 10.226l-.4424 1.419c-.0124.063-.0379.123-.075.176-.037.053-.0848.097-.1401.131-.0553.033-.117.054-.1811.062-.064.008-.129.002-.1907-.017-.0573-.018-.1104-.048-.1561-.087s-.0831-.087-.11-.141c-.027-.054-.0428-.113-.0467-.173s.0042-.12.0239-.177l.5237-1.473c2.5009-7.85 10.9609-11.292 18.6799-9.937z" fill="#91c46a"/><g stroke="#01090f" stroke-width="1.25"><path d="m89.8345 288.902 26.6885 46.156" stroke-linejoin="round"/><path d="m394.754 133.48c.073-.941.073-1.887 0-2.828 0-.515-.09-1.021-.153-1.526-1.878-15.467-11.376-23.932-18.373-22.848-1.27.242-2.491.693-3.612 1.337 8.126-1.075 18.193 10.001 18.265 23.272 1.467.567 2.79 1.453 3.873 2.593z" fill="#5c7888" stroke-miterlimit="10"/><path d="m387.559 155.549c6.003 0 10.87-5.662 10.87-12.647 0-6.986-4.867-12.648-10.87-12.648-6.004 0-10.871 5.662-10.871 12.648 0 6.985 4.867 12.647 10.871 12.647z" fill="#fcef8c" stroke-miterlimit="10"/><path d="m382.06 127.697c-7.223 0-13.064 6.812-13.064 15.205 0 8.392 5.85 15.204 13.064 15.204s13.082-6.803 13.082-15.204c0-8.402-5.868-15.205-13.082-15.205zm0 22.811c-3.611 0-6.537-3.405-6.537-7.606s2.926-7.607 6.537-7.607c3.612 0 6.528 3.406 6.528 7.607s-2.926 7.606-6.528 7.606z" fill="#5c7888" stroke-miterlimit="10"/><path d="m381.293 151.467c4.063 0 7.358-3.835 7.358-8.565s-3.295-8.564-7.358-8.564c-4.064 0-7.359 3.834-7.359 8.564s3.295 8.565 7.359 8.565z" fill="#9baeb5" stroke-miterlimit="10"/><path d="m463.046 370.877v-74.848h-11.141v74.848z" fill="#bd80ff" stroke-miterlimit="10"/><path d="m354.902 370.877v-74.848h-11.141v74.848z" fill="#bd80ff" stroke-miterlimit="10"/><path d="m392.172 370.877v-74.848h-11.141v74.848z" fill="#bd80ff" stroke-miterlimit="10"/><path d="m122.337 370.868v-137.065h-11.141v137.065z" fill="#bd80ff" stroke-miterlimit="10"/><path d="m500.315 370.877v-74.848h-11.141v74.848z" fill="#a85df8" stroke-miterlimit="10"/><path d="m160.961 370.868v-137.065h-11.141v137.065z" fill="#a85df8" stroke-miterlimit="10"/><path d="m463.055 222.654h-351.85v11.148h351.85z" fill="#bd80ff" stroke-miterlimit="10"/><path d="m500.315 222.654h-37.269v11.148h37.269z" fill="#a85df8" stroke-miterlimit="10"/><path d="m500.315 233.803h-37.269v62.227h37.269z" fill="#a85df8" stroke-miterlimit="10"/><path d="m463.046 233.803h-119.285v31.113h119.285z" fill="#bd80ff" stroke-miterlimit="10"/><path d="m463.046 264.916h-119.285v31.113h119.285z" fill="#bd80ff" stroke-miterlimit="10"/><path d="m403.403 254.427c2.798 0 5.065-2.269 5.065-5.068s-2.267-5.068-5.065-5.068c-2.797 0-5.065 2.269-5.065 5.068s2.268 5.068 5.065 5.068z" fill="#7e36df" stroke-miterlimit="10"/><path d="m403.403 285.541c2.798 0 5.065-2.27 5.065-5.069s-2.267-5.068-5.065-5.068c-2.797 0-5.065 2.269-5.065 5.068s2.268 5.069 5.065 5.069z" fill="#7e36df" stroke-miterlimit="10"/><path d="m377.582 108.925h-150.839c-5.191 0-9.399 4.21-9.399 9.404v74.378c0 5.194 4.208 9.404 9.399 9.404h150.839c5.191 0 9.399-4.21 9.399-9.404v-74.378c0-5.194-4.208-9.404-9.399-9.404z" fill="#d5dde0" stroke-miterlimit="10"/><path d="m376.354 118.51h-147.255v74.007h147.255z" fill="#549cf1" stroke-linecap="round" stroke-linejoin="round"/><path d="m273.51 215.481h77.33c1.896 0 3.715.754 5.056 2.096s2.094 3.162 2.094 5.059h-84.48z" fill="#d5dde0" stroke-miterlimit="10"/><path d="m319.619 202.111h-24.892v13.389h24.892z" fill="#d5dde0" stroke-miterlimit="10"/><path d="m406.076 176.22 12.116 46.435h72.373l-12.117-46.435zm61.863 5.348c1.11.057 2.175.458 3.047 1.147.872.69 1.508 1.634 1.82 2.701.161.447.209.927.141 1.397-.069.47-.253.915-.535 1.297s-.655.688-1.084.891-.901.297-1.375.273c-1.11-.059-2.174-.462-3.044-1.153-.87-.692-1.504-1.637-1.814-2.705-.161-.445-.21-.923-.142-1.392s.251-.914.533-1.295c.281-.381.653-.686 1.081-.889.428-.202.899-.296 1.372-.272zm-16.188 0c1.109.056 2.174.457 3.044 1.146.871.69 1.505 1.635 1.813 2.702.164.446.214.926.147 1.396s-.25.916-.532 1.298c-.282.383-.654.689-1.083.892s-.902.297-1.376.272c-1.11-.056-2.175-.459-3.046-1.15-.871-.692-1.504-1.638-1.811-2.708-.161-.445-.21-.923-.142-1.392s.251-.914.533-1.295c.281-.381.653-.686 1.081-.889.428-.202.899-.296 1.372-.272zm-16.188 0c1.109.056 2.173.457 3.044 1.146.871.69 1.505 1.635 1.813 2.702.161.446.21.925.142 1.394-.069.469-.252.915-.533 1.296-.281.382-.652.688-1.08.892-.428.203-.899.298-1.373.276-1.11-.056-2.175-.459-3.046-1.15-.871-.692-1.504-1.638-1.811-2.708-.161-.445-.21-.923-.142-1.392s.251-.914.533-1.295c.281-.381.653-.686 1.081-.889.428-.202.899-.296 1.372-.272zm-19.041 3.848c-.159-.446-.206-.924-.137-1.393.07-.469.254-.913.536-1.294.282-.38.653-.685 1.081-.888.429-.202.9-.296 1.373-.273 1.108.058 2.171.46 3.041 1.15.871.689 1.505 1.632 1.816 2.698.161.446.21.925.141 1.394-.068.469-.251.915-.532 1.296-.281.382-.652.688-1.08.892-.428.203-.899.298-1.373.276-1.111-.057-2.177-.46-3.049-1.151s-1.507-1.637-1.817-2.707z" fill="#fb5d96" stroke-linecap="round" stroke-linejoin="round"/><path d="m472.959 172.325c-.551-.961-1.337-1.767-2.285-2.341-.948-.573-2.025-.896-3.132-.938-3.359 0-6.104 3.008-6.925 7.227-.164.861-.249 1.735-.253 2.611-.003 1.627.304 3.24.903 4.752.367 1.085.968 2.075 1.761 2.901.792.826 1.757 1.467 2.825 1.878 1.043-.698 1.807-1.74 2.158-2.945.156-.592.156-1.215 0-1.807-.132.086-.285.136-.442.145-.587 0-1.355-.795-1.806-2.141-.318-.896-.477-1.841-.469-2.792-.003-.887.138-1.768.415-2.611.478-1.445 1.282-2.322 1.887-2.322.388 0 .903.398 1.291 1.039.244.403.438.833.578 1.283h5.047c-.265-1.399-.792-2.736-1.553-3.939z" fill="#d5dde0" stroke-linecap="round" stroke-linejoin="round"/><path d="m450.27 173.897c.388 0 .903.398 1.3 1.039.245.403.439.833.578 1.283h5.047c-.277-1.383-.806-2.703-1.562-3.894-.549-.963-1.334-1.77-2.282-2.344-.949-.574-2.028-.896-3.135-.935-3.359 0-6.103 3.008-6.916 7.227-.168.86-.253 1.735-.253 2.611-.025 1.991.431 3.959 1.328 5.737.453 1.004 1.135 1.888 1.991 2.581.856.694 1.862 1.177 2.938 1.412 1.191-.693 2.067-1.819 2.447-3.144.128-.425.165-.873.109-1.313-.056-.441-.204-.864-.434-1.244-.397.569-.84.904-1.21.904-.578 0-1.345-.804-1.806-2.15-.314-.894-.47-1.836-.46-2.783-.005-.886.132-1.768.406-2.611.506-1.499 1.309-2.376 1.914-2.376z" fill="#d5dde0" stroke-linecap="round" stroke-linejoin="round"/><path d="m440.068 172.325c-.549-.963-1.334-1.77-2.282-2.344-.949-.574-2.028-.896-3.135-.935-3.359 0-6.094 3.008-6.916 7.227-.168.86-.253 1.735-.253 2.611-.014 1.781.346 3.544 1.057 5.177.404 1.053 1.041 2.002 1.863 2.775.823.773 1.809 1.35 2.886 1.687 1.12-.697 1.944-1.785 2.311-3.053.205-.701.173-1.451-.09-2.132-.11.137-.247.25-.402.332-.156.083-.326.132-.501.147-.587 0-1.363-.822-1.806-2.196-.303-.871-.456-1.787-.451-2.71-.005-.886.132-1.768.406-2.611.478-1.445 1.282-2.321 1.887-2.321.388 0 .903.397 1.3 1.038.244.403.438.834.578 1.283h5.047c-.244-1.408-.752-2.757-1.499-3.975z" fill="#d5dde0" stroke-linecap="round" stroke-linejoin="round"/><path d="m423.754 172.325c-.55-.962-1.336-1.768-2.284-2.342-.948-.573-2.026-.896-3.134-.937-3.358 0-6.103 3.008-6.915 7.227-.172.86-.26 1.734-.262 2.611-.014 1.828.368 3.637 1.119 5.303.415 1.042 1.061 1.976 1.891 2.73.829.755 1.819 1.31 2.895 1.625 1.14-.693 1.978-1.79 2.347-3.072.211-.735.163-1.519-.136-2.222-.214.3-.539.505-.902.569-.587 0-1.364-.822-1.851-2.187-.294-.873-.443-1.788-.443-2.71-.005-.886.133-1.768.407-2.611.478-1.445 1.282-2.321 1.887-2.321.388 0 .902.397 1.291 1.038.247.402.444.833.587 1.283h5.037c-.253-1.413-.774-2.766-1.534-3.984z" fill="#d5dde0" stroke-linecap="round" stroke-linejoin="round"/><path d="m474.475 176.22h-8.802c-.278.842-.418 1.724-.416 2.611-.008.95.151 1.895.47 2.791.535.069 1.037.295 1.442.651.405.355.695.824.833 1.346.155.592.155 1.214 0 1.806-.352 1.205-1.115 2.248-2.158 2.946-.792.564-1.736.879-2.708.903-.474.022-.945-.073-1.373-.276-.428-.204-.799-.51-1.08-.892-.281-.381-.464-.827-.533-1.296-.068-.469-.019-.948.142-1.394.191-.663.52-1.279.966-1.806-.6-1.513-.906-3.125-.903-4.752.004-.877.089-1.75.253-2.611h-12.198c-.274.843-.411 1.724-.406 2.611-.01.947.146 1.889.46 2.782.175-.009.35-.009.524 0 .496-.022.989.085 1.431.312.442.226.817.564 1.088.98.23.379.379.803.435 1.244.056.44.018.888-.11 1.313-.38 1.324-1.256 2.451-2.447 3.144-.726.448-1.558.694-2.41.713-.474.023-.945-.072-1.373-.276s-.799-.51-1.08-.892c-.281-.381-.464-.826-.533-1.295-.068-.47-.019-.948.142-1.394.079-.294.188-.578.325-.849-.897-1.778-1.352-3.746-1.327-5.737-.001-.877.084-1.751.252-2.611h-10.572c-.274.843-.411 1.724-.406 2.611-.005.922.148 1.839.451 2.71.572-.023 1.138.128 1.622.435s.863.754 1.087 1.282c.263.681.295 1.43.09 2.132-.367 1.268-1.191 2.356-2.311 3.053-.756.503-1.639.782-2.546.804-.474.025-.947-.069-1.376-.272s-.801-.509-1.083-.891c-.282-.383-.465-.829-.532-1.299s-.017-.949.147-1.395c.134-.502.351-.979.641-1.41-.711-1.632-1.071-3.396-1.057-5.176 0-.877.085-1.751.253-2.611h-11.286c-.274.843-.411 1.724-.406 2.611 0 .921.149 1.837.443 2.71h.081c.562-.028 1.119.111 1.601.401.483.289.868.716 1.107 1.225.299.703.347 1.488.136 2.223-.369 1.282-1.207 2.379-2.348 3.071-.746.493-1.616.766-2.51.786-.474.024-.946-.07-1.375-.273s-.802-.509-1.084-.891-.466-.827-.535-1.297c-.068-.47-.02-.95.141-1.396.131-.453.326-.885.578-1.283-.752-1.666-1.133-3.476-1.119-5.303.002-.877.09-1.751.262-2.611h-5.363l-12.117 46.435h72.373l12.116-46.435z" fill="#ffa9c6" stroke-linecap="round" stroke-linejoin="round"/><path d="m404.045 210.532c.632-2.413 2.067-3.948 4.875-5.421l3.909-2.078c.467-.186.887-.473 1.23-.84s.602-.805.757-1.283c.28-1.066-.298-1.924-1.734-1.924-.637.009-1.255.223-1.762.611-.507.387-.877.926-1.055 1.539h-3.792c.445-1.687 1.432-3.18 2.809-4.25 1.377-1.069 3.068-1.655 4.811-1.667 3.919 0 5.67 2.466 4.867 5.529-.65 2.493-2.302 4.029-4.794 5.33l-4.19 2.132c-1.056.569-1.525 1.084-1.706 1.761l-.054.208h8.252l-.903 3.56h-12.333z" fill="#fcee70" stroke-miterlimit="10"/><path d="m419.971 208.01 1.806-6.748c.49-1.727 1.525-3.25 2.95-4.34 1.425-1.091 3.164-1.692 4.959-1.713 3.25 0 5.823 2.177 4.812 6.053l-1.806 6.748c-.493 1.736-1.536 3.265-2.972 4.357-1.436 1.091-3.188 1.687-4.991 1.696-3.196 0-5.769-2.177-4.758-6.053zm8.712-.253 1.626-6.233c.388-1.509-.325-2.448-1.68-2.448-.688.026-1.349.281-1.877.724s-.893 1.05-1.039 1.724l-1.625 6.233c-.397 1.5.343 2.44 1.643 2.44.694-.017 1.363-.267 1.898-.709s.907-1.052 1.054-1.731z" fill="#fcee70" stroke-miterlimit="10"/><path d="m435.166 210.532c.632-2.413 2.076-3.948 4.875-5.421l3.918-2.078c.466-.187.884-.474 1.226-.841.341-.367.598-.804.752-1.282.279-1.066-.298-1.924-1.725-1.924-.639.008-1.259.221-1.768.608s-.88.928-1.058 1.542h-3.81c.444-1.687 1.431-3.18 2.809-4.25 1.377-1.069 3.068-1.655 4.811-1.667 3.919 0 5.67 2.466 4.867 5.529-.65 2.493-2.294 4.029-4.785 5.33l-4.199 2.132c-1.056.569-1.526 1.084-1.706 1.761l-.054.208h8.261l-.903 3.56h-12.333z" fill="#fcee70" stroke-miterlimit="10"/><path d="m450.406 210.532c.632-2.413 2.067-3.948 4.866-5.421l3.919-2.078c.465-.188.884-.475 1.227-.842.343-.366.602-.804.759-1.281.28-1.066-.307-1.924-1.734-1.924-.637.009-1.255.223-1.762.611-.507.387-.877.926-1.055 1.539h-3.791c.444-1.687 1.431-3.18 2.808-4.25 1.377-1.069 3.068-1.655 4.812-1.667 3.918 0 5.66 2.466 4.866 5.529-.65 2.493-2.302 4.029-4.794 5.33l-4.189 2.132c-1.057.569-1.526 1.084-1.707 1.761l-.054.208h8.279l-.903 3.56h-12.324z" fill="#fcee70" stroke-miterlimit="10"/><path d="m538.439 10.29c-1.134 2.9145-1.716 6.0149-1.715 9.1426 0 6.7087 2.663 13.1427 7.404 17.8865 4.741 4.7439 11.171 7.4089 17.876 7.4089 6.704 0 13.134-2.665 17.875-7.4089 4.741-4.7438 7.404-11.1778 7.404-17.8865.004-3.1271-.575-6.2275-1.706-9.1426z" fill="#ffae1f" stroke-miterlimit="10"/><path d="m535.857 155.17c13.886-13.1 16.387-22.585 14.446-45.044-3.097-25.2956-15.593-46.7064-17.434-71.496-1.96-26.3163 6.383-37.843819 19.032-37.627 7.945.14455 12.513 4.39961 15.14 9.2419" stroke-linecap="round" stroke-linejoin="round"/><path d="m538.719 152.713c-.749.164-1.461.47-2.094.903-.626.421-1.202.912-1.716 1.464-.523.549-.983 1.155-1.372 1.807-.41.677-.7 1.419-.858 2.195 1.525-.245 2.92-1.004 3.955-2.15 1.159-1.124 1.896-2.615 2.085-4.219z" fill="#77c34c" stroke-linecap="round" stroke-linejoin="round"/><path d="m540.886 150.273c-.619.712-1.146 1.498-1.571 2.34-.272.521-.432 1.094-.47 1.681-.021.506.111 1.006.38 1.436.381.595.91 1.08 1.535 1.409.944-.524 1.749-1.268 2.347-2.168.424-.608.66-1.327.677-2.069.014-.634-.223-1.247-.659-1.707-.597-.589-1.401-.92-2.239-.922z" fill="#77c34c" stroke-linecap="round" stroke-linejoin="round"/><path d="m546.429 142.874c-.746.96-1.315 2.046-1.679 3.207-.303.928-.461 1.897-.469 2.873-.023.894.127 1.783.442 2.62.342.92.952 1.717 1.752 2.285.898-.908 1.602-1.99 2.067-3.18.37-.911.551-1.889.533-2.872-.005-.909-.215-1.804-.614-2.62-.449-.945-1.152-1.746-2.032-2.313z" fill="#77c34c" stroke-linecap="round" stroke-linejoin="round"/><path d="m548.677 136.83c-.272 1.209-.342 2.454-.208 3.686.106 1.025.349 2.03.723 2.99.35.925.84 1.79 1.453 2.566.693.889 1.583 1.604 2.601 2.087.634-1.139.969-2.419.975-3.722.015-1.087-.2-2.165-.632-3.162-.42-.986-1.034-1.877-1.806-2.62-.865-.861-1.933-1.489-3.106-1.825z" fill="#77c34c" stroke-linecap="round" stroke-linejoin="round"/><path d="m550.176 131.672c.384 1.209.918 2.366 1.589 3.442.542.903 1.084 1.807 1.652 2.611.584.832 1.218 1.628 1.896 2.385.79.901 1.667 1.721 2.619 2.448.711-1.251.99-2.702.794-4.128-.183-1.293-.693-2.518-1.48-3.56-.792-1.06-1.826-1.915-3.016-2.493-.605-.302-1.254-.506-1.923-.605-.702-.13-1.419-.164-2.131-.1z" fill="#77c34c" stroke-linecap="round" stroke-linejoin="round"/><path d="m551.232 122.511c.363.689.63 1.425.795 2.186.158.682.354 1.355.587 2.015.506 1.331 1.186 2.588 2.022 3.74.808 1.142 1.781 2.156 2.889 3.009.604.461 1.248.87 1.923 1.219.777.415 1.648.623 2.528.605-.072-.786-.153-1.581-.253-2.376-.092-.721-.255-1.433-.487-2.123-.469-1.347-1.152-2.61-2.023-3.74-.878-1.15-1.921-2.164-3.096-3.008-.676-.505-1.406-.932-2.176-1.274-.842-.411-1.805-.501-2.709-.253z" fill="#77c34c" stroke-linecap="round" stroke-linejoin="round"/><path d="m550.899 113.784c.225 1.835.841 3.6 1.805 5.177.876 1.49 1.976 2.836 3.26 3.993 1.255 1.145 2.688 2.079 4.243 2.764 1.638.729 3.431 1.039 5.219.904-.656-1.63-1.55-3.152-2.655-4.517-.974-1.218-2.056-2.346-3.232-3.37-1.184-1.036-2.456-1.967-3.801-2.783-1.515-.925-3.141-1.653-4.839-2.168z" fill="#77c34c" stroke-linecap="round" stroke-linejoin="round"/><path d="m549.924 105.554c.686 1.039 1.182 1.879 1.688 2.71.486.823 1.017 1.619 1.589 2.385 1.148 1.519 2.472 2.896 3.945 4.102 1.437 1.192 3.017 2.199 4.704 2.999 1.823.883 3.802 1.398 5.824 1.518-.524-2.015-1.445-3.904-2.709-5.556-1.152-1.531-2.496-2.906-4-4.093-1.485-1.201-3.117-2.209-4.857-2.999-.942-.444-1.924-.795-2.934-1.048-1.061-.305-2.186-.311-3.25-.018z" fill="#77c34c" stroke-linecap="round" stroke-linejoin="round"/><path d="m547.449 94.3516c.911 2.2268 2.207 4.2758 3.828 6.0524 1.488 1.669 3.174 3.149 5.02 4.409 1.785 1.238 3.728 2.229 5.778 2.945 2.078.774 4.3 1.082 6.51.904-1.207-1.998-2.68-3.821-4.379-5.421-1.521-1.452-3.168-2.767-4.92-3.9297-1.717-1.1606-3.529-2.173-5.417-3.0264-2.039-.9414-4.2-1.5921-6.42-1.9333z" fill="#77c34c" stroke-linecap="round" stroke-linejoin="round"/><path d="m545.048 85.6788c.903 1.1022 1.661 2.0237 2.41 2.9452.744.9446 1.536 1.8492 2.375 2.7102 1.715 1.695 3.617 3.1892 5.67 4.4538 1.976 1.2323 4.099 2.2097 6.32 2.909 2.209.7305 4.547.986 6.861.7498-1.497-2.0077-3.231-3.8276-5.164-5.4205-1.74-1.4505-3.587-2.7672-5.525-3.9388-1.895-1.1639-3.878-2.1759-5.932-3.0264-1.099-.4683-2.231-.8578-3.386-1.1654-1.175-.3618-2.419-.4362-3.629-.2169z" fill="#77c34c" stroke-linecap="round" stroke-linejoin="round"/><path d="m541.247 74.0439c1.509 2.1954 3.313 4.1714 5.363 5.8722 1.875 1.5871 3.89 2.9993 6.022 4.2189 2.086 1.2202 4.295 2.2165 6.591 2.9723 2.338.7137 4.938 1.2015 7.223.4697-2.095-2.0688-3.81-3.6136-5.67-5.1675-1.858-1.5427-3.845-2.921-5.941-4.1195-2.063-1.1956-4.237-2.188-6.492-2.9632-2.279-.8113-4.676-1.2446-7.096-1.2829z" fill="#77c34c" stroke-linecap="round" stroke-linejoin="round"/><path d="m538.619 65.2532c2.058 1.6611 4.22 3.188 6.474 4.5713 2.058 1.2828 4.09 2.4302 6.184 3.5143 2.114 1.1111 4.29 2.0975 6.519 2.9541 2.37.9459 4.852 1.5806 7.385 1.8881-1.468-2.3915-3.295-4.5427-5.417-6.3781-1.994-1.7652-4.195-3.282-6.555-4.517-2.288-1.2117-4.748-2.0677-7.295-2.5386-2.431-.5081-4.956-.333-7.295.5059z" fill="#77c34c" stroke-linecap="round" stroke-linejoin="round"/><path d="m535.604 54.9637c1.889 1.8881 4.013 3.5248 6.32 4.8693 2.016 1.1967 4.13 2.2183 6.32 3.0536 2.127.8284 4.323 1.4633 6.564 1.8971 2.399.4894 4.858.6143 7.295.3704-1.504-2.3692-3.436-4.4372-5.697-6.098-2.024-1.5277-4.252-2.7653-6.618-3.6769-2.255-.8899-4.633-1.4263-7.051-1.59-2.438-.2049-4.889.1987-7.133 1.1745z" fill="#77c34c" stroke-linecap="round" stroke-linejoin="round"/><path d="m533.356 41.7013c1.751 2.1051 3.766 3.9755 5.995 5.565 2.006 1.4543 4.119 2.7558 6.32 3.8937 2.184 1.1402 4.451 2.1157 6.78 2.918 2.525.9017 5.156 1.4726 7.828 1.6984-1.252-2.6248-2.982-4.993-5.101-6.9833-1.933-1.865-4.118-3.4494-6.492-4.7068-2.301-1.2339-4.776-2.1111-7.34-2.6018-2.644-.5479-5.379-.4737-7.99.2168z" fill="#77c34c" stroke-linecap="round" stroke-linejoin="round"/><path d="m533.293 28.359c.473.6166.986 1.202 1.535 1.7526.487.5782.984 1.0841 1.462 1.5719.479.4879.903 1.0118 1.427 1.4726.523.4607.948.9486 1.435 1.3912 1.96 1.8699 4.075 3.5714 6.32 5.0862 2.42 1.6714 5.048 3.0169 7.819 4.0021.74.2439 1.48.4698 2.23.6505.749.1807 1.553.3072 2.32.4156.795.0809 1.594.1171 2.393.1084.815-.0308 1.626-.1427 2.419-.3343-.474-.6884-.983-1.3518-1.525-1.9875-.488-.6414-.976-1.2196-1.445-1.8068s-.948-1.1293-1.427-1.6442c-.478-.515-.902-1.057-1.417-1.5448-1.887-2.0038-3.964-3.8192-6.203-5.4205-2.353-1.718-4.982-3.0224-7.773-3.8575-.74-.1988-1.508-.3614-2.266-.4969-.759-.1356-1.58-.1627-2.366-.2078-.818.0044-1.635.0587-2.446.1626-.85.1522-1.684.382-2.492.6866z" fill="#77c34c" stroke-linecap="round" stroke-linejoin="round"/><path d="m534.981 15.3311c.303.768.672 1.5084 1.101 2.2134.38.7046.786 1.337 1.192 1.9423s.831 1.2196 1.273 1.7617c.417.5696.87 1.1127 1.354 1.6261 1.904 2.1349 4.091 3.9982 6.501 5.5379 2.633 1.7149 5.526 2.9903 8.568 3.7763.813.1987 1.643.3613 2.483.4878s1.733.1626 2.6.2078c.905.0017 1.809-.0465 2.709-.1446.951-.1283 1.888-.346 2.798-.6504-.423-.7923-.893-1.5585-1.408-2.2947-.451-.7227-.903-1.3732-1.372-1.9965-.47-.6234-.903-1.2467-1.355-1.8068-.451-.5601-.902-1.1474-1.372-1.6623-1.814-2.1177-3.889-3.9967-6.175-5.5921-2.459-1.7207-5.214-2.9732-8.126-3.695-.801-.1938-1.612-.3446-2.429-.4517-.848-.0993-1.733-.1445-2.609-.1626-.933.0133-1.864.0796-2.79.1988-1 .1484-1.984.3842-2.943.7046z" fill="#77c34c" stroke-linecap="round" stroke-linejoin="round"/><path d="m536.922 8.98075c-3.548-1.21961-8.126-.40653-12.315 1.24675-3.848 1.5962-7.438 3.7547-10.654 6.4051-2.861 2.2816-5.437 4.8992-7.674 7.7965-1.09 1.4352-2.08 2.9446-2.961 4.517-.443.804-.903 1.6171-1.264 2.4844-.425.8908-.784 1.8118-1.075 2.7554.998-.034 1.989-.1641 2.962-.3885.917-.2073 1.821-.4667 2.708-.7769 1.748-.6195 3.437-1.3934 5.047-2.3128 3.132-1.8367 6.061-3.9987 8.74-6.4503 2.708-2.4392 5.101-4.8965 7.557-7.3357 1.237-1.2105 2.483-2.4482 3.927-3.7311.722-.6504 1.49-1.3009 2.311-1.9875.822-.6866 1.734-1.40929 2.691-2.22235z" fill="#17a638" stroke-linecap="round" stroke-linejoin="round"/><path d="m506.46 48.2779c.806-.1562 1.597-.3798 2.366-.6685.74-.262 1.417-.5601 2.076-.8582 1.301-.6053 2.483-1.2558 3.612-1.8972 1.128-.6414 2.103-1.2919 3.06-1.9062.958-.6143 1.896-1.2467 2.835-1.9152 2.055-1.4114 4.01-2.9629 5.851-4.6435 1.046-.9811 2.037-2.0185 2.97-3.1078.506-.5781 1.011-1.1834 1.517-1.8068.54-.6909 1.032-1.4184 1.472-2.1772-.802-.2813-1.627-.4929-2.465-.6324-.789-.1363-1.585-.2298-2.384-.2801-1.544-.0852-3.094-.0065-4.622.2349-3.102.4935-6.064 1.6356-8.695 3.3517-2.678 1.7112-4.84 4.1189-6.256 6.9653-.665 1.3834-1.124 2.8564-1.364 4.3725-.126.7888-.192 1.5861-.198 2.385-.006.8664.069 1.7315.225 2.5837z" fill="#17a638" stroke-linecap="round" stroke-linejoin="round"/><path d="m510.352 58.9563c2.822.1484 5.631-.4763 8.125-1.8068 2.248-1.1767 4.295-2.7012 6.067-4.5171 1.776-1.816 3.347-3.8216 4.686-5.9806 1.46-2.3198 2.671-4.7878 3.612-7.3627-2.863.2051-5.641 1.0577-8.126 2.4934-2.253 1.2547-4.328 2.8075-6.167 4.6164-1.748 1.7013-3.312 3.5817-4.667 5.6102-1.459 2.1612-2.645 4.4946-3.53 6.9472z" fill="#17a638" stroke-linecap="round" stroke-linejoin="round"/><path d="m514.929 70.2408c2.291-.551 4.496-1.411 6.555-2.5566 1.794-.9803 3.506-2.1043 5.119-3.3607 1.613-1.2462 3.123-2.6208 4.514-4.1105 1.624-1.6978 3.025-3.5951 4.171-5.6463-2.606-.7086-5.349-.7427-7.972-.0994-2.333.5577-4.525 1.5944-6.437 3.0445-1.883 1.396-3.426 3.1995-4.514 5.2759-1.19 2.2927-1.689 4.882-1.436 7.4531z" fill="#17a638" stroke-linecap="round" stroke-linejoin="round"/><path d="m520.68 79.5996 3.269-.8222c.984-.262 1.923-.5149 2.825-.8311 1.834-.6196 3.554-1.5351 5.093-2.7102 1.549-1.1616 2.89-2.5792 3.963-4.1918 1.248-1.854 2.06-3.9666 2.375-6.1793-2.329-.2472-4.683.0022-6.907.7317-1.89.606-3.665 1.5219-5.255 2.7103-1.59 1.1757-2.954 2.6295-4.027 4.2911-.6.9565-1.045 2.0025-1.318 3.0987-.33 1.2791-.337 2.6207-.018 3.9028z" fill="#17a638" stroke-linecap="round" stroke-linejoin="round"/><path d="m526.061 90.3411c2.082-.3056 4.115-.8794 6.049-1.7074 1.675-.7121 3.233-1.6714 4.623-2.8458 1.466-1.2193 2.675-2.7178 3.557-4.4086 1.067-2.0394 1.482-4.3568 1.192-6.64-2.123.1948-4.206.6969-6.185 1.4905-1.708.6879-3.294 1.649-4.694 2.8458-1.48 1.2445-2.685 2.7826-3.54 4.5171-1.032 2.0888-1.383 4.4494-1.002 6.7484z" fill="#17a638" stroke-linecap="round" stroke-linejoin="round"/><path d="m531.099 99.6098c1.807-.3911 3.54-1.0648 5.137-1.9965 1.404-.8315 2.689-1.8496 3.819-3.0264 1.121-1.1515 2.087-2.4454 2.871-3.8486.404-.7344.766-1.4914 1.084-2.2675.162-.3884.316-.8402.478-1.2286l.244-.6505c.081-.2168.189-.4155.307-.6685-.294-.1022-.596-.1778-.903-.2258-.278-.0403-.559-.0584-.84-.0542-.524.0003-1.046.0487-1.562.1445-.936.1876-1.846.491-2.708.9034-1.55.7271-2.949 1.7383-4.126 2.9812-1.168 1.2418-2.115 2.6749-2.799 4.237-.361.8461-.645 1.723-.849 2.6199-.101.4892-.173.9839-.216 1.4816v.795c0 .2711 0 .5149.063.804z" fill="#17a638" stroke-linecap="round" stroke-linejoin="round"/><path d="m534.575 107.226c1.901.411 3.886.159 5.624-.714 1.492-.745 2.798-1.816 3.82-3.135.97-1.24 1.71-2.644 2.184-4.1462.53-1.7034.768-3.4841.705-5.2669-1.793.0848-3.522.6907-4.975 1.7435-1.24.8741-2.331 1.9417-3.232 3.162-.873 1.1606-1.629 2.4046-2.257 3.7126-.718 1.509-1.342 3.059-1.869 4.644z" fill="#17a638" stroke-linecap="round" stroke-linejoin="round"/><path d="m537.771 116.133c1.6.028 3.19-.251 4.685-.822 1.257-.491 2.418-1.197 3.431-2.087 1.003-.867 1.839-1.911 2.465-3.08.332-.633.604-1.296.813-1.979.232-.8.393-1.619.478-2.448-.461-.117-.933-.18-1.408-.19-.422-.01-.845.008-1.264.054-.752.089-1.491.262-2.203.515-1.283.458-2.462 1.167-3.467 2.087-1.006.918-1.833 2.014-2.438 3.234-.328.675-.591 1.38-.785 2.105-.235.85-.339 1.73-.307 2.611z" fill="#17a638" stroke-linecap="round" stroke-linejoin="round"/><path d="m538.809 123.722c1.526.223 3.082.125 4.569-.289 1.254-.357 2.432-.942 3.475-1.726 1.042-.768 1.915-1.743 2.565-2.863.35-.614.628-1.266.83-1.943.247-.8.348-1.639.298-2.475-1.515-.176-3.051-.044-4.514.388-1.202.369-2.326.957-3.314 1.735-.994.79-1.841 1.751-2.5 2.837-.358.606-.661 1.244-.903 1.906-.288.78-.459 1.599-.506 2.43z" fill="#17a638" stroke-linecap="round" stroke-linejoin="round"/><path d="m539.233 129.821c1.295.244 2.625.22 3.91-.073 1.227-.265 2.401-.732 3.476-1.382 1.101-.654 2.056-1.528 2.808-2.566.822-1.081 1.258-2.408 1.236-3.767-1.151.378-2.275.83-3.367 1.355-.974.454-1.918.97-2.826 1.545-.954.591-1.859 1.255-2.709 1.988-.985.832-1.838 1.81-2.528 2.9z" fill="#17a638" stroke-linecap="round" stroke-linejoin="round"/><path d="m538.52 136.56c1.271.22 2.575.158 3.819-.18 1.187-.295 2.322-.767 3.368-1.401 1.049-.619 1.996-1.396 2.808-2.303.873-.952 1.508-2.097 1.851-3.343-1.238.068-2.458.333-3.612.786-1.048.395-2.055.891-3.006 1.482-.964.595-1.871 1.279-2.709 2.041-.965.857-1.812 1.839-2.519 2.918z" fill="#17a638" stroke-linecap="round" stroke-linejoin="round"/><path d="m537.636 143.326c1.256-.072 2.492-.353 3.656-.831 1.074-.418 2.097-.955 3.052-1.599.953-.634 1.828-1.377 2.609-2.214.861-.903 1.549-1.956 2.032-3.107-1.23-.059-2.459.135-3.612.569-1.085.387-2.112.922-3.051 1.59-.97.671-1.852 1.46-2.628 2.349-.862.959-1.557 2.055-2.058 3.243z" fill="#17a638" stroke-linecap="round" stroke-linejoin="round"/><path d="m535.902 148.431c1.042.239 2.126.223 3.16-.045.996-.234 1.952-.614 2.835-1.13.899-.515 1.715-1.164 2.42-1.924.772-.816 1.347-1.799 1.679-2.873-1.057-.06-2.116.075-3.124.398-.901.279-1.765.667-2.573 1.156-.826.502-1.595 1.093-2.293 1.762-.821.783-1.529 1.677-2.104 2.656z" fill="#17a638" stroke-linecap="round" stroke-linejoin="round"/><path d="m534.087 153.047c.729.006 1.455-.088 2.158-.28.625-.155 1.231-.379 1.806-.668.582-.293 1.132-.644 1.643-1.048.621-.483 1.177-1.045 1.652-1.671-.641-.312-1.362-.422-2.067-.317-.71.098-1.397.318-2.032.651-.668.343-1.278.792-1.805 1.328-.589.565-1.05 1.248-1.355 2.005z" fill="#17a638" stroke-linecap="round" stroke-linejoin="round"/><path d="m515.606 155.17c13.886-13.1 16.387-22.585 14.446-45.044-3.097-25.2956-15.592-46.7064-17.443-71.496-1.959-26.3163 6.392-37.843819 19.041-37.627 7.945.14455 12.513 4.39961 15.132 9.2419" stroke-linecap="round" stroke-linejoin="round"/><path d="m518.468 152.713c-.75.162-1.461.469-2.094.903-.626.421-1.202.912-1.716 1.464-.526.547-.986 1.153-1.372 1.807-.43.671-.736 1.415-.903 2.195 1.522-.244 2.915-1.003 3.946-2.15 1.181-1.115 1.938-2.607 2.139-4.219z" fill="#77c34c" stroke-linecap="round" stroke-linejoin="round"/><path d="m520.635 150.273c-.622.71-1.15 1.496-1.571 2.34-.276.52-.436 1.093-.47 1.681-.024.505.105 1.006.371 1.436.387.593.918 1.078 1.544 1.409.942-.527 1.746-1.27 2.347-2.168.424-.608.66-1.327.677-2.069.01-.633-.226-1.245-.659-1.707-.597-.589-1.401-.92-2.239-.922z" fill="#77c34c" stroke-linecap="round" stroke-linejoin="round"/><path d="m526.169 142.874c-.74.963-1.306 2.048-1.67 3.207-.303.928-.461 1.897-.469 2.873-.023.894.127 1.783.442 2.62.338.92.945 1.716 1.743 2.285.908-.891 1.627-1.957 2.112-3.134.37-.912.551-1.889.533-2.873-.009-.908-.219-1.803-.614-2.62-.452-.969-1.173-1.787-2.077-2.358z" fill="#77c34c" stroke-linecap="round" stroke-linejoin="round"/><path d="m528.427 136.83c-.277 1.208-.347 2.454-.208 3.686.103 1.024.343 2.03.713 2.99.35.927.844 1.793 1.463 2.566.692.889 1.583 1.604 2.6 2.087.634-1.139.969-2.419.975-3.722.011-1.087-.204-2.164-.632-3.162-.42-.986-1.034-1.877-1.806-2.62-.862-.864-1.931-1.492-3.105-1.825z" fill="#77c34c" stroke-linecap="round" stroke-linejoin="round"/><path d="m529.916 131.672c.387 1.21.923 2.366 1.598 3.442.503.899 1.055 1.771 1.652 2.611.581.834 1.214 1.631 1.896 2.385.788.899 1.662 1.719 2.609 2.448.715-1.25.995-2.702.795-4.128-.176-1.296-.686-2.523-1.481-3.56-.786-1.062-1.818-1.917-3.006-2.493-.606-.3-1.255-.504-1.923-.605-.706-.13-1.426-.164-2.14-.1z" fill="#77c34c" stroke-linecap="round" stroke-linejoin="round"/><path d="m530.981 122.512c.363.689.631 1.424.795 2.186.159.682.355 1.354.587 2.014.503 1.331 1.18 2.588 2.013 3.741.811 1.141 1.788 2.155 2.898 3.008.603.464 1.247.872 1.923 1.22.774.414 1.642.622 2.519.605-.063-.786-.153-1.581-.244-2.376-.092-.722-.255-1.433-.487-2.123-.469-1.348-1.151-2.611-2.022-3.74-.882-1.151-1.928-2.165-3.106-3.009-.672-.505-1.399-.932-2.167-1.273-.842-.41-1.805-.5-2.709-.253z" fill="#77c34c" stroke-linecap="round" stroke-linejoin="round"/><path d="m530.612 113.784c.229 1.834.844 3.598 1.805 5.177.88 1.49 1.982 2.837 3.269 3.993 1.252 1.149 2.686 2.083 4.243 2.764 1.638.729 3.431 1.039 5.218.904-.655-1.63-1.55-3.152-2.654-4.517-.975-1.221-2.06-2.349-3.241-3.37-1.181-1.036-2.45-1.967-3.792-2.783-1.519-.924-3.148-1.652-4.848-2.168z" fill="#77c34c" stroke-linecap="round" stroke-linejoin="round"/><path d="m529.673 105.554c.686 1.039 1.182 1.879 1.679 2.71.496.831 1.002 1.608 1.589 2.385 1.153 1.517 2.481 2.894 3.954 4.102 1.436 1.194 3.016 2.202 4.704 2.999 1.823.884 3.802 1.4 5.824 1.518-.528-2.013-1.448-3.901-2.709-5.556-1.152-1.53-2.496-2.906-4-4.093-1.485-1.201-3.117-2.209-4.857-2.999-.944-.445-1.93-.796-2.943-1.048-1.058-.305-2.18-.311-3.241-.018z" fill="#77c34c" stroke-linecap="round" stroke-linejoin="round"/><path d="m527.189 94.3516c.914 2.2273 2.213 4.2762 3.838 6.0524 1.487 1.669 3.173 3.149 5.019 4.409 1.784 1.24 3.728 2.231 5.779 2.945 2.077.774 4.299 1.082 6.509.904-1.207-2-2.683-3.824-4.388-5.421-1.518-1.452-3.161-2.767-4.911-3.9297-1.717-1.1602-3.529-2.1727-5.417-3.0264-2.041-.9447-4.205-1.5955-6.429-1.9333z" fill="#77c34c" stroke-linecap="round" stroke-linejoin="round"/><path d="m524.788 85.6799c.903 1.1022 1.661 2.0237 2.41 2.9451.747.9447 1.543 1.8493 2.384 2.7103 1.711 1.6991 3.614 3.1937 5.67 4.4538 1.976 1.2313 4.099 2.2086 6.32 2.9089 2.212.7305 4.553.986 6.871.7499-1.499-2.0102-3.236-3.8304-5.174-5.4205-1.735-1.4525-3.579-2.7693-5.516-3.9388-1.896-1.1622-3.879-2.174-5.932-3.0264-1.099-.4684-2.231-.8579-3.386-1.1655-1.181-.3633-2.431-.4376-3.647-.2168z" fill="#77c34c" stroke-linecap="round" stroke-linejoin="round"/><path d="m520.987 74.0439c1.525 2.1989 3.348 4.1752 5.417 5.8722 1.872 1.587 3.884 2.9992 6.013 4.2189 2.087 1.2186 4.296 2.2149 6.591 2.9723 2.347.7137 4.948 1.2015 7.223.4697-2.095-2.0688-3.81-3.6136-5.679-5.1675-1.854-1.5426-3.839-2.921-5.932-4.1195-2.063-1.1956-4.237-2.188-6.491-2.9632-2.295-.816-4.707-1.2494-7.142-1.2829z" fill="#77c34c" stroke-linecap="round" stroke-linejoin="round"/><path d="m518.396 65.2542c2.058 1.6611 4.22 3.188 6.473 4.5713 2.059 1.2828 4.09 2.4302 6.185 3.5143 2.113 1.1111 4.29 2.0975 6.518 2.9541 2.37.947 4.853 1.5817 7.386 1.8881-1.466-2.3932-3.293-4.5447-5.417-6.3781-1.991-1.7693-4.193-3.2864-6.555-4.517-2.288-1.2144-4.748-2.0706-7.295-2.5386-2.432-.5095-4.957-.3344-7.295.5059z" fill="#77c34c" stroke-linecap="round" stroke-linejoin="round"/><path d="m515.353 54.9633c1.89 1.8865 4.014 3.5229 6.32 4.8694 2.017 1.1932 4.132 2.2146 6.32 3.0535 2.13.8285 4.329 1.4634 6.573 1.8972 2.399.4893 4.858.6142 7.295.3704-1.51-2.3645-3.441-4.4314-5.697-6.098-2.025-1.5278-4.252-2.7653-6.618-3.6769-2.258-.8891-4.639-1.4254-7.06-1.59-2.438-.2064-4.89.1972-7.133 1.1744z" fill="#77c34c" stroke-linecap="round" stroke-linejoin="round"/><path d="m513.096 41.7017c1.754 2.1054 3.772 3.9758 6.004 5.565 2.007 1.4526 4.12 2.754 6.32 3.8936 2.186 1.1371 4.452 2.1124 6.78 2.9181 2.537.9039 5.18 1.4748 7.864 1.6984-1.248-2.6244-2.975-4.9927-5.092-6.9834-1.933-1.8649-4.118-3.4493-6.491-4.7067-2.304-1.2352-4.782-2.1126-7.35-2.6019-2.658-.555-5.41-.4807-8.035.2169z" fill="#77c34c" stroke-linecap="round" stroke-linejoin="round"/><path d="m513.033 28.359c.476.6169.992 1.2023 1.544 1.7526.487.5782.975 1.0841 1.462 1.5719.488.4879.948 1.0118 1.427 1.4726.478.4607.903.9486 1.426 1.3912 1.963 1.8674 4.077 3.5687 6.32 5.0862 2.42 1.6714 5.049 3.0169 7.819 4.0021.731.2439 1.481.4698 2.23.6505s1.553.3072 2.32.4156c.795.0812 1.594.1173 2.393.1084.815-.0314 1.626-.1434 2.419-.3343-.514-.7498-1.029-1.3912-1.525-1.9875-.497-.5962-.976-1.2196-1.454-1.8068-.479-.5872-.903-1.1293-1.417-1.6442-.515-.515-.903-1.057-1.418-1.5448-1.887-2.0038-3.964-3.8192-6.203-5.4205-2.355-1.7198-4.987-3.0244-7.782-3.8575-.74-.1988-1.499-.3614-2.257-.4969-.759-.1356-1.58-.1627-2.366-.2078-.818.0044-1.635.0587-2.446.1626-.85.1527-1.684.3825-2.492.6866z" fill="#77c34c" stroke-linecap="round" stroke-linejoin="round"/><path d="m514.73 15.3311c.3.7696.669 1.5104 1.102 2.2134.362.6686.759 1.317 1.192 1.9423.415.6144.821 1.2196 1.264 1.7617.422.5653.874 1.1082 1.354 1.6261 1.905 2.1328 4.092 3.9958 6.501 5.5379 2.635 1.7165 5.532 2.992 8.577 3.7763.812.1987 1.643.3613 2.482.4878.84.1265 1.725.1626 2.601.2078.904.0012 1.809-.047 2.708-.1446.951-.1293 1.888-.347 2.799-.6504-.423-.7923-.894-1.5585-1.408-2.2947-.461-.7227-.903-1.3732-1.373-1.9965-.469-.6234-.903-1.2467-1.354-1.8068s-.903-1.1474-1.372-1.6623c-1.814-2.1177-3.89-3.9967-6.176-5.5921-2.459-1.7207-5.213-2.9732-8.126-3.695-.801-.193-1.611-.3437-2.428-.4517-.849-.0993-1.743-.1445-2.618-.1626-.933.0133-1.865.0796-2.79.1988-.997.1484-1.979.3842-2.935.7046z" fill="#77c34c" stroke-linecap="round" stroke-linejoin="round"/><path d="m516.671 8.98075c-3.548-1.21961-8.171-.40653-12.324 1.24675-3.846 1.6002-7.436 3.7584-10.653 6.4051-2.857 2.2841-5.43 4.9015-7.666 7.7965-1.093 1.4351-2.085 2.9444-2.97 4.517-.442.804-.903 1.6171-1.264 2.4844-.421.8925-.78 1.8131-1.074 2.7554 1-.034 1.995-.1641 2.97-.3885.932-.2056 1.852-.4651 2.754-.7769 1.744-.6195 3.43-1.3935 5.038-2.3128 3.134-1.8366 6.067-3.9986 8.748-6.4503 2.709-2.4392 5.101-4.8965 7.548-7.3357 1.246-1.2105 2.492-2.4482 3.937-3.7311.713-.6504 1.48-1.3009 2.302-1.9875.821-.6866 1.67-1.40929 2.654-2.22235z" fill="#17a638" stroke-linecap="round" stroke-linejoin="round"/><path d="m486.209 48.2779c.806-.1574 1.597-.381 2.366-.6685.74-.262 1.408-.5601 2.067-.8582 1.3-.6053 2.492-1.2558 3.612-1.8972 1.119-.6414 2.103-1.2919 3.069-1.9062s1.887-1.2467 2.835-1.9152c2.055-1.4114 4.01-2.9629 5.851-4.6435 1.053-.9825 2.053-2.0199 2.997-3.1078.506-.5781 1.02-1.1834 1.526-1.8068.537-.6931 1.029-1.4204 1.472-2.1772-.806-.2803-1.633-.4918-2.474-.6324-.786-.1368-1.579-.2303-2.375-.2801-1.545-.0852-3.094-.0065-4.622.2349-3.102.4935-6.064 1.6356-8.695 3.3517-2.682 1.7059-4.846 4.115-6.257 6.9653-.668 1.3819-1.127 2.8555-1.363 4.3725-.125.7892-.194 1.5861-.207 2.385-.015.8655.051 1.7306.198 2.5837z" fill="#17a638" stroke-linecap="round" stroke-linejoin="round"/><path d="m490.092 58.9568c2.822.1483 5.631-.4763 8.125-1.8069 2.252-1.1743 4.303-2.6989 6.076-4.517 1.752-1.7926 3.308-3.7672 4.641-5.8902 1.472-2.3199 2.698-4.7876 3.657-7.3628-2.863.2051-5.641 1.0577-8.126 2.4934-2.252 1.257-4.326 2.8096-6.167 4.6164-1.745 1.7015-3.306 3.5819-4.658 5.6102-1.459 2.132-2.65 4.4348-3.548 6.8569z" fill="#17a638" stroke-linecap="round" stroke-linejoin="round"/><path d="m494.678 70.2408c2.288-.5509 4.49-1.411 6.546-2.5566 1.797-.9804 3.512-2.1043 5.128-3.3607 1.611-1.2485 3.121-2.6229 4.514-4.1105 1.624-1.6978 3.026-3.5951 4.171-5.6463-2.606-.7086-5.349-.7427-7.972-.0994-2.336.5575-4.531 1.5942-6.446 3.0445-1.881 1.3978-3.424 3.2009-4.514 5.2759-1.191 2.2923-1.687 4.8827-1.427 7.4531z" fill="#17a638" stroke-linecap="round" stroke-linejoin="round"/><path d="m500.429 79.5992 3.268-.8221c.975-.262 1.923-.5149 2.826-.8311 1.833-.6216 3.553-1.5369 5.092-2.7103 1.55-1.1616 2.891-2.5792 3.964-4.1918 1.244-1.8559 2.055-3.9676 2.374-6.1793-2.331-.2465-4.688.0029-6.915.7318-1.888.6041-3.661 1.5201-5.246 2.7102-1.59 1.1758-2.954 2.6296-4.027 4.2912-.6.9579-1.047 2.0033-1.327 3.0987-.327 1.2799-.33 2.6213-.009 3.9027z" fill="#17a638" stroke-linecap="round" stroke-linejoin="round"/><path d="m505.81 90.3411c2.081-.3072 4.115-.881 6.049-1.7074 1.674-.7143 3.231-1.6733 4.623-2.8458 1.463-1.2196 2.669-2.7182 3.548-4.4086 1.075-2.0363 1.492-4.3566 1.192-6.64-2.12.1947-4.2.6968-6.176 1.4905-1.71.6895-3.299 1.6504-4.703 2.8458-1.477 1.2448-2.679 2.783-3.531 4.5171-1.032 2.0888-1.383 4.4494-1.002 6.7484z" fill="#17a638" stroke-linecap="round" stroke-linejoin="round"/><path d="m510.848 99.6097c1.807-.3911 3.541-1.0648 5.138-1.9965 1.402-.8341 2.686-1.8519 3.819-3.0264 1.118-1.1538 2.083-2.4473 2.871-3.8486.4-.7363.762-1.4931 1.083-2.2675.163-.3884.316-.8402.479-1.2286l.243-.6505c.082-.2168.19-.4155.307-.6685-.293-.1022-.595-.1778-.903-.2258-.278-.0399-.558-.058-.839-.0542-.524-.0001-1.047.0483-1.562.1445-.937.1876-1.847.491-2.709.9034-1.549.7271-2.949 1.7383-4.126 2.9812-1.168 1.2418-2.115 2.6749-2.798 4.237-.369.843-.654 1.7207-.849 2.6199-.1.4898-.175.9843-.226 1.4816v.795c0 .2711.027.5149.072.804z" fill="#17a638" stroke-linecap="round" stroke-linejoin="round"/><path d="m514.315 107.225c1.904.412 3.892.16 5.633-.713 1.492-.745 2.798-1.817 3.82-3.135.972-1.245 1.713-2.656 2.184-4.1649.53-1.7033.768-3.484.705-5.2668-1.793.0833-3.522.6893-4.975 1.7436-1.24.877-2.334 1.9441-3.241 3.1619-.87 1.1612-1.623 2.4042-2.248 3.7132-.722 1.513-1.349 3.07-1.878 4.661z" fill="#17a638" stroke-linecap="round" stroke-linejoin="round"/><path d="m517.493 116.133c1.6.028 3.191-.251 4.686-.822 1.252-.493 2.41-1.199 3.421-2.087 1.006-.867 1.844-1.911 2.474-3.08.328-.635.6-1.297.813-1.979.234-.799.391-1.619.469-2.448-.46-.118-.933-.182-1.408-.19-.422-.01-.845.008-1.264.054-.751.09-1.49.263-2.203.515-1.28.458-2.456 1.167-3.458 2.087-1.006.918-1.833 2.014-2.438 3.234-.328.675-.591 1.38-.785 2.105-.235.85-.339 1.73-.307 2.611z" fill="#17a638" stroke-linecap="round" stroke-linejoin="round"/><path d="m518.549 123.722c1.527.223 3.083.125 4.569-.29 1.256-.353 2.435-.938 3.476-1.725 1.044-.769 1.92-1.743 2.573-2.864.35-.613.629-1.265.83-1.942.248-.801.346-1.64.289-2.476-1.515-.176-3.051-.044-4.514.389-1.202.368-2.325.956-3.313 1.734-.998.788-1.845 1.749-2.501 2.837-.355.609-.657 1.247-.903 1.906-.284.782-.454 1.6-.506 2.431z" fill="#17a638" stroke-linecap="round" stroke-linejoin="round"/><path d="m518.983 129.821c1.294.244 2.625.22 3.909-.073 1.227-.265 2.402-.732 3.476-1.382 1.101-.654 2.057-1.528 2.808-2.566.818-1.083 1.254-2.409 1.237-3.767-1.152.376-2.277.829-3.368 1.355-.975.452-1.919.968-2.826 1.545-.953.591-1.859 1.255-2.708 1.988-.986.832-1.838 1.81-2.528 2.9z" fill="#17a638" stroke-linecap="round" stroke-linejoin="round"/><path d="m518.27 136.56c1.267.22 2.568.158 3.81-.18 1.187-.293 2.322-.765 3.367-1.401 1.052-.614 2-1.391 2.808-2.303.873-.954 1.51-2.099 1.86-3.343-1.238.068-2.457.334-3.611.786-1.046.393-2.05.889-2.998 1.482-.965.593-1.872 1.277-2.708 2.041-.969.857-1.819 1.838-2.528 2.918z" fill="#17a638" stroke-linecap="round" stroke-linejoin="round"/><path d="m517.385 143.326c1.241-.077 2.461-.358 3.611-.831 1.074-.416 2.098-.953 3.052-1.599.954-.632 1.83-1.375 2.609-2.214.867-.9 1.558-1.954 2.04-3.107-1.23-.059-2.459.135-3.611.569-1.087.389-2.117.924-3.061 1.59-.964.674-1.843 1.463-2.618 2.349-.849.961-1.532 2.057-2.022 3.243z" fill="#17a638" stroke-linecap="round" stroke-linejoin="round"/><path d="m515.687 148.431c1.042.239 2.126.224 3.16-.045.996-.233 1.952-.614 2.835-1.129.899-.516 1.715-1.165 2.42-1.925.772-.814 1.344-1.798 1.67-2.872-1.054-.061-2.11.073-3.115.397-.902.278-1.766.666-2.573 1.156-.828.5-1.597 1.091-2.293 1.762-.824.781-1.532 1.675-2.104 2.656z" fill="#17a638" stroke-linecap="round" stroke-linejoin="round"/><path d="m513.882 153.047c.728.005 1.454-.09 2.157-.28.625-.157 1.23-.381 1.806-.669.581-.295 1.131-.646 1.643-1.048.618-.483 1.171-1.045 1.644-1.671-.642-.312-1.363-.423-2.068-.316-.706.099-1.39.319-2.022.65-.669.344-1.279.792-1.806 1.328-.594.561-1.057 1.246-1.354 2.006z" fill="#17a638" stroke-linecap="round" stroke-linejoin="round"/><path d="m75.5336 338.626s-.2528-1.527-2.8892-4.598c-1.282-1.509-4.4239-3.614-1.941-5.882 3.169-2.9 8.1707 6.27 8.1707 6.27 1.2385-1.219 2.3795-2.533 3.4128-3.93l-.1806-.424c-3.3315-7.761-10.2293-7.327-8.9653-12.648.9029-3.614 4.3879-1.012 5.4171-.163 2.5148 2.18 4.6505 4.763 6.32 7.643l.2167.154c.6995-1.674 1.27-3.398 1.7063-5.159-.0367-.067-.0699-.137-.0993-.207-3.8913-8.854-10.3286-9.035-13.2628-12.468-.9029-1.038.1896-5.736 5.3719-2.963 4.9567 2.656 8.541 8.257 8.9021 8.736.1084-5.998-1.6973-11.202-5.0198-14.247-9.6966-8.898-19.4294.082-19.8627 2.105-.3251-2.05-9.5431-11.554-19.7182-3.207-3.4941 2.864-5.5797 7.959-5.8054 13.958.3972-.461 4.2795-5.854 9.3716-8.23 5.3268-2.484 6.1394 2.258 5.2094 3.252-3.1329 3.307-9.5611 3.09-13.94 11.745 0 .063-.0722.126-.1083.198.3375 1.781.8114 3.532 1.4175 5.24l.2257-.135c1.8185-2.785 4.0888-5.246 6.7172-7.282 1.1195-.786 4.7851-3.234 5.4171.461.966 5.42-5.8956 4.607-9.6605 12.169l-.1986.415c.956 1.45 2.0214 2.824 3.187 4.111 0 0 5.5074-8.881 8.5139-5.809 2.3474 2.394-.9029 4.336-2.2662 5.764-2.7988 2.918-3.1419 4.435-3.1419 4.435 3.8853 3.979 8.4425 7.239 13.4615 9.631 5.1657-2.124 9.9133-5.149 14.0213-8.935zm-19.7905-32.107c-.6681-.452-1.3001-2.638-.6681-3.135 1.0564-.822 5.0108 1.084 4.7942 2.412-.1535 1.03-3.2413 1.31-4.1081.723zm-.5056 9.802c-.5236-.235-.957-1.807-.5778-2.195.632-.723 3.6565-.461 3.8281.487.1715.949-2.3926 2.069-3.2323 1.708zm14.6533-9.387c-.9029.542-3.9726.091-4.0809-.948-.1535-1.337 3.9093-3.018 4.9205-2.141.6049.497-.1535 2.656-.8396 3.089zm-3.1871 7.932c.2167-.903 3.2502-1.03 3.8461-.271.3521.443-.1715 1.952-.6951 2.15-.8577.299-3.3496-1.011-3.151-1.906zm-10.5272 12.35c-.4334 0-1.1466-1.012-.9931-1.409.2618-.696 2.4918-1.31 2.871-.678s-1.1827 2.105-1.8779 2.06zm12.1524.334c-.6952 0-2.1398-1.599-1.7516-2.186s2.6002.126 2.8259.831c.1264.389-.641 1.328-1.0924 1.328z" fill="#17a638" stroke-linejoin="round"/></g><path d="m41.7214 316.953c5.2636-4.915 13.7504-10.155 20.7024-5.484.0565.03.1062.071.1457.121s.068.108.0835.17.0177.126.0065.189-.0356.123-.0716.175c-.036.053-.0827.098-.1371.131s-.1153.055-.1786.063c-.0632.008-.1275.002-.1885-.016-.0611-.019-.1175-.05-.1655-.092-6.5547-4.716-14.9151.235-20.1968 4.743z" fill="#91c46a"/><path d="m45.7395 328.137c2.4196-2.186 4.9206-4.273 7.5298-6.243 2.6092-1.969 5.3087-3.984 8.6312-4.824.0581-.013.1183-.015.177-.005.0588.01.115.032.1654.064.0503.032.0939.073.1281.122s.0584.104.0712.162c.0133.058.015.119.0049.177-.01.059-.0316.115-.0635.166-.0319.05-.0735.094-.1223.128s-.1039.059-.1622.071c-3.0877.606-5.9226 2.602-8.568 4.31-2.6453 1.707-5.2817 3.803-7.7916 5.872z" fill="#91c46a"/><path d="m55.3999 339.574c.9029-4.517 3.4128-8.646 6.3922-12.142.0367-.047.0826-.086.135-.114.0523-.028.1099-.046.1692-.051s.119.002.1754.021.1082.05.1524.09c.0451.042.081.093.1056.15.0246.056.0373.118.0373.179 0 .062-.0127.123-.0373.18s-.0605.108-.1056.15c-3.151 3.243-5.9137 7.101-7.0603 11.537z" fill="#91c46a"/><path d="m43.1663 301.252c6.0852-4.734 14.0934-5.068 19.5918.731.0826.088.1271.205.1237.325-.0033.12-.0543.234-.1417.317s-.2041.127-.3243.124c-.1202-.004-.2342-.055-.3168-.142-5.0921-5.863-12.8746-5.674-18.9598-1.355z" fill="#91c46a"/><path d="m75.5338 338.634s-.2528-1.535-2.8801-4.607c-1.2911-1.5-4.424-3.614-1.9502-5.881 3.169-2.9 8.1799 6.269 8.1799 6.269 1.237-1.217 2.3752-2.531 3.4037-3.929l-.1716-.416c-3.3315-7.76-10.2293-7.327-8.9653-12.693.9029-3.613 4.3879-1.003 5.4171-.153 2.5184 2.176 4.6547 4.759 6.32 7.642l.2257.145c.694-1.675 1.2614-3.399 1.6973-5.159l-.0993-.198c-3.8822-8.854-10.3195-9.034-13.2628-12.476-.9029-1.03.1986-5.728 5.4171-2.954 4.9476 2.647 8.5319 8.257 8.9021 8.735.1083-6.007-1.6974-11.202-5.0289-14.255-9.6966-8.899-19.4203.081-19.8627 2.114l-1.2911 46.688c5.1325-2.118 9.8538-5.121 13.9491-8.872zm-5.6429-31.7c-.9028.533-3.9635.09-4.0809-.958-.1444-1.328 3.9094-3.017 4.9296-2.132.6049.506-.1625 2.656-.8487 3.09zm0 9.811c-.9028.325-3.3585-.994-3.1509-1.879.2077-.886 3.2593-1.039 3.8552-.271.307.469-.2077 1.933-.7403 2.132zm-1.5167 10.841c-.7043 0-2.1488-1.599-1.7606-2.187.3882-.587 2.6002.127 2.8259.832.0993.352-.6681 1.3-1.1285 1.3z" fill="#0e7e35" stroke="#01090f" stroke-linejoin="round" stroke-width="1.25"/><path d="m83.0815 318.1c-5.0289-4.788-13.1094-10.2-19.9079-5.854-.1004.057-.2189.074-.3312.046-.1122-.028-.2097-.097-.2722-.194-.0625-.098-.0853-.215-.0637-.329.0215-.114.0858-.215.1796-.282 7.2228-4.3 15.3936 1.4 20.3954 6.613z" fill="#91c46a"/><path d="m78.4134 329.04c-2.4076-2.204-4.8964-4.312-7.4666-6.324-2.537-1.806-5.2455-3.993-8.2881-4.77-.0582-.012-.1134-.037-.1622-.071s-.0903-.078-.1222-.128-.0535-.107-.0636-.166c-.0101-.058-.0084-.118.0049-.177.0147-.059.0412-.116.0779-.165.0368-.049.083-.091.136-.122s.1118-.051.1727-.059c.061-.008.1229-.004.1822.012 3.2683 1.021 5.7421 3.234 8.3423 5.294s4.8935 4.336 7.2228 6.649z" fill="#91c46a"/><path d="m68.6807 339.971c-.9028-4.517-3.4398-8.492-6.4012-11.907-.0832-.086-.1298-.201-.1298-.321 0-.119.0466-.234.1298-.32.0463-.041.1005-.072.1592-.09.0587-.019.1207-.025.1818-.018.0612.007.1203.027.1735.057.0532.031.0994.073.1356.123 2.7807 3.614 5.1011 7.878 5.706 12.476z" fill="#91c46a"/><path d="m82.4944 302.345c-5.8144-4.653-13.5428-5.267-18.9599.298-.0408.047-.0908.085-.147.112-.0562.026-.1173.041-.1795.043s-.1241-.009-.1819-.032c-.0577-.023-.11-.058-.1537-.102-.0437-.045-.0777-.098-.1-.156s-.0323-.12-.0295-.182.0184-.123.0459-.179.0662-.105.1137-.146c5.8144-5.501 13.8046-4.724 19.6099.344z" fill="#91c46a"/><path d="m62.8663 300.809-1.2911 46.697" stroke="#01090f" stroke-linejoin="round" stroke-width="1.25"/><path d="m72.4277 303.898c0-.108-.0001-.217-.0723-.334-2.3293-14.455-11.737-17.165-14.7074-23.344-.9028-1.861 2.4648-8.339 9.0285-2.295 6.2568 5.782 9.3806 15.358 9.7417 16.207 2.4377-8.763 1.8058-17.083-1.9501-22.82-10.8342-16.749-28.53-7.282-29.9565-4.517.2979-3.135-9.6155-20.589-27.7176-12.214-6.2026 2.873-11.21334 9.549-13.82258 18.258.75839-.524 8.51388-6.957 16.89238-8.501 8.7486-1.618 8.1256 5.655 6.3921 6.748-5.8505 3.614-15.204.903-24.90062 11.889-.07358.086-.15196.167-.23475.244-.184402 2.744-.157157 5.499.08134 8.239l.38816-.117s5.96784-5.593 12.63987-8.131c1.9321-.732 8.2431-2.936 7.8097 2.71-.65 8.32-10.4008 4.517-18.79728 14.175l-.45143.533c.84914 2.486 1.89053 4.902 3.11479 7.227 0 0 11.44812-10.931 14.69832-5.285 2.528 4.418-2.9703 6.017-5.5253 7.598-5.20948 3.225-6.31998 5.312-6.31998 5.312 4.18778 7.318 9.63428 13.838 16.08878 19.26 8.348-1.144 16.4288-3.753 23.8713-7.706 0 0 .2077-2.331-2.4828-7.841-1.3182-2.711-5.1102-6.993-.623-9.369 5.7602-3.044 9.6154 12.305 9.6154 12.305 2.2748-1.279 4.4453-2.735 6.4915-4.355 0-.226-.0542-.451-.0903-.686-1.9502-12.648-12.2246-14.645-8.3333-22.025 2.6543-5.032 6.8165.189 8.0624 1.806 4.2705 5.701 6.32 13.615 6.32 13.615s.0903.117.2618.298c1.6711-2.175 3.1713-4.477 4.4872-6.884zm-40.6825-33.282c-.7674-1.111-.4424-4.95.8487-5.339 2.1759-.65 7.2228 4.761 6.0943 6.712-.9029 1.518-5.9318.082-6.943-1.373zm-4.2072 17.102c-1.1647-.678-2.4739-4.309-1.4536-5.204 1.6973-1.49 8.568 1.301 8.3333 3.56-.1896 1.761-5.3539 2.547-6.8797 1.644zm18.057-12.576c.0632-2.267 7.2228-4.146 8.7305-2.439.9029 1.012-.9029 4.445-2.1217 4.969-1.6522.687-6.6811-.759-6.6359-2.53zm-5.0921 32.577c-1.4717-.569-3.792-4.616-2.6634-5.718 1.4445-1.41 7.2228 1.807 7.1054 3.848-.1083 1.202-3.3406 2.304-4.4691 1.87z" fill="#17a638" stroke="#01090f" stroke-linejoin="round" stroke-width="1.25"/><path d="m7.32324 282.47c9.57926-5.104 23.97066-9.495 32.29496 0 .0766.093.1135.212.1025.331s-.0689.23-.1611.306c-.0922.077-.2111.114-.3304.103-.1194-.011-.2295-.069-.3062-.161-7.936-9.405-22.1108-5.258-31.59976-.561z" fill="#91c46a"/><path d="m9.02041 300.42c6.56949-3.454 13.41959-6.347 20.47669-8.645 2.3941-.793 4.8994-1.199 7.4214-1.202.1197 0 .2346.048.3192.133.0847.084.1322.199.1322.319s-.0475.235-.1322.319c-.0846.085-.1995.133-.3192.133-4.8483-.253-9.7237 1.644-14.2921 3.189-4.6226 1.707-9.1729 3.613-13.63299 5.754z" fill="#91c46a"/><path d="m18.7981 320.864c2.6544-5.52 7.1325-9.992 11.9717-13.668.7043-.515 1.4265-1.012 2.1398-1.518.0485-.035.1035-.06.1616-.073s.1182-.015.177-.005c.0587.01.1149.032.1653.064.0503.032.0939.073.1281.122s.0583.105.0709.163c.0126.059.0135.119.0026.178s-.0334.115-.0662.165c-.0327.05-.0751.093-.1247.127-5.8324 3.613-11.3217 8.32-14.6261 14.454z" fill="#91c46a"/><path d="m15.4219 259.956c10.7439-4.517 22.4809-2.059 28.2591 8.646.0575.106.0707.229.0369.345-.0339.115-.1121.212-.2174.269-.1054.058-.2293.071-.3444.037-.1152-.034-.2121-.112-.2695-.217-5.363-10.661-16.8562-13.181-27.4647-9.08z" fill="#91c46a"/><path d="m72.4186 303.899c0-.109 0-.217-.0632-.335-2.3294-14.454-11.7371-17.119-14.7074-23.344-.9029-1.861 2.4647-8.338 9.0285-2.294 6.2567 5.781 9.3806 15.358 9.7417 16.207 2.4377-8.763 1.8057-17.084-1.9501-22.82-10.8342-16.75-28.5301-7.282-29.9566-4.517l-19.6551 68.008c8.3512-1.143 16.4353-3.752 23.8804-7.706 0 0 .2077-2.331-2.4828-7.851-1.3182-2.71-5.1101-6.983-.6139-9.359 5.7511-3.044 9.6153 12.305 9.6153 12.305 2.277-1.316 4.4475-2.808 6.4915-4.463 0-.226-.0632-.452-.1084-.687-1.932-12.648-12.2155-14.644-8.3332-22.025 2.6634-5.041 6.8255.19 8.0714 1.807 4.2705 5.682 6.32 13.605 6.32 13.605l.2618.298c1.6638-2.155 3.1551-4.439 4.4601-6.829zm-26.8508-28.756c.0632-2.268 7.2228-4.147 8.7306-2.448.9028 1.021-.9029 4.454-2.1217 4.978-1.6342.695-6.654-.768-6.6089-2.53zm-5.0921 32.577c-1.4626-.56-3.7919-4.607-2.6634-5.719 1.4446-1.418 7.2229 1.807 7.1055 3.849-.0813 1.201-3.3135 2.304-4.4421 1.87z" fill="#0e7e35" stroke="#01090f" stroke-linejoin="round" stroke-width="1.25"/><path d="m67.5704 299.897c-5.5074-9.034-15.3033-20.119-27.0223-16.397-.0576.028-.1203.043-.184.044-.0638.002-.1272-.01-.186-.035s-.1117-.061-.1552-.108-.0766-.102-.0972-.163c-.0205-.06-.0281-.124-.0221-.188.006-.063.0254-.125.0569-.18.0315-.056.0744-.104.1259-.142.0515-.037.1104-.064.1728-.077 12.0981-3.614 21.9212 7.814 27.3112 17.246z" fill="#91c46a"/><path d="m56.5736 314.161c-2.6453-4.165-5.4171-8.23-8.4687-12.142-3.0246-3.731-6.1304-7.932-10.3377-10.308-.0911-.062-.1563-.156-.183-.263-.0267-.108-.0132-.221.038-.319s.1365-.174.2397-.213c.1033-.039.2174-.039.3207 0 2.1493 1.349 4.0669 3.036 5.6789 4.996 4.7405 5.716 8.9928 11.821 12.7121 18.249z" fill="#91c46a"/><path d="m37.3881 326.24c.4695-6.947-1.6793-13.822-4.6677-20.019-.0503-.109-.0553-.234-.0138-.347.0415-.112.126-.204.235-.254.1089-.051.2334-.055.346-.014.1126.042.2041.126.2543.235 2.7086 6.378 4.6226 13.425 3.8462 20.399z" fill="#91c46a"/><path d="m72.7073 276.562c-6.7443-9.125-17.8854-13.145-28.0696-6.993-.0518.037-.1109.063-.1732.075-.0624.012-.1267.011-.1886-.003-.062-.014-.1203-.041-.1711-.079-.0508-.039-.0929-.087-.1236-.143s-.0493-.117-.0546-.181c-.0053-.063.0029-.127.024-.187.021-.06.0545-.115.0982-.161.0438-.046.0968-.082.1555-.107 10.5905-5.98 21.831-1.807 28.503 7.779z" fill="#91c46a"/><path d="m44.4934 266.84-19.646 68.008" stroke="#01090f" stroke-linejoin="round" stroke-width="1.25"/><path d="m152.746 210.648v5.972" stroke="#01090f" stroke-linecap="round" stroke-linejoin="round" stroke-width="1.25"/><path d="m133.885 216.873h37.721c.321 0 .629.128.855.355.227.227.355.535.355.856v4.571h-40.141v-4.571c0-.321.128-.629.354-.856.227-.227.535-.355.856-.355z" fill="#d5dde0" stroke="#01090f" stroke-miterlimit="10" stroke-width="1.25"/><path d="m187.713 195.417c-4.439 4.809-9.826 8.645-15.822 11.265-5.995 2.62-12.468 3.968-19.01 3.958-6.235 0-12.41-1.229-18.17-3.617-5.761-2.387-10.995-5.887-15.404-10.299-4.409-4.411-7.907-9.649-10.293-15.413s-3.614-11.942-3.614-18.181c-.01-6.732 1.415-13.389 4.178-19.526 2.764-6.138 6.802-11.616 11.848-16.069" stroke="#01090f" stroke-linecap="round" stroke-linejoin="round" stroke-width="1.25"/><path d="m430.681 86.4202h-219.239l5.029-12.6116h219.239z" fill="#d5dde0" stroke="#01090f" stroke-miterlimit="10" stroke-width="1.25"/><path d="m430.681 76.3391h-219.239l5.029-12.6116h219.239z" fill="#d5dde0" stroke="#01090f" stroke-miterlimit="10" stroke-width="1.25"/><path d="m430.681 66.2471h-219.239l5.029-12.6026h219.239z" fill="#d5dde0" stroke="#01090f" stroke-miterlimit="10" stroke-width="1.25"/><path d="m430.681 56.1651h-219.239l5.029-12.6026h219.239z" fill="#d5dde0" stroke="#01090f" stroke-miterlimit="10" stroke-width="1.25"/><path d="m430.681 46.084h-219.239l5.029-12.6026h219.239z" fill="#d5dde0" stroke="#01090f" stroke-miterlimit="10" stroke-width="1.25"/><path d="m430.681 36.0022h-219.239l5.029-12.6116h219.239z" fill="#d5dde0" stroke="#01090f" stroke-miterlimit="10" stroke-width="1.25"/><path d="m323.576 23.3906v7.8416" stroke="#01090f" stroke-miterlimit="10" stroke-width="1.25"/><path d="m323.576 36.001v5.8721" stroke="#01090f" stroke-miterlimit="10" stroke-width="1.25"/><path d="m323.576 46.0283v5.8812" stroke="#01090f" stroke-miterlimit="10" stroke-width="1.25"/><path d="m323.576 56.3008v5.8812" stroke="#01090f" stroke-miterlimit="10" stroke-width="1.25"/><path d="m323.576 66.6455v5.8812" stroke="#01090f" stroke-miterlimit="10" stroke-width="1.25"/><path d="m323.576 76.6094v5.8721" stroke="#01090f" stroke-miterlimit="10" stroke-width="1.25"/><path d="m323.576 86.5479v6.5677" stroke="#01090f" stroke-miterlimit="10" stroke-width="1.25"/><path d="m324.831 92.5908h-2.51c-.278.0278-.538.151-.735.3486-.198.1976-.321.4575-.349.7355l-.74 3.7311c0 .7769 1.381 1.4093 3.079 1.4093 1.697 0 3.079-.6324 3.079-1.4093l-.741-3.7311c-.028-.278-.151-.5379-.348-.7355-.198-.1976-.457-.3208-.735-.3486z" fill="#fdcb7e" stroke="#01090f" stroke-miterlimit="10" stroke-width="1.25"/><path d="m152.745 204.054c22.389 0 40.538-18.161 40.538-40.563 0-22.403-18.149-40.563-40.538-40.563s-40.538 18.16-40.538 40.563c0 22.402 18.149 40.563 40.538 40.563z" fill="#549cf1" stroke="#01090f" stroke-linecap="round" stroke-linejoin="round" stroke-width="1.25"/><path d="m144.556 202.084c-.37-.108-.659-.379-.632-.605s.47-.479 1.003-.56c.73-.147 1.44-.383 2.112-.705l.632-.307c.67-.331 1.237-.836 1.643-1.463.382-.666.808-1.306 1.273-1.916l1.508-1.951c.455-.655.636-1.462.506-2.249l-.136-.606c-.158-.694-.095-1.421.181-2.077.21-.26.477-.466.782-.603.304-.137.636-.199.969-.183h.271c.798-.01 1.575-.258 2.23-.714.589-.531.975-1.249 1.093-2.033l.352-3.433c.116-.822.426-1.606.903-2.285l.532-.687c.438-.558.769-1.192.975-1.87.036-.258-.023-.52-.166-.738-.142-.217-.359-.376-.61-.446-.66-.278-1.219-.755-1.598-1.364-.219-.309-.505-.566-.836-.75-.331-.185-.7-.292-1.078-.316h-1.806c-.84-.03-1.67-.185-2.465-.46l-1.056-.407c-.342-.146-.64-.38-.864-.678-.223-.299-.364-.65-.409-1.02-.078-.785-.301-1.548-.659-2.25-.211-.302-.488-.552-.81-.731-.323-.179-.682-.281-1.05-.299h-.487c-2.248 0-2.077-2.945-4.045-3.171-.759-.081-1.463.389-2.221.443-.782-.012-1.541-.272-2.167-.741-.617-.47-1.314-.822-2.058-1.039-1.328-.262-2.176.831-2.944 1.717-.267.278-.595.492-.959.623-.363.132-.751.178-1.135.136l-1.409-.235c-.353-.073-.674-.257-.916-.525s-.392-.607-.429-.966l-.127-1.915c-.037-.359-.186-.697-.425-.966-.24-.269-.559-.456-.911-.534l-.361-.063c-.143-.02-.279-.074-.397-.157-.118-.084-.214-.194-.28-.323-.066-.128-.101-.27-.101-.415 0-.144.035-.287.101-.415.304-.518.446-1.116.406-1.716-.09-.353-.641-.317-1.219.081l-1.652 1.111c-.669.419-1.451.618-2.239.569-.333-.049-.65-.173-.927-.364-.277-.192-.507-.444-.671-.738-.24-.602-.3-1.262-.171-1.897.232-.724.534-1.423.902-2.087l.109-.181c.421-.712 1.022-1.301 1.742-1.707l.732-.38c.761-.348 1.583-.545 2.419-.578h3.26c.704 0 1.273.407 1.263.904.044.299.162.582.344.823.181.242.42.434.695.559.731.352.966-.316.975-.904-.062-.413-.036-.836.076-1.239s.308-.778.574-1.1c.588-.552 1.219-1.057 1.887-1.509 1.381-1.093 1.959-2.783 3.115-4.111 1.562-1.806 3.71-2.15 5.606-3.613.59-.415 1.278-.667 1.996-.732l.903-.117c.993-.1.902-1.003.758-1.5-.145-.497-.903 0-1.237-.271-.184-.111-.322-.284-.389-.488-.068-.203-.061-.424.019-.623.136-.19.335-.326.561-.384.226-.057.465-.034.676.067.412.214.799.471 1.155.768.179.148.391.248.618.294.226.046.461.035.682-.032.289-.117.001-.406.208-.614.099-.119.229-.208.376-.257s.304-.057.455-.023c.903.361.135 1.68.686 2.322.361.415 1.806.442 2.293.524h.316c.172 0 .325-.298.334-.624 0-.849-1.201-1.039-1.706-1.346-.112-.059-.203-.15-.264-.26-.061-.111-.089-.237-.079-.363.022-.104.069-.201.136-.282.068-.082.154-.147.252-.188.587-.271 1.201-.379 1.237-1.219-.026-.296-.121-.58-.278-.831-.157-.252-.371-.462-.625-.615-.284-.214-.519-.485-.69-.797-.172-.311-.275-.655-.303-1.01v-.37c.014-.145-.013-.291-.078-.421-.066-.131-.167-.24-.292-.314-.125-.075-.268-.113-.414-.109-.145.004-.287.049-.408.13l-.289.145c-.506.268-1.052.457-1.616.56-.262 0-.415-.497-.352-1.111.005-.329-.103-.648-.308-.905-.204-.257-.491-.436-.811-.505l-1.021-.244c-.667-.164-1.372-.074-1.977.253-.469.485-.732 1.133-.731 1.807v.831c-.018.365-.141.717-.356 1.013-.215.295-.512.521-.854.65l-.181.054c-.74.272-1.358.801-1.742 1.49-.289.606-.777 1.139-1.093 1.193s-.568-.479-.568-1.184v-.261c-.006-.373-.149-.729-.403-1.001-.253-.273-.599-.441-.97-.472-.631-.085-1.242-.281-1.805-.578-.43-.332-.746-.79-.903-1.31-.034-.316.029-.635.18-.914.152-.279.385-.506.668-.649l2.194-1.292c.693-.394 1.421-.721 2.176-.976 1.345-.415.903 1.012 1.806 1.066.195-.022.384-.084.555-.182.171-.097.32-.229.438-.387.268-.32.442-.707.506-1.12.032-.151.113-.287.23-.387.118-.1.266-.157.42-.164.46-.049.892-.242 1.237-.551l.496-.524.145-.145c.452-.168.926-.271 1.408-.307l.704-.09c.695-.089 1.399.071 1.987.452.397.343.207.903-.407 1.219l-1.508.804c-.613.334-.568.741.118.904l2.284.542c.278.101.582.106.863.014.282-.092.525-.275.69-.52.131-.245.327-.449.565-.591.239-.141.512-.215.789-.213.276.005.548-.057.795-.179.247-.123.46-.303.623-.526.054-.08.087-.172.097-.268.009-.096-.005-.193-.041-.283-.037-.089-.095-.168-.169-.229-.075-.062-.163-.104-.257-.123-.219-.082-.408-.229-.54-.421s-.202-.421-.201-.654c-.059-.315-.198-.608-.401-.855-.204-.246-.466-.437-.763-.555l-2.294-1.021c-.228-.095-.463-.171-.704-.225-1.612.148-3.213.396-4.794.74-.195.184-.35.407-.454.655-.105.247-.156.513-.151.782 0 .632-.37 1.093-.903 1.012-.235-.02-.46-.103-.652-.24-.192-.136-.344-.322-.44-.537.003-.433.174-.848.478-1.157-.785.217-1.562.452-2.329.714.009.069.009.139 0 .208-.072.343-.596.65-1.174.686s-1.119.253-1.21.479c-.09.226-.731.425-1.435.443h-.695c-5.578 2.685-10.468 6.609-14.299 11.474-3.83 4.865-6.499 10.541-7.803 16.595l.731 1.075c.187.238.318.515.382.811s.06.602-.012.896c-.076.293-.086.599-.028.897.057.297.181.577.362.82l.353.533c.474.658 1.154 1.141 1.932 1.373l1.805.903c.235.083.491.081.724-.007.233-.087.427-.254.549-.471.1-.163.271-.651 1.147-.479.469.09.533.659.488.993-.012.176.043.35.154.487.11.137.268.228.441.254.371.064 1.147.253 1.716.407.723.256 1.371.688 1.887 1.256l1.264 1.463c.564.583 1.309.958 2.112 1.066l1.228.09c.355.038.688.193.946.439.258.247.427.573.481.926l.072.56c.022.382-.048.764-.205 1.113-.158.35-.397.656-.698.892l-.487.344c-.308.244-.564.547-.753.891-.189.345-.308.723-.349 1.114v.217c-.027.713-.109 1.422-.244 2.123-.034.671.181 1.331.605 1.852l2.149 2.71c.415.538.721 1.152.903 1.807.051.229.161.44.32.613.158.173.359.301.583.372.642.211 1.251.516 1.805.903l.985.669c.298.255.542.569.716.921.174.353.274.737.295 1.129v5.963c0 .705.234 1.337.514 1.418.28.082.416.705.289 1.401l-.252 1.409c-.101.799.092 1.608.541 2.276l.199.271c.427.596.664 1.309.677 2.042v.063c1.769.62 3.579 1.115 5.417 1.482.125-.168.217-.358.271-.56.135-.244-.135-.533-.506-.642z" fill="#88eb7a" stroke="#01090f" stroke-linecap="round" stroke-linejoin="round" stroke-width="1.25"/><path d="m180.418 136.75-.316.452c-.497.638-1.204 1.08-1.996 1.246-.339.057-.656.209-.912.44-.256.23-.44.529-.532.861-.099.605.063 1.157.361 1.229.159.064.287.188.357.344.071.156.079.334.022.496-.081.388-.713.587-1.399.452-.686-.136-1.806-.271-2.411-.398-.302-.032-.607.04-.863.204s-.448.411-.545.7c-.138.629-.156 1.279-.054 1.915v.208c.036.312.135.613.29.886s.363.512.612.704c.371.171 1.301-.317 1.933-.317s1.381.597 1.805.551c.208-.035.405-.115.58-.234.174-.118.321-.272.431-.452.371-.569-.171-1.509.316-1.97.488-.46.768-.343 1.562-.388.795-.045.903-.858 1.571-.849.571.005 1.125-.186 1.571-.542.434-.398.732-.479.903-.163.319.495.726.927 1.201 1.274l1.742 1.183c.578.398.109 1.039-.289 1.31-.111.085-.194.201-.239.334-.044.132-.048.275-.01.41s.116.255.223.344c.108.09.239.145.379.159.405-.02.798-.148 1.137-.37.141-.077.264-.182.364-.307.099-.126.172-.27.214-.425.063-.271.433-.361.704-.524-.225-.452-.451-.903-.686-1.337l-1.806-1.084c-.46-.3-.811-.74-1.002-1.256-.047-.113-.063-.236-.048-.357.016-.121.063-.236.137-.333.075-.097.173-.173.286-.22.112-.047.235-.063.357-.048h.054c-1.272-1.89-2.704-3.667-4.28-5.312-.695.182-1.305.6-1.724 1.184z" fill="#88eb7a" stroke="#01090f" stroke-linecap="round" stroke-linejoin="round" stroke-width="1.25"/><path d="m190.927 149.848c-.184.047-.348.151-.47.297-.121.146-.194.327-.207.516 0 .425-.181.777-.397.777-.302-.027-.591-.133-.84-.307-.522-.286-1.081-.498-1.661-.632l-1.887-.479c-.346-.106-.651-.317-.872-.603-.222-.286-.349-.634-.365-.996v-.298c.003-.164-.028-.327-.092-.477-.064-.151-.16-.286-.28-.397s-.263-.196-.418-.247c-.156-.052-.32-.07-.483-.054l-2.988.235c-.739.062-1.46.255-2.131.569-.615.287-1.282.444-1.959.461-.605 0-1.346 0-1.644-.054-.587.058-1.153.253-1.652.569l-.442.244c-.322.208-.591.488-.784.82-.193.331-.305.703-.327 1.086v.244c-.021.392-.123.775-.301 1.125-.177.35-.425.659-.728.908l-1.95 1.418c-.695.497-2.104 1.22-2.23 2.132-.031.205-.009.413.062.608.071.194.189.367.344.503.298.271.75.434.84.822.09.389-.235.732-.479 1.048-.713.904-.523 2.096-.541 3.208.04.814.33 1.596.83 2.24l3.025 3.487c.358.413.819.725 1.336.904.6.13 1.225.093 1.806-.109.746-.14 1.508-.185 2.266-.135.637.023 1.266-.147 1.806-.488.456-.332 1.007-.506 1.57-.497.592.005 1.164.209 1.626.578.525.399 1.15.645 1.805.714l.578.054c.336.041.642.211.854.474.213.263.314.599.284.935l-.154 1.627c-.044.824.127 1.646.497 2.385l2.212 3.929c.165.351.25.733.25 1.121 0 .387-.085.769-.25 1.12l-.641 1.246c-.324.605-.506 1.275-.533 1.961.097.581.368 1.12.777 1.545.09.081.162.171.243.253 4.543-6.704 6.966-14.621 6.952-22.721.036-4.652-.727-9.276-2.257-13.669z" fill="#88eb7a" stroke="#01090f" stroke-linecap="round" stroke-linejoin="round" stroke-width="1.25"/><path d="m266.983 118.51 21.217 74.016h35.726l-21.217-74.016z" fill="#fff" opacity=".5"/><path d="m240.954 118.51 21.217 74.016h11.502l-21.217-74.016z" fill="#fff" opacity=".5"/><path d="m316.026 118.51 21.217 74.016h27.248l-21.217-74.016z" fill="#fff" opacity=".5"/><path d="m376.354 118.51h-147.255v74.007h147.255z" stroke="#01090f" stroke-linecap="round" stroke-linejoin="round" stroke-width="1.25"/><path d="m360.654 158.269c7.295 0 13.208-6.88 13.208-15.367s-5.913-15.367-13.208-15.367-13.209 6.88-13.209 15.367 5.914 15.367 13.209 15.367z" fill="#5c7888" stroke="#01090f" stroke-miterlimit="10" stroke-width="1.25"/><path d="m355.363 154.655c5.559 0 10.067-5.262 10.067-11.753s-4.508-11.754-10.067-11.754c-5.56 0-10.067 5.263-10.067 11.754s4.507 11.753 10.067 11.753z" fill="#fcef8c" stroke="#01090f" stroke-miterlimit="10" stroke-width="1.25"/><path d="m372.21 105.149c1.759-.817 3.668-1.26 5.607-1.301h-5.941c-11.809.226-21.325 12.087-21.325 27.246-.007 4.091.724 8.149 2.157 11.98h5.616c-1.426-3.829-2.151-7.884-2.14-11.97-.027-11.673 7.232-22.233 16.026-25.955z" fill="#d5dde0" stroke="#01090f" stroke-miterlimit="10" stroke-width="1.25"/><path d="m394.582 129.08c.064.506.118 1.012.154 1.527.072.941.072 1.886 0 2.827.695.707 1.301 1.496 1.806 2.349.203-1.552.306-3.115.307-4.68-.07-5.633-1.495-11.168-4.154-16.134l-.316-.57c-.081-.144-.162-.289-.252-.433-1.742-3.044-4.123-5.673-6.979-7.706-1.855-1.339-4.037-2.15-6.316-2.345-2.278-.196-4.567.23-6.622 1.233-8.622 4.111-16.053 14.283-16.053 25.955-.011 4.087.713 8.142 2.14 11.971h2.645c-1.423-3.83-2.145-7.885-2.131-11.971.011-4.785 1.292-9.482 3.713-13.609 2.421-4.128 5.894-7.537 10.065-9.879 1.114-.697 2.334-1.21 3.611-1.518 6.988-1.129 16.504 7.507 18.382 22.983z" fill="#5c7888" stroke="#01090f" stroke-miterlimit="10" stroke-width="1.25"/><path d="m354.406 150.509c3.735 0 6.762-3.758 6.762-8.393s-3.027-8.392-6.762-8.392-6.762 3.757-6.762 8.392 3.027 8.393 6.762 8.393z" fill="#d5dde0" stroke="#01090f" stroke-miterlimit="10" stroke-width="1.25"/><path d="m403.458 222.673h-31.32v-29.054c0-.44.086-.876.255-1.282.168-.407.415-.777.726-1.088s.68-.558 1.086-.726c.407-.169.842-.255 1.282-.255h24.621c.44 0 .875.086 1.282.255.406.168.775.415 1.086.726.312.311.558.681.727 1.088.168.406.255.842.255 1.282z" fill="#fff" stroke="#01090f" stroke-miterlimit="10" stroke-width="1.25"/><path d="m371.406 198.417h.723v4.12c-.239-.04-.481-.061-.723-.064-.646 0-1.286.128-1.883.375-.597.248-1.139.61-1.596 1.067-.457.458-.819 1-1.067 1.598-.247.597-.374 1.237-.374 1.884 0 .646.127 1.287.374 1.884.248.597.61 1.14 1.067 1.597.457.458.999.82 1.596 1.068.597.247 1.237.374 1.883.374.242-.002.484-.023.723-.063v4.12c-.235 0-.479 0-.723 0-2.394 0-4.691-.952-6.384-2.646s-2.644-3.992-2.644-6.388c.028-2.377.992-4.648 2.682-6.318 1.69-1.671 3.971-2.608 6.346-2.608z" fill="#fff" stroke="#01090f" stroke-miterlimit="10" stroke-width="1.25"/><path d="m281.835 293.907h-9.417v55.623h9.417z" fill="#9baeb5" stroke="#01090f" stroke-miterlimit="10" stroke-width="1.25"/><path d="m222.346 349.674v-3.722c0-1.51.599-2.957 1.666-4.025 1.067-1.067 2.514-1.667 4.022-1.667h98.176c1.509 0 2.955.6 4.022 1.667 1.067 1.068 1.666 2.515 1.666 4.025v3.722z" fill="#9baeb5" stroke="#01090f" stroke-miterlimit="10" stroke-width="1.25"/><path d="m326.164 370.941c6.443 0 11.665-5.226 11.665-11.672 0-6.447-5.222-11.672-11.665-11.672-6.442 0-11.664 5.225-11.664 11.672 0 6.446 5.222 11.672 11.664 11.672z" fill="#6d8894" stroke="#01090f" stroke-miterlimit="10" stroke-width="1.25"/><path d="m279.09 347.597h-4.388c-3.276 0-5.932 2.657-5.932 5.935v12.015c0 3.278 2.656 5.936 5.932 5.936h4.388c3.276 0 5.932-2.658 5.932-5.936v-12.015c0-3.278-2.656-5.935-5.932-5.935z" fill="#6d8894" stroke="#01090f" stroke-miterlimit="10" stroke-width="1.25"/><path d="m335.013 291.576h-112.667c-6.708 0-12.143-5.113-12.143-11.419 0-13.831 18.544-14.31 23.086-8.076 7.394-5.746 22.39-6.089 30.055 0 8.027-5.349 22.635-5.746 30.345 0 8.27-5.746 21.994-5.945 29.903 0 6.211-7.851 23.176-4.111 23.176 8.076-.006 1.527-.316 3.038-.913 4.443-.597 1.406-1.469 2.678-2.564 3.741-1.095 1.064-2.391 1.898-3.813 2.454-1.421.555-2.94.821-4.465.781z" fill="#ffae1f" stroke="#01090f" stroke-miterlimit="10" stroke-width="1.25"/><path d="m326.165 363.813c2.508 0 4.541-2.035 4.541-4.544 0-2.51-2.033-4.544-4.541-4.544s-4.541 2.034-4.541 4.544c0 2.509 2.033 4.544 4.541 4.544z" fill="#4a687b" stroke="#01090f" stroke-miterlimit="10" stroke-width="1.25"/><path d="m228.747 370.941c6.443 0 11.665-5.226 11.665-11.672 0-6.447-5.222-11.672-11.665-11.672-6.442 0-11.664 5.225-11.664 11.672 0 6.446 5.222 11.672 11.664 11.672z" fill="#6d8894" stroke="#01090f" stroke-miterlimit="10" stroke-width="1.25"/><path d="m228.747 363.813c2.508 0 4.541-2.035 4.541-4.544 0-2.51-2.033-4.544-4.541-4.544s-4.541 2.034-4.541 4.544c0 2.509 2.033 4.544 4.541 4.544z" fill="#4a687b" stroke="#01090f" stroke-miterlimit="10" stroke-width="1.25"/><path d="m220.314 291.612h115.096c0 1.5-.596 2.939-1.656 3.999-1.06 1.061-2.497 1.657-3.996 1.657h-103.828c-1.499 0-2.936-.596-3.996-1.657-1.06-1.06-1.656-2.499-1.656-3.999z" fill="#9baeb5" stroke="#01090f" stroke-miterlimit="10" stroke-width="1.25"/><path d="m279.966 297.268h-19.195c-2.598 0-4.704 2.107-4.704 4.706v.009c0 2.6 2.106 4.707 4.704 4.707h19.195c2.598 0 4.704-2.107 4.704-4.707v-.009c0-2.599-2.106-4.706-4.704-4.706z" fill="#6d8894" stroke="#01090f" stroke-miterlimit="10" stroke-width="1.25"/><path d="m274.657 297.286h-19.195c-2.598 0-4.704 2.107-4.704 4.707v.009c0 2.599 2.106 4.707 4.704 4.707h19.195c2.598 0 4.704-2.108 4.704-4.707v-.009c0-2.6-2.106-4.707-4.704-4.707z" fill="#6d8894" stroke="#01090f" stroke-miterlimit="10" stroke-width="1.25"/><path d="m269.339 297.312h-19.194c-2.598 0-4.704 2.108-4.704 4.707v.009c0 2.6 2.106 4.707 4.704 4.707h19.194c2.598 0 4.704-2.107 4.704-4.707v-.009c0-2.599-2.106-4.707-4.704-4.707z" fill="#6d8894" stroke="#01090f" stroke-miterlimit="10" stroke-width="1.25"/><path d="m264.031 297.339h-19.195c-2.598 0-4.704 2.107-4.704 4.707v.009c0 2.599 2.106 4.706 4.704 4.706h19.195c2.598 0 4.704-2.107 4.704-4.706v-.009c0-2.6-2.106-4.707-4.704-4.707z" fill="#9baeb5" stroke="#01090f" stroke-miterlimit="10" stroke-width="1.25"/><path d="m288.958 177.321h-58.423c-19.497 0-35.302 15.815-35.302 35.324 0 19.508 15.805 35.323 35.302 35.323h58.423c19.497 0 35.302-15.815 35.302-35.323 0-19.509-15.805-35.324-35.302-35.324z" fill="#ffae1f" stroke="#01090f" stroke-miterlimit="10" stroke-width="1.25"/><path d="m285.627 183.166h-51.842c-16.27 0-29.46 13.198-29.46 29.478v.009c0 16.281 13.19 29.479 29.46 29.479h51.842c16.27 0 29.46-13.198 29.46-29.479v-.009c0-16.28-13.19-29.478-29.46-29.478z" fill="#9baeb5" stroke="#01090f" stroke-miterlimit="10" stroke-width="1.25"/><path d="m263.886 203.231h-19.195c-2.597 0-4.703 2.108-4.703 4.707v.009c0 2.6 2.106 4.707 4.703 4.707h19.195c2.598 0 4.704-2.107 4.704-4.707v-.009c0-2.599-2.106-4.707-4.704-4.707z" fill="#9baeb5" stroke="#01090f" stroke-miterlimit="10" stroke-width="1.25"/><path d="m263.886 212.655h-19.195c-2.597 0-4.703 2.108-4.703 4.707v.009c0 2.6 2.106 4.707 4.703 4.707h19.195c2.598 0 4.704-2.107 4.704-4.707v-.009c0-2.599-2.106-4.707-4.704-4.707z" fill="#9baeb5" stroke="#01090f" stroke-miterlimit="10" stroke-width="1.25"/><path d="m263.886 222.067h-19.195c-2.597 0-4.703 2.108-4.703 4.707v.009c0 2.6 2.106 4.707 4.703 4.707h19.195c2.598 0 4.704-2.107 4.704-4.707v-.009c0-2.599-2.106-4.707-4.704-4.707z" fill="#9baeb5" stroke="#01090f" stroke-miterlimit="10" stroke-width="1.25"/><path d="m263.886 231.49h-19.195c-2.597 0-4.703 2.108-4.703 4.707v.009c0 2.599 2.106 4.707 4.703 4.707h19.195c2.598 0 4.704-2.108 4.704-4.707v-.009c0-2.599-2.106-4.707-4.704-4.707z" fill="#9baeb5" stroke="#01090f" stroke-miterlimit="10" stroke-width="1.25"/><path d="m263.886 240.913h-19.195c-2.597 0-4.703 2.107-4.703 4.707v.009c0 2.599 2.106 4.707 4.703 4.707h19.195c2.598 0 4.704-2.108 4.704-4.707v-.009c0-2.6-2.106-4.707-4.704-4.707z" fill="#9baeb5" stroke="#01090f" stroke-miterlimit="10" stroke-width="1.25"/><path d="m263.886 250.335h-19.195c-2.597 0-4.703 2.107-4.703 4.707v.009c0 2.599 2.106 4.707 4.703 4.707h19.195c2.598 0 4.704-2.108 4.704-4.707v-.009c0-2.6-2.106-4.707-4.704-4.707z" fill="#9baeb5" stroke="#01090f" stroke-miterlimit="10" stroke-width="1.25"/><path d="m263.886 259.758h-19.195c-2.597 0-4.703 2.107-4.703 4.707v.009c0 2.599 2.106 4.706 4.703 4.706h19.195c2.598 0 4.704-2.107 4.704-4.706v-.009c0-2.6-2.106-4.707-4.704-4.707z" fill="#9baeb5" stroke="#01090f" stroke-miterlimit="10" stroke-width="1.25"/><path d="m263.886 269.181h-19.195c-2.597 0-4.703 2.107-4.703 4.706v.009c0 2.6 2.106 4.707 4.703 4.707h19.195c2.598 0 4.704-2.107 4.704-4.707v-.009c0-2.599-2.106-4.706-4.704-4.706z" fill="#9baeb5" stroke="#01090f" stroke-miterlimit="10" stroke-width="1.25"/><path d="m263.886 278.594h-19.195c-2.597 0-4.703 2.107-4.703 4.707v.009c0 2.599 2.106 4.706 4.703 4.706h19.195c2.598 0 4.704-2.107 4.704-4.706v-.009c0-2.6-2.106-4.707-4.704-4.707z" fill="#9baeb5" stroke="#01090f" stroke-miterlimit="10" stroke-width="1.25"/><path d="m263.886 288.017h-19.195c-2.597 0-4.703 2.107-4.703 4.706v.009c0 2.6 2.106 4.707 4.703 4.707h19.195c2.598 0 4.704-2.107 4.704-4.707v-.009c0-2.599-2.106-4.706-4.704-4.706z" fill="#9baeb5" stroke="#01090f" stroke-miterlimit="10" stroke-width="1.25"/><path d="m255.417 229.72c4.184 0 7.575-3.394 7.575-7.58s-3.391-7.579-7.575-7.579c-4.183 0-7.574 3.393-7.574 7.579s3.391 7.58 7.574 7.58z" fill="#6d8894" stroke="#01090f" stroke-miterlimit="10" stroke-width="1.25"/><path d="m251.869 229.72c4.184 0 7.575-3.394 7.575-7.58s-3.391-7.579-7.575-7.579c-4.183 0-7.575 3.393-7.575 7.579s3.392 7.58 7.575 7.58z" fill="#9baeb5" stroke="#01090f" stroke-miterlimit="10" stroke-width="1.25"/><path d="m517.355 361.293v-35.764c0-2.047-1.608-3.707-3.592-3.707h-.011c-1.984 0-3.593 1.66-3.593 3.707v35.764c0 2.047 1.609 3.707 3.593 3.707h.011c1.984 0 3.592-1.66 3.592-3.707z" fill="#6d8894" stroke="#01090f" stroke-linecap="round" stroke-linejoin="round" stroke-width="1.25"/><path d="m532.402 358.458h-9.813v12.43h9.813z" fill="#6d8894" stroke="#01090f" stroke-linecap="round" stroke-linejoin="round" stroke-width="1.25"/><path d="m505.58 358.458h-11.122v12.43h11.122z" fill="#4a687b" stroke="#01090f" stroke-linecap="round" stroke-linejoin="round" stroke-width="1.25"/><path d="m522.589 358.458h-17.009v12.43h17.009z" fill="#9baeb5" stroke="#01090f" stroke-linecap="round" stroke-linejoin="round" stroke-width="1.25"/><path d="m505.58 315.28h-11.122v13.084h11.122z" fill="#4a687b" stroke="#01090f" stroke-linecap="round" stroke-linejoin="round" stroke-width="1.25"/><path d="m522.589 315.28h-17.009v13.084h17.009z" fill="#9baeb5" stroke="#01090f" stroke-linecap="round" stroke-linejoin="round" stroke-width="1.25"/><path d="m532.402 315.28h-9.813v13.084h9.813z" fill="#6d8894" stroke="#01090f" stroke-linecap="round" stroke-linejoin="round" stroke-width="1.25"/><path d="m527.823 362.383 8.793 8.504h8.216l-8.793-8.504z" fill="#4a687b" stroke="#01090f" stroke-linecap="round" stroke-linejoin="round" stroke-width="1.25"/><path d="m544.832 340.141h-8.216l-8.793 9.158h8.216z" fill="#4a687b" stroke="#01090f" stroke-linecap="round" stroke-linejoin="round" stroke-width="1.25"/><path d="m535.663 362.372v-13.061l.01-.011h-7.84l-.01.011v13.061l.01.012h7.84z" fill="#4a687b" stroke="#01090f" stroke-linecap="round" stroke-linejoin="round" stroke-width="1.25"/><path d="m557.407 340.141h-8.391-4.34l-8.992 8.995-.011.011v12.735l.011.011 8.992 8.995h4.34 8.391l9.014-9.006v-12.735z" fill="#9baeb5" stroke="#01090f" stroke-linecap="round" stroke-linejoin="round" stroke-width="1.25"/><path d="m583.618 351.916h-31.777c-2.064 0-3.738 1.755-3.738 3.919v.012c0 2.165 1.674 3.919 3.738 3.919h31.777c2.064 0 3.738-1.754 3.738-3.919v-.012c0-2.164-1.674-3.919-3.738-3.919z" fill="#6d8894" stroke="#01090f" stroke-linecap="round" stroke-linejoin="round" stroke-width="1.25"/><path d="m590.626 340.141h-8.526l-9.137 9.158h8.526z" fill="#4a687b" stroke="#01090f" stroke-linecap="round" stroke-linejoin="round" stroke-width="1.25"/><path d="m572.963 362.383 9.137 8.504h8.526l-9.137-8.504z" fill="#4a687b" stroke="#01090f" stroke-linecap="round" stroke-linejoin="round" stroke-width="1.25"/><path d="m581.456 362.372v-13.061l.011-.011h-8.493l-.011.011v13.061l.011.012h8.493z" fill="#4a687b" stroke="#01090f" stroke-linecap="round" stroke-linejoin="round" stroke-width="1.25"/><path d="m603.212 340.141h-8.402-4.34l-8.991 8.995-.011.011v12.735l.011.011 8.991 8.995h4.34 8.402l9.003-9.006v-12.735z" fill="#9baeb5" stroke="#01090f" stroke-linecap="round" stroke-linejoin="round" stroke-width="1.25"/><path d="m596.847 349.3h-.012c-3.79 0-6.863 2.926-6.863 6.536v.011c0 3.61 3.073 6.537 6.863 6.537h.012c3.79 0 6.863-2.927 6.863-6.537v-.011c0-3.61-3.073-6.536-6.863-6.536z" fill="#9baeb5" stroke="#01090f" stroke-linecap="round" stroke-linejoin="round" stroke-width="1.25"/><path d="m3.15015 370.654h637.84985" stroke="#01090f" stroke-width="1.25"/><path d="m82.9041 164.808-.6039-3.472c-.5133-2.99-2.8686-5.315-5.8277-5.828l-3.4725-.604 3.4725-.604c2.9893-.513 5.3144-2.868 5.8277-5.828l.6039-3.472.6039 3.472c.5133 2.99 2.8685 5.315 5.8277 5.828l3.4725.604-3.4725.604c-2.9893.513-5.3144 2.869-5.8277 5.828z" fill="#a7d5f8" stroke="#01090f" stroke-miterlimit="10" stroke-width="1.25"/><path d="m578.007 233.015-.793-4.574c-.687-3.913-3.754-6.98-7.64-7.641l-4.574-.793 4.574-.793c3.912-.687 6.979-3.754 7.64-7.64l.793-4.574.793 4.574c.688 3.912 3.755 6.979 7.641 7.64l4.574.793-4.574.793c-3.913.688-6.98 3.755-7.641 7.641z" fill="#fff" stroke="#01090f" stroke-miterlimit="10" stroke-width="1.25"/><path d="m93.5115 36.0231-.5737-3.3517c-.4831-2.8686-2.7477-5.103-5.5861-5.5861l-3.3517-.5738 3.3517-.5737c2.8685-.4831 5.103-2.7478 5.5861-5.5861l.5737-3.3517.5738 3.3517c.4831 2.8685 2.7477 5.103 5.5861 5.5861l3.3516.5737-3.3516.5738c-2.8686.4831-5.103 2.7477-5.5861 5.5861z" fill="#2ae21d" stroke="#01090f" stroke-miterlimit="10" stroke-width="1.25"/><path d="m605.512 61.0231-.574-3.3517c-.483-2.8686-2.748-5.103-5.586-5.5862l-3.352-.5736 3.352-.5738c2.868-.4831 5.103-2.7477 5.586-5.5861l.574-3.3517.573 3.3517c.483 2.8686 2.748 5.103 5.586 5.5861l3.352.5738-3.352.5736c-2.868.4832-5.103 2.7478-5.586 5.5862z" fill="#fdb54f" stroke="#01090f" stroke-miterlimit="10" stroke-width="1.25"/><path d="m165.076 73.1528c2.252 0 4.077-1.8251 4.077-4.0764s-1.825-4.0764-4.077-4.0764c-2.251 0-4.076 1.8251-4.076 4.0764s1.825 4.0764 4.076 4.0764z" fill="#ffa9c6" stroke="#01090f" stroke-miterlimit="10" stroke-width="1.25"/><path d="m534.076 199.153c2.252 0 4.077-1.825 4.077-4.077 0-2.251-1.825-4.076-4.077-4.076-2.251 0-4.076 1.825-4.076 4.076 0 2.252 1.825 4.077 4.076 4.077z" fill="#2ae21d" stroke="#01090f" stroke-miterlimit="10" stroke-width="1.25"/><path d="m487.915 114.829c3.819 0 6.914-3.095 6.914-6.914s-3.095-6.915-6.914-6.915-6.915 3.096-6.915 6.915 3.096 6.914 6.915 6.914z" fill="#fff" stroke="#01090f" stroke-miterlimit="10" stroke-width="1.25"/><path d="m34.9147 200.829c3.8189 0 6.9148-3.095 6.9148-6.914s-3.0959-6.915-6.9148-6.915-6.9147 3.096-6.9147 6.915 3.0958 6.914 6.9147 6.914z" fill="#a7d5f8" stroke="#01090f" stroke-miterlimit="10" stroke-width="1.25"/><path d="m593.058 117.117c2.794 0 5.059-2.265 5.059-5.059 0-2.793-2.265-5.058-5.059-5.058-2.793 0-5.058 2.265-5.058 5.058 0 2.794 2.265 5.059 5.058 5.059z" fill="#fcef8c" stroke="#01090f" stroke-miterlimit="10" stroke-width="1.25"/></svg>