<svg fill="none" height="429" viewBox="0 0 549 429" width="549" xmlns="http://www.w3.org/2000/svg"><path d="m262.348 284.414c35.921 0 65.041-29.12 65.041-65.041s-29.12-65.041-65.041-65.041-65.041 29.12-65.041 65.041 29.12 65.041 65.041 65.041z" stroke="#01090f" stroke-miterlimit="10" stroke-width="1.25"/><path d="m262.347 337.097c65.017 0 117.723-52.707 117.723-117.724s-52.706-117.724-117.723-117.724-117.724 52.707-117.724 117.724 52.707 117.724 117.724 117.724z" stroke="#01090f" stroke-miterlimit="10" stroke-width="1.25"/><path d="m262.347 396.764c97.97 0 177.39-79.421 177.39-177.391 0-97.969-79.42-177.3896-177.39-177.3896s-177.39 79.4206-177.39 177.3896c0 97.97 79.42 177.391 177.39 177.391z" stroke="#01090f" stroke-miterlimit="10" stroke-width="1.25"/><path d="m170.231 96.4195c15.207 0 27.534-12.3274 27.534-27.534s-12.327-27.5339-27.534-27.5339c-15.206 0-27.534 12.3273-27.534 27.5339s12.328 27.534 27.534 27.534z" fill="#01090f"/><path d="m173.391 91.2457c15.207 0 27.534-12.3274 27.534-27.534s-12.327-27.534-27.534-27.534c-15.206 0-27.534 12.3274-27.534 27.534s12.328 27.534 27.534 27.534z" fill="#2c71f0" stroke="#01090f" stroke-miterlimit="10" stroke-width="1.25"/><path d="m186.697 72.9946c-9.628-1.1784-19.429 1.4371-22.418 11.4964-.575 1.9257-.891 3.5065-1.035 4.8285 5.633 2.2418 12.043 2.6442 18.251.7186 1.753-.4311 2.5-.8335 3.65-1.4083 4.483-2.0981 8.162-5.2884 10.835-9.111-2.471-3.1327-6.524-6.1793-9.283-6.5242z" fill="#2ae21d" stroke="#01090f" stroke-miterlimit="10" stroke-width="1.25"/><path d="m179.54 36.8389c-4.771 3.4489-7.818 8.4499-7.013 15.204 1.926 15.7789 9.772 6.4955 13.537 6.8404 1.064.0862 2.242 2.5005 3.938 1.5808 6.237-3.3053-3.823-13.4796 2.586-13.1635 1.667.0863 4.139 3.4777 6.208 5.7483-3.535-8.4212-10.835-14.2556-19.256-16.21z" fill="#2ae21d" stroke="#01090f" stroke-miterlimit="10" stroke-width="1.25"/><path d="m160.918 71.3277c.718-.776 3.333-.2874 3.65-2.1555 1.149-6.9841-13.049-5.0872-8.939-10.0307 2.127-2.5579 16.957.2874 9.6-4.9722-3.392-2.4143-10.031 4.1387-8.709-6.0356.345-2.673-1.121-3.4777-3.276-3.1616-6.783 7.3003-9.37 18.0207-5.777 28.0514.891 2.5292 2.127 4.8285 3.621 6.8978 9.427 3.6501 7.53-6.0931 9.83-8.5936z" fill="#2ae21d" stroke="#01090f" stroke-miterlimit="10" stroke-width="1.25"/><path d="m400.796 368.309c19.985 0 36.185-16.201 36.185-36.185 0-19.985-16.2-36.186-36.185-36.186-19.984 0-36.185 16.201-36.185 36.186 0 19.984 16.201 36.185 36.185 36.185z" fill="#01090f"/><path d="m406.085 362.646c19.985 0 36.186-16.2 36.186-36.185 0-19.984-16.201-36.185-36.186-36.185-19.984 0-36.185 16.201-36.185 36.185 0 19.985 16.201 36.185 36.185 36.185z" fill="#2c71f0" stroke="#01090f" stroke-miterlimit="10" stroke-width="1.25"/><path d="m418.415 343.822c-11.382-5.72-24.66-6.84-32.822 4.282-1.552 2.127-2.673 3.938-3.392 5.519 5.978 5.259 13.738 8.593 22.246 8.967 2.385.259 3.449.057 5.116-.144 6.466-.632 12.416-2.931 17.417-6.495-1.638-4.915-5.289-10.491-8.565-12.129z" fill="#2ae21d" stroke="#01090f" stroke-miterlimit="10" stroke-width="1.25"/><path d="m425.57 295.969c-7.415 2.155-13.422 7.013-15.377 15.721-4.598 20.349 9.198 12.33 13.71 14.457 1.264.603 1.667 4.052 4.139 3.707 9.197-1.322 1.235-18.336 9.024-15.117 2.012.833 3.593 6.122 5.116 9.829-.603-12.042-7.099-22.475-16.612-28.597z" fill="#2ae21d" stroke="#01090f" stroke-miterlimit="10" stroke-width="1.25"/><path d="m387.26 330.343c1.236-.661 4.254 1.121 5.461-1.064 4.483-8.133-13.882-12.071-6.611-16.325 3.765-2.213 20.838 7.847 14.055-1.925-3.104-4.484-14.227.661-8.076-11.324 1.609-3.133.143-4.8-2.645-5.375-11.611 6.036-19.544 18.136-19.544 32.133 0 3.506.518 6.898 1.437 10.117 10.031 8.737 11.985-4.168 15.923-6.237z" fill="#2ae21d" stroke="#01090f" stroke-miterlimit="10" stroke-width="1.25"/><path d="m134.136 294.906c3.736-4.139 8.967-8.565 15.146-12.618 6.179-4.052 12.33-7.07 17.618-8.852l10.06-6.582 4.483 6.841c3.162 4.828-6.121 16.469-20.722 26.039-14.6 9.571-29 13.422-32.161 8.594l-4.484-6.84z" fill="#01090f"/><path d="m156.242 292.916c14.606-9.568 23.886-21.232 20.729-26.052-3.158-4.82-17.558-.97-32.164 8.598-14.605 9.568-23.886 21.232-20.728 26.052 3.157 4.82 17.557.971 32.163-8.598z" fill="#01090f"/><path d="m136.146 294.819-2.931 2.185-.604-.805 2.961-2.213c-.518-1.868 2.098-5.519 6.869-9.054l.718.949c-2.845 2.098-4.713 4.426-4.541 5.834l10.634-7.904c.115-1.839.604-3.937 6.122-8.047 3.679-2.73 7.502-4.283 9.082-3.248l2.214-1.638.603.805-2.213 1.638c.402 1.466-1.092 4.455-6.294 8.306l-.719-.977c2.788-2.069 4.283-3.938 4.081-5.116l-9.685 7.185c-.173 2.012-.518 4.311-6.525 8.766-4.11 3.018-8.162 4.599-9.772 3.334zm16.383-13.451 8.967-6.668c-1.121-.574-3.363.489-5.403 2.012-2.673 2.012-3.334 3.363-3.564 4.656zm-7.559 9.284c3.391-2.529 4.053-4.081 4.225-5.518l-10.031 7.472c1.006.633 3.191-.029 5.806-1.954z" fill="#01090f"/><path d="m133.389 284.931c3.737-4.139 8.968-8.565 15.147-12.617 6.179-4.053 12.33-7.07 17.618-8.852l10.06-6.582 4.483 6.84c3.162 4.829-6.122 16.469-20.722 26.04-14.601 9.57-29 13.422-32.161 8.593l-4.484-6.84z" fill="#f78400" stroke="#01090f" stroke-miterlimit="10" stroke-width="1.25"/><path d="m155.498 282.929c14.606-9.568 23.886-21.232 20.729-26.052-3.158-4.82-17.558-.971-32.164 8.598-14.605 9.568-23.886 21.232-20.729 26.052 3.158 4.82 17.558.971 32.164-8.598z" fill="#f8bc20" stroke="#01090f" stroke-miterlimit="10" stroke-width="1.25"/><path d="m135.371 284.816-2.932 2.185-.603-.805 2.96-2.213c-.517-1.868 2.098-5.518 6.869-9.054l.719.949c-2.845 2.098-4.714 4.426-4.541 5.834l10.634-7.904c.115-1.839.604-3.937 6.122-8.047 3.679-2.73 7.501-4.282 9.082-3.248l2.213-1.638.604.805-2.213 1.638c.402 1.466-1.093 4.455-6.295 8.306l-.718-.977c2.788-2.069 4.282-3.938 4.081-5.116l-9.686 7.185c-.172 2.012-.517 4.312-6.524 8.766-4.11 3.018-8.162 4.599-9.772 3.334zm16.411-13.422 8.967-6.668c-1.12-.575-3.362.489-5.403 2.012-2.702 1.983-3.363 3.363-3.564 4.656zm-7.587 9.255c3.391-2.529 4.052-4.081 4.225-5.518l-10.031 7.472c1.006.633 3.219-.028 5.806-1.954z" fill="#01090f"/><path d="m339.716 189.626c-1.006-3.622-2.845-7.904-5.346-12.244-2.529-4.34-5.317-8.047-7.99-10.72l-4.081-7.042-4.8 2.788c-3.362 1.954-1.293 11.841 4.656 22.073 5.95 10.232 13.509 16.929 16.871 14.974l4.8-2.788z" fill="#01090f"/><path d="m343.816 196.677c3.377-1.961 1.3-11.841-4.639-22.068s-13.49-16.927-16.867-14.966-1.3 11.841 4.638 22.068c5.939 10.226 13.491 16.927 16.868 14.966z" fill="#01090f"/><path d="m339.917 188.648 1.236 2.127-.575.345-1.265-2.156c-1.293.201-3.564-1.839-5.576-5.317l.69-.402c1.207 2.069 2.616 3.506 3.564 3.506l-4.512-7.76c-1.236-.23-2.616-.719-4.944-4.742-1.552-2.673-2.299-5.375-1.494-6.352l-.92-1.61.575-.345.92 1.61c1.034-.173 2.902 1.092 5.116 4.886l-.719.431c-1.178-2.041-2.328-3.19-3.133-3.133l4.11 7.071c1.351.258 2.846.689 5.404 5.058 1.753 2.96 2.5 5.806 1.523 6.783zm-7.789-12.071-3.794-6.553c-.46.689.086 2.299.949 3.793 1.121 1.955 1.983 2.53 2.845 2.76zm5.662 5.805c-1.437-2.471-2.443-3.046-3.391-3.247l4.253 7.329c.518-.662.23-2.185-.862-4.082z" fill="#01090f"/><path d="m342.65 185.689c-1.006-3.621-2.846-7.903-5.346-12.243-2.529-4.34-5.317-8.048-7.99-10.721l-4.081-7.041-4.8 2.787c-3.363 1.955-1.293 11.842 4.656 22.074 5.949 10.231 13.508 16.928 16.871 14.974l4.8-2.788z" fill="#f78400" stroke="#01090f" stroke-miterlimit="10" stroke-width="1.25"/><path d="m346.757 192.732c3.377-1.961 1.3-11.841-4.638-22.068-5.939-10.227-13.491-16.928-16.868-14.967s-1.3 11.841 4.639 22.068 13.491 16.928 16.867 14.967z" fill="#f8bc20" stroke="#01090f" stroke-miterlimit="10" stroke-width="1.25"/><path d="m342.852 184.711 1.236 2.127-.575.345-1.264-2.156c-1.294.202-3.564-1.839-5.576-5.317l.69-.402c1.207 2.069 2.615 3.506 3.564 3.506l-4.513-7.76c-1.236-.23-2.615-.718-4.943-4.742-1.552-2.673-2.299-5.375-1.495-6.352l-.919-1.609.574-.345.92 1.609c1.035-.172 2.903 1.093 5.116 4.886l-.718.431c-1.179-2.04-2.328-3.19-3.133-3.132l4.11 7.07c1.351.259 2.845.69 5.403 5.058 1.725 2.932 2.472 5.777 1.523 6.783zm-7.788-12.071-3.794-6.553c-.46.69.086 2.299.948 3.794 1.121 1.954 1.983 2.5 2.846 2.759zm5.633 5.806c-1.437-2.472-2.443-3.047-3.392-3.248l4.254 7.329c.517-.661.259-2.184-.862-4.081z" fill="#01090f"/><path d="m282.818 239.857c11.313-11.314 11.313-29.658 0-40.971-11.314-11.314-29.657-11.314-40.971 0-11.314 11.313-11.314 29.657 0 40.971 11.314 11.313 29.657 11.313 40.971 0z" fill="#2c71f0" stroke="#01090f" stroke-miterlimit="10" stroke-width="1.25"/><path d="m270.883 231.271c-1.437 1.437-3.075 2.357-4.886 2.788-1.839.431-3.679.373-5.547-.173s-3.564-1.609-5.116-3.133c-1.552-1.552-2.586-3.219-3.104-5.087-.546-1.868-.603-3.707-.144-5.518.432-1.84 1.351-3.449 2.788-4.886 1.15-1.15 2.357-1.926 3.651-2.357 1.293-.431 2.586-.517 3.908-.287l-7.817-7.818 3.247-4.627 21.671 21.671-3.477 3.506-2.616-1.753c.173 1.178.115 2.414-.172 3.765-.316 1.322-1.092 2.615-2.386 3.909zm-2.615-4.283c1.264-1.264 1.897-2.73 1.839-4.368-.029-1.696-.718-3.191-2.069-4.513-1.322-1.322-2.817-2.012-4.484-2.04-1.667-.058-3.133.546-4.397 1.81-1.265 1.265-1.868 2.702-1.84 4.369.029 1.667.69 3.162 2.041 4.484 1.322 1.322 2.845 2.012 4.512 2.069s3.133-.546 4.398-1.811z" fill="#fff" stroke="#01090f" stroke-miterlimit="10" stroke-width="1.25"/><path d="m282.407 199.398c-6.15-6.151-14.428-8.881-22.475-8.22 6.466.546 12.761 3.276 17.704 8.22 11.094 11.094 11.094 29.086 0 40.18-4.943 4.943-11.266 7.674-17.704 8.22 8.047.661 16.325-2.07 22.475-8.22 11.123-11.094 11.123-29.086 0-40.18z" fill="#2155b4"/><path d="m251.168 361.066c-13.537.776-23.884 12.359-23.108 25.896 1.064 18.912 21.269 36.817 25.982 40.726.547.46 1.351.403 1.869-.115 4.225-4.426 22.274-24.401 21.182-43.428-.805-13.508-12.388-23.855-25.925-23.079zm2.07 36.76c-6.927.403-12.876-4.915-13.279-11.841-.402-6.927 4.915-12.876 11.842-13.279 6.926-.402 12.876 4.915 13.278 11.842.402 6.926-4.886 12.905-11.841 13.278z" fill="#01090f"/><path d="m246.856 360.578c-13.537.776-23.884 12.359-23.108 25.896 1.063 18.911 21.268 36.817 25.982 40.726.546.46 1.351.402 1.868-.115 4.225-4.426 22.274-24.401 21.182-43.428-.776-13.508-12.387-23.855-25.924-23.079zm2.098 36.76c-6.927.402-12.876-4.915-13.278-11.841-.403-6.927 4.914-12.876 11.841-13.279 6.926-.402 12.876 4.915 13.278 11.842.403 6.955-4.914 12.904-11.841 13.278z" fill="#15357a" stroke="#01090f" stroke-miterlimit="10" stroke-width="1.25"/><path d="m241.942 360.838c-13.537.776-23.884 12.359-23.108 25.896 1.063 18.911 21.268 36.817 25.982 40.726.546.46 1.351.402 1.868-.115 4.225-4.426 22.274-24.401 21.182-43.428-.805-13.48-12.387-23.826-25.924-23.079zm2.069 36.788c-6.926.403-12.876-4.914-13.278-11.841-.403-6.926 4.914-12.876 11.841-13.278 6.927-.403 12.876 4.914 13.278 11.841.403 6.955-4.886 12.876-11.841 13.278z" fill="#2ae21d" stroke="#01090f" stroke-miterlimit="10" stroke-width="1.25"/><path d="m474.542 93.6604c-11.094-11.0941-29.086-11.0941-40.18 0-15.492 15.4916-15.405 46.7326-15.147 53.8036.029.833.69 1.494 1.524 1.523 7.07.259 38.225.402 53.803-15.175 11.094-11.066 11.094-29.058 0-40.1516zm-30.149 30.1496c-5.691-5.691-5.691-14.917 0-20.579 5.69-5.6906 14.916-5.6906 20.578 0 5.691 5.691 5.691 14.917 0 20.579-5.691 5.691-14.888 5.691-20.578 0z" fill="#01090f"/><g stroke="#01090f" stroke-miterlimit="10" stroke-width="1.25"><path d="m471.671 89.3489c-11.094-11.0941-29.086-11.0941-40.18 0-15.492 15.4911-15.405 46.7331-15.147 53.8031.029.834.69 1.495 1.524 1.523 7.07.259 38.225.403 53.803-15.175 11.094-11.065 11.094-29.057 0-40.1511zm-30.15 30.1491c-5.69-5.69-5.69-14.916 0-20.5783 5.691-5.6908 14.917-5.6908 20.579 0 5.691 5.6903 5.691 14.9163 0 20.5783-5.691 5.691-14.888 5.691-20.579 0z" fill="#15357a"/><path d="m467.616 85.3254c-11.094-11.094-29.086-11.094-40.18 0-15.491 15.4916-15.405 46.7326-15.146 53.8036.028.833.689 1.494 1.523 1.523 7.07.259 38.225.402 53.803-15.175 11.094-11.066 11.094-29.0575 0-40.1516zm-30.149 30.1496c-5.691-5.691-5.691-14.917 0-20.5788 5.69-5.6907 14.916-5.6907 20.578 0 5.691 5.6908 5.691 14.9168 0 20.5788-5.662 5.662-14.888 5.662-20.578 0z" fill="#519af4"/><path d="m228.429 151.854-.575-3.305c-.488-2.845-2.73-5.059-5.547-5.547l-3.305-.575 3.305-.575c2.846-.488 5.059-2.73 5.547-5.547l.575-3.305.575 3.305c.488 2.846 2.73 5.059 5.547 5.547l3.305.575-3.305.575c-2.845.488-5.059 2.73-5.547 5.547z" fill="#7304e2"/><path d="m395.429 262.854-.575-3.305c-.488-2.845-2.73-5.058-5.547-5.547l-3.305-.575 3.305-.575c2.846-.488 5.059-2.73 5.547-5.547l.575-3.305.575 3.305c.488 2.846 2.73 5.059 5.547 5.547l3.305.575-3.305.575c-2.845.489-5.059 2.73-5.547 5.547z" fill="#7304e2"/><path d="m132.143 391.281-.863-4.972c-.747-4.254-4.081-7.588-8.306-8.306l-4.972-.862 4.972-.863c4.254-.747 7.588-4.081 8.306-8.306l.863-4.972.862 4.972c.747 4.254 4.081 7.588 8.306 8.306l4.972.863-4.972.862c-4.254.747-7.588 4.081-8.306 8.306z" fill="#fff"/><path d="m110.94 57.9926-.546-3.1902c-.46-2.7304-2.615-4.8573-5.317-5.3171l-3.19-.5461 3.19-.5461c2.73-.4599 4.857-2.6154 5.317-5.3171l.546-3.1903.546 3.1903c.46 2.7304 2.616 4.8572 5.317 5.3171l3.191.5461-3.191.5461c-2.73.4598-4.857 2.6154-5.317 5.3171z" fill="#2ae21d"/><path d="m81.4519 309.045-.5461-3.19c-.4599-2.73-2.6154-4.857-5.3171-5.317l-3.1903-.546 3.1903-.546c2.7304-.46 4.8572-2.616 5.3171-5.317l.5461-3.191.5461 3.191c.4598 2.73 2.6154 4.857 5.3171 5.317l3.1902.546-3.1902.546c-2.7304.46-4.8573 2.615-5.3171 5.317z" fill="#2ae21d"/><path d="m4.882 233.76c2.14289 0 3.88005-1.737 3.88005-3.88s-1.73716-3.88-3.88005-3.88-3.88005 1.737-3.88005 3.88 1.73716 3.88 3.88005 3.88z" fill="#fff"/><path d="m275.14 65.2064c2.143 0 3.88-1.7372 3.88-3.8801s-1.737-3.88-3.88-3.88-3.88 1.7371-3.88 3.88 1.737 3.8801 3.88 3.8801z" fill="#2ae21d"/><path d="m543.882 247.76c2.143 0 3.88-1.737 3.88-3.88s-1.737-3.88-3.88-3.88-3.88 1.737-3.88 3.88 1.737 3.88 3.88 3.88z" fill="#2ae21d"/><path d="m404.502 208c3.038 0 5.5-2.462 5.5-5.5s-2.462-5.5-5.5-5.5-5.5 2.462-5.5 5.5 2.462 5.5 5.5 5.5z" fill="#fff"/><path d="m443.584 27.1634c3.635 0 6.581-2.9467 6.581-6.5817s-2.946-6.5817-6.581-6.5817-6.582 2.9467-6.582 6.5817 2.947 6.5817 6.582 6.5817z" fill="#fff"/><path d="m37.5837 77.1634c3.6349 0 6.5817-2.9467 6.5817-6.5817s-2.9468-6.5817-6.5817-6.5817c-3.635 0-6.5817 2.9467-6.5817 6.5817s2.9467 6.5817 6.5817 6.5817z" fill="#519af4"/><path d="m329.584 361.163c3.635 0 6.581-2.946 6.581-6.581s-2.946-6.582-6.581-6.582-6.582 2.947-6.582 6.582 2.947 6.581 6.582 6.581z" fill="#519af4"/><path d="m284.857 266.05 1.869-1.581 7.329 3.564-6.755 5.805z" fill="#01090f" stroke-linecap="round" stroke-linejoin="round"/><path d="m285.114 264.469c.345-.317.862-.374 1.293-.173l.316.144-1.868 1.609-.115-.345c-.143-.431 0-.919.374-1.235z" fill="#01090f"/><path d="m311.872 288.697-17.704-20.578c-.575-.661-2.558.115-4.427 1.724-1.868 1.61-2.931 3.478-2.356 4.139l17.704 20.55z" fill="#01090f"/><path d="m309.507 292.812c1.877-1.616 2.936-3.462 2.367-4.123-.57-.662-2.553.111-4.429 1.727-1.877 1.616-2.936 3.462-2.367 4.124.57.661 2.553-.112 4.429-1.728z" fill="#01090f" stroke-linecap="round" stroke-linejoin="round"/><path d="m308.719 291.898c.445-.383.697-.821.562-.977-.134-.157-.604.027-1.049.41-.445.384-.697.821-.562.978.134.156.604-.028 1.049-.411z" fill="#01090f"/><path d="m285.717 263.464 1.868-1.581 7.329 3.564-6.754 5.805z" fill="#ffc664" stroke-linecap="round" stroke-linejoin="round"/><path d="m285.973 261.883c.345-.317.863-.374 1.294-.173l.316.144-1.868 1.609-.115-.345c-.144-.431 0-.919.373-1.235z" fill="#01090f"/><path d="m312.733 286.112-17.704-20.578c-.575-.661-2.558.115-4.426 1.724-1.868 1.61-2.932 3.478-2.357 4.139l17.704 20.55z" fill="#a041ff"/><path d="m310.367 290.226c1.876-1.616 2.936-3.462 2.366-4.123-.57-.662-2.553.112-4.429 1.727-1.877 1.616-2.936 3.462-2.366 4.124.569.661 2.552-.112 4.429-1.728z" fill="#ffc664" stroke-linecap="round" stroke-linejoin="round"/><path d="m309.579 289.311c.445-.383.696-.821.562-.977-.135-.157-.605.027-1.05.411-.445.383-.697.82-.562.977.135.156.605-.028 1.05-.411z" fill="#01090f"/><path d="m332.102 70.2361-3.707-4.3112 8.248-17.0147 13.537 15.6926z" fill="#01090f" stroke-linecap="round" stroke-linejoin="round"/><path d="m328.425 69.6602c-.719-.8335-.863-2.0119-.403-2.9891l.345-.7473 3.736 4.3399-.804.2587c-1.035.2874-2.156-.0287-2.874-.8622z" fill="#01090f"/><path d="m384.614 7.55078-47.739 41.09982c-1.552 1.322.258 5.9206 3.995 10.2893 3.736 4.3399 8.047 6.8116 9.571 5.4895l47.739-41.0998z" fill="#01090f"/><path d="m398.199 23.3233c1.54-1.3257-.251-5.9304-4.001-10.2848-3.749-4.35438-8.036-6.80962-9.576-5.48389-1.54 1.32574.251 5.93039 4.001 10.28479 3.749 4.3545 8.037 6.8097 9.576 5.4839z" fill="#01090f" stroke-linecap="round" stroke-linejoin="round"/><path d="m393.024 17.3122c.373-.321-.047-1.4199-.938-2.4544-.89-1.0345-1.915-1.6128-2.288-1.2917s.047 1.42.938 2.4544c.891 1.0345 1.915 1.6128 2.288 1.2917z" fill="#01090f"/><path d="m328.653 65.6374-3.708-4.3111 8.249-17.0148 13.537 15.6927z" fill="#ffc664" stroke-linecap="round" stroke-linejoin="round"/><path d="m324.975 65.0625c-.718-.8335-.862-2.0119-.402-2.9891l.345-.7472 3.736 4.3399-.805.2586c-1.034.2875-2.155-.0287-2.874-.8622z" fill="#01090f"/><path d="m381.164 2.95215-47.739 41.09975c-1.552 1.3221.259 5.9207 3.996 10.2893 3.736 4.3399 8.047 6.8117 9.57 5.4896l47.739-41.0998z" fill="#fff"/><path d="m394.75 18.7247c1.54-1.3257-.251-5.9304-4.001-10.2848-3.749-4.35441-8.037-6.80966-9.576-5.48392-1.54 1.32574.251 5.93041 4.001 10.28482 3.749 4.3544 8.037 6.8096 9.576 5.4839z" fill="#ffc664" stroke-linecap="round" stroke-linejoin="round"/><path d="m389.575 12.7136c.373-.3211-.047-1.42-.938-2.4544-.891-1.0345-1.915-1.61283-2.288-1.29175s.047 1.41995.938 2.45445c.89 1.0345 1.915 1.6128 2.288 1.2917z" fill="#01090f"/><path d="m115.942 193.076-3.678 6.323-24.1429-2.846 13.3359-23.05z" fill="#01090f" stroke-linecap="round" stroke-linejoin="round"/><path d="m116.807 197.79c-.719 1.207-2.07 1.897-3.478 1.753l-1.063-.115 3.678-6.352.633.862c.833 1.121.92 2.645.23 3.852z" fill="#01090f"/><path d="m17.6484 155.77 70.0421 40.612c2.2706 1.322 7.0991-2.817 10.8067-9.198 3.7078-6.38 4.8858-12.646 2.6158-13.939l-70.0425-40.611z" fill="#01090f"/><path d="m28.44 146.581c3.7024-6.385 4.867-12.626 2.6012-13.94s-7.1039 2.798-10.8063 9.183c-3.7023 6.385-4.8669 12.627-2.6011 13.94 2.2658 1.314 7.1039-2.797 10.8062-9.183z" fill="#01090f" stroke-linecap="round" stroke-linejoin="round"/><path d="m25.3092 144.765c.8837-1.524 1.166-3.012.6305-3.322-.5355-.311-1.6861.673-2.5699 2.197-.8838 1.525-1.1661 3.012-.6306 3.323.5356.31 1.6862-.674 2.57-2.198z" fill="#01090f"/><path d="m111.806 199.197-3.65 6.323-24.1716-2.846 13.3359-23.05z" fill="#ffc664" stroke-linecap="round" stroke-linejoin="round"/><path d="m112.664 203.912c-.718 1.207-2.069 1.897-3.478 1.753l-1.063-.115 3.679-6.352.632.862c.862 1.121.949 2.645.23 3.852z" fill="#01090f"/><path d="m13.5078 161.891 70.0421 40.612c2.2705 1.322 7.099-2.817 10.8066-9.197 3.7076-6.381 4.886-12.647 2.6155-13.94l-70.0421-40.611z" fill="#a041ff"/><path d="m24.3365 152.706c3.7024-6.385 4.8669-12.626 2.6012-13.94-2.2658-1.314-7.1039 2.798-10.8063 9.183-3.7023 6.385-4.8669 12.627-2.6011 13.94 2.2658 1.314 7.1039-2.797 10.8062-9.183z" fill="#ffc664" stroke-linecap="round" stroke-linejoin="round"/><path d="m21.2056 150.889c.8838-1.524 1.1661-3.012.6306-3.322-.5356-.311-1.6862.673-2.5699 2.198-.8838 1.524-1.1661 3.011-.6306 3.322.5355.31 1.6861-.674 2.5699-2.198z" fill="#01090f"/></g></svg>