<svg fill="none" height="398" viewBox="0 0 570 398" width="570" xmlns="http://www.w3.org/2000/svg"><ellipse cx="302.443" cy="394.107" fill="#01090f" rx="244.085" ry="3.37924"/><path d="m216.209 393.141-30.767-177.874h52.261l7.697 11.293h60.766v137.945z" fill="#7304e2" stroke="#01090f" stroke-width="1.25"/><path d="m226.422 242.236-10.156 150.905h105.429l10.157-150.905z" fill="#bd80ff" stroke="#01090f" stroke-width="1.25"/><path d="m279.843 91.332c-14.191 0-25.693 11.505-25.693 25.694v126.207h82.757v-126.207c0-14.192 11.504-25.694 25.692-25.694z" fill="#c4d0f0" stroke="#01090f" stroke-width="1.25"/><path d="m494.355 368.352v-126.065l-192.192-.001v126.064c0 13.746 11.144 24.89 24.889 24.89h192.189c-13.745 0-24.888-11.144-24.888-24.89z" fill="#01090f" stroke="#01090f" stroke-width="1.25"/><path d="m489.213 242.287v-126.065c0-13.748-11.143-24.89-24.888-24.89h-182.56c9.632 0 15.256 11.144 15.256 24.89v126.064z" fill="#01090f" stroke="#01090f" stroke-width="1.25"/><path d="m496.925 368.352v-252.13c0-13.748-11.144-24.89-24.889-24.89h-192.192c13.745 0 24.888 11.144 24.888 24.89v252.128c0 13.746 11.144 24.89 24.889 24.89h192.19c-13.746 0-24.889-11.144-24.889-24.89z" fill="#fff" stroke="#01090f" stroke-width="1.25"/><path d="m479.906 215.316h-137.667c-.612 0-1.108.496-1.108 1.108v3.674c0 .611.496 1.107 1.108 1.107h137.667c.612 0 1.108-.496 1.108-1.107v-3.674c0-.612-.496-1.108-1.108-1.108z" fill="#bd80ff"/><path d="m479.906 215.316h-137.667c-.612 0-1.108.496-1.108 1.108v3.674c0 .611.496 1.107 1.108 1.107h137.667c.612 0 1.108-.496 1.108-1.107v-3.674c0-.612-.496-1.108-1.108-1.108z" stroke="#01090f" stroke-width="1.25"/><path d="m327.529 258.126c3.278-1.358 4.835-5.116 3.477-8.395-1.358-3.278-5.116-4.835-8.394-3.477s-4.835 5.116-3.477 8.395c1.358 3.278 5.116 4.835 8.394 3.477z" fill="#ff8793" stroke="#01090f" stroke-width="1.25"/><path d="m437.174 249.514h-94.935c-.612 0-1.108.496-1.108 1.107v3.674c0 .612.496 1.108 1.108 1.108h94.935c.612 0 1.108-.496 1.108-1.108v-3.674c0-.611-.496-1.107-1.108-1.107z" fill="#bd80ff"/><path d="m437.174 249.514h-94.935c-.612 0-1.108.496-1.108 1.107v3.674c0 .612.496 1.108 1.108 1.108h94.935c.612 0 1.108-.496 1.108-1.108v-3.674c0-.611-.496-1.107-1.108-1.107z" stroke="#01090f" stroke-width="1.25"/><path d="m479.906 270.718h-137.667c-.612 0-1.108.496-1.108 1.108v3.673c0 .612.496 1.108 1.108 1.108h137.667c.612 0 1.108-.496 1.108-1.108v-3.673c0-.612-.496-1.108-1.108-1.108z" fill="#bd80ff"/><path d="m479.906 270.718h-137.667c-.612 0-1.108.496-1.108 1.108v3.673c0 .612.496 1.108 1.108 1.108h137.667c.612 0 1.108-.496 1.108-1.108v-3.673c0-.612-.496-1.108-1.108-1.108z" stroke="#01090f" stroke-width="1.25"/><path d="m325.072 314.02c3.548 0 6.424-2.877 6.424-6.425 0-3.549-2.876-6.425-6.424-6.425s-6.425 2.876-6.425 6.425c0 3.548 2.877 6.425 6.425 6.425z" fill="#ff8793" stroke="#01090f" stroke-width="1.25"/><path d="m437.174 304.918h-94.935c-.612 0-1.108.496-1.108 1.108v3.673c0 .612.496 1.108 1.108 1.108h94.935c.612 0 1.108-.496 1.108-1.108v-3.673c0-.612-.496-1.108-1.108-1.108z" fill="#bd80ff"/><path d="m437.174 304.918h-94.935c-.612 0-1.108.496-1.108 1.108v3.673c0 .612.496 1.108 1.108 1.108h94.935c.612 0 1.108-.496 1.108-1.108v-3.673c0-.612-.496-1.108-1.108-1.108z" stroke="#01090f" stroke-width="1.25"/><path d="m479.906 326.122h-137.667c-.612 0-1.108.496-1.108 1.108v3.673c0 .612.496 1.108 1.108 1.108h137.667c.612 0 1.108-.496 1.108-1.108v-3.673c0-.612-.496-1.108-1.108-1.108z" fill="#bd80ff"/><path d="m479.906 326.122h-137.667c-.612 0-1.108.496-1.108 1.108v3.673c0 .612.496 1.108 1.108 1.108h137.667c.612 0 1.108-.496 1.108-1.108v-3.673c0-.612-.496-1.108-1.108-1.108z" stroke="#01090f" stroke-width="1.25"/><path d="m358.046 339.441v33.724c0 6.943-2.149 13.383-5.817 18.692h171.303c11.559 0 26.703-11.75 26.703-18.692v-33.724z" fill="#01090f" stroke="#01090f" stroke-width="1.25"/><path d="m362.539 326.598v33.724c0 18.182-14.74 32.92-32.918 32.92h192.19c18.181 0 32.917-14.741 32.917-32.92v-33.724z" fill="#fff" stroke="#01090f" stroke-width="1.25"/><path d="m211.449 257.648 5.137 127.788 9.633-127.788z" fill="#01090f"/><g stroke-width="1.25"><path d="m450.473 152.398 39.318 240.928" stroke="#01090f" stroke-linecap="round"/><path d="m494.482 152.551 41.142 240.623" stroke="#01090f" stroke-linecap="round"/><path d="m473.133 289.541h44.7" stroke="#01090f"/><path d="m477.137 310.891h44.7" stroke="#01090f"/><path d="m479.805 332.239h44.7" stroke="#01090f"/><path d="m483.362 353.144h44.7" stroke="#01090f"/><path d="m458.456 204.145h44.7" stroke="#01090f"/><path d="m455.343 182.796h44.7" stroke="#01090f"/><path d="m462.459 225.494h44.7" stroke="#01090f"/><path d="m465.573 246.843h44.7" stroke="#01090f"/><path d="m469.574 268.192h44.7" stroke="#01090f"/><path d="m382.203 192.468-4.4-18.394-15.304 10.006 25.161-59.111 19.702 8.388z" fill="#f78400" stroke="#01090f" stroke-linejoin="round"/><path d="m442.952 181.582-17.428-7.348-.999 18.256-32.726-55.281 18.426-10.91z" fill="#f78400" stroke="#01090f" stroke-linejoin="round"/><path d="m401.348 73.29c-1.298 0-2.419.9046-2.695 2.1719l-3.327 15.2287h12.044l-3.326-15.2287c-.276-1.2673-1.4-2.1719-2.696-2.1719z" fill="#ffc842" stroke="#01090f"/><path d="m411.669 74.4447c-1.264-.2888-2.56.3398-3.112 1.5152l-6.64 14.1019 11.74 2.688.156-15.5864c.013-1.2981-.879-2.43-2.144-2.7187z" fill="#ffc842" stroke="#01090f"/><path d="m422.931 78.6101c-1.148-.6056-2.563-.3296-3.399.6618l-10.046 11.9172 10.655 5.6188 4.162-15.0217c.347-1.2495-.225-2.5731-1.372-3.1787z" fill="#ffc842" stroke="#01090f"/><path d="m431.894 84.952c-.971-.8611-2.41-.9275-3.457-.1635l-12.588 9.1909 9.016 7.9876 7.609-13.6038c.633-1.132.393-2.5526-.578-3.4137z" fill="#ffc842" stroke="#01090f"/><path d="m438.854 92.663c-.754-1.0553-2.141-1.4437-3.334-.9301l-14.321 6.1503 7.006 9.7988 10.452-11.5619c.872-.9633.953-2.4018.197-3.4571z" fill="#ffc842" stroke="#01090f"/><path d="m444.521 103.246c-.458-1.214-1.699-1.945-2.982-1.758l-15.422 2.256 4.247 11.271 13.076-8.483c1.088-.705 1.538-2.075 1.081-3.289z" fill="#ffc842" stroke="#01090f"/><path d="m447.117 114.827c-.13-1.29-1.144-2.315-2.432-2.463l-15.486-1.768 1.219 11.983 14.811-4.849c1.234-.404 2.018-1.613 1.888-2.903z" fill="#ffc842" stroke="#01090f"/><path d="m447.013 125.213c.161-1.288-.598-2.512-1.822-2.944l-14.701-5.179-1.487 11.953 15.521-1.421c1.293-.117 2.328-1.122 2.486-2.407z" fill="#ffc842" stroke="#01090f"/><path d="m444.012 136.837c.485-1.203.068-2.583-1.002-3.314l-12.872-8.79-4.512 11.169 15.363 2.622c1.28.217 2.537-.483 3.023-1.687z" fill="#ffc842" stroke="#01090f"/><path d="m438.996 145.855c.744-1.063.644-2.502-.237-3.455l-10.585-11.442-6.894 9.878 14.39 5.987c1.198.498 2.58.095 3.324-.968z" fill="#ffc842" stroke="#01090f"/><path d="m432.142 153.658c.96-.872 1.185-2.295.539-3.419l-7.765-13.514-8.922 8.092 12.693 9.048c1.058.753 2.494.669 3.457-.202z" fill="#ffc842" stroke="#01090f"/><path d="m422.285 160.51c1.153-.595 1.738-1.911 1.4-3.165l-4.024-15.058-10.705 5.522 9.936 12.009c.828.999 2.238 1.288 3.391.692z" fill="#ffc842" stroke="#01090f"/><path d="m411.525 164.333c1.265-.291 2.154-1.426 2.139-2.721l-.187-15.587-11.735 2.711 6.669 14.09c.554 1.172 1.852 1.801 3.117 1.507z" fill="#ffc842" stroke="#01090f"/><path d="m401.212 165.53c1.297 0 2.417-.91 2.692-2.177l3.296-15.234-12.044.023 3.355 15.221c.278 1.268 1.403 2.17 2.701 2.167z" fill="#ffc842" stroke="#01090f"/><path d="m389.302 164.008c1.254.332 2.57-.256 3.16-1.411l7.106-13.872-11.646-3.079-.674 15.574c-.056 1.296.797 2.456 2.051 2.788z" fill="#ffc842" stroke="#01090f"/><path d="m378.145 159.284c1.124.649 2.548.424 3.421-.534l10.486-11.534-10.435-6.015-4.721 14.856c-.394 1.237.128 2.581 1.252 3.227z" fill="#ffc842" stroke="#01090f"/><path d="m369.781 153.129c.95.881 2.389.983 3.454.242l12.796-8.902-8.83-8.192-7.918 13.428c-.659 1.116-.45 2.542.501 3.426z" fill="#ffc842" stroke="#01090f"/><path d="m362.104 143.9c.692 1.098 2.054 1.563 3.275 1.124l14.655-5.31-6.423-10.19-11.106 10.936c-.925.91-1.091 2.341-.399 3.44z" fill="#ffc842" stroke="#01090f"/><path d="m357.621 134.02c.414 1.23 1.628 2.006 2.918 1.866l15.493-1.699-3.837-11.419-13.376 8.002c-1.114.667-1.612 2.019-1.198 3.248z" fill="#ffc842" stroke="#01090f"/><path d="m355.426 123.87c.128 1.29 1.14 2.317 2.427 2.468l15.481 1.802-1.193-11.987-14.824 4.817c-1.234.401-2.021 1.607-1.893 2.897z" fill="#ffc842" stroke="#01090f"/><path d="m355.786 111.867c-.207 1.28.503 2.532 1.709 3.01l14.497 5.726 1.934-11.889-15.562.838c-1.296.069-2.369 1.032-2.576 2.312z" fill="#ffc842" stroke="#01090f"/><path d="m359.164 101.043c-.518 1.191-.135 2.581.915 3.34l12.637 9.124 4.803-11.046-15.289-3.0251c-1.272-.2529-2.55.4165-3.066 1.6071z" fill="#ffc842" stroke="#01090f"/><path d="m364.341 92.0394c-.77 1.045-.708 2.4836.148 3.4597l10.281 11.7149 7.149-9.6938-14.229-6.3598c-1.185-.5289-2.578-.1635-3.347.8815z" fill="#ffc842" stroke="#01090f"/><path d="m372.651 83.3719c-1.012.8099-1.323 2.2178-.749 3.3804l6.922 13.9667 9.402-7.5277-12.113-9.8092c-1.009-.8177-2.45-.8202-3.462-.0102z" fill="#ffc842" stroke="#01090f"/><path d="m380.587 78.4001c-1.155.5903-1.743 1.9062-1.413 3.1607l3.968 15.0729 10.726-5.4834-9.893-12.045c-.823-1.0016-2.233-1.2954-3.388-.7052z" fill="#ffc842" stroke="#01090f"/><path d="m391.893 74.3582c-1.268.2734-2.175 1.3925-2.18 2.6905l-.043 15.5865 11.776-2.5373-6.459-14.1862c-.537-1.1805-1.824-1.8269-3.094-1.5535z" fill="#ffc842" stroke="#01090f"/><path d="m425.181 143.572c13.163-13.163 13.163-34.506 0-47.6696s-34.504-13.1636-47.666 0c-13.163 13.1636-13.163 34.5066 0 47.6696 13.162 13.164 34.503 13.164 47.666 0z" fill="#fff" stroke="#01090f"/><path d="m420.298 138.688c10.465-10.466 10.465-27.435 0-37.902-10.466-10.4663-27.434-10.4663-37.9 0-10.466 10.467-10.466 27.436 0 37.902 10.466 10.467 27.434 10.467 37.9 0z" fill="#f45183" stroke="#01090f"/><path d="m169.386 19.4111h-10.916v366.6659h10.916z" fill="#bd80ff" stroke="#01090f" stroke-miterlimit="10"/><path d="m211.1 386.076h-100.577c-1.891 0-3.423 1.533-3.423 3.423 0 1.891 1.532 3.424 3.423 3.424h100.577c1.891 0 3.424-1.533 3.424-3.424 0-1.89-1.533-3.423-3.424-3.423z" fill="#fb5d96" stroke="#01090f" stroke-miterlimit="10"/><path d="m163.704 33.2935c8.245 0 14.929-6.5576 14.929-14.6468 0-8.0891-6.684-14.6467-14.929-14.6467s-14.93 6.5576-14.93 14.6467c0 8.0892 6.685 14.6468 14.93 14.6468z" fill="#7304e2" stroke="#01090f" stroke-miterlimit="10"/><path d="m280.966 162.822-37.524-96.074-37.524 96.074" stroke="#fff" stroke-linejoin="round" stroke-miterlimit="10"/><path d="m289.659 162.821c0 25.029-20.707 45.343-46.219 45.343-25.511 0-46.218-20.314-46.218-45.343z" fill="#f45183" stroke="#01090f" stroke-miterlimit="10"/></g><path d="m203.514 162.821h-6.292c0 25.029 20.707 45.343 46.218 45.343 1.087 0 2.117-.056 3.146-.112-24.081-1.571-43.072-21.212-43.072-45.231z" fill="#01090f"/><path d="m121.491 162.823-37.5236-96.074-37.524 96.074" stroke="#fff" stroke-linejoin="round" stroke-miterlimit="10" stroke-width="1.25"/><path d="m130.184 162.821c0 25.029-20.707 45.343-46.2183 45.343-25.5118 0-46.2186-20.314-46.2186-45.343z" fill="#f45183" stroke="#01090f" stroke-miterlimit="10" stroke-width="1.25"/><path d="m44.0392 162.821h-6.2921c0 25.029 20.7068 45.343 46.2186 45.343 1.0868 0 2.1164-.056 3.1461-.112-24.0246-1.571-43.0726-21.212-43.0726-45.231z" fill="#01090f"/><path d="m85.623 163.943h43.416c-.286 11.336-4.862 21.942-13.042 29.967-8.123 8.081-18.8765 12.683-30.374 13.076z" fill="#ff928e"/><path d="m245.102 163.889h43.415c-.286 11.335-4.862 21.942-13.042 29.967-8.122 8.081-18.876 12.682-30.373 13.075z" fill="#ff928e"/><path d="m270.556 64.7578h-213.6468v6.3974h213.6468z" fill="#fff" stroke="#01090f" stroke-miterlimit="10" stroke-width="1.25"/><path d="m158.214 71.7969h11.154l-11.154 11.6725z" fill="#01090f"/><path d="m163.704 29.9261c-7.665 0-13.957-5.6679-14.815-12.9632-.057.5612-.115 1.1223-.115 1.6835 0 8.081 6.693 14.6468 14.93 14.6468s14.929-6.5658 14.929-14.6468c0-.5612-.057-1.1223-.114-1.6835-.858 7.2953-7.15 12.9632-14.815 12.9632z" fill="#01090f"/><path d="m120.905 287.808-.604-3.472c-.513-2.99-2.868-5.315-5.828-5.828l-3.472-.604 3.472-.604c2.99-.513 5.315-2.868 5.828-5.828l.604-3.472.604 3.472c.513 2.99 2.869 5.315 5.828 5.828l3.472.604-3.472.604c-2.99.513-5.315 2.869-5.828 5.828z" fill="#ff8793" stroke="#01090f" stroke-miterlimit="10" stroke-width="1.25"/><path d="m342.008 45.0146-.793-4.5737c-.687-3.9128-3.754-6.9795-7.64-7.6405l-4.574-.7931 4.574-.7931c3.912-.6874 6.979-3.7542 7.64-7.6405l.793-4.5737.793 4.5737c.688 3.9128 3.755 6.9795 7.641 7.6405l4.574.7931-4.574.7931c-3.913.6874-6.98 3.7542-7.641 7.6405z" fill="#fff" stroke="#01090f" stroke-miterlimit="10" stroke-width="1.25"/><path d="m24.5125 35.0231-.5737-3.3517c-.4831-2.8686-2.7478-5.103-5.5861-5.5861l-3.3517-.5738 3.3517-.5737c2.8685-.4831 5.103-2.7478 5.5861-5.5861l.5737-3.3517.5737 3.3517c.4832 2.8685 2.7478 5.103 5.5862 5.5861l3.3517.5737-3.3517.5738c-2.8686.4831-5.103 2.7477-5.5862 5.5861z" fill="#ffc842" stroke="#01090f" stroke-miterlimit="10" stroke-width="1.25"/><path d="m556.513 226.023-.574-3.352c-.483-2.868-2.748-5.103-5.586-5.586l-3.352-.573 3.352-.574c2.868-.483 5.103-2.748 5.586-5.586l.574-3.352.573 3.352c.483 2.868 2.748 5.103 5.586 5.586l3.352.574-3.352.573c-2.868.483-5.103 2.748-5.586 5.586z" fill="#c4d0f0" stroke="#01090f" stroke-miterlimit="10" stroke-width="1.25"/><path d="m34.0774 322.153c2.2513 0 4.0763-1.825 4.0763-4.077 0-2.251-1.825-4.076-4.0763-4.076-2.2514 0-4.0764 1.825-4.0764 4.076 0 2.252 1.825 4.077 4.0764 4.077z" fill="#fff" stroke="#01090f" stroke-miterlimit="10" stroke-width="1.25"/><path d="m207.077 103.153c2.252 0 4.077-1.825 4.077-4.0766 0-2.2513-1.825-4.0764-4.077-4.0764-2.251 0-4.076 1.8251-4.076 4.0764 0 2.2516 1.825 4.0766 4.076 4.0766z" fill="#519af4" stroke="#01090f" stroke-miterlimit="10" stroke-width="1.25"/><path d="m524.916 177.829c3.819 0 6.914-3.095 6.914-6.914s-3.095-6.915-6.914-6.915-6.915 3.096-6.915 6.915 3.096 6.914 6.915 6.914z" fill="#fff" stroke="#01090f" stroke-miterlimit="10" stroke-width="1.25"/><path d="m7.91571 212.829c3.81889 0 6.91479-3.095 6.91479-6.914s-3.0959-6.915-6.91479-6.915c-3.81891 0-6.91473 3.096-6.91473 6.915s3.09582 6.914 6.91473 6.914z" fill="#ff928e" stroke="#01090f" stroke-miterlimit="10" stroke-width="1.25"/><path d="m506.059 11.1168c2.794 0 5.059-2.26471 5.059-5.05839s-2.265-5.05841-5.059-5.05841c-2.793 0-5.058 2.26473-5.058 5.05841s2.265 5.05839 5.058 5.05839z" fill="#f78400" stroke="#01090f" stroke-miterlimit="10" stroke-width="1.25"/></svg>