<svg width="546" height="347" viewBox="0 0 546 347" fill="none" xmlns="http://www.w3.org/2000/svg">
<path d="M476.985 344.72C476.985 324.997 469.15 306.081 455.204 292.135C441.258 278.189 422.342 270.354 402.619 270.354C382.896 270.354 363.98 278.189 350.034 292.135C336.087 306.081 328.252 324.997 328.252 344.72L476.985 344.72Z" fill="white"/>
<rect x="351.663" y="70.4297" width="193.271" height="274.291" stroke="black" stroke-width="1.25"/>
<path fill-rule="evenodd" clip-rule="evenodd" d="M143.861 104.992C122.208 104.992 104.655 122.545 104.655 144.198H94.4104C94.4104 116.887 116.55 94.7471 143.861 94.7471H147.372V104.992H143.861Z" fill="#FBE62E" stroke="black" stroke-width="1.25"/>
<path fill-rule="evenodd" clip-rule="evenodd" d="M143.104 95.4403C116.176 95.4403 94.3472 117.27 94.3472 144.197H84.1022C84.1022 111.611 110.518 85.1953 143.104 85.1953H153.371V95.4403H143.104Z" fill="#FBE62E" stroke="black" stroke-width="1.25"/>
<path fill-rule="evenodd" clip-rule="evenodd" d="M142.358 86.0008C110.217 86.0008 84.1615 112.056 84.1615 144.197H73.9165C73.9165 106.398 104.559 75.7559 142.358 75.7559H157.372V86.0008H142.358Z" fill="#FBE62E" stroke="black" stroke-width="1.25"/>
<path d="M147.022 106.98C147.022 48.332 194.566 0.788086 253.214 0.788086C311.863 0.788086 359.407 48.332 359.407 106.98V215.594H147.022V106.98Z" fill="#F5A6A7" stroke="black" stroke-width="1.25"/>
<path d="M45.7817 144.305H146.883V344.72H45.7817V144.305Z" fill="#FBE62E" stroke="black" stroke-width="1.25"/>
<path d="M359.367 215.81H45.8711V344.72H359.367V215.81Z" fill="#FBE62E" stroke="black" stroke-width="1.25" stroke-miterlimit="10"/>
<path d="M248.75 185.723C286.141 185.723 316.453 155.411 316.453 118.02C316.453 80.6289 286.141 50.3174 248.75 50.3174C211.359 50.3174 181.048 80.6289 181.048 118.02C181.048 155.411 211.359 185.723 248.75 185.723Z" fill="#D1D3D5" stroke="black" stroke-width="1.25" stroke-miterlimit="10"/>
<path d="M249.336 50.7045C249.298 50.7045 249.259 50.7045 249.259 50.7045C212.173 50.4736 181.897 80.3653 181.666 117.451C181.435 154.537 211.327 184.813 248.413 185.044C248.721 185.044 249.067 185.044 249.375 185.044V50.7045H249.336Z" fill="white"/>
<path d="M249.179 50.3174C275.12 91.8075 274.81 144.581 248.288 185.723" stroke="black" stroke-width="1.25" stroke-miterlimit="10" stroke-linejoin="round"/>
<path d="M249.179 50.3174L248.288 185.723" stroke="black" stroke-width="1.25" stroke-miterlimit="10" stroke-linejoin="round"/>
<path d="M249.179 50.3174C310.368 75.0176 309.825 161.837 248.288 185.723" stroke="black" stroke-width="1.25" stroke-miterlimit="10" stroke-linejoin="round"/>
<path d="M249.1 50.3174C222.616 91.4973 222.267 144.232 248.247 185.723" stroke="black" stroke-width="1.25" stroke-miterlimit="10" stroke-linejoin="round"/>
<path d="M249.102 50.3174C187.604 74.2033 187.061 161.061 248.249 185.723" stroke="black" stroke-width="1.25" stroke-miterlimit="10" stroke-linejoin="round"/>
<path d="M316.417 118.487L181.012 117.634" stroke="black" stroke-width="1.25" stroke-miterlimit="10" stroke-linejoin="round"/>
<path d="M185.159 141.87L312.886 142.684" stroke="black" stroke-width="1.25" stroke-miterlimit="10" stroke-linejoin="round"/>
<path d="M201.135 166.184L295.981 166.804" stroke="black" stroke-width="1.25" stroke-miterlimit="10" stroke-linejoin="round"/>
<path d="M185.438 93.3984L313.166 94.2127" stroke="black" stroke-width="1.25" stroke-miterlimit="10" stroke-linejoin="round"/>
<path d="M201.768 69.2793L296.575 69.8997" stroke="black" stroke-width="1.25" stroke-miterlimit="10" stroke-linejoin="round"/>
<path d="M304.706 62.3384C289.854 47.6423 270.156 39.5381 249.256 39.5381C249.217 39.5381 249.178 39.5381 249.14 39.5381C247.86 39.5381 246.813 40.585 246.813 41.8647C246.813 43.1443 247.86 44.1912 249.14 44.1912C249.178 44.1912 249.217 44.1912 249.256 44.1912C268.915 44.1912 287.45 51.8301 301.41 65.6732C315.485 79.5938 323.279 98.1676 323.357 117.982C323.435 137.758 315.834 156.409 301.914 170.485L301.565 170.834C287.605 184.716 269.07 192.394 249.372 192.432C249.333 192.432 249.295 192.432 249.256 192.432C249.217 192.432 249.178 192.432 249.14 192.432C249.101 192.432 249.062 192.432 249.023 192.432C248.984 192.432 248.946 192.432 248.907 192.432C248.868 192.432 248.829 192.432 248.791 192.471C248.752 192.471 248.713 192.471 248.674 192.51C248.635 192.51 248.597 192.549 248.558 192.549C248.519 192.549 248.48 192.587 248.442 192.587C248.403 192.587 248.364 192.626 248.325 192.626C248.286 192.626 248.248 192.665 248.248 192.665C248.209 192.704 248.17 192.704 248.131 192.743C248.093 192.743 248.093 192.781 248.054 192.781C248.015 192.82 247.976 192.82 247.976 192.859C247.937 192.898 247.938 192.898 247.899 192.936C247.86 192.975 247.86 192.975 247.821 193.014C247.782 193.053 247.782 193.053 247.744 193.092C247.705 193.13 247.705 193.13 247.666 193.169C247.627 193.208 247.627 193.208 247.589 193.247C247.55 193.285 247.55 193.324 247.511 193.324C247.472 193.363 247.472 193.363 247.433 193.402C247.395 193.441 247.395 193.479 247.356 193.518C247.356 193.557 247.317 193.596 247.317 193.596C247.317 193.634 247.278 193.673 247.278 193.712C247.278 193.751 247.24 193.79 247.24 193.828C247.24 193.867 247.201 193.906 247.201 193.945C247.201 193.983 247.162 194.022 247.162 194.061C247.162 194.1 247.123 194.139 247.123 194.177C247.123 194.216 247.084 194.255 247.084 194.294C247.084 194.332 247.084 194.371 247.084 194.41C247.084 194.449 247.084 194.487 247.084 194.526C247.084 194.565 247.084 194.604 247.084 194.643C247.084 194.681 247.084 194.72 247.084 194.759V209.222C247.084 210.502 248.131 211.549 249.411 211.549C250.691 211.549 251.738 210.502 251.738 209.222V197.047C271.785 196.426 290.591 188.361 304.861 174.13L305.21 173.781C320.022 158.852 328.127 139.038 328.01 117.982C327.933 96.888 319.635 77.1509 304.706 62.3384Z" fill="#F5A6A7" stroke="black" stroke-width="1.25" stroke-miterlimit="10"/>
<path d="M310.251 214.888H188.495C186.518 214.888 184.889 213.259 184.889 211.282C184.889 209.304 186.518 207.676 188.495 207.676H310.213C312.19 207.676 313.819 209.304 313.819 211.282C313.858 213.298 312.229 214.888 310.251 214.888Z" fill="#607D8B" stroke="black" stroke-width="1.25" stroke-miterlimit="10"/>
<path d="M32.8337 219.99C18.3256 219.99 6.53778 231.778 6.53778 246.286C6.53778 266.537 22.3053 287.342 27.0909 291.826H33.4886C38.2743 287.342 59.1297 266.688 59.1297 246.286C59.1297 231.778 47.3419 219.99 32.8337 219.99ZM32.8337 259.434C25.3782 259.434 19.3835 253.389 19.3835 245.984C19.3835 238.528 25.4286 232.534 32.8337 232.534C40.2893 232.534 46.284 238.579 46.284 245.984C46.284 253.389 40.2893 259.434 32.8337 259.434Z" fill="#F5A6A7" stroke="black" stroke-width="1.25" stroke-miterlimit="10"/>
<path d="M27.5445 219.99C13.0364 219.99 1.24854 231.778 1.24854 246.286C1.24854 266.537 21.7513 286.939 26.537 291.423C27.0911 291.926 27.9475 291.926 28.552 291.423C33.3377 286.939 53.8405 266.688 53.8405 246.286C53.8405 231.778 42.0526 219.99 27.5445 219.99ZM27.5445 259.434C20.0889 259.434 14.0439 253.389 14.0439 245.984C14.0439 238.528 20.0889 232.534 27.4941 232.534C34.9497 232.534 40.9443 238.579 40.9443 245.984C40.9947 253.389 35 259.434 27.5445 259.434Z" fill="#607D8B" stroke="black" stroke-width="1.25" stroke-miterlimit="10"/>
<path d="M100.589 178.733C86.0813 178.733 74.2934 190.521 74.2934 205.029C74.2934 225.28 90.0609 246.085 94.8466 250.569H101.194C105.98 246.085 126.835 225.431 126.835 205.029C126.835 190.521 115.097 178.733 100.589 178.733ZM100.589 218.177C93.1338 218.177 87.1392 212.132 87.1392 204.727C87.1392 197.272 93.1842 191.277 100.589 191.277C108.045 191.277 114.04 197.322 114.04 204.727C114.04 212.183 107.995 218.177 100.589 218.177Z" fill="#F5A6A7" stroke="black" stroke-width="1.25" stroke-miterlimit="10"/>
<path d="M95.2496 178.733C80.7415 178.733 68.9536 190.521 68.9536 205.029C68.9536 225.28 89.4564 245.682 94.2421 250.166C94.7962 250.669 95.6526 250.669 96.2571 250.166C101.043 245.682 121.546 225.431 121.546 205.029C121.546 190.521 109.808 178.733 95.2496 178.733ZM95.2496 218.177C87.794 218.177 81.7993 212.132 81.7993 204.727C81.7993 197.272 87.8444 191.277 95.2496 191.277C102.705 191.277 108.7 197.322 108.7 204.727C108.75 212.183 102.705 218.177 95.2496 218.177Z" fill="white" stroke="black" stroke-width="1.25" stroke-miterlimit="10"/>
<path d="M233.872 216.795L301.333 316.889V215.592L233.872 216.795Z" fill="black" stroke="black" stroke-width="1.25" stroke-miterlimit="10"/>
<path d="M61.2956 296.813H14.0435V344.72H61.2956V296.813Z" fill="#F5A6A7" stroke="black" stroke-width="1.25" stroke-miterlimit="10"/>
<path d="M474.035 123.271C474.286 121.457 474.438 119.593 474.438 117.729C474.438 115.865 474.286 114.002 474.035 112.188L466.428 109.468C465.723 106.949 464.715 104.531 463.456 102.314L466.932 95.01C464.715 92.0379 462.045 89.368 459.073 87.1514L451.769 90.6273C449.552 89.368 447.134 88.3604 444.615 87.6552L441.895 80.0485C440.082 79.7966 438.218 79.6455 436.354 79.6455C434.49 79.6455 432.626 79.7966 430.813 80.0485L428.092 87.6552C425.573 88.3604 423.155 89.368 420.939 90.6273L413.635 87.1514C410.662 89.368 407.992 92.0379 405.776 95.01L409.252 102.314C407.992 104.531 406.985 106.949 406.28 109.468L398.673 112.188C398.421 114.002 398.27 115.865 398.27 117.729C398.27 119.593 398.421 121.457 398.673 123.271L406.28 125.94C406.985 128.459 407.992 130.877 409.252 133.094L405.776 140.398C407.992 143.37 410.662 146.04 413.635 148.257L420.939 144.781C423.155 146.04 425.573 147.048 428.092 147.753L430.813 155.36C432.626 155.612 434.49 155.763 436.354 155.763C438.218 155.763 440.082 155.612 441.895 155.36L444.615 147.753C447.134 147.048 449.552 146.04 451.769 144.781L459.073 148.257C462.045 146.04 464.715 143.37 466.932 140.398L463.456 133.094C464.715 130.877 465.723 128.459 466.428 125.94L474.035 123.271ZM436.354 137.577C425.372 137.577 416.456 128.661 416.456 117.679C416.456 106.697 425.372 97.7807 436.354 97.7807C447.336 97.7807 456.252 106.697 456.252 117.679C456.252 128.661 447.336 137.577 436.354 137.577Z" fill="#607D8B" stroke="black" stroke-width="1.25" stroke-miterlimit="10"/>
<path d="M53.7897 296.813H6.5376V344.72H53.7897V296.813Z" fill="white" stroke="black" stroke-width="1.25" stroke-miterlimit="10"/>
<path d="M447.466 258.131H471.503C496.489 258.131 516.79 237.881 516.79 212.844C516.79 187.858 498.051 167.557 473.014 167.557H429.743C402.943 167.557 382.743 145.845 382.743 119.045C382.743 92.2453 404.454 70.5335 431.254 70.5335L544.8 70.5332V344.721H359.312" stroke="black" stroke-width="1.25" stroke-miterlimit="10"/>
<path d="M28.6021 296.946L53.3867 333.72V296.946H28.6021Z" fill="black" stroke="black" stroke-width="1.25" stroke-miterlimit="10"/>
<path d="M397.702 317.568H301.989V187.801H359.266L397.702 232.534V317.568Z" fill="white" stroke="black" stroke-width="1.25" stroke-miterlimit="10"/>
<path d="M408.937 305.982H313.224V176.215H370.148L408.937 215.911V305.982Z" fill="white" stroke="black" stroke-width="1.25" stroke-miterlimit="10"/>
<path d="M408.937 215.911L375.337 220.847V212.082L408.937 215.911Z" fill="black"/>
<path d="M409.138 215.91H370.147V176.869L409.138 215.91Z" fill="#607D8B" stroke="black" stroke-width="1.25" stroke-miterlimit="10"/>
<path d="M389.289 235.909H369.039V256.16H389.289V235.909Z" fill="#F5A6A7" stroke="black" stroke-width="1.25" stroke-miterlimit="10"/>
<path d="M389.289 266.991H369.039V287.242H389.289V266.991Z" fill="#F5A6A7" stroke="black" stroke-width="1.25" stroke-miterlimit="10"/>
<path d="M322.088 241.099H361.331" stroke="black" stroke-width="1.25" stroke-miterlimit="10"/>
<path d="M322.088 248.403H361.331" stroke="black" stroke-width="1.25" stroke-miterlimit="10"/>
<path d="M322.793 273.439H362.035" stroke="black" stroke-width="1.25" stroke-miterlimit="10"/>
<path d="M322.793 280.744H362.035" stroke="black" stroke-width="1.25" stroke-miterlimit="10"/>
<path d="M371.208 288.899V346.034" stroke="black" stroke-width="1.25" stroke-miterlimit="10" stroke-linecap="round"/>
<path d="M387.25 288.899V346.034" stroke="black" stroke-width="1.25" stroke-miterlimit="10" stroke-linecap="round"/>
<path d="M371.208 341.54H387.25" stroke="black" stroke-width="1.25" stroke-miterlimit="10" stroke-linecap="round"/>
<path d="M371.208 335.563H387.25" stroke="black" stroke-width="1.25" stroke-miterlimit="10" stroke-linecap="round"/>
<path d="M371.208 329.635H387.25" stroke="black" stroke-width="1.25" stroke-miterlimit="10" stroke-linecap="round"/>
<path d="M371.208 323.706H387.25" stroke="black" stroke-width="1.25" stroke-miterlimit="10" stroke-linecap="round"/>
<path d="M371.208 311.85H387.25" stroke="black" stroke-width="1.25" stroke-miterlimit="10" stroke-linecap="round"/>
<path d="M371.208 299.992H387.25" stroke="black" stroke-width="1.25" stroke-miterlimit="10" stroke-linecap="round"/>
<path d="M371.208 294.063H387.25" stroke="black" stroke-width="1.25" stroke-miterlimit="10" stroke-linecap="round"/>
<path d="M163.911 215.205L300.781 216.464" stroke="black" stroke-width="1.25" stroke-miterlimit="10"/>
<path d="M340.678 217.472C348.997 217.472 355.74 210.729 355.74 202.41C355.74 194.091 348.997 187.348 340.678 187.348C332.359 187.348 325.616 194.091 325.616 202.41C325.616 210.729 332.359 217.472 340.678 217.472Z" fill="white" stroke="black" stroke-width="1.25" stroke-miterlimit="10"/>
<path d="M340.78 187.348L340.628 217.472" stroke="black" stroke-width="1.25" stroke-miterlimit="10" stroke-linejoin="round"/>
<path d="M340.779 187.348C354.38 192.839 354.28 212.132 340.577 217.472" stroke="black" stroke-width="1.25" stroke-miterlimit="10" stroke-linejoin="round"/>
<path d="M340.779 187.348C327.077 192.687 326.976 211.981 340.578 217.472" stroke="black" stroke-width="1.25" stroke-miterlimit="10" stroke-linejoin="round"/>
<path d="M355.743 202.51L325.618 202.309" stroke="black" stroke-width="1.25" stroke-miterlimit="10" stroke-linejoin="round"/>
<path d="M326.575 207.749L354.987 207.9" stroke="black" stroke-width="1.25" stroke-miterlimit="10" stroke-linejoin="round"/>
<path d="M330.1 213.14L351.208 213.291" stroke="black" stroke-width="1.25" stroke-miterlimit="10" stroke-linejoin="round"/>
<path d="M326.624 196.97L355.036 197.121" stroke="black" stroke-width="1.25" stroke-miterlimit="10" stroke-linejoin="round"/>
<path d="M330.251 191.579L351.358 191.73" stroke="black" stroke-width="1.25" stroke-miterlimit="10" stroke-linejoin="round"/>
<path d="M374.983 245.179L380.877 251.023L393.571 238.328" stroke="black" stroke-width="1.25" stroke-miterlimit="10"/>
<path d="M374.983 275.757L380.877 281.601L393.571 268.906" stroke="black" stroke-width="1.25" stroke-miterlimit="10"/>
<path fill-rule="evenodd" clip-rule="evenodd" d="M475.091 338.79C475.091 302.219 445.444 272.573 408.874 272.573L408.874 255.27C455.001 255.27 492.394 292.663 492.394 338.79L492.394 344.719L475.091 344.719L475.091 338.79Z" fill="#FBE62E" stroke="black" stroke-width="1.25"/>
<path fill-rule="evenodd" clip-rule="evenodd" d="M491.223 337.512C491.223 292.032 454.354 255.163 408.874 255.163L408.874 237.859C463.91 237.859 508.526 282.475 508.526 337.512L508.526 344.718L491.223 344.718L491.223 337.512Z" fill="#607D8B" stroke="black" stroke-width="1.25"/>
<path fill-rule="evenodd" clip-rule="evenodd" d="M507.166 336.251C507.166 281.966 463.159 237.96 408.874 237.96L408.874 220.656C472.716 220.656 524.469 272.41 524.469 336.251L524.469 344.72L507.166 344.72L507.166 336.251Z" fill="#F5A6A7" stroke="black" stroke-width="1.25"/>
<path d="M503.119 217.321C503.37 215.508 503.522 213.644 503.522 211.78C503.522 209.916 503.37 208.052 503.119 206.239L495.512 203.519C494.807 201 493.799 198.582 492.54 196.365L496.016 189.061C493.799 186.089 491.129 183.419 488.157 181.202L480.853 184.678C478.636 183.419 476.218 182.411 473.699 181.706L470.979 174.099C469.166 173.847 467.302 173.696 465.438 173.696C463.574 173.696 461.71 173.847 459.896 174.099L457.176 181.706C454.657 182.411 452.239 183.419 450.023 184.678L442.718 181.202C439.746 183.419 437.076 186.089 434.86 189.061L438.336 196.365C437.076 198.582 436.069 201 435.364 203.519L427.757 206.239C427.505 208.052 427.354 209.916 427.354 211.78C427.354 213.644 427.505 215.508 427.757 217.321L435.364 220.042C436.069 222.56 437.076 224.978 438.336 227.195L434.86 234.499C437.076 237.472 439.746 240.141 442.718 242.358L450.023 238.882C452.239 240.141 454.657 241.149 457.176 241.854L459.896 249.461C461.71 249.713 463.574 249.864 465.438 249.864C467.302 249.864 469.166 249.713 470.979 249.461L473.699 241.854C476.218 241.149 478.636 240.141 480.853 238.882L488.157 242.358C491.129 240.141 493.799 237.472 496.016 234.499L492.54 227.195C493.799 224.978 494.807 222.56 495.512 220.042L503.119 217.321ZM465.438 231.678C454.456 231.678 445.54 222.762 445.54 211.78C445.54 200.798 454.456 191.882 465.438 191.882C476.42 191.882 485.336 200.798 485.336 211.78C485.336 222.762 476.42 231.678 465.438 231.678Z" fill="white" stroke="black" stroke-width="1.25" stroke-miterlimit="10"/>
<path d="M72.8159 257.951H127.664V274.674H92.3772V292.636H122.463V309.359H92.3772V327.819H129.023V344.664H72.8159V257.951Z" fill="#F5A6A7" stroke="black" stroke-width="1.25" stroke-miterlimit="10" stroke-linejoin="round"/>
<path d="M215.02 299.755C215.02 285.012 204.374 273.62 189.389 273.62C174.404 273.62 163.637 285.018 163.637 299.755C163.637 314.493 174.282 325.89 189.389 325.89C204.496 325.89 215.02 314.742 215.02 299.755ZM143.329 299.755C143.329 274.24 162.89 254.79 189.389 254.79C215.888 254.79 235.449 274.489 235.449 299.755C235.449 325.022 215.76 344.721 189.389 344.721C163.018 344.721 143.329 325.399 143.329 299.755Z" fill="#F5A6A7" stroke="black" stroke-width="1.25" stroke-miterlimit="10"/>
<path d="M254.917 258.008H288.845C306.549 258.008 319.549 269.655 319.549 286.62C319.549 298.267 312.988 307.43 304.194 311.893L322.645 344.72H300.856L286.12 315.731H274.479V344.72H254.917V258.008ZM287.109 299.008C294.167 299.008 299.49 294.672 299.49 286.62C299.49 279.437 294.538 274.731 286.86 274.731H274.479V299.008H287.109Z" fill="#F5A6A7" stroke="black" stroke-width="1.25" stroke-miterlimit="10"/>
<path d="M85.5541 257.951H140.402V274.674H105.115V292.636H135.201V309.359H105.115V327.819H141.762V344.664H85.5541V257.951Z" fill="white" stroke="black" stroke-width="1.25" stroke-miterlimit="10" stroke-linejoin="round"/>
<path d="M227.759 299.755C227.759 285.012 217.114 273.62 202.128 273.62C187.143 273.62 176.376 285.018 176.376 299.755C176.376 314.493 187.022 325.89 202.128 325.89C217.235 325.89 227.759 314.742 227.759 299.755ZM156.068 299.755C156.068 274.24 175.63 254.79 202.128 254.79C228.627 254.79 248.188 274.489 248.188 299.755C248.188 325.022 228.499 344.721 202.128 344.721C175.757 344.721 156.068 325.399 156.068 299.755Z" fill="white" stroke="black" stroke-width="1.25" stroke-miterlimit="10"/>
<path d="M267.657 258.008H301.584C319.288 258.008 332.288 269.655 332.288 286.62C332.288 298.267 325.728 307.43 316.933 311.893L335.384 344.72H313.595L298.859 315.731H287.218V344.72H267.657V258.008ZM299.848 299.008C306.907 299.008 312.229 294.672 312.229 286.62C312.229 279.437 307.277 274.731 299.599 274.731H287.218V299.008H299.848Z" fill="white" stroke="black" stroke-width="1.25" stroke-miterlimit="10"/>
<path d="M72.676 257.878L85.5017 276.908V257.878H72.676Z" fill="black" stroke="black" stroke-width="1.25" stroke-miterlimit="10"/>
</svg>
