<svg width="288" height="160" viewBox="0 0 288 160" fill="none" xmlns="http://www.w3.org/2000/svg">
<g clip-path="url(#clip0_1102_30489)">
<g clip-path="url(#clip1_1102_30489)">
<rect x="56.8125" y="22.3632" width="177.113" height="122.453" rx="16" stroke="black" stroke-width="0.8"/>
<path d="M56.8965 36.5117H233.859" stroke="black" stroke-width="0.8"/>
<ellipse cx="200.268" cy="29.9182" rx="3.26777" ry="3.14789" fill="#F78400" stroke="black" stroke-width="0.8"/>
<ellipse cx="219.873" cy="29.9182" rx="3.26777" ry="3.14789" fill="#FCEB64" stroke="black" stroke-width="0.8"/>
<ellipse cx="210.07" cy="29.9182" rx="3.26777" ry="3.14789" fill="white" stroke="black" stroke-width="0.8"/>
<rect x="146.871" y="123.933" width="29.0145" height="27.9501" rx="6.89689" fill="#001749" stroke="#001749" stroke-width="0.8"/>
<rect x="145.816" y="123.933" width="29.0145" height="27.9501" rx="6.89689" fill="#1C4396" stroke="#001749" stroke-width="0.8"/>
<path d="M166.311 134.648H160.416L160.069 132.952C159.987 132.548 159.618 132.252 159.188 132.252H154.389C153.898 132.252 153.488 132.637 153.488 133.12V135.308V141.194V143.579H167.007V135.298C167.007 134.943 166.7 134.648 166.311 134.648Z" fill="white" stroke="#001749" stroke-width="0.8" stroke-miterlimit="10" stroke-linecap="round" stroke-linejoin="round"/>
<path d="M167.058 143.589H153.498L156.517 136.964C156.63 136.718 156.885 136.55 157.172 136.55H169.166C169.688 136.55 170.036 137.063 169.821 137.516L167.058 143.589Z" fill="white" stroke="#001749" stroke-width="0.8" stroke-miterlimit="10" stroke-linecap="round" stroke-linejoin="round"/>
<rect x="178.875" y="123.933" width="29.0145" height="27.9501" rx="6.89689" fill="#001749" stroke="#001749" stroke-width="0.8"/>
<rect x="177.82" y="123.933" width="29.0145" height="27.9501" rx="6.89689" fill="white" stroke="#001749" stroke-width="0.8"/>
<ellipse cx="192.516" cy="142.022" rx="8.50779" ry="1.9164" fill="#1C4396" stroke="#001749" stroke-width="0.8"/>
<ellipse cx="192.516" cy="138.189" rx="8.50779" ry="1.9164" fill="#1C4396" stroke="#001749" stroke-width="0.8"/>
<ellipse cx="192.516" cy="134.356" rx="8.50779" ry="1.9164" fill="#1C4396" stroke="#001749" stroke-width="0.8"/>
<path d="M81.1582 130.962C81.1582 127.151 84.2474 124.062 88.0582 124.062H136.274C140.083 124.062 143.171 127.15 143.171 130.959V145.212C143.171 149.021 140.083 152.109 136.274 152.109H88.0582C84.2474 152.109 81.1582 149.02 81.1582 145.209V130.962Z" fill="#001749" stroke="#001749" stroke-width="0.8"/>
<path d="M81.1582 130.962C81.1582 127.151 84.2474 124.062 88.0582 124.062H135.139C138.948 124.062 142.036 127.15 142.036 130.959V145.212C142.036 149.021 138.948 152.109 135.139 152.109H88.0582C84.2474 152.109 81.1582 149.02 81.1582 145.209V130.962Z" fill="#F78400" stroke="#001749" stroke-width="0.8"/>
<path d="M116.181 144.894C116.094 144.894 116.023 144.824 116.023 144.737V133.322C116.023 133.247 116.076 133.182 116.15 133.167L118.081 132.775C118.178 132.756 118.27 132.83 118.27 132.93V144.737C118.27 144.824 118.199 144.894 118.112 144.894H116.181Z" fill="white"/>
<path d="M90.356 145.138C89.5371 145.138 88.8059 144.943 88.1625 144.552C87.519 144.162 87.0101 143.628 86.6358 142.951C86.2614 142.273 86.0742 141.504 86.0742 140.642C86.0742 139.781 86.2614 139.018 86.6358 138.352C87.0101 137.674 87.519 137.146 88.1625 136.767C88.8059 136.377 89.5371 136.181 90.356 136.181C91.0112 136.181 91.5844 136.302 92.0758 136.543C92.4108 136.707 92.7023 136.917 92.9504 137.172C93.0579 137.283 93.2691 137.212 93.2691 137.058V133.114C93.2691 133.039 93.3219 132.975 93.3954 132.96L95.3263 132.568C95.424 132.548 95.5153 132.623 95.5153 132.723V144.774C95.5153 144.861 95.4447 144.931 95.3576 144.931H93.6439C93.5688 144.931 93.5041 144.878 93.4893 144.805L93.339 144.056C93.3121 143.922 93.1354 143.881 93.043 143.982C92.7969 144.25 92.4979 144.492 92.146 144.707C91.6897 144.994 91.0931 145.138 90.356 145.138ZM90.8298 143.209C91.5552 143.209 92.146 142.973 92.6022 142.503C93.0702 142.02 93.3042 141.406 93.3042 140.66C93.3042 139.913 93.0702 139.305 92.6022 138.834C92.146 138.352 91.5552 138.11 90.8298 138.11C90.1162 138.11 89.5254 138.346 89.0575 138.817C88.5895 139.287 88.3555 139.896 88.3555 140.642C88.3555 141.389 88.5895 142.003 89.0575 142.485C89.5254 142.968 90.1162 143.209 90.8298 143.209Z" fill="white"/>
<path d="M100.992 145.139C100.115 145.139 99.337 144.956 98.6584 144.588C97.9799 144.221 97.4476 143.704 97.0615 143.038C96.6755 142.372 96.4824 141.603 96.4824 140.73C96.4824 139.846 96.6696 139.059 97.044 138.37C97.43 137.681 97.9565 137.147 98.6233 136.768C99.3019 136.378 100.097 136.183 101.01 136.183C101.864 136.183 102.619 136.366 103.274 136.734C103.929 137.101 104.438 137.606 104.8 138.25C105.175 138.881 105.362 139.587 105.362 140.368C105.362 140.494 105.356 140.627 105.344 140.764C105.344 140.857 105.342 140.952 105.336 141.049C105.332 141.132 105.263 141.195 105.181 141.195H98.8802C98.7888 141.195 98.7161 141.273 98.7273 141.363C98.7994 141.95 99.028 142.416 99.413 142.762C99.8459 143.141 100.366 143.331 100.975 143.331C101.431 143.331 101.811 143.233 102.115 143.038C102.402 142.851 102.621 142.616 102.772 142.335C102.801 142.281 102.856 142.246 102.917 142.246H104.886C104.992 142.246 105.068 142.348 105.032 142.447C104.864 142.909 104.611 143.335 104.274 143.727C103.9 144.163 103.432 144.508 102.87 144.76C102.32 145.013 101.694 145.139 100.992 145.139ZM101.01 137.974C100.46 137.974 99.9746 138.129 99.5534 138.439C99.1754 138.707 98.92 139.104 98.787 139.631C98.7628 139.727 98.8375 139.817 98.9363 139.817H102.913C103.004 139.817 103.076 139.74 103.065 139.65C103.001 139.165 102.796 138.773 102.449 138.473C102.063 138.14 101.583 137.974 101.01 137.974Z" fill="white"/>
<path d="M110.764 145.14C109.886 145.14 109.108 144.956 108.43 144.588C107.751 144.221 107.219 143.704 106.833 143.038C106.447 142.372 106.254 141.603 106.254 140.73C106.254 139.846 106.441 139.059 106.815 138.37C107.202 137.681 107.728 137.147 108.395 136.768C109.073 136.378 109.869 136.183 110.781 136.183C111.635 136.183 112.39 136.367 113.045 136.734C113.7 137.101 114.209 137.607 114.572 138.25C114.946 138.881 115.133 139.588 115.133 140.368C115.133 140.495 115.128 140.627 115.116 140.765C115.116 140.857 115.113 140.952 115.108 141.05C115.104 141.132 115.035 141.195 114.953 141.195H108.652C108.56 141.195 108.488 141.273 108.499 141.364C108.571 141.95 108.799 142.416 109.184 142.763C109.617 143.142 110.138 143.331 110.746 143.331C111.203 143.331 111.583 143.233 111.887 143.038C112.173 142.851 112.392 142.616 112.544 142.335C112.573 142.281 112.628 142.246 112.689 142.246H114.658C114.763 142.246 114.839 142.348 114.803 142.447C114.635 142.909 114.383 143.336 114.045 143.727C113.671 144.163 113.203 144.508 112.642 144.761C112.092 145.013 111.466 145.14 110.764 145.14ZM110.781 137.974C110.232 137.974 109.746 138.129 109.325 138.439C108.947 138.707 108.691 139.105 108.558 139.631C108.534 139.727 108.609 139.817 108.708 139.817H112.684C112.775 139.817 112.848 139.74 112.836 139.65C112.773 139.165 112.567 138.773 112.22 138.474C111.834 138.141 111.355 137.974 110.781 137.974Z" fill="white"/>
<ellipse cx="121.213" cy="143.412" rx="1.51226" ry="1.48433" fill="white"/>
<path fill-rule="evenodd" clip-rule="evenodd" d="M133.764 130.618C136.245 130.618 138.256 132.629 138.256 135.11C138.256 137.59 136.245 139.601 133.764 139.601H124.494C124.462 139.601 124.431 139.601 124.399 139.6C123.245 140.253 121.686 141.131 121.686 141.131V138.616C120.659 137.792 120.002 136.528 120.002 135.11C120.002 132.629 122.013 130.618 124.494 130.618H133.764Z" fill="#2C71F0"/>
<path d="M124.399 139.6L124.326 139.47L124.361 139.45L124.402 139.45L124.399 139.6ZM121.686 141.131L121.759 141.261L121.536 141.387V141.131H121.686ZM121.686 138.616L121.78 138.499L121.836 138.544V138.616H121.686ZM138.106 135.11C138.106 132.712 136.162 130.768 133.764 130.768V130.468C136.328 130.468 138.406 132.546 138.406 135.11H138.106ZM133.764 139.451C136.162 139.451 138.106 137.508 138.106 135.11H138.406C138.406 137.673 136.328 139.751 133.764 139.751V139.451ZM124.494 139.451H133.764V139.751H124.494V139.451ZM124.402 139.45C124.433 139.451 124.463 139.451 124.494 139.451V139.751C124.461 139.751 124.429 139.751 124.396 139.75L124.402 139.45ZM121.686 141.131C121.612 141 121.612 141 121.612 141C121.612 141 121.612 141 121.612 141C121.612 141 121.612 141 121.613 141C121.613 141 121.613 140.999 121.613 140.999C121.614 140.999 121.615 140.998 121.617 140.997C121.62 140.996 121.624 140.993 121.63 140.99C121.642 140.983 121.659 140.974 121.681 140.961C121.726 140.936 121.792 140.899 121.874 140.853C122.038 140.76 122.269 140.63 122.536 140.479C123.07 140.179 123.748 139.796 124.326 139.47L124.473 139.731C123.896 140.057 123.217 140.44 122.683 140.741C122.416 140.891 122.185 141.021 122.021 141.114C121.939 141.16 121.874 141.197 121.829 141.222C121.806 141.235 121.789 141.245 121.777 141.251C121.771 141.255 121.767 141.257 121.764 141.259C121.762 141.26 121.761 141.26 121.761 141.261C121.76 141.261 121.76 141.261 121.76 141.261C121.76 141.261 121.76 141.261 121.76 141.261C121.759 141.261 121.759 141.261 121.759 141.261C121.759 141.261 121.759 141.261 121.686 141.131ZM121.836 138.616V141.131H121.536V138.616H121.836ZM120.152 135.11C120.152 136.48 120.787 137.703 121.78 138.499L121.592 138.733C120.532 137.882 119.852 136.575 119.852 135.11H120.152ZM124.494 130.768C122.096 130.768 120.152 132.712 120.152 135.11H119.852C119.852 132.546 121.93 130.468 124.494 130.468V130.768ZM133.764 130.768H124.494V130.468H133.764V130.768Z" fill="black"/>
<path d="M124.188 137.883V138.033H124.338H125.635H125.785V137.883V135.842H127.776V137.883V138.033H127.926H129.232H129.382V137.883V132.346V132.196H129.232H127.926H127.776V132.346V134.34H125.785V132.346V132.196H125.635H124.338H124.188V132.346V137.883ZM130.21 137.883V138.033H130.36H131.657H131.807V137.883V136.182H132.339L133.274 137.953L133.316 138.033H133.406H134.852H135.113L134.981 137.807L133.836 135.845C134.393 135.516 134.796 134.918 134.796 134.173C134.796 132.99 133.85 132.196 132.61 132.196H130.36H130.21V132.346V137.883ZM131.807 134.814V133.564H132.479C132.704 133.564 132.875 133.63 132.987 133.732C133.099 133.833 133.166 133.981 133.166 134.173C133.166 134.394 133.092 134.549 132.98 134.65C132.867 134.754 132.7 134.814 132.495 134.814H131.807Z" fill="white" stroke="#001749" stroke-width="0.3"/>
<rect x="113.857" y="33.5459" width="29.0145" height="27.9501" rx="6.89689" fill="#001749" stroke="#001749" stroke-width="0.8"/>
<rect x="112.803" y="33.5459" width="29.0145" height="27.9501" rx="6.89689" fill="#F78400" stroke="#001749" stroke-width="0.8"/>
<path d="M133.297 44.2608H127.403L127.055 42.5652C126.973 42.161 126.605 41.8652 126.175 41.8652H121.375C120.884 41.8652 120.475 42.2497 120.475 42.7328V44.9213V50.8066V53.1923H133.993V44.9114C133.993 44.5565 133.686 44.2608 133.297 44.2608Z" fill="white" stroke="#001749" stroke-width="0.8" stroke-miterlimit="10" stroke-linecap="round" stroke-linejoin="round"/>
<path d="M134.044 53.2022H120.484L123.503 46.5775C123.616 46.331 123.872 46.1635 124.158 46.1635H136.152C136.674 46.1635 137.022 46.6761 136.807 47.1296L134.044 53.2022Z" fill="white" stroke="#001749" stroke-width="0.8" stroke-miterlimit="10" stroke-linecap="round" stroke-linejoin="round"/>
<rect x="98.248" y="63.4772" width="29.0145" height="27.9501" rx="6.89689" fill="#001749" stroke="#001749" stroke-width="0.8"/>
<rect x="97.1934" y="63.4772" width="29.0145" height="27.9501" rx="6.89689" fill="#1C4396" stroke="#001749" stroke-width="0.8"/>
<rect x="115.264" y="69.3147" width="4.52981" height="15.546" fill="white" stroke="#001749" stroke-width="0.8"/>
<rect x="103.396" y="79.6787" width="4.52981" height="5.182" fill="white" stroke="#001749" stroke-width="0.8"/>
<rect x="109.33" y="74.4965" width="4.52981" height="10.3643" fill="white" stroke="#001749" stroke-width="0.8"/>
<rect x="146.537" y="33.421" width="29.0145" height="27.9501" rx="6.89689" fill="#001749" stroke="#001749" stroke-width="0.8"/>
<rect x="145.482" y="33.421" width="29.0145" height="27.9501" rx="6.89689" fill="#1C4396" stroke="#001749" stroke-width="0.8"/>
<path d="M169.156 48.7249C169.21 48.3489 169.243 47.9623 169.243 47.5758C169.243 47.1893 169.21 46.8027 169.156 46.4266L167.519 45.8625C167.367 45.3402 167.15 44.8387 166.879 44.3791L167.627 42.8643C167.15 42.2479 166.575 41.6942 165.935 41.2346L164.363 41.9554C163.886 41.6942 163.365 41.4853 162.823 41.339L162.237 39.7616C161.847 39.7093 161.446 39.678 161.044 39.678C160.643 39.678 160.242 39.7093 159.851 39.7616L159.266 41.339C158.724 41.4853 158.203 41.6942 157.726 41.9554L156.153 41.2346C155.513 41.6942 154.939 42.2479 154.462 42.8643L155.21 44.3791C154.939 44.8387 154.722 45.3402 154.57 45.8625L152.932 46.4266C152.878 46.8027 152.846 47.1893 152.846 47.5758C152.846 47.9623 152.878 48.3489 152.932 48.7249L154.57 49.2891C154.722 49.8114 154.939 50.3129 155.21 50.7725L154.462 52.2873C154.939 52.9037 155.513 53.4574 156.153 53.917L157.726 53.1962C158.203 53.4574 158.724 53.6663 159.266 53.8125L159.851 55.39C160.242 55.4423 160.643 55.4736 161.044 55.4736C161.446 55.4736 161.847 55.4423 162.237 55.39L162.823 53.8125C163.365 53.6663 163.886 53.4574 164.363 53.1962L165.935 53.917C166.575 53.4574 167.15 52.9037 167.627 52.2873L166.879 50.7725C167.15 50.3129 167.367 49.8114 167.519 49.2891L169.156 48.7249ZM161.044 51.7023C158.68 51.7023 156.761 49.8532 156.761 47.5758C156.761 45.2984 158.68 43.4493 161.044 43.4493C163.408 43.4493 165.328 45.2984 165.328 47.5758C165.328 49.8532 163.408 51.7023 161.044 51.7023Z" fill="#F78400" stroke="#001749" stroke-width="0.8" stroke-miterlimit="10"/>
<rect x="130.439" y="63.4772" width="29.0145" height="27.9501" rx="6.89689" fill="#001749" stroke="#001749" stroke-width="0.8"/>
<rect x="129.385" y="63.4772" width="29.0145" height="27.9501" rx="6.89689" fill="white" stroke="#001749" stroke-width="0.8"/>
<path d="M152.635 77.4664C152.635 81.8282 148.965 85.3642 144.437 85.3642C139.909 85.3642 136.238 81.8282 136.238 77.4664C136.238 73.1046 139.909 69.5686 144.437 69.5686C148.965 69.5686 152.635 73.1046 152.635 77.4664ZM139.673 77.4664C139.673 80.001 141.806 82.0556 144.437 82.0556C147.068 82.0556 149.201 80.001 149.201 77.4664C149.201 74.9319 147.068 72.8772 144.437 72.8772C141.806 72.8772 139.673 74.9319 139.673 77.4664Z" fill="#F78400" stroke="#001749" stroke-width="0.8"/>
<path fill-rule="evenodd" clip-rule="evenodd" d="M144.306 71.0911C144.369 71.0895 144.432 71.0886 144.495 71.0886C144.563 71.0886 144.63 71.0896 144.697 71.0915L144.689 71.3649C144.625 71.3631 144.56 71.3621 144.495 71.3621C144.435 71.3621 144.374 71.3629 144.314 71.3645L144.306 71.0911ZM143.555 71.1514C143.679 71.1348 143.804 71.1213 143.93 71.1112L143.954 71.3838C143.833 71.3935 143.713 71.4063 143.595 71.4223L143.555 71.1514ZM145.1 71.1145C145.235 71.1261 145.369 71.1415 145.501 71.1607L145.459 71.4312C145.332 71.4128 145.204 71.398 145.075 71.3869L145.1 71.1145ZM142.816 71.2924C142.937 71.2623 143.06 71.2355 143.184 71.2119L143.239 71.4802C143.12 71.5028 143.003 71.5285 142.887 71.5573L142.816 71.2924ZM145.899 71.23C146.031 71.2571 146.162 71.2879 146.291 71.3223L146.216 71.5859C146.092 71.553 145.967 71.5234 145.84 71.4975L145.899 71.23ZM142.097 71.5128C142.215 71.4697 142.333 71.4297 142.454 71.3928L142.54 71.6534C142.425 71.6887 142.311 71.7271 142.199 71.7683L142.097 71.5128ZM146.677 71.4373C146.805 71.4795 146.931 71.5253 147.055 71.5746L146.947 71.8275C146.828 71.7803 146.707 71.7365 146.585 71.696L146.677 71.4373ZM141.409 71.8099C141.521 71.7543 141.634 71.7016 141.749 71.652L141.865 71.9016C141.755 71.9491 141.647 71.9996 141.54 72.0528L141.409 71.8099ZM147.424 71.7337C147.545 71.7904 147.664 71.8505 147.782 71.9138L147.643 72.1523C147.53 72.0916 147.416 72.0341 147.3 71.9798L147.424 71.7337ZM140.76 72.1794C140.865 72.1121 140.971 72.0476 141.08 71.9859L141.224 72.2213C141.12 72.2804 141.018 72.3422 140.918 72.4067L140.76 72.1794ZM148.128 72.1144C148.241 72.1846 148.352 72.2581 148.461 72.3346L148.293 72.5553C148.189 72.482 148.083 72.4117 147.974 72.3444L148.128 72.1144ZM140.158 72.6165C140.254 72.5384 140.353 72.4628 140.453 72.3898L140.624 72.6082C140.528 72.6781 140.434 72.7505 140.342 72.8254L140.158 72.6165ZM148.779 72.5736C148.883 72.6563 148.984 72.742 149.082 72.8304L148.889 73.0303C148.794 72.9456 148.697 72.8635 148.598 72.7843L148.779 72.5736ZM150.031 73.9589C150.017 74.0333 149.944 74.0829 149.866 74.0698L148.608 73.8555C148.531 73.8423 148.48 73.7714 148.493 73.697C148.507 73.6226 148.58 73.573 148.658 73.5861L149.776 73.7766L149.974 72.6993C149.987 72.6249 150.061 72.5753 150.138 72.5884C150.216 72.6016 150.267 72.6726 150.253 72.7469L150.031 73.9589ZM139.611 73.1154C139.697 73.0275 139.786 72.9418 139.877 72.8586L140.073 73.0573C139.985 73.137 139.9 73.2191 139.817 73.3034L139.611 73.1154ZM149.369 73.1043C149.462 73.1983 149.552 73.295 149.638 73.3942L149.421 73.5704C149.338 73.4754 149.252 73.3827 149.163 73.2927L149.369 73.1043ZM139.124 73.67C139.2 73.5733 139.278 73.4786 139.359 73.3862L139.576 73.5627C139.499 73.6513 139.423 73.742 139.351 73.8347L139.124 73.67ZM138.705 74.2735C138.769 74.1691 138.836 74.0666 138.906 73.9661L139.142 74.1183C139.075 74.2145 139.011 74.3127 138.949 74.4126L138.705 74.2735ZM138.358 74.9184C138.41 74.8077 138.464 74.6986 138.522 74.5912L138.774 74.717C138.719 74.8198 138.667 74.9242 138.617 75.0303L138.358 74.9184ZM138.089 75.597C138.128 75.4812 138.169 75.3669 138.214 75.254L138.479 75.3516C138.436 75.4597 138.396 75.5692 138.36 75.68L138.089 75.597ZM137.901 76.3004C137.926 76.1812 137.954 76.0631 137.985 75.9463L138.26 76.0144C138.23 76.1263 138.203 76.2393 138.18 76.3535L137.901 76.3004ZM137.797 77.0194C137.807 76.8982 137.821 76.7778 137.839 76.6585L138.12 76.6964C138.103 76.8107 138.09 76.926 138.08 77.0422L137.797 77.0194ZM137.773 77.564C137.773 77.5032 137.774 77.4425 137.776 77.382L138.06 77.3896C138.058 77.4475 138.057 77.5057 138.057 77.564C138.057 77.6224 138.058 77.6806 138.06 77.7385L137.776 77.7461C137.774 77.6856 137.773 77.6249 137.773 77.564ZM151.217 77.564C151.217 77.6249 151.217 77.6856 151.215 77.7461L150.931 77.7385C150.933 77.6806 150.934 77.6224 150.934 77.564H151.217ZM137.839 78.4695C137.821 78.3502 137.807 78.2299 137.797 78.1086L138.08 78.0859C138.09 78.2021 138.103 78.3174 138.12 78.4316L137.839 78.4695ZM151.194 78.1086C151.184 78.2299 151.17 78.3502 151.152 78.4695L150.871 78.4316C150.888 78.3174 150.901 78.2021 150.911 78.0859L151.194 78.1086ZM137.985 79.1818C137.954 79.065 137.926 78.9469 137.901 78.8276L138.18 78.7746C138.203 78.8888 138.23 79.0018 138.26 79.1137L137.985 79.1818ZM151.09 78.8276C151.065 78.9469 151.037 79.065 151.006 79.1818L150.731 79.1137C150.761 79.0018 150.788 78.8888 150.811 78.7746L151.09 78.8276ZM150.902 79.5311C150.863 79.6468 150.822 79.7612 150.777 79.874L150.512 79.7765C150.555 79.6684 150.594 79.5589 150.631 79.4481L150.902 79.5311ZM138.214 79.874C138.169 79.7612 138.128 79.6468 138.089 79.5311L138.36 79.4481C138.396 79.5589 138.436 79.6684 138.479 79.7765L138.214 79.874ZM138.522 80.5368C138.464 80.4295 138.41 80.3204 138.358 80.2097L138.617 80.0978C138.667 80.2038 138.719 80.3083 138.774 80.4111L138.522 80.5368ZM150.633 80.2097C150.581 80.3204 150.526 80.4295 150.469 80.5368L150.217 80.4111C150.272 80.3083 150.324 80.2038 150.374 80.0978L150.633 80.2097ZM138.906 81.162C138.836 81.0615 138.769 80.959 138.705 80.8546L138.949 80.7154C139.011 80.8154 139.075 80.9135 139.142 81.0098L138.906 81.162ZM150.286 80.8546C150.222 80.959 150.155 81.0615 150.085 81.162L149.849 81.0098C149.916 80.9135 149.98 80.8154 150.042 80.7154L150.286 80.8546ZM139.359 81.7419C139.278 81.6495 139.2 81.5548 139.124 81.458L139.351 81.2934C139.423 81.3861 139.499 81.4768 139.576 81.5653L139.359 81.7419ZM149.867 81.458C149.791 81.5548 149.713 81.6495 149.631 81.7419L149.415 81.5653C149.492 81.4768 149.567 81.3861 149.64 81.2934L149.867 81.458ZM149.38 82.0126C149.294 82.1006 149.205 82.1863 149.113 82.2695L148.918 82.0707C149.006 81.991 149.091 81.909 149.174 81.8247L149.38 82.0126ZM139.877 82.2695C139.786 82.1863 139.697 82.1006 139.611 82.0126L139.817 81.8247C139.9 81.909 139.985 81.991 140.073 82.0707L139.877 82.2695ZM148.832 82.5116C148.736 82.5897 148.638 82.6653 148.538 82.7382L148.367 82.5198C148.463 82.45 148.557 82.3775 148.649 82.3027L148.832 82.5116ZM140.453 82.7382C140.353 82.6653 140.254 82.5897 140.158 82.5116L140.342 82.3027C140.434 82.3775 140.528 82.45 140.624 82.5198L140.453 82.7382ZM141.08 83.1422C140.971 83.0805 140.865 83.016 140.76 82.9487L140.918 82.7214C141.018 82.7858 141.12 82.8477 141.224 82.9068L141.08 83.1422ZM148.23 82.9487C148.126 83.016 148.02 83.0805 147.911 83.1422L147.767 82.9068C147.871 82.8477 147.973 82.7858 148.072 82.7214L148.23 82.9487ZM141.749 83.4761C141.634 83.4264 141.521 83.3738 141.409 83.3182L141.54 83.0753C141.647 83.1285 141.755 83.1789 141.865 83.2265L141.749 83.4761ZM147.581 83.3182C147.47 83.3738 147.357 83.4264 147.242 83.4761L147.126 83.2265C147.236 83.1789 147.344 83.1285 147.451 83.0753L147.581 83.3182ZM142.454 83.7352C142.333 83.6984 142.215 83.6583 142.097 83.6152L142.199 83.3597C142.311 83.401 142.425 83.4393 142.54 83.4746L142.454 83.7352ZM146.893 83.6152C146.776 83.6583 146.658 83.6984 146.537 83.7352L146.451 83.4746C146.566 83.4393 146.68 83.401 146.792 83.3597L146.893 83.6152ZM143.184 83.9162C143.06 83.8926 142.937 83.8657 142.816 83.8357L142.887 83.5708C143.003 83.5996 143.12 83.6253 143.239 83.6479L143.184 83.9162ZM146.175 83.8357C146.054 83.8657 145.931 83.8926 145.807 83.9162L145.752 83.6479C145.871 83.6253 145.988 83.5996 146.104 83.5708L146.175 83.8357ZM143.93 84.0169C143.804 84.0068 143.679 83.9933 143.555 83.9766L143.595 83.7057C143.713 83.7217 143.833 83.7346 143.954 83.7443L143.93 84.0169ZM145.435 83.9766C145.312 83.9933 145.187 84.0068 145.061 84.0169L145.037 83.7443C145.158 83.7346 145.277 83.7217 145.396 83.7057L145.435 83.9766ZM144.495 84.0394C144.432 84.0394 144.369 84.0386 144.306 84.0369L144.314 83.7635C144.374 83.7651 144.435 83.7659 144.495 83.7659C144.556 83.7659 144.616 83.7651 144.677 83.7635L144.684 84.0369C144.622 84.0386 144.559 84.0394 144.495 84.0394Z" fill="white"/>
<rect x="82.1523" y="93.5334" width="29.0145" height="27.9501" rx="6.89689" fill="#001749" stroke="#001749" stroke-width="0.8"/>
<rect x="81.0977" y="93.5334" width="29.0145" height="27.9501" rx="6.89689" fill="white" stroke="#001749" stroke-width="0.8"/>
<rect width="9.68575" height="15.7956" rx="4.84287" transform="matrix(0.999999 -0.00105236 0.00113404 0.999999 90.9961 99.4292)" fill="#F78400" stroke="#001749" stroke-width="0.8"/>
<path d="M97.7502 108.51C97.7431 107.405 96.8776 107.161 96.0518 106.961L96.0387 104.934C96.6831 104.998 97.1175 105.374 97.1216 106.009L97.6163 106.006C97.61 105.023 96.8139 104.574 96.036 104.51L96.0334 104.102L95.6329 104.104L95.6355 104.513C94.6779 104.586 94.1163 105.187 94.1208 105.891C94.1273 106.905 94.8828 107.142 95.6536 107.327L95.6679 109.551C94.9056 109.472 94.4313 108.991 94.4272 108.355L93.9482 108.358C93.9541 109.274 94.6807 109.912 95.6707 109.99L95.6742 110.542L96.0747 110.54L96.0712 109.987C97.1545 109.92 97.7551 109.281 97.7502 108.51ZM94.5999 105.888C94.5968 105.419 94.9476 105.009 95.6382 104.936L95.6506 106.858C95.0762 106.695 94.6037 106.486 94.5999 105.888ZM96.0684 109.556L96.0548 107.43C96.6998 107.593 97.2588 107.809 97.2635 108.543C97.2671 109.103 96.8063 109.499 96.0684 109.556Z" fill="white"/>
<rect x="114.354" y="93.6996" width="29.0145" height="27.9501" rx="6.89689" fill="#001749" stroke="#001749" stroke-width="0.8"/>
<rect x="113.299" y="93.6996" width="29.0145" height="27.9501" rx="6.89689" fill="#F78400" stroke="#001749" stroke-width="0.8"/>
<path d="M128.129 100.023C124.817 100.023 122.125 102.616 122.125 105.807C122.125 110.262 126.807 114.75 127.899 115.736C128.026 115.847 128.221 115.847 128.359 115.736C129.452 114.75 134.134 110.295 134.134 105.807C134.134 102.616 131.442 100.023 128.129 100.023ZM128.129 108.7C126.427 108.7 125.047 107.37 125.047 105.741C125.047 104.101 126.427 102.782 128.118 102.782C129.82 102.782 131.189 104.112 131.189 105.741C131.201 107.37 129.832 108.7 128.129 108.7Z" fill="white" stroke="#001749" stroke-width="0.8" stroke-miterlimit="10"/>
<rect x="130.553" y="3.36475" width="29.0145" height="27.9501" rx="6.89689" fill="#001749" stroke="#001749" stroke-width="0.8"/>
<rect x="129.498" y="3.36475" width="29.0145" height="27.9501" rx="6.89689" fill="white" stroke="#001749" stroke-width="0.8"/>
<path d="M147.508 20.4232C147.035 20.2174 146.541 20.06 146.034 19.9534C146.144 19.9137 146.252 19.8703 146.359 19.8238C147.285 19.4157 148.046 18.7246 148.525 17.8569C149.004 16.9893 149.174 15.9935 149.009 15.0232C148.844 14.0529 148.353 13.162 147.612 12.4882C146.87 11.8143 145.92 11.3949 144.907 11.2947C143.894 11.1944 142.876 11.419 142.008 11.9336C141.141 12.4482 140.473 13.2243 140.108 14.1421C139.742 15.0599 139.7 16.0684 139.987 17.0118C140.274 17.9553 140.874 18.7813 141.695 19.3623C141.719 19.3713 141.742 19.3818 141.766 19.39L141.744 19.396C142.079 19.6273 142.444 19.8147 142.83 19.9534C141.077 20.3129 139.521 21.2831 138.461 22.6791C137.349 21.5629 136.601 20.1563 136.309 18.6335C136.016 17.1107 136.193 15.5385 136.816 14.1114C137.439 12.6844 138.482 11.4652 139.815 10.6047C141.148 9.74418 142.713 9.28017 144.316 9.27007C145.92 9.25996 147.491 9.70422 148.836 10.5478C150.18 11.3915 151.239 12.5974 151.882 14.0165C152.524 15.4356 152.722 17.0054 152.45 18.5318C152.178 20.0582 151.449 21.474 150.352 22.6042C149.611 21.6558 148.632 20.9052 147.508 20.4232Z" stroke="#001749" stroke-width="0.8" stroke-linecap="round" stroke-linejoin="round"/>
<path d="M144.302 25.0652C143.2 25.0545 142.112 24.8334 141.1 24.4149C140.089 23.9963 139.175 23.3887 138.413 22.6278C139.486 21.2278 141.061 20.2548 142.836 19.8943C142.445 19.7553 142.075 19.5673 141.736 19.3353L141.758 19.3293C141.734 19.321 141.711 19.3105 141.687 19.3015C140.858 18.7192 140.252 17.892 139.962 16.9474C139.673 16.0028 139.717 14.9934 140.086 14.0748C140.456 13.1563 141.131 12.3796 142.008 11.8647C142.884 11.3497 143.913 11.1251 144.937 11.2254C145.96 11.3257 146.92 11.7454 147.669 12.4198C148.419 13.0942 148.915 13.9857 149.082 14.9569C149.25 15.9281 149.078 16.925 148.595 17.7938C148.111 18.6626 147.343 19.3551 146.407 19.7644C146.3 19.8109 146.191 19.8545 146.079 19.8943C146.592 20.0012 147.092 20.1591 147.571 20.3654C148.708 20.8501 149.697 21.6036 150.445 22.5549C149.66 23.3589 148.708 23.9974 147.65 24.4296C146.592 24.8618 145.452 25.0783 144.302 25.0652Z" fill="#F78400" stroke="#001749" stroke-width="0.8" stroke-linecap="round" stroke-linejoin="round"/>
<rect x="169.691" y="53.2567" width="29.0145" height="27.9501" rx="6.89689" fill="#001749" stroke="#001749" stroke-width="0.8"/>
<rect x="168.635" y="53.2567" width="29.0145" height="27.9501" rx="6.89689" fill="#F78400" stroke="#001749" stroke-width="0.8"/>
<path fill-rule="evenodd" clip-rule="evenodd" d="M186.222 59.6594H180.334V64.7212L175.08 64.7212V70.3931H180.334V75.455H186.222V70.3931H191.477V64.7212L186.222 64.7212V59.6594Z" fill="white"/>
<path d="M180.334 59.6594V59.2594H179.934V59.6594H180.334ZM186.222 59.6594H186.622V59.2594H186.222V59.6594ZM180.334 64.7212V65.1212H180.734V64.7212H180.334ZM175.08 64.7212L175.08 64.3212H174.68V64.7212H175.08ZM175.08 70.3931H174.68V70.7931H175.08V70.3931ZM180.334 70.3931H180.734V69.9931H180.334V70.3931ZM180.334 75.455H179.934V75.855H180.334V75.455ZM186.222 75.455V75.855H186.622V75.455H186.222ZM186.222 70.3931V69.9931H185.822V70.3931H186.222ZM191.477 70.3931V70.7931H191.877V70.3931H191.477ZM191.477 64.7212H191.877V64.3212H191.477V64.7212ZM186.222 64.7212H185.822V65.1212H186.222V64.7212ZM180.334 60.0594H186.222V59.2594H180.334V60.0594ZM180.734 64.7212V59.6594H179.934V64.7212H180.734ZM175.08 65.1212L180.334 65.1212V64.3212L175.08 64.3212L175.08 65.1212ZM175.48 70.3931V64.7212H174.68V70.3931H175.48ZM180.334 69.9931H175.08V70.7931H180.334V69.9931ZM180.734 75.455V70.3931H179.934V75.455H180.734ZM186.222 75.055H180.334V75.855H186.222V75.055ZM185.822 70.3931V75.455H186.622V70.3931H185.822ZM191.477 69.9931H186.222V70.7931H191.477V69.9931ZM191.077 64.7212V70.3931H191.877V64.7212H191.077ZM186.222 65.1212L191.477 65.1212V64.3212L186.222 64.3212V65.1212ZM185.822 59.6594V64.7212H186.622V59.6594H185.822Z" fill="#001749"/>
<path d="M194.047 70.3215L207.053 53.4363L208.394 60.7081L217.809 56.0754L219.691 59.8359L210.271 64.5162L215.516 70.0141L194.047 70.3215Z" fill="#FBE62E" stroke="#001749" stroke-width="0.8" stroke-linejoin="round"/>
<rect x="208.957" y="94.309" width="27.1798" height="61.9549" rx="13.5899" transform="rotate(90 208.957 94.309)" fill="#001749" stroke="#001749" stroke-width="0.8"/>
<rect x="208.158" y="93.5396" width="27.1798" height="62.0753" rx="13.5899" transform="rotate(90 208.158 93.5396)" fill="#1C4396" stroke="#001749" stroke-width="0.8"/>
<path d="M199.087 118.222C192.639 120.791 185.25 117.838 182.584 111.627C179.917 105.416 182.982 98.2986 189.429 95.7297C195.877 93.1607 203.265 96.1132 205.932 102.324C208.599 108.535 205.534 115.653 199.087 118.222Z" fill="#F78400" stroke="#001749" stroke-width="0.8"/>
<path d="M194.258 115.171C198.956 115.171 202.765 111.502 202.765 106.976C202.765 102.449 198.956 98.78 194.258 98.78C189.559 98.78 185.75 102.449 185.75 106.976C185.75 111.502 189.559 115.171 194.258 115.171Z" fill="white" stroke="#001749" stroke-width="0.8" stroke-miterlimit="10"/>
<path d="M194.314 98.7802L194.229 115.171" stroke="#001749" stroke-width="0.8" stroke-miterlimit="10" stroke-linejoin="round"/>
<path d="M194.315 98.7802C188.294 101.686 188.25 112.184 194.226 115.171" stroke="#001749" stroke-width="0.8" stroke-miterlimit="10" stroke-linejoin="round"/>
<path d="M194.193 98.7802C200.214 101.686 200.258 112.184 194.282 115.171" stroke="#001749" stroke-width="0.8" stroke-miterlimit="10" stroke-linejoin="round"/>
<path d="M202.765 107.031L185.75 106.921" stroke="#001749" stroke-width="0.8" stroke-miterlimit="10" stroke-linejoin="round"/>
<path d="M186.289 109.881L202.337 109.963" stroke="#001749" stroke-width="0.8" stroke-miterlimit="10" stroke-linejoin="round"/>
<path d="M188.281 112.814L200.203 112.896" stroke="#001749" stroke-width="0.8" stroke-miterlimit="10" stroke-linejoin="round"/>
<path d="M186.318 104.016L202.366 104.098" stroke="#001749" stroke-width="0.8" stroke-miterlimit="10" stroke-linejoin="round"/>
<path d="M188.367 101.083L200.289 101.165" stroke="#001749" stroke-width="0.8" stroke-miterlimit="10" stroke-linejoin="round"/>
</g>
</g>
<defs>
<clipPath id="clip0_1102_30489">
<rect width="288" height="160" fill="white"/>
</clipPath>
<clipPath id="clip1_1102_30489">
<rect x="24" y="2.27197" width="242" height="161" rx="8" fill="white"/>
</clipPath>
</defs>
</svg>
