<svg xmlns="http://www.w3.org/2000/svg" xmlns:xlink="http://www.w3.org/1999/xlink" width="624" zoomAndPan="magnify" viewBox="0 0 468 308.250004" height="411" preserveAspectRatio="xMidYMid meet" version="1.0"><defs><clipPath id="id1"><path d="M 0.566406 0 L 467.429688 0 L 467.429688 307.5 L 0.566406 307.5 Z M 0.566406 0 " clip-rule="nonzero"/></clipPath><clipPath id="id2"><path d="M 99 221 L 201 221 L 201 297.707031 L 99 297.707031 Z M 99 221 " clip-rule="nonzero"/></clipPath><clipPath id="id3"><path d="M 264 9.65625 L 422 9.65625 L 422 117 L 264 117 Z M 264 9.65625 " clip-rule="nonzero"/></clipPath><clipPath id="id4"><path d="M 333 20 L 467.429688 20 L 467.429688 122 L 333 122 Z M 333 20 " clip-rule="nonzero"/></clipPath><clipPath id="id5"><path d="M 0.566406 118 L 94 118 L 94 209 L 0.566406 209 Z M 0.566406 118 " clip-rule="nonzero"/></clipPath></defs><g clip-path="url(#id1)"><path fill="rgb(100%, 100%, 100%)" d="M 0.566406 0 L 467.433594 0 L 467.433594 307.5 L 0.566406 307.5 Z M 0.566406 0 " fill-opacity="1" fill-rule="nonzero"/><path fill="rgb(100%, 100%, 100%)" d="M 0.566406 0 L 467.433594 0 L 467.433594 307.5 L 0.566406 307.5 Z M 0.566406 0 " fill-opacity="1" fill-rule="nonzero"/><path fill="rgb(100%, 100%, 100%)" d="M 0.566406 0 L 467.433594 0 L 467.433594 307.5 L 0.566406 307.5 Z M 0.566406 0 " fill-opacity="1" fill-rule="nonzero"/></g><path stroke-linecap="butt" transform="matrix(2.881777, 0, 0, 2.880491, 0.576024, 9.657138)" fill-opacity="1" fill="rgb(17.248535%, 44.309998%, 94.119263%)" fill-rule="nonzero" stroke-linejoin="miter" d="M 68.712393 55.545769 L 68.900808 55.062996 L 68.458915 54.311713 L 70.027229 54.665657 L 71.085874 55.353202 L 73.326516 53.186146 L 74.191325 53.220048 L 74.404139 53.54687 L 74.93414 52.327731 L 75.82877 51.812411 L 77.661406 53.300059 L 76.445522 55.282685 L 77.416061 56.6632 L 78.092455 55.39931 L 79.56724 54.330699 L 80.715348 54.665657 L 81.413431 52.375195 L 82.740466 52.868817 L 83.319264 52.333155 L 84.639522 55.444061 L 85.695456 56.63879 L 84.853691 56.990021 L 82.87466 56.387911 L 81.928521 57.661294 L 81.666909 57.38736 L 81.002714 58.027442 L 82.325683 59.642564 L 82.466655 60.652862 L 82.999366 60.65693 L 83.902129 61.340408 L 84.733051 62.330365 L 84.6341 62.783304 L 85.650725 62.719567 L 86.09804 61.918108 L 87.412875 61.611629 L 87.679909 61.033928 L 88.566406 61.808264 L 89.707737 60.241962 L 89.090984 58.474957 L 90.152341 56.665912 L 92.691193 57.824026 L 93.028713 56.562848 L 94.7014 55.894288 L 95.300531 56.286203 L 96.393064 57.106646 L 96.257514 57.855217 L 95.613652 58.157628 L 95.616363 58.526489 L 96.474394 58.641758 L 96.876978 59.382191 L 95.164981 60.766775 L 94.481809 60.690833 L 94.18631 61.352613 L 93.940964 61.123431 L 93.017869 61.622477 L 93.410964 62.150003 L 93.972141 62.040158 L 94.061604 62.335789 L 93.242882 62.484961 L 93.211705 63.054525 L 93.909788 63.515601 L 93.851501 62.719567 L 94.129379 62.586668 L 94.540096 63.263365 L 92.327919 65.883361 L 93.349966 66.98723 L 92.626129 68.999691 L 92.941961 69.433645 L 92.941961 70.56328 L 91.711166 72.000752 L 90.481728 70.980961 L 87.865612 72.628629 L 88.555562 73.485688 L 89.501701 73.308038 L 90.576613 74.353595 L 90.714874 75.012662 L 90.317712 75.593075 L 90.73114 76.416231 L 90.252648 77.598755 L 89.70096 78.066612 L 88.800907 77.460433 L 87.023847 78.832811 L 86.500623 78.427336 L 84.944509 78.92367 L 85.779497 80.348937 L 84.490417 81.734877 L 85.92318 84.335887 L 85.596505 84.561 L 85.135635 84.245028 L 84.445685 84.921725 L 82.838062 84.662708 L 82.596783 85.172604 L 81.420208 85.807261 L 81.894634 86.652115 L 80.487624 87.465778 L 80.498468 87.951264 L 79.313761 89.131076 L 78.503172 89.478239 L 78.116854 88.957494 L 76.194755 90.179345 L 76.52143 91.067594 L 76.254397 90.788237 L 73.007974 90.796373 L 72.724674 89.478239 L 72.029303 89.357545 L 71.070964 90.683816 L 71.40035 91.889394 L 69.82797 91.920585 L 69.396921 92.456246 L 69.705975 93.250924 L 67.308095 92.882063 L 66.665588 93.522145 L 66.283337 93.378398 L 66.379577 93.721493 L 65.094563 93.778449 L 64.727223 93.451628 L 64.90886 93.017674 L 66.040702 92.625759 L 65.436149 92.079249 L 66.356534 90.095267 L 65.841444 89.334492 L 66.412109 89.106666 L 65.756047 88.777132 L 65.525612 87.619018 L 65.852288 87.255582 L 65.146072 86.962663 L 65.123029 86.595159 L 65.446993 86.741618 L 65.653029 86.176122 L 64.70689 85.894052 L 64.727223 85.294653 L 65.34262 84.9163 L 65.415817 85.78692 L 65.93904 84.318258 L 66.395843 84.160949 L 66.451419 83.242866 L 65.582543 83.846333 L 65.277556 83.637493 L 66.511061 82.605496 L 66.29147 81.56672 L 67.384003 81.839297 L 67.642904 80.293337 L 67.088504 79.357624 L 66.772672 77.204129 L 67.622571 75.400508 L 67.63206 74.409195 L 67.009885 72.929684 L 66.944821 71.467803 L 66.178963 69.878447 L 66.722519 69.033594 L 68.706971 68.354185 L 69.55687 67.057748 L 68.8249 64.302142 L 67.724234 62.834836 L 67.682213 61.417706 L 68.458915 59.31303 L 68.544311 56.416389 Z M 68.712393 55.545769 " stroke="rgb(100%, 100%, 100%)" stroke-width="0.5" stroke-opacity="1" stroke-miterlimit="4"/><path fill="rgb(17.248535%, 44.309998%, 94.119263%)" d="M 136.425781 241.816406 L 138.007812 242.390625 L 139.71875 241.480469 L 141.179688 243.390625 L 141.691406 242.683594 L 140.59375 242.1875 L 140.527344 239.949219 L 141.84375 239.300781 L 143.019531 240.054688 L 146.433594 237.820312 L 145.363281 232.195312 L 148.195312 230.988281 L 150.96875 231.621094 L 154.167969 230.109375 L 156.300781 231.984375 L 156.65625 235.644531 L 159.128906 236.914062 L 158.335938 242.203125 L 160.988281 242.503906 L 161.410156 243.632812 L 160.089844 247.269531 L 157.371094 248.398438 L 157.96875 249.542969 L 164.492188 245.898438 L 165.457031 244.5 L 165.359375 241.507812 L 167.316406 242.511719 L 168.417969 244.4375 L 169.15625 243.691406 L 169.554688 244.304688 L 168.90625 248.460938 L 171.792969 249.332031 L 171.273438 250.320312 L 172.90625 253.121094 L 174.367188 252.359375 L 179.492188 258.527344 L 180.019531 258.046875 L 183.839844 260.335938 L 188.304688 260.171875 L 190.339844 261.011719 L 189.398438 262.058594 L 190.0625 265.394531 L 191.953125 266.34375 L 190.308594 267 L 191.800781 269.199219 L 189.140625 274.914062 L 190.890625 276.496094 L 187.628906 277.625 L 187.109375 278.875 L 188.164062 279.816406 L 187.871094 282.710938 L 186.890625 282.84375 L 180.847656 279.019531 L 177.839844 279.109375 L 177.945312 281.039062 L 176.515625 281.867188 L 177.351562 283.101562 L 176.328125 283.875 L 175.808594 283.035156 L 174.722656 285.230469 L 175.25 286.582031 L 171.914062 288.976562 L 171.917969 290.351562 L 170.851562 290.089844 L 168.339844 292.03125 L 166.269531 290.957031 L 165.636719 293.703125 L 163.226562 294.109375 L 163.324219 296.484375 L 160.566406 296.167969 L 157.671875 292.996094 L 155.863281 295.570312 L 153.09375 294.214844 L 149.5 294.089844 L 148.535156 292.4375 L 145.597656 291.601562 L 144.375 292.648438 L 141.210938 291.398438 L 139.9375 293.378906 L 138.476562 293.75 L 132.742188 290.902344 L 128.027344 291.910156 L 126.464844 291.292969 L 123.4375 293.832031 L 120.898438 289.539062 L 116.386719 289.328125 L 115.089844 287.582031 L 110.367188 287.085938 L 109.183594 285.84375 L 110.382812 285.449219 L 111.488281 283.355469 L 112.097656 284.75 L 112.640625 283.945312 L 114.277344 284.238281 L 114.757812 282.933594 L 114.660156 280.878906 L 112.296875 278.257812 L 112.324219 276.875 L 110.1875 276.796875 L 109.644531 275.59375 L 109.75 277.257812 L 108.664062 277.144531 L 107.324219 272.347656 L 109.371094 271.761719 L 107.648438 266.601562 L 110.683594 264.832031 L 111.082031 262.066406 L 110.058594 260.945312 L 111.460938 260.199219 L 111.578125 255.539062 L 114.1875 250.660156 L 113.5 249.242188 L 114.820312 248.242188 L 115.761719 250.914062 L 117.125 251.367188 L 118.828125 248.851562 L 122.246094 250.554688 L 124.492188 248.988281 L 127.257812 249.191406 L 128.09375 248.46875 L 127.832031 245.757812 L 129.472656 241.050781 Z M 146.523438 257.1875 L 144.171875 258.828125 L 144.667969 260.507812 L 141.8125 260.597656 L 143.085938 263.882812 L 142.695312 265.863281 L 145.453125 267.453125 L 147.699219 270.230469 L 151.585938 268.710938 L 152.179688 265.417969 L 154.515625 261.96875 L 157.402344 262.40625 L 157.980469 261.480469 L 156.917969 258.511719 L 154.570312 255.417969 L 149.378906 257.941406 Z M 146.523438 257.1875 " fill-opacity="1" fill-rule="nonzero"/><g clip-path="url(#id2)"><path stroke-linecap="butt" transform="matrix(2.881777, 0, 0, 2.880491, 0.576024, 9.657138)" fill="none" stroke-linejoin="miter" d="M 47.140962 80.597104 L 47.68994 80.796452 L 48.283649 80.480479 L 48.790606 81.143615 L 48.968176 80.89816 L 48.587281 80.725934 L 48.564237 79.948886 L 49.021041 79.723772 L 49.429046 79.985501 L 50.613754 79.209809 L 50.242347 77.257017 L 51.225084 76.83798 L 52.18749 77.057669 L 53.297644 76.532856 L 54.037747 77.183787 L 54.161098 78.454458 L 55.01913 78.895192 L 54.743963 80.731359 L 55.664348 80.835779 L 55.810742 81.227693 L 55.352583 82.490228 L 54.409154 82.882142 L 54.616546 83.279481 L 56.880231 82.014235 L 57.21504 81.528749 L 57.181153 80.489972 L 57.860258 80.838491 L 58.242509 81.507051 L 58.498699 81.248035 L 58.63696 81.460944 L 58.411947 82.90384 L 59.413661 83.206251 L 59.23338 83.549346 L 59.799979 84.521673 L 60.306936 84.257233 L 62.085353 86.398523 L 62.268345 86.231722 L 63.594024 87.0264 L 65.143361 86.969444 L 65.849577 87.261006 L 65.522901 87.624443 L 65.753336 88.782557 L 66.409398 89.11209 L 65.838733 89.339916 L 66.356534 90.103403 L 65.433438 92.087385 L 66.040702 92.636608 L 64.90886 93.028523 L 64.728578 93.462476 L 65.094563 93.789298 L 64.992901 94.794172 L 64.65267 94.840279 L 62.555711 93.512652 L 61.511976 93.543843 L 61.548574 94.213759 L 61.052461 94.501253 L 61.342538 94.929782 L 60.987397 95.198291 L 60.807116 94.906729 L 60.430287 95.66886 L 60.613279 96.138072 L 59.455682 96.969365 L 59.457037 97.446714 L 59.086986 97.355855 L 58.215399 98.029839 L 57.496984 97.65691 L 57.277393 98.610252 L 56.441049 98.751287 L 56.474937 99.5758 L 55.517954 99.465955 L 54.513528 98.364797 L 53.885931 99.258471 L 52.924882 98.787902 L 51.677821 98.744507 L 51.343013 98.170874 L 50.323677 97.880668 L 49.899405 98.244104 L 48.80145 97.81015 L 48.359557 98.497696 L 47.8526 98.626526 L 45.862725 97.637925 L 44.226636 97.9878 L 43.684436 97.773535 L 42.633924 98.655004 L 41.752848 97.164644 L 40.187246 97.091414 L 39.73722 96.485235 L 38.09842 96.31301 L 37.687703 95.881768 L 38.103842 95.744802 L 38.487448 95.017929 L 38.698906 95.502059 L 38.887321 95.222701 L 39.455275 95.324409 L 39.622002 94.87147 L 39.588114 94.158158 L 38.768037 93.248212 L 38.777525 92.76815 L 38.036067 92.741028 L 37.847652 92.323348 L 37.884251 92.901049 L 37.507422 92.861722 L 37.042485 91.196424 L 37.752767 90.993008 L 37.154991 89.201593 L 38.208215 88.587277 L 38.346476 87.627155 L 37.991335 87.237953 L 38.47796 86.978936 L 38.518625 85.361103 L 39.424099 83.667327 L 39.185531 83.175061 L 39.64369 82.827898 L 39.970366 83.755474 L 40.443435 83.912782 L 41.034433 83.03945 L 42.220496 83.630712 L 42.999909 83.086914 L 43.959603 83.157431 L 44.24968 82.906552 L 44.158861 81.965415 L 44.728172 80.331308 Z M 50.64493 85.933379 L 49.828919 86.502943 L 50.001068 87.086069 L 49.010197 87.117259 L 49.45209 88.257744 L 49.31654 88.945289 L 50.273523 89.497224 L 51.052936 90.461415 L 52.401659 89.93389 L 52.607695 88.790693 L 53.418284 87.593252 L 54.419998 87.745136 L 54.620613 87.423739 L 54.251916 86.393099 L 53.437261 85.319063 L 51.635801 86.195107 Z M 50.64493 85.933379 " stroke="rgb(100%, 100%, 100%)" stroke-width="0.5" stroke-opacity="1" stroke-miterlimit="4"/></g><path stroke-linecap="butt" transform="matrix(2.881777, 0, 0, 2.880491, 0.576024, 9.657138)" fill-opacity="1" fill="rgb(17.248535%, 44.309998%, 94.119263%)" fill-rule="nonzero" stroke-linejoin="miter" d="M 116.096616 48.571319 L 117.12273 48.751681 L 117.873677 49.917932 L 118.185442 49.371421 L 119.665649 50.540384 L 121.36409 50.764141 L 122.071662 51.377101 L 123.785014 51.287598 L 123.751126 52.395536 L 123.393274 52.668113 L 123.554579 53.507543 L 122.186879 54.527334 L 122.41867 55.331505 L 122.104194 55.818346 L 125.049696 57.280228 L 127.019238 57.548737 L 126.619365 58.587514 L 127.138522 58.106096 L 128.010108 58.607855 L 128.423536 58.150848 L 130.031159 57.904036 L 130.056914 56.497755 L 130.88648 56.641502 L 131.500522 55.800717 L 131.745867 55.65697 L 131.810931 55.998708 L 132.201315 55.719351 L 132.66083 55.920054 L 132.899398 56.511316 L 132.401929 57.514834 L 132.725894 57.799616 L 131.706558 58.841105 L 130.814638 59.047233 L 131.164357 60.4725 L 130.852592 61.222426 L 128.967091 62.160851 L 128.934559 63.403044 L 128.099571 64.609978 L 129.091798 65.541622 L 129.136529 66.189841 L 128.300185 67.368296 L 127.808139 67.041475 L 126.862 67.094363 L 127.424532 68.162974 L 126.589544 68.731182 L 126.356398 69.52586 L 125.338417 69.024101 L 124.085935 69.695373 L 123.818901 70.616169 L 124.226907 70.913156 L 123.550512 72.152636 L 123.176394 72.289603 L 122.828031 73.679611 L 123.142507 74.508191 L 123.661663 74.55023 L 124.041204 75.713769 L 123.497648 76.610154 L 123.627776 76.900361 L 121.933401 76.668467 L 121.537595 77.057669 L 121.355957 78.956217 L 120.781225 79.551547 L 120.933041 80.373347 L 119.359306 80.51845 L 119.081428 81.808106 L 118.158332 82.440052 L 117.518536 82.247485 L 117.214904 81.676564 L 115.52324 81.757931 L 115.364646 81.290074 L 114.901065 81.360592 L 114.70994 81.823024 L 113.68247 80.974102 L 111.406585 81.391782 L 110.768145 80.903584 L 110.993158 78.81925 L 110.534999 77.661136 L 109.437044 77.832005 L 109.198476 78.798909 L 107.815865 78.81247 L 106.71791 78.268671 L 106.022538 77.368217 L 106.830417 76.890868 L 106.81144 75.769369 L 106.81144 75.313718 L 107.392949 75.130643 L 107.607118 72.769664 L 106.586426 71.800049 L 106.556605 68.819329 L 106.720621 67.596122 L 107.041875 67.587985 L 106.791107 66.032532 L 107.176069 64.890692 L 106.393945 64.279088 L 105.053356 64.291293 L 103.761564 63.034183 L 103.048571 63.316253 L 102.689363 61.425842 L 103.87407 60.106352 L 105.188906 60.160596 L 105.869367 59.864965 L 106.064559 59.399821 L 107.170647 59.374055 L 108.207605 59.980234 L 109.664768 59.418806 L 110.220523 58.08033 L 109.678323 57.996252 L 110.194768 57.928446 L 110.125638 57.415839 L 109.797607 57.297857 L 109.803029 55.415583 L 110.189346 55.449486 L 110.922672 54.728038 L 110.982314 55.297602 L 112.142622 55.290821 L 112.198198 54.869073 L 113.023697 54.203225 L 113.420859 54.353753 L 112.939656 52.817285 L 113.003365 52.47419 L 113.529299 52.354853 L 113.065718 51.417784 L 115.390401 50.072528 Z M 118.093268 65.564676 L 116.142703 66.260358 L 115.56526 65.865731 L 114.597433 66.733639 L 115.150477 67.404911 L 115.52324 67.39813 L 116.240299 68.492507 L 115.677767 69.875735 L 119.627695 68.793563 L 120.46946 67.909382 L 121.034704 68.131783 L 121.63248 67.768347 L 121.560638 67.083514 L 120.927619 66.328163 L 120.356954 66.302397 L 119.973347 65.873868 L 118.475519 66.387832 Z M 118.093268 65.564676 " stroke="rgb(100%, 100%, 100%)" stroke-width="0.5" stroke-opacity="1" stroke-miterlimit="4"/><path stroke-linecap="butt" transform="matrix(2.881777, 0, 0, 2.880491, 0.576024, 9.657138)" fill-opacity="1" fill="rgb(17.248535%, 44.309998%, 94.119263%)" fill-rule="nonzero" stroke-linejoin="miter" d="M 118.223396 65.781653 L 118.471453 66.390544 L 119.970636 65.875224 L 120.356954 66.305109 L 120.927619 66.333588 L 121.560638 67.086226 L 121.63248 67.773772 L 121.031993 68.134496 L 120.46946 67.912094 L 119.627695 68.798987 L 115.676411 69.878447 L 116.238944 68.49522 L 115.52324 67.399487 L 115.149122 67.404911 L 114.597433 66.733639 L 115.56526 65.865731 L 116.142703 66.260358 L 118.093268 65.564676 Z M 118.223396 65.781653 " stroke="rgb(100%, 100%, 100%)" stroke-width="0.5" stroke-opacity="1" stroke-miterlimit="4"/><path fill="rgb(17.248535%, 44.309998%, 94.119263%)" d="M 366.796875 12.515625 L 371.917969 16.191406 L 373.75 20.488281 L 378.527344 20.257812 L 381.949219 31.882812 L 384.726562 33.328125 L 386.3125 36.726562 L 392.863281 38.480469 L 393.871094 35.136719 L 395.144531 35.144531 L 395.644531 36.238281 L 397.21875 35.769531 L 397.300781 34.574219 L 397.511719 35.308594 L 397.882812 34.59375 L 399.925781 35.453125 L 401.371094 33.730469 L 403.910156 33.960938 L 406.792969 32.304688 L 408.699219 33.84375 L 410.089844 32.921875 L 410.789062 34.375 L 411.417969 33.441406 L 412.949219 33.746094 L 413.308594 35.625 L 411.980469 35.671875 L 413.234375 36.5 L 410.386719 39.210938 L 411.035156 40.945312 L 409.363281 40.738281 L 409.402344 41.785156 L 408.226562 41.085938 L 409.046875 41.976562 L 408.527344 42.707031 L 407.164062 41.175781 L 407.230469 42.074219 L 405.710938 42.097656 L 406.492188 40.648438 L 405.640625 40.761719 L 403.628906 42.59375 L 403.519531 44.332031 L 402.792969 44.03125 L 401.101562 46.011719 L 400.601562 45.507812 L 399.289062 47.9375 L 397.707031 47.285156 L 394.664062 47.886719 L 393.980469 49.492188 L 393.210938 47.625 L 392.910156 48.65625 L 392.089844 47.835938 L 391.304688 50.425781 L 390.144531 51.585938 L 389.261719 51.109375 L 387.871094 52.855469 L 387.929688 51.539062 L 386.074219 51.699219 L 385.828125 52.886719 L 382.035156 52.820312 L 378.40625 52.398438 L 376.035156 51.003906 L 371.882812 53.382812 L 372.152344 54.378906 L 369.355469 53.910156 L 368.730469 55.304688 L 366.839844 54.105469 L 364.90625 59.800781 L 367.355469 62.976562 L 366.167969 63.234375 L 366.457031 64.320312 L 368.167969 64.867188 L 366.488281 65.492188 L 366.421875 67.375 L 364.820312 66.863281 L 364.421875 68.808594 L 360.785156 68.816406 L 359.601562 69.988281 L 356.949219 69.191406 L 356.867188 68.242188 L 354.824219 68.300781 L 354.027344 66.628906 L 351.96875 68.242188 L 351.636719 69.890625 L 348.300781 69.546875 L 348.019531 67.714844 L 345.746094 67.429688 L 342.097656 71.675781 L 345.027344 76.105469 L 344.292969 79.160156 L 342.988281 80.261719 L 345.261719 81 L 342.425781 83.226562 L 342.429688 85.902344 L 340.546875 87.0625 L 342.128906 90.414062 L 339.695312 97.199219 L 336.683594 97.070312 L 336.703125 100.292969 L 333.324219 100.992188 L 332.347656 103.140625 L 330.097656 103.984375 L 328.976562 102.679688 L 329.085938 104.609375 L 330.113281 104.894531 L 326.660156 105.210938 L 328.386719 107.621094 L 327.953125 108.238281 L 325.085938 105.683594 L 322.796875 104.359375 L 320.71875 105.894531 L 321.175781 107.109375 L 316.746094 103.613281 L 312.273438 103.824219 L 308.308594 101.4375 L 307.691406 100.625 L 309.25 98.53125 L 303.109375 92.28125 L 303.085938 86.128906 L 300.449219 84.960938 L 299.261719 82.882812 L 300.925781 81.277344 L 302.84375 81.730469 L 302.265625 80.78125 L 304.078125 79.433594 L 299.410156 75.335938 L 302.109375 69.890625 L 301.363281 66.3125 L 303.132812 65.289062 L 311.535156 64.636719 L 314.304688 66.871094 L 316.792969 67.480469 L 317.910156 69.832031 L 320.558594 68.429688 L 323.925781 68.363281 L 326.328125 66.757812 L 327.183594 64.003906 L 326.277344 63.609375 L 326.535156 60.472656 L 325.367188 58.527344 L 322.21875 57.601562 L 320.507812 58.070312 L 318.734375 56.253906 L 317.976562 57.128906 L 313.410156 56.871094 L 309.625 59.175781 L 304.285156 58.980469 L 301.398438 60.425781 L 299.417969 56.929688 L 296.207031 56.628906 L 295.175781 57.050781 L 295.425781 58.339844 L 293.648438 60.472656 L 293.15625 62.867188 L 290.421875 59.761719 L 288.34375 59.800781 L 287.792969 62.324219 L 285.4375 63.128906 L 280.433594 60.695312 L 279.890625 58.496094 L 275.070312 57.691406 L 272.25 55.125 L 274.1875 53.617188 L 273.5 52.96875 L 274.089844 52.246094 L 277.804688 49.550781 L 278.074219 46.449219 L 282.964844 46.667969 L 282.664062 45.6875 L 284.394531 45.550781 L 284.320312 44.03125 L 285.246094 43.699219 L 288.328125 45.605469 L 291.042969 44.503906 L 291.839844 41.78125 L 296.820312 34.964844 L 297.300781 29.445312 L 303.457031 22.394531 L 303.078125 18.230469 L 304.179688 17.515625 L 305.382812 18.488281 L 306.164062 16.785156 L 308.753906 17.785156 L 313.621094 15.097656 L 326.371094 12.726562 L 325.917969 13.523438 L 327.792969 16 L 331.304688 15.363281 L 333.992188 18.96875 L 335.644531 19.496094 L 337.84375 17.976562 L 341.316406 18.578125 L 343.238281 19.519531 L 343.667969 21.453125 L 345.082031 22.117188 L 347.039062 19.609375 L 349.046875 19.398438 L 351.871094 17.433594 L 357.648438 18.9375 L 358.6875 15.007812 L 365.101562 15.234375 L 365.628906 13.15625 Z M 366.796875 12.515625 " fill-opacity="1" fill-rule="nonzero"/><g clip-path="url(#id3)"><path stroke-linecap="butt" transform="matrix(2.881777, 0, 0, 2.880491, 0.576024, 9.657138)" fill="none" stroke-linejoin="miter" d="M 127.081591 0.992361 L 128.858651 2.268456 L 129.494381 3.760172 L 131.152158 3.680162 L 132.339576 7.715931 L 133.303337 8.21769 L 133.85367 9.397502 L 136.126844 10.006393 L 136.476563 8.845567 L 136.918456 8.848279 L 137.09196 9.227989 L 137.638227 9.065256 L 137.666692 8.650288 L 137.739889 8.905236 L 137.868662 8.657069 L 138.577588 8.955412 L 139.079124 8.357369 L 139.960199 8.43738 L 140.960558 7.862391 L 141.622042 8.396696 L 142.1046 8.076655 L 142.347235 8.581127 L 142.56547 8.257017 L 143.096826 8.362794 L 143.221532 9.01508 L 142.760662 9.031354 L 143.195778 9.318848 L 142.207618 10.259985 L 142.432631 10.862096 L 141.852477 10.790222 L 141.866032 11.153659 L 141.458027 10.910916 L 141.742682 11.220108 L 141.5624 11.4737 L 141.08933 10.942106 L 141.112374 11.25401 L 140.585084 11.262147 L 140.856184 10.759032 L 140.560685 10.798359 L 139.862603 11.434372 L 139.824649 12.037839 L 139.572526 11.933419 L 138.985594 12.620965 L 138.81209 12.446027 L 138.356642 13.289525 L 137.807664 13.063055 L 136.75173 13.271895 L 136.514517 13.829255 L 136.247483 13.181036 L 136.14311 13.539048 L 135.858455 13.254266 L 135.585999 14.153364 L 135.183416 14.556127 L 134.877073 14.390682 L 134.394515 14.996861 L 134.414847 14.539854 L 133.770984 14.595454 L 133.685588 15.00771 L 132.369397 14.984656 L 131.110137 14.838197 L 130.287349 14.354067 L 128.846452 15.179936 L 128.939981 15.525742 L 127.969443 15.36301 L 127.752563 15.847139 L 127.096501 15.430815 L 126.425528 17.408017 L 127.275427 18.51053 L 126.863355 18.600033 L 126.963662 18.977031 L 127.557371 19.166885 L 126.974506 19.383862 L 126.951463 20.037505 L 126.395707 19.859855 L 126.257446 20.535196 L 124.995476 20.537908 L 124.584759 20.94474 L 123.664374 20.668094 L 123.635909 20.338561 L 122.926982 20.358902 L 122.65046 19.778489 L 121.936112 20.338561 L 121.820894 20.910837 L 120.663297 20.7915 L 120.565701 20.155486 L 119.7768 20.056491 L 118.510762 21.530577 L 119.527388 23.068401 L 119.272554 24.128875 L 118.819816 24.511297 L 119.608718 24.767601 L 118.624624 25.540581 L 118.62598 26.469513 L 117.972629 26.872276 L 118.521606 28.035815 L 117.67713 30.39137 L 116.632039 30.346618 L 116.638817 31.465405 L 115.466309 31.708148 L 115.127434 32.454006 L 114.346666 32.746925 L 113.957637 32.293986 L 113.995591 32.963902 L 114.352088 33.062898 L 113.153825 33.172742 L 113.752956 34.009459 L 113.602496 34.223724 L 112.607559 33.336831 L 111.813236 32.877111 L 111.092109 33.410061 L 111.250703 33.831809 L 109.713566 32.618095 L 108.161518 32.691325 L 106.785685 31.862744 L 106.571516 31.580674 L 107.112361 30.853802 L 104.981514 28.684033 L 104.973381 26.548167 L 104.058418 26.142692 L 103.646346 25.421244 L 104.22379 24.863884 L 104.88934 25.021193 L 104.688726 24.691659 L 105.317678 24.223803 L 103.697855 22.801248 L 104.634506 20.910837 L 104.375606 19.668644 L 104.989647 19.313345 L 107.905328 19.086875 L 108.866378 19.862568 L 109.729832 20.07412 L 110.117505 20.890495 L 111.036534 20.403654 L 112.204975 20.3806 L 113.038608 19.823241 L 113.335462 18.867186 L 113.020986 18.73022 L 113.110449 17.641267 L 112.705155 16.965926 L 111.612622 16.644529 L 111.018912 16.807262 L 110.403515 16.176673 L 110.140548 16.480441 L 108.555968 16.390938 L 107.242489 17.19104 L 105.38952 17.123235 L 104.387805 17.624994 L 103.700566 16.411279 L 102.586345 16.306859 L 102.228493 16.453319 L 102.315245 16.900833 L 101.698493 17.641267 L 101.527699 18.47256 L 100.578849 17.394456 L 99.857723 17.408017 L 99.666598 18.284061 L 98.849231 18.563419 L 97.112835 17.718565 L 96.924421 16.955078 L 95.251733 16.67572 L 94.273062 15.784759 L 94.94539 15.261302 L 94.706822 15.036188 L 94.911503 14.785309 L 96.200583 13.849596 L 96.294113 12.772848 L 97.991199 12.84879 L 97.886826 12.508408 L 98.487312 12.460944 L 98.461558 11.933419 L 98.782811 11.81815 L 99.852301 12.47993 L 100.794374 12.097508 L 101.070896 11.152303 L 102.799159 8.785899 L 102.965885 6.869722 L 105.102154 4.421951 L 104.97067 2.976343 L 105.352921 2.728176 L 105.770415 3.065846 L 106.041515 2.474584 L 106.940212 2.821747 L 108.629165 1.888746 L 113.053518 1.065591 L 112.89628 1.342236 L 113.54692 2.202007 L 114.765515 1.980962 L 115.698099 3.232647 L 116.271476 3.415721 L 117.034623 2.888196 L 118.239662 3.097036 L 118.906568 3.423858 L 119.055674 4.09513 L 119.546365 4.325668 L 120.22547 3.455048 L 120.922197 3.381819 L 121.902224 2.699698 L 123.907009 3.221798 L 124.267572 1.857556 L 126.493303 1.93621 L 126.676296 1.214762 Z M 127.081591 0.992361 " stroke="rgb(100%, 100%, 100%)" stroke-width="0.5" stroke-opacity="1" stroke-miterlimit="4"/></g><path stroke-linecap="butt" transform="matrix(2.881777, 0, 0, 2.880491, 0.576024, 9.657138)" fill-opacity="1" fill="rgb(17.248535%, 44.309998%, 94.119263%)" fill-rule="nonzero" stroke-linejoin="miter" d="M 72.076745 35.35336 L 73.154368 36.252458 L 72.949687 36.508761 L 73.630148 36.963057 L 73.323805 37.140707 L 73.880916 37.726544 L 74.458359 37.799774 L 74.719971 38.075063 L 75.300125 37.915043 L 75.742018 38.909068 L 77.039232 38.670393 L 76.937569 39.452866 L 77.405217 40.471301 L 76.620382 40.709976 L 76.140535 41.439561 L 75.775905 41.366331 L 74.372962 42.840418 L 73.745366 44.037859 L 72.801938 44.440622 L 71.800223 43.426255 L 71.964239 43.15639 L 71.457281 42.532582 L 70.244109 43.296069 L 69.979786 42.989589 L 68.495513 43.541524 L 68.48738 41.998276 L 68.937406 41.583308 L 68.796434 40.901187 L 69.078378 40.549956 L 68.625641 39.808166 L 67.983134 39.493549 L 68.213569 39.233177 L 67.93027 38.963312 L 68.140372 38.548344 L 67.763543 38.424938 L 67.980423 37.689929 L 67.752699 37.695354 L 68.090219 37.424133 L 67.828607 36.69726 L 70.302395 36.171091 L 70.095004 35.556775 L 70.497587 35.35336 L 71.329864 35.460492 L 71.245823 36.153462 L 71.763624 35.357428 Z M 72.076745 35.35336 " stroke="rgb(100%, 100%, 100%)" stroke-width="0.5" stroke-opacity="1" stroke-miterlimit="4"/><path stroke-linecap="butt" transform="matrix(2.881777, 0, 0, 2.880491, 0.576024, 9.657138)" fill-opacity="1" fill="rgb(17.248535%, 44.309998%, 94.119263%)" fill-rule="nonzero" stroke-linejoin="miter" d="M 95.262577 84.832222 L 95.800711 83.789376 L 96.310379 83.943973 L 97.238897 83.55477 L 98.637773 86.488026 L 97.363603 85.310927 L 96.388998 85.792344 L 95.648895 85.237697 L 95.528255 84.725089 Z M 106.007628 77.361437 L 106.703 78.260535 L 107.803666 78.807045 L 109.186276 78.793484 L 109.423489 77.826581 L 110.52551 77.655712 L 110.982314 78.813826 L 110.758656 80.89816 L 111.394386 81.386358 L 110.802032 82.312578 L 111.018912 83.758186 L 110.300497 83.674108 L 109.934512 85.112935 L 109.068347 85.854725 L 108.572234 85.606558 L 108.176428 86.435138 L 105.949341 84.639655 L 104.87443 84.200276 L 104.767345 84.950203 L 104.032664 85.778783 L 102.0699 85.308215 L 101.748646 85.617407 L 101.443658 84.961052 L 99.887544 85.76929 L 99.102709 86.76196 L 98.964448 86.589734 L 99.333145 86.403948 L 99.67202 84.103993 L 98.275854 84.137896 L 98.015598 82.777722 L 100.135601 82.901127 L 100.104424 80.681183 L 102.244759 80.409962 Z M 103.029594 63.308117 L 103.742587 63.026047 L 105.03709 64.283156 L 106.377679 64.270951 L 107.159803 64.882555 L 106.776197 66.024396 L 107.026964 67.579849 L 106.704355 67.587985 L 106.540339 68.812548 L 106.571516 71.791912 L 107.592208 72.761527 L 107.376683 75.122507 L 106.796529 75.308293 L 106.796529 75.763945 L 105.13333 75.730042 L 103.879492 73.977954 L 103.471487 74.032198 L 103.090591 73.400253 L 102.053634 73.969817 L 101.71747 73.377199 L 100.13289 73.43958 L 100.281995 74.192219 L 99.23826 74.440386 L 99.635421 75.146917 L 98.587619 76.184337 L 98.056263 75.972785 L 98.046775 74.896037 L 97.610304 75.110302 L 97.205009 77.110557 L 96.634343 77.32889 L 96.662809 78.339189 L 97.290406 78.807045 L 97.036927 79.489166 L 94.94539 78.945368 L 94.817973 80.456069 L 93.630555 80.019403 L 92.445848 81.120561 L 93.293035 81.810819 L 94.857283 82.328851 L 94.29475 83.259139 L 94.694623 84.428102 L 93.667153 84.927149 L 91.49022 84.757636 L 88.79413 86.361908 L 87.439985 85.747593 L 85.931313 84.346736 L 84.495839 81.743013 L 85.78763 80.357074 L 84.953998 78.934519 L 86.511467 78.438185 L 87.03198 78.84366 L 88.810396 77.471281 L 89.709093 78.077461 L 90.260781 77.609604 L 90.739273 76.424368 L 90.325845 75.603924 L 90.723007 75.023511 L 90.584746 74.364444 L 89.509834 73.318887 L 88.563695 73.496536 L 87.873745 72.639478 L 90.491216 70.99181 L 91.72201 72.011601 L 92.951449 70.576842 L 92.95416 69.447206 L 92.634262 69.013252 L 93.359455 67.002148 L 92.336052 65.899634 L 94.548229 63.279638 L 95.230045 64.71711 L 95.631273 64.573363 L 95.719381 63.946842 L 97.202298 65.039863 L 98.593041 63.48441 L 99.147441 63.63087 L 99.983785 64.542172 L 100.839105 64.764574 L 101.337929 63.952267 L 102.560591 63.921076 Z M 103.029594 63.308117 " stroke="rgb(100%, 100%, 100%)" stroke-width="0.5" stroke-opacity="1" stroke-miterlimit="4"/><path stroke-linecap="butt" transform="matrix(2.881777, 0, 0, 2.880491, 0.576024, 9.657138)" fill-opacity="1" fill="rgb(17.248535%, 44.309998%, 94.119263%)" fill-rule="nonzero" stroke-linejoin="miter" d="M 126.98535 38.262206 L 126.937908 37.548894 L 127.69021 35.719508 L 129.975584 35.32895 L 131.653693 34.492233 L 131.337861 35.606951 L 132.143029 34.801425 L 133.871291 35.250296 L 133.33858 36.968481 L 134.4772 37.109516 L 135.977739 36.063959 L 137.167868 37.057984 L 136.876436 38.895507 L 136.002138 40.490287 L 135.436894 40.417057 L 134.530065 41.268691 L 132.697428 41.870802 L 132.382952 40.983909 L 131.974947 40.803547 L 131.031518 40.882201 L 129.761415 41.76367 L 129.09722 38.599876 Z M 126.98535 38.262206 " stroke="rgb(100%, 100%, 100%)" stroke-width="0.5" stroke-opacity="1" stroke-miterlimit="4"/><path stroke-linecap="butt" transform="matrix(2.881777, 0, 0, 2.880491, 0.576024, 9.657138)" fill-opacity="1" fill="rgb(17.248535%, 44.309998%, 94.119263%)" fill-rule="nonzero" stroke-linejoin="miter" d="M 68.458915 59.31303 L 66.694053 59.554417 L 65.002389 56.999514 L 66.173541 56.511316 L 68.545667 56.416389 Z M 68.458915 59.31303 " stroke="rgb(100%, 100%, 100%)" stroke-width="0.5" stroke-opacity="1" stroke-miterlimit="4"/><path stroke-linecap="butt" transform="matrix(2.881777, 0, 0, 2.880491, 0.576024, 9.657138)" fill-opacity="1" fill="rgb(17.248535%, 44.309998%, 94.119263%)" fill-rule="nonzero" stroke-linejoin="miter" d="M 103.646346 25.421244 L 103.032305 25.564991 L 102.903532 26.602411 L 101.363684 26.777349 L 101.439592 26.314917 L 100.555806 25.348014 L 100.78353 25.099847 L 100.211509 22.725306 L 100.867571 21.428869 L 102.140386 22.063527 L 101.98857 22.756497 L 102.514504 23.768151 L 103.193609 24.210242 L 103.646346 23.844093 L 103.998776 24.046153 L 104.22379 24.863884 Z M 103.646346 25.421244 " stroke="rgb(100%, 100%, 100%)" stroke-width="0.5" stroke-opacity="1" stroke-miterlimit="4"/><path stroke-linecap="butt" transform="matrix(2.881777, 0, 0, 2.880491, 0.576024, 9.657138)" fill-opacity="1" fill="rgb(17.248535%, 44.309998%, 94.119263%)" fill-rule="nonzero" stroke-linejoin="miter" d="M 62.153128 36.482995 L 62.2941 38.092693 L 63.062668 39.486769 L 63.641467 39.496262 L 64.419524 40.673361 L 64.506276 41.716206 L 63.768884 42.578689 L 66.23725 45.446852 L 66.173541 46.009636 L 66.626278 46.116768 L 66.668299 46.884324 L 67.599528 47.072823 L 66.513772 51.301159 L 67.130525 53.961838 L 68.712393 55.548481 L 68.545667 56.421813 L 66.173541 56.516741 L 65.002389 57.004939 L 66.694053 59.557129 L 68.458915 59.315742 L 67.682213 61.42313 L 66.189807 61.763512 L 66.561214 62.107963 L 66.234539 62.681596 L 64.667581 63.794958 L 64.641826 64.417411 L 63.52896 64.53946 L 62.817323 65.085971 L 63.146709 65.877936 L 61.277474 67.219125 L 60.717653 67.151319 L 60.382844 65.251416 L 59.421794 64.82153 L 58.994812 63.987525 L 57.82366 64.6371 L 57.967343 65.240567 L 56.888364 65.429065 L 55.949003 65.190391 L 55.850051 63.755631 L 55.49491 63.240311 L 55.447468 64.437752 L 54.879513 63.727153 L 54.510817 64.176024 L 53.324754 63.727153 L 53.113296 62.783304 L 51.774062 63.97532 L 50.850966 64.163819 L 50.513447 62.741264 L 50.791324 62.186617 L 50.560889 61.211578 L 50.811657 61.084104 L 50.333165 60.915947 L 50.935007 60.403339 L 50.436183 58.917047 L 49.705569 57.962349 L 51.447386 56.032611 L 52.06685 55.846825 L 51.450097 55.770883 L 50.701861 53.823515 L 51.421632 53.253951 L 50.898409 51.120797 L 51.180353 49.078502 L 50.030889 48.258059 L 49.620172 47.360317 L 48.424621 47.928525 L 47.67774 46.832792 L 47.258891 46.939924 L 47.025744 45.993363 L 47.46086 45.47533 L 46.955258 45.399389 L 46.768199 44.964079 L 47.172139 44.390446 L 47.94884 44.144991 L 47.773981 43.658149 L 48.427332 42.704807 L 48.632012 41.120876 L 49.183701 40.859148 L 49.515798 41.290389 L 50.21117 41.183257 L 50.490403 40.867284 L 50.335876 40.025143 L 51.622246 40.651663 L 51.753729 41.449053 L 53.27189 42.66548 L 53.69345 42.158297 L 54.777851 42.064725 L 54.174653 41.402946 L 54.284448 41.110027 L 54.723631 40.602844 L 55.157391 40.94187 L 55.951714 39.734936 L 56.540001 39.462359 L 57.400744 38.78295 L 57.097112 38.298821 L 57.515961 38.21881 L 57.347879 37.452611 L 58.310284 37.274961 L 59.458393 36.613182 L 60.414021 36.957632 Z M 56.050665 46.702606 L 55.580307 46.942636 L 55.470511 47.630182 L 53.510458 49.69553 L 54.560971 51.569668 L 55.000153 51.802918 L 55.084194 53.327181 L 56.48307 52.788807 L 56.762303 53.152243 L 57.654222 52.076852 L 58.874172 51.721552 L 58.391614 50.574287 L 57.896857 50.605477 L 58.184223 49.865044 L 57.690821 48.948316 L 58.096115 48.38282 L 57.379056 47.573225 L 56.596932 47.624757 Z M 56.050665 46.702606 " stroke="rgb(100%, 100%, 100%)" stroke-width="0.5" stroke-opacity="1" stroke-miterlimit="4"/><path stroke-linecap="butt" transform="matrix(2.881777, 0, 0, 2.880491, 0.576024, 9.657138)" fill-opacity="1" fill="rgb(17.248535%, 44.309998%, 94.119263%)" fill-rule="nonzero" stroke-linejoin="miter" d="M 36.843226 31.775954 L 38.075376 30.927032 L 38.715172 31.41523 L 40.383793 31.229443 L 41.36382 31.851895 L 41.865355 33.235123 L 38.62842 34.947884 L 37.873407 34.711922 L 37.084505 36.100574 L 35.556857 35.9731 L 34.608006 35.499819 L 34.435858 34.848888 L 35.575834 34.581736 L 35.815757 32.950341 Z M 36.843226 31.775954 " stroke="rgb(100%, 100%, 100%)" stroke-width="0.5" stroke-opacity="1" stroke-miterlimit="4"/><path stroke-linecap="butt" transform="matrix(2.881777, 0, 0, 2.880491, 0.576024, 9.657138)" fill-opacity="1" fill="rgb(17.248535%, 44.309998%, 94.119263%)" fill-rule="nonzero" stroke-linejoin="miter" d="M 28.131426 21.107472 L 28.61534 21.839769 L 30.213475 21.922492 L 32.420229 24.305169 L 33.104757 25.781968 L 34.856063 26.523757 L 35.658519 28.092771 L 36.699543 27.946312 L 39.1286 30.23135 L 40.803998 30.830748 L 42.617658 30.60021 L 43.43638 30.836173 L 43.655971 32.178717 L 43.279142 34.423071 L 44.286278 35.130958 L 43.664104 37.123077 L 44.421828 37.533977 L 43.757633 37.774008 L 43.146303 37.512279 L 43.794232 39.314544 L 43.26152 39.541013 L 43.298119 40.002089 L 42.929423 39.993952 L 43.235766 40.498424 L 42.872492 40.7154 L 41.927708 39.494906 L 41.439728 40.145836 L 41.091364 39.528808 L 40.111338 40.741166 L 39.460697 40.143124 L 39.536605 40.851011 L 38.921208 40.963568 L 38.87241 40.213641 L 38.210926 40.185163 L 37.423381 40.887626 L 36.936756 40.427906 L 36.561282 40.723537 L 35.705962 39.650858 L 34.957726 40.362813 L 32.685907 39.611531 L 32.210127 39.993952 L 31.402248 39.78918 L 30.916979 41.209023 L 28.566542 41.661962 L 27.711221 41.358194 L 27.497052 41.611786 L 26.911476 41.169696 L 26.416718 41.583308 L 25.72948 41.389385 L 25.271321 42.104052 L 23.486127 42.905511 L 23.953774 41.298526 L 23.559324 40.600131 L 21.478631 42.137955 L 20.971674 42.864827 L 20.18955 42.043028 L 19.551109 42.22339 L 18.731032 41.008319 L 17.825558 41.499229 L 17.679164 41.194106 L 17.313179 41.439561 L 17.172206 41.206311 L 15.553739 42.302044 L 14.697063 42.009125 L 13.948827 41.099178 L 14.508648 40.134987 L 14.095221 39.233177 L 14.968163 38.872453 L 15.587627 37.844525 L 14.375809 36.864061 L 14.655042 36.48842 L 14.556091 35.575761 L 14.123686 34.961445 L 12.158211 34.905845 L 13.253455 34.32272 L 14.950542 34.012171 L 15.480542 34.288817 L 16.341285 32.798457 L 18.257962 32.851345 L 19.167503 31.521006 L 19.308475 32.603178 L 19.58093 32.65471 L 24.471575 31.959028 L 23.995795 31.295892 L 23.562035 29.000006 L 24.082547 28.453495 L 23.463083 27.771374 L 23.572879 27.421499 L 22.596919 26.678353 L 22.767712 26.359669 L 24.344158 26.150828 L 24.719632 25.455146 L 24.62068 25.015768 L 25.03953 24.336359 L 24.52444 24.01225 L 25.09375 23.128069 L 24.589504 22.756497 L 26.399097 21.308176 Z M 35.815757 32.950341 L 35.575834 34.581736 L 34.385704 35.091631 L 34.608006 35.499819 L 36.516551 36.190077 L 37.08315 36.103286 L 37.873407 34.714634 L 38.62842 34.950596 L 41.868066 33.240547 L 41.366531 31.85732 L 40.385149 31.234868 L 38.717883 31.420654 L 38.079443 30.932456 L 36.492152 32.257371 Z M 35.815757 32.950341 " stroke="rgb(100%, 100%, 100%)" stroke-width="0.5" stroke-opacity="1" stroke-miterlimit="4"/><path stroke-linecap="butt" transform="matrix(2.881777, 0, 0, 2.880491, 0.576024, 9.657138)" fill-opacity="1" fill="rgb(17.248535%, 44.309998%, 94.119263%)" fill-rule="nonzero" stroke-linejoin="miter" d="M 119.527388 23.068401 L 121.246162 23.204011 L 122.788721 24.322798 L 123.066599 25.099847 L 124.221485 24.542487 L 128.36796 24.370262 L 128.864073 23.755946 L 129.457783 23.98784 L 129.975584 24.204817 L 129.764126 24.655044 L 129.982361 25.658562 L 129.455072 29.039333 L 130.822771 29.692976 L 131.710624 31.256565 L 133.306048 31.149433 L 133.623235 32.006491 L 134.867584 32.087858 L 134.755078 32.65471 L 136.284082 33.40328 L 137.533853 32.291274 L 137.612472 31.377259 L 138.470504 31.130447 L 139.912756 32.13939 L 139.793472 33.0968 L 140.475289 33.504988 L 140.293652 34.189821 L 140.712501 34.989923 L 141.993449 33.251396 L 142.668488 33.674501 L 143.293374 35.829353 L 142.513961 37.114941 L 141.555623 37.504143 L 141.908053 37.931316 L 141.691173 38.213386 L 141.317054 37.855374 L 140.734189 38.652764 L 140.41158 40.048197 L 140.994445 40.921528 L 141.04731 42.273566 L 140.467156 43.502197 L 138.817512 43.620178 L 137.384748 46.587337 L 137.590784 47.083671 L 136.734108 48.340781 L 136.895413 50.048118 L 135.92623 50.613614 L 135.318966 52.843051 L 133.776406 53.154955 L 132.734027 54.966712 L 131.969525 55.119952 L 132.194538 55.722063 L 131.805509 56.001421 L 131.740445 55.658326 L 131.493744 55.803429 L 130.879702 56.644215 L 130.051492 56.500467 L 130.024382 57.906749 L 128.416758 58.15356 L 128.003331 58.610567 L 127.134455 58.108808 L 126.612588 58.592938 L 127.01246 57.554161 L 125.046985 57.285652 L 122.101483 55.823771 L 122.414603 55.336929 L 122.185524 54.532758 L 123.551868 53.512967 L 123.390563 52.673538 L 123.748415 52.400961 L 123.782303 51.293023 L 122.070306 51.381169 L 121.361379 50.769566 L 119.661582 50.545809 L 118.181376 49.376846 L 117.870966 49.923356 L 117.121375 48.757105 L 116.096616 48.576743 L 117.136285 47.830886 L 117.411452 44.686077 L 116.508688 40.210929 L 116.786566 39.568135 L 116.389404 38.966024 L 116.415159 36.908813 L 115.332114 35.883597 L 114.082343 36.385356 L 112.931523 35.863255 L 112.485564 34.390525 L 112.612981 33.34768 L 113.606562 34.234573 L 113.758378 34.017596 L 113.160603 33.183591 L 114.35751 33.071034 L 114.002368 32.973395 L 113.964414 32.302122 L 114.354799 32.756418 L 115.135567 32.464855 L 115.474442 31.718997 L 116.64695 31.473542 L 116.637461 30.354755 L 117.685263 30.39815 L 118.529739 28.043951 L 117.980762 26.880413 L 118.634113 26.47765 L 118.631402 25.548718 L 119.615495 24.77845 L 118.827949 24.522146 L 119.279331 24.139724 Z M 129.09722 38.599876 L 129.761415 41.76367 L 131.028807 40.884914 L 131.976302 40.803547 L 132.382952 40.983909 L 132.697428 41.870802 L 134.527354 41.270048 L 135.436894 40.417057 L 136.002138 40.490287 L 136.880502 38.895507 L 137.170579 37.057984 L 135.977739 36.063959 L 134.478556 37.109516 L 133.33858 36.971193 L 133.871291 35.251652 L 132.144384 34.801425 L 131.337861 35.606951 L 131.653693 34.493589 L 129.975584 35.32895 L 127.691566 35.716796 L 126.859289 37.98556 L 126.98535 38.26085 L 128.275786 38.466978 Z M 129.09722 38.599876 " stroke="rgb(100%, 100%, 100%)" stroke-width="0.5" stroke-opacity="1" stroke-miterlimit="4"/><path stroke-linecap="butt" transform="matrix(2.881777, 0, 0, 2.880491, 0.576024, 9.657138)" fill-opacity="1" fill="rgb(17.248535%, 44.309998%, 94.119263%)" fill-rule="nonzero" stroke-linejoin="miter" d="M 95.251733 16.67572 L 96.924421 16.955078 L 97.112835 17.718565 L 98.849231 18.563419 L 99.667953 18.284061 L 99.857723 17.408017 L 100.580205 17.394456 L 101.529055 18.47256 L 101.698493 17.641267 L 102.316601 16.900833 L 102.229849 16.453319 L 102.587701 16.306859 L 103.700566 16.411279 L 104.389161 17.624994 L 104.432537 18.47934 L 104.989647 19.313345 L 104.375606 19.668644 L 104.634506 20.910837 L 103.699211 22.801248 L 105.317678 24.223803 L 104.690082 24.691659 L 104.890696 25.021193 L 104.22379 24.863884 L 103.998776 24.046153 L 103.646346 23.844093 L 103.193609 24.210242 L 102.514504 23.768151 L 101.98857 22.756497 L 102.140386 22.063527 L 100.867571 21.428869 L 100.211509 22.725306 L 100.78353 25.099847 L 100.555806 25.348014 L 101.439592 26.314917 L 101.363684 26.777349 L 102.903532 26.602411 L 103.032305 25.564991 L 103.646346 25.421244 L 104.059774 26.142692 L 104.974737 26.548167 L 104.981514 28.684033 L 107.112361 30.853802 L 106.571516 31.580674 L 106.785685 31.862744 L 108.161518 32.691325 L 109.714921 32.618095 L 111.252058 33.831809 L 110.968759 34.2739 L 109.942645 34.584448 L 109.971111 35.441506 L 109.521085 35.753411 L 109.659346 36.610469 L 106.677245 38.738199 L 105.363765 39.196562 L 104.904251 40.354676 L 103.925579 40.257037 L 104.134326 39.504398 L 103.384735 39.786468 L 103.547395 41.24835 L 102.533481 41.915554 L 101.992636 41.741972 L 102.046856 41.073412 L 101.34064 41.327004 L 100.656113 40.825245 L 99.884833 39.706458 L 100.211509 38.932122 L 99.8767 37.844525 L 98.477824 37.049848 L 97.93969 35.438794 L 95.450992 36.085657 L 96.208716 36.934579 L 95.674649 37.345478 L 93.576335 36.401629 L 93.236104 35.940553 L 93.520759 35.170285 L 92.982626 33.17003 L 92.41196 33.043912 L 91.063237 33.800619 L 90.142853 33.376158 L 90.004592 34.665814 L 89.410883 34.928899 L 88.780575 35.897158 L 87.246149 34.992636 L 86.137349 35.444219 L 86.04382 36.299921 L 85.207476 36.129052 L 84.556836 34.105743 L 84.10681 33.978269 L 83.42906 32.646573 L 83.789623 31.773241 L 82.966834 30.958222 L 83.983459 30.045563 L 84.276247 30.247623 L 84.67612 29.941143 L 84.396887 28.511808 L 84.886223 28.267709 L 85.128857 28.774892 L 85.703589 28.053444 L 86.459958 28.092771 L 86.687682 27.182825 L 87.448118 26.441035 L 87.594512 25.125613 L 89.027276 26.160321 L 89.413594 25.977247 L 89.60743 25.438873 L 88.554206 24.88965 L 88.453899 24.432643 L 90.069656 24.15871 L 90.655232 24.621141 L 91.347892 24.599444 L 91.698967 23.750522 L 92.310298 23.415564 L 92.245234 22.707677 L 92.741347 22.448661 L 92.647817 21.789593 L 93.795926 21.375981 L 93.401475 20.974574 L 93.46925 19.817816 L 92.399761 19.025851 L 92.341474 18.563419 L 93.959941 17.999279 L 94.137512 17.421578 L 94.750198 17.486671 Z M 95.251733 16.67572 " stroke="rgb(100%, 100%, 100%)" stroke-width="0.5" stroke-opacity="1" stroke-miterlimit="4"/><path stroke-linecap="butt" transform="matrix(2.881777, 0, 0, 2.880491, 0.576024, 9.657138)" fill-opacity="1" fill="rgb(17.248535%, 44.309998%, 94.119263%)" fill-rule="nonzero" stroke-linejoin="miter" d="M 97.199587 77.105133 L 97.607593 75.10759 L 98.041353 74.890613 L 98.050841 75.970073 L 98.582197 76.181625 L 99.63271 75.144205 L 99.232838 74.437674 L 100.276573 74.186794 L 100.127468 73.436868 L 101.712048 73.374487 L 102.052278 73.969817 L 103.086525 73.397541 L 103.468776 74.030842 L 103.875426 73.975242 L 105.130619 75.72733 L 106.793818 75.761232 L 106.81144 76.882732 L 106.007628 77.361437 L 102.244759 80.404537 L 100.104424 80.675758 L 100.231841 80.114331 L 98.891251 79.765812 Z M 97.199587 77.105133 " stroke="rgb(100%, 100%, 100%)" stroke-width="0.5" stroke-opacity="1" stroke-miterlimit="4"/><path stroke-linecap="butt" transform="matrix(2.881777, 0, 0, 2.880491, 0.576024, 9.657138)" fill-opacity="1" fill="rgb(17.248535%, 44.309998%, 94.119263%)" fill-rule="nonzero" stroke-linejoin="miter" d="M 112.607559 33.336831 L 112.482853 34.382388 L 112.930168 35.855119 L 114.079632 36.377219 L 115.33347 35.87546 L 116.415159 36.900676 L 116.389404 38.957888 L 116.783855 39.562711 L 116.508688 40.205505 L 117.411452 44.680653 L 117.136285 47.826817 L 116.096616 48.571319 L 115.364646 50.061679 L 113.039963 51.408292 L 113.502189 52.344004 L 112.97761 52.466054 L 112.916613 52.806436 L 113.397815 54.34426 L 112.997943 54.192376 L 112.172443 54.858224 L 112.119579 55.279973 L 110.95927 55.288109 L 110.895562 54.717189 L 110.167658 55.438637 L 109.779985 55.404734 L 109.774563 57.287009 L 110.101239 57.40499 L 110.171725 57.917598 L 109.656635 57.985403 L 110.201546 58.069481 L 109.644435 59.407957 L 108.187272 59.969385 L 107.150315 59.363206 L 106.044226 59.391684 L 105.847679 59.856828 L 105.168573 60.152459 L 103.855093 60.098215 L 102.670386 61.417706 L 103.029594 63.308117 L 102.556524 63.907515 L 101.329796 63.938706 L 100.830972 64.751013 L 99.975652 64.527255 L 99.139308 63.614596 L 98.584908 63.468137 L 97.194165 65.02359 L 95.711248 63.930569 L 95.62314 64.558446 L 95.220557 64.702193 L 94.540096 63.264721 L 94.129379 62.586668 L 93.852857 62.720923 L 93.909788 63.515601 L 93.211705 63.054525 L 93.244237 62.484961 L 94.061604 62.335789 L 93.973496 62.040158 L 93.410964 62.150003 L 93.019224 61.622477 L 93.94232 61.123431 L 94.187665 61.352613 L 94.483165 60.690833 L 95.164981 60.766775 L 96.876978 59.382191 L 96.474394 58.641758 L 95.617718 58.526489 L 95.615007 58.157628 L 96.257514 57.855217 L 96.39442 57.106646 L 95.300531 56.286203 L 95.713959 55.373544 L 95.186669 55.083337 L 94.365236 52.866105 L 94.216131 52.194833 L 94.582116 51.321501 L 95.884752 52.158218 L 95.71667 52.372483 L 96.088077 52.777958 L 97.253807 52.856612 L 98.092862 53.666207 L 98.843809 53.674344 L 99.803503 52.746768 L 99.426674 51.661883 L 98.668949 51.279462 L 99.327723 49.606027 L 98.60253 49.69553 L 98.979359 49.383626 L 98.525266 48.754393 L 98.007465 48.774735 L 96.513704 47.821393 L 95.074163 49.334806 L 94.137512 48.289249 L 92.796922 47.815968 L 93.507204 46.051675 L 92.822677 44.513852 L 89.067941 41.713494 L 88.346815 40.581146 L 87.147197 39.562711 L 88.132646 38.087268 L 86.874742 37.98556 L 86.069574 38.631066 L 84.867246 37.565168 L 85.207476 36.129052 L 86.04382 36.299921 L 86.137349 35.444219 L 87.246149 34.992636 L 88.780575 35.897158 L 89.410883 34.928899 L 90.004592 34.665814 L 90.142853 33.376158 L 91.063237 33.800619 L 92.41196 33.043912 L 92.982626 33.17003 L 93.520759 35.170285 L 93.236104 35.940553 L 93.576335 36.401629 L 95.674649 37.345478 L 96.208716 36.934579 L 95.449636 36.085657 L 97.93969 35.438794 L 98.477824 37.049848 L 99.8767 37.844525 L 100.211509 38.932122 L 99.884833 39.706458 L 100.654757 40.825245 L 101.34064 41.327004 L 102.045501 41.073412 L 101.991281 41.741972 L 102.533481 41.915554 L 103.547395 41.24835 L 103.384735 39.786468 L 104.134326 39.504398 L 103.925579 40.257037 L 104.904251 40.354676 L 105.363765 39.196562 L 106.67589 38.738199 L 109.659346 36.610469 L 109.521085 35.753411 L 109.969755 35.441506 L 109.942645 34.584448 L 110.968759 34.272544 L 111.250703 33.831809 L 111.092109 33.410061 L 111.814591 32.877111 Z M 112.607559 33.336831 " stroke="rgb(100%, 100%, 100%)" stroke-width="0.5" stroke-opacity="1" stroke-miterlimit="4"/><path stroke-linecap="butt" transform="matrix(2.881777, 0, 0, 2.880491, 0.576024, 9.657138)" fill-opacity="1" fill="rgb(17.248535%, 44.309998%, 94.119263%)" fill-rule="nonzero" stroke-linejoin="miter" d="M 40.814842 76.361987 L 40.84873 76.539637 L 41.504792 75.812764 L 42.414333 76.989864 L 42.715254 78.751445 L 42.040214 78.897904 L 41.901953 79.224726 L 42.103923 79.53663 L 41.789447 81.185654 L 41.374664 81.073097 L 41.191671 80.36521 L 40.610162 80.495396 L 40.488167 81.092083 L 39.985276 80.900872 L 39.928345 80.080428 L 39.285838 78.412419 L 39.548805 77.525526 L 39.359035 76.16942 L 39.653179 75.662237 Z M 40.814842 76.361987 " stroke="rgb(100%, 100%, 100%)" stroke-width="0.5" stroke-opacity="1" stroke-miterlimit="4"/><path stroke-linecap="butt" transform="matrix(2.881777, 0, 0, 2.880491, 0.576024, 9.657138)" fill-opacity="1" fill="rgb(17.248535%, 44.309998%, 94.119263%)" fill-rule="nonzero" stroke-linejoin="miter" d="M 89.09234 58.474957 L 89.709093 60.241962 L 88.566406 61.808264 L 87.679909 61.033928 L 87.412875 61.611629 L 86.09804 61.918108 L 85.650725 62.719567 L 84.6341 62.783304 L 84.733051 62.330365 L 83.902129 61.340408 L 83.000722 60.65693 L 82.466655 60.652862 L 82.325683 59.642564 L 81.002714 58.027442 L 81.666909 57.38736 L 81.928521 57.661294 L 82.87466 56.387911 L 84.853691 56.990021 L 85.695456 56.63879 L 87.894078 58.272897 L 88.406457 58.069481 Z M 89.09234 58.474957 " stroke="rgb(100%, 100%, 100%)" stroke-width="0.5" stroke-opacity="1" stroke-miterlimit="4"/><path stroke-linecap="butt" transform="matrix(2.881777, 0, 0, 2.880491, 0.576024, 9.657138)" fill-opacity="1" fill="rgb(17.248535%, 44.309998%, 94.119263%)" fill-rule="nonzero" stroke-linejoin="miter" d="M 64.942747 27.951736 L 65.808912 28.115825 L 67.160346 28.704375 L 67.580551 30.859226 L 68.101063 31.344712 L 67.633415 31.862744 L 67.10477 31.476254 L 65.978349 31.763749 L 66.242672 33.896902 L 64.229754 33.222918 L 64.252797 33.586354 L 63.537093 33.583642 L 64.323283 34.347129 L 63.385277 34.905845 L 62.898653 35.398111 L 62.895942 35.886309 L 62.153128 36.482995 L 60.409954 36.956276 L 59.45026 36.610469 L 58.302151 37.272249 L 58.237087 36.686411 L 57.225884 35.792738 L 56.043888 35.389974 L 54.794117 35.615088 L 54.163809 36.74608 L 54.582659 37.57466 L 54.935089 37.447186 L 55.047595 38.05879 L 56.221458 38.791087 L 56.533223 39.459647 L 55.947647 39.732224 L 55.149258 40.940514 L 54.715498 40.597419 L 54.279026 41.104603 L 54.16652 41.397521 L 54.771073 42.059301 L 53.685317 42.152872 L 53.265112 42.660056 L 51.745596 41.442273 L 51.618179 40.647595 L 50.33181 40.019718 L 50.486337 40.86186 L 50.203037 41.177832 L 49.507665 41.287677 L 49.175568 40.856435 L 48.623879 41.115452 L 48.420554 42.702095 L 47.767203 43.656793 L 47.942063 44.142279 L 47.165361 44.387734 L 46.760066 44.961366 L 44.997916 44.981708 L 44.940985 44.43791 L 44.27679 43.993107 L 44.69564 43.839867 L 44.705128 43.446597 L 43.016175 42.936701 L 43.565152 41.805709 L 42.869781 40.709976 L 43.233055 40.492999 L 42.928067 39.988528 L 43.294052 39.996665 L 43.260165 39.535589 L 43.792876 39.311831 L 43.144947 37.509567 L 43.753567 37.771296 L 44.417762 37.531265 L 43.660037 37.120365 L 44.282212 35.128246 L 43.275075 34.420359 L 43.654615 32.178717 L 43.435024 30.834816 L 44.676663 30.657167 L 45.282571 30.200159 L 46.017252 30.594786 L 46.650271 30.236774 L 47.696717 30.242198 L 52.806953 31.125023 L 56.598287 29.962841 L 57.639312 30.396794 L 58.700668 29.962841 L 61.167679 30.160832 L 62.948806 29.240036 L 63.354101 28.278558 Z M 64.942747 27.951736 " stroke="rgb(100%, 100%, 100%)" stroke-width="0.5" stroke-opacity="1" stroke-miterlimit="4"/><path stroke-linecap="butt" transform="matrix(2.881777, 0, 0, 2.880491, 0.576024, 9.657138)" fill-opacity="1" fill="rgb(17.248535%, 44.309998%, 94.119263%)" fill-rule="nonzero" stroke-linejoin="miter" d="M 104.389161 17.624994 L 105.38952 17.123235 L 107.243844 17.19104 L 108.555968 16.390938 L 110.140548 16.480441 L 110.403515 16.176673 L 111.018912 16.807262 L 111.612622 16.644529 L 112.705155 16.965926 L 113.110449 17.641267 L 113.020986 18.73022 L 113.335462 18.867186 L 113.039963 19.823241 L 112.206331 20.3806 L 111.036534 20.403654 L 110.117505 20.890495 L 109.729832 20.07412 L 108.866378 19.862568 L 107.905328 19.086875 L 104.989647 19.313345 L 104.432537 18.47934 Z M 104.389161 17.624994 " stroke="rgb(100%, 100%, 100%)" stroke-width="0.5" stroke-opacity="1" stroke-miterlimit="4"/><path stroke-linecap="butt" transform="matrix(2.881777, 0, 0, 2.880491, 0.576024, 9.657138)" fill-opacity="1" fill="rgb(17.248535%, 44.309998%, 94.119263%)" fill-rule="nonzero" stroke-linejoin="miter" d="M 23.052367 77.327534 L 22.11436 78.009655 L 22.027608 78.931807 L 21.162799 78.741952 L 20.874078 78.992832 L 20.231571 78.058475 L 20.944564 74.228833 L 21.648068 74.284434 L 21.596559 72.95545 L 21.898836 72.834757 L 22.092672 73.127676 L 22.869374 72.394023 L 23.389886 72.540482 L 23.355999 74.367156 L 24.178787 75.043853 L 24.074414 75.679866 L 24.448532 75.843955 L 24.513596 76.412163 L 23.922598 77.023767 L 23.224515 76.530144 Z M 23.052367 77.327534 " stroke="rgb(100%, 100%, 100%)" stroke-width="0.5" stroke-opacity="1" stroke-miterlimit="4"/><path stroke-linecap="butt" transform="matrix(2.881777, 0, 0, 2.880491, 0.576024, 9.657138)" fill-opacity="1" fill="rgb(17.248535%, 44.309998%, 94.119263%)" fill-rule="nonzero" stroke-linejoin="miter" d="M 84.875379 13.294949 L 85.363359 13.254266 L 85.954357 14.503239 L 86.65515 14.553415 L 87.172952 14.082846 L 88.420012 14.843621 L 88.579961 15.221975 L 88.048605 15.894603 L 88.357659 16.283805 L 88.913414 15.714241 L 89.462392 15.970545 L 89.74298 15.413186 L 89.855487 15.706104 L 90.748761 15.841715 L 91.105258 16.511631 L 90.801626 17.292748 L 91.690834 17.002541 L 92.569198 15.867481 L 93.847435 15.470142 L 94.273062 15.784759 L 95.251733 16.67572 L 94.748843 17.486671 L 94.137512 17.421578 L 93.959941 17.999279 L 92.341474 18.563419 L 92.398405 19.025851 L 93.467895 19.817816 L 93.40012 20.973218 L 93.79457 21.375981 L 92.647817 21.789593 L 92.741347 22.448661 L 92.245234 22.707677 L 92.310298 23.415564 L 91.698967 23.750522 L 91.347892 24.599444 L 90.655232 24.621141 L 90.069656 24.15871 L 88.453899 24.432643 L 88.552851 24.88965 L 89.60743 25.438873 L 89.413594 25.977247 L 89.02592 26.160321 L 87.593157 25.125613 L 87.446763 26.441035 L 86.686327 27.182825 L 86.458603 28.092771 L 85.703589 28.053444 L 85.128857 28.774892 L 84.884867 28.267709 L 84.396887 28.510452 L 84.67612 29.941143 L 84.276247 30.247623 L 83.983459 30.045563 L 82.966834 30.958222 L 82.247064 30.594786 L 81.059645 31.73527 L 81.570669 32.29941 L 80.803456 32.639793 L 80.110795 31.302673 L 80.009133 29.839435 L 79.25683 29.744508 L 79.56724 28.858971 L 80.001 28.650131 L 79.496754 28.134811 L 77.946061 28.075142 L 77.131406 27.601861 L 74.92194 27.850028 L 73.627437 26.954999 L 73.382092 27.242493 L 72.056413 27.005175 L 71.386795 27.241137 L 70.997767 26.652587 L 70.775465 26.780061 L 70.493521 25.931139 L 68.137661 23.880708 L 68.284055 23.229777 L 69.306102 22.493412 L 69.685643 21.144087 L 69.24646 20.683011 L 68.51449 20.665382 L 67.859784 19.679493 L 69.112266 19.737806 L 69.914722 18.986523 L 70.921859 19.640166 L 71.451859 19.191295 L 72.030658 19.447599 L 72.684009 19.135695 L 75.22015 19.813748 L 75.522427 19.250964 L 76.571584 18.642073 L 78.610256 18.476628 L 78.950487 18.788532 L 79.986089 18.147094 L 80.594709 18.772259 L 80.628596 18.37492 L 81.089466 18.191846 L 81.951565 14.562908 L 83.235223 14.046231 L 84.433486 12.900322 Z M 84.875379 13.294949 " stroke="rgb(100%, 100%, 100%)" stroke-width="0.5" stroke-opacity="1" stroke-miterlimit="4"/><path stroke-linecap="butt" transform="matrix(2.881777, 0, 0, 2.880491, 0.576024, 9.657138)" fill-opacity="1" fill="rgb(17.248535%, 44.309998%, 94.119263%)" fill-rule="nonzero" stroke-linejoin="miter" d="M 129.460494 23.98784 L 130.653334 21.530577 L 131.431391 21.82892 L 132.449372 21.687885 L 132.835689 20.715558 L 132.365331 20.205662 L 132.465638 19.813748 L 133.341291 19.716108 L 134.032596 20.211087 L 135.011267 20.082257 L 135.354209 20.984067 L 135.07362 21.702803 L 135.500603 21.747554 L 135.549401 22.100141 L 136.683955 22.054034 L 137.22751 24.356701 L 137.058073 24.846255 L 136.48063 24.895075 L 136.326102 25.407683 L 135.515513 24.990002 L 135.481626 26.503416 L 136.046869 26.61326 L 135.755437 27.289957 L 135.295922 27.433704 L 134.745589 26.568509 L 132.827556 26.725817 L 132.286712 25.988096 L 131.382593 25.818583 L 131.183334 25.289701 L 129.766837 24.655044 L 129.97965 24.207529 Z M 129.460494 23.98784 " stroke="rgb(100%, 100%, 100%)" stroke-width="0.5" stroke-opacity="1" stroke-miterlimit="4"/><path stroke-linecap="butt" transform="matrix(2.881777, 0, 0, 2.880491, 0.576024, 9.657138)" fill-opacity="1" fill="rgb(17.248535%, 44.309998%, 94.119263%)" fill-rule="nonzero" stroke-linejoin="miter" d="M 53.988949 86.119166 L 54.250561 86.393099 L 54.619257 87.426451 L 54.417287 87.747848 L 53.415573 87.595964 L 52.604984 88.790693 L 52.32304 90.024749 L 51.050225 90.461415 L 50.270812 89.497224 L 49.313829 88.942577 L 49.449379 88.255032 L 49.010197 87.117259 L 50.001068 87.086069 L 49.828919 86.502943 L 50.64493 85.933379 L 51.630379 86.195107 L 53.43455 85.319063 Z M 53.988949 86.119166 " stroke="rgb(100%, 100%, 100%)" stroke-width="0.5" stroke-opacity="1" stroke-miterlimit="4"/><path stroke-linecap="butt" transform="matrix(2.881777, 0, 0, 2.880491, 0.576024, 9.657138)" fill-opacity="1" fill="rgb(17.248535%, 44.309998%, 94.119263%)" fill-rule="nonzero" stroke-linejoin="miter" d="M 67.337916 19.862568 L 67.859784 19.679493 L 68.513135 20.665382 L 69.24646 20.684367 L 69.685643 21.144087 L 69.308813 22.493412 L 68.284055 23.229777 L 68.137661 23.877996 L 70.492165 25.928427 L 70.772754 26.780061 L 70.997767 26.649875 L 71.386795 27.238425 L 72.056413 27.002463 L 73.382092 27.241137 L 73.627437 26.953643 L 74.92194 27.847316 L 77.132761 27.599149 L 77.948772 28.07243 L 79.499465 28.132098 L 80.001 28.647418 L 79.569951 28.856259 L 79.259541 29.743152 L 80.011844 29.836723 L 80.113506 31.302673 L 80.806167 32.639793 L 81.572024 32.29941 L 81.059645 31.732558 L 82.249775 30.592074 L 82.965479 30.95551 L 83.789623 31.771885 L 83.42906 32.643861 L 84.105454 33.975557 L 84.555481 34.10303 L 85.206121 36.12634 L 84.867246 37.562455 L 86.069574 38.628354 L 86.874742 37.98556 L 88.132646 38.087268 L 87.145842 39.559999 L 88.346815 40.578434 L 89.067941 41.713494 L 92.822677 44.513852 L 93.507204 46.051675 L 92.792856 47.815968 L 94.137512 48.291961 L 95.072807 49.337519 L 95.452347 50.270519 L 94.579405 51.321501 L 94.21342 52.197545 L 94.362525 52.866105 L 95.182603 55.083337 L 95.711248 55.373544 L 95.29782 56.288915 L 94.700045 55.897 L 93.026002 56.56556 L 92.688482 57.829451 L 90.150986 56.669981 L 89.088273 58.480381 L 88.403746 58.074906 L 87.888656 58.278322 L 85.690034 56.644215 L 84.636811 55.452198 L 83.316553 52.341292 L 82.73911 52.876954 L 81.41072 52.383331 L 80.712637 54.673793 L 79.56724 54.338835 L 78.092455 55.407446 L 77.416061 56.669981 L 76.445522 55.290821 L 77.661406 53.308195 L 75.82877 51.817835 L 74.93414 52.333155 L 74.404139 53.55365 L 74.192681 53.226829 L 73.326516 53.192926 L 71.088585 55.361339 L 70.02994 54.673793 L 68.461626 54.31985 L 68.903519 55.071132 L 68.715104 55.553906 L 67.135947 53.967262 L 66.519194 51.305228 L 67.603594 47.078247 L 66.673721 46.889748 L 66.6317 46.122193 L 66.178963 46.01506 L 66.241316 45.452277 L 63.774306 42.584114 L 64.511698 41.721631 L 64.424946 40.678786 L 63.645533 39.501686 L 63.06809 39.492193 L 62.299522 38.098117 L 62.15855 36.487064 L 62.901364 35.891733 L 62.902719 35.402179 L 63.392055 34.911269 L 64.328705 34.351198 L 63.543871 33.58771 L 64.256864 33.590423 L 64.23382 33.226986 L 66.249449 33.902327 L 65.985127 31.769173 L 67.110192 31.481679 L 67.637482 31.868169 L 68.10784 31.350136 L 67.588684 30.864651 L 67.167123 28.709799 L 65.815689 28.12125 L 66.021725 27.813414 L 65.34262 26.965848 L 63.932899 26.267453 L 63.850214 24.561473 L 64.294818 23.384373 L 63.831237 22.64394 L 64.189089 22.163878 L 64.866839 22.254738 L 65.211136 21.949614 L 65.556789 20.071408 L 66.775383 19.972412 L 66.885179 19.630674 Z M 71.245823 36.153462 L 71.332575 35.460492 L 70.500298 35.35336 L 70.097715 35.559488 L 70.305106 36.173803 L 67.831318 36.699972 L 68.090219 37.424133 L 67.752699 37.695354 L 67.983134 37.692641 L 67.766254 38.427651 L 68.143083 38.551056 L 67.935692 38.966024 L 68.21628 39.238602 L 67.988556 39.498974 L 68.631063 39.81359 L 69.081089 40.552668 L 68.801856 40.903899 L 68.940117 41.58602 L 68.492802 42.003701 L 68.500935 43.546949 L 69.987919 42.995014 L 70.252242 43.300137 L 71.465414 42.53665 L 71.972372 43.161815 L 71.808356 43.434392 L 72.808715 44.448759 L 73.750788 44.045995 L 74.37974 42.848554 L 75.784038 41.374468 L 76.147312 41.447697 L 76.628515 40.718113 L 77.41335 40.48215 L 76.945702 39.462359 L 77.047365 38.67853 L 75.750151 38.918561 L 75.308258 37.923179 L 74.728104 38.081844 L 74.466492 37.80791 L 74.046287 37.836389 L 73.334649 37.151555 L 73.640992 36.973906 L 72.960531 36.520966 L 73.165212 36.263306 L 72.087589 35.362852 L 71.775824 35.370989 Z M 71.245823 36.153462 " stroke="rgb(100%, 100%, 100%)" stroke-width="0.5" stroke-opacity="1" stroke-miterlimit="4"/><path stroke-linecap="butt" transform="matrix(2.881777, 0, 0, 2.880491, 0.576024, 9.657138)" fill-opacity="1" fill="rgb(17.248535%, 44.309998%, 94.119263%)" fill-rule="nonzero" stroke-linejoin="miter" d="M 32.192505 65.122586 L 33.839438 65.042575 L 42.362824 60.732872 L 43.199167 60.788473 L 43.771188 60.262304 L 43.758989 59.382191 L 47.323955 57.734523 L 49.701502 57.962349 L 50.430761 58.917047 L 50.929585 60.403339 L 50.327743 60.915947 L 50.806235 61.086816 L 50.555467 61.21429 L 50.785902 62.192042 L 50.50938 62.746689 L 50.845544 64.169243 L 49.834341 64.542172 L 49.938715 65.395163 L 48.54526 65.807419 L 48.922089 66.702448 L 49.269097 66.798732 L 47.590988 69.546201 L 47.931219 70.477846 L 47.604543 71.493569 L 47.097586 71.825815 L 46.785821 71.656301 L 46.605539 73.671474 L 47.47306 76.286045 L 45.99692 77.091572 L 46.2138 77.666561 L 47.104364 77.3533 L 47.407996 78.286301 L 47.799735 78.19951 L 47.93393 79.497303 L 47.140962 80.602529 L 44.725461 80.33402 L 44.15615 81.966771 L 44.246969 82.907908 L 43.956892 83.160144 L 42.997198 83.08827 L 42.219141 83.632068 L 41.031722 83.042162 L 40.440724 83.915494 L 39.970366 83.758186 L 39.64369 82.83061 L 39.185531 83.177773 L 39.424099 83.671395 L 38.518625 85.366527 L 38.47796 86.984361 L 37.991335 87.243377 L 38.346476 87.632579 L 38.208215 88.592702 L 37.154991 89.207018 L 37.752767 90.997077 L 37.042485 91.201849 L 37.507422 92.867146 L 37.884251 92.907829 L 37.850363 92.330128 L 38.038778 92.749165 L 38.780236 92.774931 L 38.770748 93.256348 L 39.590825 94.166295 L 39.624713 94.879607 L 39.457986 95.332546 L 38.890032 95.229482 L 38.702973 95.510196 L 38.490159 95.026066 L 38.106553 95.752938 L 37.690414 95.888549 L 36.978776 93.991357 L 35.663941 92.861722 L 34.754401 92.949869 L 32.563912 92.408782 L 32.367365 93.193967 L 31.959359 92.769507 L 31.415803 92.997332 L 31.331762 92.498285 L 30.430355 92.670511 L 30.419511 92.038566 L 30.595726 92.307075 L 31.441558 92.084673 L 30.759741 92.025005 L 30.765163 91.732086 L 31.089128 91.723949 L 31.049818 91.092004 L 30.624191 91.604612 L 30.06437 90.887232 L 30.157899 91.679198 L 29.63332 91.825657 L 29.909843 91.092004 L 29.318844 91.284571 L 29.531658 90.649914 L 28.958281 90.683816 L 28.403882 90.257999 L 29.256491 89.687079 L 28.318485 89.720982 L 28.693959 88.804254 L 27.772219 88.686273 L 28.254777 88.568292 L 27.863037 88.051616 L 27.102601 88.097723 L 27.784418 87.36407 L 27.258484 87.370851 L 27.327615 86.860955 L 26.50347 87.077932 L 26.615977 85.629612 L 26.072421 85.342117 L 26.098176 84.975969 L 25.290298 85.008515 L 24.744031 84.358941 L 24.291294 84.42539 L 22.565742 83.242866 L 21.732109 83.115392 L 21.648068 82.49294 L 21.183132 82.57973 L 19.591774 81.368728 L 19.335585 79.653255 L 19.986225 80.157726 L 20.772415 79.999062 L 20.895766 80.866969 L 21.959833 80.030252 L 22.88564 80.241805 L 23.69894 78.858577 L 23.0605 77.358725 L 23.232648 76.561335 L 23.930731 77.054957 L 24.521729 76.446066 L 25.301142 76.936976 L 25.611551 76.832556 L 25.64815 76.163996 L 26.714928 76.088054 L 26.785414 74.220697 L 27.623114 73.329735 L 27.559405 68.043637 L 28.383549 67.2693 L 28.662782 65.71656 L 30.898002 65.818268 Z M 39.880903 80.735427 L 40.488167 81.089371 L 40.610162 80.492684 L 41.191671 80.36521 L 41.374664 81.073097 L 41.789447 81.185654 L 42.103923 79.53663 L 41.901953 79.224726 L 42.040214 78.897904 L 42.715254 78.751445 L 42.414333 76.989864 L 41.504792 75.812764 L 40.84873 76.539637 L 39.719598 75.62291 L 39.361746 76.168064 L 39.551516 77.525526 L 39.288549 78.412419 L 39.928345 80.080428 Z M 39.880903 80.735427 " stroke="rgb(100%, 100%, 100%)" stroke-width="0.5" stroke-opacity="1" stroke-miterlimit="4"/><path stroke-linecap="butt" transform="matrix(2.881777, 0, 0, 2.880491, 0.576024, 9.657138)" fill-opacity="1" fill="rgb(17.248535%, 44.309998%, 94.119263%)" fill-rule="nonzero" stroke-linejoin="miter" d="M 13.345629 30.265252 L 15.710977 31.09112 L 16.343996 32.786252 L 15.484609 34.275256 L 14.953253 34.001323 L 13.256166 34.311871 L 12.160922 34.894996 L 10.879974 34.12744 L 10.226623 34.328144 L 10.091073 33.980981 L 8.712529 33.446675 L 9.182888 33.167318 L 9.283195 32.350942 L 9.922991 32.905589 L 10.463836 32.161088 L 11.49266 31.846471 L 11.659387 30.451039 Z M 13.345629 30.265252 " stroke="rgb(100%, 100%, 100%)" stroke-width="0.5" stroke-opacity="1" stroke-miterlimit="4"/><path fill="rgb(17.248535%, 44.309998%, 94.119263%)" d="M 420.921875 30.429688 L 422.820312 30.535156 L 421.175781 32.902344 L 422.992188 35.605469 L 426.558594 36.53125 L 426.066406 39.121094 L 430.703125 48.179688 L 432.054688 46.710938 L 434.226562 46.507812 L 436 47.539062 L 438.175781 46.34375 L 440.953125 50.898438 L 443.601562 52.15625 L 443.132812 54.113281 L 445.4375 57.578125 L 444.78125 57.828125 L 444.992188 61.171875 L 450.4375 62.867188 L 454.929688 59.996094 L 456.347656 60.027344 L 457.128906 61.109375 L 457.453125 59.816406 L 459.390625 59.769531 L 459.722656 61.359375 L 461.03125 60.34375 L 461.839844 63.972656 L 463.457031 64.898438 L 463.917969 67.082031 L 464.808594 66.8125 L 463.738281 71.066406 L 461.753906 73.289062 L 465.34375 75.359375 L 465.765625 77.0625 L 462.109375 81.542969 L 458.585938 83.296875 L 456.210938 83.167969 L 457.453125 88.175781 L 453.144531 88.921875 L 450.988281 93.675781 L 446.226562 95.277344 L 442.097656 95.226562 L 437.511719 91.371094 L 435.238281 92.070312 L 433.988281 98.367188 L 428.910156 97.523438 L 426.300781 95.753906 L 426.273438 98.167969 L 422.714844 99.425781 L 422.300781 102.621094 L 420.230469 103.457031 L 416.605469 113.253906 L 413.523438 112.855469 L 411.722656 106.648438 L 409.769531 105.4375 L 406.089844 110.445312 L 404.878906 108.140625 L 405.394531 106.167969 L 403.433594 104.992188 L 403.78125 102.234375 L 399.617188 99.320312 L 397.144531 100.03125 L 396.917969 102.664062 L 393.316406 105.867188 L 388.910156 103.710938 L 389.242188 102.085938 L 385.652344 101.851562 L 384.742188 99.382812 L 380.144531 99.699219 L 377.585938 95.195312 L 373.644531 93.3125 L 375.167969 83.566406 L 374.535156 80.675781 L 378.617188 82.503906 L 379.191406 84.027344 L 381.796875 84.515625 L 383.355469 86.640625 L 388.878906 86.1875 L 390.46875 88.679688 L 391.792969 88.265625 L 392.628906 86.316406 L 391.003906 86 L 391.101562 81.640625 L 393.4375 82.84375 L 393.882812 81.367188 L 395.546875 81.226562 L 396.035156 79.816406 L 394.46875 73.183594 L 391.199219 73.316406 L 391.058594 72.300781 L 389.828125 72.171875 L 390.636719 70.101562 L 389.648438 67.503906 L 386.828125 67.875 L 384.832031 66.449219 L 382.3125 66.730469 L 382.023438 67.859375 L 383.378906 69.328125 L 382.265625 72.128906 L 379.332031 72.535156 L 377.089844 71.675781 L 373.652344 78.753906 L 371.941406 78.09375 L 370.511719 79.863281 L 358.554688 80.351562 L 355.226562 81.964844 L 354.425781 79.726562 L 349.980469 76.503906 L 345.03125 76.105469 L 342.101562 71.675781 L 345.746094 67.429688 L 348.023438 67.714844 L 348.300781 69.546875 L 351.640625 69.890625 L 351.972656 68.242188 L 354.027344 66.632812 L 354.824219 68.304688 L 356.867188 68.242188 L 356.949219 69.191406 L 359.601562 69.988281 L 360.785156 68.816406 L 364.421875 68.808594 L 364.824219 66.863281 L 366.421875 67.375 L 366.488281 65.492188 L 368.167969 64.867188 L 366.457031 64.320312 L 366.171875 63.234375 L 367.355469 62.976562 L 364.90625 59.800781 L 366.839844 54.109375 L 368.734375 55.304688 L 369.359375 53.910156 L 372.152344 54.378906 L 371.882812 53.382812 L 376.035156 51.003906 L 378.40625 52.398438 L 382.039062 52.820312 L 385.828125 52.886719 L 386.078125 51.699219 L 387.929688 51.539062 L 387.871094 52.855469 L 389.265625 51.109375 L 390.144531 51.585938 L 391.304688 50.425781 L 392.089844 47.835938 L 392.910156 48.65625 L 393.210938 47.625 L 393.980469 49.492188 L 394.664062 47.886719 L 397.707031 47.285156 L 399.289062 47.941406 L 400.601562 45.507812 L 401.101562 46.011719 L 402.792969 44.03125 L 403.519531 44.332031 L 403.628906 42.59375 L 405.640625 40.761719 L 406.496094 40.648438 L 405.710938 42.097656 L 407.230469 42.074219 L 407.164062 41.175781 L 408.527344 42.707031 L 409.046875 41.976562 L 408.226562 41.085938 L 409.402344 41.789062 L 409.363281 40.742188 L 411.035156 40.945312 L 410.386719 39.210938 L 413.238281 36.5 L 411.980469 35.671875 L 413.3125 35.628906 L 412.949219 33.746094 L 414.171875 33.480469 L 413.808594 32.449219 L 415.21875 31.847656 L 415.496094 30.4375 L 418.707031 28.878906 Z M 420.921875 30.429688 " fill-opacity="1" fill-rule="nonzero"/><g clip-path="url(#id4)"><path stroke-linecap="butt" transform="matrix(2.881777, 0, 0, 2.880491, 0.576024, 9.657138)" fill="none" stroke-linejoin="miter" d="M 145.863402 7.21146 L 146.522176 7.248075 L 145.95151 8.069875 L 146.581818 9.0083 L 147.819389 9.329697 L 147.648596 10.228795 L 149.257575 13.373603 L 149.726578 12.863708 L 150.480236 12.79319 L 151.095633 13.151202 L 151.850647 12.736234 L 152.814408 14.317453 L 153.733437 14.754118 L 153.570777 15.433527 L 154.370522 16.636393 L 154.142798 16.723184 L 154.215995 17.88401 L 156.105562 18.47256 L 157.664388 17.475822 L 158.156434 17.486671 L 158.427534 17.862312 L 158.540041 17.413441 L 159.212369 17.397168 L 159.327587 17.949103 L 159.781679 17.596515 L 160.062268 18.856337 L 160.623445 19.177734 L 160.783394 19.935797 L 161.092448 19.842226 L 160.721041 21.319025 L 160.032447 22.090649 L 161.278152 22.809385 L 161.424546 23.400647 L 160.155797 24.956099 L 158.933136 25.564991 L 158.108992 25.520239 L 158.540041 27.258766 L 157.044924 27.517783 L 156.296688 29.168163 L 154.644333 29.724166 L 153.211569 29.706537 L 151.620212 28.368061 L 150.831311 28.610804 L 150.397551 30.796845 L 148.6354 30.503927 L 147.729926 29.889611 L 147.720438 30.727684 L 146.485577 31.16435 L 146.341894 32.273644 L 145.623479 32.563851 L 144.365575 35.964963 L 143.296085 35.82664 L 142.671199 33.671789 L 141.993449 33.251396 L 140.716568 34.989923 L 140.296363 34.189821 L 140.475289 33.504988 L 139.794828 33.0968 L 139.915467 32.13939 L 138.470504 31.127735 L 137.612472 31.374546 L 137.533853 32.288561 L 136.284082 33.400568 L 134.755078 32.651998 L 134.870295 32.087858 L 133.62459 32.006491 L 133.308759 31.149433 L 131.713335 31.259277 L 130.825482 29.695688 L 129.457783 29.042045 L 129.986428 25.658562 L 129.766837 24.655044 L 131.183334 25.289701 L 131.382593 25.818583 L 132.286712 25.988096 L 132.827556 26.725817 L 134.744234 26.568509 L 135.295922 27.433704 L 135.755437 27.289957 L 136.045514 26.61326 L 135.481626 26.503416 L 135.515513 24.990002 L 136.326102 25.407683 L 136.48063 24.895075 L 137.058073 24.846255 L 137.22751 24.356701 L 136.683955 22.054034 L 135.549401 22.100141 L 135.500603 21.747554 L 135.07362 21.702803 L 135.354209 20.984067 L 135.011267 20.082257 L 134.032596 20.211087 L 133.339935 19.716108 L 132.465638 19.813748 L 132.365331 20.205662 L 132.835689 20.715558 L 132.449372 21.687885 L 131.431391 21.82892 L 130.653334 21.530577 L 129.460494 23.98784 L 128.866784 23.758658 L 128.370671 24.372974 L 124.221485 24.542487 L 123.066599 25.102559 L 122.788721 24.32551 L 121.246162 23.206724 L 119.528743 23.068401 L 118.512118 21.530577 L 119.7768 20.056491 L 120.567056 20.155486 L 120.663297 20.7915 L 121.82225 20.910837 L 121.937467 20.338561 L 122.65046 19.779845 L 122.926982 20.360258 L 123.635909 20.338561 L 123.664374 20.668094 L 124.584759 20.94474 L 124.995476 20.537908 L 126.257446 20.535196 L 126.397063 19.859855 L 126.951463 20.037505 L 126.974506 19.383862 L 127.557371 19.166885 L 126.963662 18.977031 L 126.864711 18.600033 L 127.275427 18.51053 L 126.425528 17.408017 L 127.096501 15.432171 L 127.753919 15.847139 L 127.970799 15.36301 L 128.939981 15.525742 L 128.846452 15.179936 L 130.287349 14.354067 L 131.110137 14.838197 L 132.370753 14.984656 L 133.685588 15.00771 L 133.77234 14.595454 L 134.414847 14.539854 L 134.394515 14.996861 L 134.878428 14.390682 L 135.183416 14.556127 L 135.585999 14.153364 L 135.858455 13.254266 L 136.14311 13.539048 L 136.247483 13.181036 L 136.514517 13.829255 L 136.75173 13.271895 L 137.807664 13.063055 L 138.356642 13.290881 L 138.81209 12.446027 L 138.985594 12.620965 L 139.572526 11.933419 L 139.824649 12.037839 L 139.862603 11.434372 L 140.560685 10.798359 L 140.85754 10.759032 L 140.585084 11.262147 L 141.112374 11.25401 L 141.08933 10.942106 L 141.5624 11.4737 L 141.742682 11.220108 L 141.458027 10.910916 L 141.866032 11.155015 L 141.852477 10.791578 L 142.432631 10.862096 L 142.207618 10.259985 L 143.197133 9.318848 L 142.760662 9.031354 L 143.222888 9.016437 L 143.096826 8.362794 L 143.521098 8.270579 L 143.395036 7.912567 L 143.884372 7.703726 L 143.980613 7.214172 L 145.094834 6.673086 Z M 145.863402 7.21146 " stroke="rgb(100%, 100%, 100%)" stroke-width="0.5" stroke-opacity="1" stroke-miterlimit="4"/></g><path stroke-linecap="butt" transform="matrix(2.881777, 0, 0, 2.880491, 0.576024, 9.657138)" fill-opacity="1" fill="rgb(17.248535%, 44.309998%, 94.119263%)" fill-rule="nonzero" stroke-linejoin="miter" d="M 97.199587 77.105133 L 98.891251 79.765812 L 100.231841 80.114331 L 100.104424 80.675758 L 100.135601 82.895703 L 98.014243 82.77501 L 98.275854 84.132471 L 99.67202 84.098569 L 99.333145 86.401236 L 98.964448 86.587022 L 98.930561 86.299528 L 98.635062 86.485314 L 97.236186 83.552058 L 96.307668 83.943973 L 95.798 83.789376 L 95.262577 84.832222 L 94.610582 85.76929 L 93.970785 85.727251 L 93.65902 84.9163 L 94.68649 84.419966 L 94.289328 83.251003 L 94.851861 82.318002 L 93.284902 81.802682 L 92.43907 81.109712 L 93.622422 80.011267 L 94.80984 80.447933 L 94.937257 78.934519 L 97.028794 79.48103 L 97.284984 78.798909 L 96.658742 78.333764 L 96.628921 77.324822 Z M 97.199587 77.105133 " stroke="rgb(100%, 100%, 100%)" stroke-width="0.5" stroke-opacity="1" stroke-miterlimit="4"/><path stroke-linecap="butt" transform="matrix(2.881777, 0, 0, 2.880491, 0.576024, 9.657138)" fill-opacity="1" fill="rgb(17.248535%, 44.309998%, 94.119263%)" fill-rule="nonzero" stroke-linejoin="miter" d="M 56.396318 47.255897 L 56.595576 47.616621 L 57.374989 47.565089 L 58.093404 48.374684 L 57.685399 48.94018 L 58.182867 49.856907 L 57.894146 50.597341 L 58.388903 50.568862 L 58.872817 51.716127 L 57.654222 52.071427 L 56.762303 53.146819 L 56.480359 52.783382 L 55.081483 53.321756 L 55.000153 51.797494 L 54.560971 51.566956 L 53.507747 49.692818 L 55.469156 47.62747 L 55.581662 46.942636 L 56.052021 46.702606 Z M 56.396318 47.255897 " stroke="rgb(100%, 100%, 100%)" stroke-width="0.5" stroke-opacity="1" stroke-miterlimit="4"/><path stroke-linecap="butt" transform="matrix(2.881777, 0, 0, 2.880491, 0.576024, 9.657138)" fill-opacity="1" fill="rgb(17.248535%, 44.309998%, 94.119263%)" fill-rule="nonzero" stroke-linejoin="miter" d="M 95.074163 49.334806 L 96.513704 47.821393 L 98.007465 48.774735 L 98.523911 48.754393 L 98.979359 49.384982 L 98.60253 49.69553 L 99.327723 49.606027 L 98.668949 51.279462 L 99.426674 51.661883 L 99.803503 52.746768 L 98.843809 53.674344 L 98.092862 53.666207 L 97.253807 52.856612 L 96.088077 52.777958 L 95.71667 52.372483 L 95.883396 52.158218 L 94.582116 51.321501 L 95.455058 50.270519 Z M 95.074163 49.334806 " stroke="rgb(100%, 100%, 100%)" stroke-width="0.5" stroke-opacity="1" stroke-miterlimit="4"/><path stroke-linecap="butt" transform="matrix(2.881777, 0, 0, 2.880491, 0.576024, 9.657138)" fill-opacity="1" fill="rgb(17.248535%, 44.309998%, 94.119263%)" fill-rule="nonzero" stroke-linejoin="miter" d="M 12.746498 47.677646 L 12.693634 47.371166 L 13.455425 47.3454 L 14.286346 47.878349 L 14.8909 47.486435 L 15.178266 48.325864 L 14.571001 48.881867 L 14.874634 49.420241 L 14.858368 51.169617 L 13.967804 50.689556 L 13.101639 51.642898 L 12.213786 50.97705 L 11.671586 48.477748 L 10.863708 47.71426 L 11.358466 47.528474 L 11.778671 47.858008 Z M 12.746498 47.677646 " stroke="rgb(100%, 100%, 100%)" stroke-width="0.5" stroke-opacity="1" stroke-miterlimit="4"/><path stroke-linecap="butt" transform="matrix(2.881777, 0, 0, 2.880491, 0.576024, 9.657138)" fill-opacity="1" fill="rgb(17.248535%, 44.309998%, 94.119263%)" fill-rule="nonzero" stroke-linejoin="miter" d="M 56.533223 39.459647 L 56.221458 38.791087 L 55.047595 38.05879 L 54.935089 37.447186 L 54.582659 37.57466 L 54.163809 36.74608 L 54.794117 35.615088 L 56.043888 35.389974 L 57.225884 35.792738 L 58.237087 36.686411 L 58.302151 37.272249 L 57.341102 37.449899 L 57.507828 38.21881 L 57.088979 38.297464 L 57.395322 38.780238 Z M 56.533223 39.459647 " stroke="rgb(100%, 100%, 100%)" stroke-width="0.5" stroke-opacity="1" stroke-miterlimit="4"/><path stroke-linecap="butt" transform="matrix(2.881777, 0, 0, 2.880491, 0.576024, 9.657138)" fill-opacity="1" fill="rgb(17.248535%, 44.309998%, 94.119263%)" fill-rule="nonzero" stroke-linejoin="miter" d="M 50.850966 64.161107 L 51.771351 63.972608 L 53.111941 62.780592 L 53.324754 63.724441 L 54.510817 64.173312 L 54.879513 63.724441 L 55.447468 64.43504 L 55.493555 63.237599 L 55.850051 63.752919 L 55.949003 65.187679 L 56.887009 65.423641 L 57.970054 65.235142 L 57.826371 64.631675 L 58.997523 63.983457 L 59.42315 64.817462 L 60.388266 65.245991 L 60.723075 67.145895 L 61.282896 67.215056 L 63.14942 65.873868 L 62.820034 65.080546 L 63.527605 64.534036 L 64.641826 64.411986 L 64.667581 63.789534 L 66.234539 62.676171 L 66.561214 62.102539 L 66.189807 61.758088 L 67.682213 61.417706 L 67.724234 62.834836 L 68.8249 64.302142 L 69.55687 67.057748 L 68.706971 68.354185 L 66.722519 69.033594 L 66.178963 69.878447 L 66.944821 71.467803 L 67.009885 72.929684 L 67.63206 74.409195 L 67.622571 75.400508 L 66.772672 77.204129 L 67.088504 79.357624 L 67.642904 80.294693 L 67.384003 81.839297 L 66.29147 81.56672 L 66.511061 82.605496 L 65.277556 83.637493 L 65.582543 83.846333 L 66.451419 83.242866 L 66.395843 84.160949 L 65.93904 84.318258 L 65.415817 85.78692 L 65.34262 84.9163 L 64.728578 85.29601 L 64.70689 85.894052 L 65.653029 86.176122 L 65.446993 86.741618 L 65.123029 86.595159 L 65.146072 86.964019 L 63.598091 87.020976 L 62.273767 86.22901 L 62.088064 86.393099 L 60.309647 84.251808 L 59.80269 84.516249 L 59.232024 83.546634 L 59.413661 83.200827 L 58.409236 82.901127 L 58.634249 81.456875 L 58.495988 81.245323 L 58.239798 81.504339 L 57.857547 80.835779 L 57.178442 80.48726 L 57.212329 81.526037 L 56.87752 82.011522 L 54.61248 83.276769 L 54.406443 82.87943 L 55.349872 82.487515 L 55.808031 81.227693 L 55.661637 80.835779 L 54.741252 80.731359 L 55.015063 78.895192 L 54.158387 78.45039 L 54.037747 77.181075 L 53.297644 76.528788 L 52.18749 77.054957 L 51.225084 76.835268 L 50.242347 77.255661 L 50.611043 79.208452 L 49.426335 79.982789 L 49.01833 79.72106 L 48.560171 79.946174 L 48.58457 80.723222 L 48.965465 80.895448 L 48.790606 81.140903 L 48.283649 80.477767 L 47.68994 80.79374 L 47.140962 80.597104 L 47.93393 79.491878 L 47.799735 78.192729 L 47.407996 78.278164 L 47.104364 77.345164 L 46.212444 77.658424 L 45.995564 77.080723 L 47.470349 76.275196 L 46.602828 73.661981 L 46.785821 71.645453 L 47.096231 71.816322 L 47.604543 71.484076 L 47.931219 70.469709 L 47.590988 69.535353 L 49.271808 66.787883 L 48.9248 66.694312 L 48.547971 65.797926 L 49.941426 65.387026 L 49.837052 64.534036 Z M 50.850966 64.161107 " stroke="rgb(100%, 100%, 100%)" stroke-width="0.5" stroke-opacity="1" stroke-miterlimit="4"/><path fill="rgb(17.248535%, 44.309998%, 94.119263%)" d="M 40.78125 128.011719 L 42.9375 130.632812 L 45.414062 131.476562 L 50.078125 128.320312 L 50.488281 128.992188 L 51.542969 128.285156 L 51.964844 129.164062 L 54.570312 127.757812 L 56.933594 131.257812 L 58.773438 130.738281 L 61.027344 133.105469 L 62.488281 131.011719 L 68.484375 126.582031 L 69.621094 128.59375 L 68.273438 133.230469 L 73.417969 130.921875 L 74.738281 128.863281 L 76.71875 129.429688 L 77.40625 131.980469 L 79.003906 133.421875 L 77.667969 134.460938 L 79.378906 136.507812 L 84.878906 139.890625 L 80.183594 141.726562 L 79.6875 144.316406 L 78.527344 145.265625 L 79.371094 151.886719 L 78.210938 158.210938 L 79.539062 164.4375 L 77.683594 165.984375 L 74.683594 164.628906 L 70.007812 165.9375 L 69.855469 167.773438 L 69.894531 170.042969 L 68.679688 169.378906 L 67.679688 170.117188 L 67.453125 168.394531 L 65.101562 168.949219 L 66.042969 172.347656 L 63.574219 176.285156 L 59.761719 176.097656 L 58.011719 174.855469 L 54.726562 175.351562 L 54.410156 174.597656 L 51.8125 177.375 L 50.425781 177.648438 L 49.808594 179.890625 L 43.53125 178.726562 L 41.167969 180.390625 L 39.796875 179.882812 L 35.484375 186.746094 L 31.039062 189.035156 L 31.011719 191.957031 L 30.046875 192.84375 L 26.941406 194.804688 L 24.335938 193.558594 L 21.730469 194.402344 L 21.722656 195.480469 L 24.375 194.683594 L 24.546875 195.441406 L 22.007812 199.976562 L 21.140625 200.738281 L 18.535156 196.679688 L 19.265625 194.523438 L 18.050781 194.207031 L 18.347656 192.507812 L 20.027344 191.789062 L 20.507812 188.515625 L 16.898438 185.179688 L 13.042969 184.800781 L 7.550781 186.910156 L 4.679688 185.523438 L 9.078125 181.707031 L 10.300781 178.507812 L 11.988281 178.84375 L 14.113281 176.261719 L 15.542969 176.253906 L 16.757812 171.179688 L 17.417969 172.699219 L 20.101562 172.988281 L 20.660156 171.578125 L 22.226562 172.722656 L 24.914062 172.046875 L 26.179688 173.28125 L 27.289062 173.097656 L 27.433594 172.039062 L 29.835938 173.128906 L 31.71875 172.4375 L 28.628906 169.515625 L 27.363281 170.289062 L 26.753906 169.605469 L 26.972656 168.800781 L 32.292969 166.847656 L 29.058594 165.246094 L 28.335938 163.21875 L 30.914062 161.644531 L 31.011719 160.273438 L 32.910156 159.964844 L 32.019531 157.828125 L 27.800781 158.390625 L 28.402344 155.808594 L 27.75 153.835938 L 26.015625 154.144531 L 25.171875 152.105469 L 26.738281 150.898438 L 26.242188 147.457031 L 28.691406 147.367188 L 30.191406 144.609375 L 28.457031 139.136719 L 26.421875 137.398438 L 27.695312 136.972656 L 28.34375 134.453125 L 27.3125 131.882812 L 29.972656 131.996094 L 30.761719 133.707031 L 31.695312 131.75 L 35.9375 132.101562 L 36.925781 130.371094 Z M 34.523438 147.511719 L 33.308594 146.5625 L 31.886719 147.105469 L 34.210938 149.300781 L 35.78125 156.5 L 38.339844 158.421875 L 40.828125 155.671875 L 43.398438 157.058594 L 43.441406 152.027344 L 42.566406 150.46875 L 44.324219 148.867188 L 43.496094 146.449219 L 41.746094 147.578125 L 39.351562 146.042969 L 37.160156 146.125 L 37.308594 147.003906 Z M 34.523438 147.511719 " fill-opacity="1" fill-rule="nonzero"/><g clip-path="url(#id5)"><path stroke-linecap="butt" transform="matrix(2.881777, 0, 0, 2.880491, 0.576024, 9.657138)" fill="none" stroke-linejoin="miter" d="M 13.951538 41.088329 L 14.699774 41.998276 L 15.559161 42.291195 L 17.177628 41.195462 L 17.319956 41.428712 L 17.685941 41.183257 L 17.832335 41.488381 L 18.736454 41.000183 L 19.556531 42.215253 L 20.194972 42.034891 L 20.977096 42.856691 L 21.484053 42.129818 L 23.564746 40.591995 L 23.959196 41.290389 L 23.491549 42.900086 L 25.276743 42.098628 L 25.734902 41.38396 L 26.42214 41.580596 L 26.660708 42.466133 L 27.215108 42.966535 L 26.751527 43.327259 L 27.345236 44.037859 L 29.25378 45.212246 L 27.624469 45.849616 L 27.452321 46.748713 L 27.049737 47.078247 L 27.342525 49.376846 L 26.939941 51.57238 L 27.400812 53.734012 L 26.756949 54.27103 L 25.715925 53.800462 L 24.093391 54.254757 L 24.040526 54.892126 L 24.054081 55.680024 L 23.632521 55.449486 L 23.285513 55.70579 L 23.206894 55.107747 L 22.390883 55.300314 L 22.717558 56.480126 L 21.860882 57.84708 L 20.537914 57.781987 L 19.93065 57.350745 L 18.790674 57.522971 L 18.680878 57.261243 L 17.779471 58.225433 L 17.298268 58.320361 L 17.084099 59.098765 L 14.90581 58.694646 L 14.085732 59.272347 L 13.609952 59.096053 L 12.113479 61.47873 L 10.57092 62.273408 L 10.561432 63.287775 L 10.226623 63.595611 L 9.149 64.276376 L 8.244882 63.843778 L 7.340763 64.136697 L 7.338052 64.510982 L 8.258437 64.234337 L 8.318079 64.497421 L 7.437004 66.071859 L 7.136082 66.3363 L 6.231964 64.927306 L 6.485442 64.178736 L 6.063882 64.068892 L 6.1669 63.478986 L 6.749765 63.229462 L 6.916491 62.093046 L 5.664009 60.934932 L 4.32613 60.80339 L 2.420297 61.535687 L 1.424004 61.054269 L 2.950298 59.729354 L 3.374569 58.618704 L 3.960145 58.735329 L 4.697537 57.838943 L 5.193651 57.836231 L 5.615211 56.07465 L 5.844291 56.602175 L 6.775519 56.702527 L 6.969356 56.212973 L 7.512912 56.610312 L 8.445496 56.375706 L 8.884678 56.804235 L 9.26964 56.740498 L 9.319793 56.372993 L 10.153426 56.751347 L 10.806777 56.511316 L 9.734576 55.496949 L 9.295394 55.765458 L 9.083936 55.52814 L 9.159844 55.248782 L 11.006036 54.570729 L 9.883682 54.014726 L 9.632914 53.310907 L 10.527544 52.764397 L 10.561432 52.288404 L 11.220205 52.181272 L 10.911151 51.439482 L 9.44721 51.634761 L 9.655957 50.738375 L 9.429589 50.053542 L 8.827747 50.160675 L 8.534959 49.452788 L 9.078514 49.033751 L 8.906366 47.839022 L 9.756264 47.807832 L 10.276777 46.850421 L 9.674934 44.950518 L 8.968719 44.347051 L 9.410612 44.199235 L 9.635625 43.324547 L 9.277773 42.43223 L 10.200869 42.471557 L 10.47468 43.065531 L 10.798644 42.386122 L 12.270717 42.508172 L 12.613659 41.907417 Z M 11.780026 47.858008 L 11.358466 47.528474 L 10.865064 47.716973 L 11.671586 48.479104 L 12.216497 50.978406 L 13.10435 51.64561 L 13.967804 50.690912 L 14.859723 51.172329 L 14.874634 49.425665 L 14.571001 48.884579 L 15.180977 48.328576 L 14.893611 47.489147 L 14.286346 47.881061 L 13.455425 47.348112 L 12.694989 47.37659 L 12.746498 47.681714 Z M 11.780026 47.858008 " stroke="rgb(100%, 100%, 100%)" stroke-width="0.5" stroke-opacity="1" stroke-miterlimit="4"/></g><path stroke-linecap="butt" transform="matrix(2.881777, 0, 0, 2.880491, 0.576024, 9.657138)" fill-opacity="1" fill="rgb(17.248535%, 44.309998%, 94.119263%)" fill-rule="nonzero" stroke-linejoin="miter" d="M 26.416718 41.577883 L 26.911476 41.164271 L 27.497052 41.606362 L 27.711221 41.35277 L 28.566542 41.656538 L 30.916979 41.203598 L 31.402248 39.783756 L 32.212838 39.99124 L 32.688618 39.608818 L 34.960437 40.362813 L 35.708673 39.65357 L 36.563993 40.726249 L 36.939467 40.430618 L 37.426092 40.890338 L 38.213637 40.186519 L 38.875121 40.216354 L 38.923919 40.96628 L 39.539316 40.853723 L 39.463408 40.145836 L 40.114049 40.743879 L 41.094075 39.530164 L 41.442439 40.147192 L 41.930419 39.496262 L 42.875203 40.718113 L 43.570574 41.813846 L 43.021597 42.944838 L 44.71055 43.454733 L 44.699706 43.846648 L 44.278145 43.998532 L 44.942341 44.443334 L 45.000627 44.987132 L 46.762777 44.965435 L 46.949836 45.402101 L 47.455438 45.478043 L 47.021678 45.996075 L 47.253469 46.942636 L 47.672318 46.835504 L 48.419199 47.931237 L 49.617461 47.363029 L 50.028178 48.260771 L 51.177642 49.081215 L 50.895698 51.123509 L 51.418921 53.256663 L 50.69915 53.826228 L 51.447386 55.773595 L 52.064139 55.849537 L 51.444675 56.035323 L 49.702858 57.965061 L 47.326666 57.737236 L 43.760344 59.384904 L 43.773899 60.265016 L 43.201878 60.791185 L 42.365535 60.735585 L 33.842149 65.043931 L 32.195216 65.12801 L 30.788207 63.668841 L 29.959996 62.259847 L 30.307004 61.49636 L 29.80818 60.926795 L 29.878666 60.228401 L 28.979969 59.318454 L 28.341529 59.494748 L 27.669201 59.185556 L 28.234444 57.973198 L 27.598715 56.846274 L 27.151399 56.45436 L 26.630887 56.731005 L 25.894851 56.545219 L 24.037815 54.902975 L 24.09068 54.265606 L 25.714569 53.809954 L 26.754238 54.280523 L 27.398101 53.744861 L 26.93723 51.583229 L 27.339814 49.386338 L 27.047026 47.091808 L 27.44961 46.762274 L 27.621758 45.863177 L 29.25378 45.224451 L 27.345236 44.05142 L 26.754238 43.339464 L 27.217819 42.97874 L 26.663419 42.479694 Z M 42.974154 55.658326 L 43.833541 55.585096 L 44.255102 54.615481 L 45.243262 54.58429 L 45.569937 53.290566 L 45.434387 53.012564 L 45.656689 52.744055 L 44.54789 50.845508 L 43.627505 49.9776 L 43.08395 49.813512 L 42.255739 50.764141 L 41.470904 50.833303 L 42.419755 51.530341 L 42.549883 52.445712 L 41.583411 53.468216 L 42.926712 54.893482 Z M 42.974154 55.658326 " stroke="rgb(100%, 100%, 100%)" stroke-width="0.5" stroke-opacity="1" stroke-miterlimit="4"/><path stroke-linecap="butt" transform="matrix(2.881777, 0, 0, 2.880491, 0.576024, 9.657138)" fill-opacity="1" fill="rgb(17.248535%, 44.309998%, 94.119263%)" fill-rule="nonzero" stroke-linejoin="miter" d="M 44.246969 50.501057 L 45.52385 52.417234 L 45.428965 53.015276 L 45.565871 53.290566 L 45.186331 54.643959 L 44.252391 54.618193 L 43.832186 55.587808 L 43.131392 55.76817 L 42.922645 54.897551 L 41.575278 53.470928 L 42.543105 52.448424 L 42.414333 51.533053 L 41.465482 50.833303 L 42.253028 50.764141 L 43.078528 49.813512 L 43.622083 49.980313 Z M 44.246969 50.501057 " stroke="rgb(100%, 100%, 100%)" stroke-width="0.5" stroke-opacity="1" stroke-miterlimit="4"/><path stroke-linecap="butt" transform="matrix(2.881777, 0, 0, 2.880491, 0.576024, 9.657138)" fill-opacity="1" fill="rgb(17.248535%, 44.309998%, 94.119263%)" fill-rule="nonzero" stroke-linejoin="miter" d="M 24.032393 54.892126 L 25.889429 56.53437 L 26.629532 56.720156 L 27.148688 56.446223 L 27.596004 56.838138 L 28.231733 57.965061 L 27.66649 59.177419 L 28.338818 59.489324 L 28.977258 59.31303 L 29.875955 60.222977 L 29.805469 60.921371 L 30.304293 61.490935 L 29.957285 62.254423 L 30.785496 63.664772 L 32.192505 65.122586 L 30.885803 65.784365 L 28.651938 65.682657 L 28.375416 67.235398 L 27.552628 68.009734 L 27.614981 73.295833 L 26.778637 74.186794 L 26.708151 76.054151 L 25.641372 76.128737 L 25.604774 76.798653 L 25.293009 76.903073 L 24.513596 76.412163 L 24.448532 75.841243 L 24.077125 75.677154 L 24.181498 75.041141 L 23.35871 74.364444 L 23.395308 72.53777 L 22.874796 72.391311 L 22.098094 73.124964 L 21.904258 72.832045 L 21.601981 72.952738 L 21.65349 74.281721 L 20.949986 74.226121 L 20.239704 78.055763 L 20.8795 78.990119 L 21.168221 78.73924 L 22.03303 78.929095 L 22.119782 78.006943 L 23.057789 77.324822 L 23.696229 78.824675 L 22.882929 80.207902 L 21.957122 79.99635 L 20.893055 80.833067 L 20.769704 79.965159 L 19.986225 80.123824 L 19.335585 79.619352 L 19.149881 78.68364 L 18.815073 78.657874 L 18.45451 77.970328 L 18.213231 78.218495 L 17.473128 77.567565 L 16.66796 77.792678 L 16.025453 77.075299 L 15.696067 77.3533 L 14.5954 75.449328 L 14.252459 75.551036 L 14.409697 75.10759 L 13.463558 74.761783 L 12.807496 74.898749 L 12.35747 74.254599 L 11.054834 73.558917 L 11.274425 72.623205 L 10.955882 72.48217 L 10.801355 71.625111 L 10.131738 71.410846 L 9.23033 69.917774 L 8.667798 69.786232 L 7.82061 68.714909 L 7.977848 68.061266 L 8.610867 68.247052 L 8.848079 67.002148 L 7.552221 66.804156 L 7.437004 66.071859 L 8.315368 64.493353 L 8.255726 64.228912 L 7.335341 64.505558 L 7.338052 64.132629 L 8.244882 63.83971 L 9.149 64.273664 L 10.226623 63.592899 L 10.561432 63.285063 L 10.572276 62.270696 L 12.113479 61.476018 L 13.609952 59.094697 L 14.085732 59.269635 L 14.90581 58.691934 L 17.084099 59.096053 L 17.298268 58.317649 L 17.779471 58.224077 L 18.680878 57.25853 L 18.790674 57.520259 L 19.93065 57.348033 L 20.537914 57.779275 L 21.860882 57.844368 L 22.720269 56.477414 L 22.393594 55.297602 L 23.206894 55.107747 L 23.274669 55.703077 L 23.625743 55.446773 L 24.048659 55.677311 Z M 17.332156 60.349095 L 17.075966 61.543823 L 17.399931 61.847591 L 17.235915 62.84026 L 17.661542 63.483054 L 17.227782 64.176024 L 17.672386 64.759149 L 18.266095 64.338757 L 20.119064 64.195009 L 20.197683 62.468687 L 19.750368 61.747239 L 19.871008 61.355325 L 19.080751 60.943069 L 18.854382 60.385709 L 18.234919 60.317904 L 17.894688 60.492842 Z M 17.332156 60.349095 " stroke="rgb(100%, 100%, 100%)" stroke-width="0.5" stroke-opacity="1" stroke-miterlimit="4"/><path stroke-linecap="butt" transform="matrix(2.881777, 0, 0, 2.880491, 0.576024, 9.657138)" fill-opacity="1" fill="rgb(17.248535%, 44.309998%, 94.119263%)" fill-rule="nonzero" stroke-linejoin="miter" d="M 18.485686 60.427749 L 18.84896 60.382997 L 19.076684 60.940356 L 19.865586 61.352613 L 19.744946 61.744527 L 20.194972 62.467331 L 20.116353 64.192297 L 18.263384 64.336044 L 17.669675 64.756437 L 17.227782 64.173312 L 17.661542 63.481698 L 17.233204 62.837548 L 17.399931 61.844879 L 17.075966 61.541111 L 17.332156 60.349095 L 17.889266 60.490129 L 18.229497 60.315192 Z M 18.485686 60.427749 " stroke="rgb(100%, 100%, 100%)" stroke-width="0.5" stroke-opacity="1" stroke-miterlimit="4"/></svg>