<svg fill="none" height="56" viewBox="0 0 56 56" width="56" xmlns="http://www.w3.org/2000/svg"><path clip-rule="evenodd" d="m35.3529 24.6423v.4553c0 1.5935-.4705 3.0731-1.2941 4.5528-.8235 1.4797-2.1176 2.8455-3.5294 3.7561-1.647 1.0244-3.6471 1.5935-5.7647 1.5935s-4-.5691-5.7647-1.5935h.9412c1.7647 0 3.2941-.4553 4.5882-1.4797-.8235 0-1.5294-.2276-2.2353-.6829-.5882-.4553-1.0588-1.0244-1.2941-1.7073h.7059c.3529 0 .7059 0 .9412-.1138-.8236-.1139-1.5294-.5691-2.1177-1.2521-.5882-.6829-.8235-1.3658-.8235-2.1626v-.1138c.4706.2277 1.0588.4553 1.647.4553-.4705-.3415-.9411-.7968-1.1764-1.252-.353-.4553-.4706-1.0244-.4706-1.7074 0-.5691.2353-1.1382.5882-1.7073.9412 1.0244 2.1177 1.935 3.4118 2.5041 1.2941.6829 2.7059 1.0244 4.2353 1.0244 0-.2277-.1177-.5691-.1177-.7968 0-.5691.1177-1.1382.4706-1.7073s.8235-.9106 1.2941-1.252c.5883-.3415 1.1765-.4553 1.8824-.4553.5882 0 1.0588.1138 1.5294.3415.4706.2276.8235.4552 1.1765.7967.8235-.1138 1.647-.4553 2.3529-.7967-.2353.7967-.8235 1.4796-1.6471 1.9349.7059-.1138 1.4118-.2276 2.1177-.5691-.2353.7968-.8235 1.3659-1.6471 1.935z" fill="#2c71f0" fill-rule="evenodd"/><rect height="55" rx="27.5" stroke="#2c71f0" width="55" x=".5" y=".5"/></svg>