<svg width="40" height="40" viewBox="0 0 40 40" fill="none" xmlns="http://www.w3.org/2000/svg">
<rect width="40" height="40" rx="20" fill="#FFD4A4"/>
<path d="M19.1 27H20.85V25.75C21.6833 25.6 22.4 25.275 23 24.775C23.6 24.275 23.9 23.5333 23.9 22.55C23.9 21.85 23.7 21.2083 23.3 20.625C22.9 20.0417 22.1 19.5333 20.9 19.1C19.9 18.7667 19.2083 18.475 18.825 18.225C18.4417 17.975 18.25 17.6333 18.25 17.2C18.25 16.7667 18.4043 16.425 18.713 16.175C19.021 15.925 19.4667 15.8 20.05 15.8C20.5833 15.8 21 15.9293 21.3 16.188C21.6 16.446 21.8167 16.7667 21.95 17.15L23.55 16.5C23.3667 15.9167 23.0293 15.4083 22.538 14.975C22.046 14.5417 21.5 14.3 20.9 14.25V13H19.15V14.25C18.3167 14.4333 17.6667 14.8 17.2 15.35C16.7333 15.9 16.5 16.5167 16.5 17.2C16.5 17.9833 16.7293 18.6167 17.188 19.1C17.646 19.5833 18.3667 20 19.35 20.35C20.4 20.7333 21.1293 21.075 21.538 21.375C21.946 21.675 22.15 22.0667 22.15 22.55C22.15 23.1 21.954 23.504 21.562 23.762C21.1707 24.0207 20.7 24.15 20.15 24.15C19.6 24.15 19.1127 23.979 18.688 23.637C18.2627 23.2957 17.95 22.7833 17.75 22.1L16.1 22.75C16.3333 23.55 16.696 24.196 17.188 24.688C17.6793 25.1793 18.3167 25.5167 19.1 25.7V27ZM20 30C18.6167 30 17.3167 29.7373 16.1 29.212C14.8833 28.6873 13.825 27.975 12.925 27.075C12.025 26.175 11.3127 25.1167 10.788 23.9C10.2627 22.6833 10 21.3833 10 20C10 18.6167 10.2627 17.3167 10.788 16.1C11.3127 14.8833 12.025 13.825 12.925 12.925C13.825 12.025 14.8833 11.3123 16.1 10.787C17.3167 10.2623 18.6167 10 20 10C21.3833 10 22.6833 10.2623 23.9 10.787C25.1167 11.3123 26.175 12.025 27.075 12.925C27.975 13.825 28.6873 14.8833 29.212 16.1C29.7373 17.3167 30 18.6167 30 20C30 21.3833 29.7373 22.6833 29.212 23.9C28.6873 25.1167 27.975 26.175 27.075 27.075C26.175 27.975 25.1167 28.6873 23.9 29.212C22.6833 29.7373 21.3833 30 20 30ZM20 28C22.2333 28 24.125 27.225 25.675 25.675C27.225 24.125 28 22.2333 28 20C28 17.7667 27.225 15.875 25.675 14.325C24.125 12.775 22.2333 12 20 12C17.7667 12 15.875 12.775 14.325 14.325C12.775 15.875 12 17.7667 12 20C12 22.2333 12.775 24.125 14.325 25.675C15.875 27.225 17.7667 28 20 28Z" fill="#112A62"/>
</svg>
