<svg fill="none" height="112" viewBox="0 0 113 112" width="113" xmlns="http://www.w3.org/2000/svg"><g stroke="#000"><path d="m57 56v-.5h-.5-48-.5v.5 48 .5h.5 48 .5v-.5z" fill="#fff" stroke-miterlimit="10"/><path d="m57 8v-.5h-.5-48-.5v.5 48 .5h.5 48 .5v-.5z" fill="#2fd395" stroke-miterlimit="10"/><path d="m105 56c0-.2761-.224-.5-.5-.5h-48c-.2761 0-.5.2239-.5.5v48c0 .276.2239.5.5.5h48c.276 0 .5-.224.5-.5z" fill="#f5a6a7" stroke-linecap="round" stroke-linejoin="round"/><path d="m105 8v-.5h-.5-48-.5v.5 48 .5h.5 48 .5v-.5z" fill="#fff" stroke-miterlimit="10"/><g stroke-linecap="round" stroke-linejoin="round"><path d="m32.5 90.5c6.3513 0 11.5-5.1487 11.5-11.5s-5.1487-11.5-11.5-11.5-11.5 5.1487-11.5 11.5 5.1487 11.5 11.5 11.5z" fill="#bd80ff"/><path d="m32.5 42.5c6.3513 0 11.5-5.1487 11.5-11.5s-5.1487-11.5-11.5-11.5-11.5 5.1487-11.5 11.5 5.1487 11.5 11.5 11.5z" fill="#fff"/><path d="m80.5 90.5c6.3513 0 11.5-5.1487 11.5-11.5s-5.1487-11.5-11.5-11.5-11.5 5.1487-11.5 11.5 5.1487 11.5 11.5 11.5z" fill="#fff"/><path d="m80.5 42.5c6.3513 0 11.5-5.1487 11.5-11.5s-5.1487-11.5-11.5-11.5-11.5 5.1487-11.5 11.5 5.1487 11.5 11.5 11.5z" fill="#9bcdfb"/><path d="m51.5 104.5c.2761 0 .5-.224.5-.5 0-5.321-4.3094-9.5-9.6441-9.5h-20.6017c-5.4448 0-9.7542 4.2861-9.7542 9.5 0 .276.2239.5.5.5z" fill="#bd80ff"/><path d="m51.5 56.5c.2761 0 .5-.2239.5-.5 0-5.321-4.3094-9.5-9.6441-9.5h-20.6017c-5.4448 0-9.7542 4.2861-9.7542 9.5 0 .2761.2239.5.5.5z" fill="#fff"/><path d="m99.5 104.5c.2761 0 .5-.224.5-.5 0-5.321-4.3094-9.5-9.6441-9.5h-20.6017c-5.4448 0-9.7542 4.2861-9.7542 9.5 0 .276.2239.5.5.5z" fill="#fff"/><path d="m99.5 56.5c.2761 0 .5-.2239.5-.5 0-5.321-4.3094-9.5-9.6441-9.5h-20.6017c-5.4448 0-9.7542 4.2861-9.7542 9.5 0 .2761.2239.5.5.5z" fill="#9bcdfb"/></g></g></svg>