<svg fill="none" height="112" viewBox="0 0 113 112" width="113" xmlns="http://www.w3.org/2000/svg"><path d="m47.9 54.6047c10.3843 0 18.8024-8.4181 18.8024-18.8023 0-10.3843-8.4181-18.8024-18.8024-18.8024-10.3842 0-18.8023 8.4181-18.8023 18.8024 0 10.3842 8.4181 18.8023 18.8023 18.8023z" fill="#f78400" stroke="#000" stroke-linecap="round" stroke-linejoin="round"/><path d="m47.9004 50.3357c8.0264 0 14.5331-6.5068 14.5331-14.5332 0-8.0265-6.5067-14.5332-14.5331-14.5332-8.0265 0-14.5332 6.5067-14.5332 14.5332 0 8.0264 6.5067 14.5332 14.5332 14.5332z" fill="#ffc664" stroke="#000" stroke-miterlimit="10"/><path d="m46.7963 47.4153v-2.8134c-3.7089-.6052-5.3896-3.3409-5.5736-5.4959l3.6271-.8179c.1309 1.5253 1.1859 2.8952 3.4473 2.8952 1.3167 0 2.2613-.6338 2.2613-1.6561 0-.7647-.5766-1.2636-1.6357-1.5008l-2.339-.552c-2.9484-.7116-4.7599-2.4986-4.7599-4.9971 0-2.9483 2.2082-4.9725 4.9684-5.4469v-2.8624h3.0261v2.9197c1.1247.2069 2.1617.746 2.9773 1.5477.8156.8018 1.3723 1.8294 1.5985 2.9504l-3.6558.9733c-.1554-.8179-.6052-2.1837-2.6825-2.1837-1.4721 0-2.2082.8711-2.2082 1.7134 0 .7075.5234 1.2595 1.5498 1.4967l2.29.4989c3.5249.7892 4.9071 2.8625 4.9071 5.2097s-1.7379 4.6822-4.7885 5.2342v2.8625z" fill="#fff" stroke="#000" stroke-linecap="round" stroke-linejoin="round"/><path d="m21.1758 75.5605v21.471c0 1.1485 7.0551 1.9688 15.7509 1.9688 8.6957 0 15.7508-.8203 15.7508-1.9688v-21.471z" fill="#ffc664" stroke="#000" stroke-miterlimit="10"/><path d="m32.8364 98.2493s-3.1174-.164-4.1018-.164c-.8204-.1641-3.6096-.4922-3.6096-.4922v-21.8331h7.7114z" fill="#fff"/><g stroke="#000"><path d="m52.8455 75.0452c0 1.1485-7.0551 1.9688-15.7509 1.9688s-15.7508-.8203-15.7508-1.9688" stroke-miterlimit="10"/><path d="m52.8455 80.624c0 1.1485-7.0551 1.9689-15.7509 1.9689s-15.7508-.8204-15.7508-1.9689" stroke-miterlimit="10"/><path d="m52.8455 86.0381c0 1.1485-7.0551 1.9688-15.7509 1.9688s-15.7508-.8203-15.7508-1.9688" stroke-miterlimit="10"/><path d="m52.8455 91.6165c0 1.1485-7.0551 1.9688-15.7509 1.9688s-15.7508-.8203-15.7508-1.9688" stroke-miterlimit="10"/><path d="m36.9267 77.1848c8.6989 0 15.7508-.8815 15.7508-1.9689 0-1.0873-7.0519-1.9688-15.7508-1.9688-8.699 0-15.7509.8815-15.7509 1.9688 0 1.0874 7.0519 1.9689 15.7509 1.9689z" fill="#fefad5" stroke-miterlimit="10"/><path d="m68.0281 98.0243c15.3479 0 27.7899-12.4419 27.7899-27.7898 0-15.348-12.442-27.7899-27.7899-27.7899s-27.7898 12.4419-27.7898 27.7899c0 15.3479 12.4419 27.7898 27.7898 27.7898z" fill="#f78400" stroke-linecap="round" stroke-linejoin="round"/><path d="m68.0308 91.7152c11.8631 0 21.48-9.6169 21.48-21.48s-9.6169-21.4801-21.48-21.4801-21.48 9.617-21.48 21.4801 9.6169 21.48 21.48 21.48z" fill="#ffc664" stroke-miterlimit="10"/><path d="m76.528 81.0046c-2.136 1.6094-4.7478 2.4602-7.4219 2.4176-5.7538 0-10.4983-3.022-12.4021-8.123h-3.5478v-3.9346h2.7259c-.0565-.6999-.0565-1.4033 0-2.1033h-2.7259v-3.9224h3.5418c.9484-2.4866 2.6407-4.62 4.8461-6.1094s4.8166-2.2622 7.4774-2.2131c2.3527-.092 4.6796.5181 6.6845 1.7527l-2.1757 4.6659c-1.3577-.8152-2.9271-1.2086-4.5088-1.1302-1.1497-.0386-2.29.2191-3.3114.7483-1.0213.5292-1.8895 1.3122-2.521 2.2737h9.4889l-1.8131 3.9225h-8.8241c-.0295.3376-.0416.6765-.0363 1.0153 0 .3083 0 .6951.0363 1.0879h8.0082l-1.783 3.9769h-4.8351c.655.879 1.5137 1.5858 2.5023 2.0595.9886.4738 2.0774.7004 3.1729.6603 1.7004.0555 3.3698-.464 4.7384-1.4747z" fill="#fff" stroke-linecap="round" stroke-linejoin="round"/></g></svg>