<svg width="113" height="112" viewBox="0 0 113 112" fill="none" xmlns="http://www.w3.org/2000/svg">
<rect x="7.88281" y="8.7019" width="61.8336" height="75.7213" rx="6" transform="rotate(0.4 7.88281 8.7019)" fill="#C0F4F9" stroke="black" stroke-width="0.8" stroke-miterlimit="10"/>
<path d="M16.7871 42.4629L58.8603 42.7566" stroke="black" stroke-width="0.8" stroke-linecap="round" stroke-linejoin="round"/>
<path d="M16.7871 52.9116L58.8603 53.2054" stroke="black" stroke-width="0.8" stroke-linecap="round" stroke-linejoin="round"/>
<path d="M16.7871 63.3618L58.8603 63.6555" stroke="black" stroke-width="0.8" stroke-linecap="round" stroke-linejoin="round"/>
<path d="M32.9325 35.4163C32.5644 33.9306 31.786 32.5784 30.6864 31.5137C29.5868 30.4491 28.2101 29.7149 26.7134 29.395C27.1554 29.2353 27.5737 29.0165 27.957 28.7446C27.957 28.7446 27.9868 28.7185 28.0132 28.7055C28.6893 28.2211 29.2411 27.5836 29.6237 26.8452C30.0063 26.1067 30.2088 25.2883 30.2146 24.4567C30.2244 23.0514 29.6755 21.6997 28.6888 20.6991C27.702 19.6985 26.3582 19.1308 24.9529 19.121C24.2965 19.1157 23.645 19.2341 23.0325 19.4701C22.0335 19.85 21.1728 20.523 20.5633 21.4009C19.9537 22.2788 19.6239 23.3206 19.6171 24.3893C19.611 25.4033 19.8963 26.3977 20.4388 27.2544C20.9814 28.111 21.7585 28.7939 22.6778 29.2219C22.7993 29.2787 22.9208 29.3323 23.0457 29.3793C22.4659 29.5009 21.9003 29.6826 21.358 29.9212C20.12 30.4502 19.035 31.2823 18.203 32.3407C17.3709 33.3991 16.8186 34.6499 16.5968 35.9778L33.0728 36.0928C33.0283 35.8519 32.9837 35.6341 32.9325 35.4163Z" fill="#40C0CC" stroke="black" stroke-width="0.8" stroke-linecap="round" stroke-linejoin="round"/>
<path d="M39.5449 21.606L59.2338 21.7434" stroke="black" stroke-width="0.8" stroke-linecap="round" stroke-linejoin="round"/>
<path d="M39.5449 32.0547L59.2338 32.1921" stroke="black" stroke-width="0.8" stroke-linecap="round" stroke-linejoin="round"/>
<rect x="44.2832" y="27.7444" width="61.8336" height="75.7213" rx="6" transform="rotate(0.4 44.2832 27.7444)" fill="#EBD9FF" stroke="black" stroke-width="0.8" stroke-miterlimit="10"/>
<path d="M53.1875 61.5054L95.2607 61.7991" stroke="black" stroke-width="0.8" stroke-linecap="round" stroke-linejoin="round"/>
<path d="M53.1875 71.9541L95.2607 72.2478" stroke="black" stroke-width="0.8" stroke-linecap="round" stroke-linejoin="round"/>
<path d="M53.1875 82.4043L95.2607 82.698" stroke="black" stroke-width="0.8" stroke-linecap="round" stroke-linejoin="round"/>
<path d="M69.3329 54.4587C68.9648 52.9731 68.1864 51.6208 67.0868 50.5562C65.9872 49.4916 64.6105 48.7574 63.1138 48.4375C63.5557 48.2778 63.9741 48.059 64.3574 47.7871C64.3574 47.7871 64.3872 47.761 64.4136 47.748C65.0896 47.2636 65.6415 46.6261 66.0241 45.8877C66.4067 45.1492 66.6091 44.3308 66.615 43.4992C66.6248 42.0939 66.0759 40.7422 65.0892 39.7416C64.1024 38.7409 62.7585 38.1733 61.3532 38.1635C60.6969 38.1581 60.0454 38.2766 59.4329 38.5126C58.4339 38.8925 57.5732 39.5655 56.9636 40.4434C56.3541 41.3213 56.0243 42.3631 56.0175 43.4318C56.0114 44.4458 56.2966 45.4402 56.8392 46.2968C57.3817 47.1535 58.1588 47.8364 59.0781 48.2643C59.1997 48.3212 59.3212 48.3748 59.4461 48.4218C58.8663 48.5434 58.3007 48.725 57.7584 48.9637C56.5204 49.4927 55.4354 50.3248 54.6034 51.3832C53.7713 52.4416 53.2189 53.6924 52.9971 55.0203L69.4732 55.1353C69.4287 54.8944 69.3841 54.6766 69.3329 54.4587Z" fill="#BD80FF" stroke="black" stroke-width="0.8" stroke-linecap="round" stroke-linejoin="round"/>
<path d="M75.9453 40.6484L95.6342 40.7859" stroke="black" stroke-width="0.8" stroke-linecap="round" stroke-linejoin="round"/>
<path d="M75.9453 51.0972L95.6342 51.2346" stroke="black" stroke-width="0.8" stroke-linecap="round" stroke-linejoin="round"/>
</svg>
