<svg width="64" height="64" viewBox="0 0 64 64" fill="none" xmlns="http://www.w3.org/2000/svg">
<rect width="64" height="64" rx="32" fill="#A5C4FF"/>
<path d="M43.3327 30.6667H41.3327V25.3334C41.3327 23.8667 40.1327 22.6667 38.666 22.6667H33.3327V20.6667C33.3327 18.8267 31.8393 17.3334 29.9993 17.3334C28.1593 17.3334 26.666 18.8267 26.666 20.6667V22.6667H21.3327C19.866 22.6667 18.6793 23.8667 18.6793 25.3334V30.4H20.666C22.6527 30.4 24.266 32.0134 24.266 34C24.266 35.9867 22.6527 37.6 20.666 37.6H18.666V42.6667C18.666 44.1334 19.866 45.3334 21.3327 45.3334H26.3993V43.3334C26.3993 41.3467 28.0127 39.7334 29.9993 39.7334C31.986 39.7334 33.5993 41.3467 33.5993 43.3334V45.3334H38.666C40.1327 45.3334 41.3327 44.1334 41.3327 42.6667V37.3334H43.3327C45.1727 37.3334 46.666 35.84 46.666 34C46.666 32.16 45.1727 30.6667 43.3327 30.6667Z" fill="#0D2049"/>
</svg>
