<svg width="64" height="64" viewBox="0 0 64 64" fill="none" xmlns="http://www.w3.org/2000/svg">
<rect width="64" height="64" rx="32" fill="#FFA949"/>
<g clip-path="url(#clip0_2307_3861)">
<path fill-rule="evenodd" clip-rule="evenodd" d="M31.9993 20C38.3193 20 43.9993 24.9733 43.9993 32.2933C44.786 32.7067 45.3327 33.52 45.3327 34.4533V37.52C45.3327 38.48 44.786 39.2933 43.9993 39.7067V41.3333C43.9993 42.8 42.7994 44 41.3327 44H30.666V41.3333H41.3327V31.8667C41.3327 26.7067 37.1593 22.5333 31.9993 22.5333C26.8393 22.5333 22.666 26.7067 22.666 31.8667V40H21.3327C19.866 40 18.666 38.8 18.666 37.3333V34.6667C18.666 33.68 19.1993 32.8267 19.9993 32.3733C19.9993 24.8667 25.746 20 31.9993 20ZM29.3327 33.3333C29.3327 34.0697 28.7357 34.6667 27.9993 34.6667C27.263 34.6667 26.666 34.0697 26.666 33.3333C26.666 32.597 27.263 32 27.9993 32C28.7357 32 29.3327 32.597 29.3327 33.3333ZM35.9993 34.6667C36.7357 34.6667 37.3327 34.0697 37.3327 33.3333C37.3327 32.597 36.7357 32 35.9993 32C35.263 32 34.666 32.597 34.666 33.3333C34.666 34.0697 35.263 34.6667 35.9993 34.6667ZM32.0666 24C36.0533 24 39.36 26.9067 40 30.7067C35.84 30.6667 32.2533 28.2533 30.5066 24.7467C29.8 28.32 27.32 31.2533 24.0266 32.6C23.68 27.3467 28.0266 24 32.0666 24Z" fill="#0D2049"/>
</g>
<defs>
<clipPath id="clip0_2307_3861">
<rect width="32" height="32" fill="white" transform="translate(16 16)"/>
</clipPath>
</defs>
</svg>
