<svg width="40" height="40" viewBox="0 0 40 40" fill="none" xmlns="http://www.w3.org/2000/svg">
<rect width="40" height="40" rx="20" fill="#FFD4A4"/>
<path d="M16 28H24V25C24 23.9 23.6083 22.9583 22.825 22.175C22.0417 21.3917 21.1 21 20 21C18.9 21 17.9583 21.3917 17.175 22.175C16.3917 22.9583 16 23.9 16 25V28ZM20 19C21.1 19 22.0417 18.6083 22.825 17.825C23.6083 17.0417 24 16.1 24 15V12H16V15C16 16.1 16.3917 17.0417 17.175 17.825C17.9583 18.6083 18.9 19 20 19ZM12 30V28H14V25C14 23.9833 14.2377 23.029 14.713 22.137C15.1877 21.2457 15.85 20.5333 16.7 20C15.85 19.4667 15.1877 18.754 14.713 17.862C14.2377 16.9707 14 16.0167 14 15V12H12V10H28V12H26V15C26 16.0167 25.7627 16.9707 25.288 17.862C24.8127 18.754 24.15 19.4667 23.3 20C24.15 20.5333 24.8127 21.2457 25.288 22.137C25.7627 23.029 26 23.9833 26 25V28H28V30H12Z" fill="#112A62"/>
</svg>
