<svg fill="none" height="56" viewBox="0 0 56 56" width="56" xmlns="http://www.w3.org/2000/svg"><path d="m34.1174 22.0089c-1.0774-.7024-1.8549-1.8263-2.0975-3.1364-.0524-.2831-.0812-.5744-.0812-.8725h-3.4384l-.0055 13.78c-.0578 1.5431-1.3279 2.7816-2.8848 2.7816-.4839 0-.9396-.121-1.3408-.3321-.9199-.4841-1.5495-1.4485-1.5495-2.5582 0-1.5938 1.2966-2.8905 2.8903-2.8905.2975 0 .5829.0491.8528.1337v-3.5103c-.2793-.038-.5632-.0618-.8528-.0618-3.4898 0-6.3288 2.8392-6.3288 6.3289 0 2.1411 1.0698 4.0359 2.7018 5.1817 1.028.7217 2.2784 1.147 3.627 1.147 3.4897 0 6.3287-2.839 6.3287-6.3287v-6.9876c1.3486.9679 3.0009 1.5383 4.7837 1.5383v-3.4384c-.9604 0-1.8548-.2855-2.605-.7747z" fill="#2c71f0"/><rect height="55" rx="27.5" stroke="#2c71f0" width="55" x=".5" y=".5"/></svg>