<svg fill="none" height="56" viewBox="0 0 56 56" width="56" xmlns="http://www.w3.org/2000/svg"><path d="m28 18.982c2.9371 0 3.285.0112 4.4449.0641 1.0725.049 1.6549.2282 2.0426.3788.5134.1995.8799.4379 1.2648.8228s.6233.7514.8228 1.2648c.1506.3877.3298.9701.3788 2.0426.0529 1.1599.0641 1.5078.0641 4.4449 0 2.9372-.0112 3.285-.0641 4.4449-.049 1.0725-.2282 1.655-.3788 2.0426-.1995.5134-.4379.8799-.8228 1.2648s-.7514.6233-1.2648.8228c-.3877.1507-.9701.3299-2.0426.3788-1.1597.0529-1.5076.0641-4.4449.0641s-3.2852-.0112-4.4449-.0641c-1.0725-.0489-1.655-.2281-2.0426-.3788-.5134-.1995-.8799-.4379-1.2648-.8228s-.6233-.7514-.8228-1.2648c-.1507-.3876-.3299-.9701-.3788-2.0425-.0529-1.16-.0641-1.5078-.0641-4.445 0-2.9371.0112-3.285.0641-4.4449.0489-1.0725.2281-1.6549.3788-2.0426.1995-.5134.4379-.8799.8228-1.2648s.7514-.6233 1.2648-.8228c.3876-.1506.9701-.3298 2.0425-.3788 1.16-.0529 1.5078-.0641 4.445-.0641zm0-1.982c-2.9875 0-3.362.0127-4.5353.0662-1.1709.0534-1.9704.2394-2.6702.5113-.7233.2811-1.3368.6572-1.9483 1.2688-.6115.6115-.9876 1.2249-1.2687 1.9483-.272.6997-.4579 1.4993-.5113 2.6702-.0536 1.1732-.0662 1.5478-.0662 4.5352 0 2.9875.0126 3.3621.0662 4.5353.0534 1.1709.2393 1.9704.5113 2.6702.2811.7233.6572 1.3368 1.2687 1.9483s1.225.9876 1.9483 1.2687c.6998.272 1.4993.4579 2.6702.5113 1.1733.0536 1.5478.0662 4.5353.0662 2.9874 0 3.362-.0126 4.5352-.0662 1.1709-.0534 1.9705-.2393 2.6702-.5113.7234-.2811 1.3368-.6572 1.9483-1.2687.6116-.6115.9877-1.225 1.2688-1.9483.2719-.6998.4579-1.4993.5113-2.6702.0535-1.1732.0662-1.5478.0662-4.5353 0-2.9874-.0127-3.362-.0662-4.5352-.0534-1.1709-.2394-1.9705-.5113-2.6702-.2811-.7234-.6572-1.3368-1.2688-1.9483-.6115-.6116-1.2249-.9877-1.9483-1.2688-.6997-.2719-1.4993-.4579-2.6702-.5113-1.1732-.0535-1.5478-.0662-4.5352-.0662zm0 5.3514c-3.1197 0-5.6487 2.529-5.6487 5.6486 0 3.1197 2.529 5.6487 5.6487 5.6487 3.1196 0 5.6486-2.529 5.6486-5.6487 0-3.1196-2.529-5.6486-5.6486-5.6486zm0 9.3153c-2.0251 0-3.6667-1.6416-3.6667-3.6667 0-2.025 1.6416-3.6667 3.6667-3.6667 2.025 0 3.6667 1.6417 3.6667 3.6667 0 2.0251-1.6417 3.6667-3.6667 3.6667zm7.1918-9.5385c0 .729-.591 1.32-1.32 1.32s-1.32-.591-1.32-1.32.591-1.32 1.32-1.32 1.32.591 1.32 1.32z" fill="#2c71f0"/><rect height="55" rx="27.5" stroke="#2c71f0" width="55" x=".5" y=".5"/></svg>