<svg width="115" height="112" viewBox="0 0 115 112" fill="none" xmlns="http://www.w3.org/2000/svg">
<rect x="6.54663" y="19.4545" width="59.2403" height="72.5455" rx="4" fill="white" stroke="black" stroke-width="0.8"/>
<path d="M15.3323 51.7341H55.6418" stroke="black" stroke-width="0.8" stroke-linecap="round" stroke-linejoin="round"/>
<path d="M15.3318 61.7451H55.6413" stroke="black" stroke-width="0.8" stroke-linecap="round" stroke-linejoin="round"/>
<path d="M15.3323 71.7568H55.6418" stroke="black" stroke-width="0.8" stroke-linecap="round" stroke-linejoin="round"/>
<path d="M41.7419 79.4783C41.5998 79.7183 41.464 79.9614 41.3378 80.2076C40.8989 81.0537 40.5422 82.0704 40.9273 82.9417C41.4167 84.0467 42.9131 84.3718 44.0623 83.9898C45.2115 83.6078 46.105 82.727 47.0237 81.9409C47.9424 81.1548 48.7663 80.4066 49.9755 80.3939C51.2383 80.3939 52.2265 81.2432 53.2115 82.0356C54.1965 82.828 55.2162 83.8794 56.8484 83.8794" stroke="black" stroke-width="0.8" stroke-linecap="round" stroke-linejoin="round"/>
<path d="M30.853 44.7889C30.4904 43.368 29.7357 42.0777 28.6751 41.0651C27.6145 40.0525 26.2907 39.3584 24.8546 39.0619C25.277 38.9059 25.6763 38.6935 26.0417 38.4305C26.0417 38.4305 26.07 38.4052 26.0953 38.3926C26.7397 37.924 27.2642 37.3096 27.6257 36.5996C27.9873 35.8896 28.1758 35.1042 28.1758 34.3074C28.1758 32.961 27.641 31.6697 26.6889 30.7177C25.7369 29.7656 24.4456 29.2308 23.0992 29.2308C22.4704 29.2301 21.847 29.3479 21.2618 29.5781C20.3073 29.9487 19.4872 30.5992 18.9091 31.4444C18.331 32.2895 18.022 33.2898 18.0226 34.3137C18.0236 35.2852 18.3035 36.2359 18.829 37.053C19.3545 37.8701 20.1036 38.5192 20.9872 38.923C21.104 38.9767 21.2208 39.0272 21.3407 39.0714C20.786 39.1918 20.2454 39.3696 19.7275 39.6018C18.545 40.1169 17.5111 40.9213 16.721 41.9409C15.931 42.9604 15.4102 44.1624 15.2065 45.4361H30.9919C30.9477 45.2056 30.9036 44.9972 30.853 44.7889Z" fill="#FBE62E" stroke="black" stroke-width="0.8" stroke-linecap="round" stroke-linejoin="round"/>
<path d="M37.1353 31.6777H55.9988" stroke="black" stroke-width="0.8" stroke-linecap="round" stroke-linejoin="round"/>
<path d="M37.1353 41.6882H55.9988" stroke="black" stroke-width="0.8" stroke-linecap="round" stroke-linejoin="round"/>
<path d="M95.0551 38.0054L60.5874 70.5868L63.956 73.771L98.4236 41.1896L95.0551 38.0054Z" fill="#607D8B" stroke="#000900" stroke-width="0.8" stroke-linecap="round" stroke-linejoin="round"/>
<path d="M98.4218 41.2234L63.9541 73.8047L67.5748 77.2273L102.042 44.6459L98.4218 41.2234Z" fill="#607D8B" stroke="#000900" stroke-width="0.8" stroke-linecap="round" stroke-linejoin="round"/>
<path d="M102.046 44.6093L67.5793 77.1925L71.2175 80.6346L105.687 48.0514H105.684L102.046 44.6093Z" fill="#607D8B" stroke="#000900" stroke-width="0.8" stroke-linecap="round" stroke-linejoin="round"/>
<path d="M110.488 43.5107L112.274 41.8223C118.012 36.3986 107.381 26.3531 101.647 31.7737L99.8577 33.4652L110.485 43.5107H110.488Z" fill="#F5A6A7" stroke="black" stroke-width="0.8" stroke-linecap="round" stroke-linejoin="round"/>
<path d="M57.2532 83.7807L63.0603 82.4731L58.6398 78.2976L57.2532 83.7807Z" fill="#000900" stroke="#000900" stroke-width="0.8" stroke-linecap="round" stroke-linejoin="round"/>
<path d="M67.5762 77.1922L63.9546 73.7719L60.5872 70.5888L58.6394 78.2969L63.0599 82.4724L71.2176 80.6374L67.5762 77.1922Z" fill="#FCEB64" stroke="black" stroke-width="0.8" stroke-linecap="round" stroke-linejoin="round"/>
<path d="M97.4666 35.7214L95.0566 38.0027V38.0058L95.0599 38.0027L98.4273 41.1858L102.046 44.6092L105.687 48.0513L108.097 45.7701L97.4666 35.7214Z" fill="#CFD8DC" stroke="#000900" stroke-width="0.8" stroke-linecap="round" stroke-linejoin="round"/>
<path d="M110.487 43.5105L99.86 33.465L99.8567 33.4619L97.4666 35.7212L108.097 45.7699L110.487 43.5105Z" fill="#CFD8DC" stroke="#000900" stroke-width="0.8" stroke-linecap="round" stroke-linejoin="round"/>
</svg>
