<svg fill="none" height="56" viewBox="0 0 56 56" width="56" xmlns="http://www.w3.org/2000/svg"><path clip-rule="evenodd" d="m23.5692 36h-3.323v-10.626h3.323zm-1.6-12.0916c-.4923 0-.9846-.2443-1.3538-.6107s-.6154-.855-.6154-1.3435c0-.4886.2462-.9771.6154-1.3435s.8615-.6107 1.3538-.6107.9846.2443 1.3539.6107c.3692.3664.6154.8549.6154 1.3435 0 .4885-.2462.9771-.6154 1.3435-.3693.3664-.8616.6107-1.3539.6107zm14.0308 12.0916h-3.3231v-5.1298c0-.8549-.1231-1.4656-.2461-1.832-.2462-.6107-.7385-.9771-1.477-.9771-.7384 0-1.3538.2442-1.6.8549-.2461.3664-.3692 1.0993-.3692 1.8321v5.2519h-3.3231v-10.626h3.2v1.4657c.2462-.4886.6154-.855 1.1077-1.2214.6154-.3664 1.2308-.6107 1.9693-.6107 1.6 0 2.5846.4886 3.1999 1.4657.4924.7328.7385 1.9542.7385 3.6641v5.8626z" fill="#2c71f0" fill-rule="evenodd"/><rect height="55" rx="27.5" stroke="#2c71f0" width="55" x=".5" y=".5"/></svg>