<svg width="40" height="40" viewBox="0 0 40 40" fill="none" xmlns="http://www.w3.org/2000/svg">
<rect width="40" height="40" rx="20" fill="#FFD4A4"/>
<path fill-rule="evenodd" clip-rule="evenodd" d="M12 12H28C29.11 12 30 12.89 30 14V26C30 27.11 29.11 28 28 28H12C10.89 28 10 27.11 10 26L10.01 14C10.01 12.89 10.89 12 12 12ZM12 25C12 25.5523 12.4438 26 12.9961 26H27.0039C27.5562 26 28 25.5523 28 25V15C28 14.4477 27.5523 14 27 14H13C12.4477 14 12 14.4477 12 15V25Z" fill="#112A62"/>
<path d="M15.9999 19.2263C15.5453 19.2263 15.1539 19.0674 14.8256 18.7497C14.4974 18.4319 14.3332 18.0531 14.3332 17.6131C14.3332 17.1634 14.4974 16.7821 14.8256 16.4693C15.1539 16.1564 15.5453 16 15.9999 16C16.4645 16 16.8585 16.1564 17.1817 16.4693C17.5049 16.7821 17.6665 17.1634 17.6665 17.6131C17.6665 18.0531 17.5049 18.4319 17.1817 18.7497C16.8585 19.0674 16.4645 19.2263 15.9999 19.2263Z" fill="#112A62"/>
<path d="M15 20.1213C14.4477 20.1213 14 20.569 14 21.1213V23.25H18V21.1213C18 20.569 17.5523 20.1213 17 20.1213H15Z" fill="#112A62"/>
<rect x="20" y="17.25" width="6" height="2" fill="#112A62"/>
<rect x="20" y="21.25" width="4" height="2" fill="#112A62"/>
</svg>
