<svg width="80" height="80" viewBox="0 0 80 80" fill="none" xmlns="http://www.w3.org/2000/svg">
<path d="M62.2236 12C61.2886 12.0018 60.3743 12.2836 59.5917 12.8112C58.8091 13.3387 58.1919 14.0892 57.815 14.9716C57.5733 15.6365 57.4644 16.3449 57.4948 17.0542L57.618 24.5848V60.4597C57.618 60.4597 57.9382 65.2472 51.5469 66.8092C40.8332 67.1902 43.1976 56.523 43.1976 56.523H20.896V18.7686C20.896 18.7686 20.5019 12.1397 28.3709 12H62.2236Z" fill="white" stroke="#15357A" stroke-width="1.5" stroke-linecap="round" stroke-linejoin="round"/>
<path d="M66.2874 24.5848H57.6672L57.5441 17.0542C57.5136 16.3449 57.6225 15.6365 57.8642 14.9716C58.2411 14.0892 58.8583 13.3387 59.6409 12.8112C60.4235 12.2836 61.3379 12.0018 62.2728 12H62.7901C62.7901 12 68.4917 12.3302 66.2874 24.5848Z" fill="#EAF1FE" stroke="#15357A" stroke-width="1.5" stroke-linecap="round" stroke-linejoin="round"/>
<path d="M51.51 66.8092C50.6991 67.0035 49.8762 67.1393 49.0471 67.2156H22.5708C21.2694 67.2159 19.9817 66.9425 18.7863 66.4121C17.591 65.8816 16.5131 65.1053 15.6186 64.1306C14.7242 63.1559 14.0319 62.0033 13.5842 60.7433C13.1364 59.4832 12.9426 58.1422 13.0147 56.8023C13.0147 56.7134 13.0147 56.6245 13.0147 56.5229H43.1853C43.1853 56.5229 40.8332 67.2156 51.51 66.8092Z" fill="#EAF1FE" stroke="#15357A" stroke-width="1.5" stroke-linecap="round" stroke-linejoin="round"/>
<path d="M52.1872 21.1433H25.3046C24.5564 21.1433 23.95 21.7687 23.95 22.5402V22.7561C23.95 23.5276 24.5564 24.153 25.3046 24.153H52.1872C52.9354 24.153 53.5418 23.5276 53.5418 22.7561V22.5402C53.5418 21.7687 52.9354 21.1433 52.1872 21.1433Z" fill="#D5E3FC"/>
<path d="M52.1872 28.1913H25.3046C24.5564 28.1913 23.95 28.8167 23.95 29.5882V29.8041C23.95 30.5756 24.5564 31.201 25.3046 31.201H52.1872C52.9354 31.201 53.5418 30.5756 53.5418 29.8041V29.5882C53.5418 28.8167 52.9354 28.1913 52.1872 28.1913Z" fill="#D5E3FC"/>
<path d="M52.1872 35.2393H25.3046C24.5564 35.2393 23.95 35.8647 23.95 36.6362V36.852C23.95 37.6235 24.5564 38.2489 25.3046 38.2489H52.1872C52.9354 38.2489 53.5418 37.6235 53.5418 36.852V36.6362C53.5418 35.8647 52.9354 35.2393 52.1872 35.2393Z" fill="#D5E3FC"/>
<path d="M52.1872 42.3H25.3046C24.5564 42.3 23.95 42.9255 23.95 43.6969V43.9128C23.95 44.6843 24.5564 45.3097 25.3046 45.3097H52.1872C52.9354 45.3097 53.5418 44.6843 53.5418 43.9128V43.6969C53.5418 42.9255 52.9354 42.3 52.1872 42.3Z" fill="#D5E3FC"/>
<path d="M52.1872 49.348H25.3046C24.5564 49.348 23.95 49.9734 23.95 50.7449V50.9608C23.95 51.7323 24.5564 52.3577 25.3046 52.3577H52.1872C52.9354 52.3577 53.5418 51.7323 53.5418 50.9608V50.7449C53.5418 49.9734 52.9354 49.348 52.1872 49.348Z" fill="#D5E3FC"/>
<path d="M56.3989 49.1321C61.6018 49.1321 65.8195 44.7826 65.8195 39.4173C65.8195 34.052 61.6018 29.7025 56.3989 29.7025C51.196 29.7025 46.9783 34.052 46.9783 39.4173C46.9783 44.7826 51.196 49.1321 56.3989 49.1321Z" fill="#2C71F0"/>
<path d="M54.6133 39.7602L55.9679 41.1444L59.1081 36.9791" stroke="white" stroke-width="1.5" stroke-linecap="round" stroke-linejoin="round"/>
</svg>