<svg fill="none" height="112" viewBox="0 0 113 112" width="113" xmlns="http://www.w3.org/2000/svg"><path d="m81.6924 81.0347h-4.5947v17.6628h4.5947z" fill="#d9d9d9" stroke="#000" stroke-linecap="round" stroke-linejoin="round" stroke-width=".75"/><path d="m66.0156 77.4463h26.8679v2.8995c0 .1791-.071.349-.1976.4756s-.2964.1976-.4755.1976h-25.5185c-.1791 0-.349-.071-.4756-.1976s-.1976-.2965-.1976-.4756v-2.8995z" fill="#d9d9d9" stroke="#000" stroke-linecap="round" stroke-linejoin="round" stroke-width=".75"/><path d="m98.027 20.3478v49.1904h-37.5521v-49.4313c-.0062-.5342.0926-1.0622.2902-1.5563.1977-.494.491-.9449.8647-1.3278.3736-.3829.8152-.6855 1.3062-.8955.4909-.21 1.0159-.3211 1.5501-.3273h29.5359c1.1085.0463 2.1522.528 2.9057 1.3433.7504.8152 1.1487 1.8959 1.1024 3.0045z" fill="#e9f1ff" stroke="#000" stroke-linecap="round" stroke-linejoin="round" stroke-width=".75"/><path d="m78.4019 77.4467c0-4.3478-4.0668-7.8988-9.0816-7.8988h32.6147c5.024 0 9.088 3.5449 9.088 7.9081l-32.6242-.0062z" fill="#e9f1ff" stroke="#000" stroke-linecap="round" stroke-linejoin="round" stroke-width=".75"/><path d="m78.1489 77.4402h-23.1933v-57.0924c-.0154-1.0036.3026-1.9825.9048-2.7822.3551-.4817.8183-.8739 1.3525-1.1456.5342-.2718 1.1209-.4169 1.7199-.42h5.5521c-.5342.0062-1.0591.1173-1.5501.3273s-.9326.5157-1.3062.8955c-.3736.3829-.667.8338-.8646 1.3278-.1977.4941-.2965 1.0252-.2903 1.5563v49.4313h9.7702c2.0967 0 4.1038.8337 5.586 2.3129 1.4822 1.4821 2.3128 3.4924 2.3128 5.586z" stroke="#000" stroke-linecap="round" stroke-linejoin="round" stroke-width=".75"/><path d="m78.1472 77.44h-23.4187v-57.3302c0-.4106.068-.8182.1946-1.2104.1389-.4694.3643-.9109.6669-1.2969.3644-.4941.8369-.8924 1.3834-1.1703.5466-.278 1.1487-.4262 1.7632-.4293h5.7466c-.5342.0062-1.0591.1174-1.5501.3273-.491.21-.9325.5157-1.3062.8955-.3736.383-.667.8338-.8646 1.3278-.1976.4941-.2965 1.0252-.2903 1.5563v49.4313h9.7702c2.0967 0 4.1038.8338 5.586 2.3129 1.4822 1.4822 2.3128 3.4924 2.3128 5.586z" fill="#2c71f0" stroke="#000" stroke-linecap="round" stroke-linejoin="round" stroke-width=".75"/><path d="m97.747 62.2202h-36.9345v6.9972h36.9345z" fill="#000" opacity=".1"/><path d="m58.2839 77.218v-60.8689c-1.8374 0-3.3288 2.177-3.3288 3.8352v57.0337z" fill="#000" opacity=".1"/><path d="m61.4704 108.353c.9635 0 1.7478-.781 1.7478-1.747 0-.967-.7813-1.748-1.7478-1.748s-1.7477.781-1.7477 1.748c0 .966.7812 1.747 1.7477 1.747z" stroke="#000" stroke-linecap="round" stroke-linejoin="round" stroke-width=".75"/><path d="m72.9296 108.989c1.2414 0 2.248-1.006 2.248-2.248 0-1.241-1.0066-2.248-2.248-2.248-1.2413 0-2.248 1.007-2.248 2.248 0 1.242 1.0067 2.248 2.248 2.248z" stroke="#000" stroke-linecap="round" stroke-linejoin="round" stroke-width=".75"/><path d="m99.5193 108.301c.9637 0 1.7477-.782 1.7477-1.748 0-.967-.781-1.748-1.7477-1.748-.9666 0-1.7478.781-1.7478 1.748 0 .966.7812 1.748 1.7478 1.748z" stroke="#000" stroke-linecap="round" stroke-linejoin="round" stroke-width=".75"/><path d="m81.6492 81.708h-4.5515v4.357h4.5515z" fill="#2c71f0" opacity=".1" stroke="#000" stroke-miterlimit="10" stroke-width=".75"/><path d="m61.5095 98.6978c-.349 0-.6979.0679-1.0191.2037-.3242.1328-.6176.3304-.8646.5775-.247.247-.4416.54-.5774.865-.1328.324-.2007.67-.2007 1.019v.796c.0679.639.3705 1.229.8461 1.662.4755.432 1.0962.667 1.7415.667.6454 0 1.263-.238 1.7416-.667.4786-.43.7782-1.023.8461-1.662h6.2839c.0679.639.3705 1.229.8461 1.662.4786.429 1.0962.667 1.7416.667.6453 0 1.2629-.238 1.7415-.667.4787-.43.7782-1.023.8461-1.662h20.5563c.071.639.3705 1.229.8492 1.658.4786.43 1.0962.667 1.7385.671.6422 0 1.2629-.238 1.7388-.667.478-.43.778-1.023.849-1.659v-1.593c0-.494-.195-.9696-.547-1.3185-.349-.3521-.8211-.5497-1.3183-.5497h-37.8423z" fill="#fff" stroke="#000" stroke-linecap="round" stroke-linejoin="round" stroke-width=".75"/><path d="m37.3233 49.5513h-4.671v8.5689h4.671z" fill="#000"/><path d="m37.0147 49.8703v7.9337h-4.0394v-7.9337zm.6315-.6315h-5.3024v9.204h5.3024z" fill="#000"/><path d="m31.5271 44.4189c.2867 0 .5153-.2323.5153-.5154 0-.283-.2322-.5153-.5153-.5153s-.5154.2323-.5154.5153c0 .2831.2323.5154.5154.5154z" fill="#000"/><path d="m33.7126 48.7925c.2867 0 .5154-.2323.5154-.5154s-.2323-.5154-.5154-.5154-.5153.2323-.5153.5154.2322.5154.5153.5154z" fill="#000"/><path d="m37.0212 53.1723c.2867 0 .5154-.2322.5154-.5153s-.2323-.5154-.5154-.5154-.5153.2323-.5153.5154.2322.5153.5153.5153z" fill="#000"/><path d="m31.5271 53.1723c.2867 0 .5153-.2322.5153-.5153s-.2322-.5154-.5153-.5154-.5154.2323-.5154.5154.2323.5153.5154.5153z" fill="#000"/><path d="m65.5291 101.596h-36.1809c-1.2969 0-2.3482 1.051-2.3482 2.348v2.697c0 1.297 1.0513 2.348 2.3482 2.348h36.1809c1.2968 0 2.3482-1.051 2.3482-2.348v-2.697c0-1.297-1.0514-2.348-2.3482-2.348z" fill="#e0e0e0" stroke="#000" stroke-width=".75"/><g fill="#000"><path d="m65.0548 53.5867c.0544-.1597.0798-.3266.0834-.4972l.0254-3.3607c0-.4211-.1633-.8276-.4609-1.1288s-.7005-.4718-1.1215-.4754l-32.0434-.2359c-.3339 0-.6642.1016-.9364.2976s-.4791.4718-.5879.7875c-.0545.1597-.0799.3267-.0835.4973l-.0218 3.3644c0 .2105.0363.4173.1161.6097.0799.1923.196.3702.3448.519.1452.1488.323.2685.5154.3484.1924.0835.3992.1234.6097.127l32.0399.2287c.3339.0036.6641-.098.9363-.294s.4791-.4718.5844-.7876z"/><path d="m30.3353 49.087c-.04.127-.0654.2577-.0654.3919l-.0218 3.3644c0 .3339.1271.6569.363.8928.2359.236.5516.3702.8855.3702l32.0435.2359c.2649 0 .5262-.0798.7404-.2359.2177-.156.3774-.3738.4609-.6242.0399-.127.0653-.2577.0653-.392l.0254-3.3607c0-.3339-.1306-.6533-.3593-.8929-.2359-.2359-.5553-.3702-.8892-.3738l-32.0434-.2359c-.265 0-.5226.0835-.7404.2359-.2141.1524-.3774.3738-.4645.6243zm-.6279-.2105c.127-.3848.3738-.7187.7041-.9509.3302-.2359.7258-.3593 1.1287-.3557l32.0434.2287c.2541 0 .5045.0544.7368.1524s.4428.2431.6206.421c.1779.1778.3158.392.4101.6279.0944.2359.1416.4863.138.7367l-.0218 3.3644c0 .196-.0327.392-.0908.5771-.1306.3847-.3774.715-.7077.9509-.3302.2359-.7258.3593-1.1323.3556l-32.0399-.2286c-.254 0-.5044-.0544-.7367-.1524s-.4428-.2432-.6206-.421c-.1779-.1815-.3194-.392-.4138-.6279s-.1415-.4864-.1415-.7368l.0254-3.3607c0-.196.029-.392.0907-.5771z"/><path d="m67.0804 57.2085c.0545-.1597.0799-.3267.0835-.4972l.0218-3.3644c0-.2105-.0363-.4174-.1162-.6098-.0798-.1923-.1923-.3702-.3411-.519-.1452-.1488-.3194-.2685-.5118-.3484-.1923-.0798-.3992-.1234-.6097-.1234l-32.0435-.2286c-.3339-.0037-.6641.098-.9363.2939-.2722.196-.4791.4719-.5844.7876-.0544.1597-.0798.3266-.0834.4972l-.0218 3.3644c0 .2105.0363.4174.1161.6098.0799.1923.1924.3702.3412.519.1452.1488.3194.2685.5117.3484.1924.0798.3993.1234.6098.1234l32.0434.2359c.3339 0 .6642-.1016.9364-.2976s.4791-.4718.588-.7876z"/><path d="m64.9995 61.2448c.0544-.1597.0835-.3267.0835-.4972l.0254-3.3608c0-.2105-.0363-.4174-.1162-.6097-.0798-.1924-.196-.3702-.3411-.519-.1452-.1488-.323-.2686-.5154-.3484-.1923-.0799-.3992-.1234-.6097-.1234l-32.0253-.2287c-.3376 0-.6642.1016-.9364.2976s-.4791.4718-.5843.7912c-.0545.1597-.0799.3267-.0835.4972l-.0254 3.3608c0 .2105.0363.4174.1161.6097.0799.1924.196.3702.3412.519s.323.2686.5154.3484c.1923.0799.3992.1234.6097.1234l32.0398.2287c.3339 0 .6606-.1016.9328-.2976s.4718-.4718.577-.7876z"/><path d="m30.2859 56.7438c-.0435.1271-.0653.2577-.0653.392l-.0254 3.3608c0 .1669.029.3303.0907.4827s.1525.2939.2686.4101c.1161.1161.2541.2105.4065.2758s.3157.098.4827.098l32.0362.2323c.2649 0 .5262-.0798.744-.2323.2178-.1524.3775-.3738.4646-.6242.0435-.127.0617-.2613.058-.392l.0254-3.3608c0-.1669-.029-.3302-.0907-.4827-.0617-.1524-.156-.294-.2722-.4101-.1161-.1161-.2541-.2105-.4065-.2758-.1524-.0654-.3157-.098-.4827-.098l-32.0362-.2323c-.2649 0-.5262.0799-.7404.2359-.2177.1561-.3774.3738-.4609.6243zm-.6351-.2141c.1307-.3847.3775-.7186.7077-.9545.3303-.2359.7259-.3629 1.1324-.3593l32.0362.2323c.5117.0036.9981.2105 1.3574.577.3593.363.5589.8529.5552 1.3647l-.0254 3.3607c0 .196-.029.392-.0907.5771-.1307.3847-.3775.7186-.7077.9509-.3303.2359-.7259.3593-1.1324.3557l-32.0434-.2178c-.5118-.0036-.9981-.2105-1.3574-.5771-.3593-.3665-.5589-.8529-.5553-1.3646l.0254-3.3608c0-.196.0327-.3919.0907-.577v-.0109z"/><path d="m63.7728 94.613c.1706-.5153.2613-1.0561.2649-1.6005l.3376-47.8964c.0072-1.3574-.5227-2.6603-1.4772-3.6257-.9509-.9655-2.2502-1.5135-3.6039-1.5244l-21.453-.1415c-1.078-.0109-2.1305.323-3.0052.9472-.8783.6243-1.5352 1.5135-1.8763 2.5333-.1742.5154-.2613 1.0525-.265 1.5969l-.3411 47.9001c-.0073 1.3574.5226 2.6603 1.4771 3.6257.9509.9654 2.2502 1.5134 3.604 1.5243l21.4457.1524c1.0779.0109 2.1341-.323 3.0124-.9508.8783-.6279 1.5352-1.5171 1.88-2.5406z"/><path d="m57.1417 40.6085c.0581-.1706.0871-.3448.0871-.5263v-.1197l-17.3265-.1271v.1234c0 .2214.04.4392.1234.6461.0835.2032.2069.3919.3594.548.156.1561.3411.2831.5444.3665.2032.0835.4209.1307.6423.1307l13.9585.098c.3557.0073.7004-.098.9908-.3049.2903-.2032.5081-.4972.6206-.8311z"/><path d="m47.9258 40.7354 3.4878.0254v.1379l-3.4878-.0254z"/><path d="m47.5957 40.539c.0145-.0436.0435-.0799.0798-.1089.0363-.0255.0835-.04.1271-.04l3.7164.0363c.0291 0 .0581.0073.0835.0182s.0508.029.0689.0472c.0182.0217.0363.0435.0472.0689s.0145.0545.0145.0835v.3702c-.0036.0218-.0145.0472-.0254.0653-.0145.0363-.0363.0653-.0653.0908-.029.0254-.0653.0399-.1016.0471l-3.7092-.0363c-.0581 0-.1125-.0217-.1561-.0653-.0399-.0399-.0617-.098-.0617-.1561v-.3629l.0218-.0653h-.0399z"/><path d="m46.2778 40.728-.0298.1079h.0298z"/><path d="m45.9409 40.6153c.0254-.069.0689-.127.127-.1706.0581-.0435.1307-.0653.2032-.0653.0472 0 .0908.0109.1343.029.0436.0182.0799.0436.1125.0762.0327.0327.0581.0726.0726.1125.0182.0436.0254.0871.0254.1343v.1089l-.0326.098c-.0218.069-.069.1307-.1271.1742-.058.0436-.1306.0653-.2032.069-.0472 0-.0907-.0109-.1343-.0291-.0435-.0181-.0798-.0435-.1125-.0762-.0327-.0326-.0581-.0726-.0726-.1161-.0181-.0436-.0254-.0871-.0254-.1343v-.1089c.0073-.0363.0181-.0726.0363-.1052z"/><path d="m50.6475 64.8451c.0799-.2396.1198-.49.1234-.744 0-.6315-.2432-1.234-.6859-1.684-.2831-.2904-.6388-.5045-1.0308-.6207-.3919-.1161-.8057-.127-1.2013-.0363-.3956.0908-.7658.2831-1.067.5553-.3013.2722-.5299.6206-.6569 1.009-.0799.2395-.1234.49-.127.7404 0 .3121.058.6206.1742.9109.1161.2904.2903.5517.5081.7731.2177.2214.479.3992.7658.519.2867.1197.5952.1851.9073.1851.5008.0109.9944-.1416 1.4045-.4283.4102-.2903.7187-.7004.882-1.1759z"/><path d="m46.4791 63.44c-.069.2068-.1052.421-.1052.6387.0072.5335.2213 1.0416.5988 1.4191.1851.1923.4101.3448.6569.45.2468.1053.5117.1561.7803.1561.4319.0036.8493-.127 1.2013-.3738.3521-.2505.6134-.6025.7513-1.009.069-.2069.1052-.421.1052-.6387 0-.4827-.1742-.9509-.4863-1.3175s-.744-.6134-1.2194-.6932c-.4755-.0799-.9654.0109-1.3792.2577-.4137.2468-.7295.6315-.8892 1.0888l-.0109.029zm-.617-.2396c.2178-.6424.6714-1.1759 1.2703-1.4989.5952-.323 1.292-.4101 1.9489-.2395.6569.1669 1.2268.577 1.597 1.1468.3701.5698.5117 1.2558.3955 1.9236-.1161.6678-.4754 1.2703-1.0162 1.684-.5371.4138-1.2122.6097-1.8872.548-.6751-.0617-1.303-.3738-1.7566-.8783-.4537-.5045-.7041-1.1577-.6968-1.8364 0-.2867.0507-.5735.1451-.8457z"/><path d="m58.3627 64.8997c.0798-.2359.1198-.4863.1198-.7368 0-.6278-.2432-1.2339-.6823-1.684-.4428-.45-1.0417-.7041-1.6732-.7113-.5008 0-.9872.1524-1.3936.4391-.4065.2904-.7114.7005-.8711 1.1723-.1379.4174-.1597.8638-.0617 1.2921.098.4282.3121.8202.617 1.1359.2831.2904.6388.5045 1.0308.6206.3919.1162.8057.1271 1.2013.0363.3956-.0907.7658-.2831 1.067-.5553s.5262-.6206.6569-1.0089z"/><path d="m54.1757 63.4878c-.0689.2068-.1052.421-.1125.6387-.0072.4864.1597.9618.4718 1.3356.3122.3738.7477.6243 1.2304.7041.479.0799.9763-.0145 1.3936-.2649.4174-.2504.7295-.6461.882-1.107.0689-.2032.1052-.4174.1052-.6351 0-.4827-.1669-.9545-.479-1.3247-.3122-.3702-.7441-.617-1.2231-.6968-.4791-.0799-.9691.0108-1.3828.2576-.4174.2468-.7295.6352-.8856 1.0925zm-.6315-.2142c.2178-.646.6678-1.1904 1.2667-1.5207.5988-.3302 1.2993-.421 1.9598-.2576.6642.1633 1.2376.5734 1.6151 1.1432.3738.5698.5226 1.2594.4101 1.9344-.1125.6751-.4719 1.2812-1.009 1.6986-.5371.421-1.2158.6206-1.8945.5625s-1.3138-.3702-1.7748-.871c-.4609-.5045-.7149-1.1614-.7113-1.8437 0-.2868.0472-.5735.1379-.8457z"/><path d="m42.9265 64.7905c.0799-.2396.1234-.49.127-.7404-.0109-.5553-.2141-1.0888-.5734-1.5098-.3629-.421-.8602-.7005-1.4046-.7912-.548-.0907-1.1105.0109-1.5896.2903-.4791.2795-.8456.7186-1.0344 1.2376-.0798.2396-.1234.49-.1234.744.0109.5553.2142 1.0889.5735 1.5099.3629.421.8601.7004 1.4045.7912.5481.0907 1.1106-.0109 1.5897-.2904.479-.2795.8456-.7186 1.0343-1.2376h-.0036z"/><path d="m38.7499 63.3748c-.069.2069-.1053.421-.1053.6388-.0073.4863.1597.9618.4718 1.3356.3122.3738.7477.6242 1.2304.7041.479.0798.9763-.0145 1.3936-.2649.4174-.2505.7295-.6461.882-1.107.0689-.2033.1052-.4174.1052-.6352 0-.5407-.2069-1.0633-.5879-1.4517-.2468-.2468-.5481-.4282-.8856-.5262-.3339-.098-.6896-.1053-1.0271-.0291-.3375.0763-.6533.2396-.911.4755-.2576.2323-.4536.5299-.5661.8565zm-.6279-.2105c.2032-.6097.6206-1.1287 1.1723-1.459.5516-.3302 1.2049-.4536 1.8401-.3484.6351.1089 1.2121.4392 1.6223.9328.4137.4936.6351 1.1178.6315 1.7638-.0037.392-.0944.7767-.2613 1.1287-.167.3521-.4102.6642-.7078.9146-.3012.2505-.6496.4319-1.0271.5372-.3774.1016-.773.1198-1.1577.0581-.3848-.0654-.7513-.2142-1.0743-.4319-.323-.2178-.5952-.5081-.7948-.842-.1997-.3339-.3267-.7078-.3702-1.0961-.0436-.3884 0-.7803.1234-1.1505z"/><path d="m50.5693 72.9604c.0798-.2396.1233-.49.1233-.744 0-.5952-.2177-1.1687-.6206-1.6078-.4028-.4392-.9545-.7114-1.5497-.7622s-1.1832.127-1.655.49c-.4718.3665-.7839.8964-.8819 1.4844-.098.5879.029 1.1904.3557 1.6876.3266.4972.8311.8529 1.4082.9981.577.1452 1.1904.0653 1.713-.2214s.9182-.7585 1.107-1.3247z"/><path d="m46.4023 71.5517c-.069.2069-.1053.421-.1053.6388 0 .5408.2105 1.0597.588 1.4445.3811.3847.8964.6024 1.4372.6061.3738 0 .744-.098 1.067-.294s.5843-.4718.7586-.8057c.1742-.3339.2504-.7077.225-1.0852-.0254-.3738-.1561-.7368-.3738-1.0416-.2178-.3049-.5154-.5444-.8638-.6932-.3448-.1488-.7259-.196-1.0961-.1416-.3738.0545-.7222.2105-1.0089.4537-.2868.2395-.5045.5589-.6243.9146zm-.6315-.2141c.2177-.646.6678-1.1904 1.2666-1.5207s1.2993-.421 1.9599-.2577c.6641.1633 1.2376.5735 1.615 1.1433.3738.5698.5226 1.2594.4101 1.9344-.1125.6751-.4718 1.2812-1.0089 1.6985-.5372.421-1.2159.6206-1.8945.5626-.6787-.0581-1.3139-.3702-1.7748-.871-.4609-.5045-.715-1.1614-.7113-1.8438 0-.2867.0471-.5734.1379-.8456z"/><path d="m58.2972 73.0183c.0798-.2359.1233-.4864.127-.7368-.0109-.5553-.2142-1.0888-.5735-1.5098-.3629-.421-.8601-.7004-1.4081-.7912-.5481-.0907-1.107.0109-1.5897.2904-.4791.2794-.8456.7186-1.038 1.2376-.1198.3556-.1524.7367-.098 1.1069.0545.3702.196.7259.4138 1.0308.2177.3048.5045.5553.8384.7295s.704.2649 1.0779.2685c.4972 0 .9835-.1597 1.3864-.45.4028-.2904.7041-.7041.8601-1.1759z"/><path d="m54.113 71.6065c-.0689.2069-.1052.421-.1052.6388-.0073.4863.1597.9618.4718 1.3356s.7477.6242 1.2267.7041c.4791.0798.9727-.0109 1.3901-.2649.4174-.2505.7295-.6425.8855-1.107.069-.2069.1017-.421.1053-.6388.0072-.4863-.1597-.9617-.4718-1.3355-.3122-.3739-.7477-.6243-1.2267-.7041-.4791-.0799-.9727.0108-1.3901.2649-.4174.2504-.7295.6424-.8856 1.1069zm-.6278-.2105c.2214-.6424.675-1.1795 1.2702-1.5025.5989-.323 1.2957-.4101 1.9526-.2432.6569.167 1.2304.5771 1.6006 1.1469s.5117 1.2594.3956 1.9272c-.1162.6714-.4791 1.2702-1.0162 1.6876-.5372.4138-1.2159.6097-1.8909.548-.6787-.0617-1.3066-.3738-1.7603-.8783-.4536-.5045-.7041-1.1613-.6968-1.84 0-.2867.0508-.5735.1452-.8457z"/><path d="m42.8753 72.9055c.0798-.2359.1197-.4863.1197-.7368-.0109-.5553-.2141-1.0888-.5734-1.5098-.3629-.421-.8602-.7004-1.4082-.7912-.548-.0907-1.1069.0109-1.5897.2904-.4827.2794-.8456.7186-1.0379 1.2376-.138.4174-.1597.8638-.0618 1.292.098.4283.3122.8203.617 1.136.2831.2904.6388.5045 1.0308.6206.392.1162.8057.1271 1.2013.0363.3956-.0907.7658-.2831 1.067-.5553.3013-.2722.5299-.6206.6569-1.0089l-.0254-.0109z"/><path d="m38.6894 71.4943c-.069.2068-.1052.421-.1052.6387 0 .4827.1669.9545.479 1.3247.3122.3702.744.617 1.2231.6969.4755.0798.969-.0109 1.3828-.2577.4174-.2468.7295-.6352.8856-1.0925.1197-.3629.1342-.7512.0435-1.1214s-.2795-.7077-.5517-.9763c-.2431-.2468-.548-.4283-.8819-.5263s-.6896-.1052-1.0271-.029c-.3412.0798-.6533.2432-.9109.4754-.2577.2323-.4537.5299-.5626.8602l.029.0109zm-.6605-.2214c.2177-.6497.6678-1.1941 1.2702-1.5244.5989-.3302 1.303-.421 1.9671-.2576.6642.1633 1.2413.5734 1.6187 1.1432.3775.5698.5226 1.263.4138 1.9381-.1125.675-.4718 1.2847-1.0126 1.7021-.5408.421-1.2195.6207-1.9018.5626s-1.3174-.3702-1.7784-.8747c-.4609-.5045-.715-1.165-.7113-1.851 0-.2867.0472-.5734.1415-.8456z"/><path d="m50.5311 81.0827c.0799-.2396.1234-.49.1234-.744-.0109-.5553-.2141-1.0888-.5734-1.5098-.3629-.421-.8602-.7005-1.4082-.7912-.548-.0908-1.1106.0109-1.5897.2903-.479.2795-.8456.7187-1.0343 1.2413-.0799.2395-.1234.4899-.127.7403.0145.5517.2214 1.0779.5843 1.4953.3629.4138.8565.6932 1.4009.784.5444.0907 1.1033-.0109 1.5788-.2868.4754-.2758.8456-.7077 1.038-1.223h.0072z"/><path d="m46.34 79.6704c-.1379.4101-.1451.8529-.0181 1.2667.127.4137.3847.7767.7295 1.0344.3484.2576.7658.3992 1.2013.4065.4355.0072.8565-.1271 1.2086-.3775.352-.2504.617-.6061.7549-1.0162.1379-.4102.1415-.8529.0109-1.2667-.1307-.4137-.3884-.773-.7368-1.0307s-.7694-.3956-1.2013-.3992c-.4283-.0037-.8493.127-1.2013.3738-.3521.2504-.6134.6024-.7513 1.0089zm-.6278-.2105c.2177-.646.6678-1.1904 1.2666-1.517.5989-.3303 1.2993-.421 1.9598-.2577.6642.1633 1.2377.5734 1.6151 1.1432.3738.5699.5226 1.2594.4101 1.9345-.1125.675-.4718 1.2811-1.0089 1.6985-.5372.421-1.2159.6206-1.8946.5625-.6786-.058-1.3138-.3701-1.7747-.871-.4609-.5044-.715-1.1614-.7113-1.8437 0-.2867.0471-.5734.1379-.8456z"/><path d="m50.4636 89.2017c.1996-.5953.1561-1.2485-.1234-1.8147-.2794-.5662-.773-.9944-1.3682-1.1977-.5952-.1996-1.2485-.156-1.8147.1234-.5626.2795-.9945.7731-1.1941 1.3683-.0798.2395-.1234.4899-.1234.744.0109.5553.2142 1.0888.5771 1.5098s.8602.7005 1.4082.7912 1.1106-.0109 1.5896-.2904c.4791-.2794.8457-.7186 1.0344-1.2412l.0182.0073z"/><path d="m46.2813 87.79c-.1742.5117-.1343 1.0743.1053 1.557.2395.4863.6642.8528 1.1759 1.0271.5117.1742 1.0743.1343 1.557-.1053.4863-.2395.8529-.6641 1.0271-1.1759.0689-.2068.1052-.421.1125-.6387.0072-.4864-.1597-.9618-.4718-1.3357-.3121-.3738-.7477-.6242-1.2304-.704-.4827-.0799-.9763.0145-1.3936.2649-.4174.2504-.7295.646-.882 1.1069zm-.6351-.2142c.2069-.6097.6242-1.1251 1.1759-1.4517.5517-.3303 1.2013-.4536 1.8365-.3448.6351.1053 1.2085.4355 1.6223.9255.4137.49.6387 1.1142.6387 1.7566 0 .2867-.0472.5734-.1379.8456-.2286.6824-.7186 1.2413-1.3646 1.5606-.646.3194-1.3864.3702-2.0687.138-.6823-.2287-1.2413-.7186-1.5607-1.3646-.3193-.6424-.3702-1.3865-.1379-2.0688z"/><path d="m58.2424 81.1408c.0798-.2395.1234-.49.1234-.744-.0109-.5553-.2142-1.0888-.5735-1.5098-.3629-.421-.8601-.7005-1.4045-.7912-.5481-.0908-1.1106.0109-1.5897.2903-.4791.2795-.8456.7186-1.038 1.2376-.0798.2395-.1234.49-.1234.744.0109.5553.2142 1.0889.5735 1.5099.3629.421.8601.7004 1.4045.7911.548.0908 1.1106-.0108 1.5897-.2903.479-.2795.8456-.715 1.0343-1.2376z"/><path d="m54.0624 79.7252c-.0689.2069-.1052.421-.1052.6388 0 .4827.1669.9545.4791 1.3247.3121.3702.744.617 1.223.7004.4755.0799.9691-.0108 1.3828-.2576.4138-.2468.7295-.6352.8856-1.0925.1197-.3629.1343-.7512.0435-1.1214-.0907-.3702-.2794-.7078-.5516-.9763-.3811-.3848-.8965-.6025-1.4372-.6061-.4283-.0036-.8493.127-1.1977.3774s-.6098.6025-.7477 1.009l.0291.0072zm-.6605-.2214c.2178-.6496.6678-1.194 1.2703-1.5243.5988-.3303 1.2993-.421 1.9671-.2577.6641.1633 1.2412.5734 1.6187 1.1433.3774.5698.5226 1.263.4137 1.938-.1125.6751-.4718 1.2848-1.0126 1.7058s-1.2194.6206-1.9018.5625c-.6823-.058-1.3174-.3701-1.7783-.8746-.461-.5045-.715-1.165-.7114-1.851 0-.2867.0472-.5734.1379-.8456z"/><path d="m42.8149 81.028c.0799-.2395.1234-.4899.127-.7403-.0109-.5553-.2141-1.0888-.5734-1.5098-.3629-.421-.8602-.7005-1.4046-.7949-.5444-.0943-1.1105.0109-1.5896.2904-.4791.2794-.8456.7186-1.038 1.2376-.0798.2395-.1234.4899-.1234.744.0109.5553.2141 1.0888.5734 1.5098.363.421.8602.7005 1.4046.7912.548.0908 1.1069-.0109 1.5896-.2903.4791-.2795.8457-.7187 1.038-1.2377z"/><path d="m38.628 79.6203c-.0689.2032-.1052.4174-.1052.6351-.0073.4863.1597.9618.4718 1.3356.3121.3739.7476.6243 1.2267.7077.4791.0799.9727-.0108 1.39-.2613.4174-.2504.7295-.6423.8856-1.1069.069-.2069.1053-.421.1053-.6388.0072-.4863-.1597-.9618-.4718-1.3356-.3122-.3738-.7477-.6242-1.2304-.704-.4827-.0799-.9763.0145-1.3937.2649-.4173.254-.7295.646-.8819 1.1105zm-.6278-.2105c.2068-.6097.6242-1.1215 1.1759-1.4517.5516-.3303 1.2013-.4501 1.8364-.3448.6315.1052 1.2086.4355 1.6223.9254.4138.4936.6388 1.1143.6352 1.7567 0 .3919-.0871.7802-.2541 1.1359-.1669.3557-.4101.6715-.7077.9255-.3012.2541-.6533.4392-1.0307.5408-.3775.1016-.7767.1234-1.1651.0581-.3883-.0654-.7549-.2142-1.0815-.4356-.323-.2214-.5952-.5117-.7985-.8492-.1996-.3376-.3266-.715-.3665-1.107-.0399-.3919.0036-.7875.1306-1.1577z"/><path d="m30.3952 50.8721 32.0398.2323c1.0634.0073 1.9199.8747 1.9126 1.9381l-.0254 3.3607c-.0072 1.0634-.8746 1.92-1.938 1.9127l-32.0399-.2323c-1.0634-.0072-1.9199-.8746-1.9126-1.938l.0254-3.3608c.0072-1.0634.8747-1.9199 1.9381-1.9127z"/><path d="m32.4183 54.4869 32.0398.2322c1.0634.0073 1.92.8747 1.9091 1.9381l-.0254 3.3608c-.0073 1.0634-.8747 1.9199-1.9381 1.9126l-32.0398-.2322c-1.0634-.0073-1.9199-.8747-1.9127-1.9381l.0254-3.3608c.0073-1.0634.8747-1.9199 1.9381-1.9126z"/><path d="m30.3421 58.5303 32.0399.2323c1.0634.0072 1.9199.8747 1.909 1.9381l-.0254 3.3607c-.0073 1.0634-.8747 1.9199-1.9381 1.9127l-32.0398-.2323c-1.0634-.0072-1.9199-.8747-1.9127-1.9381l.0255-3.3607c.0072-1.0634.8746-1.9199 1.938-1.9127z"/></g><path d="m64.3811 99.6501c.1815-.5371.2759-1.0996.2831-1.6695l.3666-51.2317c.0109-1.4155-.5444-2.7765-1.5388-3.7854-.9945-1.009-2.3482-1.5788-3.7637-1.5897l-24.5379-.1924c-.7005-.0072-1.3973.1271-2.047.3884-.6496.2613-1.2412.6533-1.7421 1.1432-.5008.4936-.8964 1.0779-1.1686 1.724-.2722.646-.4138 1.3392-.4174 2.0397l-.3738 51.2535c-.0073 1.4154.548 2.7768 1.5424 3.7818.9945 1.009 2.3446 1.582 3.76 1.593l24.5489.178c1.1215.007 2.2212-.341 3.1321-.994.9146-.654 1.5969-1.579 1.9562-2.6425z" fill="#01090f" stroke="#000" stroke-width=".75"/><path d="m62.6405 97.9522c.1742-.5154.265-1.0561.2722-1.6005l.3376-47.8964c.0072-.6714-.1198-1.3393-.3739-1.9635-.254-.6243-.6242-1.1904-1.096-1.6695s-1.0344-.8602-1.655-1.1215-1.2848-.3956-1.9562-.3992l-21.4494-.1524c-1.0779-.0109-2.1304.323-3.0051.9472-.8783.6243-1.5352 1.5135-1.8764 2.5333-.1742.5154-.2649 1.0525-.2686 1.5933l-.3411 47.9001c-.0073 1.3573.5226 2.6603 1.4771 3.6257.9509.9652 2.2502 1.5132 3.604 1.5242l21.4494.153c1.0779.01 2.1304-.323 3.0087-.948.8783-.624 1.5352-1.5132 1.8764-2.533z" fill="#e9f1ff" stroke="#000" stroke-width=".75"/><path d="m38.4865 42.6992v.4501c-.0072.5335.1996 1.0489.5735 1.4263.3738.3811.8855.5988 1.419.6025l13.9585.098c.5335 0 1.0452-.2033 1.4263-.5807.3811-.3739.5952-.8856.6025-1.4191v-.4573" fill="#01090f"/><path d="m38.4865 42.6992v.4501c-.0072.5335.1996 1.0489.5735 1.4263.3738.3811.8855.5988 1.419.6025l13.9585.098c.5335 0 1.0452-.2033 1.4263-.5807.3811-.3739.5952-.8856.6025-1.4191v-.4573" stroke="#000" stroke-linecap="round" stroke-miterlimit="10" stroke-width=".75"/><path d="m46.6664 43.1021 3.7128.0254c.1198 0 .2178.0979.2178.2213v.3702c0 .1198-.1016.2178-.225.2178l-3.7128-.0254c-.1198 0-.2178-.098-.2178-.2214v-.3702c0-.1198.1016-.2177.225-.2177z" fill="#000"/><path d="m45.1258 43.0942h.0072c.1924 0 .3448.1561.3448.3485v.1161c0 .1924-.1597.3448-.3484.3448h-.0073c-.1923 0-.3448-.1561-.3448-.3484v-.1162c0-.1923.1561-.3448.3485-.3448z" fill="#000"/><path d="m48.9351 67.9588.1052-.2794c.0109-.0799.0181-.1634.0181-.2432 0-.4754-.185-.9327-.5153-1.2739-.2141-.2214-.4791-.3811-.7731-.4682-.2939-.0871-.6061-.098-.9037-.029-.2976.0689-.577.2141-.8021.4174-.2286.2068-.3956.4681-.4935.7585-.0581.1778-.0908.3666-.098.5553.0145.4101.1705.8021.4427 1.1106.2722.3121.6461.5226 1.0562.5879.4101.069.8311-.0073 1.1904-.2141.3593-.2069.6351-.5335.7839-.9219z" fill="#fff" stroke="#000" stroke-width=".75"/><path d="m56.7361 67.8392c.0799-.3919.0291-.7984-.1488-1.1614-.2105-.4246-.5807-.7476-1.0307-.9-.45-.1525-.94-.1198-1.3646.0907-.4247.2105-.7477.5807-.9001 1.0307-.0581.1779-.0907.363-.0907.5517.0072.4174.1633.8166.4319 1.1323.2722.3158.6496.5263 1.0597.5953.4138.0689.8348-.0073 1.1977-.2214.3593-.2105.6351-.5408.7803-.9328l.069-.1887z" fill="#fff" stroke="#000" stroke-width=".75"/><path d="m38.6604 65.876c-.3593.2105-.6352.5371-.7767.9255-.0581.1742-.0871.3593-.0907.5444.0072.4174.1597.8166.4319 1.1323.2722.3158.646.5263 1.0597.5953.4138.0689.8348-.0073 1.1977-.2214.3303-.1924.588-.4864.7404-.8348l.029-.0871c.0581-.1778.0908-.3629.098-.5517-.0109-.4137-.1633-.8129-.4319-1.1251-.2722-.3157-.646-.5262-1.0597-.5988-.4102-.069-.8348.0073-1.1941.2178z" fill="#fff" stroke="#000" stroke-width=".75"/><path d="m48.9821 75.5479c0-.45-.167-.8819-.4682-1.2122-.3013-.3303-.7186-.5335-1.165-.5734-.4464-.0363-.8892.0943-1.2449.3702-.3521.2758-.5916.675-.6642 1.1142-.0725.4428.0218.8964.2686 1.2703.2468.3738.6242.6423 1.0598.7512.4355.1089.8928.0472 1.2884-.1669.3919-.2142.6896-.5698.8311-.9945l.5553.1851-.5553-.1887c.0617-.1778.0907-.3666.0907-.5553z" fill="#fff" stroke="#000" stroke-width=".75"/><path d="m54.0217 74.1069c-.3593.2105-.6351.5372-.7767.9255-.058.1742-.0871.3593-.0907.5444.0073.4174.1597.8166.4319 1.1324.2722.3157.6496.5262 1.0598.5952.4137.0689.8347-.0073 1.1976-.2214.3593-.2105.6315-.5371.7767-.9291.0581-.1742.0871-.3557.0871-.5371-.0072-.4174-.1597-.8166-.4319-1.1324-.2722-.3157-.646-.5263-1.0597-.5988-.4138-.069-.8348.0072-1.1977.2177z" fill="#fff" stroke="#000" stroke-width=".75"/><path d="m40.4181 76.9671c.3593-.2105.6352-.5372.7767-.9255.0581-.1742.0871-.3593.0907-.5444-.0072-.4138-.1597-.8166-.4319-1.1287-.2722-.3158-.646-.5263-1.0597-.5952-.4101-.069-.8348.0072-1.1941.2177s-.6351.5372-.7766.9255c-.0581.1742-.0871.3593-.0908.5444.0073.4137.1597.8166.4319 1.1287.2722.3158.646.5263 1.0598.5952.4101.069.8347-.0072 1.194-.2177z" fill="#fff" stroke="#000" stroke-width=".75"/><path d="m48.927 83.9137c.0109-.0798.0182-.1633.0182-.2431 0-.4755-.1851-.9328-.5154-1.2739-.2141-.2214-.4791-.3811-.773-.4682-.294-.0871-.6061-.098-.9037-.0291-.2977.069-.5771.2142-.8021.4174-.2251.2033-.3993.4682-.4936.7585-.0581.1779-.0944.3666-.098.5517.0145.4101.1706.8021.4391 1.1106.2722.3121.646.5226 1.0562.5916.4101.069.8311-.0073 1.1904-.2142.3593-.2068.6351-.5334.7839-.9218l.1053-.2795z" fill="#fff" stroke="#000" stroke-width=".75"/><path d="m48.1332 93.2305c.3048-.2177.5371-.5262.6569-.8819.1524-.45.1197-.94-.0908-1.3646s-.5807-.7476-1.0307-.9001c-.4501-.1524-.94-.1197-1.3646.0908-.4247.2105-.7477.5806-.9001 1.0307-.0908.2685-.1162.5517-.0726.8347.0399.2795.1488.5444.3121.7767.1634.2287.3811.4174.6315.548.2505.1307.5299.1996.813.1996.3775 0 .744-.1125 1.0489-.3302z" fill="#fff" stroke="#000" stroke-width=".75"/><path d="m56.552 84.2547.0653-.1815c.0435-.2068.0508-.421.0181-.6315-.0399-.2794-.1488-.5444-.3121-.7767-.1633-.2322-.3811-.4173-.6315-.5516s-.5299-.1996-.8094-.2032c-.3738 0-.744.1125-1.0488.3302-.3049.2178-.5372.5263-.6569.8856-.0581.1778-.0908.3629-.0908.5516.0073.4138.1597.8166.4319 1.1288.2722.3157.646.5262 1.0598.5952.4101.0689.8347-.0073 1.194-.2178s.6388-.5408.7804-.9327z" fill="#fff" stroke="#000" stroke-width=".75"/><path d="m38.5396 82.117c-.3593.2105-.6352.5371-.7767.9291-.0581.1742-.0871.3557-.0871.5371.0072.4138.1597.8166.4319 1.1324s.646.5263 1.0597.5952c.4102.069.8348-.0072 1.1977-.2177.3303-.1924.5916-.4864.7404-.8348l.0291-.0835c.0617-.1778.0943-.3665.0979-.5553-.0109-.4137-.1633-.8129-.4319-1.1251-.2722-.3157-.6496-.5262-1.0597-.5952-.4138-.0689-.8348.0073-1.1977.2178z" fill="#fff" stroke="#000" stroke-width=".75"/><path d="m3.41602 107.021c0-.102.098-.174.19599-.142l1.1614.414c.09436.033.12702.153.06532.229l-1.12872 1.412c-.0871.109-.25769.047-.26132-.091l-.03267-1.826z" fill="#000"/><path d="m25.2947 31.8461c.156-.4573.4863-.8347.9182-1.0488.4355-.2142.9364-.2505 1.3937-.0944l4.8197 1.6187c.4573.1524.8384.4827 1.0525.9146.2178.4319.2505.9327.1017 1.3936l-.0327.1016-8.2822-2.78.0327-.1017z" fill="#000"/><path d="m28 30.7315c.2286-.4827.6242-.8638 1.1142-1.0707.49-.2105 1.038-.2323 1.5461-.0617.5045.1706.9291.519 1.1941.9799.2649.461.352 1.0054.2431 1.528l-4.0939-1.3755z" fill="#000"/><path d="m31.7929 31.6535-3.2845-1.1033c.1887-.2468.4391-.4428.7222-.5662.2867-.1234.5988-.1742.9073-.1451.3085.029.6061.1379.8638.3121s.4646.4137.6025.6932c.127.2504.1923.5262.1887.8057zm.5553.8166c.2105-.6315.1633-1.3247-.1343-1.9199-.2976-.5988-.8202-1.0525-1.4517-1.263s-1.3211-.1633-1.9199.1343c-.5952.2976-1.0525.8166-1.2667 1.4481l-.0326.1016 4.7725 1.6005z" fill="#000"/><path d="m24.7803 51.4159-2.5986-.871c-.294-.098-.6134.058-.7114.352l-15.94727 47.5117c-.09799.294.06169.6134.35204.7114l2.59859.871c.29398.098.61337-.0581.71136-.352l15.94728-47.5117c.098-.294-.058-.6134-.352-.7114z" fill="#000"/><path d="m8.85904 99.5265c-.01814.0544-.05806.098-.10887.1234s-.10889.029-.16333.0108l-2.5986-.871c-.05444-.0181-.098-.0581-.1234-.1089-.02541-.0508-.02903-.1088-.01088-.1633l15.94734-47.5117c.0181-.0544.0581-.098.1089-.1234s.1088-.029.1633-.0109l2.5986.8711c.0544.0181.098.058.1234.1088.0254.0509.029.1089.0109.1634l-15.94736 47.5117.65693.2213zm16.60426-47.2903c.0762-.2287.0581-.4791-.0472-.6932-.1089-.2142-.294-.3811-.5226-.4573l-2.5986-.8711c-.2287-.0762-.4791-.058-.6932.0472-.2178.1089-.3811.294-.4573.5226l-15.94735 47.5117c-.07622.2287-.05807.4791.04718.6932.10525.2142.29761.3811.52263.4573l2.5986.8714c.22865.076.47545.058.69321-.048.21413-.108.38109-.2935.4573-.5222z" fill="#000"/><path d="m23.9046 46.61c.0399-.1234.1052-.2359.1887-.3376.0835-.098.1887-.1778.3049-.2359.1161-.058.2431-.0943.3738-.1016.1306-.0073.2613.0073.3811.0472.1851.0617.352.1778.4718.3303.1197.156.1923.3411.2068.5371.0146.196-.029.392-.127.5625-.098.1706-.2431.3086-.4174.3957-.1742.0871-.3738.1233-.5698.0979-.1959-.0254-.3774-.1052-.5262-.2359-.1488-.127-.2541-.2976-.3049-.4863s-.0472-.3883.0182-.5771z" fill="#000"/><path d="m25.4505 47.1295c-.0254.0798-.0689.1524-.1234.2177-.0544.0654-.1234.1162-.196.1525-.156.0725-.3338.0834-.4935.029-.1198-.0399-.2287-.1161-.3049-.2178-.0762-.1016-.1234-.225-.1343-.352-.0073-.127.0218-.2541.0835-.3666.0653-.1089.1597-.1996.2722-.2576.1161-.0581.2431-.0763.3702-.0618.127.0182.2468.0726.3411.1561.0944.0835.1633.196.196.3194s.029.254-.0145.3738zm.6569.2214c.0581-.167.0799-.3412.069-.519-.0109-.1742-.0581-.3484-.1379-.5045-.0799-.1561-.1887-.2976-.3194-.4138-.1307-.1161-.2867-.2032-.4537-.2576-.2504-.0835-.5226-.0908-.7767-.0218-.254.069-.4827.2141-.6569.4137s-.2831.4464-.3193.7077c-.0327.2614.0109.5299.1306.7658.1198.2359.3049.4319.5335.5662.2287.1307.4936.1924.7549.1742.265-.0181.5154-.1125.7259-.2758s.3666-.3811.45-.6315z" fill="#000"/><path d="m26.0155 41.2317c.2323-.1162.5045-.1343.7513-.0545.1851.0617.3521.1778.4718.3303.1198.156.1924.3411.2069.5371s-.029.392-.127.5626c-.098.1705-.2432.3085-.421.3956-.1742.0871-.3739.1197-.5698.0943-.196-.0254-.3775-.1088-.5263-.2359-.1488-.1306-.254-.3012-.3049-.4899-.0508-.1888-.0435-.392.0182-.5771.0835-.2468.2613-.45.4972-.5662z" fill="#000"/><path d="m27.0655 42.3168c-.0254.0799-.069.1561-.1271.2178-.0544.0653-.1233.1161-.1996.1524-.0762.0363-.1596.0617-.2431.0654-.0835.0072-.1706-.0037-.2504-.0327-.1198-.0399-.2287-.1161-.3049-.2178-.0762-.1016-.1234-.2214-.1343-.3484-.0073-.127.0218-.254.0835-.3665.0617-.1089.1597-.1996.2722-.2577s.2431-.0799.3702-.0617c.127.0145.2468.0689.3411.1524.0944.0835.167.1924.1996.3158.0327.1234.0291.254-.0108.3738zm.6569.2214c.0544-.1669.0798-.3411.0653-.5153-.0109-.1742-.058-.3448-.1379-.5009-.0798-.156-.1887-.2976-.3194-.4101-.1343-.1161-.2867-.2032-.4536-.2577-.2505-.0835-.5227-.0907-.7767-.0218-.2577.069-.4864.2142-.6606.4138s-.2831.4464-.3157.7113c-.0327.2614.0109.5299.1307.7658.1197.2359.3048.4319.5335.5626.2286.1306.4936.1923.7585.1706.2649-.0182.5154-.1162.7259-.2795s.3665-.3847.4464-.6351z" fill="#000"/><path d="m27.1744 36.8691c.0399-.1234.1052-.2359.1887-.3375.0835-.098.1887-.1779.3049-.236.1161-.058.2431-.0943.3738-.1016.1306-.0109.2613.0073.3847.0472.1851.0617.352.1778.4718.3303.1198.156.1924.3411.2069.5371s-.0291.392-.1271.5626c-.0979.1706-.2431.3085-.4173.3956s-.3738.1234-.5698.098-.3775-.1053-.5263-.236c-.1488-.127-.254-.2976-.3048-.4863s-.0472-.3883.0181-.5771z" fill="#000"/><path d="m28.3936 37.7548c-.1525.0762-.3303.0871-.49.0327-.1198-.04-.2286-.1162-.3049-.2178-.0762-.1016-.1234-.225-.1342-.352-.0073-.1271.0217-.2541.0871-.3666.0653-.1125.1596-.1996.2722-.2577.1125-.0581.2431-.0762.3702-.0617.127.0182.2467.0726.3411.1561s.1633.196.196.3194.029.254-.0145.3738c-.0545.1597-.1742.294-.3267.3665zm1.0089-.9255c-.0689-.254-.2105-.4863-.4101-.6605s-.4464-.2867-.7077-.3194-.5299.0109-.7658.127c-.2359.1162-.4355.3013-.5662.5335-.1306.2287-.1923.4936-.1742.7586.0181.2649.1125.519.2758.7258.1634.2105.3811.3666.6352.4501.1669.0581.3411.0798.5153.0689.1743-.0109.3448-.058.5045-.1343.1561-.0762.2976-.1851.4138-.3193.1161-.1307.2032-.2868.2577-.4537.0871-.2504.0943-.5226.0254-.7767z" fill="#000"/><path d="m3.93342 97.4104 6.22798 2.0905-4.77264 7.7451c-.02903.051-.06896.04-.06896.04l-2.20662-.741s-.02178-.018-.02904-.032c-.00726-.015-.00726-.029-.00363-.044l.85652-9.0623z" fill="#fff" stroke="#000" stroke-width=".75"/><path d="m26.5284 26.6489-22.92293 68.2969 8.27853 2.7765 22.9229-68.2933-8.2785-2.7765z" fill="#fbe62e" stroke="#000" stroke-width=".75"/><path d="m3.59229 94.9824 8.28941 2.7801-.4936 1.4735c-.069.1996-.2141.3666-.4028.4609-.1888.0944-.4102.1089-.6098.0436l-6.77233-2.272c-.19962-.0689-.36657-.2141-.46094-.4028-.09436-.1888-.10888-.4102-.04355-.6098z" fill="#fff" stroke="#000" stroke-width=".75"/><path d="m26.6027 26.4274c.1561-.461.4863-.8384.9182-1.0562.4355-.2141.9364-.2504 1.3937-.098l4.8161 1.6187c.4573.1561.8348.4864 1.0525.9182.2142.4319.2468.9328.0944 1.3937l-.0327.098-8.2785-2.7764.0327-.098z" fill="#fff" stroke="#000" stroke-width=".75"/><path d="m29.3047 25.3169c.2286-.4827.6242-.8638 1.1142-1.0706.49-.2105 1.038-.2323 1.5425-.0617.5044.1706.9291.519 1.194.9799.265.4609.3521 1.0053.2432 1.528z" fill="#000" stroke="#000" stroke-width=".75"/><path d="m26.1994 45.6591-2.5914-.8711c-.4754-.1596-.9908.098-1.1505.5735l-15.94728 47.5117c-.15969.4754.098.9908.57344 1.1505l2.59497.871c.47547.1597.99087-.098 1.15047-.5734l15.9474-47.5117c.1597-.4754-.098-.9908-.5735-1.1505z" fill="#e0e0e0" stroke="#000" stroke-linejoin="round" stroke-width=".75"/><path d="m25.2161 41.1881c.0326-.1343.0943-.2577.1778-.3665.0835-.1089.1887-.196.3085-.265.1198-.0653.2541-.1052.3883-.1161.1343-.0109.2722.0036.4029.0471.1307.0436.2504.1125.3484.2033.1016.0907.1815.2032.2395.3266.0581.1234.0871.2577.0871.3956 0 .138-.0253.2722-.0798.3993-.098.2286-.2795.4137-.5045.5153-.2286.1016-.4863.1162-.7222.0363-.2359-.0798-.4355-.2468-.5553-.4645-.1198-.2178-.1524-.4755-.0907-.7186z" fill="#fff" stroke="#000" stroke-width=".75"/><path d="m26.8305 36.3754c.0835-.2468.2613-.4536.4936-.5698.2323-.1161.5045-.1343.7513-.0508.1851.0617.352.1779.4718.3303.1198.156.1923.3411.2069.5371.0145.196-.0291.392-.1271.5626-.098.1705-.2431.3085-.4173.3956-.1779.0871-.3739.1197-.5699.0943-.1959-.0254-.3774-.1088-.5262-.2359-.1488-.127-.2541-.3012-.3049-.49-.0508-.1887-.0435-.3919.0218-.577z" fill="#fff" stroke="#000" stroke-width=".75"/><path d="m29.106 32.6914c.5154.1742 1.0743-.1052 1.2485-.6206.1743-.5154-.1052-1.0743-.6206-1.2485-.5153-.1742-1.0743.1053-1.2485.6206-.1742.5154.1053 1.0743.6206 1.2485z" fill="#fff" stroke="#000" stroke-width=".75"/></svg>