<svg fill="none" height="112" viewBox="0 0 113 112" width="113" xmlns="http://www.w3.org/2000/svg"><g stroke-width=".75"><path d="m92.8672 101.969v-29.6389h-3.7986v29.6389z" fill="#e9f1ff" stroke="#1d1d1b" stroke-miterlimit="10"/><path d="m55.9961 101.969v-29.6389h-3.7986v29.6389z" fill="#e9f1ff" stroke="#1d1d1b" stroke-miterlimit="10"/><path d="m68.7012 101.969v-29.6389h-3.7986v29.6389z" fill="#e9f1ff" stroke="#1d1d1b" stroke-miterlimit="10"/><path d="m105.574 101.969v-29.6389h-3.798v29.6389z" fill="#d5e3fc" stroke="#1d1d1b" stroke-miterlimit="10"/><path d="m92.8692 56.3271h-86.34576v4.4146h86.34576z" fill="#e9f1ff" stroke="#1d1d1b" stroke-miterlimit="10"/><path d="m10.2988 102.038v-45.6796h-3.79857v45.6796z" fill="#e9f1ff" stroke="#1d1d1b" stroke-miterlimit="10"/><path d="m105.574 56.3271h-12.7068v4.4146h12.7068z" fill="#d5e3fc" stroke="#1d1d1b" stroke-miterlimit="10"/><path d="m105.574 60.7417h-12.7068v12.3503h12.7068z" fill="#d5e3fc" stroke="#1d1d1b" stroke-miterlimit="10"/><path d="m92.8674 60.7417h-40.6701v12.3207h40.6701z" fill="#e9f1ff" stroke="#1d1d1b" stroke-miterlimit="10"/><path d="m72.5316 68.9089c.9538 0 1.7269-.8985 1.7269-2.0069s-.7731-2.007-1.7269-2.007c-.9537 0-1.7269.8986-1.7269 2.007s.7732 2.0069 1.7269 2.0069z" fill="#000" stroke="#1d1d1b" stroke-miterlimit="10"/><path d="m90.7906 18h-50.5234c-1.7386 0-3.1481 1.4103-3.1481 3.15v24.9127c0 1.7397 1.4095 3.1501 3.1481 3.1501h50.5234c1.7386 0 3.148-1.4104 3.148-3.1501v-24.9127c0-1.7397-1.4094-3.15-3.148-3.15z" fill="#d5dde0" stroke="#1d1d1b" stroke-miterlimit="10"/><path d="m90.19 21.2104h-49.3228v24.7887h49.3228z" fill="#549cf1" stroke="#000" stroke-linecap="round" stroke-linejoin="round"/><path d="m69.6987 49.2129h-8.3374v4.4845h8.3374z" fill="#d5dde0" stroke="#1d1d1b" stroke-miterlimit="10"/><path d="m90.19 21.2104h-49.3228v24.7887h49.3228z" stroke="#000" stroke-linecap="round" stroke-linejoin="round"/><path d="m52.3066 53.793h26.4427v2.34653h-26.4427z" fill="#d9d9d9" stroke="#000"/><g stroke="#1d1d1b" stroke-miterlimit="10"><path d="m31.7036 79.6646h-2.6411v16.0427h2.6411z" fill="#9baeb5"/><path d="m15.0195 95.749v-1.0735c0-.4353.1681-.8529.4673-1.1607.2992-.3079.7049-.4808 1.128-.4808h27.5352c.4231 0 .8288.1729 1.128.4808.2992.3078.4673.7254.4673 1.1607v1.0735z" fill="#9baeb5"/><path d="m44.1388 101.883c1.8069 0 3.2716-1.507 3.2716-3.3666 0-1.8593-1.4647-3.3665-3.2716-3.3665s-3.2716 1.5072-3.2716 3.3665c0 1.8596 1.4647 3.3666 3.2716 3.3666z" fill="#6d8894"/><path d="m30.9353 95.1499h-1.2306c-.9188 0-1.6637.7664-1.6637 1.7119v3.4652c0 .946.7449 1.712 1.6637 1.712h1.2306c.9188 0 1.6637-.766 1.6637-1.712v-3.4652c0-.9455-.7449-1.7119-1.6637-1.7119z" fill="#6d8894"/><path d="m46.6204 78.9925h-31.5994c-1.8814 0-3.4058-1.4747-3.4058-3.2935 0-3.9891 5.2012-4.1272 6.4749-2.3294 2.0738-1.6571 6.2798-1.7562 8.4297 0 2.2511-1.5425 6.3482-1.6571 8.5107 0 2.3195-1.6571 6.1684-1.7145 8.3867 0 1.7421-2.2642 6.5001-1.1855 6.5001 2.3294-.0015.4405-.0886.8762-.256 1.2816-.1674.4053-.4119.7722-.719 1.079-.3072.3068-.6707.5473-1.0695.7076-.3987.1602-.8245.2368-1.2524.2253z" fill="#fd9ec0"/><path d="m44.1389 99.8268c.7035 0 1.2737-.5868 1.2737-1.3106s-.5702-1.3106-1.2737-1.3106c-.7034 0-1.2737.5868-1.2737 1.3106s.5703 1.3106 1.2737 1.3106z" fill="#4a687b"/><path d="m16.8146 101.883c1.8068 0 3.2716-1.507 3.2716-3.3666 0-1.8593-1.4648-3.3665-3.2716-3.3665-1.8069 0-3.2716 1.5072-3.2716 3.3665 0 1.8596 1.4647 3.3666 3.2716 3.3666z" fill="#6d8894"/><path d="m16.8147 99.8268c.7035 0 1.2737-.5868 1.2737-1.3106s-.5702-1.3106-1.2737-1.3106c-.7034 0-1.2737.5868-1.2737 1.3106s.5703 1.3106 1.2737 1.3106z" fill="#4a687b"/><path d="m14.4496 79.0029h32.2805c0 .4326-.167.8475-.4643 1.1534s-.7005.4778-1.1209.4778h-29.1203c-.4204 0-.8236-.1719-1.1209-.4778-.2972-.3059-.4642-.7208-.4642-1.1534z" fill="#9baeb5"/><path d="m31.1813 80.6338h-5.3835c-.7286 0-1.3193.6078-1.3193 1.3575v.0026c0 .7498.5907 1.3575 1.3193 1.3575h5.3835c.7286 0 1.3192-.6077 1.3192-1.3575v-.0026c0-.7497-.5906-1.3575-1.3192-1.3575z" fill="#6d8894"/><path d="m29.691 80.6392h-5.3834c-.7287 0-1.3193.6077-1.3193 1.3575v.0026c0 .7497.5906 1.3575 1.3193 1.3575h5.3834c.7286 0 1.3193-.6078 1.3193-1.3575v-.0026c0-.7498-.5907-1.3575-1.3193-1.3575z" fill="#6d8894"/><path d="m28.2008 80.647h-5.3835c-.7286 0-1.3193.6078-1.3193 1.3575v.0026c0 .7497.5907 1.3575 1.3193 1.3575h5.3835c.7286 0 1.3193-.6078 1.3193-1.3575v-.0026c0-.7497-.5907-1.3575-1.3193-1.3575z" fill="#6d8894"/><path d="m26.7105 80.6548h-5.3834c-.7286 0-1.3193.6078-1.3193 1.3575v.0026c0 .7498.5907 1.3575 1.3193 1.3575h5.3834c.7287 0 1.3193-.6077 1.3193-1.3575v-.0026c0-.7497-.5906-1.3575-1.3193-1.3575z" fill="#9baeb5"/><path d="m33.7028 46.0391h-16.3859c-5.4681 0-9.90088 4.5613-9.90088 10.1879 0 5.6267 4.43278 10.1879 9.90088 10.1879h16.3859c5.4681 0 9.9009-4.5612 9.9009-10.1879 0-5.6266-4.4328-10.1879-9.9009-10.1879z" fill="#fd9ec0"/><path d="m32.7693 47.7246h-14.5399c-4.5633 0-8.2626 3.8065-8.2626 8.5021v.0026c0 4.6956 3.6993 8.5021 8.2626 8.5021h14.5399c4.5633 0 8.2625-3.8065 8.2625-8.5021v-.0026c0-4.6956-3.6992-8.5021-8.2625-8.5021z" fill="#9baeb5"/><path d="m26.6715 53.5117h-5.3835c-.7286 0-1.3192.6078-1.3192 1.3575v.0026c0 .7498.5906 1.3576 1.3192 1.3576h5.3835c.7286 0 1.3193-.6078 1.3193-1.3576v-.0026c0-.7497-.5907-1.3575-1.3193-1.3575z" fill="#9baeb5"/><path d="m26.6715 56.23h-5.3835c-.7286 0-1.3192.6078-1.3192 1.3575v.0026c0 .7498.5906 1.3575 1.3192 1.3575h5.3835c.7286 0 1.3193-.6077 1.3193-1.3575v-.0026c0-.7497-.5907-1.3575-1.3193-1.3575z" fill="#9baeb5"/><path d="m26.6715 58.9448h-5.3835c-.7286 0-1.3192.6078-1.3192 1.3575v.0027c0 .7497.5906 1.3575 1.3192 1.3575h5.3835c.7286 0 1.3193-.6078 1.3193-1.3575v-.0027c0-.7497-.5907-1.3575-1.3193-1.3575z" fill="#9baeb5"/><path d="m26.6715 61.6626h-5.3835c-.7286 0-1.3192.6078-1.3192 1.3575v.0026c0 .7498.5906 1.3575 1.3192 1.3575h5.3835c.7286 0 1.3193-.6077 1.3193-1.3575v-.0026c0-.7497-.5907-1.3575-1.3193-1.3575z" fill="#9baeb5"/><path d="m26.6715 64.3799h-5.3835c-.7286 0-1.3192.6078-1.3192 1.3575v.0026c0 .7498.5906 1.3575 1.3192 1.3575h5.3835c.7286 0 1.3193-.6077 1.3193-1.3575v-.0026c0-.7497-.5907-1.3575-1.3193-1.3575z" fill="#9baeb5"/><path d="m26.6715 67.0977h-5.3835c-.7286 0-1.3192.6077-1.3192 1.3575v.0026c0 .7497.5906 1.3575 1.3192 1.3575h5.3835c.7286 0 1.3193-.6078 1.3193-1.3575v-.0026c0-.7498-.5907-1.3575-1.3193-1.3575z" fill="#9baeb5"/><path d="m26.6715 69.8154h-5.3835c-.7286 0-1.3192.6078-1.3192 1.3575v.0027c0 .7497.5906 1.3575 1.3192 1.3575h5.3835c.7286 0 1.3193-.6078 1.3193-1.3575v-.0027c0-.7497-.5907-1.3575-1.3193-1.3575z" fill="#9baeb5"/><path d="m26.6715 72.5332h-5.3835c-.7286 0-1.3192.6078-1.3192 1.3575v.0026c0 .7498.5906 1.3576 1.3192 1.3576h5.3835c.7286 0 1.3193-.6078 1.3193-1.3576v-.0026c0-.7497-.5907-1.3575-1.3193-1.3575z" fill="#9baeb5"/><path d="m26.6715 75.248h-5.3835c-.7286 0-1.3192.6078-1.3192 1.3576v.0026c0 .7497.5906 1.3575 1.3192 1.3575h5.3835c.7286 0 1.3193-.6078 1.3193-1.3575v-.0026c0-.7498-.5907-1.3576-1.3193-1.3576z" fill="#9baeb5"/><path d="m26.6715 77.9658h-5.3835c-.7286 0-1.3192.6078-1.3192 1.3575v.0026c0 .7498.5906 1.3576 1.3192 1.3576h5.3835c.7286 0 1.3193-.6078 1.3193-1.3576v-.0026c0-.7497-.5907-1.3575-1.3193-1.3575z" fill="#9baeb5"/><path d="m24.2964 61.1515c1.1733 0 2.1245-.9787 2.1245-2.1861 0-1.2073-.9512-2.1861-2.1245-2.1861-1.1734 0-2.1245.9788-2.1245 2.1861 0 1.2074.9511 2.1861 2.1245 2.1861z" fill="#6d8894"/><path d="m23.3003 61.1515c1.1733 0 2.1245-.9787 2.1245-2.1861 0-1.2073-.9512-2.1861-2.1245-2.1861s-2.1245.9788-2.1245 2.1861c0 1.2074.9512 2.1861 2.1245 2.1861z" fill="#9baeb5"/></g></g></svg>