<svg width="88" height="87" viewBox="0 0 88 87" fill="none" xmlns="http://www.w3.org/2000/svg">
<path opacity="0.1" d="M45.3599 62.36C25.0967 51.6758 24.7283 31.0442 25.281 24.5969C25.281 23.4916 26.202 22.5706 27.3073 22.3863C35.9652 20.9127 42.2284 15.0179 44.9915 11.8863C45.9126 10.9653 47.3862 10.9653 48.3073 11.8863C51.0704 15.0179 57.1494 20.9127 65.9915 22.3863C67.0968 22.5706 67.8336 23.4916 68.0178 24.5969C68.3862 31.0442 68.202 51.4916 47.9388 62.36C47.0178 62.7285 46.0967 62.7285 45.3599 62.36Z" fill="#15357A"/>
<path d="M42.0438 62.3599C22.3333 51.8599 21.9649 31.9651 22.5175 25.5178C22.5175 24.4125 23.4386 23.4914 24.5438 23.3072C33.0175 21.8335 39.0965 16.123 41.6754 13.1757C42.5965 12.2546 44.0702 12.2546 44.807 13.1757C47.5702 16.3072 53.4649 22.0178 61.9386 23.3072C63.0438 23.4914 63.7807 24.4125 63.9649 25.5178C64.3333 31.7809 64.1491 51.8599 44.4386 62.3599C43.5175 62.7283 42.5965 62.7283 42.0438 62.3599Z" fill="white" stroke="#15357A" stroke-width="1.5" stroke-miterlimit="10" stroke-linecap="round" stroke-linejoin="round"/>
<path opacity="0.1" d="M43.1493 11.1494V62.9126C18.0966 50.5705 22.5177 23.6757 22.5177 23.6757C35.4124 22.3863 43.1493 11.1494 43.1493 11.1494Z" fill="#15357A"/>
<path d="M35.7808 38.9652L42.4123 44.3073L54.2018 29.7546" stroke="#2C71F0" stroke-width="2" stroke-miterlimit="10"/>
<path d="M69.8599 36.5706H78.5177" stroke="#15357A" stroke-width="1.2" stroke-miterlimit="10" stroke-linecap="round" stroke-linejoin="round"/>
<path d="M67.4648 16.1231L73.5438 10.0442" stroke="#15357A" stroke-width="1.2" stroke-miterlimit="10" stroke-linecap="round" stroke-linejoin="round"/>
<path d="M67.4648 57.0178L73.5438 63.0968" stroke="#15357A" stroke-width="1.2" stroke-miterlimit="10" stroke-linecap="round" stroke-linejoin="round"/>
<path d="M16.9913 36.5706H8.51758" stroke="#15357A" stroke-width="1.2" stroke-miterlimit="10" stroke-linecap="round" stroke-linejoin="round"/>
<path d="M19.5703 16.1231L13.3071 10.0442" stroke="#15357A" stroke-width="1.2" stroke-miterlimit="10" stroke-linecap="round" stroke-linejoin="round"/>
<path d="M19.5703 57.0178L13.3071 63.0968" stroke="#15357A" stroke-width="1.2" stroke-miterlimit="10" stroke-linecap="round" stroke-linejoin="round"/>
</svg>
