<svg width="64" height="64" viewBox="0 0 64 64" fill="none" xmlns="http://www.w3.org/2000/svg">
<rect width="64" height="64" rx="32" fill="#D2E2FF"/>
<mask id="path-2-inside-1_2570_6484" fill="white">
<path d="M31.8333 42.6666C31.9222 42.6666 32.0111 42.6444 32.1 42.6C32.1889 42.5555 32.2556 42.5111 32.3 42.4666L43.2333 31.5333C43.5 31.2666 43.6945 30.9666 43.8167 30.6333C43.9389 30.3 44 29.9666 44 29.6333C44 29.2777 43.9389 28.9388 43.8167 28.6166C43.6945 28.2944 43.5 28.0111 43.2333 27.7666L37.5667 22.1C37.3222 21.8333 37.0389 21.6388 36.7167 21.5166C36.3945 21.3944 36.0556 21.3333 35.7 21.3333C35.3667 21.3333 35.0333 21.3944 34.7 21.5166C34.3667 21.6388 34.0667 21.8333 33.8 22.1L33.4333 22.4666L35.9 24.9666C36.2333 25.2777 36.4778 25.6333 36.6333 26.0333C36.7889 26.4333 36.8667 26.8555 36.8667 27.3C36.8667 28.2333 36.55 29.0166 35.9167 29.65C35.2833 30.2833 34.5 30.6 33.5667 30.6C33.1222 30.6 32.6945 30.5222 32.2833 30.3666C31.8722 30.2111 31.5111 29.9777 31.2 29.6666L28.7 27.2L22.8667 33.0333C22.8 33.1 22.75 33.1722 22.7167 33.25C22.6833 33.3277 22.6667 33.4111 22.6667 33.5C22.6667 33.6777 22.7333 33.8388 22.8667 33.9833C23 34.1277 23.1556 34.2 23.3333 34.2C23.4222 34.2 23.5111 34.1777 23.6 34.1333C23.6889 34.0888 23.7556 34.0444 23.8 34L28.3333 29.4666L30.2 31.3333L25.7 35.8666C25.6333 35.9333 25.5833 36.0055 25.55 36.0833C25.5167 36.1611 25.5 36.2444 25.5 36.3333C25.5 36.5111 25.5667 36.6666 25.7 36.8C25.8333 36.9333 25.9889 37 26.1667 37C26.2556 37 26.3445 36.9777 26.4333 36.9333C26.5222 36.8888 26.5889 36.8444 26.6333 36.8L31.1667 32.3L33.0333 34.1666L28.5333 38.7C28.4667 38.7444 28.4167 38.8111 28.3833 38.9C28.35 38.9888 28.3333 39.0777 28.3333 39.1666C28.3333 39.3444 28.4 39.5 28.5333 39.6333C28.6667 39.7666 28.8222 39.8333 29 39.8333C29.0889 39.8333 29.1722 39.8166 29.25 39.7833C29.3278 39.75 29.4 39.7 29.4667 39.6333L34 35.1333L35.8667 37L31.3333 41.5333C31.2667 41.6 31.2167 41.6722 31.1833 41.75C31.15 41.8277 31.1333 41.9111 31.1333 42C31.1333 42.1777 31.2056 42.3333 31.35 42.4666C31.4945 42.6 31.6556 42.6666 31.8333 42.6666ZM31.8 45.3333C30.9778 45.3333 30.25 45.0611 29.6167 44.5166C28.9833 43.9722 28.6111 43.2888 28.5 42.4666C27.7445 42.3555 27.1111 42.0444 26.6 41.5333C26.0889 41.0222 25.7778 40.3888 25.6667 39.6333C24.9111 39.5222 24.2833 39.2055 23.7833 38.6833C23.2833 38.1611 22.9778 37.5333 22.8667 36.8C22.0222 36.6888 21.3333 36.3222 20.8 35.7C20.2667 35.0777 20 34.3444 20 33.5C20 33.0555 20.0833 32.6277 20.25 32.2166C20.4167 31.8055 20.6556 31.4444 20.9667 31.1333L28.7 23.4333L33.0667 27.8C33.1111 27.8666 33.1778 27.9166 33.2667 27.95C33.3556 27.9833 33.4445 28 33.5333 28C33.7333 28 33.9 27.9388 34.0333 27.8166C34.1667 27.6944 34.2333 27.5333 34.2333 27.3333C34.2333 27.2444 34.2167 27.1555 34.1833 27.0666C34.15 26.9777 34.1 26.9111 34.0333 26.8666L29.2667 22.1C29.0222 21.8333 28.7389 21.6388 28.4167 21.5166C28.0945 21.3944 27.7556 21.3333 27.4 21.3333C27.0667 21.3333 26.7333 21.3944 26.4 21.5166C26.0667 21.6388 25.7667 21.8333 25.5 22.1L20.8 26.8333C20.6 27.0333 20.4333 27.2666 20.3 27.5333C20.1667 27.8 20.0778 28.0666 20.0333 28.3333C19.9889 28.6 19.9889 28.8722 20.0333 29.15C20.0778 29.4277 20.1667 29.6888 20.3 29.9333L18.3667 31.8666C17.9889 31.3555 17.7111 30.7944 17.5333 30.1833C17.3556 29.5722 17.2889 28.9555 17.3333 28.3333C17.3778 27.7111 17.5333 27.1055 17.8 26.5166C18.0667 25.9277 18.4333 25.4 18.9 24.9333L23.6 20.2333C24.1333 19.7222 24.7278 19.3333 25.3833 19.0666C26.0389 18.8 26.7111 18.6666 27.4 18.6666C28.0889 18.6666 28.7611 18.8 29.4167 19.0666C30.0722 19.3333 30.6556 19.7222 31.1667 20.2333L31.5333 20.6L31.9 20.2333C32.4333 19.7222 33.0278 19.3333 33.6833 19.0666C34.3389 18.8 35.0111 18.6666 35.7 18.6666C36.3889 18.6666 37.0611 18.8 37.7167 19.0666C38.3722 19.3333 38.9556 19.7222 39.4667 20.2333L45.1 25.8666C45.6111 26.3777 46 26.9666 46.2667 27.6333C46.5333 28.3 46.6667 28.9777 46.6667 29.6666C46.6667 30.3555 46.5333 31.0277 46.2667 31.6833C46 32.3388 45.6111 32.9222 45.1 33.4333L34.1667 44.3333C33.8556 44.6444 33.4945 44.8888 33.0833 45.0666C32.6722 45.2444 32.2445 45.3333 31.8 45.3333Z"/>
</mask>
<path d="M31.8333 42.6666C31.9222 42.6666 32.0111 42.6444 32.1 42.6C32.1889 42.5555 32.2556 42.5111 32.3 42.4666L43.2333 31.5333C43.5 31.2666 43.6945 30.9666 43.8167 30.6333C43.9389 30.3 44 29.9666 44 29.6333C44 29.2777 43.9389 28.9388 43.8167 28.6166C43.6945 28.2944 43.5 28.0111 43.2333 27.7666L37.5667 22.1C37.3222 21.8333 37.0389 21.6388 36.7167 21.5166C36.3945 21.3944 36.0556 21.3333 35.7 21.3333C35.3667 21.3333 35.0333 21.3944 34.7 21.5166C34.3667 21.6388 34.0667 21.8333 33.8 22.1L33.4333 22.4666L35.9 24.9666C36.2333 25.2777 36.4778 25.6333 36.6333 26.0333C36.7889 26.4333 36.8667 26.8555 36.8667 27.3C36.8667 28.2333 36.55 29.0166 35.9167 29.65C35.2833 30.2833 34.5 30.6 33.5667 30.6C33.1222 30.6 32.6945 30.5222 32.2833 30.3666C31.8722 30.2111 31.5111 29.9777 31.2 29.6666L28.7 27.2L22.8667 33.0333C22.8 33.1 22.75 33.1722 22.7167 33.25C22.6833 33.3277 22.6667 33.4111 22.6667 33.5C22.6667 33.6777 22.7333 33.8388 22.8667 33.9833C23 34.1277 23.1556 34.2 23.3333 34.2C23.4222 34.2 23.5111 34.1777 23.6 34.1333C23.6889 34.0888 23.7556 34.0444 23.8 34L28.3333 29.4666L30.2 31.3333L25.7 35.8666C25.6333 35.9333 25.5833 36.0055 25.55 36.0833C25.5167 36.1611 25.5 36.2444 25.5 36.3333C25.5 36.5111 25.5667 36.6666 25.7 36.8C25.8333 36.9333 25.9889 37 26.1667 37C26.2556 37 26.3445 36.9777 26.4333 36.9333C26.5222 36.8888 26.5889 36.8444 26.6333 36.8L31.1667 32.3L33.0333 34.1666L28.5333 38.7C28.4667 38.7444 28.4167 38.8111 28.3833 38.9C28.35 38.9888 28.3333 39.0777 28.3333 39.1666C28.3333 39.3444 28.4 39.5 28.5333 39.6333C28.6667 39.7666 28.8222 39.8333 29 39.8333C29.0889 39.8333 29.1722 39.8166 29.25 39.7833C29.3278 39.75 29.4 39.7 29.4667 39.6333L34 35.1333L35.8667 37L31.3333 41.5333C31.2667 41.6 31.2167 41.6722 31.1833 41.75C31.15 41.8277 31.1333 41.9111 31.1333 42C31.1333 42.1777 31.2056 42.3333 31.35 42.4666C31.4945 42.6 31.6556 42.6666 31.8333 42.6666ZM31.8 45.3333C30.9778 45.3333 30.25 45.0611 29.6167 44.5166C28.9833 43.9722 28.6111 43.2888 28.5 42.4666C27.7445 42.3555 27.1111 42.0444 26.6 41.5333C26.0889 41.0222 25.7778 40.3888 25.6667 39.6333C24.9111 39.5222 24.2833 39.2055 23.7833 38.6833C23.2833 38.1611 22.9778 37.5333 22.8667 36.8C22.0222 36.6888 21.3333 36.3222 20.8 35.7C20.2667 35.0777 20 34.3444 20 33.5C20 33.0555 20.0833 32.6277 20.25 32.2166C20.4167 31.8055 20.6556 31.4444 20.9667 31.1333L28.7 23.4333L33.0667 27.8C33.1111 27.8666 33.1778 27.9166 33.2667 27.95C33.3556 27.9833 33.4445 28 33.5333 28C33.7333 28 33.9 27.9388 34.0333 27.8166C34.1667 27.6944 34.2333 27.5333 34.2333 27.3333C34.2333 27.2444 34.2167 27.1555 34.1833 27.0666C34.15 26.9777 34.1 26.9111 34.0333 26.8666L29.2667 22.1C29.0222 21.8333 28.7389 21.6388 28.4167 21.5166C28.0945 21.3944 27.7556 21.3333 27.4 21.3333C27.0667 21.3333 26.7333 21.3944 26.4 21.5166C26.0667 21.6388 25.7667 21.8333 25.5 22.1L20.8 26.8333C20.6 27.0333 20.4333 27.2666 20.3 27.5333C20.1667 27.8 20.0778 28.0666 20.0333 28.3333C19.9889 28.6 19.9889 28.8722 20.0333 29.15C20.0778 29.4277 20.1667 29.6888 20.3 29.9333L18.3667 31.8666C17.9889 31.3555 17.7111 30.7944 17.5333 30.1833C17.3556 29.5722 17.2889 28.9555 17.3333 28.3333C17.3778 27.7111 17.5333 27.1055 17.8 26.5166C18.0667 25.9277 18.4333 25.4 18.9 24.9333L23.6 20.2333C24.1333 19.7222 24.7278 19.3333 25.3833 19.0666C26.0389 18.8 26.7111 18.6666 27.4 18.6666C28.0889 18.6666 28.7611 18.8 29.4167 19.0666C30.0722 19.3333 30.6556 19.7222 31.1667 20.2333L31.5333 20.6L31.9 20.2333C32.4333 19.7222 33.0278 19.3333 33.6833 19.0666C34.3389 18.8 35.0111 18.6666 35.7 18.6666C36.3889 18.6666 37.0611 18.8 37.7167 19.0666C38.3722 19.3333 38.9556 19.7222 39.4667 20.2333L45.1 25.8666C45.6111 26.3777 46 26.9666 46.2667 27.6333C46.5333 28.3 46.6667 28.9777 46.6667 29.6666C46.6667 30.3555 46.5333 31.0277 46.2667 31.6833C46 32.3388 45.6111 32.9222 45.1 33.4333L34.1667 44.3333C33.8556 44.6444 33.4945 44.8888 33.0833 45.0666C32.6722 45.2444 32.2445 45.3333 31.8 45.3333Z" fill="#112A62" stroke="#112A62" stroke-width="0.05" mask="url(#path-2-inside-1_2570_6484)"/>
</svg>
