<svg width="40" height="40" viewBox="0 0 40 40" fill="none" xmlns="http://www.w3.org/2000/svg">
<rect width="40" height="40" rx="20" fill="#FAF4EE" fill-opacity="0.16"/>
<path d="M16.1683 20C16.1683 17.883 17.884 16.1664 20.001 16.1664C22.118 16.1664 23.8346 17.883 23.8346 20C23.8346 22.117 22.118 23.8336 20.001 23.8336C17.884 23.8336 16.1683 22.117 16.1683 20ZM14.0958 20C14.0958 23.2614 16.7395 25.9051 20.001 25.9051C23.2624 25.9051 25.9061 23.2614 25.9061 20C25.9061 16.7386 23.2624 14.0949 20.001 14.0949C16.7395 14.0949 14.0958 16.7386 14.0958 20ZM24.7598 13.8608C24.7598 14.6225 25.3776 15.2412 26.1402 15.2412C26.9019 15.2412 27.5206 14.6225 27.5206 13.8608C27.5206 13.0991 26.9028 12.4813 26.1402 12.4813C25.3776 12.4813 24.7598 13.0991 24.7598 13.8608ZM15.3545 29.3607C14.2333 29.3096 13.624 29.1229 13.2189 28.965C12.682 28.756 12.2993 28.507 11.8962 28.1048C11.4939 27.7026 11.2441 27.3199 11.036 26.783C10.8781 26.378 10.6914 25.7686 10.6403 24.6474C10.5845 23.4351 10.5734 23.071 10.5734 20C10.5734 16.929 10.5855 16.5658 10.6403 15.3526C10.6914 14.2314 10.879 13.623 11.036 13.217C11.245 12.6801 11.4939 12.2974 11.8962 11.8943C12.2984 11.492 12.6811 11.2422 13.2189 11.0341C13.624 10.8762 14.2333 10.6895 15.3545 10.6384C16.5668 10.5826 16.9309 10.5715 20.001 10.5715C23.072 10.5715 23.4352 10.5836 24.6484 10.6384C25.7696 10.6895 26.378 10.8771 26.7839 11.0341C27.3208 11.2422 27.7036 11.492 28.1067 11.8943C28.5089 12.2965 28.7579 12.6801 28.9669 13.217C29.1248 13.6221 29.3115 14.2314 29.3626 15.3526C29.4183 16.5658 29.4295 16.929 29.4295 20C29.4295 23.0701 29.4183 23.4342 29.3626 24.6474C29.3115 25.7686 29.1239 26.378 28.9669 26.783C28.7579 27.3199 28.5089 27.7026 28.1067 28.1048C27.7045 28.507 27.3208 28.756 26.7839 28.965C26.3789 29.1229 25.7696 29.3096 24.6484 29.3607C23.4361 29.4164 23.072 29.4276 20.001 29.4276C16.9309 29.4276 16.5668 29.4164 15.3545 29.3607V29.3607ZM15.2598 8.56967C14.0355 8.6254 13.1994 8.81955 12.4684 9.1038C11.7122 9.39733 11.0713 9.7912 10.4313 10.4303C9.79217 11.0694 9.39831 11.7103 9.10477 12.4674C8.82052 13.1985 8.62638 14.0345 8.57065 15.2588C8.51398 16.485 8.50098 16.877 8.50098 20C8.50098 23.123 8.51398 23.515 8.57065 24.7412C8.62638 25.9655 8.82052 26.8015 9.10477 27.5326C9.39831 28.2887 9.79124 28.9306 10.4313 29.5697C11.0704 30.2088 11.7113 30.6017 12.4684 30.8962C13.2004 31.1805 14.0355 31.3746 15.2598 31.4303C16.4869 31.4861 16.878 31.5 20.001 31.5C23.1249 31.5 23.516 31.487 24.7422 31.4303C25.9665 31.3746 26.8025 31.1805 27.5336 30.8962C28.2897 30.6017 28.9307 30.2088 29.5707 29.5697C30.2098 28.9306 30.6027 28.2887 30.8972 27.5326C31.1814 26.8015 31.3765 25.9655 31.4313 24.7412C31.487 23.5141 31.5 23.123 31.5 20C31.5 16.877 31.487 16.485 31.4313 15.2588C31.3756 14.0345 31.1814 13.1985 30.8972 12.4674C30.6027 11.7113 30.2098 11.0703 29.5707 10.4303C28.9316 9.7912 28.2897 9.39733 27.5345 9.1038C26.8025 8.81955 25.9665 8.62448 24.7431 8.56967C23.5169 8.51393 23.1249 8.5 20.0019 8.5C16.878 8.5 16.4869 8.513 15.2598 8.56967" fill="white"/>
</svg>
