<svg width="65" height="62" viewBox="0 0 65 62" fill="none" xmlns="http://www.w3.org/2000/svg">
<path d="M30.7355 61.3544C44.9023 61.3544 56.3868 60.2387 56.3868 58.8625C56.3868 57.4863 44.9023 56.3706 30.7355 56.3706C16.5687 56.3706 5.08417 57.4863 5.08417 58.8625C5.08417 60.2387 16.5687 61.3544 30.7355 61.3544Z" fill="#EAF1FE"/>
<path d="M50.598 4.02762C49.7623 4.02458 48.9437 4.24871 48.2431 4.67245C47.5425 5.09618 46.9904 5.70104 46.6546 6.41266C46.4392 6.95183 46.3403 7.52523 46.3636 8.1L46.4861 14.1587V43.0641C46.4861 43.0641 46.7695 46.93 41.0573 48.1901C31.4705 48.4963 33.5839 39.903 33.5839 39.903H13.6754V9.48119C13.6754 9.48119 13.3232 4.13441 20.3601 4.02762H50.598Z" fill="white" stroke="#15357A" stroke-width="1.5" stroke-linecap="round" stroke-linejoin="round"/>
<path d="M41.0573 48.1902C40.3362 48.3458 39.6045 48.4552 38.8673 48.5177H15.1302C13.9685 48.5155 12.8195 48.2933 11.7532 47.8646C10.6869 47.4359 9.72568 46.8097 8.92821 46.0243C8.13074 45.2388 7.51372 44.3105 7.11479 43.296C6.71585 42.2816 6.54337 41.2022 6.60785 40.1237V39.903H33.5609C33.5609 39.903 31.4705 48.4963 41.0573 48.1902Z" fill="white" stroke="#15357A" stroke-width="1.5" stroke-linecap="round" stroke-linejoin="round"/>
<path d="M54.2275 14.1587H46.4862L46.3636 8.09998C46.3403 7.52522 46.4392 6.95182 46.6546 6.41266C46.9904 5.70104 47.5426 5.09617 48.2432 4.67244C48.9438 4.24871 49.7623 4.02458 50.598 4.02762H51.0575C51.0575 4.02762 56.2337 4.28392 54.2275 14.1587Z" fill="#EAF1FE" stroke="#15357A" stroke-width="1.5" stroke-linecap="round" stroke-linejoin="round"/>
<path d="M41.0573 48.1902C40.3362 48.3458 39.6045 48.4552 38.8673 48.5177H15.1302C13.9685 48.5155 12.8195 48.2933 11.7532 47.8646C10.6869 47.4359 9.72568 46.8097 8.92821 46.0243C8.13074 45.2388 7.51372 44.3105 7.11479 43.296C6.71585 42.2816 6.54337 41.2022 6.60785 40.1237V39.903H33.5609C33.5609 39.903 31.4705 48.4963 41.0573 48.1902Z" fill="#EAF1FE" stroke="#15357A" stroke-width="1.5" stroke-linecap="round" stroke-linejoin="round"/>
<path d="M41.5474 12.813H23.9207C23.2018 12.813 22.619 13.3549 22.619 14.0233C22.619 14.6918 23.2018 15.2336 23.9207 15.2336H41.5474C42.2663 15.2336 42.8491 14.6918 42.8491 14.0233C42.8491 13.3549 42.2663 12.813 41.5474 12.813Z" fill="#EAF1FE"/>
<path d="M41.5474 19.2065H23.9207C23.2018 19.2065 22.619 19.7484 22.619 20.4168C22.619 21.0852 23.2018 21.6271 23.9207 21.6271H41.5474C42.2663 21.6271 42.8491 21.0852 42.8491 20.4168C42.8491 19.7484 42.2663 19.2065 41.5474 19.2065Z" fill="#EAF1FE"/>
<path d="M41.5474 26.3118H23.9207C23.2018 26.3118 22.619 26.8536 22.619 27.522C22.619 28.1904 23.2018 28.7323 23.9207 28.7323H41.5474C42.2663 28.7323 42.8491 28.1904 42.8491 27.522C42.8491 26.8536 42.2663 26.3118 41.5474 26.3118Z" fill="#EAF1FE"/>
<path d="M41.5474 32.705H23.9207C23.2018 32.705 22.619 33.2469 22.619 33.9153C22.619 34.5838 23.2018 35.1257 23.9207 35.1257H41.5474C42.2663 35.1257 42.8491 34.5838 42.8491 33.9153C42.8491 33.2469 42.2663 32.705 41.5474 32.705Z" fill="#EAF1FE"/>
<path d="M2.15932 28.3622L2.91737 29.6579L4.31097 30.3627L2.91737 31.0746L2.15932 32.3704L1.3936 31.0746L0 30.3627L1.3936 29.6579L2.15932 28.3622Z" fill="#2C71F0"/>
<path d="M7.35083 0.82373L8.36922 2.54664L10.2222 3.49353L8.36922 4.4333L7.35083 6.16333L6.3401 4.4333L4.47943 3.49353L6.3401 2.54664L7.35083 0.82373Z" fill="#15357A"/>
<path d="M62.8955 15.4331L63.5234 16.4939L64.6567 17.0706L63.5234 17.6473L62.8955 18.7009L62.2753 17.6473L61.142 17.0706L62.2753 16.4939L62.8955 15.4331Z" fill="#2C71F0"/>
<path d="M52.8798 17.4945L30.3013 24.8833L34.0306 34.7354L56.6091 27.3465L52.8798 17.4945Z" fill="#EAF1FE" stroke="#15357A" stroke-width="1.5" stroke-linecap="round" stroke-linejoin="round"/>
<path d="M36.8613 34.7341L50.0239 32.3419L50.9428 32.1711L53.7146 31.6656L55.4298 31.3523L54.7177 27.9634L53.952 24.3253L53.2782 21.1001L51.7467 21.3778L35.7817 24.2826L35.6056 24.3182L33.6454 24.667L30.437 25.2579L30.1154 25.3149L29.97 25.3434L29.7939 25.379H29.7862L29.7939 25.4075L30.1461 27.1162L30.3375 28.0203L31.0343 31.3238L31.2104 32.1711L31.7541 34.7341" fill="#EAF1FE"/>
<path d="M36.8613 34.7341L50.0239 32.3419L50.9428 32.1711L53.7146 31.6656L55.4298 31.3523L54.7177 27.9634L53.952 24.3253L53.2782 21.1001L51.7467 21.3778L35.7817 24.2826L35.6056 24.3182L33.6454 24.667L30.437 25.2579L30.1154 25.3149L29.97 25.3434L29.7939 25.379H29.7862L29.7939 25.4075L30.1461 27.1162L30.3375 28.0203L31.0343 31.3238L31.2104 32.1711L31.7541 34.7341" stroke="#15357A" stroke-width="1.5" stroke-linecap="round" stroke-linejoin="round"/>
<path d="M53.7223 24.2827H29.7862V34.7271H53.7223V24.2827Z" fill="white" stroke="#15357A" stroke-width="1.5" stroke-linecap="round" stroke-linejoin="round"/>
<path d="M53.7223 32.1711H29.7862V34.7271H53.7223V32.1711Z" fill="#EAF1FE"/>
<path d="M53.7299 24.3182H29.7937V27.1234H53.7299V24.3182Z" fill="#EAF1FE"/>
<path d="M53.7223 24.2827H29.7862V34.7271H53.7223V24.2827Z" stroke="#15357A" stroke-width="1.5" stroke-linecap="round" stroke-linejoin="round"/>
<path d="M33.6607 24.4536C33.6617 24.9273 33.5622 25.3965 33.368 25.8344C33.1737 26.2723 32.8885 26.6703 32.5286 27.0056C32.1687 27.3408 31.7412 27.6068 31.2707 27.7883C30.8001 27.9698 30.2956 28.0632 29.7862 28.0632V24.2827H33.653C33.6594 24.3395 33.662 24.3965 33.6607 24.4536V24.4536Z" fill="white" stroke="#15357A" stroke-width="1.5" stroke-linecap="round" stroke-linejoin="round"/>
<path d="M33.6607 34.7341H29.7862V31.1246C30.2956 31.1246 30.8001 31.218 31.2707 31.3995C31.7412 31.581 32.1687 31.847 32.5286 32.1823C32.8885 32.5175 33.1737 32.9155 33.368 33.3534C33.5622 33.7913 33.6617 34.2605 33.6607 34.7341Z" fill="white" stroke="#15357A" stroke-width="1.5" stroke-linecap="round" stroke-linejoin="round"/>
<path d="M53.7145 31.2028V34.7627H49.036C49.036 33.8053 49.445 32.8872 50.1731 32.2102C50.9011 31.5333 51.8885 31.153 52.9181 31.153C53.1847 31.1446 53.4515 31.1613 53.7145 31.2028V31.2028Z" fill="white" stroke="#15357A" stroke-width="1.5" stroke-linecap="round" stroke-linejoin="round"/>
<path d="M53.7147 24.2827V27.4009C53.4628 27.4501 53.2063 27.4763 52.9489 27.4792C52.0001 27.476 51.0857 27.1484 50.3798 26.559C49.6738 25.9696 49.2256 25.1594 49.1204 24.2827H53.7147Z" fill="white" stroke="#15357A" stroke-width="1.5" stroke-linecap="round" stroke-linejoin="round"/>
<path d="M41.7465 33.6165C44.0766 33.6165 45.9656 31.8601 45.9656 29.6935C45.9656 27.5269 44.0766 25.7705 41.7465 25.7705C39.4164 25.7705 37.5274 27.5269 37.5274 29.6935C37.5274 31.8601 39.4164 33.6165 41.7465 33.6165Z" fill="white"/>
<path d="M63.1835 43.7439C63.3655 43.7719 63.5335 43.8302 63.6875 43.9189C63.8462 44.0029 63.9815 44.1102 64.0935 44.2409C64.2055 44.3715 64.2918 44.5232 64.3525 44.6959C64.4178 44.8639 64.4505 45.0482 64.4505 45.2489H63.6455C63.6455 45.0062 63.5802 44.8102 63.4495 44.6609C63.3188 44.5115 63.1392 44.4369 62.9105 44.4369C62.7098 44.4369 62.5372 44.4882 62.3925 44.5909C62.2478 44.6935 62.1755 44.8499 62.1755 45.0599C62.1755 45.1579 62.1942 45.2465 62.2315 45.3259C62.2735 45.4005 62.3272 45.4659 62.3925 45.5219C62.4625 45.5779 62.5395 45.6269 62.6235 45.6689C62.7075 45.7109 62.7962 45.7482 62.8895 45.7809C63.0808 45.8509 63.2745 45.9255 63.4705 46.0049C63.6712 46.0842 63.8532 46.1822 64.0165 46.2989C64.1798 46.4155 64.3128 46.5555 64.4155 46.7189C64.5182 46.8822 64.5695 47.0805 64.5695 47.3139C64.5695 47.5379 64.5322 47.7385 64.4575 47.9159C64.3875 48.0932 64.2895 48.2449 64.1635 48.3709C64.0422 48.4969 63.8975 48.5995 63.7295 48.6789C63.5615 48.7535 63.3795 48.8049 63.1835 48.8329V49.5749H62.6095V48.8329C62.4182 48.8049 62.2362 48.7465 62.0635 48.6579C61.8955 48.5692 61.7462 48.4549 61.6155 48.3149C61.4895 48.1702 61.3892 47.9999 61.3145 47.8039C61.2398 47.6032 61.2025 47.3792 61.2025 47.1319H62.0075C62.0075 47.4539 62.0962 47.7012 62.2735 47.8739C62.4508 48.0465 62.6795 48.1329 62.9595 48.1329C63.0715 48.1329 63.1765 48.1165 63.2745 48.0839C63.3725 48.0465 63.4565 47.9975 63.5265 47.9369C63.6012 47.8715 63.6595 47.7945 63.7015 47.7059C63.7435 47.6172 63.7645 47.5169 63.7645 47.4049C63.7645 47.2789 63.7388 47.1739 63.6875 47.0899C63.6408 47.0059 63.5778 46.9359 63.4985 46.8799C63.4238 46.8192 63.3398 46.7702 63.2465 46.7329C63.1578 46.6909 63.0715 46.6559 62.9875 46.6279C62.7635 46.5485 62.5535 46.4692 62.3575 46.3899C62.1615 46.3059 61.9888 46.2079 61.8395 46.0959C61.6948 45.9792 61.5805 45.8392 61.4965 45.6759C61.4125 45.5125 61.3705 45.3072 61.3705 45.0599C61.3705 44.8825 61.4008 44.7192 61.4615 44.5699C61.5268 44.4159 61.6155 44.2829 61.7275 44.1709C61.8395 44.0542 61.9702 43.9609 62.1195 43.8909C62.2735 43.8162 62.4368 43.7649 62.6095 43.7369V42.9949H63.1835V43.7439Z" fill="#EAF1FE"/>
<path d="M20.5975 31.687H16.3018V35.681H20.5975V31.687Z" fill="white" stroke="#EAF1FE" stroke-width="1.2" stroke-linecap="round" stroke-linejoin="round"/>
<path d="M20.5975 25.1228H16.3018V29.1168H20.5975V25.1228Z" fill="white" stroke="#EAF1FE" stroke-width="1.2" stroke-linecap="round" stroke-linejoin="round"/>
<path d="M20.5975 18.4233H16.3018V22.4175H20.5975V18.4233Z" fill="white" stroke="#EAF1FE" stroke-width="1.2" stroke-linecap="round" stroke-linejoin="round"/>
<path d="M20.5975 12.0227H16.3018V16.0168H20.5975V12.0227Z" fill="white" stroke="#EAF1FE" stroke-width="1.2" stroke-linecap="round" stroke-linejoin="round"/>
<path d="M18.3769 21.5273C18.2849 21.5265 18.1943 21.5062 18.1121 21.468C18.0298 21.4297 17.958 21.3746 17.9021 21.3066L17.3738 20.6801C17.267 20.5544 17.2089 20.3989 17.2089 20.2387C17.2089 20.0785 17.267 19.923 17.3738 19.7973C17.4317 19.7373 17.5033 19.69 17.5834 19.6591C17.6634 19.6281 17.7499 19.6141 17.8365 19.6182C17.9231 19.6223 18.0077 19.6443 18.0839 19.6827C18.1602 19.7211 18.2263 19.7748 18.2773 19.84V19.84L20.2452 17.6614C20.2979 17.5808 20.3722 17.5141 20.4607 17.468C20.5492 17.4218 20.6491 17.3977 20.7506 17.398C20.8882 17.3969 21.0216 17.4424 21.1258 17.5261C21.2517 17.6362 21.3338 17.7827 21.3588 17.9416C21.3838 18.1006 21.3503 18.2628 21.2636 18.4018L18.9205 21.2497C18.8699 21.3242 18.8014 21.3868 18.7203 21.4325C18.6393 21.4782 18.5479 21.5058 18.4534 21.5131L18.3769 21.5273Z" fill="#15357A"/>
<path d="M20.7123 17.5762C20.8044 17.5777 20.8933 17.6078 20.965 17.6616C21.0609 17.7399 21.1236 17.8474 21.1419 17.9649C21.1601 18.0824 21.1327 18.202 21.0645 18.3023L18.7674 21.15C18.7332 21.2043 18.6854 21.2501 18.6281 21.2836C18.5707 21.317 18.5056 21.3372 18.4381 21.3422V21.3422C18.3761 21.3405 18.3152 21.3262 18.2597 21.3003C18.2042 21.2745 18.1553 21.2378 18.1165 21.1927L17.5806 20.5662C17.4984 20.4742 17.4534 20.3584 17.4534 20.2388C17.4534 20.1191 17.4984 20.0033 17.5806 19.9113C17.6591 19.836 17.7664 19.7925 17.8792 19.7903C17.9417 19.7934 18.0028 19.809 18.0583 19.836C18.1138 19.863 18.1624 19.9008 18.2008 19.9469L18.3692 20.1462L20.3907 17.7613C20.4259 17.7031 20.477 17.6547 20.5389 17.621C20.6008 17.5872 20.6712 17.5693 20.7429 17.5691L20.7123 17.5762ZM20.7429 17.2131C20.6095 17.2111 20.4778 17.2416 20.361 17.3016C20.2441 17.3615 20.1461 17.4488 20.0768 17.5548L18.3233 19.5696C18.1886 19.4691 18.0213 19.4139 17.8485 19.4129C17.7423 19.4123 17.637 19.4322 17.5395 19.4714C17.4419 19.5106 17.3542 19.5683 17.2819 19.6407C17.131 19.7916 17.0422 19.9871 17.031 20.1928C17.0198 20.3985 17.087 20.6013 17.2207 20.7656L17.7567 21.3921C17.8288 21.4815 17.9225 21.5538 18.0302 21.6033C18.138 21.6528 18.2567 21.678 18.3769 21.6768H18.4305C18.5584 21.6663 18.6819 21.628 18.791 21.5649C18.9 21.5018 18.9916 21.4158 19.0584 21.3138L21.3555 18.4661C21.4809 18.2901 21.5336 18.0779 21.5041 17.8686C21.4745 17.6593 21.3647 17.467 21.1947 17.327C21.0549 17.2193 20.8785 17.1613 20.697 17.1633L20.7429 17.2131Z" fill="white"/>
<path d="M18.3769 15.1625C18.2849 15.1617 18.1943 15.1414 18.1121 15.1031C18.0298 15.0649 17.958 15.0097 17.9021 14.9418L17.3738 14.3152C17.267 14.1895 17.2089 14.034 17.2089 13.8738C17.2089 13.7136 17.267 13.5581 17.3738 13.4324C17.4331 13.3747 17.5051 13.3295 17.5849 13.3C17.6646 13.2704 17.7503 13.2572 17.8361 13.2613C17.9218 13.2654 18.0057 13.2866 18.0818 13.3235C18.1579 13.3604 18.2246 13.4121 18.2773 13.4751V13.4751L20.2452 11.2965C20.299 11.2168 20.3735 11.1509 20.4618 11.1049C20.5501 11.0589 20.6494 11.0342 20.7506 11.0331C20.8882 11.032 21.0216 11.0776 21.1258 11.1613C21.2517 11.2713 21.3338 11.4178 21.3588 11.5768C21.3838 11.7358 21.3503 11.898 21.2636 12.037L18.9205 14.8848C18.8699 14.9593 18.8014 15.0219 18.7203 15.0676C18.6393 15.1133 18.5479 15.1409 18.4534 15.1482L18.3769 15.1625Z" fill="#15357A"/>
<path d="M20.7123 11.2112C20.8044 11.2127 20.8933 11.2427 20.965 11.2966C21.0615 11.3761 21.1245 11.4849 21.1427 11.6035C21.161 11.7222 21.1332 11.8431 21.0645 11.9445L18.7674 14.7923C18.7332 14.8466 18.6854 14.8924 18.6281 14.9259C18.5707 14.9593 18.5056 14.9795 18.4381 14.9846V14.9846C18.3761 14.9828 18.3152 14.9685 18.2597 14.9427C18.2042 14.9168 18.1553 14.8801 18.1165 14.835L17.5806 14.2085C17.4984 14.1165 17.4534 14.0006 17.4534 13.881C17.4534 13.7614 17.4984 13.6455 17.5806 13.5535C17.6196 13.5169 17.6661 13.4879 17.7174 13.4683C17.7687 13.4488 17.8237 13.439 17.8792 13.4396C17.9413 13.4409 18.0024 13.455 18.058 13.4808C18.1136 13.5067 18.1624 13.5437 18.2008 13.5891L18.3692 13.7885L20.3907 11.4034C20.4259 11.3453 20.477 11.2969 20.5389 11.2631C20.6008 11.2293 20.6712 11.2114 20.7429 11.2112H20.7123ZM20.7429 10.8552C20.6095 10.8532 20.4778 10.8837 20.361 10.9437C20.2441 11.0036 20.1461 11.0909 20.0768 11.1969L18.3233 13.2331C18.1876 13.1352 18.0204 13.0825 17.8485 13.0836C17.7428 13.082 17.6379 13.1008 17.5404 13.1388C17.4429 13.1768 17.3549 13.2332 17.2819 13.3043C17.131 13.4552 17.0422 13.6507 17.031 13.8564C17.0198 14.0622 17.087 14.265 17.2207 14.4292L17.7567 15.0558C17.8288 15.1451 17.9225 15.2175 18.0302 15.267C18.138 15.3165 18.2567 15.3417 18.3769 15.3405H18.4305C18.5584 15.33 18.6819 15.2917 18.791 15.2286C18.9 15.1655 18.9916 15.0795 19.0584 14.9774L21.3555 12.1296C21.4809 11.9536 21.5336 11.7414 21.5041 11.5321C21.4745 11.3228 21.3647 11.1304 21.1947 10.9905C21.0549 10.8827 20.8785 10.8247 20.697 10.8267L20.7429 10.8552Z" fill="white"/>
</svg>
