<svg width="518" height="470" viewBox="0 0 518 470" fill="none" xmlns="http://www.w3.org/2000/svg">
<circle cx="305.911" cy="128.911" r="113.411" fill="#F8BC20" stroke="black"/>
<path d="M8.34907 81.563C12.2686 81.563 15.6981 78.3784 15.6981 74.2139C15.6981 70.2944 12.5135 66.8649 8.34907 66.8649C4.42957 66.8649 1 70.0495 1 74.2139C1 78.3784 4.1846 81.563 8.34907 81.563Z" stroke="#2C71F0" stroke-miterlimit="10" stroke-linejoin="round"/>
<path d="M220 379.859L222.45 376.43L220 373L223.43 375.45L226.859 373L224.409 376.43L226.859 379.859L223.43 377.409L220 379.859Z" fill="#2C71F0"/>
<path d="M75.9453 7.15351L78.395 3.72396L75.9453 0.294373L79.3749 2.74406L82.8045 0.294373L80.3548 3.72396L82.8045 7.15351L79.3749 4.70382L75.9453 7.15351Z" fill="#2C71F0"/>
<path d="M50.0004 141.85L54.1577 141.157L54.8506 137L55.5435 141.157L59.7007 141.85L55.5435 142.543L54.8506 146.7L54.1577 142.543L50.0004 141.85Z" fill="#2C71F0"/>
<path d="M507.746 109.115L511.903 108.422L512.596 104.265L513.289 108.422L517.446 109.115L513.289 109.808L512.596 113.965L511.903 109.808L507.746 109.115Z" fill="#2C71F0"/>
<path d="M110.187 344.238L109.73 341.729C109.388 339.561 107.677 337.85 105.51 337.508L103 337.052L105.51 336.595C107.677 336.253 109.388 334.542 109.73 332.375L110.187 329.865L110.643 332.375C110.985 334.542 112.696 336.253 114.864 336.595L117.373 337.052L114.864 337.508C112.696 337.85 110.985 339.561 110.643 341.729L110.187 344.238Z" fill="#2C71F0" stroke="black" stroke-miterlimit="10" stroke-linejoin="round"/>
<path d="M435.956 74.307L444.797 72.7839L446.392 63.9561L447.915 72.7965L456.743 74.3912L447.902 75.9144L446.307 84.7422L444.784 75.9018L435.956 74.307Z" fill="#2C71F0"/>
<path d="M117 401.351L125.841 399.828L127.436 391L128.959 399.84L137.787 401.435L128.946 402.958L127.351 411.786L125.828 402.946L117 401.351Z" fill="#2C71F0"/>
<path d="M1 200.147L4.20141 195.573L1 191L5.57343 194.201L10.1469 191L6.94547 195.573L10.1469 200.147L5.57343 196.945L1 200.147Z" fill="#2C71F0"/>
<path d="M178.704 140.242C180.419 140.242 181.643 139.017 181.643 137.302C181.643 135.588 180.419 134.363 178.704 134.363C176.989 134.363 175.764 135.588 175.764 137.302C175.519 138.772 176.989 140.242 178.704 140.242Z" stroke="#2C71F0" stroke-miterlimit="10" stroke-linejoin="round"/>
<path d="M314.933 209.082L319.3 202.349L314.933 195.617L321.301 200.348L327.67 195.617L323.303 202.349L327.67 209.082L321.301 204.351L314.933 209.082Z" fill="#2C71F0"/>
<path d="M299.822 85.361C303.251 85.361 305.701 82.6664 305.701 79.4818C305.701 76.0522 303.006 73.6025 299.822 73.6025C296.392 73.6025 293.942 76.2972 293.942 79.4818C293.942 82.6664 296.637 85.361 299.822 85.361Z" stroke="#2C71F0" stroke-miterlimit="10" stroke-linejoin="round"/>
<path d="M170.2 36.3232L169.598 33.0105C169.146 30.1495 166.888 27.8908 164.027 27.439L160.714 26.8367L164.027 26.2344C166.888 25.7827 169.146 23.524 169.598 20.663L170.2 17.3502L170.803 20.663C171.254 23.524 173.513 25.7827 176.374 26.2344L179.687 26.8367L176.374 27.439C173.513 27.8908 171.254 30.1495 170.803 33.0105L170.2 36.3232Z" fill="#2C71F0" stroke="black" stroke-miterlimit="10" stroke-linejoin="round"/>
<path d="M428.5 284L427.389 277.889C426.556 272.611 422.389 268.444 417.111 267.611L411 266.5L417.111 265.389C422.389 264.556 426.556 260.389 427.389 255.111L428.5 249L429.611 255.111C430.444 260.389 434.611 264.556 439.889 265.389L446 266.5L439.889 267.611C434.611 268.444 430.444 272.611 429.611 277.889L428.5 284Z" fill="#2C71F0" stroke="black" stroke-miterlimit="10" stroke-linejoin="round"/>
<path d="M271.303 114.043H90V354.262H271.303V114.043Z" fill="white" stroke="#231F20" stroke-miterlimit="10"/>
<path d="M271.308 114.043H99.9463V345.617H271.308V114.043Z" fill="black" stroke="#231F20" stroke-miterlimit="10"/>
<path d="M283.081 102.535H101.778V342.754H283.081V102.535Z" fill="white" stroke="#231F20" stroke-miterlimit="10"/>
<path d="M283.061 102.535H111.699V334.11H283.061V102.535Z" fill="black" stroke="#231F20" stroke-miterlimit="10"/>
<path d="M294.872 91H113.569V331.219H294.872V91Z" fill="white" stroke="#231F20" stroke-miterlimit="10"/>
<path d="M135.122 126.483H138.495V108.732H135.122V126.483Z" fill="black"/>
<path d="M142.502 126.483H145.798V114.336H145.951L153.508 126.483H157.21V108.732H153.939V120.879H153.786L146.179 108.732H142.502V126.483Z" fill="black"/>
<path d="M166.169 126.483H169.719L176.363 108.732H172.635L168.045 122.096H167.868L163.328 108.732H159.601L166.169 126.483Z" fill="black"/>
<path d="M186.879 126.813C192.255 126.813 196.261 122.831 196.261 117.608C196.261 112.434 192.28 108.402 186.904 108.402C181.528 108.402 177.547 112.384 177.547 117.608C177.547 122.882 181.503 126.813 186.879 126.813ZM186.904 123.592C183.481 123.592 181.046 121.056 181.046 117.608C181.046 114.21 183.481 111.623 186.904 111.623C190.302 111.623 192.737 114.21 192.737 117.608C192.737 121.056 190.302 123.592 186.904 123.592Z" fill="black"/>
<path d="M199.088 126.483H202.461V108.732H199.088V126.483Z" fill="black"/>
<path d="M214.539 126.813C219.103 126.813 222.476 124.074 223.338 120.245H219.636C218.926 122.274 216.973 123.592 214.564 123.592C211.217 123.592 208.782 121.082 208.782 117.608C208.782 114.184 211.217 111.623 214.564 111.623C216.999 111.623 218.926 112.967 219.585 115.021H223.237C222.324 111.217 219.129 108.402 214.564 108.402C209.137 108.402 205.283 112.384 205.283 117.608C205.283 122.882 209.112 126.813 214.539 126.813Z" fill="black"/>
<path d="M226.428 126.483H237.561V123.567H229.801V118.952H236.217V116.061H229.801V111.648H237.307V108.732H226.428V126.483Z" fill="black"/>
<path d="M134.027 144.228H276.031" stroke="#231F20" stroke-miterlimit="10" stroke-linecap="round"/>
<path d="M134.027 156.065H276.031" stroke="#231F20" stroke-miterlimit="10" stroke-linecap="round"/>
<path d="M275.606 176.346H133.603V264.488H275.606V176.346Z" fill="#9BCDFB" stroke="#231F20" stroke-miterlimit="10"/>
<path d="M133.603 203.809H275.639" stroke="#231F20" stroke-miterlimit="10"/>
<path d="M133.603 234.164H275.639" stroke="#231F20" stroke-miterlimit="10"/>
<path d="M219.846 176.345V264.52" stroke="#231F20" stroke-miterlimit="10"/>
<path d="M248.579 177.81V265.951" stroke="#231F20" stroke-miterlimit="10"/>
<path d="M139.599 291.06C139.599 289.02 138.057 288.625 136.718 288.319V286.151C137.343 286.292 137.674 286.738 137.687 287.324H139.383C139.332 285.654 138.171 284.762 136.718 284.596V283.895H135.724V284.596C134.054 284.762 133.11 285.845 133.11 287.146C133.11 289.096 134.462 289.53 135.724 289.823V292.207C134.946 292.041 134.5 291.506 134.487 290.843H132.843C132.843 292.462 133.977 293.609 135.724 293.801V294.744H136.718V293.801C138.554 293.635 139.599 292.513 139.599 291.06ZM134.793 287.12C134.793 286.661 135.099 286.266 135.724 286.139V288.076C135.176 287.898 134.793 287.643 134.793 287.12ZM136.718 292.245V290.065C137.368 290.256 137.853 290.537 137.853 291.187C137.853 291.748 137.419 292.13 136.718 292.245Z" fill="black"/>
<path d="M153.886 306.544H224.871" stroke="#231F20" stroke-miterlimit="10" stroke-linecap="round"/>
<path d="M153.886 293.013H224.871" stroke="#231F20" stroke-miterlimit="10" stroke-linecap="round"/>
<path d="M255.302 313.295C262.775 313.295 268.834 307.237 268.834 299.763C268.834 292.29 262.775 286.231 255.302 286.231C247.828 286.231 241.77 292.29 241.77 299.763C241.77 307.237 247.828 313.295 255.302 313.295Z" stroke="#231F20" stroke-miterlimit="10"/>
<path d="M250.546 304.551L260.088 294.975" stroke="#231F20" stroke-miterlimit="10"/>
<path d="M148.798 189.878H206.284" stroke="#231F20" stroke-miterlimit="10" stroke-linecap="round"/>
<path d="M148.798 219.469H206.284" stroke="#231F20" stroke-miterlimit="10" stroke-linecap="round"/>
<path d="M148.798 249.061H206.284" stroke="#231F20" stroke-miterlimit="10" stroke-linecap="round"/>
</svg>
