<svg xmlns="http://www.w3.org/2000/svg" xmlns:xlink="http://www.w3.org/1999/xlink" width="411" zoomAndPan="magnify" viewBox="0 0 308.25 262.500001" height="350" preserveAspectRatio="xMidYMid meet" version="1.0"><defs><clipPath id="id1"><path d="M 0 0.0703125 L 307.5 0.0703125 L 307.5 261.933594 L 0 261.933594 Z M 0 0.0703125 " clip-rule="nonzero"/></clipPath><clipPath id="id2"><path d="M 178 0.0703125 L 203.210938 0.0703125 L 203.210938 57 L 178 57 Z M 178 0.0703125 " clip-rule="nonzero"/></clipPath><clipPath id="id3"><path d="M 104.449219 100 L 180 100 L 180 261.933594 L 104.449219 261.933594 Z M 104.449219 100 " clip-rule="nonzero"/></clipPath><clipPath id="id4"><path d="M 104.449219 56 L 186 56 L 186 154 L 104.449219 154 Z M 104.449219 56 " clip-rule="nonzero"/></clipPath></defs><g clip-path="url(#id1)"><path fill="rgb(100%, 100%, 100%)" d="M 0 0.0703125 L 307.5 0.0703125 L 307.5 261.933594 L 0 261.933594 Z M 0 0.0703125 " fill-opacity="1" fill-rule="nonzero"/><path fill="rgb(100%, 100%, 100%)" d="M 0 0.0703125 L 307.5 0.0703125 L 307.5 261.933594 L 0 261.933594 Z M 0 0.0703125 " fill-opacity="1" fill-rule="nonzero"/><path fill="rgb(100%, 100%, 100%)" d="M 0 0.0703125 L 307.5 0.0703125 L 307.5 261.933594 L 0 261.933594 Z M 0 0.0703125 " fill-opacity="1" fill-rule="nonzero"/></g><path fill="rgb(17.248535%, 44.309998%, 94.119263%)" d="M 200.097656 38.449219 L 198.25 42.042969 L 197.335938 43.023438 L 195.953125 45.503906 L 194.191406 47.542969 L 194.140625 47.320312 L 193.78125 47.117188 L 192.554688 47.625 L 191.96875 47.695312 L 191.6875 47.933594 L 191.238281 49.335938 L 189.953125 49.511719 L 188.246094 50.964844 L 187.285156 51.394531 L 185.886719 51.492188 L 185.214844 51.929688 L 185.023438 51.332031 L 183.535156 50.554688 L 184.621094 49.34375 L 185.253906 48.023438 L 185.527344 44.429688 L 186.03125 41.917969 L 185.878906 40.859375 L 184.898438 38.792969 L 184.167969 37.855469 L 183.746094 38.039062 L 183.367188 37.609375 L 183.828125 35.96875 L 184.074219 32.546875 L 183.980469 31.003906 L 183.328125 29.78125 L 183.308594 29.46875 L 184.234375 28.546875 L 185.082031 27.128906 L 185.6875 26.945312 L 185.851562 27.132812 L 186.023438 23.933594 L 187.074219 20.882812 L 186.703125 18.375 L 186.746094 16.914062 L 187.503906 14.75 L 187.128906 14.386719 L 186.417969 14.292969 L 184.917969 14.835938 L 184.5 14.734375 L 184.03125 14.296875 L 184.507812 13.417969 L 187.867188 11.617188 L 189.753906 9.300781 L 190.101562 9.164062 L 191.519531 9.28125 L 192.375 9.136719 L 193.507812 8.664062 L 194.886719 7.363281 L 195.324219 5.125 L 195.808594 4.355469 L 199.769531 2.015625 L 200.058594 2.238281 L 200.136719 2.71875 L 199.933594 3.574219 L 199.347656 4.546875 L 198.222656 5.824219 L 197.742188 7.074219 L 197.570312 8.285156 L 197.839844 11.003906 L 197.757812 11.460938 L 197.109375 12.566406 L 198.726562 14.285156 L 199.289062 15.96875 L 199.25 17.289062 L 199.039062 17.835938 L 198.355469 18.742188 L 198.464844 19.46875 L 200.132812 19.914062 L 201.320312 21.632812 L 201.1875 23.386719 L 200.285156 24.183594 L 200.179688 24.460938 L 200.308594 24.824219 L 200.945312 25.546875 L 200.929688 26 L 199.992188 26.253906 L 198.871094 25.957031 L 198.5 26.496094 L 198.785156 27.667969 L 198.617188 29.769531 L 198.910156 30.726562 L 199.394531 35.171875 L 200.570312 36.996094 L 200.574219 37.363281 Z M 200.097656 38.449219 " fill-opacity="1" fill-rule="nonzero"/><g clip-path="url(#id2)"><path stroke-linecap="butt" transform="matrix(1.619012, 0, 0, 1.616329, 104.449559, 0.0780009)" fill="none" stroke-linejoin="miter" d="M 59.078081 23.739739 L 57.936856 25.963143 L 57.372276 26.569745 L 56.518167 28.104376 L 55.430022 29.365916 L 55.398656 29.228162 L 55.176685 29.102491 L 54.419085 29.416668 L 54.057174 29.460169 L 53.883457 29.60759 L 53.605992 30.475201 L 52.812202 30.583954 L 51.757835 31.482983 L 51.164302 31.748824 L 50.300542 31.809243 L 49.885551 32.079918 L 49.767327 31.710156 L 48.848074 31.229225 L 49.518815 30.480034 L 49.909678 29.663175 L 50.07857 27.439772 L 50.389813 25.885807 L 50.295716 25.23087 L 49.690119 23.952413 L 49.238937 23.372394 L 48.978362 23.485981 L 48.744326 23.22014 L 49.029029 22.205108 L 49.181032 20.088041 L 49.123126 19.133428 L 48.720199 18.376988 L 48.708135 18.183648 L 49.279954 17.613297 L 49.803518 16.736019 L 50.177492 16.622432 L 50.278827 16.738436 L 50.384988 14.759124 L 51.034014 12.871648 L 50.804804 11.320099 L 50.831344 10.416237 L 51.299415 9.077362 L 51.067792 8.852605 L 50.628674 8.794603 L 49.702183 9.13053 L 49.44402 9.067695 L 49.154492 8.79702 L 49.448846 8.253253 L 51.5238 7.139134 L 52.689152 5.706006 L 52.903886 5.62142 L 53.779709 5.693922 L 54.308099 5.604503 L 55.007793 5.312077 L 55.859489 4.507302 L 56.129716 3.122508 L 56.428895 2.64641 L 58.875411 1.198781 L 59.053954 1.336535 L 59.102208 1.633795 L 58.976746 2.163061 L 58.614835 2.76483 L 57.919967 3.555105 L 57.6232 4.328463 L 57.51704 5.077653 L 57.683519 6.759706 L 57.632851 7.042465 L 57.232337 7.726403 L 58.23121 8.78977 L 58.578644 9.831386 L 58.554517 10.648245 L 58.424229 10.986589 L 58.002 11.547273 L 58.069557 11.996787 L 59.099796 12.272296 L 59.833268 13.335662 L 59.751235 14.42078 L 59.193893 14.913795 L 59.128749 15.085384 L 59.208369 15.310141 L 59.601645 15.757239 L 59.591994 16.037581 L 59.012937 16.194669 L 58.320482 16.010997 L 58.091271 16.344507 L 58.267401 17.06953 L 58.163654 18.369737 L 58.344609 18.961839 L 58.643788 21.712092 L 59.370022 22.840711 L 59.372435 23.067885 Z M 59.078081 23.739739 " stroke="rgb(100%, 100%, 100%)" stroke-width="0.5" stroke-opacity="1" stroke-miterlimit="4"/></g><path stroke-linecap="butt" transform="matrix(1.619012, 0, 0, 1.616329, 104.449559, 0.0780009)" fill-opacity="1" fill="rgb(17.248535%, 44.309998%, 94.119263%)" fill-rule="nonzero" stroke-linejoin="miter" d="M 42.73661 43.484526 L 42.5074 43.28152 L 42.517051 43.07368 L 42.270951 42.75467 L 42.068282 42.160151 L 42.111711 41.338459 L 42.000725 40.458765 L 41.436144 39.501735 L 40.871564 39.081221 L 39.908881 38.996635 L 37.800149 39.308395 L 36.974993 38.962801 L 36.441778 38.571289 L 35.819291 37.928435 L 35.339157 37.66501 L 34.815592 37.807598 L 34.622573 38.027522 L 34.352347 37.626342 L 33.831196 37.387085 L 33.568207 36.894069 L 33.346235 36.746648 L 33.143565 36.826401 L 32.890228 37.239664 L 32.40768 37.510339 L 32.272567 37.935685 L 32.048183 38.003354 L 31.671795 38.551955 L 31.362965 38.631707 L 30.791146 38.448035 L 30.105929 38.402117 L 29.893608 38.049272 L 29.543761 38.049272 L 29.437601 37.77618 L 29.119119 37.626342 L 29.04915 37.408836 L 29.174612 36.782899 L 28.897147 36.599227 L 28.810289 36.403471 L 28.479744 36.289884 L 28.421838 35.729199 L 28.120246 35.465774 L 28.093706 35.306269 L 28.306027 35.146764 L 29.000895 35.284519 L 29.215629 35.238601 L 29.167374 34.975176 L 28.64381 34.837421 L 28.527998 34.677916 L 28.5473 34.26707 L 28.778923 33.923893 L 29.148072 33.84414 L 29.903259 34.095481 L 30.482316 33.078033 L 31.186835 32.643019 L 31.23509 32.266007 L 30.899719 31.843077 L 30.964863 31.29206 L 31.13858 31.190557 L 31.478776 31.613487 L 31.826211 31.316227 L 31.915482 31.031052 L 31.835862 30.733792 L 32.262916 30.308446 L 32.106088 29.646258 L 32.620001 28.831816 L 32.70686 28.375052 L 32.629652 27.99804 L 32.192947 27.094178 L 32.291869 26.154065 L 32.067484 25.992143 L 31.420871 25.798804 L 30.752542 25.327539 L 30.878005 24.549348 L 30.482316 24.194087 L 30.311012 23.720405 L 30.414759 22.966382 L 30.27482 22.555535 L 30.031134 22.58937 L 29.88637 22.432282 L 29.770558 22.422615 L 29.734367 22.548285 L 29.577539 22.536202 L 29.577539 22.444365 L 29.734367 22.033519 L 30.110754 19.657861 L 30.313424 19.19868 L 30.342377 18.599328 L 30.798385 17.08403 L 30.950387 16.01583 L 30.923847 15.462396 L 33.573033 15.348809 L 34.808354 15.561482 L 35.129248 15.293224 L 35.532176 15.16272 L 36.820577 15.119219 L 38.162059 14.930713 L 38.84969 15.095051 L 39.435985 16.209169 L 39.764117 16.583765 L 40.287681 16.895524 L 40.490351 16.953526 L 41.375826 16.559597 L 42.33127 16.482261 L 42.584607 16.34934 L 43.634148 15.334309 L 44.398986 15.464813 L 44.987694 15.242472 L 45.195189 14.447364 L 45.858692 14.167022 L 46.032409 13.751342 L 46.102379 12.84748 L 46.321938 11.842116 L 46.717627 10.991422 L 46.580101 9.599378 L 46.876867 8.92269 L 47.405257 8.323338 L 47.738215 7.588649 L 47.822661 7.501646 L 48.066347 7.702235 L 48.891503 8.876772 L 49.026617 8.920274 L 49.154492 8.79702 L 49.44402 9.067695 L 49.702183 9.13053 L 50.628674 8.794603 L 51.06538 8.852605 L 51.299415 9.077362 L 50.828931 10.416237 L 50.804804 11.320099 L 51.034014 12.871648 L 50.384988 14.759124 L 50.278827 16.738436 L 50.177492 16.622432 L 49.803518 16.736019 L 49.279954 17.613297 L 48.708135 18.183648 L 48.720199 18.376988 L 49.123126 19.133428 L 49.181032 20.088041 L 49.029029 22.205108 L 48.744326 23.22014 L 48.978362 23.485981 L 49.238937 23.372394 L 49.690119 23.952413 L 50.295716 25.23087 L 50.389813 25.888224 L 50.07857 27.439772 L 49.909678 29.663175 L 49.518815 30.480034 L 48.848074 31.231641 L 49.767327 31.710156 L 49.885551 32.079918 L 48.903567 32.507682 L 48.67677 32.766273 L 48.741914 33.346291 L 48.346225 33.500963 L 48.363114 33.752304 L 48.278668 33.85139 L 47.97225 33.938393 L 47.467988 34.320238 L 47.480052 35.480275 L 47.559672 35.671198 L 47.817835 35.811369 L 47.887804 36.06996 L 47.721326 36.451805 L 47.697198 36.838484 L 48.054283 37.580424 L 48.020505 37.66501 L 47.673071 37.660177 L 47.61034 38.049272 L 47.173634 37.952603 L 47.195349 38.196694 L 47.429384 38.576122 L 47.354589 38.70421 L 47.00233 38.779129 L 46.816549 39.040137 L 46.980615 39.165807 L 47.205 39.160974 L 47.426972 39.666073 L 47.755104 39.88358 L 47.253254 41.075034 L 47.306335 41.261123 L 47.595863 41.401294 L 47.665833 41.539049 L 47.578974 41.742055 L 47.291858 41.855642 L 47.378717 42.399409 L 46.968551 42.52508 L 47.069886 43.455525 L 47.009568 43.605364 L 46.712801 43.750368 L 47.045759 44.311052 L 46.761056 44.282051 L 45.952789 44.050044 L 44.49067 43.438608 L 43.699292 43.404774 L 43.178141 43.554612 Z M 42.73661 43.484526 " stroke="rgb(100%, 100%, 100%)" stroke-width="0.5" stroke-opacity="1" stroke-miterlimit="4"/><path stroke-linecap="butt" transform="matrix(1.619012, 0, 0, 1.616329, 104.449559, 0.0780009)" fill-opacity="1" fill="rgb(17.248535%, 44.309998%, 94.119263%)" fill-rule="nonzero" stroke-linejoin="miter" d="M 22.602315 43.486943 L 22.718127 43.235602 L 22.62403 43.211434 L 22.807398 42.950426 L 23.145181 41.239373 L 23.067973 41.033949 L 22.640919 40.975948 L 23.019719 40.966281 L 23.067973 40.850277 L 23.116228 40.966281 L 23.23204 40.966281 L 23.145181 40.908279 L 23.164483 40.681105 L 23.289945 40.669021 L 23.386455 40.325844 L 23.299596 40.132504 L 23.425059 39.825578 L 23.405757 39.574237 L 23.589125 39.231059 L 23.485377 39.160974 L 23.765255 38.397283 L 23.668745 38.08794 L 23.91967 37.756846 L 23.794207 37.597341 L 24.141642 36.625811 L 24.054783 36.398637 L 24.2285 35.837953 L 24.305708 34.832588 L 24.546982 34.010895 L 24.52768 33.542047 L 24.626602 33.41396 L 24.752064 31.973581 L 24.691746 31.780242 L 24.858225 31.333145 L 25.070546 31.265476 L 25.234612 30.989967 L 25.427631 30.028104 L 25.688206 27.408355 L 25.632713 27.178764 L 25.736461 27.16668 L 25.680968 26.400573 L 26.038053 26.146815 L 26.269676 26.134731 L 26.655714 25.917224 L 26.870448 26.134731 L 27.333693 26.354655 L 27.845194 26.294236 L 27.594269 26.41024 L 26.957306 26.238651 L 27.40125 26.676082 L 27.439854 26.538327 L 27.546014 26.63983 L 27.517061 26.477909 L 27.584618 26.468242 L 27.796939 26.915339 L 28.079229 26.869421 L 28.08888 26.777585 L 28.240883 26.881505 L 28.272248 27.06276 L 28.465267 27.007175 L 28.330154 26.799335 L 28.195041 26.777585 L 28.889909 26.342571 L 29.744018 24.851441 L 30.117993 23.292642 L 30.127643 22.787543 L 30.031134 22.58937 L 30.27482 22.555535 L 30.414759 22.966382 L 30.311012 23.720405 L 30.482316 24.194087 L 30.878005 24.549348 L 30.752542 25.327539 L 31.420871 25.798804 L 32.067484 25.992143 L 32.289456 26.154065 L 32.192947 27.094178 L 32.629652 27.99804 L 32.70686 28.372635 L 32.620001 28.831816 L 32.106088 29.646258 L 32.262916 30.308446 L 31.835862 30.733792 L 31.915482 31.031052 L 31.826211 31.316227 L 31.478776 31.613487 L 31.13858 31.190557 L 30.964863 31.29206 L 30.897307 31.843077 L 31.23509 32.266007 L 31.186835 32.643019 L 30.482316 33.078033 L 29.903259 34.095481 L 29.148072 33.84414 L 28.778923 33.923893 L 28.5473 34.26707 L 28.527998 34.677916 L 28.64381 34.837421 L 29.167374 34.975176 L 29.215629 35.238601 L 29.000895 35.284519 L 28.306027 35.146764 L 28.091293 35.306269 L 28.120246 35.465774 L 28.421838 35.729199 L 28.479744 36.289884 L 28.810289 36.403471 L 28.897147 36.599227 L 29.174612 36.782899 L 29.04915 37.408836 L 29.119119 37.626342 L 29.437601 37.77618 L 29.543761 38.049272 L 29.891195 38.049272 L 30.103516 38.402117 L 30.791146 38.448035 L 31.362965 38.629291 L 31.671795 38.551955 L 32.048183 38.003354 L 32.272567 37.935685 L 32.40768 37.510339 L 32.890228 37.239664 L 33.143565 36.826401 L 33.343823 36.746648 L 33.568207 36.894069 L 33.828783 37.387085 L 34.349934 37.626342 L 34.622573 38.027522 L 34.176217 38.530204 L 34.05558 38.781545 L 33.638177 39.185141 L 32.952959 39.685407 L 32.084374 40.127671 L 30.684986 40.656938 L 30.419585 40.857527 L 30.096278 41.461713 L 29.780209 43.088181 L 29.476204 43.92679 L 29.406235 44.43914 L 28.026149 44.736399 L 27.869321 44.700148 L 27.628047 44.381138 L 27.386774 44.2458 L 27.085181 43.80112 L 26.824606 43.675449 L 25.992211 43.675449 L 24.930607 43.515944 L 23.924495 43.731034 L 23.374391 43.525611 Z M 22.602315 43.486943 " stroke="rgb(100%, 100%, 100%)" stroke-width="0.5" stroke-opacity="1" stroke-miterlimit="4"/><path stroke-linecap="butt" transform="matrix(1.619012, 0, 0, 1.616329, 104.449559, 0.0780009)" fill-opacity="1" fill="rgb(17.248535%, 44.309998%, 94.119263%)" fill-rule="nonzero" stroke-linejoin="miter" d="M 15.803221 65.387465 L 16.420882 63.601492 L 16.9927 62.707297 L 17.243625 62.093444 L 17.911953 59.988462 L 18.594758 60.203552 L 19.214832 60.193885 L 19.511598 60.363057 L 20.295738 60.363057 L 20.587679 60.283304 L 21.292199 59.488196 L 21.523821 59.352858 L 21.89297 59.432611 L 22.066687 59.727453 L 22.201801 59.783039 L 22.541997 59.570365 L 23.111403 59.546198 L 23.246516 59.41086 L 23.207912 59.094267 L 22.67711 58.77284 L 22.443074 57.525801 L 21.970178 57.148789 L 21.825414 56.832196 L 21.960527 55.79783 L 22.259706 55.435319 L 22.599902 54.75138 L 22.510631 54.127861 L 22.599902 53.376254 L 22.541997 53.240916 L 21.6903 52.581146 L 20.418788 52.378139 L 21.15226 49.932396 L 21.395946 48.68294 L 21.598616 48.032836 L 21.666173 48.04492 L 21.859192 46.882467 L 21.801286 46.744712 L 21.9364 46.643209 L 22.264532 45.149662 L 22.257294 44.738816 L 22.392407 44.569644 L 22.4479 44.045211 L 22.380343 43.999293 L 22.604728 43.486943 L 23.374391 43.525611 L 23.924495 43.731034 L 24.930607 43.515944 L 25.994624 43.675449 L 26.827019 43.675449 L 27.087594 43.80112 L 27.386774 44.2458 L 27.628047 44.381138 L 27.869321 44.700148 L 28.026149 44.736399 L 29.406235 44.43914 L 29.333853 44.968406 L 29.090166 45.205247 L 28.18539 45.61126 L 27.584618 46.597291 L 27.546014 47.704159 L 27.707668 48.876279 L 27.594269 49.180789 L 27.297502 49.391045 L 26.81978 50.082234 L 26.192469 51.508112 L 26.13215 51.986627 L 26.146627 52.460308 L 26.810129 53.56476 L 27.07553 54.734463 L 27.116547 55.258896 L 26.723271 56.223177 L 26.682254 56.54702 L 26.790827 56.820112 L 27.155151 57.209208 L 27.555665 57.970482 L 27.671477 58.441746 L 27.589444 59.043515 L 27.311979 59.652534 L 27.384361 60.147967 L 27.232358 60.273637 L 27.384361 60.677233 L 26.906639 61.694682 L 26.991085 62.620294 L 27.5243 63.340484 L 28.320503 63.97367 L 28.489395 64.628607 L 28.180564 65.580804 L 26.440981 65.892564 L 26.412028 65.938482 L 24.665206 65.868396 L 24.407043 66.068986 L 24.0958 66.970431 L 23.724238 67.202438 L 22.044973 67.637452 L 21.333215 68.335891 L 21.1788 68.732236 L 20.993019 68.809572 L 20.237832 69.740018 L 19.9097 69.875356 L 19.60087 69.522511 L 19.349945 68.741903 L 19.106258 68.323807 L 18.23526 67.80179 L 17.907128 68.130467 L 17.267752 68.142551 L 17.299118 68.253721 L 17.569345 68.367308 L 17.839571 68.85549 L 17.752713 68.956993 L 17.376326 68.935243 L 17.364262 69.196251 L 17.267752 69.297754 L 16.862413 69.341255 L 16.650092 69.172084 L 16.04932 69.092331 L 15.887667 68.969077 L 15.836999 68.732236 L 16.505327 68.176386 L 16.350912 67.859792 L 15.991414 67.666453 L 15.904556 67.303941 L 16.126528 67.055017 L 16.717648 67.190355 L 16.997526 67.098518 L 17.077146 66.373496 L 17.007177 66.068986 L 17.328071 65.556637 L 17.132639 65.377798 L 16.794856 65.501052 L 16.553582 65.479301 L 16.341261 65.218293 Z M 15.803221 65.387465 " stroke="rgb(100%, 100%, 100%)" stroke-width="0.5" stroke-opacity="1" stroke-miterlimit="4"/><path stroke-linecap="butt" transform="matrix(1.619012, 0, 0, 1.616329, 104.449559, 0.0780009)" fill-opacity="1" fill="rgb(17.248535%, 44.309998%, 94.119263%)" fill-rule="nonzero" stroke-linejoin="miter" d="M 17.911953 59.988462 L 18.367961 58.325743 L 18.483772 58.233907 L 18.445168 58.098569 L 18.705744 57.92698 L 18.930129 57.472633 L 19.190704 56.609855 L 19.142449 56.358514 L 19.255848 56.315013 L 19.403025 55.962168 L 19.364421 55.80508 L 19.45128 55.860665 L 19.740808 54.995471 L 19.953129 53.961106 L 20.061702 53.905521 L 20.001384 53.506758 L 20.117195 53.46084 L 20.418788 52.378139 L 21.6903 52.578729 L 22.541997 53.240916 L 22.599902 53.376254 L 22.510631 54.127861 L 22.599902 54.75138 L 22.259706 55.435319 L 21.960527 55.79783 L 21.825414 56.832196 L 21.970178 57.148789 L 22.445487 57.525801 L 22.67711 58.77284 L 23.207912 59.094267 L 23.246516 59.41086 L 23.111403 59.546198 L 22.541997 59.570365 L 22.201801 59.783039 L 22.066687 59.727453 L 21.89297 59.432611 L 21.526234 59.352858 L 21.292199 59.488196 L 20.587679 60.283304 L 20.295738 60.363057 L 19.514011 60.363057 L 19.214832 60.193885 L 18.594758 60.203552 Z M 17.911953 59.988462 " stroke="rgb(100%, 100%, 100%)" stroke-width="0.5" stroke-opacity="1" stroke-miterlimit="4"/><path fill="rgb(17.248535%, 44.309998%, 94.119263%)" d="M 175.40625 132.34375 L 175.382812 135.703125 L 175.183594 137.023438 L 174.253906 139.667969 L 170.867188 145.878906 L 170.578125 147.195312 L 171.21875 148.59375 L 173.734375 151.972656 L 174.183594 152.933594 L 174.464844 154.300781 L 174.523438 155.320312 L 173.792969 158.195312 L 171.636719 161.515625 L 171.40625 162.847656 L 171.542969 163.914062 L 172.003906 165.1875 L 172 166.53125 L 171.019531 167.429688 L 168.902344 168.816406 L 167.398438 172.132812 L 167.378906 173.316406 L 167.660156 174.390625 L 167.375 175.707031 L 166.292969 176.09375 L 165.453125 177.109375 L 164.957031 178.46875 L 164.949219 181.125 L 164.15625 182.976562 L 162.773438 185.5 L 162.476562 186.945312 L 161.636719 187.722656 L 159.972656 190.929688 L 158.5625 197.902344 L 158.171875 199.066406 L 157.394531 200.183594 L 157.171875 201.0625 L 159.121094 204.722656 L 159.417969 205.734375 L 159.238281 206.507812 L 157.988281 207.894531 L 157.628906 209.007812 L 157.820312 210.300781 L 156.746094 212.679688 L 158.515625 220.480469 L 154.152344 226.730469 L 152.976562 231.386719 L 153.152344 236.441406 L 151.492188 239.757812 L 151.238281 240.972656 L 151.402344 241.9375 L 151.238281 243.238281 L 150.277344 247.230469 L 150.441406 252.023438 L 149.703125 252.929688 L 148.695312 253.664062 L 147.839844 254.65625 L 146.683594 257.410156 L 146.070312 257.246094 L 145.835938 257.804688 L 145.523438 257.945312 L 145.273438 258.574219 L 144.503906 259.339844 L 144.503906 259.609375 L 144.050781 260.234375 L 143.566406 260.625 L 142.144531 258.980469 L 141.402344 257.582031 L 141.132812 256.503906 L 140.90625 254.625 L 141.4375 252.867188 L 141.703125 251.109375 L 141.445312 249.898438 L 140.4375 248.136719 L 140.476562 245.03125 L 134.710938 228.871094 L 134.824219 227.894531 L 128.140625 209.148438 L 126.992188 204.835938 L 123.058594 202.265625 L 122.914062 200.273438 L 124.082031 196.984375 L 121.636719 194.125 L 121.800781 190.574219 L 120.167969 183.792969 L 115.203125 173.378906 L 111.984375 163.972656 L 107.332031 148.5625 L 109.871094 146.660156 L 112.378906 144.5 L 113 143.359375 L 112.847656 139.703125 L 113.339844 138.058594 L 115.21875 135.648438 L 120.878906 130.175781 L 122.519531 129.78125 L 123.019531 128.898438 L 123.011719 127.632812 L 122.246094 126.5 L 119.792969 124.214844 L 121.15625 122.003906 L 121.503906 121.695312 L 121.359375 121.402344 L 121.546875 121.183594 L 121.40625 121.421875 L 121.644531 121.496094 L 122.613281 119.683594 L 123.132812 119.136719 L 123.503906 118.332031 L 123.675781 118.351562 L 125.492188 115.222656 L 128.25 109.53125 L 127.984375 109.035156 L 128.15625 108.394531 L 128.046875 109.089844 L 128.378906 109.441406 L 128.25 109.257812 L 128.296875 108.613281 L 128.863281 108.6875 L 129.019531 108.46875 L 128.96875 107.792969 L 129.203125 107.71875 L 130.035156 105.765625 L 130.90625 105.492188 L 131.25 105.914062 L 131.640625 105.949219 L 132.1875 105.75 L 132.5 106.039062 L 131.984375 106.867188 L 132.097656 107.359375 L 131.96875 108.53125 L 131.515625 108.679688 L 130.558594 108.460938 L 130.199219 108.863281 L 130.339844 109.449219 L 130.921875 109.761719 L 131.171875 110.273438 L 130.089844 111.171875 L 130.167969 111.554688 L 130.433594 111.753906 L 131.40625 111.882812 L 131.75 112.15625 L 132.40625 112.085938 L 132.5625 111.921875 L 132.582031 111.5 L 133.191406 111.535156 L 133.332031 111.371094 L 132.894531 110.582031 L 132.457031 110.398438 L 132.40625 110.21875 L 133.441406 110.199219 L 133.972656 109.667969 L 135.382812 110.511719 L 135.777344 111.1875 L 136.179688 112.449219 L 136.683594 113.019531 L 137.214844 112.800781 L 138.4375 111.296875 L 138.738281 111.171875 L 139.5 112.011719 L 140.113281 113.53125 L 140.300781 113.640625 L 141.085938 113.566406 L 141.566406 113.988281 L 141.269531 114.847656 L 141.585938 116.035156 L 141.347656 117.023438 L 141.523438 119 L 141.425781 119.96875 L 141.566406 120.296875 L 144.011719 121.761719 L 144.578125 122.417969 L 145.640625 122.726562 L 146.867188 123.675781 L 145.992188 124.976562 L 145.496094 127.449219 L 145.742188 130.125 L 145.53125 131.269531 L 144.402344 133.40625 L 143.15625 135.015625 L 142.058594 137.214844 L 142.210938 138.519531 L 142.84375 139.542969 L 143.75 140.289062 L 145.148438 140.667969 L 147.710938 140.328125 L 150.070312 139.742188 L 155.628906 140.144531 L 156.820312 139.527344 L 157.601562 139.707031 L 161.230469 139.152344 L 162.058594 138.65625 L 165.109375 135.394531 L 166.933594 134.585938 L 168.808594 133.222656 L 170.796875 131.464844 L 171.6875 131.152344 L 175.414062 131.207031 Z M 175.40625 132.34375 " fill-opacity="1" fill-rule="nonzero"/><g clip-path="url(#id3)"><path stroke-linecap="butt" transform="matrix(1.619012, 0, 0, 1.616329, 104.449559, 0.0780009)" fill="none" stroke-linejoin="miter" d="M 43.827167 81.830981 L 43.812691 83.90938 L 43.689641 84.726239 L 43.11541 86.362374 L 41.023566 90.204994 L 40.845024 91.019437 L 41.240713 91.88463 L 42.794516 93.975113 L 43.07198 94.569632 L 43.245697 95.415491 L 43.281888 96.046261 L 42.830707 97.824984 L 41.498875 99.879215 L 41.356524 100.703324 L 41.44097 101.363095 L 41.725673 102.150953 L 41.72326 102.982312 L 41.117663 103.538163 L 39.809959 104.396107 L 38.881055 106.447921 L 38.868992 107.180194 L 39.042709 107.844799 L 38.866579 108.659241 L 38.198251 108.898498 L 37.679512 109.526851 L 37.373094 110.367878 L 37.368269 112.011263 L 36.878483 113.156799 L 36.024374 114.718015 L 35.841006 115.612209 L 35.322267 116.093141 L 34.294441 118.077287 L 33.423443 122.391172 L 33.182169 123.111362 L 32.702034 123.80255 L 32.564508 124.346317 L 33.768464 126.610805 L 33.951832 127.236741 L 33.840847 127.715256 L 33.068771 128.5732 L 32.846799 129.261972 L 32.965023 130.061913 L 32.30152 131.53371 L 33.39449 136.359945 L 30.699462 140.226733 L 29.973228 143.10749 L 30.081801 146.234755 L 29.056388 148.286569 L 28.89956 149.038176 L 29.000895 149.635112 L 28.89956 150.439887 L 28.306027 152.909798 L 28.407362 155.875141 L 27.951354 156.435825 L 27.328868 156.890173 L 26.800478 157.504026 L 26.086308 159.207829 L 25.707508 159.106326 L 25.562744 159.45192 L 25.369725 159.538923 L 25.21531 159.928018 L 24.740001 160.4017 L 24.740001 160.568455 L 24.460123 160.955134 L 24.160944 161.196808 L 23.282707 160.17936 L 22.824287 159.314166 L 22.657808 158.647145 L 22.517869 157.484692 L 22.846002 156.397157 L 23.010068 155.309623 L 22.850827 154.560433 L 22.228341 153.470482 L 22.252468 151.549172 L 18.691268 141.551108 L 18.761237 140.946922 L 14.633043 129.348974 L 13.923698 126.68089 L 11.494072 125.090674 L 11.4048 123.858135 L 12.126209 121.823238 L 10.615835 120.054182 L 10.71717 117.857363 L 9.708646 113.661898 L 6.642056 107.218862 L 4.653961 101.399346 L 1.78039 91.865297 L 3.34867 90.688343 L 4.897647 89.351884 L 5.281272 88.646195 L 5.187176 86.384124 L 5.491181 85.366676 L 6.651707 83.875545 L 10.147764 80.489689 L 11.161114 80.245598 L 11.469944 79.699414 L 11.465119 78.91639 L 10.992222 78.215534 L 9.477023 76.80174 L 10.319068 75.433864 L 10.533802 75.242941 L 10.444531 75.061685 L 10.560342 74.926348 L 10.473484 75.073769 L 10.620661 75.119687 L 11.219019 73.998318 L 11.539914 73.659975 L 11.769124 73.162126 L 11.875284 73.174209 L 12.997207 71.238398 L 14.7006 67.717204 L 14.536534 67.410278 L 14.642694 67.013932 L 14.575137 67.444113 L 14.78022 67.661619 L 14.7006 67.548032 L 14.729553 67.14927 L 15.079399 67.195188 L 15.175909 67.05985 L 15.144543 66.641754 L 15.289308 66.595836 L 15.803221 65.387465 L 16.341261 65.218293 L 16.553582 65.479301 L 16.794856 65.501052 L 17.132639 65.377798 L 17.325658 65.556637 L 17.007177 66.068986 L 17.077146 66.373496 L 16.997526 67.098518 L 16.717648 67.190355 L 16.126528 67.055017 L 15.904556 67.303941 L 15.991414 67.666453 L 16.350912 67.859792 L 16.505327 68.176386 L 15.836999 68.732236 L 15.885254 68.969077 L 16.04932 69.092331 L 16.650092 69.172084 L 16.862413 69.341255 L 17.267752 69.297754 L 17.364262 69.196251 L 17.376326 68.935243 L 17.752713 68.956993 L 17.839571 68.85549 L 17.569345 68.367308 L 17.299118 68.253721 L 17.267752 68.142551 L 17.907128 68.130467 L 18.23526 67.80179 L 19.106258 68.323807 L 19.349945 68.741903 L 19.598457 69.522511 L 19.9097 69.875356 L 20.237832 69.740018 L 20.993019 68.809572 L 21.1788 68.732236 L 21.649284 69.251836 L 22.028084 70.191949 L 22.143895 70.259618 L 22.628855 70.2137 L 22.925622 70.474708 L 22.742254 71.006391 L 22.937686 71.741081 L 22.790509 72.352517 L 22.899082 73.575389 L 22.838763 74.174741 L 22.925622 74.377747 L 24.435996 75.284026 L 24.785843 75.690038 L 25.442107 75.880961 L 26.199707 76.468229 L 25.659254 77.273005 L 25.352836 78.802803 L 25.504838 80.458271 L 25.374551 81.166377 L 24.677269 82.488335 L 23.907606 83.484033 L 23.229627 84.844659 L 23.323724 85.651851 L 23.714587 86.285038 L 24.274342 86.746636 L 25.138102 86.98106 L 26.720858 86.770803 L 28.178152 86.408292 L 31.611477 86.657216 L 32.347362 86.275371 L 32.82991 86.386541 L 35.071343 86.043364 L 35.582843 85.736437 L 37.467191 83.718457 L 38.593939 83.218192 L 39.752053 82.374748 L 40.980137 81.287214 L 41.530241 81.093875 L 43.831993 81.127709 Z M 43.827167 81.830981 " stroke="rgb(100%, 100%, 100%)" stroke-width="0.5" stroke-opacity="1" stroke-miterlimit="4"/></g><path stroke-linecap="butt" transform="matrix(1.619012, 0, 0, 1.616329, 104.449559, 0.0780009)" fill-opacity="1" fill="rgb(17.248535%, 44.309998%, 94.119263%)" fill-rule="nonzero" stroke-linejoin="miter" d="M 34.897626 70.974973 L 34.849371 71.049893 L 33.092898 71.095811 L 31.609064 71.702413 L 29.78986 73.502886 L 28.156437 74.285911 L 26.518188 75.938963 L 26.199707 76.468229 L 25.442107 75.880961 L 24.785843 75.690038 L 24.435996 75.284026 L 22.928035 74.377747 L 22.841176 74.174741 L 22.899082 73.575389 L 22.792921 72.352517 L 22.937686 71.741081 L 22.742254 71.006391 L 22.928035 70.474708 L 22.628855 70.2137 L 22.146308 70.259618 L 22.028084 70.191949 L 21.649284 69.251836 L 21.1788 68.732236 L 21.333215 68.335891 L 22.044973 67.637452 L 23.724238 67.202438 L 24.0958 66.970431 L 24.407043 66.068986 L 24.665206 65.868396 L 26.412028 65.938482 L 26.013926 66.528167 L 26.305867 67.620535 L 26.976608 67.908127 L 27.939291 68.045881 L 28.827178 67.729288 L 29.48103 67.018766 L 30.14212 66.627254 L 30.911783 67.335359 L 33.114613 68.277889 L 34.728734 68.268222 L 35.363284 68.930409 L 35.259536 70.407039 Z M 34.897626 70.974973 " stroke="rgb(100%, 100%, 100%)" stroke-width="0.5" stroke-opacity="1" stroke-miterlimit="4"/><path fill="rgb(17.248535%, 44.309998%, 94.119263%)" d="M 123.011719 127.632812 L 123.019531 128.898438 L 122.519531 129.785156 L 120.886719 130.175781 L 115.671875 135.214844 L 115.21875 135.652344 L 113.339844 138.0625 L 113.117188 138.800781 L 112.84375 139.710938 L 113 143.367188 L 112.378906 144.507812 L 110.292969 146.300781 L 109.863281 146.671875 L 107.328125 148.570312 L 105.136719 141.304688 L 105.261719 141.210938 L 109.472656 136.96875 L 113.203125 132.886719 L 117.773438 127.242188 L 119.796875 124.226562 L 122.25 126.496094 Z M 180.984375 83.117188 L 180.554688 80.585938 L 180.757812 79.117188 L 180.371094 78.160156 L 180.660156 76.921875 L 180.21875 75.738281 L 180.601562 73.75 L 180.046875 72.84375 L 180.15625 71.652344 L 178.847656 71.277344 L 176.480469 70.289062 L 175.199219 70.234375 L 174.355469 70.476562 L 173.640625 70.363281 L 173.269531 70.035156 L 173.285156 69.699219 L 172.882812 69.183594 L 172.554688 68.222656 L 172.625 66.894531 L 172.449219 65.472656 L 171.53125 63.925781 L 170.617188 63.246094 L 169.054688 63.109375 L 165.640625 63.613281 L 164.304688 63.054688 L 163.441406 62.421875 L 162.4375 61.382812 L 161.652344 60.957031 L 160.808594 61.1875 L 159.773438 62.359375 L 159.578125 62.761719 L 158.902344 63.414062 L 157.792969 64.222656 L 156.386719 64.9375 L 154.121094 65.792969 L 153.691406 66.117188 L 153.355469 66.746094 L 153.167969 67.097656 L 152.65625 69.722656 L 152.164062 71.078125 L 151.933594 72.761719 L 151.539062 73.144531 L 150.074219 73.800781 L 149.101562 75.394531 L 149.039062 77.183594 L 149.304688 79.078125 L 149.117188 79.574219 L 149 79.65625 L 148.644531 79.910156 L 147.867188 81.03125 L 146.847656 83.332031 L 146.753906 84.109375 L 146.777344 84.875 L 147.851562 86.660156 L 148.28125 88.546875 L 148.347656 89.398438 L 147.710938 90.957031 L 147.679688 91.21875 L 147.644531 91.480469 L 147.820312 91.917969 L 148.410156 92.546875 L 148.488281 92.691406 L 149.058594 93.777344 L 149.246094 94.539062 L 149.113281 95.511719 L 148.660156 96.492188 L 148.78125 97.292969 L 148.53125 97.496094 L 148.78125 98.148438 L 148.007812 99.796875 L 148.144531 101.292969 L 149.007812 102.457031 L 150.296875 103.480469 L 150.570312 104.539062 L 150.070312 106.078125 L 147.257812 106.582031 L 146.558594 107.613281 L 147.03125 109.378906 L 148.121094 109.84375 L 149.675781 110.070312 L 151.113281 109.554688 L 152.171875 108.40625 L 152.941406 107.949219 L 153.25 107.769531 L 154.488281 108.917969 L 158.054688 110.441406 L 160.671875 110.429688 L 161.699219 111.5 L 161.53125 113.882812 L 160.941406 114.800781 L 160.863281 114.921875 L 158.019531 114.996094 L 155.617188 115.976562 L 153.179688 118.382812 L 152.667969 118.886719 L 150.027344 120.152344 L 147.371094 122.824219 L 146.855469 123.679688 L 145.984375 124.980469 L 145.488281 127.449219 L 145.730469 130.125 L 145.523438 131.269531 L 144.394531 133.40625 L 143.144531 135.015625 L 142.050781 137.214844 L 142.203125 138.519531 L 142.835938 139.542969 L 143.738281 140.289062 L 145.140625 140.664062 L 147.699219 140.328125 L 150.0625 139.738281 L 155.621094 140.140625 L 156.808594 139.523438 L 157.589844 139.703125 L 161.222656 139.148438 L 162.050781 138.652344 L 165.097656 135.394531 L 166.921875 134.582031 L 168.792969 133.21875 L 169.339844 132.738281 L 170.789062 131.460938 L 171.679688 131.148438 L 175.402344 131.199219 L 175.558594 125.542969 L 177.972656 117.621094 L 178.558594 115.867188 L 179.921875 113.421875 L 179.222656 109.574219 L 179.667969 108.324219 L 179.082031 107.386719 L 179.632812 106.300781 L 178.652344 105.679688 L 178.101562 102.898438 L 179.121094 101.921875 L 179.476562 99.5625 L 178.535156 97.492188 L 179.0625 96.726562 L 178.96875 96.277344 L 178.351562 95.566406 L 178.226562 92.71875 L 178.386719 92.398438 L 178.691406 91.792969 L 178.875 90.617188 L 179.667969 89.542969 L 180.410156 85.394531 L 180.894531 84.433594 L 181.03125 83.871094 Z M 180.984375 83.117188 " fill-opacity="1" fill-rule="nonzero"/><g clip-path="url(#id4)"><path stroke-linecap="butt" transform="matrix(1.619012, 0, 0, 1.616329, 104.449559, 0.0780009)" fill="none" stroke-linejoin="miter" d="M 11.465119 78.91639 L 11.469944 79.699414 L 11.161114 80.248015 L 10.152589 80.489689 L 6.931585 83.607287 L 6.651707 83.877962 L 5.491181 85.369092 L 5.353655 85.825857 L 5.184763 86.388958 L 5.281272 88.651029 L 4.897647 89.356718 L 3.609245 90.466003 L 3.343844 90.695593 L 1.777977 91.87013 L 0.424432 87.374989 L 0.501639 87.316987 L 3.10257 84.692404 L 5.406735 82.166908 L 8.229638 78.674715 L 9.479436 76.80899 L 10.994635 78.213118 Z M 47.272556 51.375191 L 47.007155 49.809142 L 47.132618 48.900447 L 46.893757 48.308345 L 47.072299 47.542237 L 46.79966 46.809964 L 47.036108 45.579842 L 46.693499 45.019158 L 46.761056 44.282051 L 45.952789 44.050044 L 44.49067 43.438608 L 43.699292 43.404774 L 43.178141 43.554612 L 42.73661 43.484526 L 42.5074 43.28152 L 42.517051 43.07368 L 42.268539 42.75467 L 42.065869 42.160151 L 42.109298 41.338459 L 42.000725 40.458765 L 41.433732 39.501735 L 40.869151 39.081221 L 39.904056 38.996635 L 37.795323 39.308395 L 36.970167 38.962801 L 36.436952 38.571289 L 35.816879 37.928435 L 35.331918 37.66501 L 34.810767 37.807598 L 34.171392 38.532621 L 34.050755 38.781545 L 33.633351 39.185141 L 32.948134 39.685407 L 32.079548 40.127671 L 30.68016 40.656938 L 30.414759 40.857527 L 30.207264 41.246623 L 30.091452 41.46413 L 29.775384 43.088181 L 29.471379 43.92679 L 29.329027 44.968406 L 29.085341 45.205247 L 28.180564 45.61126 L 27.579793 46.597291 L 27.541189 47.704159 L 27.705255 48.876279 L 27.589444 49.183205 L 27.517061 49.233957 L 27.297502 49.391045 L 26.817368 50.08465 L 26.187643 51.508112 L 26.129737 51.989044 L 26.144214 52.462725 L 26.807717 53.567177 L 27.073118 54.734463 L 27.114134 55.261313 L 26.720858 56.225593 L 26.701556 56.387515 L 26.679842 56.549437 L 26.788415 56.820112 L 27.152738 57.209208 L 27.200993 57.298627 L 27.553253 57.970482 L 27.669064 58.441746 L 27.587031 59.043515 L 27.307153 59.650118 L 27.381948 60.14555 L 27.227533 60.271221 L 27.381948 60.674817 L 26.904226 61.694682 L 26.988672 62.620294 L 27.521887 63.340484 L 28.31809 63.97367 L 28.486982 64.628607 L 28.178152 65.580804 L 26.440981 65.892564 L 26.009101 66.530584 L 26.301042 67.622952 L 26.974196 67.910544 L 27.934465 68.050715 L 28.822352 67.731705 L 29.476204 67.021183 L 29.951514 66.738424 L 30.14212 66.627254 L 30.906958 67.337776 L 33.109787 68.280305 L 34.726321 68.273055 L 35.360871 68.935243 L 35.257123 70.409456 L 34.8928 70.97739 L 34.844545 71.052309 L 33.088072 71.098227 L 31.604239 71.70483 L 30.098691 73.193543 L 29.782622 73.505303 L 28.151611 74.288328 L 26.51095 75.94138 L 26.192469 76.470646 L 25.654428 77.275421 L 25.34801 78.802803 L 25.4976 80.458271 L 25.369725 81.166377 L 24.672444 82.488335 L 23.900368 83.484033 L 23.224801 84.844659 L 23.318898 85.651851 L 23.709762 86.285038 L 24.267104 86.746636 L 25.133277 86.978643 L 26.71362 86.770803 L 28.173326 86.405875 L 31.606652 86.654799 L 32.340124 86.272954 L 32.822671 86.384124 L 35.066517 86.040947 L 35.578018 85.734021 L 37.459953 83.718457 L 38.586701 83.215775 L 39.742403 82.372332 L 40.080186 82.075072 L 40.975311 81.284797 L 41.525416 81.091458 L 43.824754 81.122876 L 43.921264 77.623432 L 45.412336 72.722278 L 45.774246 71.637161 L 46.616292 70.12428 L 46.184412 67.743789 L 46.459464 66.970431 L 46.097553 66.390413 L 46.437749 65.718558 L 45.832152 65.334296 L 45.491956 63.613576 L 46.121681 63.00939 L 46.34124 61.549677 L 45.75977 60.268804 L 46.085489 59.795122 L 46.027584 59.517197 L 45.646371 59.07735 L 45.569164 57.315544 L 45.668086 57.117371 L 45.856279 56.742776 L 45.969678 56.015337 L 46.459464 55.350733 L 46.917884 52.784152 L 47.217063 52.189633 L 47.301509 51.841622 Z M 47.272556 51.375191 " stroke="rgb(100%, 100%, 100%)" stroke-width="0.5" stroke-opacity="1" stroke-miterlimit="4"/></g></svg>