<svg xmlns="http://www.w3.org/2000/svg" xmlns:xlink="http://www.w3.org/1999/xlink" width="411" zoomAndPan="magnify" viewBox="0 0 308.25 262.500001" height="350" preserveAspectRatio="xMidYMid meet" version="1.0"><defs><clipPath id="id1"><path d="M 0 0.0703125 L 307.5 0.0703125 L 307.5 261.933594 L 0 261.933594 Z M 0 0.0703125 " clip-rule="nonzero"/></clipPath><clipPath id="id2"><path d="M 180 10.859375 L 261.863281 10.859375 L 261.863281 85 L 180 85 Z M 180 10.859375 " clip-rule="nonzero"/></clipPath><clipPath id="id3"><path d="M 2 261 L 77 261 L 77 261.933594 L 2 261.933594 Z M 2 261 " clip-rule="nonzero"/></clipPath><clipPath id="id4"><path d="M 0 255 L 83 255 L 83 261.933594 L 0 261.933594 Z M 0 255 " clip-rule="nonzero"/></clipPath></defs><g clip-path="url(#id1)"><path fill="rgb(100%, 100%, 100%)" d="M 0 0.0703125 L 307.5 0.0703125 L 307.5 261.933594 L 0 261.933594 Z M 0 0.0703125 " fill-opacity="1" fill-rule="nonzero"/><path fill="rgb(100%, 100%, 100%)" d="M 0 0.0703125 L 307.5 0.0703125 L 307.5 261.933594 L 0 261.933594 Z M 0 0.0703125 " fill-opacity="1" fill-rule="nonzero"/><path fill="rgb(100%, 100%, 100%)" d="M 0 0.0703125 L 307.5 0.0703125 L 307.5 261.933594 L 0 261.933594 Z M 0 0.0703125 " fill-opacity="1" fill-rule="nonzero"/></g><path stroke-linecap="butt" transform="matrix(1.897544, 0, 0, 1.898159, 0.000864945, 10.857701)" fill-opacity="1" fill="rgb(17.248535%, 44.309998%, 94.119263%)" fill-rule="nonzero" stroke-linejoin="miter" d="M 82.239882 87.309966 L 82.342812 86.651434 L 82.075196 86.215156 L 82.250175 85.336426 L 81.539965 85.239704 L 81.1406 84.37538 L 81.208533 83.69421 L 81.733471 82.770207 L 82.647482 82.661137 L 83.108604 82.311292 L 83.66648 83.27028 L 84.316991 83.59543 L 85.064257 83.311438 L 85.834166 83.799164 L 86.620544 83.340249 L 86.717298 84.009071 L 87.373985 83.75389 L 88.187125 83.883538 L 88.250941 84.346569 L 87.089901 86.297472 L 86.23559 86.772851 L 86.151188 87.875893 L 83.394747 88.589989 L 83.561492 87.993194 L 83.792053 88.190754 L 84.524908 87.871777 L 85.121897 87.447847 L 85.187771 87.091827 L 84.485795 86.774908 L 84.249058 87.207071 L 83.330931 87.108291 L 82.890394 86.682302 L 82.849223 86.287183 L 82.63513 87.157681 L 82.999499 87.717433 Z M 82.239882 87.309966 " stroke="rgb(100%, 100%, 100%)" stroke-width="0.5" stroke-opacity="1" stroke-miterlimit="4"/><path stroke-linecap="butt" transform="matrix(1.897544, 0, 0, 1.898159, 0.000864945, 10.857701)" fill-opacity="1" fill="rgb(17.248535%, 44.309998%, 94.119263%)" fill-rule="nonzero" stroke-linejoin="miter" d="M 101.905513 49.232373 L 101.691421 48.37628 L 101.259119 47.874149 L 101.417629 47.621026 L 101.831404 47.970871 L 101.886986 46.425377 L 101.415571 46.425377 L 101.057378 47.32057 L 101.19942 47.84328 L 100.69095 47.802122 L 100.684774 48.143736 L 100.030145 48.116983 L 99.663718 47.139474 L 99.706948 46.913103 L 100.513912 47.258833 L 101.240591 46.316308 L 101.681128 44.120513 L 101.147955 43.558702 L 101.656425 43.632787 L 101.977564 43.254131 L 102.214301 43.505196 L 103.612078 43.486675 L 103.76853 43.17593 L 104.17407 43.140945 L 104.865754 43.772725 L 105.1766 43.51137 L 105.565672 43.772725 L 106.492033 43.402301 L 106.566142 43.066861 L 106.949038 42.914575 L 106.899632 43.645135 L 107.560437 43.573108 L 107.408102 45.015706 L 106.841992 45.606327 L 106.936687 47.997624 L 106.354108 48.047014 L 106.376753 48.37628 L 106.724653 48.582072 L 106.349991 49.082145 L 106.594962 49.781836 L 106.03297 50.4486 L 105.592433 51.642191 L 105.835346 52.549731 L 106.506443 53.48814 L 106.172953 53.840043 L 106.168836 54.212526 L 106.516736 54.453302 L 106.296468 55.235309 L 105.565672 55.776541 L 104.933687 55.832105 L 104.384046 55.527533 L 104.20289 54.967781 L 102.469565 54.492402 L 101.998149 54.216642 L 101.936392 53.852391 L 101.516441 54.072588 L 100.736239 53.944997 L 100.985327 52.792565 L 101.61937 51.827403 Z M 101.905513 49.232373 " stroke="rgb(100%, 100%, 100%)" stroke-width="0.5" stroke-opacity="1" stroke-miterlimit="4"/><path stroke-linecap="butt" transform="matrix(1.897544, 0, 0, 1.898159, 0.000864945, 10.857701)" fill-opacity="1" fill="rgb(17.248535%, 44.309998%, 94.119263%)" fill-rule="nonzero" stroke-linejoin="miter" d="M 108.474447 39.979989 L 108.941745 39.395541 L 109.371989 37.703935 L 108.882047 36.738773 L 108.637075 36.714078 L 108.021559 37.467275 L 107.548086 37.337626 L 106.512619 37.9159 L 106.224418 37.769788 L 106.43851 36.341596 L 107.134311 34.510052 L 109.295822 36.067893 L 109.882517 35.987634 L 110.518619 35.466982 L 110.05338 37.596924 L 110.193363 40.90605 L 110.61949 42.41656 L 110.987976 42.756115 L 111.195892 42.634698 L 111.860814 43.394069 L 110.96739 44.227524 L 110.582435 43.986748 L 109.839287 44.357173 L 109.627253 44.021733 L 107.84658 45.229729 L 107.412219 45.015706 L 107.564554 43.573108 L 106.901691 43.645135 L 106.951097 42.914575 L 106.568201 43.066861 L 106.494092 43.402301 L 105.56773 43.772725 L 105.178658 43.51137 L 104.867812 43.772725 L 104.178187 43.140945 L 103.770588 43.17593 L 103.614136 43.486675 L 102.216359 43.505196 L 101.979622 43.254131 L 101.660542 43.632787 L 101.150014 43.558702 L 101.172658 42.556498 L 100.686833 42.050251 L 101.759354 40.914282 L 102.33164 41.052162 L 103.157131 40.498583 L 103.496797 38.197835 L 103.068612 37.942653 L 103.513266 37.759499 L 103.63678 36.841669 L 104.379928 37.475507 L 104.898691 37.103024 L 105.444215 37.444638 L 105.530676 38.934568 L 106.043262 40.32366 L 106.457037 40.290734 L 106.827582 39.891498 L 106.930511 38.881062 Z M 108.474447 39.979989 " stroke="rgb(100%, 100%, 100%)" stroke-width="0.5" stroke-opacity="1" stroke-miterlimit="4"/><path stroke-linecap="butt" transform="matrix(1.897544, 0, 0, 1.898159, 0.000864945, 10.857701)" fill-opacity="1" fill="rgb(17.248535%, 44.309998%, 94.119263%)" fill-rule="nonzero" stroke-linejoin="miter" d="M 100.555084 82.720817 L 100.89475 82.782554 L 100.948273 82.233091 L 101.491738 82.031415 L 101.961095 81.358477 L 102.212242 81.389346 L 101.43204 80.360389 L 101.217947 80.450937 L 100.773293 79.512528 L 100.950331 79.018628 L 100.192773 77.254996 L 101.217947 78.446528 L 102.49015 79.154451 L 104.398456 78.59264 L 105.753002 79.127698 L 106.876988 80.078454 L 106.841992 80.28013 L 105.654191 80.263667 L 104.808113 80.907794 L 104.02997 82.068458 L 103.894103 84.058461 L 103.453567 84.449465 L 102.315171 84.566766 L 100.857695 86.208982 L 100.026028 85.710967 L 100.674481 85.482538 L 100.431569 84.966002 L 100.427452 84.046114 L 100.738297 83.663342 L 100.388339 83.165326 Z M 100.555084 82.720817 " stroke="rgb(100%, 100%, 100%)" stroke-width="0.5" stroke-opacity="1" stroke-miterlimit="4"/><path stroke-linecap="butt" transform="matrix(1.897544, 0, 0, 1.898159, 0.000864945, 10.857701)" fill-opacity="1" fill="rgb(17.248535%, 44.309998%, 94.119263%)" fill-rule="nonzero" stroke-linejoin="miter" d="M 55.447442 98.157234 L 55.519492 98.02347 L 55.628597 97.943211 L 55.737702 97.955558 L 55.743878 97.893821 L 55.6533 97.852663 L 55.535961 97.803273 L 55.389802 97.852663 L 55.301283 97.92469 L 55.165416 97.846489 L 55.103659 97.965848 L 54.978085 97.92469 L 54.934855 97.852663 L 54.792813 97.852663 L 54.831926 97.712724 L 54.885449 97.673624 L 54.928679 97.640697 L 55.025433 97.603655 L 55.017198 97.552207 L 55.002788 97.474006 L 54.910152 97.482238 L 54.842219 97.369053 L 54.951324 97.278505 L 54.928679 97.165319 L 54.844277 97.14474 L 54.953382 97.043902 L 55.002788 97.031555 L 55.07278 96.949238 L 55.099542 96.805184 L 55.02955 96.846342 L 54.903976 96.829879 L 54.957499 96.702288 L 54.798989 96.733157 L 54.69606 96.62203 L 54.624009 96.640551 L 54.514904 96.731099 L 54.247289 96.916312 L 54.086719 96.961586 L 53.98379 97.074771 L 53.642066 97.177667 L 53.465028 97.3423 L 53.415622 97.439022 L 53.318868 97.527512 L 53.160358 97.546033 L 53.150065 97.469891 L 53.25917 97.401979 L 53.263287 97.348474 L 53.104776 97.354647 L 52.839219 97.576902 L 52.680708 97.673624 L 52.602482 97.675682 L 53.271521 97.113871 L 53.430032 97.019207 L 53.63589 96.90808 L 53.812928 96.932775 L 53.909681 96.829879 L 54.006435 96.786663 L 54.148477 96.774315 L 54.222586 96.731099 L 54.255523 96.675536 L 54.615775 96.51296 L 54.88339 96.313343 L 55.11601 96.189868 L 55.181885 96.033466 L 55.439208 95.726837 L 55.634773 95.582783 L 56.116481 95.409918 L 56.49526 95.125926 L 56.561135 95.051841 L 56.676415 94.74727 L 56.816399 94.621737 L 56.744348 94.399482 L 56.74229 94.090795 L 56.804047 93.767702 L 56.878156 93.561911 L 57.011964 93.615417 L 57.145772 93.524868 L 57.250759 93.146212 L 57.273404 92.952768 L 57.823045 92.434174 L 58.168887 92.380668 L 58.15036 92.24073 L 58.230644 92.187224 L 58.185355 92.014359 L 58.296519 91.827089 L 58.529139 92.098733 L 58.833809 92.537069 L 59.058194 92.995984 L 59.175533 93.183254 L 59.216705 93.317019 L 59.371099 93.428146 L 59.667534 93.329366 L 60.095719 93.224413 L 60.211 93.191486 L 60.173945 93.04949 L 60.546549 92.987753 L 60.622716 92.907494 L 60.740055 92.921899 L 60.855336 93.024795 L 61.073546 92.932189 L 61.283521 92.963058 L 61.433797 92.993926 L 61.660241 93.096822 L 61.816694 93.074185 L 62.030786 92.919841 L 62.092544 92.81283 L 62.135774 92.677007 L 62.18518 92.652313 L 62.310753 92.567938 L 62.413682 92.652313 L 62.708059 92.691413 L 62.897449 92.798424 L 62.806871 93.008332 L 62.891273 93.160617 L 62.891273 93.48371 L 62.82334 93.675096 L 62.718352 93.763586 L 62.59072 93.767702 L 62.388979 93.763586 L 62.24282 93.866482 L 62.084309 93.761528 L 62.018435 93.773876 L 61.843455 94.012594 L 61.777581 94.096969 L 61.715823 94.146359 L 61.073546 94.168996 L 60.824457 94.127837 L 60.367452 94.134011 L 60.305695 94.187517 L 60.235703 94.413887 L 60.180121 94.448872 L 60.019552 94.508551 L 59.912506 94.40154 L 59.850748 94.407714 L 59.770463 94.621737 L 59.649007 94.868687 L 59.525492 94.992161 L 59.416387 95.148563 L 59.39786 95.31937 L 59.327868 95.405802 L 59.138479 95.436671 L 59.082897 95.640404 L 59.004671 95.866775 L 58.947031 96.008771 L 59.03555 96.099319 L 59.047901 96.261895 L 58.936738 96.344211 L 58.7597 96.617914 L 58.755583 96.702288 L 58.382979 96.8093 L 58.317105 96.768142 L 58.113305 96.792837 L 57.707765 96.726983 L 57.582191 96.761968 L 57.481321 96.854574 L 57.590425 96.955412 L 57.637773 97.247636 L 57.683062 97.309373 L 57.746878 97.309373 L 57.816869 97.533686 L 57.956853 97.576902 L 58.041255 97.68803 L 58.053606 97.86501 L 58.028903 97.932921 L 57.779815 98.076975 L 57.403094 98.206624 L 57.3084 98.369199 L 57.250759 98.723161 L 57.11901 98.73345 L 57.065487 98.778724 L 57.022257 98.924836 L 56.79993 99.204713 L 56.74229 99.22735 L 56.445854 98.941299 L 56.412917 98.856925 L 56.349101 98.879562 L 56.30587 98.97011 L 56.396448 99.161496 L 56.388214 99.243813 L 56.534373 99.402272 L 56.598189 99.416678 L 56.627009 99.509284 L 56.565252 99.795334 L 56.657888 99.892056 L 56.723762 100.18428 L 56.719645 100.597921 L 56.592013 100.630847 L 56.577603 100.748148 L 56.476733 100.709048 L 56.184414 100.818118 L 56.141184 100.735801 L 56.065016 100.630847 L 56.036196 100.573226 L 55.892095 100.622616 L 55.834455 100.651427 L 55.752112 100.669948 L 55.745936 100.760496 L 55.752112 100.801654 L 55.694472 100.881913 L 55.585367 100.871623 L 55.500965 100.875739 L 55.422739 100.863392 L 55.447442 100.748148 L 55.34863 100.630847 L 55.379509 100.591747 L 55.492731 100.5794 L 55.599777 100.499141 L 55.404212 100.392129 L 55.492731 100.32216 L 55.56684 100.365376 L 55.614187 100.377724 L 55.657417 100.346855 L 55.591543 100.225438 L 55.622421 100.14518 L 55.529785 100.101963 L 55.492731 100.089616 L 55.488613 99.830319 L 55.402153 99.817971 L 55.293048 99.920867 L 55.161299 99.846782 L 55.04396 99.89823 L 55.002788 99.922925 L 54.976027 99.988778 L 54.959558 100.079326 L 54.848395 100.023763 L 54.951324 99.89823 L 54.957499 99.780929 L 55.002788 99.671859 L 55.07278 99.655396 L 55.134537 99.69038 L 55.177768 99.795334 L 55.280697 99.776813 L 55.457735 99.708902 L 55.498906 99.624527 L 55.404212 99.587485 L 55.470086 99.466068 L 55.587425 99.280855 L 55.58125 99.17796 L 55.459793 99.149149 L 55.414505 99.153265 L 55.346571 99.17796 L 55.299224 99.21706 L 55.231291 99.173844 L 55.245701 99.097701 L 55.134537 99.044195 L 55.181885 98.941299 L 55.270404 98.83223 L 55.109834 98.659365 L 55.268345 98.721103 L 55.482438 98.826056 L 55.573015 98.928952 L 55.68212 98.935126 L 55.657417 98.819883 L 55.593601 98.692292 L 55.690354 98.607917 L 55.865334 98.620265 L 55.937384 98.612033 L 55.964146 98.562643 L 55.920916 98.455632 L 55.834455 98.467979 L 55.715057 98.363025 L 55.836514 98.297172 L 55.848865 98.20045 L 55.599777 98.216914 Z M 55.447442 98.157234 " stroke="rgb(100%, 100%, 100%)" stroke-width="0.5" stroke-opacity="1" stroke-miterlimit="4"/><path stroke-linecap="butt" transform="matrix(1.897544, 0, 0, 1.898159, 0.000864945, 10.857701)" fill-opacity="1" fill="rgb(17.248535%, 44.309998%, 94.119263%)" fill-rule="nonzero" stroke-linejoin="miter" d="M 75.405391 81.18767 L 75.885041 81.516937 L 75.817108 81.185612 L 76.160891 81.053906 L 75.903568 80.652613 L 76.22059 80.913968 L 76.879336 80.786377 L 76.757879 80.047586 L 77.144893 79.738898 L 77.194299 80.370678 L 77.492793 80.504443 L 77.647187 79.633945 L 76.776407 78.096683 L 77.791287 76.075811 L 78.530318 75.738313 L 79.261115 76.736401 L 79.888982 76.946308 L 80.432448 76.81666 L 81.087077 77.462845 L 81.673773 77.314675 L 81.509086 78.014366 L 82.149305 79.074192 L 81.900216 79.459022 L 81.002675 79.444617 L 80.119543 79.83562 L 79.333165 79.54957 L 78.744411 80.510616 L 77.97656 80.257493 L 78.095958 81.24735 L 77.754233 81.14857 L 77.099604 81.790639 L 76.718766 81.58279 L 76.395569 82.445056 L 75.905627 82.403898 L 75.635952 82.819597 L 74.20318 82.659079 L 73.754409 82.012894 L 73.80999 81.290566 L 74.083782 81.344072 L 74.075548 81.759771 L 74.876336 81.881188 L 75.430094 81.763886 L 75.514496 81.490184 L 75.129541 81.383172 Z M 75.405391 81.18767 " stroke="rgb(100%, 100%, 100%)" stroke-width="0.5" stroke-opacity="1" stroke-miterlimit="4"/><path stroke-linecap="butt" transform="matrix(1.897544, 0, 0, 1.898159, 0.000864945, 10.857701)" fill-opacity="1" fill="rgb(17.248535%, 44.309998%, 94.119263%)" fill-rule="nonzero" stroke-linejoin="miter" d="M 42.723348 95.144447 L 43.108303 94.724633 L 42.990964 94.218386 L 43.478848 93.67098 L 44.121125 93.72037 L 44.553428 93.304671 L 45.726819 93.644227 L 46.416444 93.080359 L 46.369097 93.895293 L 46.124125 94.113432 L 46.397917 94.216328 L 47.001081 95.65481 L 47.511609 95.800922 L 47.476614 96.469744 L 46.292929 96.492381 L 45.790635 96.920427 L 45.399505 97.68803 L 45.58066 98.033759 L 45.337747 98.435053 L 45.702116 98.910431 L 45.442735 99.416678 L 44.460791 98.953647 L 44.296105 99.402272 L 43.828807 99.348767 L 43.326513 99.811797 L 43.382095 100.14518 L 42.717173 100.120485 L 42.865391 99.776813 L 42.43103 99.097701 L 42.665708 98.391836 L 43.559133 97.692145 L 43.565308 96.992454 L 42.900386 97.297026 L 41.939029 96.689941 L 40.489787 96.755794 L 41.206174 96.245431 L 41.263814 96.074624 L 40.794457 95.928513 L 41.53143 95.300849 L 41.982259 95.932628 L 42.70688 95.671273 L 42.920972 95.337891 Z M 42.723348 95.144447 " stroke="rgb(100%, 100%, 100%)" stroke-width="0.5" stroke-opacity="1" stroke-miterlimit="4"/><path stroke-linecap="butt" transform="matrix(1.897544, 0, 0, 1.898159, 0.000864945, 10.857701)" fill-opacity="1" fill="rgb(17.248535%, 44.309998%, 94.119263%)" fill-rule="nonzero" stroke-linejoin="miter" d="M 107.476035 70.480341 L 106.510561 71.101831 L 106.397339 71.455792 L 105.330993 71.1327 L 105.153955 70.813723 L 105.19101 71.361128 L 104.39228 71.947634 L 103.140662 70.87546 L 103.087139 70.194291 L 102.823641 70.208696 L 102.434569 69.616017 L 100.93798 69.218839 L 97.77394 71.064788 L 96.892867 70.791086 L 96.981386 69.171507 L 96.439979 68.582944 L 96.802289 67.790646 L 96.637603 67.243241 L 96.816699 66.957191 L 97.866576 66.866643 L 98.09302 66.446828 L 99.017323 66.457118 L 98.809406 65.403465 L 99.956036 64.065821 L 100.396573 64.218107 L 101.178834 64.024663 L 101.479387 64.547373 L 101.862283 64.405377 L 102.319288 64.753164 L 102.953331 64.660558 L 103.367106 64.158427 L 103.276529 62.878404 L 103.708831 63.084196 L 104.060848 62.907215 L 104.528146 63.458736 L 105.608902 63.46491 L 105.810643 64.197528 L 106.382928 64.436246 L 106.282058 64.265439 L 106.817289 64.218107 L 106.806996 63.543111 L 107.249591 63.516358 L 107.741592 64.67908 L 107.912455 66.55384 Z M 106.411749 71.461966 L 106.419983 71.466082 Z M 106.411749 71.461966 " stroke="rgb(100%, 100%, 100%)" stroke-width="0.5" stroke-opacity="1" stroke-miterlimit="4"/><path stroke-linecap="butt" transform="matrix(1.897544, 0, 0, 1.898159, 0.000864945, 10.857701)" fill-opacity="1" fill="rgb(17.248535%, 44.309998%, 94.119263%)" fill-rule="nonzero" stroke-linejoin="miter" d="M 79.594605 83.85267 L 79.37022 83.638647 L 79.759292 82.568531 L 79.49991 81.516937 L 78.991441 81.362593 L 79.028495 80.864578 L 78.742352 80.510616 L 79.329048 79.54957 L 80.115426 79.83562 L 80.998558 79.444617 L 81.898158 79.459022 L 82.143129 79.074192 L 81.507027 78.014366 L 81.671714 77.314675 L 81.754057 76.744633 L 82.237824 76.154011 L 81.910509 75.719791 L 82.421038 75.190907 L 82.892453 75.421394 L 83.024202 75.911177 L 84.181125 74.54678 L 85.066315 74.478869 L 85.144541 74.764919 L 85.564492 74.515911 L 85.650952 74.758745 L 86.776996 75.038622 L 87.16401 75.567506 L 86.573197 76.925729 L 86.937566 77.411397 L 86.81611 77.899123 L 86.091489 78.781968 L 85.500676 78.808721 L 85.17542 79.384937 L 85.986501 79.782115 L 86.478502 80.557948 L 86.54026 81.607485 L 87.050788 81.675396 L 86.846988 82.177527 L 87.069315 82.482099 L 86.797582 82.572647 L 86.877867 82.965709 L 86.620544 83.334075 L 85.838283 83.79299 L 85.062198 83.305264 L 84.316991 83.591315 L 83.670597 83.268222 L 83.110663 82.307176 L 82.647482 82.654963 L 81.73553 82.764033 L 81.210592 83.690094 L 81.142658 84.371264 L 80.80711 84.334222 L 80.282171 83.55633 Z M 79.594605 83.85267 " stroke="rgb(100%, 100%, 100%)" stroke-width="0.5" stroke-opacity="1" stroke-miterlimit="4"/><path stroke-linecap="butt" transform="matrix(1.897544, 0, 0, 1.898159, 0.000864945, 10.857701)" fill-opacity="1" fill="rgb(17.248535%, 44.309998%, 94.119263%)" fill-rule="nonzero" stroke-linejoin="miter" d="M 99.474328 76.318644 L 99.22524 76.555305 L 98.274175 76.555305 L 97.712182 76.139606 L 96.213535 75.878251 L 95.692714 77.016277 L 95.217181 77.036857 L 93.700007 78.039061 L 93.28829 77.845617 L 93.271822 77.187084 L 92.845695 76.71788 L 93.179186 76.617042 L 92.985679 75.884424 L 93.306818 75.672459 L 93.236826 74.855467 L 92.151953 74.929552 L 91.762881 74.699066 L 91.744354 74.295714 L 91.925509 73.470491 L 92.522498 73.054792 L 92.524557 72.715236 L 93.56414 72.344811 L 94.126133 72.338638 L 94.342284 71.820043 L 95.003089 71.636889 L 95.01544 71.204727 L 95.307759 71.157395 L 95.223357 70.558542 L 95.733885 70.470051 L 96.026204 69.949399 L 96.896984 70.795202 L 97.775998 71.066846 L 97.596902 71.546341 L 97.913923 71.684221 L 97.596902 72.122557 L 97.444567 73.188556 L 98.389456 73.608371 L 97.687479 75.199139 L 98.346226 75.923525 L 99.22524 75.911177 Z M 99.474328 76.318644 " stroke="rgb(100%, 100%, 100%)" stroke-width="0.5" stroke-opacity="1" stroke-miterlimit="4"/><path stroke-linecap="butt" transform="matrix(1.897544, 0, 0, 1.898159, 0.000864945, 10.857701)" fill-opacity="1" fill="rgb(17.248535%, 44.309998%, 94.119263%)" fill-rule="nonzero" stroke-linejoin="miter" d="M 67.619835 87.207071 L 67.282228 87.486947 L 66.905507 87.419036 L 66.345573 86.544422 L 66.563783 86.136955 L 66.351749 85.873542 L 66.444385 85.307615 L 67.008437 84.433002 L 67.294579 84.37538 L 67.257525 83.677747 L 67.94715 83.401986 L 67.912154 82.908087 L 67.035198 80.868694 L 68.07684 80.432416 L 68.581193 80.671134 L 68.836457 80.463284 L 70.108661 80.518848 L 70.114836 81.14857 L 70.446268 81.586906 L 71.187357 81.605427 L 71.187357 82.422419 L 70.903273 82.584994 L 70.549197 82.41213 L 70.440092 83.117994 L 71.317048 83.659226 L 71.870807 83.523403 L 72.070489 84.192226 L 72.626306 84.167531 L 72.706591 84.412423 L 73.276818 84.509144 L 73.194475 85.130635 L 72.972148 85.215009 L 73.046257 85.702735 L 73.783229 85.997017 L 73.499145 86.155476 L 73.760585 87.694796 L 73.593839 88.071395 L 73.422977 87.66187 L 72.706591 87.534279 L 72.060196 88.038468 L 71.257349 88.236028 L 69.931623 87.70097 L 69.410801 87.188549 Z M 70.543021 90.65202 L 70.610955 90.890738 L 69.250232 91.466954 L 68.780875 90.713757 L 70.9218 88.361561 L 71.059725 88.6188 L 70.26923 89.806217 Z M 70.543021 90.65202 " stroke="rgb(100%, 100%, 100%)" stroke-width="0.5" stroke-opacity="1" stroke-miterlimit="4"/><path fill="rgb(17.248535%, 44.309998%, 94.119263%)" d="M 197.21875 54.828125 L 198.847656 53.21875 L 196.46875 50.070312 L 196.710938 48.289062 L 197.675781 48.355469 L 198.46875 47.664062 L 201.890625 50.496094 L 204.484375 49.792969 L 204.40625 50.484375 L 206.199219 51.304688 L 207.496094 50.585938 L 209.242188 48.371094 L 208.144531 42.035156 L 208.746094 40.792969 L 211.261719 39.460938 L 211.808594 38.34375 L 211.84375 32.554688 L 213.105469 30.335938 L 213.53125 27.238281 L 212.898438 23.042969 L 210.964844 17.453125 L 211.933594 15.554688 L 211.777344 13.976562 L 212.527344 14.832031 L 213.566406 14.667969 L 215.199219 12.757812 L 222.121094 20.898438 L 224.425781 25.167969 L 227.390625 28.507812 L 232.546875 32.757812 L 234.730469 33.902344 L 240.109375 35.65625 L 242.015625 35.785156 L 242.148438 36.992188 L 243.011719 38.199219 L 244.90625 38.792969 L 248.433594 38.722656 L 253.054688 34.46875 L 254.824219 32.132812 L 255.085938 33.445312 L 252.464844 38.132812 L 251.507812 41.082031 L 255.082031 48.636719 L 253.613281 47.882812 L 253.597656 48.84375 L 254.101562 48.449219 L 254.425781 49.238281 L 256.167969 49.441406 L 258.386719 47.371094 L 260.320312 47.488281 L 259.519531 48.320312 L 257.390625 49.105469 L 256.917969 50.832031 L 255.730469 50.589844 L 252.503906 51.300781 L 250.511719 53.890625 L 249.390625 53.832031 L 248.746094 52.65625 L 247.613281 53.738281 L 248.273438 54.644531 L 244.296875 54.363281 L 242.964844 53.523438 L 241.160156 53.84375 L 237.726562 56.03125 L 234.617188 59.144531 L 232.210938 62.566406 L 231.304688 64.519531 L 231.464844 66.355469 L 230.453125 70.492188 L 228.269531 68.296875 L 220.640625 64.476562 L 218.15625 62.28125 L 216.261719 61.726562 L 213.878906 59.816406 L 211.394531 59.480469 L 209.523438 60.09375 L 205.777344 62.71875 L 204.328125 64.601562 L 203.5 64.042969 L 204.074219 64.246094 L 204.144531 63.769531 L 203.347656 63.527344 L 202.835938 62.128906 L 200.921875 60.164062 L 198.167969 60.09375 L 196.328125 62.785156 L 196.074219 65.433594 L 199.058594 67.527344 L 201.519531 67.480469 L 203.84375 70.617188 L 206.492188 72.292969 L 203.941406 73.820312 L 201.804688 72.816406 L 200.839844 73.34375 L 201.015625 72.316406 L 200.160156 72.136719 L 199.667969 73.324219 L 197.855469 74.203125 L 197.671875 76.527344 L 195.726562 77.34375 L 194.964844 78.640625 L 193.160156 77.875 L 192.472656 75.761719 L 193.511719 72.304688 L 194.132812 72.003906 L 194.078125 69.234375 L 192.957031 67.5 L 191.796875 67.214844 L 190.976562 65.917969 L 190.304688 65.675781 L 189.960938 64.425781 L 190.894531 62.59375 L 190.621094 59.714844 L 191.164062 58.859375 L 193.175781 58.457031 L 194.355469 57.492188 L 194.859375 56.355469 L 195.675781 57.265625 L 196.203125 57.128906 Z M 205.902344 18.574219 L 205.847656 17.847656 L 206.605469 17.109375 L 207.824219 17.824219 L 208.128906 18.894531 L 207.058594 19.773438 Z M 187.09375 66.480469 L 186.921875 67.789062 L 186.292969 68.507812 L 185.71875 66.53125 L 187.558594 65.359375 Z M 205 15.265625 L 204.617188 16.871094 L 203.921875 13.710938 L 204.304688 14.214844 L 204.882812 13.9375 Z M 205 15.265625 " fill-opacity="1" fill-rule="nonzero"/><g clip-path="url(#id2)"><path stroke-linecap="butt" transform="matrix(1.897544, 0, 0, 1.898159, 0.000864945, 10.857701)" fill="none" stroke-linejoin="miter" d="M 103.933216 23.164769 L 104.791645 22.316908 L 103.537969 20.658229 L 103.665601 19.71982 L 104.17407 19.754804 L 104.591962 19.390553 L 106.39528 20.882541 L 107.762178 20.512117 L 107.721007 20.876368 L 108.665896 21.30853 L 109.349345 20.929873 L 110.269531 19.763036 L 109.691069 16.425098 L 110.008091 15.770681 L 111.333817 15.068933 L 111.622019 14.480369 L 111.640546 11.43054 L 112.305468 10.261644 L 112.529853 8.629718 L 112.196363 6.419518 L 111.177365 3.474642 L 111.687893 2.474495 L 111.60555 1.643098 L 112.000798 2.093781 L 112.548381 2.007349 L 113.408868 1.001028 L 117.056674 5.289722 L 118.271238 7.539023 L 119.833701 9.29854 L 122.551029 11.537551 L 123.701776 12.14052 L 126.536443 13.064524 L 127.541031 13.132435 L 127.611023 13.768331 L 128.065969 14.404226 L 129.064381 14.717029 L 130.923281 14.679987 L 133.358583 12.438918 L 134.29112 11.208285 L 134.429045 11.899744 L 133.047737 14.369242 L 132.543385 15.922967 L 134.426987 19.902974 L 133.65296 19.505796 L 133.644726 20.012043 L 133.910283 19.804194 L 134.081145 20.219893 L 134.999272 20.326904 L 136.168547 19.23621 L 137.187545 19.297947 L 136.765536 19.736283 L 135.643609 20.149924 L 135.39452 21.059522 L 134.768711 20.931931 L 133.068323 21.306472 L 132.018446 22.670869 L 131.427633 22.64 L 131.087967 22.020568 L 130.490979 22.59061 L 130.838879 23.068047 L 128.743243 22.919877 L 128.041266 22.477425 L 127.090202 22.646174 L 125.280708 23.798606 L 123.642077 25.438764 L 122.373991 27.241497 L 121.8964 28.270455 L 121.980802 29.237675 L 121.447629 31.417006 L 120.296882 30.260458 L 116.276472 28.247818 L 114.967214 27.09127 L 113.968802 26.799046 L 112.713067 25.792725 L 111.403809 25.615745 L 110.417749 25.938837 L 108.443569 27.321756 L 107.679835 28.313671 L 107.243416 28.019389 L 107.546027 28.126401 L 107.583082 27.875335 L 107.163131 27.747744 L 106.893457 27.011011 L 105.884752 25.97588 L 104.433452 25.938837 L 103.46386 27.356741 L 103.330052 28.752007 L 104.902808 29.855049 L 106.199715 29.830354 L 107.424571 31.482859 L 108.820289 32.365705 L 107.476035 33.170349 L 106.349991 32.641465 L 105.841521 32.919284 L 105.934158 32.378052 L 105.483328 32.283388 L 105.223947 32.908994 L 104.268765 33.372025 L 104.172012 34.596484 L 103.146838 35.026588 L 102.745415 35.709816 L 101.79435 35.306465 L 101.43204 34.193133 L 101.979622 32.371878 L 102.306937 32.213419 L 102.278117 30.754358 L 101.687304 29.840643 L 101.075905 29.690416 L 100.643603 29.007188 L 100.289527 28.879597 L 100.108371 28.221065 L 100.600373 27.255903 L 100.456272 25.73922 L 100.742415 25.288536 L 101.802584 25.076571 L 102.424276 24.568266 L 102.689833 23.969413 L 103.120076 24.448907 L 103.397985 24.37688 Z M 108.509443 4.065263 L 108.480623 3.682491 L 108.879988 3.293545 L 109.522266 3.670144 L 109.682835 4.234012 L 109.118784 4.697043 Z M 98.597373 29.303528 L 98.506795 29.992929 L 98.175363 30.371585 L 97.872752 29.330281 L 98.842344 28.712906 Z M 108.033911 2.32221 L 107.83217 3.168013 L 107.465742 1.50316 L 107.667483 1.768631 L 107.972154 1.622519 Z M 108.033911 2.32221 " stroke="rgb(100%, 100%, 100%)" stroke-width="0.5" stroke-opacity="1" stroke-miterlimit="4"/></g><path stroke-linecap="butt" transform="matrix(1.897544, 0, 0, 1.898159, 0.000864945, 10.857701)" fill-opacity="1" fill="rgb(17.248535%, 44.309998%, 94.119263%)" fill-rule="nonzero" stroke-linejoin="miter" d="M 56.414975 91.370232 L 56.172063 91.152093 L 55.721233 91.69744 L 56.108247 92.076096 L 55.323927 92.234556 L 55.774756 91.078008 L 55.599777 90.238379 L 55.194236 90.036703 L 54.484026 90.359796 L 53.959087 91.180904 L 53.458852 91.143861 L 52.927738 89.365823 L 52.775403 89.170321 L 53.246818 88.705232 L 53.530902 87.834734 L 53.357981 87.729781 L 54.000259 86.958063 L 54.368745 87.141217 L 55.245701 86.840762 L 55.830338 87.007453 L 56.834926 86.63497 L 56.499377 86.153418 L 57.13342 85.762414 L 57.878627 84.727283 L 59.529609 84.916612 L 60.318046 85.05655 L 60.630951 85.435206 L 60.484791 86.305704 L 60.982968 86.927194 L 61.015905 88.297765 L 61.42968 89.353475 L 60.898566 90.145773 L 60.15336 89.987313 L 60.318046 89.859722 L 60.130715 89.608657 L 59.206412 90.014066 L 59.13642 90.320695 L 57.987732 90.456518 L 57.707765 90.713757 L 57.40927 90.565587 L 57.17665 91.094471 Z M 56.414975 91.370232 " stroke="rgb(100%, 100%, 100%)" stroke-width="0.5" stroke-opacity="1" stroke-miterlimit="4"/><path stroke-linecap="butt" transform="matrix(1.897544, 0, 0, 1.898159, 0.000864945, 10.857701)" fill-opacity="1" fill="rgb(17.248535%, 44.309998%, 94.119263%)" fill-rule="nonzero" stroke-linejoin="miter" d="M 105.024265 75.629243 L 105.269236 77.308501 L 106.876988 80.078454 L 105.755061 79.127698 L 104.398456 78.59264 L 102.49015 79.154451 L 101.217947 78.446528 L 100.192773 77.254996 L 99.949861 77.333196 L 99.735768 76.446235 L 100.47274 76.158127 L 100.643603 75.631301 L 100.99562 75.719791 L 101.382634 75.160039 L 102.739239 74.913089 L 103.089198 73.97468 L 102.905984 72.805784 L 103.3177 72.52385 L 103.134487 70.881634 L 104.386104 71.953808 L 105.186893 71.367302 L 105.147779 70.819897 L 105.326876 71.138873 L 106.391163 71.461966 L 106.403514 71.46814 L 106.413807 71.472256 L 105.295997 74.332757 L 105.343345 75.22795 Z M 105.024265 75.629243 " stroke="rgb(100%, 100%, 100%)" stroke-width="0.5" stroke-opacity="1" stroke-miterlimit="4"/><path stroke-linecap="butt" transform="matrix(1.897544, 0, 0, 1.898159, 0.000864945, 10.857701)" fill-opacity="1" fill="rgb(17.248535%, 44.309998%, 94.119263%)" fill-rule="nonzero" stroke-linejoin="miter" d="M 81.45968 69.67158 L 81.441153 69.270287 L 81.136483 69.245592 L 81.558492 67.772125 L 84.0432 66.547666 L 85.169244 66.313064 L 85.366868 66.920149 L 84.701946 67.107419 L 84.798699 67.79682 L 84.592841 68.101391 L 83.761174 68.24133 L 83.221826 68.969831 L 82.840988 68.589117 L 82.386042 69.264113 L 82.554845 69.33614 L 82.295464 69.821808 L 82.643364 69.67158 L 82.995382 70.01731 L 83.464739 69.603669 L 83.47709 70.68819 L 82.865691 70.73758 L 82.429272 71.163568 L 81.854928 73.279105 L 82.052552 73.810047 L 81.906392 75.721849 L 82.233707 76.158127 L 81.751999 76.750806 L 81.665538 77.320849 L 81.076784 77.469019 L 80.424213 76.822834 L 79.880748 76.952482 L 79.25288 76.742575 L 78.522084 75.744486 L 79.588429 74.785498 L 81.319696 72.301595 L 81.733471 71.120352 Z M 81.45968 69.67158 " stroke="rgb(100%, 100%, 100%)" stroke-width="0.5" stroke-opacity="1" stroke-miterlimit="4"/><path stroke-linecap="butt" transform="matrix(1.897544, 0, 0, 1.898159, 0.000864945, 10.857701)" fill-opacity="1" fill="rgb(17.248535%, 44.309998%, 94.119263%)" fill-rule="nonzero" stroke-linejoin="miter" d="M 113.213302 52.586773 L 113.359462 52.776102 L 113.10008 52.763754 L 113.524148 53.138295 L 112.976566 53.261769 L 113.305939 53.492256 L 112.789235 53.73509 L 113.310056 54.058182 L 112.647193 53.986155 L 112.713067 54.288669 L 113.030089 54.368927 L 112.649251 54.424491 L 112.79541 54.687904 L 112.311644 54.74141 L 112.087258 54.364812 L 112.227242 54.955433 L 111.982271 55.3629 L 111.774354 54.844306 L 111.488211 54.873117 L 111.537617 55.105661 L 110.726536 54.912217 L 110.345698 56.607939 L 109.584023 56.297193 L 109.089963 56.840483 L 108.540322 56.525622 L 108.49915 55.860916 L 107.589257 55.877379 L 106.594962 55.190035 L 106.298527 55.233252 L 106.518795 54.449186 L 106.170895 54.210468 L 106.175012 53.835928 L 106.510561 53.486082 L 105.837404 52.545615 L 105.59655 51.638075 L 106.03297 50.444484 L 106.597021 49.779778 L 106.349991 49.080087 L 106.726712 48.580014 L 106.378811 48.374222 L 106.356167 48.044956 L 106.938746 47.995566 L 106.846109 45.604269 L 107.410161 45.013648 L 107.84658 45.227671 L 109.627253 44.017617 L 109.839287 44.353057 L 110.582435 43.98469 L 110.96739 44.223409 L 111.860814 43.389953 L 112.764532 45.10008 L 112.46192 45.43552 L 113.038323 45.822408 L 112.774825 46.371871 L 113.526207 47.108605 L 113.730006 49.456685 L 113.464449 50.255156 L 113.952333 49.699519 L 113.958509 50.327183 L 114.238476 50.572075 L 113.517973 51.154465 L 113.65178 51.428168 L 114.170543 51.175044 L 114.036735 51.588685 L 113.163897 52.226638 L 113.65178 52.37275 Z M 113.213302 52.586773 " stroke="rgb(100%, 100%, 100%)" stroke-width="0.5" stroke-opacity="1" stroke-miterlimit="4"/><path stroke-linecap="butt" transform="matrix(1.897544, 0, 0, 1.898159, 0.000864945, 10.857701)" fill-opacity="1" fill="rgb(17.248535%, 44.309998%, 94.119263%)" fill-rule="nonzero" stroke-linejoin="miter" d="M 59.315517 99.678033 L 59.241408 99.999068 L 58.741173 100.02582 L 58.710294 101.034199 L 58.356218 101.182368 L 58.772051 102.180457 L 57.913623 101.696847 L 57.429856 102.015824 L 56.876098 101.637168 L 56.382038 101.91087 L 56.909035 100.834581 L 56.577603 100.737859 L 56.627009 99.501052 L 56.30587 98.963937 L 56.801989 99.196481 L 57.401036 98.198392 L 58.051548 97.858836 L 57.479262 96.846342 L 58.753524 96.694057 L 59.13642 95.428439 L 59.848689 94.399482 L 62.708059 93.755355 L 63.239174 94.084621 L 63.803225 94.031115 L 64.247879 94.411829 L 64.566959 94.096969 L 64.986909 94.146359 L 65.176299 95.16091 L 65.789756 95.175316 L 65.985321 96.109609 L 66.642009 96.17752 L 66.057372 97.290852 L 65.855631 98.400068 L 64.363159 96.615856 L 63.218588 96.261895 L 62.238703 96.416238 L 61.446149 97.128277 L 60.764758 97.255867 L 60.593896 97.58925 L 60.233644 97.498701 L 60.015435 99.052427 L 59.778698 98.982458 Z M 59.315517 99.678033 " stroke="rgb(100%, 100%, 100%)" stroke-width="0.5" stroke-opacity="1" stroke-miterlimit="4"/><path stroke-linecap="butt" transform="matrix(1.897544, 0, 0, 1.898159, 0.000864945, 10.857701)" fill-opacity="1" fill="rgb(17.248535%, 44.309998%, 94.119263%)" fill-rule="nonzero" stroke-linejoin="miter" d="M 63.412094 90.711699 L 64.077016 90.333043 L 64.132598 90.032587 L 65.283345 90.275421 L 65.614777 89.902939 L 65.777405 90.433881 L 66.413506 90.372143 L 66.345573 90.744626 L 67.500438 91.327016 L 67.319282 91.693324 L 65.857689 91.582197 L 64.795461 92.325104 L 64.381686 92.022591 L 63.951443 92.100791 L 62.897449 92.779903 L 62.312812 92.549417 L 62.627775 91.436085 L 62.176945 90.956591 L 62.767758 91.180904 Z M 63.412094 90.711699 " stroke="rgb(100%, 100%, 100%)" stroke-width="0.5" stroke-opacity="1" stroke-miterlimit="4"/><path stroke-linecap="butt" transform="matrix(1.897544, 0, 0, 1.898159, 0.000864945, 10.857701)" fill-opacity="1" fill="rgb(17.248535%, 44.309998%, 94.119263%)" fill-rule="nonzero" stroke-linejoin="miter" d="M 44.740759 106.691406 L 43.972908 106.080205 L 43.073307 106.611147 L 42.482494 106.290112 L 43.767049 104.267182 L 43.59207 103.822673 L 43.841158 103.762993 L 43.561191 103.592186 L 44.320808 102.83899 L 43.091835 102.952175 L 43.93997 102.264832 L 44.005845 101.6845 L 43.005374 100.824291 L 42.727466 100.132832 L 43.394446 100.157527 L 43.336806 99.824145 L 43.841158 99.361114 L 44.308456 99.41462 L 44.473143 98.965994 L 45.455086 99.429025 L 46.350569 100.031994 L 46.558486 99.573079 L 46.338218 98.965994 L 47.093717 98.869272 L 47.744229 99.815913 L 47.991259 101.021851 L 48.427678 101.416971 L 48.036548 101.466361 L 47.112245 103.151793 L 46.531725 103.470769 L 46.533783 104.252777 L 47.095776 105.05948 L 46.667591 105.573958 L 47.077249 106.275707 L 46.459674 106.197506 L 46.11795 106.604973 Z M 42.867449 103.651866 L 42.684235 104.549117 L 41.597304 104.36802 L 41.514961 105.05948 L 40.409503 106.320981 L 40.283929 105.713896 L 40.057485 105.648043 L 40.54331 103.69714 L 41.409973 103.45019 L 41.519078 104.143708 L 42.21282 103.666271 Z M 41.261755 105.864124 L 41.416149 105.460773 L 41.554074 106.285997 L 41.263814 106.757259 L 40.866508 106.158406 L 40.909738 105.886761 Z M 43.023901 103.394627 L 42.745993 103.427553 L 42.67806 103.157966 L 42.976554 102.880148 Z M 43.023901 103.394627 " stroke="rgb(100%, 100%, 100%)" stroke-width="0.5" stroke-opacity="1" stroke-miterlimit="4"/><path stroke-linecap="butt" transform="matrix(1.897544, 0, 0, 1.898159, 0.000864945, 10.857701)" fill-opacity="1" fill="rgb(17.248535%, 44.309998%, 94.119263%)" fill-rule="nonzero" stroke-linejoin="miter" d="M 94.922804 82.477983 L 95.048378 82.126079 L 96.122957 81.47372 L 96.234121 80.444763 L 96.940214 80.955126 L 97.885103 81.125933 L 98.305054 81.714496 L 98.457389 81.076543 L 98.212418 80.883099 L 98.669423 80.67525 L 99.50109 81.070369 L 99.754295 81.467547 L 100.102196 81.63218 L 99.280822 81.984083 L 99.645191 82.179585 L 99.233474 82.521199 L 99.361106 83.23118 L 99.993091 83.543983 L 99.437274 84.072867 L 99.562847 84.418596 L 99.147014 84.408307 L 98.910277 83.264106 L 98.12184 83.07272 L 96.69936 83.383465 L 96.339108 83.671573 L 96.09002 84.430944 L 95.618605 84.36509 L 95.361282 83.986434 L 95.441567 82.545894 Z M 94.922804 82.477983 " stroke="rgb(100%, 100%, 100%)" stroke-width="0.5" stroke-opacity="1" stroke-miterlimit="4"/><path stroke-linecap="butt" transform="matrix(1.897544, 0, 0, 1.898159, 0.000864945, 10.857701)" fill-opacity="1" fill="rgb(17.248535%, 44.309998%, 94.119263%)" fill-rule="nonzero" stroke-linejoin="miter" d="M 41.87933 111.543968 L 42.315749 110.224845 L 41.292634 108.899548 L 41.644652 108.061977 L 41.360567 107.286143 L 41.537605 106.950703 L 41.315279 106.769607 L 41.640534 106.469151 L 42.350745 106.584394 L 42.486612 106.285997 L 43.077425 106.604973 L 43.974966 106.074031 L 44.742817 106.685232 L 44.594599 106.995977 L 45.751522 108.129888 L 45.704175 108.815174 L 46.336159 108.998328 L 46.745817 110.041691 L 46.902269 109.860594 L 47.567191 110.115776 L 47.6413 110.856625 L 47.410739 111.284671 L 47.048429 111.155023 L 46.525549 111.735354 L 46.500846 111.984362 L 47.050487 112.17369 L 46.85698 112.527652 L 47.196646 112.574984 L 46.488494 112.939235 L 46.177649 113.564841 L 44.331101 114.583508 L 44.283753 114.038161 L 44.843688 113.605999 L 45.208057 112.157227 L 44.56372 111.243513 L 44.598716 110.640544 L 43.907033 110.395652 L 44.442264 110.049922 L 44.641947 110.500606 L 44.97132 110.529417 L 45.321279 109.889405 L 45.168943 109.547791 L 44.339335 109.304957 L 44.077895 109.512807 L 43.474731 110.914247 L 43.754698 112.270412 L 44.368155 112.647011 L 43.886447 113.424902 L 43.460321 113.361107 L 43.106245 112.751964 L 41.601421 112.770486 L 41.346157 112.235428 L 41.568484 112.064621 L 41.090893 111.605706 L 41.257638 111.399914 L 41.663179 111.708602 Z M 43.322396 118.370071 L 44.382565 118.979214 L 44.265226 119.526619 L 43.472672 120.030808 L 42.945675 119.944376 L 42.573072 119.001851 Z M 46.076778 117.540732 L 46.021196 116.90072 L 46.745817 115.684493 L 46.883742 116.707276 L 46.171473 118.236307 L 46.288812 118.814581 L 45.619773 119.203527 L 45.471555 118.330971 Z M 38.575306 109.969664 L 38.336511 110.115776 L 38.167707 109.848247 L 38.94791 108.899548 Z M 39.246404 108.570282 L 39.256697 108.247189 L 39.843393 108.479734 L 39.551074 108.75961 Z M 41.677589 118.320681 L 41.889623 118.557341 L 41.556133 118.656121 L 41.140299 118.174569 Z M 41.677589 118.320681 " stroke="rgb(100%, 100%, 100%)" stroke-width="0.5" stroke-opacity="1" stroke-miterlimit="4"/><path stroke-linecap="butt" transform="matrix(1.897544, 0, 0, 1.898159, 0.000864945, 10.857701)" fill-opacity="1" fill="rgb(17.248535%, 44.309998%, 94.119263%)" fill-rule="nonzero" stroke-linejoin="miter" d="M 73.196533 85.138866 L 73.272701 84.517376 L 72.704532 84.420654 L 72.624247 84.173704 L 72.066372 84.198399 L 71.870807 83.529577 L 71.314989 83.6654 L 70.440092 83.12211 L 70.549197 82.418303 L 70.903273 82.591168 L 71.187357 82.428593 L 71.189416 81.611601 L 70.450385 81.59308 L 70.116895 81.154744 L 70.110719 80.525022 L 70.493615 80.613512 L 72.253703 79.689509 L 72.79511 80.273956 L 72.08284 81.414041 L 72.35869 81.10947 L 72.54808 81.216481 L 72.389569 81.440794 L 72.887746 81.527226 L 72.930976 81.955272 L 73.342692 81.872956 L 72.965972 81.467547 L 73.22947 81.255582 L 73.674124 81.0395 L 73.805873 81.294682 L 73.748233 82.014952 L 74.197004 82.661137 L 75.627718 82.823712 L 76.123836 83.391697 L 75.938564 85.114171 L 76.230883 86.281009 L 76.677595 86.30982 L 77.188123 87.03009 L 77.328107 87.402572 L 77.041964 87.61248 L 76.605544 87.287329 L 76.148539 87.663928 L 75.551551 87.50341 L 75.390981 87.122696 L 75.477442 86.93131 L 74.678712 85.692445 L 74.446092 85.686272 L 74.483147 86.029943 L 74.238175 86.110202 L 73.923212 85.556623 L 73.252115 85.369353 Z M 73.196533 85.138866 " stroke="rgb(100%, 100%, 100%)" stroke-width="0.5" stroke-opacity="1" stroke-miterlimit="4"/><path stroke-linecap="butt" transform="matrix(1.897544, 0, 0, 1.898159, 0.000864945, 10.857701)" fill-opacity="1" fill="rgb(17.248535%, 44.309998%, 94.119263%)" fill-rule="nonzero" stroke-linejoin="miter" d="M 81.307345 90.726104 L 81.453504 90.390664 L 81.276466 90.287769 L 80.728884 90.954533 L 80.53126 90.726104 L 80.37069 91.018328 L 80.129836 90.798131 L 80.144246 91.16444 L 78.898804 91.522517 L 78.857633 92.222208 L 78.555021 92.086386 L 78.262703 92.294235 L 78.754704 92.685239 L 78.701181 93.05978 L 77.645128 93.689501 L 77.095487 94.895439 L 76.694063 94.813123 L 76.165008 94.210154 L 76.187652 93.611301 L 77.16342 92.611154 L 77.667773 92.689355 L 77.620425 91.436085 L 77.846869 91.012155 L 77.632777 90.656135 L 77.840693 90.54295 L 77.480442 89.968792 L 77.634835 89.672452 L 78.314167 89.573672 L 78.435624 89.281448 L 77.997146 88.752564 L 77.336341 88.552947 L 77.573078 87.894414 L 77.323989 87.406688 L 77.184006 87.03009 L 77.601898 86.859283 L 77.725413 86.208982 L 78.559138 86.530017 L 79.283759 86.178113 L 79.831342 84.344511 L 79.588429 83.856786 L 80.275996 83.560446 L 80.802992 84.334222 L 81.1406 84.371264 L 81.539965 85.235588 L 81.019144 85.513407 L 80.988265 86.178113 L 80.387159 87.095943 L 80.321284 88.308055 L 82.159598 89.112699 L 82.719532 89.806217 L 82.367515 90.014066 L 82.598076 90.164294 L 82.353104 90.929838 L 81.624367 90.863985 L 82.130778 90.898969 L 82.003146 90.658193 Z M 81.307345 90.726104 " stroke="rgb(100%, 100%, 100%)" stroke-width="0.5" stroke-opacity="1" stroke-miterlimit="4"/><path stroke-linecap="butt" transform="matrix(1.897544, 0, 0, 1.898159, 0.000864945, 10.857701)" fill-opacity="1" fill="rgb(17.248535%, 44.309998%, 94.119263%)" fill-rule="nonzero" stroke-linejoin="miter" d="M 108.062731 59.95205 L 107.93304 60.174305 L 108.19448 60.402733 L 107.80335 60.637335 L 107.272236 61.763015 L 107.247533 63.518416 L 106.806996 63.547227 L 106.815231 64.222222 L 106.279999 64.267497 L 106.38087 64.438304 L 105.808584 64.199585 L 105.604785 63.469026 L 104.526088 63.462852 L 104.056731 62.909273 L 103.706772 63.086254 L 103.27447 62.880462 L 103.255943 62.265146 L 104.097903 62.092281 L 104.499326 61.28352 L 104.476682 60.585887 L 105.285704 59.135058 L 104.873988 57.717154 L 105.232181 57.725386 L 105.508031 56.72524 L 104.933687 55.830047 L 105.565672 55.774483 L 106.296468 55.233252 L 106.590845 55.190035 L 107.58514 55.877379 L 108.497092 55.860916 L 108.536205 56.525622 L 109.087905 56.840483 L 109.581964 56.297193 L 110.34364 56.607939 L 110.722419 54.912217 L 111.535558 55.105661 L 111.799057 55.990564 L 111.307056 55.75802 L 111.280294 56.276614 L 110.80682 56.708776 L 111.123842 56.920742 L 111.109432 57.29734 L 110.887105 57.097722 L 110.38687 57.443452 L 110.378636 57.667765 L 110.913867 57.733618 L 110.50215 58.15549 L 110.701833 58.538262 L 111.037382 58.597942 L 110.946804 58.892224 L 110.69154 58.723475 L 110.69154 59.237953 L 110.403338 59.23178 L 110.549498 59.620725 L 110.961214 59.569278 L 110.767707 59.696868 L 110.872695 60.561192 L 110.209832 59.987034 L 110.467155 59.779185 L 110.300409 59.579567 L 109.948392 59.696868 L 109.812526 59.45815 L 109.024089 59.579567 L 108.505326 60.180478 L 108.48474 59.750374 Z M 108.062731 59.95205 " stroke="rgb(100%, 100%, 100%)" stroke-width="0.5" stroke-opacity="1" stroke-miterlimit="4"/><path stroke-linecap="butt" transform="matrix(1.897544, 0, 0, 1.898159, 0.000864945, 10.857701)" fill-opacity="1" fill="rgb(17.248535%, 44.309998%, 94.119263%)" fill-rule="nonzero" stroke-linejoin="miter" d="M 49.489906 107.078294 L 49.129655 108.580571 L 49.389036 108.942764 L 49.232584 110.056096 L 48.707645 110.846335 L 48.536783 111.94732 L 47.94597 111.83825 L 47.733936 111.369046 L 47.40868 111.288787 L 47.637183 110.858683 L 47.563074 110.119892 L 46.898152 109.86471 L 46.7417 110.043749 L 46.332042 109.002444 L 45.700058 108.81929 L 45.747405 108.131946 L 44.590482 107.000093 L 44.740759 106.689348 L 46.113832 106.592626 L 46.455557 106.185159 L 47.07519 106.26336 L 46.665532 105.561611 L 47.093717 105.047132 L 46.531725 104.238372 L 46.527607 103.458422 L 47.110186 103.139445 L 48.032431 101.454013 L 48.423561 101.404623 L 48.695294 101.587778 L 49.323161 101.369639 L 49.864568 101.966434 L 50.71888 101.836785 L 51.167651 101.379928 L 51.67612 101.571314 L 51.595836 102.056982 L 51.770815 102.05904 L 50.566545 103.481059 L 50.86298 103.841194 L 50.379214 104.065507 L 50.622126 104.345383 L 50.335984 104.456511 L 49.973673 105.320835 Z M 49.489906 107.078294 " stroke="rgb(100%, 100%, 100%)" stroke-width="0.5" stroke-opacity="1" stroke-miterlimit="4"/><path stroke-linecap="butt" transform="matrix(1.897544, 0, 0, 1.898159, 0.000864945, 10.857701)" fill-opacity="1" fill="rgb(17.248535%, 44.309998%, 94.119263%)" fill-rule="nonzero" stroke-linejoin="miter" d="M 90.587431 69.085075 L 92.681009 67.475785 L 93.86881 65.732732 L 94.58108 63.956752 L 97.115194 62.505922 L 97.658659 61.921474 L 98.171246 60.804026 L 98.212418 59.598088 L 98.786762 58.433309 L 99.809877 58.830486 L 99.76253 59.542525 L 100.011618 59.894428 L 100.942097 60.42537 L 100.695067 60.91927 L 100.270999 61.186798 L 99.778998 61.118887 L 99.61637 61.374069 L 99.669894 62.269262 L 99.272587 63.413462 L 99.956036 64.069937 L 98.809406 65.405523 L 99.017323 66.459176 L 98.09302 66.450944 L 97.866576 66.870759 L 96.816699 66.961307 L 96.637603 67.247357 L 96.802289 67.794762 L 96.439979 68.587059 L 96.981386 69.173565 L 96.892867 70.795202 L 96.022087 69.949399 L 95.72771 70.470051 L 95.221299 70.558542 L 95.3057 71.157395 L 95.013382 71.204727 L 94.998972 71.636889 L 94.338167 71.820043 L 94.124075 72.338638 L 93.560023 72.344811 L 93.539437 71.486661 L 92.913628 71.009225 L 92.771586 70.235449 L 92.518381 70.163422 L 91.723768 70.414487 L 91.12678 71.068904 L 91.044436 71.581325 L 90.612134 71.381707 L 89.624015 71.922939 L 89.329638 71.708916 L 89.387278 71.1327 L 88.491795 71.040094 L 88.516498 71.441387 L 87.849518 72.174004 L 87.538672 70.852823 L 87.065198 70.523557 L 88.751176 69.90824 L 89.866928 69.056264 Z M 92.143719 61.3823 L 92.018145 62.104628 L 92.796289 62.07376 L 92.353694 63.294103 L 91.499383 63.98762 L 90.616251 64.14608 L 91.449977 62.709655 L 91.019733 62.629397 L 90.71918 62.88252 L 90.764469 62.02437 L 91.287349 61.139466 L 91.962564 60.657914 L 92.104606 60.180478 L 92.444272 60.098162 Z M 92.143719 61.3823 " stroke="rgb(100%, 100%, 100%)" stroke-width="0.5" stroke-opacity="1" stroke-miterlimit="4"/><path stroke-linecap="butt" transform="matrix(1.897544, 0, 0, 1.898159, 0.000864945, 10.857701)" fill-opacity="1" fill="rgb(17.248535%, 44.309998%, 94.119263%)" fill-rule="nonzero" stroke-linejoin="miter" d="M 86.620544 83.334075 L 86.877867 82.965709 L 86.797582 82.572647 L 87.069315 82.482099 L 86.846988 82.177527 L 87.048729 81.675396 L 86.54026 81.607485 L 86.478502 80.557948 L 85.986501 79.782115 L 85.17542 79.384937 L 85.500676 78.808721 L 86.091489 78.781968 L 86.81611 77.899123 L 86.937566 77.411397 L 86.573197 76.925729 L 87.16401 75.567506 L 86.776996 75.038622 L 87.491324 74.067286 L 87.423391 73.68863 L 87.789819 73.470491 L 87.851576 72.171947 L 88.520615 71.437271 L 88.495912 71.035978 L 89.387278 71.130642 L 89.331696 71.708916 L 89.626074 71.922939 L 90.616251 71.381707 L 91.044436 71.581325 L 91.124721 71.066846 L 91.72171 70.414487 L 92.522498 70.163422 L 92.773645 70.235449 L 92.915687 71.009225 L 93.541496 71.486661 L 93.56414 72.344811 L 92.524557 72.715236 L 92.522498 73.054792 L 91.925509 73.470491 L 91.744354 74.295714 L 91.762881 74.699066 L 92.151953 74.929552 L 93.236826 74.855467 L 93.304759 75.672459 L 92.985679 75.884424 L 93.177127 76.617042 L 92.845695 76.71788 L 93.271822 77.187084 L 93.286232 77.845617 L 93.700007 78.039061 L 93.76794 78.668783 L 93.11537 78.961007 L 92.948624 78.607045 L 92.182832 78.753157 L 92.036673 78.380675 L 91.592019 78.199578 L 91.042378 79.043323 L 90.756235 78.886922 L 90.453623 79.50018 L 90.727415 79.767709 L 90.416569 80.109323 L 90.643013 80.658786 L 90.177773 81.327609 L 90.173656 82.712585 L 88.187125 83.881481 L 87.376044 83.747716 L 86.719356 84.002898 Z M 86.620544 83.334075 " stroke="rgb(100%, 100%, 100%)" stroke-width="0.5" stroke-opacity="1" stroke-miterlimit="4"/><path stroke-linecap="butt" transform="matrix(1.897544, 0, 0, 1.898159, 0.000864945, 10.857701)" fill-opacity="1" fill="rgb(17.248535%, 44.309998%, 94.119263%)" fill-rule="nonzero" stroke-linejoin="miter" d="M 77.328107 87.402572 L 77.577195 87.892356 L 77.340458 88.550889 L 77.997146 88.750506 L 78.435624 89.277333 L 78.314167 89.573672 L 77.634835 89.672452 L 77.480442 89.968792 L 77.838635 90.54295 L 77.632777 90.656135 L 77.846869 91.01627 L 77.622484 91.438143 L 77.667773 92.691413 L 77.16342 92.613212 L 76.189711 93.615417 L 74.79811 93.802687 L 74.612837 93.584548 L 74.835164 93.014505 L 74.269054 92.162529 L 74.849574 91.310552 L 75.390981 91.156209 L 74.861926 90.053166 L 75.111014 89.596309 L 74.915449 88.400661 L 75.390981 87.122696 L 75.553609 87.50341 L 76.150598 87.663928 L 76.607603 87.287329 L 77.041964 87.61248 Z M 77.328107 87.402572 " stroke="rgb(100%, 100%, 100%)" stroke-width="0.5" stroke-opacity="1" stroke-miterlimit="4"/><path stroke-linecap="butt" transform="matrix(1.897544, 0, 0, 1.898159, 0.000864945, 10.857701)" fill-opacity="1" fill="rgb(17.248535%, 44.309998%, 94.119263%)" fill-rule="nonzero" stroke-linejoin="miter" d="M 41.858744 101.10211 L 42.303398 101.170021 L 42.577189 101.703021 L 42.393975 102.54265 L 41.292634 103.139445 L 41.078542 102.50355 L 41.535547 101.966434 L 41.366743 101.668036 L 40.788282 101.659805 L 39.9772 101.851191 L 39.625183 102.622909 L 38.659708 103.291731 L 39.227877 102.100198 L 38.886152 101.484882 L 38.655591 101.581604 L 38.375624 101.312017 L 37.994786 100.507372 L 38.186234 99.61218 L 38.488846 99.529863 L 38.618537 100.116369 L 39.131123 100.208975 L 38.966437 101.143268 L 39.330806 101.39845 L 39.631359 101.046546 L 40.316866 101.28938 L 39.841334 100.729627 L 39.843393 99.980546 L 38.665884 99.603948 L 38.565013 98.978342 L 38.217113 99.441373 L 38.282988 98.978342 L 37.521313 98.599686 L 37.784811 97.395806 L 37.968025 97.53986 L 38.247992 97.266157 L 38.285046 97.597481 L 38.9335 97.457543 L 38.997316 97.718898 L 38.814102 98.027585 L 39.149651 98.844578 L 39.898974 98.994805 L 39.800162 99.538095 L 40.640064 100.291291 L 41.510844 100.501199 L 41.03737 101.083589 L 41.302927 101.314075 Z M 36.162649 90.437996 L 36.271753 90.084035 L 36.096774 90.304232 L 35.530664 90.193105 L 36.156473 88.921313 L 35.89915 88.643495 L 36.107067 88.063163 L 36.553779 88.040526 L 36.895504 87.633059 L 37.193998 87.910877 L 37.04578 88.750506 L 36.40762 89.505761 L 36.693763 90.26719 L 36.419971 90.497676 L 36.551721 90.668483 L 36.152356 90.820769 L 35.87033 91.897058 L 35.444204 92.234556 L 35.162178 92.098733 L 35.396856 90.407128 L 35.510078 90.689062 Z M 33.167412 102.050808 L 33.480317 102.777252 L 32.730993 102.750499 L 32.743344 103.269094 L 32.514842 103.020086 L 31.672882 102.983044 L 31.757284 102.727862 L 32.119594 102.694936 L 32.033134 101.754469 L 32.348097 101.978781 L 32.969788 101.628936 Z M 34.779282 99.815913 L 34.682528 100.297465 L 35.158061 100.104021 L 35.267166 100.324218 L 34.736052 100.787249 L 34.50549 101.505461 L 34.359331 100.567052 L 34.089657 100.577342 L 34.43344 100.344797 L 34.838981 98.972168 Z M 37.35045 97.406095 L 37.535723 97.18384 L 37.630417 97.566613 L 36.979906 98.614091 L 36.405561 98.939242 L 36.298515 98.68406 L 36.553779 98.813709 L 36.613478 98.198392 Z M 33.274459 101.303785 L 33.531781 101.466361 L 33.397973 101.888233 L 33.165354 101.738005 Z M 34.188469 101.186484 L 33.89615 100.900434 L 34.116418 100.931303 L 34.060837 100.661716 L 34.340804 100.916897 L 34.305808 101.297612 Z M 35.009843 98.017296 L 34.939851 98.356852 L 34.585775 98.282767 Z M 33.770577 101.620704 L 33.453555 101.063009 L 33.712936 101.342886 L 33.883799 101.112399 Z M 36.632005 97.455485 L 36.802868 96.938949 L 36.802868 97.58925 Z M 37.667472 96.659072 L 37.185764 96.733157 L 37.548074 96.445049 Z M 34.513725 98.805477 L 34.421089 98.577049 L 34.742227 98.605859 Z M 34.513725 98.805477 " stroke="rgb(100%, 100%, 100%)" stroke-width="0.5" stroke-opacity="1" stroke-miterlimit="4"/><g clip-path="url(#id3)"><path fill="rgb(17.248535%, 44.309998%, 94.119263%)" d="M 50.992188 288.191406 L 52.949219 286.746094 L 51.925781 286.339844 L 51.722656 284.980469 L 53.140625 285.222656 L 53.234375 286.039062 L 53.777344 285.972656 L 55.84375 283.867188 L 56.035156 282.929688 L 56.726562 283.277344 L 56.957031 284.480469 L 55.917969 286.027344 L 54.878906 286.042969 L 54.925781 286.859375 L 54.25 287.28125 L 53.570312 287.058594 L 53.765625 287.457031 L 52.5625 288.535156 L 51.179688 288.605469 L 52.226562 290.375 L 51.238281 289.933594 L 50.460938 291.582031 L 51.179688 292.027344 L 49.382812 293.214844 L 48.914062 291.609375 L 50.34375 290.203125 L 49.839844 288.589844 Z M 71.6875 263.328125 L 71.039062 264.171875 L 70.105469 264.300781 L 70.167969 265.414062 L 69.050781 266.203125 L 69.175781 266.800781 L 68.207031 266.25 L 67.960938 265.441406 L 66.34375 264.875 L 67.40625 264.609375 L 67.289062 264.230469 L 68.726562 263.359375 L 70.660156 262.945312 L 71.085938 262.109375 L 72 261.921875 L 72.179688 262.746094 L 72.601562 262.15625 L 72.265625 261.605469 L 72.792969 261.238281 L 73.097656 262.5625 Z M 5.941406 315.140625 L 5.226562 316.460938 L 2.703125 315.796875 L 3.191406 315.257812 L 3.660156 315.628906 L 4.035156 314.128906 Z M 64.445312 270.070312 L 65.226562 271.300781 L 64.65625 272.511719 L 64.046875 272.625 L 63.386719 271.816406 L 63.371094 270.355469 L 63.617188 269.578125 L 64.46875 269.601562 Z M 8.613281 313.980469 L 9.238281 313.90625 L 10.609375 312 L 9.570312 313.816406 L 9.457031 315.292969 L 8.460938 315.511719 L 7.953125 315.066406 L 8.320312 314.453125 L 7.453125 314.230469 L 8.023438 313.5625 Z M 21.203125 310.074219 L 21.574219 310.128906 L 21.363281 308.042969 L 22.183594 309.550781 L 23.546875 310.410156 L 21.859375 310.65625 Z M 60.460938 276.5 L 59.640625 276.960938 L 59.222656 276.183594 L 61.417969 275.523438 Z M 67.351562 266.109375 L 67.757812 265.90625 L 68.785156 266.644531 L 68.746094 267.183594 L 67.28125 267.183594 L 66.808594 265.726562 L 67.214844 265.554688 Z M 38.84375 289.964844 L 38.160156 289.371094 L 39.015625 289.148438 L 39.480469 289.691406 L 39.339844 290.398438 Z M 76.808594 263.359375 L 76.101562 264.460938 L 75.464844 264.375 L 75.492188 263.941406 Z M 19.882812 309.296875 L 20.191406 308.6875 L 20.863281 309.335938 Z M 52.574219 280.671875 L 53.398438 280.019531 L 52.183594 281.363281 Z M 51.015625 284.679688 L 51.15625 285 L 50.242188 284.882812 Z M 52.433594 281.808594 L 52.460938 282.390625 L 52.128906 282.042969 Z M 52.433594 281.808594 " fill-opacity="1" fill-rule="nonzero"/></g><g clip-path="url(#id4)"><path stroke-linecap="butt" transform="matrix(1.897544, 0, 0, 1.898159, 0.000864945, 10.857701)" fill="none" stroke-linejoin="miter" d="M 26.872269 146.106644 L 27.903619 145.345216 L 27.364271 145.131192 L 27.257224 144.415038 L 28.004489 144.542629 L 28.053895 144.972733 L 28.340038 144.937748 L 29.429028 143.828532 L 29.529898 143.334633 L 29.894267 143.517787 L 30.015724 144.151625 L 29.468141 144.966559 L 28.920558 144.974791 L 28.945261 145.404895 L 28.589127 145.62715 L 28.230933 145.509849 L 28.333862 145.719756 L 27.699819 146.28774 L 26.971081 146.324783 L 27.522781 147.257018 L 27.00196 147.024474 L 26.592302 147.892914 L 26.971081 148.127516 L 26.024134 148.753122 L 25.777104 147.907319 L 26.530545 147.16647 L 26.264988 146.316551 Z M 37.778635 133.008018 L 37.436911 133.452527 L 36.94491 133.520438 L 36.977847 134.106944 L 36.389093 134.522643 L 36.454967 134.837504 L 35.944439 134.547338 L 35.814748 134.121349 L 34.962496 133.822952 L 35.52243 133.683014 L 35.460672 133.483396 L 36.21823 133.024481 L 37.237228 132.806342 L 37.461614 132.365948 L 37.943322 132.267168 L 38.038017 132.701388 L 38.260343 132.390643 L 38.083305 132.100477 L 38.361214 131.907033 L 38.521783 132.604666 Z M 3.130647 160.304197 L 2.753926 160.999772 L 1.424083 160.649926 L 1.681405 160.365934 L 1.928435 160.561436 L 2.126059 159.771197 Z M 33.962025 136.559978 L 34.373741 137.208221 L 34.073188 137.846175 L 33.752049 137.905854 L 33.404149 137.479866 L 33.395915 136.710206 L 33.525605 136.300681 L 33.974376 136.313028 Z M 4.538717 159.692996 L 4.86809 159.653896 L 5.590652 158.649633 L 5.043069 159.606564 L 4.98337 160.384455 L 4.458432 160.499699 L 4.190816 160.265096 L 4.384323 159.942004 L 3.927318 159.824703 L 4.227871 159.472799 Z M 11.173526 157.635081 L 11.369091 157.663892 L 11.257927 156.564966 L 11.69023 157.359321 L 12.408675 157.812062 L 11.519367 157.941711 Z M 31.862271 139.947306 L 31.429969 140.190139 L 31.209701 139.780614 L 32.366624 139.432827 Z M 35.49361 134.473253 L 35.707702 134.366241 L 36.249109 134.755187 L 36.228523 135.039179 L 35.456555 135.039179 L 35.207467 134.271577 L 35.421559 134.181029 Z M 20.47008 147.040937 L 20.109829 146.728134 L 20.560658 146.610833 L 20.805629 146.896883 L 20.73152 147.269366 Z M 40.477436 133.024481 L 40.104833 133.604813 L 39.769284 133.559539 L 39.783694 133.33111 Z M 10.477725 157.225556 L 10.640353 156.904522 L 10.994429 157.246136 Z M 27.705995 142.145158 L 28.140356 141.801487 L 27.500137 142.509409 Z M 26.884621 144.256579 L 26.95873 144.425328 L 26.477022 144.36359 Z M 27.631886 142.744011 L 27.646296 143.050641 L 27.471317 142.867486 Z M 27.631886 142.744011 " stroke="rgb(100%, 100%, 100%)" stroke-width="0.5" stroke-opacity="1" stroke-miterlimit="4"/></g><path stroke-linecap="butt" transform="matrix(1.897544, 0, 0, 1.898159, 0.000864945, 10.857701)" fill-opacity="1" fill="rgb(17.248535%, 44.309998%, 94.119263%)" fill-rule="nonzero" stroke-linejoin="miter" d="M 73.503262 88.989225 L 73.593839 88.081684 L 73.760585 87.705086 L 73.499145 86.165766 L 73.783229 86.007306 L 73.046257 85.713025 L 72.972148 85.223241 L 73.194475 85.140924 L 73.254173 85.369353 L 73.925271 85.556623 L 74.240234 86.110202 L 74.485205 86.029943 L 74.448151 85.686272 L 74.680771 85.692445 L 75.4795 86.93131 L 75.390981 87.122696 L 74.915449 88.398603 L 75.111014 89.592194 L 74.857809 90.049051 L 71.728764 90.870158 L 71.469383 90.555298 L 72.268113 90.291884 Z M 73.503262 88.989225 " stroke="rgb(100%, 100%, 100%)" stroke-width="0.5" stroke-opacity="1" stroke-miterlimit="4"/><path stroke-linecap="butt" transform="matrix(1.897544, 0, 0, 1.898159, 0.000864945, 10.857701)" fill-opacity="1" fill="rgb(17.248535%, 44.309998%, 94.119263%)" fill-rule="nonzero" stroke-linejoin="miter" d="M 64.962206 88.655842 L 64.523728 88.995398 L 64.377569 89.530456 L 63.031257 89.359649 L 62.839809 89.116815 L 61.639656 89.606599 L 61.425563 89.347302 L 61.011788 88.291592 L 60.976792 86.92102 L 60.478615 86.29953 L 60.624775 85.429032 L 60.31187 85.050376 L 60.495084 84.71082 L 61.176475 84.583229 L 61.157947 84.095504 L 61.773463 84.046114 L 62.312812 82.908087 L 63.237115 83.105647 L 63.731175 83.620125 L 64.834574 82.858697 L 64.846926 83.187963 L 65.600367 83.383465 L 65.88651 84.212805 L 67.257525 83.681863 L 67.294579 84.377438 L 67.008437 84.437117 L 66.446444 85.311731 L 66.351749 85.8756 L 66.563783 86.141071 L 66.345573 86.548538 L 66.905507 87.421094 L 66.479381 87.433441 L 65.818576 88.326576 Z M 66.598779 89.538688 L 66.697591 89.337012 L 66.222058 89.800043 L 66.228234 89.390518 L 65.643597 89.37817 L 65.78358 89.110642 L 66.928152 88.690827 L 66.860219 89.641583 Z M 66.598779 89.538688 " stroke="rgb(100%, 100%, 100%)" stroke-width="0.5" stroke-opacity="1" stroke-miterlimit="4"/><path stroke-linecap="butt" transform="matrix(1.897544, 0, 0, 1.898159, 0.000864945, 10.857701)" fill-opacity="1" fill="rgb(17.248535%, 44.309998%, 94.119263%)" fill-rule="nonzero" stroke-linejoin="miter" d="M 45.448911 99.420794 L 45.708292 98.912489 L 45.343923 98.43711 L 45.586836 98.035817 L 45.40568 97.692145 L 45.796811 96.922485 L 46.299105 96.494439 L 47.482789 96.471802 L 47.517785 95.805038 L 48.969085 95.99025 L 49.461086 95.272038 L 49.981907 95.117694 L 50.869156 95.887354 L 50.924738 96.780489 L 50.70447 97.206477 L 50.278343 97.083003 L 50.340101 97.443138 L 49.9922 97.657161 L 49.469321 97.53986 L 49.432266 97.760057 L 49.541371 98.227203 L 50.00661 98.385663 L 50.591248 98.132539 L 51.00914 98.430937 L 51.929326 98.223087 L 51.350864 99.245871 L 51.904623 99.190307 L 51.667886 99.591601 L 51.974615 99.682149 L 52.159887 99.470184 L 52.343101 99.731539 L 52.538666 99.476357 L 52.559252 99.725365 L 52.083719 99.79945 L 51.888154 100.315986 L 53.043018 100.653484 L 52.386331 100.737859 L 52.629244 100.972461 L 52.376038 101.207063 L 52.581896 101.425202 L 52.137242 101.742121 L 51.8511 101.596009 L 51.772874 102.071388 L 51.599953 102.06933 L 51.680237 101.583662 L 51.169709 101.390218 L 50.722997 101.847075 L 49.866627 101.978781 L 49.327278 101.381986 L 48.699411 101.600125 L 48.427678 101.416971 L 47.993318 101.021851 L 47.744229 99.815913 L 47.093717 98.869272 L 46.338218 98.965994 L 46.558486 99.573079 L 46.350569 100.031994 Z M 45.448911 99.420794 " stroke="rgb(100%, 100%, 100%)" stroke-width="0.5" stroke-opacity="1" stroke-miterlimit="4"/><path stroke-linecap="butt" transform="matrix(1.897544, 0, 0, 1.898159, 0.000864945, 10.857701)" fill-opacity="1" fill="rgb(17.248535%, 44.309998%, 94.119263%)" fill-rule="nonzero" stroke-linejoin="miter" d="M 39.069366 97.77652 L 39.277283 98.074917 L 39.476965 97.297026 L 38.931441 96.879269 L 39.081717 96.628203 L 39.394622 96.854574 L 39.314337 96.109609 L 39.831041 96.152825 L 40.063661 96.852516 L 40.489787 96.757852 L 41.939029 96.694057 L 42.900386 97.299084 L 43.565308 96.994512 L 43.559133 97.694203 L 42.665708 98.393894 L 42.428971 99.099759 L 42.023431 99.097701 L 41.687882 98.758145 L 41.070307 99.410504 L 41.508785 100.499141 L 40.640064 100.287176 L 39.800162 99.536037 L 39.898974 98.990689 L 39.149651 98.84252 L 38.814102 98.02347 L 38.997316 97.71684 Z M 38.569131 94.98393 L 38.07713 94.557941 L 38.45385 93.864424 L 38.879976 94.018768 L 38.785282 94.510609 L 39.028194 94.594984 Z M 38.64324 97.050076 L 38.75852 96.739331 L 39.001433 97.035671 L 38.632947 97.218825 Z M 38.64324 97.050076 " stroke="rgb(100%, 100%, 100%)" stroke-width="0.5" stroke-opacity="1" stroke-miterlimit="4"/><path stroke-linecap="butt" transform="matrix(1.897544, 0, 0, 1.898159, 0.000864945, 10.857701)" fill-opacity="1" fill="rgb(17.248535%, 44.309998%, 94.119263%)" fill-rule="nonzero" stroke-linejoin="miter" d="M 79.594605 83.85267 L 79.837518 84.344511 L 79.289935 86.178113 L 78.561197 86.530017 L 77.72953 86.208982 L 77.603957 86.859283 L 77.188123 87.03009 L 76.677595 86.30982 L 76.230883 86.281009 L 75.938564 85.114171 L 76.123836 83.391697 L 75.627718 82.823712 L 75.901509 82.408014 L 76.389393 82.445056 L 76.712591 81.586906 L 77.095487 81.794755 L 77.748057 81.150628 L 78.089782 81.249408 L 77.970384 80.261609 L 78.742352 80.510616 L 79.028495 80.864578 L 78.991441 81.362593 L 79.501969 81.516937 L 79.759292 82.568531 L 79.37022 83.638647 Z M 79.594605 83.85267 " stroke="rgb(100%, 100%, 100%)" stroke-width="0.5" stroke-opacity="1" stroke-miterlimit="4"/><path stroke-linecap="butt" transform="matrix(1.897544, 0, 0, 1.898159, 0.000864945, 10.857701)" fill-opacity="1" fill="rgb(17.248535%, 44.309998%, 94.119263%)" fill-rule="nonzero" stroke-linejoin="miter" d="M 54.42021 85.033913 L 55.07278 84.083156 L 56.470557 83.196195 L 56.639361 82.453288 L 56.369686 82.216628 L 58.477674 81.599253 L 58.45503 81.39552 L 58.819399 81.43462 L 59.235232 80.936605 L 59.519316 81.265871 L 60.653595 81.210307 L 60.149242 81.461373 L 60.655654 81.979967 L 60.560959 83.439029 L 59.595484 83.867075 L 59.861041 84.212805 L 59.533726 84.910438 L 57.882744 84.719052 L 57.137537 85.756241 L 56.503494 86.147245 L 56.839043 86.628797 L 55.834455 87.001279 L 55.249818 86.834588 L 54.372862 87.135044 L 54.002318 86.951889 L 53.362099 87.723607 L 53.532961 87.828561 L 53.250935 88.699059 L 52.777461 89.162089 L 52.929796 89.359649 L 52.528373 89.719784 L 52.616892 90.096383 L 52.266933 90.586166 L 52.052841 90.390664 L 51.435266 90.637614 L 51.112069 90.133425 L 51.282931 89.653931 L 50.700352 89.666278 L 50.510963 89.153858 L 50.856805 88.649669 L 50.597423 87.859429 L 51.424973 87.729781 L 53.051253 85.966148 Z M 60.046313 76.536783 L 59.776639 76.361861 L 59.758112 75.787702 L 60.363335 75.382293 L 61.011788 75.939988 L 60.917093 76.407135 L 60.525963 76.458583 L 60.661829 76.701417 Z M 45.739171 66.2184 L 45.866803 66.627925 L 45.630066 66.901627 L 45.228642 66.732878 L 45.123655 66.434481 Z M 59.126127 76.884571 L 58.924386 77.510177 L 58.560017 77.259111 L 58.636185 77.67481 L 58.315046 77.475192 L 58.722645 76.931903 Z M 59.480203 77.314675 L 59.070546 77.705679 L 59.041725 77.199432 L 59.338161 77.05332 Z M 58.675298 77.715968 L 59.056136 77.989671 L 58.687649 77.938223 Z M 58.675298 77.715968 " stroke="rgb(100%, 100%, 100%)" stroke-width="0.5" stroke-opacity="1" stroke-miterlimit="4"/><path stroke-linecap="butt" transform="matrix(1.897544, 0, 0, 1.898159, 0.000864945, 10.857701)" fill-opacity="1" fill="rgb(17.248535%, 44.309998%, 94.119263%)" fill-rule="nonzero" stroke-linejoin="miter" d="M 93.76794 78.668783 L 93.700007 78.039061 L 95.217181 77.036857 L 95.692714 77.016277 L 96.211476 75.878251 L 97.710124 76.139606 L 98.274175 76.555305 L 99.22524 76.555305 L 99.474328 76.318644 L 99.735768 76.446235 L 99.949861 77.333196 L 100.192773 77.254996 L 100.950331 79.014513 L 100.773293 79.512528 L 100.133074 79.360242 L 99.243767 79.743014 L 98.790879 79.767709 L 98.70236 79.496065 L 97.819229 79.738898 L 97.283997 79.234709 L 95.577433 78.759331 L 95.089549 79.07625 L 94.751942 79.166798 Z M 93.76794 78.668783 " stroke="rgb(100%, 100%, 100%)" stroke-width="0.5" stroke-opacity="1" stroke-miterlimit="4"/><path stroke-linecap="butt" transform="matrix(1.897544, 0, 0, 1.898159, 0.000864945, 10.857701)" fill-opacity="1" fill="rgb(17.248535%, 44.309998%, 94.119263%)" fill-rule="nonzero" stroke-linejoin="miter" d="M 96.110606 86.414773 L 95.394219 87.369646 L 95.336579 87.99731 L 94.346401 88.380082 L 93.813229 87.754476 L 94.045848 87.274982 L 93.918216 86.322167 L 94.126133 86.130781 L 93.959388 85.655403 L 94.111723 85.272631 L 94.747825 85.324079 L 94.832227 85.101824 L 94.278468 84.607924 L 93.557965 84.449465 L 92.705712 84.704646 L 92.481326 85.533986 L 91.526144 86.050523 L 91.334696 86.779024 L 90.478326 87.943804 L 90.688302 88.458283 L 89.298759 87.966441 L 86.151188 87.871777 L 86.23559 86.768735 L 87.089901 86.289241 L 88.250941 84.340395 L 88.187125 83.881481 L 90.173656 82.712585 L 90.177773 81.327609 L 90.645071 80.658786 L 90.935332 81.648643 L 90.848871 83.041851 L 91.53232 83.150921 L 91.962564 84.140778 L 92.571904 83.982318 L 92.448389 83.157095 L 92.565728 82.434767 L 92.872457 82.152832 L 93.510617 82.807249 L 94.922804 82.477983 L 95.43745 82.543836 L 95.357165 83.982318 L 95.616546 84.363033 L 96.087961 84.426828 L 95.836814 85.044202 L 96.312347 85.793283 Z M 96.110606 86.414773 " stroke="rgb(100%, 100%, 100%)" stroke-width="0.5" stroke-opacity="1" stroke-miterlimit="4"/><path stroke-linecap="butt" transform="matrix(1.897544, 0, 0, 1.898159, 0.000864945, 10.857701)" fill-opacity="1" fill="rgb(17.248535%, 44.309998%, 94.119263%)" fill-rule="nonzero" stroke-linejoin="miter" d="M 103.138604 70.877518 L 103.319759 72.519734 L 102.908043 72.801668 L 103.093315 73.972622 L 102.741297 74.913089 L 101.386751 75.160039 L 100.997679 75.719791 L 100.645661 75.631301 L 100.47274 76.158127 L 99.735768 76.446235 L 99.474328 76.318644 L 99.22524 75.911177 L 98.344167 75.923525 L 97.685421 75.199139 L 98.389456 73.608371 L 97.442508 73.188556 L 97.594843 72.122557 L 97.911865 71.684221 L 97.594843 71.546341 L 97.775998 71.066846 L 100.93798 69.220897 L 102.434569 69.618075 L 102.821582 70.212812 L 103.085081 70.196349 Z M 103.138604 70.877518 " stroke="rgb(100%, 100%, 100%)" stroke-width="0.5" stroke-opacity="1" stroke-miterlimit="4"/><path stroke-linecap="butt" transform="matrix(1.897544, 0, 0, 1.898159, 0.000864945, 10.857701)" fill-opacity="1" fill="rgb(17.248535%, 44.309998%, 94.119263%)" fill-rule="nonzero" stroke-linejoin="miter" d="M 97.823346 87.785345 L 97.568082 87.536337 L 97.623663 86.949831 L 98.16507 87.369646 L 98.115664 87.834734 Z M 97.166658 89.697147 L 97.063729 90.409186 L 96.892867 90.123135 Z M 100.555084 80.716408 L 100.242179 80.407721 L 100.085727 80.543543 L 99.993091 81.029211 L 100.310112 81.440794 L 99.754295 81.467547 L 99.50109 81.070369 L 98.669423 80.67525 L 98.212418 80.883099 L 98.457389 81.076543 L 98.305054 81.714496 L 97.885103 81.125933 L 96.940214 80.955126 L 96.234121 80.444763 L 95.58155 80.084628 L 95.089549 79.07625 L 95.577433 78.759331 L 97.283997 79.234709 L 97.819229 79.738898 L 98.70236 79.496065 L 98.788821 79.767709 L 99.243767 79.743014 L 100.133074 79.360242 L 100.773293 79.512528 L 101.217947 80.450937 L 100.90916 80.846057 Z M 98.883515 92.104907 L 98.432686 91.973201 L 98.364753 92.481506 L 98.805289 92.411537 Z M 100.511853 99.846782 L 100.602431 99.313782 L 100.00956 99.021558 L 100.211301 99.663628 Z M 100.511853 99.846782 L 100.602431 99.313782 L 100.00956 99.021558 L 100.211301 99.663628 Z M 100.511853 99.846782 " stroke="rgb(100%, 100%, 100%)" stroke-width="0.5" stroke-opacity="1" stroke-miterlimit="4"/><path stroke-linecap="butt" transform="matrix(1.897544, 0, 0, 1.898159, 0.000864945, 10.857701)" fill-opacity="1" fill="rgb(17.248535%, 44.309998%, 94.119263%)" fill-rule="nonzero" stroke-linejoin="miter" d="M 69.227588 94.156648 L 67.204002 95.385223 L 66.648185 96.173404 L 65.991497 96.105493 L 65.795932 95.173258 L 65.182475 95.156795 L 64.993085 94.144301 L 64.573134 94.094911 L 64.254054 94.407714 L 63.809401 94.029057 L 63.247408 94.082563 L 62.714235 93.751239 L 62.89539 92.786077 L 63.949384 92.106965 L 64.377569 92.028764 L 64.791344 92.331278 L 65.855631 91.588371 L 67.317224 91.699498 L 67.49632 91.333189 L 68.371218 91.088297 L 68.603837 91.528691 L 68.408272 92.792251 L 68.55649 92.956884 L 68.669712 92.781961 L 69.104073 93.407567 L 68.630599 93.944683 L 69.330517 94.022884 Z M 69.227588 94.156648 " stroke="rgb(100%, 100%, 100%)" stroke-width="0.5" stroke-opacity="1" stroke-miterlimit="4"/><path stroke-linecap="butt" transform="matrix(1.897544, 0, 0, 1.898159, 0.000864945, 10.857701)" fill-opacity="1" fill="rgb(17.248535%, 44.309998%, 94.119263%)" fill-rule="nonzero" stroke-linejoin="miter" d="M 60.653595 81.982025 L 61.106483 82.070516 L 62.263406 81.479894 L 63.270052 81.714496 L 65.536551 81.516937 L 67.039315 80.870752 L 67.916271 82.910145 L 67.949208 83.404044 L 67.259584 83.681863 L 65.888568 84.212805 L 65.602425 83.383465 L 64.851043 83.187963 L 64.838691 82.858697 L 63.733233 83.620125 L 63.239174 83.105647 L 62.316929 82.908087 L 61.775522 84.046114 L 61.160006 84.095504 L 61.178533 84.583229 L 60.497143 84.71082 L 60.313929 85.050376 L 59.527551 84.910438 L 59.852807 84.212805 L 59.589308 83.869133 L 60.552724 83.439029 Z M 60.653595 81.982025 " stroke="rgb(100%, 100%, 100%)" stroke-width="0.5" stroke-opacity="1" stroke-miterlimit="4"/><path stroke-linecap="butt" transform="matrix(1.897544, 0, 0, 1.898159, 0.000864945, 10.857701)" fill-opacity="1" fill="rgb(17.248535%, 44.309998%, 94.119263%)" fill-rule="nonzero" stroke-linejoin="miter" d="M 83.888806 72.015545 L 85.202182 72.184294 L 85.56655 71.838564 L 85.78476 70.926908 L 87.065198 70.521499 L 87.538672 70.850765 L 87.851576 72.171947 L 87.789819 73.470491 L 87.423391 73.68863 L 87.491324 74.067286 L 86.776996 75.038622 L 85.650952 74.758745 L 85.564492 74.515911 L 85.144541 74.764919 L 85.066315 74.478869 L 84.181125 74.54678 L 83.024202 75.911177 L 82.892453 75.421394 L 82.421038 75.190907 L 81.910509 75.719791 L 82.056669 73.807989 L 81.854928 73.274989 L 82.429272 71.16151 L 82.865691 70.735522 L 83.47709 70.686132 L 83.063315 71.398171 Z M 83.888806 72.015545 " stroke="rgb(100%, 100%, 100%)" stroke-width="0.5" stroke-opacity="1" stroke-miterlimit="4"/><path stroke-linecap="butt" transform="matrix(1.897544, 0, 0, 1.898159, 0.000864945, 10.857701)" fill-opacity="1" fill="rgb(17.248535%, 44.309998%, 94.119263%)" fill-rule="nonzero" stroke-linejoin="miter" d="M 75.963267 96.416238 L 75.578312 96.998628 L 75.598898 96.657014 L 74.034376 96.340095 L 72.935093 95.290559 L 73.313872 94.953061 L 72.051962 94.197806 L 71.839928 93.759471 L 71.259408 93.738891 L 71.323224 93.014505 L 71.965501 92.617328 L 71.38704 92.302467 L 71.669066 91.84561 L 72.033434 91.759178 L 71.314989 90.752857 L 71.467325 90.555298 L 71.724647 90.870158 L 74.85575 90.049051 L 75.384805 91.156209 L 74.843398 91.308494 L 74.264937 92.160471 L 74.831047 93.012448 L 74.610779 93.580432 L 74.793993 93.802687 L 76.187652 93.611301 L 76.165008 94.210154 L 76.694063 94.813123 L 77.095487 94.895439 L 76.94521 95.393455 L 76.646716 95.473713 L 76.780524 95.934686 Z M 75.963267 96.416238 " stroke="rgb(100%, 100%, 100%)" stroke-width="0.5" stroke-opacity="1" stroke-miterlimit="4"/><path stroke-linecap="butt" transform="matrix(1.897544, 0, 0, 1.898159, 0.000864945, 10.857701)" fill-opacity="1" fill="rgb(17.248535%, 44.309998%, 94.119263%)" fill-rule="nonzero" stroke-linejoin="miter" d="M 49.518727 92.683181 L 49.335513 92.555591 L 48.995847 92.938363 L 48.812633 92.652313 L 48.038606 93.421973 L 47.361333 93.179139 L 47.386036 92.934247 L 46.68406 92.537069 L 45.794752 93.481652 L 45.868861 92.506201 L 45.539488 92.03288 L 45.984142 91.456664 L 45.576543 90.717873 L 45.790635 90.242495 L 46.612009 90.114904 L 46.136477 89.847375 L 46.222937 89.592194 L 47.007257 89.763 L 47.344864 90.10873 L 48.775579 89.779464 L 50.060134 87.99731 L 50.585072 87.859429 L 50.842395 88.649669 L 50.498611 89.153858 L 50.688001 89.666278 L 51.268521 89.653931 L 51.097659 90.133425 L 51.420856 90.637614 L 52.040489 90.390664 L 52.254582 90.586166 L 52.602482 90.096383 L 52.516022 89.719784 L 52.917445 89.359649 L 53.448559 91.137687 L 53.948794 91.17473 L 53.819104 92.835467 L 53.3024 93.170907 L 53.382684 94.082563 L 53.230349 93.749181 L 51.548488 92.71405 L 51.394095 93.072127 L 51.11001 93.008332 L 51.457911 92.642023 L 51.070897 92.421826 L 49.689589 92.868394 Z M 54.226703 93.808861 L 53.784108 93.903525 L 53.586484 93.389046 L 53.952912 93.092706 L 54.374921 93.44461 L 55.410387 93.220297 L 54.798989 93.516637 L 54.801047 93.870598 L 54.360511 93.615417 Z M 54.226703 93.808861 " stroke="rgb(100%, 100%, 100%)" stroke-width="0.5" stroke-opacity="1" stroke-miterlimit="4"/><path stroke-linecap="butt" transform="matrix(1.897544, 0, 0, 1.898159, 0.000864945, 10.857701)" fill-opacity="1" fill="rgb(17.248535%, 44.309998%, 94.119263%)" fill-rule="nonzero" stroke-linejoin="miter" d="M 96.232062 80.444763 L 96.11884 81.47372 L 95.046319 82.126079 L 94.922804 82.477983 L 93.510617 82.807249 L 92.872457 82.152832 L 92.565728 82.434767 L 92.44633 83.157095 L 92.571904 83.982318 L 91.962564 84.140778 L 91.53232 83.150921 L 90.848871 83.041851 L 90.935332 81.648643 L 90.643013 80.658786 L 90.416569 80.109323 L 90.727415 79.767709 L 90.453623 79.50018 L 90.756235 78.886922 L 91.042378 79.043323 L 91.592019 78.199578 L 92.036673 78.380675 L 92.182832 78.753157 L 92.948624 78.607045 L 93.11537 78.961007 L 93.76794 78.668783 L 94.751942 79.166798 L 95.089549 79.07625 L 95.577433 80.084628 Z M 96.232062 80.444763 " stroke="rgb(100%, 100%, 100%)" stroke-width="0.5" stroke-opacity="1" stroke-miterlimit="4"/><path stroke-linecap="butt" transform="matrix(1.897544, 0, 0, 1.898159, 0.000864945, 10.857701)" fill-opacity="1" fill="rgb(17.248535%, 44.309998%, 94.119263%)" fill-rule="nonzero" stroke-linejoin="miter" d="M 103.276529 62.884578 L 103.367106 64.164601 L 102.953331 64.666732 L 102.319288 64.759338 L 101.862283 64.411551 L 101.479387 64.553547 L 101.178834 64.030836 L 100.398632 64.22428 L 99.956036 64.071995 L 99.272587 63.41552 L 99.669894 62.271319 L 99.61637 61.376127 L 99.778998 61.120945 L 100.270999 61.190914 L 100.695067 60.923385 L 100.942097 60.427428 L 100.011618 59.896486 L 99.76253 59.544583 L 99.809877 58.832544 L 98.786762 58.435367 L 99.151131 57.478436 L 100.046614 56.542085 L 100.74859 53.951171 L 101.528793 54.078761 L 101.948744 53.858565 L 102.010501 54.222816 L 102.481916 54.498576 L 104.215242 54.973954 L 104.396397 55.533707 L 104.946038 55.838278 L 105.522441 56.735529 L 105.244533 57.735676 L 104.88634 57.725386 L 105.298056 59.143289 L 104.489033 60.596177 L 104.511678 61.291752 L 104.110254 62.100513 L 103.266236 62.275435 Z M 103.276529 62.884578 " stroke="rgb(100%, 100%, 100%)" stroke-width="0.5" stroke-opacity="1" stroke-miterlimit="4"/></svg>