<svg xmlns="http://www.w3.org/2000/svg" xmlns:xlink="http://www.w3.org/1999/xlink" width="411" zoomAndPan="magnify" viewBox="0 0 308.25 262.500001" height="350" preserveAspectRatio="xMidYMid meet" version="1.0"><defs><clipPath id="id1"><path d="M 0 0.0703125 L 307.5 0.0703125 L 307.5 261.933594 L 0 261.933594 Z M 0 0.0703125 " clip-rule="nonzero"/></clipPath></defs><g clip-path="url(#id1)"><path fill="rgb(100%, 100%, 100%)" d="M 0 0.0703125 L 307.5 0.0703125 L 307.5 261.933594 L 0 261.933594 Z M 0 0.0703125 " fill-opacity="1" fill-rule="nonzero"/><path fill="rgb(100%, 100%, 100%)" d="M 0 0.0703125 L 307.5 0.0703125 L 307.5 261.933594 L 0 261.933594 Z M 0 0.0703125 " fill-opacity="1" fill-rule="nonzero"/><path fill="rgb(100%, 100%, 100%)" d="M 0 0.0703125 L 307.5 0.0703125 L 307.5 261.933594 L 0 261.933594 Z M 0 0.0703125 " fill-opacity="1" fill-rule="nonzero"/></g><path stroke-linecap="butt" transform="matrix(2.292499, 0, 0, 2.296995, 64.166249, 0.0721168)" fill-opacity="1" fill="rgb(17.248535%, 44.309998%, 94.119263%)" fill-rule="nonzero" stroke-linejoin="round" d="M 69.456209 66.971896 L 69.163134 21.962349 L 77.186924 8.929019 C 76.929631 8.964731 76.670635 8.964731 76.413342 8.964731 C 76.154345 8.964731 75.878309 8.964731 75.603976 8.998743 C 73.60527 9.223221 71.625308 9.377975 70.885804 8.843989 C 70.45471 8.532781 68.251533 6.878106 67.321189 4.774474 C 66.443667 4.102741 59.07248 10.274186 57.763864 12.15334 C 57.334475 12.774055 57.264614 13.257023 57.196457 13.722985 C 57.109556 14.342 57.007321 14.962716 56.197956 15.54942 C 55.40563 16.100412 55.044397 15.911646 54.579225 15.583432 C 54.252071 15.341948 53.820978 15.049446 52.66742 15.100464 C 50.670418 15.187194 49.448702 14.462742 48.38034 13.825021 C 48.002068 13.602243 47.639132 13.377765 47.26086 13.204305 C 46.107302 12.687325 44.488572 12.791061 43.07772 12.894797 C 42.767606 12.911803 42.457491 12.945815 42.164416 12.945815 C 41.096054 12.998533 38.083511 10.585395 33.607296 6.878106 C 31.661412 5.274448 29.836506 3.757521 29.233316 3.448013 C 28.079758 2.861309 25.118333 3.068782 23.136667 3.206529 C 22.380123 3.257547 21.725815 3.310265 21.311761 3.310265 C 20.82955 3.29326 20.40016 3.102793 20.090046 2.740567 C 19.675992 2.2576 19.537973 1.585866 19.486856 1.138611 L 5.436276 0.999162 L 1.888701 5.39519 C 2.181776 5.930876 2.733849 7.068572 2.629909 7.895059 C 2.543009 8.636517 2.940024 9.619459 3.456314 9.928966 C 3.611371 10.032702 3.904446 10.136438 4.214561 10.25718 C 5.26418 10.653418 6.555756 11.170398 6.400699 12.223064 C 6.332542 12.653313 6.124663 13.032545 5.901448 13.428783 C 5.557255 14.049499 5.196023 14.704226 5.298258 15.583432 C 5.487394 17.307831 6.538717 19.290721 8.673737 22.030373 C 10.619621 24.49623 10.704818 25.150958 10.704818 27.013105 C 10.704818 27.426349 10.704818 27.909317 10.7406 28.496021 C 10.808757 29.737452 11.118872 30.822429 11.394908 31.771359 C 11.790219 33.09782 12.168491 34.374964 11.66924 35.650408 C 11.308008 36.546619 10.980854 36.976869 10.704818 37.339095 C 10.377664 37.788051 10.13741 38.097558 9.965313 39.25226 C 9.63816 41.372897 8.949773 42.355839 7.726354 42.406856 C 7.193025 42.442569 6.228602 43.786036 6.124663 44.63123 C 6.056506 45.200928 5.540216 45.872661 4.833086 46.768873 C 4.127661 47.68209 3.250138 48.819786 2.836084 49.923469 C 2.423734 51.078171 2.079541 52.078118 1.803505 52.853588 C 1.561547 53.527022 1.389451 54.044002 1.287215 54.319498 C 1.200315 54.543976 1.166236 55.145985 1.200315 55.802413 C 1.40649 56.266674 1.544508 56.698625 1.544508 56.957114 C 1.544508 57.645854 2.595831 57.974068 3.042259 58.594784 C 3.490392 59.198494 4.076543 60.024981 4.505932 59.336242 C 4.937026 58.645801 5.729352 58.974016 6.228602 58.560772 C 6.727853 58.145828 6.916989 57.802308 7.382161 57.525112 C 7.864372 57.266622 8.845834 57.302334 8.966812 58.249564 C 9.086087 59.198494 9.483102 59.594731 8.639659 59.956957 C 7.796215 60.319183 6.434777 60.645697 6.245642 61.024929 C 6.039466 61.40416 6.073545 62.00787 5.814548 62.145618 C 5.557255 62.283366 4.781969 61.783392 4.505932 61.732374 C 4.2316 61.66265 3.473353 61.956853 3.11212 62.198336 C 2.733849 62.43812 1.510429 63.800293 1.527469 64.507739 C 1.544508 65.213485 2.09658 65.628429 2.474852 65.920931 C 2.853124 66.196426 3.371117 66.490629 3.12916 66.990602 C 3.02522 67.196374 2.646948 67.679342 2.198816 68.230333 L 20.003145 80.401464 L 37.446243 93.157599 L 37.480321 93.210317 C 38.032393 93.985787 38.771898 95.744198 37.584261 96.932911 C 36.843053 97.657363 36.602799 98.174343 36.636878 98.415827 C 36.636878 98.449838 36.653917 98.553574 36.843053 98.65731 C 37.050932 98.778052 37.308225 98.864783 37.533143 98.932806 C 37.996611 99.08756 38.514605 99.26102 38.72078 99.829018 C 39.305227 100.6402 47.243821 108.051376 52.616302 113.000096 C 52.633341 112.98309 52.633341 112.966085 52.633341 112.947378 C 52.960495 112.430398 53.374549 111.966137 53.648881 111.845395 C 53.855057 111.741659 54.217993 111.413445 54.596265 110.896465 C 54.906379 110.466216 55.233533 109.93223 55.49253 109.311514 C 55.955998 108.224836 56.818185 105.277712 57.196457 103.966556 C 57.317435 103.587324 57.385593 103.34584 57.402632 103.294823 C 57.43671 103.208092 57.712746 102.398611 57.884843 101.708171 C 57.971743 101.347646 58.0399 101.019432 58.022861 100.881684 C 58.005822 100.725229 57.884843 100.674212 57.746825 100.604487 C 57.574728 100.536464 57.385593 100.449734 57.230535 100.225256 C 57.179417 100.157232 57.145339 100.070502 57.1283 99.985472 C 57.092517 99.812012 57.1283 99.674264 57.230535 99.536516 C 57.317435 99.43278 57.43671 99.347751 57.574728 99.278026 C 57.799647 99.17429 58.091018 99.106267 58.401133 99.106267 C 58.694208 99.08756 58.677169 98.415827 58.677169 97.898847 C 58.677169 97.606345 58.677169 97.364861 58.728287 97.210107 C 58.798148 97.019641 58.900383 96.710134 59.07248 96.398925 C 59.24628 96.072412 59.486534 95.761204 59.813688 95.589444 C 60.036902 95.468702 60.347017 95.140488 60.623053 94.778262 C 60.984286 94.314001 61.2944 93.831033 61.31144 93.674578 C 61.328479 93.572543 61.362557 93.451801 61.39834 93.314053 C 61.483536 93.019851 61.621554 92.623613 61.536358 92.244381 C 61.500575 92.036909 61.466497 91.968885 61.449458 91.882155 C 61.381301 91.69339 61.31144 91.468912 61.139343 90.434952 C 61.122304 90.365228 61.122304 90.297204 61.122304 90.210474 C 61.088225 89.400993 61.570436 88.521787 62.224744 87.831347 C 62.862013 87.142608 63.688417 86.623927 64.325686 86.504886 C 64.393843 86.48618 64.480743 86.48618 64.5489 86.469174 C 65.06519 86.452168 65.479244 86.365438 65.789359 86.280408 C 66.18467 86.159666 66.424924 86.021918 66.528863 85.918182 C 66.649842 85.79744 66.907135 85.45222 67.079231 85.089994 C 67.166132 84.884223 67.234289 84.659745 67.183171 84.486284 C 67.062192 83.918287 67.597225 83.435319 68.026615 83.056087 C 68.164633 82.935345 68.268572 82.831609 68.336729 82.763585 C 68.457708 82.625838 68.525865 82.48809 68.525865 82.350342 C 68.508826 82.176881 68.423629 81.988116 68.21575 81.746632 C 67.958458 81.435424 67.820439 81.091904 67.769322 80.780696 C 67.7165 80.401464 67.8034 80.039238 67.975497 79.797754 C 68.026615 79.729731 68.079436 79.677012 68.164633 79.625995 C 68.353769 79.488247 68.646844 79.418523 68.956959 79.418523 C 69.267073 79.435529 69.577188 79.522259 69.834481 79.729731 C 69.93842 79.81476 70.025321 79.935502 70.110517 80.056244 C 70.214456 80.229705 70.386553 80.15998 70.609767 80.022232 C 70.730746 79.954209 70.851725 79.850473 70.971 79.763743 C 71.264075 79.539265 71.591229 79.280775 71.952462 79.160033 C 72.366516 79.022285 72.831688 78.850525 73.261077 78.592035 C 73.675131 78.350551 74.036364 78.039343 74.278322 77.643105 L 74.690672 76.954366 C 74.82869 76.712882 74.983747 76.454392 75.155844 76.16019 L 69.456209 67.111344 Z M 69.456209 66.971896 " stroke="rgb(100%, 100%, 100%)" stroke-width="0.5" stroke-opacity="1" stroke-miterlimit="10"/></svg>