<svg width="160" height="40" viewBox="0 0 160 40" fill="none" xmlns="http://www.w3.org/2000/svg">
<g clip-path="url(#clip0_174_25631)">
<path d="M134.496 26.2106C134.065 26.2122 133.64 26.2986 133.243 26.465C132.846 26.6313 132.486 26.8742 132.183 27.1799C131.88 27.4856 131.641 27.8479 131.478 28.2463C131.316 28.6447 131.233 29.0712 131.235 29.5015C131.233 29.9317 131.316 30.3582 131.478 30.7566C131.641 31.155 131.88 31.5174 132.183 31.823C132.486 32.1287 132.846 32.3716 133.243 32.538C133.64 32.7043 134.065 32.7907 134.496 32.7923C136.294 32.7923 137.756 31.3182 137.756 29.5015C137.758 29.0712 137.676 28.6447 137.513 28.2463C137.351 27.8479 137.111 27.4856 136.808 27.1799C136.506 26.8742 136.145 26.6313 135.749 26.465C135.352 26.2986 134.926 26.2122 134.496 26.2106ZM123.767 23.669C123.767 21.1795 121.66 19.164 119.06 19.164C116.46 19.164 114.353 21.1825 114.353 23.669C114.353 26.1555 116.463 28.171 119.063 28.171C121.663 28.171 123.767 26.1555 123.767 23.669ZM123.785 14.9128H128.978V32.4223H123.785V31.3029C122.271 32.348 120.475 32.907 118.635 32.9055C113.579 32.9055 109.481 28.7705 109.481 23.669C109.481 18.5676 113.579 14.4326 118.635 14.4326C120.546 14.4326 122.317 15.0229 123.785 16.0352V14.9128ZM82.215 17.1944V14.9158H76.8964V32.4223H82.2273V24.2471C82.2273 21.4884 85.1878 20.0081 87.2431 20.0081H87.3042V14.9158C85.1939 14.9158 83.2579 15.8272 82.215 17.1944ZM68.9659 23.669C68.9659 21.1795 66.8587 19.164 64.259 19.164C61.6593 19.164 59.5521 21.1825 59.5521 23.669C59.5521 26.1555 61.6624 28.171 64.2621 28.171C66.8617 28.171 68.9659 26.1555 68.9659 23.669ZM68.9843 14.9128H74.1805V32.4223H68.9843V31.3029C67.5162 32.3122 65.7454 32.9055 63.8339 32.9055C58.7783 32.9055 54.68 28.7705 54.68 23.669C54.68 18.5676 58.7783 14.4326 63.8339 14.4326C65.7454 14.4326 67.5162 15.0229 68.9843 16.0352V14.9128ZM100.251 14.4448C98.1769 14.4448 96.2134 15.0932 94.8983 16.8855V14.9158H89.7265V32.4223H94.9625V23.2225C94.9625 20.5617 96.7303 19.2557 98.862 19.2557C101.144 19.2557 102.459 20.632 102.459 23.1858V32.4223H107.646V21.2896C107.646 17.2158 104.434 14.4448 100.251 14.4448ZM47.1135 32.4223H52.5514V7.11379H47.1135V32.4223ZM23.2272 32.4284H28.9862V7.10767H23.2302L23.2272 32.4284ZM43.37 7.10767C43.37 12.5884 41.2535 17.6898 37.4794 21.4792L45.4375 32.4284H38.3266L29.6804 20.5311L31.9131 18.8428C33.7306 17.4759 35.2033 15.7027 36.2133 13.6651C37.2234 11.6275 37.7428 9.38186 37.7302 7.10767H43.3638H43.37Z" fill="white"/>
</g>
<defs>
<clipPath id="clip0_174_25631">
<rect width="114.531" height="25.8647" fill="white" transform="translate(23.2283 7.06763)"/>
</clipPath>
</defs>
</svg>
