<svg width="40" height="40" viewBox="0 0 40 40" fill="none" xmlns="http://www.w3.org/2000/svg">
<rect width="40" height="40" rx="20" fill="#FAF4EE" fill-opacity="0.16"/>
<path d="M24.0005 16.5C25.5919 16.5 27.118 17.1321 28.2432 18.2574C29.3684 19.3826 30.0006 20.9087 30.0006 22.5V29.5001H26.0006V22.5C26.0006 21.9696 25.7898 21.4609 25.4148 21.0858C25.0397 20.7107 24.531 20.5 24.0005 20.5C23.4701 20.5 22.9614 20.7107 22.5863 21.0858C22.2112 21.4609 22.0005 21.9696 22.0005 22.5V29.5001H18.0005V22.5C18.0005 20.9087 18.6326 19.3826 19.7579 18.2574C20.8831 17.1321 22.4092 16.5 24.0005 16.5V16.5Z" fill="white"/>
<path d="M14 17.5H10V29.5001H14V17.5Z" fill="white"/>
<path d="M12 14.5005C13.1046 14.5005 14 13.6051 14 12.5005C14 11.3959 13.1046 10.5005 12 10.5005C10.8954 10.5005 10 11.3959 10 12.5005C10 13.6051 10.8954 14.5005 12 14.5005Z" fill="white"/>
</svg>
