<svg width="152" height="20" viewBox="0 0 152 20" fill="none" xmlns="http://www.w3.org/2000/svg">
<g clip-path="url(#clip0_4_8903)">
<path d="M10.6189 13.7646V16.2979L0.259949 18.0924V20.6257L13.2086 18.3739C13.9115 18.2331 14.5775 17.8813 15.0214 17.3183C15.5024 16.7905 15.7614 16.0868 15.7983 15.3831V5.2146L10.6189 6.09423V13.7646Z" fill="black"/>
<path d="M2.84968 2.57604C2.14675 2.71678 1.48082 3.10382 1.03687 3.63159C0.592914 4.15937 0.296945 4.86307 0.259949 5.56678V15.7353L5.43941 14.8557V4.68715L15.7983 2.89271V0.359375L2.84968 2.57604Z" fill="black"/>
<path d="M26.2683 14.0461H29.4869C29.5609 16.1572 31.4477 17.4239 34.1855 17.4239C36.3312 17.4239 37.7371 16.3332 37.7371 14.7146C37.7371 12.4628 35.3693 12.0054 32.8906 11.372C30.0419 10.6683 26.9712 9.75352 26.8972 5.95353C26.8972 3.10353 29.5609 1.30908 33.7045 1.30908C37.6631 1.30908 40.3268 3.34982 40.4378 6.44612H37.3301C37.2191 4.54612 35.7393 3.45537 33.6305 3.45537C31.4847 3.45537 30.0789 4.44056 30.1159 5.88316C30.1529 7.85353 31.9287 8.45167 34.0745 8.97945C37.1452 9.71834 40.9558 10.3517 40.9558 14.5387C40.9558 17.5646 38.292 19.5702 34.1855 19.5702C29.376 19.6054 26.2683 17.3887 26.2683 14.0461Z" fill="black"/>
<path d="M42.6576 2.32963C42.6576 1.97778 42.7685 1.62593 42.9535 1.30926C43.1755 0.992593 43.4715 0.781478 43.8044 0.640738C44.1744 0.499997 44.5444 0.464816 44.9143 0.535186C45.2843 0.605557 45.6542 0.78148 45.9132 1.02778C46.1722 1.27407 46.3572 1.59074 46.4312 1.97778C46.5052 2.32963 46.4682 2.71666 46.3202 3.03333C46.1722 3.38518 45.9132 3.66667 45.6173 3.84259C45.2843 4.0537 44.9143 4.15926 44.5444 4.15926C44.2854 4.15926 44.0264 4.12408 43.8044 4.05371C43.5825 3.98333 43.3605 3.84259 43.1755 3.66667C42.9905 3.49074 42.8425 3.27963 42.7685 3.06852C42.6946 2.82222 42.6576 2.57592 42.6576 2.32963ZM43.0645 19.2185V6.9037H46.1352V19.2185H43.0645Z" fill="black"/>
<path d="M57.0121 13.0613C57.0121 9.19089 59.6758 6.552 63.4864 6.552C67.0381 6.552 69.4428 9.08534 69.4428 12.815V13.8002H60.1198C60.2678 16.052 61.5996 17.7409 63.6344 17.7409C64.2634 17.7761 64.8553 17.6002 65.3362 17.2131C65.8172 16.8613 66.1502 16.3335 66.2611 15.7705H69.2578C68.8139 18.0576 66.7421 19.6057 63.7084 19.6057C59.6388 19.6057 57.0121 16.9316 57.0121 13.0613ZM66.3721 12.0409C66.2982 9.92978 65.1513 8.41682 63.4494 8.41682C61.7476 8.41682 60.4157 9.92978 60.1568 12.0409H66.3721Z" fill="black"/>
<path d="M86.72 1.73145H91.3815V19.2537H88.3108V5.17959L82.6874 19.2537H80.6526L75.0292 5.21478V19.2537H71.9215V1.73145H76.5461L81.6515 14.8203L86.72 1.73145Z" fill="black"/>
<path d="M93.8603 2.32963C93.8603 1.97778 93.9713 1.62593 94.1563 1.30926C94.3782 0.992593 94.6742 0.781478 95.0072 0.640738C95.3771 0.499997 95.7471 0.464816 96.1171 0.535186C96.487 0.605557 96.82 0.78148 97.116 1.02778C97.3749 1.27407 97.5599 1.59074 97.6339 1.94259C97.7079 2.29445 97.6709 2.6463 97.5229 2.99815C97.3749 3.31482 97.116 3.63148 96.82 3.8074C96.487 4.01852 96.1171 4.12407 95.7471 4.12407C95.4881 4.12407 95.2292 4.08889 95.0072 4.01852C94.7852 3.94815 94.5632 3.8074 94.3782 3.63148C94.1933 3.45555 94.0453 3.24444 93.9713 3.03333C93.8973 2.82222 93.8603 2.57592 93.8603 2.32963ZM94.2673 19.2185V6.9037H97.3379V19.2185H94.2673Z" fill="black"/>
<path d="M99.8167 19.2184V6.90364H102.887V8.90919C103.331 8.1703 103.997 7.57215 104.774 7.14993C105.551 6.72771 106.439 6.5166 107.327 6.5166C110.065 6.5166 111.618 8.20549 111.618 11.9351V19.1833H108.548V11.8999C108.548 9.85919 107.771 8.48697 106.18 8.48697C104.145 8.48697 102.887 10.1407 102.887 12.8851V19.1833L99.8167 19.2184Z" fill="black"/>
<path d="M113.505 13.0259C113.505 9.08513 115.725 6.55179 119.055 6.55179C119.906 6.55179 120.757 6.79809 121.459 7.22032C122.199 7.64254 122.754 8.24069 123.161 8.97958V0.570312H126.232V19.2536H123.161V17.2129C122.791 17.9166 122.199 18.5499 121.459 18.9722C120.72 19.3944 119.906 19.6407 119.055 19.6407C115.688 19.5703 113.505 16.9666 113.505 13.0259ZM123.272 13.0611C123.272 10.2814 121.94 8.41661 119.906 8.41661C117.908 8.41661 116.613 10.2814 116.613 13.0611C116.613 15.8407 117.945 17.7407 119.906 17.7407C121.94 17.7407 123.272 15.8407 123.272 13.0611Z" fill="black"/>
<path d="M128.008 13.0613C128.008 9.19089 130.672 6.552 134.482 6.552C137.997 6.552 140.439 9.08534 140.439 12.815V13.8002H131.116C131.263 16.052 132.595 17.7409 134.63 17.7409C135.259 17.7761 135.851 17.6002 136.332 17.2131C136.813 16.8613 137.146 16.3335 137.257 15.7705H140.254C139.81 18.0576 137.738 19.6057 134.704 19.6057C130.635 19.6057 128.008 16.9316 128.008 13.0613ZM137.331 12.0409C137.257 9.92978 136.11 8.41682 134.408 8.41682C132.706 8.41682 131.374 9.92978 131.116 12.0409H137.331Z" fill="black"/>
<path d="M151.278 6.90381H148.245C147.69 6.90381 147.172 7.07973 146.691 7.32603C146.21 7.60751 145.84 7.99455 145.618 8.45196V6.90381H142.547V19.2186H145.618V9.5427H151.278V6.90381Z" fill="black"/>
<path d="M55.7912 9.12024V6.90357H53.9414C53.6085 6.86839 53.3125 6.97394 53.0535 7.14987C52.7945 7.32579 52.6096 7.57209 52.5356 7.88876V3.63135H49.4649V16.2628C49.5019 18.5499 50.7598 19.5702 53.2755 19.5702C54.0894 19.5702 54.9403 19.4295 55.7172 19.2184V16.9665C55.1993 17.1073 54.6444 17.2128 54.0894 17.2128C53.0535 17.2128 52.4986 16.861 52.4986 15.7351L52.5356 9.08505L55.7912 9.12024Z" fill="black"/>
</g>
<defs>
<clipPath id="clip0_4_8903">
<rect width="150.944" height="19" fill="white" transform="translate(0.259949 0.5)"/>
</clipPath>
</defs>
</svg>
