<svg width="115" height="26" viewBox="0 0 115 26" fill="none" xmlns="http://www.w3.org/2000/svg">
<g clip-path="url(#clip0_10_24311)">
<g clip-path="url(#clip1_10_24311)">
<path d="M111.268 19.1431C110.837 19.1447 110.412 19.2311 110.015 19.3974C109.618 19.5637 109.258 19.8067 108.955 20.1124C108.652 20.418 108.413 20.7804 108.25 21.1788C108.087 21.5771 108.005 22.0037 108.007 22.4339C108.005 22.8642 108.087 23.2907 108.25 23.6891C108.413 24.0874 108.652 24.4498 108.955 24.7555C109.258 25.0612 109.618 25.3041 110.015 25.4704C110.412 25.6367 110.837 25.7232 111.268 25.7248C113.066 25.7248 114.528 24.2506 114.528 22.4339C114.53 22.0037 114.448 21.5771 114.285 21.1788C114.123 20.7804 113.883 20.418 113.58 20.1124C113.277 19.8067 112.917 19.5637 112.52 19.3974C112.124 19.2311 111.698 19.1447 111.268 19.1431ZM100.539 16.6015C100.539 14.1119 98.4313 12.0964 95.8317 12.0964C93.232 12.0964 91.1247 14.115 91.1247 16.6015C91.1247 19.088 93.2351 21.1035 95.8347 21.1035C98.4344 21.1035 100.539 19.088 100.539 16.6015ZM100.557 7.84523H105.75V25.3547H100.557V24.2353C99.0428 25.2805 97.2463 25.8395 95.4065 25.8379C90.351 25.8379 86.2527 21.703 86.2527 16.6015C86.2527 11.5 90.351 7.36506 95.4065 7.36506C97.3181 7.36506 99.0889 7.95534 100.557 8.96768V7.84523ZM58.9868 10.1268V7.84829H53.6682V25.3547H58.999V17.1795C58.999 14.4208 61.9596 12.9406 64.0149 12.9406H64.076V7.84829C61.9657 7.84829 60.0297 8.7597 58.9868 10.1268ZM45.7377 16.6015C45.7377 14.1119 43.6305 12.0964 41.0308 12.0964C38.4311 12.0964 36.3239 14.115 36.3239 16.6015C36.3239 19.088 38.4342 21.1035 41.0339 21.1035C43.6335 21.1035 45.7377 19.088 45.7377 16.6015ZM45.7561 7.84523H50.9523V25.3547H45.7561V24.2353C44.288 25.2446 42.5172 25.8379 40.6057 25.8379C35.5501 25.8379 31.4518 21.703 31.4518 16.6015C31.4518 11.5 35.5501 7.36506 40.6057 7.36506C42.5172 7.36506 44.288 7.95534 45.7561 8.96768V7.84523ZM77.0223 7.37729C74.9487 7.37729 72.9852 8.02568 71.6701 9.81792V7.84829H66.4983V25.3547H71.7343V16.155C71.7343 13.4941 73.5021 12.1882 75.6338 12.1882C77.9154 12.1882 79.2305 13.5645 79.2305 16.1183V25.3547H84.4176V14.222C84.4176 10.1482 81.2063 7.37729 77.0223 7.37729ZM23.8853 25.3547H29.3231V0.0462499H23.8853V25.3547ZM-0.0010376 25.3608H5.75798V0.0401306H0.00202061L-0.0010376 25.3608ZM20.1417 0.0401306C20.1417 5.52083 18.0253 10.6223 14.2512 14.4117L22.2092 25.3608H15.0984L6.45224 13.4636L8.68489 11.7753C10.5024 10.4083 11.9751 8.63519 12.9851 6.59757C13.9952 4.55994 14.5146 2.31432 14.502 0.0401306H20.1356H20.1417Z" fill="black"/>
</g>
</g>
<defs>
<clipPath id="clip0_10_24311">
<rect width="114.531" height="25.8647" fill="white"/>
</clipPath>
<clipPath id="clip1_10_24311">
<rect width="114.531" height="25.8647" fill="white"/>
</clipPath>
</defs>
</svg>
