<svg xmlns="http://www.w3.org/2000/svg" xmlns:xlink="http://www.w3.org/1999/xlink" width="411" zoomAndPan="magnify" viewBox="0 0 308.25 467.999981" height="624" preserveAspectRatio="xMidYMid meet" version="1.0"><defs><clipPath id="id1"><path d="M 0 0.566406 L 307.5 0.566406 L 307.5 467.429688 L 0 467.429688 Z M 0 0.566406 " clip-rule="nonzero"/></clipPath></defs><g clip-path="url(#id1)"><path fill="rgb(100%, 100%, 100%)" d="M 0 0.566406 L 307.5 0.566406 L 307.5 467.433594 L 0 467.433594 Z M 0 0.566406 " fill-opacity="1" fill-rule="nonzero"/><path fill="rgb(100%, 100%, 100%)" d="M 0 0.566406 L 307.5 0.566406 L 307.5 467.433594 L 0 467.433594 Z M 0 0.566406 " fill-opacity="1" fill-rule="nonzero"/><path fill="rgb(100%, 100%, 100%)" d="M 0 0.566406 L 307.5 0.566406 L 307.5 467.433594 L 0 467.433594 Z M 0 0.566406 " fill-opacity="1" fill-rule="nonzero"/></g><path stroke-linecap="round" transform="matrix(2.745552, 0, 0, 2.746423, -0.000000000000063794, 12.983115)" fill-opacity="1" fill="rgb(17.248535%, 44.309998%, 94.119263%)" fill-rule="nonzero" stroke-linejoin="round" d="M 82.313539 71.73154 L 79.717009 72.062937 L 78.678397 72.516652 L 77.871695 73.36719 L 77.042228 75.170672 L 76.777596 76.198998 L 77.087756 77.116385 L 78.280026 77.956967 L 78.14771 79.659465 L 75.3961 84.381516 L 70.932915 82.346198 L 68.037607 79.615374 L 66.744322 78.100619 L 62.898613 77.127763 L 61.495775 77.183233 L 56.789299 78.498865 L 55.484632 78.156089 L 54.225493 77.547343 L 52.192375 76.198998 L 50.556206 75.844845 L 49.208856 75.866179 L 46.855618 76.994067 L 45.550951 78.587048 L 44.899329 80.953762 L 43.429622 82.899475 L 42.733894 84.435564 L 40.988173 86.404033 L 40.710735 87.675573 L 40.622524 90.760552 L 40.114601 93.127266 L 39.926797 95.515315 L 39.970902 97.815182 L 35.109346 99.396784 L 31.573797 101.12204 L 29.441086 101.719407 L 23.385838 101.91853 L 20.634228 102.824538 L 20.57874 102.33811 L 19.772038 101.043813 L 18.85436 100.978387 L 17.949488 101.275648 L 14.368411 100.059578 L 13.462116 99.329936 L 13.528985 98.832129 L 13.220247 95.792665 L 12.998297 94.764339 L 9.694658 88.196137 L 8.767021 86.813657 L 6.977195 85.707104 L 5.473342 85.453934 L 4.04774 84.757004 L 2.568074 82.27935 L 1.705884 79.537147 L 1.506698 76.938597 L 2.125597 74.849231 L 3.805872 73.721344 L 2.445717 72.461182 L 3.164209 70.51547 L 3.142868 69.253886 L 6.833496 69.630796 L 5.528829 67.650949 L 2.424376 65.274278 L 0.766865 64.466409 L 1.330277 62.398378 L 6.191833 53.918599 L 7.098129 51.41961 L 7.617435 50.280344 L 8.722916 48.82106 L 9.70604 48.145465 L 11.783264 47.659037 L 12.94281 46.565285 L 14.479386 43.557111 L 13.915975 42.352419 L 12.932851 41.136349 L 13.086508 38.116796 L 13.96008 36.944817 L 16.811283 35.684656 L 17.827131 34.60086 L 18.170015 32.864226 L 18.170015 30.808996 L 18.014934 28.275872 L 18.85436 26.916149 L 20.89886 25.125467 L 21.76105 23.875262 L 22.103935 22.383264 L 22.379949 18.821814 L 22.887873 17.429378 L 25.208388 15.305877 L 30.435593 12.730084 L 32.524198 10.539735 L 33.639639 7.38933 L 34.225814 4.381157 L 35.418084 2.357217 L 38.401603 2.037199 L 40.567037 0.300565 L 41.473332 1.2848 L 41.938574 3.385543 L 42.789382 4.999859 L 44.644655 5.907289 L 46.225337 6.127746 L 49.418001 5.619984 L 50.644417 4.856206 L 51.540753 3.88335 L 52.633429 3.739697 L 54.44602 5.497666 L 55.053537 7.521605 L 54.899879 9.589635 L 55.219999 11.324847 L 57.308605 12.26499 L 56.33544 15.438151 L 55.651094 18.457704 L 54.76614 24.616282 L 56.1704 24.737178 L 55.651094 25.456864 L 54.346427 28.011323 L 55.871621 28.895996 L 56.777917 30.698056 L 57.650066 35.265076 L 57.264499 37.697216 L 57.872016 39.466563 L 60.292124 43.181622 L 62.423412 49.328822 L 63.551657 51.230443 L 65.054088 48.223692 L 67.462813 52.149252 L 72.081079 63.317187 L 74.269277 65.550205 L 79.031241 67.685084 L 81.087123 69.010672 L 81.750127 70.205407 Z M 82.313539 71.73154 " stroke="rgb(100%, 100%, 100%)" stroke-width="0.5" stroke-opacity="1" stroke-miterlimit="4"/><path stroke-linecap="round" transform="matrix(2.745552, 0, 0, 2.746423, -0.000000000000063794, 12.983115)" fill-opacity="1" fill="rgb(17.248535%, 44.309998%, 94.119263%)" fill-rule="nonzero" stroke-linejoin="round" d="M 76.070486 149.773386 L 75.507075 146.169267 L 73.782695 138.815953 L 73.66176 135.886005 L 74.633503 134.04981 L 79.153598 129.637822 L 80.213551 129.084545 L 82.765975 128.521313 L 83.108859 127.194303 L 82.87695 126.154598 L 81.395861 124.618509 L 80.855214 123.833397 L 81.69464 122.362735 L 84.645435 119.907837 L 82.246669 115.396287 L 80.910701 109.668667 L 79.893431 108.385749 L 77.992629 107.081495 L 76.070486 106.539597 L 65.330102 106.26367 L 71.716853 96.057213 L 72.876399 94.984796 L 74.656267 93.84553 L 75.639391 94.023318 L 77.739379 93.933713 L 79.374125 88.836174 L 79.086728 88.196137 L 77.628404 86.879083 L 75.3961 84.380094 L 78.14771 79.659465 L 78.280026 77.956967 L 77.086334 77.116385 L 76.777596 76.198998 L 77.042228 75.170672 L 77.871695 73.36719 L 78.678397 72.516652 L 79.717009 72.062937 L 82.313539 71.73154 L 83.152965 73.975936 L 83.308045 74.705579 L 84.434868 74.80514 L 86.546237 73.522221 L 87.772653 73.556357 L 90.158614 75.071111 L 94.192127 78.929823 L 96.568129 80.455956 L 99.02096 81.130128 L 105.760555 81.130128 L 110.081464 82.413047 L 110.633493 82.44576 L 111.043247 83.529556 L 111.031865 85.364328 L 110.821297 85.507981 L 110.158293 90.24141 L 110.148334 91.788878 L 110.522518 92.751778 L 110.457072 93.602316 L 109.09834 94.797052 L 108.998747 96.742764 L 109.318867 98.523489 L 109.981871 100.082335 L 109.761344 100.95563 L 109.108299 101.275648 L 108.634521 102.33811 L 109.872319 103.91829 L 99.551648 110.641523 L 97.374832 113.705167 L 97.6167 114.423431 L 99.373804 115.882715 L 99.507543 117.320665 L 99.120553 118.293521 L 98.070559 119.863746 L 96.644958 122.805071 L 92.987053 127.337956 L 90.865724 130.677526 L 90.070403 133.065576 L 90.070403 139.932462 L 88.876711 149.011031 L 89.307806 155.556476 L 89.307806 157.159413 L 86.500709 156.860729 L 82.765975 154.805499 Z M 76.070486 149.773386 " stroke="rgb(100%, 100%, 100%)" stroke-width="0.5" stroke-opacity="1" stroke-miterlimit="4"/><path stroke-linecap="round" transform="matrix(2.745552, 0, 0, 2.746423, -0.000000000000063794, 12.983115)" fill-opacity="1" fill="rgb(17.248535%, 44.309998%, 94.119263%)" fill-rule="nonzero" stroke-linejoin="round" d="M 75.397522 84.381516 L 77.629826 86.880505 L 79.088151 88.196137 L 79.375548 88.837596 L 77.739379 93.935135 L 75.640814 94.023318 L 74.656267 93.846952 L 72.877822 94.986218 L 71.718276 96.058636 L 65.331525 106.26367 L 76.071909 106.54102 L 77.994052 107.081495 L 79.894854 108.387171 L 80.910701 109.670089 L 82.248092 115.39771 L 84.645435 119.909259 L 81.696063 122.364157 L 80.855214 123.833397 L 81.397284 124.618509 L 82.878373 126.156021 L 83.110282 127.195725 L 82.767398 128.521313 L 80.214974 129.085968 L 79.153598 129.639244 L 74.634925 134.051233 L 73.66176 135.887428 L 73.784117 138.817375 L 75.507075 146.170689 L 76.071909 149.774809 L 75.828618 149.587064 L 71.982908 148.049553 L 67.993501 147.618595 L 59.916516 148.514647 L 60.834194 150.504451 L 56.866128 150.879939 L 55.871621 151.278184 L 55.131788 152.593816 L 55.14317 153.987674 L 54.82305 155.148275 L 53.121434 155.801113 L 51.76128 157.880522 L 49.695438 158.642877 L 37.728639 159.372519 L 35.28719 160.190344 L 33.353665 153.997631 L 30.711607 151.323698 L 21.806579 149.188819 L 18.269608 147.519034 L 15.816777 145.207789 L 11.407656 139.313759 L 14.745441 137.710822 L 17.972252 134.250355 L 19.308219 130.866693 L 16.922258 129.551061 L 18.501517 128.047685 L 19.61838 125.880093 L 21.419589 120.870737 L 22.546412 119.555106 L 23.93929 118.24943 L 24.723228 116.359187 L 23.93929 113.274209 L 22.922019 112.412292 L 20.104963 112.090852 L 19.14318 111.362632 L 18.645215 109.758272 L 19.275496 108.287609 L 19.562893 105.677681 L 20.767967 103.996517 L 20.634228 102.824538 L 23.385838 101.91853 L 29.441086 101.719407 L 31.573797 101.12204 L 35.109346 99.398207 L 39.972325 97.816604 L 39.926797 95.516738 L 40.116023 93.128688 L 40.623947 90.761974 L 40.712158 87.676995 L 40.988173 86.405455 L 42.733894 84.436986 L 43.429622 82.899475 L 44.899329 80.953762 L 45.552373 78.587048 L 46.855618 76.995489 L 49.208856 75.867601 L 50.557628 75.844845 L 52.192375 76.198998 L 54.225493 77.548765 L 55.486055 78.156089 L 56.789299 78.498865 L 61.497198 77.183233 L 62.900035 77.127763 L 66.745744 78.100619 L 68.037607 79.615374 L 70.932915 82.347621 Z M 75.397522 84.381516 " stroke="rgb(100%, 100%, 100%)" stroke-width="0.5" stroke-opacity="1" stroke-miterlimit="4"/></svg>