<svg xmlns="http://www.w3.org/2000/svg" xmlns:xlink="http://www.w3.org/1999/xlink" width="411" zoomAndPan="magnify" viewBox="0 0 308.25 262.500001" height="350" preserveAspectRatio="xMidYMid meet" version="1.0"><defs><clipPath id="id1"><path d="M 0 0.0703125 L 307.5 0.0703125 L 307.5 261.933594 L 0 261.933594 Z M 0 0.0703125 " clip-rule="nonzero"/></clipPath><clipPath id="id2"><path d="M 94.3125 0.0703125 L 214 0.0703125 L 214 261.929688 L 94.3125 261.929688 Z M 94.3125 0.0703125 " clip-rule="nonzero"/></clipPath><clipPath id="id3"><path d="M 94.3125 0.0703125 L 214.230469 0.0703125 L 214.230469 261.929688 L 94.3125 261.929688 Z M 94.3125 0.0703125 " clip-rule="nonzero"/></clipPath></defs><g clip-path="url(#id1)"><path fill="rgb(100%, 100%, 100%)" d="M 0 0.0703125 L 307.5 0.0703125 L 307.5 261.933594 L 0 261.933594 Z M 0 0.0703125 " fill-opacity="1" fill-rule="nonzero"/><path fill="rgb(100%, 100%, 100%)" d="M 0 0.0703125 L 307.5 0.0703125 L 307.5 261.933594 L 0 261.933594 Z M 0 0.0703125 " fill-opacity="1" fill-rule="nonzero"/><path fill="rgb(100%, 100%, 100%)" d="M 0 0.0703125 L 307.5 0.0703125 L 307.5 261.933594 L 0 261.933594 Z M 0 0.0703125 " fill-opacity="1" fill-rule="nonzero"/></g><g clip-path="url(#id2)"><path fill="rgb(17.248535%, 44.309998%, 94.119263%)" d="M 106.207031 251.988281 C 103.972656 250.398438 103.820312 249.683594 103.820312 247.425781 C 103.820312 245.121094 104.277344 244.558594 102.550781 242.046875 C 100.820312 239.585938 99.601562 237.332031 99.753906 235.078125 C 99.90625 232.773438 99.5 225.238281 100.566406 223.804688 C 101.636719 222.371094 102.296875 221.242188 101.585938 219.601562 C 100.871094 217.960938 100.566406 218.269531 100.464844 216.066406 C 100.363281 213.863281 97.621094 211.25 97.367188 210.632812 C 97.113281 210.019531 93.910156 201.972656 94.570312 199.308594 C 95.234375 196.644531 95.589844 194.183594 95.539062 194.03125 C 95.539062 193.878906 95.285156 189.878906 97.011719 187.625 C 98.738281 185.371094 98.789062 184.347656 98.789062 183.476562 C 98.839844 182.605469 99.347656 179.785156 100.058594 178.964844 C 100.820312 178.144531 103.058594 179.015625 103.617188 178.09375 C 104.175781 177.222656 105.75 173.585938 105.800781 172.097656 C 105.902344 170.613281 109.410156 165.589844 110.171875 163.949219 C 110.933594 162.3125 113.21875 157.546875 114.59375 156.058594 C 115.964844 154.574219 116.269531 152.320312 116.371094 151.601562 C 116.472656 150.933594 115.507812 150.011719 115 147.808594 C 114.492188 145.605469 115.8125 144.835938 116.371094 143.605469 C 116.929688 142.375 116.269531 140.328125 115.355469 139.148438 C 114.390625 137.96875 113.371094 136.636719 113.371094 135.613281 C 113.371094 134.585938 114.183594 129.820312 113.828125 128.4375 C 113.421875 127.054688 112.710938 125.722656 111.136719 123.417969 C 109.511719 121.109375 110.222656 119.0625 111.085938 117.472656 C 111.949219 115.882812 111.746094 111.066406 111.390625 109.425781 C 111.035156 107.785156 110.628906 108.300781 109.917969 105.328125 C 109.257812 102.355469 111.238281 101.277344 112.863281 98.152344 C 114.542969 95.027344 115.457031 93.644531 116.371094 92.054688 C 117.285156 90.464844 118.605469 86.777344 118.859375 86.214844 C 119.113281 85.648438 119.519531 85.804688 119.621094 84.828125 C 119.722656 83.90625 119.722656 83.445312 119.214844 82.625 C 118.757812 81.804688 118.554688 81.292969 118.707031 80.0625 C 118.910156 78.835938 119.164062 77.707031 120.433594 77.960938 C 121.65625 78.167969 122.976562 78.78125 123.28125 79.039062 C 123.636719 79.296875 125.3125 79.089844 126.074219 78.269531 C 126.835938 77.449219 127.753906 75.863281 128.464844 74.992188 C 129.175781 74.121094 132.476562 71.148438 132.171875 74.015625 C 131.867188 76.835938 132.78125 77.808594 133.695312 75.8125 C 134.613281 73.8125 136.1875 73.660156 136.542969 74.785156 C 136.847656 75.914062 137.964844 76.734375 137.964844 74.425781 C 137.914062 72.121094 137.8125 71.914062 138.574219 71.300781 C 139.335938 70.6875 142.335938 70.636719 142.742188 71.453125 C 143.148438 72.273438 144.113281 72.070312 144.621094 71.351562 C 145.128906 70.6875 145.230469 69.609375 145.636719 69.355469 C 146.042969 69.148438 146.652344 70.839844 146.753906 71.761719 C 146.804688 72.683594 147.671875 73.605469 148.179688 73.8125 C 148.738281 74.015625 149.296875 73.25 150.007812 73.25 C 150.667969 73.25 151.226562 72.632812 150.820312 72.019531 C 150.414062 71.351562 150.109375 72.121094 149.652344 71.148438 C 149.195312 70.171875 148.585938 69.816406 148.789062 68.429688 C 148.992188 67.046875 149.90625 66.125 150.921875 65.40625 C 151.988281 64.691406 155.242188 61.667969 155.546875 61.460938 C 155.851562 61.257812 160.167969 58.335938 159.8125 60.128906 C 159.40625 61.921875 158.695312 62.589844 158.085938 63.664062 C 157.476562 64.742188 158.898438 66.585938 159.710938 65.460938 C 160.523438 64.332031 160.324219 64.332031 161.644531 64.074219 C 162.964844 63.871094 163.371094 63.410156 163.269531 62.28125 C 163.167969 61.15625 162.558594 60.640625 162.101562 59.875 C 161.644531 59.15625 161.339844 59.359375 161.492188 58.183594 C 161.644531 57.003906 162.304688 56.441406 163.574219 55.464844 C 164.84375 54.492188 166.46875 52.496094 166.265625 54.238281 C 166.0625 55.980469 166.316406 57.105469 166.925781 56.335938 C 167.539062 55.570312 167.945312 55.621094 168.910156 53.878906 C 169.875 52.136719 170.890625 51.417969 171.296875 50.496094 C 171.703125 49.574219 171.957031 47.675781 172.921875 48.292969 C 173.890625 48.90625 174.144531 49.367188 174.855469 49.777344 C 175.566406 50.1875 177.089844 49.472656 176.175781 47.882812 C 175.3125 46.292969 174.804688 46.089844 173.992188 45.679688 C 173.175781 45.269531 172.3125 45.21875 171.90625 44.910156 C 171.5 44.601562 171.652344 42.089844 171.804688 41.683594 C 171.957031 41.273438 173.125 39.121094 173.941406 39.632812 C 174.753906 40.195312 174.398438 41.476562 175.363281 41.628906 C 176.328125 41.785156 176.988281 41.21875 176.53125 40.296875 C 176.074219 39.375 175.058594 39.632812 175.769531 38.453125 C 176.429688 37.273438 176.429688 36.351562 176.378906 35.277344 C 176.328125 34.199219 176.683594 33.636719 176.125 33.023438 C 175.515625 32.355469 173.839844 29.691406 174.652344 27.847656 C 175.464844 26 178.714844 25.746094 178.816406 27.691406 C 178.917969 29.640625 180.953125 32.765625 181.511719 30.613281 C 182.070312 28.410156 182.171875 26.308594 183.289062 26.105469 C 184.40625 25.847656 185.117188 25.796875 185.21875 24.925781 C 185.320312 24.054688 185.371094 23.796875 186.488281 23.796875 C 187.558594 23.796875 189.285156 22.925781 189.4375 21.953125 C 189.589844 20.980469 189.234375 18.570312 190.554688 16.980469 C 191.875 15.394531 191.875 14.882812 192.332031 13.292969 C 192.789062 11.703125 191.875 11.140625 191.367188 9.296875 C 190.859375 7.449219 190.859375 6.375 189.894531 5.605469 C 188.929688 4.835938 189.488281 5.246094 191.519531 4.375 C 193.554688 3.503906 192.636719 3.453125 193.554688 2.070312 C 194.519531 0.6875 194.925781 -0.695312 197.414062 1.199219 C 199.855469 3.144531 200.160156 2.992188 200.71875 4.425781 C 201.277344 5.863281 201.683594 7.808594 201.886719 8.78125 C 202.089844 9.707031 203.257812 11.140625 203.714844 11.550781 C 204.171875 11.960938 205.59375 13.035156 206.460938 15.957031 C 207.324219 18.878906 206.511719 20.773438 207.273438 22.210938 C 208.035156 23.644531 209.660156 29.433594 209.710938 33.789062 C 209.761719 38.144531 209.660156 41.375 209.914062 45.472656 C 210.167969 49.574219 209.710938 49.726562 211.742188 53.777344 C 213.726562 57.875 214.03125 58.132812 213.878906 60.898438 C 213.726562 63.613281 211.488281 69.148438 210.625 70.839844 C 209.8125 72.53125 208.59375 75.042969 207.375 72.019531 C 206.15625 68.996094 205.644531 67.765625 205.695312 65.40625 C 205.796875 63.050781 205.441406 61.207031 203.003906 62.847656 C 200.515625 64.484375 200.109375 64.589844 200.769531 67.046875 C 201.429688 69.507812 201.175781 69.96875 201.429688 71.402344 C 201.683594 72.890625 200.820312 73.195312 200.464844 73.863281 C 200.160156 74.53125 199.703125 75.757812 200.71875 76.683594 C 201.734375 77.605469 203.105469 78.9375 203.105469 80.832031 C 203.105469 82.78125 202.496094 85.445312 201.328125 87.441406 C 200.160156 89.390625 200.769531 89.953125 200.667969 90.773438 C 200.566406 91.59375 198.9375 92.414062 198.074219 92.875 C 197.210938 93.386719 197.058594 95.285156 196.90625 96.308594 C 196.753906 97.332031 195.230469 99.28125 195.839844 103.125 C 196.5 106.96875 196.398438 107.480469 196.398438 108.863281 C 196.347656 110.246094 194.113281 119.574219 192.636719 123.722656 C 191.164062 127.824219 186.640625 141.042969 186.640625 141.042969 L 168.910156 194.339844 C 168.910156 194.339844 165.808594 203.871094 164.84375 209.351562 C 163.878906 214.835938 165.097656 214.222656 163.574219 217.039062 C 162.101562 219.859375 160.882812 221.035156 161.136719 222.726562 C 161.390625 224.417969 161.492188 226.878906 160.882812 227.75 C 160.269531 228.621094 156.664062 233.898438 155.851562 236.972656 C 155.039062 240.046875 154.582031 243.226562 154.023438 244.867188 C 153.410156 246.503906 150.261719 250.808594 147.925781 251.988281 C 145.535156 253.167969 144.113281 253.269531 143.707031 253.730469 C 143.300781 254.191406 142.183594 253.117188 139.945312 253.730469 C 137.710938 254.292969 136.238281 254.808594 135.375 255.882812 C 134.511719 256.90625 132.984375 256.652344 130.699219 258.90625 C 128.414062 261.160156 127.445312 262.136719 125.007812 261.777344 C 122.519531 261.417969 121.503906 262.082031 120.890625 260.546875 C 120.230469 258.957031 118.351562 258.546875 117.742188 257.933594 C 117.132812 257.316406 114.234375 255.78125 113.015625 255.730469 C 110.171875 255.679688 108.597656 253.628906 106.207031 251.988281 Z M 106.207031 251.988281 " fill-opacity="1" fill-rule="evenodd"/></g><g clip-path="url(#id3)"><path stroke-linecap="butt" transform="matrix(4.282683, 0, 0, 4.292761, 91.50481, 0.0714024)" fill="none" stroke-linejoin="round" d="M 3.432947 58.684113 C 2.911223 58.313758 2.875651 58.147235 2.875651 57.621277 C 2.875651 57.084399 2.982368 56.953365 2.579218 56.368259 C 2.175156 55.794983 1.89058 55.269935 1.926152 54.744887 C 1.961724 54.208009 1.866865 52.452692 2.115869 52.118736 C 2.365786 51.78478 2.519931 51.521801 2.353928 51.139617 C 2.187013 50.757433 2.115869 50.82932 2.092154 50.316101 C 2.06844 49.802882 1.428143 49.194118 1.368856 49.050344 C 1.30957 48.90748 0.561645 47.032958 0.71579 46.412364 C 0.870848 45.791769 0.953849 45.218493 0.941992 45.183005 C 0.941992 45.147516 0.882705 44.215715 1.285855 43.690667 C 1.689005 43.165619 1.700862 42.927209 1.700862 42.724287 C 1.712719 42.521366 1.831293 41.864373 1.997296 41.673281 C 2.175156 41.482189 2.697791 41.68511 2.828222 41.470359 C 2.958653 41.267438 3.326231 40.420263 3.338088 40.073568 C 3.361803 39.727782 4.180871 38.557571 4.358732 38.175387 C 4.536592 37.794112 5.070172 36.683959 5.391233 36.337263 C 5.711381 35.991478 5.782525 35.466429 5.80624 35.298996 C 5.829955 35.143393 5.604665 34.928642 5.486092 34.415423 C 5.367518 33.902205 5.675809 33.722942 5.80624 33.436304 C 5.936671 33.149666 5.782525 32.672846 5.569093 32.398037 C 5.343803 32.123229 5.105744 31.812932 5.105744 31.574521 C 5.105744 31.335201 5.295462 30.225048 5.212461 29.902921 C 5.117602 29.580794 4.951599 29.270497 4.584021 28.73362 C 4.204586 28.195832 4.370589 27.719012 4.572164 27.348657 C 4.773739 26.978303 4.726309 25.85632 4.643308 25.474135 C 4.560307 25.091951 4.465448 25.212066 4.299445 24.519585 C 4.145299 23.827104 4.607736 23.575954 4.987171 22.847985 C 5.379375 22.120015 5.592808 21.797889 5.80624 21.427534 C 6.019672 21.057179 6.327963 20.198175 6.38725 20.067141 C 6.446537 19.935196 6.541395 19.971595 6.56511 19.744104 C 6.588825 19.529353 6.588825 19.421977 6.470251 19.230885 C 6.363535 19.039793 6.316106 18.920588 6.351678 18.63395 C 6.399107 18.348222 6.458394 18.085243 6.754828 18.144391 C 7.040316 18.192619 7.348607 18.335483 7.419751 18.39554 C 7.502752 18.455598 7.894045 18.40737 8.071905 18.216278 C 8.249765 18.025186 8.464109 17.655741 8.630112 17.452819 C 8.796115 17.249898 9.566843 16.557417 9.495699 17.225329 C 9.424554 17.882322 9.637987 18.108902 9.851419 17.643911 C 10.065763 17.178011 10.433341 17.142522 10.516342 17.404591 C 10.587486 17.66757 10.848348 17.858663 10.848348 17.320875 C 10.836491 16.783997 10.812776 16.735769 10.990636 16.592905 C 11.168496 16.450041 11.868992 16.438212 11.963851 16.628394 C 12.058709 16.819486 12.283999 16.772168 12.402572 16.604735 C 12.521146 16.450041 12.544861 16.198892 12.639719 16.139744 C 12.734578 16.091516 12.876866 16.48553 12.900581 16.700281 C 12.912438 16.915032 13.114925 17.129783 13.233499 17.178011 C 13.363929 17.225329 13.49436 17.046976 13.660363 17.046976 C 13.814509 17.046976 13.944939 16.903202 13.850081 16.760338 C 13.755222 16.604735 13.684078 16.783997 13.577362 16.557417 C 13.470646 16.329926 13.328357 16.24712 13.375787 15.924083 C 13.423216 15.601956 13.636648 15.387205 13.873795 15.219772 C 14.1228 15.053249 14.882582 14.348939 14.953726 14.300711 C 15.02487 14.253393 16.032744 13.572741 15.949743 13.990414 C 15.854884 14.408086 15.688881 14.56369 15.546593 14.813929 C 15.404305 15.065079 15.736311 15.494581 15.926028 15.232512 C 16.115746 14.969533 16.069228 14.969533 16.377519 14.909475 C 16.68581 14.862157 16.780669 14.754782 16.756954 14.491803 C 16.73324 14.229734 16.590952 14.109619 16.484235 13.931266 C 16.377519 13.763833 16.306375 13.811151 16.341947 13.537252 C 16.377519 13.262444 16.531665 13.131409 16.828099 12.903919 C 17.124532 12.677338 17.503967 12.212348 17.456538 12.618191 C 17.409108 13.024034 17.468395 13.286103 17.610683 13.10684 C 17.753884 12.928488 17.848742 12.940317 18.074032 12.534474 C 18.299321 12.128631 18.536468 11.961198 18.631327 11.746447 C 18.726186 11.531696 18.785473 11.089454 19.010762 11.233228 C 19.236964 11.376092 19.296251 11.483468 19.462253 11.579014 C 19.628256 11.67456 19.983977 11.508037 19.770544 11.137682 C 19.56897 10.767328 19.450396 10.72001 19.260679 10.624464 C 19.070049 10.528918 18.868474 10.517088 18.773615 10.445201 C 18.678757 10.373314 18.714329 9.788209 18.749901 9.693572 C 18.785473 9.598026 19.058192 9.096637 19.248821 9.215842 C 19.438539 9.346877 19.355537 9.645345 19.580827 9.680833 C 19.806116 9.717232 19.960262 9.585287 19.853546 9.370536 C 19.74683 9.155785 19.509683 9.215842 19.675686 8.941034 C 19.829831 8.666225 19.829831 8.451474 19.817974 8.201235 C 19.806116 7.950085 19.889118 7.819051 19.758687 7.676186 C 19.616399 7.520583 19.225106 6.899989 19.414824 6.470487 C 19.604542 6.040075 20.363412 5.980927 20.387126 6.434088 C 20.410841 6.888159 20.886047 7.616129 21.016478 7.11474 C 21.146909 6.601521 21.170623 6.111962 21.431485 6.064644 C 21.692346 6.004586 21.858349 5.992757 21.882064 5.789835 C 21.905779 5.586913 21.917636 5.526856 22.178498 5.526856 C 22.428414 5.526856 22.831564 5.323934 22.867136 5.097354 C 22.902708 4.870773 22.819706 4.309327 23.127997 3.938972 C 23.436288 3.569527 23.436288 3.450322 23.543004 3.079968 C 23.649721 2.709613 23.436288 2.578579 23.317715 2.149077 C 23.199141 1.718665 23.199141 1.468425 22.973852 1.289162 C 22.748562 1.1099 22.878993 1.205446 23.353287 1.002524 C 23.828493 0.799603 23.614148 0.787773 23.828493 0.465647 C 24.053782 0.14352 24.148641 -0.178606 24.729651 0.262725 C 25.299716 0.715886 25.37086 0.680398 25.501291 1.014354 C 25.631721 1.34922 25.72658 1.802381 25.77401 2.028962 C 25.821439 2.244623 26.094158 2.578579 26.200874 2.674125 C 26.30759 2.769671 26.639596 3.01991 26.842083 3.700562 C 27.043658 4.381214 26.85394 4.822545 27.0318 5.157411 C 27.20966 5.491367 27.589096 6.839931 27.600953 7.854539 C 27.61281 8.869147 27.589096 9.621685 27.648382 10.576236 C 27.707669 11.531696 27.600953 11.567184 28.075247 12.510815 C 28.538595 13.465365 28.609739 13.525423 28.574167 14.169676 C 28.538595 14.8021 28.01596 16.091516 27.814385 16.48553 C 27.624668 16.879543 27.340091 17.464649 27.055515 16.760338 C 26.770939 16.056028 26.651453 15.76939 26.66331 15.219772 C 26.687025 14.671065 26.604024 14.241563 26.034871 14.623747 C 25.453861 15.005021 25.359002 15.02959 25.513148 15.601956 C 25.667293 16.175233 25.608007 16.282608 25.667293 16.616564 C 25.72658 16.96326 25.525005 17.034237 25.442004 17.18984 C 25.37086 17.345444 25.264144 17.631172 25.501291 17.846833 C 25.738438 18.061584 26.058586 18.371881 26.058586 18.813213 C 26.058586 19.267284 25.916298 19.887878 25.643579 20.352869 C 25.37086 20.80694 25.513148 20.937974 25.489433 21.129066 C 25.465719 21.320158 25.085371 21.51125 24.883797 21.618626 C 24.682222 21.737831 24.64665 22.180073 24.611078 22.418483 C 24.575506 22.656893 24.219785 23.110964 24.362073 24.006367 C 24.516219 24.901769 24.492504 25.020974 24.492504 25.343101 C 24.480647 25.665227 23.958924 27.838217 23.614148 28.804597 C 23.270285 29.760057 22.21407 32.839369 22.21407 32.839369 L 18.074032 45.254892 C 18.074032 45.254892 17.349822 47.475199 17.124532 48.751876 C 16.899243 50.029463 17.183819 49.886599 16.828099 50.542682 C 16.484235 51.199674 16.199659 51.473573 16.258946 51.867587 C 16.318233 52.2616 16.341947 52.834876 16.199659 53.037798 C 16.056459 53.240719 15.214587 54.470078 15.02487 55.186218 C 14.835152 55.902359 14.728436 56.643068 14.598005 57.025252 C 14.454805 57.406526 13.71965 58.409304 13.174212 58.684113 C 12.616005 58.958921 12.283999 58.98258 12.18914 59.089956 C 12.094281 59.197331 11.83342 58.947092 11.310784 59.089956 C 10.789061 59.22099 10.445198 59.341105 10.243623 59.591345 C 10.042049 59.829755 9.685416 59.770607 9.151836 60.295656 C 8.618255 60.820704 8.392053 61.048194 7.822901 60.964478 C 7.241891 60.880761 7.004744 61.035455 6.861544 60.67784 C 6.707398 60.307485 6.268676 60.211939 6.126388 60.069075 C 5.9841 59.925301 5.307319 59.567686 5.022743 59.555856 C 4.358732 59.544027 3.991154 59.066297 3.432947 58.684113 Z M 3.432947 58.684113 " stroke="rgb(100%, 100%, 100%)" stroke-width="0.5" stroke-opacity="1" stroke-miterlimit="10"/></g></svg>