<svg fill="none" height="112" viewBox="0 0 112 112" width="112" xmlns="http://www.w3.org/2000/svg"><circle cx="56.2353" cy="56.2353" fill="#fbe62e" r="51.7353" stroke="#06122c"/><path d="m101 84h-91v-57.1566c0-2.1413 1.6742-3.8434 3.7804-3.8434h83.3852c2.1062 0 3.7804 1.7021 3.7804 3.8434v57.1566z" fill="#00ac6b" stroke="#01090f" stroke-linecap="round" stroke-linejoin="round"/><path d="m14 84v-54.0615c0-1.077.8779-1.9385 1.9752-1.9385h80.0496c1.0973 0 1.9752.8615 1.9752 1.9385v54.0615z" fill="#ebf5fe" stroke="#01090f" stroke-linecap="round" stroke-linejoin="round"/><path d="m55.5144 25.611c.3304 0 .5983-.2679.5983-.5983 0-.3305-.2679-.5984-.5983-.5984-.3305 0-.5984.2679-.5984.5984 0 .3304.2679.5983.5984.5983z" fill="#01090f"/><g stroke="#01090f"><path d="m3.03232 84h105.88668c.589 0 1.081.7527 1.081 1.6559 0 2.9355-1.573 5.3441-3.49 5.3441h-101.01978c-1.91716 0-3.49022-2.4086-3.49022-5.3441 0-.9032.49158-1.6559 1.03232-1.6559z" fill="#00ac6b" stroke-linecap="round" stroke-linejoin="round"/><path d="m57 32h-38v23h38z" fill="#9bcdfb" stroke-miterlimit="10"/><path d="m93 32h-37v23h37z" fill="#fff" stroke-miterlimit="10"/><path d="m57 55h-38v24h38z" fill="#fff" stroke-miterlimit="10"/><path d="m93 55h-37v24h37z" fill="#ffc664" stroke-linecap="round" stroke-linejoin="round"/><path d="m37.9988 71.9585c3.0261 0 5.4793-2.4531 5.4793-5.4792s-2.4532-5.4793-5.4793-5.4793-5.4793 2.4532-5.4793 5.4793 2.4532 5.4792 5.4793 5.4792z" fill="#bd80ff" stroke-linecap="round" stroke-linejoin="round"/><path d="m47.9965 78.8499h-19.9965c0-2.5984 2.09-4.7449 4.7449-4.7449h10.5631c2.5985 0 4.6885 2.09 4.6885 4.7449z" fill="#bd80ff" stroke-linecap="round" stroke-linejoin="round"/><path d="m37.9324 48.2056c3.0261 0 5.4792-2.4532 5.4792-5.4793s-2.4531-5.4792-5.4792-5.4792-5.4793 2.4531-5.4793 5.4792 2.4532 5.4793 5.4793 5.4793z" fill="#fff" stroke-miterlimit="10"/><path d="m47.9301 55.0407h-19.9965c0-2.5984 2.09-4.7449 4.7449-4.7449h10.5631c2.5985 0 4.6885 2.1465 4.6885 4.7449z" fill="#fff" stroke-miterlimit="10"/><path d="m75.323 48.2051c3.0261 0 5.4793-2.4532 5.4793-5.4793s-2.4532-5.4792-5.4793-5.4792-5.4792 2.4531-5.4792 5.4792 2.4531 5.4793 5.4792 5.4793z" fill="#7fdfb3" stroke-linecap="round" stroke-linejoin="round"/><path d="m85.3207 55.0402h-19.9965c0-2.5984 2.09-4.7449 4.7449-4.7449h10.5632c2.5984 0 4.6884 2.1465 4.6884 4.7449z" fill="#7fdfb3" stroke-linecap="round" stroke-linejoin="round"/><path d="m74.9988 71.9585c3.0261 0 5.4793-2.4531 5.4793-5.4792s-2.4532-5.4793-5.4793-5.4793-5.4793 2.4532-5.4793 5.4793 2.4532 5.4792 5.4793 5.4792z" fill="#fff" stroke-miterlimit="10"/><path d="m84.9965 78.8499h-19.9965c0-2.5984 2.09-4.7449 4.7449-4.7449h10.5631c2.5985 0 4.6885 2.09 4.6885 4.7449z" fill="#fff" stroke-miterlimit="10"/><path d="m55.5163 25.611c.3305 0 .5984-.2679.5984-.5983 0-.3305-.2679-.5984-.5984-.5984-.3304 0-.5983.2679-.5983.5984 0 .3304.2679.5983.5983.5983z" stroke-miterlimit="10"/><path d="m61.9283 86.7529h-13.8082c-1.5294 0-2.7529-1.2235-2.7529-2.7529h19.2703c0 1.5294-1.2235 2.7529-2.7092 2.7529z" fill="#01090f" stroke-miterlimit="10"/></g></svg>