<svg xmlns="http://www.w3.org/2000/svg" xmlns:xlink="http://www.w3.org/1999/xlink" width="411" zoomAndPan="magnify" viewBox="0 0 308.25 262.500001" height="350" preserveAspectRatio="xMidYMid meet" version="1.0"><defs><clipPath id="id1"><path d="M 0 0.0703125 L 307.5 0.0703125 L 307.5 261.933594 L 0 261.933594 Z M 0 0.0703125 " clip-rule="nonzero"/></clipPath><clipPath id="id2"><path d="M 51.546875 5 L 257.710938 5 L 257.710938 261 L 51.546875 261 Z M 51.546875 5 " clip-rule="nonzero"/></clipPath><clipPath id="id3"><path d="M 51.546875 4.976562 L 257.710938 4.976562 L 257.710938 261.257812 L 51.546875 261.257812 Z M 51.546875 4.976562 " clip-rule="nonzero"/></clipPath></defs><g clip-path="url(#id1)"><path fill="rgb(100%, 100%, 100%)" d="M 0 0.0703125 L 307.5 0.0703125 L 307.5 261.933594 L 0 261.933594 Z M 0 0.0703125 " fill-opacity="1" fill-rule="nonzero"/><path fill="rgb(100%, 100%, 100%)" d="M 0 0.0703125 L 307.5 0.0703125 L 307.5 261.933594 L 0 261.933594 Z M 0 0.0703125 " fill-opacity="1" fill-rule="nonzero"/><path fill="rgb(100%, 100%, 100%)" d="M 0 0.0703125 L 307.5 0.0703125 L 307.5 261.933594 L 0 261.933594 Z M 0 0.0703125 " fill-opacity="1" fill-rule="nonzero"/></g><g clip-path="url(#id2)"><path fill="rgb(17.248535%, 44.309998%, 94.119263%)" d="M 93 179.753906 C 113.832031 134.609375 124.96875 122.542969 131.929688 80.589844 C 138.945312 38.425781 127.753906 -6.714844 181.945312 8.382812 C 236.136719 23.324219 245.882812 47.464844 255.519531 93.988281 C 265.425781 140.460938 234.742188 209.632812 225.050781 220.214844 C 215.304688 230.796875 158.328125 260.835938 127.699219 260.835938 C 97.175781 260.835938 44.164062 251.90625 52.570312 233.773438 C 61.03125 215.695312 93 179.753906 93 179.753906 Z M 93 179.753906 " fill-opacity="1" fill-rule="evenodd"/></g><g clip-path="url(#id3)"><path stroke-linecap="butt" transform="matrix(5.571969, 0, 0, 5.571354, 47.891449, 0.0738583)" fill="none" stroke-linejoin="round" d="M 8.095621 32.250699 C 11.834341 24.147725 13.833046 21.981931 15.082324 14.451782 C 16.341416 6.883771 14.332897 -1.218501 24.058617 1.491371 C 33.784336 4.173198 35.533465 8.506189 37.262965 16.856662 C 39.040837 25.19802 33.53406 37.613652 31.794745 39.513016 C 30.045616 41.412381 19.820045 46.80408 14.323082 46.80408 C 8.845048 46.80408 -0.668953 45.201294 0.839715 41.946643 C 2.358197 38.701807 8.095621 32.250699 8.095621 32.250699 Z M 8.095621 32.250699 " stroke="rgb(100%, 100%, 100%)" stroke-width="0.5" stroke-opacity="1" stroke-miterlimit="10"/></g></svg>