<svg xmlns="http://www.w3.org/2000/svg" xmlns:xlink="http://www.w3.org/1999/xlink" width="624" zoomAndPan="magnify" viewBox="0 0 468 308.250004" height="411" preserveAspectRatio="xMidYMid meet" version="1.0"><defs><clipPath id="id1"><path d="M 0.566406 0 L 467.429688 0 L 467.429688 307.5 L 0.566406 307.5 Z M 0.566406 0 " clip-rule="nonzero"/></clipPath><clipPath id="id2"><path d="M 0.566406 6.773438 L 97 6.773438 L 97 99 L 0.566406 99 Z M 0.566406 6.773438 " clip-rule="nonzero"/></clipPath><clipPath id="id3"><path d="M 348 238 L 420 238 L 420 300.808594 L 348 300.808594 Z M 348 238 " clip-rule="nonzero"/></clipPath><clipPath id="id4"><path d="M 417 182 L 467.429688 182 L 467.429688 257 L 417 257 Z M 417 182 " clip-rule="nonzero"/></clipPath><clipPath id="id5"><path d="M 44 6.773438 L 159 6.773438 L 159 125 L 44 125 Z M 44 6.773438 " clip-rule="nonzero"/></clipPath></defs><g clip-path="url(#id1)"><path fill="rgb(100%, 100%, 100%)" d="M 0.566406 0 L 467.433594 0 L 467.433594 6292.191406 L 0.566406 6292.191406 Z M 0.566406 0 " fill-opacity="1" fill-rule="nonzero"/><path fill="rgb(100%, 100%, 100%)" d="M 0.566406 0 L 467.433594 0 L 467.433594 307.5 L 0.566406 307.5 Z M 0.566406 0 " fill-opacity="1" fill-rule="nonzero"/><path fill="rgb(100%, 100%, 100%)" d="M 0.566406 0 L 467.433594 0 L 467.433594 307.5 L 0.566406 307.5 Z M 0.566406 0 " fill-opacity="1" fill-rule="nonzero"/><path fill="rgb(100%, 100%, 100%)" d="M 0.566406 0 L 467.433594 0 L 467.433594 307.5 L 0.566406 307.5 Z M 0.566406 0 " fill-opacity="1" fill-rule="nonzero"/></g><path stroke-linecap="butt" transform="matrix(2.881775, 0, 0, 2.882692, 0.57621, 6.775192)" fill-opacity="1" fill="rgb(17.248535%, 44.309998%, 94.119263%)" fill-rule="nonzero" stroke-linejoin="miter" d="M 80.025397 63.422096 L 79.538772 62.72017 L 80.650283 60.558833 L 81.929877 59.9355 L 82.252486 59.495103 L 83.72185 60.543927 L 84.071569 61.449114 L 84.075635 61.892222 L 84.471442 62.324489 L 83.606632 62.72288 L 82.946503 63.541342 L 82.080337 63.763574 L 81.291436 63.271683 L 80.440181 63.194444 Z M 80.025397 63.422096 " stroke="rgb(100%, 100%, 100%)" stroke-width="0.5" stroke-opacity="1" stroke-miterlimit="4"/><path fill="rgb(17.248535%, 44.309998%, 94.119263%)" d="M 65.796875 89.445312 L 65.417969 89.445312 L 63.742188 90.519531 L 63.683594 89.640625 L 65.839844 87.363281 L 65.394531 88.671875 Z M 49.871094 82.460938 L 50.703125 86.394531 L 50.332031 88.136719 L 49.65625 88.21875 L 48.921875 87.210938 L 47.78125 87.367188 L 49.417969 85.148438 L 49.160156 83.8125 Z M 83.726562 77.476562 L 85.769531 78.902344 L 85.457031 79.175781 Z M 88.652344 76.601562 L 88.695312 77.570312 L 88.019531 77.59375 L 87.816406 76.683594 Z M 5.464844 68.988281 L 5.175781 70.363281 L 5.9375 71.0625 L 6.070312 72.753906 L 5.25 74.097656 L 4 69.683594 Z M 74.050781 62.996094 L 76.417969 64.515625 L 77.035156 65.804688 L 76.761719 66.984375 L 79.722656 67.539062 L 79.621094 70.0625 L 80.675781 71.273438 L 80.476562 72.378906 L 75.703125 67.597656 L 74.90625 67.445312 L 73.570312 65.371094 Z M 55.722656 13.148438 L 54.175781 13.222656 L 52.464844 16.898438 L 53.277344 18.058594 L 52.632812 22.484375 L 55.945312 24.722656 L 56.207031 28.0625 L 55.125 30.320312 L 54.613281 35.882812 L 55.765625 37.902344 L 55.449219 38.664062 L 57.105469 39.738281 L 57.402344 44.828125 L 58.402344 47.179688 L 57.867188 52.289062 L 59.816406 56.042969 L 61.640625 57.527344 L 61.886719 59.132812 L 62.617188 59.738281 L 63.496094 59.316406 L 64.550781 59.769531 L 72.878906 67.46875 L 72.640625 68.761719 L 74.3125 71.203125 L 74.042969 72.972656 L 74.515625 73.957031 L 75.867188 72.972656 L 76.699219 73.679688 L 76.996094 75.449219 L 78.398438 74.828125 L 79.027344 75.1875 L 80.652344 80.355469 L 82.15625 81.203125 L 83.574219 80.859375 L 84.375 81.402344 L 84.03125 83.925781 L 85.175781 85.554688 L 85.554688 90.671875 L 84.675781 89.523438 L 66.222656 89.457031 L 66.125 88.09375 L 66.625 88.800781 L 67.085938 87.992188 L 66.148438 87.75 L 65.945312 86.75 L 66.828125 85.007812 L 65.773438 84.476562 L 66.898438 80.941406 L 65.25 79.300781 L 65.210938 78.117188 L 63.671875 77.816406 L 61.488281 74.152344 L 59.039062 72.777344 L 58.34375 70.582031 L 57.347656 70.511719 L 56.738281 69.152344 L 53.734375 66.183594 L 50.257812 65.070312 L 49.355469 63.609375 L 46.347656 61.785156 L 45.65625 61.929688 L 42.878906 59.664062 L 42.835938 57.324219 L 41.257812 56.035156 L 41.316406 50.816406 L 39.269531 48.609375 L 38.902344 47.351562 L 39.058594 48.132812 L 38.191406 47.925781 L 38.347656 48.765625 L 37.730469 47.570312 L 37.695312 42.398438 L 34.550781 39.253906 L 33.503906 39.097656 L 33.933594 36.019531 L 33.128906 34.441406 L 30.835938 31.332031 L 28.449219 29.335938 L 28.992188 27.441406 L 27.621094 25.996094 L 28.804688 26.460938 L 29.53125 24.402344 L 25.613281 21.34375 L 25.070312 17.933594 L 23.289062 16.757812 L 22.042969 13.320312 L 22.066406 12.542969 L 57.117188 9.3125 L 55.804688 11.074219 Z M 55.722656 13.148438 " fill-opacity="1" fill-rule="nonzero"/><g clip-path="url(#id2)"><path stroke-linecap="butt" transform="matrix(2.881775, 0, 0, 2.882692, 0.57621, 6.775192)" fill="none" stroke-linejoin="miter" d="M 22.632115 28.678097 L 22.500631 28.678097 L 21.919121 29.050741 L 21.898789 28.74585 L 22.647026 27.955844 L 22.492498 28.409793 Z M 17.105736 26.255231 L 17.394458 27.619787 L 17.265685 28.224148 L 17.031183 28.252605 L 16.776349 27.902997 L 16.380543 27.957199 L 16.948498 27.187519 L 16.859035 26.724085 Z M 28.853866 24.526162 L 29.562793 25.020762 L 29.454353 25.115617 Z M 30.563153 24.222626 L 30.578064 24.558683 L 30.343562 24.566814 L 30.273076 24.251082 Z M 1.696397 21.581594 L 1.59609 22.058579 L 1.860412 22.301136 L 1.906499 22.887882 L 1.621844 23.354026 L 1.188084 21.822797 Z M 25.496289 19.502916 L 26.317723 20.030039 L 26.531892 20.477212 L 26.437007 20.886443 L 27.464477 21.078863 L 27.429234 21.954238 L 27.79522 22.37431 L 27.726089 22.757795 L 26.069666 21.099189 L 25.793144 21.046341 L 25.329563 20.326799 Z M 19.136277 2.210866 L 18.599499 2.236612 L 18.005789 3.511733 L 18.287733 3.914189 L 18.064075 5.449484 L 19.213541 6.225939 L 19.304359 7.384524 L 18.928885 8.167754 L 18.751315 10.097374 L 19.151188 10.797946 L 19.041392 11.062184 L 19.616125 11.434829 L 19.719143 13.200485 L 20.066151 14.016237 L 19.880447 15.788669 L 20.556842 17.090892 L 21.189862 17.605818 L 21.275258 18.162752 L 21.528737 18.372788 L 21.833725 18.22644 L 22.19971 18.383629 L 25.089639 21.054472 L 25.006953 21.503 L 25.587108 22.349919 L 25.493578 22.963766 L 25.657594 23.305243 L 26.126597 22.963766 L 26.415319 23.209033 L 26.518337 23.82288 L 27.004962 23.607424 L 27.223198 23.732091 L 27.787087 25.524848 L 28.308955 25.818899 L 28.801002 25.699652 L 29.078879 25.888007 L 28.959595 26.763382 L 29.356757 27.328447 L 29.488241 29.103589 L 29.183253 28.705198 L 22.779865 28.682162 L 22.745977 28.209242 L 22.919481 28.45451 L 23.07943 28.174011 L 22.75411 28.089996 L 22.683624 27.743098 L 22.989967 27.138737 L 22.623982 26.954447 L 23.014366 25.728109 L 22.442345 25.158979 L 22.42879 24.748393 L 21.894722 24.644053 L 21.136997 23.372997 L 20.287098 22.896012 L 20.045818 22.134463 L 19.700166 22.110072 L 19.488707 21.638507 L 18.446327 20.608654 L 17.239931 20.222459 L 16.92681 19.715663 L 15.883074 19.082845 L 15.64315 19.132982 L 14.679389 18.347042 L 14.664478 17.535355 L 14.116856 17.088181 L 14.137188 15.277808 L 13.426905 14.512193 L 13.299488 14.07586 L 13.353708 14.346874 L 13.052787 14.275056 L 13.107007 14.566396 L 12.892838 14.151744 L 12.880638 12.357631 L 11.78946 11.2668 L 11.426185 11.212597 L 11.575291 10.144802 L 11.296057 9.597353 L 10.500378 8.518718 L 9.672167 7.826277 L 9.860581 7.169068 L 9.3848 6.667692 L 9.795517 6.828945 L 10.047641 6.114823 L 8.688073 5.053803 L 8.499658 3.870827 L 7.881549 3.462951 L 7.449144 2.270489 L 7.457277 2.00083 L 19.620191 0.880187 L 19.164743 1.491324 Z M 19.136277 2.210866 " stroke="rgb(100%, 100%, 100%)" stroke-width="0.5" stroke-opacity="1" stroke-miterlimit="4"/></g><path stroke-linecap="butt" transform="matrix(2.881775, 0, 0, 2.882692, 0.57621, 6.775192)" fill-opacity="1" fill="rgb(17.248535%, 44.309998%, 94.119263%)" fill-rule="nonzero" stroke-linejoin="miter" d="M 19.514462 81.157254 L 19.816739 81.231783 L 19.452109 81.348319 Z M 38.48877 78.539259 L 38.838489 78.892932 L 38.66634 79.331975 L 38.183782 78.887512 Z M 43.834867 48.739911 L 44.488219 50.052974 L 44.030059 49.78196 Z M 33.43275 47.902477 L 34.063058 47.934999 L 34.643212 48.374042 L 34.841116 49.032606 Z M 41.663354 47.85505 L 42.021206 48.176201 L 41.832792 48.585433 L 41.515604 48.15181 Z M 39.917468 44.689606 L 40.589797 45.214018 L 40.798544 45.960662 L 40.169591 45.567691 L 39.852404 44.976881 Z M 32.710267 43.764093 L 32.397147 45.491807 L 32.529986 45.761466 L 32.273796 46.11243 L 33.066764 47.832014 L 32.483899 47.203261 L 32.681802 47.004066 L 32.496098 46.589414 L 31.83868 46.433581 Z M 39.571815 41.303285 L 39.634168 41.96998 L 39.410511 41.598691 Z M 38.117362 39.319463 L 38.09703 39.862846 L 37.854395 39.713788 L 37.274241 40.698924 L 37.538563 39.467165 Z M 27.148645 35.597085 L 27.571562 35.98057 L 26.979208 35.754273 Z M 32.92037 32.61322 L 33.134539 32.815126 L 33.065409 33.061749 Z M 33.943774 31.499353 L 34.086101 31.63757 L 33.897687 31.644345 Z M 22.501987 28.678097 L 22.633471 28.678097 L 29.181897 28.698423 L 29.486885 29.096813 L 30.36525 30.397681 L 31.554025 30.951904 L 32.285996 32.865263 L 32.810575 33.2894 L 33.606254 33.531958 L 33.293133 34.214913 L 34.007482 35.02118 L 33.835334 35.671614 L 34.48733 36.530728 L 34.690655 36.682496 L 35.003776 36.403352 L 34.305693 35.679744 L 34.1227 34.761007 L 34.271805 34.666152 L 35.585286 35.786795 L 35.617818 36.612033 L 36.166796 36.782771 L 36.051578 37.361386 L 36.471784 37.903414 L 36.416208 38.266573 L 36.816081 39.308622 L 36.614111 39.917049 L 36.878434 40.969938 L 37.28644 41.232822 L 37.820508 42.34669 L 38.336954 42.409023 L 38.89542 44.461954 L 39.645012 45.205888 L 40.020486 45.914589 L 40.122149 46.575864 L 39.795473 47.120602 L 39.752097 47.745289 L 40.390538 49.386279 L 40.700948 49.658648 L 41.823303 49.826677 L 41.331256 49.903916 L 41.374632 50.197966 L 41.713507 50.17222 L 41.956142 49.806351 L 41.840925 48.947236 L 42.299084 48.899809 L 42.601361 49.40796 L 43.45126 49.928307 L 43.594943 50.580096 L 44.362157 50.46356 L 44.351313 51.261696 L 45.004665 51.899934 L 45.012798 52.641158 L 46.179884 53.2672 L 46.445563 54.077532 L 46.22326 55.217146 L 44.225251 56.84594 L 43.676273 56.988223 L 43.186937 56.581702 L 42.65287 54.587038 L 41.778571 53.17099 L 40.527444 52.508361 L 38.175649 50.17764 L 35.47549 48.513614 L 35.114927 47.663985 L 34.273161 47.941774 L 34.156587 47.235783 L 33.768914 46.699175 L 32.845818 46.494559 L 32.786176 45.372561 L 32.661469 46.32111 L 32.51372 46.32111 L 32.440523 45.491807 L 32.753644 45.063605 L 32.616738 44.514802 L 32.990856 43.728861 L 33.061342 41.903582 L 32.394436 39.763926 L 31.812926 39.299137 L 31.303257 38.328906 L 30.854586 38.407501 L 29.935556 37.941356 L 28.524479 36.724503 L 29.004327 36.884402 L 27.97279 36.308497 L 28.008033 36.048323 L 27.468544 35.229861 L 27.395347 35.441252 L 27.090359 35.300325 L 27.568851 34.952072 L 27.488876 34.124124 L 27.290973 34.905999 L 26.961586 35.110615 L 26.973786 35.480549 L 26.144219 35.168883 L 26.203861 35.025245 L 25.912428 35.069963 L 25.542376 35.663483 L 25.231967 35.69465 L 24.604369 35.221731 L 24.279049 34.476442 L 23.914419 34.205428 L 23.467104 34.090247 L 23.252935 34.239305 L 22.553496 33.407292 L 21.057022 33.079365 L 20.788633 32.786669 L 20.685615 31.758171 L 19.538861 31.128064 L 18.95464 30.214746 L 18.694384 30.313666 L 18.154894 30.006065 L 17.77942 29.281103 L 20.703237 29.701175 L 21.473161 29.474878 L 21.597867 29.103589 L 21.772727 29.161857 L 21.666998 29.663233 L 21.82017 29.916631 L 22.804264 30.611782 L 23.022499 30.216101 L 23.446771 30.362449 L 23.941529 30.985781 L 24.062169 30.749999 L 23.743626 30.422072 L 23.768025 30.210681 L 23.932041 30.259464 L 23.824956 29.511465 L 23.47117 29.220125 L 23.303088 29.832616 L 22.660581 30.076529 L 22.329838 29.825841 L 22.501987 29.817711 L 22.351526 29.417965 L 22.588739 29.067002 Z M 22.501987 28.678097 " stroke="rgb(100%, 100%, 100%)" stroke-width="0.5" stroke-opacity="1" stroke-miterlimit="4"/><path stroke-linecap="butt" transform="matrix(2.881775, 0, 0, 2.882692, 0.57621, 6.775192)" fill-opacity="1" fill="rgb(17.248535%, 44.309998%, 94.119263%)" fill-rule="nonzero" stroke-linejoin="miter" d="M 136.895456 79.008113 L 136.857502 79.291323 L 136.533537 79.218149 L 136.20144 79.623315 L 136.092999 79.487808 L 135.606374 79.780503 L 135.275632 79.685648 Z M 142.694291 68.206849 L 142.661759 69.681165 L 143.494037 69.78415 L 143.690584 70.190672 L 144.194831 70.35599 L 144.617747 70.042969 L 145.688593 71.927871 L 146.469362 72.352008 L 147.346372 73.579702 L 147.591717 74.365643 L 148.933664 75.589271 L 149.623614 76.533755 L 149.58566 77.715376 L 149.267117 77.98368 L 149.150544 79.52846 L 149.47722 80.548828 L 149.513818 82.113934 L 148.905198 82.943237 L 148.955352 83.440548 L 148.952641 84.112663 L 139.668812 84.111307 L 139.672878 83.779315 L 138.732161 83.544888 L 137.926993 82.916136 L 137.1896 82.754882 L 136.625711 82.780629 L 136.571491 83.557084 L 135.971004 83.710207 L 134.957089 83.380925 L 134.08008 82.62344 L 133.337265 80.978385 L 133.138006 81.055624 L 132.507698 80.627422 L 132.149846 79.691069 L 134.768675 79.455286 L 135.248522 79.901104 L 135.126527 80.139597 L 134.816117 79.871293 L 134.532817 79.958017 L 134.546372 80.40519 L 134.848649 80.135532 L 135.271566 80.459393 L 136.643333 80.796806 L 138.009678 80.180249 L 138.374308 79.261511 L 138.104563 78.917323 L 137.687069 78.94036 L 137.931059 78.27773 L 137.055405 78.944425 L 137.562363 78.424078 L 139.906025 76.987704 L 140.887408 76.073031 L 141.052779 74.230136 L 142.341861 72.712457 L 142.143957 72.165009 L 142.089737 69.819382 Z M 142.694291 68.206849 " stroke="rgb(100%, 100%, 100%)" stroke-width="0.5" stroke-opacity="1" stroke-miterlimit="4"/><path fill="rgb(17.248535%, 44.309998%, 94.119263%)" d="M 357.515625 275.929688 L 357.621094 275.558594 L 358.261719 275.992188 Z M 357.300781 273.59375 L 357.292969 273.140625 L 357.527344 271.058594 L 356.851562 268.859375 L 358.125 265.199219 L 359.839844 263.675781 L 360.929688 259.335938 L 364.777344 256.492188 L 368.136719 251.476562 L 368.574219 247.351562 L 369.855469 246.839844 L 372.359375 248.523438 L 373.984375 248.472656 L 373.085938 251.578125 L 374.292969 252.847656 L 374.117188 253.933594 L 375.625 254 L 377.210938 256.203125 L 383.457031 251.425781 L 385.375 250.730469 L 385.664062 248.828125 L 387.828125 249.089844 L 388.238281 248.015625 L 389.339844 248.75 L 391.078125 248.4375 L 391.726562 250.398438 L 393.21875 251.132812 L 393.957031 253.054688 L 393.519531 254.605469 L 396.921875 255.996094 L 397.5625 257.039062 L 396.808594 257.804688 L 396.761719 258.410156 L 397.777344 259.039062 L 398.808594 259.015625 L 401.96875 263.214844 L 407.03125 265.816406 L 408.035156 268.96875 L 408.515625 268.910156 L 408.320312 269.597656 L 411.375 270.394531 L 410.96875 275.679688 L 392.25 275.523438 L 385.117188 287.796875 L 387.371094 290.707031 L 386.089844 292.011719 L 386.167969 293.464844 L 385.554688 294.265625 L 386.089844 296.765625 L 384.949219 298.757812 L 375.894531 289.160156 L 365.761719 280.421875 L 359.996094 276.890625 L 361.132812 276.816406 L 360.5625 275.46875 L 357.847656 274.882812 Z M 357.300781 273.59375 " fill-opacity="1" fill-rule="nonzero"/><g clip-path="url(#id3)"><path stroke-linecap="butt" transform="matrix(2.881775, 0, 0, 2.882692, 0.57621, 6.775192)" fill="none" stroke-linejoin="miter" d="M 123.860955 93.369147 L 123.897554 93.240415 L 124.119856 93.390828 Z M 123.786403 92.558815 L 123.783692 92.401627 L 123.865022 91.679374 L 123.63052 90.91647 L 124.072414 89.646769 L 124.667479 89.118292 L 125.045663 87.612809 L 126.380832 86.626318 L 127.546563 84.886408 L 127.69838 83.455453 L 128.142984 83.277939 L 129.01186 83.861975 L 129.575749 83.844359 L 129.263984 84.921639 L 129.682834 85.362037 L 129.621836 85.738747 L 130.14506 85.761783 L 130.695393 86.526042 L 132.86284 84.868792 L 133.528391 84.627589 L 133.628698 83.96767 L 134.379646 84.05846 L 134.521973 83.685815 L 134.904225 83.940569 L 135.507423 83.832163 L 135.732436 84.512408 L 136.250238 84.767161 L 136.506427 85.433856 L 136.354611 85.971819 L 137.535253 86.454224 L 137.757555 86.816028 L 137.495943 87.081621 L 137.479677 87.291657 L 137.832108 87.509823 L 138.18996 87.501693 L 139.286561 88.958393 L 141.04329 89.86087 L 141.391654 90.954412 L 141.558381 90.934086 L 141.490606 91.172578 L 142.550608 91.449012 L 142.409636 93.282422 L 135.914073 93.22822 L 133.438928 97.48585 L 134.221052 98.495377 L 133.776448 98.947971 L 133.803558 99.452057 L 133.590744 99.729846 L 133.776448 100.597091 L 133.380641 101.288177 L 130.238589 97.95877 L 126.722419 94.927478 L 124.721699 93.702494 L 125.11615 93.676748 L 124.918246 93.209249 L 123.976173 93.005988 Z M 123.786403 92.558815 " stroke="rgb(100%, 100%, 100%)" stroke-width="0.5" stroke-opacity="1" stroke-miterlimit="4"/></g><path stroke-linecap="butt" transform="matrix(2.881775, 0, 0, 2.882692, 0.57621, 6.775192)" fill-opacity="1" fill="rgb(17.248535%, 44.309998%, 94.119263%)" fill-rule="nonzero" stroke-linejoin="miter" d="M 76.938921 22.542339 L 76.482117 23.382482 L 76.831836 23.576257 L 76.833192 23.786293 L 76.388587 23.988199 L 76.038868 24.798531 L 75.42347 25.146784 L 74.963955 25.911043 L 74.851449 26.133275 L 75.026308 26.419195 L 74.29976 28.07509 L 73.819912 28.007337 L 73.818557 28.320358 L 74.044925 28.356945 L 74.143877 28.65235 L 73.69114 28.825799 L 73.891754 29.754022 L 73.670807 29.98845 L 73.834823 30.901767 L 74.111345 31.170071 L 74.214363 33.332763 L 74.692855 33.629523 L 74.61017 33.939834 L 73.773825 34.33416 L 73.842956 34.761007 L 74.494952 35.514426 L 73.937841 35.526621 L 73.810424 35.322006 L 72.67858 35.583534 L 71.684998 35.095709 L 71.474895 35.30981 L 71.882901 35.468353 L 71.86799 35.670259 L 71.363744 35.748853 L 70.82561 36.164859 L 70.443358 36.786837 L 70.442003 37.213684 L 69.655812 37.406104 L 68.71645 36.740764 L 67.806908 36.584931 L 67.267419 37.053785 L 66.111176 36.991452 L 65.888874 36.609322 L 65.558132 36.66759 L 64.887158 36.17299 L 64.495418 36.126917 L 63.989816 35.473774 L 62.997589 34.987303 L 62.799686 35.357238 L 62.444545 35.472419 L 61.968764 37.255691 L 62.219532 37.666277 L 61.579735 38.135131 L 61.579735 38.410211 L 61.29508 38.450863 L 61.366921 38.88313 L 60.834209 39.742245 L 61.152752 40.441461 L 60.724414 41.131192 L 59.763363 42.006567 L 59.497685 41.705741 L 58.445816 41.376459 L 58.383463 41.10951 L 57.850751 41.39814 L 56.716196 39.193441 L 54.823916 38.763884 L 53.936063 36.423678 L 53.648697 36.238033 L 53.664963 34.988658 L 53.450794 34.518449 L 53.080742 34.519804 L 53.056343 33.934414 L 51.931277 33.901892 L 51.166774 33.947965 L 50.452425 33.576675 L 50.750635 31.721584 L 50.098639 30.187645 L 49.424955 29.71337 L 49.490019 28.882712 L 49.067102 28.281061 L 48.699761 28.130648 L 48.740426 27.434142 L 48.386641 27.09402 L 48.596743 26.81352 L 49.400556 26.542506 L 50.015953 26.829781 L 51.03529 26.088558 L 50.268076 25.54924 L 50.185391 24.568169 L 50.522911 23.829656 L 50.437514 22.519303 L 50.738435 22.26455 L 50.758768 21.721166 L 51.096288 21.482674 L 51.239971 19.437873 L 51.107132 18.181723 L 50.770967 17.781977 L 51.146441 16.042067 L 50.853653 15.772408 L 51.050201 15.100293 L 50.448358 13.322441 L 50.560865 12.833261 L 50.350762 12.644906 L 50.33314 12.155726 L 49.781451 11.620473 L 50.106772 11.480901 L 50.201657 10.858924 L 49.716387 9.572962 L 49.906158 9.315499 L 49.694699 9.104108 L 52.542608 9.097333 L 52.542608 6.43733 L 61.040246 6.43733 L 61.563469 6.62704 L 61.943009 6.948191 L 62.679047 8.324943 L 63.943729 8.918463 L 64.849204 10.056722 L 65.727569 10.583845 L 65.972915 11.131293 L 66.665576 11.640799 L 66.74284 11.917234 L 68.197293 12.545986 L 69.284405 13.600231 L 69.495863 14.6477 L 70.241389 15.512235 L 70.404049 17.463536 L 71.117043 18.828092 L 71.8951 19.548989 L 72.628427 19.810517 L 72.990345 20.410814 L 73.562367 20.787523 L 74.927357 21.152037 L 75.255388 21.633087 L 76.076822 21.769949 Z M 76.938921 22.542339 " stroke="rgb(100%, 100%, 100%)" stroke-width="0.5" stroke-opacity="1" stroke-miterlimit="4"/><path stroke-linecap="butt" transform="matrix(2.881775, 0, 0, 2.882692, 0.57621, 6.775192)" fill-opacity="1" fill="rgb(17.248535%, 44.309998%, 94.119263%)" fill-rule="nonzero" stroke-linejoin="miter" d="M 94.854582 29.745892 L 94.001972 30.302826 L 92.144935 30.170029 L 91.463118 31.294737 L 91.437363 31.918069 L 90.194368 32.101004 L 89.954445 32.312395 L 89.584393 32.914046 L 89.634546 33.588871 L 90.205212 34.007588 L 90.465469 33.366639 L 91.006314 33.679661 L 91.09171 34.716289 L 90.922273 35.168883 L 90.479024 35.766469 L 89.83245 35.758338 L 89.30516 36.102526 L 88.596232 36.159439 L 87.721934 37.381712 L 87.726 37.644596 L 89.188586 39.018637 L 89.400045 39.646035 L 89.938179 40.024099 L 89.737564 40.610845 L 89.9558 41.469959 L 90.779945 41.647473 L 90.964293 42.409023 L 91.792505 42.960536 L 91.689486 43.173282 L 92.417391 43.300659 L 92.775243 43.718021 L 92.524475 44.170614 L 91.442785 43.986324 L 91.178462 43.677368 L 90.827388 43.643492 L 90.333985 43.984969 L 89.991043 44.635403 L 90.188946 45.663901 L 89.629124 45.82922 L 89.622347 46.239806 L 90.054752 47.08266 L 89.852782 47.741224 L 89.424444 47.646369 L 88.945952 47.943129 L 88.523035 47.779166 L 87.606716 46.592124 L 87.007585 46.51624 L 85.7917 46.79403 L 85.666994 46.074488 L 85.134282 46.092103 L 84.302004 45.136779 L 83.284023 44.594751 L 81.384965 44.47144 L 80.293787 44.688251 L 80.162303 45.124583 L 79.428977 45.73843 L 79.37069 46.623291 L 78.244269 46.361762 L 77.291351 45.798053 L 77.056849 44.993142 L 76.08631 43.823716 L 75.958893 43.186833 L 76.690864 42.820964 L 76.140531 42.180016 L 76.880634 40.953677 L 76.638 40.051201 L 76.684087 39.188021 L 76.345211 38.389885 L 76.399431 37.517219 L 76.121554 36.715018 L 75.48989 36.040193 L 74.496307 35.514426 L 73.842956 34.761007 L 73.775181 34.33416 L 74.611525 33.939834 L 74.694211 33.629523 L 74.215719 33.332763 L 74.112701 31.170071 L 73.836178 30.901767 L 73.672163 29.98845 L 73.891754 29.754022 L 73.692495 28.825799 L 74.145233 28.65235 L 74.046281 28.356945 L 73.819912 28.320358 L 73.821268 28.007337 L 74.29976 28.07509 L 75.027664 26.419195 L 74.851449 26.133275 L 74.965311 25.911043 L 75.42347 25.146784 L 76.040223 24.798531 L 76.389943 23.988199 L 76.834547 23.786293 L 76.831836 23.576257 L 76.482117 23.382482 L 76.938921 22.542339 L 77.218154 22.444774 L 77.460789 22.806578 L 78.294422 22.778121 L 78.901687 21.661543 L 79.556394 21.40408 L 79.354424 21.181848 L 79.475064 20.662857 L 79.811228 20.367451 L 79.858671 19.670945 L 80.549976 18.389049 L 81.180285 18.380918 L 81.338878 18.161397 L 81.879723 18.265737 L 82.321617 17.609883 L 83.362642 18.111259 L 84.837427 18.008274 L 85.718503 18.325361 L 86.244438 17.997434 L 86.282392 18.298259 L 86.682264 18.128875 L 86.72293 18.341621 L 86.983186 18.276578 L 87.155334 18.913461 L 87.475233 18.989345 L 87.418302 19.298301 L 87.541652 19.387736 L 87.743622 19.076069 L 87.735489 19.688561 L 88.681629 20.036814 L 88.943241 20.544965 L 90.023575 21.271283 L 90.127949 21.69542 L 90.609152 22.057224 L 90.760968 22.990867 L 91.342478 23.802554 L 91.524115 24.621017 L 92.045983 25.069545 L 92.100203 25.467935 L 92.350971 25.542464 L 92.195088 25.660355 L 92.582762 26.829781 L 92.993479 27.295925 L 93.627853 27.573714 L 94.357113 28.500582 Z M 94.854582 29.745892 " stroke="rgb(100%, 100%, 100%)" stroke-width="0.5" stroke-opacity="1" stroke-miterlimit="4"/><path stroke-linecap="butt" transform="matrix(2.881775, 0, 0, 2.882692, 0.57621, 6.775192)" fill-opacity="1" fill="rgb(17.248535%, 44.309998%, 94.119263%)" fill-rule="nonzero" stroke-linejoin="miter" d="M 76.398076 78.055499 L 75.899251 78.508092 L 75.615952 78.501317 L 75.621374 78.863121 L 75.108994 79.444446 L 73.994772 78.56365 L 72.13638 77.728927 L 72.197377 77.319696 L 71.975075 77.197739 L 71.602312 77.387449 L 70.283409 76.867102 L 70.391849 76.764117 L 70.780878 76.773602 L 71.079089 76.411799 L 71.423386 76.486328 L 71.695842 76.200408 L 73.054054 76.120459 L 73.680296 75.652959 L 74.621014 75.674641 L 75.901962 74.873794 L 75.967026 75.665155 L 76.422475 76.086582 L 76.221861 77.348152 Z M 76.398076 78.055499 " stroke="rgb(100%, 100%, 100%)" stroke-width="0.5" stroke-opacity="1" stroke-miterlimit="4"/><path stroke-linecap="butt" transform="matrix(2.881775, 0, 0, 2.882692, 0.57621, 6.775192)" fill-opacity="1" fill="rgb(17.248535%, 44.309998%, 94.119263%)" fill-rule="nonzero" stroke-linejoin="miter" d="M 99.800806 77.455203 L 99.1339 77.602905 L 98.949552 77.440297 L 98.559167 77.685565 L 98.022389 77.49721 L 97.472055 76.414509 L 98.113207 75.85893 L 98.677096 74.961874 L 99.147455 75.94972 L 99.785896 76.632675 Z M 99.800806 77.455203 " stroke="rgb(100%, 100%, 100%)" stroke-width="0.5" stroke-opacity="1" stroke-miterlimit="4"/><path stroke-linecap="butt" transform="matrix(2.881775, 0, 0, 2.882692, 0.57621, 6.775192)" fill-opacity="1" fill="rgb(17.248535%, 44.309998%, 94.119263%)" fill-rule="nonzero" stroke-linejoin="miter" d="M 57.852106 41.39814 L 58.383463 41.10951 L 58.447171 41.376459 L 59.499041 41.705741 L 59.764719 42.006567 L 60.725769 41.131192 L 61.154108 40.441461 L 60.835565 39.742245 L 61.368277 38.88313 L 61.296435 38.450863 L 61.581091 38.410211 L 61.581091 38.135131 L 62.220887 37.666277 L 61.970119 37.255691 L 62.4459 35.472419 L 62.801042 35.357238 L 62.998945 34.987303 L 63.991172 35.473774 L 64.496774 36.126917 L 64.888514 36.17299 L 65.559487 36.66759 L 65.890229 36.609322 L 66.112532 36.991452 L 67.268774 37.053785 L 67.808264 36.584931 L 68.717805 36.740764 L 69.657168 37.406104 L 70.443358 37.213684 L 70.444714 36.786837 L 70.826965 36.164859 L 71.365099 35.748853 L 71.869346 35.670259 L 71.884256 35.468353 L 71.47625 35.30981 L 71.686353 35.095709 L 72.679936 35.583534 L 73.811779 35.322006 L 73.939196 35.526621 L 74.496307 35.514426 L 75.491245 36.040193 L 76.121554 36.715018 L 76.399431 37.517219 L 76.345211 38.389885 L 76.685442 39.188021 L 76.638 40.051201 L 76.880634 40.953677 L 76.141886 42.180016 L 76.690864 42.820964 L 75.958893 43.186833 L 76.08631 43.823716 L 77.056849 44.993142 L 77.291351 45.798053 L 78.244269 46.361762 L 79.37069 46.623291 L 79.428977 45.73843 L 80.162303 45.124583 L 80.240922 45.563626 L 80.936294 46.186958 L 80.772279 47.177515 L 81.017624 47.268304 L 81.223661 48.077281 L 81.027113 48.181622 L 81.10031 48.477027 L 79.53335 48.547491 L 79.380179 48.73178 L 78.64143 48.414694 L 77.959613 48.555621 L 76.720685 48.359136 L 74.920579 50.27927 L 74.436665 50.424263 L 74.722676 52.954179 L 73.688429 54.027394 L 73.409195 55.57353 L 73.009322 56.199572 L 73.132673 58.203721 L 72.433234 58.618372 L 71.995407 59.53982 L 71.222772 60.087268 L 69.533817 58.519452 L 68.957729 59.202407 L 68.513124 58.276895 L 69.199008 57.745707 L 69.295249 57.314795 L 68.957729 57.247041 L 68.841156 56.74973 L 68.14985 56.595252 L 67.840796 56.241579 L 67.207777 56.570861 L 66.763172 56.038319 L 66.334834 55.597921 L 65.629973 55.676515 L 65.085062 54.339061 L 64.83836 52.993476 L 64.090124 52.015115 L 63.711939 50.500147 L 63.10603 49.192504 L 62.414724 48.666737 L 61.598712 48.430955 L 60.899273 49.069193 L 60.180858 49.155917 L 59.184564 46.733052 L 58.91753 46.670718 L 58.737249 46.143596 L 58.165227 46.186958 L 57.923948 45.993183 L 57.990368 45.701843 L 57.294995 44.598816 L 57.415635 43.169217 L 57.68538 42.520139 L 57.452234 42.25319 L 58.043232 41.648828 Z M 57.852106 41.39814 " stroke="rgb(100%, 100%, 100%)" stroke-width="0.5" stroke-opacity="1" stroke-miterlimit="4"/><path stroke-linecap="butt" transform="matrix(2.881775, 0, 0, 2.882692, 0.57621, 6.775192)" fill-opacity="1" fill="rgb(17.248535%, 44.309998%, 94.119263%)" fill-rule="nonzero" stroke-linejoin="miter" d="M 95.164992 64.357094 L 95.243611 64.872021 L 95.010465 65.258216 L 95.512 65.381527 L 95.360184 65.90865 L 94.732587 66.286714 L 94.382868 65.933041 L 94.075169 66.046867 L 93.621076 66.721692 L 93.505858 67.336894 L 93.339132 67.240684 L 93.161561 67.542864 L 91.383143 67.666176 L 91.238104 67.952096 L 91.106621 68.719065 L 91.460407 69.368144 L 91.459051 69.915592 L 92.233042 70.914279 L 92.303529 72.202951 L 91.648821 72.491581 L 91.27877 72.971276 L 91.244882 72.618957 L 90.573909 72.922493 L 88.971706 72.734138 L 88.868688 72.146038 L 88.140784 72.178559 L 87.827663 72.567465 L 86.950654 72.368269 L 86.760884 71.263887 L 87.098403 71.314025 L 86.606356 70.799098 L 85.765946 70.907504 L 85.360651 71.473923 L 84.632746 71.354677 L 84.394178 71.495604 L 84.142055 71.387198 L 84.076991 70.729989 L 83.610698 70.525374 L 84.048525 69.273289 L 83.286734 68.342356 L 84.083768 67.475111 L 84.468731 66.676975 L 84.971622 66.29078 L 85.282032 65.462832 L 85.665638 65.369332 L 85.801189 65.092898 L 85.612774 64.530543 L 85.896074 63.271683 L 86.138708 62.996604 L 85.988248 62.82993 L 86.234949 62.568402 L 86.431497 62.695778 L 86.595512 62.506069 L 89.072013 63.20935 L 90.629484 64.250044 L 91.492939 64.119957 L 91.587824 63.525081 L 91.80606 63.377379 L 92.59225 63.636197 L 93.724094 64.591522 L 94.168698 64.447884 L 94.630924 64.625398 Z M 95.164992 64.357094 " stroke="rgb(100%, 100%, 100%)" stroke-width="0.5" stroke-opacity="1" stroke-miterlimit="4"/><path stroke-linecap="butt" transform="matrix(2.881775, 0, 0, 2.882692, 0.57621, 6.775192)" fill-opacity="1" fill="rgb(17.248535%, 44.309998%, 94.119263%)" fill-rule="nonzero" stroke-linejoin="miter" d="M 91.937543 77.514826 L 91.998541 78.109702 L 91.636622 79.352301 L 92.085293 80.069133 L 91.698975 80.582705 L 92.406547 80.727697 L 92.768465 81.342899 L 93.408262 80.815777 L 93.907087 80.697886 L 93.839312 80.29814 L 95.319519 80.096234 L 95.408982 79.780503 L 95.764123 79.71546 L 95.692282 79.368562 L 96.439163 79.711395 L 96.76855 79.636866 L 96.740084 80.031191 L 97.274152 80.147727 L 97.682158 80.6884 L 98.795024 80.829327 L 99.259961 81.299537 L 99.250473 81.54887 L 99.795384 81.912029 L 100.042086 82.367332 L 100.646639 82.32668 L 100.520578 82.684419 L 101.371833 83.043512 L 101.396232 83.260323 L 102.261041 83.050287 L 102.910327 83.611287 L 102.525364 84.696698 L 103.077053 85.921681 L 103.197693 86.847194 L 102.975391 87.431229 L 103.551479 87.691403 L 103.620609 88.31338 L 104.066569 88.908256 L 103.880866 89.489581 L 103.262757 89.85545 L 103.227514 90.127819 L 102.396592 90.854137 L 102.303062 91.262013 L 101.366411 91.97749 L 100.256255 90.743021 L 99.589348 90.851426 L 97.44359 90.205058 L 95.677371 89.958435 L 94.689211 89.385241 L 94.76783 89.167074 L 94.495374 89.309357 L 94.091435 88.871669 L 88.718227 86.9556 L 87.984901 86.157463 L 86.724285 85.626276 L 86.587379 85.236016 L 85.752391 84.880987 L 84.945867 83.754924 L 83.731338 83.18986 L 83.198626 83.326722 L 83.054943 82.276542 L 84.364357 81.74671 L 84.85776 81.764326 L 84.521595 81.706058 L 84.425355 80.521727 L 84.484997 80.29001 L 84.817095 80.123336 L 84.924179 80.29001 L 85.17088 79.985119 L 85.18308 80.19651 L 85.753746 80.016285 L 86.40032 80.58406 L 87.552496 80.29814 L 88.951374 80.517661 L 89.207563 81.019037 L 89.623702 80.821197 L 90.788078 81.500087 L 90.942605 81.295472 L 90.371939 80.529857 L 90.06424 79.03928 L 90.381428 78.658505 L 90.582042 78.983722 L 91.48345 77.789905 Z M 91.937543 77.514826 " stroke="rgb(100%, 100%, 100%)" stroke-width="0.5" stroke-opacity="1" stroke-miterlimit="4"/><path stroke-linecap="butt" transform="matrix(2.881775, 0, 0, 2.882692, 0.57621, 6.775192)" fill-opacity="1" fill="rgb(17.248535%, 44.309998%, 94.119263%)" fill-rule="nonzero" stroke-linejoin="miter" d="M 101.465362 64.916738 L 101.697153 65.102383 L 101.636155 65.640346 L 102.006207 65.985889 L 103.109585 66.076678 L 103.620609 66.767764 L 103.24378 67.265075 L 103.17736 68.052371 L 102.884572 68.099798 L 102.521298 67.817944 L 101.842191 68.537486 L 101.60769 69.96031 L 101.843547 70.483367 L 102.12278 70.656816 L 104.028615 69.041572 L 104.490841 69.162173 L 104.504396 69.76789 L 103.74396 70.55654 L 103.011989 70.93054 L 103.154317 71.215105 L 103.582655 71.11754 L 103.674829 71.560647 L 103.200404 73.152855 L 103.341376 74.108179 L 102.861528 74.007904 L 102.402014 74.548577 L 100.764568 74.904961 L 101.061423 73.429289 L 99.887559 73.552601 L 99.54055 74.074303 L 99.360269 74.052622 L 99.189475 73.511949 L 99.585282 73.284297 L 99.714054 72.148748 L 98.25689 72.631153 L 98.151161 73.388637 L 98.011545 73.543115 L 97.580495 73.3385 L 97.546608 73.791093 L 97.301262 73.991643 L 97.24162 73.217898 L 96.786171 72.57966 L 96.928499 72.37911 L 96.623511 71.746292 L 95.528266 71.440046 L 94.758341 70.857366 L 94.961667 69.536173 L 96.525915 68.828826 L 96.398498 68.42095 L 97.028806 67.575386 L 97.237553 66.59025 L 97.571007 66.300265 L 97.814997 66.443902 L 98.645919 66.183729 L 98.90482 65.550911 L 99.360269 65.399143 L 99.590704 65.884258 L 100.08004 66.09836 L 100.352496 65.61731 L 100.539555 65.882903 L 101.126487 64.912673 Z M 101.465362 64.916738 " stroke="rgb(100%, 100%, 100%)" stroke-width="0.5" stroke-opacity="1" stroke-miterlimit="4"/><path stroke-linecap="butt" transform="matrix(2.881775, 0, 0, 2.882692, 0.57621, 6.775192)" fill-opacity="1" fill="rgb(17.248535%, 44.309998%, 94.119263%)" fill-rule="nonzero" stroke-linejoin="miter" d="M 80.026753 63.420741 L 80.441536 63.194444 L 81.291436 63.271683 L 82.081693 63.763574 L 82.946503 63.539987 L 83.606632 62.721525 L 84.471442 62.324489 L 84.075635 61.892222 L 84.071569 61.449114 L 84.787274 61.633403 L 86.236305 62.568402 L 85.989603 62.82993 L 86.138708 62.996604 L 85.896074 63.271683 L 85.614129 64.530543 L 85.801189 65.092898 L 85.665638 65.369332 L 85.282032 65.462832 L 84.972977 66.29078 L 84.470086 66.676975 L 84.083768 67.475111 L 83.288089 68.341001 L 84.049881 69.273289 L 83.610698 70.525374 L 81.443252 70.83975 L 79.714988 72.033567 L 78.915242 71.688024 L 78.854244 71.919741 L 78.593988 71.934647 L 78.511302 72.884551 L 79.161943 72.837124 L 79.944067 73.15692 L 80.067418 73.602738 L 79.812584 73.917114 L 80.198902 74.765388 L 80.071484 75.288446 L 80.750591 75.274895 L 80.884785 75.727488 L 80.236856 76.699074 L 79.492685 76.72753 L 77.914882 78.047368 L 77.494676 77.68963 L 77.046005 78.032463 L 76.398076 78.054144 L 76.221861 77.348152 L 76.422475 76.086582 L 75.967026 75.6638 L 75.901962 74.873794 L 74.621014 75.674641 L 73.680296 75.652959 L 73.054054 76.120459 L 71.695842 76.200408 L 71.423386 76.486328 L 71.079089 76.411799 L 70.779523 76.773602 L 70.391849 76.764117 L 69.73172 76.589313 L 69.810339 76.255966 L 69.395556 76.323719 L 68.609365 75.76001 L 68.320643 74.853468 L 67.092559 73.746376 L 65.993247 71.976654 L 65.967493 71.284213 L 65.35074 70.640555 L 65.25721 70.307208 L 65.662505 69.97657 L 67.158979 69.742143 L 67.462611 69.519912 L 67.59545 69.194695 L 67.274196 68.784109 L 68.174249 67.64856 L 68.880465 67.652625 L 69.777807 67.117372 L 70.32543 67.553705 L 70.947605 67.710893 L 72.507787 69.3966 L 72.111981 68.274602 L 72.36817 68.109284 L 72.671803 66.3897 L 73.487814 66.343627 L 74.676589 65.751462 L 74.789096 64.434333 L 74.156077 63.316401 L 73.247891 63.194444 L 73.054054 62.320424 L 72.479321 61.970816 L 72.145868 62.075156 L 72.053694 61.465375 L 72.267863 60.379963 L 72.486099 60.136051 L 72.758555 60.205159 L 72.831752 59.592668 L 73.457993 59.35553 L 73.406484 60.184833 L 73.771114 59.954471 L 73.978506 59.715979 L 73.616587 58.490996 L 74.591192 58.104801 L 74.957178 58.309416 L 74.065258 59.889428 L 74.057125 60.560188 L 74.302471 60.919281 L 74.536972 60.954513 L 74.612881 60.720086 L 74.612881 59.297262 L 75.434314 59.046574 L 76.003625 59.416509 L 76.124265 59.806769 L 75.352984 61.28786 L 75.451936 61.511447 L 76.563447 61.411172 L 77.23442 60.679434 L 76.983652 60.470753 L 77.046005 60.094044 L 77.425546 59.946341 L 77.864728 59.980218 L 77.794242 60.458557 L 78.432683 60.653688 L 78.050432 61.942359 L 76.983652 62.461351 L 76.036157 63.229676 L 76.00498 64.090146 L 75.316386 64.563065 L 75.488534 65.064441 L 76.01718 65.102383 L 76.065978 65.426245 L 75.012753 66.01841 L 75.553598 66.244707 L 76.045645 66.850424 L 76.502449 66.812482 L 77.088026 67.137698 L 77.782043 66.888365 L 78.127695 66.97509 L 78.446238 66.796221 L 78.640075 66.278584 L 79.224296 66.279939 L 80.41036 65.409984 L 80.701793 64.601007 L 80.139259 64.241913 Z M 80.026753 63.420741 " stroke="rgb(100%, 100%, 100%)" stroke-width="0.5" stroke-opacity="1" stroke-miterlimit="4"/><path stroke-linecap="butt" transform="matrix(2.881775, 0, 0, 2.882692, 0.57621, 6.775192)" fill-opacity="1" fill="rgb(17.248535%, 44.309998%, 94.119263%)" fill-rule="nonzero" stroke-linejoin="miter" d="M 94.756986 70.857366 L 95.526911 71.438691 L 96.622156 71.746292 L 96.927144 72.3764 L 96.784816 72.578305 L 97.240264 73.217898 L 97.299906 73.991643 L 97.545252 73.789738 L 97.57914 73.337144 L 98.010189 73.540405 L 98.14845 73.384572 L 98.255535 72.627088 L 99.712699 72.144683 L 99.583926 73.281587 L 99.18812 73.507883 L 99.361624 74.048556 L 99.539195 74.070237 L 99.886203 73.548535 L 101.062778 73.425224 L 100.765923 74.900895 L 101.220016 75.341293 L 101.413853 77.677434 L 100.704926 78.130028 L 100.189835 77.940318 L 99.803517 77.451138 L 99.789962 76.62861 L 99.151521 75.942944 L 98.681162 74.957808 L 98.117274 75.854865 L 97.476122 76.410444 L 98.026455 77.493145 L 96.772616 79.631445 L 96.44323 79.705974 L 95.696348 79.361786 L 95.76819 79.710039 L 95.413049 79.773728 L 95.323586 80.089459 L 93.843378 80.291365 L 93.911153 80.692465 L 93.412329 80.809001 L 92.772532 81.336124 L 92.410613 80.722277 L 91.703041 80.575929 L 92.089359 80.063713 L 91.640688 79.345526 L 92.002607 78.102926 L 91.94161 77.509406 L 93.007034 75.521518 L 92.917571 74.474048 L 92.609872 73.984868 L 93.264579 73.801934 L 93.589899 73.041739 L 93.424528 72.261219 L 93.939619 72.198886 L 94.328648 71.792364 L 94.160565 71.248981 L 94.519773 71.284213 Z M 94.756986 70.857366 " stroke="rgb(100%, 100%, 100%)" stroke-width="0.5" stroke-opacity="1" stroke-miterlimit="4"/><path stroke-linecap="butt" transform="matrix(2.881775, 0, 0, 2.882692, 0.57621, 6.775192)" fill-opacity="1" fill="rgb(17.248535%, 44.309998%, 94.119263%)" fill-rule="nonzero" stroke-linejoin="miter" d="M 83.612054 70.525374 L 84.078346 70.729989 L 84.14341 71.387198 L 84.395534 71.495604 L 84.634102 71.354677 L 85.362006 71.473923 L 85.768657 70.907504 L 86.609067 70.799098 L 87.099759 71.314025 L 86.762239 71.263887 L 86.952009 72.368269 L 87.829019 72.567465 L 88.142139 72.178559 L 88.870044 72.146038 L 88.973062 72.734138 L 90.575264 72.922493 L 91.246237 72.618957 L 91.280125 72.971276 L 91.650177 72.491581 L 92.304884 72.202951 L 92.234398 70.914279 L 93.421817 72.267994 L 93.588544 73.047159 L 93.263223 73.805999 L 92.608516 73.988933 L 92.917571 74.480824 L 93.004323 75.526938 L 91.938899 77.514826 L 91.484806 77.79397 L 90.583397 78.987787 L 90.382783 78.66257 L 90.065596 79.043345 L 90.373295 80.533922 L 90.945316 81.299537 L 90.789434 81.504152 L 89.625058 80.825262 L 89.208919 81.023102 L 88.95544 80.520371 L 87.556563 80.299495 L 86.404387 80.58677 L 85.757813 80.018995 L 85.185791 80.19922 L 85.173591 79.985119 L 84.928246 80.29001 L 84.821161 80.123336 L 84.487708 80.29001 L 84.42671 80.524437 L 84.522951 81.708768 L 84.859115 81.767036 L 84.365713 81.748065 L 83.056298 82.277897 L 83.199982 83.328077 L 82.98039 83.589605 L 77.05956 81.74671 L 76.289636 81.277856 L 75.931783 80.447198 L 75.351629 79.997314 L 75.108994 79.444446 L 75.622729 78.863121 L 75.615952 78.501317 L 75.899251 78.508092 L 76.398076 78.055499 L 77.047361 78.032463 L 77.496032 77.68963 L 77.916237 78.047368 L 79.494041 76.72753 L 80.238211 76.699074 L 80.886141 75.727488 L 80.750591 75.274895 L 80.071484 75.288446 L 80.198902 74.765388 L 79.813939 73.917114 L 80.067418 73.602738 L 79.945423 73.15692 L 79.163299 72.837124 L 78.512658 72.884551 L 78.595343 71.934647 L 78.8556 71.919741 L 78.916597 71.688024 L 79.716343 72.033567 L 81.444607 70.83975 Z M 83.612054 70.525374 " stroke="rgb(100%, 100%, 100%)" stroke-width="0.5" stroke-opacity="1" stroke-miterlimit="4"/><path stroke-linecap="butt" transform="matrix(2.881775, 0, 0, 2.882692, 0.57621, 6.775192)" fill-opacity="1" fill="rgb(17.248535%, 44.309998%, 94.119263%)" fill-rule="nonzero" stroke-linejoin="miter" d="M 98.023744 77.49721 L 98.560523 77.685565 L 98.950907 77.440297 L 99.135255 77.602905 L 99.802162 77.455203 L 100.187124 77.943028 L 100.70357 78.134093 L 101.412498 77.681499 L 100.854031 79.111098 L 101.111576 80.696531 L 101.000425 80.841523 L 100.33894 80.332017 L 99.259961 81.299537 L 98.795024 80.826617 L 97.682158 80.6884 L 97.274152 80.146372 L 96.740084 80.028481 L 96.769905 79.635511 Z M 98.023744 77.49721 " stroke="rgb(100%, 100%, 100%)" stroke-width="0.5" stroke-opacity="1" stroke-miterlimit="4"/><path stroke-linecap="butt" transform="matrix(2.881775, 0, 0, 2.882692, 0.57621, 6.775192)" fill-opacity="1" fill="rgb(17.248535%, 44.309998%, 94.119263%)" fill-rule="nonzero" stroke-linejoin="miter" d="M 62.544852 65.320549 L 62.417435 65.561752 L 62.323905 65.418114 Z M 61.49705 64.442464 L 61.894211 64.644369 L 61.762728 64.874731 L 61.220527 64.591522 Z M 60.401804 63.370603 L 60.931805 63.512886 L 61.116154 64.053559 L 60.515667 63.874689 Z M 65.308719 58.622437 L 65.650306 60.703825 L 64.944089 58.881256 L 65.376494 59.140074 Z M 66.763172 56.038319 L 67.207777 56.570861 L 67.840796 56.241579 L 68.147139 56.595252 L 68.838445 56.74973 L 68.956373 57.248396 L 69.292538 57.317505 L 69.197653 57.747062 L 68.511769 58.27825 L 68.956373 59.203763 L 69.531106 58.520807 L 71.218705 60.091333 L 71.991341 59.541175 L 72.263797 60.382674 L 72.049627 61.468085 L 72.141802 62.077866 L 72.477966 61.972171 L 73.051343 62.320424 L 73.24518 63.197154 L 74.154721 63.317756 L 74.78774 64.435688 L 74.673878 65.752817 L 73.483748 66.344982 L 72.667736 66.39241 L 72.364104 68.110639 L 72.107914 68.277312 L 72.50372 69.397955 L 70.946249 67.713603 L 70.324074 67.553705 L 69.776452 67.117372 L 68.87911 67.652625 L 68.170183 67.65127 L 67.27013 68.786819 L 67.023428 68.433145 L 66.750973 68.565942 L 66.145064 68.365392 L 67.187444 66.939858 L 67.39348 67.010322 L 67.623916 66.682395 L 67.535808 65.278542 L 67.775732 64.481761 L 66.498849 63.735117 L 65.609641 61.988432 L 65.499845 60.8041 L 65.662505 60.728216 L 66.341611 61.350194 L 66.401253 61.042593 L 65.868541 60.865079 L 65.890229 60.556123 L 65.667927 60.566963 L 65.399538 58.58043 L 66.523248 58.946299 L 66.549003 58.354134 L 66.071867 57.484178 Z M 66.763172 56.038319 " stroke="rgb(100%, 100%, 100%)" stroke-width="0.5" stroke-opacity="1" stroke-miterlimit="4"/><path stroke-linecap="butt" transform="matrix(2.881775, 0, 0, 2.882692, 0.57621, 6.775192)" fill-opacity="1" fill="rgb(17.248535%, 44.309998%, 94.119263%)" fill-rule="nonzero" stroke-linejoin="miter" d="M 95.444225 30.297406 L 95.053841 30.716122 L 94.491308 30.877376 L 94.350336 31.392302 L 95.280209 31.521034 L 95.053841 31.985823 L 95.310031 32.161982 L 95.314097 32.938437 L 95.547243 33.166089 L 95.631284 33.811102 L 95.136526 34.575362 L 95.162281 34.801659 L 95.816988 35.082158 L 95.676016 35.992765 L 96.150441 36.164859 L 96.319879 36.548344 L 96.700775 36.593062 L 97.318884 37.933226 L 97.603539 37.90748 L 97.828552 38.435957 L 98.246046 38.316711 L 98.363975 38.856029 L 98.183693 38.923782 L 99.086457 39.240869 L 99.45922 39.833034 L 101.226794 39.614868 L 101.415209 40.114889 L 101.393521 42.151559 L 102.083471 42.605508 L 100.768634 43.861658 L 99.883492 44.033752 L 99.531062 44.673345 L 98.965818 44.629983 L 98.739449 44.384715 L 98.138962 44.947069 L 98.395152 45.471481 L 97.855662 46.289944 L 97.629293 46.380733 L 97.476122 46.100234 L 96.944765 46.728986 L 96.589624 46.70866 L 96.326657 47.139573 L 95.345274 47.66805 L 95.205657 48.093542 L 95.619085 48.131484 L 95.873919 48.661317 L 95.700415 50.028582 L 96.771261 51.814565 L 96.317168 51.726485 L 95.819699 52.246832 L 95.160925 52.139782 L 94.693277 52.389115 L 94.194453 53.508403 L 94.231051 54.439336 L 93.606165 54.363452 L 93.46926 54.928516 L 92.681713 54.779458 L 92.208643 55.344523 L 91.654243 54.90277 L 91.388565 53.485366 L 91.620356 52.353883 L 91.40212 51.879608 L 91.444141 50.996102 L 90.371939 49.1112 L 90.614574 48.794113 L 90.582042 48.357781 L 90.088639 48.295448 L 89.741631 47.826593 L 89.852782 47.741224 L 90.054752 47.08266 L 89.622347 46.239806 L 89.627769 45.82922 L 90.187591 45.663901 L 89.989688 44.635403 L 90.333985 43.984969 L 90.826032 43.643492 L 91.178462 43.677368 L 91.442785 43.986324 L 92.524475 44.170614 L 92.773887 43.718021 L 92.416035 43.300659 L 91.689486 43.173282 L 91.792505 42.960536 L 90.964293 42.409023 L 90.779945 41.647473 L 89.9558 41.469959 L 89.737564 40.610845 L 89.936823 40.024099 L 89.400045 39.646035 L 89.187231 39.018637 L 87.724645 37.644596 L 87.720578 37.381712 L 88.596232 36.159439 L 89.30516 36.102526 L 89.83245 35.758338 L 90.479024 35.766469 L 90.920917 35.168883 L 91.09171 34.716289 L 91.006314 33.679661 L 90.464113 33.366639 L 90.203857 34.007588 L 89.634546 33.588871 L 89.583037 32.914046 L 89.953089 32.312395 L 90.194368 32.101004 L 91.436008 31.918069 L 91.463118 31.294737 L 92.143579 30.170029 L 94.000616 30.302826 L 94.853227 29.745892 Z M 95.444225 30.297406 " stroke="rgb(100%, 100%, 100%)" stroke-width="0.5" stroke-opacity="1" stroke-miterlimit="4"/><path stroke-linecap="butt" transform="matrix(2.881775, 0, 0, 2.882692, 0.57621, 6.775192)" fill-opacity="1" fill="rgb(17.248535%, 44.309998%, 94.119263%)" fill-rule="nonzero" stroke-linejoin="miter" d="M 111.012158 80.863204 L 111.351033 79.781858 L 111.786149 80.088104 L 111.668221 80.344212 L 111.920344 81.080015 L 112.861062 81.479761 L 113.067098 81.861891 L 113.346331 81.879507 L 113.236536 82.062441 L 113.876332 81.974362 L 114.914646 82.22776 L 115.070529 83.245418 L 114.562216 84.128923 L 115.035286 85.405399 L 116.264726 85.357972 L 117.942836 84.540865 L 118.219359 84.710248 L 117.834396 85.210269 L 119.211586 86.66426 L 119.272583 87.256425 L 125.045663 87.610099 L 124.667479 89.115582 L 124.072414 89.645414 L 123.63052 90.91647 L 123.865022 91.679374 L 123.783692 92.401627 L 123.293 92.652315 L 122.707424 92.407047 L 122.527142 92.102156 L 122.167934 92.518163 L 122.394303 92.711938 L 123.276734 92.776981 L 123.897554 93.240415 L 123.860955 93.369147 L 122.311617 92.767496 L 120.756857 92.541199 L 121.471206 91.908381 L 120.990003 91.738997 L 120.298698 92.179395 L 120.500667 91.909736 L 120.046575 91.386679 L 119.709055 91.476114 L 119.446087 91.925997 L 119.192609 91.920577 L 118.837467 92.434148 L 120.530488 92.538489 L 118.615165 92.65367 L 117.950969 92.904358 L 117.171556 93.751277 L 114.475464 94.550768 L 113.071165 95.294702 L 111.47574 95.430209 L 109.950801 95.007427 L 108.176449 94.054812 L 105.328541 93.768893 L 103.08112 92.427373 L 101.365055 91.978845 L 102.303062 91.262013 L 102.396592 90.855492 L 103.226158 90.130529 L 103.265468 89.856805 L 103.880866 89.492291 L 104.066569 88.909611 L 103.620609 88.31609 L 103.551479 87.692758 L 102.975391 87.432584 L 103.197693 86.847194 L 103.074342 85.921681 L 102.522653 84.696698 L 102.908971 83.611287 L 103.887643 82.982534 L 104.878514 82.861933 L 105.70537 83.216961 L 106.049668 82.799599 L 105.484424 82.314484 L 105.896496 81.439109 L 106.532226 81.261595 L 106.674554 81.525834 L 106.40752 81.882217 L 107.349593 83.336207 L 108.234736 82.260282 L 109.262206 82.380883 L 109.644457 81.902543 L 110.460469 81.730449 Z M 111.012158 80.863204 " stroke="rgb(100%, 100%, 100%)" stroke-width="0.5" stroke-opacity="1" stroke-miterlimit="4"/><path stroke-linecap="butt" transform="matrix(2.881775, 0, 0, 2.882692, 0.57621, 6.775192)" fill-opacity="1" fill="rgb(17.248535%, 44.309998%, 94.119263%)" fill-rule="nonzero" stroke-linejoin="miter" d="M 104.489486 69.162173 L 105.076418 67.929059 L 105.724347 67.943965 L 105.721636 68.305769 L 105.47358 68.457537 L 105.844987 68.599819 L 105.802966 68.939942 L 106.514605 69.582245 L 106.210972 70.080911 L 105.885652 69.895266 L 105.648439 70.049744 L 105.754168 71.338416 L 106.304502 71.404814 L 106.59729 71.80456 L 107.334683 70.994228 L 108.76067 71.495604 L 107.466167 74.522831 L 107.702024 75.490351 L 109.316426 76.113683 L 109.434355 76.490393 L 109.294738 76.657066 L 108.321488 76.612349 L 108.386552 78.031108 L 107.997523 78.628693 L 107.997523 79.233055 L 108.241513 79.604344 L 109.011438 79.829286 L 109.353024 80.612516 L 109.641746 80.632842 L 110.114816 80.258843 L 110.635329 80.426872 L 111.009447 80.863204 L 110.459114 81.730449 L 109.641746 81.902543 L 109.259495 82.380883 L 108.23338 82.260282 L 107.349593 83.337562 L 106.404809 81.882217 L 106.674554 81.525834 L 106.529515 81.261595 L 105.893785 81.439109 L 105.484424 82.314484 L 106.046957 82.799599 L 105.704015 83.216961 L 104.878514 82.861933 L 103.884932 82.982534 L 102.907616 83.611287 L 102.25833 83.050287 L 101.393521 83.260323 L 101.367766 83.042157 L 100.519222 82.681708 L 100.642573 82.32397 L 100.039375 82.364622 L 99.794029 81.910673 L 99.247762 81.54616 L 99.258606 81.299537 L 100.337585 80.332017 L 100.997714 80.841523 L 101.108865 80.696531 L 100.85132 79.111098 L 101.409787 77.681499 L 101.218661 75.345358 L 101.594135 75.361619 L 102.820863 76.650291 L 103.640942 77.102884 L 104.435266 76.533755 L 105.00051 76.715334 L 105.534577 76.074386 L 106.411587 75.925328 L 106.468518 75.692256 L 105.835498 75.044533 L 105.236367 75.033692 L 105.263477 74.684084 L 104.291582 73.781607 L 103.756159 74.185418 L 103.34002 74.108179 L 103.197693 73.152855 L 103.673474 71.560647 L 103.579944 71.11754 L 103.151606 71.215105 L 103.010634 70.93054 L 103.742604 70.55654 L 104.504396 69.76789 Z M 104.489486 69.162173 " stroke="rgb(100%, 100%, 100%)" stroke-width="0.5" stroke-opacity="1" stroke-miterlimit="4"/><path stroke-linecap="butt" transform="matrix(2.881775, 0, 0, 2.882692, 0.57621, 6.775192)" fill-opacity="1" fill="rgb(17.248535%, 44.309998%, 94.119263%)" fill-rule="nonzero" stroke-linejoin="miter" d="M 98.903465 65.550911 L 98.644564 66.183729 L 97.813641 66.443902 L 97.569651 66.300265 L 97.236198 66.59025 L 97.027451 67.575386 L 96.397143 68.42095 L 96.52456 68.828826 L 94.960311 69.536173 L 94.756986 70.857366 L 94.515707 71.289633 L 94.156499 71.255757 L 94.324581 71.79914 L 93.936908 72.205661 L 93.420462 72.267994 L 92.233042 70.914279 L 91.459051 69.915592 L 91.460407 69.368144 L 91.107976 68.719065 L 91.23946 67.952096 L 91.384499 67.666176 L 93.162916 67.544219 L 93.340487 67.240684 L 93.505858 67.336894 L 93.621076 66.721692 L 94.075169 66.046867 L 94.382868 65.933041 L 94.732587 66.286714 L 95.36154 65.90865 L 95.512 65.381527 L 95.01182 65.258216 L 95.243611 64.872021 L 95.164992 64.357094 L 95.045708 64.241913 L 95.559443 63.985805 L 96.111132 64.702637 L 97.122336 64.724318 L 97.336505 64.164674 L 97.709268 64.082015 Z M 98.903465 65.550911 " stroke="rgb(100%, 100%, 100%)" stroke-width="0.5" stroke-opacity="1" stroke-miterlimit="4"/><path fill="rgb(17.248535%, 44.309998%, 94.119263%)" d="M 465.082031 206.621094 L 463.792969 208.984375 L 461.179688 211.53125 L 460.863281 209.421875 L 462.195312 207.238281 L 463.496094 207.441406 Z M 429.832031 247.316406 L 429.6875 245.886719 L 431.4375 243.496094 L 431.335938 238.984375 L 430.394531 236.042969 L 430.730469 231.589844 L 431.648438 230.816406 L 431.757812 227.410156 L 429.769531 224.6875 L 425.902344 221.160156 L 426.855469 218.355469 L 428.917969 218.257812 L 431.140625 216.835938 L 433.25 216.574219 L 434.371094 215.539062 L 434.996094 216.074219 L 436.109375 214.554688 L 440.355469 212.792969 L 441.375 210.890625 L 442.710938 211.84375 L 442.570312 210.570312 L 443.441406 208.960938 L 446.5625 209.019531 L 451.195312 205.902344 L 453.304688 201.050781 L 452.589844 198.621094 L 453.457031 195.839844 L 453.265625 192.746094 L 457.730469 193.792969 L 459.480469 192.976562 L 459.617188 191.226562 L 460.972656 191.65625 L 462.761719 194.039062 L 463.324219 196.398438 L 464.136719 195.003906 L 463.710938 193.859375 L 464.089844 193.984375 L 463.921875 197.40625 L 464.730469 198.367188 L 461.65625 204.5 L 457.414062 208.398438 L 454.964844 212.257812 L 454.144531 214.578125 L 454.847656 217.558594 L 454.511719 218.355469 L 454.015625 218.839844 L 454.832031 217.53125 L 454.4375 216.964844 L 453.863281 218.757812 L 452.683594 219.019531 L 451.738281 220.605469 L 450.324219 220.851562 L 450.214844 221.957031 L 451.292969 222.5 L 451.296875 223.449219 L 452.160156 222.667969 L 453.433594 222.847656 L 453.761719 222.15625 L 455.074219 222.5 L 454.644531 223.953125 L 453.492188 225.066406 L 453.265625 224.589844 L 451.832031 225.453125 L 451.085938 227.625 L 452.085938 228.066406 L 453.265625 226.441406 L 453.992188 226.3125 L 453.796875 227.128906 L 454.5625 226.429688 L 453.277344 227.960938 L 448.828125 243.359375 L 448.03125 243.078125 L 448.292969 241.097656 L 447.429688 240.414062 L 447.539062 239.816406 L 445.410156 238.644531 L 446.578125 236.199219 L 445.542969 233.261719 L 443.589844 235.570312 L 444.171875 235.464844 L 442.28125 238.914062 L 439.527344 238.914062 L 438.992188 239.390625 L 436.292969 245.476562 L 434.183594 247.523438 L 434.246094 248.453125 L 431.644531 246.414062 Z M 459.378906 191.121094 L 456.921875 192.335938 L 456.113281 191.589844 L 457.929688 191.855469 Z M 459.378906 191.121094 " fill-opacity="1" fill-rule="nonzero"/><g clip-path="url(#id4)"><path stroke-linecap="butt" transform="matrix(2.881775, 0, 0, 2.882692, 0.57621, 6.775192)" fill="none" stroke-linejoin="miter" d="M 161.187396 69.326137 L 160.74008 70.145954 L 159.83325 71.02946 L 159.723454 70.297722 L 160.18568 69.540238 L 160.637062 69.610701 Z M 148.955352 83.443258 L 148.905198 82.947302 L 149.512463 82.117999 L 149.47722 80.552893 L 149.150544 79.532525 L 149.267117 77.987745 L 149.58566 77.719441 L 149.623614 76.53782 L 148.933664 75.593336 L 147.591717 74.369708 L 147.92246 73.396768 L 148.638164 73.362891 L 149.409445 72.869645 L 150.141415 72.778856 L 150.530444 72.419762 L 150.747324 72.605407 L 151.133642 72.078284 L 152.607072 71.467148 L 152.960858 70.807228 L 153.42444 71.137866 L 153.375642 70.696113 L 153.677918 70.137824 L 154.760964 70.15815 L 156.368589 69.076804 L 157.100559 67.393807 L 156.852502 66.550953 L 157.153424 65.586143 L 157.087004 64.512927 L 158.636342 64.876086 L 159.243607 64.592877 L 159.291049 63.985805 L 159.761408 64.134863 L 160.382228 64.961456 L 160.57742 65.779918 L 160.859364 65.296158 L 160.711615 64.899122 L 160.843098 64.942485 L 160.784812 66.129526 L 161.065401 66.462873 L 159.998621 68.590334 L 158.526547 69.942694 L 157.676647 71.281503 L 157.391992 72.086415 L 157.635982 73.120333 L 157.519409 73.396768 L 157.34726 73.564796 L 157.63056 73.110848 L 157.493655 72.914363 L 157.294396 73.53634 L 156.885035 73.627129 L 156.557003 74.177288 L 156.066312 74.262657 L 156.028358 74.646142 L 156.402476 74.834497 L 156.403832 75.163779 L 156.703397 74.892765 L 157.145291 74.955098 L 157.259153 74.715251 L 157.714601 74.834497 L 157.565496 75.338583 L 157.165623 75.724778 L 157.087004 75.55946 L 156.589535 75.85893 L 156.330634 76.612349 L 156.677643 76.765472 L 157.087004 76.201763 L 157.339127 76.157045 L 157.271352 76.440255 L 157.537031 76.197698 L 157.091071 76.728885 L 155.547155 82.070572 L 155.270632 81.973007 L 155.361451 81.285986 L 155.061885 81.048849 L 155.099839 80.841523 L 154.361091 80.435002 L 154.766386 79.586728 L 154.407178 78.567715 L 153.729427 79.368562 L 153.931397 79.331975 L 153.275334 80.528502 L 152.319706 80.528502 L 152.134002 80.69382 L 151.197351 82.80502 L 150.46538 83.515077 L 150.487068 83.837583 L 149.584304 83.130237 Z M 159.208364 63.949218 L 158.355753 64.370645 L 158.075165 64.111827 L 158.705473 64.203971 Z M 159.208364 63.949218 " stroke="rgb(100%, 100%, 100%)" stroke-width="0.5" stroke-opacity="1" stroke-miterlimit="4"/></g><path stroke-linecap="butt" transform="matrix(2.881775, 0, 0, 2.882692, 0.57621, 6.775192)" fill-opacity="1" fill="rgb(17.248535%, 44.309998%, 94.119263%)" fill-rule="nonzero" stroke-linejoin="miter" d="M 89.742986 47.826593 L 90.089995 48.295448 L 90.583397 48.357781 L 90.615929 48.794113 L 90.373295 49.1112 L 91.446852 50.996102 L 91.403476 51.879608 L 91.621711 52.353883 L 91.389921 53.485366 L 91.656954 54.90277 L 92.209999 55.344523 L 92.683069 54.779458 L 93.470615 54.928516 L 93.985706 55.948884 L 93.964018 57.284983 L 94.224274 57.6102 L 96.178907 58.087185 L 96.496094 57.679309 L 97.405636 58.337873 L 98.194537 59.660421 L 99.428044 59.679392 L 99.571727 59.518139 L 99.952623 59.757986 L 100.578864 59.701073 L 100.745591 59.942276 L 102.117358 60.21058 L 102.492832 61.077825 L 101.766283 61.233658 L 101.778483 61.884091 L 101.202395 61.970816 L 101.507383 62.048055 L 101.434186 62.455931 L 101.89099 62.900394 L 100.989581 63.529147 L 101.168507 64.197196 L 101.438252 64.241913 L 101.465362 64.916738 L 101.126487 64.912673 L 100.539555 65.882903 L 100.352496 65.61731 L 100.08004 66.09836 L 99.590704 65.884258 L 99.361624 65.399143 L 98.90482 65.550911 L 97.710623 64.082015 L 97.337861 64.164674 L 97.123691 64.724318 L 96.111132 64.702637 L 95.560798 63.985805 L 95.047063 64.241913 L 95.166347 64.357094 L 94.63228 64.625398 L 94.170054 64.447884 L 93.725449 64.591522 L 92.593606 63.636197 L 91.807415 63.377379 L 91.589179 63.525081 L 91.494294 64.119957 L 90.632195 64.250044 L 89.073369 63.20935 L 86.596868 62.506069 L 87.182444 61.037172 L 86.903211 60.256652 L 87.609427 58.448988 L 87.067227 57.936772 L 85.87303 59.009987 L 84.962133 59.148205 L 84.476864 58.335163 L 83.793691 58.149518 L 82.535786 57.169802 L 82.779776 55.803891 L 82.549341 54.688669 L 82.858395 54.310604 L 83.327399 54.498959 L 83.921108 54.381068 L 84.197631 53.882402 L 85.378272 53.282106 L 86.081777 52.242767 L 87.038761 51.921615 L 87.499632 51.012363 L 87.296307 50.773871 L 87.463033 50.077365 L 88.245158 49.677619 L 88.609787 48.910649 L 89.126233 48.823925 Z M 89.742986 47.826593 " stroke="rgb(100%, 100%, 100%)" stroke-width="0.5" stroke-opacity="1" stroke-miterlimit="4"/><path stroke-linecap="butt" transform="matrix(2.881775, 0, 0, 2.882692, 0.57621, 6.775192)" fill-opacity="1" fill="rgb(17.248535%, 44.309998%, 94.119263%)" fill-rule="nonzero" stroke-linejoin="miter" d="M 52.896393 44.993142 L 53.286778 45.289902 L 53.354553 46.246581 L 52.90046 45.581242 Z M 51.923144 44.57849 L 52.934348 45.688293 L 53.09023 46.197799 Z M 47.451345 37.891219 L 47.658736 37.914255 L 47.649248 38.250312 L 48.008456 38.547073 L 48.093852 38.187979 L 47.711601 37.584973 L 47.741422 37.2313 L 47.79022 37.609364 L 47.967791 37.453531 L 48.309377 38.01182 L 49.56186 37.315314 L 49.679789 36.636424 L 50.506645 36.437228 L 50.922784 35.658063 L 51.298257 35.546947 L 51.239971 35.044216 L 51.932632 33.897827 L 53.056343 33.930349 L 53.080742 34.515739 L 53.452149 34.514384 L 53.664963 34.984593 L 53.650052 36.233968 L 53.934708 36.418257 L 54.823916 38.757109 L 56.714841 39.188021 L 57.850751 41.39272 L 58.040521 41.643408 L 57.449523 42.247769 L 57.681313 42.513363 L 57.412924 43.162442 L 57.29364 44.594751 L 57.986301 45.696423 L 57.919881 45.989118 L 58.162516 46.181538 L 58.734538 46.139531 L 58.916175 46.666653 L 59.183209 46.726276 L 60.179502 49.149142 L 60.896562 49.065127 L 61.596001 48.424179 L 62.412013 48.662672 L 63.103319 49.188439 L 63.709228 50.494726 L 64.087413 52.01105 L 64.834294 52.989411 L 65.080995 54.334995 L 65.625907 55.67245 L 66.332123 55.593856 L 66.760461 56.034253 L 66.070511 57.476048 L 66.547648 58.346003 L 66.521893 58.938169 L 65.398182 58.5723 L 65.201635 57.730801 L 65.224678 59.15227 L 64.472375 57.977424 L 61.716641 55.207661 L 62.054161 55.332327 L 61.761372 55.10061 L 61.53907 55.1914 L 61.044312 54.13851 L 59.616969 52.707556 L 59.208963 51.673638 L 57.689446 50.267075 L 57.937503 50.234553 L 57.869728 50.010966 L 57.610827 50.130213 L 54.597548 48.069151 L 56.0764 48.990599 L 56.232282 48.575947 L 55.87443 47.929579 L 55.616885 47.934999 L 55.638573 48.215498 L 55.412204 48.264281 L 55.192613 47.975651 L 54.860515 48.04476 L 54.49453 47.555579 L 53.68394 47.264239 L 53.259668 46.494559 L 53.62972 46.674784 L 53.769336 46.436291 L 53.555167 46.195089 L 53.637853 45.471481 L 53.271867 44.812917 L 52.777109 44.68012 L 52.332505 44.170614 L 52.001763 44.170614 L 52.023451 43.942962 L 51.771327 43.825071 L 51.64391 44.243788 L 51.265725 43.807455 L 50.174547 43.261362 L 50.205723 43.035065 L 49.93869 43.105529 L 49.630991 42.636675 L 49.679789 42.240994 L 49.103701 42.113617 L 48.983061 42.697653 L 48.671296 42.44561 L 48.324287 42.696298 L 47.954236 42.265385 L 48.284978 41.980821 L 48.65503 42.0689 L 48.931552 41.800596 L 48.863777 41.536358 L 48.435439 41.656959 L 48.259223 42.026893 L 47.782087 42.013342 L 47.360526 41.468604 L 47.604516 41.945589 L 46.703108 41.636633 L 47.078582 41.623082 L 47.093492 41.226046 L 46.450985 41.00788 L 46.28968 39.925179 L 47.291395 37.933226 L 47.008096 38.759819 L 47.158556 38.835703 Z M 47.451345 37.891219 " stroke="rgb(100%, 100%, 100%)" stroke-width="0.5" stroke-opacity="1" stroke-miterlimit="4"/><path fill="rgb(17.248535%, 44.309998%, 94.119263%)" d="M 137.910156 116.070312 L 137.3125 116.003906 Z M 117.113281 99.050781 L 117.980469 100.339844 L 117.105469 99.808594 Z M 92.613281 68.289062 L 93.902344 72.078125 L 92.25 76.359375 L 88.28125 74.238281 L 89.59375 73.019531 L 89.367188 71.128906 L 90.128906 68.878906 Z M 58.304688 25.792969 L 58.765625 26.234375 L 57.914062 25.996094 Z M 56.132812 24.738281 L 57.910156 26.410156 L 58.050781 27.441406 L 56.058594 26.269531 Z M 143.789062 33.019531 L 144.398438 33.628906 L 143.851562 34.371094 L 145.253906 38.070312 L 144.980469 39.871094 L 144.042969 40.273438 L 145.632812 41.816406 L 145.679688 43.226562 L 146.285156 43.761719 L 145.960938 45.171875 L 147.6875 50.304688 L 147.125 52.242188 L 147.96875 53.011719 L 146.886719 58.027344 L 147.851562 59.179688 L 148.242188 62.804688 L 147.828125 68.699219 L 146.855469 69.390625 L 146.796875 70.957031 L 145.929688 71.699219 L 146.167969 75.46875 L 145.195312 77.597656 L 145.4375 80.425781 L 147.648438 81.980469 L 144.714844 84.121094 L 142.9375 83.296875 L 140.621094 84.078125 L 140.015625 84.886719 L 141.035156 85.863281 L 140.910156 87.875 L 141.976562 88.304688 L 143.195312 90.039062 L 143 92.433594 L 144.945312 93.804688 L 146.828125 98.21875 L 145.960938 103.570312 L 148.019531 104.644531 L 150.222656 104.511719 L 148.226562 107.8125 L 148.394531 109.261719 L 147.308594 109.582031 L 146.109375 111.832031 L 143.730469 112.402344 L 143.390625 114.359375 L 139.78125 116.371094 L 138.796875 114.761719 L 138.285156 115.210938 L 138.144531 114.121094 L 138.058594 115.140625 L 137.667969 115.460938 L 134.882812 110.96875 L 133.546875 110.292969 L 134.183594 110.175781 L 133.410156 109.222656 L 132.769531 108.953125 L 132.597656 110.015625 L 130.75 110.351562 L 128.582031 109.167969 L 126.664062 105.15625 L 127.335938 105.855469 L 127.039062 103.9375 L 126.03125 103.136719 L 124.984375 103.671875 L 121.484375 102.554688 L 118.898438 100.378906 L 118.894531 98.957031 L 117.816406 98.632812 L 116.726562 94.847656 L 117.589844 93.828125 L 117.011719 94.21875 L 117.515625 93.117188 L 117.140625 91.746094 L 118.050781 91.09375 L 113.867188 89.46875 L 112.914062 89.976562 L 113.125 91.117188 L 111.847656 90.28125 L 111.726562 89.453125 L 110.175781 89.730469 L 108.738281 88.746094 L 107.261719 87.332031 L 104.621094 82.738281 L 100.941406 81.128906 L 100.171875 78.945312 L 97.554688 76.085938 L 98.183594 75.707031 L 98.492188 76.386719 L 98.851562 75.652344 L 96.289062 74.519531 L 95.316406 72.980469 L 94.203125 72.660156 L 94.328125 70.300781 L 93.390625 69.171875 L 93.34375 67.066406 L 90.757812 66.457031 L 91.222656 64.179688 L 88.28125 60.335938 L 87.046875 57.339844 L 85.84375 56.921875 L 85.46875 51.792969 L 84.335938 50.695312 L 83.707031 47.753906 L 82.300781 46.558594 L 80.824219 43.84375 L 80.292969 41.839844 L 81.363281 37.554688 L 80.78125 35.554688 L 78.773438 34.140625 L 78.296875 34.566406 L 73.078125 33.136719 L 72.601562 30.335938 L 68.96875 28.121094 L 67.953125 28.542969 L 68.175781 29.164062 L 67.105469 30.359375 L 65.445312 30.300781 L 58.992188 25.839844 L 55.941406 24.734375 L 52.628906 22.496094 L 53.273438 18.070312 L 52.460938 16.910156 L 54.171875 13.234375 L 55.71875 13.160156 L 110.253906 33.089844 Z M 143.789062 33.019531 " fill-opacity="1" fill-rule="nonzero"/><g clip-path="url(#id5)"><path stroke-linecap="butt" transform="matrix(2.881775, 0, 0, 2.882692, 0.57621, 6.775192)" fill="none" stroke-linejoin="miter" d="M 47.656025 37.914255 L 47.448634 37.891219 Z M 40.439336 32.010214 L 40.740257 32.457387 L 40.436625 32.273098 Z M 31.937632 21.339037 L 32.384947 22.653455 L 31.81157 24.138612 L 30.434381 23.402808 L 30.889829 22.980027 L 30.81121 22.324173 L 31.075533 21.543652 Z M 20.032263 6.597228 L 20.192213 6.750351 L 19.896713 6.667692 Z M 19.278605 6.231359 L 19.895358 6.811329 L 19.944156 7.169068 L 19.25285 6.762547 Z M 49.696055 9.104108 L 49.907513 9.315499 L 49.717743 9.572962 L 50.204368 10.856214 L 50.109483 11.480901 L 49.784162 11.620473 L 50.335851 12.155726 L 50.352117 12.644906 L 50.56222 12.830551 L 50.449714 13.319731 L 51.048845 15.100293 L 50.853653 15.772408 L 51.146441 16.039357 L 50.770967 17.779267 L 51.105776 18.179013 L 51.241326 19.436518 L 51.097643 21.481319 L 50.760123 21.721166 L 50.739791 22.26455 L 50.43887 22.522013 L 50.521555 23.829656 L 50.184035 24.568169 L 50.268076 25.54924 L 51.03529 26.088558 L 50.017309 26.831136 L 49.400556 26.545216 L 48.596743 26.81623 L 48.386641 27.09673 L 48.740426 27.435497 L 48.69705 28.133358 L 49.067102 28.282416 L 49.490019 28.884067 L 49.422244 29.714725 L 50.097283 30.190355 L 50.750635 31.721584 L 50.449714 33.57803 L 51.164063 33.950675 L 51.928566 33.904602 L 51.235904 35.049637 L 51.294191 35.552368 L 50.917362 35.663483 L 50.501223 36.444004 L 49.675722 36.641844 L 49.557794 37.320734 L 48.30531 38.018595 L 47.963724 37.460306 L 47.786153 37.61614 L 47.737355 37.238075 L 47.707534 37.591748 L 47.571984 37.702864 L 46.605512 36.144533 L 46.14193 35.910106 L 46.362877 35.869454 L 46.094488 35.538817 L 45.872186 35.445317 L 45.812543 35.813896 L 45.171391 35.930432 L 44.419088 35.519846 L 43.753537 34.128189 L 43.986683 34.370746 L 43.883665 33.705407 L 43.533946 33.427618 L 43.170671 33.613262 L 41.956142 33.225712 L 41.0588 32.470938 L 41.057445 31.977693 L 40.683326 31.865222 L 40.305142 30.552159 L 40.604707 30.198485 L 40.404093 30.333992 L 40.578953 29.951863 L 40.448825 29.476233 L 40.764656 29.249936 L 39.312915 28.686227 L 38.982172 28.862386 L 39.055369 29.258067 L 38.61212 28.968082 L 38.5701 28.680807 L 38.031966 28.777017 L 37.533141 28.435539 L 37.020762 27.945004 L 36.104443 26.351441 L 34.827561 25.793152 L 34.560527 25.035668 L 33.652341 24.043757 L 33.870577 23.912315 L 33.977661 24.148097 L 34.102367 23.893344 L 33.213158 23.500374 L 32.875639 22.966476 L 32.489321 22.85536 L 32.532697 22.036898 L 32.207376 21.645282 L 32.19111 20.9149 L 31.293769 20.703509 L 31.455073 19.913503 L 30.434381 18.580114 L 30.006042 17.540775 L 29.588548 17.395782 L 29.45842 15.616575 L 29.065324 15.235801 L 28.847089 14.215433 L 28.359108 13.800781 L 27.846729 12.859007 L 27.66238 12.163856 L 28.033788 10.677344 L 27.831818 9.983548 L 27.13509 9.493013 L 26.969719 9.640716 L 25.15877 9.14476 L 24.993398 8.173175 L 23.732782 7.40485 L 23.380352 7.551198 L 23.457615 7.766654 L 23.086208 8.181305 L 22.51012 8.160979 L 20.270832 6.613489 L 19.212185 6.230004 L 18.06272 5.453549 L 18.286378 3.918254 L 18.004433 3.515799 L 18.598143 2.240678 L 19.134922 2.214931 L 38.059076 9.128499 Z M 49.696055 9.104108 " stroke="rgb(100%, 100%, 100%)" stroke-width="0.5" stroke-opacity="1" stroke-miterlimit="4"/></g><path stroke-linecap="butt" transform="matrix(2.881775, 0, 0, 2.882692, 0.57621, 6.775192)" fill-opacity="1" fill="rgb(17.248535%, 44.309998%, 94.119263%)" fill-rule="nonzero" stroke-linejoin="miter" d="M 132.156624 79.695134 L 132.514476 80.631487 L 133.143428 81.059689 L 133.341332 80.98245 L 134.085502 82.627506 L 134.962511 83.38499 L 135.976426 83.714272 L 136.576913 83.561149 L 136.632489 82.784694 L 137.195022 82.758947 L 137.932415 82.920201 L 138.737583 83.548953 L 139.679656 83.78338 L 139.675589 84.115373 L 139.632213 87.045034 L 137.498654 87.081621 L 137.758911 86.816028 L 137.536608 86.454224 L 136.357322 85.971819 L 136.507783 85.433856 L 136.251593 84.767161 L 135.733792 84.512408 L 135.510134 83.832163 L 134.90558 83.940569 L 134.523329 83.685815 L 134.381001 84.05846 L 133.631409 83.96767 L 133.529746 84.627589 L 132.865551 84.868792 L 130.696749 86.526042 L 130.146415 85.761783 L 129.624547 85.738747 L 129.685545 85.362037 L 129.265339 84.921639 L 129.57846 83.844359 L 129.014571 83.861975 L 128.14434 83.277939 L 127.699735 83.455453 L 127.549274 84.886408 L 126.383543 86.626318 L 125.993159 86.473195 L 125.734258 84.952806 L 124.819295 84.535444 L 124.033104 83.852489 L 123.798602 82.291448 L 124.206608 82.158651 L 123.748449 82.080057 L 124.129345 81.899833 L 125.030753 81.594942 L 125.059218 81.84563 L 125.597353 81.750775 L 125.799322 81.388971 L 126.471651 81.414718 L 126.569247 81.047494 L 127.454389 80.846943 L 128.541501 80.800871 L 128.719072 80.88353 L 128.599788 81.17487 L 129.070147 81.149124 L 128.777359 80.88624 L 130.028486 80.788675 L 131.099332 79.901104 Z M 132.156624 79.695134 " stroke="rgb(100%, 100%, 100%)" stroke-width="0.5" stroke-opacity="1" stroke-miterlimit="4"/><path stroke-linecap="butt" transform="matrix(2.881775, 0, 0, 2.882692, 0.57621, 6.775192)" fill-opacity="1" fill="rgb(17.248535%, 44.309998%, 94.119263%)" fill-rule="nonzero" stroke-linejoin="miter" d="M 106.980897 43.942962 L 106.499694 45.383402 L 106.486139 44.924033 Z M 105.222812 60.374543 L 104.818872 60.657753 L 104.184498 59.882653 L 103.360353 59.527624 L 103.213959 59.264741 L 102.701579 59.323009 L 102.663625 59.604863 L 102.262397 59.692943 L 101.779838 59.44632 L 100.578864 59.701073 L 99.952623 59.756631 L 99.570371 59.518139 L 99.428044 59.676682 L 98.193182 59.659066 L 97.402925 58.335163 L 96.493383 57.676598 L 96.176196 58.084475 L 94.222918 57.60749 L 93.964018 57.280918 L 93.985706 55.944819 L 93.470615 54.924451 L 93.607521 54.359387 L 94.235118 54.435271 L 94.198519 53.504337 L 94.697344 52.385049 L 95.163636 52.135716 L 95.82241 52.245477 L 96.319879 51.72242 L 96.773972 51.81321 L 95.703126 50.027227 L 95.87663 48.658606 L 95.623151 48.127419 L 95.207012 48.088122 L 95.345274 47.663985 L 96.328012 47.135508 L 96.592335 46.704595 L 96.946121 46.726276 L 97.480188 46.098879 L 97.63336 46.379378 L 97.857018 46.288589 L 98.396507 45.468771 L 98.140317 44.943004 L 98.740804 44.38065 L 98.964462 44.625918 L 99.531062 44.67199 L 99.882137 44.029687 L 100.767279 43.857593 L 102.083471 42.601443 L 101.393521 42.148849 L 101.416564 40.110824 L 101.228149 39.608093 L 99.460576 39.826259 L 99.087813 39.234093 L 98.185049 38.917007 L 98.366686 38.850608 L 98.250113 38.311291 L 97.831263 38.430537 L 97.60625 37.900704 L 97.320239 37.925096 L 96.70213 36.587641 L 96.321235 36.541569 L 96.150441 36.156729 L 95.67466 35.984635 L 95.816988 35.074028 L 95.162281 34.793528 L 95.135171 34.567232 L 95.63264 33.802972 L 95.547243 33.157959 L 95.315453 32.927597 L 95.311386 32.152497 L 95.055196 31.976337 L 95.28292 31.511548 L 94.351691 31.382817 L 94.492663 30.866535 L 95.055196 30.705282 L 95.444225 30.289275 L 96.086733 30.445108 L 96.516427 30.889571 L 96.439163 31.236469 L 96.677731 31.34352 L 96.409342 32.331366 L 96.867502 32.679619 L 96.864791 33.947965 L 97.679447 34.872122 L 98.251468 36.658105 L 98.641853 37.006358 L 98.546968 37.259756 L 98.74216 37.465727 L 100.115283 37.633755 L 100.749657 38.274704 L 101.93301 38.444087 L 103.167872 39.389926 L 105.144193 39.349274 L 105.362428 39.541694 L 105.94665 39.538984 L 107.059516 40.579678 L 107.364504 40.525475 L 107.483788 40.068817 L 108.496348 39.94415 L 108.230669 41.711162 L 107.089337 43.948382 L 106.929388 43.898245 L 107.24522 43.029645 L 106.532226 42.620414 L 106.330256 42.83858 L 106.726063 43.22342 L 106.411587 43.362992 L 106.545781 43.648912 L 106.391254 43.705825 L 106.330256 43.429391 L 106.162174 43.552702 L 106.087622 43.208514 L 105.725703 43.161087 L 105.600997 43.768158 L 105.272965 43.776289 L 105.84092 44.28986 L 105.424782 45.360366 L 105.90734 45.638155 L 105.469513 46.079908 L 105.647084 47.238493 L 105.470869 48.093542 L 105.339385 47.703282 L 104.967978 47.628753 L 104.874448 47.902477 L 105.114372 48.848316 L 105.415293 48.34694 L 105.462736 48.998729 L 105.32583 50.292821 L 105.130638 50.344314 L 105.309564 50.431038 L 105.450536 52.668259 L 105.510178 52.067963 L 105.338029 56.965187 L 104.683322 58.457119 L 104.881225 58.604821 L 104.810739 59.370436 Z M 105.222812 60.374543 " stroke="rgb(100%, 100%, 100%)" stroke-width="0.5" stroke-opacity="1" stroke-miterlimit="4"/><path stroke-linecap="butt" transform="matrix(2.881775, 0, 0, 2.882692, 0.57621, 6.775192)" fill-opacity="1" fill="rgb(17.248535%, 44.309998%, 94.119263%)" fill-rule="nonzero" stroke-linejoin="miter" d="M 103.34002 74.108179 L 103.756159 74.185418 L 104.291582 73.781607 L 105.263477 74.684084 L 105.236367 75.033692 L 105.835498 75.044533 L 106.468518 75.692256 L 106.411587 75.925328 L 105.534577 76.074386 L 105.00051 76.715334 L 104.435266 76.533755 L 103.640942 77.102884 L 102.820863 76.650291 L 101.594135 75.361619 L 101.218661 75.345358 L 100.764568 74.904961 L 102.400658 74.548577 L 102.858817 74.007904 Z M 103.34002 74.108179 " stroke="rgb(100%, 100%, 100%)" stroke-width="0.5" stroke-opacity="1" stroke-miterlimit="4"/><path stroke-linecap="butt" transform="matrix(2.881775, 0, 0, 2.882692, 0.57621, 6.775192)" fill-opacity="1" fill="rgb(17.248535%, 44.309998%, 94.119263%)" fill-rule="nonzero" stroke-linejoin="miter" d="M 107.196422 64.538674 L 106.883301 65.151166 L 106.857546 64.846275 Z M 106.117443 62.622605 L 107.578673 64.099631 L 106.995808 65.649831 L 107.288596 64.27037 L 106.101177 62.897684 L 105.724347 62.015533 Z M 100.577509 59.701073 L 101.778483 59.44632 L 102.261041 59.692943 L 102.660914 59.604863 L 102.700224 59.323009 L 103.212603 59.264741 L 103.358997 59.527624 L 104.183142 59.882653 L 104.817517 60.657753 L 105.221456 60.374543 L 105.790767 63.558958 L 106.350589 64.629464 L 106.761306 64.712123 L 106.785705 65.32868 L 108.329621 68.939942 L 112.028784 73.329014 L 112.393414 74.835852 L 112.699757 75.266764 L 112.797353 76.161111 L 113.625565 76.753276 L 113.950885 77.476884 L 114.43751 77.545992 L 114.807562 78.598882 L 115.5192 78.94036 L 115.520556 79.085352 L 114.913291 78.798077 L 115.210146 79.208664 L 115.016309 79.349591 L 115.549021 79.199178 L 115.592397 78.957976 L 116.50465 79.34146 L 118.429461 79.390243 L 119.154655 80.1003 L 120.375961 80.369959 L 120.671461 81.033943 L 121.236705 81.597652 L 121.350567 82.080057 L 121.890056 82.338876 L 124.122567 81.895768 L 123.741671 82.075992 L 124.198475 82.154586 L 123.790469 82.288738 L 124.026326 83.848424 L 124.812517 84.531379 L 125.727481 84.948741 L 125.986381 86.46913 L 126.37541 86.622252 L 125.040241 87.608744 L 119.267161 87.25507 L 119.206164 86.662905 L 117.83033 85.210269 L 118.213937 84.710248 L 117.937414 84.540865 L 116.257948 85.359327 L 115.029864 85.40811 L 114.555439 84.130278 L 115.066463 83.248128 L 114.906513 82.229115 L 113.869555 81.977072 L 113.228403 82.063796 L 113.335487 81.882217 L 113.05761 81.863246 L 112.851573 81.482471 L 111.9095 81.080015 L 111.657377 80.344212 L 111.77395 80.088104 L 111.340189 79.781858 L 111.001314 80.863204 L 110.627196 80.425517 L 110.105328 80.258843 L 109.630902 80.632842 L 109.34218 80.612516 L 109.000594 79.829286 L 108.230669 79.602989 L 107.985324 79.230345 L 107.985324 78.628693 L 108.375708 78.031108 L 108.306577 76.612349 L 109.281183 76.657066 L 109.419444 76.490393 L 109.302871 76.112328 L 107.688469 75.490351 L 107.453967 74.524186 L 108.749826 71.498314 L 107.322483 70.994228 L 106.585091 71.80456 L 106.292302 71.407525 L 105.743324 71.339771 L 105.637595 70.051099 L 105.873452 69.897976 L 106.200128 70.083621 L 106.502405 69.582245 L 105.790767 68.941297 L 105.834143 68.602529 L 105.46138 68.458892 L 105.710792 68.305769 L 105.713503 67.943965 L 105.061507 67.93177 L 104.475931 69.162173 L 104.012349 69.042927 L 102.10787 70.659526 L 101.828636 70.486077 L 101.591424 69.961665 L 101.827281 68.540196 L 102.506387 67.820654 L 102.869662 68.101153 L 103.16245 68.055081 L 103.228869 67.26643 L 103.604343 66.769119 L 103.094675 66.078034 L 101.991297 65.987244 L 101.621245 65.641701 L 101.680887 65.105093 L 101.449096 64.918093 L 101.423342 64.241913 L 101.153597 64.197196 L 100.974671 63.529147 L 101.874724 62.900394 L 101.419275 62.455931 L 101.491117 62.048055 L 101.186129 61.970816 L 101.762217 61.884091 L 101.750017 61.230948 L 102.475211 61.075114 L 102.102448 60.209225 L 100.73068 59.938211 Z M 100.577509 59.701073 " stroke="rgb(100%, 100%, 100%)" stroke-width="0.5" stroke-opacity="1" stroke-miterlimit="4"/><path stroke-linecap="butt" transform="matrix(2.881775, 0, 0, 2.882692, 0.57621, 6.775192)" fill-opacity="1" fill="rgb(17.248535%, 44.309998%, 94.119263%)" fill-rule="nonzero" stroke-linejoin="miter" d="M 157.085649 64.510217 L 157.152068 65.582078 L 156.851147 66.549598 L 157.100559 67.392452 L 156.369944 69.075449 L 154.762319 70.15815 L 153.680629 70.136469 L 153.378353 70.693403 L 153.428506 71.13651 L 152.963569 70.804518 L 152.609783 71.465793 L 151.136353 72.075574 L 150.751391 72.602696 L 150.533155 72.417052 L 150.145482 72.7775 L 149.413511 72.86558 L 148.640875 73.358826 L 147.926526 73.392702 L 147.594428 74.366998 L 147.346372 73.579702 L 146.469362 72.353364 L 145.691304 71.927871 L 144.620458 70.042969 L 144.197542 70.35599 L 143.693295 70.190672 L 143.496748 69.78415 L 142.661759 69.67981 L 142.695646 68.206849 L 142.946414 67.35722 L 142.542475 68.202784 L 142.603472 67.889762 L 143.022322 67.011677 L 145.515089 65.767722 L 150.497912 64.987202 L 151.514538 64.601007 L 151.6284 64.319152 L 153.391908 64.134863 L 154.117101 63.763574 L 155.579687 64.126732 L 155.884675 64.405877 L 156.791505 64.450594 L 156.028358 64.262239 Z M 157.085649 64.510217 " stroke="rgb(100%, 100%, 100%)" stroke-width="0.5" stroke-opacity="1" stroke-miterlimit="4"/><path stroke-linecap="butt" transform="matrix(2.881775, 0, 0, 2.882692, 0.57621, 6.775192)" fill-opacity="1" fill="rgb(17.248535%, 44.309998%, 94.119263%)" fill-rule="nonzero" stroke-linejoin="miter" d="M 80.160948 45.124583 L 80.292431 44.688251 L 81.38361 44.47144 L 83.284023 44.594751 L 84.302004 45.136779 L 85.134282 46.092103 L 85.665638 46.074488 L 85.790345 46.79403 L 87.007585 46.51624 L 87.605361 46.592124 L 88.523035 47.779166 L 88.945952 47.943129 L 89.424444 47.646369 L 89.852782 47.741224 L 89.741631 47.826593 L 89.124878 48.823925 L 88.608432 48.910649 L 88.243802 49.677619 L 87.461678 50.077365 L 87.294951 50.773871 L 87.498276 51.012363 L 87.037406 51.921615 L 86.080422 52.242767 L 85.376917 53.282106 L 84.196275 53.882402 L 83.919753 54.381068 L 83.326043 54.498959 L 82.85704 54.310604 L 82.547985 54.688669 L 82.778421 55.803891 L 82.53443 57.169802 L 83.792336 58.149518 L 84.475508 58.335163 L 84.960778 59.148205 L 85.871675 59.009987 L 87.065871 57.936772 L 87.608072 58.448988 L 86.901856 60.256652 L 87.181089 61.037172 L 86.595512 62.506069 L 86.431497 62.695778 L 86.234949 62.568402 L 84.787274 61.633403 L 84.071569 61.449114 L 83.72185 60.543927 L 82.252486 59.495103 L 81.929877 59.9355 L 80.650283 60.558833 L 79.538772 62.72017 L 80.026753 63.420741 L 80.139259 64.241913 L 80.700437 64.601007 L 80.41036 65.409984 L 79.224296 66.279939 L 78.640075 66.278584 L 78.446238 66.796221 L 78.12634 66.97509 L 77.780687 66.888365 L 77.088026 67.137698 L 76.502449 66.812482 L 76.045645 66.850424 L 75.552243 66.244707 L 75.012753 66.01841 L 76.065978 65.426245 L 76.01718 65.102383 L 75.487179 65.064441 L 75.316386 64.563065 L 76.00498 64.090146 L 76.034801 63.229676 L 76.983652 62.461351 L 78.050432 61.942359 L 78.431328 60.653688 L 77.792887 60.458557 L 77.864728 59.980218 L 77.425546 59.946341 L 77.046005 60.094044 L 76.983652 60.470753 L 77.233065 60.679434 L 76.563447 61.411172 L 75.451936 61.511447 L 75.352984 61.28786 L 76.124265 59.806769 L 76.003625 59.416509 L 75.432959 59.046574 L 74.612881 59.297262 L 74.612881 60.720086 L 74.535617 60.954513 L 74.301115 60.919281 L 74.057125 60.560188 L 74.065258 59.889428 L 74.955822 58.309416 L 74.591192 58.104801 L 73.616587 58.490996 L 73.978506 59.715979 L 73.769759 59.954471 L 73.406484 60.184833 L 73.456638 59.35553 L 72.830396 59.592668 L 72.758555 60.205159 L 72.484743 60.136051 L 72.266508 60.379963 L 71.994052 59.53982 L 72.433234 58.618372 L 73.131318 58.203721 L 73.007967 56.199572 L 73.409195 55.57353 L 73.687073 54.027394 L 74.722676 52.954179 L 74.43531 50.424263 L 74.920579 50.27927 L 76.720685 48.359136 L 77.959613 48.555621 L 78.640075 48.414694 L 79.380179 48.73178 L 79.53335 48.547491 L 81.098954 48.477027 L 81.025757 48.181622 L 81.222305 48.077281 L 81.016269 47.268304 L 80.772279 47.177515 L 80.934939 46.186958 L 80.240922 45.563626 Z M 80.160948 45.124583 " stroke="rgb(100%, 100%, 100%)" stroke-width="0.5" stroke-opacity="1" stroke-miterlimit="4"/></svg>