<svg width="155" height="269" viewBox="0 0 155 269" fill="none" xmlns="http://www.w3.org/2000/svg">
<path d="M9 79.5098L8.49207 76.7161C8.11111 74.3034 6.20635 72.3987 3.79365 72.0177L1 71.5098L3.79365 71.0018C6.20635 70.6209 8.11111 68.7161 8.49207 66.3034L9 63.5098L9.50793 66.3034C9.88889 68.7161 11.7937 70.6209 14.2064 71.0018L17 71.5098L14.2064 72.0177C11.7937 72.3987 9.88889 74.3034 9.50793 76.7161L9 79.5098Z" fill="white" stroke="black" stroke-width="1.54" stroke-miterlimit="10" stroke-linejoin="round"/>
<path d="M114.496 124L115.639 117.714C116.496 112.286 120.782 108 126.21 107.143L132.496 106L126.21 104.857C120.782 104 116.496 99.7143 115.639 94.2857L114.496 88L113.353 94.2857C112.496 99.7143 108.21 104 102.782 104.857L96.4961 106L102.782 107.143C108.21 108 112.496 112.286 113.353 117.714L114.496 124Z" fill="white" stroke="black" stroke-width="1.54" stroke-miterlimit="10" stroke-linejoin="round"/>
<path d="M142.996 63.5098L143.663 59.8431C144.163 56.6764 146.663 54.1764 149.829 53.6764L153.496 53.0098L149.829 52.3431C146.663 51.8431 144.163 49.3431 143.663 46.1764L142.996 42.5098L142.329 46.1764C141.829 49.3431 139.329 51.8431 136.163 52.3431L132.496 53.0098L136.163 53.6764C139.329 54.1764 141.829 56.6764 142.329 59.8431L142.996 63.5098Z" fill="white" stroke="black" stroke-width="1.54" stroke-miterlimit="10" stroke-linejoin="round"/>
<path d="M85.9961 58L87.8056 48.0476C89.1628 39.4524 95.9485 32.6667 104.544 31.3095L114.496 29.5L104.544 27.6905C95.9485 26.3333 89.1628 19.5476 87.8056 10.9524L85.9961 1L84.1866 10.9524C82.8294 19.5476 76.0437 26.3333 67.4485 27.6905L57.4961 29.5L67.4485 31.3095C76.0437 32.6667 82.8294 39.4524 84.1866 48.0476L85.9961 58Z" fill="white" stroke="black" stroke-width="1.54" stroke-miterlimit="10" stroke-linejoin="round"/>
<path d="M69.5664 110.151L72.2751 111.568V267.89H69.5664V110.151Z" fill="#2AE21D" stroke="black" stroke-width="1.54" stroke-miterlimit="10" stroke-linejoin="round"/>
<path d="M69.9634 111.398H59.6035V267.756H69.9634V111.398Z" fill="#FFF4E0" stroke="black" stroke-width="1.54" stroke-miterlimit="10" stroke-linejoin="round"/>
<path d="M71.0881 230.647H60.791V237.697H71.0881V230.647Z" fill="black" stroke="black" stroke-width="1.54" stroke-miterlimit="10" stroke-linejoin="round"/>
<path d="M71.0881 224.632H60.791V231.682H71.0881V224.632Z" fill="black" stroke="black" stroke-width="1.54" stroke-miterlimit="10" stroke-linejoin="round"/>
<path d="M114.275 209.412L128.737 221.793L114.275 234.175H5.75488V209.412H114.275Z" fill="#F78400" stroke="black" stroke-width="1.54" stroke-miterlimit="10" stroke-linejoin="round"/>
<path d="M114.274 209.412H118.035L132.498 221.793H128.737L114.274 209.412Z" fill="white" stroke="black" stroke-width="1.54" stroke-miterlimit="10" stroke-linejoin="round"/>
<path d="M128.737 221.793H132.498L118.035 234.174H114.274L128.737 221.793Z" fill="#00AC6B" stroke="black" stroke-width="1.54" stroke-miterlimit="10" stroke-linejoin="round"/>
<path d="M60.0693 110.141H70.3518L71.8083 111.438H61.5258L60.0693 110.141Z" fill="white" stroke="black" stroke-width="1.54" stroke-miterlimit="10" stroke-linejoin="round"/>
<path d="M108.939 143.624L71.658 80.2401C69.091 75.8772 62.7879 75.8772 60.2209 80.2401L22.9399 143.624C20.3381 148.046 23.5269 153.623 28.6559 153.623H103.223C108.352 153.623 111.541 148.046 108.939 143.624Z" fill="#FBE62E" stroke="#021F37" stroke-width="1.54"/>
<path d="M91.3375 116.399C76.4737 136.794 52.9174 150.45 26.1152 151.918C27.025 152.427 28.086 152.724 29.2502 152.724H101.471C106.438 152.724 109.527 147.323 107.007 143.039L91.3375 116.399Z" fill="#ECD400"/>
<path d="M69.8923 153.623H59.5947L69.8923 160.658V153.623Z" fill="#021F37"/>
<path d="M62.0461 130.618V128.645C62.0461 125.892 63.2883 123.67 65.7726 121.983L68.369 120.154C69.7547 119.119 70.4452 117.968 70.4452 116.682C70.4452 115.714 70.1224 114.92 69.4811 114.309C68.8354 113.697 67.9161 113.394 66.7233 113.394C65.5304 113.394 64.6067 113.737 63.9654 114.429C63.3242 115.121 62.9834 115.977 62.952 117.013H56.3018C56.3018 114.135 57.23 111.738 59.0865 109.829C60.9385 107.919 63.5215 106.964 66.8219 106.964C70.1224 106.964 72.8847 107.865 74.8174 109.664C76.7502 111.466 77.7188 113.8 77.7188 116.682C77.7188 119.904 76.0058 122.644 72.5753 124.893L70.1717 126.535C69.1313 127.284 68.6156 128.239 68.6156 129.399V130.618H62.0596H62.0461ZM65.3017 141.037C64.1672 141.037 63.2165 140.671 62.4497 139.934C61.6784 139.198 61.2928 138.27 61.2928 137.141C61.2928 136.012 61.6829 135.124 62.4722 134.37C63.2569 133.616 64.2031 133.241 65.3017 133.241C66.4946 133.241 67.4632 133.612 68.2031 134.343C68.943 135.08 69.3107 136.012 69.3107 137.137C69.3107 138.261 68.9385 139.234 68.2031 139.952C67.4632 140.671 66.4991 141.032 65.3017 141.032V141.037Z" fill="#1D1D1B"/>
<path d="M16.4725 193.728L2.01 181.346L16.4725 168.965L124.992 168.965L124.992 193.728L16.4725 193.728Z" fill="#00AC6B" stroke="black" stroke-width="1.54" stroke-miterlimit="10" stroke-linejoin="round"/>
<rect x="124.993" y="168.964" width="2.25944" height="24.7626" fill="#D9D9D9" stroke="black" stroke-width="1.54"/>
<path d="M32.8797 186.13C35.0474 186.13 36.6923 184.855 37.1896 182.968H35.6849C35.2769 184.154 34.1803 184.83 32.8797 184.83C31.0563 184.83 29.6792 183.427 29.6792 181.502C29.6792 179.602 31.0563 178.174 32.8797 178.174C34.1803 178.174 35.2897 178.862 35.6849 180.048H37.1641C36.6413 178.187 35.0601 176.873 32.8797 176.873C30.202 176.873 28.2511 178.875 28.2511 181.502C28.2511 184.154 30.1893 186.13 32.8797 186.13ZM41.8812 186.13C43.9214 186.13 45.4005 184.626 45.4005 182.637C45.4005 180.648 43.9469 179.13 41.894 179.13C39.8411 179.13 38.3619 180.635 38.3619 182.637C38.3619 184.639 39.8283 186.13 41.8812 186.13ZM41.8812 184.919C40.6316 184.919 39.7263 183.963 39.7263 182.637C39.7263 181.323 40.6189 180.354 41.8812 180.354C43.1436 180.354 44.0361 181.311 44.0361 182.637C44.0361 183.95 43.1436 184.919 41.8812 184.919ZM47.0148 185.965H48.3536V182.076C48.3536 181.107 49.0422 180.38 49.973 180.38C50.8146 180.38 51.4649 181.005 51.4649 181.935V185.965H52.8037V181.68C52.8037 180.24 51.8729 179.13 50.3555 179.13C49.361 179.13 48.6724 179.64 48.4046 180.189H48.3154V179.296H47.0148V185.965ZM57.4893 185.965H58.5986V184.83H57.6933C56.992 184.83 56.7242 184.447 56.7242 183.81V180.393H58.6624V179.296H56.7242V177.409H55.4619V178.875C55.4619 179.143 55.2961 179.309 55.0666 179.309H54.1868V180.393H55.3854V183.848C55.3854 185.238 56.1759 185.965 57.4893 185.965ZM60.2514 185.965H61.5902V182.675C61.5902 181.438 62.2405 180.584 63.3754 180.584H64.0002V179.283H63.4136C62.47 179.283 61.8325 179.921 61.6285 180.456H61.5392V179.296H60.2514V185.965ZM68.0739 186.13C69.4 186.13 70.0503 185.276 70.2288 185.021H70.3053V185.965H71.6187V179.296H70.2798V180.265H70.1906C69.9738 179.921 69.2852 179.13 68.0101 179.13C66.1485 179.13 64.8351 180.584 64.8351 182.649C64.8351 184.715 66.1613 186.13 68.0739 186.13ZM68.2652 184.919C67.0411 184.919 66.1995 184.027 66.1995 182.637C66.1995 181.298 67.0411 180.354 68.2524 180.354C69.4255 180.354 70.3181 181.196 70.3181 182.637C70.3181 183.899 69.5403 184.919 68.2652 184.919ZM76.5467 186.13C78.1151 186.13 79.4667 185.187 79.76 183.657H78.3956C78.1661 184.409 77.4265 184.919 76.5722 184.919C75.3226 184.919 74.4556 183.95 74.4556 182.637C74.4556 181.349 75.2844 180.354 76.5467 180.354C77.4265 180.354 78.1533 180.864 78.3829 181.629H79.76C79.4539 180.099 78.1151 179.13 76.534 179.13C74.5066 179.13 73.0784 180.66 73.0784 182.637C73.0784 184.6 74.4811 186.13 76.5467 186.13ZM84.1493 185.965H85.2586V184.83H84.3533C83.652 184.83 83.3842 184.447 83.3842 183.81V180.393H85.3224V179.296H83.3842V177.409H82.1219V178.875C82.1219 179.143 81.9561 179.309 81.7266 179.309H80.8468V180.393H82.0454V183.848C82.0454 185.238 82.8359 185.965 84.1493 185.965ZM89.9588 186.13C91.999 186.13 93.4781 184.626 93.4781 182.637C93.4781 180.648 92.0245 179.13 89.9716 179.13C87.9187 179.13 86.4396 180.635 86.4396 182.637C86.4396 184.639 87.9059 186.13 89.9588 186.13ZM89.9588 184.919C88.7092 184.919 87.8039 183.963 87.8039 182.637C87.8039 181.323 88.6965 180.354 89.9588 180.354C91.2212 180.354 92.1138 181.311 92.1138 182.637C92.1138 183.95 91.2212 184.919 89.9588 184.919ZM95.0924 185.965H96.4312V182.675C96.4312 181.438 97.0815 180.584 98.2164 180.584H98.8412V179.283H98.2546C97.3111 179.283 96.6735 179.921 96.4695 180.456H96.3802V179.296H95.0924V185.965Z" fill="white"/>
<path d="M37.8056 226.409H43.2247V225.211H39.1827V222.482H42.5362V221.284H39.1827V218.695H43.0972V217.484H37.8056V226.409ZM44.8638 226.409H46.2027V222.482C46.2027 221.5 46.8657 220.824 47.7073 220.824C48.5488 220.824 49.1481 221.411 49.1481 222.342V226.409H50.487V222.52C50.487 221.449 51.1628 220.824 52.0044 220.824C52.8842 220.824 53.407 221.411 53.407 222.495V226.409H54.7458V222.036C54.7458 220.595 53.7767 219.575 52.3104 219.575C51.4051 219.575 50.7038 219.906 50.2575 220.697H50.1682C49.7857 220.021 49.0844 219.575 48.1281 219.575C47.1717 219.575 46.5469 220.059 46.2537 220.62H46.1644V219.741H44.8638V226.409ZM56.6684 229.342H58.0073V225.44H58.0838C58.3005 225.797 58.9891 226.575 60.2769 226.575C62.1258 226.575 63.4392 225.122 63.4392 223.056C63.4392 220.99 62.1258 219.575 60.2004 219.575C58.8743 219.575 58.2368 220.429 58.0583 220.697H57.969V219.741H56.6684V229.342ZM60.0347 225.364C58.8616 225.364 57.969 224.51 57.969 223.069C57.969 221.806 58.7341 220.786 60.0092 220.786C61.246 220.786 62.0748 221.679 62.0748 223.069C62.0748 224.408 61.246 225.364 60.0347 225.364ZM66.3434 226.409H66.8917V225.224H66.6112C66.2797 225.224 66.1012 225.032 66.1012 224.675V216.846H64.7623V224.752C64.7623 225.797 65.3361 226.409 66.3434 226.409ZM71.4333 226.575C73.4735 226.575 74.9526 225.071 74.9526 223.081C74.9526 221.092 73.499 219.575 71.4461 219.575C69.3932 219.575 67.9141 221.08 67.9141 223.081C67.9141 225.083 69.3804 226.575 71.4333 226.575ZM71.4333 225.364C70.1838 225.364 69.2784 224.408 69.2784 223.081C69.2784 221.768 70.171 220.799 71.4333 220.799C72.6957 220.799 73.5883 221.755 73.5883 223.081C73.5883 224.395 72.6957 225.364 71.4333 225.364ZM76.2921 229.342H77.0444C78.243 229.342 78.855 228.756 79.2375 227.736L82.2978 219.741H80.8314L78.9953 224.892H78.906L77.0571 219.741H75.6035L78.294 226.69L78.0517 227.327C77.8477 227.863 77.4907 228.144 76.8786 228.144H76.2921V229.342ZM86.2599 226.575C87.9048 226.575 89.0906 225.683 89.4349 224.395H88.1343C87.8666 225.045 87.1397 225.453 86.2982 225.453C85.0741 225.453 84.2963 224.663 84.2453 223.502H89.4987V223.005C89.4987 221.105 88.3128 219.575 86.2344 219.575C84.3345 219.575 82.9064 220.978 82.9064 223.094C82.9064 225.096 84.258 226.575 86.2599 226.575ZM84.2708 222.469C84.3728 221.424 85.2144 220.697 86.2344 220.697C87.2673 220.697 88.0833 221.347 88.1726 222.469H84.2708ZM94.0051 226.575C95.65 226.575 96.8359 225.683 97.1801 224.395H95.8795C95.6118 225.045 94.885 225.453 94.0434 225.453C92.8193 225.453 92.0415 224.663 91.9905 223.502H97.2439V223.005C97.2439 221.105 96.0581 219.575 93.9796 219.575C92.0798 219.575 90.6516 220.978 90.6516 223.094C90.6516 225.096 92.0032 226.575 94.0051 226.575ZM92.016 222.469C92.118 221.424 92.9596 220.697 93.9796 220.697C95.0125 220.697 95.8285 221.347 95.9178 222.469H92.016Z" fill="white"/>
<line x1="12.5254" y1="267.732" x2="121.984" y2="267.732" stroke="black" stroke-width="1.54"/>
</svg>
