<svg xmlns="http://www.w3.org/2000/svg" xmlns:xlink="http://www.w3.org/1999/xlink" width="411" zoomAndPan="magnify" viewBox="0 0 308.25 262.500001" height="350" preserveAspectRatio="xMidYMid meet" version="1.0"><defs><clipPath id="id1"><path d="M 0 0.0703125 L 307.5 0.0703125 L 307.5 261.933594 L 0 261.933594 Z M 0 0.0703125 " clip-rule="nonzero"/></clipPath><clipPath id="id2"><path d="M 198 0.0703125 L 265.175781 0.0703125 L 265.175781 75 L 198 75 Z M 198 0.0703125 " clip-rule="nonzero"/></clipPath><clipPath id="id3"><path d="M 164 163 L 211 163 L 211 261.933594 L 164 261.933594 Z M 164 163 " clip-rule="nonzero"/></clipPath><clipPath id="id4"><path d="M 42.214844 163 L 101 163 L 101 225 L 42.214844 225 Z M 42.214844 163 " clip-rule="nonzero"/></clipPath></defs><g clip-path="url(#id1)"><path fill="rgb(100%, 100%, 100%)" d="M 0 0.0703125 L 307.5 0.0703125 L 307.5 261.933594 L 0 261.933594 Z M 0 0.0703125 " fill-opacity="1" fill-rule="nonzero"/><path fill="rgb(100%, 100%, 100%)" d="M 0 0.0703125 L 307.5 0.0703125 L 307.5 261.933594 L 0 261.933594 Z M 0 0.0703125 " fill-opacity="1" fill-rule="nonzero"/><path fill="rgb(100%, 100%, 100%)" d="M 0 0.0703125 L 307.5 0.0703125 L 307.5 261.933594 L 0 261.933594 Z M 0 0.0703125 " fill-opacity="1" fill-rule="nonzero"/></g><path stroke-linecap="butt" transform="matrix(1.615634, 0, 0, 1.616397, 42.216726, 0.072489)" fill-opacity="1" fill="rgb(17.248535%, 44.309998%, 94.119263%)" fill-rule="nonzero" stroke-linejoin="miter" d="M 104.720193 28.341018 L 105.680052 28.696264 L 106.124924 27.524193 L 106.381209 27.444444 L 106.463413 26.700118 L 107.060605 24.882804 L 107.8077 24.06598 L 107.9165 23.500486 L 109.028679 22.893909 L 109.338155 22.599079 L 109.359915 22.393664 L 110.54221 22.084334 L 111.151491 22.014252 L 112.345875 22.441997 L 112.568311 23.012324 L 112.698871 23.017158 L 113.218694 23.920981 L 113.470143 24.626641 L 113.999637 24.445392 L 114.260758 25.354049 L 114.553309 25.354049 L 115.33667 26.042792 L 115.571195 26.688035 L 115.955622 27.15928 L 115.965293 27.560443 L 118.013154 26.738785 L 119.466241 26.816117 L 119.741868 27.002199 L 126.332739 34.068456 L 129.144619 38.186412 L 129.483108 38.481243 L 130.222949 38.676991 L 129.229241 41.091215 L 130.060958 41.180631 L 130.169758 41.591459 L 130.300318 41.579376 L 130.817723 42.338201 L 131.044995 42.567782 L 131.32304 42.538783 L 131.202151 43.140526 L 131.908143 43.106693 L 131.173137 44.766926 L 130.588034 54.392406 L 130.10206 54.967567 L 129.059997 54.708986 L 128.791623 54.450406 L 128.366093 54.479405 L 127.768901 54.172492 L 127.016971 54.63407 L 126.427033 54.69207 L 125.774232 54.496322 L 125.675103 54.143492 L 125.027137 53.921161 L 124.473466 53.979161 L 124.222016 53.771329 L 123.849678 54.00091 L 123.450744 54.039577 L 122.930921 53.846245 L 122.428023 54.097576 L 121.124839 53.809996 L 120.663042 53.971911 L 120.546989 54.155575 L 120.227842 54.039577 L 119.654828 54.213575 L 118.576497 55.330063 L 118.172728 55.305896 L 118.508799 54.03716 L 115.181932 52.606509 L 112.947902 53.10917 L 111.613287 54.133826 L 111.821216 56.296719 L 111.330407 55.837557 L 110.336699 55.767475 L 110.003045 55.392895 L 109.754013 55.939056 L 109.164075 56.021222 L 108.837674 55.738475 L 108.714368 55.291397 L 108.281585 55.837557 L 107.964855 55.675642 L 107.853637 55.876224 L 107.519984 55.866557 L 107.116214 56.183137 L 106.821245 55.837557 L 106.731787 55.23823 L 106.337689 54.392406 L 105.046593 53.459583 L 105.128798 53.085003 L 105.010327 52.879589 L 104.098823 53.114003 L 103.854627 53.314584 L 103.537898 52.964171 L 103.160724 53.159919 L 102.863337 52.882006 L 102.614306 52.865089 L 102.222625 52.398677 L 101.627851 52.239179 L 101.274855 51.910516 L 100.808223 52.019265 L 100.619636 52.277845 L 100.087724 52.128014 L 99.816933 52.239179 L 99.152043 51.448938 L 97.868201 48.13814 L 98.102726 47.809476 L 99.589661 47.272982 L 99.630764 46.995068 L 100.771956 45.731165 L 98.388024 43.002778 L 97.868201 42.198036 L 100.815476 40.114892 L 101.746322 38.817156 L 102.607052 37.990665 L 104.268068 38.111497 L 105.368158 39.240068 L 107.440197 37.75625 L 108.661176 35.445942 L 106.371538 31.88623 L 106.523858 29.909417 L 104.434895 29.119176 Z M 104.720193 28.341018 " stroke="rgb(100%, 100%, 100%)" stroke-width="0.5" stroke-opacity="1" stroke-miterlimit="4"/><path stroke-linecap="butt" transform="matrix(1.615634, 0, 0, 1.616397, 42.216726, 0.072489)" fill-opacity="1" fill="rgb(17.248535%, 44.309998%, 94.119263%)" fill-rule="nonzero" stroke-linejoin="miter" d="M 73.571918 61.026085 L 73.422015 60.861754 L 74.033714 59.240188 L 74.887191 58.689194 L 74.952471 58.442696 L 74.548701 57.200543 L 72.607223 54.070993 L 72.68701 54.012994 L 74.645412 57.142543 L 75.058853 58.481362 L 74.969395 58.761693 L 74.106247 59.30302 L 73.639615 60.434008 Z M 83.538012 43.210609 L 83.88859 43.278275 L 84.164217 43.551355 L 84.403577 43.45469 L 84.188395 42.79978 L 84.889551 43.014861 L 86.156469 44.298097 L 86.374069 45.136672 L 86.504629 45.061756 L 87.297662 46.141994 L 87.938374 46.141994 L 88.733824 46.419908 L 90.994449 48.266222 L 91.722201 50.327616 L 91.968815 50.453282 L 92.423358 51.282189 L 92.338735 51.635019 L 91.702859 52.113514 L 91.306343 52.563009 L 91.320849 52.758757 L 92.604691 53.111586 L 93.163199 53.599748 L 93.733795 53.754413 L 94.239111 54.312657 L 94.062613 54.61232 L 93.276834 55.136732 L 92.116299 55.388062 L 91.257987 55.970473 L 90.740582 56.033305 L 90.283621 55.736058 L 88.221254 56.190387 L 87.945627 56.419968 L 85.868753 56.412718 L 85.856664 57.930368 L 87.00511 57.976285 L 88.496881 59.568851 L 88.881308 61.475581 L 88.112454 64.131469 L 87.703849 64.167718 L 87.215457 65.100542 L 87.401626 65.458205 L 86.944665 66.243613 L 86.262851 66.913022 L 84.526884 68.321924 L 84.227079 68.215592 L 84.265764 68.401673 L 83.748359 68.872918 L 83.068962 69.312747 L 82.413743 69.402163 L 81.45872 70.221404 L 81.163751 70.003906 L 80.058825 70.610483 L 79.775944 70.395402 L 79.18117 70.588733 L 78.772565 71.22431 L 77.249363 75.629846 L 72.841748 76.942082 L 70.382864 74.600357 L 69.539058 73.766616 L 68.511501 73.08754 L 66.357258 72.546212 L 63.922553 72.961875 L 63.429325 72.502713 L 63.656597 72.13055 L 63.187547 71.82122 L 63.335032 71.54814 L 63.274587 70.438901 L 62.914338 69.752575 L 62.921591 69.414246 L 64.118393 68.69167 L 64.297309 68.280841 L 65.885791 67.343185 L 66.458805 67.244102 L 66.782788 66.794607 L 72.014866 63.172062 L 72.585463 62.993231 L 73.93942 61.777661 L 74.0047 61.557746 L 73.871722 61.093751 L 73.65654 61.139667 L 73.687971 60.835171 L 73.849962 60.88592 L 74.217465 60.59834 L 74.759048 59.576101 L 75.970356 59.448019 L 77.157487 58.317031 L 77.051105 58.104366 L 77.171994 57.981118 L 77.288047 58.172032 L 78.279338 57.154627 L 80.622168 56.475551 L 81.398275 55.835141 L 80.293349 54.05166 L 79.667144 53.590081 L 79.78078 53.493416 L 79.618788 53.280751 L 79.396352 53.321834 L 79.456797 47.410731 L 81.794791 43.604521 Z M 83.538012 43.210609 " stroke="rgb(100%, 100%, 100%)" stroke-width="0.5" stroke-opacity="1" stroke-miterlimit="4"/><path stroke-linecap="butt" transform="matrix(1.615634, 0, 0, 1.616397, 42.216726, 0.072489)" fill-opacity="1" fill="rgb(17.248535%, 44.309998%, 94.119263%)" fill-rule="nonzero" stroke-linejoin="miter" d="M 71.555488 29.34634 L 72.118831 29.718503 L 72.423471 30.503911 L 71.74891 30.457995 L 71.44427 29.916667 L 71.366901 29.399506 Z M 70.324837 29.380173 L 70.336926 29.624254 L 69.067591 29.904584 L 66.192849 32.437224 L 66.175925 32.587056 L 65.808422 32.76347 L 66.120316 32.75622 L 65.769738 32.802137 L 64.526998 33.882375 L 64.381931 33.689044 L 65.602911 32.620889 L 65.581151 32.492807 L 65.743142 32.405808 L 65.634342 32.591889 L 68.908018 29.704003 L 69.967006 29.336674 Z M 61.142104 15.772068 L 62.070532 15.946067 L 62.15999 16.23848 L 61.891616 16.489811 L 61.734461 16.419728 L 61.799741 16.54056 L 61.376629 16.470478 L 60.854388 16.617893 L 60.153232 17.190637 L 57.653246 18.222542 L 57.817655 18.911285 L 57.491255 19.104616 L 57.503344 19.67011 L 56.647449 20.020523 L 56.173564 20.532851 L 55.187109 20.651266 L 54.546397 21.001679 L 54.256263 20.919513 L 54.087019 20.424102 L 56.069599 19.167449 L 57.645993 17.596632 L 59.703524 16.194981 Z M 63.605823 16.789474 L 63.160952 17.21722 L 62.728169 17.205136 L 62.931262 16.987639 L 62.689484 16.777391 L 63.584063 15.866317 L 63.912882 15.779318 L 63.992668 16.163564 Z M 100.351262 9.766716 L 99.53647 10.95812 L 99.741981 12.229273 L 100.111902 12.628019 L 101.419922 13.024348 L 101.799513 13.780756 L 102.454732 13.464176 L 103.675711 13.884672 L 103.489542 15.503821 L 103.924743 15.774485 L 103.412173 16.122481 L 103.141382 16.87164 L 102.814981 16.830557 L 102.556279 16.982805 L 102.594963 18.203209 L 102.41363 18.292625 L 102.254056 18.181459 L 101.971176 18.788036 L 101.760829 18.870202 L 101.859958 19.0152 L 101.681042 19.232698 L 101.717309 19.682193 L 101.110446 19.781276 L 101.702802 20.861514 L 101.656864 21.122511 L 101.325628 21.741171 L 100.972632 22.125417 L 100.658321 22.21725 L 100.609965 22.528996 L 99.874959 23.761483 L 99.720221 25.847044 L 100.788881 27.016698 L 101.942162 27.193113 L 102.906857 27.15203 L 103.419427 27.427527 L 103.881223 28.002688 L 104.722611 28.338601 L 104.43973 29.119176 L 106.526276 29.907001 L 106.376373 31.883813 L 108.666012 35.443525 L 107.445032 37.75625 L 105.370576 39.237651 L 104.270486 38.10908 L 102.611888 37.988248 L 101.751158 38.814739 L 100.817894 40.112475 L 97.873037 42.193203 L 96.521497 43.084944 L 95.909798 43.060777 L 95.513282 43.222692 L 95.55922 43.928351 L 94.732339 44.373013 L 94.577601 44.056433 L 93.661262 44.302931 L 93.199465 44.085433 L 92.723163 42.894029 L 92.096957 43.10186 L 92.094539 43.406357 L 91.768139 43.273441 L 91.233809 43.38944 L 91.076654 43.580355 L 91.081489 44.032267 L 90.150643 44.909507 L 89.418056 45.257504 L 88.119707 44.909507 L 87.897271 45.035173 L 87.819902 44.798342 L 87.341182 44.469679 L 86.504629 45.054506 L 86.374069 45.129422 L 86.156469 44.290847 L 84.887134 43.007611 L 84.185977 42.79253 L 84.403577 43.445023 L 84.164217 43.541689 L 83.88859 43.271025 L 83.538012 43.200942 L 83.56219 42.954445 L 83.238207 43.08011 L 83.083469 42.74903 L 82.200979 42.703114 L 82.225157 42.4832 L 82.022063 42.860196 L 81.649725 42.797363 L 81.487733 42.611282 L 81.555431 42.147287 L 81.163751 41.85729 L 80.228069 42.403451 L 79.73726 42.333368 L 79.111054 42.478367 L 78.87653 43.089777 L 77.96019 43.437773 L 74.66959 42.176287 L 73.467953 42.541199 L 72.505676 42.055454 L 71.519221 41.146798 L 70.965549 40.342056 L 71.584501 39.590481 L 72.585463 39.121652 L 72.778885 38.848572 L 72.815152 38.256495 L 72.628983 37.340588 L 72.43556 37.108591 L 72.832076 36.917676 L 72.699099 36.825844 L 72.938459 36.833094 L 73.032752 36.398098 L 72.911863 36.091185 L 72.742619 36.098435 L 73.001321 36.033185 L 73.037588 35.764938 L 72.657996 34.571118 L 72.529854 33.589962 L 72.836912 33.075217 L 72.846583 32.478307 L 72.539525 32.391308 L 72.483916 32.072311 L 72.645907 32.007062 L 72.670085 31.765398 L 72.764379 31.833064 L 72.718441 30.960656 L 72.597552 31.804064 L 72.464574 31.898313 L 72.222796 31.340069 L 71.879471 30.960656 L 71.823862 30.617493 L 72.094653 30.571577 L 72.275987 30.728659 L 72.275987 30.578827 L 72.423471 30.566744 L 72.532272 30.743159 L 72.694263 30.718992 L 72.302582 29.95775 L 72.237302 29.266591 L 71.857711 28.544015 L 70.544855 29.626671 L 70.341762 29.290757 L 70.80114 29.126426 L 71.777924 28.179103 L 71.89156 27.417861 L 72.45732 27.074698 L 72.757125 26.685619 L 73.160895 24.177145 L 73.151224 23.930648 L 72.916699 23.69865 L 73.337393 23.309571 L 73.912825 21.54784 L 74.268239 20.977513 L 75.481965 19.72811 L 77.063194 18.74212 L 78.039977 17.736797 L 78.252742 17.142304 L 79.227108 16.158731 L 80.213563 15.64882 L 82.841691 14.824745 L 85.406957 13.268428 L 88.990108 11.617863 L 89.722696 11.194951 L 89.3697 10.59804 L 89.466411 10.733372 L 89.54378 10.651206 L 89.761381 11.156284 L 90.769595 11.149034 L 92.674807 10.491708 L 92.771518 10.59079 L 93.293759 10.498958 L 94.224605 10.199295 L 96.074207 9.95763 L 96.639968 10.109879 L 96.700413 9.95763 L 96.770528 10.109879 L 96.920431 9.882715 L 98.45814 10.206545 L 99.848364 9.549218 L 100.082889 9.529885 Z M 77.058358 7.678738 L 76.613486 7.78507 L 77.749843 7.743987 L 77.725666 8.304648 L 77.022091 8.662311 L 76.562713 8.635728 L 75.539991 9.266471 L 75.02984 9.05139 L 75.092702 9.549218 L 74.280327 9.225388 L 74.730035 9.653134 L 75.271618 9.858548 L 75.00808 9.894798 L 74.899279 10.105046 L 72.660414 10.160628 L 72.113995 10.30321 L 70.760038 11.381032 L 70.032286 11.714528 L 69.618845 11.56228 L 69.534223 11.726612 L 69.125618 11.83536 L 68.99264 12.115691 L 67.696709 11.987609 L 67.150291 12.46852 L 66.988299 12.342855 L 66.41045 12.415354 L 66.262965 12.613519 L 66.284725 13.034014 L 65.885791 12.944599 L 65.121772 13.679257 L 64.708332 13.577759 L 64.118393 13.15243 L 64.021682 12.425021 L 64.773612 11.687945 L 65.257168 10.827621 L 65.317612 10.999203 L 65.465097 10.506208 L 69.863041 9.645884 L 70.141086 9.7063 L 73.54774 8.597062 L 76.511939 7.388741 L 77.203425 7.260659 L 77.803035 7.376658 L 77.728083 7.586906 Z M 95.803416 6.934413 L 95.86386 7.403241 L 95.77682 7.250993 L 95.295682 7.664238 L 95.102259 7.569989 L 95.029726 7.243743 L 95.232819 6.944079 Z M 83.95387 6.92233 L 88.192241 6.57675 L 92.478967 6.588833 L 92.863394 6.774914 L 92.665136 6.985162 L 92.309722 7.062495 L 90.440777 7.014162 L 89.785558 7.376658 L 86.833448 8.188649 L 85.80589 8.181399 L 85.716433 8.46173 L 85.711597 8.084734 L 84.014315 7.903486 L 83.281727 8.638145 L 82.017227 8.978891 L 81.908427 9.254388 L 80.704372 8.628478 L 80.131358 7.830987 L 80.271589 6.741081 L 80.801083 6.277086 L 83.110064 6.859497 Z M 98.919936 4.034444 L 99.234247 4.09486 L 99.577572 4.416273 L 100.576116 4.522605 L 104.563037 4.03686 L 105.842043 3.983694 L 105.907324 4.082777 L 105.293207 4.515355 L 103.375907 5.179931 L 103.141382 5.474762 L 102.263727 5.885591 L 100.535014 6.139338 L 100.697005 6.414835 L 100.450391 6.168338 L 99.512292 6.168338 L 99.442177 6.405168 L 99.408328 6.180421 L 99.168967 6.226337 L 99.011812 6.422085 L 99.101269 6.545334 L 98.709589 6.581583 L 98.835313 7.028662 L 98.126904 6.968246 L 97.761819 7.321075 L 97.609498 7.214743 L 97.756983 6.475251 L 98.124486 5.583511 L 98.438797 5.124349 L 99.29711 4.442856 L 97.926228 4.056193 L 97.667525 4.71352 L 97.440254 4.67727 L 97.464432 4.464606 L 97.70621 3.908778 Z M 98.919936 4.034444 " stroke="rgb(100%, 100%, 100%)" stroke-width="0.5" stroke-opacity="1" stroke-miterlimit="4"/><path stroke-linecap="butt" transform="matrix(1.615634, 0, 0, 1.616397, 42.216726, 0.072489)" fill-opacity="1" fill="rgb(17.248535%, 44.309998%, 94.119263%)" fill-rule="nonzero" stroke-linejoin="miter" d="M 88.874055 61.473164 L 89.350358 61.296749 L 89.894359 61.780077 L 90.605186 62.77815 L 91.081489 63.909138 L 91.345027 63.785889 L 91.482841 63.911555 L 92.133224 63.529725 L 92.437864 63.964721 L 93.961067 62.386654 L 94.340658 62.256156 L 94.584854 61.963742 L 95.612411 62.628318 L 96.016181 63.442726 L 96.82372 63.909138 L 97.121107 64.269217 L 97.222653 65.714369 L 98.155917 66.86469 L 98.373517 67.650098 L 97.938317 69.411829 L 97.205729 69.762242 L 96.511826 69.895157 L 96.371594 70.086072 L 96.429621 70.424402 L 96.947026 70.767565 L 96.31115 71.185644 L 96.308732 72.323881 L 96.108056 73.015041 L 96.456217 73.060957 L 96.59403 73.945447 L 97.196058 74.025197 L 97.268591 74.158112 L 97.549054 74.733272 L 97.578067 75.286683 L 98.20669 76.304089 L 98.006015 76.818833 L 98.600789 77.050831 L 99.033572 77.012165 L 98.992469 77.326328 L 98.673322 77.671908 L 98.767616 78.03682 L 99.304363 78.283318 L 99.463937 78.69898 L 99.534052 78.529815 L 99.34063 78.193902 L 99.478443 78.249485 L 99.51471 77.993321 L 99.674284 78.164902 L 99.804844 77.604242 L 100.718765 77.611492 L 101.228917 77.993321 L 102.345932 78.225318 L 103.148635 78.283318 L 103.16556 78.11657 L 103.395249 78.196319 L 103.883641 77.976404 L 104.149597 78.283318 L 104.874931 78.290568 L 105.462452 78.196319 L 105.481794 77.71299 L 105.924248 77.381911 L 106.975983 77.176496 L 108.196962 77.314245 L 108.187291 77.599408 L 108.576554 78.358234 L 109.282546 79.097726 L 109.570262 79.680136 L 110.077996 79.839634 L 110.285925 80.586376 L 110.858939 81.018955 L 111.647136 80.820791 L 113.03736 81.047955 L 114.321202 80.733792 L 114.87971 81.22437 L 114.790252 81.550616 L 115.085221 81.82128 L 115.670324 81.296869 L 116.028156 81.594116 L 116.199818 81.292036 L 116.344885 81.304119 L 117.067802 81.685948 L 117.229793 81.963862 L 117.108904 82.265942 L 117.20078 83.155266 L 116.828441 83.752176 L 118.707057 84.411919 L 120.285868 84.399836 L 120.135966 85.57674 L 120.012659 85.770071 L 119.894188 85.656489 L 119.691094 85.84982 L 119.894188 86.316232 L 119.458987 86.85756 L 117.969634 87.106474 L 118.027661 87.42547 L 117.674665 88.157712 L 117.72302 88.882705 L 118.678044 88.882705 L 120.039255 89.537614 L 120.493798 90.071692 L 121.925124 91.142264 L 121.990404 91.427427 L 122.623863 91.524093 L 122.749588 92.981328 L 122.648041 93.162576 L 122.183827 93.179492 L 121.644662 93.474322 L 121.552786 94.682643 L 120.70898 95.825714 L 120.068268 96.091544 L 119.990899 96.364625 L 119.473494 96.545873 L 119.304249 96.855203 L 118.975431 97.014701 L 118.395164 96.555539 L 117.976887 95.919963 L 117.464318 95.866797 L 116.069258 96.52654 L 115.846822 96.758537 L 115.547017 96.707788 L 113.927104 97.251532 L 113.247707 97.788026 L 112.991423 97.585028 L 112.725467 97.693777 L 111.390851 98.592768 L 111.134567 99.064013 L 110.123934 99.431342 L 109.425195 98.754683 L 108.806243 99.124429 L 108.632163 98.718433 L 107.406348 98.242355 L 107.244357 98.885181 L 108.059149 99.474842 L 107.790775 99.849421 L 107.945513 100.390748 L 107.795611 100.395582 L 107.909246 100.787078 L 107.766597 100.915159 L 107.179076 100.52608 L 106.41264 100.410082 L 106.328017 99.92192 L 106.076568 99.697172 L 104.384121 99.61984 L 104.15685 98.587934 L 103.484707 98.264104 L 103.218751 98.225438 L 102.628812 98.575851 L 101.098357 98.551685 L 100.177182 97.795276 L 100.150586 97.570529 L 100.41896 97.519779 L 100.344009 97.297448 L 99.594497 96.727121 L 99.546141 96.833453 L 99.130283 96.572456 L 98.332415 96.707788 L 98.095472 96.889036 L 97.83677 96.686038 L 97.36772 97.224949 L 97.909303 97.234615 L 98.525837 97.614028 L 98.738602 98.464686 L 99.420417 99.013263 L 99.485697 100.129751 L 98.211526 99.747922 L 97.157373 99.668173 L 95.919469 98.783682 L 95.728465 99.141345 L 95.498775 99.238011 L 95.549549 99.547341 L 94.838721 100.052419 L 94.722668 99.934003 L 94.309227 100.086252 L 94.130311 100.441498 L 93.719288 100.649329 L 93.209137 100.707328 L 92.324229 100.381082 L 91.758468 101.081908 L 92.222682 101.441987 L 92.109046 101.586986 L 91.831001 101.521736 L 91.789899 101.707818 L 92.384673 102.029231 L 92.873065 102.539142 L 92.708656 103.039387 L 92.822292 103.271384 L 93.342115 103.39705 L 93.112425 103.629047 L 93.073741 103.926294 L 93.315519 104.204208 L 93.298594 104.368539 L 92.109046 105.197447 L 92.034095 105.574443 L 91.38613 105.748441 L 91.086325 105.366612 L 90.689809 105.240947 L 90.573755 104.610203 L 89.911283 103.764379 L 88.965931 103.819962 L 89.142429 104.644036 L 88.944171 104.851867 L 88.419512 104.757618 L 85.99206 105.151531 L 85.24013 105.095948 L 84.746902 104.779368 L 84.241586 104.018126 L 83.412287 103.815129 L 82.728055 102.966888 L 82.072836 102.853305 L 81.700498 102.616475 L 81.021101 101.391238 L 80.402149 101.352571 L 79.171499 100.779828 L 78.127017 100.910326 L 77.711159 101.47582 L 77.486305 101.543486 L 76.758553 101.362238 L 76.219388 100.82816 L 75.873645 100.714578 L 75.532738 100.859577 L 75.20392 101.640152 L 74.572879 101.881816 L 73.859633 101.872149 L 73.509055 101.727151 L 73.076272 101.193073 L 72.788556 101.197906 L 71.482955 103.169885 L 71.098527 104.871201 L 69.111111 105.992522 L 68.08839 105.799191 L 67.346131 106.185853 L 66.275054 105.630026 L 65.453008 105.811274 L 64.304562 105.659025 L 63.066658 105.973189 L 63.052151 105.56236 L 63.613077 104.994449 L 63.385805 104.706869 L 63.480099 104.018126 L 62.682231 103.629047 L 62.152737 103.169885 L 61.736878 103.225468 L 61.395971 103.587964 L 61.021215 103.571048 L 60.30797 102.543975 L 59.367453 102.113813 L 58.704981 101.272822 L 59.229639 101.282489 L 59.456911 100.180501 L 58.704981 100.079002 L 58.494634 99.728589 L 58.569585 99.416842 L 58.441443 99.006013 L 58.530901 98.911764 L 58.929834 99.25976 L 59.81716 99.238011 L 60.15565 99.373343 L 60.798779 98.962514 L 60.557001 98.812682 L 60.523152 98.428436 L 61.480594 98.145689 L 61.850514 97.442447 L 62.660471 97.541529 L 62.805538 96.905952 L 63.289094 96.006962 L 63.455921 96.084294 L 63.434161 95.729048 L 64.967034 92.986161 L 65.448173 93.297907 L 66.084049 93.348657 L 66.792459 92.348168 L 67.058415 92.278085 L 68.134328 93.077993 L 69.14496 93.268908 L 69.686543 93.633821 L 69.986348 93.650737 L 70.414295 93.433239 L 71.038083 92.79283 L 72.176858 92.833912 L 73.276948 92.413417 L 73.968434 91.898672 L 74.923457 92.084754 L 75.743085 92.067837 L 76.451495 92.568082 L 77.580599 92.986161 L 78.085915 93.587904 L 79.265792 93.938317 L 79.858149 94.337063 L 80.211145 94.025316 L 80.411821 94.136482 L 80.397314 93.846485 L 80.605243 93.795735 L 80.448087 92.935411 L 80.57623 92.555999 L 80.220816 92.13792 L 79.993544 91.437094 L 79.493064 91.132597 L 79.258539 90.51877 L 78.724209 90.115191 L 78.915214 90.112775 L 78.961152 89.117119 L 78.296262 88.868205 L 78.3422 88.476709 L 78.073826 88.36071 L 78.349453 86.693228 L 78.291426 86.248566 L 78.078662 86.105984 L 78.049648 85.697572 L 77.91667 85.60574 L 77.923924 85.122411 L 77.628954 85.28191 L 77.539497 85.175577 L 77.227603 85.255327 L 77.522572 86.016569 L 77.498394 86.127734 L 77.213096 86.045568 L 77.101878 86.243733 L 77.333985 86.337982 L 76.997914 86.698061 L 76.395886 86.656978 L 76.30401 86.966308 L 75.5956 87.072641 L 74.766301 86.49748 L 75.145893 86.016569 L 75.648792 85.697572 L 75.602854 85.105495 L 75.926836 84.701916 L 75.680223 84.542418 L 76.403139 84.617333 L 76.265326 84.262087 L 75.931672 84.00834 L 76.062232 83.70626 L 76.444242 83.650677 L 76.613486 83.319597 L 76.142019 83.085183 L 76.185539 82.669521 L 75.539991 82.534189 L 75.590765 82.15236 L 75.266782 81.816447 L 73.371242 81.434617 L 73.228593 80.772458 L 73.7871 80.61296 L 73.866887 79.839634 L 72.433143 78.66998 L 72.836912 76.937249 L 77.244527 75.625013 L 78.770147 71.219476 L 79.178752 70.5839 L 79.773526 70.390569 L 80.053989 70.608066 L 81.158915 70.001489 L 81.453884 70.218987 L 82.408908 69.399746 L 83.064127 69.31033 L 83.743523 68.870502 L 84.260928 68.401673 L 84.219826 68.210759 L 84.519631 68.319507 L 86.255598 66.910606 L 86.937412 66.241196 L 87.399208 65.455788 L 87.208204 65.098125 L 87.699013 64.165302 L 88.107618 64.131469 Z M 88.874055 61.473164 " stroke="rgb(100%, 100%, 100%)" stroke-width="0.5" stroke-opacity="1" stroke-miterlimit="4"/><path fill="rgb(17.248535%, 44.309998%, 94.119263%)" d="M 238.234375 11.480469 L 238.730469 11.601562 L 239.640625 10.859375 L 240.625 11.257812 L 240.746094 11.589844 L 240.601562 12.054688 L 239.617188 11.855469 L 239.578125 12.035156 L 240.460938 12.25 L 240.398438 12.507812 L 239.882812 12.578125 L 241.441406 12.824219 L 241.480469 12.632812 L 240.929688 12.445312 L 241.167969 11.535156 L 242.277344 11.886719 L 243.53125 13.082031 L 243.054688 14.789062 L 242.992188 16.113281 L 243.8125 17.300781 L 243.65625 17.546875 L 243.9375 17.800781 L 243.859375 18.792969 L 244.484375 21.625 L 246.511719 23.089844 L 246.175781 23.753906 L 249.800781 25.113281 L 250.59375 25.707031 L 252.757812 26.3125 L 254.433594 26.273438 L 254.667969 25.933594 L 255.675781 25.578125 L 255.6875 25.824219 L 254.855469 26.589844 L 254.835938 28.101562 L 254.382812 29.355469 L 254.808594 30.273438 L 255.6875 30.867188 L 257.640625 31.011719 L 258.214844 31.4375 L 258.882812 31.613281 L 259.273438 31.464844 L 259.800781 31.859375 L 261.734375 32.453125 L 261.933594 31.730469 L 262.410156 35.890625 L 261.875 36.824219 L 262.9375 37.804688 L 261.585938 38.21875 L 260.816406 39.894531 L 260.792969 40.800781 L 260.238281 41.589844 L 260.464844 43.160156 L 261.484375 43.914062 L 261.367188 47.042969 L 262.101562 53.25 L 262.390625 53.992188 L 261.933594 54.566406 L 260.445312 60.023438 L 256.105469 67.222656 L 255.167969 68.429688 L 255.039062 68.699219 L 255.324219 69.757812 L 254.1875 69.8125 L 254.378906 68.839844 L 253.933594 68.886719 L 253.5625 68.511719 L 252.726562 67.289062 L 252.515625 67.304688 L 252.339844 66.640625 L 250.992188 66.5 L 252.601562 62.597656 L 251.40625 62.28125 L 250.855469 61.804688 L 246.308594 55.152344 L 235.664062 43.726562 L 235.214844 43.425781 L 232.867188 43.304688 L 229.554688 44.632812 L 229.546875 43.984375 L 228.925781 43.222656 L 228.542969 42.175781 L 227.28125 41.070312 L 226.8125 41.070312 L 226.382812 39.597656 L 225.53125 39.890625 L 225.121094 38.75 L 224.285156 37.292969 L 224.074219 37.28125 L 223.714844 36.359375 L 221.78125 35.671875 L 220.800781 35.785156 L 218.886719 36.285156 L 218.855469 36.613281 L 218.359375 37.09375 L 216.558594 38.074219 L 216.386719 38.988281 L 215.171875 40.304688 L 214.210938 43.242188 L 214.082031 44.449219 L 213.664062 44.582031 L 212.945312 46.46875 L 211.394531 45.898438 L 210.035156 45.355469 L 209.289062 44.421875 L 208.460938 43.980469 L 206.898438 44.042969 L 205.035156 43.761719 L 203.308594 41.871094 L 203.558594 38.5 L 204.746094 36.503906 L 204.824219 36.003906 L 205.332031 35.851562 L 205.90625 35.230469 L 206.4375 34.234375 L 206.515625 33.808594 L 205.5625 32.0625 L 206.542969 31.902344 L 206.484375 31.175781 L 206.773438 30.824219 L 206.609375 30.585938 L 206.953125 30.457031 L 207.410156 29.476562 L 207.664062 29.652344 L 207.957031 29.511719 L 207.898438 27.535156 L 208.316406 27.289062 L 208.839844 27.359375 L 209.28125 26.148438 L 210.105469 25.582031 L 209.40625 25.148438 L 209.707031 22.527344 L 207.730469 21.847656 L 206.671875 22.359375 L 206.058594 21.140625 L 203.949219 20.496094 L 203.347656 19.851562 L 203.015625 17.800781 L 204.335938 15.875 L 204.832031 15.730469 L 204.851562 16.09375 L 205.074219 16.105469 L 207.777344 15.433594 L 210.105469 16.617188 L 210.949219 17.515625 L 212.414062 16.429688 L 215.738281 15.027344 L 225.148438 13.824219 L 232.976562 10.953125 L 236.144531 10.636719 Z M 216.542969 5.484375 L 216.808594 5.53125 L 216.777344 5.765625 L 215.320312 5.546875 L 215.742188 5.359375 Z M 226.644531 4.933594 L 227.039062 5 L 226.804688 5.449219 L 225.890625 4.964844 L 226.320312 4.765625 Z M 228.324219 3.316406 L 228.28125 3.507812 L 227.488281 3.402344 L 227.769531 4.097656 L 226.609375 3.546875 L 225.695312 3.632812 L 225.558594 3.453125 L 225.914062 2.902344 L 226.277344 2.796875 L 227.5 2.929688 Z M 221.359375 3.085938 L 222.273438 3.296875 L 223.226562 4.234375 L 222.082031 4.0625 L 221.71875 3.714844 L 221.601562 4.453125 L 220.757812 4.359375 L 220.453125 4.570312 L 220.628906 5.023438 L 220.351562 5.210938 L 219.851562 5.070312 L 219.597656 4.863281 L 219.472656 4.109375 L 218.574219 3.285156 L 218.851562 1.6875 L 219.066406 1.71875 L 219.308594 2.542969 Z M 221.359375 3.085938 " fill-opacity="1" fill-rule="nonzero"/><g clip-path="url(#id2)"><path stroke-linecap="butt" transform="matrix(1.615634, 0, 0, 1.616397, 42.216726, 0.072489)" fill="none" stroke-linejoin="miter" d="M 121.325514 7.057661 L 121.632573 7.132577 L 122.195916 6.673416 L 122.805196 6.919913 L 122.880148 7.125327 L 122.79069 7.412908 L 122.181409 7.289659 L 122.157231 7.400824 L 122.70365 7.53374 L 122.664965 7.693238 L 122.345818 7.736738 L 123.310513 7.888986 L 123.334691 7.770571 L 122.993783 7.654572 L 123.141268 7.091494 L 123.827918 7.308992 L 124.604026 8.048484 L 124.309056 9.104556 L 124.270372 9.923798 L 124.778106 10.658456 L 124.681395 10.810705 L 124.855475 10.967786 L 124.807119 11.581613 L 125.193964 13.333678 L 126.448793 14.239918 L 126.240864 14.650747 L 128.484565 15.491738 L 128.975374 15.859067 L 130.314825 16.233647 L 131.352053 16.20948 L 131.49712 15.999233 L 132.120908 15.779318 L 132.128161 15.931567 L 131.613173 16.405228 L 131.601085 17.340468 L 131.320622 18.11621 L 131.58416 18.684121 L 132.128161 19.05145 L 133.337051 19.140866 L 133.692465 19.40428 L 134.105906 19.513028 L 134.347684 19.421196 L 134.674085 19.665277 L 135.870886 20.032606 L 135.994193 19.585528 L 136.289162 22.15925 L 135.957926 22.736827 L 136.615563 23.343404 L 135.779011 23.599568 L 135.302708 24.636307 L 135.288201 25.196968 L 134.944876 25.685129 L 135.085107 26.656619 L 135.716148 27.123031 L 135.643615 29.05876 L 136.098158 32.898802 L 136.277073 33.357964 L 135.994193 33.71321 L 135.073018 37.089258 L 132.386863 41.543127 L 131.806596 42.289869 L 131.726809 42.456617 L 131.903307 43.111527 L 131.199733 43.14536 L 131.318204 42.543616 L 131.042577 42.572616 L 130.812888 42.340618 L 130.295483 41.58421 L 130.164923 41.593876 L 130.056122 41.183047 L 129.221988 41.096048 L 130.218114 38.681824 L 129.478273 38.486076 L 129.137366 38.191246 L 126.323068 34.075706 L 119.734614 27.007032 L 119.45657 26.82095 L 118.003483 26.746035 L 115.953205 27.567692 L 115.948369 27.16653 L 115.563942 26.695285 L 115.326999 26.047625 L 114.546056 25.363716 L 114.255922 25.363716 L 113.989966 24.452642 L 113.46289 24.63389 L 113.209023 23.928231 L 112.691618 23.026824 L 112.561057 23.019574 L 112.338622 22.449247 L 111.14182 22.023918 L 110.534957 22.094001 L 109.350244 22.403331 L 109.330902 22.606329 L 109.023844 22.903576 L 107.909246 23.510152 L 107.802864 24.075646 L 107.050934 24.890054 L 106.45616 26.707368 L 106.376373 27.45411 L 106.117671 27.536276 L 105.672799 28.703514 L 104.71294 28.350684 L 103.871552 28.014771 L 103.409756 27.437194 L 102.897186 27.164113 L 101.930073 27.20278 L 100.776792 27.028782 L 99.708133 25.859127 L 99.862871 23.773566 L 100.597876 22.538663 L 100.646232 22.229333 L 100.960543 22.135084 L 101.315957 21.750838 L 101.644775 21.134595 L 101.693131 20.871181 L 101.103192 19.790942 L 101.710055 19.69186 L 101.673789 19.242365 L 101.852704 19.024867 L 101.751158 18.877452 L 101.963922 18.797703 L 102.246803 18.191126 L 102.403959 18.299875 L 102.585292 18.212876 L 102.549025 16.990055 L 102.807728 16.837807 L 103.131711 16.881307 L 103.40492 16.132148 L 103.915072 15.781735 L 103.482289 15.513488 L 103.668458 13.891922 L 102.445061 13.471426 L 101.789842 13.788006 L 101.41025 13.034014 L 100.104649 12.635269 L 99.73231 12.236523 L 99.526799 10.967786 L 100.344009 9.776382 L 100.651067 9.686967 L 100.663156 9.911714 L 100.80097 9.918964 L 102.474074 9.503302 L 103.915072 10.235544 L 104.437313 10.791372 L 105.343981 10.119545 L 107.401512 9.251971 L 113.225947 8.507646 L 118.071181 6.731415 L 120.032001 6.535667 Z M 107.899575 3.348118 L 108.063984 3.377117 L 108.044642 3.522116 L 107.14281 3.386784 L 107.40393 3.270785 Z M 114.151958 3.007371 L 114.396153 3.048454 L 114.251087 3.326368 L 113.685326 3.026704 L 113.951282 2.903456 Z M 115.191603 2.006882 L 115.165008 2.125297 L 114.674198 2.060048 L 114.848279 2.49021 L 114.130197 2.149464 L 113.564437 2.20263 L 113.479814 2.091464 L 113.699832 1.750718 L 113.924686 1.685469 L 114.681452 1.767635 Z M 110.8807 1.8643 L 111.44646 1.994799 L 112.036399 2.574793 L 111.327989 2.46846 L 111.103135 2.253379 L 111.030602 2.710125 L 110.508361 2.652125 L 110.319774 2.782624 L 110.428574 3.062954 L 110.256912 3.178953 L 109.947436 3.091954 L 109.79028 2.963872 L 109.712911 2.49746 L 109.156822 1.987549 L 109.328484 0.999143 L 109.461462 1.018476 L 109.611364 1.528387 Z M 110.8807 1.8643 " stroke="rgb(100%, 100%, 100%)" stroke-width="0.5" stroke-opacity="1" stroke-miterlimit="4"/></g><path fill="rgb(17.248535%, 44.309998%, 94.119263%)" d="M 185.917969 169.554688 L 186.238281 169.21875 L 185.953125 167.886719 L 187.480469 167.796875 L 188.550781 169.164062 L 188.738281 170.183594 L 189.378906 170.386719 L 189.863281 171.003906 L 190.910156 170.722656 L 191.011719 171.234375 L 193.167969 171.289062 L 195.011719 172.273438 L 195.519531 173.039062 L 196.03125 173.222656 L 195.957031 173.628906 L 195.378906 173.628906 L 195.03125 174.066406 L 195.390625 175.214844 L 195.136719 175.863281 L 195.371094 177.128906 L 198.003906 178.332031 L 198.34375 178.210938 L 198.472656 178.464844 L 200.132812 178.753906 L 199.492188 180.976562 L 199.0625 182.003906 L 198.847656 181.902344 L 198.695312 183.339844 L 200.394531 184.667969 L 200.746094 185.347656 L 202.277344 186.828125 L 203.609375 189.484375 L 204.820312 190.433594 L 205.628906 191.851562 L 205.621094 193.746094 L 206.195312 195.515625 L 205.949219 197.785156 L 205.652344 197.914062 L 205.628906 199.550781 L 205.207031 202.042969 L 206.328125 201.988281 L 205.660156 203.238281 L 206.328125 205.542969 L 204.316406 207.398438 L 204.457031 207.929688 L 203.089844 208.226562 L 202.269531 210.460938 L 200.859375 212.410156 L 200.503906 213.457031 L 198.355469 215.828125 L 197.605469 216.289062 L 198.40625 218 L 197.386719 218.371094 L 197.742188 221.667969 L 198.246094 222.648438 L 199.210938 222.792969 L 200.5 221.785156 L 202.921875 220.613281 L 203.859375 221.34375 L 201.464844 222.53125 L 203.457031 223.890625 L 202.761719 224.371094 L 202.734375 224.746094 L 200.800781 225.035156 L 199.589844 225.828125 L 198.726562 225.980469 L 198.410156 226.941406 L 198.117188 226.769531 L 197.683594 227.417969 L 196.800781 227.785156 L 196.722656 228.246094 L 196.023438 229.054688 L 195.371094 229.558594 L 194.738281 229.746094 L 194.488281 229.59375 L 194.148438 229.847656 L 193.257812 230.703125 L 192.917969 231.378906 L 192.390625 231.570312 L 192.484375 231.859375 L 191.871094 232.605469 L 191.757812 234.058594 L 191.125 234.351562 L 191.234375 234.859375 L 189.96875 234.914062 L 188.660156 232.109375 L 187.402344 233.277344 L 185.910156 233.484375 L 186.007812 234.042969 L 186.683594 234.867188 L 186.367188 235.496094 L 186.726562 236.410156 L 187.660156 237.113281 L 187.648438 237.640625 L 188.171875 237.875 L 188.09375 239.148438 L 187.511719 239.792969 L 187.773438 240.3125 L 188.183594 240.339844 L 189.828125 239.390625 L 190.941406 239.140625 L 191.699219 239.9375 L 192.523438 239.585938 L 194.976562 239.503906 L 194.410156 241.335938 L 193.851562 241.890625 L 194.5 242.292969 L 194.664062 243.941406 L 196.160156 244.480469 L 196.464844 244.375 L 196.710938 244.605469 L 196.644531 245.046875 L 197.800781 244.964844 L 198.605469 245.464844 L 198.9375 245.097656 L 198.207031 246.191406 L 197.820312 247.65625 L 198.609375 249.421875 L 197.929688 250.59375 L 197.761719 251.796875 L 196.839844 251.332031 L 196.722656 250.957031 L 194.644531 251.863281 L 194.605469 253.105469 L 195.179688 254.179688 L 194.878906 254.339844 L 194.976562 254.613281 L 194.015625 255.695312 L 193.742188 255.765625 L 192.683594 255.097656 L 192.125 255.746094 L 192.078125 256.285156 L 192.804688 256.5 L 193.476562 257.347656 L 195.050781 258.3125 L 194.488281 259.355469 L 194.734375 259.9375 L 192.488281 260.085938 L 192 259.402344 L 191.398438 259.257812 L 188.875 260.3125 L 188.71875 259.917969 L 188.234375 259.972656 L 187.984375 260.277344 L 187.292969 259.777344 L 187.085938 258.671875 L 185.738281 259.363281 L 185.144531 259.980469 L 184.800781 259.089844 L 184.054688 259.570312 L 182.742188 259.847656 L 181.820312 258.546875 L 181.324219 258.75 L 180.847656 257.484375 L 180.277344 257.578125 L 178.820312 259.472656 L 178.175781 259.472656 L 177.699219 259.140625 L 177.398438 259.519531 L 176.449219 259.925781 L 175.605469 259.695312 L 176.640625 257.527344 L 176.125 256.285156 L 176.5 255.402344 L 176.175781 254.890625 L 175.417969 254.828125 L 175.328125 254.46875 L 174.085938 254.140625 L 174.039062 253.730469 L 173.675781 253.523438 L 173.785156 253.050781 L 173.164062 251.84375 L 173.234375 250.222656 L 173.640625 249.878906 L 173.425781 249.609375 L 173.574219 249.414062 L 174.855469 248.734375 L 175.328125 248.734375 L 175.535156 248.132812 L 176.226562 247.398438 L 176.527344 246.109375 L 176.957031 246.019531 L 177.546875 246.359375 L 177.839844 246.207031 L 178.179688 244.71875 L 178.859375 243.863281 L 179.175781 242.859375 L 179.792969 242.554688 L 179.4375 241.683594 L 179.039062 241.613281 L 178.15625 242.117188 L 177.769531 241.90625 L 177.722656 241.449219 L 180.285156 238.265625 L 180.289062 237.183594 L 180.847656 235.988281 L 179.820312 235.03125 L 180.578125 233.496094 L 180.710938 232.46875 L 181.703125 232.832031 L 182.1875 232.578125 L 181.996094 231.5625 L 182.46875 230.933594 L 181.945312 229.871094 L 182.707031 229.441406 L 183.539062 229.773438 L 183.984375 229.289062 L 184.0625 228.777344 L 183.832031 228.433594 L 182.710938 228.164062 L 182.722656 227.488281 L 183.527344 226.503906 L 184.472656 226.3125 L 184.734375 225.492188 L 185.285156 225.105469 L 184.230469 224.289062 L 184.308594 223.972656 L 183.570312 222.964844 L 183 223.746094 L 182.453125 223.441406 L 180.925781 224.414062 L 180.789062 224.082031 L 181.015625 223.433594 L 180.566406 223.242188 L 180.507812 222.976562 L 180.925781 222.621094 L 180.644531 222.558594 L 180.789062 222.074219 L 180.261719 221.535156 L 179.0625 221.101562 L 178.785156 221.414062 L 177.546875 221.480469 L 177.105469 221.820312 L 175.96875 221.425781 L 175.273438 221.628906 L 174.980469 221.363281 L 174.222656 221.40625 L 173.863281 220.828125 L 173.851562 220.265625 L 168.882812 218.164062 L 170.535156 217.660156 L 170.523438 217.855469 L 171.960938 217.132812 L 172.308594 213.375 L 174.824219 209.789062 L 186.316406 206.203125 L 189.636719 203.355469 L 186.210938 197.507812 L 185.542969 193.726562 L 185.113281 192.621094 L 184.277344 186.875 L 187.28125 187.464844 L 188.234375 188.222656 L 190.09375 188.027344 L 193.816406 186.648438 L 195.207031 188.074219 L 195.539062 187.753906 L 196.121094 187.703125 L 195.710938 186.921875 L 195.707031 185.394531 L 194.945312 184.105469 L 194.71875 182.023438 L 193.296875 180.628906 L 191.886719 179.6875 L 191.796875 179.230469 L 192.238281 177.945312 L 191.058594 177.574219 L 191.480469 176.574219 L 190.964844 173.90625 L 189.929688 173.359375 L 188.363281 173.148438 L 187.417969 172.765625 L 187.023438 172.265625 L 186.640625 170.238281 Z M 185.917969 169.554688 " fill-opacity="1" fill-rule="nonzero"/><g clip-path="url(#id3)"><path stroke-linecap="butt" transform="matrix(1.615634, 0, 0, 1.616397, 42.216726, 0.072489)" fill="none" stroke-linejoin="miter" d="M 88.944171 104.851867 L 89.142429 104.644036 L 88.965931 103.819962 L 89.911283 103.764379 L 90.573755 104.610203 L 90.689809 105.240947 L 91.086325 105.366612 L 91.38613 105.748441 L 92.034095 105.574443 L 92.096957 105.891023 L 93.431572 105.924856 L 94.572765 106.533849 L 94.887077 107.007511 L 95.203806 107.121093 L 95.157868 107.372424 L 94.800037 107.372424 L 94.584854 107.643088 L 94.80729 108.35358 L 94.650134 108.754742 L 94.795201 109.537734 L 96.424786 110.282059 L 96.635133 110.207144 L 96.714919 110.364225 L 97.742476 110.543057 L 97.34596 111.918125 L 97.080004 112.553702 L 96.947026 112.490869 L 96.852733 113.380193 L 97.904468 114.201851 L 98.122068 114.622346 L 99.069838 115.538253 L 99.894302 117.181569 L 100.643814 117.768813 L 101.144295 118.646054 L 101.139459 119.818124 L 101.494873 120.912863 L 101.342553 122.316931 L 101.158801 122.39668 L 101.144295 123.409253 L 100.883174 124.95107 L 101.577077 124.917237 L 101.163637 125.690562 L 101.577077 127.11638 L 100.33192 128.264284 L 100.41896 128.592947 L 99.572737 128.776612 L 99.065003 130.158931 L 98.192184 131.364834 L 97.972166 132.012494 L 96.642386 133.479395 L 96.178172 133.764559 L 96.673817 134.823047 L 96.042776 135.052628 L 96.262794 137.092273 L 96.574688 137.69885 L 97.17188 137.788266 L 97.969748 137.164772 L 99.468772 136.43978 L 100.04904 136.891692 L 98.56694 137.626351 L 99.800008 138.467342 L 99.369643 138.764589 L 99.352719 138.996586 L 98.155917 139.175418 L 97.406405 139.665996 L 96.872075 139.760245 L 96.676235 140.354738 L 96.494901 140.248406 L 96.226528 140.649569 L 95.680109 140.876733 L 95.631753 141.161896 L 95.198971 141.662141 L 94.795201 141.973888 L 94.403521 142.089887 L 94.248783 141.995638 L 94.038436 142.152719 L 93.487181 142.681964 L 93.276834 143.100042 L 92.950434 143.218458 L 93.008461 143.397289 L 92.628869 143.858868 L 92.558753 144.757858 L 92.167073 144.939106 L 92.234771 145.253269 L 91.45141 145.287102 L 90.641453 143.551954 L 89.862927 144.27453 L 88.939335 144.402612 L 88.999779 144.748192 L 89.418056 145.258103 L 89.222215 145.647182 L 89.444651 146.212676 L 90.022501 146.647671 L 90.015248 146.973918 L 90.33923 147.118916 L 90.290875 147.906741 L 89.930625 148.305487 L 90.092617 148.6269 L 90.346484 148.643817 L 91.36437 148.056573 L 92.053437 147.901908 L 92.522487 148.394903 L 93.032639 148.177405 L 94.551005 148.126655 L 94.200427 149.26006 L 93.854684 149.603223 L 94.256036 149.852137 L 94.357583 150.871959 L 95.283593 151.205456 L 95.47218 151.140207 L 95.6245 151.282788 L 95.583398 151.555869 L 96.299061 151.505119 L 96.797124 151.814449 L 97.002635 151.587285 L 96.55051 152.263945 L 96.31115 153.170185 L 96.799542 154.262507 L 96.378848 154.987499 L 96.274883 155.731824 L 95.704287 155.444244 L 95.631753 155.212246 L 94.345494 155.772907 L 94.321316 156.541399 L 94.67673 157.205975 L 94.490561 157.305057 L 94.551005 157.474222 L 93.956231 158.143632 L 93.786986 158.187131 L 93.131768 157.773886 L 92.786025 158.175048 L 92.757012 158.508545 L 93.206719 158.64146 L 93.622577 159.165871 L 94.596943 159.762781 L 94.248783 160.408024 L 94.401103 160.768104 L 93.010879 160.859936 L 92.708656 160.437024 L 92.336318 160.347608 L 90.774431 161.000101 L 90.67772 160.756021 L 90.377915 160.789854 L 90.223177 160.978352 L 89.79523 160.669022 L 89.667087 159.985112 L 88.832953 160.412858 L 88.46545 160.794687 L 88.252685 160.243693 L 87.790889 160.54094 L 86.978514 160.712521 L 86.407918 159.90778 L 86.10086 160.033445 L 85.80589 159.250453 L 85.452894 159.308453 L 84.551062 160.480524 L 84.152128 160.480524 L 83.857159 160.275109 L 83.67099 160.509523 L 83.083469 160.760854 L 82.561228 160.618272 L 83.20194 159.277036 L 82.882793 158.508545 L 83.1149 157.962384 L 82.914224 157.645804 L 82.445175 157.607138 L 82.389566 157.384807 L 81.620711 157.181809 L 81.591698 156.928061 L 81.366844 156.79998 L 81.434542 156.507566 L 81.050115 155.760824 L 81.093635 154.757918 L 81.345084 154.545254 L 81.212106 154.378505 L 81.303982 154.257673 L 82.097014 153.837178 L 82.389566 153.837178 L 82.517708 153.465015 L 82.945655 153.010687 L 83.131824 152.213195 L 83.39778 152.157612 L 83.762865 152.36786 L 83.944199 152.273611 L 84.154546 151.352871 L 84.57524 150.823627 L 84.77108 150.20255 L 85.15309 150.014052 L 84.933071 149.475141 L 84.686458 149.431642 L 84.140039 149.743388 L 83.900679 149.61289 L 83.871666 149.330143 L 85.45773 147.36058 L 85.460148 146.691171 L 85.80589 145.951679 L 85.170014 145.359602 L 85.639064 144.409862 L 85.721268 143.774285 L 86.335385 143.999033 L 86.635189 143.841951 L 86.516718 143.213625 L 86.80927 142.824545 L 86.485287 142.167219 L 86.956754 141.901389 L 87.471742 142.106803 L 87.747369 141.80714 L 87.795724 141.49056 L 87.653075 141.277895 L 86.959172 141.111147 L 86.966425 140.693068 L 87.464488 140.084075 L 88.049591 139.965659 L 88.211583 139.458165 L 88.55249 139.218917 L 87.899689 138.713839 L 87.948045 138.518091 L 87.491084 137.894598 L 87.138088 138.377926 L 86.799599 138.189428 L 85.854246 138.791172 L 85.769624 138.585757 L 85.909855 138.184595 L 85.63181 138.06618 L 85.595544 137.901848 L 85.854246 137.681934 L 85.680166 137.643267 L 85.769624 137.343604 L 85.443223 137.010107 L 84.700964 136.74186 L 84.529302 136.935192 L 83.762865 136.976274 L 83.489656 137.186522 L 82.786082 136.942442 L 82.355717 137.068107 L 82.174383 136.903775 L 81.705334 136.930358 L 81.482898 136.572695 L 81.475644 136.224699 L 78.400227 134.924546 L 79.422948 134.6128 L 79.415695 134.733632 L 80.305438 134.286553 L 80.520621 131.961745 L 82.077672 129.743268 L 89.190784 127.524792 L 91.245898 125.763061 L 89.125504 122.145349 L 88.712064 119.806041 L 88.446108 119.122132 L 87.928702 115.567253 L 89.787976 115.932166 L 90.377915 116.400994 L 91.528779 116.280162 L 93.832924 115.427088 L 94.693654 116.309162 L 94.899166 116.110997 L 95.259415 116.079581 L 95.005548 115.596253 L 95.00313 114.651346 L 94.531663 113.853855 L 94.391432 112.565785 L 93.511359 111.703044 L 92.63854 111.120634 L 92.582931 110.837887 L 92.856141 110.042812 L 92.125971 109.813231 L 92.387091 109.194571 L 92.067944 107.544005 L 91.427232 107.205676 L 90.457702 107.075177 L 89.872599 106.838346 L 89.628403 106.529016 L 89.39146 105.27478 Z M 88.944171 104.851867 " stroke="rgb(100%, 100%, 100%)" stroke-width="0.5" stroke-opacity="1" stroke-miterlimit="4"/></g><path stroke-linecap="butt" transform="matrix(1.615634, 0, 0, 1.616397, 42.216726, 0.072489)" fill-opacity="1" fill="rgb(17.248535%, 44.309998%, 94.119263%)" fill-rule="nonzero" stroke-linejoin="miter" d="M 58.704981 101.272822 L 59.372288 102.113813 L 60.310388 102.541559 L 61.023633 103.568631 L 61.398389 103.587964 L 61.739296 103.225468 L 62.155155 103.169885 L 62.684649 103.629047 L 63.482516 104.018126 L 63.388223 104.706869 L 63.615494 104.994449 L 63.056987 105.56236 L 63.069076 105.973189 L 64.30698 105.659025 L 65.455426 105.811274 L 66.277472 105.630026 L 67.348549 106.18102 L 68.090807 105.799191 L 69.113529 105.992522 L 71.098527 104.871201 L 71.482955 103.169885 L 72.788556 101.197906 L 73.076272 101.193073 L 73.509055 101.722318 L 73.859633 101.869733 L 74.575297 101.879399 L 75.20392 101.637735 L 75.535156 100.85716 L 75.876063 100.712162 L 76.221806 100.825744 L 76.763389 101.362238 L 77.491141 101.543486 L 77.713577 101.47582 L 78.129435 100.910326 L 79.173917 100.779828 L 80.406985 101.352571 L 81.025937 101.391238 L 81.705334 102.616475 L 82.077672 102.853305 L 82.732891 102.966888 L 83.414705 103.815129 L 84.244004 104.018126 L 84.74932 104.779368 L 85.242547 105.095948 L 85.994477 105.153948 L 88.42193 104.757618 L 88.946588 104.851867 L 89.396296 105.27478 L 89.63082 106.529016 L 89.877434 106.838346 L 90.460119 107.075177 L 91.42965 107.205676 L 92.072779 107.544005 L 92.391927 109.194571 L 92.128388 109.813231 L 92.860976 110.042812 L 92.587767 110.837887 L 92.643376 111.120634 L 93.516195 111.703044 L 94.393849 112.565785 L 94.534081 113.853855 L 95.005548 114.651346 L 95.010384 115.596253 L 95.264251 116.079581 L 94.901583 116.110997 L 94.69849 116.309162 L 93.83776 115.427088 L 91.533614 116.280162 L 90.38275 116.398578 L 89.792812 115.932166 L 87.933538 115.564836 L 88.448525 119.119715 L 88.719317 119.803624 L 89.127922 122.142933 L 91.250734 125.760644 L 89.19562 127.522375 L 82.082507 129.740852 L 80.525456 131.959328 L 80.312692 134.286553 L 79.422948 134.733632 L 79.430201 134.6128 L 78.40748 134.924546 L 78.274502 134.806131 L 78.117346 133.718643 L 78.148777 132.442656 L 77.126056 131.488083 L 76.736793 130.80659 L 75.839796 130.552843 L 75.629449 130.535927 L 74.995991 131.374501 L 74.144932 131.536416 L 74.036132 131.865079 L 73.840291 131.886829 L 73.264859 132.652904 L 70.762456 131.983494 L 70.414295 132.664987 L 68.924942 132.74232 L 67.865954 132.474073 L 66.891588 132.69882 L 66.572441 132.391907 L 67.046326 130.287013 L 65.675444 129.400105 L 64.761523 129.699769 L 64.369842 130.006682 L 63.383387 129.707019 L 63.291512 127.877622 L 61.183207 125.328066 L 62.324399 123.148255 L 61.40806 120.973279 L 60.252361 120.900779 L 60.003329 120.473034 L 60.022672 120.103288 L 59.865516 120.038039 L 58.980608 120.891113 L 58.78235 122.416013 L 57.406632 123.580834 L 56.178399 125.125068 L 56.05751 124.941403 L 56.125208 125.161317 L 55.900355 125.262816 L 55.648905 125.190317 L 56.001901 125.096068 L 55.530434 124.769821 L 55.182274 124.143911 L 54.976762 124.26716 L 54.693882 124.076246 L 54.734984 123.940914 L 54.602006 124.047246 L 54.297366 123.969913 L 53.985472 124.402492 L 53.426964 124.071412 L 53.248049 124.223661 L 52.989346 124.105245 L 51.335584 124.433908 L 50.723885 124.097995 L 50.571565 123.36092 L 50.779494 123.153089 L 51.159086 123.116839 L 51.248544 123.298087 L 52.643603 123.747582 L 52.916813 123.991663 L 53.199693 123.98683 L 53.086057 123.861165 L 53.308493 123.672667 L 52.708883 123.672667 L 52.479194 122.350764 L 52.851532 121.705521 L 53.037702 121.852936 L 53.231124 121.678938 L 52.882964 121.413107 L 53.071551 120.415035 L 52.372812 120.248286 L 52.186643 119.615127 L 50.653769 119.102799 L 49.952613 119.366212 L 49.705999 119.926873 L 49.140238 120.22412 L 48.6591 121.077194 L 48.231153 121.178693 L 47.870903 122.029351 L 46.964235 122.442596 L 47.04644 123.423753 L 46.68619 123.542168 L 46.427488 123.445502 L 46.006794 123.665417 L 45.622367 123.467252 L 43.758257 123.121672 L 42.363198 123.64125 L 42.174611 122.184016 L 42.776638 120.866946 L 42.4043 120.323202 L 40.17027 120.586616 L 39.819692 120.951529 L 39.062926 121.086861 L 37.01023 122.171933 L 36.850656 122.37493 L 37.351137 122.437763 L 37.571155 123.02984 L 37.368062 123.153089 L 37.445431 123.421336 L 37.056168 123.798332 L 37.353555 124.530574 L 38.726855 126.338221 L 38.533432 126.567802 L 38.714766 126.949632 L 38.395619 126.886799 L 37.428506 127.37496 L 36.828896 127.428126 L 35.600663 127.261378 L 35.33229 126.210139 L 33.298936 126.272972 L 33.178047 125.920143 L 32.958029 125.891143 L 32.841975 125.639812 L 32.987042 125.134734 L 32.808126 124.037579 L 33.22882 123.505918 L 31.270417 119.114882 L 31.263164 118.68472 L 31.85552 116.898822 L 31.874863 116.335745 L 31.562969 115.717085 L 30.407269 114.300933 L 30.245278 113.728189 L 30.540247 112.676951 L 30.939181 112.283038 L 31.901458 111.860126 L 32.273797 111.164133 L 33.223985 111.277716 L 35.233161 110.719471 L 35.960913 110.381142 L 36.577447 109.880897 L 36.90143 109.119655 L 37.440595 108.459912 L 37.638853 108.452662 L 37.735564 108.198915 L 38.446392 107.602005 L 41.07452 108.479245 L 41.843375 108.558995 L 44.471503 107.838836 L 45.025175 107.394174 L 47.230191 106.761014 L 48.291597 106.011855 L 49.510159 104.832534 L 50.008222 103.561381 L 50.549805 102.918555 L 51.562855 102.478726 L 53.310911 102.500476 L 54.062841 102.026814 L 54.6963 101.371905 L 55.520763 100.961076 L 56.490293 100.869243 Z M 56.371822 122.280681 L 56.074435 122.715677 L 56.043004 122.350764 L 55.929368 122.445013 L 55.929368 122.237182 L 55.738363 122.355597 L 55.868923 122.512679 L 55.808479 122.853425 L 55.610221 122.954924 L 56.403253 123.30292 L 56.52656 123.128922 L 56.441938 122.991174 L 56.65712 122.838925 L 56.342809 122.754343 L 56.301706 122.575512 L 56.516889 122.597261 L 56.379075 122.353181 L 56.710311 122.184016 L 56.761085 122.302431 L 56.976267 122.043851 L 56.898898 121.918185 L 56.734489 122.077684 L 56.086524 122.089767 Z M 56.925494 122.459513 L 56.768338 122.331431 L 56.67888 122.42568 Z M 54.9139 123.527668 L 54.82686 123.646083 L 54.921153 123.621917 Z M 56.403253 124.346909 L 56.050257 124.448408 L 56.180817 124.57649 L 56.033333 124.702156 L 56.441938 124.63449 Z M 56.403253 124.346909 " stroke="rgb(100%, 100%, 100%)" stroke-width="0.5" stroke-opacity="1" stroke-miterlimit="4"/><path stroke-linecap="butt" transform="matrix(1.615634, 0, 0, 1.616397, 42.216726, 0.072489)" fill-opacity="1" fill="rgb(17.248535%, 44.309998%, 94.119263%)" fill-rule="nonzero" stroke-linejoin="miter" d="M 69.21024 51.506937 L 71.11787 52.355178 L 72.68701 54.012994 L 72.607223 54.070993 L 71.057425 52.430094 L 69.234418 51.635019 L 68.620302 51.635019 Z M 48.323028 35.438692 L 46.500021 35.663439 L 46.125265 35.866437 L 46.304181 36.047685 L 46.183292 36.168517 L 45.873816 36.146768 L 45.682811 35.849521 L 45.881069 35.477358 L 46.794991 34.938447 L 47.542085 35.042363 L 48.29885 35.315443 Z M 60.583597 37.323672 L 60.109712 37.705501 L 60.027507 38.256495 L 60.35149 38.200912 L 62.643546 42.681364 L 62.305057 46.726821 L 62.575849 46.743738 L 62.723333 47.002318 L 62.916756 47.80706 L 63.898375 48.805132 L 64.157077 48.889715 L 64.548758 48.896965 L 64.860652 48.689134 L 65.416741 47.869892 L 66.405614 47.927892 L 67.155126 48.319388 L 67.938487 48.164723 L 68.032781 48.275888 L 67.689456 48.39672 L 68.165759 48.36772 L 68.574364 48.640801 L 68.726684 50.221284 L 69.410916 50.641779 L 69.147378 50.62003 L 69.096604 50.924526 L 68.446221 51.294273 L 68.559857 51.581853 L 67.278433 51.910516 L 66.913348 53.527249 L 66.739268 53.785829 L 65.922058 54.242574 L 65.590822 54.721069 L 64.722838 54.9434 L 64.207851 55.489561 L 63.088418 55.685309 L 62.829716 54.948234 L 62.35583 54.982066 L 61.773145 54.36824 L 61.287171 54.510822 L 61.026051 54.776652 L 60.980113 54.62682 L 60.680308 54.672736 L 60.704486 54.885401 L 60.465126 54.455239 L 60.259614 54.460072 L 60.003329 54.737986 L 59.394048 55.013483 L 59.297337 55.23823 L 59.476253 56.830797 L 59.379542 57.055544 L 59.807489 58.244532 L 59.75188 58.611861 L 60.174992 59.00819 L 60.598103 59.95068 L 60.573926 60.28901 L 61.127598 61.432081 L 61.282336 61.439331 L 61.243651 61.661662 L 61.483011 61.85741 L 61.628078 62.343155 L 61.110673 63.12373 L 60.866477 63.106813 L 60.762513 63.244562 L 60.779437 63.846305 L 61.035722 64.145969 L 61.013962 64.390049 L 60.411934 64.36105 L 59.988823 64.573714 L 59.834085 64.484298 L 60.124218 64.941044 L 60.298299 64.706629 L 60.537659 64.764629 L 60.358743 65.131958 L 60.363579 65.946366 L 61.420149 66.146947 L 61.785234 66.057532 L 61.852932 65.334956 L 62.174497 64.909627 L 61.894034 63.201062 L 62.297804 64.365883 L 62.597609 64.733212 L 63.429325 64.796045 L 62.597609 65.151291 L 62.358248 65.405039 L 62.097128 65.405039 L 61.993163 66.115531 L 61.756221 66.48286 L 61.601483 66.557776 L 61.584558 66.354778 L 61.330691 66.586776 L 60.999455 67.548599 L 60.540077 67.526849 L 60.269285 67.923178 L 59.783311 68.247008 L 59.51252 69.003417 L 59.041052 69.254747 L 59.135346 69.402163 L 58.995115 69.815408 L 58.593763 69.532661 L 57.967558 69.796075 L 57.382454 69.269247 L 57.225299 69.452912 L 57.329263 69.728409 L 57.892606 70.020823 L 57.624233 70.330153 L 57.520268 70.095738 L 57.331681 70.255237 L 58.059433 70.724065 L 58.596181 71.369308 L 59.113586 71.473224 L 59.594724 71.24606 L 59.843756 71.487724 L 59.626155 71.789804 L 59.722867 72.002468 L 59.887276 71.985552 L 59.851009 71.830887 L 60.165321 71.949302 L 61.055064 71.903386 L 61.337945 71.697971 L 61.843261 71.772887 L 62.505733 72.270715 L 63.42449 72.505129 L 63.917717 72.964291 L 66.352423 72.548629 L 68.504248 73.089957 L 69.534223 73.769033 L 70.378029 74.602774 L 69.331129 75.351932 L 68.308408 75.168268 L 67.974754 75.470348 L 67.769243 75.380932 L 67.210735 76.53367 L 66.441881 77.217579 L 66.333081 78.974477 L 65.365968 80.905373 L 62.972365 80.774874 L 62.909502 80.52596 L 63.559885 80.090965 L 63.743637 79.762302 L 63.303601 78.882645 L 62.882907 78.648231 L 62.774107 78.858478 L 61.272664 78.899561 L 60.112129 78.4259 L 59.974316 77.940155 L 60.706904 77.611492 L 60.223347 77.13783 L 60.097623 76.50467 L 59.797818 76.630335 L 59.464164 75.593596 L 60.361161 75.325349 L 60.397428 75.071602 L 60.682726 74.924187 L 60.946264 75.129601 L 60.779437 74.689773 L 60.407099 74.718772 L 60.136307 75.042602 L 59.802653 74.764689 L 59.645498 74.810605 L 59.171613 75.405098 L 59.016875 75.405098 L 58.71707 74.697023 L 58.499469 74.60519 L 57.957886 74.646273 L 57.375201 75.228684 L 56.391164 75.020853 L 56.125208 75.136851 L 56.171146 75.632263 L 55.656159 76.009259 L 55.397456 76.50467 L 53.898432 76.53367 L 52.672617 77.696074 L 52.012562 78.000571 L 51.466144 78.000571 L 51.101059 77.920822 L 50.757734 78.068237 L 50.55464 78.365484 L 49.502905 78.952727 L 49.229696 79.29589 L 49.026603 79.138809 L 48.973411 77.903905 L 48.289179 77.795156 L 47.701658 78.198735 L 46.901373 78.261568 L 45.767433 78.923728 L 45.049352 78.974477 L 44.031467 78.70623 L 43.659128 78.831895 L 43.144141 78.71348 L 42.904781 78.517732 L 42.868514 78.227735 L 43.17799 77.761323 L 43.453617 76.311339 L 43.390755 75.859427 L 44.08224 75.158601 L 44.926046 73.290538 L 43.97344 72.930458 L 43.499555 73.060957 L 43.279537 73.471786 L 40.902858 72.398797 L 43.240852 66.323362 L 43.429439 64.98696 L 43.608355 64.742879 L 43.475377 64.363466 L 44.154773 62.642818 L 45.05177 57.645205 L 46.081745 48.996047 L 46.396057 47.51223 L 46.898955 46.395741 L 47.491312 44.392346 L 48.303686 41.146798 L 48.48502 40.308223 L 48.639758 37.18109 L 49.009678 36.18785 L 49.32399 35.897854 L 50.868952 35.760105 L 50.839938 35.888187 L 51.062374 35.876104 L 50.888294 36.023519 L 51.149414 36.427098 L 51.408117 36.359432 L 51.529006 36.076685 L 51.313824 35.88577 L 51.654731 35.815688 L 51.744189 36.2676 L 51.30657 37.480753 L 51.882002 38.708407 L 54.268352 40.155975 L 55.407127 39.856311 L 56.5048 39.300484 L 57.041547 38.623824 L 57.19145 38.106663 L 57.525104 37.809416 L 58.726741 37.463837 L 59.132928 37.577419 L 59.679347 37.398588 L 59.974316 37.606419 L 64.379513 33.703544 L 64.52458 33.896875 Z M 54.473864 24.667723 L 54.756744 24.725723 L 55.431305 25.878461 L 55.252389 26.250623 L 55.179856 26.057292 L 55.150842 28.814679 L 55.015447 29.232758 L 54.16197 29.984333 L 54.130539 30.58366 L 53.7582 31.257903 L 53.385862 31.451234 L 53.102982 31.869313 L 52.244669 32.077144 L 51.301735 33.302381 L 51.45889 33.500546 L 51.357344 33.645544 L 49.926017 33.191216 L 49.836559 33.268548 L 49.969537 33.488463 L 50.375725 33.650378 L 50.694872 33.993541 L 50.3588 33.889625 L 49.979208 34.109539 L 50.07592 34.237621 L 49.43279 34.307704 L 49.077376 34.551785 L 48.482602 33.662461 L 48.359295 33.031717 L 48.414904 31.951479 L 48.818673 30.201831 L 49.819635 28.133186 L 52.370394 24.116729 L 53.269809 23.15974 L 53.593791 23.038908 L 53.813809 23.13074 L 54.362646 23.998314 Z M 54.473864 24.667723 " stroke="rgb(100%, 100%, 100%)" stroke-width="0.5" stroke-opacity="1" stroke-miterlimit="4"/><path stroke-linecap="butt" transform="matrix(1.615634, 0, 0, 1.616397, 42.216726, 0.072489)" fill-opacity="1" fill="rgb(17.248535%, 44.309998%, 94.119263%)" fill-rule="nonzero" stroke-linejoin="miter" d="M 97.870619 42.198036 L 98.390442 43.002778 L 100.774374 45.731165 L 99.633181 46.995068 L 99.589661 47.272982 L 98.105144 47.809476 L 97.870619 48.13814 L 99.154461 51.448938 L 99.816933 52.239179 L 100.087724 52.128014 L 100.622054 52.277845 L 100.808223 52.019265 L 101.274855 51.910516 L 101.627851 52.239179 L 102.222625 52.398677 L 102.614306 52.865089 L 102.865755 52.882006 L 103.163142 53.159919 L 103.540316 52.964171 L 103.857045 53.314584 L 104.098823 53.114003 L 105.012745 52.879589 L 105.131216 53.085003 L 105.046593 53.459583 L 106.340106 54.392406 L 106.734205 55.23823 L 106.821245 55.837557 L 107.118632 56.183137 L 107.519984 55.866557 L 107.856055 55.876224 L 107.964855 55.675642 L 108.281585 55.837557 L 108.716785 55.291397 L 108.837674 55.738475 L 109.164075 56.021222 L 109.756431 55.939056 L 110.003045 55.392895 L 110.339117 55.767475 L 111.332825 55.837557 L 111.823634 56.296719 L 111.615705 54.133826 L 112.95032 53.10917 L 115.18435 52.606509 L 118.511217 54.03716 L 118.175145 55.305896 L 118.576497 55.330063 L 119.064889 55.980139 L 118.825529 57.521956 L 120.484127 58.98644 L 119.80473 59.177355 L 119.035876 59.003357 L 118.665955 59.827431 L 117.444976 59.578517 L 118.317795 61.400665 L 118.071181 63.379894 L 120.271362 64.805712 L 120.849211 64.97971 L 123.528113 64.974876 L 123.525695 65.511371 L 123.885945 65.436455 L 126.620455 66.325779 L 127.353043 65.757868 L 127.86803 64.67038 L 128.257293 64.394883 L 128.738432 65.455788 L 129.026148 66.652025 L 129.417828 67.009688 L 129.911056 68.256675 L 130.716177 68.34609 L 131.240835 69.841991 L 131.216657 71.059978 L 130.626719 71.884053 L 130.314825 72.642878 L 130.25438 73.203539 L 129.582237 74.614857 L 129.635428 75.550097 L 130.193936 76.589252 L 130.89751 77.372244 L 130.742772 77.729907 L 129.983589 78.220485 L 129.292104 78.34615 L 128.765027 78.135903 L 128.126733 78.290568 L 127.930893 78.558815 L 127.793079 79.349056 L 126.937185 80.815957 L 125.413982 81.108371 L 125.314853 81.485367 L 124.529075 82.215192 L 124.197838 83.701427 L 123.610318 84.269337 L 120.285868 84.399836 L 118.707057 84.411919 L 116.828441 83.752176 L 117.20078 83.155266 L 117.108904 82.265942 L 117.229793 81.963862 L 117.067802 81.685948 L 116.347303 81.304119 L 116.199818 81.292036 L 116.028156 81.594116 L 115.672742 81.296869 L 115.085221 81.82128 L 114.790252 81.550616 L 114.87971 81.22437 L 114.321202 80.733792 L 113.03736 81.047955 L 111.647136 80.820791 L 110.858939 81.018955 L 110.285925 80.586376 L 110.077996 79.839634 L 109.570262 79.680136 L 109.282546 79.097726 L 108.576554 78.358234 L 108.187291 77.599408 L 108.196962 77.314245 L 106.975983 77.176496 L 105.926666 77.381911 L 105.481794 77.71299 L 105.462452 78.196319 L 104.874931 78.290568 L 104.152014 78.283318 L 103.883641 77.976404 L 103.395249 78.196319 L 103.16556 78.11657 L 103.148635 78.283318 L 102.345932 78.225318 L 101.228917 77.993321 L 100.718765 77.611492 L 99.804844 77.604242 L 99.674284 78.164902 L 99.51471 77.993321 L 99.478443 78.249485 L 99.343048 78.193902 L 99.534052 78.529815 L 99.463937 78.69898 L 99.304363 78.283318 L 98.770033 78.03682 L 98.673322 77.671908 L 98.992469 77.326328 L 99.033572 77.012165 L 98.600789 77.050831 L 98.006015 76.818833 L 98.20669 76.304089 L 97.578067 75.286683 L 97.549054 74.733272 L 97.268591 74.158112 L 97.196058 74.025197 L 96.596448 73.945447 L 96.456217 73.060957 L 96.108056 73.015041 L 96.31115 72.323881 L 96.313568 71.185644 L 96.947026 70.767565 L 96.429621 70.424402 L 96.371594 70.086072 L 96.511826 69.895157 L 97.205729 69.762242 L 97.938317 69.411829 L 98.375935 67.650098 L 98.155917 66.86469 L 97.225071 65.714369 L 97.123524 64.269217 L 96.82372 63.909138 L 96.016181 63.442726 L 95.612411 62.628318 L 94.587272 61.963742 L 94.340658 62.256156 L 93.963484 62.386654 L 92.437864 63.964721 L 92.133224 63.529725 L 91.482841 63.911555 L 91.347445 63.785889 L 91.081489 63.909138 L 90.605186 62.77815 L 89.894359 61.780077 L 89.350358 61.296749 L 88.874055 61.473164 L 88.489628 59.568851 L 86.997857 57.976285 L 85.849411 57.930368 L 85.863917 56.412718 L 87.940791 56.417551 L 88.216418 56.18797 L 90.281204 55.733642 L 90.735746 56.033305 L 91.253152 55.968056 L 92.109046 55.388062 L 93.269581 55.134315 L 94.057778 54.61232 L 94.231858 54.31024 L 93.72896 53.751996 L 93.158363 53.597331 L 92.602274 53.10917 L 91.316014 52.75634 L 91.301507 52.560592 L 91.698023 52.111097 L 92.336318 51.632602 L 92.42094 51.279773 L 91.963979 50.450865 L 91.717366 50.3252 L 90.989613 48.263805 L 88.728988 46.417491 L 87.933538 46.139578 L 87.292826 46.139578 L 86.499794 45.059339 L 87.338764 44.476929 L 87.817484 44.805592 L 87.894853 45.042423 L 88.114872 44.916757 L 89.415638 45.262337 L 90.148226 44.916757 L 91.079071 44.0371 L 91.074236 43.587605 L 91.231392 43.39669 L 91.765721 43.280691 L 92.089704 43.413607 L 92.094539 43.106693 L 92.720745 42.898862 L 93.197048 44.087849 L 93.658844 44.31018 L 94.572765 44.05885 L 94.729921 44.377846 L 95.556802 43.933184 L 95.510864 43.227525 L 95.90738 43.06561 L 96.521497 43.08736 Z M 97.870619 42.198036 " stroke="rgb(100%, 100%, 100%)" stroke-width="0.5" stroke-opacity="1" stroke-miterlimit="4"/><path stroke-linecap="butt" transform="matrix(1.615634, 0, 0, 1.616397, 42.216726, 0.072489)" fill-opacity="1" fill="rgb(17.248535%, 44.309998%, 94.119263%)" fill-rule="nonzero" stroke-linejoin="miter" d="M 51.466144 77.993321 L 52.012562 77.993321 L 52.670199 77.691241 L 53.896014 76.52642 L 55.395038 76.49742 L 55.653741 76.002009 L 56.168728 75.625013 L 56.12279 75.127185 L 56.391164 75.016019 L 57.372783 75.219017 L 57.955469 74.636607 L 58.497052 74.59794 L 58.714652 74.689773 L 59.014457 75.395432 L 59.169195 75.395432 L 59.64308 74.803355 L 59.800236 74.757439 L 60.13389 75.037769 L 60.407099 74.711523 L 60.777019 74.682523 L 60.943846 75.122351 L 60.680308 74.916937 L 60.39501 75.066769 L 60.356325 75.315683 L 59.459329 75.586347 L 59.792982 76.623085 L 60.095205 76.49742 L 60.22093 77.13058 L 60.704486 77.604242 L 59.971898 77.935321 L 60.112129 78.421066 L 61.270247 78.894728 L 62.771689 78.853645 L 62.880489 78.640981 L 63.301183 78.877811 L 63.743637 79.755052 L 63.557468 80.086132 L 62.909502 80.518711 L 62.972365 80.767625 L 65.368386 80.898123 L 66.335498 78.967227 L 66.444298 77.210329 L 67.210735 76.52642 L 67.769243 75.373682 L 67.977172 75.463098 L 68.310826 75.163434 L 69.331129 75.344682 L 70.378029 74.59794 L 72.836912 76.937249 L 72.43556 78.66998 L 73.866887 79.839634 L 73.7871 80.61296 L 73.228593 80.772458 L 73.373659 81.434617 L 75.266782 81.816447 L 75.590765 82.15236 L 75.542409 82.534189 L 76.185539 82.669521 L 76.144437 83.085183 L 76.615904 83.319597 L 76.444242 83.650677 L 76.062232 83.70626 L 75.93409 84.00834 L 76.265326 84.262087 L 76.405557 84.617333 L 75.680223 84.542418 L 75.926836 84.701916 L 75.602854 85.105495 L 75.651209 85.697572 L 75.145893 86.016569 L 74.766301 86.49748 L 75.598018 87.072641 L 76.30401 86.966308 L 76.395886 86.656978 L 76.997914 86.698061 L 77.333985 86.337982 L 77.101878 86.243733 L 77.215514 86.045568 L 77.498394 86.127734 L 77.522572 86.016569 L 77.227603 85.255327 L 77.539497 85.175577 L 77.631372 85.28191 L 77.923924 85.122411 L 77.919088 85.60574 L 78.052066 85.697572 L 78.081079 86.105984 L 78.291426 86.248566 L 78.349453 86.693228 L 78.076244 88.36071 L 78.3422 88.476709 L 78.296262 88.868205 L 78.96357 89.117119 L 78.915214 90.112775 L 78.724209 90.117608 L 79.258539 90.51877 L 79.493064 91.132597 L 79.993544 91.437094 L 80.223234 92.13792 L 80.57623 92.555999 L 80.448087 92.935411 L 80.605243 93.795735 L 80.397314 93.846485 L 80.411821 94.136482 L 80.211145 94.025316 L 79.858149 94.337063 L 79.265792 93.938317 L 78.085915 93.587904 L 77.583017 92.986161 L 76.451495 92.568082 L 75.743085 92.067837 L 74.923457 92.084754 L 73.968434 91.898672 L 73.276948 92.413417 L 72.176858 92.833912 L 71.038083 92.795246 L 70.414295 93.433239 L 69.986348 93.650737 L 69.688961 93.633821 L 69.147378 93.268908 L 68.134328 93.077993 L 67.058415 92.278085 L 66.794877 92.348168 L 66.086467 93.348657 L 65.448173 93.297907 L 64.967034 92.986161 L 63.866944 92.584998 L 63.523619 91.46126 L 62.718498 91.062515 L 62.05119 90.956182 L 61.011544 91.393594 L 60.042014 92.311918 L 59.768805 92.833912 L 59.415808 92.872579 L 58.876643 92.449667 L 58.470456 92.4255 L 57.49609 93.39699 L 56.5048 93.167409 L 55.767377 94.312897 L 54.394077 94.64156 L 54.108779 93.525072 L 53.102982 92.384417 L 52.650857 91.502343 L 52.382483 91.410511 L 52.073007 90.997265 L 53.47532 90.649269 L 53.221453 90.025776 L 51.809469 90.315773 L 51.712758 89.996776 L 51.712758 89.793778 L 52.019816 89.571447 L 51.959371 89.143702 L 52.662946 88.254378 L 53.240795 87.816966 L 53.973383 87.548719 L 54.152299 87.186223 L 52.716137 87.282888 L 52.730643 86.980808 L 52.471941 86.466064 L 52.430839 85.083745 L 51.234037 84.223421 L 51.292064 83.991423 L 51.720011 83.798092 L 51.990802 83.053767 L 52.271265 82.932935 L 52.803177 82.76377 L 52.885381 83.097266 L 53.078804 83.251931 L 54.016903 83.302681 L 54.190983 83.164932 L 54.060423 82.270775 L 54.788175 81.913112 L 53.615551 81.098704 L 53.086057 80.910206 L 52.01498 79.629387 L 51.778038 79.639053 L 51.727264 78.778729 L 51.480651 78.370317 Z M 51.466144 77.993321 " stroke="rgb(100%, 100%, 100%)" stroke-width="0.5" stroke-opacity="1" stroke-miterlimit="4"/><path fill="rgb(17.248535%, 44.309998%, 94.119263%)" d="M 88.0625 205.398438 L 88.285156 205.308594 L 88.542969 205.871094 L 87.886719 205.996094 L 87.015625 205.488281 L 87.441406 205.207031 Z M 54.734375 201.835938 L 55.785156 202.171875 L 55.777344 202.433594 L 56.300781 202.449219 L 56.863281 203.109375 L 58.113281 203.335938 L 58.617188 203.769531 L 62.589844 204.585938 L 64.425781 206.503906 L 65.410156 206.414062 L 66.796875 206.691406 L 66.59375 207.390625 L 67.183594 207.707031 L 67.425781 207.617188 L 67.363281 206.515625 L 68.453125 206.542969 L 69.070312 207.019531 L 69.613281 207.105469 L 69.4375 207.449219 L 69.851562 208.25 L 69.882812 207.15625 L 70.097656 207.601562 L 70.390625 207.175781 L 71.40625 207.773438 L 72.851562 207.738281 L 73.355469 206.914062 L 74.199219 206.660156 L 75.457031 205.648438 L 77.757812 204.890625 L 78.035156 205.109375 L 78.28125 203.660156 L 78.589844 203.324219 L 78.410156 202.21875 L 79 201.386719 L 81.464844 201.878906 L 81.351562 202.066406 L 82.050781 202.582031 L 82.253906 203.707031 L 82.488281 203.707031 L 83.253906 205.035156 L 85.601562 205.261719 L 88.5 207.925781 L 87.574219 206.453125 L 88.542969 206.199219 L 88.894531 206.6875 L 89.46875 206.867188 L 89.851562 207.488281 L 90 207.265625 L 89.632812 206.777344 L 90.519531 206.820312 L 89.46875 206.394531 L 91.179688 206.429688 L 90.945312 206.195312 L 89.359375 206.035156 L 88.890625 205.230469 L 88.921875 204.816406 L 89.523438 204.78125 L 90.085938 204.433594 L 90.238281 205.539062 L 91.457031 206.089844 L 90.359375 205.191406 L 90.476562 204.632812 L 90.691406 205.128906 L 90.980469 204.097656 L 92.003906 204.253906 L 92.402344 204.5625 L 92.636719 205.328125 L 93.585938 206.578125 L 89.886719 211.546875 L 84.046875 215.734375 L 83.855469 216.078125 L 82.8125 216.320312 L 82.472656 215.941406 L 81.816406 216.304688 L 81.613281 215.960938 L 81.242188 215.972656 L 79.714844 217.035156 L 79.605469 216.898438 L 79.101562 217.734375 L 78.292969 217.878906 L 78.039062 218.570312 L 76.757812 218.941406 L 76.316406 218.234375 L 76.144531 218.523438 L 75.816406 218.542969 L 75.710938 219.238281 L 75.332031 219.550781 L 73.984375 220.011719 L 73.546875 219.351562 L 74.363281 218.523438 L 74.03125 217.964844 L 72.390625 219.039062 L 71.996094 218.792969 L 71.460938 218.992188 L 71.132812 218.855469 L 70.351562 219.25 L 69.339844 218.882812 L 69.308594 219.296875 L 68.589844 218.742188 L 68.5 216.023438 L 68.847656 215.070312 L 67.824219 214.363281 L 67.570312 214.257812 L 67.230469 214.589844 L 66.417969 213.660156 L 64.792969 213.441406 L 64.433594 213.585938 L 63.179688 213.222656 L 62.847656 212.757812 L 62.246094 212.746094 L 61.054688 211.886719 L 60.074219 212.066406 L 57.273438 210.5 L 56.714844 211.171875 L 56.984375 211.65625 L 56.761719 212.226562 L 55.644531 211.515625 L 55.207031 211.945312 L 54.566406 211.867188 L 54.277344 212.480469 L 53.96875 212.527344 L 53.542969 212.101562 L 52.988281 212.207031 L 53.675781 215.917969 L 49.410156 216.339844 L 48.03125 216.015625 L 47.777344 215.046875 L 47.371094 214.660156 L 46.964844 214.925781 L 45.804688 213.417969 L 45.105469 213.039062 L 45.445312 212.757812 L 45.433594 212.242188 L 44.832031 211.738281 L 44.609375 211.179688 L 45.117188 210.90625 L 44.136719 209.617188 L 45.5625 208.003906 L 45.457031 207.191406 L 44.972656 206.558594 L 45.007812 205.609375 L 44.539062 204.703125 L 45.308594 203.953125 L 45.414062 204.089844 L 47.785156 202.875 L 48.253906 202.804688 L 48.574219 203.167969 L 49.597656 202.550781 L 51.257812 202.160156 L 52.507812 201.339844 L 54.34375 201.472656 Z M 62.882812 189.738281 L 63.078125 189.375 L 63.128906 189.613281 Z M 66.945312 188.8125 L 67.597656 188.957031 L 66.25 189.039062 L 66.34375 188.695312 Z M 67.78125 188.597656 L 67.449219 188.355469 L 67.863281 188.425781 Z M 67.292969 188.34375 L 67.355469 188.644531 L 66.585938 188.429688 Z M 62.511719 188.261719 L 63.089844 188.847656 L 62.804688 189.601562 L 62.359375 188.484375 Z M 61.679688 187.378906 L 61.824219 187.566406 L 61.46875 187.5 Z M 71.152344 169.507812 L 71.621094 169.96875 L 73.242188 170.476562 L 73.816406 170.367188 L 74.964844 168.910156 L 76.921875 168.105469 L 77.96875 168.253906 L 78.773438 168.984375 L 80.933594 169.464844 L 81.320312 170.679688 L 82.253906 172.003906 L 82.339844 173.769531 L 83.015625 175.363281 L 85.914062 175.730469 L 86.980469 176.113281 L 88.878906 176.175781 L 93.3125 179.417969 L 94.371094 179.765625 L 93.773438 180.890625 L 92.214844 181.574219 L 91.574219 182.210938 L 91.09375 183.910156 L 91.359375 184.835938 L 93.226562 187.125 L 93.730469 188.125 L 93.695312 189.03125 L 92.742188 191.917969 L 92.753906 192.617188 L 95.917969 199.714844 L 95.238281 200.570312 L 95.527344 202.347656 L 95.292969 203.160156 L 95.476562 203.570312 L 95.835938 203.617188 L 96.027344 204.183594 L 93.988281 204.273438 L 94.132812 203.589844 L 93.4375 202.429688 L 92.40625 201.957031 L 92.035156 202.027344 L 91.664062 201.449219 L 88.878906 202.453125 L 84.835938 201.328125 L 83.292969 200.164062 L 83.011719 199.621094 L 83.210938 199.3125 L 82.296875 199.03125 L 82.242188 198.640625 L 82.035156 198.75 L 80.613281 198.03125 L 78.992188 196.414062 L 76.671875 197.625 L 76.144531 197.453125 L 76.207031 197.914062 L 75.953125 197.96875 L 76.203125 198.847656 L 74.785156 202.414062 L 74.386719 202.605469 L 73.125 202.226562 L 72.359375 202.773438 L 69.921875 203.363281 L 67.628906 201.480469 L 67.726562 201.089844 L 67.027344 201.042969 L 66.417969 200.648438 L 65.882812 200.945312 L 65.164062 200.859375 L 64.835938 200.589844 L 64.535156 199.539062 L 64.253906 199.566406 L 63.398438 198.417969 L 62.132812 197.503906 L 60.394531 197.429688 L 59.714844 198.199219 L 58.21875 198.347656 L 57.800781 198.011719 L 57.773438 197.316406 L 57.574219 197.34375 L 57.539062 198.097656 L 57.257812 198.015625 L 57.257812 197.71875 L 57.140625 197.960938 L 57.019531 197.644531 L 56.945312 197.867188 L 57.527344 198.300781 L 55.992188 198.328125 L 55.351562 197.515625 L 55.019531 197.542969 L 53.589844 196.320312 L 51.96875 193.652344 L 49.519531 191.894531 L 48.324219 190.523438 L 48.65625 189.089844 L 51.996094 186.828125 L 56.132812 184.476562 L 57.832031 184.492188 L 59.335938 185.046875 L 62.117188 184.050781 L 62.460938 182.203125 L 62.160156 181.832031 L 62.566406 181.761719 L 63.917969 180.25 L 63.832031 180.078125 L 64.109375 180.007812 L 64.453125 179.253906 L 64.273438 179.023438 L 64.550781 178.941406 L 64.5625 177.910156 L 63.726562 177.648438 L 63.074219 177.109375 L 62.28125 175.609375 L 62.21875 174.429688 L 63.125 172.570312 L 63.78125 172.070312 L 67.300781 170.929688 L 70.253906 171.222656 L 70.496094 170.09375 Z M 69.367188 175.496094 L 69.015625 175.144531 L 68.753906 175.191406 L 68.5 175.371094 L 68.382812 176 L 66.710938 177.140625 L 64.738281 177.910156 L 64.722656 178.921875 L 65.003906 178.957031 L 64.898438 179.339844 L 64.585938 179.351562 L 64.117188 180.488281 L 64.441406 180.421875 L 63.925781 180.988281 L 64.445312 181.257812 L 63.882812 181.097656 L 63.660156 181.886719 L 63.34375 181.339844 L 62.820312 181.792969 L 62.382812 183.957031 L 62.46875 184.128906 L 62.769531 183.910156 L 62.78125 184.09375 L 63.34375 183.976562 L 64.285156 184.660156 L 64.945312 184.667969 L 66.945312 183.976562 L 67.625 184.125 L 67.988281 183.78125 L 69.269531 183.472656 L 70.316406 183.675781 L 71.238281 183.457031 L 71.460938 183.738281 L 72.550781 183.9375 L 73.15625 184.582031 L 74.089844 186.210938 L 74.277344 186.046875 L 74.101562 186.300781 L 74.691406 187.214844 L 74.621094 187.5 L 73.28125 188.007812 L 72.648438 188.859375 L 72.195312 189.007812 L 70.953125 187.863281 L 69.972656 188.089844 L 69.300781 188.632812 L 66.8125 187.976562 L 65.300781 188.859375 L 63.570312 190.609375 L 63.289062 189.972656 L 63.445312 189.429688 L 63.804688 190.109375 L 63.820312 189.867188 L 62.761719 187.886719 L 63.441406 186.996094 L 62.582031 187.816406 L 61.160156 186.671875 L 60.722656 186.601562 L 60.273438 185.464844 L 60.378906 184.996094 L 59.292969 185.449219 L 59.390625 186.292969 L 60.332031 187.636719 L 61.664062 188.429688 L 62.507812 190.488281 L 63.488281 192.003906 L 63.578125 191.839844 L 63.769531 192.195312 L 63.644531 191.871094 L 64.550781 191.722656 L 63.882812 191.703125 L 63.71875 191.484375 L 64.996094 190.84375 L 64.804688 190.472656 L 65.234375 189.382812 L 65.867188 188.976562 L 66.136719 188.992188 L 65.984375 189.359375 L 66.226562 189.09375 L 68.742188 189.222656 L 69.476562 188.785156 L 70.777344 188.558594 L 71.492188 188.851562 L 71.789062 189.339844 L 72.460938 189.476562 L 72.796875 189.015625 L 73.007812 189.316406 L 73.898438 189.066406 L 74.695312 189.222656 L 75.375 188.8125 L 76.179688 188.949219 L 77.027344 190.609375 L 77.90625 190.226562 L 78.5625 190.34375 L 80.496094 191.042969 L 80.554688 191.777344 L 80.730469 191.777344 L 80.667969 191.050781 L 81.367188 191.339844 L 81.605469 191.820312 L 82.832031 192.761719 L 83.25 192.636719 L 83.714844 194.074219 L 83.5 194.683594 L 84.832031 196.6875 L 85.125 196.699219 L 85.632812 197.804688 L 88.179688 199.109375 L 89.046875 198.960938 L 90.648438 198.03125 L 91.738281 198.21875 L 92.292969 198.5625 L 92.914062 198.515625 L 92.546875 193.859375 L 90.113281 192.761719 L 89.890625 192.199219 L 90.207031 191.542969 L 89.664062 190.917969 L 88.808594 190.773438 L 88.390625 191.035156 L 87.953125 190.636719 L 86.105469 190.761719 L 84.53125 190.472656 L 84.46875 190.132812 L 84.050781 189.941406 L 83.847656 189.027344 L 83.257812 188.652344 L 83.222656 188.226562 L 81.90625 187.84375 L 82.058594 187.417969 L 81.699219 186.882812 L 80.523438 186.140625 L 79.746094 186.019531 L 79.433594 185.601562 L 79.820312 184.574219 L 81.660156 184.222656 L 83.390625 183.101562 L 84.632812 182.71875 L 86.082031 182.964844 L 86.429688 183.636719 L 87.046875 183.984375 L 86.972656 183.730469 L 88.566406 183.542969 L 89.296875 183.722656 L 89.390625 183.460938 L 90.050781 183.359375 L 90.078125 183.160156 L 89.8125 183.085938 L 90.1875 182.878906 L 90.164062 182.550781 L 89.171875 182.796875 L 87.496094 182.75 L 86.949219 181.652344 L 86.0625 181.085938 L 86.015625 180.140625 L 86.347656 180.105469 L 86.347656 179.8125 L 87.191406 179.066406 L 88.796875 179.386719 L 91.246094 180.777344 L 90.964844 179.875 L 89.238281 179.109375 L 89.296875 178.609375 L 88.910156 178.964844 L 88.152344 178.699219 L 88.113281 178.433594 L 89.289062 178.460938 L 89.007812 178.089844 L 88.078125 178.273438 L 88.960938 177.917969 L 89.214844 178.046875 L 89.382812 177.820312 L 88.839844 176.789062 L 86.507812 177.308594 L 85.730469 177.84375 L 86.34375 178.582031 L 86.246094 178.851562 L 85.980469 178.851562 L 85.765625 179.679688 L 84.992188 180.160156 L 84.320312 181.046875 L 83.648438 181.375 L 83.117188 181.136719 L 80.859375 182.339844 L 78.660156 182.652344 L 77.367188 181.679688 L 76.882812 180.832031 L 76.15625 181.402344 L 74.570312 181.011719 L 76.207031 179.585938 L 75.738281 179.703125 L 74.175781 180.941406 L 74.203125 180.074219 L 73.84375 178.867188 L 73.347656 178.253906 L 73.375 177.855469 L 72.382812 176.917969 L 71.773438 176.988281 L 70.375 176.269531 L 70.414062 175.722656 L 70.121094 175.285156 L 69.507812 175.097656 L 69.148438 175.144531 L 69.175781 175.359375 Z M 69.367188 175.496094 " fill-opacity="1" fill-rule="nonzero"/><g clip-path="url(#id4)"><path stroke-linecap="butt" transform="matrix(1.615634, 0, 0, 1.616397, 42.216726, 0.072489)" fill="none" stroke-linejoin="miter" d="M 28.376333 127.026964 L 28.514147 126.971381 L 28.67372 127.319378 L 28.267533 127.39671 L 27.728368 127.082547 L 27.991906 126.908549 Z M 7.747824 124.822988 L 8.398207 125.030819 L 8.393371 125.192734 L 8.717354 125.2024 L 9.065515 125.610812 L 9.839205 125.750978 L 10.151098 126.019225 L 12.609982 126.524303 L 13.746339 127.710873 L 14.35562 127.655291 L 15.213932 127.826872 L 15.088208 128.259451 L 15.453293 128.455199 L 15.603195 128.399616 L 15.564511 127.718123 L 16.239071 127.73504 L 16.621081 128.02987 L 16.957152 128.083036 L 16.848352 128.2957 L 17.104637 128.791112 L 17.123979 128.114452 L 17.256957 128.389949 L 17.438291 128.126536 L 18.066914 128.496282 L 18.961493 128.474532 L 19.273387 127.964621 L 19.795628 127.807539 L 20.574153 127.181629 L 21.998226 126.712801 L 22.169889 126.848133 L 22.322209 125.951559 L 22.513214 125.743728 L 22.401996 125.059818 L 22.767081 124.545074 L 24.292701 124.849571 L 24.222585 124.965569 L 24.655368 125.284566 L 24.781093 125.980559 L 24.926159 125.980559 L 25.400045 126.802216 L 26.853131 126.942382 L 28.647125 128.590531 L 28.074111 127.679457 L 28.67372 127.522375 L 28.891321 127.824456 L 29.246734 127.935621 L 29.483677 128.319867 L 29.575553 128.182118 L 29.348281 127.880038 L 29.897118 127.906621 L 29.246734 127.643207 L 30.305723 127.664957 L 30.160656 127.519959 L 29.179037 127.420877 L 28.888903 126.923048 L 28.908245 126.666885 L 29.280583 126.645135 L 29.628744 126.430054 L 29.723037 127.113963 L 30.477385 127.454709 L 29.797989 126.898882 L 29.870522 126.553302 L 30.0035 126.860216 L 30.182416 126.222223 L 30.815874 126.318888 L 31.062488 126.509803 L 31.207555 126.983465 L 31.795076 127.75679 L 29.505437 130.830757 L 25.890854 133.421396 L 25.772383 133.63406 L 25.126835 133.783892 L 24.916488 133.549478 L 24.510301 133.774225 L 24.384576 133.561561 L 24.154887 133.568811 L 23.209535 134.226137 L 23.141837 134.141555 L 22.829943 134.658716 L 22.329462 134.748132 L 22.172307 135.175877 L 21.379274 135.405458 L 21.106065 134.968046 L 20.999683 135.146877 L 20.796589 135.158961 L 20.731309 135.589123 L 20.496784 135.782454 L 19.66265 136.067618 L 19.391858 135.659205 L 19.897174 135.146877 L 19.691663 134.801298 L 18.676195 135.465874 L 18.431999 135.313626 L 18.100763 135.436874 L 17.897669 135.352292 L 17.414113 135.596373 L 16.787908 135.369208 L 16.768566 135.625372 L 16.323694 135.282209 L 16.268085 133.600227 L 16.483267 133.010567 L 15.849809 132.573155 L 15.692653 132.507906 L 15.482306 132.71332 L 14.979407 132.138159 L 13.97361 132.002828 L 13.751175 132.092243 L 12.975067 131.867496 L 12.769555 131.579915 L 12.397217 131.572666 L 11.659794 131.041005 L 11.052931 131.15217 L 9.319382 130.183097 L 8.973639 130.598759 L 9.140466 130.898423 L 9.002652 131.251252 L 8.311167 130.811424 L 8.040375 131.077254 L 7.643859 131.028921 L 7.464943 131.408334 L 7.273939 131.437334 L 7.010401 131.17392 L 6.667076 131.239169 L 7.092605 133.534978 L 4.452388 133.795975 L 3.598911 133.595394 L 3.441755 132.996067 L 3.190306 132.75682 L 2.938857 132.921151 L 2.220776 131.988328 L 1.787993 131.753914 L 1.99834 131.579915 L 1.991087 131.260919 L 1.618748 130.949172 L 1.480935 130.603593 L 1.795246 130.434428 L 1.188383 129.636936 L 2.070874 128.638864 L 2.005593 128.136202 L 1.705789 127.744706 L 1.727549 127.157463 L 1.437415 126.596802 L 1.913718 126.132807 L 1.978998 126.217389 L 3.446591 125.465814 L 3.736725 125.422315 L 3.934983 125.647062 L 4.568442 125.265233 L 5.595999 125.023569 L 6.369689 124.516074 L 7.506046 124.59824 Z M 12.791315 117.338651 L 12.912205 117.113903 L 12.943636 117.261318 Z M 15.305808 116.765907 L 15.709577 116.855323 L 14.875443 116.906072 L 14.93347 116.693408 Z M 15.823213 116.632992 L 15.617702 116.48316 L 15.873987 116.526659 Z M 15.52099 116.47591 L 15.559675 116.661991 L 15.083372 116.529076 Z M 12.561626 116.425161 L 12.919458 116.787657 L 12.74296 117.254068 L 12.467333 116.562909 Z M 12.046639 115.879 L 12.136097 115.994998 L 11.916079 115.953916 Z M 17.909758 104.822868 L 18.199892 105.108031 L 19.203271 105.422195 L 19.558685 105.354529 L 20.269513 104.453122 L 21.480821 103.955294 L 22.128787 104.047126 L 22.626849 104.499038 L 23.963882 104.796285 L 24.203243 105.54786 L 24.781093 106.367101 L 24.834284 107.459423 L 25.25256 108.445412 L 27.046554 108.672577 L 27.706608 108.909407 L 28.881649 108.948074 L 31.625831 110.953886 L 32.28105 111.168967 L 31.911129 111.864959 L 30.946435 112.287871 L 30.549919 112.681784 L 30.252531 113.733023 L 30.416941 114.305767 L 31.57264 115.721918 L 31.884534 116.340578 L 31.862774 116.901239 L 31.272835 118.687136 L 31.280088 119.119715 L 33.238491 123.510752 L 32.817797 124.039996 L 32.996713 125.139568 L 32.851646 125.642229 L 32.965282 125.895976 L 33.187718 125.924976 L 33.306189 126.275389 L 32.044107 126.330971 L 32.133565 125.908059 L 31.7032 125.190317 L 31.064906 124.897903 L 30.835217 124.941403 L 30.605527 124.58374 L 28.881649 125.204817 L 26.379246 124.508824 L 25.424222 123.788665 L 25.250142 123.452752 L 25.373449 123.261838 L 24.807688 123.087839 L 24.773839 122.846175 L 24.645697 122.913841 L 23.765624 122.469179 L 22.762245 121.46869 L 21.326083 122.217849 L 20.999683 122.111517 L 21.038367 122.39668 L 20.881211 122.430513 L 21.035949 122.974257 L 20.158295 125.18065 L 19.911681 125.299066 L 19.130738 125.064652 L 18.656853 125.402981 L 17.148157 125.767894 L 15.72892 124.603073 L 15.789364 124.361409 L 15.356581 124.332409 L 14.979407 124.088329 L 14.648171 124.271993 L 14.2033 124.218827 L 14.000206 124.052079 L 13.814037 123.402003 L 13.639957 123.418919 L 13.110463 122.708427 L 12.327101 122.142933 L 11.251189 122.097017 L 10.830495 122.573095 L 9.904485 122.664927 L 9.645782 122.457096 L 9.628858 122.026934 L 9.505551 122.043851 L 9.483791 122.510262 L 9.30971 122.459513 L 9.30971 122.275848 L 9.237177 122.42568 L 9.162226 122.229932 L 9.116288 122.36768 L 9.476537 122.635928 L 8.526349 122.652844 L 8.129833 122.150183 L 7.924322 122.167099 L 7.039414 121.410691 L 6.036035 119.760125 L 4.520086 118.672637 L 3.780245 117.824396 L 3.985756 116.937488 L 6.052959 115.538253 L 8.613389 114.083436 L 9.665124 114.093102 L 10.59597 114.436265 L 12.31743 113.820022 L 12.530195 112.676951 L 12.344026 112.44737 L 12.595475 112.40387 L 13.432027 111.46863 L 13.378836 111.362298 L 13.550499 111.318798 L 13.763263 110.852387 L 13.652046 110.709805 L 13.823708 110.659055 L 13.830961 110.021062 L 13.313556 109.859147 L 12.909787 109.525651 L 12.418977 108.597661 L 12.380293 107.867835 L 12.941218 106.717514 L 13.347405 106.408184 L 15.525826 105.702525 L 17.353669 105.883773 L 17.503571 105.185364 Z M 16.804832 108.527578 L 16.587232 108.310081 L 16.425241 108.33908 L 16.268085 108.450246 L 16.195551 108.839325 L 15.160741 109.544984 L 13.939762 110.021062 L 13.93009 110.646972 L 14.104171 110.668722 L 14.038891 110.905553 L 13.845468 110.912803 L 13.555334 111.616045 L 13.75601 111.574962 L 13.436863 111.925375 L 13.758428 112.092123 L 13.410267 111.993041 L 13.272454 112.481203 L 13.076614 112.142873 L 12.752631 112.423203 L 12.481839 113.762022 L 12.535031 113.868355 L 12.7212 113.733023 L 12.728453 113.846605 L 13.076614 113.774106 L 13.659299 114.197018 L 14.067904 114.201851 L 15.305808 113.774106 L 15.726502 113.865938 L 15.951355 113.653273 L 16.744388 113.462359 L 17.392353 113.588024 L 17.962949 113.452692 L 18.100763 113.62669 L 18.775324 113.749939 L 19.15008 114.148685 L 19.72793 115.156424 L 19.843983 115.054925 L 19.735183 115.212007 L 20.100268 115.777501 L 20.056748 115.953916 L 19.227449 116.268079 L 18.835768 116.794907 L 18.555306 116.886739 L 17.786451 116.178663 L 17.179588 116.318828 L 16.76373 116.654741 L 15.223603 116.248746 L 14.287922 116.794907 L 13.216845 117.877562 L 13.042765 117.483649 L 13.139476 117.147736 L 13.361912 117.568232 L 13.371583 117.4184 L 12.716364 116.193163 L 13.137058 115.642169 L 12.605146 116.149663 L 11.725074 115.441588 L 11.454282 115.398088 L 11.176238 114.694846 L 11.241518 114.404849 L 10.569375 114.685179 L 10.629819 115.207174 L 11.212504 116.038498 L 12.036968 116.529076 L 12.559208 117.802646 L 13.166072 118.740303 L 13.221681 118.638804 L 13.340152 118.858718 L 13.262783 118.658137 L 13.823708 118.566304 L 13.410267 118.554221 L 13.308721 118.418889 L 14.099335 118.02256 L 13.980864 117.792979 L 14.24682 117.118736 L 14.6385 116.867406 L 14.805327 116.877072 L 14.711034 117.104237 L 14.860936 116.939905 L 16.417987 117.019654 L 16.87253 116.74899 L 17.677651 116.608825 L 18.120105 116.790073 L 18.303857 117.092153 L 18.719715 117.176736 L 18.927644 116.891572 L 19.058204 117.077654 L 19.609458 116.922989 L 20.102686 117.019654 L 20.52338 116.765907 L 21.021443 116.850489 L 21.546101 117.877562 L 22.090102 117.640731 L 22.496289 117.71323 L 23.693091 118.145809 L 23.729358 118.600137 L 23.838158 118.600137 L 23.799473 118.150642 L 24.232256 118.329474 L 24.379741 118.62672 L 25.138924 119.209131 L 25.397627 119.131798 L 25.685343 120.021122 L 25.552365 120.398118 L 26.376828 121.637855 L 26.558162 121.645105 L 26.872473 122.329014 L 28.448867 123.136172 L 28.985614 123.04434 L 29.976904 122.469179 L 30.651465 122.585178 L 30.99479 122.797843 L 31.379217 122.768843 L 31.151946 119.888207 L 29.645668 119.209131 L 29.507855 118.861135 L 29.703695 118.455139 L 29.367623 118.068476 L 28.838129 117.979061 L 28.579427 118.140976 L 28.308635 117.894478 L 27.165025 117.971811 L 26.190659 117.792979 L 26.151974 117.582732 L 25.893272 117.464316 L 25.767547 116.898822 L 25.402462 116.666825 L 25.380702 116.403411 L 24.56591 116.16658 L 24.660203 115.903166 L 24.437768 115.572086 L 23.710015 115.112925 L 23.228877 115.038009 L 23.035454 114.779428 L 23.274815 114.143852 L 24.41359 113.926354 L 25.484667 113.232778 L 26.253521 112.995947 L 27.150518 113.148196 L 27.365701 113.563858 L 27.74771 113.778939 L 27.701772 113.621857 L 28.688227 113.505858 L 29.140352 113.617024 L 29.198379 113.455109 L 29.606984 113.392276 L 29.623908 113.269028 L 29.459499 113.223111 L 29.691606 113.095029 L 29.677099 112.892032 L 29.062983 113.04428 L 28.025755 113.01528 L 27.687266 112.336204 L 27.138429 111.985791 L 27.109416 111.400964 L 27.314927 111.379214 L 27.314927 111.197966 L 27.837168 110.736388 L 28.830876 110.934553 L 30.346825 111.794877 L 30.172745 111.236633 L 29.104085 110.762971 L 29.140352 110.453641 L 28.900992 110.673555 L 28.431942 110.509224 L 28.407764 110.344892 L 29.135516 110.361809 L 28.961436 110.132228 L 28.386004 110.24581 L 28.932423 110.025896 L 29.089579 110.105645 L 29.193543 109.96548 L 28.857472 109.327486 L 27.414056 109.6489 L 26.932918 109.979979 L 27.312509 110.436724 L 27.252065 110.603473 L 27.087656 110.603473 L 26.954678 111.115801 L 26.475957 111.413047 L 26.060099 111.961625 L 25.64424 112.164623 L 25.315422 112.017208 L 23.917945 112.761533 L 22.556734 112.954864 L 21.756448 112.353121 L 21.456643 111.82871 L 21.006936 112.181539 L 20.025317 111.939875 L 21.038367 111.057801 L 20.748233 111.1303 L 19.781121 111.896376 L 19.798045 111.359881 L 19.57561 110.613139 L 19.268551 110.233727 L 19.285476 109.987229 L 18.671359 109.407235 L 18.294186 109.450735 L 17.42862 109.006073 L 17.452798 108.667743 L 17.271464 108.39708 L 16.891872 108.281081 L 16.669437 108.310081 L 16.686361 108.442996 Z M 16.804832 108.527578 " stroke="rgb(100%, 100%, 100%)" stroke-width="0.5" stroke-opacity="1" stroke-miterlimit="4"/></g><path stroke-linecap="butt" transform="matrix(1.615634, 0, 0, 1.616397, 42.216726, 0.072489)" fill-opacity="1" fill="rgb(17.248535%, 44.309998%, 94.119263%)" fill-rule="nonzero" stroke-linejoin="miter" d="M 35.665944 106.84318 L 36.362265 107.362757 L 35.48461 107.328924 L 35.242832 107.063094 Z M 33.045069 105.083865 L 34.217693 105.311029 L 35.936735 106.016688 L 36.147082 106.297019 L 35.337125 106.613599 L 34.336164 106.4831 L 32.605033 105.311029 L 32.779113 105.062115 Z M 40.907693 72.391547 L 43.284372 73.466952 L 43.506808 73.053707 L 43.980693 72.923208 L 44.930881 73.285704 L 44.089493 75.151351 L 43.39559 75.854594 L 43.46087 76.304089 L 43.182825 77.754073 L 42.875767 78.220485 L 42.912034 78.510482 L 43.148976 78.70623 L 43.666382 78.824645 L 44.036302 78.69898 L 45.056606 78.967227 L 45.772269 78.916478 L 46.908626 78.254318 L 47.706494 78.193902 L 48.294015 77.787906 L 48.978247 77.896655 L 49.031438 79.133975 L 49.234532 79.28864 L 49.507741 78.945477 L 50.561894 78.358234 L 50.764987 78.063403 L 51.108312 77.913572 L 51.473397 77.993321 L 51.485486 78.370317 L 51.734518 78.778729 L 51.782873 79.639053 L 52.022234 79.629387 L 53.093311 80.910206 L 53.622805 81.098704 L 54.795429 81.913112 L 54.067676 82.270775 L 54.198237 83.164932 L 54.021739 83.302681 L 53.086057 83.251931 L 52.890217 83.099683 L 52.81043 82.76377 L 52.276101 82.932935 L 51.995638 83.05135 L 51.724846 83.798092 L 51.294481 83.991423 L 51.238872 84.223421 L 52.435674 85.081329 L 52.474359 86.463647 L 52.733061 86.980808 L 52.718555 87.280472 L 54.154717 87.183806 L 53.975801 87.546302 L 53.243213 87.814549 L 52.665363 88.251961 L 51.961789 89.143702 L 52.022234 89.569031 L 51.715175 89.791362 L 51.715175 89.994359 L 51.811887 90.313356 L 53.223871 90.023359 L 53.477738 90.646852 L 52.073007 90.992432 L 52.384901 91.405678 L 52.650857 91.49751 L 53.100564 92.382001 L 54.111196 93.522655 L 54.394077 94.636726 L 55.767377 94.31048 L 56.5048 93.164992 L 57.49609 93.394573 L 58.470456 92.4255 L 58.876643 92.44725 L 59.418226 92.872579 L 59.771222 92.831496 L 60.044432 92.309501 L 61.013962 91.391178 L 62.053608 90.956182 L 62.718498 91.062515 L 63.523619 91.458844 L 63.866944 92.582582 L 64.969452 92.983744 L 63.436579 95.726632 L 63.458339 96.081878 L 63.29393 96.002129 L 62.807956 96.903536 L 62.662889 97.536696 L 61.852932 97.442447 L 61.485429 98.143272 L 60.527988 98.426019 L 60.559419 98.810265 L 60.801197 98.960097 L 60.158067 99.373343 L 59.819578 99.238011 L 58.93467 99.25976 L 58.535736 98.911764 L 58.446278 99.006013 L 58.576838 99.419259 L 58.499469 99.731005 L 58.709816 100.081418 L 59.461746 100.182917 L 59.234475 101.284906 L 58.709816 101.272822 L 56.507218 100.874077 L 55.537687 100.963492 L 54.713224 101.376738 L 54.079765 102.031648 L 53.330253 102.505309 L 51.57978 102.481143 L 50.566729 102.923388 L 50.025146 103.566215 L 49.527083 104.837368 L 48.308522 106.016688 L 47.249533 106.765847 L 45.042099 107.39659 L 44.488427 107.841252 L 41.862717 108.563828 L 41.091445 108.484079 L 38.463316 107.604421 L 37.752489 108.203748 L 37.655778 108.457496 L 37.457519 108.464746 L 36.918354 109.124488 L 36.594372 109.88573 L 35.977837 110.385975 L 35.250085 110.724305 L 33.240909 111.280132 L 32.290721 111.168967 L 31.635502 110.953886 L 28.888903 108.948074 L 27.716279 108.909407 L 27.056225 108.672577 L 25.262231 108.445412 L 24.841537 107.459423 L 24.788346 106.367101 L 24.210496 105.54786 L 23.973554 104.796285 L 22.636521 104.499038 L 22.138458 104.047126 L 21.490492 103.955294 L 20.279184 104.453122 L 19.568356 105.354529 L 19.212942 105.422195 L 18.209563 105.108031 L 17.919429 104.822868 L 18.562559 104.412039 L 18.879289 103.583131 L 18.951822 103.169885 L 18.584319 101.951898 L 19.167005 101.289739 L 20.699878 100.939326 L 23.168432 99.95817 L 23.891349 99.967836 L 24.23951 100.132168 L 24.389412 100.27475 L 24.077518 100.211917 L 24.026745 100.460831 L 24.880222 101.074658 L 24.812524 100.779828 L 25.14376 100.779828 L 25.472578 100.250583 L 26.009325 99.91467 L 25.869094 99.344343 L 24.73999 97.592278 L 24.795599 97.162116 L 25.482249 95.973129 L 25.458071 95.799131 L 24.993857 95.482551 L 24.872968 95.941713 L 24.367652 95.707298 L 23.724522 95.941713 L 23.535935 95.765298 L 24.077518 93.69182 L 24.087189 93.227825 L 23.913109 93.249575 L 23.913109 92.945078 L 24.128292 92.44725 L 24.524808 92.374751 L 24.868133 91.971172 L 25.194533 92.118587 L 25.516098 92.067837 L 26.401006 92.572915 L 28.320724 90.951349 L 29.154859 89.677779 L 32.619539 85.496991 L 32.854064 85.600906 L 33.016055 85.356826 L 32.834722 85.496991 L 32.750099 85.332659 L 34.28539 83.795676 L 36.894176 80.255297 L 39.227335 76.074508 Z M 25.213875 100.84266 L 25.122 101.45407 L 25.344436 101.301822 L 29.314432 103.578298 L 30.407269 103.967377 L 31.171288 104.801118 L 32.053778 105.489861 L 32.740428 106.415434 L 33.678527 107.051011 L 35.192058 107.76392 L 36.935279 107.916168 L 37.285857 107.790503 L 37.682373 106.727181 L 34.735098 105.120115 L 32.331823 104.392706 L 31.688693 103.653214 L 31.7032 103.133636 L 31.16887 102.539142 L 30.66839 102.263645 L 30.044602 102.256395 L 29.09925 101.193073 L 28.040262 101.306655 L 27.798483 100.980409 L 27.728368 101.212406 L 27.59539 101.040825 L 26.761255 100.745995 L 26.236597 100.086252 L 25.562036 100.424581 Z M 25.213875 100.84266 " stroke="rgb(100%, 100%, 100%)" stroke-width="0.5" stroke-opacity="1" stroke-miterlimit="4"/></svg>