<svg xmlns="http://www.w3.org/2000/svg" xmlns:xlink="http://www.w3.org/1999/xlink" width="411" zoomAndPan="magnify" viewBox="0 0 308.25 262.500001" height="350" preserveAspectRatio="xMidYMid meet" version="1.0"><defs><clipPath id="id1"><path d="M 0 0.0703125 L 307.5 0.0703125 L 307.5 261.933594 L 0 261.933594 Z M 0 0.0703125 " clip-rule="nonzero"/></clipPath><clipPath id="id2"><path d="M 287 166 L 307.5 166 L 307.5 192 L 287 192 Z M 287 166 " clip-rule="nonzero"/></clipPath><clipPath id="id3"><path d="M 138 0.0703125 L 180 0.0703125 L 180 44 L 138 44 Z M 138 0.0703125 " clip-rule="nonzero"/></clipPath><clipPath id="id4"><path d="M 80 177 L 233 177 L 233 261.933594 L 80 261.933594 Z M 80 177 " clip-rule="nonzero"/></clipPath><clipPath id="id5"><path d="M 74 171 L 240 171 L 240 261.933594 L 74 261.933594 Z M 74 171 " clip-rule="nonzero"/></clipPath><clipPath id="id6"><path d="M 48 183 L 97 183 L 97 261.933594 L 48 261.933594 Z M 48 183 " clip-rule="nonzero"/></clipPath><clipPath id="id7"><path d="M 45.917969 177 L 104 177 L 104 261.933594 L 45.917969 261.933594 Z M 45.917969 177 " clip-rule="nonzero"/></clipPath></defs><g clip-path="url(#id1)"><path fill="rgb(100%, 100%, 100%)" d="M 0 0.0703125 L 307.5 0.0703125 L 307.5 261.933594 L 0 261.933594 Z M 0 0.0703125 " fill-opacity="1" fill-rule="nonzero"/><path fill="rgb(100%, 100%, 100%)" d="M 0 0.0703125 L 307.5 0.0703125 L 307.5 261.933594 L 0 261.933594 Z M 0 0.0703125 " fill-opacity="1" fill-rule="nonzero"/><path fill="rgb(100%, 100%, 100%)" d="M 0 0.0703125 L 307.5 0.0703125 L 307.5 261.933594 L 0 261.933594 Z M 0 0.0703125 " fill-opacity="1" fill-rule="nonzero"/></g><path stroke-linecap="butt" transform="matrix(2.257421, 0, 0, 2.253776, 45.918489, 0.0691852)" fill-opacity="1" fill="rgb(17.248535%, 44.309998%, 94.119263%)" fill-rule="nonzero" stroke-linejoin="miter" d="M 60.001519 19.909799 L 60.171099 19.895933 L 60.043049 20.422827 L 59.773106 20.109117 Z M 59.889043 19.223451 L 60.100152 19.343042 L 59.792141 19.521562 L 59.724655 19.999926 L 59.264367 19.911532 L 58.904443 19.54236 L 58.733133 19.710481 L 58.724481 19.389838 L 58.923478 19.49383 L 59.195151 19.346508 L 59.442599 19.509429 L 59.480668 19.334376 Z M 58.281498 19.063996 L 58.364557 19.497297 L 57.795255 19.661951 L 57.788333 19.375973 L 58.115379 19.365573 Z M 57.803907 16.419129 L 58.042702 16.608048 L 58.013285 16.918291 L 57.639518 16.729372 Z M 59.40453 14.687659 L 59.546423 14.791652 L 59.440869 15.178156 L 59.127666 15.086296 L 59.134587 14.814183 Z M 56.507834 14.49874 L 57.037338 15.276948 L 57.684509 15.514397 L 57.416296 15.869704 L 57.478591 16.105419 L 57.982138 16.218077 L 57.106554 16.387931 L 57.120397 16.670443 L 57.407644 16.833364 L 57.085789 17.214669 L 57.00446 16.833364 L 56.840072 17.122809 L 57.040799 17.230268 L 57.066755 17.618505 L 56.923131 17.576908 L 56.871219 17.857687 L 57.125588 18.226859 L 57.796985 17.991144 L 57.765838 18.202594 L 57.092711 18.410579 L 57.632597 19.85087 L 57.423218 19.830072 L 57.326315 19.608222 L 56.905827 19.809273 L 56.682605 19.401971 L 56.568398 19.421036 L 56.642806 20.041522 L 56.866028 20.266839 L 57.189613 19.890734 L 57.594528 20.119517 L 57.665474 19.977394 L 58.023668 19.982594 L 58.110188 20.178445 L 58.276307 20.199244 L 58.579128 20.502554 L 58.767742 20.471357 L 58.71929 20.258173 L 59.058449 20.200977 L 59.480668 20.764268 L 59.717733 20.618679 L 59.830209 20.800665 L 60.027475 20.639477 L 60.612352 21.213167 L 60.120917 21.504346 L 59.781758 21.374355 L 59.769645 21.679399 L 59.240142 21.488747 L 58.826575 22.284287 L 58.489147 22.152563 L 58.409548 22.266955 L 58.824845 22.844111 L 58.707177 23.059028 L 58.328219 23.027831 L 58.298802 23.468064 L 57.876584 23.364072 L 57.86101 23.584189 L 57.601449 23.740177 L 57.255369 23.832037 L 57.127319 24.121482 L 56.836611 23.962027 L 55.897002 21.603138 L 56.658379 21.542476 L 56.679144 22.298152 L 56.855645 22.358814 L 56.975043 23.03303 L 57.149814 23.065961 L 56.942166 22.436809 L 56.988886 22.251356 L 57.397262 21.896049 L 57.490704 22.065903 L 57.916383 21.601405 L 57.651631 21.279029 L 57.331506 21.348357 L 57.182692 21.13864 L 57.392071 20.951454 L 57.274403 20.731337 L 57.376497 20.604813 L 56.800272 20.681074 L 56.407471 20.982652 L 56.35902 21.362223 L 56.078694 21.190636 L 55.568225 21.589272 L 55.132163 19.696615 L 53.524618 17.147074 L 53.569609 16.866295 L 53.988366 16.708574 L 54.410585 17.486782 L 54.884716 17.77796 L 54.806847 18.065671 L 55.043913 18.25979 L 55.251561 18.140199 L 55.078521 17.935681 L 55.300012 17.705165 L 55.059486 17.093345 L 55.201379 16.640979 L 54.974697 16.431261 L 54.751474 16.585516 L 54.550748 16.372332 L 54.080078 16.313404 L 54.183902 15.807308 L 54.651111 15.9165 L 55.016226 15.618389 L 55.452288 15.394806 L 55.514582 15.166023 L 55.843359 15.044699 L 55.862394 14.828049 L 56.185979 14.704992 L 56.416123 14.321954 Z M 61.330469 13.782928 L 61.37719 14.094904 L 61.63156 14.205829 L 61.524275 14.462343 L 62.008788 14.713658 L 61.782105 15.171223 L 62.247583 15.65132 L 62.119534 16.098486 L 61.801139 15.958097 L 61.89112 15.724115 L 61.543309 15.78131 L 61.581378 15.406939 L 61.346043 15.467601 L 60.761167 15.030834 L 60.757706 14.822849 L 61.07437 14.98577 L 61.051874 14.543804 L 60.762897 14.451944 L 61.176464 14.308088 L 60.965354 13.918117 Z M 61.330469 13.782928 " stroke="rgb(100%, 100%, 100%)" stroke-width="0.5" stroke-opacity="1" stroke-miterlimit="4"/><path stroke-linecap="butt" transform="matrix(2.257421, 0, 0, 2.253776, 45.918489, 0.0691852)" fill-opacity="1" fill="rgb(17.248535%, 44.309998%, 94.119263%)" fill-rule="nonzero" stroke-linejoin="miter" d="M 65.057759 24.93782 L 66.09081 26.293184 L 65.668592 25.903214 L 65.613219 26.097333 L 65.341545 25.948277 L 65.327702 25.702162 L 65.588993 25.780156 L 65.035264 25.142338 Z M 66.622044 37.945506 L 66.931786 37.780852 L 66.784702 36.564143 L 66.320954 36.657736 L 65.742999 35.655945 L 65.869318 35.300639 L 66.51995 35.482625 L 66.781241 35.250376 L 66.250007 34.626423 L 66.549367 33.985138 L 65.900466 33.801418 L 65.824328 33.610766 L 65.486899 33.655829 L 65.500742 33.213863 L 65.672052 33.234661 L 66.04755 32.784028 L 66.293267 33.29879 L 67.103096 33.02841 L 67.222494 33.199997 L 67.073679 33.518906 L 67.443986 33.680094 L 67.646443 33.208663 L 68.212285 33.42358 L 68.374943 32.357661 L 68.120574 32.064749 L 67.099636 31.634915 L 66.566671 29.92771 L 66.258659 29.702394 L 65.83471 29.691995 L 64.855302 28.854858 L 64.775703 28.582745 L 65.000656 28.454488 L 64.773973 28.194508 L 64.777434 27.891197 L 64.561133 27.801071 L 64.683992 27.366037 L 63.939918 25.620702 L 64.100846 25.47338 L 63.938188 25.145804 L 64.095655 24.915288 L 64.254852 25.15967 L 64.507491 25.152737 L 64.261773 24.854626 L 64.606124 24.601579 L 64.528256 24.414393 L 64.756669 24.161345 L 65.083715 24.880624 L 64.780895 24.84596 L 64.696105 25.119806 L 64.820694 25.027947 L 64.998925 25.263662 L 64.63208 25.421384 L 64.843189 25.580838 L 64.777434 25.696963 L 64.882988 25.944811 L 65.085446 26.034937 L 65.073333 26.260254 L 65.474786 26.157995 L 65.367501 26.411042 L 65.717043 26.450906 L 65.737808 26.636359 L 66.000829 26.428374 L 66.198095 26.495969 L 66.146183 26.965667 L 66.627235 26.724752 L 66.269042 26.483837 L 66.234434 26.138929 L 67.862744 27.23778 L 68.094618 27.040195 L 69.324935 27.979591 L 72.353141 29.019512 L 71.885932 28.972716 L 72.325455 29.295091 L 72.448313 29.036844 L 73.927809 29.014313 L 74.526528 28.733534 L 75.774149 27.203116 L 75.675516 27.043661 L 76.047553 26.561831 L 76.824505 26.416242 L 77.158472 25.970809 L 77.464754 26.069601 L 77.712202 25.752425 L 77.817756 25.563506 L 78.272852 25.490712 L 78.438971 25.918813 L 77.596265 26.131997 L 77.765844 26.66409 L 77.599725 27.034995 L 77.745079 27.236047 L 78.00464 26.996865 L 78.238244 27.246446 L 77.584152 27.911996 L 76.902373 30.017837 L 76.026788 29.336688 L 75.682438 29.305491 L 75.884895 29.655598 L 75.627065 30.411274 L 74.561136 30.931235 L 74.628622 31.250144 L 74.396748 31.820368 L 72.957052 32.565645 L 73.069528 33.262392 L 72.714796 33.361185 L 72.531373 33.784086 L 72.259699 33.849948 L 72.129919 34.122061 L 71.731926 34.153259 L 71.377194 34.777211 L 70.996505 34.752947 L 70.768091 34.492966 L 70.337221 34.70615 L 70.037861 34.648954 L 69.890777 34.969597 L 69.677937 34.964397 L 69.60353 36.000853 L 68.932133 36.699333 L 69.051531 37.17943 L 68.008097 37.195029 L 67.807371 37.668193 L 67.992524 38.167356 L 67.50628 38.229751 L 67.672399 38.4724 L 67.315936 38.569459 Z M 66.622044 37.945506 " stroke="rgb(100%, 100%, 100%)" stroke-width="0.5" stroke-opacity="1" stroke-miterlimit="4"/><path stroke-linecap="butt" transform="matrix(2.257421, 0, 0, 2.253776, 45.918489, 0.0691852)" fill-opacity="1" fill="rgb(17.248535%, 44.309998%, 94.119263%)" fill-rule="nonzero" stroke-linejoin="miter" d="M 44.476337 62.842962 L 44.588813 63.409719 L 44.914129 63.333458 L 45.021414 63.574374 L 45.242906 63.58304 L 45.142542 63.997275 L 45.403833 64.224325 L 45.272323 64.510303 L 45.440172 64.680157 L 45.698002 64.581364 L 45.877964 65.170653 L 46.310565 65.335307 L 46.057926 65.763409 L 46.365938 65.739144 L 46.575317 66.129114 L 46.732784 65.879533 L 47.253635 65.772075 L 47.653358 65.009465 L 47.805634 64.997333 L 47.418023 64.81708 L 48.162097 64.252056 L 48.129219 64.123799 L 49.20553 63.6645 L 49.307624 62.778834 L 49.686583 62.631511 L 50.053428 62.061288 L 50.297415 62.108084 L 50.761163 61.685183 L 50.859796 61.267481 L 51.212799 61.641853 L 51.39103 61.426936 L 52.244119 61.257082 L 52.366978 61.440801 L 52.894751 61.40787 L 52.827265 61.712914 L 52.1178 62.740703 L 52.100496 63.432251 L 51.017263 64.395912 L 50.565628 65.054529 L 50.510255 65.444499 L 50.752511 65.616086 L 50.094958 65.584889 L 49.529116 66.073652 L 49.349154 66.635209 L 49.482395 66.708004 L 48.169019 69.257545 L 48.201896 69.54699 L 47.715653 70.143212 L 47.066751 70.448255 L 46.698175 70.982082 L 46.454189 70.947418 L 45.042179 71.689228 L 44.462494 72.812344 L 44.3604 73.935459 L 44.465955 75.088039 L 44.310218 75.328954 L 44.979885 75.621865 L 44.157943 75.798652 L 43.984902 75.925176 L 44.040275 76.211154 L 45.092361 75.757055 L 45.308661 75.743189 L 45.632247 75.928642 L 45.756836 75.919976 L 46.151368 76.075964 L 46.487066 76.174757 L 46.551091 76.530063 L 46.739705 76.453803 L 46.885059 76.601125 L 46.810652 76.772712 L 47.011379 77.011894 L 46.838338 77.762371 L 45.99044 78.239001 L 45.800096 77.94089 L 45.952371 77.169615 L 45.768949 77.041358 L 45.580335 77.673977 L 45.832974 78.348193 L 45.081978 78.258067 L 44.322331 77.706908 L 41.828819 78.067414 L 39.863081 78.95828 L 36.320944 81.183713 L 35.107931 82.551209 L 35.177147 83.147431 L 34.58881 84.48893 L 34.656296 86.530643 L 34.490177 87.482171 L 32.683636 87.1026 L 31.010335 86.367722 L 30.636568 87.067936 L 29.998049 87.520302 L 29.667542 87.600029 L 29.523918 87.204859 L 29.342226 87.175394 L 28.712359 87.471772 L 27.926756 87.527234 L 27.776211 87.035005 L 27.30208 86.468247 L 26.983686 84.944762 L 26.6601 84.870235 L 26.31748 85.102484 L 25.848541 84.882367 L 25.659927 84.161355 L 25.549181 84.501062 L 25.069859 84.435201 L 25.123502 83.324218 L 24.668405 83.29822 L 24.453835 83.133566 L 24.56112 83.043439 L 24.626876 82.721063 L 24.692631 81.464491 L 24.438262 81.069321 L 24.855289 80.618689 L 24.922775 80.299779 L 25.078511 80.28938 L 25.343263 79.604765 L 25.54399 79.578767 L 25.450548 78.932282 L 26.440339 77.781436 L 26.665291 77.791835 L 26.651448 77.604649 L 27.12904 77.422663 L 27.141152 77.029226 L 27.506268 76.840307 L 27.499346 76.500599 L 27.862731 76.31168 L 27.85927 75.729324 L 28.186316 75.65133 L 28.734854 75.006578 L 29.3578 74.7206 L 29.511805 74.951116 L 29.816357 74.833258 L 30.631377 74.087981 L 31.141846 74.278633 L 31.425632 73.88173 L 31.323538 73.729208 L 31.778634 73.505625 L 31.695575 73.297641 L 32.472526 73.143385 L 33.13008 72.313181 L 33.25813 72.505567 L 33.503847 72.460504 L 33.938178 71.957875 L 33.836084 71.805353 L 34.076611 71.424048 L 34.240999 71.505509 L 34.313676 71.285392 L 35.019681 71.110339 L 35.090627 70.555714 L 35.582062 70.222939 L 35.549184 70.092949 L 35.924682 69.997623 L 36.182512 70.136279 L 36.421308 69.754974 L 36.725859 69.637116 L 36.872943 69.77404 L 37.817743 69.550456 L 38.120564 69.673514 L 38.348977 69.441265 L 38.227849 69.344205 L 38.438958 69.167419 L 38.428576 68.741051 L 39.229753 68.382278 L 39.465088 67.671665 L 39.811169 67.536475 L 39.778291 67.406485 L 40.591581 67.234898 L 40.710978 66.76 L 41.076094 66.571081 L 41.420444 65.867401 L 41.74749 65.789407 L 42.13337 65.309309 L 42.761507 65.115191 L 42.963964 64.28152 L 43.785906 63.732095 L 43.818784 63.298794 L 44.026432 63.127207 L 43.960677 62.870693 Z M 44.476337 62.842962 " stroke="rgb(100%, 100%, 100%)" stroke-width="0.5" stroke-opacity="1" stroke-miterlimit="4"/><path fill="rgb(17.248535%, 44.309998%, 94.119263%)" d="M 303.855469 183.023438 L 304.839844 184 L 303.554688 185.625 L 303.1875 184.261719 L 303.625 183.855469 L 303.082031 183.386719 Z M 298.105469 172.546875 L 300.8125 173.640625 L 302.082031 173.359375 L 302.761719 173.617188 L 303.507812 173.21875 L 304.308594 173.445312 L 303.804688 173.519531 L 303.617188 174.164062 L 303 173.933594 L 302.226562 174.488281 L 301.03125 176.605469 L 300.910156 175.402344 L 301.855469 174.691406 L 300.90625 174.105469 L 299.902344 173.949219 L 299.148438 173.515625 L 299.328125 174.535156 L 300.722656 174.824219 L 299.558594 175.730469 L 300.28125 176.957031 L 300.140625 177.65625 L 300.816406 177.96875 L 301.015625 177.078125 L 301.46875 178.890625 L 302.398438 179.238281 L 302.40625 179.574219 L 300.234375 180.066406 L 298.8125 181.214844 L 297.980469 181.054688 L 297.253906 178.804688 L 299.414062 177.382812 L 298.546875 175.125 L 297.570312 174.613281 L 296.835938 175.265625 L 295.710938 175.082031 L 295.859375 175.363281 L 295.375 175.570312 L 294.460938 175.484375 L 294.269531 175.125 L 294.664062 174.445312 L 295.457031 174.339844 L 295.398438 173.601562 L 296.355469 174 L 297.628906 173.65625 Z M 298.105469 172.546875 " fill-opacity="1" fill-rule="nonzero"/><g clip-path="url(#id2)"><path stroke-linecap="butt" transform="matrix(2.257421, 0, 0, 2.253776, 45.918489, 0.0691852)" fill="none" stroke-linejoin="miter" d="M 114.261789 81.17678 L 114.697851 81.61008 L 114.128548 82.331093 L 113.96589 81.726205 L 114.159696 81.545952 L 113.91917 81.337968 Z M 111.714635 76.52833 L 112.913805 77.013627 L 113.476186 76.888836 L 113.777276 77.003228 L 114.107784 76.826441 L 114.462516 76.926967 L 114.239294 76.959898 L 114.156235 77.245876 L 113.882831 77.143617 L 113.540211 77.389732 L 113.010708 78.329128 L 112.957065 77.795301 L 113.375823 77.479859 L 112.955335 77.219878 L 112.510621 77.15055 L 112.176653 76.958165 L 112.256252 77.41053 L 112.874006 77.538787 L 112.358345 77.94089 L 112.67847 78.485116 L 112.616176 78.795359 L 112.915535 78.934016 L 113.003786 78.538845 L 113.204513 79.343051 L 113.616349 79.497306 L 113.61981 79.646362 L 112.657705 79.864745 L 112.027838 80.374307 L 111.659262 80.303246 L 111.337407 79.304921 L 112.29432 78.674035 L 111.910171 77.672244 L 111.47757 77.445194 L 111.152254 77.734639 L 110.653898 77.653179 L 110.719653 77.777969 L 110.505083 77.869829 L 110.100168 77.831699 L 110.015379 77.672244 L 110.190149 77.370667 L 110.541421 77.32387 L 110.515465 76.996295 L 110.939414 77.173082 L 111.503526 77.02056 Z M 111.714635 76.52833 " stroke="rgb(100%, 100%, 100%)" stroke-width="0.5" stroke-opacity="1" stroke-miterlimit="4"/></g><path stroke-linecap="butt" transform="matrix(2.257421, 0, 0, 2.253776, 45.918489, 0.0691852)" fill-opacity="1" fill="rgb(17.248535%, 44.309998%, 94.119263%)" fill-rule="nonzero" stroke-linejoin="miter" d="M 78.854268 25.405785 L 79.783495 25.594704 L 79.626028 25.769757 L 79.928849 26.104265 L 80.802703 26.255054 L 81.243956 26.676222 L 80.349337 28.059318 L 80.247243 28.820194 L 79.894241 29.217097 L 80.131306 29.870515 L 79.771382 30.260485 L 80.015369 30.546464 L 79.724661 31.007496 L 79.880398 31.206814 L 79.958266 32.461653 L 79.553351 32.910552 L 79.620837 33.368118 L 78.701993 34.35951 L 78.279774 34.569227 L 78.203636 34.813609 L 77.850634 34.508565 L 77.386886 34.834407 L 77.350547 35.141184 L 77.594534 35.19838 L 77.213845 35.775536 L 77.129056 36.941982 L 76.782975 36.831057 L 76.80547 36.560677 L 76.523414 36.323228 L 76.360756 36.474017 L 76.196368 36.321495 L 76.059666 36.506948 L 76.002563 36.354426 L 75.592457 36.387357 L 75.642639 35.928058 L 75.523241 36.064981 L 75.234264 35.962722 L 75.185812 35.590084 L 74.867418 35.67501 L 74.400209 35.167182 L 74.419243 34.811876 L 74.047207 34.744281 L 74.292924 34.253784 L 73.391384 33.960873 L 73.403496 34.435771 L 72.254508 33.853414 L 72.526182 33.78582 L 72.709604 33.362918 L 73.064337 33.264126 L 72.950131 32.569111 L 74.393287 31.823834 L 74.625161 31.25361 L 74.555945 30.934701 L 75.621874 30.41474 L 75.879704 29.659064 L 75.677247 29.308957 L 76.023328 29.340155 L 76.897182 30.021303 L 77.580691 27.913729 L 78.234784 27.249912 L 78.001179 27.000331 L 77.739888 27.23778 L 77.596265 27.038462 L 77.760653 26.667556 L 77.591073 26.135463 L 78.43378 25.920546 L 78.269392 25.494178 L 78.802356 25.565239 Z M 78.854268 25.405785 " stroke="rgb(100%, 100%, 100%)" stroke-width="0.5" stroke-opacity="1" stroke-miterlimit="4"/><path stroke-linecap="butt" transform="matrix(2.257421, 0, 0, 2.253776, 45.918489, 0.0691852)" fill-opacity="1" fill="rgb(17.248535%, 44.309998%, 94.119263%)" fill-rule="nonzero" stroke-linejoin="miter" d="M 69.068835 48.840418 L 67.925038 48.660165 L 67.597992 48.427916 L 67.473403 48.251129 L 67.71912 48.06221 L 67.404187 46.916563 L 67.533967 46.637517 L 67.110018 46.264879 L 67.198269 46.004898 L 66.815849 45.841977 L 66.661843 45.543866 L 66.128879 45.398277 L 66.007751 45.5352 L 65.74646 45.235356 L 65.935074 44.888716 L 65.848554 44.611403 L 66.21886 42.985659 L 66.450734 42.625153 L 66.198095 42.415436 L 66.30365 42.105192 L 66.051011 41.895475 L 66.326145 41.829613 L 66.743172 41.352982 L 67.208651 41.25419 L 67.078871 40.685699 L 67.281328 40.207335 L 66.831423 39.943889 L 67.104827 39.569517 L 67.039071 39.241942 L 66.490533 39.063422 L 66.310571 38.340676 L 66.625505 37.950706 L 67.310745 38.562526 L 67.667208 38.465467 L 67.501089 38.222818 L 67.989063 38.163889 L 67.802179 37.664727 L 68.002906 37.18983 L 69.04634 37.174231 L 68.926942 36.695867 L 69.600069 35.995653 L 69.674476 34.959198 L 69.885586 34.964397 L 70.0344 34.643755 L 70.33376 34.700951 L 70.7629 34.487767 L 70.991314 34.74948 L 71.372002 34.773745 L 71.726735 34.149792 L 72.126458 34.120328 L 72.256239 33.849948 L 73.405227 34.434037 L 73.394844 33.95914 L 74.294654 34.252051 L 74.050667 34.742547 L 74.420974 34.811876 L 74.40367 35.167182 L 74.870879 35.676744 L 75.187543 35.591817 L 75.237724 35.964455 L 75.528432 36.066714 L 75.64783 35.929791 L 75.599379 36.38909 L 76.011215 36.356159 L 76.068318 36.508681 L 76.20502 36.323228 L 76.371139 36.47575 L 76.532066 36.324961 L 76.814122 36.564143 L 76.791627 36.834523 L 77.139438 36.947181 L 77.14809 37.75312 L 77.796991 38.054698 L 77.303826 38.538261 L 76.912755 39.3494 L 76.637621 38.468933 L 76.966398 37.853646 L 76.772592 37.656061 L 76.656655 37.805117 L 75.670325 37.585 L 74.059319 37.690725 L 72.700952 38.186421 L 71.707701 38.798242 L 71.565808 39.31127 L 70.904793 39.990685 L 70.646963 40.836488 L 70.745596 41.067004 L 70.97401 41.009808 L 70.967088 41.651093 L 71.252605 42.249048 L 71.643676 42.453566 L 72.064164 42.40677 L 71.560616 43.127782 L 71.493131 44.029047 L 70.749057 45.5404 L 70.652154 46.403535 L 70.11746 47.17481 L 69.425298 47.517984 Z M 69.068835 48.840418 " stroke="rgb(100%, 100%, 100%)" stroke-width="0.5" stroke-opacity="1" stroke-miterlimit="4"/><path stroke-linecap="butt" transform="matrix(2.257421, 0, 0, 2.253776, 45.918489, 0.0691852)" fill-opacity="1" fill="rgb(17.248535%, 44.309998%, 94.119263%)" fill-rule="nonzero" stroke-linejoin="miter" d="M 54.90375 54.327737 L 54.810308 55.294865 L 54.661493 55.199538 L 54.097382 55.57391 L 53.938185 55.452586 L 53.519427 55.627639 L 54.330986 54.988088 L 54.649381 55.064349 L 54.670145 54.813034 L 54.30503 54.77837 Z M 52.456959 52.845849 L 52.643843 52.851049 L 52.586739 53.067699 L 52.474263 53.157826 L 52.309875 52.875314 L 52.218163 53.315547 L 51.858239 53.407407 L 52.052045 53.45247 L 51.984559 53.561662 L 51.342579 53.76098 L 51.406604 53.506199 L 51.062254 53.76618 L 51.299319 53.868439 L 51.036298 54.040026 L 51.145313 54.51839 L 51.420447 54.036559 L 52.188747 54.116287 L 51.667895 54.256676 L 51.759606 54.610249 L 51.520811 54.547854 L 51.468899 54.804368 L 51.096862 54.878896 L 51.145313 55.052216 L 51.416986 55.041817 L 51.598679 55.003686 L 51.6454 55.190872 L 51.543306 55.615507 L 51.192034 55.565244 L 51.25952 55.717766 L 50.977464 55.797493 L 51.053602 55.96908 L 51.294128 55.813092 L 52.034741 55.471651 L 52.302953 55.414455 L 52.619617 55.151009 L 52.955315 55.220337 L 53.261597 55.033151 L 52.825535 55.09208 L 52.778814 54.923959 L 51.692121 55.346861 L 51.842666 55.003686 L 51.660973 54.773171 L 51.996672 54.639714 L 51.868622 54.610249 L 52.052045 54.549587 L 52.07454 54.29654 L 52.341022 54.244544 L 52.185286 54.551321 L 52.283919 54.852898 L 52.46042 54.449062 L 52.785736 54.485459 L 52.617887 54.157884 L 52.80304 53.773113 L 52.07627 53.925634 L 52.199129 53.851107 L 52.088383 53.748848 L 52.41716 53.72285 L 52.270075 53.526998 L 52.469072 53.54433 L 52.58847 53.305148 L 52.636921 53.726316 L 52.917246 53.565128 L 53.171616 54.033093 L 53.10586 53.552996 L 53.389647 53.76098 L 53.519427 53.459403 L 53.637094 53.688186 L 53.728806 53.696852 L 53.751301 53.932567 L 53.552305 53.962032 L 53.87589 54.194281 L 54.019514 53.9343 L 54.379438 53.887504 L 53.974523 54.369334 L 54.050661 54.622382 L 53.910498 54.532255 L 53.668242 54.762771 L 53.631903 54.33987 L 53.528079 54.570386 L 53.419064 54.509724 L 53.512505 54.851165 L 53.759953 54.884095 L 53.777257 55.138876 L 53.564417 55.289665 L 53.483088 55.386724 L 53.284092 55.209938 L 52.97608 55.518448 L 52.936281 55.315663 L 52.493298 55.414455 L 52.323718 55.712566 L 52.723441 55.719499 L 53.415603 55.532313 L 53.342926 55.745497 L 53.609408 55.684835 L 53.735727 55.636305 L 54.227162 55.631106 L 54.452115 55.388457 L 54.282535 55.851223 L 53.910498 56.036675 L 53.988366 56.272391 L 53.766875 56.199596 L 53.70458 56.421446 L 53.320431 56.551436 L 53.685546 56.052274 L 53.503853 56.007211 L 53.432907 55.977746 L 53.228719 56.095604 L 52.688833 57.272449 L 52.709598 57.60349 L 53.0626 58.019459 L 52.867065 58.220511 L 53.436368 58.270773 L 53.635364 59.548144 L 54.251388 59.697199 L 53.524618 60.929506 L 52.818613 61.719847 L 52.884369 61.41307 L 52.358326 61.447734 L 52.235467 61.264014 L 51.380648 61.433868 L 51.202416 61.648785 L 50.849414 61.274414 L 50.752511 61.690382 L 50.288763 62.113284 L 50.048237 62.06822 L 49.679661 62.636711 L 49.300703 62.785766 L 49.198609 63.673166 L 48.122298 64.132465 L 48.155175 64.260722 L 47.411102 64.824013 L 47.800443 65.005999 L 47.648167 65.018131 L 47.248444 65.780741 L 46.729323 65.888199 L 46.571856 66.13778 L 46.362477 65.746077 L 46.054465 65.770341 L 46.307104 65.343974 L 45.874503 65.179319 L 45.694541 64.59003 L 45.436711 64.688823 L 45.268862 64.518969 L 45.402103 64.232991 L 45.140812 64.004208 L 45.241175 63.591706 L 45.019684 63.581306 L 44.912399 63.342124 L 44.587083 63.418385 L 44.476337 62.851628 L 44.588813 62.29527 L 44.907208 62.128883 L 44.850104 61.962495 L 45.398642 61.338542 L 45.267132 61.062963 L 45.90219 60.17383 L 45.770679 59.898251 L 46.282879 59.705865 L 46.637611 59.19977 L 46.63415 58.877394 L 47.180958 58.575817 L 47.333234 58.005593 L 48.162097 57.962263 L 47.822938 57.537629 L 48.104994 57.241251 L 48.040969 56.988204 L 48.880215 56.327853 L 48.857719 56.057474 L 49.264364 55.468185 L 49.828476 55.190872 L 50.001516 54.097221 L 50.203973 54.270542 L 50.370092 54.254943 L 50.994768 53.993229 L 50.885752 53.885771 L 50.53275 54.079889 L 50.418543 53.908302 L 50.903057 53.651788 L 51.012072 53.388342 L 51.141852 53.325946 L 51.287206 53.346745 L 51.456786 52.972373 L 51.583105 53.024369 L 51.441212 53.461136 L 51.614252 53.504466 L 51.979368 53.124895 L 51.908421 53.000104 L 52.363517 52.675995 Z M 52.244119 51.630874 L 51.901499 52.428147 L 51.079558 53.10063 L 51.21972 52.679462 L 51.043219 52.752256 L 51.115896 52.21323 L 51.188573 52.409082 L 51.297589 52.339754 L 51.245676 52.026044 L 51.392761 51.556346 L 51.680008 51.324097 L 51.654052 51.982714 L 51.821901 51.743532 L 52.026089 51.793795 L 52.060697 51.660339 L 51.757876 51.665538 L 52.174903 51.332763 Z M 52.244119 51.630874 " stroke="rgb(100%, 100%, 100%)" stroke-width="0.5" stroke-opacity="1" stroke-miterlimit="4"/><path stroke-linecap="butt" transform="matrix(2.257421, 0, 0, 2.253776, 45.918489, 0.0691852)" fill-opacity="1" fill="rgb(17.248535%, 44.309998%, 94.119263%)" fill-rule="nonzero" stroke-linejoin="miter" d="M 69.068835 48.840418 L 69.070565 49.358645 L 68.701989 49.403709 L 68.182868 49.769414 L 66.824501 51.77473 L 66.859109 51.519949 L 66.60647 51.159443 L 66.099462 50.904662 L 65.7032 50.880397 L 65.668592 51.213172 L 65.220417 51.121313 L 64.7186 51.64474 L 64.574976 51.519949 L 63.913962 51.741799 L 63.642289 51.667271 L 63.804947 51.2825 L 63.652671 51.067583 L 63.169889 51.079716 L 63.128359 51.32583 L 62.728636 51.532082 L 61.782105 51.043318 L 61.577917 51.445421 L 61.148777 51.296366 L 60.996502 51.540748 L 60.480841 51.655139 L 59.996328 51.573678 L 60.105344 51.348362 L 59.658899 51.143844 L 60.183212 49.254653 L 60.233393 47.810895 L 60.043049 46.696446 L 58.990964 45.075902 L 58.167291 44.370488 L 57.418027 44.186769 L 57.310742 44.113974 L 57.582415 43.718804 L 58.390514 43.24564 L 58.378401 42.756876 L 58.797158 42.592222 L 58.63277 42.028931 L 58.819654 41.597364 L 58.572206 41.07047 L 58.120571 40.709964 L 57.992521 40.359857 L 58.149987 40.120675 L 57.675857 39.727238 L 57.980408 39.075554 L 58.343793 39.066888 L 58.50472 38.517463 L 58.778124 38.455068 L 58.684682 38.314678 L 58.966738 38.026966 L 59.311088 38.070297 L 59.143239 37.739255 L 58.606814 37.723656 L 58.553171 37.170764 L 58.366288 37.286889 L 58.056546 37.052907 L 58.104997 36.416821 L 57.970025 36.292031 L 57.765838 36.458418 L 57.601449 36.212303 L 57.490704 35.727007 L 57.982138 35.361301 L 58.482225 35.170648 L 58.54798 34.482567 L 59.572379 34.135926 L 60.342409 34.191389 L 60.641769 33.858614 L 60.795775 33.931409 L 60.901329 33.539705 L 60.980928 33.815284 L 61.500049 33.572636 L 62.013979 33.636764 L 62.264887 33.934875 L 62.867068 33.661029 L 62.129916 35.215712 L 62.522718 35.721807 L 62.289113 36.07538 L 62.546943 36.460151 L 62.413702 37.040774 L 63.180271 37.00611 L 62.723444 37.581533 L 62.965701 38.016567 L 62.368712 39.401396 L 63.950301 39.61978 L 64.339642 39.333801 L 64.244469 39.193412 L 64.488456 39.009692 L 64.434814 38.853704 L 64.936631 38.656119 L 64.985082 38.415204 L 66.307111 38.335477 L 66.487073 39.059955 L 67.035611 39.238475 L 67.103096 39.564317 L 66.827962 39.938689 L 67.277867 40.203869 L 67.07714 40.6805 L 67.206921 41.252457 L 66.739712 41.349516 L 66.322684 41.826147 L 66.04755 41.892008 L 66.300189 42.101726 L 66.194634 42.411969 L 66.449004 42.621687 L 66.21713 42.982193 L 65.845093 44.607937 L 65.933343 44.885249 L 65.742999 45.233623 L 66.00602 45.531734 L 66.125418 45.393078 L 66.658383 45.538667 L 66.812389 45.836778 L 67.194808 45.999699 L 67.108288 46.259679 L 67.532236 46.634051 L 67.402456 46.913096 L 67.71739 48.058743 L 67.473403 48.249396 L 67.597992 48.426182 L 67.925038 48.658432 Z M 69.068835 48.840418 " stroke="rgb(100%, 100%, 100%)" stroke-width="0.5" stroke-opacity="1" stroke-miterlimit="4"/><path stroke-linecap="butt" transform="matrix(2.257421, 0, 0, 2.253776, 45.918489, 0.0691852)" fill-opacity="1" fill="rgb(17.248535%, 44.309998%, 94.119263%)" fill-rule="nonzero" stroke-linejoin="miter" d="M 48.220931 55.461252 L 48.34552 55.672703 L 48.037508 55.885887 L 48.129219 56.216928 L 47.639515 56.49944 L 47.466475 56.339986 L 47.483779 56.085205 L 48.158636 55.669236 Z M 48.220931 55.461252 " stroke="rgb(100%, 100%, 100%)" stroke-width="0.5" stroke-opacity="1" stroke-miterlimit="4"/><path fill="rgb(17.248535%, 44.309998%, 94.119263%)" d="M 150.324219 2.324219 L 150.917969 2.71875 L 150.292969 2.921875 L 150.296875 4.320312 L 149.703125 4.550781 L 149.773438 4.070312 L 149.089844 4.019531 L 149.082031 4.441406 L 148.40625 4.429688 L 148.695312 4.671875 L 149.402344 4.652344 L 149.234375 5.117188 L 149.632812 5.160156 L 149.835938 5.9375 L 149.988281 5.429688 L 149.535156 4.765625 L 149.996094 4.683594 L 150.703125 7.164062 L 152.667969 9.390625 L 152.382812 9.753906 L 152.949219 10.53125 L 154.164062 10.914062 L 153.578125 11.6875 L 153.628906 12.710938 L 153.984375 12.765625 L 154.539062 12.871094 L 154.285156 12.25 L 154.945312 12.015625 L 154.242188 10.421875 L 155.699219 9.96875 L 156.054688 9.910156 L 156.582031 9.75 L 156.886719 10.195312 L 155.441406 11.011719 L 156.082031 12.371094 L 157.523438 12.625 L 158.132812 11.285156 L 159.367188 12.226562 L 160.03125 11.902344 L 160.867188 13.058594 L 160.253906 13.699219 L 160.46875 14.09375 L 160.835938 14.082031 L 160.847656 13.453125 L 161.261719 13.453125 L 161.046875 12.917969 L 161.835938 12.5625 L 162.453125 13.136719 L 162.972656 12.960938 L 163.976562 14.878906 L 165.496094 14.730469 L 166.242188 15.507812 L 165.402344 16.171875 L 164.566406 15.234375 L 164.203125 15.515625 L 164.667969 16.082031 L 164.085938 16.40625 L 165.460938 16.472656 L 165.597656 17.574219 L 166.480469 18.367188 L 167.542969 18.46875 L 167.132812 18.039062 L 166.519531 17.746094 L 166.117188 16.976562 L 167.410156 17.722656 L 167.46875 17.191406 L 168.046875 16.582031 L 168.484375 16.742188 L 168.632812 16.039062 L 169.210938 15.777344 L 168.601562 16.859375 L 169.0625 17.214844 L 168.667969 17.519531 L 169.449219 18.609375 L 169.90625 19.066406 L 169.75 19.417969 L 169.183594 18.65625 L 169.039062 19.050781 L 169.785156 19.976562 L 169.636719 20.378906 L 170.628906 20.242188 L 170.5625 20.710938 L 171.324219 21.6875 L 170.976562 21.820312 L 171.230469 22.460938 L 172.125 22.875 L 172.117188 23.949219 L 171.792969 23.765625 L 171.652344 24.46875 L 171.9375 25.21875 L 172.570312 25.269531 L 172.285156 26.496094 L 172.90625 27.664062 L 171.9375 27.609375 L 171.269531 26.230469 L 169.601562 26.292969 L 169.464844 25.820312 L 169.152344 26.96875 L 169.695312 26.503906 L 169.828125 26.992188 L 171.632812 27.367188 L 171.210938 27.910156 L 171.078125 29.324219 L 171.652344 30.667969 L 172.125 31.054688 L 172.800781 30.953125 L 173.292969 32.347656 L 172.773438 33.210938 L 172.042969 33.488281 L 171.996094 33.976562 L 171.261719 34.253906 L 171.121094 34.765625 L 170.136719 35.269531 L 169.789062 35.058594 L 169.316406 35.773438 L 168.316406 35.234375 L 168.835938 34.476562 L 169.03125 34.363281 L 169.816406 33.804688 L 169.632812 33.761719 L 168.902344 34.175781 L 168.929688 33.796875 L 168.207031 33.4375 L 167.78125 33.222656 L 168.015625 32.34375 L 167.222656 32.472656 L 167.210938 33.136719 L 167.332031 33.488281 L 167.691406 33.796875 L 168.164062 33.597656 L 168.617188 34.378906 L 167.675781 34.84375 L 166.15625 33.199219 L 165.292969 33.246094 L 164.230469 32.339844 L 165.824219 34.53125 L 166.667969 35.074219 L 167.011719 36.105469 L 166.488281 37.0625 L 165.089844 37.164062 L 164.433594 35.011719 L 163.09375 32.660156 L 155.363281 22.308594 L 156.207031 20.082031 L 157.582031 19.863281 L 158.585938 18.792969 L 157.953125 18.605469 L 157.699219 19.5 L 156.128906 19.695312 L 155.269531 21.882812 L 150.972656 16.179688 L 151.109375 15.660156 L 152.082031 15.878906 L 152.570312 15.183594 L 152.246094 12.578125 L 148.039062 6.371094 L 145.261719 3.757812 L 145.605469 2.792969 L 147.484375 3.371094 L 148.128906 2.6875 L 149.726562 2.886719 Z M 150.324219 2.324219 " fill-opacity="1" fill-rule="nonzero"/><g clip-path="url(#id3)"><path stroke-linecap="butt" transform="matrix(2.257421, 0, 0, 2.253776, 45.918489, 0.0691852)" fill="none" stroke-linejoin="miter" d="M 46.250001 1.000558 L 46.513022 1.175612 L 46.236158 1.265738 L 46.237888 1.886225 L 45.974867 1.988484 L 46.006014 1.7753 L 45.703193 1.752768 L 45.699732 1.939954 L 45.400373 1.934754 L 45.528423 2.042213 L 45.841626 2.033547 L 45.767218 2.239798 L 45.943719 2.258863 L 46.0337 2.603771 L 46.101186 2.378454 L 45.900459 2.08381 L 46.104647 2.047413 L 46.41785 3.147996 L 47.288243 4.135922 L 47.161924 4.29711 L 47.412832 4.642017 L 47.950988 4.811871 L 47.691427 5.155045 L 47.713922 5.609144 L 47.871389 5.633409 L 48.117107 5.680205 L 48.00463 5.404626 L 48.297068 5.300634 L 47.985596 4.593487 L 48.631036 4.392436 L 48.788503 4.366438 L 49.022108 4.295376 L 49.157079 4.492961 L 48.51683 4.855201 L 48.800616 5.458355 L 49.439135 5.571014 L 49.709078 4.976525 L 50.255886 5.394227 L 50.550054 5.250371 L 50.920361 5.763399 L 50.648687 6.047644 L 50.743859 6.222698 L 50.906517 6.217498 L 50.911709 5.938452 L 51.095131 5.938452 L 50.999959 5.701004 L 51.349501 5.543282 L 51.622904 5.798063 L 51.853048 5.720069 L 52.297762 6.571071 L 52.970889 6.50521 L 53.301396 6.850117 L 52.929359 7.144762 L 52.559053 6.728793 L 52.398125 6.853583 L 52.604043 7.104898 L 52.346213 7.248754 L 52.955315 7.278218 L 53.015879 7.766981 L 53.406951 8.118821 L 53.877621 8.163885 L 53.695928 7.973232 L 53.424255 7.843242 L 53.246023 7.501801 L 53.818787 7.832843 L 53.844743 7.597127 L 54.100843 7.326748 L 54.294648 7.397809 L 54.360403 7.085833 L 54.616503 6.969708 L 54.34656 7.449805 L 54.550748 7.607527 L 54.375977 7.742716 L 54.722058 8.22628 L 54.924515 8.429065 L 54.855299 8.585053 L 54.60439 8.247078 L 54.540365 8.422132 L 54.870872 8.832901 L 54.805117 9.011421 L 55.24464 8.950759 L 55.215223 9.158743 L 55.552651 9.592044 L 55.398645 9.650973 L 55.511122 9.935218 L 55.907384 10.118937 L 55.903923 10.595568 L 55.7603 10.514107 L 55.698005 10.826084 L 55.824325 11.158859 L 56.10465 11.181391 L 55.978331 11.725616 L 56.253465 12.243844 L 55.824325 12.219579 L 55.528426 11.607758 L 54.789543 11.63549 L 54.728979 11.425772 L 54.590547 11.935334 L 54.831073 11.729083 L 54.889907 11.945733 L 55.689353 12.11212 L 55.50247 12.353035 L 55.443636 12.980455 L 55.698005 13.576677 L 55.907384 13.748264 L 56.206744 13.7032 L 56.424775 14.321954 L 56.194631 14.704992 L 55.871046 14.828049 L 55.850281 15.044699 L 55.524965 15.167757 L 55.46267 15.394806 L 55.026609 15.618389 L 54.872603 15.524796 L 54.663224 15.841972 L 54.22024 15.60279 L 54.450384 15.266549 L 54.536904 15.216286 L 54.884716 14.968438 L 54.803387 14.949373 L 54.479801 15.133093 L 54.491914 14.964972 L 54.171789 14.805517 L 53.983175 14.710191 L 54.086999 14.320221 L 53.735727 14.377416 L 53.730536 14.672061 L 53.784179 14.828049 L 53.943376 14.964972 L 54.152755 14.876579 L 54.353482 15.223219 L 53.936454 15.42947 L 53.263327 14.699792 L 52.880908 14.72059 L 52.410238 14.318487 L 53.116243 15.290814 L 53.49001 15.531729 L 53.642286 15.989295 L 53.410412 16.413929 L 52.790927 16.458993 L 52.500219 15.503998 L 51.906691 14.46061 L 48.482222 9.867623 L 48.855989 8.879697 L 49.465091 8.782638 L 49.909805 8.30774 L 49.629479 8.224547 L 49.517003 8.62145 L 48.821381 8.70811 L 48.440692 9.678704 L 46.537248 7.148228 L 46.597812 6.917712 L 47.028683 7.014771 L 47.244983 6.706261 L 47.10136 5.550215 L 45.237715 2.796156 L 44.007398 1.636643 L 44.159673 1.208542 L 44.991997 1.465056 L 45.277514 1.161746 L 45.985249 1.250139 Z M 46.250001 1.000558 " stroke="rgb(100%, 100%, 100%)" stroke-width="0.5" stroke-opacity="1" stroke-miterlimit="4"/></g><g clip-path="url(#id4)"><path fill="rgb(17.248535%, 44.309998%, 94.119263%)" d="M 232.863281 296.160156 L 232.738281 297.296875 L 232.273438 297.386719 L 231.851562 296.703125 Z M 83.828125 188.46875 L 85.71875 188.328125 L 86.246094 187.792969 L 87.363281 187.605469 L 88.820312 186.394531 L 89.625 186.882812 L 90.949219 185.273438 L 91.121094 183.421875 L 91.449219 182.96875 L 92.804688 182.585938 L 92.925781 181.429688 L 93.527344 181.210938 L 93.453125 180.902344 L 95.292969 180.125 L 95.542969 180.699219 L 96.929688 180.746094 L 97.777344 179.773438 L 98.097656 180.652344 L 98.6875 180.988281 L 99.871094 179.777344 L 101.613281 179.246094 L 101.757812 177.765625 L 103.34375 177.941406 L 103.554688 179.398438 L 103.101562 179.457031 L 102.507812 181 L 102.152344 181.023438 L 102 181.742188 L 101.058594 182.757812 L 101.636719 183.648438 L 101.488281 186.484375 L 101.339844 187.210938 L 101.097656 187.410156 L 101.585938 187.785156 L 102.609375 187.84375 L 102.488281 190.347656 L 103.570312 190.492188 L 103.820312 189.726562 L 104.246094 191.355469 L 105.304688 191.847656 L 106.078125 191.324219 L 106.808594 191.492188 L 107.527344 194.925781 L 108.597656 196.203125 L 108.9375 197.316406 L 110.710938 197.191406 L 112.132812 196.523438 L 112.546875 196.589844 L 112.871094 197.480469 L 113.617188 197.300781 L 115.058594 196.277344 L 115.902344 194.699219 L 119.679688 196.359375 L 123.757812 197.210938 L 122.894531 198.796875 L 121.371094 200.316406 L 121.394531 200.941406 L 120.539062 201.578125 L 119.691406 203.328125 L 119.148438 205.007812 L 119.234375 205.609375 L 119.808594 205.972656 L 118.964844 207.34375 L 119.261719 208.035156 L 118.167969 209.238281 L 117.734375 210.496094 L 116.941406 210.917969 L 116.703125 212.050781 L 115.515625 213.117188 L 115.511719 213.535156 L 116.496094 213.394531 L 117.488281 214.222656 L 116.351562 214.582031 L 116.347656 215.0625 L 116.953125 215.328125 L 118.109375 214.703125 L 118.058594 215.566406 L 118.027344 216.167969 L 117.183594 216.523438 L 116.84375 216.773438 L 116.042969 216.621094 L 115.707031 216.75 L 114.417969 216.914062 L 111.621094 217.953125 L 110.242188 219.867188 L 109.824219 221.898438 L 105.851562 225.191406 L 104.488281 225.824219 L 104.261719 226.882812 L 104.554688 227.871094 L 104.199219 228.363281 L 103.875 228.652344 L 103.4375 228.808594 L 103.082031 229.414062 L 101.847656 229.855469 L 101.453125 230.625 L 100.996094 230.207031 L 99.9375 230.242188 L 99.480469 231.113281 L 98.5 231.226562 L 98.175781 231.863281 L 97.140625 231.507812 L 95.851562 232.191406 L 96.265625 230.929688 L 95.914062 230.347656 L 96.382812 230.273438 L 96.789062 229.511719 L 95.496094 228.492188 L 96.070312 227.199219 L 95.125 226.515625 L 95.945312 225.605469 L 96.160156 222.953125 L 95.085938 221.859375 L 95.660156 221.167969 L 95.246094 220.519531 L 95.535156 220.175781 L 94.289062 218.808594 L 94.6875 216.453125 L 94.117188 215.75 L 93.410156 216.023438 L 93.765625 215.195312 L 93.273438 213.421875 L 93.722656 211.753906 L 94.808594 210.300781 L 95.394531 207.671875 L 96.425781 206.933594 L 94.402344 203.941406 L 93.574219 204.601562 L 91.734375 207.8125 L 91.226562 207.207031 L 90.941406 207.546875 L 90.203125 207.367188 L 90.148438 205.90625 L 88.921875 205.34375 L 88.683594 203.382812 L 86.8125 204.769531 L 83.679688 205.144531 L 83.386719 203.089844 L 82.144531 201.507812 L 82.835938 200.230469 L 83.195312 200.207031 L 83.480469 199.082031 L 83.308594 198.808594 L 82.5 199.109375 L 80.882812 197.332031 L 81.054688 196.820312 L 80.640625 195.957031 L 80.839844 195.09375 L 81.457031 195.089844 L 81.976562 193.550781 L 81.410156 192.859375 L 82.417969 190.136719 L 82.316406 189.390625 L 83.128906 188.527344 Z M 83.828125 188.46875 " fill-opacity="1" fill-rule="nonzero"/></g><g clip-path="url(#id5)"><path stroke-linecap="butt" transform="matrix(2.257421, 0, 0, 2.253776, 45.918489, 0.0691852)" fill="none" stroke-linejoin="miter" d="M 82.813432 131.375528 L 82.758059 131.87989 L 82.552141 131.919754 L 82.365257 131.616443 Z M 16.793338 83.592864 L 17.630853 83.530469 L 17.864458 83.29302 L 18.359353 83.209826 L 19.004794 82.672534 L 19.361257 82.889184 L 19.947864 82.175105 L 20.024002 81.353566 L 20.169356 81.152515 L 20.769806 80.982661 L 20.823448 80.469633 L 21.08993 80.372574 L 21.057053 80.235651 L 21.872073 79.890743 L 21.982819 80.145524 L 22.597112 80.166323 L 22.97261 79.734755 L 23.114503 80.124726 L 23.375794 80.273781 L 23.900106 79.736488 L 24.671866 79.500773 L 24.735891 78.843889 L 25.438435 78.921883 L 25.531877 79.568368 L 25.33115 79.594366 L 25.068129 80.278981 L 24.910662 80.28938 L 24.843176 80.608289 L 24.426149 81.058922 L 24.682249 81.454092 L 24.616493 82.712397 L 24.550738 83.034773 L 24.443453 83.123166 L 24.659753 83.289554 L 25.113119 83.315552 L 25.059477 84.426535 L 25.538798 84.490663 L 25.649544 84.150956 L 25.838158 84.873701 L 26.307098 85.092085 L 26.649718 84.859835 L 26.973303 84.934363 L 27.291697 86.457848 L 27.765828 87.024606 L 27.916373 87.518568 L 28.701977 87.463106 L 29.331843 87.166728 L 29.515266 87.196193 L 29.65889 87.591363 L 29.989397 87.511635 L 30.627916 87.057536 L 31.001683 86.357323 L 32.674984 87.093934 L 34.481525 87.471772 L 34.099106 88.175452 L 33.424248 88.849668 L 33.434631 89.12698 L 33.055672 89.409492 L 32.680175 90.185967 L 32.439649 90.931244 L 32.477717 91.198158 L 32.732087 91.359345 L 32.35832 91.9677 L 32.48983 92.274476 L 32.005317 92.808303 L 31.813242 93.366394 L 31.46197 93.55358 L 31.356416 94.056209 L 30.830373 94.529373 L 30.828643 94.714826 L 31.264704 94.65243 L 31.704227 95.019869 L 31.20068 95.179324 L 31.198949 95.392508 L 31.467162 95.510366 L 31.979361 95.233053 L 31.956866 95.616091 L 31.943023 95.883004 L 31.569256 96.040726 L 31.41871 96.151651 L 31.063978 96.084056 L 30.915163 96.141252 L 30.34413 96.214046 L 29.105161 96.675078 L 28.494328 97.524347 L 28.309175 98.425613 L 26.549354 99.886702 L 25.945443 100.167481 L 25.84508 100.637179 L 25.97486 101.075679 L 25.817393 101.294063 L 25.67377 101.42232 L 25.479965 101.491648 L 25.322498 101.760295 L 24.77569 101.956146 L 24.60092 102.297587 L 24.398462 102.112135 L 23.929523 102.127733 L 23.727066 102.514238 L 23.292734 102.564501 L 23.149111 102.847013 L 22.690554 102.689291 L 22.119521 102.992602 L 22.302943 102.432777 L 22.147207 102.17453 L 22.354856 102.141599 L 22.534818 101.803625 L 21.962054 101.351259 L 22.216423 100.777569 L 21.797666 100.474258 L 22.16105 100.070422 L 22.256223 98.893577 L 21.780362 98.408281 L 22.034731 98.101504 L 21.851308 97.813792 L 21.979358 97.66127 L 21.427359 97.054649 L 21.60386 96.009528 L 21.351221 95.697552 L 21.038018 95.818876 L 21.195485 95.451437 L 20.977454 94.664563 L 21.176451 93.924485 L 21.657503 93.279734 L 21.917063 92.113289 L 22.37389 91.785713 L 21.477541 90.45808 L 21.110695 90.750991 L 20.295675 92.175684 L 20.070723 91.907037 L 19.944403 92.057826 L 19.617357 91.978099 L 19.593131 91.329881 L 19.049784 91.0803 L 18.94423 90.210232 L 18.115366 90.825519 L 16.727583 90.991906 L 16.597802 90.080242 L 16.047534 89.378295 L 16.353815 88.811537 L 16.513013 88.801138 L 16.639332 88.301976 L 16.563194 88.180652 L 16.205001 88.314108 L 15.488614 87.525501 L 15.564751 87.298452 L 15.381329 86.915414 L 15.469579 86.532376 L 15.742983 86.530643 L 15.973127 85.847761 L 15.722218 85.540984 L 16.168662 84.332942 L 16.123672 84.0019 L 16.483596 83.618862 Z M 16.793338 83.592864 " stroke="rgb(100%, 100%, 100%)" stroke-width="0.5" stroke-opacity="1" stroke-miterlimit="4"/></g><g clip-path="url(#id6)"><path fill="rgb(17.248535%, 44.309998%, 94.119263%)" d="M 95.992188 359.648438 L 96.378906 359.722656 L 96.449219 361.414062 L 96.96875 361.585938 L 96.507812 361.886719 L 96.578125 362.164062 L 96.074219 362.777344 L 95.761719 362.824219 L 95.222656 362.625 L 95.015625 362.925781 L 94.328125 361.921875 L 93.679688 362 L 93.347656 361.429688 L 93.726562 361.132812 L 94.558594 361.558594 L 95.375 360.070312 L 95.070312 359.84375 Z M 49.25 322.421875 L 50.058594 322.949219 L 51.144531 322.941406 L 51.421875 322.5625 L 53.308594 323.324219 L 51.359375 324.398438 L 50.722656 323.898438 L 49.71875 323.820312 L 49.652344 323.308594 L 49.128906 323.4375 L 48.867188 322.714844 Z M 52.886719 315.023438 L 53.195312 315.355469 L 53.71875 315.191406 L 54.1875 315.433594 L 54.480469 315.636719 L 54.046875 315.929688 L 54.417969 316.625 L 53.347656 316.597656 L 53.675781 317.445312 L 53.40625 317.675781 L 53.351562 318.292969 L 53.066406 318.734375 L 53.234375 319.105469 L 53.28125 319.457031 L 52.308594 319.429688 L 52.742188 319.808594 L 52.394531 320.011719 L 53.101562 320.15625 L 53.496094 320.894531 L 53.578125 321.300781 L 53.789062 322 L 53.796875 322.585938 L 52.785156 322.847656 L 51.453125 321.640625 L 51.335938 321.652344 L 51.21875 320.65625 L 50.613281 320.25 L 50.4375 320.8125 L 50.234375 320.855469 L 50.085938 321.15625 L 50.542969 321.652344 L 50.246094 321.878906 L 50.574219 322.648438 L 49.441406 322.402344 L 49.195312 321.761719 L 48.667969 322.410156 L 48.597656 320.796875 L 50.742188 319.59375 L 51.527344 318.632812 L 51.324219 318.003906 L 51.765625 316.539062 L 51.214844 316.15625 L 51.65625 315.929688 L 51.320312 315.574219 L 50.84375 315.710938 L 52.195312 314.96875 Z M 76.996094 232.792969 L 78.535156 233.566406 L 78.953125 235.042969 L 80.15625 235.871094 L 80.042969 236.34375 L 80.917969 236.464844 L 81.203125 237.191406 L 80.863281 237.539062 L 79.78125 237.203125 L 79.507812 237.699219 L 78.929688 237.160156 L 78.382812 237.433594 L 78.554688 237.898438 L 79.054688 237.78125 L 79.1875 238.332031 L 80.714844 238.480469 L 79.894531 239.046875 L 80.632812 239.203125 L 80.90625 238.707031 L 81.292969 238.445312 L 81.238281 238.085938 L 81.632812 237.695312 L 81.394531 238.816406 L 82.140625 239.675781 L 81.222656 240.621094 L 81.289062 240.996094 L 80.625 241.96875 L 79.921875 241.550781 L 79.484375 242.0625 L 78.140625 242.042969 L 77.410156 242.917969 L 76.300781 243.375 L 75.414062 242.9375 L 74.898438 243.164062 L 74.546875 242.515625 L 74.128906 242.851562 L 74.222656 243.414062 L 73.9375 244.007812 L 73.78125 244.890625 L 73.3125 245.035156 L 73.398438 244.527344 L 72.289062 245.429688 L 71.589844 245.019531 L 71.050781 245.179688 L 71.253906 243.867188 L 72.796875 242.832031 L 72.757812 242.464844 L 72.984375 241.75 L 72.566406 241.253906 L 73.441406 240.226562 L 74.722656 240.292969 L 74.105469 238.222656 L 74.339844 238.089844 L 74.304688 238.625 L 74.972656 238.535156 L 75.539062 237.59375 L 75.3125 236.214844 L 74.59375 235.125 L 74.84375 233.449219 L 75.824219 232.871094 L 76.476562 233.21875 Z M 58.046875 213.496094 L 58.417969 213.738281 L 57.742188 214.175781 L 57.210938 214.035156 L 57.285156 213.667969 Z M 60.042969 210.546875 L 60.554688 211.117188 L 60.664062 212.59375 L 60.128906 213.59375 L 58.734375 213.742188 L 58.738281 213.074219 L 58.078125 212.828125 L 58.652344 212.574219 L 58.273438 211.964844 L 56.703125 213.539062 L 58.082031 211.046875 Z M 64.085938 201.515625 L 63.886719 202.585938 L 64.648438 204.476562 L 64.261719 204.589844 L 62.703125 203.347656 Z M 80.238281 184.066406 L 81.050781 184.304688 L 82.289062 183.71875 L 83.855469 184.230469 L 83.855469 185.007812 L 84.886719 185.84375 L 83.914062 186.65625 L 84.246094 186.980469 L 83.832031 188.472656 L 83.113281 188.515625 L 82.300781 189.378906 L 82.402344 190.125 L 81.394531 192.847656 L 81.957031 193.539062 L 81.441406 195.078125 L 80.824219 195.082031 L 80.625 195.945312 L 81.039062 196.808594 L 80.867188 197.324219 L 82.484375 199.097656 L 83.292969 198.796875 L 83.46875 199.070312 L 83.183594 200.195312 L 82.820312 200.21875 L 82.128906 201.496094 L 83.375 203.078125 L 83.667969 205.132812 L 86.800781 204.757812 L 88.671875 203.371094 L 88.910156 205.332031 L 90.136719 205.894531 L 90.1875 207.359375 L 90.929688 207.535156 L 91.214844 207.199219 L 91.722656 207.808594 L 93.5625 204.59375 L 94.390625 203.9375 L 96.414062 206.925781 L 95.382812 207.664062 L 94.796875 210.292969 L 93.710938 211.746094 L 93.261719 213.417969 L 93.75 215.1875 L 93.398438 216.019531 L 94.105469 215.746094 L 94.675781 216.453125 L 94.273438 218.808594 L 95.523438 220.175781 L 95.234375 220.523438 L 95.648438 221.175781 L 95.070312 221.867188 L 96.148438 222.960938 L 95.933594 225.613281 L 95.113281 226.527344 L 96.058594 227.210938 L 95.480469 228.503906 L 96.78125 229.523438 L 96.375 230.285156 L 95.90625 230.359375 L 96.257812 230.941406 L 95.847656 232.207031 L 95.074219 232.050781 L 95.539062 231.578125 L 94.964844 231.175781 L 94.652344 232.394531 L 94.117188 232.570312 L 90.933594 232.335938 L 90.730469 231.269531 L 90.160156 230.683594 L 89.050781 230.425781 L 87.328125 230.789062 L 87.421875 230.421875 L 87.984375 230.429688 L 87.363281 230.105469 L 86.71875 230.226562 L 87.210938 230.769531 L 86.28125 231.21875 L 84.121094 231.140625 L 84.253906 230.546875 L 83.867188 229.75 L 83.164062 230.0625 L 84.011719 231.328125 L 83.570312 231.605469 L 82.683594 230.175781 L 82.144531 230.101562 L 82.054688 229.375 L 84.214844 228.738281 L 83.808594 228.457031 L 83.570312 228.027344 L 82.890625 228.222656 L 83.234375 228.914062 L 82.785156 229.027344 L 81.78125 226.9375 L 80.699219 225.859375 L 79.617188 225.765625 L 79.179688 226.183594 L 79.421875 226.644531 L 77.636719 226.078125 L 77.148438 226.332031 L 76.402344 226.3125 L 75.78125 226.773438 L 75.089844 226.253906 L 75.03125 225.609375 L 75.03125 224.839844 L 74.824219 224.109375 L 73.40625 222.734375 L 71.789062 221.917969 L 70.378906 221.863281 L 69.652344 222.738281 L 69.515625 223.921875 L 67.703125 224.144531 L 62.808594 223.066406 L 61.480469 223.539062 L 61.273438 223.160156 L 59.910156 223.070312 L 59.015625 221.96875 L 60.527344 221.074219 L 60.691406 220.230469 L 60.296875 219.894531 L 59.5625 220.46875 L 59.121094 219.984375 L 58.460938 220.648438 L 59.21875 218.480469 L 61.359375 218.105469 L 61.257812 217.640625 L 59.582031 217.707031 L 58.863281 218.167969 L 57.089844 219.027344 L 56.753906 218.738281 L 56.429688 216.820312 L 56.761719 215.015625 L 62.308594 213.945312 L 63.644531 213.199219 L 62.0625 212.75 L 60.742188 213.21875 L 61.074219 212.003906 L 63.726562 211.257812 L 64.175781 210.730469 L 60.828125 211.957031 L 60.761719 210.546875 L 62.78125 209.660156 L 62.949219 209.640625 L 64.183594 208.582031 L 60.882812 210.179688 L 59.914062 210.097656 L 61.050781 206.570312 L 61.78125 206.445312 L 61.339844 206.125 L 61.640625 205.03125 L 62.375 204.023438 L 63.890625 204.886719 L 64.152344 204.949219 L 65.003906 205.578125 L 65.578125 205.789062 L 66.246094 207.503906 L 66.515625 207.414062 L 65.792969 205.726562 L 64.699219 204.859375 L 65.085938 204.386719 L 66.65625 204.28125 L 66.675781 203.839844 L 64.757812 204.125 L 64.242188 202.871094 L 64.503906 201.804688 L 64.21875 201.269531 L 64.785156 200.574219 L 66.074219 202.199219 L 66.109375 202.035156 L 64.988281 200.5625 L 65.722656 199.507812 L 66.132812 199.898438 L 65.902344 199 L 66.527344 198.542969 L 66.535156 198.183594 L 69.246094 195.359375 L 69.96875 196.683594 L 69.839844 197.355469 L 70.335938 197.691406 L 70.039062 198.4375 L 70.46875 197.949219 L 70.894531 198.164062 L 70.0625 197.195312 L 70.355469 197.058594 L 69.660156 194.949219 L 70.972656 193.945312 L 71.574219 194.011719 L 71.648438 193.539062 L 72.164062 193.078125 L 72.585938 192.835938 L 72.660156 192.1875 L 73.359375 191.660156 L 73.621094 191.324219 L 75.125 190.566406 L 75.304688 190.089844 L 75.769531 189.917969 L 76.378906 190.589844 L 76.234375 188.410156 L 77.871094 186.308594 L 79.113281 185.949219 L 78.769531 185.074219 L 80.171875 185.128906 L 80.527344 184.351562 Z M 80.238281 184.066406 " fill-opacity="1" fill-rule="nonzero"/></g><g clip-path="url(#id7)"><path stroke-linecap="butt" transform="matrix(2.257421, 0, 0, 2.253776, 45.918489, 0.0691852)" fill="none" stroke-linejoin="miter" d="M 22.181815 159.545271 L 22.353125 159.578202 L 22.384272 160.328679 L 22.614416 160.40494 L 22.410229 160.538396 L 22.441376 160.661454 L 22.218154 160.933566 L 22.079721 160.954365 L 21.840926 160.865972 L 21.749214 160.999428 L 21.444663 160.553995 L 21.157416 160.588659 L 21.010332 160.335611 L 21.178181 160.203888 L 21.546757 160.392807 L 21.908411 159.732457 L 21.77344 159.631931 Z M 1.475804 143.02785 L 1.833998 143.261832 L 2.31505 143.258366 L 2.437909 143.090245 L 3.273694 143.42822 L 2.410222 143.90485 L 2.128166 143.683 L 1.683453 143.648336 L 1.654036 143.421287 L 1.422162 143.478482 L 1.306225 143.15784 Z M 3.08681 139.745164 L 3.223512 139.892486 L 3.455386 139.819692 L 3.663034 139.92715 L 3.792815 140.017277 L 3.60074 140.147267 L 3.765128 140.455777 L 3.290998 140.443645 L 3.436352 140.81975 L 3.316954 140.922009 L 3.292728 141.195855 L 3.166409 141.391706 L 3.240816 141.556361 L 3.261581 141.712349 L 2.83071 141.700217 L 3.022785 141.868337 L 2.868779 141.958464 L 3.181982 142.022592 L 3.356753 142.350168 L 3.393091 142.530421 L 3.486533 142.840664 L 3.489994 143.100644 L 3.041819 143.216769 L 2.451752 142.681209 L 2.39984 142.686409 L 2.347928 142.244442 L 2.079715 142.064189 L 2.001847 142.31377 L 1.911866 142.332836 L 1.84611 142.466292 L 2.048568 142.686409 L 1.917057 142.786935 L 2.062411 143.128376 L 1.560594 143.019184 L 1.451578 142.734939 L 1.217974 143.02265 L 1.186827 142.306837 L 2.136818 141.773011 L 2.484629 141.346643 L 2.394648 141.067598 L 2.590184 140.417647 L 2.346197 140.247793 L 2.541733 140.147267 L 2.392918 139.989546 L 2.181809 140.050208 L 2.780528 139.720899 Z M 13.766862 103.259515 L 14.448641 103.602689 L 14.633794 104.25784 L 15.166758 104.625279 L 15.116577 104.834996 L 15.504187 104.888725 L 15.630507 105.211101 L 15.479962 105.365356 L 15.00064 105.216301 L 14.879511 105.436417 L 14.623412 105.197235 L 14.381155 105.31856 L 14.457293 105.524811 L 14.678785 105.472815 L 14.737618 105.717196 L 15.414206 105.783058 L 15.050821 106.034372 L 15.377868 106.1037 L 15.498996 105.883584 L 15.670306 105.767459 L 15.64608 105.608004 L 15.820851 105.434684 L 15.715296 105.932113 L 16.045804 106.313418 L 15.639159 106.732853 L 15.668576 106.89924 L 15.374407 107.330808 L 15.062934 107.145355 L 14.869129 107.372405 L 14.27387 107.363739 L 13.950285 107.751976 L 13.45885 107.954761 L 13.066048 107.760642 L 12.837635 107.861168 L 12.681899 107.573456 L 12.496746 107.722512 L 12.538275 107.972093 L 12.411956 108.23554 L 12.34274 108.627243 L 12.135091 108.691372 L 12.17316 108.466056 L 11.681725 108.866425 L 11.371983 108.684439 L 11.133187 108.7555 L 11.223168 108.173144 L 11.906678 107.713846 L 11.889374 107.550925 L 11.989737 107.233749 L 11.804584 107.013632 L 12.192194 106.557799 L 12.759767 106.587264 L 12.486363 105.668667 L 12.590187 105.609738 L 12.574614 105.847186 L 12.870513 105.807323 L 13.121421 105.389621 L 13.021058 104.7778 L 12.702664 104.294237 L 12.813409 103.550693 L 13.247741 103.294179 L 13.536718 103.448434 Z M 5.372673 94.697494 L 5.537062 94.804952 L 5.237702 94.999071 L 5.002367 94.936676 L 5.035245 94.773755 Z M 6.25691 93.388926 L 6.483593 93.641973 L 6.532044 94.297124 L 6.294978 94.740824 L 5.677224 94.806685 L 5.678955 94.510308 L 5.386517 94.401116 L 5.640886 94.288458 L 5.473037 94.018078 L 4.777414 94.716559 L 5.388247 93.610776 Z M 8.047877 89.381761 L 7.959627 89.856659 L 8.297056 90.695529 L 8.125746 90.745792 L 7.435315 90.194633 Z M 15.203097 81.639545 L 15.563021 81.74527 L 16.111559 81.48529 L 16.805451 81.712339 L 16.805451 82.057247 L 17.262277 82.428152 L 16.831407 82.788658 L 16.978491 82.932514 L 16.795068 83.594597 L 16.476674 83.613663 L 16.11675 83.996701 L 16.161741 84.327742 L 15.715296 85.535784 L 15.964475 85.842561 L 15.736061 86.525443 L 15.462658 86.527176 L 15.374407 86.910214 L 15.55783 87.293252 L 15.481692 87.522035 L 16.198079 88.308909 L 16.556273 88.175452 L 16.634141 88.296776 L 16.507821 88.795939 L 16.346894 88.806338 L 16.040612 89.373095 L 16.592611 90.075042 L 16.722391 90.986707 L 18.110175 90.820319 L 18.939039 90.205032 L 19.044593 91.0751 L 19.58794 91.324681 L 19.610435 91.974632 L 19.939212 92.052626 L 20.065531 91.903571 L 20.290484 92.173951 L 21.105504 90.747525 L 21.47235 90.456347 L 22.368699 91.782247 L 21.911872 92.109822 L 21.652312 93.276268 L 21.171259 93.921019 L 20.972263 94.66283 L 21.188563 95.44797 L 21.032827 95.817143 L 21.34603 95.695818 L 21.598669 96.009528 L 21.420438 97.054649 L 21.974167 97.66127 L 21.846117 97.815525 L 22.02954 98.10497 L 21.77344 98.411747 L 22.251031 98.897044 L 22.155859 100.073888 L 21.792474 100.479458 L 22.211232 100.782768 L 21.955132 101.356458 L 22.531357 101.808824 L 22.351395 102.146799 L 22.143746 102.17973 L 22.299483 102.437977 L 22.11779 102.999534 L 21.77517 102.930206 L 21.981088 102.720489 L 21.726719 102.541969 L 21.588287 103.082728 L 21.351221 103.160722 L 19.940942 103.05673 L 19.850961 102.583566 L 19.598322 102.323585 L 19.106888 102.209194 L 18.34378 102.370382 L 18.385309 102.207461 L 18.634488 102.210927 L 18.359353 102.067071 L 18.073837 102.120801 L 18.291868 102.361716 L 17.880032 102.561034 L 16.923118 102.52637 L 16.981952 102.262923 L 16.810642 101.90935 L 16.499169 102.048006 L 16.874667 102.609564 L 16.679131 102.732621 L 16.28633 102.098269 L 16.047534 102.065338 L 16.007735 101.742962 L 16.964648 101.46045 L 16.784686 101.33566 L 16.679131 101.145008 L 16.378041 101.231668 L 16.530317 101.538445 L 16.33132 101.588707 L 15.886606 100.661444 L 15.407285 100.18308 L 14.927963 100.141483 L 14.734158 100.326936 L 14.841443 100.531454 L 14.050648 100.280139 L 13.834348 100.392798 L 13.50384 100.384132 L 13.228706 100.58865 L 12.922425 100.358134 L 12.896469 100.072155 L 12.896469 99.730714 L 12.804757 99.406605 L 12.176621 98.796518 L 11.460234 98.434279 L 10.835558 98.410014 L 10.513703 98.798251 L 10.453139 99.323412 L 9.650231 99.422204 L 7.482035 98.94384 L 6.893698 99.153558 L 6.801987 98.985437 L 6.198076 98.945573 L 5.801813 98.45681 L 6.47148 98.059907 L 6.544157 97.685535 L 6.369386 97.53648 L 6.04407 97.79126 L 5.848534 97.576343 L 5.556096 97.870988 L 5.891794 96.90906 L 6.840056 96.742673 L 6.795065 96.536422 L 6.052722 96.565886 L 5.734328 96.770404 L 4.948724 97.151709 L 4.79991 97.023452 L 4.656286 96.172449 L 4.80337 95.37171 L 7.260544 94.896812 L 7.852342 94.56577 L 7.151528 94.366452 L 6.566652 94.574436 L 6.713736 94.03541 L 7.88868 93.704369 L 8.087677 93.470386 L 6.604721 94.014612 L 6.575304 93.388926 L 7.469923 92.995489 L 7.54433 92.986823 L 8.091138 92.517125 L 6.628946 93.226005 L 6.199806 93.189607 L 6.703354 91.624525 L 7.026939 91.569063 L 6.831404 91.42694 L 6.964645 90.941644 L 7.289961 90.494477 L 7.961357 90.877515 L 8.077294 90.905246 L 8.454522 91.184292 L 8.708892 91.277885 L 9.004791 92.038761 L 9.124189 91.998897 L 8.804064 91.250154 L 8.319551 90.865383 L 8.490861 90.655665 L 9.186483 90.608869 L 9.195135 90.413017 L 8.345507 90.539541 L 8.117094 89.983182 L 8.233031 89.510018 L 8.106711 89.272569 L 8.35762 88.964059 L 8.928653 89.685072 L 8.944227 89.612277 L 8.447601 88.95886 L 8.772917 88.490895 L 8.954609 88.664215 L 8.852515 88.265579 L 9.12938 88.062794 L 9.132841 87.903339 L 10.333741 86.650234 L 10.653866 87.237789 L 10.596762 87.5359 L 10.816523 87.684956 L 10.685013 88.015997 L 10.875357 87.799347 L 11.063971 87.894673 L 10.695395 87.464839 L 10.825175 87.404177 L 10.517164 86.468247 L 11.098579 86.022814 L 11.365061 86.052279 L 11.397939 85.842561 L 11.626352 85.638043 L 11.813236 85.530585 L 11.846114 85.242873 L 12.155856 85.008891 L 12.271793 84.859835 L 12.937998 84.523594 L 13.017597 84.312143 L 13.223515 84.235882 L 13.493458 84.533993 L 13.429433 83.566866 L 14.154472 82.634403 L 14.704741 82.474949 L 14.552465 82.086711 L 15.17368 82.110976 L 15.331147 81.766069 Z M 15.203097 81.639545 " stroke="rgb(100%, 100%, 100%)" stroke-width="0.5" stroke-opacity="1" stroke-miterlimit="4"/></g><path stroke-linecap="butt" transform="matrix(2.257421, 0, 0, 2.253776, 45.918489, 0.0691852)" fill-opacity="1" fill="rgb(17.248535%, 44.309998%, 94.119263%)" fill-rule="nonzero" stroke-linejoin="miter" d="M 49.999786 54.085089 L 49.826745 55.17874 L 49.262634 55.456052 L 48.855989 56.043608 L 48.878484 56.313988 L 48.039238 56.976071 L 48.101533 57.229119 L 47.819477 57.525496 L 48.158636 57.950131 L 47.329773 57.993461 L 47.177497 58.561952 L 46.63242 58.865262 L 46.635881 59.189371 L 46.281148 59.693733 L 45.768949 59.887852 L 45.900459 60.163431 L 45.263671 61.052564 L 45.395181 61.328143 L 44.850104 61.953829 L 44.907208 62.118483 L 44.588813 62.284871 L 44.476337 62.842962 L 43.946833 62.855094 L 44.012589 63.113342 L 43.80494 63.286662 L 43.772063 63.721696 L 42.950121 64.271121 L 42.664604 64.569232 L 42.204317 64.36818 L 42.050311 63.248532 L 41.517347 63.260664 L 41.216256 62.810031 L 40.795768 62.829096 L 40.562164 62.399262 L 40.697135 62.113284 L 40.423731 62.028357 L 40.209161 61.544793 L 40.411619 61.28308 L 40.328559 61.080295 L 40.626189 60.87751 L 40.638302 60.172097 L 40.496408 60.040373 L 40.624458 59.667735 L 41.264708 59.34016 L 41.475817 59.494415 L 41.392758 58.970987 L 41.970712 58.711007 L 42.04685 57.948398 L 42.550398 57.579226 L 42.536554 57.080063 L 42.813419 56.931008 L 43.133544 57.086996 L 43.618057 56.76982 L 43.701116 56.092138 L 43.50385 55.797493 L 44.085266 55.627639 L 44.303297 55.31393 L 43.905304 55.279266 L 43.792828 54.949957 L 42.948391 54.062557 L 42.998572 53.811243 L 42.30122 53.795644 L 41.951678 54.159617 L 41.840932 53.740182 L 42.332367 53.185557 L 41.799402 53.019169 L 41.527729 52.431614 L 41.340845 52.551205 L 41.416983 52.017378 L 41.238752 51.7262 L 43.218334 50.138587 L 43.095475 50.521624 L 43.851661 50.145519 L 43.810132 49.892472 L 43.325619 50.14032 L 43.882809 49.538898 L 44.91586 49.478236 L 46.172133 49.767681 L 46.296722 49.878606 L 44.638995 49.575296 L 44.156212 50.161118 L 44.14583 50.682812 L 43.995285 50.75214 L 44.505754 51.705402 L 45.282705 52.292958 L 45.68762 51.925519 L 45.855469 52.12657 L 45.890077 51.844058 L 46.179054 51.785129 L 46.334791 52.39175 L 46.552822 52.403882 L 46.457649 53.161292 L 46.623768 53.277417 L 46.320947 53.745381 L 46.192898 54.126686 L 46.404007 54.42133 L 46.213662 54.819967 L 46.722401 55.355527 L 46.867755 55.696968 L 46.641072 55.79056 L 46.739705 55.982946 L 47.168845 56.010677 L 47.473396 56.345185 L 47.646437 56.502907 L 48.136141 56.220395 L 48.04443 55.891086 L 48.350711 55.676169 L 48.226122 55.464718 L 48.229583 55.287932 L 48.729669 54.897961 L 48.914823 55.055683 L 49.240139 54.892761 L 49.432213 54.468127 L 49.937491 54.03136 Z M 49.999786 54.085089 " stroke="rgb(100%, 100%, 100%)" stroke-width="0.5" stroke-opacity="1" stroke-miterlimit="4"/><path stroke-linecap="butt" transform="matrix(2.257421, 0, 0, 2.253776, 45.918489, 0.0691852)" fill-opacity="1" fill="rgb(17.248535%, 44.309998%, 94.119263%)" fill-rule="nonzero" stroke-linejoin="miter" d="M 56.369402 34.787611 L 56.391897 34.796277 L 56.667031 35.028526 L 57.60318 35.023326 L 57.983869 35.361301 L 57.492434 35.725273 L 57.60491 36.212303 L 57.767568 36.458418 L 57.971756 36.292031 L 58.106727 36.416821 L 58.058276 37.052907 L 58.371479 37.286889 L 58.556632 37.169031 L 58.610275 37.723656 L 59.1467 37.737522 L 59.31628 38.068563 L 58.971929 38.025233 L 58.689873 38.312945 L 58.783315 38.453334 L 58.509911 38.51573 L 58.348984 39.066888 L 57.985599 39.075554 L 57.681048 39.727238 L 58.155179 40.120675 L 57.997712 40.359857 L 58.127492 40.711697 L 58.579128 41.07047 L 58.826575 41.597364 L 58.639692 42.028931 L 58.80581 42.592222 L 58.387053 42.756876 L 58.397435 43.24564 L 57.591067 43.718804 L 57.319394 44.113974 L 57.426679 44.186769 L 57.04772 44.237032 L 56.042356 43.81933 L 55.146006 43.122582 L 54.642459 42.4397 L 53.877621 41.994267 L 52.993384 41.860811 L 51.943029 41.38418 L 51.186843 40.503713 L 50.930743 39.43606 L 51.185112 38.720248 L 52.680181 37.612731 L 53.0626 37.571134 L 53.765144 37.063306 L 54.803387 37.104903 L 55.274056 36.87612 L 56.038895 35.992187 Z M 56.369402 34.787611 " stroke="rgb(100%, 100%, 100%)" stroke-width="0.5" stroke-opacity="1" stroke-miterlimit="4"/><path stroke-linecap="butt" transform="matrix(2.257421, 0, 0, 2.253776, 45.918489, 0.0691852)" fill-opacity="1" fill="rgb(17.248535%, 44.309998%, 94.119263%)" fill-rule="nonzero" stroke-linejoin="miter" d="M 61.140125 17.010151 L 61.427372 17.02575 L 61.612525 17.282264 L 61.700776 17.471183 L 61.908424 17.330794 L 62.192211 17.585574 L 62.0607 17.998077 L 62.481188 18.206061 L 62.507144 18.556168 L 62.315069 18.550968 L 62.341025 18.738154 L 62.643846 18.70349 L 62.780548 18.975603 L 62.664611 19.266781 L 63.758226 18.769352 L 64.009134 18.97387 L 64.035091 19.150656 L 63.590377 19.296245 L 63.548847 19.54756 L 63.246026 19.679283 L 63.081638 20.162847 L 63.197575 20.268572 L 63.39138 19.869935 L 63.666515 19.772876 L 64.03163 20.02419 L 64.329259 21.194102 L 64.453848 21.698464 L 64.457309 22.738386 L 64.260043 22.513069 L 64.241009 22.710655 L 64.753208 24.154412 L 64.524795 24.40746 L 64.602663 24.596379 L 64.258313 24.847693 L 64.50403 25.147538 L 64.251391 25.152737 L 64.092194 24.908356 L 63.936457 25.140605 L 64.099115 25.469913 L 63.938188 25.615502 L 64.683992 27.360837 L 64.561133 27.795871 L 64.777434 27.885998 L 64.775703 28.191041 L 65.002386 28.451022 L 64.777434 28.579279 L 64.855302 28.851392 L 65.836441 29.688528 L 66.258659 29.700661 L 66.568402 29.925977 L 67.099636 31.633182 L 68.122304 32.063016 L 68.374943 32.355927 L 68.214016 33.421847 L 67.648174 33.20693 L 67.445716 33.678361 L 67.073679 33.517173 L 67.224225 33.198264 L 67.106557 33.026677 L 66.296728 33.297056 L 66.051011 32.782295 L 65.675513 33.232928 L 65.504203 33.210396 L 65.49036 33.654096 L 65.826058 33.610766 L 65.902196 33.799685 L 66.552828 33.983405 L 66.255199 34.62469 L 66.786432 35.248643 L 66.525141 35.480892 L 65.87451 35.298905 L 65.74646 35.654212 L 66.326145 36.657736 L 66.789893 36.564143 L 66.938708 37.780852 L 66.628966 37.945506 L 66.312302 38.335477 L 64.990273 38.415204 L 64.941822 38.656119 L 64.441735 38.853704 L 64.495378 39.009692 L 64.249661 39.193412 L 64.346563 39.333801 L 63.957222 39.61978 L 62.375633 39.401396 L 62.970892 38.016567 L 62.730366 37.581533 L 63.185462 37.007843 L 62.417163 37.042507 L 62.552135 36.461884 L 62.292574 36.077113 L 62.527909 35.72354 L 62.133377 35.215712 L 62.870529 33.659296 L 62.270079 33.934875 L 62.01917 33.638497 L 61.50351 33.574369 L 60.984389 33.817017 L 60.90479 33.541438 L 60.800966 33.933142 L 60.64696 33.858614 L 60.34587 34.193122 L 59.57757 34.135926 L 58.554902 34.482567 L 58.485686 35.168915 L 57.985599 35.359568 L 57.60491 35.021593 L 56.670492 35.026793 L 56.395358 34.794543 L 56.506104 32.215538 L 57.014843 31.575986 L 57.006191 30.740582 L 56.777777 30.031703 L 57.135971 30.11663 L 57.393801 29.821985 L 57.331506 30.071566 L 57.527042 30.201556 L 57.655092 30.298616 L 57.890427 30.158226 L 57.668935 30.151294 L 57.729499 29.990106 L 58.281498 29.726659 L 58.104997 29.508275 L 57.848897 29.6192 L 57.802176 29.458013 L 57.440522 29.780388 L 57.539155 29.281226 L 57.713926 29.1755 L 57.86101 29.312423 L 58.11711 28.806328 L 57.719117 28.764731 L 57.758916 29.064576 L 57.52012 29.1807 L 57.279594 28.036786 L 57.405914 27.769873 L 57.831593 27.558422 L 58.489147 27.593086 L 58.618927 27.437098 L 58.193247 27.461363 L 57.964834 27.32964 L 57.800446 27.528958 L 57.359193 25.648433 L 56.933514 24.648375 L 56.940435 24.145746 L 57.182692 24.237606 L 57.60318 23.738444 L 57.864471 23.582456 L 57.878314 23.362339 L 58.302263 23.466331 L 58.33168 23.026097 L 58.710638 23.057295 L 58.830036 22.842378 L 58.413009 22.265221 L 58.492607 22.15083 L 58.831766 22.284287 L 59.245333 21.488747 L 59.774837 21.679399 L 59.785219 21.376089 L 60.124378 21.507812 L 60.617543 21.216634 L 60.719637 22.275621 L 60.942859 22.76785 L 61.370269 22.875309 L 62.221627 22.542534 L 61.970719 20.996517 L 61.380651 20.043256 L 61.562344 19.973928 L 61.602143 19.67235 L 62.003597 19.526761 L 61.532927 18.966937 L 61.569265 18.143666 L 60.880564 17.446918 L 60.882295 17.115876 Z M 61.140125 17.010151 " stroke="rgb(100%, 100%, 100%)" stroke-width="0.5" stroke-opacity="1" stroke-miterlimit="4"/><path stroke-linecap="butt" transform="matrix(2.257421, 0, 0, 2.253776, 45.918489, 0.0691852)" fill-opacity="1" fill="rgb(17.248535%, 44.309998%, 94.119263%)" fill-rule="nonzero" stroke-linejoin="miter" d="M 58.470112 52.112704 L 58.400896 52.377884 L 57.99079 52.653464 L 58.305724 52.114438 Z M 59.658899 51.143844 L 60.105344 51.348362 L 59.996328 51.575412 L 60.482572 51.656872 L 60.996502 51.542481 L 61.148777 51.299832 L 61.577917 51.447155 L 61.782105 51.045052 L 62.728636 51.533815 L 63.128359 51.329297 L 63.171619 51.083182 L 63.654402 51.07105 L 63.806677 51.284234 L 63.644019 51.670738 L 63.915693 51.745265 L 64.576707 51.523416 L 64.72033 51.648206 L 65.220417 51.124779 L 65.670322 51.218372 L 65.70493 50.885597 L 66.101193 50.908129 L 66.608201 51.164643 L 66.86084 51.525149 L 66.826232 51.77993 L 66.573593 52.793853 L 66.042359 53.263551 L 65.57688 54.622382 L 65.118323 55.088613 L 64.908944 55.644971 L 64.381171 55.908418 L 63.943379 56.619031 L 63.08856 57.062731 L 61.5485 58.39903 L 61.140125 58.395564 L 60.653882 58.747404 L 60.300879 58.691942 L 60.044779 58.00386 L 60.188403 57.218719 L 59.733307 56.932741 L 59.735037 56.681427 L 59.084405 56.724757 L 58.302263 57.281115 L 57.982138 57.033267 L 57.855819 56.603433 L 58.264194 55.759363 L 58.106727 55.534046 L 57.90427 55.485517 L 57.471669 55.835624 L 57.563381 56.237727 L 57.786603 56.067873 L 57.684509 56.49944 L 57.55992 56.346919 L 57.023495 56.646763 L 56.658379 56.469976 L 56.369402 55.995078 L 56.566668 55.589509 L 57.00446 55.43872 L 57.580685 54.532255 L 57.86274 54.343336 L 57.847167 54.015761 L 58.435504 53.604992 L 58.715829 52.627466 L 59.196882 52.154301 Z M 59.658899 51.143844 " stroke="rgb(100%, 100%, 100%)" stroke-width="0.5" stroke-opacity="1" stroke-miterlimit="4"/><path stroke-linecap="butt" transform="matrix(2.257421, 0, 0, 2.253776, 45.918489, 0.0691852)" fill-opacity="1" fill="rgb(17.248535%, 44.309998%, 94.119263%)" fill-rule="nonzero" stroke-linejoin="miter" d="M 41.23183 51.719267 L 41.410062 52.010445 L 41.332193 52.544272 L 41.520807 52.426414 L 41.792481 53.01397 L 42.325445 53.180357 L 41.835741 53.734982 L 41.946487 54.154417 L 42.297759 53.792178 L 42.995111 53.806043 L 42.94493 54.057358 L 43.789367 54.944758 L 43.901843 55.274066 L 44.299836 55.312197 L 44.081805 55.624173 L 43.498659 55.794027 L 43.697655 56.090405 L 43.616326 56.768087 L 43.133544 57.085263 L 42.811689 56.929275 L 42.536554 57.07833 L 42.552128 57.579226 L 42.04685 57.948398 L 41.970712 58.711007 L 41.392758 58.970987 L 41.477547 59.494415 L 41.266438 59.34016 L 40.624458 59.667735 L 40.496408 60.040373 L 40.640032 60.172097 L 40.626189 60.87751 L 40.33202 61.080295 L 40.413349 61.28308 L 40.210892 61.544793 L 40.427192 62.028357 L 40.700596 62.113284 L 40.567355 62.399262 L 40.799229 62.829096 L 41.221448 62.810031 L 41.522538 63.260664 L 42.055502 63.248532 L 42.209508 64.36818 L 42.669796 64.569232 L 42.958773 64.271121 L 42.758046 65.103058 L 42.128179 65.297177 L 41.742299 65.777274 L 41.415253 65.857001 L 41.070902 66.560682 L 40.705787 66.747868 L 40.58812 67.222765 L 39.77656 67.394352 L 39.807708 67.526076 L 39.461627 67.659532 L 39.226292 68.371879 L 38.426846 68.728918 L 38.435498 69.155286 L 38.224388 69.333806 L 38.345517 69.430865 L 38.117103 69.664848 L 37.814283 69.54179 L 36.869482 69.765373 L 36.724128 69.630184 L 36.419577 69.749775 L 36.180781 70.129346 L 35.922951 69.99069 L 35.547454 70.086016 L 35.580331 70.217739 L 35.088897 70.548781 L 35.019681 71.103406 L 34.313676 71.278459 L 34.240999 71.498576 L 34.076611 71.417116 L 33.836084 71.79842 L 33.938178 71.950942 L 33.503847 72.453571 L 33.25813 72.498634 L 33.13008 72.307982 L 32.472526 73.136453 L 31.695575 73.290708 L 31.778634 73.500425 L 31.323538 73.724008 L 31.425632 73.878263 L 31.141846 74.275167 L 30.631377 74.084515 L 29.816357 74.829792 L 29.513536 74.947649 L 29.35953 74.717133 L 28.736585 75.003112 L 28.188047 75.649597 L 27.861 75.727591 L 27.866192 76.309947 L 27.502807 76.498866 L 27.509728 76.838574 L 27.144613 77.027493 L 27.1325 77.42093 L 26.653179 77.602916 L 26.668752 77.791835 L 26.4438 77.781436 L 25.454009 78.932282 L 24.749734 78.854288 L 24.68744 79.509439 L 23.91568 79.746888 L 23.391367 80.282447 L 23.131807 80.133392 L 22.989914 79.745154 L 22.614416 80.176722 L 22.000123 80.15419 L 21.889377 79.901143 L 21.074357 80.24605 L 21.107235 80.38124 L 20.842483 80.478299 L 20.78884 80.99306 L 20.18666 81.162914 L 20.043036 81.363966 L 19.965168 82.185504 L 19.378561 82.89785 L 19.022098 82.682933 L 18.376657 83.218493 L 17.883492 83.303419 L 17.649888 83.539135 L 16.812372 83.603263 L 16.995795 82.94118 L 16.848711 82.797324 L 17.279581 82.438551 L 16.822755 82.067646 L 16.822755 81.722739 L 16.130593 81.497422 L 15.582055 81.755669 L 15.222131 81.649944 L 14.934884 81.490489 L 16.208462 80.563226 L 16.912736 79.287589 L 17.845423 79.240792 L 18.554889 78.842156 L 18.681208 79.176664 L 19.058436 79.18013 L 19.901143 78.823091 L 21.892838 77.043091 L 23.111042 76.34981 L 23.292734 76.08463 L 24.106024 75.968506 L 24.426149 75.614932 L 24.642449 75.744923 L 25.274047 75.290824 L 25.940252 74.183307 L 27.122118 73.642548 L 27.556449 72.99953 L 28.347244 72.365177 L 28.88886 71.479511 L 29.691767 71.48991 L 29.681385 71.313123 L 29.523918 71.31659 L 29.819817 70.91622 L 30.845947 70.595578 L 32.732087 69.040895 L 34.434804 66.690672 L 34.93316 65.25558 L 35.48862 64.297119 L 35.668582 62.962553 L 36.495715 60.835913 L 36.452455 59.919049 L 38.099799 59.659069 L 39.098242 58.697141 L 39.783482 57.331378 L 40.28876 56.832215 L 40.555242 54.99502 L 40.50333 52.764389 Z M 41.23183 51.719267 " stroke="rgb(100%, 100%, 100%)" stroke-width="0.5" stroke-opacity="1" stroke-miterlimit="4"/></svg>