<svg width="473" height="385" viewBox="0 0 473 385" fill="none" xmlns="http://www.w3.org/2000/svg">
<g filter="url(#filter0_d_1456_517016)">
<path d="M248.498 319.533H20.3894C14.8811 319.533 10.4668 315.504 10.4668 310.571V18.4293C10.4668 13.535 14.8381 9.46676 20.3894 9.46676H248.498C254.006 9.46676 258.421 13.496 258.421 18.4293V310.612C258.421 315.504 254.052 319.533 248.498 319.533Z" fill="white" stroke="#2C71F0" stroke-width="0.933518"/>
</g>
<path d="M209.885 291.896H56.0353C48.3304 291.896 42.0676 285.633 42.0676 277.929C42.0676 270.224 48.3304 263.961 56.0353 263.961H209.885C217.59 263.961 223.853 270.224 223.853 277.929C223.812 285.633 217.59 291.896 209.885 291.896Z" fill="#2C71F0"/>
<path d="M113.916 282.329C116.088 282.329 117.735 281.052 118.234 279.161H116.726C116.318 280.349 115.219 281.026 113.916 281.026C112.09 281.026 110.71 279.621 110.71 277.693C110.71 275.789 112.09 274.359 113.916 274.359C115.219 274.359 116.33 275.049 116.726 276.236H118.208C117.684 274.372 116.101 273.056 113.916 273.056C111.234 273.056 109.28 275.061 109.28 277.693C109.28 280.349 111.221 282.329 113.916 282.329Z" fill="white"/>
<path d="M119.881 282.163H121.222V278.868C121.222 277.629 121.873 276.773 123.01 276.773H123.636V275.47H123.048C122.103 275.47 121.464 276.109 121.26 276.645H121.171V275.483H119.881V282.163Z" fill="white"/>
<path d="M127.831 282.329C129.479 282.329 130.667 281.435 131.012 280.145H129.709C129.441 280.796 128.713 281.205 127.87 281.205C126.644 281.205 125.864 280.413 125.813 279.251H131.076V278.753C131.076 276.85 129.888 275.317 127.806 275.317C125.903 275.317 124.472 276.722 124.472 278.842C124.472 280.847 125.826 282.329 127.831 282.329ZM125.839 278.216C125.941 277.169 126.784 276.441 127.806 276.441C128.84 276.441 129.658 277.092 129.747 278.216H125.839Z" fill="white"/>
<path d="M135.475 282.329C136.803 282.329 137.455 281.473 137.634 281.218H137.71V282.163H139.026V275.483H137.685V276.454H137.595C137.378 276.109 136.688 275.317 135.411 275.317C133.546 275.317 132.231 276.773 132.231 278.842C132.231 280.911 133.559 282.329 135.475 282.329ZM135.667 281.116C134.44 281.116 133.597 280.222 133.597 278.829C133.597 277.488 134.44 276.543 135.654 276.543C136.829 276.543 137.723 277.386 137.723 278.829C137.723 280.094 136.944 281.116 135.667 281.116Z" fill="white"/>
<path d="M143.72 282.163H144.831V281.026H143.924C143.221 281.026 142.953 280.643 142.953 280.004V276.581H144.895V275.483H142.953V273.592H141.689V275.061C141.689 275.33 141.523 275.496 141.293 275.496H140.411V276.581H141.612V280.043C141.612 281.435 142.404 282.163 143.72 282.163Z" fill="white"/>
<path d="M149.373 282.329C151.021 282.329 152.209 281.435 152.553 280.145H151.251C150.982 280.796 150.254 281.205 149.411 281.205C148.185 281.205 147.406 280.413 147.355 279.251H152.617V278.753C152.617 276.85 151.429 275.317 149.347 275.317C147.444 275.317 146.014 276.722 146.014 278.842C146.014 280.847 147.368 282.329 149.373 282.329ZM147.38 278.216C147.483 277.169 148.326 276.441 149.347 276.441C150.382 276.441 151.199 277.092 151.289 278.216H147.38Z" fill="white"/>
<circle cx="133.963" cy="132.684" r="42.9485" fill="#2C71F0" stroke="black" stroke-width="0.823034"/>
<path d="M129.612 149.947H138.383V136.86H151.052V128.507H138.383V115.421H129.612V128.507H116.874V136.86H129.612V149.947Z" fill="white"/>
<path d="M61.403 214.501H64.4289V205.799H64.5475L69.828 214.501H73.3088V200.657H70.2829V209.359H70.1642L64.864 200.657H61.403V214.501Z" fill="black"/>
<path d="M80.6903 214.758C83.5185 214.758 85.4171 213.354 85.8917 211.159H83.1229C82.8263 211.811 82.0154 212.405 80.809 212.405C79.3653 212.405 78.3962 211.455 78.2973 210.13H85.9906V209.24C85.9906 206.333 84.1909 203.802 80.7497 203.802C77.5655 203.802 75.39 206.076 75.39 209.339C75.39 212.484 77.6644 214.758 80.6903 214.758ZM78.3566 208.093C78.4951 207.065 79.4444 206.135 80.7497 206.135C82.1143 206.135 83.024 206.986 83.1427 208.093H78.3566Z" fill="black"/>
<path d="M89.432 214.501H92.7941L94.8114 208.133H94.93L96.9275 214.501H100.29L103.058 204.059H99.8743L98.4899 210.763H98.3317L96.354 204.059H93.3676L91.3899 210.763H91.2317L89.8473 204.059H86.6632L89.432 214.501Z" fill="black"/>
<path d="M116.681 214.758C120.399 214.758 123.109 212.464 123.702 209.418H120.281C119.766 210.743 118.461 211.752 116.681 211.752C114.288 211.752 112.647 209.992 112.647 207.579C112.647 205.206 114.288 203.406 116.681 203.406C118.461 203.406 119.786 204.435 120.162 205.799H123.564C122.97 202.754 120.439 200.4 116.681 200.4C112.37 200.4 109.403 203.505 109.403 207.579C109.403 211.673 112.35 214.758 116.681 214.758Z" fill="black"/>
<path d="M130.797 214.758C134.159 214.758 136.434 212.365 136.434 209.28C136.434 206.195 134.159 203.802 130.817 203.802C127.435 203.802 125.181 206.195 125.181 209.28C125.181 212.365 127.455 214.758 130.797 214.758ZM130.797 211.989C129.354 211.989 128.286 210.882 128.286 209.28C128.286 207.698 129.354 206.57 130.797 206.57C132.261 206.57 133.329 207.698 133.329 209.28C133.329 210.862 132.261 211.989 130.797 211.989Z" fill="black"/>
<path d="M138.444 214.501H141.509V208.647C141.509 207.54 142.221 206.65 143.289 206.65C144.337 206.65 144.97 207.421 144.97 208.489V214.501H148.036V207.54C148.036 205.364 146.612 203.802 144.298 203.802C142.894 203.802 141.905 204.494 141.489 205.206H141.331V204.059H138.444V214.501Z" fill="black"/>
<path d="M155.049 214.501H157.165V211.97H155.82C154.91 211.97 154.475 211.495 154.475 210.724V206.452H157.204V204.059H154.475V201.231H151.568V203.149C151.568 203.703 151.271 204.079 150.718 204.079H149.729V206.452H151.41V210.882C151.41 213.176 152.774 214.501 155.049 214.501Z" fill="black"/>
<path d="M159.09 214.501H162.155V209.755C162.155 207.955 163.124 206.867 164.628 206.867H165.834V203.98H164.825C163.421 203.98 162.492 204.87 162.136 205.641H161.977V204.059H159.09V214.501Z" fill="black"/>
<path d="M171.762 214.758C173.483 214.758 174.353 213.789 174.65 213.315H174.808V214.501H177.854V204.059H174.788V205.245H174.63C174.274 204.692 173.325 203.802 171.683 203.802C168.875 203.802 166.937 206.056 166.937 209.339C166.937 212.622 168.895 214.758 171.762 214.758ZM172.455 211.989C171.011 211.989 170.042 210.902 170.042 209.28C170.042 207.678 171.011 206.57 172.435 206.57C173.839 206.57 174.848 207.619 174.848 209.28C174.848 210.823 173.918 211.989 172.455 211.989Z" fill="black"/>
<path d="M185.047 214.758C187.915 214.758 189.952 213.038 190.288 210.565H187.164C186.907 211.396 186.096 211.989 185.067 211.989C183.584 211.989 182.615 210.803 182.615 209.28C182.615 207.777 183.544 206.57 185.047 206.57C186.135 206.57 186.926 207.223 187.203 208.113H190.308C190.012 205.562 187.935 203.802 185.028 203.802C181.666 203.802 179.51 206.195 179.51 209.28C179.51 212.345 181.685 214.758 185.047 214.758Z" fill="black"/>
<path d="M197.095 214.501H199.211V211.97H197.866C196.956 211.97 196.521 211.495 196.521 210.724V206.452H199.25V204.059H196.521V201.231H193.614V203.149C193.614 203.703 193.317 204.079 192.763 204.079H191.774V206.452H193.456V210.882C193.456 213.176 194.82 214.501 197.095 214.501Z" fill="black"/>
<g filter="url(#filter1_d_1456_517016)">
<path d="M452.877 371.033H220.844C216.714 371.033 213.346 367.696 213.346 363.534V69.5425C213.346 65.4127 216.682 62.0442 220.844 62.0442H452.877C457.007 62.0442 460.375 65.3805 460.375 69.5425V363.57C460.375 367.696 457.042 371.033 452.877 371.033Z" fill="white" stroke="#2C71F0" stroke-width="1.25"/>
</g>
<path d="M234.675 157.166H237.303V149.608H237.406L241.993 157.166H245.016V145.142H242.388V152.7H242.285L237.681 145.142H234.675V157.166Z" fill="black"/>
<path d="M251.014 157.389C252.509 157.389 253.265 156.548 253.522 156.135H253.66V157.166H256.305V148.097H253.643V149.127H253.505C253.196 148.646 252.371 147.873 250.946 147.873C248.507 147.873 246.823 149.831 246.823 152.683C246.823 155.534 248.524 157.389 251.014 157.389ZM251.616 154.985C250.362 154.985 249.52 154.04 249.52 152.631C249.52 151.24 250.362 150.278 251.598 150.278C252.818 150.278 253.694 151.188 253.694 152.631C253.694 153.971 252.887 154.985 251.616 154.985Z" fill="black"/>
<path d="M258.259 157.166H260.921V152.064C260.921 151.085 261.505 150.347 262.381 150.347C263.292 150.347 263.79 150.999 263.79 151.927V157.166H266.452V152.082C266.452 151.068 267.036 150.347 267.912 150.347C268.84 150.347 269.286 150.999 269.286 151.996V157.166H271.949V151.068C271.949 149.179 270.626 147.873 268.651 147.873C267.517 147.873 266.658 148.268 266.023 149.11H265.903C265.353 148.337 264.46 147.873 263.274 147.873C262.072 147.873 261.282 148.474 260.904 149.076H260.767V148.097H258.259V157.166Z" fill="black"/>
<path d="M278.014 157.389C280.471 157.389 282.119 156.17 282.532 154.263H280.127C279.869 154.83 279.165 155.345 278.117 155.345C276.863 155.345 276.022 154.521 275.936 153.37H282.618V152.597C282.618 150.072 281.055 147.873 278.066 147.873C275.3 147.873 273.411 149.849 273.411 152.683C273.411 155.414 275.386 157.389 278.014 157.389ZM275.987 151.601C276.108 150.707 276.932 149.9 278.066 149.9C279.251 149.9 280.041 150.639 280.144 151.601H275.987Z" fill="black"/>
<path d="M287.633 157.396L439.748 157.396" stroke="black" stroke-width="1.25"/>
<path d="M237.303 183.337H240.034V173.666H243.401V171.313H233.954V173.666H237.303V183.337Z" fill="black"/>
<path d="M246.313 173.254C247.223 173.254 247.876 172.704 247.876 171.811C247.876 170.918 247.223 170.368 246.313 170.368C245.402 170.368 244.75 170.918 244.75 171.811C244.75 172.704 245.402 173.254 246.313 173.254ZM244.99 183.337H247.653V174.267H244.99V183.337Z" fill="black"/>
<path d="M253.726 183.337H255.564V181.138H254.396C253.605 181.138 253.227 180.726 253.227 180.056V176.346H255.598V174.267H253.227V171.811H250.702V173.477C250.702 173.958 250.445 174.285 249.964 174.285H249.105V176.346H250.565V180.194C250.565 182.186 251.75 183.337 253.726 183.337Z" fill="black"/>
<path d="M260.07 183.337H260.98V181.001H260.654C260.173 181.001 259.898 180.726 259.898 180.176V170.454H257.236V180.486C257.236 182.255 258.249 183.337 260.07 183.337Z" fill="black"/>
<path d="M266.658 183.56C269.114 183.56 270.763 182.341 271.175 180.434H268.771C268.513 181.001 267.809 181.516 266.761 181.516C265.507 181.516 264.665 180.692 264.579 179.541H271.261V178.768C271.261 176.243 269.698 174.044 266.709 174.044C263.944 174.044 262.054 176.02 262.054 178.854C262.054 181.585 264.03 183.56 266.658 183.56ZM264.631 177.772C264.751 176.878 265.576 176.071 266.709 176.071C267.895 176.071 268.685 176.81 268.788 177.772H264.631Z" fill="black"/>
<path d="M276.474 182.925L438.072 182.925" stroke="black" stroke-width="1.25"/>
<path d="M276.199 344.652H277.231L277.743 343.238H280.674L281.186 344.652H282.246L279.827 338.139H278.609L276.199 344.652ZM278.06 342.335L279.176 339.265H279.241L280.358 342.335H278.06Z" fill="black"/>
<path d="M285.046 344.773C286.014 344.773 286.488 344.149 286.619 343.963H286.675V344.652H287.633V337.674H286.656V340.493H286.591C286.433 340.242 285.93 339.665 285 339.665C283.641 339.665 282.683 340.725 282.683 342.233C282.683 343.74 283.651 344.773 285.046 344.773ZM285.186 343.889C284.293 343.889 283.679 343.238 283.679 342.223C283.679 341.247 284.293 340.558 285.177 340.558C286.033 340.558 286.684 341.172 286.684 342.223C286.684 343.145 286.116 343.889 285.186 343.889Z" fill="black"/>
<path d="M291.061 344.773C292.029 344.773 292.503 344.149 292.634 343.963H292.69V344.652H293.648V337.674H292.671V340.493H292.606C292.448 340.242 291.945 339.665 291.015 339.665C289.656 339.665 288.698 340.725 288.698 342.233C288.698 343.74 289.666 344.773 291.061 344.773ZM291.201 343.889C290.308 343.889 289.694 343.238 289.694 342.223C289.694 341.247 290.308 340.558 291.192 340.558C292.048 340.558 292.699 341.172 292.699 342.223C292.699 343.145 292.131 343.889 291.201 343.889Z" fill="black"/>
<path d="M299.602 344.652H300.412V343.824H299.751C299.239 343.824 299.044 343.545 299.044 343.079V340.586H300.458V339.786H299.044V338.409H298.123V339.479C298.123 339.674 298.002 339.795 297.834 339.795H297.192V340.586H298.067V343.107C298.067 344.122 298.644 344.652 299.602 344.652Z" fill="black"/>
<path d="M303.841 344.773C305.33 344.773 306.409 343.675 306.409 342.223C306.409 340.772 305.349 339.665 303.851 339.665C302.353 339.665 301.273 340.763 301.273 342.223C301.273 343.684 302.343 344.773 303.841 344.773ZM303.841 343.889C302.929 343.889 302.269 343.191 302.269 342.223C302.269 341.265 302.92 340.558 303.841 340.558C304.762 340.558 305.414 341.256 305.414 342.223C305.414 343.182 304.762 343.889 303.841 343.889Z" fill="black"/>
<path d="M312.309 344.773C313.453 344.773 314.439 344.084 314.653 342.968H313.658C313.49 343.517 312.951 343.889 312.327 343.889C311.415 343.889 310.783 343.182 310.783 342.223C310.783 341.284 311.388 340.558 312.309 340.558C312.951 340.558 313.481 340.93 313.648 341.488H314.653C314.43 340.372 313.453 339.665 312.299 339.665C310.82 339.665 309.778 340.781 309.778 342.223C309.778 343.656 310.801 344.773 312.309 344.773Z" fill="black"/>
<path d="M318.07 344.773C319.559 344.773 320.638 343.675 320.638 342.223C320.638 340.772 319.577 339.665 318.079 339.665C316.582 339.665 315.502 340.763 315.502 342.223C315.502 343.684 316.572 344.773 318.07 344.773ZM318.07 343.889C317.158 343.889 316.498 343.191 316.498 342.223C316.498 341.265 317.149 340.558 318.07 340.558C318.991 340.558 319.643 341.256 319.643 342.223C319.643 343.182 318.991 343.889 318.07 343.889Z" fill="black"/>
<path d="M321.816 344.652H322.793V341.814C322.793 341.107 323.295 340.577 323.975 340.577C324.589 340.577 325.063 341.033 325.063 341.712V344.652H326.04V341.526C326.04 340.474 325.361 339.665 324.254 339.665C323.528 339.665 323.026 340.037 322.83 340.437H322.765V339.786H321.816V344.652Z" fill="black"/>
<path d="M329.459 344.652H330.269V343.824H329.608C329.096 343.824 328.901 343.545 328.901 343.079V340.586H330.315V339.786H328.901V338.409H327.98V339.479C327.98 339.674 327.859 339.795 327.691 339.795H327.049V340.586H327.924V343.107C327.924 344.122 328.501 344.652 329.459 344.652Z" fill="black"/>
<path d="M331.475 344.652H332.452V342.251C332.452 341.349 332.926 340.725 333.754 340.725H334.21V339.776H333.782C333.094 339.776 332.628 340.242 332.48 340.632H332.414V339.786H331.475V344.652Z" fill="black"/>
<path d="M337.183 344.773C338.15 344.773 338.625 344.149 338.755 343.963H338.811V344.652H339.769V339.786H338.792V340.493H338.727C338.569 340.242 338.067 339.665 337.136 339.665C335.778 339.665 334.819 340.725 334.819 342.233C334.819 343.74 335.787 344.773 337.183 344.773ZM337.322 343.889C336.429 343.889 335.815 343.238 335.815 342.223C335.815 341.247 336.429 340.558 337.313 340.558C338.169 340.558 338.82 341.172 338.82 342.223C338.82 343.145 338.253 343.889 337.322 343.889Z" fill="black"/>
<path d="M343.365 344.773C344.51 344.773 345.496 344.084 345.71 342.968H344.714C344.547 343.517 344.007 343.889 343.384 343.889C342.472 343.889 341.839 343.182 341.839 342.223C341.839 341.284 342.444 340.558 343.365 340.558C344.007 340.558 344.537 340.93 344.705 341.488H345.71C345.487 340.372 344.51 339.665 343.356 339.665C341.876 339.665 340.834 340.781 340.834 342.223C340.834 343.656 341.858 344.773 343.365 344.773Z" fill="black"/>
<path d="M348.913 344.652H349.722V343.824H349.062C348.55 343.824 348.354 343.545 348.354 343.079V340.586H349.769V339.786H348.354V338.409H347.433V339.479C347.433 339.674 347.312 339.795 347.145 339.795H346.503V340.586H347.377V343.107C347.377 344.122 347.954 344.652 348.913 344.652Z" fill="black"/>
<path d="M276.743 332.053H281.811C283.786 332.053 285.572 330.765 285.572 328.532C285.572 326.986 284.61 326.127 283.82 325.766V325.663C284.645 325.165 285.177 324.306 285.177 323.224C285.177 321.403 283.82 320.029 281.45 320.029H276.743V332.053ZM279.337 324.856V322.245H281.106C281.948 322.245 282.515 322.76 282.515 323.499C282.515 324.289 281.982 324.856 281.089 324.856H279.337ZM279.337 329.769V326.814H281.055C281.931 326.814 282.687 327.278 282.687 328.257C282.687 329.288 282.034 329.769 281.089 329.769H279.337Z" fill="black"/>
<path d="M290.936 332.276C292.43 332.276 293.186 331.435 293.443 331.022H293.581V332.053H296.226V322.984H293.564V324.014H293.426C293.117 323.533 292.293 322.76 290.867 322.76C288.428 322.76 286.744 324.718 286.744 327.57C286.744 330.421 288.445 332.276 290.936 332.276ZM291.537 329.872C290.283 329.872 289.441 328.927 289.441 327.518C289.441 326.127 290.283 325.165 291.52 325.165C292.739 325.165 293.615 326.075 293.615 327.518C293.615 328.858 292.808 329.872 291.537 329.872Z" fill="black"/>
<path d="M302.474 332.276C304.965 332.276 306.734 330.782 307.026 328.635H304.312C304.089 329.356 303.384 329.872 302.491 329.872C301.203 329.872 300.361 328.841 300.361 327.518C300.361 326.213 301.169 325.165 302.474 325.165C303.419 325.165 304.106 325.732 304.346 326.505H307.043C306.786 324.289 304.982 322.76 302.457 322.76C299.537 322.76 297.665 324.839 297.665 327.518C297.665 330.181 299.554 332.276 302.474 332.276Z" fill="black"/>
<path d="M317.661 332.053L314.518 326.247L317.438 322.984H314.157L311.58 326.075H311.477V319.17H308.815V332.053H311.477V329.631L312.68 328.291L314.672 332.053H317.661Z" fill="black"/>
<path d="M322.484 336.227C325.731 336.227 327.225 334.32 327.225 331.95V322.984H324.563V324.014H324.425C324.151 323.568 323.309 322.76 321.832 322.76C319.513 322.76 317.744 324.564 317.744 327.467C317.744 330.387 319.547 332.156 321.9 332.156C323.343 332.156 324.133 331.349 324.443 330.902H324.58V331.95C324.58 333.359 323.876 334.08 322.484 334.08C321.316 334.08 320.732 333.565 320.612 332.878H318.173C318.259 334.612 319.667 336.227 322.484 336.227ZM322.536 329.751C321.282 329.751 320.44 328.875 320.44 327.467C320.44 326.075 321.282 325.165 322.519 325.165C323.738 325.165 324.614 326.024 324.614 327.467C324.614 328.807 323.807 329.751 322.536 329.751Z" fill="black"/>
<path d="M329.296 332.053H331.959V327.931C331.959 326.367 332.801 325.423 334.106 325.423H335.154V322.915H334.278C333.058 322.915 332.251 323.688 331.942 324.358H331.804V322.984H329.296V332.053Z" fill="black"/>
<path d="M340.99 332.276C343.91 332.276 345.885 330.198 345.885 327.518C345.885 324.839 343.91 322.76 341.007 322.76C338.07 322.76 336.112 324.839 336.112 327.518C336.112 330.198 338.087 332.276 340.99 332.276ZM340.99 329.872C339.736 329.872 338.808 328.91 338.808 327.518C338.808 326.144 339.736 325.165 340.99 325.165C342.261 325.165 343.188 326.144 343.188 327.518C343.188 328.892 342.261 329.872 340.99 329.872Z" fill="black"/>
<path d="M350.826 332.276C352.045 332.276 352.904 331.658 353.248 331.057H353.385V332.053H355.91V322.984H353.248V328.068C353.248 329.03 352.629 329.803 351.702 329.803C350.791 329.803 350.242 329.15 350.242 328.205V322.984H347.579V329.03C347.579 330.919 348.816 332.276 350.826 332.276Z" fill="black"/>
<path d="M357.997 332.053H360.66V326.969C360.66 326.007 361.278 325.234 362.206 325.234C363.116 325.234 363.666 325.904 363.666 326.831V332.053H366.328V326.007C366.328 324.117 365.092 322.76 363.082 322.76C361.862 322.76 361.003 323.361 360.643 323.98H360.505V322.984H357.997V332.053Z" fill="black"/>
<path d="M371.973 332.276C373.467 332.276 374.223 331.435 374.481 331.022H374.618V332.053H377.263V319.17H374.601V324.014H374.464C374.154 323.533 373.33 322.76 371.904 322.76C369.465 322.76 367.782 324.718 367.782 327.57C367.782 330.421 369.482 332.276 371.973 332.276ZM372.574 329.872C371.32 329.872 370.478 328.927 370.478 327.518C370.478 326.127 371.32 325.165 372.557 325.165C373.776 325.165 374.652 326.075 374.652 327.518C374.652 328.858 373.845 329.872 372.574 329.872Z" fill="black"/>
<path d="M389.52 332.276C392.749 332.276 395.103 330.284 395.618 327.639H392.646C392.2 328.789 391.066 329.665 389.52 329.665C387.442 329.665 386.016 328.137 386.016 326.041C386.016 323.98 387.442 322.417 389.52 322.417C391.066 322.417 392.217 323.31 392.543 324.495H395.498C394.982 321.85 392.784 319.806 389.52 319.806C385.776 319.806 383.199 322.503 383.199 326.041C383.199 329.597 385.758 332.276 389.52 332.276Z" fill="black"/>
<path d="M397.417 332.053H400.08V326.934C400.08 325.99 400.733 325.234 401.66 325.234C402.57 325.234 403.155 325.904 403.155 326.831V332.053H405.817V326.007C405.817 324.117 404.597 322.76 402.588 322.76C401.368 322.76 400.561 323.361 400.2 323.98H400.063V319.17H397.417V332.053Z" fill="black"/>
<path d="M411.872 332.276C414.328 332.276 415.977 331.057 416.39 329.15H413.985C413.727 329.717 413.023 330.232 411.975 330.232C410.721 330.232 409.88 329.408 409.794 328.257H416.476V327.484C416.476 324.959 414.912 322.76 411.924 322.76C409.158 322.76 407.269 324.736 407.269 327.57C407.269 330.301 409.244 332.276 411.872 332.276ZM409.845 326.488C409.965 325.594 410.79 324.787 411.924 324.787C413.109 324.787 413.899 325.526 414.002 326.488H409.845Z" fill="black"/>
<path d="M422.529 332.276C425.019 332.276 426.789 330.782 427.081 328.635H424.367C424.143 329.356 423.439 329.872 422.546 329.872C421.258 329.872 420.416 328.841 420.416 327.518C420.416 326.213 421.223 325.165 422.529 325.165C423.473 325.165 424.161 325.732 424.401 326.505H427.098C426.84 324.289 425.037 322.76 422.512 322.76C419.591 322.76 417.719 324.839 417.719 327.518C417.719 330.181 419.609 332.276 422.529 332.276Z" fill="black"/>
<path d="M437.716 332.053L434.572 326.247L437.492 322.984H434.211L431.635 326.075H431.532V319.17H428.869V332.053H431.532V329.631L432.734 328.291L434.727 332.053H437.716Z" fill="black"/>
<rect x="235.656" y="321.099" width="22.7355" height="22.7355" rx="2.00245" stroke="#2C71F0" stroke-width="1.25"/>
<path d="M238.66 209.73C241.683 209.73 243.384 208.081 243.384 205.848C243.384 200.987 236.994 202.928 236.994 200.798C236.994 200.163 237.544 199.682 238.609 199.682C239.725 199.682 240.343 200.266 240.361 201.09H243.075C242.972 198.548 241.116 197.26 238.609 197.26C235.843 197.26 234.28 198.857 234.28 200.867C234.28 205.814 240.55 203.821 240.55 206.054C240.55 206.81 239.88 207.24 238.746 207.24C237.372 207.24 236.616 206.535 236.565 205.591H233.971C233.954 208.064 235.74 209.73 238.66 209.73Z" fill="black"/>
<path d="M249.197 209.507H251.034V207.308H249.866C249.076 207.308 248.698 206.896 248.698 206.226V202.516H251.069V200.438H248.698V197.981H246.173V199.647C246.173 200.128 245.916 200.455 245.435 200.455H244.576V202.516H246.036V206.364C246.036 208.356 247.221 209.507 249.197 209.507Z" fill="black"/>
<path d="M256.382 209.73C257.877 209.73 258.632 208.889 258.89 208.476H259.028V209.507H261.673V200.438H259.01V201.468H258.873C258.564 200.987 257.739 200.214 256.314 200.214C253.874 200.214 252.191 202.172 252.191 205.024C252.191 207.875 253.892 209.73 256.382 209.73ZM256.983 207.326C255.73 207.326 254.888 206.381 254.888 204.972C254.888 203.581 255.73 202.619 256.966 202.619C258.186 202.619 259.062 203.529 259.062 204.972C259.062 206.312 258.255 207.326 256.983 207.326Z" fill="black"/>
<path d="M263.627 209.507H266.289V205.385C266.289 203.821 267.131 202.877 268.436 202.877H269.484V200.369H268.608C267.388 200.369 266.581 201.142 266.272 201.812H266.134V200.438H263.627V209.507Z" fill="black"/>
<path d="M275.482 209.507H277.32V207.308H276.152C275.362 207.308 274.984 206.896 274.984 206.226V202.516H277.354V200.438H274.984V197.981H272.459V199.647C272.459 200.128 272.201 200.455 271.72 200.455H270.861V202.516H272.321V206.364C272.321 208.356 273.507 209.507 275.482 209.507Z" fill="black"/>
<path d="M283.472 209.507H287.749C291.597 209.507 293.933 207.171 293.933 203.444C293.933 199.939 291.597 197.483 287.749 197.483H283.472V209.507ZM286.186 207.154V199.836H287.629C289.398 199.836 291.098 200.85 291.098 203.444C291.098 206.175 289.381 207.154 287.629 207.154H286.186Z" fill="black"/>
<path d="M299.409 209.73C300.903 209.73 301.659 208.889 301.917 208.476H302.054V209.507H304.699V200.438H302.037V201.468H301.899C301.59 200.987 300.766 200.214 299.34 200.214C296.901 200.214 295.217 202.172 295.217 205.024C295.217 207.875 296.918 209.73 299.409 209.73ZM300.01 207.326C298.756 207.326 297.914 206.381 297.914 204.972C297.914 203.581 298.756 202.619 299.993 202.619C301.212 202.619 302.088 203.529 302.088 204.972C302.088 206.312 301.281 207.326 300.01 207.326Z" fill="black"/>
<path d="M310.775 209.507H312.613V207.308H311.445C310.655 207.308 310.277 206.896 310.277 206.226V202.516H312.648V200.438H310.277V197.981H307.752V199.647C307.752 200.128 307.495 200.455 307.014 200.455H306.155V202.516H307.615V206.364C307.615 208.356 308.8 209.507 310.775 209.507Z" fill="black"/>
<path d="M318.373 209.73C320.83 209.73 322.479 208.511 322.891 206.604H320.486C320.229 207.171 319.524 207.686 318.477 207.686C317.223 207.686 316.381 206.862 316.295 205.711H322.977V204.938C322.977 202.413 321.414 200.214 318.425 200.214C315.659 200.214 313.77 202.19 313.77 205.024C313.77 207.755 315.745 209.73 318.373 209.73ZM316.347 203.942C316.467 203.048 317.291 202.241 318.425 202.241C319.61 202.241 320.4 202.98 320.503 203.942H316.347Z" fill="black"/>
<path d="M326.573 209.096L438.071 209.096" stroke="black" stroke-width="1.25"/>
<circle cx="336.872" cy="101.548" r="20.1055" fill="#2C71F0" stroke="black" stroke-width="1.25"/>
<path d="M334.791 109.802H338.985V103.545H345.042V99.5514H338.985V93.2947H334.791V99.5514H328.701V103.545H334.791V109.802Z" fill="white"/>
<path d="M367.382 298.96L356.953 288.53C356.607 288.185 356.088 288.185 355.743 288.53L354.821 289.452C354.475 289.798 354.475 290.317 354.821 290.662L365.25 301.092C365.596 301.437 366.114 301.437 366.46 301.092L367.382 300.17C367.699 299.853 367.699 299.305 367.382 298.96Z" fill="#2C71F0"/>
<path fill-rule="evenodd" clip-rule="evenodd" d="M350.73 277.842C347.215 277.842 344.363 280.694 344.363 284.209C344.363 287.724 347.215 290.576 350.73 290.576C354.245 290.576 357.097 287.724 357.097 284.209C357.097 280.694 354.245 277.842 350.73 277.842ZM341.683 284.209C341.683 279.225 345.746 275.162 350.73 275.162C355.714 275.162 359.776 279.225 359.776 284.209C359.776 289.193 355.714 293.255 350.73 293.255C345.717 293.255 341.683 289.222 341.683 284.209Z" fill="#2C71F0"/>
<path d="M350.73 274.298C348.771 274.298 346.841 274.875 345.227 275.969C343.585 277.064 342.317 278.591 341.568 280.406C340.819 282.221 340.618 284.209 340.992 286.139C341.367 288.07 342.289 289.827 343.671 291.21C345.054 292.593 346.812 293.544 348.742 293.947C350.672 294.35 352.66 294.149 354.475 293.399C356.29 292.65 357.846 291.412 358.941 289.769C360.036 288.156 360.641 286.226 360.641 284.267C360.641 282.97 360.41 281.674 359.92 280.464C359.431 279.254 358.71 278.159 357.788 277.208C356.867 276.286 355.772 275.537 354.562 275.047C353.323 274.558 352.026 274.298 350.73 274.298ZM354.418 290.979C353.294 291.613 352.026 291.93 350.73 291.93C348.684 291.93 346.754 291.123 345.314 289.683C343.873 288.242 343.038 286.312 343.038 284.295C343.038 283.374 343.211 282.452 343.527 281.587C344.19 279.945 345.4 278.562 346.956 277.698C348.512 276.834 350.327 276.546 352.055 276.862C353.813 277.179 355.397 278.101 356.55 279.455C357.702 280.809 358.365 282.509 358.393 284.295C358.393 285.65 358.019 287.004 357.327 288.185C356.636 289.366 355.599 290.317 354.418 290.979Z" fill="#2C71F0"/>
<path fill-rule="evenodd" clip-rule="evenodd" d="M317.512 258.337L317.541 258.309C317.541 258.28 317.57 258.251 317.599 258.193C317.656 258.078 317.743 257.934 317.858 257.732C318.088 257.329 318.463 256.724 318.924 256.033C319.875 254.621 321.286 252.806 323.13 251.077C326.818 247.678 332.09 244.854 338.947 246.612C343.067 247.764 346.61 250.184 348.944 253.468C351.278 256.724 352.286 260.642 351.796 264.503V264.532C351.71 265.367 351.595 266.26 351.422 267.153C351.393 267.24 351.393 267.326 351.393 267.384H352.718C351.393 267.384 351.393 267.384 351.393 267.384V267.413V267.47C351.393 267.499 351.393 267.557 351.393 267.643C351.393 267.758 351.422 267.931 351.451 268.133C351.508 268.536 351.652 269.084 351.969 269.631C352.286 270.207 352.776 270.783 353.525 271.187C354.274 271.59 355.196 271.734 356.262 271.59C356.982 271.504 357.501 270.841 357.414 270.092C357.328 269.372 356.665 268.853 355.916 268.939C355.282 269.026 354.937 268.911 354.735 268.795C354.533 268.68 354.389 268.536 354.274 268.334C354.159 268.104 354.072 267.874 354.043 267.643C354.015 267.557 354.015 267.499 354.015 267.441C354.188 266.519 354.303 265.598 354.389 264.791C354.965 260.239 353.755 255.687 351.047 251.884C348.339 248.081 344.248 245.315 339.581 244.019H339.552C331.514 241.944 325.32 245.344 321.229 249.118C319.183 250.991 317.656 253.008 316.619 254.534C316.101 255.312 315.726 255.946 315.438 256.407C315.294 256.638 315.207 256.81 315.15 256.954C315.121 257.012 315.092 257.07 315.063 257.099L315.035 257.156C315.035 257.156 315.035 257.156 316.187 257.732L315.035 257.156C314.718 257.819 314.977 258.625 315.64 258.942C316.389 259.259 317.167 259 317.512 258.337Z" fill="black"/>
<path d="M347.013 271.532C346.552 271.532 346.091 271.302 345.861 270.869C344.853 269.083 344.507 267.038 344.91 265.079C345.025 264.042 345.083 262.976 345.054 261.938C344.997 260.325 344.68 258.74 344.075 257.214C343.585 256.032 342.807 254.938 341.77 254.044C340.761 253.151 339.523 252.431 338.169 251.97C336.814 251.538 335.345 251.336 333.933 251.452C332.522 251.567 331.139 251.941 329.871 252.575C328.517 253.382 327.336 254.477 326.443 255.744C325.55 257.012 324.974 258.395 324.714 259.893C324.714 259.922 324.714 259.922 324.714 259.95C323.533 265.338 317.829 265.972 314.976 265.568C314.256 265.453 313.738 264.791 313.853 264.042C313.968 263.321 314.631 262.803 315.351 262.918C315.38 262.918 316.936 263.148 318.578 262.745C320.537 262.284 321.689 261.189 322.093 259.432C322.409 257.559 323.13 255.802 324.253 254.217C325.377 252.633 326.817 251.307 328.517 250.27C328.546 250.241 328.575 250.241 328.604 250.241C330.188 249.435 331.917 248.945 333.703 248.83C335.518 248.686 337.275 248.916 338.975 249.492C340.675 250.069 342.202 250.933 343.527 252.114C344.852 253.295 345.832 254.707 346.495 256.263C347.215 258.107 347.618 259.979 347.676 261.91C347.705 263.091 347.647 264.301 347.503 265.511C347.503 265.54 347.503 265.597 347.474 265.626C347.186 266.98 347.417 268.392 348.108 269.602C348.483 270.236 348.252 271.071 347.618 271.417C347.474 271.475 347.244 271.532 347.013 271.532Z" fill="black"/>
<path fill-rule="evenodd" clip-rule="evenodd" d="M333.415 256.782C332.579 257.099 331.83 257.588 331.254 258.222C330.678 258.827 330.303 259.547 330.102 260.296C329.958 261.967 329.468 263.581 328.661 265.05C327.826 266.548 326.645 267.873 325.233 268.939C323.821 270.005 322.179 270.783 320.422 271.215C318.664 271.648 316.849 271.763 315.034 271.532C314.314 271.446 313.795 270.754 313.882 270.034C313.968 269.314 314.66 268.795 315.38 268.882C316.849 269.083 318.318 268.997 319.759 268.623C321.171 268.277 322.496 267.643 323.62 266.808C324.743 265.972 325.665 264.906 326.328 263.754C326.99 262.572 327.365 261.305 327.451 260.008C327.451 259.922 327.48 259.864 327.48 259.778C327.797 258.51 328.402 257.358 329.295 256.407C330.188 255.456 331.312 254.707 332.579 254.246C332.637 254.218 332.666 254.218 332.723 254.189C333.876 253.901 335.086 253.872 336.238 254.102C337.391 254.333 338.514 254.794 339.465 255.485C340.416 256.177 341.194 257.07 341.712 258.078C342.231 259.115 342.49 260.239 342.461 261.391C342.346 264.186 341.655 266.952 340.387 269.487C340.387 269.516 340.358 269.544 340.329 269.602C340.272 269.689 340.214 269.833 340.128 270.005C339.955 270.322 339.696 270.783 339.321 271.331C338.572 272.397 337.391 273.837 335.604 275.335C332.032 278.303 326.097 281.443 316.59 282.451C315.87 282.538 315.207 281.99 315.121 281.27C315.034 280.55 315.581 279.887 316.302 279.801C325.319 278.85 330.764 275.911 333.905 273.29C335.489 271.965 336.498 270.726 337.131 269.833C337.448 269.372 337.65 269.026 337.765 268.767C337.823 268.651 337.88 268.565 337.909 268.507C337.909 268.478 337.938 268.478 337.938 268.478C337.938 268.478 337.938 268.478 337.938 268.45L333.415 256.782ZM337.938 268.478C337.967 268.45 337.967 268.421 337.967 268.392C339.062 266.174 339.667 263.782 339.782 261.334C339.811 260.642 339.638 259.951 339.321 259.317C339.004 258.683 338.514 258.107 337.88 257.646C337.247 257.185 336.526 256.868 335.72 256.724C334.942 256.58 334.164 256.58 333.386 256.753" fill="black"/>
<path fill-rule="evenodd" clip-rule="evenodd" d="M335.403 258.769C336.123 258.827 336.671 259.489 336.613 260.21C335.864 268.507 330.333 272.713 325.233 274.816C322.669 275.854 320.191 276.401 318.348 276.66C317.426 276.804 316.648 276.862 316.1 276.92C315.841 276.948 315.611 276.948 315.467 276.948C315.38 276.948 315.323 276.948 315.294 276.948H315.236H315.207C315.207 276.948 315.207 276.948 315.179 275.623L315.207 276.948C314.458 276.948 313.853 276.372 313.853 275.623C313.853 274.874 314.429 274.269 315.179 274.269H315.207C315.236 274.269 315.294 274.269 315.351 274.269C315.467 274.269 315.668 274.24 315.899 274.24C316.389 274.211 317.08 274.125 317.944 274.01C319.644 273.75 321.92 273.261 324.225 272.339C328.806 270.466 333.329 266.922 333.963 259.979C334.02 259.23 334.654 258.683 335.403 258.769Z" fill="black"/>
<path fill-rule="evenodd" clip-rule="evenodd" d="M335.806 281.501C335.979 282.221 335.547 282.942 334.827 283.114L318.808 287.148C318.088 287.321 317.368 286.889 317.195 286.168C317.022 285.448 317.454 284.728 318.175 284.555L334.193 280.522C334.884 280.349 335.605 280.781 335.806 281.501Z" fill="black"/>
<path fill-rule="evenodd" clip-rule="evenodd" d="M336.556 286.974C336.729 287.695 336.296 288.415 335.576 288.588L322.122 291.987C321.402 292.16 320.681 291.728 320.508 291.037C320.336 290.316 320.768 289.596 321.488 289.423L334.942 286.024C335.663 285.822 336.383 286.254 336.556 286.974Z" fill="black"/>
<path fill-rule="evenodd" clip-rule="evenodd" d="M329.007 295.445C333.531 294.609 338.198 294.753 342.635 295.848L343.268 293.255C338.457 292.074 333.415 291.93 328.518 292.823L326.213 293.255C325.493 293.399 325.003 294.091 325.147 294.811C325.291 295.531 325.982 296.021 326.703 295.877L329.007 295.445Z" fill="black"/>
<defs>
<filter id="filter0_d_1456_517016" x="0.123597" y="0.49532" width="272.481" height="334.594" filterUnits="userSpaceOnUse" color-interpolation-filters="sRGB">
<feFlood flood-opacity="0" result="BackgroundImageFix"/>
<feColorMatrix in="SourceAlpha" type="matrix" values="0 0 0 0 0 0 0 0 0 0 0 0 0 0 0 0 0 0 127 0" result="hardAlpha"/>
<feOffset dx="1.92041" dy="3.29213"/>
<feGaussianBlur stdDeviation="5.89841"/>
<feComposite in2="hardAlpha" operator="out"/>
<feColorMatrix type="matrix" values="0 0 0 0 0 0 0 0 0 0 0 0 0 0 0 0 0 0 0.25 0"/>
<feBlend mode="normal" in2="BackgroundImageFix" result="effect1_dropShadow_1456_517016"/>
<feBlend mode="normal" in="SourceGraphic" in2="effect1_dropShadow_1456_517016" result="shape"/>
</filter>
<filter id="filter1_d_1456_517016" x="204.122" y="54.0146" width="268.821" height="330.78" filterUnits="userSpaceOnUse" color-interpolation-filters="sRGB">
<feFlood flood-opacity="0" result="BackgroundImageFix"/>
<feColorMatrix in="SourceAlpha" type="matrix" values="0 0 0 0 0 0 0 0 0 0 0 0 0 0 0 0 0 0 127 0" result="hardAlpha"/>
<feOffset dx="1.67201" dy="2.86631"/>
<feGaussianBlur stdDeviation="5.13547"/>
<feComposite in2="hardAlpha" operator="out"/>
<feColorMatrix type="matrix" values="0 0 0 0 0 0 0 0 0 0 0 0 0 0 0 0 0 0 0.25 0"/>
<feBlend mode="normal" in2="BackgroundImageFix" result="effect1_dropShadow_1456_517016"/>
<feBlend mode="normal" in="SourceGraphic" in2="effect1_dropShadow_1456_517016" result="shape"/>
</filter>
</defs>
</svg>
