<svg xmlns="http://www.w3.org/2000/svg" xmlns:xlink="http://www.w3.org/1999/xlink" width="624" zoomAndPan="magnify" viewBox="0 0 468 308.250004" height="411" preserveAspectRatio="xMidYMid meet" version="1.0"><defs><clipPath id="id1"><path d="M 0.566406 0 L 467.429688 0 L 467.429688 307.5 L 0.566406 307.5 Z M 0.566406 0 " clip-rule="nonzero"/></clipPath></defs><g clip-path="url(#id1)"><path fill="rgb(100%, 100%, 100%)" d="M 0.566406 0 L 467.433594 0 L 467.433594 307.5 L 0.566406 307.5 Z M 0.566406 0 " fill-opacity="1" fill-rule="nonzero"/><path fill="rgb(100%, 100%, 100%)" d="M 0.566406 0 L 467.433594 0 L 467.433594 307.5 L 0.566406 307.5 Z M 0.566406 0 " fill-opacity="1" fill-rule="nonzero"/><path fill="rgb(100%, 100%, 100%)" d="M 0.566406 0 L 467.433594 0 L 467.433594 307.5 L 0.566406 307.5 Z M 0.566406 0 " fill-opacity="1" fill-rule="nonzero"/></g><path stroke-linecap="butt" transform="matrix(2.628059, 0, 0, 2.628158, 77.620869, 0.0038108)" fill-opacity="1" fill="rgb(17.248535%, 44.309998%, 94.119263%)" fill-rule="nonzero" stroke-linejoin="round" d="M 57.196817 111.911553 C 56.811849 111.156508 56.541331 110.673458 56.297567 110.23797 C 56.12069 109.918414 55.952731 109.625612 55.783286 109.298624 C 55.5529 108.857191 55.240763 108.469265 54.977677 108.26564 C 54.861741 108.176462 54.754723 108.115523 54.652164 108.087284 C 54.503527 108.054585 54.3757 108.081338 54.280573 108.19727 C 54.225577 108.258209 54.185446 108.332524 54.172068 108.435079 C 54.084373 108.876513 54.198823 109.068246 54.4084 109.414556 C 54.476773 109.523057 54.558523 109.65831 54.638786 109.830722 C 54.794854 110.14136 54.983623 110.903836 55.092127 111.632127 C 55.187254 112.257862 55.227386 112.83009 55.153068 113.026283 C 55.072804 113.237339 54.997 113.347325 54.895927 113.400833 C 54.794854 113.461771 54.646218 113.476634 54.442586 113.490011 C 54.246387 113.495956 53.996678 113.495956 53.697919 113.509333 C 53.25201 113.516765 52.722865 113.530141 52.229392 113.55095 C 51.789429 113.570272 51.099756 113.714443 50.442784 113.842266 C 49.812566 113.973061 49.223966 114.087507 48.987635 114.081561 C 48.926694 114.081561 48.865753 114.081561 48.79738 114.081561 C 48.669553 114.075616 48.561048 114.075616 48.492676 114.053321 C 48.452544 114.047376 48.439167 113.992383 48.479298 113.815512 C 48.540239 113.509333 48.656176 113.339894 48.749816 113.20464 C 48.844944 113.0679 48.919262 112.951968 48.947503 112.775097 C 48.974257 112.58485 48.844944 112.196924 48.68293 111.924929 C 48.614557 111.822374 48.547671 111.728737 48.473353 111.666312 C 48.370794 111.57862 48.256344 111.529572 48.141894 111.55038 C 48.052712 111.563757 47.972449 111.61875 47.911508 111.706442 C 47.768817 111.904121 47.694499 112.067615 47.654367 112.244485 C 47.612749 112.415411 47.606803 112.58485 47.606803 112.801851 L 47.606803 112.849412 C 47.599372 112.99953 47.55924 113.143701 47.484922 113.250715 C 47.437358 113.332462 47.370472 113.387456 47.294667 113.387456 L 47.288722 113.387456 C 47.092522 113.374079 46.49649 113.326517 46.008963 113.250715 C 45.717636 113.210585 45.467927 113.163023 45.366854 113.121407 C 45.25835 113.075331 45.041341 112.870221 44.818387 112.626466 C 44.50625 112.299479 44.1956 111.917498 44.087096 111.740627 C 43.864142 111.386886 43.498496 111.468633 42.909897 111.597942 C 42.692888 111.645503 42.449124 111.700497 42.171174 111.740627 L 42.123611 111.748059 C 41.332865 111.863991 41.251116 111.877367 41.102479 111.666312 C 41.028161 111.556325 40.953843 111.386886 40.879525 111.211502 C 40.750211 110.903836 40.622384 110.605088 40.405375 110.523341 C 40.31768 110.489156 40.23593 110.502533 40.15418 110.529287 C 40.087293 110.563472 40.026352 110.618465 39.978789 110.686835 C 39.938657 110.747774 39.904471 110.816144 39.883662 110.897891 C 39.816775 111.128269 39.809343 111.441879 39.923793 111.740627 C 39.999598 111.938306 40.026352 112.196924 40.018921 112.434733 C 40.005543 112.69335 39.95798 112.925214 39.897039 113.020338 C 39.84353 113.094653 39.782589 113.189777 39.721648 113.284901 C 39.56558 113.537573 39.36938 113.849697 39.25493 113.944821 C 39.220744 113.973061 39.159803 114.013191 39.078053 114.068185 C 38.719839 114.298562 38.110431 114.701352 38.036113 115.196292 C 38.009358 115.393971 37.995981 115.578273 37.982603 115.734335 C 37.975172 115.877021 38.157994 115.945391 38.062867 115.966199 C 37.995981 115.973631 37.426704 116.067268 36.946609 116.040514 C 36.716222 116.019706 36.512591 115.992953 36.424895 115.911206 L 36.411518 115.905261 C 36.100868 115.625835 35.958177 115.502471 35.9448 115.121977 C 35.937368 114.986723 35.910614 114.842551 35.86305 114.714728 C 35.796164 114.536371 35.687659 114.374364 35.573209 114.258432 C 35.436464 114.129123 35.27445 114.060753 35.112437 114.068185 C 35.051496 114.068185 34.9965 114.081561 34.935559 114.10237 C 34.604101 114.258432 34.617478 114.482864 34.638287 114.836605 C 34.645719 114.986723 34.651664 115.156162 34.62491 115.359786 C 34.598155 115.517334 34.584778 115.686773 34.563969 115.83689 C 34.523837 116.21144 34.482219 116.550318 34.436142 116.571126 L 34.375201 116.591935 C 34.333582 116.605311 34.293451 116.618688 34.259264 116.62612 C 34.238455 116.633551 34.219133 116.591935 34.184946 116.367502 C 34.158192 116.21144 34.198323 116.040514 34.23251 115.911206 C 34.259264 115.802705 34.280073 115.707582 34.280073 115.605026 L 34.280073 115.599081 C 34.272642 115.319655 34.131437 115.156162 33.615669 115.17697 C 33.034501 115.184401 32.872488 115.374649 32.722365 115.544088 C 32.676288 115.59165 32.628724 115.646643 32.554406 115.667451 C 32.390906 115.701636 32.175384 115.72839 31.96432 115.66002 C 31.762175 115.599081 31.545166 115.462341 31.37572 115.17697 C 31.192898 114.863359 30.705371 114.292617 30.185144 113.693635 C 29.514794 112.910351 28.790935 112.075046 28.743372 111.829806 C 28.70324 111.645503 28.581358 111.291762 28.438667 110.863706 C 28.141395 109.99273 27.741563 108.815574 27.795072 108.427648 C 27.83669 108.142277 27.911008 107.944598 27.971949 107.767727 C 28.059645 107.529918 28.133963 107.326294 28.133963 107.027546 C 28.133963 106.734744 28.073022 106.510311 27.937763 106.299256 C 27.823313 106.101577 27.646436 105.924706 27.410104 105.692842 C 27.328354 105.618527 27.267413 105.523403 27.227281 105.413417 C 27.172286 105.270731 27.152963 105.1221 27.158909 104.98536 C 27.16634 104.869428 27.193095 104.768359 27.233227 104.726743 L 27.240659 104.719311 C 27.309031 104.686612 27.450236 104.658372 27.619681 104.631619 C 27.977895 104.557303 28.431235 104.475557 28.722562 104.224371 C 28.993081 103.986561 29.223467 103.461895 29.38548 103.087345 C 29.46723 102.910475 29.480608 102.794543 29.501417 102.781166 C 29.568303 102.741036 29.676807 102.617672 29.764503 102.469042 C 29.825444 102.366486 29.880439 102.244609 29.907194 102.122732 C 29.947326 101.972615 29.954757 101.822498 29.893816 101.693189 C 29.85963 101.624819 29.819498 101.571312 29.758557 101.529695 C 29.575735 101.406332 29.169958 101.489565 28.770126 101.672381 L 28.770126 101.666436 C 28.398535 101.835875 28.019513 102.094492 27.842636 102.332301 C 27.747508 102.469042 27.579549 102.611727 27.416049 102.733604 C 27.158909 102.923852 26.9092 103.054647 26.861636 103.066537 C 26.821504 103.073969 26.536123 102.978845 26.273036 102.855481 C 26.111023 102.781166 25.974277 102.699419 25.941577 102.644426 C 25.886582 102.543357 25.84645 102.284739 25.859827 102.081115 L 25.859827 102.073684 C 25.859827 102.039499 25.867259 101.999368 25.873205 101.972615 L 25.899959 101.991937 C 26.137777 102.134622 26.347355 102.189616 26.5168 102.176239 C 26.726377 102.155431 26.875013 102.04693 26.983518 101.856683 L 26.989463 101.843306 C 27.037027 101.754128 27.200527 101.63225 27.383349 101.516319 C 27.579549 101.400387 27.775749 101.31864 27.86939 101.332016 C 28.06559 101.345393 28.221658 101.202708 28.295976 101.01246 C 28.324217 100.951522 28.337594 100.877206 28.34354 100.808836 C 28.350972 100.734521 28.34354 100.658719 28.330163 100.590349 C 28.276654 100.400102 28.14734 100.251471 27.903576 100.224717 C 27.747508 100.209854 27.612249 100.209854 27.484422 100.209854 C 27.309031 100.209854 27.200527 100.291601 27.185663 100.251471 L 27.179718 100.244039 L 27.172286 100.224717 L 27.172286 100.217286 C 27.126209 100.107299 26.996895 99.903675 26.854204 99.747613 C 26.671382 99.549934 26.448427 99.413194 26.23885 99.502372 L 26.231418 99.509804 L 26.218041 99.515749 L 26.212095 99.52318 C 25.989141 99.631681 25.880637 99.911107 25.785509 100.162292 C 25.745378 100.263361 25.711191 100.359971 25.690382 100.386725 C 25.65025 100.434287 25.427296 100.462527 25.183532 100.462527 C 25.014087 100.455095 24.844642 100.42091 24.756946 100.346595 L 24.736137 100.325786 C 24.654387 100.236608 24.627633 100.101354 24.64101 99.958668 C 24.654387 99.80112 24.715328 99.631681 24.823833 99.49494 L 24.850587 99.462242 C 25.027464 99.270508 25.25785 99.114446 25.459996 98.979192 C 25.616064 98.876637 25.758755 98.781513 25.867259 98.678958 C 26.008464 98.549649 26.170477 98.359402 26.286414 98.169154 C 26.400864 97.992284 26.482614 97.807982 26.482614 97.651919 C 26.482614 97.549364 26.469236 97.324932 26.408295 97.121308 C 26.368164 96.991999 26.307223 96.870122 26.218041 96.780943 C 26.111023 96.672443 25.968332 96.617449 25.791455 96.665011 C 25.703759 96.685819 25.602687 96.740813 25.501614 96.82256 C 24.979901 97.223863 24.878828 97.359117 24.675196 97.638542 L 24.580069 97.76042 C 24.519128 97.849598 24.465619 97.93729 24.41211 98.026469 C 24.275365 98.250901 24.140106 98.475334 23.808647 98.372778 C 23.593124 98.31184 23.185861 97.741098 22.604693 96.923629 C 21.894211 95.930775 20.925103 94.576749 19.633453 93.256908 C 17.487145 91.073523 16.986241 91.031906 15.125314 90.883275 C 14.888983 90.862467 14.62441 90.841659 14.298897 90.814905 C 13.283711 90.71235 12.262579 90.698973 11.430216 90.693028 C 10.759867 90.685596 10.224776 90.67222 9.946826 90.64398 C 10.129649 90.542911 10.386789 90.467109 10.651362 90.392794 C 11.077948 90.276862 11.504534 90.154985 11.754243 89.856237 C 11.916257 89.664503 12.032193 89.413317 12.06638 89.175508 C 12.093134 88.998638 12.079757 88.827712 12.024761 88.67165 C 11.963821 88.508156 11.849371 88.372902 11.67398 88.283724 C 11.51048 88.196032 11.287525 88.167792 10.996198 88.209408 C 10.468539 88.283724 9.697117 88.563149 8.878131 88.861897 C 8.045768 89.168077 7.152464 89.487633 6.43455 89.631804 C 5.689883 89.780435 5.562055 89.957306 5.385178 90.195115 C 5.236542 90.406171 5.040342 90.67222 3.87652 91.066091 C 2.752829 91.448072 1.926412 91.651696 1.250117 91.760197 C 1.229307 91.767628 1.209985 91.767628 1.189176 91.767628 C 1.337812 91.039338 1.581575 89.685312 1.737644 88.563149 C 1.893712 87.446933 1.676703 86.583388 1.514689 85.950221 C 1.438885 85.651473 1.371998 85.385424 1.371998 85.208554 C 1.377944 85.025738 1.438885 84.787929 1.499826 84.514448 C 1.649948 83.936275 1.852094 83.133669 1.756966 81.977321 C 1.676703 80.984468 1.438885 80.446425 1.263494 80.058498 C 1.13418 79.773127 1.046485 79.58288 1.046485 79.290078 C 1.046485 78.983898 1.181744 78.827836 1.438885 78.561787 C 1.649948 78.352218 1.88628 78.099545 2.00073 77.719051 C 2.170175 77.106692 1.756966 76.351648 1.324435 75.554987 C 1.120803 75.181924 0.90528 74.786566 0.802721 74.493764 C 0.64814 74.010714 0.985544 72.711681 1.209985 71.854082 C 1.337812 71.371032 1.446316 70.942975 1.49388 70.615988 C 1.655894 69.548819 1.642516 69.140084 1.168367 67.881182 C 0.952844 67.316385 1.027162 67.105329 1.209985 66.602958 C 1.324435 66.255162 1.480503 65.83305 1.568198 65.20137 C 1.825339 63.419287 1.594953 61.1601 1.438885 59.969568 C 1.371998 59.452333 1.446316 59.317079 1.473071 59.282894 C 1.581575 59.153585 2.042348 59.15953 2.495689 59.166962 C 2.630948 59.166962 2.766207 59.172907 2.922275 59.172907 C 4.221356 59.172907 4.857519 59.1194 5.290051 57.881306 C 5.554624 57.111398 5.642319 55.825743 5.716637 54.798704 C 5.737446 54.505902 5.758255 54.241339 5.777578 54.009475 C 5.838519 53.362931 6.082282 53.180115 6.529678 52.866504 C 6.603996 52.812997 6.678314 52.758004 6.760064 52.697065 C 7.402173 52.200639 7.38285 51.852843 7.274345 51.179546 C 7.253536 51.057668 7.232727 50.907551 7.213405 50.730681 C 7.171786 50.431933 7.185164 50.37694 7.876322 50.064815 C 8.146841 49.941451 8.491677 49.791334 8.851377 49.560957 C 9.79819 48.948598 10.001821 47.784819 10.129649 47.008967 C 10.163835 46.805343 10.203967 46.573479 10.238153 46.499164 L 10.27234 46.417417 C 10.508671 45.92099 11.057139 44.737889 9.670363 43.580056 C 9.384981 43.342247 9.331472 43.193616 9.338904 43.172808 C 9.352281 43.077684 9.717926 42.798258 10.475971 42.695703 C 11.849371 42.512887 12.371084 41.539356 12.763484 40.023322 C 13.10832 38.69605 12.613361 38.28137 11.98463 37.90682 C 11.780998 37.784943 11.565475 37.655634 11.375221 37.450524 C 11.091325 37.144345 11.173075 36.307554 11.253339 35.499002 C 11.327657 34.715718 11.409407 33.907167 11.247394 33.192253 C 11.057139 32.342085 10.516103 31.763912 10.028576 31.254108 C 9.567803 30.763627 9.169458 30.341516 9.114463 29.770774 C 9.034199 28.831427 9.419167 28.19826 9.946826 27.334716 C 10.116271 27.062722 10.293149 26.769919 10.468539 26.450363 C 10.685548 26.062437 10.847562 25.729504 10.799998 25.42927 C 10.80743 25.062152 10.847562 23.171569 10.868371 22.606772 C 10.881748 22.049407 10.969444 17.531032 10.990253 16.416302 C 11.794375 15.844073 14.732915 13.639879 15.186255 11.544186 C 15.395832 10.592949 15.314083 9.66698 15.239764 8.776682 C 15.138692 7.517779 15.043564 6.422371 15.782287 5.509778 C 17.209195 3.735127 18.91554 1.918859 20.675394 1.918859 L 21.420061 1.918859 C 22.997092 1.905482 24.486428 1.898051 25.176101 2.278546 C 26.1244 2.795781 26.895822 1.898051 27.463613 1.23813 C 27.64049 1.040452 27.795072 0.850204 27.945195 0.71495 C 28.411913 0.292839 30.036507 0.585641 30.935757 1.65281 C 31.823116 2.694712 33.068688 3.027645 34.063064 3.299639 C 34.341014 3.373954 34.604101 3.442324 34.834487 3.524071 L 35.057441 3.605818 C 36.019118 3.938751 37.116054 4.319246 37.670467 5.714888 C 38.314062 7.360231 41.595952 12.074798 43.18636 11.640796 C 43.991969 11.422309 44.384369 10.694018 44.696505 10.109899 C 44.852573 9.817097 45.048773 9.455924 45.170655 9.455924 C 45.338614 9.455924 45.65075 9.545102 45.989641 9.632795 C 46.997395 9.91222 48.370794 10.292715 49.115462 9.259731 C 49.54948 8.647373 50.827752 7.932459 51.964819 7.884897 C 52.648546 7.858144 53.177692 8.061768 53.535905 8.489824 C 54.876604 10.102468 61.765897 14.035237 63.655064 14.035237 C 64.013277 14.035237 64.466618 14.054559 64.954145 14.075367 C 66.944385 14.164546 69.41472 14.278992 70.39572 13.320323 C 70.78812 12.932397 71.039315 12.354223 71.336587 11.680926 C 71.925187 10.313523 72.669855 8.605756 74.978177 8.006774 C 78.524639 7.088236 79.303493 7.040675 82.111232 7.204168 C 85.387176 7.394416 88.392602 8.21783 90.139078 9.415794 C 92.407268 10.966012 95.127312 11.102753 95.906167 11.028437 C 96.725153 10.952636 97.563461 10.707395 98.159493 9.484164 C 98.511761 8.761818 99.336692 7.905705 99.831651 7.38847 C 99.946101 7.272538 100.041228 7.164038 100.115546 7.088236 C 100.507946 6.66018 102.111732 5.619765 102.789513 5.551394 C 103.662008 5.462216 104.494372 5.041591 105.016085 4.421801 C 105.436726 3.925374 105.848448 3.497318 106.688243 3.347201 C 107.196579 3.258022 107.507229 3.054398 107.716806 2.829966 C 109.219519 4.65961 112.076309 8.510633 112.076309 10.387839 C 112.076309 10.70145 112.076309 11.021006 112.068877 11.334617 C 112.0555 13.687441 112.042122 16.123499 112.935427 18.156768 C 113.741035 19.987898 114.870671 19.85859 115.628716 19.776843 C 115.900721 19.742658 116.163807 19.715904 116.346629 19.782788 C 116.956038 20.00722 117.449511 21.199239 117.178993 22.97389 L 117.131429 23.300878 C 116.847534 25.103768 116.664711 26.294301 117.205747 27.212839 C 117.638279 27.941129 117.599633 28.525248 117.083865 28.953305 C 116.251502 29.64741 112.962181 31.573665 112.223459 31.674733 L 112.007936 31.702973 C 110.905055 31.824851 109.98351 32.138461 108.981701 34.900021 C 108.663619 35.784373 108.440665 36.423486 108.278652 36.906536 C 107.893684 38.028698 107.804502 38.260562 107.398725 38.87292 C 106.836879 39.709711 106.829448 40.18533 106.823502 41.138053 C 106.81607 41.410047 106.81607 41.737035 106.795261 42.138338 C 106.728375 43.74355 106.431102 44.207278 105.509557 45.213508 C 105.233094 45.519687 104.955144 45.689126 104.698003 45.85262 C 104.122781 46.219738 103.519317 46.594287 103.682817 48.07019 C 103.722949 48.44474 103.770513 48.805913 103.825508 49.165599 C 104.000899 50.437878 104.162913 51.635842 103.722949 52.567757 C 103.560936 52.921498 103.202722 53.016622 102.639391 53.14593 C 101.854591 53.330232 100.778464 53.573987 100.589696 55.247569 C 100.528755 55.793044 100.494569 56.350409 100.454437 56.941959 C 100.332555 58.894967 100.204728 60.914859 99.195488 62.213892 C 98.572702 63.023929 97.835466 63.322677 97.178493 63.581295 C 96.454634 63.874097 95.696589 64.180276 95.567276 65.180561 C 95.445394 66.078291 95.33689 66.186791 95.032185 66.492971 C 94.904358 66.616334 94.761667 66.766451 94.586276 66.976021 C 93.942681 67.76525 93.990245 68.337478 94.04524 68.949837 C 94.058617 69.058337 94.064563 69.174269 94.071995 69.303578 C 94.07794 69.520579 94.132936 69.704881 94.173067 69.887697 C 94.308326 70.398987 94.451017 70.922167 93.31395 72.39807 C 91.8915 74.235146 91.736919 76.038037 91.641791 77.112637 C 91.620982 77.331124 91.607605 77.515427 91.588282 77.664057 C 91.527341 77.983613 91.011573 78.384916 90.599851 78.704472 C 90.200019 79.012138 89.834374 79.297509 89.61142 79.643819 C 89.33347 80.073362 89.224965 80.575733 89.320092 81.045407 C 89.421165 81.589395 89.760056 82.0665 90.295147 82.420241 C 90.369465 82.473748 90.396219 82.507933 90.403651 82.507933 C 90.390274 82.678858 89.922069 83.120292 89.699115 83.338779 C 89.571288 83.453225 89.449406 83.569157 89.340902 83.685089 C 89.184833 83.848582 88.961879 83.964514 88.731493 84.086392 C 88.177079 84.365817 87.42498 84.759689 87.42498 86.018591 C 87.42498 86.250455 87.42498 86.446648 87.432412 86.63095 C 87.445789 87.562865 87.451734 87.726358 86.971639 88.201977 C 86.605994 88.555718 86.436548 89.072953 86.274535 89.56938 C 85.977262 90.453732 85.82714 90.706405 85.40204 90.651411 C 84.263486 90.508726 83.398423 89.229015 83.398423 88.745965 C 83.398423 88.14847 82.930218 87.657988 82.389182 87.087246 C 81.983405 86.657703 81.522633 86.174653 81.30711 85.657418 C 80.899846 84.719559 80.690269 84.487695 80.250306 84.031398 C 80.080861 83.848582 79.871283 83.630095 79.593333 83.304594 C 79.43132 83.106915 78.92447 82.515365 78.349248 82.732366 C 77.753216 82.964229 77.610525 83.922898 77.557016 84.725504 C 77.549584 84.949936 77.414325 85.126807 77.164616 85.263547 C 76.717221 85.501356 76.162808 85.461226 76.054303 85.379479 C 75.993362 85.31854 75.850672 85.059923 75.749599 84.868189 C 75.431517 84.263262 75.031686 83.508218 74.4089 83.344724 C 74.125004 83.262977 73.827732 83.323916 73.549782 83.51565 C 72.521219 84.223132 70.416529 86.174653 69.732802 87.317624 C 69.237843 88.14847 69.211088 88.528964 69.231898 89.059576 C 69.237843 89.202262 69.237843 89.358324 69.224466 89.556003 C 69.184334 90.018244 67.498798 91.26377 66.592117 91.937067 C 66.30079 92.155554 66.02284 92.359179 65.759754 92.562803 C 64.561745 93.481341 60.68977 97.229808 60.893402 98.821643 C 61.034606 99.951237 61.272424 101.828443 60.777465 103.482703 C 60.350879 104.924421 58.151062 110.523341 57.448012 112.299479 C 57.326131 112.143416 57.26519 112.03343 57.196817 111.911553 Z M 57.196817 111.911553 " stroke="rgb(100%, 100%, 100%)" stroke-width="0.2" stroke-opacity="1" stroke-miterlimit="10"/></svg>