<svg width="58" height="29" viewBox="0 0 58 29" fill="none" xmlns="http://www.w3.org/2000/svg">
<path d="M17.6623 15.5013L23.1898 0.605225H19.536L17.0065 7.06957L17.5686 0.605225H13.7275L8.20001 15.5013H11.7601L14.477 8.28749L14.0086 15.314L17.6623 15.5013ZM21.9719 15.5013L27.4994 0.605225H24.033L18.4118 15.5013H21.9719ZM31.9963 14.5645L31.8089 7.06957L37.0553 0.979969L31.9963 14.5645ZM57.4789 9.31804L39.6786 13.9087L40.147 12.5034H36.3995L37.6175 8.94329H40.8028L41.7397 6.22639L38.5543 6.41377L39.6786 3.41581H42.7702L43.8007 0.698911H33.7763L30.1226 5.00847L31.9026 0.605225H28.3425L22.815 15.5013H26.4688L28.811 9.13067V15.5013H33.4953L16.7254 19.9046C14.9766 20.4042 13.4151 20.6229 12.0411 20.5604C10.667 20.4979 9.6053 20.1231 8.85581 19.4361C7.16946 18.187 6.57605 16.282 7.07577 13.7213C7.38803 12.0349 8.07503 10.4111 9.13687 8.84961C6.63854 11.4728 4.79602 13.6901 3.60939 15.5013C2.29778 17.4375 1.45461 19.3425 1.07986 21.2162C0.705116 23.0899 0.923686 24.6201 1.73566 25.8068C3.92164 29.4294 8.69964 29.6791 16.0696 26.5563L57.4789 9.31804Z" fill="white"/>
</svg>
