<svg fill="none" height="112" viewBox="0 0 112 112" width="112" xmlns="http://www.w3.org/2000/svg"><circle cx="55.9992" cy="55.0266" fill="#fbe62e" r="52.5266" stroke="#06122c"/><g stroke="#01090f" stroke-width=".757522"><path d="m103.79 12.4159h-91.7968c-1.3438 0-2.39359 1.2781-2.39359 2.8019v66.3608c0 1.573 1.09179 2.8019 2.39359 2.8019h91.7968c1.344 0 2.394-1.2781 2.394-2.8019v-66.3608c0-1.573-1.05-2.8019-2.394-2.8019z" fill="#85ed73" stroke-linecap="round" stroke-linejoin="round"/><path d="m72.7525 84.7277h-24.272v9.8761h24.272z" fill="#85ed73" stroke-linecap="round" stroke-linejoin="round"/><path d="m100.003 12.4159h-91.79689c-1.34378 0-2.39361 1.2781-2.39361 2.8019v66.3608c0 1.573 1.09182 2.8019 2.39361 2.8019h91.79689c1.344 0 2.394-1.2781 2.394-2.8019v-66.3608c0-1.5238-1.092-2.8019-2.394-2.8019z" fill="#00ac6b" stroke-linecap="round" stroke-linejoin="round"/><path d="m23.7043 94.5203h67.1246c.6695 0 1.2973.2511 1.7576.7114s.7114 1.088.7114 1.7576v2.7201h-72.1045v-2.7201c0-.3348.0837-.6696.2092-.9625s.2929-.5859.544-.7951c.2511-.2511.5022-.4185.7951-.544.293-.0837.6278-.1674.9626-.1674z" fill="#00ac6b" stroke-linecap="round" stroke-linejoin="round"/><path d="m97.3292 16.2035h-86.4916c-.7015 0-1.23799.6279-1.23799 1.4491v61.4911c0 .8212.53649 1.4492 1.23799 1.4492h86.5329c.7015 0 1.238-.628 1.238-1.4492v-61.4911c-.0413-.8212-.5778-1.4491-1.2793-1.4491z" fill="#ebf5fe" stroke-linecap="round" stroke-linejoin="round"/><path d="m44.127 88.494v6.068h24.2719v-9.8343z" fill="#00ac6b" stroke-linecap="round" stroke-linejoin="round"/><path d="m44.127 84.7277v3.85l24.2719-3.7245v-.0837h-24.2719z" fill="#01090f" stroke-linecap="round" stroke-linejoin="round"/><rect fill="#fff" height="43.337" rx="3.78761" width="35.3888" x="23.9297" y="28.6122"/><path d="m51.2769 36.11c0-.7292-.2894-1.4285-.8045-1.9446-.5152-.516-1.2141-.8066-1.9432-.8079h-13.1732c-.7299.0003-1.4299.2904-1.946.8065-.5162.5161-.8062 1.2161-.8065 1.946v.9092h18.6734z" fill="#bd80ff" stroke-linecap="round" stroke-linejoin="round"/><path d="m32.6035 37.0192v8.9395c0 .7301.29 1.4303.8061 1.9467.5162.5163 1.2163.8065 1.9464.8068h13.1732c.3615 0 .7195-.0713 1.0535-.2097.334-.1383.6375-.3412.8931-.5969s.4583-.5592.5966-.8932c.1383-.3341.2094-.6921.2093-1.0537v-8.9395z" fill="#fff" stroke-linecap="round" stroke-linejoin="round"/><path d="m34.1934 40.0594h15.2167" stroke-linecap="round" stroke-linejoin="round"/><path d="m34.1934 42.3475h15.2167" stroke-linecap="round" stroke-linejoin="round"/><path d="m34.1934 44.7648h15.2167" stroke-linecap="round" stroke-linejoin="round"/><path d="m47.9766 38.6724v7.4785" stroke-linecap="round" stroke-linejoin="round"/><path d="m44.8906 38.6724v7.4785" stroke-linecap="round" stroke-linejoin="round"/><path d="m41.8047 38.6724v7.4785" stroke-linecap="round" stroke-linejoin="round"/><path d="m38.7168 38.6724v7.4785" stroke-linecap="round" stroke-linejoin="round"/><path d="m35.6309 38.6726v7.4785" stroke-linecap="round" stroke-linejoin="round"/><path d="m35.8004 32.3735h-.0661c-.3656 0-.662.2964-.662.662v1.7686c0 .3656.2964.662.662.662h.0661c.3656 0 .662-.2964.662-.662v-1.7686c0-.3656-.2964-.662-.662-.662z" fill="#cfd8dc" stroke-miterlimit="10"/><path d="m38.8863 32.3735h-.0661c-.3656 0-.662.2964-.662.662v1.7686c0 .3656.2964.662.662.662h.0661c.3656 0 .662-.2964.662-.662v-1.7686c0-.3656-.2964-.662-.662-.662z" fill="#cfd8dc" stroke-miterlimit="10"/><path d="m41.9723 32.3735h-.0661c-.3657 0-.6621.2964-.6621.662v1.7686c0 .3656.2964.662.6621.662h.0661c.3656 0 .662-.2964.662-.662v-1.7686c0-.3656-.2964-.662-.662-.662z" fill="#cfd8dc" stroke-miterlimit="10"/><path d="m45.0601 32.3735h-.0661c-.3656 0-.662.2964-.662.662v1.7686c0 .3656.2964.662.662.662h.0661c.3657 0 .6621-.2964.6621-.662v-1.7686c0-.3656-.2964-.662-.6621-.662z" fill="#cfd8dc" stroke-miterlimit="10"/><path d="m48.1461 32.3735h-.0661c-.3656 0-.662.2964-.662.662v1.7686c0 .3656.2964.662.662.662h.0661c.3656 0 .662-.2964.662-.662v-1.7686c0-.3656-.2964-.662-.662-.662z" fill="#cfd8dc" stroke-miterlimit="10"/><path d="m41.7024 68.9708c3.6628 0 6.632-2.9693 6.632-6.6321s-2.9692-6.632-6.632-6.632-6.6321 2.9692-6.6321 6.632 2.9693 6.6321 6.6321 6.6321z" fill="#fcee70" stroke-linecap="round" stroke-linejoin="round"/><path d="m41.6489 67.5086c2.8264 0 5.1177-2.3147 5.1177-5.1699s-2.2913-5.1699-5.1177-5.1699-5.1177 2.3147-5.1177 5.1699 2.2913 5.1699 5.1177 5.1699z" fill="#f78400" stroke-linecap="round" stroke-linejoin="round"/></g><path d="m41.2665 65.7456v-.7965c-1.0367-.1705-1.5083-.9455-1.5595-1.5552l1.0156-.231c.0362.4317.3306.8192.9632.8192.3742 0 .6325-.1792.6325-.4695 0-.2159-.161-.3573-.4554-.4242l-.655-.1565c-.8247-.2007-1.3312-.7069-1.3312-1.4138 0-.8344.6238-1.4075 1.3898-1.5413v-.7953h.8459v.8268c.3149.0578.6053.2101.8336.437.2282.2269.3838.5179.4465.8354l-1.0218.2753c-.0449-.2298-.1697-.6173-.7486-.6173-.4117 0-.6175.2524-.6175.4834 0 .2007.1472.3573.4341.4242l.64.1414c.9856.2234 1.3724.804 1.3724 1.4743s-.4853 1.3255-1.3387 1.4807v.8117z" fill="#01090f"/><path clip-rule="evenodd" d="m30.1671 53.0242h-.8155v-.8394h.8155zm2.4465 0h-.8155v-.8394h.8155zm2.4465 0h-.8155v-.8394h.8155zm2.4465 0h-.8155v-.8394h.8155zm2.4465 0h-.8155v-.8394h.8155zm2.4465 0h-.8155v-.8394h.8155zm2.4465 0h-.8155v-.8394h.8155zm2.4465 0h-.8155v-.8394h.8155zm2.4465 0h-.8155v-.8394h.8155zm2.4465 0h-.8155v-.8394h.8155zm2.0388 0h-.4078v-.8394h.4078c.2318 0 .4197.1879.4197.4197s-.1879.4197-.4197.4197z" fill="#01090f" fill-rule="evenodd"/><rect fill="#fff" height="43.337" rx="3.78761" stroke="#01090f" stroke-width=".757522" width="35.3888" x="44.3984" y="25.0442"/><path d="m49.6484 44.3271h24.08" stroke="#01090f" stroke-linecap="round" stroke-linejoin="round" stroke-width=".757522"/><path d="m49.6484 50.3075h24.08" stroke="#01090f" stroke-linecap="round" stroke-linejoin="round" stroke-width=".757522"/><path d="m49.6484 56.2883h24.08" stroke="#01090f" stroke-linecap="round" stroke-linejoin="round" stroke-width=".757522"/><path d="m65.4225 60.901c-.0848.1433-.1659.2886-.2414.4357-.2621.5054-.4752 1.1127-.2452 1.6332.2924.6601 1.1863.8544 1.8728.6262s1.2202-.7544 1.7691-1.224c.5488-.4696 1.041-.9166 1.7633-.9241.7544 0 1.3447.5073 1.9331.9807.5884.4733 1.1976 1.1014 2.1727 1.1014" stroke="#01090f" stroke-linecap="round" stroke-linejoin="round" stroke-width=".757522"/><path d="m58.9191 40.1782c-.2166-.8488-.6675-1.6196-1.301-2.2245-.6336-.6049-1.4244-1.0196-2.2823-1.1967.2523-.0931.4908-.22.7091-.3772 0 0 .017-.015.0321-.0226.3849-.2799.6982-.647.9142-1.0711s.3286-.8933.3286-1.3693c0-.8043-.3195-1.5757-.8882-2.1444s-1.3401-.8882-2.1444-.8882c-.3757-.0005-.7481.0699-1.0977.2074-.5702.2214-1.0601.61-1.4054 1.1149s-.53 1.1024-.5296 1.7141c.0006.5803.1678 1.1483.4817 1.6364.314.4881.7614.8758 1.2893 1.1171.0698.032.1395.0622.2112.0886-.3314.0719-.6543.1781-.9637.3169-.7064.3077-1.3241.7882-1.796 1.3973-.472.609-.7831 1.3271-.9047 2.0879h9.4298c-.0264-.1376-.0528-.2621-.083-.3866z" fill="#7fdfb3" stroke="#01090f" stroke-linecap="round" stroke-linejoin="round" stroke-width=".757522"/><path d="m62.6699 32.3462h11.2687" stroke="#01090f" stroke-linecap="round" stroke-linejoin="round" stroke-width=".757522"/><path d="m62.6699 38.326h11.2687" stroke="#01090f" stroke-linecap="round" stroke-linejoin="round" stroke-width=".757522"/><path d="m90.374 28.2413-15.1201 23.9617 2.4212 1.3437 15.12-23.9617z" fill="#ffc664" stroke="#01090f" stroke-linecap="round" stroke-linejoin="round" stroke-width=".757522"/><path d="m92.7997 29.6045-15.12 23.9617 2.6024 1.4442 15.12-23.9617z" fill="#fcee70" stroke="#01090f" stroke-linecap="round" stroke-linejoin="round" stroke-width=".757522"/><path d="m95.3973 31.0274-15.119 23.9625 2.6154 1.453 15.1209-23.963-.0019.0005z" fill="#ffc664" stroke="#01090f" stroke-linecap="round" stroke-linejoin="round" stroke-width=".757522"/><path d="m100.12 29.1405.783-1.2416c2.517-3.9889-5.1232-8.2275-7.6387-4.2409l-.785 1.2439 7.6387 4.2391z" fill="#ffa9c6" stroke="#01090f" stroke-linecap="round" stroke-linejoin="round" stroke-width=".757522"/><path d="m75.2791 60.3323 3.1669-1.617-3.1768-1.7615z" fill="#01090f" stroke="#01090f" stroke-linecap="round" stroke-linejoin="round" stroke-width=".757522"/><path d="m80.2771 54.9901-2.6026-1.4429-2.4203-1.3432.0147 4.7494 3.1768 1.7615 4.4491-2.2705z" fill="#fcee70" stroke="#01090f" stroke-linecap="round" stroke-linejoin="round" stroke-width=".757522"/><path d="m91.4338 26.562-1.0568 1.6772.0005.0019.0014-.0023 2.4204 1.3432 2.6011 1.4451 2.6173 1.4526 1.0567-1.6773z" fill="#cfd8dc" stroke="#01090f" stroke-linecap="round" stroke-linejoin="round" stroke-width=".757522"/><path d="m100.124 29.1405-7.6388-4.2391-.0024-.0014-1.0485 1.6617 7.6407 4.2404z" fill="#cfd8dc" stroke="#01090f" stroke-linecap="round" stroke-linejoin="round" stroke-width=".757522"/></svg>