<svg width="412" height="280" viewBox="0 0 412 280" fill="none" xmlns="http://www.w3.org/2000/svg">
<rect width="412" height="280" rx="16" fill="#00A35A"/>
<mask id="path-2-inside-1_2183_4872" fill="white">
<path fill-rule="evenodd" clip-rule="evenodd" d="M289.584 76.2534H174.57V96.4164H174.852V202.211C174.852 211.554 182.422 219.129 191.76 219.129H272.619C281.957 219.129 289.527 211.554 289.527 202.211V96.4164H289.584V76.2534Z"/>
</mask>
<path fill-rule="evenodd" clip-rule="evenodd" d="M289.584 76.2534H174.57V96.4164H174.852V202.211C174.852 211.554 182.422 219.129 191.76 219.129H272.619C281.957 219.129 289.527 211.554 289.527 202.211V96.4164H289.584V76.2534Z" fill="black"/>
<path d="M174.57 76.2534V75.5822H173.899V76.2534H174.57ZM289.584 76.2534H290.256V75.5822H289.584V76.2534ZM174.57 96.4164H173.899V97.0876H174.57V96.4164ZM174.852 96.4164H175.523V95.7452H174.852V96.4164ZM289.527 96.4164V95.7452H288.856V96.4164H289.527ZM289.584 96.4164V97.0876H290.256V96.4164H289.584ZM174.57 76.9246H289.584V75.5822H174.57V76.9246ZM175.242 96.4164V76.2534H173.899V96.4164H175.242ZM174.852 95.7452H174.57V97.0876H174.852V95.7452ZM174.18 96.4164V202.211H175.523V96.4164H174.18ZM174.18 202.211C174.18 211.925 182.051 219.8 191.76 219.8V218.458C182.793 218.458 175.523 211.184 175.523 202.211H174.18ZM191.76 219.8H272.619V218.458H191.76V219.8ZM272.619 219.8C282.328 219.8 290.199 211.925 290.199 202.211H288.856C288.856 211.184 281.586 218.458 272.619 218.458V219.8ZM290.199 202.211V96.4164H288.856V202.211H290.199ZM289.584 95.7452H289.527V97.0876H289.584V95.7452ZM288.913 76.2534V96.4164H290.256V76.2534H288.913Z" fill="black" mask="url(#path-2-inside-1_2183_4872)"/>
<path d="M268.361 79.3779H187.502C178.164 79.3779 170.594 86.9524 170.594 96.2959V202.211C170.594 211.554 178.164 219.129 187.502 219.129H268.361C277.7 219.129 285.27 211.554 285.27 202.211V96.2959C285.27 86.9524 277.7 79.3779 268.361 79.3779Z" fill="white" stroke="black" stroke-width="0.671188" stroke-linecap="round" stroke-linejoin="round"/>
<path d="M191.234 137.555H246.7" stroke="black" stroke-width="0.671188" stroke-linecap="round" stroke-linejoin="round"/>
<path d="M191.234 159.059H246.7" stroke="black" stroke-width="0.671188" stroke-linecap="round" stroke-linejoin="round"/>
<path d="M191.234 180.564H246.7" stroke="black" stroke-width="0.671188" stroke-linecap="round" stroke-linejoin="round"/>
<path d="M191.234 201.34H246.7" stroke="black" stroke-width="0.671188" stroke-linecap="round" stroke-linejoin="round"/>
<rect x="170.648" y="76.589" width="114.343" height="19.4918" rx="1.23365" fill="#F78400" stroke="black" stroke-width="0.671188"/>
<path d="M260.979 136.746C260.965 133.666 263.454 131.155 266.535 131.141C269.615 131.127 272.126 133.616 272.14 136.696C272.153 139.777 269.664 142.288 266.584 142.302C263.504 142.315 260.993 139.826 260.979 136.746Z" fill="#FBE62E" stroke="black" stroke-width="0.671188"/>
<path d="M268.845 134.516L265.382 138.01L264.265 136.903C264.154 136.792 264.003 136.731 263.847 136.731C263.69 136.732 263.54 136.795 263.43 136.906C263.201 137.138 263.202 137.511 263.434 137.74L264.973 139.266C265.205 139.496 265.578 139.494 265.807 139.262L269.689 135.346C269.918 135.115 269.917 134.742 269.685 134.512C269.453 134.282 269.075 134.284 268.845 134.516Z" fill="#000900"/>
<path d="M260.979 156.625C260.965 153.545 263.454 151.033 266.535 151.02C269.615 151.006 272.126 153.495 272.14 156.575C272.153 159.656 269.664 162.167 266.584 162.18C263.504 162.194 260.993 159.705 260.979 156.625Z" fill="#FBE62E" stroke="black" stroke-width="0.671188"/>
<path d="M268.845 154.395L265.382 157.889L264.265 156.782C264.154 156.672 264.003 156.61 263.847 156.611C263.69 156.612 263.54 156.674 263.43 156.786C263.201 157.017 263.202 157.39 263.434 157.62L264.973 159.145C265.205 159.375 265.578 159.373 265.807 159.142L269.689 155.226C269.918 154.994 269.917 154.621 269.685 154.392C269.453 154.162 269.075 154.163 268.845 154.395Z" fill="#000900"/>
<path d="M195.871 114.301C200.207 124.137 202.198 124.137 201.828 114.301C201.458 104.465 203.432 104.465 207.785 114.301C212.12 124.137 214.111 124.137 213.741 114.301C213.371 104.465 215.345 104.465 219.698 114.301C224.033 124.137 226.024 124.137 225.654 114.301C225.284 104.465 227.258 104.465 231.611 114.301C235.946 124.137 237.938 124.137 237.567 114.301C237.197 104.465 239.171 104.465 243.524 114.301" stroke="#000900" stroke-width="0.671188"/>
<path d="M260.979 177.924C260.965 174.843 263.454 172.332 266.535 172.319C269.615 172.305 272.126 174.794 272.14 177.874C272.153 180.954 269.664 183.466 266.584 183.479C263.504 183.493 260.993 181.004 260.979 177.924Z" stroke="black" stroke-width="0.671188"/>
<path d="M115.032 77.4101L156.391 193.948L167.478 189.138L126.119 72.6002L115.032 77.4101Z" fill="#FFA9C6" stroke="#000900" stroke-width="0.671188" stroke-linecap="round" stroke-linejoin="round"/>
<path d="M126.06 72.4957L167.418 189.033L179.335 183.863L137.976 67.3258L126.06 72.4957Z" fill="#2C71F0" stroke="#000900" stroke-width="0.671188" stroke-linecap="round" stroke-linejoin="round"/>
<path d="M138.029 67.4282L179.393 183.964L191.375 178.773L150.014 62.2288L150.011 62.2367L138.029 67.4282Z" fill="#FFA9C6" stroke="#000900" stroke-width="0.671188" stroke-linecap="round" stroke-linejoin="round"/>
<path d="M144.249 45.9931L142.106 39.9544C135.221 20.5546 100.24 35.7366 107.121 55.1252L109.268 61.1752L126.757 53.5881L144.245 46.001L144.249 45.9931Z" fill="#F78400" stroke="black" stroke-width="0.671188" stroke-linecap="round" stroke-linejoin="round"/>
<path d="M184.244 215.599L187.211 200.285L172.669 206.6L184.244 215.599Z" fill="#000900" stroke="#000900" stroke-width="0.671188" stroke-linecap="round" stroke-linejoin="round"/>
<path d="M179.392 183.97L167.479 189.144L156.396 193.952L172.671 206.599L187.213 200.284L191.384 178.774L179.392 183.97Z" fill="#FBE62E" stroke="black" stroke-width="0.671188" stroke-linecap="round" stroke-linejoin="round"/>
<path d="M112.129 69.255L115.029 77.4066L115.036 77.4099L115.032 77.3987L126.115 72.5905L138.032 67.4272L150.016 62.2278L147.117 54.0762L112.129 69.255Z" fill="#CFD8DC" stroke="#000900" stroke-width="0.671188" stroke-linecap="round" stroke-linejoin="round"/>
<path d="M144.249 45.9954L109.272 61.1695L109.261 61.1743L112.129 69.2556L147.117 54.0768L144.249 45.9954Z" fill="#CFD8DC" stroke="#000900" stroke-width="0.671188" stroke-linecap="round" stroke-linejoin="round"/>
<mask id="mask0_2183_4872" style="mask-type:alpha" maskUnits="userSpaceOnUse" x="248" y="36" width="71" height="71">
<path d="M318.048 71.5196C318.048 90.5877 302.59 106.046 283.522 106.046C264.454 106.046 248.996 90.5877 248.996 71.5196C248.996 52.4514 264.454 36.9937 283.522 36.9937C302.59 36.9937 318.048 52.4514 318.048 71.5196Z" fill="white"/>
</mask>
<g mask="url(#mask0_2183_4872)">
<path d="M317.81 71.0458C317.81 90.3751 302.141 106.045 282.811 106.045C263.482 106.045 247.812 90.3751 247.812 71.0458C247.812 51.7164 263.482 36.0469 282.811 36.0469C302.141 36.0469 317.81 51.7164 317.81 71.0458Z" fill="white"/>
<mask id="path-26-inside-2_2183_4872" fill="white">
<path fill-rule="evenodd" clip-rule="evenodd" d="M289.613 78.4854C295.975 75.767 300.434 69.4523 300.434 62.0962C300.434 52.2576 292.458 44.2817 282.619 44.2817C272.781 44.2817 264.805 52.2576 264.805 62.0962C264.805 69.4517 269.263 75.766 275.624 78.4848C261.208 81.6782 250.426 94.5371 250.426 109.914C250.426 127.693 264.838 142.105 282.617 142.105C300.396 142.105 314.808 127.693 314.808 109.914C314.808 94.5381 304.028 81.6799 289.613 78.4854Z"/>
</mask>
<path fill-rule="evenodd" clip-rule="evenodd" d="M289.613 78.4854C295.975 75.767 300.434 69.4523 300.434 62.0962C300.434 52.2576 292.458 44.2817 282.619 44.2817C272.781 44.2817 264.805 52.2576 264.805 62.0962C264.805 69.4517 269.263 75.766 275.624 78.4848C261.208 81.6782 250.426 94.5371 250.426 109.914C250.426 127.693 264.838 142.105 282.617 142.105C300.396 142.105 314.808 127.693 314.808 109.914C314.808 94.5381 304.028 81.6799 289.613 78.4854Z" fill="#FBE62E"/>
<path d="M289.613 78.4854L289.349 77.8682L287.429 78.6888L289.468 79.1407L289.613 78.4854ZM275.624 78.4848L275.769 79.1401L277.808 78.6884L275.888 77.8676L275.624 78.4848ZM299.763 62.0962C299.763 69.1741 295.473 75.2516 289.349 77.8682L289.877 79.1026C296.477 76.2823 301.105 69.7305 301.105 62.0962L299.763 62.0962ZM282.619 44.9529C292.087 44.9529 299.763 52.6282 299.763 62.0962L301.105 62.0962C301.105 51.8869 292.829 43.6105 282.619 43.6105L282.619 44.9529ZM265.476 62.0962C265.476 52.6282 273.151 44.9529 282.619 44.9529L282.619 43.6105C272.41 43.6105 264.134 51.8869 264.134 62.0962L265.476 62.0962ZM275.888 77.8676C269.765 75.2507 265.476 69.1736 265.476 62.0962L264.134 62.0962C264.134 69.7299 268.76 76.2814 275.36 79.102L275.888 77.8676ZM275.479 77.8295C260.762 81.0895 249.755 94.2156 249.755 109.914L251.097 109.914C251.097 94.8585 261.654 82.2669 275.769 79.1401L275.479 77.8295ZM249.755 109.914C249.755 128.064 264.468 142.776 282.617 142.776L282.617 141.434C265.209 141.434 251.097 127.322 251.097 109.914L249.755 109.914ZM282.617 142.776C300.766 142.776 315.479 128.064 315.479 109.914L314.137 109.914C314.137 127.322 300.025 141.434 282.617 141.434L282.617 142.776ZM315.479 109.914C315.479 94.2167 304.474 81.0912 289.758 77.8301L289.468 79.1407C303.582 82.2685 314.137 94.8595 314.137 109.914L315.479 109.914Z" fill="black" mask="url(#path-26-inside-2_2183_4872)"/>
<path d="M268.712 62.5655C268.712 76.1608 277.304 78.1121 278.242 78.4245C274.405 79.959 265.007 71.9029 265.118 62.0966C265.118 52.4305 272.954 44.5947 282.62 44.5947C282.464 44.751 269.494 46.9387 268.712 62.5655Z" fill="black"/>
<path d="M259.646 114.602C260.896 124.134 269.959 139.521 282.617 142.105C264.838 142.105 250.426 127.693 250.426 109.914C250.426 92.1353 265.893 78.4238 278.238 78.4238C258.705 85.9247 258.395 105.07 259.646 114.602Z" fill="black"/>
<circle cx="283.522" cy="71.5196" r="34.1903" stroke="black" stroke-width="0.671188"/>
</g>
<rect x="16" y="214" width="48" height="48" rx="12" fill="white"/>
<path d="M32.0766 241.606C32.0766 243.186 30.7857 244.477 29.2053 244.477C27.625 244.477 26.334 243.186 26.334 241.606C26.334 240.025 27.625 238.734 29.2053 238.734H32.0766V241.606Z" fill="#E01E5A"/>
<path d="M33.5234 241.606C33.5234 240.025 34.8144 238.734 36.3948 238.734C37.9751 238.734 39.2661 240.025 39.2661 241.606V248.795C39.2661 250.376 37.9751 251.666 36.3948 251.666C34.8144 251.666 33.5234 250.376 33.5234 248.795V241.606Z" fill="#E01E5A"/>
<path d="M36.3948 230.076C34.8144 230.076 33.5234 228.785 33.5234 227.205C33.5234 225.624 34.8144 224.333 36.3948 224.333C37.9751 224.333 39.2661 225.624 39.2661 227.205V230.076H36.3948Z" fill="#36C5F0"/>
<path d="M36.3948 231.523C37.9751 231.523 39.2661 232.814 39.2661 234.394C39.2661 235.975 37.9751 237.266 36.3948 237.266H29.2053C27.625 237.266 26.334 235.975 26.334 234.394C26.334 232.814 27.625 231.523 29.2053 231.523H36.3948Z" fill="#36C5F0"/>
<path d="M47.9238 234.394C47.9238 232.814 49.2148 231.523 50.7952 231.523C52.3755 231.523 53.6665 232.814 53.6665 234.394C53.6665 235.975 52.3755 237.266 50.7952 237.266H47.9238V234.394Z" fill="#2EB67D"/>
<path d="M46.477 234.394C46.477 235.975 45.186 237.266 43.6057 237.266C42.0254 237.266 40.7344 235.975 40.7344 234.394V227.205C40.7344 225.624 42.0254 224.333 43.6057 224.333C45.186 224.333 46.477 225.624 46.477 227.205V234.394Z" fill="#2EB67D"/>
<path d="M43.6057 245.924C45.186 245.924 46.477 247.215 46.477 248.795C46.477 250.376 45.186 251.666 43.6057 251.666C42.0254 251.666 40.7344 250.376 40.7344 248.795V245.924H43.6057Z" fill="#ECB22E"/>
<path d="M43.6057 244.477C42.0254 244.477 40.7344 243.186 40.7344 241.606C40.7344 240.025 42.0254 238.734 43.6057 238.734H50.7952C52.3755 238.734 53.6665 240.025 53.6665 241.606C53.6665 243.186 52.3755 244.477 50.7952 244.477H43.6057Z" fill="#ECB22E"/>
<rect x="15.5" y="213.5" width="49" height="49" rx="12.5" stroke="#081531" stroke-opacity="0.2"/>
</svg>
