<svg width="412" height="280" viewBox="0 0 412 280" fill="none" xmlns="http://www.w3.org/2000/svg">
<rect width="412" height="280" rx="16" fill="#FFA949"/>
<path d="M303.969 33.7373L306.403 36.2851L296.763 154.327L292.654 156.847C292.189 157.157 290.472 156.439 290.529 155.89L303.969 33.7373Z" fill="black"/>
<path d="M173.396 38.8613H303.644L294.06 154.511C293.933 156.101 292.512 157.396 290.922 157.396H160.759C159.408 157.396 158.38 156.284 158.493 154.933L167.683 44.1117C167.922 41.2261 170.483 38.8613 173.396 38.8613Z" fill="#FBE62E" stroke="black" stroke-width="0.671915"/>
<path d="M189.512 56.6816H276.625C281.41 56.6816 284.956 60.5385 284.562 65.3103C284.168 70.068 279.975 73.9389 275.19 73.9389H188.077C183.292 73.9389 179.745 70.0821 180.139 65.3103C180.533 60.5385 184.727 56.6816 189.512 56.6816Z" fill="#F78400" stroke="black" stroke-width="0.671915"/>
<path d="M290.092 85.552L281.254 75.9521L283.126 74.2207L291.964 83.8206C292.4 84.2992 292.33 85.0734 291.823 85.552C291.316 86.0306 290.556 86.0306 290.092 85.552Z" fill="white" stroke="black" stroke-width="0.671915" stroke-miterlimit="10"/>
<path d="M281.719 76.4305L283.632 74.7695L283.506 78.373L281.719 76.4305Z" fill="black"/>
<path d="M272.809 76.8526C266.068 76.8526 261.001 71.5037 261.325 64.8457C261.311 64.9865 261.283 65.1272 261.269 65.2961C260.706 72.1653 265.843 77.7535 272.738 77.7535C279.634 77.7535 285.7 72.1653 286.277 65.2961C286.291 65.1554 286.305 65.0146 286.291 64.8457C285.503 71.5178 279.55 76.8526 272.809 76.8526Z" fill="black" stroke="black" stroke-width="0.671915" stroke-miterlimit="10"/>
<path d="M272.74 77.7394C279.65 77.7394 285.702 72.1653 286.279 65.2821C286.856 58.3988 281.719 52.8247 274.809 52.8247C267.899 52.8247 261.848 58.3988 261.271 65.2821C260.694 72.1653 265.83 77.7394 272.74 77.7394Z" stroke="black" stroke-width="0.671915" stroke-miterlimit="10"/>
<path d="M292.106 89.0149L287.335 83.8349C287.025 83.5111 287.082 82.9762 287.433 82.6384L289.291 80.9352C289.643 80.6114 290.178 80.6114 290.487 80.9352L295.258 86.1152C295.99 86.9175 295.891 88.2125 295.019 89.0149C294.16 89.8172 292.838 89.8172 292.106 89.0149Z" fill="#2C71F0" stroke="black" stroke-width="0.671915" stroke-miterlimit="10"/>
<path d="M187.68 65.1692C191.142 73.0236 192.732 73.0236 192.436 65.1692C192.141 57.3147 193.717 57.3147 197.193 65.1692C200.655 73.0236 202.245 73.0236 201.95 65.1692C201.654 57.3147 203.231 57.3147 206.707 65.1692C210.169 73.0236 211.759 73.0236 211.463 65.1692C211.168 57.3147 212.744 57.3147 216.22 65.1692C219.682 73.0236 221.272 73.0236 220.977 65.1692C220.681 57.3147 222.258 57.3147 225.734 65.1692" stroke="#000900" stroke-width="0.671915"/>
<path d="M184.095 94.8418H278.526C281.439 94.8418 283.564 97.1925 283.282 100.092L279.792 135.254C279.511 138.154 276.907 140.505 273.994 140.505H179.563C176.65 140.505 174.525 138.154 174.806 135.254L178.296 100.092C178.578 97.1925 181.181 94.8418 184.095 94.8418Z" fill="white" stroke="black" stroke-width="0.671915"/>
<rect x="271.742" y="132.595" width="3.79976" height="3.80055" rx="1.89988" fill="#F78400"/>
<path d="M193.142 121.615C193.916 121.277 194.718 121.023 195.52 120.854C195.352 120.784 195.197 120.728 195.028 120.643C193.818 120.066 192.847 119.151 192.199 117.997C191.566 116.843 191.299 115.491 191.439 114.112C191.58 112.662 192.171 111.24 193.114 110.044C194.057 108.848 195.323 107.918 196.731 107.398C197.603 107.074 198.504 106.905 199.405 106.905C201.333 106.905 203.092 107.665 204.316 109.016C205.541 110.368 206.118 112.198 205.935 114.112C205.822 115.238 205.442 116.35 204.823 117.364C204.204 118.377 203.373 119.25 202.388 119.911L202.276 119.954H202.304C201.741 120.334 201.136 120.629 200.516 120.854C204.316 121.685 207.173 124.388 208.088 127.921C210.987 125.19 212.816 121.544 213.182 117.772C213.379 115.829 213.182 113.915 212.619 112.127C212.056 110.34 211.114 108.721 209.875 107.341C208.637 105.976 207.103 104.892 205.372 104.146C203.641 103.4 201.755 103.02 199.799 103.02C195.858 103.02 191.932 104.568 188.878 107.341C185.824 110.1 183.882 113.859 183.488 117.758C183.108 121.516 184.206 125.134 186.528 127.864C187.189 126.471 188.118 125.204 189.244 124.134C190.398 123.078 191.707 122.206 193.142 121.615Z" fill="#FFA9C6" stroke="black" stroke-width="0.671915" stroke-miterlimit="10" stroke-linejoin="round"/>
<path d="M200.531 120.869C201.164 120.644 201.755 120.349 202.318 119.968H202.29L202.403 119.926C203.388 119.265 204.218 118.392 204.837 117.378C205.457 116.365 205.837 115.253 205.949 114.127C206.146 112.213 205.555 110.383 204.331 109.031C203.106 107.68 201.347 106.92 199.419 106.92C198.518 106.92 197.618 107.089 196.745 107.413C195.324 107.933 194.071 108.862 193.128 110.059C192.186 111.255 191.594 112.677 191.454 114.127C191.313 115.506 191.58 116.858 192.214 118.012C192.847 119.166 193.832 120.095 195.042 120.658C195.197 120.729 195.366 120.799 195.535 120.869C194.719 121.038 193.931 121.292 193.157 121.629C191.735 122.221 190.412 123.093 189.286 124.163C188.161 125.247 187.232 126.514 186.57 127.907C187.204 128.653 187.921 129.329 188.709 129.906C191.017 131.623 193.874 132.538 196.9 132.538C199.926 132.538 202.966 131.623 205.611 129.906C206.498 129.329 207.342 128.682 208.102 127.95C207.202 124.402 204.345 121.7 200.531 120.869Z" fill="white" stroke="black" stroke-width="0.671915" stroke-linecap="round" stroke-linejoin="round"/>
<path d="M208.554 121.446C208.075 127.175 203.727 128.09 201.531 128.161C207.245 127.978 207.822 132.215 207.681 134.396C208.075 128.456 212.382 127.823 214.577 127.752C208.413 127.935 208.385 123.544 208.554 121.446Z" fill="#FBE62E" stroke="#01090F" stroke-width="0.671915"/>
<path d="M222.077 106.947H270.911C271.488 106.947 271.924 107.412 271.868 108.003C271.812 108.58 271.291 109.059 270.714 109.059H221.88C221.303 109.059 220.867 108.594 220.923 108.003C220.979 107.426 221.5 106.947 222.077 106.947Z" fill="#2C71F0"/>
<path d="M220.868 119.138H260.695M220.445 123.346H248.873M221.29 114.873H261.117" stroke="black" stroke-width="0.671915" stroke-linecap="round"/>
<path d="M303.53 42.7991H167.809L168.428 34.8915L304.036 33.7153L303.53 42.7991Z" fill="black"/>
<ellipse cx="173.258" cy="38.8025" rx="1.4531" ry="1.4534" fill="white"/>
<ellipse cx="178.703" cy="38.8025" rx="1.4531" ry="1.4534" fill="white"/>
<ellipse cx="184.156" cy="38.8025" rx="1.4531" ry="1.4534" fill="white"/>
<path d="M225.745 161.763L224.944 170.553M168.968 170.553L169.398 165.836H282.211L281.78 170.553" stroke="black" stroke-width="0.671915"/>
<path d="M122.493 174.345H216.927C219.841 174.345 221.966 176.696 221.684 179.595L218.194 214.751C217.912 217.65 215.309 220 212.396 220H117.962C115.048 220 112.923 217.65 113.205 214.751L116.695 179.595C116.976 176.696 119.58 174.345 122.493 174.345Z" fill="black" stroke="black" stroke-width="0.671915"/>
<path d="M120.314 174.345H214.748C217.661 174.345 219.786 176.696 219.505 179.595L216.014 214.751C215.733 217.65 213.129 220 210.216 220H115.782C112.869 220 110.744 217.65 111.025 214.751L114.515 179.595C114.797 176.696 117.4 174.345 120.314 174.345Z" fill="white" stroke="black" stroke-width="0.671915"/>
<rect x="208.516" y="212.217" width="3.79988" height="3.79988" rx="1.89994" fill="#FFA9C6"/>
<path d="M131.541 201.113C132.315 200.775 133.117 200.522 133.919 200.353C133.75 200.283 133.596 200.227 133.427 200.142C132.216 199.565 131.245 198.65 130.598 197.496C129.965 196.342 129.697 194.991 129.838 193.612C129.979 192.162 130.57 190.741 131.513 189.545C132.456 188.348 133.722 187.42 135.13 186.899C136.002 186.575 136.903 186.406 137.804 186.406C139.732 186.406 141.491 187.166 142.715 188.517C143.94 189.868 144.517 191.698 144.334 193.612C144.221 194.738 143.841 195.85 143.222 196.863C142.603 197.876 141.772 198.749 140.787 199.41L140.675 199.453H140.703C140.14 199.833 139.535 200.128 138.915 200.353C142.715 201.184 145.572 203.886 146.487 207.418C149.386 204.688 151.216 201.043 151.582 197.271C151.779 195.329 151.582 193.415 151.019 191.628C150.456 189.84 149.513 188.222 148.274 186.843C147.036 185.477 145.502 184.394 143.771 183.648C142.04 182.902 140.154 182.522 138.198 182.522C134.257 182.522 130.331 184.07 127.277 186.843C124.223 189.601 122.28 193.359 121.886 197.257C121.506 201.015 122.604 204.632 124.926 207.362C125.588 205.969 126.517 204.702 127.642 203.632C128.796 202.577 130.105 201.704 131.541 201.113Z" fill="#00AC6B" stroke="black" stroke-width="0.671915" stroke-miterlimit="10" stroke-linejoin="round"/>
<path d="M138.93 200.367C139.563 200.142 140.154 199.846 140.717 199.466H140.689L140.802 199.424C141.787 198.762 142.617 197.89 143.236 196.877C143.856 195.863 144.236 194.752 144.348 193.626C144.545 191.712 143.954 189.882 142.73 188.531C141.505 187.18 139.746 186.42 137.818 186.42C136.917 186.42 136.017 186.589 135.144 186.912C133.723 187.433 132.47 188.362 131.527 189.558C130.584 190.755 129.993 192.176 129.852 193.626C129.712 195.005 129.979 196.356 130.612 197.51C131.246 198.664 132.231 199.593 133.441 200.156C133.596 200.226 133.765 200.297 133.934 200.367C133.117 200.536 132.329 200.789 131.555 201.127C130.134 201.718 128.811 202.591 127.685 203.66C126.559 204.744 125.63 206.01 124.969 207.404C125.602 208.15 126.32 208.825 127.108 209.402C129.416 211.119 132.273 212.034 135.299 212.034C138.325 212.034 141.365 211.119 144.01 209.402C144.897 208.825 145.741 208.178 146.501 207.446C145.601 203.899 142.744 201.197 138.93 200.367Z" fill="white" stroke="black" stroke-width="0.671915" stroke-linecap="round" stroke-linejoin="round"/>
<path d="M146.952 200.944C146.474 206.672 142.125 207.587 139.93 207.657C145.644 207.475 146.221 211.711 146.08 213.892C146.474 207.953 150.78 207.32 152.976 207.249C146.812 207.432 146.784 203.041 146.952 200.944Z" fill="#FBE62E" stroke="#01090F" stroke-width="0.671915"/>
<path d="M160.479 186.448H209.315C209.892 186.448 210.328 186.913 210.272 187.504C210.215 188.081 209.695 188.559 209.118 188.559H160.282C159.705 188.559 159.269 188.095 159.325 187.504C159.381 186.927 159.902 186.448 160.479 186.448Z" fill="#F78400"/>
<path d="M159.266 198.636H199.094M158.844 202.844H187.272M159.688 194.372H199.517" stroke="black" stroke-width="0.671915" stroke-linecap="round"/>
<path d="M241.47 174.345H335.904C338.817 174.345 340.942 176.696 340.661 179.595L337.17 214.751C336.889 217.65 334.285 220 331.372 220H236.938C234.025 220 231.9 217.65 232.181 214.751L235.671 179.595C235.953 176.696 238.556 174.345 241.47 174.345Z" fill="black" stroke="black" stroke-width="0.671915"/>
<path d="M239.29 174.345H333.724C336.637 174.345 338.762 176.696 338.481 179.595L334.991 214.751C334.709 217.65 332.105 220 329.192 220H234.758C231.845 220 229.72 217.65 230.001 214.751L233.492 179.595C233.773 176.696 236.377 174.345 239.29 174.345Z" fill="white" stroke="black" stroke-width="0.671915"/>
<rect x="327.351" y="212.217" width="3.79988" height="3.79988" rx="1.89994" fill="#FFA9C6"/>
<path d="M250.517 201.113C251.291 200.775 252.093 200.522 252.896 200.353C252.727 200.283 252.572 200.227 252.403 200.142C251.193 199.565 250.222 198.65 249.574 197.496C248.941 196.342 248.674 194.991 248.814 193.612C248.955 192.162 249.546 190.741 250.489 189.545C251.432 188.348 252.699 187.42 254.106 186.899C254.979 186.575 255.879 186.406 256.78 186.406C258.708 186.406 260.467 187.166 261.692 188.517C262.916 189.868 263.493 191.698 263.31 193.612C263.197 194.738 262.818 195.85 262.198 196.863C261.579 197.876 260.749 198.749 259.764 199.41L259.651 199.453H259.679C259.116 199.833 258.511 200.128 257.892 200.353C261.692 201.184 264.549 203.886 265.463 207.418C268.363 204.688 270.192 201.043 270.558 197.271C270.755 195.329 270.558 193.415 269.995 191.628C269.432 189.84 268.489 188.222 267.251 186.843C266.012 185.477 264.478 184.394 262.747 183.648C261.016 182.902 259.13 182.522 257.174 182.522C253.233 182.522 249.307 184.07 246.253 186.843C243.199 189.601 241.257 193.359 240.863 197.257C240.483 201.015 241.58 204.632 243.903 207.362C244.564 205.969 245.493 204.702 246.619 203.632C247.773 202.577 249.082 201.704 250.517 201.113Z" fill="#2C71F0" stroke="black" stroke-width="0.671915" stroke-miterlimit="10" stroke-linejoin="round"/>
<path d="M257.906 200.367C258.539 200.142 259.131 199.846 259.693 199.466H259.665L259.778 199.424C260.763 198.762 261.593 197.89 262.213 196.877C262.832 195.863 263.212 194.752 263.324 193.626C263.521 191.712 262.93 189.882 261.706 188.531C260.482 187.18 258.722 186.42 256.794 186.42C255.894 186.42 254.993 186.589 254.12 186.912C252.699 187.433 251.446 188.362 250.503 189.558C249.56 190.755 248.969 192.176 248.829 193.626C248.688 195.005 248.955 196.356 249.589 197.51C250.222 198.664 251.207 199.593 252.417 200.156C252.572 200.226 252.741 200.297 252.91 200.367C252.094 200.536 251.306 200.789 250.532 201.127C249.11 201.718 247.787 202.591 246.661 203.66C245.535 204.744 244.607 206.01 243.945 207.404C244.578 208.15 245.296 208.825 246.084 209.402C248.392 211.119 251.249 212.034 254.275 212.034C257.301 212.034 260.341 211.119 262.987 209.402C263.873 208.825 264.718 208.178 265.478 207.446C264.577 203.899 261.72 201.197 257.906 200.367Z" fill="white" stroke="black" stroke-width="0.671915" stroke-linecap="round" stroke-linejoin="round"/>
<path d="M265.929 200.944C265.45 206.672 261.101 207.587 258.906 207.657C264.62 207.475 265.197 211.711 265.056 213.892C265.45 207.953 269.757 207.32 271.952 207.249C265.788 207.432 265.76 203.041 265.929 200.944Z" fill="#FBE62E" stroke="#01090F" stroke-width="0.671915"/>
<path d="M279.456 186.448H328.291C328.868 186.448 329.304 186.913 329.248 187.504C329.192 188.081 328.671 188.559 328.094 188.559H279.259C278.682 188.559 278.245 188.095 278.302 187.504C278.358 186.927 278.879 186.448 279.456 186.448Z" fill="#F78400"/>
<path d="M278.246 198.636H318.075M277.824 202.844H306.253M278.668 194.372H318.497" stroke="black" stroke-width="0.671915" stroke-linecap="round"/>
<rect x="16" y="214" width="48" height="48" rx="12" fill="white"/>
<path d="M32.0766 241.606C32.0766 243.186 30.7857 244.477 29.2053 244.477C27.625 244.477 26.334 243.186 26.334 241.606C26.334 240.025 27.625 238.734 29.2053 238.734H32.0766V241.606Z" fill="#E01E5A"/>
<path d="M33.5234 241.606C33.5234 240.025 34.8144 238.734 36.3948 238.734C37.9751 238.734 39.2661 240.025 39.2661 241.606V248.795C39.2661 250.376 37.9751 251.666 36.3948 251.666C34.8144 251.666 33.5234 250.376 33.5234 248.795V241.606Z" fill="#E01E5A"/>
<path d="M36.3948 230.076C34.8144 230.076 33.5234 228.785 33.5234 227.205C33.5234 225.624 34.8144 224.333 36.3948 224.333C37.9751 224.333 39.2661 225.624 39.2661 227.205V230.076H36.3948Z" fill="#36C5F0"/>
<path d="M36.3948 231.523C37.9751 231.523 39.2661 232.814 39.2661 234.394C39.2661 235.975 37.9751 237.266 36.3948 237.266H29.2053C27.625 237.266 26.334 235.975 26.334 234.394C26.334 232.814 27.625 231.523 29.2053 231.523H36.3948Z" fill="#36C5F0"/>
<path d="M47.9238 234.394C47.9238 232.814 49.2148 231.523 50.7952 231.523C52.3755 231.523 53.6665 232.814 53.6665 234.394C53.6665 235.975 52.3755 237.266 50.7952 237.266H47.9238V234.394Z" fill="#2EB67D"/>
<path d="M46.477 234.394C46.477 235.975 45.186 237.266 43.6057 237.266C42.0254 237.266 40.7344 235.975 40.7344 234.394V227.205C40.7344 225.624 42.0254 224.333 43.6057 224.333C45.186 224.333 46.477 225.624 46.477 227.205V234.394Z" fill="#2EB67D"/>
<path d="M43.6057 245.924C45.186 245.924 46.477 247.215 46.477 248.795C46.477 250.376 45.186 251.666 43.6057 251.666C42.0254 251.666 40.7344 250.376 40.7344 248.795V245.924H43.6057Z" fill="#ECB22E"/>
<path d="M43.6057 244.477C42.0254 244.477 40.7344 243.186 40.7344 241.606C40.7344 240.025 42.0254 238.734 43.6057 238.734H50.7952C52.3755 238.734 53.6665 240.025 53.6665 241.606C53.6665 243.186 52.3755 244.477 50.7952 244.477H43.6057Z" fill="#ECB22E"/>
<rect x="15.5" y="213.5" width="49" height="49" rx="12.5" stroke="#081531" stroke-opacity="0.2"/>
</svg>
