<svg width="128" height="128" viewBox="0 0 128 128" fill="none" xmlns="http://www.w3.org/2000/svg">
<rect x="80.4659" y="78.5623" width="8.02586" height="2.90117" transform="rotate(44.7659 80.4659 78.5623)" fill="#97DDE5" stroke="#01090F" stroke-width="0.8"/>
<circle cx="53.2284" cy="53.0211" r="37.6326" fill="#97DDE5" stroke="#01090F" stroke-width="0.8"/>
<circle cx="53.2269" cy="53.0211" r="28.9973" fill="#294C6A" stroke="#01090F" stroke-width="0.8"/>
<circle cx="53.2283" cy="47.2317" r="10.6879" fill="#F88401" stroke="#01090F" stroke-width="0.8"/>
<mask id="mask0_1370_434" style="mask-type:alpha" maskUnits="userSpaceOnUse" x="23" y="23" width="60" height="60">
<circle cx="53.2293" cy="53.0233" r="29.3973" fill="#FFC664"/>
</mask>
<g mask="url(#mask0_1370_434)">
<path d="M81.3736 84.3001C81.3736 98.4472 68.8083 109.976 53.2304 109.976C37.6526 109.976 25.0873 98.4472 25.0873 84.3001C25.0873 70.1531 37.6526 58.6244 53.2304 58.6244C68.8083 58.6244 81.3736 70.1531 81.3736 84.3001Z" fill="#F88401" stroke="#01090F" stroke-width="0.8"/>
</g>
<circle cx="53.2269" cy="53.0223" r="28.9973" stroke="#01090F" stroke-width="0.8"/>
<rect x="78.9949" y="89.8709" width="15.6068" height="7.88736" transform="rotate(-45.3178 78.9949 89.8709)" fill="#F88401" stroke="#01090F" stroke-width="0.8"/>
<path d="M100.467 111.221L84.002 95.2775L95.58 83.7944C100.689 89.2038 111.077 100.193 111.761 100.877C112.615 101.731 114.631 107.022 110.432 111.221C107.073 114.581 102.389 112.621 100.467 111.221Z" fill="#294C6A"/>
<path d="M84.002 95.2775L83.7203 94.9935L83.4305 95.281L83.7237 95.5649L84.002 95.2775ZM100.467 111.221L100.189 111.508L100.209 111.528L100.232 111.544L100.467 111.221ZM110.432 111.221L110.715 111.504L110.432 111.221ZM111.761 100.877L112.044 100.594L111.761 100.877ZM95.58 83.7944L95.8708 83.5198L95.5893 83.2218L95.2983 83.5104L95.58 83.7944ZM83.7237 95.5649L100.189 111.508L100.746 110.934L84.2802 94.9902L83.7237 95.5649ZM100.232 111.544C101.235 112.275 102.947 113.147 104.858 113.402C106.781 113.66 108.927 113.292 110.715 111.504L110.149 110.938C108.578 112.51 106.702 112.842 104.964 112.609C103.212 112.375 101.622 111.567 100.703 110.898L100.232 111.544ZM110.715 111.504C112.906 109.312 113.481 106.824 113.391 104.777C113.346 103.757 113.137 102.845 112.881 102.128C112.63 101.427 112.32 100.87 112.044 100.594L111.478 101.16C111.629 101.31 111.891 101.735 112.127 102.397C112.359 103.045 112.551 103.878 112.592 104.812C112.674 106.673 112.157 108.93 110.149 110.938L110.715 111.504ZM112.044 100.594C111.366 99.916 100.984 88.9339 95.8708 83.5198L95.2892 84.0691C100.394 89.4738 110.789 100.471 111.478 101.16L112.044 100.594ZM95.2983 83.5104L83.7203 94.9935L84.2836 95.5616L95.8616 84.0784L95.2983 83.5104Z" fill="#01090F"/>
</svg>
