<svg width="203" height="23" viewBox="0 0 203 23" fill="none" xmlns="http://www.w3.org/2000/svg">
<path d="M59.0809 6.53724V16.6702H61.6532C62.3096 16.6607 62.9575 16.5219 63.5583 16.2621C64.1592 16.0023 64.701 15.6267 65.1515 15.1577C66.0762 14.1961 66.5822 12.9179 66.5616 11.5954C66.5812 10.9384 66.4685 10.2842 66.2299 9.6702C65.9912 9.05621 65.6315 8.49458 65.1712 8.01757C64.7188 7.54787 64.1733 7.17411 63.5682 6.9193C62.9632 6.66449 62.3115 6.53403 61.6532 6.53595H59.0822L59.0809 6.53724ZM61.6532 3.36012C66.4475 3.36012 70.0744 7.00878 70.0744 11.5954C70.0744 16.182 66.4475 19.8512 61.6532 19.8512H55.98C55.9259 19.8506 55.8725 19.8394 55.8228 19.8185C55.773 19.7975 55.728 19.7671 55.6903 19.7291C55.6525 19.6911 55.6228 19.6461 55.6027 19.5967C55.5826 19.5474 55.5727 19.4947 55.5734 19.4415V3.78657C55.5734 3.55982 55.7557 3.37558 55.98 3.37558L61.6532 3.36012ZM82.4321 17.0233C84.6095 17.0297 86.5758 15.7143 87.414 13.6903C87.8246 12.7013 87.9343 11.6167 87.7299 10.5677C87.5255 9.51879 87.0157 8.5506 86.2623 7.78051C85.5221 7.02307 84.5654 6.50402 83.5185 6.29193C82.4716 6.07984 81.3838 6.18469 80.3989 6.59264C78.3867 7.4275 77.0724 9.40257 77.0685 11.5954C77.0685 14.5844 79.4663 17.0091 82.4334 17.0233M82.4334 2.9865C87.4796 2.9865 91.3373 6.89283 91.3373 11.5954C91.3373 16.2979 87.4796 20.2042 82.4321 20.2042C77.3859 20.2042 73.5609 16.3172 73.5609 11.5954C73.5609 6.8735 77.4187 2.9865 82.4321 2.9865M103.595 17.0233C106.564 17.0155 108.965 14.5882 108.963 11.5992C108.959 8.60764 106.552 6.18551 103.585 6.18422C100.615 6.18422 98.2068 8.60507 98.2028 11.5954C98.2028 13.0358 98.7708 14.4169 99.7822 15.4347C100.277 15.9363 100.87 16.3353 101.524 16.6082C102.179 16.881 102.883 17.0222 103.594 17.0233M103.594 2.9865C108.624 2.9865 112.482 6.8735 112.482 11.5954C112.482 16.3172 108.609 20.2042 103.594 20.2042C98.5806 20.2042 94.6901 16.3172 94.6901 11.5954C94.6901 6.8735 98.5478 2.9865 103.594 2.9865ZM124.248 6.53724H120.621V10.8984H124.248C124.535 10.9108 124.821 10.8655 125.089 10.7651C125.357 10.6647 125.601 10.5114 125.807 10.3147C126.226 9.91534 126.465 9.36134 126.47 8.779C126.481 8.48356 126.431 8.18907 126.322 7.91321C126.214 7.63735 126.05 7.38581 125.841 7.17369C125.635 6.96494 125.387 6.80081 125.113 6.69187C124.838 6.58292 124.544 6.53156 124.248 6.5411V6.53724ZM117.113 3.78657C117.113 3.55982 117.296 3.37558 117.52 3.37558H124.349C127.605 3.37558 129.961 5.77839 129.961 8.79574C129.986 10.8365 128.851 12.7111 127.04 13.6245L130.189 19.2328C130.233 19.2973 130.257 19.3723 130.26 19.4496C130.263 19.527 130.244 19.6035 130.205 19.6709C130.167 19.7371 130.11 19.7913 130.042 19.8269C129.974 19.8625 129.896 19.8781 129.819 19.8718H127.055C126.979 19.8729 126.903 19.8527 126.838 19.8135C126.772 19.7743 126.72 19.7177 126.685 19.6502L123.65 14.1H120.608V19.4286C120.609 19.4819 120.599 19.5348 120.579 19.5842C120.559 19.6337 120.53 19.6789 120.492 19.7171C120.454 19.7552 120.409 19.7857 120.359 19.8068C120.309 19.8278 120.256 19.839 120.202 19.8396H117.539C117.485 19.839 117.431 19.8278 117.381 19.8068C117.332 19.7857 117.286 19.7552 117.249 19.7171C117.211 19.6789 117.181 19.6337 117.161 19.5842C117.141 19.5348 117.131 19.4819 117.132 19.4286L117.114 3.78786L117.113 3.78657ZM139.106 6.61454V16.7488H141.677C142.333 16.7401 142.981 16.6022 143.582 16.3433C144.183 16.0844 144.726 15.7097 145.177 15.2414C146.102 14.281 146.609 13.0037 146.589 11.6817C146.61 11.024 146.499 10.3687 146.261 9.75351C146.023 9.13836 145.663 8.57554 145.203 8.09745C144.75 7.62696 144.203 7.25273 143.597 6.9979C142.991 6.74306 142.338 6.61303 141.678 6.61583L139.106 6.61454ZM141.677 3.43356C146.471 3.43356 150.098 7.08608 150.098 11.6817C150.098 16.2773 146.471 19.9298 141.677 19.9298H136.021C135.967 19.9291 135.913 19.918 135.863 19.8969C135.814 19.8759 135.769 19.8454 135.731 19.8072C135.693 19.7691 135.663 19.7239 135.643 19.6744C135.623 19.6249 135.613 19.5721 135.614 19.5188V3.86516C135.614 3.63712 135.797 3.45288 136.021 3.45288L141.678 3.43356H141.677ZM160.797 7.46357L158.807 12.8824H162.783L160.797 7.46357ZM157.639 15.9449L156.337 19.5523C156.311 19.6372 156.257 19.7111 156.183 19.7624C156.109 19.8138 156.02 19.8396 155.93 19.8358H153.105C153.033 19.8424 152.96 19.8298 152.895 19.7994C152.83 19.769 152.774 19.722 152.734 19.6631C152.692 19.6036 152.667 19.5346 152.661 19.4628C152.655 19.3911 152.668 19.3189 152.698 19.2534L158.803 3.61393C158.831 3.53146 158.886 3.46038 158.96 3.41154C159.033 3.3627 159.121 3.33876 159.209 3.34337H162.371C162.459 3.33847 162.547 3.36227 162.621 3.41114C162.695 3.46 162.75 3.53123 162.779 3.61393L168.883 19.2534C168.914 19.319 168.926 19.3912 168.92 19.463C168.913 19.5348 168.888 19.6037 168.847 19.6631C168.806 19.7217 168.75 19.7686 168.685 19.7987C168.62 19.8288 168.547 19.8412 168.475 19.8345H165.651C165.561 19.8383 165.472 19.8125 165.399 19.7612C165.325 19.7098 165.271 19.6359 165.245 19.551L163.942 15.9436H157.639V15.9449ZM172.159 7.8153C172.159 5.22568 174.381 2.9865 177.89 2.9865C179.779 2.94505 181.609 3.6393 182.979 4.91776C183.021 4.95653 183.054 5.00327 183.077 5.05511C183.1 5.10694 183.111 5.16279 183.111 5.21924C183.111 5.27568 183.1 5.33153 183.077 5.38337C183.054 5.4352 183.021 5.48194 182.979 5.52071L181.414 7.08608C181.377 7.12411 181.332 7.15435 181.282 7.175C181.233 7.19566 181.18 7.2063 181.126 7.2063C181.072 7.2063 181.018 7.19566 180.969 7.175C180.919 7.15435 180.874 7.12411 180.837 7.08608C180.1 6.40753 179.132 6.02306 178.122 6.00772C176.718 6.00772 175.681 6.82841 175.681 7.77536C175.681 10.8365 183.975 9.07017 183.975 14.9606C183.971 17.9457 181.732 20.2042 177.773 20.2042C176.674 20.2153 175.583 20.0091 174.567 19.5978C173.55 19.1866 172.628 18.5788 171.856 17.8105C171.814 17.7717 171.781 17.7249 171.758 17.6731C171.735 17.6213 171.724 17.5654 171.724 17.509C171.724 17.4525 171.735 17.3967 171.758 17.3448C171.781 17.293 171.814 17.2463 171.856 17.2075L173.369 15.6821C173.407 15.6422 173.453 15.6104 173.504 15.5886C173.554 15.5669 173.609 15.5556 173.665 15.5556C173.72 15.5556 173.775 15.5669 173.826 15.5886C173.876 15.6104 173.922 15.6422 173.96 15.6821C174.912 16.6096 176.195 17.1364 177.537 17.1508C179.291 17.1508 180.446 16.2077 180.446 15.0263C180.446 11.9638 172.156 13.7315 172.156 7.83978M199.015 3.76596V9.95528H191.995V3.76596C191.995 3.71283 191.985 3.66009 191.965 3.61075C191.945 3.5614 191.915 3.51643 191.878 3.47838C191.84 3.44034 191.795 3.40997 191.745 3.38901C191.695 3.36806 191.642 3.35693 191.588 3.35626H188.925C188.871 3.35693 188.818 3.36806 188.768 3.38901C188.718 3.40997 188.673 3.44034 188.635 3.47838C188.598 3.51643 188.568 3.5614 188.548 3.61075C188.528 3.66009 188.518 3.71283 188.518 3.76596V19.4029C188.518 19.6296 188.702 19.8139 188.925 19.8139H191.588C191.811 19.8139 191.995 19.6296 191.995 19.4029V13.1156H199.01V19.4029C199.01 19.6296 199.193 19.8139 199.416 19.8139H202.079C202.303 19.8139 202.486 19.6296 202.486 19.4029V3.76596C202.486 3.71283 202.476 3.66009 202.456 3.61075C202.436 3.5614 202.406 3.51643 202.369 3.47838C202.331 3.44034 202.286 3.40997 202.236 3.38901C202.187 3.36806 202.133 3.35693 202.079 3.35626H199.416C199.308 3.35896 199.205 3.40348 199.13 3.48017C199.055 3.55686 199.013 3.65954 199.015 3.76596ZM40.6263 5.44341C38.7794 2.08077 35.1657 -0.0128246 31.2358 5.91234e-05H1.50176C1.30096 0.000859696 1.10484 0.0596788 0.937834 0.169187C0.770827 0.278696 0.640321 0.434052 0.562575 0.615899C0.485966 0.796579 0.466014 0.995609 0.505274 1.18749C0.544534 1.37938 0.641218 1.55539 0.782944 1.69297L7.2602 8.00598C7.83211 8.56513 8.61127 8.8782 9.42191 8.8782H30.3831C31.8772 8.86274 33.0984 10.0248 33.1141 11.4717C33.1299 12.9185 31.9323 14.1038 30.4382 14.118H15.9871C15.7861 14.1181 15.5896 14.1763 15.4221 14.2853C15.2546 14.3944 15.1236 14.5495 15.0452 14.7313C14.9679 14.9121 14.9474 15.1116 14.9865 15.304C15.0255 15.4964 15.1223 15.673 15.2643 15.8109L21.7455 22.1291C22.321 22.6879 23.0979 23.0009 23.9072 23H30.4435C38.9473 23 45.3774 14.1876 40.6263 5.43955" fill="white"/>
</svg>
