<svg width="56" height="33" viewBox="0 0 56 33" fill="none" xmlns="http://www.w3.org/2000/svg">
<path d="M15.9946 11.985C15.9946 12.6641 16.068 13.2147 16.1965 13.6185C16.3433 14.0223 16.5269 14.4627 16.7838 14.9399C16.8756 15.0868 16.9123 15.2336 16.9123 15.3621C16.9123 15.5456 16.8022 15.7291 16.5636 15.9127L15.4073 16.6835C15.2421 16.7937 15.0769 16.8487 14.9301 16.8487C14.7465 16.8487 14.563 16.757 14.3795 16.5918C14.1225 16.3165 13.9023 16.0228 13.7187 15.7291C13.5352 15.4171 13.3517 15.0684 13.1498 14.6463C11.7182 16.3348 9.91952 17.1791 7.75378 17.1791C6.21206 17.1791 4.98236 16.7386 4.08303 15.8576C3.1837 14.9766 2.72485 13.802 2.72485 12.3337C2.72485 10.7736 3.27547 9.50723 4.39504 8.55284C5.51462 7.59845 7.00127 7.12125 8.89171 7.12125C9.51573 7.12125 10.1581 7.17631 10.8372 7.26808C11.5163 7.35985 12.2137 7.50668 12.9479 7.67186V6.33204C12.9479 4.93715 12.6542 3.96441 12.0853 3.39544C11.4979 2.82647 10.5068 2.55117 9.0936 2.55117C8.45122 2.55117 7.79048 2.62458 7.1114 2.78977C6.43231 2.95495 5.77157 3.15684 5.12919 3.41379C4.83553 3.54227 4.61529 3.61569 4.48681 3.65239C4.35834 3.6891 4.26657 3.70745 4.19315 3.70745C3.9362 3.70745 3.80772 3.52392 3.80772 3.13849V2.23916C3.80772 1.9455 3.84443 1.72525 3.9362 1.59677C4.02797 1.4683 4.19315 1.33982 4.4501 1.21135C5.09248 0.880979 5.86334 0.605673 6.76267 0.385428C7.66201 0.14683 8.6164 0.0367074 9.62586 0.0367074C11.81 0.0367074 13.4067 0.532258 14.4345 1.52336C15.444 2.51446 15.9579 4.01947 15.9579 6.03838V11.985H15.9946ZM8.54299 14.7748C9.14866 14.7748 9.77269 14.6646 10.4334 14.4444C11.0942 14.2241 11.6815 13.8204 12.177 13.2697C12.4707 12.921 12.6909 12.5356 12.8011 12.0951C12.9112 11.6546 12.9846 11.1224 12.9846 10.4983V9.72748C12.4523 9.599 11.8834 9.48888 11.296 9.41547C10.7087 9.34205 10.1398 9.30534 9.5708 9.30534C8.3411 9.30534 7.44176 9.54394 6.83609 10.0395C6.23042 10.535 5.93676 11.2325 5.93676 12.1502C5.93676 13.0128 6.157 13.6552 6.61584 14.0957C7.05633 14.5545 7.69871 14.7748 8.54299 14.7748ZM23.281 16.757C22.9507 16.757 22.7304 16.7019 22.5836 16.5734C22.4368 16.4633 22.3083 16.2063 22.1982 15.8576L17.885 1.67019C17.7749 1.30311 17.7199 1.06452 17.7199 0.93604C17.7199 0.642381 17.8667 0.477197 18.1603 0.477197H19.959C20.3077 0.477197 20.5463 0.532258 20.6748 0.660734C20.8216 0.770857 20.9318 1.02781 21.0419 1.37653L24.1253 13.5267L26.9885 1.37653C27.0803 1.00946 27.1904 0.770857 27.3372 0.660734C27.484 0.550612 27.741 0.477197 28.0714 0.477197H29.5397C29.8884 0.477197 30.127 0.532258 30.2738 0.660734C30.4206 0.770857 30.5491 1.02781 30.6225 1.37653L33.5224 13.6735L36.6976 1.37653C36.8077 1.00946 36.9362 0.770857 37.0647 0.660734C37.2115 0.550612 37.4501 0.477197 37.7805 0.477197H39.4874C39.781 0.477197 39.9462 0.624027 39.9462 0.93604C39.9462 1.02781 39.9279 1.11958 39.9095 1.2297C39.8912 1.33982 39.8545 1.48665 39.781 1.68854L35.3578 15.876C35.2477 16.2431 35.1192 16.4817 34.9724 16.5918C34.8255 16.7019 34.5869 16.7753 34.2749 16.7753H32.6965C32.3478 16.7753 32.1092 16.7202 31.9623 16.5918C31.8155 16.4633 31.687 16.2247 31.6136 15.8576L28.7688 4.01947L25.9423 15.8393C25.8506 16.2063 25.7404 16.4449 25.5936 16.5734C25.4468 16.7019 25.1898 16.757 24.8595 16.757H23.281ZM46.8656 17.2525C45.9112 17.2525 44.9568 17.1424 44.0391 16.9221C43.1214 16.7019 42.4056 16.4633 41.9284 16.188C41.6348 16.0228 41.4329 15.8393 41.3595 15.6741C41.286 15.5089 41.2493 15.3254 41.2493 15.1602V14.2241C41.2493 13.8387 41.3962 13.6552 41.6715 13.6552C41.7816 13.6552 41.8917 13.6735 42.0018 13.7102C42.112 13.7469 42.2771 13.8204 42.4607 13.8938C43.0847 14.1691 43.7638 14.3893 44.4796 14.5362C45.2137 14.683 45.9295 14.7564 46.6637 14.7564C47.82 14.7564 48.7193 14.5545 49.3433 14.1507C49.9674 13.7469 50.2977 13.1596 50.2977 12.4071C50.2977 11.8932 50.1325 11.4711 49.8022 11.1224C49.4718 10.7736 48.8478 10.4616 47.9484 10.168L45.2872 9.34205C43.9473 8.91991 42.9562 8.29589 42.3506 7.46997C41.7449 6.66241 41.4329 5.76307 41.4329 4.80868C41.4329 4.03782 41.5981 3.35873 41.9284 2.77141C42.2588 2.18409 42.6993 1.67019 43.2499 1.26641C43.8005 0.844272 44.4245 0.532258 45.1587 0.312013C45.8928 0.0917686 46.6637 0 47.4712 0C47.875 0 48.2972 0.0183537 48.701 0.0734149C49.1231 0.128476 49.5085 0.201891 49.8939 0.275306C50.261 0.367075 50.6097 0.458843 50.9401 0.568966C51.2705 0.679088 51.5274 0.78921 51.711 0.899333C51.9679 1.04616 52.1515 1.19299 52.2616 1.35818C52.3717 1.50501 52.4268 1.7069 52.4268 1.96385V2.82647C52.4268 3.2119 52.2799 3.41379 52.0046 3.41379C51.8578 3.41379 51.6192 3.34038 51.3072 3.19355C50.261 2.71635 49.0864 2.47775 47.7833 2.47775C46.7371 2.47775 45.9112 2.64294 45.3422 2.99166C44.7733 3.34038 44.4796 3.87264 44.4796 4.62514C44.4796 5.13904 44.6631 5.57954 45.0302 5.92826C45.3973 6.27698 46.0764 6.6257 47.0491 6.93771L49.6553 7.76363C50.9768 8.18577 51.9312 8.77308 52.5002 9.52559C53.0691 10.2781 53.3444 11.1407 53.3444 12.0951C53.3444 12.8843 53.1793 13.6001 52.8672 14.2241C52.5369 14.8482 52.0964 15.3988 51.5274 15.8393C50.9585 16.2981 50.2794 16.6285 49.4902 16.8671C48.6642 17.124 47.8016 17.2525 46.8656 17.2525Z" fill="white"/>
<path fill-rule="evenodd" clip-rule="evenodd" d="M50.3344 26.1724C44.296 30.6324 35.5229 33 27.9795 33C17.4078 33 7.88219 29.0907 0.687529 22.5934C0.118563 22.0795 0.632468 21.3821 1.31156 21.7859C9.09354 26.3009 18.6925 29.0356 28.6219 29.0356C35.321 29.0356 42.6809 27.6407 49.4534 24.7775C50.4629 24.3187 51.3255 25.4383 50.3344 26.1724Z" fill="#FF9900"/>
<path fill-rule="evenodd" clip-rule="evenodd" d="M52.8489 23.3092C52.078 22.3181 47.7465 22.832 45.7827 23.0706C45.1954 23.144 45.1036 22.6301 45.6358 22.2447C49.0863 19.822 54.7577 20.5194 55.4184 21.327C56.0791 22.1529 55.2348 27.8242 52.0046 30.5406C51.509 30.9627 51.0318 30.7425 51.2521 30.1918C51.9862 28.3748 53.6197 24.2819 52.8489 23.3092Z" fill="#FF9900"/>
</svg>
