<svg width="138" height="33" viewBox="0 0 138 33" fill="none" xmlns="http://www.w3.org/2000/svg">
<path d="M44.196 25.7836L45.9093 22.0805C47.7607 23.3663 50.2201 24.0349 52.6518 24.0349C54.4479 24.0349 55.5809 23.392 55.5809 22.4148C55.5533 19.6888 44.8316 21.8233 44.7487 14.9827C44.721 11.5109 48.037 8.83643 52.7347 8.83643C55.5256 8.83643 58.3166 9.47934 60.3062 10.9452L58.7034 14.7255C56.8796 13.6454 54.6137 12.8739 52.4583 12.8739C50.9938 12.8739 50.0266 13.5168 50.0266 14.3398C50.0543 17.0143 60.8588 15.5485 60.9694 22.0805C60.9694 25.6293 57.7363 28.1239 53.0939 28.1239C49.695 28.1239 46.5725 27.3781 44.196 25.7836Z" fill="white"/>
<path d="M109.935 20.7432C109.079 22.1319 107.476 23.0834 105.625 23.0834C102.889 23.0834 100.678 21.0261 100.678 18.4801C100.678 15.9342 102.889 13.8769 105.625 13.8769C107.476 13.8769 109.079 14.8284 109.935 16.2171L114.661 13.774C112.892 10.8423 109.493 8.83643 105.625 8.83643C99.9045 8.83643 95.2621 13.1568 95.2621 18.4801C95.2621 23.8035 99.9045 28.1239 105.625 28.1239C109.521 28.1239 112.892 26.1437 114.661 23.1863L109.935 20.7432Z" fill="white"/>
<path d="M69.2593 0.838623H63.3458V27.7639H69.2593V0.838623Z" fill="white"/>
<path d="M116.982 0.838623V27.7639H122.895V19.6889L129.914 27.7639H137.486L128.56 18.1716L136.822 9.22222H129.583L122.895 16.6543V0.838623H116.982Z" fill="white"/>
<path d="M86.834 20.7946C85.9774 22.1062 84.2089 23.0834 82.2193 23.0834C79.4836 23.0834 77.2729 21.0261 77.2729 18.4801C77.2729 15.9342 79.4836 13.8769 82.2193 13.8769C84.2089 13.8769 85.9774 14.9055 86.834 16.2428V20.7946ZM86.834 9.22217V11.4081C85.8668 9.89081 83.4628 8.83643 80.9481 8.83643C75.7531 8.83643 71.6634 13.1054 71.6634 18.4544C71.6634 23.8035 75.7531 28.1239 80.9481 28.1239C83.4628 28.1239 85.8668 27.0695 86.834 25.5522V27.7381H92.7475V9.22217H86.834Z" fill="white"/>
<path d="M7.63729 20.769C7.63729 22.6463 6.00694 24.1636 3.98971 24.1636C1.97249 24.1636 0.342133 22.6463 0.342133 20.769C0.342133 18.8917 1.97249 17.3744 3.98971 17.3744H7.63729V20.769Z" fill="#E01E5A"/>
<path d="M9.46109 20.769C9.46109 18.8917 11.0914 17.3744 13.1087 17.3744C15.1259 17.3744 16.7562 18.8917 16.7562 20.769V29.2554C16.7562 31.1328 15.1259 32.65 13.1087 32.65C11.0914 32.65 9.46109 31.1328 9.46109 29.2554V20.769Z" fill="#E01E5A"/>
<path d="M13.1087 7.13915C11.0914 7.13915 9.46109 5.62187 9.46109 3.74456C9.46109 1.86725 11.0914 0.349976 13.1087 0.349976C15.1259 0.349976 16.7562 1.86725 16.7562 3.74456V7.13915H13.1087Z" fill="#36C5F0"/>
<path d="M13.1087 8.86218C15.1259 8.86218 16.7563 10.3795 16.7563 12.2568C16.7563 14.1341 15.1259 15.6514 13.1087 15.6514H3.9621C1.94487 15.6514 0.314514 14.1341 0.314514 12.2568C0.314514 10.3795 1.94487 8.86218 3.9621 8.86218H13.1087Z" fill="#36C5F0"/>
<path d="M27.7266 12.2568C27.7266 10.3795 29.357 8.86218 31.3742 8.86218C33.3914 8.86218 35.0218 10.3795 35.0218 12.2568C35.0218 14.1341 33.3914 15.6514 31.3742 15.6514H27.7266V12.2568Z" fill="#2EB67D"/>
<path d="M25.9029 12.2567C25.9029 14.1341 24.2725 15.6513 22.2553 15.6513C20.2381 15.6513 18.6077 14.1341 18.6077 12.2567V3.74456C18.6077 1.86725 20.2381 0.349976 22.2553 0.349976C24.2725 0.349976 25.9029 1.86725 25.9029 3.74456V12.2567Z" fill="#2EB67D"/>
<path d="M22.2553 25.8608C24.2725 25.8608 25.9029 27.3781 25.9029 29.2554C25.9029 31.1327 24.2725 32.65 22.2553 32.65C20.2381 32.65 18.6077 31.1327 18.6077 29.2554V25.8608H22.2553Z" fill="#ECB22E"/>
<path d="M22.2553 24.1636C20.2381 24.1636 18.6077 22.6463 18.6077 20.769C18.6077 18.8917 20.2381 17.3744 22.2553 17.3744H31.4019C33.4191 17.3744 35.0494 18.8917 35.0494 20.769C35.0494 22.6463 33.4191 24.1636 31.4019 24.1636H22.2553Z" fill="#ECB22E"/>
</svg>
