<svg width="107" height="31" viewBox="0 0 107 31" fill="none" xmlns="http://www.w3.org/2000/svg">
<path d="M11.9657 5.44702V13.922H4.17966V5.44702H0.485657V25.678H4.18066V17.478H11.9647V25.678H15.6607V5.44702H11.9657ZM27.4877 19.139C27.4877 19.9499 27.1655 20.7276 26.5921 21.301C26.0187 21.8744 25.2411 22.1965 24.4302 22.1965C23.6193 22.1965 22.8416 21.8744 22.2682 21.301C21.6948 20.7276 21.3727 19.9499 21.3727 19.139V10.473H17.8677V19.139C17.8677 20.8778 18.5584 22.5453 19.7879 23.7748C21.0174 25.0043 22.6849 25.695 24.4237 25.695C26.1624 25.695 27.83 25.0043 29.0594 23.7748C30.2889 22.5453 30.9797 20.8778 30.9797 19.139V10.473H27.4877V19.139ZM53.4587 11.366C53.4587 9.58902 54.6337 9.02602 55.9207 9.02602C56.9587 9.02602 58.3287 9.81602 59.2257 10.774L61.5207 8.06802C60.3747 6.51802 58.0507 5.44702 56.1477 5.44702C52.3447 5.44702 49.5947 7.67402 49.5947 11.366C49.5947 18.216 57.9667 16.042 57.9667 19.876C57.9667 21.058 56.8187 22.102 55.5047 22.102C53.4317 22.102 52.7597 21.089 51.8077 20.017L49.2597 22.666C50.8897 24.666 52.8997 25.682 55.3067 25.682C58.9197 25.682 61.8257 23.428 61.8257 19.904C61.8257 12.3 53.4527 14.663 53.4527 11.366M105.253 22.446C103.182 22.446 102.593 21.55 102.593 20.178V14.103H105.813V11.025H102.593V6.96402L99.0387 8.55902V20.933C99.0387 24.098 101.223 25.693 104.217 25.693C104.687 25.701 105.157 25.663 105.619 25.581L106.486 22.389C106.095 22.416 105.646 22.443 105.253 22.443M40.8297 10.574C39.0937 10.574 37.8817 11.078 36.7097 12.227V5.56802H33.1997V17.911C33.1997 22.531 36.5397 25.697 40.2937 25.697C44.4577 25.697 48.1207 22.475 48.1207 18.137C48.1207 13.853 44.7497 10.577 40.8297 10.577M40.8077 22.164C40.2845 22.164 39.7665 22.061 39.2832 21.8608C38.7999 21.6606 38.3608 21.3672 37.9909 20.9973C37.621 20.6274 37.3276 20.1882 37.1274 19.7049C36.9272 19.2216 36.8242 18.7036 36.8242 18.1805C36.8242 17.6574 36.9272 17.1394 37.1274 16.6561C37.3276 16.1728 37.621 15.7337 37.9909 15.3638C38.3608 14.9939 38.7999 14.7004 39.2832 14.5002C39.7665 14.3001 40.2845 14.197 40.8077 14.197C41.8641 14.197 42.8774 14.6167 43.6244 15.3638C44.3715 16.1108 44.7912 17.124 44.7912 18.1805C44.7912 19.237 44.3715 20.2502 43.6244 20.9973C42.8774 21.7443 41.8641 22.164 40.8077 22.164ZM78.9497 17.953C78.9497 13.607 75.2947 10.393 71.1227 10.393C67.3697 10.393 64.0287 13.558 64.0287 18.179V30.529H67.5387V23.861C68.7087 25.008 69.9227 25.514 71.6567 25.514C75.5767 25.514 78.9487 22.238 78.9487 17.953M75.6257 17.909C75.6257 18.9655 75.206 19.9787 74.4589 20.7258C73.7119 21.4728 72.6986 21.8925 71.6422 21.8925C70.5857 21.8925 69.5724 21.4728 68.8254 20.7258C68.0783 19.9787 67.6587 18.9655 67.6587 17.909C67.6587 16.8525 68.0783 15.8393 68.8254 15.0923C69.5724 14.3452 70.5857 13.9255 71.6422 13.9255C72.6986 13.9255 73.7119 14.3452 74.4589 15.0923C75.206 15.8393 75.6257 16.8525 75.6257 17.909Z" fill="white"/>
<path d="M90.2916 10.223V6.69601C90.7577 6.47818 91.1523 6.13245 91.4296 5.69907C91.7068 5.26568 91.8553 4.76247 91.8576 4.24801V4.16701C91.8576 2.66701 90.6416 1.45101 89.1416 1.45101H89.0606C88.3403 1.45101 87.6495 1.73716 87.1401 2.24651C86.6308 2.75585 86.3446 3.44668 86.3446 4.16701V4.24801C86.347 4.76247 86.4955 5.26568 86.7727 5.69907C87.0499 6.13245 87.4446 6.47818 87.9106 6.69601V10.223C86.5711 10.4281 85.3095 10.9835 84.2536 11.833L74.5806 4.29901C74.6496 4.05001 74.6856 3.79401 74.6896 3.53701C74.6908 2.93171 74.5125 2.33966 74.1771 1.83575C73.8418 1.33183 73.3645 0.938689 72.8057 0.706047C72.2469 0.473406 71.6317 0.411718 71.0378 0.528787C70.4439 0.645855 69.8981 0.936421 69.4694 1.36373C69.0407 1.79104 68.7484 2.33589 68.6294 2.92937C68.5104 3.52285 68.57 4.1383 68.8009 4.69786C69.0317 5.25742 69.4232 5.73596 69.9261 6.07294C70.4289 6.40992 71.0203 6.59021 71.6256 6.59101C72.1552 6.58851 72.6748 6.44714 73.1326 6.18101L82.6576 13.593C81.802 14.8857 81.3556 16.4061 81.3766 17.9562C81.3977 19.5063 81.8852 21.014 82.7756 22.283L79.8786 25.181C79.6445 25.1061 79.4005 25.0664 79.1546 25.063C78.6578 25.0634 78.1722 25.2111 77.7592 25.4874C77.3463 25.7636 77.0245 26.1561 76.8345 26.6152C76.6446 27.0744 76.595 27.5795 76.692 28.0668C76.7891 28.554 77.0284 29.0016 77.3797 29.353C77.731 29.7043 78.1786 29.9436 78.6659 30.0406C79.1532 30.1377 79.6583 30.0881 80.1174 29.8981C80.5765 29.7081 80.969 29.3864 81.2453 28.9734C81.5216 28.5604 81.6692 28.0749 81.6696 27.578C81.6664 27.3322 81.6266 27.0882 81.5516 26.854L84.4176 23.987C85.3522 24.7065 86.4391 25.2026 87.595 25.4371C88.7509 25.6717 89.9452 25.6386 91.0863 25.3403C92.2274 25.042 93.2851 24.4865 94.1784 23.7163C95.0716 22.9461 95.7768 21.9817 96.2397 20.8969C96.7027 19.812 96.9112 18.6357 96.8493 17.4578C96.7874 16.28 96.4567 15.132 95.8825 14.1017C95.3084 13.0714 94.5061 12.1862 93.537 11.5139C92.5679 10.8416 91.4577 10.4 90.2916 10.223ZM89.1036 21.823C88.574 21.8376 88.0468 21.7458 87.5531 21.5532C87.0595 21.3606 86.6095 21.071 86.2297 20.7015C85.8499 20.332 85.5481 19.8901 85.3419 19.402C85.1358 18.9139 85.0296 18.3894 85.0296 17.8595C85.0296 17.3296 85.1358 16.8051 85.3419 16.317C85.5481 15.8289 85.8499 15.387 86.2297 15.0175C86.6095 14.648 87.0595 14.3584 87.5531 14.1658C88.0468 13.9732 88.574 13.8814 89.1036 13.896C90.1302 13.932 91.1028 14.3649 91.8165 15.1037C92.5302 15.8424 92.9294 16.8294 92.9299 17.8566C92.9304 18.8838 92.5322 19.8711 91.8193 20.6106C91.1063 21.3501 90.1342 21.784 89.1076 21.821" fill="#FF7A59"/>
</svg>
