<svg width="128" height="128" viewBox="0 0 128 128" fill="none" xmlns="http://www.w3.org/2000/svg">
<path d="M116.487 66.0101L116.324 60.575C116.306 59.8093 116.024 59.0733 115.525 58.492C115.027 57.9108 114.342 57.5201 113.588 57.3864C113.365 57.3684 113.141 57.3684 112.918 57.3864L110.218 57.4226C109.447 57.4489 108.691 57.2041 108.082 56.7307C107.473 56.2574 107.049 55.5854 106.885 54.8319C106.776 54.3065 106.649 53.7992 106.522 53.2919C106.269 52.2955 105.997 51.3172 105.671 50.3751C104.496 46.748 102.832 43.2981 100.725 40.1209L100.598 39.9216C100.205 39.3077 100.025 38.582 100.083 37.8556C100.142 37.1293 100.438 36.4422 100.924 35.8996L102.627 34.0879C102.931 33.7741 103.169 33.403 103.328 32.9964C103.487 32.5897 103.564 32.1556 103.554 31.719C103.544 31.2825 103.447 30.8523 103.269 30.4535C103.091 30.0546 102.836 29.695 102.518 29.3956L100.978 27.9281L98.1341 25.1924C97.8218 24.8894 97.4523 24.6515 97.0472 24.4927C96.642 24.3339 96.2093 24.2573 95.7743 24.2675C95.3392 24.2776 94.9105 24.3742 94.5132 24.5517C94.1158 24.7291 93.7578 24.9839 93.4599 25.3012L91.8475 26.9679C91.3243 27.5099 90.6329 27.8586 89.8861 27.9573C89.1393 28.056 88.381 27.8988 87.735 27.5114C82.9054 24.4373 77.5091 22.3614 71.8645 21.406C71.1137 21.2756 70.4317 20.8878 69.9358 20.3092C69.4399 19.7306 69.1609 18.9974 69.1469 18.2355V15.826C69.1352 15.3905 69.0377 14.9617 68.8602 14.5639C68.6826 14.1661 68.4285 13.8072 68.1121 13.5078C67.7958 13.2083 67.4236 12.9741 67.0167 12.8185C66.6099 12.6629 66.1763 12.5891 65.7409 12.6011L59.6898 12.7642C59.252 12.7759 58.8208 12.8738 58.4208 13.0523C58.0209 13.2307 57.66 13.4863 57.3588 13.8042C57.0577 14.1222 56.8221 14.4965 56.6656 14.9055C56.5092 15.3146 56.4348 15.7505 56.4469 16.1883L56.5918 21.6234C55.849 21.7864 55.1243 21.9314 54.3815 22.1307C49.2611 23.4052 44.4209 25.6164 40.1053 28.6528C39.4809 29.0873 38.726 29.2939 37.9673 29.2378C37.2086 29.1817 36.4922 28.8664 35.9384 28.3448L34.1267 26.5331C33.4876 25.9254 32.6347 25.5942 31.7529 25.6111C30.8712 25.6281 30.0316 25.9919 29.4163 26.6237L25.0682 31.0261C24.4628 31.6592 24.1325 32.5061 24.1494 33.3819C24.1664 34.2577 24.5293 35.0912 25.1588 35.7003L27.3691 37.7113C27.9052 38.2223 28.2525 38.8998 28.3545 39.6334C28.4565 40.367 28.3071 41.1135 27.9307 41.7514C25.1153 46.4633 23.2332 51.6731 22.3869 57.0965C22.2581 57.8528 21.8724 58.5415 21.2948 59.0465C20.7172 59.5515 19.9832 59.8418 19.2164 59.8684L14.8502 59.9771C14.4156 59.9888 13.9876 60.0863 13.5908 60.2641C13.194 60.4419 12.8363 60.6964 12.5383 61.013C12.2402 61.3295 12.0077 61.7019 11.8542 62.1087C11.7006 62.5154 11.629 62.9485 11.6435 63.3831L11.8066 69.4523C11.8183 69.8877 11.9157 70.3166 12.0933 70.7144C12.2708 71.1121 12.525 71.471 12.8413 71.7705C13.1577 72.07 13.5299 72.3042 13.9367 72.4598C14.3436 72.6153 14.7772 72.6892 15.2126 72.6771L22.7674 72.4778C22.8942 73.0757 23.0391 73.6736 23.1841 74.2895C24.4248 79.2394 26.5417 83.9271 29.4344 88.1309C29.8662 88.7554 30.0679 89.5104 30.0051 90.267C29.9423 91.0236 29.619 91.7349 29.0902 92.2797L25.4668 96.0118C25.166 96.3253 24.9301 96.6952 24.7726 97.1001C24.6152 97.5051 24.5394 97.9372 24.5495 98.3715C24.5596 98.8059 24.6554 99.234 24.8315 99.6312C25.0076 100.028 25.2604 100.387 25.5755 100.686L26.8799 101.954L29.9417 104.907C30.5667 105.531 31.4138 105.882 32.2969 105.882C33.1801 105.882 34.0271 105.531 34.6521 104.907L38.2755 101.066C38.7877 100.526 39.4686 100.176 40.2061 100.074C40.9437 99.9718 41.694 100.124 42.3337 100.505C45.5826 102.481 49.0796 104.016 52.7329 105.07C53.8519 105.416 54.989 105.7 56.1389 105.922C56.8623 106.076 57.5128 106.469 57.986 107.037C58.4591 107.606 58.7274 108.317 58.7477 109.056L58.8746 114.002V114.256C58.8927 114.701 59.0004 115.138 59.1913 115.541C59.3821 115.943 59.6522 116.303 59.9854 116.599C60.3185 116.895 60.7079 117.121 61.1303 117.263C61.5527 117.405 61.9993 117.461 62.4436 117.426L68.549 117.299C68.9837 117.288 69.4117 117.19 69.8085 117.012C70.2053 116.835 70.563 116.58 70.861 116.263C71.1591 115.947 71.3915 115.575 71.5451 115.168C71.6987 114.761 71.7702 114.328 71.7558 113.893L71.6471 109.147C71.6238 108.361 71.8699 107.592 72.3444 106.965C72.819 106.339 73.4935 105.894 74.2559 105.704L75.3429 105.433C79.948 104.282 84.3269 102.365 88.2966 99.762C88.9215 99.3592 89.6642 99.1793 90.4041 99.2517C91.1441 99.324 91.8379 99.6443 92.3729 100.161L95.9963 103.657C96.6332 104.269 97.4871 104.604 98.3703 104.587C99.2535 104.57 100.094 104.203 100.707 103.567L104.91 99.1823C105.528 98.5581 105.875 97.7149 105.875 96.8362C105.875 95.9574 105.528 95.1142 104.91 94.49L101.522 91.2289C100.968 90.704 100.615 90.0013 100.526 89.2431C100.436 88.485 100.616 87.7196 101.033 87.0801C103.856 82.6869 105.863 77.8199 106.957 72.7134C107.121 71.9982 107.518 71.3576 108.085 70.892C108.652 70.4265 109.358 70.1623 110.091 70.1407H113.371C114.237 70.0848 115.048 69.6947 115.633 69.0526C116.217 68.4105 116.53 67.5665 116.505 66.6985L116.487 66.0101ZM51.9539 90.6673C49.0249 89.1775 46.3719 87.1985 44.1092 84.8155C41.3886 82.0985 39.2299 78.8723 37.7561 75.321C36.2824 71.7697 35.5226 67.9629 35.5201 64.1179C35.515 56.3527 38.5948 48.9035 44.082 43.4091C49.5693 37.9147 57.0144 34.8251 64.7796 34.82C72.5448 34.8149 79.994 37.8947 85.4884 43.3819C87.6472 45.3801 89.4809 47.7029 90.9235 50.2664C92.2208 52.5381 93.2021 54.9762 93.8404 57.5132C94.1919 58.9315 94.4461 60.3721 94.6013 61.825C95.0106 66.0421 94.4998 70.2978 93.1041 74.2982C91.7084 78.2986 89.461 81.9484 86.5172 84.9955C83.5734 88.0427 80.0033 90.4146 76.0534 91.9475C72.1035 93.4804 67.868 94.1377 63.6393 93.874C59.5594 93.6546 55.5743 92.561 51.9539 90.6673Z" fill="#F88401" stroke="#01090F" stroke-width="0.8" stroke-linecap="round" stroke-linejoin="round"/>
<mask id="mask0_1081_3187" style="mask-type:alpha" maskUnits="userSpaceOnUse" x="11" y="12" width="106" height="106">
<path d="M116.487 66.013L116.324 60.5779C116.306 59.8122 116.024 59.0762 115.525 58.495C115.027 57.9137 114.342 57.523 113.588 57.3893C113.365 57.3714 113.141 57.3714 112.918 57.3893L110.218 57.4255C109.447 57.4518 108.691 57.207 108.082 56.7336C107.473 56.2603 107.049 55.5884 106.885 54.8348C106.776 54.3094 106.649 53.8021 106.522 53.2948C106.269 52.2984 105.997 51.3201 105.671 50.378C104.496 46.7509 102.832 43.3011 100.725 40.1238L100.598 39.9245C100.205 39.3106 100.025 38.5849 100.083 37.8586C100.142 37.1322 100.438 36.4451 100.924 35.9025L102.627 34.0908C102.931 33.777 103.169 33.406 103.328 32.9993C103.487 32.5927 103.564 32.1585 103.554 31.722C103.544 31.2854 103.447 30.8553 103.269 30.4564C103.091 30.0576 102.836 29.698 102.518 29.3985L100.978 27.931L98.1341 25.1954C97.8218 24.8923 97.4523 24.6545 97.0472 24.4957C96.642 24.3368 96.2093 24.2603 95.7743 24.2704C95.3392 24.2805 94.9105 24.3771 94.5132 24.5546C94.1159 24.7321 93.7578 24.9868 93.4599 25.3041L91.8475 26.9708C91.3243 27.5128 90.6329 27.8615 89.8861 27.9602C89.1393 28.0589 88.381 27.9018 87.735 27.5144C82.9054 24.4402 77.5091 22.3643 71.8645 21.4089C71.1137 21.2785 70.4317 20.8907 69.9358 20.3122C69.4399 19.7336 69.1609 19.0003 69.1469 18.2384V15.8289C69.1352 15.3934 69.0378 14.9646 68.8602 14.5668C68.6827 14.1691 68.4285 13.8102 68.1121 13.5107C67.7958 13.2112 67.4236 12.977 67.0168 12.8214C66.6099 12.6659 66.1763 12.592 65.7409 12.6041L59.6898 12.7671C59.252 12.7788 58.8208 12.8767 58.4208 13.0552C58.0209 13.2337 57.66 13.4892 57.3588 13.8072C57.0577 14.1252 56.8221 14.4994 56.6656 14.9085C56.5092 15.3175 56.4348 15.7534 56.4469 16.1912L56.5918 21.6263C55.849 21.7894 55.1243 21.9343 54.3816 22.1336C49.2611 23.4081 44.4209 25.6194 40.1053 28.6557C39.4809 29.0903 38.726 29.2968 37.9673 29.2407C37.2086 29.1847 36.4922 28.8694 35.9384 28.3477L34.1267 26.536C33.4876 25.9284 32.6347 25.5971 31.7529 25.6141C30.8712 25.631 30.0316 25.9948 29.4163 26.6266L25.0682 31.0291C24.4628 31.6621 24.1325 32.509 24.1494 33.3848C24.1664 34.2606 24.5293 35.0941 25.1588 35.7032L27.3691 37.7142C27.9052 38.2253 28.2525 38.9027 28.3545 39.6363C28.4565 40.3699 28.3071 41.1164 27.9307 41.7543C25.1153 46.4663 23.2332 51.6761 22.3869 57.0994C22.2581 57.8557 21.8724 58.5445 21.2948 59.0494C20.7173 59.5544 19.9832 59.8447 19.2164 59.8713L14.8502 59.98C14.4156 59.9917 13.9876 60.0893 13.5908 60.2671C13.194 60.4448 12.8363 60.6993 12.5383 61.0159C12.2402 61.3324 12.0077 61.7048 11.8542 62.1116C11.7006 62.5184 11.629 62.9515 11.6435 63.386L11.8066 69.4552C11.8183 69.8907 11.9157 70.3195 12.0933 70.7173C12.2708 71.1151 12.525 71.4739 12.8413 71.7734C13.1577 72.0729 13.5299 72.3071 13.9367 72.4627C14.3436 72.6182 14.7772 72.6921 15.2126 72.68L22.7674 72.4808C22.8942 73.0786 23.0391 73.6765 23.1841 74.2925C24.4248 79.2423 26.5417 83.93 29.4344 88.1339C29.8662 88.7583 30.0679 89.5133 30.0051 90.2699C29.9423 91.0265 29.619 91.7379 29.0902 92.2827L25.4668 96.0148C25.166 96.3282 24.9301 96.6981 24.7726 97.103C24.6152 97.508 24.5394 97.9401 24.5495 98.3745C24.5596 98.8088 24.6554 99.2369 24.8315 99.6341C25.0076 100.031 25.2604 100.39 25.5755 100.689L26.8799 101.957L29.9417 104.91C30.5667 105.534 31.4138 105.885 32.2969 105.885C33.1801 105.885 34.0271 105.534 34.6521 104.91L38.2755 101.069C38.7877 100.529 39.4686 100.179 40.2061 100.077C40.9437 99.9748 41.694 100.127 42.3337 100.508C45.5826 102.484 49.0796 104.019 52.7329 105.073C53.8519 105.419 54.989 105.703 56.1389 105.925C56.8623 106.079 57.5128 106.472 57.986 107.04C58.4591 107.609 58.7274 108.32 58.7477 109.059L58.8746 114.005V114.259C58.8927 114.704 59.0004 115.141 59.1913 115.544C59.3821 115.946 59.6522 116.306 59.9854 116.602C60.3185 116.898 60.7079 117.124 61.1303 117.266C61.5527 117.408 61.9993 117.464 62.4436 117.429L68.549 117.302C68.9837 117.291 69.4117 117.193 69.8085 117.015C70.2053 116.837 70.563 116.583 70.861 116.266C71.1591 115.95 71.3915 115.577 71.5451 115.171C71.6987 114.764 71.7702 114.331 71.7558 113.896L71.6471 109.15C71.6238 108.364 71.8699 107.595 72.3444 106.968C72.819 106.342 73.4935 105.897 74.2559 105.707L75.3429 105.436C79.9481 104.285 84.3269 102.368 88.2966 99.765C88.9215 99.3621 89.6642 99.1822 90.4041 99.2546C91.1441 99.3269 91.8379 99.6473 92.3729 100.164L95.9963 103.66C96.6332 104.272 97.4871 104.606 98.3703 104.59C99.2535 104.573 100.094 104.206 100.707 103.57L104.91 99.1852C105.528 98.561 105.875 97.7178 105.875 96.8391C105.875 95.9604 105.528 95.1172 104.91 94.4929L101.522 91.2319C100.968 90.7069 100.615 90.0042 100.526 89.2461C100.436 88.488 100.616 87.7225 101.033 87.0831C103.856 82.6899 105.863 77.8228 106.957 72.7163C107.121 72.0011 107.518 71.3605 108.085 70.895C108.652 70.4294 109.358 70.1652 110.091 70.1437H113.371C114.237 70.0877 115.048 69.6976 115.633 69.0555C116.217 68.4134 116.53 67.5695 116.505 66.7014L116.487 66.013ZM51.9539 90.6702C49.0249 89.1805 46.3719 87.2014 44.1092 84.8184C41.3886 82.1014 39.2299 78.8752 37.7561 75.3239C36.2824 71.7726 35.5226 67.9658 35.5201 64.1209C35.515 56.3557 38.5948 48.9065 44.082 43.412C49.5693 37.9176 57.0144 34.828 64.7796 34.8229C72.5448 34.8178 79.994 37.8976 85.4884 43.3849C87.6472 45.383 89.4809 47.7058 90.9236 50.2693C92.2208 52.5411 93.2021 54.9791 93.8404 57.5161C94.1919 58.9344 94.4461 60.375 94.6013 61.828C95.0107 66.045 94.4998 70.3007 93.1041 74.3011C91.7084 78.3015 89.461 81.9513 86.5172 84.9985C83.5734 88.0456 80.0033 90.4175 76.0534 91.9504C72.1035 93.4833 67.868 94.1406 63.6393 93.877C59.5594 93.6575 55.5743 92.5639 51.9539 90.6702Z" fill="#97DDE5" stroke="#01090F" stroke-width="0.8" stroke-linecap="round" stroke-linejoin="round"/>
</mask>
<g mask="url(#mask0_1081_3187)">
<path d="M98.6 75.5C98.6 105.408 76.1413 129.6 48.5 129.6C20.8587 129.6 -1.6 105.408 -1.6 75.5C-1.6 45.5921 20.8587 21.4 48.5 21.4C76.1413 21.4 98.6 45.5921 98.6 75.5Z" fill="#294C6A" stroke="#01090F" stroke-width="0.8"/>
</g>
<path d="M116.487 66.0101L116.324 60.575C116.306 59.8093 116.024 59.0733 115.525 58.492C115.027 57.9108 114.342 57.5201 113.588 57.3864C113.365 57.3684 113.141 57.3684 112.918 57.3864L110.218 57.4226C109.447 57.4489 108.691 57.2041 108.082 56.7307C107.473 56.2574 107.049 55.5854 106.885 54.8319C106.776 54.3065 106.649 53.7992 106.522 53.2919C106.269 52.2955 105.997 51.3172 105.671 50.3751C104.496 46.748 102.832 43.2981 100.725 40.1209L100.598 39.9216C100.205 39.3077 100.025 38.582 100.083 37.8556C100.142 37.1293 100.438 36.4422 100.924 35.8996L102.627 34.0879C102.931 33.7741 103.169 33.403 103.328 32.9964C103.487 32.5897 103.564 32.1556 103.554 31.719C103.544 31.2825 103.447 30.8523 103.269 30.4535C103.091 30.0546 102.836 29.695 102.518 29.3956L100.978 27.9281L98.1341 25.1924C97.8218 24.8894 97.4523 24.6515 97.0472 24.4927C96.642 24.3339 96.2093 24.2573 95.7742 24.2675C95.3392 24.2776 94.9105 24.3742 94.5132 24.5517C94.1158 24.7291 93.7578 24.9839 93.4599 25.3012L91.8475 26.9679C91.3243 27.5099 90.6329 27.8586 89.8861 27.9573C89.1393 28.056 88.381 27.8988 87.735 27.5114C82.9054 24.4373 77.5091 22.3614 71.8645 21.406C71.1137 21.2756 70.4317 20.8878 69.9358 20.3092C69.4399 19.7307 69.1609 18.9974 69.1469 18.2355V15.826C69.1352 15.3905 69.0377 14.9617 68.8602 14.5639C68.6826 14.1661 68.4285 13.8072 68.1121 13.5078C67.7958 13.2083 67.4236 12.9741 67.0167 12.8185C66.6099 12.6629 66.1763 12.5891 65.7409 12.6011L59.6898 12.7642C59.252 12.7759 58.8208 12.8738 58.4208 13.0523C58.0209 13.2307 57.66 13.4863 57.3588 13.8042C57.0577 14.1222 56.8221 14.4965 56.6656 14.9055C56.5092 15.3146 56.4348 15.7505 56.4469 16.1883L56.5918 21.6234C55.849 21.7864 55.1243 21.9314 54.3815 22.1307C49.2611 23.4052 44.4209 25.6164 40.1053 28.6528C39.4809 29.0873 38.726 29.2939 37.9673 29.2378C37.2086 29.1817 36.4922 28.8664 35.9384 28.3448L34.1267 26.5331C33.4876 25.9254 32.6347 25.5942 31.7529 25.6111C30.8712 25.6281 30.0316 25.9919 29.4163 26.6237L25.0682 31.0261C24.4628 31.6592 24.1325 32.5061 24.1494 33.3819C24.1664 34.2577 24.5293 35.0912 25.1588 35.7003L27.3691 37.7113C27.9052 38.2223 28.2525 38.8998 28.3545 39.6334C28.4565 40.367 28.3071 41.1135 27.9307 41.7514C25.1153 46.4633 23.2332 51.6731 22.3869 57.0965C22.2581 57.8528 21.8724 58.5415 21.2948 59.0465C20.7172 59.5515 19.9832 59.8418 19.2164 59.8684L14.8502 59.9771C14.4156 59.9888 13.9876 60.0864 13.5908 60.2641C13.194 60.4419 12.8363 60.6964 12.5383 61.0129C12.2402 61.3295 12.0077 61.7019 11.8542 62.1087C11.7006 62.5154 11.629 62.9485 11.6435 63.3831L11.8066 69.4523C11.8183 69.8877 11.9157 70.3166 12.0933 70.7144C12.2708 71.1121 12.525 71.471 12.8413 71.7705C13.1577 72.07 13.5299 72.3042 13.9367 72.4598C14.3436 72.6153 14.7772 72.6892 15.2126 72.6771L22.7674 72.4778C22.8942 73.0757 23.0391 73.6736 23.1841 74.2895C24.4248 79.2394 26.5417 83.9271 29.4344 88.1309C29.8662 88.7554 30.0679 89.5104 30.0051 90.267C29.9423 91.0236 29.619 91.7349 29.0902 92.2797L25.4668 96.0118C25.166 96.3253 24.9301 96.6952 24.7726 97.1001C24.6152 97.5051 24.5394 97.9372 24.5495 98.3715C24.5596 98.8059 24.6554 99.234 24.8315 99.6312C25.0076 100.028 25.2604 100.387 25.5755 100.686L26.8799 101.954L29.9417 104.907C30.5667 105.531 31.4138 105.882 32.2969 105.882C33.1801 105.882 34.0271 105.531 34.6521 104.907L38.2755 101.066C38.7877 100.526 39.4686 100.176 40.2061 100.074C40.9437 99.9718 41.694 100.124 42.3337 100.505V100.505C45.5826 102.481 49.0796 104.016 52.7329 105.07C53.8519 105.416 54.989 105.7 56.1389 105.922C56.8623 106.076 57.5128 106.469 57.986 107.037C58.4591 107.606 58.7274 108.317 58.7477 109.056L58.8746 114.002V114.256C58.8927 114.701 59.0004 115.138 59.1913 115.541C59.3821 115.943 59.6522 116.303 59.9854 116.599C60.3185 116.895 60.7079 117.121 61.1303 117.263C61.5527 117.405 61.9993 117.461 62.4436 117.426L68.549 117.299C68.9837 117.288 69.4117 117.19 69.8085 117.012C70.2053 116.835 70.563 116.58 70.861 116.263C71.1591 115.947 71.3915 115.575 71.5451 115.168C71.6987 114.761 71.7702 114.328 71.7558 113.893L71.6471 109.147C71.6238 108.361 71.8699 107.592 72.3444 106.965C72.819 106.339 73.4935 105.894 74.2559 105.704L75.3429 105.433C79.948 104.282 84.3269 102.365 88.2966 99.762C88.9215 99.3592 89.6642 99.1793 90.4041 99.2517C91.1441 99.324 91.8379 99.6443 92.3729 100.161L95.9963 103.657C96.6332 104.269 97.4871 104.604 98.3703 104.587C99.2535 104.57 100.094 104.203 100.707 103.567L104.91 99.1823C105.528 98.5581 105.875 97.7149 105.875 96.8362C105.875 95.9574 105.528 95.1142 104.91 94.49L101.522 91.2289C100.968 90.704 100.615 90.0013 100.526 89.2431C100.436 88.485 100.616 87.7196 101.033 87.0801C103.856 82.6869 105.863 77.8199 106.957 72.7134C107.121 71.9982 107.518 71.3576 108.085 70.892C108.652 70.4265 109.358 70.1623 110.091 70.1407H113.371C114.237 70.0848 115.048 69.6947 115.633 69.0526C116.217 68.4105 116.53 67.5665 116.505 66.6985L116.487 66.0101ZM51.9539 90.6673C49.0249 89.1775 46.3719 87.1985 44.1092 84.8155C41.3886 82.0985 39.2299 78.8723 37.7561 75.321C36.2824 71.7697 35.5226 67.9629 35.5201 64.1179C35.515 56.3527 38.5948 48.9035 44.082 43.4091C49.5693 37.9147 57.0144 34.8251 64.7796 34.82C72.5448 34.8149 79.994 37.8947 85.4884 43.3819C87.6472 45.3801 89.4809 47.7029 90.9235 50.2664C92.2208 52.5381 93.2021 54.9762 93.8404 57.5132C94.1919 58.9315 94.4461 60.3721 94.6013 61.825V61.825C95.0107 66.0421 94.4998 70.2978 93.1041 74.2982C91.7084 78.2986 89.461 81.9484 86.5172 84.9955C83.5734 88.0427 80.0033 90.4146 76.0534 91.9475C72.1035 93.4804 67.868 94.1377 63.6393 93.874C59.5594 93.6546 55.5743 92.561 51.9539 90.6673V90.6673Z" stroke="#01090F" stroke-width="0.8" stroke-linecap="round" stroke-linejoin="round"/>
</svg>
