<svg width="128" height="128" viewBox="0 0 128 128" fill="none" xmlns="http://www.w3.org/2000/svg">
<path d="M101.791 95.4021L63.0143 112.698C56.5981 115.488 49.066 112.698 45.9974 106.282L34.2809 79.78L96.4902 52.1624L108.207 78.6641C111.275 84.8014 108.207 92.6124 101.791 95.4021Z" fill="#97DDE5" stroke="#01090F" stroke-width="0.8" stroke-miterlimit="10" stroke-linecap="round" stroke-linejoin="round"/>
<path d="M97.0472 51.8846L33.722 79.7811C28.9796 82.0129 23.4002 79.7812 21.1685 75.0388L18.3789 68.6225C16.1471 63.8801 18.3789 58.3008 23.1213 56.069L86.4465 28.1725C91.1889 25.9407 96.7683 28.1725 99 32.9149L101.79 39.3311C104.021 44.0735 101.79 49.6528 97.0472 51.8846Z" fill="#294C6A" stroke="#01090F" stroke-width="0.8" stroke-miterlimit="10" stroke-linecap="round" stroke-linejoin="round"/>
<path d="M54.9237 42.1205L49.9023 30.404C47.6705 25.3826 48.7864 19.2453 53.2499 15.6187C54.9237 14.2239 56.8764 13.1081 59.3871 12.5502C65.2454 11.1554 71.3826 13.666 74.7302 18.6874C77.2409 22.3139 78.6357 27.6143 73.8933 33.7515L54.9237 42.1205Z" stroke="#01090F" stroke-width="0.8" stroke-miterlimit="10" stroke-linecap="round" stroke-linejoin="round"/>
<path d="M54.0855 42.4017L49.0642 30.6852C46.8324 25.6638 41.5321 22.3162 35.9528 23.1531C33.721 23.432 31.7683 24.2689 29.5365 25.6637C24.5152 29.0113 22.2834 35.1486 23.6783 41.0069C24.7941 45.4703 27.8627 49.9338 35.3948 50.4917L54.0855 42.4017Z" stroke="#01090F" stroke-width="0.8" stroke-miterlimit="10" stroke-linecap="round" stroke-linejoin="round"/>
<path d="M63.6054 38.2583L47.0284 45.6057L74.4964 107.578L91.0734 100.231L63.6054 38.2583Z" fill="#F88401" stroke="#01090F" stroke-width="0.8" stroke-miterlimit="10" stroke-linecap="round" stroke-linejoin="round"/>
</svg>
