<svg width="128" height="128" viewBox="0 0 128 128" fill="none" xmlns="http://www.w3.org/2000/svg">
<path d="M109.568 63.9635C109.568 69.2311 108.627 74.1225 107.122 78.8258C105.993 81.8359 104.676 84.6578 103.171 87.2917C100.914 91.0543 97.9037 94.6288 94.7055 97.6388C94.1411 98.2032 93.5767 98.5795 93.0123 99.1439C90.0022 101.59 86.4277 103.847 82.6651 105.352C79.2788 106.857 75.5161 107.986 71.7535 108.55C69.3078 108.927 67.0503 109.115 64.4164 109.115C44.8509 109.115 28.1072 96.6982 21.8989 79.202C21.3345 77.697 20.9583 76.3801 20.582 74.875C20.0176 72.4293 19.6413 69.7955 19.4532 67.1617C19.2651 66.0329 19.2651 65.0922 19.2651 63.9635C19.2651 61.894 19.4532 59.8246 19.6413 57.7552C19.6413 57.1908 19.8295 56.8145 19.8295 56.2501C20.3939 53.24 21.1464 50.2299 22.2752 47.408C23.5921 43.8335 25.4734 40.6353 27.731 37.6252C36.0087 26.3373 49.1779 19.0002 64.4164 19.0002C76.2687 19.0002 86.9921 23.5154 95.0817 31.0406C95.458 31.4169 95.8343 31.7931 96.2105 32.1694C98.28 34.0507 99.9731 36.3083 101.478 38.5658C103.359 41.3878 105.053 44.586 106.37 47.7842C107.122 49.6655 107.686 51.5468 108.063 53.4282C109.003 56.8145 109.568 60.389 109.568 63.9635Z" fill="#9BCDFB" stroke="#01090F" stroke-width="0.8" stroke-miterlimit="10" stroke-linecap="round" stroke-linejoin="round"/>
<mask id="path-3-inside-1_1081_3028" fill="white">
<path d="M35.9254 50.0417C34.9848 48.3485 33.2916 47.2197 31.2222 47.2197H21.8156C20.6869 50.0417 19.9343 53.0518 19.3699 56.0619H17.8649C17.6768 56.0619 17.4886 56.0619 17.3005 56.0619C17.8649 56.6263 18.4293 57.1906 19.1818 57.5669C18.8055 59.6363 18.8055 61.7058 18.8055 63.7752C18.8055 64.904 18.8055 66.0328 18.9937 66.9734C19.1818 69.6073 19.5581 72.2411 20.1225 74.6868H23.8851C24.4495 74.6868 25.0139 74.4987 25.3901 74.4987C26.3308 74.3105 27.0833 73.7461 27.6477 73.1818C28.2121 72.4292 38.183 53.0518 35.9254 50.0417Z"/>
</mask>
<path d="M35.9254 50.0417C34.9848 48.3485 33.2916 47.2197 31.2222 47.2197H21.8156C20.6869 50.0417 19.9343 53.0518 19.3699 56.0619H17.8649C17.6768 56.0619 17.4886 56.0619 17.3005 56.0619C17.8649 56.6263 18.4293 57.1906 19.1818 57.5669C18.8055 59.6363 18.8055 61.7058 18.8055 63.7752C18.8055 64.904 18.8055 66.0328 18.9937 66.9734C19.1818 69.6073 19.5581 72.2411 20.1225 74.6868H23.8851C24.4495 74.6868 25.0139 74.4987 25.3901 74.4987C26.3308 74.3105 27.0833 73.7461 27.6477 73.1818C28.2121 72.4292 38.183 53.0518 35.9254 50.0417Z" fill="#294C6A"/>
<path d="M35.9254 50.0417L35.2261 50.4302L35.2526 50.478L35.2854 50.5217L35.9254 50.0417ZM21.8156 47.2197V46.4197H21.274L21.0729 46.9226L21.8156 47.2197ZM19.3699 56.0619V56.8619H20.0339L20.1562 56.2093L19.3699 56.0619ZM17.3005 56.0619V55.2619H15.3691L16.7348 56.6275L17.3005 56.0619ZM19.1818 57.5669L19.9689 57.71L20.0762 57.1197L19.5396 56.8514L19.1818 57.5669ZM18.9937 66.9734L19.7916 66.9164L19.788 66.8661L19.7781 66.8165L18.9937 66.9734ZM20.1225 74.6868L19.3429 74.8667L19.4861 75.4868H20.1225V74.6868ZM25.3901 74.4987V75.2987H25.4693L25.547 75.2831L25.3901 74.4987ZM27.6477 73.1818L28.2134 73.7474L28.2536 73.7072L28.2877 73.6618L27.6477 73.1818ZM36.6248 49.6532C35.5561 47.7296 33.6082 46.4197 31.2222 46.4197V48.0197C32.975 48.0197 34.4134 48.9674 35.2261 50.4302L36.6248 49.6532ZM31.2222 46.4197H21.8156V48.0197H31.2222V46.4197ZM21.0729 46.9226C19.9178 49.8103 19.1534 52.8756 18.5836 55.9144L20.1562 56.2093C20.7152 53.228 21.4559 50.2731 22.5584 47.5168L21.0729 46.9226ZM19.3699 55.2619H17.8649V56.8619H19.3699V55.2619ZM17.8649 55.2619C17.8645 55.2619 17.8642 55.2619 17.8638 55.2619C17.8634 55.2619 17.8631 55.2619 17.8627 55.2619C17.8623 55.2619 17.862 55.2619 17.8616 55.2619C17.8612 55.2619 17.8609 55.2619 17.8605 55.2619C17.8601 55.2619 17.8598 55.2619 17.8594 55.2619C17.859 55.2619 17.8586 55.2619 17.8583 55.2619C17.8579 55.2619 17.8575 55.2619 17.8572 55.2619C17.8568 55.2619 17.8564 55.2619 17.8561 55.2619C17.8557 55.2619 17.8553 55.2619 17.855 55.2619C17.8546 55.2619 17.8542 55.2619 17.8539 55.2619C17.8535 55.2619 17.8531 55.2619 17.8528 55.2619C17.8524 55.2619 17.852 55.2619 17.8517 55.2619C17.8513 55.2619 17.8509 55.2619 17.8506 55.2619C17.8502 55.2619 17.8498 55.2619 17.8495 55.2619C17.8491 55.2619 17.8487 55.2619 17.8484 55.2619C17.848 55.2619 17.8476 55.2619 17.8473 55.2619C17.8469 55.2619 17.8465 55.2619 17.8462 55.2619C17.8458 55.2619 17.8454 55.2619 17.8451 55.2619C17.8447 55.2619 17.8443 55.2619 17.844 55.2619C17.8436 55.2619 17.8432 55.2619 17.8428 55.2619C17.8425 55.2619 17.8421 55.2619 17.8417 55.2619C17.8414 55.2619 17.841 55.2619 17.8406 55.2619C17.8403 55.2619 17.8399 55.2619 17.8395 55.2619C17.8392 55.2619 17.8388 55.2619 17.8384 55.2619C17.8381 55.2619 17.8377 55.2619 17.8373 55.2619C17.837 55.2619 17.8366 55.2619 17.8362 55.2619C17.8359 55.2619 17.8355 55.2619 17.8351 55.2619C17.8348 55.2619 17.8344 55.2619 17.834 55.2619C17.8337 55.2619 17.8333 55.2619 17.8329 55.2619C17.8326 55.2619 17.8322 55.2619 17.8318 55.2619C17.8315 55.2619 17.8311 55.2619 17.8307 55.2619C17.8304 55.2619 17.83 55.2619 17.8296 55.2619C17.8293 55.2619 17.8289 55.2619 17.8285 55.2619C17.8282 55.2619 17.8278 55.2619 17.8274 55.2619C17.827 55.2619 17.8267 55.2619 17.8263 55.2619C17.8259 55.2619 17.8256 55.2619 17.8252 55.2619C17.8248 55.2619 17.8245 55.2619 17.8241 55.2619C17.8237 55.2619 17.8234 55.2619 17.823 55.2619C17.8226 55.2619 17.8223 55.2619 17.8219 55.2619C17.8215 55.2619 17.8212 55.2619 17.8208 55.2619C17.8204 55.2619 17.8201 55.2619 17.8197 55.2619C17.8193 55.2619 17.819 55.2619 17.8186 55.2619C17.8182 55.2619 17.8179 55.2619 17.8175 55.2619C17.8171 55.2619 17.8168 55.2619 17.8164 55.2619C17.816 55.2619 17.8157 55.2619 17.8153 55.2619C17.8149 55.2619 17.8146 55.2619 17.8142 55.2619C17.8138 55.2619 17.8135 55.2619 17.8131 55.2619C17.8127 55.2619 17.8124 55.2619 17.812 55.2619C17.8116 55.2619 17.8112 55.2619 17.8109 55.2619C17.8105 55.2619 17.8101 55.2619 17.8098 55.2619C17.8094 55.2619 17.809 55.2619 17.8087 55.2619C17.8083 55.2619 17.8079 55.2619 17.8076 55.2619C17.8072 55.2619 17.8068 55.2619 17.8065 55.2619C17.8061 55.2619 17.8057 55.2619 17.8054 55.2619C17.805 55.2619 17.8046 55.2619 17.8043 55.2619C17.8039 55.2619 17.8035 55.2619 17.8032 55.2619C17.8028 55.2619 17.8024 55.2619 17.8021 55.2619C17.8017 55.2619 17.8013 55.2619 17.801 55.2619C17.8006 55.2619 17.8002 55.2619 17.7999 55.2619C17.7995 55.2619 17.7991 55.2619 17.7988 55.2619C17.7984 55.2619 17.798 55.2619 17.7977 55.2619C17.7973 55.2619 17.7969 55.2619 17.7966 55.2619C17.7962 55.2619 17.7958 55.2619 17.7954 55.2619C17.7951 55.2619 17.7947 55.2619 17.7943 55.2619C17.794 55.2619 17.7936 55.2619 17.7932 55.2619C17.7929 55.2619 17.7925 55.2619 17.7921 55.2619C17.7918 55.2619 17.7914 55.2619 17.791 55.2619C17.7907 55.2619 17.7903 55.2619 17.7899 55.2619C17.7896 55.2619 17.7892 55.2619 17.7888 55.2619C17.7885 55.2619 17.7881 55.2619 17.7877 55.2619C17.7874 55.2619 17.787 55.2619 17.7866 55.2619C17.7863 55.2619 17.7859 55.2619 17.7855 55.2619C17.7852 55.2619 17.7848 55.2619 17.7844 55.2619C17.7841 55.2619 17.7837 55.2619 17.7833 55.2619C17.783 55.2619 17.7826 55.2619 17.7822 55.2619C17.7819 55.2619 17.7815 55.2619 17.7811 55.2619C17.7808 55.2619 17.7804 55.2619 17.78 55.2619C17.7796 55.2619 17.7793 55.2619 17.7789 55.2619C17.7785 55.2619 17.7782 55.2619 17.7778 55.2619C17.7774 55.2619 17.7771 55.2619 17.7767 55.2619C17.7763 55.2619 17.776 55.2619 17.7756 55.2619C17.7752 55.2619 17.7749 55.2619 17.7745 55.2619C17.7741 55.2619 17.7738 55.2619 17.7734 55.2619C17.773 55.2619 17.7727 55.2619 17.7723 55.2619C17.7719 55.2619 17.7716 55.2619 17.7712 55.2619C17.7708 55.2619 17.7705 55.2619 17.7701 55.2619C17.7697 55.2619 17.7694 55.2619 17.769 55.2619C17.7686 55.2619 17.7683 55.2619 17.7679 55.2619C17.7675 55.2619 17.7672 55.2619 17.7668 55.2619C17.7664 55.2619 17.7661 55.2619 17.7657 55.2619C17.7653 55.2619 17.765 55.2619 17.7646 55.2619C17.7642 55.2619 17.7638 55.2619 17.7635 55.2619C17.7631 55.2619 17.7627 55.2619 17.7624 55.2619C17.762 55.2619 17.7616 55.2619 17.7613 55.2619C17.7609 55.2619 17.7605 55.2619 17.7602 55.2619C17.7598 55.2619 17.7594 55.2619 17.7591 55.2619C17.7587 55.2619 17.7583 55.2619 17.758 55.2619C17.7576 55.2619 17.7572 55.2619 17.7569 55.2619C17.7565 55.2619 17.7561 55.2619 17.7558 55.2619C17.7554 55.2619 17.755 55.2619 17.7547 55.2619C17.7543 55.2619 17.7539 55.2619 17.7536 55.2619C17.7532 55.2619 17.7528 55.2619 17.7525 55.2619C17.7521 55.2619 17.7517 55.2619 17.7514 55.2619C17.751 55.2619 17.7506 55.2619 17.7503 55.2619C17.7499 55.2619 17.7495 55.2619 17.7492 55.2619C17.7488 55.2619 17.7484 55.2619 17.748 55.2619C17.7477 55.2619 17.7473 55.2619 17.7469 55.2619C17.7466 55.2619 17.7462 55.2619 17.7458 55.2619C17.7455 55.2619 17.7451 55.2619 17.7447 55.2619C17.7444 55.2619 17.744 55.2619 17.7436 55.2619C17.7433 55.2619 17.7429 55.2619 17.7425 55.2619C17.7422 55.2619 17.7418 55.2619 17.7414 55.2619C17.7411 55.2619 17.7407 55.2619 17.7403 55.2619C17.74 55.2619 17.7396 55.2619 17.7392 55.2619C17.7389 55.2619 17.7385 55.2619 17.7381 55.2619C17.7378 55.2619 17.7374 55.2619 17.737 55.2619C17.7367 55.2619 17.7363 55.2619 17.7359 55.2619C17.7356 55.2619 17.7352 55.2619 17.7348 55.2619C17.7345 55.2619 17.7341 55.2619 17.7337 55.2619C17.7334 55.2619 17.733 55.2619 17.7326 55.2619C17.7322 55.2619 17.7319 55.2619 17.7315 55.2619C17.7311 55.2619 17.7308 55.2619 17.7304 55.2619C17.73 55.2619 17.7297 55.2619 17.7293 55.2619C17.7289 55.2619 17.7286 55.2619 17.7282 55.2619C17.7278 55.2619 17.7275 55.2619 17.7271 55.2619C17.7267 55.2619 17.7264 55.2619 17.726 55.2619C17.7256 55.2619 17.7253 55.2619 17.7249 55.2619C17.7245 55.2619 17.7242 55.2619 17.7238 55.2619C17.7234 55.2619 17.7231 55.2619 17.7227 55.2619C17.7223 55.2619 17.722 55.2619 17.7216 55.2619C17.7212 55.2619 17.7209 55.2619 17.7205 55.2619C17.7201 55.2619 17.7198 55.2619 17.7194 55.2619C17.719 55.2619 17.7187 55.2619 17.7183 55.2619C17.7179 55.2619 17.7176 55.2619 17.7172 55.2619C17.7168 55.2619 17.7164 55.2619 17.7161 55.2619C17.7157 55.2619 17.7153 55.2619 17.715 55.2619C17.7146 55.2619 17.7142 55.2619 17.7139 55.2619C17.7135 55.2619 17.7131 55.2619 17.7128 55.2619C17.7124 55.2619 17.712 55.2619 17.7117 55.2619C17.7113 55.2619 17.7109 55.2619 17.7106 55.2619C17.7102 55.2619 17.7098 55.2619 17.7095 55.2619C17.7091 55.2619 17.7087 55.2619 17.7084 55.2619C17.708 55.2619 17.7076 55.2619 17.7073 55.2619C17.7069 55.2619 17.7065 55.2619 17.7062 55.2619C17.7058 55.2619 17.7054 55.2619 17.7051 55.2619C17.7047 55.2619 17.7043 55.2619 17.704 55.2619C17.7036 55.2619 17.7032 55.2619 17.7029 55.2619C17.7025 55.2619 17.7021 55.2619 17.7018 55.2619C17.7014 55.2619 17.701 55.2619 17.7006 55.2619C17.7003 55.2619 17.6999 55.2619 17.6995 55.2619C17.6992 55.2619 17.6988 55.2619 17.6984 55.2619C17.6981 55.2619 17.6977 55.2619 17.6973 55.2619C17.697 55.2619 17.6966 55.2619 17.6962 55.2619C17.6959 55.2619 17.6955 55.2619 17.6951 55.2619C17.6948 55.2619 17.6944 55.2619 17.694 55.2619C17.6937 55.2619 17.6933 55.2619 17.6929 55.2619C17.6926 55.2619 17.6922 55.2619 17.6918 55.2619C17.6915 55.2619 17.6911 55.2619 17.6907 55.2619C17.6904 55.2619 17.69 55.2619 17.6896 55.2619C17.6893 55.2619 17.6889 55.2619 17.6885 55.2619C17.6882 55.2619 17.6878 55.2619 17.6874 55.2619C17.6871 55.2619 17.6867 55.2619 17.6863 55.2619C17.686 55.2619 17.6856 55.2619 17.6852 55.2619C17.6848 55.2619 17.6845 55.2619 17.6841 55.2619C17.6837 55.2619 17.6834 55.2619 17.683 55.2619C17.6826 55.2619 17.6823 55.2619 17.6819 55.2619C17.6815 55.2619 17.6812 55.2619 17.6808 55.2619C17.6804 55.2619 17.6801 55.2619 17.6797 55.2619C17.6793 55.2619 17.679 55.2619 17.6786 55.2619C17.6782 55.2619 17.6779 55.2619 17.6775 55.2619C17.6771 55.2619 17.6768 55.2619 17.6764 55.2619C17.676 55.2619 17.6757 55.2619 17.6753 55.2619C17.6749 55.2619 17.6746 55.2619 17.6742 55.2619C17.6738 55.2619 17.6735 55.2619 17.6731 55.2619C17.6727 55.2619 17.6724 55.2619 17.672 55.2619C17.6716 55.2619 17.6713 55.2619 17.6709 55.2619C17.6705 55.2619 17.6702 55.2619 17.6698 55.2619C17.6694 55.2619 17.669 55.2619 17.6687 55.2619C17.6683 55.2619 17.6679 55.2619 17.6676 55.2619C17.6672 55.2619 17.6668 55.2619 17.6665 55.2619C17.6661 55.2619 17.6657 55.2619 17.6654 55.2619C17.665 55.2619 17.6646 55.2619 17.6643 55.2619C17.6639 55.2619 17.6635 55.2619 17.6632 55.2619C17.6628 55.2619 17.6624 55.2619 17.6621 55.2619C17.6617 55.2619 17.6613 55.2619 17.661 55.2619C17.6606 55.2619 17.6602 55.2619 17.6599 55.2619C17.6595 55.2619 17.6591 55.2619 17.6588 55.2619C17.6584 55.2619 17.658 55.2619 17.6577 55.2619C17.6573 55.2619 17.6569 55.2619 17.6566 55.2619C17.6562 55.2619 17.6558 55.2619 17.6555 55.2619C17.6551 55.2619 17.6547 55.2619 17.6544 55.2619C17.654 55.2619 17.6536 55.2619 17.6532 55.2619C17.6529 55.2619 17.6525 55.2619 17.6521 55.2619C17.6518 55.2619 17.6514 55.2619 17.651 55.2619C17.6507 55.2619 17.6503 55.2619 17.6499 55.2619C17.6496 55.2619 17.6492 55.2619 17.6488 55.2619C17.6485 55.2619 17.6481 55.2619 17.6477 55.2619C17.6474 55.2619 17.647 55.2619 17.6466 55.2619C17.6463 55.2619 17.6459 55.2619 17.6455 55.2619C17.6452 55.2619 17.6448 55.2619 17.6444 55.2619C17.6441 55.2619 17.6437 55.2619 17.6433 55.2619C17.643 55.2619 17.6426 55.2619 17.6422 55.2619C17.6419 55.2619 17.6415 55.2619 17.6411 55.2619C17.6408 55.2619 17.6404 55.2619 17.64 55.2619C17.6397 55.2619 17.6393 55.2619 17.6389 55.2619C17.6386 55.2619 17.6382 55.2619 17.6378 55.2619C17.6374 55.2619 17.6371 55.2619 17.6367 55.2619C17.6363 55.2619 17.636 55.2619 17.6356 55.2619C17.6352 55.2619 17.6349 55.2619 17.6345 55.2619C17.6341 55.2619 17.6338 55.2619 17.6334 55.2619C17.633 55.2619 17.6327 55.2619 17.6323 55.2619C17.6319 55.2619 17.6316 55.2619 17.6312 55.2619C17.6308 55.2619 17.6305 55.2619 17.6301 55.2619C17.6297 55.2619 17.6294 55.2619 17.629 55.2619C17.6286 55.2619 17.6283 55.2619 17.6279 55.2619C17.6275 55.2619 17.6272 55.2619 17.6268 55.2619C17.6264 55.2619 17.6261 55.2619 17.6257 55.2619C17.6253 55.2619 17.625 55.2619 17.6246 55.2619C17.6242 55.2619 17.6239 55.2619 17.6235 55.2619C17.6231 55.2619 17.6228 55.2619 17.6224 55.2619C17.622 55.2619 17.6216 55.2619 17.6213 55.2619C17.6209 55.2619 17.6205 55.2619 17.6202 55.2619C17.6198 55.2619 17.6194 55.2619 17.6191 55.2619C17.6187 55.2619 17.6183 55.2619 17.618 55.2619C17.6176 55.2619 17.6172 55.2619 17.6169 55.2619C17.6165 55.2619 17.6161 55.2619 17.6158 55.2619C17.6154 55.2619 17.615 55.2619 17.6147 55.2619C17.6143 55.2619 17.6139 55.2619 17.6136 55.2619C17.6132 55.2619 17.6128 55.2619 17.6125 55.2619C17.6121 55.2619 17.6117 55.2619 17.6114 55.2619C17.611 55.2619 17.6106 55.2619 17.6103 55.2619C17.6099 55.2619 17.6095 55.2619 17.6092 55.2619C17.6088 55.2619 17.6084 55.2619 17.6081 55.2619C17.6077 55.2619 17.6073 55.2619 17.607 55.2619C17.6066 55.2619 17.6062 55.2619 17.6058 55.2619C17.6055 55.2619 17.6051 55.2619 17.6047 55.2619C17.6044 55.2619 17.604 55.2619 17.6036 55.2619C17.6033 55.2619 17.6029 55.2619 17.6025 55.2619C17.6022 55.2619 17.6018 55.2619 17.6014 55.2619C17.6011 55.2619 17.6007 55.2619 17.6003 55.2619C17.6 55.2619 17.5996 55.2619 17.5992 55.2619C17.5989 55.2619 17.5985 55.2619 17.5981 55.2619C17.5978 55.2619 17.5974 55.2619 17.597 55.2619C17.5967 55.2619 17.5963 55.2619 17.5959 55.2619C17.5956 55.2619 17.5952 55.2619 17.5948 55.2619C17.5945 55.2619 17.5941 55.2619 17.5937 55.2619C17.5934 55.2619 17.593 55.2619 17.5926 55.2619C17.5923 55.2619 17.5919 55.2619 17.5915 55.2619C17.5912 55.2619 17.5908 55.2619 17.5904 55.2619C17.59 55.2619 17.5897 55.2619 17.5893 55.2619C17.5889 55.2619 17.5886 55.2619 17.5882 55.2619C17.5878 55.2619 17.5875 55.2619 17.5871 55.2619C17.5867 55.2619 17.5864 55.2619 17.586 55.2619C17.5856 55.2619 17.5853 55.2619 17.5849 55.2619C17.5845 55.2619 17.5842 55.2619 17.5838 55.2619C17.5834 55.2619 17.5831 55.2619 17.5827 55.2619C17.5823 55.2619 17.582 55.2619 17.5816 55.2619C17.5812 55.2619 17.5809 55.2619 17.5805 55.2619C17.5801 55.2619 17.5798 55.2619 17.5794 55.2619C17.579 55.2619 17.5787 55.2619 17.5783 55.2619C17.5779 55.2619 17.5776 55.2619 17.5772 55.2619C17.5768 55.2619 17.5765 55.2619 17.5761 55.2619C17.5757 55.2619 17.5754 55.2619 17.575 55.2619C17.5746 55.2619 17.5742 55.2619 17.5739 55.2619C17.5735 55.2619 17.5731 55.2619 17.5728 55.2619C17.5724 55.2619 17.572 55.2619 17.5717 55.2619C17.5713 55.2619 17.5709 55.2619 17.5706 55.2619C17.5702 55.2619 17.5698 55.2619 17.5695 55.2619C17.5691 55.2619 17.5687 55.2619 17.5684 55.2619C17.568 55.2619 17.5676 55.2619 17.5673 55.2619C17.5669 55.2619 17.5665 55.2619 17.5662 55.2619C17.5658 55.2619 17.5654 55.2619 17.5651 55.2619C17.5647 55.2619 17.5643 55.2619 17.564 55.2619C17.5636 55.2619 17.5632 55.2619 17.5629 55.2619C17.5625 55.2619 17.5621 55.2619 17.5618 55.2619C17.5614 55.2619 17.561 55.2619 17.5607 55.2619C17.5603 55.2619 17.5599 55.2619 17.5595 55.2619C17.5592 55.2619 17.5588 55.2619 17.5584 55.2619C17.5581 55.2619 17.5577 55.2619 17.5573 55.2619C17.557 55.2619 17.5566 55.2619 17.5562 55.2619C17.5559 55.2619 17.5555 55.2619 17.5551 55.2619C17.5548 55.2619 17.5544 55.2619 17.554 55.2619C17.5537 55.2619 17.5533 55.2619 17.5529 55.2619C17.5526 55.2619 17.5522 55.2619 17.5518 55.2619C17.5515 55.2619 17.5511 55.2619 17.5507 55.2619C17.5504 55.2619 17.55 55.2619 17.5496 55.2619C17.5493 55.2619 17.5489 55.2619 17.5485 55.2619C17.5482 55.2619 17.5478 55.2619 17.5474 55.2619C17.5471 55.2619 17.5467 55.2619 17.5463 55.2619C17.546 55.2619 17.5456 55.2619 17.5452 55.2619C17.5449 55.2619 17.5445 55.2619 17.5441 55.2619C17.5437 55.2619 17.5434 55.2619 17.543 55.2619C17.5426 55.2619 17.5423 55.2619 17.5419 55.2619C17.5415 55.2619 17.5412 55.2619 17.5408 55.2619C17.5404 55.2619 17.5401 55.2619 17.5397 55.2619C17.5393 55.2619 17.539 55.2619 17.5386 55.2619C17.5382 55.2619 17.5379 55.2619 17.5375 55.2619C17.5371 55.2619 17.5368 55.2619 17.5364 55.2619C17.536 55.2619 17.5357 55.2619 17.5353 55.2619C17.5349 55.2619 17.5346 55.2619 17.5342 55.2619C17.5338 55.2619 17.5335 55.2619 17.5331 55.2619C17.5327 55.2619 17.5324 55.2619 17.532 55.2619C17.5316 55.2619 17.5313 55.2619 17.5309 55.2619C17.5305 55.2619 17.5302 55.2619 17.5298 55.2619C17.5294 55.2619 17.5291 55.2619 17.5287 55.2619C17.5283 55.2619 17.5279 55.2619 17.5276 55.2619C17.5272 55.2619 17.5268 55.2619 17.5265 55.2619C17.5261 55.2619 17.5257 55.2619 17.5254 55.2619C17.525 55.2619 17.5246 55.2619 17.5243 55.2619C17.5239 55.2619 17.5235 55.2619 17.5232 55.2619C17.5228 55.2619 17.5224 55.2619 17.5221 55.2619C17.5217 55.2619 17.5213 55.2619 17.521 55.2619C17.5206 55.2619 17.5202 55.2619 17.5199 55.2619C17.5195 55.2619 17.5191 55.2619 17.5188 55.2619C17.5184 55.2619 17.518 55.2619 17.5177 55.2619C17.5173 55.2619 17.5169 55.2619 17.5166 55.2619C17.5162 55.2619 17.5158 55.2619 17.5155 55.2619C17.5151 55.2619 17.5147 55.2619 17.5144 55.2619C17.514 55.2619 17.5136 55.2619 17.5133 55.2619C17.5129 55.2619 17.5125 55.2619 17.5121 55.2619C17.5118 55.2619 17.5114 55.2619 17.511 55.2619C17.5107 55.2619 17.5103 55.2619 17.5099 55.2619C17.5096 55.2619 17.5092 55.2619 17.5088 55.2619C17.5085 55.2619 17.5081 55.2619 17.5077 55.2619C17.5074 55.2619 17.507 55.2619 17.5066 55.2619C17.5063 55.2619 17.5059 55.2619 17.5055 55.2619C17.5052 55.2619 17.5048 55.2619 17.5044 55.2619C17.5041 55.2619 17.5037 55.2619 17.5033 55.2619C17.503 55.2619 17.5026 55.2619 17.5022 55.2619C17.5019 55.2619 17.5015 55.2619 17.5011 55.2619C17.5008 55.2619 17.5004 55.2619 17.5 55.2619C17.4997 55.2619 17.4993 55.2619 17.4989 55.2619C17.4986 55.2619 17.4982 55.2619 17.4978 55.2619C17.4975 55.2619 17.4971 55.2619 17.4967 55.2619C17.4963 55.2619 17.496 55.2619 17.4956 55.2619C17.4952 55.2619 17.4949 55.2619 17.4945 55.2619C17.4941 55.2619 17.4938 55.2619 17.4934 55.2619C17.493 55.2619 17.4927 55.2619 17.4923 55.2619C17.4919 55.2619 17.4916 55.2619 17.4912 55.2619C17.4908 55.2619 17.4905 55.2619 17.4901 55.2619C17.4897 55.2619 17.4894 55.2619 17.489 55.2619C17.4886 55.2619 17.4883 55.2619 17.4879 55.2619C17.4875 55.2619 17.4872 55.2619 17.4868 55.2619C17.4864 55.2619 17.4861 55.2619 17.4857 55.2619C17.4853 55.2619 17.485 55.2619 17.4846 55.2619C17.4842 55.2619 17.4839 55.2619 17.4835 55.2619C17.4831 55.2619 17.4828 55.2619 17.4824 55.2619C17.482 55.2619 17.4817 55.2619 17.4813 55.2619C17.4809 55.2619 17.4805 55.2619 17.4802 55.2619C17.4798 55.2619 17.4794 55.2619 17.4791 55.2619C17.4787 55.2619 17.4783 55.2619 17.478 55.2619C17.4776 55.2619 17.4772 55.2619 17.4769 55.2619C17.4765 55.2619 17.4761 55.2619 17.4758 55.2619C17.4754 55.2619 17.475 55.2619 17.4747 55.2619C17.4743 55.2619 17.4739 55.2619 17.4736 55.2619C17.4732 55.2619 17.4728 55.2619 17.4725 55.2619C17.4721 55.2619 17.4717 55.2619 17.4714 55.2619C17.471 55.2619 17.4706 55.2619 17.4703 55.2619C17.4699 55.2619 17.4695 55.2619 17.4692 55.2619C17.4688 55.2619 17.4684 55.2619 17.4681 55.2619C17.4677 55.2619 17.4673 55.2619 17.467 55.2619C17.4666 55.2619 17.4662 55.2619 17.4659 55.2619C17.4655 55.2619 17.4651 55.2619 17.4647 55.2619C17.4644 55.2619 17.464 55.2619 17.4636 55.2619C17.4633 55.2619 17.4629 55.2619 17.4625 55.2619C17.4622 55.2619 17.4618 55.2619 17.4614 55.2619C17.4611 55.2619 17.4607 55.2619 17.4603 55.2619C17.46 55.2619 17.4596 55.2619 17.4592 55.2619C17.4589 55.2619 17.4585 55.2619 17.4581 55.2619C17.4578 55.2619 17.4574 55.2619 17.457 55.2619C17.4567 55.2619 17.4563 55.2619 17.4559 55.2619C17.4556 55.2619 17.4552 55.2619 17.4548 55.2619C17.4545 55.2619 17.4541 55.2619 17.4537 55.2619C17.4534 55.2619 17.453 55.2619 17.4526 55.2619C17.4523 55.2619 17.4519 55.2619 17.4515 55.2619C17.4512 55.2619 17.4508 55.2619 17.4504 55.2619C17.4501 55.2619 17.4497 55.2619 17.4493 55.2619C17.4489 55.2619 17.4486 55.2619 17.4482 55.2619C17.4478 55.2619 17.4475 55.2619 17.4471 55.2619C17.4467 55.2619 17.4464 55.2619 17.446 55.2619C17.4456 55.2619 17.4453 55.2619 17.4449 55.2619C17.4445 55.2619 17.4442 55.2619 17.4438 55.2619C17.4434 55.2619 17.4431 55.2619 17.4427 55.2619C17.4423 55.2619 17.442 55.2619 17.4416 55.2619C17.4412 55.2619 17.4409 55.2619 17.4405 55.2619C17.4401 55.2619 17.4398 55.2619 17.4394 55.2619C17.439 55.2619 17.4387 55.2619 17.4383 55.2619C17.4379 55.2619 17.4376 55.2619 17.4372 55.2619C17.4368 55.2619 17.4365 55.2619 17.4361 55.2619C17.4357 55.2619 17.4354 55.2619 17.435 55.2619C17.4346 55.2619 17.4343 55.2619 17.4339 55.2619C17.4335 55.2619 17.4331 55.2619 17.4328 55.2619C17.4324 55.2619 17.432 55.2619 17.4317 55.2619C17.4313 55.2619 17.4309 55.2619 17.4306 55.2619C17.4302 55.2619 17.4298 55.2619 17.4295 55.2619C17.4291 55.2619 17.4287 55.2619 17.4284 55.2619C17.428 55.2619 17.4276 55.2619 17.4273 55.2619C17.4269 55.2619 17.4265 55.2619 17.4262 55.2619C17.4258 55.2619 17.4254 55.2619 17.4251 55.2619C17.4247 55.2619 17.4243 55.2619 17.424 55.2619C17.4236 55.2619 17.4232 55.2619 17.4229 55.2619C17.4225 55.2619 17.4221 55.2619 17.4218 55.2619C17.4214 55.2619 17.421 55.2619 17.4207 55.2619C17.4203 55.2619 17.4199 55.2619 17.4196 55.2619C17.4192 55.2619 17.4188 55.2619 17.4185 55.2619C17.4181 55.2619 17.4177 55.2619 17.4173 55.2619C17.417 55.2619 17.4166 55.2619 17.4162 55.2619C17.4159 55.2619 17.4155 55.2619 17.4151 55.2619C17.4148 55.2619 17.4144 55.2619 17.414 55.2619C17.4137 55.2619 17.4133 55.2619 17.4129 55.2619C17.4126 55.2619 17.4122 55.2619 17.4118 55.2619C17.4115 55.2619 17.4111 55.2619 17.4107 55.2619C17.4104 55.2619 17.41 55.2619 17.4096 55.2619C17.4093 55.2619 17.4089 55.2619 17.4085 55.2619C17.4082 55.2619 17.4078 55.2619 17.4074 55.2619C17.4071 55.2619 17.4067 55.2619 17.4063 55.2619C17.406 55.2619 17.4056 55.2619 17.4052 55.2619C17.4049 55.2619 17.4045 55.2619 17.4041 55.2619C17.4038 55.2619 17.4034 55.2619 17.403 55.2619C17.4027 55.2619 17.4023 55.2619 17.4019 55.2619C17.4015 55.2619 17.4012 55.2619 17.4008 55.2619C17.4004 55.2619 17.4001 55.2619 17.3997 55.2619C17.3993 55.2619 17.399 55.2619 17.3986 55.2619C17.3982 55.2619 17.3979 55.2619 17.3975 55.2619C17.3971 55.2619 17.3968 55.2619 17.3964 55.2619C17.396 55.2619 17.3957 55.2619 17.3953 55.2619C17.3949 55.2619 17.3946 55.2619 17.3942 55.2619C17.3938 55.2619 17.3935 55.2619 17.3931 55.2619C17.3927 55.2619 17.3924 55.2619 17.392 55.2619C17.3916 55.2619 17.3913 55.2619 17.3909 55.2619C17.3905 55.2619 17.3902 55.2619 17.3898 55.2619C17.3894 55.2619 17.3891 55.2619 17.3887 55.2619C17.3883 55.2619 17.388 55.2619 17.3876 55.2619C17.3872 55.2619 17.3869 55.2619 17.3865 55.2619C17.3861 55.2619 17.3857 55.2619 17.3854 55.2619C17.385 55.2619 17.3846 55.2619 17.3843 55.2619C17.3839 55.2619 17.3835 55.2619 17.3832 55.2619C17.3828 55.2619 17.3824 55.2619 17.3821 55.2619C17.3817 55.2619 17.3813 55.2619 17.381 55.2619C17.3806 55.2619 17.3802 55.2619 17.3799 55.2619C17.3795 55.2619 17.3791 55.2619 17.3788 55.2619C17.3784 55.2619 17.378 55.2619 17.3777 55.2619C17.3773 55.2619 17.3769 55.2619 17.3766 55.2619C17.3762 55.2619 17.3758 55.2619 17.3755 55.2619C17.3751 55.2619 17.3747 55.2619 17.3744 55.2619C17.374 55.2619 17.3736 55.2619 17.3733 55.2619C17.3729 55.2619 17.3725 55.2619 17.3722 55.2619C17.3718 55.2619 17.3714 55.2619 17.3711 55.2619C17.3707 55.2619 17.3703 55.2619 17.3699 55.2619C17.3696 55.2619 17.3692 55.2619 17.3688 55.2619C17.3685 55.2619 17.3681 55.2619 17.3677 55.2619C17.3674 55.2619 17.367 55.2619 17.3666 55.2619C17.3663 55.2619 17.3659 55.2619 17.3655 55.2619C17.3652 55.2619 17.3648 55.2619 17.3644 55.2619C17.3641 55.2619 17.3637 55.2619 17.3633 55.2619C17.363 55.2619 17.3626 55.2619 17.3622 55.2619C17.3619 55.2619 17.3615 55.2619 17.3611 55.2619C17.3608 55.2619 17.3604 55.2619 17.36 55.2619C17.3597 55.2619 17.3593 55.2619 17.3589 55.2619C17.3586 55.2619 17.3582 55.2619 17.3578 55.2619C17.3575 55.2619 17.3571 55.2619 17.3567 55.2619C17.3564 55.2619 17.356 55.2619 17.3556 55.2619C17.3553 55.2619 17.3549 55.2619 17.3545 55.2619C17.3541 55.2619 17.3538 55.2619 17.3534 55.2619C17.353 55.2619 17.3527 55.2619 17.3523 55.2619C17.3519 55.2619 17.3516 55.2619 17.3512 55.2619C17.3508 55.2619 17.3505 55.2619 17.3501 55.2619C17.3497 55.2619 17.3494 55.2619 17.349 55.2619C17.3486 55.2619 17.3483 55.2619 17.3479 55.2619C17.3475 55.2619 17.3472 55.2619 17.3468 55.2619C17.3464 55.2619 17.3461 55.2619 17.3457 55.2619C17.3453 55.2619 17.345 55.2619 17.3446 55.2619C17.3442 55.2619 17.3439 55.2619 17.3435 55.2619C17.3431 55.2619 17.3428 55.2619 17.3424 55.2619C17.342 55.2619 17.3417 55.2619 17.3413 55.2619C17.3409 55.2619 17.3406 55.2619 17.3402 55.2619C17.3398 55.2619 17.3395 55.2619 17.3391 55.2619C17.3387 55.2619 17.3383 55.2619 17.338 55.2619C17.3376 55.2619 17.3372 55.2619 17.3369 55.2619C17.3365 55.2619 17.3361 55.2619 17.3358 55.2619C17.3354 55.2619 17.335 55.2619 17.3347 55.2619C17.3343 55.2619 17.3339 55.2619 17.3336 55.2619C17.3332 55.2619 17.3328 55.2619 17.3325 55.2619C17.3321 55.2619 17.3317 55.2619 17.3314 55.2619C17.331 55.2619 17.3306 55.2619 17.3303 55.2619C17.3299 55.2619 17.3295 55.2619 17.3292 55.2619C17.3288 55.2619 17.3284 55.2619 17.3281 55.2619C17.3277 55.2619 17.3273 55.2619 17.327 55.2619C17.3266 55.2619 17.3262 55.2619 17.3259 55.2619C17.3255 55.2619 17.3251 55.2619 17.3248 55.2619C17.3244 55.2619 17.324 55.2619 17.3237 55.2619C17.3233 55.2619 17.3229 55.2619 17.3225 55.2619C17.3222 55.2619 17.3218 55.2619 17.3214 55.2619C17.3211 55.2619 17.3207 55.2619 17.3203 55.2619C17.32 55.2619 17.3196 55.2619 17.3192 55.2619C17.3189 55.2619 17.3185 55.2619 17.3181 55.2619C17.3178 55.2619 17.3174 55.2619 17.317 55.2619C17.3167 55.2619 17.3163 55.2619 17.3159 55.2619C17.3156 55.2619 17.3152 55.2619 17.3148 55.2619C17.3145 55.2619 17.3141 55.2619 17.3137 55.2619C17.3134 55.2619 17.313 55.2619 17.3126 55.2619C17.3123 55.2619 17.3119 55.2619 17.3115 55.2619C17.3112 55.2619 17.3108 55.2619 17.3104 55.2619C17.3101 55.2619 17.3097 55.2619 17.3093 55.2619C17.309 55.2619 17.3086 55.2619 17.3082 55.2619C17.3079 55.2619 17.3075 55.2619 17.3071 55.2619C17.3067 55.2619 17.3064 55.2619 17.306 55.2619C17.3056 55.2619 17.3053 55.2619 17.3049 55.2619C17.3045 55.2619 17.3042 55.2619 17.3038 55.2619C17.3034 55.2619 17.3031 55.2619 17.3027 55.2619C17.3023 55.2619 17.302 55.2619 17.3016 55.2619C17.3012 55.2619 17.3009 55.2619 17.3005 55.2619V56.8619C17.3009 56.8619 17.3012 56.8619 17.3016 56.8619C17.302 56.8619 17.3023 56.8619 17.3027 56.8619C17.3031 56.8619 17.3034 56.8619 17.3038 56.8619C17.3042 56.8619 17.3045 56.8619 17.3049 56.8619C17.3053 56.8619 17.3056 56.8619 17.306 56.8619C17.3064 56.8619 17.3067 56.8619 17.3071 56.8619C17.3075 56.8619 17.3079 56.8619 17.3082 56.8619C17.3086 56.8619 17.309 56.8619 17.3093 56.8619C17.3097 56.8619 17.3101 56.8619 17.3104 56.8619C17.3108 56.8619 17.3112 56.8619 17.3115 56.8619C17.3119 56.8619 17.3123 56.8619 17.3126 56.8619C17.313 56.8619 17.3134 56.8619 17.3137 56.8619C17.3141 56.8619 17.3145 56.8619 17.3148 56.8619C17.3152 56.8619 17.3156 56.8619 17.3159 56.8619C17.3163 56.8619 17.3167 56.8619 17.317 56.8619C17.3174 56.8619 17.3178 56.8619 17.3181 56.8619C17.3185 56.8619 17.3189 56.8619 17.3192 56.8619C17.3196 56.8619 17.32 56.8619 17.3203 56.8619C17.3207 56.8619 17.3211 56.8619 17.3214 56.8619C17.3218 56.8619 17.3222 56.8619 17.3225 56.8619C17.3229 56.8619 17.3233 56.8619 17.3237 56.8619C17.324 56.8619 17.3244 56.8619 17.3248 56.8619C17.3251 56.8619 17.3255 56.8619 17.3259 56.8619C17.3262 56.8619 17.3266 56.8619 17.327 56.8619C17.3273 56.8619 17.3277 56.8619 17.3281 56.8619C17.3284 56.8619 17.3288 56.8619 17.3292 56.8619C17.3295 56.8619 17.3299 56.8619 17.3303 56.8619C17.3306 56.8619 17.331 56.8619 17.3314 56.8619C17.3317 56.8619 17.3321 56.8619 17.3325 56.8619C17.3328 56.8619 17.3332 56.8619 17.3336 56.8619C17.3339 56.8619 17.3343 56.8619 17.3347 56.8619C17.335 56.8619 17.3354 56.8619 17.3358 56.8619C17.3361 56.8619 17.3365 56.8619 17.3369 56.8619C17.3372 56.8619 17.3376 56.8619 17.338 56.8619C17.3383 56.8619 17.3387 56.8619 17.3391 56.8619C17.3395 56.8619 17.3398 56.8619 17.3402 56.8619C17.3406 56.8619 17.3409 56.8619 17.3413 56.8619C17.3417 56.8619 17.342 56.8619 17.3424 56.8619C17.3428 56.8619 17.3431 56.8619 17.3435 56.8619C17.3439 56.8619 17.3442 56.8619 17.3446 56.8619C17.345 56.8619 17.3453 56.8619 17.3457 56.8619C17.3461 56.8619 17.3464 56.8619 17.3468 56.8619C17.3472 56.8619 17.3475 56.8619 17.3479 56.8619C17.3483 56.8619 17.3486 56.8619 17.349 56.8619C17.3494 56.8619 17.3497 56.8619 17.3501 56.8619C17.3505 56.8619 17.3508 56.8619 17.3512 56.8619C17.3516 56.8619 17.3519 56.8619 17.3523 56.8619C17.3527 56.8619 17.353 56.8619 17.3534 56.8619C17.3538 56.8619 17.3541 56.8619 17.3545 56.8619C17.3549 56.8619 17.3553 56.8619 17.3556 56.8619C17.356 56.8619 17.3564 56.8619 17.3567 56.8619C17.3571 56.8619 17.3575 56.8619 17.3578 56.8619C17.3582 56.8619 17.3586 56.8619 17.3589 56.8619C17.3593 56.8619 17.3597 56.8619 17.36 56.8619C17.3604 56.8619 17.3608 56.8619 17.3611 56.8619C17.3615 56.8619 17.3619 56.8619 17.3622 56.8619C17.3626 56.8619 17.363 56.8619 17.3633 56.8619C17.3637 56.8619 17.3641 56.8619 17.3644 56.8619C17.3648 56.8619 17.3652 56.8619 17.3655 56.8619C17.3659 56.8619 17.3663 56.8619 17.3666 56.8619C17.367 56.8619 17.3674 56.8619 17.3677 56.8619C17.3681 56.8619 17.3685 56.8619 17.3688 56.8619C17.3692 56.8619 17.3696 56.8619 17.3699 56.8619C17.3703 56.8619 17.3707 56.8619 17.3711 56.8619C17.3714 56.8619 17.3718 56.8619 17.3722 56.8619C17.3725 56.8619 17.3729 56.8619 17.3733 56.8619C17.3736 56.8619 17.374 56.8619 17.3744 56.8619C17.3747 56.8619 17.3751 56.8619 17.3755 56.8619C17.3758 56.8619 17.3762 56.8619 17.3766 56.8619C17.3769 56.8619 17.3773 56.8619 17.3777 56.8619C17.378 56.8619 17.3784 56.8619 17.3788 56.8619C17.3791 56.8619 17.3795 56.8619 17.3799 56.8619C17.3802 56.8619 17.3806 56.8619 17.381 56.8619C17.3813 56.8619 17.3817 56.8619 17.3821 56.8619C17.3824 56.8619 17.3828 56.8619 17.3832 56.8619C17.3835 56.8619 17.3839 56.8619 17.3843 56.8619C17.3846 56.8619 17.385 56.8619 17.3854 56.8619C17.3857 56.8619 17.3861 56.8619 17.3865 56.8619C17.3869 56.8619 17.3872 56.8619 17.3876 56.8619C17.388 56.8619 17.3883 56.8619 17.3887 56.8619C17.3891 56.8619 17.3894 56.8619 17.3898 56.8619C17.3902 56.8619 17.3905 56.8619 17.3909 56.8619C17.3913 56.8619 17.3916 56.8619 17.392 56.8619C17.3924 56.8619 17.3927 56.8619 17.3931 56.8619C17.3935 56.8619 17.3938 56.8619 17.3942 56.8619C17.3946 56.8619 17.3949 56.8619 17.3953 56.8619C17.3957 56.8619 17.396 56.8619 17.3964 56.8619C17.3968 56.8619 17.3971 56.8619 17.3975 56.8619C17.3979 56.8619 17.3982 56.8619 17.3986 56.8619C17.399 56.8619 17.3993 56.8619 17.3997 56.8619C17.4001 56.8619 17.4004 56.8619 17.4008 56.8619C17.4012 56.8619 17.4015 56.8619 17.4019 56.8619C17.4023 56.8619 17.4027 56.8619 17.403 56.8619C17.4034 56.8619 17.4038 56.8619 17.4041 56.8619C17.4045 56.8619 17.4049 56.8619 17.4052 56.8619C17.4056 56.8619 17.406 56.8619 17.4063 56.8619C17.4067 56.8619 17.4071 56.8619 17.4074 56.8619C17.4078 56.8619 17.4082 56.8619 17.4085 56.8619C17.4089 56.8619 17.4093 56.8619 17.4096 56.8619C17.41 56.8619 17.4104 56.8619 17.4107 56.8619C17.4111 56.8619 17.4115 56.8619 17.4118 56.8619C17.4122 56.8619 17.4126 56.8619 17.4129 56.8619C17.4133 56.8619 17.4137 56.8619 17.414 56.8619C17.4144 56.8619 17.4148 56.8619 17.4151 56.8619C17.4155 56.8619 17.4159 56.8619 17.4162 56.8619C17.4166 56.8619 17.417 56.8619 17.4173 56.8619C17.4177 56.8619 17.4181 56.8619 17.4185 56.8619C17.4188 56.8619 17.4192 56.8619 17.4196 56.8619C17.4199 56.8619 17.4203 56.8619 17.4207 56.8619C17.421 56.8619 17.4214 56.8619 17.4218 56.8619C17.4221 56.8619 17.4225 56.8619 17.4229 56.8619C17.4232 56.8619 17.4236 56.8619 17.424 56.8619C17.4243 56.8619 17.4247 56.8619 17.4251 56.8619C17.4254 56.8619 17.4258 56.8619 17.4262 56.8619C17.4265 56.8619 17.4269 56.8619 17.4273 56.8619C17.4276 56.8619 17.428 56.8619 17.4284 56.8619C17.4287 56.8619 17.4291 56.8619 17.4295 56.8619C17.4298 56.8619 17.4302 56.8619 17.4306 56.8619C17.4309 56.8619 17.4313 56.8619 17.4317 56.8619C17.432 56.8619 17.4324 56.8619 17.4328 56.8619C17.4331 56.8619 17.4335 56.8619 17.4339 56.8619C17.4343 56.8619 17.4346 56.8619 17.435 56.8619C17.4354 56.8619 17.4357 56.8619 17.4361 56.8619C17.4365 56.8619 17.4368 56.8619 17.4372 56.8619C17.4376 56.8619 17.4379 56.8619 17.4383 56.8619C17.4387 56.8619 17.439 56.8619 17.4394 56.8619C17.4398 56.8619 17.4401 56.8619 17.4405 56.8619C17.4409 56.8619 17.4412 56.8619 17.4416 56.8619C17.442 56.8619 17.4423 56.8619 17.4427 56.8619C17.4431 56.8619 17.4434 56.8619 17.4438 56.8619C17.4442 56.8619 17.4445 56.8619 17.4449 56.8619C17.4453 56.8619 17.4456 56.8619 17.446 56.8619C17.4464 56.8619 17.4467 56.8619 17.4471 56.8619C17.4475 56.8619 17.4478 56.8619 17.4482 56.8619C17.4486 56.8619 17.4489 56.8619 17.4493 56.8619C17.4497 56.8619 17.4501 56.8619 17.4504 56.8619C17.4508 56.8619 17.4512 56.8619 17.4515 56.8619C17.4519 56.8619 17.4523 56.8619 17.4526 56.8619C17.453 56.8619 17.4534 56.8619 17.4537 56.8619C17.4541 56.8619 17.4545 56.8619 17.4548 56.8619C17.4552 56.8619 17.4556 56.8619 17.4559 56.8619C17.4563 56.8619 17.4567 56.8619 17.457 56.8619C17.4574 56.8619 17.4578 56.8619 17.4581 56.8619C17.4585 56.8619 17.4589 56.8619 17.4592 56.8619C17.4596 56.8619 17.46 56.8619 17.4603 56.8619C17.4607 56.8619 17.4611 56.8619 17.4614 56.8619C17.4618 56.8619 17.4622 56.8619 17.4625 56.8619C17.4629 56.8619 17.4633 56.8619 17.4636 56.8619C17.464 56.8619 17.4644 56.8619 17.4647 56.8619C17.4651 56.8619 17.4655 56.8619 17.4659 56.8619C17.4662 56.8619 17.4666 56.8619 17.467 56.8619C17.4673 56.8619 17.4677 56.8619 17.4681 56.8619C17.4684 56.8619 17.4688 56.8619 17.4692 56.8619C17.4695 56.8619 17.4699 56.8619 17.4703 56.8619C17.4706 56.8619 17.471 56.8619 17.4714 56.8619C17.4717 56.8619 17.4721 56.8619 17.4725 56.8619C17.4728 56.8619 17.4732 56.8619 17.4736 56.8619C17.4739 56.8619 17.4743 56.8619 17.4747 56.8619C17.475 56.8619 17.4754 56.8619 17.4758 56.8619C17.4761 56.8619 17.4765 56.8619 17.4769 56.8619C17.4772 56.8619 17.4776 56.8619 17.478 56.8619C17.4783 56.8619 17.4787 56.8619 17.4791 56.8619C17.4794 56.8619 17.4798 56.8619 17.4802 56.8619C17.4805 56.8619 17.4809 56.8619 17.4813 56.8619C17.4817 56.8619 17.482 56.8619 17.4824 56.8619C17.4828 56.8619 17.4831 56.8619 17.4835 56.8619C17.4839 56.8619 17.4842 56.8619 17.4846 56.8619C17.485 56.8619 17.4853 56.8619 17.4857 56.8619C17.4861 56.8619 17.4864 56.8619 17.4868 56.8619C17.4872 56.8619 17.4875 56.8619 17.4879 56.8619C17.4883 56.8619 17.4886 56.8619 17.489 56.8619C17.4894 56.8619 17.4897 56.8619 17.4901 56.8619C17.4905 56.8619 17.4908 56.8619 17.4912 56.8619C17.4916 56.8619 17.4919 56.8619 17.4923 56.8619C17.4927 56.8619 17.493 56.8619 17.4934 56.8619C17.4938 56.8619 17.4941 56.8619 17.4945 56.8619C17.4949 56.8619 17.4952 56.8619 17.4956 56.8619C17.496 56.8619 17.4963 56.8619 17.4967 56.8619C17.4971 56.8619 17.4975 56.8619 17.4978 56.8619C17.4982 56.8619 17.4986 56.8619 17.4989 56.8619C17.4993 56.8619 17.4997 56.8619 17.5 56.8619C17.5004 56.8619 17.5008 56.8619 17.5011 56.8619C17.5015 56.8619 17.5019 56.8619 17.5022 56.8619C17.5026 56.8619 17.503 56.8619 17.5033 56.8619C17.5037 56.8619 17.5041 56.8619 17.5044 56.8619C17.5048 56.8619 17.5052 56.8619 17.5055 56.8619C17.5059 56.8619 17.5063 56.8619 17.5066 56.8619C17.507 56.8619 17.5074 56.8619 17.5077 56.8619C17.5081 56.8619 17.5085 56.8619 17.5088 56.8619C17.5092 56.8619 17.5096 56.8619 17.5099 56.8619C17.5103 56.8619 17.5107 56.8619 17.511 56.8619C17.5114 56.8619 17.5118 56.8619 17.5121 56.8619C17.5125 56.8619 17.5129 56.8619 17.5133 56.8619C17.5136 56.8619 17.514 56.8619 17.5144 56.8619C17.5147 56.8619 17.5151 56.8619 17.5155 56.8619C17.5158 56.8619 17.5162 56.8619 17.5166 56.8619C17.5169 56.8619 17.5173 56.8619 17.5177 56.8619C17.518 56.8619 17.5184 56.8619 17.5188 56.8619C17.5191 56.8619 17.5195 56.8619 17.5199 56.8619C17.5202 56.8619 17.5206 56.8619 17.521 56.8619C17.5213 56.8619 17.5217 56.8619 17.5221 56.8619C17.5224 56.8619 17.5228 56.8619 17.5232 56.8619C17.5235 56.8619 17.5239 56.8619 17.5243 56.8619C17.5246 56.8619 17.525 56.8619 17.5254 56.8619C17.5257 56.8619 17.5261 56.8619 17.5265 56.8619C17.5268 56.8619 17.5272 56.8619 17.5276 56.8619C17.5279 56.8619 17.5283 56.8619 17.5287 56.8619C17.5291 56.8619 17.5294 56.8619 17.5298 56.8619C17.5302 56.8619 17.5305 56.8619 17.5309 56.8619C17.5313 56.8619 17.5316 56.8619 17.532 56.8619C17.5324 56.8619 17.5327 56.8619 17.5331 56.8619C17.5335 56.8619 17.5338 56.8619 17.5342 56.8619C17.5346 56.8619 17.5349 56.8619 17.5353 56.8619C17.5357 56.8619 17.536 56.8619 17.5364 56.8619C17.5368 56.8619 17.5371 56.8619 17.5375 56.8619C17.5379 56.8619 17.5382 56.8619 17.5386 56.8619C17.539 56.8619 17.5393 56.8619 17.5397 56.8619C17.5401 56.8619 17.5404 56.8619 17.5408 56.8619C17.5412 56.8619 17.5415 56.8619 17.5419 56.8619C17.5423 56.8619 17.5426 56.8619 17.543 56.8619C17.5434 56.8619 17.5437 56.8619 17.5441 56.8619C17.5445 56.8619 17.5449 56.8619 17.5452 56.8619C17.5456 56.8619 17.546 56.8619 17.5463 56.8619C17.5467 56.8619 17.5471 56.8619 17.5474 56.8619C17.5478 56.8619 17.5482 56.8619 17.5485 56.8619C17.5489 56.8619 17.5493 56.8619 17.5496 56.8619C17.55 56.8619 17.5504 56.8619 17.5507 56.8619C17.5511 56.8619 17.5515 56.8619 17.5518 56.8619C17.5522 56.8619 17.5526 56.8619 17.5529 56.8619C17.5533 56.8619 17.5537 56.8619 17.554 56.8619C17.5544 56.8619 17.5548 56.8619 17.5551 56.8619C17.5555 56.8619 17.5559 56.8619 17.5562 56.8619C17.5566 56.8619 17.557 56.8619 17.5573 56.8619C17.5577 56.8619 17.5581 56.8619 17.5584 56.8619C17.5588 56.8619 17.5592 56.8619 17.5595 56.8619C17.5599 56.8619 17.5603 56.8619 17.5607 56.8619C17.561 56.8619 17.5614 56.8619 17.5618 56.8619C17.5621 56.8619 17.5625 56.8619 17.5629 56.8619C17.5632 56.8619 17.5636 56.8619 17.564 56.8619C17.5643 56.8619 17.5647 56.8619 17.5651 56.8619C17.5654 56.8619 17.5658 56.8619 17.5662 56.8619C17.5665 56.8619 17.5669 56.8619 17.5673 56.8619C17.5676 56.8619 17.568 56.8619 17.5684 56.8619C17.5687 56.8619 17.5691 56.8619 17.5695 56.8619C17.5698 56.8619 17.5702 56.8619 17.5706 56.8619C17.5709 56.8619 17.5713 56.8619 17.5717 56.8619C17.572 56.8619 17.5724 56.8619 17.5728 56.8619C17.5731 56.8619 17.5735 56.8619 17.5739 56.8619C17.5742 56.8619 17.5746 56.8619 17.575 56.8619C17.5754 56.8619 17.5757 56.8619 17.5761 56.8619C17.5765 56.8619 17.5768 56.8619 17.5772 56.8619C17.5776 56.8619 17.5779 56.8619 17.5783 56.8619C17.5787 56.8619 17.579 56.8619 17.5794 56.8619C17.5798 56.8619 17.5801 56.8619 17.5805 56.8619C17.5809 56.8619 17.5812 56.8619 17.5816 56.8619C17.582 56.8619 17.5823 56.8619 17.5827 56.8619C17.5831 56.8619 17.5834 56.8619 17.5838 56.8619C17.5842 56.8619 17.5845 56.8619 17.5849 56.8619C17.5853 56.8619 17.5856 56.8619 17.586 56.8619C17.5864 56.8619 17.5867 56.8619 17.5871 56.8619C17.5875 56.8619 17.5878 56.8619 17.5882 56.8619C17.5886 56.8619 17.5889 56.8619 17.5893 56.8619C17.5897 56.8619 17.59 56.8619 17.5904 56.8619C17.5908 56.8619 17.5912 56.8619 17.5915 56.8619C17.5919 56.8619 17.5923 56.8619 17.5926 56.8619C17.593 56.8619 17.5934 56.8619 17.5937 56.8619C17.5941 56.8619 17.5945 56.8619 17.5948 56.8619C17.5952 56.8619 17.5956 56.8619 17.5959 56.8619C17.5963 56.8619 17.5967 56.8619 17.597 56.8619C17.5974 56.8619 17.5978 56.8619 17.5981 56.8619C17.5985 56.8619 17.5989 56.8619 17.5992 56.8619C17.5996 56.8619 17.6 56.8619 17.6003 56.8619C17.6007 56.8619 17.6011 56.8619 17.6014 56.8619C17.6018 56.8619 17.6022 56.8619 17.6025 56.8619C17.6029 56.8619 17.6033 56.8619 17.6036 56.8619C17.604 56.8619 17.6044 56.8619 17.6047 56.8619C17.6051 56.8619 17.6055 56.8619 17.6058 56.8619C17.6062 56.8619 17.6066 56.8619 17.607 56.8619C17.6073 56.8619 17.6077 56.8619 17.6081 56.8619C17.6084 56.8619 17.6088 56.8619 17.6092 56.8619C17.6095 56.8619 17.6099 56.8619 17.6103 56.8619C17.6106 56.8619 17.611 56.8619 17.6114 56.8619C17.6117 56.8619 17.6121 56.8619 17.6125 56.8619C17.6128 56.8619 17.6132 56.8619 17.6136 56.8619C17.6139 56.8619 17.6143 56.8619 17.6147 56.8619C17.615 56.8619 17.6154 56.8619 17.6158 56.8619C17.6161 56.8619 17.6165 56.8619 17.6169 56.8619C17.6172 56.8619 17.6176 56.8619 17.618 56.8619C17.6183 56.8619 17.6187 56.8619 17.6191 56.8619C17.6194 56.8619 17.6198 56.8619 17.6202 56.8619C17.6205 56.8619 17.6209 56.8619 17.6213 56.8619C17.6216 56.8619 17.622 56.8619 17.6224 56.8619C17.6228 56.8619 17.6231 56.8619 17.6235 56.8619C17.6239 56.8619 17.6242 56.8619 17.6246 56.8619C17.625 56.8619 17.6253 56.8619 17.6257 56.8619C17.6261 56.8619 17.6264 56.8619 17.6268 56.8619C17.6272 56.8619 17.6275 56.8619 17.6279 56.8619C17.6283 56.8619 17.6286 56.8619 17.629 56.8619C17.6294 56.8619 17.6297 56.8619 17.6301 56.8619C17.6305 56.8619 17.6308 56.8619 17.6312 56.8619C17.6316 56.8619 17.6319 56.8619 17.6323 56.8619C17.6327 56.8619 17.633 56.8619 17.6334 56.8619C17.6338 56.8619 17.6341 56.8619 17.6345 56.8619C17.6349 56.8619 17.6352 56.8619 17.6356 56.8619C17.636 56.8619 17.6363 56.8619 17.6367 56.8619C17.6371 56.8619 17.6374 56.8619 17.6378 56.8619C17.6382 56.8619 17.6386 56.8619 17.6389 56.8619C17.6393 56.8619 17.6397 56.8619 17.64 56.8619C17.6404 56.8619 17.6408 56.8619 17.6411 56.8619C17.6415 56.8619 17.6419 56.8619 17.6422 56.8619C17.6426 56.8619 17.643 56.8619 17.6433 56.8619C17.6437 56.8619 17.6441 56.8619 17.6444 56.8619C17.6448 56.8619 17.6452 56.8619 17.6455 56.8619C17.6459 56.8619 17.6463 56.8619 17.6466 56.8619C17.647 56.8619 17.6474 56.8619 17.6477 56.8619C17.6481 56.8619 17.6485 56.8619 17.6488 56.8619C17.6492 56.8619 17.6496 56.8619 17.6499 56.8619C17.6503 56.8619 17.6507 56.8619 17.651 56.8619C17.6514 56.8619 17.6518 56.8619 17.6521 56.8619C17.6525 56.8619 17.6529 56.8619 17.6532 56.8619C17.6536 56.8619 17.654 56.8619 17.6544 56.8619C17.6547 56.8619 17.6551 56.8619 17.6555 56.8619C17.6558 56.8619 17.6562 56.8619 17.6566 56.8619C17.6569 56.8619 17.6573 56.8619 17.6577 56.8619C17.658 56.8619 17.6584 56.8619 17.6588 56.8619C17.6591 56.8619 17.6595 56.8619 17.6599 56.8619C17.6602 56.8619 17.6606 56.8619 17.661 56.8619C17.6613 56.8619 17.6617 56.8619 17.6621 56.8619C17.6624 56.8619 17.6628 56.8619 17.6632 56.8619C17.6635 56.8619 17.6639 56.8619 17.6643 56.8619C17.6646 56.8619 17.665 56.8619 17.6654 56.8619C17.6657 56.8619 17.6661 56.8619 17.6665 56.8619C17.6668 56.8619 17.6672 56.8619 17.6676 56.8619C17.6679 56.8619 17.6683 56.8619 17.6687 56.8619C17.669 56.8619 17.6694 56.8619 17.6698 56.8619C17.6702 56.8619 17.6705 56.8619 17.6709 56.8619C17.6713 56.8619 17.6716 56.8619 17.672 56.8619C17.6724 56.8619 17.6727 56.8619 17.6731 56.8619C17.6735 56.8619 17.6738 56.8619 17.6742 56.8619C17.6746 56.8619 17.6749 56.8619 17.6753 56.8619C17.6757 56.8619 17.676 56.8619 17.6764 56.8619C17.6768 56.8619 17.6771 56.8619 17.6775 56.8619C17.6779 56.8619 17.6782 56.8619 17.6786 56.8619C17.679 56.8619 17.6793 56.8619 17.6797 56.8619C17.6801 56.8619 17.6804 56.8619 17.6808 56.8619C17.6812 56.8619 17.6815 56.8619 17.6819 56.8619C17.6823 56.8619 17.6826 56.8619 17.683 56.8619C17.6834 56.8619 17.6837 56.8619 17.6841 56.8619C17.6845 56.8619 17.6848 56.8619 17.6852 56.8619C17.6856 56.8619 17.686 56.8619 17.6863 56.8619C17.6867 56.8619 17.6871 56.8619 17.6874 56.8619C17.6878 56.8619 17.6882 56.8619 17.6885 56.8619C17.6889 56.8619 17.6893 56.8619 17.6896 56.8619C17.69 56.8619 17.6904 56.8619 17.6907 56.8619C17.6911 56.8619 17.6915 56.8619 17.6918 56.8619C17.6922 56.8619 17.6926 56.8619 17.6929 56.8619C17.6933 56.8619 17.6937 56.8619 17.694 56.8619C17.6944 56.8619 17.6948 56.8619 17.6951 56.8619C17.6955 56.8619 17.6959 56.8619 17.6962 56.8619C17.6966 56.8619 17.697 56.8619 17.6973 56.8619C17.6977 56.8619 17.6981 56.8619 17.6984 56.8619C17.6988 56.8619 17.6992 56.8619 17.6995 56.8619C17.6999 56.8619 17.7003 56.8619 17.7006 56.8619C17.701 56.8619 17.7014 56.8619 17.7018 56.8619C17.7021 56.8619 17.7025 56.8619 17.7029 56.8619C17.7032 56.8619 17.7036 56.8619 17.704 56.8619C17.7043 56.8619 17.7047 56.8619 17.7051 56.8619C17.7054 56.8619 17.7058 56.8619 17.7062 56.8619C17.7065 56.8619 17.7069 56.8619 17.7073 56.8619C17.7076 56.8619 17.708 56.8619 17.7084 56.8619C17.7087 56.8619 17.7091 56.8619 17.7095 56.8619C17.7098 56.8619 17.7102 56.8619 17.7106 56.8619C17.7109 56.8619 17.7113 56.8619 17.7117 56.8619C17.712 56.8619 17.7124 56.8619 17.7128 56.8619C17.7131 56.8619 17.7135 56.8619 17.7139 56.8619C17.7142 56.8619 17.7146 56.8619 17.715 56.8619C17.7153 56.8619 17.7157 56.8619 17.7161 56.8619C17.7164 56.8619 17.7168 56.8619 17.7172 56.8619C17.7176 56.8619 17.7179 56.8619 17.7183 56.8619C17.7187 56.8619 17.719 56.8619 17.7194 56.8619C17.7198 56.8619 17.7201 56.8619 17.7205 56.8619C17.7209 56.8619 17.7212 56.8619 17.7216 56.8619C17.722 56.8619 17.7223 56.8619 17.7227 56.8619C17.7231 56.8619 17.7234 56.8619 17.7238 56.8619C17.7242 56.8619 17.7245 56.8619 17.7249 56.8619C17.7253 56.8619 17.7256 56.8619 17.726 56.8619C17.7264 56.8619 17.7267 56.8619 17.7271 56.8619C17.7275 56.8619 17.7278 56.8619 17.7282 56.8619C17.7286 56.8619 17.7289 56.8619 17.7293 56.8619C17.7297 56.8619 17.73 56.8619 17.7304 56.8619C17.7308 56.8619 17.7311 56.8619 17.7315 56.8619C17.7319 56.8619 17.7322 56.8619 17.7326 56.8619C17.733 56.8619 17.7334 56.8619 17.7337 56.8619C17.7341 56.8619 17.7345 56.8619 17.7348 56.8619C17.7352 56.8619 17.7356 56.8619 17.7359 56.8619C17.7363 56.8619 17.7367 56.8619 17.737 56.8619C17.7374 56.8619 17.7378 56.8619 17.7381 56.8619C17.7385 56.8619 17.7389 56.8619 17.7392 56.8619C17.7396 56.8619 17.74 56.8619 17.7403 56.8619C17.7407 56.8619 17.7411 56.8619 17.7414 56.8619C17.7418 56.8619 17.7422 56.8619 17.7425 56.8619C17.7429 56.8619 17.7433 56.8619 17.7436 56.8619C17.744 56.8619 17.7444 56.8619 17.7447 56.8619C17.7451 56.8619 17.7455 56.8619 17.7458 56.8619C17.7462 56.8619 17.7466 56.8619 17.7469 56.8619C17.7473 56.8619 17.7477 56.8619 17.748 56.8619C17.7484 56.8619 17.7488 56.8619 17.7492 56.8619C17.7495 56.8619 17.7499 56.8619 17.7503 56.8619C17.7506 56.8619 17.751 56.8619 17.7514 56.8619C17.7517 56.8619 17.7521 56.8619 17.7525 56.8619C17.7528 56.8619 17.7532 56.8619 17.7536 56.8619C17.7539 56.8619 17.7543 56.8619 17.7547 56.8619C17.755 56.8619 17.7554 56.8619 17.7558 56.8619C17.7561 56.8619 17.7565 56.8619 17.7569 56.8619C17.7572 56.8619 17.7576 56.8619 17.758 56.8619C17.7583 56.8619 17.7587 56.8619 17.7591 56.8619C17.7594 56.8619 17.7598 56.8619 17.7602 56.8619C17.7605 56.8619 17.7609 56.8619 17.7613 56.8619C17.7616 56.8619 17.762 56.8619 17.7624 56.8619C17.7627 56.8619 17.7631 56.8619 17.7635 56.8619C17.7638 56.8619 17.7642 56.8619 17.7646 56.8619C17.765 56.8619 17.7653 56.8619 17.7657 56.8619C17.7661 56.8619 17.7664 56.8619 17.7668 56.8619C17.7672 56.8619 17.7675 56.8619 17.7679 56.8619C17.7683 56.8619 17.7686 56.8619 17.769 56.8619C17.7694 56.8619 17.7697 56.8619 17.7701 56.8619C17.7705 56.8619 17.7708 56.8619 17.7712 56.8619C17.7716 56.8619 17.7719 56.8619 17.7723 56.8619C17.7727 56.8619 17.773 56.8619 17.7734 56.8619C17.7738 56.8619 17.7741 56.8619 17.7745 56.8619C17.7749 56.8619 17.7752 56.8619 17.7756 56.8619C17.776 56.8619 17.7763 56.8619 17.7767 56.8619C17.7771 56.8619 17.7774 56.8619 17.7778 56.8619C17.7782 56.8619 17.7785 56.8619 17.7789 56.8619C17.7793 56.8619 17.7796 56.8619 17.78 56.8619C17.7804 56.8619 17.7808 56.8619 17.7811 56.8619C17.7815 56.8619 17.7819 56.8619 17.7822 56.8619C17.7826 56.8619 17.783 56.8619 17.7833 56.8619C17.7837 56.8619 17.7841 56.8619 17.7844 56.8619C17.7848 56.8619 17.7852 56.8619 17.7855 56.8619C17.7859 56.8619 17.7863 56.8619 17.7866 56.8619C17.787 56.8619 17.7874 56.8619 17.7877 56.8619C17.7881 56.8619 17.7885 56.8619 17.7888 56.8619C17.7892 56.8619 17.7896 56.8619 17.7899 56.8619C17.7903 56.8619 17.7907 56.8619 17.791 56.8619C17.7914 56.8619 17.7918 56.8619 17.7921 56.8619C17.7925 56.8619 17.7929 56.8619 17.7932 56.8619C17.7936 56.8619 17.794 56.8619 17.7943 56.8619C17.7947 56.8619 17.7951 56.8619 17.7954 56.8619C17.7958 56.8619 17.7962 56.8619 17.7966 56.8619C17.7969 56.8619 17.7973 56.8619 17.7977 56.8619C17.798 56.8619 17.7984 56.8619 17.7988 56.8619C17.7991 56.8619 17.7995 56.8619 17.7999 56.8619C17.8002 56.8619 17.8006 56.8619 17.801 56.8619C17.8013 56.8619 17.8017 56.8619 17.8021 56.8619C17.8024 56.8619 17.8028 56.8619 17.8032 56.8619C17.8035 56.8619 17.8039 56.8619 17.8043 56.8619C17.8046 56.8619 17.805 56.8619 17.8054 56.8619C17.8057 56.8619 17.8061 56.8619 17.8065 56.8619C17.8068 56.8619 17.8072 56.8619 17.8076 56.8619C17.8079 56.8619 17.8083 56.8619 17.8087 56.8619C17.809 56.8619 17.8094 56.8619 17.8098 56.8619C17.8101 56.8619 17.8105 56.8619 17.8109 56.8619C17.8112 56.8619 17.8116 56.8619 17.812 56.8619C17.8124 56.8619 17.8127 56.8619 17.8131 56.8619C17.8135 56.8619 17.8138 56.8619 17.8142 56.8619C17.8146 56.8619 17.8149 56.8619 17.8153 56.8619C17.8157 56.8619 17.816 56.8619 17.8164 56.8619C17.8168 56.8619 17.8171 56.8619 17.8175 56.8619C17.8179 56.8619 17.8182 56.8619 17.8186 56.8619C17.819 56.8619 17.8193 56.8619 17.8197 56.8619C17.8201 56.8619 17.8204 56.8619 17.8208 56.8619C17.8212 56.8619 17.8215 56.8619 17.8219 56.8619C17.8223 56.8619 17.8226 56.8619 17.823 56.8619C17.8234 56.8619 17.8237 56.8619 17.8241 56.8619C17.8245 56.8619 17.8248 56.8619 17.8252 56.8619C17.8256 56.8619 17.8259 56.8619 17.8263 56.8619C17.8267 56.8619 17.827 56.8619 17.8274 56.8619C17.8278 56.8619 17.8282 56.8619 17.8285 56.8619C17.8289 56.8619 17.8293 56.8619 17.8296 56.8619C17.83 56.8619 17.8304 56.8619 17.8307 56.8619C17.8311 56.8619 17.8315 56.8619 17.8318 56.8619C17.8322 56.8619 17.8326 56.8619 17.8329 56.8619C17.8333 56.8619 17.8337 56.8619 17.834 56.8619C17.8344 56.8619 17.8348 56.8619 17.8351 56.8619C17.8355 56.8619 17.8359 56.8619 17.8362 56.8619C17.8366 56.8619 17.837 56.8619 17.8373 56.8619C17.8377 56.8619 17.8381 56.8619 17.8384 56.8619C17.8388 56.8619 17.8392 56.8619 17.8395 56.8619C17.8399 56.8619 17.8403 56.8619 17.8406 56.8619C17.841 56.8619 17.8414 56.8619 17.8417 56.8619C17.8421 56.8619 17.8425 56.8619 17.8428 56.8619C17.8432 56.8619 17.8436 56.8619 17.844 56.8619C17.8443 56.8619 17.8447 56.8619 17.8451 56.8619C17.8454 56.8619 17.8458 56.8619 17.8462 56.8619C17.8465 56.8619 17.8469 56.8619 17.8473 56.8619C17.8476 56.8619 17.848 56.8619 17.8484 56.8619C17.8487 56.8619 17.8491 56.8619 17.8495 56.8619C17.8498 56.8619 17.8502 56.8619 17.8506 56.8619C17.8509 56.8619 17.8513 56.8619 17.8517 56.8619C17.852 56.8619 17.8524 56.8619 17.8528 56.8619C17.8531 56.8619 17.8535 56.8619 17.8539 56.8619C17.8542 56.8619 17.8546 56.8619 17.855 56.8619C17.8553 56.8619 17.8557 56.8619 17.8561 56.8619C17.8564 56.8619 17.8568 56.8619 17.8572 56.8619C17.8575 56.8619 17.8579 56.8619 17.8583 56.8619C17.8586 56.8619 17.859 56.8619 17.8594 56.8619C17.8598 56.8619 17.8601 56.8619 17.8605 56.8619C17.8609 56.8619 17.8612 56.8619 17.8616 56.8619C17.862 56.8619 17.8623 56.8619 17.8627 56.8619C17.8631 56.8619 17.8634 56.8619 17.8638 56.8619C17.8642 56.8619 17.8645 56.8619 17.8649 56.8619V55.2619ZM16.7348 56.6275C17.2865 57.1792 17.9375 57.8392 18.824 58.2825L19.5396 56.8514C18.921 56.5421 18.4433 56.0733 17.8662 55.4962L16.7348 56.6275ZM18.3947 57.4238C18.0034 59.5758 18.0055 61.7172 18.0055 63.7752H19.6055C19.6055 61.6944 19.6076 59.6969 19.9689 57.71L18.3947 57.4238ZM18.0055 63.7752C18.0055 64.881 18.0024 66.0962 18.2092 67.1303L19.7781 66.8165C19.6087 65.9694 19.6055 64.927 19.6055 63.7752H18.0055ZM18.1957 67.0304C18.3864 69.7006 18.7682 72.3759 19.3429 74.8667L20.902 74.5069C20.348 72.1063 19.9772 69.514 19.7916 66.9164L18.1957 67.0304ZM20.1225 75.4868H23.8851V73.8868H20.1225V75.4868ZM23.8851 75.4868C24.2468 75.4868 24.5924 75.4269 24.8513 75.3798C25.1517 75.3252 25.2938 75.2987 25.3901 75.2987V73.6987C25.1102 73.6987 24.7819 73.7662 24.565 73.8056C24.3065 73.8526 24.0878 73.8868 23.8851 73.8868V75.4868ZM25.547 75.2831C26.7078 75.051 27.5961 74.3647 28.2134 73.7474L27.082 72.6161C26.5705 73.1276 25.9538 73.5701 25.2332 73.7142L25.547 75.2831ZM28.2877 73.6618C28.361 73.5641 28.4598 73.3937 28.5558 73.2231C28.6636 73.0313 28.8019 72.7768 28.9648 72.4696C29.2909 71.8546 29.7211 71.0178 30.2131 70.028C31.1967 68.0488 32.4321 65.4481 33.5799 62.7738C34.7254 60.1051 35.7942 57.3388 36.4346 55.0357C36.754 53.8868 36.976 52.8216 37.0391 51.9255C37.0989 51.0761 37.0329 50.185 36.5654 49.5617L35.2854 50.5217C35.3824 50.6509 35.4986 51.0238 35.443 51.8132C35.3908 52.5559 35.1997 53.5042 34.8931 54.6071C34.2812 56.8073 33.2453 59.4969 32.1096 62.1428C30.9764 64.7832 29.7543 67.3561 28.7803 69.3159C28.2933 70.2956 27.8696 71.1196 27.5512 71.7201C27.3918 72.0207 27.2603 72.2626 27.1612 72.4388C27.0502 72.6362 27.005 72.7054 27.0077 72.7018L28.2877 73.6618Z" fill="#01090F" mask="url(#path-3-inside-1_1081_3028)"/>
<mask id="path-5-inside-2_1081_3028" fill="white">
<path d="M109.378 54.3704C109.002 52.6773 108.626 50.9841 107.873 49.479C106.932 46.6571 105.427 43.8351 103.922 41.3894C102.794 39.32 101.289 37.4387 99.5954 35.5574H91.5057C90.7532 35.5574 90.0007 35.7455 89.4363 35.9336C89.2482 36.1218 89.06 36.1218 88.6838 36.3099C87.3669 37.0624 84.733 38.7556 83.6043 41.7657C81.7229 46.4689 77.0197 49.2909 71.9402 49.2909H62.1574C58.5829 49.2909 55.7609 52.301 55.7609 56.2517C55.7609 56.2517 56.1372 58.6974 56.8897 62.4601C57.6422 65.8464 57.8304 69.2328 57.6422 72.6191C57.4541 77.5105 58.771 83.3425 61.9692 88.7983C67.6131 98.5811 76.8315 104.037 83.9805 102.156C84.5449 102.532 85.5447 103.919 86.2972 104.107C86.2972 104.107 90.1774 102.755 97.4675 95.4652C97.8438 95.089 98.6198 94.3835 98.9961 93.8191C101.63 91.1852 103.546 87.4814 105.427 84.0951C106.744 81.8375 107.873 79.2037 108.626 76.758C109.943 72.6191 110.695 68.2921 110.695 63.777C110.319 60.3906 109.943 57.3805 109.378 54.3704Z"/>
</mask>
<path d="M109.378 54.3704C109.002 52.6773 108.626 50.9841 107.873 49.479C106.932 46.6571 105.427 43.8351 103.922 41.3894C102.794 39.32 101.289 37.4387 99.5954 35.5574H91.5057C90.7532 35.5574 90.0007 35.7455 89.4363 35.9336C89.2482 36.1218 89.06 36.1218 88.6838 36.3099C87.3669 37.0624 84.733 38.7556 83.6043 41.7657C81.7229 46.4689 77.0197 49.2909 71.9402 49.2909H62.1574C58.5829 49.2909 55.7609 52.301 55.7609 56.2517C55.7609 56.2517 56.1372 58.6974 56.8897 62.4601C57.6422 65.8464 57.8304 69.2328 57.6422 72.6191C57.4541 77.5105 58.771 83.3425 61.9692 88.7983C67.6131 98.5811 76.8315 104.037 83.9805 102.156C84.5449 102.532 85.5447 103.919 86.2972 104.107C86.2972 104.107 90.1774 102.755 97.4675 95.4652C97.8438 95.089 98.6198 94.3835 98.9961 93.8191C101.63 91.1852 103.546 87.4814 105.427 84.0951C106.744 81.8375 107.873 79.2037 108.626 76.758C109.943 72.6191 110.695 68.2921 110.695 63.777C110.319 60.3906 109.943 57.3805 109.378 54.3704Z" fill="#294C6A"/>
<path d="M109.378 54.3704L110.164 54.223L110.162 54.2099L110.159 54.1969L109.378 54.3704ZM107.873 49.479L107.114 49.732L107.132 49.786L107.158 49.8368L107.873 49.479ZM103.922 41.3894L103.22 41.7725L103.23 41.7909L103.241 41.8087L103.922 41.3894ZM99.5954 35.5574L100.19 35.0222L99.9516 34.7574H99.5954V35.5574ZM89.4363 35.9336L89.1833 35.1747L89.0042 35.2344L88.8706 35.368L89.4363 35.9336ZM88.6838 36.3099L88.326 35.5944L88.3061 35.6043L88.2869 35.6153L88.6838 36.3099ZM83.6043 41.7657L84.347 42.0628L84.3503 42.0547L84.3533 42.0466L83.6043 41.7657ZM55.7609 56.2517H54.9609V56.3129L54.9702 56.3734L55.7609 56.2517ZM56.8897 62.4601L56.1052 62.6169L56.1069 62.6253L56.1088 62.6336L56.8897 62.4601ZM57.6422 72.6191L56.8433 72.5747L56.8428 72.5884L57.6422 72.6191ZM61.9692 88.7983L62.6622 88.3985L62.6594 88.3938L61.9692 88.7983ZM83.9805 102.156L84.4243 101.49L84.1249 101.29L83.7769 101.382L83.9805 102.156ZM86.2972 104.107L86.1032 104.884L86.3349 104.942L86.5605 104.863L86.2972 104.107ZM97.4675 95.4652L96.9018 94.8995L97.4675 95.4652ZM98.9961 93.8191L98.4304 93.2534L98.3744 93.3094L98.3304 93.3753L98.9961 93.8191ZM105.427 84.0951L104.736 83.692L104.732 83.6992L104.728 83.7066L105.427 84.0951ZM108.626 76.758L107.863 76.5154L107.861 76.5227L108.626 76.758ZM110.695 63.777H111.495V63.7327L111.49 63.6886L110.695 63.777ZM110.159 54.1969C109.787 52.5226 109.393 50.7298 108.589 49.1213L107.158 49.8368C107.858 51.2384 108.217 52.8319 108.597 54.544L110.159 54.1969ZM108.632 49.2261C107.664 46.3216 106.124 43.4406 104.604 40.9701L103.241 41.8087C104.731 44.2296 106.201 46.9925 107.114 49.732L108.632 49.2261ZM104.625 41.0063C103.452 38.8566 101.899 36.9215 100.19 35.0222L99.0007 36.0925C100.678 37.9559 102.135 39.7834 103.22 41.7725L104.625 41.0063ZM99.5954 34.7574H91.5057V36.3574H99.5954V34.7574ZM91.5057 34.7574C90.6322 34.7574 89.7876 34.9732 89.1833 35.1747L89.6893 36.6926C90.2138 36.5178 90.8742 36.3574 91.5057 36.3574V34.7574ZM88.8706 35.368C88.8877 35.3509 88.9087 35.3489 88.8335 35.379C88.7571 35.4095 88.5538 35.4804 88.326 35.5944L89.0415 37.0254C89.19 36.9512 89.2689 36.9281 89.4277 36.8645C89.5876 36.8006 89.7968 36.7045 90.002 36.4993L88.8706 35.368ZM88.2869 35.6153C86.943 36.3832 84.0888 38.1953 82.8552 41.4848L84.3533 42.0466C85.3773 39.3159 87.7908 37.7416 89.0807 37.0045L88.2869 35.6153ZM82.8615 41.4686C81.1163 45.8314 76.7339 48.4909 71.9402 48.4909V50.0909C77.3054 50.0909 82.3296 47.1065 84.347 42.0628L82.8615 41.4686ZM71.9402 48.4909H62.1574V50.0909H71.9402V48.4909ZM62.1574 48.4909C58.0831 48.4909 54.9609 51.9194 54.9609 56.2517H56.5609C56.5609 52.6826 59.0827 50.0909 62.1574 50.0909V48.4909ZM55.7609 56.2517C54.9702 56.3734 54.9702 56.3734 54.9702 56.3735C54.9702 56.3735 54.9702 56.3736 54.9703 56.3736C54.9703 56.3737 54.9703 56.3739 54.9703 56.374C54.9704 56.3744 54.9705 56.3749 54.9706 56.3756C54.9708 56.3769 54.9711 56.3789 54.9715 56.3814C54.9722 56.3864 54.9734 56.3938 54.9749 56.4035C54.9779 56.4229 54.9824 56.4516 54.9884 56.4894C55.0004 56.5648 55.0182 56.6763 55.0419 56.8216C55.0894 57.1122 55.1604 57.5382 55.2549 58.082C55.4441 59.1694 55.7275 60.7282 56.1052 62.6169L57.6742 62.3032C57.2994 60.4293 57.0184 58.8839 56.8313 57.8078C56.7377 57.2699 56.6676 56.8493 56.621 56.5638C56.5977 56.421 56.5803 56.312 56.5687 56.239C56.5629 56.2025 56.5586 56.175 56.5558 56.1567C56.5543 56.1476 56.5533 56.1408 56.5526 56.1364C56.5522 56.1341 56.552 56.1325 56.5518 56.1315C56.5517 56.1309 56.5517 56.1306 56.5517 56.1303C56.5516 56.1302 56.5516 56.1301 56.5516 56.1301C56.5516 56.1301 56.5516 56.1301 56.5516 56.1301C56.5516 56.1301 56.5516 56.1301 55.7609 56.2517ZM56.1088 62.6336C56.8427 65.9362 57.0283 69.2477 56.8435 72.5747L58.441 72.6635C58.6324 69.2178 58.4418 65.7566 57.6707 62.2865L56.1088 62.6336ZM56.8428 72.5884C56.6486 77.6379 58.0065 83.6204 61.2791 89.2029L62.6594 88.3938C59.5355 83.0647 58.2596 77.3831 58.4416 72.6499L56.8428 72.5884ZM61.2763 89.1981C64.1575 94.1923 67.9643 98.1065 71.9977 100.536C76.0239 102.962 80.3392 103.941 84.1841 102.929L83.7769 101.382C80.4728 102.251 76.6045 101.444 72.8233 99.1657C69.0492 96.8922 65.4248 93.1872 62.6622 88.3986L61.2763 89.1981ZM83.5368 102.821C83.6032 102.866 83.7207 102.969 83.9075 103.157C83.9949 103.245 84.087 103.34 84.1875 103.444C84.2863 103.547 84.3924 103.657 84.5007 103.766C84.7147 103.981 84.9563 104.213 85.2054 104.407C85.4427 104.592 85.7522 104.796 86.1032 104.884L86.4913 103.331C86.466 103.325 86.3683 103.285 86.1889 103.145C86.0213 103.014 85.8365 102.84 85.6359 102.638C85.537 102.539 85.4387 102.437 85.3388 102.333C85.2405 102.232 85.1396 102.127 85.0421 102.029C84.8592 101.845 84.6401 101.634 84.4243 101.49L83.5368 102.821ZM86.2972 104.107C86.5605 104.863 86.5609 104.863 86.5613 104.863C86.5615 104.863 86.562 104.862 86.5623 104.862C86.5629 104.862 86.5637 104.862 86.5644 104.862C86.566 104.861 86.5677 104.86 86.5698 104.86C86.5738 104.858 86.5787 104.856 86.5846 104.854C86.5964 104.85 86.612 104.844 86.6313 104.837C86.6698 104.822 86.7232 104.8 86.7915 104.771C86.928 104.713 87.1236 104.625 87.3774 104.497C87.8851 104.241 88.6254 103.828 89.5912 103.187C91.5224 101.904 94.3557 99.7084 98.0332 96.0309L96.9018 94.8995C93.2892 98.5121 90.5374 100.638 88.706 101.854C87.7905 102.462 87.1052 102.842 86.6575 103.068C86.4336 103.181 86.2691 103.255 86.1649 103.299C86.1128 103.321 86.0758 103.336 86.0539 103.344C86.043 103.349 86.0359 103.351 86.0325 103.353C86.0309 103.353 86.0302 103.353 86.0304 103.353C86.0305 103.353 86.0309 103.353 86.0315 103.353C86.0318 103.353 86.0321 103.353 86.0325 103.353C86.0328 103.352 86.0331 103.352 86.0332 103.352C86.0336 103.352 86.034 103.352 86.2972 104.107ZM98.0332 96.0309C98.1812 95.8829 98.5261 95.5553 98.8031 95.2726C99.0964 94.9734 99.4294 94.6113 99.6617 94.2628L98.3304 93.3753C98.1865 93.5913 97.9433 93.8641 97.6604 94.1528C97.3613 94.458 97.1301 94.6712 96.9018 94.8995L98.0332 96.0309ZM99.5617 94.3848C102.295 91.6519 104.272 87.823 106.127 84.4836L104.728 83.7066C102.821 87.1398 100.965 90.7186 98.4304 93.2534L99.5617 94.3848ZM106.118 84.4982C107.468 82.1842 108.621 79.4935 109.39 76.9932L107.861 76.5227C107.125 78.9138 106.02 81.4909 104.736 83.692L106.118 84.4982ZM109.388 77.0005C110.727 72.7912 111.495 68.3824 111.495 63.777H109.895C109.895 68.2018 109.158 72.447 107.863 76.5154L109.388 77.0005ZM111.49 63.6886C111.113 60.2979 110.735 57.2636 110.164 54.223L108.592 54.5179C109.151 57.4975 109.524 60.4833 109.9 63.8653L111.49 63.6886Z" fill="#01090F" mask="url(#path-5-inside-2_1081_3028)"/>
<path d="M109.568 63.9635C109.568 69.2311 108.627 74.1225 107.122 78.8258C105.993 81.8359 104.676 84.6578 103.171 87.2917C100.914 91.0543 97.9037 94.6288 94.7055 97.6389C94.1411 98.2032 93.5767 98.5795 93.0123 99.1439C90.0022 101.59 86.4277 103.847 82.6651 105.352C79.2788 106.857 75.5161 107.986 71.7535 108.55C69.3078 108.927 67.0503 109.115 64.4164 109.115C44.8509 109.115 28.1072 96.6982 21.8989 79.202C21.3345 77.697 20.9583 76.3801 20.582 74.875C20.0176 72.4293 19.6413 69.7955 19.4532 67.1617C19.2651 66.0329 19.2651 65.0922 19.2651 63.9635C19.2651 61.894 19.4532 59.8246 19.6413 57.7552C19.6413 57.1908 19.8295 56.8145 19.8295 56.2501C20.3939 53.24 21.1464 50.2299 22.2752 47.408C23.5921 43.8335 25.4734 40.6353 27.731 37.6252C36.0087 26.3373 49.1779 19.0002 64.4164 19.0002C76.2687 19.0002 86.9921 23.5154 95.0817 31.0406C95.458 31.4169 95.8343 31.7931 96.2105 32.1694C98.28 34.0507 99.9731 36.3083 101.478 38.5658C103.359 41.3878 105.053 44.586 106.37 47.7842C107.122 49.6655 107.686 51.5468 108.063 53.4282C109.003 56.8145 109.568 60.389 109.568 63.9635Z" stroke="#01090F" stroke-width="0.8" stroke-miterlimit="10" stroke-linecap="round" stroke-linejoin="round"/>
<path d="M8.82253 40.902C6.97731 50.412 14.0743 58.7865 23.3004 59.0703H36.7847C37.7783 59.0703 38.6299 58.2187 38.6299 57.2251V44.0247C38.6299 34.6567 30.2554 27.4178 20.6035 29.263C14.784 30.3985 9.95805 35.0825 8.82253 40.902Z" fill="#01090F"/>
<path d="M23.5837 58.469C31.5611 58.469 38.028 52.002 38.028 44.0246C38.028 36.0473 31.5611 29.5803 23.5837 29.5803C15.6063 29.5803 9.13936 36.0473 9.13936 44.0246C9.13936 52.002 15.6063 58.469 23.5837 58.469Z" fill="#F88401"/>
<path fill-rule="evenodd" clip-rule="evenodd" d="M32.2577 37.7969C33.1492 38.5636 33.2504 39.9078 32.4837 40.7994L22.7182 52.1546C21.9731 53.021 20.6769 53.1446 19.7814 52.4348L14.9689 48.6202C14.0474 47.8898 13.8925 46.5506 14.623 45.6291C15.3534 44.7076 16.6925 44.5527 17.614 45.2832L20.8235 47.8272L29.2552 38.0229C30.0219 37.1313 31.3661 37.0302 32.2577 37.7969Z" fill="#9BCDFB" stroke="#01090F" stroke-width="0.8" stroke-miterlimit="10" stroke-linecap="round" stroke-linejoin="round"/>
<path d="M106.044 44.352C95.3441 42.2758 85.9213 50.2612 85.6019 60.6421V75.8143C85.6019 76.9323 86.5602 77.8905 87.6781 77.8905H102.531C113.072 77.8905 121.217 68.4678 119.14 57.6077C117.863 50.9 112.592 45.6297 106.044 44.352Z" fill="#01090F"/>
<path d="M102.53 76.7696C111.35 76.7696 118.5 69.6197 118.5 60.7999C118.5 51.98 111.35 44.8301 102.53 44.8301C93.7105 44.8301 86.5606 51.98 86.5606 60.7999C86.5606 69.6197 93.7105 76.7696 102.53 76.7696Z" fill="#F88401"/>
<path fill-rule="evenodd" clip-rule="evenodd" d="M112.294 53.6328C113.297 54.4955 113.411 56.008 112.548 57.0111L101.56 69.7877C100.722 70.7626 99.2636 70.9017 98.2559 70.1031L92.8411 65.8109C91.8042 64.9891 91.63 63.4823 92.4518 62.4455C93.2737 61.4086 94.7804 61.2343 95.8173 62.0562L99.4285 64.9186L108.916 53.8871C109.778 52.884 111.291 52.7701 112.294 53.6328Z" fill="#9BCDFB" stroke="#01090F" stroke-width="0.8" stroke-miterlimit="10" stroke-linecap="round" stroke-linejoin="round"/>
</svg>
