<svg width="128" height="128" viewBox="0 0 128 128" fill="none" xmlns="http://www.w3.org/2000/svg">
<path d="M79.5805 100.451C70.2957 108.15 58.0669 110.641 46.744 107.697C44.7059 107.244 42.6678 107.924 41.309 109.509L34.9682 116.982C32.9301 119.247 29.5332 119.473 27.4951 117.661L15.7193 107.471C13.4547 105.433 13.2282 102.036 15.2664 99.9976L21.6072 92.5245C22.9659 90.9393 23.4189 88.9012 22.513 87.0895C17.9839 76.446 18.4368 63.7643 24.7776 53.5737C26.3628 50.8562 30.2126 50.4033 32.7036 52.4414L79.354 92.5245C82.0715 94.3362 82.0715 98.4124 79.5805 100.451Z" fill="#294C6A" stroke="#01090F" stroke-width="0.8" stroke-linecap="round" stroke-linejoin="round"/>
<path d="M22.8764 86.6991C18.5602 76.5468 18.8269 64.5302 24.4628 54.6596C24.4778 54.8657 24.4949 55.0948 24.5146 55.3456C24.6153 56.6302 24.7812 58.4848 25.0419 60.7391C25.5632 65.2465 26.4643 71.3564 27.9836 77.7034C29.5022 84.0472 31.6425 90.6458 34.6495 96.1211C37.2607 100.876 40.5466 104.822 44.6819 106.993C43.276 107.19 41.9771 107.892 41.0053 109.026L41.004 109.027L34.667 116.496C32.7616 118.608 29.6181 118.79 27.7608 117.14L27.7609 117.14L27.7568 117.136L15.984 106.948C13.8713 105.044 13.6934 101.913 15.5492 100.058L15.5608 100.046L15.5714 100.034L21.9109 92.562C21.9112 92.5616 21.9115 92.5613 21.9118 92.5609C23.347 90.8859 23.8621 88.6827 22.8764 86.6991Z" fill="#F88401" stroke="#01090F" stroke-width="0.8"/>
<path d="M79.1862 58.8059L88.471 66.732C88.9239 66.9584 88.9239 67.6378 88.471 67.8642L80.092 77.6019C78.9597 78.7342 77.1481 78.9607 76.0158 77.8284L69.9014 72.6199C68.7691 71.4876 68.5427 69.6759 69.675 68.5436L78.0539 58.8059C78.2804 58.5795 78.7333 58.353 79.1862 58.8059Z" fill="#294C6A" stroke="#01090F" stroke-width="0.8" stroke-miterlimit="10" stroke-linecap="round" stroke-linejoin="round"/>
<path d="M58.5807 40.9164L67.8655 48.8425C68.3184 49.0689 68.3184 49.7483 67.8655 49.9747L59.4865 59.7124C58.3542 60.8447 56.5426 61.0712 55.4103 59.9389L49.2959 54.7304C48.1636 53.5981 47.9371 51.7864 49.0694 50.6541L57.4484 40.9164C57.6748 40.69 58.1278 40.69 58.5807 40.9164Z" fill="#294C6A" stroke="#01090F" stroke-width="0.8" stroke-miterlimit="10" stroke-linecap="round" stroke-linejoin="round"/>
<path d="M106.588 35.7044C105.23 37.2896 104.777 39.3277 105.682 41.1394C110.212 51.7829 109.759 64.2381 103.418 74.6552C102.739 75.7875 101.606 76.6933 100.247 76.9197C98.6623 77.3727 96.6242 76.9197 95.2654 75.7875L87.5658 69.2202L76.9223 60.1618L66.9581 51.5564L56.3146 42.4981L48.615 35.7044C46.124 33.6663 46.124 29.59 48.615 27.5519C57.8998 19.8523 70.1286 17.3613 81.4515 20.3052C83.4896 20.7581 85.5277 20.0788 86.8865 18.4936L93.2273 11.0205C95.2654 8.75587 98.6623 8.52941 100.7 10.3411L112.25 20.5317C114.514 22.5698 114.741 25.9667 112.929 28.0048L106.588 35.7044Z" fill="#97DDE5" stroke="#01090F" stroke-width="0.8" stroke-miterlimit="10" stroke-linecap="round" stroke-linejoin="round"/>
<path d="M100.254 76.5103L95.7455 75.4856C99.7143 58.7009 97.5611 44.4468 94.3985 34.366C92.805 29.2865 90.9549 25.2657 89.5018 22.5126C88.7751 21.1359 88.1476 20.0758 87.7006 19.3585C87.4771 18.9998 87.2988 18.7268 87.1758 18.5426C87.1702 18.5343 87.1648 18.5261 87.1594 18.5182L93.299 11.2823C95.2043 9.16967 98.3479 8.98768 100.205 10.6386L100.205 10.6386L100.209 10.6421L111.982 20.8301C114.096 22.7354 114.278 25.8799 112.627 27.7376L112.622 27.7432L112.617 27.7491L106.279 35.4456C104.845 37.1204 104.331 39.3226 105.316 41.3056C109.793 51.8353 109.341 64.1491 103.073 74.4457L103.072 74.4479C102.454 75.4775 101.444 76.286 100.254 76.5103Z" fill="#F88401" stroke="#01090F" stroke-width="0.8"/>
</svg>
