<svg width="108" height="35" viewBox="0 0 108 35" fill="none" xmlns="http://www.w3.org/2000/svg">
<path d="M56.8358 9.04254C56.8358 10.2678 55.8665 11.2548 54.6631 11.2548C53.4598 11.2548 52.4904 10.2678 52.4904 9.04254C52.4904 7.81732 53.4263 6.83033 54.6631 6.83033C55.8999 6.86436 56.8358 7.85135 56.8358 9.04254ZM47.8776 13.501C47.8776 13.7052 47.8776 14.0455 47.8776 14.0455C47.8776 14.0455 46.8414 12.6842 44.6353 12.6842C40.9918 12.6842 38.1506 15.509 38.1506 19.4229C38.1506 23.3028 40.9584 26.1617 44.6353 26.1617C46.8748 26.1617 47.8776 24.7663 47.8776 24.7663V25.3448C47.8776 25.6171 48.0782 25.8213 48.3456 25.8213H51.0531V13.0245C51.0531 13.0245 48.5795 13.0245 48.3456 13.0245C48.0782 13.0245 47.8776 13.2628 47.8776 13.501ZM47.8776 21.7032C47.3762 22.452 46.3734 23.0986 45.1701 23.0986C43.0308 23.0986 41.3929 21.7372 41.3929 19.4229C41.3929 17.1086 43.0308 15.7472 45.1701 15.7472C46.34 15.7472 47.4096 16.4279 47.8776 17.1426V21.7032ZM53.0587 13.0245H56.2676V25.8213H53.0587V13.0245ZM100.992 12.6842C98.7857 12.6842 97.7495 14.0455 97.7495 14.0455V6.86436H94.5405V25.8213C94.5405 25.8213 97.0141 25.8213 97.2481 25.8213C97.5155 25.8213 97.716 25.5831 97.716 25.3448V24.7663C97.716 24.7663 98.7523 26.1617 100.958 26.1617C104.602 26.1617 107.443 23.3028 107.443 19.4229C107.443 15.543 104.602 12.6842 100.992 12.6842ZM100.457 23.0646C99.2202 23.0646 98.2509 22.4179 97.7495 21.6692V17.1086C98.2509 16.4279 99.3205 15.7132 100.457 15.7132C102.596 15.7132 104.234 17.0746 104.234 19.3889C104.234 21.7032 102.596 23.0646 100.457 23.0646ZM92.8692 18.2317V25.8554H89.6603V18.6061C89.6603 16.496 88.9918 15.6451 87.1868 15.6451C86.2174 15.6451 85.2146 16.1557 84.5795 16.9044V25.8213H81.3706V13.0245H83.911C84.1784 13.0245 84.379 13.2628 84.379 13.501V14.0455C85.3149 13.0586 86.5517 12.6842 87.7885 12.6842C89.1924 12.6842 90.3623 13.0926 91.2982 13.9094C92.4347 14.8624 92.8692 16.0876 92.8692 18.2317ZM73.5823 12.6842C71.3762 12.6842 70.34 14.0455 70.34 14.0455V6.86436H67.1311V25.8213C67.1311 25.8213 69.6046 25.8213 69.8386 25.8213C70.106 25.8213 70.3066 25.5831 70.3066 25.3448V24.7663C70.3066 24.7663 71.3428 26.1617 73.5489 26.1617C77.1924 26.1617 80.0336 23.3028 80.0336 19.4229C80.067 15.543 77.2258 12.6842 73.5823 12.6842ZM73.0475 23.0646C71.8107 23.0646 70.8414 22.4179 70.34 21.6692V17.1086C70.8414 16.4279 71.911 15.7132 73.0475 15.7132C75.1868 15.7132 76.8247 17.0746 76.8247 19.3889C76.8247 21.7032 75.1868 23.0646 73.0475 23.0646ZM64.3567 12.6842C65.3261 12.6842 65.8275 12.8544 65.8275 12.8544V15.8834C65.8275 15.8834 63.1534 14.9645 61.4821 16.9044V25.8554H58.2731V13.0245C58.2731 13.0245 60.7467 13.0245 60.9807 13.0245C61.2481 13.0245 61.4486 13.2628 61.4486 13.501V14.0455C62.0503 13.3308 63.3539 12.6842 64.3567 12.6842ZM31.0308 24.6642C30.8637 24.2558 30.6965 23.8133 30.5294 23.4389C30.262 22.8263 29.9946 22.2477 29.7606 21.7032L29.7272 21.6692C27.4208 16.5641 24.9472 11.3909 22.34 6.28579L22.2397 6.08158C21.9723 5.57107 21.7049 5.02653 21.4375 4.48198C21.1032 3.86937 20.769 3.22272 20.2341 2.61011C19.1645 1.24875 17.6269 0.5 15.989 0.5C14.3177 0.5 12.8135 1.24875 11.7105 2.54204C11.2091 3.15465 10.8414 3.8013 10.5071 4.41391C10.2397 4.95846 9.9723 5.503 9.70489 6.01351L9.60461 6.21772C7.0308 11.3228 4.52383 16.496 2.21743 21.6011L2.184 21.6692C1.95002 22.2137 1.68261 22.7923 1.4152 23.4049C1.24807 23.7793 1.08094 24.1877 0.913806 24.6301C0.479266 25.8894 0.345561 27.0806 0.512692 28.3058C0.88038 30.8584 2.55169 33.0025 4.8581 33.9555C5.72718 34.3298 6.62968 34.5 7.56562 34.5C7.83303 34.5 8.16729 34.466 8.4347 34.4319C9.53776 34.2958 10.6743 33.9214 11.7773 33.2748C13.1478 32.492 14.4514 31.3689 15.9222 29.7352C17.3929 31.3689 18.73 32.492 20.067 33.2748C21.1701 33.9214 22.3066 34.2958 23.4096 34.4319C23.677 34.466 24.0113 34.5 24.2787 34.5C25.2146 34.5 26.1506 34.3298 26.9862 33.9555C29.3261 33.0025 30.9639 30.8243 31.3316 28.3058C31.599 27.1146 31.4653 25.9234 31.0308 24.6642ZM15.9556 26.4339C14.1506 24.1196 12.9807 21.9414 12.5795 20.1036C12.4124 19.3208 12.379 18.6401 12.4793 18.0275C12.5461 17.483 12.7467 17.0065 13.0141 16.5981C13.6492 15.6792 14.7188 15.1006 15.9556 15.1006C17.1924 15.1006 18.2954 15.6451 18.8971 16.5981C19.1645 17.0065 19.3651 17.483 19.4319 18.0275C19.5322 18.6401 19.4988 19.3549 19.3316 20.1036C18.9305 21.9074 17.7606 24.0856 15.9556 26.4339ZM29.2926 28.0335C29.0587 29.8033 27.8887 31.3348 26.2509 32.0155C25.4486 32.3559 24.5795 32.458 23.7105 32.3559C22.8748 32.2538 22.0392 31.9815 21.1701 31.471C19.9667 30.7903 18.7634 29.7352 17.3595 28.1697C19.5656 25.4129 20.9027 22.8944 21.4041 20.6481C21.638 19.5931 21.6715 18.6401 21.5712 17.7553C21.4375 16.9044 21.1366 16.1216 20.6687 15.4409C19.6325 13.9094 17.8943 13.0245 15.9556 13.0245C14.0169 13.0245 12.2787 13.9434 11.2425 15.4409C10.7745 16.1216 10.4737 16.9044 10.34 17.7553C10.2063 18.6401 10.2397 19.6271 10.5071 20.6481C11.0085 22.8944 12.379 25.4469 14.5517 28.2037C13.1812 29.7693 11.9444 30.8243 10.7411 31.505C9.87202 32.0155 9.03637 32.2878 8.20071 32.3899C7.29821 32.492 6.42913 32.3559 5.66032 32.0495C4.02244 31.3689 2.85252 29.8373 2.61854 28.0676C2.51826 27.2167 2.58512 26.3659 2.91938 25.4129C3.01966 25.0726 3.18679 24.7322 3.35392 24.3238C3.5879 23.7793 3.85531 23.2007 4.12272 22.6221L4.15615 22.5541C6.46255 17.483 8.93609 12.3098 11.5099 7.27277L11.6102 7.06857C11.8776 6.55806 12.145 6.01351 12.4124 5.503C12.6798 4.95846 12.9807 4.44795 13.3483 4.00551C14.0503 3.18869 14.9862 2.74625 16.0224 2.74625C17.0587 2.74625 17.9946 3.18869 18.6965 4.00551C19.0642 4.44795 19.3651 4.95846 19.6325 5.503C19.8999 6.01351 20.1673 6.55806 20.4347 7.06857L20.535 7.27277C23.0754 12.3438 25.5489 17.517 27.8553 22.5881V22.6221C28.1227 23.1667 28.3567 23.7793 28.6241 24.3238C28.7912 24.7322 28.9584 25.0726 29.0587 25.4129C29.3261 26.2978 29.4263 27.1486 29.2926 28.0335Z" fill="white"/>
</svg>
