<svg width="91" height="25" viewBox="0 0 91 25" fill="none" xmlns="http://www.w3.org/2000/svg">
<path opacity="0.6" d="M27.9875 0.829139L28.1317 -6.10352e-05H23.3331L22.1796 6.48905C22.0996 6.93377 21.9517 7.36351 21.7413 7.76318C23.3263 7.30992 24.7524 6.41952 25.8568 5.19351C26.9612 3.96749 27.6995 2.45522 27.9875 0.829139Z" fill="white"/>
<path opacity="0.8" d="M4.56264 1.19317L2.56995 12.4783C3.96052 10.7973 5.85611 9.61164 7.97412 9.09799L9.57751 -6.10352e-05H5.97569C5.63797 0.00154496 5.31149 0.121874 5.05325 0.33994C4.79501 0.558009 4.6214 0.859969 4.56264 1.19317Z" fill="white"/>
<path opacity="0.8" d="M23.9416 23.8069L25.9285 12.5217C24.5386 14.2035 22.6428 15.3894 20.5243 15.9021L18.9238 25.0001H22.5228C22.8615 24.9999 23.1893 24.8802 23.4488 24.662C23.7082 24.4438 23.8827 24.1411 23.9416 23.8069Z" fill="white"/>
<path opacity="0.8" d="M21.7442 7.76406C21.3748 8.47412 20.8188 9.06957 20.1363 9.48609C19.4537 9.90264 18.6705 10.1243 17.8713 10.1274H18.9758C21.0413 10.1269 23.0406 9.39744 24.6227 8.06705C26.2048 6.73666 27.2685 4.89041 27.6271 2.85245L27.9847 0.830017C27.6972 2.45539 26.9597 3.96718 25.8564 5.19312C24.7531 6.41907 23.3282 7.30988 21.7442 7.76406Z" fill="white"/>
<path opacity="0.6" d="M0.519695 24.1622L0.37262 24.9914H5.18276L6.33627 18.5023C6.41534 18.0577 6.56218 17.628 6.77168 17.2282C5.18504 17.6796 3.75724 18.5693 2.65161 19.7955C1.54598 21.0218 0.80719 22.535 0.519695 24.1622Z" fill="white"/>
<path opacity="0.8" d="M6.76017 17.2274C7.12956 16.5173 7.68554 15.9219 8.36811 15.5053C9.05067 15.0888 9.83385 14.8671 10.633 14.864H9.52858C7.46323 14.8651 5.46422 15.5948 3.88225 16.9251C2.30028 18.2553 1.23641 20.1013 0.877281 22.139L0.522583 24.1614C0.808929 22.536 1.54559 21.024 2.64852 19.7979C3.75144 18.5718 5.1762 17.6811 6.76017 17.2274Z" fill="white"/>
<path d="M27.6301 2.85223C27.2715 4.89019 26.2077 6.73645 24.6257 8.06684C23.0436 9.39723 21.0443 10.1267 18.9788 10.1272H10.3563C8.2904 10.1278 6.29075 10.8577 4.70861 12.1886C3.12647 13.5196 2.06301 15.3665 1.70501 17.405L0.868713 22.1491C1.22785 20.1114 2.29172 18.2654 3.87368 16.9351C5.45565 15.6048 7.45467 14.8752 9.52002 14.8741H18.1425C20.2081 14.8723 22.2071 14.142 23.789 12.8113C25.371 11.4805 26.4347 9.63424 26.7938 7.59628L27.6272 2.85223H27.6301Z" fill="white"/>
<path d="M38.9644 3.73309H41.8649V11.1734H50.0619V3.73309H52.9624V21.4134H50.0619V13.746H41.8649V21.4134H38.9644V3.73309Z" fill="white"/>
<path d="M61.2381 21.4501C59.9434 21.4501 58.7916 21.1811 57.7828 20.643C56.7907 20.0881 56.0172 19.3147 55.4624 18.3226C54.9243 17.3137 54.6553 16.1536 54.6553 14.842C54.6553 13.5473 54.9243 12.4039 55.4624 11.4119C56.0172 10.403 56.7907 9.62109 57.7828 9.06626C58.7916 8.51139 59.9434 8.23395 61.2381 8.23395C62.5328 8.23395 63.6762 8.51139 64.6683 9.06626C65.6771 9.62109 66.4506 10.403 66.9887 11.4119C67.5435 12.4039 67.821 13.5473 67.821 14.842C67.821 16.1536 67.5435 17.3137 66.9887 18.3226C66.4506 19.3147 65.6771 20.0881 64.6683 20.643C63.6762 21.1811 62.5328 21.4501 61.2381 21.4501ZM61.2381 19.1297C62.3815 19.1297 63.2979 18.7346 63.9873 17.9443C64.6935 17.1372 65.0466 16.1031 65.0466 14.842C65.0466 13.5809 64.6935 12.5553 63.9873 11.765C63.2979 10.9579 62.3815 10.5543 61.2381 10.5543C60.0947 10.5543 59.1784 10.9579 58.489 11.765C57.7996 12.5553 57.4549 13.5809 57.4549 14.842C57.4549 16.1031 57.7996 17.1372 58.489 17.9443C59.1784 18.7346 60.0947 19.1297 61.2381 19.1297Z" fill="white"/>
<path d="M70.1532 8.50002V7.21372C70.1532 6.07034 70.4475 5.2128 71.036 4.64111C71.6245 4.05261 72.5324 3.75836 73.7599 3.75836H76.3829V6.15441H74.1382C73.701 6.15441 73.3816 6.2553 73.1798 6.45707C72.9948 6.65884 72.9024 6.97832 72.9024 7.41549V8.50002H76.3577V10.8961H72.9024V21.4135H70.1532V10.8961H67.9085V8.50002H70.1532Z" fill="white"/>
<path d="M80.43 8.49994L84.0367 18.1031L87.5425 8.49994H90.443L85.036 21.8863C84.7334 22.6598 84.4559 23.2483 84.2037 23.6519C83.9515 24.0722 83.6404 24.3833 83.2705 24.5851C82.9006 24.8036 82.4046 24.9129 81.7825 24.9129H78.8567V22.5169H80.7736C81.2948 22.5169 81.6563 22.4328 81.8581 22.2647C82.0599 22.1133 82.3553 21.7098 82.5739 21.1549L77.5295 8.49994H80.43Z" fill="white"/>
</svg>
