<svg width="139" height="31" viewBox="0 0 139 31" fill="none" xmlns="http://www.w3.org/2000/svg">
<path d="M12.1848 15.0172C13.0336 15.0172 13.7745 15.0468 14.431 15.1666C15.3656 15.3307 16.1568 16.6335 16.1568 17.2694C16.1568 17.5947 16.1568 17.9555 16.0148 18.482C15.7841 19.2894 14.1989 22.1937 13.5393 23.2865C12.7452 21.9985 10.8761 18.3607 10.2298 16.944C9.94888 16.3496 9.80692 15.8557 9.80692 15.6131C9.80692 15.1666 10.6942 15.0172 12.1848 15.0172ZM1.59236 15.0172C2.38498 15.2139 2.84931 15.378 3.49997 16.5433C5.79059 20.7474 8.08416 25.3819 10.3156 29.9409C10.5966 30.1775 10.9249 30.2308 11.3996 30.2308C11.858 30.2308 12.1833 30.1775 12.4761 29.9424C13.5393 27.9357 16.3446 22.55 17.5542 20.4591C18.962 23.044 21.3857 27.7612 22.3691 29.9424C22.6412 30.179 22.9783 30.2308 23.4382 30.2308C23.904 30.2308 24.2397 30.1775 24.5103 29.9424C26.4903 25.6107 28.5775 21.3289 30.7699 17.1008C31.5182 15.6131 31.8421 15.2139 33.3844 14.927L34.038 14.8116C34.4107 14.4375 34.3146 13.5606 33.9005 13.392C32.8728 13.4734 31.6602 13.5148 30.2982 13.5148C29.133 13.5148 28.0209 13.4734 26.4741 13.392C26.0068 13.5606 26.0068 14.5233 26.2922 14.8116L27.0789 14.964C27.8819 15.1281 28.2486 15.3307 28.2486 15.5362C28.2486 15.8187 28.1067 16.3836 27.8168 17.1008C27.0789 18.9685 26.347 20.9485 25.2127 23.2865C24.1894 21.3434 22.8852 18.7259 22.0393 16.7858C21.7642 16.1041 21.6696 15.8542 21.6696 15.5362C21.6696 15.3307 22.3158 15.1281 23.3968 14.927L24.0918 14.8116C24.429 14.6475 24.4645 13.4408 23.9528 13.392C21.1991 13.4733 18.4444 13.5142 15.6895 13.5148H6.25935C4.29851 13.5148 2.80791 13.4734 0.894381 13.392C0.416738 13.5946 0.416738 14.4819 0.740589 14.8116L1.59236 15.0172Z" fill="white"/>
<path d="M40.5905 14.7584C42.1713 14.7584 43.0644 15.6382 43.0644 16.9736C43.0644 17.3788 42.9713 17.7869 42.7391 17.9022C42.2171 18.1862 41.4718 18.2616 40.8197 18.2616H39.0954C37.593 18.2616 36.9482 18.232 36.9482 17.6597C36.9482 16.3643 38.6296 14.7569 40.5919 14.7569L40.5905 14.7584ZM40.5417 30.176C43.341 30.176 46.8057 29.0034 48.7148 25.5741C48.7148 24.8865 48.0065 24.5611 47.4993 24.6366C46.2379 26.5013 44.4574 26.7364 43.1546 26.7364C38.8159 26.7364 36.5682 23.7951 36.5682 20.7681C36.5682 20.1234 36.6658 20.0435 37.7423 20.0435H46.6963C48.1544 20.0435 48.3821 19.4786 48.3821 18.7126C48.3821 15.5998 45.7647 12.8966 40.9084 12.8966C35.082 12.8966 30.8321 16.8553 30.8321 21.9437C30.8321 26.3431 34.2406 30.176 40.5417 30.176ZM60.3084 15.0172C61.1616 15.0172 61.9025 15.0467 62.559 15.1665C63.4936 15.3307 64.2862 16.6335 64.2862 17.2693C64.2862 17.5947 64.2862 17.9555 64.1472 18.4819C63.9077 19.2893 62.3239 22.1936 61.6733 23.2864C60.8703 21.9984 59.0115 18.3607 58.3579 16.944C58.0828 16.3495 57.9364 15.8556 57.9364 15.6131C57.9364 15.1665 58.8178 15.0172 60.3084 15.0172ZM49.7174 15.0172C50.5174 15.2138 50.9773 15.378 51.6309 16.5433C53.9142 20.7474 56.2136 25.3819 58.4481 29.9409C58.732 30.1775 59.0573 30.2307 59.5246 30.2307C59.9875 30.2307 60.3084 30.1775 60.5952 29.9424C61.6747 27.9357 64.4696 22.55 65.6866 20.459C67.0915 23.0439 69.5078 27.7612 70.4912 29.9424C70.7721 30.179 71.0975 30.2307 71.5618 30.2307C72.0335 30.2307 72.3618 30.1775 72.6383 29.9424C74.6207 25.6113 76.7088 21.3295 78.9009 17.1007C79.6477 15.6131 79.9701 15.2138 81.5095 14.927L82.169 14.8116C82.5372 14.4375 82.4396 13.5606 82.0256 13.392C80.9934 13.4733 79.7867 13.5147 78.4262 13.5147C77.1507 13.5086 75.8755 13.4677 74.6021 13.392C74.1289 13.5606 74.1289 14.5233 74.4158 14.8116L75.2084 14.9639C76.004 15.1281 76.3737 15.3307 76.3737 15.5362C76.3737 15.8187 76.2332 16.3835 75.9582 17.1007C75.2084 18.9684 74.4602 20.9485 73.3363 23.2864C72.313 21.3433 71.0087 18.7259 70.1688 16.7858C69.8849 16.1041 69.7917 15.8541 69.7917 15.5362C69.7917 15.3307 70.4409 15.1281 71.5219 14.927L72.2169 14.8116C72.5452 14.6475 72.594 13.4408 72.0779 13.392C69.0937 13.4733 66.7514 13.5147 63.8145 13.5147H54.3829C52.5939 13.515 50.8051 13.474 49.018 13.392C48.5551 13.5946 48.5551 14.4818 48.8804 14.8116L49.7174 15.0172Z" fill="white"/>
<path d="M89.6871 14.7584C92.3385 14.7584 93.6472 18.1418 93.699 22.0635C93.7389 25.6983 92.8472 28.3202 90.1839 28.3202C87.4881 28.3202 85.9399 25.2059 85.9399 20.9736C85.9399 16.5787 87.6301 14.7569 89.6871 14.7569V14.7584ZM89.6871 30.176C95.4217 30.176 100.421 27.393 100.421 21.4912C100.421 15.8009 95.4646 12.8966 89.9606 12.8966C84.4493 12.8966 79.173 16.0834 79.2174 21.8609C79.2721 27.427 84.121 30.176 89.6871 30.176Z" fill="white"/>
<path d="M108.376 16.317C108.664 16.317 109.078 16.3613 110.147 17.1244C110.746 17.6124 111.308 17.8549 111.966 17.8549C113.457 17.8549 114.958 17.0889 114.958 15.2301C114.958 13.7055 113.651 12.8493 112.38 12.8493C110.427 12.8493 109.078 14.1802 107.809 14.8633C107.44 14.7894 107.342 14.6667 107.342 14.3813C107.342 14.0204 107.438 13.46 107.524 12.6452C107.342 12.4056 107.055 12.277 106.696 12.277C105.242 13.0962 102.023 14.1802 99.8684 14.711C99.5431 14.9476 99.5431 15.6752 99.8684 15.9192L100.534 16.283C101.417 16.768 101.417 17.2501 101.417 18.8679V24.9604C101.417 27.7848 101.229 28.1471 99.6865 28.2743L98.7978 28.3482C98.4221 28.5908 98.4222 29.5253 98.8466 29.7679C100.682 29.6784 102.52 29.637 104.358 29.6436C106.547 29.6436 108.419 29.6791 110.662 29.7664C111.082 29.5253 111.082 28.5908 110.705 28.3482L109.211 28.2359C107.67 28.1072 107.481 27.7833 107.481 24.9604V18.7451C107.481 17.2131 107.718 16.317 108.377 16.317" fill="white"/>
<path d="M126.695 28.2152L126.09 28.3409C125.711 28.7032 125.803 29.5461 126.272 29.7457C127.579 29.6658 129.254 29.6274 132.021 29.6274C134.727 29.6274 136.452 29.6658 137.895 29.7457C138.364 29.5904 138.46 28.6204 138.08 28.3409L137.386 28.2137C136.175 28.0141 135.289 27.8056 134.636 27.2895C133.462 26.3623 129.352 20.8687 128.524 19.5777C128.283 19.2553 128.184 19.0158 128.184 18.8901C128.184 18.7718 128.233 18.6121 128.462 18.3636C129.118 17.8061 129.831 17.1895 131.598 16.0198C132.854 15.1798 133.843 14.7776 134.729 14.612L136.217 14.3281C136.551 14.0131 136.505 13.111 136.027 12.9158C133.28 13.2826 129.402 13.4807 127.205 13.4807H126.09C125.624 13.6493 125.572 14.5306 125.992 14.8929L127.164 15.0615C127.579 15.0941 128.045 15.2538 128.045 15.4608C128.045 15.7033 127.82 16.144 126.927 17.0667L124.972 19.0572C124.034 19.9814 123.054 20.184 122.26 20.184C121.753 20.184 121.602 20.0627 121.602 19.6176V6.94604C121.602 4.3996 121.661 2.70198 121.753 1.05019C121.569 0.843165 121.232 0.769226 120.954 0.769226C118.567 1.64909 115.727 2.62804 113.815 3.02139C113.483 3.26982 113.483 3.99886 113.815 4.22807L114.607 4.64212C115.537 5.12864 115.537 5.57079 115.537 7.19448V24.9456C115.537 27.7701 115.35 28.0939 113.662 28.261L112.775 28.3409C112.407 28.5775 112.407 29.5091 112.822 29.7457C114.721 29.6611 116.621 29.6217 118.522 29.6274C120.672 29.6274 122.63 29.6658 124.131 29.7457C124.545 29.5091 124.545 28.5775 124.175 28.3409L123.433 28.261C121.791 28.0939 121.602 27.7686 121.602 24.9456V22.6092C121.602 21.8358 121.838 21.6391 122.161 21.6391C122.63 21.6391 123.005 21.8018 123.338 22.2336L126.647 26.6033C127.022 27.0824 127.439 27.7272 127.439 27.9017C127.439 28.051 127.164 28.1265 126.695 28.2137" fill="white"/>
</svg>
