<svg width="128" height="128" viewBox="0 0 128 128" fill="none" xmlns="http://www.w3.org/2000/svg">
<path d="M71.916 108.422H0.999939C3.35202 102.549 7.09959 97.326 11.9236 93.1993C16.7475 89.0725 22.505 86.1636 28.7058 84.7204C23.8135 82.8706 19.6155 79.568 16.6844 75.2632C13.7534 70.9584 12.232 65.861 12.328 60.6666C12.328 46.7164 22.9736 35.3938 36.0758 35.3938H37.4407H37.5771C40.9338 35.5801 44.2066 36.5054 47.1582 38.1026C51.0829 40.3826 54.328 43.6548 56.5626 47.5854C58.7972 51.516 59.9414 55.9644 59.8783 60.477C59.9724 65.6287 58.4706 70.685 55.5758 74.9625C52.6809 79.24 48.5327 82.5326 43.6915 84.3954C47.5799 85.1824 51.3136 86.5913 54.7466 88.5669C55.9646 89.2458 57.1404 89.9966 58.2678 90.8151C63.116 94.3362 67.1079 98.89 69.9507 104.142C70.7063 105.521 71.363 106.951 71.916 108.422Z" fill="#9BCDFB" stroke="#01090F" stroke-width="0.7875" stroke-linecap="round" stroke-linejoin="round"/>
<path d="M51.117 91.295L51.1145 91.2931C46.8489 87.9739 41.9149 85.6125 36.6528 84.3647C41.069 82.416 44.8517 79.2674 47.5563 75.2709C50.4958 70.9274 52.0197 65.7922 51.9216 60.5605C51.9872 55.9827 50.8295 51.4694 48.5664 47.4802C46.3022 43.489 43.0127 40.1651 39.0332 37.8468L39.0332 37.8467L39.0279 37.8438C37.7258 37.1116 36.3558 36.508 34.9378 36.0409C35.7683 35.8851 36.6087 35.7834 37.4537 35.7365H37.5684C40.8614 35.9209 44.0718 36.829 46.9677 38.395C50.8301 40.64 54.0235 43.8608 56.2225 47.7289C58.4225 51.5987 59.5488 55.9781 59.4868 60.4204L59.4866 60.4204L59.4868 60.4331C59.5794 65.5036 58.1013 70.4803 55.2518 74.6908C52.4023 78.9014 48.3187 82.1429 43.5523 83.9769L42.2911 84.4622L43.6156 84.7303C47.4625 85.509 51.1562 86.9028 54.5524 88.8571L54.5524 88.8572L54.5571 88.8598C55.7613 89.5311 56.9239 90.2734 58.0387 91.0827C62.8393 94.5694 66.7919 99.0784 69.6066 104.279L69.6068 104.279C70.2655 105.493 70.8469 106.746 71.3476 108.032H63.9913C63.4287 106.701 62.7909 105.403 62.0807 104.144C60.0097 100.387 57.3607 96.974 54.2294 94.0281C53.2397 93.0648 52.2009 92.1526 51.117 91.295Z" fill="#F88401" stroke="#01090F" stroke-width="0.7875"/>
<path d="M127 108.45H56.0293C58.3859 102.574 62.1383 97.351 66.967 93.2243C71.7956 89.0975 77.5576 86.1897 83.7624 84.7483C78.8701 82.8984 74.6721 79.5958 71.741 75.291C68.81 70.9862 67.2886 65.8889 67.3846 60.6944C67.3846 46.7443 78.0302 35.4216 91.1598 35.4216H92.5246C95.884 35.5914 99.1604 36.5177 102.106 38.1304C106.095 40.427 109.388 43.746 111.64 47.7397C113.893 51.7334 115.021 56.2547 114.908 60.8299C115.002 65.9816 113.5 71.0379 110.605 75.3154C107.71 79.5929 103.562 82.8855 98.7209 84.7483C102.617 85.5399 106.358 86.9484 109.803 88.9198C111.016 89.5926 112.183 90.3437 113.297 91.168C118.108 94.6584 122.079 99.1637 124.925 104.36C125.699 105.68 126.392 107.046 127 108.45Z" fill="#9BCDFB" stroke="#01090F" stroke-width="0.7875" stroke-linecap="round" stroke-linejoin="round"/>
<path d="M106.195 91.3184L106.195 91.3181C101.936 88.0033 97.0116 85.6425 91.7589 84.3908C96.1396 82.4598 99.899 79.3492 102.603 75.4006C105.544 71.1061 107.098 66.0241 107.057 60.8313C107.12 56.25 105.958 51.7341 103.689 47.744C101.42 43.7526 98.1252 40.4302 94.1405 38.1153L94.1406 38.1153L94.1357 38.1126C92.8356 37.3816 91.4679 36.7787 90.0523 36.3119C90.8866 36.1567 91.7306 36.0544 92.579 36.0059C95.8704 36.1754 99.0799 37.0841 101.966 38.6634C105.854 40.9163 109.066 44.1569 111.271 48.0511C113.477 51.9467 114.596 56.3554 114.513 60.8228L114.513 60.8301L114.513 60.8374C114.605 65.9078 113.127 70.8845 110.278 75.095C107.428 79.3056 103.345 82.5471 98.5782 84.3811L97.3187 84.8657L98.6412 85.1344C102.496 85.9177 106.198 87.3113 109.606 89.2618L109.606 89.2619L109.611 89.2644C110.809 89.929 111.962 90.6707 113.062 91.4849L113.065 91.4871C117.829 94.9433 121.761 99.4044 124.579 104.549L124.579 104.549L124.584 104.559C125.249 105.693 125.853 106.86 126.394 108.057H119.07C118.491 106.718 117.825 105.418 117.078 104.165C115.041 100.41 112.42 96.998 109.311 94.0545C108.327 93.0834 107.286 92.1699 106.195 91.3184Z" fill="#F88401" stroke="#01090F" stroke-width="0.7875"/>
<path d="M107.483 108.422H22.1548C24.9632 101.326 29.4661 95.0136 35.2764 90.0262C41.0866 85.0389 48.0305 81.5264 55.511 79.7907C49.6033 77.5824 44.5293 73.6133 40.9859 68.4286C37.4425 63.2438 35.6034 57.0976 35.7211 50.834C35.7211 34.0667 48.5505 20.4417 64.3278 20.4417H65.9656H66.1293C70.1833 20.7009 74.1236 21.8777 77.6484 23.8818C82.3715 26.6191 86.2777 30.5515 88.9681 35.2772C91.6585 40.0029 93.0366 45.3526 92.9617 50.7798C93.1215 57.019 91.3349 63.1549 87.8462 68.3479C84.3575 73.5409 79.3372 77.5374 73.4721 79.7907C78.1259 80.7366 82.5959 82.4194 86.7109 84.7748C88.1817 85.5811 89.5953 86.4861 90.9418 87.4836C98.197 92.8883 103.854 100.13 107.32 108.449L107.483 108.422Z" fill="#97DDE5" stroke="#01090F" stroke-width="0.7875" stroke-linecap="round" stroke-linejoin="round"/>
<path d="M90.707 87.7999C97.7388 93.0382 103.257 100.015 106.714 108.029H97.8905C97.2036 106.422 96.4298 104.854 95.5724 103.33C93.1241 98.8199 89.9768 94.7204 86.2458 91.1809C85.0534 90.0417 83.7937 88.974 82.4733 87.9836C77.2784 83.9744 71.2694 81.1407 64.8675 79.6739C70.2639 77.3428 74.8861 73.5253 78.1783 68.6615C81.7087 63.4456 83.5387 57.2788 83.4201 50.9961C83.4975 45.5036 82.1058 40.089 79.3868 35.3046C76.6668 30.5183 72.716 26.5342 67.9381 23.7586L67.9381 23.7586L67.9338 23.7561C66.2562 22.8097 64.4875 22.0349 62.6551 21.4429C63.7518 21.2323 64.8617 21.0928 65.9778 21.0256H66.1172C70.1067 21.2826 73.9841 22.4415 77.4529 24.4135C82.1152 27.1159 85.9709 30.9978 88.6264 35.6622C91.2821 40.327 92.6424 45.6076 92.5685 50.9646L92.5683 50.9646L92.5685 50.9776C92.6871 57.1034 90.9055 63.1176 87.4648 68.2058C84.0241 73.2939 79.0903 77.2102 73.3313 79.4237L72.0708 79.9082L73.3941 80.1771C78.0068 81.1146 82.4373 82.7826 86.5157 85.1171L86.5157 85.1172L86.522 85.1207C87.9769 85.9181 89.3752 86.8133 90.707 87.7999Z" fill="#F88401" stroke="#01090F" stroke-width="0.7875"/>
</svg>
