<svg version="1.2" xmlns="http://www.w3.org/2000/svg" viewBox="0 0 382 251" width="382" height="251"><defs><clipPath clipPathUnits="userSpaceOnUse" id="cp1"><path d="m0-14c0-8.84 7.16-16 16-16h350c8.84 0 16 7.16 16 16v249c0 8.84-7.16 16-16 16h-350c-8.84 0-16-7.16-16-16z"/></clipPath><clipPath clipPathUnits="userSpaceOnUse" id="cp2"><path d="m0.5 17c0-8.84 7.16-16 16-16h350c8.84 0 16 7.16 16 16v218c0 8.84-7.16 16-16 16h-350c-8.84 0-16-7.16-16-16z"/></clipPath><clipPath clipPathUnits="userSpaceOnUse" id="cp3"><path d="m159.75 238.63h-118.12v-80.51l118.12 0.01z"/></clipPath></defs><style>.a{fill:#a041ff}.b{fill:#fbe62e;stroke:#fdf084;stroke-linejoin:round;stroke-width:.4}.c{fill:#fff}.d{fill:#7304e2;stroke:#000;stroke-width:.3}.e{fill:none;stroke:#fff;stroke-linejoin:round;stroke-width:.4}.f{fill:#fff;stroke:#000;stroke-linejoin:round;stroke-width:.7}.g{fill:#d5dde0;stroke:#000;stroke-linecap:round;stroke-linejoin:round;stroke-width:.4}.h{fill:#9baeb5;stroke:#000;stroke-linecap:round;stroke-linejoin:round;stroke-width:.4}.i{stroke:#000;stroke-width:.4}.j{fill:#fff;stroke:#000;stroke-width:.4}.k{fill:#9bcdfb;stroke:#000;stroke-width:.4}.l{fill:none;stroke:#000;stroke-width:.4}.m{fill:#519af4}.n{opacity:.3;fill:#fff}.o{mix-blend-mode:overlay;fill:#e7d4fa}.p{fill:#4ac7d3;stroke:#000;stroke-width:.4}.q{fill:#ffc664;stroke:#000;stroke-width:.4}.r{fill:#008d98}.s{opacity:.2;fill:#fff}.t{fill:none;stroke:#000;stroke-linejoin:round;stroke-width:.4}.u{fill:#15357a}.v{fill:#e7d4fa;stroke:#000;stroke-width:.4}.w{fill:#bd80ff}.x{opacity:.4;fill:#15357a}.y{fill:#f8bc20;stroke:#000;stroke-width:.4}.z{fill:#fbe62e;stroke:#000;stroke-width:.4}</style><g clip-path="url(#cp1)"><g clip-path="url(#cp2)"><path class="a" d="m0.5 17c0-8.8 7.2-16 16-16h350c8.8 0 16 7.2 16 16v218c0 8.8-7.2 16-16 16h-350c-8.8 0-16-7.2-16-16z"/><path class="b" d="m147.6 217.2l-0.3-2.3-2.3-0.4 2.3-0.3 0.3-2.2 0.4 2.2 2.2 0.3-2.2 0.4z"/><path class="c" d="m351 165.1l1.5-2.1-1.5-2 2 1.5 2.1-1.5-1.5 2 1.5 2.1-2.1-1.5z"/><path class="d" d="m554.8 683c0 346.1-280.7 626.8-626.8 626.8-346.2 0-626.9-280.7-626.9-626.8 0-346.2 280.7-626.9 626.9-626.9 346.1 0 626.8 280.7 626.8 626.9z"/><path class="c" d="m335.9 130.4c0 4.1-3.3 7.5-7.5 7.5-3.8 0-6.8-2.8-7.4-6.3 1 2.3 3.3 3.8 5.9 3.8 3.7 0 6.7-2.9 6.7-6.6 0-2.5-1.6-4.7-3.7-5.8 3.4 0.7 6 3.7 6 7.4z"/><path class="e" d="m238 207.3c0-1.3 0.9-2.3 2.3-2.3 1.2 0 2.2 0.9 2.2 2.3 0 1.2-0.9 2.2-2.2 2.2-1.3 0-2.3-1-2.3-2.2z"/><path class="e" d="m69 186.3c0-1.3 0.9-2.3 2.3-2.3 1.2 0 2.2 0.9 2.2 2.3 0 1.2-0.9 2.2-2.2 2.2-1.3 0-2.3-1-2.3-2.2z"/><path class="c" d="m287 157.9l2.1-2.9-2.1-3 3 2.1 2.9-2.1-2.1 3 2.1 2.9-2.9-2.1z"/><path class="f" d="m181.3 228.5l-0.3-1.4c-0.2-1.3-1.2-2.4-2.5-2.6l-1.5-0.2 1.5-0.3c1.3-0.2 2.3-1.2 2.5-2.5l0.3-1.5 0.2 1.5c0.2 1.3 1.3 2.3 2.6 2.5l1.4 0.3-1.4 0.2c-1.3 0.2-2.4 1.3-2.6 2.6z"/></g><g clip-path="url(#cp3)"><path class="g" d="m130.3 210l-76.3 14.8-12.2-48.7c-0.1-0.5-0.1-0.9-0.1-1.4 0.1-0.5 0.3-0.9 0.5-1.3 0.3-0.5 0.6-0.8 1-1.1 0.4-0.2 0.9-0.4 1.4-0.5l69.3-13.6c0.9-0.1 1.9 0 2.7 0.5 0.7 0.5 1.3 1.2 1.5 2.1z"/><path class="h" d="m159.3 218.5l0.3 3c0.1 0.8-0.3 1.3-0.9 1.5l-75.6 15.4c-1.2 0.3-2.4 0.1-3.5-0.4l-25.5-12.8-0.3-3.2 25.4 12.8c1.1 0.6 2.4 0.7 3.6 0.4l75.5-15.4z"/><path class="g" d="m158.6 217.5c0.2 0.1 0.5 0.3 0.6 0.4 0.1 0.2 0.2 0.5 0.2 0.8q0 0.4-0.3 0.7-0.3 0.3-0.7 0.4l-75.7 15.4c-1.2 0.3-2.3 0.1-3.3-0.4l-25.6-12.8 75.9-15.5z"/><path class="i" d="m132.1 220.7q0.5-0.1 0.9 0l2 0.8q0.4 0.2 0 0.3l-5.8 1.2-0.9 0.2-1.5 0.3-0.9 0.2-5.8 1.2-0.9 0.2-1.5 0.3-0.9 0.2-5.8 1.2-0.9 0.2-1.4 0.3-0.9 0.1-5.8 1.3-0.9 0.1-1.4 0.3-1 0.2-5.8 1.2q-0.4 0.1-0.9-0.1l-1.7-0.8c-0.2-0.1-0.2-0.2 0.1-0.3l5.8-1.2 0.9-0.2 1.4-0.3 0.9-0.2 5.7-1.2 1-0.1 1.4-0.4 0.9-0.1 5.7-1.2 0.9-0.2 1.5-0.3 0.9-0.2 5.7-1.2 1-0.1 1.5-0.3 0.9-0.2z"/><path class="i" d="m132.1 220.7q0.5-0.1 0.9 0l2 0.8q0.4 0.2 0 0.3l-5.8 1.2-0.9 0.2-1.5 0.3-0.9 0.2-5.8 1.2-0.9 0.2-1.5 0.3-0.9 0.2-5.8 1.2-0.9 0.2-1.4 0.3-0.9 0.1-5.8 1.3-0.9 0.1-1.4 0.3-1 0.2-5.8 1.2q-0.4 0.1-0.9-0.1l-1.7-0.8c-0.2-0.1-0.2-0.2 0.1-0.3l5.8-1.2 0.9-0.2 1.4-0.3 0.9-0.2 5.7-1.2 1-0.1 1.4-0.4 0.9-0.1 5.7-1.2 0.9-0.2 1.5-0.3 0.9-0.2 5.7-1.2 1-0.1 1.5-0.3 0.9-0.2z"/><path class="i" d="m127 218.6q0.4-0.1 0.9 0.1l2 0.8q0.4 0.2 0 0.3l-5.7 1.1q-0.4 0.1-0.9-0.1l-1.9-0.7q-0.3-0.2 0-0.3z"/><path class="i" d="m127 218.6q0.4-0.1 0.9 0.1l2 0.8q0.4 0.2 0 0.3l-5.7 1.1q-0.4 0.1-0.9-0.1l-1.9-0.7q-0.3-0.2 0-0.3z"/><path class="i" d="m100.2 224.1c0.3 0 0.6 0 0.9 0.1l1.8 0.8c0.2 0.1 0.2 0.3 0 0.3l-5.7 1.2c-0.4 0-0.7 0-1-0.1l-1.7-0.8c-0.2-0.2-0.2-0.3 0-0.3z"/><path class="i" d="m100.2 224.1c0.3 0 0.6 0 0.9 0.1l1.8 0.8c0.2 0.1 0.2 0.3 0 0.3l-5.7 1.2c-0.4 0-0.7 0-1-0.1l-1.7-0.8c-0.2-0.2-0.2-0.3 0-0.3z"/><path class="i" d="m78.8 224q-0.5 0.1-0.9-0.1l-1.7-0.9c-0.3-0.1-0.2-0.2 0-0.3l5.5-1.1c0.3 0 0.6 0 0.9 0.1l1.8 0.8c0.2 0.1 0.2 0.2-0.1 0.3z"/><path class="i" d="m78.8 224q-0.5 0.1-0.9-0.1l-1.7-0.9c-0.3-0.1-0.2-0.2 0-0.3l5.5-1.1c0.3 0 0.6 0 0.9 0.1l1.8 0.8c0.2 0.1 0.2 0.2-0.1 0.3z"/><path class="i" d="m109 222.3c0.4 0 0.7 0 1 0.1l1.9 0.8c0.1 0.1 0.1 0.2-0.1 0.3l-5.7 1.2c-0.3 0-0.6 0-0.9-0.2l-1.8-0.7c-0.2-0.2-0.2-0.3 0-0.4z"/><path class="i" d="m109 222.3c0.4 0 0.7 0 1 0.1l1.9 0.8c0.1 0.1 0.1 0.2-0.1 0.3l-5.7 1.2c-0.3 0-0.6 0-0.9-0.2l-1.8-0.7c-0.2-0.2-0.2-0.3 0-0.4z"/><path class="i" d="m118 220.5q0.4-0.1 0.9 0l1.9 0.8q0.4 0.2 0 0.3l-5.6 1.2c-0.4 0-0.7 0-1-0.1l-1.9-0.8c-0.1-0.1-0.1-0.3 0.1-0.3z"/><path class="i" d="m118 220.5q0.4-0.1 0.9 0l1.9 0.8q0.4 0.2 0 0.3l-5.6 1.2c-0.4 0-0.7 0-1-0.1l-1.9-0.8c-0.1-0.1-0.1-0.3 0.1-0.3z"/><path class="i" d="m141.3 218.9q0.4-0.1 0.9 0.1l2.1 0.8c0.2 0 0.2 0.1 0 0.2l-5.8 1.2q-0.4 0.1-0.9-0.1l-2-0.8q-0.4-0.2 0-0.3z"/><path class="i" d="m141.3 218.9q0.4-0.1 0.9 0.1l2.1 0.8c0.2 0 0.2 0.1 0 0.2l-5.8 1.2q-0.4 0.1-0.9-0.1l-2-0.8q-0.4-0.2 0-0.3z"/><path class="i" d="m104.1 220.1c0.3 0 0.6 0 0.9 0.1l1.9 0.8c0.2 0.2 0.2 0.3 0 0.3l-5.7 1.2c-0.3 0-0.6 0-0.9-0.1l-1.8-0.8c-0.2-0.1-0.2-0.3 0.1-0.3z"/><path class="i" d="m104.1 220.1c0.3 0 0.6 0 0.9 0.1l1.9 0.8c0.2 0.2 0.2 0.3 0 0.3l-5.7 1.2c-0.3 0-0.6 0-0.9-0.1l-1.8-0.8c-0.2-0.1-0.2-0.3 0.1-0.3z"/><path class="i" d="m95.3 221.9c0.3 0 0.6 0 0.9 0.2l1.8 0.7c0.2 0.2 0.2 0.3-0.1 0.3l-5.6 1.2c-0.3 0-0.6 0-0.9-0.1l-1.8-0.8c-0.1-0.1-0.1-0.3 0.1-0.3z"/><path class="i" d="m95.3 221.9c0.3 0 0.6 0 0.9 0.2l1.8 0.7c0.2 0.2 0.2 0.3-0.1 0.3l-5.6 1.2c-0.3 0-0.6 0-0.9-0.1l-1.8-0.8c-0.1-0.1-0.1-0.3 0.1-0.3z"/><path class="i" d="m136 216.8q0.5-0.1 0.9 0.1l2.1 0.7c0.2 0.1 0.2 0.2 0 0.3l-5.7 1.1q-0.4 0.1-0.9 0l-2-0.8q-0.4-0.2 0-0.3z"/><path class="i" d="m136 216.8q0.5-0.1 0.9 0.1l2.1 0.7c0.2 0.1 0.2 0.2 0 0.3l-5.7 1.1q-0.4 0.1-0.9 0l-2-0.8q-0.4-0.2 0-0.3z"/><path class="i" d="m121.8 216.5q0.5-0.1 0.9 0.1l2 0.7q0.4 0.2 0 0.3l-5.5 1.2q-0.5 0.1-0.9-0.1l-2-0.8q-0.4-0.2 0-0.3z"/><path class="i" d="m121.8 216.5q0.5-0.1 0.9 0.1l2 0.7q0.4 0.2 0 0.3l-5.5 1.2q-0.5 0.1-0.9-0.1l-2-0.8q-0.4-0.2 0-0.3z"/><path class="i" d="m113 218.4q0.4-0.1 0.9 0l1.9 0.8q0.4 0.2 0 0.3l-5.5 1.2c-0.3 0-0.6 0-0.9-0.2l-1.9-0.7q-0.4-0.2 0-0.3z"/><path class="i" d="m113 218.4q0.4-0.1 0.9 0l1.9 0.8q0.4 0.2 0 0.3l-5.5 1.2c-0.3 0-0.6 0-0.9-0.2l-1.9-0.7q-0.4-0.2 0-0.3z"/><path class="i" d="m114.1 216.6q-0.5 0.1-1 0l-1.9-0.8q-0.4-0.2 0-0.3l5.4-1.1q0.4-0.1 0.9 0l2 0.8q0.3 0.2 0 0.3z"/><path class="i" d="m114.1 216.6q-0.5 0.1-1 0l-1.9-0.8q-0.4-0.2 0-0.3l5.4-1.1q0.4-0.1 0.9 0l2 0.8q0.3 0.2 0 0.3z"/><path class="i" d="m122.9 214.9q-0.5 0.1-0.9 0l-2-0.8q-0.4-0.2 0-0.3l5.3-1.1q0.5-0.1 1 0l2 0.8c0.3 0.1 0.3 0.2 0 0.3z"/><path class="i" d="m122.9 214.9q-0.5 0.1-0.9 0l-2-0.8q-0.4-0.2 0-0.3l5.3-1.1q0.5-0.1 1 0l2 0.8c0.3 0.1 0.3 0.2 0 0.3z"/><path class="i" d="m105.2 218.5c-0.3 0-0.6 0-0.9-0.1l-1.9-0.8q-0.4-0.2 0-0.3l5.4-1.1q0.5-0.1 0.9 0.1l2 0.7q0.4 0.2 0 0.3z"/><path class="i" d="m105.2 218.5c-0.3 0-0.6 0-0.9-0.1l-1.9-0.8q-0.4-0.2 0-0.3l5.4-1.1q0.5-0.1 0.9 0.1l2 0.7q0.4 0.2 0 0.3z"/><path class="i" d="m87.5 222.1c-0.3 0-0.6 0-0.9-0.1l-1.8-0.8c-0.2-0.1-0.2-0.2 0.1-0.3l5.5-1.1c0.3 0 0.6 0 0.9 0.1l1.8 0.8c0.2 0.1 0.2 0.2 0 0.3z"/><path class="i" d="m87.5 222.1c-0.3 0-0.6 0-0.9-0.1l-1.8-0.8c-0.2-0.1-0.2-0.2 0.1-0.3l5.5-1.1c0.3 0 0.6 0 0.9 0.1l1.8 0.8c0.2 0.1 0.2 0.2 0 0.3z"/><path class="i" d="m96.4 220.2c-0.4 0-0.7 0-1-0.1l-1.8-0.8c-0.2-0.1-0.2-0.2 0.1-0.3l5.4-1.1c0.3 0 0.6 0 0.9 0.2l1.9 0.8q0.4 0.1 0 0.3z"/><path class="i" d="m96.4 220.2c-0.4 0-0.7 0-1-0.1l-1.8-0.8c-0.2-0.1-0.2-0.2 0.1-0.3l5.4-1.1c0.3 0 0.6 0 0.9 0.2l1.9 0.8q0.4 0.1 0 0.3z"/><path class="i" d="m80.4 226.4c0.2 0.1 0.2 0.3-0.1 0.3l-5.7 1.2q-0.4 0-0.9-0.2l-1.7-0.7c-0.2-0.2-0.2-0.3 0.1-0.3l5.6-1.2q0.4-0.1 0.9 0.1z"/><path class="i" d="m80.4 226.4c0.2 0.1 0.2 0.3-0.1 0.3l-5.7 1.2q-0.4 0-0.9-0.2l-1.7-0.7c-0.2-0.2-0.2-0.3 0.1-0.3l5.6-1.2q0.4-0.1 0.9 0.1z"/><path class="i" d="m91.2 226c0.3 0 0.6 0 0.9 0.1l1.8 0.8c0.2 0.1 0.2 0.2 0 0.3l-5.8 1.1q-0.4 0.1-0.9-0.1l-1.7-0.8c-0.2-0.1-0.2-0.3 0.1-0.3z"/><path class="i" d="m91.2 226c0.3 0 0.6 0 0.9 0.1l1.8 0.8c0.2 0.1 0.2 0.2 0 0.3l-5.8 1.1q-0.4 0.1-0.9-0.1l-1.7-0.8c-0.2-0.1-0.2-0.3 0.1-0.3z"/><path class="i" d="m82.4 227.8q0.4-0.1 0.9 0.1l1.7 0.9c0.2 0.1 0.2 0.2-0.1 0.3l-5.7 1.1q-0.4 0.1-0.9-0.1l-1.7-0.8c-0.3-0.2-0.2-0.3 0-0.3z"/><path class="i" d="m82.4 227.8q0.4-0.1 0.9 0.1l1.7 0.9c0.2 0.1 0.2 0.2-0.1 0.3l-5.7 1.1q-0.4 0.1-0.9-0.1l-1.7-0.8c-0.3-0.2-0.2-0.3 0-0.3z"/><path class="i" d="m70.1 225.7q-0.4 0.1-0.9-0.1l-1.7-0.8c-0.2-0.1-0.2-0.3 0.1-0.3l5.4-1.2q0.5 0 1 0.1l1.7 0.8c0.2 0.2 0.2 0.3-0.1 0.3z"/><path class="i" d="m70.1 225.7q-0.4 0.1-0.9-0.1l-1.7-0.8c-0.2-0.1-0.2-0.3 0.1-0.3l5.4-1.2q0.5 0 1 0.1l1.7 0.8c0.2 0.2 0.2 0.3-0.1 0.3z"/><path class="i" d="m125.2 216.1q-0.4-0.2 0-0.3l5.4-1.1q0.5-0.1 1 0l2 0.8c0.3 0.1 0.3 0.2 0 0.3l-5.5 1.1q-0.5 0.1-0.9 0z"/><path class="i" d="m125.2 216.1q-0.4-0.2 0-0.3l5.4-1.1q0.5-0.1 1 0l2 0.8c0.3 0.1 0.3 0.2 0 0.3l-5.5 1.1q-0.5 0.1-0.9 0z"/><path class="i" d="m100.3 216.4c-0.3 0-0.6 0-1-0.1l-2-0.8c-0.1-0.2-0.1-0.3 0.1-0.3l5.3-1.1q0.5-0.1 0.9 0l2 0.8q0.3 0.2 0 0.3z"/><path class="i" d="m100.3 216.4c-0.3 0-0.6 0-1-0.1l-2-0.8c-0.1-0.2-0.1-0.3 0.1-0.3l5.3-1.1q0.5-0.1 0.9 0l2 0.8q0.3 0.2 0 0.3z"/><path class="i" d="m117.7 212.8q-0.4 0.1-0.9-0.1l-2-0.7q-0.4-0.2 0-0.3l5.2-1.1q0.5-0.1 0.9 0l2.1 0.8c0.3 0.1 0.3 0.2 0 0.3z"/><path class="i" d="m117.7 212.8q-0.4 0.1-0.9-0.1l-2-0.7q-0.4-0.2 0-0.3l5.2-1.1q0.5-0.1 0.9 0l2.1 0.8c0.3 0.1 0.3 0.2 0 0.3z"/><path class="i" d="m108.9 214.5q-0.4 0.1-0.9-0.1l-1.9-0.7q-0.4-0.2 0-0.4l5.3-1q0.4-0.1 0.9 0l2 0.8q0.4 0.2 0 0.3z"/><path class="i" d="m108.9 214.5q-0.4 0.1-0.9-0.1l-1.9-0.7q-0.4-0.2 0-0.4l5.3-1q0.4-0.1 0.9 0l2 0.8q0.4 0.2 0 0.3z"/><path class="i" d="m82.8 219.9c-0.3 0-0.6 0-0.9-0.1l-1.8-0.8c-0.2-0.1-0.2-0.3 0.1-0.3l5.4-1.1c0.3 0 0.6 0 0.9 0.1l1.8 0.8c0.2 0.1 0.2 0.2-0.1 0.3z"/><path class="i" d="m82.8 219.9c-0.3 0-0.6 0-0.9-0.1l-1.8-0.8c-0.2-0.1-0.2-0.3 0.1-0.3l5.4-1.1c0.3 0 0.6 0 0.9 0.1l1.8 0.8c0.2 0.1 0.2 0.2-0.1 0.3z"/><path class="i" d="m91.5 218.1c-0.3 0-0.6 0-0.9-0.1l-1.9-0.8c-0.2-0.1-0.2-0.2 0.1-0.3l5.3-1.1c0.3 0 0.6 0 0.9 0.1l1.9 0.8q0.4 0.2 0 0.3z"/><path class="i" d="m91.5 218.1c-0.3 0-0.6 0-0.9-0.1l-1.9-0.8c-0.2-0.1-0.2-0.2 0.1-0.3l5.3-1.1c0.3 0 0.6 0 0.9 0.1l1.9 0.8q0.4 0.2 0 0.3z"/><path class="i" d="m139.4 216.4c-0.3-0.1-0.3-0.2 0-0.3l5.5-1.1q0.5-0.1 0.9 0l2.2 0.8c0.2 0.1 0.2 0.2 0 0.3l-5.6 1.1q-0.5 0.1-1 0z"/><path class="i" d="m139.4 216.4c-0.3-0.1-0.3-0.2 0-0.3l5.5-1.1q0.5-0.1 0.9 0l2.2 0.8c0.2 0.1 0.2 0.2 0 0.3l-5.6 1.1q-0.5 0.1-1 0z"/><path class="i" d="m74.1 221.6q-0.4 0.1-0.9-0.1l-1.7-0.8c-0.2-0.2-0.2-0.3 0.1-0.3l5.4-1.1c0.3 0 0.6 0 0.9 0.1l1.7 0.8c0.2 0.2 0.2 0.3 0 0.3z"/><path class="i" d="m74.1 221.6q-0.4 0.1-0.9-0.1l-1.7-0.8c-0.2-0.2-0.2-0.3 0.1-0.3l5.4-1.1c0.3 0 0.6 0 0.9 0.1l1.7 0.8c0.2 0.2 0.2 0.3 0 0.3z"/><path class="i" d="m83.5 226.2q-0.5 0-0.9-0.1l-1.7-0.9c-0.2-0.1-0.2-0.2 0-0.3l5.6-1.1q0.4-0.1 0.9 0.1l1.8 0.8c0.1 0.1 0.1 0.2-0.1 0.3z"/><path class="i" d="m83.5 226.2q-0.5 0-0.9-0.1l-1.7-0.9c-0.2-0.1-0.2-0.2 0-0.3l5.6-1.1q0.4-0.1 0.9 0.1l1.8 0.8c0.1 0.1 0.1 0.2-0.1 0.3z"/><path class="i" d="m126.5 210.9q-0.5 0.1-0.9 0l-2.2-0.8c-0.2-0.1-0.2-0.2 0-0.3l5.3-1q0.4-0.2 0.9 0l2.1 0.8c0.3 0.1 0.3 0.2 0 0.2z"/><path class="i" d="m126.5 210.9q-0.5 0.1-0.9 0l-2.2-0.8c-0.2-0.1-0.2-0.2 0-0.3l5.3-1q0.4-0.2 0.9 0l2.1 0.8c0.3 0.1 0.3 0.2 0 0.2z"/><path class="i" d="m134.1 214.2c-0.3-0.1-0.3-0.2 0-0.2l5.4-1.1q0.5-0.1 0.9 0l2.1 0.8c0.3 0.1 0.3 0.2 0 0.3l-5.4 1.1q-0.5 0.1-1-0.1z"/><path class="i" d="m134.1 214.2c-0.3-0.1-0.3-0.2 0-0.2l5.4-1.1q0.5-0.1 0.9 0l2.1 0.8c0.3 0.1 0.3 0.2 0 0.3l-5.4 1.1q-0.5 0.1-1-0.1z"/><path class="i" d="m128.8 212.2c-0.2-0.1-0.2-0.2 0-0.2l5.3-1.1q0.5-0.1 0.9 0l2.2 0.8c0.2 0.1 0.2 0.2 0 0.3l-5.5 1q-0.4 0.2-0.9 0z"/><path class="i" d="m128.8 212.2c-0.2-0.1-0.2-0.2 0-0.2l5.3-1.1q0.5-0.1 0.9 0l2.2 0.8c0.2 0.1 0.2 0.2 0 0.3l-5.5 1q-0.4 0.2-0.9 0z"/><path class="i" d="m87.1 230q0.5-0.1 1 0.1l1.7 0.8c0.1 0.2 0.1 0.3-0.1 0.4l-5.9 1.2q-0.4 0-0.9-0.2l-1.7-0.8c-0.2-0.1-0.2-0.2 0.1-0.3z"/><path class="i" d="m87.1 230q0.5-0.1 1 0.1l1.7 0.8c0.1 0.2 0.1 0.3-0.1 0.4l-5.9 1.2q-0.4 0-0.9-0.2l-1.7-0.8c-0.2-0.1-0.2-0.2 0.1-0.3z"/><path class="i" d="m65.5 223.4q-0.5 0.1-0.9-0.1l-1.7-0.8c-0.2-0.1-0.2-0.3 0-0.3l5.5-1.1q0.4-0.1 0.9 0.1l1.7 0.9c0.2 0.1 0.2 0.2-0.1 0.3z"/><path class="i" d="m65.5 223.4q-0.5 0.1-0.9-0.1l-1.7-0.8c-0.2-0.1-0.2-0.3 0-0.3l5.5-1.1q0.4-0.1 0.9 0.1l1.7 0.9c0.2 0.1 0.2 0.2-0.1 0.3z"/><path class="j" d="m132 220.4q0.5-0.1 1 0l2 0.8c0.2 0.1 0.2 0.2 0 0.3l-5.8 1.2-0.9 0.1-1.6 0.3-0.9 0.2-5.8 1.2-0.9 0.2-1.5 0.3-0.9 0.2-5.8 1.2-0.9 0.2-1.4 0.3-0.9 0.2-5.8 1.2-0.9 0.2-1.4 0.3-0.9 0.2-5.8 1.2q-0.5 0-0.9-0.2l-1.7-0.8c-0.2-0.1-0.2-0.2 0-0.3l5.8-1.2 0.9-0.2 1.4-0.3 0.9-0.2 5.8-1.1 0.9-0.2 1.4-0.3 0.9-0.2 5.7-1.1 1-0.2 1.4-0.3 0.9-0.2 5.8-1.2 0.9-0.1 1.5-0.3 0.9-0.2z"/><path class="j" d="m132 220.4q0.5-0.1 1 0l2 0.8c0.2 0.1 0.2 0.2 0 0.3l-5.8 1.2-0.9 0.1-1.6 0.3-0.9 0.2-5.8 1.2-0.9 0.2-1.5 0.3-0.9 0.2-5.8 1.2-0.9 0.2-1.4 0.3-0.9 0.2-5.8 1.2-0.9 0.2-1.4 0.3-0.9 0.2-5.8 1.2q-0.5 0-0.9-0.2l-1.7-0.8c-0.2-0.1-0.2-0.2 0-0.3l5.8-1.2 0.9-0.2 1.4-0.3 0.9-0.2 5.8-1.1 0.9-0.2 1.4-0.3 0.9-0.2 5.7-1.1 1-0.2 1.4-0.3 0.9-0.2 5.8-1.2 0.9-0.1 1.5-0.3 0.9-0.2z"/><path class="j" d="m126.9 218.4q0.5-0.1 0.9 0l2.1 0.8c0.2 0.1 0.2 0.2 0 0.3l-5.7 1.1q-0.5 0.1-0.9-0.1l-1.9-0.7q-0.4-0.2 0-0.3z"/><path class="j" d="m126.9 218.4q0.5-0.1 0.9 0l2.1 0.8c0.2 0.1 0.2 0.2 0 0.3l-5.7 1.1q-0.5 0.1-0.9-0.1l-1.9-0.7q-0.4-0.2 0-0.3z"/><path class="j" d="m100.1 223.8c0.3 0 0.7 0 1 0.1l1.8 0.8c0.2 0.1 0.2 0.3-0.1 0.3l-5.7 1.2c-0.3 0-0.6 0-0.9-0.1l-1.8-0.8c-0.2-0.2-0.2-0.3 0.1-0.3z"/><path class="j" d="m100.1 223.8c0.3 0 0.7 0 1 0.1l1.8 0.8c0.2 0.1 0.2 0.3-0.1 0.3l-5.7 1.2c-0.3 0-0.6 0-0.9-0.1l-1.8-0.8c-0.2-0.2-0.2-0.3 0.1-0.3z"/><path class="j" d="m78.7 223.6q-0.4 0.1-0.9-0.1l-1.7-0.8c-0.2-0.2-0.2-0.3 0.1-0.3l5.4-1.2c0.4 0 0.7 0 1 0.1l1.7 0.8c0.2 0.1 0.2 0.3 0 0.3z"/><path class="j" d="m78.7 223.6q-0.4 0.1-0.9-0.1l-1.7-0.8c-0.2-0.2-0.2-0.3 0.1-0.3l5.4-1.2c0.4 0 0.7 0 1 0.1l1.7 0.8c0.2 0.1 0.2 0.3 0 0.3z"/><path class="j" d="m109 221.9c0.4 0 0.7 0 1 0.2l1.9 0.7c0.1 0.2 0.1 0.3-0.1 0.3l-5.7 1.2c-0.3 0-0.6 0-0.9-0.1l-1.8-0.8c-0.2-0.1-0.2-0.3 0-0.3z"/><path class="j" d="m109 221.9c0.4 0 0.7 0 1 0.2l1.9 0.7c0.1 0.2 0.1 0.3-0.1 0.3l-5.7 1.2c-0.3 0-0.6 0-0.9-0.1l-1.8-0.8c-0.2-0.1-0.2-0.3 0-0.3z"/><path class="j" d="m118 220.2q0.4-0.1 0.9 0l1.9 0.8q0.4 0.2 0 0.3l-5.6 1.2c-0.4 0-0.7 0-1-0.1l-1.9-0.8c-0.1-0.1-0.1-0.3 0.1-0.3z"/><path class="j" d="m118 220.2q0.4-0.1 0.9 0l1.9 0.8q0.4 0.2 0 0.3l-5.6 1.2c-0.4 0-0.7 0-1-0.1l-1.9-0.8c-0.1-0.1-0.1-0.3 0.1-0.3z"/><path class="j" d="m141.3 218.6q0.4-0.2 0.9 0l2.1 0.8c0.2 0.1 0.2 0.2 0 0.2l-5.8 1.2q-0.4 0.2-0.9 0l-2-0.8q-0.4-0.2 0-0.3z"/><path class="j" d="m141.3 218.6q0.4-0.2 0.9 0l2.1 0.8c0.2 0.1 0.2 0.2 0 0.2l-5.8 1.2q-0.4 0.2-0.9 0l-2-0.8q-0.4-0.2 0-0.3z"/><path class="j" d="m104.1 219.8c0.3 0 0.6 0 0.9 0.1l1.9 0.8c0.2 0.1 0.2 0.3 0 0.3l-5.7 1.2c-0.3 0-0.6 0-0.9-0.1l-1.8-0.9c-0.2-0.1-0.2-0.2 0.1-0.3z"/><path class="j" d="m104.1 219.8c0.3 0 0.6 0 0.9 0.1l1.9 0.8c0.2 0.1 0.2 0.3 0 0.3l-5.7 1.2c-0.3 0-0.6 0-0.9-0.1l-1.8-0.9c-0.2-0.1-0.2-0.2 0.1-0.3z"/><path class="j" d="m95.3 221.6c0.3 0 0.6 0 0.9 0.2l1.8 0.7c0.2 0.2 0.2 0.3-0.1 0.3l-5.6 1.2c-0.3 0-0.6 0-0.9-0.1l-1.8-0.8c-0.1-0.1-0.1-0.3 0.1-0.3z"/><path class="j" d="m95.3 221.6c0.3 0 0.6 0 0.9 0.2l1.8 0.7c0.2 0.2 0.2 0.3-0.1 0.3l-5.6 1.2c-0.3 0-0.6 0-0.9-0.1l-1.8-0.8c-0.1-0.1-0.1-0.3 0.1-0.3z"/><path class="j" d="m136 216.5q0.5-0.1 0.9 0.1l2.1 0.7c0.2 0.1 0.2 0.2 0 0.3l-5.7 1.1q-0.4 0.1-0.9 0l-2-0.8q-0.4-0.2 0-0.3z"/><path class="j" d="m136 216.5q0.5-0.1 0.9 0.1l2.1 0.7c0.2 0.1 0.2 0.2 0 0.3l-5.7 1.1q-0.4 0.1-0.9 0l-2-0.8q-0.4-0.2 0-0.3z"/><path class="j" d="m121.8 216.1q0.5-0.1 0.9 0.1l2 0.8q0.4 0.2 0 0.3l-5.5 1.1q-0.5 0.1-0.9 0l-2-0.8q-0.4-0.2 0-0.3z"/><path class="j" d="m121.8 216.1q0.5-0.1 0.9 0.1l2 0.8q0.4 0.2 0 0.3l-5.5 1.1q-0.5 0.1-0.9 0l-2-0.8q-0.4-0.2 0-0.3z"/><path class="j" d="m112.9 218q0.4-0.1 0.9 0.1l2 0.8q0.3 0.1 0 0.3l-5.6 1.1c-0.3 0-0.6 0-0.9-0.1l-1.9-0.8q-0.4-0.2 0-0.3z"/><path class="j" d="m112.9 218q0.4-0.1 0.9 0.1l2 0.8q0.3 0.1 0 0.3l-5.6 1.1c-0.3 0-0.6 0-0.9-0.1l-1.9-0.8q-0.4-0.2 0-0.3z"/><path class="j" d="m114.1 216.3q-0.5 0.1-1 0l-1.9-0.8q-0.4-0.2 0-0.3l5.4-1.1q0.4-0.1 0.9 0l2 0.8q0.3 0.2 0 0.3z"/><path class="j" d="m114.1 216.3q-0.5 0.1-1 0l-1.9-0.8q-0.4-0.2 0-0.3l5.4-1.1q0.4-0.1 0.9 0l2 0.8q0.3 0.2 0 0.3z"/><path class="j" d="m122.8 214.5q-0.4 0.1-0.9-0.1l-2-0.7q-0.4-0.2 0-0.3l5.4-1.1q0.4-0.1 0.9 0.1l2.1 0.8c0.2 0 0.2 0.1 0 0.2z"/><path class="j" d="m122.8 214.5q-0.4 0.1-0.9-0.1l-2-0.7q-0.4-0.2 0-0.3l5.4-1.1q0.4-0.1 0.9 0.1l2.1 0.8c0.2 0 0.2 0.1 0 0.2z"/><path class="j" d="m105.1 218.2c-0.3 0-0.6 0-0.9-0.1l-1.9-0.8q-0.3-0.2 0-0.3l5.5-1.1q0.4-0.1 0.9 0l1.9 0.8q0.4 0.2 0 0.3z"/><path class="j" d="m105.1 218.2c-0.3 0-0.6 0-0.9-0.1l-1.9-0.8q-0.3-0.2 0-0.3l5.5-1.1q0.4-0.1 0.9 0l1.9 0.8q0.4 0.2 0 0.3z"/><path class="j" d="m87.5 221.7c-0.3 0-0.6 0-0.9-0.1l-1.8-0.8c-0.2-0.1-0.2-0.3 0.1-0.3l5.5-1.1c0.3 0 0.6 0 0.9 0.1l1.8 0.8c0.2 0.1 0.2 0.2 0 0.3z"/><path class="j" d="m87.5 221.7c-0.3 0-0.6 0-0.9-0.1l-1.8-0.8c-0.2-0.1-0.2-0.3 0.1-0.3l5.5-1.1c0.3 0 0.6 0 0.9 0.1l1.8 0.8c0.2 0.1 0.2 0.2 0 0.3z"/><path class="j" d="m96.3 220c-0.3 0-0.6 0-0.9-0.1l-1.8-0.9c-0.2-0.1-0.2-0.2 0-0.3l5.4-1.1c0.3 0 0.7 0 1 0.2l1.8 0.8q0.4 0.1 0 0.3z"/><path class="j" d="m96.3 220c-0.3 0-0.6 0-0.9-0.1l-1.8-0.9c-0.2-0.1-0.2-0.2 0-0.3l5.4-1.1c0.3 0 0.7 0 1 0.2l1.8 0.8q0.4 0.1 0 0.3z"/><path class="j" d="m80.3 226.2c0.2 0.1 0.2 0.2-0.1 0.3l-5.6 1.1q-0.5 0.1-0.9-0.1l-1.7-0.8c-0.3-0.2-0.2-0.3 0-0.3l5.6-1.2q0.5-0.1 0.9 0.1z"/><path class="j" d="m80.3 226.2c0.2 0.1 0.2 0.2-0.1 0.3l-5.6 1.1q-0.5 0.1-0.9-0.1l-1.7-0.8c-0.3-0.2-0.2-0.3 0-0.3l5.6-1.2q0.5-0.1 0.9 0.1z"/><path class="j" d="m91.2 225.7c0.3 0 0.6 0 0.9 0.1l1.8 0.8c0.2 0.1 0.2 0.2 0 0.3l-5.8 1.1q-0.4 0.1-0.9-0.1l-1.7-0.8c-0.2-0.1-0.2-0.3 0.1-0.3z"/><path class="j" d="m91.2 225.7c0.3 0 0.6 0 0.9 0.1l1.8 0.8c0.2 0.1 0.2 0.2 0 0.3l-5.8 1.1q-0.4 0.1-0.9-0.1l-1.7-0.8c-0.2-0.1-0.2-0.3 0.1-0.3z"/><path class="j" d="m82.4 227.4q0.4 0 0.9 0.2l1.7 0.8c0.2 0.1 0.2 0.3-0.1 0.3l-5.7 1.2q-0.4 0-0.9-0.2l-1.7-0.8c-0.3-0.1-0.2-0.2 0-0.3z"/><path class="j" d="m82.4 227.4q0.4 0 0.9 0.2l1.7 0.8c0.2 0.1 0.2 0.3-0.1 0.3l-5.7 1.2q-0.4 0-0.9-0.2l-1.7-0.8c-0.3-0.1-0.2-0.2 0-0.3z"/><path class="j" d="m70.1 225.3q-0.5 0.1-1-0.1l-1.7-0.8c-0.1-0.1-0.1-0.2 0.1-0.3l5.5-1.1q0.4-0.1 0.9 0.1l1.7 0.8c0.2 0.2 0.2 0.3 0 0.3z"/><path class="j" d="m70.1 225.3q-0.5 0.1-1-0.1l-1.7-0.8c-0.1-0.1-0.1-0.2 0.1-0.3l5.5-1.1q0.4-0.1 0.9 0.1l1.7 0.8c0.2 0.2 0.2 0.3 0 0.3z"/><path class="j" d="m125.2 215.8q-0.4-0.2 0-0.3l5.4-1.1q0.5-0.1 1 0l2 0.8c0.3 0.1 0.3 0.2 0 0.3l-5.5 1.1q-0.5 0.1-0.9 0z"/><path class="j" d="m125.2 215.8q-0.4-0.2 0-0.3l5.4-1.1q0.5-0.1 1 0l2 0.8c0.3 0.1 0.3 0.2 0 0.3l-5.5 1.1q-0.5 0.1-0.9 0z"/><path class="j" d="m100.1 216.1c-0.3 0-0.6 0-0.9-0.2l-1.9-0.7c-0.1-0.2-0.1-0.3 0.1-0.3l5.3-1.1q0.5-0.1 0.9 0l2 0.8q0.3 0.2 0 0.3z"/><path class="j" d="m100.1 216.1c-0.3 0-0.6 0-0.9-0.2l-1.9-0.7c-0.1-0.2-0.1-0.3 0.1-0.3l5.3-1.1q0.5-0.1 0.9 0l2 0.8q0.3 0.2 0 0.3z"/><path class="j" d="m117.6 212.5q-0.4 0.1-0.9-0.1l-2-0.7q-0.3-0.2 0-0.3l5.3-1.1q0.4-0.1 0.9 0l2.1 0.8c0.2 0.1 0.2 0.2 0 0.3z"/><path class="j" d="m117.6 212.5q-0.4 0.1-0.9-0.1l-2-0.7q-0.3-0.2 0-0.3l5.3-1.1q0.4-0.1 0.9 0l2.1 0.8c0.2 0.1 0.2 0.2 0 0.3z"/><path class="j" d="m108.9 214.2q-0.5 0.1-1-0.1l-1.9-0.8q-0.4-0.1 0-0.3l5.3-1q0.5-0.1 0.9 0l2 0.8q0.4 0.2 0 0.3z"/><path class="j" d="m108.9 214.2q-0.5 0.1-1-0.1l-1.9-0.8q-0.4-0.1 0-0.3l5.3-1q0.5-0.1 0.9 0l2 0.8q0.4 0.2 0 0.3z"/><path class="j" d="m82.7 219.6c-0.3 0-0.6 0-0.9-0.1l-1.7-0.8c-0.2-0.1-0.2-0.3 0-0.3l5.4-1.1c0.3 0 0.6 0 0.9 0.1l1.8 0.8c0.2 0.1 0.2 0.2 0 0.3z"/><path class="j" d="m82.7 219.6c-0.3 0-0.6 0-0.9-0.1l-1.7-0.8c-0.2-0.1-0.2-0.3 0-0.3l5.4-1.1c0.3 0 0.6 0 0.9 0.1l1.8 0.8c0.2 0.1 0.2 0.2 0 0.3z"/><path class="j" d="m91.4 217.8c-0.3 0-0.6 0-0.9-0.1l-1.8-0.8c-0.2-0.2-0.2-0.3 0-0.3l5.3-1.1c0.3 0 0.6 0 1 0.1l1.8 0.8q0.4 0.2 0 0.3z"/><path class="j" d="m91.4 217.8c-0.3 0-0.6 0-0.9-0.1l-1.8-0.8c-0.2-0.2-0.2-0.3 0-0.3l5.3-1.1c0.3 0 0.6 0 1 0.1l1.8 0.8q0.4 0.2 0 0.3z"/><path class="j" d="m139.4 216c-0.3-0.1-0.3-0.2 0-0.2l5.5-1.2q0.5-0.1 0.9 0.1l2.2 0.8c0.2 0 0.2 0.1 0 0.2l-5.6 1.2q-0.5 0.1-1-0.1z"/><path class="j" d="m139.4 216c-0.3-0.1-0.3-0.2 0-0.2l5.5-1.2q0.5-0.1 0.9 0.1l2.2 0.8c0.2 0 0.2 0.1 0 0.2l-5.6 1.2q-0.5 0.1-1-0.1z"/><path class="j" d="m74.1 221.4q-0.5 0.1-0.9-0.1l-1.7-0.9c-0.2-0.1-0.2-0.2 0-0.3l5.4-1.1c0.3 0 0.6 0 0.9 0.2l1.8 0.7c0.2 0.2 0.2 0.3-0.1 0.3z"/><path class="j" d="m74.1 221.4q-0.5 0.1-0.9-0.1l-1.7-0.9c-0.2-0.1-0.2-0.2 0-0.3l5.4-1.1c0.3 0 0.6 0 0.9 0.2l1.8 0.7c0.2 0.2 0.2 0.3-0.1 0.3z"/><path class="j" d="m83.5 225.8q-0.4 0.1-0.9-0.1l-1.7-0.9c-0.2-0.1-0.2-0.2 0.1-0.3l5.5-1.1c0.3 0 0.6 0 0.9 0.1l1.8 0.8c0.1 0.1 0.1 0.2-0.1 0.3z"/><path class="j" d="m83.5 225.8q-0.4 0.1-0.9-0.1l-1.7-0.9c-0.2-0.1-0.2-0.2 0.1-0.3l5.5-1.1c0.3 0 0.6 0 0.9 0.1l1.8 0.8c0.1 0.1 0.1 0.2-0.1 0.3z"/><path class="j" d="m126.4 210.6q-0.5 0.1-0.9 0l-2.1-0.8c-0.3-0.1-0.3-0.2 0-0.3l5.2-1.1q0.5-0.1 0.9 0.1l2.2 0.8c0.2 0.1 0.2 0.2 0 0.2z"/><path class="j" d="m126.4 210.6q-0.5 0.1-0.9 0l-2.1-0.8c-0.3-0.1-0.3-0.2 0-0.3l5.2-1.1q0.5-0.1 0.9 0.1l2.2 0.8c0.2 0.1 0.2 0.2 0 0.2z"/><path class="j" d="m134.1 213.9c-0.3-0.1-0.3-0.2 0-0.2l5.4-1.1q0.5-0.1 0.9 0l2.1 0.8c0.3 0.1 0.3 0.2 0 0.3l-5.4 1.1q-0.5 0.1-1-0.1z"/><path class="j" d="m134.1 213.9c-0.3-0.1-0.3-0.2 0-0.2l5.4-1.1q0.5-0.1 0.9 0l2.1 0.8c0.3 0.1 0.3 0.2 0 0.3l-5.4 1.1q-0.5 0.1-1-0.1z"/><path class="j" d="m128.8 211.8c-0.3 0-0.3-0.1 0-0.2l5.3-1.1q0.4-0.1 0.9 0.1l2.1 0.8c0.3 0 0.3 0.1 0 0.2l-5.4 1.1q-0.4 0.1-0.9-0.1z"/><path class="j" d="m128.8 211.8c-0.3 0-0.3-0.1 0-0.2l5.3-1.1q0.4-0.1 0.9 0.1l2.1 0.8c0.3 0 0.3 0.1 0 0.2l-5.4 1.1q-0.4 0.1-0.9-0.1z"/><path class="j" d="m87.1 229.7q0.4-0.1 0.9 0.1l1.7 0.8c0.2 0.1 0.2 0.2-0.1 0.3l-5.8 1.2q-0.5 0.1-0.9-0.1l-1.7-0.9c-0.3-0.1-0.2-0.2 0-0.3z"/><path class="j" d="m87.1 229.7q0.4-0.1 0.9 0.1l1.7 0.8c0.2 0.1 0.2 0.2-0.1 0.3l-5.8 1.2q-0.5 0.1-0.9-0.1l-1.7-0.9c-0.3-0.1-0.2-0.2 0-0.3z"/><path class="j" d="m65.4 223q-0.4 0.1-0.9-0.1l-1.7-0.8c-0.2-0.1-0.2-0.2 0.1-0.3l5.4-1.1q0.4 0 0.9 0.1l1.7 0.9c0.2 0.1 0.2 0.2 0 0.3z"/><path class="j" d="m65.4 223q-0.4 0.1-0.9-0.1l-1.7-0.8c-0.2-0.1-0.2-0.2 0.1-0.3l5.4-1.1q0.4 0 0.9 0.1l1.7 0.9c0.2 0.1 0.2 0.2 0 0.3z"/><path class="k" d="m124.4 203.2q-0.1 0.5-0.4 1-0.3 0.4-0.7 0.7c-0.3 0.2-0.6 0.3-1 0.4l-1.4 0.2-11.7 2.3-4.2 0.9-15.1 3-13.4 2.6-4.9 1-8.6 1.7-4.1 0.8c-0.6 0.1-1.3 0-1.9-0.4-0.6-0.4-1-0.9-1.2-1.6l-3.3-13.5-2.5-9.7-3.7-14.8q-0.1-0.4 0-0.9 0.1-0.4 0.3-0.8c0.2-0.3 0.5-0.5 0.7-0.7q0.4-0.2 0.9-0.3l11.3-2.3 7.8-1.5 19.3-3.7 8.7-1.7 4.8-1 12-2.4q0.6 0 1.3 0.2 0.5 0.1 0.9 0.6c0.3 0.2 0.5 0.6 0.5 0.9l3.9 15.8 1.3 5.2 3.7 14.6 0.6 2.5c0.1 0.3 0.1 0.6 0.1 0.9z"/><path class="l" d="m124.4 203.2q-0.1 0.5-0.4 1-0.3 0.4-0.7 0.7c-0.3 0.2-0.6 0.3-1 0.4l-1.4 0.2-11.7 2.3-4.2 0.9-15.1 3-13.4 2.6-4.9 1-8.6 1.7-4.1 0.8c-0.6 0.1-1.3 0-1.9-0.4-0.6-0.4-1-0.9-1.2-1.6l-3.3-13.5-2.5-9.7-3.7-14.8q-0.1-0.4 0-0.9 0.1-0.4 0.3-0.8c0.2-0.3 0.5-0.5 0.7-0.7q0.4-0.2 0.9-0.3l11.3-2.3 7.8-1.5 19.3-3.7 8.7-1.7 4.8-1 12-2.4q0.6 0 1.3 0.2 0.5 0.1 0.9 0.6c0.3 0.2 0.5 0.6 0.5 0.9l3.9 15.8 1.3 5.2 3.7 14.6 0.6 2.5c0.1 0.3 0.1 0.6 0.1 0.9z"/><path class="i" d="m150.4 216.6c0.3-0.1 0.6 0 0.9 0l2 0.8c0.2 0.1 0.2 0.2 0 0.2l-5.4 1.2c-0.4 0.1-0.6 0.1-0.9-0.1l-2-0.8c-0.2 0-0.2-0.1 0-0.2z"/><path class="i" d="m150.4 216.6c0.3-0.1 0.6 0 0.9 0l2 0.8c0.2 0.1 0.2 0.2 0 0.2l-5.4 1.2c-0.4 0.1-0.6 0.1-0.9-0.1l-2-0.8c-0.2 0-0.2-0.1 0-0.2z"/><path class="j" d="m150.4 216.4c0.3 0 0.6 0 0.9 0.1l2 0.8c0.2 0 0.2 0.2 0 0.2l-5.4 1.2c-0.4 0-0.6 0-0.9-0.1l-2-0.8c-0.2 0-0.2-0.2 0-0.2z"/><path class="m" d="m109.5 176.3l0.5 2.1-12.2 2.5-0.5-2.1z"/><path fill-rule="evenodd" d="m110.4 178.6l-12.8 2.7-0.6-2.7 12.8-2.7zm-0.4-0.2l-0.5-2.2-12.2 2.6 0.5 2.1z"/><path class="m" d="m109.5 191.6c1 4.6-1.5 9.2-5.7 10-4.1 0.9-8.4-2.2-9.5-6.8-1-4.6 1.5-9.2 5.7-10 4.2-0.9 8.4 2.2 9.5 6.8z"/><path class="m" d="m107.6 167.8l0.5 2.1-21.1 4.5-0.5-2.2z"/><path fill-rule="evenodd" d="m109.4 174.5l-21.7 4.6-0.6-2.8 21.7-4.5zm-0.3-0.2l-0.5-2.2-21.2 4.5 0.5 2.1z"/><path class="m" d="m108.6 172.2l0.5 2.1-21.2 4.4-0.5-2.1z"/><path fill-rule="evenodd" d="m108.5 170.2l-21.8 4.5-0.6-2.7 21.7-4.6zm-0.3-0.2l-0.5-2.1-21.2 4.5 0.5 2.1z"/><g style="opacity:.3"><path fill-rule="evenodd" class="n" d="m117.6 203.1l-25.8 5.4-8.6-38.2 25.8-5.3zm-7.9-11.6c-1-4.8-5.5-8-9.7-7.1-4.4 0.9-7.1 5.5-6 10.4 1.1 4.8 5.5 8 9.9 7.1 4.3-1 6.9-5.6 5.8-10.4zm-0.3-17l-0.6-2.8-21.7 4.6 0.6 2.7zm-1-4.3l-0.6-2.7-21.7 4.5 0.6 2.7zm-11.4 8.4l0.6 2.7 12.7-2.7-0.6-2.7z"/></g><path fill-rule="evenodd" d="m109.7 191.5c1.1 4.9-1.6 9.5-5.9 10.4-4.3 0.9-8.7-2.2-9.8-7.1-1.1-4.7 1.6-9.4 5.9-10.3 4.3-0.9 8.8 2.2 9.8 7zm-0.2 0.1c-1.1-4.6-5.3-7.6-9.5-6.8-4.1 0.8-6.7 5.3-5.7 10 1.1 4.6 5.3 7.7 9.5 6.8 4.2-0.8 6.7-5.3 5.7-10z"/><path fill-rule="evenodd" d="m109 164.7c0.1 0 0.2 0 0.2 0.1l8.7 38.4c0 0.1-0.1 0.2-0.1 0.2l-26 5.5c-0.1 0-0.2-0.1-0.2-0.1l-8.7-38.5c0-0.1 0.1-0.2 0.2-0.2zm8.5 38.5l-8.6-38.2-25.8 5.4 8.6 38.2z"/><path class="m" d="m79 186.8l0.9 3.9-3.5 0.7-0.8-3.9z"/><path class="m" d="m72.3 177.5l0.9 3.9-3.4 0.7-1-3.9z"/><path fill-rule="evenodd" d="m80.2 190.9l-4 0.9-1-4.6 4-0.8zm-0.4-0.3l-0.8-3.9-3.5 0.7 0.9 4z"/><path fill-rule="evenodd" d="m75.9 191.9l-4.1 0.8-1-4.5 4-0.9zm-0.3-0.2l-0.9-3.9-3.5 0.7 0.9 3.9z"/><path fill-rule="evenodd" d="m73.5 181.7l-4 0.8-1-4.5 4-0.9zm-0.3-0.2l-0.9-4-3.4 0.8 0.8 3.9z"/><path fill-rule="evenodd" d="m69.1 182.6l-4 0.9-1-4.6 4-0.8zm-0.4-0.3l-0.8-3.9-3.4 0.7 0.8 3.9z"/><path fill-rule="evenodd" d="m74.7 186.8l-4 0.8-1.1-4.5 4.1-0.8zm-0.4-0.3l-0.9-4-3.4 0.8 0.8 3.9z"/><path fill-rule="evenodd" d="m70.3 187.7l-4 0.8-1.1-4.5 4.1-0.8zm-0.5-0.3l-0.8-3.9-3.4 0.7 0.8 4z"/><path class="m" d="m67.9 178.4l0.9 3.9-3.4 0.7-1-3.9z"/><path class="m" d="m63.5 179.4l0.9 3.9-3.4 0.7-0.9-3.9z"/><path fill-rule="evenodd" d="m64.8 183.5l-4.1 0.9-1-4.6 4-0.8zm-0.4-0.3l-0.8-3.9-3.4 0.7 0.8 4z"/><path class="m" d="m70.2 188.6l0.9 3.9-3.5 0.8-0.8-4z"/><path class="m" d="m74.6 187.7l0.9 3.9-3.5 0.8-0.8-4z"/><path fill-rule="evenodd" d="m71.5 192.8l-4.1 0.8-1-4.5 4-0.9zm-0.4-0.2l-0.9-3.9-3.4 0.7 0.9 3.9z"/><path fill-rule="evenodd" d="m67.1 193.7l-4.1 0.8-1-4.5 4-0.8zm-0.4-0.3l-0.8-3.9-3.5 0.7 0.9 3.9z"/><g style="opacity:.3"><path fill-rule="evenodd" class="n" d="m80.2 171l5.2 23.4-25.7 5.3-5.3-23.3zm-17.7 24.9l18.8-4-3.8-17-18.9 3.9z"/></g><path fill-rule="evenodd" d="m78.1 181.3l1 4.5-4 0.9-1.1-4.6zm-2.8 5.1l3.5-0.8-0.9-3.9-3.4 0.7z"/><path class="m" d="m70.9 187.2l-0.9-3.9 3.5-0.7 0.8 4z"/><path class="m" d="m64.6 184.4l0.9 4-3.4 0.7-0.9-3.9z"/><path class="m" d="m69 183.5l0.9 4-3.4 0.7-0.9-3.9z"/><path fill-rule="evenodd" d="m65.9 188.6l-4 0.9-1.1-4.6 4.1-0.8zm-0.5-0.3l-0.8-3.9-3.4 0.7 0.8 4z"/><path fill-rule="evenodd" d="m54.3 176.1l25.9-5.5c0.1 0 0.2 0.1 0.2 0.2l5.3 23.6c0 0.1 0 0.2-0.1 0.2l-26 5.4c0 0-0.2 0-0.2-0.1l-5.3-23.6c0-0.1 0.1-0.2 0.2-0.2zm5.4 23.6l25.8-5.3-5.3-23.4-25.7 5.4z"/><path class="m" d="m75.2 186.3l-0.8-3.9 3.5-0.7 0.2 0.9 0.6 3z"/><path fill-rule="evenodd" d="m77.4 174.9l3.9 17-18.9 4-3.8-17.1zm-14.8 20.6l18.3-3.8-3.7-16.4-18.3 3.8z"/><path fill-rule="evenodd" d="m77.9 180.7l-4 0.9-1-4.5 4-0.9zm-4.7-3.4l0.8 3.9 3.5-0.7-0.8-4z"/><path fill-rule="evenodd" class="m" d="m77.3 175.2l3.7 16.5-18.3 3.8-3.7-16.4zm-13.2 3.6l1.1 4.5 4-0.8-1-4.6zm5.1 4.3l-4 0.9 1 4.5 4-0.8zm1.4 4.4l4.1-0.9-1.1-4.5-4 0.8zm-2.1-9.6l1 4.6 4-0.9-1-4.5zm8.3-1.8l-4 0.9 1.1 4.5 4-0.8zm1.1 5l-4 0.9 1 4.5 4.1-0.8zm2.1 9.7l-1-4.6-4.1 0.9 1.1 4.5zm-4.4 0.9l-1-4.5-4.1 0.8 1.1 4.6zm-4.4 0.9l-1.1-4.6-4 0.9 1 4.5zm-8.3 1.8l4-0.9-1-4.5-4.1 0.8zm-1.1-5.1l4-0.8-1-4.5-4 0.8zm2.8-5.9l-1-4.6-4 0.9 1 4.5z"/><path class="m" d="m76.7 176.6l0.9 3.9-3.5 0.7-0.9-3.9z"/><path fill-rule="evenodd" d="m82.9 206.7l1.4-1.4 2.6 2.8-10.4 2.2 1.7-7.1zm0.2 0.5l-4.6-3.4-1.5 6.2 9.4-2-2-2.2z"/><g style="opacity:.3"><path fill-rule="evenodd" class="n" d="m88.8 209.2l-12.9 2.7-2.6-11.4 12.9-2.7zm-4.4-3.7l-1.4 1.3-4.7-3.5-1.7 7.1 10.4-2.2z"/></g><path class="m" d="m65.8 189.5l0.9 3.9-3.5 0.8-0.8-4z"/><path class="m" d="m82.9 207.2l1.4-1.4 2.1 2.2-9.4 2 1.4-6.2z"/><path fill-rule="evenodd" d="m86.3 197.5c0.1 0 0.2 0.1 0.2 0.1l2.6 11.7c0 0.1-0.1 0.2-0.1 0.2l-13.2 2.8c-0.1 0-0.2-0.1-0.2-0.2l-2.6-11.6c0-0.1 0.1-0.2 0.1-0.2zm2.5 11.7l-2.5-11.4-13 2.7 2.6 11.4z"/><path class="m" d="m71.8 210c0.2 0.6-0.2 1.2-0.7 1.4-0.6 0.1-1.2-0.3-1.3-1-0.1-0.6 0.3-1.2 0.8-1.3 0.6-0.1 1.1 0.3 1.2 0.9z"/><path class="m" d="m71.1 206.9c0.2 0.6-0.2 1.2-0.7 1.4-0.6 0.1-1.2-0.3-1.3-0.9-0.1-0.6 0.2-1.2 0.8-1.4 0.5-0.1 1.1 0.3 1.2 0.9z"/><path fill-rule="evenodd" d="m72.1 210c0.2 0.7-0.2 1.5-0.9 1.7-0.7 0.1-1.4-0.4-1.6-1.2-0.2-0.8 0.2-1.6 0.9-1.7 0.7-0.1 1.5 0.4 1.6 1.2zm-0.2 0.1c-0.2-0.6-0.7-1-1.3-0.9-0.6 0.1-0.9 0.7-0.8 1.3 0.1 0.6 0.7 1 1.3 0.9 0.5-0.1 0.9-0.7 0.8-1.3z"/><path  d="m67.3 204v0.3l-5.1 1.1-0.1-0.3z"/><path  d="m68 207.1v0.3l-5.1 1.1-0.1-0.3z"/><path fill-rule="evenodd" d="m71.1 200.7c0.1 0 0.2 0.1 0.2 0.1l2.6 11.7c0 0.1-0.1 0.2-0.1 0.2l-10.8 2.2q-0.2 0-0.2-0.1l-2.6-11.7c0 0 0-0.2 0.1-0.2zm2.5 11.7l-2.6-11.4-10.5 2.2 2.5 11.4z"/><path fill-rule="evenodd" d="m70.7 203.8c0.2 0.8-0.2 1.6-0.9 1.7-0.7 0.2-1.4-0.4-1.6-1.2-0.2-0.8 0.2-1.5 0.9-1.7 0.7-0.1 1.4 0.4 1.6 1.2zm-0.2 0.1c-0.2-0.7-0.7-1.1-1.3-1-0.6 0.2-0.9 0.8-0.8 1.4 0.1 0.6 0.7 1 1.3 0.9 0.5-0.1 0.9-0.7 0.8-1.3z"/><path class="m" d="m70.4 203.9c0.2 0.6-0.2 1.2-0.7 1.3-0.6 0.1-1.2-0.3-1.3-0.9-0.1-0.6 0.3-1.2 0.8-1.4 0.6-0.1 1.1 0.3 1.2 1z"/><g style="opacity:.3"><path fill-rule="evenodd" class="n" d="m73.6 212.4l-10.6 2.2-2.5-11.4 10.5-2.2zm-2.8-8.6c-0.2-0.8-0.9-1.3-1.6-1.1-0.8 0.1-1.2 0.9-1 1.7 0.1 0.7 0.9 1.2 1.6 1.1 0.7-0.1 1.2-0.9 1-1.7zm0.6 3.2c-0.1-0.8-0.8-1.3-1.5-1.2-0.8 0.1-1.2 0.9-1 1.7 0.2 0.8 0.9 1.3 1.6 1.2 0.7-0.2 1.1-1 0.9-1.7zm0.8 3c-0.2-0.7-0.9-1.2-1.6-1.1-0.7 0.1-1.2 0.9-1 1.7 0.1 0.8 0.9 1.3 1.6 1.1 0.7-0.1 1.2-0.9 1-1.7zm-4.8-5.7l-0.1-0.3-5.1 1.1v0.3zm1.4 6.2v-0.3l-5.2 1.1 0.1 0.3zm-0.7-3.1v-0.3l-5.2 1.1 0.1 0.3z"/></g><path fill-rule="evenodd" d="m71.5 206.9c0.1 0.8-0.3 1.5-1 1.7-0.7 0.2-1.5-0.4-1.7-1.2-0.1-0.8 0.3-1.6 1-1.7 0.7-0.1 1.5 0.4 1.7 1.2zm-0.3 0c-0.2-0.6-0.7-1-1.3-0.9-0.6 0.2-0.9 0.8-0.8 1.4 0.2 0.6 0.8 1 1.3 0.9 0.6-0.1 0.9-0.7 0.8-1.4z"/><path  d="m68.7 210.3v0.3l-5.1 1-0.1-0.3z"/></g><path class="o" d="m253 47.5l44.5 76-211 72.5z"/><path class="c" d="m254.2 111.6l2.5-0.5 0.4-2.4 0.4 2.4 2.5 0.5-2.5 0.4-0.4 2.4-0.4-2.4z"/><path class="c" d="m209 174.9l2.5-0.4 0.4-2.5 0.4 2.5 2.5 0.4-2.5 0.4-0.4 2.5-0.4-2.5z"/><path class="c" d="m290.5 216.7l3-4.4-3-4.3 4.4 3 4.3-3-3 4.3 3 4.4-4.3-3.1z"/><path class="c" d="m292.3-9.5l3.4 2.5 3.5-2.5-2.5 3.5 2.5 3.4-3.5-2.5-3.4 2.5 2.4-3.4z"/><path class="c" d="m171 20.2l3.4 2.5 3.5-2.5-2.5 3.5 2.5 3.4-3.5-2.4-3.4 2.4 2.5-3.4z"/><path class="l" d="m288.3 51.4h-2.4c-0.4 0-0.7-0.2-0.7-0.6v-1c0-0.3 0.3-0.6 0.7-0.6h2.4c0.3 0 0.6 0.3 0.6 0.6v1c0 0.4-0.3 0.6-0.6 0.6z"/><path class="p" d="m284.6 49.3c-2.2-4.1-8.7-7.8-8.7-14.3 0-6.2 5.1-10.8 11.3-10.8 6.2 0 11.2 4.6 11.2 10.8 0 6.1-6.7 10-8.9 14.3-0.1 0.2-0.3 0.3-0.6 0.3h-3.7c-0.2 0-0.4-0.1-0.6-0.3z"/><path class="q" d="m288.6 54.8h-3.1c-0.3 0-0.6-0.3-0.6-0.6v-2.6c0-0.3 0.2-0.6 0.6-0.6h3.1c0.4 0 0.7 0.3 0.7 0.6v2.6c0 0.3-0.3 0.6-0.7 0.6z"/><path class="l" d="m289.4 52.4c0.5 0.1 0.8 0.2 0.8 0.3 0 0.3-1.4 0.5-3.1 0.5-1.7 0-3-0.2-3-0.5 0-0.1 0.2-0.2 0.7-0.3"/><path class="r" d="m285 49.3c-0.8-1.5-2.1-2.9-3.4-4.4q-0.2-0.1-0.3-0.3c1.7 1 3.7 1.6 5.8 1.6 1.9 0 3.8-0.5 5.4-1.4-1.4 1.5-2.7 3-3.4 4.5z"/><path class="s" d="m298.5 35c0 1.8-0.6 3.3-1.4 4.8q-1.6 0.5-3.4 0.5c-6 0-10.9-4.8-10.9-10.8 0-1.7 0.5-3.4 1.2-4.9q1.5-0.4 3.2-0.4c6.2 0 11.2 4.6 11.3 10.8z"/><path class="t" d="m295.8 41.6l-6.5 10.1-2.2-2-2.2 2-6-9.4"/><path class="u" d="m284.4 30.8l2.7 5.9-1 0.4-3.2-6.3zm5.4 5.3v0.9h-6v-0.9zm0 2.1v0.9h-6v-0.9zm-2.4-2.4v5.6h-1.3v-5.6zm-1 0.9l2.8-5.9h1.4l-3.2 6.3z"/><path class="v" d="m280.3 127.9c-24.8 0-44.9-19.9-44.9-44.5 0-24.5 20.1-44.4 44.9-44.4 24.7 0 44.8 19.9 44.8 44.4 0 24.6-20.1 44.5-44.8 44.5z"/><path class="w" d="m283.4 122.1c-0.4 0-0.8 0-1.1-0.1h-0.1c-0.2 0-0.3 0.1-0.4 0.1-1.4 0-2.6-0.6-3.6-1.7-1-1.2-1.5-2.8-1.2-4.2 0.4-2.4 1.4-4.6 2.3-6.8 0.2-0.4 0.3-0.8 0.5-1.1 0.9-2.2 1-4.2 0.9-6.5-0.1-2.6-0.4-3.4-2-5.4-1.2-1.5-2.7-3-4.6-4.7-2.2-0.9-4.1-2.8-5-4.8-0.7-1.8-0.5-4.3 0.4-6.2 1-2 2.7-3.1 4.4-3.9 1.5-0.7 3-1.1 4.8-1.1 3.8 0 7.7 1.7 11.1 3.2q0.8 0.4 1.6 0.7c5.2 2.2 11.1 4.7 11.7 10.8 0.2 2.1-0.4 4.3-0.9 6.5-0.2 0.5-0.3 1-0.5 1.5q1 2.7 3 4.8l0.1 0.1c1.9-0.2 3.2-1.5 3.6-3.4 0.2-1.2 0.4-2.4 0.5-4.2q-0.2-0.8-0.3-1.6c-0.1-0.5-0.2-1-0.3-1.4l-0.3-1.5q-0.3-1.7-0.6-3.3-0.1-0.2-0.1-0.5c-0.2-1.1-0.5-2.4-1.1-3.3-0.6-0.8-1.6-1.2-2.5-1.6q-0.5-0.1-0.9-0.4c-1.3-0.6-2.5-1.3-3.5-2.2-0.9-0.7-1.8-1.7-2.8-2.9q-0.1-0.2-0.3-0.4c-0.6-0.9-1.2-1.7-2.4-1.9-0.7-0.1-1.3-0.2-1.9-0.2-0.8 0-1.6 0-2.4-0.3q-2-0.6-3.5-1.9-1.5-1.2-2.4-2.9c-0.3-0.6-0.5-1.1-0.7-1.7 0-0.1-0.2-0.9-0.3-1.2v-0.1h-0.1c-1.4-0.4-1.9-1.7-1.7-2.7 0.1-0.9 0.7-1.8 1.8-1.8q0.4 0 0.7 0.1c0 0 0.1 0 0.1 0h0.1c1.4-0.3 2.7-0.6 4.1-0.9q0.3-0.1 0.6-0.1c0.8 0 1.5 0.3 2 0.9 0.3 0.4 0.5 1 0.3 1.7 0 0.4-0.2 0.9-0.3 1.3-0.5 1.2-0.9 2.3 0.5 3.6q0.3 0.3 0.7 0.6l0.1 0.1 0.1-0.1c0.3-0.7 0.9-1.2 1.6-1.5q0.7-0.3 1.6-0.3c1 0 2.1 0.3 2.9 0.6q0.9 0.3 1.9 0.6c0.9 0.3 1.8 0.6 2.8 0.9 1.8-0.4 3.5-1.7 3.1-3.4-0.3-1.2-1.7-1.3-3-1.3q-0.5 0-0.9 0-0.4 0-0.8 0-0.5 0-0.8-0.1c-0.9-0.1-1.8-1-1.8-2-0.1-2.8 2.3-3.7 4.5-4.3 2.8-0.6 5.3-0.9 7.8-0.9q0.3 0 0.6 0c0.4 0 0.7-0.1 1.1-0.1 1.9 0 3.9 0.2 5.2 1.5q0.2 0.2 0.5 0.5c6.2 9.5 8.4 20.9 6.3 32.1-0.6 3.4-1.6 6.6-3 9.7-1.8 2.7-4.9 3.7-7.3 4.3v0.1c-0.2 0.1-0.3 0.2-0.5 0.4-2 1.6-4.5 2.5-6.3 3h-0.1c-0.2 0.1-0.3 0.2-0.4 0.3-2.8 1.1-4.8 2.2-6.5 3.5-0.9 0.8-1.7 1.8-2.6 2.7-0.7 0.8-1.5 1.8-2.4 2.5-3.2 2.7-7.2 4.2-11.7 4.2z"/><path fill-rule="evenodd" class="u" d="m317.5 58.9q0.3 0.3 0.5 0.5c6 9.2 8.6 20.6 6.4 32.2-0.6 3.5-1.7 6.7-3 9.8-1.8 2.5-4.5 3.6-7.4 4.4-0.2 0.1-0.3 0.3-0.5 0.4-1.8 1.6-4 2.4-6.3 3q-0.2 0.2-0.5 0.3c-2.2 0.9-4.5 2-6.4 3.6-1.9 1.5-3.2 3.6-5.1 5.2-3.3 2.8-7.5 4.1-11.8 4.1-0.4 0-0.8 0-1.1-0.1q-0.1 0-0.1 0c-0.2 0.1-0.3 0.1-0.4 0.1-3.1 0-5.4-3.1-4.9-6.1 0.4-2.8 1.7-5.3 2.8-7.9 0.8-2.1 1-4 0.9-6.4-0.1-2.6-0.4-3.4-2-5.3-1.4-1.7-2.9-3.2-4.6-4.7-2.2-1-4.1-2.9-5-4.9-0.8-1.9-0.5-4.5 0.4-6.3 0.9-2 2.6-3.1 4.5-4 1.6-0.8 3.2-1.1 4.8-1.1 3.8 0 7.7 1.7 11.2 3.2 5.4 2.4 12.7 4.7 13.4 11.6 0.2 2.6-0.8 5.5-1.4 8 0.6 1.8 1.6 3.4 2.9 4.8 1.7-0.2 3.1-1.4 3.5-3.3q0.3-2 0.5-4.2c-0.2-1-0.4-2-0.6-3-0.3-1.6-0.6-3.2-0.9-4.8-0.3-1.2-0.5-2.7-1.2-3.7-0.8-1.1-2.2-1.4-3.4-1.9q-1.9-0.9-3.5-2.2c-1.1-0.9-2-2-2.8-3-0.8-1.1-1.3-2-2.7-2.2-1.4-0.3-2.8-0.1-4.2-0.5q-2-0.6-3.6-2-1.5-1.2-2.4-2.9-0.4-0.9-0.7-1.7c-0.1-0.2-0.3-1.3-0.3-1.3-2.7-0.8-2.2-4.8 0.2-4.8q0.3 0 0.6 0.1c0.1 0 0.1 0.1 0.1 0.1 1.4-0.3 2.8-0.7 4.1-1q0.4-0.1 0.7-0.1c1.5 0 2.9 1.1 2.5 2.8-0.4 1.8-1.6 3.1 0.1 4.8q0.3 0.3 0.7 0.6c0.3-0.7 0.9-1.3 1.6-1.6q0.8-0.3 1.7-0.3c1 0 2 0.2 3 0.5 1.5 0.5 3 1.1 4.6 1.6 1.5-0.4 3.4-1.5 3-3.2-0.2-1.1-1.5-1.3-2.9-1.3-0.6 0-1.1 0.1-1.6 0.1q-0.5 0-0.9-0.1c-1-0.2-1.9-1.1-1.9-2.1-0.1-2.9 2.2-3.9 4.7-4.5 2.5-0.5 5.1-0.9 7.7-0.9q0.9 0 1.8-0.1c1.9 0 3.9 0.2 5.2 1.7zm-6.5-1.4q-0.3 0-0.6 0c-2.5 0-5 0.4-7.7 1-2.3 0.5-4.5 1.4-4.5 4.1 0.1 0.9 0.9 1.7 1.7 1.9q0.3 0 0.8 0 0.4 0 0.8 0 0.4 0 0.9 0c1.4 0 2.9 0.2 3.2 1.5 0.4 1.8-1.4 3.1-3.2 3.6h-0.1-0.1c-0.9-0.3-1.8-0.6-2.7-0.9q-1-0.4-2-0.7c-0.7-0.2-1.8-0.5-2.8-0.5q-0.9 0-1.6 0.2c-0.6 0.3-1.2 0.8-1.5 1.4l-0.1 0.4-0.3-0.2q-0.4-0.3-0.7-0.6c-1.4-1.4-1-2.6-0.6-3.9 0.2-0.3 0.3-0.8 0.4-1.2q0.2-0.9-0.3-1.6c-0.4-0.5-1.1-0.8-1.9-0.8-0.2 0-0.3 0-0.6 0-1.4 0.4-2.8 0.7-4.1 1h-0.1c0 0-0.1 0-0.1 0 0-0.1 0-0.1-0.1-0.1q-0.3-0.1-0.5-0.1c-1.1 0-1.6 0.9-1.8 1.7-0.1 1 0.3 2.2 1.6 2.5l0.2 0.1v0.2c0.2 0.4 0.3 1.1 0.4 1.2 0.1 0.5 0.4 1.1 0.7 1.6 0.6 1.1 1.4 2.1 2.3 2.9 1 0.9 2.2 1.5 3.5 1.9 0.8 0.2 1.5 0.3 2.4 0.3 0.6 0 1.2 0.1 1.8 0.2 1.3 0.2 1.9 1 2.6 1.9q0.1 0.2 0.3 0.4c0.9 1.3 1.8 2.2 2.7 3 1.1 0.8 2.3 1.6 3.5 2.2q0.4 0.1 0.9 0.3c1 0.4 1.9 0.8 2.6 1.6 0.6 1 0.9 2.2 1.1 3.3q0 0.3 0.1 0.6 0.3 1.6 0.6 3.2l0.3 1.5c0.1 0.5 0.2 1 0.3 1.5q0.1 0.7 0.3 1.5v0.1c-0.1 1.7-0.3 3-0.5 4.2-0.4 1.9-1.8 3.3-3.7 3.5l-0.1 0.1-0.1-0.2q-2.1-2.1-3-4.8l-0.1-0.1 0.1-0.1q0.2-0.7 0.4-1.5c0.5-2.2 1.2-4.4 1-6.4-0.6-6-6.5-8.5-11.7-10.7q-0.8-0.3-1.6-0.7c-3.4-1.5-7.3-3.1-11.1-3.1-1.7 0-3.2 0.3-4.6 1-2 0.9-3.5 2-4.4 3.9-0.9 1.8-1.1 4.3-0.4 6 0.9 2 2.8 3.9 4.9 4.7v0.1h0.1c1.9 1.7 3.4 3.2 4.6 4.7 1.6 2 1.9 2.8 2 5.5 0.1 2.3 0 4.3-0.9 6.5-0.2 0.4-0.3 0.7-0.5 1.1-0.9 2.2-1.9 4.4-2.3 6.8-0.2 1.4 0.2 2.9 1.2 4.1 0.9 1 2.1 1.6 3.4 1.6 0.1 0 0.3 0 0.4 0 0 0 0.1 0 0.1 0 0.4 0 0.8 0 1.1 0 4.5 0 8.6-1.4 11.7-4.1 0.9-0.7 1.7-1.6 2.5-2.5 0.8-0.9 1.6-1.8 2.6-2.6 1.7-1.4 3.7-2.5 6.5-3.6 0.1-0.1 0.2-0.2 0.4-0.2v-0.1h0.1c1.9-0.5 4.3-1.3 6.2-2.9 0.2-0.2 0.4-0.3 0.5-0.5h0.1c4.6-1.2 6.3-2.9 7.2-4.3 1.4-3.1 2.4-6.3 3-9.7 2.1-11.1-0.1-22.4-6.3-31.9q-0.2-0.3-0.4-0.5c-1.3-1.3-3.3-1.5-5.1-1.5-0.4 0-0.8 0-1.3 0z"/><path class="w" d="m248.7 114.6c-9.9-9.8-14.6-23.8-12.6-37.5 0.9 0.3 1.5 1.1 1.7 2.1v0.2c0.3 1.8 0.6 3.8 1.5 5.3 0.7 1.2 2.1 1.6 3.3 1.9 0.2 0.1 0.5 0.1 0.6 0.1l0.3 0.1c1.7 0.5 3.7 1 4.7 2.5 0.5 0.8 0.7 1.7 0.5 2.5-0.1 0.3-0.1 0.6-0.3 0.9l-0.1 0.1 0.2 0.2q1 0.9 1.4 1.8c0.1 0.3 0.2 0.7 0.2 1v0.3h0.2c0.4 0 0.8 0 1.2 0.1 3.1 0.3 6.9 2 8.2 5.7 1.2 3.5-0.3 7-3.8 8.6l-0.5 0.3c-2.4 1.2-4.7 2.3-6.7 3.8z"/><path fill-rule="evenodd" class="u" d="m237.9 79.2c0.3 1.8 0.6 3.9 1.5 5.4 0.8 1.4 2.5 1.6 3.9 2 1.8 0.5 3.9 1 5 2.6 0.6 0.8 0.8 1.8 0.6 2.7-0.1 0.3-0.2 0.6-0.4 0.9q0.1 0 0.1 0.1c0.6 0.5 1.2 1.2 1.4 1.9 0.1 0.3 0.2 0.7 0.2 1q0 0.1 0 0.2c0.5 0 0.9 0 1.3 0.1 3.5 0.4 7.1 2.3 8.3 5.8 1.3 3.7-0.4 7.2-3.9 8.8-2.6 1.3-5 2.4-7.2 4.2-9.7-9.7-14.8-23.6-12.7-38 0.9 0.3 1.7 1 1.9 2.3zm0.3 18.4c2.2 6.3 5.8 12.1 10.5 16.9 2-1.6 4.3-2.6 6.6-3.7l0.5-0.3c3.4-1.6 4.9-5 3.7-8.4-1.3-3.7-5-5.3-8.1-5.7-0.4 0-0.8 0-1.2-0.1h-0.3v-0.2-0.2c0-0.3-0.1-0.6-0.2-0.9-0.2-0.6-0.7-1.2-1.3-1.8l-0.1-0.1-0.2-0.2 0.1-0.2c0.2-0.3 0.3-0.5 0.3-0.8q0.3-1.3-0.5-2.5c-0.9-1.4-2.9-1.9-4.6-2.4h-0.2c-0.2-0.1-0.4-0.1-0.6-0.2-1.3-0.3-2.7-0.7-3.5-2-0.8-1.6-1.2-3.5-1.4-5.3l-0.1-0.2c-0.1-0.9-0.6-1.6-1.4-2-0.9 6.8-0.2 13.8 2 20.3z"/><path class="w" d="m241.5 77.1c-1.6 0-2.4-1.3-2.6-2.4q-0.1-0.4-0.1-0.9-0.3-1.8-1.1-3.6c2.5-8.1 7.3-15.3 13.9-20.8q0.6-0.3 1.1-0.4 0.2 0 0.3 0c0.9 0 1.5 0.6 2.2 1.1 0.2 0.1 0.3 0.3 0.5 0.4 0.6 0.4 1.4 0.8 2.2 1h0.1q0.2 0 0.6 0 0.3 0 0.8 0c1.3 0.2 1.9 1.3 2.1 2.4q0.2 1 0.4 2c0.3 1.3 0.5 2.7 0.8 4.1 0.2 1.5 0.1 3.5-1.7 4.7q-0.7 0.4-1.5 0.4c-1.3 0-2.4-1-2.6-2.4-0.1-0.3-0.3-0.5-0.6-0.5q-0.2 0-0.4 0.1c-0.4 0.3-0.7 1.1-0.9 1.8-0.1 0.3-0.2 0.6-0.2 0.7-0.7 1.5-1.9 2.8-3.4 3.7-0.5 0.4-1.4 0.7-2.3 1.1-2.3 0.9-5.2 2.1-5.1 4.3q0 0.1 0 0.2c0 0.1 0.1 0.1 0.1 0.2 0 0.7-0.2 1.3-0.6 1.8-0.5 0.6-1.1 0.9-1.8 1-0.1 0-0.2 0-0.2 0z"/><path fill-rule="evenodd" class="u" d="m255.8 50.4c0.7 0.5 1.3 0.8 2.1 1q0.3-0.1 0.7-0.1c0.2 0 0.5 0 0.8 0.1 1.3 0.2 2.1 1.3 2.3 2.5 0.4 2 0.8 4.1 1.1 6.1 0.3 1.9 0 3.7-1.7 4.8-0.5 0.3-1 0.5-1.5 0.5-1.4 0-2.6-1-2.8-2.5q-0.1-0.5-0.4-0.5c-0.2 0-0.3 0.1-0.5 0.2-0.5 0.3-0.8 1.9-1 2.4-0.7 1.6-2 2.9-3.4 3.8-2 1.2-7.5 2.3-7.4 5.2 0.1 0.1 0.1 0.3 0.1 0.4 0.1 1.5-1.1 2.9-2.5 3q-0.2 0-0.3 0c-1.5 0-2.4-1.2-2.7-2.5-0.1-0.3-0.1-0.6-0.1-0.9-0.2-1.3-0.6-2.5-1.1-3.7 2.6-8.4 7.5-15.5 14-20.9q0.6-0.3 1.2-0.4 0.2 0 0.3 0c1.2 0 1.9 0.8 2.8 1.5zm-3-1.2q-0.5 0.1-1.1 0.3c-6.5 5.5-11.3 12.6-13.9 20.7q0.8 1.7 1.1 3.6c0.1 0.4 0.1 0.6 0.1 0.9 0.4 1.7 1.5 2.3 2.5 2.3q0.1 0 0.2 0c0.6-0.1 1.3-0.4 1.7-0.9 0.4-0.5 0.6-1.1 0.5-1.8 0 0 0-0.1 0-0.2q0-0.1 0-0.1c-0.2-2.4 2.8-3.6 5.2-4.5 0.9-0.4 1.7-0.7 2.2-1.1 1.5-0.9 2.7-2.2 3.4-3.6 0-0.2 0.1-0.4 0.2-0.7 0.3-0.9 0.5-1.6 0.9-1.8q0.3-0.2 0.6-0.2c0.3 0 0.6 0.2 0.7 0.7 0.2 1.2 1.2 2.2 2.5 2.2 0.4 0 0.9-0.2 1.3-0.4 1.8-1.1 1.9-3.1 1.6-4.5-0.2-1.4-0.5-2.8-0.7-4.1q-0.2-1-0.4-2.1c-0.2-0.9-0.8-2-2-2.2q-0.5 0-0.8 0-0.4 0-0.6 0h-0.1c-0.9-0.2-1.6-0.6-2.3-1.1-0.2-0.1-0.3-0.2-0.5-0.3-0.6-0.6-1.3-1.1-2.1-1.1q-0.1 0-0.2 0z"/><path class="w" d="m259.2 48.7c-0.8 0-1.6-0.2-2.3-0.7-0.6-0.3-1.1-0.9-1.3-1.6 2.5-1.7 5.3-3.1 8.1-4.2q0.4 0.5 0.5 1.2c0 1.9-0.8 3.6-2.3 4.5-0.7 0.5-1.7 0.8-2.7 0.8z"/><path fill-rule="evenodd" class="u" d="m264.3 43.4c0.1 1.8-0.7 3.7-2.3 4.6-0.8 0.5-1.8 0.8-2.8 0.8-0.8 0-1.7-0.2-2.4-0.6-0.7-0.4-1.2-1.1-1.4-1.8 2.6-1.7 5.4-3.2 8.4-4.4 0.3 0.4 0.5 0.9 0.5 1.4zm-8.5 3.1c0.2 0.6 0.6 1.1 1.2 1.4 0.6 0.4 1.4 0.6 2.2 0.6 1 0 1.9-0.2 2.7-0.7 1.4-0.9 2.2-2.6 2.2-4.4q-0.1-0.5-0.4-1c-2.8 1.1-5.4 2.5-7.9 4.1z"/><path class="w" d="m274.9 54.1c-0.2 0-0.4-0.1-0.5-0.2h-0.1c-0.4-0.1-0.7-0.4-0.7-0.8l-0.1-0.1c-2.2-2.1-3.6-5-3.7-8-0.1-1.5-0.1-3.2 0.9-4.2 0.8-0.7 2-1 3.1-1.3 2.2-0.3 4.4-0.5 6.5-0.5 1.8 0 3.5 0.1 5.3 0.3q0.7 0.2 1.3 0.4c1.8 0.6 3.3 1.8 3.9 3.2q0.8 1.6 0 3.3c-0.2 0.3-0.6 0.6-0.9 0.6-1.8 0.1-3.7 0.3-5.6 0.5h-0.1c-1.4 0.2-2.9 0.4-4.1 1.3-0.8 0.7-1.4 1.6-1.9 2.5-0.7 1.1-1.4 2.2-2.7 2.8q-0.3 0.1-0.6 0.2z"/><path fill-rule="evenodd" class="u" d="m285.5 39.2q0.7 0.1 1.4 0.3c2.9 1 5.4 3.6 3.9 6.7-0.1 0.4-0.6 0.7-1 0.7-1.9 0.2-3.7 0.3-5.5 0.5-1.4 0.2-3 0.3-4.1 1.3-2 1.5-2.4 4.1-4.7 5.3q-0.3 0.2-0.6 0.2-0.4 0-0.7-0.1c-0.4-0.1-0.7-0.4-0.8-1-2.2-2.1-3.7-5-3.8-8.1-0.1-1.3-0.1-3.3 0.9-4.3 0.8-0.8 2.1-1.1 3.3-1.4 2.1-0.3 4.3-0.4 6.5-0.4 1.7 0 3.5 0.1 5.2 0.3zm-11.7 0.4c-1.1 0.3-2.3 0.6-3 1.3-0.9 0.9-1 2.6-0.9 4.1 0.2 2.9 1.6 5.8 3.8 7.9l0.1 0.1v0.1c0 0.4 0.4 0.6 0.6 0.6v0.1c0.2 0.1 0.4 0.1 0.5 0.1q0.3 0 0.5-0.1c1.3-0.7 1.9-1.7 2.6-2.9 0.6-0.8 1.1-1.7 2-2.4 1.2-1 2.8-1.2 4.1-1.4h0.2c1.9-0.2 3.7-0.4 5.5-0.5 0.4 0 0.7-0.2 0.8-0.5q0.7-1.7 0.1-3.2c-0.6-1.4-2.1-2.5-3.9-3.1q-0.6-0.2-1.3-0.3-2.6-0.3-5.2-0.3c-2.2 0-4.3 0.1-6.5 0.4z"/><path class="w" d="m285.2 56.5q-0.3 0-0.6-0.1c-1.5-0.4-2.5-1.8-2.3-3.2 0.3-1.6 1.8-2.3 3.1-2.3q0.2 0 0.4 0c0.7 0.1 1.4 0.4 1.8 0.8h0.1q0.4 0.1 0.7 0.3c1.1 0.5 1.5 1.8 1 2.9-0.3 0.8-1.1 1.2-2 1.2q-0.3 0-0.5 0h-0.1q-0.2 0.1-0.5 0.2-0.5 0.2-1.1 0.2z"/><path fill-rule="evenodd" class="u" d="m285.9 50.7c0.7 0.2 1.4 0.5 1.9 0.9q0.4 0.1 0.7 0.3c1.2 0.6 1.7 2 1.1 3.1-0.3 0.9-1.2 1.3-2.1 1.3-0.2 0-0.4 0-0.5 0q-0.3 0.1-0.5 0.2-0.6 0.1-1.2 0.1-0.4 0-0.7 0c-1.6-0.4-2.7-1.8-2.4-3.4 0.2-1.6 1.7-2.5 3.2-2.5q0.2 0 0.5 0zm-3.4 2.5c-0.3 1.4 0.6 2.7 2.1 3.1 0.2 0 0.4 0.1 0.6 0.1q0.5 0 1.2-0.2c0.1 0 0.2-0.1 0.4-0.1v-0.1h0.1 0.1c0.2 0.1 0.3 0.1 0.4 0.1 0.9 0 1.6-0.5 1.9-1.2 0.5-1.1 0.1-2.3-0.9-2.8q-0.4-0.1-0.7-0.2h-0.1l-0.1-0.1c-0.4-0.4-1-0.7-1.7-0.8q-0.2 0-0.4 0c-1.3 0-2.7 0.7-2.9 2.2z"/><g style="opacity:.4"><path class="x" d="m264.2 41.5c-12.8 10-19.7 26.4-16.5 43.2 4.6 24.2 28 40.1 52.3 35.6q4.2-0.8 8.1-2.3c-5.5 4.3-12.1 7.3-19.4 8.7-24.3 4.5-47.8-11.5-52.3-35.6-4-21.3 8.1-42 27.8-49.6z"/></g><path class="l" d="m324 74.8c22.5 1.7 37.4 4.7 37.4 8.1 0 5.3-36.7 9.6-81.8 9.6-45.2 0-81.8-4.3-81.8-9.6 0-3.5 15.6-6.5 39-8.2"/><path class="l" d="m285.8 127.5c-1.8 6.7-4.3 10.7-7.2 10.9-7.5 0.4-15.1-25.3-16.9-57.4-1.9-32.2 2.7-58.6 10.1-59 2.3-0.1 4.6 2.1 6.6 6.1"/><path class="l" d="m324.3 80.5c8.9 9.4 12.9 18.9 9.6 26-6.2 13.1-34.9 12.9-64.2-0.6-29.3-13.4-48.2-35-42-48.1 3.3-7.1 13-10.2 25.9-9.6"/><path class="y" d="m331.6 114.1c-3.4 0-6.2-2.8-6.2-6.2 0-3.5 2.8-6.3 6.2-6.3 3.5 0 6.3 2.8 6.3 6.3 0 3.4-2.8 6.2-6.3 6.2z"/><path class="z" d="m332.8 114.1c-3.5 0-6.3-2.8-6.3-6.3 0-3.4 2.8-6.2 6.3-6.2 3.5 0 6.3 2.8 6.3 6.2 0 3.5-2.8 6.3-6.3 6.3z"/><path class="y" d="m327.5 107.8c0-2.8 2.4-5.2 5.3-5.2 2.9 0 5.3 2.4 5.3 5.2 0 2.9-2.4 5.3-5.3 5.3-2.9 0-5.3-2.4-5.3-5.3z"/><path class="y" d="m227.6 62.5c-3.3 0-6.1-2.7-6.1-6.1 0-3.4 2.8-6.1 6.1-6.1 3.4 0 6.2 2.7 6.2 6.1 0 3.4-2.8 6.1-6.2 6.1z"/><path class="z" d="m228.7 62.5c-3.4 0-6.1-2.8-6.1-6.1 0-3.4 2.7-6.1 6.1-6.1 3.4 0 6.2 2.7 6.2 6.1 0 3.3-2.8 6.1-6.2 6.1z"/><path class="y" d="m223.6 56.4c0-2.8 2.3-5.1 5.1-5.1 2.8 0 5.1 2.3 5.1 5.1 0 2.8-2.3 5.1-5.1 5.1-2.8 0-5.1-2.3-5.1-5.1z"/><path class="l" d="m297.6 39.2c9.9-3.5 18.3-3.3 23 1.4 10 9.9-0.3 36.2-22.9 58.6-22.7 22.4-49.1 32.6-59.1 22.7-5.1-5-4.9-14.4-0.5-25.3"/><path class="l" d="m362.3 88.9h-1.7c-0.3 0-0.5-0.2-0.5-0.4v-0.7c0-0.3 0.2-0.5 0.5-0.5h1.7c0.2 0 0.4 0.2 0.4 0.5v0.7c0 0.2-0.2 0.4-0.4 0.4z"/><path class="p" d="m359.7 87.4c-1.6-2.9-6.1-5.5-6.1-10.1 0-4.4 3.5-7.6 7.9-7.6 4.4 0 7.9 3.3 7.9 7.6 0 4.3-4.7 7.1-6.3 10.1 0 0.1-0.2 0.2-0.4 0.2h-2.6c-0.1 0-0.3-0.1-0.4-0.2z"/><path class="q" d="m362.5 91.3h-2.2c-0.2 0-0.4-0.2-0.4-0.5v-1.7c0-0.3 0.2-0.5 0.4-0.5h2.2c0.3 0 0.5 0.2 0.5 0.5v1.7c0 0.3-0.2 0.5-0.5 0.5z"/><path class="l" d="m363.1 89.6c0.3 0 0.5 0.1 0.5 0.2 0 0.1-0.9 0.3-2.1 0.3-1.2 0-2.2-0.2-2.2-0.3q0-0.2 0.5-0.2"/><path class="r" d="m360 87.4c-0.6-1-1.5-2-2.5-3.1 0-0.1-0.1-0.1-0.2-0.2 1.3 0.7 2.7 1.1 4.1 1.1 1.4 0 2.7-0.3 3.9-1-1 1.1-1.9 2.1-2.4 3.2z"/><path class="s" d="m369.4 77.3c0 1.2-0.3 2.3-0.9 3.3-0.8 0.3-1.6 0.4-2.4 0.4-4.3 0-7.7-3.4-7.7-7.6 0-1.2 0.3-2.4 0.8-3.4 0.8-0.2 1.5-0.3 2.3-0.3 4.4 0 7.9 3.3 7.9 7.6z"/><path class="t" d="m367.6 82l-4.6 7.1-1.6-1.4-1.5 1.4-4.3-6.6"/><path class="y" d="m263.2 97.8c-3.3 0-6.1-2.7-6.1-6.1 0-3.4 2.8-6.1 6.1-6.1 3.4 0 6.2 2.7 6.2 6.1 0 3.4-2.8 6.1-6.2 6.1z"/><path class="z" d="m264.3 97.8c-3.4 0-6.1-2.8-6.1-6.1 0-3.4 2.7-6.1 6.1-6.1 3.4 0 6.2 2.7 6.2 6.1 0 3.3-2.8 6.1-6.2 6.1z"/><path class="y" d="m259.2 91.7c0-2.8 2.3-5.1 5.1-5.1 2.8 0 5.1 2.3 5.1 5.1 0 2.8-2.3 5-5.1 5-2.8 0-5.1-2.2-5.1-5z"/><path class="y" d="m236.5 125.9c-3.4 0-6.2-2.7-6.2-6.1 0-3.4 2.8-6.1 6.2-6.1 3.4 0 6.1 2.7 6.1 6.1 0 3.4-2.7 6.1-6.1 6.1z"/><path class="z" d="m237.5 125.9c-3.3 0-6.1-2.8-6.1-6.1 0-3.4 2.8-6.1 6.1-6.1 3.4 0 6.2 2.7 6.2 6.1 0 3.3-2.8 6.1-6.2 6.1z"/><path class="y" d="m232.4 119.8c0-2.8 2.3-5.1 5.1-5.1 2.9 0 5.2 2.3 5.2 5.1 0 2.8-2.3 5.1-5.2 5.1-2.8 0-5.1-2.3-5.1-5.1z"/><path class="y" d="m319.5 46.8c-3.4 0-6.2-2.8-6.2-6.1 0-3.4 2.8-6.1 6.2-6.1 3.4 0 6.1 2.7 6.1 6.1 0 3.3-2.7 6.1-6.1 6.1z"/><path class="z" d="m320.6 46.7c-3.4 0-6.2-2.7-6.2-6.1 0-3.3 2.8-6 6.1-6 3.4 0 6.2 2.7 6.2 6 0 3.4-2.8 6.1-6.2 6.1z"/><path class="y" d="m315.4 40.6c0-2.8 2.3-5.1 5.2-5.1 2.8 0 5.1 2.3 5.1 5.1 0 2.8-2.3 5.1-5.1 5.1-2.9 0-5.2-2.3-5.2-5.1z"/><path class="u" d="m195.8 62.8q-0.1-1-1-1.6-0.8-0.5-2.1-0.6-0.9 0-1.6 0.3-0.7 0.3-1.1 0.8-0.4 0.5-0.4 1.2 0 0.6 0.3 0.9 0.3 0.4 0.7 0.7 0.4 0.3 0.9 0.4c0.3 0.1 0.5 0.2 0.8 0.3l1.4 0.3q0.5 0.2 1.2 0.4 0.7 0.3 1.3 0.7 0.6 0.4 1 1.1 0.4 0.7 0.4 1.6 0 1.1-0.6 2-0.6 0.9-1.7 1.4c-0.7 0.4-1.7 0.6-2.7 0.6q-1.5 0-2.6-0.5-1.1-0.5-1.7-1.3-0.6-0.9-0.7-2h1.7q0.1 0.8 0.6 1.3 0.4 0.5 1.1 0.7 0.8 0.3 1.6 0.3 0.9 0 1.7-0.4 0.7-0.3 1.2-0.8 0.4-0.6 0.4-1.3 0-0.7-0.4-1.1-0.4-0.5-1-0.7-0.6-0.3-1.4-0.5l-1.7-0.5q-1.6-0.4-2.5-1.3-1-0.9-1-2.2 0-1.2 0.6-2 0.7-0.9 1.8-1.4 1-0.4 2.3-0.4 1.4 0 2.4 0.4 1 0.5 1.7 1.3 0.6 0.8 0.6 1.8h-1.5zm-3.7 12v-17.1h1.1v17.1z"/><path class="u" d="m364.2 76l-0.4 0.8h-5.8l0.3-0.8zm-0.7 1.7l-0.4 0.9h-5.1l0.4-0.9zm1.8-4.1l-0.5 0.9q-0.2-0.3-0.6-0.4-0.3-0.2-0.6-0.3-0.4-0.1-0.8-0.1-0.7 0-1.3 0.4-0.6 0.4-1 1.2-0.3 0.8-0.3 2 0 1.1 0.3 1.9 0.4 0.8 1 1.3 0.6 0.4 1.3 0.4 0.4 0 0.8-0.1 0.3-0.1 0.6-0.3 0.3-0.2 0.6-0.4l0.4 0.9c-0.3 0.3-0.7 0.5-1.1 0.6q-0.6 0.3-1.3 0.3-1.1 0-1.9-0.6-0.8-0.6-1.3-1.6-0.5-1-0.5-2.5 0-1.4 0.5-2.4c0.3-0.7 0.7-1.3 1.3-1.6q0.8-0.6 1.9-0.6 0.7 0 1.4 0.3 0.6 0.2 1.1 0.7z"/></g></svg>