<svg xmlns="http://www.w3.org/2000/svg" xmlns:xlink="http://www.w3.org/1999/xlink" width="624" zoomAndPan="magnify" viewBox="0 0 468 308.250004" height="411" preserveAspectRatio="xMidYMid meet" version="1.0"><defs><clipPath id="id1"><path d="M 0.566406 0 L 467.429688 0 L 467.429688 307.5 L 0.566406 307.5 Z M 0.566406 0 " clip-rule="nonzero"/></clipPath><clipPath id="id2"><path d="M 307 133 L 397.835938 133 L 397.835938 250 L 307 250 Z M 307 133 " clip-rule="nonzero"/></clipPath><clipPath id="id3"><path d="M 292 209 L 382 209 L 382 307.5 L 292 307.5 Z M 292 209 " clip-rule="nonzero"/></clipPath><clipPath id="id4"><path d="M 70.132812 9 L 170 9 L 170 128 L 70.132812 128 Z M 70.132812 9 " clip-rule="nonzero"/></clipPath></defs><g clip-path="url(#id1)"><path fill="rgb(100%, 100%, 100%)" d="M 0.566406 0 L 467.433594 0 L 467.433594 307.5 L 0.566406 307.5 Z M 0.566406 0 " fill-opacity="1" fill-rule="nonzero"/><path fill="rgb(100%, 100%, 100%)" d="M 0.566406 0 L 467.433594 0 L 467.433594 307.5 L 0.566406 307.5 Z M 0.566406 0 " fill-opacity="1" fill-rule="nonzero"/><path fill="rgb(100%, 100%, 100%)" d="M 0.566406 0 L 467.433594 0 L 467.433594 307.5 L 0.566406 307.5 Z M 0.566406 0 " fill-opacity="1" fill-rule="nonzero"/></g><path stroke-linecap="butt" transform="matrix(2.022856, 0, 0, 2.023, 70.133893, 0.00301337)" fill-opacity="1" fill="rgb(17.248535%, 44.309998%, 94.119263%)" fill-rule="nonzero" stroke-linejoin="miter" d="M 14.188873 92.489544 L 17.591395 89.938799 L 19.933768 91.342577 L 20.955297 88.264692 L 22.432555 88.336136 L 24.209128 90.398358 L 25.997287 88.57557 L 26.064874 87.660314 L 27.741031 87.14669 L 28.281727 84.970544 L 27.698548 84.680906 L 28.50573 83.340848 L 30.26106 82.738401 L 30.367269 81.224561 L 33.397097 82.240224 L 33.14606 83.611177 L 34.015035 83.557111 L 34.926494 84.866274 L 37.288177 81.72853 L 39.309994 81.749771 L 40.580629 82.616753 L 41.154153 83.721239 L 40.766011 84.94158 L 42.812931 85.267905 L 43.309213 86.461214 L 45.948968 87.866923 L 49.803357 87.303094 L 49.981015 85.713948 L 51.294133 85.283353 L 54.014993 85.798908 L 55.789634 88.05036 L 54.710173 88.892241 L 55.279835 91.483535 L 58.402354 91.211275 L 57.935038 92.974204 L 58.514356 93.287013 L 58.462217 95.494054 L 59.311882 96.870799 L 57.220547 97.658614 L 56.237639 96.93452 L 55.247007 97.842052 L 55.808945 99.655185 L 54.827968 100.228668 L 55.175558 101.966495 L 53.40671 102.570873 L 53.348778 104.017132 L 52.410284 103.630948 L 52.157316 104.262358 L 52.871807 104.546203 L 51.774967 105.536765 L 52.078143 107.16453 L 51.079786 106.907718 L 50.591229 107.494717 L 51.197581 108.153161 L 50.083361 108.946768 L 50.660747 109.541492 L 50.44833 111.316006 L 48.457411 111.61723 L 47.34126 115.133434 L 45.755862 114.741457 L 45.11282 115.627749 L 44.292121 116.626034 L 45.099303 117.083662 L 45.703723 118.92769 L 46.595872 119.252085 L 46.989807 121.067149 L 46.528285 121.389612 L 46.169108 120.680965 L 44.075842 121.625184 L 41.602158 124.3053 L 39.868069 123.206607 L 39.489582 121.269895 L 37.53149 118.788664 L 36.689549 118.59171 L 36.336166 117.334682 L 35.034633 117.643629 L 33.700273 116.017795 L 35.559881 114.152527 L 36.322648 114.281898 L 37.657009 112.343255 L 36.031059 110.25207 L 34.302763 110.022291 L 33.54772 111.119053 L 32.199842 110.23083 L 30.956241 111.847009 L 30.35182 111.478204 L 30.913758 111.059194 L 30.409752 109.699827 L 28.351245 109.945054 L 27.619374 107.917589 L 25.871768 108.375216 L 21.609925 106.591047 L 20.57681 107.363415 L 20.466739 105.890123 L 19.033895 104.528825 L 18.989481 102.275442 L 18.417888 101.779196 L 17.346151 102.097798 L 17.309461 101.244332 L 16.676074 102.001252 L 15.588889 101.172887 L 14.376186 101.47218 L 14.105838 101.989666 L 14.961296 102.578597 L 14.638809 105.108101 L 11.794362 105.005762 L 14.032457 100.443 L 15.235506 95.52688 Z M 14.188873 92.489544 " stroke="rgb(100%, 100%, 100%)" stroke-width="0.5" stroke-opacity="1" stroke-miterlimit="4"/><path stroke-linecap="butt" transform="matrix(2.022856, 0, 0, 2.023, 70.133893, 0.00301337)" fill-opacity="1" fill="rgb(17.248535%, 44.309998%, 94.119263%)" fill-rule="nonzero" stroke-linejoin="miter" d="M 52.779116 36.964029 L 53.258018 34.463489 L 54.68507 33.403414 L 54.907141 34.355357 L 56.235708 34.044479 L 57.255306 34.733817 L 57.015855 33.965311 L 58.039316 33.917038 L 58.384975 31.576764 L 60.731209 31.02259 L 60.22141 29.674809 L 61.605978 29.811904 L 62.542541 30.700127 L 63.650967 29.11098 L 65.182295 30.172986 L 66.777349 30.1614 L 66.711693 31.304505 L 69.841936 31.704205 L 70.745671 31.221475 L 71.307608 32.546086 L 72.914248 31.466702 L 74.756476 31.343123 L 74.281436 32.868549 L 74.762269 33.872627 L 76.948226 34.156472 L 76.903811 34.633409 L 78.336656 34.13137 L 80.746615 34.444179 L 81.640694 34.84388 L 82.808984 39.205826 L 83.305265 39.563046 L 84.64735 38.912327 L 85.609016 40.240799 L 86.636339 40.039983 L 87.010964 41.009305 L 89.39775 40.808489 L 90.102586 42.810853 L 89.455682 43.801414 L 90.280243 43.994506 L 90.608523 45.983353 L 88.602155 47.060806 L 89.474993 49.457077 L 89.318577 51.185249 L 87.319933 50.273856 L 87.671385 51.069394 L 86.8951 51.704667 L 85.556878 51.445924 L 86.636339 53.678066 L 85.985573 53.624 L 85.224736 54.892614 L 86.804341 56.618856 L 86.837169 57.777408 L 85.491222 57.310125 L 85.643776 58.640529 L 84.328726 59.887903 L 85.166804 60.552139 L 83.591062 62.411614 L 84.743903 62.869242 L 83.515751 64.527902 L 82.691189 64.533694 L 83.083194 65.835134 L 81.808696 66.680877 L 81.972836 67.265945 L 81.65035 66.821834 L 79.195976 67.518896 L 77.208919 65.765621 L 77.058296 66.644189 L 74.536336 67.511172 L 73.402805 65.033802 L 70.840292 63.205222 L 68.683302 63.956349 L 68.358884 62.058256 L 66.653761 63.655126 L 65.751957 63.604922 L 65.624508 63.035301 L 63.969592 62.651048 L 64.019799 61.77248 L 62.301158 62.017707 L 62.426677 61.112105 L 61.256457 60.89005 L 60.511069 59.42062 L 59.182501 58.99968 L 58.821394 59.605988 L 58.715186 59.003542 L 57.365377 60.472971 L 56.612264 57.644174 L 54.880106 58.605772 L 54.047821 58.381786 L 54.298858 57.147928 L 52.978015 56.41611 L 53.064913 55.651466 L 54.57693 55.568436 L 54.810588 51.891966 L 51.363651 50.103935 L 52.157316 46.56456 L 52.782978 46.251751 L 51.941038 45.908047 L 51.678414 44.295729 L 53.118982 43.965542 L 53.507125 42.895813 L 51.92752 40.787249 L 50.780472 40.856762 L 50.469572 39.953092 Z M 52.779116 36.964029 " stroke="rgb(100%, 100%, 100%)" stroke-width="0.5" stroke-opacity="1" stroke-miterlimit="4"/><path stroke-linecap="butt" transform="matrix(2.022856, 0, 0, 2.023, 70.133893, 0.00301337)" fill-opacity="1" fill="rgb(17.248535%, 44.309998%, 94.119263%)" fill-rule="nonzero" stroke-linejoin="miter" d="M 83.083194 65.835134 L 84.112447 67.068991 L 86.60158 67.252429 L 89.119678 69.395749 L 92.222887 68.80875 L 92.892964 67.978454 L 94.121116 69.320443 L 94.953401 69.001842 L 95.804998 69.866893 L 96.268451 72.131862 L 98.840619 73.257588 L 98.64172 74.489514 L 97.74571 75.203954 L 98.946827 76.395331 L 98.263233 77.584778 L 99.379384 77.563538 L 99.501041 78.196879 L 101.281475 77.443821 L 102.488386 78.816704 L 103.455845 78.864977 L 104.297786 80.776587 L 103.301361 80.863479 L 103.710745 82.653441 L 104.913793 83.236578 L 104.915724 83.97419 L 104.311304 84.987922 L 101.851137 83.896953 L 100.644226 84.883653 L 101.885896 87.517426 L 101.607824 88.882586 L 102.913218 88.648945 L 103.052254 89.218566 L 101.250578 92.815869 L 100.34105 93.856634 L 100.319809 95.733488 L 98.547098 95.177383 L 98.243923 96.571507 L 94.511189 96.615918 L 94.221531 99.614636 L 95.441959 99.995027 L 94.974643 102.408676 L 92.50289 100.236392 L 91.743985 102.084281 L 91.975711 103.472612 L 90.448245 105.183407 L 89.252921 105.467252 L 89.156368 104.683299 L 87.885733 104.026786 L 86.427785 104.544273 L 85.077976 101.632446 L 84.112447 101.91243 L 83.614235 100.554993 L 82.596568 100.889042 L 82.001802 102.032147 L 77.658855 99.157008 L 76.57167 100.215152 L 73.115078 100.348385 L 71.807752 99.60305 L 71.245814 98.176101 L 70.309252 99.419613 L 69.919178 98.693587 L 65.049053 97.29174 L 65.433333 94.825956 L 64.315251 94.976568 L 63.828624 92.688428 L 65.728785 91.728761 L 65.553058 90.450493 L 67.700394 91.070318 L 68.575163 89.629852 L 68.144537 84.904893 L 69.067582 83.728963 L 69.496277 80.681972 L 70.52553 79.843953 L 70.724429 80.427091 L 73.478116 80.680041 L 75.10986 77.886001 L 74.047778 76.905094 L 73.833431 74.402623 L 75.693039 74.557096 L 75.918972 73.852311 L 77.297747 73.817554 L 77.311265 70.782149 L 79.871846 70.795666 L 80.051434 69.245137 L 78.937215 69.100318 L 79.195976 67.518896 L 81.65035 66.821834 L 81.972836 67.265945 L 81.806765 66.680877 Z M 83.083194 65.835134 " stroke="rgb(100%, 100%, 100%)" stroke-width="0.5" stroke-opacity="1" stroke-miterlimit="4"/><path fill="rgb(17.248535%, 44.309998%, 94.119263%)" d="M 362.257812 139.089844 L 363.769531 139.179688 L 364.59375 142.191406 L 370.691406 143.539062 L 371.660156 145.007812 L 374.128906 144.65625 L 373.691406 146.054688 L 375.65625 148.277344 L 377.273438 147.914062 L 379 149.847656 L 380.167969 154.507812 L 378.171875 156.734375 L 377.378906 162.382812 L 378.617188 164.484375 L 375.003906 168.183594 L 376.214844 178.277344 L 379.386719 180.628906 L 378.964844 182.851562 L 380.671875 184.226562 L 378.863281 190.804688 L 380.511719 190.804688 L 381.886719 194.816406 L 386.113281 198.050781 L 385.707031 200.675781 L 387.382812 201.996094 L 389.355469 208.277344 L 395.03125 212.492188 L 389.089844 215.273438 L 389.289062 217.257812 L 391.070312 217.742188 L 390.882812 219.882812 L 392.636719 220.058594 L 393.433594 224.332031 L 391.386719 234.011719 L 390.207031 235.730469 L 381.484375 236.921875 L 375.492188 243.945312 L 374.695312 241.585938 L 371.0625 241.15625 L 371.960938 238.898438 L 369.535156 235.695312 L 366.058594 238.363281 L 363.84375 236.457031 L 358.566406 241.945312 L 345.328125 240.894531 L 347.828125 238.527344 L 342.011719 239.121094 L 339.816406 236.308594 L 338.636719 236.507812 L 340.503906 234.546875 L 340.066406 233.175781 L 343.28125 233.613281 L 344.65625 232.3125 L 342.621094 232.070312 L 344.230469 231.527344 L 342.535156 230.855469 L 342.816406 227.355469 L 339.480469 227.097656 L 337.238281 225.132812 L 334.328125 224.878906 L 332.761719 222.667969 L 330.511719 222.566406 L 332.699219 218.03125 L 331.492188 215.824219 L 328.101562 214.824219 L 326.351562 216.617188 L 322.808594 217.199219 L 321.433594 215.503906 L 319.449219 202.359375 L 318.871094 195.734375 L 320.535156 190.890625 L 319.050781 190.710938 L 320.90625 187.585938 L 317.925781 185.210938 L 319.304688 183.832031 L 320.488281 184.363281 L 321.5625 181.386719 L 319.828125 176.742188 L 316.378906 176.804688 L 313.296875 173.976562 L 314.292969 171.8125 L 317.597656 174.300781 L 317.960938 172.796875 L 320.6875 172.507812 L 322.628906 169.960938 L 320.832031 166.9375 L 324.453125 164.503906 L 323.417969 162.375 L 321.324219 162.988281 L 320.890625 161.976562 L 322.808594 159.828125 L 322.210938 154.96875 L 327.058594 152.148438 L 329.871094 153.265625 L 330.679688 151.953125 L 334.324219 152.835938 L 335.820312 151.355469 L 336.898438 153.148438 L 339.324219 152.777344 L 341.773438 150.214844 L 345.796875 153.269531 L 347.300781 150.804688 L 346.625 149.371094 L 348.449219 147.628906 L 351.582031 149.96875 L 354.992188 150.144531 L 357.792969 144.605469 L 360.652344 144.808594 L 359.253906 142.554688 Z M 362.257812 139.089844 " fill-opacity="1" fill-rule="nonzero"/><g clip-path="url(#id2)"><path stroke-linecap="butt" transform="matrix(2.022856, 0, 0, 2.023, 70.133893, 0.00301337)" fill="none" stroke-linejoin="miter" d="M 144.411634 68.752753 L 145.158953 68.797164 L 145.566406 70.285903 L 148.580786 70.95207 L 149.059688 71.678096 L 150.280116 71.504313 L 150.063837 72.195582 L 151.035159 73.294275 L 151.834617 73.1147 L 152.688144 74.070505 L 153.26553 76.374091 L 152.27876 77.474715 L 151.886755 80.266825 L 152.4989 81.305659 L 150.712673 83.13424 L 151.3113 88.123735 L 152.879318 89.286148 L 152.670764 90.384842 L 153.514636 91.064525 L 152.620557 94.316193 L 153.435463 94.316193 L 154.115195 96.299247 L 156.204599 97.898048 L 156.003769 99.195626 L 156.832192 99.848277 L 157.807376 102.953195 L 160.613202 105.036657 L 157.676064 106.411471 L 157.774548 107.392378 L 158.65511 107.631812 L 158.562419 108.689956 L 159.429464 108.776848 L 159.8234 110.889273 L 158.811526 115.674091 L 158.228346 116.523696 L 153.916296 117.112626 L 150.954055 120.584419 L 150.560119 119.418144 L 148.764236 119.205743 L 149.208379 118.089671 L 148.009193 116.506317 L 146.290552 117.825135 L 145.195643 116.882847 L 142.586785 119.595788 L 136.042432 119.076371 L 137.278309 117.906234 L 134.402965 118.199734 L 133.317711 116.809472 L 132.734532 116.907949 L 133.657577 115.938627 L 133.441299 115.260874 L 135.030559 115.477137 L 135.710291 114.834141 L 134.70421 114.714424 L 135.499805 114.446027 L 134.661727 114.113908 L 134.800763 112.383805 L 133.15164 112.256364 L 132.043213 111.285112 L 130.604576 111.159602 L 129.830222 110.066702 L 128.717933 110.016498 L 129.799325 107.7747 L 129.202628 106.683731 L 127.526471 106.189416 L 126.661357 107.075708 L 124.909889 107.363415 L 124.230157 106.525396 L 123.24918 100.027852 L 122.963383 96.753013 L 123.786014 94.358673 L 123.052212 94.269851 L 123.969464 92.725116 L 122.496068 91.551117 L 123.177731 90.869502 L 123.762841 91.132107 L 124.293882 89.660747 L 123.436492 87.364884 L 121.731369 87.395778 L 120.207765 85.997793 L 120.700184 84.928064 L 122.333859 86.158059 L 122.513447 85.414655 L 123.861325 85.271767 L 124.82106 84.012808 L 123.932774 82.518276 L 125.722864 81.315314 L 125.211134 80.262963 L 124.176087 80.566117 L 123.96174 80.066009 L 124.909889 79.004003 L 124.614437 76.60194 L 127.010879 75.207816 L 128.40124 75.760059 L 128.800969 75.11127 L 130.602645 75.547658 L 131.34224 74.815839 L 131.875211 75.702131 L 133.074398 75.518694 L 134.285171 74.252011 L 136.274159 75.76199 L 137.017616 74.54358 L 136.683543 73.834932 L 137.585347 72.973742 L 139.134055 74.130363 L 140.819867 74.217254 L 142.204435 71.479211 L 143.617969 71.579619 L 142.926651 70.465478 Z M 144.411634 68.752753 " stroke="rgb(100%, 100%, 100%)" stroke-width="0.5" stroke-opacity="1" stroke-miterlimit="4"/></g><path stroke-linecap="butt" transform="matrix(2.022856, 0, 0, 2.023, 70.133893, 0.00301337)" fill-opacity="1" fill="rgb(17.248535%, 44.309998%, 94.119263%)" fill-rule="nonzero" stroke-linejoin="miter" d="M 8.237355 60.368701 L 8.764534 58.966854 L 9.996548 59.636883 L 10.589383 59.262285 L 11.439048 56.24812 L 12.479888 55.412032 L 12.273264 54.624217 L 13.290931 54.307546 L 12.754098 53.809369 L 13.285138 53.091067 L 15.913307 54.423401 L 19.821766 52.755087 L 19.257898 51.061671 L 20.447429 51.326207 L 23.456016 49.598034 L 24.946792 50.428329 L 25.634248 49.849053 L 26.263772 50.167655 L 28.23152 46.763444 L 30.355682 47.271276 L 29.963678 48.928005 L 30.179956 53.74951 L 28.849458 54.933164 L 29.52919 55.228594 L 29.697192 57.10931 L 27.430131 57.636451 L 27.144334 60.289534 L 28.996218 64.518247 L 27.617443 64.786645 L 29.069598 66.03595 L 28.212209 73.301999 L 29.32836 74.474067 L 30.251405 74.298353 L 29.911539 75.561174 L 30.865481 76.825926 L 32.541639 76.343197 L 32.771435 78.088748 L 32.194049 78.905526 L 33.779446 79.52149 L 34.499731 78.604303 L 35.28374 78.812842 L 36.710791 80.015805 L 37.288177 81.72853 L 34.928425 84.866274 L 34.015035 83.55518 L 33.147991 83.611177 L 33.399028 82.240224 L 30.3692 81.224561 L 30.26106 82.738401 L 28.507661 83.340848 L 27.698548 84.680906 L 28.281727 84.970544 L 27.741031 87.144759 L 26.064874 87.660314 L 25.997287 88.57557 L 24.209128 90.398358 L 22.432555 88.336136 L 20.957228 88.264692 L 19.933768 91.342577 L 17.591395 89.938799 L 14.190804 92.489544 L 13.83549 89.788187 L 10.299724 88.228005 L 10.740005 84.92034 L 8.088664 80.78238 L 9.739718 78.706642 L 10.763178 74.495307 L 9.529232 73.147525 L 10.040963 70.02716 L 8.104112 69.052045 L 7.175274 65.898854 L 8.789638 63.292113 Z M 8.237355 60.368701 " stroke="rgb(100%, 100%, 100%)" stroke-width="0.5" stroke-opacity="1" stroke-miterlimit="4"/><path stroke-linecap="butt" transform="matrix(2.022856, 0, 0, 2.023, 70.133893, 0.00301337)" fill-opacity="1" fill="rgb(17.248535%, 44.309998%, 94.119263%)" fill-rule="nonzero" stroke-linejoin="miter" d="M 93.613248 114.195007 L 94.2196 113.830063 L 98.763377 115.08323 L 99.838976 117.664869 L 99.184347 118.641914 L 100.290843 119.443246 L 99.879528 119.972318 L 101.072921 121.999783 L 105.228556 121.507398 L 107.014783 119.574548 L 107.752447 119.97811 L 108.675492 119.151677 L 111.303661 118.88521 L 112.518296 117.933267 L 113.190304 118.547299 L 113.707827 117.927474 L 113.864243 118.937345 L 112.701746 120.298643 L 113.192235 121.443678 L 112.806023 123.152542 L 113.317754 123.29543 L 112.856231 123.403561 L 113.67693 124.293715 L 112.871679 125.266898 L 113.528239 125.956236 L 112.850438 127.049137 L 113.360237 128.458708 L 115.125223 129.099773 L 114.11528 129.462786 L 114.070866 130.283426 L 112.601331 130.592374 L 112.889059 132.148694 L 115.391709 132.803276 L 116.042475 134.187745 L 115.553918 136.854345 L 117.069797 139.194619 L 116.70869 140.702667 L 114.775702 140.038431 L 113.723276 141.46538 L 112.385053 140.662118 L 111.22835 141.013545 L 112.052911 142.123823 L 109.270258 144.019986 L 108.225556 142.807369 L 107.161544 142.898122 L 106.246223 141.123607 L 104.272682 141.073403 L 103.608399 142.092929 L 101.943828 141.135193 L 99.781044 141.424831 L 99.462419 142.876882 L 97.971643 142.687652 L 96.791768 143.575875 L 95.77217 146.893194 L 93.553385 145.541551 L 92.406337 146.46453 L 91.064253 146.408533 L 90.722455 145.531896 L 91.618466 144.493061 L 91.106736 141.285804 L 89.942308 141.849633 L 88.544223 141.316699 L 88.716087 140.113736 L 87.796904 140.173595 L 86.924066 137.308111 L 85.956607 136.31948 L 86.172885 134.936942 L 84.614522 134.301669 L 85.819502 133.166289 L 85.643776 132.326339 L 83.743615 132.019323 L 83.226092 130.001512 L 81.295035 130.161779 L 81.576969 127.871708 L 79.783017 127.970185 L 81.125102 125.263036 L 82.138907 125.098908 L 82.43629 123.490452 L 82.596568 123.986699 L 82.872709 123.25488 L 83.948307 123.102338 L 84.002377 122.113707 L 85.161011 121.669596 L 85.338669 121.11156 L 83.438508 119.506966 L 84.330657 118.806042 L 86.315783 118.703704 L 85.786674 117.431228 L 86.526269 117.556738 L 86.939515 116.353775 L 92.047161 115.830496 L 92.811859 114.973168 L 93.958907 114.93648 Z M 93.613248 114.195007 " stroke="rgb(100%, 100%, 100%)" stroke-width="0.5" stroke-opacity="1" stroke-miterlimit="4"/><path stroke-linecap="butt" transform="matrix(2.022856, 0, 0, 2.023, 70.133893, 0.00301337)" fill-opacity="1" fill="rgb(17.248535%, 44.309998%, 94.119263%)" fill-rule="nonzero" stroke-linejoin="miter" d="M 90.608523 45.983353 L 91.960263 46.18803 L 91.786468 45.145334 L 93.122759 44.355588 L 93.053241 45.400215 L 94.142357 46.126241 L 96.034793 45.612616 L 96.66818 46.195754 L 99.468213 46.381122 L 100.603674 45.709162 L 100.429879 44.483029 L 101.696652 43.504053 L 103.249222 44.058226 L 104.900276 43.357303 L 105.883184 41.729538 L 107.993829 42.25861 L 108.339489 41.46114 L 109.169843 41.520998 L 109.335914 40.451269 L 111.22835 41.123229 L 114.752529 38.54159 L 116.148683 38.811919 L 117.56801 37.635989 L 119.918106 37.230496 L 121.271777 40.254315 L 120.777427 41.204328 L 122.109856 41.7334 L 121.032326 41.60789 L 120.872049 43.05801 L 120.333284 42.961464 L 121.345158 44.31697 L 121.474538 46.386915 L 122.078959 47.112941 L 123.256904 46.970053 L 124.205053 48.400864 L 125.367549 48.120881 L 125.363687 48.982071 L 124.691679 48.796702 L 124.409745 49.742853 L 126.765635 51.577226 L 126.211421 52.135262 L 126.935568 53.801645 L 129.7356 53.595037 L 129.803187 52.847771 L 130.594921 52.880597 L 130.726232 53.824816 L 131.222514 53.716685 L 130.253124 54.214862 L 130.832441 55.757666 L 131.626105 56.271291 L 132.448735 55.284591 L 133.572611 55.495061 L 133.719371 59.026713 L 132.597427 60.200711 L 134.729314 62.585397 L 134.482138 63.624231 L 135.565461 65.950989 L 137.583416 65.972229 L 137.946455 66.677015 L 138.313355 66.186561 L 139.869787 66.850797 L 141.489944 66.54185 L 143.019341 67.704264 L 143.154515 68.74696 L 144.081423 68.322158 L 144.413565 68.752753 L 142.928582 70.465478 L 143.617969 71.579619 L 142.206366 71.479211 L 140.819867 74.217254 L 139.137917 74.130363 L 137.585347 72.973742 L 136.683543 73.834932 L 137.019547 74.54358 L 136.27609 75.76199 L 134.287102 74.252011 L 133.076329 75.518694 L 131.877142 75.702131 L 131.34224 74.815839 L 130.602645 75.547658 L 128.8029 75.11127 L 128.40124 75.760059 L 127.010879 75.207816 L 124.616368 76.60194 L 124.91182 79.004003 L 123.963671 80.066009 L 124.176087 80.564186 L 125.211134 80.261032 L 125.724795 81.315314 L 123.934705 82.518276 L 124.822991 84.012808 L 123.863256 85.271767 L 122.513447 85.414655 L 122.333859 86.158059 L 120.702116 84.928064 L 120.207765 85.997793 L 121.7333 87.395778 L 123.436492 87.364884 L 124.295813 89.660747 L 123.764772 91.132107 L 123.177731 90.869502 L 122.49993 91.551117 L 123.971395 92.725116 L 123.052212 94.269851 L 123.787945 94.358673 L 122.963383 96.753013 L 123.251111 100.027852 L 122.418825 100.769325 L 120.142109 99.828968 L 118.514228 100.27501 L 117.772702 101.410391 L 115.986474 99.570224 L 112.807954 99.684149 L 112.98175 98.458015 L 111.819253 97.820812 L 112.276914 96.994378 L 111.693735 96.295385 L 111.305592 97.739713 L 110.343926 98.058315 L 108.710252 97.41725 L 108.105831 98.533321 L 105.883184 97.367046 L 105.377247 97.938598 L 105.562629 96.780046 L 104.08537 95.501778 L 103.251153 95.756659 L 102.328108 93.794845 L 102.671836 93.035994 L 101.250578 92.815869 L 103.052254 89.218566 L 102.913218 88.648945 L 101.607824 88.880655 L 101.885896 87.517426 L 100.644226 84.883653 L 101.853068 83.895022 L 104.313235 84.987922 L 104.917656 83.97419 L 104.913793 83.236578 L 103.710745 82.653441 L 103.301361 80.863479 L 104.297786 80.776587 L 103.455845 78.864977 L 102.488386 78.816704 L 101.283406 77.443821 L 99.502972 78.196879 L 99.379384 77.563538 L 98.263233 77.584778 L 98.948758 76.395331 L 97.74571 75.202023 L 98.64172 74.489514 L 98.840619 73.257588 L 96.268451 72.131862 L 95.804998 69.866893 L 94.953401 69.001842 L 94.121116 69.320443 L 92.892964 67.978454 L 92.222887 68.80875 L 89.119678 69.395749 L 86.603511 67.252429 L 84.114378 67.068991 L 83.083194 65.835134 L 82.691189 64.533694 L 83.515751 64.527902 L 84.743903 62.867311 L 83.591062 62.409683 L 85.166804 60.552139 L 84.328726 59.887903 L 85.643776 58.640529 L 85.491222 57.310125 L 86.837169 57.777408 L 86.804341 56.618856 L 85.224736 54.890683 L 85.985573 53.624 L 86.636339 53.678066 L 85.556878 51.445924 L 86.8951 51.704667 L 87.671385 51.069394 L 87.318002 50.273856 L 89.318577 51.183318 L 89.474993 49.455146 L 88.602155 47.060806 Z M 90.608523 45.983353 " stroke="rgb(100%, 100%, 100%)" stroke-width="0.5" stroke-opacity="1" stroke-miterlimit="4"/><path stroke-linecap="butt" transform="matrix(2.022856, 0, 0, 2.023, 70.133893, 0.00301337)" fill-opacity="1" fill="rgb(17.248535%, 44.309998%, 94.119263%)" fill-rule="nonzero" stroke-linejoin="miter" d="M 59.311882 96.870799 L 60.122926 97.280154 L 59.638231 98.685863 L 60.677139 99.079771 L 65.049053 97.29174 L 69.919178 98.693587 L 70.309252 99.419613 L 71.243883 98.176101 L 71.805821 99.60305 L 73.113147 100.348385 L 73.592049 101.211506 L 72.365828 102.73307 L 72.477829 105.142858 L 70.651049 106.816965 L 71.776855 108.17247 L 70.303459 109.271163 L 71.014088 111.229115 L 72.089686 111.694467 L 72.166929 113.075074 L 69.438345 113.198653 L 70.183733 115.328457 L 68.553921 114.712493 L 68.783717 117.09911 L 68.206331 117.904303 L 69.307033 120.609521 L 68.125226 120.35464 L 66.263687 121.430162 L 66.472242 121.88972 L 63.482965 122.403345 L 63.654829 124.033041 L 63.033029 125.141388 L 62.556058 125.813348 L 63.195238 125.867414 L 63.206824 126.641713 L 62.55992 126.309595 L 60.402929 127.441113 L 58.914084 126.259391 L 57.989108 124.135379 L 56.899992 124.004077 L 55.986602 122.8127 L 58.626357 121.634839 L 57.983315 118.788664 L 57.494757 118.614881 L 56.324537 120.149962 L 54.434032 119.927906 L 53.549608 120.505251 L 52.690288 119.729022 L 52.151523 120.18858 L 52.116764 118.601365 L 51.058544 118.819559 L 49.778254 117.16283 L 45.11282 115.627749 L 45.755862 114.741457 L 47.34126 115.133434 L 48.457411 111.61723 L 50.450262 111.316006 L 50.660747 109.541492 L 50.083361 108.946768 L 51.197581 108.153161 L 50.591229 107.494717 L 51.079786 106.907718 L 52.078143 107.16453 L 51.774967 105.536765 L 52.873738 104.546203 L 52.157316 104.262358 L 52.410284 103.630948 L 53.348778 104.017132 L 53.40671 102.570873 L 55.175558 101.966495 L 54.827968 100.228668 L 55.808945 99.655185 L 55.247007 97.842052 L 56.237639 96.93452 L 57.220547 97.658614 Z M 59.311882 96.870799 " stroke="rgb(100%, 100%, 100%)" stroke-width="0.5" stroke-opacity="1" stroke-miterlimit="4"/><path fill="rgb(17.248535%, 44.309998%, 94.119263%)" d="M 321.433594 215.507812 L 322.808594 217.199219 L 326.351562 216.617188 L 328.101562 214.824219 L 331.492188 215.824219 L 332.699219 218.03125 L 330.511719 222.566406 L 332.761719 222.667969 L 334.328125 224.878906 L 337.234375 225.132812 L 339.480469 227.097656 L 342.816406 227.355469 L 342.535156 230.855469 L 344.230469 231.527344 L 342.621094 232.070312 L 344.65625 232.3125 L 343.28125 233.613281 L 340.066406 233.175781 L 340.503906 234.546875 L 338.636719 236.507812 L 339.816406 236.308594 L 342.011719 239.121094 L 347.828125 238.527344 L 345.328125 240.894531 L 358.566406 241.945312 L 363.84375 236.457031 L 366.058594 238.363281 L 369.535156 235.695312 L 371.960938 238.898438 L 371.0625 241.160156 L 374.695312 241.585938 L 375.492188 243.945312 L 367.023438 251.253906 L 346.425781 279.828125 L 348.273438 281.636719 L 349.851562 288.15625 L 348.839844 294.625 L 349.871094 295.375 L 348.601562 297.359375 L 350.152344 296.992188 L 349.621094 298.167969 L 354.472656 301.226562 L 354.464844 305.59375 L 353.089844 305.847656 L 350.605469 303.351562 L 347.753906 304.035156 L 344.714844 301.226562 L 339.367188 301.097656 L 337.601562 298.878906 L 333.03125 298.453125 L 332.964844 296.957031 L 327.304688 295.296875 L 324.496094 288.878906 L 320.570312 286.75 L 318.910156 288.558594 L 313.84375 283.925781 L 308.714844 285.621094 L 306.21875 284.644531 L 306.949219 281.59375 L 303.882812 276.859375 L 304.871094 271.464844 L 303.554688 268.664062 L 298.492188 267.339844 L 297.910156 264.191406 L 300.882812 263.566406 L 300.972656 261.90625 L 303.011719 261.171875 L 299.445312 259.875 L 298.414062 257.023438 L 299.78125 254.8125 L 298.457031 253.417969 L 300.085938 251.449219 L 298.421875 249.648438 L 299.359375 249.429688 L 298.320312 249.140625 L 299.105469 245.683594 L 298.113281 243.367188 L 300.464844 240.613281 L 300.148438 238.570312 L 303.527344 235.15625 L 307.828125 233.410156 L 307.910156 231.652344 L 312.753906 230.347656 L 315.140625 225.769531 L 317.832031 223.550781 L 318.84375 224.101562 Z M 321.433594 215.507812 " fill-opacity="1" fill-rule="nonzero"/><g clip-path="url(#id3)"><path stroke-linecap="butt" transform="matrix(2.022856, 0, 0, 2.023, 70.133893, 0.00301337)" fill="none" stroke-linejoin="miter" d="M 124.230157 106.527327 L 124.909889 107.363415 L 126.661357 107.075708 L 127.526471 106.189416 L 129.202628 106.683731 L 129.799325 107.7747 L 128.717933 110.016498 L 129.830222 110.066702 L 130.604576 111.159602 L 132.041282 111.285112 L 133.15164 112.256364 L 134.800763 112.383805 L 134.661727 114.113908 L 135.499805 114.446027 L 134.70421 114.714424 L 135.710291 114.834141 L 135.030559 115.477137 L 133.441299 115.260874 L 133.657577 115.938627 L 132.734532 116.907949 L 133.317711 116.809472 L 134.402965 118.199734 L 137.278309 117.906234 L 136.042432 119.076371 L 142.586785 119.595788 L 145.195643 116.882847 L 146.290552 117.825135 L 148.009193 116.506317 L 149.208379 118.089671 L 148.764236 119.207673 L 150.560119 119.418144 L 150.954055 120.584419 L 146.767523 124.197169 L 136.585059 138.321843 L 137.498449 139.215859 L 138.278596 142.438563 L 137.778453 145.636166 L 138.288252 146.006902 L 137.660658 146.987809 L 138.427288 146.806303 L 138.164664 147.387509 L 140.563037 148.899419 L 140.559175 151.058187 L 139.879443 151.183697 L 138.65129 149.949839 L 137.241619 150.28775 L 135.739256 148.899419 L 133.095639 148.835699 L 132.222802 147.738937 L 129.963465 147.528466 L 129.930637 146.788924 L 127.132535 145.968284 L 125.744105 142.795783 L 123.803393 141.743432 L 122.982694 142.637448 L 120.478113 140.347378 L 117.942635 141.185397 L 116.70869 140.702667 L 117.069797 139.194619 L 115.553918 136.854345 L 116.042475 134.187745 L 115.391709 132.803276 L 112.889059 132.148694 L 112.601331 130.592374 L 114.070866 130.283426 L 114.11528 129.462786 L 115.123292 129.099773 L 113.360237 128.458708 L 112.850438 127.049137 L 113.526308 125.956236 L 112.871679 125.266898 L 113.67693 124.293715 L 112.8543 123.403561 L 113.317754 123.29543 L 112.804092 123.152542 L 113.192235 121.443678 L 112.701746 120.298643 L 113.864243 118.937345 L 113.707827 117.927474 L 115.378191 116.239851 L 117.504285 115.37673 L 117.544837 114.507816 L 119.939348 113.862889 L 121.119224 111.599852 L 122.449722 110.503089 L 122.949866 110.775349 Z M 124.230157 106.527327 " stroke="rgb(100%, 100%, 100%)" stroke-width="0.5" stroke-opacity="1" stroke-miterlimit="4"/></g><path stroke-linecap="butt" transform="matrix(2.022856, 0, 0, 2.023, 70.133893, 0.00301337)" fill-opacity="1" fill="rgb(17.248535%, 44.309998%, 94.119263%)" fill-rule="nonzero" stroke-linejoin="miter" d="M 140.14786 12.140131 L 142.44968 12.846847 L 142.185125 13.408745 L 143.245275 13.90306 L 142.953685 14.65805 L 143.733832 15.131125 L 144.58736 14.692806 L 146.025997 16.191199 L 147.669327 16.449943 L 150.052251 19.147437 L 150.716535 21.508951 L 149.978871 23.304706 L 151.044814 29.502957 L 155.051758 42.812783 L 156.924883 45.869429 L 156.198805 47.893032 L 157.380612 51.115736 L 156.903641 51.66991 L 157.255094 57.595901 L 154.007056 60.366771 L 152.469934 60.374494 L 149.826317 61.766687 L 145.160884 68.797164 L 144.411634 68.752753 L 144.079492 68.322158 L 143.154515 68.748891 L 143.019341 67.704264 L 141.489944 66.54185 L 139.869787 66.850797 L 138.313355 66.186561 L 137.946455 66.677015 L 137.583416 65.972229 L 135.565461 65.950989 L 134.482138 63.624231 L 134.729314 62.585397 L 132.597427 60.200711 L 133.719371 59.028643 L 133.572611 55.495061 L 132.448735 55.284591 L 131.624174 56.271291 L 130.832441 55.757666 L 130.253124 54.214862 L 131.222514 53.718615 L 130.726232 53.824816 L 130.594921 52.880597 L 129.803187 52.847771 L 129.7356 53.595037 L 126.935568 53.801645 L 126.211421 52.135262 L 126.765635 51.577226 L 124.409745 49.744784 L 124.691679 48.796702 L 125.363687 48.984001 L 125.365618 48.120881 L 124.205053 48.400864 L 123.256904 46.970053 L 122.077028 47.112941 L 121.474538 46.386915 L 121.345158 44.31697 L 120.333284 42.961464 L 120.872049 43.05801 L 121.032326 41.60789 L 122.109856 41.7334 L 120.777427 41.204328 L 121.271777 40.254315 L 119.918106 37.230496 L 121.352882 36.90417 L 124.129742 37.834874 L 125.133891 36.477437 L 126.186317 36.129872 L 126.7946 36.761282 L 132.049007 32.519053 L 133.074398 31.831646 L 133.842958 32.306652 L 133.696198 31.443531 L 135.667807 30.418213 L 136.023122 30.870048 L 136.362988 29.852453 L 137.805487 29.178562 L 139.056812 26.556374 L 138.865638 25.227902 L 136.160227 21.642185 L 136.546438 20.491357 L 135.866706 19.189917 L 135.146422 19.317358 L 133.929856 17.76876 L 134.619243 16.627587 L 136.563818 15.581029 L 138.726602 15.328079 L 138.921638 13.364334 Z M 140.14786 12.140131 " stroke="rgb(100%, 100%, 100%)" stroke-width="0.5" stroke-opacity="1" stroke-miterlimit="4"/><path stroke-linecap="butt" transform="matrix(2.022856, 0, 0, 2.023, 70.133893, 0.00301337)" fill-opacity="1" fill="rgb(17.248535%, 44.309998%, 94.119263%)" fill-rule="nonzero" stroke-linejoin="miter" d="M 67.21763 0.407865 L 73.190389 3.964619 L 75.613865 6.179383 L 75.418829 7.115879 L 73.733016 4.530378 L 69.231722 1.724752 L 68.783717 3.33707 L 70.015731 4.308322 L 69.988696 6.022979 L 70.745671 5.793199 L 71.545128 8.276361 L 70.56222 8.409595 L 71.41961 8.805433 L 71.502645 10.910135 L 72.49907 11.997243 L 74.065158 12.221229 L 73.5206 12.389219 L 74.209987 13.066972 L 76.814983 13.835478 L 77.539129 13.290959 L 78.489209 13.88182 L 81.800972 13.65011 L 85.220874 12.833331 L 88.801054 11.022129 L 85.014251 13.298682 L 82.038492 14.123185 L 82.642913 15.810808 L 83.612304 17.535119 L 82.463325 18.48127 L 82.005664 21.350616 L 83.16816 21.879688 L 83.172023 22.818114 L 85.066389 23.289259 L 85.029699 24.922816 L 87.924354 24.293337 L 86.138126 29.253868 L 85.580051 28.415849 L 83.521544 28.348267 L 83.264713 30.078371 L 82.03463 31.393327 L 81.992147 32.74497 L 80.630752 33.669881 L 80.748546 34.434525 L 78.336656 34.119785 L 76.903811 34.623755 L 76.948226 34.146818 L 74.7642 33.861042 L 74.281436 32.856964 L 74.758407 31.333468 L 72.914248 31.455116 L 71.307608 32.532569 L 70.747602 31.207959 L 69.843867 31.690688 L 66.711693 31.290988 L 66.775417 30.151746 L 65.184227 30.1614 L 63.652898 29.101326 L 62.540609 30.690472 L 61.604047 29.800318 L 60.219479 29.663223 L 60.729278 31.009074 L 58.383044 31.563248 L 58.039316 33.905453 L 57.013924 33.953726 L 57.255306 34.722232 L 56.237639 34.029032 L 54.909072 34.33991 L 54.687001 33.389897 L 53.259949 34.44611 L 52.781047 36.948582 L 50.384606 35.770721 L 48.067337 35.542872 L 46.539871 36.214832 L 46.545664 35.351711 L 45.732689 35.502323 L 44.832817 32.466918 L 44.267017 30.066785 L 45.643861 28.666869 L 44.483295 27.803748 L 44.49102 26.82091 L 46.055176 26.67416 L 46.265661 25.780145 L 44.577917 24.82627 L 44.010186 23.262226 L 43.222315 23.739163 L 43.41349 20.054969 L 41.986439 17.413471 L 44.380949 15.505723 L 43.452111 13.263926 L 44.158878 13.08435 L 44.048808 11.074263 L 42.17182 7.74922 L 44.919714 7.040573 L 50.687782 3.209629 L 61.743083 0.541099 Z M 67.21763 0.407865 " stroke="rgb(100%, 100%, 100%)" stroke-width="0.5" stroke-opacity="1" stroke-miterlimit="4"/><path stroke-linecap="butt" transform="matrix(2.022856, 0, 0, 2.023, 70.133893, 0.00301337)" fill-opacity="1" fill="rgb(17.248535%, 44.309998%, 94.119263%)" fill-rule="nonzero" stroke-linejoin="miter" d="M 73.115078 100.348385 L 76.569739 100.215152 L 77.658855 99.157008 L 81.999871 102.032147 L 82.596568 100.889042 L 83.614235 100.554993 L 84.112447 101.91243 L 85.077976 101.632446 L 86.427785 104.544273 L 87.885733 104.026786 L 89.156368 104.683299 L 89.252921 105.467252 L 90.448245 105.183407 L 91.828951 106.247343 L 90.486867 107.94076 L 89.731823 107.736082 L 90.106448 108.776848 L 91.971849 108.989249 L 92.516407 109.441084 L 92.105092 110.317721 L 93.184553 110.481849 L 91.025631 112.949564 L 92.829239 113.324162 L 93.613248 114.195007 L 93.958907 114.93648 L 92.811859 114.973168 L 92.047161 115.830496 L 86.939515 116.353775 L 86.526269 117.556738 L 85.786674 117.431228 L 86.317714 118.703704 L 84.330657 118.806042 L 83.438508 119.506966 L 85.338669 121.11156 L 85.161011 121.669596 L 84.004308 122.113707 L 83.948307 123.102338 L 82.87464 123.25488 L 82.596568 123.986699 L 82.438221 123.490452 L 82.138907 125.098908 L 81.125102 125.263036 L 79.783017 127.970185 L 81.576969 127.871708 L 81.295035 130.161779 L 83.226092 130.001512 L 83.745546 132.019323 L 85.645707 132.326339 L 85.821433 133.166289 L 84.614522 134.301669 L 86.172885 134.936942 L 85.956607 136.31948 L 84.230242 138.184748 L 82.654499 138.29288 L 81.55959 141.225946 L 78.139688 141.635301 L 78.014169 138.984149 L 75.845592 138.501419 L 75.372483 134.738057 L 72.468174 133.612331 L 71.626233 128.709727 L 70.293803 129.138391 L 67.812395 128.035836 L 67.578737 128.866132 L 65.786716 126.811634 L 64.338424 126.900456 L 63.033029 125.141388 L 63.654829 124.033041 L 63.482965 122.403345 L 66.474173 121.88972 L 66.263687 121.430162 L 68.125226 120.35464 L 69.307033 120.609521 L 68.206331 117.904303 L 68.785648 117.09911 L 68.555852 114.712493 L 70.183733 115.328457 L 69.438345 113.198653 L 72.16886 113.075074 L 72.089686 111.694467 L 71.014088 111.229115 L 70.303459 109.271163 L 71.778786 108.174401 L 70.651049 106.816965 L 72.47976 105.142858 L 72.365828 102.73307 L 73.592049 101.211506 Z M 73.115078 100.348385 " stroke="rgb(100%, 100%, 100%)" stroke-width="0.5" stroke-opacity="1" stroke-miterlimit="4"/><path stroke-linecap="butt" transform="matrix(2.022856, 0, 0, 2.023, 70.133893, 0.00301337)" fill-opacity="1" fill="rgb(17.248535%, 44.309998%, 94.119263%)" fill-rule="nonzero" stroke-linejoin="miter" d="M 101.250578 92.815869 L 102.669905 93.035994 L 102.326177 93.794845 L 103.249222 95.756659 L 104.083439 95.501778 L 105.560698 96.780046 L 105.375316 97.938598 L 105.881253 97.368977 L 108.105831 98.533321 L 108.70832 97.41725 L 110.343926 98.058315 L 111.305592 97.739713 L 111.691804 96.295385 L 112.274983 96.994378 L 111.817322 97.820812 L 112.98175 98.458015 L 112.804092 99.684149 L 115.984543 99.570224 L 117.770771 101.410391 L 118.512297 100.27501 L 120.140178 99.828968 L 122.416894 100.769325 L 123.24918 100.027852 L 124.230157 106.525396 L 122.949866 110.775349 L 122.449722 110.503089 L 121.119224 111.597921 L 119.939348 113.862889 L 117.544837 114.507816 L 117.502354 115.37673 L 115.378191 116.239851 L 113.707827 117.927474 L 113.190304 118.547299 L 112.518296 117.933267 L 111.30173 118.88521 L 108.675492 119.151677 L 107.752447 119.97811 L 107.014783 119.574548 L 105.228556 121.507398 L 101.072921 121.999783 L 99.879528 119.972318 L 100.290843 119.443246 L 99.184347 118.641914 L 99.837045 117.664869 L 98.763377 115.08323 L 94.2196 113.830063 L 93.613248 114.195007 L 92.829239 113.324162 L 91.0237 112.949564 L 93.184553 110.481849 L 92.105092 110.317721 L 92.514476 109.441084 L 91.971849 108.989249 L 90.104517 108.776848 L 89.729892 107.736082 L 90.486867 107.94076 L 91.82702 106.247343 L 90.446314 105.183407 L 91.97378 103.472612 L 91.743985 102.084281 L 92.500959 100.236392 L 94.972712 102.408676 L 95.440028 99.995027 L 94.2196 99.614636 L 94.509258 96.615918 L 98.243923 96.571507 L 98.547098 95.177383 L 100.319809 95.733488 L 100.339119 93.856634 Z M 101.250578 92.815869 " stroke="rgb(100%, 100%, 100%)" stroke-width="0.5" stroke-opacity="1" stroke-miterlimit="4"/><path stroke-linecap="butt" transform="matrix(2.022856, 0, 0, 2.023, 70.133893, 0.00301337)" fill-opacity="1" fill="rgb(17.248535%, 44.309998%, 94.119263%)" fill-rule="nonzero" stroke-linejoin="miter" d="M 91.998884 11.410243 L 117.519734 14.717908 L 138.921638 13.364334 L 138.726602 15.328079 L 136.563818 15.581029 L 134.619243 16.627587 L 133.927925 17.76876 L 135.146422 19.317358 L 135.866706 19.189917 L 136.544507 20.491357 L 136.160227 21.642185 L 138.863707 25.227902 L 139.054881 26.556374 L 137.805487 29.178562 L 136.361057 29.852453 L 136.023122 30.870048 L 135.667807 30.418213 L 133.696198 31.443531 L 133.842958 32.304721 L 133.074398 31.831646 L 132.049007 32.519053 L 126.7946 36.761282 L 126.186317 36.129872 L 125.133891 36.477437 L 124.129742 37.834874 L 121.352882 36.90417 L 119.918106 37.230496 L 117.566079 37.635989 L 116.148683 38.81385 L 114.752529 38.54159 L 111.226419 41.123229 L 109.335914 40.451269 L 109.169843 41.520998 L 108.339489 41.46114 L 107.993829 42.25861 L 105.883184 41.731469 L 104.900276 43.357303 L 103.247291 44.058226 L 101.694721 43.504053 L 100.429879 44.483029 L 100.601743 45.709162 L 99.468213 46.381122 L 96.66818 46.195754 L 96.034793 45.612616 L 94.142357 46.126241 L 93.05131 45.402146 L 93.122759 44.355588 L 91.786468 45.145334 L 91.958332 46.18803 L 90.606592 45.983353 L 90.280243 43.994506 L 89.453751 43.801414 L 90.102586 42.810853 L 89.39775 40.808489 L 87.010964 41.009305 L 86.636339 40.039983 L 85.609016 40.240799 L 84.64735 38.912327 L 83.305265 39.563046 L 82.808984 39.205826 L 81.640694 34.84388 L 80.746615 34.444179 L 80.630752 33.677604 L 81.992147 32.752694 L 82.03463 31.401051 L 83.266644 30.084164 L 83.525406 28.355991 L 85.580051 28.423573 L 86.140057 29.259661 L 87.924354 24.297199 L 85.03163 24.928609 L 85.068321 23.293121 L 83.172023 22.820045 L 83.170091 21.883549 L 82.005664 21.354478 L 82.463325 18.483201 L 83.614235 17.533188 L 82.646775 15.81467 L 84.460038 16.083068 L 84.909974 15.571374 L 84.481279 17.311133 L 86.379508 14.561504 L 89.175679 13.58832 L 90.4019 11.499066 Z M 91.998884 11.410243 " stroke="rgb(100%, 100%, 100%)" stroke-width="0.5" stroke-opacity="1" stroke-miterlimit="4"/><path stroke-linecap="butt" transform="matrix(2.022856, 0, 0, 2.023, 70.133893, 0.00301337)" fill-opacity="1" fill="rgb(17.248535%, 44.309998%, 94.119263%)" fill-rule="nonzero" stroke-linejoin="miter" d="M 44.830886 32.486227 L 45.726896 35.521632 L 46.543733 35.367159 L 46.53794 36.23028 L 48.061544 35.55832 L 50.380743 35.786168 L 52.779116 36.964029 L 50.467641 39.953092 L 50.778541 40.856762 L 51.92752 40.787249 L 53.505194 42.895813 L 53.118982 43.965542 L 51.678414 44.295729 L 51.939106 45.908047 L 52.781047 46.251751 L 52.157316 46.56456 L 51.36172 50.103935 L 54.810588 51.891966 L 54.574999 55.568436 L 53.062982 55.653397 L 52.978015 56.41611 L 54.298858 57.147928 L 54.047821 58.381786 L 54.878175 58.607703 L 56.612264 57.644174 L 57.365377 60.472971 L 58.713254 59.003542 L 58.821394 59.605988 L 59.182501 58.99968 L 60.509137 59.42062 L 61.254525 60.89005 L 62.426677 61.112105 L 62.301158 62.017707 L 64.017868 61.77248 L 63.969592 62.651048 L 65.624508 63.035301 L 65.751957 63.604922 L 66.653761 63.655126 L 68.358884 62.058256 L 68.683302 63.956349 L 70.840292 63.205222 L 73.400874 65.033802 L 74.536336 67.511172 L 77.056365 66.644189 L 77.208919 65.765621 L 79.195976 67.518896 L 78.935283 69.100318 L 80.049503 69.245137 L 79.871846 70.795666 L 77.309333 70.782149 L 77.297747 73.817554 L 75.918972 73.852311 L 75.691108 74.557096 L 73.833431 74.402623 L 74.047778 76.905094 L 75.107928 77.886001 L 73.478116 80.680041 L 70.724429 80.427091 L 70.52553 79.843953 L 69.496277 80.681972 L 69.067582 83.728963 L 68.144537 84.904893 L 68.575163 89.629852 L 67.698463 91.070318 L 65.553058 90.450493 L 65.728785 91.728761 L 63.826693 92.688428 L 64.31332 94.976568 L 65.433333 94.827887 L 65.049053 97.29174 L 60.677139 99.079771 L 59.640162 98.685863 L 60.122926 97.280154 L 59.311882 96.870799 L 58.462217 95.494054 L 58.514356 93.287013 L 57.935038 92.974204 L 58.402354 91.211275 L 55.281766 91.483535 L 54.710173 88.892241 L 55.791565 88.05036 L 54.014993 85.798908 L 51.294133 85.283353 L 49.981015 85.713948 L 49.803357 87.303094 L 45.950899 87.866923 L 43.309213 86.461214 L 42.812931 85.267905 L 40.766011 84.94158 L 41.156084 83.721239 L 40.580629 82.616753 L 39.309994 81.749771 L 37.288177 81.72853 L 36.710791 80.015805 L 35.28374 78.812842 L 34.499731 78.604303 L 33.779446 79.52149 L 32.192117 78.905526 L 32.771435 78.088748 L 32.541639 76.343197 L 30.865481 76.825926 L 29.911539 75.561174 L 30.251405 74.298353 L 29.32836 74.474067 L 28.210278 73.301999 L 29.069598 66.03788 L 27.617443 64.786645 L 28.996218 64.518247 L 27.144334 60.291465 L 27.430131 57.636451 L 29.695261 57.10931 L 29.52919 55.228594 L 28.849458 54.933164 L 30.179956 53.74951 L 29.963678 48.928005 L 32.4335 49.814297 L 35.590778 48.889386 L 37.071899 45.268913 L 38.730677 45.131817 L 39.497306 43.594806 L 40.744769 44.139325 L 40.592215 42.714307 L 41.876368 41.658094 L 38.164877 39.574632 L 37.728458 37.354075 L 40.943668 37.074091 L 42.09844 36.129872 L 42.592791 33.432378 L 43.720528 32.856964 L 44.025635 33.341624 Z M 44.830886 32.486227 " stroke="rgb(100%, 100%, 100%)" stroke-width="0.5" stroke-opacity="1" stroke-miterlimit="4"/><path fill="rgb(17.248535%, 44.309998%, 94.119263%)" d="M 77.425781 54.765625 L 79.957031 55.058594 L 78.390625 57.472656 L 76.515625 54.773438 Z M 78.097656 54.132812 L 79.007812 54.902344 L 77.523438 54.890625 Z M 75.453125 51.226562 L 76.410156 51.136719 L 75.351562 52.496094 L 78.3125 57.515625 L 74.28125 54.289062 L 73.390625 51.769531 Z M 91.832031 48.855469 L 90.101562 49.804688 L 90.328125 48.179688 Z M 92.160156 45.9375 L 89.832031 47.34375 L 89.863281 50.449219 L 86.421875 57.875 L 85.742188 55.125 L 81.191406 54.410156 L 81.484375 52.292969 L 76.753906 54.683594 L 75.679688 52.667969 L 76.59375 51.292969 L 80.234375 51.523438 L 83.46875 49.042969 Z M 155.4375 15.714844 L 159.234375 22.441406 L 159.457031 26.511719 L 158.027344 26.875 L 159.90625 31.40625 L 155.0625 35.269531 L 157.949219 40.609375 L 157.5625 48.0625 L 159.15625 47.101562 L 160.300781 50.261719 L 163.71875 52.195312 L 163.289062 54.003906 L 160.128906 54.296875 L 160.113281 56.289062 L 162.460938 58.03125 L 159.671875 60.867188 L 160.820312 65.722656 L 159.191406 67.453125 L 158.574219 66.472656 L 156.300781 67.636719 L 155.292969 73.101562 L 152.960938 75.003906 L 146.453125 75.570312 L 147.339844 80.054688 L 154.84375 84.269531 L 152.246094 86.40625 L 152.558594 89.289062 L 150.035156 88.183594 L 148.480469 91.292969 L 145.128906 91.570312 L 142.136719 98.902344 L 135.742188 100.765625 L 130.746094 98.980469 L 131.539062 95.625 L 127.242188 94.601562 L 123.265625 101.488281 L 121.992188 100.839844 L 120.59375 102.019531 L 117.582031 100.332031 L 111.492188 103.828125 L 109.085938 103.296875 L 110.222656 106.722656 L 102.324219 110.097656 L 97.007812 107.398438 L 95.929688 108.855469 L 97.011719 109.863281 L 94.960938 110.503906 L 95.375 112.097656 L 93.273438 113.789062 L 91.554688 119.886719 L 90.359375 120.648438 L 87.871094 119.292969 L 86.800781 122.128906 L 74.453125 110.976562 L 71.375 109.820312 L 72.597656 107.351562 L 72.066406 103.257812 L 78.519531 98.386719 L 79.5625 90.484375 L 81.839844 87.074219 L 77.328125 71.867188 L 76.632812 61.042969 L 80.585938 64.5 L 83.679688 65.144531 L 86.714844 69.058594 L 87.421875 65.792969 L 85.855469 65.71875 L 84.824219 63.183594 L 85.707031 59.90625 L 87.296875 59.644531 L 88.453125 52.707031 L 90.785156 50.285156 L 91.921875 51.121094 L 93.402344 45.367188 L 90.882812 45.777344 L 109.210938 38.949219 L 135.132812 32.054688 L 140.515625 27.753906 L 148.925781 17.386719 Z M 155.4375 15.714844 " fill-opacity="1" fill-rule="nonzero"/><g clip-path="url(#id4)"><path stroke-linecap="butt" transform="matrix(2.022856, 0, 0, 2.023, 70.133893, 0.00301337)" fill="none" stroke-linejoin="miter" d="M 3.60475 27.069999 L 4.856074 27.214818 L 4.081721 28.408126 L 3.154813 27.07386 Z M 3.936891 26.75719 L 4.386828 27.137581 L 3.653026 27.131788 Z M 2.629566 25.320586 L 3.102675 25.276175 L 2.579358 25.948135 L 4.043099 28.429366 L 2.050249 26.834426 L 1.609968 25.588984 Z M 10.726488 24.148518 L 9.87103 24.617731 L 9.983031 23.814469 Z M 10.888697 22.706121 L 9.737787 23.401252 L 9.753235 24.936333 L 8.051974 28.60701 L 7.71597 27.247643 L 5.466288 26.894285 L 5.611118 25.847727 L 3.272608 27.029449 L 2.741567 26.033095 L 3.193434 25.353411 L 4.99318 25.467336 L 6.592095 24.241202 Z M 42.169889 7.766599 L 44.046876 11.091642 L 44.156947 13.10366 L 43.45018 13.283235 L 44.379018 15.523101 L 41.984508 17.432781 L 43.411559 20.072347 L 43.220384 23.756541 L 44.008255 23.281535 L 44.574055 24.843649 L 46.26373 25.799454 L 46.051314 26.693469 L 44.489089 26.838288 L 44.481364 27.823057 L 45.64193 28.684247 L 44.263155 30.086095 L 44.830886 32.486227 L 44.025635 33.341624 L 43.720528 32.856964 L 42.596653 33.432378 L 42.09844 36.133734 L 40.945599 37.074091 L 37.728458 37.354075 L 38.166808 39.57077 L 41.876368 41.654232 L 40.592215 42.710445 L 40.7467 44.135463 L 39.499237 43.589013 L 38.730677 45.126025 L 37.07383 45.26312 L 35.59464 48.887455 L 32.4335 49.808504 L 29.963678 48.926074 L 30.355682 47.267414 L 28.23152 46.761513 L 26.265704 50.165724 L 25.636179 49.845191 L 24.944861 50.428329 L 23.456016 49.594172 L 20.445498 51.322345 L 19.255967 51.05974 L 19.817904 52.753156 L 15.913307 54.42147 L 13.285138 53.087205 L 12.752167 53.807438 L 13.287069 54.305615 L 12.273264 54.622286 L 12.477956 55.410101 L 11.439048 56.246189 L 10.589383 59.260354 L 9.998479 59.636883 L 8.768396 58.966854 L 8.239286 60.368701 L 2.135215 54.855927 L 0.613542 54.284375 L 1.217963 53.064034 L 0.955339 51.04043 L 4.145445 48.632574 L 4.661038 44.726324 L 5.786844 43.040632 L 3.556473 35.523563 L 3.212745 30.172986 L 5.166975 31.881849 L 6.696372 32.200451 L 8.196803 34.135232 L 8.546324 32.520984 L 7.771971 32.484296 L 7.262171 31.23113 L 7.69859 29.611088 L 8.484531 29.481717 L 9.056123 26.052404 L 10.208964 24.855234 L 10.770902 25.268451 L 11.502773 22.424207 L 10.257241 22.626953 L 19.31776 19.251706 L 32.132255 15.843634 L 34.793251 13.717692 L 38.950817 8.593032 Z M 42.169889 7.766599 " stroke="rgb(100%, 100%, 100%)" stroke-width="0.5" stroke-opacity="1" stroke-miterlimit="4"/></g></svg>