<svg xmlns="http://www.w3.org/2000/svg" xmlns:xlink="http://www.w3.org/1999/xlink" width="411" zoomAndPan="magnify" viewBox="0 0 308.25 262.500001" height="350" preserveAspectRatio="xMidYMid meet" version="1.0"><defs><clipPath id="id1"><path d="M 0 0.0703125 L 307.5 0.0703125 L 307.5 261.933594 L 0 261.933594 Z M 0 0.0703125 " clip-rule="nonzero"/></clipPath><clipPath id="id2"><path d="M 157 0.0703125 L 225.253906 0.0703125 L 225.253906 77 L 157 77 Z M 157 0.0703125 " clip-rule="nonzero"/></clipPath><clipPath id="id3"><path d="M 97 215 L 193 215 L 193 261.933594 L 97 261.933594 Z M 97 215 " clip-rule="nonzero"/></clipPath><clipPath id="id4"><path d="M 102 0.0703125 L 167 0.0703125 L 167 47 L 102 47 Z M 102 0.0703125 " clip-rule="nonzero"/></clipPath><clipPath id="id5"><path d="M 131 0.0703125 L 203 0.0703125 L 203 72 L 131 72 Z M 131 0.0703125 " clip-rule="nonzero"/></clipPath></defs><g clip-path="url(#id1)"><path fill="rgb(100%, 100%, 100%)" d="M 0 0.0703125 L 307.5 0.0703125 L 307.5 261.933594 L 0 261.933594 Z M 0 0.0703125 " fill-opacity="1" fill-rule="nonzero"/><path fill="rgb(100%, 100%, 100%)" d="M 0 0.0703125 L 307.5 0.0703125 L 307.5 261.933594 L 0 261.933594 Z M 0 0.0703125 " fill-opacity="1" fill-rule="nonzero"/><path fill="rgb(100%, 100%, 100%)" d="M 0 0.0703125 L 307.5 0.0703125 L 307.5 261.933594 L 0 261.933594 Z M 0 0.0703125 " fill-opacity="1" fill-rule="nonzero"/></g><path stroke-linecap="butt" transform="matrix(6.045784, 0, 0, 6.04155, -748.120827, -6.06504)" fill-opacity="1" fill="rgb(17.248535%, 44.309998%, 94.119263%)" fill-rule="nonzero" stroke-linejoin="miter" d="M 144.947938 10.858173 L 145.506824 10.862699 L 145.690966 10.651919 L 145.904829 10.906665 L 146.085094 10.739205 L 145.919043 10.660324 L 145.959748 10.549115 L 146.147766 10.636401 L 146.198163 10.543296 L 146.578077 10.981667 L 146.516696 10.551055 L 146.844921 10.649979 L 147.184129 10.316999 L 147.376024 10.437906 L 147.54789 10.507089 L 147.522691 10.779292 L 147.757876 10.906665 L 147.701018 11.041797 L 148.208216 11.17111 L 148.478936 10.915071 L 148.491212 11.094815 L 148.214031 11.427796 L 148.402049 12.110568 L 148.232122 12.26251 L 147.991768 12.117033 L 147.845101 12.284494 L 147.58601 12.129318 L 147.432236 12.203673 L 147.54789 12.460359 L 147.319166 13.035801 L 146.939899 13.179338 L 146.97802 13.41986 L 147.1641 13.571156 L 147.180252 14.058019 L 147.49297 14.215781 L 147.091089 14.383888 L 147.240987 14.864285 L 147.463249 15.098988 L 146.917285 15.309121 L 147.032293 15.682835 L 146.793878 15.953099 L 146.786124 16.30095 L 146.775787 16.466471 L 146.474699 16.427677 L 146.446916 16.66238 L 146.196225 16.714751 L 146.160043 17.034154 L 145.71681 16.939109 L 145.676751 16.728976 L 145.964271 16.730916 L 145.988177 16.145128 L 145.838925 15.83995 L 145.406031 16.024221 L 145.391816 15.48434 L 145.13531 15.311061 L 145.006088 15.805682 L 144.827761 15.787578 L 144.055012 15.020107 L 144.259183 14.167289 L 144.186172 13.989483 L 144.706938 12.254105 Z M 144.947938 10.858173 " stroke="rgb(100%, 100%, 100%)" stroke-width="0.5" stroke-opacity="1" stroke-miterlimit="4"/><path stroke-linecap="butt" transform="matrix(6.045784, 0, 0, 6.04155, -748.120827, -6.06504)" fill-opacity="1" fill="rgb(17.248535%, 44.309998%, 94.119263%)" fill-rule="nonzero" stroke-linejoin="miter" d="M 148.011798 33.118732 L 148.708952 33.050196 L 148.999702 33.284899 L 149.179967 33.132956 L 150.089046 33.670251 L 150.598182 33.712924 L 151.168698 34.086638 L 151.390314 34.011637 L 152.263857 34.181683 L 152.276133 34.034267 L 152.82985 33.545464 L 152.846003 33.292657 L 153.170997 33.284899 L 153.291174 33.110973 L 153.607768 33.028213 L 153.883012 33.577792 L 154.228035 33.712924 L 154.171178 33.894609 L 154.421869 34.4138 L 154.753324 34.185563 L 154.903222 34.337505 L 155.849775 33.926937 L 155.63785 34.361428 L 155.745105 34.472637 L 155.518966 34.880619 L 155.427864 35.523304 L 155.142929 35.5899 L 154.81212 35.351318 L 154.622163 35.466406 L 154.669976 35.666195 L 154.33529 35.76124 L 154.151148 35.67654 L 153.764774 35.86663 L 153.855875 36.068358 L 153.632321 36.759535 L 153.371292 37.18756 L 152.752963 37.644035 L 152.612111 38.401808 L 152.225736 38.880912 L 152.170817 39.510665 L 151.776689 39.488682 L 151.496923 39.785455 L 151.131224 39.674246 L 150.558769 39.819723 L 149.979853 40.221886 L 149.753068 40.244516 L 149.64969 40.486977 L 149.174798 40.466287 L 149.017793 40.70293 L 149.121171 40.818018 L 148.641756 41.169749 L 147.858023 40.987418 L 147.30689 40.625989 L 147.290737 40.32081 L 147.020017 40.212188 L 146.961221 40.335035 L 146.393935 40.367363 L 146.183949 40.708749 L 145.77496 40.692585 L 145.424122 40.432019 L 145.130787 40.507021 L 144.982182 40.717154 L 144.823884 40.51478 L 144.381944 40.559392 L 144.279212 40.266499 L 143.982001 40.17792 L 144.047904 39.458294 L 143.832103 38.924878 L 144.045966 38.00611 L 143.876039 37.724855 L 144.002031 37.157172 L 144.109285 37.2742 L 144.369022 37.195966 L 144.701123 37.688647 L 144.843914 37.56774 L 145.123034 37.720976 L 145.314929 37.660199 L 145.336897 37.318813 L 145.557221 37.185621 L 145.63217 36.884322 L 146.289265 36.743371 L 146.950883 36.9354 L 146.9231 36.779578 L 147.151177 36.517073 L 147.188006 35.75736 L 147.025832 35.492915 L 146.738958 35.527183 L 146.448208 35.117262 L 146.581953 34.775229 L 146.742835 34.866395 L 146.932792 34.450007 L 147.204159 34.581906 L 147.246156 34.197847 L 147.531091 34.256685 L 147.653852 34.068535 L 148.232122 33.894609 L 148.23406 33.553223 Z M 148.011798 33.118732 " stroke="rgb(100%, 100%, 100%)" stroke-width="0.5" stroke-opacity="1" stroke-miterlimit="4"/><path stroke-linecap="butt" transform="matrix(6.045784, 0, 0, 6.04155, -748.120827, -6.06504)" fill-opacity="1" fill="rgb(17.248535%, 44.309998%, 94.119263%)" fill-rule="nonzero" stroke-linejoin="miter" d="M 148.734796 4.047912 L 148.666309 4.549 L 148.299317 5.157416 L 148.82396 5.058492 L 149.130863 5.193624 L 149.077882 5.886741 L 149.817679 6.017993 L 150.012159 5.787817 L 150.268019 6.143427 L 149.944963 6.664558 L 149.740792 6.650333 L 149.681996 6.856587 L 149.455857 6.953572 L 149.225841 7.823847 L 148.864019 8.301012 L 148.643695 8.094758 L 148.509304 8.211786 L 148.296733 8.094758 L 148.004044 7.609834 L 147.69908 7.51285 L 147.288153 7.872339 L 147.228065 8.112861 L 147.041985 8.026222 L 146.98125 7.809623 L 146.547063 7.936996 L 146.609736 7.775355 L 146.512819 7.746906 L 146.309294 7.927297 L 146.152935 7.819968 L 145.862185 7.880745 L 145.752992 8.072774 L 145.165031 8.112861 L 145.166969 7.686776 L 145.292961 7.611774 L 144.913048 7.446254 L 144.787056 7.230301 L 144.5887 7.256164 L 144.1151 7.009823 L 143.894776 5.811739 L 144.232046 5.793636 L 144.615836 5.569278 L 144.907233 5.650098 L 144.956983 5.45225 L 145.205736 5.624236 L 145.376956 5.551174 L 145.469996 5.714755 L 145.61214 5.650098 L 145.568851 5.377248 L 145.732963 5.240177 L 145.860247 4.73715 L 146.116753 4.789521 L 146.667886 4.466239 L 147.105304 4.54318 L 147.182837 4.37572 L 147.32692 4.458481 L 148.007921 4.058257 L 148.462137 4.144897 Z M 148.734796 4.047912 " stroke="rgb(100%, 100%, 100%)" stroke-width="0.5" stroke-opacity="1" stroke-miterlimit="4"/><path fill="rgb(17.248535%, 44.309998%, 94.119263%)" d="M 199.351562 9.628906 L 200.558594 9.898438 L 201.253906 11.984375 L 202.1875 12.328125 L 206.238281 12.179688 L 207.519531 10.75 L 209.011719 11.9375 L 208.183594 15.085938 L 210.316406 15.695312 L 208.269531 22.296875 L 209.3125 25.542969 L 210.941406 26.742188 L 213.066406 25.3125 L 218.550781 26.496094 L 222.910156 30.976562 L 220.261719 34.089844 L 220.527344 34.796875 L 218.425781 37.382812 L 218.636719 38.457031 L 217.355469 39.398438 L 217.953125 40.667969 L 215.179688 40.714844 L 215.667969 42.007812 L 214.1875 42.59375 L 213.320312 44.78125 L 211.429688 45.488281 L 211.757812 46.28125 L 211.0625 46.78125 L 210.050781 46.292969 L 208.171875 48.160156 L 207.386719 47.332031 L 207.070312 47.929688 L 205.203125 47.722656 L 202.855469 51.554688 L 200.582031 53.480469 L 201.121094 55.042969 L 199.003906 58.488281 L 194.285156 58.851562 L 191.949219 59.070312 L 187.710938 56.253906 L 188.40625 53.933594 L 186.613281 53.335938 L 187.113281 51.210938 L 185.316406 53.921875 L 182.003906 52.957031 L 179.894531 53.238281 L 177.839844 52.8125 L 176.570312 50.394531 L 174.972656 49.601562 L 175.65625 47.683594 L 176.691406 47.878906 L 176.535156 45.769531 L 177.671875 44.839844 L 177.15625 44.304688 L 179.503906 43.082031 L 177.695312 41.730469 L 177.550781 37.859375 L 180.125 36.625 L 180.6875 34.003906 L 182.804688 33.636719 L 181.652344 30.121094 L 183.582031 23.910156 L 184.996094 22.238281 L 185.035156 20.941406 L 183.523438 18.671875 L 183.898438 15.292969 L 184.949219 13.253906 L 184.484375 10.507812 L 186.183594 9.554688 L 188.261719 10.445312 L 188.859375 11.667969 L 191.398438 11.628906 L 192.433594 10.421875 L 193.78125 11.9375 L 195.796875 12.179688 L 198.523438 11.863281 Z M 199.351562 9.628906 " fill-opacity="1" fill-rule="nonzero"/><g clip-path="url(#id2)"><path stroke-linecap="butt" transform="matrix(6.045784, 0, 0, 6.04155, -748.120827, -6.06504)" fill="none" stroke-linejoin="miter" d="M 156.71621 2.597669 L 156.915859 2.642282 L 157.030867 2.987547 L 157.185287 3.044445 L 157.855305 3.019875 L 158.067229 2.783233 L 158.314044 2.979788 L 158.177068 3.500919 L 158.529845 3.601783 L 158.191283 4.694476 L 158.363794 5.231771 L 158.633223 5.430267 L 158.984707 5.193624 L 159.891848 5.389533 L 160.612908 6.131142 L 160.174845 6.646454 L 160.21878 6.763482 L 159.871172 7.191507 L 159.906062 7.369313 L 159.694138 7.525135 L 159.792993 7.735268 L 159.334254 7.743027 L 159.415018 7.957039 L 159.170141 8.054024 L 159.026705 8.4161 L 158.713987 8.533128 L 158.76826 8.664381 L 158.653252 8.747141 L 158.485909 8.66632 L 158.17513 8.975378 L 158.045261 8.838306 L 157.992926 8.937231 L 157.684085 8.902963 L 157.295772 9.537242 L 156.919735 9.855998 L 157.008899 10.114624 L 156.658706 10.684894 L 155.878204 10.745024 L 155.491829 10.781232 L 154.790798 10.315059 L 154.905806 9.931 L 154.609241 9.832076 L 154.691943 9.480345 L 154.394732 9.92906 L 153.84683 9.769359 L 153.49793 9.815911 L 153.158075 9.745436 L 152.948089 9.345213 L 152.683829 9.21396 L 152.796899 8.896497 L 152.968118 8.928825 L 152.942274 8.579681 L 153.130292 8.425798 L 153.045005 8.337219 L 153.433318 8.134845 L 153.134169 7.911133 L 153.110263 7.270388 L 153.53605 7.066074 L 153.62909 6.632229 L 153.979283 6.571452 L 153.78868 5.989545 L 154.107859 4.961507 L 154.341751 4.684778 L 154.348212 4.470119 L 154.098167 4.094465 L 154.160194 3.535187 L 154.333998 3.19768 L 154.25711 2.743146 L 154.538169 2.585384 L 154.8819 2.732801 L 154.980755 2.935175 L 155.400728 2.92871 L 155.571947 2.728921 L 155.794856 2.979788 L 156.128249 3.019875 L 156.579235 2.967503 Z M 156.71621 2.597669 " stroke="rgb(100%, 100%, 100%)" stroke-width="0.5" stroke-opacity="1" stroke-miterlimit="4"/></g><path stroke-linecap="butt" transform="matrix(6.045784, 0, 0, 6.04155, -748.120827, -6.06504)" fill-opacity="1" fill="rgb(17.248535%, 44.309998%, 94.119263%)" fill-rule="nonzero" stroke-linejoin="miter" d="M 150.450222 17.440196 L 151.255923 17.074241 L 151.557011 16.6585 L 152.013812 16.706993 L 152.332991 16.064308 L 153.240131 16.173577 L 153.351262 15.931116 L 153.57094 15.886503 L 153.715023 15.955039 L 153.694994 16.460005 L 153.318957 16.906781 L 153.406182 17.01605 L 153.908856 17.201614 L 154.085245 16.971437 L 154.412177 17.116914 L 154.726833 16.650095 L 154.907098 17.034154 L 155.350977 16.93717 L 155.75092 17.21002 L 155.675325 17.369721 L 155.35873 17.476404 L 155.305103 18.155296 L 155.484722 18.415862 L 155.818116 18.415862 L 156.30916 19.24993 L 156.035855 19.981194 L 156.055885 20.422151 L 155.522843 20.923238 L 155.590038 21.234235 L 155.341285 22.076708 L 154.47485 22.219599 L 153.835846 22.107097 L 153.313142 22.32111 L 151.986029 22.132959 L 151.374161 22.470466 L 151.15513 22.254514 L 150.952897 22.357317 L 150.832074 22.714867 L 150.624026 22.755601 L 150.178209 23.175221 L 150.269957 22.903017 L 149.924934 22.343093 L 149.605755 22.092872 L 149.331157 22.151063 L 149.251686 21.458593 L 149.123109 21.597604 L 148.82396 21.437903 L 148.712829 21.536827 L 148.690861 22.064424 L 148.568746 22.173693 L 148.708952 22.515079 L 148.201755 22.565511 L 147.553059 22.286842 L 147.600225 21.393937 L 147.511061 21.181217 L 147.366979 21.264624 L 147.242279 21.048025 L 147.242279 21.042206 L 147.304952 20.656207 L 147.721048 20.585731 L 147.872238 20.332925 L 148.108714 20.300596 L 148.303194 19.896494 L 148.3271 19.775586 L 148.53321 19.789811 L 148.511242 19.637868 L 148.849804 19.676662 L 148.860142 19.476227 L 148.951244 19.589376 L 148.973858 19.43808 L 149.294975 19.538944 L 149.360878 19.328811 L 149.687165 19.326871 L 149.598001 19.07859 L 149.926872 18.868457 L 150.284818 19.054021 L 150.297094 18.767593 L 150.226021 18.715221 L 150.419855 18.63828 L 150.50708 18.818025 L 150.770693 18.470173 L 150.279003 17.84042 Z M 150.450222 17.440196 " stroke="rgb(100%, 100%, 100%)" stroke-width="0.5" stroke-opacity="1" stroke-miterlimit="4"/><path stroke-linecap="butt" transform="matrix(6.045784, 0, 0, 6.04155, -748.120827, -6.06504)" fill-opacity="1" fill="rgb(17.248535%, 44.309998%, 94.119263%)" fill-rule="nonzero" stroke-linejoin="miter" d="M 144.058242 15.016227 L 144.832284 15.783699 L 145.009318 15.801803 L 145.139187 15.307181 L 145.393108 15.48046 L 145.409261 16.019695 L 145.840217 15.836071 L 145.988823 16.141249 L 145.966855 16.727036 L 145.679982 16.725096 L 145.720041 16.93523 L 146.160689 17.030275 L 146.196871 16.710872 L 146.448208 16.656561 L 146.475991 16.421858 L 146.777079 16.460652 L 146.786771 16.294485 L 147.149239 16.371426 L 147.460019 16.66238 L 147.83024 16.49492 L 148.204985 16.57962 L 149.227779 15.979608 L 150.154949 15.199852 L 150.357182 15.543177 L 150.03025 15.781759 L 150.047695 15.904607 L 150.355244 15.979608 L 150.304201 16.444488 L 150.602704 16.591904 L 150.308078 16.791693 L 150.171102 17.141484 L 150.450222 17.440196 L 150.27771 17.84042 L 150.770693 18.47082 L 150.505788 18.818025 L 150.419209 18.63828 L 150.224729 18.715221 L 150.295802 18.767593 L 150.284172 19.054667 L 149.926226 18.868457 L 149.596709 19.07859 L 149.685872 19.326871 L 149.360878 19.328811 L 149.294329 19.538944 L 148.973212 19.43808 L 148.951244 19.590022 L 148.860142 19.476874 L 148.849804 19.676662 L 148.50995 19.638515 L 148.53321 19.789811 L 148.325808 19.775586 L 148.301902 19.896494 L 148.214677 19.848002 L 148.35876 19.585496 L 148.066071 19.167816 L 148.142958 18.74561 L 147.918112 18.605952 L 147.721694 18.916949 L 147.514292 18.791516 L 147.299783 18.973847 L 147.158931 19.272559 L 147.335319 19.44002 L 147.277815 19.687007 L 147.058137 19.444545 L 146.676286 19.98184 L 146.452085 19.915244 L 146.638165 19.718689 L 146.342892 19.129022 L 146.337077 19.369544 L 146.143244 19.202084 L 145.931319 19.464589 L 145.729086 19.478813 L 145.623124 19.773647 L 145.475811 19.116737 L 145.285854 19.121263 L 145.137248 19.414157 L 144.958921 19.430321 L 144.971198 19.258335 L 144.750874 19.100573 L 144.171312 19.010054 L 143.952926 19.24605 L 143.518093 19.155531 L 143.357211 18.981606 L 143.563321 18.207668 L 143.25771 17.791927 Z M 144.058242 15.016227 " stroke="rgb(100%, 100%, 100%)" stroke-width="0.5" stroke-opacity="1" stroke-miterlimit="4"/><path stroke-linecap="butt" transform="matrix(6.045784, 0, 0, 6.04155, -748.120827, -6.06504)" fill-opacity="1" fill="rgb(17.248535%, 44.309998%, 94.119263%)" fill-rule="nonzero" stroke-linejoin="miter" d="M 147.607978 27.688886 L 147.666128 27.76324 L 147.945248 27.416035 L 148.398172 27.399871 L 148.292856 27.553107 L 148.403987 27.838242 L 148.612035 27.456122 L 148.973212 27.737378 L 148.918938 28.068419 L 149.541143 27.791689 L 149.851923 28.332864 L 150.401764 28.436314 L 150.642117 28.334803 L 150.764878 28.082643 L 150.987787 28.300535 L 151.080181 28.161524 L 151.372869 28.308941 L 151.586086 27.963675 L 151.98086 27.846001 L 151.913018 27.646212 L 152.037718 27.5169 L 152.55073 27.876389 L 152.46609 28.189973 L 152.743271 28.373597 L 152.860218 28.819726 L 152.734872 28.826192 L 152.94292 29.205725 L 153.346739 29.185682 L 153.362892 29.011756 L 153.877843 28.828132 L 154.116904 28.963264 L 153.957315 29.359607 L 154.14081 29.613707 L 153.782865 29.840005 L 153.702747 30.533121 L 153.886889 30.65015 L 153.433965 31.544994 L 153.390029 31.834009 L 153.525066 31.797801 L 153.534758 31.904484 L 153.298927 32.17992 L 153.656227 32.311173 L 154.480019 33.476282 L 154.753324 34.185563 L 154.421869 34.4138 L 154.171178 33.894609 L 154.228035 33.712924 L 153.88172 33.577792 L 153.607768 33.028213 L 153.291174 33.110973 L 153.170997 33.284899 L 152.846003 33.292657 L 152.82985 33.545464 L 152.276133 34.034267 L 152.263857 34.181683 L 151.390314 34.011637 L 151.168698 34.086638 L 150.598182 33.712924 L 150.089046 33.670251 L 149.179321 33.132956 L 148.999702 33.284899 L 148.708952 33.050196 L 148.011798 33.118732 L 147.799873 32.935107 L 147.343072 32.845882 L 147.293322 32.701051 L 147.003864 32.694586 L 147.250032 32.371303 L 147.135025 32.272379 L 147.250032 32.260094 L 146.999987 32.171515 L 147.080105 31.99565 L 146.707299 31.287015 L 146.023713 31.523011 L 145.842156 31.272791 L 145.743301 31.310938 L 145.831818 31.502968 L 145.689027 31.567624 L 145.391816 31.268265 L 144.982828 31.25598 L 144.893018 30.747134 L 145.864124 29.906601 L 145.802097 29.74108 L 145.928735 29.532887 L 145.572727 29.514783 L 145.868 29.157233 L 146.059895 29.258097 L 146.317048 28.939341 L 146.452085 29.02986 L 146.651733 28.757656 L 146.881749 28.900547 L 147.012263 28.735026 L 147.082043 28.852055 L 147.14084 28.664551 L 147.460019 29.066714 L 147.642222 28.977488 L 147.752707 29.223829 L 147.953002 29.209605 L 147.927157 29.313055 L 148.157173 29.438488 L 148.259905 29.189561 L 148.100961 29.056369 L 148.040227 29.163699 L 147.863838 28.912832 L 148.04798 28.676189 L 147.324981 28.341269 Z M 147.607978 27.688886 " stroke="rgb(100%, 100%, 100%)" stroke-width="0.5" stroke-opacity="1" stroke-miterlimit="4"/><path fill="rgb(17.248535%, 44.309998%, 94.119263%)" d="M 159.796875 257.808594 L 160.46875 257.929688 L 158.085938 259.808594 Z M 155.277344 257.722656 L 158.050781 259.773438 L 155.941406 259.492188 L 153.886719 257.980469 Z M 160.066406 256.953125 L 160.519531 257.394531 L 158.554688 257.96875 Z M 144.128906 254.023438 L 141.566406 254.550781 L 138.964844 253.132812 L 136.214844 253.914062 L 132.40625 252.351562 L 129.285156 252.109375 L 127.417969 252.890625 L 127.308594 254.234375 L 125.023438 253.867188 L 118.566406 255.988281 L 116.5 258.347656 L 115.886719 256.820312 L 114.605469 256.953125 L 118.210938 250.070312 L 117.636719 248.570312 L 119.871094 245.078125 L 119.1875 242.566406 L 122.339844 236.679688 L 124.132812 237.21875 L 124.757812 238.988281 L 127.429688 238.71875 L 128.386719 239.941406 L 129.285156 238.671875 L 131.058594 238.21875 L 133.171875 239.792969 L 135.640625 239.902344 L 136.910156 237.839844 L 140.34375 237.644531 L 140.695312 236.902344 L 142.320312 237.558594 L 142.429688 239.402344 L 145.765625 241.601562 L 150.496094 242.6875 L 153.382812 240.5625 L 152.761719 239.867188 L 153.714844 238.441406 L 156.589844 238.574219 L 157.210938 237.109375 L 158.589844 236.972656 L 162.097656 234.535156 L 165.546875 233.65625 L 167.75 234.339844 L 169.460938 232.53125 L 171.84375 232.667969 L 173.722656 234.558594 L 175.898438 249.789062 L 173.890625 249.523438 L 169.984375 250.753906 L 160.984375 257.332031 L 159.738281 256.746094 L 158.039062 257.746094 L 157.488281 258.96875 L 155.320312 257.589844 L 153.691406 257.894531 L 148.757812 254.695312 L 145.984375 253.71875 Z M 144.128906 254.023438 " fill-opacity="1" fill-rule="nonzero"/><g clip-path="url(#id3)"><path stroke-linecap="butt" transform="matrix(6.045784, 0, 0, 6.04155, -748.120827, -6.06504)" fill="none" stroke-linejoin="miter" d="M 150.173686 43.676478 L 150.284818 43.696522 L 149.89069 44.007519 Z M 149.426136 43.662254 L 149.884875 44.0017 L 149.535975 43.955148 L 149.19612 43.704927 Z M 150.218268 43.534881 L 150.293217 43.607943 L 149.968223 43.702988 Z M 147.582134 43.049958 L 147.158285 43.137244 L 146.727974 42.902541 L 146.273112 43.031854 L 145.643153 42.773228 L 145.12691 42.733141 L 144.818069 42.862454 L 144.799978 43.084872 L 144.422003 43.024095 L 143.353981 43.37518 L 143.012188 43.765704 L 142.910748 43.512898 L 142.698824 43.534881 L 143.295185 42.395635 L 143.200206 42.147354 L 143.569782 41.569326 L 143.456713 41.153585 L 143.978124 40.179213 L 144.27469 40.268439 L 144.378067 40.561332 L 144.820008 40.516719 L 144.978305 40.719094 L 145.12691 40.50896 L 145.420245 40.433959 L 145.769791 40.694524 L 146.178134 40.712628 L 146.38812 40.371242 L 146.956052 40.338914 L 147.014202 40.216067 L 147.282984 40.32469 L 147.301075 40.629868 L 147.852854 40.993884 L 148.635295 41.173628 L 149.112772 40.821898 L 149.01004 40.706809 L 149.167691 40.470813 L 149.643229 40.492796 L 149.745961 40.250335 L 149.974038 40.227705 L 150.554246 39.824249 L 151.124762 39.678772 L 151.489169 39.791921 L 151.772166 39.492562 L 152.166294 39.515191 L 152.477074 39.828128 L 152.836958 42.349082 L 152.504856 42.305116 L 151.858745 42.508784 L 150.370104 43.597598 L 150.163995 43.500613 L 149.882936 43.666133 L 149.791835 43.868508 L 149.433243 43.640271 L 149.163814 43.690703 L 148.347776 43.161167 L 147.889037 42.999526 Z M 147.582134 43.049958 " stroke="rgb(100%, 100%, 100%)" stroke-width="0.5" stroke-opacity="1" stroke-miterlimit="4"/></g><path stroke-linecap="butt" transform="matrix(6.045784, 0, 0, 6.04155, -748.120827, -6.06504)" fill-opacity="1" fill="rgb(17.248535%, 44.309998%, 94.119263%)" fill-rule="nonzero" stroke-linejoin="miter" d="M 152.774285 11.650214 L 153.023038 11.8222 L 152.897692 12.000005 L 152.694167 11.880391 Z M 153.49793 9.815911 L 153.848768 9.769359 L 154.394732 9.92906 L 154.691943 9.480345 L 154.611179 9.832076 L 154.905806 9.931 L 154.792737 10.316999 L 155.493768 10.783818 L 155.880788 10.746964 L 156.707811 12.167465 L 156.707811 12.294839 L 156.548221 12.338805 L 156.521731 13.074595 L 156.758208 13.842067 L 156.431275 14.639927 L 156.71621 14.771179 L 156.751746 15.096401 L 156.404785 15.597489 L 156.501701 15.963444 L 156.842848 16.322934 L 156.760146 16.623586 L 156.331774 16.864108 L 156.27104 17.173165 L 155.758027 17.213899 L 155.358084 16.942989 L 154.914206 17.039973 L 154.733941 16.655914 L 154.419284 17.122733 L 154.09429 16.977257 L 153.917902 17.207433 L 153.415227 17.021869 L 153.328002 16.91066 L 153.704039 16.464531 L 153.724069 15.959564 L 153.579986 15.892322 L 153.360308 15.936935 L 153.249177 16.177457 L 152.342036 16.070127 L 152.022857 16.712812 L 151.566056 16.664319 L 151.264969 17.080707 L 150.459268 17.444076 L 150.182732 17.145363 L 150.319708 16.797512 L 150.614981 16.595784 L 150.315831 16.450307 L 150.366228 15.985427 L 150.059325 15.911072 L 150.039295 15.787578 L 150.366228 15.548996 L 150.165933 15.205671 L 151.20488 14.694885 L 151.743737 14.579796 L 152.035133 13.601545 L 151.679126 13.403696 L 151.808994 13.106923 L 151.443295 12.836013 L 151.869083 12.07436 L 152.170171 12.09893 L 152.555899 12.577387 L 152.877016 12.021989 L 153.026914 12.104749 L 153.063097 11.736854 L 153.306034 11.555169 L 153.375814 11.235766 L 153.035314 11.074125 L 153.032729 10.888561 L 153.298281 10.880803 L 153.2453 10.609892 Z M 153.49793 9.815911 " stroke="rgb(100%, 100%, 100%)" stroke-width="0.5" stroke-opacity="1" stroke-miterlimit="4"/><path stroke-linecap="butt" transform="matrix(6.045784, 0, 0, 6.04155, -748.120827, -6.06504)" fill-opacity="1" fill="rgb(17.248535%, 44.309998%, 94.119263%)" fill-rule="nonzero" stroke-linejoin="miter" d="M 144.68174 22.831895 L 144.779303 22.959268 L 144.502121 23.310999 L 144.378713 23.183626 L 144.407788 23.64592 L 143.295831 23.763594 L 143.027695 24.37977 L 142.738883 24.496798 L 142.716915 25.153061 L 142.258176 25.046378 L 141.546807 25.851997 L 141.391094 25.555224 L 141.489949 25.381298 L 141.405955 25.106508 L 141.053824 24.979782 L 140.790857 25.26039 L 140.509152 25.191855 L 140.354732 24.723096 L 140.074319 24.63387 L 140.474262 24.603481 L 141.146864 24.092696 L 141.334883 24.245931 L 141.261872 24.298949 L 141.515148 24.290544 L 141.234089 24.007996 L 141.590743 23.47458 L 141.809775 23.444192 L 141.756793 23.302594 L 142.198734 22.75754 L 142.13283 22.621762 L 142.362846 21.66614 L 143.363026 18.981606 L 143.5252 19.155531 L 143.958741 19.244111 L 144.175188 19.010054 L 144.75475 19.098634 L 144.975074 19.256395 L 144.964736 19.427735 L 145.143063 19.412217 L 145.292315 19.118677 L 145.482272 19.116737 L 145.628293 19.773647 L 145.732963 19.478813 L 145.935196 19.466529 L 146.14712 19.204024 L 146.340954 19.371484 L 146.346769 19.130962 L 146.642042 19.721275 L 146.4579 19.917184 L 146.682101 19.98378 L 147.063952 19.446485 L 147.284276 19.688947 L 147.341134 19.443899 L 147.166684 19.276439 L 147.308829 18.977726 L 147.522691 18.795395 L 147.730739 18.922768 L 147.927157 18.609831 L 148.153296 18.751429 L 148.073824 19.173635 L 148.367159 19.591962 L 148.223722 19.854467 L 148.312886 19.90296 L 148.119052 20.307062 L 147.881929 20.34133 L 147.730739 20.59349 L 147.31529 20.664612 L 147.251971 21.050611 L 146.950883 20.993713 L 146.972851 21.33122 L 146.872057 21.22777 L 146.649795 21.41398 L 146.49602 21.345444 L 146.185241 21.587906 L 146.030174 20.70082 L 145.292315 21.207726 L 145.024179 21.101043 L 144.759273 21.234235 L 144.732783 21.458593 L 144.838099 21.638338 L 144.74312 21.77153 L 145.031932 21.892438 L 144.933077 22.169814 L 144.595161 22.355378 Z M 144.68174 22.831895 " stroke="rgb(100%, 100%, 100%)" stroke-width="0.5" stroke-opacity="1" stroke-miterlimit="4"/><path stroke-linecap="butt" transform="matrix(6.045784, 0, 0, 6.04155, -748.120827, -6.06504)" fill-opacity="1" fill="rgb(17.248535%, 44.309998%, 94.119263%)" fill-rule="nonzero" stroke-linejoin="miter" d="M 141.756793 29.991947 L 140.889712 30.044319 L 140.617699 30.252513 L 140.180928 30.01781 L 139.96125 30.120614 L 139.58069 29.967378 L 139.671792 29.627932 L 139.490235 29.377711 L 140.06592 28.092988 L 139.992909 26.977665 L 140.480077 25.925058 L 140.50786 25.197674 L 140.790857 25.26621 L 141.055763 24.985601 L 141.407247 25.112974 L 141.493826 25.387764 L 141.396909 25.561043 L 141.553268 25.858462 L 142.265929 25.052197 L 142.725314 25.159526 L 142.848076 25.238407 L 142.809309 25.544879 L 143.253834 25.664493 L 143.485788 25.53518 L 143.759093 25.761478 L 143.799152 26.066656 L 143.248019 26.181744 L 143.980709 26.8018 L 144.084087 27.112797 L 143.817889 27.361078 L 143.582704 27.355258 L 143.704173 27.452243 L 143.476096 27.836302 L 143.646023 27.894493 L 143.386932 28.044496 L 143.260295 28.50291 L 142.892011 29.007877 L 142.758912 28.799683 L 142.72273 28.070358 L 142.15286 29.060248 L 142.037852 29.773409 Z M 141.756793 29.991947 " stroke="rgb(100%, 100%, 100%)" stroke-width="0.5" stroke-opacity="1" stroke-miterlimit="4"/><path stroke-linecap="butt" transform="matrix(6.045784, 0, 0, 6.04155, -748.120827, -6.06504)" fill-opacity="1" fill="rgb(17.248535%, 44.309998%, 94.119263%)" fill-rule="nonzero" stroke-linejoin="miter" d="M 152.013166 22.15171 L 152.252873 22.743316 L 152.694813 23.197851 L 152.948089 23.237938 L 153.001716 23.555401 L 153.561895 23.837949 L 153.379691 24.458651 L 153.477254 24.829779 L 153.961838 25.305003 L 153.899165 25.880446 L 154.580166 26.183684 L 154.522016 26.697056 L 154.768185 26.773351 L 155.2308 26.625934 L 155.697293 27.139306 L 155.752212 27.392113 L 155.108039 28.345148 L 155.188157 28.69106 L 154.140164 29.613707 L 153.956023 29.359607 L 154.116258 28.963264 L 153.877197 28.828132 L 153.362246 29.011756 L 153.346093 29.185682 L 152.942274 29.205725 L 152.734226 28.826192 L 152.858925 28.819726 L 152.741979 28.373597 L 152.464797 28.189973 L 152.550084 27.876389 L 152.037072 27.5169 L 151.911726 27.646212 L 151.980214 27.846001 L 151.584148 27.963675 L 151.372223 28.308941 L 151.078889 28.161524 L 150.985848 28.301182 L 150.764232 28.082643 L 150.640825 28.33545 L 150.399825 28.436314 L 149.851277 28.33351 L 149.539851 27.791689 L 148.918292 28.068419 L 148.971919 27.737378 L 148.610743 27.456122 L 148.402049 27.838242 L 148.290918 27.553107 L 148.396234 27.399871 L 147.943956 27.416035 L 147.664836 27.76324 L 147.606686 27.688886 L 147.204805 26.927233 L 146.868827 26.686711 L 147.1557 26.25028 L 147.872884 25.797685 L 148.19594 25.238407 L 148.557762 25.308883 L 148.891155 24.785812 L 148.869188 24.602188 L 149.260731 24.448306 L 149.446811 24.223948 L 149.002287 23.702817 L 149.344079 22.95151 L 150.008928 23.39376 L 150.176271 23.175867 L 150.622734 22.755601 L 150.830782 22.714867 L 150.952251 22.357317 L 151.153837 22.254514 L 151.372223 22.470466 L 151.984091 22.132959 Z M 152.013166 22.15171 " stroke="rgb(100%, 100%, 100%)" stroke-width="0.5" stroke-opacity="1" stroke-miterlimit="4"/><path stroke-linecap="butt" transform="matrix(6.045784, 0, 0, 6.04155, -748.120827, -6.06504)" fill-opacity="1" fill="rgb(17.248535%, 44.309998%, 94.119263%)" fill-rule="nonzero" stroke-linejoin="miter" d="M 144.655249 9.565045 L 144.485322 9.270211 L 144.343823 8.185277 L 144.040797 7.484401 L 144.115746 7.009823 L 144.591284 7.256164 L 144.785764 7.229655 L 144.913694 7.448193 L 145.294253 7.613714 L 145.168262 7.688715 L 145.165677 8.112861 L 145.754285 8.074714 L 145.862831 7.882685 L 146.156166 7.821907 L 146.30994 7.929237 L 146.514112 7.748846 L 146.611028 7.777295 L 146.547709 7.938936 L 146.981896 7.811562 L 147.043277 8.028161 L 147.228711 8.114801 L 147.290091 7.874279 L 147.699726 7.514789 L 148.002752 7.611774 L 148.298025 8.096697 L 148.50995 8.213725 L 148.644987 8.096697 L 148.865311 8.302951 L 149.227133 7.825787 L 149.398999 8.017816 L 149.294329 8.213725 L 149.652921 8.441963 L 149.599293 8.696709 L 149.857092 8.955335 L 149.625138 9.987251 L 149.369924 9.963328 L 148.725751 10.241997 L 147.757876 10.20579 L 147.377963 10.444372 L 147.186067 10.324757 L 146.846859 10.658385 L 146.519927 10.55946 L 146.580015 10.989425 L 146.200748 10.551055 L 146.149705 10.64416 L 145.961686 10.557521 L 145.922274 10.668083 L 146.087032 10.746964 L 145.908059 10.915071 L 145.694196 10.660324 L 145.510055 10.870458 L 144.949876 10.866578 Z M 144.655249 9.565045 " stroke="rgb(100%, 100%, 100%)" stroke-width="0.5" stroke-opacity="1" stroke-miterlimit="4"/><path stroke-linecap="butt" transform="matrix(6.045784, 0, 0, 6.04155, -748.120827, -6.06504)" fill-opacity="1" fill="rgb(17.248535%, 44.309998%, 94.119263%)" fill-rule="nonzero" stroke-linejoin="miter" d="M 142.716915 25.153061 L 142.738883 24.496798 L 143.027695 24.37977 L 143.299061 23.763594 L 144.409727 23.64592 L 144.381298 23.183626 L 144.504705 23.310999 L 144.779303 22.965088 L 144.684324 22.831895 L 144.582885 22.343093 L 144.920801 22.157529 L 145.020302 21.880799 L 144.730844 21.759245 L 144.825823 21.626053 L 144.721153 21.446308 L 144.746997 21.22195 L 145.011903 21.090698 L 145.281977 21.197381 L 146.019836 20.690475 L 146.174903 21.577561 L 146.486975 21.335099 L 146.640103 21.403635 L 146.86172 21.218071 L 146.963159 21.320875 L 146.94313 20.983368 L 147.246156 21.040266 L 147.248094 21.048025 L 147.370855 21.264624 L 147.516876 21.179277 L 147.60604 21.393937 L 147.558874 22.286842 L 148.208216 22.565511 L 148.714767 22.517019 L 148.575207 22.173693 L 148.697322 22.066363 L 148.716705 21.539413 L 148.827836 21.440489 L 149.126986 21.599544 L 149.256208 21.460533 L 149.335034 22.155589 L 149.610277 22.096752 L 149.930749 22.346972 L 150.275772 22.906897 L 150.182732 23.179747 L 150.016035 23.397639 L 149.351187 22.955389 L 149.01004 23.706697 L 149.45198 24.227827 L 149.2659 24.452185 L 148.87371 24.606067 L 148.89697 24.791631 L 148.562931 25.312762 L 148.201755 25.244226 L 147.878053 25.801565 L 147.162807 26.25416 L 146.873996 26.69059 L 147.209974 26.933052 L 147.611855 27.694705 L 147.328858 28.349028 L 148.051857 28.684594 L 147.867715 28.921237 L 148.044103 29.173397 L 148.104838 29.064128 L 148.263781 29.197966 L 148.16105 29.446247 L 147.929096 29.320814 L 147.956878 29.21801 L 147.75723 29.232234 L 147.64416 28.985893 L 147.461957 29.076412 L 147.142778 28.674249 L 147.083982 28.8624 L 147.014202 28.745371 L 146.883687 28.910892 L 146.654318 28.767355 L 146.452085 29.040205 L 146.317048 28.949039 L 146.059895 29.270382 L 145.868 29.169518 L 145.570789 29.529007 L 145.148878 29.369306 L 145.256133 28.898607 L 144.982828 29.155293 L 144.544764 28.8624 L 144.254014 29.699054 L 144.011722 29.769529 L 143.708696 29.545171 L 143.269986 29.753365 L 143.15304 29.561335 L 143.032217 29.411979 L 143.09489 29.201846 L 142.879735 29.018222 L 143.248019 28.512608 L 143.375302 28.054194 L 143.633747 27.906778 L 143.46382 27.84794 L 143.695128 27.464528 L 143.573013 27.367543 L 143.808197 27.373362 L 144.073749 27.125082 L 143.971017 26.814084 L 143.238327 26.193383 L 143.790106 26.078294 L 143.748755 25.773762 L 143.476096 25.547465 L 143.244142 25.676778 L 142.800263 25.557163 L 142.839676 25.250045 Z M 142.716915 25.153061 " stroke="rgb(100%, 100%, 100%)" stroke-width="0.5" stroke-opacity="1" stroke-miterlimit="4"/><path stroke-linecap="butt" transform="matrix(6.045784, 0, 0, 6.04155, -748.120827, -6.06504)" fill-opacity="1" fill="rgb(17.248535%, 44.309998%, 94.119263%)" fill-rule="nonzero" stroke-linejoin="miter" d="M 144.087317 32.295009 L 144.774134 32.316992 L 144.456247 32.135308 L 144.323148 31.17128 L 144.190049 31.438311 L 144.025937 31.308999 L 144.071164 31.537236 L 143.885084 31.581849 L 144.22817 31.614177 L 144.084733 31.882501 L 143.326844 31.494562 L 142.497237 32.0991 L 141.257995 32.359665 L 141.520963 31.614177 L 141.761316 31.464174 L 141.519024 31.526891 L 141.331006 30.804032 L 141.004074 30.335273 L 141.74904 30.127079 L 141.747102 30.310703 L 142.041729 30.448422 L 141.871155 30.421912 L 142.006192 30.678598 L 141.997793 30.500793 L 142.15286 30.484629 L 142.358969 30.81373 L 142.265283 30.450361 L 142.099233 30.361135 L 142.415827 30.20402 L 142.437795 30.347558 L 142.548926 30.274496 L 142.714977 30.430318 L 142.621937 30.173632 L 142.881027 30.033974 L 142.369953 30.116734 L 142.397736 29.906601 L 143.154979 29.547111 L 143.273217 29.739141 L 143.71128 29.530947 L 144.014307 29.755305 L 144.255952 29.684829 L 144.546702 28.848175 L 144.986058 29.143008 L 145.260009 28.886969 L 145.152755 29.357668 L 145.575958 29.516723 L 145.931319 29.534826 L 145.804035 29.74302 L 145.866708 29.909187 L 144.894956 30.749074 L 144.986058 31.260506 L 145.393754 31.272791 L 145.690966 31.571504 L 145.833756 31.506847 L 145.745239 31.314818 L 145.844094 31.27861 L 146.026297 31.52883 L 146.707299 31.294774 L 147.08269 32.004055 L 147.001926 32.17992 L 147.251971 32.2685 L 147.136963 32.280785 L 147.251971 32.379709 L 147.003864 32.702991 L 147.293322 32.70881 L 147.345011 32.854287 L 147.801812 32.943513 L 148.013736 33.127137 L 148.235998 33.561628 L 148.235998 33.904954 L 147.657729 34.07888 L 147.534968 34.264443 L 147.251971 34.205606 L 147.208035 34.589665 L 146.937315 34.460352 L 146.746712 34.8748 L 146.58583 34.783635 L 146.452085 35.12502 L 146.744773 35.534942 L 147.032293 35.500674 L 147.193821 35.765119 L 147.156992 36.524832 L 146.928915 36.787984 L 146.956698 36.945099 L 146.29508 36.753069 L 145.639923 36.894667 L 145.566266 37.195966 L 145.345296 37.329158 L 145.325267 37.670544 L 145.132725 37.729381 L 144.854251 37.577438 L 144.710815 37.698992 L 144.380006 37.203724 L 144.118977 37.282605 L 144.011722 37.165577 L 143.914805 36.294655 L 143.406316 36.098746 L 143.724849 35.541408 L 144.040151 34.533414 L 144.064703 32.985539 L 143.799798 32.304707 L 143.284847 31.727326 L 143.808197 32.114618 L 143.974248 32.565273 L 143.921267 32.135308 Z M 144.087317 32.295009 " stroke="rgb(100%, 100%, 100%)" stroke-width="0.5" stroke-opacity="1" stroke-miterlimit="4"/><path fill="rgb(17.248535%, 44.309998%, 94.119263%)" d="M 145.683594 1.695312 L 146.039062 5.710938 L 148.492188 4.820312 L 149.332031 5.332031 L 149.871094 7.617188 L 146.78125 9.972656 L 144.707031 13.546875 L 145.355469 15.585938 L 146.539062 15.449219 L 146.699219 18.453125 L 142.582031 20.871094 L 141.714844 20.371094 L 141.238281 21.382812 L 138.601562 20.917969 L 135.265625 22.871094 L 133.71875 22.554688 L 132.945312 25.59375 L 131.957031 26.421875 L 132.210938 28.070312 L 131.359375 28.460938 L 130.796875 27.472656 L 129.757812 27.914062 L 128.25 26.875 L 127.949219 28.070312 L 126.191406 27.582031 L 123.867188 28.9375 L 121.832031 29.046875 L 119.105469 21.96875 L 119.890625 18.855469 L 119.390625 15.769531 L 123.894531 12.523438 L 124.359375 10.835938 L 127.519531 8.945312 L 128.535156 6.601562 L 132.007812 6.273438 L 133.015625 4.953125 L 140.257812 4.734375 L 143.277344 2 L 144.425781 2.171875 L 145.402344 1.085938 Z M 145.683594 1.695312 " fill-opacity="1" fill-rule="nonzero"/><g clip-path="url(#id4)"><path stroke-linecap="butt" transform="matrix(6.045784, 0, 0, 6.04155, -748.120827, -6.06504)" fill="none" stroke-linejoin="miter" d="M 147.839286 1.284497 L 147.898082 1.949165 L 148.30384 1.801748 L 148.442754 1.886448 L 148.531917 2.264688 L 148.020843 2.654566 L 147.677758 3.246173 L 147.785013 3.583679 L 147.980784 3.561049 L 148.007275 4.058257 L 147.326274 4.458481 L 147.182837 4.37572 L 147.104011 4.54318 L 146.667886 4.466239 L 146.116107 4.789521 L 145.860247 4.73715 L 145.732317 5.240177 L 145.568851 5.377248 L 145.610848 5.650098 L 145.469996 5.714755 L 145.376956 5.551174 L 145.20509 5.624236 L 144.955691 5.45225 L 144.90594 5.650098 L 144.61519 5.569278 L 144.230754 5.793636 L 143.89413 5.811739 L 143.443144 4.640165 L 143.573013 4.124853 L 143.49031 3.614068 L 144.235277 3.076773 L 144.312164 2.797457 L 144.834868 2.48452 L 145.002857 2.096582 L 145.57725 2.04227 L 145.743947 1.823731 L 146.941837 1.787524 L 147.441281 1.334929 L 147.631238 1.363378 L 147.792766 1.183633 Z M 147.839286 1.284497 " stroke="rgb(100%, 100%, 100%)" stroke-width="0.5" stroke-opacity="1" stroke-miterlimit="4"/></g><path fill="rgb(17.248535%, 44.309998%, 94.119263%)" d="M 156.703125 12.839844 L 157.527344 12.984375 L 157.230469 16.328125 L 157.980469 17.074219 L 159.035156 15.207031 L 164.609375 13.839844 L 166.417969 15.207031 L 169.042969 15.171875 L 168.050781 17.890625 L 171.535156 17.234375 L 172.265625 15.816406 L 174.183594 16.035156 L 175.125 19.015625 L 177.53125 16.671875 L 179.484375 17.195312 L 183.902344 15.292969 L 183.527344 18.671875 L 185.039062 20.941406 L 185.003906 22.238281 L 183.589844 23.910156 L 181.660156 30.121094 L 182.808594 33.636719 L 180.691406 34.003906 L 180.128906 36.628906 L 177.554688 37.859375 L 177.699219 41.730469 L 179.507812 43.082031 L 177.164062 44.304688 L 177.675781 44.839844 L 176.539062 45.769531 L 176.703125 47.878906 L 175.664062 47.683594 L 174.980469 49.601562 L 172.242188 50.1875 L 171.449219 51.1875 L 170.507812 50.75 L 168.886719 52.382812 L 166 52.054688 L 164.71875 53.140625 L 160.894531 52.101562 L 160.246094 52.921875 L 157.925781 52.347656 L 156.472656 54.238281 L 157.863281 48.003906 L 156.304688 46.441406 L 156.628906 44.914062 L 154.460938 43.535156 L 155.105469 42.351562 L 154.066406 41.203125 L 155.457031 35.945312 L 156.832031 35.359375 L 157.179688 34.113281 L 158.414062 34.199219 L 160.375 31.050781 L 158.820312 28.902344 L 157.644531 30.292969 L 153.179688 29.5 L 153.492188 25.3125 L 151.636719 24.496094 L 148.464844 25.09375 L 150.6875 21.417969 L 151.097656 18.390625 L 152.566406 17.867188 L 154.054688 15.511719 L 156.105469 15.378906 Z M 156.703125 12.839844 " fill-opacity="1" fill-rule="nonzero"/><g clip-path="url(#id5)"><path stroke-linecap="butt" transform="matrix(6.045784, 0, 0, 6.04155, -748.120827, -6.06504)" fill="none" stroke-linejoin="miter" d="M 149.661966 3.129145 L 149.798296 3.153067 L 149.749191 3.706526 L 149.873245 3.83002 L 150.047695 3.520962 L 150.969696 3.294665 L 151.268845 3.520962 L 151.703032 3.515143 L 151.53892 3.965152 L 152.115251 3.856529 L 152.236074 3.621826 L 152.553315 3.658034 L 152.709028 4.151363 L 153.107032 3.763424 L 153.430088 3.850064 L 154.16084 3.535187 L 154.098813 4.094465 L 154.348858 4.470119 L 154.343043 4.684778 L 154.109151 4.961507 L 153.789972 5.989545 L 153.979929 6.571452 L 153.629736 6.632229 L 153.536696 7.066721 L 153.110909 7.270388 L 153.134815 7.911133 L 153.433965 8.134845 L 153.046298 8.337219 L 153.130938 8.425798 L 152.94292 8.579681 L 152.970057 8.928825 L 152.798191 8.896497 L 152.685121 9.21396 L 152.232197 9.310945 L 152.101037 9.476465 L 151.945324 9.40405 L 151.677188 9.674314 L 151.199711 9.620003 L 150.987787 9.799747 L 150.355244 9.627761 L 150.247989 9.76354 L 149.864199 9.668495 L 149.623846 9.981432 L 149.853861 8.949515 L 149.596063 8.69089 L 149.64969 8.438083 L 149.291098 8.209846 L 149.397707 8.013937 L 149.225841 7.823847 L 149.455857 6.953572 L 149.683288 6.856587 L 149.740792 6.650333 L 149.944963 6.664558 L 150.269311 6.143427 L 150.012159 5.787817 L 149.817679 6.017993 L 149.079174 5.886741 L 149.130863 5.193624 L 148.82396 5.058492 L 148.299317 5.157416 L 148.666955 4.549 L 148.734796 4.047912 L 148.977734 3.961273 L 149.223903 3.571394 L 149.563111 3.549411 Z M 149.661966 3.129145 " stroke="rgb(100%, 100%, 100%)" stroke-width="0.5" stroke-opacity="1" stroke-miterlimit="4"/></g><path stroke-linecap="butt" transform="matrix(6.045784, 0, 0, 6.04155, -748.120827, -6.06504)" fill-opacity="1" fill="rgb(17.248535%, 44.309998%, 94.119263%)" fill-rule="nonzero" stroke-linejoin="miter" d="M 152.683829 9.21396 L 152.948735 9.345213 L 153.158721 9.745436 L 153.495991 9.815911 L 153.233024 10.601487 L 153.286005 10.872397 L 153.021099 10.880803 L 153.023038 11.066367 L 153.364831 11.228008 L 153.295697 11.54741 L 153.054051 11.729095 L 153.017223 12.09699 L 152.869909 12.013583 L 152.548792 12.569628 L 152.163063 12.090524 L 151.861976 12.066601 L 151.434896 12.828254 L 151.801241 13.098518 L 151.672019 13.395937 L 152.029318 13.593786 L 151.737922 14.571391 L 151.199065 14.68648 L 150.160764 15.197912 L 149.23101 15.977668 L 148.208862 16.57962 L 147.832825 16.49492 L 147.463895 16.66238 L 147.153116 16.371426 L 146.791293 16.296424 L 146.799047 15.949219 L 147.036816 15.678309 L 146.921808 15.304595 L 147.467772 15.094462 L 147.246156 14.860405 L 147.096258 14.381301 L 147.498139 14.213841 L 147.184775 14.056079 L 147.169269 13.569217 L 146.983188 13.417921 L 146.945068 13.177399 L 147.323689 13.033861 L 147.553059 12.458419 L 147.436759 12.201733 L 147.591179 12.126732 L 147.85027 12.282554 L 147.996937 12.115094 L 148.237291 12.260571 L 148.407218 12.108628 L 148.2192 11.425856 L 148.495735 11.092876 L 148.484105 10.913131 L 148.212738 11.16917 L 147.706187 11.039857 L 147.763045 10.904726 L 147.52786 10.777352 L 147.553059 10.504502 L 147.381193 10.435967 L 147.761107 10.197384 L 148.727689 10.234239 L 149.373154 9.955569 L 149.627076 9.979492 L 149.870014 9.666555 L 150.253804 9.7616 L 150.361059 9.625822 L 150.992956 9.797808 L 151.20488 9.618063 L 151.679772 9.672374 L 151.949201 9.401464 L 152.104267 9.474526 L 152.234782 9.307065 Z M 153.023038 11.8222 L 152.774931 11.650214 L 152.696105 11.880391 L 152.900277 12.000005 Z M 153.023038 11.8222 " stroke="rgb(100%, 100%, 100%)" stroke-width="0.5" stroke-opacity="1" stroke-miterlimit="4"/></svg>