<svg fill="none" height="442" viewBox="0 0 640 442" width="640" xmlns="http://www.w3.org/2000/svg" xmlns:xlink="http://www.w3.org/1999/xlink"><clipPath id="a"><path d="m151.113 304.438h241.893v68.256h-241.893z"/></clipPath><clipPath id="b"><path d="m142.55 84.3057h242.8v243.556h-242.8z"/></clipPath><path d="m550.66 350.194c-.624.364-2.079.572-4.001.572h-82.984c-3.221 0-7.066-.624-8.989-1.403l-37.932-16.212-28.475-2.338-39.44-23.591h12.731l19.252 11.587h6.028 10.496l14.367 9.146 69.11.779-35.334-22.292h12.73l16.368 10.912h3.222l11.328 1.559s22.707 13.251 23.071 13.51l37.672 16.42c1.143.468 1.455.936.78 1.351z" fill="#000"/><g stroke="#000" stroke-miterlimit="10" stroke-width="1.668"><path d="m457.253 206.951h-10.646v99.267h10.646z" fill="#7304e2"/><path d="m489.49 206.951h-12.014v113.72h12.014z" fill="#bd80ff"/><path d="m399.977 206.951h-12.014v113.72h12.014z" fill="#bd80ff"/><path d="m360.187 206.951h-10.646v99.267h10.646z" fill="#7304e2"/><path d="m500.613 201.005h-121.988v5.948h121.988z" fill="#bd80ff"/><path d="m477.535 206.951h-77.558v7.672h77.558z" fill="#7304e2"/><path d="m349.541 204.989 32.177 1.963v7.673l-32.177-2.023z" fill="#7304e2"/><path d="m346.804 199.16 32.237 1.606v6.186l-32.237-1.606z" fill="#7304e2"/><path d="m477.475 214.624h-3.687v106.048h3.687z" fill="#7304e2"/><path d="m387.962 206.951h-6.899v113.72h6.899z" fill="#7304e2"/><path d="m377.973 196.608 17.783-75.417c.833-3.688 4.283-6.483 7.97-6.483h94.985c2.201 0 4.223.951 5.532 2.617 1.368 1.724 1.844 3.984 1.308 6.245l-17.248 73.038z" fill="#fff"/><path d="m384.515 191.372c5.413-23.017 10.885-46.035 16.297-68.993.298-1.368 1.606-2.498 2.915-2.498h94.985c1.308 0 2.081 1.07 1.784 2.498-5.412 23.018-10.884 46.035-16.297 68.993-33.248 0-66.436 0-99.684 0z" fill="#4ac7d3"/><path d="m449.405 127.496c-14.275 0-28.49 0-42.764 0-2.201 9.397-4.461 18.794-6.662 28.192h42.764c2.201-9.398 4.461-18.795 6.662-28.192z" fill="#2c71f0"/><path d="m491.871 127.496c-14.274 0-28.489 0-42.764 0-2.2 9.397-4.461 18.794-6.661 28.192h42.764c2.201-9.398 4.401-18.795 6.661-28.192z" fill="#fff"/><path d="m442.922 155.509c-14.275 0-28.49 0-42.764 0-2.201 9.397-4.461 18.795-6.662 28.192h42.764c2.201-9.397 4.461-18.795 6.662-28.192z" fill="#fff"/><path d="m485.448 155.509c-14.275 0-28.49 0-42.764 0-2.201 9.397-4.461 18.795-6.662 28.192h42.765c2.2-9.397 4.401-18.795 6.661-28.192z" fill="#fb5d96"/><path d="m384.515 191.372c5.413-23.017 10.885-46.035 16.297-68.993.298-1.368 1.606-2.498 2.915-2.498h94.985c1.308 0 2.081 1.07 1.784 2.498-5.412 23.018-10.884 46.035-16.297 68.993-33.248 0-66.436 0-99.684 0z"/><path d="m338.479 199.935h148.396c1.071 0 1.903-.832 1.903-1.903v-1.308c0-1.071-.832-1.904-1.903-1.904h-148.396z" fill="#fff"/><path d="m399.979 194.82h-61.5v5.115h61.5z" fill="#fff"/></g><g clip-path="url(#a)"><path d="m146.177 334.873c-.05 0-.101.043-.151.043 0 0-.05 0-.05.044-.051 0-.051.043-.101.043 0 0-.05 0-.05.044-.051 0-.051.043-.051.043l-.05.043-.05.044-.051.043v.044l-.05.043v.044.043.044.043s0 .044.05.044c0 0 0 .043.051.043l.05.043.05.044.051.043.05.044s.05.043.101.043c.05 0 .05.044.1.044.051 0 .051.043.101.043.051 0 .051.044.101.044s.05.043.101.043c.05 0 .1.044.1.044.051 0 .101.043.101.043.051 0 .101.044.151.044.051 0 .101.043.151.043.051 0 .051 0 .101.043.051 0 .151.044.202.044h.1c.051 0 .152.043.252.043h.101c.05 0 .151 0 .252.044h.101.201.151.151.252.101.252.101.302 50.575l42.717 27.335c.403.261 1.158.434 2.115.521.705.131 1.562.218 2.519.218h134.95c2.166 0 3.98-.435 3.98-.956 0-.131-.101-.218-.252-.348-.05-.087-.101-.174-.252-.261l-59.289-37.852 44.63-1.347c1.411-.391 1.209-.999-.453-1.347-.755-.174-1.662-.217-2.569-.217-.856 0-1.662.043-2.367.173l-62.161-11.907-4.383-2.825c-.05-.217-.403-.434-.957-.652-.05 0-.151-.043-.201-.043h-.051c-.201-.044-.453-.087-.705-.131-.05 0-.05 0-.101 0-.05 0-.151 0-.201-.043-.051 0-.101 0-.151-.043-.051 0-.101 0-.202-.044-.05 0-.151 0-.201-.043-.051 0-.101 0-.151 0-.101 0-.252-.044-.353-.044-.05 0-.101 0-.151 0-.101 0-.202 0-.302 0-.051 0-.101 0-.152 0-.1 0-.201 0-.302 0-.05 0-.101 0-.151 0-.151 0-.302 0-.453 0h-134.9c-.152 0-.303 0-.454 0-.05 0-.101 0-.151 0-.101 0-.201 0-.302 0-.051 0-.101 0-.151 0-.101 0-.202 0-.303 0-.05 0-.1 0-.151 0-.151 0-.251 0-.352.044-.051 0-.101 0-.151 0-.051 0-.151 0-.202.043-.05 0-.101 0-.201.044-.051 0-.101 0-.151.043-.051 0-.152 0-.202.043-.05 0-.05 0-.101 0-.252.044-.453.087-.705.131h-.05c-.051 0-.151.043-.202.043-.604.174-.957.435-.957.696 0 .347.605.651 1.562.869l25.539 16.34-35.463 9.995c-.05 0-.101.044-.151.044-.05.043-.05.043-.101.087zm91.932-23.033h59.44l3.879 2.477h-72.034zm-12.795 3.607h77.877l14.306 9.126-6.296 1.782c-2.418-.478-5.441-.739-8.715-.739h-83.469c-.705 0-1.41 0-2.065.044h-25.187l-.806-.522zm-59.491 18.991h-7.808l14.155-3.998c-2.015 1.086-4.131 2.434-6.347 3.998zm42.666 1.912h7.506l40.903 26.162h-7.506zm168.298 26.162h-7.103l-50.172-32.072-3.778-2.434 4.937-1.39zm-65.133-47.065 35.816 11.907-24.129-4.432zm48.61 8.3-8.714 2.478-41.659-11.908-3.879-2.477zm-194.945-15.036h127.344l2.519 1.608h-57.224c-.706-.13-1.562-.174-2.368-.174-1.108 0-2.216.13-3.022.348l-44.782 12.603z" fill="#000" stroke="#000" stroke-miterlimit="10" stroke-width="1.75974"/></g><g clip-path="url(#b)"><g stroke="#000" stroke-width="1.9182"><path d="m370.389 325.598c-1.612 0-3.123-.957-3.728-2.569l-86.944-231.7686c-.756-2.0653.252-4.3321 2.317-5.0877s4.332.2518 5.088 2.3171l86.995 231.7682c.755 2.065-.252 4.332-2.318 5.088-.453.151-.957.252-1.41.252z" fill="#ffcddf" stroke-miterlimit="10"/><path d="m282.487 93.225h-134.951c-2.216 0-3.979-1.763-3.979-3.9291 0-2.166 1.763-3.9795 3.979-3.9795h134.951c2.166 0 3.979 1.7631 3.979 3.9795s-1.813 3.9291-3.979 3.9291z" fill="#ffcddf" stroke-miterlimit="10"/><path d="m323.693 228.425-51.632-137.5197h-112.736l51.028 135.9577 4.181 11.183c2.015 5.34 7.103 8.866 12.845 8.866h83.469c9.571.05 16.17-9.521 12.845-18.487z" fill="#2c71f0" stroke-linecap="round" stroke-linejoin="round" stroke-miterlimit="10"/><path d="m370.289 326.855h-134.951c-2.619 0-4.735-2.116-4.735-4.735 0-2.62 2.116-4.735 4.735-4.735h134.951c2.619 0 4.735 2.115 4.735 4.735 0 2.619-2.116 4.735-4.735 4.735z" fill="#ffcddf" stroke-miterlimit="10"/><path d="m245.463 206.211h134.95" stroke-linecap="round" stroke-linejoin="round" stroke-miterlimit="10"/><path d="m177.509 92.4165 56.771 151.9765 13.55-5.088-54.806-146.8885z" fill="#fff"/><path d="m223.953 92.4165h-15.465l56.771 151.9765 13.551-5.088z" fill="#fff"/><path d="m254.932 92.4165h-15.465l56.771 151.9765 13.551-5.088z" fill="#fff"/><path d="m294.274 311.442c-.907 0-1.814-.302-2.569-.957-1.663-1.411-1.864-3.929-.454-5.592l86.139-101.301c1.41-1.662 3.929-1.864 5.591-.453 1.663 1.41 1.864 3.929.454 5.591l-86.139 101.301c-.806.957-1.914 1.411-3.022 1.411z" fill="#fb5d96" stroke-miterlimit="10"/><path d="m305.91 294.061h-134.145c-1.309 0-2.367-1.058-2.367-2.367 0-1.31 1.058-2.368 2.367-2.368h134.145c1.309 0 2.367 1.058 2.367 2.368 0 1.309-1.058 2.367-2.367 2.367z" fill="#fb5d96" stroke-miterlimit="10"/><path d="m294.274 310.687h-134.95c-1.763 0-3.174-1.411-3.174-3.174s1.411-3.173 3.174-3.173h134.95c1.763 0 3.174 1.41 3.174 3.173s-1.411 3.174-3.174 3.174z" fill="#fb5d96" stroke-miterlimit="10"/><path d="m227.378 246.812c7.153.151 15.515-10.125 25.187-40.147h112.635c-9.621 30.022-17.983 40.298-25.187 40.147z" fill="#2c71f0" stroke-linecap="round" stroke-linejoin="round" stroke-miterlimit="10"/><path d="m332.912 244.645c6.7-11.636 11.183-22.97 13.5-36.218-5.138 0-10.327 0-15.465 0-2.317 13.248-6.8 24.532-13.5 36.218z" fill="#fff"/><path d="m301.933 244.645c6.7-11.636 11.183-22.97 13.5-36.218-5.138 0-10.327 0-15.465 0-2.317 13.248-6.8 24.532-13.5 36.218z" fill="#fff"/><path d="m270.954 244.645c6.699-11.636 11.182-22.97 13.5-36.218-5.138 0-10.327 0-15.465 0-2.317 13.248-6.8 24.532-13.5 36.218z" fill="#fff"/></g><path d="m227.378 246.812c7.153.151 15.515-10.125 25.187-40.147h112.635c-9.621 30.022-17.983 40.298-25.187 40.147z" fill="#000" opacity=".3"/><path d="m380.413 210.19h-134.95c-2.167 0-3.98-1.763-3.98-3.98 0-2.216 1.763-3.979 3.98-3.979h134.95c2.166 0 3.98 1.763 3.98 3.979 0 2.217-1.814 3.98-3.98 3.98z" fill="#ffcddf" stroke="#000" stroke-miterlimit="10" stroke-width="1.9182"/><path d="m159.323 311.442c-.907 0-1.814-.302-2.569-.957-1.662-1.41-1.864-3.929-.454-5.591l86.139-101.301c1.411-1.663 3.929-1.864 5.592-.454 1.662 1.411 1.863 3.929.453 5.592l-86.139 101.301c-.806.957-1.914 1.41-3.022 1.41z" fill="#ffcddf" stroke="#000" stroke-miterlimit="10" stroke-width="1.9182"/><path d="m234.734 326.049c-1.612 0-3.124-.957-3.728-2.569l-86.945-231.7684c-.755-2.015.252-4.3322 2.318-5.0878 2.065-.7556 4.332.2519 5.087 2.3172l86.995 231.768c.756 2.066-.252 4.332-2.317 5.088-.453.201-.907.252-1.41.252z" fill="#ffcddf" stroke="#000" stroke-miterlimit="10" stroke-width="1.9182"/></g></svg>