<svg width="412" height="280" viewBox="0 0 412 280" fill="none" xmlns="http://www.w3.org/2000/svg">
<rect width="412" height="280" rx="16" fill="#1D6CFF"/>
<path d="M88 125.1C101.171 121.634 128.138 119.382 130.634 138.098C133.753 156.814 140.512 178.13 148.311 159.933C151.998 145.209 154.947 117.106 156.507 109.307C158.963 97.0261 169.108 93.9068 170.148 114.183C171.812 133.315 172.292 163.088 175.585 182.324C178.198 197.586 195.154 201.922 196.397 185.446C198.061 163.402 200.303 101.359 202.383 72.0712C203.117 61.7377 216.691 56.6893 218.771 76.6532C220.85 96.6171 225.937 136.861 228.899 152.655C231.861 168.449 245.48 169.49 245.48 143.474C245.48 125.689 246.868 99.4186 247.561 95.7794C249.327 86.5063 261.342 78.8298 266.333 101.705C268.413 114.183 268.413 125.1 291.29 125.1C309.591 125.1 319.712 125.1 322.485 125.1" stroke="white" stroke-width="11.176" stroke-linecap="round"/>
<path d="M212.656 140.828C219.002 134.483 219.002 124.195 212.656 117.849C206.31 111.504 196.022 111.504 189.677 117.849C183.331 124.195 183.331 134.483 189.677 140.828C196.022 147.174 206.31 147.174 212.656 140.828Z" fill="black" stroke="black" stroke-width="0.895188" stroke-miterlimit="10"/>
<path d="M201.834 144.474C210.808 144.474 218.083 137.2 218.083 128.226C218.083 119.252 210.808 111.977 201.834 111.977C192.86 111.977 185.586 119.252 185.586 128.226C185.586 137.2 192.86 144.474 201.834 144.474Z" fill="#FBE62E" stroke="black" stroke-width="0.895188" stroke-linecap="round" stroke-linejoin="round"/>
<path d="M196.422 133.705H207.336" stroke="black" stroke-width="0.895188" stroke-linecap="round"/>
<path d="M195.769 125.384C196.737 125.384 197.522 124.599 197.522 123.63C197.522 122.662 196.737 121.877 195.769 121.877C194.8 121.877 194.015 122.662 194.015 123.63C194.015 124.599 194.8 125.384 195.769 125.384Z" fill="black"/>
<path d="M206.964 125.384C207.932 125.384 208.717 124.599 208.717 123.63C208.717 122.662 207.932 121.877 206.964 121.877C205.996 121.877 205.211 122.662 205.211 123.63C205.211 124.599 205.996 125.384 206.964 125.384Z" fill="black"/>
<path d="M140.671 178.473C149.645 178.473 156.919 171.198 156.919 162.224C156.919 153.25 149.645 145.975 140.671 145.975C131.697 145.975 124.422 153.25 124.422 162.224C124.422 171.198 131.697 178.473 140.671 178.473Z" fill="black" stroke="black" stroke-width="0.895188" stroke-miterlimit="10"/>
<path d="M141.366 177.012C150.34 177.012 157.615 169.737 157.615 160.763C157.615 151.789 150.34 144.515 141.366 144.515C132.392 144.515 125.117 151.789 125.117 160.763C125.117 169.737 132.392 177.012 141.366 177.012Z" fill="#00AC6B" stroke="black" stroke-width="0.895188" stroke-linecap="round" stroke-linejoin="round"/>
<path d="M135.742 159.328C136.71 159.328 137.495 158.543 137.495 157.575C137.495 156.607 136.71 155.822 135.742 155.822C134.773 155.822 133.988 156.607 133.988 157.575C133.988 158.543 134.773 159.328 135.742 159.328Z" fill="black"/>
<path d="M146.937 159.328C147.905 159.328 148.69 158.543 148.69 157.575C148.69 156.607 147.905 155.822 146.937 155.822C145.969 155.822 145.184 156.607 145.184 157.575C145.184 158.543 145.969 159.328 146.937 159.328Z" fill="black"/>
<path d="M136.072 169.114C137.23 167.449 139.159 166.36 141.339 166.36C143.519 166.36 145.448 167.449 146.605 169.114" stroke="black" stroke-width="0.895188" stroke-linecap="round" stroke-linejoin="round"/>
<path d="M256.874 99.0389C265.848 99.0389 273.122 91.7641 273.122 82.7902C273.122 73.8163 265.848 66.5415 256.874 66.5415C247.9 66.5415 240.625 73.8163 240.625 82.7902C240.625 91.7641 247.9 99.0389 256.874 99.0389Z" fill="black" stroke="black" stroke-width="0.895188" stroke-miterlimit="10"/>
<path d="M257.538 97.9257C266.512 97.9257 273.787 90.6509 273.787 81.6769C273.787 72.703 266.512 65.4282 257.538 65.4282C248.564 65.4282 241.289 72.703 241.289 81.6769C241.289 90.6509 248.564 97.9257 257.538 97.9257Z" fill="#FFA9C6" stroke="black" stroke-width="0.895188" stroke-linecap="round" stroke-linejoin="round"/>
<path d="M249.66 78.1297C249.66 76.8986 250.658 75.9009 251.889 75.9009C253.12 75.9009 254.118 76.8986 254.118 78.1297" stroke="black" stroke-width="0.895188" stroke-linecap="round" stroke-linejoin="round"/>
<path d="M260.965 78.1507C260.965 76.9196 261.962 75.9219 263.193 75.9219C264.425 75.9219 265.422 76.9196 265.422 78.1507" stroke="black" stroke-width="0.895188" stroke-linecap="round" stroke-linejoin="round"/>
<path d="M263.704 85.17C263.704 88.5744 260.944 91.3344 257.539 91.3344C254.135 91.3344 251.375 88.5744 251.375 85.17C255.384 83.8789 259.695 83.8789 263.704 85.17Z" fill="black" stroke="black" stroke-width="0.895188" stroke-linecap="round" stroke-linejoin="round"/>
<path d="M257.541 91.3344C259.197 91.3344 260.699 90.6811 261.808 89.6167C260.723 88.3278 259.101 87.5078 257.286 87.5078C255.601 87.5078 254.083 88.2123 253.008 89.3434C254.134 90.5656 255.748 91.3322 257.543 91.3322L257.541 91.3344Z" fill="#FB5D96" stroke="black" stroke-width="0.895188" stroke-linecap="round" stroke-linejoin="round"/>
<rect x="16" y="214" width="48" height="48" rx="12" fill="white"/>
<path d="M32.0766 241.606C32.0766 243.186 30.7857 244.477 29.2053 244.477C27.625 244.477 26.334 243.186 26.334 241.606C26.334 240.025 27.625 238.734 29.2053 238.734H32.0766V241.606Z" fill="#E01E5A"/>
<path d="M33.5234 241.606C33.5234 240.025 34.8144 238.734 36.3948 238.734C37.9751 238.734 39.2661 240.025 39.2661 241.606V248.795C39.2661 250.376 37.9751 251.666 36.3948 251.666C34.8144 251.666 33.5234 250.376 33.5234 248.795V241.606Z" fill="#E01E5A"/>
<path d="M36.3948 230.076C34.8144 230.076 33.5234 228.785 33.5234 227.205C33.5234 225.624 34.8144 224.333 36.3948 224.333C37.9751 224.333 39.2661 225.624 39.2661 227.205V230.076H36.3948Z" fill="#36C5F0"/>
<path d="M36.3948 231.523C37.9751 231.523 39.2661 232.814 39.2661 234.394C39.2661 235.975 37.9751 237.266 36.3948 237.266H29.2053C27.625 237.266 26.334 235.975 26.334 234.394C26.334 232.814 27.625 231.523 29.2053 231.523H36.3948Z" fill="#36C5F0"/>
<path d="M47.9238 234.394C47.9238 232.814 49.2148 231.523 50.7952 231.523C52.3755 231.523 53.6665 232.814 53.6665 234.394C53.6665 235.975 52.3755 237.266 50.7952 237.266H47.9238V234.394Z" fill="#2EB67D"/>
<path d="M46.477 234.394C46.477 235.975 45.186 237.266 43.6057 237.266C42.0254 237.266 40.7344 235.975 40.7344 234.394V227.205C40.7344 225.624 42.0254 224.333 43.6057 224.333C45.186 224.333 46.477 225.624 46.477 227.205V234.394Z" fill="#2EB67D"/>
<path d="M43.6057 245.924C45.186 245.924 46.477 247.215 46.477 248.795C46.477 250.376 45.186 251.666 43.6057 251.666C42.0254 251.666 40.7344 250.376 40.7344 248.795V245.924H43.6057Z" fill="#ECB22E"/>
<path d="M43.6057 244.477C42.0254 244.477 40.7344 243.186 40.7344 241.606C40.7344 240.025 42.0254 238.734 43.6057 238.734H50.7952C52.3755 238.734 53.6665 240.025 53.6665 241.606C53.6665 243.186 52.3755 244.477 50.7952 244.477H43.6057Z" fill="#ECB22E"/>
<rect x="15.5" y="213.5" width="49" height="49" rx="12.5" stroke="#081531" stroke-opacity="0.2"/>
</svg>
