<svg width="177" height="48" viewBox="0 0 177 48" fill="none" xmlns="http://www.w3.org/2000/svg">
<g clip-path="url(#clip0_608_12665)">
<path d="M15.0764 40.3344C14.4393 37.1749 13.006 32.8374 8.1752 19.3429H0L11.201 47.3492H18.8452L29.4624 19.3428H21.4464C16.8811 32.5693 15.6072 36.7999 15.0764 40.3342V40.3344Z" fill="white"/>
<path d="M43.8894 18.7539C35.5021 18.7539 29.5562 25.0192 29.5562 33.4267C29.5562 42.1014 35.714 47.8848 44.3139 47.8848C49.7775 47.8848 54.4475 45.0264 56.6672 40.9497L51.0556 37.8713C49.9407 40.0666 47.6582 41.6196 44.367 41.6196C40.492 41.6196 37.4659 39.1562 37.0945 35.7292H58.1691C58.5408 24.4836 52.3297 18.7539 43.8894 18.7539ZM37.0415 30.4275C37.3067 27.1612 40.1203 24.8585 43.8894 24.8585C47.6585 24.8585 50.3656 27.1612 50.5249 30.4275H37.0415Z" fill="white"/>
<path d="M88.4295 19.3428H80.8916V47.3492H88.4295V19.3428Z" fill="white"/>
<path d="M125.064 13.1316C126.072 13.1316 127.24 13.2921 128.408 13.6132V7.50872C127.134 7.0805 125.383 6.75879 123.631 6.75879C118.641 6.75879 113.651 9.43637 113.651 17.3616V19.3431H102.657V18.4327C102.232 14.4163 103.825 13.1316 106.532 13.1316C107.541 13.1316 108.709 13.2921 109.877 13.6132V7.50872C108.603 7.0805 106.851 6.75879 105.099 6.75879C100.109 6.75879 95.119 9.43637 95.119 17.3616V19.3431H91.8276V25.2848H95.119V47.3494H102.657V25.2848H113.651V47.3494H121.189V25.2848H128.408V19.3431H121.189V18.4327C120.764 14.4163 122.356 13.1316 125.064 13.1316Z" fill="white"/>
<path d="M69.451 27.9245V26.8309L68.6311 19.3428H62.0723V47.3491H69.451V36.0001C69.451 30.08 73.503 26.4085 77.9495 26.4085V19.0215C72.7288 19.5455 69.4512 22.5773 69.451 27.9246V27.9245Z" fill="white"/>
<path d="M88.4897 9.22656H80.8301V15.3218H88.4897V9.22656Z" fill="white"/>
<path d="M161.688 19.0989V38.003L161.752 38.0023C163.01 28.453 168.611 22.2117 177.002 19.2407V0C167.351 1.69766 161.688 7.85166 161.688 19.0989Z" fill="#14E5C5"/>
<path d="M143.694 35.2668L159.008 47.9992V22.7462L143.694 10.0137V35.2668Z" fill="#14E5C5"/>
</g>
<defs>
<clipPath id="clip0_608_12665">
<rect width="177" height="48" fill="white"/>
</clipPath>
</defs>
</svg>
