<?xml version="1.0" encoding="UTF-8"?><svg version="1.1" width="924px" height="318px" viewBox="0 0 924.0 318.0" xmlns="http://www.w3.org/2000/svg" xmlns:xlink="http://www.w3.org/1999/xlink"><defs><clipPath id="i0"><path d="M20.1087749,0 C31.2145446,0 40.2175498,9.00300519 40.2175498,20.1087749 C40.2175498,31.2145446 31.2145446,40.2175498 20.1087749,40.2175498 C9.00300519,40.2175498 0,31.2145446 0,20.1087749 C0,9.00300519 9.00300519,0 20.1087749,0 Z"></path></clipPath><clipPath id="i1"><path d="M282.643735,0 C288.905849,0 294.02586,5.12001162 294.02586,11.3821253 L294.02586,157.634833 C294.02586,163.896946 288.905849,169.016958 282.643735,169.016958 C277.14538,169.016958 272.400176,165.035513 271.45255,159.721025 C263.677062,167.500049 253.811847,171.48503 242.238782,171.48503 C212.268327,171.48503 187.987167,144.357455 187.987167,110.971302 C187.987167,77.5851484 212.268327,50.457573 242.238782,50.457573 C253.811847,50.457573 263.486123,54.2516148 271.265146,62.030638 L271.265146,11.3821253 C271.265146,5.12001162 276.385157,0 282.643735,0 Z M401.39406,2.84217094e-14 C407.656174,2.84217094e-14 412.776185,5.12001162 412.776185,11.3821253 L412.776185,157.634833 C412.776185,163.896946 407.656174,169.016958 401.39406,169.016958 C395.892169,169.016958 391.150501,165.035513 390.202874,159.721025 C382.423851,167.500049 372.562171,171.48503 360.989106,171.48503 C331.018652,171.48503 306.737492,144.357455 306.737492,110.971302 C306.737492,77.5851484 331.018652,50.457573 360.989106,50.457573 C372.562171,50.457573 382.236447,54.2516148 390.011935,62.030638 L390.011935,11.3821253 C390.011935,5.12001162 395.135482,2.84217094e-14 401.39406,2.84217094e-14 Z M126.334872,50.2666334 C151.567195,50.2666334 172.811,69.6187215 178.882174,95.7951345 C179.260517,97.6903874 179.642397,100.158459 179.8298,103.952501 C180.208144,111.162241 174.518849,118.559385 164.653633,118.559385 L164.653633,118.177506 L95.4167911,118.177506 C98.2632064,135.439865 111.162241,148.52984 126.334872,148.52984 C139.237443,148.52984 147.20387,141.323636 151.376255,137.716998 C155.73958,134.113895 161.619814,132.975329 166.361482,136.200088 C172.054313,140.185069 173.001939,148.342436 168.260271,153.653387 C158.585995,164.46623 145.117677,171.29409 126.334872,171.29409 C96.3644175,171.29409 72.0832575,144.166515 72.0832575,110.780362 C72.0832575,77.3942087 96.3644175,50.2666334 126.334872,50.2666334 Z M498.140357,36.6109118 C498.140357,29.9704547 503.638712,24.8504431 510.279169,25.2287865 C516.350343,25.6071299 520.901071,30.9180812 520.901071,36.9892552 L520.901071,52.9256449 L531.33557,52.9256449 C537.028401,52.9256449 541.770069,57.8547169 541.38819,63.7349512 C541.009846,69.2368422 536.268178,73.2218236 530.957227,73.2218236 L520.901071,73.2218236 L520.901071,157.825772 C520.901071,164.08435 515.971999,169.016958 509.331542,169.395301 C503.072965,169.395301 497.949417,164.27529 497.949417,158.016712 L497.949417,73.4127632 L488.275141,73.4127632 C482.585846,73.4127632 477.840642,68.4801554 478.222521,62.599921 C478.600865,57.0980301 483.342533,53.1130487 488.653484,53.1130487 L498.140357,53.1130487 Z M22.7642505,65.8246797 C31.6783039,54.6299582 47.2328143,48.5623201 63.7384872,51.0268561 C69.0494384,51.9744826 73.2218236,56.528747 73.2218236,62.2180417 C73.2218236,68.0982761 68.6675591,73.0308839 62.9782644,73.4127632 L60.7011322,73.4127632 C38.6971044,70.9446914 22.7642505,88.3979906 22.7642505,109.641796 L22.7642505,157.634833 C22.7642505,164.27529 17.2623596,169.395301 10.6219026,169.016958 C4.55072856,168.638615 0,163.327663 0,157.256489 L0,64.3042343 C0,58.0456566 5.12001162,52.9256449 11.3821253,52.9256449 C17.0714199,52.9256449 22.7642505,57.2854338 22.7642505,64.3042343 Z M451.855169,62.9782644 C458.113747,62.9782644 463.233758,68.0982761 463.233758,74.3603897 L463.233758,157.634833 C463.233758,163.896946 458.113747,169.016958 451.855169,169.016958 C445.593055,169.016958 440.473044,163.896946 440.473044,157.634833 L440.473044,74.3603897 C440.473044,68.0982761 445.593055,62.9782644 451.855169,62.9782644 Z M242.429721,73.0308839 C224.976422,73.0308839 210.938821,90.1058398 210.938821,110.971302 C210.938821,132.027703 224.976422,148.908183 242.429721,148.908183 C259.692081,148.908183 273.920621,132.027703 273.920621,110.971302 C273.920621,89.9149001 259.883021,73.0308839 242.429721,73.0308839 Z M360.989106,73.0308839 C343.535807,73.0308839 329.501742,90.1058398 329.501742,110.971302 C329.501742,132.027703 343.535807,148.908183 360.989106,148.908183 C378.442406,148.908183 392.480007,132.027703 392.480007,110.971302 C392.480007,89.9149001 378.442406,73.0308839 360.989106,73.0308839 Z M126.147469,73.2218236 C112.488211,73.2218236 100.727742,83.6563224 96.3644175,98.4506101 L155.93052,98.4506101 C151.567195,83.8437261 139.80319,73.2218236 126.147469,73.2218236 Z"></path></clipPath><clipPath id="i2"><path d="M158.964339,0 C246.757919,0 317.928677,71.1707586 317.928677,158.964339 C317.928677,246.757919 246.757919,317.928677 158.964339,317.928677 C71.1707586,317.928677 0,246.757919 0,158.964339 C0,71.1707586 71.1707586,0 158.964339,0 Z"></path></clipPath><clipPath id="i3"><path d="M172.054313,0 C181.159306,0 188.55645,7.39714386 188.55645,16.5021369 C188.55645,25.6106658 181.159306,33.0078097 172.054313,33.0078097 C163.136724,33.0078097 155.93052,25.9890092 155.54864,17.2623596 L121.023921,9.86521575 L110.402018,59.566102 C134.683179,60.5137285 156.499803,67.9108723 172.432656,79.2929976 C176.605042,75.3080162 182.297872,72.8434802 188.55645,72.8434802 C201.268081,72.8434802 211.699044,83.0870393 211.699044,95.9860741 C211.699044,105.469411 206.009749,113.626777 198.043322,117.233415 C198.421666,119.507011 198.612605,121.975083 198.612605,124.252216 C198.612605,160.102905 157.069086,188.938329 105.85129,188.938329 C54.6334941,188.938329 13.0899745,159.911965 13.0899745,124.252216 C13.0899745,121.784144 13.2773782,119.507011 13.6592575,117.233415 C5.68929468,113.626777 0,105.66035 0,96.1770138 C0,83.4653827 10.2435592,73.0344198 23.1425939,73.0344198 C29.1475624,73.0257767 34.9239227,75.3363208 39.2663874,79.4839372 C55.3901809,67.9108723 77.5851484,60.5137285 102.244652,59.7535057 L114.008656,4.36332482 C114.19606,3.2247587 114.765343,2.27713224 115.71297,1.70784918 C116.473192,1.13856612 117.611759,0.947626459 118.750325,1.13856612 L157.256489,9.29593269 C159.911965,3.79404176 165.604796,0 172.054313,0 Z M72.6525405,150.237689 C70.9446914,148.533376 68.2892157,148.533376 66.5813665,150.237689 C64.8770533,151.945538 64.8770533,154.601014 66.5813665,156.308863 C77.7760881,167.500049 99.4017725,168.451211 105.85129,168.451211 C112.109868,168.451211 133.735552,167.690988 145.117677,156.308863 C146.634587,154.601014 146.634587,151.945538 145.117677,150.237689 C143.409828,148.533376 140.754353,148.533376 139.046503,150.237689 C132.027703,157.447429 116.664132,159.911965 105.85129,159.911965 C95.0384477,159.911965 79.8622806,157.447429 72.6525405,150.237689 Z M142.080322,96.1770138 C132.975329,96.1770138 125.578185,103.574158 125.578185,112.679151 C125.578185,121.784144 132.975329,129.181288 142.080322,129.181288 C151.188851,129.181288 158.585995,121.593204 158.585995,112.679151 C158.585995,103.574158 151.188851,96.1770138 142.080322,96.1770138 Z M69.2403781,95.9860741 C60.1318491,95.9860741 52.7347053,103.383218 52.7347053,112.488211 C52.7347053,121.593204 60.1318491,129.181288 69.2403781,128.993884 C78.3453711,128.993884 85.742515,121.593204 85.742515,112.488211 C85.742515,103.383218 78.3453711,95.9860741 69.2403781,95.9860741 Z"></path></clipPath></defs><g transform="translate(381.66716429824396 76.63752194737941)"><g transform="translate(431.746393943936 12.708095131442395)"><g clip-path="url(#i0)"><polygon points="0,0 40.2175498,0 40.2175498,40.2175498 0,40.2175498 0,0" stroke="none" fill="#FF4500"></polygon></g></g><g transform=""><g clip-path="url(#i1)"><polygon points="0,0 541.409758,0 541.409758,171.48503 0,171.48503 0,0" stroke="none" fill="#222222"></polygon></g></g></g><g clip-path="url(#i2)"><polygon points="0,0 317.928677,0 317.928677,317.928677 0,317.928677 0,0" stroke="none" fill="#FF4500"></polygon></g><g transform="translate(53.30398834348733 62.978264436872536)"><g clip-path="url(#i3)"><polygon points="0,0 211.699044,0 211.699044,188.938329 0,188.938329 0,0" stroke="none" fill="#FFFFFF"></polygon></g></g></svg>