<svg width="62" height="32" viewBox="0 0 62 32" fill="none" xmlns="http://www.w3.org/2000/svg">
<g clip-path="url(#clip0_769_15370)">
<path d="M39.7161 21.9363C46.5202 19.2262 50.7584 17.6694 62.0024 14.9304C55.8903 15.3341 42.4262 16.2278 33.1427 18.073C33.1138 18.0442 39.572 21.8498 39.7161 21.9363Z" fill="white"/>
<path d="M18.5566 30.9604H27.4654C29.1952 28.3079 31.0116 26.9817 33.0009 25.5402C31.4729 24.9347 29.916 24.3581 28.3303 23.8103C22.6506 26.2898 19.4792 29.6341 18.5566 30.9604Z" fill="white"/>
<path d="M20.3131 21.2439C12.3846 24.0693 7.97349 27.1831 5.00391 30.9599H14.8064C15.7578 29.6049 19.4194 25.7703 26.2811 23.1179C24.3495 22.4548 21.0916 21.4457 20.3131 21.2439Z" fill="white"/>
<path d="M24.4069 15.2476H2.69727C24.5799 19.2262 35.132 24.3293 52.1423 31.5082C50.6431 30.4415 27.2324 16.6603 24.4069 15.2476Z" fill="white"/>
<path d="M47.616 2.64844C44.7329 2.64844 42.8301 4.34946 42.8301 6.88658C42.8301 9.30838 44.9059 11.1247 47.616 11.1247C50.4414 11.1247 52.4308 9.36604 52.4308 6.88658C52.4308 4.34946 50.4991 2.64844 47.616 2.64844ZM47.616 9.0489C46.4051 9.0489 45.4537 8.06865 45.4537 6.88658C45.4537 5.70451 46.4339 4.72426 47.616 4.72426C48.7981 4.72426 49.7783 5.70451 49.7783 6.88658C49.7783 8.06865 48.8269 9.0489 47.616 9.0489Z" fill="white"/>
<path d="M37.9597 2.76348H36.2298V4.95463H37.4119C38.3633 4.95463 39.1417 5.79073 39.1417 6.79981C39.1417 8.03954 38.1326 8.64499 37.4695 8.67382H35.336V0.48584H32.6836V10.865H37.4695C39.5742 10.865 41.8518 9.27927 41.8518 6.8863C41.7942 4.32035 39.8337 2.76348 37.9597 2.76348Z" fill="white"/>
<path d="M14.0303 6.79973C14.0303 5.76182 14.8664 4.92572 15.8755 4.92572H17.9802L16.2791 7.77998H18.8163L20.5173 5.12754V2.79224H15.443C13.2231 2.79224 11.4355 4.60858 11.4355 6.82856C11.4355 9.04854 13.2231 10.8649 15.443 10.8649H20.5173V8.67374H15.8755C14.8664 8.67374 14.0303 7.83765 14.0303 6.79973Z" fill="white"/>
<path d="M6.4757 0.486328H0.0175781V10.8655H2.58353V2.76397H5.92792C6.85051 2.76397 7.83076 3.2541 7.83076 4.60915C7.83076 5.64706 7.08115 6.45433 6.07207 6.45433H3.50612V8.61664H5.32247C6.87934 8.67431 7.54245 9.39508 7.57128 10.9231V13.1431H10.2814V10.1735C10.2814 8.61664 9.18581 7.80938 8.11907 7.5499C9.79126 6.97328 10.6274 5.67589 10.6274 4.09019C10.5409 1.87021 8.43621 0.486328 6.4757 0.486328Z" fill="white"/>
<path d="M59.5808 6.54058C61.3683 5.99279 61.8873 5.01254 61.8873 3.05203V2.76373H59.2637V3.19619C59.2637 4.49358 58.7159 5.445 57.4762 5.445H56.2364V0.486084H53.584V10.8652H56.2364V7.63615H57.1879C58.5141 7.63615 59.3213 8.38575 59.3213 9.59665V10.8652H61.9738V9.68315C61.9738 8.12628 61.2818 7.00187 59.5808 6.54058Z" fill="white"/>
<path d="M24.3799 6.8C24.3799 5.76209 25.216 4.92599 26.2251 4.92599H28.3298L26.6288 7.75142H29.1659L30.8669 5.09898V2.76367H25.7927C23.5727 2.76367 21.7852 4.58002 21.7852 6.8C21.7852 9.01998 23.5727 10.8363 25.7927 10.8363H30.8669V8.64518H26.1963C25.216 8.67401 24.3799 7.83791 24.3799 6.8Z" fill="white"/>
</g>
<defs>
<clipPath id="clip0_769_15370">
<rect width="61.9772" height="31.0474" fill="white" transform="translate(0.0117188 0.476318)"/>
</clipPath>
</defs>
</svg>
