<svg fill="none" height="126" viewBox="0 0 114 126" width="114" xmlns="http://www.w3.org/2000/svg"><g stroke="#01090f" stroke-width=".8"><path d="m21.3749 49.7513v-.0003c-.0004-.5909-.2918-1.1483-.6936-1.5501-.4017-.4018-.9591-.6932-1.55-.6932h-4.4241c-.6439 0-1.2116.2165-1.6194.6242-.4077.4077-.6242.9755-.6242 1.6194v16.9586c0 .6439.2165 1.2116.6242 1.6194.4078.4077.9755.6242 1.6194.6242h4.4241c.644 0 1.2117-.2165 1.6194-.6242.4078-.4078.6242-.9755.6242-1.6194z" fill="#fceb64"/><path d="m85.4625 63.5755c0 1.8746-1.0137 3.5512-2.8572 4.228-1.2878.3672-2.7078.7182-3.9319.7182h-5.8986c-2.7115 0-5.4139-.5421-7.9318-1.8013l.0001-.0001-.0064-.003c-4.3137-2.063-9.1924-2.2629-13.5199-.5922h-.6626-.065l-.0616.0206c-.2095.0699-.3788.0551-.4713.014-.0424-.0189-.0653-.041-.0786-.0614-.0129-.0196-.0295-.0567-.0295-.1262v-.065l-.0206-.0616c-.0699-.2096-.0551-.3788-.014-.4713.0189-.0424.041-.0653.0614-.0787.0196-.0129.0567-.0294.1262-.0294h.065l.0616-.0206.553-.1846.0086-.0028.0084-.0033c4.6794-1.8 9.9119-1.4449 14.4333.542 2.2718 1.1339 4.9113 1.6968 7.5437 1.6968h5.8986c1.1445 0 2.4782-.1902 3.629-.5736l.0071-.0023.007-.0026c.815-.3057 1.3538-.7779 1.6815-1.3512.323-.5651.4216-1.1944.4216-1.7884 0-1.0492-.6279-2.5363-2.3176-2.9653l-4.5973-1.4707-.0595-.019h-.0616c.0003 0-.0045-.0001-.0165-.001-.0132-.001-.0306-.0026-.0528-.0049-.0446-.0045-.1016-.0113-.17-.0199-.0681-.0085-.1449-.0184-.2288-.0293-.0835-.0108-.1736-.0225-.2667-.0341-.3644-.0456-.804-.0954-1.1096-.0954v-.0002l-.0133.0004c-5.423.181-10.6675-1.8076-14.648-5.4254-7.292-6.7303-17.571-9.1575-27.0984-6.7287l-.0019.0005-9.2166 2.3966-.2994.0778v.3093l.0006 16.9586.0001.4h.3999 1.8436c1.9845 0 4.1448.3615 5.934 1.0772.0002 0 .0004.0001.0006.0002l20.0897 8.1091c.0004.0002.0009.0004.0014.0006 6.3781 2.6256 13.3154 2.248 19.4932-.7467 2.7522-1.2845 5.8518-2.5589 9.4925-3.2871l.0093-.0019.0092-.0023c3.7978-.9493 7.1995-3.6011 9.2771-7.0002l.0007-.0012 10.5075-17.3283.001-.0016c.951-1.5857.356-3.1878-.795-4.0507-1.1471-.86-2.8857-1.0208-4.2443.2336l-.2244.2072.0018.0035-12.675 11.9506c-1.0854.9033-2.1383 1.5973-3.3471 1.9424l-1.2968.3702 1.289.3967 2.3966.7376-.0001.0002.0125.0034c1.851.5048 3.0233 2.0039 3.0233 4.0382z" fill="#fceb64"/><path d="m68.3807 32.9272v.0491c0 .6759.1688 1.1092.4358 1.3762m-.4358-1.4253 2.1496 2.6779c-.9249-.3232-1.673-.6467-1.9966-.9697l.2828-.2829m-.4358-1.4253-.0119-.0476c-.1295-.5193.0987-.9304.6323-1.464.3734-.3735.8557-.5549 1.5292-.7104m-2.1496 2.222 2.1496-2.222m-1.7138 3.6473c.1291.1287.393.2887.8016.4704.2654.118.5734.2373.9122.358m-1.7138-.8284 1.7138.8284m0 0v-4.4757m-5.2017 7.0025.0001.0001c1.1287.9404 2.934 1.6718 5.2016 2.2211v5.4505c-1.6106-.4091-3.237-1.2623-4.8803-2.5766l-.3003-.2402-.2518.2906-2.3966 2.765-.2652.3059.3091.2615c2.3537 1.9912 4.8893 3.1198 7.6005 3.5435v2.0503.4h.4 2.0275.4v-.4-1.8478c2.0845-.2184 3.7205-.7887 5.022-1.9041 1.3861-1.1879 2.1672-2.9614 2.1672-4.9124 0-1.9189-.577-3.5254-1.803-4.5468-1.1588-.9655-3.039-1.7144-5.3862-2.4414v-5.0851c1.394.2456 2.6761.8959 3.9967 1.7213l.3247.203.2169-.3156 2.0275-2.9496.2207-.321-.315-.2291c-1.9879-1.4456-4.1487-2.204-6.4715-2.439v-1.2931-.4h-.4-2.0275-.4v.4 1.2981c-1.9191.2211-3.544.7924-4.8374 1.9008-1.3984 1.1984-1.9833 2.7953-1.9833 4.7278v.0002c.0007 1.9334.5868 3.3477 1.8036 4.3621zm8.8394 7.6553c-.2511.0837-.5228.15-.8102.2116v-4.8721c.4153.1306.7712.2615 1.0647.4006.4129.1956.6581.3874.7829.5748l.0444.0667.0667.0444c.3776.2516.5594.805.5594 1.5107 0 .5803-.2801 1.0365-.8044 1.5607-.2147.2147-.5177.374-.9035.5026z" fill="#f78400"/></g></svg>