<svg width="550" height="117" viewBox="0 0 550 117" fill="none" xmlns="http://www.w3.org/2000/svg">
<path d="M19.4112 35.4933L23.6611 24.04H20.8518L18.907 29.0103L19.3392 24.04H16.3858L12.1359 35.4933H14.8731L16.9621 29.9467L16.6019 35.3492L19.4112 35.4933ZM22.7247 35.4933L26.9746 24.04H24.3094L19.9875 35.4933H22.7247ZM30.4322 34.7729L30.2881 29.0103L34.322 24.3282L30.4322 34.7729ZM50.0251 30.7391L36.3389 34.2687L36.6991 33.1882H33.8177L34.7542 30.451H37.2033L37.9236 28.362L35.4745 28.5061L36.3389 26.201H38.716L39.5083 24.1121H31.8008L28.9916 27.4256L30.3602 24.04H27.6229L23.373 35.4933H26.1823L27.9831 30.595V35.4933H31.5847L18.6909 38.8788C17.3462 39.2629 16.1457 39.4311 15.0892 39.383C14.0327 39.335 13.2164 39.0468 12.6401 38.5186C11.3435 37.5582 10.8873 36.0935 11.2715 34.1246C11.5116 32.828 12.0398 31.5795 12.8562 30.3789C10.9353 32.3958 9.51864 34.1006 8.60628 35.4933C7.59782 36.982 6.94952 38.4466 6.66139 39.8873C6.37326 41.3279 6.54131 42.5044 7.16562 43.4169C8.84636 46.2022 12.52 46.3942 18.1866 43.9931L50.0251 30.7391Z" fill="white"/>
<path d="M104.6 28.8389L98.8132 32.4639L104.6 36.0889L98.8132 39.714L93.0269 36.0587L98.8132 32.4337L93.0269 28.8389L98.8132 25.2139L104.6 28.8389ZM98.7824 40.8619L104.569 37.2369L110.355 40.8619L104.569 44.4869L98.7824 40.8619ZM104.6 36.0587L110.386 32.4337L104.6 28.8389L110.355 25.2139L116.141 28.8389L110.355 32.4639L116.141 36.0889L110.355 39.714L104.6 36.0587Z" fill="white"/>
<path d="M120.667 28.8387H125.345C128.331 28.8387 130.793 30.5304 130.793 34.3971V35.2128C130.793 39.1097 128.485 40.8618 125.438 40.8618H120.667V28.8387ZM123.283 31.0138V38.6565H125.284C126.977 38.6565 128.115 37.569 128.115 35.1523V34.518C128.115 32.1013 126.915 31.0138 125.191 31.0138H123.283ZM132.178 31.1346H134.271L134.61 33.4002C135.01 31.8596 136.025 31.044 137.872 31.044H138.519V33.6419H137.441C135.318 33.6419 134.794 34.3669 134.794 36.4211V40.892H132.209V31.1346H132.178ZM139.042 36.2096V35.9378C139.042 32.6752 141.165 30.8929 144.059 30.8929C147.013 30.8929 149.076 32.6752 149.076 35.9378V36.2096C149.076 39.4118 147.075 41.1336 144.059 41.1336C140.858 41.1034 139.042 39.4118 139.042 36.2096V36.2096ZM146.429 36.1794V35.9378C146.429 34.1253 145.505 33.0377 144.028 33.0377C142.581 33.0377 141.627 34.0346 141.627 35.9378V36.1794C141.627 37.9315 142.55 38.9284 144.028 38.9284C145.505 38.8982 146.429 37.9315 146.429 36.1794ZM150.43 31.1346H152.584L152.83 32.9773C153.354 31.7388 154.462 30.8929 156.093 30.8929C158.617 30.8929 160.279 32.6752 160.279 35.968V36.2399C160.279 39.442 158.432 41.1336 156.093 41.1336C154.523 41.1336 153.446 40.4388 152.923 39.3211V44.2451H150.399L150.43 31.1346ZM157.663 36.1794V35.968C157.663 34.0346 156.647 33.0679 155.293 33.0679C153.846 33.0679 152.892 34.1555 152.892 35.968V36.1492C152.892 37.8711 153.815 38.9586 155.262 38.9586C156.739 38.9284 157.663 37.992 157.663 36.1794ZM164.095 39.0795L163.88 40.8618H161.664V27.8721H164.188V32.8565C164.742 31.5877 165.85 30.8929 167.419 30.8929C169.789 30.9231 171.544 32.5242 171.544 35.7565V36.0586C171.544 39.2909 169.882 41.1336 167.358 41.1336C165.696 41.1034 164.619 40.3482 164.095 39.0795V39.0795ZM168.897 36.0586V35.8169C168.897 34.0346 167.912 33.0377 166.527 33.0377C165.111 33.0377 164.126 34.1555 164.126 35.8471V36.0586C164.126 37.8711 165.08 38.9284 166.496 38.9284C168.004 38.9284 168.897 37.992 168.897 36.0586V36.0586ZM172.652 36.2096V35.9378C172.652 32.6752 174.776 30.8929 177.669 30.8929C180.623 30.8929 182.686 32.6752 182.686 35.9378V36.2096C182.686 39.4118 180.654 41.1336 177.669 41.1336C174.468 41.1034 172.652 39.4118 172.652 36.2096V36.2096ZM180.069 36.1794V35.9378C180.069 34.1253 179.146 33.0377 177.669 33.0377C176.222 33.0377 175.268 34.0346 175.268 35.9378V36.1794C175.268 37.9315 176.191 38.9284 177.669 38.9284C179.146 38.8982 180.069 37.9315 180.069 36.1794ZM186.071 35.8169L182.593 31.1346H185.579L187.579 34.0648L189.611 31.1346H192.565L189.026 35.7867L192.75 40.8618H189.826L187.549 37.6294L185.333 40.8618H182.285L186.071 35.8169Z" fill="white"/>
<g clip-path="url(#clip0_9292_27374)">
<path d="M246.759 28.182C246.747 28.0711 246.648 28.0217 246.573 28.0217C246.499 28.0217 244.879 27.8985 244.879 27.8985C244.879 27.8985 243.753 26.7769 243.617 26.6659C243.493 26.5427 243.258 26.5796 243.159 26.6043C243.147 26.6043 242.912 26.6782 242.529 26.8015C242.145 25.7045 241.49 24.7061 240.314 24.7061H240.203C239.881 24.2871 239.461 24.0898 239.115 24.0898C236.393 24.0898 235.082 27.4794 234.674 29.205C233.61 29.5378 232.855 29.7597 232.769 29.7967C232.175 29.9815 232.163 29.9939 232.089 30.5485C232.027 30.9676 230.48 42.8866 230.48 42.8866L242.516 45.1298L249.047 43.7247C249.06 43.7001 246.771 28.2929 246.759 28.182V28.182ZM241.861 26.9741C241.564 27.0603 241.205 27.1713 240.846 27.2945V27.0727C240.846 26.4071 240.76 25.8647 240.599 25.4333C241.217 25.5073 241.601 26.1852 241.861 26.9741ZM239.844 25.5689C240.005 25.988 240.116 26.5796 240.116 27.3931V27.5164C239.449 27.7259 238.743 27.9355 238.014 28.1697C238.422 26.6166 239.201 25.8524 239.844 25.5689ZM239.053 24.8047C239.176 24.8047 239.3 24.854 239.399 24.928C238.521 25.3347 237.593 26.3578 237.21 28.4285C236.628 28.6134 236.072 28.7736 235.54 28.9462C235.985 27.3685 237.098 24.8047 239.053 24.8047Z" fill="white" fill-opacity="0.4"/>
<path d="M246.574 27.9962C246.5 27.9962 244.879 27.8729 244.879 27.8729C244.879 27.8729 243.754 26.7513 243.618 26.6404C243.568 26.5911 243.506 26.5664 243.457 26.5664L242.554 45.129L249.085 43.7238C249.085 43.7238 246.797 28.292 246.784 28.1811C246.735 28.0701 246.648 28.0208 246.574 27.9962V27.9962Z" fill="white" fill-opacity="0.6"/>
<path d="M240.315 31.5956L239.524 33.9745C239.524 33.9745 238.806 33.5924 237.953 33.5924C236.679 33.5924 236.617 34.3935 236.617 34.5908C236.617 35.6754 239.462 36.0945 239.462 38.6459C239.462 40.655 238.188 41.9492 236.468 41.9492C234.39 41.9492 233.351 40.6674 233.351 40.6674L233.908 38.8432C233.908 38.8432 234.996 39.7799 235.912 39.7799C236.518 39.7799 236.765 39.3115 236.765 38.9664C236.765 37.5489 234.44 37.4873 234.44 35.1454C234.44 33.1856 235.85 31.2875 238.707 31.2875C239.771 31.2751 240.315 31.5956 240.315 31.5956V31.5956Z" fill="white"/>
<path d="M256.667 36.0701C256.012 35.725 255.678 35.4169 255.678 35.0101C255.678 34.4924 256.148 34.1596 256.878 34.1596C257.731 34.1596 258.486 34.5048 258.486 34.5048L259.08 32.6929C259.08 32.6929 258.535 32.2738 256.927 32.2738C254.688 32.2738 253.13 33.5557 253.13 35.3552C253.13 36.3783 253.86 37.1548 254.824 37.7094C255.616 38.1408 255.888 38.4613 255.888 38.9297C255.888 39.4104 255.492 39.8048 254.763 39.8048C253.686 39.8048 252.66 39.2502 252.66 39.2502L252.029 41.062C252.029 41.062 252.969 41.6907 254.552 41.6907C256.853 41.6907 258.523 40.5567 258.523 38.5229C258.498 37.4136 257.669 36.6494 256.667 36.0701V36.0701ZM265.846 32.2492C264.708 32.2492 263.817 32.7915 263.137 33.605L263.112 33.5927L264.102 28.4652H261.541L259.042 41.5304H261.603L262.456 37.0685C262.79 35.3799 263.669 34.3322 264.485 34.3322C265.067 34.3322 265.289 34.7266 265.289 35.2813C265.289 35.6264 265.264 36.0701 265.178 36.4152L264.213 41.5304H266.774L267.775 36.255C267.887 35.7004 267.961 35.0348 267.961 34.5787C267.949 33.112 267.194 32.2492 265.846 32.2492V32.2492ZM273.75 32.2492C270.658 32.2492 268.617 35.0224 268.617 38.1162C268.617 40.0883 269.841 41.6907 272.142 41.6907C275.173 41.6907 277.214 38.9913 277.214 35.8236C277.226 33.9871 276.162 32.2492 273.75 32.2492V32.2492ZM272.488 39.7432C271.61 39.7432 271.251 39.0037 271.251 38.0669C271.251 36.6001 272.006 34.2213 273.404 34.2213C274.307 34.2213 274.616 35.0101 274.616 35.762C274.616 37.3274 273.837 39.7432 272.488 39.7432ZM283.782 32.2492C282.05 32.2492 281.073 33.7775 281.073 33.7775H281.048L281.197 32.4094H278.921C278.809 33.3338 278.599 34.7513 278.401 35.799L276.632 45.1542H279.193L279.91 41.3702H279.972C279.972 41.3702 280.504 41.703 281.469 41.703C284.487 41.703 286.454 38.6216 286.454 35.5155C286.441 33.7899 285.662 32.2492 283.782 32.2492V32.2492ZM281.333 39.7678C280.665 39.7678 280.269 39.3857 280.269 39.3857L280.689 37.0069C280.986 35.4045 281.828 34.3569 282.718 34.3569C283.51 34.3569 283.745 35.0841 283.745 35.762C283.757 37.4136 282.768 39.7678 281.333 39.7678V39.7678ZM290.103 28.5884C289.286 28.5884 288.631 29.2417 288.631 30.0675C288.631 30.8194 289.113 31.3494 289.843 31.3494H289.868C290.672 31.3494 291.352 30.807 291.365 29.8703C291.377 29.1184 290.87 28.5884 290.103 28.5884V28.5884ZM286.516 41.5181H289.076L290.808 32.4464H288.235L286.516 41.5181ZM297.339 32.434H295.558L295.644 32.015C295.793 31.1398 296.312 30.3756 297.178 30.3756C297.636 30.3756 297.995 30.5112 297.995 30.5112L298.49 28.5021C298.49 28.5021 298.057 28.2803 297.092 28.2803C296.189 28.2803 295.273 28.5391 294.581 29.1307C293.702 29.8703 293.294 30.9426 293.096 32.0273L293.022 32.4464H291.822L291.439 34.3815H292.639L291.278 41.5304H293.839L295.199 34.3815H296.968L297.339 32.434ZM303.512 32.4464C303.512 32.4464 301.904 36.4769 301.199 38.6832H301.174C301.124 37.9683 300.543 32.4464 300.543 32.4464H297.846L299.393 40.7539C299.417 40.9388 299.405 41.0497 299.331 41.173C299.034 41.7523 298.527 42.3069 297.933 42.7137C297.45 43.0588 296.906 43.293 296.473 43.4409L297.191 45.6102C297.71 45.4993 298.799 45.0679 299.702 44.2174C300.865 43.1328 301.953 41.4441 303.066 39.1516L306.196 32.434H303.512V32.4464Z" fill="white"/>
</g>
<g clip-path="url(#clip1_9292_27374)">
<path d="M363.504 24.5H347.125C345.611 24.5 344.403 25.7107 344.403 27.1986V43.434C344.403 44.9219 345.626 46.1326 347.125 46.1326H363.49C365.004 46.1326 366.212 44.9219 366.212 43.434V27.2132C366.227 25.7107 365.004 24.5 363.504 24.5ZM358.219 28.4677C358.219 28.0738 358.54 27.7529 358.947 27.7529C359.355 27.7529 359.675 28.0738 359.675 28.4677V38.1097C359.675 38.5036 359.355 38.8245 358.947 38.8245C358.54 38.8245 358.219 38.5036 358.219 38.1097V28.4677ZM354.594 28.103C354.594 27.7091 354.914 27.3882 355.322 27.3882C355.73 27.3882 356.05 27.7091 356.05 28.103V38.5619C356.05 38.9558 355.73 39.2767 355.322 39.2767C354.914 39.2767 354.594 38.9558 354.594 38.5619V28.103ZM350.954 28.4677C350.954 28.0738 351.275 27.7529 351.682 27.7529C352.09 27.7529 352.41 28.0738 352.41 28.4677V38.1097C352.41 38.5036 352.09 38.8245 351.682 38.8245C351.275 38.8245 350.954 38.5036 350.954 38.1097V28.4677ZM347.315 29.9118C347.315 29.5179 347.635 29.197 348.043 29.197C348.45 29.197 348.77 29.5179 348.77 29.9118V36.403C348.77 36.7969 348.45 37.1178 348.043 37.1178C347.635 37.1178 347.315 36.7969 347.315 36.403V29.9118ZM363.067 40.9104C362.951 41.0125 360.257 43.2443 355.322 43.2443C350.387 43.2443 347.693 40.9979 347.577 40.9104C347.271 40.6478 347.242 40.1957 347.504 39.8893C347.766 39.583 348.217 39.5538 348.523 39.8164C348.567 39.8456 350.969 41.8148 355.322 41.8148C359.733 41.8148 362.106 39.8456 362.121 39.831C362.427 39.5684 362.878 39.6122 363.14 39.9039C363.402 40.1957 363.373 40.6624 363.067 40.9104ZM363.315 36.403C363.315 36.7969 362.995 37.1178 362.587 37.1178C362.179 37.1178 361.859 36.7969 361.859 36.403V29.9118C361.859 29.5179 362.179 29.197 362.587 29.197C362.995 29.197 363.315 29.5179 363.315 29.9118V36.403Z" fill="white"/>
<path d="M374.685 38.4445C374.685 38.8091 374.409 39.1009 374.016 39.1009C373.637 39.1009 373.36 38.8091 373.36 38.4445V32.172C373.36 31.8074 373.637 31.5156 374.03 31.5156C374.409 31.5156 374.685 31.8074 374.685 32.172V38.4445Z" fill="white"/>
<path d="M383.245 32.173V37.9057C383.245 38.6788 382.837 39.1164 382.168 39.1164H382.109C381.483 39.1164 381.192 38.7517 380.916 38.2266L379.576 35.6301L378.397 32.9461L378.426 35.5426L378.441 38.4454C378.441 38.81 378.164 39.1018 377.771 39.1018C377.392 39.1018 377.116 38.81 377.116 38.4454V32.7127C377.116 31.9979 377.523 31.502 378.251 31.502H378.31C378.979 31.502 379.256 31.8666 379.518 32.3918L380.828 34.9737L381.949 37.4826L381.92 35.0758L381.906 32.173C381.906 31.8083 382.182 31.5165 382.575 31.5165C382.968 31.5165 383.245 31.8229 383.245 32.173Z" fill="white"/>
<path d="M388.545 38.4445C388.545 38.8092 388.269 39.1009 387.876 39.1009C387.497 39.1009 387.221 38.8092 387.221 38.4445V32.7702H385.575C385.24 32.7702 384.964 32.5222 384.964 32.1429C384.964 31.7783 385.24 31.5303 385.575 31.5303H390.191C390.525 31.5303 390.802 31.7783 390.802 32.1575C390.802 32.5222 390.525 32.7702 390.191 32.7702H388.545V38.4445V38.4445Z" fill="white"/>
<path d="M392.535 38.226V32.3329C392.535 31.7786 392.84 31.4722 393.408 31.4868H397.222C397.557 31.4868 397.834 31.7494 397.834 32.1141C397.834 32.4787 397.557 32.7267 397.222 32.7267H393.845V34.5501H396.815C397.15 34.5501 397.412 34.7981 397.412 35.1482C397.412 35.4982 397.15 35.7462 396.815 35.7462H393.845V37.8467H397.208C397.543 37.8467 397.819 38.1093 397.819 38.474C397.819 38.8387 397.543 39.0866 397.208 39.0866H393.364C392.826 39.1012 392.505 38.7949 392.535 38.226Z" fill="white"/>
<path d="M405.36 38.2407C405.535 38.547 405.419 38.9409 405.055 39.1305C404.691 39.3055 404.297 39.1742 404.123 38.8679L402.652 36.1401H401.255L401.269 38.4595C401.269 38.8242 400.993 39.1159 400.599 39.1159C400.221 39.1159 399.944 38.8242 399.944 38.4595V32.3475C399.944 31.7932 400.25 31.4869 400.818 31.5015H403.307C405.04 31.5015 405.753 32.6247 405.753 33.777C405.753 34.8711 405.113 35.6734 404.021 35.8922L405.36 38.2407ZM401.24 34.944H403.337C404.05 34.944 404.414 34.4918 404.414 33.8354C404.414 33.1936 404.021 32.7414 403.322 32.7414H401.24V34.944Z" fill="white"/>
<path d="M408.49 38.5324C407.689 37.8176 407.34 36.709 407.34 35.3087C407.34 33.8937 407.689 32.7997 408.475 32.0995C408.956 31.6765 409.626 31.3848 410.572 31.3848C411.416 31.3848 412.057 31.5744 412.537 31.9828C412.96 32.3183 413.265 32.7997 413.455 33.4707C413.556 33.8208 413.309 34.1709 412.901 34.2438C412.523 34.3022 412.217 34.0688 412.101 33.7187C411.97 33.3832 411.809 33.1352 411.606 32.9602C411.329 32.7122 410.994 32.6101 410.543 32.6101C410.062 32.6101 409.655 32.7414 409.349 33.0623C408.898 33.5145 408.708 34.3022 408.708 35.3087C408.708 36.3006 408.883 37.1029 409.349 37.5551C409.655 37.8614 410.062 38.0073 410.528 38.0073C411.009 38.0073 411.387 37.876 411.693 37.5988C411.853 37.453 411.984 37.2633 412.086 37.0299C412.217 36.6944 412.508 36.461 412.887 36.5486C413.251 36.6361 413.484 37.0008 413.367 37.3509C413.178 37.9343 412.843 38.4011 412.406 38.722C411.926 39.0721 411.314 39.2472 410.557 39.2472C409.567 39.2326 408.956 38.9408 408.49 38.5324Z" fill="white"/>
<path d="M414.941 35.3087C414.941 32.931 415.916 31.3848 418.217 31.3848C420.488 31.3848 421.478 32.8872 421.478 35.3087C421.478 37.7593 420.488 39.2326 418.217 39.2326C415.902 39.2326 414.941 37.7593 414.941 35.3087ZM420.124 35.3087C420.124 33.4999 419.469 32.6247 418.202 32.6247C416.965 32.6247 416.309 33.4999 416.309 35.3087C416.309 37.1175 416.95 37.9927 418.202 37.9927C419.454 37.9927 420.124 37.1175 420.124 35.3087Z" fill="white"/>
<path d="M431.756 38.4446C431.756 38.8093 431.479 39.101 431.086 39.101C430.708 39.101 430.431 38.8093 430.431 38.4446V35.6001L430.46 32.8286L429.543 35.6439L428.611 38.4154C428.451 38.8968 428.131 39.101 427.708 39.101C427.272 39.101 426.951 38.8968 426.791 38.4154L425.83 35.6585L424.957 32.8869L424.986 35.6147V38.4592C424.986 38.8238 424.709 39.1156 424.316 39.1156C423.938 39.1156 423.661 38.8238 423.661 38.4592V32.7848C423.661 31.9971 424.083 31.5449 424.826 31.5449C425.525 31.5449 425.918 31.9096 426.136 32.5952L427.112 35.498L427.708 37.4672L428.305 35.498L429.281 32.5952C429.499 31.9096 429.878 31.5449 430.591 31.5449C431.334 31.5449 431.741 31.9971 431.741 32.7848L431.756 38.4446Z" fill="white"/>
</g>
<g clip-path="url(#clip2_9292_27374)">
<path d="M517.233 39.252C516.78 40.0104 516.059 40.3897 515.285 40.3897C514.004 40.3897 512.669 39.3874 512.669 37.4912C512.669 35.6221 514.004 34.6469 515.285 34.6469C516.059 34.6198 516.806 34.9991 517.233 35.7034L517.26 35.6763L519.342 33.8884C518.354 32.6153 516.806 31.9652 515.232 31.9652C512.509 31.9652 509.68 33.8343 509.68 37.5183C509.68 41.2294 512.483 43.0714 515.205 43.0444C516.806 43.0173 518.354 42.3671 519.342 41.1211L517.233 39.252ZM536.21 38.7915V26.8184H533.247V38.7915C533.247 42.5568 535.169 43.3694 538.372 42.7735L538.265 40.498C536.85 40.7418 536.21 40.4168 536.21 38.7915ZM530.391 39.7396V36.0555C530.391 33.0216 528.149 31.9652 525.507 31.9652C524.119 31.9652 522.438 32.2902 521.157 33.0487L522.171 35.0803C522.838 34.7011 523.879 34.376 525.107 34.376C526.148 34.376 527.509 34.674 527.509 35.9472V36.5431C526.735 36.0284 525.694 35.8659 524.76 35.8659C522.465 35.8659 520.623 37.0849 520.73 39.6583C520.783 41.6899 522.545 42.9631 524.493 42.9631C525.827 42.9631 527.455 42.4484 528.069 41.1482C528.069 43.0173 529.777 43.0985 531.352 42.7735L531.325 41.0669C530.365 41.1482 530.391 40.6335 530.391 39.7396ZM527.455 39.0082C527.349 40.1188 526.094 40.6064 525.107 40.6064C524.413 40.6064 523.746 40.2271 523.692 39.4687C523.585 38.4393 524.359 37.8975 525.294 37.8434C526.041 37.8434 526.842 38.033 527.429 38.4664V39.0082H527.455ZM502.581 31.9652C499.858 31.9923 497.136 33.8343 497.136 37.4912C497.136 41.1752 499.912 43.0173 502.661 43.0173C505.383 43.0173 508.105 41.1752 508.105 37.4912C508.132 33.7801 505.356 31.9381 502.581 31.9652ZM502.607 40.3355C501.353 40.3355 500.125 39.3874 500.125 37.4912C500.125 35.595 501.38 34.6469 502.661 34.6469C503.915 34.6469 505.143 35.595 505.143 37.4912C505.143 39.4145 503.889 40.3626 502.607 40.3355ZM494.013 38.7915V26.8184H491.051V38.7915C491.051 42.5568 492.972 43.3694 496.175 42.7735L496.068 40.498C494.654 40.7418 494.013 40.4168 494.013 38.7915ZM478.667 39.2791V26.8454H475.651V32.6695C472.048 30.8545 468.338 33.3738 468.338 37.5183C468.338 40.4709 469.993 43.0985 473.115 43.0173C474.477 42.9902 475.651 42.2859 476.238 40.9856V41.2565C476.291 43.0714 478.16 43.0985 479.654 42.7464L479.628 40.7689C478.693 40.8773 478.667 40.3084 478.667 39.2791ZM475.758 37.9246C475.758 39.1978 474.93 40.3084 473.622 40.3084C472.021 40.3084 471.354 39.0082 471.354 37.4912C471.354 34.8636 473.622 33.9426 475.784 35.2158V37.9246H475.758Z" fill="white"/>
<path d="M486.514 35.2158H483.524V38.2497H486.514V35.2158Z" fill="white" fill-opacity="0.6"/>
</g>
<g clip-path="url(#clip3_9292_27374)">
<path d="M72.7617 80.8811C72.8476 80.3824 72.9121 80.0292 72.9765 79.6344C74.2013 79.6344 75.3402 79.6344 76.4575 79.6344C76.5435 79.7591 76.6724 79.8422 76.6724 79.9253C76.6724 83.3746 76.6724 86.8448 76.6724 90.2941C76.565 90.3772 76.5005 90.5227 76.4146 90.5227C75.3402 90.5435 74.2873 90.5227 73.1699 90.5227C72.8691 90.1487 72.8691 90.1487 72.7402 89.3383C72.1385 89.9201 71.5798 90.4604 70.7203 90.6681C68.5501 91.2084 66.165 90.2941 65.0261 88.5902C63.7369 86.637 63.6509 84.5798 64.4674 82.5019C65.198 80.6526 67.046 79.4474 69.0658 79.3643C70.5269 79.3019 71.7517 79.6552 72.7617 80.8811ZM67.8625 85.0578C67.8625 85.224 67.8625 85.411 67.8625 85.5772C67.9269 86.6993 68.8079 87.7383 69.7749 87.8837C71.1501 88.0707 72.2674 87.5305 72.7402 86.4084C73.1269 85.4733 73.1055 84.5591 72.6542 83.6448C71.8162 81.8993 69.3881 81.9617 68.4641 83.063C67.9484 83.6448 67.841 84.3305 67.8625 85.0578Z" fill="white"/>
<path d="M92.9603 80.8186C93.0463 80.3823 93.1322 80.0083 93.1967 79.6134C94.3785 79.6134 95.4529 79.6134 96.5487 79.6134C96.8066 79.7173 96.8925 79.9667 96.8925 80.2576C96.8925 83.4784 96.8925 86.6992 96.871 89.8992C96.871 90.107 96.7421 90.3147 96.6562 90.5433C95.4958 90.5433 94.4429 90.5433 93.3686 90.5433C93.0248 90.0862 93.0248 90.0862 92.9818 89.3381C92.6165 89.629 92.2942 89.8992 91.9504 90.1485C90.8545 90.9381 89.6082 90.9381 88.3834 90.668C85.6115 90.0446 84.2148 87.7173 84.1934 85.5147C84.1934 84.3096 84.2148 83.1251 84.8595 82.0238C85.8694 80.3615 87.3091 79.4472 89.3289 79.3433C90.7901 79.2602 91.9504 79.8005 92.9603 80.8186ZM90.6396 87.9044C91.5206 88.029 92.2082 87.5303 92.7024 86.8238C93.6264 85.5355 93.1752 83.6862 92.2512 82.8758C90.919 81.7121 88.5768 82.2732 88.1041 83.9563C87.9322 84.6005 87.8033 85.2446 88.0396 85.9511C88.4479 87.1979 89.2429 87.9044 90.6396 87.9044Z" fill="white"/>
<path d="M105.96 84.0181C105.788 83.6856 105.681 83.4363 105.552 83.1869C105.165 82.5012 104.628 82.1895 103.919 82.2726C103.167 82.3765 102.694 82.8129 102.501 83.4986C102.35 84.0181 102.307 84.5791 102.286 85.1194C102.264 86.6363 102.286 88.1739 102.286 89.6908C102.286 89.8986 102.286 90.1064 102.286 90.2934C101.706 90.7713 101.082 90.522 100.502 90.5635C99.9436 90.6051 99.3634 90.5635 98.8047 90.5635C98.7617 90.5012 98.7403 90.4804 98.7188 90.4596C98.6973 90.4389 98.6543 90.4181 98.6543 90.3765C98.6328 90.0648 98.6113 89.7532 98.6113 89.4415C98.6113 86.1999 98.6113 82.9376 98.6113 79.6545C99.256 79.4674 99.8576 79.5713 100.459 79.5506C101.018 79.5298 101.598 79.5506 102.221 79.5506C102.264 79.9869 102.307 80.3609 102.35 80.7765C103.016 80.257 103.596 79.6337 104.456 79.4467C105.788 79.1765 107.077 79.2389 108.216 80.0493C108.968 80.5687 109.312 81.3999 109.549 82.2311C109.72 82.8545 109.763 83.5194 109.785 84.1635C109.806 85.9713 109.806 87.7583 109.785 89.5661C109.785 89.8986 109.892 90.2726 109.441 90.522C108.431 90.522 107.357 90.522 106.304 90.522C106.218 90.522 106.132 90.3973 106.003 90.3142C105.96 88.2155 105.96 86.0752 105.96 84.0181Z" fill="white"/>
<path d="M40.8095 78.2418C41.4327 76.6834 42.7864 76.2054 44.1616 75.9145C46.16 75.4782 48.1583 75.5405 50.1137 76.1847C51.2525 76.5587 52.155 77.1197 52.5847 78.408C53.079 81.1301 50.1996 84.5379 46.6112 84.5379C43.56 84.5379 40.2724 81.6288 40.8095 78.2418Z" fill="white"/>
<path d="M82.066 75.6864C82.066 76.9124 82.066 78.076 82.066 79.2396C82.066 81.6916 82.066 84.1435 82.066 86.5955C82.066 87.0526 82.023 87.489 82.4528 87.8422C82.8181 88.0085 83.3767 87.6552 83.742 88.1955C83.742 88.902 83.742 89.65 83.742 90.4604C83.699 90.502 83.6561 90.6266 83.5701 90.6474C82.0875 91.0007 80.6908 90.8137 79.4875 89.8578C78.7569 89.276 78.4346 88.4864 78.4131 87.5929C78.3916 86.2838 78.3916 84.9747 78.3916 83.6448C78.3916 81.3383 78.3916 79.0111 78.3916 76.7046C78.3916 76.3721 78.3916 76.0189 78.3916 75.7279C79.1222 75.3539 81.1635 75.3124 82.066 75.6864Z" fill="white"/>
<path d="M40.8311 87.1146C40.9815 86.4497 41.4542 86.138 42.1418 86.2211C42.9154 86.325 43.6674 86.512 44.4195 86.6574C46.1815 87.0107 47.922 86.9899 49.6839 86.512C50.3501 86.325 51.0592 86.2419 51.7038 86.1172C52.0046 86.3665 52.198 86.5536 52.4129 86.7198C52.4129 87.0938 52.4129 87.4471 52.4129 87.8211C51.7038 89.151 50.4575 89.8367 49.0823 90.3562C46.7831 91.2289 44.6344 90.8133 42.636 89.525C41.2608 88.6523 41.1534 88.3821 40.8311 87.1146Z" fill="white"/>
<path d="M38.7899 78.3665C38.7254 78.6158 38.6824 78.8652 38.575 79.073C38.2527 79.8002 37.694 80.2158 36.8345 80.195C36.3618 80.1743 35.9105 80.195 35.3733 80.195C35.2444 80.2989 35.051 80.4652 34.8362 80.5691C33.9337 81.0262 32.7519 80.6314 32.3221 79.7379C31.656 78.3665 32.3221 76.3924 33.7188 75.6236C35.2874 74.7717 37.1353 75.1872 38.0378 76.5171C38.2312 76.808 38.4461 77.0781 38.5965 77.3898C38.7039 77.7015 38.7254 78.0132 38.7899 78.3665Z" fill="white"/>
<path d="M61.1152 79.7167C59.9549 81.0258 59.4177 81.109 57.9566 80.1739C57.1185 80.0492 56.1731 80.4648 55.3781 79.8414C54.8838 79.4466 54.6904 78.9064 54.583 78.3661C55.0128 75.7479 57.0756 74.9167 58.6657 75.2492C59.6541 75.457 60.4706 76.018 60.9433 76.9531C61.3731 77.8258 61.4805 78.7193 61.1152 79.7167Z" fill="white"/>
</g>
<g clip-path="url(#clip4_9292_27374)">
<path d="M168.903 82.2611C168.903 85.1339 168.903 87.8006 168.903 90.5068C168.503 90.5068 168.145 90.5068 167.754 90.5068C167.754 87.3803 167.754 84.2825 167.754 81.1352C168.373 81.1352 168.987 81.1352 169.652 81.1352C170.887 83.5544 172.135 85.9979 173.468 88.6097C173.468 86.0069 173.468 83.5877 173.468 81.1289C173.89 81.1289 174.258 81.1289 174.644 81.1289C174.644 84.2708 174.644 87.3695 174.644 90.5077C174.133 90.5077 173.65 90.5077 173.112 90.5077C171.749 87.833 170.374 85.1411 168.903 82.2611Z" fill="white"/>
<path d="M179.567 83.2686C181.511 83.2677 182.736 84.7221 182.732 87.027C182.728 89.3013 181.495 90.7341 179.547 90.7287C177.629 90.7233 176.398 89.2743 176.401 87.0252C176.404 84.7032 177.613 83.2695 179.567 83.2686ZM177.692 86.9649C177.692 87.1809 177.672 87.3996 177.696 87.612C177.794 88.4445 178.054 89.2023 178.888 89.5074C179.564 89.7558 180.244 89.7081 180.806 89.1591C181.717 88.2672 181.734 85.7031 180.806 84.8337C180.56 84.6042 180.192 84.4314 179.864 84.3963C178.379 84.237 177.682 85.0803 177.692 86.9649Z" fill="white"/>
<path d="M195.384 83.2686C197.316 83.2686 198.562 84.7572 198.539 87.0378C198.517 89.2977 197.29 90.7314 195.38 90.7287C193.434 90.726 192.214 89.2959 192.209 87.0135C192.204 84.7113 193.427 83.2686 195.384 83.2686ZM193.459 86.8542C193.477 87.2106 193.479 87.4527 193.502 87.693C193.607 88.8036 194.262 89.5668 195.149 89.6208C196.254 89.6874 196.994 89.1654 197.154 88.0269C197.257 87.2907 197.234 86.5059 197.109 85.7715C196.948 84.8229 196.257 84.3486 195.33 84.363C194.411 84.3774 193.783 84.8949 193.586 85.8372C193.509 86.2062 193.491 86.5896 193.459 86.8542Z" fill="white"/>
<path d="M200.245 83.4684C200.631 83.4684 200.99 83.4684 201.385 83.4684C201.409 83.6817 201.431 83.8779 201.442 83.976C202.119 83.7447 202.799 83.3739 203.505 83.3019C204.881 83.1633 205.747 83.8392 205.855 85.2612C205.986 86.9883 205.886 88.7353 205.886 90.502C205.508 90.502 205.14 90.502 204.715 90.502C204.715 89.1907 204.734 87.9217 204.708 86.6535C204.694 85.9137 204.896 85.0272 204.075 84.6105C203.206 84.1695 202.412 84.597 201.673 85.0947C201.592 85.1487 201.524 85.2243 201.418 85.3188C201.418 87.0261 201.418 88.7515 201.418 90.5191C201.009 90.5191 200.642 90.5191 200.246 90.5191C200.245 88.1656 200.245 85.8336 200.245 83.4684Z" fill="white"/>
<path d="M185.64 81.4609C185.64 82.1278 185.64 82.7461 185.64 83.4301C186.427 83.4301 187.177 83.4301 187.956 83.4301C187.956 83.8171 187.956 84.1384 187.956 84.5254C187.186 84.5254 186.436 84.5254 185.716 84.5254C185.716 85.9978 185.614 87.4144 185.752 88.8049C185.844 89.7301 186.694 89.5726 187.355 89.5015C187.546 89.4808 187.73 89.4079 187.956 89.3485C187.956 89.7355 187.956 90.0829 187.956 90.4294C186.162 91.0225 184.436 90.6436 184.427 88.2658C184.423 87.0472 184.426 85.8286 184.426 84.574C184.173 84.5443 183.961 84.5191 183.711 84.4894C183.711 84.1609 183.711 83.8396 183.711 83.4769C183.919 83.4535 184.132 83.4292 184.418 83.3968C184.418 82.7587 184.418 82.1215 184.418 81.4609C184.853 81.4609 185.213 81.4609 185.64 81.4609Z" fill="white"/>
<path d="M189.322 83.4648C189.73 83.4648 190.078 83.4648 190.461 83.4648C190.461 85.8111 190.461 88.1277 190.461 90.4956C190.096 90.4956 189.73 90.4956 189.322 90.4956C189.322 88.1583 189.322 85.8336 189.322 83.4648Z" fill="white"/>
<path d="M189.265 81.0752C189.709 81.0752 190.106 81.0752 190.536 81.0752C190.536 81.4928 190.536 81.8879 190.536 82.328C190.122 82.328 189.717 82.328 189.265 82.328C189.265 81.9176 189.265 81.5144 189.265 81.0752Z" fill="white"/>
<path fill-rule="evenodd" clip-rule="evenodd" d="M146.039 75.7537C146.709 76.3189 146.96 76.2766 148.218 76.1893L160.08 75.4486C160.331 75.4486 160.122 75.1876 160.038 75.1444L158.069 73.6648C157.691 73.3606 157.189 73.0114 156.225 73.0987L144.738 73.9699C144.319 74.0131 144.236 74.2309 144.402 74.4055L146.039 75.7537ZM146.75 78.6265V91.5946C146.75 92.2912 147.086 92.5522 147.84 92.509L160.877 91.7251C161.631 91.6819 161.716 91.2022 161.716 90.6361V77.7553C161.716 77.1901 161.506 76.885 161.045 76.9291L147.421 77.7553C146.919 77.7994 146.75 78.0604 146.75 78.6265ZM159.62 79.3222C159.703 79.7146 159.62 80.1061 159.242 80.1502L158.614 80.2798V89.854C158.069 90.1582 157.566 90.3328 157.147 90.3328C156.476 90.3328 156.308 90.115 155.805 89.4625L151.697 82.7602V89.2447L152.997 89.5498C152.997 89.5498 152.997 90.3328 151.948 90.3328L149.057 90.5074C148.973 90.3328 149.057 89.8981 149.351 89.8108L150.105 89.5939V81.0196L149.057 80.9323C148.973 80.5399 149.183 79.9747 149.77 79.9315L152.872 79.7146L157.147 86.5033V80.4976L156.057 80.368C155.973 79.8883 156.308 79.5409 156.727 79.4977L159.62 79.3222ZM143.773 72.7945L155.721 71.8801C157.189 71.7496 157.566 71.8369 158.488 72.5326L162.302 75.3181C162.931 75.7969 163.141 75.9274 163.141 76.4494V91.7251C163.141 92.6827 162.805 93.2488 161.632 93.3352L147.758 94.2055C146.877 94.2487 146.458 94.1191 145.996 93.5089L143.188 89.7226C142.685 89.026 142.475 88.504 142.475 87.8947V74.3173C142.475 73.5343 142.81 72.8809 143.773 72.7945Z" fill="white"/>
</g>
<path d="M300.686 80.6014C299.363 79.439 297.766 78.8709 295.919 78.8709C294.098 78.8709 292.501 79.44 291.177 80.6014C289.854 81.7385 289.182 83.3213 289.182 85.3489C289.182 87.3764 289.854 88.9583 291.177 90.1206C292.5 91.2578 294.098 91.8268 295.919 91.8268C297.766 91.8268 299.363 91.2578 300.686 90.1206C302.034 88.9583 302.707 87.3764 302.707 85.3488C302.707 83.3212 302.033 81.7385 300.686 80.6014V80.6014ZM293.425 87.9445C292.727 87.2774 292.376 86.4113 292.376 85.3489C292.376 84.2856 292.724 83.4204 293.425 82.7775C294.123 82.1104 294.947 81.7889 295.918 81.7889C296.89 81.7889 297.739 82.1104 298.438 82.7775C299.16 83.4204 299.512 84.2856 299.512 85.3489C299.512 86.4122 299.163 87.2774 298.438 87.9445C297.74 88.5873 296.891 88.9088 295.918 88.9088C294.947 88.9088 294.124 88.5873 293.425 87.9445ZM307.425 91.4798V74.5137H304.281V91.4798H307.425ZM317.574 79.2164V85.9859C317.574 87.6172 316.684 88.6983 314.99 88.6983C313.268 88.6983 312.402 87.6181 312.402 85.9859V79.2164H309.252V86.5053C309.252 89.329 311.048 91.8256 314.99 91.8256H315.014C318.932 91.8256 320.726 89.2739 320.726 86.5053V79.2164H317.574ZM285.835 79.2164L282.691 87.5238L279.546 79.2164H276.203L281.22 91.4799H284.165L289.181 79.2164H285.835ZM276.219 85.0022C276.219 83.2222 275.645 81.7637 274.522 80.6014C273.399 79.439 271.953 78.8709 270.181 78.8709C268.36 78.8709 266.812 79.4895 265.539 80.7004C264.29 81.9123 263.668 83.4446 263.668 85.3489C263.668 87.2531 264.291 88.8107 265.514 90.0216C266.763 91.2335 268.26 91.8268 270.031 91.8268C272.753 91.8268 274.674 90.6402 275.844 88.2416L273.499 86.9064C272.727 88.4145 271.603 89.1563 270.081 89.1563C268.21 89.1563 266.887 87.9698 266.687 86.0907H276.218V85.0022H276.219ZM270.079 81.2442C271.851 81.2442 273.025 82.2328 273.323 83.8156H266.686C267.161 82.3571 268.457 81.2442 270.079 81.2442V81.2442ZM263.668 91.48L259.449 84.1621C262.118 83.1979 263.441 81.5169 263.441 79.0689C263.444 76.0771 261.046 74.1729 257.229 74.1729H249.769V91.48H253.063V84.4583H255.859L259.9 91.48H263.668ZM257.229 77.0404C259.175 77.0404 260.149 77.8065 260.149 79.3146C260.149 80.8227 259.174 81.5889 257.229 81.5889H253.063V77.0404H257.229ZM326.056 91.8257C324.032 91.8257 322.391 90.1989 322.391 88.191V75.9034H325.535V79.2212H328.231V81.743H325.535V87.9911C325.535 88.5797 326.016 89.0562 326.611 89.0562H328.231V91.8257H326.056Z" fill="white"/>
<path d="M386.696 89.4013C386.872 88.3832 386.502 87.3307 385.707 86.6405C385.142 86.1229 384.383 85.8296 383.606 85.8296C383.147 85.8296 382.706 85.726 382.299 85.519C381.77 85.2429 381.346 84.8115 381.064 84.2939C381.222 83.897 381.293 83.4657 381.293 82.9998C381.293 84.2594 382.317 85.2774 383.588 85.2774H383.641C384.895 85.2602 385.901 84.2421 385.901 82.9998C385.901 82.5512 385.99 82.1198 386.131 81.7057C386.378 81.0673 386.802 80.4979 387.367 80.0838C388.055 79.5661 388.903 79.3246 389.75 79.3591C389.15 78.3583 388.302 77.5128 387.278 76.9089C387.278 76.9607 387.278 77.0297 387.278 77.0815C387.278 77.8752 387.014 78.6344 386.537 79.2728C386.396 79.152 386.237 79.0485 386.078 78.9622C386.502 78.4273 386.713 77.7717 386.713 77.0987C386.713 76.7019 386.643 76.305 386.484 75.9254C386.025 74.8211 384.948 74.0447 383.677 74.0102H383.588H383.5C382.723 74.0102 381.964 74.1137 381.222 74.3207C378.097 75.149 375.643 77.5819 374.813 80.6704C374.284 81.3088 373.966 82.0853 373.948 82.9135C374.001 77.7199 378.239 73.5098 383.5 73.458H383.606C383.659 73.458 383.694 73.458 383.747 73.458C388.973 73.5443 393.193 77.7199 393.246 82.9135C393.246 82.948 393.246 82.9825 393.246 83.0171C393.246 83.0516 393.246 83.0861 393.246 83.1206C393.228 83.9488 392.928 84.7253 392.381 85.3637C391.887 85.9503 391.198 86.3817 390.439 86.5542C390.156 86.6233 389.856 86.6578 389.574 86.6578C388.779 86.6578 388.002 86.399 387.367 85.9331C387.137 86.2437 386.855 86.5025 386.555 86.744C387.067 87.417 387.331 88.2624 387.278 89.1079C388.302 88.504 389.15 87.6585 389.75 86.6578C389.98 86.6405 390.209 86.606 390.439 86.5542C389.715 87.9346 388.567 89.0562 387.172 89.7809C386.078 90.3503 384.842 90.6436 383.606 90.6436C383.059 90.6436 382.547 90.3848 382.229 89.9707C381.999 89.6601 381.876 89.2977 381.876 88.9181C381.876 88.4005 382.123 87.9174 382.494 87.6068C382.847 87.6931 383.235 87.7448 383.624 87.7448C382.97 87.7448 382.423 88.2797 382.423 88.9354C382.423 89.5911 382.953 90.1259 383.624 90.1259H383.641C384.295 90.1259 384.842 89.5911 384.842 88.9354C384.842 88.2797 384.312 87.7448 383.641 87.7448C382.759 87.7448 381.911 87.5032 381.152 87.0546C380.993 86.9511 380.834 86.8476 380.693 86.744C380.375 86.5025 380.11 86.2264 379.863 85.9331C380.004 85.8296 380.145 85.7088 380.287 85.5707C380.622 86.0021 381.046 86.3817 381.54 86.6578C382.176 87.0201 382.9 87.2099 383.641 87.2099C384.065 87.2099 384.471 87.3652 384.771 87.624C385.142 87.9346 385.389 88.4177 385.389 88.9354C385.389 89.315 385.266 89.6773 385.036 89.9879C385.619 89.8671 386.184 89.6946 386.713 89.4358L386.696 89.4013ZM390.633 81.6367C390.527 81.05 390.333 80.4979 390.068 79.963C389.221 79.825 388.355 80.0493 387.685 80.5496C386.908 81.1363 386.449 82.0508 386.449 83.0171C386.449 83.4829 386.343 83.9143 386.131 84.3111C385.866 84.8288 385.425 85.2602 384.913 85.5362C385.389 85.7088 385.813 85.9848 386.184 86.3299C386.625 86.0021 386.996 85.5707 387.261 85.1049C387.632 84.4664 387.826 83.759 387.826 83.0171C387.826 82.5857 387.985 82.2061 388.249 81.8955C388.585 81.5159 389.062 81.2916 389.574 81.2916C389.962 81.2916 390.333 81.4124 390.633 81.6367ZM390.757 82.9653C390.739 82.3441 390.209 81.8437 389.556 81.8265C388.885 81.8265 388.355 82.3614 388.355 82.9998C388.355 83.0171 388.355 83.0343 388.355 83.0343C388.373 83.6727 388.903 84.1731 389.556 84.1731C390.227 84.1731 390.757 83.6382 390.757 82.9998C390.757 82.9998 390.757 82.9825 390.757 82.9653ZM388.249 84.1386C388.126 84.6045 387.949 85.0703 387.685 85.4845C388.355 86.0021 389.221 86.2092 390.068 86.0711C390.298 86.0366 390.527 85.9676 390.757 85.8813C391.904 85.4154 392.663 84.3284 392.699 83.1033V82.948C392.699 82.1888 392.593 81.4296 392.381 80.6877C391.551 77.6164 389.097 75.1835 385.99 74.338C386.59 74.8384 386.996 75.5113 387.19 76.2532V76.2705C388.814 77.116 390.068 78.4963 390.757 80.17C391.127 81.05 391.322 82.0163 391.322 83.0343C391.322 83.5865 391.057 84.0868 390.633 84.3974C390.333 84.6217 389.962 84.7598 389.574 84.7598C389.044 84.7425 388.567 84.5009 388.249 84.1386ZM383.465 92.5588C378.239 92.4726 374.019 88.2797 373.966 83.1033V82.9998V82.8963C373.984 82.068 374.284 81.2916 374.831 80.6532C375.325 80.0665 376.014 79.6524 376.773 79.4626C377.056 79.3936 377.356 79.3591 377.638 79.3591C378.433 79.3591 379.21 79.6179 379.845 80.0838C380.075 79.7732 380.357 79.5144 380.657 79.2728C380.145 78.5999 379.881 77.7544 379.916 76.9089C378.892 77.5128 378.044 78.3583 377.444 79.3591C377.215 79.3763 376.985 79.4108 376.756 79.4626C377.479 78.0822 378.627 76.9607 380.022 76.236C381.117 75.6666 382.352 75.3733 383.588 75.3733C384.136 75.3733 384.648 75.6321 384.966 76.0462C385.195 76.3395 385.319 76.7019 385.319 77.0987C385.319 77.6336 385.071 78.0995 384.701 78.4101C384.33 78.3238 383.959 78.272 383.571 78.272C384.224 78.272 384.771 77.7371 384.771 77.0815C384.771 76.4258 384.242 75.8909 383.571 75.8909H383.553C382.9 75.8909 382.352 76.4258 382.352 77.0815C382.352 77.7371 382.882 78.272 383.553 78.272C384.436 78.272 385.283 78.5136 386.043 78.9622C386.201 79.0658 386.36 79.1693 386.502 79.2728C386.802 79.5144 387.084 79.7904 387.331 80.0838C387.19 80.1873 387.049 80.3081 386.908 80.4461C386.572 80.0148 386.148 79.6352 385.654 79.3591C385.018 78.9967 384.295 78.8069 383.553 78.8069C383.147 78.8069 382.741 78.6516 382.423 78.3928C382.035 78.065 381.805 77.5819 381.805 77.0815C381.805 76.6846 381.946 76.3223 382.158 76.0289C381.576 76.1497 380.993 76.3395 380.463 76.5811C380.287 77.5991 380.657 78.6516 381.452 79.3418C382.017 79.8595 382.776 80.1528 383.553 80.1528C384.012 80.1528 384.453 80.2563 384.86 80.4634C385.389 80.7394 385.813 81.1708 386.095 81.6884C385.937 82.1026 385.848 82.5339 385.866 82.9825C385.866 81.723 384.842 80.7049 383.571 80.7049H383.553C382.299 80.7222 381.293 81.7402 381.293 82.9825C381.293 83.4312 381.205 83.8625 381.064 84.2766C380.816 84.9151 380.393 85.4845 379.828 85.8986C379.139 86.4162 378.292 86.6578 377.444 86.6233C378.044 87.624 378.892 88.4695 379.916 89.0734C379.881 88.2279 380.128 87.3997 380.64 86.7268C380.781 86.8476 380.94 86.9511 381.099 87.0374C380.675 87.5723 380.463 88.2279 380.463 88.9009C380.463 89.2977 380.534 89.6946 380.693 90.0742C381.152 91.1785 382.229 91.9549 383.5 91.9894H383.659C384.436 91.9894 385.195 91.8859 385.937 91.6789C389.062 90.8506 391.516 88.4177 392.346 85.3292C392.875 84.6907 393.193 83.9143 393.211 83.0861C393.158 88.2797 388.92 92.4898 383.659 92.5416H383.553H383.447C383.5 92.5588 383.465 92.5588 383.465 92.5588ZM381.222 91.6961C380.622 91.1957 380.216 90.5228 380.022 89.7809C380.022 89.7809 380.022 89.7809 380.022 89.7636C378.398 88.9181 377.144 87.5378 376.455 85.8641C376.085 84.9496 375.89 83.9833 375.89 82.9998C375.89 82.4477 376.155 81.9473 376.579 81.6367C376.879 81.4124 377.232 81.2743 377.638 81.2743C378.168 81.2743 378.645 81.5159 378.963 81.8782C379.086 81.3951 379.263 80.9465 379.527 80.5324C378.857 80.0148 377.991 79.8077 377.144 79.9457C376.897 79.9802 376.685 80.0493 376.455 80.1355C375.308 80.6014 374.549 81.6884 374.513 82.9135C374.513 82.948 374.513 82.9653 374.513 82.9998V83.0861C374.513 83.8453 374.619 84.6045 374.831 85.3464C375.679 88.435 378.115 90.8679 381.222 91.6961ZM377.144 86.0711C377.991 86.2092 378.857 85.9848 379.527 85.4845C380.304 84.8978 380.763 83.9833 380.763 83.0171C380.763 82.5512 380.869 82.1198 381.081 81.723C381.346 81.2053 381.787 80.774 382.299 80.4979H382.282C381.805 80.3253 381.381 80.0493 381.011 79.7042C380.569 80.032 380.198 80.4634 379.934 80.9292C379.563 81.5677 379.369 82.2751 379.369 83.0171C379.369 83.4484 379.21 83.828 378.945 84.1386C378.609 84.5182 378.133 84.7425 377.621 84.7425C377.215 84.7425 376.861 84.6045 376.561 84.3802C376.703 84.9668 376.897 85.5362 377.144 86.0711ZM376.455 83.0688C376.491 83.69 377.003 84.2076 377.656 84.2076C378.327 84.2076 378.857 83.6727 378.857 83.0343C378.857 83.0171 378.857 82.9998 378.857 82.9998C378.839 82.3614 378.309 81.861 377.656 81.861C376.985 81.861 376.455 82.3959 376.455 83.0516C376.455 83.0343 376.455 83.0516 376.455 83.0688ZM400.997 78.0132H403.645L406.117 84.6045H406.153L408.589 78.0132H411.237V87.2962H409.56V79.8422H409.542L406.665 87.2962H405.482L402.639 79.8422H402.621V87.2962H401.015L400.997 78.0132ZM415.863 78.0132H422.149V79.4626H417.558V81.8265H421.919V83.2069H417.541V85.8296H422.378V87.2962H415.846L415.863 78.0132ZM429.635 82.0163C429.882 82.0163 430.112 81.999 430.359 81.9645C430.588 81.93 430.8 81.861 431.012 81.7747C431.206 81.6712 431.365 81.5332 431.489 81.3606C431.612 81.1881 431.683 80.9465 431.683 80.6704C431.683 80.4116 431.63 80.2046 431.506 80.0493C431.383 79.894 431.242 79.7559 431.065 79.6697C430.871 79.5661 430.677 79.4971 430.447 79.4799C430.235 79.4454 430.006 79.4281 429.776 79.4281H428.24V82.0335C428.258 82.0163 429.635 82.0163 429.635 82.0163ZM426.563 78.0132H429.864C430.306 78.0132 430.747 78.065 431.171 78.1513C431.577 78.2375 431.948 78.3928 432.283 78.5999C432.601 78.8069 432.884 79.1003 433.06 79.4281C433.254 79.7732 433.36 80.1873 433.36 80.6704C433.36 81.3434 433.166 81.8955 432.778 82.3096C432.389 82.741 431.859 83.0171 431.189 83.1723L433.713 87.2789H431.683L429.494 83.3449H428.258V87.2789H426.563V78.0132ZM444.378 80.1873C444.13 79.8595 443.795 79.6006 443.406 79.4626C443.036 79.3073 442.63 79.2383 442.223 79.2383C441.764 79.2383 441.305 79.3246 440.882 79.4971C440.493 79.6697 440.14 79.9112 439.84 80.2218C439.54 80.5324 439.31 80.8947 439.169 81.2916C439.01 81.723 438.922 82.1716 438.939 82.6202C438.939 83.1206 439.01 83.5865 439.169 84.0006C439.328 84.4147 439.54 84.777 439.822 85.0876C440.105 85.3809 440.44 85.6225 440.829 85.795C441.217 85.9676 441.658 86.0366 442.153 86.0366C442.665 86.0366 443.106 85.9331 443.512 85.7433C443.883 85.5535 444.219 85.2947 444.466 84.9668L445.825 85.8986C445.419 86.4162 444.89 86.8131 444.289 87.0891C443.689 87.3652 442.965 87.5205 442.153 87.5205C441.411 87.5205 440.723 87.3997 440.105 87.1582C439.504 86.9338 438.957 86.5888 438.498 86.1574C438.039 85.7088 437.686 85.1911 437.456 84.6045C437.209 84.0006 437.086 83.3449 437.086 82.6202C437.086 81.8782 437.209 81.2053 437.474 80.6014C437.739 79.9975 438.092 79.4971 438.551 79.083C439.028 78.6516 439.575 78.3238 440.175 78.1167C441.129 77.7717 442.171 77.6854 443.159 77.8579C443.495 77.9097 443.813 77.996 444.113 78.1167C444.413 78.2375 444.695 78.3756 444.978 78.5481C445.243 78.7207 445.472 78.9277 445.666 79.1693C445.666 79.2038 444.378 80.1873 444.378 80.1873ZM456.948 83.8798C456.948 84.4319 456.843 84.9496 456.648 85.3982C456.472 85.8296 456.189 86.2264 455.836 86.537C455.483 86.8476 455.077 87.1064 454.636 87.2617C454.159 87.4342 453.629 87.5205 453.117 87.5205C452.605 87.5205 452.093 87.4342 451.599 87.2617C451.157 87.1064 450.734 86.8476 450.38 86.537C450.027 86.2092 449.763 85.8296 449.568 85.3982C449.374 84.9496 449.286 84.4492 449.286 83.8798V78.0132H450.981V83.8108C450.981 84.0868 451.016 84.3457 451.087 84.6217C451.157 84.8805 451.281 85.1221 451.44 85.3292C451.599 85.5362 451.828 85.7088 452.093 85.8468C452.358 85.9848 452.711 86.0366 453.099 86.0366C453.506 86.0366 453.841 85.9676 454.106 85.8468C454.371 85.726 454.583 85.5535 454.759 85.3292C454.918 85.1221 455.042 84.8805 455.112 84.6217C455.183 84.3629 455.218 84.0868 455.218 83.8108V78.0132H456.913C456.948 78.0132 456.948 83.8798 456.948 83.8798ZM464.558 82.0163C464.805 82.0163 465.035 81.999 465.282 81.9645C465.529 81.93 465.741 81.861 465.935 81.7747C466.13 81.6712 466.288 81.5332 466.412 81.3606C466.536 81.1881 466.606 80.9465 466.606 80.6704C466.606 80.4116 466.553 80.2046 466.43 80.0493C466.324 79.894 466.165 79.7559 465.988 79.6697C465.794 79.5661 465.6 79.4971 465.37 79.4799C465.158 79.4454 464.929 79.4281 464.699 79.4281H463.163V82.0335C463.181 82.0163 464.558 82.0163 464.558 82.0163ZM461.486 78.0132H464.788C465.229 78.0132 465.67 78.065 466.094 78.1513C466.5 78.2375 466.871 78.3928 467.207 78.5999C467.524 78.8069 467.789 79.083 467.983 79.4281C468.178 79.7732 468.284 80.1873 468.284 80.6704C468.284 81.3434 468.089 81.8955 467.701 82.3096C467.312 82.741 466.783 83.0171 466.112 83.1723L468.637 87.2789H466.606L464.417 83.3449H463.181V87.2789H461.486C461.486 87.2962 461.486 78.0132 461.486 78.0132ZM474.657 83.2759L471.091 78.0305H473.157L475.54 81.93L477.959 78.0305H479.919L476.352 83.2759V87.2962H474.657V83.2759Z" fill="white"/>
<defs>
<clipPath id="clip0_9292_27374">
<rect width="77.2854" height="23.2485" fill="white" transform="translate(230.341 23.2256)"/>
</clipPath>
<clipPath id="clip1_9292_27374">
<rect width="88.5955" height="23.2485" fill="white" transform="translate(343.626 23.2256)"/>
</clipPath>
<clipPath id="clip2_9292_27374">
<rect width="70.3737" height="16.9651" fill="white" transform="translate(468.222 26.3672)"/>
</clipPath>
<clipPath id="clip3_9292_27374">
<rect width="78" height="16" fill="white" transform="translate(32 75)"/>
</clipPath>
<clipPath id="clip4_9292_27374">
<rect width="64" height="23" fill="white" transform="translate(142 71.5)"/>
</clipPath>
</defs>
</svg>
