<?xml version="1.0" encoding="utf-8"?>
<!-- Generator: Adobe Illustrator 27.0.0, SVG Export Plug-In . SVG Version: 6.00 Build 0)  -->
<svg version="1.1" id="Layer_1" xmlns="http://www.w3.org/2000/svg" xmlns:xlink="http://www.w3.org/1999/xlink" x="0px" y="0px"
	 viewBox="0 0 1200 800" style="enable-background:new 0 0 1200 800;" xml:space="preserve">
<style type="text/css">
	.st0{fill:#FFFFFF;}
</style>
<path class="st0" d="M737.5,371.8c-15.6-13.7-34.4-20.4-56.1-20.4c-21.4,0-40.2,6.7-55.8,20.4c-15.6,13.4-23.5,32-23.5,55.9
	c0,23.9,7.9,42.5,23.5,56.1c15.6,13.4,34.4,20.1,55.8,20.1c21.7,0,40.5-6.7,56.1-20.1c15.9-13.7,23.8-32.3,23.8-56.1
	C761.3,403.8,753.3,385.2,737.5,371.8z M652.1,458.2c-8.2-7.8-12.3-18-12.3-30.5c0-12.5,4.1-22.7,12.3-30.3
	c8.2-7.8,17.9-11.6,29.3-11.6c11.4,0,21.4,3.8,29.6,11.6c8.5,7.6,12.6,17.7,12.6,30.3s-4.1,22.7-12.6,30.5
	c-8.2,7.6-18.2,11.3-29.6,11.3C670,469.5,660.3,465.7,652.1,458.2z M816.8,499.8V300.2h-37v199.6H816.8z M936.2,355.5v79.6
	c0,19.2-10.5,31.9-30.4,31.9c-20.3,0-30.5-12.7-30.5-31.9v-79.6h-37.1v85.8c0,33.2,21.1,62.6,67.5,62.6h0.3
	c46.1,0,67.2-30,67.2-62.6v-85.8H936.2z M562.8,355.5l-37,97.7l-37-97.7h-39.3l59,144.3h34.7l59-144.3H562.8z M449.6,423.6
	c0-20.9-6.7-38.1-20-51.8c-13.2-13.7-30.2-20.4-51.1-20.4c-21.4,0-39.6,7.3-54.6,21.5c-14.7,14.3-22,32.3-22,54.7
	c0,22.4,7.3,40.7,21.7,55c14.7,14.3,32.3,21.2,53.1,21.2c32,0,54.6-14,68.4-42.2L417.6,446c-9.1,17.7-22.3,26.5-40.2,26.5
	c-22,0-37.6-14-39.9-36.1h112.1L449.6,423.6L449.6,423.6z M377.4,379.3c20.8,0,34.7,11.6,38.2,30.3h-78.1
	C343.1,392.4,358.3,379.3,377.4,379.3z M302,499.8l-49.6-86.1c31.4-11.3,47-31.1,47-59.9c0-35.2-28.2-57.6-73.1-57.6h-87.8v203.6
	h38.8v-82.6h32.9l47.5,82.6H302z M226.2,329.9c22.9,0,34.4,9,34.4,26.8c0,17.7-11.5,26.8-34.4,26.8h-49v-53.5H226.2z M1036,503.8
	c-23.8,0-43.1-19.1-43.1-42.8V316.5h37v39h31.7v29.7h-31.7v73.5c0,6.9,5.7,12.5,12.7,12.5h19.1v32.6H1036z"/>
</svg>
