<?xml version="1.0" encoding="utf-8"?>
<!-- Generator: Adobe Illustrator 27.9.0, SVG Export Plug-In . SVG Version: 6.00 Build 0)  -->
<svg version="1.1" id="Layer_1" xmlns="http://www.w3.org/2000/svg" xmlns:xlink="http://www.w3.org/1999/xlink" x="0px" y="0px"
	 viewBox="0 0 1200 394.7" style="enable-background:new 0 0 1200 394.7;" xml:space="preserve">
<style type="text/css">
	.st0{fill:#FFFFFF;}
</style>
<path class="st0" d="M737.5,167.6c-15.6-13.7-34.4-20.4-56.1-20.4c-21.4,0-40.2,6.7-55.8,20.4c-15.6,13.4-23.5,32-23.5,55.9
	s7.9,42.5,23.5,56.1c15.6,13.4,34.4,20.1,55.8,20.1c21.7,0,40.5-6.7,56.1-20.1c15.9-13.7,23.8-32.3,23.8-56.1
	C761.3,199.6,753.3,181,737.5,167.6z M652.1,254c-8.2-7.8-12.3-18-12.3-30.5s4.1-22.7,12.3-30.3c8.2-7.8,17.9-11.6,29.3-11.6
	c11.4,0,21.4,3.8,29.6,11.6c8.5,7.6,12.6,17.7,12.6,30.3s-4.1,22.7-12.6,30.5c-8.2,7.6-18.2,11.3-29.6,11.3S660.3,261.5,652.1,254z
	 M816.8,295.6V96h-37v199.6L816.8,295.6L816.8,295.6z M936.2,151.3v79.6c0,19.2-10.5,31.9-30.4,31.9c-20.3,0-30.5-12.7-30.5-31.9
	v-79.6h-37.1v85.8c0,33.2,21.1,62.6,67.5,62.6h0.3c46.1,0,67.2-30,67.2-62.6v-85.8H936.2z M562.8,151.3l-37,97.7l-37-97.7h-39.3
	l59,144.3h34.7l59-144.3H562.8z M449.6,219.4c0-20.9-6.7-38.1-20-51.8c-13.2-13.7-30.2-20.4-51.1-20.4c-21.4,0-39.6,7.3-54.6,21.5
	c-14.7,14.3-22,32.3-22,54.7c0,22.4,7.3,40.7,21.7,55c14.7,14.3,32.3,21.2,53.1,21.2c32,0,54.6-14,68.4-42.2l-27.5-15.6
	c-9.1,17.7-22.3,26.5-40.2,26.5c-22,0-37.6-14-39.9-36.1h112.1V219.4L449.6,219.4z M377.4,175.1c20.8,0,34.7,11.6,38.2,30.3h-78.1
	C343.1,188.2,358.3,175.1,377.4,175.1z M302,295.6l-49.6-86.1c31.4-11.3,47-31.1,47-59.9c0-35.2-28.2-57.6-73.1-57.6h-87.8v203.6
	h38.8V213h32.9l47.5,82.6H302z M226.2,125.7c22.9,0,34.4,9,34.4,26.8c0,17.7-11.5,26.8-34.4,26.8h-49v-53.5L226.2,125.7L226.2,125.7
	z M1036,299.6c-23.8,0-43.1-19.1-43.1-42.8V112.3h37v39h31.7V181h-31.7v73.5c0,6.9,5.7,12.5,12.7,12.5h19.1v32.6L1036,299.6
	L1036,299.6z"/>
</svg>
