<svg xmlns="http://www.w3.org/2000/svg" xmlns:xlink="http://www.w3.org/1999/xlink" width="411" zoomAndPan="magnify" viewBox="0 0 308.25 262.500001" height="350" preserveAspectRatio="xMidYMid meet" version="1.0"><defs><clipPath id="id1"><path d="M 0 0.0703125 L 307.5 0.0703125 L 307.5 261.933594 L 0 261.933594 Z M 0 0.0703125 " clip-rule="nonzero"/></clipPath></defs><g clip-path="url(#id1)"><path fill="rgb(100%, 100%, 100%)" d="M 0 0.0703125 L 307.5 0.0703125 L 307.5 261.933594 L 0 261.933594 Z M 0 0.0703125 " fill-opacity="1" fill-rule="nonzero"/><path fill="rgb(100%, 100%, 100%)" d="M 0 0.0703125 L 307.5 0.0703125 L 307.5 261.933594 L 0 261.933594 Z M 0 0.0703125 " fill-opacity="1" fill-rule="nonzero"/><path fill="rgb(100%, 100%, 100%)" d="M 0 0.0703125 L 307.5 0.0703125 L 307.5 261.933594 L 0 261.933594 Z M 0 0.0703125 " fill-opacity="1" fill-rule="nonzero"/></g><path stroke-linecap="butt" transform="matrix(2.514232, 0, 0, 2.517902, 45.480685, 0.069729)" fill-opacity="1" fill="rgb(17.248535%, 44.309998%, 94.119263%)" fill-rule="nonzero" stroke-linejoin="round" d="M 38.591165 78.581288 C 40.814447 75.759308 42.525021 74.476307 44.235596 74.476307 C 44.235596 74.476307 44.235596 74.476307 44.321047 74.476307 C 45.518916 74.476307 46.631333 75.245797 47.656746 76.614124 C 49.110967 78.581288 50.821542 79.949615 52.190313 81.147289 C 53.644534 82.344962 54.756952 83.199779 55.098756 84.2268 C 55.355109 84.99629 55.269658 85.680453 55.184207 86.193963 C 55.098756 86.963453 55.013305 87.304759 56.467527 87.732943 C 57.322037 87.988923 58.349004 87.988923 59.203514 87.988923 C 60.486834 87.988923 61.5138 87.988923 61.941055 88.758413 C 62.197409 89.186597 62.197409 89.785434 61.770153 90.64025 C 61.5138 91.239087 61.170442 91.92325 60.828638 92.69274 C 59.374416 95.942904 57.065684 100.7336 57.57839 102.528559 C 57.663841 102.871417 57.834744 102.956743 57.920195 102.956743 C 58.519906 103.212723 59.974127 102.27258 61.084991 101.50309 C 61.855604 100.989579 62.624664 100.47762 63.309826 100.220089 C 65.105852 99.450599 66.387618 99.96411 67.329133 100.305416 C 67.585486 100.390742 67.756388 100.47762 67.92729 100.561395 C 68.527001 100.648273 69.381512 99.791905 69.723316 99.107742 C 69.979669 98.594232 70.664832 97.824742 71.262989 97.996946 C 71.604793 98.167599 71.777249 98.594232 71.777249 99.365273 C 71.777249 99.535926 71.777249 99.621252 71.948151 99.791905 C 72.375406 100.220089 73.573275 100.305416 74.427785 100.220089 C 74.427785 99.279946 74.940492 98.851763 75.454752 98.338252 C 75.711105 98.082273 76.052909 97.739415 76.394713 97.311231 C 77.079876 96.285762 76.994424 96.200435 76.223811 95.344068 C 75.967458 95.088088 75.711105 94.746782 75.454752 94.318598 C 74.085981 92.436761 74.085981 92.436761 74.00053 88.502433 C 73.915079 85.422922 75.112948 85.166943 76.908973 84.824085 C 77.678033 84.653432 78.532543 84.482779 79.55951 84.054595 C 82.467953 82.856921 83.066111 80.889758 83.751273 78.751941 C 83.836724 78.410635 84.007626 78.067777 84.093077 77.639594 C 84.605783 76.100614 82.040698 74.732287 79.046803 73.107981 C 78.019837 72.509144 76.994424 71.995633 75.882007 71.31147 C 72.460857 69.173653 72.119053 66.350121 71.690244 63.613468 C 71.604793 62.843978 71.433891 61.989161 71.262989 61.21812 C 70.493929 58.14016 71.777249 57.198466 73.915079 55.744813 C 74.342334 55.403507 74.855041 55.060649 75.454752 54.632465 C 76.309262 53.948302 76.821969 53.178812 76.908973 52.323995 C 77.079876 51.211648 76.480164 50.271505 76.309262 50.013974 C 75.540203 49.672668 74.940492 49.244484 74.684139 48.817852 C 74.342334 48.219015 73.829628 47.790831 73.229917 47.362647 C 72.289955 46.507831 71.177538 45.653014 71.948151 44.284687 C 72.460857 43.42832 73.573275 43.17234 74.684139 42.916361 C 76.223811 42.573503 77.079876 42.317524 77.079876 41.375829 C 76.994424 40.435686 75.796556 39.238013 74.085981 38.553849 C 72.375406 37.869686 70.750283 37.869686 70.066674 38.639176 C 69.125159 39.751523 68.868806 40.521013 68.44155 41.63336 C 68.183644 42.40285 67.92729 43.257667 67.329133 44.370014 C 66.645525 45.738341 65.960362 45.908994 65.447656 45.738341 C 64.335239 45.48081 63.480728 43.68585 63.309826 42.145319 C 63.309826 41.718687 63.13737 41.461156 62.966468 41.290503 C 62.539213 40.862319 61.599251 41.034523 60.828638 41.11985 C 60.572285 41.11985 60.315932 41.205176 60.059578 41.205176 C 58.178101 41.375829 55.953267 40.862319 55.355109 39.06736 C 55.098756 38.296318 54.669947 38.040339 53.900888 37.526828 C 53.131828 37.014869 52.104862 36.416032 50.821542 34.960828 C 49.625227 33.677827 49.196418 32.908337 49.28187 32.138847 C 49.367321 31.284031 50.052483 30.599868 51.077895 29.658173 C 51.335802 29.402194 51.677606 29.059336 52.019411 28.803357 C 52.78847 28.033867 52.873921 27.691009 52.873921 27.605683 C 52.78847 27.17905 51.677606 26.66554 50.394287 26.237356 C 49.539776 25.89605 48.598261 25.553193 47.485844 25.039682 C 42.525021 22.559008 38.078459 20.165212 37.822106 17.855191 C 37.736655 17.171027 37.736655 16.657517 37.736655 16.145558 C 37.736655 15.03321 37.736655 14.093067 36.880591 11.69772 C 35.768173 8.532882 28.840423 2.974248 27.985912 2.290085 C 26.702593 2.290085 25.333822 2.032554 24.821116 1.519044 C 23.966605 0.664227 21.74177 1.007085 20.716358 2.203207 C 20.116647 2.88737 19.518489 3.486207 18.833327 3.486207 C 18.23517 3.400881 17.722463 2.974248 17.037301 2.032554 C 16.695497 1.60437 16.353693 1.348391 15.840986 1.348391 C 14.643118 1.263064 13.188896 2.375411 12.419837 3.400881 C 12.163484 3.743738 11.905577 4.085044 11.649224 4.342575 C 10.794713 5.453371 10.195002 6.309739 8.998687 6.137534 L 8.656883 6.052208 C 7.459014 5.881555 5.577538 5.625575 3.438154 6.651045 C 1.814584 7.420535 1.129422 8.019372 0.873068 8.276903 C 1.471226 9.473025 1.985486 10.842903 2.498192 12.125904 C 3.352703 14.349047 4.208767 16.401537 5.063278 17.085701 C 5.577538 17.428558 6.175695 17.599211 6.60295 17.684538 C 7.11721 17.855191 7.544466 17.940517 7.629917 18.368701 C 7.715368 18.796885 7.373563 19.138191 6.346597 19.994559 C 5.577538 20.591844 5.235733 21.105355 5.321184 21.704192 C 5.321184 22.645886 6.432048 23.415376 6.859303 23.756682 C 7.202661 24.014213 8.742334 24.099539 9.938649 24.184866 C 12.419837 24.355519 13.188896 24.440845 13.274347 25.039682 C 13.359798 25.467866 12.847092 25.809172 12.67619 25.89605 C 11.905577 26.322683 10.709262 26.750867 9.596845 27.17905 C 8.484427 27.006846 6.175695 27.863214 6.175695 28.375173 C 6.175695 30.171684 6.517499 32.394827 8.313525 32.652358 C 8.742334 32.737684 9.25504 32.737684 9.682296 32.823011 C 11.221968 32.908337 12.67619 33.080542 13.188896 33.935358 C 13.445249 34.361991 13.445249 34.790175 13.188896 35.389012 C 12.932543 36.073175 12.334386 37.014869 11.563773 38.210992 C 9.853198 40.862319 7.459014 44.45534 8.313525 46.507831 C 8.998687 48.389668 10.794713 49.415137 12.590739 50.442158 C 13.703156 51.126322 14.899471 51.810485 15.926437 52.750628 C 17.295208 54.033628 17.893365 55.145976 17.637012 56.08767 C 17.46611 56.771833 16.780948 57.283792 15.926437 57.37067 C 15.413731 57.455997 14.728569 57.198466 13.874058 56.942486 C 13.103445 56.686507 11.820126 56.258323 11.563773 56.514303 C 11.478322 56.599629 11.478322 56.85716 11.734675 57.541323 C 12.248935 58.90965 13.530701 60.363304 14.728569 61.560977 C 16.268242 63.272162 17.637012 64.725815 16.95185 66.008815 C 15.840986 68.146632 13.017994 68.402612 11.307419 68.574816 C 11.136517 68.574816 10.880164 68.574816 10.623811 68.660143 C 10.280453 68.660143 9.853198 68.745469 9.425942 68.745469 C 10.965615 69.086775 13.188896 70.113796 15.499182 72.85045 C 19.433038 77.639594 20.373 77.811798 23.966605 78.325308 C 28.242265 79.009472 32.519479 79.778962 33.801245 80.976636 C 34.230054 81.403268 34.657309 81.575473 35.084565 81.575473 C 35.940629 81.403268 37.136944 80.463125 38.591165 78.581288 Z M 38.591165 78.581288 " stroke="rgb(100%, 100%, 100%)" stroke-width="0.5" stroke-opacity="1" stroke-miterlimit="10"/></svg>