<svg width="106" height="32" viewBox="0 0 106 32" fill="none" xmlns="http://www.w3.org/2000/svg">
<path d="M36.703 17.6549C35.8053 17.1588 35.3329 16.7572 35.3329 16.1903C35.3329 15.458 35.9707 15.0092 36.9864 15.0092C38.1675 15.0092 39.2068 15.5053 39.2068 15.5053L40.0336 12.9778C40.0336 12.9778 39.2777 12.3872 37.0337 12.3872C33.9156 12.3872 31.7424 14.1825 31.7424 16.6864C31.7424 18.1037 32.7582 19.1903 34.1046 19.9698C35.1912 20.584 35.5691 21.0328 35.5691 21.6706C35.5691 22.3556 35.0258 22.8989 34.0101 22.8989C32.4983 22.8989 31.081 22.1194 31.081 22.1194L30.207 24.6469C30.207 24.6469 31.5298 25.5209 33.7266 25.5209C36.9392 25.5209 39.2305 23.9382 39.2305 21.1036C39.2777 19.5446 38.0966 18.458 36.703 17.6549Z" fill="white"/>
<path d="M49.5078 12.3398C47.9251 12.3398 46.6968 13.0957 45.7283 14.2295L45.6811 14.2059L47.0511 7.0249H43.4606L39.9883 25.2845H43.5551L44.7362 19.0484C45.2086 16.6862 46.4133 15.2453 47.5472 15.2453C48.3503 15.2453 48.6574 15.7886 48.6574 16.5681C48.6574 17.0642 48.6101 17.6547 48.492 18.1508L47.1456 25.3081H50.7125L52.1061 17.9382C52.2715 17.1586 52.366 16.2374 52.366 15.5996C52.4132 13.5445 51.3739 12.3398 49.5078 12.3398Z" fill="white"/>
<path d="M60.4894 12.3401C56.1902 12.3401 53.332 16.2141 53.332 20.5368C53.332 23.3006 55.0328 25.5447 58.2453 25.5447C62.4736 25.5447 65.3082 21.7652 65.3082 17.3479C65.3318 14.7731 63.8436 12.3401 60.4894 12.3401ZM58.7414 22.7809C57.513 22.7809 57.017 21.7415 57.017 20.4424C57.017 18.3873 58.08 15.0566 60.0169 15.0566C61.2925 15.0566 61.6941 16.1432 61.6941 17.2062C61.6941 19.4266 60.6311 22.7809 58.7414 22.7809Z" fill="white"/>
<path d="M74.4743 12.3401C72.0649 12.3401 70.6949 14.466 70.6949 14.466H70.6476L70.8602 12.5527H67.695C67.5296 13.8519 67.2461 15.8125 66.9627 17.3007L64.4824 30.3399H68.0493L69.0414 25.0486H69.1122C69.1122 25.0486 69.8445 25.521 71.2146 25.521C75.4192 25.521 78.1593 21.2219 78.1593 16.8755C78.1593 14.4897 77.0963 12.3401 74.4743 12.3401ZM71.0728 22.8518C70.1516 22.8518 69.6083 22.3321 69.6083 22.3321L70.1988 19.0014C70.624 16.781 71.7815 15.2928 73.0098 15.2928C74.0964 15.2928 74.4271 16.3085 74.4271 17.2534C74.4271 19.5447 73.057 22.8518 71.0728 22.8518Z" fill="white"/>
<path d="M83.2621 7.21411C82.1283 7.21411 81.207 8.11174 81.207 9.29283C81.207 10.3558 81.8684 11.0881 82.8842 11.0881H82.9314C84.0416 11.0881 85.0101 10.3322 85.0337 9.00936C85.0573 7.94639 84.3487 7.21411 83.2621 7.21411Z" fill="white"/>
<path d="M78.2539 25.2846H81.8444L84.2774 12.6233H80.6633L78.2539 25.2846Z" fill="white"/>
<path d="M93.3487 12.5998H90.8685L90.9866 12.0092C91.1992 10.7809 91.9078 9.6943 93.1125 9.6943C93.7503 9.6943 94.2463 9.88327 94.2463 9.88327L94.955 7.0959C94.955 7.0959 94.3408 6.78882 93.018 6.78882C91.7425 6.78882 90.4905 7.14314 89.522 7.96991C88.2937 9.00926 87.7268 10.4974 87.4433 12.0092L87.3488 12.5998H85.6953L85.1757 15.2927H86.8292L84.9395 25.2847H88.5063L90.396 15.2927H92.8527L93.3487 12.5998Z" fill="white"/>
<path d="M101.945 12.6233C101.945 12.6233 99.7013 18.2453 98.7092 21.3161H98.6619C98.5911 20.324 97.7879 12.6233 97.7879 12.6233H94.0321L96.1817 24.2452C96.2289 24.505 96.2053 24.6704 96.1108 24.8357C95.6856 25.6389 95.0006 26.4184 94.1738 26.9853C93.5124 27.4814 92.7566 27.7885 92.166 28.0011L93.1581 31.0246C93.8904 30.8593 95.3785 30.2687 96.6541 29.0877C98.284 27.5522 99.7958 25.2137 101.331 22.0011L105.701 12.6233H101.945Z" fill="white"/>
<path d="M17.8988 4.40259C17.8988 4.40259 17.5681 4.49708 17.0248 4.66243C16.9304 4.35535 16.7886 4.00102 16.5997 3.62308C15.9855 2.44199 15.0643 1.8042 13.9777 1.8042C13.9068 1.8042 13.8359 1.8042 13.7415 1.82782C13.7178 1.78058 13.6706 1.75696 13.647 1.70971C13.1745 1.19003 12.5604 0.953817 11.8281 0.977438C10.4108 1.02468 8.99352 2.04042 7.85968 3.85929C7.05655 5.13487 6.44239 6.74115 6.27704 7.9931C4.64715 8.48916 3.51331 8.84348 3.48969 8.86711C2.66294 9.12695 2.63932 9.15057 2.54483 9.93009C2.47397 10.5206 0.300781 27.1503 0.300781 27.1503L18.1587 30.2448V4.37897C18.017 4.37897 17.9461 4.40259 17.8988 4.40259ZM13.7651 5.67817C12.8202 5.96163 11.7809 6.29233 10.7651 6.59942C11.0486 5.48919 11.6155 4.37897 12.2769 3.6467C12.5368 3.38686 12.8911 3.07977 13.2926 2.8908C13.6942 3.74118 13.7887 4.89865 13.7651 5.67817ZM11.8281 1.94593C12.1588 1.94593 12.4423 2.0168 12.6785 2.15853C12.3005 2.3475 11.9226 2.65458 11.5683 3.00891C10.6706 3.9774 9.98562 5.48919 9.70216 6.93012C8.85179 7.18996 8.00141 7.4498 7.2219 7.68602C7.74157 5.41833 9.65492 1.99317 11.8281 1.94593ZM9.088 14.9379C9.18249 16.4497 13.1745 16.7804 13.4107 20.3473C13.5761 23.1583 11.9226 25.0716 9.53681 25.2134C6.65498 25.4023 5.07234 23.7016 5.07234 23.7016L5.6865 21.1032C5.6865 21.1032 7.26914 22.3079 8.54471 22.2134C9.37146 22.1662 9.67854 21.4811 9.65492 21.0087C9.53681 19.0245 6.27704 19.1426 6.06444 15.8828C5.87547 13.1426 7.67071 10.3789 11.6391 10.1191C13.1745 10.0246 13.954 10.4025 13.954 10.4025L13.0564 13.8041C13.0564 13.8041 12.0407 13.3316 10.836 13.4261C9.088 13.5442 9.06438 14.6544 9.088 14.9379ZM14.7099 5.39471C14.7099 4.68605 14.6154 3.67032 14.2847 2.81994C15.3713 3.03253 15.891 4.23724 16.1272 4.96952C15.702 5.08762 15.2296 5.22935 14.7099 5.39471Z" fill="white"/>
<path d="M18.7012 30.1982L26.1183 28.3557C26.1183 28.3557 22.9294 6.78904 22.9058 6.64731C22.8822 6.50558 22.7641 6.4111 22.646 6.4111C22.5279 6.4111 20.4492 6.36385 20.4492 6.36385C20.4492 6.36385 19.1736 5.13552 18.7012 4.66309V30.1982Z" fill="white"/>
</svg>
