<svg xmlns="http://www.w3.org/2000/svg" xmlns:xlink="http://www.w3.org/1999/xlink" width="624" zoomAndPan="magnify" viewBox="0 0 468 308.250004" height="411" preserveAspectRatio="xMidYMid meet" version="1.0"><defs><clipPath id="id1"><path d="M 0.566406 0 L 467.429688 0 L 467.429688 307.5 L 0.566406 307.5 Z M 0.566406 0 " clip-rule="nonzero"/></clipPath><clipPath id="id2"><path d="M 126 16.433594 L 256 16.433594 L 256 193 L 126 193 Z M 126 16.433594 " clip-rule="nonzero"/></clipPath><clipPath id="id3"><path d="M 228 48 L 467.429688 48 L 467.429688 214 L 228 214 Z M 228 48 " clip-rule="nonzero"/></clipPath><clipPath id="id4"><path d="M 0.566406 30 L 248 30 L 248 307.472656 L 0.566406 307.472656 Z M 0.566406 30 " clip-rule="nonzero"/></clipPath></defs><g clip-path="url(#id1)"><path fill="rgb(100%, 100%, 100%)" d="M 0.566406 0 L 467.433594 0 L 467.433594 307.5 L 0.566406 307.5 Z M 0.566406 0 " fill-opacity="1" fill-rule="nonzero"/><path fill="rgb(100%, 100%, 100%)" d="M 0.566406 0 L 467.433594 0 L 467.433594 307.5 L 0.566406 307.5 Z M 0.566406 0 " fill-opacity="1" fill-rule="nonzero"/><path fill="rgb(100%, 100%, 100%)" d="M 0.566406 0 L 467.433594 0 L 467.433594 307.5 L 0.566406 307.5 Z M 0.566406 0 " fill-opacity="1" fill-rule="nonzero"/></g><path stroke-linecap="butt" transform="matrix(2.881834, 0, 0, 2.881602, 0.57143, 16.432372)" fill-opacity="1" fill="rgb(17.248535%, 44.309998%, 94.119263%)" fill-rule="nonzero" stroke-linejoin="miter" d="M 87.016953 16.44364 L 88.29381 17.216322 L 90.073546 19.363565 L 91.071175 19.737706 L 91.491372 19.217162 L 92.364297 19.301208 L 95.36396 20.213515 L 96.497136 21.07431 L 96.43614 21.1326 L 95.40598 22.705076 L 93.401234 24.129793 L 93.065077 25.64669 L 92.952573 26.171301 L 91.472395 27.389969 L 91.453419 28.626261 L 90.119633 30.757236 L 88.762803 34.845673 L 86.493741 34.517622 L 85.117935 34.775183 L 82.88547 39.5265 L 82.857005 40.700434 L 83.91563 43.392621 L 81.85531 44.107013 L 81.85531 44.851228 L 84.457819 45.222658 L 85.46087 48.37032 L 87.377509 49.114535 L 88.75196 50.48774 L 89.037965 52.579404 L 88.007805 53.409021 L 87.26365 54.009544 L 87.06304 54.695468 L 87.636405 56.185254 L 87.283982 57.679106 L 85.188419 59.704346 L 85.355143 63.136681 L 82.066764 63.11228 L 81.672321 64.783714 L 82.107428 66.209787 L 82.515425 66.250454 L 83.590316 64.062544 L 84.281608 64.077455 L 86.565581 65.178188 L 87.750265 66.916045 L 84.348026 69.591965 L 82.664528 69.163601 L 82.336503 68.397697 L 81.126065 68.037112 L 80.620473 68.443787 L 80.746532 72.639315 L 78.889533 70.718454 L 78.206375 71.305421 L 78.805494 72.365487 L 76.891565 70.458182 L 74.213149 70.38227 L 71.584886 71.86121 L 69.966451 71.86121 L 69.155877 71.588738 L 69.386308 71.30271 L 68.962045 71.022105 L 68.444254 71.529092 L 68.013213 71.116995 L 68.348015 70.696765 L 67.635036 70.370069 L 66.608942 68.697281 L 68.202979 66.532415 L 68.127073 65.847846 L 67.823447 65.39237 L 64.251774 65.430327 L 62.580475 64.440751 L 61.782101 61.021972 L 60.680101 59.160757 L 61.326662 57.867532 L 61.440521 57.185674 L 61.900027 57.542192 L 62.927476 58.127803 L 63.415446 54.900161 L 65.223648 52.407245 L 66.78922 51.428515 L 66.935611 49.32465 L 67.961705 48.103271 L 67.864111 47.466147 L 66.152148 46.978137 L 63.316497 44.386263 L 63.121309 43.556647 L 65.322598 40.085 L 67.767872 38.128894 L 69.402573 33.959122 L 69.088104 33.434512 L 68.403589 31.429605 L 68.501184 28.984134 L 67.621481 27.029384 L 66.889525 25.709047 L 69.578785 24.486311 L 71.339545 21.162423 L 71.975262 19.059915 L 73.344291 17.934781 L 74.61437 18.081184 L 76.864456 20.377541 L 78.625216 20.035934 L 79.625556 20.011534 L 80.952564 19.679416 L 79.544227 21.539275 L 74.172485 23.359822 L 73.57201 24.26264 L 73.910879 25.427086 L 74.840734 24.819785 L 75.393767 23.643139 L 78.116914 23.58756 L 81.296855 22.044907 L 84.578456 16.966895 Z M 96.358878 19.339165 L 93.784833 19.339165 L 92.117601 18.531237 L 94.065416 16.420595 L 96.556777 18.03645 Z M 91.805842 18.135407 L 91.491372 18.497348 L 90.138609 18.249276 L 87.171477 15.725182 L 87.385642 15.048746 L 89.052875 13.960213 L 90.024749 13.910056 L 91.410044 14.636649 L 93.191136 15.939364 Z M 91.805842 18.135407 " stroke="rgb(100%, 100%, 100%)" stroke-width="0.5" stroke-opacity="1" stroke-miterlimit="4"/><path stroke-linecap="butt" transform="matrix(2.881834, 0, 0, 2.881602, 0.57143, 16.432372)" fill-opacity="1" fill="rgb(17.248535%, 44.309998%, 94.119263%)" fill-rule="nonzero" stroke-linejoin="miter" d="M 107.3965 22.999237 L 107.991553 24.083703 L 106.351429 23.039905 L 105.706224 23.313733 L 105.829572 22.499027 L 102.798733 19.23614 L 105.055597 20.616123 Z M 102.039668 19.465234 L 102.107441 21.112267 L 106.33923 24.465978 L 105.047464 25.645335 L 105.387688 26.420728 L 108.125744 25.150547 L 109.151838 26.024898 L 110.44496 28.342944 L 113.029848 30.121468 L 115.683865 31.096132 L 115.968515 31.749523 L 116.136594 31.280491 L 118.01528 31.479762 L 119.392441 31.028353 L 120.524262 31.466206 L 121.338901 30.079445 L 121.62084 31.249313 L 123.368046 33.262353 L 123.214877 33.984878 L 119.224363 37.708664 L 119.910232 39.45601 L 119.910232 41.165399 L 117.554419 41.925881 L 114.058653 44.35644 L 112.426662 43.558002 L 109.348382 43.825052 L 107.144382 43.406177 L 106.936994 43.999922 L 108.074236 44.641113 L 108.638113 45.222658 L 109.075931 45.939761 L 108.780438 46.557906 L 107.29755 46.709732 L 104.789924 48.268652 L 105.055597 48.839352 L 104.258578 49.751659 L 104.97969 50.398272 L 104.600158 51.652186 L 99.660812 51.957192 L 99.090157 50.777835 L 99.508999 49.561877 L 93.9624 44.166659 L 93.886494 42.683652 L 90.237559 41.581563 L 89.744166 40.93495 L 89.477138 39.717637 L 87.959008 37.93369 L 88.769581 34.840251 L 90.12641 30.751814 L 91.460196 28.620838 L 91.479173 27.384547 L 92.95935 26.164523 L 93.071854 25.641268 L 93.408012 24.124371 L 95.412757 22.699654 L 96.442917 21.127178 L 96.503913 21.068888 L 96.806184 20.511743 L 98.886836 19.732283 L 100.044411 17.900891 L 101.120657 17.54844 L 101.757729 17.750422 L 101.505611 18.540726 Z M 102.039668 19.465234 " stroke="rgb(100%, 100%, 100%)" stroke-width="0.5" stroke-opacity="1" stroke-miterlimit="4"/><path fill="rgb(17.248535%, 44.309998%, 94.119263%)" d="M 240.234375 39.566406 L 246.972656 47.792969 L 247.351562 50.878906 L 243.128906 46.226562 Z M 202.320312 22.433594 L 200.804688 24.976562 L 201.507812 25.789062 L 205.1875 23.1875 L 206.210938 25.949219 L 204.804688 27.789062 L 206.160156 28.171875 L 211.632812 21.425781 L 216.527344 24.46875 L 215.011719 29.070312 L 219.777344 25.496094 L 233.925781 35.65625 L 244.320312 54.828125 L 237.929688 63.269531 L 237.605469 66.464844 L 233.863281 73.148438 L 230.039062 74.105469 L 227.15625 74.175781 L 222.082031 75.160156 L 215.601562 68.539062 L 211.9375 68.121094 L 207.996094 71.359375 L 206.160156 77.421875 L 201.085938 86.996094 L 193.335938 90.519531 L 195.445312 94.328125 L 197.984375 99.960938 L 197.699219 107.007812 L 199.671875 112.785156 L 200.578125 114.296875 L 195.867188 126.3125 L 188.820312 131.945312 L 182.476562 141.949219 L 183.042969 144.34375 L 191.214844 151.808594 L 196.144531 153.21875 L 196.425781 155.050781 L 193.46875 158.574219 L 193.046875 164.632812 L 188.539062 167.453125 L 183.324219 174.640625 L 181.917969 183.941406 L 178.957031 182.25 L 177.632812 181.222656 L 177.085938 179.25 L 171.394531 177.066406 L 165.261719 172.472656 L 159.457031 171.046875 L 147.523438 161.300781 L 144.894531 157.144531 L 144.894531 153.636719 L 151.355469 153.523438 L 156.496094 150.675781 L 156.828125 148.160156 L 161.640625 147.832031 L 162.851562 146.515625 L 162.523438 144.003906 L 158.03125 141.046875 L 150.148438 131.414062 L 149.054688 119.808594 L 141.828125 102.070312 L 135.582031 92.65625 L 134.265625 84.554688 L 137.117188 79.511719 L 137.226562 67.140625 L 144.238281 59.039062 L 142.910156 51.109375 L 146.015625 49.871094 L 148.234375 45.589844 L 150.667969 45.210938 L 150.828125 42.828125 L 153.261719 40.667969 L 162.839844 36.386719 L 184.507812 21.296875 L 197.523438 19.3125 L 204.78125 20.621094 Z M 202.320312 22.433594 " fill-opacity="1" fill-rule="nonzero"/><g clip-path="url(#id2)"><path stroke-linecap="butt" transform="matrix(2.881834, 0, 0, 2.881602, 0.57143, 16.432372)" fill="none" stroke-linejoin="miter" d="M 83.163342 8.028184 L 85.501534 10.883041 L 85.633015 11.953951 L 84.167748 10.339452 Z M 70.007115 2.082599 L 69.481191 2.965083 L 69.725176 3.247044 L 71.002032 2.344226 L 71.357166 3.302623 L 70.869196 3.941102 L 71.339545 4.07395 L 73.238564 1.732858 L 74.936972 2.788857 L 74.411049 4.385734 L 76.064726 3.145376 L 80.974252 6.671246 L 84.581167 13.324445 L 82.363612 16.253859 L 82.251108 17.362725 L 80.952564 19.682127 L 79.625556 20.014245 L 78.625216 20.038645 L 76.864456 20.380252 L 74.615725 18.08254 L 73.344291 17.937492 L 71.976618 19.06127 L 71.339545 21.165134 L 69.578785 24.487667 L 66.889525 25.710403 L 67.621481 27.032095 L 68.502539 28.986846 L 68.403589 31.432316 L 69.088104 33.437223 L 69.402573 33.961833 L 67.767872 38.131605 L 65.322598 40.086355 L 63.121309 43.558002 L 63.317852 44.388974 L 66.153503 46.979493 L 67.864111 47.468858 L 67.961705 48.104626 L 66.935611 49.327362 L 66.78922 51.42987 L 65.225004 52.408601 L 63.415446 54.902873 L 62.927476 58.130515 L 61.900027 57.543547 L 61.440521 57.187029 L 61.250755 56.50246 L 59.27583 55.744689 L 57.147736 54.150524 L 55.133502 53.655737 L 50.992531 50.273558 L 50.080297 48.831218 L 50.080297 47.613905 L 52.32225 47.574593 L 54.106053 46.586374 L 54.221269 45.713379 L 55.891212 45.59951 L 56.311409 45.142678 L 56.197549 44.271039 L 54.638755 43.244863 L 51.903409 39.901996 L 51.523876 35.87456 L 49.01625 29.71886 L 46.848848 26.451906 L 46.392053 23.640428 L 47.381549 21.890371 L 47.419502 17.597241 L 49.852577 14.785763 L 49.391716 12.03393 L 50.469318 11.604211 L 51.239227 10.118492 L 52.083687 9.987001 L 52.139261 9.160095 L 52.983721 8.410458 L 56.307343 6.92474 L 63.826155 1.688124 L 68.342593 0.999488 L 70.861063 1.453608 Z M 70.007115 2.082599 " stroke="rgb(100%, 100%, 100%)" stroke-width="0.5" stroke-opacity="1" stroke-miterlimit="4"/></g><path fill="rgb(17.248535%, 44.309998%, 94.119263%)" d="M 368.078125 95.089844 L 378.078125 97.9375 L 384.386719 102.550781 L 388.117188 110.328125 L 388.015625 124.050781 L 392.585938 125.734375 L 377.242188 162.851562 L 380.554688 164.484375 L 389.542969 162.59375 L 392.800781 163.433594 L 400.421875 167.167969 L 399.234375 171.625 L 381.9375 176.570312 L 371.96875 173 L 366.128906 174.582031 L 364.949219 170.136719 L 364.441406 170.152344 L 342.625 172.945312 L 323.109375 180.324219 L 308.742188 182.359375 L 296.097656 185.894531 L 293.214844 187.964844 L 286.253906 188.917969 L 269.648438 196.457031 L 262.390625 202.207031 L 260 202.457031 L 257.105469 205.726562 L 250.753906 198.273438 L 248.484375 193.15625 L 248.621094 189.664062 L 258.523438 189.3125 L 254.417969 185.738281 L 254.296875 183.371094 L 252.128906 182.625 L 253.140625 178.316406 L 251.492188 174.027344 L 252.070312 172.050781 L 254.214844 170.320312 L 257.183594 167.925781 L 256.359375 161.90625 L 252.398438 157.945312 L 246.875 155.800781 L 243.984375 146.730469 L 236.476562 145.65625 L 236.476562 143.511719 L 242.417969 141.449219 L 239.367188 133.691406 L 239.445312 130.3125 L 245.882812 116.625 L 249.84375 115.882812 L 256.382812 116.828125 L 254.046875 125.742188 L 258.425781 130.886719 L 259.191406 134.390625 L 260.617188 136.253906 L 271.128906 139.429688 L 271.347656 143.703125 L 287.332031 159.25 L 286.128906 162.753906 L 287.769531 166.152344 L 302.003906 165.273438 L 303.101562 161.660156 L 301.015625 159.796875 L 303.320312 157.167969 L 302.550781 155.523438 L 309.777344 151.03125 L 314.050781 150.59375 L 314.90625 148.8125 L 313.640625 146.746094 L 312.015625 145.070312 L 308.742188 143.226562 L 309.339844 141.511719 L 315.6875 142.71875 L 324.554688 141.949219 L 329.261719 144.25 L 339.335938 137.246094 L 346.125 135.054688 L 346.125 130.128906 L 344.152344 125.097656 L 355.652344 114.363281 L 356.089844 112.28125 L 351.054688 106.484375 L 350.242188 103.109375 L 356.457031 96.253906 Z M 334.261719 88.230469 L 330.269531 84.457031 L 333.523438 85.625 Z M 402.789062 75.558594 L 398.917969 73.769531 L 397.390625 70.546875 L 400.023438 65.144531 L 406.824219 72.109375 L 405.976562 74.84375 Z M 336.386719 70.542969 L 352.929688 69.675781 L 360.5625 71.179688 L 366.519531 70.375 L 366.925781 71.589844 L 369.878906 70.546875 L 371.382812 74.191406 L 371.035156 78.414062 L 372.367188 79.457031 L 358.136719 80.378906 L 352.0625 85.238281 L 338.761719 88.078125 L 335.230469 82.523438 L 331.933594 81.890625 L 329.035156 77.265625 L 319.785156 72.988281 L 316.484375 72.929688 L 314.171875 70.558594 L 312.378906 71.136719 L 309.367188 68.535156 L 308.621094 65.003906 L 315.90625 60.957031 L 326.839844 64.890625 L 331.121094 68.765625 Z M 447.625 60.832031 L 460.292969 69.222656 L 463.824219 75.195312 L 464.226562 78.492188 L 459.539062 94.050781 L 454.734375 96.765625 L 450.742188 94.859375 L 447.332031 96.074219 L 436.683594 101.164062 L 430.613281 106.085938 L 417.941406 91.390625 L 416.265625 86.503906 L 408.628906 80.257812 L 411.984375 73.429688 L 409.039062 63.363281 L 418.355469 63.652344 L 424.050781 57.359375 L 426.160156 59.328125 L 432.816406 61.121094 L 436.804688 57.070312 Z M 447.625 60.832031 " fill-opacity="1" fill-rule="nonzero"/><g clip-path="url(#id3)"><path stroke-linecap="butt" transform="matrix(2.881834, 0, 0, 2.881602, 0.57143, 16.432372)" fill="none" stroke-linejoin="miter" d="M 127.525283 27.296434 L 130.995296 28.284654 L 133.184386 29.885597 L 134.478863 32.584562 L 134.443621 37.346723 L 136.029525 37.930979 L 130.705224 50.811724 L 131.854666 51.378358 L 134.973611 50.722256 L 136.104076 51.013706 L 138.748605 52.309643 L 138.336541 53.856363 L 132.334504 55.57253 L 128.875335 54.333528 L 126.848902 54.882539 L 126.439549 53.339886 L 126.263337 53.345308 L 118.693017 54.31455 L 111.921071 56.875245 L 106.935639 57.581504 L 102.54797 58.808306 L 101.547631 59.526765 L 99.132177 59.857527 L 93.370058 62.473801 L 90.851588 64.469219 L 90.022038 64.555976 L 89.017633 65.690598 L 86.813632 63.104147 L 86.026102 61.328334 L 86.073544 60.116443 L 89.509669 59.994441 L 88.085067 58.754083 L 88.043047 57.9326 L 87.290759 57.673683 L 87.641827 56.178476 L 87.069817 54.690046 L 87.270427 54.004121 L 88.014582 53.403598 L 89.044742 52.572626 L 88.758737 50.483673 L 87.384287 49.109113 L 85.467647 48.364898 L 84.464597 45.217235 L 81.859376 44.84445 L 81.859376 44.100235 L 83.921052 43.384488 L 82.862427 40.692301 L 82.889536 39.519722 L 85.123357 34.769761 L 86.497807 34.5122 L 88.76687 34.840251 L 87.956297 37.93369 L 89.475783 39.718993 L 89.741455 40.93495 L 90.236203 41.581563 L 93.883783 42.683652 L 93.959689 44.166659 L 99.506288 49.561877 L 99.088802 50.777835 L 99.658101 51.957192 L 104.597447 51.652186 L 104.978335 50.398272 L 104.254512 49.751659 L 105.054241 48.839352 L 104.787213 48.268652 L 107.294839 46.709732 L 108.777727 46.557906 L 109.074576 45.939761 L 108.635403 45.222658 L 108.071525 44.641113 L 106.935639 44.001278 L 107.143026 43.406177 L 109.345671 43.825052 L 112.422596 43.558002 L 114.055942 44.35644 L 117.551708 41.925881 L 119.907521 41.165399 L 119.907521 39.45601 L 119.223007 37.710019 L 123.213522 33.984878 L 123.365335 33.262353 L 121.618129 31.250668 L 121.336191 30.079445 L 123.492749 27.700398 Z M 115.790948 24.916031 L 114.405654 23.606538 L 115.534763 24.011858 Z M 139.570022 20.518521 L 138.226748 19.897665 L 137.696757 18.779309 L 138.610347 16.904538 L 140.970226 19.321542 L 140.676088 20.27045 Z M 116.528326 18.777953 L 122.268756 18.477014 L 124.917352 18.998913 L 126.984449 18.719663 L 127.125418 19.14125 L 128.150157 18.779309 L 128.672014 20.044067 L 128.551377 21.509452 L 129.013593 21.871393 L 124.075603 22.19131 L 121.967841 23.877655 L 117.352454 24.863163 L 116.127105 22.935525 L 114.983086 22.715921 L 113.977324 21.110911 L 110.767563 19.626548 L 109.622187 19.606214 L 108.819747 18.783376 L 108.197585 18.984002 L 107.152514 18.081184 L 106.893619 16.855737 L 109.421577 15.451354 L 113.215548 16.816425 L 114.701147 18.161163 Z M 155.128148 15.407975 L 159.523949 18.319766 L 160.749298 20.392452 L 160.888911 21.536564 L 159.262343 26.935849 L 157.59511 27.877979 L 156.209816 27.216455 L 155.026488 27.638041 L 151.331467 29.404365 L 149.225061 31.112399 L 144.827904 26.012697 L 144.246406 24.316864 L 141.596455 22.149287 L 142.760807 19.779729 L 141.73878 16.286393 L 144.971584 16.386706 L 146.947865 14.202862 L 147.679821 14.886076 L 149.989548 15.508288 L 151.373486 14.102549 Z M 155.128148 15.407975 " stroke="rgb(100%, 100%, 100%)" stroke-width="0.5" stroke-opacity="1" stroke-miterlimit="4"/></g><path fill="rgb(17.248535%, 44.309998%, 94.119263%)" d="M 110.144531 298.648438 L 108.8125 299.496094 L 110.832031 301.121094 L 110.179688 302.164062 L 105.230469 303.175781 L 102.140625 305.386719 L 101.550781 300.699219 L 105.492188 299.691406 L 106.660156 296.046875 L 108.808594 296.40625 Z M 183.53125 284.824219 L 176.648438 281.699219 L 174.738281 278.054688 L 175.257812 275.511719 Z M 143.367188 277.25 L 145.074219 277.761719 L 146.539062 281.03125 L 144.558594 283.886719 L 142.316406 284.59375 L 140.777344 279.496094 L 142.734375 275.351562 Z M 107.785156 277.011719 L 111.269531 275.582031 L 112.082031 276.429688 L 110.097656 278.742188 L 113.839844 281.152344 L 111.886719 283.5625 L 101.570312 283.921875 L 90.796875 281.902344 L 91.609375 280.015625 L 99.417969 274.78125 L 105.832031 273.644531 Z M 229.652344 263.570312 L 232.785156 265.308594 L 232.820312 270.820312 L 226.1875 263.230469 L 227.550781 262.246094 Z M 239.25 265.6875 L 235.367188 262.589844 L 234.960938 259.800781 L 239.722656 263.203125 Z M 135.632812 262.476562 L 131.125 262.417969 L 130.375 258.199219 L 135.984375 260.566406 L 136.90625 261.785156 Z M 234.652344 255.820312 L 232.203125 256.160156 L 234.722656 254.425781 Z M 140.667969 256.980469 L 137.3125 253.222656 L 139.914062 249.75 L 141.878906 253.625 Z M 127.59375 254.207031 L 124.527344 254.09375 L 123.308594 252.125 L 129.09375 248.828125 L 132.277344 249.578125 L 132.566406 252.0625 Z M 153.101562 251.722656 L 158.828125 256.171875 L 161.253906 260.917969 L 156.566406 260.917969 L 155.0625 257.5625 L 151.070312 255.367188 L 150.207031 256.351562 L 153.042969 258.085938 L 150.617188 260.34375 L 142.289062 258.894531 L 143.910156 255.480469 L 147.207031 256.347656 L 148.367188 255.1875 L 144.433594 253.507812 L 142.988281 249.058594 L 143.734375 246.457031 L 148.246094 247.148438 Z M 194.972656 227.609375 L 199.011719 228.289062 L 201.230469 226.835938 L 209.757812 232.007812 L 214.699219 231.960938 L 218.875 233.683594 L 223.957031 232.957031 L 224.773438 235.316406 L 229.492188 233.367188 L 230.855469 234.683594 L 225.339844 242.753906 L 222.617188 239.761719 L 222.980469 245.207031 L 214.746094 248.746094 L 206.265625 239.222656 L 199.960938 236.636719 L 190.433594 227.429688 Z M 223.5 228.699219 L 218.148438 231.78125 L 207.167969 227.289062 L 211.75 224.34375 L 217.648438 223.617188 Z M 109.304688 198.957031 L 109.820312 203.523438 L 113.292969 207.398438 L 121.914062 209.480469 L 124.167969 211.964844 L 123.996094 214.21875 L 117.109375 218.324219 L 107.855469 215.199219 L 104.097656 218.152344 L 104.730469 220.003906 L 108.433594 219.945312 L 108.605469 222.082031 L 105.59375 225.496094 L 94.835938 220.234375 L 94.316406 217.460938 L 92.753906 218.8125 L 90.554688 218.410156 L 88.933594 221.125 L 98.652344 226.792969 L 98.421875 227.78125 L 93.214844 229.632812 L 81.644531 237.035156 L 76.152344 225.527344 L 72.21875 228.125 L 76.035156 239.519531 L 75.457031 241.027344 L 72.042969 243.050781 L 67.125 231.019531 L 63.078125 234.320312 L 66.546875 246.640625 L 57.351562 249.652344 L 52.203125 246.238281 L 45.199219 235.074219 L 40.398438 221.234375 L 51.675781 210.074219 L 68.308594 198.273438 L 75.222656 197.6875 L 76.84375 195.664062 L 79.328125 195.488281 L 79.671875 197.050781 L 74.984375 200.753906 L 68.101562 209.722656 L 71.515625 213.59375 L 75.445312 210.296875 L 76.835938 211.21875 L 79.207031 210.296875 L 79.4375 205.996094 L 82.910156 202.523438 L 85.917969 202.179688 L 85.917969 199.515625 L 87.828125 200.441406 L 88.929688 198.9375 L 87.367188 196.855469 L 90.78125 194.660156 L 99.230469 192.925781 L 102.585938 193.5 Z M 81.667969 187.261719 L 79.707031 186.835938 L 78.6875 180.953125 L 82.097656 183.808594 Z M 105.460938 41.703125 L 113.039062 40.320312 L 115.761719 44.695312 L 119.699219 46.933594 L 119.515625 50.382812 L 127.59375 49.449219 L 133.015625 52.417969 L 142.929688 51.089844 L 144.253906 59.019531 L 137.242188 67.121094 L 137.132812 79.496094 L 134.285156 84.535156 L 135.597656 92.636719 L 141.84375 102.054688 L 149.070312 119.789062 L 150.164062 131.398438 L 158.050781 141.027344 L 162.542969 143.984375 L 162.871094 146.5 L 161.660156 147.8125 L 156.84375 148.144531 L 156.515625 150.65625 L 151.371094 153.507812 L 144.914062 153.621094 L 144.914062 157.125 L 147.542969 161.285156 L 159.472656 171.03125 L 165.28125 172.453125 L 171.410156 177.050781 L 177.101562 179.234375 L 177.648438 181.207031 L 177.320312 183.171875 L 175.457031 186.898438 L 178.636719 192.261719 L 180.9375 202.113281 L 185.753906 204.964844 L 196.046875 204.855469 L 196.921875 206.167969 L 197.140625 208.140625 L 192.546875 214.378906 L 195.503906 219.199219 L 195.394531 220.761719 L 191.480469 221.960938 L 185.695312 217.890625 L 188.429688 221.414062 L 186.8125 223.027344 L 180.054688 215.832031 L 176.882812 214.804688 L 175.535156 215.832031 L 161.625 207.851562 L 152.898438 221.714844 L 129.550781 206.734375 L 133.222656 199.433594 L 134.988281 198.609375 L 141.390625 202.253906 L 141.179688 203.753906 L 143.238281 205.015625 L 147.058594 203.839844 L 147.058594 205.804688 L 148.777344 206.964844 L 152.839844 207.097656 L 154.601562 203.039062 L 144.238281 196.378906 L 145.707031 191.8125 L 140.476562 186.78125 L 137.964844 180.035156 L 134.839844 177.453125 L 127.25 177.257812 L 135.664062 180.746094 L 138.714844 189.25 L 131.699219 189.601562 L 113.886719 184.753906 L 110.449219 185.855469 L 111.816406 173.6875 L 115.699219 168.71875 L 114.730469 167.304688 L 112.925781 167.835938 L 109.308594 172.902344 L 107.324219 184.671875 L 98.945312 178.371094 L 94.007812 178.019531 L 91.496094 179.296875 L 89.949219 184.753906 L 86.203125 184.753906 L 85.5 182.417969 L 79.195312 178.800781 L 76.375 182.371094 L 76.980469 186.375 L 67.957031 187.484375 L 66.769531 178.667969 L 65.355469 177.125 L 63.902344 178.757812 L 64.652344 189.027344 L 62.621094 189.996094 L 57.289062 184.925781 L 56.484375 180.421875 L 52.644531 180.835938 L 52.789062 187.175781 L 56.84375 192.242188 L 50.097656 198.136719 L 47.363281 195.488281 L 44.277344 198.042969 L 38.734375 191.359375 L 39.804688 188.882812 L 37.859375 186.109375 L 35.234375 186.984375 L 33.847656 185.640625 L 41.652344 176.386719 L 38.878906 176 L 33.042969 181.496094 L 30.808594 178.675781 L 35.570312 172.964844 L 34.199219 170.730469 L 32.167969 171.117188 L 27.105469 176.125 L 22.023438 171.964844 L 17.769531 175.710938 L 21.503906 178.964844 L 34.445312 203.84375 L 34.105469 206.128906 L 11.59375 206.566406 L 4.25 202.191406 L 3.132812 191.933594 L 20.535156 143.390625 L 19.953125 138.871094 L 23.355469 136.585938 L 33.460938 117.386719 L 37.359375 115.414062 L 41.46875 104.878906 L 45.839844 100.4375 L 46.964844 84.410156 L 49.277344 82.71875 L 49.25 80.003906 L 51.191406 79.710938 L 50.898438 82.386719 L 55.21875 79.980469 L 54.035156 77.28125 L 56.710938 76.457031 L 55.789062 72.761719 L 57.265625 71.804688 L 56.710938 70.714844 L 58.464844 70.910156 L 58.320312 65.269531 L 66.03125 59.660156 L 69.839844 59.972656 L 69.839844 58.519531 L 72.320312 58.8125 L 72.960938 57.226562 L 78.734375 55.636719 L 95.914062 40.996094 L 104.824219 39.058594 Z M 105.460938 41.703125 " fill-opacity="1" fill-rule="nonzero"/><g clip-path="url(#id4)"><path stroke-linecap="butt" transform="matrix(2.881834, 0, 0, 2.881602, 0.57143, 16.432372)" fill="none" stroke-linejoin="miter" d="M 38.022003 97.937196 L 37.559787 98.231357 L 38.260567 98.79528 L 38.034203 99.15722 L 36.316817 99.508316 L 35.244638 100.275576 L 35.039961 98.648877 L 36.407634 98.299137 L 36.812921 97.034378 L 37.558431 97.159092 Z M 63.487287 93.139789 L 61.098942 92.055323 L 60.436115 90.790565 L 60.616393 89.908081 Z M 49.550307 90.511315 L 50.142649 90.688896 L 50.650951 91.823519 L 49.963726 92.81445 L 49.185684 93.05981 L 48.651628 91.290775 L 49.33072 89.852502 Z M 37.203297 90.428624 L 38.41238 89.932481 L 38.694318 90.226642 L 38.005738 91.029147 L 39.304281 91.865542 L 38.626544 92.701936 L 35.046739 92.82665 L 31.308342 92.125814 L 31.590281 91.471067 L 34.299873 89.654587 L 36.52556 89.260112 Z M 79.491364 85.764065 L 80.578454 86.367299 L 80.590653 88.280026 L 78.289059 85.646129 L 78.762119 85.304522 Z M 82.821763 86.49879 L 81.474422 85.423814 L 81.333452 84.455928 L 82.985775 85.63664 Z M 46.866469 85.384502 L 45.302252 85.364168 L 45.042001 83.900139 L 46.988461 84.721622 L 47.308353 85.144564 Z M 81.22637 83.074589 L 80.376488 83.192525 L 81.250769 82.590646 Z M 48.613674 83.477197 L 47.449322 82.173127 L 48.352068 80.968014 L 49.033871 82.312752 Z M 44.076904 82.514733 L 43.012857 82.475422 L 42.589949 81.792208 L 44.597406 80.648096 L 45.702117 80.908368 L 45.802422 81.770519 Z M 52.928147 81.652583 L 54.915271 83.196591 L 55.75702 84.843624 L 54.130452 84.843624 L 53.608595 83.679179 L 52.223301 82.917341 L 51.923741 83.258948 L 52.907815 83.860827 L 52.066066 84.644354 L 49.176196 84.141432 L 49.738717 82.956653 L 50.882737 83.257593 L 51.285313 82.854985 L 49.920351 82.272084 L 49.418826 80.728076 L 49.677721 79.825258 L 51.243293 80.065196 Z M 67.457469 73.284572 L 68.859029 73.520443 L 69.628938 73.016167 L 72.587937 74.810958 L 74.302611 74.794691 L 75.751612 75.392503 L 77.515083 75.140364 L 77.798377 75.959136 L 79.435789 75.282701 L 79.90885 75.739532 L 77.994921 78.540165 L 77.050156 77.501789 L 77.176215 79.391471 L 74.318876 80.619629 L 71.376143 77.314719 L 69.188409 76.417323 L 65.882408 73.222215 Z M 77.356493 73.662779 L 75.499494 74.732334 L 71.689258 73.173414 L 73.279228 72.151305 L 75.325993 71.899167 Z M 37.730576 63.341374 L 37.909499 64.92605 L 39.114515 66.270788 L 42.106045 66.993313 L 42.888154 67.855464 L 42.828513 68.637635 L 40.438813 70.062352 L 37.227696 68.977886 L 35.92373 70.002707 L 36.143317 70.645253 L 37.428306 70.624919 L 37.487947 71.366423 L 36.442876 72.551202 L 32.709902 70.725232 L 32.529624 69.762768 L 31.987435 70.2318 L 31.224303 70.092175 L 30.661781 71.034305 L 34.0342 73.001255 L 33.954227 73.344217 L 32.14738 73.986764 L 28.132468 76.555593 L 26.226672 72.562046 L 24.86171 73.463509 L 26.186007 77.417743 L 25.985397 77.940998 L 24.800713 78.64319 L 23.094172 74.467995 L 21.689901 75.613463 L 22.893562 79.88897 L 19.702777 80.934124 L 17.916263 79.749345 L 15.485898 75.87509 L 13.820021 71.072261 L 17.733274 67.199362 L 23.504881 63.104147 L 25.904069 62.90081 L 26.46659 62.198618 L 27.328672 62.137617 L 27.447953 62.67985 L 25.821385 63.964942 L 23.43304 67.077359 L 24.617724 68.420742 L 25.981331 67.27663 L 26.46388 67.596548 L 27.286652 67.27663 L 27.366625 65.784134 L 28.571641 64.579021 L 29.615356 64.45973 L 29.615356 63.535222 L 30.278182 63.856495 L 30.660426 63.334596 L 30.118236 62.612071 L 31.30292 61.850233 L 34.23481 61.248354 L 35.399162 61.447625 Z M 28.1406 59.28276 L 27.460153 59.135001 L 27.106374 57.093494 L 28.289703 58.084425 Z M 36.39679 8.769687 L 39.026409 8.289811 L 39.971174 9.808064 L 41.337492 10.584812 L 41.273785 11.781792 L 44.076904 11.457808 L 45.958301 12.48805 L 49.398494 12.027152 L 49.857999 14.778985 L 47.424924 17.590463 L 47.386971 21.884949 L 46.39883 23.63365 L 46.854269 26.445128 L 49.021672 29.713438 L 51.529298 35.867783 L 51.908831 39.896574 L 54.645532 43.238085 L 56.204327 44.264261 L 56.318186 45.137256 L 55.89799 45.592732 L 54.226691 45.707956 L 54.112831 46.579596 L 52.327672 47.569171 L 50.087074 47.608483 L 50.087074 48.82444 L 50.999308 50.268136 L 55.138924 53.650314 L 57.154514 54.143746 L 59.281252 55.739267 L 61.256177 56.497038 L 61.445943 57.181607 L 61.332083 57.863465 L 60.685523 59.156691 L 61.788878 61.017905 L 62.587252 64.436685 L 64.258551 65.42626 L 67.830224 65.388304 L 68.13385 65.843779 L 68.209757 66.528348 L 66.61572 68.693214 L 67.641813 70.366003 L 67.60386 70.908236 L 66.245675 71.3244 L 64.238219 69.911882 L 65.18705 71.134618 L 64.625884 71.694474 L 62.280915 69.19749 L 61.18027 68.840972 L 60.712632 69.19749 L 55.88579 66.428035 L 52.857662 71.238998 L 44.755996 66.040339 L 46.030142 63.506755 L 46.642816 63.220727 L 48.864437 64.485486 L 48.791241 65.006029 L 49.505576 65.443882 L 50.831229 65.035852 L 50.831229 65.71771 L 51.427638 66.120318 L 52.83733 66.166408 L 53.448649 64.757958 L 49.852577 62.446689 L 50.362235 60.862013 L 48.547256 59.116023 L 47.675687 56.774932 L 46.591308 55.878892 L 43.957622 55.811113 L 46.877313 57.021648 L 47.935937 59.972751 L 45.501507 60.094754 L 39.320547 58.412476 L 38.12773 58.79475 L 38.602146 54.57211 L 39.949487 52.847809 L 39.613329 52.357089 L 38.9871 52.541448 L 37.731932 54.299638 L 37.043351 58.384009 L 34.13586 56.197454 L 32.422542 56.075451 L 31.550972 56.518727 L 31.014205 58.412476 L 29.714305 58.412476 L 29.47032 57.601837 L 27.282586 56.346568 L 26.303934 57.58557 L 26.514032 58.975043 L 23.382888 59.360028 L 22.970824 56.300478 L 22.480142 55.765023 L 21.975906 56.331657 L 22.236157 59.895483 L 21.531311 60.231668 L 19.681089 58.472121 L 19.401862 56.909135 L 18.069431 57.052826 L 18.119584 59.252937 L 19.526565 61.011128 L 17.185662 63.056702 L 16.236831 62.137617 L 15.166007 63.024168 L 13.24259 60.704766 L 13.613989 59.845327 L 12.938964 58.882863 L 12.028085 59.186513 L 11.546892 58.720193 L 14.255128 55.508818 L 13.292742 55.374615 L 11.267665 57.28192 L 10.492334 56.303189 L 12.144656 54.321328 L 11.668885 53.545934 L 10.964038 53.680137 L 9.207345 55.417994 L 7.443873 53.974299 L 5.967763 55.274302 L 7.263595 56.403502 L 11.75428 65.037208 L 11.636353 65.830223 L 3.824759 65.982049 L 1.276468 64.463796 L 0.888803 60.904036 L 6.927438 44.058212 L 6.725472 42.489803 L 7.90609 41.696787 L 11.4127 35.034099 L 12.765463 34.34953 L 14.191421 30.693524 L 15.708196 29.152227 L 16.098573 23.590271 L 16.901013 23.003304 L 16.891525 22.061174 L 17.565195 21.959506 L 17.463535 22.88808 L 18.962688 22.053041 L 18.55198 21.116333 L 19.480479 20.830305 L 19.160588 19.547924 L 19.672957 19.215807 L 19.480479 18.837599 L 20.089087 18.905378 L 20.038934 16.947917 L 22.714639 15.0013 L 24.036226 15.109747 L 24.036226 14.60547 L 24.896952 14.707139 L 25.11925 14.156772 L 27.12264 13.60505 L 33.084013 8.524327 L 36.175848 7.851958 Z M 36.39679 8.769687 " stroke="rgb(100%, 100%, 100%)" stroke-width="0.5" stroke-opacity="1" stroke-miterlimit="4"/></g></svg>