<svg width="156" height="60" viewBox="0 0 156 60" fill="none" xmlns="http://www.w3.org/2000/svg">
<path fill-rule="evenodd" clip-rule="evenodd" d="M73.0685 1.37073C75.3389 3.64117 74.7255 7.93579 71.6982 10.963C68.6709 13.9903 64.3763 14.6038 62.1058 12.3334C59.8354 10.0629 60.4489 5.76832 63.4762 2.74107C66.5034 -0.286187 70.7981 -0.899703 73.0685 1.37073ZM42.1292 0.668174L53.1272 0.632556L53.3164 59.062L42.3185 59.0977L42.1292 0.668174ZM62.1601 17.5345H73.158V59.0795H62.1601V17.5345ZM30.0142 36.8414C27.9308 35.6543 25.3873 34.7096 22.335 33.9829C20.1306 33.3773 18.3864 32.8201 17.0783 32.3114C15.7702 31.8027 14.8497 31.2455 14.3167 30.6641C13.7595 30.0828 13.493 29.4286 13.493 28.7019C13.493 27.6119 13.9533 26.7397 14.8981 26.1099C15.8428 25.4801 17.1752 25.1652 18.9193 25.1652C20.4697 25.1652 22.2623 25.5043 24.2729 26.1583C26.2836 26.8366 28.1004 27.7572 29.7235 28.9684L35.174 21.5073C33.0423 19.9326 30.5713 18.7214 27.7371 17.8736C24.927 17.0257 22.0443 16.5897 19.1373 16.5897C15.8428 16.5897 12.9359 17.1226 10.4408 18.1885C7.94564 19.2544 5.98346 20.7079 4.50576 22.5489C3.05229 24.39 2.32555 26.546 2.32555 28.9684C2.32555 31.4635 2.90694 33.5468 4.06972 35.2426C5.23249 36.9382 6.9282 38.3433 9.13263 39.4334C11.3371 40.5235 14.0018 41.4683 17.1025 42.2434C19.1858 42.849 20.8089 43.382 22.0201 43.8423C23.2071 44.3025 24.0549 44.787 24.5394 45.2957C25.0239 45.8044 25.2662 46.4585 25.2662 47.2579C25.2662 48.5418 24.6848 49.535 23.522 50.3102C22.3593 51.0611 20.8089 51.4488 18.8467 51.4488C16.6422 51.4488 14.3894 50.9885 12.088 50.0921C9.78668 49.1716 7.60649 47.912 5.52319 46.2647L0 53.8954C2.90694 55.9545 5.93501 57.4806 9.03571 58.4981C12.1365 59.4912 15.4068 60 18.8467 60C24.4183 60 28.7302 58.813 31.8067 56.4148C34.8833 54.0165 36.4094 50.8916 36.4094 47.0157C36.4094 44.7628 35.8523 42.8248 34.7622 41.1533C33.672 39.4576 32.0975 38.0284 30.0142 36.8414ZM144.766 19.4724C147.915 21.3862 150.434 23.9782 152.275 27.2485C154.116 30.5188 155.037 34.2009 155.061 38.2221C155.061 38.8538 155.016 39.508 154.969 40.1848V40.1853L154.964 40.257C154.916 40.9595 154.819 41.5652 154.697 42.1223H123.448C123.715 43.0913 124.078 44.0118 124.562 44.8597C125.604 46.7492 127.033 48.2269 128.826 49.317C130.594 50.4071 132.653 50.9643 134.955 50.9643C137.062 50.9643 139.025 50.6251 140.817 49.9226C142.586 49.2201 144.281 48.13 145.856 46.6038L152.033 53.3383C149.804 55.5427 147.261 57.19 144.402 58.3043C141.544 59.4186 138.491 59.9758 135.221 59.9758C130.982 59.9758 127.155 59.031 123.763 57.1173C120.372 55.2036 117.707 52.6115 115.769 49.3412C113.831 46.0709 112.862 42.413 112.862 38.3433C112.862 34.2736 113.782 30.5914 115.672 27.2969C117.537 23.9782 120.081 21.3862 123.303 19.4724C126.524 17.5586 130.085 16.6139 134.034 16.6139C138.031 16.6139 141.616 17.5586 144.766 19.4724ZM124.368 31.7542C123.981 32.5294 123.666 33.3773 123.448 34.2493H144.669C144.426 33.3288 144.111 32.4809 143.676 31.6573C142.707 29.8163 141.399 28.3144 139.727 27.2C138.055 26.0857 136.142 25.5285 133.962 25.5285C131.903 25.5285 130.013 26.0857 128.317 27.2C126.621 28.3386 125.313 29.8405 124.368 31.7542ZM107.169 47.9362C105.352 49.2927 103.584 49.971 101.912 49.971C100.144 49.971 98.7878 49.3655 97.7698 48.1542C96.7767 46.943 96.2681 45.2715 96.2681 43.1639V27.0789H109.01V17.5345H96.2921V3.79915L85.827 7.72352V17.5345H78.2205V27.0789H85.2704V43.3578C85.2704 48.566 86.6023 52.6358 89.2671 55.5912C91.9318 58.5223 95.6866 60 100.531 60C102.785 60 104.989 59.5882 107.218 58.7646C109.059 58.0862 110.706 57.1173 112.208 55.8818C112.498 55.6396 112.814 55.3731 113.08 55.0824L107.799 47.4517C107.605 47.6212 107.387 47.7908 107.169 47.9362Z" fill="black"/>
</svg>
