<svg xmlns="http://www.w3.org/2000/svg" xmlns:xlink="http://www.w3.org/1999/xlink" width="624" zoomAndPan="magnify" viewBox="0 0 468 308.250004" height="411" preserveAspectRatio="xMidYMid meet" version="1.0"><defs><clipPath id="id1"><path d="M 0.566406 0 L 467.429688 0 L 467.429688 307.5 L 0.566406 307.5 Z M 0.566406 0 " clip-rule="nonzero"/></clipPath><clipPath id="id2"><path d="M 22 205 L 121 205 L 121 304.71875 L 22 304.71875 Z M 22 205 " clip-rule="nonzero"/></clipPath><clipPath id="id3"><path d="M 0.566406 85 L 123 85 L 123 243 L 0.566406 243 Z M 0.566406 85 " clip-rule="nonzero"/></clipPath><clipPath id="id4"><path d="M 161 170 L 303 170 L 303 304.71875 L 161 304.71875 Z M 161 170 " clip-rule="nonzero"/></clipPath><clipPath id="id5"><path d="M 340 2.453125 L 467.429688 2.453125 L 467.429688 118 L 340 118 Z M 340 2.453125 " clip-rule="nonzero"/></clipPath></defs><g clip-path="url(#id1)"><path fill="rgb(100%, 100%, 100%)" d="M 0.566406 0 L 467.433594 0 L 467.433594 307.503906 L 0.566406 307.503906 Z M 0.566406 0 " fill-opacity="1" fill-rule="nonzero"/><path fill="rgb(100%, 100%, 100%)" d="M 0.566406 0 L 467.433594 0 L 467.433594 307.503906 L 0.566406 307.503906 Z M 0.566406 0 " fill-opacity="1" fill-rule="nonzero"/><path fill="rgb(100%, 100%, 100%)" d="M 0.566406 0 L 467.433594 0 L 467.433594 307.503906 L 0.566406 307.503906 Z M 0.566406 0 " fill-opacity="1" fill-rule="nonzero"/></g><path fill="rgb(17.248535%, 44.309998%, 94.119263%)" d="M 34.6875 222.988281 L 42.417969 222.621094 L 44.398438 223.417969 L 47.964844 223.417969 L 49.136719 219.550781 L 50.78125 219.535156 L 52.65625 217.917969 L 53.199219 215.320312 L 52.84375 213.84375 L 57.109375 215.070312 L 59.746094 217.035156 L 60.476562 218.324219 L 62.980469 219.777344 L 66.089844 219.59375 L 66.15625 218.164062 L 66.789062 218.261719 L 67.386719 217.511719 L 70.195312 218.835938 L 71.199219 220.859375 L 72.601562 221.4375 L 74.761719 221.558594 L 77.796875 220.640625 L 77.609375 221.597656 L 78.402344 221.679688 L 78.402344 223.109375 L 79.085938 223.070312 L 79.871094 224.585938 L 83.96875 227.941406 L 86.035156 228.980469 L 86.945312 228.777344 L 87.1875 229.410156 L 87.992188 229.347656 L 92.957031 232.515625 L 92.503906 234.03125 L 94.019531 233.316406 L 94.75 232.066406 L 96.769531 232.410156 L 99.1875 234.339844 L 100.234375 236.113281 L 103.414062 236.484375 L 105.402344 237.867188 L 104.929688 238.710938 L 105.488281 239.855469 L 106.730469 239.605469 L 106.660156 240.40625 L 105.691406 240.707031 L 106.917969 241.203125 L 107.21875 243.625 L 106.714844 244.421875 L 104.582031 244.136719 L 104.273438 244.933594 L 103.511719 244.957031 L 103.65625 246.304688 L 102.707031 247.652344 L 102.554688 249.140625 L 104.355469 250.324219 L 104.214844 252.589844 L 104.785156 253.386719 L 103.828125 256.195312 L 105.246094 257.195312 L 105.5 259.292969 L 104.703125 260.6875 L 107.046875 262.167969 L 106.488281 263.78125 L 108.871094 264.863281 L 107.859375 272.335938 L 106.835938 273.066406 L 106.21875 277.410156 L 108.921875 277.960938 L 107.21875 281.128906 L 106.648438 284.207031 L 104.785156 285.929688 L 108.890625 286.871094 L 109.179688 287.765625 L 110.242188 288.210938 L 110.59375 287.132812 L 111.527344 286.847656 L 111.167969 288.332031 L 111.914062 291.179688 L 111.183594 291.398438 L 111.210938 292.035156 L 109.035156 291.015625 L 105.261719 291.136719 L 102.8125 290.574219 L 99.1875 287.625 L 98.058594 287.539062 L 93.90625 283.574219 L 92.097656 283.492188 L 91.8125 285.832031 L 88.179688 284.46875 L 86.484375 286.480469 L 87.375 288.089844 L 89.105469 288.84375 L 90.9375 290.898438 L 90.265625 291.101562 L 90.855469 292.070312 L 89.980469 293.839844 L 90.351562 296.40625 L 88.152344 298.210938 L 85.160156 296.40625 L 79.246094 297.421875 L 77.398438 300.28125 L 76.109375 301.238281 L 75.792969 302.765625 L 74.648438 302.945312 L 72.757812 302.5625 L 71.183594 302.945312 L 70.738281 301.664062 L 69.40625 301.175781 L 65.523438 301.238281 L 65.285156 299.875 L 63.882812 299.371094 L 64.523438 297.195312 L 63.769531 296.160156 L 61.707031 295.042969 L 58.625 294.878906 L 57.335938 293.539062 L 54.992188 293.839844 L 53.3125 296.097656 L 50.683594 296.550781 L 46.570312 299.265625 L 42.605469 296.160156 L 36.691406 294.652344 L 34.972656 293.335938 L 33.6875 292.054688 L 34.75 290.289062 L 33.671875 288.042969 L 34.289062 287.925781 L 34.386719 287.074219 L 35.703125 287.109375 L 35.019531 287.011719 L 35.449219 286.523438 L 34.800781 285.019531 L 31.582031 284.53125 L 30.566406 281.316406 L 32.917969 282.226562 L 35.976562 282.453125 L 37.023438 281.722656 L 36.59375 281.007812 L 36.121094 281.542969 L 36.210938 280.03125 L 37.980469 279.5625 L 42.378906 281.113281 L 44.113281 280.578125 L 44.066406 279.011719 L 46.070312 279.609375 L 46.710938 278.382812 L 48.1875 277.734375 L 50.683594 277.710938 L 53.027344 278.691406 L 53.574219 277.589844 L 55.617188 276.875 L 54.742188 276.65625 L 54.886719 276.023438 L 56.808594 275.859375 L 54.976562 275.617188 L 55.421875 274.699219 L 56.710938 274.496094 L 56.761719 273.828125 L 50.839844 269.546875 L 51.050781 268.769531 L 56.695312 267.589844 L 63.582031 271.214844 L 69.609375 270.832031 L 73.601562 267.46875 L 74.21875 265.292969 L 78.769531 262.742188 L 81.152344 260.460938 L 79.675781 259.054688 L 76.367188 257.5625 L 73.316406 254.890625 L 68.953125 249 L 68.691406 244.625 L 65.171875 241.527344 L 63.265625 237.355469 L 60.355469 236.664062 L 58.640625 235.210938 L 56.21875 235.484375 L 54.691406 234.480469 L 55.105469 233.886719 L 51.035156 231.578125 L 46.597656 227.347656 L 45.855469 227.730469 L 45.101562 226.074219 L 41.078125 226.691406 L 41.257812 225.773438 L 38.453125 227.144531 L 38.136719 226.21875 L 34.734375 224.667969 Z M 34.6875 222.988281 " fill-opacity="1" fill-rule="nonzero"/><g clip-path="url(#id2)"><path stroke-linecap="butt" transform="matrix(2.881827, 0, 0, 2.87871, 0.571966, 2.452636)" fill="none" stroke-linejoin="miter" d="M 11.83816 76.609191 L 14.520649 76.481638 L 15.207875 76.758455 L 16.445426 76.758455 L 16.852069 75.41508 L 17.422725 75.409652 L 18.073353 74.847877 L 18.261765 73.945509 L 18.138416 73.432584 L 19.618597 73.858664 L 20.533544 74.541207 L 20.787018 74.988999 L 21.655878 75.493782 L 22.734838 75.430006 L 22.757881 74.933364 L 22.977468 74.967288 L 23.184856 74.706755 L 24.159444 75.166759 L 24.507802 75.869656 L 24.994418 76.070484 L 25.743996 76.112549 L 26.797202 75.793667 L 26.732139 76.126119 L 27.007301 76.154614 L 27.007301 76.651256 L 27.244509 76.637687 L 27.51696 77.164181 L 28.938855 78.329797 L 29.655902 78.690744 L 29.971728 78.620183 L 30.055768 78.840008 L 30.334996 78.818297 L 32.057807 79.918779 L 31.900572 80.445273 L 32.426497 80.196952 L 32.679971 79.76273 L 33.380752 79.882141 L 34.219793 80.552472 L 34.58306 81.168525 L 35.686418 81.297434 L 36.376356 81.777793 L 36.212343 82.070893 L 36.406177 82.468478 L 36.837218 82.381633 L 36.81282 82.659807 L 36.476661 82.764292 L 36.902281 82.936624 L 37.006653 83.777929 L 36.831796 84.054746 L 36.091706 83.955689 L 35.984623 84.232506 L 35.720305 84.240647 L 35.770458 84.708793 L 35.441077 85.176939 L 35.388213 85.693935 L 36.013088 86.105089 L 35.964291 86.892117 L 36.162191 87.168934 L 35.830099 88.144577 L 36.322137 88.491955 L 36.410243 89.220634 L 36.133726 89.705063 L 36.947012 90.219345 L 36.753179 90.779763 L 37.580019 91.155637 L 37.228951 93.751472 L 36.873816 94.005221 L 36.659651 95.514143 L 37.597641 95.705472 L 37.006653 96.805954 L 36.808753 97.875227 L 36.162191 98.473639 L 37.586797 98.800663 L 37.687102 99.111403 L 38.055792 99.266095 L 38.177785 98.891578 L 38.501744 98.792521 L 38.37704 99.30816 L 38.635936 100.297373 L 38.382462 100.373362 L 38.39195 100.594544 L 37.636949 100.240381 L 36.327559 100.282446 L 35.477675 100.087046 L 34.219793 99.062553 L 33.82806 99.0327 L 32.387188 97.655402 L 31.759602 97.626906 L 31.660652 98.439716 L 30.400059 97.966142 L 29.811782 98.664968 L 30.120831 99.224029 L 30.721307 99.48592 L 31.357026 100.199673 L 31.123884 100.270234 L 31.328561 100.606756 L 31.024934 101.221452 L 31.153704 102.112965 L 30.390571 102.739873 L 29.352275 102.112965 L 27.300084 102.46577 L 26.658943 103.459054 L 26.211636 103.791505 L 26.101842 104.32207 L 25.704688 104.38449 L 25.048637 104.251509 L 24.50238 104.38449 L 24.347855 103.939412 L 23.885638 103.769794 L 22.538294 103.791505 L 22.45561 103.317931 L 21.968994 103.142885 L 22.191292 102.387067 L 21.929685 102.027477 L 21.213993 101.639391 L 20.144522 101.582399 L 19.697215 101.116967 L 18.883928 101.221452 L 18.301073 102.005766 L 17.388838 102.163171 L 15.961521 103.106248 L 14.585712 102.027477 L 12.53352 101.503696 L 11.93711 101.046406 L 11.491158 100.601328 L 11.859848 99.987989 L 11.485736 99.207746 L 11.699902 99.167038 L 11.733789 98.871224 L 12.190584 98.883436 L 11.953376 98.849513 L 12.102478 98.679895 L 11.877469 98.157471 L 10.760556 97.987853 L 10.408132 96.871088 L 11.224129 97.187256 L 12.285468 97.265958 L 12.648735 97.01221 L 12.499633 96.763889 L 12.33562 96.94979 L 12.366796 96.424653 L 12.980827 96.261819 L 14.507094 96.800526 L 15.108926 96.614625 L 15.09266 96.07049 L 15.78802 96.278103 L 16.010318 95.852022 L 16.522688 95.626769 L 17.388838 95.618628 L 18.202124 95.959221 L 18.39189 95.576562 L 19.100805 95.328242 L 18.797178 95.252253 L 18.847331 95.032428 L 19.514225 94.975436 L 18.878507 94.891305 L 19.033031 94.572423 L 19.480338 94.501862 L 19.497959 94.269825 L 17.443057 92.782613 L 17.516252 92.512582 L 19.474916 92.102784 L 21.864622 93.362029 L 23.956123 93.229048 L 25.34142 92.060719 L 25.555585 91.304901 L 27.134716 90.418816 L 27.961556 89.62636 L 27.449186 89.13786 L 26.301097 88.619507 L 25.24247 87.691357 L 23.728402 85.645085 L 23.637585 84.125307 L 22.416301 83.04925 L 21.754828 81.600033 L 20.744998 81.359854 L 20.149944 80.85507 L 19.309548 80.950057 L 18.779557 80.601322 L 18.923237 80.395066 L 17.510831 79.593112 L 15.971009 78.123541 L 15.713468 78.256522 L 15.451861 77.681177 L 14.05572 77.895574 L 14.118072 77.576692 L 13.14484 78.05298 L 13.035046 77.731384 L 11.854426 77.192677 Z M 11.83816 76.609191 " stroke="rgb(100%, 100%, 100%)" stroke-width="0.5" stroke-opacity="1" stroke-miterlimit="4"/></g><path stroke-linecap="butt" transform="matrix(2.881827, 0, 0, 2.87871, 0.571966, 2.452636)" fill-opacity="1" fill="rgb(17.248535%, 44.309998%, 94.119263%)" fill-rule="nonzero" stroke-linejoin="miter" d="M 38.660334 72.721545 L 38.848746 72.515289 L 39.350272 72.535643 L 39.670165 72.222189 L 40.002256 72.572281 L 41.407886 72.272396 L 42.446181 72.899304 L 42.772851 72.862667 L 43.197115 73.490932 L 44.114773 73.432584 L 44.045644 73.731111 L 44.652897 74.101557 L 45.106982 73.638839 L 45.033786 73.922441 L 45.669505 73.900729 L 46.01244 74.284745 L 47.170017 71.832746 L 47.125287 71.490796 L 47.578016 71.0715 L 48.009058 70.977871 L 49.481105 71.498938 L 49.956878 72.664553 L 50.27677 72.630629 L 50.469248 72.921015 L 50.916555 72.478652 L 51.575317 73.062138 L 51.822014 73.680904 L 52.025335 73.680904 L 52.276098 73.068922 L 52.670542 72.862667 L 53.052787 72.949511 L 53.975866 74.244036 L 54.409619 73.979432 L 54.885391 72.921015 L 55.496711 73.098775 L 56.707152 72.266968 L 57.047377 72.907446 L 56.987736 73.412229 L 56.707152 73.581847 L 56.754594 73.950936 L 57.290007 74.628052 L 57.176147 74.860089 L 58.096516 75.793667 L 58.466561 76.687894 L 59.321867 76.815446 L 59.476391 77.667608 L 60.011804 78.031269 L 60.171751 78.408499 L 59.212073 78.569976 L 59.620072 79.15889 L 60.375072 79.257947 L 60.061957 80.804864 L 60.425225 81.027402 L 60.72343 82.104816 L 59.740709 82.30293 L 59.243249 81.148171 L 58.781031 81.331358 L 58.924712 82.112958 L 59.933187 84.31935 L 60.160907 86.72657 L 60.518753 86.771349 L 60.160907 88.342691 L 58.935556 90.467666 L 58.249685 91.169206 L 56.911829 91.488088 L 57.066353 92.752761 L 56.689531 93.714834 L 56.518741 95.638982 L 56.158184 96.282174 L 53.847096 97.880654 L 53.361835 98.46007 L 52.610901 98.270097 L 52.610901 98.488566 L 51.878944 98.659541 L 51.52652 99.351582 L 50.122246 99.94321 L 49.106994 99.949995 L 48.179848 100.818439 L 47.672899 99.916071 L 47.000583 99.916071 L 46.150699 99.207746 L 45.565133 99.272879 L 45.013454 99.689461 L 44.109351 98.306735 L 42.966684 98.688036 L 42.122222 99.958137 L 42.088335 100.826581 L 40.914492 100.339438 L 40.036143 100.220027 L 38.39195 100.594544 L 38.381106 100.373362 L 38.63458 100.297373 L 38.375684 99.306803 L 38.501744 98.792521 L 38.176429 98.891578 L 38.054436 99.266095 L 37.685747 99.111403 L 37.585441 98.800663 L 36.160835 98.473639 L 36.807398 97.875227 L 37.005297 96.805954 L 37.596285 95.705472 L 36.658295 95.514143 L 36.872461 94.005221 L 37.227595 93.751472 L 37.578664 91.155637 L 36.751823 90.779763 L 36.945656 90.219345 L 36.13237 89.705063 L 36.410243 89.220634 L 36.320782 88.491955 L 35.828743 88.144577 L 36.160835 87.168934 L 35.962936 86.892117 L 36.011733 86.105089 L 35.386858 85.693935 L 35.439722 85.176939 L 35.769102 84.708793 L 35.71895 84.240647 L 35.983268 84.232506 L 36.09035 83.955689 L 36.830441 84.054746 L 37.005297 83.777929 L 36.900926 82.936624 L 36.475306 82.762935 L 36.81282 82.65845 L 36.835863 82.381633 L 36.404821 82.468478 L 36.210988 82.070893 L 36.375001 81.777793 L 35.685063 81.297434 L 34.581705 81.168525 L 34.218437 80.552472 L 34.462423 79.76273 L 34.825691 79.783084 L 34.963949 77.774806 L 35.332639 77.568551 L 35.489874 77.853509 L 35.603734 76.986421 L 34.660322 75.096198 L 37.277748 74.272532 L 37.209974 74.044566 L 37.672192 73.395946 Z M 38.660334 72.721545 " stroke="rgb(100%, 100%, 100%)" stroke-width="0.5" stroke-opacity="1" stroke-miterlimit="4"/><path fill="rgb(17.248535%, 44.309998%, 94.119263%)" d="M 43.164062 94.65625 L 43.449219 95.28125 L 47.359375 95.671875 L 46.996094 97.199219 L 47.570312 97.847656 L 55.59375 94.949219 L 57.695312 97.554688 L 61.5 98.667969 L 63.066406 100.203125 L 66.042969 101.253906 L 66.34375 105.742188 L 67.761719 107.3125 L 69.246094 107.1875 L 69.492188 107.953125 L 67.589844 111.210938 L 65.441406 111.589844 L 64.710938 112.3125 L 62.878906 112.125 L 61.304688 113.652344 L 56.535156 115.203125 L 56.007812 116.210938 L 56.582031 120.09375 L 53.558594 122.675781 L 54.675781 123.660156 L 54.433594 124.675781 L 55.449219 126.738281 L 56.917969 127.566406 L 58.191406 129.855469 L 59.902344 130.269531 L 63.648438 134.289062 L 69.492188 137.773438 L 72.671875 140.382812 L 80.246094 139.707031 L 86.226562 137.667969 L 93.015625 136.265625 L 92.933594 136.921875 L 94.371094 137.871094 L 94.558594 140.074219 L 94.078125 141.664062 L 92.917969 142.136719 L 91.824219 144.460938 L 91.457031 147.285156 L 92.097656 149.285156 L 93.800781 149.902344 L 95.796875 148.976562 L 97.421875 149.632812 L 98.984375 148.871094 L 104.113281 150.4375 L 103.527344 153.464844 L 101.589844 155.804688 L 101.824219 157.203125 L 99.902344 159.53125 L 99.628906 161.277344 L 97.914062 162.472656 L 96.671875 164.585938 L 96.210938 167.078125 L 97.964844 169.894531 L 104.566406 174.429688 L 105.257812 176.570312 L 104.8125 176.960938 L 105.898438 177.207031 L 104.597656 179.242188 L 107.980469 177.613281 L 108.421875 180.59375 L 109.175781 181.308594 L 108.730469 182.484375 L 109.953125 182.746094 L 111.15625 183.980469 L 113.5 184.101562 L 114.292969 184.554688 L 113.691406 185.457031 L 114.035156 186.609375 L 113.164062 186.632812 L 112.257812 189.070312 L 109.667969 189.128906 L 109.710938 190.28125 L 108.949219 190.628906 L 109.238281 192.066406 L 110.625 191.554688 L 110.269531 192.742188 L 110.730469 195.058594 L 109.726562 195.691406 L 109.476562 198.117188 L 107.578125 199.320312 L 108.089844 203.683594 L 110.699219 206.242188 L 111.988281 211.796875 L 109.140625 213.738281 L 107.804688 215.605469 L 108 216.261719 L 100.460938 218.632812 L 103.179688 224.074219 L 102.847656 226.570312 L 102.394531 225.75 L 101.332031 226.347656 L 100.933594 232.125 L 99.886719 232.066406 L 99.1875 234.339844 L 96.769531 232.410156 L 94.75 232.066406 L 94.019531 233.316406 L 92.503906 234.03125 L 92.957031 232.515625 L 87.992188 229.347656 L 87.183594 229.410156 L 86.941406 228.777344 L 86.03125 228.980469 L 83.96875 227.941406 L 79.867188 224.585938 L 79.085938 223.074219 L 78.398438 223.109375 L 78.398438 221.679688 L 77.609375 221.597656 L 77.796875 220.640625 L 74.761719 221.558594 L 72.597656 221.4375 L 71.195312 220.859375 L 70.195312 218.835938 L 67.382812 217.511719 L 66.789062 218.261719 L 66.15625 218.164062 L 66.089844 219.59375 L 62.976562 219.777344 L 60.476562 218.324219 L 59.746094 217.035156 L 57.109375 215.070312 L 52.84375 213.84375 L 53.199219 215.320312 L 52.65625 217.917969 L 50.777344 219.535156 L 49.136719 219.550781 L 47.960938 223.417969 L 44.398438 223.417969 L 42.417969 222.621094 L 34.6875 222.988281 L 33.300781 218.429688 L 31.792969 217.652344 L 31.824219 215.582031 L 34.226562 211.242188 L 33.601562 209.527344 L 34.558594 207.800781 L 36.5625 206.230469 L 38.550781 201.269531 L 40.585938 198.664062 L 39.996094 195.453125 L 41.445312 189.09375 L 40.328125 188.167969 L 37.625 189.605469 L 34.160156 188.023438 L 32.109375 189.605469 L 30.453125 192.183594 L 28.515625 191.980469 L 27.574219 192.886719 L 25.871094 192.824219 L 22.648438 189.929688 L 21.34375 189.867188 L 19.128906 186.261719 L 17.363281 184.554688 L 18.8125 182.890625 L 20.4375 182.710938 L 21.742188 180.371094 L 22.246094 177.496094 L 21.878906 176.589844 L 20.800781 176.09375 L 20.914062 174.023438 L 21.742188 173.183594 L 25.398438 171.949219 L 27.339844 169.050781 L 31.453125 167.34375 L 34.8125 164.300781 L 35.832031 162.511719 L 38.753906 160.5 L 41.714844 157.273438 L 43.164062 154.328125 L 43.050781 152.621094 L 44.097656 151.53125 L 44.667969 149.527344 L 43.578125 147.722656 L 40.585938 146.480469 L 37.367188 148.066406 L 36.9375 147.738281 L 37.277344 146.976562 L 34.300781 147.035156 L 33.984375 146.523438 L 31.410156 147.863281 L 30.679688 147.164062 L 30.761719 145.78125 L 29.625 143.746094 L 25.507812 141.910156 L 25.140625 140.796875 L 23.378906 141.496094 L 21.199219 141.476562 L 20.339844 140.261719 L 18.878906 139.625 L 16.203125 139.910156 L 13.582031 139.292969 L 13.554688 141.910156 L 10.175781 143.207031 L 8.445312 142.410156 L 7.984375 141.476562 L 8.890625 139.789062 L 8.347656 138.960938 L 10.0625 137.621094 L 6.3125 133.234375 L 4.78125 126.097656 L 3.609375 126.015625 L 3.132812 124.511719 L 7.097656 123.953125 L 8.949219 122.285156 L 9.015625 120.859375 L 10.078125 119.679688 L 12.542969 119.085938 L 13.785156 116.75 L 12.121094 112.621094 L 12.484375 111.648438 L 14.488281 111.070312 L 16.859375 111.460938 L 19.039062 109.601562 L 20.640625 109.460938 L 22.535156 108.179688 L 23.292969 108.40625 L 23.4375 107.1875 L 24.867188 106.074219 L 26.066406 106.179688 L 30.488281 103.753906 L 32.027344 101.277344 L 32.871094 97.183594 L 34.90625 95.484375 L 42.476562 93.746094 Z M 43.164062 94.65625 " fill-opacity="1" fill-rule="nonzero"/><g clip-path="url(#id3)"><path stroke-linecap="butt" transform="matrix(2.881827, 0, 0, 2.87871, 0.571966, 2.452636)" fill="none" stroke-linejoin="miter" d="M 14.779545 32.02949 L 14.878495 32.246601 L 16.235327 32.382296 L 16.109268 32.912861 L 16.308523 33.138114 L 19.092672 32.131261 L 19.821918 33.036343 L 21.142153 33.423072 L 21.685699 33.956351 L 22.718572 34.321369 L 22.822944 35.880499 L 23.314982 36.425991 L 23.830063 36.382568 L 23.915458 36.648529 L 23.255341 37.780221 L 22.509829 37.911845 L 22.256355 38.16288 L 21.620636 38.097746 L 21.074379 38.628312 L 19.419342 39.167019 L 19.236352 39.51711 L 19.435608 40.865913 L 18.386468 41.762854 L 18.774135 42.104804 L 18.690095 42.457609 L 19.042519 43.174076 L 19.552179 43.461748 L 19.994064 44.256918 L 20.587763 44.400754 L 21.887665 45.79705 L 23.915458 47.007444 L 25.018816 47.913883 L 27.647086 47.679132 L 29.722321 46.970807 L 32.078139 46.483664 L 32.049674 46.711631 L 32.54849 47.041368 L 32.613553 47.806685 L 32.446829 48.358961 L 32.044252 48.523152 L 31.664719 49.330534 L 31.537304 50.311605 L 31.759602 51.00636 L 32.35059 51.220757 L 33.043239 50.899162 L 33.607117 51.127128 L 34.149308 50.862524 L 35.929049 51.406659 L 35.725727 52.458291 L 35.053411 53.271101 L 35.134739 53.756887 L 34.467845 54.565626 L 34.372961 55.17218 L 33.777907 55.587405 L 33.346865 56.321512 L 33.186919 57.187243 L 33.795528 58.1656 L 36.086284 59.741013 L 36.326203 60.484618 L 36.171679 60.620313 L 36.548502 60.7058 L 36.097128 61.412768 L 37.270971 60.846922 L 37.42414 61.882271 L 37.685747 62.130592 L 37.531222 62.539032 L 37.955486 62.629948 L 38.372973 63.058742 L 39.186259 63.100807 L 39.461421 63.258213 L 39.252678 63.571667 L 39.37196 63.971966 L 39.069688 63.980108 L 38.755218 64.826841 L 37.856537 64.847195 L 37.871447 65.247494 L 37.607129 65.368262 L 37.707434 65.867617 L 38.188628 65.689858 L 38.06528 66.102369 L 38.225226 66.907037 L 37.876869 67.126862 L 37.790118 67.969525 L 37.131357 68.387464 L 37.308924 69.903171 L 38.214383 70.791969 L 38.66169 72.721545 L 37.673547 73.395946 L 37.209974 74.044566 L 37.277748 74.272532 L 34.661678 75.096198 L 35.60509 76.986421 L 35.489874 77.853509 L 35.332639 77.568551 L 34.963949 77.776163 L 34.825691 79.783084 L 34.462423 79.76273 L 34.219793 80.552472 L 33.380752 79.882141 L 32.679971 79.76273 L 32.426497 80.196952 L 31.900572 80.445273 L 32.057807 79.918779 L 30.334996 78.818297 L 30.054412 78.840008 L 29.970373 78.620183 L 29.654547 78.690744 L 28.938855 78.329797 L 27.515604 77.164181 L 27.244509 76.639044 L 27.005945 76.651256 L 27.005945 76.154614 L 26.732139 76.126119 L 26.797202 75.793667 L 25.743996 76.112549 L 24.993062 76.070484 L 24.506446 75.869656 L 24.159444 75.166759 L 23.183501 74.706755 L 22.977468 74.967288 L 22.757881 74.933364 L 22.734838 75.430006 L 21.654523 75.493782 L 20.787018 74.988999 L 20.533544 74.541207 L 19.618597 73.858664 L 18.138416 73.432584 L 18.261765 73.945509 L 18.073353 74.847877 L 17.421369 75.409652 L 16.852069 75.41508 L 16.44407 76.758455 L 15.207875 76.758455 L 14.520649 76.481638 L 11.83816 76.609191 L 11.356966 75.025637 L 10.833752 74.755605 L 10.844596 74.036424 L 11.678214 72.528858 L 11.461338 71.93316 L 11.79343 71.33339 L 12.488789 70.787899 L 13.178727 69.064579 L 13.88493 68.159497 L 13.680253 67.044088 L 14.183135 64.834983 L 13.795469 64.513387 L 12.857479 65.012742 L 11.655171 64.46318 L 10.943546 65.012742 L 10.368823 65.908326 L 9.696507 65.837765 L 9.369837 66.152576 L 8.778849 66.130865 L 7.660581 65.125369 L 7.207852 65.103658 L 6.439296 63.851198 L 5.826621 63.258213 L 6.329503 62.680155 L 6.893381 62.617735 L 7.34611 61.804925 L 7.520967 60.806214 L 7.393552 60.491403 L 7.01944 60.319071 L 7.058749 59.59989 L 7.34611 59.308147 L 8.614837 58.879353 L 9.288508 57.8725 L 10.715826 57.279515 L 11.881536 56.222455 L 12.235315 55.600975 L 13.249212 54.902148 L 14.276663 53.781312 L 14.779545 52.758176 L 14.740236 52.165191 L 15.103504 51.786603 L 15.301403 51.090491 L 14.923225 50.463582 L 13.88493 50.032074 L 12.768017 50.582994 L 12.618915 50.46901 L 12.736841 50.204406 L 11.703968 50.22476 L 11.594174 50.047 L 10.700915 50.512432 L 10.447441 50.269539 L 10.475906 49.789181 L 10.081462 49.082213 L 8.65279 48.444449 L 8.525375 48.05772 L 7.914055 48.300613 L 7.157699 48.293828 L 6.859494 47.871818 L 6.352546 47.650636 L 5.424044 47.749693 L 4.514519 47.535296 L 4.505031 48.444449 L 3.332544 48.894954 L 2.732067 48.618138 L 2.572121 48.293828 L 2.886592 47.707628 L 2.69818 47.419956 L 3.293235 46.954524 L 1.991977 45.430675 L 1.46063 42.951537 L 1.053987 42.923041 L 0.888619 42.400618 L 2.264428 42.206575 L 2.906924 41.627159 L 2.929967 41.131874 L 3.298657 40.722077 L 4.153963 40.515822 L 4.585004 39.704369 L 4.007571 38.270078 L 4.13363 37.932199 L 4.82899 37.731371 L 5.651764 37.867066 L 6.40812 37.22116 L 6.963866 37.17231 L 7.621272 36.727232 L 7.884235 36.805935 L 7.934387 36.382568 L 8.430492 35.995839 L 8.846623 36.032477 L 10.381023 35.189814 L 10.915081 34.329511 L 11.207864 32.907433 L 11.914067 32.317162 L 14.540981 31.713322 Z M 14.779545 32.02949 " stroke="rgb(100%, 100%, 100%)" stroke-width="0.5" stroke-opacity="1" stroke-miterlimit="4"/></g><path stroke-linecap="butt" transform="matrix(2.881827, 0, 0, 2.87871, 0.571966, 2.452636)" fill-opacity="1" fill="rgb(17.248535%, 44.309998%, 94.119263%)" fill-rule="nonzero" stroke-linejoin="miter" d="M 19.070984 26.570502 L 20.650115 26.627494 L 21.792782 27.377884 L 22.658931 27.32632 L 23.667406 26.376459 L 23.971033 26.627494 L 24.705701 26.745548 L 26.150639 26.155277 L 26.946304 26.413096 L 27.61591 26.262476 L 29.628793 27.234048 L 30.51663 28.060427 L 30.814835 27.945087 L 31.416667 28.297892 L 31.521038 28.700905 L 32.410231 29.148697 L 33.043239 29.152768 L 33.756219 28.434944 L 34.555951 28.339958 L 36.68676 28.923444 L 37.021563 29.326456 L 37.829427 29.464865 L 38.783683 30.915439 L 38.783683 31.420222 L 39.571215 31.90058 L 39.84231 32.526132 L 40.418388 32.574982 L 41.531234 31.930433 L 42.550553 32.14483 L 42.867734 31.893796 L 43.340796 32.467783 L 43.832834 32.653685 L 46.18323 31.872084 L 47.512953 32.821946 L 48.467209 32.706605 L 49.117838 32.246601 L 50.420451 32.081054 L 50.977552 32.216748 L 51.800326 31.741818 L 53.367257 31.663115 L 53.693927 32.114978 L 53.445875 32.188253 L 53.406566 32.51799 L 53.876916 32.870796 L 54.156145 33.417644 L 55.149709 33.417644 L 55.70681 33.589976 L 55.796272 33.956351 L 56.495698 34.055408 L 57.291362 33.143542 L 57.931147 33.237171 L 58.854227 34.22774 L 58.854227 34.602257 L 59.445215 35.390642 L 59.754264 36.747586 L 59.968429 36.941629 L 60.640746 36.719091 L 60.635324 36.792366 L 60.410314 37.085466 L 59.400484 37.364996 L 59.994183 38.219871 L 59.392351 39.388201 L 60.177172 40.084313 L 59.262226 41.145444 L 60.002316 42.420972 L 59.774596 42.894545 L 60.520108 43.195787 L 60.381849 43.568947 L 60.857622 44.084586 L 59.996894 44.121223 L 59.709533 44.536448 L 59.729865 44.742704 L 60.444201 44.973385 L 60.305943 45.29498 L 60.697676 45.911033 L 59.481813 46.875821 L 59.521122 47.335825 L 59.144299 47.87996 L 58.462494 48.51501 L 57.798311 48.551647 L 57.066353 49.544931 L 55.1104 49.219264 L 54.989763 49.367171 L 55.442492 49.676555 L 54.912501 50.010363 L 53.599044 50.068712 L 52.331673 50.010363 L 52.6353 51.048426 L 53.153092 51.547781 L 51.920964 52.249321 L 51.205272 52.249321 L 51.270335 52.800241 L 51.07108 53.093341 L 50.862336 53.006497 L 50.842004 52.650977 L 50.27677 52.599413 L 50.271348 52.935935 L 50.09107 53.043134 L 49.853861 52.85859 L 49.460773 53.566915 L 48.616311 53.937361 L 48.483474 54.823445 L 48.948403 55.279379 L 48.998556 55.83844 L 48.73966 56.400215 L 48.098519 56.453136 L 47.71763 56.103044 L 47.194416 56.244166 L 45.184244 55.929355 L 44.605455 56.701457 L 43.573938 56.693315 L 42.988372 57.294441 L 42.658991 58.000053 L 42.763363 59.263368 L 42.3025 59.79122 L 42.183218 60.471049 L 40.990399 61.511825 L 40.95109 62.003039 L 40.156781 61.974543 L 40.125605 62.287998 L 39.683719 62.423692 L 39.720317 62.866056 L 39.186259 63.100807 L 38.372973 63.058742 L 37.955486 62.629948 L 37.531222 62.539032 L 37.685747 62.130592 L 37.42414 61.882271 L 37.269615 60.846922 L 36.095772 61.412768 L 36.548502 60.7058 L 36.171679 60.620313 L 36.326203 60.484618 L 36.086284 59.741013 L 33.795528 58.1656 L 33.186919 57.187243 L 33.34551 56.321512 L 33.777907 55.587405 L 34.372961 55.17218 L 34.467845 54.565626 L 35.134739 53.756887 L 35.053411 53.271101 L 35.725727 52.458291 L 35.929049 51.406659 L 34.147952 50.862524 L 33.607117 51.127128 L 33.043239 50.899162 L 32.349235 51.220757 L 31.759602 51.00636 L 31.537304 50.311605 L 31.664719 49.330534 L 32.044252 48.523152 L 32.446829 48.358961 L 32.613553 47.806685 L 32.54849 47.041368 L 32.049674 46.711631 L 32.078139 46.483664 L 29.722321 46.970807 L 27.647086 47.679132 L 25.018816 47.913883 L 23.915458 47.007444 L 21.887665 45.79705 L 20.587763 44.400754 L 19.994064 44.256918 L 19.552179 43.461748 L 19.042519 43.174076 L 18.690095 42.457609 L 18.772779 42.104804 L 18.386468 41.762854 L 19.434252 40.865913 L 19.236352 39.51711 L 19.419342 39.167019 L 21.074379 38.628312 L 21.620636 38.097746 L 22.256355 38.16288 L 22.509829 37.911845 L 23.253986 37.780221 L 23.915458 36.648529 L 23.830063 36.382568 L 23.314982 36.425991 L 22.822944 35.880499 L 22.718572 34.321369 L 21.685699 33.956351 L 21.142153 33.423072 L 19.821918 33.036343 L 19.092672 32.131261 L 16.308523 33.138114 L 16.109268 32.912861 L 16.235327 32.382296 L 16.742275 31.958929 L 17.045902 30.850305 L 16.787006 30.241037 L 17.536585 29.333241 L 17.254645 28.968223 L 17.406459 28.434944 L 17.232958 27.879953 L 17.814457 27.21098 L 17.800903 26.369674 L 18.156037 26.147135 Z M 19.070984 26.570502 " stroke="rgb(100%, 100%, 100%)" stroke-width="0.5" stroke-opacity="1" stroke-miterlimit="4"/><path stroke-linecap="butt" transform="matrix(2.881827, 0, 0, 2.87871, 0.571966, 2.452636)" fill-opacity="1" fill="rgb(17.248535%, 44.309998%, 94.119263%)" fill-rule="nonzero" stroke-linejoin="miter" d="M 60.633968 36.792366 L 61.836276 37.602461 L 62.103305 37.308005 L 63.152444 37.38128 L 64.259868 36.970125 L 64.200227 39.232152 L 65.083998 40.228149 L 65.695318 40.256645 L 65.894573 40.50768 L 65.870175 42.271708 L 66.29715 42.429113 L 67.296136 42.161795 L 67.330023 42.601445 L 66.897626 43.425111 L 67.31918 44.034379 L 67.324601 44.536448 L 66.927447 45.244773 L 67.290715 45.837758 L 68.482179 45.837758 L 69.839011 46.290978 L 70.165681 46.088793 L 70.832575 46.297762 L 71.995574 45.924603 L 74.524894 46.118646 L 76.720766 47.608571 L 77.062346 47.47152 L 77.371395 48.33725 L 77.985426 48.436307 L 77.731952 48.757903 L 77.433747 48.666988 L 77.241269 49.103924 L 76.80345 49.160916 L 76.869869 50.492078 L 76.284303 50.855739 L 76.251771 51.31303 L 75.342246 51.085063 L 74.348682 51.584419 L 72.555386 51.65498 L 72.735665 51.942652 L 73.227703 52.041709 L 73.193816 52.408084 L 74.012524 53.220894 L 73.687209 53.929219 L 73.729229 54.486923 L 75.860039 54.193823 L 76.202974 54.343087 L 76.445605 54.672825 L 76.278881 55.409645 L 76.495757 56.078619 L 77.185695 56.808655 L 77.723819 56.873789 L 79.376145 56.758448 L 80.35751 55.54534 L 81.424271 55.071766 L 82.001704 56.008058 L 81.826847 56.329654 L 81.126066 56.408357 L 81.467646 56.964704 L 81.47849 57.542762 L 81.821425 57.74359 L 81.140976 57.991911 L 81.318543 58.371855 L 82.736372 59.122246 L 85.27518 58.656814 L 85.528654 59.234872 L 86.142685 59.407204 L 86.218592 60.000189 L 87.217578 61.610882 L 86.401581 61.602741 L 86.526285 61.391057 L 86.097955 61.247221 L 85.638448 61.619024 L 85.439193 62.188941 L 84.63404 61.874129 L 84.425296 61.590528 L 83.034577 61.532179 L 82.874631 61.882271 L 83.128105 62.003039 L 83.42631 62.880982 L 83.271786 63.266355 L 82.50323 63.657155 L 82.621157 64.10766 L 82.398858 64.28542 L 81.920375 64.206717 L 81.866156 64.406188 L 81.62217 64.398046 L 81.013561 63.950255 L 80.231451 64.020816 L 79.873605 63.608305 L 79.227043 63.509248 L 78.767536 63.806419 L 78.711962 64.62737 L 77.951539 64.868906 L 77.321243 64.905544 L 76.903756 64.525599 L 76.411718 63.806419 L 76.422561 63.145587 L 75.988809 63.145587 L 75.716358 62.3667 L 75.347668 62.188941 L 74.890873 62.473899 L 74.922049 63.030246 L 74.579113 63.402049 L 73.653322 63.278567 L 72.859013 63.444114 L 72.654336 63.122519 L 72.357487 63.385766 L 71.662127 62.787353 L 71.235152 63.258213 L 70.76209 63.29485 L 70.722782 63.749427 L 70.072153 64.186363 L 69.470321 63.921759 L 69.098921 64.471321 L 69.258867 64.734569 L 68.951174 64.776634 L 68.493022 65.396758 L 68.471335 66.00874 L 68.262591 65.908326 L 67.935921 66.214995 L 68.110778 66.573229 L 67.865437 66.64379 L 67.515724 67.470169 L 67.862726 67.89625 L 68.090446 67.654713 L 68.318166 67.939672 L 68.433381 67.76734 L 68.890177 67.953241 L 68.625859 68.2382 L 68.951174 69.563935 L 69.69533 70.664417 L 69.317152 70.836749 L 69.261578 71.660414 L 69.536739 72.230331 L 70.103329 72.593992 L 70.51946 73.589989 L 70.131794 73.717542 L 69.962359 74.157192 L 69.590959 74.421796 L 69.6506 75.993138 L 70.116884 75.720392 L 70.354092 76.397507 L 71.060295 76.766596 L 70.936947 77.647253 L 71.710924 77.867078 L 72.034883 78.206315 L 71.771921 79.700311 L 72.3236 80.933773 L 73.182972 81.131887 L 73.421536 80.572826 L 73.619435 80.59318 L 73.807847 81.103391 L 74.739059 80.863212 L 75.369356 81.297434 L 75.235164 83.822708 L 74.623844 84.468614 L 74.14536 83.950261 L 73.748206 84.02625 L 73.355118 83.757575 L 70.116884 80.72209 L 69.87832 80.871354 L 69.734639 80.735659 L 69.31173 80.11825 L 69.060967 79.20774 L 67.37882 77.987847 L 67.274449 77.556338 L 66.595355 76.873795 L 65.904062 76.758455 L 65.357805 77.483063 L 64.780372 77.668965 L 64.453702 78.081476 L 61.899983 77.816872 L 61.711572 78.214456 L 60.335763 78.086904 L 60.171751 78.408499 L 60.011804 78.031269 L 59.476391 77.668965 L 59.321867 76.815446 L 58.466561 76.687894 L 58.09516 75.793667 L 57.174791 74.860089 L 57.290007 74.628052 L 56.754594 73.950936 L 56.707152 73.581847 L 56.987736 73.412229 L 57.047377 72.907446 L 56.707152 72.266968 L 55.496711 73.098775 L 54.885391 72.921015 L 54.409619 73.979432 L 53.975866 74.244036 L 53.052787 72.949511 L 52.670542 72.862667 L 52.276098 73.070279 L 52.025335 73.680904 L 51.820658 73.680904 L 51.575317 73.062138 L 50.916555 72.478652 L 50.469248 72.921015 L 50.275415 72.630629 L 49.956878 72.664553 L 49.481105 71.498938 L 48.009058 70.977871 L 47.578016 71.072857 L 47.125287 71.490796 L 47.170017 71.832746 L 46.01244 74.284745 L 45.669505 73.900729 L 45.033786 73.922441 L 45.106982 73.638839 L 44.652897 74.102914 L 44.045644 73.731111 L 44.113417 73.432584 L 43.19576 73.490932 L 42.772851 72.862667 L 42.446181 72.899304 L 41.407886 72.272396 L 40.000901 72.572281 L 39.668809 72.222189 L 39.350272 72.535643 L 38.848746 72.515289 L 38.660334 72.721545 L 38.213027 70.791969 L 37.308924 69.903171 L 37.131357 68.387464 L 37.790118 67.969525 L 37.875513 67.126862 L 38.223871 66.907037 L 38.063925 66.102369 L 38.187273 65.689858 L 37.706079 65.867617 L 37.607129 65.368262 L 37.870091 65.247494 L 37.855181 64.847195 L 38.753862 64.826841 L 39.068333 63.978751 L 39.37196 63.971966 L 39.251322 63.571667 L 39.460066 63.258213 L 39.186259 63.100807 L 39.718962 62.866056 L 39.682364 62.423692 L 40.124249 62.287998 L 40.155425 61.974543 L 40.95109 62.003039 L 40.989043 61.511825 L 42.181863 60.471049 L 42.3025 59.79122 L 42.762007 59.263368 L 42.657635 58.000053 L 42.987016 57.294441 L 43.572582 56.693315 L 44.605455 56.701457 L 45.182889 55.929355 L 47.193061 56.244166 L 47.716275 56.101687 L 48.098519 56.453136 L 48.738304 56.400215 L 48.9972 55.83844 L 48.948403 55.279379 L 48.482119 54.823445 L 48.616311 53.937361 L 49.460773 53.566915 L 49.852506 52.857233 L 50.089714 53.043134 L 50.271348 52.935935 L 50.275415 52.599413 L 50.840649 52.650977 L 50.860981 53.006497 L 51.07108 53.093341 L 51.268979 52.800241 L 51.203916 52.249321 L 51.920964 52.249321 L 53.151736 51.547781 L 52.633944 51.048426 L 52.330318 50.010363 L 53.599044 50.068712 L 54.911145 50.010363 L 55.442492 49.676555 L 54.989763 49.367171 L 55.1104 49.219264 L 57.064998 49.544931 L 57.796955 48.551647 L 58.461139 48.51501 L 59.144299 47.87996 L 59.519766 47.335825 L 59.481813 46.875821 L 60.69632 45.911033 L 60.304587 45.29498 L 60.442846 44.973385 L 59.729865 44.742704 L 59.708178 44.536448 L 59.995539 44.121223 L 60.856266 44.084586 L 60.380494 43.568947 L 60.518753 43.19443 L 59.774596 42.894545 L 60.00096 42.420972 L 59.262226 41.145444 L 60.177172 40.084313 L 59.392351 39.388201 L 59.994183 38.219871 L 59.400484 37.364996 L 60.408959 37.085466 Z M 60.633968 36.792366 " stroke="rgb(100%, 100%, 100%)" stroke-width="0.5" stroke-opacity="1" stroke-miterlimit="4"/><path fill="rgb(17.248535%, 44.309998%, 94.119263%)" d="M 173.976562 228.167969 L 174.453125 227.242188 L 178.414062 227.609375 L 178.957031 226.464844 L 186.320312 227.226562 L 187.261719 226.039062 L 188.925781 225.503906 L 190.5 223.417969 L 192.488281 223.75 L 194.449219 225.714844 L 194.75 226.957031 L 199.59375 230.46875 L 200.316406 233.089844 L 201.539062 234.867188 L 201.953125 235.257812 L 202.636719 234.828125 L 211.972656 243.566406 L 213.101562 244.339844 L 214.246094 244.121094 L 215.625 245.613281 L 217.390625 243.753906 L 217.773438 236.484375 L 215.957031 235.234375 L 213.277344 235.925781 L 212.734375 234.457031 L 212.160156 234.398438 L 211.476562 236.007812 L 208.996094 235.4375 L 207.40625 231.886719 L 208.167969 227.585938 L 207.234375 226.609375 L 205.003906 225.976562 L 205.359375 223.441406 L 203.324219 222.378906 L 202.636719 220.429688 L 201.296875 221.214844 L 201.125 216.691406 L 202.191406 215.929688 L 202.683594 214.664062 L 203.796875 214.296875 L 202.601562 211.429688 L 200.964844 210.382812 L 200.175781 208.742188 L 200.332031 206.371094 L 201.425781 205.875 L 199.277344 202.707031 L 198.34375 198.890625 L 199.105469 198.070312 L 197.785156 197.535156 L 197.453125 198.03125 L 196.796875 197.210938 L 196.144531 197.90625 L 195.140625 196.679688 L 196.152344 194.300781 L 196.859375 194.097656 L 196.355469 193.066406 L 197.296875 192.183594 L 197.898438 192.472656 L 197.957031 190.710938 L 199.277344 188.925781 L 200.167969 188.804688 L 199.707031 188.046875 L 200.777344 186.464844 L 202.507812 187.226562 L 204.386719 185.96875 L 204.5 184.660156 L 205.863281 184.554688 L 207.089844 183.199219 L 209.09375 184.921875 L 209.953125 184.164062 L 210.542969 185.089844 L 212.832031 184.613281 L 215.5 184.96875 L 216.484375 183.898438 L 216.394531 182.296875 L 217.714844 181.476562 L 218.777344 181.988281 L 219.558594 184.230469 L 220.808594 184.230469 L 220.78125 186.132812 L 222.195312 188.203125 L 223.402344 189.296875 L 225.21875 189.191406 L 227.410156 188.496094 L 227.566406 186.132812 L 228.894531 185.277344 L 230.753906 185.5625 L 231.789062 186.75 L 234.039062 186.546875 L 235.796875 187.835938 L 236.496094 187.859375 L 236.65625 187.285156 L 238.035156 187.511719 L 238.671875 187 L 238.335938 185.707031 L 240.550781 184.578125 L 240.996094 183.46875 L 240.136719 180.941406 L 239.40625 180.59375 L 239.863281 179.585938 L 243.871094 179.753906 L 244.476562 180.574219 L 246.796875 181.476562 L 247.367188 179.835938 L 248.695312 178.765625 L 249.929688 179.179688 L 249.566406 179.789062 L 251.917969 179.8125 L 254.96875 180.796875 L 255.484375 182.402344 L 256.734375 180.714844 L 260.378906 181.414062 L 260.136719 183.777344 L 258.40625 184.597656 L 258.027344 186.691406 L 259.394531 187.382812 L 259.582031 189.402344 L 264.484375 193.515625 L 267.664062 194.835938 L 268.597656 194.871094 L 268.507812 193.8125 L 269.097656 193.398438 L 270.300781 193.96875 L 270.460938 192.800781 L 271.671875 192.742188 L 271.875 190.605469 L 273.769531 191.078125 L 275.167969 193.601562 L 276.519531 193.503906 L 276.601562 192.230469 L 275.425781 190.898438 L 276.503906 189.007812 L 278.445312 189.625 L 280.113281 191.078125 L 280.019531 188.820312 L 282.273438 189.640625 L 284.042969 189.5 L 284.105469 192.101562 L 286.035156 192.695312 L 286.636719 193.726562 L 285.535156 195.453125 L 286.125 203.730469 L 284.949219 206.800781 L 290.785156 209.621094 L 290.320312 210.953125 L 290.894531 213.167969 L 292.695312 213.144531 L 291.851562 214.644531 L 288.601562 215.296875 L 288.339844 216.09375 L 289.273438 216.832031 L 289.640625 218.675781 L 290.917969 220.371094 L 293.183594 227.917969 L 290.945312 230.25 L 287.984375 230.824219 L 282.871094 233.847656 L 279.351562 235.089844 L 278.191406 236.542969 L 276.398438 237.484375 L 273.882812 240.691406 L 270.558594 241.871094 L 272.164062 243.054688 L 274.355469 242.769531 L 275.265625 244.816406 L 276.886719 244.265625 L 277.519531 245.183594 L 277.617188 247.570312 L 279.035156 248.855469 L 279.433594 246.734375 L 280.84375 246.671875 L 280.367188 248.628906 L 282.453125 251.671875 L 283.101562 251.015625 L 282.152344 247.058594 L 283.933594 245.851562 L 284.949219 243.503906 L 287.539062 243.445312 L 287.414062 246.320312 L 288.285156 246.53125 L 288.355469 247.367188 L 287.96875 249.058594 L 286.605469 249.429688 L 286.378906 252.078125 L 287.066406 251.933594 L 287.207031 251.136719 L 288.097656 251.160156 L 288.414062 249 L 289.273438 248.441406 L 290.355469 251.183594 L 292.3125 253.175781 L 293.222656 256.320312 L 294.683594 257.15625 L 293.0625 258.867188 L 291.789062 259.339844 L 290.019531 258.683594 L 289.515625 257.667969 L 285.996094 257.542969 L 285.410156 258.257812 L 286.710938 258.886719 L 286.570312 259.582031 L 285.144531 260.257812 L 282.960938 260.054688 L 279.59375 260.808594 L 280.292969 264.414062 L 278.003906 264.699219 L 275.960938 266.347656 L 279.050781 270.570312 L 279.433594 280.097656 L 280.019531 280.804688 L 281.292969 280.925781 L 281.179688 282.4375 L 282.710938 283.144531 L 283.714844 285.101562 L 287.335938 287.277344 L 288.300781 288.59375 L 289.371094 288.03125 L 291.609375 290.082031 L 287.683594 292.5 L 285.851562 296.359375 L 283.585938 297.132812 L 275.230469 294.507812 L 271.085938 297.074219 L 268.871094 300.21875 L 268.15625 302.457031 L 265.546875 302.519531 L 264.003906 300.546875 L 262.253906 303.207031 L 258.976562 302.886719 L 257.457031 301.847656 L 256.023438 299.105469 L 253.878906 298.332031 L 251.1875 295.308594 L 248.671875 294.375 L 248.527344 291.015625 L 244.890625 289.859375 L 244.082031 288.738281 L 242.011719 290.144531 L 240.066406 290.445312 L 237.957031 288.210938 L 233.695312 287.722656 L 231.71875 285.402344 L 226.378906 281.496094 L 225.042969 281.699219 L 223.769531 283.597656 L 223.960938 288.617188 L 222.988281 292.070312 L 218.347656 293.074219 L 217.3125 294.207031 L 209.984375 295.511719 L 209.695312 293.289062 L 208.484375 291.851562 L 208.378906 290.285156 L 207.503906 289.269531 L 207.996094 288.4375 L 207.121094 286.886719 L 205.816406 287.253906 L 205.628906 286.179688 L 203.027344 285.871094 L 203.035156 284.875 L 201.539062 285.042969 L 198.199219 281.542969 L 195.925781 280.441406 L 193.746094 280.277344 L 193.265625 281.902344 L 192.058594 282.023438 L 191.085938 280.375 L 191.691406 276.445312 L 192.664062 275.964844 L 193.28125 274.65625 L 192.285156 271.8125 L 190.410156 269.34375 L 186.523438 268.792969 L 184.789062 266.285156 L 183.265625 265.984375 L 182.738281 264.328125 L 180.433594 263.496094 L 178.476562 261.621094 L 180.117188 254.996094 L 181.089844 254.222656 L 179.777344 253.808594 L 178.90625 252.753906 L 176.296875 253.546875 L 175.980469 252.648438 L 175.710938 252.996094 L 174.980469 252.242188 L 173.949219 252.113281 L 173.292969 245.183594 L 170.382812 238.832031 L 169.96875 236.582031 L 171.304688 236.054688 L 172.734375 239.378906 L 175.566406 238.808594 L 174.707031 235.707031 L 173.660156 235.070312 L 174.566406 230.613281 L 172.386719 230.328125 L 171.210938 228.632812 Z M 173.976562 228.167969 " fill-opacity="1" fill-rule="nonzero"/><g clip-path="url(#id4)"><path stroke-linecap="butt" transform="matrix(2.881827, 0, 0, 2.87871, 0.571966, 2.452636)" fill="none" stroke-linejoin="miter" d="M 60.171751 78.408499 L 60.337119 78.086904 L 61.711572 78.214456 L 61.899983 77.816872 L 64.455057 78.081476 L 64.781727 77.668965 L 65.35916 77.483063 L 65.905417 76.758455 L 66.595355 76.873795 L 67.275804 77.556338 L 67.380176 77.987847 L 69.060967 79.20774 L 69.31173 80.11825 L 69.735995 80.735659 L 69.879675 80.871354 L 70.116884 80.72209 L 73.356473 83.757575 L 73.748206 84.02625 L 74.14536 83.950261 L 74.623844 84.468614 L 75.236519 83.822708 L 75.369356 81.297434 L 74.739059 80.863212 L 73.809202 81.103391 L 73.620791 80.59318 L 73.421536 80.572826 L 73.184327 81.131887 L 72.3236 80.933773 L 71.771921 79.700311 L 72.036239 78.206315 L 71.71228 77.867078 L 70.938302 77.647253 L 71.061651 76.766596 L 70.355447 76.397507 L 70.116884 75.720392 L 69.651955 75.993138 L 69.592314 74.421796 L 69.962359 74.157192 L 70.133149 73.717542 L 70.51946 73.589989 L 70.104684 72.593992 L 69.536739 72.230331 L 69.262933 71.660414 L 69.317152 70.836749 L 69.696686 70.664417 L 68.951174 69.563935 L 68.627215 68.2382 L 68.891533 67.953241 L 68.433381 67.76734 L 68.318166 67.939672 L 68.090446 67.654713 L 67.864081 67.89625 L 67.515724 67.470169 L 67.866792 66.64379 L 68.112133 66.573229 L 67.937277 66.214995 L 68.263947 65.908326 L 68.47269 66.00874 L 68.493022 65.396758 L 68.951174 64.776634 L 69.260222 64.734569 L 69.100276 64.471321 L 69.471677 63.921759 L 70.072153 64.186363 L 70.724137 63.749427 L 70.763446 63.29485 L 71.236507 63.258213 L 71.662127 62.787353 L 72.357487 63.385766 L 72.655692 63.122519 L 72.860369 63.444114 L 73.654678 63.278567 L 74.580469 63.402049 L 74.922049 63.030246 L 74.890873 62.473899 L 75.349024 62.188941 L 75.717714 62.3667 L 75.988809 63.145587 L 76.422561 63.145587 L 76.413073 63.806419 L 76.903756 64.525599 L 77.322598 64.905544 L 77.952895 64.868906 L 78.713317 64.62737 L 78.767536 63.806419 L 79.228398 63.509248 L 79.873605 63.608305 L 80.232807 64.020816 L 81.013561 63.950255 L 81.623526 64.398046 L 81.866156 64.406188 L 81.921731 64.206717 L 82.400214 64.28542 L 82.621157 64.10766 L 82.504586 63.658512 L 83.273141 63.266355 L 83.427665 62.880982 L 83.12946 62.003039 L 82.875986 61.882271 L 83.034577 61.532179 L 84.425296 61.590528 L 84.635395 61.875486 L 85.440548 62.188941 L 85.638448 61.619024 L 86.09931 61.247221 L 86.527641 61.391057 L 86.401581 61.602741 L 87.217578 61.610882 L 88.276206 61.952832 L 88.455129 62.510537 L 88.888881 61.924336 L 90.153541 62.16723 L 90.069501 62.988181 L 89.469025 63.273139 L 89.337544 64.000462 L 89.811961 64.240641 L 89.877024 64.942181 L 91.578147 66.371044 L 92.681505 66.829691 L 93.005464 66.841904 L 92.974288 66.474172 L 93.178965 66.330336 L 93.596452 66.528449 L 93.652027 66.122723 L 94.072224 66.102369 L 94.142709 65.36012 L 94.800115 65.52431 L 95.285376 66.400897 L 95.754371 66.366973 L 95.782836 65.924609 L 95.374837 65.461891 L 95.748949 64.80513 L 96.422621 65.019527 L 97.00141 65.52431 L 96.968878 64.739996 L 97.750988 65.024955 L 98.365019 64.976105 L 98.386707 65.87983 L 99.056312 66.086086 L 99.265056 66.444319 L 98.882811 67.044088 L 99.087488 69.919454 L 98.67949 70.986012 L 100.704572 71.965726 L 100.54327 72.428445 L 100.742525 73.197832 L 101.3674 73.18969 L 101.074617 73.710757 L 99.946861 73.937367 L 99.856044 74.214184 L 100.180003 74.470646 L 100.307417 75.111124 L 100.750658 75.700038 L 101.536835 78.321655 L 100.760147 79.131751 L 99.732695 79.331222 L 97.958376 80.381497 L 96.737092 80.813005 L 96.334515 81.317789 L 95.712351 81.644812 L 94.839424 82.758864 L 93.685913 83.168661 L 94.243014 83.579815 L 95.003437 83.480758 L 95.319263 84.191797 L 95.881786 84.000468 L 96.101373 84.31935 L 96.13526 85.148443 L 96.627298 85.594878 L 96.765557 84.858057 L 97.254884 84.836346 L 97.089516 85.516175 L 97.81334 86.573235 L 98.038349 86.345268 L 97.708968 84.970683 L 98.327066 84.551388 L 98.67949 83.735864 L 99.578171 83.71551 L 99.534796 84.714221 L 99.837067 84.787496 L 99.861466 85.077882 L 99.727273 85.665439 L 99.254212 85.794349 L 99.175594 86.714357 L 99.414158 86.66415 L 99.462955 86.387334 L 99.772004 86.395475 L 99.881798 85.645085 L 100.180003 85.451042 L 100.55547 86.403617 L 101.234564 87.095659 L 101.55039 88.187999 L 102.057338 88.478385 L 101.494815 89.072727 L 101.05293 89.236917 L 100.438899 89.008951 L 100.264042 88.656145 L 99.042758 88.612723 L 98.839436 88.861044 L 99.29081 89.079512 L 99.242013 89.321048 L 98.747264 89.555799 L 97.989552 89.485238 L 96.821131 89.747128 L 97.063762 90.999588 L 96.269452 91.098645 L 95.560538 91.671276 L 96.63272 93.138133 L 96.765557 96.447721 L 96.968878 96.693328 L 97.410764 96.735393 L 97.371455 97.260531 L 97.902802 97.506138 L 98.251159 98.185967 L 99.507686 98.941785 L 99.842489 99.399075 L 100.21389 99.203675 L 100.990578 99.916071 L 99.628324 100.75602 L 98.992605 102.096681 L 98.206428 102.365356 L 95.307064 101.453489 L 93.868903 102.345002 L 93.100347 103.437342 L 92.852295 104.214872 L 91.946837 104.236583 L 91.411423 103.551326 L 90.80417 104.475405 L 89.666925 104.364136 L 89.139644 104.003188 L 88.642184 103.050613 L 87.898028 102.781938 L 86.964104 101.731663 L 86.091177 101.407353 L 86.041025 100.240381 L 84.779076 99.838725 L 84.498492 99.449282 L 83.780089 99.937782 L 83.105062 100.042267 L 82.373104 99.266095 L 80.894279 99.096477 L 80.208408 98.290452 L 78.355471 96.933507 L 77.891898 97.004068 L 77.450013 97.663543 L 77.516431 99.407217 L 77.178917 100.606756 L 75.568611 100.955491 L 75.20941 101.349005 L 72.666535 101.802224 L 72.56623 101.030123 L 72.146032 100.530767 L 72.109434 99.986632 L 71.805808 99.633827 L 71.976598 99.344798 L 71.672971 98.806091 L 71.220242 98.933643 L 71.155179 98.560484 L 70.252431 98.453285 L 70.255142 98.107264 L 69.735995 98.165613 L 68.577062 96.94979 L 67.788174 96.567132 L 67.031818 96.51014 L 66.865095 97.074629 L 66.446252 97.116695 L 66.108739 96.544064 L 66.318838 95.178978 L 66.656351 95.012073 L 66.870517 94.557497 L 66.52487 93.569641 L 65.874241 92.712052 L 64.525542 92.520723 L 63.92371 91.649565 L 63.395074 91.54508 L 63.212085 90.969736 L 62.412354 90.680706 L 61.73326 90.029373 L 62.30256 87.727995 L 62.640074 87.45932 L 62.184634 87.315484 L 61.882362 86.949109 L 60.976904 87.224568 L 60.86711 86.912471 L 60.773582 87.033239 L 60.520108 86.771349 L 60.162262 86.72657 L 59.934542 84.31935 L 58.924712 82.112958 L 58.781031 81.331358 L 59.244604 81.148171 L 59.740709 82.30293 L 60.72343 82.104816 L 60.425225 81.027402 L 60.061957 80.80622 L 60.376428 79.257947 L 59.620072 79.15889 L 59.212073 78.569976 Z M 60.171751 78.408499 " stroke="rgb(100%, 100%, 100%)" stroke-width="0.5" stroke-opacity="1" stroke-miterlimit="4"/></g><path stroke-linecap="butt" transform="matrix(2.881827, 0, 0, 2.87871, 0.571966, 2.452636)" fill-opacity="1" fill="rgb(17.248535%, 44.309998%, 94.119263%)" fill-rule="nonzero" stroke-linejoin="miter" d="M 77.241269 49.103924 L 77.241269 49.710478 L 77.803792 50.032074 L 78.29583 50.706475 L 79.250086 50.748541 L 80.695024 50.22476 L 82.158939 50.397092 L 82.240268 50.912731 L 82.482898 50.983292 L 83.652674 50.253256 L 84.123025 50.439157 L 85.345665 50.368596 L 86.61168 49.532718 L 87.790945 50.604705 L 87.864141 51.076921 L 88.156924 51.106774 L 88.072884 51.713328 L 89.139644 51.612914 L 89.414806 52.779887 L 90.324331 53.423079 L 90.766217 54.40822 L 91.147105 54.742029 L 90.512742 54.902148 L 90.219959 55.421858 L 88.624563 54.721675 L 88.708603 55.029701 L 88.498504 55.145041 L 88.250452 55.965993 L 89.403962 56.659391 L 88.376511 57.023053 L 86.915307 56.523697 L 86.79467 57.051548 L 86.041025 57.187243 L 86.049157 58.065186 L 85.646581 57.785655 L 85.170808 58.149317 L 85.27518 58.656814 L 82.736372 59.122246 L 81.319899 58.371855 L 81.142332 57.991911 L 81.821425 57.74359 L 81.479845 57.542762 L 81.469001 56.964704 L 81.126066 56.408357 L 81.826847 56.329654 L 82.003059 56.008058 L 81.424271 55.071766 L 80.35751 55.54534 L 79.377501 56.758448 L 77.725175 56.873789 L 77.18705 56.808655 L 76.497113 56.078619 L 76.278881 55.409645 L 76.44696 54.671468 L 76.20433 54.343087 L 75.861394 54.193823 L 73.730585 54.486923 L 73.688565 53.929219 L 74.012524 53.220894 L 73.195171 52.408084 L 73.229058 52.041709 L 72.73702 51.942652 L 72.556742 51.65498 L 74.350037 51.584419 L 75.343602 51.085063 L 76.253127 51.31303 L 76.284303 50.855739 L 76.869869 50.492078 L 76.804806 49.160916 Z M 77.241269 49.103924 " stroke="rgb(100%, 100%, 100%)" stroke-width="0.5" stroke-opacity="1" stroke-miterlimit="4"/><path stroke-linecap="butt" transform="matrix(2.881827, 0, 0, 2.87871, 0.571966, 2.452636)" fill-opacity="1" fill="rgb(17.248535%, 44.309998%, 94.119263%)" fill-rule="nonzero" stroke-linejoin="miter" d="M 96.709982 27.924733 L 97.089516 28.240901 L 97.635773 28.133702 L 97.71439 28.844741 L 98.161698 29.369879 L 98.203717 30.080918 L 98.640181 30.15962 L 99.170172 29.937081 L 99.628324 30.283102 L 99.701519 30.635908 L 100.318261 30.943934 L 100.836053 30.585701 L 101.813352 31.420222 L 101.5653 31.863943 L 101.489393 32.941357 L 101.112571 32.941357 L 101.043441 33.138114 L 101.992275 33.891218 L 101.742867 34.120542 L 101.897392 34.535767 L 101.227786 34.66739 L 101.505659 34.96049 L 102.244394 35.124681 L 102.215929 35.469345 L 102.459915 35.634892 L 103.479233 35.858788 L 103.453479 36.208879 L 103.822169 36.411064 L 104.644943 36.389353 L 105.04752 36.172242 L 105.470428 36.476197 L 105.863517 36.11525 L 106.134612 36.253659 L 106.404352 37.142457 L 107.670367 36.777439 L 107.998393 37.063754 L 108.441633 39.84142 L 108.784569 40.248503 L 108.512118 41.066741 L 108.878097 41.590522 L 108.501274 41.984036 L 109.504327 42.256781 L 109.599211 43.232425 L 110.404364 43.503814 L 111.266447 43.269062 L 111.696133 43.582516 L 112.669365 43.368119 L 113.573468 43.712783 L 113.641242 44.091371 L 115.136333 44.335621 L 115.549754 44.578514 L 116.146163 44.507953 L 116.002483 44.928605 L 116.140741 45.121292 L 117.150572 45.0643 L 118.015366 45.00188 L 118.347458 44.943532 L 118.877449 45.258343 L 119.136345 45.121292 L 119.648715 46.125431 L 121.443367 45.874396 L 121.562648 46.475522 L 121.272576 46.669565 L 120.875422 48.021082 L 119.495546 48.723979 L 119.042817 48.486514 L 119.274604 47.9953 L 119.057727 47.721197 L 118.451829 47.694058 L 117.993678 48.094357 L 117.905572 47.628925 L 116.425392 47.592288 L 115.571441 47.270692 L 114.026198 48.029224 L 113.646664 48.703625 L 113.985533 48.975014 L 113.849986 50.162341 L 113.478585 50.249185 L 113.193935 50.949369 L 112.013315 51.584419 L 111.830325 52.06342 L 112.31152 52.684901 L 111.465702 53.101483 L 112.013315 53.615765 L 111.907588 53.785383 L 112.181394 53.830162 L 111.998404 54.552056 L 112.19766 54.614476 L 111.963162 54.758312 L 112.062112 55.009347 L 111.830325 55.33637 L 112.106843 55.957851 L 112.300676 55.945639 L 112.265433 56.436852 L 112.784581 56.630896 L 112.663944 57.244235 L 113.192579 57.592969 L 113.925892 57.336507 L 114.01942 57.678457 L 114.477571 57.807367 L 114.538568 58.544187 L 115.068559 58.264657 L 115.278658 58.557757 L 115.571441 58.442417 L 116.281711 59.100535 L 117.294252 59.336643 L 117.58568 59.79122 L 116.901164 59.658239 L 116.376594 60.005617 L 115.064493 59.878064 L 114.587365 60.798072 L 113.657508 61.182088 L 113.010946 62.267643 L 112.503997 62.716792 L 111.278646 63.208006 L 109.55448 63.393907 L 109.897415 62.70865 L 110.904535 62.068173 L 111.228494 61.020611 L 110.214597 60.863206 L 109.76729 61.103385 L 108.987891 61.12781 L 108.712729 59.370567 L 108.216624 59.249799 L 107.796427 58.408493 L 107.228482 58.157458 L 106.648338 58.586253 L 106.317601 58.086897 L 105.478561 57.644533 L 104.363004 57.8725 L 103.552429 57.678457 L 103.115965 57.909137 L 102.150866 57.909137 L 101.212876 57.728664 L 100.804877 57.351433 L 99.78827 57.929492 L 97.993619 57.971557 L 97.149157 57.706953 L 96.64763 57.909137 L 96.014623 57.807367 L 95.965825 58.750443 L 95.572737 58.450558 L 95.62289 57.221166 L 95.225735 57.029837 L 95.231157 56.465348 L 94.943796 56.094902 L 94.760807 56.078619 L 94.474801 56.643108 L 93.923122 56.758448 L 93.332134 56.672961 L 92.731658 56.18039 L 92.121693 56.400215 L 91.732671 56.214314 L 90.998003 56.507414 L 90.904475 56.865647 L 91.639144 57.322937 L 91.273165 58.264657 L 91.456154 58.606607 L 91.17557 58.907849 L 91.887196 59.179238 L 91.808578 60.262079 L 90.457168 59.49812 L 88.563567 59.043543 L 86.800092 59.542899 L 86.142685 59.407204 L 85.528654 59.234872 L 85.27518 58.656814 L 85.170808 58.149317 L 85.646581 57.785655 L 86.049157 58.065186 L 86.041025 57.187243 L 86.79467 57.051548 L 86.913952 56.523697 L 88.376511 57.023053 L 89.403962 56.659391 L 88.250452 55.965993 L 88.498504 55.145041 L 88.708603 55.031058 L 88.624563 54.721675 L 90.218604 55.423215 L 90.511387 54.902148 L 91.147105 54.743386 L 90.764861 54.40822 L 90.324331 53.423079 L 89.413451 52.779887 L 89.139644 51.612914 L 88.072884 51.713328 L 88.156924 51.106774 L 87.864141 51.076921 L 87.790945 50.604705 L 86.61168 49.532718 L 85.345665 50.368596 L 84.121669 50.439157 L 83.651319 50.254613 L 82.482898 50.983292 L 82.240268 50.912731 L 82.158939 50.398449 L 80.695024 50.22476 L 79.24873 50.748541 L 78.294475 50.706475 L 77.803792 50.032074 L 77.241269 49.710478 L 77.241269 49.103924 L 77.435103 48.666988 L 77.733307 48.757903 L 77.986782 48.437664 L 77.371395 48.33725 L 77.063702 47.472876 L 76.720766 47.608571 L 74.524894 46.118646 L 71.99693 45.924603 L 70.833931 46.297762 L 70.167036 46.088793 L 69.840366 46.290978 L 68.483534 45.837758 L 67.290715 45.837758 L 66.927447 45.244773 L 67.324601 44.536448 L 67.31918 44.034379 L 66.898982 43.425111 L 67.330023 42.601445 L 67.296136 42.163152 L 66.29715 42.429113 L 65.87153 42.271708 L 65.894573 40.50768 L 65.696674 40.256645 L 65.083998 40.228149 L 64.200227 39.232152 L 64.261224 36.970125 L 63.152444 37.38128 L 62.10466 37.308005 L 61.837632 37.602461 L 60.635324 36.792366 L 60.63939 36.719091 L 61.159893 35.420495 L 61.269687 34.06355 L 60.971482 33.733812 L 61.115162 32.892507 L 61.497407 32.718818 L 61.657353 32.390437 L 62.198188 32.209964 L 63.351699 32.19368 L 64.875255 31.793382 L 65.078576 31.469072 L 65.552993 31.361873 L 65.674986 30.988714 L 66.724125 31.239748 L 68.310033 31.079629 L 68.438803 31.355089 L 69.100276 31.597982 L 69.708885 33.043128 L 70.215833 32.834158 L 70.360869 32.288666 L 70.694317 32.19368 L 70.966767 32.447429 L 71.351723 32.345658 L 71.717702 32.669968 L 72.3236 32.797521 L 73.699409 32.619761 L 74.336483 33.056697 L 75.189078 32.826017 L 76.436116 32.912861 L 77.30091 32.037632 L 78.767536 32.081054 L 78.916639 31.597982 L 79.656729 31.375443 L 79.309727 30.562633 L 79.5754 30.570775 L 81.959684 31.971141 L 83.023733 32.057986 L 85.037972 32.792093 L 86.179283 33.618472 L 86.096599 33.051269 L 86.289077 32.826017 L 87.69064 33.401361 L 88.083728 34.416356 L 88.976987 34.889929 L 89.220973 34.803085 L 89.379564 35.181672 L 89.76723 35.161318 L 89.810605 34.786801 L 90.243002 34.543908 L 90.843479 34.473347 L 90.924807 35.012054 L 90.407015 35.49784 L 90.397527 35.858788 L 91.389736 36.32422 L 93.508346 35.341792 L 93.403974 34.902142 L 94.325698 33.56148 L 94.352808 32.447429 L 94.82858 31.109482 L 95.965825 30.463576 L 97.212864 30.184045 L 97.466338 29.699616 L 96.720826 28.88952 L 96.566302 28.031931 Z M 96.709982 27.924733 " stroke="rgb(100%, 100%, 100%)" stroke-width="0.5" stroke-opacity="1" stroke-miterlimit="4"/><path stroke-linecap="butt" transform="matrix(2.881827, 0, 0, 2.87871, 0.571966, 2.452636)" fill-opacity="1" fill="rgb(17.248535%, 44.309998%, 94.119263%)" fill-rule="nonzero" stroke-linejoin="miter" d="M 89.314501 16.397488 L 89.806539 16.419199 L 89.978685 16.628169 L 90.775705 16.549466 L 91.273165 17.124811 L 93.337556 17.739507 L 94.575106 17.362276 L 95.479209 17.398913 L 96.245054 16.815427 L 96.964812 16.77879 L 97.565288 17.139737 L 97.928556 16.742152 L 98.651025 16.873776 L 98.426016 17.869773 L 98.504633 18.915977 L 97.094937 18.972969 L 96.906526 19.173797 L 96.909237 20.096519 L 96.020044 20.996174 L 95.594425 21.134582 L 95.053589 24.122574 L 94.561551 24.663995 L 93.691335 25.153852 L 93.486658 26.190557 L 93.233184 26.175631 L 93.215563 26.455162 L 93.019019 26.449734 L 92.812986 27.96137 L 93.272493 27.936945 L 94.023427 27.182484 L 94.958706 27.443017 L 95.712351 27.025078 L 95.986158 27.262544 L 96.512082 27.140419 L 96.711338 27.924733 L 96.566302 28.031931 L 96.720826 28.88952 L 97.466338 29.699616 L 97.212864 30.182688 L 95.965825 30.463576 L 94.82858 31.108125 L 94.352808 32.447429 L 94.327054 33.56148 L 93.403974 34.902142 L 93.508346 35.341792 L 91.389736 36.32422 L 90.397527 35.858788 L 90.407015 35.49784 L 90.924807 35.012054 L 90.843479 34.473347 L 90.243002 34.543908 L 89.811961 34.786801 L 89.76723 35.161318 L 89.379564 35.181672 L 89.220973 34.803085 L 88.976987 34.888572 L 88.083728 34.416356 L 87.69064 33.401361 L 86.290432 32.826017 L 86.096599 33.051269 L 86.180639 33.618472 L 85.037972 32.792093 L 83.023733 32.057986 L 81.961039 31.971141 L 79.576756 30.570775 L 79.309727 30.562633 L 79.656729 31.375443 L 78.916639 31.597982 L 78.767536 32.081054 L 77.30091 32.036275 L 76.436116 32.912861 L 75.189078 32.826017 L 74.336483 33.056697 L 73.699409 32.619761 L 72.3236 32.797521 L 71.717702 32.669968 L 71.351723 32.345658 L 70.966767 32.447429 L 70.695672 32.19368 L 70.360869 32.28731 L 70.217189 32.834158 L 69.708885 33.043128 L 69.100276 31.597982 L 68.438803 31.355089 L 68.310033 31.079629 L 66.724125 31.239748 L 65.674986 30.988714 L 65.607212 30.540922 L 65.960992 30.131125 L 66.436764 30.441865 L 66.828497 30.311598 L 66.859673 29.896373 L 66.650929 29.657551 L 66.87865 29.247754 L 67.315113 29.177193 L 67.465571 27.679126 L 67.946765 28.052285 L 68.169063 28.599134 L 68.812915 27.443017 L 69.21007 27.995294 L 69.68042 27.501366 L 70.51946 27.485083 L 71.03183 27.817534 L 72.59334 27.160773 L 72.59334 26.212269 L 72.970162 25.735981 L 72.891544 25.297688 L 73.30632 25.001874 L 72.864435 24.722343 L 73.296832 24.324759 L 73.630279 23.548586 L 73.43238 23.137432 L 73.809202 23.007165 L 73.714319 22.518665 L 74.299885 21.947392 L 74.485585 21.315056 L 74.846142 21.306914 L 75.065729 21.040953 L 75.045397 20.384192 L 75.80582 19.872623 L 76.174509 19.793921 L 77.340219 20.457467 L 77.429681 20.248497 L 77.65469 20.601303 L 77.902742 20.44254 L 77.818702 19.072026 L 78.284987 19.453328 L 79.403255 18.525177 L 80.104036 19.153443 L 80.562187 20.384192 L 81.410716 19.633801 L 81.36463 18.993323 L 82.041013 18.386769 L 82.438167 17.64452 L 83.800421 16.800501 L 84.956643 16.84528 L 85.711644 17.246936 L 86.949194 16.287576 L 87.898028 16.671591 L 87.983423 16.930768 L 88.156924 16.915841 L 88.261295 16.492474 L 88.678782 16.447695 L 88.751978 16.25908 Z M 89.314501 16.397488 " stroke="rgb(100%, 100%, 100%)" stroke-width="0.5" stroke-opacity="1" stroke-miterlimit="4"/><path stroke-linecap="butt" transform="matrix(2.881827, 0, 0, 2.87871, 0.571966, 2.452636)" fill-opacity="1" fill="rgb(17.248535%, 44.309998%, 94.119263%)" fill-rule="nonzero" stroke-linejoin="miter" d="M 86.142685 59.407204 L 86.798736 59.542899 L 88.563567 59.043543 L 90.455812 59.49812 L 91.807223 60.262079 L 91.88584 59.179238 L 91.17557 58.907849 L 91.454799 58.606607 L 91.271809 58.264657 L 91.637788 57.322937 L 90.90312 56.865647 L 90.998003 56.507414 L 91.732671 56.214314 L 92.121693 56.400215 L 92.730302 56.18039 L 93.332134 56.672961 L 93.923122 56.758448 L 94.474801 56.643108 L 94.759451 56.078619 L 94.94244 56.094902 L 95.229801 56.465348 L 95.22438 57.029837 L 95.62289 57.221166 L 95.572737 58.450558 L 95.96447 58.750443 L 96.014623 57.807367 L 96.64763 57.909137 L 97.149157 57.706953 L 97.993619 57.971557 L 99.786914 57.929492 L 100.803522 57.351433 L 101.21152 57.728664 L 102.14951 57.909137 L 103.11461 57.909137 L 103.552429 57.678457 L 104.361648 57.8725 L 105.478561 57.644533 L 106.317601 58.086897 L 106.646982 58.586253 L 107.228482 58.157458 L 107.795071 58.408493 L 108.216624 59.249799 L 108.712729 59.370567 L 108.986535 61.12781 L 109.765934 61.103385 L 110.213242 60.863206 L 111.228494 61.020611 L 110.903179 62.068173 L 109.897415 62.70865 L 109.55448 63.393907 L 111.277291 63.208006 L 112.502642 62.716792 L 113.010946 62.267643 L 113.656153 61.182088 L 114.587365 60.798072 L 115.063137 59.878064 L 116.375239 60.005617 L 116.901164 59.658239 L 117.58568 59.79122 L 118.131937 60.504972 L 117.723938 60.612171 L 117.352538 61.069461 L 117.467753 61.260791 L 117.248166 62.003039 L 117.424378 62.146875 L 116.882187 62.494253 L 117.193947 62.559387 L 117.154638 63.252785 L 116.634135 63.509248 L 116.558228 63.822702 L 116.882187 64.240641 L 116.582627 64.406188 L 116.807636 64.612444 L 117.044844 66.065731 L 116.935051 69.084933 L 115.579574 70.481229 L 115.972662 71.874811 L 115.818138 72.258826 L 116.139386 72.912874 L 115.812716 73.375592 L 116.220715 73.524856 L 116.929629 74.512711 L 116.101433 74.819381 L 114.847617 74.896727 L 113.695461 76.374439 L 113.016368 75.472071 L 112.150218 74.904868 L 110.641572 74.450292 L 110.229507 74.036424 L 109.61141 75.017495 L 109.295584 74.847877 L 109.146481 74.413654 L 108.560915 74.314598 L 108.315574 75.657973 L 107.884533 76.084053 L 106.717467 76.191252 L 106.618517 75.748888 L 106.165788 75.500567 L 105.455518 75.856087 L 105.356568 76.298451 L 104.913327 76.382581 L 105.280662 77.909144 L 104.753381 78.143895 L 102.613083 78.044838 L 101.535479 78.321655 L 100.749303 75.700038 L 100.307417 75.111124 L 100.178647 74.470646 L 99.854688 74.214184 L 99.946861 73.937367 L 101.073262 73.710757 L 101.366045 73.18969 L 100.74117 73.197832 L 100.54327 72.429801 L 100.704572 71.965726 L 98.678134 70.986012 L 99.086133 69.919454 L 98.882811 67.044088 L 99.2637 66.444319 L 99.054957 66.086086 L 98.385351 65.87983 L 98.365019 64.976105 L 97.750988 65.024955 L 96.968878 64.739996 L 97.000054 65.52431 L 96.422621 65.019527 L 95.747594 64.80513 L 95.373482 65.461891 L 95.781481 65.924609 L 95.753016 66.366973 L 95.285376 66.400897 L 94.79876 65.52431 L 94.142709 65.36012 L 94.072224 66.102369 L 93.650671 66.122723 L 93.596452 66.528449 L 93.17761 66.330336 L 92.974288 66.474172 L 93.005464 66.841904 L 92.681505 66.829691 L 91.578147 66.371044 L 89.875668 64.942181 L 89.810605 64.240641 L 89.337544 64.000462 L 89.46767 63.273139 L 90.069501 62.988181 L 90.153541 62.16723 L 88.887526 61.924336 L 88.453773 62.510537 L 88.276206 61.952832 L 87.217578 61.610882 L 86.218592 60.000189 Z M 86.142685 59.407204 " stroke="rgb(100%, 100%, 100%)" stroke-width="0.5" stroke-opacity="1" stroke-miterlimit="4"/><path stroke-linecap="butt" transform="matrix(2.881827, 0, 0, 2.87871, 0.571966, 2.452636)" fill-opacity="1" fill="rgb(17.248535%, 44.309998%, 94.119263%)" fill-rule="nonzero" stroke-linejoin="miter" d="M 120.836113 12.701171 L 122.182101 14.680953 L 122.848996 14.22502 L 123.341034 15.017476 L 123.042829 15.472052 L 123.341034 15.754297 L 123.792408 15.77058 L 124.079769 16.317429 L 125.039446 16.648523 L 125.298342 16.52097 L 125.447445 16.972833 L 125.809357 16.693302 L 126.652464 16.887345 L 126.733792 17.299856 L 127.479305 17.398913 L 128.087914 18.214437 L 128.771074 18.575384 L 128.738542 18.854915 L 128.120445 19.240287 L 128.070292 19.48318 L 127.265139 19.80749 L 127.890014 21.344908 L 130.668741 21.754706 L 130.632143 23.179497 L 130.283786 23.72906 L 130.427466 24.406175 L 131.87376 26.449734 L 131.91578 26.795755 L 131.625708 27.095639 L 131.955089 27.377884 L 132.039128 27.908449 L 131.750412 28.282966 L 133.112666 29.55578 L 133.25228 29.924869 L 132.954075 31.54099 L 132.269559 32.317162 L 132.307513 33.143542 L 132.546077 33.302304 L 133.058447 33.200533 L 133.286167 32.67811 L 133.545063 32.641472 L 133.615548 33.775878 L 133.385117 33.984847 L 134.240423 34.930638 L 134.100809 35.153177 L 134.365126 35.858788 L 134.168582 35.852003 L 134.17536 36.160029 L 135.05642 37.70966 L 135.228565 38.707014 L 135.079463 39.289144 L 133.334964 39.461476 L 132.418662 40.993466 L 131.518625 41.281138 L 131.155358 41.026033 L 130.857153 41.309634 L 130.488463 41.145444 L 129.863588 42.121087 L 128.715499 42.680148 L 127.369511 42.931183 L 127.130947 42.643511 L 126.857141 42.787347 L 126.474896 42.659794 L 126.206512 43.001744 L 125.03538 43.244637 L 124.653135 44.019452 L 124.045882 44.51338 L 123.389831 44.384471 L 122.922192 44.615151 L 122.758179 45.030376 L 121.150584 45.236632 L 121.443367 45.874396 L 119.648715 46.125431 L 119.136345 45.122648 L 118.877449 45.258343 L 118.347458 44.944889 L 118.015366 45.00188 L 117.150572 45.0643 L 116.140741 45.122648 L 116.002483 44.928605 L 116.146163 44.507953 L 115.549754 44.578514 L 115.136333 44.335621 L 113.641242 44.091371 L 113.573468 43.712783 L 112.669365 43.368119 L 111.696133 43.582516 L 111.266447 43.269062 L 110.404364 43.503814 L 109.599211 43.232425 L 109.504327 42.256781 L 108.501274 41.985393 L 108.878097 41.590522 L 108.512118 41.066741 L 108.784569 40.248503 L 108.441633 39.84142 L 107.998393 37.065111 L 107.670367 36.777439 L 106.404352 37.142457 L 106.134612 36.253659 L 105.863517 36.11525 L 105.470428 36.476197 L 105.04752 36.173599 L 104.644943 36.39071 L 103.822169 36.411064 L 103.453479 36.210236 L 103.479233 35.858788 L 102.459915 35.634892 L 102.215929 35.469345 L 102.244394 35.124681 L 101.505659 34.96049 L 101.227786 34.66739 L 101.897392 34.537124 L 101.742867 34.120542 L 101.992275 33.891218 L 101.043441 33.138114 L 101.112571 32.941357 L 101.489393 32.941357 L 101.5653 31.863943 L 101.813352 31.420222 L 100.836053 30.585701 L 100.318261 30.943934 L 99.701519 30.635908 L 99.628324 30.283102 L 99.170172 29.938438 L 98.640181 30.15962 L 98.203717 30.082275 L 98.161698 29.369879 L 97.71439 28.844741 L 97.635773 28.133702 L 97.089516 28.240901 L 96.709982 27.924733 L 96.512082 27.140419 L 95.986158 27.263901 L 95.712351 27.025078 L 94.958706 27.444374 L 94.023427 27.182484 L 93.272493 27.938302 L 92.812986 27.96137 L 93.019019 26.449734 L 93.215563 26.455162 L 93.233184 26.175631 L 93.486658 26.191914 L 93.691335 25.153852 L 94.561551 24.663995 L 95.053589 24.123931 L 95.594425 21.134582 L 96.020044 20.996174 L 96.909237 20.097876 L 96.906526 19.173797 L 97.094937 18.972969 L 98.504633 18.915977 L 98.426016 17.869773 L 98.651025 16.873776 L 99.24879 16.611886 L 99.448045 16.887345 L 100.135272 16.952479 L 102.538532 16.640381 L 102.629349 17.16959 L 103.090211 17.234723 L 103.583605 17.686586 L 103.949583 17.514254 L 104.35216 17.746291 L 104.326406 18.423407 L 104.700518 18.792496 L 104.771002 19.477753 L 105.36199 19.670439 L 106.074971 19.080168 L 106.499235 19.215862 L 106.682225 19.540172 L 107.105133 19.384123 L 107.149864 18.964827 L 107.462979 19.035389 L 108.376571 18.149304 L 108.529739 18.078743 L 108.684264 18.366415 L 109.021778 17.759861 L 108.734416 17.378559 L 109.18579 17.096315 L 108.838788 15.558897 L 109.032621 15.378423 L 109.418932 15.45984 L 109.958412 14.837002 L 110.984508 14.534403 L 111.338287 14.094753 L 111.879123 14.253516 L 111.704266 14.419063 L 111.327443 14.267085 L 111.144454 14.845144 L 111.774751 15.271224 L 112.017381 15.177595 L 111.763907 14.709449 L 111.983494 14.534403 L 112.784581 14.794937 L 113.116673 14.607678 L 113.385057 13.964487 L 114.125148 13.91428 L 114.339313 12.873503 L 115.332877 12.853149 L 116.41997 13.480057 L 117.458265 13.610324 L 118.336614 13.32808 L 119.708356 13.372859 Z M 120.836113 12.701171 " stroke="rgb(100%, 100%, 100%)" stroke-width="0.5" stroke-opacity="1" stroke-miterlimit="4"/><path fill="rgb(17.248535%, 44.309998%, 94.119263%)" d="M 416.75 4.824219 L 421.285156 5.011719 L 422.507812 7.496094 L 426.265625 10.453125 L 427.660156 10.703125 L 429.109375 12.660156 L 427.945312 15.660156 L 427.585938 19.492188 L 425.183594 19.996094 L 423.910156 21.1875 L 423.925781 24.617188 L 426.121094 24.574219 L 426.355469 25.289062 L 424.847656 29.425781 L 429.207031 33.898438 L 429.089844 35.875 L 430.253906 37.765625 L 432.082031 36.164062 L 433.371094 37.621094 L 433.296875 38.722656 L 432.082031 39.992188 L 432.707031 40.617188 L 440.589844 41.824219 L 439.144531 49.363281 L 437.15625 49.339844 L 435.230469 48.324219 L 435.089844 50.09375 L 434.261719 50.777344 L 434.40625 52.335938 L 435.390625 53.164062 L 435.21875 54.390625 L 437.550781 55.074219 L 439.640625 58.832031 L 442.894531 59.492188 L 446.332031 64.640625 L 446.917969 64.371094 L 447.945312 65.492188 L 448.363281 68.539062 L 449.910156 69.429688 L 451.996094 69.222656 L 453.390625 71.445312 L 452.96875 73.847656 L 453.375 75.050781 L 455.304688 75.898438 L 454.300781 78.511719 L 455.394531 79.707031 L 453.976562 81.574219 L 461.875 85.796875 L 464.222656 88.738281 L 463.035156 88.71875 L 462.320312 89.402344 L 460.871094 88.015625 L 460.273438 88.929688 L 457.59375 86.957031 L 456.59375 86.875 L 456.035156 85.796875 L 454.84375 86.707031 L 453.824219 86.445312 L 453.230469 85.84375 L 453.933594 84.222656 L 449.703125 82.449219 L 450.226562 81.550781 L 449.738281 80.785156 L 447.066406 79.875 L 445.886719 80.085938 L 444.953125 78.242188 L 442.042969 78.925781 L 440.769531 76.207031 L 439.386719 76.539062 L 438.320312 75.75 L 437.695312 76.726562 L 436.0625 75.335938 L 436.460938 74.304688 L 436.0625 73.703125 L 435.363281 73.679688 L 434.816406 75.417969 L 432.84375 76.351562 L 431.414062 73.988281 L 430.335938 75.074219 L 428.558594 74.257812 L 427.789062 76.871094 L 426.117188 76.125 L 424.082031 76.976562 L 423.386719 78.300781 L 421.671875 79.363281 L 417.640625 79.339844 L 416.261719 83.171875 L 415.070312 84.164062 L 415.070312 85.464844 L 417.292969 90.433594 L 418.011719 96.914062 L 419.359375 99.082031 L 422.101562 101.316406 L 423.246094 103.363281 L 423.09375 105.492188 L 420.488281 108.902344 L 418.28125 109.066406 L 417.722656 107.3125 L 416.359375 105.761719 L 414.113281 107.433594 L 411.824219 106.6875 L 409.5625 107.992188 L 408.417969 107.480469 L 407.015625 107.953125 L 404.96875 104.6875 L 400.453125 101.730469 L 399.226562 101.917969 L 397.109375 103.609375 L 395.390625 106.523438 L 393.28125 105.945312 L 391.050781 106.9375 L 389.191406 106.667969 L 387.789062 105.679688 L 387.027344 103.648438 L 387.429688 103.007812 L 384.964844 100.285156 L 385.628906 99.683594 L 385.421875 96.417969 L 384.679688 96.523438 L 384.023438 98.027344 L 382.546875 98.320312 L 381.859375 97.859375 L 381.75 95.484375 L 383.722656 93.246094 L 384.582031 88.597656 L 384.179688 87.535156 L 380.253906 83.871094 L 381.085938 82.792969 L 380.84375 81.265625 L 379.890625 80.453125 L 380.730469 79.589844 L 380.609375 78.59375 L 376.441406 72.710938 L 376.027344 70.761719 L 377.03125 69.179688 L 377.136719 65.078125 L 369.128906 63.894531 L 367.328125 59.472656 L 369.648438 58.539062 L 369.792969 57.835938 L 371.574219 56.730469 L 371.667969 55.925781 L 369.699219 54.886719 L 367.945312 52.539062 L 365.796875 52.253906 L 365.5625 51.0625 L 363.128906 50.507812 L 362.089844 51.3125 L 361.660156 50.011719 L 360.914062 50.378906 L 358.148438 49.421875 L 357.320312 47.851562 L 356.019531 47.804688 L 355.15625 46.992188 L 356.019531 45.683594 L 354.601562 43.402344 L 352.679688 44.710938 L 348.800781 39.015625 L 350.488281 37.917969 L 355.242188 36.417969 L 360.804688 36.375 L 367.371094 39.347656 L 371.144531 42.671875 L 378.167969 44.605469 L 379.605469 45.871094 L 380.65625 48.160156 L 384.132812 50.214844 L 384.914062 49.21875 L 385.078125 44.441406 L 383.335938 40.988281 L 383.660156 38.535156 L 382.035156 38.246094 L 381.320312 37.140625 L 379.652344 37.164062 L 379.925781 36.164062 L 378.011719 34.4375 L 377.296875 32.632812 L 377.835938 28.675781 L 377.566406 25.429688 L 378.597656 22.554688 L 378.125 19.410156 L 379.125 18.207031 L 377.21875 14.578125 L 378.9375 12.914062 L 380.179688 13.894531 L 383.246094 12.183594 L 383.960938 13.375 L 385.34375 11.867188 L 387.699219 12.269531 L 388.1875 10.535156 L 389.71875 9.160156 L 390.707031 9.289062 L 392.242188 6.953125 L 392.898438 6.804688 L 393.585938 7.59375 L 395.585938 5.742188 L 395.792969 6.636719 L 396.777344 6.660156 L 397.652344 7.992188 L 401.601562 8.664062 L 402.332031 7.640625 L 404.28125 7.886719 L 406.082031 6.179688 L 411.207031 5.390625 L 413.171875 4.222656 Z M 416.75 4.824219 " fill-opacity="1" fill-rule="nonzero"/><g clip-path="url(#id5)"><path stroke-linecap="butt" transform="matrix(2.881827, 0, 0, 2.87871, 0.571966, 2.452636)" fill="none" stroke-linejoin="miter" d="M 144.414631 0.823835 L 145.98834 0.888969 L 146.412604 1.751985 L 147.716573 2.779192 L 148.200478 2.866037 L 148.70336 3.545866 L 148.299428 4.587999 L 148.174724 5.919162 L 147.341105 6.094208 L 146.89922 6.508076 L 146.904642 7.699473 L 147.66642 7.684547 L 147.747749 7.932868 L 147.224534 9.369872 L 148.737247 10.923574 L 148.696582 11.610188 L 149.100514 12.266949 L 149.734877 11.710602 L 150.182185 12.216742 L 150.156431 12.5994 L 149.734877 13.040407 L 149.951754 13.257519 L 152.687106 13.676814 L 152.185579 16.295717 L 151.495642 16.287576 L 150.827392 15.93477 L 150.778595 16.549466 L 150.491233 16.786931 L 150.541386 17.328352 L 150.882966 17.616025 L 150.823325 18.042105 L 151.632545 18.27957 L 152.357725 19.584951 L 153.486837 19.814275 L 154.679657 21.602728 L 154.882978 21.509099 L 155.239469 21.898542 L 155.384505 22.956958 L 155.921273 23.266342 L 156.645098 23.194424 L 157.129003 23.966525 L 156.982612 24.801046 L 157.123581 25.218985 L 157.793187 25.513442 L 157.444829 26.421238 L 157.824363 26.836463 L 157.332325 27.485083 L 160.073099 28.95194 L 160.88774 29.973719 L 160.475675 29.966934 L 160.227623 30.2044 L 159.724741 29.722684 L 159.517353 30.040209 L 158.587496 29.354952 L 158.240494 29.326456 L 158.046661 28.95194 L 157.633241 29.268108 L 157.279461 29.177193 L 157.073429 28.968223 L 157.317414 28.405091 L 155.849433 27.789038 L 156.031067 27.476941 L 155.861632 27.21098 L 154.934486 26.894812 L 154.525132 26.968087 L 154.201173 26.327609 L 153.191343 26.565074 L 152.749458 25.620641 L 152.269619 25.735981 L 151.899574 25.461878 L 151.682698 25.801114 L 151.116108 25.318042 L 151.254367 24.959809 L 151.116108 24.750839 L 150.873478 24.742698 L 150.683711 25.346538 L 149.999195 25.670848 L 149.503091 24.849896 L 149.128979 25.227127 L 148.512237 24.943525 L 148.245208 25.851321 L 147.665064 25.592145 L 146.958861 25.887959 L 146.717586 26.347963 L 146.122532 26.717052 L 144.72368 26.70891 L 144.245197 28.040073 L 143.831776 28.384737 L 143.831776 28.836599 L 144.603042 30.562633 L 144.85245 32.813804 L 145.32009 33.566908 L 146.271634 34.343081 L 146.668789 35.05412 L 146.615925 35.793654 L 145.711822 36.978267 L 144.945978 37.035259 L 144.752145 36.425991 L 144.279083 35.887284 L 143.499684 36.468056 L 142.705375 36.208879 L 141.920554 36.662099 L 141.523399 36.484339 L 141.036783 36.648529 L 140.326513 35.514124 L 138.759582 34.486917 L 138.333962 34.55205 L 137.599294 35.139607 L 137.002884 36.151888 L 136.270927 35.95106 L 135.49695 36.295724 L 134.851743 36.202095 L 134.365126 35.858788 L 134.100809 35.153177 L 134.240423 34.930638 L 133.385117 33.984847 L 133.615548 33.775878 L 133.543708 32.641472 L 133.286167 32.67811 L 133.058447 33.200533 L 132.546077 33.302304 L 132.307513 33.142185 L 132.269559 32.317162 L 132.954075 31.539633 L 133.25228 29.924869 L 133.112666 29.55578 L 131.750412 28.282966 L 132.039128 27.908449 L 131.955089 27.377884 L 131.624352 27.095639 L 131.91578 26.795755 L 131.87376 26.449734 L 130.427466 24.406175 L 130.283786 23.72906 L 130.632143 23.179497 L 130.668741 21.754706 L 127.890014 21.343551 L 127.265139 19.80749 L 128.070292 19.48318 L 128.120445 19.23893 L 128.738542 18.854915 L 128.771074 18.575384 L 128.087914 18.214437 L 127.479305 17.398913 L 126.733792 17.299856 L 126.652464 16.885988 L 125.808002 16.693302 L 125.447445 16.972833 L 125.298342 16.52097 L 125.039446 16.648523 L 124.079769 16.316072 L 123.792408 15.77058 L 123.341034 15.754297 L 123.041474 15.472052 L 123.341034 15.017476 L 122.848996 14.22502 L 122.182101 14.679596 L 120.836113 12.701171 L 121.421679 12.31987 L 123.071294 11.798803 L 125.001493 11.783877 L 127.280049 12.816512 L 128.58944 13.971271 L 131.026587 14.642959 L 131.525403 15.082609 L 131.890026 15.877779 L 133.0964 16.591531 L 133.367496 16.245511 L 133.424426 14.585967 L 132.819883 13.386428 L 132.932388 12.534267 L 132.368509 12.433853 L 132.120457 12.049838 L 131.541668 12.057979 L 131.636552 11.710602 L 130.972368 11.110832 L 130.724316 10.483924 L 130.911372 9.109339 L 130.817844 7.981718 L 131.17569 6.983007 L 131.011677 5.890666 L 131.358679 5.472727 L 130.697206 4.212126 L 131.293616 3.634067 L 131.724658 3.974661 L 132.788707 3.380319 L 133.036759 3.794187 L 133.516598 3.270406 L 134.333951 3.410172 L 134.503385 2.807688 L 135.034732 2.330044 L 135.377668 2.374823 L 135.91037 1.56337 L 136.13809 1.511806 L 136.376654 1.785909 L 137.070658 1.142717 L 137.142498 1.453457 L 137.484078 1.461599 L 137.787705 1.924317 L 139.158092 2.157712 L 139.411566 1.802192 L 140.087949 1.88768 L 140.712824 1.294695 L 142.49121 1.020592 L 143.173014 0.614866 Z M 144.414631 0.823835 " stroke="rgb(100%, 100%, 100%)" stroke-width="0.5" stroke-opacity="1" stroke-miterlimit="4"/></g></svg>