<svg xmlns="http://www.w3.org/2000/svg" xmlns:xlink="http://www.w3.org/1999/xlink" width="624" zoomAndPan="magnify" viewBox="0 0 468 308.250004" height="411" preserveAspectRatio="xMidYMid meet" version="1.0"><defs><clipPath id="id1"><path d="M 0.566406 0 L 467.429688 0 L 467.429688 307.5 L 0.566406 307.5 Z M 0.566406 0 " clip-rule="nonzero"/></clipPath><clipPath id="id2"><path d="M 0.566406 148 L 67 148 L 67 244 L 0.566406 244 Z M 0.566406 148 " clip-rule="nonzero"/></clipPath><clipPath id="id3"><path d="M 64 141 L 192 141 L 192 268.914062 L 64 268.914062 Z M 64 141 " clip-rule="nonzero"/></clipPath><clipPath id="id4"><path d="M 239 50 L 467.429688 50 L 467.429688 152 L 239 152 Z M 239 50 " clip-rule="nonzero"/></clipPath><clipPath id="id5"><path d="M 3 122 L 104 122 L 104 268.914062 L 3 268.914062 Z M 3 122 " clip-rule="nonzero"/></clipPath><clipPath id="id6"><path d="M 114 38.476562 L 271 38.476562 L 271 155 L 114 155 Z M 114 38.476562 " clip-rule="nonzero"/></clipPath></defs><g clip-path="url(#id1)"><path fill="rgb(100%, 100%, 100%)" d="M 0.566406 0 L 467.433594 0 L 467.433594 307.503906 L 0.566406 307.503906 Z M 0.566406 0 " fill-opacity="1" fill-rule="nonzero"/><path fill="rgb(100%, 100%, 100%)" d="M 0.566406 0 L 467.433594 0 L 467.433594 307.503906 L 0.566406 307.503906 Z M 0.566406 0 " fill-opacity="1" fill-rule="nonzero"/><path fill="rgb(100%, 100%, 100%)" d="M 0.566406 0 L 467.433594 0 L 467.433594 307.503906 L 0.566406 307.503906 Z M 0.566406 0 " fill-opacity="1" fill-rule="nonzero"/></g><path stroke-linecap="butt" transform="matrix(2.881807, 0, 0, 2.880491, 0.573657, 38.475847)" fill-opacity="1" fill="rgb(17.248535%, 44.309998%, 94.119263%)" fill-rule="nonzero" stroke-linejoin="miter" d="M 56.433165 37.386718 L 57.837449 36.210975 L 58.260361 36.667983 L 58.24274 36.994804 L 58.723938 37.065321 L 59.016723 37.346035 L 59.656512 37.073458 L 60.286814 37.242971 L 61.02962 37.146688 L 61.682965 36.377776 L 61.806314 35.428502 L 61.032331 34.627044 L 61.232943 33.826942 L 61.013354 32.858682 L 61.607057 32.80715 L 61.960839 32.359636 L 62.166873 31.609709 L 62.650782 31.395445 L 63.380034 31.657173 L 65.685716 31.588012 L 66.034076 31.398157 L 66.402769 31.533767 L 66.917854 31.034721 L 67.876183 30.764856 L 68.410244 31.010311 L 68.574258 31.421211 L 68.593235 32.004336 L 68.171679 32.359636 L 68.227254 32.519656 L 70.036828 32.232162 L 70.580378 31.05235 L 71.906044 29.522663 L 73.668177 29.522663 L 75.050773 28.902923 L 75.858643 29.011411 L 76.253089 28.738834 L 77.615353 29.189061 L 79.743467 30.786553 L 80.537782 30.786553 L 81.787541 30.32819 L 82.184698 30.798758 L 83.580849 30.11935 L 84.198951 30.142403 L 84.653039 30.480074 L 85.900087 30.307848 L 88.020068 30.404132 L 88.684256 30.029847 L 89.184431 30.547879 L 90.564316 30.676709 L 90.882855 31.07676 L 93.218359 31.415786 L 93.725311 31.068623 L 94.125179 30.390571 L 94.699905 30.930301 L 95.445423 30.97912 L 96.174675 31.784647 L 96.562344 31.908053 L 96.196363 32.074854 L 95.910355 33.105494 L 94.752769 34.16868 L 94.806989 35.128803 L 94.575201 35.355273 L 94.794789 35.528854 L 94.953381 36.213687 L 94.30817 36.631368 L 94.274283 36.884959 L 94.347479 37.436894 L 94.569779 37.5047 L 94.61451 38.330568 L 95.155349 38.254626 L 96.303446 39.23509 L 97.306506 41.029218 L 97.652155 41.311287 L 97.385124 41.818471 L 97.62369 42.950819 L 97.484075 43.311543 L 98.007293 43.567847 L 98.606418 43.439017 L 98.778564 43.826863 L 99.130991 43.883819 L 98.97511 44.725961 L 98.373274 45.909841 L 98.375985 46.391258 L 97.793126 47.126267 L 97.652155 47.887043 L 97.897498 48.262684 L 97.976116 48.971927 L 98.412583 48.90819 L 98.485779 49.494027 L 99.431909 49.468261 L 99.997147 49.287899 L 100.631514 48.485085 L 100.951409 48.388802 L 101.120845 48.927175 L 101.98429 48.684433 L 102.235055 49.065498 L 102.40178 49.428934 L 101.809432 49.781522 L 101.592554 50.268364 L 100.917522 50.91387 L 100.937854 51.983837 L 100.532564 52.531704 L 100.720977 53.182634 L 99.541703 54.613325 L 99.696229 54.841151 L 99.468507 55.216792 L 98.676903 55.982992 L 98.350231 57.101779 L 97.832435 57.081437 L 97.967983 57.4286 L 97.23331 57.554718 L 95.971352 56.772245 L 95.589105 56.9065 L 95.816826 57.143818 L 95.620281 57.53302 L 94.910006 57.588621 L 95.032 57.988672 L 94.192953 58.106653 L 93.024524 57.901881 L 93.157362 58.329054 L 92.964883 59.089829 L 91.701569 60.291339 L 91.437249 60.252012 L 91.209528 60.487974 L 91.429116 60.845986 L 90.598203 61.476575 L 90.13056 61.091441 L 89.385043 61.301637 L 88.977041 61.679991 L 88.619193 61.564722 L 88.307431 62.071905 L 87.944161 62.135642 L 87.53887 62.927608 L 86.496501 63.240868 L 86.885526 62.322785 L 86.482946 61.555229 L 85.408045 61.372155 L 85.275208 61.026348 L 84.943113 61.685415 L 84.337211 61.369443 L 83.94412 61.705757 L 83.918366 61.967485 L 83.578138 62.029866 L 83.270443 61.5932 L 83.898033 60.798522 L 83.709621 60.349651 L 83.411414 60.417457 L 82.637431 59.557686 L 82.23214 59.453266 L 81.939355 59.488524 L 81.620816 60.006557 L 80.791258 59.9496 L 80.371057 59.557686 L 80.093183 58.470089 L 79.479147 58.516197 L 79.011504 58.042916 L 77.573333 59.405802 L 76.059255 60.020118 L 76.11483 60.558492 L 75.53197 61.285364 L 75.667519 62.169545 L 75.178189 62.657743 L 75.26494 63.339864 L 74.932845 63.982658 L 75.037218 64.312191 L 74.490957 64.526456 L 74.451648 64.998381 L 74.057201 64.714955 L 74.046357 64.299986 L 73.730529 64.260659 L 73.153092 64.835648 L 72.506525 65.018722 L 72.103945 64.649862 L 71.746097 64.85599 L 70.600711 64.70275 L 69.781997 64.815306 L 69.085277 65.390295 L 68.449553 65.565233 L 68.09306 66.23108 L 67.466826 65.836454 L 66.595248 66.019528 L 65.092013 65.42691 L 64.694856 65.768648 L 64.31532 65.797127 L 63.636221 65.494715 L 63.008631 66.027665 L 62.662981 65.675077 L 62.321399 65.776785 L 61.761583 65.275026 L 61.756161 64.607822 L 62.040813 64.474924 L 62.141119 64.049107 L 62.718556 63.635495 L 63.197043 62.897773 L 63.08996 62.273965 L 62.732111 61.727454 L 63.298705 60.817508 L 63.100804 60.608667 L 63.346147 60.33609 L 62.726689 59.910273 L 62.307844 60.417457 L 61.96355 60.530013 L 61.662632 60.417457 L 60.543001 60.89345 L 60.289525 60.657487 L 59.949297 61.217559 L 59.458611 60.733429 L 59.290531 61.201285 L 59.49792 61.812889 L 58.333557 61.747796 L 56.579558 61.049402 L 56.359969 61.547092 L 55.905881 61.460302 L 55.759489 60.649351 L 56.663598 59.831619 L 56.109204 58.984053 L 56.365391 58.653163 L 55.993988 58.197512 L 56.174267 57.695753 L 56.93334 57.287565 L 56.917074 56.456273 L 57.209859 55.672444 L 57.040423 55.094743 L 56.697485 55.052704 L 56.506362 54.731307 L 56.072606 53.002272 L 55.323022 52.731051 L 54.276586 51.09152 L 53.871296 51.105081 L 52.979386 52.038081 L 53.048516 52.189965 L 52.658135 52.469323 L 52.694734 52.817842 L 52.420925 52.91955 L 52.441258 53.475553 L 52.250134 53.672188 L 51.706584 54.032912 L 51.619833 53.813223 L 51.139991 53.706091 L 50.234526 54.305489 L 49.482231 54.041049 L 48.525257 55.405291 L 48.389708 55.300871 L 47.86378 54.074952 L 47.827181 52.390669 L 48.649962 50.403974 L 48.386997 49.586243 L 48.00475 49.564545 L 48.649962 48.589505 L 48.326 48.628832 L 48.517124 47.65108 L 48.32329 47.298493 L 47.54524 47.222551 L 47.303964 47.318834 L 47.244322 47.599548 L 46.935271 47.549372 L 47.050488 47.00015 L 47.439512 46.625865 L 47.152149 45.562678 L 47.283631 44.60798 L 49.516118 44.793766 L 50.115243 44.511696 L 50.203349 43.76177 L 51.72285 41.70049 L 53.47956 42.255137 L 53.398231 41.350615 L 54.14646 40.744435 L 54.431112 39.496818 L 54.74694 39.237802 L 55.196962 39.386974 L 55.571076 39.133382 Z M 56.433165 37.386718 " stroke="rgb(100%, 100%, 100%)" stroke-width="0.5" stroke-opacity="1" stroke-miterlimit="4"/><path fill="rgb(17.248535%, 44.309998%, 94.119263%)" d="M 12.222656 171.433594 L 14.464844 171.449219 L 14.625 170.15625 L 17.101562 169.875 L 19.65625 168.820312 L 21 169.328125 L 20.230469 167.382812 L 23.207031 169.175781 L 24.757812 168.300781 L 25.292969 169.363281 L 26.015625 169.558594 L 35.402344 166.917969 L 35.796875 165.554688 L 37.648438 164.386719 L 42.792969 156.78125 L 45.054688 158.265625 L 46.078125 160.289062 L 45.949219 162.253906 L 44.664062 163.03125 L 43.683594 164.582031 L 42.140625 164.703125 L 41.582031 166.699219 L 38.613281 168.738281 L 38.363281 169.5 L 40.894531 171.300781 L 41.234375 172.789062 L 42.871094 173.046875 L 42.921875 174.109375 L 44.382812 174.800781 L 43.246094 177.453125 L 41.808594 177.949219 L 41.097656 180.074219 L 42.230469 181.390625 L 44.347656 181.488281 L 45.65625 182.910156 L 48.160156 182.933594 L 47.757812 185.246094 L 49.039062 185.425781 L 49.003906 186.429688 L 50.085938 186.910156 L 51.148438 190.636719 L 51.585938 191.195312 L 52.882812 190.691406 L 54.300781 192.03125 L 54.765625 193.863281 L 53.589844 196.875 L 52.65625 197.289062 L 53.492188 198.140625 L 53.046875 199.351562 L 53.882812 199.433594 L 55.648438 201.46875 L 56.84375 200.941406 L 57.855469 202.09375 L 55.234375 205.390625 L 54.496094 208.207031 L 58.246094 209.847656 L 57.289062 212.027344 L 58.320312 212.980469 L 58.398438 214.917969 L 56.972656 215.472656 L 56.71875 216.105469 L 55.382812 216.160156 L 53.9375 218.359375 L 51.722656 219.148438 L 50.285156 218.179688 L 49.03125 218.117188 L 49.101562 216.386719 L 47.632812 215.902344 L 46.660156 216.769531 L 47.007812 218.066406 L 47.828125 218.523438 L 46.992188 219.96875 L 46.140625 219.753906 L 43.96875 221.453125 L 42.25 222.019531 L 40.851562 221.53125 L 40.828125 223.757812 L 41.429688 224.902344 L 42.996094 225.535156 L 43.820312 224.550781 L 44.714844 225.597656 L 43.601562 225.820312 L 43.230469 228.117188 L 41.671875 228.34375 L 40.503906 227.71875 L 41.105469 229.84375 L 39.074219 230.875 L 37.910156 232.441406 L 37.171875 232.472656 L 37.257812 233.261719 L 36.382812 234.179688 L 36.019531 233.066406 L 34.664062 233.773438 L 32.683594 233.367188 L 29.472656 234.902344 L 27.863281 233.1875 L 26.703125 233.148438 L 25.578125 232.027344 L 23.890625 233.230469 L 22.144531 231.953125 L 23.535156 230.308594 L 22.074219 229.15625 L 23.46875 227.886719 L 22.429688 227.253906 L 22.917969 226.347656 L 22.480469 225.738281 L 23.980469 224.722656 L 23.960938 223.773438 L 21.449219 221.121094 L 21.933594 220.804688 L 20.96875 218.539062 L 18.714844 218.789062 L 14.472656 215.089844 L 14.511719 213.117188 L 13.417969 208.921875 L 12.28125 207.257812 L 13.070312 203.9375 L 12.273438 203.199219 L 10.421875 202.9375 L 9.214844 201.066406 L 9.546875 200.546875 L 9.148438 200.746094 L 8.128906 198.46875 L 8.914062 198.335938 L 8.492188 197.769531 L 9.160156 196.453125 L 6.253906 195.007812 L 6.300781 193.734375 L 4.640625 193.816406 L 3.878906 193.222656 L 3.132812 189.796875 L 4.503906 189.53125 L 5.140625 187.355469 L 4.550781 186.128906 L 5.46875 185.164062 L 4.484375 181.632812 L 5.523438 181.042969 L 5.554688 179.636719 L 8.160156 177.277344 L 8.023438 175.960938 L 9.871094 175.914062 L 9.476562 173.949219 L 10.195312 173.800781 L 10.097656 173.023438 L 10.894531 172.535156 L 11.910156 172.84375 Z M 12.222656 171.433594 " fill-opacity="1" fill-rule="nonzero"/><g clip-path="url(#id2)"><path stroke-linecap="butt" transform="matrix(2.881807, 0, 0, 2.880491, 0.573657, 38.475847)" fill="none" stroke-linejoin="miter" d="M 4.042256 46.158008 L 4.820305 46.163433 L 4.87588 45.714562 L 5.735258 45.616922 L 6.621747 45.250774 L 7.088034 45.427067 L 6.821003 44.751727 L 7.853884 45.374179 L 8.392012 45.070412 L 8.577714 45.439272 L 8.828479 45.507078 L 12.085713 44.59035 L 12.222617 44.11707 L 12.865118 43.711594 L 14.650293 41.071257 L 15.43512 41.586577 L 15.790257 42.289039 L 15.745526 42.97116 L 15.299571 43.241025 L 14.959344 43.779399 L 14.423927 43.821439 L 14.230092 44.514408 L 13.199923 45.222295 L 13.113172 45.486736 L 13.991527 46.111901 L 14.109454 46.628577 L 14.677403 46.71808 L 14.695024 47.08694 L 15.201976 47.326971 L 14.80753 48.247767 L 14.308711 48.419992 L 14.062012 49.157713 L 14.455103 49.614721 L 15.189777 49.648624 L 15.643865 50.142246 L 16.512732 50.150383 L 16.373117 50.953197 L 16.817716 51.015578 L 16.805517 51.364097 L 17.180987 51.530898 L 17.549679 52.824622 L 17.701493 53.018545 L 18.151515 52.843608 L 18.643557 53.308752 L 18.80486 53.944765 L 18.396858 54.990323 L 18.072897 55.13407 L 18.362971 55.429701 L 18.208445 55.850094 L 18.49852 55.878572 L 19.111199 56.585103 L 19.525978 56.402028 L 19.877049 56.80208 L 18.967518 57.946632 L 18.711331 58.924384 L 20.012598 59.493949 L 19.680504 60.250656 L 20.038352 60.581545 L 20.065462 61.254174 L 19.570709 61.446741 L 19.482603 61.66643 L 19.019026 61.685415 L 18.517496 62.448902 L 17.748936 62.722836 L 17.250116 62.386522 L 16.815005 62.364824 L 16.839404 61.764069 L 16.329741 61.595912 L 15.992225 61.896968 L 16.112863 62.347195 L 16.397515 62.505859 L 16.107441 63.007618 L 15.811945 62.933032 L 15.058295 63.522938 L 14.461881 63.719573 L 13.976617 63.55006 L 13.968484 64.32304 L 14.177229 64.720379 L 14.720779 64.940068 L 15.006786 64.59833 L 15.317193 64.961766 L 14.930879 65.039064 L 14.802108 65.836454 L 14.261269 65.915108 L 13.855978 65.698131 L 14.064723 66.435852 L 13.35987 66.793864 L 12.955935 67.337662 L 12.699748 67.348511 L 12.729569 67.622445 L 12.42594 67.941129 L 12.29988 67.554639 L 11.829526 67.800094 L 11.142294 67.659059 L 10.028084 68.192009 L 9.469624 67.596679 L 9.067044 67.583118 L 8.676664 67.193915 L 8.091094 67.611596 L 7.485192 67.168149 L 7.967745 66.597229 L 7.460793 66.197178 L 7.944701 65.756444 L 7.584142 65.536754 L 7.753578 65.222138 L 7.601763 65.010586 L 8.12227 64.657998 L 8.115493 64.328465 L 7.243915 63.407669 L 7.411995 63.297824 L 7.07719 62.511283 L 6.295074 62.598074 L 4.823016 61.313842 L 4.836571 60.629009 L 4.457035 59.172552 L 4.062588 58.594851 L 4.336396 57.442161 L 4.059877 57.185857 L 3.417377 57.094998 L 2.998531 56.445424 L 3.113748 56.265062 L 2.975488 56.334223 L 2.621706 55.543614 L 2.894159 55.497506 L 2.747766 55.300871 L 2.979554 54.843863 L 1.971072 54.342104 L 1.987338 53.900014 L 1.411256 53.928492 L 1.146937 53.722364 L 0.888039 52.53306 L 1.363814 52.440845 L 1.584759 51.685494 L 1.38008 51.259677 L 1.69862 50.924719 L 1.357037 49.698799 L 1.717596 49.494027 L 1.72844 49.00583 L 2.63255 48.186742 L 2.585108 47.729734 L 3.226253 47.713461 L 3.089349 47.03134 L 3.338758 46.979808 L 3.304871 46.709943 L 3.58139 46.54043 L 3.933817 46.647562 Z M 4.042256 46.158008 " stroke="rgb(100%, 100%, 100%)" stroke-width="0.5" stroke-opacity="1" stroke-miterlimit="4"/></g><path stroke-linecap="butt" transform="matrix(2.881807, 0, 0, 2.880491, 0.573657, 38.475847)" fill-opacity="1" fill="rgb(17.248535%, 44.309998%, 94.119263%)" fill-rule="nonzero" stroke-linejoin="miter" d="M 96.560988 31.908053 L 97.02592 32.283694 L 97.4163 32.176561 L 97.329549 31.339844 L 97.528806 31.041501 L 97.538294 29.967466 L 97.949007 29.595893 L 97.570826 28.901567 L 98.508823 27.925171 L 99.910396 27.175245 L 100.327885 26.645007 L 101.264527 27.031498 L 103.11341 28.409301 L 103.548521 28.422862 L 102.647123 27.271528 L 103.412973 26.301913 L 104.47703 27.747521 L 105.123597 28.09604 L 106.083281 27.851941 L 107.032122 29.361287 L 107.837281 29.83728 L 107.826437 28.976153 L 108.143621 28.704932 L 108.260193 28.197748 L 109.115505 27.910254 L 109.569593 28.479818 L 110.140252 28.048577 L 110.41135 28.477106 L 110.90068 28.287251 L 110.408639 27.073537 L 110.550965 26.958268 L 111.773614 27.620047 L 112.536753 27.327128 L 112.001335 27.870927 L 112.687212 28.268266 L 114.199935 27.78956 L 114.816681 27.955005 L 115.274835 28.288607 L 115.734345 29.031753 L 116.535438 28.429642 L 117.164384 29.480624 L 117.575096 29.722011 L 117.690312 30.459732 L 120.443305 30.903178 L 120.806576 30.547879 L 121.481608 30.890973 L 121.729662 31.533767 L 122.148508 31.92297 L 122.667659 31.373747 L 123.365734 31.784647 L 123.441642 31.539192 L 123.791357 31.551397 L 123.776447 32.024678 L 124.347107 31.779223 L 124.488077 32.238942 L 124.062454 33.695399 L 125.037049 34.490077 L 125.557556 34.258183 L 125.530446 33.779478 L 125.912694 33.436383 L 127.447104 33.292636 L 127.790042 32.728496 L 127.776488 31.410362 L 128.218376 31.297805 L 128.761926 31.798208 L 128.845966 30.8747 L 129.153662 31.81855 L 129.735166 31.92297 L 129.892402 31.649036 L 130.701627 31.224575 L 130.720604 31.985351 L 131.215357 32.252503 L 130.945615 32.558983 L 130.987635 32.9292 L 131.719598 33.543516 L 131.951386 34.010016 L 131.894456 34.477872 L 132.233327 35.060998 L 133.225543 35.318658 L 133.394979 35.760748 L 133.904642 35.745831 L 134.495634 36.098418 L 135.599 35.758036 L 136.340451 36.558138 L 136.97753 36.459142 L 138.07683 35.855675 L 138.334372 35.881441 L 138.335728 36.078077 L 138.484831 35.428502 L 139.535333 34.811474 L 139.588197 34.359891 L 139.295412 33.920513 L 139.115132 31.314078 L 139.211372 30.730953 L 139.50009 30.527537 L 139.951468 30.581781 L 140.237475 31.10795 L 141.251379 30.950642 L 142.662441 31.499865 L 143.405247 32.007048 L 143.891867 32.82478 L 144.851551 32.926488 L 145.046741 33.292636 L 147.13148 33.032264 L 148.744509 33.060742 L 148.782462 31.423923 L 149.513069 30.984545 L 149.761123 30.417693 L 150.568993 29.595893 L 151.757755 29.920002 L 152.370435 32.066717 L 153.711011 32.019253 L 154.287093 31.787359 L 155.82557 32.198259 L 155.582938 33.447232 L 155.82557 33.974757 L 155.900122 34.921319 L 154.8076 36.323532 L 154.68154 37.002941 L 155.174937 37.394855 L 155.185781 37.935941 L 154.898417 38.26005 L 154.578523 39.812791 L 153.564619 40.139612 L 152.116959 41.370956 L 151.925835 42.035448 L 151.5341 42.427362 L 151.097633 42.440923 L 150.707253 42.945394 L 150.391425 42.945394 L 149.651329 44.450671 L 148.939699 50.330745 L 148.99934 51.334263 L 149.1254 51.643455 L 149.387009 51.632606 L 149.279926 51.959427 L 148.748575 52.150638 L 148.88819 52.587304 L 147.905462 52.783939 L 147.768558 52.558826 L 147.50966 52.942604 L 147.222297 52.344561 L 146.652993 52.720202 L 145.873588 52.093682 L 145.533361 52.432708 L 144.687537 52.77309 L 144.637384 52.621207 L 143.646524 52.675451 L 143.070442 52.981931 L 143.193791 53.173141 L 143.05011 53.384694 L 142.544513 53.089063 L 142.28426 53.246371 L 142.212419 53.032106 L 142.20022 53.342655 L 142.059249 53.325025 L 141.972498 53.02397 L 141.804418 53.227386 L 141.938611 53.512168 L 141.710889 53.350791 L 141.29611 53.706091 L 141.088721 53.255864 L 140.565503 53.254508 L 140.443509 54.47229 L 140.153435 54.626886 L 139.513645 54.224123 L 138.590559 54.286504 L 138.360126 54.053254 L 137.460083 53.908151 L 137.076481 53.666764 L 137.1307 53.190771 L 136.770141 53.018545 L 136.930088 52.739188 L 136.80945 52.511362 L 136.241501 52.176404 L 135.925673 52.244209 L 135.672197 51.917388 L 135.635598 51.065754 L 134.532232 48.887848 L 134.543076 47.881618 L 134.318066 47.674134 L 134.266557 47.141185 L 134.033413 47.236112 L 133.701319 46.974384 L 133.319072 47.408337 L 132.966645 47.355449 L 132.820253 47.08694 L 132.305168 47.238824 L 131.543385 45.915265 L 131.551518 45.473175 L 131.140805 45.245349 L 131.101496 45.028372 L 130.757202 45.094822 L 130.591833 44.827669 L 129.7189 44.407276 L 129.423404 43.959761 L 128.969316 44.224202 L 128.753793 45.078548 L 128.314616 44.877845 L 127.708713 45.094822 L 126.158037 45.128724 L 126.121439 44.987689 L 125.995378 45.191105 L 126.278675 45.277896 L 125.946581 45.397233 L 126.143126 45.596581 L 126.022488 45.915265 L 125.831364 45.886787 L 125.988601 46.191911 L 125.653796 46.4116 L 125.693105 46.600099 L 124.619559 46.482117 L 123.84151 45.907129 L 123.64632 46.121393 L 123.322359 45.983071 L 123.204432 46.213609 L 122.984843 46.151228 L 122.990265 46.4116 L 122.369452 46.524157 L 122.163418 46.788597 L 121.965517 46.605523 L 121.340638 46.876744 L 120.843174 47.826018 L 120.535479 47.907384 L 119.953975 47.633451 L 119.776406 46.840129 L 118.990224 46.453639 L 118.633731 46.642138 L 118.632375 46.427873 L 117.561541 46.205472 L 116.970549 46.453639 L 116.657432 46.830636 L 116.455464 46.591962 L 115.982399 46.61366 L 115.948512 46.163433 L 115.554066 46.082066 L 115.514756 45.797284 L 115.33041 45.957305 L 114.876322 45.134149 L 113.436796 45.394521 L 112.909511 44.880557 L 112.909511 44.309637 L 112.668235 44.376086 L 112.851225 44.049264 L 111.737016 44.427618 L 109.816291 44.641882 L 109.692942 44.81682 L 109.096528 44.641882 L 108.287302 45.028372 L 107.552629 45.05007 L 107.269332 45.385028 L 107.16767 45.277896 L 106.430286 45.785079 L 106.030417 45.782367 L 105.619705 46.12953 L 104.555648 45.717274 L 104.276418 46.406175 L 103.787087 46.027822 L 103.480747 46.137667 L 103.282846 46.377697 L 103.522767 47.010998 L 103.44686 48.019941 L 103.091722 48.095883 L 102.793515 48.707486 L 102.2337 49.065498 L 101.982935 48.684433 L 101.11949 48.927175 L 100.951409 48.388802 L 100.631514 48.485085 L 99.995791 49.287899 L 99.431909 49.468261 L 98.485779 49.494027 L 98.412583 48.90819 L 97.974761 48.971927 L 97.897498 48.262684 L 97.6508 47.887043 L 97.79177 47.126267 L 98.375985 46.391258 L 98.373274 45.909841 L 98.973754 44.725961 L 99.130991 43.883819 L 98.778564 43.826863 L 98.605062 43.439017 L 98.007293 43.567847 L 97.484075 43.311543 L 97.622334 42.950819 L 97.385124 41.818471 L 97.6508 41.311287 L 97.306506 41.029218 L 96.30209 39.23509 L 95.153993 38.254626 L 94.613154 38.330568 L 94.568423 37.5047 L 94.346123 37.436894 L 94.272927 36.884959 L 94.306814 36.631368 L 94.953381 36.213687 L 94.793434 35.528854 L 94.573845 35.355273 L 94.806989 35.128803 L 94.751414 34.16868 L 95.910355 33.104138 L 96.195007 32.074854 Z M 96.560988 31.908053 " stroke="rgb(100%, 100%, 100%)" stroke-width="0.5" stroke-opacity="1" stroke-miterlimit="4"/><path fill="rgb(17.248535%, 44.309998%, 94.119263%)" d="M 94.960938 161.328125 L 96.476562 160.214844 L 97.085938 160.335938 L 98.199219 158.6875 L 98.164062 156.773438 L 96.390625 153.542969 L 96.007812 150.921875 L 97.085938 149.8125 L 98.085938 149.714844 L 98.992188 150.808594 L 102.734375 150.726562 L 104.191406 151.5625 L 105.289062 151.175781 L 107.964844 153.617188 L 108.996094 156.871094 L 110.246094 158.082031 L 111.316406 157.496094 L 114.300781 158.445312 L 116.25 162.773438 L 116.019531 164.191406 L 114.195312 165.953125 L 115.429688 166.96875 L 114.773438 168.484375 L 117.410156 168.835938 L 118.292969 169.539062 L 120.96875 173.347656 L 121.863281 176.015625 L 124.253906 176.738281 L 125.121094 175.402344 L 126.394531 177.339844 L 126.730469 176.164062 L 130.648438 172.84375 L 132.804688 171.835938 L 134.988281 169.792969 L 136.457031 169.71875 L 137.289062 172.78125 L 136.164062 173.859375 L 135.832031 175.441406 L 136.722656 175.585938 L 136.894531 174.777344 L 137.589844 174.5 L 139.832031 174.71875 L 140.390625 175.734375 L 139.839844 178.550781 L 140.773438 178.4375 L 138.914062 181.246094 L 140.015625 181.308594 L 140.773438 183.664062 L 138.402344 189.386719 L 138.507812 194.238281 L 140.023438 197.769531 L 140.414062 198.070312 L 143.171875 194.140625 L 145.339844 194.902344 L 147.949219 193.175781 L 149.332031 193.484375 L 149.582031 194.117188 L 151.148438 193.078125 L 151.699219 192.511719 L 151.640625 190.910156 L 152.429688 190.617188 L 152.324219 189.613281 L 153.449219 188.808594 L 153.25 188.371094 L 155.820312 185.683594 L 156.988281 185.644531 L 160.003906 190.367188 L 162.164062 191.152344 L 163.414062 196.128906 L 163.964844 197.054688 L 164.953125 197.175781 L 165.441406 198.839844 L 164.597656 201.097656 L 164.644531 203.492188 L 162.457031 204.667969 L 161.9375 206.113281 L 163.007812 207.425781 L 162.269531 208.378906 L 163.867188 210.820312 L 161.261719 213.175781 L 161.683594 215.511719 L 162.992188 215.761719 L 163.625 214.328125 L 168.683594 216.339844 L 172.035156 216.527344 L 171.4375 214.765625 L 171.921875 213.417969 L 173.339844 214.8125 L 174.316406 213.199219 L 175.046875 213.878906 L 178.273438 212.507812 L 179.140625 212.832031 L 180.132812 212.507812 L 181.339844 211.046875 L 183.125 212.273438 L 182.417969 213.058594 L 182.988281 213.660156 L 181.355469 216.28125 L 182.386719 217.855469 L 182.695312 219.652344 L 181.316406 221.777344 L 179.652344 222.96875 L 179.367188 224.195312 L 178.542969 224.578125 L 178.558594 226.5 L 175.980469 228.992188 L 172.277344 228.585938 L 169.925781 229.421875 L 168.351562 228.609375 L 167.980469 229.769531 L 165.707031 230.121094 L 164.832031 229.542969 L 163.828125 230.105469 L 163.128906 231.207031 L 163.609375 232.035156 L 162.683594 233.082031 L 162.632812 236.539062 L 162.429688 236.144531 L 162.058594 236.6875 L 162.421875 236.800781 L 161.480469 237.546875 L 159.171875 237.238281 L 157.945312 238.878906 L 159.527344 241.402344 L 158.804688 241.507812 L 159.332031 243.867188 L 158.011719 245.410156 L 158.640625 246.667969 L 158.203125 249.722656 L 158.367188 251.367188 L 160.671875 251.902344 L 163.105469 253.609375 L 163.785156 255.425781 L 165.359375 256.34375 L 165.199219 257.535156 L 160.761719 256.878906 L 156.339844 258.097656 L 155.347656 261.019531 L 150.394531 264.109375 L 146.589844 264.695312 L 142.613281 263.738281 L 140.472656 263.835938 L 136.859375 265.3125 L 133.316406 263.835938 L 130.421875 265.230469 L 120.386719 267.804688 L 115.167969 266.53125 L 110.851562 266.625 L 102.960938 264.792969 L 99.398438 264.777344 L 97.226562 266 L 94.726562 264.648438 L 92.664062 266.207031 L 88.753906 266.820312 L 85.632812 266.019531 L 79.765625 266.839844 L 78.03125 265.734375 L 73.738281 264.761719 L 72.410156 263.226562 L 73.84375 261.871094 L 74.632812 258.324219 L 76.085938 258.285156 L 77.820312 259.21875 L 78.476562 257.789062 L 80.652344 256.359375 L 80.628906 253.097656 L 81.503906 251.335938 L 83.273438 250.742188 L 84.667969 248.648438 L 86.957031 247.320312 L 88.007812 246.042969 L 86.136719 244.1875 L 87.027344 242.644531 L 86.535156 239.664062 L 87.109375 236.671875 L 86.152344 234.890625 L 86.023438 232.523438 L 87.207031 231.613281 L 86.890625 229.761719 L 83.855469 228.082031 L 84.722656 226.929688 L 84.179688 226.003906 L 82.113281 227.578125 L 81.253906 227.417969 L 80.910156 225.777344 L 81.867188 223.410156 L 81.753906 221.800781 L 79.53125 219.234375 L 76.539062 217.371094 L 78.453125 215.980469 L 79.523438 215.941406 L 80.171875 216.890625 L 80.820312 216.914062 L 81.902344 215.574219 L 80.480469 212.757812 L 82.964844 212.695312 L 83.855469 213.5 L 84.210938 212.695312 L 86.808594 211 L 86.742188 208.652344 L 84.5625 207.960938 L 83.652344 206.46875 L 83.914062 205.648438 L 84.660156 206.089844 L 85.59375 205.488281 L 85.066406 204.222656 L 86.320312 202.214844 L 85.859375 201.160156 L 84.117188 200.976562 L 83.5625 199.855469 L 84.667969 198.960938 L 84.886719 195.828125 L 85.769531 195.140625 L 85.421875 193.558594 L 86.648438 192.613281 L 86.3125 192.097656 L 87.085938 191.691406 L 89.355469 187.6875 L 90.605469 184.070312 L 91.457031 182.707031 L 92.65625 182.6875 L 92.421875 181.957031 L 93.378906 180.523438 L 88.835938 175.496094 L 85.480469 174.34375 L 84.59375 173.828125 L 84.519531 173.046875 L 85.910156 171.945312 L 86.65625 168.03125 L 88.121094 166.277344 L 88.59375 164.402344 L 90.769531 165.582031 L 93.015625 165.402344 L 92.804688 164.582031 L 93.808594 164.5 L 94.816406 163.574219 Z M 94.960938 161.328125 " fill-opacity="1" fill-rule="nonzero"/><g clip-path="url(#id3)"><path stroke-linecap="butt" transform="matrix(2.881807, 0, 0, 2.880491, 0.573657, 38.475847)" fill="none" stroke-linejoin="miter" d="M 32.752816 42.649763 L 33.278745 42.263273 L 33.490201 42.305313 L 33.876514 41.733036 L 33.864315 41.068545 L 33.248924 39.947045 L 33.116086 39.037099 L 33.490201 38.651965 L 33.837205 38.618062 L 34.151678 38.997772 L 35.450234 38.969293 L 35.95583 39.2595 L 36.336722 39.125246 L 37.26523 39.972811 L 37.623079 41.102447 L 38.056835 41.52284 L 38.428238 41.319424 L 39.46383 41.648958 L 40.140217 43.151522 L 40.060244 43.643789 L 39.427231 44.255392 L 39.855565 44.60798 L 39.627843 45.134149 L 40.542797 45.256198 L 40.849137 45.500297 L 41.777645 46.8225 L 42.088052 47.74872 L 42.917609 47.999599 L 43.218527 47.535811 L 43.660416 48.20844 L 43.776988 47.800252 L 45.136541 46.647562 L 45.884769 46.297687 L 46.642486 45.588444 L 47.152149 45.562678 L 47.440868 46.625865 L 47.050488 47.00015 L 46.935271 47.549372 L 47.244322 47.599548 L 47.303964 47.318834 L 47.54524 47.222551 L 48.32329 47.298493 L 48.517124 47.65108 L 48.326 48.628832 L 48.649962 48.589505 L 48.00475 49.564545 L 48.386997 49.586243 L 48.649962 50.403974 L 47.827181 52.390669 L 47.86378 54.074952 L 48.389708 55.300871 L 48.525257 55.405291 L 49.482231 54.041049 L 50.234526 54.305489 L 51.139991 53.706091 L 51.619833 53.813223 L 51.706584 54.032912 L 52.250134 53.672188 L 52.441258 53.475553 L 52.420925 52.91955 L 52.694734 52.817842 L 52.658135 52.469323 L 53.048516 52.189965 L 52.979386 52.038081 L 53.871296 51.105081 L 54.276586 51.09152 L 55.323022 52.731051 L 56.072606 53.003628 L 56.506362 54.731307 L 56.697485 55.052704 L 57.040423 55.094743 L 57.209859 55.672444 L 56.917074 56.456273 L 56.93334 57.287565 L 56.174267 57.695753 L 55.993988 58.197512 L 56.365391 58.653163 L 56.109204 58.984053 L 56.663598 59.831619 L 55.759489 60.649351 L 55.905881 61.460302 L 56.359969 61.547092 L 56.579558 61.049402 L 58.334913 61.747796 L 59.49792 61.812889 L 59.290531 61.201285 L 59.458611 60.733429 L 59.950653 61.217559 L 60.289525 60.657487 L 60.543001 60.89345 L 61.662632 60.417457 L 61.96355 60.530013 L 62.307844 60.417457 L 62.726689 59.910273 L 63.346147 60.33609 L 63.100804 60.608667 L 63.298705 60.817508 L 62.732111 61.727454 L 63.08996 62.273965 L 63.197043 62.897773 L 62.718556 63.635495 L 62.141119 64.049107 L 62.042169 64.474924 L 61.756161 64.607822 L 61.761583 65.275026 L 60.866962 66.140221 L 59.581961 65.999186 L 58.765958 66.289393 L 58.219697 66.007323 L 58.090925 66.410086 L 57.302032 66.532136 L 56.998403 66.331432 L 56.650043 66.526711 L 56.407411 66.909133 L 56.574136 67.196627 L 56.252886 67.560064 L 56.235264 68.760217 L 56.164779 68.62325 L 56.036008 68.811749 L 56.162068 68.851076 L 55.835396 69.110092 L 55.034303 69.00296 L 54.608681 69.572524 L 55.157653 70.448568 L 54.906888 70.485183 L 55.089878 71.304271 L 54.631724 71.839932 L 54.849957 72.276598 L 54.698143 73.337073 L 54.755073 73.907993 L 55.55481 74.09378 L 56.399278 74.686398 L 56.635133 75.316987 L 57.181394 75.635671 L 57.125819 76.049284 L 55.585986 75.821458 L 54.051576 76.244563 L 53.707282 77.25893 L 51.988525 78.331609 L 50.668281 78.535025 L 49.288396 78.202779 L 48.545589 78.236682 L 47.291764 78.749289 L 46.062338 78.236682 L 45.057922 78.720811 L 41.575678 79.614485 L 39.764748 79.172394 L 38.266935 79.204941 L 35.528852 78.568927 L 34.292649 78.563503 L 33.538998 78.987964 L 32.671487 78.518752 L 31.95579 79.059838 L 30.598948 79.272746 L 29.515914 78.994745 L 27.479973 79.279527 L 26.878137 78.895749 L 25.388458 78.558079 L 24.927592 78.025129 L 25.425056 77.554561 L 25.698864 76.323217 L 26.203105 76.309656 L 26.804941 76.633765 L 27.032663 76.13743 L 27.787669 75.641096 L 27.779536 74.508748 L 28.083165 73.897144 L 28.6972 73.691016 L 29.181109 72.964144 L 29.975424 72.503068 L 30.34005 72.059621 L 29.690772 71.415471 L 29.999823 70.87981 L 29.829031 69.845101 L 30.028288 68.806325 L 29.696194 68.187941 L 29.651463 67.366141 L 30.062175 67.050168 L 29.952381 66.407374 L 28.899168 65.824249 L 29.200086 65.424198 L 29.011673 65.102801 L 28.294621 65.649311 L 27.996414 65.593711 L 27.877131 65.024147 L 28.209225 64.202347 L 28.169916 63.643631 L 27.398644 62.75267 L 26.360341 62.105808 L 27.02453 61.623034 L 27.395933 61.609473 L 27.620944 61.939007 L 27.845955 61.947143 L 28.221424 61.481999 L 27.728027 60.504247 L 28.590117 60.48255 L 28.899168 60.761907 L 29.022517 60.48255 L 29.923915 59.894 L 29.900872 59.078981 L 29.144511 58.83895 L 28.828682 58.320918 L 28.9195 58.036135 L 29.178398 58.189375 L 29.502359 57.980535 L 29.319368 57.541157 L 29.75448 56.844119 L 29.594532 56.47797 L 28.989985 56.414233 L 28.797506 56.025031 L 29.181109 55.714483 L 29.257016 54.626886 L 29.563356 54.388212 L 29.442718 53.838989 L 29.868341 53.510812 L 29.751769 53.331806 L 30.020155 53.190771 L 30.807693 51.800763 L 31.241448 50.545009 L 31.536944 50.071728 L 31.953079 50.064948 L 31.87175 49.811356 L 32.203844 49.313665 L 30.627413 47.568358 L 29.46305 47.168307 L 29.155355 46.989301 L 29.1296 46.71808 L 29.612154 46.335658 L 29.871051 44.97684 L 30.379359 44.367949 L 30.543373 43.717018 L 31.298379 44.126562 L 32.077784 44.064181 L 32.004587 43.779399 L 32.352947 43.750921 L 32.702663 43.429524 Z M 32.752816 42.649763 " stroke="rgb(100%, 100%, 100%)" stroke-width="0.5" stroke-opacity="1" stroke-miterlimit="4"/></g><path fill="rgb(17.248535%, 44.309998%, 94.119263%)" d="M 362.878906 59.722656 L 366.128906 59.515625 L 368.175781 61.757812 L 370.667969 61.621094 L 373.164062 64.183594 L 376.515625 63.925781 L 377.941406 62.027344 L 380.0625 63.460938 L 380.011719 62.488281 L 380.976562 61.335938 L 382.625 61.578125 L 383.757812 60.574219 L 385.734375 61.523438 L 389.109375 59.761719 L 390.027344 61.847656 L 391.222656 62.765625 L 391.246094 63.558594 L 393.09375 64.296875 L 394.546875 63.324219 L 396.300781 64.136719 L 396.679688 65.839844 L 397.394531 65.808594 L 399.644531 67.699219 L 400.007812 69.898438 L 400.734375 70.996094 L 401.734375 71.292969 L 401.628906 69.582031 L 402.328125 68.339844 L 404.625 66.871094 L 405.875 66.789062 L 407.339844 69.507812 L 408.402344 69.023438 L 409.304688 69.296875 L 410.898438 71.820312 L 412.054688 71.414062 L 413.148438 72.324219 L 415.648438 72.089844 L 417.464844 76.691406 L 421.316406 80.417969 L 421.238281 82.46875 L 422.160156 83.386719 L 421.398438 87.0625 L 422.640625 88.078125 L 430.265625 90.238281 L 430.410156 91.195312 L 433.980469 93.265625 L 435.636719 92.03125 L 436.742188 92.210938 L 437.589844 93.785156 L 436.917969 95.941406 L 438.726562 96.050781 L 444.355469 98.070312 L 445.589844 96.796875 L 448.292969 96.988281 L 450.019531 98.980469 L 450.171875 100.042969 L 452.703125 102.523438 L 455.488281 102 L 458.421875 104.089844 L 462.332031 103.046875 L 464.222656 104.132812 L 463.203125 105.1875 L 463.03125 111.226562 L 461.96875 112.125 L 462.625 113.886719 L 460.636719 115.089844 L 459.074219 114.730469 L 457.214844 115.632812 L 456.847656 117.574219 L 452.863281 123.320312 L 453.378906 124.359375 L 452.535156 128.660156 L 450.617188 129.761719 L 449.636719 131.222656 L 445.199219 130.039062 L 443.542969 130.707031 L 439.675781 130.84375 L 437.914062 124.660156 L 434.484375 123.726562 L 432.15625 126.09375 L 431.441406 127.726562 L 429.339844 128.992188 L 429.226562 133.707031 L 424.578125 133.625 L 418.574219 134.375 L 418.007812 133.320312 L 415.242188 133.027344 L 413.84375 130.671875 L 411.699219 129.210938 L 407.632812 127.628906 L 404.710938 128.082031 L 403.886719 126.566406 L 402.585938 126.410156 L 401.753906 126.996094 L 401.480469 128.675781 L 401.996094 136.183594 L 402.84375 137.449219 L 402.6875 138.75 L 399.660156 140.527344 L 399.230469 142.398438 L 399.226562 141.832031 L 398.488281 141.757812 L 395.316406 143.496094 L 393.484375 143.78125 L 391.34375 141.476562 L 388.164062 142.457031 L 386.460938 141.441406 L 384.992188 141.484375 L 384.503906 140.210938 L 381.648438 139.46875 L 380.667969 137.789062 L 380.832031 136.441406 L 380.164062 135.097656 L 378.054688 133.328125 L 377.933594 132.261719 L 378.710938 131.378906 L 377.285156 130.609375 L 377.230469 128.417969 L 374.898438 129.640625 L 374.445312 130.429688 L 372.773438 130.128906 L 371.882812 127.410156 L 371.644531 130.070312 L 370.074219 128.628906 L 368.800781 128.953125 L 368.839844 132.75 L 367.855469 134.375 L 363.429688 134.789062 L 362.328125 135.777344 L 362.40625 137.15625 L 360.90625 137.824219 L 358.097656 135.535156 L 359.324219 131.339844 L 358.917969 130.015625 L 357.273438 130.722656 L 357.320312 129.359375 L 356.308594 129.324219 L 356.09375 130.03125 L 354.078125 128.847656 L 352.582031 130.429688 L 351.375 129.308594 L 350.660156 127.457031 L 348.714844 126.46875 L 347.671875 127.492188 L 339.738281 126.214844 L 339.40625 124.089844 L 338.21875 123.394531 L 336.40625 120.371094 L 334.097656 122.101562 L 332.773438 119.960938 L 331.457031 119 L 329.679688 118.523438 L 325.316406 119.902344 L 323.339844 118.757812 L 324.886719 117.191406 L 322.683594 118.035156 L 319.160156 116.128906 L 318.753906 116.460938 L 320.167969 119.957031 L 318.757812 120.503906 L 317.976562 119.269531 L 316.332031 120.511719 L 315.023438 118.871094 L 312.5625 119.699219 L 312.222656 121.160156 L 311.308594 121.941406 L 311.339844 124.421875 L 309.019531 123.050781 L 306.285156 118.703125 L 303.519531 119.40625 L 301.660156 118.402344 L 298.59375 114.238281 L 296.386719 117.03125 L 298.984375 120.347656 L 297.726562 120.308594 L 292.398438 116.339844 L 289.703125 115.226562 L 288.496094 116.753906 L 284.457031 118.914062 L 281.753906 121.726562 L 282.84375 123.726562 L 281.664062 124.796875 L 281.632812 127.890625 L 281.058594 128.75 L 281.308594 131.160156 L 280.1875 131.46875 L 278.84375 130.386719 L 277.730469 130.03125 L 275.628906 127.710938 L 273.480469 127.570312 L 271.824219 126.015625 L 270.671875 127.96875 L 269.207031 128.96875 L 262.480469 127.992188 L 261.5625 126.839844 L 257.582031 126.46875 L 257.90625 125.648438 L 260.378906 125.167969 L 262.105469 123.667969 L 260.421875 123.246094 L 259.210938 119.796875 L 259.601562 118.78125 L 258.511719 118.058594 L 257.644531 115.988281 L 254.894531 114.019531 L 255.140625 113.359375 L 256.535156 113.832031 L 259 112.753906 L 259.671875 106.316406 L 260.867188 101.699219 L 259.804688 101.054688 L 258.796875 101.679688 L 255.917969 101.511719 L 255.171875 100.058594 L 254.613281 101.160156 L 253.363281 99.183594 L 252.082031 99.277344 L 251.855469 98.394531 L 249.664062 98.929688 L 250.449219 95.878906 L 247.546875 90.59375 L 249.851562 88.425781 L 250.027344 86.480469 L 251.632812 85.773438 L 253.410156 85.929688 L 256.625 86.34375 L 258.449219 87.941406 L 258.367188 88.664062 L 259.429688 89.929688 L 263.453125 92.601562 L 264.734375 92.632812 L 264.824219 89.441406 L 266.015625 87.476562 L 265.539062 85.683594 L 267.941406 81.140625 L 268.222656 78.484375 L 269.734375 76.027344 L 270.789062 77.40625 L 271.980469 76.246094 L 271.648438 74.636719 L 272.644531 74.566406 L 273.40625 72.902344 L 275.679688 71.546875 L 276.464844 72.355469 L 277.359375 71.722656 L 279.449219 72.179688 L 280.464844 71.585938 L 283.183594 72.511719 L 283.726562 71.871094 L 283.863281 68.347656 L 284.488281 66.871094 L 283.214844 66.953125 L 283.78125 65.441406 L 284.796875 65.183594 L 286.9375 65.808594 L 287.847656 64.664062 L 288.429688 66.601562 L 289.324219 66.757812 L 290.800781 66.195312 L 291.382812 64.777344 L 292.574219 66.074219 L 292.453125 63.535156 L 293.703125 64.210938 L 293.679688 63.792969 L 295.683594 63.730469 L 298.386719 65.183594 L 298.78125 66.554688 L 304.082031 68.558594 L 304.53125 67.765625 L 305.328125 67.902344 L 306.132812 67.097656 L 307.4375 63.421875 L 309.960938 65.53125 L 313.839844 63.089844 L 316.277344 63.910156 L 317.386719 63.671875 L 317.617188 65.246094 L 318.757812 65.785156 L 318.007812 66.773438 L 318.980469 67.660156 L 318.933594 69.273438 L 320.945312 68.84375 L 320.832031 70.359375 L 322.15625 70.246094 L 322.988281 70.863281 L 322.691406 71.414062 L 322.144531 70.675781 L 321.992188 72.609375 L 323.265625 72.1875 L 324.359375 73.753906 L 325.148438 73.792969 L 326.589844 72.226562 L 327.355469 72.148438 L 328.910156 74.476562 L 328.132812 75.5 L 330.539062 74.652344 L 331.183594 76.976562 L 332.625 78.265625 L 335.246094 76.878906 L 337.527344 76.941406 L 337.980469 76.324219 L 337.339844 74.492188 L 338.859375 73.714844 L 339.199219 72.25 L 341.640625 70.035156 L 342.769531 70.378906 L 343.617188 69.988281 L 344.230469 70.6875 L 345.738281 70.011719 L 346.644531 68.707031 L 343.855469 66.292969 L 343.863281 65.515625 L 342.613281 65.070312 L 342.152344 63.65625 L 342.496094 63.113281 L 346.03125 62.050781 L 347.34375 62.804688 L 348.324219 61.351562 L 350.472656 62.398438 L 352.679688 64.589844 L 352.777344 65.433594 L 355 65.402344 L 356.484375 63.632812 L 356.21875 62.535156 L 357.003906 61.132812 L 357.621094 61.441406 L 359.582031 59.824219 L 360.0625 58.316406 Z M 362.878906 59.722656 " fill-opacity="1" fill-rule="nonzero"/><g clip-path="url(#id4)"><path stroke-linecap="butt" transform="matrix(2.881807, 0, 0, 2.880491, 0.573657, 38.475847)" fill="none" stroke-linejoin="miter" d="M 125.72157 7.376106 L 126.849335 7.304232 L 127.55961 8.082637 L 128.42441 8.035173 L 129.290566 8.924778 L 130.453573 8.835275 L 130.948326 8.176208 L 131.684355 8.673899 L 131.666734 8.336228 L 132.001539 7.936177 L 132.573554 8.020256 L 132.966645 7.671737 L 133.652522 8.00127 L 134.823662 7.389667 L 135.142201 8.113827 L 135.55698 8.432512 L 135.565113 8.707801 L 136.206258 8.964105 L 136.710499 8.626435 L 137.319113 8.908505 L 137.450595 9.499767 L 137.698649 9.488918 L 138.479409 10.145273 L 138.605469 10.90876 L 138.85759 11.289826 L 139.204594 11.39289 L 139.167996 10.798916 L 139.410628 10.367674 L 140.207654 9.857779 L 140.64141 9.8293 L 141.149718 10.77315 L 141.51841 10.604993 L 141.831527 10.69992 L 142.384566 11.575964 L 142.78579 11.434929 L 143.165326 11.750902 L 144.032837 11.669535 L 144.663139 13.267028 L 145.999648 14.560752 L 145.972539 15.272708 L 146.292433 15.591392 L 146.028114 16.867487 L 146.459158 17.220075 L 149.105068 17.970001 L 149.155221 18.302247 L 150.394136 19.020983 L 150.968862 18.592454 L 151.352465 18.654834 L 151.646605 19.201345 L 151.413462 19.949915 L 152.041052 19.987886 L 153.994308 20.688993 L 154.422642 20.246902 L 155.360638 20.313351 L 155.959763 21.004965 L 156.012627 21.373826 L 156.890983 22.234953 L 157.857444 22.053235 L 158.875415 22.778751 L 160.232257 22.416671 L 160.888312 22.793668 L 160.53453 23.159817 L 160.474889 25.256356 L 160.106197 25.56826 L 160.333918 26.179863 L 159.643976 26.597544 L 159.101781 26.472782 L 158.45657 26.786042 L 158.329154 27.460027 L 156.946558 29.454858 L 157.125482 29.815582 L 156.832697 31.308654 L 156.167153 31.691076 L 155.826926 32.198259 L 154.287093 31.787359 L 153.712367 32.019253 L 152.370435 32.066717 L 151.759111 29.920002 L 150.568993 29.595893 L 149.761123 30.417693 L 149.513069 30.984545 L 148.783818 31.423923 L 148.744509 33.060742 L 147.13148 33.032264 L 145.048097 33.292636 L 144.851551 32.926488 L 143.891867 32.82478 L 143.406603 32.007048 L 142.662441 31.499865 L 141.251379 30.950642 L 140.237475 31.10795 L 139.951468 30.581781 L 139.50009 30.527537 L 139.211372 30.730953 L 139.116488 31.314078 L 139.295412 33.920513 L 139.589553 34.359891 L 139.535333 34.811474 L 138.484831 35.428502 L 138.335728 36.078077 L 138.334372 35.881441 L 138.078185 35.855675 L 136.97753 36.459142 L 136.341807 36.558138 L 135.599 35.758036 L 134.495634 36.098418 L 133.904642 35.745831 L 133.394979 35.760748 L 133.225543 35.318658 L 132.234683 35.060998 L 131.894456 34.477872 L 131.951386 34.010016 L 131.719598 33.543516 L 130.987635 32.9292 L 130.945615 32.558983 L 131.215357 32.252503 L 130.720604 31.985351 L 130.701627 31.224575 L 129.892402 31.649036 L 129.735166 31.92297 L 129.155017 31.81855 L 128.845966 30.8747 L 128.763282 31.798208 L 128.218376 31.297805 L 127.776488 31.410362 L 127.790042 32.728496 L 127.44846 33.292636 L 125.912694 33.436383 L 125.530446 33.779478 L 125.557556 34.258183 L 125.037049 34.490077 L 124.062454 33.695399 L 124.488077 32.238942 L 124.347107 31.779223 L 123.776447 32.024678 L 123.792713 31.551397 L 123.441642 31.539192 L 123.36709 31.784647 L 122.667659 31.373747 L 122.148508 31.92297 L 121.729662 31.533767 L 121.481608 30.890973 L 120.806576 30.547879 L 120.444661 30.903178 L 117.691668 30.459732 L 117.576451 29.722011 L 117.164384 29.480624 L 116.535438 28.430998 L 115.734345 29.031753 L 115.274835 28.288607 L 114.818036 27.955005 L 114.20129 27.78956 L 112.687212 28.268266 L 112.001335 27.870927 L 112.538108 27.327128 L 111.773614 27.620047 L 110.550965 26.958268 L 110.409994 27.073537 L 110.90068 28.287251 L 110.41135 28.477106 L 110.140252 28.048577 L 109.569593 28.479818 L 109.115505 27.910254 L 108.261548 28.197748 L 108.143621 28.704932 L 107.826437 28.976153 L 107.837281 29.83728 L 107.032122 29.361287 L 106.083281 27.851941 L 105.123597 28.09604 L 104.478385 27.747521 L 103.414328 26.301913 L 102.648478 27.271528 L 103.549877 28.422862 L 103.11341 28.409301 L 101.264527 27.031498 L 100.329241 26.645007 L 99.910396 27.175245 L 98.508823 27.925171 L 97.570826 28.901567 L 97.949007 29.595893 L 97.53965 29.967466 L 97.528806 31.041501 L 97.329549 31.339844 L 97.4163 32.176561 L 97.027276 32.283694 L 96.560988 31.908053 L 96.174675 31.784647 L 95.445423 30.97912 L 94.699905 30.930301 L 94.125179 30.390571 L 93.725311 31.068623 L 93.217003 31.415786 L 90.882855 31.07676 L 90.564316 30.676709 L 89.183075 30.547879 L 89.295581 30.263097 L 90.153604 30.096296 L 90.752729 29.575551 L 90.168514 29.429092 L 89.748313 28.231651 L 89.883862 27.879063 L 89.505681 27.628184 L 89.204763 26.909448 L 88.250501 26.225971 L 88.335896 25.996789 L 88.819805 26.160878 L 89.675117 25.786593 L 89.908261 23.551731 L 90.323039 21.948814 L 89.954347 21.725057 L 89.604632 21.942034 L 88.605638 21.883721 L 88.34674 21.37925 L 88.152906 21.761672 L 87.71915 21.075483 L 87.27455 21.108029 L 87.195932 20.801549 L 86.435504 20.987336 L 86.707957 19.928217 L 85.70083 18.093407 L 86.500567 17.340768 L 86.561564 16.665428 L 87.118669 16.419973 L 87.735416 16.474217 L 88.850981 16.617964 L 89.483993 17.172611 L 89.455528 17.423491 L 89.82422 17.862869 L 91.220372 18.790445 L 91.664971 18.801294 L 91.696147 17.693356 L 92.109571 17.011235 L 91.944201 16.388782 L 92.777826 14.811632 L 92.875421 13.88948 L 93.399994 13.03649 L 93.765975 13.515195 L 94.179399 13.112432 L 94.064182 12.553716 L 94.409831 12.529306 L 94.674151 11.951605 L 95.463044 11.481037 L 95.735497 11.761751 L 96.045904 11.542062 L 96.771089 11.700726 L 97.123515 11.494598 L 98.066934 11.815995 L 98.255347 11.593594 L 98.302789 10.370386 L 98.519666 9.857779 L 98.077778 9.886257 L 98.274323 9.361444 L 98.62675 9.271941 L 99.369556 9.488918 L 99.685385 9.091579 L 99.887352 9.764207 L 100.197759 9.818452 L 100.710133 9.623172 L 100.9121 9.130906 L 101.325524 9.581133 L 101.283503 8.699665 L 101.717259 8.934271 L 101.709126 8.789168 L 102.404491 8.76747 L 103.342487 9.271941 L 103.479392 9.747934 L 105.318787 10.443616 L 105.474668 10.168327 L 105.751187 10.21579 L 106.030417 9.936433 L 106.48315 8.660338 L 107.358794 9.392634 L 108.704792 8.545069 L 109.550616 8.829851 L 109.935574 8.747128 L 110.015548 9.293639 L 110.41135 9.480781 L 110.151096 9.823876 L 110.488612 10.131712 L 110.472347 10.691783 L 111.170422 10.542612 L 111.131113 11.068781 L 111.590623 11.029454 L 111.879342 11.243718 L 111.776325 11.434929 L 111.586557 11.178625 L 111.533693 11.849897 L 111.975581 11.703438 L 112.355117 12.247236 L 112.628926 12.260797 L 113.1291 11.716999 L 113.394776 11.689877 L 113.934259 12.498116 L 113.664517 12.853415 L 114.499497 12.559141 L 114.723152 13.366023 L 115.223327 13.813538 L 116.132858 13.332121 L 116.924462 13.353818 L 117.081699 13.139554 L 116.859399 12.50354 L 117.386683 12.233675 L 117.504611 11.725136 L 118.35179 10.956224 L 118.743525 11.075561 L 119.037666 10.939951 L 119.250477 11.182694 L 119.773695 10.948087 L 120.088168 10.495148 L 119.120351 9.657075 L 119.123062 9.38721 L 118.689306 9.232614 L 118.529358 8.741704 L 118.648641 8.553205 L 119.875357 8.184345 L 120.3308 8.446073 L 120.671027 7.941602 L 121.416545 8.305038 L 122.182395 9.065813 L 122.216282 9.358732 L 122.987554 9.347883 L 123.502639 8.733567 L 123.410465 8.352502 L 123.682918 7.86566 L 123.897085 7.972792 L 124.577539 7.411364 L 124.744264 6.887908 Z M 125.72157 7.376106 " stroke="rgb(100%, 100%, 100%)" stroke-width="0.5" stroke-opacity="1" stroke-miterlimit="4"/></g><path fill="rgb(17.248535%, 44.309998%, 94.119263%)" d="M 32.332031 130.40625 L 38.75 132.148438 L 41.035156 134.367188 L 42.277344 134.023438 L 42.707031 135.085938 L 45.613281 137.75 L 46.757812 137.101562 L 48.378906 137.691406 L 47.785156 140.242188 L 44.898438 141.742188 L 44.800781 142.488281 L 46.058594 143.496094 L 47.300781 143.382812 L 50.007812 141.265625 L 50.253906 142.765625 L 53.675781 144.074219 L 54.617188 145.898438 L 55.671875 146.253906 L 55.71875 148.625 L 54.578125 149.023438 L 53.832031 151.222656 L 54.285156 153.347656 L 55.03125 153.464844 L 55.710938 156.078125 L 58.339844 160.847656 L 58.898438 160.230469 L 59.734375 160.589844 L 59.945312 159.730469 L 61.707031 158.1875 L 63.152344 158.835938 L 66.566406 158.15625 L 66.03125 156.773438 L 66.304688 155.6875 L 66.890625 155.664062 L 67.335938 156.492188 L 68.722656 156.597656 L 68.632812 155.9375 L 71.636719 154.039062 L 72.21875 154.160156 L 72.820312 153.339844 L 74.589844 154.722656 L 76.1875 157.15625 L 79.519531 158.761719 L 82.570312 158.675781 L 82.734375 156.953125 L 83.96875 157.074219 L 84.707031 159.414062 L 85.25 158.738281 L 85.417969 159.492188 L 85.824219 158.699219 L 86.683594 159.867188 L 92.265625 160.75 L 93.476562 161.816406 L 94.960938 161.328125 L 94.820312 163.574219 L 93.808594 164.5 L 92.808594 164.582031 L 93.019531 165.402344 L 90.773438 165.582031 L 88.597656 164.402344 L 88.121094 166.277344 L 86.660156 168.03125 L 85.914062 171.945312 L 84.519531 173.046875 L 84.597656 173.828125 L 85.484375 174.339844 L 88.835938 175.492188 L 93.378906 180.523438 L 92.421875 181.953125 L 92.65625 182.683594 L 91.460938 182.707031 L 90.609375 184.070312 L 89.355469 187.6875 L 87.089844 191.691406 L 86.3125 192.097656 L 86.652344 192.609375 L 85.425781 193.558594 L 85.769531 195.140625 L 84.890625 195.828125 L 84.671875 198.960938 L 83.5625 199.855469 L 84.121094 200.976562 L 85.863281 201.160156 L 86.320312 202.210938 L 85.070312 204.222656 L 85.597656 205.488281 L 84.664062 206.089844 L 83.917969 205.648438 L 83.652344 206.46875 L 84.566406 207.957031 L 86.742188 208.652344 L 86.8125 211 L 84.210938 212.695312 L 83.855469 213.5 L 82.96875 212.695312 L 80.480469 212.753906 L 81.90625 215.570312 L 80.820312 216.914062 L 80.171875 216.890625 L 79.523438 215.941406 L 78.457031 215.980469 L 76.542969 217.371094 L 79.53125 219.230469 L 81.753906 221.800781 L 81.867188 223.410156 L 80.910156 225.777344 L 81.257812 227.417969 L 82.117188 227.574219 L 84.179688 226 L 84.722656 226.929688 L 83.855469 228.082031 L 86.894531 229.761719 L 87.210938 231.613281 L 86.027344 232.523438 L 86.15625 234.886719 L 87.113281 236.671875 L 86.539062 239.664062 L 87.027344 242.644531 L 86.140625 244.1875 L 88.007812 246.042969 L 86.960938 247.320312 L 84.671875 248.648438 L 83.277344 250.742188 L 81.507812 251.335938 L 80.632812 253.097656 L 80.65625 256.359375 L 78.476562 257.789062 L 77.824219 259.21875 L 76.089844 258.285156 L 74.636719 258.324219 L 73.84375 261.871094 L 72.414062 263.226562 L 67.5625 259.507812 L 65.464844 256.976562 L 62.714844 257.789062 L 61.917969 257.480469 L 60.117188 253.429688 L 58.65625 251.675781 L 56.628906 251.492188 L 53.207031 249.59375 L 50.871094 244.558594 L 43.355469 236.445312 L 38.230469 236.265625 L 36.84375 235.679688 L 36.382812 234.179688 L 37.257812 233.261719 L 37.175781 232.472656 L 37.914062 232.441406 L 39.074219 230.875 L 41.109375 229.84375 L 40.507812 227.71875 L 41.671875 228.34375 L 43.234375 228.117188 L 43.601562 225.820312 L 44.71875 225.59375 L 43.820312 224.546875 L 43 225.535156 L 41.433594 224.902344 L 40.828125 223.757812 L 40.851562 221.527344 L 42.253906 222.019531 L 43.972656 221.453125 L 46.140625 219.75 L 46.992188 219.96875 L 47.828125 218.523438 L 47.007812 218.066406 L 46.660156 216.769531 L 47.632812 215.902344 L 49.101562 216.386719 L 49.035156 218.117188 L 50.285156 218.175781 L 51.722656 219.148438 L 53.941406 218.359375 L 55.386719 216.160156 L 56.71875 216.105469 L 56.976562 215.472656 L 58.398438 214.917969 L 58.324219 212.980469 L 57.292969 212.023438 L 58.25 209.847656 L 54.496094 208.207031 L 55.234375 205.390625 L 57.855469 202.09375 L 56.847656 200.941406 L 55.648438 201.46875 L 53.886719 199.433594 L 53.050781 199.351562 L 53.496094 198.136719 L 52.660156 197.289062 L 53.59375 196.875 L 54.769531 193.859375 L 54.300781 192.03125 L 52.882812 190.691406 L 51.589844 191.195312 L 51.152344 190.636719 L 50.089844 186.910156 L 49.003906 186.429688 L 49.042969 185.425781 L 47.761719 185.246094 L 48.160156 182.933594 L 45.660156 182.910156 L 44.347656 181.488281 L 42.230469 181.390625 L 41.101562 180.074219 L 41.808594 177.949219 L 43.25 177.453125 L 44.386719 174.800781 L 42.925781 174.109375 L 42.871094 173.046875 L 41.238281 172.789062 L 40.898438 171.300781 L 38.367188 169.5 L 38.613281 168.738281 L 41.582031 166.699219 L 42.140625 164.703125 L 43.683594 164.582031 L 44.664062 163.03125 L 45.953125 162.253906 L 46.082031 160.289062 L 45.058594 158.261719 L 42.796875 156.78125 L 37.652344 164.386719 L 35.796875 165.554688 L 35.40625 166.917969 L 26.019531 169.558594 L 25.292969 169.363281 L 24.757812 168.300781 L 23.207031 169.175781 L 20.230469 167.382812 L 21 169.324219 L 19.660156 168.820312 L 17.105469 169.875 L 14.625 170.15625 L 14.46875 171.449219 L 12.222656 171.433594 L 11.960938 170.273438 L 12.660156 169.875 L 11.332031 167.015625 L 11.867188 166.699219 L 11.4375 166.328125 L 11.25 163.226562 L 11.785156 162.714844 L 11.824219 161.164062 L 12.9375 160.484375 L 14.210938 158.21875 L 13.617188 157.8125 L 14.46875 157.652344 L 14.007812 157.148438 L 14.054688 155.109375 L 17.269531 151.894531 L 16.351562 150.808594 L 16.488281 150.070312 L 17.570312 148.984375 L 17.675781 147.789062 L 19.757812 144.917969 L 20.066406 143.433594 L 23.703125 140.941406 L 23.871094 139.671875 L 25.023438 138.441406 L 25.371094 135.679688 L 28.878906 133.863281 Z M 32.332031 130.40625 " fill-opacity="1" fill-rule="nonzero"/><g clip-path="url(#id5)"><path stroke-linecap="butt" transform="matrix(2.881807, 0, 0, 2.880491, 0.573657, 38.475847)" fill="none" stroke-linejoin="miter" d="M 11.0203 31.914833 L 13.247365 32.519656 L 14.040324 33.289924 L 14.471369 33.170587 L 14.620473 33.539447 L 15.628955 34.464311 L 16.026112 34.239198 L 16.588639 34.44397 L 16.382605 35.329506 L 15.380901 35.850251 L 15.347013 36.109267 L 15.78348 36.459142 L 16.214525 36.419815 L 17.153877 35.684806 L 17.239273 36.205551 L 18.426679 36.659846 L 18.753351 37.293147 L 19.119332 37.416553 L 19.135598 38.239709 L 18.739796 38.378031 L 18.480898 39.141519 L 18.638135 39.87924 L 18.897033 39.919923 L 19.132887 40.827158 L 20.04513 42.482963 L 20.238964 42.268698 L 20.529038 42.39346 L 20.602235 42.095116 L 21.213559 41.559455 L 21.715089 41.784568 L 22.899784 41.548606 L 22.714083 41.068545 L 22.808967 40.691547 L 23.01229 40.683411 L 23.166815 40.970905 L 23.648013 41.00752 L 23.616837 40.778338 L 24.659206 40.119271 L 24.861173 40.16131 L 25.069918 39.876528 L 25.683954 40.356589 L 26.238348 41.201443 L 27.394578 41.758802 L 28.453213 41.728968 L 28.510143 41.130925 L 28.938477 41.172965 L 29.194664 41.985272 L 29.383076 41.750666 L 29.441362 42.012394 L 29.582333 41.737105 L 29.88054 42.14258 L 31.81753 42.44906 L 32.237731 42.819277 L 32.752816 42.649763 L 32.704018 43.429524 L 32.352947 43.750921 L 32.005943 43.779399 L 32.079139 44.064181 L 31.299734 44.126562 L 30.544728 43.717018 L 30.379359 44.367949 L 29.872407 44.97684 L 29.613509 46.335658 L 29.1296 46.71808 L 29.15671 46.989301 L 29.464406 47.166951 L 30.627413 47.567002 L 32.203844 49.313665 L 31.87175 49.81 L 31.953079 50.063592 L 31.5383 50.071728 L 31.242804 50.545009 L 30.807693 51.800763 L 30.02151 53.190771 L 29.751769 53.331806 L 29.869696 53.509456 L 29.444073 53.838989 L 29.563356 54.388212 L 29.258372 54.626886 L 29.182464 55.714483 L 28.797506 56.025031 L 28.991341 56.414233 L 29.595888 56.47797 L 29.75448 56.842763 L 29.320724 57.541157 L 29.503715 57.980535 L 29.179753 58.189375 L 28.920855 58.036135 L 28.828682 58.320918 L 29.145866 58.837594 L 29.900872 59.078981 L 29.925271 59.894 L 29.022517 60.48255 L 28.899168 60.761907 L 28.591472 60.48255 L 27.728027 60.502891 L 28.22278 61.480643 L 27.845955 61.947143 L 27.620944 61.939007 L 27.395933 61.609473 L 27.025885 61.623034 L 26.361697 62.105808 L 27.398644 62.751314 L 28.169916 63.643631 L 28.209225 64.202347 L 27.877131 65.024147 L 27.997769 65.593711 L 28.295976 65.647955 L 29.011673 65.101445 L 29.200086 65.424198 L 28.899168 65.824249 L 29.953736 66.407374 L 30.063531 67.050168 L 29.652818 67.366141 L 29.697549 68.186584 L 30.029643 68.806325 L 29.830387 69.845101 L 29.999823 70.87981 L 29.692127 71.415471 L 30.34005 72.059621 L 29.976779 72.503068 L 29.182464 72.964144 L 28.698556 73.691016 L 28.08452 73.897144 L 27.780891 74.508748 L 27.789024 75.641096 L 27.032663 76.13743 L 26.806296 76.633765 L 26.20446 76.309656 L 25.700219 76.323217 L 25.425056 77.554561 L 24.928948 78.025129 L 23.245433 76.734117 L 22.517537 75.855361 L 21.563275 76.13743 L 21.286755 76.030298 L 20.661876 74.624017 L 20.154924 74.015125 L 19.451427 73.951389 L 18.26402 73.292321 L 17.453439 71.544301 L 14.845483 68.72767 L 13.067085 68.66529 L 12.585887 68.461874 L 12.42594 67.941129 L 12.729569 67.622445 L 12.701104 67.348511 L 12.957291 67.337662 L 13.35987 66.793864 L 14.066079 66.435852 L 13.857334 65.698131 L 14.261269 65.915108 L 14.803463 65.836454 L 14.930879 65.039064 L 15.318548 64.96041 L 15.006786 64.596973 L 14.722134 64.940068 L 14.178584 64.720379 L 13.968484 64.32304 L 13.976617 63.548704 L 14.463236 63.719573 L 15.05965 63.522938 L 15.811945 62.931676 L 16.107441 63.007618 L 16.397515 62.505859 L 16.112863 62.347195 L 15.992225 61.896968 L 16.329741 61.595912 L 16.839404 61.764069 L 16.816361 62.364824 L 17.250116 62.385165 L 17.748936 62.722836 L 18.518852 62.448902 L 19.020382 61.685415 L 19.482603 61.66643 L 19.572065 61.446741 L 20.065462 61.254174 L 20.039708 60.581545 L 19.681859 60.249299 L 20.013953 59.493949 L 18.711331 58.924384 L 18.967518 57.946632 L 19.877049 56.80208 L 19.527334 56.402028 L 19.111199 56.585103 L 18.499875 55.878572 L 18.209801 55.850094 L 18.364326 55.428345 L 18.074252 55.13407 L 18.398214 54.990323 L 18.806215 53.943409 L 18.643557 53.308752 L 18.151515 52.843608 L 17.702849 53.018545 L 17.551034 52.824622 L 17.182342 51.530898 L 16.805517 51.364097 L 16.819072 51.015578 L 16.374472 50.953197 L 16.512732 50.150383 L 15.64522 50.142246 L 15.189777 49.648624 L 14.455103 49.614721 L 14.063368 49.157713 L 14.308711 48.419992 L 14.808885 48.247767 L 15.203332 47.326971 L 14.69638 47.08694 L 14.677403 46.71808 L 14.11081 46.628577 L 13.992882 46.111901 L 13.114527 45.486736 L 13.199923 45.222295 L 14.230092 44.514408 L 14.423927 43.821439 L 14.959344 43.779399 L 15.299571 43.241025 L 15.746882 42.97116 L 15.791613 42.289039 L 15.436476 41.585221 L 14.651649 41.071257 L 12.866473 43.711594 L 12.222617 44.11707 L 12.087068 44.59035 L 8.829834 45.507078 L 8.577714 45.439272 L 8.392012 45.070412 L 7.853884 45.374179 L 6.821003 44.751727 L 7.088034 45.425711 L 6.623102 45.250774 L 5.736614 45.616922 L 4.87588 45.714562 L 4.821661 46.163433 L 4.042256 46.158008 L 3.951438 45.755245 L 4.19407 45.616922 L 3.733205 44.624253 L 3.918907 44.514408 L 3.769803 44.385578 L 3.70474 43.308831 L 3.890441 43.131181 L 3.903996 42.592807 L 4.29031 42.356845 L 4.732198 41.570304 L 4.526164 41.429269 L 4.821661 41.373668 L 4.661713 41.198731 L 4.677979 40.490844 L 5.793544 39.374769 L 5.475005 38.997772 L 5.522447 38.741468 L 5.897917 38.36447 L 5.934515 37.949502 L 6.656989 36.952765 L 6.764073 36.437445 L 8.026031 35.572249 L 8.084317 35.131515 L 8.484185 34.704342 L 8.604823 33.745575 L 9.82205 33.114986 Z M 11.0203 31.914833 " stroke="rgb(100%, 100%, 100%)" stroke-width="0.5" stroke-opacity="1" stroke-miterlimit="4"/></g><path stroke-linecap="butt" transform="matrix(2.881807, 0, 0, 2.880491, 0.573657, 38.475847)" fill-opacity="1" fill="rgb(17.248535%, 44.309998%, 94.119263%)" fill-rule="nonzero" stroke-linejoin="miter" d="M 42.52994 13.052763 L 43.928802 13.024285 L 43.909825 13.591137 L 45.339864 15.501889 L 45.314109 15.954829 L 45.722111 16.38607 L 45.910524 17.510281 L 46.386299 17.854732 L 46.467628 18.451419 L 47.706543 19.444088 L 48.564566 19.792607 L 48.59032 20.221136 L 49.44021 20.511343 L 49.510696 21.238215 L 49.887521 21.596227 L 49.665221 22.077644 L 48.961724 22.746204 L 49.837368 23.044548 L 50.24808 23.695478 L 50.043402 24.480663 L 50.132864 25.492318 L 49.81568 25.67268 L 49.226044 26.62331 L 48.202651 26.876901 L 47.617081 27.256611 L 47.309386 28.00925 L 46.329369 28.302168 L 46.329369 28.600511 L 46.696706 29.003275 L 48.061681 29.128036 L 48.44935 28.772737 L 49.018654 28.637126 L 49.406323 27.811258 L 49.766883 27.693277 L 49.714019 27.972635 L 49.930897 28.254705 L 50.951578 28.020098 L 52.143051 28.391671 L 52.778774 28.245212 L 53.398231 29.031753 L 52.739465 30.198004 L 53.184064 30.827237 L 52.818083 31.56767 L 52.953631 31.737183 L 52.872302 32.950898 L 53.789967 33.635731 L 54.344361 33.805244 L 54.389092 34.134778 L 55.126476 34.427696 L 55.099367 35.301028 L 55.968234 36.213687 L 56.120048 36.681544 L 56.378946 36.757485 L 56.433165 37.386718 L 55.571076 39.133382 L 55.196962 39.386974 L 54.74694 39.237802 L 54.431112 39.496818 L 54.145104 40.744435 L 53.398231 41.350615 L 53.47956 42.255137 L 51.72285 41.70049 L 50.203349 43.76177 L 50.113887 44.511696 L 49.516118 44.793766 L 47.283631 44.60798 L 47.152149 45.562678 L 46.642486 45.588444 L 45.884769 46.296331 L 45.136541 46.647562 L 43.776988 47.800252 L 43.65906 48.20844 L 43.217172 47.535811 L 42.916254 47.999599 L 42.088052 47.747364 L 41.777645 46.8225 L 40.849137 45.498941 L 40.542797 45.256198 L 39.627843 45.134149 L 39.855565 44.60798 L 39.427231 44.255392 L 40.058888 43.643789 L 40.140217 43.151522 L 39.46383 41.648958 L 38.428238 41.319424 L 38.056835 41.52284 L 37.623079 41.102447 L 37.26523 39.972811 L 36.336722 39.125246 L 35.954475 39.2595 L 35.450234 38.969293 L 34.150322 38.997772 L 33.837205 38.618062 L 33.488845 38.651965 L 33.116086 39.037099 L 33.248924 39.947045 L 33.862959 41.068545 L 33.876514 41.73168 L 33.488845 42.305313 L 33.277389 42.263273 L 32.752816 42.649763 L 32.237731 42.819277 L 31.816175 42.44906 L 29.879184 42.14258 L 29.580977 41.737105 L 29.440007 42.012394 L 29.381721 41.750666 L 29.194664 41.985272 L 28.938477 41.172965 L 28.508788 41.130925 L 28.451857 41.730324 L 27.393222 41.758802 L 26.236992 41.201443 L 25.682598 40.356589 L 25.068563 39.876528 L 24.859818 40.16131 L 24.65785 40.119271 L 23.615481 40.778338 L 23.646657 41.00752 L 23.16546 40.970905 L 23.010934 40.683411 L 22.807611 40.691547 L 22.712727 41.068545 L 22.898429 41.549962 L 21.713734 41.784568 L 21.212204 41.559455 L 20.600879 42.095116 L 20.527683 42.39346 L 20.237609 42.268698 L 20.043774 42.482963 L 19.131532 40.827158 L 18.895677 39.919923 L 18.636779 39.87924 L 18.480898 39.141519 L 18.739796 38.378031 L 19.134243 38.239709 L 19.117977 37.416553 L 18.751996 37.293147 L 18.425323 36.659846 L 17.237917 36.205551 L 17.152521 35.684806 L 16.213169 36.419815 L 15.782125 36.459142 L 15.345658 36.109267 L 15.379545 35.850251 L 16.38125 35.329506 L 16.587284 34.44397 L 17.147099 33.889323 L 17.450728 33.934074 L 17.628297 33.41333 L 17.876351 33.483847 L 18.148804 33.120411 L 18.86179 33.359085 L 20.145436 34.484653 L 20.527683 34.2731 L 20.804202 34.351755 L 21.206782 34.030358 L 21.999741 33.977469 L 22.222041 33.3957 L 22.765591 33.311622 L 23.157327 32.74477 L 25.141759 32.503383 L 26.067556 31.573095 L 26.63415 30.631957 L 27.259029 30.200716 L 27.348491 29.789816 L 29.172976 29.66641 L 29.713815 29.863046 L 30.148926 29.640644 L 30.926975 26.840287 L 30.958152 26.152741 L 31.30109 25.786593 L 31.578965 25.594026 L 32.708085 25.638777 L 33.074066 25.43943 L 34.096103 25.606231 L 35.371616 24.982422 L 36.174064 24.043997 L 36.151021 23.675137 L 36.666105 22.568555 L 36.534623 21.658608 L 36.81792 21.480958 L 36.508869 20.830027 L 36.699993 20.103155 L 37.206945 19.671913 L 37.068685 18.558551 L 37.743717 17.308222 L 37.761339 16.803751 L 37.488886 16.670852 L 37.518706 16.028058 L 38.597674 14.982501 L 38.589541 14.320722 L 40.832871 13.898973 Z M 42.52994 13.052763 " stroke="rgb(100%, 100%, 100%)" stroke-width="0.5" stroke-opacity="1" stroke-miterlimit="4"/><path fill="rgb(17.248535%, 44.309998%, 94.119263%)" d="M 214.832031 39.269531 L 215.605469 40.371094 L 215.171875 41.433594 L 215.804688 42.328125 L 220.007812 44.453125 L 219.960938 48.675781 L 221.746094 52.269531 L 221.921875 54.558594 L 224.398438 58.890625 L 225.53125 58.625 L 226.75 59.800781 L 229.03125 58.585938 L 228.785156 60.453125 L 229.6875 61.3125 L 228.175781 64.640625 L 232.6875 65.320312 L 235.21875 67.332031 L 237.796875 64.527344 L 239.203125 64.015625 L 241.078125 64.484375 L 241.222656 68.175781 L 242.097656 69.71875 L 241.472656 72.460938 L 242.527344 74.761719 L 241.457031 77.894531 L 242.683594 78.613281 L 243.648438 80.757812 L 241.164062 82.089844 L 240.929688 83.988281 L 239.136719 85.871094 L 239.332031 87.046875 L 238.699219 88.460938 L 240.71875 90.277344 L 242.324219 89.476562 L 243.300781 90.359375 L 244.054688 89.96875 L 244.898438 90.585938 L 247.550781 90.59375 L 250.453125 95.878906 L 249.667969 98.929688 L 251.859375 98.394531 L 252.085938 99.277344 L 253.367188 99.183594 L 254.617188 101.160156 L 255.175781 100.058594 L 255.921875 101.511719 L 258.800781 101.679688 L 259.808594 101.054688 L 260.871094 101.699219 L 259.675781 106.316406 L 259.003906 112.753906 L 256.539062 113.832031 L 255.144531 113.359375 L 254.898438 114.019531 L 257.648438 115.988281 L 258.515625 118.058594 L 259.605469 118.78125 L 259.214844 119.796875 L 260.425781 123.246094 L 262.109375 123.667969 L 260.382812 125.167969 L 257.910156 125.648438 L 257.585938 126.46875 L 256.148438 124.976562 L 254.234375 126.054688 L 248.125 125.777344 L 244.53125 126.273438 L 243.21875 125.300781 L 241.441406 125.234375 L 237.417969 127.191406 L 236.273438 125.835938 L 232.671875 127.15625 L 230.382812 127.15625 L 224.25 122.554688 L 220.324219 121.257812 L 219.1875 122.042969 L 216.859375 121.730469 L 212.871094 123.515625 L 207.792969 123.515625 L 203.972656 127.921875 L 202.40625 131.320312 L 197.195312 132.148438 L 197.035156 131.6875 L 198.25 130.664062 L 198.195312 128.984375 L 197.722656 127.800781 L 196.183594 127.09375 L 193.417969 127.871094 L 191.933594 129.308594 L 190.871094 128.917969 L 189.871094 129.464844 L 183.226562 129.664062 L 181.125 128.910156 L 179.730469 129.527344 L 179.132812 131.6875 L 178.117188 132.976562 L 176.40625 133.125 L 177.039062 135.914062 L 176.460938 138.21875 L 178.691406 140.527344 L 178.335938 143.261719 L 176.453125 145.476562 L 174.3125 145.753906 L 172.496094 145.265625 L 170.652344 146.050781 L 169.808594 145.242188 L 168.421875 145.039062 L 168.472656 144.097656 L 167.253906 142.78125 L 163.207031 146.167969 L 163.046875 144.355469 L 162.304688 144.136719 L 161.867188 142.789062 L 159.363281 140.160156 L 159.441406 137.644531 L 157.316406 136.800781 L 157.1875 135.851562 L 155.589844 135.363281 L 152.945312 133.390625 L 153.179688 129.894531 L 152.789062 129.40625 L 153.84375 127.273438 L 152.5625 125.460938 L 154.460938 122.101562 L 152.675781 119.835938 L 150.84375 120.257812 L 147.40625 119.1875 L 144.46875 119.863281 L 143.84375 119.050781 L 143.996094 118.246094 L 142.957031 118.585938 L 141.839844 120.964844 L 140.199219 121.355469 L 139.082031 122.378906 L 135.148438 122.019531 L 134.085938 120.859375 L 134.085938 120 L 136.914062 119.15625 L 137.800781 116.988281 L 139.488281 115.894531 L 142.433594 115.164062 L 144.136719 112.425781 L 145.050781 111.90625 L 144.792969 108.992188 L 145.382812 106.730469 L 144.199219 104.855469 L 141.675781 103.996094 L 143.703125 102.070312 L 144.339844 100.683594 L 143.257812 99.652344 L 143.054688 97.558594 L 140.605469 96.722656 L 140.527344 95.488281 L 138.058594 94.484375 L 134.488281 91.625 L 134.253906 89.90625 L 132.882812 88.914062 L 132.339844 85.675781 L 131.164062 84.433594 L 131.238281 83.128906 L 127.117188 77.625 L 127.171875 75.992188 L 123.140625 76.074219 L 126.328125 75.101562 L 128.277344 72.398438 L 129.378906 71.796875 L 128.996094 71.132812 L 130.335938 69.3125 L 129.46875 66.035156 L 129.996094 65.605469 L 132.128906 66.683594 L 135.164062 64.589844 L 136.4375 61.269531 L 137.320312 61.140625 L 137.570312 60.320312 L 138.78125 59.664062 L 138.984375 58.738281 L 140.824219 57.40625 L 139.949219 54.40625 L 140.859375 53.234375 L 142.5625 52.359375 L 144.867188 52.109375 L 145.328125 53.601562 L 146.640625 53.828125 L 151.574219 52.382812 L 152.402344 53.285156 L 154.097656 53.113281 L 156.59375 54.617188 L 157.707031 54.617188 L 159.953125 52.457031 L 164.003906 50.839844 L 169.136719 51.570312 L 172.59375 50.988281 L 175.15625 53.113281 L 174.335938 55.371094 L 174.855469 56.132812 L 174.183594 58.910156 L 175.238281 59.257812 L 176.421875 61.78125 L 176.121094 62.976562 L 174.871094 64.121094 L 175.730469 66.246094 L 177.226562 65.824219 L 180.1875 66.195312 L 181.125 65.363281 L 181.582031 63.902344 L 183.042969 64.101562 L 183.332031 63.535156 L 184.671875 63.691406 L 186.203125 65.167969 L 187.15625 65.296875 L 188.5 64.289062 L 189.5 65.070312 L 191.488281 63.964844 L 192.703125 64.355469 L 193.296875 63.746094 L 192.5 61.164062 L 193.984375 59.316406 L 195.039062 59.589844 L 195.566406 58.8125 L 195.792969 57.738281 L 195.097656 56.5 L 196.101562 54.933594 L 195.746094 54.316406 L 196.34375 53.804688 L 196.3125 51.863281 L 198.558594 49.371094 L 202.324219 48.804688 L 203.054688 49.640625 L 206.4375 48.867188 L 206.738281 46.765625 L 207.433594 46.09375 L 207.296875 44.957031 L 209.648438 44.082031 L 210.785156 41.703125 L 213.039062 41.117188 L 213.300781 39.390625 Z M 214.832031 39.269531 " fill-opacity="1" fill-rule="nonzero"/><g clip-path="url(#id6)"><path stroke-linecap="butt" transform="matrix(2.881807, 0, 0, 2.880491, 0.573657, 38.475847)" fill="none" stroke-linejoin="miter" d="M 74.348631 0.275538 L 74.617017 0.65796 L 74.466558 1.02682 L 74.686147 1.337368 L 76.14465 2.07509 L 76.128385 3.54104 L 76.747842 4.788657 L 76.808839 5.583334 L 77.668217 7.087255 L 78.061308 6.99504 L 78.48422 7.403228 L 79.275824 6.981479 L 79.190429 7.629697 L 79.503546 7.928041 L 78.978973 9.083442 L 80.54456 9.319405 L 81.422915 10.017799 L 82.317536 9.044115 L 82.805511 8.866466 L 83.456145 9.029198 L 83.506298 10.310718 L 83.809927 10.846379 L 83.593049 11.798365 L 83.95903 12.597112 L 83.587627 13.684708 L 84.01325 13.934231 L 84.348055 14.678733 L 83.485965 15.141165 L 83.404636 15.800233 L 82.782468 16.453875 L 82.850242 16.862063 L 82.630653 17.352973 L 83.33144 17.983562 L 83.888545 17.705561 L 84.227417 18.01204 L 84.489025 17.87643 L 84.781811 18.090695 L 85.702186 18.093407 L 86.709312 19.928217 L 86.43686 20.987336 L 87.197288 20.801549 L 87.275906 21.108029 L 87.720505 21.075483 L 88.154261 21.761672 L 88.348096 21.37925 L 88.606994 21.883721 L 89.605987 21.942034 L 89.955703 21.725057 L 90.324395 21.948814 L 89.909616 23.551731 L 89.676472 25.786593 L 88.82116 26.160878 L 88.337252 25.996789 L 88.251856 26.225971 L 89.206119 26.909448 L 89.507037 27.628184 L 89.885217 27.879063 L 89.749669 28.231651 L 90.169869 29.429092 L 90.754084 29.575551 L 90.154959 30.096296 L 89.296936 30.263097 L 89.184431 30.547879 L 88.685612 30.029847 L 88.021423 30.404132 L 85.901442 30.307848 L 84.654395 30.480074 L 84.198951 30.142403 L 83.582205 30.11935 L 82.186054 30.798758 L 81.788896 30.32819 L 80.539138 30.786553 L 79.744823 30.786553 L 77.616709 29.189061 L 76.254445 28.738834 L 75.859998 29.011411 L 75.052128 28.902923 L 73.668177 29.522663 L 71.906044 29.522663 L 70.580378 31.05235 L 70.036828 32.232162 L 68.228609 32.519656 L 68.173034 32.359636 L 68.59459 32.004336 L 68.575614 31.421211 L 68.4116 31.010311 L 67.877538 30.764856 L 66.917854 31.034721 L 66.402769 31.533767 L 66.034076 31.398157 L 65.687072 31.588012 L 63.381389 31.657173 L 62.652138 31.395445 L 62.168229 31.609709 L 61.960839 32.359636 L 61.608413 32.80715 L 61.01471 32.858682 L 61.234299 33.826942 L 61.033687 34.627044 L 61.807669 35.428502 L 61.68432 36.377776 L 61.030976 37.146688 L 60.288169 37.242971 L 59.657868 37.073458 L 59.018078 37.346035 L 58.725293 37.065321 L 58.244095 36.994804 L 58.261717 36.667983 L 57.838805 36.210975 L 56.434521 37.386718 L 56.378946 36.757485 L 56.121403 36.681544 L 55.969589 36.213687 L 55.100722 35.301028 L 55.127832 34.427696 L 54.390447 34.134778 L 54.345716 33.805244 L 53.791322 33.635731 L 52.873658 32.950898 L 52.954987 31.737183 L 52.819438 31.56767 L 53.18542 30.827237 L 52.74082 30.198004 L 53.399587 29.031753 L 52.780129 28.245212 L 52.144406 28.391671 L 50.951578 28.020098 L 49.932252 28.254705 L 49.715374 27.972635 L 49.768238 27.693277 L 49.407679 27.811258 L 49.02001 28.637126 L 48.450705 28.772737 L 48.063036 29.128036 L 46.698061 29.003275 L 46.329369 28.600511 L 46.329369 28.302168 L 47.310741 28.00925 L 47.618437 27.256611 L 48.204007 26.876901 L 49.226044 26.62331 L 49.817036 25.67268 L 50.13422 25.492318 L 50.044757 24.480663 L 50.249436 23.695478 L 49.838723 23.044548 L 48.963079 22.746204 L 49.666577 22.077644 L 49.887521 21.596227 L 49.512051 21.238215 L 49.441566 20.511343 L 48.591676 20.221136 L 48.564566 19.792607 L 47.707899 19.444088 L 46.468984 18.451419 L 46.387655 17.854732 L 45.911879 17.510281 L 45.723466 16.38607 L 45.315465 15.954829 L 45.341219 15.501889 L 43.911181 13.591137 L 43.930158 13.024285 L 42.531296 13.052763 L 43.637373 12.715093 L 44.31376 11.776668 L 44.696008 11.567828 L 44.56317 11.33729 L 45.028102 10.705345 L 44.727184 9.567572 L 44.910174 9.4184 L 45.65027 9.792686 L 46.703483 9.065813 L 47.145372 7.913123 L 47.451712 7.868372 L 47.538463 7.58359 L 47.958664 7.355764 L 48.029149 7.034367 L 48.667583 6.571935 L 48.363954 5.530446 L 48.679782 5.123615 L 49.270775 4.819847 L 50.070512 4.733056 L 50.230459 5.251089 L 50.685903 5.329743 L 52.397882 4.827984 L 52.685245 5.141244 L 53.273526 5.081575 L 54.139682 5.603676 L 54.525996 5.603676 L 55.305401 4.85375 L 56.71104 4.292322 L 58.492149 4.545914 L 59.691755 4.343854 L 60.580954 5.081575 L 60.296302 5.865404 L 60.476582 6.129845 L 60.243438 7.094036 L 60.609419 7.214729 L 61.020132 8.090773 L 60.915759 8.505742 L 60.482004 8.90308 L 60.780211 9.640802 L 61.299362 9.494342 L 62.326821 9.623172 L 62.652138 9.334322 L 62.810729 8.827139 L 63.317681 8.8963 L 63.417987 8.699665 L 63.882919 8.753909 L 64.41427 9.266517 L 64.745009 9.311268 L 65.211296 8.961393 L 65.558301 9.232614 L 66.248243 8.848836 L 66.6698 8.984447 L 66.875834 8.772894 L 66.599314 7.876509 L 67.114399 7.235071 L 67.480381 7.329998 L 67.663371 7.060133 L 67.741989 6.687204 L 67.500713 6.257319 L 67.849073 5.71352 L 67.725724 5.499256 L 67.933113 5.321606 L 67.922269 4.647622 L 68.701674 3.782426 L 70.008363 3.585791 L 70.261839 3.875998 L 71.43569 3.607489 L 71.540063 2.877904 L 71.781339 2.644654 L 71.733897 2.250027 L 72.5499 1.94626 L 72.944347 1.120391 L 73.726462 0.916976 L 73.81728 0.317577 Z M 74.348631 0.275538 " stroke="rgb(100%, 100%, 100%)" stroke-width="0.5" stroke-opacity="1" stroke-miterlimit="4"/></g></svg>