<svg xmlns="http://www.w3.org/2000/svg" xmlns:xlink="http://www.w3.org/1999/xlink" width="411" zoomAndPan="magnify" viewBox="0 0 308.25 262.500001" height="350" preserveAspectRatio="xMidYMid meet" version="1.0"><defs><clipPath id="id1"><path d="M 0 0.0703125 L 307.5 0.0703125 L 307.5 261.933594 L 0 261.933594 Z M 0 0.0703125 " clip-rule="nonzero"/></clipPath><clipPath id="id2"><path d="M 173 0.0703125 L 286 0.0703125 L 286 71 L 173 71 Z M 173 0.0703125 " clip-rule="nonzero"/></clipPath><clipPath id="id3"><path d="M 8.773438 40 L 178 40 L 178 220 L 8.773438 220 Z M 8.773438 40 " clip-rule="nonzero"/></clipPath><clipPath id="id4"><path d="M 33 159 L 307.5 159 L 307.5 261.933594 L 33 261.933594 Z M 33 159 " clip-rule="nonzero"/></clipPath></defs><g clip-path="url(#id1)"><path fill="rgb(100%, 100%, 100%)" d="M 0 0.0703125 L 307.5 0.0703125 L 307.5 261.933594 L 0 261.933594 Z M 0 0.0703125 " fill-opacity="1" fill-rule="nonzero"/><path fill="rgb(100%, 100%, 100%)" d="M 0 0.0703125 L 307.5 0.0703125 L 307.5 261.933594 L 0 261.933594 Z M 0 0.0703125 " fill-opacity="1" fill-rule="nonzero"/><path fill="rgb(100%, 100%, 100%)" d="M 0 0.0703125 L 307.5 0.0703125 L 307.5 261.933594 L 0 261.933594 Z M 0 0.0703125 " fill-opacity="1" fill-rule="nonzero"/></g><path stroke-linecap="butt" transform="matrix(3.274926, 0, 0, 3.271543, 8.773864, 0.0692437)" fill-opacity="1" fill="rgb(17.248535%, 44.309998%, 94.119263%)" fill-rule="nonzero" stroke-linejoin="miter" d="M 58.260959 48.096183 L 58.146453 47.512313 L 58.362345 47.092022 L 57.940103 47.08844 L 56.353712 43.847901 L 56.533821 43.964914 L 56.592267 43.754769 L 57.034787 43.512385 L 57.832753 43.330895 L 57.838717 43.130302 L 58.439876 42.615684 L 58.353996 42.382853 L 58.516213 42.373301 L 58.611635 41.921965 L 59.045805 41.703462 L 58.956347 41.481376 L 59.642193 40.83303 L 59.578976 40.650346 L 59.76147 40.628854 L 59.587325 40.448559 L 60.009567 40.188265 L 60.1527 39.578127 L 60.850474 39.677229 L 61.121233 39.302311 L 61.618621 39.45395 L 61.740284 39.076643 L 62.421358 38.344716 L 63.330253 38.3877 L 63.597434 37.918455 L 64.855812 37.639057 L 65.096752 37.805024 L 65.201716 38.265911 L 65.984177 38.750679 L 67.097036 40.01991 L 67.829399 40.36856 L 68.042906 40.717211 L 68.429365 40.721987 L 69.112825 42.25987 L 68.918403 42.764935 L 68.275497 43.117168 L 68.412666 43.658054 L 68.217051 43.7285 L 68.219437 43.96372 L 67.632592 44.171477 L 67.459639 44.492666 L 67.355868 45.228175 L 67.562218 45.740405 L 66.83224 46.170248 L 65.876827 46.752924 L 65.015644 47.015606 L 64.340533 46.893817 L 63.952881 47.11829 L 63.519904 47.068142 L 63.085734 47.710519 L 62.593118 47.920664 L 62.893697 48.364835 L 62.236478 48.959452 L 62.401081 49.167209 L 62.032513 49.80481 L 62.046827 50.228683 L 61.04251 50.056745 L 60.888642 49.796452 L 60.116917 49.776153 L 58.676045 48.057975 Z M 58.260959 48.096183 " stroke="rgb(100%, 100%, 100%)" stroke-width="0.5" stroke-opacity="1" stroke-miterlimit="4"/><path stroke-linecap="butt" transform="matrix(3.274926, 0, 0, 3.271543, 8.773864, 0.0692437)" fill-opacity="1" fill="rgb(17.248535%, 44.309998%, 94.119263%)" fill-rule="nonzero" stroke-linejoin="miter" d="M 66.83224 46.170248 L 67.306964 46.645463 L 67.310542 46.867549 L 67.074373 47.176797 L 66.585335 47.326048 L 66.658095 47.512313 L 66.387335 47.831114 L 66.145201 47.766637 L 66.003261 48.13678 L 65.551199 47.952902 L 65.365127 48.405432 L 65.504681 49.201835 L 65.744429 49.240044 L 65.961514 49.568396 L 66.430275 49.662723 L 66.701034 49.213775 L 67.103 49.411981 L 67.088686 49.731975 L 68.378076 50.152266 L 69.142645 49.913464 L 69.84996 50.371964 L 70.158889 50.309875 L 70.633613 50.555841 L 70.89006 50.450768 L 71.290832 50.863895 L 71.605725 50.865089 L 71.773906 51.232844 L 72.205691 51.316424 L 72.947597 52.71819 L 71.200181 54.777855 L 70.641963 54.980837 L 69.527911 56.166487 L 68.89574 56.467377 L 67.138783 58.853006 L 64.329798 61.891758 L 63.700013 62.25593 L 63.383927 62.716818 L 62.210237 63.309046 L 61.852404 64.008735 L 60.926811 64.811109 L 60.007182 65.289906 L 56.211772 68.117318 L 53.380124 69.384161 L 52.495085 69.325655 L 51.311853 68.96387 L 50.088066 69.080883 L 49.355702 69.509532 L 49.006219 69.984747 L 48.90364 70.481455 L 49.358088 70.991297 L 48.721146 71.122638 L 47.819408 71.023535 L 46.83179 70.62593 L 45.853715 70.627124 L 45.327701 70.889806 L 45.272834 71.322037 L 44.810037 71.876057 L 45.004459 72.0468 L 44.810037 72.185305 L 43.810491 71.896355 L 43.632768 72.024114 L 43.080513 71.896355 L 42.442379 71.467706 L 41.225748 71.148906 L 38.551547 70.699959 L 38.48833 70.421755 L 38.799644 70.008628 L 38.056545 69.730424 L 38.037461 69.439086 L 37.122603 69.43431 L 37.364736 69.010437 L 38.037461 68.599698 L 38.609993 68.65104 L 38.63862 68.40985 L 38.26051 68.076722 L 38.21757 67.603894 L 37.720183 67.264796 L 36.899554 67.24808 L 36.736144 66.987786 L 33.88899 67.058233 L 33.770905 66.561525 L 33.961749 66.528093 L 34.869451 65.121551 L 34.876608 64.193806 L 35.214163 63.781873 L 35.679345 63.681577 L 35.524284 63.127557 L 35.848719 63.565758 L 36.136178 63.242181 L 37.108289 63.472625 L 37.144073 63.113228 L 36.505938 62.407569 L 36.742107 62.2619 L 36.293624 60.984311 L 36.907903 60.55208 L 37.25023 60.703719 L 37.472086 60.390889 L 38.592101 60.423127 L 38.633848 59.816571 L 39.147934 59.454786 L 39.786069 59.883435 L 40.598349 59.442846 L 40.574493 59.291207 L 40.827361 59.325833 L 41.063531 59.133598 L 41.065916 58.937781 L 40.906085 58.923453 L 40.888193 58.696591 L 41.092158 58.681069 L 40.978844 58.472117 L 41.291351 58.387343 L 41.523942 58.039886 L 41.247218 57.718698 L 40.962145 57.768846 L 41.322363 57.248259 L 41.220977 57.071545 L 41.244833 56.743193 L 41.805437 56.940204 L 42.061883 56.589166 L 43.070971 56.550958 L 43.150887 55.208892 L 43.367972 55.101431 L 43.3799 54.69308 L 44.552397 54.65726 L 44.737278 54.426817 L 44.922158 54.527113 L 44.942435 54.252491 L 46.823441 53.470416 L 47.684624 53.526534 L 47.682239 53.191018 L 48.112831 52.779085 L 47.993553 52.632222 L 48.446807 51.889548 L 48.182011 51.421497 L 48.554157 50.974938 L 48.176048 50.925984 L 48.097324 49.883614 L 48.832074 49.800034 L 48.991906 50.143908 L 49.614534 50.299129 L 50.24909 49.887196 L 50.376717 49.452577 L 50.649863 49.610186 L 51.237901 49.277058 L 51.63748 49.420339 L 51.761529 49.131389 L 52.411591 49.691379 L 53.238184 49.586306 L 53.455269 50.006597 L 54.274706 50.204802 L 54.247272 50.325397 L 55.152588 50.077044 L 55.403071 50.289577 L 55.827699 50.161818 L 56.019735 49.791676 L 56.345363 49.778541 L 56.199844 49.426309 L 56.773569 49.476457 L 56.872569 49.195865 L 57.761187 49.137359 L 57.696777 48.831693 L 58.052224 48.836469 L 57.899549 48.561847 L 58.276465 48.456774 L 58.022404 48.151108 L 58.260959 48.102154 L 58.674852 48.063945 L 60.11811 49.782123 L 60.889835 49.800034 L 61.041318 50.062715 L 62.045634 50.232265 L 62.033706 49.81078 L 62.402274 49.173179 L 62.237671 48.965422 L 62.89489 48.370805 L 62.59431 47.926634 L 63.086927 47.716489 L 63.521097 47.074112 L 63.954074 47.124261 L 64.341726 46.899787 L 65.015644 47.019188 L 65.87802 46.756506 Z M 66.83224 46.170248 " stroke="rgb(100%, 100%, 100%)" stroke-width="0.5" stroke-opacity="1" stroke-miterlimit="4"/><path stroke-linecap="butt" transform="matrix(3.274926, 0, 0, 3.271543, 8.773864, 0.0692437)" fill-opacity="1" fill="rgb(17.248535%, 44.309998%, 94.119263%)" fill-rule="nonzero" stroke-linejoin="miter" d="M 59.007636 27.049395 L 59.45612 26.796266 L 59.528879 26.976561 L 60.172977 27.087604 L 60.286291 26.878652 L 60.789642 26.796266 L 61.211884 26.448809 L 61.513656 27.14611 L 62.131514 27.780129 L 62.287767 27.542521 L 62.441635 27.796845 L 62.760106 27.71804 L 62.942601 27.858933 L 63.506783 27.968782 L 63.671386 28.293552 L 63.973158 28.144301 L 64.348882 28.490564 L 64.237954 28.707873 L 64.829571 28.417729 L 64.645883 28.27803 L 64.811679 28.118033 L 66.060514 28.657725 L 66.641396 28.366387 L 66.945553 28.516832 L 67.269988 29.284579 L 67.770954 29.193835 L 68.385233 29.544873 L 68.42698 29.769347 L 68.993548 29.850539 L 69.896478 31.341856 L 70.303215 31.266634 L 70.410564 31.014698 L 70.715915 31.021862 L 70.4046 31.161561 L 70.768397 31.83737 L 70.251925 32.219452 L 70.464239 33.146003 L 69.942997 34.460606 L 70.193479 34.860599 L 70.173202 35.205668 L 69.811791 35.692823 L 69.282199 35.776404 L 68.856379 36.32923 L 67.879496 36.868921 L 67.695809 37.425329 L 66.529275 37.655773 L 65.984177 38.750679 L 65.201716 38.265911 L 65.096752 37.805024 L 64.855812 37.639057 L 63.597434 37.918455 L 63.330253 38.3877 L 62.421358 38.344716 L 61.740284 39.076643 L 61.618621 39.45395 L 61.121233 39.302311 L 60.850474 39.676035 L 60.1527 39.578127 L 60.009567 40.188265 L 59.587325 40.448559 L 59.76147 40.628854 L 59.578976 40.650346 L 59.642193 40.83303 L 58.956347 41.481376 L 59.045805 41.703462 L 58.611635 41.921965 L 58.516213 42.372107 L 58.353996 42.382853 L 58.439876 42.615684 L 57.838717 43.130302 L 57.832753 43.330895 L 57.034787 43.512385 L 56.592267 43.754769 L 56.533821 43.964914 L 56.353712 43.847901 L 57.940103 47.08844 L 58.362345 47.092022 L 58.146453 47.512313 L 58.260959 48.096183 L 58.021212 48.146332 L 58.275273 48.451998 L 57.899549 48.557071 L 58.051031 48.831693 L 57.69797 48.828111 L 57.762379 49.134971 L 56.872569 49.193477 L 56.773569 49.475263 L 56.199844 49.423921 L 56.345363 49.776153 L 56.019735 49.790482 L 55.827699 50.161818 L 55.401878 50.287189 L 55.151395 50.074656 L 54.247272 50.323009 L 54.273513 50.202414 L 53.452884 50.004209 L 53.236991 49.583918 L 52.410398 49.688991 L 51.759143 49.129001 L 51.636288 49.417951 L 51.234322 49.27467 L 50.646284 49.607798 L 50.373139 49.450189 L 50.244319 49.884808 L 49.609763 50.297935 L 48.987135 50.143908 L 48.829688 49.800034 L 48.093746 49.881226 L 47.691781 49.53377 L 47.221828 49.496755 L 46.589657 48.918855 L 45.111809 47.231721 L 44.609651 46.14995 L 44.002528 45.9804 L 43.855817 45.548169 L 42.672584 44.885495 L 42.268234 44.296848 L 42.23245 44.074763 L 45.076026 38.012782 L 44.799302 37.912485 L 44.874447 37.122051 L 45.118966 36.847429 L 45.285954 36.109532 L 45.08199 35.855208 L 45.474412 35.672525 L 45.748751 34.939404 L 45.608003 34.694632 L 46.048137 34.575231 L 46.365415 33.83614 L 46.93914 33.486295 L 47.078695 33.063616 L 48.716375 32.246915 L 49.121918 32.325719 L 49.880523 31.774087 L 50.212114 32.000949 L 50.905117 32.086917 L 51.019623 32.550193 L 51.283226 32.547805 L 51.365528 31.931696 L 52.131289 31.298872 L 52.314976 30.822462 L 52.648953 30.840372 L 52.792086 30.648137 L 53.637764 30.674405 L 53.285895 30.45829 L 53.507751 29.917404 L 53.089087 29.33234 L 53.531607 29.183089 L 53.68786 28.937123 L 53.981283 28.972943 L 54.206717 28.424893 L 54.575285 28.4834 L 54.817418 28.124003 L 55.422155 27.861321 L 55.715578 28.134749 L 55.818156 27.602221 L 56.373989 27.974752 L 57.046714 27.910276 L 57.137365 28.170569 L 57.850645 27.479239 L 58.364731 27.878037 L 58.664117 27.68819 Z M 59.007636 27.049395 " stroke="rgb(100%, 100%, 100%)" stroke-width="0.5" stroke-opacity="1" stroke-miterlimit="4"/><path stroke-linecap="butt" transform="matrix(3.274926, 0, 0, 3.271543, 8.773864, 0.0692437)" fill-opacity="1" fill="rgb(17.248535%, 44.309998%, 94.119263%)" fill-rule="nonzero" stroke-linejoin="miter" d="M 64.602943 17.669265 L 65.354392 17.586878 L 65.504681 17.984483 L 64.827185 18.305671 L 64.643498 19.722959 L 64.926185 20.73309 L 65.740851 20.805925 L 66.314575 20.111012 L 66.835818 19.968925 L 66.961059 20.409514 L 66.464865 20.610108 L 66.544781 20.983832 L 66.296684 21.447108 L 66.337238 21.75158 L 66.003261 21.695461 L 65.817188 22.679324 L 64.65304 22.475149 L 64.381087 22.982602 L 63.826447 23.055437 L 64.136568 23.924675 L 64.629184 24.084672 L 64.645883 24.452427 L 65.015644 24.684065 L 65.718188 24.490635 L 65.947201 24.963463 L 65.360355 25.250025 L 65.348428 25.597481 L 64.311906 25.774194 L 63.861037 26.370005 L 63.382735 26.521644 L 63.275385 26.895368 L 63.416132 27.097156 L 62.964071 27.332375 L 63.07142 27.601027 L 62.941408 27.858933 L 62.760106 27.71804 L 62.440443 27.796845 L 62.286575 27.542521 L 62.131514 27.780129 L 61.512464 27.14611 L 61.211884 26.448809 L 60.789642 26.796266 L 60.286291 26.879846 L 60.172977 27.087604 L 59.527686 26.976561 L 59.454927 26.796266 L 59.006444 27.049395 L 59.157926 26.210007 L 58.976624 25.981952 L 59.328493 25.209428 L 58.826335 25.228532 L 58.668888 24.977791 L 57.932946 25.14137 L 57.98185 25.290621 L 57.288848 25.558079 L 57.064606 24.873912 L 57.794584 24.300788 L 57.609704 23.499608 L 57.957994 23.540204 L 57.973501 23.320507 L 58.277658 23.275135 L 58.51502 21.832772 L 59.428686 21.337259 L 59.667241 21.820832 L 59.936808 21.677551 L 59.957085 21.907995 L 61.058016 21.619045 L 61.11527 21.103233 L 61.266752 21.048309 L 61.031775 20.45608 L 61.451632 20.391604 L 61.908465 19.912807 L 61.730741 19.134313 L 62.129128 19.069837 L 62.040863 19.370727 L 62.966456 19.145059 L 62.966456 18.587457 L 64.017291 18.538503 L 64.05546 18.265075 L 64.639919 18.404774 L 64.972704 18.048959 L 64.786631 18.059705 Z M 64.602943 17.669265 " stroke="rgb(100%, 100%, 100%)" stroke-width="0.5" stroke-opacity="1" stroke-miterlimit="4"/><path fill="rgb(17.248535%, 44.309998%, 94.119263%)" d="M 238.667969 1.625 L 242.984375 2.605469 L 246.425781 4.753906 L 248.121094 4.484375 L 249.238281 5.542969 L 258.5 4.421875 L 265.925781 5.707031 L 271.0625 20.847656 L 271.035156 26.261719 L 273.3125 29.046875 L 274.554688 33.914062 L 276.503906 35.289062 L 274.8125 35.492188 L 273.511719 37.132812 L 272.582031 36.371094 L 271.605469 37.113281 L 269.167969 36.464844 L 268.40625 37.265625 L 265.878906 37.898438 L 269.71875 37.792969 L 269.71875 38.820312 L 268.789062 39.6875 L 268.964844 41.667969 L 267.460938 43.605469 L 268.40625 44.195312 L 268.042969 44.871094 L 269.585938 44.894531 L 268.816406 45.625 L 269.222656 46.230469 L 271.710938 47.277344 L 271.710938 48.28125 L 270.3125 48.445312 L 269.414062 49.597656 L 267.097656 49.597656 L 267.402344 51.726562 L 269.566406 51.957031 L 269.414062 54.722656 L 267.003906 54.457031 L 265.640625 55.289062 L 263.03125 55.296875 L 262.113281 54.332031 L 261.621094 51.699219 L 259.960938 50.886719 L 260.066406 48.183594 L 258.546875 47.097656 L 259.21875 46.171875 L 257.804688 44.933594 L 255.535156 46.289062 L 254.796875 45.941406 L 254.785156 47.097656 L 253.785156 48.097656 L 253.105469 47.195312 L 250.621094 46.371094 L 250.34375 47.164062 L 248.339844 46.632812 L 248.273438 47.820312 L 247.347656 47.105469 L 245.804688 47.15625 L 245.976562 49.140625 L 246.914062 49.933594 L 246.664062 51.183594 L 245.652344 51.316406 L 241.363281 54.839844 L 241.355469 55.476562 L 240.164062 55.585938 L 241.304688 57.390625 L 240.527344 57.65625 L 240 58.867188 L 236.953125 58.339844 L 234.351562 54.597656 L 233.203125 54.945312 L 233.765625 54.007812 L 233.203125 51.878906 L 231.425781 51.433594 L 230.441406 51.699219 L 230.210938 53.75 L 228.390625 54.523438 L 227.707031 53.023438 L 225.742188 52.460938 L 226.019531 53.867188 L 222.445312 53.789062 L 220.195312 54.953125 L 220.222656 56.382812 L 217.691406 56.976562 L 217.671875 57.589844 L 216.03125 58.101562 L 216.117188 59.199219 L 220.339844 57.875 L 220.941406 59.152344 L 221.550781 59.117188 L 220.460938 60.28125 L 218.546875 59.824219 L 218.421875 60.71875 L 214.980469 60.878906 L 213.730469 58.820312 L 212.167969 58.992188 L 212.074219 58.035156 L 211.132812 57.875 L 211.304688 56.988281 L 211.960938 56.835938 L 213.648438 57.417969 L 213.945312 56.1875 L 211.464844 54.933594 L 209.359375 54.46875 L 207.871094 54.914062 L 208.183594 53.960938 L 206.9375 53.667969 L 206.839844 54.734375 L 204.925781 55.039062 L 203.417969 54.34375 L 202.03125 56.9375 L 201.140625 55.949219 L 198.957031 56.203125 L 197.910156 54.898438 L 195.59375 54.792969 L 195.082031 53.324219 L 193.84375 52.855469 L 193.457031 49.675781 L 192.746094 49.695312 L 192.660156 50.648438 L 188.816406 52.5 L 187.824219 52.433594 L 186.644531 51.546875 L 183.0625 51.355469 L 182.429688 50.078125 L 182.507812 48.070312 L 183.746094 47.148438 L 185.183594 44.519531 L 187.066406 43.449219 L 187.332031 42.507812 L 190.449219 41.007812 L 190.535156 38.03125 L 192.933594 29.484375 L 193.335938 30.25 L 193.824219 30.066406 L 193.851562 28.988281 L 195.441406 28.082031 L 195.195312 27.300781 L 196.320312 27.5 L 196.109375 26.917969 L 198.070312 26.03125 L 198.484375 25.074219 L 199.226562 25.550781 L 199.738281 24.886719 L 199.96875 25.488281 L 200.484375 24.777344 L 201.933594 24.65625 L 203.199219 21.667969 L 204.632812 21.375 L 205.546875 21.925781 L 206.269531 20.855469 L 205.933594 20.214844 L 208.816406 18.621094 L 208.917969 16.859375 L 210.710938 15.855469 L 210.722656 14.546875 L 212.601562 13.265625 L 213.410156 11.445312 L 215.886719 9.707031 L 218.746094 9.898438 L 224.1875 8 L 224.816406 7.300781 L 225.675781 7.542969 L 227.6875 3.066406 L 229.699219 3.015625 L 230.546875 2.414062 L 232.84375 2.835938 Z M 238.667969 1.625 " fill-opacity="1" fill-rule="nonzero"/><g clip-path="url(#id2)"><path stroke-linecap="butt" transform="matrix(3.274926, 0, 0, 3.271543, 8.773864, 0.0692437)" fill="none" stroke-linejoin="miter" d="M 70.19825 0.475542 L 71.516267 0.775238 L 72.567101 1.431943 L 73.084766 1.349556 L 73.425899 1.673133 L 76.253969 1.330452 L 78.521434 1.723281 L 80.089933 6.351258 L 80.081583 8.006154 L 80.776971 8.857482 L 81.156273 10.345216 L 81.751468 10.765507 L 81.234996 10.827596 L 80.837802 11.329079 L 80.553922 11.096248 L 80.255728 11.323109 L 79.511437 11.124904 L 79.278846 11.369676 L 78.50712 11.563105 L 79.679618 11.530867 L 79.679618 11.844891 L 79.395738 12.109961 L 79.449412 12.715323 L 78.990194 13.307552 L 79.278846 13.487847 L 79.167918 13.69441 L 79.639064 13.701574 L 79.404087 13.924854 L 79.528136 14.109925 L 80.287933 14.42992 L 80.287933 14.73678 L 79.86092 14.786928 L 79.586582 15.139161 L 78.879266 15.139161 L 78.972303 15.789895 L 79.6331 15.860342 L 79.586582 16.7057 L 78.850639 16.624507 L 78.434361 16.878831 L 77.637587 16.881219 L 77.357285 16.586299 L 77.206996 15.781537 L 76.700066 15.533183 L 76.732271 14.70693 L 76.268282 14.374995 L 76.473439 14.092015 L 76.041655 13.713514 L 75.348652 14.127835 L 75.123218 14.021569 L 75.11964 14.374995 L 74.814289 14.680661 L 74.606746 14.404845 L 73.848142 14.15291 L 73.763455 14.395293 L 73.151561 14.232908 L 73.131284 14.595887 L 72.848596 14.377383 L 72.37745 14.392905 L 72.429932 14.999462 L 72.716198 15.241845 L 72.639861 15.623928 L 72.330932 15.664524 L 71.021265 16.74152 L 71.01888 16.936143 L 70.655083 16.969576 L 71.003373 17.521208 L 70.766011 17.6024 L 70.604987 17.972543 L 69.674622 17.811352 L 68.880234 16.667491 L 68.529558 16.773758 L 68.701318 16.487196 L 68.529558 15.836462 L 67.986846 15.700345 L 67.686266 15.781537 L 67.615893 16.408392 L 67.06006 16.644805 L 66.851324 16.186306 L 66.251358 16.014369 L 66.336045 16.444212 L 65.244656 16.420332 L 64.557618 16.776146 L 64.565967 17.213153 L 63.793049 17.394643 L 63.787085 17.582102 L 63.28612 17.738517 L 63.312361 18.074034 L 64.601751 17.669265 L 64.785438 18.059705 L 64.971511 18.048959 L 64.638727 18.404774 L 64.054267 18.265075 L 64.016098 18.538503 L 62.965263 18.587457 L 62.583575 17.958215 L 62.106466 18.010751 L 62.077839 17.718219 L 61.79038 17.669265 L 61.842862 17.398225 L 62.043248 17.351658 L 62.558527 17.529566 L 62.649178 17.153453 L 61.891766 16.770176 L 61.24886 16.628089 L 60.794413 16.764206 L 60.889835 16.472868 L 60.50934 16.383317 L 60.479521 16.709282 L 59.895061 16.802414 L 59.43465 16.589881 L 59.011215 17.382703 L 58.739262 17.080618 L 58.072501 17.158229 L 57.752837 16.75943 L 57.045522 16.727192 L 56.889268 16.278245 L 56.511159 16.134964 L 56.393074 15.163041 L 56.175989 15.169011 L 56.149748 15.460349 L 54.976057 16.026309 L 54.673092 16.006011 L 54.312874 15.734971 L 53.2191 15.676464 L 53.02587 15.286024 L 53.049726 14.672303 L 53.427835 14.390517 L 53.866777 13.58695 L 54.441694 13.259791 L 54.522803 12.972035 L 55.474637 12.513536 L 55.500878 11.603701 L 56.233242 8.991211 L 56.356098 9.225236 L 56.505195 9.169118 L 56.513544 8.839572 L 56.999003 8.562562 L 56.923859 8.32376 L 57.267378 8.384654 L 57.202968 8.206747 L 57.801741 7.935707 L 57.928175 7.643175 L 58.154802 7.788844 L 58.311056 7.585863 L 58.38143 7.76974 L 58.538876 7.552431 L 58.981395 7.515416 L 59.367854 6.602 L 59.805603 6.512449 L 60.084712 6.680804 L 60.305375 6.353646 L 60.202797 6.157829 L 61.083065 5.670673 L 61.114077 5.132175 L 61.661561 4.825315 L 61.665139 4.425322 L 62.238864 4.033687 L 62.485768 3.477279 L 63.241987 2.945946 L 64.115098 3.004452 L 65.776634 2.424164 L 65.968671 2.210436 L 66.231081 2.284465 L 66.84536 0.916131 L 67.459639 0.900609 L 67.718471 0.716732 L 68.419823 0.845685 Z M 70.19825 0.475542 " stroke="rgb(100%, 100%, 100%)" stroke-width="0.5" stroke-opacity="1" stroke-miterlimit="4"/></g><path stroke-linecap="butt" transform="matrix(3.274926, 0, 0, 3.271543, 8.773864, 0.0692437)" fill-opacity="1" fill="rgb(17.248535%, 44.309998%, 94.119263%)" fill-rule="nonzero" stroke-linejoin="miter" d="M 81.768167 10.859834 L 81.951854 12.117125 L 82.341892 12.766666 L 82.461169 13.62277 L 82.581639 18.325969 L 82.309687 19.560574 L 82.470711 20.43817 L 82.080674 21.55815 L 82.310879 22.259033 L 81.721649 22.530073 L 79.387388 20.913386 L 78.841097 21.054279 L 77.863022 22.071574 L 77.080562 23.886467 L 76.286173 24.969433 L 76.088173 25.826731 L 76.175245 27.346704 L 76.331499 27.41715 L 76.648777 27.137752 L 76.725115 27.536551 L 77.06267 27.875649 L 77.036429 28.455937 L 77.947709 29.504277 L 78.681265 29.800391 L 78.109926 30.537094 L 77.721082 30.331725 L 76.945778 30.451126 L 76.733464 30.14546 L 76.288559 30.355605 L 75.514448 29.967552 L 74.956229 30.212324 L 74.241757 30.180086 L 73.922094 29.912628 L 72.687572 30.624257 L 72.24863 30.480976 L 71.987413 30.630227 L 71.549664 30.486946 L 71.119073 30.629033 L 70.874554 31.097084 L 70.714722 31.023056 L 70.409372 31.014698 L 70.302022 31.266634 L 69.896478 31.341856 L 68.992355 29.850539 L 68.42698 29.769347 L 68.38404 29.544873 L 67.769761 29.193835 L 67.268795 29.284579 L 66.945553 28.516832 L 66.640203 28.366387 L 66.059322 28.657725 L 64.810486 28.118033 L 64.644691 28.27803 L 64.829571 28.417729 L 64.236761 28.707873 L 64.34769 28.490564 L 63.971965 28.144301 L 63.671386 28.293552 L 63.50559 27.968782 L 62.941408 27.860127 L 63.070228 27.601027 L 62.964071 27.332375 L 63.416132 27.097156 L 63.275385 26.895368 L 63.381542 26.521644 L 63.861037 26.370005 L 64.311906 25.774194 L 65.348428 25.597481 L 65.360355 25.250025 L 65.947201 24.963463 L 65.718188 24.490635 L 65.014451 24.684065 L 64.644691 24.452427 L 64.629184 24.084672 L 64.135376 23.924675 L 63.826447 23.055437 L 64.379894 22.982602 L 64.65304 22.475149 L 65.817188 22.679324 L 66.003261 21.695461 L 66.337238 21.75158 L 66.296684 21.447108 L 66.544781 20.983832 L 66.463672 20.610108 L 66.961059 20.409514 L 66.835818 19.968925 L 66.314575 20.111012 L 65.740851 20.805925 L 64.926185 20.73309 L 64.643498 19.722959 L 64.827185 18.305671 L 65.504681 17.984483 L 65.354392 17.586878 L 64.602943 17.669265 L 63.313554 18.074034 L 63.287313 17.738517 L 63.788278 17.582102 L 63.794242 17.394643 L 64.565967 17.213153 L 64.558811 16.776146 L 65.245849 16.420332 L 66.337238 16.444212 L 66.251358 16.014369 L 66.852517 16.186306 L 67.06006 16.644805 L 67.615893 16.408392 L 67.687459 15.781537 L 67.988039 15.700345 L 68.529558 15.836462 L 68.701318 16.487196 L 68.529558 16.773758 L 68.881427 16.667491 L 69.675815 17.811352 L 70.604987 17.972543 L 70.767204 17.6024 L 71.003373 17.521208 L 70.656276 16.969576 L 71.020072 16.936143 L 71.021265 16.74152 L 72.330932 15.664524 L 72.641053 15.623928 L 72.717391 15.241845 L 72.429932 14.999462 L 72.37745 14.392905 L 72.848596 14.377383 L 73.131284 14.595887 L 73.151561 14.232908 L 73.764647 14.395293 L 73.849334 14.15291 L 74.606746 14.404845 L 74.815482 14.680661 L 75.120832 14.374995 L 75.124411 14.021569 L 75.348652 14.127835 L 76.041655 13.713514 L 76.474632 14.092015 L 76.268282 14.374995 L 76.733464 14.70693 L 76.701259 15.533183 L 77.208188 15.781537 L 77.357285 16.586299 L 77.63878 16.881219 L 78.434361 16.878831 L 78.851832 16.624507 L 79.586582 16.7057 L 79.6331 15.860342 L 78.972303 15.789895 L 78.879266 15.139161 L 79.586582 15.139161 L 79.862113 14.786928 L 80.287933 14.73678 L 80.287933 14.42992 L 79.528136 14.109925 L 79.40528 13.924854 L 79.639064 13.701574 L 79.16911 13.69441 L 79.280038 13.487847 L 78.990194 13.307552 L 79.449412 12.715323 L 79.39693 12.109961 L 79.679618 11.844891 L 79.679618 11.530867 L 78.50712 11.563105 L 79.280038 11.369676 L 79.51263 11.124904 L 80.255728 11.323109 L 80.555115 11.096248 L 80.837802 11.329079 L 81.236189 10.827596 L 81.751468 10.765507 Z M 81.768167 10.859834 " stroke="rgb(100%, 100%, 100%)" stroke-width="0.5" stroke-opacity="1" stroke-miterlimit="4"/><path fill="rgb(17.248535%, 44.309998%, 94.119263%)" d="M 74.238281 52.289062 L 77.03125 53.464844 L 79.03125 55.441406 L 80.039062 57.769531 L 80.519531 57.78125 L 80.382812 58.878906 L 81.796875 60.328125 L 81.445312 60.769531 L 82.195312 62.085938 L 82.921875 62.378906 L 83.261719 63.476562 L 84.109375 63.417969 L 83.367188 64.613281 L 84.433594 65.976562 L 83.761719 66.816406 L 84.292969 66.855469 L 84.179688 67.839844 L 85.515625 69.664062 L 85.320312 70.464844 L 86.015625 70.066406 L 86.90625 72.964844 L 86.683594 75.828125 L 87.25 76.574219 L 83.070312 82.734375 L 83.375 89.011719 L 84.425781 91.101562 L 87.992188 88.972656 L 92.144531 90.464844 L 96.484375 89.539062 L 98.683594 90.226562 L 101.714844 90.214844 L 103.148438 88.953125 L 103.089844 86.863281 L 107.683594 85.882812 L 109.636719 83.46875 L 110.277344 81.378906 L 113.15625 79.933594 L 114.222656 78.140625 L 116.546875 77.996094 L 116.871094 76.5625 L 117.746094 75.925781 L 118.796875 75.984375 L 118.789062 84.515625 L 121.226562 84.652344 L 121.511719 85.253906 L 122.484375 85.195312 L 123 86.015625 L 123.4375 85.632812 L 124.808594 86.609375 L 124.117188 88.171875 L 124.707031 89.050781 L 124.027344 90.175781 L 125.316406 92.984375 L 124.058594 93.363281 L 123.828125 95.113281 L 124.523438 97.003906 L 125.648438 96.695312 L 127.757812 99.464844 L 129.882812 99.769531 L 131.109375 100.886719 L 131.757812 100.636719 L 132.347656 101.277344 L 132.09375 101.910156 L 134.238281 101.925781 L 136.765625 103.417969 L 137.695312 102.144531 L 139.023438 102.421875 L 139.621094 101.984375 L 138.925781 101.554688 L 139.496094 100.582031 L 141.015625 100.917969 L 141.082031 98.863281 L 142.359375 99.722656 L 141.730469 104.3125 L 142.785156 104.683594 L 142.347656 106.671875 L 142.921875 107.226562 L 148.246094 106.015625 L 148.601562 108.582031 L 147.21875 110.183594 L 149.097656 111.730469 L 148.542969 112.914062 L 149.984375 113.992188 L 151.699219 112.199219 L 151.757812 110.5 L 153.148438 108.761719 L 153.023438 105.210938 L 154.339844 104.617188 L 154.664062 106.269531 L 158.664062 106.230469 L 155.414062 110.347656 L 157.304688 114.078125 L 158.140625 113.566406 L 158.597656 114.367188 L 157.703125 116.769531 L 156.414062 117.363281 L 157.082031 118.195312 L 156.53125 120.601562 L 155.730469 121.503906 L 155.484375 124.085938 L 156.390625 124.417969 L 147.085938 144.246094 L 147.199219 144.976562 L 148.523438 146.90625 L 152.394531 149.066406 L 152.878906 150.484375 L 154.863281 151.039062 L 156.511719 154.574219 L 161.351562 160.097656 L 163.429688 161.980469 L 164.964844 162.101562 L 166.273438 163.238281 L 166.53125 166.648438 L 167.769531 166.808594 L 166.550781 168.269531 L 167.417969 169.804688 L 165.9375 172.230469 L 166.328125 172.710938 L 164.917969 174.0625 L 164.925781 175.160156 L 162.105469 174.972656 L 155.941406 177.53125 L 155.875 178.433594 L 155.273438 178.101562 L 154.664062 178.855469 L 150.824219 178.972656 L 150.785156 180.308594 L 150.078125 180.660156 L 149.8125 185.050781 L 146.511719 185.175781 L 145.667969 186.328125 L 143.835938 185.679688 L 143.757812 186.757812 L 142.3125 186.835938 L 141.585938 185.511719 L 141.882812 185.101562 L 140.460938 185.125 L 140.1875 186.398438 L 138.765625 187.417969 L 137.679688 186.328125 L 138.238281 185.453125 L 136.695312 184.785156 L 136.515625 184.117188 L 134.351562 183.925781 L 132.800781 184.9375 L 130.929688 184.574219 L 130.785156 185.136719 L 128.621094 185.796875 L 127.71875 188.324219 L 125.242188 190.503906 L 124.574219 189.5 L 124.839844 188.667969 L 123.316406 187.980469 L 121.929688 188.402344 L 121.21875 187.511719 L 119.910156 187.941406 L 119.285156 186.996094 L 116.566406 186.960938 L 117.035156 185.449219 L 116.214844 184.363281 L 111.867188 182.347656 L 109.800781 186.472656 L 109.703125 188.535156 L 108.179688 187.875 L 108.171875 191.128906 L 108.988281 191.988281 L 108.3125 193.453125 L 107.980469 192.457031 L 106.910156 192.953125 L 106.851562 194.769531 L 105.699219 195.21875 L 105.480469 196.046875 L 104.308594 196.265625 L 102.132812 194.976562 L 101.238281 195.875 L 100.238281 195.027344 L 98.925781 195.492188 L 99.09375 197.136719 L 97.589844 197.441406 L 96.84375 198.289062 L 94.738281 198.386719 L 94.417969 199.425781 L 92.996094 200.25 L 92.15625 202.507812 L 92.460938 203.367188 L 89.820312 204.226562 L 89.144531 203.847656 L 86.179688 205.058594 L 86.617188 207.378906 L 86.210938 208.726562 L 84.855469 209.765625 L 82.765625 209.9375 L 82.074219 208.875 L 80.96875 209.824219 L 79.753906 209.9375 L 78.46875 209.257812 L 78.402344 208.34375 L 77.183594 206.984375 L 75.542969 206.296875 L 75.574219 204.476562 L 74.65625 203.597656 L 73.625 198.84375 L 74.382812 199.21875 L 74.960938 197.917969 L 76.066406 196.808594 L 76.503906 197.042969 L 75.34375 194.519531 L 73.914062 196.027344 L 73.179688 196.007812 L 71.179688 198.511719 L 69.023438 198.269531 L 66.601562 200.355469 L 66.109375 199.496094 L 65.71875 199.808594 L 65.085938 202.035156 L 65.5625 203.570312 L 64.265625 204.410156 L 63.457031 202.757812 L 63.78125 200.476562 L 62.1875 196.859375 L 63.855469 195.914062 L 63.617188 192.601562 L 60.855469 191.597656 L 60.367188 190.503906 L 59.519531 190.222656 L 59.929688 188.382812 L 58.617188 189.660156 L 55.824219 188.8125 L 56.816406 185.984375 L 56.011719 183.925781 L 56.640625 182.425781 L 56.050781 181.890625 L 56.421875 181.089844 L 55.25 180.726562 L 55.558594 178.304688 L 54.820312 177.554688 L 55.46875 176.640625 L 54.488281 176.277344 L 54.222656 173.070312 L 53.382812 171.570312 L 53.589844 170.503906 L 54.773438 169.558594 L 53.027344 168.554688 L 54.5625 168.0625 L 54.289062 165.484375 L 52.734375 165.300781 L 51.359375 164.089844 L 51.609375 163.34375 L 50.925781 162.277344 L 49.226562 161.902344 L 47.625 159.628906 L 46.347656 159.972656 L 46.796875 162.597656 L 44.671875 160.078125 L 44.992188 161.285156 L 44.109375 164.144531 L 42.382812 167.117188 L 40.808594 167.8125 L 39.421875 166.589844 L 37.800781 166.675781 L 37.730469 169.183594 L 35.730469 169.421875 L 36.523438 170.925781 L 34.757812 172.539062 L 35.089844 174.359375 L 33.921875 173.882812 L 25.664062 157.769531 L 21.566406 143.585938 L 19.976562 138.8125 L 18.195312 135.671875 L 17.765625 133.316406 L 16.640625 132.371094 L 15.636719 130.125 L 14.152344 128.96875 L 13.597656 126.238281 L 11.683594 124.464844 L 11.941406 123.425781 L 13.53125 122.882812 L 15.34375 121.285156 L 16.304688 121.765625 L 17.707031 119.203125 L 16.773438 117.304688 L 17.867188 117.382812 L 17.566406 116.34375 L 18.382812 116.238281 L 18.066406 115.386719 L 19.019531 115.460938 L 18.996094 113.832031 L 22.425781 112.835938 L 24.21875 114.289062 L 24.484375 116.722656 L 26.351562 116.457031 L 27.496094 117.820312 L 27.933594 120.0625 L 26.664062 121.230469 L 27.476562 123.183594 L 28.332031 123.207031 L 28.03125 126.117188 L 30.765625 125.507812 L 32.109375 127.109375 L 33.804688 126.605469 L 36.65625 126.976562 L 39.097656 129.191406 L 41.257812 129.875 L 42.734375 129.246094 L 46.855469 129.4375 L 50.753906 128.417969 L 54.476562 128.875 L 55.527344 130.277344 L 57.269531 130.957031 L 58.328125 130.691406 L 60.386719 129.636719 L 59.5 127.921875 L 59.910156 126.660156 L 63.238281 125.964844 L 65.019531 122.402344 L 67.257812 122.171875 L 67.976562 121.546875 L 69.230469 121.9375 L 70.339844 120.675781 L 72.472656 120.484375 L 72.53125 50.226562 Z M 74.238281 52.289062 " fill-opacity="1" fill-rule="nonzero"/><g clip-path="url(#id3)"><path stroke-linecap="butt" transform="matrix(3.274926, 0, 0, 3.271543, 8.773864, 0.0692437)" fill="none" stroke-linejoin="miter" d="M 19.989584 15.961832 L 20.842418 16.321229 L 21.453119 16.925397 L 21.760855 17.637026 L 21.907566 17.640608 L 21.865819 17.976125 L 22.297604 18.419102 L 22.190254 18.554025 L 22.419267 18.956406 L 22.641123 19.045956 L 22.744894 19.381473 L 23.003726 19.363563 L 22.777099 19.728929 L 23.102727 20.145638 L 22.897569 20.40235 L 23.059787 20.41429 L 23.025196 20.71518 L 23.433125 21.272782 L 23.373487 21.517554 L 23.5858 21.395765 L 23.857753 22.281719 L 23.789765 23.156928 L 23.962717 23.384983 L 22.686448 25.267935 L 22.779485 27.186706 L 23.100341 27.825501 L 24.189345 27.174766 L 25.457264 27.630878 L 26.782437 27.347898 L 27.453969 27.558043 L 28.379563 27.554461 L 28.817311 27.168796 L 28.799419 26.530002 L 30.202123 26.230306 L 30.79851 25.492408 L 30.994125 24.853614 L 31.8732 24.411831 L 32.198828 23.863781 L 32.908529 23.819602 L 33.007529 23.381401 L 33.274711 23.186778 L 33.595567 23.204688 L 33.593182 25.812403 L 34.337473 25.854193 L 34.424546 26.03807 L 34.721547 26.02016 L 34.878993 26.270902 L 35.012584 26.153889 L 35.431248 26.452391 L 35.220127 26.929995 L 35.400236 27.198647 L 35.192693 27.542521 L 35.586309 28.401013 L 35.202235 28.516832 L 35.131861 29.051748 L 35.344175 29.629648 L 35.687694 29.535321 L 36.331793 30.381873 L 36.980662 30.475006 L 37.355194 30.816492 L 37.553194 30.740076 L 37.733303 30.935893 L 37.655773 31.129323 L 38.310606 31.134099 L 39.082332 31.59021 L 39.366212 31.200963 L 39.771756 31.285738 L 39.95425 31.152009 L 39.741936 31.020668 L 39.916081 30.72336 L 40.380071 30.826044 L 40.400348 30.197996 L 40.790385 30.460678 L 40.598349 31.863638 L 40.920398 31.977069 L 40.786807 32.584819 L 40.962145 32.754368 L 42.587897 32.384225 L 42.69644 33.168689 L 42.274197 33.658233 L 42.847922 34.13106 L 42.678548 34.492845 L 43.118682 34.822391 L 43.64231 34.274341 L 43.660202 33.754947 L 44.08483 33.223613 L 44.046661 32.13826 L 44.448626 31.95677 L 44.547626 32.461836 L 45.769028 32.449896 L 44.776639 33.708381 L 45.353942 34.848659 L 45.609196 34.692244 L 45.748751 34.937016 L 45.475605 35.671331 L 45.08199 35.85282 L 45.285954 36.107144 L 45.117773 36.842653 L 44.873254 37.118469 L 44.798109 37.907709 L 45.074833 38.0092 L 42.233643 44.069987 L 42.268234 44.293266 L 42.672584 44.883107 L 43.854624 45.543393 L 44.002528 45.976818 L 44.608458 46.146368 L 45.111809 47.226945 L 46.589657 48.915273 L 47.224213 49.490785 L 47.692974 49.5278 L 48.092553 49.875256 L 48.171276 50.917626 L 48.549386 50.96658 L 48.17724 51.413139 L 48.442036 51.882384 L 47.989975 52.623864 L 48.109252 52.770727 L 47.67866 53.183854 L 47.681046 53.51937 L 46.819863 53.462058 L 44.937664 54.244133 L 44.917387 54.519949 L 44.733699 54.418459 L 44.547626 54.648902 L 43.375129 54.684722 L 43.363201 55.093073 L 43.147309 55.200534 L 43.0662 56.5426 L 42.058305 56.580808 L 41.800666 56.93304 L 41.241254 56.734835 L 41.217399 57.064381 L 40.776072 57.088262 L 40.554216 56.683493 L 40.644867 56.558122 L 40.210697 56.565286 L 40.127203 56.954533 L 39.693033 57.266169 L 39.361441 56.93304 L 39.532008 56.665583 L 39.060862 56.461407 L 39.005994 56.257232 L 38.345197 56.198725 L 37.871665 56.507973 L 37.300326 56.396931 L 37.256193 56.568868 L 36.595396 56.770655 L 36.319865 57.543179 L 35.563646 58.209436 L 35.359681 57.902575 L 35.44079 57.648252 L 34.975608 57.438106 L 34.552173 57.567059 L 34.335088 57.294825 L 33.935508 57.426166 L 33.744664 57.137216 L 32.914493 57.12647 L 33.057626 56.664389 L 32.807143 56.332454 L 31.479585 55.716346 L 30.848607 56.977219 L 30.818787 57.607655 L 30.353605 57.405868 L 30.35122 58.400477 L 30.60051 58.663159 L 30.39416 59.110912 L 30.292774 58.80644 L 29.965953 58.958079 L 29.948062 59.513293 L 29.596193 59.650604 L 29.529398 59.903734 L 29.171565 59.970598 L 28.50719 59.576575 L 28.234044 59.851197 L 27.928694 59.592097 L 27.527921 59.734184 L 27.579211 60.236862 L 27.119992 60.329995 L 26.892172 60.589094 L 26.249267 60.618945 L 26.151459 60.936551 L 25.717289 61.188487 L 25.460843 61.878624 L 25.553879 62.141306 L 24.747563 62.403987 L 24.541213 62.288169 L 23.635897 62.658311 L 23.769488 63.367552 L 23.645439 63.779485 L 23.231546 64.097091 L 22.593412 64.149628 L 22.382291 63.824858 L 22.044735 64.115002 L 21.673782 64.149628 L 21.281359 63.94187 L 21.261082 63.662472 L 20.888936 63.246957 L 20.387971 63.036812 L 20.397513 62.480404 L 20.117211 62.211752 L 19.802318 60.758644 L 20.033717 60.873269 L 20.210247 60.475664 L 20.547803 60.136565 L 20.681394 60.208206 L 20.327139 59.436876 L 19.890584 59.897764 L 19.666342 59.891794 L 19.055641 60.657153 L 18.39723 60.583124 L 17.657709 61.220725 L 17.50742 60.958043 L 17.388142 61.053564 L 17.194913 61.734149 L 17.340431 62.203394 L 16.94443 62.460106 L 16.697525 61.95504 L 16.796526 61.257739 L 16.309874 60.152087 L 16.819188 59.863137 L 16.746429 58.850618 L 15.903137 58.543758 L 15.75404 58.209436 L 15.495208 58.123467 L 15.62045 57.561089 L 15.219677 57.95153 L 14.366843 57.69243 L 14.669808 56.827968 L 14.424096 56.198725 L 14.616133 55.740226 L 14.436024 55.576647 L 14.549338 55.331875 L 14.191505 55.220832 L 14.285735 54.480547 L 14.0603 54.251297 L 14.258301 53.971899 L 13.958914 53.860857 L 13.877806 52.880576 L 13.621359 52.422076 L 13.684576 52.096112 L 14.045987 51.807162 L 13.512816 51.500302 L 13.981577 51.349857 L 13.898083 50.561811 L 13.423358 50.505693 L 13.003502 50.13555 L 13.079839 49.907494 L 12.871104 49.58153 L 12.352247 49.466905 L 11.863209 48.771992 L 11.473171 48.877065 L 11.610341 49.679439 L 10.961471 48.909303 L 11.059279 49.278252 L 10.789711 50.152266 L 10.262505 51.060907 L 9.781817 51.27344 L 9.358382 50.899715 L 8.86338 50.925984 L 8.84191 51.692537 L 8.231209 51.765372 L 8.473343 52.225065 L 7.934208 52.71819 L 8.035594 53.274598 L 7.678954 53.128929 L 5.157428 48.203644 L 3.906208 43.868199 L 3.420748 42.409121 L 2.876843 41.449138 L 2.745638 40.729151 L 2.402118 40.440201 L 2.095575 39.753646 L 1.642321 39.400219 L 1.472947 38.565608 L 0.888487 38.023528 L 0.96721 37.705921 L 1.45267 37.539954 L 2.006117 37.051605 L 2.29954 37.198468 L 2.727746 36.415198 L 2.442673 35.83491 L 2.77665 35.85879 L 2.684806 35.541184 L 2.934096 35.508946 L 2.837481 35.248652 L 3.128518 35.271338 L 3.121362 34.773437 L 4.168618 34.468964 L 4.716102 34.913136 L 4.79721 35.657003 L 5.367357 35.57581 L 5.71684 35.992519 L 5.850431 36.67788 L 5.462779 37.034889 L 5.710876 37.631893 L 5.972094 37.639057 L 5.88025 38.528593 L 6.715192 38.342328 L 7.125507 38.831871 L 7.643171 38.677844 L 8.513897 38.791275 L 9.259381 39.468278 L 9.918986 39.677229 L 10.369855 39.484994 L 11.628232 39.543501 L 12.818621 39.231864 L 13.955336 39.371563 L 14.276192 39.800212 L 14.80817 40.00797 L 15.131412 39.926777 L 15.760004 39.604395 L 15.489244 39.080225 L 15.614486 38.69456 L 16.63073 38.482027 L 17.174635 37.393091 L 17.858095 37.322645 L 18.077566 37.131603 L 18.460447 37.251004 L 18.799195 36.865339 L 19.45045 36.806833 L 19.468342 15.331396 Z M 19.989584 15.961832 " stroke="rgb(100%, 100%, 100%)" stroke-width="0.5" stroke-opacity="1" stroke-miterlimit="4"/></g><path stroke-linecap="butt" transform="matrix(3.274926, 0, 0, 3.271543, 8.773864, 0.0692437)" fill-opacity="1" fill="rgb(17.248535%, 44.309998%, 94.119263%)" fill-rule="nonzero" stroke-linejoin="miter" d="M 82.993147 27.279839 L 83.378413 27.552073 L 83.609811 27.388494 L 84.425669 27.562819 L 87.079593 27.537745 L 87.024726 27.770577 L 86.855352 28.84399 L 85.952421 31.341856 L 85.313094 35.131639 L 84.626055 36.507137 L 84.509164 37.344137 L 82.459976 39.474248 L 81.165816 39.981702 L 78.918628 42.502254 L 77.449129 44.853256 L 77.472984 45.461007 L 76.552162 46.535614 L 75.191206 49.28661 L 72.948789 52.722966 L 72.206883 51.320006 L 71.773906 51.23762 L 71.605725 50.869865 L 71.290832 50.867477 L 70.891253 50.455544 L 70.633613 50.560617 L 70.158889 50.313457 L 69.84996 50.37674 L 69.142645 49.917046 L 68.378076 50.155848 L 67.088686 49.735557 L 67.103 49.416757 L 66.701034 49.218551 L 66.430275 49.666305 L 65.961514 49.571978 L 65.745622 49.24482 L 65.504681 49.206611 L 65.365127 48.410208 L 65.551199 47.956484 L 66.004454 48.141556 L 66.145201 47.771413 L 66.387335 47.83589 L 66.659287 47.515895 L 66.586528 47.330824 L 67.075566 47.180379 L 67.311735 46.871131 L 67.306964 46.649045 L 66.83224 46.175024 L 67.559832 45.743987 L 67.353482 45.232951 L 67.457254 44.498636 L 67.631399 44.17506 L 68.217051 43.967302 L 68.214666 43.733276 L 68.411474 43.66283 L 68.273112 43.12075 L 68.913632 42.768517 L 69.11044 42.263452 L 68.424594 40.725569 L 68.040521 40.721987 L 67.827014 40.369754 L 67.095843 40.022298 L 65.981791 38.753067 L 66.526889 37.655773 L 67.693423 37.427717 L 67.87711 36.871309 L 68.855186 36.331618 L 69.279814 35.777598 L 69.809406 35.695211 L 70.170817 35.205668 L 70.189901 34.860599 L 69.939418 34.460606 L 70.460661 33.146003 L 70.250733 32.219452 L 70.763626 31.83737 L 70.402215 31.161561 L 70.713529 31.023056 L 70.872168 31.097084 L 71.116687 30.626645 L 71.547279 30.486946 L 71.98622 30.630227 L 72.208076 30.480976 L 72.687572 30.624257 L 73.922094 29.912628 L 74.241757 30.180086 L 74.957422 30.213518 L 75.514448 29.967552 L 76.288559 30.355605 L 76.73585 30.14546 L 76.945778 30.45232 L 77.722274 30.332919 L 78.112312 30.539482 L 78.683651 29.801585 L 79.795317 30.218294 L 82.277482 30.226652 L 82.480253 27.263123 Z M 82.993147 27.279839 " stroke="rgb(100%, 100%, 100%)" stroke-width="0.5" stroke-opacity="1" stroke-miterlimit="4"/><path stroke-linecap="butt" transform="matrix(3.274926, 0, 0, 3.271543, 8.773864, 0.0692437)" fill-opacity="1" fill="rgb(17.248535%, 44.309998%, 94.119263%)" fill-rule="nonzero" stroke-linejoin="miter" d="M 53.049726 14.672303 L 53.02587 15.286024 L 53.2191 15.676464 L 54.312874 15.734971 L 54.673092 16.006011 L 54.976057 16.026309 L 56.149748 15.460349 L 56.175989 15.169011 L 56.393074 15.163041 L 56.511159 16.134964 L 56.889268 16.279439 L 57.045522 16.727192 L 57.752837 16.75943 L 58.072501 17.158229 L 58.739262 17.080618 L 59.011215 17.382703 L 59.43465 16.589881 L 59.895061 16.802414 L 60.479521 16.709282 L 60.50934 16.384511 L 60.889835 16.472868 L 60.794413 16.764206 L 61.24886 16.628089 L 61.891766 16.770176 L 62.649178 17.153453 L 62.558527 17.529566 L 62.043248 17.351658 L 61.842862 17.398225 L 61.79038 17.669265 L 62.077839 17.718219 L 62.106466 18.010751 L 62.583575 17.958215 L 62.965263 18.587457 L 62.965263 19.145059 L 62.03967 19.370727 L 62.127935 19.069837 L 61.729549 19.134313 L 61.908465 19.912807 L 61.451632 20.391604 L 61.030583 20.45608 L 61.265559 21.048309 L 61.114077 21.103233 L 61.056824 21.619045 L 59.955892 21.907995 L 59.935615 21.677551 L 59.666048 21.820832 L 59.428686 21.337259 L 58.51502 21.832772 L 58.276465 23.276329 L 57.972308 23.320507 L 57.956802 23.540204 L 57.608511 23.499608 L 57.793392 24.300788 L 57.063413 24.873912 L 57.287655 25.558079 L 57.980657 25.290621 L 57.932946 25.14137 L 58.667696 24.977791 L 58.826335 25.228532 L 59.3273 25.209428 L 58.975431 25.981952 L 59.156733 26.210007 L 59.005251 27.049395 L 58.661732 27.68819 L 58.363538 27.878037 L 57.849452 27.479239 L 57.136173 28.170569 L 57.045522 27.910276 L 56.371604 27.974752 L 55.816964 27.603415 L 55.713192 28.134749 L 55.41977 27.861321 L 54.816225 28.124003 L 54.574092 28.484594 L 54.205525 28.426087 L 53.978897 28.972943 L 53.686668 28.937123 L 53.530414 29.183089 L 53.087895 29.333534 L 53.506559 29.917404 L 53.28351 30.45829 L 53.635378 30.674405 L 52.790894 30.648137 L 52.647761 30.840372 L 52.313784 30.822462 L 52.130096 31.300066 L 51.364335 31.931696 L 51.280841 32.548999 L 51.01843 32.550193 L 50.902731 32.088111 L 50.209729 32.000949 L 49.878137 31.774087 L 49.120725 32.325719 L 48.713989 32.246915 L 47.077502 33.063616 L 46.937947 33.486295 L 46.364223 33.83614 L 46.046944 34.575231 L 45.605618 34.694632 L 45.351557 34.851047 L 44.773061 33.710769 L 45.76545 32.45109 L 44.545241 32.46303 L 44.446241 31.957964 L 44.044275 32.13826 L 44.082444 33.226001 L 43.655431 33.754947 L 43.637539 34.276729 L 43.113911 34.824779 L 42.673777 34.495233 L 42.843151 34.133448 L 42.269426 33.660621 L 42.691669 33.173465 L 42.581933 32.386614 L 40.957374 32.759144 L 40.782036 32.587207 L 40.915627 31.978263 L 40.593578 31.864832 L 40.785614 30.463066 L 40.395577 30.200384 L 40.3753 30.828432 L 39.910118 30.725748 L 39.737165 31.023056 L 39.949479 31.154397 L 39.766985 31.28932 L 39.361441 31.204545 L 39.077561 31.594986 L 38.305835 31.137681 L 37.653387 31.134099 L 37.72734 30.939475 L 37.548423 30.743658 L 37.350423 30.820074 L 36.978277 30.478588 L 36.329407 30.385455 L 35.684116 29.538903 L 35.340597 29.634424 L 35.128283 29.056524 L 35.19985 28.520414 L 35.585116 28.405789 L 35.1915 27.543715 L 35.399043 27.201035 L 35.220127 26.932383 L 35.432441 26.454779 L 35.013777 26.153889 L 34.880186 26.270902 L 34.72274 26.022548 L 34.425739 26.03807 L 34.338666 25.854193 L 33.594375 25.812403 L 33.59676 23.207076 L 33.273518 23.189166 L 33.481061 22.663802 L 33.756592 22.647086 L 33.885412 22.083514 L 33.722001 21.955755 L 34.077448 21.506808 L 33.857978 21.363527 L 34.281413 20.773687 L 34.21581 20.422648 L 34.435281 20.300859 L 34.249208 20.128922 L 34.411425 19.580872 L 35.048367 18.952824 L 35.261874 18.448952 L 35.531441 18.429848 L 35.601815 18.651934 L 36.242335 18.328357 L 37.386206 18.542085 L 37.639074 18.340297 L 38.550354 19.250132 L 38.675596 19.148641 L 39.508152 19.751615 L 39.461634 19.902061 L 39.964985 20.371306 L 40.494577 20.353396 L 40.505312 20.514587 L 40.761759 20.531303 L 40.790385 20.389216 L 41.457147 20.345038 L 42.414945 21.172486 L 42.787091 21.00413 L 43.876094 21.491286 L 44.633506 21.527106 L 45.189339 21.45666 L 45.949137 20.925326 L 46.345138 21.135471 L 47.497359 21.19159 L 48.792712 20.353396 L 49.405799 18.380894 L 50.329006 16.268693 L 50.246705 15.351694 Z M 53.049726 14.672303 " stroke="rgb(100%, 100%, 100%)" stroke-width="0.5" stroke-opacity="1" stroke-miterlimit="4"/><g clip-path="url(#id4)"><path fill="rgb(17.248535%, 44.309998%, 94.119263%)" d="M 380.109375 522.996094 L 378.746094 525.074219 L 377.707031 524.542969 L 375.316406 524.789062 L 374.503906 523.914062 L 376.378906 521.097656 L 378.355469 521.429688 Z M 381.550781 517.023438 L 380.558594 517.308594 L 379.507812 516.035156 L 380.171875 515.59375 L 381.386719 515.941406 Z M 133.796875 231.289062 L 131.167969 232.109375 L 130.445312 232.675781 L 130.320312 233.898438 L 124.085938 233.207031 L 123.351562 233.5625 L 116.898438 231.660156 L 114.457031 232.988281 L 110.953125 232.921875 L 108.996094 234.136719 L 108.785156 235.101562 L 109.652344 235.613281 L 105.691406 236.796875 L 105.355469 237.511719 L 105.964844 237.960938 L 105.441406 238.761719 L 103.671875 239.621094 L 101.648438 239.910156 L 98.921875 239.105469 L 97.339844 239.339844 L 94.945312 240.847656 L 91.925781 239.632812 L 88.078125 239.429688 L 87.191406 239.957031 L 87.082031 241.5625 L 83.910156 241.027344 L 80.753906 241.855469 L 79.410156 243.574219 L 76.660156 245.1875 L 76.496094 245.953125 L 73.949219 246.914062 L 73.542969 248.566406 L 72.359375 249.035156 L 70.378906 247.613281 L 67.210938 247.527344 L 66.324219 248.128906 L 66.222656 247.375 L 62.417969 244.300781 L 60.339844 244.835938 L 61.855469 242.964844 L 60.652344 240.492188 L 60.015625 240.207031 L 59.136719 240.828125 L 57.460938 240.398438 L 57.058594 239.363281 L 56 238.800781 L 52.382812 239.785156 L 52.121094 237.898438 L 52.859375 236.933594 L 52.210938 235.660156 L 53.074219 235.003906 L 51.363281 233.410156 L 48.671875 233.296875 L 45.699219 234.488281 L 45.472656 235.59375 L 46.386719 236.710938 L 46.089844 238.296875 L 46.738281 239.144531 L 46.328125 239.164062 L 45.339844 238.410156 L 44.535156 235.777344 L 43.632812 234.804688 L 44.394531 232.828125 L 43.429688 232.550781 L 44.992188 229.679688 L 45.710938 230.113281 L 46.539062 229.230469 L 45.679688 225.441406 L 44.300781 223.148438 L 43.441406 222.84375 L 43.070312 220.609375 L 40.664062 218.527344 L 40.894531 217.945312 L 39.828125 215.960938 L 37.628906 214.078125 L 37.3125 213.4375 L 37.804688 212.628906 L 39.714844 215.378906 L 40.292969 215.121094 L 38.675781 213.371094 L 38.671875 211.777344 L 37.695312 211.1875 L 37.109375 212.066406 L 36.320312 212.140625 L 35.722656 209.496094 L 36.128906 208.503906 L 35.464844 207.722656 L 36.5 207.179688 L 36.375 206.042969 L 37.570312 205.152344 L 39.121094 206.882812 L 40.382812 206.746094 L 43.410156 202.851562 L 43.917969 200.285156 L 43.546875 197.421875 L 44.105469 196.695312 L 42.984375 188.964844 L 40.171875 182.652344 L 33.925781 173.910156 L 35.089844 174.386719 L 34.757812 172.566406 L 36.527344 170.953125 L 35.730469 169.445312 L 37.730469 169.207031 L 37.804688 166.703125 L 39.425781 166.617188 L 40.808594 167.839844 L 42.382812 167.152344 L 44.109375 164.175781 L 44.992188 161.320312 L 44.671875 160.109375 L 46.796875 162.628906 L 46.347656 160.003906 L 47.625 159.660156 L 49.226562 161.933594 L 50.929688 162.3125 L 51.609375 163.375 L 51.359375 164.125 L 52.734375 165.332031 L 54.289062 165.519531 L 54.5625 168.097656 L 53.027344 168.585938 L 54.773438 169.589844 L 53.589844 170.539062 L 53.382812 171.570312 L 54.25 173.109375 L 54.515625 176.316406 L 55.496094 176.679688 L 54.847656 177.59375 L 55.585938 178.347656 L 55.277344 180.765625 L 56.449219 181.128906 L 56.078125 181.929688 L 56.667969 182.464844 L 56.039062 183.964844 L 56.84375 186.023438 L 55.851562 188.851562 L 58.644531 189.699219 L 59.957031 188.421875 L 59.546875 190.261719 L 60.394531 190.546875 L 60.882812 191.636719 L 63.644531 192.640625 L 63.882812 195.953125 L 62.214844 196.898438 L 63.808594 200.515625 L 63.484375 202.796875 L 64.292969 204.449219 L 65.589844 203.609375 L 65.113281 202.078125 L 65.746094 199.847656 L 66.136719 199.539062 L 66.628906 200.398438 L 69.050781 198.308594 L 71.207031 198.550781 L 73.207031 196.046875 L 73.941406 196.066406 L 75.371094 194.558594 L 76.53125 197.085938 L 76.09375 196.847656 L 74.988281 197.957031 L 74.410156 199.257812 L 73.652344 198.882812 L 74.683594 203.636719 L 75.601562 204.515625 L 75.570312 206.335938 L 77.210938 207.023438 L 78.429688 208.382812 L 78.496094 209.296875 L 79.78125 209.976562 L 80.996094 209.867188 L 82.101562 208.914062 L 82.792969 209.976562 L 84.882812 209.804688 L 86.238281 208.769531 L 86.644531 207.417969 L 86.207031 205.097656 L 89.171875 203.886719 L 89.847656 204.265625 L 92.488281 203.40625 L 92.183594 202.546875 L 93.023438 200.292969 L 94.445312 199.464844 L 94.765625 198.425781 L 96.871094 198.328125 L 97.617188 197.480469 L 99.121094 197.175781 L 98.953125 195.53125 L 100.265625 195.066406 L 101.265625 195.914062 L 102.15625 195.015625 L 104.335938 196.304688 L 105.507812 196.085938 L 105.726562 195.257812 L 106.878906 194.808594 L 106.9375 192.992188 L 108.007812 192.496094 L 108.339844 193.492188 L 109.015625 192.027344 L 108.199219 191.167969 L 108.207031 187.914062 L 109.730469 188.574219 L 109.828125 186.511719 L 111.894531 182.386719 L 116.242188 184.402344 L 117.0625 185.488281 L 116.59375 187 L 119.3125 187.035156 L 119.9375 187.980469 L 121.246094 187.550781 L 121.953125 188.441406 L 123.34375 188.019531 L 124.867188 188.707031 L 124.601562 189.539062 L 125.269531 190.546875 L 127.746094 188.363281 L 128.648438 185.835938 L 130.8125 185.175781 L 130.957031 184.613281 L 132.828125 184.976562 L 134.378906 183.964844 L 136.542969 184.15625 L 136.722656 184.824219 L 138.265625 185.492188 L 137.707031 186.367188 L 138.792969 187.457031 L 140.214844 186.4375 L 140.488281 185.164062 L 141.910156 185.144531 L 141.613281 185.554688 L 142.339844 186.875 L 143.785156 186.796875 L 144.113281 187.371094 L 142.9375 189.078125 L 143.871094 188.910156 L 144.777344 189.964844 L 144.015625 191.101562 L 142.988281 191.378906 L 143.359375 192.058594 L 142.691406 192.113281 L 142.75 192.851562 L 143.273438 192.898438 L 143.269531 193.539062 L 142.492188 194.167969 L 141.667969 194.054688 L 141.746094 194.550781 L 139.085938 195.992188 L 136.992188 194.589844 L 135.3125 195.773438 L 135.171875 197.757812 L 131.507812 197.652344 L 130.777344 198.679688 L 129.660156 198.183594 L 127.648438 199.597656 L 129.117188 203.777344 L 128.34375 204.25 L 130.433594 206.558594 L 130.316406 207.734375 L 127.132812 206.984375 L 126.191406 208.039062 L 125.125 206.605469 L 125.636719 208.417969 L 124.113281 208.746094 L 123.007812 210.097656 L 122.980469 213.132812 L 120.007812 217.734375 L 119.386719 217.839844 L 119.769531 219.464844 L 129.097656 219.234375 L 129.632812 220.085938 L 132.320312 220.140625 L 133.949219 221.25 L 134.085938 222.796875 L 135.324219 223.890625 L 135.234375 224.675781 L 133.359375 224.511719 L 131.15625 225.851562 L 130.359375 227.242188 L 133.359375 227.253906 L 133.417969 228.207031 L 135.855469 229.121094 L 134.835938 230.46875 L 135.039062 231.382812 Z M 133.796875 231.289062 " fill-opacity="1" fill-rule="nonzero"/></g></svg>