<svg xmlns="http://www.w3.org/2000/svg" xmlns:xlink="http://www.w3.org/1999/xlink" width="411" zoomAndPan="magnify" viewBox="0 0 308.25 262.500001" height="350" preserveAspectRatio="xMidYMid meet" version="1.0"><defs><clipPath id="id1"><path d="M 0 0.0703125 L 307.5 0.0703125 L 307.5 261.933594 L 0 261.933594 Z M 0 0.0703125 " clip-rule="nonzero"/></clipPath><clipPath id="id2"><path d="M 96 0.0703125 L 216 0.0703125 L 216 261 L 96 261 Z M 96 0.0703125 " clip-rule="nonzero"/></clipPath></defs><g clip-path="url(#id1)"><path fill="rgb(100%, 100%, 100%)" d="M 0 0.0703125 L 307.5 0.0703125 L 307.5 261.933594 L 0 261.933594 Z M 0 0.0703125 " fill-opacity="1" fill-rule="nonzero"/><path fill="rgb(100%, 100%, 100%)" d="M 0 0.0703125 L 307.5 0.0703125 L 307.5 261.933594 L 0 261.933594 Z M 0 0.0703125 " fill-opacity="1" fill-rule="nonzero"/><path fill="rgb(100%, 100%, 100%)" d="M 0 0.0703125 L 307.5 0.0703125 L 307.5 261.933594 L 0 261.933594 Z M 0 0.0703125 " fill-opacity="1" fill-rule="nonzero"/></g><path fill="rgb(17.248535%, 44.309998%, 94.119263%)" d="M 213.945312 192.621094 C 213.328125 200.714844 210.351562 209.324219 209.171875 213.085938 C 207.992188 216.792969 201.027344 224.316406 197.265625 228.25 C 193.503906 232.1875 155.710938 263.828125 151.328125 259.894531 C 146.949219 255.902344 137.402344 261.660156 131.84375 252.195312 C 126.28125 242.734375 119.714844 223.40625 119.488281 218.160156 C 119.261719 212.914062 113.929688 193.761719 113.929688 188.285156 C 113.929688 182.8125 109.546875 151.402344 105.5625 142.109375 C 101.574219 132.871094 107.132812 126.085938 107.132812 118.164062 C 107.132812 110.238281 103.144531 114.230469 105.167969 103.226562 C 107.132812 92.222656 112.691406 85.4375 113.703125 79.28125 C 114.714844 73.125 113.085938 69.417969 111.90625 66.738281 C 110.726562 64.117188 102.753906 56.019531 98.597656 52.484375 C 94.441406 49.007812 99.777344 47.640625 103.539062 52.316406 C 107.300781 56.875 114.265625 61.09375 116.230469 53.398438 C 118.195312 45.703125 118.589844 39.773438 116.625 36.523438 C 114.660156 33.214844 114.996094 30.367188 118.8125 26.945312 C 122.578125 23.523438 125.046875 25.292969 126.84375 24.550781 C 128.640625 23.753906 127.351562 18.734375 124.542969 16.738281 C 121.789062 14.746094 121.171875 18.050781 114.097656 13.660156 C 107.019531 9.269531 105.054688 2.542969 113.199219 1.234375 C 121.339844 -0.078125 119.882812 5.964844 123.136719 10.125 C 126.394531 14.289062 130.101562 14.972656 134.371094 18.5625 C 138.636719 22.210938 153.855469 40.628906 156.832031 48.667969 C 159.808594 56.703125 157.730469 61.324219 162.335938 64.574219 C 166.886719 67.878906 170.589844 70.214844 174.074219 76.773438 C 177.554688 83.386719 175.253906 84.46875 174.355469 89.085938 C 173.457031 93.703125 178.058594 95.871094 181.316406 95.246094 C 184.628906 94.558594 187.605469 95.757812 187.777344 100.035156 C 187.945312 104.308594 184.910156 108.300781 189.402344 116.625 C 193.839844 125.003906 197.773438 130.589844 202.542969 140.054688 C 213.160156 160.808594 216.078125 163.941406 213.945312 192.621094 Z M 213.945312 192.621094 " fill-opacity="1" fill-rule="evenodd"/><g clip-path="url(#id2)"><path stroke-linecap="butt" transform="matrix(2.66539, 0, 0, 2.671966, 89.621224, 0.0742997)" fill="none" stroke-linejoin="round" d="M 46.643868 72.061855 C 46.412312 75.090992 45.295566 78.313105 44.852972 79.720952 C 44.410377 81.108332 41.797309 83.924026 40.385989 85.396198 C 38.974669 86.869833 24.795516 98.711537 23.151174 97.239364 C 21.508297 95.745263 17.926504 97.900161 15.841033 94.357883 C 13.754096 90.817067 11.290514 83.583394 11.205512 81.620011 C 11.120511 79.656627 9.120041 72.488741 9.120041 70.439103 C 9.120041 68.390927 7.475699 56.635477 5.980842 53.157525 C 4.48452 49.70004 6.569992 47.160652 6.569992 44.19584 C 6.569992 41.229567 5.07367 42.723668 5.832822 38.605387 C 6.569992 34.487105 8.655463 31.947717 9.035039 29.643702 C 9.414616 27.339686 8.803483 25.952307 8.360888 24.949417 C 7.918294 23.968456 4.927115 20.937857 3.367775 19.614802 C 1.808434 18.313677 3.81037 17.801998 5.22169 19.551939 C 6.63301 21.258021 9.246078 22.836915 9.983247 19.956896 C 10.720417 17.076876 10.868437 14.857653 10.131267 13.64132 C 9.394098 12.403058 9.520135 11.337305 10.951973 10.056646 C 12.364759 8.775988 13.290983 9.438246 13.965134 9.160478 C 14.639285 8.862242 14.155655 6.983651 13.101928 6.2366 C 12.068719 5.491012 11.837162 6.727812 9.183059 5.084593 C 6.527491 3.441374 5.790322 0.923915 8.845984 0.434166 C 11.900181 -0.0570459 11.353532 2.204573 12.574332 3.761538 C 13.796597 5.319965 15.187399 5.575804 16.789241 6.919326 C 18.389616 8.284777 24.099382 15.177818 25.216127 18.186488 C 26.332873 21.193696 25.553203 22.923169 27.281081 24.139502 C 28.988441 25.376303 30.377779 26.250542 31.685045 28.705137 C 32.990846 31.1802 32.12764 31.585157 31.790565 33.313168 C 31.453489 35.04118 33.179902 35.852556 34.402167 35.618646 C 35.644949 35.361344 36.761695 35.81016 36.826179 37.410983 C 36.889197 39.010344 35.750469 40.504445 37.435846 43.619836 C 39.100706 46.755695 40.57651 48.846268 42.365941 52.388545 C 46.349294 60.155826 47.444056 61.328301 46.643868 72.061855 Z M 46.643868 72.061855 " stroke="rgb(100%, 100%, 100%)" stroke-width="0.5" stroke-opacity="1" stroke-miterlimit="10"/></g><path stroke-linecap="butt" transform="matrix(2.66539, 0, 0, 2.671966, 89.621224, 0.0742997)" fill-opacity="1" fill="rgb(17.248535%, 44.309998%, 94.119263%)" fill-rule="evenodd" stroke-linejoin="round" d="M 3.156736 8.455823 C 2.630605 7.112302 1.113766 5.831643 0.987729 7.666377 C 0.88221 9.523039 0.545134 12.616501 2.251029 11.293447 C 3.978907 9.970392 3.156736 8.455823 3.156736 8.455823 Z M 3.156736 8.455823 " stroke="rgb(100%, 100%, 100%)" stroke-width="0.5" stroke-opacity="1" stroke-miterlimit="10"/></svg>