<svg width="114" height="24" viewBox="0 0 114 24" fill="none" xmlns="http://www.w3.org/2000/svg">
<g clip-path="url(#clip0_769_15451)">
<path d="M18.8906 15.7968C18.8906 18.5795 17.287 20.2774 14.7402 20.7962C14.0327 20.9376 12.8536 20.9376 12.0518 20.9376L5.87335 20.8905V23.2487L0.402344 18.7681L5.87335 14.2875V16.6457L12.8064 16.6929C13.4667 16.6929 13.7497 16.3156 13.7497 15.9383C13.7497 15.2308 13.0894 14.995 11.1085 14.0517C7.94856 12.5425 5.49604 11.4577 5.49604 8.01475C5.49604 5.32641 7.42976 3.48702 10.2596 3.10971C10.8256 3.01538 11.9103 3.01538 12.5706 3.01538C13.9855 3.01538 17.9473 3.10971 17.9473 3.10971V7.40162L11.4387 7.30729C10.8727 7.30729 10.5897 7.6846 10.5897 8.06191C10.5897 8.62788 11.0614 8.8637 12.9008 9.71265C16.7682 11.5049 18.8906 12.4953 18.8906 15.7968ZM29.1251 15.4666C29.1251 16.2684 28.4177 16.9287 27.1443 16.9287C25.7765 16.9287 25.1634 16.2684 25.1634 15.4666V3.06254H19.8339V15.8911C19.8339 18.7209 22.192 21.4093 27.0971 21.4093C31.7663 21.4093 34.3603 18.7681 34.3603 15.8911V3.06254H29.1251V15.4666ZM50.7262 15.561C50.7262 19.0983 48.3208 21.032 44.8307 21.032H36.0111V3.06254H44.5006C48.3208 3.06254 50.2545 5.18492 50.2545 7.96759C50.2545 9.3825 49.5943 10.6088 48.2737 11.5049C49.8301 12.3538 50.7262 13.6744 50.7262 15.561ZM41.2463 10.1843H43.6988C44.6421 10.1843 45.0665 9.52399 45.0665 8.58072C45.0665 7.59028 44.6421 6.97715 43.6988 6.97715H41.2463V10.1843ZM45.3967 15.3251C45.3967 14.2404 44.8779 13.6272 43.9346 13.6272H41.2463V17.023H43.9346C44.925 17.023 45.3967 16.3628 45.3967 15.3251Z" fill="white"/>
<path d="M68.3662 3.06254H73.6013V15.7025C73.6013 18.6266 71.5261 21.2678 67.1399 21.2678C65.2533 21.2678 63.7913 20.7018 62.7536 19.8529C61.716 20.7018 60.3011 21.2678 58.5561 21.2678C53.8868 21.2678 51.9531 18.6266 51.9531 15.7025V3.06254H57.1883V15.6081C57.1883 16.1269 57.4713 16.7872 58.6504 16.7872C59.8295 16.7872 60.1596 16.1741 60.1596 15.6081V3.06254H65.3948V15.6081C65.3948 16.1269 65.6778 16.7872 66.8569 16.7872C68.036 16.7872 68.3662 16.1741 68.3662 15.6081V3.06254ZM96.1457 10.1371V3.06254H90.9576V10.6088C90.9576 13.1084 92.6555 14.995 95.5325 15.7968V20.9848H100.862V15.7968C103.786 14.995 105.39 13.1084 105.39 10.6088V7.82609C105.39 7.54311 105.531 7.40161 105.814 7.40161H108.125V9.66548L113.596 5.18491L108.125 0.704346V2.96821H104.494C101.428 2.96821 100.155 4.76044 100.155 7.30729V10.1371C100.155 10.7974 99.683 11.5992 98.1265 11.5992C96.6173 11.5992 96.1457 10.7974 96.1457 10.1371ZM89.6371 8.2034V21.032H84.4019V15.7968H80.4401V20.9848H75.2049V8.2034C75.2049 4.99626 77.8461 2.54374 82.421 2.54374C86.9487 2.54374 89.6371 4.94909 89.6371 8.2034ZM84.4019 11.6935V8.48638C84.4019 7.63743 83.7887 7.0243 82.421 7.0243C81.0061 7.0243 80.4401 7.63743 80.4401 8.48638V11.6935H84.4019Z" fill="white"/>
</g>
<defs>
<clipPath id="clip0_769_15451">
<rect width="113.193" height="22.5915" fill="white" transform="translate(0.402344 0.704346)"/>
</clipPath>
</defs>
</svg>
