<svg xmlns="http://www.w3.org/2000/svg" xmlns:xlink="http://www.w3.org/1999/xlink" width="624" zoomAndPan="magnify" viewBox="0 0 468 308.250004" height="411" preserveAspectRatio="xMidYMid meet" version="1.0"><defs><clipPath id="id1"><path d="M 0.566406 0 L 467.429688 0 L 467.429688 307.5 L 0.566406 307.5 Z M 0.566406 0 " clip-rule="nonzero"/></clipPath><clipPath id="id2"><path d="M 125 40.660156 L 228 40.660156 L 228 138 L 125 138 Z M 125 40.660156 " clip-rule="nonzero"/></clipPath><clipPath id="id3"><path d="M 162 184 L 304 184 L 304 266.609375 L 162 266.609375 Z M 162 184 " clip-rule="nonzero"/></clipPath><clipPath id="id4"><path d="M 343 76 L 467.429688 76 L 467.429688 181 L 343 181 Z M 343 76 " clip-rule="nonzero"/></clipPath><clipPath id="id5"><path d="M 0.566406 82 L 71 82 L 71 174 L 0.566406 174 Z M 0.566406 82 " clip-rule="nonzero"/></clipPath></defs><g clip-path="url(#id1)"><path fill="rgb(100%, 100%, 100%)" d="M 0.566406 0 L 467.433594 0 L 467.433594 314.984375 L 0.566406 314.984375 Z M 0.566406 0 " fill-opacity="1" fill-rule="nonzero"/><path fill="rgb(100%, 100%, 100%)" d="M 0.566406 0 L 467.433594 0 L 467.433594 307.5 L 0.566406 307.5 Z M 0.566406 0 " fill-opacity="1" fill-rule="nonzero"/><path fill="rgb(100%, 100%, 100%)" d="M 0.566406 0 L 467.433594 0 L 467.433594 307.5 L 0.566406 307.5 Z M 0.566406 0 " fill-opacity="1" fill-rule="nonzero"/><path fill="rgb(100%, 100%, 100%)" d="M 0.566406 0 L 467.433594 0 L 467.433594 307.5 L 0.566406 307.5 Z M 0.566406 0 " fill-opacity="1" fill-rule="nonzero"/></g><path stroke-linecap="butt" transform="matrix(2.899646, 0, 0, 2.896798, 0.578524, 40.659618)" fill-opacity="1" fill="rgb(17.248535%, 44.309998%, 94.119263%)" fill-rule="nonzero" stroke-linejoin="miter" d="M 98.876436 37.582091 L 98.558509 37.711544 L 98.262136 37.606363 L 98.061411 36.909203 L 98.286385 36.731205 L 98.604312 36.719069 L 98.817161 36.884931 L 98.994985 37.110125 L 99.017886 37.321835 Z M 103.836632 33.021559 L 103.820466 34.539938 L 103.572591 35.373294 L 103.192696 35.872228 L 102.63363 35.632201 L 102.322438 34.562863 L 102.296843 33.725462 L 102.528552 33.157755 L 102.792593 32.857046 L 103.111867 32.732986 L 103.555078 32.804455 Z M 95.644629 31.082457 L 95.941002 31.094593 L 96.84359 30.761521 L 97.079341 31.220001 L 97.999443 32.465989 L 98.210945 32.618366 L 98.977472 32.840864 L 99.194362 33.025605 L 99.217264 33.252148 L 98.88856 34.955268 L 98.722861 35.338234 L 98.167836 35.443414 L 97.624936 35.338234 L 97.352812 35.065842 L 97.0753 34.596574 L 96.710223 34.392955 L 96.004317 34.34441 L 94.680072 34.52106 L 94.094063 34.343062 L 93.933752 34.214957 L 93.862353 33.962793 L 93.861006 33.384298 L 93.710126 32.906939 L 93.518831 32.630503 L 93.478416 31.660952 L 93.151059 30.476993 L 95.229708 30.916595 Z M 95.644629 31.082457 " stroke="rgb(100%, 100%, 100%)" stroke-width="0.5" stroke-opacity="1" stroke-miterlimit="4"/><path stroke-linecap="butt" transform="matrix(2.899646, 0, 0, 2.896798, 0.578524, 40.659618)" fill-opacity="1" fill="rgb(17.248535%, 44.309998%, 94.119263%)" fill-rule="nonzero" stroke-linejoin="miter" d="M 84.018748 24.106813 L 84.26797 24.705535 L 84.235638 24.928033 L 83.780303 25.367634 L 83.315537 25.666995 L 82.636574 25.312347 L 81.43896 25.004896 L 81.441655 24.597657 L 81.948182 23.988148 L 82.845382 24.294251 L 83.137713 23.997587 L 83.312842 23.923421 L 83.642893 23.935557 Z M 84.018748 24.106813 " stroke="rgb(100%, 100%, 100%)" stroke-width="0.5" stroke-opacity="1" stroke-miterlimit="4"/><path stroke-linecap="butt" transform="matrix(2.899646, 0, 0, 2.896798, 0.578524, 40.659618)" fill-opacity="1" fill="rgb(17.248535%, 44.309998%, 94.119263%)" fill-rule="nonzero" stroke-linejoin="miter" d="M 92.073342 18.905758 L 91.403809 19.675736 L 91.403809 19.923854 L 91.578938 20.212427 L 91.975 20.343229 L 92.785982 20.812497 L 93.196862 20.92442 L 93.416447 20.878572 L 93.607742 20.716756 L 93.897379 20.300078 L 94.971055 20.761255 L 95.252609 21.03904 L 95.373852 21.622929 L 95.259345 22.903977 L 95.349604 23.908588 L 94.367533 24.244357 L 93.551162 23.905891 L 93.315411 23.734635 L 93.152407 23.497304 L 92.469403 23.642939 L 91.700182 24.175585 L 90.552412 24.283463 L 90.32205 24.176934 L 90.269511 23.520228 L 90.571272 22.155575 L 90.552412 21.393688 L 90.719458 20.821936 L 90.576661 20.314911 L 90.582049 19.695963 L 91.386296 18.805971 L 91.864534 18.026555 L 92.166295 17.849905 L 92.41417 18.062963 L 92.377797 18.470202 Z M 92.073342 18.905758 " stroke="rgb(100%, 100%, 100%)" stroke-width="0.5" stroke-opacity="1" stroke-miterlimit="4"/><path stroke-linecap="butt" transform="matrix(2.899646, 0, 0, 2.896798, 0.578524, 40.659618)" fill-opacity="1" fill="rgb(17.248535%, 44.309998%, 94.119263%)" fill-rule="nonzero" stroke-linejoin="miter" d="M 103.191349 35.872228 L 103.572591 35.373294 L 103.820466 34.539938 L 103.833938 33.021559 L 104.631449 32.704669 L 105.411447 31.998069 L 105.70782 31.824117 L 105.846576 31.575998 L 106.029788 30.921989 L 106.377352 30.425752 L 106.482429 29.996938 L 106.377352 29.373944 L 105.567716 26.288641 L 104.988443 25.103334 L 103.910725 23.967921 L 103.982124 23.193898 L 104.172072 22.359194 L 104.864505 22.343012 L 105.226888 22.240529 L 105.687613 22.310649 L 106.117353 22.179847 L 106.50129 22.357846 L 107.376935 22.167711 L 108.159628 22.407739 L 108.698487 22.721933 L 108.83859 23.080626 L 108.971958 23.193898 L 110.049676 23.184459 L 110.48211 23.45685 L 110.699001 23.315261 L 111.508636 23.427184 L 112.364075 23.657772 L 112.885421 23.454153 L 113.246456 22.947128 L 113.66003 23.366502 L 113.94832 23.42179 L 114.224485 23.679348 L 114.526246 23.771044 L 115.070494 23.807453 L 116.008108 23.510789 L 116.891837 22.739463 L 117.822716 22.375376 L 118.119088 22.073318 L 118.726652 22.299861 L 119.685821 21.837336 L 120.301467 21.938471 L 121.031621 21.852169 L 121.811619 22.338967 L 122.031204 22.596525 L 122.187473 23.9423 L 122.654933 24.922639 L 122.621255 25.215257 L 122.397628 25.707449 L 122.381462 25.981189 L 122.661669 26.79162 L 123.805397 28.939736 L 123.891615 29.511488 L 123.744775 30.556553 L 123.905086 31.745905 L 124.227054 32.905591 L 124.652753 33.908854 L 123.84177 33.943914 L 123.235554 34.1327 L 121.780635 35.009207 L 121.578563 35.384082 L 121.458666 36.137877 L 121.445195 36.87684 L 121.539495 37.417577 L 120.173488 36.953703 L 119.599603 37.325881 L 118.969138 37.8828 L 118.555564 38.726943 L 118.385823 39.763918 L 118.229554 40.092945 L 118.119088 40.705151 L 118.187793 41.231055 L 117.724374 41.678747 L 117.428002 42.273423 L 117.394323 42.950356 L 117.534426 43.803939 L 117.372769 44.51728 L 117.061578 45.264333 L 116.817744 45.592012 L 116.114533 46.281081 L 116.02158 46.492791 L 115.575674 46.469867 L 114.069563 46.1759 L 113.828424 45.361423 L 113.199306 44.251631 L 112.563453 43.557168 L 111.969361 42.667177 L 111.395476 42.443331 L 111.193404 42.637511 L 111.314647 43.566608 L 111.279621 43.776969 L 110.837757 44.760005 L 110.214028 45.39109 L 109.385532 45.907554 L 108.980041 45.760571 L 108.003359 45.718768 L 107.677349 45.604148 L 107.130407 44.987897 L 106.808439 44.150496 L 106.085021 43.597623 L 106.182016 43.064976 L 106.122741 42.098122 L 106.308647 41.101602 L 106.22243 40.945179 L 105.881602 40.721333 L 105.697043 40.284428 L 105.396629 39.863705 L 104.946681 39.534677 L 104.6072 39.093727 L 104.286579 38.136312 L 104.006373 37.668393 L 103.839326 37.15058 L 103.371866 36.359027 Z M 103.191349 35.872228 " stroke="rgb(100%, 100%, 100%)" stroke-width="0.5" stroke-opacity="1" stroke-miterlimit="4"/><path fill="rgb(17.248535%, 44.309998%, 94.119263%)" d="M 164.476562 42.148438 L 165.339844 43.363281 L 168.578125 44.574219 L 168.890625 45.621094 L 169.273438 45.941406 L 171.265625 46.261719 L 172.707031 46.910156 L 174.257812 47.050781 L 175.128906 47.339844 L 175.949219 48.023438 L 176.835938 49.34375 L 178.089844 50.351562 L 178.960938 50.785156 L 180.851562 50.617188 L 183.074219 50.972656 L 184.421875 50.875 L 185.507812 51.082031 L 186.488281 50.851562 L 187.621094 51.582031 L 188.808594 51.683594 L 189.882812 52.589844 L 190.671875 52.804688 L 191.535156 53.40625 L 192.652344 53.726562 L 193.949219 54.789062 L 194.964844 55.035156 L 195.53125 55.648438 L 196.933594 55.578125 L 198.910156 57.605469 L 199.277344 57.632812 L 199.90625 56.90625 L 200.371094 56.675781 L 201.796875 56.648438 L 202.9375 57.757812 L 204.203125 57.542969 L 205.800781 58.453125 L 206.941406 58.386719 L 207.824219 59.042969 L 209.085938 59.117188 L 210.953125 60.726562 L 210.917969 61.136719 L 210.222656 61.675781 L 210.0625 62.074219 L 210.457031 63.085938 L 210.347656 64.726562 L 210.683594 66.476562 L 211.730469 68.902344 L 211.171875 70.761719 L 211.121094 71.730469 L 211.554688 72.5 L 212.71875 73.433594 L 213.046875 74.042969 L 212.109375 76.066406 L 212.121094 76.972656 L 212.503906 77.566406 L 213.703125 78.316406 L 215.527344 78.722656 L 216.296875 80.152344 L 217.617188 81.355469 L 215.089844 82.742188 L 213.90625 83.960938 L 213.066406 86.542969 L 211.472656 88.238281 L 209.792969 90.582031 L 209.371094 91.898438 L 209.644531 92.628906 L 210.667969 93.285156 L 217.101562 95.933594 L 218.269531 96.609375 L 219.195312 97.5625 L 217.53125 98.757812 L 215.949219 98.640625 L 215.375 98.863281 L 214.058594 101.625 L 212.851562 102.84375 L 211.929688 103.316406 L 207.566406 104.609375 L 205.75 106.242188 L 205.082031 107.304688 L 203.929688 107.675781 L 203.230469 108.578125 L 202.625 110.308594 L 202.617188 111.230469 L 203.066406 113.621094 L 200.65625 113.902344 L 198.90625 113.566406 L 197.425781 112.449219 L 191.835938 109.945312 L 189.183594 108.3125 L 188.421875 110.460938 L 185.921875 112.839844 L 187.6875 113.695312 L 188.285156 114.480469 L 185.726562 115.992188 L 184.5 118.699219 L 184.234375 119.972656 L 184.28125 120.871094 L 184.597656 121.644531 L 185.921875 123.503906 L 182.578125 124.136719 L 182.164062 124.566406 L 181.957031 125.785156 L 181.199219 126.136719 L 179.992188 125.867188 L 178.179688 124.738281 L 175.988281 124.007812 L 175.933594 125.402344 L 175.304688 127.445312 L 174.808594 128.105469 L 173.851562 128.488281 L 168.476562 129.414062 L 165.710938 128.101562 L 166.113281 126.347656 L 165.679688 123.59375 L 165.738281 122.492188 L 166.113281 121.0625 L 167.746094 118.066406 L 166.945312 114.390625 L 166.753906 111.421875 L 166.28125 110.316406 L 164.238281 110.492188 L 162.636719 110.339844 L 161.960938 110.527344 L 161.488281 110.957031 L 161.339844 112.078125 L 160.929688 112.542969 L 158.191406 114.238281 L 157.117188 113.632812 L 156.332031 112.753906 L 155.6875 112.445312 L 153.269531 112.449219 L 151.550781 113.097656 L 148.734375 112.835938 L 148.203125 112.644531 L 145.984375 110.628906 L 143.234375 109.261719 L 140.457031 108.820312 L 138.347656 109.148438 L 136.894531 107.132812 L 134.878906 105.675781 L 134.046875 104.710938 L 134.019531 101.613281 L 137.089844 98.230469 L 137.667969 96.300781 L 137.800781 94.53125 L 138.425781 95.609375 L 140.371094 96.101562 L 142.285156 95.25 L 144.503906 93.335938 L 144.625 93.023438 L 144.207031 92.234375 L 144.222656 91.851562 L 145.535156 91.828125 L 147.261719 90.964844 L 147.742188 91.765625 L 148.417969 91.773438 L 148.996094 90.796875 L 149.527344 90.53125 L 149.835938 90.019531 L 150.851562 89.683594 L 151.761719 88.644531 L 152.703125 86.121094 L 153.894531 84.972656 L 154.234375 83.699219 L 153.925781 81.472656 L 154.394531 80.441406 L 154.886719 78.394531 L 154.042969 77.78125 L 152.324219 77.417969 L 150.929688 76.011719 L 150.488281 74.914062 L 149.855469 74.1875 L 149.578125 73.082031 L 149.828125 72.296875 L 150.507812 71.5 L 150.511719 71.148438 L 148.3125 69.261719 L 148.238281 68.691406 L 147.753906 68.035156 L 147.882812 67.503906 L 148.320312 67.078125 L 148.898438 64.183594 L 149.558594 62.8125 L 149.433594 60.722656 L 150.921875 58.078125 L 151.671875 57.601562 L 153 57.742188 L 153.605469 57.515625 L 154.015625 56.164062 L 153.695312 55.105469 L 154.480469 53.222656 L 154.773438 51.605469 L 155.527344 50.972656 L 157.363281 50.496094 L 158.125 49.964844 L 159.183594 49.792969 L 160.261719 49.226562 L 161.167969 47.457031 L 162.03125 44.730469 L 162.515625 44.085938 L 162.917969 41.769531 L 163.109375 41.550781 L 163.800781 41.496094 Z M 164.476562 42.148438 " fill-opacity="1" fill-rule="nonzero"/><g clip-path="url(#id2)"><path stroke-linecap="butt" transform="matrix(2.899646, 0, 0, 2.896798, 0.578524, 40.659618)" fill="none" stroke-linejoin="miter" d="M 56.52347 0.513954 L 56.82119 0.933328 L 57.937975 1.351354 L 58.045747 1.712745 L 58.177767 1.823319 L 58.864812 1.933894 L 59.36191 2.15774 L 59.896727 2.206285 L 60.197141 2.306072 L 60.480042 2.542055 L 60.785845 2.997838 L 61.218279 3.345744 L 61.518693 3.495424 L 62.170712 3.43744 L 62.937239 3.560151 L 63.402005 3.526439 L 63.776512 3.597908 L 64.114646 3.518348 L 64.505318 3.770513 L 64.914851 3.805573 L 65.285317 4.118418 L 65.55744 4.192584 L 65.85516 4.400249 L 66.240444 4.510823 L 66.687697 4.877608 L 67.037955 4.962561 L 67.233292 5.174272 L 67.716918 5.149999 L 68.398574 5.849856 L 68.525206 5.859295 L 68.742097 5.608479 L 68.902407 5.52892 L 69.394116 5.51948 L 69.787483 5.902446 L 70.223959 5.82828 L 70.774942 6.142474 L 71.168309 6.11955 L 71.472764 6.346093 L 71.907893 6.371714 L 72.551829 6.927285 L 72.539705 7.068874 L 72.299913 7.254963 L 72.24468 7.392507 L 72.380742 7.741762 L 72.343022 8.30812 L 72.458876 8.912235 L 72.819912 9.749636 L 72.62727 10.391508 L 72.609757 10.725929 L 72.75929 10.991578 L 73.16074 11.313863 L 73.2739 11.524224 L 72.950585 12.222733 L 72.954626 12.535578 L 73.086647 12.740546 L 73.500221 12.999452 L 74.129339 13.139694 L 74.394727 13.633234 L 74.850063 14.048563 L 73.978458 14.527271 L 73.570273 14.947994 L 73.280636 15.839334 L 72.731 16.42457 L 72.151727 17.233653 L 72.006235 17.688088 L 72.100535 17.940253 L 72.453488 18.166796 L 74.672239 19.08106 L 75.075036 19.314345 L 75.39431 19.643372 L 74.820426 20.056005 L 74.274831 20.01555 L 74.0768 20.092413 L 73.622812 21.045783 L 73.206543 21.466506 L 72.888616 21.629671 L 71.383853 22.076015 L 70.757429 22.639676 L 70.527067 23.006461 L 70.129659 23.134565 L 69.888519 23.446062 L 69.679711 24.043435 L 69.677017 24.361675 L 69.831939 25.186939 L 69.000749 25.284029 L 68.397227 25.168061 L 67.886658 24.782398 L 65.95889 23.918027 L 65.044177 23.354366 L 64.781484 24.096026 L 63.919309 24.917245 L 64.52822 25.21256 L 64.734333 25.483603 L 63.851952 26.005461 L 63.428948 26.939952 L 63.337342 27.379554 L 63.353507 27.689703 L 63.462626 27.9567 L 63.919309 28.598572 L 62.766151 28.817025 L 62.623354 28.965357 L 62.551955 29.38608 L 62.290608 29.507442 L 61.87434 29.414398 L 61.249263 29.024689 L 60.493514 28.772525 L 60.474654 29.25393 L 60.257763 29.95918 L 60.086675 30.187072 L 59.756624 30.319222 L 57.902949 30.63881 L 56.949169 30.185724 L 57.087925 29.58026 L 56.938392 28.629587 L 56.958599 28.249318 L 57.087925 27.755778 L 57.651033 26.7215 L 57.374868 25.452588 L 57.308857 24.42775 L 57.145852 24.046132 L 56.441294 24.106813 L 55.888964 24.054223 L 55.655908 24.11895 L 55.492903 24.267282 L 55.441711 24.654293 L 55.300261 24.814761 L 54.35591 25.399998 L 53.985445 25.190985 L 53.714668 24.887578 L 53.492389 24.781049 L 52.658505 24.782398 L 52.06576 25.006244 L 51.094467 24.915896 L 50.911255 24.849821 L 50.146075 24.15401 L 49.197683 23.682045 L 48.239861 23.529668 L 47.512402 23.642939 L 47.011263 22.947128 L 46.316135 22.444148 L 46.029193 22.111075 L 46.019763 21.041737 L 47.07862 19.873961 L 47.277998 19.207816 L 47.323801 18.596958 L 47.539345 18.969136 L 48.210224 19.139044 L 48.870326 18.845077 L 49.635506 18.184326 L 49.677268 18.076448 L 49.533123 17.804057 L 49.538511 17.671907 L 49.991153 17.663816 L 50.586592 17.365804 L 50.752291 17.64224 L 50.985348 17.644937 L 51.184725 17.307819 L 51.367938 17.216123 L 51.474362 17.039474 L 51.82462 16.923505 L 52.138506 16.564811 L 52.463168 15.693699 L 52.874048 15.297248 L 52.99125 14.857646 L 52.884825 14.089018 L 53.046483 13.733021 L 53.216224 13.026422 L 52.92524 12.814712 L 52.332495 12.689304 L 51.851563 12.203854 L 51.699336 11.824934 L 51.481098 11.574118 L 51.38545 11.1925 L 51.471668 10.921458 L 51.706072 10.646369 L 51.707419 10.525007 L 50.948975 9.873695 L 50.923379 9.676818 L 50.756333 9.450275 L 50.800789 9.266883 L 50.951669 9.1199 L 51.151047 8.120682 L 51.378715 7.647369 L 51.335606 6.925936 L 51.848869 6.013021 L 52.107521 5.848507 L 52.565552 5.897052 L 52.774359 5.818841 L 52.91581 5.35227 L 52.805344 4.986834 L 53.07612 4.336871 L 53.177156 3.778603 L 53.437156 3.560151 L 54.070315 3.395637 L 54.333009 3.212245 L 54.698086 3.152913 L 55.069898 2.957384 L 55.382437 2.346526 L 55.680156 1.405293 L 55.847202 1.182795 L 55.985959 0.383152 L 56.051969 0.307637 L 56.290414 0.288759 Z M 56.52347 0.513954 " stroke="rgb(100%, 100%, 100%)" stroke-width="0.5" stroke-opacity="1" stroke-miterlimit="4"/></g><path stroke-linecap="butt" transform="matrix(2.899646, 0, 0, 2.896798, 0.578524, 40.659618)" fill-opacity="1" fill="rgb(17.248535%, 44.309998%, 94.119263%)" fill-rule="nonzero" stroke-linejoin="miter" d="M 18.496195 27.376857 L 19.373188 26.566426 L 20.137021 25.532148 L 20.698781 25.254363 L 21.500334 25.141091 L 21.458572 25.631935 L 21.578468 26.384382 L 21.822302 26.569123 L 22.334218 26.540805 L 22.540332 26.614971 L 22.943129 27.753081 L 24.139396 27.763868 L 25.017736 27.943215 L 25.532346 28.196728 L 25.883951 28.235834 L 26.199184 28.113123 L 26.624882 27.688354 L 26.895659 27.641158 L 27.170477 27.68296 L 27.59887 27.962094 L 27.911408 28.645769 L 28.11348 28.928948 L 28.43006 29.116386 L 28.890784 29.229657 L 29.157519 29.670607 L 29.192545 29.964574 L 28.853064 31.245622 L 28.508194 31.801193 L 27.662186 32.639942 L 28.264361 33.614887 L 29.810886 34.957965 L 29.439073 35.649731 L 30.16788 36.16215 L 30.796998 37.076414 L 31.160727 37.271942 L 31.564872 37.383865 L 31.874716 37.576697 L 32.362383 38.988546 L 32.955128 40.248019 L 33.359272 40.835953 L 33.778235 41.170374 L 32.848703 41.672005 L 31.761555 41.735383 L 31.455753 41.831125 L 30.737723 42.665829 L 30.563941 42.971932 L 30.037207 42.522891 L 29.339384 42.357029 L 29.513166 42.912599 L 29.866119 43.632683 L 29.915963 43.859226 L 29.871507 44.209829 L 28.889437 46.275687 L 28.625396 47.7199 L 28.343842 47.966671 L 27.352342 48.584271 L 27.154311 48.987464 L 27.247264 49.576746 L 27.512652 50.338632 L 27.527471 52.320886 L 27.810372 53.956582 L 27.672963 53.918824 L 27.346953 53.9849 L 27.10312 53.86084 L 24.342815 53.918824 L 23.952142 53.840613 L 23.798567 53.688236 L 23.650381 53.650479 L 23.092662 53.643736 L 22.641368 53.774538 L 22.169866 53.547995 L 21.866758 53.503495 L 20.626035 53.507541 L 20.054845 53.591146 L 19.521374 53.473829 L 19.105106 52.977591 L 18.866661 53.051757 L 18.721169 53.254028 L 18.259097 53.162332 L 17.970808 53.003212 L 17.473711 52.570353 L 16.925422 52.548777 L 16.545526 52.707897 L 16.211433 52.641822 L 16.293609 52.145584 L 16.10905 51.936571 L 15.885424 51.978374 L 15.801901 51.327062 L 15.56615 50.879369 L 15.24957 50.585403 L 15.143146 50.350769 L 15.19299 49.900379 L 15.338482 49.497186 L 15.343871 48.987464 L 15.667186 48.550559 L 16.138687 47.638992 L 16.913297 46.808334 L 16.906561 46.513018 L 16.835163 46.388959 L 16.933504 46.162416 L 16.498376 45.489528 L 16.560345 45.203652 L 16.375785 44.73843 L 16.573816 44.548295 L 16.709878 44.278601 L 17.20024 42.87619 L 17.158478 42.7791 L 16.952364 42.671222 L 17.116716 41.818988 L 17.080343 41.728641 L 18.148631 42.157455 L 18.269875 42.28556 L 18.51775 42.860009 L 18.865314 43.036658 L 19.196712 42.954402 L 19.642618 42.516148 L 20.674533 42.495921 L 21.044998 42.420407 L 21.423546 41.875624 L 19.974016 40.976194 L 19.362411 40.484001 L 19.07008 40.12396 L 19.012153 39.584571 L 19.144173 38.771443 L 19.043137 38.214524 L 18.586454 37.831558 L 18.253709 37.274639 L 17.993709 37.031914 L 18.117647 35.858744 L 18.012569 35.574216 L 17.708114 35.118433 L 17.663658 34.432061 L 17.38884 34.303956 L 17.225835 34.103034 L 17.107286 33.563645 L 16.739515 32.556337 L 16.532055 32.172022 L 16.195268 31.786359 L 16.094232 31.499135 L 15.908325 30.146618 L 15.990501 29.309217 L 15.90159 28.463725 L 15.818066 28.198076 L 15.419311 27.624976 L 15.520347 27.523841 L 16.541485 27.688354 L 17.052053 27.467205 L 17.519514 27.14492 L 17.794332 27.062663 L 18.081274 27.132784 Z M 18.496195 27.376857 " stroke="rgb(100%, 100%, 100%)" stroke-width="0.5" stroke-opacity="1" stroke-miterlimit="4"/><path stroke-linecap="butt" transform="matrix(2.899646, 0, 0, 2.896798, 0.578524, 40.659618)" fill-opacity="1" fill="rgb(17.248535%, 44.309998%, 94.119263%)" fill-rule="nonzero" stroke-linejoin="miter" d="M 24.241779 11.2815 L 24.780638 11.311166 L 24.854731 11.451407 L 24.829135 11.783131 L 25.059497 11.827631 L 25.504056 11.761555 L 25.514833 11.400165 L 25.854314 11.131819 L 26.360841 11.10485 L 26.801359 11.176319 L 26.919908 11.340832 L 26.78654 11.587603 L 26.802706 11.814146 L 26.669338 12.162052 L 26.705711 12.492427 L 26.903742 12.721667 L 27.113897 12.72841 L 27.399492 12.907756 L 28.758764 12.729758 L 29.091509 12.601653 L 29.351509 12.759425 L 29.928088 12.725713 L 30.084357 12.789091 L 31.512333 12.685259 L 33.10062 12.809318 L 33.235334 12.990013 L 33.277096 13.403994 L 33.460308 13.670991 L 33.749945 15.620881 L 33.834815 15.742244 L 34.267249 15.963393 L 34.368285 16.33692 L 34.702378 16.77787 L 34.753569 16.974747 L 35.044553 17.048913 L 35.798956 16.808885 L 36.51968 16.796749 L 36.684032 16.899232 L 36.907658 17.413 L 37.287554 17.657074 L 38.358536 17.646286 L 39.212627 17.875526 L 39.169518 18.443232 L 38.74382 19.44245 L 38.990348 20.865088 L 39.157394 21.227826 L 39.638326 21.555505 L 40.306511 22.185241 L 39.992625 23.126475 L 39.63159 23.50944 L 39.461849 23.986799 L 39.366202 24.505961 L 39.310969 25.754646 L 39.189726 26.037825 L 38.929726 26.249535 L 38.330246 26.248186 L 37.365688 27.103117 L 36.907658 27.252798 L 35.340926 27.333706 L 35.247972 27.028951 L 34.392534 27.046482 L 33.628701 26.938604 L 32.75575 26.570471 L 32.208808 26.494957 L 31.718446 26.903544 L 30.438656 27.428099 L 30.161144 27.828595 L 30.076274 28.443498 L 29.3084 28.775222 L 28.890784 29.229657 L 28.43006 29.116386 L 28.11348 28.928948 L 27.911408 28.645769 L 27.59887 27.962094 L 27.170477 27.68296 L 26.895659 27.641158 L 26.624882 27.688354 L 26.199184 28.113123 L 25.883951 28.235834 L 25.532346 28.196728 L 25.017736 27.943215 L 24.139396 27.763868 L 22.943129 27.753081 L 22.540332 26.614971 L 22.334218 26.540805 L 21.822302 26.569123 L 21.578468 26.384382 L 21.458572 25.631935 L 21.498987 25.141091 L 20.698781 25.254363 L 20.137021 25.532148 L 19.373188 26.566426 L 18.496195 27.376857 L 18.376299 26.466639 L 18.222724 25.978492 L 17.81858 25.32718 L 17.430602 25.091198 L 16.920033 24.607096 L 16.793401 24.097374 L 16.301692 22.79475 L 15.942004 22.58304 L 15.559414 22.643722 L 15.160659 22.33627 L 14.767291 21.617535 L 14.769986 21.310083 L 14.345634 20.464591 L 13.821594 19.929248 L 13.032166 19.415481 L 12.739835 18.913849 L 12.455587 17.715058 L 12.236002 17.4575 L 11.791443 17.233653 L 12.273722 16.981489 L 12.789679 16.999019 L 13.15745 17.151397 L 13.271958 17.023292 L 13.352787 16.605266 L 13.673408 16.157573 L 14.538276 15.901363 L 15.113508 16.009241 L 15.201073 15.972832 L 15.24014 15.626275 L 15.583663 15.421308 L 15.694129 15.210946 L 15.695476 15.041039 L 15.541901 14.779435 L 15.289985 14.822586 L 15.163353 14.666163 L 15.314233 13.823369 L 15.510917 13.490296 L 15.862522 13.679082 L 16.542832 13.577947 L 17.251431 13.735718 L 17.506042 13.72493 L 18.092051 13.517266 L 18.94749 13.726279 L 19.045831 13.572553 L 19.045831 13.366237 L 18.955573 13.190935 L 19.005417 13.031816 L 19.338162 12.899666 L 19.765208 12.925287 L 20.02386 12.799879 L 20.093912 12.682562 L 20.073705 12.151264 L 20.345829 11.884266 L 20.503445 11.826282 L 20.574844 11.675253 L 20.907589 11.663117 L 20.969558 11.56333 L 21.061164 11.555239 L 21.89909 11.963826 L 22.499917 11.982705 L 22.75857 11.953038 L 22.898673 11.808752 L 23.155978 11.707617 L 23.30147 11.489164 L 23.211211 10.983487 L 23.402506 10.37263 L 23.475252 10.320039 L 23.678671 10.318691 L 23.777013 10.400948 L 23.832246 10.9282 Z M 24.241779 11.2815 " stroke="rgb(100%, 100%, 100%)" stroke-width="0.5" stroke-opacity="1" stroke-miterlimit="4"/><path stroke-linecap="butt" transform="matrix(2.899646, 0, 0, 2.896798, 0.578524, 40.659618)" fill-opacity="1" fill="rgb(17.248535%, 44.309998%, 94.119263%)" fill-rule="nonzero" stroke-linejoin="miter" d="M 103.910725 23.967921 L 104.988443 25.103334 L 105.569064 26.288641 L 106.377352 29.373944 L 106.482429 29.996938 L 106.377352 30.425752 L 106.029788 30.921989 L 105.846576 31.575998 L 105.70782 31.824117 L 105.4101 31.999418 L 104.631449 32.704669 L 103.833938 33.021559 L 103.553731 32.803107 L 103.11052 32.732986 L 102.792593 32.857046 L 102.525858 33.157755 L 102.295496 33.725462 L 102.322438 34.562863 L 102.632282 35.632201 L 103.191349 35.872228 L 103.371866 36.359027 L 103.839326 37.149231 L 104.006373 37.668393 L 104.286579 38.136312 L 104.6072 39.093727 L 104.946681 39.534677 L 105.396629 39.863705 L 105.090826 40.482653 L 104.851034 40.73212 L 103.704612 41.313312 L 102.330521 41.088117 L 101.891351 41.093511 L 101.329591 41.224312 L 101.104617 41.356463 L 100.603478 41.453553 L 100.480888 42.571436 L 100.308453 42.826297 L 99.482652 43.03531 L 99.015192 43.605713 L 98.169183 43.936089 L 96.85302 44.030482 L 96.543176 43.82956 L 95.834577 43.143188 L 95.522039 42.966538 L 94.853854 42.815509 L 92.19189 42.799327 L 92.005984 42.509406 L 91.203084 42.210045 L 90.65749 41.759656 L 90.392102 41.653126 L 89.686196 41.824382 L 88.771483 43.047446 L 88.376769 43.776969 L 87.529414 43.14993 L 86.240194 42.686056 L 85.802371 43.249717 L 84.681544 44.197692 L 84.222167 43.708197 L 83.504137 43.199823 L 83.411184 43.021825 L 83.331702 41.948442 L 83.043413 41.383432 L 82.600201 40.791453 L 82.928905 40.469168 L 83.156573 40.403093 L 83.192946 39.7356 L 83.067662 39.425451 L 82.325383 38.637944 L 82.169114 37.986632 L 82.167767 37.549727 L 82.290358 37.312396 L 82.28901 37.118216 L 81.910462 36.671872 L 81.775747 36.302391 L 82.210876 35.88841 L 83.07305 35.374642 L 83.853048 35.338234 L 84.056468 34.943132 L 85.215014 34.88245 L 84.910559 33.736249 L 84.871492 33.157755 L 84.972528 33.057968 L 84.933461 32.793668 L 84.798746 32.731638 L 84.69771 32.786925 L 83.89481 32.714108 L 83.38963 32.471383 L 83.316884 31.923904 L 82.868284 31.31844 L 83.424656 30.169542 L 83.906934 29.769046 L 84.001235 29.599138 L 84.114395 28.95322 L 84.060509 27.722066 L 86.209209 28.555421 L 86.702265 28.60936 L 87.235735 28.312696 L 87.747651 28.188637 L 88.865784 27.581825 L 88.616561 26.740379 L 88.949307 26.48282 L 89.310342 26.26302 L 90.553759 25.923205 L 91.203084 26.082324 L 91.446918 26.306171 L 91.50754 26.678349 L 91.320286 27.252798 L 91.461737 27.398433 L 91.717695 27.556204 L 92.229611 27.260889 L 93.607742 27.99176 L 93.754581 28.204819 L 94.222042 28.435407 L 94.839035 28.536543 L 95.158309 28.417877 L 95.724111 27.914897 L 96.240068 27.910852 L 96.913642 27.781399 L 97.313745 27.897367 L 97.606076 28.229091 L 98.499234 27.936473 L 98.950529 27.689703 L 99.413947 27.711278 L 99.559439 27.614188 L 99.986485 26.450457 L 99.985138 26.149748 L 99.88006 26.000068 L 99.323688 25.666995 L 98.990943 25.088501 L 99.703584 24.487082 L 100.297676 24.329311 L 100.863478 24.344144 L 101.286482 24.504613 L 101.757984 24.839033 L 102.144615 24.454719 L 102.814147 24.093329 Z M 93.859659 33.384298 L 93.88256 34.094943 L 94.092715 34.341713 L 94.677377 34.52106 L 96.00297 34.34441 L 96.707528 34.392955 L 97.073952 34.596574 L 97.351465 35.065842 L 97.623589 35.336885 L 98.166489 35.443414 L 98.721514 35.336885 L 98.887213 34.955268 L 99.215917 33.252148 L 99.191668 33.025605 L 98.976124 32.840864 L 98.209598 32.618366 L 97.998096 32.465989 L 97.077994 31.220001 L 96.842243 30.761521 L 95.760484 31.109427 L 95.227013 30.915247 L 93.148365 30.475645 L 93.475722 31.659603 L 93.516136 32.630503 L 93.638727 32.790971 Z M 98.993637 37.110125 L 98.602965 36.719069 L 98.285038 36.731205 L 98.060064 36.909203 L 98.260789 37.606363 L 98.555815 37.711544 L 98.875088 37.582091 L 99.016539 37.321835 Z M 98.993637 37.110125 " stroke="rgb(100%, 100%, 100%)" stroke-width="0.5" stroke-opacity="1" stroke-miterlimit="4"/><path stroke-linecap="butt" transform="matrix(2.899646, 0, 0, 2.896798, 0.578524, 40.659618)" fill-opacity="1" fill="rgb(17.248535%, 44.309998%, 94.119263%)" fill-rule="nonzero" stroke-linejoin="miter" d="M 89.749512 13.939337 L 90.467542 13.904277 L 90.974069 14.094411 L 91.612617 14.083624 L 91.775622 14.222516 L 91.834896 14.555589 L 92.765775 14.985751 L 93.749193 14.663466 L 94.196446 14.586604 L 95.14349 14.784829 L 96.182141 15.556155 L 96.345146 15.81641 L 96.698098 16.727977 L 97.076647 17.12173 L 97.366283 17.168927 L 97.694987 17.33344 L 97.971153 17.106897 L 98.330841 17.462894 L 98.709389 17.410303 L 99.230735 17.590998 L 99.850423 17.611225 L 99.968972 17.415697 L 100.044412 17.406258 L 100.59809 17.876874 L 101.19757 17.887662 L 101.05612 18.386597 L 101.231249 19.241528 L 101.015706 19.570555 L 101.048037 19.756644 L 101.173322 19.856431 L 101.383477 19.770129 L 101.445446 20.228609 L 102.007206 20.654726 L 102.731971 20.88936 L 102.846479 21.140176 L 103.051245 21.300644 L 103.149587 21.544717 L 103.588757 21.864305 L 103.917461 22.276937 L 104.172072 22.359194 L 103.982124 23.193898 L 103.910725 23.967921 L 102.815494 24.09198 L 102.144615 24.454719 L 101.759331 24.839033 L 101.287829 24.504613 L 100.863478 24.344144 L 100.297676 24.329311 L 99.703584 24.487082 L 98.990943 25.088501 L 99.325036 25.666995 L 99.881407 25.998719 L 99.985138 26.149748 L 99.987832 26.450457 L 99.559439 27.614188 L 99.413947 27.711278 L 98.951876 27.689703 L 98.499234 27.936473 L 97.607423 28.229091 L 97.315092 27.897367 L 96.913642 27.781399 L 96.241415 27.910852 L 95.724111 27.914897 L 95.158309 28.417877 L 94.840382 28.536543 L 94.223389 28.435407 L 93.755929 28.204819 L 93.609089 27.99176 L 92.229611 27.260889 L 91.719042 27.556204 L 91.463084 27.398433 L 91.320286 27.252798 L 91.50754 26.678349 L 91.446918 26.306171 L 91.204431 26.082324 L 90.555106 25.921856 L 89.310342 26.26302 L 88.950654 26.48282 L 88.617909 26.740379 L 88.865784 27.581825 L 87.748999 28.188637 L 87.237083 28.312696 L 86.702265 28.60936 L 86.210556 28.555421 L 84.061856 27.722066 L 83.995846 26.919725 L 84.138644 26.497654 L 83.31419 25.666995 L 83.778955 25.367634 L 84.234291 24.928033 L 84.266623 24.705535 L 84.018748 24.106813 L 84.393255 22.144787 L 84.732736 21.211645 L 84.779886 19.995323 L 85.081647 19.685175 L 84.843202 19.2658 L 84.28683 18.652246 L 84.03626 18.234219 L 83.999888 17.407606 L 84.332633 17.369849 L 84.501026 17.20129 L 84.203307 16.889793 L 84.166934 16.490646 L 84.032219 16.11577 L 83.659059 15.597957 L 83.179475 15.146219 L 83.262998 14.999236 L 83.448904 14.912934 L 83.954085 14.805056 L 84.360923 14.84551 L 84.907865 14.53671 L 85.496568 14.525922 L 86.191696 14.187456 L 86.999985 14.230607 L 87.301746 14.093063 L 87.994179 13.565811 L 88.333661 13.55772 L 89.375005 13.904277 Z M 91.814689 24.139177 L 92.468056 23.642939 L 92.892407 23.516183 L 93.151059 23.497304 L 93.314064 23.734635 L 93.549815 23.90724 L 94.366186 24.245706 L 95.348257 23.908588 L 95.257998 22.903977 L 95.372505 21.622929 L 95.310537 21.183327 L 95.186599 20.95139 L 94.620797 20.577863 L 93.896032 20.298729 L 93.716861 20.585954 L 93.4151 20.878572 L 93.035205 20.897451 L 92.573133 20.710013 L 91.973653 20.343229 L 91.576244 20.212427 L 91.402462 19.922506 L 91.402462 19.674387 L 92.37645 18.470202 L 92.412823 18.061615 L 92.1636 17.849905 L 91.863187 18.026555 L 91.384949 18.805971 L 90.580702 19.695963 L 90.575314 20.313563 L 90.718111 20.821936 L 90.551065 21.393688 L 90.568578 22.155575 L 90.268164 23.520228 L 90.320703 24.175585 L 90.551065 24.282115 Z M 91.814689 24.139177 " stroke="rgb(100%, 100%, 100%)" stroke-width="0.5" stroke-opacity="1" stroke-miterlimit="4"/><path stroke-linecap="butt" transform="matrix(2.899646, 0, 0, 2.896798, 0.578524, 40.659618)" fill-opacity="1" fill="rgb(17.248535%, 44.309998%, 94.119263%)" fill-rule="nonzero" stroke-linejoin="miter" d="M 124.652753 33.908854 L 124.897934 35.521626 L 125.482596 35.299128 L 125.917724 35.23575 L 126.347464 35.33284 L 126.998136 35.602534 L 129.53212 35.973364 L 130.260927 36.334754 L 130.999164 37.048096 L 131.477401 37.346108 L 131.990664 37.836952 L 133.522371 38.771443 L 133.216568 39.98237 L 133.216568 40.573001 L 133.32434 40.951921 L 133.605894 41.303872 L 134.625685 42.026653 L 134.944958 42.518845 L 135.623921 43.32658 L 137.438528 42.988113 L 138.916349 43.025871 L 139.941528 42.698192 L 142.230331 42.704934 L 142.479553 42.812812 L 142.65603 43.001598 L 143.813229 45.273773 L 143.212402 46.034311 L 142.955096 46.221748 L 142.898516 46.436155 L 142.389295 47.274905 L 142.355616 47.760354 L 142.502455 48.146017 L 142.445875 48.620679 L 142.270746 48.781148 L 142.196653 49.026569 L 141.91914 49.207265 L 141.531162 49.17625 L 141.409918 49.22884 L 140.760593 49.67923 L 140.301216 50.167376 L 139.919974 50.450555 L 139.700389 50.906339 L 138.997178 50.958929 L 137.802258 51.296047 L 137.058633 51.252896 L 136.115629 51.422803 L 136.115629 51.165245 L 135.688584 51.122094 L 134.881642 50.802507 L 134.344131 50.958929 L 133.872629 51.188169 L 133.696153 51.358077 L 133.576257 51.978374 L 133.030662 52.829259 L 131.387142 54.326063 L 130.995122 54.516197 L 130.422585 54.957148 L 130.107352 55.054238 L 129.274815 55.779715 L 128.475957 55.545081 L 128.469221 55.445294 L 127.380726 55.461476 L 126.77451 55.390007 L 126.245081 55.145934 L 126.00933 55.124358 L 125.677932 54.932875 L 125.368088 54.962542 L 125.195653 54.877588 L 124.889851 54.865452 L 124.030371 54.305836 L 123.618144 53.748917 L 123.269232 53.557434 L 120.906336 53.371345 L 120.760844 52.610807 L 120.832243 52.053888 L 120.78644 51.832739 L 120.255664 51.107261 L 119.991623 50.52607 L 119.63867 50.226709 L 119.793592 48.841829 L 119.747789 47.756309 L 119.617116 47.19939 L 119.338257 46.531897 L 119.093076 46.244672 L 118.051731 45.683708 L 117.061578 45.264333 L 117.372769 44.51728 L 117.535773 43.803939 L 117.394323 42.950356 L 117.429349 42.273423 L 117.725721 41.678747 L 118.187793 41.231055 L 118.119088 40.705151 L 118.229554 40.092945 L 118.38717 39.763918 L 118.555564 38.726943 L 118.970485 37.881451 L 119.599603 37.325881 L 120.173488 36.952354 L 121.540842 37.417577 L 121.446542 36.87684 L 121.458666 36.137877 L 121.57991 35.384082 L 121.780635 35.009207 L 123.235554 34.1327 L 123.84177 33.943914 Z M 124.652753 33.908854 " stroke="rgb(100%, 100%, 100%)" stroke-width="0.5" stroke-opacity="1" stroke-miterlimit="4"/><path fill="rgb(17.248535%, 44.309998%, 94.119263%)" d="M 233.578125 193.617188 L 236.816406 193.382812 L 238.273438 192.941406 L 239.128906 195.144531 L 240.34375 200.019531 L 241.375 201.234375 L 242.664062 201.832031 L 250.382812 203.773438 L 254.652344 203.308594 L 258.425781 203.589844 L 259.328125 205.84375 L 261.351562 208.757812 L 262.199219 210.992188 L 264.574219 213.058594 L 265.621094 213.5625 L 267.445312 213.546875 L 269.769531 212.835938 L 270.984375 211.78125 L 272.816406 211.015625 L 273.902344 210.175781 L 276.980469 208.550781 L 284.132812 206.855469 L 286.738281 207.332031 L 289.863281 206.070312 L 289.316406 210.835938 L 291.484375 215.335938 L 292.234375 218.828125 L 293.773438 223.777344 L 293.453125 227.878906 L 293.449219 230.980469 L 294.472656 233.667969 L 294.855469 238.011719 L 294.105469 245.019531 L 294.136719 248.109375 L 293.933594 248.183594 L 293.105469 248.4375 L 287.945312 248.148438 L 287.449219 247.390625 L 286.480469 247.46875 L 284.207031 248.53125 L 283.796875 249.511719 L 283.570312 249.597656 L 275.394531 251.402344 L 265.675781 256.066406 L 262.683594 257.238281 L 255.539062 261.53125 L 255.058594 261.382812 L 251.625 264.734375 L 250.332031 263.246094 L 246.914062 263.25 L 244.410156 262.914062 L 244.550781 258.660156 L 237.074219 260.0625 L 234.730469 260.121094 L 226.941406 258.203125 L 221.953125 255.917969 L 218.539062 253.824219 L 215.632812 253.589844 L 213.863281 253.703125 L 208.796875 252.191406 L 205.246094 247.242188 L 192.261719 243.914062 L 183.765625 243.15625 L 183.132812 244.179688 L 178.988281 243.851562 L 173.25 245.054688 L 173.230469 242.089844 L 172.9375 239.527344 L 171.703125 232.472656 L 171.148438 226.941406 L 171.136719 220.21875 L 170.65625 216.492188 L 170.753906 215.695312 L 171.28125 215.074219 L 174.21875 214.292969 L 175.269531 214.179688 L 176.375 214.488281 L 179.359375 216.503906 L 182.613281 220.289062 L 183.269531 220.648438 L 184.6875 220.898438 L 187.910156 220.472656 L 196.007812 220.464844 L 197.722656 220.179688 L 201.65625 218.167969 L 204.238281 217.273438 L 205.117188 216.199219 L 208.648438 214.964844 L 213.226562 214.128906 L 222.273438 214.03125 L 221.40625 211.851562 L 221.429688 210.742188 L 221.832031 209.808594 L 222.792969 208.46875 L 223.820312 205.359375 L 225.410156 202.398438 L 225.835938 201.085938 L 227.003906 200.542969 L 227.609375 199.246094 L 230.164062 197.976562 L 230.964844 197.351562 L 232.507812 195.632812 L 233.488281 194.109375 Z M 233.578125 193.617188 " fill-opacity="1" fill-rule="nonzero"/><g clip-path="url(#id3)"><path stroke-linecap="butt" transform="matrix(2.899646, 0, 0, 2.896798, 0.578524, 40.659618)" fill="none" stroke-linejoin="miter" d="M 80.354507 52.80229 L 81.471292 52.721382 L 81.973778 52.569004 L 82.268803 53.329542 L 82.687766 55.012435 L 83.043413 55.43181 L 83.487972 55.638126 L 86.149935 56.308316 L 87.622367 56.147848 L 88.923711 56.244938 L 89.234902 57.023006 L 89.932724 58.028966 L 90.225055 58.800292 L 91.044121 59.513633 L 91.405156 59.687586 L 92.034274 59.682192 L 92.835827 59.43677 L 93.25479 59.072683 L 93.886602 58.808383 L 94.261109 58.518461 L 95.322661 57.957497 L 97.789288 57.37226 L 98.687835 57.536774 L 99.765553 57.101218 L 99.576952 58.746353 L 100.324619 60.299792 L 100.583271 61.505326 L 101.114047 63.21384 L 101.003581 64.629735 L 101.002234 65.700421 L 101.355187 66.62817 L 101.487207 68.12767 L 101.228555 70.546828 L 101.239332 71.613469 L 101.16928 71.63909 L 100.883685 71.726741 L 99.104103 71.626954 L 98.933016 71.365351 L 98.598923 71.39232 L 97.814883 71.759104 L 97.673433 72.097571 L 97.595298 72.127237 L 94.775719 72.750231 L 91.424017 74.360306 L 90.392102 74.764848 L 87.928169 76.246818 L 87.76247 76.195576 L 86.578328 77.352565 L 86.132422 76.838797 L 84.953668 76.840145 L 84.090146 76.724177 L 84.138644 75.255691 L 81.560204 75.739793 L 80.751915 75.76002 L 78.065703 75.09792 L 76.345396 74.309064 L 75.16799 73.586283 L 74.165712 73.505375 L 73.555454 73.544481 L 71.808204 73.022622 L 70.583647 71.314109 L 66.105729 70.165211 L 63.175684 69.903607 L 62.957446 70.256907 L 61.528123 70.143635 L 59.549163 70.558965 L 59.542428 69.535475 L 59.441392 68.650877 L 59.015693 66.215537 L 58.824398 64.306102 L 58.820357 61.985382 L 58.654657 60.69894 L 58.688336 60.423852 L 58.870201 60.209445 L 59.883256 59.93975 L 60.245638 59.900645 L 60.626881 60.007174 L 61.656102 60.702985 L 62.778275 62.009654 L 63.004596 62.133714 L 63.493611 62.220016 L 64.605007 62.073033 L 67.397644 62.070336 L 67.989041 61.971897 L 69.345619 61.277434 L 70.236083 60.968634 L 70.539191 60.597805 L 71.757013 60.171687 L 73.335869 59.883115 L 76.455862 59.849403 L 76.156796 59.096956 L 76.164879 58.71399 L 76.303635 58.391705 L 76.635033 57.929179 L 76.989333 56.855796 L 77.537622 55.833654 L 77.684461 55.380568 L 78.087258 55.19313 L 78.296066 54.745438 L 79.1771 54.307184 L 79.453265 54.091429 L 79.985388 53.498101 L 80.323522 52.972197 Z M 80.354507 52.80229 " stroke="rgb(100%, 100%, 100%)" stroke-width="0.5" stroke-opacity="1" stroke-miterlimit="4"/></g><path stroke-linecap="butt" transform="matrix(2.899646, 0, 0, 2.896798, 0.578524, 40.659618)" fill-opacity="1" fill="rgb(17.248535%, 44.309998%, 94.119263%)" fill-rule="nonzero" stroke-linejoin="miter" d="M 67.95671 40.982936 L 68.572356 40.834604 L 69.648727 40.802241 L 70.520331 40.694363 L 70.737222 40.55547 L 70.913698 40.212959 L 71.145408 39.997203 L 72.638047 39.554905 L 73.086647 39.596707 L 73.574314 40.088899 L 73.814106 40.237231 L 74.036386 40.074066 L 74.150893 39.879886 L 74.268095 39.155757 L 74.417629 38.784927 L 74.833897 38.449158 L 75.092549 37.974496 L 75.088508 37.695362 L 74.758457 37.301608 L 74.681669 37.041353 L 74.798871 36.810765 L 75.042705 36.706932 L 75.259596 36.948309 L 75.821356 37.06158 L 76.174309 37.333972 L 76.671406 37.463425 L 77.269539 38.103949 L 77.634616 38.281947 L 78.389019 38.379037 L 79.046427 38.360159 L 79.573161 38.179463 L 79.833161 37.896284 L 80.369325 37.799194 L 80.769428 37.845042 L 81.195127 37.792452 L 82.169114 37.549727 L 82.170461 37.98798 L 82.326731 38.637944 L 83.069009 39.425451 L 83.194293 39.7356 L 83.15792 40.404442 L 82.928905 40.469168 L 82.600201 40.791453 L 83.04476 41.383432 L 83.33305 41.94979 L 83.412531 43.021825 L 83.504137 43.199823 L 84.222167 43.708197 L 84.682891 44.197692 L 84.540094 45.097123 L 84.19253 45.903509 L 83.747971 46.074765 L 82.970667 46.027568 L 82.629839 46.856878 L 82.396782 47.149497 L 82.113881 48.344243 L 81.973778 48.589665 L 81.715126 48.72586 L 81.416059 48.764966 L 80.477097 48.696194 L 80.145699 48.84992 L 79.656684 49.321885 L 79.52197 49.892288 L 79.65399 50.674402 L 80.109326 51.340547 L 80.320828 51.402576 L 80.413781 51.56709 L 80.339688 52.078161 L 80.354507 52.80229 L 80.322175 52.972197 L 79.984041 53.498101 L 79.453265 54.092777 L 79.1771 54.307184 L 78.294719 54.745438 L 78.085911 55.19313 L 77.684461 55.380568 L 77.537622 55.833654 L 76.989333 56.855796 L 76.633686 57.929179 L 76.303635 58.391705 L 76.164879 58.71399 L 76.155449 59.098304 L 76.455862 59.849403 L 73.335869 59.883115 L 71.757013 60.171687 L 70.537844 60.599153 L 70.360021 60.191915 L 70.013804 58.567006 L 69.65681 57.307534 L 69.205515 56.432376 L 69.282303 55.554521 L 69.485722 55.27269 L 69.388727 55.055586 L 68.526553 54.401577 L 67.654949 54.083338 L 67.448835 53.797462 L 67.21039 53.196044 L 67.22925 50.919824 L 67.338369 50.615069 L 67.730389 50.066241 L 67.734431 49.588882 L 68.006554 49.130402 L 68.131839 48.582922 L 67.954016 47.481221 L 67.963446 46.774622 L 68.134533 46.393004 L 68.774428 45.922388 L 68.968418 45.565043 L 68.994013 44.189602 L 69.136811 43.663698 L 68.911837 43.055537 L 68.992666 42.760222 L 68.560232 42.110258 Z M 67.95671 40.982936 " stroke="rgb(100%, 100%, 100%)" stroke-width="0.5" stroke-opacity="1" stroke-miterlimit="4"/><path stroke-linecap="butt" transform="matrix(2.899646, 0, 0, 2.896798, 0.578524, 40.659618)" fill-opacity="1" fill="rgb(17.248535%, 44.309998%, 94.119263%)" fill-rule="nonzero" stroke-linejoin="miter" d="M 41.436767 17.406258 L 41.638839 17.386031 L 41.822051 17.209381 L 42.036248 17.12173 L 42.723293 17.35097 L 43.124743 17.338834 L 43.212308 17.578862 L 43.418421 17.673255 L 43.698628 18.025206 L 43.873757 18.056221 L 44.337176 17.600438 L 44.820801 17.411652 L 45.053858 17.582908 L 44.963599 17.905192 L 45.051164 18.009025 L 45.231681 17.982055 L 45.585981 17.701573 L 45.841939 17.706967 L 46.654269 17.930813 L 47.009916 18.440536 L 47.325148 18.596958 L 47.279345 19.207816 L 47.079968 19.873961 L 46.02111 21.041737 L 46.03054 22.111075 L 46.317482 22.444148 L 47.011263 22.947128 L 47.512402 23.642939 L 48.239861 23.529668 L 49.197683 23.682045 L 50.147422 24.15401 L 50.912602 24.849821 L 51.095814 24.915896 L 52.067107 25.006244 L 52.659852 24.782398 L 53.493736 24.781049 L 53.716015 24.887578 L 53.986792 25.190985 L 54.357257 25.399998 L 55.301608 24.814761 L 55.441711 24.654293 L 55.492903 24.267282 L 55.657255 24.11895 L 55.890311 24.054223 L 56.441294 24.106813 L 57.1472 24.044784 L 57.310204 24.42775 L 57.376215 25.452588 L 57.65238 26.7215 L 57.087925 27.755778 L 56.959946 28.249318 L 56.939739 28.629587 L 57.087925 29.58026 L 56.950516 30.185724 L 56.376631 30.34754 L 55.115701 30.881535 L 54.889381 31.187638 L 54.315496 31.592179 L 54.012388 31.666345 L 53.264721 31.621846 L 53.024929 31.694663 L 52.791872 31.890192 L 52.611355 32.414747 L 52.66524 32.967621 L 52.496847 33.786143 L 52.492806 34.278335 L 52.63695 34.642422 L 52.890214 34.916162 L 53.68099 35.227659 L 53.52472 35.878971 L 52.992597 36.479041 L 52.93467 37.548379 L 52.750111 37.925951 L 52.271873 38.302174 L 51.925657 38.4559 L 51.288456 38.357462 L 50.984001 38.594793 L 50.887006 39.216438 L 50.539442 39.608843 L 50.3468 39.981022 L 50.284831 40.804938 L 50.088148 41.5884 L 49.461724 42.634814 L 48.967321 42.485133 L 48.758513 42.272075 L 48.588773 41.945745 L 47.587842 42.7791 L 47.302247 42.795282 L 46.332301 42.614587 L 46.231265 42.013168 L 45.750333 41.195995 L 45.549608 40.986981 L 45.2465 40.351851 L 45.037692 40.233186 L 44.610646 40.300609 L 43.372618 40.978891 L 43.112619 40.087551 L 43.082981 38.863139 L 42.998111 38.501748 L 42.829718 38.222615 L 42.214071 37.559166 L 41.796456 37.475561 L 41.254902 36.969884 L 40.679671 36.613888 L 40.437184 36.565343 L 39.65045 35.972015 L 39.327135 35.806153 L 37.915324 35.583656 L 37.058539 35.768396 L 36.841648 35.148099 L 36.562788 34.929647 L 35.685795 34.788057 L 34.994709 34.833905 L 34.124452 34.730073 L 33.318857 34.353849 L 32.90663 34.028868 L 32.750361 33.985717 L 32.277513 34.08011 L 29.809539 34.957965 L 28.263014 33.614887 L 27.662186 32.639942 L 28.506847 31.801193 L 28.853064 31.245622 L 29.191198 29.964574 L 29.156172 29.670607 L 28.890784 29.229657 L 29.307053 28.775222 L 30.074927 28.44215 L 30.161144 27.828595 L 30.437309 27.426751 L 31.718446 26.903544 L 32.208808 26.494957 L 32.754403 26.570471 L 33.628701 26.937255 L 34.392534 27.046482 L 35.246625 27.028951 L 35.339579 27.333706 L 36.906311 27.252798 L 37.365688 27.103117 L 38.328898 26.248186 L 38.929726 26.249535 L 39.188378 26.037825 L 39.310969 25.753297 L 39.366202 24.505961 L 39.461849 23.986799 L 39.63159 23.50944 L 39.992625 23.126475 L 40.306511 22.185241 L 39.636979 21.555505 L 39.157394 21.227826 L 38.989001 20.865088 L 38.74382 19.44245 L 39.169518 18.443232 L 39.212627 17.875526 L 39.853869 17.616619 L 40.364438 17.541105 L 40.47221 17.178366 L 40.84537 16.955868 L 41.164644 17.047564 L 41.213141 17.261971 Z M 41.436767 17.406258 " stroke="rgb(100%, 100%, 100%)" stroke-width="0.5" stroke-opacity="1" stroke-miterlimit="4"/><path stroke-linecap="butt" transform="matrix(2.899646, 0, 0, 2.896798, 0.578524, 40.659618)" fill-opacity="1" fill="rgb(17.248535%, 44.309998%, 94.119263%)" fill-rule="nonzero" stroke-linejoin="miter" d="M 101.104617 41.356463 L 101.565342 41.893154 L 102.556842 42.593011 L 102.102853 43.512669 L 102.120366 43.782363 L 102.517775 44.40266 L 102.573008 44.688536 L 102.43964 45.414014 L 102.174252 46.011387 L 102.186377 46.378171 L 102.283371 46.700456 L 102.696945 47.297829 L 102.947515 47.516281 L 103.216944 47.57022 L 104.099326 47.338283 L 103.76658 48.685406 L 103.642643 49.832955 L 103.978083 51.501015 L 104.565439 53.235149 L 103.975388 53.347072 L 103.629171 53.545298 L 103.423058 54.208746 L 103.397462 54.795331 L 100.533427 54.920739 L 100.065967 56.664313 L 99.765553 57.101218 L 98.687835 57.536774 L 97.789288 57.37226 L 95.322661 57.957497 L 94.261109 58.518461 L 93.887949 58.808383 L 93.25479 59.072683 L 92.835827 59.43677 L 92.034274 59.682192 L 91.406504 59.687586 L 91.044121 59.513633 L 90.226403 58.800292 L 89.932724 58.028966 L 89.234902 57.023006 L 88.925058 56.244938 L 87.623714 56.147848 L 86.149935 56.308316 L 83.487972 55.639474 L 83.043413 55.43181 L 82.687766 55.012435 L 82.268803 53.329542 L 81.973778 52.569004 L 81.471292 52.721382 L 80.355854 52.80229 L 80.341035 52.078161 L 80.415128 51.56709 L 80.322175 51.402576 L 80.110673 51.340547 L 79.655337 50.674402 L 79.523317 49.892288 L 79.656684 49.321885 L 80.145699 48.84992 L 80.478444 48.696194 L 81.416059 48.764966 L 81.716473 48.72586 L 81.975125 48.589665 L 82.115228 48.344243 L 82.398129 47.149497 L 82.629839 46.856878 L 82.972014 46.027568 L 83.747971 46.074765 L 84.193877 45.903509 L 84.540094 45.097123 L 84.684238 44.196344 L 85.803718 43.249717 L 86.241541 42.686056 L 87.530761 43.148581 L 88.379464 43.776969 L 88.772831 43.047446 L 89.687544 41.824382 L 90.394796 41.653126 L 90.658837 41.759656 L 91.204431 42.210045 L 92.007331 42.509406 L 92.193238 42.799327 L 94.855201 42.815509 L 95.523386 42.966538 L 95.835924 43.143188 L 96.544524 43.82956 L 96.854367 44.030482 L 98.17053 43.937437 L 99.016539 43.607062 L 99.483999 43.036658 L 100.3098 42.826297 L 100.483582 42.571436 L 100.603478 41.453553 Z M 101.104617 41.356463 " stroke="rgb(100%, 100%, 100%)" stroke-width="0.5" stroke-opacity="1" stroke-miterlimit="4"/><path fill="rgb(17.248535%, 44.309998%, 94.119263%)" d="M 387.894531 85.328125 L 388.738281 85.367188 L 390.546875 84.953125 L 391.648438 85.183594 L 394.753906 86.367188 L 395.328125 86.726562 L 396.246094 88.1875 L 398.695312 91.15625 L 401.042969 92.875 L 401.871094 92.734375 L 402.605469 93.011719 L 403.238281 92.765625 L 405.660156 93.269531 L 406.210938 93.214844 L 410.507812 90.511719 L 413.054688 89.96875 L 416.136719 91.519531 L 418.425781 92.027344 L 419.773438 94.265625 L 410.488281 115.351562 L 410.542969 115.78125 L 411.386719 116.941406 L 411.28125 117.332031 L 407.109375 123.007812 L 406.957031 123.726562 L 407.292969 127.222656 L 407.175781 128.65625 L 402.621094 130.597656 L 402.585938 131.3125 L 403.191406 134.472656 L 401.9375 134.472656 L 401.925781 134.8125 L 402.140625 135.144531 L 403.570312 135.847656 L 408.46875 141.203125 L 408.953125 141.335938 L 411.667969 138 L 413.375 137.117188 L 415.265625 137.675781 L 416.824219 137.847656 L 417.433594 137.710938 L 418.9375 136.824219 L 421.269531 136.617188 L 423.371094 137.292969 L 425.65625 138.546875 L 429.667969 142.199219 L 430.066406 141.109375 L 430.867188 139.816406 L 432.117188 138.992188 L 435.046875 134.683594 L 436.132812 134.195312 L 436.234375 133.929688 L 437.285156 133.734375 L 438.574219 133.90625 L 439.480469 133.628906 L 440.230469 133.664062 L 440.085938 134.0625 L 441.253906 133.796875 L 442.15625 134.433594 L 445.410156 134.472656 L 449.691406 138.617188 L 450.910156 139.296875 L 454.710938 140.820312 L 454.757812 141.855469 L 455.195312 143.601562 L 455.109375 144.3125 L 455.632812 144.757812 L 456.566406 144.539062 L 457.195312 144.15625 L 457.488281 144.171875 L 457.769531 144.484375 L 457.828125 145.832031 L 457.570312 146.582031 L 460.742188 149.492188 L 463.484375 152.828125 L 464.476562 155.683594 L 465.355469 157.449219 L 465.910156 157.921875 L 466.296875 159.503906 L 466.09375 160.464844 L 466.425781 161.640625 L 466.382812 162.5 L 465.699219 163.097656 L 465.097656 163.3125 L 464.199219 164.253906 L 462.113281 164.335938 L 460.527344 163.738281 L 459.082031 163.859375 L 458.601562 164.464844 L 457.703125 164.464844 L 455.605469 163.609375 L 454.664062 163.609375 L 453.804688 163.140625 L 452.992188 162.371094 L 451.109375 161.386719 L 450.121094 161.472656 L 449.179688 162.839844 L 447.507812 162.625 L 446.394531 162.925781 L 443.871094 162.070312 L 442.929688 162.285156 L 441.816406 162.925781 L 440.101562 163.183594 L 439.289062 164.167969 L 436.777344 164.585938 L 436.378906 165.527344 L 435.875 165.808594 L 434.203125 166.035156 L 433.792969 165.910156 L 433.246094 165.511719 L 432.96875 164.523438 L 432.746094 164.414062 L 430.421875 164.539062 L 430.417969 165.824219 L 429.503906 167.59375 L 429.367188 169.351562 L 427.457031 169.144531 L 423.832031 169.375 L 423.214844 169.296875 L 422.101562 168.675781 L 420.699219 170.035156 L 418.40625 170.421875 L 417.949219 170.824219 L 417.589844 171.808594 L 414.230469 165.226562 L 413.71875 164.679688 L 412.996094 164.367188 L 406.363281 164.347656 L 403.386719 165.296875 L 399.101562 165.1875 L 393.84375 166.167969 L 391.875 163.828125 L 390.949219 162.402344 L 387.992188 160.308594 L 387.171875 159.289062 L 386.859375 158.191406 L 386.863281 156.480469 L 387.746094 152.972656 L 383.304688 150.265625 L 381.820312 148.84375 L 380.433594 147.980469 L 378.292969 145.914062 L 376.179688 144.867188 L 368.832031 143.792969 L 366.941406 143.015625 L 365.699219 142.730469 L 364.433594 142.914062 L 362.742188 143.5625 L 362.03125 138.886719 L 360.796875 135.980469 L 359.863281 132.621094 L 359.402344 129.175781 L 359.820312 126.148438 L 359.574219 124.492188 L 356.257812 118.269531 L 355.441406 115.921875 L 355.492188 115.128906 L 356.140625 113.703125 L 356.238281 112.855469 L 354.882812 110.015625 L 354.429688 106.117188 L 353.796875 105.371094 L 351.53125 103.960938 L 352.304688 103.460938 L 353.941406 103.214844 L 355.789062 102.167969 L 356.886719 101.941406 L 359.425781 100.777344 L 360.574219 101.246094 L 361.347656 101.183594 L 362.351562 101.988281 L 363.429688 101.738281 L 365.953125 99.894531 L 367.890625 99.277344 L 367.820312 98.363281 L 367.996094 97.796875 L 369.300781 94.871094 L 372.996094 91.996094 L 373.550781 91.257812 L 374.171875 91.160156 L 375.097656 90.1875 L 377.90625 88.59375 L 378.960938 88.804688 L 381.085938 86.71875 L 382.0625 86.515625 L 382.46875 85.988281 L 384.203125 84.902344 L 385.886719 84.355469 L 386.917969 85.019531 Z M 387.894531 85.328125 " fill-opacity="1" fill-rule="nonzero"/><g clip-path="url(#id4)"><path stroke-linecap="butt" transform="matrix(2.899646, 0, 0, 2.896798, 0.578524, 40.659618)" fill="none" stroke-linejoin="miter" d="M 133.573562 15.419959 L 133.864546 15.433444 L 134.488275 15.290506 L 134.868171 15.370066 L 135.939153 15.778653 L 136.137184 15.902712 L 136.453763 16.40704 L 137.298425 17.431879 L 138.10806 18.025206 L 138.393656 17.976661 L 138.646919 18.072403 L 138.865157 17.987449 L 139.700389 18.161402 L 139.890336 18.142523 L 141.372198 17.209381 L 142.250538 17.021943 L 143.313438 17.557287 L 144.102866 17.732588 L 144.567632 18.505262 L 141.365463 25.784312 L 141.384323 25.932644 L 141.675307 26.33314 L 141.638934 26.467987 L 140.20018 28.427317 L 140.147641 28.675435 L 140.263496 29.882317 L 140.223082 30.377207 L 138.652308 31.047397 L 138.640184 31.294167 L 138.848991 32.385081 L 138.416557 32.385081 L 138.412516 32.502398 L 138.486609 32.617018 L 138.979665 32.859743 L 140.668987 34.708497 L 140.836034 34.754345 L 141.772301 33.602751 L 142.361005 33.297996 L 143.013024 33.490828 L 143.550536 33.55016 L 143.760691 33.502964 L 144.279342 33.196861 L 145.083589 33.125392 L 145.808355 33.358677 L 146.596436 33.791537 L 147.979956 35.052358 L 148.117365 34.676134 L 148.39353 34.22979 L 148.824617 33.945262 L 149.834978 32.457898 L 150.209485 32.289339 L 150.244511 32.197643 L 150.606893 32.13022 L 151.051452 32.189552 L 151.36399 32.093811 L 151.622642 32.105947 L 151.572798 32.243491 L 151.975595 32.151795 L 152.286786 32.371596 L 153.40896 32.385081 L 154.885433 33.815809 L 155.305743 34.050443 L 156.616518 34.576347 L 156.632683 34.933692 L 156.783564 35.536459 L 156.753927 35.781881 L 156.934444 35.935607 L 157.256413 35.860092 L 157.473303 35.727942 L 157.574339 35.733336 L 157.671334 35.841214 L 157.691541 36.306436 L 157.60263 36.565343 L 158.696513 37.569954 L 159.642211 38.721549 L 159.984386 39.707282 L 160.287494 40.316791 L 160.478789 40.479956 L 160.612157 41.026087 L 160.542105 41.357811 L 160.656613 41.763701 L 160.641794 42.060365 L 160.406043 42.266681 L 160.198582 42.340847 L 159.888739 42.665829 L 159.169362 42.694147 L 158.62242 42.48783 L 158.123976 42.529633 L 157.958276 42.738646 L 157.648433 42.738646 L 156.925014 42.443331 L 156.600352 42.443331 L 156.303979 42.281514 L 156.023773 42.015865 L 155.374448 41.67605 L 155.03362 41.705717 L 154.708957 42.177682 L 154.132378 42.103516 L 153.748441 42.207348 L 152.878184 41.912033 L 152.553521 41.986199 L 152.169584 42.207348 L 151.578187 42.296347 L 151.29798 42.636162 L 150.431764 42.780449 L 150.294355 43.10543 L 150.120573 43.20252 L 149.543994 43.280732 L 149.402544 43.237581 L 149.213943 43.100036 L 149.118296 42.758873 L 149.041508 42.721116 L 148.239956 42.764267 L 148.238608 43.207914 L 147.923376 43.818772 L 147.876226 44.425584 L 147.217471 44.354115 L 145.967318 44.433675 L 145.754469 44.406706 L 145.370532 44.192299 L 144.886906 44.661567 L 144.09613 44.795065 L 143.938514 44.933958 L 143.814576 45.273773 L 142.65603 43.001598 L 142.479553 42.812812 L 142.230331 42.704934 L 139.942875 42.698192 L 138.916349 43.025871 L 137.438528 42.988113 L 135.625268 43.32658 L 134.946306 42.518845 L 134.627032 42.026653 L 133.607241 41.303872 L 133.32434 40.951921 L 133.216568 40.573001 L 133.217916 39.98237 L 133.522371 38.771443 L 131.990664 37.836952 L 131.478748 37.346108 L 131.000511 37.048096 L 130.262274 36.334754 L 129.533468 35.973364 L 126.999483 35.602534 L 126.347464 35.334188 L 125.919071 35.23575 L 125.482596 35.299128 L 124.899281 35.522974 L 124.6541 33.908854 L 124.228401 32.905591 L 123.906433 31.745905 L 123.74747 30.556553 L 123.891615 29.511488 L 123.806744 28.939736 L 122.663016 26.79162 L 122.381462 25.981189 L 122.398975 25.707449 L 122.622602 25.215257 L 122.65628 24.922639 L 122.18882 23.9423 L 122.032551 22.596525 L 121.814313 22.338967 L 121.032968 21.852169 L 121.299703 21.679564 L 121.864158 21.594611 L 122.501358 21.23322 L 122.879907 21.155009 L 123.755553 20.753164 L 124.151614 20.914981 L 124.418349 20.893405 L 124.764566 21.171191 L 125.136379 21.084888 L 126.006636 20.44841 L 126.674821 20.235351 L 126.650572 19.919809 L 126.711194 19.724281 L 127.161141 18.714275 L 128.435542 17.7218 L 128.626837 17.466939 L 128.841034 17.433227 L 129.160308 17.097458 L 130.128907 16.547281 L 130.492636 16.620099 L 131.225485 15.900015 L 131.562271 15.829894 L 131.702375 15.647851 L 132.300508 15.272976 L 132.881129 15.08419 L 133.236776 15.31343 Z M 133.573562 15.419959 " stroke="rgb(100%, 100%, 100%)" stroke-width="0.5" stroke-opacity="1" stroke-miterlimit="4"/></g><path stroke-linecap="butt" transform="matrix(2.899646, 0, 0, 2.896798, 0.578524, 40.659618)" fill-opacity="1" fill="rgb(17.248535%, 44.309998%, 94.119263%)" fill-rule="nonzero" stroke-linejoin="miter" d="M 106.085021 43.597623 L 106.808439 44.150496 L 107.130407 44.987897 L 107.677349 45.604148 L 108.003359 45.718768 L 108.980041 45.760571 L 109.385532 45.907554 L 110.214028 45.39109 L 110.837757 44.760005 L 111.279621 43.776969 L 111.314647 43.566608 L 111.193404 42.637511 L 111.395476 42.443331 L 111.969361 42.667177 L 112.563453 43.557168 L 113.199306 44.251631 L 113.828424 45.361423 L 114.069563 46.177249 L 115.575674 46.469867 L 116.02158 46.492791 L 116.114533 46.281081 L 116.819091 45.592012 L 117.061578 45.265682 L 118.051731 45.683708 L 119.093076 46.246021 L 119.338257 46.531897 L 119.617116 47.19939 L 119.746442 47.756309 L 119.793592 48.841829 L 119.63867 50.226709 L 119.991623 50.52607 L 120.255664 51.10861 L 120.785093 51.832739 L 120.832243 52.053888 L 120.760844 52.612155 L 120.906336 53.371345 L 120.529135 53.53451 L 120.169446 53.875673 L 119.014941 55.92535 L 118.800745 56.859841 L 118.546134 57.485532 L 118.19857 58.045148 L 118.155461 58.534643 L 118.26458 58.847488 L 118.551522 59.07538 L 118.889656 59.861539 L 119.371935 60.498018 L 119.564577 60.697591 L 120.235457 60.827045 L 120.49815 61.023922 L 121.260636 62.265864 L 121.229651 62.511286 L 121.054522 62.729738 L 120.783746 62.857843 L 120.01183 63.029099 L 119.769344 63.553654 L 119.273593 64.279132 L 119.08634 64.435555 L 118.342715 64.56366 L 117.988415 64.817172 L 117.23536 65.058549 L 116.466138 65.430727 L 115.307592 66.881682 L 114.757956 67.37792 L 114.729665 67.60716 L 114.352464 68.238245 L 113.510497 68.720998 L 113.492984 69.13363 L 113.331327 69.326461 L 112.024594 70.20971 L 111.108533 70.197574 L 110.439001 70.296013 L 109.011025 71.326245 L 107.639629 71.655272 L 106.343673 71.521773 L 106.132171 71.428729 L 105.35352 71.892603 L 105.208028 71.742923 L 103.929585 71.43682 L 102.771039 71.543349 L 102.504303 71.39232 L 101.484513 71.531213 L 101.167933 71.63909 L 101.239332 71.613469 L 101.227208 70.546828 L 101.48586 68.12767 L 101.35384 66.62817 L 101.000887 65.700421 L 101.002234 64.629735 L 101.1127 63.21384 L 100.581924 61.505326 L 100.323272 60.299792 L 99.575605 58.746353 L 99.764206 57.101218 L 100.06462 56.664313 L 100.533427 54.920739 L 103.396115 54.795331 L 103.421711 54.208746 L 103.627824 53.545298 L 103.974041 53.347072 L 104.565439 53.235149 L 103.976735 51.501015 L 103.642643 49.832955 L 103.763886 48.685406 L 104.099326 47.338283 L 104.309481 46.966105 L 104.40917 46.320187 L 104.661086 45.613588 L 105.451862 44.768096 L 105.838493 44.178814 Z M 106.085021 43.597623 " stroke="rgb(100%, 100%, 100%)" stroke-width="0.5" stroke-opacity="1" stroke-miterlimit="4"/><path stroke-linecap="butt" transform="matrix(2.899646, 0, 0, 2.896798, 0.578524, 40.659618)" fill-opacity="1" fill="rgb(17.248535%, 44.309998%, 94.119263%)" fill-rule="nonzero" stroke-linejoin="miter" d="M 105.399323 39.863705 L 105.69839 40.284428 L 105.882949 40.721333 L 106.223777 40.945179 L 106.311342 41.101602 L 106.125435 42.098122 L 106.183363 43.064976 L 106.086368 43.597623 L 105.838493 44.178814 L 105.453209 44.768096 L 104.662433 45.613588 L 104.410517 46.320187 L 104.310828 46.966105 L 104.100673 47.338283 L 103.216944 47.57022 L 102.947515 47.516281 L 102.696945 47.297829 L 102.283371 46.700456 L 102.186377 46.378171 L 102.174252 46.011387 L 102.43964 45.414014 L 102.574355 44.688536 L 102.517775 44.40266 L 102.120366 43.782363 L 102.102853 43.512669 L 102.558189 42.593011 L 101.565342 41.893154 L 101.104617 41.356463 L 101.332285 41.224312 L 101.892698 41.093511 L 102.331869 41.089465 L 103.705959 41.313312 L 104.852381 40.733469 L 105.092173 40.482653 Z M 105.399323 39.863705 " stroke="rgb(100%, 100%, 100%)" stroke-width="0.5" stroke-opacity="1" stroke-miterlimit="4"/><path stroke-linecap="butt" transform="matrix(2.899646, 0, 0, 2.896798, 0.578524, 40.659618)" fill-opacity="1" fill="rgb(17.248535%, 44.309998%, 94.119263%)" fill-rule="nonzero" stroke-linejoin="miter" d="M 29.810886 34.957965 L 32.277513 34.08011 L 32.751708 33.985717 L 32.907978 34.028868 L 33.320205 34.353849 L 34.124452 34.730073 L 34.996056 34.833905 L 35.687143 34.788057 L 36.562788 34.929647 L 36.841648 35.148099 L 37.059886 35.768396 L 37.916671 35.583656 L 39.328482 35.806153 L 39.65045 35.972015 L 40.437184 36.565343 L 40.679671 36.613888 L 41.254902 36.969884 L 41.797803 37.475561 L 42.214071 37.559166 L 42.829718 38.221266 L 42.999458 38.501748 L 43.082981 38.863139 L 43.113966 40.087551 L 43.372618 40.978891 L 44.611994 40.300609 L 45.037692 40.233186 L 45.2465 40.351851 L 45.550955 40.986981 L 45.75168 41.195995 L 46.231265 42.013168 L 46.332301 42.614587 L 47.303594 42.795282 L 47.589189 42.7791 L 48.588773 41.945745 L 48.758513 42.272075 L 48.967321 42.485133 L 49.461724 42.634814 L 49.891464 43.116218 L 49.844314 43.532896 L 50.32794 44.898898 L 51.044622 45.424802 L 52.635603 46.990377 L 52.707002 47.407055 L 53.311871 47.939701 L 53.606896 48.324016 L 53.923476 49.880152 L 53.89788 51.29335 L 53.782026 51.835436 L 53.558399 52.585186 L 52.612702 54.638908 L 52.677365 56.182908 L 52.554774 56.866583 L 52.302858 57.538122 L 52.114257 57.811862 L 51.887936 57.985815 L 51.444725 58.130101 L 51.26286 58.483401 L 51.252083 60.097522 L 51.388145 61.057633 L 51.235917 61.959761 L 51.153741 63.01022 L 51.179337 63.579275 L 50.959752 64.14024 L 50.891047 64.884596 L 50.51654 65.521074 L 50.385867 66.072599 L 50.399339 66.682109 L 50.571773 67.662447 L 50.558302 69.748533 L 47.392506 69.29275 L 46.674476 69.512551 L 46.305358 69.709427 L 45.942975 69.596156 L 45.022874 69.50446 L 44.416657 69.631216 L 43.476348 69.67167 L 43.282359 68.559181 L 42.436351 67.692114 L 42.036248 66.914046 L 41.696767 66.524337 L 41.351897 66.30184 L 41.141742 65.957979 L 41.078426 65.031579 L 40.125993 63.13428 L 39.989931 62.41959 L 39.436254 61.013134 L 39.359466 60.938968 L 38.560608 60.789287 L 38.413769 60.623425 L 38.540401 59.488012 L 38.824649 59.132016 L 38.804441 58.937836 L 37.640506 59.105046 L 36.875326 59.107743 L 36.650353 59.177864 L 36.355328 58.940533 L 35.518749 58.59937 L 35.226418 58.553522 L 35.068802 58.285176 L 34.590565 57.836135 L 34.381757 57.776802 L 33.872535 57.418108 L 33.3458 57.288655 L 33.27036 56.876023 L 32.979376 56.675101 L 32.7086 56.347422 L 32.304456 56.186954 L 31.715752 55.714989 L 30.536998 55.059631 L 30.321455 54.75218 L 29.979279 54.545864 L 29.540109 54.415062 L 29.282804 54.23167 L 29.0484 54.272124 L 28.535137 54.059066 L 28.073066 54.061762 L 27.810372 53.956582 L 27.527471 52.320886 L 27.512652 50.338632 L 27.247264 49.576746 L 27.154311 48.987464 L 27.352342 48.584271 L 28.343842 47.966671 L 28.625396 47.7199 L 28.889437 46.275687 L 29.871507 44.20848 L 29.915963 43.859226 L 29.866119 43.632683 L 29.513166 42.912599 L 29.339384 42.357029 L 30.037207 42.522891 L 30.563941 42.971932 L 30.737723 42.665829 L 31.455753 41.829776 L 31.761555 41.735383 L 32.848703 41.672005 L 33.778235 41.169025 L 33.359272 40.835953 L 32.955128 40.248019 L 32.362383 38.988546 L 31.874716 37.576697 L 31.564872 37.382517 L 31.160727 37.271942 L 30.796998 37.076414 L 30.16788 36.16215 L 29.439073 35.649731 Z M 29.810886 34.957965 " stroke="rgb(100%, 100%, 100%)" stroke-width="0.5" stroke-opacity="1" stroke-miterlimit="4"/><path stroke-linecap="butt" transform="matrix(2.899646, 0, 0, 2.896798, 0.578524, 40.659618)" fill-opacity="1" fill="rgb(17.248535%, 44.309998%, 94.119263%)" fill-rule="nonzero" stroke-linejoin="miter" d="M 76.314412 14.915631 L 77.482389 14.853601 L 77.684461 14.981706 L 77.794927 15.426701 L 78.022595 15.696396 L 78.649018 15.606048 L 79.384561 16.034862 L 79.897824 16.21286 L 80.044663 16.111725 L 80.231916 15.77191 L 80.401657 15.669426 L 80.636061 15.677517 L 81.592535 16.082059 L 82.571911 15.829894 L 82.852118 15.317475 L 83.12963 15.26893 L 83.180822 15.144871 L 83.660406 15.597957 L 84.033566 16.114422 L 84.168281 16.490646 L 84.204654 16.889793 L 84.502373 17.20129 L 84.33398 17.369849 L 84.001235 17.407606 L 84.03626 18.234219 L 84.288177 18.652246 L 84.843202 19.2658 L 85.082994 19.685175 L 84.779886 19.995323 L 84.734083 21.211645 L 84.393255 22.144787 L 84.018748 24.106813 L 83.642893 23.935557 L 83.312842 23.923421 L 83.137713 23.997587 L 82.845382 24.295599 L 81.948182 23.988148 L 81.443002 24.597657 L 81.440308 25.004896 L 82.637922 25.312347 L 83.315537 25.666995 L 84.139991 26.497654 L 83.995846 26.921074 L 84.061856 27.722066 L 84.115742 28.95322 L 84.002582 29.599138 L 83.909629 29.769046 L 83.426003 30.169542 L 82.869631 31.31844 L 83.318231 31.923904 L 83.392324 32.471383 L 83.896157 32.714108 L 84.700404 32.786925 L 84.800093 32.731638 L 84.934808 32.793668 L 84.973875 33.057968 L 84.872839 33.157755 L 84.911906 33.736249 L 85.216362 34.88245 L 84.059162 34.943132 L 83.855743 35.339582 L 83.075744 35.375991 L 82.212223 35.889759 L 81.777094 36.303739 L 81.911809 36.671872 L 82.290358 37.118216 L 82.293052 37.313745 L 82.169114 37.549727 L 81.196474 37.792452 L 80.770775 37.845042 L 80.370673 37.799194 L 79.834508 37.896284 L 79.748291 37.25576 L 78.456376 36.108211 L 77.49586 34.608711 L 77.274928 34.471166 L 76.913893 34.433409 L 76.535344 33.546115 L 75.918351 33.254845 L 75.740527 33.093028 L 75.508818 31.806586 L 74.874311 30.754779 L 74.637214 30.518796 L 73.881464 30.40957 L 73.329133 29.917378 L 73.199807 29.313262 L 72.74986 28.901979 L 72.635353 28.699708 L 72.481778 27.340448 L 72.146338 26.334489 L 71.736805 26.586653 L 71.381158 26.590698 L 71.01204 26.039173 L 70.532456 25.900281 L 70.289969 25.749252 L 69.833286 25.186939 L 69.678364 24.361675 L 69.681058 24.043435 L 69.889866 23.446062 L 70.131006 23.134565 L 70.528414 23.006461 L 70.758776 22.639676 L 71.3852 22.076015 L 72.889963 21.629671 L 73.20789 21.466506 L 73.624159 21.045783 L 74.078147 20.092413 L 74.276178 20.01555 L 74.821773 20.056005 L 75.395657 19.644721 L 75.076384 19.314345 L 74.673586 19.08106 L 72.454835 18.166796 L 72.100535 17.940253 L 72.006235 17.688088 L 72.153074 17.233653 L 72.732347 16.42457 L 73.281983 15.839334 L 73.570273 14.947994 L 73.979806 14.527271 L 74.85141 14.048563 L 75.593688 14.341182 L 75.922392 14.761905 Z M 76.314412 14.915631 " stroke="rgb(100%, 100%, 100%)" stroke-width="0.5" stroke-opacity="1" stroke-miterlimit="4"/><path stroke-linecap="butt" transform="matrix(2.899646, 0, 0, 2.896798, 0.578524, 40.659618)" fill-opacity="1" fill="rgb(17.248535%, 44.309998%, 94.119263%)" fill-rule="nonzero" stroke-linejoin="miter" d="M 53.68099 35.227659 L 54.016429 34.852784 L 54.380159 34.639725 L 55.549483 34.4415 L 55.669379 35.411051 L 55.862021 35.760305 L 56.276942 36.055621 L 56.446683 36.279467 L 56.617771 36.352284 L 57.644297 36.411617 L 57.880048 36.364421 L 58.292275 36.137877 L 58.62502 35.664564 L 58.758388 35.574216 L 59.892686 35.324749 L 60.106882 35.210129 L 60.356105 35.196644 L 60.373617 36.03809 L 60.997347 36.97393 L 61.163046 38.331841 L 61.161699 38.857745 L 61.264082 39.300043 L 61.988847 38.90629 L 63.779206 38.388477 L 63.637755 39.029001 L 63.779206 39.80572 L 64.583453 40.243974 L 65.007804 40.906073 L 65.327078 40.954618 L 65.869979 40.893937 L 66.777956 40.993724 L 67.408421 40.81168 L 67.66842 40.977542 L 67.95671 40.982936 L 68.560232 42.110258 L 68.992666 42.760222 L 68.911837 43.055537 L 69.136811 43.662349 L 68.99536 44.189602 L 68.968418 45.565043 L 68.774428 45.922388 L 68.134533 46.391656 L 67.963446 46.774622 L 67.954016 47.481221 L 68.131839 48.581574 L 68.006554 49.130402 L 67.734431 49.588882 L 67.730389 50.066241 L 67.339716 50.615069 L 67.230597 50.919824 L 67.211737 53.196044 L 67.448835 53.797462 L 67.654949 54.083338 L 68.526553 54.401577 L 69.388727 55.054238 L 69.485722 55.27269 L 69.28365 55.554521 L 69.206863 56.432376 L 69.658157 57.307534 L 70.015151 58.567006 L 70.360021 60.191915 L 70.539191 60.597805 L 70.236083 60.968634 L 69.345619 61.277434 L 67.989041 61.970549 L 67.396297 62.070336 L 64.605007 62.073033 L 63.492264 62.220016 L 63.004596 62.133714 L 62.778275 62.009654 L 61.656102 60.702985 L 60.626881 60.007174 L 60.245638 59.899296 L 59.883256 59.93975 L 58.868854 60.209445 L 58.688336 60.423852 L 58.65331 60.69894 L 58.820357 61.985382 L 58.823051 64.306102 L 59.015693 66.215537 L 59.440044 68.649529 L 59.542428 69.535475 L 59.547816 70.558965 L 59.048025 70.665494 L 55.833731 70.375572 L 52.841717 70.20971 L 51.708766 69.902259 L 50.558302 69.748533 L 50.570426 67.662447 L 50.397991 66.682109 L 50.38452 66.072599 L 50.515193 65.521074 L 50.8897 64.884596 L 50.959752 64.14024 L 51.17799 63.579275 L 51.152394 63.01022 L 51.235917 61.959761 L 51.388145 61.057633 L 51.250736 60.097522 L 51.261513 58.483401 L 51.444725 58.130101 L 51.886589 57.985815 L 52.114257 57.811862 L 52.302858 57.538122 L 52.554774 56.866583 L 52.676018 56.182908 L 52.611355 54.638908 L 53.557052 52.585186 L 53.780678 51.835436 L 53.896533 51.29335 L 53.923476 49.880152 L 53.605549 48.324016 L 53.311871 47.939701 L 52.705655 47.407055 L 52.634256 46.990377 L 51.043275 45.424802 L 50.32794 44.898898 L 49.844314 43.532896 L 49.890117 43.116218 L 49.460377 42.634814 L 50.088148 41.5884 L 50.284831 40.804938 L 50.3468 39.981022 L 50.539442 39.608843 L 50.885659 39.216438 L 50.984001 38.594793 L 51.288456 38.357462 L 51.925657 38.4559 L 52.271873 38.302174 L 52.750111 37.925951 L 52.93467 37.548379 L 52.992597 36.479041 L 53.523373 35.878971 Z M 53.68099 35.227659 " stroke="rgb(100%, 100%, 100%)" stroke-width="0.5" stroke-opacity="1" stroke-miterlimit="4"/><path fill="rgb(17.248535%, 44.309998%, 94.119263%)" d="M 34.765625 90.582031 L 36.058594 91.230469 L 36.691406 91.976562 L 37.515625 95.449219 L 38.363281 96.902344 L 40.65625 98.390625 L 42.171875 99.941406 L 43.402344 102.386719 L 43.398438 103.28125 L 44.539062 105.363281 L 45.691406 106.253906 L 46.800781 106.078125 L 47.84375 106.691406 L 49.273438 110.464844 L 49.636719 111.941406 L 51.121094 113.34375 L 52.246094 114.027344 L 53.417969 115.914062 L 53.859375 117.328125 L 54.207031 119.964844 L 53.003906 119.257812 L 52.171875 119.054688 L 51.375 119.292969 L 50.019531 120.226562 L 48.542969 120.867188 L 45.578125 120.390625 L 45.285156 120.683594 L 46.441406 122.34375 L 46.683594 123.113281 L 46.941406 125.5625 L 46.703125 127.988281 L 47.242188 131.90625 L 47.539062 132.738281 L 48.511719 133.855469 L 49.113281 134.96875 L 50.179688 137.886719 L 50.523438 139.449219 L 50.996094 140.03125 L 51.792969 140.402344 L 51.925781 142.390625 L 52.808594 143.710938 L 53.109375 144.535156 L 52.75 147.933594 L 53.503906 148.636719 L 54.46875 150.25 L 55.796875 151.359375 L 56.085938 152.972656 L 55.703125 155.328125 L 55.875 156.890625 L 56.71875 157.933594 L 58.492188 159.359375 L 62.695312 161.964844 L 61.597656 163.539062 L 60.527344 163.761719 L 57.535156 163.820312 L 56.238281 165.085938 L 55.277344 165.328125 L 54.273438 164.816406 L 53.550781 163.152344 L 53.203125 162.78125 L 50.101562 161.539062 L 50.207031 161.800781 L 48.746094 159.597656 L 48.816406 158.453125 L 48.371094 157.796875 L 48.085938 156.707031 L 47.316406 156.074219 L 46.027344 156 L 45.503906 155.691406 L 44.9375 154.269531 L 44.273438 153.726562 L 42.382812 150.574219 L 41.785156 149.066406 L 42 147.6875 L 41.523438 146.828125 L 41.503906 145.421875 L 41.027344 144.984375 L 39.660156 142.6875 L 39.78125 141.808594 L 38.234375 140.835938 L 36.984375 140.410156 L 36.0625 139.480469 L 35.910156 137.429688 L 35.269531 137.253906 L 34.90625 136.886719 L 34.398438 136.953125 L 34.09375 137.5 L 34.320312 138.105469 L 34.113281 138.398438 L 33.363281 138.117188 L 31.984375 138.367188 L 31.457031 137.996094 L 30.957031 136.792969 L 30.207031 136.515625 L 29.402344 135.636719 L 28.835938 134.472656 L 29.15625 133.929688 L 28.660156 133.429688 L 26.847656 133.664062 L 26.179688 133.453125 L 25.824219 133.546875 L 25.78125 133.941406 L 25.09375 133.863281 L 24.6875 134.027344 L 24.585938 134.472656 L 24.0625 134.773438 L 23.480469 135.503906 L 20.949219 135.519531 L 20.824219 135.269531 L 21.121094 134.472656 L 21.050781 133.839844 L 20.296875 132.75 L 19.316406 132.308594 L 19.050781 131.898438 L 18.070312 131.992188 L 17.714844 131.648438 L 17.128906 131.542969 L 16.742188 130.90625 L 16.269531 130.675781 L 15.808594 130.722656 L 15.164062 129.671875 L 14.566406 129.519531 L 14.382812 128.421875 L 14.851562 127.28125 L 13.585938 126.195312 L 13.535156 125.570312 L 13.207031 125.511719 L 12.550781 125.949219 L 12.035156 126.035156 L 11.175781 124.972656 L 11.164062 124.410156 L 10.945312 124.164062 L 10.257812 124.035156 L 9.5625 123.503906 L 8.644531 123.355469 L 8.074219 122.945312 L 7.71875 122.976562 L 7.359375 122.632812 L 6.632812 122.625 L 6.089844 122.164062 L 5.96875 123.332031 L 5.773438 123.492188 L 5.640625 122.644531 L 6.296875 120.328125 L 7.289062 119.34375 L 7.261719 119.007812 L 7.066406 118.78125 L 6.757812 118.859375 L 6.089844 118.003906 L 5.476562 117.804688 L 5.003906 117.996094 L 4.152344 117.210938 L 3.734375 117.257812 L 3.097656 116.699219 L 3.515625 116.078125 L 3.136719 115.527344 L 2.480469 115.328125 L 2.726562 114.1875 L 3.164062 114.308594 L 3.550781 113.9375 L 4.285156 113.796875 L 4.855469 113.113281 L 4.332031 112.175781 L 4.019531 111.820312 L 3.667969 111.753906 L 3.976562 111.207031 L 3.835938 110.785156 L 4.160156 110.214844 L 3.707031 109.609375 L 3.671875 108.96875 L 4.648438 109.144531 L 5.347656 108.761719 L 5.871094 108.878906 L 6.214844 107.632812 L 6.617188 107.449219 L 6.886719 106.960938 L 7.527344 106.96875 L 7.941406 107.4375 L 8.496094 106.703125 L 8.925781 106.496094 L 8.921875 106.222656 L 8.203125 105.234375 L 7.488281 104.578125 L 8.085938 103.757812 L 8.800781 103.355469 L 8.644531 102.71875 L 9.046875 102.175781 L 10.988281 101.628906 L 12.019531 101.789062 L 12.644531 102.273438 L 13.425781 101.972656 L 14.039062 102.195312 L 14.386719 101.535156 L 15.203125 101.195312 L 15.460938 101.363281 L 15.878906 102.359375 L 16.574219 102.574219 L 17.667969 102.5 L 18.53125 102.910156 L 18.289062 101.449219 L 18.773438 100.699219 L 19.328125 100.492188 L 19.5 100.5625 L 19.449219 101.136719 L 20.191406 102.339844 L 20.90625 101.972656 L 22.339844 101.652344 L 23.351562 100.765625 L 23.753906 100.695312 L 23.726562 100.339844 L 23.242188 99.625 L 23.410156 99.027344 L 23.964844 98.40625 L 25.011719 98.828125 L 25.941406 99.710938 L 26.917969 98.289062 L 30.332031 97.160156 L 30.59375 96.882812 L 31.148438 95.277344 L 30.855469 94.980469 L 29.921875 94.808594 L 29.671875 94.578125 L 29.816406 93.855469 L 29.625 93.390625 L 29.6875 92.691406 L 29.195312 92.171875 L 29.449219 91.277344 L 30.089844 91.128906 L 30.742188 91.25 L 31.53125 90.691406 L 33.917969 91.019531 Z M 34.765625 90.582031 " fill-opacity="1" fill-rule="nonzero"/><g clip-path="url(#id5)"><path stroke-linecap="butt" transform="matrix(2.899646, 0, 0, 2.896798, 0.578524, 40.659618)" fill="none" stroke-linejoin="miter" d="M 11.790096 17.233653 L 12.236002 17.4575 L 12.45424 17.715058 L 12.738488 18.913849 L 13.030819 19.415481 L 13.821594 19.929248 L 14.344287 20.464591 L 14.768639 21.308735 L 14.767291 21.617535 L 15.160659 22.33627 L 15.558067 22.643722 L 15.940657 22.58304 L 16.300345 22.79475 L 16.793401 24.097374 L 16.918686 24.607096 L 17.430602 25.091198 L 17.81858 25.32718 L 18.222724 25.978492 L 18.374952 26.466639 L 18.494848 27.376857 L 18.079927 27.132784 L 17.792984 27.062663 L 17.518166 27.14492 L 17.050706 27.467205 L 16.541485 27.688354 L 15.519 27.523841 L 15.417964 27.624976 L 15.816719 28.198076 L 15.900242 28.463725 L 15.989154 29.309217 L 15.906978 30.146618 L 16.092884 31.499135 L 16.195268 31.786359 L 16.530707 32.172022 L 16.738168 32.556337 L 17.105939 33.563645 L 17.224488 34.103034 L 17.387493 34.303956 L 17.662311 34.432061 L 17.708114 35.118433 L 18.012569 35.574216 L 18.1163 35.858744 L 17.992362 37.031914 L 18.252362 37.274639 L 18.585107 37.831558 L 19.043137 38.214524 L 19.142826 38.771443 L 19.010806 39.584571 L 19.07008 40.12396 L 19.361064 40.484001 L 19.972669 40.976194 L 21.422199 41.875624 L 21.043651 42.419058 L 20.674533 42.495921 L 19.642618 42.516148 L 19.195365 42.953053 L 18.863967 43.036658 L 18.51775 42.860009 L 18.268527 42.28556 L 18.148631 42.157455 L 17.078996 41.728641 L 17.115369 41.818988 L 16.611536 41.05845 L 16.635785 40.663348 L 16.48221 40.436805 L 16.383868 40.060581 L 16.11848 39.842129 L 15.673922 39.816508 L 15.493404 39.709979 L 15.298068 39.219135 L 15.069053 39.031698 L 14.417033 37.943481 L 14.21092 37.422971 L 14.285013 36.94696 L 14.120661 36.650297 L 14.113925 36.164847 L 13.949573 36.013818 L 13.478071 35.220917 L 13.519833 34.917511 L 12.986363 34.581741 L 12.555276 34.434758 L 12.237349 34.113821 L 12.18481 33.405874 L 11.963878 33.345193 L 11.838593 33.218436 L 11.663464 33.24136 L 11.558387 33.430146 L 11.636521 33.639159 L 11.565122 33.740295 L 11.30647 33.643205 L 10.830927 33.729507 L 10.649062 33.601402 L 10.476627 33.186073 L 10.217975 33.090331 L 9.940463 32.786925 L 9.745126 32.385081 L 9.855592 32.197643 L 9.684505 32.025039 L 9.059428 32.105947 L 8.829066 32.03313 L 8.706476 32.065493 L 8.691657 32.201689 L 8.454559 32.174719 L 8.314456 32.231355 L 8.27943 32.385081 L 8.098912 32.488913 L 7.898187 32.741077 L 7.025236 32.746471 L 6.982127 32.660169 L 7.08451 32.385081 L 7.060262 32.166628 L 6.800262 31.790405 L 6.462128 31.638028 L 6.370522 31.496438 L 6.032388 31.528801 L 5.909798 31.410136 L 5.707726 31.373727 L 5.574358 31.153926 L 5.411353 31.074366 L 5.25239 31.090548 L 5.030111 30.727809 L 4.823997 30.675219 L 4.760681 30.296298 L 4.922339 29.902545 L 4.485863 29.527669 L 4.46835 29.311914 L 4.35519 29.291687 L 4.128869 29.442716 L 3.951046 29.472382 L 3.654673 29.105598 L 3.650632 28.911418 L 3.575191 28.826464 L 3.338093 28.781965 L 3.098301 28.598572 L 2.781722 28.547331 L 2.585038 28.405741 L 2.462448 28.416529 L 2.33851 28.297863 L 2.087941 28.295166 L 1.900687 28.136047 L 1.858926 28.53924 L 1.791568 28.594527 L 1.745765 28.301909 L 1.972086 27.502265 L 2.314262 27.16245 L 2.304831 27.046482 L 2.237474 26.96827 L 2.131049 26.99524 L 1.900687 26.699924 L 1.689185 26.631152 L 1.52618 26.697227 L 1.232502 26.426185 L 1.088357 26.442366 L 0.868772 26.249535 L 1.012917 26.035128 L 0.882244 25.844993 L 0.655923 25.776221 L 0.740793 25.382468 L 0.891674 25.42427 L 1.025041 25.296165 L 1.278305 25.24762 L 1.474989 25.011638 L 1.294471 24.688005 L 1.186699 24.565294 L 1.065456 24.54237 L 1.171881 24.353584 L 1.123383 24.207949 L 1.235196 24.011072 L 1.078927 23.802059 L 1.066803 23.580909 L 1.40359 23.641591 L 1.644729 23.50944 L 1.825247 23.549895 L 1.943796 23.119732 L 2.082552 23.056354 L 2.175505 22.887795 L 2.396437 22.890492 L 2.539235 23.052309 L 2.73053 22.798796 L 2.878716 22.727327 L 2.877369 22.632934 L 2.629494 22.291771 L 2.382966 22.065227 L 2.58908 21.782048 L 2.835608 21.643156 L 2.781722 21.423355 L 2.920478 21.235917 L 3.59001 21.047131 L 3.945657 21.102419 L 4.161201 21.269629 L 4.43063 21.165797 L 4.642132 21.24266 L 4.762028 21.014768 L 5.043582 20.897451 L 5.132494 20.955435 L 5.276638 21.299295 L 5.516431 21.373461 L 5.893632 21.34784 L 6.191352 21.48943 L 6.107828 20.985102 L 6.274875 20.726195 L 6.46617 20.654726 L 6.525444 20.678998 L 6.507931 20.877224 L 6.763889 21.292553 L 7.010417 21.165797 L 7.50482 21.055222 L 7.853731 20.749119 L 7.992488 20.724847 L 7.983058 20.602136 L 7.816011 20.355365 L 7.873939 20.149049 L 8.065233 19.934642 L 8.426269 20.080277 L 8.74689 20.385032 L 9.083677 19.894188 L 10.261084 19.50448 L 10.351343 19.408738 L 10.542637 18.854516 L 10.441601 18.752032 L 10.119633 18.6927 L 10.033416 18.61314 L 10.08326 18.363673 L 10.01725 18.203205 L 10.038804 17.961828 L 9.869064 17.782481 L 9.956628 17.473681 L 10.177561 17.422439 L 10.402534 17.464242 L 10.674658 17.271411 L 11.497765 17.384682 Z M 11.790096 17.233653 " stroke="rgb(100%, 100%, 100%)" stroke-width="0.5" stroke-opacity="1" stroke-miterlimit="4"/></g><path stroke-linecap="butt" transform="matrix(2.899646, 0, 0, 2.896798, 0.578524, 40.659618)" fill-opacity="1" fill="rgb(17.248535%, 44.309998%, 94.119263%)" fill-rule="nonzero" stroke-linejoin="miter" d="M 56.950516 30.185724 L 57.904296 30.63881 L 59.757971 30.319222 L 60.089369 30.187072 L 60.25911 29.95918 L 60.477348 29.25393 L 60.496208 28.772525 L 61.25061 29.024689 L 61.877034 29.414398 L 62.291955 29.507442 L 62.553302 29.384731 L 62.626048 28.965357 L 62.768845 28.817025 L 63.920656 28.598572 L 63.463973 27.9567 L 63.354855 27.689703 L 63.338689 27.379554 L 63.430295 26.939952 L 63.853299 26.005461 L 64.737028 25.483603 L 64.529567 25.21256 L 63.920656 24.917245 L 64.782831 24.096026 L 65.045524 23.354366 L 65.960238 23.918027 L 67.888005 24.782398 L 68.398574 25.168061 L 69.002096 25.284029 L 69.833286 25.186939 L 70.291316 25.749252 L 70.532456 25.900281 L 71.013387 26.039173 L 71.381158 26.590698 L 71.738152 26.586653 L 72.146338 26.334489 L 72.481778 27.340448 L 72.635353 28.699708 L 72.751207 28.901979 L 73.199807 29.313262 L 73.329133 29.917378 L 73.881464 30.40957 L 74.637214 30.518796 L 74.875659 30.754779 L 75.508818 31.806586 L 75.741874 33.093028 L 75.918351 33.254845 L 76.535344 33.544766 L 76.913893 34.433409 L 77.274928 34.471166 L 77.497207 34.608711 L 78.456376 36.108211 L 79.748291 37.25576 L 79.834508 37.896284 L 79.574509 38.179463 L 79.047774 38.360159 L 78.390366 38.379037 L 77.635963 38.281947 L 77.270887 38.102601 L 76.672753 37.463425 L 76.175656 37.332623 L 75.82405 37.06158 L 75.260943 36.948309 L 75.044052 36.706932 L 74.800218 36.810765 L 74.683017 37.041353 L 74.759804 37.301608 L 75.089855 37.695362 L 75.093896 37.974496 L 74.835244 38.449158 L 74.418976 38.784927 L 74.269442 39.154408 L 74.15224 39.879886 L 74.037733 40.072718 L 73.815454 40.237231 L 73.575661 40.088899 L 73.087994 39.596707 L 72.639394 39.554905 L 71.146755 39.997203 L 70.915045 40.212959 L 70.738569 40.55547 L 70.521678 40.693015 L 69.650074 40.802241 L 68.573703 40.834604 L 67.958057 40.982936 L 67.669767 40.977542 L 67.409768 40.81168 L 66.779303 40.993724 L 65.871326 40.893937 L 65.328425 40.954618 L 65.009151 40.906073 L 64.5848 40.243974 L 63.780553 39.80572 L 63.637755 39.029001 L 63.780553 38.388477 L 61.988847 38.90629 L 61.264082 39.301392 L 61.163046 38.857745 L 61.163046 38.331841 L 60.997347 36.97393 L 60.374965 36.03809 L 60.357452 35.197993 L 60.108229 35.210129 L 59.894033 35.324749 L 58.759735 35.574216 L 58.626367 35.664564 L 58.292275 36.137877 L 57.881395 36.364421 L 57.645644 36.412966 L 56.617771 36.352284 L 56.44803 36.279467 L 56.27829 36.055621 L 55.863368 35.760305 L 55.670726 35.411051 L 55.55083 34.4415 L 54.381506 34.639725 L 54.017776 34.852784 L 53.682337 35.227659 L 52.891561 34.916162 L 52.63695 34.642422 L 52.494153 34.278335 L 52.498194 33.786143 L 52.66524 32.968969 L 52.611355 32.414747 L 52.793219 31.890192 L 53.024929 31.694663 L 53.264721 31.621846 L 54.013735 31.666345 L 54.315496 31.592179 L 54.890728 31.187638 L 55.117049 30.881535 L 56.377978 30.34754 Z M 56.950516 30.185724 " stroke="rgb(100%, 100%, 100%)" stroke-width="0.5" stroke-opacity="1" stroke-miterlimit="4"/></svg>