<svg xmlns="http://www.w3.org/2000/svg" xmlns:xlink="http://www.w3.org/1999/xlink" width="411" zoomAndPan="magnify" viewBox="0 0 308.25 262.500001" height="350" preserveAspectRatio="xMidYMid meet" version="1.0"><defs><clipPath id="id1"><path d="M 0 0.0703125 L 307.5 0.0703125 L 307.5 261.933594 L 0 261.933594 Z M 0 0.0703125 " clip-rule="nonzero"/></clipPath><clipPath id="id2"><path d="M 103 239 L 132 239 L 132 261.933594 L 103 261.933594 Z M 103 239 " clip-rule="nonzero"/></clipPath><clipPath id="id3"><path d="M 94.382812 193 L 133 193 L 133 238 L 94.382812 238 Z M 94.382812 193 " clip-rule="nonzero"/></clipPath><clipPath id="id4"><path d="M 134 0.0703125 L 212 0.0703125 L 212 90 L 134 90 Z M 134 0.0703125 " clip-rule="nonzero"/></clipPath><clipPath id="id5"><path d="M 130 0.0703125 L 213.34375 0.0703125 L 213.34375 95 L 130 95 Z M 130 0.0703125 " clip-rule="nonzero"/></clipPath></defs><g clip-path="url(#id1)"><path fill="rgb(100%, 100%, 100%)" d="M 0 0.0703125 L 307.5 0.0703125 L 307.5 261.933594 L 0 261.933594 Z M 0 0.0703125 " fill-opacity="1" fill-rule="nonzero"/><path fill="rgb(100%, 100%, 100%)" d="M 0 0.0703125 L 307.5 0.0703125 L 307.5 261.933594 L 0 261.933594 Z M 0 0.0703125 " fill-opacity="1" fill-rule="nonzero"/><path fill="rgb(100%, 100%, 100%)" d="M 0 0.0703125 L 307.5 0.0703125 L 307.5 261.933594 L 0 261.933594 Z M 0 0.0703125 " fill-opacity="1" fill-rule="nonzero"/></g><path fill="rgb(17.248535%, 44.309998%, 94.119263%)" d="M 111.902344 260.890625 L 123.667969 260.765625 L 126.917969 250.507812 L 126.808594 243.867188 L 117.738281 244.714844 L 112.582031 243.917969 L 108.574219 246.589844 L 113.839844 256.097656 Z M 111.902344 260.890625 " fill-opacity="1" fill-rule="nonzero"/><g clip-path="url(#id2)"><path stroke-linecap="butt" transform="matrix(1.629596, 0, 0, 1.626394, 94.384485, 0.0759112)" fill="none" stroke-linejoin="miter" d="M 10.749814 160.363812 L 17.969776 160.286955 L 19.964135 153.979865 L 19.897017 149.896829 L 14.331031 150.418016 L 11.166904 149.928052 L 8.707514 151.570873 L 11.938759 157.416821 Z M 10.749814 160.363812 " stroke="rgb(100%, 100%, 100%)" stroke-width="0.5" stroke-opacity="1" stroke-miterlimit="4"/></g><path fill="rgb(17.248535%, 44.309998%, 94.119263%)" d="M 102.699219 224.988281 L 102.253906 225.132812 L 102.726562 225.382812 Z M 101.621094 224.246094 L 101.398438 223.777344 L 101.230469 224.332031 Z M 101.445312 221.230469 L 100.769531 221.53125 L 101.027344 221.875 Z M 102.355469 218.394531 L 100.25 218.894531 L 101.097656 220.414062 Z M 102.796875 215.292969 L 99.453125 217.195312 L 99.898438 218.167969 L 102.929688 217.285156 Z M 96.042969 204.089844 L 95.832031 204.859375 L 96.484375 204.859375 Z M 107.003906 199.148438 L 102.984375 198.460938 L 101.242188 204.488281 L 96.851562 203.46875 L 97.832031 213.636719 L 103.609375 213.859375 L 102.964844 214.367188 L 103.671875 215.78125 L 102.53125 220.964844 L 101.632812 221.988281 L 103.871094 226.171875 L 114.378906 233.054688 L 122.980469 221.304688 L 128.3125 207.515625 L 124.816406 202.40625 L 121.738281 201.855469 L 119.242188 209.367188 L 108.027344 213.332031 L 111.417969 201.640625 Z M 107.003906 199.148438 " fill-opacity="1" fill-rule="nonzero"/><g clip-path="url(#id3)"><path stroke-linecap="butt" transform="matrix(1.629596, 0, 0, 1.626394, 94.384485, 0.0759112)" fill="none" stroke-linejoin="miter" d="M 5.102327 138.288997 L 4.829062 138.377863 L 5.119107 138.531577 Z M 4.440737 137.832657 L 4.304104 137.544443 L 4.20103 137.885496 Z M 4.332869 135.978478 L 3.918177 136.163416 L 4.076383 136.374773 Z M 4.891385 134.234782 L 3.599367 134.54221 L 4.11953 135.476505 Z M 5.162254 132.327764 L 3.110365 133.497433 L 3.383631 134.095478 L 5.243754 133.552674 Z M 1.017727 125.439441 L 0.888285 125.912593 L 1.288595 125.912593 Z M 7.743894 122.401182 L 5.277313 121.978467 L 4.208222 125.684423 L 1.51392 125.057557 L 2.115583 131.309406 L 5.660843 131.446308 L 5.265328 131.75854 L 5.699197 132.627987 L 4.999253 135.815157 L 4.447928 136.444425 L 5.821447 139.016738 L 12.269554 143.248685 L 17.547893 136.024112 L 20.819888 127.545808 L 18.674514 124.404271 L 16.785626 124.06562 L 15.253901 128.684254 L 8.371925 131.122067 L 10.452578 123.933521 Z M 7.743894 122.401182 " stroke="rgb(100%, 100%, 100%)" stroke-width="0.5" stroke-opacity="1" stroke-miterlimit="4"/></g><path stroke-linecap="butt" transform="matrix(1.629596, 0, 0, 1.626394, 94.384485, 0.0759112)" fill-opacity="1" fill="rgb(17.248535%, 44.309998%, 94.119263%)" fill-rule="nonzero" stroke-linejoin="miter" d="M 21.539008 154.493847 L 21.577361 154.371356 L 21.467096 154.328124 Z M 26.565655 154.196026 L 26.580037 154.380963 L 26.692699 154.18882 Z M 25.973579 153.345793 L 26.088638 153.78532 L 26.249242 153.362606 Z M 22.248539 153.295356 L 22.109509 153.319374 L 22.217377 153.437061 Z M 24.906885 153.533133 L 24.962018 153.292954 L 24.703134 153.42265 Z M 25.362328 153.480293 L 25.213709 153.256927 L 25.108239 153.437061 Z M 25.717093 153.506713 L 25.724284 153.204088 L 25.534916 153.439463 Z M 26.421831 153.216097 L 26.184521 153.225704 L 26.407448 153.468284 Z M 24.53534 153.007141 L 24.461031 152.93749 L 24.461031 153.069588 Z M 25.55649 149.661453 L 24.300427 149.851195 L 19.897017 149.896829 L 19.964135 153.979865 L 21.11233 154.203231 L 20.65449 153.374615 L 20.882211 152.889454 L 24.31481 153.144043 L 24.51856 152.774168 L 24.926062 153.040766 L 25.496563 152.493159 L 26.783788 152.968713 L 26.580037 153.477892 L 26.918023 153.670034 L 28.066218 151.265847 Z M 25.55649 149.661453 " stroke="rgb(100%, 100%, 100%)" stroke-width="0.5" stroke-opacity="1" stroke-miterlimit="4"/><path stroke-linecap="butt" transform="matrix(1.629596, 0, 0, 1.626394, 94.384485, 0.0759112)" fill-opacity="1" fill="rgb(17.248535%, 44.309998%, 94.119263%)" fill-rule="nonzero" stroke-linejoin="miter" d="M 41.583272 111.722841 L 41.432257 111.833323 L 41.77264 111.876555 Z M 41.393904 111.946207 L 41.37233 111.766073 L 40.964829 111.602752 Z M 41.837361 111.076761 L 41.705522 110.959073 L 41.638404 111.086368 Z M 40.775461 109.107296 L 40.576504 110.036787 L 41.458625 110.711689 Z M 40.622049 108.487635 L 40.562122 108.281082 L 40.355974 108.391564 Z M 36.659699 108.578903 L 35.084826 107.274733 L 34.279412 110.690073 L 34.111618 115.116565 L 31.930288 116.173351 L 32.886717 118.997851 L 35.449181 120.544601 L 41.393904 112.71718 Z M 36.659699 108.578903 " stroke="rgb(100%, 100%, 100%)" stroke-width="0.5" stroke-opacity="1" stroke-miterlimit="4"/><path stroke-linecap="butt" transform="matrix(1.629596, 0, 0, 1.626394, 94.384485, 0.0759112)" fill-opacity="1" fill="rgb(17.248535%, 44.309998%, 94.119263%)" fill-rule="nonzero" stroke-linejoin="miter" d="M 37.716805 127.029424 L 37.652084 126.918941 L 37.702422 127.305629 Z M 36.930567 126.181593 L 36.793934 126.018272 L 36.908994 126.316093 Z M 39.013617 126.030281 L 39.162235 125.682022 L 38.917735 126.013468 Z M 37.628113 126.092727 L 37.625716 125.617173 L 37.323686 126.673959 Z M 39.255721 125.549923 L 39.56734 125.192057 L 39.349207 125.216075 Z M 40.320018 124.91345 L 39.461869 125.497084 L 40.118665 125.333763 Z M 38.582146 125.18245 L 38.58694 124.829388 L 38.380792 125.280923 Z M 39.584119 124.320209 L 38.977661 124.337021 L 38.694808 124.9807 Z M 39.38756 124.046405 L 39.279692 123.976753 L 39.191 124.104048 Z M 41.345962 123.943128 L 41.194947 123.993566 L 41.156594 124.260164 Z M 36.750787 125.355379 L 36.618949 123.825441 L 36.419992 125.023932 Z M 41.662375 123.750986 L 41.765449 123.479584 L 41.624022 123.587664 Z M 42.388686 123.623691 L 42.501348 123.395521 L 42.321568 123.546834 Z M 40.866549 123.979155 L 40.991197 123.359494 L 40.2529 124.226539 Z M 41.549713 123.292244 L 41.616831 123.215387 L 41.477801 123.275432 Z M 41.959611 122.612539 L 41.868523 122.634155 L 41.799008 122.787869 Z M 42.376701 122.511664 L 42.125009 122.396378 L 41.957214 122.730227 Z M 40.713137 122.35795 L 40.701152 122.281093 L 40.595681 122.259476 Z M 41.719905 122.132182 L 41.571287 122.218646 L 41.710316 122.23786 Z M 42.594834 121.858378 L 42.767422 121.553351 L 42.295201 121.836762 Z M 43.395454 121.714271 L 43.342718 121.526932 L 43.244439 121.572566 Z M 41.226109 121.560557 L 40.26968 121.450075 L 41.703125 121.879994 Z M 43.203688 121.3492 L 43.249233 121.329985 L 43.038291 121.3492 Z M 43.318748 120.859235 L 43.126982 120.885655 L 43.050276 121.2147 Z M 42.163362 120.667092 L 42.053097 121.445271 L 42.424642 121.106619 Z M 43.059865 120.498967 L 43.057467 120.390887 L 42.956791 120.434119 Z M 43.503322 120.614253 L 43.359498 120.32844 L 43.239644 120.383682 Z M 40.590887 120.278003 L 40.365563 120.191539 L 40.729917 120.470146 Z M 43.901235 120.208351 L 43.884455 120.181932 L 43.867676 120.213155 Z M 43.548866 120.15311 L 43.500925 120.450932 L 43.668719 120.225164 Z M 40.231327 120.157914 L 40.336798 120.11228 L 40.053944 120.021012 Z M 44.963135 120.04503 L 44.958341 119.917735 L 44.886429 119.932146 Z M 43.29238 120.201146 L 43.306762 119.893717 L 43.033497 120.131494 Z M 46.526022 119.960967 L 46.509242 119.88411 L 46.45411 119.908128 Z M 42.362318 119.77603 L 41.866126 119.965771 L 42.235274 119.95136 Z M 42.85132 119.581485 L 42.788996 119.516637 L 42.216097 119.651137 Z M 44.723428 119.293271 L 44.653913 119.343708 L 44.646722 119.420565 Z M 42.089053 118.966628 L 41.158991 119.514235 L 41.403492 120.155512 Z M 44.054647 118.491074 L 43.89644 118.567931 L 44.188883 118.536708 Z M 44.562825 118.44544 L 44.75459 118.349369 L 44.71384 118.274913 Z M 45.147709 118.152422 L 45.09737 118.186047 L 45.071003 118.272512 Z M 43.647146 118.034735 L 43.524895 117.720101 L 43.021511 118.325351 Z M 44.047456 117.787351 L 43.968352 117.696083 L 43.889249 117.825779 Z M 42.621201 118.551119 L 43.37388 117.676869 L 42.477378 118.53911 Z M 44.608369 117.73211 L 44.555634 117.633637 L 44.440574 117.660056 Z M 43.220468 117.547172 L 42.942408 117.590404 L 43.177321 117.674467 Z M 44.790546 117.657654 L 44.826502 117.551976 L 44.735414 117.539967 Z M 44.65631 117.489529 L 44.649119 117.472717 L 44.644325 117.482324 Z M 45.938741 117.182101 L 45.967505 117.122056 L 45.895593 117.19411 Z M 44.579604 116.749779 L 44.356677 116.639297 L 44.404618 116.747377 Z M 44.768972 116.543226 L 44.845679 116.331868 L 44.625148 116.437547 Z M 44.284765 116.423136 L 44.339898 116.264618 L 44.196074 116.307851 Z M 43.740631 116.012431 L 43.560851 115.476833 L 43.167732 116.221386 Z M 44.466942 115.678583 L 44.505295 115.469627 L 44.27278 115.808279 Z M 42.386289 112.962163 L 41.393904 112.71718 L 35.449181 120.547003 L 34.615002 122.629351 L 36.206653 124.93987 L 36.597375 122.814289 L 37.85104 126.01587 L 38.498248 124.108852 L 40.696358 123.073682 L 39.984429 121.202691 L 41.844552 121.28195 L 38.471881 120.302021 L 44.179294 116.692136 L 42.355127 116.487985 L 43.37388 115.599324 L 43.17013 114.773109 L 43.965955 115.784261 L 44.162515 115.130975 Z M 39.759105 120.741548 L 39.442692 121.036967 L 38.98725 120.626262 Z M 42.621201 112.131145 L 42.237671 111.742055 L 42.304789 112.352109 Z M 42.621201 112.131145 " stroke="rgb(100%, 100%, 100%)" stroke-width="0.5" stroke-opacity="1" stroke-miterlimit="4"/><path stroke-linecap="butt" transform="matrix(1.629596, 0, 0, 1.626394, 94.384485, 0.0759112)" fill-opacity="1" fill="rgb(17.248535%, 44.309998%, 94.119263%)" fill-rule="nonzero" stroke-linejoin="miter" d="M 42.625996 136.442023 L 39.111897 139.364997 L 39.16703 145.561605 L 43.385865 140.914149 L 42.520525 138.577211 L 44.236824 136.583728 Z M 44.970326 134.924094 L 43.977941 135.781532 L 45.593563 135.193094 Z M 45.339474 131.268576 L 45.557607 131.090844 L 44.785752 130.812237 Z M 45.339474 131.268576 " stroke="rgb(100%, 100%, 100%)" stroke-width="0.5" stroke-opacity="1" stroke-miterlimit="4"/><path stroke-linecap="butt" transform="matrix(1.629596, 0, 0, 1.626394, 94.384485, 0.0759112)" fill-opacity="1" fill="rgb(17.248535%, 44.309998%, 94.119263%)" fill-rule="nonzero" stroke-linejoin="miter" d="M 45.991476 75.04997 L 45.977094 74.896256 L 45.95552 75.0908 Z M 46.547595 74.949095 L 46.638684 75.011541 L 46.401374 74.708916 Z M 48.587498 74.48555 L 48.544351 74.672889 L 48.606675 74.658479 Z M 48.491616 73.889907 L 48.470042 73.572871 L 48.472439 73.993184 Z M 53.316909 73.118934 L 53.307321 72.926791 L 53.149115 73.190987 Z M 50.519533 72.427219 L 50.608225 72.583336 L 50.63699 72.513684 Z M 53.650101 72.633773 L 53.789131 72.254291 L 53.568601 72.525693 Z M 52.23823 71.552969 L 52.142347 71.497728 L 52.23823 71.694675 Z M 54.00247 72.016514 L 54.215809 71.0558 L 53.753175 72.040532 Z M 54.064794 71.067809 L 53.767558 70.7868 L 53.628528 71.142264 Z M 52.892629 70.714746 L 52.933379 70.616273 L 52.856673 70.767585 Z M 54.549001 70.71955 L 54.572972 70.577844 L 54.489074 70.73396 Z M 57.226524 60.968298 L 57.171391 60.886638 L 57.180979 60.982709 Z M 56.08552 57.459289 L 56.035182 57.173476 L 55.860196 57.101423 Z M 45.123738 53.150485 L 24.906885 38.249804 L 19.897017 41.300072 L 18.782382 54.411422 L 31.702567 68.101603 L 32.54154 68.805326 L 40.708343 68.521915 L 45.468916 74.874639 L 52.748805 70.878067 L 57.705937 62.865709 L 54.690428 57.98528 L 57.607657 55.014271 Z M 55.32565 59.808236 L 55.16265 59.483994 L 55.606107 59.947539 Z M 55.14587 65.927986 L 55.181826 66.019254 L 55.083547 65.93279 Z M 52.1807 71.053398 L 52.257406 70.818023 L 52.259803 70.981344 Z M 52.1807 71.053398 " stroke="rgb(100%, 100%, 100%)" stroke-width="0.5" stroke-opacity="1" stroke-miterlimit="4"/><path stroke-linecap="butt" transform="matrix(1.629596, 0, 0, 1.626394, 94.384485, 0.0759112)" fill-opacity="1" fill="rgb(17.248535%, 44.309998%, 94.119263%)" fill-rule="nonzero" stroke-linejoin="miter" d="M 36.873038 89.763311 L 37.076788 89.410249 L 36.760376 89.383829 Z M 37.860629 86.02373 L 37.824673 86.05015 L 37.836658 86.071766 Z M 38.956088 84.388114 L 38.809867 84.16715 L 38.469483 84.289641 Z M 38.920132 83.276087 L 38.457498 83.775659 L 39.286883 83.381766 Z M 39.536178 83.187221 L 39.701575 82.865382 L 39.493031 83.062328 Z M 38.457498 83.143989 L 38.531807 82.935033 L 38.224983 82.824551 Z M 37.812687 81.597239 L 37.882202 81.431515 L 37.759952 81.481953 Z M 41.902082 80.504426 L 41.957214 80.124944 L 41.743875 80.559667 Z M 41.16858 80.12014 L 41.463419 79.719042 L 41.144609 79.678212 Z M 41.743875 79.673408 L 41.741478 79.375587 L 41.679155 79.450042 Z M 42.359921 79.502881 L 42.343142 79.281917 L 42.314377 79.466854 Z M 42.544495 78.820774 L 42.503745 78.770336 L 42.501348 78.871211 Z M 42.781805 78.700685 L 42.575657 78.650247 L 42.661952 78.760729 Z M 42.09145 78.743917 L 42.026729 78.527756 L 41.947626 78.582997 Z M 42.942408 78.578194 L 43.05507 78.441292 L 42.872893 78.527756 Z M 43.230056 78.12906 L 43.256424 78.00897 L 43.131776 78.083426 Z M 44.761781 77.141926 L 44.699458 77.005024 L 44.637134 77.031443 Z M 32.54154 68.805326 L 31.702567 68.101603 L 27.244024 72.689014 L 32.879526 80.562069 L 21.419154 85.183105 L 24.276457 88.687311 L 35.736828 90.231659 L 34.897855 86.189454 L 38.769117 85.055811 L 36.781949 80.393944 L 37.517848 80.319488 L 37.405186 80.562069 L 37.774334 81.366667 L 38.002056 81.311426 L 38.076365 82.471489 L 38.838632 82.015149 L 39.20778 82.409042 L 38.471881 82.735685 L 39.46906 82.935033 L 41.513757 80.809453 L 39.718355 80.319488 L 41.928449 78.974488 L 41.446639 78.213122 L 42.470186 78.455702 L 42.175347 77.643899 L 42.836937 77.718354 L 42.563672 78.321202 L 43.316351 77.80722 L 42.446216 77.245202 L 44.061838 78.203515 L 45.468916 74.874639 L 40.708343 68.521915 Z M 40.058738 82.212096 L 40.046753 82.288953 L 40.039562 82.144846 Z M 40.058738 82.212096 " stroke="rgb(100%, 100%, 100%)" stroke-width="0.5" stroke-opacity="1" stroke-miterlimit="4"/><g clip-path="url(#id4)"><path fill="rgb(17.248535%, 44.309998%, 94.119263%)" d="M 188.484375 88.929688 L 188.316406 88.78125 L 188.132812 89.1875 Z M 189.535156 88.34375 L 189.367188 87.957031 L 189.390625 88.351562 Z M 189.234375 88.261719 L 189.011719 87.808594 L 188.902344 87.886719 Z M 191.476562 87.089844 L 191.199219 87.097656 L 191.476562 87.21875 Z M 190.988281 86.949219 L 190.800781 86.90625 L 191.121094 87.21875 Z M 190.605469 86.941406 L 190.25 86.113281 L 189.84375 86.136719 Z M 191.453125 85.300781 L 191.402344 85.167969 L 191.328125 85.148438 Z M 190.695312 85.625 L 189.734375 85.046875 L 189.96875 85.628906 Z M 195.167969 84.492188 L 195.183594 84.335938 L 194.992188 84.355469 Z M 190.261719 84.304688 L 189.75 84.074219 L 189.859375 84.308594 Z M 190.992188 83.628906 L 190.863281 83.808594 L 191.140625 83.910156 Z M 196.003906 83.589844 L 196.089844 83.542969 L 195.773438 83.632812 Z M 196.085938 83.097656 L 195.949219 82.839844 L 195.847656 82.957031 Z M 189.75 82.863281 L 188.9375 82.917969 L 190.382812 83.71875 Z M 190.5 83.105469 L 190.09375 82.824219 L 190.207031 83.03125 Z M 195.683594 83.46875 L 195.726562 83.285156 L 195.183594 82.742188 Z M 192.132812 83.21875 L 191.847656 82.710938 L 191.660156 82.898438 Z M 196.46875 82.703125 L 196.460938 82.441406 L 196.199219 82.382812 Z M 192.421875 82.683594 L 192.511719 82.488281 L 192.214844 82.527344 Z M 193.050781 82.023438 L 192.917969 81.824219 L 192.820312 82.113281 Z M 195.554688 81.59375 L 194.585938 81.480469 L 194.398438 81.976562 Z M 197.375 81.566406 L 197.292969 81.316406 L 197.117188 81.566406 Z M 197.460938 81.089844 L 197.601562 81.308594 L 197.601562 81.097656 Z M 193.945312 82.140625 L 193.195312 81.199219 L 193.25 82.003906 Z M 198.355469 81.011719 L 198.363281 80.691406 L 198.089844 81.09375 Z M 192.542969 80.65625 L 192.421875 80.703125 L 192.644531 80.914062 Z M 192.167969 80.425781 L 191.804688 80.449219 L 191.996094 80.683594 Z M 196.867188 81.074219 L 196.660156 80.355469 L 196.289062 80.695312 Z M 198.140625 80.664062 L 197.953125 80.375 L 197.746094 80.367188 Z M 192.695312 80.777344 L 192.921875 80.367188 L 192.605469 80.261719 Z M 198.222656 80.171875 L 198.15625 79.898438 L 198.011719 79.988281 Z M 205.480469 79.894531 L 205.308594 80.007812 L 205.503906 80.117188 Z M 197.269531 80.292969 L 197.238281 80.039062 L 196.734375 79.910156 Z M 195.230469 80.15625 L 194.78125 79.71875 L 195.085938 80.292969 Z M 195.613281 79.816406 L 195.539062 79.625 L 195.5 79.757812 Z M 194.558594 80.058594 L 193.539062 79.746094 L 195.035156 80.648438 Z M 198.925781 79.621094 L 198.410156 79.457031 L 198.914062 80.125 Z M 197.921875 79.511719 L 197.648438 79.3125 L 197.503906 79.65625 Z M 198.960938 79.472656 L 198.886719 79.160156 L 198.625 79.230469 Z M 197.507812 78.667969 L 196.527344 78.9375 L 197.125 79.410156 Z M 207.277344 78.929688 L 207.203125 78.339844 L 206.917969 78.933594 Z M 207.816406 78.335938 L 207.738281 78.222656 L 207.714844 78.332031 Z M 195.253906 78.285156 L 195.121094 78.441406 L 195.242188 78.558594 Z M 197.1875 78.433594 L 197.101562 78.164062 L 196.75 78.324219 Z M 211.101562 78.3125 L 211.113281 78.148438 L 211.054688 78.171875 Z M 209.65625 78.339844 L 209.695312 78.082031 L 209.550781 78.367188 Z M 195.902344 78.375 L 195.65625 77.957031 L 195.523438 78.015625 Z M 199.03125 77.832031 L 198.976562 77.734375 L 198.953125 77.855469 Z M 196.167969 77.675781 L 196.035156 77.597656 L 196.199219 77.9375 Z M 197.574219 77.683594 L 197.550781 77.496094 L 197.269531 77.515625 Z M 200.550781 77.601562 L 200.371094 77.28125 L 200.300781 77.351562 Z M 207.667969 77.617188 L 207.457031 77.269531 L 207.300781 77.523438 Z M 209.714844 77.371094 L 209.660156 77.222656 L 209.621094 77.328125 Z M 205.589844 77.261719 L 205.535156 77.203125 L 205.492188 77.25 Z M 195.574219 77.25 L 195.398438 77.097656 L 195.390625 77.226562 Z M 209.265625 77.203125 L 209.167969 77.097656 L 209.128906 77.210938 Z M 207.929688 77.347656 L 207.796875 76.992188 L 207.816406 77.273438 Z M 198.78125 76.980469 L 198.589844 77.074219 L 198.875 77.308594 Z M 210.523438 77.023438 L 210.324219 76.824219 L 210.476562 77.097656 Z M 200.78125 76.824219 L 200.558594 76.871094 L 200.835938 77.070312 Z M 210.71875 77.003906 L 210.695312 76.835938 L 210.601562 76.816406 Z M 195.902344 76.789062 L 195.835938 76.832031 L 196.035156 77.019531 Z M 201.410156 76.902344 L 201.03125 76.847656 L 201.332031 77.144531 Z M 198.210938 76.914062 L 198.023438 76.710938 L 197.925781 76.871094 Z M 199.617188 76.695312 L 199.550781 76.769531 L 199.777344 76.941406 Z M 197.457031 77.214844 L 197.339844 76.582031 L 197.132812 77.199219 Z M 209.046875 76.382812 L 209.164062 76.6875 L 209.382812 76.519531 Z M 210.328125 76.207031 L 210.128906 76.199219 L 210.390625 76.359375 Z M 210.742188 76 L 210.46875 76.101562 L 210.910156 76.398438 Z M 195.640625 76.3125 L 195.648438 75.960938 L 195.347656 76.160156 Z M 196.753906 75.90625 L 196.625 75.777344 L 196.6875 75.964844 Z M 202.308594 75.84375 L 202.285156 75.726562 L 202.21875 75.871094 Z M 196.9375 75.71875 L 196.878906 75.625 L 196.800781 75.644531 Z M 202.203125 75.75 L 202.082031 75.613281 L 202.160156 75.820312 Z M 205.535156 75.8125 L 205.289062 75.621094 L 205.589844 75.988281 Z M 200.507812 76.320312 L 199.644531 75.535156 L 200.265625 76.941406 Z M 205.140625 76.023438 L 204.898438 75.464844 L 204.902344 75.894531 Z M 203 75.378906 L 202.484375 75.519531 L 203.300781 75.917969 Z M 209.949219 75.460938 L 209.941406 75.230469 L 209.808594 75.394531 Z M 207.644531 75.398438 L 206.585938 75.867188 L 207.082031 76.394531 Z M 204.371094 75.410156 L 204.320312 75.046875 L 204.203125 75.285156 Z M 202.738281 75.152344 L 202.265625 75.230469 L 202.484375 75.410156 Z M 203.902344 75.117188 L 203.921875 74.996094 L 203.867188 75.039062 Z M 208.445312 75.195312 L 208.398438 74.984375 L 208.367188 75.128906 Z M 203.023438 75.253906 L 203.027344 75.003906 L 202.734375 75.050781 Z M 196.128906 74.941406 L 196.105469 74.835938 L 196.050781 74.835938 Z M 198.992188 76.027344 L 198.328125 74.917969 L 198.304688 75.929688 Z M 197.441406 74.511719 L 197.191406 74.792969 L 197.484375 74.710938 Z M 209.105469 74.589844 L 209.027344 74.460938 L 208.953125 74.597656 Z M 204.835938 74.476562 L 204.84375 74.339844 L 204.695312 74.277344 Z M 202.742188 74.472656 L 202.5 74.269531 L 202.5625 74.492188 Z M 210.765625 74.480469 L 210.75 74.214844 L 210.644531 74.207031 Z M 195.535156 74.390625 L 195.289062 74.304688 L 195.617188 74.496094 Z M 210.394531 74.425781 L 210.507812 74.175781 L 210.238281 74.4375 Z M 198.550781 74.359375 L 198.402344 74.046875 L 198.222656 73.996094 Z M 196.144531 74.273438 L 195.957031 73.925781 L 195.976562 74.207031 Z M 198.664062 74.0625 L 198.523438 73.875 L 198.707031 74.296875 Z M 179.894531 0.671875 L 175.347656 1.015625 L 177.566406 6.285156 L 174.203125 17.09375 L 158.5 12.71875 L 156.308594 25.957031 L 151.078125 22.871094 L 141.121094 36.910156 L 143.171875 46.914062 L 134.972656 62.285156 L 167.917969 86.519531 L 188.257812 89.550781 L 185.488281 83.964844 L 188.617188 85.960938 L 187.101562 83.535156 L 192.183594 81.234375 L 190.632812 79.800781 L 193.683594 79.511719 L 189.851562 75.738281 L 195.445312 79.660156 L 193.738281 75.027344 L 197.609375 71.894531 L 210.789062 73.722656 L 206.421875 63.117188 L 209.402344 52.414062 L 205.710938 44.667969 L 207.316406 38.644531 L 204.402344 37.15625 L 206.417969 26.476562 L 196.84375 15.085938 Z M 179.894531 0.671875 " fill-opacity="1" fill-rule="nonzero"/></g><g clip-path="url(#id5)"><path stroke-linecap="butt" transform="matrix(1.629596, 0, 0, 1.626394, 94.384485, 0.0759112)" fill="none" stroke-linejoin="miter" d="M 57.74429 54.632387 L 57.641216 54.541119 L 57.528554 54.790905 Z M 58.3891 54.272119 L 58.286027 54.034342 L 58.300409 54.276922 Z M 58.204526 54.221681 L 58.067894 53.943074 L 58.000776 53.99111 Z M 59.580442 53.501145 L 59.410251 53.505949 L 59.580442 53.580404 Z M 59.280809 53.414681 L 59.16575 53.388261 L 59.362309 53.580404 Z M 59.045897 53.409878 L 58.827764 52.900699 L 58.578469 52.91511 Z M 59.56606 52.401127 L 59.534898 52.319467 L 59.489354 52.307458 Z M 59.101029 52.600476 L 58.511351 52.245011 L 58.655175 52.602877 Z M 61.845669 51.903958 L 61.855258 51.807886 L 61.737801 51.819895 Z M 58.834955 51.788672 L 58.520939 51.646967 L 58.588057 51.791074 Z M 59.283206 51.373163 L 59.204103 51.483645 L 59.374295 51.546092 Z M 62.358641 51.349145 L 62.411377 51.320324 L 62.217215 51.375565 Z M 62.40898 51.04652 L 62.325083 50.888002 L 62.262759 50.960056 Z M 58.520939 50.902413 L 58.022349 50.936038 L 58.909264 51.428404 Z M 58.981176 51.051324 L 58.731881 50.878395 L 58.801396 51.00569 Z M 62.162082 51.27469 L 62.18845 51.161806 L 61.855258 50.827958 Z M 59.983149 51.120975 L 59.808163 50.808743 L 59.693104 50.924029 Z M 62.643892 50.80394 L 62.639098 50.64302 L 62.478495 50.606993 Z M 60.160532 50.791931 L 60.215665 50.671841 L 60.033488 50.695859 Z M 60.54646 50.386029 L 60.464959 50.263538 L 60.405033 50.44127 Z M 62.082979 50.121832 L 61.488507 50.052181 L 61.373447 50.357207 Z M 63.200012 50.10502 L 63.149673 49.951306 L 63.041805 50.10502 Z M 63.252747 49.812002 L 63.339041 49.946502 L 63.339041 49.816806 Z M 61.095388 50.458083 L 60.635151 49.879252 L 60.66871 50.37402 Z M 63.801675 49.763966 L 63.806469 49.56702 L 63.638675 49.814404 Z M 60.234841 49.545404 L 60.160532 49.574225 L 60.297165 49.703922 Z M 60.004723 49.403698 L 59.781796 49.418109 L 59.899252 49.562216 Z M 62.888393 49.802395 L 62.761349 49.360466 L 62.533627 49.569422 Z M 63.669837 49.550207 L 63.554777 49.372475 L 63.427733 49.367672 Z M 60.328327 49.619859 L 60.467357 49.367672 L 60.273194 49.302823 Z M 63.720175 49.247582 L 63.679425 49.079457 L 63.590733 49.134698 Z M 68.173923 49.077056 L 68.068452 49.146707 L 68.188306 49.213957 Z M 63.135291 49.322038 L 63.116114 49.165922 L 62.806893 49.086663 Z M 61.884022 49.237975 L 61.60836 48.968975 L 61.795331 49.322038 Z M 62.118935 49.02902 L 62.073391 48.911332 L 62.04942 48.992993 Z M 61.471727 49.177931 L 60.846093 48.985788 L 61.764169 49.5406 Z M 64.151647 48.908931 L 63.835234 48.808055 L 64.144456 49.218761 Z M 63.535601 48.84168 L 63.367806 48.719189 L 63.279115 48.930547 Z M 64.17322 48.817663 L 64.127676 48.62552 L 63.967073 48.668752 Z M 63.281512 48.322895 L 62.679848 48.488618 L 63.046599 48.779234 Z M 69.276573 48.483814 L 69.231029 48.121145 L 69.056043 48.486216 Z M 69.607369 48.118743 L 69.559427 48.049091 L 69.545045 48.116341 Z M 61.898405 48.08752 L 61.816905 48.183591 L 61.891214 48.255645 Z M 63.084952 48.178788 L 63.032217 48.013064 L 62.816481 48.111538 Z M 71.623301 48.104332 L 71.630492 48.003457 L 71.594536 48.017868 Z M 70.736387 48.121145 L 70.760357 47.962627 L 70.671666 48.137957 Z M 62.296318 48.142761 L 62.145303 47.88577 L 62.063802 47.921796 Z M 64.216368 47.808912 L 64.182809 47.748868 L 64.168426 47.823323 Z M 62.459318 47.712841 L 62.377818 47.664805 L 62.478495 47.873761 Z M 63.322262 47.717645 L 63.30788 47.602359 L 63.135291 47.614368 Z M 65.148826 47.667207 L 65.038561 47.470261 L 64.995414 47.513493 Z M 69.51628 47.676814 L 69.386839 47.463055 L 69.290956 47.619171 Z M 70.772343 47.525502 L 70.738784 47.434234 L 70.714813 47.499082 Z M 68.241041 47.458252 L 68.207482 47.422225 L 68.181114 47.451046 Z M 62.094964 47.451046 L 61.987096 47.357377 L 61.982302 47.436636 Z M 70.49668 47.422225 L 70.436753 47.357377 L 70.412783 47.427029 Z M 69.676883 47.511091 L 69.595383 47.292528 L 69.607369 47.465457 Z M 64.062955 47.285323 L 63.945499 47.342966 L 64.120485 47.487073 Z M 71.268535 47.311743 L 71.146285 47.189252 L 71.23977 47.357377 Z M 65.290253 47.189252 L 65.15362 47.218073 L 65.323812 47.340564 Z M 71.388388 47.299734 L 71.374006 47.196457 L 71.316476 47.184448 Z M 62.296318 47.167636 L 62.255568 47.194055 L 62.377818 47.309341 Z M 65.676181 47.237287 L 65.443665 47.203662 L 65.628239 47.386198 Z M 63.712984 47.244493 L 63.597925 47.1196 L 63.537998 47.218073 Z M 64.575927 47.109993 L 64.535177 47.155627 L 64.674207 47.261305 Z M 63.25035 47.42943 L 63.178438 47.040341 L 63.051394 47.419823 Z M 70.362444 46.91785 L 70.434356 47.105189 L 70.568592 47.001912 Z M 71.148682 46.80977 L 71.026432 46.804966 L 71.187035 46.903439 Z M 71.402771 46.682475 L 71.234976 46.744921 L 71.505845 46.927457 Z M 62.135714 46.874618 L 62.140509 46.658457 L 61.955934 46.780948 Z M 62.818878 46.624832 L 62.739775 46.545573 L 62.778128 46.660859 Z M 66.227506 46.586403 L 66.213123 46.51435 L 66.172373 46.603216 Z M 62.93154 46.509546 L 62.895584 46.451903 L 62.847643 46.463912 Z M 66.162785 46.528761 L 66.088476 46.444698 L 66.136417 46.571993 Z M 68.207482 46.567189 L 68.056467 46.449502 L 68.241041 46.675269 Z M 65.122458 46.879421 L 64.592707 46.396662 L 64.97384 47.261305 Z M 67.965378 46.696886 L 67.81676 46.35343 L 67.819157 46.617627 Z M 66.651786 46.300591 L 66.335374 46.387055 L 66.83636 46.632037 Z M 70.916166 46.351028 L 70.911372 46.209323 L 70.829872 46.310198 Z M 69.501898 46.3126 L 68.852293 46.600814 L 69.15672 46.925055 Z M 67.493156 46.319805 L 67.461995 46.096439 L 67.390083 46.242948 Z M 66.491183 46.161287 L 66.201138 46.209323 L 66.335374 46.319805 Z M 67.205509 46.139671 L 67.217494 46.065216 L 67.183935 46.091635 Z M 69.993296 46.187707 L 69.964531 46.05801 L 69.945355 46.146877 Z M 66.666169 46.223734 L 66.668566 46.070019 L 66.488786 46.098841 Z M 62.435348 46.031591 L 62.420965 45.966743 L 62.387406 45.966743 Z M 64.192397 46.699287 L 63.784896 46.01718 L 63.770513 46.639243 Z M 63.240762 45.767394 L 63.08735 45.940323 L 63.267129 45.889885 Z M 70.3984 45.81543 L 70.350459 45.736171 L 70.304915 45.820234 Z M 67.778407 45.745778 L 67.783201 45.661716 L 67.692113 45.623287 Z M 66.49358 45.743376 L 66.344962 45.618484 L 66.383315 45.755385 Z M 71.417153 45.74818 L 71.407565 45.584859 L 71.342844 45.580055 Z M 62.070994 45.692939 L 61.919978 45.6401 L 62.121332 45.757787 Z M 71.189432 45.714555 L 71.258947 45.560841 L 71.093549 45.72176 Z M 63.921528 45.673725 L 63.83044 45.481582 L 63.720175 45.450359 Z M 62.444936 45.620885 L 62.329877 45.407126 L 62.341862 45.580055 Z M 63.991043 45.491189 L 63.904749 45.375903 L 64.017411 45.635296 Z M 52.473142 0.366433 L 49.682957 0.57779 L 51.044491 3.817799 L 48.980617 10.463541 L 39.344412 7.773541 L 37.999659 15.913194 L 34.789987 14.015783 L 28.679867 22.647802 L 29.938326 28.798776 L 24.906885 38.249804 L 45.123738 53.150485 L 57.60526 55.014271 L 55.90574 51.579717 L 57.82579 52.807029 L 56.895728 51.31552 L 60.014311 49.900868 L 59.062676 49.019413 L 60.934784 48.84168 L 58.583263 46.521555 L 62.015861 48.932948 L 60.968343 46.08443 L 63.343836 44.158198 L 71.431536 45.282234 L 68.751616 38.761384 L 70.580577 32.180491 L 68.31535 27.417749 L 69.300544 23.714195 L 67.512333 22.799114 L 68.749219 16.232631 L 62.874011 9.229023 Z M 52.473142 0.366433 " stroke="rgb(100%, 100%, 100%)" stroke-width="0.5" stroke-opacity="1" stroke-miterlimit="4"/></g><path stroke-linecap="butt" transform="matrix(1.629596, 0, 0, 1.626394, 94.384485, 0.0759112)" fill-opacity="1" fill="rgb(17.248535%, 44.309998%, 94.119263%)" fill-rule="nonzero" stroke-linejoin="miter" d="M 31.702567 68.101603 L 18.782382 54.411422 L 15.086106 61.102798 L 17.619805 62.88012 L 16.905479 68.075183 L 11.550434 67.594826 L 7.19976 73.188586 L 6.248125 76.89214 L 7.976409 88.804999 L 19.580605 96.548357 L 24.276457 88.687311 L 21.416757 85.183105 L 32.879526 80.562069 L 27.241627 72.689014 Z M 31.702567 68.101603 " stroke="rgb(100%, 100%, 100%)" stroke-width="0.5" stroke-opacity="1" stroke-miterlimit="4"/><path stroke-linecap="butt" transform="matrix(1.629596, 0, 0, 1.626394, 94.384485, 0.0759112)" fill-opacity="1" fill="rgb(17.248535%, 44.309998%, 94.119263%)" fill-rule="nonzero" stroke-linejoin="miter" d="M 19.415207 113.629859 L 10.095415 102.514393 L 7.645614 103.124447 L 9.529708 109.503591 L 8.681146 113.473743 L 5.483461 115.385565 L 5.277313 121.978467 L 7.741497 122.401182 L 10.452578 123.933521 L 12.830467 125.489879 L 12.449334 121.769512 L 14.997415 120.770369 L 16.785626 124.06562 L 18.674514 124.404271 Z M 19.415207 113.629859 " stroke="rgb(100%, 100%, 100%)" stroke-width="0.5" stroke-opacity="1" stroke-miterlimit="4"/><path stroke-linecap="butt" transform="matrix(1.629596, 0, 0, 1.626394, 94.384485, 0.0759112)" fill-opacity="1" fill="rgb(17.248535%, 44.309998%, 94.119263%)" fill-rule="nonzero" stroke-linejoin="miter" d="M 12.269554 143.248685 L 5.821447 139.016738 L 11.166904 149.928052 L 14.331031 150.418016 L 13.365013 146.44306 L 15.359372 144.956355 Z M 12.269554 143.248685 " stroke="rgb(100%, 100%, 100%)" stroke-width="0.5" stroke-opacity="1" stroke-miterlimit="4"/><path stroke-linecap="butt" transform="matrix(1.629596, 0, 0, 1.626394, 94.384485, 0.0759112)" fill-opacity="1" fill="rgb(17.248535%, 44.309998%, 94.119263%)" fill-rule="nonzero" stroke-linejoin="miter" d="M 32.889114 118.997851 L 31.930288 116.173351 L 34.111618 115.116565 L 34.279412 110.690073 L 31.556346 111.698823 L 24.791826 115.270279 L 26.527301 122.4252 Z M 32.889114 118.997851 " stroke="rgb(100%, 100%, 100%)" stroke-width="0.5" stroke-opacity="1" stroke-miterlimit="4"/><path stroke-linecap="butt" transform="matrix(1.629596, 0, 0, 1.626394, 94.384485, 0.0759112)" fill-opacity="1" fill="rgb(17.248535%, 44.309998%, 94.119263%)" fill-rule="nonzero" stroke-linejoin="miter" d="M 35.667313 127.58904 L 35.552254 127.442531 L 35.54746 127.663495 Z M 35.724843 127.111084 L 35.350901 127.147111 L 35.482739 127.512183 Z M 36.813111 126.676361 L 36.261786 126.171986 L 36.575801 126.582691 Z M 32.889114 118.997851 L 26.527301 122.4252 L 26.232462 124.735718 L 27.265598 124.690084 L 31.896729 128.355209 L 36.20905 124.93987 L 34.615002 122.629351 L 35.449181 120.544601 Z M 32.889114 118.997851 " stroke="rgb(100%, 100%, 100%)" stroke-width="0.5" stroke-opacity="1" stroke-miterlimit="4"/><path stroke-linecap="butt" transform="matrix(1.629596, 0, 0, 1.626394, 94.384485, 0.0759112)" fill-opacity="1" fill="rgb(17.248535%, 44.309998%, 94.119263%)" fill-rule="nonzero" stroke-linejoin="miter" d="M 32.093288 133.824076 L 32.20595 133.826478 L 31.90392 133.759228 Z M 32.666187 132.776898 L 32.587084 132.952228 L 32.783643 132.940219 Z M 33.100056 132.291737 L 33.279836 132.142826 L 33.16238 132.130817 Z M 32.594275 132.291737 L 32.692555 132.130817 L 32.647011 132.09479 Z M 32.36176 132.061165 L 32.412098 131.78496 L 32.172392 131.736924 Z M 32.316215 130.756995 L 31.918303 130.963549 L 32.635025 131.410281 Z M 32.872335 130.557647 L 32.953835 130.451969 L 32.798026 130.483192 Z M 32.970614 129.897156 L 33.049718 129.825102 L 32.824393 129.753049 Z M 32.790835 129.666585 L 32.491201 129.460031 L 32.575099 129.616147 Z M 27.265598 124.690084 L 26.232462 124.735718 L 21.793096 127.874852 L 20.203842 133.691978 L 22.356407 133.266862 L 24.729502 137.72938 L 30.067768 133.555076 L 31.390948 134.936103 L 31.992612 131.539978 L 29.921547 129.966808 L 32.747687 129.827504 L 28.672675 128.355209 L 31.896729 128.355209 Z M 27.265598 124.690084 " stroke="rgb(100%, 100%, 100%)" stroke-width="0.5" stroke-opacity="1" stroke-miterlimit="4"/><path stroke-linecap="butt" transform="matrix(1.629596, 0, 0, 1.626394, 94.384485, 0.0759112)" fill-opacity="1" fill="rgb(17.248535%, 44.309998%, 94.119263%)" fill-rule="nonzero" stroke-linejoin="miter" d="M 24.791826 115.270279 L 19.417604 113.629859 L 18.676911 124.404271 L 20.819888 127.545808 L 21.793096 127.874852 L 26.232462 124.735718 L 26.527301 122.4252 Z M 24.791826 115.270279 " stroke="rgb(100%, 100%, 100%)" stroke-width="0.5" stroke-opacity="1" stroke-miterlimit="4"/><path stroke-linecap="butt" transform="matrix(1.629596, 0, 0, 1.626394, 94.384485, 0.0759112)" fill-opacity="1" fill="rgb(17.248535%, 44.309998%, 94.119263%)" fill-rule="nonzero" stroke-linejoin="miter" d="M 25.307195 142.710685 L 15.359372 144.956355 L 13.365013 146.44306 L 14.331031 150.418016 L 19.897017 149.896829 L 24.300427 149.851195 L 26.886861 145.357453 Z M 25.307195 142.710685 " stroke="rgb(100%, 100%, 100%)" stroke-width="0.5" stroke-opacity="1" stroke-miterlimit="4"/><path stroke-linecap="butt" transform="matrix(1.629596, 0, 0, 1.626394, 94.384485, 0.0759112)" fill-opacity="1" fill="rgb(17.248535%, 44.309998%, 94.119263%)" fill-rule="nonzero" stroke-linejoin="miter" d="M 19.580605 96.548357 L 7.978806 88.804999 L 7.156613 95.044839 L 11.039859 99.127875 L 10.097812 102.514393 L 19.417604 113.629859 L 24.794223 115.270279 L 31.556346 111.701225 L 28.797323 107.75509 L 29.892782 105.559858 L 28.548028 103.150867 Z M 19.580605 96.548357 " stroke="rgb(100%, 100%, 100%)" stroke-width="0.5" stroke-opacity="1" stroke-miterlimit="4"/><path stroke-linecap="butt" transform="matrix(1.629596, 0, 0, 1.626394, 94.384485, 0.0759112)" fill-opacity="1" fill="rgb(17.248535%, 44.309998%, 94.119263%)" fill-rule="nonzero" stroke-linejoin="miter" d="M 30.983447 143.705024 L 30.820446 143.61856 L 31.175212 143.827515 Z M 30.724564 143.05414 L 30.530401 143.222265 L 30.748534 143.222265 Z M 31.992612 142.352819 L 31.947067 142.259149 L 31.915905 142.316792 Z M 33.462013 141.404113 L 29.9599 148.844846 L 30.007841 152.404293 Z M 31.565934 139.830943 L 31.362183 139.605175 L 31.412522 139.751684 Z M 31.606684 138.814988 L 31.477242 138.610836 L 31.203977 139.043157 Z M 31.510801 137.040068 L 31.506007 136.749452 L 31.225551 136.790282 Z M 31.616272 136.302719 L 31.460463 136.446827 L 31.923097 136.785478 Z M 30.067768 133.555076 L 24.729502 137.726979 L 25.307195 142.710685 L 26.889258 145.357453 L 24.300427 149.851195 L 25.55649 149.661453 L 28.066218 151.265847 L 30.837226 144.351105 L 30.202003 143.046935 L 30.36021 142.396051 L 30.225974 142.076613 L 31.402933 140.123961 L 30.49924 138.574809 L 31.541963 137.815845 L 29.9599 135.88721 L 31.460463 137.405139 L 30.178033 135.88721 L 31.390948 134.933701 Z M 30.067768 133.555076 " stroke="rgb(100%, 100%, 100%)" stroke-width="0.5" stroke-opacity="1" stroke-miterlimit="4"/><path stroke-linecap="butt" transform="matrix(1.629596, 0, 0, 1.626394, 94.384485, 0.0759112)" fill-opacity="1" fill="rgb(17.248535%, 44.309998%, 94.119263%)" fill-rule="nonzero" stroke-linejoin="miter" d="M 24.729502 137.72938 L 22.356407 133.266862 L 20.203842 133.691978 L 18.183115 138.101657 L 17.547893 136.024112 L 12.269554 143.248685 L 15.359372 144.956355 L 25.307195 142.710685 Z M 24.729502 137.72938 " stroke="rgb(100%, 100%, 100%)" stroke-width="0.5" stroke-opacity="1" stroke-miterlimit="4"/><path stroke-linecap="butt" transform="matrix(1.629596, 0, 0, 1.626394, 94.384485, 0.0759112)" fill-opacity="1" fill="rgb(17.248535%, 44.309998%, 94.119263%)" fill-rule="nonzero" stroke-linejoin="miter" d="M 34.945797 105.454179 L 34.818752 105.278849 L 34.698899 105.295662 L 34.696502 105.511822 Z M 34.401663 102.855447 L 34.341736 102.560027 L 34.173941 102.793001 Z M 34.782796 101.546474 L 34.792384 101.236643 L 34.689311 101.392759 Z M 35.420416 96.963866 L 35.003326 97.011901 L 35.535475 97.100768 Z M 34.586237 96.987884 L 34.667737 96.790937 L 34.521516 96.709276 Z M 36.048447 95.049642 L 35.880652 94.999205 L 35.859079 95.107285 Z M 35.684093 92.527767 L 35.638549 92.381258 L 35.614578 92.470124 Z M 35.895035 92.49174 L 35.911814 92.393267 L 35.705667 92.352437 Z M 34.929017 93.349178 L 35.736828 90.231659 L 24.276457 88.687311 L 19.580605 96.548357 L 28.548028 103.150867 L 29.892782 105.559858 L 28.797323 107.75509 L 31.553949 111.701225 L 34.279412 110.690073 L 35.084826 107.274733 L 34.068471 106.527778 L 34.866694 105.711171 L 34.58384 105.552653 L 34.579046 105.201992 L 34.456795 105.175572 L 34.579046 104.896965 L 34.38728 104.270099 L 33.915058 103.712885 L 34.394472 103.009161 L 33.917455 102.925099 L 33.881499 100.881179 L 34.2075 100.535322 L 33.589057 99.581813 L 34.547884 99.656268 L 33.368527 96.651634 L 35.72724 96.055991 Z M 34.929017 93.349178 " stroke="rgb(100%, 100%, 100%)" stroke-width="0.5" stroke-opacity="1" stroke-miterlimit="4"/></svg>