<svg xmlns="http://www.w3.org/2000/svg" xmlns:xlink="http://www.w3.org/1999/xlink" width="624" zoomAndPan="magnify" viewBox="0 0 468 308.250004" height="411" preserveAspectRatio="xMidYMid meet" version="1.0"><defs><clipPath id="id1"><path d="M 0.566406 0 L 467.429688 0 L 467.429688 307.5 L 0.566406 307.5 Z M 0.566406 0 " clip-rule="nonzero"/></clipPath><clipPath id="id2"><path d="M 0.566406 214 L 48 214 L 48 266 L 0.566406 266 Z M 0.566406 214 " clip-rule="nonzero"/></clipPath><clipPath id="id3"><path d="M 268 110 L 467.429688 110 L 467.429688 260 L 268 260 Z M 268 110 " clip-rule="nonzero"/></clipPath><clipPath id="id4"><path d="M 243 3.894531 L 309 3.894531 L 309 55 L 243 55 Z M 243 3.894531 " clip-rule="nonzero"/></clipPath><clipPath id="id5"><path d="M 241 175 L 338 175 L 338 303.914062 L 241 303.914062 Z M 241 175 " clip-rule="nonzero"/></clipPath><clipPath id="id6"><path d="M 77 171 L 268 171 L 268 303.914062 L 77 303.914062 Z M 77 171 " clip-rule="nonzero"/></clipPath></defs><g clip-path="url(#id1)"><path fill="rgb(100%, 100%, 100%)" d="M 0.566406 0 L 467.433594 0 L 467.433594 307.5 L 0.566406 307.5 Z M 0.566406 0 " fill-opacity="1" fill-rule="nonzero"/><path fill="rgb(100%, 100%, 100%)" d="M 0.566406 0 L 467.433594 0 L 467.433594 307.5 L 0.566406 307.5 Z M 0.566406 0 " fill-opacity="1" fill-rule="nonzero"/><path fill="rgb(100%, 100%, 100%)" d="M 0.566406 0 L 467.433594 0 L 467.433594 307.5 L 0.566406 307.5 Z M 0.566406 0 " fill-opacity="1" fill-rule="nonzero"/></g><path stroke-linecap="butt" transform="matrix(2.881773, 0, 0, 2.884808, 0.576388, 3.89335)" fill-opacity="1" fill="rgb(17.248535%, 44.309998%, 94.119263%)" fill-rule="nonzero" stroke-linejoin="miter" d="M 89.048979 37.478536 L 89.898879 36.806914 L 90.366527 37.463641 L 90.343484 38.146095 L 89.648111 37.531345 Z M 80.913253 11.959612 L 82.01121 11.417982 L 82.303999 11.74296 L 82.968195 11.653591 L 83.434488 11.914928 L 83.462953 12.791015 L 84.495846 13.688768 L 86.483013 13.992081 L 87.034702 13.408474 L 87.774807 13.824175 L 87.656878 14.980557 L 86.859842 16.042153 L 86.47488 16.000176 L 86.336619 16.69888 L 85.761886 16.84512 L 85.622269 17.271654 L 85.832372 18.358977 L 86.192935 18.380642 L 86.237667 18.858631 L 85.920479 19.109136 L 86.690405 19.925644 L 86.440992 20.195105 L 86.569765 20.720486 L 86.195646 20.86131 L 86.642962 21.105044 L 86.721581 21.604698 L 86.21869 22.593174 L 86.873397 23.107723 L 86.956083 23.772575 L 87.354601 24.151716 L 87.23125 25.389342 L 87.665011 25.88358 L 87.566059 26.44823 L 88.33734 26.48479 L 89.027291 26.063672 L 88.101483 27.771162 L 86.998104 28.436014 L 86.684983 28.341228 L 87.391199 30.430568 L 86.885597 31.668194 L 87.262427 33.226736 L 87.132298 34.167819 L 87.605369 34.844857 L 87.492862 36.082483 L 86.83951 36.192163 L 85.719865 35.799481 L 84.215257 32.173265 L 83.969911 30.666177 L 83.4128 29.952579 L 83.525307 29.303977 L 82.123717 28.517258 L 81.80924 28.542986 L 81.513741 29.264708 L 81.009494 29.217316 L 80.724838 30.310055 L 80.18806 30.817834 L 80.178571 31.688505 L 79.518441 31.869951 L 79.216164 31.906511 L 78.457083 31.056151 L 79.155167 30.922098 L 79.067059 30.284328 L 77.410635 30.848978 L 76.807436 30.694613 L 76.469916 29.902478 L 76.118841 29.748114 L 75.533264 30.166523 L 74.978864 30.129963 L 75.133391 30.621493 L 73.979858 30.901787 L 73.52441 30.716278 L 73.548809 29.933622 L 72.792438 28.788074 L 72.449496 29.084616 L 71.207856 29.141487 L 71.594174 30.239643 L 70.611435 31.152291 L 69.800844 30.71357 L 67.847565 31.289053 L 67.031553 30.972199 L 66.868893 29.557189 L 67.37314 29.167215 L 68.101044 27.457016 L 69.049896 27.229532 L 69.696471 25.589745 L 70.143787 26.052839 L 71.126526 26.136792 L 71.197012 26.931635 L 73.163846 25.898475 L 73.357683 24.850419 L 73.922927 24.238377 L 73.90395 22.831492 L 73.456634 22.80441 L 73.287197 22.109769 L 71.64975 21.408357 L 72.355967 21.102336 L 72.476606 21.393462 L 72.538959 21.034632 L 72.105199 19.53567 L 71.843587 19.321726 L 71.430158 19.690034 L 71.2309 19.327142 L 70.88118 19.321726 L 71.053329 18.154512 L 69.651739 18.170761 L 69.224756 17.078021 L 68.594447 16.724607 L 68.60258 16.199225 L 68.189152 16.387442 L 67.847565 15.610202 L 67.088484 15.641346 L 66.978688 16.629822 L 66.178942 17.535699 L 65.563544 17.73881 L 65.593365 16.410461 L 63.854255 15.941951 L 63.790547 15.654887 L 62.904048 15.351574 L 65.751959 14.444342 L 66.669634 12.858719 L 67.358229 13.162032 L 69.125804 12.891217 L 69.745269 13.719912 L 69.855065 14.820776 L 70.954377 15.160649 L 71.497933 14.430802 L 73.678937 14.807235 L 75.336716 14.082804 L 76.132396 14.428094 L 76.770838 13.204008 L 77.727823 13.063185 L 78.164294 12.448434 L 78.763426 12.516138 L 80.049798 11.175602 L 80.643508 11.300177 Z M 80.913253 11.959612 " stroke="rgb(100%, 100%, 100%)" stroke-width="0.5" stroke-opacity="1" stroke-miterlimit="4"/><path stroke-linecap="butt" transform="matrix(2.881773, 0, 0, 2.884808, 0.576388, 3.89335)" fill-opacity="1" fill="rgb(17.248535%, 44.309998%, 94.119263%)" fill-rule="nonzero" stroke-linejoin="miter" d="M 120.313642 30.28162 L 119.351236 28.203113 L 119.523384 27.316193 L 119.221107 26.673006 L 120.484436 25.448921 L 120.431571 25.080612 L 121.168964 24.774591 L 120.653873 23.47197 L 121.662367 23.286461 L 121.6705 23.592482 L 122.227612 23.612794 L 122.826744 24.199109 L 123.465185 24.078596 L 123.740352 24.831462 L 124.71767 25.356844 L 126.028441 25.310805 L 125.499795 28.391329 L 124.568564 29.646558 L 123.729508 30.342553 L 121.777585 31.224057 Z M 126.245321 22.820659 L 126.304963 22.41579 L 127.064044 21.989256 L 126.749568 21.810518 L 126.813276 21.416482 L 127.362255 20.8911 L 127.928855 21.186289 L 128.232487 20.534978 L 128.697425 20.782774 L 130.094948 20.585079 L 129.062055 21.194413 L 129.628655 21.803748 L 128.743512 21.970299 L 127.528982 22.949296 L 127.438163 22.54849 Z M 126.245321 22.820659 " stroke="rgb(100%, 100%, 100%)" stroke-width="0.5" stroke-opacity="1" stroke-miterlimit="4"/><path stroke-linecap="butt" transform="matrix(2.881773, 0, 0, 2.884808, 0.576388, 3.89335)" fill-opacity="1" fill="rgb(17.248535%, 44.309998%, 94.119263%)" fill-rule="nonzero" stroke-linejoin="miter" d="M 120.313642 30.28162 L 119.638602 30.60389 L 119.161465 29.939038 L 118.776503 30.028408 L 117.955068 29.3947 L 117.364069 29.706137 L 116.657852 29.649266 L 115.526008 29.026391 L 116.17936 28.212591 L 115.676468 26.714983 L 116.514169 26.115127 L 116.123784 25.566726 L 115.549051 25.74411 L 115.321327 25.333825 L 115.588361 24.892396 L 115.185777 25.03322 L 115.023116 24.553877 L 115.782198 24.423885 L 116.407084 22.736706 L 117.648725 22.517346 L 118.920186 22.838262 L 121.373645 22.174764 L 122.154415 22.51193 L 122.783368 22.41579 L 123.55736 21.857911 L 123.682066 20.770587 L 124.297464 20.92766 L 127.047778 19.74826 L 126.881052 19.333912 L 127.139952 18.996747 L 129.312823 19.518067 L 130.505665 20.242497 L 130.097659 20.589141 L 128.701491 20.785482 L 128.236554 20.537686 L 127.931566 21.186289 L 127.362255 20.8911 L 126.813276 21.416482 L 126.749568 21.810518 L 127.064044 21.989256 L 126.306319 22.41579 L 126.245321 22.820659 L 125.895601 24.143592 L 126.02573 25.308097 L 124.714959 25.354136 L 123.740352 24.828754 L 123.465185 24.075888 L 122.825388 24.196401 L 122.226256 23.610085 L 121.669145 23.589774 L 121.661012 23.281045 L 120.651162 23.469262 L 121.167609 24.771883 L 120.42886 25.077904 L 120.484436 25.446213 L 119.221107 26.673006 L 119.523384 27.316193 L 119.348525 28.203113 Z M 120.313642 30.28162 " stroke="rgb(100%, 100%, 100%)" stroke-width="0.5" stroke-opacity="1" stroke-miterlimit="4"/><path stroke-linecap="butt" transform="matrix(2.881773, 0, 0, 2.884808, 0.576388, 3.89335)" fill-opacity="1" fill="rgb(17.248535%, 44.309998%, 94.119263%)" fill-rule="nonzero" stroke-linejoin="miter" d="M 40.923221 48.316563 L 41.365115 48.48176 L 40.902888 48.902878 L 40.638565 48.695705 Z M 42.456294 47.482452 L 42.586422 48.109389 L 41.927648 48.476344 L 41.764988 47.667961 L 42.262457 47.550156 Z M 57.381731 26.625614 L 56.481678 28.102911 L 54.815765 28.626938 L 54.169191 29.618122 L 52.401615 30.224749 L 52.359595 30.904495 L 50.453758 32.022962 L 49.686544 32.112331 L 50.181302 33.454221 L 50.563554 33.241631 L 51.02578 33.687122 L 51.494784 34.737885 L 51.188441 34.801527 L 51.22775 35.07505 L 52.2376 34.962662 L 52.924839 34.249064 L 52.924839 33.850965 L 53.460263 34.010746 L 53.518549 33.555777 L 54.46469 33.493489 L 54.567708 34.3276 L 55.215638 34.549669 L 54.457913 35.428464 L 53.57548 35.299827 L 53.194584 35.92541 L 52.707959 36.085191 L 52.569698 36.354652 L 53.175607 36.978882 L 51.948878 37.253759 L 51.306369 36.862431 L 50.758746 37.079083 L 51.447342 38.603773 L 52.969571 38.158282 L 53.26507 39.508296 L 54.447069 38.951771 L 53.971287 37.764246 L 55.707686 36.823163 L 56.361038 35.684385 L 56.146869 35.023595 L 56.957459 35.043906 L 57.540325 34.651224 L 58.139457 35.043906 L 58.359048 35.695217 L 59.431251 35.245664 L 60.469566 35.622097 L 60.956191 34.61331 L 61.442817 34.607894 L 61.375041 33.241631 L 60.559029 32.894987 L 60.275729 31.471853 L 59.528847 31.492164 L 58.710124 30.612014 L 58.639637 29.565313 L 58.161145 29.057535 L 60.728467 28.678393 L 61.848112 28.108327 L 63.547912 29.907895 L 64.39239 29.933622 L 65.025409 29.473236 L 65.419861 30.085279 L 66.008149 29.447509 L 66.443265 29.815818 L 66.879737 29.557189 L 67.042397 30.972199 L 68.414165 33.804927 L 68.650023 35.417632 L 69.091917 36.068942 L 68.976699 36.678277 L 68.317925 37.186055 L 68.799128 38.752722 L 68.365367 40.904349 L 69.220689 41.858973 L 69.505345 42.978794 L 70.315935 42.767558 L 70.608724 43.102015 L 71.404404 43.11691 L 71.304097 44.28954 L 71.081794 44.958454 L 70.593813 45.334887 L 70.512483 45.994322 L 69.958083 46.768854 L 69.14207 46.783749 L 68.30437 47.649004 L 68.84386 48.271879 L 67.931607 49.414719 L 67.969561 49.950933 L 68.391122 50.338199 L 68.410099 51.326675 L 71.106193 53.365914 L 72.086222 54.747072 L 72.482028 54.917686 L 73.773822 54.193255 L 74.733518 54.269083 L 76.160862 54.305643 L 76.624444 55.002992 L 77.317105 55.16819 L 78.158872 55.948138 L 79.697368 55.179022 L 81.20062 55.620451 L 81.459521 55.153295 L 82.163027 55.466086 L 82.495125 55.999593 L 82.989883 56.052402 L 84.878098 54.634684 L 86.020786 54.271791 L 86.952017 55.077467 L 87.003526 55.41734 L 87.639256 54.937997 L 88.475601 55.055801 L 88.809055 55.13163 L 88.826676 55.476919 L 88.494578 56.030736 L 88.573198 56.852661 L 88.894452 57.200658 L 88.813121 58.037478 L 89.065245 58.239235 L 88.973071 59.331975 L 88.112327 59.455195 L 87.103833 59.130217 L 87.103833 59.376659 L 87.042835 60.02797 L 87.498284 61.159978 L 87.090278 61.089566 L 86.927618 61.564847 L 86.138715 62.164702 L 85.761886 63.960208 L 85.965211 64.661619 L 85.382345 65.480835 L 84.158326 66.003509 L 83.742187 66.646695 L 82.115584 67.486223 L 79.388313 67.972336 L 79.176855 67.404978 L 77.510942 67.120622 L 77.069048 66.627738 L 73.451212 65.788211 L 71.697192 66.970319 L 72.04149 67.752976 L 71.922206 68.213362 L 70.954377 68.620939 L 70.315935 69.413073 L 68.650023 70.170002 L 67.538511 70.077925 L 62.977245 73.315521 L 59.816214 71.77052 L 59.198104 72.264758 L 58.693858 73.514571 L 58.035083 73.239693 L 56.518276 73.626959 L 56.343416 74.095469 L 57.294979 74.669598 L 56.717535 75.24508 L 54.909295 75.621513 L 54.613795 74.882188 L 53.997042 75.315492 L 53.170185 74.821254 L 51.787573 75.337157 L 50.189435 76.657382 L 48.824444 76.979652 L 48.580454 76.62353 L 48.65094 75.410278 L 48.194136 75.899099 L 46.95114 76.252513 L 46.964695 77.272133 L 46.593287 77.706791 L 45.50753 77.737935 L 45.416711 76.320217 L 45.779986 76.111689 L 45.296072 76.050756 L 45.050726 75.219353 L 44.52208 75.213936 L 45.090035 73.307397 L 44.485481 72.374438 L 44.566811 72.046752 L 45.512952 71.999359 L 45.887071 71.372422 L 45.602415 69.693367 L 46.025332 69.617539 L 45.903337 69.274957 L 46.300499 69.008204 L 46.488914 68.11316 L 46.061931 66.244534 L 46.736971 65.927681 L 47.637024 64.664327 L 48.360863 64.910769 L 49.025059 64.290602 L 48.721426 62.676543 L 48.760736 62.046898 L 49.328691 61.753063 L 49.044036 61.081441 L 49.908846 61.050297 L 50.307364 61.884409 L 50.994604 61.028632 L 50.743836 61.008321 L 51.120666 59.276457 L 50.493068 58.824196 L 49.908846 58.840445 L 50.04033 58.141741 L 48.573676 57.896654 L 48.180581 57.363147 L 48.431349 55.766691 L 47.977255 55.042261 L 48.467947 54.514171 L 48.35273 54.007746 L 49.010148 52.835116 L 49.038614 52.590028 L 49.415444 51.992881 L 48.385262 50.981385 L 48.869176 50.447879 L 49.373423 50.655053 L 49.20263 51.000343 L 50.099972 50.860873 L 50.400894 50.434339 L 50.118949 49.127655 L 49.208052 48.844653 L 47.574671 49.051827 L 46.907764 48.640187 L 46.05922 48.645604 L 45.850472 48.327396 L 45.419422 48.630709 L 45.107657 48.384267 L 44.370263 48.507488 L 45.056148 48.04981 L 44.961263 47.401208 L 45.228297 47.050502 L 44.890776 46.567096 L 45.17001 45.593516 L 44.621031 45.217082 L 45.285228 45.062718 L 46.044309 44.15007 L 45.358425 43.004522 L 43.224864 44.07695 L 41.038439 44.58202 L 39.479611 44.506192 L 39.163779 44.414115 L 38.603956 43.034311 L 38.899456 41.743876 L 40.776827 40.308555 L 40.431173 39.42976 L 40.782249 38.927398 L 40.416263 38.385767 L 39.144802 37.724978 L 38.736795 38.005271 L 38.553803 37.570613 L 39.132602 36.913886 L 38.778816 36.77577 L 35.502567 37.72227 L 35.247732 37.515096 L 33.023353 38.940938 L 33.797345 36.553702 L 32.85527 34.774445 L 33.211768 34.330308 L 33.626551 35.588245 L 35.255865 34.605186 L 35.658449 33.833362 L 36.054256 33.673581 L 36.17354 34.00533 L 36.660166 33.979602 L 37.016663 34.353327 L 37.594107 33.364852 L 38.567358 33.249755 L 39.392859 31.643821 L 39.796798 31.432585 L 39.836108 30.831375 L 40.520637 30.576808 L 40.892044 31.142812 L 41.359693 30.820542 L 43.196398 30.56733 L 42.769415 29.955287 L 43.005273 29.43126 L 43.664047 29.167215 L 43.500031 28.171969 L 44.972107 28.093432 L 45.136122 28.430597 L 47.712932 28.64725 L 48.861043 28.492885 L 49.629613 27.559926 L 51.14642 27.052148 L 55.170907 27.726478 Z M 45.390957 46.772916 L 45.403156 47.241427 L 45.949424 46.974673 L 45.981956 46.516996 L 45.656635 46.629384 Z M 62.078547 34.725698 L 61.654275 34.880063 L 61.516014 35.381071 L 62.031105 35.391904 L 62.205964 34.926102 Z M 57.381731 26.625614 L 56.321728 26.620197 L 57.17705 25.423194 L 57.869712 26.243764 Z M 49.266338 20.469982 L 51.126088 20.96422 L 50.932251 21.832183 L 50.291098 21.795623 L 49.70281 21.057651 L 49.179586 20.905995 Z M 49.266338 20.469982 " stroke="rgb(100%, 100%, 100%)" stroke-width="0.5" stroke-opacity="1" stroke-miterlimit="4"/><path stroke-linecap="butt" transform="matrix(2.881773, 0, 0, 2.884808, 0.576388, 3.89335)" fill-opacity="1" fill="rgb(17.248535%, 44.309998%, 94.119263%)" fill-rule="nonzero" stroke-linejoin="miter" d="M 71.118393 20.344053 L 71.438291 19.675139 L 71.241744 19.310893 L 70.890668 19.302768 L 71.064173 18.139617 L 69.663939 18.154512 L 69.238311 17.061772 L 68.605291 16.70565 L 68.613424 16.180268 L 68.199996 16.368485 L 67.857054 15.592599 L 67.099328 15.623743 L 66.989532 16.612219 L 66.18843 17.51945 L 65.574388 17.723915 L 65.602853 16.395566 L 63.863744 15.927056 L 63.801391 15.638638 L 62.914892 15.335325 L 62.229008 15.728007 L 61.513303 15.68603 L 60.069693 14.206025 L 59.496315 14.331954 L 59.569512 15.317722 L 58.62066 16.384734 L 58.303473 15.191793 L 57.799226 15.10784 L 57.315312 14.023225 L 55.286125 15.367823 L 55.376943 15.937889 L 55.981497 15.602078 L 56.386792 15.895912 L 56.112981 16.659611 L 55.43523 16.637946 L 55.227838 16.35359 L 55.641266 17.305506 L 56.476256 17.508617 L 56.642982 17.845782 L 56.313595 18.743535 L 56.42068 19.397554 L 55.001469 19.538378 L 53.842514 20.012305 L 53.322001 19.407032 L 52.821821 19.560043 L 52.537166 20.226249 L 53.120032 20.205937 L 53.57548 20.720486 L 53.761184 21.130772 L 53.547015 21.722503 L 52.492434 22.0204 L 51.231817 21.868743 L 51.386344 22.419852 L 52.297242 22.901904 L 52.199645 23.610085 L 53.049546 23.660186 L 53.308446 22.495681 L 54.504 22.528178 L 54.58533 23.106369 L 55.413542 23.379892 L 56.003185 23.183551 L 56.431524 22.410374 L 56.237687 21.967591 L 58.165212 21.790207 L 57.751783 21.447625 L 57.74365 20.647366 L 58.246542 21.057651 L 59.414985 20.843707 L 59.710484 19.2635 L 59.015112 18.908732 L 59.122196 17.909424 L 60.297417 18.275025 L 60.840973 18.029937 L 60.584783 17.799744 L 60.782687 17.587154 L 61.206959 17.539761 L 61.337087 18.139617 L 62.433689 18.434806 L 62.723766 18.881651 L 62.360492 19.721178 L 61.913176 19.964912 L 61.696295 21.557306 L 61.065987 22.031232 L 60.02225 22.025816 L 60.042583 23.463845 L 60.335371 23.578942 L 60.416701 24.269521 L 62.380824 23.997351 L 63.401518 24.201817 L 63.885432 25.161857 L 64.834284 25.749526 L 65.731626 25.566726 L 66.061013 24.549814 L 66.933957 24.413053 L 67.332475 23.884963 L 68.701532 23.411036 L 68.380278 22.778683 L 68.864192 22.253301 L 69.769668 22.632442 L 71.657883 21.390754 Z M 71.118393 20.344053 " stroke="rgb(100%, 100%, 100%)" stroke-width="0.5" stroke-opacity="1" stroke-miterlimit="4"/><path stroke-linecap="butt" transform="matrix(2.881773, 0, 0, 2.884808, 0.576388, 3.89335)" fill-opacity="1" fill="rgb(17.248535%, 44.309998%, 94.119263%)" fill-rule="nonzero" stroke-linejoin="miter" d="M 61.608188 12.647483 L 61.380463 12.929131 L 61.956552 13.644083 L 61.875222 13.992081 L 61.760004 13.774075 L 61.568878 14.065201 L 60.068337 14.206025 L 59.49496 14.331954 L 59.568157 15.315014 L 58.619305 16.384734 L 58.303473 15.191793 L 57.79787 15.10784 L 57.313956 14.023225 L 57.648765 13.397641 L 58.25603 13.48701 L 58.489177 12.700292 L 59.500382 13.392225 L 60.512942 12.459266 L 61.446883 12.652899 L 62.102946 12.181681 Z M 61.608188 12.647483 " stroke="rgb(100%, 100%, 100%)" stroke-width="0.5" stroke-opacity="1" stroke-miterlimit="4"/><path stroke-linecap="butt" transform="matrix(2.881773, 0, 0, 2.884808, 0.576388, 3.89335)" fill-opacity="1" fill="rgb(17.248535%, 44.309998%, 94.119263%)" fill-rule="nonzero" stroke-linejoin="miter" d="M 29.726771 56.105211 L 29.797257 56.181039 L 30.157821 56.271762 L 29.836566 57.369918 L 29.623753 57.632609 L 29.310632 57.812701 L 28.826717 57.082854 L 29.68475 56.071359 Z M 32.422865 54.898728 L 32.516395 54.909561 L 32.639746 55.229123 L 32.794273 55.495876 L 33.541155 56.198642 L 33.016575 57.276487 L 32.898646 57.430851 L 31.643451 56.902762 L 30.983322 57.323879 L 30.239151 57.287319 L 30.408589 56.881096 L 31.015854 56.810684 L 31.230023 56.753813 L 32.361868 54.893312 Z M 32.974555 47.97669 L 34.035913 49.32535 L 34.914279 49.942809 L 33.968138 50.427568 L 34.643178 50.225811 L 35.236888 50.905557 L 34.297525 52.242031 L 34.542871 52.977294 L 34.342257 53.322584 L 34.587602 53.449867 L 34.883102 53.055831 L 35.268065 53.332062 L 34.559137 54.653641 L 34.499495 54.441051 L 33.397471 54.810713 L 32.721076 54.20815 L 31.514678 54.974557 L 30.798973 54.328662 L 30.563116 54.462716 L 29.963984 53.938688 L 29.833855 54.145862 L 30.095467 53.432264 L 29.882654 53.559547 L 28.601704 52.171619 L 29.943651 50.866289 Z M 45.65528 46.626676 L 45.979245 46.514287 L 45.948068 46.971965 L 45.401801 47.238718 L 45.388246 46.771562 Z M 39.44979 44.480465 L 41.008617 44.559001 L 43.195043 44.053931 L 45.328604 42.981502 L 46.013132 44.127051 L 45.255407 45.039698 L 44.59121 45.194063 L 45.140189 45.570496 L 44.860955 46.542723 L 45.199831 47.027482 L 44.931441 47.378188 L 45.024971 48.026791 L 44.340442 48.484469 L 45.077836 48.361248 L 45.388246 48.606336 L 45.820651 48.303022 L 46.029398 48.622584 L 46.876587 48.617168 L 47.543495 49.027453 L 49.178231 48.821634 L 50.087773 49.103282 L 50.371073 50.411319 L 50.070151 50.837853 L 49.172809 50.975969 L 49.343602 50.63068 L 48.837999 50.42486 L 48.354085 50.961074 L 49.384267 51.972569 L 49.008793 52.568363 L 48.978972 52.814805 L 48.322909 53.986081 L 48.440837 54.49386 L 47.94879 55.021949 L 48.404239 55.74638 L 48.153471 57.341482 L 48.545211 57.874988 L 50.011865 58.12143 L 49.881736 58.81878 L 50.464602 58.803885 L 51.0922 59.256146 L 50.71537 60.986656 L 50.967494 61.008321 L 50.278899 61.862743 L 49.881736 61.028632 L 49.01557 61.06113 L 49.301581 61.732752 L 48.733626 62.025232 L 48.694316 62.656232 L 48.997949 64.268937 L 48.333753 64.889104 L 47.608559 64.644016 L 46.709861 65.906015 L 46.03482 66.222869 L 45.035815 67.315609 L 44.481415 66.599302 L 43.440389 67.499763 L 42.896832 67.514658 L 42.017111 69.0732 L 41.209232 69.651391 L 39.818486 69.625663 L 38.422319 70.982448 L 38.309812 71.662194 L 37.088504 72.156432 L 37.378582 71.621572 L 36.931266 71.019008 L 36.993619 70.237706 L 36.666943 69.406303 L 36.05019 68.875505 L 35.39006 68.906649 L 34.533382 68.297314 L 33.98847 68.558651 L 34.046757 67.899216 L 32.822738 69.274957 L 32.299514 69.274957 L 31.00501 67.656836 L 31.509256 66.725232 L 31.69496 67.025837 L 32.57197 66.83762 L 32.783429 67.388729 L 33.923406 65.885704 L 34.218906 65.815292 L 34.077934 65.329179 L 33.591308 65.778732 L 33.236167 65.613535 L 32.940667 64.959516 L 32.859337 64.899937 L 32.271049 64.6386 L 31.797978 65.043469 L 31.137849 64.526212 L 31.10125 64.910769 L 30.456031 65.059718 L 30.766441 63.386079 L 30.594292 61.317051 L 31.292376 61.382046 L 31.821022 60.640012 L 32.524528 61.002905 L 33.026064 60.741568 L 33.16568 60.079425 L 32.859337 59.690805 L 33.871897 58.936584 L 34.002025 58.419327 L 35.398193 57.059834 L 35.602874 56.489768 L 35.239599 55.971157 L 34.868191 56.120105 L 34.452052 55.796481 L 34.663511 55.513479 L 34.872258 55.678676 L 35.659805 54.435634 L 36.183029 54.250126 L 36.528682 53.483719 L 36.162696 52.856781 L 36.424308 52.202762 L 37.173901 52.495243 L 37.443646 51.925177 L 37.108837 51.611031 L 37.351472 51.06263 L 36.915 51.264387 L 36.784872 50.887954 L 37.310807 49.843961 L 37.009885 49.406595 L 36.765895 49.124947 L 36.22776 49.42826 L 36.478528 50.214978 L 35.529677 48.981415 L 35.071517 48.841945 L 35.246377 48.502072 L 34.061668 47.157474 L 35.2152 45.756005 L 36.467684 47.207575 L 37.23761 47.463495 L 37.043773 47.999709 L 38.0604 49.035578 L 37.482956 49.566376 L 37.682215 49.801985 L 38.00618 49.864272 L 38.290835 49.478361 L 38.971297 49.864272 L 38.758483 50.225811 L 39.098715 50.539957 L 38.754417 51.039611 L 38.986208 51.271158 L 40.200738 49.908957 L 39.878128 49.328058 L 40.639921 48.701121 L 40.904244 48.90694 L 41.36647 48.487177 L 40.924576 48.321979 L 39.739867 46.477727 L 39.948615 44.843357 Z M 41.763632 47.667961 L 41.926293 48.476344 L 42.585067 48.109389 L 42.454939 47.482452 L 42.261102 47.550156 Z M 41.763632 47.667961 " stroke="rgb(100%, 100%, 100%)" stroke-width="0.5" stroke-opacity="1" stroke-miterlimit="4"/><path fill="rgb(17.248535%, 44.309998%, 94.119263%)" d="M 20.191406 229.789062 L 22.054688 231.847656 L 27.722656 234.714844 L 29.882812 230.679688 L 32.671875 231.917969 L 33.132812 233.839844 L 31.625 235.765625 L 33.976562 239.566406 L 35.800781 239.550781 L 37.550781 237.75 L 37.667969 239.039062 L 38.941406 238.878906 L 38.964844 240.636719 L 37.503906 243.40625 L 32.695312 246.355469 L 31.074219 246.234375 L 26.507812 250.015625 L 26.660156 251.878906 L 20.515625 255.921875 L 17.101562 255.5 L 16.875 254.179688 L 12.746094 254.148438 L 11.148438 256.625 L 10.34375 255.757812 L 6.835938 255.183594 L 3.136719 257.566406 L 5.691406 251.003906 L 6.183594 251.546875 L 6.914062 249.789062 L 3.859375 247.578125 L 5.429688 244.628906 L 6.648438 244.878906 L 6.476562 243.835938 L 7.457031 244.214844 L 10.832031 241.398438 L 12.210938 242.410156 L 13.660156 240.402344 L 14.734375 240.902344 L 16.222656 240.078125 L 18 241.414062 L 20.101562 239.582031 L 17.832031 234.578125 L 19.664062 233.125 Z M 25.703125 225.15625 L 25.964844 226.023438 L 24.585938 226.128906 L 25.203125 225.230469 L 25.242188 225 L 25.476562 224.953125 Z M 31.144531 227.933594 L 27.511719 226.199219 L 24.925781 223.8125 L 25.914062 222.855469 L 32.0625 226.015625 Z M 31.144531 227.933594 " fill-opacity="1" fill-rule="nonzero"/><g clip-path="url(#id2)"><path stroke-linecap="butt" transform="matrix(2.881773, 0, 0, 2.884808, 0.576388, 3.89335)" fill="none" stroke-linejoin="miter" d="M 6.80658 78.305293 L 7.453155 79.018891 L 9.419989 80.012783 L 10.169582 78.614022 L 11.137411 79.043264 L 11.29736 79.70947 L 10.774136 80.37703 L 11.590148 81.694546 L 12.223168 81.68913 L 12.830433 81.064901 L 12.871098 81.511746 L 13.312992 81.456229 L 13.321125 82.065563 L 12.814167 83.025603 L 11.145544 84.047931 L 10.58301 84.005954 L 8.998428 85.3167 L 9.051292 85.962595 L 6.919087 87.364064 L 5.734378 87.217824 L 5.655759 86.760146 L 4.222993 86.749313 L 3.668592 87.607798 L 3.389359 87.307193 L 2.172118 87.108143 L 0.888457 87.93413 L 1.774955 85.659282 L 1.945749 85.847498 L 2.199228 85.238164 L 1.139225 84.471757 L 1.684137 83.449429 L 2.107053 83.53609 L 2.047411 83.174552 L 2.387642 83.305897 L 3.558796 82.329608 L 4.037289 82.680314 L 4.54018 81.984318 L 4.912943 82.15764 L 5.42939 81.87193 L 6.046143 82.335024 L 6.775404 81.699962 L 5.987857 79.96539 L 6.623587 79.461674 Z M 8.719194 76.699358 L 8.810013 76.999963 L 8.331521 77.036523 L 8.54569 76.725086 L 8.559245 76.645195 L 8.640575 76.628946 Z M 10.607409 77.662107 L 9.346792 77.060897 L 8.449449 76.233556 L 8.792391 75.901807 L 10.925952 76.997255 Z M 10.607409 77.662107 " stroke="rgb(100%, 100%, 100%)" stroke-width="0.5" stroke-opacity="1" stroke-miterlimit="4"/></g><path stroke-linecap="butt" transform="matrix(2.881773, 0, 0, 2.884808, 0.576388, 3.89335)" fill-opacity="1" fill="rgb(17.248535%, 44.309998%, 94.119263%)" fill-rule="nonzero" stroke-linejoin="miter" d="M 108.481462 34.341141 L 110.686864 36.641717 L 113.045438 36.565888 L 114.975674 36.92201 L 114.95263 39.840045 L 114.456516 40.594266 L 113.199966 41.31328 L 114.66933 41.982194 L 115.645292 41.477123 L 116.798825 42.411436 L 117.094324 43.498759 L 116.584655 46.062026 L 117.08348 46.716045 L 117.018416 47.612443 L 116.263401 48.136471 L 115.42299 49.352432 L 114.857745 49.639496 L 113.647281 49.516275 L 113.781476 49.799277 L 113.202677 50.43163 L 112.191472 51.034194 L 111.59234 49.927914 L 110.430674 49.762717 L 109.862719 50.204146 L 109.873563 51.043673 L 108.542459 53.039582 L 105.705393 53.78974 L 105.271632 53.65704 L 105.198435 53.008438 L 103.913418 52.93261 L 104.057102 52.166202 L 103.730426 51.433647 L 106.720664 49.650328 L 106.591891 48.3951 L 105.964294 47.41204 L 106.975498 47.008525 L 106.693554 46.452 L 107.227622 45.34572 L 106.330279 44.953037 L 105.857209 44.166319 L 106.178463 43.891442 L 105.427515 43.22659 L 105.114394 42.422269 L 104.498996 42.09729 L 104.870403 41.911782 L 104.84736 41.339008 L 105.558998 41.339008 L 106.479385 40.766233 L 107.410615 38.90167 L 106.67051 38.573984 L 107.261509 37.955171 L 107.14087 36.291011 Z M 108.481462 34.341141 " stroke="rgb(100%, 100%, 100%)" stroke-width="0.5" stroke-opacity="1" stroke-miterlimit="4"/><path fill="rgb(17.248535%, 44.309998%, 94.119263%)" d="M 368.875 120.371094 L 369.476562 121.519531 L 374.023438 119.601562 L 377 121.179688 L 378.160156 119.972656 L 381.769531 119.511719 L 382.671875 120.597656 L 384.632812 120.855469 L 385.671875 122.339844 L 389.035156 123.382812 L 392.210938 123.148438 L 397.6875 126.929688 L 400.113281 125.414062 L 402.003906 125.78125 L 401.238281 127.375 L 403.007812 128.828125 L 403.351562 130.4375 L 401.191406 134.261719 L 401.980469 135.121094 L 401.734375 138.496094 L 408.050781 141.789062 L 411.953125 141.390625 L 413.296875 143.429688 L 416.164062 143.550781 L 419.550781 147.351562 L 419.890625 149.425781 L 423.152344 149.53125 L 425.074219 152.480469 L 426.824219 151.441406 L 431.488281 151.101562 L 434.027344 148.714844 L 437.796875 148.738281 L 438.164062 146.023438 L 437.253906 144.199219 L 438.921875 139 L 444.480469 140.726562 L 446.394531 139.90625 L 445.574219 136.59375 L 447.535156 135.65625 L 449.554688 130.285156 L 452.054688 130.128906 L 453.464844 128.738281 L 454.777344 129.214844 L 457.664062 132.332031 L 457.664062 135 L 460.546875 135.671875 L 464.007812 137.914062 L 462.621094 144.792969 L 461.550781 145.894531 L 462.117188 151.3125 L 460.675781 154.230469 L 460.664062 156.425781 L 459.039062 159.210938 L 457 159.925781 L 459.011719 162.667969 L 459.417969 164.976562 L 455.078125 168.429688 L 456.734375 170.679688 L 456.570312 171.910156 L 453.523438 175.703125 L 455.183594 182.953125 L 459.710938 182.328125 L 464.21875 186.394531 L 462.476562 196.535156 L 461.191406 196.917969 L 460.414062 198.304688 L 456.699219 195.355469 L 454.519531 196.316406 L 450.105469 194.570312 L 448.792969 196.578125 L 447.523438 195.339844 L 445.90625 195.929688 L 444.351562 195.410156 L 443.394531 192.332031 L 441.496094 191.394531 L 440.019531 192.242188 L 439.265625 191.53125 L 438.765625 189.34375 L 440.578125 186.46875 L 438.589844 182.984375 L 436.042969 185.421875 L 433.449219 184.144531 L 427.441406 187.222656 L 424.625 186.5 L 424.464844 190.777344 L 422.46875 191.78125 L 422.542969 193.570312 L 418.757812 196.964844 L 419.761719 199.914062 L 418.546875 201.695312 L 419.136719 202.929688 L 418.5625 205.882812 L 419.691406 207.957031 L 418.277344 210.90625 L 420.042969 211.652344 L 420.507812 213.539062 L 422.058594 213.394531 L 422.46875 214.40625 L 424.261719 214.453125 L 427.410156 212.949219 L 428.796875 213.433594 L 429.371094 215.78125 L 430.503906 215.175781 L 431.085938 215.9375 L 430.777344 219.144531 L 428.542969 219.558594 L 427.296875 220.789062 L 427.351562 223.1875 L 425.203125 224.554688 L 424.9375 227.542969 L 426.074219 230.242188 L 430.027344 233.472656 L 432.183594 238.667969 L 427.933594 243.128906 L 423.484375 242.796875 L 421.390625 244.320312 L 418.84375 242.546875 L 420.386719 239.726562 L 419.859375 237.394531 L 414.3125 234.785156 L 413.640625 233.699219 L 414.386719 230.257812 L 412.324219 228.9375 L 413.859375 224.675781 L 410.613281 222.863281 L 409.78125 220.75 L 407.40625 221.378906 L 406.625 222.585938 L 404.71875 220.394531 L 401.253906 222.9375 L 397.65625 223.113281 L 391.582031 227.097656 L 388.328125 224.71875 L 387.398438 224.921875 L 386.199219 225.996094 L 385.476562 228.769531 L 386.253906 230.167969 L 385.039062 233.238281 L 382.523438 233.183594 L 381.039062 231.917969 L 376.789062 234.324219 L 374.171875 233.035156 L 371.648438 232.972656 L 369.109375 231.230469 L 368.144531 231.945312 L 365.167969 228.316406 L 363.199219 222.394531 L 359.5 221.265625 L 360.011719 218.441406 L 358.65625 214.464844 L 359.695312 205.957031 L 357.753906 204.785156 L 359.125 204.273438 L 359.558594 201.355469 L 356.726562 202.804688 L 354.230469 207.578125 L 350.5 204.96875 L 349.863281 203.496094 L 350.476562 202.238281 L 349.28125 201.414062 L 340.621094 203.332031 L 340.191406 209.109375 L 337.628906 210.429688 L 337.539062 211.375 L 338.089844 213.304688 L 340.832031 215.507812 L 340.53125 218.570312 L 341.230469 219.605469 L 340.304688 221.929688 L 342.453125 224.320312 L 342.046875 227.109375 L 342.671875 228.394531 L 341.105469 230.394531 L 341.292969 232.597656 L 338.027344 237.070312 L 337.652344 241.898438 L 334.796875 242.101562 L 334.601562 244.613281 L 332.78125 246.03125 L 332.09375 249.828125 L 330.722656 251.457031 L 328.886719 251.441406 L 326.503906 249.949219 L 324.4375 246.71875 L 321.457031 244.929688 L 320.40625 238.082031 L 318.078125 233.683594 L 320.25 230.445312 L 319.128906 228.507812 L 319.390625 227.011719 L 319.796875 225.957031 L 321.589844 225.1875 L 322.300781 221.632812 L 321.71875 216.894531 L 323.066406 215.96875 L 321.675781 212.859375 L 322.253906 208.742188 L 321.183594 206.53125 L 317.589844 205.941406 L 314.9375 201.339844 L 314.582031 195.695312 L 316.941406 189.984375 L 315.984375 188.105469 L 313.015625 186.410156 L 308.691406 187.691406 L 307.753906 183.351562 L 306.632812 185.359375 L 304.710938 184.667969 L 302.988281 185.875 L 304.015625 188.597656 L 303.441406 189.804688 L 296.734375 193.386719 L 295.492188 193.597656 L 295.175781 192.300781 L 292.199219 193.363281 L 287.277344 191.605469 L 286.019531 192.136719 L 284.851562 191.441406 L 283.636719 192.300781 L 281.804688 190.808594 L 279.847656 191.101562 L 279.839844 185.625 L 277.082031 182.9375 L 277.382812 180.675781 L 279.816406 178.425781 L 279.417969 174.332031 L 281.585938 172.820312 L 282.90625 173.417969 L 286.773438 170.679688 L 286.914062 167.96875 L 288.558594 166.726562 L 290.351562 169.140625 L 293.472656 167.835938 L 294.066406 164.0625 L 295.636719 163.453125 L 295.046875 159.746094 L 296.773438 159.46875 L 300.03125 156.59375 L 303.730469 156.8125 L 303.941406 158.683594 L 305.191406 159.066406 L 313.371094 156.902344 L 317.207031 151.144531 L 317.171875 148.722656 L 318.8125 147.449219 L 322.15625 147.925781 L 323.882812 151.117188 L 326.800781 149.378906 L 328.464844 147.554688 L 328.078125 146.738281 L 331.566406 147.09375 L 333.195312 146.265625 L 335.617188 142.757812 L 337.796875 141.246094 L 339.640625 143.1875 L 343.890625 142.742188 L 344.734375 143.488281 L 354.1875 144.75 L 358.167969 147.617188 L 358.714844 145.683594 L 360.140625 145.269531 L 360.058594 143.550781 L 362.128906 141.707031 L 361.210938 141.21875 L 361.332031 139.730469 L 363.832031 135.507812 L 365.242188 135.0625 L 365.332031 132.902344 L 367.972656 132.105469 L 360.960938 120.914062 L 361.585938 120.386719 L 362.003906 121.453125 L 362.703125 120.363281 L 367.367188 119.113281 Z M 368.875 120.371094 " fill-opacity="1" fill-rule="nonzero"/><g clip-path="url(#id3)"><path stroke-linecap="butt" transform="matrix(2.881773, 0, 0, 2.884808, 0.576388, 3.89335)" fill="none" stroke-linejoin="miter" d="M 127.802793 40.376259 L 128.011541 40.774358 L 129.589345 40.109506 L 130.622238 40.656553 L 131.024822 40.238143 L 132.277307 40.078362 L 132.590428 40.454796 L 133.27089 40.544165 L 133.631454 41.058714 L 134.798541 41.420252 L 135.900565 41.339008 L 137.800979 42.649753 L 138.642746 42.124372 L 139.298809 42.251655 L 139.033131 42.804118 L 139.647173 43.307835 L 139.766458 43.865714 L 139.016865 45.191355 L 139.290676 45.489252 L 139.20528 46.659174 L 141.397127 47.80066 L 142.751274 47.662544 L 143.217567 48.369372 L 144.212506 48.411349 L 145.387726 49.728865 L 145.505655 50.447879 L 146.637499 50.484439 L 147.304407 51.506767 L 147.911672 51.146583 L 149.530142 51.028778 L 150.411218 50.201437 L 151.719278 50.209562 L 151.846695 49.268479 L 151.530863 48.636125 L 152.109663 46.83385 L 154.038543 47.432351 L 154.702739 47.147995 L 154.418083 45.999738 L 155.098545 45.67476 L 155.79934 43.812905 L 156.666862 43.758742 L 157.156198 43.276691 L 157.611647 43.441888 L 158.613363 44.522441 L 158.613363 45.447275 L 159.613724 45.680176 L 160.814699 46.457416 L 160.333496 48.841945 L 159.962088 49.223794 L 160.158636 51.101898 L 159.658456 52.113393 L 159.654389 52.874384 L 159.0905 53.839841 L 158.382928 54.087637 L 159.081012 55.038198 L 159.221984 55.838457 L 157.716021 57.035461 L 158.290754 57.815409 L 158.233823 58.241943 L 157.176531 59.556751 L 157.752619 62.069917 L 159.323647 61.853265 L 160.887896 63.262858 L 160.283342 66.778041 L 159.837382 66.91074 L 159.567637 67.391437 L 158.278554 66.36911 L 157.522184 66.702212 L 155.990466 66.09694 L 155.535017 66.792935 L 155.094479 66.363693 L 154.533301 66.568159 L 153.993811 66.388067 L 153.661713 65.321054 L 153.002939 64.996076 L 152.490559 65.289911 L 152.228947 65.043469 L 152.055443 64.285186 L 152.684396 63.288586 L 151.994445 62.08075 L 151.110657 62.925693 L 150.210604 62.48291 L 148.125841 63.549922 L 147.148524 63.299418 L 147.092948 64.782132 L 146.400286 65.13013 L 146.426041 65.750297 L 145.112559 66.926989 L 145.460923 67.949317 L 145.039362 68.566775 L 145.244043 68.994664 L 145.044784 70.018345 L 145.436524 70.73736 L 144.945832 71.759688 L 145.558519 72.018316 L 145.719824 72.672335 L 146.257959 72.622234 L 146.400286 72.97294 L 147.022462 72.989189 L 148.114997 72.46787 L 148.5962 72.635775 L 148.795459 73.449575 L 149.188555 73.239693 L 149.390525 73.503738 L 149.28344 74.615435 L 148.508093 74.758967 L 148.075687 75.185501 L 148.094664 76.016904 L 147.349138 76.49083 L 147.256964 77.526699 L 147.651415 78.462366 L 149.023184 79.582187 L 149.771421 81.383108 L 148.296634 82.929464 L 146.752717 82.814367 L 146.026168 83.342457 L 145.14238 82.727706 L 145.677804 81.750063 L 145.494811 80.94168 L 143.569997 80.037157 L 143.336851 79.660723 L 143.595752 78.467782 L 142.880047 78.010104 L 143.412759 76.532807 L 142.286337 75.904515 L 141.997615 75.17196 L 141.173469 75.389966 L 140.902369 75.808376 L 140.240883 75.048739 L 139.038553 75.930243 L 137.790135 75.991176 L 135.682329 77.372334 L 134.553195 76.547702 L 134.230586 76.618114 L 133.814446 76.990485 L 133.563678 77.951879 L 133.833423 78.436638 L 133.411862 79.500942 L 132.538919 79.481985 L 132.023828 79.043264 L 130.549041 79.877376 L 129.640854 79.43053 L 128.7652 79.408865 L 127.884123 78.804947 L 127.549314 79.052743 L 126.516421 77.794806 L 125.833248 75.742026 L 124.549587 75.350698 L 124.727158 74.371701 L 124.256799 72.993251 L 124.617362 70.044073 L 123.943678 69.63785 L 124.419459 69.460466 L 124.56992 68.448971 L 123.587181 68.951333 L 122.721015 70.606015 L 121.42651 69.701491 L 121.205563 69.191005 L 121.418377 68.754992 L 121.003593 68.469282 L 117.998444 69.134133 L 117.849339 71.136812 L 116.960129 71.59449 L 116.928953 71.922177 L 117.120079 72.59109 L 118.071641 73.35479 L 117.967268 74.416385 L 118.209903 74.775216 L 117.888648 75.580891 L 118.634175 76.409586 L 118.493203 77.376396 L 118.710083 77.821888 L 118.166526 78.515175 L 118.231591 79.278874 L 117.098391 80.829291 L 116.968262 82.50293 L 115.97739 82.573342 L 115.909615 83.444013 L 115.277951 83.935542 L 115.039382 85.251705 L 114.563601 85.816355 L 113.926515 85.810938 L 113.099658 85.293681 L 112.382598 84.17386 L 111.348349 83.553693 L 110.983719 81.179997 L 110.17584 79.655307 L 110.929499 78.532778 L 110.54047 77.861156 L 110.631288 77.342545 L 110.772261 76.976944 L 111.394436 76.710191 L 111.641138 75.477981 L 111.439168 73.835487 L 111.906816 73.514571 L 111.424257 72.436726 L 111.624872 71.009529 L 111.253464 70.243122 L 110.006402 70.038657 L 109.086016 68.443555 L 108.962665 66.486914 L 109.781388 64.507254 L 109.44929 63.855944 L 108.419109 63.268275 L 106.918567 63.712412 L 106.593247 62.208033 L 106.204218 62.904028 L 105.53731 62.664357 L 104.939534 63.082766 L 105.296031 64.026557 L 105.096772 64.444967 L 102.769374 65.686655 L 102.338325 65.759775 L 102.228529 65.310222 L 101.195636 65.678531 L 99.487703 65.069196 L 99.051231 65.253351 L 98.645936 65.012325 L 98.224375 65.310222 L 97.588644 64.792965 L 96.909537 64.89452 L 96.906826 62.996105 L 95.949842 62.064501 L 96.054215 61.28049 L 96.898693 60.500542 L 96.760432 59.08147 L 97.512736 58.557443 L 97.970896 58.764617 L 99.312843 57.815409 L 99.361641 56.87568 L 99.932308 56.445084 L 100.554483 57.281903 L 101.63753 56.829641 L 101.843566 55.521604 L 102.388478 55.310368 L 102.183797 54.025349 L 102.782929 53.92921 L 103.913418 52.93261 L 105.197079 53.008438 L 105.270276 53.65704 L 105.704037 53.78974 L 108.542459 53.039582 L 109.873563 51.043673 L 109.861363 50.204146 L 110.430674 49.762717 L 111.590984 49.927914 L 112.190116 51.034194 L 113.202677 50.43163 L 113.780121 49.799277 L 113.645926 49.516275 L 114.85639 49.639496 L 115.421634 49.352432 L 116.262046 48.136471 L 117.018416 47.612443 L 117.658213 48.285419 L 119.133 48.131055 L 119.425788 48.389683 L 122.706104 48.82705 L 124.087361 49.820942 L 124.277131 49.150674 L 124.77189 49.007142 L 124.743424 48.411349 L 125.46184 47.772224 L 125.143297 47.602965 L 125.185318 47.087062 L 126.05284 45.623305 L 126.542176 45.468941 L 126.573352 44.720136 L 127.489672 44.443905 L 125.056545 40.564476 L 125.273426 40.381676 L 125.418464 40.751338 L 125.661099 40.373551 L 127.279569 39.940247 Z M 127.802793 40.376259 " stroke="rgb(100%, 100%, 100%)" stroke-width="0.5" stroke-opacity="1" stroke-miterlimit="4"/></g><path stroke-linecap="butt" transform="matrix(2.881773, 0, 0, 2.884808, 0.576388, 3.89335)" fill-opacity="1" fill="rgb(17.248535%, 44.309998%, 94.119263%)" fill-rule="nonzero" stroke-linejoin="miter" d="M 38.942832 17.466641 L 40.349843 18.035353 L 41.747366 17.650795 L 42.198749 17.226969 L 43.706067 17.977128 L 44.79318 17.723915 L 44.257757 18.30346 L 43.670824 20.333221 L 44.604765 20.759755 L 45.868094 20.574246 L 46.253056 21.509913 L 47.607203 20.832875 L 49.264983 20.469982 L 49.179586 20.905995 L 49.700099 21.057651 L 50.291098 21.795623 L 50.930895 21.832183 L 51.231817 21.868743 L 51.386344 22.419852 L 52.295886 22.901904 L 52.196934 23.610085 L 53.049546 23.660186 L 54.04584 24.143592 L 56.183467 24.05016 L 56.114336 24.429302 L 56.724313 24.668973 L 56.701269 25.308097 L 57.17705 25.420486 L 56.324439 26.620197 L 57.380376 26.625614 L 55.134308 27.695334 L 51.109822 27.021004 L 49.590303 27.527428 L 48.820378 28.461741 L 47.674978 28.618814 L 45.099524 28.399454 L 44.934152 28.060935 L 43.462077 28.139471 L 43.627448 29.136071 L 42.968674 29.400116 L 42.732817 29.924144 L 43.158444 30.534832 L 41.323094 30.789398 L 40.855446 31.110315 L 40.484038 30.545665 L 39.800865 30.800231 L 39.761555 31.401441 L 39.358971 31.612677 L 38.532115 33.218611 L 37.560219 33.331 L 36.98142 34.319476 L 36.623567 33.948459 L 36.136942 33.974186 L 36.016302 33.642437 L 35.621851 33.802218 L 35.219267 34.574042 L 33.589953 35.557101 L 33.173813 34.299164 L 32.818672 34.743301 L 32.689899 34.790694 L 32.070434 34.471132 L 33.215834 33.813051 L 33.440847 33.011438 L 36.09221 30.800231 L 35.66116 28.487469 L 37.543953 28.093432 L 38.224415 27.127976 L 38.027868 26.536245 L 39.291196 26.423856 L 39.837463 25.577558 L 39.448434 25.339241 L 39.390148 24.580958 L 38.244748 24.033911 L 37.462623 24.528149 L 34.954944 24.918123 L 34.267704 24.719074 L 33.396116 25.072488 L 33.592664 23.968916 L 34.617424 23.22282 L 34.620135 22.404957 L 35.461902 22.321005 L 35.551365 20.911411 L 36.226405 20.874851 L 36.67101 20.215416 L 37.735079 19.82815 L 37.068172 17.729332 L 38.38572 17.190409 Z M 38.942832 17.466641 " stroke="rgb(100%, 100%, 100%)" stroke-width="0.5" stroke-opacity="1" stroke-miterlimit="4"/><path stroke-linecap="butt" transform="matrix(2.881773, 0, 0, 2.884808, 0.576388, 3.89335)" fill-opacity="1" fill="rgb(17.248535%, 44.309998%, 94.119263%)" fill-rule="nonzero" stroke-linejoin="miter" d="M 67.039686 30.958658 L 67.854343 31.275512 L 69.808977 30.700029 L 70.619568 31.142812 L 71.605018 30.230165 L 71.215989 29.130655 L 72.457629 29.073784 L 72.800571 28.778595 L 73.555586 29.924144 L 73.529832 30.705446 L 73.98528 30.893662 L 75.141524 30.614723 L 74.984286 30.119131 L 75.538686 30.157045 L 76.124263 29.737281 L 76.475338 29.891646 L 76.812858 30.685135 L 77.416057 30.842207 L 79.071126 30.276203 L 79.157878 30.915328 L 78.459794 31.048027 L 79.218875 31.898387 L 79.521152 31.861827 L 80.182638 31.681735 L 80.193482 30.80971 L 80.730261 30.303285 L 81.014916 29.209191 L 81.519163 29.253876 L 81.814662 28.534861 L 82.129139 28.509134 L 83.530729 29.295852 L 83.418222 29.944455 L 83.975333 30.658053 L 84.220679 32.167848 L 85.725287 35.795419 L 86.843576 36.186747 L 87.495573 36.079775 L 87.70432 37.023566 L 88.745346 36.657965 L 88.91614 37.418956 L 87.717875 38.129847 L 86.695827 39.949725 L 87.079434 40.24356 L 88.486445 40.036386 L 91.070033 42.215095 L 90.87213 43.051914 L 89.501717 43.458137 L 89.577625 42.835262 L 88.030997 42.422269 L 88.070306 43.360644 L 86.606364 43.413453 L 86.483013 42.395187 L 85.944878 42.293631 L 84.77508 43.854881 L 84.215257 43.344395 L 83.187786 43.598961 L 82.377196 43.418869 L 81.668268 44.029557 L 81.067781 43.705933 L 80.70315 44.359952 L 81.096246 44.767529 L 80.114862 45.058655 L 79.599771 44.835233 L 78.329666 45.505501 L 78.781048 46.545431 L 77.758999 47.322671 L 76.92401 48.894754 L 76.822347 48.08637 L 76.338433 47.875134 L 75.516998 48.640187 L 75.369248 50.416736 L 74.500371 51.739668 L 75.26623 53.193946 L 74.722674 54.255542 L 73.762978 54.179714 L 72.473895 54.904145 L 72.078089 54.734885 L 71.09806 53.353727 L 68.401966 51.310426 L 68.382989 50.324658 L 67.962783 49.937393 L 67.926185 49.403886 L 68.838438 48.261046 L 68.298948 47.636817 L 69.133937 46.77427 L 69.94995 46.758021 L 70.50435 45.98349 L 70.58568 45.324054 L 71.075017 44.947621 L 71.297319 44.278707 L 71.396271 43.107431 L 70.603302 43.091182 L 70.310513 42.756726 L 69.497212 42.967961 L 69.212556 41.849494 L 68.359945 40.894871 L 68.793706 38.739181 L 68.312503 37.175223 L 68.971277 36.668798 L 69.089206 36.059464 L 68.647312 35.408153 L 68.411454 33.791386 Z M 67.039686 30.958658 " stroke="rgb(100%, 100%, 100%)" stroke-width="0.5" stroke-opacity="1" stroke-miterlimit="4"/><path stroke-linecap="butt" transform="matrix(2.881773, 0, 0, 2.884808, 0.576388, 3.89335)" fill-opacity="1" fill="rgb(17.248535%, 44.309998%, 94.119263%)" fill-rule="nonzero" stroke-linejoin="miter" d="M 32.818672 34.743301 L 33.760746 36.523912 L 32.986754 38.912503 L 35.213845 37.483952 L 35.468679 37.691126 L 38.744928 36.747335 L 39.097359 36.88545 L 38.519915 37.542177 L 38.702908 37.975482 L 39.110914 37.696542 L 40.382375 38.357331 L 40.751072 38.90167 L 40.399997 39.401324 L 40.74565 40.28012 L 38.868279 41.715441 L 38.57278 43.004522 L 39.135313 44.385679 L 37.810987 44.00383 L 35.213845 45.758713 L 34.061668 47.157474 L 32.97591 47.97669 L 29.945007 50.863581 L 29.084263 49.979369 L 28.284516 50.049781 L 28.529862 48.698413 L 27.711139 48.12293 L 27.829067 46.567096 L 25.253613 47.911694 L 24.541974 49.058597 L 23.515859 49.310455 L 23.056343 49.310455 L 20.887539 50.698384 L 19.39242 51.225119 L 18.602162 50.925868 L 18.745846 48.985477 L 17.619423 47.050502 L 19.910222 44.67139 L 20.197589 45.087091 L 24.730389 43.428347 L 25.687374 41.900949 L 27.761292 40.718841 L 26.796175 39.876605 L 27.313976 39.474444 L 27.182493 39.108844 L 27.998505 38.611898 L 28.558328 38.632209 L 28.56375 37.742581 L 30.81795 36.652549 L 32.691255 34.790694 Z M 32.818672 34.743301 " stroke="rgb(100%, 100%, 100%)" stroke-width="0.5" stroke-opacity="1" stroke-miterlimit="4"/><path stroke-linecap="butt" transform="matrix(2.881773, 0, 0, 2.884808, 0.576388, 3.89335)" fill-opacity="1" fill="rgb(17.248535%, 44.309998%, 94.119263%)" fill-rule="nonzero" stroke-linejoin="miter" d="M 81.094891 44.767529 L 80.70315 44.359952 L 81.066425 43.705933 L 81.668268 44.029557 L 82.377196 43.418869 L 83.187786 43.598961 L 84.215257 43.344395 L 84.77508 43.854881 L 85.943523 42.293631 L 86.483013 42.395187 L 86.606364 43.413453 L 88.070306 43.360644 L 88.030997 42.422269 L 89.576269 42.835262 L 89.500361 43.458137 L 89.412254 44.129759 L 90.460057 44.517025 L 92.159857 44.359952 L 93.149374 43.795302 L 93.259169 44.211004 L 92.573285 45.196771 L 92.685792 46.381588 L 92.189678 46.407315 L 92.212722 47.019358 L 90.743357 47.751913 L 90.149647 47.524428 L 89.95581 48.055226 L 89.18724 48.564359 L 89.531538 48.65102 L 89.866347 49.279311 L 89.505783 49.718032 L 89.612868 50.809418 L 87.795139 50.95295 L 87.555215 50.032178 L 86.221401 51.141166 L 86.564343 50.225811 L 86.412527 49.830421 L 86.080429 49.900833 L 86.176669 52.828346 L 86.67685 53.01927 L 86.569765 53.429556 L 87.018436 53.870984 L 87.78294 54.18513 L 88.047263 54.851336 L 86.938462 55.063926 L 86.007231 54.255542 L 84.341319 52.58732 L 84.814389 52.205471 L 84.592087 49.630017 L 85.109889 47.746497 L 85.002804 46.977382 L 83.911625 47.231948 L 83.174231 46.747189 L 83.917047 45.803397 L 83.807251 44.556293 L 82.042387 44.351828 Z M 81.094891 44.767529 " stroke="rgb(100%, 100%, 100%)" stroke-width="0.5" stroke-opacity="1" stroke-miterlimit="4"/><path stroke-linecap="butt" transform="matrix(2.881773, 0, 0, 2.884808, 0.576388, 3.89335)" fill-opacity="1" fill="rgb(17.248535%, 44.309998%, 94.119263%)" fill-rule="nonzero" stroke-linejoin="miter" d="M 86.938462 55.063926 L 88.047263 54.851336 L 87.78294 54.18513 L 87.022503 53.870984 L 86.569765 53.429556 L 86.679561 53.01927 L 86.178025 52.828346 L 86.08314 49.900833 L 86.415238 49.827712 L 86.567054 50.223103 L 86.224112 51.138458 L 87.557926 50.026762 L 87.799206 50.947534 L 89.616934 50.804001 L 90.587474 50.905557 L 90.87213 51.28199 L 90.225555 51.831745 L 90.042562 53.392996 L 89.397343 53.567671 L 89.687421 53.839841 L 89.972076 53.690892 L 89.878546 54.14857 L 90.329929 54.996222 L 88.815832 55.457962 L 88.798211 55.114027 L 88.466113 55.038198 L 87.629768 54.920394 L 86.994037 55.398383 Z M 81.096246 44.767529 L 82.042387 44.349119 L 83.811318 44.556293 L 83.921113 45.803397 L 83.175587 46.74448 L 83.91298 47.227886 L 85.002804 46.977382 L 85.1126 47.743789 L 84.594798 49.627309 L 84.8171 52.202762 L 84.34403 52.581904 L 86.009942 54.252834 L 84.867254 54.617081 L 82.979039 56.033444 L 82.484281 55.98199 L 82.152183 55.448483 L 81.451388 55.134338 L 81.192487 55.602848 L 79.689235 55.160065 L 78.152095 55.929181 L 77.308972 55.150587 L 76.619022 54.985389 L 76.15544 54.286686 L 74.728096 54.250126 L 75.271652 53.185822 L 74.505793 51.731544 L 75.37467 50.411319 L 75.523776 48.636125 L 76.343855 47.869718 L 76.827769 48.080954 L 76.930787 48.889337 L 77.76171 47.319963 L 78.783759 46.542723 L 78.332377 45.502792 L 79.602482 44.832525 L 80.117573 45.054593 Z M 81.096246 44.767529 " stroke="rgb(100%, 100%, 100%)" stroke-width="0.5" stroke-opacity="1" stroke-miterlimit="4"/><path stroke-linecap="butt" transform="matrix(2.881773, 0, 0, 2.884808, 0.576388, 3.89335)" fill-opacity="1" fill="rgb(17.248535%, 44.309998%, 94.119263%)" fill-rule="nonzero" stroke-linejoin="miter" d="M 120.952084 16.946676 L 120.904641 16.774708 Z M 126.409337 14.83567 L 124.163269 17.325817 L 124.182246 17.767246 L 124.714959 18.178885 L 127.404275 16.128813 L 129.293846 19.235065 L 129.563591 19.302768 L 129.810292 18.923627 L 130.151879 19.423281 L 131.50467 19.79159 L 131.027533 20.843707 L 131.259324 22.216741 L 132.019761 23.011584 L 132.019761 23.480094 L 131.347432 24.207233 L 130.295562 24.311497 L 129.627299 25.06978 L 128.876351 27.094124 L 127.962742 27.779287 L 127.571002 28.807031 L 127.013891 29.272833 L 125.440152 33.887525 L 126.271075 36.184039 L 126.614018 38.339728 L 126.372738 38.912503 L 124.956238 39.960558 L 125.063323 40.564476 L 127.492383 44.443905 L 126.58013 44.720136 L 126.548953 45.468941 L 126.056906 45.623305 L 125.189385 47.084354 L 125.147364 47.600257 L 125.468618 47.769516 L 124.748846 48.40864 L 124.778667 49.004434 L 124.283909 49.147966 L 124.092783 49.818234 L 122.708815 48.824342 L 119.432566 48.386975 L 119.139777 48.131055 L 117.664991 48.285419 L 117.021127 47.609735 L 117.088902 46.713337 L 116.587366 46.059318 L 117.099746 43.496051 L 116.804247 42.408728 L 115.650714 41.474415 L 114.677463 41.979486 L 113.205388 41.307864 L 114.460583 40.591557 L 114.958052 39.837337 L 114.978385 36.919302 L 113.049505 36.56318 L 110.692286 36.641717 L 108.488239 34.341141 L 107.234399 32.109623 L 102.860193 32.580842 L 102.098401 32.44408 L 101.526379 31.943072 L 101.084485 30.964074 L 101.36914 30.564622 L 103.063518 30.352032 L 103.582676 30.710862 L 103.79549 30.287036 L 105.916851 29.939038 L 106.228617 29.576146 L 106.460408 28.835466 L 105.95345 28.419765 L 106.479385 28.223424 L 106.80335 27.549094 L 107.388927 27.439413 L 107.754912 26.759667 L 107.287264 25.067072 L 106.88468 24.993952 L 106.299103 23.840278 L 107.287264 23.029187 L 107.472968 22.009567 L 107.93655 21.879576 L 107.932483 21.021091 L 108.728163 20.838291 L 109.099571 20.42259 L 109.614662 20.739444 L 109.659393 20.400924 L 110.491672 20.207292 L 109.267653 19.454425 L 109.319162 19.054973 L 108.6387 18.797698 L 108.466551 18.381997 L 108.778317 17.91484 L 109.828831 17.623714 L 110.281569 18.055664 L 111.22771 17.650795 L 111.482544 18.317001 L 112.287712 18.207321 L 112.519503 18.463241 L 113.80452 18.04754 L 114.189482 17.199888 L 114.460583 17.684647 L 114.685596 17.527574 L 114.798103 17.839012 L 115.726622 17.963587 L 115.849973 18.47949 L 116.247135 18.210029 L 117.148544 18.693434 L 117.62297 18.720516 L 118.245146 18.283149 L 118.861899 18.572921 L 119.652157 17.864739 L 119.508474 17.359669 L 119.193997 17.505909 L 119.508474 16.91824 L 119.043537 16.590553 L 118.597576 17.048231 L 117.814096 16.781478 L 118.219391 16.870847 L 118.287166 16.329217 L 119.004227 16.036736 L 119.375635 16.230369 L 119.576249 15.761859 L 120.321775 15.772691 L 120.423438 16.277762 L 120.900575 16.371193 L 120.209269 17.312276 L 121.501062 17.348836 L 121.27876 18.142325 L 121.769452 18.036707 L 122.348251 18.651458 L 122.661372 17.741518 L 123.077512 17.631838 L 126.120615 14.438926 Z M 125.895601 24.143592 L 126.24261 22.817951 L 127.438163 22.54849 L 127.528982 22.949296 L 128.743512 21.970299 L 129.628655 21.803748 L 129.062055 21.194413 L 130.094948 20.585079 L 130.502954 20.237081 L 129.310112 19.51265 L 127.137241 18.991331 L 126.87563 19.32985 L 127.045067 19.740135 L 124.293397 20.919536 L 123.679355 20.762463 L 123.550582 21.847078 L 122.780657 22.404957 L 122.151704 22.503805 L 121.368223 22.16664 L 118.914764 22.831492 L 117.644658 22.509221 L 116.401662 22.725874 L 115.77542 24.415761 L 115.017694 24.547106 L 115.180355 25.025095 L 115.582939 24.884271 L 115.313194 25.3257 L 115.543629 25.735985 L 116.118362 25.56131 L 116.506036 26.111065 L 115.668335 26.706858 L 116.171227 28.205821 L 115.516519 29.018267 L 116.649719 29.641142 L 117.355936 29.698013 L 117.949646 29.387929 L 118.76837 30.020283 L 119.153332 29.930914 L 119.630469 30.595766 L 120.305509 30.273495 L 121.768096 31.213224 L 123.718664 30.331721 L 124.55772 29.635725 L 125.488951 28.380497 L 126.017596 25.299973 Z M 125.895601 24.143592 " stroke="rgb(100%, 100%, 100%)" stroke-width="0.5" stroke-opacity="1" stroke-miterlimit="4"/><path fill="rgb(17.248535%, 44.309998%, 94.119263%)" d="M 271.144531 38.242188 L 271.4375 38.273438 L 267.5625 46.128906 L 265.316406 41.675781 L 267.902344 39.117188 L 269.335938 39.917969 Z M 293.324219 19.796875 L 292.722656 20.234375 L 294.117188 21.96875 L 296.648438 22.167969 L 297.257812 23.480469 L 299.527344 23.464844 L 299.679688 24.925781 L 297.417969 24.625 L 298.171875 25.167969 L 297.328125 26.496094 L 299.019531 27.613281 L 299.933594 30.820312 L 297.273438 31.332031 L 297.882812 29.976562 L 295.472656 27.863281 L 292.8125 27.273438 L 291.703125 27.847656 L 292.003906 25.582031 L 293.1875 24.90625 L 291.449219 23.214844 L 289.125 22.941406 L 289.1875 21.207031 L 291.230469 19.667969 L 292.078125 19.894531 L 291.902344 18.75 L 292.976562 18.296875 Z M 269.386719 8.957031 L 273.644531 9.121094 L 273.796875 13.882812 L 274.8125 15.164062 L 277.171875 12.992188 L 276.367188 10.742188 L 277.371094 8.949219 L 278.5 10.699219 L 280.390625 11.257812 L 281.410156 15.574219 L 283.472656 14.09375 L 284.867188 14.757812 L 286.203125 16.75 L 284.273438 17.308594 L 283.332031 19.78125 L 285.726562 21.59375 L 284.785156 25.003906 L 283.769531 25.304688 L 282.304688 21.96875 L 280.496094 22.695312 L 278.492188 21.925781 L 278.347656 22.980469 L 279.546875 23.78125 L 277.835938 25.03125 L 278.355469 26.195312 L 278.347656 26.238281 L 276.511719 24.792969 L 274.558594 25.183594 L 274.679688 27.265625 L 273.019531 27.78125 L 273.390625 29.921875 L 272.304688 28.21875 L 269.570312 29.769531 L 267.617188 28.59375 L 265.761719 29.425781 L 265.761719 30.554688 L 265.007812 29.664062 L 264.332031 30.101562 L 264.648438 32.335938 L 261.046875 32.125 L 261.046875 32.925781 L 259.085938 31.65625 L 259.207031 33.285156 L 258.007812 32.09375 L 258.4375 30.617188 L 256.117188 30.992188 L 253.960938 29.183594 L 252.769531 29.210938 L 252.105469 28.035156 L 253.652344 26.527344 L 252.113281 24.355469 L 255.898438 20.65625 L 257.011719 20.671875 L 256.523438 18.015625 L 258.964844 14.578125 L 262.769531 12.644531 L 263.734375 13.398438 L 264.261719 12.238281 L 266.910156 11.300781 L 268.191406 12.433594 L 269.304688 11.875 L 269.167969 10.488281 L 267.949219 9.898438 L 268.289062 7.832031 Z M 269.386719 8.957031 " fill-opacity="1" fill-rule="nonzero"/><g clip-path="url(#id4)"><path stroke-linecap="butt" transform="matrix(2.881773, 0, 0, 2.884808, 0.576388, 3.89335)" fill="none" stroke-linejoin="miter" d="M 93.889478 11.906803 L 93.991141 11.917636 L 92.646482 14.640683 L 91.867068 13.097036 L 92.764411 12.210116 L 93.26188 12.487702 Z M 101.586021 5.512855 L 101.377273 5.664511 L 101.861188 6.265721 L 102.739553 6.334779 L 102.951012 6.789749 L 103.738559 6.784332 L 103.791423 7.290757 L 103.006587 7.186493 L 103.268199 7.37471 L 102.975411 7.835096 L 103.562343 8.222361 L 103.879531 9.334058 L 102.956434 9.511442 L 103.167892 9.041578 L 102.331547 8.309022 L 101.40845 8.104557 L 101.023487 8.303606 L 101.127861 7.518242 L 101.538578 7.283987 L 100.93538 6.697671 L 100.128856 6.602886 L 100.150544 6.001676 L 100.859472 5.46817 L 101.153616 5.546707 L 101.092618 5.149962 L 101.465381 4.992889 Z M 93.279502 1.755293 L 94.757 1.812164 L 94.809864 3.462783 L 95.162295 3.90692 L 95.981018 3.154054 L 95.701785 2.374106 L 96.050149 1.752584 L 96.441889 2.359211 L 97.097952 2.552844 L 97.451738 4.049098 L 98.167444 3.535903 L 98.651358 3.766096 L 99.11494 4.456675 L 98.445322 4.650308 L 98.118646 5.507438 L 98.949569 6.13573 L 98.622893 7.317838 L 98.270462 7.422102 L 97.762148 6.265721 L 97.134551 6.517579 L 96.439178 6.250826 L 96.389025 6.616427 L 96.805164 6.894013 L 96.211454 7.327317 L 96.391736 7.730832 L 96.389025 7.745727 L 95.751938 7.244718 L 95.074187 7.380126 L 95.116208 8.101849 L 94.540119 8.280587 L 94.668892 9.022621 L 94.292062 8.432243 L 93.343211 8.969812 L 92.665459 8.562235 L 92.021596 8.850653 L 92.021596 9.241981 L 91.759984 8.933252 L 91.525482 9.084908 L 91.635278 9.85944 L 90.385504 9.78632 L 90.385504 10.063905 L 89.705042 9.62383 L 89.747063 10.18848 L 89.330923 9.775487 L 89.480029 9.263646 L 88.67486 9.393638 L 87.926623 8.7667 L 87.513195 8.776179 L 87.282759 8.368602 L 87.819538 7.845928 L 87.28547 7.093062 L 88.598952 5.810751 L 88.98527 5.816168 L 88.815832 4.895396 L 89.663021 3.703809 L 90.983281 3.033541 L 91.31809 3.294877 L 91.501083 2.892717 L 92.420113 2.567738 L 92.864718 2.960421 L 93.251036 2.766788 L 93.203594 2.286091 L 92.780677 2.081625 L 92.898606 1.365319 Z M 93.279502 1.755293 " stroke="rgb(100%, 100%, 100%)" stroke-width="0.5" stroke-opacity="1" stroke-miterlimit="4"/></g><path stroke-linecap="butt" transform="matrix(2.881773, 0, 0, 2.884808, 0.576388, 3.89335)" fill-opacity="1" fill="rgb(17.248535%, 44.309998%, 94.119263%)" fill-rule="nonzero" stroke-linejoin="miter" d="M 62.174788 34.894958 L 62.208675 34.926102 L 62.033816 35.391904 L 61.518725 35.381071 L 61.656986 34.880063 L 62.079903 34.725698 Z M 52.537166 20.226249 L 53.120032 20.205937 L 53.57548 20.720486 L 53.761184 21.130772 L 53.547015 21.725211 L 52.492434 22.0204 L 51.231817 21.868743 L 50.932251 21.832183 L 51.124732 20.96422 Z M 71.657883 21.390754 L 71.118393 20.344053 L 71.439647 19.672431 L 71.853075 19.302768 L 72.114687 19.518067 L 72.549803 21.015675 L 72.486095 21.374505 L 72.365455 21.084733 Z M 71.657883 21.390754 L 73.293974 22.090812 L 73.464768 22.786807 L 73.912083 22.812534 L 73.929705 24.21942 L 73.365816 24.831462 L 73.171979 25.880872 L 71.205145 26.914032 L 71.134659 26.117835 L 70.150564 26.040653 L 69.703248 25.577558 L 69.058029 27.217345 L 68.107822 27.44483 L 67.381273 29.155028 L 66.877026 29.545002 L 66.440554 29.803631 L 66.005438 29.433968 L 65.41715 30.073092 L 65.022698 29.46105 L 64.389679 29.921435 L 63.547912 29.894354 L 61.848112 28.096141 L 60.728467 28.666207 L 58.15979 29.045348 L 58.638282 29.551773 L 58.708768 30.598474 L 59.527492 31.479977 L 60.275729 31.458312 L 60.559029 32.884155 L 61.373686 33.232152 L 61.442817 34.597061 L 60.956191 34.602478 L 60.469566 35.611264 L 59.431251 35.234831 L 58.359048 35.684385 L 58.139457 35.034428 L 57.540325 34.641746 L 56.957459 35.034428 L 56.146869 35.012763 L 56.361038 35.674906 L 55.707686 36.81233 L 53.969932 37.753413 L 54.447069 38.940938 L 53.26507 39.497464 L 52.969571 38.148804 L 51.450053 38.592941 L 50.761457 37.068251 L 51.307725 36.851598 L 51.951589 37.244281 L 53.178318 36.969403 L 52.571053 36.34382 L 52.71067 36.074359 L 53.19594 35.914578 L 53.578191 35.290348 L 54.459268 35.417632 L 55.218349 34.54019 L 54.569064 34.316767 L 54.467401 33.482656 L 53.52126 33.546298 L 53.462974 34.001268 L 52.92755 33.841487 L 52.92755 34.238231 L 52.238955 34.953183 L 51.230461 35.06828 L 51.191152 34.793402 L 51.49614 34.731115 L 51.028491 33.678997 L 50.566265 33.23486 L 50.184013 33.446096 L 49.689255 32.104207 L 50.455114 32.016192 L 52.362306 30.89637 L 52.404326 30.216624 L 54.171902 29.609998 L 54.818476 28.618814 L 56.484389 28.096141 L 57.383087 26.617489 L 57.869712 26.232931 L 57.179761 25.412361 L 56.70398 25.297265 L 56.727024 24.659495 L 56.117047 24.421177 L 56.186178 24.042036 L 54.051262 24.136821 L 53.052257 23.652062 L 53.313868 22.48891 L 54.506711 22.520054 L 54.588041 23.098245 L 55.416253 23.373122 L 56.004541 23.176781 L 56.436946 22.402249 L 56.243109 21.96082 L 58.170634 21.782082 L 57.757205 21.439501 L 57.749072 20.639242 L 58.251964 21.049527 L 59.420407 20.838291 L 59.715906 19.25673 L 59.020534 18.903316 L 59.124907 17.904008 L 60.300128 18.268254 L 60.843684 18.021812 L 60.590205 17.791619 L 60.788109 17.577675 L 61.212381 17.530282 L 61.342509 18.128784 L 62.441822 18.423973 L 62.731899 18.872172 L 62.368625 19.708991 L 61.921309 19.954079 L 61.705784 21.545119 L 61.07412 22.017692 L 60.030383 22.012275 L 60.050716 23.451659 L 60.343504 23.565401 L 60.424834 24.25598 L 62.388957 23.986519 L 63.409651 24.188276 L 63.892209 25.148316 L 64.842417 25.734631 L 65.739759 25.553185 L 66.071857 24.536274 L 66.94209 24.400866 L 67.339252 23.870068 L 68.706954 23.396141 L 68.3857 22.763788 L 68.869614 22.237052 L 69.776445 22.616193 Z M 55.641266 17.305506 L 56.473545 17.508617 L 56.642982 17.847136 L 56.310884 18.740827 L 56.42068 19.397554 L 54.998758 19.538378 L 53.842514 20.012305 L 53.31929 19.408386 L 53.761184 18.782803 L 52.843509 18.308876 L 52.522255 18.434806 L 53.018369 17.535699 L 54.566353 18.445638 L 55.660243 17.597986 Z M 55.641266 17.305506 " stroke="rgb(100%, 100%, 100%)" stroke-width="0.5" stroke-opacity="1" stroke-miterlimit="4"/><path stroke-linecap="butt" transform="matrix(2.881773, 0, 0, 2.884808, 0.576388, 3.89335)" fill-opacity="1" fill="rgb(17.248535%, 44.309998%, 94.119263%)" fill-rule="nonzero" stroke-linejoin="miter" d="M 101.519601 31.944426 L 102.091623 32.446788 L 102.853416 32.580842 L 107.227622 32.109623 L 108.481462 34.341141 L 107.139514 36.291011 L 107.260154 37.955171 L 106.669155 38.575338 L 107.409259 38.90167 L 106.478029 40.766233 L 105.557643 41.339008 L 104.846004 41.339008 L 104.869048 41.911782 L 104.49764 42.09729 L 105.111683 42.422269 L 105.426159 43.22659 L 106.177108 43.891442 L 105.854498 44.166319 L 106.328924 44.953037 L 107.226266 45.34572 L 106.692198 46.452 L 106.974143 47.008525 L 105.961583 47.41204 L 103.802267 48.703829 L 103.329197 48.709245 L 103.032342 49.166923 L 102.884592 47.741081 L 102.468453 48.028145 L 102.136355 46.59824 L 101.557555 46.286803 L 100.757809 46.839266 L 100.146477 46.292219 L 97.935653 47.539323 L 97.408362 45.978073 L 96.562529 46.132438 L 94.941348 45.663928 L 94.321883 45.766837 L 94.254108 43.964562 L 93.570935 43.632813 L 93.148018 43.795302 L 92.159857 44.359952 L 90.458701 44.517025 L 89.410898 44.129759 L 89.499006 43.456783 L 90.869419 43.051914 L 91.068677 42.215095 L 88.48509 40.036386 L 87.078078 40.24356 L 86.693116 39.949725 L 87.71652 38.129847 L 88.913429 37.418956 L 89.047623 37.478536 L 89.6454 37.531345 L 90.342128 38.146095 L 91.403487 38.739181 L 92.784744 38.457533 L 92.906739 39.092595 L 94.426257 38.404724 L 95.543191 38.457533 L 96.291428 37.37698 L 96.738744 37.314693 L 97.031533 36.88545 L 97.161661 35.964678 L 97.726905 35.498876 L 97.423273 34.847565 L 97.000356 34.029703 L 97.821791 32.859781 L 100.939446 31.834745 Z M 101.519601 31.944426 " stroke="rgb(100%, 100%, 100%)" stroke-width="0.5" stroke-opacity="1" stroke-miterlimit="4"/><path stroke-linecap="butt" transform="matrix(2.881773, 0, 0, 2.884808, 0.576388, 3.89335)" fill-opacity="1" fill="rgb(17.248535%, 44.309998%, 94.119263%)" fill-rule="nonzero" stroke-linejoin="miter" d="M 127.401564 16.127459 L 124.713603 18.178885 L 124.179535 17.767246 L 124.160558 17.325817 L 126.407981 14.83567 Z M 97.839412 7.503347 L 98.270462 7.419394 L 98.622893 7.31513 L 99.724916 7.55074 L 101.027554 8.303606 L 101.411161 8.104557 L 102.334258 8.309022 L 103.170603 9.040224 L 102.959145 9.511442 L 103.883597 9.334058 L 104.818894 9.652266 L 109.023663 7.688855 L 111.39037 8.034145 L 112.495104 8.65702 L 113.712345 8.734202 L 114.228792 9.278541 L 114.795392 9.216254 L 124.629562 14.054368 L 126.112482 14.444342 L 123.070734 17.637255 L 122.654595 17.746935 L 122.341474 18.656874 L 121.762674 18.042123 L 121.270627 18.147741 L 121.494285 17.354253 L 120.202491 17.317693 L 120.892442 16.376609 L 120.41666 16.281824 L 120.313642 15.778108 L 119.569471 15.767275 L 119.367502 16.235785 L 118.996094 16.042153 L 118.279033 16.334633 L 118.211258 16.876264 L 117.805963 16.786895 L 118.590799 17.053648 L 119.035404 16.59597 L 119.500341 16.923656 L 119.18722 17.511325 L 119.500341 17.365085 L 119.64538 17.870156 L 118.855122 18.578338 L 118.238368 18.288565 L 117.614837 18.724578 L 117.141767 18.69885 L 116.240358 18.215445 L 115.84184 18.484906 L 115.718489 17.969003 L 114.791325 17.843074 L 114.677463 17.532991 L 114.45245 17.690064 L 114.181349 17.205304 L 113.796387 18.052956 L 112.512726 18.468657 L 112.279579 18.212737 L 111.474411 18.322417 L 111.220932 17.654858 L 110.273436 18.06108 L 109.822054 17.62913 L 108.771539 17.918902 L 108.458418 18.387413 L 108.631922 18.803114 L 109.312385 19.060389 L 109.25952 19.459841 L 110.483539 20.212708 L 109.652616 20.406341 L 109.606529 20.743506 L 109.091438 20.428006 L 108.721386 20.843707 L 107.925706 21.026508 L 107.928417 21.883638 L 107.46619 22.014983 L 107.280486 23.034603 L 106.29097 23.845695 L 105.602374 22.677127 L 104.87447 22.478078 L 105.201146 21.829475 L 105.099483 20.86131 L 105.534599 20.872143 L 105.896519 20.725903 L 105.01002 20.56883 L 105.030352 19.964912 L 104.183163 18.892483 L 104.261783 18.345436 L 104.677922 18.184301 L 104.658945 16.065172 L 102.6894 15.618327 L 102.247506 14.489027 L 103.035053 14.105823 L 102.327481 13.580442 L 101.504691 13.695538 L 101.44776 13.076725 L 99.407728 12.597382 L 99.112229 11.726711 L 99.392818 11.018529 L 101.36914 12.134288 L 102.167531 9.755176 L 101.401672 9.483007 L 101.403028 8.808677 L 100.840494 8.761284 L 100.595149 9.472174 L 99.379263 10.162753 L 97.995295 9.974536 L 97.325677 9.592687 L 96.384958 7.748435 L 96.387669 7.73354 L 97.350076 7.200034 Z M 120.904641 16.774708 L 120.952084 16.946676 Z M 120.904641 16.774708 " stroke="rgb(100%, 100%, 100%)" stroke-width="0.5" stroke-opacity="1" stroke-miterlimit="4"/><path fill="rgb(17.248535%, 44.309998%, 94.119263%)" d="M 279.851562 191.101562 L 281.808594 190.808594 L 283.640625 192.300781 L 284.855469 191.449219 L 286.023438 192.140625 L 288.496094 191.804688 L 292.203125 193.363281 L 295.179688 192.300781 L 295.496094 193.597656 L 296.738281 193.394531 L 303.449219 189.8125 L 304.011719 188.605469 L 302.988281 185.886719 L 304.703125 184.671875 L 306.625 185.367188 L 307.757812 183.359375 L 308.691406 187.707031 L 313.007812 186.421875 L 315.980469 188.121094 L 316.9375 190 L 314.578125 195.710938 L 314.933594 201.363281 L 317.585938 205.964844 L 321.1875 206.550781 L 322.257812 208.761719 L 321.679688 212.882812 L 323.074219 215.992188 L 321.722656 216.917969 L 322.304688 221.65625 L 321.601562 225.21875 L 319.800781 225.980469 L 319.394531 227.035156 L 319.128906 228.535156 L 320.261719 230.476562 L 318.082031 233.703125 L 320.414062 238.109375 L 321.457031 244.960938 L 324.449219 246.75 L 326.515625 249.96875 L 328.898438 251.464844 L 324.449219 256.445312 L 319.644531 258.84375 L 321.226562 263.609375 L 320.003906 266.898438 L 317.21875 267.238281 L 314.035156 269.011719 L 312.957031 271.085938 L 315.203125 277.574219 L 313.554688 278.1875 L 313.03125 279.402344 L 311.925781 279.371094 L 311.460938 281.007812 L 313.878906 282.394531 L 314.382812 286.878906 L 318.457031 287.941406 L 319.3125 289.382812 L 320.074219 289.210938 L 320.097656 291.117188 L 321.179688 290.679688 L 321.558594 291.320312 L 317.511719 295.636719 L 317.570312 297.621094 L 315.617188 301.671875 L 316.078125 302.863281 L 311.421875 302.75 L 312.089844 300.761719 L 310.695312 300.023438 L 308.570312 300.414062 L 307.933594 299.21875 L 303.351562 300.972656 L 303.621094 298.949219 L 306.792969 295.726562 L 305.753906 295.570312 L 305.226562 292.566406 L 304.285156 291.796875 L 304.539062 290.203125 L 301.910156 286.046875 L 301.824219 282.722656 L 299.019531 282.066406 L 295.179688 278.019531 L 290.378906 277.757812 L 291.976562 273.960938 L 295.59375 270.175781 L 295.300781 268.945312 L 296.4375 269.269531 L 297.378906 267.691406 L 297.328125 265.480469 L 292.648438 261.648438 L 290.234375 262.675781 L 287.75 261.386719 L 286.066406 258.601562 L 283.679688 261.234375 L 280.980469 261.511719 L 277.453125 259.859375 L 276.429688 258.425781 L 272.921875 258.601562 L 271.324219 255.800781 L 271.945312 253.691406 L 269.003906 252.429688 L 267.964844 249.457031 L 265.363281 247.15625 L 264.632812 244.515625 L 258.582031 242.523438 L 257.714844 240.691406 L 255.847656 240.085938 L 255.75 239.015625 L 257.082031 237.664062 L 254.105469 232.714844 L 258.007812 227.519531 L 257.8125 224.507812 L 258.558594 223.1875 L 257.714844 219.582031 L 258.695312 218.246094 L 257.203125 212.753906 L 258.460938 211.328125 L 255.75 208.21875 L 250.011719 210.015625 L 250.828125 204.078125 L 255.953125 203.601562 L 259.480469 198.871094 L 263.722656 197.144531 L 263.105469 194.132812 L 263.957031 191.3125 L 265.734375 189.894531 L 266.632812 190.664062 L 269.261719 190.371094 L 270.957031 191.804688 L 274.046875 191.296875 L 275.644531 193.230469 Z M 309.824219 278.804688 L 308.828125 278.480469 L 308.054688 281.308594 L 309.636719 281.808594 Z M 309.824219 278.804688 " fill-opacity="1" fill-rule="nonzero"/><g clip-path="url(#id5)"><path stroke-linecap="butt" transform="matrix(2.881773, 0, 0, 2.884808, 0.576388, 3.89335)" fill="none" stroke-linejoin="miter" d="M 96.910893 64.89452 L 97.59 64.792965 L 98.22573 65.310222 L 98.647292 65.015033 L 99.052587 65.254705 L 99.91062 65.138254 L 101.196992 65.678531 L 102.229884 65.310222 L 102.33968 65.759775 L 102.77073 65.689363 L 105.099483 64.447675 L 105.294675 64.029266 L 104.939534 63.086828 L 105.534599 62.665711 L 106.201507 62.906736 L 106.594602 62.210741 L 106.918567 63.717828 L 108.416398 63.272337 L 109.447935 63.86136 L 109.780033 64.512671 L 108.961309 66.49233 L 109.08466 68.451679 L 110.005046 70.046781 L 111.25482 70.249892 L 111.626227 71.0163 L 111.425613 72.44485 L 111.909527 73.522695 L 111.440523 73.843611 L 111.642493 75.486106 L 111.398503 76.721023 L 110.773616 76.985068 L 110.632644 77.350669 L 110.54047 77.870634 L 110.933566 78.54361 L 110.177195 79.662077 L 110.98643 81.189476 L 111.348349 83.564526 L 112.386664 84.184692 L 113.103725 85.300451 L 113.930581 85.819063 L 112.386664 87.54551 L 110.719396 88.376913 L 111.268375 90.028886 L 110.844102 91.169018 L 109.877629 91.286823 L 108.772895 91.901574 L 108.398776 92.620588 L 109.17819 94.869709 L 108.606168 95.082299 L 108.424531 95.503417 L 108.040923 95.492584 L 107.879619 96.059942 L 108.718675 96.540639 L 108.893534 98.095119 L 110.307323 98.463428 L 110.604178 98.963082 L 110.868501 98.903503 L 110.876634 99.564292 L 111.252109 99.412636 L 111.383592 99.634704 L 109.979292 101.130958 L 109.999624 101.818829 L 109.321873 103.223006 L 109.481822 103.636 L 107.866064 103.596732 L 108.097854 102.907507 L 107.61394 102.651586 L 106.876547 102.786994 L 106.6556 102.372646 L 105.065596 102.980627 L 105.159125 102.279215 L 106.259793 101.162102 L 105.89923 101.107939 L 105.716237 100.066654 L 105.389561 99.799901 L 105.477668 99.247438 L 104.565415 97.806701 L 104.535594 96.654382 L 103.562343 96.426897 L 102.229884 95.024074 L 100.563972 94.933351 L 101.118372 93.617189 L 102.373568 92.305089 L 102.271905 91.878555 L 102.666356 91.990943 L 102.993032 91.443896 L 102.975411 90.677489 L 101.351519 89.34914 L 100.513818 89.705262 L 99.651719 89.258417 L 99.067497 88.29296 L 98.239285 89.205608 L 97.302633 89.301747 L 96.078614 88.728973 L 95.723473 88.232027 L 94.506232 88.29296 L 93.951831 87.322087 L 94.167356 86.590886 L 93.146663 86.15352 L 92.786099 85.123067 L 91.883334 84.325516 L 91.629855 83.410161 L 89.530182 82.719582 L 89.229261 82.08452 L 88.581331 81.874638 L 88.547443 81.503621 L 89.009669 81.035111 L 87.976776 79.319496 L 89.330923 77.518574 L 89.263148 76.474582 L 89.522049 76.016904 L 89.229261 74.767091 L 89.569492 74.303997 L 89.05169 72.400166 L 89.488162 71.905928 L 88.547443 70.828083 L 86.55621 71.450958 L 86.83951 69.392762 L 88.617929 69.227565 L 89.841948 67.587778 L 91.314023 66.989276 L 91.099854 65.945284 L 91.395354 64.96764 L 92.012107 64.476111 L 92.323873 64.742864 L 93.236126 64.641308 L 93.824414 65.138254 L 94.896616 64.962224 L 95.451017 65.632492 Z M 107.311663 95.296243 L 106.96601 95.183855 L 106.69762 96.164206 L 107.246599 96.337528 Z M 107.311663 95.296243 " stroke="rgb(100%, 100%, 100%)" stroke-width="0.5" stroke-opacity="1" stroke-miterlimit="4"/></g><path stroke-linecap="butt" transform="matrix(2.881773, 0, 0, 2.884808, 0.576388, 3.89335)" fill-opacity="1" fill="rgb(17.248535%, 44.309998%, 94.119263%)" fill-rule="nonzero" stroke-linejoin="miter" d="M 93.149374 43.795302 L 93.573646 43.632813 L 94.255464 43.964562 L 94.323239 45.766837 L 94.944059 45.663928 L 96.56524 46.132438 L 97.409718 45.978073 L 97.938364 47.539323 L 100.147833 46.292219 L 100.76052 46.839266 L 101.560266 46.286803 L 102.13771 46.59824 L 102.469808 48.028145 L 102.885948 47.741081 L 103.035053 49.166923 L 103.330552 48.709245 L 103.803623 48.703829 L 105.964294 47.41204 L 106.591891 48.3951 L 106.720664 49.650328 L 103.730426 51.433647 L 104.058457 52.166202 L 103.913418 52.93261 L 102.784285 53.92921 L 102.185153 54.025349 L 102.388478 55.309014 L 101.844922 55.521604 L 101.638885 56.829641 L 100.555839 57.281903 L 99.933663 56.445084 L 99.362997 56.87568 L 99.314199 57.815409 L 97.972251 58.764617 L 97.514092 58.557443 L 96.761788 59.080116 L 96.900049 60.500542 L 96.055571 61.28049 L 95.949842 62.064501 L 96.908182 62.996105 L 96.910893 64.89452 L 95.453728 65.621659 L 94.899327 64.951392 L 93.827125 65.124713 L 93.236126 64.630475 L 92.323873 64.732031 L 92.012107 64.465278 L 91.395354 64.956808 L 91.099854 65.933097 L 91.314023 66.975736 L 89.841948 67.575592 L 88.140792 66.767208 L 87.464397 64.978473 L 87.399332 63.830216 L 87.909001 62.449058 L 87.914423 61.34007 L 87.482018 61.146437 L 87.027925 60.014429 L 87.087567 59.363118 L 87.087567 59.11803 L 88.097416 59.438947 L 88.956805 59.315726 L 89.048979 58.225694 L 88.798211 58.023937 L 88.879541 57.187118 L 88.556932 56.83912 L 88.481023 56.01855 L 88.813121 55.463378 L 90.325862 55.001638 L 89.875835 54.153986 L 89.969365 53.696309 L 89.68471 53.845257 L 89.394632 53.573088 L 90.039851 53.398412 L 90.222844 51.837162 L 90.869419 51.284699 L 90.584763 50.910974 L 89.614223 50.809418 L 89.507139 49.718032 L 89.867702 49.279311 L 89.532893 48.65102 L 89.18724 48.564359 L 89.95581 48.055226 L 90.149647 47.524428 L 90.743357 47.751913 L 92.212722 47.019358 L 92.189678 46.407315 L 92.687147 46.381588 L 92.574641 45.196771 L 93.259169 44.211004 Z M 93.149374 43.795302 " stroke="rgb(100%, 100%, 100%)" stroke-width="0.5" stroke-opacity="1" stroke-miterlimit="4"/><path stroke-linecap="butt" transform="matrix(2.881773, 0, 0, 2.884808, 0.576388, 3.89335)" fill-opacity="1" fill="rgb(17.248535%, 44.309998%, 94.119263%)" fill-rule="nonzero" stroke-linejoin="miter" d="M 18.600807 50.925868 L 19.391065 51.225119 L 20.886184 50.698384 L 23.052277 49.310455 L 23.514503 49.310455 L 24.537908 49.058597 L 25.250902 47.911694 L 27.827712 46.567096 L 27.709783 48.12293 L 28.528507 48.698413 L 28.281805 50.049781 L 29.082907 49.976661 L 29.943651 50.860873 L 28.601704 52.166202 L 29.882654 53.554131 L 30.094112 53.426847 L 29.833855 54.140446 L 29.963984 53.933272 L 30.563116 54.4573 L 30.797618 54.323246 L 31.514678 54.96914 L 32.721076 54.202733 L 33.397471 54.805297 L 34.498139 54.435634 L 34.559137 54.648224 L 35.268065 53.326646 L 34.883102 53.050414 L 34.587602 53.44445 L 34.342257 53.317167 L 34.542871 52.971878 L 34.297525 52.236614 L 35.236888 50.900141 L 34.643178 50.220395 L 33.968138 50.422152 L 34.914279 49.937393 L 34.035913 49.321288 L 32.974555 47.971274 L 34.056246 47.152057 L 35.240955 48.496655 L 35.066095 48.836528 L 35.524255 48.975998 L 36.473106 50.209562 L 36.222338 49.422844 L 36.760473 49.11953 L 37.004463 49.401178 L 37.305385 49.838545 L 36.77945 50.882538 L 36.909578 51.258971 L 37.347405 51.057214 L 37.103415 51.606969 L 37.438224 51.91976 L 37.168479 52.489827 L 36.418886 52.197346 L 36.157274 52.851365 L 36.52326 53.478302 L 36.177607 54.24471 L 35.654383 54.430218 L 34.866836 55.67326 L 34.658089 55.508063 L 34.44663 55.791065 L 34.862769 56.114689 L 35.234177 55.965741 L 35.597452 56.484352 L 35.392771 57.054418 L 33.996603 58.413911 L 33.866475 58.931168 L 32.853915 59.685388 L 33.160258 60.074008 L 33.020642 60.736152 L 32.519106 60.997488 L 31.8156 60.634596 L 31.286954 61.37663 L 30.58887 61.311634 L 30.761019 63.380663 L 30.450609 65.054301 L 31.095828 64.905353 L 31.132427 64.520795 L 31.792556 65.038052 L 32.265627 64.633184 L 32.853915 64.89452 L 32.935245 64.9541 L 33.230745 65.608119 L 33.585886 65.773316 L 34.072512 65.323763 L 34.213484 65.809876 L 33.917984 65.880288 L 32.778007 67.384667 L 32.566548 66.832204 L 31.689538 67.02042 L 31.503834 66.719815 L 30.999588 67.65142 L 32.294092 69.269541 L 32.817316 69.269541 L 34.041335 67.8938 L 33.983048 68.553235 L 34.52796 68.291898 L 35.384638 68.901232 L 36.044768 68.870089 L 36.661521 69.400887 L 36.988197 70.232289 L 36.925844 71.013592 L 37.37316 71.616155 L 37.083082 72.15237 L 38.30439 71.656778 L 38.416897 70.977031 L 39.813064 69.620247 L 41.20381 69.645974 L 42.011689 69.067784 L 42.89141 67.509242 L 43.434967 67.494347 L 44.475993 66.593886 L 45.030393 67.311547 L 46.029398 66.217453 L 46.455026 68.090141 L 46.267967 68.985185 L 45.869449 69.251938 L 45.9928 69.594519 L 45.568528 69.670348 L 45.854539 71.349402 L 45.48042 71.97634 L 44.532924 72.023732 L 44.452949 72.350065 L 45.056148 73.284378 L 44.489548 75.190917 L 45.016838 75.196333 L 45.26354 76.027736 L 45.747454 76.087316 L 45.382824 76.297198 L 45.474998 77.714916 L 44.329598 79.003996 L 44.60341 79.756863 L 44.242846 80.041219 L 44.316043 80.692529 L 43.944636 80.784607 L 42.624376 82.362106 L 42.049643 82.437934 L 41.968313 83.089245 L 41.473555 83.663373 L 38.824903 84.929435 L 38.084799 83.980227 L 37.195589 81.57945 L 36.410753 80.771066 L 36.208783 79.968099 L 35.422592 79.307309 L 35.207067 77.687834 L 34.750263 77.173285 L 33.951872 77.102873 L 33.489646 76.429897 L 33.588597 75.292473 L 31.320842 72.737331 L 26.451877 71.333154 L 20.692347 71.209933 L 17.432364 73.231569 L 11.458665 76.011487 L 10.909686 76.999963 L 8.77477 75.904515 L 8.433183 76.236264 L 9.32917 77.063605 L 10.589788 77.664815 L 10.153316 78.611314 L 9.402367 80.010075 L 7.436889 79.016183 L 6.790314 78.302585 L 8.365408 75.792127 L 8.027888 75.190917 L 7.676813 75.255913 L 5.726245 73.624251 L 4.632354 73.226152 L 5.394147 71.874784 L 4.927854 70.903911 L 5.770976 69.949287 L 6.376886 68.47199 L 7.234919 67.404978 L 7.519575 67.480806 L 7.893693 66.688672 L 6.256246 65.082737 L 8.675818 63.092245 L 12.331608 59.253438 L 14.795912 58.015812 L 15.434353 57.558134 L 15.409954 57.226386 L 16.034841 57.035461 L 16.286964 56.305614 L 17.85257 55.52702 L 18.538454 54.200025 L 17.727863 53.556839 L 17.567914 53.003022 L 17.889168 52.822929 L 17.981342 51.933301 Z M 31.018565 56.807976 L 30.4113 56.878388 L 30.241862 57.284611 L 30.986033 57.321171 L 31.646162 56.900053 L 32.901357 57.428143 L 33.017931 57.273778 L 33.543866 56.195934 L 32.795628 55.493168 L 32.642457 55.226415 L 32.519106 54.906853 L 32.36729 54.890604 L 31.235445 56.751105 Z M 30.15511 56.27447 L 29.794546 56.182393 L 29.682039 56.075421 L 28.824006 57.08827 L 29.307921 57.818117 L 29.621042 57.636671 L 29.833855 57.375334 Z M 8.330165 77.036523 L 8.810013 76.999963 L 8.63922 76.628946 L 8.557889 76.645195 L 8.54569 76.725086 Z M 39.44979 44.480465 L 39.943193 44.840649 L 39.734445 46.475019 L 40.919154 48.319271 L 40.634499 48.701121 L 39.872706 49.328058 L 40.195316 49.908957 L 38.980786 51.271158 L 38.748995 51.038257 L 39.093293 50.539957 L 38.754417 50.225811 L 38.965875 49.864272 L 38.285413 49.477007 L 38.000758 49.864272 L 37.676793 49.801985 L 37.477534 49.566376 L 38.054978 49.035578 L 37.038351 47.999709 L 37.232188 47.463495 L 36.462262 47.207575 L 35.209778 45.756005 L 37.806921 44.00383 L 39.129891 44.385679 Z M 39.44979 44.480465 " stroke="rgb(100%, 100%, 100%)" stroke-width="0.5" stroke-opacity="1" stroke-miterlimit="4"/><path fill="rgb(17.248535%, 44.309998%, 94.119263%)" d="M 252.679688 180.289062 L 253.921875 180.847656 L 253.90625 184.046875 L 252.4375 188.03125 L 252.625 191.34375 L 254.578125 196.503906 L 259.476562 198.835938 L 255.949219 203.566406 L 250.824219 204.039062 L 250.011719 209.976562 L 247.644531 210.257812 L 243.703125 214.050781 L 241.730469 214.21875 L 240.183594 216.675781 L 242.988281 217.953125 L 243.019531 219.9375 L 239.640625 223.015625 L 237.402344 223.015625 L 237.335938 225.683594 L 233.542969 227.375 L 232.066406 231.214844 L 227.71875 232.941406 L 224.847656 232.066406 L 218.492188 238.390625 L 221.898438 239.945312 L 222.285156 241.632812 L 224.832031 243.542969 L 227.539062 250.046875 L 225.976562 252.316406 L 226.21875 255.28125 L 222.429688 257.257812 L 221.3125 260.109375 L 213.925781 261.824219 L 212.863281 265.785156 L 214.207031 269.964844 L 211.882812 271.617188 L 212.367188 272.6875 L 211.65625 274.625 L 210.550781 274.671875 L 209.441406 276.964844 L 208.214844 276.382812 L 201.21875 276.730469 L 199.660156 279.371094 L 198.273438 279.945312 L 197.617188 287.925781 L 196.726562 288.449219 L 192.484375 286.976562 L 190.246094 288.273438 L 187.097656 285.367188 L 185.355469 285.082031 L 183.683594 287.351562 L 182.371094 287.414062 L 180.945312 285.820312 L 180.917969 283.535156 L 178.292969 282.457031 L 176.476562 279.523438 L 173.871094 280.675781 L 168.902344 280.585938 L 167.5 278.089844 L 165.058594 278.246094 L 164.140625 279.386719 L 164.035156 282.644531 L 159.625 281.816406 L 156.957031 283.898438 L 157.035156 285.851562 L 154.691406 286.320312 L 151.773438 289.238281 L 149.957031 289.269531 L 148.425781 291.335938 L 144.046875 288.832031 L 141.75 289.351562 L 138.847656 287.769531 L 135.207031 292.574219 L 134.324219 291.902344 L 130.980469 292.679688 L 128.410156 296.902344 L 126.699219 296.1875 L 124.84375 293.886719 L 121.007812 296.84375 L 119.320312 296.800781 L 118.507812 294.152344 L 113.585938 287.488281 L 112.953125 282.941406 L 110.1875 280.964844 L 111.671875 279.476562 L 110.277344 278.132812 L 110.179688 276.761719 L 107.585938 275.589844 L 107.15625 273.417969 L 105.296875 271.734375 L 104.128906 268.742188 L 102.742188 268.332031 L 102.726562 267 L 101.210938 266.984375 L 97.992188 270.007812 L 96.242188 268.695312 L 98.054688 265.480469 L 97.3125 262.304688 L 98.828125 258.042969 L 92.421875 256.859375 L 90.441406 257.371094 L 88.527344 256.140625 L 88.089844 252.347656 L 90.0625 249.578125 L 89.226562 246.453125 L 91.015625 242.351562 L 94.414062 238.886719 L 95.398438 235.222656 L 94.820312 233.75 L 93.554688 233.765625 L 91.699219 232.089844 L 91.40625 230.710938 L 88.78125 229.277344 L 88.699219 227.992188 L 87.261719 227.320312 L 85.859375 224.273438 L 86.394531 222.953125 L 88.074219 222.484375 L 89.414062 220.707031 L 89.078125 219.144531 L 90.886719 213.726562 L 97.425781 221.097656 L 97.140625 224.378906 L 98.476562 226.320312 L 100.773438 226.523438 L 102.09375 228.007812 L 102.710938 232.679688 L 104.980469 234.585938 L 105.558594 236.910156 L 107.820312 239.242188 L 110.382812 246.167969 L 112.515625 248.90625 L 120.148438 245.253906 L 121.574219 243.601562 L 121.808594 241.722656 L 123.464844 241.5 L 127.273438 236.957031 L 128.335938 236.691406 L 128.125 234.8125 L 129.164062 233.992188 L 128.363281 231.820312 L 131.671875 228.097656 L 134.800781 228.007812 L 135.871094 226.765625 L 135.832031 223.820312 L 139.40625 222.808594 L 140.730469 221.390625 L 140.527344 224.894531 L 141.230469 225.925781 L 145.164062 225 L 149.769531 221.1875 L 153.753906 219.703125 L 156.136719 221.128906 L 157.914062 219.882812 L 158.765625 222.011719 L 163.976562 220.925781 L 165.640625 219.265625 L 162.898438 217.597656 L 163.402344 216.246094 L 167.78125 215.128906 L 169.679688 215.921875 L 171.132812 212.316406 L 172.914062 210.890625 L 182.023438 215.347656 L 195.167969 206.015625 L 198.371094 206.28125 L 203.171875 204.101562 L 205.011719 201.8125 L 207.800781 200.628906 L 208.144531 199.308594 L 207.144531 197.046875 L 212.199219 193.644531 L 222.625 196.058594 L 223.898438 197.476562 L 228.691406 198.304688 L 229.300781 199.945312 L 237.160156 198.539062 L 241.847656 196.117188 L 243.046875 194.261719 L 246.574219 192.753906 L 248.253906 190.390625 L 247.667969 188.371094 L 248.753906 183.1875 L 251.027344 181.460938 L 251.496094 180.085938 Z M 252.679688 180.289062 " fill-opacity="1" fill-rule="nonzero"/><g clip-path="url(#id6)"><path stroke-linecap="butt" transform="matrix(2.881773, 0, 0, 2.884808, 0.576388, 3.89335)" fill="none" stroke-linejoin="miter" d="M 87.482018 61.146437 L 87.913068 61.34007 L 87.907646 62.449058 L 87.397977 63.830216 L 87.463041 64.978473 L 88.140792 66.767208 L 89.840592 67.575592 L 88.616574 69.215378 L 86.838154 69.379221 L 86.55621 71.437417 L 85.734775 71.534911 L 84.367074 72.849719 L 83.682545 72.907944 L 83.145766 73.759658 L 84.119017 74.202441 L 84.129861 74.890312 L 82.957351 75.957324 L 82.180648 75.957324 L 82.157605 76.882159 L 80.841412 77.468474 L 80.329032 78.799531 L 78.820358 79.398032 L 77.824063 79.094719 L 75.618661 81.286969 L 76.800659 81.825891 L 76.934854 82.410852 L 77.818641 83.072996 L 78.758004 85.327533 L 78.215804 86.114251 L 78.299845 87.141995 L 76.985007 87.827158 L 76.597334 88.815634 L 74.034079 89.410073 L 73.665382 90.783107 L 74.131675 92.231968 L 73.325151 92.804743 L 73.493233 93.17576 L 73.246532 93.847382 L 72.862924 93.86363 L 72.477962 94.658473 L 72.052334 94.456716 L 69.624629 94.577229 L 69.083784 95.492584 L 68.60258 95.691634 L 68.374856 98.458012 L 68.065801 98.639458 L 66.593726 98.128971 L 65.817023 98.578524 L 64.724488 97.571092 L 64.119934 97.472244 L 63.539779 98.258962 L 63.08433 98.280628 L 62.589572 97.728164 L 62.580083 96.93603 L 61.669185 96.562305 L 61.038877 95.545393 L 60.134757 95.944846 L 58.410558 95.913702 L 57.923932 95.048447 L 57.076743 95.10261 L 56.7582 95.498001 L 56.721602 96.6273 L 55.191239 96.340236 L 54.265431 97.061959 L 54.292541 97.738997 L 53.47924 97.901486 L 52.466679 98.912981 L 51.836371 98.923814 L 51.305014 99.64012 L 49.785496 98.772157 L 48.98846 98.95225 L 47.981322 98.403849 L 46.717994 100.069363 L 46.41165 99.836461 L 45.25134 100.105923 L 44.359419 101.569679 L 43.765709 101.321883 L 43.121846 100.524332 L 41.790742 101.549368 L 41.205165 101.534473 L 40.923221 100.616409 L 39.215288 98.306355 L 38.995696 96.73021 L 38.036001 96.045048 L 38.551092 95.529144 L 38.067177 95.063342 L 38.03329 94.588061 L 37.133236 94.181838 L 36.984131 93.428972 L 36.338912 92.845365 L 35.933616 91.808143 L 35.452413 91.665965 L 35.446991 91.204224 L 34.921056 91.198808 L 33.804122 92.246863 L 33.196857 91.791894 L 33.82581 90.677489 L 33.568265 89.576625 L 34.0942 88.099327 L 31.871176 87.689042 L 31.183936 87.866426 L 30.51974 87.439892 L 30.367923 86.125084 L 31.052452 85.165044 L 30.762375 84.081783 L 31.383195 82.660002 L 32.562482 81.458937 L 32.904068 80.188813 L 32.703454 79.678326 L 32.264271 79.683743 L 31.620408 79.102844 L 31.518745 78.624855 L 30.607847 78.127909 L 30.579382 77.682418 L 30.080557 77.449517 L 29.593932 76.393337 L 29.779635 75.935659 L 30.362501 75.77317 L 30.827439 75.157065 L 30.710866 74.615435 L 31.338463 72.737331 L 33.607574 75.292473 L 33.508623 76.429897 L 33.972204 77.102873 L 34.76924 77.173285 L 35.2274 77.687834 L 35.441569 79.307309 L 36.229116 79.968099 L 36.42973 80.773774 L 37.214566 81.582158 L 38.103776 83.982935 L 38.84388 84.932143 L 41.492532 83.666081 L 41.98729 83.093307 L 42.06862 82.441996 L 42.643353 82.364814 L 43.964968 80.790023 L 44.333665 80.697946 L 44.260468 80.046635 L 44.621031 79.762279 L 44.343153 79.009413 L 45.491264 77.718978 L 46.577021 77.687834 L 46.948429 77.257238 L 46.934874 76.236264 L 48.175159 75.885558 L 48.634674 75.394029 L 48.564188 76.608635 L 48.808178 76.966111 L 50.173169 76.645195 L 51.771307 75.323617 L 53.153919 74.809068 L 53.980776 75.303305 L 54.597529 74.871355 L 54.893029 75.609327 L 56.701269 75.232894 L 57.278713 74.657411 L 56.32715 74.07922 L 56.50201 73.61071 L 58.021528 73.223444 L 58.680303 73.498322 L 59.184549 72.248509 L 59.802659 71.754271 L 62.96369 73.299272 L 67.524956 70.064384 L 68.636468 70.156461 L 70.30238 69.400887 L 70.940822 68.607398 L 71.908651 68.197113 L 72.027935 67.739435 L 71.680926 66.955425 L 73.434946 65.776024 L 77.052782 66.612843 L 77.494676 67.104373 L 79.157878 67.391437 L 79.369336 67.960149 L 82.096607 67.472682 L 83.72321 66.633154 L 84.139349 65.989968 L 85.363368 65.467295 L 85.946234 64.648078 L 85.742908 63.948021 L 86.119738 62.151162 L 86.908641 61.55266 L 87.071301 61.076025 Z M 87.482018 61.146437 " stroke="rgb(100%, 100%, 100%)" stroke-width="0.5" stroke-opacity="1" stroke-miterlimit="4"/></g><path stroke-linecap="butt" transform="matrix(2.881773, 0, 0, 2.884808, 0.576388, 3.89335)" fill-opacity="1" fill="rgb(17.248535%, 44.309998%, 94.119263%)" fill-rule="nonzero" stroke-linejoin="miter" d="M 87.39391 30.425152 L 87.838515 31.772458 L 88.533888 31.69663 L 90.02223 32.580842 L 91.067322 31.98234 L 92.543464 31.825267 L 94.020962 32.591674 L 94.342216 34.366868 L 96.287362 34.484673 L 96.528641 35.070988 L 97.425984 34.847565 L 97.728261 35.498876 L 97.164372 35.964678 L 97.032888 36.88545 L 96.7401 37.314693 L 96.292784 37.37698 L 95.544546 38.457533 L 94.428968 38.404724 L 92.90945 39.092595 L 92.786099 38.457533 L 91.404842 38.739181 L 90.343484 38.146095 L 90.369238 37.463641 L 89.898879 36.806914 L 89.048979 37.478536 L 88.91614 37.418956 L 88.745346 36.657965 L 87.70432 37.023566 L 87.495573 36.079775 L 87.60808 34.843503 L 87.13772 34.165111 L 87.267849 33.224028 L 86.888308 31.665486 Z M 87.39391 30.425152 " stroke="rgb(100%, 100%, 100%)" stroke-width="0.5" stroke-opacity="1" stroke-miterlimit="4"/><path stroke-linecap="butt" transform="matrix(2.881773, 0, 0, 2.884808, 0.576388, 3.89335)" fill-opacity="1" fill="rgb(17.248535%, 44.309998%, 94.119263%)" fill-rule="nonzero" stroke-linejoin="miter" d="M 96.387669 7.744372 L 97.328388 9.58727 L 98.000717 9.96912 L 99.384685 10.157337 L 100.600571 9.469466 L 100.848627 8.758576 L 101.40845 8.805968 L 101.405739 9.480298 L 102.170242 9.74976 L 101.374562 12.130226 L 99.396884 11.013113 L 99.117651 11.724003 L 99.415861 12.594674 L 101.455893 13.074017 L 101.511468 13.695538 L 102.331547 13.580442 L 103.043186 14.107177 L 102.255639 14.489027 L 102.694822 15.618327 L 104.664367 16.065172 L 104.683344 18.18701 L 104.267205 18.345436 L 104.188585 18.892483 L 105.035774 19.964912 L 105.015442 20.56883 L 105.901941 20.723195 L 105.541377 20.869435 L 105.10355 20.859956 L 105.206568 21.826767 L 104.875825 22.475369 L 105.609152 22.674419 L 106.296392 23.842987 L 106.881969 24.99666 L 107.281842 25.06978 L 107.753557 26.759667 L 107.387571 27.439413 L 106.800639 27.549094 L 106.473963 28.223424 L 105.949383 28.419765 L 106.459052 28.835466 L 106.225906 29.576146 L 105.915496 29.939038 L 103.794134 30.287036 L 103.578609 30.710862 L 103.059452 30.35474 L 101.366429 30.56733 L 101.081774 30.964074 L 101.520957 31.94578 L 100.939446 31.834745 L 97.823146 32.861135 L 97.001712 34.029703 L 97.425984 34.847565 L 96.528641 35.070988 L 96.287362 34.484673 L 94.342216 34.366868 L 94.020962 32.591674 L 92.543464 31.825267 L 91.068677 31.98234 L 90.02223 32.580842 L 88.533888 31.69663 L 87.838515 31.772458 L 87.39391 30.425152 L 86.687694 28.335812 L 87.000815 28.430597 L 88.106905 27.765746 L 89.031357 26.060964 L 88.340051 26.479373 L 87.566059 26.442813 L 87.665011 25.878163 L 87.23125 25.386634 L 87.354601 24.149008 L 86.957439 23.769866 L 86.873397 23.106369 L 86.21869 22.590466 L 86.721581 21.60199 L 86.642962 21.105044 L 86.192935 20.859956 L 86.569765 20.717778 L 86.440992 20.195105 L 86.687694 19.922935 L 85.919124 19.106427 L 86.237667 18.855923 L 86.190224 18.377934 L 85.832372 18.356269 L 85.623624 17.268946 L 85.761886 16.842412 L 86.333908 16.696171 L 86.473524 15.997468 L 86.857131 16.039444 L 87.655522 14.977849 L 87.773451 13.818759 L 88.272276 13.964999 L 90.365172 13.209425 L 90.194378 12.809972 L 89.440719 13.046936 L 89.059823 12.139704 L 89.451563 12.055752 L 89.848725 11.451834 L 90.861286 11.31101 L 91.215072 10.508042 L 91.952465 10.628555 L 93.028734 11.336737 L 93.211727 11.630572 L 92.765767 12.208762 L 91.868424 13.094328 L 92.647838 14.637975 L 93.991141 11.917636 L 94.297484 11.415274 L 93.981652 9.974536 L 94.43439 9.496547 L 94.62416 9.927144 L 94.36797 10.15192 L 94.668892 10.252122 L 95.135185 9.614352 L 94.666181 9.019912 L 94.538764 8.277879 L 95.113497 8.09914 L 95.071476 7.380126 L 95.749227 7.244718 Z M 96.387669 7.744372 " stroke="rgb(100%, 100%, 100%)" stroke-width="0.5" stroke-opacity="1" stroke-miterlimit="4"/></svg>