<svg xmlns="http://www.w3.org/2000/svg" xmlns:xlink="http://www.w3.org/1999/xlink" width="411" zoomAndPan="magnify" viewBox="0 0 308.25 262.500001" height="350" preserveAspectRatio="xMidYMid meet" version="1.0"><defs><clipPath id="id1"><path d="M 0 0.0703125 L 307.5 0.0703125 L 307.5 261.933594 L 0 261.933594 Z M 0 0.0703125 " clip-rule="nonzero"/></clipPath><clipPath id="id2"><path d="M 93 2 L 213 2 L 213 261.933594 L 93 261.933594 Z M 93 2 " clip-rule="nonzero"/></clipPath><clipPath id="id3"><path d="M 93 1 L 213 1 L 213 261.933594 L 93 261.933594 Z M 93 1 " clip-rule="nonzero"/></clipPath></defs><g clip-path="url(#id1)"><path fill="rgb(100%, 100%, 100%)" d="M 0 0.0703125 L 307.5 0.0703125 L 307.5 261.933594 L 0 261.933594 Z M 0 0.0703125 " fill-opacity="1" fill-rule="nonzero"/><path fill="rgb(100%, 100%, 100%)" d="M 0 0.0703125 L 307.5 0.0703125 L 307.5 261.933594 L 0 261.933594 Z M 0 0.0703125 " fill-opacity="1" fill-rule="nonzero"/><path fill="rgb(100%, 100%, 100%)" d="M 0 0.0703125 L 307.5 0.0703125 L 307.5 261.933594 L 0 261.933594 Z M 0 0.0703125 " fill-opacity="1" fill-rule="nonzero"/></g><g clip-path="url(#id2)"><path fill="rgb(17.248535%, 44.309998%, 94.119263%)" d="M 188.148438 196.390625 C 190.539062 194.234375 193.148438 192.296875 194.671875 191.652344 L 195.324219 191.328125 C 198.367188 190.035156 203.914062 187.558594 207.9375 184.976562 C 211.632812 182.605469 212.503906 180.992188 212.175781 180.34375 C 211.308594 178.835938 210.328125 177.761719 209.351562 176.789062 L 209.132812 176.574219 C 207.390625 174.851562 205.542969 173.023438 206.304688 169.359375 C 206.957031 165.914062 207.9375 160.421875 208.371094 157.945312 C 206.195312 157.515625 204.78125 157.085938 203.585938 156.546875 C 201.628906 155.898438 200.433594 154.929688 199.019531 153.207031 C 196.628906 150.191406 197.0625 146.316406 197.28125 143.730469 L 197.28125 143.625 C 197.28125 143.40625 197.28125 143.300781 197.28125 143.191406 C 197.28125 142.976562 197.28125 142.871094 197.390625 142.652344 C 197.390625 142.332031 197.390625 142.117188 197.171875 141.792969 C 197.0625 141.578125 196.84375 141.253906 196.519531 141.039062 C 196.191406 140.824219 195.867188 140.714844 195.757812 140.714844 L 195.648438 140.714844 C 195.429688 140.714844 195.214844 140.714844 195.105469 140.824219 C 194.453125 141.144531 193.257812 142.4375 192.714844 142.976562 C 191.515625 144.269531 190.648438 145.132812 189.886719 145.347656 L 189.453125 145.347656 C 188.148438 145.347656 186.839844 144.160156 186.515625 143.730469 C 185.535156 142.871094 184.777344 141.683594 184.558594 140.5 C 184.449219 140.175781 184.449219 139.855469 184.449219 139.53125 C 184.449219 139.101562 184.125 138.777344 183.363281 138.453125 C 182.382812 138.023438 180.753906 137.699219 179.011719 137.699219 C 175.75 137.59375 172.054688 132.746094 170.964844 131.238281 C 168.140625 127.363281 166.507812 123.269531 166.507812 120.253906 L 166.507812 120.363281 C 166.507812 118.101562 167.703125 115.625 169.769531 113.253906 C 172.597656 109.917969 176.621094 107.226562 177.925781 106.578125 C 178.578125 106.257812 180.207031 104.855469 182.273438 102.488281 C 184.558594 100.011719 186.625 97.316406 187.492188 95.917969 C 188.363281 94.519531 189.667969 93.117188 190.863281 91.71875 L 191.191406 91.394531 C 192.277344 90.210938 193.472656 88.8125 193.691406 88.164062 C 193.800781 87.625 193.800781 87.085938 193.800781 86.550781 C 193.910156 85.042969 193.910156 83.210938 195.429688 82.027344 C 196.191406 81.488281 196.410156 81.273438 196.410156 81.164062 C 196.410156 81.058594 196.300781 80.949219 196.191406 80.519531 C 195.648438 79.550781 195.214844 78.148438 195.105469 76.859375 C 194.996094 75.457031 195.214844 74.378906 195.757812 73.410156 C 196.085938 72.765625 196.191406 71.796875 195.976562 70.613281 C 195.648438 68.886719 194.886719 66.84375 193.582031 64.257812 C 191.734375 60.8125 191.191406 60.488281 189.453125 59.628906 C 188.691406 59.304688 187.492188 58.765625 185.753906 57.582031 C 181.730469 54.78125 181.078125 53.273438 180.101562 50.042969 C 179.992188 49.613281 179.773438 49.183594 179.664062 48.644531 C 179.554688 48.214844 179.339844 47.78125 179.230469 47.351562 C 178.359375 45.089844 178.46875 42.613281 179.449219 40.460938 C 180.425781 38.199219 182.273438 36.042969 184.667969 34.535156 C 186.40625 33.460938 188.800781 29.90625 190.757812 27 L 190.863281 26.78125 C 192.386719 24.414062 193.472656 22.90625 194.234375 22.152344 C 195.214844 21.183594 196.519531 19.890625 197.0625 18.277344 C 197.714844 16.554688 197.714844 14.722656 196.84375 12.570312 C 196.519531 11.707031 196.191406 11.277344 195.976562 11.0625 C 195.757812 10.84375 195.429688 10.738281 195.105469 10.738281 C 194.886719 10.738281 194.453125 10.738281 194.019531 11.0625 C 192.820312 11.597656 191.515625 12.785156 190.210938 14.398438 C 189.667969 15.152344 189.453125 15.582031 189.125 16.015625 C 188.472656 17.308594 188.039062 17.628906 185.644531 18.492188 C 184.339844 18.921875 182.925781 20.429688 181.621094 21.828125 C 179.773438 23.769531 177.925781 25.8125 175.75 26.136719 C 175.535156 26.136719 175.425781 26.136719 175.316406 26.136719 C 174.335938 26.136719 172.707031 25.707031 172.488281 23.015625 C 172.378906 21.9375 172.488281 20.539062 172.597656 19.246094 L 172.707031 18.707031 C 172.921875 17.523438 172.921875 16.445312 172.921875 15.691406 C 172.921875 14.183594 172.054688 12.136719 171.292969 10.84375 C 170.421875 9.121094 169.445312 7.722656 169.007812 7.183594 C 169.007812 7.183594 168.902344 7.078125 168.792969 7.078125 C 168.464844 6.96875 167.59375 6.859375 166.941406 6.96875 C 166.183594 7.078125 165.746094 7.292969 165.53125 7.398438 C 165.53125 7.507812 165.421875 7.613281 165.421875 7.722656 C 165.203125 8.691406 164.769531 10.308594 162.8125 10.308594 C 162.484375 10.308594 162.160156 10.308594 161.722656 10.199219 C 159.984375 9.660156 159.550781 9.554688 159.550781 9.554688 L 158.789062 9.554688 L 158.789062 8.90625 C 158.246094 8.152344 157.699219 7.183594 157.808594 6.214844 C 157.917969 5.675781 158.136719 5.246094 158.570312 4.921875 C 159.003906 4.601562 159.65625 4.0625 159.984375 3.414062 C 159.984375 3.308594 160.09375 3.199219 160.09375 3.199219 C 159.875 2.984375 159.113281 2.660156 157.917969 2.445312 C 156.722656 2.339844 155.199219 2.445312 153.894531 2.875 C 151.9375 3.523438 147.261719 5.570312 143.566406 7.507812 C 140.304688 9.230469 138.890625 10.09375 138.671875 10.414062 C 138.128906 11.816406 135.953125 13.214844 131.714844 15.582031 L 131.277344 15.800781 C 129.972656 16.445312 128.558594 17.308594 127.363281 18.0625 L 126.929688 18.277344 C 126.167969 19.675781 123.339844 24.628906 122.363281 26.136719 C 121.710938 27.320312 120.296875 27.644531 118.992188 28.074219 L 118.882812 28.074219 C 117.25 28.613281 116.054688 29.042969 116.054688 30.015625 C 116.054688 31.414062 117.144531 32.492188 118.230469 33.675781 L 118.449219 33.890625 C 119.316406 34.753906 120.078125 35.613281 120.40625 36.691406 C 120.839844 38.089844 120.296875 41.429688 119.316406 47.351562 C 118.882812 50.042969 118.449219 52.84375 118.449219 54.027344 C 118.449219 54.996094 118.230469 55.964844 118.011719 56.828125 C 117.578125 58.441406 117.25 59.628906 118.664062 62.105469 C 121.382812 66.628906 121.273438 67.488281 119.859375 70.503906 L 119.753906 70.613281 C 119.207031 71.6875 118.992188 72.550781 118.992188 73.304688 C 118.992188 73.84375 119.316406 74.378906 119.753906 74.8125 C 119.96875 75.027344 120.1875 75.132812 120.511719 75.351562 C 122.253906 76.425781 122.472656 77.613281 121.492188 81.058594 C 120.949219 82.671875 120.40625 83.75 119.859375 84.828125 L 119.644531 85.148438 C 118.773438 86.65625 118.230469 87.734375 118.449219 89.78125 C 118.449219 90.101562 118.554688 90.316406 118.554688 90.535156 C 118.554688 90.75 118.664062 91.070312 118.664062 91.289062 L 118.664062 91.394531 C 119.207031 95.59375 119.753906 100.332031 117.25 102.808594 C 116.382812 103.671875 114.859375 104.425781 113.226562 105.179688 L 113.121094 105.179688 C 110.074219 106.578125 105.941406 108.625 105.617188 111.425781 C 105.398438 114.117188 104.964844 115.839844 103.769531 117.132812 C 102.679688 118.316406 101.050781 118.855469 98.65625 119.394531 C 96.375 120.039062 94.960938 120.578125 94.308594 121.546875 C 93.546875 122.625 93.65625 124.453125 94.527344 127.363281 C 95.613281 131.023438 96.917969 134.253906 98.222656 137.269531 L 98.441406 137.914062 C 99.417969 140.070312 100.398438 142.4375 101.050781 144.59375 C 101.8125 146.855469 101.921875 148.898438 101.921875 150.621094 C 101.921875 152.667969 102.027344 153.53125 102.898438 154.070312 C 103.332031 154.390625 104.53125 154.605469 105.617188 154.824219 C 110.292969 155.792969 118.882812 157.621094 119.644531 168.605469 L 119.753906 168.929688 L 119.753906 169.46875 C 120.078125 175.066406 120.296875 177.867188 120.730469 179.375 C 121.058594 180.453125 121.492188 180.882812 122.578125 181.746094 L 122.796875 181.960938 C 122.90625 182.066406 123.015625 182.175781 123.125 182.28125 C 123.339844 182.5 123.558594 182.714844 123.882812 182.929688 C 125.082031 184.003906 126.929688 185.296875 128.886719 186.699219 L 128.996094 186.804688 C 134.539062 190.683594 139.214844 194.234375 140.304688 197.683594 C 141.171875 200.375 148.351562 225.359375 152.046875 244.203125 C 153.675781 252.171875 154.328125 257.769531 154.222656 261.109375 C 160.203125 258.203125 173.140625 250.988281 173.902344 243.558594 C 174.554688 236.558594 173.03125 232.464844 171.292969 228.050781 C 170.421875 226.003906 169.769531 224.171875 169.226562 222.234375 C 169.007812 221.265625 168.792969 220.296875 168.683594 219.113281 C 168.464844 216.527344 169.117188 214.050781 170.3125 212.003906 C 171.511719 210.066406 173.25 208.773438 175.207031 208.128906 C 175.75 207.914062 176.402344 207.804688 177.054688 207.695312 C 178.578125 207.589844 179.992188 207.050781 181.1875 205.972656 C 182.925781 204.359375 183.796875 202.3125 184.015625 201.558594 C 184.449219 200.375 185.753906 198.757812 188.148438 196.390625 Z M 188.148438 196.390625 " fill-opacity="1" fill-rule="nonzero"/></g><g clip-path="url(#id3)"><path stroke-linecap="butt" transform="matrix(2.345255, 0, 0, 2.338061, 92.961313, 0.0691852)" fill="none" stroke-linejoin="round" d="M 40.587106 83.967623 C 41.606451 83.045384 42.71907 82.216706 43.368652 81.941037 L 43.646807 81.802367 C 44.944307 81.249358 47.309455 80.190121 49.02502 79.085773 C 50.600674 78.071645 50.972102 77.381637 50.832192 77.104297 C 50.46243 76.459399 50.044365 75.99995 49.627966 75.58394 L 49.534692 75.492051 C 48.791836 74.755262 48.004009 73.973364 48.3288 72.406227 C 48.606955 70.932651 49.02502 68.583616 49.209901 67.524378 C 48.282163 67.340598 47.679217 67.156819 47.169545 66.926259 C 46.335081 66.64892 45.825408 66.234581 45.222462 65.497792 C 44.203117 64.207995 44.387998 62.550639 44.481271 61.444621 L 44.481271 61.399511 C 44.481271 61.305951 44.481271 61.260842 44.481271 61.214061 C 44.481271 61.122172 44.481271 61.077062 44.527908 60.983502 C 44.527908 60.846503 44.527908 60.754613 44.434635 60.615943 C 44.387998 60.524053 44.294724 60.385383 44.15648 60.293494 C 44.01657 60.201604 43.878325 60.154824 43.831688 60.154824 L 43.785052 60.154824 C 43.691778 60.154824 43.60017 60.154824 43.553534 60.201604 C 43.275379 60.338603 42.765706 60.891612 42.534188 61.122172 C 42.02285 61.675181 41.653088 62.04441 41.328296 62.1363 L 41.143415 62.1363 C 40.587106 62.1363 40.029131 61.6284 39.890886 61.444621 C 39.472821 61.077062 39.149695 60.569163 39.056422 60.062934 C 39.009785 59.924264 39.009785 59.787265 39.009785 59.648595 C 39.009785 59.464816 38.871541 59.326146 38.546749 59.187476 C 38.128685 59.003696 37.434131 58.865026 36.691274 58.865026 C 35.300501 58.819917 33.724846 56.746551 33.260145 56.101652 C 32.055918 54.444296 31.359699 52.69338 31.359699 51.403582 L 31.359699 51.450363 C 31.359699 50.483015 31.869371 49.423777 32.750472 48.409649 C 33.956364 46.982852 35.671929 45.831725 36.228238 45.554385 C 36.506393 45.417386 37.200947 44.817597 38.082048 43.805139 C 39.056422 42.745902 39.937523 41.593103 40.307285 40.994985 C 40.678713 40.396867 41.235023 39.797077 41.744695 39.198959 L 41.884606 39.060289 C 42.347642 38.55406 42.857314 37.955942 42.950588 37.678602 C 42.997224 37.448042 42.997224 37.217483 42.997224 36.988594 C 43.043861 36.343695 43.043861 35.560127 43.691778 35.053898 C 44.01657 34.823338 44.109843 34.731449 44.109843 34.684668 C 44.109843 34.639559 44.063206 34.592779 44.01657 34.408999 C 43.785052 33.99466 43.60017 33.394871 43.553534 32.843533 C 43.506897 32.243744 43.60017 31.782625 43.831688 31.368286 C 43.971599 31.092616 44.01657 30.678277 43.924962 30.172049 C 43.785052 29.43359 43.46026 28.559802 42.903951 27.453784 C 42.116124 25.980207 41.884606 25.841538 41.143415 25.473979 C 40.818624 25.335309 40.307285 25.104749 39.566095 24.59852 C 37.85053 23.400613 37.572375 22.755714 37.155976 21.374027 C 37.109339 21.190248 37.016066 21.006468 36.969429 20.775909 C 36.922792 20.592129 36.831185 20.406679 36.784548 20.2229 C 36.41312 19.255552 36.459756 18.196314 36.877821 17.275746 C 37.294221 16.308398 38.082048 15.38616 39.103059 14.741261 C 39.844249 14.281813 40.86526 12.761456 41.699724 11.518439 L 41.744695 11.424878 C 42.394278 10.412421 42.857314 9.767522 43.182106 9.445073 C 43.60017 9.030734 44.15648 8.477725 44.387998 7.787717 C 44.666152 7.050928 44.666152 6.26736 44.294724 5.346792 C 44.15648 4.977563 44.01657 4.793783 43.924962 4.701894 C 43.831688 4.608333 43.691778 4.563224 43.553534 4.563224 C 43.46026 4.563224 43.275379 4.563224 43.090498 4.701894 C 42.57916 4.930782 42.02285 5.438682 41.466541 6.12869 C 41.235023 6.451139 41.143415 6.634919 41.003505 6.820369 C 40.72535 7.373378 40.540469 7.510377 39.519458 7.879607 C 38.963149 8.063386 38.360203 8.708285 37.803893 9.306403 C 37.016066 10.136752 36.228238 11.010539 35.300501 11.149209 C 35.208893 11.149209 35.162256 11.149209 35.11562 11.149209 C 34.697555 11.149209 34.003001 10.96543 33.909728 9.814302 C 33.863091 9.353183 33.909728 8.755065 33.956364 8.202056 L 34.003001 7.971496 C 34.094609 7.465268 34.094609 7.004148 34.094609 6.681699 C 34.094609 6.0368 33.724846 5.161342 33.400055 4.608333 C 33.028627 3.871545 32.612228 3.273426 32.425681 3.042867 C 32.425681 3.042867 32.38071 2.997757 32.334073 2.997757 C 32.194163 2.950977 31.822735 2.904197 31.54458 2.950977 C 31.221454 2.997757 31.034907 3.089647 30.943299 3.134756 C 30.943299 3.181537 30.896663 3.226646 30.896663 3.273426 C 30.803389 3.687765 30.618508 4.379444 29.784044 4.379444 C 29.644134 4.379444 29.505889 4.379444 29.319342 4.332664 C 28.578152 4.102104 28.393271 4.056995 28.393271 4.056995 L 28.068479 4.056995 L 28.068479 3.779655 C 27.836961 3.457206 27.603778 3.042867 27.650414 2.628528 C 27.697051 2.397968 27.790325 2.214189 27.975206 2.075519 C 28.160087 1.93852 28.438242 1.70796 28.578152 1.43062 C 28.578152 1.385511 28.624789 1.33873 28.624789 1.33873 C 28.531515 1.246841 28.206724 1.108171 27.697051 1.016281 C 27.187378 0.971172 26.537796 1.016281 25.981486 1.20006 C 25.147022 1.4774 23.153303 2.352859 21.577648 3.181537 C 20.186875 3.918325 19.583929 4.287554 19.490655 4.424554 C 19.259137 5.024343 18.3314 5.622461 16.524227 6.634919 L 16.33768 6.728479 C 15.781371 7.004148 15.178425 7.373378 14.668752 7.695827 L 14.483871 7.787717 C 14.159079 8.385835 12.953187 10.504311 12.536788 11.149209 C 12.258633 11.655438 11.655687 11.794108 11.099378 11.977887 L 11.052741 11.977887 C 10.356522 12.208447 9.846849 12.392226 9.846849 12.808236 C 9.846849 13.406355 10.31155 13.867474 10.774586 14.373703 L 10.86786 14.465592 C 11.237622 14.834822 11.562414 15.202381 11.702324 15.6635 C 11.887205 16.261618 11.655687 17.690085 11.237622 20.2229 C 11.052741 21.374027 10.86786 22.571935 10.86786 23.078164 C 10.86786 23.492503 10.774586 23.906842 10.681313 24.276071 C 10.496432 24.966079 10.356522 25.473979 10.959468 26.533216 C 12.118723 28.467912 12.072086 28.835471 11.46914 30.125268 L 11.424169 30.172049 C 11.190986 30.631497 11.099378 31.000727 11.099378 31.323176 C 11.099378 31.553736 11.237622 31.782625 11.424169 31.968075 C 11.515777 32.059964 11.60905 32.105074 11.747295 32.198634 C 12.490151 32.658083 12.583425 33.165982 12.16536 34.639559 C 11.933842 35.329567 11.702324 35.790686 11.46914 36.251806 L 11.377532 36.388805 C 11.006104 37.033703 10.774586 37.494823 10.86786 38.370281 C 10.86786 38.50728 10.912831 38.59917 10.912831 38.69273 C 10.912831 38.78462 10.959468 38.921619 10.959468 39.01518 L 10.959468 39.060289 C 11.190986 40.856315 11.424169 42.882901 10.356522 43.942138 C 9.986759 44.311368 9.337176 44.633817 8.640957 44.956267 L 8.595986 44.956267 C 7.29682 45.554385 5.534619 46.429843 5.396374 47.627751 C 5.303101 48.778878 5.118219 49.515667 4.608547 50.068676 C 4.143845 50.574904 3.449291 50.805464 2.42828 51.036024 C 1.455572 51.311693 0.852626 51.542252 0.574471 51.956591 C 0.249679 52.417711 0.296316 53.199608 0.667744 54.444296 C 1.13078 56.009763 1.68709 57.39145 2.243399 58.681247 L 2.336672 58.956916 C 2.753072 59.879155 3.171136 60.891612 3.449291 61.81385 C 3.774083 62.781198 3.820719 63.654986 3.820719 64.391774 C 3.820719 65.267233 3.86569 65.636462 4.237119 65.867022 C 4.422 66.004021 4.933338 66.095911 5.396374 66.189471 C 7.390093 66.60381 11.052741 67.385708 11.377532 72.083778 L 11.424169 72.222448 L 11.424169 72.453007 C 11.562414 74.847152 11.655687 76.04506 11.840568 76.689958 C 11.980479 77.151077 12.16536 77.334857 12.628396 77.704086 L 12.721669 77.795976 C 12.768306 77.841086 12.814943 77.887866 12.861579 77.932975 C 12.953187 78.026536 13.046461 78.118425 13.184705 78.210315 C 13.696043 78.669764 14.483871 79.222773 15.318335 79.822562 L 15.364972 79.867671 C 17.728454 81.526698 19.722173 83.045384 20.186875 84.520632 C 20.556637 85.671759 23.618004 96.357696 25.193659 104.417259 C 25.888213 107.825531 26.166368 110.219676 26.121396 111.648143 C 28.671425 110.405126 34.187882 107.319303 34.512674 104.141589 C 34.790828 101.147656 34.141246 99.396739 33.400055 97.508824 C 33.028627 96.633365 32.750472 95.849797 32.518954 95.021119 C 32.425681 94.60678 32.334073 94.192441 32.287436 93.686212 C 32.194163 92.580194 32.472317 91.520956 32.98199 90.645498 C 33.493328 89.81682 34.234519 89.263811 35.068983 88.988142 C 35.300501 88.896252 35.578656 88.849472 35.85681 88.802692 C 36.506393 88.757582 37.109339 88.527023 37.619012 88.065903 C 38.360203 87.375895 38.731631 86.500437 38.824904 86.177988 C 39.009785 85.671759 39.566095 84.98008 40.587106 83.967623 Z M 40.587106 83.967623 " stroke="rgb(100%, 100%, 100%)" stroke-width="0.5" stroke-opacity="1" stroke-miterlimit="10"/></g><path stroke-linecap="butt" transform="matrix(2.345255, 0, 0, 2.338061, 92.961313, 0.0691852)" fill-opacity="1" fill="rgb(17.248535%, 44.309998%, 94.119263%)" fill-rule="evenodd" stroke-linejoin="round" d="M 41.048476 55.734094 C 40.816958 56.101652 40.538803 56.838441 41.003505 57.16089 C 41.466541 57.483339 42.254368 57.852569 42.439249 57.944459 C 42.57916 58.083129 43.042195 57.713899 43.273713 57.25278 C 43.506897 56.793331 43.738415 56.562772 43.506897 56.332212 C 42.950588 55.734094 41.698059 54.674856 41.048476 55.734094 Z M 41.048476 55.734094 " stroke="rgb(100%, 100%, 100%)" stroke-width="0.5" stroke-opacity="1" stroke-miterlimit="10"/><path stroke-linecap="butt" transform="matrix(2.345255, 0, 0, 2.338061, 92.961313, 0.0691852)" fill-opacity="1" fill="rgb(17.248535%, 44.309998%, 94.119263%)" fill-rule="evenodd" stroke-linejoin="round" d="M 46.938027 39.751968 C 47.077937 39.660078 47.959038 39.705188 47.449365 40.856315 C 47.216181 41.317434 45.315735 44.219478 44.806063 43.3908 C 44.15648 42.423452 46.103563 40.211416 46.938027 39.751968 Z M 46.938027 39.751968 " stroke="rgb(100%, 100%, 100%)" stroke-width="0.5" stroke-opacity="1" stroke-miterlimit="10"/></svg>