<svg xmlns="http://www.w3.org/2000/svg" xmlns:xlink="http://www.w3.org/1999/xlink" width="624" zoomAndPan="magnify" viewBox="0 0 468 308.250004" height="411" preserveAspectRatio="xMidYMid meet" version="1.0"><defs><clipPath id="id1"><path d="M 0.566406 0 L 467.429688 0 L 467.429688 307.5 L 0.566406 307.5 Z M 0.566406 0 " clip-rule="nonzero"/></clipPath></defs><g clip-path="url(#id1)"><path fill="rgb(100%, 100%, 100%)" d="M 0.566406 0 L 467.433594 0 L 467.433594 307.5 L 0.566406 307.5 Z M 0.566406 0 " fill-opacity="1" fill-rule="nonzero"/><path fill="rgb(100%, 100%, 100%)" d="M 0.566406 0 L 467.433594 0 L 467.433594 307.5 L 0.566406 307.5 Z M 0.566406 0 " fill-opacity="1" fill-rule="nonzero"/><path fill="rgb(100%, 100%, 100%)" d="M 0.566406 0 L 467.433594 0 L 467.433594 307.5 L 0.566406 307.5 Z M 0.566406 0 " fill-opacity="1" fill-rule="nonzero"/></g><path stroke-linecap="butt" transform="matrix(2.812308, 0, 0, 2.810729, 0.578384, 49.690826)" fill-opacity="1" fill="rgb(17.248535%, 44.309998%, 94.119263%)" fill-rule="nonzero" stroke-linejoin="round" d="M 164.940311 57.158424 C 164.88753 56.663668 164.855583 56.648381 164.34027 56.381546 C 164.134701 56.274534 163.837458 56.129999 163.48049 55.902077 C 162.402638 55.223872 162.356802 54.188498 162.319299 53.280982 C 162.30402 52.946049 162.288742 52.604167 162.220681 52.29147 C 162.084561 51.621604 161.285896 51.194946 160.526122 50.783576 C 160.221934 50.615415 159.902468 50.448643 159.630227 50.258245 C 158.474593 49.479977 159.302427 47.370316 159.849687 45.976382 C 159.971917 45.665075 160.06359 45.428815 160.116371 45.245366 C 160.206655 44.963244 159.99553 44.726984 159.485773 44.271142 C 159.212143 44.026543 158.901011 43.744421 158.673218 43.402539 C 158.125958 42.595086 158.316249 41.733432 158.43709 41.162239 C 158.474593 40.987129 158.513484 40.820357 158.513484 40.721684 C 158.513484 40.500712 158.489872 40.301975 158.430145 40.126865 C 158.36903 39.943416 158.270412 39.776645 158.125958 39.616822 C 157.889831 39.349987 157.639814 38.938617 157.435633 38.459148 C 157.237009 38.008865 157.092554 37.529396 157.017549 37.087451 C 156.871706 36.218848 156.834203 35.990927 156.249441 35.183474 C 155.929975 34.73458 155.686903 34.535844 155.474389 34.360734 C 155.452165 34.345446 155.406328 34.307923 154.935463 33.811777 L 154.896571 33.752017 C 154.828511 33.651954 154.791009 33.553281 154.77573 33.446269 C 154.753506 33.301734 154.738227 32.951513 155.11742 32.669391 C 155.25354 32.563769 155.436886 32.478993 155.679958 32.402556 C 156.256386 32.220497 157.00227 32.159348 157.442578 32.174635 C 157.768989 32.181584 158.049564 32.189922 158.202352 32.14406 C 158.270412 32.121824 158.338473 32.091249 158.452369 31.923088 C 158.559321 31.770214 158.513484 31.08506 158.482927 30.583355 C 158.459314 30.216457 158.43709 29.850949 158.43709 29.478493 C 158.43709 28.914248 158.64266 28.601552 158.824617 28.441729 C 158.938513 28.336107 159.067689 28.266618 159.196864 28.220756 C 158.969071 27.780201 158.50654 26.949122 156.917542 26.736488 C 156.303612 26.651712 155.809134 26.60585 155.384105 26.568327 C 154.349312 26.469653 153.667321 26.401555 152.557523 25.951271 C 151.889422 25.684437 151.319939 25.174393 150.832406 24.443377 C 150.172638 23.430239 149.890675 22.287853 149.800391 21.83757 C 149.671215 21.191329 149.739276 20.528412 149.807336 19.887731 C 149.875396 19.217864 149.95179 18.53966 149.800391 17.839218 C 149.565653 16.719069 149.169792 15.425198 149.003114 14.929052 C 148.629478 14.76923 148.440576 14.487107 148.265564 14.23695 C 148.061384 13.931202 147.886372 13.672706 147.262718 13.574032 C 146.579338 13.467021 145.712612 12.994501 144.825052 12.248197 C 143.936102 11.501894 143.123547 10.565193 142.644348 9.734114 C 142.492949 9.475618 142.302658 9.278272 142.074865 9.147634 C 141.755398 8.972524 141.437321 8.957236 141.223418 8.980862 C 140.966456 8.99615 140.71505 9.079535 140.548372 9.193496 C 140.471978 9.239358 140.448365 9.278272 140.448365 9.278272 C 140.220572 9.764689 139.970555 10.099622 139.681646 10.29002 C 139.392737 10.481807 138.807975 10.70278 138.117651 10.016236 C 137.8593 9.75774 137.417603 9.597917 136.878677 9.552055 C 136.278636 9.499244 135.61748 9.613205 135.161894 9.834177 C 134.979937 9.917563 134.835483 9.994 134.721586 10.05515 C 134.189605 10.320595 134.067375 10.366457 133.254819 10.390083 C 132.868682 10.397032 132.450598 10.313646 132.107519 10.153823 C 131.978343 10.092673 131.706103 9.886988 131.500533 9.727165 C 130.11155 10.488756 125.840425 12.873591 123.836122 14.419009 C 122.627706 15.364049 121.76237 15.821281 120.927591 15.988053 C 120.091422 16.156214 119.292757 16.018627 118.199627 15.775419 C 117.021769 15.508584 116.437007 15.044403 115.935584 14.64832 C 115.525834 14.320336 115.168865 14.038214 114.575769 13.977064 C 114.09657 13.931202 113.049276 14.152174 111.849194 14.480159 C 109.836557 15.029115 107.419726 15.865753 106.591892 16.163163 C 105.954348 16.392474 104.686206 16.202076 103.469457 15.843517 C 102.117976 15.447434 100.82761 14.838718 100.530368 14.373147 C 100.188678 13.82558 99.702533 14.06184 99.277505 14.381485 C 99.163608 14.464871 99.049711 14.563544 98.951093 14.64832 C 98.889978 14.692793 98.835808 14.746993 98.783026 14.792856 C 98.46356 15.044403 98.106591 14.799804 97.705175 14.502395 C 97.377375 14.267525 97.013461 14.00069 96.603711 13.970115 C 96.071731 13.93954 95.167502 13.604607 94.416062 13.070938 C 93.829911 12.659568 93.321543 12.125898 93.131252 11.517182 C 93.100695 11.425457 93.063192 11.333733 93.017356 11.265634 C 92.782618 10.854264 92.349255 10.672205 91.878389 10.618004 C 91.39919 10.565193 90.890822 10.656918 90.510241 10.801453 C 90.367175 10.854264 90.238 10.915414 90.146327 10.983512 C 89.903255 11.151674 89.721298 11.418508 89.553231 11.661717 C 89.264322 12.088375 89.014305 12.453883 88.535106 12.271823 C 88.217029 12.156473 87.700327 11.52413 87.17668 10.76254 C 86.491911 9.773028 85.793253 8.538917 85.512678 7.906574 C 85.459897 7.792614 85.398781 7.685602 85.322387 7.593878 C 85.064036 7.28257 84.669565 7.092173 84.236202 7.037972 C 83.795894 6.985161 83.30975 7.061598 82.876387 7.28257 C 82.679152 7.388192 82.488861 7.517441 82.313849 7.685602 C 81.759644 8.234559 80.954034 8.11226 80.18037 7.762039 C 79.420596 7.418767 78.676101 6.847574 78.242738 6.482066 C 77.80243 6.116558 77.498243 5.713527 77.316286 5.302157 C 77.125995 4.860212 77.080159 4.418267 77.171832 4.029133 C 77.224613 3.801211 77.119051 3.534377 76.92876 3.306455 C 76.821808 3.184156 76.700966 3.070195 76.571791 2.978471 C 76.442616 2.886747 76.305106 2.818648 76.175931 2.779735 C 76.009253 2.726924 75.857853 2.742211 75.759236 2.833936 C 75.652284 2.939558 75.568945 3.070195 75.485606 3.214731 C 75.2342 3.648337 74.930012 4.173668 73.586865 4.418267 C 72.697916 4.578089 71.907584 4.646188 71.193647 4.623952 C 70.471375 4.600326 69.825498 4.479416 69.225457 4.258444 C 68.655974 4.052759 67.357274 3.899885 66.043296 3.831786 C 64.637645 3.755349 63.225048 3.770637 62.708347 3.899885 C 62.443051 3.967983 62.055524 4.029133 61.584659 4.098621 C 60.238734 4.295967 58.241376 4.600326 56.775998 5.51479 C 56.395416 5.75105 55.909272 6.040121 55.385625 6.352818 C 53.235479 7.632791 50.265832 9.40752 48.981022 10.991851 C 47.546202 12.751292 45.8822 13.580981 44.804349 14.114651 C 44.66684 14.182749 44.530719 14.252237 44.401544 14.320336 C 43.884842 14.594119 43.444534 14.70808 42.950056 14.70808 C 42.456967 14.70808 41.916652 14.578832 41.156878 14.366198 C 40.572116 14.198037 40.147087 13.93954 39.752616 13.694942 C 39.144241 13.329434 38.612261 13.002839 37.67053 13.139036 C 36.621847 13.29191 33.492467 13.002839 31.221479 12.797154 C 30.043621 12.690142 29.10189 12.606757 28.806037 12.613705 C 28.440734 12.622044 27.993482 12.537268 27.537895 12.416359 C 26.868405 12.241249 26.207249 11.989701 25.835001 11.829879 C 25.661378 11.76039 25.341912 11.58528 24.923828 11.372646 C 23.822364 10.793114 22.068078 9.864752 20.662427 9.453382 C 19.849871 9.217122 19.173436 8.538917 18.656734 7.768988 C 17.920573 6.657177 17.548326 5.331342 17.638609 4.860212 C 17.715004 4.509991 17.609441 4.204243 17.312198 3.899885 C 17.281641 3.862361 17.221914 3.80816 17.152465 3.762298 C 17.191357 3.762298 17.21358 3.762298 17.21358 3.755349 C 17.21358 3.6942 17.114963 3.564951 16.970508 3.39679 C 14.198097 4.836586 13.605001 4.34183 11.440965 2.529577 L 11.395129 2.490664 C 10.14921 1.424715 9.708903 1.797172 9.054691 2.346128 C 8.379645 2.917321 7.528198 3.626101 5.864196 3.733113 C 5.507227 3.747011 5.165537 3.770637 4.878018 3.823448 C 4.634946 3.877648 4.421042 3.945747 4.276588 4.090282 C 4.239085 4.120857 4.208528 4.158381 4.171025 4.212582 C 3.927953 4.494704 3.76822 4.921361 3.722384 5.309105 C 3.684881 5.705188 3.752941 6.055409 3.927953 6.269432 C 3.950177 6.28472 3.950177 6.300007 3.958511 6.300007 L 3.980735 6.322243 C 6.222554 8.576441 6.510074 9.438095 5.964203 10.099622 C 5.765578 10.328933 5.478059 10.488756 5.12109 10.648579 C 4.284922 11.059949 3.107064 11.639481 3.395972 14.243899 C 3.448754 14.792856 3.297355 15.576682 2.977888 16.224313 C 2.818155 16.559246 2.62092 16.864994 2.377848 17.092915 C 2.241727 17.230502 2.097273 17.344462 1.944485 17.420899 C 1.915316 17.557096 1.891703 17.701632 1.906982 17.823931 C 1.998655 18.440986 2.287564 18.509085 3.039004 18.668908 C 3.251518 18.71477 3.502924 18.768971 3.798778 18.852356 C 4.405763 19.012179 4.998859 19.034416 5.515561 18.974656 C 6.122547 18.905167 6.639249 18.707821 6.980939 18.47851 C 7.224011 18.311738 7.558756 18.213065 7.885167 18.197778 C 8.097682 18.189439 8.310196 18.220014 8.500487 18.288112 C 8.690778 18.364549 8.850511 18.493797 8.956073 18.668908 C 9.025523 18.791207 9.063025 18.935742 9.06997 19.103904 C 9.078304 19.401313 9.131085 19.666758 9.214424 19.857156 C 9.268595 19.994743 9.3436 20.093416 9.435273 20.147617 C 9.518612 20.200428 9.61723 20.215715 9.73946 20.178191 C 9.845023 20.147617 9.967253 20.07118 10.103374 19.941931 C 10.460343 19.613947 10.786754 19.309589 11.159001 18.974656 C 11.531249 18.639723 11.942388 18.281163 12.45909 17.823931 C 13.096633 17.261077 13.157749 16.917805 13.241088 16.47586 C 13.286924 16.209025 13.339705 15.904667 13.506383 15.515533 C 13.902244 14.602458 14.418946 14.662218 15.063434 14.731706 C 15.223167 14.746993 15.391234 14.762281 15.557912 14.76923 L 15.610694 14.76923 C 16.446862 14.792856 16.810775 14.799804 17.206636 15.226462 C 17.228859 15.250088 17.252472 15.272324 17.274696 15.287612 C 17.373314 15.35571 17.48721 15.348761 17.609441 15.29456 C 17.737227 15.234801 17.881682 15.11945 18.019191 14.974915 C 18.178924 14.808143 18.323378 14.594119 18.452554 14.373147 C 18.626177 14.06184 18.960922 13.915914 19.340114 13.871442 C 19.849871 13.810292 20.434633 13.924253 20.806881 14.06184 C 21.194407 14.206375 21.870842 14.213324 22.44727 14.228611 C 22.766737 14.23695 23.055645 14.23695 23.252881 14.267525 C 23.526511 14.305048 23.579292 14.47182 23.647352 14.655269 C 23.716801 14.845667 23.784862 15.051352 24.286285 15.05969 C 24.871047 15.066639 26.283643 15.158363 27.369828 15.379336 C 28.068487 15.515533 28.646304 15.714269 28.812982 15.988053 C 28.889376 16.117301 28.950491 16.270175 29.018551 16.423049 C 29.283847 17.040104 29.596369 17.778069 30.993686 17.633533 L 31.449273 17.580722 C 32.695191 17.451474 33.986945 17.305549 34.54115 17.465372 C 34.784222 17.53486 34.905064 17.664108 34.852282 17.869793 C 34.707828 18.456274 33.978612 18.486848 32.717414 18.524372 C 32.543792 18.532711 32.353501 18.53966 32.147931 18.547998 C 31.882635 18.554947 31.624284 18.570234 31.381212 18.578573 C 30.203354 18.616097 29.314405 18.646671 28.981049 18.920455 C 28.578244 19.248439 28.076821 19.263727 27.27121 19.30125 L 26.944799 19.316538 C 26.564218 19.331825 26.261419 19.431888 26.078073 19.561136 C 26.003068 19.613947 25.957232 19.675097 25.935008 19.743195 C 25.911395 19.797396 25.911395 19.850207 25.935008 19.911357 C 25.964177 19.987794 26.033626 20.062841 26.147522 20.132329 C 26.321145 20.24629 26.618388 20.368589 26.92952 20.497837 C 27.628179 20.779959 28.403232 21.099605 28.326838 21.563786 C 28.274056 21.898719 27.993482 22.082168 27.575398 22.180841 C 27.187871 22.272566 26.671169 22.294802 26.12391 22.294802 C 25.775275 22.287853 25.403027 22.325377 25.022446 22.349003 C 24.240448 22.410153 23.480674 22.469912 23.016754 22.226704 C 22.455604 21.929294 20.799936 21.968208 19.856816 21.990444 C 19.712362 21.990444 19.584575 21.998782 19.477624 21.998782 C 19.317891 21.998782 19.158157 22.005731 19.022037 22.01407 C 18.459499 22.043255 18.110864 22.058542 18.019191 21.655511 C 17.973354 21.465113 17.988633 21.320577 18.003912 21.198278 C 18.019191 21.053743 18.03447 20.924495 17.905294 20.756333 C 17.798343 20.627085 17.539992 20.634034 17.312198 20.710471 C 17.237193 20.741046 17.160799 20.771621 17.099684 20.817483 C 17.038569 20.855006 16.994121 20.900869 16.970508 20.946731 C 16.939951 21.000932 16.933006 21.053743 16.970508 21.114892 C 17.053847 21.24414 17.191357 21.351152 17.327477 21.456774 C 17.609441 21.670798 17.874737 21.861196 17.715004 22.272566 C 17.609441 22.539401 17.366369 22.729798 17.031624 22.859046 C 16.666321 22.996633 16.195456 23.056393 15.663475 23.064731 L 15.634306 23.064731 C 14.684242 23.080019 14.311994 23.086968 13.841129 22.813184 C 13.613335 22.683936 13.446657 22.585263 13.293869 22.493538 C 13.134136 22.394865 12.974403 22.303141 12.770222 22.165554 C 12.602155 22.051593 12.52715 21.830621 12.466035 21.633274 C 12.428532 21.526263 12.397975 21.427589 12.359083 21.358101 C 12.284078 21.24414 12.154903 21.228853 11.84377 21.465113 C 11.410407 21.800046 10.977045 22.01407 10.536737 22.158605 C 10.096429 22.303141 9.647787 22.379578 9.183867 22.42544 C 8.72828 22.469912 8.325475 22.515775 7.999064 22.622786 C 7.687932 22.72146 7.444859 22.881283 7.29346 23.156456 C 7.155951 23.392716 6.912879 23.5442 6.654528 23.712361 C 6.244778 23.970858 5.796136 24.25298 5.789191 24.90061 L 5.789191 24.915897 C 5.765578 26.042996 5.765578 26.340405 4.801624 26.697575 C 4.733564 26.690626 4.687727 26.712862 4.641891 26.736488 C 4.322424 26.942173 4.140468 27.413303 4.079352 27.931685 C 4.011292 28.457016 4.057129 29.036548 4.17797 29.424292 C 4.208528 29.516016 4.239085 29.599402 4.276588 29.66889 C 4.580775 30.247032 4.337703 30.55278 3.996013 30.971099 C 3.882117 31.108686 3.752941 31.26017 3.639045 31.443619 C 3.570984 31.550631 3.540427 31.634017 3.540427 31.702115 C 3.540427 31.763265 3.577929 31.809127 3.623766 31.854989 C 3.684881 31.900851 3.76822 31.931426 3.866838 31.946714 C 4.133523 31.991186 4.482158 31.946714 4.740509 31.824414 C 4.983581 31.702115 5.272489 31.610391 5.576677 31.520056 C 6.00865 31.382469 6.479516 31.229595 6.912879 30.978048 C 7.285126 30.758465 7.810162 30.55278 8.296306 30.399906 C 8.797729 30.247032 9.27554 30.156698 9.549169 30.178934 C 9.792242 30.194221 10.186713 30.31652 10.475621 30.506918 C 10.613131 30.597253 10.733972 30.712603 10.802033 30.833513 C 10.878427 30.96415 10.90065 31.115635 10.847869 31.283796 C 10.802033 31.404706 10.703415 31.535344 10.543682 31.67154 C 10.385338 31.809127 10.164489 31.960611 9.928362 32.121824 C 9.579727 32.373371 9.176922 32.638816 8.86579 32.944564 C 8.310196 33.476844 7.983785 34.109187 8.583826 34.85549 C 8.925516 35.282147 9.20748 35.579557 9.413049 35.800529 C 9.967253 36.38701 10.096429 36.524597 9.860302 37.354286 C 9.724181 37.842093 9.80752 38.078353 10.035314 38.168687 C 10.285331 38.268751 10.69647 38.207601 11.152056 38.100589 C 11.539583 38.008865 11.872939 38.054727 12.086842 38.177026 C 12.18546 38.238176 12.260465 38.314613 12.306302 38.397999 C 12.359083 38.489723 12.374362 38.595345 12.359083 38.702357 C 12.329914 38.846892 12.245186 38.991428 12.071564 39.122066 C 11.888218 39.266601 11.561807 39.387511 11.189559 39.532046 C 10.908984 39.639058 10.597852 39.761357 10.324222 39.898944 C 9.792242 40.164389 9.404715 40.522948 9.632508 41.056617 C 9.989477 41.886306 10.727027 42.602035 11.250674 43.113468 C 11.509025 43.356677 11.714595 43.562362 11.813213 43.706897 C 11.859049 43.774996 11.865994 43.844484 11.859049 43.912582 C 11.84377 44.034882 11.759042 44.148842 11.629867 44.255854 C 11.509025 44.354527 11.349292 44.446252 11.182614 44.51435 C 10.786754 44.689461 10.308943 44.772846 10.057537 44.658886 C 9.814465 44.544925 9.647787 44.781185 9.496388 44.98687 C 9.382491 45.138354 9.283874 45.275941 9.154698 45.306516 C 8.971352 45.344039 8.850511 45.268992 8.743559 45.024394 C 8.653275 44.818709 8.576881 44.483776 8.493542 43.973732 L 8.469929 43.859771 C 8.310196 42.907783 8.143518 41.947456 7.56709 41.695909 C 7.324018 41.597235 7.057333 41.612523 6.851763 41.711196 C 6.76148 41.74872 6.685085 41.809869 6.632304 41.879358 C 6.586468 41.939117 6.548965 42.015554 6.548965 42.091992 C 6.548965 42.190665 6.586468 42.297677 6.685085 42.411637 C 6.844819 42.586748 7.004552 42.724334 7.140672 42.853582 C 7.475417 43.157941 7.718489 43.378913 7.70321 43.813909 C 7.696265 43.943157 7.70321 44.072405 7.718489 44.201653 C 7.749047 44.658886 7.779604 45.10778 7.262903 45.549725 C 6.996218 45.779036 6.958715 45.923571 7.042054 46.030583 C 7.140672 46.159831 7.392078 46.251555 7.63515 46.350229 C 7.885167 46.441953 8.112961 46.517 8.303251 46.540626 C 8.485208 46.562863 8.629662 46.532288 8.721335 46.441953 C 8.736614 46.426666 8.751893 46.411378 8.774117 46.40304 C 8.911626 46.296028 9.176922 46.197355 9.435273 46.16678 C 9.700569 46.136205 9.974198 46.175118 10.118653 46.350229 C 10.133932 46.365516 10.142265 46.372465 10.14921 46.387752 C 10.201992 46.479477 10.256162 46.593437 10.30061 46.722685 C 10.460343 47.111819 10.672857 47.63715 11.432631 47.858123 C 11.736818 47.949847 12.139624 48.010997 12.557708 48.072146 C 13.560554 48.223631 14.623126 48.383454 14.691186 49.008847 C 14.745357 49.518891 14.555066 49.914974 14.380054 50.302718 C 14.266157 50.538978 14.160595 50.768289 14.106424 51.019836 C 14.068922 51.210234 14.000862 51.385344 13.924468 51.567403 C 13.727232 52.048261 13.521662 52.573592 13.96197 53.357419 C 14.274491 53.913325 14.456448 54.248258 14.562011 54.515093 C 14.675908 54.790266 14.69952 55.0029 14.69952 55.330884 C 14.69952 55.444845 14.721744 55.528231 14.760636 55.58938 C 14.798138 55.65053 14.859253 55.681105 14.920369 55.696392 C 14.988429 55.71168 15.071768 55.703341 15.148162 55.681105 C 15.277337 55.643581 15.406513 55.551857 15.489852 55.429557 C 15.595415 55.269735 15.770427 55.147435 15.937105 55.094624 C 16.035722 55.06405 16.135729 55.055711 16.234347 55.079337 C 16.324631 55.101573 16.416304 55.155774 16.469085 55.246109 C 16.530201 55.337833 16.560758 55.451794 16.560758 55.613006 L 16.552424 55.764491 C 16.537146 56.230062 16.530201 56.328735 17.228859 56.617806 C 17.653888 56.792916 17.890015 56.961077 17.988633 57.158424 C 18.10253 57.364109 18.071972 57.59342 17.988633 57.88944 C 17.912239 58.134038 17.715004 58.285523 17.509434 58.445346 C 17.221914 58.674657 16.902448 58.917865 16.917727 59.466822 C 16.917727 59.543259 16.939951 59.611358 16.970508 59.664169 C 17.031624 59.77118 17.152465 59.847617 17.305253 59.89348 C 17.471931 59.946291 17.677501 59.961578 17.89696 59.954629 C 18.595619 59.931003 19.46929 59.664169 19.910986 59.352861 C 20.222119 59.131889 20.754099 59.047113 21.330528 59.031826 C 22.341708 59.00959 23.480674 59.199987 23.670965 59.24585 C 23.693189 59.252798 23.723746 59.261137 23.761249 59.268086 C 23.920982 59.298661 24.126551 59.344523 24.218224 59.48211 C 24.339066 59.65722 24.262672 59.946291 23.632073 60.47996 C 23.548734 60.54111 23.473729 60.609208 23.397335 60.685645 C 22.918136 61.12759 22.58478 61.622346 22.416713 62.07124 C 22.258369 62.506236 22.258369 62.909268 22.455604 63.19139 C 22.470883 63.206677 22.477828 63.213626 22.486162 63.228914 C 22.630616 63.412362 22.773682 63.519374 22.911191 63.565236 C 23.002864 63.594421 23.086203 63.587473 23.161208 63.556898 C 23.230657 63.526323 23.290383 63.473512 23.33622 63.390126 C 23.397335 63.283114 23.427893 63.138579 23.419559 62.970417 C 23.412614 62.863406 23.419559 62.764732 23.434838 62.673008 C 23.473729 62.399224 23.587626 62.162964 23.723746 62.003142 C 23.868201 61.83498 24.043212 61.736307 24.202946 61.721019 C 24.232114 61.721019 24.262672 61.721019 24.293229 61.721019 C 24.391847 61.736307 24.407126 61.65987 24.422405 61.561197 C 24.446018 61.416661 24.461296 61.256838 24.619641 61.142878 C 24.704369 61.081728 24.818265 61.042815 24.932162 61.020578 C 25.046059 60.998342 25.175234 60.998342 25.289131 61.027527 C 25.409972 61.066441 25.516924 61.142878 25.584984 61.263787 C 25.622487 61.324937 25.646099 61.394425 25.661378 61.477811 C 25.705826 61.714071 25.911395 61.759933 26.154467 61.804405 C 26.351703 61.850268 26.579496 61.889181 26.754508 62.049004 C 26.944799 62.215776 26.982302 62.331126 27.021193 62.490949 C 27.065641 62.65772 27.126756 62.878693 27.507337 63.283114 C 27.849027 63.648622 28.092099 63.823733 28.28239 63.83902 C 28.449068 63.854307 28.578244 63.725059 28.699085 63.473512 C 28.797703 63.274776 28.874097 63.069091 28.942157 62.878693 C 29.071333 62.536811 29.169951 62.261638 29.360241 62.171303 C 29.58109 62.055953 29.754713 62.338075 29.960282 62.673008 L 29.968616 62.673008 C 30.074179 62.856457 30.203354 63.053803 30.340864 63.206677 C 30.45476 63.328977 30.568657 63.328977 30.667275 63.328977 C 30.932571 63.328977 31.160364 63.328977 31.289539 64.349063 C 31.350655 64.78406 31.350655 65.13428 31.350655 65.4303 C 31.350655 66.101556 31.350655 66.512926 32.079871 67.152218 C 32.771585 67.762324 33.128554 67.876285 33.720261 68.066682 C 34.039727 68.165356 34.427253 68.287655 34.959234 68.523915 C 35.946801 68.942234 36.113479 69.239643 36.234321 69.467565 C 36.30377 69.581525 36.349606 69.67325 36.553787 69.749687 C 36.827417 69.856698 37.048265 69.589864 37.321895 69.270218 C 37.571912 68.972808 37.852487 68.629537 38.263626 68.454426 C 38.666431 68.279316 39.137296 68.25708 39.562325 68.233454 C 40.033191 68.211218 40.451275 68.187592 40.617953 67.952722 C 40.655455 67.898521 40.694347 67.852659 40.731849 67.806796 C 40.891582 67.624737 41.073539 67.510777 41.270775 67.480202 C 41.461066 67.449627 41.666635 67.510777 41.863871 67.685887 C 41.901373 67.716462 41.940265 67.753985 41.977768 67.791509 C 42.023604 67.837371 42.06944 67.867946 42.106943 67.876285 C 42.190282 67.898521 42.273621 67.867946 42.358349 67.799848 C 42.448633 67.723411 42.540306 67.601111 42.615311 67.464914 C 42.75282 67.213367 42.844493 66.909009 42.844493 66.679698 C 42.858383 66.353103 42.912553 66.230804 42.995892 66.032068 C 43.063953 65.880583 43.147292 65.674898 43.24591 65.285764 C 43.359806 64.852158 43.4362 64.478311 43.451479 64.121142 C 43.466758 63.762583 43.413977 63.412362 43.269522 62.994043 C 43.238965 62.887032 43.216741 62.788358 43.201462 62.688295 C 43.170904 62.429799 43.230631 62.201878 43.383419 62.003142 C 43.527873 61.812744 43.747333 61.652921 44.036241 61.530622 C 44.316816 61.416661 44.659895 61.333275 45.061311 61.287413 C 45.700243 61.210976 46.558635 61.2485 47.378135 61.355512 C 48.3282 61.477811 49.232428 61.683496 49.688015 61.880842 C 50.15888 62.086527 51.632592 62.825882 53.038243 63.534662 C 54.102205 64.066941 55.127275 64.578374 55.628698 64.813245 C 56.130121 65.049504 56.607931 65.453926 57.049628 65.90282 C 57.63439 66.519875 58.151092 67.228655 58.492782 67.791509 C 58.751133 68.202879 59.305337 68.683738 59.935935 69.132631 C 60.755436 69.719112 61.727724 70.25973 62.38888 70.55714 L 62.548613 70.633577 C 63.012534 70.839262 63.240327 70.946274 63.422284 70.930986 C 63.588962 70.915699 63.74175 70.778112 64.030659 70.511277 L 64.173724 70.382029 C 64.759875 69.863647 65.557152 69.749687 66.164138 69.657962 C 66.422488 69.620439 66.643337 69.589864 66.794736 69.537053 C 66.985027 69.467565 67.425335 69.475903 67.95037 69.475903 C 68.982385 69.482852 70.335255 69.491191 70.554714 69.010332 C 70.73806 68.607301 70.942241 68.264029 71.178368 68.005533 C 71.413106 67.738698 71.679791 67.563588 71.975645 67.495489 C 72.295111 67.419052 72.51457 67.616399 72.728474 67.799848 C 72.917375 67.95967 73.092387 68.119493 73.320181 68.043056 C 73.571587 67.966619 73.768822 67.731749 73.950779 67.403765 C 74.14107 67.060493 74.323027 66.618548 74.513317 66.132131 C 74.55082 66.032068 74.611935 65.90282 74.695274 65.751335 C 75.060577 65.080079 75.864798 63.946032 76.845421 63.108004 C 77.839933 62.254689 79.009457 61.705732 80.110921 62.215776 C 80.217873 62.261638 80.316491 62.315839 80.415108 62.383937 L 81.197106 62.89398 C 83.165296 64.197579 84.395935 65.003642 85.026534 65.088418 C 85.216824 65.110654 85.451563 65.07313 85.694635 64.988355 C 85.959931 64.89802 86.218282 64.753485 86.416906 64.578374 C 86.605808 64.417162 86.734983 64.235103 86.758596 64.07528 C 86.758596 64.029418 86.758596 63.990504 86.743317 63.946032 C 86.682202 63.732008 86.37107 63.587473 86.127998 63.480461 C 85.946041 63.397075 85.786308 63.328977 85.75575 63.221965 C 85.718247 63.099665 85.832144 62.985705 86.203003 62.856457 C 86.57525 62.734158 86.864159 62.666059 87.100286 62.604909 C 87.555873 62.497898 87.821168 62.436748 88.125356 62.07124 C 88.223974 61.957279 88.285089 61.880842 88.346204 61.804405 C 88.755954 61.309649 89.150426 60.830181 89.576844 60.517484 C 89.599067 60.502196 89.62268 60.486909 89.644904 60.471622 C 89.879642 60.320137 90.192163 60.265936 90.494962 60.366 C 90.792204 60.456334 91.096392 60.685645 91.346409 61.088677 C 91.383911 61.142878 91.414469 61.195689 91.445026 61.256838 C 91.756159 61.843319 91.878389 62.383937 91.968673 62.817543 C 92.029789 63.099665 92.083959 63.328977 92.167298 63.495748 C 92.272861 63.709772 92.265916 63.998843 92.189522 64.287914 C 92.097849 64.677048 91.893668 65.088418 91.733935 65.355253 C 91.626983 65.537312 91.300572 65.727709 90.92138 65.948682 C 90.244945 66.344765 89.386553 66.847859 89.29488 67.487151 C 89.189317 68.180643 89.69074 68.774072 90.137993 69.307742 C 90.336618 69.55234 90.525519 69.780261 90.654695 70.001234 C 90.838041 70.336167 90.981106 70.49599 91.088058 70.603002 C 91.210288 70.73225 91.285293 70.808687 91.300572 71.014372 C 91.315851 71.334018 91.035276 71.517467 90.936659 71.577226 L 90.936659 71.585565 C 90.936659 71.585565 90.799149 71.623089 90.617192 71.699526 C 90.761647 71.798199 90.906101 71.898262 91.011664 71.973309 C 91.825608 72.55979 92.167298 72.605652 92.227024 72.598703 C 92.402036 72.338817 92.500654 72.134522 92.599272 71.913549 C 92.736781 71.61614 92.896514 71.281207 93.253483 70.823974 C 93.472942 70.534903 93.488221 70.268069 93.511834 69.902561 C 93.534058 69.559289 93.549337 69.170155 93.746572 68.736549 C 94.057704 68.043056 94.688303 68.027769 95.106387 68.02082 C 95.189726 68.02082 95.296678 68.02082 95.373072 68.005533 C 95.417519 67.747037 95.342514 67.563588 95.145279 67.13693 C 95.091108 67.014631 95.038327 66.909009 94.99249 66.801997 C 94.757752 66.25304 94.817478 65.034217 95.189726 62.604909 L 95.213339 62.48261 C 95.250841 62.201878 95.395296 61.965618 95.623089 61.797457 C 95.798101 61.668208 96.010615 61.591771 96.268966 61.561197 C 96.474536 61.53896 96.702329 61.545909 96.930122 61.591771 C 97.499606 61.698783 97.970471 61.972567 98.191319 62.331126 C 98.32744 62.559047 98.776081 63.198339 99.253892 63.679197 C 99.565024 63.990504 99.770594 64.128091 99.899769 64.189241 C 100.005332 64.242052 100.052557 64.235103 100.052557 64.235103 C 100.272017 63.823733 100.537313 63.504087 100.834555 63.305351 C 101.070682 63.145528 101.342923 63.046854 101.601274 63.031567 C 101.86657 63.01628 102.141589 63.084378 102.369382 63.237252 C 102.573562 63.374839 102.755519 63.565236 102.893029 63.800107 C 103.030538 64.044705 103.083319 64.021079 103.120822 64.005792 C 103.363894 63.922406 103.75142 63.511036 104.062553 63.169154 C 104.77649 62.376988 105.172351 62.239401 105.772391 62.079579 C 105.976572 62.025378 106.204365 61.957279 106.501608 61.843319 C 106.8808 61.690445 107.169709 61.523673 107.458617 61.355512 C 107.96004 61.066441 108.422572 60.792657 109.090673 60.77737 C 109.212904 60.769031 109.3268 60.769031 109.440697 60.762082 C 110.154634 60.723169 110.785233 60.692594 111.582509 61.416661 C 112.024206 61.812744 112.639526 62.261638 113.163173 62.552098 C 113.80905 62.909268 114.08268 62.917606 114.142406 62.917606 C 114.735502 62.863406 115.836966 63.062142 116.566182 63.19139 L 116.656466 63.206677 C 116.778697 63.228914 116.885649 63.244201 116.960654 63.259488 C 117.07455 63.274776 117.302344 63.283114 117.728762 63.206677 C 118.002391 63.153866 118.306579 63.077429 118.677437 62.970417 C 118.898286 62.902319 119.233031 62.902319 119.688617 62.902319 C 120.720632 62.89398 122.29435 62.89398 123.555547 62.162964 C 124.169478 61.812744 124.784798 61.324937 125.386228 60.852417 C 126.715485 59.810094 128.097523 58.735806 129.829586 58.514834 C 130.922716 58.377247 132.001956 58.385586 133.028415 58.521783 C 133.900697 58.644082 134.561853 58.841428 134.971603 58.987354 C 135.511917 59.1847 135.875831 59.047113 136.431425 58.841428 L 136.674497 58.758042 C 137.060634 58.621846 137.577336 58.545409 138.070425 58.47592 C 138.534346 58.407822 139.028824 58.346672 139.424684 58.225763 C 139.583028 58.179901 139.749706 58.134038 139.916384 58.095125 C 140.616432 57.928353 141.223418 57.775479 141.733175 56.838778 C 141.899853 56.526081 142.105422 56.29816 142.341549 56.160573 C 142.629069 56.000751 142.948535 55.978514 143.259668 56.099424 C 143.494406 56.191148 143.716643 56.35931 143.920824 56.59557 C 144.216677 56.922164 144.459749 57.364109 144.512531 57.699042 C 144.536143 57.806054 144.65004 58.033975 144.825052 58.179901 C 144.877833 58.225763 144.930615 58.254948 144.983396 58.270235 C 145.030622 58.285523 145.075069 58.285523 145.120905 58.278574 C 145.258415 58.247999 145.416759 58.110412 145.569547 57.88944 C 145.865401 57.462782 145.872346 57.257097 145.880679 57.044463 C 145.895958 56.442695 146.062636 56.077188 146.997422 55.451794 C 147.339112 55.223872 148.24334 54.622105 148.73643 55.505994 C 148.797545 55.613006 148.843381 55.726967 148.880884 55.847876 C 148.979502 56.114711 149.018393 56.160573 149.093398 56.175861 C 149.305913 56.221723 149.404531 56.129999 149.655937 55.757542 C 149.846227 55.482368 150.074021 55.140487 150.475437 55.018187 C 150.879631 54.895888 151.357441 54.972325 151.836641 55.23916 C 152.283893 55.482368 152.693644 55.871502 152.953383 56.305109 C 153.082559 56.519133 153.302018 56.685904 153.590927 56.801255 C 153.932617 56.930503 154.381259 56.991652 154.882682 56.983314 C 155.338268 56.976365 155.695237 57.090326 156.028593 57.188999 C 156.378617 57.296011 156.60641 57.35716 156.705028 57.272385 C 156.856427 57.127849 156.993937 56.845727 157.116167 56.571944 C 157.63148 55.429557 158.459314 55.094624 159.44827 55.613006 C 160.859478 56.35931 160.913648 57.326585 160.534455 58.635743 C 160.481674 58.834479 160.420559 59.047113 160.420559 59.147176 C 160.420559 59.116602 160.481674 59.215275 160.602516 59.313948 C 160.701134 59.398724 160.823364 59.466822 160.935872 59.512684 C 161.042823 59.550208 161.110884 59.550208 161.148386 59.534921 C 161.240059 59.368149 161.29284 59.230562 161.338677 59.116602 C 161.581749 58.514834 161.77204 58.049263 162.729049 57.615656 C 163.412429 57.311298 164.331936 57.296011 164.95559 57.333534 C 164.947256 57.24181 164.947256 57.197337 164.940311 57.158424 Z M 164.940311 57.158424 " stroke="rgb(100%, 100%, 100%)" stroke-width="0.2" stroke-opacity="1" stroke-miterlimit="10"/></svg>