<svg xmlns="http://www.w3.org/2000/svg" xmlns:xlink="http://www.w3.org/1999/xlink" width="624" zoomAndPan="magnify" viewBox="0 0 468 308.250004" height="411" preserveAspectRatio="xMidYMid meet" version="1.0"><defs><clipPath id="id1"><path d="M 0.566406 0 L 467.429688 0 L 467.429688 307.5 L 0.566406 307.5 Z M 0.566406 0 " clip-rule="nonzero"/></clipPath></defs><g clip-path="url(#id1)"><path fill="rgb(100%, 100%, 100%)" d="M 0.566406 0 L 467.433594 0 L 467.433594 307.5 L 0.566406 307.5 Z M 0.566406 0 " fill-opacity="1" fill-rule="nonzero"/><path fill="rgb(100%, 100%, 100%)" d="M 0.566406 0 L 467.433594 0 L 467.433594 307.5 L 0.566406 307.5 Z M 0.566406 0 " fill-opacity="1" fill-rule="nonzero"/><path fill="rgb(100%, 100%, 100%)" d="M 0.566406 0 L 467.433594 0 L 467.433594 307.5 L 0.566406 307.5 Z M 0.566406 0 " fill-opacity="1" fill-rule="nonzero"/></g><path stroke-linecap="butt" transform="matrix(3.155315, 0, 0, 3.158245, 66.06042, 0.00000997573)" fill-opacity="1" fill="rgb(17.248535%, 44.309998%, 94.119263%)" fill-rule="evenodd" stroke-linejoin="round" d="M 37.65909 52.899734 C 39.519789 52.319655 39.649778 51.090234 39.759959 50.339471 C 39.889948 49.589945 39.228862 48.089655 37.81879 48.799602 C 36.419861 49.519445 35.339096 48.870102 34.838948 49.759392 C 34.349941 50.649918 34.349941 51.06055 34.929321 51.540445 C 35.529746 52.020339 35.849148 52.120524 36.149979 52.490339 C 36.479285 52.87005 37.65909 52.899734 37.65909 52.899734 Z M 37.65909 52.899734 " stroke="rgb(100%, 100%, 100%)" stroke-width="0.2" stroke-opacity="1" stroke-miterlimit="10"/><path stroke-linecap="butt" transform="matrix(3.155315, 0, 0, 3.158245, 66.06042, 0.00000997573)" fill-opacity="1" fill="rgb(17.248535%, 44.309998%, 94.119263%)" fill-rule="nonzero" stroke-linejoin="round" d="M 11.158667 68.149997 C 15.188326 73.290313 19.648805 78.480103 20.198473 78.989682 C 20.509209 79.280339 20.87813 79.780024 21.398086 80.470182 C 22.969095 82.600024 25.588683 86.149761 29.228375 87.400208 C 32.268879 88.450287 44.018646 90.430471 61.489167 92.82005 L 62.938854 93.030313 C 75.848618 94.849708 79.43879 94.839813 80.189012 94.530603 C 80.97885 94.190471 81.498806 93.939392 81.868965 93.740261 C 81.849158 93.209655 81.849158 92.680287 81.908581 92.180603 C 82.028666 90.989524 82.128943 89.860287 82.229221 88.769392 C 82.759081 82.87955 83.218375 77.789945 86.089275 70.509892 C 88.268138 65.009655 88.108437 64.470392 87.868267 63.640471 C 87.708566 63.109866 87.498108 62.390024 87.498108 61.070313 C 87.498108 59.45005 87.758086 57.300418 90.048368 57.300418 C 90.359104 57.300418 90.698313 57.339997 91.068472 57.389471 C 91.529005 57.450076 91.988299 57.509445 92.488447 57.469866 L 92.858606 57.440181 C 93.858903 57.359787 95.369251 57.249708 96.088523 56.769813 C 96.328694 56.61026 96.358405 56.480392 96.378213 56.360418 C 96.399259 56.169945 96.348501 55.719734 95.879303 54.879918 C 94.918622 53.170602 94.128785 53.210181 93.368658 53.24976 C 93.148296 53.24976 92.958884 53.259655 92.778137 53.24976 C 92.588724 53.229971 91.978395 53.190392 91.538909 52.649892 C 91.08828 52.089602 91.078376 51.310392 91.108088 50.779787 C 91.158846 49.819997 91.068472 48.559655 90.938483 47.100181 C 90.729263 44.539918 90.448239 41.359997 90.778782 37.36005 C 90.978099 34.770102 91.588428 32.719418 92.488447 31.619865 C 92.908126 31.100392 93.408274 30.770155 93.92823 30.660076 C 94.518752 30.540102 95.119177 30.699655 95.608183 31.120181 C 96.298982 31.70026 96.789226 32.770129 97.0393 34.219708 C 97.338894 35.93026 97.768476 36.689681 97.988839 37.000129 C 98.118828 37.169576 98.209201 37.230181 98.238913 37.240076 C 98.428325 37.110208 98.748965 36.809655 99.168644 35.900576 C 99.598226 34.93955 100.109516 34.079944 100.678992 33.340313 C 101.238564 32.58955 102.299521 31.930313 103.329529 31.309418 C 103.48923 31.210471 103.619219 31.139971 103.69845 31.069471 C 103.69845 30.809734 103.709592 30.540102 103.709592 30.249444 C 103.769016 28.260602 103.589507 25.749813 103.268868 23.429497 C 102.969274 21.230392 102.52855 19.199497 102.039543 17.930497 C 101.679288 17.000392 101.299225 16.019576 101.019439 14.990523 C 100.468533 14.990523 98.568218 14.880444 97.548114 13.659681 C 96.698853 12.629392 96.648095 10.300418 96.618383 8.310339 C 96.608479 7.539786 96.588672 6.819944 96.539152 6.24976 C 96.378213 4.760602 95.889207 2.190444 95.649037 1.000602 C 95.54876 1.329602 95.46829 1.669734 95.458386 2.009865 C 95.22812 4.83976 95.078323 5.230602 93.92823 7.960313 L 93.468936 9.040076 C 92.689002 10.939865 91.369304 12.619497 89.858956 14.099997 C 88.328799 15.570602 86.619135 16.849497 84.998605 17.970076 C 82.778888 19.509944 82.048474 21.260076 81.26854 23.140076 C 80.939235 23.950208 80.598787 24.790023 80.118447 25.649629 C 79.318705 27.100444 78.109189 28.540129 76.718925 29.930339 C 75.34847 31.32055 73.778698 32.669944 72.238638 33.940181 C 70.72829 35.210418 69.61905 36.280287 68.728935 37.450339 C 67.848724 38.610497 67.188875 39.879497 66.618162 41.550471 C 66.168771 42.860287 65.948409 44.280181 65.739188 45.650602 C 65.418549 47.800234 65.099147 49.859576 63.908201 51.44026 C 62.578599 53.200287 60.308124 54.18976 58.488278 54.980102 C 57.609305 55.359813 56.828133 55.69005 56.339127 56.040076 C 55.638425 56.519971 54.108268 56.779708 52.329276 56.899681 C 49.928813 57.060471 47.028201 56.960287 45.08827 56.799497 C 43.118627 56.649839 42.00815 56.360418 40.848153 56.059866 C 40.038507 55.849602 39.178104 55.629445 37.968587 55.440208 C 37.068568 55.300445 35.678305 55.259629 34.118437 55.22005 C 30.518361 55.109971 26.039312 54.980102 24.558675 53.570102 C 23.128796 52.199681 22.108692 52.960339 21.348566 53.910234 L 21.348566 53.920129 C 21.138108 54.160076 20.958599 54.429708 20.788994 54.669655 L 20.649101 54.870024 C 20.188569 55.509471 18.99886 56.390102 17.679162 57.259602 C 16.358227 58.120445 14.918444 58.96026 13.929289 59.530445 C 13.708927 59.660313 13.448949 59.760497 13.169163 59.819866 C 12.168867 60.059813 10.938305 59.859445 9.829065 59.400576 C 8.738396 58.940471 7.778953 58.189708 7.348132 57.339997 C 7.268901 57.159418 7.198336 56.970181 7.15872 56.779708 C 6.878934 55.389497 6.209181 54.179866 5.388394 52.679576 C 4.998427 51.979524 4.578748 51.220102 4.128119 50.329576 C 3.46827 48.999971 2.878987 48.370418 2.349127 48.260339 C 1.858883 48.15026 1.378543 48.529971 0.939056 49.210234 C 0.929152 49.239918 0.898202 49.259708 0.888298 49.289392 C 1.808125 51.580024 4.448759 57.829787 5.969011 60.86005 C 6.418402 61.72955 7.668772 63.689945 11.158667 68.149997 Z M 11.158667 68.149997 " stroke="rgb(100%, 100%, 100%)" stroke-width="0.2" stroke-opacity="1" stroke-miterlimit="10"/><path stroke-linecap="butt" transform="matrix(3.155315, 0, 0, 3.158245, 66.06042, 0.00000997573)" fill-opacity="1" fill="rgb(17.248535%, 44.309998%, 94.119263%)" fill-rule="nonzero" stroke-linejoin="round" d="M 50.878351 52.419839 C 50.718651 51.599813 49.878055 51.91026 49.22811 52.050024 C 48.568261 52.189787 46.898212 53.039497 46.138086 53.829839 C 46.138086 53.829839 45.8583 54.439602 46.138086 54.639971 C 46.417872 54.850234 47.217614 54.710471 47.73757 54.67955 C 48.268668 54.639971 48.467984 54.510102 49.27763 54.270155 C 50.098417 54.030208 50.128129 54.199655 50.47848 54.409918 C 51.577816 55.060497 56.698144 54.830445 53.017599 54.030208 C 52.708101 53.959708 51.038052 53.239866 50.878351 52.419839 Z M 50.878351 52.419839 " stroke="rgb(100%, 100%, 100%)" stroke-width="0.2" stroke-opacity="1" stroke-miterlimit="10"/></svg>