<svg xmlns="http://www.w3.org/2000/svg" xmlns:xlink="http://www.w3.org/1999/xlink" width="624" zoomAndPan="magnify" viewBox="0 0 468 308.250004" height="411" preserveAspectRatio="xMidYMid meet" version="1.0"><defs><clipPath id="id1"><path d="M 0.566406 0 L 467.429688 0 L 467.429688 307.5 L 0.566406 307.5 Z M 0.566406 0 " clip-rule="nonzero"/></clipPath><clipPath id="id2"><path d="M 1 19 L 467.429688 19 L 467.429688 288.910156 L 1 288.910156 Z M 1 19 " clip-rule="nonzero"/></clipPath></defs><g clip-path="url(#id1)"><path fill="rgb(100%, 100%, 100%)" d="M 0.566406 0 L 467.433594 0 L 467.433594 314.984375 L 0.566406 314.984375 Z M 0.566406 0 " fill-opacity="1" fill-rule="nonzero"/><path fill="rgb(100%, 100%, 100%)" d="M 0.566406 0 L 467.433594 0 L 467.433594 307.5 L 0.566406 307.5 Z M 0.566406 0 " fill-opacity="1" fill-rule="nonzero"/><path fill="rgb(100%, 100%, 100%)" d="M 0.566406 0 L 467.433594 0 L 467.433594 307.5 L 0.566406 307.5 Z M 0.566406 0 " fill-opacity="1" fill-rule="nonzero"/><path fill="rgb(100%, 100%, 100%)" d="M 0.566406 0 L 467.433594 0 L 467.433594 307.5 L 0.566406 307.5 Z M 0.566406 0 " fill-opacity="1" fill-rule="nonzero"/></g><g clip-path="url(#id2)"><path stroke-linecap="butt" transform="matrix(0.89953, 0, 0, 0.900309, 0.571933, 18.819105)" fill-opacity="1" fill="rgb(17.248535%, 44.309998%, 94.119263%)" fill-rule="nonzero" stroke-linejoin="round" d="M 180.153029 249.299305 C 186.94477 249.130093 187.114129 249.047656 191.695514 246.748099 C 193.22409 245.984473 194.665815 245.216508 196.61996 244.366106 C 202.899281 241.389698 211.723333 239.944883 219.61808 240.539296 C 225.219963 240.964497 233.110368 242.665301 238.712251 248.27969 C 241.682552 251.173661 242.872409 250.323259 243.467338 249.980495 C 244.483494 249.386081 246.012069 247.685277 247.961872 243.515703 C 248.895519 241.558911 250.341587 239.858107 252.5476 238.413291 C 255.68726 236.282947 259.929927 234.838132 264.341953 234.499706 C 269.435758 234.074505 274.355862 235.09412 278.68538 237.476113 C 282.758687 239.771331 286.154557 243.177278 288.699289 247.598501 C 293.198166 255.425671 301.006062 264.272456 309.491395 271.505212 C 317.468651 278.225991 325.276547 282.564777 330.709071 283.415179 C 341.574119 285.115983 345.304365 290.730372 348.105307 294.81317 C 349.464524 296.943514 350.31132 298.049904 351.588028 298.557542 C 353.9634 299.49472 354.38897 299.325507 358.800996 294.218756 C 359.986511 292.856377 361.258876 291.329125 362.787452 289.710758 C 366.947611 285.285196 372.037074 282.308789 378.572604 280.438772 C 384.174487 278.820405 390.879377 277.970003 401.149497 277.544802 C 412.77449 277.037164 419.566231 277.80079 424.998755 278.312767 C 428.051564 278.651192 430.596296 278.907181 433.484088 278.907181 C 438.916612 278.907181 450.624114 277.80079 459.708719 275.249584 C 468.450262 272.780815 470.825634 270.312046 471.420563 269.379207 C 472.523569 267.760839 473.457217 266.316024 474.221505 265.040421 C 478.716039 257.638452 481.860042 253.21289 494.162472 248.96088 C 502.821507 245.984473 511.984278 249.047656 518.267941 252.024063 C 527.34386 256.362849 536.341614 263.93403 540.58428 270.737247 C 544.826947 277.631578 548.222817 278.056779 559.170374 279.419157 L 563.756101 280.013571 C 567.998768 280.607985 572.410794 280.777197 576.653461 280.863973 C 587.944078 281.202398 598.466065 281.545162 603.04745 289.797533 C 603.898589 291.329125 605.679033 292.773941 607.715686 293.624343 C 609.244262 294.305532 610.855347 294.643957 612.297072 294.56152 C 613.743139 294.56152 615.098013 294.131981 616.20102 293.368354 C 617.560236 292.431176 618.580735 290.986361 619.34068 289.029568 C 621.464185 283.245967 621.551035 279.332382 619.59689 275.332021 C 617.221518 270.485597 611.788994 265.040421 602.452522 258.150429 C 596.260052 253.638091 590.827528 250.323259 586.498011 247.685277 C 575.976024 241.302923 568.250636 236.708148 570.204781 224.971732 C 571.733357 215.356983 576.82282 212.211363 580.557409 209.911806 C 582.342195 208.805416 584.205147 207.872577 585.989933 207.104612 L 586.584862 206.167434 L 588.026587 205.998221 C 588.621515 205.742233 589.468312 205.490583 591.166247 205.147819 C 591.848026 204.891831 592.607972 204.722618 593.289751 204.46663 C 592.186745 203.616228 591.083738 202.596613 589.976389 201.576998 C 586.92358 198.513816 583.697069 195.53307 577.5046 194.431018 C 575.381095 194.088254 572.749513 193.749829 570.035422 193.407064 C 558.236727 192.049024 549.751393 190.686646 546.186164 186.091871 C 544.40572 183.796654 543.554581 182.095849 542.790293 180.646695 C 541.774138 178.607466 541.179209 177.414299 538.208908 175.37507 C 536.510973 174.181904 532.950086 173.162289 529.554215 172.142674 C 522.254397 170.012331 514.107782 167.717113 512.579206 161.334759 C 511.306841 155.976358 513.426003 151.381584 515.888226 146.109959 C 517.503653 142.621575 519.540306 138.365226 520.89518 133.093601 C 521.233899 131.817998 520.89518 131.219245 520.725821 130.88082 C 518.094239 127.136448 504.093873 127.730861 495.777899 128.073625 C 490.514734 128.242838 486.185217 128.498826 483.301767 128.073625 C 476.171307 127.054011 474.390864 123.140426 472.692929 119.396053 C 471.589922 116.927284 470.400065 114.376078 467.516615 111.824872 C 463.017738 107.824511 454.871123 105.442518 448.591803 106.123707 C 445.70401 106.466471 443.580506 107.39931 442.477499 108.761689 L 441.035774 110.800919 C 437.388036 115.90767 434.669603 119.226841 431.360584 119.226841 C 428.646493 118.970852 426.779198 117.183273 425.419982 114.037653 C 421.854752 105.954495 411.840843 97.020934 406.664529 99.402928 L 406.0696 99.658916 C 398.687273 102.978087 384.769416 109.18689 372.210775 120.077243 C 364.146669 127.054011 357.697989 126.372821 353.794041 124.498466 C 347.42787 121.608834 343.015844 113.4389 341.912838 102.722099 C 341.14855 95.233354 336.310954 93.875314 323.665463 92.17451 C 315.349489 91.06812 305.926166 89.874954 296.763395 84.516553 L 294.896101 83.410163 C 274.86394 71.925396 268.076542 68.011811 260.524856 60.184641 C 252.799468 52.101483 249.746658 51.337857 243.549846 55.676643 C 237.696095 59.75944 230.904355 55.50743 224.881245 51.763058 C 221.316015 49.550277 216.560928 46.487094 213.082549 46.660646 C 208.244954 46.829858 203.576718 47.762697 199.50341 48.617438 C 195.855672 49.381064 192.716012 49.975478 189.745711 50.062254 L 187.20098 50.144691 C 178.372585 50.656668 158.765994 51.763058 144.934987 46.660646 C 141.369758 45.298267 136.275952 43.510687 130.422201 41.471458 C 111.158671 34.577127 84.934041 25.218365 76.700575 20.883918 L 73.647766 19.265551 C 64.736863 14.501564 52.512598 7.949997 46.915057 12.375559 C 43.688546 14.926765 39.953957 15.94638 36.219368 15.26519 C 30.786844 14.245576 26.374819 10.076002 24.255656 6.76117 C 23.743236 5.910768 23.235158 5.060366 22.809589 4.379176 C 21.111654 1.315994 20.690427 0.548028 13.816178 1.229218 C 6.60321 1.910407 4.905275 7.780785 2.356201 17.903172 C 1.934974 19.690752 1.509405 21.478332 1.001327 23.179136 C 7.280647 27.77391 14.919184 33.219087 21.285356 37.215109 C 32.146061 44.105101 55.400391 52.61346 70.082536 58.058636 C 73.222196 59.165027 76.023138 60.184641 78.1423 61.035044 C 85.016549 63.58625 99.785545 73.6262 113.195325 85.110967 C 123.804163 94.126964 133.648713 104.25369 138.230098 112.506061 C 143.237052 121.352846 144.1707 127.561649 145.021838 133.518802 C 146.037994 140.06603 146.971641 146.192396 153.676531 155.125956 C 156.903042 159.464742 159.530282 162.86635 161.736295 165.591108 C 168.189317 173.669927 170.820899 177.075874 173.621841 187.541026 C 175.489135 194.513455 175.402285 204.809394 174.043068 214.675793 C 172.683851 224.798181 169.887252 234.412931 166.491382 239.432906 C 165.813945 240.370084 165.388375 241.302923 165.132165 242.153325 C 167.25567 244.02768 171.072767 247.004087 172.093265 247.516064 C 174.468637 248.791667 177.352087 249.299305 180.153029 249.299305 Z M 180.153029 249.299305 " stroke="rgb(100%, 100%, 100%)" stroke-width="0.5" stroke-opacity="1" stroke-miterlimit="10"/></g></svg>