<svg xmlns="http://www.w3.org/2000/svg" xmlns:xlink="http://www.w3.org/1999/xlink" width="624" zoomAndPan="magnify" viewBox="0 0 468 308.250004" height="411" preserveAspectRatio="xMidYMid meet" version="1.0"><defs><clipPath id="id1"><path d="M 0.566406 0 L 467.429688 0 L 467.429688 307.5 L 0.566406 307.5 Z M 0.566406 0 " clip-rule="nonzero"/></clipPath><clipPath id="id2"><path d="M 12.082031 185 L 152 185 L 152 307.5 L 12.082031 307.5 Z M 12.082031 185 " clip-rule="nonzero"/></clipPath><clipPath id="id3"><path d="M 414 7 L 452.757812 7 L 452.757812 68 L 414 68 Z M 414 7 " clip-rule="nonzero"/></clipPath></defs><g clip-path="url(#id1)"><path fill="rgb(100%, 100%, 100%)" d="M 0.566406 0 L 467.433594 0 L 467.433594 307.5 L 0.566406 307.5 Z M 0.566406 0 " fill-opacity="1" fill-rule="nonzero"/><path fill="rgb(100%, 100%, 100%)" d="M 0.566406 0 L 467.433594 0 L 467.433594 307.5 L 0.566406 307.5 Z M 0.566406 0 " fill-opacity="1" fill-rule="nonzero"/><path fill="rgb(100%, 100%, 100%)" d="M 0.566406 0 L 467.433594 0 L 467.433594 307.5 L 0.566406 307.5 Z M 0.566406 0 " fill-opacity="1" fill-rule="nonzero"/></g><path fill="rgb(17.248535%, 44.309998%, 94.119263%)" d="M 71.261719 195.757812 L 72.46875 199.304688 L 73.742188 198.058594 L 77.714844 199.050781 L 77.359375 200.707031 L 80.914062 202.382812 L 83.464844 201.921875 L 88.402344 204.667969 L 93.085938 205.667969 L 94.941406 206.707031 L 98.277344 205.664062 L 101.984375 207.929688 L 104.683594 208.964844 L 104.5625 235.023438 L 104.390625 272.828125 L 107.542969 273.015625 L 110.699219 274.757812 L 113.019531 277.53125 L 116.058594 281.644531 L 119.105469 277.941406 L 122.257812 275.699219 L 124.179688 278.910156 L 126.566406 281.375 L 129.8125 284.015625 L 132.289062 288.375 L 136.441406 295.207031 L 142.761719 298.539062 L 143.316406 302.433594 L 141.683594 305.640625 L 139.480469 303.527344 L 136.171875 301.859375 L 134.671875 296.523438 L 129.808594 291.835938 L 127.542969 286.015625 L 124.300781 285.824219 L 118.96875 285.949219 L 114.992188 284.265625 L 108.050781 277.769531 L 104.933594 276.5625 L 99.308594 274.195312 L 94.832031 274.617188 L 88.667969 271.355469 L 85.078125 268.355469 L 81.464844 269.449219 L 81.753906 273.976562 L 79.941406 274.238281 L 76.082031 275.222656 L 73.003906 277.074219 L 69.238281 278.003906 L 69.238281 274.195312 L 71.433594 268.085938 L 75 266.480469 L 74.316406 264.761719 L 69.898438 267.886719 L 67.1875 271.878906 L 61.910156 275.75 L 63.851562 279.164062 L 60.078125 283.238281 L 56.085938 285.296875 L 52.414062 286.632812 L 51.097656 289.234375 L 45.203125 291.441406 L 43.554688 294.113281 L 38.980469 295.902344 L 36.714844 294.921875 L 33.109375 295.890625 L 29.105469 297.121094 L 25.714844 298.421875 L 19.28125 298.566406 L 19.011719 297.414062 L 23.550781 295.621094 L 27.402344 294.628906 L 31.863281 292.203125 L 36.265625 292.488281 L 38.496094 290.351562 L 43.953125 287.648438 L 44.949219 286.5625 L 47.84375 284.855469 L 49.308594 280.238281 L 51.65625 276.847656 L 47.542969 278.039062 L 46.703125 276.753906 L 44.480469 278.667969 L 43.019531 275.058594 L 41.664062 277.109375 L 41.136719 273.738281 L 37.347656 275.503906 L 35.367188 275.027344 L 35.976562 271.261719 L 37.101562 269.113281 L 35.613281 266.394531 L 31.234375 266.558594 L 29.382812 262.933594 L 27.683594 260.859375 L 28.65625 257.316406 L 27.089844 253.988281 L 29.277344 250.703125 L 32.664062 247.832031 L 34.589844 244.835938 L 37.058594 244.988281 L 38.789062 246.527344 L 41.898438 243.996094 L 43.867188 245.054688 L 46.527344 243.542969 L 46.671875 240.441406 L 45.355469 238.898438 L 48.027344 236.84375 L 46.285156 236.523438 L 42.964844 237.242188 L 41.75 238.46875 L 39.894531 236.46875 L 35.738281 236.144531 L 32.101562 233.4375 L 31.710938 230.488281 L 29.433594 225.664062 L 34.027344 224.070312 L 40.867188 222.507812 L 43.050781 223.085938 L 41.820312 226.3125 L 47.578125 227.46875 L 46.402344 222.796875 L 43.808594 219.417969 L 42.851562 215.566406 L 41.191406 212.007812 L 38.347656 208.875 L 40.777344 205.714844 L 45.222656 206.710938 L 49.152344 204.371094 L 50.585938 201.117188 L 53.859375 198.371094 L 56.371094 198.101562 L 61.550781 195.894531 L 63.625 196.8125 L 67.960938 193.625 Z M 15.511719 234.433594 L 16.8125 236.238281 L 18.78125 236.191406 L 20.496094 238.625 L 23.039062 240.382812 L 22.585938 241 L 19.988281 241.628906 L 18.277344 239.539062 L 17.585938 238.03125 L 14.976562 237.53125 L 14.5 236.738281 Z M 25.9375 264.371094 L 23.753906 264.785156 L 22.054688 263.035156 L 20.6875 260.796875 L 24.035156 260.640625 L 26.316406 261.902344 Z M 63.265625 290.285156 L 59.527344 292.171875 L 58.027344 290.304688 L 57.957031 287.304688 L 61.339844 285.539062 L 63.257812 284.839844 L 65.414062 285.5625 L 66.585938 287.695312 Z M 63.265625 290.285156 " fill-opacity="1" fill-rule="nonzero"/><g clip-path="url(#id2)"><path stroke-linecap="butt" transform="matrix(2.720233, 0, 0, 2.721243, 12.081978, 0.000659437)" fill="none" stroke-linejoin="miter" d="M 21.755393 71.936656 L 22.199117 73.240059 L 22.667252 72.782145 L 24.127663 73.146753 L 23.996987 73.755391 L 25.303745 74.371205 L 26.241452 74.20182 L 28.056554 75.210952 L 29.778316 75.578431 L 30.460415 75.960265 L 31.686758 75.576996 L 33.04952 76.409566 L 34.041795 76.789964 L 33.997279 86.365952 L 33.934095 100.258383 L 35.092945 100.327285 L 36.253232 100.967503 L 37.106215 101.986683 L 38.223422 103.498228 L 39.3435 102.137407 L 40.502351 101.31345 L 41.208862 102.493402 L 42.086257 103.399181 L 43.279572 104.369555 L 44.189994 105.971534 L 45.716461 108.482163 L 48.039906 109.706614 L 48.243818 111.137773 L 47.64357 112.31629 L 46.833667 111.539703 L 45.617377 110.92676 L 45.065953 108.965914 L 43.278136 107.243356 L 42.445257 105.104513 L 41.253378 105.034176 L 39.29324 105.08011 L 37.831394 104.461425 L 35.279625 102.074246 L 34.133699 101.630688 L 32.065861 100.760796 L 30.420207 100.915826 L 28.154202 99.717213 L 26.834519 98.614776 L 25.506221 99.016706 L 25.612485 100.68041 L 24.946182 100.776586 L 23.527415 101.138323 L 22.395849 101.818734 L 21.011546 102.160374 L 21.011546 100.760796 L 21.818577 98.515728 L 23.129644 97.925752 L 22.878344 97.294148 L 21.25423 98.44252 L 20.257647 99.909565 L 18.317614 101.332111 L 19.031305 102.586707 L 17.64413 104.083898 L 16.17654 104.840388 L 14.826702 105.331317 L 14.34277 106.287337 L 12.175849 107.098374 L 11.569858 108.080232 L 9.888304 108.737676 L 9.055425 108.377374 L 7.729998 108.733369 L 6.2581 109.185541 L 5.011654 109.663551 L 2.646564 109.716663 L 2.547481 109.293201 L 4.216111 108.634322 L 5.632005 108.269714 L 7.271915 107.37829 L 8.890285 107.483079 L 9.71024 106.69788 L 11.71633 105.704538 L 12.082509 105.305478 L 13.146584 104.67818 L 13.685083 102.98146 L 14.548118 101.735477 L 13.036012 102.173294 L 12.727272 101.701026 L 11.910189 102.404403 L 11.373126 101.078034 L 10.874835 101.831653 L 10.680975 100.592846 L 9.288056 101.241677 L 8.560005 101.06655 L 8.784021 99.682762 L 9.197589 98.893256 L 8.650473 97.894172 L 7.040719 97.954462 L 6.360056 96.62235 L 5.735397 95.860118 L 6.09296 94.558151 L 5.517125 93.335135 L 6.321284 92.127909 L 7.566295 91.072842 L 8.274242 89.97184 L 9.181793 90.027823 L 9.81794 90.593396 L 10.960994 89.663215 L 11.684738 90.052226 L 12.662652 89.496701 L 12.715784 88.356942 L 12.231853 87.789933 L 13.214076 87.034878 L 12.573621 86.91717 L 11.353022 87.181296 L 10.906427 87.632032 L 10.224327 86.897074 L 8.696425 86.77793 L 7.359511 85.783153 L 7.215911 84.699377 L 6.378724 82.926577 L 8.067458 82.340908 L 10.581891 81.766721 L 11.384614 81.97917 L 10.932275 83.164865 L 13.048936 83.589762 L 12.6167 81.872946 L 11.663198 80.631269 L 11.311378 79.2159 L 10.701079 77.908191 L 9.655672 76.756948 L 10.548863 75.595657 L 12.183029 75.961701 L 13.627643 75.101857 L 14.154655 73.906115 L 15.358021 72.896983 L 16.281368 72.797935 L 18.185502 71.986898 L 18.948017 72.324232 L 20.541975 71.152892 Z M 1.260826 86.149196 L 1.739014 86.812381 L 2.462757 86.795156 L 3.09316 87.689451 L 4.027995 88.33541 L 3.861419 88.562213 L 2.90648 88.793323 L 2.277513 88.025349 L 2.023341 87.47126 L 1.064094 87.28752 L 0.888903 86.996121 Z M 5.093506 97.150601 L 4.290782 97.30276 L 3.666123 96.659672 L 3.163524 95.837151 L 4.394174 95.779732 L 5.232797 96.243387 Z M 18.815905 106.673477 L 17.441655 107.366806 L 16.890231 106.680654 L 16.864383 105.578217 L 18.107958 104.929387 L 18.813033 104.672438 L 19.605704 104.937999 L 20.036504 105.721763 Z M 18.815905 106.673477 " stroke="rgb(100%, 100%, 100%)" stroke-width="0.5" stroke-opacity="1" stroke-miterlimit="4"/></g><path stroke-linecap="butt" transform="matrix(2.720233, 0, 0, 2.721243, 12.081978, 0.000659437)" fill-opacity="1" fill="rgb(17.248535%, 44.309998%, 94.119263%)" fill-rule="nonzero" stroke-linejoin="miter" d="M 119.40184 57.653779 L 120.658338 61.90132 L 121.765493 65.293324 L 122.32266 66.336907 L 122.658684 66.93119 L 122.242244 67.604423 L 122.209216 68.739876 L 122.450464 69.380093 L 122.450464 70.008827 L 122.43754 70.594497 L 122.68166 71.019394 L 122.8827 71.415583 L 116.706471 72.117525 L 114.991889 72.483569 L 114.968913 72.756307 L 115.74148 73.547248 L 115.64814 74.257803 L 115.471513 74.761652 L 112.72014 74.610928 L 112.175897 69.240853 L 112.226156 63.58512 L 112.352524 59.000245 L 112.088301 58.339931 L 115.70558 58.004032 Z M 119.40184 57.653779 " stroke="rgb(100%, 100%, 100%)" stroke-width="0.5" stroke-opacity="1" stroke-miterlimit="4"/><path stroke-linecap="butt" transform="matrix(2.720233, 0, 0, 2.721243, 12.081978, 0.000659437)" fill-opacity="1" fill="rgb(17.248535%, 44.309998%, 94.119263%)" fill-rule="nonzero" stroke-linejoin="miter" d="M 107.52757 55.092909 L 107.517518 55.385744 L 107.263346 55.898205 L 106.785159 56.272861 L 106.713359 56.859966 L 106.28974 57.350895 L 106.39026 58.36864 L 106.082956 58.716023 L 106.04562 58.997374 L 105.545893 59.291644 L 105.565997 59.799799 L 105.235717 60.76156 L 104.911181 60.981187 L 104.422942 61.489341 L 104.15441 62.230041 L 103.581447 63.49038 L 103.558471 64.32582 L 103.947626 65.231599 L 103.841363 65.93067 L 101.332674 65.933541 L 98.09737 66.174699 L 95.231117 66.243602 L 95.360357 64.242563 L 94.678258 64.242563 L 94.10673 64.299982 L 93.948771 64.073178 L 93.980362 60.995541 L 93.983234 57.577699 L 93.357139 53.87707 L 96.799227 53.852667 L 99.929703 53.75362 L 102.91658 53.615815 L 106.149012 53.641654 L 106.414671 54.059374 L 106.11742 54.456998 L 105.824476 54.856057 L 105.670824 55.214923 Z M 107.52757 55.092909 " stroke="rgb(100%, 100%, 100%)" stroke-width="0.5" stroke-opacity="1" stroke-miterlimit="4"/><path stroke-linecap="butt" transform="matrix(2.720233, 0, 0, 2.721243, 12.081978, 0.000659437)" fill-opacity="1" fill="rgb(17.248535%, 44.309998%, 94.119263%)" fill-rule="nonzero" stroke-linejoin="miter" d="M 52.902196 49.665415 L 50.057483 69.370045 L 44.121067 68.464266 L 37.784006 64.799524 L 33.689975 62.224299 L 34.096363 61.618533 L 34.482646 61.703226 L 34.946474 61.080234 L 34.532906 60.49887 L 34.537214 59.960571 L 34.514238 59.321789 L 35.240853 58.648556 L 35.793713 57.11835 L 36.807527 56.588663 L 36.40114 55.816383 L 36.167072 55.092909 L 36.0565 54.441208 L 35.997624 53.943101 L 36.004804 53.622992 L 36.317852 52.985646 L 36.319288 52.283704 L 36.399704 51.604729 L 36.554792 50.865464 L 36.404012 50.342955 L 36.682595 49.95825 L 37.269919 50.078829 L 37.755286 50.433389 L 38.107106 50.647273 L 38.398613 50.159215 L 38.542213 50.070216 L 39.079277 47.298333 L 43.545231 48.102194 L 48.869913 49.023762 Z M 52.902196 49.665415 " stroke="rgb(100%, 100%, 100%)" stroke-width="0.5" stroke-opacity="1" stroke-miterlimit="4"/><path stroke-linecap="butt" transform="matrix(2.720233, 0, 0, 2.721243, 12.081978, 0.000659437)" fill-opacity="1" fill="rgb(17.248535%, 44.309998%, 94.119263%)" fill-rule="nonzero" stroke-linejoin="miter" d="M 27.314143 26.524282 L 24.565642 36.677327 L 28.418425 42.568476 L 32.253977 48.248611 L 36.004804 53.624428 L 35.997624 53.944537 L 36.0565 54.441208 L 36.167072 55.092909 L 36.402576 55.816383 L 36.807527 56.588663 L 35.793713 57.11835 L 35.240853 58.648556 L 34.514238 59.321789 L 34.537214 59.960571 L 34.532906 60.49887 L 34.946474 61.080234 L 34.482646 61.703226 L 34.096363 61.618533 L 30.322559 61.180716 L 26.956579 60.684045 L 26.903447 59.339015 L 26.110776 57.274816 L 23.576239 54.475659 L 22.467649 54.055067 L 21.521326 52.661231 L 19.367328 51.799952 L 18.802981 51.054945 L 18.978173 49.107019 L 17.272207 44.951348 L 16.404864 39.609982 L 16.733708 38.860669 L 15.896521 37.396495 L 14.731926 33.959991 L 15.234525 31.120641 L 14.449034 28.858348 L 15.897957 26.265898 L 16.727964 23.373436 Z M 27.314143 26.524282 " stroke="rgb(100%, 100%, 100%)" stroke-width="0.5" stroke-opacity="1" stroke-miterlimit="4"/><path stroke-linecap="butt" transform="matrix(2.720233, 0, 0, 2.721243, 12.081978, 0.000659437)" fill-opacity="1" fill="rgb(17.248535%, 44.309998%, 94.119263%)" fill-rule="nonzero" stroke-linejoin="miter" d="M 73.16844 41.229187 L 72.835288 46.622229 L 72.490648 51.758323 L 69.792408 51.553052 L 66.43648 51.267394 L 61.677581 50.789384 L 57.264759 50.256827 L 52.902196 49.665415 L 54.888182 35.770113 L 57.527546 36.136156 L 60.168347 36.472055 L 65.462873 37.057725 L 68.113726 37.306061 L 73.408251 37.718039 L 73.174184 41.115785 Z M 73.16844 41.229187 " stroke="rgb(100%, 100%, 100%)" stroke-width="0.5" stroke-opacity="1" stroke-miterlimit="4"/><path stroke-linecap="butt" transform="matrix(2.720233, 0, 0, 2.721243, 12.081978, 0.000659437)" fill-opacity="1" fill="rgb(17.248535%, 44.309998%, 94.119263%)" fill-rule="nonzero" stroke-linejoin="miter" d="M 152.123932 26.317575 L 152.649508 28.163583 L 152.629404 28.701883 L 151.546661 29.177022 L 150.102047 29.736853 L 148.298433 31.050304 L 148.103137 30.658422 L 148.578453 30.184718 L 148.304177 29.946431 L 147.788654 27.306611 L 149.747355 26.868794 Z M 152.123932 26.317575 " stroke="rgb(100%, 100%, 100%)" stroke-width="0.5" stroke-opacity="1" stroke-miterlimit="4"/><path stroke-linecap="butt" transform="matrix(2.720233, 0, 0, 2.721243, 12.081978, 0.000659437)" fill-opacity="1" fill="rgb(17.248535%, 44.309998%, 94.119263%)" fill-rule="nonzero" stroke-linejoin="miter" d="M 141.125622 40.611937 L 141.096902 40.408101 L 140.811138 40.161201 L 140.99351 39.950187 L 141.408513 40.232974 Z M 141.125622 40.611937 " stroke="rgb(100%, 100%, 100%)" stroke-width="0.5" stroke-opacity="1" stroke-miterlimit="4"/><path stroke-linecap="butt" transform="matrix(2.720233, 0, 0, 2.721243, 12.081978, 0.000659437)" fill-opacity="1" fill="rgb(17.248535%, 44.309998%, 94.119263%)" fill-rule="nonzero" stroke-linejoin="miter" d="M 144.715617 36.205059 L 144.405442 36.651488 L 144.625149 37.293141 L 145.601628 39.007087 L 146.736067 40.584663 L 144.945377 40.995206 L 143.763551 36.681633 L 143.904278 36.365831 L 144.106754 36.159124 Z M 144.715617 36.205059 " stroke="rgb(100%, 100%, 100%)" stroke-width="0.5" stroke-opacity="1" stroke-miterlimit="4"/><path stroke-linecap="butt" transform="matrix(2.720233, 0, 0, 2.721243, 12.081978, 0.000659437)" fill-opacity="1" fill="rgb(17.248535%, 44.309998%, 94.119263%)" fill-rule="nonzero" stroke-linejoin="miter" d="M 133.631147 70.828477 L 134.438178 73.316138 L 136.07378 75.996152 L 137.90755 78.387637 L 138.144489 79.75707 L 140.134783 83.120365 L 140.826934 86.245373 L 140.700566 89.426363 L 139.455556 90.284771 L 137.79267 90.119693 L 137.028719 88.648341 L 135.677444 88.02822 L 133.513395 85.246289 L 131.577669 82.897868 L 131.042042 81.242777 L 131.260314 79.019241 L 130.257987 77.154572 L 127.96039 75.32866 L 126.034716 74.229094 L 122.772128 76.139698 L 121.949301 75.236791 L 118.883444 73.973581 L 115.472949 74.761652 L 115.649576 74.257803 L 115.744352 73.547248 L 114.970349 72.756307 L 114.993325 72.483569 L 116.709343 72.117525 L 122.884136 71.415583 L 123.458535 72.304135 L 126.528699 72.073026 L 131.518793 71.892157 L 131.837585 72.467778 L 132.180788 72.094558 L 131.999853 70.878719 L 132.344492 70.702156 L 132.983511 70.865799 Z M 133.631147 70.828477 " stroke="rgb(100%, 100%, 100%)" stroke-width="0.5" stroke-opacity="1" stroke-miterlimit="4"/><path stroke-linecap="butt" transform="matrix(2.720233, 0, 0, 2.721243, 12.081978, 0.000659437)" fill-opacity="1" fill="rgb(17.248535%, 44.309998%, 94.119263%)" fill-rule="nonzero" stroke-linejoin="miter" d="M 126.715379 56.735081 L 126.442539 57.069544 L 126.074924 57.793019 L 126.933651 58.26098 L 127.463534 58.40022 L 128.161429 59.422272 L 128.596537 59.98928 L 129.732411 60.661078 L 129.998071 61.063008 L 130.776382 61.522357 L 131.245954 62.297508 L 132.292796 62.851598 L 132.630256 63.612394 L 132.867196 63.969825 L 132.806884 64.241128 L 133.417183 64.532527 L 133.81639 65.136858 L 133.919782 65.800043 L 134.214162 65.8833 L 134.752661 65.978041 L 133.878138 68.744182 L 133.629711 70.828477 L 132.98064 70.865799 L 132.343056 70.702156 L 131.998417 70.878719 L 132.179352 72.094558 L 131.834713 72.467778 L 131.517357 71.890722 L 126.527263 72.07159 L 123.457099 72.304135 L 122.8827 71.415583 L 122.68166 71.019394 L 122.43754 70.594497 L 122.450464 70.008827 L 122.450464 69.380093 L 122.209216 68.739876 L 122.242244 67.604423 L 122.658684 66.93119 L 122.32266 66.336907 L 121.765493 65.293324 L 120.658338 61.90132 L 119.40184 57.653779 L 121.620457 57.421233 L 123.145487 57.192994 Z M 126.715379 56.735081 " stroke="rgb(100%, 100%, 100%)" stroke-width="0.5" stroke-opacity="1" stroke-miterlimit="4"/><path stroke-linecap="butt" transform="matrix(2.720233, 0, 0, 2.721243, 12.081978, 0.000659437)" fill-opacity="1" fill="rgb(17.248535%, 44.309998%, 94.119263%)" fill-rule="nonzero" stroke-linejoin="miter" d="M 60.660895 89.902938 L 60.191323 89.917292 L 59.919919 89.549813 L 59.780628 88.87658 L 60.128139 88.756001 L 60.635047 88.836387 L 61.146262 89.281381 L 61.120414 89.532588 Z M 63.372059 94.2768 L 63.270103 94.815099 L 62.807712 94.604086 L 62.7115 94.227994 L 62.550668 94.15335 L 62.475996 94.13756 L 62.180181 93.886353 L 62.342449 92.911673 L 62.722988 93.158573 L 63.301695 93.211685 L 63.148044 94.037077 Z M 65.141209 96.935281 L 64.594094 96.908008 L 63.687979 95.954859 L 64.018259 95.736668 Z M 65.201521 97.477887 L 65.260397 98.014751 L 65.770176 98.263087 L 66.073172 99.151639 L 65.932444 99.356911 L 65.569137 99.361217 L 64.76785 98.897562 L 64.987557 98.267393 L 64.706102 97.960203 L 64.764978 97.485064 L 65.013405 97.370227 Z M 63.911995 104.373862 L 63.400779 104.577698 L 62.987212 103.818337 L 63.586023 102.998686 L 63.933535 101.758444 L 65.010533 101.511544 L 65.139773 100.981857 L 65.366661 100.780892 L 65.501645 100.81965 L 66.482432 102.720206 L 66.524076 103.235538 L 66.323036 103.601581 L 66.478124 103.786756 L 66.396272 104.081027 L 66.525512 104.666696 L 65.508825 104.735599 L 64.763542 104.408313 Z M 63.911995 104.373862 " stroke="rgb(100%, 100%, 100%)" stroke-width="0.5" stroke-opacity="1" stroke-miterlimit="4"/><path stroke-linecap="butt" transform="matrix(2.720233, 0, 0, 2.721243, 12.081978, 0.000659437)" fill-opacity="1" fill="rgb(17.248535%, 44.309998%, 94.119263%)" fill-rule="nonzero" stroke-linejoin="miter" d="M 101.695981 29.15549 L 101.741933 29.344971 L 102.106677 29.884706 L 101.891277 30.163186 L 101.938665 30.901015 L 102.060725 31.208205 L 102.257457 31.757988 L 103.121927 32.046516 L 103.404819 32.56759 L 103.571395 32.825974 L 103.890187 32.986746 L 104.036658 33.358531 L 104.464586 33.612609 L 104.753221 33.899702 L 104.672806 34.84998 L 104.237698 35.675372 L 104.07543 35.938062 L 103.486671 36.176349 L 102.590608 36.400282 L 102.386696 37.016097 L 102.731336 37.270174 L 102.8735 37.807038 L 102.559016 38.432901 L 102.409672 38.974071 L 101.753421 39.531031 L 101.731881 40.172684 L 101.351342 39.899946 L 100.812842 39.354469 L 97.894894 39.549692 L 94.818985 39.66453 L 92.422304 39.710465 L 90.021315 39.726255 L 89.843251 39.090344 L 89.916487 38.463045 L 89.857611 37.858715 L 89.584772 36.845276 L 89.40958 36.42612 L 89.220028 36.311283 L 89.20136 35.500245 L 89.037656 34.918882 L 88.562341 34.255697 L 88.569521 33.964298 L 88.405817 33.38437 L 88.292373 33.034116 L 88.296681 32.711137 L 87.878806 32.319255 L 88.091334 31.743633 L 88.227753 31.180931 L 88.292373 30.799097 L 87.964966 30.3297 L 87.975018 29.471292 L 88.315349 29.471292 L 91.115546 29.475598 L 94.596406 29.377987 L 98.335745 29.243053 Z M 101.695981 29.15549 " stroke="rgb(100%, 100%, 100%)" stroke-width="0.5" stroke-opacity="1" stroke-miterlimit="4"/><path stroke-linecap="butt" transform="matrix(2.720233, 0, 0, 2.721243, 12.081978, 0.000659437)" fill-opacity="1" fill="rgb(17.248535%, 44.309998%, 94.119263%)" fill-rule="nonzero" stroke-linejoin="miter" d="M 51.585386 22.78346 L 51.664365 22.860975 L 50.219751 31.490991 L 42.524236 30.105768 L 34.864622 28.407612 L 36.349444 22.265257 L 36.794603 21.342253 L 36.701263 20.848453 L 36.29344 20.508248 L 36.42986 19.9599 L 36.959743 19.262264 L 37.64615 18.708174 L 38.252142 17.677511 L 38.783461 16.867908 L 39.132409 16.474591 L 39.122357 15.921937 L 38.782025 15.550151 L 38.369893 14.754904 L 38.533597 14.147702 L 38.437385 13.570645 L 39.50146 8.746047 L 40.532507 4.320508 L 42.784152 4.832969 L 42.153749 8.524985 L 42.564444 9.582923 L 42.425153 10.20735 L 42.741072 10.85618 L 43.214952 11.304045 L 43.493535 11.925602 L 43.927207 13.137134 L 44.436986 13.770175 L 45.150677 13.951043 L 44.72993 14.665905 L 44.309182 15.530055 L 44.32785 16.461672 L 44.000443 16.628186 L 43.842483 17.519609 L 44.20579 17.951684 L 44.770138 17.637318 L 45.116213 17.199501 L 45.391925 17.354531 L 45.588657 17.888524 L 45.651841 19.038331 L 46.000788 19.556534 L 45.980684 20.492458 L 46.081204 20.773809 L 46.566572 20.956113 L 46.776227 21.51738 L 47.044759 22.500673 L 47.591874 22.104485 L 48.381673 22.38153 L 48.510913 22.052808 L 49.873676 22.519334 L 50.462435 22.506415 L 50.934878 21.877681 L 51.187614 22.018357 L 51.34701 22.546608 Z M 51.585386 22.78346 " stroke="rgb(100%, 100%, 100%)" stroke-width="0.5" stroke-opacity="1" stroke-miterlimit="4"/><path stroke-linecap="butt" transform="matrix(2.720233, 0, 0, 2.721243, 12.081978, 0.000659437)" fill-opacity="1" fill="rgb(17.248535%, 44.309998%, 94.119263%)" fill-rule="nonzero" stroke-linejoin="miter" d="M 110.767182 32.047952 L 110.767182 32.058 L 110.869138 32.966649 L 111.743661 34.740884 L 112.118457 38.788896 L 112.493252 42.832601 L 112.27498 43.83312 L 112.521972 44.068537 L 112.721576 44.651336 L 112.744552 45.123604 L 112.53346 45.356149 L 112.388424 45.953302 L 111.888697 46.767211 L 111.585701 47.740456 L 111.558417 48.453883 L 111.600061 48.712266 L 111.328658 49.226163 L 111.594317 49.534788 L 111.127618 49.831929 L 110.521627 50.177876 L 110.69251 50.932931 L 110.349307 51.251604 L 109.647104 50.983172 L 108.887461 50.851109 L 108.723757 51.205669 L 108.873101 51.726743 L 108.334601 51.221459 L 108.038786 51.333426 L 107.618038 50.49942 L 107.682658 49.968298 L 107.415562 49.135729 L 107.128363 49.052472 L 106.348616 48.333304 L 106.032696 48.341916 L 105.452553 47.884003 L 105.030369 47.383026 L 105.169661 46.755727 L 105.392241 46.230347 L 105.505685 45.57434 L 104.948517 45.044653 L 104.444482 45.303037 L 104.12569 45.173845 L 104.04671 44.591046 L 103.779615 43.939345 L 103.519699 43.792927 L 102.867756 43.357981 L 102.319204 42.789537 L 101.832401 42.091901 L 101.540893 41.056931 L 101.730445 40.172684 L 101.753421 39.531031 L 102.409672 38.975506 L 102.559016 38.432901 L 102.872064 37.807038 L 102.7299 37.270174 L 102.386696 37.016097 L 102.590608 36.400282 L 103.486671 36.176349 L 104.07543 35.938062 L 104.236262 35.675372 L 104.67137 34.84998 L 104.753221 33.899702 L 104.464586 33.614044 L 104.036658 33.358531 L 103.890187 32.986746 L 103.571395 32.825974 L 103.403383 32.56759 L 106.0528 32.398205 L 108.761093 32.198676 L 110.758566 32.058 L 110.758566 32.047952 Z M 110.767182 32.047952 " stroke="rgb(100%, 100%, 100%)" stroke-width="0.5" stroke-opacity="1" stroke-miterlimit="4"/><path stroke-linecap="butt" transform="matrix(2.720233, 0, 0, 2.721243, 12.081978, 0.000659437)" fill-opacity="1" fill="rgb(17.248535%, 44.309998%, 94.119263%)" fill-rule="nonzero" stroke-linejoin="miter" d="M 118.87052 34.074829 L 119.249624 37.22711 L 119.648832 40.619114 L 119.930287 43.032131 L 119.795303 43.21587 L 120.104043 43.900587 L 120.019319 44.17189 L 119.561236 44.233615 L 119.17208 44.592481 L 118.511521 44.543676 L 118.531625 45.21978 L 118.175497 45.519792 L 117.882554 46.160009 L 117.506322 46.312169 L 117.016647 47.416041 L 116.423579 47.177754 L 116.205308 46.770082 L 115.79892 47.515088 L 115.533261 47.93568 L 114.897113 47.586862 L 114.293994 47.98305 L 114.117366 48.343352 L 113.215559 47.892616 L 112.656956 48.330433 L 111.918853 48.125161 L 111.924597 48.512737 L 111.558417 48.453883 L 111.585701 47.739021 L 111.888697 46.767211 L 112.388424 45.953302 L 112.53346 45.356149 L 112.744552 45.123604 L 112.721576 44.651336 L 112.521972 44.068537 L 112.27498 43.83312 L 112.493252 42.832601 L 112.118457 38.788896 L 111.743661 34.740884 L 112.005013 34.954769 L 112.895332 34.848544 L 113.563071 34.394937 L 116.379063 34.10928 L 118.834621 33.80209 Z M 118.87052 34.074829 " stroke="rgb(100%, 100%, 100%)" stroke-width="0.5" stroke-opacity="1" stroke-miterlimit="4"/><path stroke-linecap="butt" transform="matrix(2.720233, 0, 0, 2.721243, 12.081978, 0.000659437)" fill-opacity="1" fill="rgb(17.248535%, 44.309998%, 94.119263%)" fill-rule="nonzero" stroke-linejoin="miter" d="M 93.349959 52.266478 L 90.881478 52.295187 L 85.818148 52.277962 L 80.754818 52.161689 L 77.943134 52.055465 L 75.134321 51.916224 L 72.490648 51.758323 L 72.835288 46.622229 L 73.167004 41.229187 L 73.172748 41.229187 L 77.87995 41.496183 L 81.383786 41.638294 L 87.587298 41.76318 L 91.302226 41.76318 L 91.946989 42.225399 L 92.298809 42.213916 L 92.382096 42.72207 L 92.007301 43.375207 L 92.218393 43.706799 L 92.563032 44.440322 L 93.285339 44.761866 L 93.312623 48.517043 Z M 93.349959 52.266478 " stroke="rgb(100%, 100%, 100%)" stroke-width="0.5" stroke-opacity="1" stroke-miterlimit="4"/><path stroke-linecap="butt" transform="matrix(2.720233, 0, 0, 2.721243, 12.081978, 0.000659437)" fill-opacity="1" fill="rgb(17.248535%, 44.309998%, 94.119263%)" fill-rule="nonzero" stroke-linejoin="miter" d="M 126.337712 44.606836 L 126.438231 44.92838 L 126.514339 45.650419 L 126.923599 46.144219 L 127.134691 46.649503 L 127.605698 47.038514 L 127.94603 47.416041 L 128.493145 47.39738 L 127.54395 48.6003 L 126.738355 49.134293 L 126.712507 49.425692 L 126.469823 49.8348 L 125.76762 50.358745 L 125.563708 50.731966 L 125.018029 51.029107 L 124.236846 51.336297 L 122.354252 51.703776 L 119.861359 51.860241 L 119.058636 51.998046 L 117.434522 52.082738 L 115.785996 52.229156 L 114.269582 52.362654 L 112.517664 52.625344 L 112.4114 52.473185 L 111.854233 52.530604 L 111.911673 53.078951 L 107.875082 53.368915 L 108.481073 52.954066 L 108.906128 52.629651 L 108.811353 52.084174 L 108.871665 51.726743 L 108.723757 51.205669 L 108.887461 50.851109 L 109.647104 50.983172 L 110.349307 51.251604 L 110.69251 50.932931 L 110.521627 50.177876 L 111.127618 49.831929 L 111.594317 49.534788 L 111.328658 49.226163 L 111.600061 48.712266 L 111.558417 48.453883 L 111.924597 48.512737 L 111.918853 48.125161 L 112.65552 48.330433 L 113.215559 47.892616 L 114.117366 48.343352 L 114.293994 47.98305 L 114.897113 47.586862 L 115.533261 47.93568 L 115.79892 47.515088 L 116.205308 46.770082 L 116.423579 47.177754 L 117.016647 47.416041 L 117.506322 46.312169 L 117.882554 46.160009 L 118.175497 45.519792 L 118.531625 45.21978 L 118.511521 44.543676 L 119.170644 44.592481 L 119.561236 44.233615 L 120.019319 44.17189 L 120.104043 43.900587 L 119.795303 43.21587 L 119.930287 43.032131 L 120.86943 42.996244 L 121.392133 43.270418 L 122.217832 43.962312 L 122.826696 44.130262 L 123.284779 44.354194 L 123.91949 44.169019 L 124.427834 44.302517 L 124.983565 44.028344 L 125.491909 43.89341 L 125.779108 44.348452 Z M 126.337712 44.606836 " stroke="rgb(100%, 100%, 100%)" stroke-width="0.5" stroke-opacity="1" stroke-miterlimit="4"/><path stroke-linecap="butt" transform="matrix(2.720233, 0, 0, 2.721243, 12.081978, 0.000659437)" fill-opacity="1" fill="rgb(17.248535%, 44.309998%, 94.119263%)" fill-rule="nonzero" stroke-linejoin="miter" d="M 103.842799 65.93067 L 104.065378 66.120152 L 103.822695 66.642661 L 104.293702 67.343168 L 104.194618 67.785291 L 104.612494 68.370961 L 104.217594 68.75423 L 104.115638 69.426028 L 103.562779 70.005956 L 103.328711 70.759575 L 103.097515 71.623725 L 102.745696 72.037139 L 102.912272 72.912773 L 105.599024 72.881192 L 108.465277 72.706066 L 108.419325 73.298913 L 108.255621 73.890324 L 108.479637 74.323835 L 108.910436 74.705669 L 109.05978 75.282726 L 109.141632 75.628673 L 108.890333 77.125863 L 110.007539 79.181449 L 105.735444 79.600605 L 103.055872 79.01637 L 101.232154 78.366105 L 98.859885 77.995755 L 96.176004 77.96561 L 95.910344 77.50339 L 96.211904 76.976574 L 96.661371 76.497129 L 96.651319 75.789445 L 96.42156 75.55977 L 96.667115 74.707104 L 96.852359 74.319528 L 97.112275 73.018997 L 96.829383 72.543858 L 96.458895 71.74861 L 96.180312 70.937573 L 95.999376 70.396402 L 95.496777 70.008827 L 95.232553 66.243602 L 98.09737 66.174699 L 101.332674 65.933541 Z M 103.842799 65.93067 " stroke="rgb(100%, 100%, 100%)" stroke-width="0.5" stroke-opacity="1" stroke-miterlimit="4"/><path stroke-linecap="butt" transform="matrix(2.720233, 0, 0, 2.721243, 12.081978, 0.000659437)" fill-opacity="1" fill="rgb(17.248535%, 44.309998%, 94.119263%)" fill-rule="nonzero" stroke-linejoin="miter" d="M 153.792562 22.743267 L 154.27793 24.54334 L 155.620588 26.096513 L 156.691843 25.876887 L 156.06862 24.722773 L 157.043663 25.251024 L 157.122642 26.273076 L 155.574636 27.315223 L 154.33537 27.595139 L 154.11997 27.098468 L 153.613063 26.821423 L 153.177955 25.985983 L 152.122496 26.317575 L 149.747355 26.868794 L 147.788654 27.306611 L 147.735522 24.82182 L 149.820591 24.339504 L 152.850548 23.547127 L 153.015687 23.140891 L 153.479515 22.763363 Z M 153.792562 22.743267 " stroke="rgb(100%, 100%, 100%)" stroke-width="0.5" stroke-opacity="1" stroke-miterlimit="4"/><path stroke-linecap="butt" transform="matrix(2.720233, 0, 0, 2.721243, 12.081978, 0.000659437)" fill-opacity="1" fill="rgb(17.248535%, 44.309998%, 94.119263%)" fill-rule="nonzero" stroke-linejoin="miter" d="M 143.763551 36.681633 L 144.945377 40.995206 L 146.736067 40.584663 L 146.958647 40.858837 L 146.19326 42.269899 L 145.578652 42.466558 L 145.417821 42.749344 L 143.677391 41.422974 L 142.993855 38.87933 L 142.818664 40.181297 L 143.505071 43.13692 L 141.664121 42.467993 L 141.404205 42.020128 L 140.996382 42.261286 L 140.59861 42.147884 L 140.745082 41.319621 L 141.135674 40.900465 L 141.125622 40.611937 L 141.408513 40.232974 L 140.99351 39.950187 L 140.809702 40.161201 L 140.232431 39.88272 L 139.623568 39.792286 L 139.742755 39.383179 L 139.336368 39.198004 L 138.919928 39.162117 L 138.622677 38.765929 L 138.197621 38.341031 L 137.321662 38.231936 L 136.860707 38.592237 L 136.619459 38.905169 L 135.806684 38.919523 L 135.518048 39.347292 L 135.014013 39.584144 L 134.629166 40.06646 L 134.274474 40.451165 L 133.977222 38.697026 L 136.445703 38.233371 L 137.287198 38.062551 L 139.168356 37.667798 L 141.435797 37.205578 Z M 143.763551 36.681633 " stroke="rgb(100%, 100%, 100%)" stroke-width="0.5" stroke-opacity="1" stroke-miterlimit="4"/><path fill="rgb(17.248535%, 44.309998%, 94.119263%)" d="M 430.988281 59.496094 L 430.300781 59.792969 L 429.625 58.597656 L 427.996094 57.582031 L 427.992188 56.601562 L 422.402344 40.042969 L 424.636719 37.667969 L 425.71875 32.804688 L 425.574219 25.035156 L 428.308594 16.617188 L 431.132812 18.410156 L 434.851562 15.535156 L 438.484375 17.300781 L 442.488281 29.8125 L 448.371094 33.613281 L 449.734375 37.464844 L 444.328125 42.417969 L 438.609375 46.5625 L 432.726562 54.332031 Z M 430.988281 59.496094 " fill-opacity="1" fill-rule="nonzero"/><g clip-path="url(#id3)"><path stroke-linecap="butt" transform="matrix(2.720233, 0, 0, 2.721243, 12.081978, 0.000659437)" fill="none" stroke-linejoin="miter" d="M 153.996474 21.863327 L 153.743738 21.972422 L 153.495311 21.53317 L 152.8965 21.159949 L 152.895064 20.799647 L 150.84015 14.714711 L 151.661541 13.841948 L 152.059313 12.054794 L 152.006181 9.199654 L 153.011379 6.106226 L 154.049606 6.765105 L 155.416676 5.708602 L 156.752155 6.357433 L 158.224053 10.955227 L 160.386666 12.351935 L 160.88783 13.767304 L 158.900408 15.587473 L 156.798107 17.110502 L 154.635493 19.965642 Z M 153.996474 21.863327 " stroke="rgb(100%, 100%, 100%)" stroke-width="0.5" stroke-opacity="1" stroke-miterlimit="4"/></g><path stroke-linecap="butt" transform="matrix(2.720233, 0, 0, 2.721243, 12.081978, 0.000659437)" fill-opacity="1" fill="rgb(17.248535%, 44.309998%, 94.119263%)" fill-rule="nonzero" stroke-linejoin="miter" d="M 117.40293 16.991358 L 118.224321 16.995665 L 117.961534 17.38324 L 119.35876 18.622047 L 117.246406 19.217765 L 117.163119 19.212023 L 115.192929 19.072783 L 113.356287 19.988609 L 111.716377 20.476668 L 110.478547 22.855233 L 110.411055 22.836572 L 110.409619 22.842314 L 110.040567 22.457609 L 110.172679 21.874811 L 109.622692 21.893472 L 109.68444 21.312108 L 109.809371 21.014967 L 109.546584 20.539828 L 108.9449 20.369008 L 108.759657 19.800563 L 108.277161 19.796257 L 107.583574 19.849369 L 106.118856 19.323989 L 103.93183 18.841673 L 103.693455 18.218681 L 103.304299 18.128247 L 103.301427 18.116763 L 103.153519 18.198584 L 103.130543 18.181359 L 103.153519 18.197149 L 104.971493 17.173662 L 106.826803 15.881744 L 108.851561 14.532406 L 108.239825 16.463107 L 109.651412 16.793264 L 111.490925 17.973216 L 113.565943 16.962649 L 115.909492 16.381286 L 116.538459 17.30429 L 117.296666 17.354531 Z M 124.446502 28.643029 L 124.389062 28.699012 L 123.464279 30.789049 L 123.072251 32.088145 L 122.370048 33.556626 L 121.390697 33.721704 L 120.203127 33.87817 L 118.87052 34.073393 L 118.834621 33.800655 L 116.379063 34.107844 L 113.563071 34.393502 L 114.042694 33.855202 L 114.918653 32.040774 L 114.740589 29.726805 L 113.662155 27.653993 L 113.631999 26.155368 L 114.105878 24.365343 L 114.601298 23.119359 L 115.501669 22.16621 L 115.869284 23.316018 L 116.103352 21.534605 L 116.605951 21.112579 L 116.788323 19.737403 L 118.965296 20.173784 L 120.975694 21.290576 L 121.402185 22.849491 L 121.396441 24.473002 L 120.204563 26.059191 L 120.451555 26.92047 L 120.958462 26.881713 L 122.3083 25.12901 L 123.290523 25.341459 L 124.047294 27.293691 L 124.389062 28.700447 Z M 124.446502 28.643029 " stroke="rgb(100%, 100%, 100%)" stroke-width="0.5" stroke-opacity="1" stroke-miterlimit="4"/><path stroke-linecap="butt" transform="matrix(2.720233, 0, 0, 2.721243, 12.081978, 0.000659437)" fill-opacity="1" fill="rgb(17.248535%, 44.309998%, 94.119263%)" fill-rule="nonzero" stroke-linejoin="miter" d="M 104.737426 12.993588 L 104.737426 12.995023 L 102.376644 14.322829 L 100.749658 15.835809 L 99.17724 17.409079 L 99.193036 17.928717 L 98.558325 18.152649 L 98.666025 20.135027 L 98.588481 20.135027 L 97.993978 20.549876 L 97.481326 20.908743 L 97.152483 21.570492 L 97.696726 22.21358 L 97.538766 23.10644 L 97.570358 24.063895 L 97.521534 24.841917 L 98.281177 25.493618 L 98.582737 25.513715 L 99.418488 25.980241 L 99.712868 26.205609 L 99.908163 26.577394 L 100.574467 27.153016 L 101.457605 27.62959 L 101.556689 27.916683 L 101.606949 28.762172 L 101.694545 29.15549 L 98.334309 29.243053 L 94.59497 29.377987 L 91.11411 29.475598 L 88.313913 29.471292 L 88.365609 26.181206 L 88.07841 22.802121 L 87.646174 22.523641 L 87.404926 21.976729 L 87.542782 21.498719 L 88.098514 21.108272 L 88.145902 20.594376 L 88.150209 19.951287 L 88.000866 19.412988 L 87.79839 18.837366 L 87.686382 18.116763 L 87.663406 17.310031 L 87.58299 17.114808 L 87.492522 16.074096 L 87.488214 15.596086 L 87.445134 15.171188 L 87.33169 14.450585 L 87.048799 13.717062 L 86.780267 13.06249 L 86.747239 12.416531 L 86.725699 11.718895 L 86.811859 11.265288 L 86.831963 10.850438 L 86.619435 10.333671 L 86.589279 9.983418 L 91.450134 9.996337 L 91.442954 8.625468 L 92.232753 8.596758 L 92.67504 10.551862 L 93.418887 11.144709 L 95.073157 11.327013 L 97.505738 11.816506 L 99.855031 12.821332 L 101.753421 12.257194 Z M 104.737426 12.993588 " stroke="rgb(100%, 100%, 100%)" stroke-width="0.5" stroke-opacity="1" stroke-miterlimit="4"/><path stroke-linecap="butt" transform="matrix(2.720233, 0, 0, 2.721243, 12.081978, 0.000659437)" fill-opacity="1" fill="rgb(17.248535%, 44.309998%, 94.119263%)" fill-rule="nonzero" stroke-linejoin="miter" d="M 101.730445 40.172684 L 101.539457 41.055495 L 101.832401 42.091901 L 102.317768 42.789537 L 102.86632 43.356546 L 103.519699 43.792927 L 103.779615 43.937909 L 104.045274 44.591046 L 104.124254 45.173845 L 104.444482 45.303037 L 104.948517 45.044653 L 105.505685 45.57434 L 105.390805 46.230347 L 105.168225 46.755727 L 105.028933 47.383026 L 105.452553 47.884003 L 106.032696 48.341916 L 106.348616 48.333304 L 107.126927 49.052472 L 107.415562 49.135729 L 107.682658 49.968298 L 107.618038 50.49942 L 108.03735 51.333426 L 108.334601 51.220024 L 108.871665 51.726743 L 108.809917 52.084174 L 108.906128 52.629651 L 108.479637 52.954066 L 107.873646 53.368915 L 107.824822 53.711991 L 107.686966 54.224452 L 107.526134 55.092909 L 105.670824 55.214923 L 105.824476 54.856057 L 106.11742 54.456998 L 106.413236 54.059374 L 106.147576 53.641654 L 102.915144 53.615815 L 99.928267 53.75362 L 96.799227 53.852667 L 93.357139 53.87707 L 93.362883 52.266478 L 93.348523 52.266478 L 93.311187 48.517043 L 93.283903 44.761866 L 92.561596 44.440322 L 92.216957 43.706799 L 92.007301 43.375207 L 92.38066 42.72207 L 92.297373 42.213916 L 91.946989 42.225399 L 91.30079 41.76318 L 90.946098 41.015302 L 90.526787 40.568873 L 90.073011 40.014783 L 90.019879 39.726255 L 92.420868 39.710465 L 94.817549 39.66453 L 97.893458 39.549692 L 100.811406 39.354469 L 101.349906 39.899946 Z M 101.730445 40.172684 " stroke="rgb(100%, 100%, 100%)" stroke-width="0.5" stroke-opacity="1" stroke-miterlimit="4"/><path stroke-linecap="butt" transform="matrix(2.720233, 0, 0, 2.721243, 12.081978, 0.000659437)" fill-opacity="1" fill="rgb(17.248535%, 44.309998%, 94.119263%)" fill-rule="nonzero" stroke-linejoin="miter" d="M 112.088301 58.339931 L 112.35396 59.000245 L 112.227592 63.58512 L 112.177333 69.240853 L 112.721576 74.610928 L 110.909346 75.556899 L 109.141632 75.628673 L 109.05978 75.282726 L 108.910436 74.705669 L 108.479637 74.323835 L 108.255621 73.890324 L 108.417889 73.298913 L 108.465277 72.706066 L 105.599024 72.881192 L 102.912272 72.911337 L 102.745696 72.037139 L 103.097515 71.623725 L 103.328711 70.759575 L 103.562779 70.005956 L 104.115638 69.426028 L 104.217594 68.75423 L 104.612494 68.369526 L 104.194618 67.785291 L 104.292266 67.343168 L 103.822695 66.642661 L 104.065378 66.120152 L 103.841363 65.93067 L 103.947626 65.231599 L 103.558471 64.32582 L 103.582883 63.49038 L 104.15441 62.230041 L 104.424378 61.489341 L 104.911181 60.981187 L 105.235717 60.76156 L 105.567433 59.799799 L 105.547329 59.291644 L 106.04562 58.997374 L 106.082956 58.716023 L 108.921924 58.517929 Z M 112.088301 58.339931 " stroke="rgb(100%, 100%, 100%)" stroke-width="0.5" stroke-opacity="1" stroke-miterlimit="4"/><path stroke-linecap="butt" transform="matrix(2.720233, 0, 0, 2.721243, 12.081978, 0.000659437)" fill-opacity="1" fill="rgb(17.248535%, 44.309998%, 94.119263%)" fill-rule="nonzero" stroke-linejoin="miter" d="M 69.700504 19.939804 L 69.2855 23.15381 L 65.136901 22.708816 L 60.659459 22.199226 L 56.808111 21.635088 L 51.937205 20.898694 L 51.652877 22.667187 L 51.585386 22.78346 L 51.34701 22.546608 L 51.18905 22.018357 L 50.936314 21.877681 L 50.462435 22.506415 L 49.873676 22.519334 L 48.510913 22.052808 L 48.383109 22.38153 L 47.59331 22.104485 L 47.046195 22.500673 L 46.776227 21.51738 L 46.568008 20.956113 L 46.08264 20.773809 L 45.98212 20.492458 L 46.002224 19.556534 L 45.651841 19.038331 L 45.588657 17.888524 L 45.391925 17.354531 L 45.117649 17.199501 L 44.770138 17.637318 L 44.20579 17.951684 L 43.842483 17.519609 L 44.000443 16.628186 L 44.32785 16.461672 L 44.310618 15.530055 L 44.72993 14.665905 L 45.150677 13.951043 L 44.438422 13.770175 L 43.928643 13.137134 L 43.494971 11.925602 L 43.214952 11.304045 L 42.742508 10.85618 L 42.426589 10.20735 L 42.56588 9.582923 L 42.153749 8.524985 L 42.785588 4.832969 L 49.655404 6.251208 L 56.571172 7.442644 L 63.522839 8.405841 L 70.501791 9.139364 L 69.957547 15.642021 Z M 69.700504 19.939804 " stroke="rgb(100%, 100%, 100%)" stroke-width="0.5" stroke-opacity="1" stroke-miterlimit="4"/><path stroke-linecap="butt" transform="matrix(2.720233, 0, 0, 2.721243, 12.081978, 0.000659437)" fill-opacity="1" fill="rgb(17.248535%, 44.309998%, 94.119263%)" fill-rule="nonzero" stroke-linejoin="miter" d="M 145.996528 47.583991 L 147.162558 50.918576 L 145.939088 53.86128 L 143.434707 55.780497 L 141.336713 58.01408 L 140.357363 58.417446 L 136.536171 55.751787 L 133.359743 56.272861 L 133.299431 55.86806 L 132.756624 55.355599 L 132.50676 55.632644 L 132.433524 55.331196 L 131.07507 55.388615 L 128.441449 55.769013 L 126.986783 56.591534 L 126.716815 56.735081 L 123.148359 57.192994 L 123.115331 56.447988 L 123.692603 56.149411 L 123.839075 55.750352 L 124.186586 55.273777 L 124.750933 55.102957 L 125.398569 54.851751 L 126.00456 54.459869 L 126.2415 54.113922 L 126.739791 53.757926 L 126.689531 53.509591 L 127.331422 52.933969 L 127.604262 53.206708 L 128.546277 52.394234 L 129.043132 52.388492 L 129.383464 51.738227 L 129.932015 51.498504 L 129.824315 51.00901 L 129.824315 50.562581 L 134.558802 49.919492 L 140.104627 48.887393 L 143.032627 48.251482 Z M 145.996528 47.583991 " stroke="rgb(100%, 100%, 100%)" stroke-width="0.5" stroke-opacity="1" stroke-miterlimit="4"/><path stroke-linecap="butt" transform="matrix(2.720233, 0, 0, 2.721243, 12.081978, 0.000659437)" fill-opacity="1" fill="rgb(17.248535%, 44.309998%, 94.119263%)" fill-rule="nonzero" stroke-linejoin="miter" d="M 86.590715 9.983418 L 86.620871 10.333671 L 86.833399 10.850438 L 86.813295 11.265288 L 86.727135 11.718895 L 86.748675 12.416531 L 86.781703 13.06249 L 87.050235 13.717062 L 87.333126 14.450585 L 87.44657 15.171188 L 87.48965 15.596086 L 87.493958 16.074096 L 87.584426 17.114808 L 87.664842 17.310031 L 87.687818 18.116763 L 87.799826 18.837366 L 88.000866 19.412988 L 88.151645 19.951287 L 88.147338 20.594376 L 83.453059 20.710648 L 79.44806 20.558489 L 74.39909 20.291493 L 69.700504 19.939804 L 69.957547 15.642021 L 70.501791 9.139364 L 78.609437 9.717856 Z M 86.590715 9.983418 " stroke="rgb(100%, 100%, 100%)" stroke-width="0.5" stroke-opacity="1" stroke-miterlimit="4"/><path stroke-linecap="butt" transform="matrix(2.720233, 0, 0, 2.721243, 12.081978, 0.000659437)" fill-opacity="1" fill="rgb(17.248535%, 44.309998%, 94.119263%)" fill-rule="nonzero" stroke-linejoin="miter" d="M 88.290937 33.034116 L 88.405817 33.38437 L 88.569521 33.964298 L 88.560905 34.255697 L 89.03622 34.918882 L 89.199924 35.500245 L 89.218592 36.311283 L 89.408144 36.42612 L 89.583336 36.845276 L 89.857611 37.858715 L 89.916487 38.463045 L 89.841815 39.090344 L 90.019879 39.726255 L 90.073011 40.014783 L 90.526787 40.568873 L 90.946098 41.015302 L 91.302226 41.76318 L 87.587298 41.76318 L 81.38235 41.638294 L 77.878514 41.496183 L 73.171312 41.229187 L 73.167004 41.229187 L 73.172748 41.115785 L 73.406815 37.718039 L 68.113726 37.306061 L 68.713973 30.319652 L 73.738531 30.710098 L 77.605674 30.939773 L 82.77814 31.143609 L 83.432955 31.605829 L 84.377842 31.908712 L 84.60473 31.753681 L 85.219337 31.778084 L 86.14412 31.757988 L 86.807551 32.218772 L 87.515498 32.518784 L 87.631814 32.811619 L 87.854394 32.98244 Z M 88.290937 33.034116 " stroke="rgb(100%, 100%, 100%)" stroke-width="0.5" stroke-opacity="1" stroke-miterlimit="4"/><path stroke-linecap="butt" transform="matrix(2.720233, 0, 0, 2.721243, 12.081978, 0.000659437)" fill-opacity="1" fill="rgb(17.248535%, 44.309998%, 94.119263%)" fill-rule="nonzero" stroke-linejoin="miter" d="M 153.996474 21.863327 L 153.792562 22.743267 L 153.480951 22.763363 L 153.017123 23.140891 L 152.850548 23.547127 L 149.822027 24.339504 L 149.527648 24.039492 L 149.608063 23.545692 L 149.431436 22.638478 L 149.45154 22.404497 L 149.3223 21.579105 L 149.411332 20.826921 L 149.533392 20.476668 L 149.609499 19.592421 L 149.519032 19.029719 L 149.510416 18.676594 L 149.938343 18.383759 L 150.374887 17.839718 L 150.354783 17.391853 L 150.040299 16.954036 L 150.069019 15.950646 L 150.064711 15.949211 L 150.071891 15.043432 L 150.841586 14.714711 L 152.8965 20.799647 L 152.897936 21.159949 L 153.495311 21.53317 L 153.745174 21.972422 Z M 153.996474 21.863327 " stroke="rgb(100%, 100%, 100%)" stroke-width="0.5" stroke-opacity="1" stroke-miterlimit="4"/><path stroke-linecap="butt" transform="matrix(2.720233, 0, 0, 2.721243, 12.081978, 0.000659437)" fill-opacity="1" fill="rgb(17.248535%, 44.309998%, 94.119263%)" fill-rule="nonzero" stroke-linejoin="miter" d="M 147.659414 31.300074 L 147.176918 33.177663 L 147.866198 33.166179 L 148.018413 35.731355 L 146.723143 38.820476 L 146.318191 37.989342 L 145.693532 37.949149 L 144.850601 37.202707 L 144.626585 37.293141 L 144.405442 36.651488 L 144.715617 36.205059 L 145.182317 35.767242 L 145.321609 35.510294 L 145.838568 34.911705 L 146.086996 34.460969 L 145.055949 33.77051 L 144.926709 33.420256 L 144.617969 33.380063 L 144.501654 32.827409 L 144.708437 32.339351 L 144.464318 31.925937 L 144.807521 31.528313 L 145.078925 30.658422 L 145.357509 30.433054 Z M 147.659414 31.300074 " stroke="rgb(100%, 100%, 100%)" stroke-width="0.5" stroke-opacity="1" stroke-miterlimit="4"/><path stroke-linecap="butt" transform="matrix(2.720233, 0, 0, 2.721243, 12.081978, 0.000659437)" fill-opacity="1" fill="rgb(17.248535%, 44.309998%, 94.119263%)" fill-rule="nonzero" stroke-linejoin="miter" d="M 69.792408 51.553052 L 69.661732 53.288529 L 68.953785 62.459716 L 68.444005 69.065726 L 65.663913 68.837487 L 60.276047 68.312107 L 57.586422 68.007788 L 57.58355 68.312107 L 57.853518 68.910696 L 52.69972 68.261866 L 52.465652 69.700202 L 50.058919 69.37148 L 52.902196 49.665415 L 57.264759 50.256827 L 61.677581 50.789384 L 66.43648 51.267394 Z M 69.792408 51.553052 " stroke="rgb(100%, 100%, 100%)" stroke-width="0.5" stroke-opacity="1" stroke-miterlimit="4"/><path stroke-linecap="butt" transform="matrix(2.720233, 0, 0, 2.721243, 12.081978, 0.000659437)" fill-opacity="1" fill="rgb(17.248535%, 44.309998%, 94.119263%)" fill-rule="nonzero" stroke-linejoin="miter" d="M 42.525672 30.105768 L 39.079277 47.298333 L 38.542213 50.070216 L 38.398613 50.159215 L 38.108542 50.647273 L 37.755286 50.433389 L 37.269919 50.078829 L 36.684031 49.95825 L 36.404012 50.342955 L 36.556228 50.865464 L 36.40114 51.604729 L 36.320724 52.283704 L 36.319288 52.985646 L 36.004804 53.624428 L 32.255413 48.248611 L 28.418425 42.568476 L 24.567078 36.677327 L 27.314143 26.524282 L 34.863186 28.417661 L 34.867494 28.407612 Z M 42.525672 30.105768 " stroke="rgb(100%, 100%, 100%)" stroke-width="0.5" stroke-opacity="1" stroke-miterlimit="4"/><path stroke-linecap="butt" transform="matrix(2.720233, 0, 0, 2.721243, 12.081978, 0.000659437)" fill-opacity="1" fill="rgb(17.248535%, 44.309998%, 94.119263%)" fill-rule="nonzero" stroke-linejoin="miter" d="M 147.736958 24.82182 L 147.79009 27.306611 L 148.305613 29.946431 L 148.579889 30.184718 L 148.104573 30.658422 L 148.299869 31.050304 L 151.822373 29.64929 L 152.754336 30.087106 L 149.411332 32.055129 L 147.76137 32.477156 L 147.659414 31.300074 L 145.357509 30.433054 L 144.883629 30.289507 L 144.391082 30.156009 L 144.10819 29.698095 L 144.088086 29.304778 L 143.710419 29.066491 L 143.029755 28.658819 L 139.55464 29.426793 L 135.816736 30.201944 L 131.803121 30.96274 L 131.633673 30.025381 L 133.447339 27.559252 L 133.335331 27.237708 L 133.333895 27.22766 L 132.799704 26.296043 L 134.030354 25.609891 L 136.035008 25.342894 L 138.155977 25.199348 L 139.788707 23.656223 L 139.344984 22.351385 L 138.94434 21.877681 L 138.932852 21.874811 L 138.934288 21.873375 L 138.945776 21.877681 L 140.963354 18.957945 L 141.918293 18.067957 L 145.605936 17.13634 L 145.732304 17.841154 L 145.746664 18.30768 L 146.06402 19.306763 L 146.331115 19.793386 L 146.263624 20.56136 L 146.715963 21.396801 L 146.684371 21.932229 L 146.763351 22.049937 L 147.125222 21.983906 Z M 147.736958 24.82182 " stroke="rgb(100%, 100%, 100%)" stroke-width="0.5" stroke-opacity="1" stroke-miterlimit="4"/><path stroke-linecap="butt" transform="matrix(2.720233, 0, 0, 2.721243, 12.081978, 0.000659437)" fill-opacity="1" fill="rgb(17.248535%, 44.309998%, 94.119263%)" fill-rule="nonzero" stroke-linejoin="miter" d="M 130.65145 36.009836 L 130.315427 36.245252 L 130.503542 36.665843 L 130.51503 37.484058 L 130.394407 38.43003 L 130.260859 39.220971 L 130.276655 39.584144 L 129.679279 40.494229 L 129.396388 40.713855 L 129.050312 40.87032 L 128.714289 40.845917 L 128.207381 41.537812 L 128.197329 42.179465 L 128.165737 42.529718 L 127.947466 42.704845 L 127.85269 42.324447 L 127.473586 42.295737 L 127.20649 43.106775 L 127.282598 43.881926 L 126.999707 44.415919 L 126.337712 44.606836 L 125.777672 44.348452 L 125.490473 43.89341 L 124.983565 44.028344 L 124.426398 44.302517 L 123.91949 44.169019 L 123.283343 44.354194 L 122.826696 44.130262 L 122.216396 43.962312 L 121.390697 43.270418 L 120.86943 42.996244 L 119.930287 43.032131 L 119.648832 40.619114 L 119.249624 37.22711 L 118.869084 34.074829 L 120.201691 33.879605 L 121.390697 33.72314 L 122.368612 33.556626 L 122.368612 33.558061 L 124.080322 34.047555 L 125.408621 34.0332 L 127.226594 33.27671 L 128.608025 32.066613 L 129.861651 31.376154 Z M 130.65145 36.009836 " stroke="rgb(100%, 100%, 100%)" stroke-width="0.5" stroke-opacity="1" stroke-miterlimit="4"/><path stroke-linecap="butt" transform="matrix(2.720233, 0, 0, 2.721243, 12.081978, 0.000659437)" fill-opacity="1" fill="rgb(17.248535%, 44.309998%, 94.119263%)" fill-rule="nonzero" stroke-linejoin="miter" d="M 93.357139 53.87707 L 93.983234 57.577699 L 93.980362 60.995541 L 93.948771 64.073178 L 92.673604 63.401381 L 91.847905 63.036773 L 91.183038 63.279366 L 90.151991 63.246351 L 89.541692 63.253528 L 89.039092 63.539185 L 88.546545 63.684167 L 88.117182 63.510476 L 87.134959 63.694216 L 86.695543 63.102804 L 86.231716 63.605217 L 85.433301 63.36693 L 84.621962 62.807098 L 83.734515 63.141562 L 83.369771 62.286024 L 82.005573 62.33483 L 81.141102 62.11951 L 80.170367 61.836724 L 79.762544 61.093153 L 78.988541 61.298424 L 78.526149 60.99267 L 77.848358 60.584998 L 77.997702 57.236058 L 78.147046 53.80099 L 75.316693 53.660315 L 72.487776 53.49093 L 69.661732 53.288529 L 69.792408 51.553052 L 72.490648 51.758323 L 75.134321 51.916224 L 77.943134 52.055465 L 80.754818 52.161689 L 85.819584 52.277962 L 90.881478 52.295187 L 93.349959 52.266478 L 93.364319 52.266478 Z M 93.357139 53.87707 " stroke="rgb(100%, 100%, 100%)" stroke-width="0.5" stroke-opacity="1" stroke-miterlimit="4"/><path stroke-linecap="butt" transform="matrix(2.720233, 0, 0, 2.721243, 12.081978, 0.000659437)" fill-opacity="1" fill="rgb(17.248535%, 44.309998%, 94.119263%)" fill-rule="nonzero" stroke-linejoin="miter" d="M 38.369893 14.754904 L 38.783461 15.550151 L 39.122357 15.921937 L 39.132409 16.474591 L 38.784897 16.867908 L 38.252142 17.677511 L 37.64615 18.708174 L 36.959743 19.262264 L 36.431296 19.9599 L 36.294876 20.508248 L 36.701263 20.848453 L 36.796039 21.342253 L 36.35088 22.265257 L 34.866058 28.407612 L 34.863186 28.417661 L 27.312707 26.524282 L 16.727964 23.373436 L 16.532668 21.238899 L 18.438237 17.891395 L 19.819668 14.162056 L 21.861657 9.218315 L 22.361385 9.325975 L 23.070768 9.567133 L 23.546083 10.050884 L 24.169307 10.45425 L 24.410554 11.233708 L 24.301418 11.819377 L 24.33301 12.347629 L 24.844226 12.640463 L 25.431549 12.805542 L 26.456852 12.716543 L 27.026943 12.765349 L 27.83541 13.15436 L 28.159946 13.438582 L 28.694137 13.458679 L 29.314488 13.335229 L 30.378563 13.676869 L 31.36653 13.539065 L 31.906465 13.386905 L 32.475121 13.696966 L 33.424315 13.562032 Z M 38.369893 14.754904 " stroke="rgb(100%, 100%, 100%)" stroke-width="0.5" stroke-opacity="1" stroke-miterlimit="4"/><path stroke-linecap="butt" transform="matrix(2.720233, 0, 0, 2.721243, 12.081978, 0.000659437)" fill-opacity="1" fill="rgb(17.248535%, 44.309998%, 94.119263%)" fill-rule="nonzero" stroke-linejoin="miter" d="M 145.356073 30.431618 L 145.077489 30.658422 L 144.807521 31.528313 L 144.464318 31.925937 L 144.707001 32.339351 L 144.501654 32.827409 L 144.616533 33.380063 L 144.925273 33.420256 L 145.054513 33.77051 L 146.08556 34.460969 L 145.837132 34.911705 L 145.321609 35.510294 L 145.182317 35.767242 L 144.715617 36.205059 L 144.106754 36.159124 L 143.904278 36.365831 L 143.763551 36.681633 L 141.435797 37.205578 L 139.168356 37.667798 L 137.287198 38.062551 L 136.445703 38.233371 L 133.975786 38.695591 L 131.198566 39.190826 L 130.65145 36.009836 L 129.861651 31.376154 L 131.626493 30.031123 L 131.632237 30.025381 L 131.801685 30.96274 L 135.816736 30.201944 L 139.55464 29.426793 L 143.028319 28.658819 L 143.708983 29.066491 L 144.08665 29.304778 L 144.106754 29.698095 L 144.389646 30.156009 L 144.883629 30.289507 Z M 145.356073 30.431618 " stroke="rgb(100%, 100%, 100%)" stroke-width="0.5" stroke-opacity="1" stroke-miterlimit="4"/><path stroke-linecap="butt" transform="matrix(2.720233, 0, 0, 2.721243, 12.081978, 0.000659437)" fill-opacity="1" fill="rgb(17.248535%, 44.309998%, 94.119263%)" fill-rule="nonzero" stroke-linejoin="miter" d="M 154.333934 27.595139 L 152.629404 28.701883 L 152.649508 28.163583 L 152.122496 26.317575 L 153.177955 25.985983 L 153.611627 26.821423 L 154.118534 27.098468 Z M 154.333934 27.595139 " stroke="rgb(100%, 100%, 100%)" stroke-width="0.5" stroke-opacity="1" stroke-miterlimit="4"/><path stroke-linecap="butt" transform="matrix(2.720233, 0, 0, 2.721243, 12.081978, 0.000659437)" fill-opacity="1" fill="rgb(17.248535%, 44.309998%, 94.119263%)" fill-rule="nonzero" stroke-linejoin="miter" d="M 140.357363 58.417446 L 139.685315 61.063008 L 137.529882 63.679861 L 134.752661 65.978041 L 134.215598 65.8833 L 133.921218 65.800043 L 133.81639 65.136858 L 133.418619 64.532527 L 132.80832 64.241128 L 132.868632 63.96839 L 132.631692 63.612394 L 132.294232 62.851598 L 131.24739 62.297508 L 130.776382 61.522357 L 129.999507 61.063008 L 129.732411 60.661078 L 128.597973 59.98928 L 128.161429 59.422272 L 127.46497 58.40022 L 126.933651 58.26098 L 126.07636 57.793019 L 126.442539 57.069544 L 126.715379 56.735081 L 126.986783 56.591534 L 128.441449 55.769013 L 131.073634 55.388615 L 132.433524 55.331196 L 132.505324 55.632644 L 132.755188 55.355599 L 133.299431 55.86806 L 133.359743 56.272861 L 136.536171 55.751787 Z M 140.357363 58.417446 " stroke="rgb(100%, 100%, 100%)" stroke-width="0.5" stroke-opacity="1" stroke-miterlimit="4"/><path stroke-linecap="butt" transform="matrix(2.720233, 0, 0, 2.721243, 12.081978, 0.000659437)" fill-opacity="1" fill="rgb(17.248535%, 44.309998%, 94.119263%)" fill-rule="nonzero" stroke-linejoin="miter" d="M 88.313913 29.472727 L 87.973582 29.472727 L 87.96353 30.3297 L 88.290937 30.799097 L 88.226317 31.180931 L 88.089898 31.743633 L 87.87737 32.319255 L 88.295245 32.711137 L 88.290937 33.034116 L 87.854394 32.98244 L 87.631814 32.811619 L 87.515498 32.518784 L 86.807551 32.218772 L 86.14412 31.757988 L 85.219337 31.778084 L 84.603294 31.753681 L 84.377842 31.908712 L 83.432955 31.605829 L 82.776704 31.143609 L 77.604238 30.939773 L 73.738531 30.710098 L 68.712537 30.319652 L 69.2855 23.15381 L 69.699068 19.939804 L 74.397654 20.291493 L 79.446624 20.558489 L 83.451623 20.710648 L 88.144466 20.594376 L 88.098514 21.108272 L 87.541346 21.498719 L 87.404926 21.976729 L 87.646174 22.523641 L 88.07841 22.802121 L 88.364173 26.181206 Z M 88.313913 29.472727 " stroke="rgb(100%, 100%, 100%)" stroke-width="0.5" stroke-opacity="1" stroke-miterlimit="4"/><path stroke-linecap="butt" transform="matrix(2.720233, 0, 0, 2.721243, 12.081978, 0.000659437)" fill-opacity="1" fill="rgb(17.248535%, 44.309998%, 94.119263%)" fill-rule="nonzero" stroke-linejoin="miter" d="M 124.236846 51.336297 L 128.417037 50.851109 L 129.824315 50.562581 L 129.821443 51.00901 L 129.930579 51.498504 L 129.383464 51.738227 L 129.041696 52.388492 L 128.544841 52.394234 L 127.602826 53.206708 L 127.329986 52.933969 L 126.688095 53.509591 L 126.738355 53.757926 L 126.238628 54.113922 L 126.003124 54.459869 L 125.397133 54.851751 L 124.749497 55.104392 L 124.186586 55.273777 L 123.837639 55.750352 L 123.691167 56.149411 L 123.113895 56.447988 L 123.146923 57.192994 L 121.620457 57.421233 L 119.403276 57.653779 L 115.707016 58.004032 L 112.088301 58.339931 L 108.920488 58.517929 L 106.08152 58.716023 L 106.39026 58.36864 L 106.288304 57.350895 L 106.713359 56.859966 L 106.783723 56.272861 L 107.26191 55.898205 L 107.517518 55.385744 L 107.526134 55.092909 L 107.686966 54.224452 L 107.824822 53.711991 L 107.873646 53.368915 L 111.910237 53.078951 L 111.852797 52.530604 L 112.4114 52.473185 L 112.517664 52.625344 L 114.269582 52.361219 L 115.785996 52.229156 L 117.434522 52.081303 L 119.058636 51.998046 L 119.859923 51.860241 L 122.352816 51.703776 Z M 124.236846 51.336297 " stroke="rgb(100%, 100%, 100%)" stroke-width="0.5" stroke-opacity="1" stroke-miterlimit="4"/><path stroke-linecap="butt" transform="matrix(2.720233, 0, 0, 2.721243, 12.081978, 0.000659437)" fill-opacity="1" fill="rgb(17.248535%, 44.309998%, 94.119263%)" fill-rule="nonzero" stroke-linejoin="miter" d="M 93.947335 64.073178 L 94.10673 64.299982 L 94.676822 64.242563 L 95.358921 64.242563 L 95.231117 66.243602 L 95.495341 70.008827 L 95.99794 70.396402 L 96.178876 70.937573 L 96.457459 71.74861 L 96.827947 72.543858 L 97.110839 73.018997 L 96.850923 74.319528 L 96.665679 74.707104 L 96.420124 75.55977 L 96.649883 75.789445 L 96.659935 76.497129 L 96.209032 76.976574 L 95.907472 77.50339 L 96.174568 77.96561 L 93.542383 78.760858 L 90.727826 81.420774 L 87.601658 82.95098 L 85.861228 84.634781 L 85.107329 86.229583 L 85.039837 88.694276 L 85.174821 90.415399 L 85.772196 91.645592 L 84.50421 91.733156 L 82.219537 90.89628 L 79.730952 89.712021 L 78.888021 88.000946 L 78.280593 85.474528 L 76.495648 83.36583 L 75.507681 81.231293 L 74.071682 78.720665 L 71.970817 77.181846 L 69.44346 77.081363 L 67.279411 79.731232 L 64.787954 78.456539 L 63.285899 77.243571 L 62.70432 75.229613 L 61.870005 73.2903 L 60.225787 71.557694 L 58.805585 70.28013 L 57.852082 68.910696 L 57.582114 68.312107 L 57.584986 68.007788 L 60.274611 68.312107 L 65.662477 68.837487 L 68.442569 69.065726 L 68.952349 62.459716 L 69.660296 53.288529 L 72.48634 53.49093 L 75.316693 53.660315 L 78.14561 53.80099 L 77.996266 57.236058 L 77.846922 60.584998 L 78.524713 60.99267 L 78.987105 61.298424 L 79.762544 61.093153 L 80.168931 61.836724 L 81.139666 62.11951 L 82.004137 62.33483 L 83.368335 62.286024 L 83.733079 63.141562 L 84.620526 62.808534 L 85.433301 63.368365 L 86.23028 63.605217 L 86.694107 63.102804 L 87.133523 63.694216 L 88.115746 63.510476 L 88.545109 63.684167 L 89.037656 63.539185 L 89.540256 63.253528 L 90.150555 63.246351 L 91.181602 63.279366 L 91.847905 63.036773 L 92.673604 63.401381 Z M 93.947335 64.073178 " stroke="rgb(100%, 100%, 100%)" stroke-width="0.5" stroke-opacity="1" stroke-miterlimit="4"/><path stroke-linecap="butt" transform="matrix(2.720233, 0, 0, 2.721243, 12.081978, 0.000659437)" fill-opacity="1" fill="rgb(17.248535%, 44.309998%, 94.119263%)" fill-rule="nonzero" stroke-linejoin="miter" d="M 54.886746 35.770113 L 52.90076 49.665415 L 48.869913 49.023762 L 43.543795 48.102194 L 39.077841 47.298333 L 42.525672 30.105768 L 50.219751 31.490991 L 49.645352 34.861463 Z M 54.886746 35.770113 " stroke="rgb(100%, 100%, 100%)" stroke-width="0.5" stroke-opacity="1" stroke-miterlimit="4"/><path stroke-linecap="butt" transform="matrix(2.720233, 0, 0, 2.721243, 12.081978, 0.000659437)" fill-opacity="1" fill="rgb(17.248535%, 44.309998%, 94.119263%)" fill-rule="nonzero" stroke-linejoin="miter" d="M 138.921364 39.162117 L 139.336368 39.199439 L 139.744191 39.383179 L 139.623568 39.792286 L 140.230995 39.88272 L 140.811138 40.161201 L 141.095466 40.408101 L 141.125622 40.611937 L 141.135674 40.900465 L 140.746518 41.319621 L 140.59861 42.147884 L 140.996382 42.259851 L 141.405641 42.018692 L 141.665557 42.467993 L 143.787962 44.018295 L 144.675409 45.539888 L 144.729977 45.631758 L 145.997964 47.582555 L 143.035499 48.250047 L 140.107499 48.885958 L 134.561674 49.918057 L 129.827187 50.562581 L 128.419909 50.851109 L 124.238282 51.336297 L 125.020901 51.027672 L 125.56658 50.73053 L 125.76762 50.355874 L 126.471259 49.833365 L 126.713943 49.424257 L 126.739791 49.132858 L 127.545386 48.597429 L 128.494581 47.394509 L 128.708545 47.964389 L 129.06898 48.228515 L 129.53568 48.440963 L 130.339839 47.882567 L 130.713198 48.070613 L 131.696857 47.609829 L 131.704037 47.28972 L 132.037189 47.358623 L 132.33444 47.048562 L 132.727904 47.031337 L 133.118495 46.68826 L 133.124239 46.36241 L 133.005051 45.970528 L 133.270711 45.307343 L 133.718743 44.763302 L 133.763259 44.229309 L 134.11795 43.531673 L 134.241446 42.733554 L 134.650705 42.934519 L 135.098737 43.106775 L 135.463481 42.901504 L 135.53528 42.562734 L 135.720524 42.084724 L 135.927308 41.539247 L 136.149888 41.645472 L 136.464371 41.124398 L 136.902351 40.571744 L 137.169446 40.165507 L 137.199602 39.208052 L 138.750481 39.86693 Z M 145.005689 45.268586 L 145.285709 45.348972 L 146.196132 42.269899 L 145.578652 42.466558 L 145.419257 42.747909 Z M 145.005689 45.268586 " stroke="rgb(100%, 100%, 100%)" stroke-width="0.5" stroke-opacity="1" stroke-miterlimit="4"/><path stroke-linecap="butt" transform="matrix(2.720233, 0, 0, 2.721243, 12.081978, 0.000659437)" fill-opacity="1" fill="rgb(17.248535%, 44.309998%, 94.119263%)" fill-rule="nonzero" stroke-linejoin="miter" d="M 149.820591 24.339504 L 147.735522 24.82182 L 147.123786 21.983906 L 146.761915 22.049937 L 146.682935 21.932229 L 146.715963 21.396801 L 146.263624 20.56136 L 146.331115 19.793386 L 146.062584 19.305328 L 145.746664 18.30768 L 145.732304 17.841154 L 145.6045 17.13634 L 150.064711 15.949211 L 150.067583 15.950646 L 150.040299 16.954036 L 150.353347 17.391853 L 150.374887 17.839718 L 149.936907 18.383759 L 149.510416 18.676594 L 149.517596 19.029719 L 149.609499 19.592421 L 149.533392 20.476668 L 149.411332 20.826921 L 149.320864 21.579105 L 149.45154 22.404497 L 149.431436 22.638478 L 149.608063 23.545692 L 149.527648 24.039492 Z M 149.820591 24.339504 " stroke="rgb(100%, 100%, 100%)" stroke-width="0.5" stroke-opacity="1" stroke-miterlimit="4"/><path stroke-linecap="butt" transform="matrix(2.720233, 0, 0, 2.721243, 12.081978, 0.000659437)" fill-opacity="1" fill="rgb(17.248535%, 44.309998%, 94.119263%)" fill-rule="nonzero" stroke-linejoin="miter" d="M 40.533943 4.320508 L 39.502896 8.746047 L 38.438821 13.570645 L 38.535033 14.147702 L 38.371329 14.754904 L 33.425751 13.562032 L 32.476557 13.696966 L 31.907901 13.386905 L 31.367966 13.539065 L 30.379999 13.676869 L 29.315924 13.335229 L 28.695573 13.458679 L 28.161382 13.438582 L 27.836846 13.15436 L 27.028379 12.765349 L 26.458288 12.716543 L 25.432985 12.805542 L 24.844226 12.640463 L 24.334446 12.347629 L 24.301418 11.819377 L 24.41199 11.233708 L 24.170743 10.45425 L 23.547519 10.050884 L 23.072204 9.567133 L 22.362821 9.325975 L 21.863093 9.218315 L 22.125881 6.211015 L 22.796492 2.836237 L 25.776189 4.45257 L 25.984408 7.425419 L 26.825903 6.697638 L 27.294039 3.795127 L 27.074331 0.658636 L 33.773263 2.603691 Z M 40.533943 4.320508 " stroke="rgb(100%, 100%, 100%)" stroke-width="0.5" stroke-opacity="1" stroke-miterlimit="4"/><path stroke-linecap="butt" transform="matrix(2.720233, 0, 0, 2.721243, 12.081978, 0.000659437)" fill-opacity="1" fill="rgb(17.248535%, 44.309998%, 94.119263%)" fill-rule="nonzero" stroke-linejoin="miter" d="M 103.130543 18.182794 L 103.153519 18.20002 L 103.298555 18.116763 L 103.301427 18.128247 L 103.693455 18.220116 L 103.93183 18.843108 L 106.11742 19.323989 L 107.583574 19.849369 L 108.275725 19.797693 L 108.758221 19.801999 L 108.943464 20.370443 L 109.546584 20.541263 L 109.809371 21.016402 L 109.68444 21.313544 L 109.622692 21.894907 L 110.172679 21.876246 L 110.040567 22.459045 L 110.409619 22.843749 L 110.411055 22.838008 L 110.478547 22.856669 L 110.458443 22.892555 L 109.592536 24.247634 L 109.970203 24.633774 L 111.591445 22.19779 L 111.963369 22.148984 L 110.92945 24.976851 L 110.586246 27.47456 L 110.280379 29.501437 L 110.758566 31.188108 L 110.767182 32.047952 L 110.758566 32.047952 L 110.758566 32.058 L 108.761093 32.198676 L 106.0528 32.398205 L 103.403383 32.56759 L 103.120491 32.046516 L 102.257457 31.757988 L 102.060725 31.208205 L 101.938665 30.901015 L 101.891277 30.163186 L 102.105241 29.884706 L 101.741933 29.344971 L 101.695981 29.15549 L 101.608385 28.762172 L 101.556689 27.916683 L 101.459041 27.62959 L 100.574467 27.153016 L 99.908163 26.577394 L 99.712868 26.205609 L 99.419924 25.980241 L 98.582737 25.513715 L 98.281177 25.493618 L 97.521534 24.841917 L 97.571794 24.063895 L 97.538766 23.10644 L 97.696726 22.21358 L 97.152483 21.570492 L 97.481326 20.908743 L 97.995414 20.549876 L 98.588481 20.135027 L 98.666025 20.135027 L 98.559761 18.152649 L 99.193036 17.928717 L 101.592589 17.070309 Z M 103.130543 18.182794 " stroke="rgb(100%, 100%, 100%)" stroke-width="0.5" stroke-opacity="1" stroke-miterlimit="4"/><path stroke-linecap="butt" transform="matrix(2.720233, 0, 0, 2.721243, 12.081978, 0.000659437)" fill-opacity="1" fill="rgb(17.248535%, 44.309998%, 94.119263%)" fill-rule="nonzero" stroke-linejoin="miter" d="M 133.977222 38.697026 L 134.27591 40.451165 L 134.630602 40.06646 L 135.015449 39.584144 L 135.519484 39.347292 L 135.806684 38.919523 L 136.619459 38.905169 L 136.860707 38.592237 L 137.321662 38.231936 L 138.199057 38.341031 L 138.622677 38.765929 L 138.921364 39.162117 L 138.751917 39.868366 L 137.201038 39.209487 L 137.169446 40.166942 L 136.903787 40.573179 L 136.464371 41.125833 L 136.151324 41.646907 L 135.928744 41.540683 L 135.720524 42.084724 L 135.533844 42.564169 L 135.463481 42.901504 L 135.100173 43.106775 L 134.650705 42.934519 L 134.241446 42.733554 L 134.11795 43.531673 L 133.761823 44.229309 L 133.718743 44.763302 L 133.272147 45.307343 L 133.003615 45.970528 L 133.119931 46.368152 L 133.115623 46.694002 L 132.726468 47.037079 L 132.333004 47.054304 L 132.034317 47.3658 L 131.702601 47.294027 L 131.695421 47.614135 L 130.710326 48.07492 L 130.338403 47.885438 L 129.532808 48.443834 L 129.06898 48.231385 L 128.707109 47.96726 L 128.494581 47.39738 L 127.94603 47.416041 L 127.605698 47.038514 L 127.136127 46.649503 L 126.923599 46.144219 L 126.515775 45.650419 L 126.438231 44.92838 L 126.337712 44.606836 L 127.001143 44.415919 L 127.282598 43.881926 L 127.209362 43.106775 L 127.473586 42.295737 L 127.85269 42.324447 L 127.947466 42.704845 L 128.167173 42.529718 L 128.197329 42.179465 L 128.208817 41.537812 L 128.714289 40.845917 L 129.051748 40.87032 L 129.397824 40.713855 L 129.680715 40.494229 L 130.278091 39.584144 L 130.262295 39.220971 L 130.395843 38.43003 L 130.516466 37.484058 L 130.503542 36.665843 L 130.316863 36.245252 L 130.65145 36.009836 L 131.200002 39.190826 Z M 133.977222 38.697026 " stroke="rgb(100%, 100%, 100%)" stroke-width="0.5" stroke-opacity="1" stroke-miterlimit="4"/><path stroke-linecap="butt" transform="matrix(2.720233, 0, 0, 2.721243, 12.081978, 0.000659437)" fill-opacity="1" fill="rgb(17.248535%, 44.309998%, 94.119263%)" fill-rule="nonzero" stroke-linejoin="miter" d="M 69.2855 23.15381 L 68.712537 30.319652 L 68.113726 37.306061 L 65.461437 37.057725 L 60.168347 36.472055 L 57.52611 36.136156 L 54.886746 35.770113 L 49.643916 34.861463 L 50.219751 31.490991 L 51.664365 22.860975 L 51.585386 22.78346 L 51.651441 22.667187 L 51.935769 20.898694 L 56.808111 21.635088 L 60.659459 22.199226 L 65.136901 22.708816 Z M 69.2855 23.15381 " stroke="rgb(100%, 100%, 100%)" stroke-width="0.5" stroke-opacity="1" stroke-miterlimit="4"/></svg>