<svg width="24" height="24" viewBox="0 0 24 24" fill="none" xmlns="http://www.w3.org/2000/svg">
<path d="M17.9883 8.00336C17.9883 6.41206 17.3561 4.88593 16.2309 3.76072C15.1057 2.6355 13.5796 2.00336 11.9883 2.00336C10.397 2.00336 8.87086 2.6355 7.74564 3.76072C6.62042 4.88593 5.98828 6.41206 5.98828 8.00336C5.98828 15.0034 2.98828 17.0034 2.98828 17.0034H20.9883C20.9883 17.0034 17.9883 15.0034 17.9883 8.00336Z" stroke="white" stroke-width="2" stroke-linecap="round" stroke-linejoin="round"/>
<path d="M13.7232 21.0021C13.5474 21.3052 13.295 21.5567 12.9914 21.7316C12.6878 21.9065 12.3436 21.9985 11.9932 21.9985C11.6428 21.9985 11.2986 21.9065 10.995 21.7316C10.6913 21.5567 10.439 21.3052 10.2632 21.0021" stroke="white" stroke-width="2" stroke-linecap="round" stroke-linejoin="round"/>
</svg>
