<svg width="26" height="26" viewBox="0 0 26 26" fill="none" xmlns="http://www.w3.org/2000/svg">
<path d="M18.8089 1H1V24.3121H18.8089V1Z" fill="white" stroke="#15357A" stroke-width="1.5" stroke-miterlimit="10" stroke-linecap="round" stroke-linejoin="round"/>
<path opacity="0.1" d="M11.7002 3.14014H2.83398V4.59236H11.7002V3.14014Z" fill="#15357A"/>
<path opacity="0.1" d="M11.7002 5.58594H2.83398V7.03816H11.7002V5.58594Z" fill="#15357A"/>
<path opacity="0.1" d="M11.7002 8.03186H2.83398V9.48409H11.7002V8.03186Z" fill="#15357A"/>
<path opacity="0.1" d="M17.0505 10.4777H2.83398V11.9299H17.0505V10.4777Z" fill="#15357A"/>
<path opacity="0.1" d="M16.9744 12.9236H2.75781V14.3758H16.9744V12.9236Z" fill="#15357A"/>
<path opacity="0.1" d="M16.9744 15.3694H2.75781V16.8216H16.9744V15.3694Z" fill="#15357A"/>
<path opacity="0.1" d="M16.9744 17.8153H2.75781V19.2675H16.9744V17.8153Z" fill="#15357A"/>
<path opacity="0.1" d="M16.9744 20.3375H2.75781V21.7898H16.9744V20.3375Z" fill="#15357A"/>
<path d="M20.7195 23.3949L13.0762 9.02549L13.3055 5.81531L16.0571 7.4204L23.7004 21.7898L20.7195 23.3949Z" fill="white" stroke="#15357A" stroke-width="1.5" stroke-miterlimit="10" stroke-linecap="round" stroke-linejoin="round"/>
<path d="M20.7188 23.3949L23.6996 21.7898L24.3875 23.1656C24.464 23.3949 24.3875 23.6242 24.2347 23.7006L22.0181 24.9235C21.7888 25 21.5595 24.9235 21.4831 24.7707L20.7188 23.3949Z" fill="white" stroke="#15357A" stroke-width="1.5" stroke-miterlimit="10" stroke-linecap="round" stroke-linejoin="round"/>
<path opacity="0.1" d="M21.5602 25L13.0762 9.02549L13.3055 5.81531L23.0889 24.1592L21.5602 25Z" fill="#15357A"/>
</svg>
