<svg width="27" height="26" viewBox="0 0 27 26" fill="none" xmlns="http://www.w3.org/2000/svg">
<path d="M22.2665 12.7611H23.765V12.2583C23.7719 11.8515 23.7483 11.4448 23.6946 11.0415C23.6906 8.37431 22.6272 5.81798 20.7384 3.93484C18.8496 2.0517 16.2901 0.996011 13.6229 1.00001C10.9558 1.00401 8.39945 2.06737 6.51631 3.95617C4.63317 5.84497 3.57748 8.40448 3.58148 11.0716C3.55617 11.4668 3.55617 11.8632 3.58148 12.2583V12.7611H4.74804" stroke="#15357A" stroke-width="1.5" stroke-linecap="round" stroke-linejoin="round"/>
<path d="M3.24076 18.5033C3.24076 18.5033 3.07986 23.9942 8.37965 23.5818" stroke="#15357A" stroke-width="1.5" stroke-linecap="round" stroke-linejoin="round"/>
<path d="M10.5832 22.0736H9.79883C9.01571 22.0736 8.38086 22.7085 8.38086 23.4916V23.5821C8.38086 24.3652 9.01571 25.0001 9.79883 25.0001H10.5832C11.3664 25.0001 12.0012 24.3652 12.0012 23.5821V23.4916C12.0012 22.7085 11.3664 22.0736 10.5832 22.0736Z" fill="#E9E9FF" stroke="#15357A" stroke-width="1.5" stroke-linecap="round" stroke-linejoin="round"/>
<path d="M21.1621 9.00001C21.5369 8.86908 21.9317 8.80442 22.3287 8.80894C23.274 8.80081 24.1844 9.16586 24.8622 9.82485C25.54 10.4838 25.9305 11.3836 25.949 12.3287V16.462C25.9358 17.4106 25.5475 18.3155 24.8692 18.9788C24.1908 19.6421 23.2774 20.0099 22.3287 20.0019C21.9321 20.0014 21.5381 19.9369 21.1621 19.8108V9.00001Z" fill="white" stroke="#15357A" stroke-width="1.5" stroke-linecap="round" stroke-linejoin="round"/>
<path opacity="0.1" d="M25.013 10.0762C25.013 10.0762 24.5906 19.3483 21.1211 18.7449V19.8712C21.1211 19.8712 28.6233 21.9429 25.013 10.0762Z" fill="#15357A"/>
<path d="M5.5938 8.98981C5.22885 8.86212 4.84398 8.80081 4.45741 8.8088C3.5594 8.81145 2.69892 9.16936 2.06392 9.80436C1.42892 10.4394 1.07101 11.2998 1.06836 12.1979V16.1501C1.07101 17.0481 1.42892 17.9086 2.06392 18.5436C2.69892 19.1786 3.5594 19.5365 4.45741 19.5391C4.84303 19.545 5.22697 19.4872 5.5938 19.3682V8.98981Z" fill="white" stroke="#15357A" stroke-width="1.5" stroke-linecap="round" stroke-linejoin="round"/>
<path opacity="0.1" d="M1.9034 9.97546C1.9034 9.97546 2.29561 18.8554 5.59415 18.2721V19.3683C5.59415 19.3683 -1.44542 21.3796 1.9034 9.97546Z" fill="#15357A"/>
<path d="M17.0479 1.76917H10.3201C9.7647 1.76917 9.31445 2.21941 9.31445 2.77482C9.31445 3.33023 9.7647 3.78047 10.3201 3.78047H17.0479C17.6033 3.78047 18.0536 3.33023 18.0536 2.77482C18.0536 2.21941 17.6033 1.76917 17.0479 1.76917Z" fill="#E9F2FF" stroke="#15357A" stroke-linecap="round" stroke-linejoin="round"/>
</svg>
