<svg width="24" height="24" viewBox="0 0 24 24" fill="none" xmlns="http://www.w3.org/2000/svg">
<circle cx="12" cy="12" r="12" fill="#1C4396"/>
<g clip-path="url(#clip0)">
<path d="M15.9991 8.1665C15.9991 7.10564 15.5777 6.08822 14.8275 5.33808C14.0774 4.58793 13.06 4.1665 11.9991 4.1665C10.9382 4.1665 9.92083 4.58793 9.17069 5.33808C8.42054 6.08822 7.99911 7.10564 7.99911 8.1665V11.3332C7.99911 11.4216 8.03423 11.5064 8.09675 11.5689C8.15926 11.6314 8.24404 11.6665 8.33245 11.6665H15.6658C15.7542 11.6665 15.839 11.6314 15.9015 11.5689C15.964 11.5064 15.9991 11.4216 15.9991 11.3332V8.1665Z" fill="white"/>
<path d="M11.9991 15.9998C12.8695 15.9995 13.716 15.7152 14.4103 15.1901C15.1045 14.6651 15.6085 13.9279 15.8458 13.0905C15.8598 13.0409 15.8621 12.9888 15.8526 12.9382C15.8431 12.8876 15.822 12.8398 15.7909 12.7988C15.7598 12.7577 15.7197 12.7244 15.6735 12.7014C15.6274 12.6785 15.5766 12.6665 15.5251 12.6665H8.47313C8.42162 12.6665 8.37082 12.6785 8.32471 12.7014C8.2786 12.7244 8.23843 12.7577 8.20736 12.7988C8.1763 12.8398 8.15517 12.8876 8.14564 12.9382C8.13612 12.9888 8.13845 13.0409 8.15246 13.0905C8.38979 13.9279 8.89379 14.6651 9.588 15.1901C10.2822 15.7152 11.1287 15.9995 11.9991 15.9998V15.9998Z" fill="#E9F2FF"/>
<path d="M17.9992 9.5C17.8224 9.5 17.6528 9.57024 17.5278 9.69526C17.4028 9.82029 17.3325 9.98986 17.3325 10.1667V11.6667C17.3401 12.3692 17.2073 13.0661 16.942 13.7166C16.6767 14.3671 16.2841 14.958 15.7873 15.4548C15.2906 15.9516 14.6996 16.3441 14.0491 16.6095C13.3986 16.8748 12.7017 17.0076 11.9992 17C11.2967 17.0076 10.5998 16.8748 9.94927 16.6095C9.29877 16.3441 8.70781 15.9516 8.21104 15.4548C7.71428 14.958 7.32171 14.3671 7.05638 13.7166C6.79104 13.0661 6.65827 12.3692 6.66585 11.6667V10.1667C6.66585 9.98986 6.59561 9.82029 6.47059 9.69526C6.34556 9.57024 6.176 9.5 5.99918 9.5C5.82237 9.5 5.6528 9.57024 5.52778 9.69526C5.40276 9.82029 5.33252 9.98986 5.33252 10.1667V11.6667C5.31396 13.2992 5.90251 14.8804 6.98396 16.1036C8.06541 17.3267 9.56266 18.1045 11.1852 18.286C11.2257 18.2907 11.2631 18.3102 11.2903 18.3407C11.3174 18.3711 11.3325 18.4105 11.3325 18.4513V19.1667C11.3325 19.3435 11.4028 19.513 11.5278 19.6381C11.6528 19.7631 11.8224 19.8333 11.9992 19.8333C12.176 19.8333 12.3456 19.7631 12.4706 19.6381C12.5956 19.513 12.6659 19.3435 12.6659 19.1667V18.4513C12.666 18.4106 12.6811 18.3713 12.7083 18.3408C12.7354 18.3104 12.7727 18.2909 12.8132 18.286C14.4357 18.1045 15.933 17.3267 17.0144 16.1036C18.0959 14.8804 18.6844 13.2992 18.6658 11.6667V10.1667C18.6658 9.98986 18.5956 9.82029 18.4706 9.69526C18.3456 9.57024 18.176 9.5 17.9992 9.5Z" fill="white"/>
</g>
<defs>
<clipPath id="clip0">
<rect width="16" height="16" fill="white" transform="translate(3.99902 4)"/>
</clipPath>
</defs>
</svg>
