<svg width="148" height="63" viewBox="0 0 148 63" fill="none" xmlns="http://www.w3.org/2000/svg">
<g filter="url(#filter0_d)">
<path d="M134.368 3.26122H13.6316C9.32957 3.26122 5.8421 6.76545 5.8421 11.0881V46.3093C5.8421 50.632 9.32957 54.1362 13.6316 54.1362H134.368C138.67 54.1362 142.158 50.632 142.158 46.3093V11.0881C142.158 6.76545 138.67 3.26122 134.368 3.26122Z" fill="white" stroke="#F3F3F3"/>
<path fill-rule="evenodd" clip-rule="evenodd" d="M12.9825 2.60897H57.1228V54.7885H12.9825C8.68044 54.7885 5.19298 51.2842 5.19298 46.9615V10.4359C5.19298 6.11321 8.68044 2.60897 12.9825 2.60897Z" fill="#2C71F0"/>
<path d="M31.158 10.4359L31.7468 12.3508H33.6526L32.1109 13.5343L32.6997 15.4492L31.158 14.265L29.6165 15.4492L30.2055 13.5343L28.6632 12.3508H30.569L31.158 10.4359Z" fill="#F8D12E"/>
<path d="M31.158 41.9482L31.7468 43.8637H33.6526L32.1109 45.047L32.6997 46.9615L31.158 45.7784L29.6165 46.9615L30.2055 45.047L28.6632 43.8637H30.569L31.158 41.9482Z" fill="#F8D12E"/>
<path d="M38.9983 13.3007L39.5869 15.2156H41.493L39.9509 16.3995L40.5399 18.314L38.9983 17.1301L37.4563 18.314L38.0453 16.3995L36.5036 15.2156H38.4097L38.9983 13.3007Z" fill="#F8D12E"/>
<path d="M45.337 33.9167L45.9256 35.8322H47.8314L46.2896 37.0156L46.8789 38.93L45.337 37.747L43.7951 38.93L44.3841 37.0156L42.8421 35.8322H44.7481L45.337 33.9167Z" fill="#F8D12E"/>
<path d="M46.8388 26.1921L47.4274 28.1068H49.3333L47.7915 29.2902L48.3804 31.2054L46.8388 30.0225L45.297 31.2054L45.8862 29.2902L44.344 28.1068H46.2495L46.8388 26.1921Z" fill="#F8D12E"/>
<path d="M15.4775 26.1921L16.0661 28.1068H17.9718L16.4298 29.2902L17.0191 31.2054L15.4775 30.0225L13.9354 31.2054L14.5244 29.2902L12.9825 28.1068H14.8885L15.4775 26.1921Z" fill="#F8D12E"/>
<path d="M16.7757 33.9167L17.3643 35.8322H19.27L17.7285 37.0156L18.317 38.93L16.7757 37.747L15.2337 38.93L15.8227 37.0156L14.2807 35.8322H16.1868L16.7757 33.9167Z" fill="#F8D12E"/>
<path d="M45.337 18.2628L45.9256 20.1784H47.8314L46.2896 21.3618L46.8789 23.2761L45.337 22.0932L43.7951 23.2761L44.3841 21.3618L42.8421 20.1784H44.7481L45.337 18.2628Z" fill="#F8D12E"/>
<path d="M17.4248 18.2628L18.0135 20.1784H19.9192L18.3776 21.3618L18.9661 23.2761L17.4248 22.0932L15.8829 23.2761L16.4718 21.3618L14.9298 20.1784H16.8359L17.4248 18.2628Z" fill="#F8D12E"/>
<path d="M40.424 40.5158L41.0125 42.4305H42.9185L41.3762 43.6145L41.9655 45.5292L40.424 44.3459L38.8817 45.5292L39.4711 43.6145L37.9291 42.4305H39.8351L40.424 40.5158Z" fill="#F8D12E"/>
<path d="M23.3175 13.3007L23.9061 15.2156H25.8122L24.2702 16.3995L24.8595 18.314L23.3175 17.1301L21.7759 18.314L22.3648 16.3995L20.8228 15.2156H22.7285L23.3175 13.3007Z" fill="#F8D12E"/>
<path d="M21.8918 40.5158L22.4807 42.4315H24.3866L22.8448 43.6144L23.4337 45.5292L21.8918 44.3466L20.3503 45.5292L20.9392 43.6144L19.3973 42.4315H21.3029L21.8918 40.5158Z" fill="#F8D12E"/>
<path fill-rule="evenodd" clip-rule="evenodd" d="M66.2105 22.9534C66.2105 26.6374 69.0189 28.9485 72.4687 28.9485C74.653 28.9485 76.3345 28.0623 77.5827 26.6895V22.1541H72.0006V24.639H74.653V25.6121C74.1849 25.9944 73.3701 26.3072 72.4687 26.3072C70.5791 26.3072 69.2442 24.8475 69.2442 22.9534C69.2442 21.0593 70.5791 19.5996 72.4687 19.5996C73.5608 19.5996 74.4449 20.2078 74.913 20.9724L77.4093 19.6518C76.5599 18.2095 74.9997 16.9583 72.4687 16.9583C69.0189 16.9583 66.2105 19.2695 66.2105 22.9534ZM79.3336 28.74V17.1495H84.1876C87.828 17.1495 90.4457 19.339 90.4457 22.936C90.4457 26.5331 87.828 28.74 84.2049 28.74H79.3336ZM82.3153 26.1334H84.1876C86.2158 26.1334 87.3946 24.6564 87.3946 22.936C87.3946 21.1462 86.3198 19.756 84.2049 19.756H82.3153V26.1334ZM91.9366 28.74V17.1495H97.7267C100.327 17.1495 101.749 18.9046 101.749 21.0072C101.749 23.0924 100.327 24.8128 97.7267 24.8128H94.9183V28.74H91.9366ZM98.7148 20.9898C98.7148 20.1905 98.1254 19.6692 97.328 19.6692H94.9183V22.2757H97.328C98.1254 22.2757 98.7148 21.7718 98.7148 20.9898ZM109.532 28.74L107.591 24.8128H106.065V28.74H103.083V17.1495H108.873C111.439 17.1495 112.895 18.8524 112.895 21.0072C112.895 23.0229 111.665 24.1003 110.59 24.4826L112.947 28.74H109.532ZM109.862 20.9724C109.862 20.1731 109.203 19.6692 108.423 19.6692H106.065V22.2757H108.423C109.203 22.2757 109.862 21.7718 109.862 20.9724Z" fill="#15357A"/>
<path d="M35.2381 27.5721H34.6817V25.8377C34.6817 23.8191 33.1006 22.1763 31.1579 22.1763C29.2152 22.1763 27.6341 23.8191 27.6341 25.8377V27.5721H27.0777C26.4633 27.5721 25.9649 28.09 25.9649 28.7284V33.3534C25.9649 33.9917 26.4633 34.5096 27.0777 34.5096H35.2381C35.8524 34.5096 36.3509 33.9917 36.3509 33.3534V28.7284C36.3509 28.09 35.8524 27.5721 35.2381 27.5721ZM32.8271 27.5721H29.4887V25.8377C29.4887 24.8814 30.2375 24.1034 31.1579 24.1034C32.0782 24.1034 32.8271 24.8814 32.8271 25.8377V27.5721Z" fill="white"/>
<path d="M70.6745 36.7162C70.6318 36.5508 70.5732 36.3988 70.4985 36.2602C70.4238 36.1215 70.3278 36.0015 70.2105 35.9002C70.0932 35.7988 69.9545 35.7215 69.7945 35.6682C69.6398 35.6095 69.4585 35.5802 69.2505 35.5802C68.9465 35.5802 68.6825 35.6415 68.4585 35.7642C68.2398 35.8868 68.0612 36.0522 67.9225 36.2602C67.7838 36.4628 67.6798 36.6948 67.6105 36.9562C67.5465 37.2175 67.5145 37.4842 67.5145 37.7562C67.5145 38.0282 67.5465 38.2948 67.6105 38.5562C67.6798 38.8175 67.7838 39.0522 67.9225 39.2602C68.0612 39.4628 68.2398 39.6255 68.4585 39.7482C68.6825 39.8708 68.9465 39.9322 69.2505 39.9322C69.4745 39.9322 69.6718 39.8948 69.8425 39.8202C70.0132 39.7402 70.1598 39.6335 70.2825 39.5002C70.4052 39.3615 70.5012 39.2015 70.5705 39.0202C70.6398 38.8388 70.6852 38.6442 70.7065 38.4362H71.6825C71.6612 38.7775 71.5865 39.0895 71.4585 39.3722C71.3358 39.6548 71.1678 39.9002 70.9545 40.1082C70.7412 40.3108 70.4905 40.4682 70.2025 40.5802C69.9145 40.6922 69.5972 40.7482 69.2505 40.7482C68.8238 40.7482 68.4398 40.6708 68.0985 40.5162C67.7625 40.3562 67.4772 40.1402 67.2425 39.8682C67.0078 39.5962 66.8265 39.2788 66.6985 38.9162C66.5758 38.5535 66.5145 38.1668 66.5145 37.7562C66.5145 37.3508 66.5758 36.9668 66.6985 36.6042C66.8265 36.2415 67.0078 35.9242 67.2425 35.6522C67.4772 35.3802 67.7625 35.1642 68.0985 35.0042C68.4398 34.8442 68.8238 34.7642 69.2505 34.7642C69.5705 34.7642 69.8718 34.8095 70.1545 34.9002C70.4372 34.9855 70.6852 35.1135 70.8985 35.2842C71.1172 35.4495 71.2932 35.6522 71.4265 35.8922C71.5598 36.1322 71.6425 36.4068 71.6745 36.7162H70.6745ZM75.0239 35.5802C74.7199 35.5802 74.4559 35.6415 74.2319 35.7642C74.0133 35.8868 73.8346 36.0522 73.6959 36.2602C73.5573 36.4628 73.4533 36.6948 73.3839 36.9562C73.3199 37.2175 73.2879 37.4842 73.2879 37.7562C73.2879 38.0282 73.3199 38.2948 73.3839 38.5562C73.4533 38.8175 73.5573 39.0522 73.6959 39.2602C73.8346 39.4628 74.0133 39.6255 74.2319 39.7482C74.4559 39.8708 74.7199 39.9322 75.0239 39.9322C75.3279 39.9322 75.5893 39.8708 75.8079 39.7482C76.0319 39.6255 76.2133 39.4628 76.3519 39.2602C76.4906 39.0522 76.5919 38.8175 76.6559 38.5562C76.7253 38.2948 76.7599 38.0282 76.7599 37.7562C76.7599 37.4842 76.7253 37.2175 76.6559 36.9562C76.5919 36.6948 76.4906 36.4628 76.3519 36.2602C76.2133 36.0522 76.0319 35.8868 75.8079 35.7642C75.5893 35.6415 75.3279 35.5802 75.0239 35.5802ZM75.0239 34.7642C75.4506 34.7642 75.8319 34.8442 76.1679 35.0042C76.5093 35.1642 76.7973 35.3802 77.0319 35.6522C77.2666 35.9242 77.4453 36.2415 77.5679 36.6042C77.6959 36.9668 77.7599 37.3508 77.7599 37.7562C77.7599 38.1668 77.6959 38.5535 77.5679 38.9162C77.4453 39.2788 77.2666 39.5962 77.0319 39.8682C76.7973 40.1402 76.5093 40.3562 76.1679 40.5162C75.8319 40.6708 75.4506 40.7482 75.0239 40.7482C74.5973 40.7482 74.2133 40.6708 73.8719 40.5162C73.5359 40.3562 73.2506 40.1402 73.0159 39.8682C72.7813 39.5962 72.5999 39.2788 72.4719 38.9162C72.3493 38.5535 72.2879 38.1668 72.2879 37.7562C72.2879 37.3508 72.3493 36.9668 72.4719 36.6042C72.5999 36.2415 72.7813 35.9242 73.0159 35.6522C73.2506 35.3802 73.5359 35.1642 73.8719 35.0042C74.2133 34.8442 74.5973 34.7642 75.0239 34.7642ZM78.6541 34.9002H80.0621L81.6381 39.3722H81.6541L83.1901 34.9002H84.5821V40.6122H83.6301V36.2042H83.6141L82.0301 40.6122H81.2061L79.6221 36.2042H79.6061V40.6122H78.6541V34.9002ZM85.7794 34.9002H88.2994C88.7048 34.9002 89.0354 34.9588 89.2914 35.0762C89.5474 35.1935 89.7448 35.3402 89.8834 35.5162C90.0221 35.6922 90.1154 35.8842 90.1634 36.0922C90.2168 36.3002 90.2434 36.4922 90.2434 36.6682C90.2434 36.8442 90.2168 37.0362 90.1634 37.2442C90.1154 37.4468 90.0221 37.6362 89.8834 37.8122C89.7448 37.9882 89.5474 38.1348 89.2914 38.2522C89.0354 38.3642 88.7048 38.4202 88.2994 38.4202H86.7794V40.6122H85.7794V34.9002ZM86.7794 37.6042H88.2434C88.3554 37.6042 88.4701 37.5882 88.5874 37.5562C88.7048 37.5242 88.8114 37.4735 88.9074 37.4042C89.0088 37.3295 89.0888 37.2335 89.1474 37.1162C89.2114 36.9935 89.2434 36.8415 89.2434 36.6602C89.2434 36.4735 89.2168 36.3188 89.1634 36.1962C89.1101 36.0735 89.0381 35.9775 88.9474 35.9082C88.8568 35.8335 88.7528 35.7828 88.6354 35.7562C88.5181 35.7295 88.3928 35.7162 88.2594 35.7162H86.7794V37.6042ZM91.1154 34.9002H92.1154V39.7482H95.0194V40.6122H91.1154V34.9002ZM95.7091 34.9002H96.7091V40.6122H95.7091V34.9002ZM99.4637 34.9002H100.528L102.728 40.6122H101.656L101.12 39.1002H98.8397L98.3037 40.6122H97.2717L99.4637 34.9002ZM99.1117 38.3402H100.856L99.9997 35.8842H99.9757L99.1117 38.3402ZM103.232 34.9002H104.288L106.896 39.1082H106.912V34.9002H107.864V40.6122H106.808L104.208 36.4122H104.184V40.6122H103.232V34.9002ZM108.501 34.9002H113.125V35.7642H111.309V40.6122H110.309V35.7642H108.501V34.9002Z" fill="#15357A"/>
</g>
<defs>
<filter id="filter0_d" x="1.19298" y="0.608974" width="145.465" height="60.1795" filterUnits="userSpaceOnUse" color-interpolation-filters="sRGB">
<feFlood flood-opacity="0" result="BackgroundImageFix"/>
<feColorMatrix in="SourceAlpha" type="matrix" values="0 0 0 0 0 0 0 0 0 0 0 0 0 0 0 0 0 0 127 0"/>
<feOffset dy="2"/>
<feGaussianBlur stdDeviation="2"/>
<feColorMatrix type="matrix" values="0 0 0 0 0.847059 0 0 0 0 0.866667 0 0 0 0 0.890196 0 0 0 1 0"/>
<feBlend mode="normal" in2="BackgroundImageFix" result="effect1_dropShadow"/>
<feBlend mode="normal" in="SourceGraphic" in2="effect1_dropShadow" result="shape"/>
</filter>
</defs>
</svg>
