<svg width="128" height="128" viewBox="0 0 128 128" fill="none" xmlns="http://www.w3.org/2000/svg">
<path opacity="0.1" d="M63.9653 114.078C81.9146 114.078 96.4653 112.959 96.4653 111.578C96.4653 110.197 81.9146 109.078 63.9653 109.078C46.0161 109.078 31.4653 110.197 31.4653 111.578C31.4653 112.959 46.0161 114.078 63.9653 114.078Z" fill="#15357A"/>
<path d="M80.2653 26.1778L79.3653 23.9778L77.3653 22.5778L79.5653 21.6778L80.9653 19.6778L81.8653 21.9778L83.8653 23.3778L81.6653 24.2778L80.2653 26.1778Z" fill="#15357A"/>
<path d="M20.0653 50.9778L18.3653 50.0778L16.4653 50.1778L17.3653 48.4778L17.2653 46.5778L18.9653 47.4778L20.8653 47.3778L19.9653 49.0778L20.0653 50.9778Z" fill="#2C71F0"/>
<path d="M108.065 95.0778L106.965 94.4778L105.665 94.5778L106.265 93.3778V92.0778L107.365 92.7778L108.665 92.6778L107.965 93.7778L108.065 95.0778Z" fill="#15357A"/>
<path d="M86.8653 62.6777H90.7653V61.3777C90.7653 60.2777 90.6653 59.2777 90.5653 58.1777C88.9653 45.0777 77.8653 34.9777 64.3653 34.9777C50.7653 34.9777 39.6653 45.1777 38.1653 58.2777C38.0653 59.2777 37.9653 60.3777 37.9653 61.3777V62.6777H41.0653" stroke="#15357A" stroke-width="1.5" stroke-miterlimit="10" stroke-linecap="round" stroke-linejoin="round"/>
<path d="M37.1652 77.6777C37.1652 77.6777 36.7652 92.0777 50.5652 90.9777" stroke="#15357A" stroke-width="1.5" stroke-miterlimit="10" stroke-linecap="round" stroke-linejoin="round"/>
<path d="M59.7653 94.6777H54.1653C52.2653 94.6777 50.6653 93.0777 50.6653 91.1777V90.5777C50.6653 88.6777 52.2653 87.0777 54.1653 87.0777H59.7653C61.6653 87.0777 63.2653 88.6777 63.2653 90.5777V91.1777C63.2653 93.0777 61.6653 94.6777 59.7653 94.6777Z" fill="#EAF1FE" stroke="#2C71F0" stroke-width="1.5" stroke-miterlimit="10" stroke-linecap="round" stroke-linejoin="round"/>
<path d="M83.9652 52.7777C84.9652 52.4777 85.9652 52.2777 86.9652 52.2777C92.1652 52.2777 96.4652 56.4777 96.4652 61.4777V72.2777C96.4652 77.3777 92.1652 81.4777 86.9652 81.4777C85.8652 81.4777 84.8652 81.2777 83.9652 80.9777V52.7777Z" fill="white" stroke="#15357A" stroke-width="1.5" stroke-miterlimit="10" stroke-linecap="round" stroke-linejoin="round"/>
<path opacity="0.1" d="M94.0652 55.6777C94.0652 55.6777 92.9653 79.8777 83.8652 78.2777V81.2777C83.8652 81.2777 103.465 86.6777 94.0652 55.6777Z" fill="#15357A"/>
<path d="M43.1653 52.7777C42.2653 52.4777 41.3653 52.2777 40.3653 52.2777C35.4653 52.2777 31.4653 56.2777 31.4653 61.1777V71.4777C31.4653 76.3777 35.4653 80.3777 40.3653 80.3777C41.3653 80.3777 42.2653 80.1777 43.1653 79.8777V52.7777Z" fill="white" stroke="#15357A" stroke-width="1.5" stroke-miterlimit="10" stroke-linecap="round" stroke-linejoin="round"/>
<path opacity="0.1" d="M33.6653 55.3777C33.6653 55.3777 34.6652 78.5777 43.1652 77.0777V79.8777C43.1652 79.8777 24.8653 85.0777 33.6653 55.3777Z" fill="#15357A"/>
<path d="M72.5653 40.0777H56.1653C54.3653 40.0777 52.9653 38.6777 52.9653 36.8777V36.3777C52.9653 34.5777 54.3653 33.1777 56.1653 33.1777H72.5653C74.3653 33.1777 75.7653 34.5777 75.7653 36.3777V36.8777C75.7653 38.5777 74.3653 40.0777 72.5653 40.0777Z" fill="#EAF1FE" stroke="#15357A" stroke-width="1.5" stroke-miterlimit="10" stroke-linecap="round" stroke-linejoin="round"/>
</svg>
