<svg width="128" height="128" viewBox="0 0 128 128" fill="none" xmlns="http://www.w3.org/2000/svg">
<path d="M87.1154 23.7613L39.3536 30.2002L48.2966 96.536L96.0583 90.0971L87.1154 23.7613Z" fill="white" stroke="#15357A" stroke-width="1.5" stroke-miterlimit="10" stroke-linecap="round" stroke-linejoin="round"/>
<path d="M56.8393 44.8676L49.9846 45.7917L50.9087 52.6464L57.7634 51.7223L56.8393 44.8676Z" fill="#EAF1FE" stroke="#15357A" stroke-width="1.5" stroke-miterlimit="10" stroke-linecap="round" stroke-linejoin="round"/>
<path d="M58.2924 55.6896L51.4377 56.6137L52.3618 63.4684L59.2165 62.5443L58.2924 55.6896Z" fill="#EAF1FE" stroke="#15357A" stroke-width="1.5" stroke-miterlimit="10" stroke-linecap="round" stroke-linejoin="round"/>
<path d="M59.7357 66.3999L52.881 67.324L53.8051 74.1787L60.6598 73.2546L59.7357 66.3999Z" fill="#EAF1FE" stroke="#15357A" stroke-width="1.5" stroke-miterlimit="10" stroke-linecap="round" stroke-linejoin="round"/>
<path d="M50.9854 39.1623L50.0929 39.2739L49.6467 35.927L48.531 36.0385L48.4195 35.2576L51.5433 34.8113L51.6548 35.5923L50.5392 35.7039L50.9854 39.1623Z" fill="#15357A"/>
<path d="M55.2248 38.6045L54.7785 37.712L53.2166 37.9351L53.1051 38.9392L52.2126 39.0507L53.1051 34.6998L54.2207 34.5882L56.2289 38.4929L55.2248 38.6045ZM54.5554 36.931C54.1091 36.0385 53.886 35.5923 53.886 35.4807C53.886 35.3692 53.7744 35.2576 53.7744 35.2576C53.7744 35.4807 53.6629 36.1501 53.4398 37.1542L54.5554 36.931Z" fill="#15357A"/>
<path d="M60.1336 37.9351L59.1295 38.0467L58.0139 36.5963L57.233 38.2698L56.3404 38.3814L57.4561 36.0385L55.8942 34.2535L56.8983 34.1419L58.0139 35.4807L58.6833 33.9188L59.5758 33.8072L58.5717 36.0385L60.1336 37.9351Z" fill="#15357A"/>
<path d="M79.6576 36.1501L90.5908 91.4857L43.3994 100.857L30.458 35.7038L67.7203 28.3406L79.6576 36.1501Z" fill="white" stroke="#15357A" stroke-width="1.5" stroke-miterlimit="10" stroke-linecap="round" stroke-linejoin="round"/>
<path d="M79.0998 36.2616L69.1706 38.1582L67.274 28.4522L79.0998 36.2616Z" fill="#EAF1FE" stroke="#15357A" stroke-width="1.5" stroke-miterlimit="10" stroke-linecap="round" stroke-linejoin="round"/>
<path d="M79.0998 36.2616L67.274 28.4522" stroke="#15357A" stroke-width="1.5" stroke-miterlimit="10" stroke-linecap="round" stroke-linejoin="round"/>
<path d="M48.6877 49.2592L41.9028 50.6059L43.2496 57.3908L50.0344 56.044L48.6877 49.2592Z" fill="#EAF1FE" stroke="#15357A" stroke-width="1.5" stroke-miterlimit="10" stroke-linecap="round" stroke-linejoin="round"/>
<path d="M50.8122 59.9694L44.0273 61.3161L45.3741 68.101L52.1589 66.7542L50.8122 59.9694Z" fill="#EAF1FE" stroke="#2C71F0" stroke-width="1.5" stroke-miterlimit="10" stroke-linecap="round" stroke-linejoin="round"/>
<path d="M52.9222 70.5679L46.1374 71.9146L47.4841 78.6994L54.2689 77.3527L52.9222 70.5679Z" fill="#EAF1FE" stroke="#15357A" stroke-width="1.5" stroke-miterlimit="10" stroke-linecap="round" stroke-linejoin="round"/>
<path d="M73.6332 47.1949L52.9939 51.3228C52.4361 51.4343 51.9899 51.0996 51.8783 50.5418C51.7667 49.984 52.1014 49.5378 52.6593 49.4262L73.2985 45.2983C73.8563 45.1868 74.3026 45.5215 74.4142 46.0793C74.4142 46.5255 74.0795 47.0834 73.6332 47.1949Z" fill="#EAF1FE"/>
<path d="M75.7528 57.905L55.1135 62.0329C54.5557 62.1444 54.1095 61.8097 53.9979 61.2519C53.8863 60.6941 54.221 60.2478 54.7789 60.1363L75.4181 56.0084C75.9759 55.8969 76.4222 56.2315 76.5338 56.7894C76.5338 57.2356 76.1991 57.7934 75.7528 57.905Z" fill="#EAF1FE"/>
<path d="M77.8727 68.5035L57.2334 72.6314C56.6756 72.743 56.2293 72.4083 56.1178 71.8505C56.0062 71.2926 56.3409 70.8464 56.8987 70.7348L77.538 66.607C78.0958 66.4954 78.5421 66.8301 78.6536 67.3879C78.6536 67.9457 78.319 68.392 77.8727 68.5035Z" fill="#EAF1FE"/>
<path d="M80.9963 79.3252L47.5272 86.019C46.9694 86.1306 46.5231 85.7959 46.4115 85.2381C46.3 84.6803 46.6347 84.234 47.1925 84.1225L80.6616 77.4287C81.2194 77.3171 81.6657 77.6518 81.7772 78.2096C81.8888 78.7674 81.5541 79.3252 80.9963 79.3252Z" fill="#EAF1FE"/>
<path d="M81.7774 83.1184L48.3083 89.8122C47.7505 89.9238 47.3043 89.5891 47.1927 89.0313C47.0811 88.4735 47.4158 88.0272 47.9736 87.9157L81.4427 81.2218C82.0006 81.1103 82.4468 81.445 82.5584 82.0028C82.6699 82.5606 82.3353 83.0069 81.7774 83.1184Z" fill="#EAF1FE"/>
<path d="M82.5583 86.6885L49.0892 93.3823C48.5314 93.4939 48.0851 93.1592 47.9736 92.6013C47.862 92.0435 48.1967 91.5973 48.7545 91.4857L82.2236 84.7919C82.7814 84.6803 83.2277 85.015 83.3393 85.5728C83.3393 86.1307 83.0046 86.5769 82.5583 86.6885Z" fill="#EAF1FE"/>
<path d="M61.3611 112.125C81.3859 112.125 97.6193 110.876 97.6193 109.336C97.6193 107.796 81.3859 106.547 61.3611 106.547C41.3362 106.547 25.1029 107.796 25.1029 109.336C25.1029 110.876 41.3362 112.125 61.3611 112.125Z" fill="#EAF1FE"/>
<path d="M20.6405 65.7145L21.6446 67.7226L23.7643 68.8383L21.6446 69.9539L20.6405 71.962L19.5249 69.9539L17.4052 68.8383L19.5249 67.7226L20.6405 65.7145Z" fill="#15357A"/>
<path d="M30.458 17.8536L31.9083 20.6427L34.5858 22.0931L31.9083 23.5434L30.458 26.2209L28.8961 23.5434L26.2186 22.0931L28.8961 20.6427L30.458 17.8536Z" fill="#15357A"/>
<path d="M106.098 66.2723L107.102 67.9458L108.664 68.8383L107.102 69.7308L106.098 71.4042L105.206 69.7308L103.532 68.8383L105.206 67.9458L106.098 66.2723Z" fill="#2C71F0"/>
</svg>
