<svg width="65" height="88" viewBox="0 0 65 88" fill="none" xmlns="http://www.w3.org/2000/svg">
<path d="M33 69.3149C8.23546 59.95 0.814262 33.9359 7.13455 12.3777C15.7463 10.4277 24.3724 7.19843 33 1.63424C41.6276 7.19843 50.2537 10.4277 58.8655 12.3777C65.1857 33.9359 57.7645 59.95 33 69.3149Z" stroke="#15357A" stroke-width="2" stroke-linejoin="round"/>
<circle cx="32.9999" cy="35.5109" r="14.8372" fill="#2C71F0"/>
<path d="M39.7442 29.4412L29.3685 40.2319L26.2558 36.9979" stroke="white" stroke-width="1.6" stroke-linecap="round" stroke-linejoin="round"/>
<path opacity="0.1" d="M32.5 87.0778C50.4493 87.0778 65 85.9585 65 84.5778C65 83.1971 50.4493 82.0778 32.5 82.0778C14.5507 82.0778 0 83.1971 0 84.5778C0 85.9585 14.5507 87.0778 32.5 87.0778Z" fill="#15357A"/>
</svg>
