<svg width="88" height="88" viewBox="0 0 88 88" fill="none" xmlns="http://www.w3.org/2000/svg">
<path d="M56.372 6.60304L56.0282 9.28429L57.197 11.7593L54.5157 11.4155L52.0407 12.5843L52.3845 9.90304L51.2157 7.42804L53.897 7.77179L56.372 6.60304Z" fill="#15357A"/>
<path d="M54.4468 72.0531L54.1718 74.0468L54.9968 75.7655L53.0718 75.5593L51.2843 76.3843L51.5593 74.4593L50.7343 72.6718L52.6593 72.9468L54.4468 72.0531Z" fill="#2C71F0"/>
<path d="M10.9971 40.2905L10.7909 41.6655L11.4096 42.903L10.0346 42.6968L8.86586 43.3155L9.00336 41.9405L8.38461 40.7718L9.75961 40.9093L10.9971 40.2905Z" fill="#2C71F0"/>
<path d="M57.6094 42.3531C57.6094 43.8656 57.3344 45.2406 56.9219 46.5468C56.6469 47.3718 56.2344 48.1968 55.8219 48.9531C55.1344 50.0531 54.3781 51.0156 53.4156 51.9093C53.2781 52.0468 53.0719 52.1843 52.9344 52.3218C52.0406 53.0093 51.0781 53.6281 49.9781 54.1093C49.0156 54.5218 47.9844 54.8656 46.8844 55.0031C46.1969 55.1406 45.5094 55.1406 44.8219 55.1406C39.2531 55.1406 34.5094 51.5656 32.7219 46.6156C32.5844 46.2031 32.4469 45.7906 32.3781 45.3781C32.2406 44.6906 32.1031 43.9343 32.0344 43.1781C32.0344 42.9031 31.9656 42.5593 31.9656 42.2843C31.9656 41.6656 32.0344 41.1156 32.1031 40.4968C32.1031 40.3593 32.1719 40.2218 32.1719 40.0843C32.3094 39.1906 32.5844 38.3656 32.8594 37.5406C33.2719 36.5093 33.7531 35.6156 34.3719 34.7218C36.7094 31.6281 40.4906 29.5656 44.7531 29.5656C48.1219 29.5656 51.2156 30.8718 53.4844 33.0031C53.6219 33.0718 53.6906 33.2093 53.8281 33.3468C54.3781 33.8968 54.9281 34.5156 55.3406 35.2031C55.8906 36.0281 56.3719 36.9218 56.7156 37.8156C56.9219 38.2968 57.0594 38.8468 57.1969 39.3968C57.4719 40.2906 57.6094 41.3218 57.6094 42.3531Z" fill="#FAFAFA" stroke="#15357A" stroke-width="2" stroke-miterlimit="10" stroke-linecap="round" stroke-linejoin="round"/>
<path d="M37.0532 39.1906C37.0532 39.6031 36.9157 40.0156 36.5719 40.2906C36.2969 40.5656 36.0219 40.7031 35.6782 40.7718C35.6094 40.7718 35.5407 40.7718 35.5407 40.7718H32.7219C32.5157 40.7718 32.3094 40.7031 32.1032 40.6343C31.8969 40.5656 31.6907 40.4281 31.5532 40.2218C31.6219 40.2218 31.6907 40.2218 31.6907 40.2218H32.1032C32.2407 39.3281 32.5157 38.5031 32.7907 37.6781H35.4719C36.3657 37.6781 37.0532 38.3656 37.0532 39.1906Z" fill="#D5E3FC"/>
<path d="M36.0907 41.7343C36.0907 42.1468 35.9532 42.5593 35.6094 42.8343C35.4032 43.0406 35.0594 43.2468 34.7844 43.2468C34.7157 43.2468 34.6469 43.2468 34.5782 43.2468H32.0344C32.0344 42.9718 31.9657 42.6281 31.9657 42.3531C31.9657 41.7343 32.0344 41.1843 32.1032 40.5656C31.8969 40.4968 31.6907 40.3593 31.5532 40.1531C31.6219 40.1531 31.6907 40.1531 31.6907 40.1531H34.5094C34.9907 40.1531 35.4032 40.3593 35.6782 40.7031C35.9532 41.0468 36.0907 41.3906 36.0907 41.7343Z" fill="#D5E3FC"/>
<path d="M34.9219 43.9343C34.9219 44.3468 34.7844 44.7593 34.4407 45.0343C34.1657 45.3093 33.7532 45.5156 33.3407 45.5156H32.3094C32.1719 44.8281 32.0344 44.0718 31.9657 43.3156C31.9657 43.0406 31.8969 42.6968 31.8969 42.4218H33.3407C33.9594 42.4218 34.5094 42.7656 34.7157 43.3156C34.8532 43.4531 34.9219 43.6593 34.9219 43.9343Z" fill="#D5E3FC"/>
<path d="M57.1282 38.2281H52.5219C51.4907 38.2281 50.7344 37.3343 50.7344 36.2343C50.7344 35.6843 50.9407 35.2031 51.2844 34.8593C51.6282 34.5156 52.0407 34.3093 52.5907 34.3093H54.8594C55.3407 34.7906 55.7532 35.3406 56.0969 35.8906C56.5094 36.6468 56.8532 37.4031 57.1282 38.2281Z" fill="#D5E3FC"/>
<path d="M57.8844 42.2843C57.8844 43.5906 57.6781 44.8281 57.3344 45.9968C57.0594 46.7531 56.7156 47.4406 56.3719 48.1281C55.8219 49.0906 55.2031 49.9843 54.4469 50.6718C54.3094 50.8093 54.1719 50.9468 54.0344 51.0156C53.3469 51.6343 52.5219 52.1843 51.6969 52.5968C51.4219 52.6656 51.1469 52.7343 50.8719 52.8031C50.5281 52.4593 50.3219 51.9781 50.3219 51.4281C50.3219 51.0156 50.4594 50.6031 50.6656 50.3281H48.6719C47.8469 50.3281 47.0906 49.6406 46.8844 48.8156C46.8844 48.6781 46.8156 48.5406 46.8156 48.4031C46.8156 47.9218 46.9531 47.5093 47.2281 47.2343C46.3344 47.1656 45.5781 46.2718 45.5781 45.3093C45.5781 45.1031 45.5781 44.9656 45.6469 44.7593H44.8219C43.7906 44.7593 43.0344 43.8656 43.0344 42.7656C43.0344 42.4906 43.1031 42.2156 43.1719 41.9406C42.6219 41.5968 42.2781 40.9781 42.2781 40.2218C42.2781 39.1218 43.1031 38.2281 44.0656 38.2281H57.1281C57.2656 38.7093 57.4031 39.1218 57.5406 39.6031C57.7469 40.4968 57.8844 41.3906 57.8844 42.2843Z" fill="#D5E3FC"/>
<path d="M42.2781 40.2218C42.2781 40.2218 42.4156 46.7531 47.2281 47.1656C47.2281 47.1656 45.2344 50.3968 50.8719 52.8718L55.8906 47.1656L49.4969 40.9781L42.2781 40.2218Z" fill="#D5E3FC"/>
<path d="M57.6094 42.3531C57.6094 43.8656 57.3344 45.2406 56.9219 46.5468C56.6469 47.3718 56.2344 48.1968 55.8219 48.9531C55.1344 50.0531 54.3781 51.0156 53.4156 51.9093C53.2781 52.0468 53.0719 52.1843 52.9344 52.3218C52.0406 53.0093 51.0781 53.6281 49.9781 54.1093C49.0156 54.5218 47.9844 54.8656 46.8844 55.0031C46.1969 55.1406 45.5094 55.1406 44.8219 55.1406C39.2531 55.1406 34.5094 51.5656 32.7219 46.6156C32.5844 46.2031 32.4469 45.7906 32.3781 45.3781C32.2406 44.6906 32.1031 43.9343 32.0344 43.1781C32.0344 42.9031 31.9656 42.5593 31.9656 42.2843C31.9656 41.6656 32.0344 41.1156 32.1031 40.4968C32.1031 40.3593 32.1719 40.2218 32.1719 40.0843C32.3094 39.1906 32.5844 38.3656 32.8594 37.5406C33.2719 36.5093 33.7531 35.6156 34.3719 34.7218C36.7094 31.6281 40.4906 29.5656 44.7531 29.5656C48.1219 29.5656 51.2156 30.8718 53.4844 33.0031C53.6219 33.0718 53.6906 33.2093 53.8281 33.3468C54.3781 33.8968 54.9281 34.5156 55.3406 35.2031C55.8906 36.0281 56.3719 36.9218 56.7156 37.8156C56.9219 38.2968 57.0594 38.8468 57.1969 39.3968C57.4719 40.2906 57.6094 41.3218 57.6094 42.3531Z" stroke="#15357A" stroke-width="2" stroke-miterlimit="10" stroke-linecap="round" stroke-linejoin="round"/>
<path d="M35.5407 37.6781C35.5407 37.6781 40.422 38.5031 33.822 45.4468Z" fill="#D5E3FC"/>
<path d="M51.9032 34.4468C51.9032 34.4468 48.6719 35.7531 50.6657 39.1906L54.1719 38.5718L51.9032 34.4468Z" fill="#D5E3FC"/>
<path d="M30.8657 24.1343C30.8657 25.0968 30.7282 26.0593 30.3845 26.8843C30.1782 27.4343 29.972 27.9843 29.6282 28.4656C29.2157 29.1531 28.6657 29.8406 28.047 30.3906C27.9782 30.4593 27.8407 30.5968 27.7032 30.6656C27.1532 31.1468 26.4657 31.5593 25.7782 31.8343C25.1595 32.1093 24.472 32.3156 23.7157 32.4531C23.3032 32.5218 22.822 32.5906 22.3407 32.5906C18.697 32.5906 15.5345 30.2531 14.3657 27.0218C14.297 26.7468 14.1595 26.4718 14.0907 26.1968C13.9532 25.7156 13.8845 25.2343 13.8845 24.7531C13.8845 24.5468 13.8845 24.3406 13.8845 24.1343C13.8845 23.7218 13.8845 23.3781 13.9532 22.9656C13.9532 22.8968 13.9532 22.7593 14.022 22.6906C14.0907 22.1406 14.297 21.5218 14.5032 21.0406C14.7782 20.3531 15.122 19.7343 15.5345 19.1843C17.047 17.0531 19.5907 15.6781 22.3407 15.6781C24.5407 15.6781 26.6032 16.5031 28.1157 17.9468C28.1845 18.0156 28.2532 18.0843 28.322 18.1531C28.6657 18.4968 29.0095 18.9093 29.3532 19.3906C29.697 19.9406 30.0407 20.4906 30.247 21.1093C30.3845 21.4531 30.522 21.7968 30.5907 22.1406C30.797 22.7593 30.8657 23.4468 30.8657 24.1343Z" fill="#FAFAFA" stroke="#15357A" stroke-width="2" stroke-miterlimit="10" stroke-linecap="round" stroke-linejoin="round"/>
<path d="M17.3219 22.0031C17.3219 22.2781 17.1844 22.5531 17.0469 22.6906C16.9094 22.8281 16.7032 22.9656 16.4282 22.9656C16.3594 22.9656 16.3594 22.9656 16.2907 22.9656H14.4344C14.2969 22.9656 14.1594 22.9656 14.0219 22.8968C13.8844 22.8281 13.7469 22.7593 13.6782 22.6218C13.7469 22.6218 13.7469 22.6218 13.8157 22.6218H14.0907C14.1594 22.0718 14.3657 21.4531 14.5719 20.9718H16.3594C16.9094 21.0406 17.3219 21.4531 17.3219 22.0031Z" fill="#D5E3FC"/>
<path d="M16.7031 23.7218C16.7031 23.9968 16.5656 24.2718 16.4281 24.4093C16.2906 24.5468 16.0844 24.6843 15.8781 24.6843C15.8094 24.6843 15.8094 24.6843 15.7406 24.6843H14.0906C14.0906 24.4781 14.0906 24.2718 14.0906 24.0656C14.0906 23.6531 14.0906 23.3093 14.1594 22.8968C14.0219 22.8281 13.8844 22.7593 13.8156 22.6218C13.8844 22.6218 13.8844 22.6218 13.9531 22.6218H15.8094C16.0844 22.6218 16.3594 22.7593 16.5656 22.9656C16.6344 23.2406 16.7031 23.4468 16.7031 23.7218Z" fill="#D5E3FC"/>
<path d="M15.9469 25.1656C15.9469 25.4406 15.8094 25.7156 15.6719 25.8531C15.4656 26.0593 15.2594 26.1281 14.9844 26.1281H14.2969C14.1594 25.6468 14.0906 25.1656 14.0906 24.6843C14.0906 24.4781 14.0906 24.2718 14.0906 24.0656H15.0531C15.4656 24.0656 15.8094 24.3406 15.9469 24.6843C15.8781 24.8218 15.9469 24.9593 15.9469 25.1656Z" fill="#D5E3FC"/>
<path d="M30.5219 21.3843H27.4969C26.8094 21.3843 26.3282 20.8343 26.3282 20.0781C26.3282 19.7343 26.4657 19.3906 26.6719 19.1843C26.8782 18.9781 27.1532 18.7718 27.4969 18.7718H29.0094C29.2844 19.1156 29.5594 19.4593 29.8344 19.8031C30.1094 20.3531 30.3844 20.8343 30.5219 21.3843Z" fill="#D5E3FC"/>
<path d="M31.0031 24.0656C31.0031 24.8906 30.8656 25.7156 30.5906 26.4718C30.4531 26.9531 30.2469 27.4343 29.9719 27.8468C29.6281 28.4656 29.2156 29.0156 28.6656 29.5656C28.5969 29.6343 28.5281 29.7031 28.3906 29.7718C27.9094 30.1843 27.4281 30.5281 26.8094 30.8031C26.6031 30.8718 26.4656 30.8718 26.2594 30.9406C26.0531 30.7343 25.9156 30.3906 25.9156 30.0468C25.9156 29.7718 25.9844 29.4968 26.1219 29.2906H24.8156C24.2656 29.2906 23.7844 28.8781 23.6469 28.2593C23.6469 28.1906 23.6469 28.0531 23.6469 27.9843C23.6469 27.7093 23.7156 27.4343 23.9219 27.2281C23.3031 27.1593 22.8219 26.6093 22.8219 25.9218C22.8219 25.7843 22.8219 25.7156 22.8906 25.5781H22.3406C21.6531 25.5781 21.1719 25.0281 21.1719 24.2718C21.1719 24.0656 21.2406 23.9281 21.3094 23.7218C20.9656 23.5156 20.6906 23.1031 20.6906 22.6218C20.6906 21.9343 21.2406 21.3156 21.8594 21.3156H30.4531C30.5906 21.5906 30.6594 21.9343 30.7281 22.2093C30.9344 22.8968 31.0031 23.4468 31.0031 24.0656Z" fill="#D5E3FC"/>
<path d="M20.7594 22.6906C20.7594 22.6906 20.8282 26.9531 23.9907 27.2281C23.9907 27.2281 22.6844 29.3593 26.3969 30.9406L29.6969 27.1593L25.5032 23.1718L20.7594 22.6906Z" fill="#D5E3FC"/>
<path d="M30.8657 24.1343C30.8657 25.0968 30.7282 26.0593 30.3845 26.8843C30.1782 27.4343 29.972 27.9843 29.6282 28.4656C29.2157 29.1531 28.6657 29.8406 28.047 30.3906C27.9782 30.4593 27.8407 30.5968 27.7032 30.6656C27.1532 31.1468 26.4657 31.5593 25.7782 31.8343C25.1595 32.1093 24.472 32.3156 23.7157 32.4531C23.3032 32.5218 22.822 32.5906 22.3407 32.5906C18.697 32.5906 15.5345 30.2531 14.3657 27.0218C14.297 26.7468 14.1595 26.4718 14.0907 26.1968C13.9532 25.7156 13.8845 25.2343 13.8845 24.7531C13.8845 24.5468 13.8845 24.3406 13.8845 24.1343C13.8845 23.7218 13.8845 23.3781 13.9532 22.9656C13.9532 22.8968 13.9532 22.7593 14.022 22.6906C14.0907 22.1406 14.297 21.5218 14.5032 21.0406C14.7782 20.3531 15.122 19.7343 15.5345 19.1843C17.047 17.0531 19.5907 15.6781 22.3407 15.6781C24.5407 15.6781 26.6032 16.5031 28.1157 17.9468C28.1845 18.0156 28.2532 18.0843 28.322 18.1531C28.6657 18.4968 29.0095 18.9093 29.3532 19.3906C29.697 19.9406 30.0407 20.4906 30.247 21.1093C30.3845 21.4531 30.522 21.7968 30.5907 22.1406C30.797 22.7593 30.8657 23.4468 30.8657 24.1343Z" stroke="#15357A" stroke-width="2" stroke-miterlimit="10" stroke-linecap="round" stroke-linejoin="round"/>
<path d="M16.3594 21.0406C16.3594 21.0406 19.5906 21.5906 15.1906 26.1281Z" fill="#D5E3FC"/>
<path d="M27.0844 18.9093C27.0844 18.9093 24.9531 19.7343 26.2594 22.0718L28.5969 21.6593L27.0844 18.9093Z" fill="#D5E3FC"/>
<path d="M31.4844 62.2906C31.4844 63.2531 31.3469 64.2156 31.0031 65.0406C30.7969 65.5906 30.5906 66.1406 30.2469 66.6218C29.8344 67.3093 29.2844 67.9968 28.6656 68.5468C28.5969 68.6156 28.4594 68.7531 28.3219 68.8218C27.7719 69.3031 27.0844 69.7156 26.3969 69.9906C25.7781 70.2656 25.0906 70.4718 24.3344 70.6093C23.9219 70.6781 23.4406 70.7468 22.9594 70.7468C19.3156 70.7468 16.1531 68.4093 14.9844 65.1781C14.9156 64.9031 14.7781 64.6281 14.7094 64.3531C14.5719 63.8718 14.5031 63.3906 14.5031 62.9093C14.5031 62.7031 14.5031 62.4968 14.5031 62.2906C14.5031 61.8781 14.5031 61.5343 14.5719 61.1218C14.5719 61.0531 14.5719 60.9156 14.6406 60.8468C14.7094 60.2968 14.9156 59.6781 15.1219 59.1968C15.3969 58.5093 15.7406 57.8906 16.1531 57.3406C17.6656 55.2093 20.2094 53.8343 22.9594 53.8343C25.1594 53.8343 27.2219 54.6593 28.7344 56.1031C28.8031 56.1718 28.8719 56.2406 28.9406 56.3093C29.2844 56.6531 29.6281 57.0656 29.9719 57.5468C30.3156 58.0968 30.6594 58.6468 30.8656 59.2656C31.0031 59.6093 31.1406 59.9531 31.2094 60.2968C31.3469 60.9156 31.4844 61.6031 31.4844 62.2906Z" fill="#FAFAFA" stroke="#15357A" stroke-width="2" stroke-miterlimit="10" stroke-linecap="round" stroke-linejoin="round"/>
<path d="M17.9406 60.1593C17.9406 60.4343 17.8031 60.7093 17.6656 60.8468C17.5281 60.9843 17.3218 61.1218 17.0468 61.1218C16.9781 61.1218 16.9781 61.1218 16.9093 61.1218H15.0531C14.9156 61.1218 14.7781 61.1218 14.6406 61.0531C14.5031 60.9843 14.3656 60.9156 14.2968 60.7781C14.3656 60.7781 14.3656 60.7781 14.4343 60.7781H14.7093C14.7781 60.2281 14.9843 59.6093 15.1906 59.1281H16.9781C17.5281 59.1968 17.9406 59.6093 17.9406 60.1593Z" fill="#D5E3FC"/>
<path d="M17.3218 61.8781C17.3218 62.1531 17.1843 62.4281 17.0468 62.5656C16.9093 62.7031 16.7031 62.8406 16.4968 62.8406C16.4281 62.8406 16.4281 62.8406 16.3593 62.8406H14.7093C14.7093 62.6343 14.7093 62.4281 14.7093 62.2218C14.7093 61.8093 14.7093 61.4656 14.7781 61.0531C14.6406 60.9843 14.5031 60.9156 14.4343 60.7781C14.5031 60.7781 14.5031 60.7781 14.5718 60.7781H16.4281C16.7031 60.7781 16.9781 60.9156 17.1843 61.1218C17.1843 61.3968 17.3218 61.6031 17.3218 61.8781Z" fill="#D5E3FC"/>
<path d="M16.5656 63.3218C16.5656 63.5968 16.4281 63.8718 16.2906 64.0093C16.0843 64.2156 15.8781 64.2843 15.6031 64.2843H14.9156C14.7781 63.8031 14.7093 63.3218 14.7093 62.8406C14.7093 62.6343 14.7093 62.4281 14.7093 62.2218H15.6718C16.0843 62.2218 16.4281 62.4968 16.5656 62.8406C16.4968 62.9781 16.5656 63.1156 16.5656 63.3218Z" fill="#D5E3FC"/>
<path d="M31.1406 59.5406H28.1156C27.4281 59.5406 26.9469 58.9905 26.9469 58.2343C26.9469 57.8906 27.0844 57.5468 27.2906 57.3406C27.4969 57.1343 27.7719 56.9281 28.1156 56.9281H29.6281C29.9031 57.2718 30.1781 57.6156 30.4531 57.9593C30.7281 58.5093 31.0031 58.9906 31.1406 59.5406Z" fill="#D5E3FC"/>
<path d="M31.6218 62.2218C31.6218 63.0468 31.4843 63.8718 31.2093 64.6281C31.0718 65.1093 30.8656 65.5906 30.5906 66.0031C30.2468 66.6218 29.8343 67.1718 29.2843 67.7218C29.2156 67.7906 29.1468 67.8593 29.0093 67.9281C28.5281 68.3406 28.0468 68.6843 27.4281 68.9593C27.2218 69.0281 27.0843 69.0281 26.8781 69.0968C26.6718 68.8906 26.5343 68.5468 26.5343 68.203C26.5343 67.928 26.6031 67.6531 26.7406 67.4468H25.4343C24.8843 67.4468 24.4031 67.0343 24.2656 66.4156C24.2656 66.3468 24.2656 66.2093 24.2656 66.1405C24.2656 65.8655 24.3343 65.5906 24.5406 65.3843C23.9218 65.3156 23.4406 64.7655 23.4406 64.078C23.4406 63.9405 23.4406 63.8718 23.5093 63.7343H22.9593C22.2718 63.7343 21.7906 63.1843 21.7906 62.4281C21.7906 62.2218 21.8593 62.0843 21.9281 61.8781C21.5843 61.6718 21.3093 61.2593 21.3093 60.7781C21.3093 60.0906 21.8593 59.4718 22.4781 59.4718H31.0718C31.2093 59.7468 31.2781 60.0906 31.3468 60.3656C31.5531 61.0531 31.6218 61.6031 31.6218 62.2218Z" fill="#D5E3FC"/>
<path d="M21.3781 60.8468C21.3781 60.8468 21.4469 65.1093 24.6094 65.3843C24.6094 65.3843 23.3031 67.5156 27.0156 69.0968L30.3156 65.3156L26.1219 61.3968L21.3781 60.8468Z" fill="#D5E3FC"/>
<path d="M31.4844 62.2906C31.4844 63.2531 31.3469 64.2156 31.0031 65.0406C30.7969 65.5906 30.5906 66.1406 30.2469 66.6218C29.8344 67.3093 29.2844 67.9968 28.6656 68.5468C28.5969 68.6156 28.4594 68.7531 28.3219 68.8218C27.7719 69.3031 27.0844 69.7156 26.3969 69.9906C25.7781 70.2656 25.0906 70.4718 24.3344 70.6093C23.9219 70.6781 23.4406 70.7468 22.9594 70.7468C19.3156 70.7468 16.1531 68.4093 14.9844 65.1781C14.9156 64.9031 14.7781 64.6281 14.7094 64.3531C14.5719 63.8718 14.5031 63.3906 14.5031 62.9093C14.5031 62.7031 14.5031 62.4968 14.5031 62.2906C14.5031 61.8781 14.5031 61.5343 14.5719 61.1218C14.5719 61.0531 14.5719 60.9156 14.6406 60.8468C14.7094 60.2968 14.9156 59.6781 15.1219 59.1968C15.3969 58.5093 15.7406 57.8906 16.1531 57.3406C17.6656 55.2093 20.2094 53.8343 22.9594 53.8343C25.1594 53.8343 27.2219 54.6593 28.7344 56.1031C28.8031 56.1718 28.8719 56.2406 28.9406 56.3093C29.2844 56.6531 29.6281 57.0656 29.9719 57.5468C30.3156 58.0968 30.6594 58.6468 30.8656 59.2656C31.0031 59.6093 31.1406 59.9531 31.2094 60.2968C31.3469 60.9156 31.4844 61.6031 31.4844 62.2906Z" stroke="#15357A" stroke-width="2" stroke-miterlimit="10" stroke-linecap="round" stroke-linejoin="round"/>
<path d="M16.9093 59.1968C16.9093 59.1968 20.1406 59.7468 15.7406 64.2843Z" fill="#D5E3FC"/>
<path d="M27.7031 57.0656C27.7031 57.0656 25.5718 57.8906 26.8781 60.2281L29.2156 59.8156L27.7031 57.0656Z" fill="#D5E3FC"/>
<path d="M75.897 24.1343C75.897 25.0968 75.7595 26.0593 75.4157 26.8843C75.2095 27.4343 75.0032 27.9843 74.6595 28.4656C74.247 29.1531 73.697 29.8406 73.0782 30.3906C73.0095 30.4593 72.872 30.5968 72.7345 30.6656C72.1845 31.1468 71.497 31.5593 70.8095 31.8343C70.1907 32.1093 69.5032 32.3156 68.747 32.4531C68.3345 32.5218 67.8532 32.5906 67.372 32.5906C63.7282 32.5906 60.5657 30.2531 59.397 27.0218C59.3282 26.7468 59.1907 26.4718 59.122 26.1968C58.9845 25.7156 58.9157 25.2343 58.9157 24.7531C58.9157 24.5468 58.9157 24.3406 58.9157 24.1343C58.9157 23.7218 58.9157 23.3781 58.9845 22.9656C58.9845 22.8968 58.9845 22.7593 59.0532 22.6906C59.122 22.1406 59.3282 21.5218 59.5345 21.0406C59.8095 20.3531 60.1532 19.7343 60.5657 19.1843C62.0782 17.0531 64.622 15.6781 67.372 15.6781C69.572 15.6781 71.6345 16.5031 73.147 17.9468C73.2157 18.0156 73.2845 18.0843 73.3532 18.1531C73.697 18.4968 74.0407 18.9093 74.3845 19.3906C74.7282 19.9406 75.072 20.4906 75.2782 21.1093C75.4157 21.4531 75.5532 21.7968 75.622 22.1406C75.8282 22.7593 75.897 23.4468 75.897 24.1343Z" fill="#FAFAFA" stroke="#15357A" stroke-width="2" stroke-miterlimit="10" stroke-linecap="round" stroke-linejoin="round"/>
<path d="M62.422 22.0031C62.422 22.2781 62.2845 22.5531 62.147 22.6906C62.0095 22.8281 61.8032 22.9656 61.5282 22.9656C61.4595 22.9656 61.4595 22.9656 61.3907 22.9656H59.5345C59.397 22.9656 59.2595 22.9656 59.122 22.8968C58.9845 22.8281 58.847 22.7593 58.7782 22.6218C58.847 22.6218 58.847 22.6218 58.9157 22.6218H59.1907C59.2595 22.0718 59.4657 21.4531 59.672 20.9718H61.4595C61.9407 21.0406 62.422 21.4531 62.422 22.0031Z" fill="#D5E3FC"/>
<path d="M61.7345 23.7218C61.7345 23.9968 61.597 24.2718 61.4595 24.4093C61.322 24.5468 61.1157 24.6843 60.9095 24.6843C60.8407 24.6843 60.8407 24.6843 60.772 24.6843H59.122C59.122 24.4781 59.122 24.2718 59.122 24.0656C59.122 23.6531 59.122 23.3093 59.1907 22.8968C59.0532 22.8281 58.9157 22.7593 58.847 22.6218C58.9157 22.6218 58.9157 22.6218 58.9845 22.6218H60.8407C61.1157 22.6218 61.3907 22.7593 61.597 22.9656C61.6657 23.2406 61.7345 23.4468 61.7345 23.7218Z" fill="#D5E3FC"/>
<path d="M60.9782 25.1656C60.9782 25.4406 60.8407 25.7156 60.7032 25.8531C60.497 26.0593 60.2907 26.1281 60.0157 26.1281H59.3282C59.1907 25.6468 59.122 25.1656 59.122 24.6843C59.122 24.4781 59.122 24.2718 59.122 24.0656H60.0845C60.497 24.0656 60.8407 24.3406 60.9782 24.6843C60.9782 24.8218 60.9782 24.9593 60.9782 25.1656Z" fill="#D5E3FC"/>
<path d="M75.622 21.3843H72.597C71.9095 21.3843 71.4283 20.8343 71.4283 20.0781C71.4283 19.7343 71.5658 19.3906 71.772 19.1843C71.9783 18.9781 72.2533 18.7718 72.597 18.7718H74.1095C74.3845 19.1156 74.6595 19.4593 74.9345 19.8031C75.2095 20.3531 75.4158 20.8343 75.622 21.3843Z" fill="#D5E3FC"/>
<path d="M76.1032 24.0656C76.1032 24.8906 75.9657 25.7156 75.6907 26.4718C75.5532 26.9531 75.347 27.4343 75.072 27.8468C74.7282 28.4656 74.3157 29.0156 73.7657 29.5656C73.697 29.6343 73.6282 29.7031 73.4907 29.7718C73.0095 30.1843 72.5282 30.5281 71.9095 30.8031C71.7032 30.8718 71.5657 30.8718 71.3595 30.9406C71.1532 30.7343 71.0157 30.3906 71.0157 30.0468C71.0157 29.7718 71.0845 29.4968 71.222 29.2906H69.9157C69.3657 29.2906 68.8845 28.8781 68.747 28.2593C68.747 28.1906 68.747 28.0531 68.747 27.9843C68.747 27.7093 68.8157 27.4343 69.022 27.2281C68.4032 27.1593 67.922 26.6093 67.922 25.9218C67.922 25.7843 67.922 25.7156 67.9907 25.5781H67.4407C66.7532 25.5781 66.272 25.0281 66.272 24.2718C66.272 24.0656 66.3407 23.9281 66.4095 23.7218C66.0657 23.5156 65.7907 23.1031 65.7907 22.6218C65.7907 21.9343 66.3407 21.3156 66.9595 21.3156H75.622C75.7595 21.5906 75.8282 21.9343 75.897 22.2093C76.0345 22.8968 76.1032 23.4468 76.1032 24.0656Z" fill="#D5E3FC"/>
<path d="M65.8595 22.6906C65.8595 22.6906 65.9283 26.9531 69.0908 27.2281C69.0908 27.2281 67.7845 29.3593 71.497 30.9406L74.797 27.1593L70.6033 23.1718L65.8595 22.6906Z" fill="#D5E3FC"/>
<path d="M75.897 24.1343C75.897 25.0968 75.7595 26.0593 75.4157 26.8843C75.2095 27.4343 75.0032 27.9843 74.6595 28.4656C74.247 29.1531 73.697 29.8406 73.0782 30.3906C73.0095 30.4593 72.872 30.5968 72.7345 30.6656C72.1845 31.1468 71.497 31.5593 70.8095 31.8343C70.1907 32.1093 69.5032 32.3156 68.747 32.4531C68.3345 32.5218 67.8532 32.5906 67.372 32.5906C63.7282 32.5906 60.5657 30.2531 59.397 27.0218C59.3282 26.7468 59.1907 26.4718 59.122 26.1968C58.9845 25.7156 58.9157 25.2343 58.9157 24.7531C58.9157 24.5468 58.9157 24.3406 58.9157 24.1343C58.9157 23.7218 58.9157 23.3781 58.9845 22.9656C58.9845 22.8968 58.9845 22.7593 59.0532 22.6906C59.122 22.1406 59.3282 21.5218 59.5345 21.0406C59.8095 20.3531 60.1532 19.7343 60.5657 19.1843C62.0782 17.0531 64.622 15.6781 67.372 15.6781C69.572 15.6781 71.6345 16.5031 73.147 17.9468C73.2157 18.0156 73.2845 18.0843 73.3532 18.1531C73.697 18.4968 74.0407 18.9093 74.3845 19.3906C74.7282 19.9406 75.072 20.4906 75.2782 21.1093C75.4157 21.4531 75.5532 21.7968 75.622 22.1406C75.8282 22.7593 75.897 23.4468 75.897 24.1343Z" stroke="#15357A" stroke-width="2" stroke-miterlimit="10" stroke-linecap="round" stroke-linejoin="round"/>
<path d="M61.3907 21.0406C61.3907 21.0406 64.622 21.5906 60.222 26.1281Z" fill="#D5E3FC"/>
<path d="M72.1845 18.9093C72.1845 18.9093 70.0532 19.7343 71.3595 22.0718L73.697 21.6593L72.1845 18.9093Z" fill="#D5E3FC"/>
<path d="M74.1094 62.2906C74.1094 63.2531 73.9719 64.2156 73.6281 65.0406C73.4219 65.5906 73.2156 66.1406 72.8719 66.6218C72.4594 67.3093 71.9094 67.9968 71.2906 68.5468C71.2219 68.6156 71.0844 68.7531 70.9469 68.8218C70.3969 69.3031 69.7094 69.7156 69.0219 69.9906C68.4031 70.2656 67.7156 70.4718 66.9594 70.6093C66.5469 70.6781 66.0656 70.7468 65.5844 70.7468C61.9406 70.7468 58.7781 68.4093 57.6094 65.1781C57.5406 64.9031 57.4031 64.6281 57.3344 64.3531C57.1969 63.8718 57.1281 63.3906 57.1281 62.9093C57.1281 62.7031 57.1281 62.4968 57.1281 62.2906C57.1281 61.8781 57.1281 61.5343 57.1969 61.1218C57.1969 61.0531 57.1969 60.9156 57.2656 60.8468C57.3344 60.2968 57.5406 59.6781 57.7469 59.1968C58.0219 58.5093 58.3656 57.8906 58.7781 57.3406C60.2906 55.2093 62.8344 53.8343 65.5844 53.8343C67.7844 53.8343 69.8469 54.6593 71.3594 56.1031C71.4281 56.1718 71.4969 56.2406 71.5656 56.3093C71.9094 56.6531 72.2531 57.0656 72.5969 57.5468C72.9406 58.0968 73.2844 58.6468 73.4906 59.2656C73.6281 59.6093 73.7656 59.9531 73.8344 60.2968C74.0406 60.9156 74.1094 61.6031 74.1094 62.2906Z" fill="#FAFAFA" stroke="#15357A" stroke-width="2" stroke-miterlimit="10" stroke-linecap="round" stroke-linejoin="round"/>
<path d="M60.6344 60.1593C60.6344 60.4343 60.4969 60.7093 60.3594 60.8468C60.2219 60.9843 60.0157 61.1218 59.7407 61.1218C59.6719 61.1218 59.6719 61.1218 59.6032 61.1218H57.7469C57.6094 61.1218 57.4719 61.1218 57.3344 61.0531C57.1969 60.9843 57.0594 60.9156 56.9907 60.7781C57.0594 60.7781 57.0594 60.7781 57.1282 60.7781H57.4032C57.4719 60.2281 57.6782 59.6093 57.8844 59.1281H59.6719C60.1532 59.1968 60.6344 59.6093 60.6344 60.1593Z" fill="#D5E3FC"/>
<path d="M59.9469 61.8781C59.9469 62.1531 59.8094 62.4281 59.6719 62.5656C59.5344 62.7031 59.3281 62.8406 59.1219 62.8406C59.0531 62.8406 59.0531 62.8406 58.9844 62.8406H57.3344C57.3344 62.6343 57.3344 62.4281 57.3344 62.2218C57.3344 61.8093 57.3344 61.4656 57.4031 61.0531C57.2656 60.9843 57.1281 60.9156 57.0594 60.7781C57.1281 60.7781 57.1281 60.7781 57.1969 60.7781H59.0531C59.3281 60.7781 59.6031 60.9156 59.8094 61.1218C59.8781 61.3968 59.9469 61.6031 59.9469 61.8781Z" fill="#D5E3FC"/>
<path d="M59.1907 63.3218C59.1907 63.5968 59.0532 63.8718 58.9157 64.0093C58.7094 64.2156 58.5032 64.2843 58.2282 64.2843H57.5407C57.4032 63.8031 57.3344 63.3218 57.3344 62.8406C57.3344 62.6343 57.3344 62.4281 57.3344 62.2218H58.2969C58.7094 62.2218 59.0532 62.4968 59.1907 62.8406C59.1219 62.9781 59.1907 63.1156 59.1907 63.3218Z" fill="#D5E3FC"/>
<path d="M73.8344 59.5406H70.8094C70.1219 59.5406 69.6407 58.9905 69.6407 58.2343C69.6407 57.8906 69.7782 57.5468 69.9844 57.3406C70.1907 57.1343 70.4657 56.9281 70.8094 56.9281H72.3219C72.5969 57.2718 72.8719 57.6156 73.1469 57.9593C73.3532 58.5093 73.6282 58.9906 73.8344 59.5406Z" fill="#D5E3FC"/>
<path d="M74.2469 62.2218C74.2469 63.0468 74.1094 63.8718 73.8344 64.6281C73.6969 65.1093 73.4906 65.5906 73.2156 66.0031C72.8719 66.6218 72.4594 67.1718 71.9094 67.7218C71.8406 67.7906 71.7719 67.8593 71.6344 67.9281C71.1531 68.3406 70.6719 68.6843 70.0531 68.9593C69.8469 69.0281 69.7094 69.0281 69.5031 69.0968C69.2969 68.8906 69.1594 68.5468 69.1594 68.203C69.1594 67.928 69.2281 67.6531 69.3656 67.4468H68.0594C67.5094 67.4468 67.0281 67.0343 66.8906 66.4156C66.8906 66.3468 66.8906 66.2093 66.8906 66.1405C66.8906 65.8655 66.9594 65.5906 67.1656 65.3843C66.5469 65.3156 66.0656 64.7655 66.0656 64.078C66.0656 63.9405 66.0656 63.8718 66.1344 63.7343H65.5844C64.8969 63.7343 64.4156 63.1843 64.4156 62.4281C64.4156 62.2218 64.4844 62.0843 64.5531 61.8781C64.2094 61.6718 63.9344 61.2593 63.9344 60.7781C63.9344 60.0906 64.4844 59.4718 65.1031 59.4718H73.6969C73.8344 59.7468 73.9031 60.0906 73.9719 60.3656C74.1781 61.0531 74.2469 61.6031 74.2469 62.2218Z" fill="#D5E3FC"/>
<path d="M64.0719 60.8468C64.0719 60.8468 64.1407 65.1093 67.3032 65.3843C67.3032 65.3843 65.9969 67.5156 69.7094 69.0968L73.0094 65.3156L68.8157 61.328L64.0719 60.8468Z" fill="#D5E3FC"/>
<path d="M74.1094 62.2906C74.1094 63.2531 73.9719 64.2156 73.6281 65.0406C73.4219 65.5906 73.2156 66.1406 72.8719 66.6218C72.4594 67.3093 71.9094 67.9968 71.2906 68.5468C71.2219 68.6156 71.0844 68.7531 70.9469 68.8218C70.3969 69.3031 69.7094 69.7156 69.0219 69.9906C68.4031 70.2656 67.7156 70.4718 66.9594 70.6093C66.5469 70.6781 66.0656 70.7468 65.5844 70.7468C61.9406 70.7468 58.7781 68.4093 57.6094 65.1781C57.5406 64.9031 57.4031 64.6281 57.3344 64.3531C57.1969 63.8718 57.1281 63.3906 57.1281 62.9093C57.1281 62.7031 57.1281 62.4968 57.1281 62.2906C57.1281 61.8781 57.1281 61.5343 57.1969 61.1218C57.1969 61.0531 57.1969 60.9156 57.2656 60.8468C57.3344 60.2968 57.5406 59.6781 57.7469 59.1968C58.0219 58.5093 58.3656 57.8906 58.7781 57.3406C60.2906 55.2093 62.8344 53.8343 65.5844 53.8343C67.7844 53.8343 69.8469 54.6593 71.3594 56.1031C71.4281 56.1718 71.4969 56.2406 71.5656 56.3093C71.9094 56.6531 72.2531 57.0656 72.5969 57.5468C72.9406 58.0968 73.2844 58.6468 73.4906 59.2656C73.6281 59.6093 73.7656 59.9531 73.8344 60.2968C74.0406 60.9156 74.1094 61.6031 74.1094 62.2906Z" stroke="#15357A" stroke-width="2" stroke-miterlimit="10" stroke-linecap="round" stroke-linejoin="round"/>
<path d="M59.6031 59.1968C59.6031 59.1968 62.8344 59.7468 58.4344 64.2843Z" fill="#D5E3FC"/>
<path d="M70.3969 57.0656C70.3969 57.0656 68.2656 57.8906 69.5719 60.2281L71.9094 59.8156L70.3969 57.0656Z" fill="#D5E3FC"/>
<path d="M29.1469 32.3156L31.4844 34.1031" stroke="#15357A" stroke-width="2" stroke-miterlimit="10" stroke-linecap="round" stroke-linejoin="round"/>
<path d="M56.8534 33.8968L59.1909 32.0405" stroke="#15357A" stroke-width="2" stroke-miterlimit="10" stroke-linecap="round" stroke-linejoin="round"/>
<path d="M55.8221 52.8718L58.0909 54.7968" stroke="#15357A" stroke-width="2" stroke-miterlimit="10" stroke-linecap="round" stroke-linejoin="round"/>
<path d="M30.7968 54.5906L33.2031 52.8031" stroke="#15357A" stroke-width="2" stroke-miterlimit="10" stroke-linecap="round" stroke-linejoin="round"/>
</svg>
