<svg width="468" height="103" viewBox="0 0 468 103" fill="none" xmlns="http://www.w3.org/2000/svg">
<path fill-rule="evenodd" clip-rule="evenodd" d="M33.0219 66.3777V92.7001H6.83215V66.3777H33.0219ZM59.2116 40.0557V66.3777H33.0219V40.0557H59.2116ZM85.4015 13.7334V40.0557H59.2116V13.7334H85.4015Z" fill="white"/>
<path d="M140.057 74.7406V54.3105L150.08 70.8359H155.008L165.087 53.7444L165.199 74.7406H175.39L175.278 35.1254H166.151L152.712 57.989L138.937 35.1254H129.81V74.7406H140.057ZM203.649 74.7406V35.1254H192.561V74.7406H203.649ZM229.499 74.7406L237.507 62.4599L245.626 74.7406H258.393L243.834 54.2539L257.497 35.1254H245.514L237.787 46.557L229.947 35.1254H217.46L231.123 54.7068L216.845 74.7406H229.499ZM289.227 74.7406V44.0105H301.21V35.1254H266.101V44.0105H278.14V74.7406H289.227ZM325.773 74.7406V35.1254H314.686V74.7406H325.773ZM372.791 74.7406V65.8555H354.088V35.1254H343V74.7406H372.791ZM417.958 74.7406V66.0821H397.465V58.8381H414.88V50.4621H397.465V43.7839H417.23V35.1254H386.489V74.7406H417.958ZM447.227 75.533C450.957 75.533 454.131 74.9576 456.744 73.8071C459.357 72.6562 461.318 71.1188 462.623 69.1944C463.931 67.2703 464.584 65.1197 464.584 62.7428C464.584 59.9886 463.867 57.8098 462.428 56.2064C460.99 54.6027 459.292 53.4333 457.332 52.6976C455.374 51.9618 452.901 51.2734 449.912 50.6321C447.264 50.0659 445.341 49.519 444.146 48.9906C442.95 48.4625 442.356 47.6701 442.356 46.6137C442.356 45.5573 442.858 44.6989 443.865 44.0387C444.873 43.3785 446.479 43.0485 448.682 43.0485C452.19 43.0485 455.811 44.0672 459.545 46.1045L462.961 37.7852C461.055 36.6533 458.855 35.7949 456.351 35.2102C453.851 34.6255 451.312 34.333 448.737 34.333C444.965 34.333 441.785 34.8988 439.189 36.0308C436.596 37.1628 434.646 38.7002 433.337 40.6431C432.032 42.5861 431.38 44.7652 431.38 47.1799C431.38 49.9341 432.087 52.1221 433.508 53.7444C434.926 55.367 436.623 56.546 438.601 57.2817C440.579 58.0175 443.046 58.7059 445.994 59.3472C448.682 59.9508 450.633 60.5262 451.845 61.0735C453.058 61.6205 453.666 62.4599 453.666 63.5919C453.666 65.7425 451.538 66.8175 447.282 66.8175C445.041 66.8175 442.766 66.459 440.449 65.7425C438.137 65.0256 436.101 64.0822 434.348 62.9128L430.707 71.1754C432.572 72.4959 435.001 73.5523 437.986 74.3444C440.972 75.1368 444.053 75.533 447.227 75.533Z" fill="white"/>
</svg>
