<svg width="200" height="200" viewBox="0 0 200 200" fill="none" xmlns="http://www.w3.org/2000/svg">
<path d="M54 168C55.3565 160.715 61.8982 155.193 69.7644 155.193C74.7309 155.193 79.1715 157.396 82.1105 160.854C84.4058 150.94 93.4958 143.535 104.365 143.535C109.3 143.535 113.868 145.063 117.601 147.657C119.766 137.572 128.939 130 139.929 130C152.528 130 162.744 139.953 162.744 152.233C162.744 153.124 162.687 154 162.584 154.862C163.999 154.388 165.521 154.13 167.101 154.13C174.778 154.13 181 160.193 181 167.674C181 167.784 181 167.892 180.995 168H54Z" fill="white" stroke="#01090F" stroke-width="1.35" stroke-miterlimit="10"/>
<path d="M160.356 20.3562L179.063 104.509L96.8308 78.6336L160.356 20.3562Z" fill="#01090F" stroke="#01090F" stroke-width="1.35"/>
<rect x="179.611" y="105.094" width="86.6988" height="11.418" transform="rotate(-102.641 179.611 105.094)" fill="white" stroke="#01090F" stroke-width="1.35" stroke-miterlimit="10"/>
<rect x="46.2159" y="63.925" width="64.7207" height="110.502" rx="32.3604" transform="rotate(-30.6563 46.2159 63.925)" fill="#F5F5F5" stroke="#01090F" stroke-width="1.35"/>
<rect x="40.9248" y="68.7775" width="64.7207" height="110.502" rx="32.3604" transform="rotate(-30.6563 40.9248 68.7775)" fill="#1C4396" stroke="#01090F" stroke-width="1.35"/>
<path d="M3.75781 123.763L9.19709 110.724L85.0535 94.2816L80.3007 107.171L3.75781 123.763Z" fill="white" stroke="#01090F" stroke-width="1.35" stroke-miterlimit="10"/>
<path d="M96.2131 183.365C86.3167 185.422 76.1146 185.553 66.1646 183.751C55.9931 181.908 46.2842 178.079 37.5923 172.484C28.9003 166.889 21.3955 159.637 15.5063 151.142C9.74534 142.831 5.64079 133.49 3.4149 123.631L79.6813 107.099L96.2131 183.365Z" fill="#F78400" stroke="#01090F" stroke-width="1.35" stroke-linejoin="round"/>
<path d="M96.1543 183.743L79.4791 106.815L84.0414 94.1837L100.717 171.112L96.1543 183.743Z" fill="#F5F5F5" stroke="#01090F" stroke-width="1.35" stroke-linejoin="round"/>
<path d="M120 83C118.814 76.482 113.097 71.541 106.222 71.541C101.881 71.541 97.9997 73.5122 95.4309 76.6063C93.4249 67.7356 85.48 61.1104 75.9802 61.1104C71.6673 61.1104 67.6745 62.4774 64.4119 64.798C62.5197 55.7752 54.5018 49 44.8967 49C33.8848 49 24.9563 57.905 24.9563 68.8926C24.9563 69.6897 25.0056 70.4739 25.0959 71.2453C23.8587 70.821 22.5292 70.5896 21.1481 70.5896C14.4383 70.5896 9 76.0149 9 82.7086C9 82.8072 9 82.9036 9.00429 83H120Z" fill="white" stroke="#01090F" stroke-width="1.35" stroke-miterlimit="10"/>
<path d="M158.325 100C158.325 108.464 151.464 115.325 143 115.325C134.536 115.325 127.675 108.464 127.675 100C127.675 91.5362 134.536 84.675 143 84.675C151.464 84.675 158.325 91.5362 158.325 100Z" fill="#F78400" stroke="#01090F" stroke-width="1.35" stroke-linejoin="round"/>
</svg>
