<svg width="46" height="45" viewBox="0 0 46 45" fill="none" xmlns="http://www.w3.org/2000/svg">
<path fill-rule="evenodd" clip-rule="evenodd" d="M9.875 33.75C9.875 34.7812 10.7188 35.625 11.75 35.625H34.25C35.2812 35.625 36.125 34.7812 36.125 33.75V24.375C36.125 23.3438 36.9688 22.5 38 22.5C39.0312 22.5 39.875 23.3438 39.875 24.375V35.625C39.875 37.6875 38.1875 39.375 36.125 39.375H9.875C7.8125 39.375 6.125 37.6875 6.125 35.625V9.375C6.125 7.3125 7.79375 5.625 9.875 5.625H21.125C22.1562 5.625 23 6.46875 23 7.5C23 8.53125 22.1562 9.375 21.125 9.375H11.75C10.7188 9.375 9.875 10.2188 9.875 11.25V33.75ZM28.625 9.375C27.5938 9.375 26.75 8.53125 26.75 7.5C26.75 6.46875 27.5938 5.625 28.625 5.625H39.875V16.875C39.875 17.9062 39.0312 18.75 38 18.75C36.9688 18.75 36.125 17.9062 36.125 16.875V12.0188L19.0062 29.1375C18.275 29.8687 17.0938 29.8687 16.3625 29.1375C15.6312 28.4062 15.6312 27.225 16.3625 26.4937L33.4812 9.375H28.625Z" fill="#2C71F0"/>
</svg>
