<svg width="20" height="20" viewBox="0 0 20 20" fill="none" xmlns="http://www.w3.org/2000/svg">
<path d="M18.9196 1.09524C18.655 0.830133 18.2959 0.68115 17.9214 0.68115C17.547 0.68115 17.1879 0.830133 16.9233 1.09524L10.0003 8.00411L3.07731 1.08108C2.8128 0.815976 2.45369 0.666992 2.0792 0.666992C1.70471 0.666992 1.34561 0.815976 1.0811 1.08108C0.528957 1.63322 0.528957 2.52515 1.0811 3.07729L8.00412 10.0003L1.0811 16.9233C0.528957 17.4755 0.528957 18.3674 1.0811 18.9196C1.63324 19.4717 2.52516 19.4717 3.07731 18.9196L10.0003 11.9965L16.9233 18.9196C17.4755 19.4717 18.3674 19.4717 18.9196 18.9196C19.4717 18.3674 19.4717 17.4755 18.9196 16.9233L11.9965 10.0003L18.9196 3.07729C19.4575 2.5393 19.4575 1.63322 18.9196 1.09524Z" fill="#2C71F0"/>
</svg>
