<svg width="71" height="31" viewBox="0 0 71 31" fill="none" xmlns="http://www.w3.org/2000/svg">
<path d="M7.32402 0.490112L14.2467 6.42971L5.01645 17.3022H12.3405V29.3827H0V17.3022C3.1102 11.7653 5.61842 6.1277 7.32402 0.490112ZM18.7615 29.3827V17.3022C21.8717 11.7653 24.3799 6.1277 26.0855 0.490112L33.0082 6.42971L23.778 17.3022H31.102V29.3827H18.7615Z" fill="#1B1B1B"/>
<path d="M63.676 30.4901L56.7533 24.5505L65.9836 13.678H58.6595V1.59749H71V13.678C67.8898 19.2149 65.3816 24.8525 63.676 30.4901ZM37.9918 24.5505L47.222 13.678H39.898V1.59749H52.2385V13.678C49.1283 19.2149 46.6201 24.8525 44.9145 30.4901L37.9918 24.5505Z" fill="#1B1B1B"/>
</svg>
