<svg width="722" height="636" viewBox="0 0 722 636" fill="none" xmlns="http://www.w3.org/2000/svg">
<circle cx="304.314" cy="282.248" r="179.931" fill="#2C71F0"/>
<circle cx="304.312" cy="282.246" r="202.65" stroke="#FFFBEB" stroke-width="0.605829"/>
<circle cx="304.31" cy="282.247" r="223.663" stroke="#FFFBEB" stroke-width="0.668649"/>
<path d="M119.531 311.932L293.404 451.273L452.434 356.461L441.832 150.176L293.404 280.429" stroke="#FFFBEB" stroke-width="0.605829"/>
<path d="M297.951 289.516L290.984 468.538" stroke="#FFFBEB" stroke-width="0.605829"/>
<circle cx="297.035" cy="449.457" r="39.076" fill="#FFFBEB" stroke="black" stroke-width="0.605829"/>
<rect x="273.717" y="436.865" width="47.8605" height="27.8681" fill="#2C71F0" stroke="black" stroke-width="0.605829"/>
<path d="M273.109 438.25H320.97" stroke="black" stroke-width="0.605829"/>
<path d="M121.344 314.66L300.063 278.008" stroke="#FFFBEB" stroke-width="0.605829"/>
<path d="M198.891 121.703L298.549 271.646L453.642 350.706" stroke="#FFFBEB" stroke-width="0.605829"/>
<circle cx="303.707" cy="279.219" r="39.076" fill="#FFFBEB" stroke="black" stroke-width="0.605829"/>
<path d="M329.828 282.949C330.004 281.686 330.109 280.388 330.109 279.09C330.109 277.791 330.004 276.493 329.828 275.23L324.53 273.335C324.039 271.581 323.337 269.896 322.46 268.352L324.881 263.265C323.337 261.194 321.477 259.335 319.407 257.791L314.319 260.212C312.775 259.335 311.091 258.633 309.336 258.142L307.442 252.843C306.178 252.668 304.88 252.562 303.582 252.562C302.284 252.562 300.985 252.668 299.722 252.843L297.827 258.142C296.073 258.633 294.389 259.335 292.845 260.212L287.757 257.791C285.687 259.335 283.827 261.194 282.283 263.265L284.704 268.352C283.827 269.896 283.125 271.581 282.634 273.335L277.335 275.23C277.16 276.493 277.055 277.791 277.055 279.09C277.055 280.388 277.16 281.686 277.335 282.949L282.634 284.809C283.125 286.564 283.827 288.248 284.704 289.792L282.283 294.88C283.827 296.95 285.687 298.809 287.757 300.353L292.845 297.932C294.389 298.809 296.073 299.511 297.827 300.003L299.722 305.301C300.985 305.476 302.284 305.582 303.582 305.582C304.88 305.582 306.178 305.476 307.442 305.301L309.336 300.003C311.091 299.511 312.775 298.809 314.319 297.932L319.407 300.353C321.477 298.809 323.337 296.95 324.881 294.88L322.46 289.792C323.337 288.248 324.039 286.564 324.53 284.809L329.828 282.949ZM303.582 292.915C295.932 292.915 289.722 286.704 289.722 279.055C289.722 271.405 295.932 265.194 303.582 265.194C311.231 265.194 317.442 271.405 317.442 279.055C317.442 286.704 311.231 292.915 303.582 292.915Z" fill="#2C71F0" stroke="black" stroke-width="0.605829" stroke-miterlimit="10"/>
<circle cx="457.457" cy="351.597" r="56.908" fill="#FFFBEB" stroke="black" stroke-width="0.972786"/>
<path d="M443.937 367.815C446.033 366.825 448.303 366 450.579 365.43C450.066 365.274 449.55 365.033 449.121 364.875C444.828 363.038 441.263 359.908 439.031 355.808C436.716 351.796 435.825 347.066 436.465 342.465C437.106 337.864 439.197 333.563 442.506 330.333C445.813 327.019 450.087 324.952 454.653 324.32C459.22 323.688 463.916 324.665 467.968 327.018C472.021 329.371 475.173 332.937 476.901 337.219C478.714 341.5 479.013 346.331 477.859 350.776C476.708 355.306 474.013 359.283 470.353 362.098C470.271 362.185 470.186 362.187 470.019 362.276L470.104 362.274C468.606 363.418 466.933 364.312 465.254 365.036C473.274 366.518 480.522 370.907 485.535 377.394C490.483 371.998 493.696 365.206 494.86 357.959C496.023 350.712 494.975 343.27 491.995 336.644C488.929 329.936 484.024 324.295 477.892 320.385C471.675 316.477 464.49 314.463 457.195 314.659C449.898 314.77 442.745 317.085 436.744 321.235C430.744 325.386 426.061 331.199 423.275 338.065C420.486 344.846 419.838 352.334 421.219 359.512C422.685 366.688 426.173 373.301 431.321 378.51C434.509 373.926 438.824 370.245 443.937 367.815Z" fill="#2C71F0" stroke="#131B47" stroke-width="0.972786" stroke-miterlimit="10"/>
<path d="M459.112 389.393C464.115 389.174 469.092 388.022 473.62 385.948C478.149 383.874 482.312 380.876 485.608 377.137C480.51 370.653 473.262 366.263 465.07 364.701C466.834 363.974 468.507 363.08 470.005 361.937L469.92 361.939C470.004 361.937 470.172 361.847 470.254 361.76C473.996 358.858 476.606 354.883 477.845 350.436C479.081 345.904 478.699 341.16 476.887 336.88C475.074 332.599 471.92 328.949 467.869 326.681C463.816 324.328 459.124 323.435 454.469 323.985C449.818 324.619 445.459 326.688 442.153 330.003C438.846 333.317 436.668 337.535 436.029 342.221C435.389 346.822 436.28 351.552 438.595 355.565C440.91 359.577 444.476 362.792 448.855 364.627C449.371 364.868 449.884 365.024 450.398 365.18C448.036 365.752 445.851 366.575 443.671 367.567C438.558 369.997 434.158 373.68 430.801 378.269C434.466 381.991 438.874 384.928 443.764 386.834C448.653 388.74 453.855 389.619 459.112 389.393Z" fill="#2C71F0" stroke="#131B47" stroke-width="0.972786" stroke-miterlimit="10"/>
<circle cx="369.132" cy="213.788" r="5.45246" fill="#FFFBEB"/>
<circle cx="369.132" cy="213.788" r="5.45246" fill="#FFFBEB"/>
<circle cx="252.202" cy="418.558" r="5.45246" fill="#FFFBEB"/>
<circle cx="188.687" cy="301.253" r="5.45246" fill="#FFFBEB"/>
<circle cx="448.499" cy="258.015" r="5.45246" fill="#FFFBEB"/>
<circle cx="294.617" cy="373.726" r="5.45246" fill="#FFFBEB"/>
<circle cx="233.429" cy="175.015" r="5.45246" fill="#FFFBEB"/>
<circle cx="438.359" cy="461.062" r="5.45246" fill="#FFFBEB"/>
<circle cx="128.015" cy="182.284" r="5.45246" fill="#FFFBEB"/>
<circle cx="163.757" cy="429.464" r="5.45246" fill="#FFFBEB"/>
<circle cx="504.296" cy="253.421" r="5.45246" fill="#FFFBEB"/>
<path d="M126.805 306.782L199.504 118.066L440.927 150.175" stroke="#FFFBEB" stroke-width="0.605829"/>
<circle cx="124.387" cy="309.512" r="39.076" fill="#FFFBEB" stroke="black" stroke-width="0.605829"/>
<path d="M124.385 330.704C136.093 330.704 145.583 321.214 145.583 309.507C145.583 297.799 136.093 288.309 124.385 288.309C112.678 288.309 103.188 297.799 103.188 309.507C103.188 321.214 112.678 330.704 124.385 330.704Z" fill="#2C71F0" stroke="black" stroke-width="0.605829" stroke-miterlimit="10"/>
<path d="M124.514 288.309C132.636 301.299 132.539 317.823 124.234 330.704" stroke="black" stroke-width="0.605829" stroke-miterlimit="10" stroke-linejoin="round"/>
<path d="M124.514 288.309L124.234 330.704" stroke="black" stroke-width="0.605829" stroke-miterlimit="10" stroke-linejoin="round"/>
<path d="M124.514 288.309C143.672 296.042 143.502 323.226 124.234 330.704" stroke="black" stroke-width="0.605829" stroke-miterlimit="10" stroke-linejoin="round"/>
<path d="M124.497 288.309C116.205 301.202 116.096 317.714 124.23 330.704" stroke="black" stroke-width="0.605829" stroke-miterlimit="10" stroke-linejoin="round"/>
<path d="M124.492 288.309C105.237 295.787 105.067 322.983 124.225 330.704" stroke="black" stroke-width="0.605829" stroke-miterlimit="10" stroke-linejoin="round"/>
<path d="M145.568 309.65L103.172 309.383" stroke="black" stroke-width="0.605829" stroke-miterlimit="10" stroke-linejoin="round"/>
<path d="M104.477 316.973L144.469 317.228" stroke="black" stroke-width="0.605829" stroke-miterlimit="10" stroke-linejoin="round"/>
<path d="M109.477 324.582L139.173 324.776" stroke="black" stroke-width="0.605829" stroke-miterlimit="10" stroke-linejoin="round"/>
<path d="M104.555 301.797L144.547 302.052" stroke="black" stroke-width="0.605829" stroke-miterlimit="10" stroke-linejoin="round"/>
<path d="M109.664 294.246L139.348 294.44" stroke="black" stroke-width="0.605829" stroke-miterlimit="10" stroke-linejoin="round"/>
<circle cx="436.254" cy="155.023" r="39.076" fill="#FFFBEB" stroke="black" stroke-width="0.605829"/>
<rect x="419.592" y="132.303" width="33.3206" height="44.8313" rx="2.1204" fill="#2C71F0" stroke="black" stroke-width="0.605829"/>
<rect x="422.014" y="135.334" width="28.474" height="36.9556" fill="#FFFBEB" stroke="black" stroke-width="0.605829"/>
<circle cx="436.251" cy="175.012" r="0.908743" fill="#2C71F0" stroke="black" stroke-width="0.605829"/>
<circle cx="199.496" cy="116.855" r="39.076" fill="#FFFBEB" stroke="black" stroke-width="0.605829"/>
<path d="M215.855 113.955C215.008 113.955 214.2 114.109 213.45 114.359C213.527 113.84 213.566 113.301 213.566 112.763C213.566 106.319 208.352 101.105 201.908 101.105C197.945 101.105 194.444 103.087 192.348 106.107C191.694 105.857 190.982 105.722 190.251 105.722C187 105.722 184.365 108.358 184.365 111.609V111.628C184.153 111.609 183.922 111.609 183.691 111.609C179.036 111.609 175.266 115.379 175.266 120.034C175.266 124.689 179.036 128.46 183.691 128.46H215.874C219.875 128.46 223.126 125.209 223.126 121.208C223.126 117.206 219.856 113.955 215.855 113.955Z" fill="#2C71F0" stroke="black" stroke-width="0.605829" stroke-miterlimit="10"/>
<path d="M310.977 458.371L321.787 466.648L317.064 467.419L319.978 473.339L317.528 474.471L314.586 468.551L310.977 471.771V458.371Z" fill="black"/>
<rect x="-0.165841" y="0.659743" width="14.7074" height="133.969" rx="7.35368" transform="matrix(-0.858157 0.513388 0.513388 0.858157 505.4 418.175)" fill="#FFA9C6" stroke="black" stroke-width="0.962044"/>
<circle cx="86.1817" cy="86.1817" r="81.8525" transform="matrix(-0.107264 0.994231 0.994231 0.107264 379.195 259.84)" stroke="#FFA9C6" stroke-width="8.6584"/>
<circle cx="86.1817" cy="86.1817" r="85.7007" transform="matrix(-0.107264 0.994231 0.994231 0.107264 379.195 259.84)" stroke="black" stroke-width="0.962044"/>
<circle cx="78.347" cy="78.347" r="77.866" transform="matrix(-0.107264 0.994231 0.994231 0.107264 386.148 268.469)" stroke="black" stroke-width="0.962044"/>
</svg>
