<svg width="40" height="40" viewBox="0 0 40 40" fill="none" xmlns="http://www.w3.org/2000/svg">
<path fill-rule="evenodd" clip-rule="evenodd" d="M20 40C31.048 40 40 31.048 40 20C40 8.96 31.048 0 20 0C8.952 0 0 8.952 0 20C0 31.048 8.952 40 20 40ZM23.458 16.7034H28.6246V15.2784H25.2096C25.3055 14.7391 25.6334 14.4331 26.3053 14.095L26.9371 13.773C28.0568 13.1934 28.6566 12.5413 28.6566 11.4706C28.6566 10.8024 28.4007 10.2711 27.8808 9.88467C27.377 9.49825 26.7611 9.31309 26.0493 9.31309C25.4815 9.31309 24.9616 9.458 24.4898 9.75586C24.0259 10.0537 23.674 10.424 23.458 10.891L24.4498 11.8892C24.8337 11.1083 25.3855 10.7219 26.1213 10.7219C26.7372 10.7219 27.121 11.0439 27.121 11.4867C27.121 11.857 26.9371 12.171 26.2253 12.5333L25.8254 12.7345C24.9456 13.1853 24.3378 13.6925 23.9859 14.2721C23.634 14.8437 23.458 15.5763 23.458 16.4618V16.7034ZM22.5143 18.3456H28.1688L31 23.2725L28.1768 28.1993L25.3455 23.2725H19.691L22.5143 18.3456ZM13.6527 19.996C13.6527 23.6187 16.5799 26.5651 20.1789 26.5651C21.8025 26.5651 23.2901 25.9613 24.4258 24.9792L26.9051 29.2942C25.0176 30.6789 22.6902 31.5 20.1789 31.5C13.8606 31.5 8.75 26.3477 8.75 19.996C8.75 13.6523 13.8686 8.5 20.1789 8.5C20.9467 8.5 21.6905 8.57245 22.4183 8.71736L20.1789 13.4268C16.5799 13.4268 13.6527 16.3733 13.6527 19.996Z" fill="#112A62"/>
</svg>
