<svg xmlns="http://www.w3.org/2000/svg" width="240" height="157" viewBox="-30 0 270 157" fill="none">
<path d="M121.724 39.7659C132.251 39.7659 140.786 31.2372 140.786 20.7166C140.786 10.1959 132.251 1.66724 121.724 1.66724C111.196 1.66724 102.662 10.1959 102.662 20.7166C102.662 31.2372 111.196 39.7659 121.724 39.7659Z" fill="black" stroke="black" stroke-width="1.5" stroke-linecap="round" stroke-linejoin="round"/>
<path d="M118.968 39.7659C129.495 39.7659 138.03 31.2372 138.03 20.7166C138.03 10.1959 129.495 1.66724 118.968 1.66724C108.44 1.66724 99.9058 10.1959 99.9058 20.7166C99.9058 31.2372 108.44 39.7659 118.968 39.7659Z" fill="#F5E644" stroke="black" stroke-width="1.5" stroke-linecap="round" stroke-linejoin="round"/>
<path d="M118.968 35.5659C127.175 35.5659 133.828 28.9176 133.828 20.7164C133.828 12.5153 127.175 5.86694 118.968 5.86694C110.762 5.86694 104.109 12.5153 104.109 20.7164C104.109 28.9176 110.762 35.5659 118.968 35.5659Z" fill="#FEAD3B" stroke="black" stroke-width="1.5" stroke-linecap="round" stroke-linejoin="round"/>
<path d="M114.141 19.0556C113.896 18.3346 113.777 17.5783 113.787 16.8183C113.787 14.2059 115.957 11.5664 119.763 11.5664C124.076 11.5664 125.538 14.4997 125.565 16.7098L121.988 17.2161C121.961 15.8059 121.23 14.8748 119.819 14.8748C119.538 14.8587 119.258 14.9016 118.995 15.0005C118.733 15.0994 118.496 15.2521 118.298 15.4484C118.101 15.6447 117.948 15.88 117.85 16.1388C117.753 16.3976 117.712 16.674 117.731 16.9494C117.742 17.6744 117.898 18.3901 118.191 19.0556H122.963V21.9889H119.143C119.166 22.1476 119.175 22.3078 119.17 22.468C119.198 23.1177 119.059 23.7638 118.765 24.3462C118.471 24.9286 118.031 25.4285 117.488 25.7991H121.037C121.304 25.8113 121.57 25.7687 121.819 25.674C122.068 25.5794 122.294 25.4347 122.483 25.2493C122.672 25.0639 122.82 24.8418 122.917 24.5971C123.014 24.3525 123.058 24.0907 123.046 23.8285L126.623 24.0409C126.623 27.0511 124.591 29.2658 121.566 29.2658H112.514V26.1019C114.219 25.5144 115.332 24.4206 115.332 22.8523C115.321 22.5561 115.286 22.2613 115.226 21.9709H112.596V19.0376L114.141 19.0556Z" fill="#F5E644" stroke="black" stroke-width="1.5" stroke-linecap="round" stroke-linejoin="round"/>
<path d="M159.035 141.082C157.805 140.166 156.462 139.411 155.04 138.836C153.683 138.265 152.295 137.772 150.882 137.359C143.718 135.22 133.447 133.865 122.066 133.865C118.682 133.865 115.396 133.985 112.26 134.207C111.095 134.289 109.958 134.385 108.851 134.497C107.373 134.643 105.937 134.809 104.544 134.996C94.3459 136.406 86.6749 138.988 83.9731 142.113C83.2814 142.911 82.9119 143.742 82.9119 144.595C82.9119 149.304 94.0638 153.329 109.496 154.764C110.969 154.902 112.48 155.016 114.03 155.104C116.625 155.253 119.314 155.333 122.066 155.333C135.37 155.333 147.161 153.497 154.241 150.702C158.638 148.955 161.22 146.859 161.22 144.595C161.22 143.378 160.448 142.19 159.035 141.082Z" fill="black" stroke="black" stroke-width="1.5" stroke-linecap="round" stroke-linejoin="round"/>
<path d="M92.514 32.1232C92.4166 34.182 94.5416 34.182 95.1359 33.2786C95.7302 32.3753 95.3357 31.1301 95.885 30.359C96.252 29.8222 96.6868 29.3349 97.1785 28.9092C96.3819 29.0589 95.5904 29.2211 94.8063 29.4083C94.6882 29.5314 94.5604 29.6448 94.4242 29.7476C94.0797 29.9897 92.5914 30.4862 92.514 32.1232Z" fill="#549CF1" stroke="black" stroke-width="1.5" stroke-linecap="round" stroke-linejoin="round"/>
<path d="M87.7162 144.225C86.5701 143.017 85.0444 141.557 85.6362 140.002C86.0682 138.872 87.499 138.32 87.8136 137.153C88.313 135.331 85.8709 134.158 85.0793 132.449C84.2878 130.739 85.2966 128.706 86.1406 126.989C86.9846 125.272 87.5764 122.944 86.1905 121.611C84.495 119.979 81.3712 121.317 79.5009 119.889C77.9502 118.704 78.12 116.338 77.2535 114.589C75.9101 111.877 71.9497 110.312 72.3193 107.307C72.539 105.501 74.297 104.368 75.7403 103.257C77.1836 102.147 78.5695 100.285 77.7554 98.6559C76.5743 96.2827 74.2895 98.017 72.2868 96.2802C70.5788 94.798 70.7736 91.5065 68.6261 90.7903C67.6273 90.4634 66.5735 90.8901 65.5448 91.0748C64.516 91.2594 63.195 91.0124 62.8879 90.0142C62.6906 89.3604 63.0252 88.6468 62.8879 87.978C62.6382 86.7303 61.0101 86.3385 59.7616 86.5756C58.513 86.8126 57.292 87.2269 56.016 87.1046C53.4265 86.8551 51.7959 84.3746 51.5462 82.6703C51.2965 80.9659 51.4064 79.1567 50.6597 77.6046C50.4249 77.137 50.094 76.7243 49.6887 76.3932C49.2834 76.0621 48.8127 75.8201 48.3075 75.6831C47.2312 80.3115 46.6891 85.0479 46.6919 89.7997C46.6919 116.855 64.0415 139.855 88.2256 148.31C89.4592 147.528 88.7999 145.365 87.7162 144.225Z" fill="#549CF1" stroke="black" stroke-width="1.5" stroke-linecap="round" stroke-linejoin="round"/>
<path d="M83.3714 35.6292C85.3691 35.5194 85.6637 33.9698 87.6988 34.0172C90.2334 34.0746 89.6515 32.0208 88.1983 31.3071C85.8069 32.1471 83.4694 33.133 81.199 34.2592C81.3738 34.923 81.8732 35.714 83.3714 35.6292Z" fill="#549CF1" stroke="black" stroke-width="1.5" stroke-linecap="round" stroke-linejoin="round"/>
<path d="M97.7391 146.118L106.788 137.971C108.144 136.751 109.633 135.101 109.116 133.354C108.776 132.217 107.635 131.393 107.505 130.213C107.305 128.406 109.503 127.323 111.326 127.193C113.149 127.064 115.241 127.216 116.467 125.871C118.305 123.849 116.467 120.61 116.967 117.923C117.344 115.859 119.111 114.197 119.244 112.104C119.444 108.919 115.93 106.863 112.846 106.047C109.762 105.231 106.144 104.55 104.634 101.728C103.852 100.27 103.57 98.2141 101.989 97.735C100.99 97.4256 99.8716 97.9521 98.8653 97.6576C96.6429 97.0038 96.8152 93.1983 94.6203 92.4472C92.6226 91.7609 90.61 94.3138 88.5699 93.7398C86.747 93.2408 86.1927 90.5482 84.3473 90.124C82.0401 89.5975 79.3932 94.7679 76.0771 94.0268C73.143 93.373 74.4365 89.4427 73.0806 87.7883C71.7247 86.1338 69.1202 87.0396 69.4324 84.8287C69.6571 83.2291 70.6809 80.8535 69.0678 80.624C67.3198 80.3744 66.4683 83.551 63.3245 84.1424C62.0385 84.392 59.8486 83.8355 59.6139 80.307C59.4266 77.5022 61.6715 74.1658 66.376 73.4671C73.118 72.469 72.6586 75.5558 74.821 76.3169C76.9835 77.078 77.7826 76.6138 78.8888 74.6075C79.9126 72.7459 78.9537 70.0983 80.3695 68.5162C81.1586 67.6353 82.4296 67.4082 83.4459 66.8018C86.4424 65.0176 86.8045 60.2864 89.9857 58.8515C91.6887 58.0829 93.6564 58.3324 95.5242 58.2176C97.392 58.1029 99.5195 57.0049 98.3109 54.3697C97.9863 53.661 97.1223 53.3092 96.8127 52.5955C95.9287 50.5992 99.0176 49.0096 100.094 51.1132C102.284 55.4003 104.419 50.5742 105.338 51.9092C106.114 53.0422 104.496 54.3872 105.338 55.5551C105.727 56.0941 106.701 55.9044 107.585 56.0541C108.559 56.2114 109.453 56.653 109.982 56.1664C110.981 55.2356 110.829 53.973 109.098 53.2243C108.689 53.0472 107.827 52.8001 107.67 52.3833C107.156 51.0034 109.493 50.9061 109.668 49.7033C109.947 47.677 108.184 47.4923 107.453 46.5216C106.491 45.2515 106.771 42.7786 105.175 43.2652C103.58 43.7518 102.571 44.8647 101.487 43.597C100.939 42.9113 100.516 42.1341 100.239 41.3013C99.3023 38.7759 95.0448 39.2426 94.6078 41.6282C93.9161 45.4012 93.157 46.3345 91.0969 47.2079C89.2616 47.9864 89.349 51.4326 87.5111 50.669C86.5722 50.2797 87.3538 47.9565 85.6683 46.5865C84.7569 45.8379 83.0664 46.3644 82.1724 45.6033C80.2372 43.9514 81.8128 41.3911 83.0838 41.0442C86.2426 40.1783 86.0803 38.5488 88.1604 38.2369C89.9383 37.9873 90.8647 39.8988 92.0608 39.5395C93.3667 39.1477 93.4167 37.099 94.463 36.4277C95.9612 35.4695 96.6804 36.4277 98.7579 34.1818C99.9615 32.8792 104.286 33.6129 104.251 35.3846C104.226 36.535 100.633 36.6698 100.428 38.0323C100.319 38.766 101.819 38.8134 103.19 39.0879C104.039 39.2575 104.958 39.9462 105.537 39.9163C106.751 39.8514 106.401 38.3966 107.588 38.202C109.463 37.895 111.333 37.6554 111.236 35.9186C111.148 34.4488 109.338 35.6417 109.053 33.3983C108.804 31.5243 105.373 30.7257 104.354 29.6552C103.747 29.029 103.022 28.5286 102.221 28.1829C100.522 28.3609 98.8428 28.6063 97.1848 28.9191C96.693 29.3448 96.2583 29.832 95.8913 30.3688C95.3494 31.1399 95.7415 32.3827 95.1422 33.2885C94.5429 34.1944 92.4229 34.1918 92.5202 32.1331C92.5977 30.4961 94.0859 29.9995 94.423 29.75C94.5592 29.6472 94.6869 29.5337 94.8051 29.4106C92.5749 29.9238 90.3749 30.5602 88.2153 31.3171C89.6611 32.0308 90.2429 34.0845 87.7159 34.0272C85.6808 33.9797 85.3736 35.5244 83.3885 35.6392C81.8902 35.724 81.3908 34.933 81.2135 34.2692C73.0211 38.3309 65.8267 44.1496 60.1437 51.3101C54.4608 58.4705 50.4294 66.7962 48.3372 75.693C48.8424 75.83 49.313 76.072 49.7183 76.4031C50.1236 76.7342 50.4545 77.1469 50.6894 77.6145C51.4385 79.1666 51.3236 80.9758 51.5758 82.6802C51.828 84.3845 53.4561 86.865 56.0456 87.1145C57.3116 87.2368 58.5427 86.8225 59.7912 86.5855C61.0397 86.3484 62.6753 86.7402 62.9175 87.9879C63.0474 88.6567 62.7128 89.3703 62.9175 90.0241C63.2247 91.0223 64.5456 91.2719 65.5744 91.0847C66.6032 90.8975 67.6644 90.4733 68.6558 90.8002C70.8033 91.5064 70.6085 94.7929 72.3165 96.2901C74.3141 98.0369 76.6039 96.2902 77.7851 98.6658C78.5991 100.295 77.2132 102.159 75.7699 103.267C74.3266 104.375 72.5687 105.513 72.3489 107.317C71.9794 110.312 75.9397 111.886 77.2831 114.599C78.1521 116.346 77.9823 118.714 79.5305 119.899C81.4008 121.327 84.5246 119.989 86.2201 121.621C87.606 122.954 87.0167 125.269 86.1702 126.999C85.3237 128.728 84.2999 130.714 85.109 132.459C85.918 134.203 88.3352 135.341 87.8432 137.162C87.5286 138.33 86.0953 138.882 85.6658 140.012C85.074 141.567 86.5997 143.027 87.7459 144.234C88.8296 145.375 89.4938 147.538 88.2702 148.329C90.5593 149.132 92.894 149.799 95.262 150.326C95.1796 148.799 96.5031 147.234 97.7391 146.118Z" fill="#88EB7A" stroke="black" stroke-width="1.5" stroke-linecap="round" stroke-linejoin="round"/>
<path d="M167.206 69.1423C166.761 69.1783 166.332 69.3243 165.958 69.5669C165.584 69.8095 165.275 70.1412 165.061 70.5322C164.871 70.9066 164.075 71.8224 163.608 71.8224C161.278 71.8224 162.139 70.4523 159.802 69.9832C158.684 69.7611 156.806 70.9814 156.169 70.0232C155.794 69.4642 155.685 68.7755 155.42 68.1616C154.486 66.063 151.407 65.3193 149.617 66.7592C149.085 67.1884 148.67 67.7573 148.096 68.1291C145.674 69.6938 142.562 66.8615 139.718 67.3431C138.823 67.5251 138.023 68.0247 137.467 68.7499C136.911 69.475 136.637 70.3767 136.694 71.2883C136.744 71.8223 136.914 72.3639 136.797 72.8879C136.607 73.7239 135.77 74.2329 134.984 74.5798C133.446 75.261 132.142 75.2835 130.469 76.7907C129.221 77.9161 128.362 79.8002 129.221 81.245C129.445 81.6243 129.772 81.9437 129.97 82.338C130.934 84.2395 128.619 86.2134 128.427 88.327C128.199 90.8349 130.854 92.5268 132.122 94.7028C133.121 96.4146 133.62 98.8651 135.551 99.2819C137.481 99.6986 139.184 97.55 141.177 97.6024C142.355 97.6324 143.446 98.4409 144.62 98.3086C145.549 98.2038 146.296 97.5351 147.085 97.031C147.874 96.5269 148.945 96.1876 149.704 96.7341C150.463 97.2805 150.508 98.3336 151.14 98.9624C152.121 99.9331 153.994 99.4615 154.908 100.497C156.156 101.912 154.239 104.058 154.521 105.922C154.786 107.686 156.841 108.507 157.899 109.942C159.028 111.469 158.928 113.571 158.529 115.432C158.129 117.294 157.482 119.145 157.68 121.032C157.837 122.529 158.746 124.026 160.049 124.61C167.037 114.349 170.765 102.219 170.747 89.8068C170.751 82.7675 169.554 75.7791 167.206 69.1423Z" fill="#88EB7A" stroke="black" stroke-width="1.5" stroke-linecap="round" stroke-linejoin="round"/>
<path d="M150.444 49.073C149.803 50.171 149.675 51.8853 148.422 52.1099C148.024 52.1423 147.623 52.0957 147.243 51.9727C146.177 51.7231 144.981 51.768 144.092 52.4019C143.777 52.6281 143.525 52.932 143.363 53.284C143.2 53.6361 143.131 54.0242 143.163 54.4107C143.243 55.4987 144.109 55.7232 144.704 56.2573C145.081 56.5941 145.338 57.1831 145.051 57.5973C144.107 58.2387 142.843 58.0964 141.735 57.8169C140.538 57.5274 139.29 57.1257 138.109 57.5549C137.793 57.6714 137.51 57.8618 137.283 58.1102C137.057 58.3585 136.893 58.6576 136.805 58.9823C136.441 60.3747 137.784 60.6093 138.121 61.4951C138.566 62.6705 137.003 64.1827 137.872 65.0811C138.329 65.5527 139.12 65.3905 139.702 65.0811C140.284 64.7716 140.841 64.3324 141.497 64.3324C142.087 64.3324 142.606 64.6943 143.14 64.9438C144.072 65.378 145.215 65.4754 146.112 64.9688C147.141 64.3849 147.665 62.8801 146.789 61.9443C146.553 61.7134 146.395 61.4152 146.337 61.0909C146.209 60.1876 147.061 60.0054 147.668 60.19C148.122 60.3273 148.529 60.6118 148.999 60.6891C150.247 60.9212 151.246 59.7683 152.027 58.7752C152.433 58.2301 152.936 57.7648 153.511 57.4027C153.673 57.3133 153.854 57.2638 154.038 57.2583C154.223 57.2528 154.407 57.2914 154.574 57.3709C154.741 57.4505 154.886 57.5686 154.999 57.7156C155.111 57.8626 155.186 58.0342 155.219 58.2162C155.361 58.8995 155.692 59.5295 156.174 60.0348C156.656 60.5401 157.269 60.9007 157.945 61.0759C158.772 61.2631 159.666 61.1558 160.393 61.7247C160.561 61.8488 160.69 62.0182 160.765 62.2132C160.84 62.4081 160.858 62.6204 160.817 62.8252C160.53 64.0729 158.358 63.5464 157.911 64.8864C157.613 65.7673 158.28 66.6557 159.199 66.7879C160.612 66.9926 161.719 65.7897 162.136 64.5021C162.58 63.1471 163.516 62.5907 164.233 62.1664C161.636 56.9735 158.323 52.1697 154.392 47.8951C153.104 47.2364 151.176 47.8128 150.444 49.073Z" fill="#88EB7A" stroke="black" stroke-width="1.5" stroke-linecap="round" stroke-linejoin="round"/>
<path d="M164.24 62.166C163.523 62.5902 162.587 63.1466 162.143 64.5016C161.726 65.7793 160.619 66.9971 159.206 66.7875C158.287 66.6552 157.62 65.7668 157.918 64.8859C158.364 63.5459 160.537 64.0674 160.824 62.8247C160.865 62.6199 160.847 62.4076 160.772 62.2127C160.697 62.0178 160.568 61.8483 160.4 61.7243C159.673 61.1553 158.779 61.2626 157.952 61.0754C157.276 60.9003 156.663 60.5397 156.181 60.0343C155.699 59.529 155.368 58.899 155.226 58.2157C155.193 58.0337 155.118 57.8622 155.006 57.7152C154.893 57.5682 154.748 57.45 154.581 57.3705C154.414 57.2909 154.23 57.2523 154.045 57.2578C153.861 57.2633 153.68 57.3128 153.518 57.4022C152.943 57.7643 152.44 58.2297 152.034 58.7747C151.255 59.7728 150.244 60.9207 149.005 60.6886C148.536 60.6013 148.129 60.3168 147.675 60.1896C147.068 60.0049 146.216 60.1896 146.344 61.0904C146.402 61.4147 146.56 61.7129 146.796 61.9438C147.672 62.8796 147.148 64.3844 146.119 64.9683C145.222 65.4674 144.079 65.3775 143.147 64.9433C142.613 64.6938 142.094 64.3345 141.504 64.332C140.848 64.332 140.288 64.7736 139.709 65.0806C139.13 65.3875 138.336 65.5572 137.879 65.0806C137.002 64.1822 138.565 62.67 138.128 61.4946C137.791 60.6088 136.448 60.3743 136.812 58.9818C136.9 58.6571 137.064 58.358 137.29 58.1097C137.517 57.8613 137.8 57.671 138.116 57.5544C139.297 57.1252 140.545 57.5269 141.742 57.8164C142.85 58.0884 144.114 58.2382 145.058 57.5968C145.345 57.1826 145.088 56.5987 144.711 56.2568C144.116 55.7228 143.25 55.5082 143.17 54.4102C143.138 54.0237 143.207 53.6356 143.37 53.2836C143.532 52.9315 143.784 52.6276 144.099 52.4014C144.988 51.7676 146.184 51.7326 147.25 51.9722C147.63 52.0952 148.031 52.1419 148.429 52.1094C149.677 51.8849 149.81 50.1705 150.451 49.0725C151.183 47.8124 153.111 47.2359 154.407 47.8947C148.605 41.5633 141.547 36.5095 133.683 33.0551C125.819 29.6008 117.321 27.8218 108.73 27.8316C106.553 27.8319 104.378 27.946 102.213 28.1735C103.014 28.5193 103.738 29.0196 104.345 29.6458C105.364 30.7113 108.805 31.5098 109.045 33.3889C109.33 35.6347 111.14 34.4395 111.227 35.9093C111.33 37.656 109.454 37.8856 107.579 38.1925C106.393 38.3872 106.743 39.842 105.529 39.9068C104.95 39.9368 104.031 39.2481 103.182 39.0784C101.811 38.8039 100.31 38.7565 100.42 38.0229C100.625 36.6604 104.218 36.5256 104.243 35.3752C104.278 33.6035 99.9531 32.8798 98.7495 34.1724C96.672 36.4183 95.9478 35.4625 94.4546 36.4183C93.4083 37.0895 93.3584 39.1383 92.0524 39.5301C90.8563 39.8894 89.9299 37.9704 88.152 38.2274C86.062 38.5319 86.2343 40.1689 83.0755 41.0348C81.8045 41.3816 80.2288 43.9419 82.164 45.5939C83.053 46.355 84.7435 45.8435 85.6599 46.5771C87.3454 47.9471 86.5639 50.2703 87.5028 50.6596C89.3456 51.4232 89.2507 47.9771 91.0885 47.1985C93.1486 46.3251 93.9077 45.3918 94.5994 41.6187C95.0364 39.2331 99.2939 38.7665 100.23 41.2918C100.508 42.1247 100.93 42.9019 101.479 43.5876C102.563 44.8552 103.569 43.7398 105.167 43.2557C106.765 42.7716 106.483 45.2521 107.444 46.5123C108.176 47.483 109.941 47.6676 109.659 49.6939C109.492 50.8967 107.162 50.994 107.662 52.374C107.819 52.7907 108.68 53.0377 109.09 53.2149C110.82 53.9635 110.985 55.2262 109.974 56.157C109.444 56.6561 108.551 56.2019 107.577 56.0447C106.693 55.9025 105.719 56.0921 105.329 55.5456C104.488 54.3778 106.106 53.0327 105.329 51.8998C104.415 50.5648 102.28 55.3934 100.085 51.1038C99.0092 49.0002 95.9204 50.5897 96.8043 52.586C97.119 53.2997 97.9829 53.6516 98.3026 54.3603C99.5186 56.9955 97.3662 58.1034 95.5158 58.2082C93.6655 58.313 91.6804 58.0735 89.9774 58.8421C86.7961 60.2769 86.4365 65.0082 83.4375 66.7925C82.4212 67.3988 81.1502 67.6259 80.3612 68.5068C78.9453 70.0889 79.9042 72.7365 78.8804 74.5981C77.7742 76.5944 76.9751 77.071 74.8127 76.3074C72.6502 75.5438 73.1072 72.457 66.3676 73.4577C61.6631 74.1564 59.4183 77.4928 59.6055 80.2976C59.8403 83.8261 62.0302 84.3751 63.3162 84.1331C66.4675 83.5392 67.3115 80.365 69.0594 80.6145C70.66 80.8441 69.6487 83.2197 69.424 84.8193C69.1119 87.0327 71.6888 86.0944 73.0722 87.7788C74.4556 89.4632 73.1346 93.3611 76.0687 94.0173C79.3848 94.766 82.0317 89.588 84.339 90.1146C86.1843 90.5388 86.7387 93.2188 88.5615 93.7304C90.6016 94.3043 92.6093 91.7515 94.6119 92.4377C96.8043 93.1864 96.632 96.9944 98.8569 97.6482C99.8558 97.9426 100.977 97.4161 101.981 97.7256C103.561 98.2122 103.844 100.268 104.625 101.718C106.123 104.528 109.754 105.212 112.838 106.038C115.922 106.864 119.435 108.91 119.235 112.094C119.103 114.188 117.335 115.85 116.958 117.913C116.459 120.601 118.302 123.84 116.459 125.861C115.233 127.206 113.133 127.057 111.317 127.184C109.502 127.311 107.297 128.397 107.497 130.203C107.627 131.384 108.768 132.2 109.107 133.345C109.624 135.092 108.136 136.741 106.78 137.962L97.7307 146.109C96.4947 147.224 95.1712 148.789 95.2337 150.301C99.6612 151.283 104.183 151.777 108.718 151.776C118.843 151.782 128.815 149.309 137.761 144.572C146.708 139.835 154.356 132.979 160.038 124.604C158.734 124.03 157.825 122.51 157.668 121.025C157.471 119.139 158.12 117.282 158.517 115.425C158.914 113.569 159.016 111.468 157.888 109.936C156.829 108.501 154.774 107.69 154.509 105.915C154.227 104.051 156.142 101.905 154.896 100.49C153.982 99.4548 152.109 99.9265 151.128 98.9558C150.496 98.3269 150.416 97.2489 149.692 96.7274C148.968 96.2059 147.859 96.5203 147.073 97.0243C146.286 97.5284 145.537 98.1971 144.608 98.3019C143.435 98.4342 142.343 97.6257 141.165 97.5958C139.167 97.5434 137.487 99.6919 135.539 99.2752C133.591 98.8585 133.107 96.4079 132.11 94.6961C130.842 92.5201 128.187 90.8282 128.415 88.3203C128.607 86.1992 130.912 84.2253 129.958 82.3313C129.758 81.9371 129.431 81.6177 129.209 81.2384C128.347 79.7935 129.209 77.9095 130.457 76.784C132.13 75.2868 133.434 75.2544 134.972 74.5731C135.759 74.2263 136.595 73.7172 136.785 72.8812C136.902 72.3572 136.732 71.8157 136.682 71.2817C136.625 70.3701 136.899 69.4684 137.455 68.7432C138.011 68.0181 138.811 67.5184 139.706 67.3364C142.551 66.8523 145.662 69.6871 148.084 68.1225C148.658 67.7532 149.083 67.1817 149.605 66.7525C151.395 65.3126 154.474 66.0563 155.408 68.1549C155.683 68.7688 155.793 69.4575 156.157 70.0165C156.789 70.9623 158.672 69.7545 159.79 69.9765C162.128 70.4457 161.266 71.8157 163.596 71.8157C164.063 71.8157 164.859 70.8999 165.049 70.5256C165.264 70.1345 165.572 69.8028 165.946 69.5602C166.321 69.3176 166.749 69.1717 167.194 69.1356C166.352 66.7546 165.365 64.4271 164.24 62.166Z" fill="#549CF1" stroke="black" stroke-width="1.5" stroke-linecap="round" stroke-linejoin="round"/>
<path d="M108.717 114.093C149.2 114.093 182.016 103.216 182.016 89.8005C182.016 85.1216 178.021 80.7521 171.109 77.0439" stroke="black" stroke-width="1.5" stroke-linejoin="round"/>
<path d="M45.1497 77.6965C38.962 81.26 35.4111 85.3924 35.4111 89.7993C35.4111 96.2873 43.0696 102.169 55.55 106.519L58.7512 107.621" stroke="black" stroke-width="1.5" stroke-linejoin="round"/>
<path d="M193.648 71.706C186.778 68.17 177.956 65.0932 167.678 62.6377" stroke="black" stroke-width="1.5" stroke-linecap="round" stroke-linejoin="round"/>
<path d="M166.504 51.0234C164.731 50.7323 162.937 50.4537 161.123 50.1875" stroke="black" stroke-width="1.5" stroke-linejoin="round"/>
<path d="M190.115 123.45C219.917 115.537 239 103.375 239 89.735C239 78.553 226.175 68.3618 205.137 60.6934" stroke="black" stroke-width="1.5" stroke-linecap="round" stroke-linejoin="round"/>
<path d="M39.8289 126.392C59.8054 130.527 83.4226 132.915 108.715 132.915C119.842 132.915 130.642 132.453 140.953 131.583" stroke="black" stroke-width="1.5" stroke-linejoin="round"/>
<path d="M2.26182 64.8337C-12.748 71.8708 -21.5652 80.4625 -21.5652 89.7355C-21.5652 98.6615 -13.3948 106.954 0.606264 113.839" stroke="black" stroke-width="1.5" stroke-linejoin="round"/>
<path d="M58.5653 49.864C54.7309 50.3873 51.0563 51.0019 47.5415 51.7001" stroke="black" stroke-width="1.5" stroke-linejoin="round"/>
<path d="M183.449 112.293C189.714 110.007 195.038 107.435 199.218 104.64" stroke="black" stroke-width="1.5" stroke-linejoin="round"/>
<path d="M99.9824 123.134C102.861 123.215 105.774 123.257 108.722 123.258C120.661 123.278 132.59 122.557 144.44 121.1" stroke="black" stroke-width="1.5" stroke-linejoin="round"/>
<path d="M39.7825 114.243C45.9295 116.12 52.177 117.651 58.4955 118.829" stroke="black" stroke-width="1.5" stroke-linejoin="round"/>
<path d="M11.4912 80.7644C9.06654 83.6391 7.76807 86.6685 7.76807 89.8003C7.76807 94.2147 10.3475 98.4294 15.0345 102.277" stroke="black" stroke-width="1.5" stroke-linejoin="round"/>
<path d="M50.479 62.4578C48.1917 62.9951 45.9752 63.5616 43.8293 64.1572" stroke="black" stroke-width="1.5" stroke-linejoin="round"/>
<ellipse cx="23.8334" cy="54.7988" rx="17.5287" ry="17.5171" fill="black"/>
<path d="M13.0181 38.9625C10.642 40.0901 8.54889 41.7354 6.89258 43.7775L20.5129 54.8002V37.283C17.9209 37.2803 15.3608 37.854 13.0181 38.9625Z" fill="#FFA9C6" stroke="black" stroke-width="1.5"/>
<path d="M6.89404 43.7771C4.22442 47.0714 2.84093 51.2214 3.00015 55.4575C3.15938 59.6936 4.85051 63.7282 7.7599 66.813L20.5156 54.7998L6.89404 43.7771Z" fill="#FCEE70" stroke="black" stroke-width="1.5"/>
<path d="M167.742 148.839C177.969 148.839 186.259 140.555 186.259 130.335C186.259 120.116 177.969 111.832 167.742 111.832C157.516 111.832 149.226 120.116 149.226 130.335C149.226 140.555 157.516 148.839 167.742 148.839Z" fill="black" stroke="black" stroke-width="1.5" stroke-linecap="round" stroke-linejoin="round"/>
<path d="M157.842 135.101C158.763 134.686 159.726 134.368 160.713 134.154C160.499 134.074 160.289 133.987 160.083 133.889C158.511 133.172 157.179 132.02 156.245 130.568C155.311 129.116 154.814 127.427 154.814 125.701C154.814 123.884 155.363 122.109 156.39 120.609C157.417 119.109 158.873 117.954 160.568 117.296C161.61 116.892 162.718 116.684 163.836 116.684C166.227 116.688 168.518 117.639 170.207 119.33C171.896 121.02 172.844 123.312 172.843 125.701C172.844 127.115 172.509 128.51 171.868 129.771C171.226 131.032 170.295 132.124 169.15 132.957L169.013 133.015H169.055C168.402 133.483 167.69 133.86 166.936 134.138C171.76 135.178 175.646 138.569 177.222 142.99C180.491 139.567 182.312 135.015 182.306 130.283C182.306 127.86 181.829 125.46 180.901 123.222C179.973 120.983 178.613 118.949 176.898 117.235C175.184 115.522 173.148 114.163 170.908 113.235C168.668 112.308 166.267 111.831 163.842 111.832C158.945 111.832 154.249 113.776 150.786 117.236C147.323 120.696 145.378 125.389 145.378 130.283C145.373 134.99 147.174 139.52 150.411 142.94C151.061 141.202 152.053 139.613 153.33 138.266C154.606 136.92 156.141 135.843 157.842 135.101Z" fill="#FFAE1F" stroke="black" stroke-width="1.5" stroke-miterlimit="10"/>
<path d="M166.949 134.153C167.703 133.876 168.415 133.498 169.068 133.031H169.026L169.164 132.972C170.308 132.139 171.239 131.048 171.881 129.787C172.522 128.526 172.857 127.131 172.856 125.716C172.857 123.327 171.909 121.036 170.22 119.345C168.531 117.655 166.24 116.703 163.85 116.699C162.732 116.7 161.623 116.907 160.581 117.311C158.886 117.97 157.43 119.125 156.403 120.624C155.377 122.124 154.827 123.899 154.827 125.716C154.827 127.442 155.324 129.132 156.258 130.583C157.192 132.035 158.525 133.188 160.096 133.904C160.303 133.997 160.512 134.084 160.726 134.169C159.739 134.384 158.776 134.701 157.855 135.117C156.155 135.862 154.622 136.942 153.348 138.291C152.073 139.64 151.084 141.232 150.438 142.971C151.32 143.903 152.297 144.743 153.351 145.476C156.437 147.622 160.108 148.771 163.868 148.766C167.628 148.771 171.299 147.623 174.385 145.476C175.421 144.757 176.38 143.935 177.249 143.021C175.67 138.585 171.784 135.193 166.949 134.153Z" fill="white" stroke="black" stroke-width="1.5" stroke-linecap="round" stroke-linejoin="round"/>
<path d="M170.397 142.473C174.094 142.473 177.091 139.478 177.091 135.784C177.091 132.089 174.094 129.094 170.397 129.094C166.7 129.094 163.703 132.089 163.703 135.784C163.703 139.478 166.7 142.473 170.397 142.473Z" fill="#88EB79" stroke="black" stroke-width="1.5" stroke-linecap="round" stroke-linejoin="round"/>
<path d="M170.363 132.337V139.228" stroke="black" stroke-width="1.5" stroke-linecap="round" stroke-linejoin="round"/>
<path d="M173.811 135.781H166.916" stroke="black" stroke-width="1.5" stroke-linecap="round" stroke-linejoin="round"/>
<path d="M189.418 61.3402C197.663 61.3402 204.346 54.6611 204.346 46.422C204.346 38.183 197.663 31.5039 189.418 31.5039C181.173 31.5039 174.49 38.183 174.49 46.422C174.49 54.6611 181.173 61.3402 189.418 61.3402Z" fill="black" stroke="black" stroke-width="1.5" stroke-linecap="round" stroke-linejoin="round"/>
<path d="M181.436 50.2643C182.179 49.9296 182.955 49.6735 183.751 49.5002C183.578 49.4362 183.409 49.3658 183.243 49.2868C181.976 48.7093 180.902 47.78 180.148 46.6096C179.395 45.4391 178.995 44.077 178.995 42.6855C178.995 41.2204 179.438 39.7896 180.265 38.5804C181.093 37.3712 182.267 36.4402 183.633 35.9091C184.474 35.5835 185.367 35.4163 186.269 35.4161C188.196 35.4189 190.043 36.1861 191.405 37.5491C192.766 38.9121 193.531 40.7596 193.53 42.6855C193.53 43.8261 193.261 44.9506 192.744 45.9673C192.226 46.9839 191.476 47.864 190.553 48.5355L190.442 48.5825H190.476C189.95 48.9594 189.375 49.2638 188.768 49.4874C192.657 50.3262 195.79 53.0602 197.061 56.6245C199.696 53.8643 201.164 50.1947 201.159 46.3799C201.159 44.4263 200.774 42.4917 200.026 40.6868C199.278 38.8818 198.182 37.2418 196.8 35.8604C195.417 34.479 193.776 33.3832 191.97 32.6357C190.164 31.8882 188.228 31.5036 186.273 31.5039C182.325 31.5039 178.539 33.0712 175.747 35.861C172.956 38.6508 171.387 42.4345 171.387 46.3799C171.383 50.1748 172.836 53.8269 175.445 56.5839C175.969 55.1831 176.769 53.9017 177.798 52.8161C178.827 51.7305 180.064 50.8626 181.436 50.2643Z" fill="#FBE62E" stroke="black" stroke-width="1.5" stroke-miterlimit="10"/>
<path d="M188.778 49.5001C189.386 49.2764 189.96 48.972 190.487 48.5951H190.453L190.564 48.5482C191.486 47.8766 192.237 46.9966 192.754 45.9799C193.272 44.9632 193.541 43.8387 193.541 42.6981C193.541 40.7721 192.777 38.9248 191.415 37.5617C190.054 36.1987 188.207 35.4315 186.279 35.4287C185.378 35.429 184.484 35.5961 183.644 35.9217C182.278 36.4528 181.104 37.3839 180.276 38.593C179.448 39.8022 179.005 41.233 179.005 42.6981C179.005 44.0896 179.406 45.4517 180.159 46.6222C180.912 47.7926 181.986 48.722 183.253 49.2994C183.42 49.3742 183.588 49.4446 183.761 49.5129C182.965 49.6861 182.189 49.9422 181.446 50.2769C180.076 50.8779 178.84 51.7482 177.813 52.836C176.785 53.9239 175.987 55.2071 175.466 56.6094C176.178 57.361 176.965 58.0376 177.816 58.6284C180.304 60.359 183.263 61.2849 186.294 61.2813C189.326 61.2856 192.285 60.3596 194.773 58.6284C195.608 58.0492 196.382 57.3863 197.082 56.6499C195.809 53.0729 192.676 50.3388 188.778 49.5001Z" fill="white" stroke="black" stroke-width="1.5" stroke-linecap="round" stroke-linejoin="round"/>
<path d="M191.559 56.2088C194.54 56.2088 196.956 53.7941 196.956 50.8155C196.956 47.8368 194.54 45.4221 191.559 45.4221C188.578 45.4221 186.162 47.8368 186.162 50.8155C186.162 53.7941 188.578 56.2088 191.559 56.2088Z" fill="#88EB79" stroke="black" stroke-width="1.5" stroke-linecap="round" stroke-linejoin="round"/>
<path d="M191.531 48.0359V53.5914" stroke="black" stroke-width="1.5" stroke-linecap="round" stroke-linejoin="round"/>
<path d="M194.311 50.8125H188.751" stroke="black" stroke-width="1.5" stroke-linecap="round" stroke-linejoin="round"/>
<path d="M20.4625 138.455C28.9608 138.455 35.8499 131.571 35.8499 123.078C35.8499 114.586 28.9608 107.701 20.4625 107.701C11.9643 107.701 5.0752 114.586 5.0752 123.078C5.0752 131.571 11.9643 138.455 20.4625 138.455Z" fill="black" stroke="black" stroke-width="1.5" stroke-linecap="round" stroke-linejoin="round"/>
<path d="M17.6642 138.455C26.1624 138.455 33.0516 131.571 33.0516 123.078C33.0516 114.586 26.1624 107.701 17.6642 107.701C9.16601 107.701 2.27686 114.586 2.27686 123.078C2.27686 131.571 9.16601 138.455 17.6642 138.455Z" fill="#F5E644" stroke="black" stroke-width="1.5" stroke-linecap="round" stroke-linejoin="round"/>
<path d="M17.6638 134.92C24.2083 134.92 29.5138 129.539 29.5138 122.901C29.5138 116.263 24.2083 110.882 17.6638 110.882C11.1192 110.882 5.81372 116.263 5.81372 122.901C5.81372 129.539 11.1192 134.92 17.6638 134.92Z" fill="#FEAD3B" stroke="black" stroke-width="1.5" stroke-linecap="round" stroke-linejoin="round"/>
<path d="M17.1027 132.42V130.107C14.0662 129.612 12.685 127.361 12.5352 125.591L15.5096 124.92C15.6155 126.174 16.4779 127.299 18.3305 127.299C19.4267 127.299 20.1831 126.778 20.1831 125.935C20.1831 125.308 19.7116 124.898 18.8493 124.703L16.9309 124.249C14.5156 123.666 13.0321 122.196 13.0321 120.143C13.0321 117.72 14.8591 116.055 17.1027 115.667V113.357H19.5801V115.758C20.5023 115.926 21.3529 116.368 22.0214 117.027C22.69 117.686 23.1456 118.532 23.3291 119.454L20.3365 120.253C20.205 119.586 19.8396 118.46 18.1441 118.46C16.9383 118.46 16.3354 119.193 16.3354 119.864C16.3354 120.447 16.7666 120.902 17.607 121.096L19.4814 121.507C22.3681 122.156 23.5009 123.842 23.5009 125.789C23.5009 127.735 22.0795 129.638 19.5801 130.089V132.446L17.1027 132.42Z" fill="#F5E644" stroke="black" stroke-width="1.5" stroke-linecap="round" stroke-linejoin="round"/>
<path d="M84.4335 123.308C92.1706 123.308 98.4428 117.04 98.4428 109.307C98.4428 101.575 92.1706 95.3074 84.4335 95.3074C76.6963 95.3074 70.4241 101.575 70.4241 109.307C70.4241 117.04 76.6963 123.308 84.4335 123.308Z" fill="black" stroke="black" stroke-width="1.5" stroke-linecap="round" stroke-linejoin="round"/>
<path d="M81.5933 122.965C89.2359 122.965 95.4314 116.774 95.4314 109.136C95.4314 101.499 89.2359 95.3074 81.5933 95.3074C73.9507 95.3074 67.7551 101.499 67.7551 109.136C67.7551 116.774 73.9507 122.965 81.5933 122.965Z" fill="white" stroke="black" stroke-width="1.5" stroke-miterlimit="10" stroke-linecap="round" stroke-linejoin="round"/>
<path d="M81.5991 109.113L89.6586 101.123" stroke="black" stroke-width="1.5" stroke-linecap="round" stroke-linejoin="round"/>
<path d="M81.5212 97.7422V99.7277" stroke="black" stroke-width="1.5" stroke-miterlimit="10" stroke-linecap="round" stroke-linejoin="round"/>
<path d="M81.5212 119.584V121.57" stroke="black" stroke-width="1.5" stroke-miterlimit="10" stroke-linecap="round" stroke-linejoin="round"/>
<path d="M93.4436 109.657H91.4568" stroke="black" stroke-width="1.5" stroke-miterlimit="10" stroke-linecap="round" stroke-linejoin="round"/>
<path d="M71.5886 109.657H69.6018" stroke="black" stroke-width="1.5" stroke-miterlimit="10" stroke-linecap="round" stroke-linejoin="round"/>
<path d="M87.8921 99.5857L86.8296 101.264" stroke="black" stroke-width="1.5" stroke-miterlimit="10" stroke-linecap="round" stroke-linejoin="round"/>
<path d="M76.2168 118.049L75.1543 119.728" stroke="black" stroke-width="1.5" stroke-miterlimit="10" stroke-linecap="round" stroke-linejoin="round"/>
<path d="M92.1913 104.34L90.4124 105.227" stroke="black" stroke-width="1.5" stroke-miterlimit="10" stroke-linecap="round" stroke-linejoin="round"/>
<path d="M72.6323 114.087L70.8533 114.973" stroke="black" stroke-width="1.5" stroke-miterlimit="10" stroke-linecap="round" stroke-linejoin="round"/>
<path d="M92.1646 115.027L90.3911 114.132" stroke="black" stroke-width="1.5" stroke-miterlimit="10" stroke-linecap="round" stroke-linejoin="round"/>
<path d="M72.6544 105.182L70.8809 104.287" stroke="black" stroke-width="1.5" stroke-miterlimit="10" stroke-linecap="round" stroke-linejoin="round"/>
<path d="M87.8417 119.76L86.7888 118.077" stroke="black" stroke-width="1.5" stroke-miterlimit="10" stroke-linecap="round" stroke-linejoin="round"/>
<path d="M76.258 101.239L75.2051 99.554" stroke="black" stroke-width="1.5" stroke-miterlimit="10" stroke-linecap="round" stroke-linejoin="round"/>
<path d="M81.5212 109.065V103.582" stroke="black" stroke-width="1.5" stroke-linecap="round" stroke-linejoin="round"/>
<path d="M207.78 100.815C215.517 100.815 221.79 94.5473 221.79 86.8153C221.79 79.0832 215.517 72.8152 207.78 72.8152C200.043 72.8152 193.771 79.0832 193.771 86.8153C193.771 94.5473 200.043 100.815 207.78 100.815Z" fill="black" stroke="black" stroke-width="1.5" stroke-linecap="round" stroke-linejoin="round"/>
<path d="M204.94 100.473C212.583 100.473 218.778 94.2817 218.778 86.6441C218.778 79.0066 212.583 72.8152 204.94 72.8152C197.297 72.8152 191.102 79.0066 191.102 86.6441C191.102 94.2817 197.297 100.473 204.94 100.473Z" fill="white" stroke="black" stroke-width="1.5" stroke-miterlimit="10" stroke-linecap="round" stroke-linejoin="round"/>
<path d="M204.946 86.6208L213.005 78.6309" stroke="black" stroke-width="1.5" stroke-linecap="round" stroke-linejoin="round"/>
<path d="M204.868 75.25V77.2355" stroke="black" stroke-width="1.5" stroke-miterlimit="10" stroke-linecap="round" stroke-linejoin="round"/>
<path d="M204.868 97.0923V99.0778" stroke="black" stroke-width="1.5" stroke-miterlimit="10" stroke-linecap="round" stroke-linejoin="round"/>
<path d="M216.791 87.1646H214.804" stroke="black" stroke-width="1.5" stroke-miterlimit="10" stroke-linecap="round" stroke-linejoin="round"/>
<path d="M194.937 87.1646H192.95" stroke="black" stroke-width="1.5" stroke-miterlimit="10" stroke-linecap="round" stroke-linejoin="round"/>
<path d="M211.239 77.0935L210.176 78.7716" stroke="black" stroke-width="1.5" stroke-miterlimit="10" stroke-linecap="round" stroke-linejoin="round"/>
<path d="M199.563 95.5571L198.501 97.2366" stroke="black" stroke-width="1.5" stroke-miterlimit="10" stroke-linecap="round" stroke-linejoin="round"/>
<path d="M215.538 81.8479L213.759 82.7347" stroke="black" stroke-width="1.5" stroke-miterlimit="10" stroke-linecap="round" stroke-linejoin="round"/>
<path d="M195.979 91.595L194.2 92.4805" stroke="black" stroke-width="1.5" stroke-miterlimit="10" stroke-linecap="round" stroke-linejoin="round"/>
<path d="M215.511 92.5352L213.738 91.6401" stroke="black" stroke-width="1.5" stroke-miterlimit="10" stroke-linecap="round" stroke-linejoin="round"/>
<path d="M196.001 82.6895L194.228 81.7944" stroke="black" stroke-width="1.5" stroke-miterlimit="10" stroke-linecap="round" stroke-linejoin="round"/>
<path d="M211.188 97.2675L210.135 95.584" stroke="black" stroke-width="1.5" stroke-miterlimit="10" stroke-linecap="round" stroke-linejoin="round"/>
<path d="M199.605 78.7464L198.552 77.0615" stroke="black" stroke-width="1.5" stroke-miterlimit="10" stroke-linecap="round" stroke-linejoin="round"/>
<path d="M204.868 86.5731V81.0894" stroke="black" stroke-width="1.5" stroke-linecap="round" stroke-linejoin="round"/>
<path d="M20.5167 37.283V54.8002L7.76099 66.8134C9.75316 68.9258 12.2394 70.5104 14.9962 71.4246C17.753 72.3389 20.6939 72.5543 23.5546 72.0513C26.4153 71.5484 29.1061 70.3429 31.3851 68.5432C33.6641 66.7436 35.4598 64.4062 36.611 61.7411C37.7621 59.0761 38.2324 56.167 37.9798 53.2753C37.7271 50.3836 36.7594 47.6 35.1635 45.1746C33.5676 42.7493 31.3937 40.7583 28.8371 39.3806C26.2804 38.0028 23.4213 37.2816 20.5167 37.2817V37.283Z" fill="#FB5D96" stroke="black" stroke-width="1.5"/>
<mask id="mask0_341_35572" style="mask-type:alpha" maskUnits="userSpaceOnUse" x="6" y="36" width="33" height="38">
<path d="M20.5181 37.2842V54.8014L7.76245 66.8146C9.75462 68.927 12.2409 70.5116 14.9976 71.4259C17.7544 72.3401 20.6954 72.5555 23.5561 72.0525C26.4167 71.5496 29.1075 70.3441 31.3865 68.5444C33.6655 66.7448 35.4613 64.4074 36.6124 61.7424C37.7635 59.0773 38.2339 56.1682 37.9813 53.2765C37.7286 50.3848 36.7608 47.6012 35.165 45.1758C33.5691 42.7505 31.3951 40.7595 28.8385 39.3818C26.2819 38.0041 23.4228 37.2829 20.5181 37.283V37.2842Z" fill="#FB5D96" stroke="black" stroke-width="1.5"/>
</mask>
<g mask="url(#mask0_341_35572)">
<path d="M7.58739 42.1675C7.78323 42.1675 7.93991 42.0109 7.93991 41.8152C7.93991 41.6195 7.78323 41.4629 7.58739 41.4629C7.39154 41.4629 7.23486 41.6195 7.23486 41.8152C7.23486 42.0109 7.39154 42.1675 7.58739 42.1675Z" fill="#1D1D1B" stroke="black" stroke-width="0.412266" stroke-miterlimit="10"/>
<path d="M11.1218 45.7102C11.3177 45.7102 11.4743 45.5536 11.4743 45.3579C11.4743 45.1622 11.3177 45.0056 11.1218 45.0056C10.926 45.0056 10.7693 45.1622 10.7693 45.3579C10.7693 45.5438 10.926 45.7102 11.1218 45.7102Z" fill="#1D1D1B" stroke="black" stroke-width="0.412266" stroke-miterlimit="10"/>
<path d="M7.58739 69.7439C7.39154 69.7439 7.23486 69.9005 7.23486 70.0962C7.23486 70.2919 7.39154 70.4485 7.58739 70.4485C7.78323 70.4485 7.93991 70.2919 7.93991 70.0962C7.93991 69.9005 7.78323 69.7439 7.58739 69.7439Z" fill="#1D1D1B" stroke="black" stroke-width="0.412266" stroke-miterlimit="10"/>
<path d="M11.1218 52.0713C10.926 52.0713 10.7693 52.2279 10.7693 52.4236C10.7693 52.6193 10.926 52.7759 11.1218 52.7759C11.3177 52.7759 11.4743 52.6193 11.4743 52.4236C11.4841 52.2279 11.3177 52.0713 11.1218 52.0713Z" fill="#1D1D1B" stroke="black" stroke-width="0.412266" stroke-miterlimit="10"/>
<path d="M11.1218 59.1367C10.926 59.1367 10.7693 59.2933 10.7693 59.489C10.7693 59.6847 10.926 59.8413 11.1218 59.8413C11.3177 59.8413 11.4743 59.6847 11.4743 59.489C11.4841 59.3031 11.3177 59.1367 11.1218 59.1367Z" fill="#1D1D1B" stroke="black" stroke-width="0.412266" stroke-miterlimit="10"/>
<path d="M11.1218 38.635C11.3177 38.635 11.4743 38.4784 11.4743 38.2827C11.4743 38.087 11.3177 37.9304 11.1218 37.9304C10.926 37.9304 10.7693 38.087 10.7693 38.2827C10.7693 38.4784 10.926 38.635 11.1218 38.635Z" fill="#1D1D1B" stroke="black" stroke-width="0.412266" stroke-miterlimit="10"/>
<path d="M7.58739 62.6787C7.39154 62.6787 7.23486 62.8353 7.23486 63.031C7.23486 63.2267 7.39154 63.3833 7.58739 63.3833C7.78323 63.3833 7.93991 63.2267 7.93991 63.031C7.93991 62.8353 7.78323 62.6787 7.58739 62.6787Z" fill="#1D1D1B" stroke="black" stroke-width="0.412266" stroke-miterlimit="10"/>
<path d="M7.58739 55.6033C7.39154 55.6033 7.23486 55.7598 7.23486 55.9556C7.23486 56.1513 7.39154 56.3078 7.58739 56.3078C7.78323 56.3078 7.93991 56.1513 7.93991 55.9556C7.93991 55.7598 7.78323 55.6033 7.58739 55.6033Z" fill="#1D1D1B" stroke="black" stroke-width="0.412266" stroke-miterlimit="10"/>
<path d="M7.58739 48.5383C7.39154 48.5383 7.23486 48.6949 7.23486 48.8906C7.23486 49.0863 7.39154 49.2429 7.58739 49.2429C7.78323 49.2429 7.93991 49.0863 7.93991 48.8906C7.93991 48.6949 7.78323 48.5383 7.58739 48.5383Z" fill="#1D1D1B" stroke="black" stroke-width="0.412266" stroke-miterlimit="10"/>
<path d="M32.3525 44.9951C32.1567 44.9951 32 45.1517 32 45.3474C32 45.5431 32.1567 45.6997 32.3525 45.6997C32.5484 45.6997 32.7051 45.5431 32.7051 45.3474C32.7051 45.1517 32.5484 44.9951 32.3525 44.9951Z" fill="#1D1D1B" stroke="black" stroke-width="0.412266" stroke-miterlimit="10"/>
<path d="M35.8865 62.6787C35.6906 62.6787 35.5339 62.8353 35.5339 63.031C35.5339 63.2267 35.6906 63.3833 35.8865 63.3833C36.0823 63.3833 36.239 63.2267 36.239 63.031C36.2488 62.8353 36.0823 62.6787 35.8865 62.6787Z" fill="#1D1D1B" stroke="black" stroke-width="0.412266" stroke-miterlimit="10"/>
<path d="M32.3525 52.0713C32.1567 52.0713 32 52.2279 32 52.4236C32 52.6193 32.1567 52.7759 32.3525 52.7759C32.5484 52.7759 32.7051 52.6193 32.7051 52.4236C32.7051 52.2279 32.5484 52.0713 32.3525 52.0713Z" fill="#1D1D1B" stroke="black" stroke-width="0.412266" stroke-miterlimit="10"/>
<path d="M14.6667 49.2429C14.8626 49.2429 15.0193 49.0863 15.0193 48.8906C15.0193 48.6949 14.8626 48.5383 14.6667 48.5383C14.4709 48.5383 14.3142 48.6949 14.3142 48.8906C14.3142 49.0863 14.4709 49.2429 14.6667 49.2429Z" fill="#1D1D1B" stroke="black" stroke-width="0.412266" stroke-miterlimit="10"/>
<path d="M35.8865 55.6033C35.6906 55.6033 35.5339 55.7598 35.5339 55.9556C35.5339 56.1513 35.6906 56.3078 35.8865 56.3078C36.0823 56.3078 36.239 56.1513 36.239 55.9556C36.2488 55.7598 36.0823 55.6033 35.8865 55.6033Z" fill="#1D1D1B" stroke="black" stroke-width="0.412266" stroke-miterlimit="10"/>
<path d="M35.8865 42.1675C36.0823 42.1675 36.239 42.0109 36.239 41.8152C36.239 41.6195 36.0823 41.4629 35.8865 41.4629C35.6906 41.4629 35.5339 41.6195 35.5339 41.8152C35.5339 42.0109 35.6906 42.1675 35.8865 42.1675Z" fill="#1D1D1B" stroke="black" stroke-width="0.412266" stroke-miterlimit="10"/>
<path d="M18.2024 45.7102C18.3982 45.7102 18.5549 45.5536 18.5549 45.3579C18.5549 45.1622 18.3982 45.0056 18.2024 45.0056C18.0065 45.0056 17.8499 45.1622 17.8499 45.3579C17.8499 45.5438 18.0065 45.7102 18.2024 45.7102Z" fill="#1D1D1B" stroke="black" stroke-width="0.412266" stroke-miterlimit="10"/>
<path d="M18.2024 38.635C18.3971 38.635 18.5549 38.4773 18.5549 38.2827C18.5549 38.0881 18.3971 37.9304 18.2024 37.9304C18.0077 37.9304 17.8499 38.0881 17.8499 38.2827C17.8499 38.4773 18.0077 38.635 18.2024 38.635Z" fill="#1D1D1B" stroke="black" stroke-width="0.412266" stroke-miterlimit="10"/>
<path d="M28.8157 42.1675C29.0115 42.1675 29.1682 42.0109 29.1682 41.8152C29.1682 41.6195 29.0115 41.4629 28.8157 41.4629C28.6198 41.4629 28.4631 41.6195 28.4631 41.8152C28.4631 42.0109 28.6198 42.1675 28.8157 42.1675Z" fill="#1D1D1B" stroke="black" stroke-width="0.412266" stroke-miterlimit="10"/>
<path d="M14.6667 42.1675C14.8626 42.1675 15.0193 42.0109 15.0193 41.8152C15.0193 41.6195 14.8626 41.4629 14.6667 41.4629C14.4709 41.4629 14.3142 41.6195 14.3142 41.8152C14.3142 42.0109 14.4709 42.1675 14.6667 42.1675Z" fill="#1D1D1B" stroke="black" stroke-width="0.412266" stroke-miterlimit="10"/>
<path d="M25.2824 45.7102C25.4782 45.7102 25.6349 45.5536 25.6349 45.3579C25.6349 45.1622 25.4782 45.0056 25.2824 45.0056C25.0865 45.0056 24.9299 45.1622 24.9299 45.3579C24.9201 45.5438 25.0865 45.7102 25.2824 45.7102Z" fill="#1D1D1B" stroke="black" stroke-width="0.412266" stroke-miterlimit="10"/>
<path d="M25.2824 38.635C25.4782 38.635 25.6349 38.4784 25.6349 38.2827C25.6349 38.087 25.4782 37.9304 25.2824 37.9304C25.0865 37.9304 24.9299 38.087 24.9299 38.2827C24.9201 38.4784 25.0865 38.635 25.2824 38.635Z" fill="#1D1D1B" stroke="black" stroke-width="0.412266" stroke-miterlimit="10"/>
<path d="M28.8157 63.3833C29.0103 63.3833 29.1682 63.2256 29.1682 63.031C29.1682 62.8364 29.0103 62.6787 28.8157 62.6787C28.621 62.6787 28.4631 62.8364 28.4631 63.031C28.4631 63.2256 28.621 63.3833 28.8157 63.3833Z" fill="#1D1D1B" stroke="black" stroke-width="0.412266" stroke-miterlimit="10"/>
<path d="M28.8157 69.7439C28.6198 69.7439 28.4631 69.9005 28.4631 70.0962C28.4631 70.2919 28.6198 70.4485 28.8157 70.4485C29.0115 70.4485 29.1682 70.2919 29.1682 70.0962C29.1682 69.9005 29.0115 69.7439 28.8157 69.7439Z" fill="#1D1D1B" stroke="black" stroke-width="0.412266" stroke-miterlimit="10"/>
<path d="M32.3525 38.635C32.5472 38.635 32.7051 38.4773 32.7051 38.2827C32.7051 38.0881 32.5472 37.9304 32.3525 37.9304C32.1578 37.9304 32 38.0881 32 38.2827C32 38.4773 32.1578 38.635 32.3525 38.635Z" fill="#1D1D1B" stroke="black" stroke-width="0.412266" stroke-miterlimit="10"/>
<path d="M11.1218 66.2112C10.926 66.2112 10.7693 66.3678 10.7693 66.5635C10.7693 66.7592 10.926 66.9158 11.1218 66.9158C11.3177 66.9158 11.4743 66.7592 11.4743 66.5635C11.4841 66.3678 11.3177 66.2112 11.1218 66.2112Z" fill="#1D1D1B" stroke="black" stroke-width="0.412266" stroke-miterlimit="10"/>
<path d="M28.8157 55.6033C28.6198 55.6033 28.4631 55.7598 28.4631 55.9556C28.4631 56.1513 28.6198 56.3078 28.8157 56.3078C29.0115 56.3078 29.1682 56.1513 29.1682 55.9556C29.1682 55.7598 29.0115 55.6033 28.8157 55.6033Z" fill="#1D1D1B" stroke="black" stroke-width="0.412266" stroke-miterlimit="10"/>
<path d="M35.8865 49.2429C36.0823 49.2429 36.239 49.0863 36.239 48.8906C36.239 48.6949 36.0823 48.5383 35.8865 48.5383C35.6906 48.5383 35.5339 48.6949 35.5339 48.8906C35.5339 49.0863 35.6906 49.2429 35.8865 49.2429Z" fill="#1D1D1B" stroke="black" stroke-width="0.412266" stroke-miterlimit="10"/>
<path d="M32.3525 66.2112C32.1567 66.2112 32 66.3678 32 66.5635C32 66.7592 32.1567 66.9158 32.3525 66.9158C32.5484 66.9158 32.7051 66.7592 32.7051 66.5635C32.7051 66.3678 32.5484 66.2112 32.3525 66.2112Z" fill="#1D1D1B" stroke="black" stroke-width="0.412266" stroke-miterlimit="10"/>
<path d="M35.8865 69.7439C35.6906 69.7439 35.5339 69.9005 35.5339 70.0962C35.5339 70.2919 35.6906 70.4485 35.8865 70.4485C36.0823 70.4485 36.239 70.2919 36.239 70.0962C36.2488 69.9005 36.0823 69.7439 35.8865 69.7439Z" fill="#1D1D1B" stroke="black" stroke-width="0.412266" stroke-miterlimit="10"/>
<path d="M32.3525 59.1367C32.1567 59.1367 32 59.2933 32 59.489C32 59.6847 32.1567 59.8413 32.3525 59.8413C32.5484 59.8413 32.7051 59.6847 32.7051 59.489C32.7051 59.3031 32.5484 59.1367 32.3525 59.1367Z" fill="#1D1D1B" stroke="black" stroke-width="0.412266" stroke-miterlimit="10"/>
<path d="M25.282 66.2112C25.0861 66.2112 24.9294 66.3678 24.9294 66.5635C24.9294 66.7592 25.0861 66.9158 25.282 66.9158C25.4778 66.9158 25.6345 66.7592 25.6345 66.5635C25.6345 66.3678 25.4778 66.2112 25.282 66.2112Z" fill="#1D1D1B" stroke="black" stroke-width="0.412266" stroke-miterlimit="10"/>
<path d="M28.8157 49.2429C29.0115 49.2429 29.1682 49.0863 29.1682 48.8906C29.1682 48.6949 29.0115 48.5383 28.8157 48.5383C28.6198 48.5383 28.4631 48.6949 28.4631 48.8906C28.4631 49.0863 28.6198 49.2429 28.8157 49.2429Z" fill="#1D1D1B" stroke="black" stroke-width="0.412266" stroke-miterlimit="10"/>
<path d="M18.2024 59.1367C18.0065 59.1367 17.8499 59.2933 17.8499 59.489C17.8499 59.6847 18.0065 59.8413 18.2024 59.8413C18.3982 59.8413 18.5549 59.6847 18.5549 59.489C18.5549 59.3031 18.3982 59.1367 18.2024 59.1367Z" fill="#1D1D1B" stroke="black" stroke-width="0.412266" stroke-miterlimit="10"/>
<path d="M18.2024 52.7759C18.3982 52.7759 18.5549 52.6193 18.5549 52.4236C18.5549 52.2279 18.3982 52.0713 18.2024 52.0713C18.0065 52.0713 17.8499 52.2279 17.8499 52.4236C17.8499 52.6193 18.0065 52.7759 18.2024 52.7759Z" fill="#1D1D1B" stroke="black" stroke-width="0.412266" stroke-miterlimit="10"/>
<path d="M18.2024 66.2112C18.0065 66.2112 17.8499 66.3678 17.8499 66.5635C17.8499 66.7592 18.0065 66.9158 18.2024 66.9158C18.3982 66.9158 18.5549 66.7592 18.5549 66.5635C18.5549 66.3678 18.3982 66.2112 18.2024 66.2112Z" fill="#1D1D1B" stroke="black" stroke-width="0.412266" stroke-miterlimit="10"/>
<path d="M14.6667 62.6787C14.4709 62.6787 14.3142 62.8353 14.3142 63.031C14.3142 63.2267 14.4709 63.3833 14.6667 63.3833C14.8626 63.3833 15.0193 63.2267 15.0193 63.031C15.0193 62.8353 14.8626 62.6787 14.6667 62.6787Z" fill="#1D1D1B" stroke="black" stroke-width="0.412266" stroke-miterlimit="10"/>
<path d="M25.282 59.1367C25.0861 59.1367 24.9294 59.2933 24.9294 59.489C24.9294 59.6847 25.0861 59.8413 25.282 59.8413C25.4778 59.8413 25.6345 59.6847 25.6345 59.489C25.6345 59.3031 25.4778 59.1367 25.282 59.1367Z" fill="#1D1D1B" stroke="black" stroke-width="0.412266" stroke-miterlimit="10"/>
<path d="M14.6667 69.7439C14.4709 69.7439 14.3142 69.9005 14.3142 70.0962C14.3142 70.2919 14.4709 70.4485 14.6667 70.4485C14.8626 70.4485 15.0193 70.2919 15.0193 70.0962C15.0193 69.9005 14.8626 69.7439 14.6667 69.7439Z" fill="#1D1D1B" stroke="black" stroke-width="0.412266" stroke-miterlimit="10"/>
<path d="M14.6667 55.6033C14.4709 55.6033 14.3142 55.7598 14.3142 55.9556C14.3142 56.1513 14.4709 56.3078 14.6667 56.3078C14.8626 56.3078 15.0193 56.1513 15.0193 55.9556C15.0193 55.7598 14.8626 55.6033 14.6667 55.6033Z" fill="#1D1D1B" stroke="black" stroke-width="0.412266" stroke-miterlimit="10"/>
<path d="M21.7368 69.7439C21.541 69.7439 21.3843 69.9005 21.3843 70.0962C21.3843 70.2919 21.541 70.4485 21.7368 70.4485C21.9326 70.4485 22.0893 70.2919 22.0893 70.0962C22.0893 69.9005 21.9326 69.7439 21.7368 69.7439Z" fill="#1D1D1B" stroke="black" stroke-width="0.412266" stroke-miterlimit="10"/>
<path d="M21.7368 62.6787C21.541 62.6787 21.3843 62.8353 21.3843 63.031C21.3843 63.2267 21.541 63.3833 21.7368 63.3833C21.9326 63.3833 22.0893 63.2267 22.0893 63.031C22.0893 62.8353 21.9326 62.6787 21.7368 62.6787Z" fill="#1D1D1B" stroke="black" stroke-width="0.412266" stroke-miterlimit="10"/>
<path d="M25.2824 52.7759C25.4782 52.7759 25.6349 52.6193 25.6349 52.4236C25.6349 52.2279 25.4782 52.0713 25.2824 52.0713C25.0865 52.0713 24.9299 52.2279 24.9299 52.4236C24.9201 52.6193 25.0865 52.7759 25.2824 52.7759Z" fill="#1D1D1B" stroke="black" stroke-width="0.412266" stroke-miterlimit="10"/>
<path d="M21.7368 56.3078C21.9315 56.3078 22.0893 56.1501 22.0893 55.9556C22.0893 55.761 21.9315 55.6033 21.7368 55.6033C21.5421 55.6033 21.3843 55.761 21.3843 55.9556C21.3843 56.1501 21.5421 56.3078 21.7368 56.3078Z" fill="#1D1D1B" stroke="black" stroke-width="0.412266" stroke-miterlimit="10"/>
<path d="M21.7368 48.5383C21.541 48.5383 21.3843 48.6949 21.3843 48.8906C21.3843 49.0863 21.541 49.2429 21.7368 49.2429C21.9326 49.2429 22.0893 49.0863 22.0893 48.8906C22.0893 48.6949 21.9326 48.5383 21.7368 48.5383Z" fill="#1D1D1B" stroke="black" stroke-width="0.412266" stroke-miterlimit="10"/>
<path d="M21.7368 42.1675C21.9326 42.1675 22.0893 42.0109 22.0893 41.8152C22.0893 41.6195 21.9326 41.4629 21.7368 41.4629C21.541 41.4629 21.3843 41.6195 21.3843 41.8152C21.3843 42.0109 21.541 42.1675 21.7368 42.1675Z" fill="#1D1D1B" stroke="black" stroke-width="0.412266" stroke-miterlimit="10"/>
</g>
</svg>