<svg width="140" height="140" viewBox="0 0 140 140" fill="none" xmlns="http://www.w3.org/2000/svg">
<g filter="url(#filter0_d_2465_23583)">
<path d="M99.9359 34.109V113.75H34.209V31.1198H96.7687L99.9359 34.109Z" fill="#DE0364" stroke="#01090F" stroke-width="0.5" stroke-linecap="round" stroke-linejoin="round"/>
<path d="M113.994 90.3692V103.411H45.9717V20.7813H91.8951L93.1584 21.9556L100.774 29.1261L103.923 32.0975L111.076 38.8233V38.841L113.994 41.5634V71.7757" fill="#FB5D96"/>
<path d="M113.994 90.3692V103.411H45.9717V20.7813H91.8951L93.1584 21.9556L100.774 29.1261L103.923 32.0975L111.076 38.8233V38.841L113.994 41.5634V71.7757" stroke="#01090F" stroke-width="0.5" stroke-linecap="round" stroke-linejoin="round"/>
<rect x="53.1035" y="30.3286" width="13.7187" height="13.7188" rx="0.25" fill="#FFC664" stroke="#01090F" stroke-width="0.5"/>
<path d="M113.991 77.6087V82.7153" stroke="#01090F" stroke-width="0.5" stroke-linecap="round" stroke-linejoin="round"/>
<path d="M113.991 41.5634H91.8926V20.7813L93.1559 21.9556L100.771 29.1261L103.921 32.0976L111.073 38.8233V38.8411L113.991 41.5634Z" fill="#FFC664" stroke="#01090F" stroke-width="0.5" stroke-linecap="round" stroke-linejoin="round"/>
<path d="M113.991 41.5634L111.073 38.8411V38.8233L103.921 32.0976L100.771 29.1261L93.1559 21.9556L91.8926 20.7813" stroke="#01090F" stroke-width="0.5" stroke-linecap="round" stroke-linejoin="round"/>
<path d="M92.1961 50.6383H54.6176C53.4384 50.6383 52.4824 51.5903 52.4824 52.7646C52.4824 53.9389 53.4384 54.8908 54.6176 54.8908H92.1961C93.3753 54.8908 94.3313 53.9389 94.3313 52.7646C94.3313 51.5903 93.3753 50.6383 92.1961 50.6383Z" fill="#FFC664" stroke="#01090F" stroke-width="0.5"/>
<path d="M102.694 58.3774H54.6176C53.4384 58.3774 52.4824 59.3294 52.4824 60.5037C52.4824 61.6779 53.4384 62.6299 54.6176 62.6299H102.694C103.873 62.6299 104.829 61.6779 104.829 60.5037C104.829 59.3294 103.873 58.3774 102.694 58.3774Z" fill="#FFC664" stroke="#01090F" stroke-width="0.5"/>
<path d="M102.694 66.2798H54.6176C53.4384 66.2798 52.4824 67.2318 52.4824 68.4061C52.4824 69.5804 53.4384 70.5323 54.6176 70.5323H102.694C103.873 70.5323 104.829 69.5804 104.829 68.4061C104.829 67.2318 103.873 66.2798 102.694 66.2798Z" fill="#FFC664" stroke="#01090F" stroke-width="0.5"/>
<path d="M102.694 74.3705H54.6176C53.4384 74.3705 52.4824 75.3224 52.4824 76.4967C52.4824 77.671 53.4384 78.623 54.6176 78.623H102.694C103.873 78.623 104.829 77.671 104.829 76.4967C104.829 75.3224 103.873 74.3705 102.694 74.3705Z" fill="#FFC664" stroke="#01090F" stroke-width="0.5"/>
<path d="M77.1611 85.3131H54.6176C53.4384 85.3131 52.4824 86.2651 52.4824 87.4394C52.4824 88.6137 53.4384 89.5656 54.6176 89.5656H77.1611C78.3404 89.5656 79.2963 88.6137 79.2963 87.4394C79.2963 86.2651 78.3404 85.3131 77.1611 85.3131Z" fill="#FFC664" stroke="#01090F" stroke-width="0.5"/>
</g>
<path d="M95.6182 121.729C103.005 121.729 108.993 115.741 108.993 108.354C108.993 100.968 103.005 94.9794 95.6182 94.9794C88.2314 94.9794 82.2432 100.968 82.2432 108.354C82.2432 115.741 88.2314 121.729 95.6182 121.729Z" fill="#DE0364" stroke="#01090F" stroke-width="0.5"/>
<path d="M98.901 115.061L95.3848 113.153L91.7431 114.934C91.2408 115.188 90.4874 114.679 90.613 114.17L91.3664 110.228L88.6038 107.303C88.227 106.794 88.4782 106.031 89.1061 106.031L93.1245 105.522L95.0081 101.961C95.2593 101.452 96.1383 101.452 96.3894 101.961L98.1475 105.649L102.166 106.285C102.794 106.412 103.045 107.176 102.543 107.557L99.6544 110.355L100.282 114.425C100.031 114.806 99.4033 115.315 98.901 115.061Z" fill="#FFC664"/>
<defs>
<filter id="filter0_d_2465_23583" x="32.959" y="19.5313" width="84.2852" height="97.4687" filterUnits="userSpaceOnUse" color-interpolation-filters="sRGB">
<feFlood flood-opacity="0" result="BackgroundImageFix"/>
<feColorMatrix in="SourceAlpha" type="matrix" values="0 0 0 0 0 0 0 0 0 0 0 0 0 0 0 0 0 0 127 0" result="hardAlpha"/>
<feOffset dx="1" dy="1"/>
<feGaussianBlur stdDeviation="1"/>
<feComposite in2="hardAlpha" operator="out"/>
<feColorMatrix type="matrix" values="0 0 0 0 0 0 0 0 0 0 0 0 0 0 0 0 0 0 0.15 0"/>
<feBlend mode="normal" in2="BackgroundImageFix" result="effect1_dropShadow_2465_23583"/>
<feBlend mode="normal" in="SourceGraphic" in2="effect1_dropShadow_2465_23583" result="shape"/>
</filter>
</defs>
</svg>
