<svg width="152" height="152" viewBox="0 0 152 152" fill="none" xmlns="http://www.w3.org/2000/svg">
<g filter="url(#filter0_d_2465_23680)">
<path d="M82.7292 111.007H22.4463C24.4457 106.014 27.6314 101.574 31.732 98.0663C35.8327 94.5583 40.7269 92.0856 45.9979 90.8588C41.8392 89.2863 38.2706 86.4789 35.779 82.8196C33.2874 79.1603 31.9942 74.8272 32.0758 70.4116C32.0758 58.5532 41.1252 48.9283 52.2629 48.9283H53.4231H53.5391C56.3924 49.0866 59.1745 49.8732 61.6835 51.2309C65.0198 53.169 67.7783 55.9506 69.6779 59.2918C71.5774 62.6331 72.55 66.4145 72.4964 70.2504C72.5764 74.6297 71.2997 78.9278 68.8389 82.564C66.3782 86.2001 62.8519 88.999 58.7367 90.5825C62.042 91.2515 65.2159 92.4492 68.1341 94.1285C69.1694 94.7056 70.169 95.3438 71.1274 96.0397C75.2486 99.0328 78.642 102.904 81.0585 107.368C81.7008 108.541 82.259 109.756 82.7292 111.007Z" fill="#008D98" stroke="#01090F" stroke-width="0.5" stroke-linecap="round" stroke-linejoin="round"/>
<path d="M64.9954 96.5129L64.9938 96.5116C61.3102 93.6453 57.0385 91.6213 52.4838 90.5796C56.324 88.9384 59.6132 86.232 61.951 82.7775C64.4402 79.0993 65.7306 74.7507 65.6472 70.3204C65.703 66.4436 64.7227 62.6215 62.8061 59.243C60.8889 55.8634 58.1033 53.0487 54.7334 51.0854L54.7334 51.0854L54.73 51.0835C53.5327 50.4104 52.2677 49.8655 50.9563 49.4577C51.7714 49.2881 52.5986 49.1798 53.431 49.1337H53.5332C56.3461 49.2909 59.0886 50.0665 61.5623 51.4044C64.859 53.3203 67.5846 56.0693 69.4616 59.3708C71.3392 62.6735 72.3004 66.411 72.2475 70.2024L72.2474 70.2024L72.2475 70.2104C72.3265 74.5381 71.0649 78.7857 68.633 82.3793C66.201 85.973 62.7157 88.7394 58.648 90.3046L57.8472 90.6127L58.6881 90.783C61.9672 91.4467 65.1156 92.6347 68.0105 94.3007L68.0135 94.3023C69.0401 94.8746 70.0312 95.5075 70.9816 96.1974C75.0726 99.1687 78.441 103.011 80.8397 107.443L80.8398 107.443C81.4212 108.514 81.9319 109.622 82.3688 110.758H75.9357C75.4533 109.612 74.9051 108.494 74.2936 107.409C72.5373 104.224 70.2907 101.329 67.6351 98.8309C66.7957 98.0139 65.9147 97.2402 64.9954 96.5129Z" fill="#FFC664" stroke="#01090F" stroke-width="0.5"/>
<path d="M129.554 111.031H69.2246C71.2279 106.037 74.4176 101.596 78.5223 98.0885C82.6269 94.5805 87.525 92.1087 92.7994 90.8834C88.6407 89.3109 85.0721 86.5035 82.5805 82.8442C80.089 79.1849 78.7957 74.8518 78.8773 70.4362C78.8773 58.5778 87.9267 48.9529 99.0876 48.9529H100.248C103.103 49.0972 105.889 49.8846 108.392 51.2555C111.783 53.2077 114.583 56.0291 116.497 59.424C118.412 62.8188 119.371 66.6622 119.275 70.5514C119.355 74.9307 118.078 79.2288 115.617 82.8649C113.156 86.5011 109.63 89.3 105.515 90.8834C108.827 91.5563 112.007 92.7536 114.936 94.4294C115.967 95.0014 116.959 95.6398 117.906 96.3406C121.995 99.3076 125.371 103.137 127.79 107.554C128.448 108.677 129.037 109.838 129.554 111.031Z" fill="#008D98" stroke="#01090F" stroke-width="0.5" stroke-linecap="round" stroke-linejoin="round"/>
<path d="M111.819 96.5336L111.818 96.5334C108.141 93.6708 103.877 91.6473 99.3303 90.6021C103.14 88.9755 106.409 86.3015 108.747 82.8879C111.238 79.2513 112.553 74.9479 112.518 70.5507C112.572 66.6711 111.588 62.8469 109.667 59.4678C107.745 56.088 104.955 53.2745 101.581 51.3143L101.581 51.3143L101.578 51.3125C100.382 50.6402 99.1184 50.0959 97.8087 49.6882C98.6281 49.5194 99.4593 49.4107 100.296 49.3631C103.108 49.5072 105.851 50.2834 108.317 51.6332C111.635 53.5557 114.377 56.3215 116.259 59.6453C118.142 62.9699 119.097 66.7326 119.026 70.5453L119.025 70.5453L119.026 70.5546C119.105 74.8822 117.843 79.1299 115.411 82.7234C112.979 86.3171 109.494 89.0835 105.426 90.6487L104.626 90.9564L105.466 91.127C108.751 91.7947 111.907 92.9825 114.812 94.6451L114.815 94.6467C115.837 95.2134 116.82 95.8459 117.758 96.5402L117.76 96.5416C121.819 99.4869 125.171 103.289 127.572 107.673L127.572 107.673L127.576 107.679C128.164 108.683 128.697 109.718 129.171 110.78H122.759C122.263 109.627 121.691 108.508 121.047 107.429C119.32 104.244 117.097 101.35 114.46 98.8535C113.626 98.0301 112.744 97.2555 111.819 96.5336Z" fill="#FFC664" stroke="#01090F" stroke-width="0.5"/>
<path d="M112.964 111.008H40.4297C42.817 104.976 46.6447 99.6093 51.5838 95.3698C56.5229 91.1303 62.4256 88.1444 68.7844 86.669C63.7625 84.7918 59.4493 81.4178 56.4372 77.0105C53.4251 72.6031 51.8618 67.3785 51.9619 62.0541C51.9619 47.8009 62.8675 36.2188 76.2792 36.2188H77.6714H77.8106C81.2567 36.4392 84.6062 37.4395 87.6025 39.1431C91.6174 41.47 94.9379 44.8127 97.2249 48.8299C99.5119 52.847 100.683 57.3946 100.62 62.008C100.756 67.3117 99.2368 72.5275 96.2712 76.9419C93.3056 81.3562 89.0381 84.7535 84.0524 86.669C88.0084 87.473 91.8082 88.9035 95.3061 90.9058C96.5564 91.5911 97.7581 92.3604 98.9027 93.2084C105.07 97.8027 109.879 103.958 112.825 111.031L112.964 111.008Z" fill="#4AC7D3" stroke="#01090F" stroke-width="0.5" stroke-linecap="round" stroke-linejoin="round"/>
<path d="M98.7525 93.4094C104.776 97.8968 109.496 103.882 112.437 110.758H104.752C104.164 109.377 103.5 108.028 102.763 106.719C100.686 102.893 98.0158 99.415 94.8503 96.412C93.839 95.4459 92.7706 94.5404 91.6508 93.7004C87.1754 90.2464 81.9876 87.821 76.4617 86.5943C81.1376 84.6295 85.1427 81.354 87.981 77.1607C90.9726 72.741 92.523 67.5154 92.4223 62.1918C92.4882 57.5375 91.3089 52.9491 89.0049 48.8947C86.7001 44.8392 83.3525 41.4633 79.3038 39.1113L79.3039 39.1113L79.3011 39.1098C77.7844 38.2541 76.1799 37.5641 74.5157 37.0511C75.5575 36.8348 76.6142 36.6941 77.6775 36.6301H77.8012C81.2064 36.8491 84.516 37.8381 87.4767 39.5213C91.453 41.826 94.7414 45.1367 97.0063 49.1149C99.2713 53.0934 100.431 57.5971 100.368 62.1659L100.368 62.1659L100.368 62.1742C100.47 67.399 98.95 72.5286 96.0155 76.8682C93.0809 81.2079 88.8729 84.548 83.9613 86.4358L83.1611 86.7434L84.0012 86.9141C87.9311 87.7128 91.7058 89.134 95.1806 91.1229L95.1805 91.123L95.1846 91.1252C96.4249 91.8051 97.617 92.5683 98.7525 93.4094Z" fill="#FFC664" stroke="#01090F" stroke-width="0.5"/>
</g>
<defs>
<filter id="filter0_d_2465_23680" x="21.1963" y="34.9688" width="111.587" height="79.3125" filterUnits="userSpaceOnUse" color-interpolation-filters="sRGB">
<feFlood flood-opacity="0" result="BackgroundImageFix"/>
<feColorMatrix in="SourceAlpha" type="matrix" values="0 0 0 0 0 0 0 0 0 0 0 0 0 0 0 0 0 0 127 0" result="hardAlpha"/>
<feOffset dx="1" dy="1"/>
<feGaussianBlur stdDeviation="1"/>
<feComposite in2="hardAlpha" operator="out"/>
<feColorMatrix type="matrix" values="0 0 0 0 0 0 0 0 0 0 0 0 0 0 0 0 0 0 0.15 0"/>
<feBlend mode="normal" in2="BackgroundImageFix" result="effect1_dropShadow_2465_23680"/>
<feBlend mode="normal" in="SourceGraphic" in2="effect1_dropShadow_2465_23680" result="shape"/>
</filter>
</defs>
</svg>
