<svg width="152" height="152" viewBox="0 0 152 152" fill="none" xmlns="http://www.w3.org/2000/svg">
<g filter="url(#filter0_d_2465_23562)">
<path d="M120.647 75.8315C120.647 80.8862 119.805 85.6038 118.288 90.153C117.277 93.0173 116.098 95.7131 114.413 98.2404C112.223 101.947 109.527 105.317 106.326 108.013C105.82 108.518 105.315 109.024 104.641 109.361C101.608 111.719 98.4068 113.741 94.8685 115.426C91.6672 116.943 88.129 117.953 84.4223 118.459C82.2319 118.796 79.8731 118.964 77.5143 118.964C58.6436 118.964 42.8058 107.002 36.7402 90.3215C36.2347 88.9736 35.8978 87.4572 35.5608 86.1093C35.0553 83.7505 34.5499 81.2231 34.3814 78.6958C34.2129 77.6849 34.2129 76.674 34.2129 75.663C34.2129 73.6412 34.3814 71.6193 34.5499 69.766C34.5499 69.2605 34.7184 68.755 34.7184 68.4181C35.2238 65.3853 36.0663 62.521 37.0772 59.8252C38.4251 56.4554 40.11 53.2542 42.3003 50.3899C50.2192 39.6066 62.8558 32.5302 77.3458 32.5302C88.8029 32.5302 99.0807 36.9108 106.831 43.9873C107.168 44.3243 107.674 44.6613 108.011 44.9983C109.864 46.8516 111.717 48.8735 113.065 51.2323C114.919 53.9281 116.603 56.9609 117.783 60.1622C118.457 61.847 118.962 63.7004 119.468 65.5538C120.31 68.9235 120.647 72.2933 120.647 75.8315Z" fill="#4AC7D3" stroke="#01090F" stroke-width="0.5" stroke-miterlimit="10" stroke-linecap="round" stroke-linejoin="round"/>
<path d="M120.647 75.8315C120.647 80.8862 119.805 85.6038 118.288 90.153C117.277 93.0173 116.098 95.7131 114.413 98.2404C112.223 101.947 109.527 105.317 106.326 108.013C105.82 108.518 105.315 109.024 104.641 109.361C101.608 111.719 98.4068 113.741 94.8685 115.426C91.6672 116.943 88.129 117.953 84.4223 118.459C82.2319 118.796 79.8731 118.964 77.5143 118.964C58.6436 118.964 42.8058 107.002 36.7402 90.3215C36.2347 88.9736 35.8978 87.4572 35.5608 86.1093C35.0553 83.7505 34.5499 81.2231 34.3814 78.6958C34.2129 77.6849 34.2129 76.674 34.2129 75.663C34.2129 73.6412 34.3814 71.6193 34.5499 69.766C34.5499 69.2605 34.7184 68.755 34.7184 68.4181C35.2238 65.3853 36.0663 62.521 37.0772 59.8252C38.4251 56.4554 40.11 53.2542 42.3003 50.3899C50.2192 39.6066 62.8558 32.5302 77.3458 32.5302C88.803 32.5302 99.0807 36.9108 106.831 43.9873C107.168 44.3243 107.674 44.6613 108.011 44.9983C109.864 46.8516 111.717 48.8735 113.065 51.2323C114.919 53.9281 116.603 56.9609 117.783 60.1622C118.457 61.847 118.962 63.7004 119.468 65.5538C120.31 68.9235 120.647 72.2933 120.647 75.8315Z" fill="#4AC7D3" stroke="#01090F" stroke-width="0.5" stroke-miterlimit="10" stroke-linecap="round" stroke-linejoin="round"/>
<mask id="mask0_2465_23562" style="mask-type:alpha" maskUnits="userSpaceOnUse" x="33" y="32" width="88" height="88">
<circle cx="77.4308" cy="76" r="43.217" fill="#4AC7D3" stroke="#01090F" stroke-width="0.5"/>
</mask>
<g mask="url(#mask0_2465_23562)">
<path d="M45.0283 63.7242V64.2995C45.4725 64.6127 46.5172 64.5091 46.3343 63.7242C46.0863 63.5138 45.2638 63.5138 45.0283 63.7242Z" fill="#FFC664" stroke="#01090F" stroke-width="0.5"/>
<path d="M94.3842 66.493C78.3739 35.2857 57.7191 36.3236 52.419 31.7232L68.1784 22.8558L97.6971 6.32133L149.327 28.1538L164.957 71.5654L137.425 120.787L78.2042 120.787C83.9721 114.848 106.365 97.375 94.3842 66.493Z" fill="#008D98" stroke="black" stroke-width="0.5"/>
<path d="M113.571 92.796C113.585 92.3784 113.781 92.183 113.688 91.6728C114.447 91.125 114.381 90.4712 114.681 89.3347C115.126 87.6637 117.137 84.8163 115.425 83.537C114.797 84.1123 115.243 84.5691 114.929 85.1436C114.421 86.098 113.023 86.2149 112.462 86.9982C111.847 87.86 111.652 89.4274 112.096 90.2106C111.195 91.2168 110.647 92.7692 111.468 94.2715C112.606 94.2197 112.944 93.3579 113.572 92.796H113.571Z" fill="#FFC664" stroke="#01090F" stroke-width="0.5"/>
<path d="M124.726 57.9255C122.153 51.1866 118.195 45.1298 113.181 40.1342C104.129 31.1144 91.684 25.5044 77.9186 25.3686C77.7491 25.3686 77.5921 25.3615 77.4352 25.3615C68.3315 25.3615 59.8024 27.7772 52.424 31.9701C41.6878 38.0889 33.4075 48.012 29.4241 59.9108C27.7398 64.9261 26.8129 70.2938 26.7988 75.8719V76.0014C26.7988 78.9925 27.0735 81.9327 27.5696 84.791C28.2618 88.7483 29.4116 92.5353 30.9664 96.1276C38.6958 113.93 56.3412 126.415 76.9381 126.626C77.1076 126.626 77.2646 126.639 77.4341 126.639C86.5111 126.639 95.0143 124.235 102.381 120.056C117.714 111.358 128.057 94.888 128.057 76.0011C128.059 69.6287 126.867 63.5411 124.726 57.9255ZM92.9119 116.304C92.1545 116.213 91.9198 115.822 91.2535 116.187C91.2786 115.535 90.1162 116.07 90.0644 115.469C88.1831 115.718 86.421 115.913 84.9965 116.657C84.4745 116.932 84.0954 117.493 83.5719 117.612C83.2211 117.677 82.7235 117.443 82.3836 117.495C81.3382 117.625 79.6012 119.062 78.3746 119.272C77.8134 119.35 77.2381 119.193 76.5843 119.272C76.4415 119.337 76.2711 119.389 76.1142 119.454C72.3406 119.337 68.6956 118.748 65.2351 117.73C65.3261 117.586 65.4305 117.443 65.3654 117.129C63.4974 116.006 62.1789 114.335 60.4019 113.107C60.3635 112.206 61.1208 112.1 61.8264 111.932C61.3563 110.808 58.8871 111.291 58.9924 112.871C59.0175 113.408 59.3966 113.367 59.4617 114.06C58.9264 113.811 58.8487 113.094 58.1565 113.002C58.483 112.781 58.4296 112.192 57.921 112.166C57.3732 112.062 57.6997 112.82 57.4509 113.002C56.8638 113.002 56.8756 112.872 56.3929 113.002C56.4455 113.734 57.4109 113.983 57.921 113.589C58.1699 114.007 58.1699 114.23 57.921 114.661C58.3653 115.313 59.4617 115.248 60.1666 115.117C60.4021 115.156 60.1415 114.791 60.0496 114.765C60.2985 114.452 60.5732 115.105 60.6367 115.366C60.2843 115.522 59.9178 115.602 59.567 115.639C58.3245 115.078 57.1245 114.464 55.9487 113.797C55.8184 113.51 55.5045 113.393 55.1521 113.327C54.9033 113.197 54.6686 113.04 54.4331 112.896V112.883C54.4198 112.883 54.4198 112.883 54.3947 112.87C51.2207 110.885 48.3332 108.507 45.7746 105.791C45.6961 105.633 45.5776 105.504 45.4348 105.439C38.3035 97.6944 33.9545 87.35 33.9545 75.9991C33.9545 71.676 34.5816 67.5108 35.7573 63.5661C35.9261 64.0621 35.9018 64.7551 36.3052 65.0149C37.0241 64.584 36.2141 63.3698 36.0956 62.5206C36.0956 62.4947 36.109 62.4555 36.1215 62.4296C36.3947 63.187 37.0351 63.8651 37.2446 64.6617C37.3616 65.1184 37.0869 65.4332 37.1277 65.8374C37.2721 67.2486 38.3686 67.4055 39.6087 68.3317C40.1958 68.4761 40.1048 67.9675 40.549 67.9808C40.8888 69.5608 43.2002 69.195 43.2788 71.0371C43.5142 71.4287 44.0628 71.5072 44.0887 72.1069C44.7166 71.9899 44.6499 72.5637 45.3947 72.5903C45.6161 72.4082 45.4206 71.8196 45.8649 71.8714C46.4661 72.3808 46.5038 73.4521 46.452 74.5885C46.0195 75.6724 44.5573 77.2273 45.6294 78.3755C44.7158 79.3158 45.6812 80.8431 46.452 81.2096C46.9087 82.9332 47.5884 84.4095 48.5806 85.5719C49.5742 85.7815 49.9643 86.5639 50.4752 87.2319C50.4886 89.7394 50.8151 91.9074 51.0623 94.0884C51.2185 95.2775 50.7876 96.465 50.841 97.6281C50.9061 99.2347 52.0944 100.279 51.8974 102.004C51.702 102.017 51.4406 101.951 51.4273 102.121C51.2318 102.84 51.884 102.682 52.0143 103.075C52.5237 104.759 52.8777 106.615 54.4968 107.202C54.8625 107.254 54.5878 106.652 54.8625 106.627C54.9795 106.313 54.901 107.633 54.5101 107.567C55.0187 108.311 56.5987 108.728 57.5796 108.389C56.5342 107.631 55.568 106.782 54.9795 105.554C55.3201 105.033 55.6199 104.457 55.9197 103.909C55.8546 103.333 55.2534 103.322 54.9795 102.956C54.8751 102.46 55.503 102.694 55.6851 102.486C55.503 102.316 55.5807 101.884 55.5681 101.531C55.7125 101.374 56.1434 101.492 56.1552 101.179C56.2078 100.592 55.2149 101.021 55.3327 100.356C55.634 100.461 55.9606 100.514 56.3906 100.473C56.5861 100.069 56.3906 99.69 56.3906 99.2983C58.1417 99.898 59.1337 98.5794 58.2853 97.2867C58.6252 97.3 59.056 97.2215 59.2381 97.4036C60.6219 96.5936 61.0802 94.8442 62.0738 93.6166C62.1123 93.0687 61.8525 92.8066 61.9568 92.2054C62.4011 91.4755 63.3547 91.2526 63.9543 90.6647C64.4912 90.6121 64.9613 90.8334 65.3788 90.6647C66.4627 90.2322 66.907 86.8911 66.6849 84.9964C67.1291 84.644 69.4014 82.3058 68.9169 80.9739C68.395 79.5109 65.1825 78.0086 63.014 78.2574C62.4645 76.9906 61.0283 77.1593 59.9436 76.5974C59.5394 74.4822 58.6635 72.8355 55.9211 73.0577C55.3858 71.882 53.7149 71.4118 53.557 70.2236C52.7988 70.1326 52.2769 70.2762 52.0289 70.6938C51.5847 70.4057 51.3625 70.536 50.7236 70.5768C50.5133 70.1459 50.0565 69.9897 49.9011 69.5188C49.3533 69.5188 49.4051 69.9113 49.1822 69.3885C48.2034 69.8328 47.2231 70.2637 46.9366 71.3994C46.5042 71.1781 45.5529 70.8775 44.8199 71.3994C43.5531 70.3689 45.6032 66.8032 42.5743 67.7301C42.7957 66.7498 43.2132 65.9398 43.3961 64.9085C43.2532 64.8041 43.1088 64.7523 42.9919 64.699C43.3317 64.2681 43.8929 64.0718 44.7429 64.1511C44.7429 62.5186 42.9801 62.4911 41.6993 62.8584C41.4897 62.4794 40.9937 62.0359 40.4066 61.6442C40.6947 61.1741 41.0863 60.8217 41.6216 60.6506C42.1969 60.5988 42.2087 61.0948 42.6929 61.1207C43.0061 61.0038 43.0846 60.6373 43.0438 60.1679C43.9464 59.9842 44.0507 60.3775 44.8207 60.1679C44.9251 61.16 45.1339 62.0743 45.5263 62.7675C46.8582 61.5917 45.3426 59.5551 46.2319 58.1697C46.8841 57.1635 48.1124 57.1635 48.4774 55.9242C48.5441 55.5317 48.3997 55.3748 48.3605 55.1016C49.0661 54.6574 49.2741 53.7179 49.6665 52.959C50.4239 52.6992 50.6319 51.8892 51.4285 51.6671C51.5863 51.1969 51.0502 51.4316 51.193 50.9615C51.5329 50.2033 52.5658 50.1123 53.0877 49.5503C53.2455 49.7324 52.9833 50.2426 53.3232 50.4906C54.0806 49.9553 55.086 49.6547 55.8042 49.0661C55.9086 48.5441 55.5946 48.4138 55.2171 48.3605C55.2305 48.0206 55.7132 48.1509 55.6872 47.7742C55.6095 47.3558 54.7862 47.6439 54.5123 47.4218C54.6033 46.3732 55.6095 46.9516 56.2743 46.4815C56.3912 45.8905 55.5303 46.2759 55.334 46.0012C56.0655 45.5962 57.359 45.7398 57.4642 44.6952C58.5222 44.539 59.0709 43.8671 59.3448 42.9261C59.293 42.3186 58.4312 42.5211 58.523 41.7433C58.0906 41.7825 57.7515 41.7229 57.465 41.6318C57.1903 40.4828 56.8897 39.366 56.5106 38.315C56.1708 38.3613 55.9628 38.53 55.7917 38.7458C55.7666 38.7325 55.7533 38.7129 55.7266 38.7066C55.6096 38.8644 55.3341 38.8126 55.112 38.6752C57.6714 37.1471 60.4012 35.8733 63.2754 34.8882C63.4057 35.0569 63.5501 35.2209 63.8366 35.2469C63.6153 35.7366 63.6011 35.9391 63.9535 36.3033C64.437 36.3959 64.6332 36.1918 65.0249 36.1918C65.2603 36.3496 65.3255 36.6824 65.612 36.7789C66.513 36.224 67.753 35.414 67.3873 34.2979C67.6754 34.1535 67.8331 33.867 67.9626 33.5531C71.0197 32.8734 74.1794 32.5147 77.432 32.5147C82.3296 32.5147 87.0308 33.3372 91.4325 34.834C91.0401 35.9704 91.5102 37.9035 92.5556 38.0801C93.3656 38.2175 93.5618 37.577 94.4503 37.3745C94.6324 38.2041 95.1559 38.7127 95.6252 39.2629C95.6511 39.8445 94.7509 39.4913 94.9212 40.2094C95.1567 40.9354 96.7743 40.9543 97.2853 40.6796C97.4297 39.6412 97.3763 38.4137 98.2397 38.08C98.253 37.9756 98.253 37.8846 98.2397 37.8124C99.0622 38.2621 99.8589 38.7393 100.643 39.2424C100.773 39.627 101.178 39.8813 101.191 40.4495C100.63 40.4825 100.825 39.7769 100.236 39.8554C99.4657 40.0971 99.6752 41.3317 99.2961 41.9856C97.8724 41.4621 96.5931 42.593 95.404 41.5084C95.7698 40.7117 94.8821 40.758 94.5689 40.3256C94.8821 39.4771 94.9213 39.0847 94.5689 38.2034C92.9882 38.2882 93.197 39.9921 93.7464 41.0375C93.2229 41.0838 92.3627 41.0508 91.7347 41.2792C91.3305 41.7431 91.2646 42.546 90.311 42.462C89.9452 42.1355 90.7152 41.8749 90.311 41.5076C90.1414 41.2792 89.7098 41.3318 89.4884 41.1552C89.4625 40.3452 89.005 39.9795 88.4171 39.7314C88.5081 39.2927 88.5749 38.8956 87.947 38.9089C87.8693 38.4058 88.3261 38.4317 88.2994 37.9616C88.2217 37.661 87.9211 37.5511 87.4768 37.6092C87.3724 37.2764 87.6464 37.3031 87.5938 37.0221C87.3983 36.8196 86.9015 36.924 86.524 36.8981C85.9628 37.245 86.0539 38.2316 85.5837 38.675C85.5312 39.0478 86.159 38.7135 86.0539 39.1452C86.1316 39.6153 85.4927 39.2951 85.4668 39.1452C84.6961 39.4512 84.5006 40.105 83.5721 39.9732C83.6781 40.4245 83.7299 40.9276 83.6891 41.5076C83.9905 41.8082 84.525 41.86 84.7471 42.2195C85.4526 42.0751 85.962 41.7815 86.2885 41.2651V40.2071C86.5758 40.1027 86.8105 39.9269 87.2429 39.9716C87.126 40.4355 87.5938 40.324 87.4768 40.7887C87.1896 40.7816 86.9015 40.7753 86.7728 40.9127C86.6802 41.3569 86.9682 41.4158 86.8897 41.86C86.5884 41.8396 86.3144 41.8396 86.1842 41.984C86.2093 42.2901 86.4573 42.4015 86.8897 42.3364C86.8372 42.8269 86.327 42.878 86.1842 43.2767C87.0067 43.5569 88.4038 43.3811 89.1353 43.1597C88.8999 43.7468 89.5144 43.4729 89.4877 43.8653C88.3254 43.2712 88.2861 44.3409 86.8882 44.1063C86.7186 44.257 86.7712 44.6156 86.7712 44.9359C87.8151 45.4782 89.3565 46.0983 88.6518 47.996C86.9934 48.2691 85.1388 47.0824 84.1725 48.1255C84.8648 49.5625 84.0164 50.987 84.2895 52.3833C84.9951 52.5669 86.013 52.45 86.4062 52.9586C86.0538 53.2859 85.7006 53.599 85.7006 54.2646C83.9638 54.657 84.1984 57.0335 83.1011 58.0516C80.9709 58.8482 80.4097 61.1997 79.1955 62.8841C80.2135 63.9162 79.7308 66.2285 79.0786 67.2723C79.2606 67.6765 79.5738 67.952 79.431 68.6819C79.7818 69.2446 80.3963 69.5311 80.9716 69.871C81.7942 71.7389 82.7227 74.1288 84.7452 74.3502C85.6345 74.4546 86.0913 73.6838 86.8754 73.6446C87.6328 73.6187 87.8542 74.1799 88.6508 74.2317C89.8658 73.9052 90.9755 72.848 92.2031 73.0559C93.2211 73.238 93.9267 75.015 95.1557 74.1139C95.5866 74.9365 95.4155 76.5949 95.0255 77.3004C95.4822 78.8285 96.6321 79.6518 96.9193 81.3229C99.153 82.9029 96.5928 85.2677 96.8024 87.3569C96.9068 88.4008 97.8478 89.1856 97.9915 90.3081C98.2528 92.5026 98.9184 94.1092 100.002 95.7401C100.016 96.0807 99.5981 95.9756 99.7669 96.4457C100.224 98.2878 102.17 96.3546 103.307 96.7981C104.443 96.0799 105.762 95.5572 106.141 94.0816C107.656 93.5063 107.734 91.4947 108.505 90.176H109.092C109.523 89.5481 109.562 88.217 109.092 87.5891C109.629 86.466 110.647 85.8271 111.574 85.1081C111.626 83.6192 112.201 82.7048 111.81 81.5557C111.626 81.0079 110.935 80.7332 110.869 80.2497C110.581 78.3833 113.038 77.8991 113.233 75.8874C113.547 75.8097 113.678 75.5476 113.939 75.4173C114.318 73.3413 115.781 71.7355 115.599 69.501C114.71 69.9319 113.613 70.0379 112.763 70.22C112.45 69.8409 112.973 69.5536 113.116 69.2656C112.15 67.7892 110.178 66.1834 110.516 64.1852C109.733 63.1531 108.856 61.585 108.739 60.2923C109.471 60.1361 109.705 61.4295 109.928 62.1736C110.033 62.6571 110.555 62.7348 110.751 63.128C110.855 65.3084 112.526 65.9104 112.631 68.0914C113.102 68.4556 113.036 69.3449 113.703 69.501C114.173 69.5795 114.043 69.0568 114.055 68.6785C115.322 67.8167 116.864 67.243 117.947 66.1975C117.947 65.3231 118.495 65.2313 118.431 64.5375C118.353 63.7801 117.359 63.5054 117.359 62.657C117.974 62.7088 118.392 62.9576 118.953 63.0745C120.233 67.1637 120.912 71.4985 120.912 75.9902C120.912 93.5319 110.503 108.655 95.5349 115.512C94.4 115.469 93.4598 115.574 92.9119 116.304ZM53.7958 46.5873C53.4693 46.4829 53.9002 46.1721 53.9002 45.9963C54.3569 46.0559 54.4872 45.7812 54.9715 45.8793C54.9048 46.4436 54.1081 46.278 53.7958 46.5873ZM54.3836 47.9984C54.6568 48.0369 54.8671 48.1413 55.0892 48.2457C54.9841 48.4945 54.2267 48.4034 54.3836 47.9984ZM48.3489 45.9963C47.9447 45.3684 48.206 44.5662 48.3489 43.8677C48.3622 43.7892 48.3229 43.7617 48.2711 43.7507C49.0152 43.0765 49.7867 42.4447 50.5699 41.8168C50.4255 42.9345 49.5637 43.3394 48.9374 43.9862C49.2372 44.6321 49.2891 45.9437 48.3489 45.9963ZM47.4078 50.4928C46.8992 50.036 46.7807 50.7416 46.7038 51.0799C46.5868 50.7275 46.4157 50.4135 46.338 50.0085C46.7038 50.1781 46.7689 49.9567 47.2909 50.0085C47.2783 50.2322 47.4353 50.2581 47.4078 50.4928ZM44.8098 49.4214C44.9794 49.2001 45.3059 49.1342 45.3969 48.8344C45.776 48.9387 46.0115 49.1609 45.984 49.6569C45.579 49.5659 45.5398 49.8406 45.1615 49.7738C45.2925 49.4081 45.28 49.3948 44.8098 49.4214ZM44.4566 49.9057C44.2471 49.8147 44.4433 49.6844 44.4566 49.54C44.6654 49.6302 44.47 49.748 44.4566 49.9057ZM41.701 62.9918C41.6751 63.2665 41.8705 63.3183 41.8454 63.5788C41.4404 63.5529 41.0621 63.5655 41.1264 64.0097C41.3878 64.702 42.0808 64.3755 42.5894 64.6502C41.6758 64.7671 41.8187 66.8698 40.3166 66.5699C40.1996 66.2175 40.0952 65.8251 40.0293 65.4335C40.1596 65.4076 40.3299 65.3809 40.5512 65.3165C40.4209 64.585 40.1337 64.4029 39.8849 64.4673C39.859 64.1275 39.8715 63.7751 39.8982 63.4352C40.6823 63.4752 41.1139 63.1487 41.701 62.9918ZM49.0677 70.4487C49.0543 70.1614 49.2498 70.0963 49.3031 69.8616C49.7332 69.9526 49.4468 70.5021 49.0677 70.4487ZM117.009 61.7125C116.63 62.2878 116.487 63.0703 115.468 63.0185C115.206 62.692 115.128 62.1692 115.115 61.594C114.894 61.3726 114.683 61.5555 114.41 61.594C114.214 60.8366 113.73 60.3798 113.691 59.4654C114.971 59.8178 114.697 61.685 115.95 62.0649C116.459 62.1034 116.552 61.7242 117.009 61.7125ZM113.809 52.1772C113.809 52.2031 113.809 52.2297 113.822 52.2556C113.913 52.3852 114.017 52.5154 114.11 52.6473C114.162 52.725 114.201 52.805 114.239 52.8686C114.528 53.3129 114.749 53.8089 114.763 54.5011C112.973 54.5788 112.281 53.1951 112.882 51.55C112.124 50.7918 111.419 49.6553 111.12 48.5196C112.071 49.6828 112.972 50.9103 113.809 52.1772ZM101.178 57.5716C99.3098 56.9194 98.2525 55.4565 96.4498 54.7376C96.7245 53.7714 95.902 53.6011 96.2144 52.9606C95.862 52.8303 95.5221 52.7134 95.2616 52.4905C94.9091 52.5297 94.738 52.7518 94.439 52.8562C92.9627 52.6741 91.6566 52.5431 90.2981 52.8562C89.0314 53.1309 87.7504 54.1489 86.5246 53.0917C88.0511 53.0007 89.1358 52.6082 89.9465 51.7865C89.6852 49.7882 91.4488 49.8141 91.7219 48.351C92.8458 48.7686 93.7076 48.468 94.5575 47.9986C95.5119 49.4875 97.6664 49.774 98.0972 51.7857C97.4827 51.8901 96.9482 52.0863 96.3344 51.6687C96.1131 52.361 96.8838 52.9873 97.2747 53.4441C97.6404 53.5351 97.7056 53.3138 97.9803 53.3271C98.0329 52.9096 97.941 52.6608 97.8633 52.3728C98.2158 52.3728 98.4645 52.7252 98.6992 52.503C98.7644 52.1389 99.0257 51.9552 99.4048 51.9034C99.4825 51.4709 99.1435 51.4466 99.1694 51.0809C99.561 51.0809 99.7447 51.642 100.109 51.3163C100.148 50.2583 98.9857 50.3894 98.817 49.5394C99.5225 49.3298 99.7439 49.6304 100.227 49.9051C100.515 51.8508 101.234 53.3797 102.827 54.0319C103.022 54.123 103.022 53.4841 102.827 53.5618C102.944 53.1961 103.153 53.6921 103.297 53.6787C103.584 53.718 103.23 53.1435 103.661 53.3263C103.36 52.3861 103.178 52.0462 103.178 50.8453C104.105 50.8453 104.027 52.2808 104.013 52.8562C104.563 53.6143 105.373 54.6849 106.731 54.2673C107.148 54.2414 107.109 54.6716 107.436 54.7375C107.945 54.7375 108.194 54.4628 108.741 54.502C108.611 55.6251 108.715 56.5129 108.506 57.6885C106.194 57.5064 103.936 57.3227 102.72 55.8079C102.367 56.1588 101.362 55.8731 101.06 56.2647C100.97 56.8416 101.245 57.0363 101.178 57.5716ZM89.9465 42.9214C90.3122 42.7518 90.1152 43.6065 89.8296 43.5084C89.777 43.2275 90.0376 43.2534 89.9465 42.9214ZM105.188 50.493C104.967 50.205 104.784 49.8785 104.483 49.6571C104.862 49.0559 105.111 48.3252 105.541 47.7632C106.102 47.724 106.076 48.2459 106.73 48.1156C106.586 48.4665 106.691 48.5198 106.834 48.8338C107.356 48.574 107.892 48.8471 108.388 48.9507C108.481 48.494 108.129 48.494 107.906 48.3511C108.088 48.1156 108.741 48.3252 108.975 48.1156C108.937 48.3888 109.001 48.5724 109.211 48.5983C109.224 48.8471 108.793 48.6509 108.624 48.7027C108.702 48.9515 108.845 49.121 109.003 49.2898C108.833 49.3031 108.663 49.329 108.507 49.4067C108.442 50.256 108.925 50.5307 109.382 50.8438C109.669 50.6083 110.179 50.595 110.466 50.3478C110.767 50.5832 111.003 50.8713 111.094 51.3139C108.975 51.3673 107.761 49.7741 105.188 50.493Z" fill="#FFC664" stroke="#01090F" stroke-width="0.5"/>
</g>
<path d="M120.647 75.8315C120.647 80.8862 119.805 85.6038 118.288 90.153C117.277 93.0173 116.098 95.7131 114.413 98.2404C112.223 101.947 109.527 105.317 106.326 108.013C105.82 108.518 105.315 109.024 104.641 109.361C101.608 111.719 98.4068 113.741 94.8685 115.426C91.6672 116.943 88.129 117.953 84.4223 118.459C82.2319 118.796 79.8731 118.964 77.5143 118.964C58.6436 118.964 42.8058 107.002 36.7402 90.3215C36.2347 88.9736 35.8978 87.4572 35.5608 86.1093C35.0553 83.7505 34.5499 81.2231 34.3814 78.6958C34.2129 77.6849 34.2129 76.674 34.2129 75.663C34.2129 73.6412 34.3814 71.6193 34.5499 69.766C34.5499 69.2605 34.7184 68.755 34.7184 68.4181C35.2238 65.3853 36.0663 62.521 37.0772 59.8252C38.4251 56.4554 40.11 53.2542 42.3003 50.3899C50.2192 39.6066 62.8558 32.5302 77.3458 32.5302C88.8029 32.5302 99.0807 36.9108 106.831 43.9873C107.168 44.3243 107.674 44.6613 108.011 44.9983C109.864 46.8516 111.717 48.8735 113.065 51.2323C114.919 53.9281 116.603 56.9609 117.783 60.1622C118.457 61.847 118.962 63.7004 119.468 65.5538C120.31 68.9235 120.647 72.2933 120.647 75.8315Z" stroke="#01090F" stroke-width="0.5" stroke-miterlimit="10" stroke-linecap="round" stroke-linejoin="round"/>
<path d="M122.6 78.2796C131.591 84.9142 136.39 90.8671 134.784 95.1232C131.571 103.636 103.15 100.834 71.18 88.7686C39.2097 76.7034 16.0834 59.872 19.2958 51.3596C21.021 46.7882 29.8111 45.6033 42.4042 47.1142" stroke="#FFC664" stroke-miterlimit="10" stroke-linecap="round" stroke-linejoin="round"/>
<path d="M110.437 44.8734C111.291 32.5892 108.976 23.9293 103.617 21.9066C93.5281 18.0993 75.8386 40.159 64.0189 71.4789C52.1992 102.799 50.9037 131.045 61.1501 134.912C66.5097 136.935 74.0911 131.639 81.6884 121.529" stroke="#FFC664" stroke-miterlimit="10" stroke-linecap="round" stroke-linejoin="round"/>
</g>
<defs>
<filter id="filter0_d_2465_23562" x="17.4971" y="19.979" width="121.094" height="118.86" filterUnits="userSpaceOnUse" color-interpolation-filters="sRGB">
<feFlood flood-opacity="0" result="BackgroundImageFix"/>
<feColorMatrix in="SourceAlpha" type="matrix" values="0 0 0 0 0 0 0 0 0 0 0 0 0 0 0 0 0 0 127 0" result="hardAlpha"/>
<feOffset dx="1" dy="1"/>
<feGaussianBlur stdDeviation="1"/>
<feComposite in2="hardAlpha" operator="out"/>
<feColorMatrix type="matrix" values="0 0 0 0 0 0 0 0 0 0 0 0 0 0 0 0 0 0 0.15 0"/>
<feBlend mode="normal" in2="BackgroundImageFix" result="effect1_dropShadow_2465_23562"/>
<feBlend mode="normal" in="SourceGraphic" in2="effect1_dropShadow_2465_23562" result="shape"/>
</filter>
</defs>
</svg>
