<svg version="1.2" xmlns="http://www.w3.org/2000/svg" viewBox="0 0 500 428" width="500" height="428"><style>.a{fill:none;stroke:#000}.b{fill:#f78400;stroke:#000}.c{fill:#fceb64;stroke:#000}.d{fill:#fff;stroke:#000}.e{fill:#001749;stroke:#001749;stroke-width:1.3}.f{fill:#1c4396;stroke:#001749;stroke-width:1.3}.g{fill:#fff;stroke:#001749;stroke-linecap:round;stroke-linejoin:round;stroke-width:1.3}.h{fill:#fff;stroke:#001749;stroke-width:1.3}.i{fill:#1c4396;stroke:#001749}.j{fill:#f78400;stroke:#001749;stroke-width:1.3}.k{fill:#fff}.l{fill:#2c71f0}.m{fill:#fff;stroke:#001749;stroke-width:.6}.n{fill:#f78400;stroke:#001749;stroke-miterlimit:10;stroke-width:1.3}.o{fill:#f78400;stroke:#001749;stroke-width:1.2}.p{fill:#fff;stroke:#001749;stroke-miterlimit:10;stroke-width:1.3}.q{fill:none;stroke:#001749;stroke-linecap:round;stroke-linejoin:round;stroke-width:1.3}.r{fill:#f78400;stroke:#001749;stroke-linecap:round;stroke-linejoin:round;stroke-width:1.3}.s{fill:#001749}.t{fill:#fbe62e;stroke:#001749;stroke-linejoin:round;stroke-width:1.3}.u{fill:none;stroke:#001749;stroke-linejoin:round;stroke-width:1.3}</style><path class="a" d="m12.8 86.2c0-17.2 13.9-31 31-31h406.4c17.1 0 31 13.8 31 31v274.1c0 17.2-13.9 31-31 31h-406.4c-17.1 0-31-13.8-31-31z"/><path class="a" d="m13 94h468"/><path class="b" d="m392.2 84.5c-4.8 0-8.7-3.8-8.7-8.6 0-4.8 3.9-8.6 8.7-8.6 4.7 0 8.6 3.8 8.6 8.6 0 4.8-3.9 8.6-8.6 8.6z"/><path class="c" d="m444 84.5c-4.8 0-8.6-3.8-8.6-8.6 0-4.8 3.8-8.6 8.6-8.6 4.8 0 8.7 3.8 8.7 8.6 0 4.8-3.9 8.6-8.7 8.6z"/><path class="d" d="m418.1 84.5c-4.8 0-8.7-3.8-8.7-8.6 0-4.8 3.9-8.6 8.7-8.6 4.8 0 8.6 3.8 8.6 8.6 0 4.8-3.8 8.6-8.6 8.6z"/><path class="e" d="m250.9 340.9c0-3.8 3.1-6.9 6.9-6.9h63c3.8 0 6.9 3.1 6.9 6.9v62.9c0 3.8-3.1 6.9-6.9 6.9h-63c-3.8 0-6.9-3.1-6.9-6.9z"/><path class="f" d="m248.2 340.9c0-3.8 3-6.9 6.9-6.9h62.9c3.8 0 6.9 3.1 6.9 6.9v62.9c0 3.8-3.1 6.9-6.9 6.9h-62.9c-3.9 0-6.9-3.1-6.9-6.9z"/><path class="g" d="m302.4 363.4h-15.6l-1-4.6c-0.2-1.1-1.1-2-2.3-2h-12.7c-1.3 0-2.4 1.1-2.4 2.4v6 16.2 6.5h35.8v-22.7c0-1-0.8-1.8-1.8-1.8z"/><path class="g" d="m304.3 388h-35.8l8-18.2c0.3-0.7 0.9-1.2 1.7-1.2h31.7c1.4 0 2.3 1.4 1.7 2.7z"/><path class="e" d="m335.6 340.9c0-3.8 3.1-6.9 6.9-6.9h62.9c3.8 0 6.9 3.1 6.9 6.9v62.9c0 3.8-3.1 6.9-6.9 6.9h-62.9c-3.8 0-6.9-3.1-6.9-6.9z"/><path class="h" d="m332.8 340.9c0-3.8 3.1-6.9 6.9-6.9h62.9c3.8 0 6.9 3.1 6.9 6.9v62.9c0 3.8-3.1 6.9-6.9 6.9h-62.9c-3.8 0-6.9-3.1-6.9-6.9z"/><path class="i" d="m371.7 388.9c-12.5 0-22.5-2.3-22.5-5.2 0-2.9 10-5.3 22.5-5.3 12.4 0 22.5 2.4 22.5 5.3 0 2.9-10.1 5.2-22.5 5.2z"/><path class="i" d="m371.7 378.4c-12.5 0-22.5-2.4-22.5-5.3 0-2.9 10-5.2 22.5-5.2 12.4 0 22.5 2.3 22.5 5.2 0 2.9-10.1 5.3-22.5 5.3z"/><path class="i" d="m371.7 367.9c-12.5 0-22.5-2.4-22.5-5.3 0-2.9 10-5.2 22.5-5.2 12.4 0 22.5 2.3 22.5 5.2 0 2.9-10.1 5.3-22.5 5.3z"/><path class="e" d="m77.2 341.3c0-3.9 3-6.9 6.9-6.9h150.2c3.8 0 6.9 3 6.9 6.9v63.2c0 3.8-3.1 6.9-6.9 6.9h-150.2c-3.9 0-6.9-3.1-6.9-6.9z"/><path class="j" d="m77.2 341.3c0-3.9 3-6.9 6.9-6.9h147.2c3.8 0 6.9 3 6.9 6.9v63.2c0 3.8-3.1 6.9-6.9 6.9h-147.2c-3.9 0-6.9-3.1-6.9-6.9z"/><path class="k" d="m169.5 391.5c-0.1 0-0.1 0-0.1-0.1v-31.8q0-0.2 0.1-0.2l5.6-1.2c0.1 0 0.2 0.1 0.2 0.2v33c0 0.1-0.1 0.1-0.2 0.1z"/><path fill-rule="evenodd" class="k" d="m101.5 392.2q-3.3 0-5.8-1.6-2.6-1.6-4.1-4.4-1.4-2.8-1.4-6.3 0-3.6 1.4-6.3 1.5-2.8 4.1-4.4 2.5-1.6 5.8-1.6 2.6 0 4.5 1 1.7 0.9 2.9 2.4c0.1 0.1 0.3 0 0.3-0.1v-11.9q0-0.1 0.1-0.2l5.6-1.2c0.1 0 0.2 0.1 0.2 0.2v33.7c0 0.1 0 0.1-0.1 0.1h-5q-0.2 0-0.2-0.1l-0.5-2.8c-0.1-0.2-0.2-0.2-0.3-0.1q-1.1 1.4-2.8 2.4-1.8 1.2-4.7 1.2zm1.2-5.3q2.9 0 4.7-1.9 1.9-2 1.9-5.1 0-3.1-1.9-5-1.8-2-4.7-2-2.8 0-4.7 2-1.8 1.9-1.8 5 0 3 1.8 5 1.9 2 4.7 2z"/><path fill-rule="evenodd" class="k" d="m129.6 392.2q-3.5 0-6.2-1.5-2.7-1.5-4.2-4.2-1.5-2.8-1.5-6.4 0-3.6 1.5-6.5 1.5-2.8 4.1-4.4 2.7-1.6 6.4-1.6 3.3 0 5.9 1.5 2.6 1.6 4.1 4.2 1.5 2.6 1.5 5.8 0 0.5-0.1 1.1 0 0.5 0 1c0 0.1-0.1 0.2-0.2 0.2h-17.2c0 0-0.1 0.1-0.1 0.2q0.2 2.6 1.8 4.1 1.8 1.6 4.2 1.6 1.8 0 3-0.8 1.2-0.9 1.8-2.1 0-0.1 0.1-0.1h5.8c0.1 0 0.1 0.1 0.1 0.2q-0.6 2.1-2.1 3.8-1.5 1.8-3.7 2.9-2.2 1-5 1zm0.1-19.7q-2.2 0-3.9 1.3-1.6 1.2-2.1 3.6c0 0.1 0.1 0.2 0.2 0.2h11.1c0.1 0 0.1-0.1 0.1-0.2q-0.2-2.2-1.6-3.5-1.6-1.4-3.8-1.4z"/><path fill-rule="evenodd" class="k" d="m155.5 392.2q-3.5 0-6.2-1.5-2.7-1.5-4.2-4.2-1.6-2.8-1.6-6.4 0-3.6 1.5-6.5 1.5-2.8 4.2-4.4 2.7-1.6 6.3-1.6 3.4 0 6 1.5 2.6 1.6 4 4.2 1.5 2.6 1.5 5.8 0 0.5 0 1.1 0 0.5-0.1 1c0 0.1 0 0.2-0.1 0.2h-17.2c-0.1 0-0.2 0.1-0.2 0.2q0.3 2.6 1.9 4.1 1.7 1.6 4.1 1.6 1.8 0 3-0.8 1.2-0.9 1.8-2.1 0.1-0.1 0.2-0.1h5.7c0.1 0 0.2 0.1 0.2 0.2q-0.7 2.1-2.2 3.8-1.5 1.8-3.7 2.9-2.2 1-4.9 1zm0-19.7q-2.2 0-3.9 1.3-1.6 1.2-2.1 3.6c0 0.1 0.1 0.2 0.2 0.2h11.1c0.1 0 0.2-0.1 0.2-0.2q-0.2-2.2-1.7-3.5-1.5-1.4-3.8-1.4z"/><path class="k" d="m183.1 391.6c-2.2 0-4-1.9-4-4.1 0-2.3 1.8-4.1 4-4.1 2.2 0 4 1.8 4 4.1 0 2.2-1.8 4.1-4 4.1z"/><path fill-rule="evenodd" class="l" d="m215.8 352.4c6.8 0 12.4 5.5 12.4 12.3 0 6.8-5.6 12.3-12.4 12.3h-23.6q-0.3 0-0.7 0c-3 1.8-7.2 4.2-7.2 4.2v-7c-2.7-2.3-4.4-5.7-4.4-9.5 0-6.8 5.5-12.3 12.3-12.3z"/><path  d="m191.5 377l-0.1-0.3h0.1 0.1zm-7.2 4.2l0.1 0.3-0.5 0.3v-0.6zm0-7.1l0.2-0.2 0.2 0.1v0.1zm43.4-9.4c0-6.7-5.3-12-12-12v-0.7c7 0 12.7 5.7 12.7 12.7zm-12 12c6.6 0 12-5.4 12-12h0.7c0 6.9-5.7 12.6-12.7 12.6zm-23.6 0h23.6v0.7h-23.6zm-0.7 0q0.4 0 0.7 0v0.6q-0.4 0-0.7 0zm-7.2 4.6c-0.2-0.3-0.2-0.3-0.2-0.3q0 0 0 0 0 0 0 0 0 0 0.1-0.1 0 0 0.1 0 0.2-0.1 0.5-0.3c0.4-0.3 1.1-0.7 1.8-1.1 1.4-0.8 3.2-1.8 4.7-2.7l0.3 0.5c-1.5 0.9-3.3 2-4.7 2.8-0.7 0.4-1.3 0.8-1.8 1q-0.3 0.2-0.5 0.3-0.1 0.1-0.1 0.1 0 0 0 0-0.1 0-0.1 0 0 0 0 0c0 0 0 0-0.1-0.2zm0.3-7.1v7.1h-0.7v-7.1zm-4.4-9.5c0 3.7 1.7 7.1 4.3 9.3l-0.4 0.5c-2.8-2.4-4.6-5.9-4.6-9.8zm12-12c-6.6 0-12 5.4-12 12h-0.6c0-7 5.7-12.6 12.6-12.6zm23.7 0h-23.7v-0.7h23.7z"/><path fill-rule="evenodd" class="m" d="m191.1 356.8h4v5.9h5.5v-5.9h4v15.8h-4v-6h-5.5v6h-4zm15.9 0h6.2c3.3 0 5.7 2.1 5.7 5.3 0 2-1.1 3.7-2.6 4.5l3.1 5.5 0.2 0.5h-4.4l-0.1-0.2-2.5-4.9h-1.6v5.1h-4zm5.9 7.1c0.6 0 1.1-0.1 1.4-0.4 0.3-0.3 0.5-0.8 0.5-1.4 0-0.6-0.2-1-0.5-1.3-0.3-0.3-0.8-0.5-1.4-0.5h-1.9v3.6z"/><path class="e" d="m163.6 92.8c0-3.9 3.1-6.9 6.9-6.9h63c3.8 0 6.9 3 6.9 6.9v62.9c0 3.8-3.1 6.9-6.9 6.9h-63c-3.8 0-6.9-3.1-6.9-6.9z"/><path class="j" d="m160.8 92.8c0-3.9 3.1-6.9 6.9-6.9h63c3.8 0 6.9 3 6.9 6.9v62.9c0 3.8-3.1 6.9-6.9 6.9h-63c-3.8 0-6.9-3.1-6.9-6.9z"/><path class="g" d="m215.1 115.3h-15.6l-1-4.7c-0.2-1.1-1.1-1.9-2.3-1.9h-12.7c-1.3 0-2.4 1.1-2.4 2.4v6 16.1 6.6h35.8v-22.7c0-1-0.8-1.8-1.8-1.8z"/><path class="g" d="m217 139.8h-35.8l7.9-18.2c0.3-0.6 1-1.1 1.8-1.1h31.7c1.4 0 2.3 1.4 1.7 2.6z"/><path class="e" d="m122.4 174.9c0-3.8 3-6.9 6.9-6.9h62.9c3.8 0 6.9 3.1 6.9 6.9v63c0 3.8-3.1 6.9-6.9 6.9h-62.9c-3.9 0-6.9-3.1-6.9-6.9z"/><path class="f" d="m119.6 174.9c0-3.8 3.1-6.9 6.9-6.9h62.9c3.8 0 6.9 3.1 6.9 6.9v63c0 3.8-3.1 6.9-6.9 6.9h-62.9c-3.8 0-6.9-3.1-6.9-6.9z"/><path class="h" d="m167.4 184.1h11.9v42.6h-11.9z"/><path class="h" d="m136 212.5h12v14.2h-12z"/><path class="h" d="m151.7 198.3h11.9v28.4h-11.9z"/><path class="e" d="m250.1 92.4c0-3.8 3.1-6.9 6.9-6.9h62.9c3.8 0 6.9 3.1 6.9 6.9v63c0 3.8-3.1 6.8-6.9 6.8h-62.9c-3.8 0-6.9-3-6.9-6.8z"/><path class="f" d="m247.3 92.4c0-3.8 3.1-6.9 6.9-6.9h62.9c3.8 0 6.9 3.1 6.9 6.9v63c0 3.8-3.1 6.8-6.9 6.8h-62.9c-3.8 0-6.9-3-6.9-6.8z"/><path fill-rule="evenodd" class="n" d="m305.5 129.1c-0.4 1.4-0.9 2.8-1.6 4.1l1.9 4.1c-1.2 1.7-2.7 3.2-4.4 4.5l-4.2-2c-1.3 0.7-2.6 1.3-4.1 1.7l-1.5 4.3q-1.6 0.2-3.2 0.3-1.6-0.1-3.1-0.3l-1.6-4.3c-1.4-0.4-2.8-1-4-1.7l-4.2 2c-1.7-1.3-3.2-2.8-4.5-4.5l2-4.1c-0.7-1.3-1.3-2.7-1.7-4.1l-4.3-1.6q-0.2-1.5-0.3-3.1 0.1-1.6 0.3-3.2l4.3-1.5c0.4-1.5 1-2.8 1.7-4.1l-2-4.2c1.3-1.7 2.8-3.2 4.5-4.4l4.2 1.9c1.2-0.7 2.6-1.2 4-1.6l1.6-4.4q1.5-0.2 3.1-0.2 1.6 0 3.2 0.2l1.5 4.4c1.5 0.4 2.8 0.9 4.1 1.6l4.2-1.9c1.7 1.2 3.2 2.7 4.4 4.4l-1.9 4.2c0.7 1.3 1.2 2.6 1.6 4.1l4.4 1.5q0.2 1.6 0.2 3.2 0 1.6-0.2 3.1zm-5.8-4.7c0-6.2-5.1-11.3-11.3-11.3-6.3 0-11.4 5.1-11.4 11.3 0 6.3 5.1 11.4 11.4 11.4 6.2 0 11.3-5.1 11.3-11.4z"/><path class="e" d="m207.5 174.9c0-3.8 3.1-6.9 6.9-6.9h62.9c3.8 0 6.9 3.1 6.9 6.9v63c0 3.8-3.1 6.9-6.9 6.9h-62.9c-3.8 0-6.9-3.1-6.9-6.9z"/><path class="h" d="m204.7 174.9c0-3.8 3.1-6.9 6.9-6.9h62.9c3.8 0 6.9 3.1 6.9 6.9v63c0 3.8-3.1 6.9-6.9 6.9h-62.9c-3.8 0-6.9-3.1-6.9-6.9z"/><path fill-rule="evenodd" class="j" d="m266.2 206.4c0 12-9.7 21.7-21.7 21.7-12 0-21.7-9.7-21.7-21.7 0-11.9 9.7-21.6 21.7-21.6 12 0 21.7 9.7 21.7 21.6zm-34.3 0c0 7 5.7 12.6 12.6 12.6 7 0 12.6-5.6 12.6-12.6 0-6.9-5.6-12.6-12.6-12.6-6.9 0-12.6 5.7-12.6 12.6z"/><path fill-rule="evenodd" class="k" d="m244.2 188.9q0.2 0 0.5 0 0.2 0 0.5 0v0.8q-0.3 0-0.5 0-0.3 0-0.5 0zm-2 0.1q0.5 0 1-0.1l0.1 0.8q-0.5 0-1 0.1zm4.1-0.1q0.5 0 1.1 0.1l-0.2 0.8q-0.5-0.1-1-0.2zm-6 0.5q0.5-0.1 1-0.2l0.1 0.7q-0.5 0.1-0.9 0.3zm8.1-0.2q0.5 0.1 1.1 0.2l-0.2 0.8q-0.5-0.2-1-0.3zm-10.1 0.8q0.5-0.2 1-0.3l0.2 0.7q-0.5 0.1-0.9 0.3zm12.1-0.2q0.5 0.2 1 0.4l-0.3 0.7q-0.5-0.2-1-0.4zm-13.9 1q0.5-0.2 0.9-0.4l0.3 0.7q-0.4 0.2-0.8 0.4zm15.9-0.2q0.4 0.2 0.9 0.5l-0.4 0.6q-0.4-0.2-0.9-0.4zm-17.6 1.2q0.4-0.3 0.9-0.6l0.3 0.7q-0.4 0.2-0.8 0.5zm19.5-0.2q0.5 0.3 0.9 0.6l-0.4 0.6q-0.5-0.3-0.9-0.5zm-21.1 1.3q0.4-0.3 0.8-0.6l0.5 0.6q-0.4 0.3-0.8 0.6zm22.8-0.1q0.4 0.3 0.8 0.7l-0.5 0.5q-0.4-0.3-0.8-0.6zm3.4 3.8c-0.1 0.2-0.3 0.3-0.5 0.3l-3.3-0.6c-0.2-0.1-0.4-0.2-0.3-0.4 0-0.3 0.2-0.4 0.4-0.4l3 0.6 0.5-3c0-0.2 0.2-0.3 0.4-0.3 0.2 0 0.4 0.2 0.3 0.4zm-27.5-2.3q0.3-0.3 0.7-0.7l0.5 0.6q-0.3 0.3-0.7 0.6zm25.8 0q0.4 0.4 0.7 0.8l-0.5 0.5q-0.4-0.4-0.7-0.8zm-27.1 1.6q0.3-0.4 0.6-0.8l0.6 0.5q-0.3 0.4-0.6 0.7zm-1.1 1.7q0.2-0.4 0.5-0.9l0.6 0.5q-0.2 0.4-0.5 0.8zm-0.9 1.7q0.2-0.4 0.5-0.9l0.6 0.4q-0.2 0.4-0.4 0.8zm-0.7 1.9q0.1-0.5 0.3-0.9l0.7 0.2q-0.1 0.5-0.3 0.9zm-0.5 2q0.1-0.5 0.2-1l0.8 0.2q-0.2 0.4-0.3 0.9zm-0.2 2q0-0.5 0.1-1l0.7 0.1q0 0.5-0.1 1zm0 1.4q0-0.2 0-0.5l0.7 0.1q0 0.2 0 0.4 0 0.3 0 0.5h-0.7q0-0.2 0-0.5zm35.5 0q0 0.3 0 0.5h-0.7q0-0.2 0-0.5zm-35.4 2.5q-0.1-0.5-0.1-1h0.7q0.1 0.5 0.1 0.9zm35.3-1q0 0.5-0.1 1l-0.7-0.1q0.1-0.4 0.1-0.9zm-34.9 2.9q-0.2-0.5-0.3-0.9l0.8-0.2q0.1 0.5 0.2 0.9zm34.6-0.9q-0.1 0.5-0.2 0.9l-0.7-0.2q0.1-0.4 0.2-0.9zm-0.5 1.9q-0.1 0.5-0.3 1l-0.7-0.3q0.2-0.4 0.3-0.9zm-33.6 1q-0.1-0.5-0.3-1l0.7-0.2q0.2 0.5 0.3 0.9zm0.9 1.8q-0.3-0.4-0.5-0.9l0.7-0.3q0.2 0.4 0.4 0.9zm32.1-0.9q-0.3 0.4-0.5 0.9l-0.6-0.4q0.2-0.4 0.4-0.8zm-31 2.6q-0.3-0.4-0.6-0.9l0.7-0.3q0.2 0.4 0.5 0.8zm30.1-0.9q-0.3 0.4-0.6 0.9l-0.6-0.5q0.3-0.4 0.5-0.8zm-28.9 2.5q-0.3-0.4-0.6-0.8l0.6-0.5q0.3 0.4 0.6 0.8zm27.8-0.8q-0.3 0.4-0.6 0.8l-0.6-0.5q0.3-0.4 0.6-0.7zm-1.3 1.5q-0.3 0.3-0.7 0.7l-0.5-0.6q0.3-0.3 0.7-0.6zm-25.2 0.7q-0.3-0.4-0.7-0.7l0.6-0.6q0.3 0.4 0.6 0.7zm23.7 0.7q-0.4 0.3-0.7 0.6l-0.5-0.6q0.4-0.3 0.7-0.6zm-22.1 0.6q-0.4-0.3-0.8-0.6l0.5-0.6q0.4 0.3 0.7 0.6zm1.7 1.1q-0.4-0.2-0.9-0.5l0.5-0.6q0.4 0.3 0.8 0.5zm18.9-0.5q-0.4 0.2-0.9 0.5l-0.3-0.6q0.4-0.3 0.8-0.6zm-17.2 1.5q-0.4-0.2-0.9-0.4l0.4-0.7q0.4 0.2 0.8 0.4zm15.5-0.4q-0.5 0.2-0.9 0.4l-0.3-0.7q0.4-0.2 0.8-0.4zm-13.5 1.1q-0.5-0.1-1-0.3l0.3-0.7q0.4 0.2 0.9 0.3zm11.7-0.3q-0.4 0.2-0.9 0.3l-0.2-0.7q0.4-0.1 0.9-0.3zm-9.9 0.8q-0.4-0.1-0.9-0.2l0.2-0.7q0.4 0.1 0.9 0.2zm7.9-0.2q-0.5 0.1-1 0.2l-0.1-0.7q0.5-0.1 0.9-0.3zm-5.9 0.5q-0.5 0-1-0.1l0.1-0.7q0.5 0.1 0.9 0.1zm4-0.1q-0.5 0.1-1 0.1v-0.8q0.4 0 0.9-0.1zm-2.5 0.2q-0.2 0-0.5 0l0.1-0.7q0.2 0 0.4 0 0.3 0 0.5 0v0.7q-0.2 0-0.5 0z"/><path class="e" d="m79.8 257.4c0-3.8 3.1-6.9 6.9-6.9h62.9c3.8 0 6.9 3.1 6.9 6.9v63c0 3.8-3.1 6.9-6.9 6.9h-62.9c-3.8 0-6.9-3.1-6.9-6.9z"/><path class="h" d="m77 257.4c0-3.8 3.1-6.9 6.9-6.9h62.9c3.8 0 6.9 3.1 6.9 6.9v63c0 3.8-3.1 6.9-6.9 6.9h-62.9c-3.8 0-6.9-3.1-6.9-6.9z"/><path class="o" d="m103.2 279.5c0-7 5.7-12.8 12.8-12.8 7.1 0 12.8 5.7 12.8 12.8v17.8c0 7-5.7 12.8-12.8 12.8-7 0-12.8-5.7-12.8-12.8z"/><path fill-rule="evenodd" class="k" d="m116.6 295.7v1.5h-1.1v-1.5c-2.6-0.2-4.5-1.9-4.5-4.5h1.3c0 1.8 1.2 3.1 3.2 3.3v-6.1c-2-0.5-4-1.1-4.1-3.9 0-2 1.5-3.6 4-3.8v-1.1h1.1v1.1c2.1 0.2 4.2 1.4 4.2 4.1h-1.3c0-1.7-1.2-2.8-2.9-3v5.6c2.2 0.6 4.5 1.2 4.5 4.3 0.1 2.1-1.5 3.8-4.4 4zm-1.1-8.6v-5.3c-1.9 0.2-2.8 1.4-2.8 2.7 0 1.6 1.3 2.2 2.8 2.6zm4.3 4.6c-0.1-2-1.5-2.6-3.2-3v5.8c1.9-0.1 3.2-1.2 3.2-2.8z"/><path class="e" d="m164.9 257.9c0-3.8 3.1-6.9 6.9-6.9h63c3.8 0 6.9 3.1 6.9 6.9v62.9c0 3.8-3.1 6.9-6.9 6.9h-63c-3.8 0-6.9-3.1-6.9-6.9z"/><path class="j" d="m162.2 257.9c0-3.8 3-6.9 6.9-6.9h62.9c3.8 0 6.9 3.1 6.9 6.9v62.9c0 3.8-3.1 6.9-6.9 6.9h-62.9c-3.9 0-6.9-3.1-6.9-6.9z"/><path fill-rule="evenodd" class="p" d="m217.3 284.2c0 12.4-12.4 24.6-15.3 27.3-0.4 0.3-0.9 0.3-1.2 0-2.9-2.7-15.3-15-15.3-27.3 0-8.7 7.1-15.8 15.9-15.8 8.7 0 15.9 7.1 15.9 15.8zm-7.8-0.1c0-4.5-3.6-8.2-8.2-8.2-4.4 0-8.1 3.7-8.1 8.2 0 4.4 3.7 8.1 8.2 8.1 4.5 0 8.1-3.7 8.1-8.1z"/><path class="e" d="m207.8 9.9c0-3.8 3.1-6.9 6.9-6.9h62.9c3.8 0 6.9 3.1 6.9 6.9v62.9c0 3.8-3.1 6.9-6.9 6.9h-62.9c-3.8 0-6.9-3.1-6.9-6.9z"/><path class="h" d="m205 9.9c0-3.8 3.1-6.9 6.9-6.9h62.9c3.8 0 6.9 3.1 6.9 6.9v62.9c0 3.8-3.1 6.9-6.9 6.9h-62.9c-3.8 0-6.9-3.1-6.9-6.9z"/><path fill-rule="evenodd" class="q" d="m252.6 49.8q-1.8-0.8-3.9-1.3 0.5-0.1 0.9-0.3c2.4-1.1 4.5-3 5.7-5.4 1.3-2.4 1.7-5.1 1.3-7.8-0.4-2.7-1.7-5.1-3.7-7-2-1.8-4.5-3-7.1-3.2-2.7-0.3-5.4 0.3-7.7 1.7-2.3 1.4-4.1 3.6-5 6.1-1 2.5-1.1 5.3-0.4 7.9 0.8 2.6 2.4 4.8 4.6 6.4q0.1 0.1 0.1 0.1 1.3 1 2.9 1.5c-4.7 1-8.8 3.7-11.6 7.5-2.9-3-4.9-6.9-5.7-11.1-0.8-4.2-0.3-8.5 1.4-12.4 1.6-3.9 4.4-7.3 7.9-9.6 3.5-2.4 7.7-3.7 11.9-3.7 4.2 0 8.4 1.2 11.9 3.5 3.6 2.3 6.4 5.6 8.1 9.5 1.7 3.9 2.2 8.2 1.5 12.4-0.7 4.2-2.6 8.1-5.5 11.2-2-2.6-4.6-4.6-7.6-6z"/><path class="r" d="m244.2 62.6c-3-0.1-5.8-0.7-8.5-1.8-2.7-1.2-5.1-2.8-7.1-4.9 2.8-3.9 7-6.5 11.7-7.5q-1.6-0.6-2.9-1.6-0.1 0-0.2 0c-2.2-1.6-3.8-3.9-4.5-6.5-0.8-2.6-0.7-5.4 0.3-7.9 1-2.5 2.8-4.7 5.1-6.1 2.3-1.4 5-2 7.7-1.7 2.7 0.3 5.3 1.4 7.3 3.3 1.9 1.8 3.3 4.3 3.7 6.9 0.4 2.7 0 5.4-1.3 7.8-1.3 2.4-3.3 4.3-5.8 5.4q-0.4 0.2-0.8 0.4 2 0.4 3.9 1.3c3 1.3 5.6 3.4 7.6 6-2.1 2.2-4.6 3.9-7.4 5.1-2.8 1.2-5.8 1.8-8.8 1.8z"/><path class="e" d="m311.3 146.9c0-3.8 3.1-6.9 6.9-6.9h62.9c3.8 0 6.9 3.1 6.9 6.9v62.9c0 3.8-3.1 6.9-6.9 6.9h-62.9c-3.8 0-6.9-3.1-6.9-6.9z"/><path class="j" d="m308.5 146.9c0-3.8 3.1-6.9 6.9-6.9h62.9c3.8 0 6.9 3.1 6.9 6.9v62.9c0 3.8-3.1 6.9-6.9 6.9h-62.9c-3.8 0-6.9-3.1-6.9-6.9z"/><path fill-rule="evenodd" class="k" d="m355 157.5h-15.6v13.9h-13.9v15.6h13.9v13.9h15.6v-13.9h13.9v-15.6h-13.9z"/><path class="s" d="m339.4 157.5v-0.6h-0.6v0.6zm15.6 0h0.6v-0.6h-0.6zm-15.6 13.9v0.6h0.6v-0.6zm-13.9 0v-0.6h-0.6v0.6zm0 15.6h-0.6v0.6h0.6zm13.9 0h0.6v-0.6h-0.6zm0 13.9h-0.6v0.6h0.6zm15.6 0v0.6h0.6v-0.6zm0-13.9v-0.6h-0.6v0.6zm13.9 0v0.6h0.6v-0.6zm0-15.6h0.6v-0.6h-0.6zm-13.9 0h-0.6v0.6h0.6zm-15.6-13.2h15.6v-1.3h-15.6zm0.7 13.3v-13.9h-1.3v13.9zm-14.5 0.6h13.9v-1.2h-13.9zm0.6 14.9v-15.6h-1.2v15.6zm13.2-0.6h-13.9v1.2h13.9zm0.7 14.6v-13.9h-1.3v13.9zm15-0.7h-15.6v1.3h15.6zm-0.7-13.3v13.9h1.3v-13.9zm14.5-0.6h-13.9v1.2h13.9zm-0.6-14.9v15.6h1.2v-15.6zm-13.2 0.6h13.9v-1.2h-13.9zm-0.7-14.6v13.9h1.3v-13.9z"/><path class="t" d="m375.7 186.8l34.4-46.3 3.6 19.9 24.9-12.7 4.9 10.3-24.9 12.9 13.9 15.1z"/><path class="e" d="m377.8 252.7c20.6 0 37.3 16.7 37.3 37.3 0 20.6-16.7 37.3-37.3 37.3h-89.2c-20.6 0-37.3-16.7-37.3-37.3 0-20.6 16.7-37.3 37.3-37.3z"/><path class="f" d="m375.7 250.6c20.6 0 37.3 16.7 37.3 37.3 0 20.6-16.7 37.3-37.3 37.3h-89.5c-20.6 0-37.3-16.7-37.3-37.3 0-20.6 16.7-37.3 37.3-37.3z"/><path class="j" d="m389 318.3c-17 7.1-36.5-1-43.6-18.1-7.1-17 1.1-36.6 18.1-43.6 17.1-7.1 36.6 1 43.6 18.1 7.1 17-1 36.6-18.1 43.6z"/><path class="p" d="m376.3 309.9c12.4 0 22.5-10 22.5-22.5 0-12.4-10.1-22.5-22.5-22.5-12.5 0-22.5 10.1-22.5 22.5 0 12.5 10 22.5 22.5 22.5z"/><path class="u" d="m376.4 264.9l-0.2 45"/><path class="u" d="m376.4 264.9c-15.9 8-16 36.8-0.2 45"/><path class="u" d="m376.1 264.9c15.9 8 16 36.8 0.2 45"/><path class="u" d="m398.8 287.6l-45-0.3"/><path class="u" d="m355.2 295.4l42.4 0.3"/><path class="u" d="m360.5 303.5l31.5 0.2"/><path class="u" d="m355.3 279.3l42.4 0.2"/><path class="u" d="m360.7 271.3l31.5 0.2"/></svg>