<svg id="Layer_1" data-name="Layer 1" xmlns="http://www.w3.org/2000/svg" xmlns:xlink="http://www.w3.org/1999/xlink" viewBox="0 0 500 500"><defs><style>.cls-1,.cls-22,.cls-32,.cls-33,.cls-4,.cls-6,.cls-9{fill:none;}.cls-2,.cls-30{fill:#bd80ff;}.cls-13,.cls-20,.cls-3,.cls-8{fill:#fff;}.cls-10,.cls-11,.cls-12,.cls-13,.cls-14,.cls-19,.cls-20,.cls-21,.cls-22,.cls-23,.cls-24,.cls-25,.cls-26,.cls-27,.cls-30,.cls-31,.cls-32,.cls-33,.cls-4,.cls-6,.cls-8,.cls-9{stroke:#000;}.cls-11,.cls-12,.cls-13,.cls-14,.cls-19,.cls-20,.cls-21,.cls-22,.cls-23,.cls-24,.cls-25,.cls-26,.cls-27,.cls-30,.cls-33,.cls-4,.cls-9{stroke-width:1.13px;}.cls-10,.cls-12,.cls-5{fill:#fcee70;}.cls-10,.cls-12,.cls-13,.cls-14,.cls-19,.cls-21,.cls-27,.cls-30,.cls-31,.cls-33,.cls-6,.cls-8{stroke-miterlimit:10;}.cls-26,.cls-27,.cls-7{fill:#d7b3ff;}.cls-9{stroke-linecap:round;}.cls-11,.cls-20,.cls-22,.cls-23,.cls-24,.cls-25,.cls-26,.cls-32,.cls-9{stroke-linejoin:round;}.cls-11,.cls-14,.cls-29{fill:#7304e2;}.cls-15{clip-path:url(#clip-path);}.cls-16{clip-path:url(#clip-path-2);}.cls-17{clip-path:url(#clip-path-3);}.cls-18{clip-path:url(#clip-path-4);}.cls-21{fill:#f78400;}.cls-23{fill:#85ed73;}.cls-24{fill:#64b256;}.cls-25{fill:#cef8c7;}.cls-28{opacity:0.5;}.cls-31{stroke-width:1.12px;}</style><clipPath id="clip-path"><path class="cls-1" d="M241.35,75.54s15.53,33.77,15.53,115.93c0,21.72.81,57.79.81,57.79H225s.81-36.07.81-57.79C225.81,108.91,241.35,75.54,241.35,75.54Z"/></clipPath><clipPath id="clip-path-2"><path class="cls-1" d="M270.87,56.81s15.54,33.77,15.54,115.94c0,21.71.8,57.78.8,57.78H254.52s.81-36.07.81-57.78C255.33,90.18,270.87,56.81,270.87,56.81Z"/></clipPath><clipPath id="clip-path-3"><path class="cls-1" d="M349.47,75.54s-15.54,33.77-15.54,115.93c0,21.72-.8,57.79-.8,57.79h32.69s-.81-36.07-.81-57.79C365,108.91,349.47,75.54,349.47,75.54Z"/></clipPath><clipPath id="clip-path-4"><path class="cls-1" d="M320,56.81s-15.54,33.77-15.54,115.94c0,21.71-.81,57.78-.81,57.78h32.69s-.8-36.07-.8-57.78C335.49,90.18,320,56.81,320,56.81Z"/></clipPath></defs><rect class="cls-2" x="-5.23" y="-5.23" width="510.46" height="510.46"/><path class="cls-3" d="M176.57,370.37a8,8,0,0,0-3.22-5.8,11.62,11.62,0,0,0-7.18-2.15,12.85,12.85,0,0,0-5.36,1.05,8.64,8.64,0,0,0-3.62,2.88,7.09,7.09,0,0,0-1.31,4.19,6,6,0,0,0,.75,3,7.06,7.06,0,0,0,2,2.22,13.93,13.93,0,0,0,2.81,1.59,26.4,26.4,0,0,0,3.12,1.11l4.61,1.32a31.44,31.44,0,0,1,4.17,1.47,17.21,17.21,0,0,1,3.83,2.25,10.59,10.59,0,0,1,2.79,3.3,9.74,9.74,0,0,1,1.05,4.68,11.25,11.25,0,0,1-1.81,6.28,12.41,12.41,0,0,1-5.2,4.42,21,21,0,0,1-15.85.15,12.48,12.48,0,0,1-5.16-4.1,11.6,11.6,0,0,1-2.11-6.07H155a7.66,7.66,0,0,0,1.71,4.37,9.35,9.35,0,0,0,3.88,2.71,15.79,15.79,0,0,0,11.13-.17,9.54,9.54,0,0,0,4-3.07,7.51,7.51,0,0,0,1.46-4.59,5.94,5.94,0,0,0-1.16-3.72,8.89,8.89,0,0,0-3.2-2.52,28.57,28.57,0,0,0-4.76-1.81l-5.22-1.54a19.26,19.26,0,0,1-8-4.24,9.12,9.12,0,0,1-2.84-6.9,10.46,10.46,0,0,1,1.89-6.19,12.74,12.74,0,0,1,5.11-4.18,17,17,0,0,1,7.26-1.5,16.63,16.63,0,0,1,7.2,1.49,12.6,12.6,0,0,1,5,4.11,10.79,10.79,0,0,1,2,5.93Z"/><path class="cls-3" d="M196.63,403.1V359.46h14.08a15.45,15.45,0,0,1,7.77,1.78,11.71,11.71,0,0,1,4.71,4.83,14.58,14.58,0,0,1,1.59,6.86,14.79,14.79,0,0,1-1.58,6.87,11.54,11.54,0,0,1-4.69,4.83,15.32,15.32,0,0,1-7.73,1.78H199.7v-3.58h11a11.35,11.35,0,0,0,5.69-1.29,8.19,8.19,0,0,0,3.38-3.52,12.15,12.15,0,0,0,0-10.19,8.19,8.19,0,0,0-3.39-3.51,11.61,11.61,0,0,0-5.74-1.28h-10V403.1Z"/><path class="cls-3" d="M240.21,403.1H236l15.87-43.64h4.26l15.88,43.64h-4.18l-13.68-38.46h-.3Zm3-16.73h21.65V390H243.22Z"/><path class="cls-3" d="M289.51,359.46V403.1h-4V359.46Z"/><path class="cls-3" d="M341.08,359.46V403.1h-3.87l-25.78-36.54h-.34V403.1h-4V359.46H311L336.82,396h.34V359.46Z"/><rect class="cls-4" x="74.72" y="342.87" width="349.8" height="83.25"/><polygon class="cls-5" points="167.44 342.94 167.44 307.5 181.49 292.03 195.53 307.5 195.53 342.94 167.44 342.94"/><path d="M181.49,292.78,195,307.69v34.75H167.94V307.69l13.55-14.91m0-1.49-14.55,16v36.13H196V307.31l-14.54-16Z"/><line class="cls-6" x1="181.49" y1="282.12" x2="181.49" y2="291.29"/><path class="cls-7" d="M97.43,342.14a1.75,1.75,0,0,1,0-3.49h69.62a1.75,1.75,0,1,1,0,3.49Z"/><path d="M167.05,339.21a1.19,1.19,0,0,1,0,2.37H97.43a1.19,1.19,0,0,1,0-2.37h69.62m0-1.12H97.43a2.31,2.31,0,1,0,0,4.61h69.62a2.31,2.31,0,1,0,0-4.61Z"/><path class="cls-8" d="M314.45,86.72h20.14a11.77,11.77,0,0,1,11.68-10.34h15.79A11.76,11.76,0,0,1,373.74,66h18A11.76,11.76,0,0,1,403.5,77.8v8.92h11.27a11.76,11.76,0,0,1,11.76,11.77v2.26H302.68V98.49a11.77,11.77,0,0,1,11.77-11.77"/><path class="cls-9" d="M314.45,86.72h20.14a11.77,11.77,0,0,1,11.68-10.34h15.79A11.76,11.76,0,0,1,373.74,66h18A11.76,11.76,0,0,1,403.5,77.8v8.92h11.27a11.76,11.76,0,0,1,11.76,11.77v2.26H302.68V98.49A11.77,11.77,0,0,1,314.45,86.72Z"/><line class="cls-8" x1="334.59" y1="86.72" x2="346.85" y2="86.72"/><line class="cls-9" x1="334.59" y1="86.72" x2="346.85" y2="86.72"/><line class="cls-8" x1="362.06" y1="76.38" x2="377.65" y2="76.38"/><line class="cls-9" x1="362.06" y1="76.38" x2="377.65" y2="76.38"/><line class="cls-8" x1="403.5" y1="86.72" x2="389.6" y2="86.72"/><line class="cls-9" x1="403.5" y1="86.72" x2="389.6" y2="86.72"/><polygon class="cls-10" points="424.63 343.04 395.54 343.04 395.54 306.9 410.08 290.89 424.63 306.9 424.63 343.04"/><line class="cls-6" x1="410.08" y1="281.72" x2="410.08" y2="290.89"/><ellipse class="cls-11" cx="295.5" cy="205.66" rx="9.04" ry="21.3"/><path class="cls-12" d="M285.1,148.43v15.9h1.26a9,9,0,0,1,17.87,0h1.25v-15.9Z"/><path class="cls-12" d="M241.35,75.54s15.53,33.77,15.53,115.93c0,21.72.81,57.79.81,57.79H225s.81-36.07.81-57.79C225.81,108.91,241.35,75.54,241.35,75.54Z"/><polygon class="cls-13" points="230.23 107.59 241.35 72.25 252.46 107.59 230.23 107.59"/><rect class="cls-12" x="238.25" y="70.07" width="6.26" height="12.25"/><circle class="cls-14" cx="241.44" cy="71.13" r="7.54"/><rect x="230.23" y="199.79" width="3.66" height="27.17" rx="1.83"/><rect x="238.27" y="195.03" width="3.66" height="27.17" rx="1.83"/><rect x="246.3" y="189.51" width="3.66" height="27.17" rx="1.83"/><g class="cls-15"><path d="M234.39,110.88a1,1,0,0,1-.95-1,1,1,0,0,1,.28-.67,1,1,0,0,1,1.35,0,1,1,0,0,1,.28.67,1,1,0,0,1-.28.68A1,1,0,0,1,234.39,110.88Z"/><path d="M233.44,165.75a1,1,0,0,1,.95-.95h0a1,1,0,0,1,1,.95h0a1,1,0,0,1-1,1h0A1,1,0,0,1,233.44,165.75Zm0-8a1,1,0,0,1,.95-1h0a1,1,0,0,1,1,1h0a1,1,0,0,1-1,.95h0A1,1,0,0,1,233.44,157.78Zm0-8a1,1,0,0,1,.95-1h0a1,1,0,0,1,1,1h0a1,1,0,0,1-1,.95h0A1,1,0,0,1,233.44,149.8Zm0-8a1,1,0,0,1,.95-1h0a1,1,0,0,1,1,1h0a1,1,0,0,1-1,1h0A1,1,0,0,1,233.44,141.82Zm0-8a1,1,0,0,1,.95-1h0a1,1,0,0,1,1,1h0a1,1,0,0,1-1,1h0A1,1,0,0,1,233.44,133.85Zm0-8a1,1,0,0,1,.95-1h0a1,1,0,0,1,1,1h0a1,1,0,0,1-1,.95h0A1,1,0,0,1,233.44,125.87Zm0-8a1,1,0,0,1,.95-1h0a1,1,0,0,1,1,1h0a1,1,0,0,1-1,1h0A1,1,0,0,1,233.44,117.9Z"/><path d="M234.39,174.68a1,1,0,0,1-.67-.28,1,1,0,0,1-.28-.68,1,1,0,0,1,1.15-.93l.18.05.16.09.14.12a1,1,0,0,1,0,1.35A1,1,0,0,1,234.39,174.68Z"/><path d="M239,110.88a1,1,0,0,1-.67-.29.78.78,0,0,1-.21-.3.94.94,0,0,1-.07-.37.91.91,0,0,1,.28-.67.92.92,0,0,1,.85-.26l.19.05a.65.65,0,0,1,.16.09.41.41,0,0,1,.14.12,1,1,0,0,1,.29.67,1,1,0,0,1-.08.37.78.78,0,0,1-.21.3.58.58,0,0,1-.14.13l-.16.08a.6.6,0,0,1-.19.06Z"/><path d="M238.08,165.75a.94.94,0,0,1,.95-.95h0a1,1,0,0,1,1,.95h0a1,1,0,0,1-1,1h0A1,1,0,0,1,238.08,165.75Zm0-8a1,1,0,0,1,.95-1h0a1,1,0,0,1,1,1h0a1,1,0,0,1-1,.95h0A1,1,0,0,1,238.08,157.78Zm0-8a1,1,0,0,1,.95-1h0a1,1,0,0,1,1,1h0a1,1,0,0,1-1,.95h0A.94.94,0,0,1,238.08,149.8Zm0-8a.94.94,0,0,1,.95-.95h0a1,1,0,0,1,1,.95h0a1,1,0,0,1-1,1h0A1,1,0,0,1,238.08,141.82Zm0-8a1,1,0,0,1,.95-1h0a1,1,0,0,1,1,1h0a1,1,0,0,1-1,1h0A1,1,0,0,1,238.08,133.85Zm0-8a1,1,0,0,1,.95-1h0a1,1,0,0,1,1,1h0a1,1,0,0,1-1,.95h0A.94.94,0,0,1,238.08,125.87Zm0-8a.94.94,0,0,1,.95-1h0a1,1,0,0,1,1,1h0a1,1,0,0,1-1,.95h0A.94.94,0,0,1,238.08,117.9Z"/><path d="M239,174.68a1,1,0,0,1-.67-.28,1,1,0,0,1,0-1.35.94.94,0,0,1,.85-.26l.19.05.16.09a.87.87,0,0,1,.14.12,1,1,0,0,1,.29.67.94.94,0,0,1-.29.68.9.9,0,0,1-.3.21l-.19,0A.52.52,0,0,1,239,174.68Z"/><path d="M243.66,110.88a.9.9,0,0,1-.36-.08.92.92,0,0,1-.31-.2,1,1,0,0,1-.28-.68,1.15,1.15,0,0,1,.07-.36.85.85,0,0,1,.21-.31.79.79,0,0,1,.31-.2.94.94,0,0,1,1,.2,1.2,1.2,0,0,1,.21.31.92.92,0,0,1,.07.36,1,1,0,0,1-.28.68l-.14.12-.18.08a.49.49,0,0,1-.17.06Z"/><path d="M242.71,157.78a1,1,0,0,1,.95-.95h0a1,1,0,0,1,1,.95h0a1,1,0,0,1-1,1h0A1,1,0,0,1,242.71,157.78Zm0-8a1,1,0,0,1,.95-1h0a1,1,0,0,1,1,1h0a1,1,0,0,1-1,.95h0A1,1,0,0,1,242.71,149.81Zm0-8a1,1,0,0,1,.95-1h0a1,1,0,0,1,1,1h0a1,1,0,0,1-1,.95h0A1,1,0,0,1,242.71,141.83Zm0-8a1,1,0,0,1,.95-1h0a1,1,0,0,1,1,1h0a1,1,0,0,1-1,1h0A1,1,0,0,1,242.71,133.85Zm0-8a1,1,0,0,1,.95-1h0a1,1,0,0,1,1,1h0a1,1,0,0,1-1,.94h0A1,1,0,0,1,242.71,125.88Zm0-8a1,1,0,0,1,.95-1h0a1,1,0,0,1,1,1h0a1,1,0,0,1-1,1h0A1,1,0,0,1,242.71,117.9Z"/><path d="M243.66,166.72a.9.9,0,0,1-.36-.08.81.81,0,0,1-.31-.21.87.87,0,0,1-.12-.14.65.65,0,0,1-.09-.16.59.59,0,0,1-.05-.19,1,1,0,0,1,0-.18,1,1,0,0,1,.28-.67.81.81,0,0,1,.31-.21,1,1,0,0,1,1,.21,1.34,1.34,0,0,1,.21.3,1,1,0,0,1,.07.37,1,1,0,0,1-.28.67A1,1,0,0,1,243.66,166.72Z"/><path d="M248.3,110.88l-.19,0a.55.55,0,0,1-.18-.06l-.17-.08-.14-.12a1.3,1.3,0,0,1-.21-.31.93.93,0,0,1-.06-.37,1,1,0,0,1,.27-.67l.14-.12a.38.38,0,0,1,.17-.08.55.55,0,0,1,.18-.06.77.77,0,0,1,.37,0,.48.48,0,0,1,.18.06.3.3,0,0,1,.16.08.61.61,0,0,1,.15.12,1,1,0,0,1,.28.67.94.94,0,0,1-.07.37,1.06,1.06,0,0,1-.21.31l-.15.12a.6.6,0,0,1-.16.08.48.48,0,0,1-.18.06Z"/><path d="M247.35,157.78a.94.94,0,0,1,1-.95h0a1,1,0,0,1,.95.95h0a1,1,0,0,1-.95,1h0A1,1,0,0,1,247.35,157.78Zm0-8a1,1,0,0,1,1-1h0a1,1,0,0,1,.95,1h0a1,1,0,0,1-.95.95h0A.94.94,0,0,1,247.35,149.81Zm0-8a1,1,0,0,1,1-1h0a1,1,0,0,1,.95,1h0a1,1,0,0,1-.95.95h0A.94.94,0,0,1,247.35,141.83Zm0-8a1,1,0,0,1,1-1h0a1,1,0,0,1,.95,1h0a1,1,0,0,1-.95,1h0A.94.94,0,0,1,247.35,133.85Zm0-8a1,1,0,0,1,1-1h0a1,1,0,0,1,.95,1h0a1,1,0,0,1-.95.94h0A.93.93,0,0,1,247.35,125.88Zm0-8a.94.94,0,0,1,1-1h0a1,1,0,0,1,.95,1h0a1,1,0,0,1-.95,1h0A1,1,0,0,1,247.35,117.9Z"/><path d="M248.3,166.72l-.19,0a1,1,0,0,1-.18-.06l-.17-.08-.14-.13a1,1,0,0,1,0-1.34l.14-.13.17-.08.18,0a.77.77,0,0,1,.37,0l.18,0,.16.08a.64.64,0,0,1,.15.13,1,1,0,0,1,.28.67.93.93,0,0,1-.28.67.64.64,0,0,1-.15.13,1.19,1.19,0,0,1-.16.08.76.76,0,0,1-.18.06Z"/><path d="M252.93,110.88a.86.86,0,0,1-.36-.08.92.92,0,0,1-.31-.2.93.93,0,0,1,0-1.35.81.81,0,0,1,.31-.21.93.93,0,0,1,.55-.05l.18.05a.51.51,0,0,1,.16.09l.15.12a1,1,0,0,1,0,1.35l-.15.12a.8.8,0,0,1-.16.08l-.18.06Z"/><path d="M252,149.94a1,1,0,0,1,1-.95h0a1,1,0,0,1,.95.95h0a1,1,0,0,1-.95.95h0A1,1,0,0,1,252,149.94Zm0-8a1,1,0,0,1,1-.95h0a1,1,0,0,1,.95.95h0a1,1,0,0,1-.95,1h0A1,1,0,0,1,252,141.94Zm0-8a1,1,0,0,1,1-1h0a1,1,0,0,1,.95,1h0a1,1,0,0,1-.95.95h0A1,1,0,0,1,252,133.94Zm0-8a1,1,0,0,1,1-1h0a1,1,0,0,1,.95,1h0a1,1,0,0,1-.95.95h0A1,1,0,0,1,252,125.93Zm0-8a1,1,0,0,1,1-1h0a1,1,0,0,1,.95,1h0a1,1,0,0,1-.95.95h0A1,1,0,0,1,252,117.93Z"/><path d="M252.93,158.9a1,1,0,0,1-.36-.07,1,1,0,0,1-.31-.21A1,1,0,0,1,252,158a1,1,0,0,1,.08-.37.9.9,0,0,1,.21-.31.92.92,0,0,1,.31-.2.86.86,0,0,1,.55-.06l.18.06.16.08.15.12a1.69,1.69,0,0,1,.21.31,1.15,1.15,0,0,1,.06.37,1,1,0,0,1-.27.67l-.15.12a.51.51,0,0,1-.16.09l-.18,0Z"/><path d="M229.77,110.88a1,1,0,0,1-.68-.28,1,1,0,0,1-.28-.68A1,1,0,0,1,230,109l.18.05a.51.51,0,0,1,.16.09.33.33,0,0,1,.14.12.66.66,0,0,1,.21.31,1.77,1.77,0,0,1,.06.17,1.37,1.37,0,0,1,0,.19,1,1,0,0,1,0,.18,1.06,1.06,0,0,1-.06.19.72.72,0,0,1-.21.31.58.58,0,0,1-.14.12.8.8,0,0,1-.16.08.64.64,0,0,1-.18.06Z"/><path d="M228.81,174a1,1,0,0,1,1-1h0a1,1,0,0,1,.95,1h0a1,1,0,0,1-.95,1h0A1,1,0,0,1,228.81,174Zm0-8a1,1,0,0,1,1-1h0a1,1,0,0,1,.95,1h0a1,1,0,0,1-.95,1h0A1,1,0,0,1,228.81,166Zm0-8a1,1,0,0,1,1-1h0a1,1,0,0,1,.95,1h0a1,1,0,0,1-.95.95h0A1,1,0,0,1,228.81,158Zm0-8a1,1,0,0,1,1-1h0a1,1,0,0,1,.95,1h0a1,1,0,0,1-.95,1h0A1,1,0,0,1,228.81,150Zm0-8a1,1,0,0,1,1-.95h0a1,1,0,0,1,.95.95h0a1,1,0,0,1-.95,1h0A1,1,0,0,1,228.81,141.94Zm0-8a1,1,0,0,1,1-1h0a1,1,0,0,1,.95,1h0a1,1,0,0,1-.95.95h0A1,1,0,0,1,228.81,133.94Zm0-8a1,1,0,0,1,1-1h0a1,1,0,0,1,.95,1h0a1,1,0,0,1-.95,1h0A1,1,0,0,1,228.81,125.94Zm0-8a1,1,0,0,1,1-1h0a1,1,0,0,1,.95,1h0a1,1,0,0,1-.95.95h0A1,1,0,0,1,228.81,117.93Z"/><path d="M229.77,182.92a1,1,0,0,1-.68-.27.93.93,0,0,1-.28-.68.93.93,0,0,1,.28-.67A1,1,0,0,1,230,181l.18.06a.83.83,0,0,1,.16.09.33.33,0,0,1,.14.12.72.72,0,0,1,.21.31.76.76,0,0,1,.06.18,1,1,0,0,1,0,.18,1,1,0,0,1-.08.37.72.72,0,0,1-.21.31.57.57,0,0,1-.14.11l-.16.1-.18,0A.58.58,0,0,1,229.77,182.92Z"/></g><path class="cls-13" d="M270.87,56.81s15.54,33.77,15.54,115.94c0,21.71.8,57.78.8,57.78H254.52s.81-36.07.81-57.78C255.33,90.18,270.87,56.81,270.87,56.81Z"/><polygon class="cls-12" points="259.75 88.87 270.87 53.52 281.98 88.87 259.75 88.87"/><rect class="cls-12" x="267.78" y="51.34" width="6.26" height="12.25"/><circle class="cls-14" cx="270.96" cy="52.4" r="7.54"/><rect x="259.76" y="181.06" width="3.66" height="27.17" rx="1.83"/><rect x="267.79" y="176.3" width="3.66" height="27.17" rx="1.83"/><rect x="275.82" y="170.78" width="3.66" height="27.17" rx="1.83"/><g class="cls-16"><path d="M263.92,92.15l-.19,0-.18,0-.16-.09a.58.58,0,0,1-.14-.12.64.64,0,0,1-.13-.15,1.14,1.14,0,0,1-.09-.16c0-.06,0-.12,0-.18a.57.57,0,0,1,0-.18,1.11,1.11,0,0,1,.07-.37,1,1,0,0,1,.22-.31.33.33,0,0,1,.14-.12l.16-.09.18-.06a1,1,0,0,1,.86.27.75.75,0,0,1,.12.14l.09.17a.91.91,0,0,1,.08.37,1.1,1.1,0,0,1,0,.18l-.06.18a1,1,0,0,1-.21.31l-.14.12-.16.09-.19,0Z"/><path d="M263,147a.94.94,0,0,1,.95-1h0a1,1,0,0,1,1,1h0a1,1,0,0,1-1,.95h0A.94.94,0,0,1,263,147Zm0-8a.94.94,0,0,1,.95-1h0a1,1,0,0,1,1,1h0a1,1,0,0,1-1,.95h0A.94.94,0,0,1,263,139.05Zm0-8a1,1,0,0,1,.95-.95h0a1,1,0,0,1,1,.95h0a1,1,0,0,1-1,1h0A1,1,0,0,1,263,131.07Zm0-8a1,1,0,0,1,.95-1h0a1,1,0,0,1,1,1h0a1,1,0,0,1-1,1h0A1,1,0,0,1,263,123.09Zm0-8a.94.94,0,0,1,.95-1h0a1,1,0,0,1,1,1h0a1,1,0,0,1-1,1h0A1,1,0,0,1,263,115.12Zm0-8a1,1,0,0,1,.95-1h0a1,1,0,0,1,1,1h0a1,1,0,0,1-1,.95h0A1,1,0,0,1,263,107.15Zm0-8a1,1,0,0,1,.95-1h0a1,1,0,0,1,1,1h0a1,1,0,0,1-1,1h0A1,1,0,0,1,263,99.17Z"/><path d="M263.92,156l-.19,0-.18-.05a.51.51,0,0,1-.16-.09.57.57,0,0,1-.14-.11,1.14,1.14,0,0,1-.22-.32A1.1,1.1,0,0,1,263,155a1,1,0,0,1,.07-.36,1.14,1.14,0,0,1,.22-.32.31.31,0,0,1,.14-.11.51.51,0,0,1,.16-.09.64.64,0,0,1,.18-.06,1,1,0,0,1,.86.26.93.93,0,0,1,.21.32.86.86,0,0,1,.08.36.9.9,0,0,1-.08.36l-.09.17a.79.79,0,0,1-.12.15A1,1,0,0,1,263.92,156Z"/><path d="M268.55,92.14a1.09,1.09,0,0,1-.36-.06,1.18,1.18,0,0,1-.32-.21l-.11-.15a.42.42,0,0,1-.09-.16.61.61,0,0,1-.05-.18,1.1,1.1,0,0,1,0-.18,1,1,0,0,1,.27-.68,1,1,0,0,1,1.36,0,1,1,0,0,1,.28.68,1.1,1.1,0,0,1,0,.18.64.64,0,0,1-.06.18.42.42,0,0,1-.09.16.83.83,0,0,1-.11.15A1,1,0,0,1,268.55,92.14Z"/><path d="M267.6,147a1,1,0,0,1,.95-1h0a1,1,0,0,1,1,1h0a1,1,0,0,1-1,.95h0A1,1,0,0,1,267.6,147Zm0-8a1,1,0,0,1,.95-1h0a1,1,0,0,1,1,1h0a1,1,0,0,1-1,.95h0A1,1,0,0,1,267.6,139.05Zm0-8a1,1,0,0,1,.95-.95h0a1,1,0,0,1,1,.95h0a1,1,0,0,1-1,1h0A1,1,0,0,1,267.6,131.07Zm0-8a1,1,0,0,1,.95-1h0a1,1,0,0,1,1,1h0a1,1,0,0,1-1,1h0A1,1,0,0,1,267.6,123.09Zm0-8a1,1,0,0,1,.95-1h0a1,1,0,0,1,1,1h0a1,1,0,0,1-1,.95h0A1,1,0,0,1,267.6,115.12Zm0-8a1,1,0,0,1,.95-1h0a1,1,0,0,1,1,1h0a1,1,0,0,1-1,.95h0A1,1,0,0,1,267.6,107.15Zm0-8a1,1,0,0,1,.95-1h0a1,1,0,0,1,1,1h0a1,1,0,0,1-1,1h0A1,1,0,0,1,267.6,99.17Z"/><path d="M268.55,156a.89.89,0,0,1-.36-.07,1.16,1.16,0,0,1-.32-.2,1,1,0,0,1-.27-.68.86.86,0,0,1,.07-.36,1.32,1.32,0,0,1,.2-.32,1,1,0,0,1,1.36,0,1.32,1.32,0,0,1,.2.32.73.73,0,0,1,.08.36,1,1,0,0,1-.28.68l-.14.11a.76.76,0,0,1-.18.09l-.18.05Z"/><path d="M273.18,92.15l-.18,0-.18,0-.17-.09-.14-.12a.93.93,0,0,1-.28-.68.89.89,0,0,1,.07-.36,1,1,0,0,1,.21-.31.53.53,0,0,1,.14-.12l.17-.09.18,0a.93.93,0,0,1,.55,0,1,1,0,0,1,.52.52.86.86,0,0,1,.07.36.9.9,0,0,1-.07.37,1,1,0,0,1-.21.31l-.15.12-.16.09A1.16,1.16,0,0,1,273.18,92.15Z"/><path d="M272.23,139.05a1,1,0,0,1,1-1h0a1,1,0,0,1,.95,1h0a1,1,0,0,1-.95,1h0A1,1,0,0,1,272.23,139.05Zm0-8a1,1,0,0,1,1-1h0a1,1,0,0,1,.95,1h0a1,1,0,0,1-.95,1h0A1,1,0,0,1,272.23,131.08Zm0-8a1,1,0,0,1,1-.95h0a1,1,0,0,1,.95.95h0a1,1,0,0,1-.95,1h0A1,1,0,0,1,272.23,123.1Zm0-8a1,1,0,0,1,1-1h0a1,1,0,0,1,.95,1h0a1,1,0,0,1-.95,1h0A1,1,0,0,1,272.23,115.12Zm0-8a1,1,0,0,1,1-1h0a1,1,0,0,1,.95,1h0a1,1,0,0,1-.95.95h0A1,1,0,0,1,272.23,107.15Zm0-8a1,1,0,0,1,1-1h0a1,1,0,0,1,.95,1h0a1,1,0,0,1-.95,1h0A1,1,0,0,1,272.23,99.17Z"/><path d="M273.18,148a.92.92,0,0,1-.67-.27,1,1,0,0,1-.28-.68c0-.06,0-.13,0-.18a1.89,1.89,0,0,1,.06-.18,1.13,1.13,0,0,1,.21-.31,1,1,0,0,1,1-.21,1,1,0,0,1,.31.21.81.81,0,0,1,.12.14l.09.17a.48.48,0,0,1,.05.18,1,1,0,0,1,0,.18,1,1,0,0,1-.28.68,1.13,1.13,0,0,1-.31.21A1.1,1.1,0,0,1,273.18,148Z"/><path d="M277.82,92.15a1,1,0,0,1-.36-.07l-.17-.09-.14-.12a.81.81,0,0,1-.21-.31.91.91,0,0,1-.08-.37,1,1,0,0,1,0-.18.55.55,0,0,1,.06-.18.56.56,0,0,1,.09-.17.75.75,0,0,1,.12-.14.53.53,0,0,1,.14-.12l.17-.09a1,1,0,0,1,1,.21l.11.14a.56.56,0,0,1,.09.17,1,1,0,0,1,.05.18,1,1,0,0,1,0,.18,1.16,1.16,0,0,1-.07.37,1.1,1.1,0,0,1-.2.31,1,1,0,0,1-.32.21A1.1,1.1,0,0,1,277.82,92.15Z"/><path d="M276.86,139.05a1,1,0,0,1,1-1h0a1,1,0,0,1,.95,1h0a1,1,0,0,1-.95.95h0A1,1,0,0,1,276.86,139.05Zm0-8a1,1,0,0,1,1-1h0a1,1,0,0,1,.95,1h0a1,1,0,0,1-.95,1h0A1,1,0,0,1,276.86,131.08Zm0-8a1,1,0,0,1,1-.95h0a1,1,0,0,1,.95.95h0a1,1,0,0,1-.95,1h0A1,1,0,0,1,276.86,123.1Zm0-8a1,1,0,0,1,1-1h0a1,1,0,0,1,.95,1h0a1,1,0,0,1-.95,1h0A1,1,0,0,1,276.86,115.12Zm0-8a1,1,0,0,1,1-1h0a1,1,0,0,1,.95,1h0a1,1,0,0,1-.95.95h0A1,1,0,0,1,276.86,107.15Zm0-8a1,1,0,0,1,1-1h0a1,1,0,0,1,.95,1h0a1,1,0,0,1-.95,1h0A1,1,0,0,1,276.86,99.17Z"/><path d="M277.82,148a1,1,0,0,1-.36-.06,1,1,0,0,1-.17-.1l-.14-.11a.81.81,0,0,1-.21-.31,1,1,0,0,1-.08-.37.86.86,0,0,1,.08-.36.93.93,0,0,1,.21-.32l.14-.11.17-.09a1,1,0,0,1,.72,0,.84.84,0,0,1,.52.52,1,1,0,0,1,.07.36,1.21,1.21,0,0,1-.07.37,1.1,1.1,0,0,1-.2.31,1.36,1.36,0,0,1-.32.21A1.09,1.09,0,0,1,277.82,148Z"/><path d="M282.45,92.15l-.18,0-.19,0-.16-.09a.87.87,0,0,1-.14-.12.44.44,0,0,1-.12-.15,1.14,1.14,0,0,1-.09-.16,1.21,1.21,0,0,1-.05-.18.55.55,0,0,1,0-.18.9.9,0,0,1,.07-.37,1,1,0,0,1,.21-.31.41.41,0,0,1,.14-.12l.16-.09.19-.06a1,1,0,0,1,.55.06.9.9,0,0,1,.3.21.81.81,0,0,1,.21.31.9.9,0,0,1,.07.37.55.55,0,0,1,0,.18,1.21,1.21,0,0,1-.05.18.6.6,0,0,1-.08.16.64.64,0,0,1-.13.15.9.9,0,0,1-.3.21A1.16,1.16,0,0,1,282.45,92.15Z"/><path d="M281.5,131.22a1,1,0,0,1,1-1h0a1,1,0,0,1,.94,1h0a1,1,0,0,1-.94.95h0A1,1,0,0,1,281.5,131.22Zm0-8a1,1,0,0,1,1-1h0a1,1,0,0,1,.94,1h0a.94.94,0,0,1-.94,1h0A1,1,0,0,1,281.5,123.21Zm0-8a1,1,0,0,1,1-.95h0a.94.94,0,0,1,.94.95h0a1,1,0,0,1-.94,1h0A1,1,0,0,1,281.5,115.21Zm0-8a1,1,0,0,1,1-1h0a1,1,0,0,1,.94,1h0a1,1,0,0,1-.94,1h0A1,1,0,0,1,281.5,107.2Zm0-8a1,1,0,0,1,1-1h0a1,1,0,0,1,.94,1h0a1,1,0,0,1-.94,1h0A1,1,0,0,1,281.5,99.2Z"/><path d="M282.45,140.18l-.18,0-.19-.06-.16-.09-.14-.11a1.11,1.11,0,0,1-.21-.32.86.86,0,0,1-.07-.36.65.65,0,0,1,0-.19,1.67,1.67,0,0,1,.05-.18l.09-.16a.79.79,0,0,1,.12-.15.85.85,0,0,1,.14-.11l.16-.1.19,0a1,1,0,0,1,.55,0,1.08,1.08,0,0,1,.3.21l.13.15a1.19,1.19,0,0,1,.08.16,1.67,1.67,0,0,1,.05.18.65.65,0,0,1,0,.19.86.86,0,0,1-.07.36.93.93,0,0,1-.21.32.88.88,0,0,1-.3.2A1,1,0,0,1,282.45,140.18Z"/><path d="M259.28,92.14h-.19l-.17,0-.17-.09-.14-.12a.79.79,0,0,1-.2-.31.91.91,0,0,1-.08-.37.86.86,0,0,1,.08-.36.79.79,0,0,1,.2-.31.53.53,0,0,1,.14-.12l.17-.09.17-.06a1.21,1.21,0,0,1,.38,0l.18.06.16.09a.41.41,0,0,1,.14.12.81.81,0,0,1,.21.31.86.86,0,0,1,.08.36.91.91,0,0,1-.08.37.81.81,0,0,1-.21.31.87.87,0,0,1-.14.12l-.16.09-.18,0Z"/><path d="M258.33,155.24a1,1,0,0,1,.95-1h0a1,1,0,0,1,1,1h0a1,1,0,0,1-1,.95h0A1,1,0,0,1,258.33,155.24Zm0-8a1,1,0,0,1,.95-1h0a1,1,0,0,1,1,1h0a1,1,0,0,1-1,1h0A1,1,0,0,1,258.33,147.23Zm0-8a1,1,0,0,1,.95-.94h0a1,1,0,0,1,1,.94h0a1,1,0,0,1-1,1h0A1,1,0,0,1,258.33,139.22Zm0-8a1,1,0,0,1,.95-.95h0a1,1,0,0,1,1,.95h0a1,1,0,0,1-1,1h0A1,1,0,0,1,258.33,131.22Zm0-8a1,1,0,0,1,.95-1h0a1,1,0,0,1,1,1h0a1,1,0,0,1-1,1h0A1,1,0,0,1,258.33,123.22Zm0-8a1,1,0,0,1,.95-.95h0a1,1,0,0,1,1,.95h0a1,1,0,0,1-1,1h0A1,1,0,0,1,258.33,115.21Zm0-8a1,1,0,0,1,.95-1h0a1,1,0,0,1,1,1h0a1,1,0,0,1-1,1h0A1,1,0,0,1,258.33,107.2Zm0-8a1,1,0,0,1,.95-1h0a1,1,0,0,1,1,1h0a1,1,0,0,1-1,1h0A1,1,0,0,1,258.33,99.2Z"/><path d="M259.28,164.2l-.19,0-.17-.06-.17-.08a.81.81,0,0,1-.14-.12l-.12-.14a.85.85,0,0,1-.08-.17.64.64,0,0,1-.06-.18,1.11,1.11,0,0,1,0-.19,1.37,1.37,0,0,1,0-.19.7.7,0,0,1,.06-.17.65.65,0,0,1,.08-.17l.12-.14.14-.12a.44.44,0,0,1,.17-.08l.17-.06a.81.81,0,0,1,.38,0l.18.06a.4.4,0,0,1,.16.08,1.65,1.65,0,0,1,.27.26,1.3,1.3,0,0,1,.08.17.7.7,0,0,1,.06.17,1.37,1.37,0,0,1,0,.19,1.11,1.11,0,0,1,0,.19.64.64,0,0,1-.06.18l-.08.17-.13.14a.55.55,0,0,1-.14.12l-.16.08-.18.06Z"/></g><path class="cls-12" d="M349.47,75.54s-15.54,33.77-15.54,115.93c0,21.72-.8,57.79-.8,57.79h32.69s-.81-36.07-.81-57.79C365,108.91,349.47,75.54,349.47,75.54Z"/><polygon class="cls-13" points="360.58 107.59 349.47 72.25 338.36 107.59 360.58 107.59"/><rect class="cls-12" x="346.3" y="70.07" width="6.26" height="12.25" transform="translate(698.87 152.39) rotate(-180)"/><circle class="cls-14" cx="349.38" cy="71.13" r="7.54"/><rect x="356.92" y="199.79" width="3.66" height="27.17" rx="1.83"/><rect x="348.89" y="195.03" width="3.66" height="27.17" rx="1.83"/><rect x="340.86" y="189.51" width="3.66" height="27.17" rx="1.83"/><g class="cls-17"><path d="M356.42,110.88a1,1,0,0,1-.68-.29,1,1,0,0,1-.27-.67.92.92,0,0,1,.07-.36,1,1,0,0,1,.2-.31,1,1,0,0,1,1.36,0,1,1,0,0,1,.2.31.77.77,0,0,1,.07.36,1,1,0,0,1-.95,1Z"/><path d="M355.47,165.75a1,1,0,0,1,.95-.95h0a1,1,0,0,1,.95.95h0a1,1,0,0,1-.95,1h0A1,1,0,0,1,355.47,165.75Zm0-8a1,1,0,0,1,.95-1h0a1,1,0,0,1,.95,1h0a1,1,0,0,1-.95.95h0A1,1,0,0,1,355.47,157.78Zm0-8a1,1,0,0,1,.95-1h0a1,1,0,0,1,.95,1h0a1,1,0,0,1-.95.95h0A1,1,0,0,1,355.47,149.8Zm0-8a1,1,0,0,1,.95-1h0a1,1,0,0,1,.95,1h0a1,1,0,0,1-.95.95h0A1,1,0,0,1,355.47,141.83Zm0-8a1,1,0,0,1,.95-1h0a1,1,0,0,1,.95,1h0a1,1,0,0,1-.95,1h0A1,1,0,0,1,355.47,133.85Zm0-8a1,1,0,0,1,.95-1h0a1,1,0,0,1,.95,1h0a1,1,0,0,1-.95.95h0A1,1,0,0,1,355.47,125.87Zm0-8a1,1,0,0,1,.95-1h0a1,1,0,0,1,.95,1h0a1,1,0,0,1-.95,1h0A1,1,0,0,1,355.47,117.9Z"/><path d="M356.42,174.68a1,1,0,0,1-.68-.28,1,1,0,0,1-.27-.68.89.89,0,0,1,.07-.36,1.27,1.27,0,0,1,.2-.31,1,1,0,0,1,1.36,0,1.27,1.27,0,0,1,.2.31.75.75,0,0,1,.07.36,1,1,0,0,1-.27.68A1,1,0,0,1,356.42,174.68Z"/><path d="M351.79,110.88a1,1,0,0,1-.68-.28,1.3,1.3,0,0,1-.21-.31,1.15,1.15,0,0,1-.06-.37,1,1,0,0,1,.27-.67,1,1,0,0,1,1.35,0,.74.74,0,0,1,.21.31l.06.17a1.37,1.37,0,0,1,0,.19,1,1,0,0,1-.08.37.9.9,0,0,1-.21.31A1,1,0,0,1,351.79,110.88Z"/><path d="M350.84,165.75a.94.94,0,0,1,1-.95h0a1,1,0,0,1,1,.95h0a1,1,0,0,1-1,1h0A1,1,0,0,1,350.84,165.75Zm0-8a1,1,0,0,1,1-1h0a1,1,0,0,1,1,1h0a1,1,0,0,1-1,.95h0A1,1,0,0,1,350.84,157.78Zm0-8a1,1,0,0,1,1-1h0a1,1,0,0,1,1,1h0a1,1,0,0,1-1,.95h0A1,1,0,0,1,350.84,149.8Zm0-8a1,1,0,0,1,1-1h0a1,1,0,0,1,1,1h0a1,1,0,0,1-1,.95h0A1,1,0,0,1,350.84,141.83Zm0-8a1,1,0,0,1,1-1h0a1,1,0,0,1,1,1h0a1,1,0,0,1-1,1h0A1,1,0,0,1,350.84,133.85Zm0-8a1,1,0,0,1,1-1h0a1,1,0,0,1,1,1h0a1,1,0,0,1-1,.95h0A.94.94,0,0,1,350.84,125.87Zm0-8a.94.94,0,0,1,1-.94h0a1,1,0,0,1,1,.94h0a1,1,0,0,1-1,1h0A1,1,0,0,1,350.84,117.89Z"/><path d="M351.79,174.68a.94.94,0,0,1-1-1,.94.94,0,0,1,.27-.67,1,1,0,0,1,1.35,0,.9.9,0,0,1,.21.31l.06.18a1.24,1.24,0,0,1,0,.18.94.94,0,0,1-.29.68A.93.93,0,0,1,351.79,174.68Z"/><path d="M347.15,110.88a1,1,0,0,1-.67-.28,1,1,0,0,1-.28-.68.94.94,0,0,1,.08-.36.72.72,0,0,1,.2-.31.94.94,0,0,1,.86-.26l.18.05.17.09.14.12a.83.83,0,0,1,.2.31.78.78,0,0,1,.08.36,1,1,0,0,1-.28.68l-.14.12-.17.08a.64.64,0,0,1-.18.06Z"/><path d="M346.2,157.78a1,1,0,0,1,.95-.95h0a1,1,0,0,1,1,.95h0a1,1,0,0,1-1,1h0A1,1,0,0,1,346.2,157.78Zm0-8a1,1,0,0,1,.95-1h0a1,1,0,0,1,1,1h0a1,1,0,0,1-1,.95h0A1,1,0,0,1,346.2,149.81Zm0-8a1,1,0,0,1,.95-1h0a1,1,0,0,1,1,1h0a1,1,0,0,1-1,.95h0A1,1,0,0,1,346.2,141.83Zm0-8a1,1,0,0,1,.95-1h0a1,1,0,0,1,1,1h0a1,1,0,0,1-1,1h0A1,1,0,0,1,346.2,133.85Zm0-8a1,1,0,0,1,.95-.94h0a1,1,0,0,1,1,.94h0a1,1,0,0,1-1,1h0A1,1,0,0,1,346.2,125.87Zm0-8a1,1,0,0,1,.95-1h0a1,1,0,0,1,1,1h0a1,1,0,0,1-1,1h0A1,1,0,0,1,346.2,117.9Z"/><path d="M347.15,166.72a1,1,0,0,1-.67-.29.93.93,0,0,1-.28-.67,1,1,0,0,1,.28-.67.94.94,0,0,1,.86-.26l.18,0,.17.09.14.12a.94.94,0,0,1,0,1.34l-.14.13-.17.08-.18.06Z"/><path d="M342.52,110.88a1,1,0,0,1-.67-.28.93.93,0,0,1-.13-.15s-.05-.11-.08-.16a1.05,1.05,0,0,1-.05-.19.52.52,0,0,1,0-.18,1,1,0,0,1,.28-.67,1,1,0,0,1,.48-.26.94.94,0,0,1,.86.26.74.74,0,0,1,.21.31.92.92,0,0,1,.07.36.52.52,0,0,1,0,.18,1.05,1.05,0,0,1-.05.19.9.9,0,0,1-.21.31A1,1,0,0,1,342.52,110.88Z"/><path d="M341.56,157.78a1,1,0,0,1,1-.95h0a.94.94,0,0,1,1,.95h0a1,1,0,0,1-1,1h0A1,1,0,0,1,341.56,157.78Zm0-8a1,1,0,0,1,1-1h0a1,1,0,0,1,1,1h0a1,1,0,0,1-1,.95h0A1,1,0,0,1,341.56,149.81Zm0-8a1,1,0,0,1,1-1h0a1,1,0,0,1,1,1h0a1,1,0,0,1-1,.95h0A1,1,0,0,1,341.56,141.83Zm0-8a1,1,0,0,1,1-1h0a1,1,0,0,1,1,1h0a.94.94,0,0,1-1,1h0A1,1,0,0,1,341.56,133.85Zm0-8a1,1,0,0,1,1-.94h0a.94.94,0,0,1,1,.94h0a1,1,0,0,1-1,1h0A1,1,0,0,1,341.56,125.87Zm0-8a1,1,0,0,1,1-1h0a1,1,0,0,1,1,1h0a1,1,0,0,1-1,1h0A1,1,0,0,1,341.56,117.9Z"/><path d="M342.52,166.72a.94.94,0,0,1-.67-.29.93.93,0,0,1-.28-.67.65.65,0,0,1,0-.19,1.67,1.67,0,0,1,.05-.18l.08-.16a.86.86,0,0,1,.13-.14,1,1,0,0,1,1.34,0,.78.78,0,0,1,.21.3,1.67,1.67,0,0,1,.05.18.62.62,0,0,1,0,.19.94.94,0,0,1-.07.37.78.78,0,0,1-.21.3A.94.94,0,0,1,342.52,166.72Z"/><path d="M337.89,110.88a1,1,0,0,1-1-1,1,1,0,0,1,1.63-.67.72.72,0,0,1,.2.31.7.7,0,0,1,.06.17,1.37,1.37,0,0,1,0,.19,1,1,0,0,1,0,.18.6.6,0,0,1-.06.19.75.75,0,0,1-.2.3A1,1,0,0,1,337.89,110.88Z"/><path d="M336.93,149.94a1,1,0,0,1,1-.95h0a1,1,0,0,1,.95.95h0a1,1,0,0,1-.95.95h0A1,1,0,0,1,336.93,149.94Zm0-8a1,1,0,0,1,1-.95h0a1,1,0,0,1,.95.95h0a1,1,0,0,1-.95,1h0A1,1,0,0,1,336.93,141.94Zm0-8a1,1,0,0,1,1-1h0a1,1,0,0,1,.95,1h0a1,1,0,0,1-.95.95h0A1,1,0,0,1,336.93,133.94Zm0-8a1,1,0,0,1,1-1h0a1,1,0,0,1,.95,1h0a1,1,0,0,1-.95.95h0A1,1,0,0,1,336.93,125.93Zm0-8a1,1,0,0,1,1-1h0a1,1,0,0,1,.95,1h0a.94.94,0,0,1-.95.94h0A.94.94,0,0,1,336.93,117.93Z"/><path d="M337.89,158.9l-.19,0-.18,0a.65.65,0,0,1-.16-.09.55.55,0,0,1-.14-.12.74.74,0,0,1-.21-.31.9.9,0,0,1-.08-.36,1,1,0,0,1,.29-.68.87.87,0,0,1,.14-.12l.16-.08.18-.06a1,1,0,0,1,.86.26.79.79,0,0,1,.2.31.64.64,0,0,1,.06.18,1.11,1.11,0,0,1,0,.19.9.9,0,0,1-.08.36.72.72,0,0,1-.2.31A.92.92,0,0,1,337.89,158.9Z"/><path d="M361.06,110.88l-.19,0a1,1,0,0,1-.18-.06l-.17-.08a.86.86,0,0,1-.14-.13.41.41,0,0,1-.12-.14l-.09-.16a1.05,1.05,0,0,1-.05-.19.52.52,0,0,1,0-.18,1,1,0,0,1,.28-.67.81.81,0,0,1,.14-.12.38.38,0,0,1,.17-.08.55.55,0,0,1,.18-.06.77.77,0,0,1,.37,0,.64.64,0,0,1,.18.06.3.3,0,0,1,.16.08,1.58,1.58,0,0,1,.15.12,1,1,0,0,1,.21.31,1.13,1.13,0,0,1,.06.36.92.92,0,0,1-.27.67l-.15.13a1.19,1.19,0,0,1-.16.08,1.27,1.27,0,0,1-.18.06Z"/><path d="M360.1,174a1,1,0,0,1,1-1h0a1,1,0,0,1,.94,1h0a.94.94,0,0,1-.94,1h0A1,1,0,0,1,360.1,174Zm0-8a1,1,0,0,1,1-1h0a.94.94,0,0,1,.94,1h0a1,1,0,0,1-.94,1h0A1,1,0,0,1,360.1,166Zm0-8a1,1,0,0,1,1-1h0a1,1,0,0,1,.94,1h0a1,1,0,0,1-.94.95h0A1,1,0,0,1,360.1,158Zm0-8a1,1,0,0,1,1-1h0a1,1,0,0,1,.94,1h0a1,1,0,0,1-.94,1h0A1,1,0,0,1,360.1,150Zm0-8a1,1,0,0,1,1-.95h0a1,1,0,0,1,.94.95h0a1,1,0,0,1-.94,1h0A1,1,0,0,1,360.1,141.94Zm0-8a1,1,0,0,1,1-1h0a1,1,0,0,1,.94,1h0a1,1,0,0,1-.94.95h0A1,1,0,0,1,360.1,133.94Zm0-8a1,1,0,0,1,1-1h0a.94.94,0,0,1,.94,1h0a1,1,0,0,1-.94,1h0A1,1,0,0,1,360.1,125.94Zm0-8a1,1,0,0,1,1-1h0a.94.94,0,0,1,.94,1h0a.94.94,0,0,1-.94.95h0A1,1,0,0,1,360.1,117.93Z"/><path d="M361.06,182.92a.93.93,0,0,1-.68-.27.79.79,0,0,1-.12-.15l-.09-.17a1.09,1.09,0,0,1-.05-.17.62.62,0,0,1,0-.19.93.93,0,0,1,.28-.67.53.53,0,0,1,.14-.12.91.91,0,0,1,.17-.09l.18-.06a1.15,1.15,0,0,1,.37,0l.18.06a.61.61,0,0,1,.16.09.79.79,0,0,1,.15.12.92.92,0,0,1,.27.67.92.92,0,0,1-.94.95Z"/></g><path class="cls-13" d="M320,56.81s-15.54,33.77-15.54,115.94c0,21.71-.81,57.78-.81,57.78h32.69s-.8-36.07-.8-57.78C335.49,90.18,320,56.81,320,56.81Z"/><polygon class="cls-12" points="331.06 88.87 319.95 53.52 308.84 88.87 331.06 88.87"/><rect class="cls-12" x="316.78" y="51.34" width="6.26" height="12.25" transform="translate(639.82 114.94) rotate(-180)"/><circle class="cls-14" cx="319.86" cy="52.4" r="7.54"/><rect x="327.4" y="181.06" width="3.66" height="27.17" rx="1.83"/><rect x="319.37" y="176.3" width="3.66" height="27.17" rx="1.83"/><rect x="311.33" y="170.78" width="3.66" height="27.17" rx="1.83"/><g class="cls-18"><path d="M326.9,92.15a1.1,1.1,0,0,1-.36-.07.89.89,0,0,1-.32-.21,1,1,0,0,1-.27-.67,1,1,0,0,1,.27-.68.89.89,0,0,1,.32-.21,1,1,0,0,1,1.32.89,1,1,0,0,1-.28.67A1,1,0,0,1,326.9,92.15Z"/><path d="M326,147a1,1,0,0,1,.95-1h0a1,1,0,0,1,1,1h0a1,1,0,0,1-1,.95h0A1,1,0,0,1,326,147Zm0-8a1,1,0,0,1,.95-1h0a1,1,0,0,1,1,1h0a1,1,0,0,1-1,.95h0A1,1,0,0,1,326,139.05Zm0-8a1,1,0,0,1,.95-.95h0a1,1,0,0,1,1,.95h0a1,1,0,0,1-1,1h0A1,1,0,0,1,326,131.07Zm0-8a1,1,0,0,1,.95-1h0a1,1,0,0,1,1,1h0a1,1,0,0,1-1,1h0A1,1,0,0,1,326,123.09Zm0-8a1,1,0,0,1,.95-1h0a1,1,0,0,1,1,1h0a1,1,0,0,1-1,1h0A1,1,0,0,1,326,115.11Zm0-8a1,1,0,0,1,.95-1h0a1,1,0,0,1,1,1h0a1,1,0,0,1-1,.95h0A1,1,0,0,1,326,107.15Zm0-8a1,1,0,0,1,.95-1h0a1,1,0,0,1,1,1h0a1,1,0,0,1-1,1h0A1,1,0,0,1,326,99.17Z"/><path d="M326.9,156a1.1,1.1,0,0,1-.36-.07A.89.89,0,0,1,326,155a1,1,0,0,1,.27-.68.87.87,0,0,1,.32-.2,1,1,0,0,1,1,.2,1,1,0,0,1,.28.68,1,1,0,0,1-.28.68A1,1,0,0,1,326.9,156Z"/><path d="M322.26,92.14a.58.58,0,0,1-.18,0l-.18,0-.16-.09a.58.58,0,0,1-.14-.12.64.64,0,0,1-.13-.15.6.6,0,0,1-.08-.16l-.06-.18a1.23,1.23,0,0,1,0-.19,1,1,0,0,1,0-.18l.06-.18a.89.89,0,0,1,.08-.17,1.66,1.66,0,0,1,.13-.14.33.33,0,0,1,.14-.12l.16-.09.18-.06a1,1,0,0,1,.86.27.93.93,0,0,1,.28.67.62.62,0,0,1,0,.19,1.21,1.21,0,0,1-.05.18,1.14,1.14,0,0,1-.09.16.44.44,0,0,1-.12.15A.94.94,0,0,1,322.26,92.14Z"/><path d="M321.31,147a1,1,0,0,1,.95-1h0a1,1,0,0,1,1,1h0a1,1,0,0,1-1,.95h0A1,1,0,0,1,321.31,147Zm0-8a1,1,0,0,1,.95-1h0a1,1,0,0,1,1,1h0a1,1,0,0,1-1,.95h0A1,1,0,0,1,321.31,139.05Zm0-8a1,1,0,0,1,.95-.95h0a1,1,0,0,1,1,.95h0a1,1,0,0,1-1,1h0A1,1,0,0,1,321.31,131.07Zm0-8a1,1,0,0,1,.95-1h0a1,1,0,0,1,1,1h0a1,1,0,0,1-1,1h0A1,1,0,0,1,321.31,123.09Zm0-8a1,1,0,0,1,.95-1h0a1,1,0,0,1,1,1h0a1,1,0,0,1-1,1h0A1,1,0,0,1,321.31,115.12Zm0-8a1,1,0,0,1,.95-1h0a1,1,0,0,1,1,1h0a1,1,0,0,1-1,.95h0A1,1,0,0,1,321.31,107.15Zm0-8a1,1,0,0,1,.95-1h0a1,1,0,0,1,1,1h0a1,1,0,0,1-1,1h0A1,1,0,0,1,321.31,99.17Z"/><path d="M322.26,156l-.18,0-.18-.05a.51.51,0,0,1-.16-.09l-.14-.11a1,1,0,0,1-.29-.68.94.94,0,0,1,.29-.68.31.31,0,0,1,.14-.11.51.51,0,0,1,.16-.09.64.64,0,0,1,.18-.06,1,1,0,0,1,.86.26,1.11,1.11,0,0,1,.21.32.86.86,0,0,1,.07.36.94.94,0,0,1-1,.95Z"/><path d="M317.63,92.15l-.19,0-.17,0L317.1,92l-.14-.12a.81.81,0,0,1-.21-.31.89.89,0,0,1-.07-.36.87.87,0,0,1,.07-.37.81.81,0,0,1,.21-.31,1,1,0,0,1,1-.21.9.9,0,0,1,.3.21.81.81,0,0,1,.21.31.87.87,0,0,1,.08.37,1,1,0,0,1-.29.67A.93.93,0,0,1,317.63,92.15Z"/><path d="M316.68,139.05a.94.94,0,0,1,.95-.94h0a1,1,0,0,1,1,.94h0a1,1,0,0,1-1,.95h0A.94.94,0,0,1,316.68,139.05Zm0-8a.94.94,0,0,1,.95-1h0a1,1,0,0,1,1,1h0a1,1,0,0,1-1,1h0A1,1,0,0,1,316.68,131.08Zm0-8a1,1,0,0,1,.95-.95h0a1,1,0,0,1,1,.95h0a1,1,0,0,1-1,1h0A1,1,0,0,1,316.68,123.1Zm0-8a1,1,0,0,1,.95-1h0a1,1,0,0,1,1,1h0a1,1,0,0,1-1,1h0A1,1,0,0,1,316.68,115.12Zm0-8a1,1,0,0,1,.95-1h0a1,1,0,0,1,1,1h0a1,1,0,0,1-1,.95h0A1,1,0,0,1,316.68,107.15Zm0-8a1,1,0,0,1,.95-1h0a1,1,0,0,1,1,1h0a1,1,0,0,1-1,1h0A.94.94,0,0,1,316.68,99.17Z"/><path d="M317.63,148a.65.65,0,0,1-.19,0l-.17,0-.17-.1-.14-.11a1,1,0,0,1-.28-.68.86.86,0,0,1,.07-.36.81.81,0,0,1,.21-.31,1,1,0,0,1,1-.21.9.9,0,0,1,.3.21.81.81,0,0,1,.21.31.86.86,0,0,1,.08.36,1,1,0,0,1-.29.68A.92.92,0,0,1,317.63,148Z"/><path d="M313,92.15a1.16,1.16,0,0,1-.37-.07,1.08,1.08,0,0,1-.3-.21,1,1,0,0,1-.29-.67.87.87,0,0,1,.08-.37.81.81,0,0,1,.21-.31.9.9,0,0,1,.3-.21,1,1,0,0,1,1,.21.81.81,0,0,1,.21.31.87.87,0,0,1,.07.37,1,1,0,0,1-.95,1Z"/><path d="M312,139.05a1,1,0,0,1,1-1h0a1,1,0,0,1,.95,1h0a1,1,0,0,1-.95,1h0A1,1,0,0,1,312,139.05Zm0-8a1,1,0,0,1,1-1h0a1,1,0,0,1,.95,1h0a1,1,0,0,1-.95,1h0A1,1,0,0,1,312,131.08Zm0-8a1,1,0,0,1,1-.95h0a1,1,0,0,1,.95.95h0a1,1,0,0,1-.95,1h0A1,1,0,0,1,312,123.1Zm0-8a1,1,0,0,1,1-1h0a1,1,0,0,1,.95,1h0a1,1,0,0,1-.95,1h0A1,1,0,0,1,312,115.12Zm0-8a1,1,0,0,1,1-1h0a1,1,0,0,1,.95,1h0a1,1,0,0,1-.95.95h0A1,1,0,0,1,312,107.15Zm0-8a1,1,0,0,1,1-1h0a1,1,0,0,1,.95,1h0a1,1,0,0,1-.95,1h0A1,1,0,0,1,312,99.17Z"/><path d="M313,148a.92.92,0,0,1-.67-.27l-.13-.15c0-.05-.06-.1-.08-.16a.64.64,0,0,1-.06-.18,1.23,1.23,0,0,1,0-.19.86.86,0,0,1,.08-.36.81.81,0,0,1,.21-.31,1,1,0,0,1,1.34,0,.81.81,0,0,1,.21.31.86.86,0,0,1,.07.36.62.62,0,0,1,0,.19,1.21,1.21,0,0,1-.05.18.83.83,0,0,1-.09.16.79.79,0,0,1-.12.15A.94.94,0,0,1,313,148Z"/><path d="M308.37,92.15l-.19,0-.18,0-.17-.09-.14-.12a.92.92,0,0,1-.2-.31.77.77,0,0,1-.08-.37.93.93,0,0,1,.28-.67l.14-.12.17-.09.18-.06a1.15,1.15,0,0,1,.37,0l.18.06.16.09a.44.44,0,0,1,.15.12,1,1,0,0,1,.21.31,1,1,0,0,1,.07.36,1.11,1.11,0,0,1-.07.37,1,1,0,0,1-.21.31l-.15.12-.16.09-.18,0Z"/><path d="M307.41,131.22a1,1,0,0,1,1-1h0a1,1,0,0,1,.95,1h0a1,1,0,0,1-.95.95h0A1,1,0,0,1,307.41,131.22Zm0-8a1,1,0,0,1,1-1h0a1,1,0,0,1,.95,1h0a1,1,0,0,1-.95,1h0A1,1,0,0,1,307.41,123.21Zm0-8a1,1,0,0,1,1-.95h0a1,1,0,0,1,.95.95h0a1,1,0,0,1-.95,1h0A1,1,0,0,1,307.41,115.21Zm0-8a1,1,0,0,1,1-1h0a1,1,0,0,1,.95,1h0a1,1,0,0,1-.95,1h0A1,1,0,0,1,307.41,107.2Zm0-8a1,1,0,0,1,1-1h0a1,1,0,0,1,.95,1h0a1,1,0,0,1-.95,1h0A1,1,0,0,1,307.41,99.2Z"/><path d="M308.37,140.18l-.19,0a1,1,0,0,1-.18-.06,1.4,1.4,0,0,1-.17-.09l-.14-.12a.93.93,0,0,1-.28-.67,1,1,0,0,1,.28-.68l.14-.11.17-.1.18,0a.77.77,0,0,1,.37,0l.18,0,.16.1a.58.58,0,0,1,.15.11,1.06,1.06,0,0,1,.21.31,1.21,1.21,0,0,1,.07.37,1,1,0,0,1,0,.18c0,.07,0,.13-.05.18a1,1,0,0,1-.21.31.44.44,0,0,1-.15.12.83.83,0,0,1-.16.09l-.18.06Z"/><path d="M331.53,92.14a.55.55,0,0,1-.18,0l-.18,0L331,92l-.15-.12a1,1,0,0,1-.28-.67.87.87,0,0,1,.07-.37,1,1,0,0,1,.21-.31.44.44,0,0,1,.15-.12l.16-.09.18-.06a1,1,0,0,1,.86.27,1.13,1.13,0,0,1,.21.31,1.06,1.06,0,0,1,.06.37.92.92,0,0,1-1,.94Z"/><path d="M330.58,155.24a1,1,0,0,1,.95-1h0a1,1,0,0,1,1,1h0a1,1,0,0,1-1,.95h0A1,1,0,0,1,330.58,155.24Zm0-8a1,1,0,0,1,.95-1h0a1,1,0,0,1,1,1h0a1,1,0,0,1-1,1h0A1,1,0,0,1,330.58,147.23Zm0-8a1,1,0,0,1,.95-.94h0a.94.94,0,0,1,1,.94h0a1,1,0,0,1-1,1h0A1,1,0,0,1,330.58,139.22Zm0-8a1,1,0,0,1,.95-.95h0a.94.94,0,0,1,1,.95h0a1,1,0,0,1-1,1h0A1,1,0,0,1,330.58,131.22Zm0-8a1,1,0,0,1,.95-1h0a1,1,0,0,1,1,1h0a1,1,0,0,1-1,1h0A1,1,0,0,1,330.58,123.22Zm0-8a1,1,0,0,1,.95-.95h0a1,1,0,0,1,1,.95h0a1,1,0,0,1-1,1h0A1,1,0,0,1,330.58,115.21Zm0-8a1,1,0,0,1,.95-1h0a1,1,0,0,1,1,1h0a1,1,0,0,1-1,1h0A1,1,0,0,1,330.58,107.2Zm0-8a1,1,0,0,1,.95-1h0a1,1,0,0,1,1,1h0a1,1,0,0,1-1,1h0A1,1,0,0,1,330.58,99.2Z"/><path d="M331.53,164.2l-.18,0a.48.48,0,0,1-.18-.06L331,164l-.15-.12a1,1,0,0,1-.28-.68.92.92,0,0,1,.07-.36.85.85,0,0,1,.21-.31.61.61,0,0,1,.15-.12.3.3,0,0,1,.16-.08.48.48,0,0,1,.18-.06,1,1,0,0,1,.86.26,1,1,0,0,1,.21.31,1.13,1.13,0,0,1,.06.36,1,1,0,0,1-.27.68A1,1,0,0,1,331.53,164.2Z"/></g><path class="cls-12" d="M373.46,278.79H217.4l1.34-32.14,73.43-41.71a6.59,6.59,0,0,1,6.52,0l73.43,41.71Z"/><polygon class="cls-14" points="188.74 342.42 208.54 280.3 295.43 237.56 382.27 280.3 402.07 342.42 188.74 342.42"/><polygon class="cls-14" points="313.7 276.79 313.7 287.12 337.89 287.12 335.03 276.79 313.7 276.79"/><polygon class="cls-14" points="276.49 276.79 254.43 276.79 251.56 287.12 276.49 287.12 276.49 276.79"/><polygon class="cls-14" points="289.66 276.79 286.8 287.12 303.92 287.12 301.05 276.79 289.66 276.79"/><polygon class="cls-14" points="273.62 298.4 216.05 298.4 213.19 308.54 276.49 308.54 273.62 298.4"/><polygon class="cls-14" points="289.66 298.4 286.8 308.54 303.92 308.54 301.05 298.4 289.66 298.4"/><polygon class="cls-14" points="316.57 298.4 313.7 308.54 376.27 308.54 373.4 298.4 316.57 298.4"/><rect class="cls-14" x="287.3" y="321.59" width="16.39" height="21.4"/><rect class="cls-14" x="240.89" y="321.59" width="16.39" height="21.4"/><rect class="cls-14" x="206.36" y="321.59" width="16.39" height="21.4"/><rect class="cls-14" x="366.7" y="321.59" width="16.39" height="21.4"/><rect class="cls-14" x="332.17" y="321.59" width="16.39" height="21.4"/><polygon class="cls-19" points="216.05 298.4 213.19 308.54 214.53 308.54 216.05 303.18 273.62 303.18 275.14 308.54 276.49 308.54 273.62 298.4 216.05 298.4"/><rect class="cls-19" x="206.36" y="321.59" width="16.39" height="4.78"/><polygon class="cls-19" points="251.56 287.12 252.88 287.12 254.43 281.57 276.49 281.57 276.49 276.79 254.43 276.79 251.56 287.12"/><polygon class="cls-19" points="316.57 303.18 373.4 303.18 374.92 308.54 376.27 308.54 373.4 298.4 316.57 298.4 313.7 308.54 315.05 308.54 316.57 303.18"/><polygon class="cls-19" points="336.57 287.12 337.89 287.12 335.03 276.79 313.7 276.79 313.7 281.57 335.03 281.57 336.57 287.12"/><rect class="cls-19" x="240.89" y="321.59" width="16.39" height="4.78"/><rect class="cls-19" x="287.3" y="321.59" width="16.39" height="4.78"/><rect class="cls-19" x="332.17" y="321.59" width="16.39" height="4.78"/><rect class="cls-19" x="366.7" y="321.59" width="16.39" height="4.78"/><polygon class="cls-19" points="289.66 276.79 286.8 287.12 288.12 287.12 289.66 281.57 301.05 281.57 302.59 287.12 303.92 287.12 301.05 276.79 289.66 276.79"/><polygon class="cls-19" points="289.66 298.4 286.8 308.54 288.15 308.54 289.66 303.18 301.05 303.18 302.56 308.54 303.92 308.54 301.05 298.4 289.66 298.4"/><path class="cls-20" d="M402.07,342.42l-19.8-62.12-86.84-48.47h0L208.55,280.3l-19.81,62.12h14.2a10.18,10.18,0,0,1-2.56-10l10.76-39.15c2.38-8.65,7.78-13.12,15-16.07a3,3,0,0,1,4,3.56l-13.48,53.5c-1.4,6.23-3.69,7.14-4.85,8.2h22.81c-3.83-2.39-6-8-4.49-13.43l13.3-48.38c3.11-11.32,15.52-17.63,26.24-21.36,2.16-.75,4.05,1.9,3.17,4.42L253.15,333.1c-2,8.27-10.36,9.42-10.36,9.42l34.94-.1c-5.76,0-10.07-6.45-8.92-13.35,2-11.82,5-28.23,7-35.43C286.08,256.46,293.35,247,295,245.23v.05a3.67,3.67,0,0,1,.39-.4s.17.16.38.4v-.05c1.68,1.79,8.95,11.23,19.24,48.41,2,7.2,5,23.61,7,35.43,1.16,6.9-3.16,13.35-8.92,13.35l34.95.1s-8.38-1.15-10.36-9.42L318,263.67c-.89-2.52,1-5.17,3.16-4.42,10.72,3.73,23.13,10,26.24,21.36L360.74,329c1.5,5.45-.65,11-4.49,13.43h22.81c-1.16-1.06-3.45-2-4.84-8.2l-13.48-53.5a3,3,0,0,1,4-3.56c7.18,2.95,12.58,7.42,15,16.07l10.76,39.15a10.17,10.17,0,0,1-2.55,10Z"/><polyline class="cls-21" points="217.88 267.19 295.43 223.15 372.7 267.04 372.12 258.11 295.43 214.55 218.74 258.11"/><line class="cls-22" x1="295.43" y1="214.55" x2="295.43" y2="223.15"/><line class="cls-22" x1="287.21" y1="218.85" x2="287.21" y2="227.45"/><line class="cls-22" x1="279" y1="224.11" x2="279" y2="232.71"/><line class="cls-22" x1="270.78" y1="228.41" x2="270.78" y2="237"/><line class="cls-22" x1="262.57" y1="233.18" x2="262.57" y2="241.78"/><line class="cls-22" x1="254.36" y1="237.96" x2="254.36" y2="246.56"/><line class="cls-22" x1="246.14" y1="242.26" x2="246.14" y2="250.86"/><line class="cls-22" x1="237.93" y1="247.04" x2="237.93" y2="255.63"/><line class="cls-22" x1="229.71" y1="251.81" x2="229.71" y2="260.41"/><line class="cls-22" x1="295.5" y1="214.89" x2="295.5" y2="223.49"/><line class="cls-22" x1="303.72" y1="219.19" x2="303.72" y2="227.78"/><line class="cls-22" x1="311.93" y1="224.44" x2="311.93" y2="233.04"/><line class="cls-22" x1="320.15" y1="228.74" x2="320.15" y2="237.34"/><line class="cls-22" x1="328.36" y1="233.52" x2="328.36" y2="242.11"/><line class="cls-22" x1="336.57" y1="238.29" x2="336.57" y2="246.89"/><line class="cls-22" x1="344.79" y1="242.59" x2="344.79" y2="251.19"/><line class="cls-22" x1="353" y1="247.37" x2="353" y2="255.97"/><line class="cls-22" x1="361.22" y1="252.14" x2="361.22" y2="260.74"/><path class="cls-8" d="M186,110.48H165.83a11.77,11.77,0,0,0-11.68-10.34H138.36a11.77,11.77,0,0,0-11.68-10.35h-18a11.77,11.77,0,0,0-11.77,11.77v8.92H85.66a11.77,11.77,0,0,0-11.77,11.77v2.26H197.74v-2.26A11.77,11.77,0,0,0,186,110.48"/><path class="cls-9" d="M186,110.48H165.83a11.77,11.77,0,0,0-11.68-10.34H138.36a11.77,11.77,0,0,0-11.68-10.35h-18a11.77,11.77,0,0,0-11.77,11.77v8.92H85.66a11.77,11.77,0,0,0-11.77,11.77v2.26H197.74v-2.26A11.77,11.77,0,0,0,186,110.48Z"/><line class="cls-8" x1="165.83" y1="110.48" x2="153.57" y2="110.48"/><line class="cls-9" x1="165.83" y1="110.48" x2="153.57" y2="110.48"/><line class="cls-8" x1="138.36" y1="100.14" x2="122.77" y2="100.14"/><line class="cls-9" x1="138.36" y1="100.14" x2="122.77" y2="100.14"/><line class="cls-8" x1="96.92" y1="110.48" x2="110.82" y2="110.48"/><line class="cls-9" x1="96.92" y1="110.48" x2="110.82" y2="110.48"/><ellipse class="cls-23" cx="215.05" cy="210.67" rx="14.07" ry="17.9" transform="translate(-12.64 407.6) rotate(-85.27)"/><ellipse class="cls-23" cx="227.96" cy="183.51" rx="17.9" ry="14.07" transform="translate(-31.63 48.4) rotate(-11.34)"/><path d="M208.48,278.15c-3.82-32.95-15.77-65.24-32-86.39-2.87-3.75-5.47-7.06-8-10.26-11-14-18.31-23.3-22.3-37.61l1.93-.54c3.87,13.93,10.68,22.58,21.94,36.91,2.53,3.21,5.13,6.53,8,10.28,16.4,21.42,28.49,54.09,32.36,87.38Z"/><path d="M185.25,204.86c-2.16-8.45,5.93-17.57,6.28-18l1.48,1.34c-.07.09-7.71,8.71-5.83,16.13Z"/><path d="M197.13,210.19c-3.61-.3-11.09-4.52-11.41-4.7a1,1,0,0,1-.47-.63,1,1,0,0,1,.12-.77c5.54-9,24.78-15.16,25.6-15.42l.6,1.91c-.18.06-18,5.81-23.91,13.69,2.55,1.37,7.34,3.73,9.63,3.92Z"/><path class="cls-24" d="M183.4,200a195,195,0,0,1-45,1.57,195.26,195.26,0,0,1-44.11-8.95A192,192,0,0,1,183.4,200Z"/><path class="cls-24" d="M163.46,173.24a160.11,160.11,0,0,1-36.3,6.22,159.72,159.72,0,0,1-36.75-2.41,157,157,0,0,1,73.05-3.81Z"/><path class="cls-24" d="M158,167a137.64,137.64,0,0,1-56.75-29.86A137.64,137.64,0,0,1,158,167Z"/><path class="cls-24" d="M153.78,159.57a137.64,137.64,0,0,1-33.54-54.65,139.67,139.67,0,0,1,20,25.34A139.86,139.86,0,0,1,153.78,159.57Z"/><path class="cls-24" d="M180.84,194.55a166.75,166.75,0,0,1,2.94-77.68,166.75,166.75,0,0,1-2.94,77.68Z"/><path class="cls-24" d="M171.92,183.54a167,167,0,0,1-12.28-76.76,169.37,169.37,0,0,1,10.68,37.65A169.46,169.46,0,0,1,171.92,183.54Z"/><path class="cls-24" d="M170.38,182.31a185.47,185.47,0,0,1-27.19-82,188.46,188.46,0,0,1,18.44,39.4A189.05,189.05,0,0,1,170.38,182.31Z"/><ellipse class="cls-23" cx="197.74" cy="170.95" rx="17.9" ry="14.07" transform="translate(19.44 362.09) rotate(-87.84)"/><ellipse class="cls-23" cx="215.05" cy="210.67" rx="14.07" ry="17.9" transform="translate(-12.64 407.6) rotate(-85.27)"/><path class="cls-25" d="M218.2,212c-.41,0-.83,0-1.24-.05a13,13,0,0,1-7.66-3.14,6.19,6.19,0,0,1-2.21-4.81c.29-3.52,4.6-6.28,9.81-6.28.41,0,.82,0,1.24.05,5.66.47,10.19,4.12,9.87,8C227.72,209.25,223.41,212,218.2,212Z"/><path class="cls-25" d="M230.51,183.06c-.36,0-.72,0-1.08,0a11.44,11.44,0,0,1-6.75-2.77,5.44,5.44,0,0,1-1.94-4.23c.25-3.1,4-5.53,8.63-5.53.36,0,.73,0,1.09,0,5,.41,9,3.62,8.69,7C238.89,180.64,235.1,183.06,230.51,183.06Z"/><path class="cls-25" d="M198.93,167.54c-.34,0-.68,0-1,0a10.79,10.79,0,0,1-6.35-2.61,5.11,5.11,0,0,1-1.83-4c.24-2.92,3.81-5.2,8.13-5.2.33,0,.68,0,1,0,4.7.39,8.44,3.41,8.18,6.59C206.82,165.26,203.25,167.54,198.93,167.54Z"/><path class="cls-26" d="M96,339h72.5a62.29,62.29,0,0,0,13.62-88.43h0l-.29-.34c-1.2-1.57-2.48-3.08-3.82-4.53l-11.49-13.63h0l15.6-18.5H82.34l15.6,18.5L86.45,245.74c-1.35,1.45-2.62,3-3.83,4.53l-.28.34h0A62.32,62.32,0,0,0,96,339Z"/><path class="cls-27" d="M205.65,310.33a11.48,11.48,0,0,1-4.81-1.08,13.57,13.57,0,0,1-7-7.51c-1.66-4.54-1.12-9.9,1.54-15.51,2.41-5.06,5.85-9.29,9.19-13.38,2-2.5,4-4.85,5.63-7.36,3.11-4.65,6-11.49,2.26-17.7-2.7-4.44-7.58-7.14-11.89-6.52-6.84.95-11.92,6.11-15,10.26a4.15,4.15,0,1,1-6.68-4.92c5.75-7.8,12.84-12.49,20.52-13.56s15.7,3.13,20.14,10.44c4.7,7.76,3.83,17.21-2.45,26.61-1.9,2.84-4,5.46-6.1,8-3.17,3.88-6.15,7.54-8.13,11.7-1,2-2.41,5.91-1.25,9.1a5.25,5.25,0,0,0,2.63,2.8,2.72,2.72,0,0,0,2.05.21,4.15,4.15,0,0,1,2.91,7.77A10.39,10.39,0,0,1,205.65,310.33Z"/><g class="cls-28"><path class="cls-3" d="M205.65,307.33a8.43,8.43,0,0,1-3.56-.81,10.51,10.51,0,0,1-5.39-5.81c-1.37-3.76-.87-8.32,1.44-13.19s5.58-8.82,8.8-12.77c2.08-2.55,4-4.95,5.81-7.59,5.14-7.71,5.95-14.94,2.32-20.92-3-4.9-8.15-8.06-13.2-8.06a11.66,11.66,0,0,0-1.68.12c-7.85,1.1-13.57,6.83-17,11.45a1.12,1.12,0,0,1-.93.47,1.19,1.19,0,0,1-.68-.22,1.13,1.13,0,0,1-.45-.76,1.1,1.1,0,0,1,.21-.85C186.62,241.25,193,237,199.88,236a14,14,0,0,1,2-.13c5.87,0,11.84,3.59,15.21,9.15,4.07,6.71,3.22,15-2.38,23.4-1.82,2.72-3.91,5.28-5.93,7.76-3.28,4-6.37,7.82-8.51,12.31-1.42,3-2.81,7.41-1.35,11.41a8.28,8.28,0,0,0,4.18,4.51,6.15,6.15,0,0,0,2.59.6,4.93,4.93,0,0,0,1.75-.31,1.35,1.35,0,0,1,.42-.08,1.15,1.15,0,0,1,1.08.75,1.1,1.1,0,0,1,0,.88,1.14,1.14,0,0,1-.64.6A7.44,7.44,0,0,1,205.65,307.33Z"/></g><path class="cls-29" d="M101,332.26A7.78,7.78,0,0,1,96,330.4a55.66,55.66,0,0,1-19.43-42.22,54.68,54.68,0,0,1,5.46-24,7,7,0,0,1,6.28-3.92h88a7,7,0,0,1,6.28,3.92,54.69,54.69,0,0,1,5.47,24,55.67,55.67,0,0,1-19.44,42.22,7.77,7.77,0,0,1-5.08,1.86Z"/><path d="M176.22,260.84a6.44,6.44,0,0,1,5.78,3.61,54.25,54.25,0,0,1,5.4,23.73A55.13,55.13,0,0,1,168.17,330a7.25,7.25,0,0,1-4.72,1.72H101A7.23,7.23,0,0,1,96.32,330a55.1,55.1,0,0,1-19.24-41.8,54.12,54.12,0,0,1,5.41-23.73,6.41,6.41,0,0,1,5.77-3.61h88m0-1.13h-88A7.55,7.55,0,0,0,81.47,264,55.48,55.48,0,0,0,76,288.18a56.39,56.39,0,0,0,19.63,42.65,8.38,8.38,0,0,0,5.46,2h62.41a8.36,8.36,0,0,0,5.45-2,56.39,56.39,0,0,0,19.63-42.65A55.48,55.48,0,0,0,183,264a7.53,7.53,0,0,0-6.79-4.25Z"/><ellipse class="cls-30" cx="132.24" cy="213.61" rx="49.9" ry="5.15"/><ellipse class="cls-31" cx="132.43" cy="261.85" rx="49.05" ry="5.15"/><path class="cls-13" d="M124.57,270.13a20.12,20.12,0,1,1-36.46,17Z"/><path class="cls-21" d="M91,286a3.58,3.58,0,0,0,5.38.88l8.78-7.49Z"/><path class="cls-21" d="M105.11,279.38l-8.83,7.31a3.57,3.57,0,0,0,.23,5.67h0a3.57,3.57,0,0,0,5.41-1.73l4.15-11.69Z"/><path class="cls-21" d="M106.06,278.94l-4.32,11.63a3.57,3.57,0,0,0,3,4.8h0a3.57,3.57,0,0,0,3.82-4.21l-2.27-12.34Z"/><path class="cls-21" d="M106.49,278.74l-.18.09,2.09,12.37a3.58,3.58,0,0,0,5,2.64h0a3.57,3.57,0,0,0,1.21-5.55Z"/><path class="cls-21" d="M106.74,278.62l-.25.12,8,9.67a3.57,3.57,0,1,0,3.94-5.64Z"/><path class="cls-21" d="M119,276.1l-11.27,2.08-1,.45L118.36,283a3.57,3.57,0,0,0,4.8-3h0A3.56,3.56,0,0,0,119,276.1Z"/><path class="cls-21" d="M107.61,278.22,119,276.29a3.56,3.56,0,0,0,2.77-4.68Z"/><path class="cls-13" d="M170.46,314.25a20.12,20.12,0,1,1-29.05-27.85Z"/><path class="cls-21" d="M143.59,288.7a3.57,3.57,0,0,0,1.12,5.33l10.15,5.48Z"/><path class="cls-21" d="M154.8,299.45l-10-5.59a3.57,3.57,0,0,0-5.21,2.26h0a3.57,3.57,0,0,0,3.57,4.42l12.41-.36Z"/><path class="cls-21" d="M155.56,300.18l-12.4.16a3.57,3.57,0,0,0-3.38,4.57h0a3.57,3.57,0,0,0,5.3,2l10.68-6.58Z"/><path class="cls-21" d="M155.9,300.51l-.14-.14L145,306.78a3.58,3.58,0,0,0-.65,5.65h0a3.57,3.57,0,0,0,5.61-.88Z"/><path class="cls-21" d="M156.1,300.7l-.2-.2-6.13,10.95a3.57,3.57,0,1,0,6.68,1.64Z"/><path class="cls-21" d="M162.87,311.18l-6-9.76-.77-.73.17,12.41a3.56,3.56,0,0,0,4.56,3.38h0A3.57,3.57,0,0,0,162.87,311.18Z"/><path class="cls-21" d="M156.8,301.36l5.9,9.92a3.57,3.57,0,0,0,5.37.9Z"/><polygon class="cls-20" points="109.25 309.38 96.5 313.58 99.88 307.62 112.63 303.42 109.25 309.38"/><rect class="cls-20" x="98.27" y="311.14" width="13.42" height="13.42" transform="matrix(0.95, -0.31, 0.31, 0.95, -94.17, 48.8)"/><polygon class="cls-20" points="112.64 303.43 109.25 309.38 113.45 322.13 116.84 316.18 112.64 303.43"/><polygon class="cls-20" points="172.46 277.49 160.34 271.74 166.89 269.75 179.02 275.51 172.46 277.49"/><rect class="cls-20" x="156.81" y="273.97" width="13.42" height="13.42" transform="translate(136.18 -43.01) rotate(25.4)"/><polygon class="cls-20" points="179.01 275.52 172.46 277.49 166.71 289.62 173.25 287.65 179.01 275.52"/><g class="cls-28"><path class="cls-3" d="M174.13,256.64l-.31-.41c-1-1.27-2-2.51-3.12-3.69l-.16-.18-11.36-13.48-6.6-5.83,14-15.7-18.18,1.41-10,14.75,18.14,18.85.16.18c1.09,1.18,2.14,2.42,3.12,3.69l.31.41a52,52,0,0,1,10.61,31.54c0,15.88-10.7,33.91-23,43.84h12.64c12.33-9.93,24.41-28,24.41-43.84A52,52,0,0,0,174.13,256.64Z"/></g><path class="cls-32" d="M174.13,256.64l-.31-.41c-1-1.27-2-2.51-3.12-3.69l-.16-.18-18-19.31,14-15.7-18.18,1.41-10,14.65s20.44,21.55,21.42,22.82l.31.41a52,52,0,0,1,10.61,31.54c0,15.88-10.7,33.91-23,43.84h12.64c12.33-9.93,24.41-28,24.41-43.84A52,52,0,0,0,174.13,256.64Z"/><path class="cls-33" d="M166.54,232.06c-9,.9-21.24,1.45-34.76,1.45-13.06,0-25-.51-33.85-1.36"/></svg>