<svg id="Layer_1" data-name="Layer 1" xmlns="http://www.w3.org/2000/svg" xmlns:xlink="http://www.w3.org/1999/xlink" viewBox="0 0 500 500"><defs><style>.cls-1,.cls-6{fill:#10a51b;}.cls-1,.cls-10,.cls-11,.cls-12,.cls-13,.cls-14,.cls-15,.cls-16,.cls-19,.cls-2,.cls-20,.cls-21,.cls-22,.cls-23,.cls-24,.cls-25,.cls-30,.cls-31,.cls-4,.cls-5,.cls-9{stroke:#000;}.cls-1,.cls-10,.cls-12,.cls-13,.cls-16,.cls-19,.cls-2,.cls-22,.cls-23,.cls-24,.cls-25,.cls-30,.cls-31,.cls-5,.cls-9{stroke-width:1.13px;}.cls-2,.cls-27{fill:#475c71;}.cls-11,.cls-12,.cls-13,.cls-14,.cls-15,.cls-16,.cls-2,.cls-20,.cls-21,.cls-23,.cls-24,.cls-25,.cls-30,.cls-31,.cls-5{stroke-linecap:round;stroke-linejoin:round;}.cls-3{fill:#97dde5;}.cls-24,.cls-32,.cls-4{fill:#fff;}.cls-4{stroke-miterlimit:10;}.cls-26,.cls-5,.cls-9{fill:none;}.cls-7{clip-path:url(#clip-path);}.cls-8{fill:#88eb7a;}.cls-10,.cls-15{fill:#549cf1;}.cls-11{fill:#fd9390;}.cls-12{fill:#fd483f;}.cls-13{fill:#fae44b;}.cls-14,.cls-23{fill:#f7bb3c;}.cls-16{fill:#183878;}.cls-17{clip-path:url(#clip-path-2);}.cls-18{fill:#15357a;}.cls-19{fill:#fec56d;}.cls-20{fill:#f2f7f9;}.cls-21{fill:#cfd8dc;}.cls-22{fill:#f58426;}.cls-25{fill:#90a4ae;}.cls-28{clip-path:url(#clip-path-3);}.cls-29{fill:#061832;}.cls-31{fill:#f1c76b;}</style><clipPath id="clip-path"><path class="cls-1" d="M269.44,266.5c-3.48-2.22-6.88-4.59-10.17-7.13A122.7,122.7,0,0,1,235,234.64c-12.22-16.71-23.6-19.38-38.08-28-54.12-32.05-110.24-16.61-122-4.31V284.9c12.89-2,45.24-9.53,52.12-2.93,9.61,9.23-31.35,13.34-19.22,23.13,11.78,9.51,46.15,7.71,46.15,7.71,37.79,0,34.78,20,30.92,30.05h39.62c-4.07-19.87-8.6-69.63,48.11-69.63,0,0,3.11-.15,7.79-.35Q274.82,269.93,269.44,266.5Z"/></clipPath><clipPath id="clip-path-2"><path class="cls-1" d="M364.51,209.84c-8.09,9.45-16.29,19.22-25.58,27.95-14.09,13.25-33.64,18.94-52.32,20.92,23.25,0,67.51.68,72.53,6.65,6.81,8.09-18.79,9.76-14.34,17.72,3.72,6.66,50.79.86,52.94,8.23,1.14,3.91-5.45,5.12-11.9,6.38-3.26.64-6.55,1.15-9,1.68-11.4,2.42-9.3,12.9,23.17,18.44,7.23,1.23,16.83,1.93,24.55,2.5v-138C399.86,182.09,381.84,189.6,364.51,209.84Z"/></clipPath><clipPath id="clip-path-3"><path class="cls-2" d="M358.47,197.83c-5.22-2.57-13.73.47-16.11,9.34a.32.32,0,0,1,.06.43,15.38,15.38,0,0,1,1.51,4.2h0c2.69,3.56,8.17,4.81,12.06,5.11C363.72,212,360.46,198.19,358.47,197.83Z"/></clipPath></defs><rect class="cls-3" x="-4.58" y="-4.58" width="509.17" height="509.17"/><path class="cls-4" d="M285.06,93.31h15.41a9,9,0,0,1,8.94-7.91h12.08a9,9,0,0,1,8.93-7.91h13.77a9,9,0,0,1,9,9v6.82h8.62a9,9,0,0,1,9,9v1.73H276.05v-1.73a9,9,0,0,1,9-9"/><path class="cls-5" d="M285.06,93.31h15.41a9,9,0,0,1,8.94-7.91h12.08a9,9,0,0,1,8.93-7.91h13.77a9,9,0,0,1,9,9v6.82h8.62a9,9,0,0,1,9,9v1.73H276.05v-1.73A9,9,0,0,1,285.06,93.31Z"/><line class="cls-4" x1="300.47" y1="93.31" x2="309.85" y2="93.31"/><line class="cls-5" x1="300.47" y1="93.31" x2="309.85" y2="93.31"/><line class="cls-4" x1="321.49" y1="85.4" x2="333.42" y2="85.4"/><line class="cls-5" x1="321.49" y1="85.4" x2="333.42" y2="85.4"/><line class="cls-4" x1="353.19" y1="93.31" x2="342.56" y2="93.31"/><line class="cls-5" x1="353.19" y1="93.31" x2="342.56" y2="93.31"/><path class="cls-4" d="M208.41,82.49H196.32a7.05,7.05,0,0,0-7-6.2h-9.47a7.05,7.05,0,0,0-7-6.2H162.06a7.06,7.06,0,0,0-7.06,7v5.35h-6.76a7.06,7.06,0,0,0-7.06,7.06v1.36h74.29V89.55a7.06,7.06,0,0,0-7.06-7.06"/><path class="cls-5" d="M208.41,82.49H196.32a7.05,7.05,0,0,0-7-6.2h-9.47a7.05,7.05,0,0,0-7-6.2H162.06a7.06,7.06,0,0,0-7.06,7v5.35h-6.76a7.06,7.06,0,0,0-7.06,7.06v1.36h74.29V89.55A7.06,7.06,0,0,0,208.41,82.49Z"/><line class="cls-4" x1="196.32" y1="82.49" x2="188.97" y2="82.49"/><line class="cls-5" x1="196.32" y1="82.49" x2="188.97" y2="82.49"/><line class="cls-4" x1="179.85" y1="76.29" x2="170.5" y2="76.29"/><line class="cls-5" x1="179.85" y1="76.29" x2="170.5" y2="76.29"/><line class="cls-4" x1="155" y1="82.49" x2="163.33" y2="82.49"/><line class="cls-5" x1="155" y1="82.49" x2="163.33" y2="82.49"/><path class="cls-4" d="M186.44,149.26H166.29a11.77,11.77,0,0,0-11.68-10.35H138.82a11.76,11.76,0,0,0-11.67-10.34h-18a11.77,11.77,0,0,0-11.77,11.77v8.92H86.12A11.76,11.76,0,0,0,74.35,161v2.26H198.21V161a11.76,11.76,0,0,0-11.77-11.76"/><path class="cls-5" d="M186.44,149.26H166.29a11.77,11.77,0,0,0-11.68-10.35H138.82a11.76,11.76,0,0,0-11.67-10.34h-18a11.77,11.77,0,0,0-11.77,11.77v8.92H86.12A11.76,11.76,0,0,0,74.35,161v2.26H198.21V161A11.76,11.76,0,0,0,186.44,149.26Z"/><line class="cls-4" x1="166.29" y1="149.26" x2="154.03" y2="149.26"/><line class="cls-5" x1="166.29" y1="149.26" x2="154.03" y2="149.26"/><line class="cls-4" x1="138.82" y1="138.91" x2="123.23" y2="138.91"/><line class="cls-5" x1="138.82" y1="138.91" x2="123.23" y2="138.91"/><line class="cls-4" x1="97.38" y1="149.26" x2="111.28" y2="149.26"/><line class="cls-5" x1="97.38" y1="149.26" x2="111.28" y2="149.26"/><path class="cls-6" d="M269.44,266.5c-3.48-2.22-6.88-4.59-10.17-7.13A122.7,122.7,0,0,1,235,234.64c-12.22-16.71-23.6-19.38-38.08-28-54.12-32.05-110.24-16.61-122-4.31V284.9c12.89-2,45.24-9.53,52.12-2.93,9.61,9.23-31.35,13.34-19.22,23.13,11.78,9.51,46.15,7.71,46.15,7.71,37.79,0,34.78,20,30.92,30.05h39.62c-4.07-19.87-8.6-69.63,48.11-69.63,0,0,3.11-.15,7.79-.35Q274.82,269.93,269.44,266.5Z"/><g class="cls-7"><path class="cls-8" d="M218.39,325.43c-2.17-19.63.13-49.23,31.21-57.42a120.7,120.7,0,0,1-19.15-20.56c-10.13-13.85-20.83-35.86-32.44-47.87-1.22-.77-2.43-1.53-3.65-2.25-54.13-32.06-111.93-3.79-119.42,5.44v72c20.36-3.22,71.92-12,82.31-.2,8.81,10-33,13.89-20.85,23.68,11.78,9.51,47.78,7.16,47.78,7.16,28.7,0,13.29,12.63,2.52,23.1a21.82,21.82,0,0,1-.09,8.49l31.18-1.44A74.56,74.56,0,0,1,218.39,325.43Z"/></g><path class="cls-9" d="M269.44,266.5c-3.48-2.22-6.88-4.59-10.17-7.13A122.7,122.7,0,0,1,235,234.64c-12.22-16.71-23.6-19.38-38.08-28-54.12-32.05-110.24-16.61-122-4.31V284.9c12.89-2,45.24-9.53,52.12-2.93,9.61,9.23-31.35,13.34-19.22,23.13,11.78,9.51,46.15,7.71,46.15,7.71,37.79,0,34.78,20,30.92,30.05h39.62c-4.07-19.87-8.6-69.63,48.11-69.63,0,0,3.11-.15,7.79-.35Q274.82,269.93,269.44,266.5Z"/><path class="cls-10" d="M154,312.81s-34.37,1.8-46.15-7.71c-12.13-9.79,28.83-13.9,19.22-23.13-6.88-6.6-40.61,1.2-52.12,2.93v58h110C188.77,332.85,191.78,312.81,154,312.81Z"/><path class="cls-11" d="M157.17,186.71c.54,2.83,1.12,5.65,1.73,8.43q-2-2.71-3.85-5.49a138.7,138.7,0,0,0-11.19,18.84q2.61,6.24,5.45,12.29-3.85-3.74-7.64-7.61a133.81,133.81,0,0,0-7.46,21.34Q140.28,243,146.77,251q-7.22-4.07-14.33-8.44a118.91,118.91,0,0,0-1.88,15.33c-.22,4.05-.22,7.11-.09,11q6.65,3.9,13.36,7.51-6.53-.61-13.06-1.29a104.6,104.6,0,0,0,3.36,19.38c3.24-.66,6.48-1.3,9.72-1.94q-4.32,2.76-8.6,5.62a60.58,60.58,0,0,0,5.8,12.9c1.74-1.63,3.48-3.24,5.24-4.82-1.25,2.35-2.48,4.74-3.68,7.14,3.9,5.36,8.19,8,12.27,7.41A333.65,333.65,0,0,1,168.5,173.57,108,108,0,0,0,157.17,186.71Z"/><path class="cls-12" d="M174.21,263.71q-7,2.28-13.94,4.77,7-4.87,14.23-9.35c.38-6.8.44-13.44.32-19.88q-6.25,3.06-12.45,6.39,6-6.73,12.24-13c-.36-9-1-17.51-1.77-25.19q-3.94,2.33-7.88,4.79,3.66-4.64,7.45-9.08c-1.78-17.34-3.87-29.59-3.92-29.59a333.7,333.7,0,0,0-13.61,147.17c4.57-.68,8.23-5.24,11.09-12.19q-3.22-2.57-6.4-5.23,3.7,1.29,7.43,2.52a106.34,106.34,0,0,0,4.11-16.21l-6.88,1c2.46-1.34,4.92-2.64,7.38-3.92C172.78,279.67,173.64,271.92,174.21,263.71Z"/><path class="cls-13" d="M70.3,214.83q3.21,2.88,6.48,5.66c-2.13-.66-4.27-1.34-6.4-2a140.79,140.79,0,0,0,2.51,21.76q5.86,3.4,11.78,6.49-5.34-.63-10.69-1.43a133.48,133.48,0,0,0,7,21.5q10,3.11,20,5.49-8.21,1.14-16.52,2a119,119,0,0,0,7.79,13.34c2.27,3.36,4.14,5.8,6.57,8.78q7.64-.91,15.18-2.11-5.58,3.47-11.18,6.88a103.74,103.74,0,0,0,14.41,13.38q3.27-3.72,6.57-7.42-1.78,4.8-3.45,9.68a60.6,60.6,0,0,0,12.43,6.75c.39-2.35.81-4.68,1.25-7q.65,3.94,1.39,7.92c6.35,1.9,11.37,1.41,14.25-1.55A333.6,333.6,0,0,1,71.35,197.51,109.29,109.29,0,0,0,70.3,214.83Z"/><path class="cls-14" d="M130.48,265.78q-4.17,6-8.2,12.24,2.66-8.14,5.66-16c-3.82-5.64-7.79-11-11.79-16q-3.12,6.23-6,12.63.69-9,1.86-17.77c-5.73-6.94-11.42-13.31-16.66-19q-1.74,4.26-3.37,8.59.1-5.91.43-11.74c-11.92-12.72-21-21.21-21-21.17a333.64,333.64,0,0,0,78.27,125.36c3.23-3.31,3.38-9.15,1.45-16.41q-4.12-.09-8.26-.3,3.74-1.21,7.44-2.49a106.6,106.6,0,0,0-6.55-15.38l-4.86,5c1.14-2.55,2.31-5.07,3.5-7.59C139,279.36,135,272.67,130.48,265.78Z"/><path class="cls-13" d="M136.07,308.38a328.23,328.23,0,0,0,27.16,27.41"/><path class="cls-15" d="M109.18,194.29c1.46,2.48,2.95,4.94,4.46,7.36q-2.74-1.91-5.48-3.88a139.77,139.77,0,0,0-4.22,21.49q4.56,5,9.25,9.76-4.87-2.22-9.74-4.61a133.74,133.74,0,0,0,.12,22.61q8.58,6,17.35,11.29-8.16-1.41-16.33-3.14A119.71,119.71,0,0,0,108,270.24c1.15,3.89,2.18,6.78,3.59,10.36q7.56,1.44,15.1,2.59-6.36,1.62-12.74,3.17a105.88,105.88,0,0,0,9.66,17.13q4.26-2.57,8.52-5.09-3.15,4.05-6.22,8.18a59.88,59.88,0,0,0,9.79,10.21q1.64-3.18,3.31-6.3c-.39,2.64-.74,5.3-1.07,8,5.47,3.74,10.4,4.8,14,2.86a333.68,333.68,0,0,1-36.51-143.21A111,111,0,0,0,109.18,194.29Z"/><path class="cls-16" d="M151.05,261.12q-5.82,4.49-11.54,9.16,5-6.94,10.28-13.57c-1.93-6.53-4.1-12.82-6.37-18.84q-4.87,5-9.58,10.2,3.38-8.37,7.16-16.36c-3.35-8.35-6.83-16.15-10.11-23.15q-2.94,3.52-5.81,7.16,1.89-5.59,4-11.05c-7.5-15.74-13.56-26.59-13.61-26.56A333.68,333.68,0,0,0,152,321.32c4.07-2.17,6-7.69,6.36-15.2-2.6-.89-6.91-2.79-6.91-2.79s4.36-.05,7-.11a107.83,107.83,0,0,0-1.56-16.65l-6.14,3.25c1.86-2.07,3.74-4.13,5.64-6.16C155,276.64,153.26,269.05,151.05,261.12Z"/><path class="cls-16" d="M143.43,303.4A329.86,329.86,0,0,0,161,337.77"/><path class="cls-1" d="M227.84,184.07c-12.78,3.69-27.07,10.2-33.48,13.26A136,136,0,0,1,235,234.64a122.7,122.7,0,0,0,24.26,24.73,177.14,177.14,0,0,0,27.34-.66c18.68-2,38.23-7.67,52.32-20.92,9.29-8.73,17.49-18.5,25.58-27.95C308.5,160.53,242.77,179.75,227.84,184.07Z"/><path class="cls-10" d="M399.94,314.91c-32.86-.92-32.44-13.36-21-15.78,2.49-.53,3.68-.8,6.94-1.44,6.45-1.26,12.8-3,12.71-6.38-.17-7.07-50-1.57-53.75-8.23-4.45-8,21.15-9.63,14.34-17.72-5-6-49.28-6.69-72.53-6.65a177.14,177.14,0,0,1-27.34.66c3.29,2.54,6.69,4.91,10.17,7.13,19.84-.35,71.19-.89,72.08,3.08s-18.61,2.51-31.17,2.51c-9.36,0-21.92.45-29.92.79-4.68.2-7.79.35-7.79.35-56.71,0-52.18,49.76-48.11,69.63h200V316.74A218.32,218.32,0,0,0,399.94,314.91Z"/><path class="cls-1" d="M341.52,269.58c-.89-4-52.24-3.43-72.08-3.08,3.58,2.28,7.25,5.26,11,7.23,8-.33,20.56-.79,29.92-.79C322.91,272.94,342.38,273.46,341.52,269.58Z"/><path class="cls-6" d="M364.51,209.84c-8.09,9.45-16.29,19.22-25.58,27.95-14.09,13.25-33.64,18.94-52.32,20.92,23.25,0,67.51.68,72.53,6.65,6.81,8.09-18.79,9.76-14.34,17.72,3.72,6.66,50.79.86,52.94,8.23,1.14,3.91-5.45,5.12-11.9,6.38-3.26.64-6.55,1.15-9,1.68-11.4,2.42-9.3,12.9,23.17,18.44,7.23,1.23,16.83,1.93,24.55,2.5v-138C399.86,182.09,381.84,189.6,364.51,209.84Z"/><g class="cls-17"><path class="cls-8" d="M424.52,311.84V177.07c-.51.08-1,.18-1.53.28C375.1,189.06,374,249.77,309.78,254.17c6.7,0,3.31.87,3.31.87s61.73-.75,69.39,5.43c9.56,7.71-22.09,8.69-17.64,16.83,3.71,6.81,45.9,3.74,50.82,10.43,6.11,8.31-23,11.7-11.81,19.22C407.89,309.66,424.52,311.84,424.52,311.84Z"/></g><path class="cls-9" d="M364.51,209.84c-8.09,9.45-16.29,19.22-25.58,27.95-14.09,13.25-33.64,18.94-52.32,20.92,23.25,0,67.51.68,72.53,6.65,6.81,8.09-18.79,9.76-14.34,17.72,3.72,6.66,50.79.86,52.94,8.23,1.14,3.91-5.45,5.12-11.9,6.38-3.26.64-6.55,1.15-9,1.68-11.4,2.42-9.3,12.9,23.17,18.44,7.23,1.23,16.83,1.93,24.55,2.5v-138C399.86,182.09,381.84,189.6,364.51,209.84Z"/><rect class="cls-9" x="74.94" y="342.87" width="349.58" height="83.25"/><path class="cls-18" d="M130,376.67h-3.36a10.68,10.68,0,0,0-1.35-3.48,11,11,0,0,0-2.43-2.79,11.15,11.15,0,0,0-3.32-1.86,11.94,11.94,0,0,0-4-.66,11.6,11.6,0,0,0-6.32,1.8,12.61,12.61,0,0,0-4.55,5.3,22.28,22.28,0,0,0,0,17.12,12.55,12.55,0,0,0,4.55,5.28,11.59,11.59,0,0,0,6.32,1.79,11.94,11.94,0,0,0,4-.66,11.12,11.12,0,0,0,3.32-1.85,10.78,10.78,0,0,0,3.78-6.27H130a14.62,14.62,0,0,1-1.67,4.68,13.91,13.91,0,0,1-3.11,3.8,14.16,14.16,0,0,1-4.33,2.54,15.44,15.44,0,0,1-5.37.91,14.69,14.69,0,0,1-8.19-2.32,15.67,15.67,0,0,1-5.6-6.52,25.52,25.52,0,0,1,0-19.9,15.7,15.7,0,0,1,5.6-6.53,14.76,14.76,0,0,1,8.19-2.31,15.44,15.44,0,0,1,5.37.9,13.75,13.75,0,0,1,4.33,2.53,14.21,14.21,0,0,1,3.11,3.8A14.56,14.56,0,0,1,130,376.67Z"/><path class="cls-18" d="M172.89,383.53a22.79,22.79,0,0,1-2,9.94,15.77,15.77,0,0,1-5.6,6.53,15.62,15.62,0,0,1-16.38,0,15.7,15.7,0,0,1-5.6-6.53,25.47,25.47,0,0,1,0-19.88,15.66,15.66,0,0,1,5.6-6.54,15.67,15.67,0,0,1,16.38,0,15.74,15.74,0,0,1,5.6,6.54A22.75,22.75,0,0,1,172.89,383.53Zm-3.25,0A19.84,19.84,0,0,0,168,375.1a12.58,12.58,0,0,0-4.49-5.36,12.08,12.08,0,0,0-12.88,0,12.65,12.65,0,0,0-4.49,5.36,22.37,22.37,0,0,0,0,16.84,12.73,12.73,0,0,0,4.49,5.37,12.14,12.14,0,0,0,12.9,0A12.54,12.54,0,0,0,168,392,19.52,19.52,0,0,0,169.64,383.53Z"/><path class="cls-18" d="M186,401.82V365.24h3.34v33.58h17.43v3Z"/><path class="cls-18" d="M249.31,383.53a22.64,22.64,0,0,1-2,9.94,15.63,15.63,0,0,1-5.6,6.53,15.6,15.6,0,0,1-16.37,0,15.63,15.63,0,0,1-5.6-6.53,25.47,25.47,0,0,1,0-19.88,15.59,15.59,0,0,1,5.6-6.54,15.66,15.66,0,0,1,16.37,0,15.59,15.59,0,0,1,5.6,6.54A22.61,22.61,0,0,1,249.31,383.53Zm-3.25,0a19.84,19.84,0,0,0-1.64-8.43,12.58,12.58,0,0,0-4.49-5.36,12.08,12.08,0,0,0-12.88,0,12.65,12.65,0,0,0-4.49,5.36,22.37,22.37,0,0,0,0,16.84,12.73,12.73,0,0,0,4.49,5.37,12.14,12.14,0,0,0,12.9,0,12.54,12.54,0,0,0,4.49-5.37A19.52,19.52,0,0,0,246.06,383.53Z"/><path class="cls-18" d="M262.41,365.24h3.86l13.27,31.86h.33l13.27-31.86H297v36.58h-3.15V372.29h-.28l-12.35,29.53h-3l-12.35-29.53h-.28v29.53h-3.15Z"/><path class="cls-18" d="M311.74,401.82V365.24h12.35a12.63,12.63,0,0,1,6,1.25,8.38,8.38,0,0,1,3.58,3.41,10,10,0,0,1,1.2,4.91,9.12,9.12,0,0,1-.77,3.91,6.93,6.93,0,0,1-2.09,2.63,8.58,8.58,0,0,1-2.94,1.44v.29a7,7,0,0,1,3.43,1.24,8.61,8.61,0,0,1,2.73,3.12,10.05,10.05,0,0,1,1.07,4.79,9.8,9.8,0,0,1-1.23,4.93,8.44,8.44,0,0,1-3.78,3.42,14.91,14.91,0,0,1-6.48,1.24Zm3.34-20.06h9.31a7.83,7.83,0,0,0,3.79-.89,6.53,6.53,0,0,0,2.53-2.47,7,7,0,0,0,.91-3.59,6.3,6.3,0,0,0-1.89-4.74q-1.89-1.83-5.64-1.83h-9Zm0,17.06h9.68c2.83,0,4.91-.63,6.26-1.88a6.12,6.12,0,0,0,2-4.71,7.25,7.25,0,0,0-3.85-6.51,8.88,8.88,0,0,0-4.29-1h-9.83Z"/><path class="cls-18" d="M352.68,365.24v36.58h-3.34V365.24Z"/><path class="cls-18" d="M367.48,401.82H364l13.3-36.58h3.58l13.3,36.58h-3.5l-11.47-32.24h-.25Zm2.52-14h18.14v3H370Z"/><line class="cls-5" x1="273.7" y1="62.74" x2="273.7" y2="55.15"/><line class="cls-5" x1="263.36" y1="62.74" x2="263.36" y2="55.15"/><line class="cls-5" x1="284.05" y1="62.84" x2="284.05" y2="55.24"/><path class="cls-19" d="M252.64,96.17C192,115.61,152.05,283.94,152.05,342.87h48.63C204,239.53,217.06,187,235.5,132.91,240.83,117.28,246.34,104.82,252.64,96.17Z"/><path class="cls-1" d="M199.69,253.7a7.33,7.33,0,0,0-2.12,4.35,5.73,5.73,0,0,1-4,5c-2,.5-3.71,1.59-4.11,3.68-.56,2.87,1.83,6.32,0,8.52-1.6,1.91-4.5,1.21-6.88,1.77-5.38,1.28-5.28,5.11-4.44,8.34,1.2,4.63.33,6.07-5.65,7.35-3.76.8-6.52,3.59-8.05,8.23-.82,2.5.25,7.81.46,10,.22,2.31.88,4.8-.08,7-1.49,3.44-5.73,5-9,6.87a15.31,15.31,0,0,0-3,2.34c-.48,5.83-.72,11.11-.72,15.73h48.63c1.14-35.28,3.41-64.63,6.64-90.15A6.71,6.71,0,0,0,199.69,253.7Z"/><polygon class="cls-20" points="208.78 322.75 181.22 304.87 181.22 292.07 208.78 309.94 208.78 322.75"/><polygon class="cls-20" points="215.24 286.17 187.69 268.29 187.69 255.49 215.24 273.36 215.24 286.17"/><polygon class="cls-20" points="224.49 250.43 196.94 232.56 196.94 219.75 224.49 237.63 224.49 250.43"/><polygon class="cls-20" points="232.49 212.37 204.94 194.49 204.94 181.69 232.49 199.57 232.49 212.37"/><polygon class="cls-20" points="243.42 176.6 215.86 158.73 215.86 145.93 243.42 163.8 243.42 176.6"/><polygon class="cls-20" points="258.84 149.21 231.29 131.33 231.29 118.53 258.84 136.41 258.84 149.21"/><polygon class="cls-21" points="175.42 308.29 205.89 288.34 205.89 275.53 175.42 295.49 175.42 308.29"/><polygon class="cls-21" points="180.57 271.13 208.13 253.25 208.13 240.45 180.57 258.32 180.57 271.13"/><polygon class="cls-21" points="188.41 233.83 215.97 215.95 215.97 203.15 188.41 221.02 188.41 233.83"/><polygon class="cls-21" points="197.16 195.88 227.65 176.17 227.65 164.3 197.16 184.02 197.16 195.88"/><polygon class="cls-21" points="209.79 159.97 240.9 139.72 240.9 128.86 209.79 149.12 209.79 159.97"/><polygon class="cls-21" points="225.37 131.22 256.49 110.97 256.49 100.11 225.37 120.36 225.37 131.22"/><polygon class="cls-21" points="174.71 342.87 202.27 325.11 202.27 312.31 174.71 330.18 174.71 342.87"/><polygon class="cls-20" points="202.98 326.14 175.42 308.27 175.42 295.46 202.98 313.34 202.98 326.14"/><polygon class="cls-20" points="208.13 288.99 180.57 271.11 180.57 258.31 208.13 276.19 208.13 288.99"/><polygon class="cls-20" points="215.97 251.69 188.41 233.81 188.41 221.01 215.97 238.89 215.97 251.69"/><polygon class="cls-20" points="222.69 212.44 197.16 195.87 197.16 184 222.69 200.57 222.69 212.44"/><polygon class="cls-20" points="233.16 175.12 209.79 159.96 209.79 149.1 233.16 164.27 233.16 175.12"/><polygon class="cls-20" points="248.75 146.37 225.37 131.21 225.37 120.35 248.75 135.51 248.75 146.37"/><rect class="cls-20" x="174.69" y="330.56" width="27.29" height="12.31"/><path class="cls-22" d="M333,342.87C326.69,205.6,305.72,82.3,275.55,82.3,258,82.3,246.38,101,235.5,132.91,217.06,187,204,239.53,200.68,342.87Z"/><path class="cls-19" d="M329.27,283.74a6.27,6.27,0,0,0-5.93,6.26v20.58a2.28,2.28,0,0,1-2.3,2.12h-.16a2.28,2.28,0,0,1-2.28-2.12V277.46a3.67,3.67,0,0,0-3.67-3.67,3.65,3.65,0,0,1-3.65-3.64V264a2.66,2.66,0,0,0-2.66-2.67,2.07,2.07,0,0,1-2.07-2.06V193.82a1.72,1.72,0,0,0-3.43,0L303,206.9a1.65,1.65,0,0,1-1.65,1.65,1.56,1.56,0,0,0-1.56,1.56v31.51a1.67,1.67,0,0,1-3.33,0V220.06a2.12,2.12,0,0,0-4.23,0v26.1c0,2.74-1.29,5-4,5h-.94a2.77,2.77,0,0,0-2.77,2.77v43.17a2.53,2.53,0,0,1-2.49,2.59,2.6,2.6,0,0,1-2.5-2.59V267.81a2.1,2.1,0,0,0-4.19,0V285a2.1,2.1,0,1,1-4.19,0V212.91a2.14,2.14,0,1,0-4.28,0V265a1.79,1.79,0,0,1-3.57,0V239.67a2.14,2.14,0,0,0-4.28,0V269.1a2.33,2.33,0,0,1-2.33,2.33,2.66,2.66,0,0,0-2.66,2.66v17.72a5.31,5.31,0,0,1-5.31,5.31,5,5,0,0,0-5,5v20.51a2.44,2.44,0,0,1-4.88,0V241.25c0-1.06-.7-3-2.66-3a2.76,2.76,0,0,0-2.86,2.9v24.79c0,1.55-.79,2.74-2.14,2.74a2.3,2.3,0,0,1-2.33-2.58V226.92a2.62,2.62,0,1,0-5.23,0v58.4a2.23,2.23,0,0,1-1.78,2.23,2.15,2.15,0,0,1-2.5-2.12V259.81a2.72,2.72,0,0,0-2.35-2.75,2.62,2.62,0,0,0-2.89,2.6v17.77c0,1.71-1.38,3.51-3.09,3.51h-.13c-5.41,0-6.13,4.26-7,5.58q-.7,8.53-1.3,17.62c-.78,12.09-1.4,25-1.84,38.74H333C332,322.74,330.8,302.92,329.27,283.74Z"/><path class="cls-6" d="M223.75,218.32a9.23,9.23,0,0,0,2.88-5.61,7.49,7.49,0,0,1,5.5-6.46c2.76-.65,5.05-2.05,5.61-4.75.76-3.7-2.5-8.14,0-11,2.18-2.46,6.41-.84,9.37-2.28,4.56-2.23,3.12-9.48,1.32-13.67a11.23,11.23,0,0,1-.85-6.51c1-5.29,4.61-5.36,7.85-5.9,7.89-1.31,15.77-7.34,15.89-15.33.05-3.81-1.6-7.83,0-11.29,2-4.43,8.21-5.44,10.81-9.56s1.46-10-1.73-13.53a24.93,24.93,0,0,1-5.95-12.34c-1.63-9.92-8.69-12.87-13.3-12.85-10.09,7.53-18,23.37-25.65,45.65-9.19,27-17,53.51-23,86.16A9.52,9.52,0,0,0,223.75,218.32Z"/><path class="cls-9" d="M223.75,218.32a9.23,9.23,0,0,0,2.88-5.61,7.49,7.49,0,0,1,5.5-6.46c2.76-.65,5.05-2.05,5.61-4.75.76-3.7-2.5-8.14,0-11,2.18-2.46,6.41-.84,9.37-2.28,4.56-2.23,3.12-9.48,1.32-13.67a11.23,11.23,0,0,1-.85-6.51c1-5.29,4.61-5.36,7.85-5.9,7.89-1.31,15.77-7.34,15.89-15.33.05-3.81-1.6-7.83,0-11.29,2-4.43,8.21-5.44,10.81-9.56s1.46-10-1.73-13.53a24.93,24.93,0,0,1-5.95-12.34c-1.63-9.92-8.69-12.87-13.3-12.85-10.09,7.53-18,23.37-25.65,45.65-9.19,27-17,53.51-23,86.16A9.52,9.52,0,0,0,223.75,218.32Z"/><rect class="cls-23" x="262.7" y="67.92" width="22" height="12.39"/><rect class="cls-24" x="262.7" y="80.31" width="22" height="6.19"/><rect class="cls-23" x="260.85" y="62.74" width="25.7" height="5.18"/><rect class="cls-25" x="266.1" y="71.46" width="5.89" height="4.76"/><rect class="cls-25" x="275.42" y="71.46" width="5.89" height="4.76"/><path class="cls-2" d="M340,155.79c3,3.67,23.86,29.06,28.55,38.74,4.73-2.28,11.2-2.36,17.65.18-.15-.44-.33-.88-.51-1.33C381.25,182.59,365.71,164.94,340,155.79Z"/><path class="cls-24" d="M376.63,160.54a5.31,5.31,0,0,0,4.88-4.49h-12.1c2.54-1.26,5.39-6.73,3.45-9.39l-7.71,5.12c2.3-6.29,1.63-12.09-1.77-15.05l-4.73,11.86c2.22-5.57,0-21.22-5-23,0,0-2.38,12.59-4.18,21.76-.05-22.43-6.18-32-9.86-31.88v39.91l.14.16.24.3c25.7,9.15,41.24,26.8,45.69,37.59.19.46.37.9.51,1.33.23.66.44,1.32.62,2a20.73,20.73,0,0,0,2.36-.57,15,15,0,0,0,6.59-3.82l5.31-6.12C398.54,172.5,378.66,160.86,376.63,160.54Z"/><path class="cls-2" d="M432.32,208.68c-4.53-.36-10.51-1.17-17-1.69l-.32,0c-9-.7-18.87-.82-27.32,1.65,0,0-5.73-13-4.51-13.26a36.73,36.73,0,0,0,5-1.51,10.47,10.47,0,0,0,2.11-1.67c-7.62-.78-15.3-.28-22.1,2.36a10.9,10.9,0,0,0-5.44,5.23h0c2.2,4.78,2.42,11.37-1.78,16a3.74,3.74,0,0,0,.6-.7c9.41,18.59,48.93,6.94,63.44-1.72,1.95-1.16,4.68-1.73,5.76-2.57a5.53,5.53,0,0,0,1.38-1.39C432.39,209.27,432.47,209,432.32,208.68Z"/><path class="cls-26" d="M386.21,194.71c-.14-.43-.32-.87-.51-1.33C385.88,193.83,386.06,194.27,386.21,194.71Z"/><path class="cls-2" d="M460.71,207.76c-.45-2-15.55-.9-15.55-.9l2-.36c2.41-.5,6.92-1.4,5.77-3-1.65-2.24-39.42,3.33-39.42,3.33s14.13,1.35,10.87,6.75c12.69.42,32.75,1.89,33.32-1,.43-2.11-8.1-2.82-8.1-2.82S461.31,210.36,460.71,207.76Z"/><path class="cls-5" d="M343.87,211.78a.25.25,0,0,0,0,.08l.05-.06h0Z"/><path class="cls-27" d="M358.47,197.83c-5.22-2.57-13.73.47-16.11,9.34a.32.32,0,0,1,.06.43,15.38,15.38,0,0,1,1.51,4.2h0c2.69,3.56,8.17,4.81,12.06,5.11C363.72,212,360.46,198.19,358.47,197.83Z"/><g class="cls-28"><path class="cls-29" d="M344.21,209.3a21.05,21.05,0,0,0-1.31-3.5c-.19.45-.38.9-.54,1.37a.32.32,0,0,1,.06.43,15.38,15.38,0,0,1,1.51,4.2l.13-.12-.13.12c2.69,3.56,8.17,4.81,12.06,5.11,1.1-.7,2.71-3.53,3.4-4.53C355,213.38,346.87,212.5,344.21,209.3Z"/></g><path class="cls-5" d="M358.47,197.83c-5.22-2.57-13.73.47-16.11,9.34a.32.32,0,0,1,.06.43,15.38,15.38,0,0,1,1.51,4.2h0c2.69,3.56,8.17,4.81,12.06,5.11C363.72,212,360.46,198.19,358.47,197.83Z"/><path class="cls-24" d="M366.54,196.5c-1.44-2.45-7.28-1.79-7.85,1.28,2.52,5.85,3.18,13.85-2.5,19.13-.8,2.24,4.75,5.84,8.51,1.68C370.56,212.12,369.61,203.17,366.54,196.5Z"/><path class="cls-29" d="M423.52,208.69c-4.53-.35-1.71-1.18-8.22-1.7l-.32,0c-9-.7-18.87-.82-27.32,1.65,0,0-6.06,1.63-9-3.43-1.73-2.93,2.54-8.85,3.4-10.59-4.09.83-8.53,6.14-7.49,11.78,2.33,12.78,22.52,10.09,31.54,8.47C414.54,213.32,423.67,209,423.52,208.69Z"/><path class="cls-2" d="M451.9,191.4l-26.67.43c10.37-1.76,17.2-7.36,18.47-12.73l-25.55,8.61C429.59,182.5,434,176,433.7,169.87l-23.25,13.69c11.22-7.39,16.57-23.1,14.57-27.77,0,0-27.35,29.53-34.81,36.38a10.47,10.47,0,0,1-2.11,1.67c-.54.19-3.54.83-5.75,1.3-1.21.25-6.36,3.11-4,9.33,1.7,4.55,9.34,4.14,9.34,4.14,9.49.08,32.39.21,33.08.21,12.69,0,17-10,17-10C445.63,198.77,450.37,194.84,451.9,191.4Z"/><line class="cls-5" x1="427.94" y1="198.76" x2="438.01" y2="198.76"/><path class="cls-30" d="M351.44,206.68a2.48,2.48,0,0,0,2.07-1.47,2.57,2.57,0,0,0-2.32-1.13,2.46,2.46,0,0,0-2.07,1.47A2.59,2.59,0,0,0,351.44,206.68Z"/><path class="cls-31" d="M336.42,210.82c1.73,2.14,5.78,2.71,8.79,1.13l0-.14A7.78,7.78,0,0,0,336.42,210.82Z"/><path class="cls-31" d="M344.37,203.52c-4.95-.3-9.61,3.62-10.06,9.44a4.44,4.44,0,0,1,2.11-2.14,7.78,7.78,0,0,1,8.82,1A17.59,17.59,0,0,0,344.37,203.52Z"/><circle class="cls-32" cx="352.04" cy="204.89" r="0.56"/></svg>