<svg id="Layer_1" data-name="Layer 1" xmlns="http://www.w3.org/2000/svg" viewBox="0 0 500 500"><defs><style>.cls-1,.cls-11{fill:#00ac6b;}.cls-17,.cls-2,.cls-20,.cls-5,.cls-9{fill:#fff;}.cls-14,.cls-15,.cls-19,.cls-3,.cls-4,.cls-6{fill:none;}.cls-10,.cls-11,.cls-12,.cls-14,.cls-15,.cls-16,.cls-17,.cls-20,.cls-21,.cls-22,.cls-3,.cls-4,.cls-5,.cls-6,.cls-7,.cls-8,.cls-9{stroke:#000;}.cls-10,.cls-11,.cls-12,.cls-14,.cls-18,.cls-19,.cls-3,.cls-5,.cls-6,.cls-7,.cls-8,.cls-9{stroke-width:1.13px;}.cls-10,.cls-11,.cls-12,.cls-14,.cls-15,.cls-16,.cls-17,.cls-20,.cls-21,.cls-22,.cls-4,.cls-7,.cls-8,.cls-9{stroke-miterlimit:10;}.cls-4{stroke-width:0.82px;}.cls-18,.cls-19,.cls-5,.cls-6{stroke-linecap:round;stroke-linejoin:round;}.cls-21,.cls-7{fill:#2c71f0;}.cls-16,.cls-22,.cls-8{fill:#ff928e;}.cls-10{fill:#15357a;}.cls-13{fill:#80aaf6;}.cls-18{fill:#fcee70;}.cls-18,.cls-19{stroke:#231f20;}.cls-20,.cls-21,.cls-22{stroke-width:0.87px;}</style></defs><rect class="cls-1" x="-5.23" y="-5.23" width="510.46" height="510.46"/><path class="cls-2" d="M108.57,403.1h-4.18l15.87-43.64h4.27L140.4,403.1h-4.18l-13.68-38.46h-.29Zm3-16.73h21.65V390H111.57Z"/><path class="cls-2" d="M183,359.46h4v28.89a15.28,15.28,0,0,1-2.09,8,14.78,14.78,0,0,1-5.81,5.52,19.51,19.51,0,0,1-17.27,0A14.92,14.92,0,0,1,156,396.3a15.13,15.13,0,0,1-2.09-7.95V359.46h4v28.62a12.24,12.24,0,0,0,1.56,6.19,11,11,0,0,0,4.38,4.27,14.91,14.91,0,0,0,13.24,0,11,11,0,0,0,4.38-4.27,12.33,12.33,0,0,0,1.54-6.19Z"/><path class="cls-2" d="M228.23,370.37a7.92,7.92,0,0,0-3.22-5.8,11.62,11.62,0,0,0-7.18-2.15,12.85,12.85,0,0,0-5.36,1.05,8.64,8.64,0,0,0-3.62,2.88,7.09,7.09,0,0,0-1.31,4.19,6,6,0,0,0,.75,3,7.06,7.06,0,0,0,2,2.22,13.93,13.93,0,0,0,2.81,1.59,26.4,26.4,0,0,0,3.12,1.11l4.61,1.32a31.44,31.44,0,0,1,4.17,1.47,16.83,16.83,0,0,1,3.83,2.25,10.59,10.59,0,0,1,2.79,3.3,9.74,9.74,0,0,1,1.05,4.68,11.25,11.25,0,0,1-1.81,6.28,12.41,12.41,0,0,1-5.2,4.42,21,21,0,0,1-15.85.15,12.48,12.48,0,0,1-5.16-4.1,11.6,11.6,0,0,1-2.11-6.07h4.1a7.58,7.58,0,0,0,1.7,4.37,9.35,9.35,0,0,0,3.88,2.71,15.79,15.79,0,0,0,11.13-.17,9.54,9.54,0,0,0,4-3.07,7.51,7.51,0,0,0,1.46-4.59,6,6,0,0,0-1.15-3.72,9,9,0,0,0-3.21-2.52,28.57,28.57,0,0,0-4.76-1.81l-5.22-1.54a19.26,19.26,0,0,1-8-4.24,9.12,9.12,0,0,1-2.84-6.9,10.46,10.46,0,0,1,1.89-6.19,12.74,12.74,0,0,1,5.11-4.18,17,17,0,0,1,7.26-1.5,16.63,16.63,0,0,1,7.2,1.49,12.53,12.53,0,0,1,5,4.11,10.79,10.79,0,0,1,2,5.93Z"/><path class="cls-2" d="M245.65,363v-3.58h31.64V363H263.46V403.1h-4V363Z"/><path class="cls-2" d="M292.24,403.1V359.46h14.08a16.36,16.36,0,0,1,7.77,1.67,11.25,11.25,0,0,1,4.71,4.63,14.12,14.12,0,0,1,1.58,6.76,13.94,13.94,0,0,1-1.58,6.73,11.07,11.07,0,0,1-4.7,4.56,16.36,16.36,0,0,1-7.72,1.64h-12v-3.64h11.89a12.63,12.63,0,0,0,5.68-1.13,7.44,7.44,0,0,0,3.38-3.22,10.27,10.27,0,0,0,1.12-4.94,10.51,10.51,0,0,0-1.13-5,7.72,7.72,0,0,0-3.4-3.31,12.41,12.41,0,0,0-5.72-1.17h-10V403.1Zm19.24-19.69,10.74,19.69h-4.61L307,383.41Z"/><path class="cls-2" d="M340.08,359.46V403.1h-4V359.46Z"/><path class="cls-2" d="M357.74,403.1h-4.18l15.87-43.64h4.27l15.87,43.64h-4.18l-13.68-38.46h-.29Zm3-16.73h21.65V390H360.74Z"/><rect class="cls-3" x="74.72" y="342.87" width="349.8" height="83.25"/><rect class="cls-4" x="120.95" y="188.33" width="236.27" height="155.03"/><path class="cls-5" d="M93.42,137h14.14a8.27,8.27,0,0,1,8.2-7.26h11.08a8.25,8.25,0,0,1,8.2-7.26h12.63a8.26,8.26,0,0,1,8.26,8.26V137h7.9a8.26,8.26,0,0,1,8.26,8.26v1.59H85.16v-1.59A8.26,8.26,0,0,1,93.42,137"/><line class="cls-5" x1="107.56" y1="136.97" x2="116.17" y2="136.97"/><line class="cls-6" x1="107.56" y1="136.97" x2="116.17" y2="136.97"/><line class="cls-5" x1="126.84" y1="129.71" x2="137.78" y2="129.71"/><line class="cls-6" x1="126.84" y1="129.71" x2="137.78" y2="129.71"/><line class="cls-6" x1="147.03" y1="136.97" x2="157.97" y2="136.97"/><path class="cls-5" d="M417.79,68.85H398.43a11.32,11.32,0,0,0-11.23-9.94H372A11.31,11.31,0,0,0,360.8,49H343.51A11.31,11.31,0,0,0,332.2,60.28v8.57H321.37a11.32,11.32,0,0,0-11.31,11.31v2.17h119V80.16a11.32,11.32,0,0,0-11.31-11.31"/><line class="cls-5" x1="398.42" y1="68.85" x2="386.64" y2="68.85"/><line class="cls-6" x1="398.42" y1="68.85" x2="386.64" y2="68.85"/><line class="cls-5" x1="372.03" y1="58.91" x2="357.04" y2="58.91"/><line class="cls-6" x1="372.03" y1="58.91" x2="357.04" y2="58.91"/><line class="cls-6" x1="344.39" y1="68.85" x2="329.4" y2="68.85"/><polygon class="cls-7" points="300.99 240.97 101.5 240.97 114.24 220.36 287.83 220.36 300.99 240.97"/><rect class="cls-8" x="101.5" y="240.98" width="199.49" height="102.38"/><rect class="cls-8" x="101.5" y="304.75" width="199.49" height="38.61"/><rect class="cls-8" x="77.84" y="204.78" width="16.2" height="33.42"/><rect class="cls-8" x="80.79" y="190.55" width="10.31" height="14.24"/><rect class="cls-8" x="82.94" y="180.58" width="6" height="9.97"/><path class="cls-8" d="M86.7,173.43h0a2.52,2.52,0,0,1,2.52,2.52v4.63a0,0,0,0,1,0,0h-5a0,0,0,0,1,0,0v-4.63a2.52,2.52,0,0,1,2.52-2.52Z"/><line class="cls-9" x1="86.7" y1="162.55" x2="86.7" y2="173.43"/><rect class="cls-9" x="77.84" y="204.78" width="16.2" height="5.63"/><path d="M85.94,212.69h0a1.41,1.41,0,0,1,1.41,1.41v17.64a0,0,0,0,1,0,0H84.53a0,0,0,0,1,0,0V214.11a1.41,1.41,0,0,1,1.41-1.41Z"/><path d="M81.19,212.69h0a.82.82,0,0,1,.82.82v18.24a0,0,0,0,1,0,0H80.38a0,0,0,0,1,0,0V213.51a.82.82,0,0,1,.82-.82Z"/><path d="M90.69,212.69h0a.82.82,0,0,1,.82.82v18.24a0,0,0,0,1,0,0H89.87a0,0,0,0,1,0,0V213.51A.82.82,0,0,1,90.69,212.69Z"/><path d="M85.94,192.42h0a.78.78,0,0,1,.78.78v9.71a0,0,0,0,1,0,0H85.16a0,0,0,0,1,0,0V193.2A.78.78,0,0,1,85.94,192.42Z"/><path d="M83.33,192.42h0a.45.45,0,0,1,.45.45v10a0,0,0,0,1,0,0h-.9a0,0,0,0,1,0,0v-10A.45.45,0,0,1,83.33,192.42Z"/><path d="M88.55,192.42h0a.45.45,0,0,1,.45.45v10a0,0,0,0,1,0,0h-.9a0,0,0,0,1,0,0v-10A.45.45,0,0,1,88.55,192.42Z"/><rect class="cls-9" x="82.94" y="182.99" width="6" height="2.58"/><rect class="cls-9" x="74.71" y="238.2" width="22.01" height="105.15"/><polygon class="cls-9" points="101.46 343.36 96.72 343.36 96.72 238.21 101.46 240.97 101.46 343.36"/><rect class="cls-9" x="94.04" y="210.41" width="2.68" height="27.79"/><rect class="cls-9" x="94.04" y="204.78" width="1.34" height="5.63"/><rect class="cls-9" x="91.09" y="190.55" width="2.17" height="14.24"/><rect class="cls-9" x="88.94" y="180.58" width="1.74" height="9.97"/><rect class="cls-8" x="308.45" y="204.78" width="16.2" height="33.42" transform="translate(633.11 442.99) rotate(-180)"/><rect class="cls-8" x="311.4" y="190.55" width="10.31" height="14.24" transform="translate(633.11 395.33) rotate(-180)"/><rect class="cls-8" x="313.55" y="180.58" width="6" height="9.97" transform="translate(633.11 371.12) rotate(-180)"/><path class="cls-8" d="M313.27,173.43h5a0,0,0,0,1,0,0v4.63a2.52,2.52,0,0,1-2.52,2.52h0a2.52,2.52,0,0,1-2.52-2.52v-4.63A0,0,0,0,1,313.27,173.43Z" transform="translate(631.58 354.01) rotate(-180)"/><line class="cls-9" x1="315.79" y1="162.55" x2="315.79" y2="173.43"/><rect class="cls-9" x="308.45" y="204.78" width="16.2" height="5.63" transform="translate(633.11 415.19) rotate(-180)"/><path d="M315.14,212.69H318a0,0,0,0,1,0,0v17.64a1.41,1.41,0,0,1-1.41,1.41h0a1.41,1.41,0,0,1-1.41-1.41V212.69A0,0,0,0,1,315.14,212.69Z" transform="translate(633.11 444.44) rotate(-180)"/><path d="M320.48,212.69h1.63a0,0,0,0,1,0,0v18.24a.82.82,0,0,1-.82.82h0a.82.82,0,0,1-.82-.82V212.69A0,0,0,0,1,320.48,212.69Z" transform="translate(642.6 444.44) rotate(-180)"/><path d="M311,212.69h1.63a0,0,0,0,1,0,0v18.24a.82.82,0,0,1-.82.82h0a.82.82,0,0,1-.82-.82V212.69A0,0,0,0,1,311,212.69Z" transform="translate(623.61 444.44) rotate(-180)"/><path d="M315.77,192.42h1.56a0,0,0,0,1,0,0v9.71a.78.78,0,0,1-.78.78h0a.78.78,0,0,1-.78-.78v-9.71A0,0,0,0,1,315.77,192.42Z" transform="translate(633.11 395.33) rotate(-180)"/><path d="M318.72,192.42h.9a0,0,0,0,1,0,0v10a.45.45,0,0,1-.45.45h0a.45.45,0,0,1-.45-.45v-10A0,0,0,0,1,318.72,192.42Z" transform="translate(638.33 395.33) rotate(-180)"/><path d="M313.49,192.42h.9a0,0,0,0,1,0,0v10a.45.45,0,0,1-.45.45h0a.45.45,0,0,1-.45-.45v-10A0,0,0,0,1,313.49,192.42Z" transform="translate(627.88 395.33) rotate(-180)"/><rect class="cls-9" x="313.55" y="182.99" width="6" height="2.58" transform="translate(633.11 368.55) rotate(-180)"/><rect class="cls-9" x="305.77" y="238.2" width="22.01" height="105.15" transform="translate(633.55 581.56) rotate(-180)"/><polygon class="cls-9" points="301.04 343.36 305.77 343.36 305.77 238.21 301.04 240.97 301.04 343.36"/><rect class="cls-9" x="305.77" y="210.41" width="2.68" height="27.79" transform="translate(614.23 448.62) rotate(-180)"/><rect class="cls-9" x="307.11" y="204.78" width="1.34" height="5.63" transform="translate(615.57 415.19) rotate(-180)"/><rect class="cls-9" x="309.23" y="190.55" width="2.17" height="14.24" transform="translate(620.63 395.33) rotate(-180)"/><rect class="cls-9" x="311.81" y="180.58" width="1.74" height="9.97" transform="translate(625.36 371.12) rotate(-180)"/><rect class="cls-9" x="101.53" y="240.98" width="199.44" height="12.74"/><rect class="cls-8" x="133.19" y="207.55" width="16.2" height="33.42"/><rect class="cls-8" x="136.13" y="193.32" width="10.31" height="14.24"/><rect class="cls-8" x="138.29" y="183.35" width="6" height="9.97"/><path class="cls-8" d="M141.29,178.37h0a1.76,1.76,0,0,1,1.76,1.76v3.23a0,0,0,0,1,0,0h-3.51a0,0,0,0,1,0,0v-3.23A1.76,1.76,0,0,1,141.29,178.37Z"/><line class="cls-9" x1="141.29" y1="170.78" x2="141.29" y2="178.37"/><rect class="cls-9" x="133.19" y="207.55" width="16.2" height="5.63"/><path class="cls-9" d="M141.29,215.46h0a1.41,1.41,0,0,1,1.41,1.41v17.64a0,0,0,0,1,0,0h-2.83a0,0,0,0,1,0,0V216.88A1.41,1.41,0,0,1,141.29,215.46Z"/><path class="cls-9" d="M136.54,215.46h0a.82.82,0,0,1,.82.82v18.24a0,0,0,0,1,0,0h-1.63a0,0,0,0,1,0,0V216.28A.82.82,0,0,1,136.54,215.46Z"/><path class="cls-9" d="M146,215.46h0a.82.82,0,0,1,.82.82v18.24a0,0,0,0,1,0,0h-1.63a0,0,0,0,1,0,0V216.28A.82.82,0,0,1,146,215.46Z"/><path d="M141.29,195.19h0a.78.78,0,0,1,.78.78v9.71a0,0,0,0,1,0,0h-1.56a0,0,0,0,1,0,0V196A.78.78,0,0,1,141.29,195.19Z"/><path d="M138.68,195.19h0a.45.45,0,0,1,.45.45v10a0,0,0,0,1,0,0h-.9a0,0,0,0,1,0,0v-10A.45.45,0,0,1,138.68,195.19Z"/><path d="M143.9,195.19h0a.45.45,0,0,1,.45.45v10a0,0,0,0,1,0,0h-.9a0,0,0,0,1,0,0v-10A.45.45,0,0,1,143.9,195.19Z"/><rect class="cls-9" x="138.29" y="185.76" width="6" height="2.58"/><rect class="cls-9" x="130.38" y="240.98" width="21.81" height="102.38"/><rect class="cls-8" x="253.11" y="207.55" width="16.2" height="33.42"/><rect class="cls-8" x="256.05" y="193.32" width="10.31" height="14.24"/><rect class="cls-8" x="258.21" y="183.35" width="6" height="9.97"/><path class="cls-8" d="M261.21,178.37h0a1.76,1.76,0,0,1,1.76,1.76v3.23a0,0,0,0,1,0,0h-3.51a0,0,0,0,1,0,0v-3.23A1.76,1.76,0,0,1,261.21,178.37Z"/><line class="cls-9" x1="261.21" y1="170.78" x2="261.21" y2="178.37"/><rect class="cls-9" x="253.11" y="207.55" width="16.2" height="5.63"/><path class="cls-9" d="M261.21,215.46h0a1.41,1.41,0,0,1,1.41,1.41v17.64a0,0,0,0,1,0,0h-2.83a0,0,0,0,1,0,0V216.88A1.41,1.41,0,0,1,261.21,215.46Z"/><path class="cls-9" d="M256.46,215.46h0a.82.82,0,0,1,.82.82v18.24a0,0,0,0,1,0,0h-1.63a0,0,0,0,1,0,0V216.28A.82.82,0,0,1,256.46,215.46Z"/><path class="cls-9" d="M266,215.46h0a.82.82,0,0,1,.82.82v18.24a0,0,0,0,1,0,0h-1.63a0,0,0,0,1,0,0V216.28A.82.82,0,0,1,266,215.46Z"/><path d="M261.21,195.19h0a.78.78,0,0,1,.78.78v9.71a0,0,0,0,1,0,0h-1.56a0,0,0,0,1,0,0V196A.78.78,0,0,1,261.21,195.19Z"/><path d="M258.6,195.19h0a.45.45,0,0,1,.45.45v10a0,0,0,0,1,0,0h-.9a0,0,0,0,1,0,0v-10A.45.45,0,0,1,258.6,195.19Z"/><path d="M263.82,195.19h0a.45.45,0,0,1,.45.45v10a0,0,0,0,1,0,0h-.9a0,0,0,0,1,0,0v-10A.45.45,0,0,1,263.82,195.19Z"/><rect class="cls-9" x="258.21" y="185.76" width="6" height="2.58"/><rect class="cls-9" x="250.3" y="240.98" width="21.81" height="102.38"/><path class="cls-10" d="M174.36,343.23H161.12V327.54a20.83,20.83,0,0,1,6.62-15.22h0a20.79,20.79,0,0,1,6.62,15.22Z"/><path class="cls-10" d="M147.91,343.23H134.66V327.54a20.8,20.8,0,0,1,6.63-15.22h0a20.83,20.83,0,0,1,6.62,15.22Z"/><path class="cls-10" d="M122.66,343.23H109.41V327.54A20.8,20.8,0,0,1,116,312.32h0a20.83,20.83,0,0,1,6.62,15.22Z"/><path class="cls-10" d="M92,343.23H78.77V327.54a20.8,20.8,0,0,1,6.63-15.22h0A20.83,20.83,0,0,1,92,327.54Z"/><path class="cls-10" d="M228.13,343.23h13.24V327.54a20.79,20.79,0,0,0-6.62-15.22h0a20.83,20.83,0,0,0-6.62,15.22Z"/><path class="cls-10" d="M254.58,343.23h13.25V327.54a20.83,20.83,0,0,0-6.62-15.22h0a20.8,20.8,0,0,0-6.63,15.22Z"/><path class="cls-10" d="M279.83,343.23h13.25V327.54a20.83,20.83,0,0,0-6.62-15.22h0a20.8,20.8,0,0,0-6.63,15.22Z"/><path class="cls-10" d="M310.48,343.23h13.24V327.54a20.83,20.83,0,0,0-6.62-15.22h0a20.79,20.79,0,0,0-6.62,15.22Z"/><path class="cls-10" d="M174.36,299.11H161.12V283.43a20.81,20.81,0,0,1,6.62-15.22h0a20.77,20.77,0,0,1,6.62,15.22Z"/><path class="cls-10" d="M147.91,299.11H134.66V283.43a20.78,20.78,0,0,1,6.63-15.22h0a20.81,20.81,0,0,1,6.62,15.22Z"/><path class="cls-10" d="M122.66,299.11H109.41V283.43A20.78,20.78,0,0,1,116,268.21h0a20.81,20.81,0,0,1,6.62,15.22Z"/><path class="cls-10" d="M92,299.11H78.77V283.43a20.78,20.78,0,0,1,6.63-15.22h0A20.81,20.81,0,0,1,92,283.43Z"/><path class="cls-10" d="M228.13,299.11h13.24V283.43a20.77,20.77,0,0,0-6.62-15.22h0a20.81,20.81,0,0,0-6.62,15.22Z"/><path class="cls-10" d="M254.58,299.11h13.25V283.43a20.81,20.81,0,0,0-6.62-15.22h0a20.78,20.78,0,0,0-6.63,15.22Z"/><path class="cls-10" d="M279.83,299.11h13.25V283.43a20.81,20.81,0,0,0-6.62-15.22h0a20.78,20.78,0,0,0-6.63,15.22Z"/><path class="cls-10" d="M310.48,299.11h13.24V283.43a20.81,20.81,0,0,0-6.62-15.22h0a20.77,20.77,0,0,0-6.62,15.22Z"/><path class="cls-9" d="M141.29,268.21a20.78,20.78,0,0,0-6.63,15.22v5.76A20.76,20.76,0,0,1,141.29,274a20.79,20.79,0,0,1,6.62,15.22v-5.76A20.81,20.81,0,0,0,141.29,268.21Z"/><path class="cls-9" d="M116,268.21a20.78,20.78,0,0,0-6.63,15.22v5.76A20.76,20.76,0,0,1,116,274a20.79,20.79,0,0,1,6.62,15.22v-5.76A20.81,20.81,0,0,0,116,268.21Z"/><path class="cls-9" d="M167.74,268.21a20.81,20.81,0,0,0-6.62,15.22v5.76A20.79,20.79,0,0,1,167.74,274a20.75,20.75,0,0,1,6.62,15.22v-5.76A20.77,20.77,0,0,0,167.74,268.21Z"/><path class="cls-9" d="M317.1,268.21a20.77,20.77,0,0,0-6.62,15.22v5.76A20.75,20.75,0,0,1,317.1,274a20.79,20.79,0,0,1,6.62,15.22v-5.76A20.81,20.81,0,0,0,317.1,268.21Z"/><path class="cls-9" d="M85.4,268.21a20.78,20.78,0,0,0-6.63,15.22v5.76A20.76,20.76,0,0,1,85.4,274,20.79,20.79,0,0,1,92,289.19v-5.76A20.81,20.81,0,0,0,85.4,268.21Z"/><path class="cls-9" d="M286.46,268.21a20.78,20.78,0,0,0-6.63,15.22v5.76A20.76,20.76,0,0,1,286.46,274a20.79,20.79,0,0,1,6.62,15.22v-5.76A20.81,20.81,0,0,0,286.46,268.21Z"/><path class="cls-9" d="M261.21,268.21a20.78,20.78,0,0,0-6.63,15.22v5.76A20.76,20.76,0,0,1,261.21,274a20.79,20.79,0,0,1,6.62,15.22v-5.76A20.81,20.81,0,0,0,261.21,268.21Z"/><path class="cls-9" d="M234.75,268.21a20.81,20.81,0,0,0-6.62,15.22v5.76A20.79,20.79,0,0,1,234.75,274a20.75,20.75,0,0,1,6.62,15.22v-5.76A20.77,20.77,0,0,0,234.75,268.21Z"/><path class="cls-9" d="M141.29,311.9a20.76,20.76,0,0,0-6.63,15.22v5.76a20.8,20.8,0,0,1,6.63-15.23,20.83,20.83,0,0,1,6.62,15.23v-5.76A20.79,20.79,0,0,0,141.29,311.9Z"/><path class="cls-9" d="M116,311.9a20.76,20.76,0,0,0-6.63,15.22v5.76A20.8,20.8,0,0,1,116,317.65a20.83,20.83,0,0,1,6.62,15.23v-5.76A20.79,20.79,0,0,0,116,311.9Z"/><path class="cls-9" d="M167.74,311.9a20.79,20.79,0,0,0-6.62,15.22v5.76a20.83,20.83,0,0,1,6.62-15.23,20.79,20.79,0,0,1,6.62,15.23v-5.76A20.75,20.75,0,0,0,167.74,311.9Z"/><path class="cls-9" d="M317.1,311.9a20.75,20.75,0,0,0-6.62,15.22v5.76a20.79,20.79,0,0,1,6.62-15.23,20.83,20.83,0,0,1,6.62,15.23v-5.76A20.79,20.79,0,0,0,317.1,311.9Z"/><path class="cls-9" d="M85.4,311.9a20.76,20.76,0,0,0-6.63,15.22v5.76a20.8,20.8,0,0,1,6.63-15.23A20.83,20.83,0,0,1,92,332.88v-5.76A20.79,20.79,0,0,0,85.4,311.9Z"/><path class="cls-9" d="M286.46,311.9a20.76,20.76,0,0,0-6.63,15.22v5.76a20.8,20.8,0,0,1,6.63-15.23,20.83,20.83,0,0,1,6.62,15.23v-5.76A20.79,20.79,0,0,0,286.46,311.9Z"/><path class="cls-9" d="M261.21,311.9a20.76,20.76,0,0,0-6.63,15.22v5.76a20.8,20.8,0,0,1,6.63-15.23,20.83,20.83,0,0,1,6.62,15.23v-5.76A20.79,20.79,0,0,0,261.21,311.9Z"/><path class="cls-9" d="M234.75,311.9a20.79,20.79,0,0,0-6.62,15.22v5.76a20.83,20.83,0,0,1,6.62-15.23,20.79,20.79,0,0,1,6.62,15.23v-5.76A20.75,20.75,0,0,0,234.75,311.9Z"/><rect class="cls-8" x="183.1" y="228.19" width="36.28" height="83.7"/><polygon class="cls-8" points="223.63 348.18 178.86 348.18 183.1 311.9 219.39 311.9 223.63 348.18"/><rect class="cls-10" x="194.44" y="319.69" width="13.61" height="28.45"/><path class="cls-9" d="M209.91,299.11H192.59v-20.5a27.16,27.16,0,0,1,8.66-19.9h0a27.2,27.2,0,0,1,8.66,19.9Z"/><rect class="cls-8" x="184.27" y="175.19" width="33.96" height="53.01"/><path class="cls-7" d="M201.25,180.43h0a8.66,8.66,0,0,1,8.66,8.66v35.78a0,0,0,0,1,0,0H192.59a0,0,0,0,1,0,0V189.09a8.66,8.66,0,0,1,8.66-8.66Z"/><rect class="cls-11" x="186.91" y="149.91" width="6.51" height="25.28"/><rect class="cls-11" x="209.07" y="149.91" width="6.51" height="25.28"/><rect class="cls-8" x="193.42" y="149.91" width="15.65" height="25.28"/><circle class="cls-7" cx="201.25" cy="158.72" r="5.01"/><rect class="cls-11" x="188.48" y="131.42" width="6.32" height="18.49"/><rect class="cls-11" x="207.7" y="131.42" width="6.32" height="18.49"/><path class="cls-11" d="M191.64,106.67h0a3.16,3.16,0,0,1,3.16,3.16v21.59a0,0,0,0,1,0,0h-3.16a0,0,0,0,1,0,0V106.67A0,0,0,0,1,191.64,106.67Z"/><path class="cls-11" d="M210.86,106.67h0a0,0,0,0,1,0,0v24.75a0,0,0,0,1,0,0H207.7a0,0,0,0,1,0,0V109.83A3.16,3.16,0,0,1,210.86,106.67Z"/><rect class="cls-8" x="194.79" y="93.53" width="12.9" height="56.38"/><path class="cls-7" d="M201.25,96.23h0a1.5,1.5,0,0,1,1.5,1.5v21.42a0,0,0,0,1,0,0h-3a0,0,0,0,1,0,0V97.73a1.5,1.5,0,0,1,1.5-1.5Z"/><rect class="cls-11" x="190.11" y="120.15" width="1.53" height="11.34"/><rect class="cls-11" x="210.86" y="120.08" width="1.53" height="11.34"/><rect class="cls-8" x="199.32" y="76.97" width="3.85" height="16.56"/><path class="cls-7" d="M201.25,72.82h0a1.92,1.92,0,0,1,1.92,1.92V77a0,0,0,0,1,0,0h-3.85a0,0,0,0,1,0,0V74.74A1.92,1.92,0,0,1,201.25,72.82Z"/><rect class="cls-11" x="196.85" y="82.01" width="2.48" height="11.52"/><rect class="cls-11" x="203.17" y="82.01" width="2.48" height="11.52"/><line class="cls-9" x1="201.23" y1="59.38" x2="201.26" y2="72.82"/><rect class="cls-8" x="194.79" y="119.15" width="4.95" height="30.76"/><rect class="cls-8" x="202.75" y="119.15" width="4.95" height="30.76"/><path class="cls-10" d="M201.25,224.49h-4.38V204c0-7.55.94-10.27,2.19-11.84h0c1.28,1.36,2.19,4.29,2.19,11.84Z"/><path class="cls-10" d="M205.62,224.49h-4.37V204c0-7.55.93-10.27,2.18-11.84h0c1.28,1.36,2.19,4.29,2.19,11.84Z"/><path class="cls-9" d="M201.25,258.71h0a27.16,27.16,0,0,0-8.66,19.9v20.5h17.32v-20.5A27.2,27.2,0,0,0,201.25,258.71Z"/><path class="cls-10" d="M209.91,305.83H192.59v-20.5a27.2,27.2,0,0,1,8.66-19.91h0a27.23,27.23,0,0,1,8.66,19.91Z"/><rect class="cls-9" x="194.44" y="319.69" width="13.61" height="4.36"/><path class="cls-7" d="M417.54,294.26l-5.24-17a6.27,6.27,0,0,1,1.78-6.49h0l-2.79-2.29a12.45,12.45,0,0,1-1.23.36h0A10.32,10.32,0,0,1,397.74,261l-3.84-17.17a10.3,10.3,0,0,1,4.93-11.2,7.53,7.53,0,0,1,4.55-.93l2.55.27.93-1.31h0a7.57,7.57,0,0,1-3-7.76l4.08-18.87c1.89-16.32-13.6-29.62-30-29.62H362.71c-16.45,0-31.95,13.33-30,29.66l4.08,18.76a7.56,7.56,0,0,1-3,7.77l-.09.06.93,1.31,2.58-.28a7.44,7.44,0,0,1,4.25.78,10.31,10.31,0,0,1,5.22,11.36L342.81,261a10.3,10.3,0,0,1-12.31,7.81h0a12.45,12.45,0,0,1-1.23-.36L326,270.57l.74.78a6.26,6.26,0,0,1,1.45,6.19L323,294.26a39.15,39.15,0,0,0,38.05,48.38h18.42A39.15,39.15,0,0,0,417.54,294.26Z"/><rect class="cls-12" x="361.67" y="92.37" width="10.08" height="2.98"/><path class="cls-9" d="M357.74,88.89h3.93a0,0,0,0,1,0,0v10a0,0,0,0,1,0,0h-3.93a5,5,0,0,1-5-5v0A5,5,0,0,1,357.74,88.89Z"/><rect class="cls-12" x="361.67" y="104.14" width="10.08" height="2.98"/><path class="cls-9" d="M357.74,100.66h3.93a0,0,0,0,1,0,0v10a0,0,0,0,1,0,0h-3.93a5,5,0,0,1-5-5v0A5,5,0,0,1,357.74,100.66Z"/><rect class="cls-12" x="379.78" y="92.37" width="10.08" height="2.98" transform="translate(769.64 187.72) rotate(-180)"/><path class="cls-9" d="M394.84,88.89h3.93a0,0,0,0,1,0,0v10a0,0,0,0,1,0,0h-3.93a5,5,0,0,1-5-5v0A5,5,0,0,1,394.84,88.89Z" transform="translate(788.62 187.72) rotate(-180)"/><rect class="cls-12" x="379.78" y="104.14" width="10.08" height="2.98" transform="translate(769.64 211.27) rotate(-180)"/><path class="cls-9" d="M394.84,100.66h3.93a0,0,0,0,1,0,0v10a0,0,0,0,1,0,0h-3.93a5,5,0,0,1-5-5v0A5,5,0,0,1,394.84,100.66Z" transform="translate(788.62 211.27) rotate(-180)"/><rect class="cls-10" x="370.11" y="70.66" width="11.3" height="13.83"/><path class="cls-8" d="M423,294.26l-5.24-17a6.29,6.29,0,0,1,1.78-6.49h0l-2.79-2.29a12.45,12.45,0,0,1-1.23.36h0A10.31,10.31,0,0,1,403.23,261l-3.85-17.17a10.32,10.32,0,0,1,4.93-11.2,7.55,7.55,0,0,1,4.56-.93l2.54.27.94-1.31h0a7.58,7.58,0,0,1-3-7.76l4.08-18.87c1.9-16.32-13.6-29.62-30-29.62H368.2c-16.45,0-31.95,13.33-30,29.66l4.09,18.76a7.57,7.57,0,0,1-3,7.77l-.08.06.93,1.31,2.57-.28a7.44,7.44,0,0,1,4.25.78,10.32,10.32,0,0,1,5.23,11.36L348.3,261A10.32,10.32,0,0,1,336,268.84h0a11.52,11.52,0,0,1-1.22-.36l-3.27,2.09.74.78a6.27,6.27,0,0,1,1.46,6.19l-5.19,16.72a39.15,39.15,0,0,0,38.05,48.38H385A39.14,39.14,0,0,0,423,294.26Z"/><polygon class="cls-2" points="366.1 237.5 372.89 85.05 378.63 85.05 385.43 237.5 366.1 237.5"/><path d="M378.09,85.61l6.75,151.32H366.69l6.74-151.32h4.66m1.08-1.13h-6.81l-6.85,153.58H386L379.17,84.48Z"/><polygon class="cls-7" points="381.42 84.48 370.11 84.48 372.51 66.27 379.02 66.27 381.42 84.48"/><polygon class="cls-13" points="371.21 342.07 371.38 313.8 366.19 285.63 385.34 285.63 380.15 313.8 380.31 342.07 371.21 342.07"/><path d="M384.66,286.19l-5.06,27.46,0,.1v.11l.17,27.65h-8l.16-27.65v-.11l0-.1-5.06-27.46h17.8m1.35-1.12h-20.5l5.31,28.78-.17,28.79h10.23l-.17-28.79,5.3-28.78Z"/><path class="cls-2" d="M368.7,289.2a.56.56,0,1,1,.55-.56A.56.56,0,0,1,368.7,289.2Z"/><path d="M368.7,287.52a1.12,1.12,0,1,0,1.11,1.12,1.12,1.12,0,0,0-1.11-1.12Z"/><path class="cls-2" d="M373.41,289.2a.56.56,0,1,1,.55-.56A.56.56,0,0,1,373.41,289.2Z"/><path d="M373.41,287.52a1.12,1.12,0,1,0,1.11,1.12,1.12,1.12,0,0,0-1.11-1.12Z"/><path class="cls-2" d="M378.12,289.2a.56.56,0,1,1,.55-.56A.56.56,0,0,1,378.12,289.2Z"/><path d="M378.12,287.52a1.12,1.12,0,1,0,1.12,1.12,1.12,1.12,0,0,0-1.12-1.12Z"/><path class="cls-2" d="M382.83,289.2a.56.56,0,1,1,.55-.56A.56.56,0,0,1,382.83,289.2Z"/><path d="M382.83,287.52a1.12,1.12,0,1,0,1.12,1.12,1.12,1.12,0,0,0-1.12-1.12Z"/><rect class="cls-2" x="364.08" y="259.1" width="23.37" height="1.66"/><path d="M386.88,259.66v.54H364.64v-.54h22.24m1.13-1.12H363.52v2.79H388v-2.79Z"/><polyline class="cls-14" points="368.67 288.64 368.67 258.54 373.53 84.48"/><polyline class="cls-14" points="373.38 288.64 373.38 258.54 374.75 84.48"/><polyline class="cls-14" points="382.86 288.64 382.86 258.54 377.99 84.48"/><polyline class="cls-14" points="378.15 288.64 378.15 258.54 376.77 84.48"/><path d="M365.51,246.57a.07.07,0,0,0,0,0,1.87,1.87,0,0,0-.41-1,2.73,2.73,0,0,0-1.35-.84,4.28,4.28,0,0,0-3.13.45,7.77,7.77,0,0,0-2.39,2.05,12.71,12.71,0,0,0-1.59,2.63,19.68,19.68,0,0,0-1.05,2.83,26.55,26.55,0,0,0-.65,2.91c-.18,1-.28,2-.38,2.92s-.11,2-.15,2.91-.06,1.86-.13,2.79-.14,1.85-.24,2.76a29.19,29.19,0,0,1-1.06,5.34,12.41,12.41,0,0,1-1,2.42,5.42,5.42,0,0,1-1.62,1.86,2.88,2.88,0,0,1-2.31.46l-.19-.05a1.33,1.33,0,1,0-1.56-1.71h0v0a1.34,1.34,0,0,0-.07.4,1.31,1.31,0,0,0,.19.68,2.31,2.31,0,0,0,.18.35,3.1,3.1,0,0,0,1.18,1,3.44,3.44,0,0,0,1.59.37,4.28,4.28,0,0,0,1.62-.35,6.6,6.6,0,0,0,2.48-2,13,13,0,0,0,1.55-2.66,24.71,24.71,0,0,0,1.61-5.74,44.37,44.37,0,0,0,.55-5.83c0-1,0-1.87.1-2.8s.14-1.84.25-2.75a25.87,25.87,0,0,1,1.12-5.3,13.11,13.11,0,0,1,1.08-2.41,6.87,6.87,0,0,1,1.63-1.95,3.52,3.52,0,0,1,2.29-.84,1.63,1.63,0,0,1,.31,0,1.33,1.33,0,1,0,1.61,1.3s0-.11,0-.17A.07.07,0,0,1,365.51,246.57Z"/><path d="M405.34,275.7a1.34,1.34,0,0,0-.07-.4v0h0A1.33,1.33,0,1,0,403.7,277l-.19.05a2.86,2.86,0,0,1-2.3-.46,5.55,5.55,0,0,1-1.63-1.86,13,13,0,0,1-1-2.42A29.19,29.19,0,0,1,397.5,267c-.1-.91-.19-1.83-.25-2.76s-.11-1.86-.13-2.79-.06-1.94-.15-2.91-.2-1.95-.37-2.92a24.46,24.46,0,0,0-.66-2.91,18.51,18.51,0,0,0-1-2.83,13.16,13.16,0,0,0-1.59-2.63,7.89,7.89,0,0,0-2.39-2.05,4.3,4.3,0,0,0-3.14-.45,2.7,2.7,0,0,0-1.34.84,1.88,1.88,0,0,0-.42,1v0a.11.11,0,0,0,0,.05,1.11,1.11,0,0,0,0,.17,1.34,1.34,0,1,0,1.62-1.3,1.53,1.53,0,0,1,.3,0,3.56,3.56,0,0,1,2.3.84,6.87,6.87,0,0,1,1.63,1.95,13.11,13.11,0,0,1,1.08,2.41A26.55,26.55,0,0,1,394,256c.1.91.19,1.83.24,2.75s.09,1.83.11,2.8a44.34,44.34,0,0,0,.54,5.83,24.26,24.26,0,0,0,1.62,5.74,12.14,12.14,0,0,0,1.55,2.66,6.53,6.53,0,0,0,2.48,2,4.24,4.24,0,0,0,1.62.35,3.4,3.4,0,0,0,1.58-.37,3,3,0,0,0,1.18-1,2.37,2.37,0,0,0,.19-.35A1.31,1.31,0,0,0,405.34,275.7Z"/><polygon points="383.1 300.88 368.43 300.88 370.82 313.85 370.64 342.64 380.88 342.64 380.71 313.85 383.1 300.88"/><line class="cls-9" x1="331.49" y1="270.57" x2="326.01" y2="270.57"/><line class="cls-9" x1="333.68" y1="230.69" x2="339.25" y2="230.63"/><path class="cls-15" d="M271.12,88.68,268.51,54.6h-13l-2.61,34.08a12.52,12.52,0,0,1-3,7.26L248,98a18.53,18.53,0,0,0-4.57,12.19v70.1a8,8,0,0,0,8,8h20.95a8,8,0,0,0,8.05-8v-70.1A18.53,18.53,0,0,0,275.94,98l-1.79-2.06A12.52,12.52,0,0,1,271.12,88.68Z"/><rect class="cls-16" x="254.63" y="44.34" width="14.7" height="3.35" rx="1.67"/><path class="cls-15" d="M268.33,54.6H255.64a1.42,1.42,0,0,1-1.39-1.72l1.12-5.19H268.6l1.12,5.19A1.42,1.42,0,0,1,268.33,54.6Z"/><path class="cls-17" d="M280.52,119.05h-7.28A11.71,11.71,0,0,0,262,110.61h0a11.71,11.71,0,0,0-11.24,8.44h-7.28v21.62h7.07A11.72,11.72,0,0,0,262,149.91h0a11.72,11.72,0,0,0,11.45-9.24h7.07Z"/><path class="cls-18" d="M262.47,135.63h0a9.2,9.2,0,0,0,9.2-9.2h0A9.2,9.2,0,0,0,262.47,135.63Z"/><path class="cls-18" d="M262.47,135.63h0a9.2,9.2,0,0,1-9.2-9.2h0A9.2,9.2,0,0,1,262.47,135.63Z"/><path class="cls-18" d="M262.42,132.33h0a9.21,9.21,0,0,0-.21-13h0A9.2,9.2,0,0,0,262.42,132.33Z"/><line class="cls-19" x1="262.21" y1="119.32" x2="262.42" y2="132.33"/><line class="cls-19" x1="271.67" y1="126.43" x2="262.47" y2="135.63"/><line class="cls-19" x1="253.27" y1="126.43" x2="262.47" y2="135.63"/><line class="cls-19" x1="262.47" y1="135.63" x2="262.47" y2="141.2"/><path class="cls-20" d="M267.48,84.48h3.3l-1.08-14H254.23l-1.08,14h3.37a8.82,8.82,0,0,0,11,0Z"/><circle class="cls-21" cx="262" cy="77.47" r="3.88"/><rect class="cls-22" x="255.9" y="76.31" width="12.37" height="2.11"/></svg>