<svg id="Layer_1" data-name="Layer 1" xmlns="http://www.w3.org/2000/svg" viewBox="0 0 500 500"><defs><style>.cls-1,.cls-14,.cls-17,.cls-21{fill:#ff4633;}.cls-15,.cls-19,.cls-2,.cls-27,.cls-28,.cls-4{fill:#fff;}.cls-10,.cls-16,.cls-3,.cls-32,.cls-5{fill:none;}.cls-10,.cls-11,.cls-12,.cls-14,.cls-15,.cls-16,.cls-17,.cls-18,.cls-19,.cls-20,.cls-21,.cls-22,.cls-23,.cls-28,.cls-29,.cls-3,.cls-30,.cls-32,.cls-4,.cls-5,.cls-6,.cls-7,.cls-8,.cls-9{stroke:#000;}.cls-10,.cls-11,.cls-12,.cls-14,.cls-15,.cls-16,.cls-17,.cls-20,.cls-22,.cls-24,.cls-26,.cls-27,.cls-28,.cls-29,.cls-3,.cls-4,.cls-5,.cls-6,.cls-7,.cls-8,.cls-9{stroke-width:1.13px;}.cls-4,.cls-5{stroke-linecap:round;}.cls-10,.cls-11,.cls-12,.cls-14,.cls-22,.cls-28,.cls-29,.cls-30,.cls-4,.cls-5{stroke-linejoin:round;}.cls-6{fill:#2ae21d;}.cls-15,.cls-16,.cls-17,.cls-18,.cls-19,.cls-20,.cls-21,.cls-23,.cls-24,.cls-26,.cls-27,.cls-32,.cls-6,.cls-7,.cls-8,.cls-9{stroke-miterlimit:10;}.cls-7{fill:#fef2d2;}.cls-13,.cls-22,.cls-8{fill:#fbe62e;}.cls-9{fill:#90a4ae;}.cls-12{fill:#ff9085;}.cls-18{stroke-width:0.8px;}.cls-19{stroke-width:1.13px;}.cls-21{stroke-width:0.98px;}.cls-23{stroke-width:1.47px;}.cls-24,.cls-29{fill:#00a700;}.cls-24,.cls-26,.cls-27{stroke:#231f20;}.cls-25{fill:#85ed73;}.cls-26{fill:#007d00;}.cls-30{stroke-width:1.06px;}.cls-31{isolation:isolate;}.cls-33{fill:#f8bc20;}</style></defs><rect class="cls-1" x="-5.23" y="-5.23" width="510.46" height="510.46"/><path class="cls-2" d="M86.92,403.1V371.82H97a11.07,11.07,0,0,1,5.56,1.28,8.4,8.4,0,0,1,3.38,3.46,11.28,11.28,0,0,1,0,9.84,8.35,8.35,0,0,1-3.35,3.47,11.06,11.06,0,0,1-5.55,1.27H89.12v-2.56H97a8.09,8.09,0,0,0,4.07-.93,5.84,5.84,0,0,0,2.42-2.53,8.7,8.7,0,0,0,0-7.29,5.82,5.82,0,0,0-2.42-2.52,8.35,8.35,0,0,0-4.12-.92H89.78V403.1Z"/><path class="cls-2" d="M139,371.82h2.85v20.71a11,11,0,0,1-1.49,5.7,10.61,10.61,0,0,1-4.17,4,14,14,0,0,1-12.37,0,10.72,10.72,0,0,1-4.17-3.95,10.88,10.88,0,0,1-1.5-5.7V371.82H121v20.51a8.82,8.82,0,0,0,1.11,4.44,8,8,0,0,0,3.14,3.06,10.7,10.7,0,0,0,9.49,0,7.84,7.84,0,0,0,3.14-3.06,8.82,8.82,0,0,0,1.11-4.44Z"/><path class="cls-2" d="M154.42,403.1V371.82h18.14v2.57H157.27v11.77H171.6v2.57H157.27v11.8h15.59v2.57Z"/><path class="cls-2" d="M184.23,403.1V371.82h10.1a11.64,11.64,0,0,1,5.56,1.2,8.08,8.08,0,0,1,3.38,3.32,10,10,0,0,1,1.14,4.85,9.9,9.9,0,0,1-1.14,4.82,7.94,7.94,0,0,1-3.37,3.27,11.82,11.82,0,0,1-5.53,1.17h-8.59v-2.61h8.52a9.14,9.14,0,0,0,4.07-.81,5.35,5.35,0,0,0,2.42-2.3,7.34,7.34,0,0,0,.8-3.54,7.6,7.6,0,0,0-.8-3.59,5.59,5.59,0,0,0-2.44-2.37,8.88,8.88,0,0,0-4.1-.84h-7.16V403.1ZM198,389l7.7,14.11h-3.3L194.8,389Z"/><path class="cls-2" d="M213.77,374.39v-2.57h22.68v2.57h-9.91V403.1h-2.86V374.39Z"/><path class="cls-2" d="M272.8,387.46a19.39,19.39,0,0,1-1.74,8.5,13.43,13.43,0,0,1-4.79,5.59,13.36,13.36,0,0,1-14,0,13.41,13.41,0,0,1-4.78-5.59,21.75,21.75,0,0,1,0-17,13.43,13.43,0,0,1,4.79-5.59,13.4,13.4,0,0,1,14,0,13.5,13.5,0,0,1,4.79,5.59A19.39,19.39,0,0,1,272.8,387.46Zm-2.78,0a17,17,0,0,0-1.4-7.2,10.81,10.81,0,0,0-3.84-4.59,10.32,10.32,0,0,0-11,0,10.91,10.91,0,0,0-3.84,4.58,19.09,19.09,0,0,0,0,14.4,10.72,10.72,0,0,0,3.83,4.59,9.75,9.75,0,0,0,5.51,1.6,9.86,9.86,0,0,0,5.52-1.59,10.81,10.81,0,0,0,3.84-4.59A16.67,16.67,0,0,0,270,387.46Z"/><path class="cls-2" d="M300.4,403.1V371.82h10.09a11.64,11.64,0,0,1,5.56,1.2,8,8,0,0,1,3.38,3.32,10,10,0,0,1,1.14,4.85,9.9,9.9,0,0,1-1.14,4.82,7.94,7.94,0,0,1-3.37,3.27,11.79,11.79,0,0,1-5.53,1.17h-8.59v-2.61h8.52a9.11,9.11,0,0,0,4.07-.81,5.35,5.35,0,0,0,2.42-2.3,7.34,7.34,0,0,0,.81-3.54,7.6,7.6,0,0,0-.81-3.59,5.54,5.54,0,0,0-2.44-2.37,8.88,8.88,0,0,0-4.1-.84h-7.16V403.1ZM314.18,389l7.7,14.11h-3.3L311,389Z"/><path class="cls-2" d="M334.68,371.82V403.1h-2.85V371.82Z"/><path class="cls-2" d="M371.78,381.6h-2.87a8.87,8.87,0,0,0-1.15-3,9.5,9.5,0,0,0-2.08-2.39,9.68,9.68,0,0,0-2.85-1.59,10,10,0,0,0-3.43-.57,9.89,9.89,0,0,0-5.4,1.55,10.79,10.79,0,0,0-3.89,4.52,19.08,19.08,0,0,0,0,14.64A10.7,10.7,0,0,0,354,399.3a9.88,9.88,0,0,0,5.4,1.54,10,10,0,0,0,3.43-.57,9.44,9.44,0,0,0,2.85-1.58,9.17,9.17,0,0,0,2.08-2.39,8.93,8.93,0,0,0,1.15-3h2.87a12.53,12.53,0,0,1-1.42,4,12,12,0,0,1-6.36,5.42,13.1,13.1,0,0,1-4.6.78,12.54,12.54,0,0,1-7-2,13.33,13.33,0,0,1-4.79-5.58,21.77,21.77,0,0,1,0-17,13.29,13.29,0,0,1,4.79-5.59,12.61,12.61,0,0,1,7-2,13.1,13.1,0,0,1,4.6.77,11.91,11.91,0,0,1,3.7,2.17,12.22,12.22,0,0,1,4.08,7.26Z"/><path class="cls-2" d="M408.44,387.46a19.39,19.39,0,0,1-1.74,8.5,13.43,13.43,0,0,1-4.79,5.59,13.36,13.36,0,0,1-14,0,13.34,13.34,0,0,1-4.78-5.59,21.75,21.75,0,0,1,0-17,13.35,13.35,0,0,1,4.79-5.59,13.4,13.4,0,0,1,14,0A13.5,13.5,0,0,1,406.7,379,19.39,19.39,0,0,1,408.44,387.46Zm-2.78,0a17,17,0,0,0-1.4-7.2,10.81,10.81,0,0,0-3.84-4.59,10.32,10.32,0,0,0-11,0,10.84,10.84,0,0,0-3.84,4.58,19.09,19.09,0,0,0,0,14.4,10.72,10.72,0,0,0,3.83,4.59,9.75,9.75,0,0,0,5.51,1.6,9.86,9.86,0,0,0,5.52-1.59,10.81,10.81,0,0,0,3.84-4.59A16.67,16.67,0,0,0,405.66,387.46Z"/><rect class="cls-3" x="74.72" y="342.87" width="349.8" height="83.25"/><path class="cls-4" d="M96.65,85.86h16.66A9.74,9.74,0,0,1,123,77.31H136a9.73,9.73,0,0,1,9.65-8.56h14.88a9.74,9.74,0,0,1,9.74,9.73v7.38h9.31a9.73,9.73,0,0,1,9.73,9.73v1.87H86.92V95.59a9.73,9.73,0,0,1,9.73-9.73"/><line class="cls-4" x1="113.31" y1="85.86" x2="123.45" y2="85.86"/><line class="cls-5" x1="113.31" y1="85.86" x2="123.45" y2="85.86"/><line class="cls-4" x1="136.03" y1="77.31" x2="148.92" y2="77.31"/><line class="cls-5" x1="136.03" y1="77.31" x2="148.92" y2="77.31"/><line class="cls-5" x1="159.81" y1="85.86" x2="172.7" y2="85.86"/><path class="cls-4" d="M251.48,140.58H234.82a9.72,9.72,0,0,0-9.66-8.55h-13a9.72,9.72,0,0,0-9.66-8.55H187.57a9.73,9.73,0,0,0-9.73,9.73v7.37h-9.31a9.74,9.74,0,0,0-9.74,9.73v1.87H261.21v-1.87a9.73,9.73,0,0,0-9.73-9.73"/><line class="cls-4" x1="234.82" y1="140.58" x2="224.68" y2="140.58"/><line class="cls-5" x1="234.82" y1="140.58" x2="224.68" y2="140.58"/><line class="cls-4" x1="212.11" y1="132.03" x2="199.21" y2="132.03"/><line class="cls-5" x1="212.11" y1="132.03" x2="199.21" y2="132.03"/><line class="cls-5" x1="188.33" y1="140.58" x2="175.43" y2="140.58"/><path class="cls-6" d="M213.69,64.85a15.25,15.25,0,0,0-14.9,11.64l-2.9,7.24c.41-.08,2.61,2.62,3,2.6,2.37-.1,4.14-2.54,5.6-.75l.75-1.41L201.78,83l4.38-.85,1.44-3.29-5.23-1.59,6.11-.44,1.75-4-4-1.11,4.82-.76Z"/><path class="cls-6" d="M189.08,76.82l6.12.44L190,78.85l1.43,3.29,4.38.85-3.5,1.18.23.42.23-.16c2.24-1.45,3.75.57,6.19,1.9l-.16-9.84a15.25,15.25,0,0,0-14.9-11.64l2.65,6.09,4.83.76-4,1.11Z"/><path class="cls-6" d="M210,95.56,184.69,82.41l2.8-3.75-5.17,2.28-3.87-2.4,4.31-5.42-6.69,3.94-4.72-2.92,3.39-4-5.57,2.69L162,68.34h0a19.32,19.32,0,0,1,23.92,1.4l13,16.59Z"/><path class="cls-6" d="M187.86,95.56l25.31-13.15-2.79-3.75,5.17,2.28,3.87-2.4-4.31-5.42,6.69,3.94,4.71-2.92-3.38-4,5.57,2.69,7.15-4.44h0a19.31,19.31,0,0,0-23.91,1.4l-13,16.59Z"/><path class="cls-7" d="M206.91,201.9H190.38s1.84-23.48,2.15-31.32c.81-20.25,2.21-81.06,2.21-81.06h7.81s1.39,60.81,2.2,81.06C205.06,178.42,206.91,201.9,206.91,201.9Z"/><path class="cls-8" d="M199.11,89.52h-4.37s-1.4,60.81-2.21,81.06c-.31,7.84-2.15,43.06-2.15,43.06h13.09s-1.85-35.22-2.16-43.06C200.5,150.33,199.11,89.52,199.11,89.52Z"/><line class="cls-9" x1="191.4" y1="191.11" x2="206.09" y2="191.11"/><line class="cls-9" x1="192.39" y1="173.44" x2="204.79" y2="173.44"/><line class="cls-9" x1="193.01" y1="156.46" x2="204.27" y2="156.46"/><line class="cls-9" x1="193.41" y1="142.51" x2="203.87" y2="142.51"/><line class="cls-9" x1="193.75" y1="129.9" x2="203.53" y2="129.9"/><line class="cls-9" x1="194.08" y1="116.63" x2="203.21" y2="116.63"/><line class="cls-9" x1="194.34" y1="106.03" x2="202.94" y2="106.03"/><line class="cls-9" x1="194.55" y1="97.46" x2="202.73" y2="97.46"/><path class="cls-6" d="M198.66,89.65l-28.52-.14.78-4.62-3.56,4.39-4.54-.37,1.36-6.79L160,88.68l-5.53-.45,1.16-5.14L151.93,88l-8.39-.69h0a19.33,19.33,0,0,1,21.92-9.67l33.47,8.67Z"/><path class="cls-6" d="M198.62,89.65l28.52-.14-.78-4.62,3.56,4.39,4.54-.37-1.36-6.79,4.15,6.56,5.53-.45-1.16-5.14L245.35,88l8.39-.69h0a19.32,19.32,0,0,0-21.92-9.67l-33.47,8.67Z"/><path class="cls-6" d="M198.46,89.75l-25.62,12.53-1.35-4.48-1.25,5.51L166,105l-1.79-6.69-.81,7.72-5.16,2L157,103,155.86,109,148,112.13h0a19.32,19.32,0,0,1,15.35-18.39l35.54-7.41Z"/><path class="cls-6" d="M198.93,88.88l-17.32,22.65-3.21-3.4,1.35,5.49-3,3.39-4.6-5.18,2.73,7.27-3.7,4.14-3.4-4,1.69,6-5.61,6.28h0a19.3,19.3,0,0,1,5.51-23.31l29.59-21.79Z"/><path class="cls-6" d="M198.93,89.75l25.62,12.53,1.36-4.48,1.24,5.51,4.23,1.68,1.8-6.69L234,106l5.15,2,1.24-5.12,1.16,6.07,7.82,3.11h0A19.33,19.33,0,0,0,234,93.74l-35.08-7.41Z"/><path class="cls-6" d="M198.93,88.88l17.33,22.65,3.21-3.4-1.35,5.49,3,3.39,4.6-5.18L223,119.1l3.7,4.14,3.39-4-1.68,6,5.61,6.28h0a19.31,19.31,0,0,0-5.51-23.31l-29.6-21.79Z"/><path class="cls-10" d="M143.58,193.4l-4.24-49.08H113.76l-4.24,49.08a18.49,18.49,0,0,1-8.9,14.31C90,214,72.83,226.49,73.65,240.48l5.24,88.79h95.32l5.24-88.79c.83-14-16.38-26.46-27-32.77A18.49,18.49,0,0,1,143.58,193.4Z"/><path class="cls-11" d="M88.66,325.67a6.76,6.76,0,0,1-6.75-6.36l-4.67-79c-.74-12.58,17.4-24.8,25.23-29.47a22.12,22.12,0,0,0,10.64-17.09l3.63-42a4.15,4.15,0,0,1,4.15-3.8h11.33a4.17,4.17,0,0,1,4.15,3.8l3.62,42a22.14,22.14,0,0,0,10.65,17.09c7.83,4.67,26,16.89,25.22,29.47l-4.67,79a6.76,6.76,0,0,1-6.74,6.36Z"/><rect class="cls-12" x="75.07" y="329.27" width="102.97" height="13.12" rx="6.56"/><rect class="cls-12" x="109.12" y="136.22" width="34.86" height="8.09" rx="4.05"/><rect class="cls-11" x="111.68" y="128.42" width="29.74" height="7.8"/><path class="cls-12" d="M119.64,118.67h13.82a8,8,0,0,1,8,8v1.79a0,0,0,0,1,0,0H111.68a0,0,0,0,1,0,0v-1.79A8,8,0,0,1,119.64,118.67Z"/><rect class="cls-13" x="93.04" y="244.79" width="67.02" height="57.47"/><path d="M159.5,245.35V301.7H93.6V245.35h65.9m1.13-1.12H92.48v58.6h68.15v-58.6Z"/><circle class="cls-14" cx="126.55" cy="273.53" r="17.43"/><polygon class="cls-15" points="350.11 123.11 245.79 123.11 297.95 90.62 350.11 123.11"/><polygon class="cls-15" points="260.73 118.84 297.95 95.65 335.18 118.84 260.73 118.84"/><rect class="cls-15" x="243.57" y="123.11" width="108.77" height="3.42"/><rect class="cls-15" x="243.57" y="124.82" width="108.77" height="1.71"/><path class="cls-15" d="M350.11,164.92V126.53H245.79v38.39a36.43,36.43,0,0,1-36.43,36.43H171.1V215.6H424.81V201.35H386.54A36.43,36.43,0,0,1,350.11,164.92Z"/><rect class="cls-15" x="170.1" y="195.07" width="31.17" height="20.53"/><rect class="cls-15" x="393.64" y="195.07" width="31.17" height="20.53"/><rect class="cls-15" x="243.57" y="164.79" width="108.77" height="3.42"/><rect class="cls-15" x="243.57" y="166.5" width="108.77" height="1.71"/><rect class="cls-15" x="245.79" y="131.42" width="104.32" height="1.65"/><rect class="cls-15" x="245.01" y="171.07" width="105.88" height="1.65"/><path class="cls-15" d="M298,137.83h0a8.87,8.87,0,0,1,8.87,8.87v17.74a0,0,0,0,1,0,0H289.08a0,0,0,0,1,0,0V146.7a8.87,8.87,0,0,1,8.87-8.87Z"/><path class="cls-15" d="M298,189h0a8.87,8.87,0,0,1,8.87,8.87V215.6a0,0,0,0,1,0,0H289.08a0,0,0,0,1,0,0V197.86A8.87,8.87,0,0,1,298,189Z"/><line class="cls-16" x1="171.1" y1="241.69" x2="424.81" y2="241.69"/><rect class="cls-15" x="171.1" y="216.4" width="253.71" height="127.28"/><rect class="cls-17" x="255.3" y="243.59" width="11.7" height="97.75"/><rect class="cls-17" x="179.83" y="243.59" width="11.7" height="97.75"/><rect class="cls-18" x="170.58" y="241.95" width="253.29" height="1.56"/><rect class="cls-17" x="328.68" y="241.69" width="11.7" height="97.75"/><rect class="cls-17" x="403.32" y="243.59" width="11.7" height="97.75"/><rect class="cls-19" x="174.36" y="245.04" width="9.07" height="95.4"/><rect class="cls-19" x="171.1" y="338.99" width="15.58" height="4.7"/><rect class="cls-19" x="171.1" y="241.24" width="15.58" height="4.7"/><rect class="cls-19" x="189.94" y="245.04" width="9.07" height="95.4"/><rect class="cls-19" x="186.68" y="338.99" width="15.58" height="4.7"/><rect class="cls-19" x="186.68" y="241.24" width="15.58" height="4.7"/><rect class="cls-19" x="396.9" y="245.04" width="9.07" height="95.4"/><rect class="cls-19" x="393.64" y="338.99" width="15.58" height="4.7"/><rect class="cls-19" x="393.64" y="241.24" width="15.58" height="4.7"/><rect class="cls-19" x="412.48" y="245.04" width="9.07" height="95.4"/><rect class="cls-19" x="409.22" y="338.99" width="15.58" height="4.7"/><rect class="cls-19" x="409.22" y="241.24" width="15.58" height="4.7"/><rect class="cls-19" x="322.72" y="245.04" width="9.07" height="95.4"/><rect class="cls-19" x="319.46" y="338.99" width="15.58" height="4.7"/><rect class="cls-19" x="319.46" y="241.24" width="15.58" height="4.7"/><rect class="cls-19" x="338.3" y="245.04" width="9.07" height="95.4"/><rect class="cls-19" x="335.04" y="338.99" width="15.58" height="4.7"/><rect class="cls-19" x="335.04" y="241.24" width="15.58" height="4.7"/><rect class="cls-19" x="248.54" y="245.04" width="9.07" height="95.4"/><rect class="cls-19" x="245.28" y="338.99" width="15.58" height="4.7"/><rect class="cls-19" x="245.28" y="241.24" width="15.58" height="4.7"/><rect class="cls-19" x="264.12" y="245.04" width="9.07" height="95.4"/><rect class="cls-19" x="260.86" y="338.99" width="15.58" height="4.7"/><rect class="cls-19" x="260.86" y="241.24" width="15.58" height="4.7"/><path class="cls-15" d="M298,256.69h0a17,17,0,0,1,17,17v69.93a0,0,0,0,1,0,0H281a0,0,0,0,1,0,0V273.69A17,17,0,0,1,298,256.69Z"/><rect class="cls-20" x="285.78" y="286.28" width="24.35" height="57.33"/><line class="cls-15" x1="297.95" y1="285.2" x2="297.95" y2="343.61"/><path class="cls-15" d="M223,285.2h0a17,17,0,0,1,17,17v41.42a0,0,0,0,1,0,0H206a0,0,0,0,1,0,0V302.19A17,17,0,0,1,223,285.2Z"/><rect class="cls-20" x="211.67" y="303.06" width="22.69" height="40.55"/><path class="cls-15" d="M372.89,285.2h0a17,17,0,0,1,17,17v41.42a0,0,0,0,1,0,0h-34a0,0,0,0,1,0,0V302.19a17,17,0,0,1,17-17Z"/><rect class="cls-20" x="361.55" y="303.06" width="22.69" height="40.55"/><rect class="cls-20" x="292.92" y="198.03" width="10.07" height="17.57"/><rect class="cls-15" x="165.56" y="215.6" width="264.79" height="8.35"/><rect class="cls-15" x="171.1" y="234.75" width="253.71" height="6.93"/><rect class="cls-17" x="253.07" y="173.82" width="11.56" height="40.8"/><rect class="cls-17" x="328.75" y="173.82" width="11.56" height="40.8"/><rect class="cls-21" x="328.75" y="133.16" width="11.56" height="30.71"/><rect class="cls-21" x="254.95" y="132.56" width="11.56" height="30.71"/><rect class="cls-15" x="249.05" y="134.25" width="9.07" height="29.53"/><rect class="cls-15" x="245.79" y="163.33" width="15.58" height="1.45"/><rect class="cls-15" x="245.79" y="133.07" width="15.58" height="1.45"/><rect class="cls-15" x="264.63" y="134.25" width="9.07" height="29.53"/><rect class="cls-15" x="261.38" y="163.33" width="15.58" height="1.45"/><rect class="cls-15" x="261.38" y="133.07" width="15.58" height="1.45"/><rect class="cls-15" x="322.2" y="134.33" width="9.07" height="29.53"/><rect class="cls-15" x="318.95" y="163.42" width="15.58" height="1.45"/><rect class="cls-15" x="318.95" y="133.16" width="15.58" height="1.45"/><rect class="cls-15" x="337.79" y="134.33" width="9.07" height="29.53"/><rect class="cls-15" x="334.53" y="163.42" width="15.58" height="1.45"/><rect class="cls-15" x="334.53" y="133.16" width="15.58" height="1.45"/><rect class="cls-15" x="248.54" y="174.42" width="9.07" height="39.82"/><rect class="cls-15" x="245.28" y="213.64" width="15.58" height="1.96"/><rect class="cls-15" x="245.28" y="172.84" width="15.58" height="1.96"/><rect class="cls-15" x="264.12" y="174.42" width="9.07" height="39.82"/><rect class="cls-15" x="260.86" y="213.64" width="15.58" height="1.96"/><rect class="cls-15" x="260.86" y="172.84" width="15.58" height="1.96"/><rect class="cls-15" x="322.72" y="174.53" width="9.07" height="39.82"/><rect class="cls-15" x="319.46" y="213.75" width="15.58" height="1.96"/><rect class="cls-15" x="319.46" y="172.95" width="15.58" height="1.96"/><rect class="cls-15" x="338.3" y="174.53" width="9.07" height="39.82"/><rect class="cls-15" x="335.04" y="213.75" width="15.58" height="1.96"/><rect class="cls-15" x="335.04" y="172.95" width="15.58" height="1.96"/><line class="cls-16" x1="297.95" y1="75.59" x2="297.95" y2="90.62"/><rect class="cls-15" x="182.98" y="178.89" width="7.23" height="16.19"/><path class="cls-15" d="M187.81,195.07h-2.76l-2.86-19a3.26,3.26,0,0,1,3.22-3.75h2.36a3.26,3.26,0,0,1,3.22,3.8Z"/><circle class="cls-15" cx="186.59" cy="169.27" r="2.77"/><rect class="cls-15" x="405.7" y="178.89" width="7.23" height="16.19"/><path class="cls-15" d="M410.53,195.07h-2.75l-2.87-19a3.26,3.26,0,0,1,3.22-3.75h2.36a3.26,3.26,0,0,1,3.22,3.8Z"/><circle class="cls-15" cx="409.31" cy="169.27" r="2.77"/><rect class="cls-18" x="171.24" y="223.62" width="253.29" height="2.56"/><path class="cls-22" d="M418.35,165.14l12,15.09,9.36-7.61a9.64,9.64,0,0,0,1.55-13.54h0a9.65,9.65,0,0,0-13.55-1.55Z"/><circle class="cls-22" cx="400.66" cy="150.07" r="27.83"/><polygon class="cls-23" points="359.92 182.6 404.52 235.28 416.13 215.17 418.87 201.5 422.06 188.41 419.93 158.53 413.88 141.56 375.62 115.99 344.68 146.91 344.81 169.92 359.92 182.6"/><path class="cls-24" d="M419.93,158.53c-.16-.11-.31-.22-.47-.35-19.45-15.79-34.45-8.48-45.34-13-3.26-1.35-6.35-13.44,8.88-13.2,14.56.24,29.46,8.91,30.88,9.57-6.87-14-17.19-23.79-28.47-26.87-32.9-9-44.68,23.21-43.3,28.41-3.19-4.33-35.7-15.3-49.26,16-4.65,10.73-3.44,24.94,3.15,39,.37-1.52,2.93-18.56,11.86-30.08,9.33-12,16.83-2.05,15.85,1.33-3.3,11.33-18.38,18.46-18.24,43.51,0,.2,0,.39,0,.59a91.51,91.51,0,0,0,9.47,10.4c.23-.36.36-.59.36-.59s1.26-13.92,6.86-24.73c1.63-3.14,7.18-13.13,13.08-5.39,8.65,11.35-8.13,17.6-7.83,39.49,0,.4,0,.8,0,1.18,3.55,2.39,12.21,5.69,12.21,5.69s2.17-27,12.74-23.46c8.25,2.73,3.06,11,1.6,16-3,10.05-2,13.93-2,13.93a122.28,122.28,0,0,0,42.44,6.24,122.2,122.2,0,0,0,21.69-37S413.74,212,404,208c-4.75-1.93-14.48-3.09-11.45-11.24,3.87-10.43,26.28,4.75,26.28,4.75s2.83-8.82,3.19-13.09c-.29-.25-.58-.5-.9-.76-16.89-13.93-32.27-4.75-35.7-18.59-2.35-9.45,8.92-7.53,12.38-6.84,11.94,2.4,23.59,10.13,23.59,10.13l.68.08A91.47,91.47,0,0,0,419.93,158.53Zm-89.78,3.9c-2.25-.54-6.21-5.81-5-7.78,2-3.29,14.66-2.17,15.4,1.63C341.15,159.25,333.09,163.13,330.15,162.43ZM344.24,189c-2.26.45-8.06-2.68-7.78-5,.47-3.84,12.42-8.09,14.68-5C352.91,181.55,347.21,188.44,344.24,189Zm8.69-36.58c-2.5-3,4.51-13.52,8.35-13,2.3.28,3.94,6.67,3,8.76C363,150.89,354.88,154.76,352.93,152.45Zm30.59,47.34c-2.52,1-10.09-1.57-9.91-4.26.23-3.44,11.27-5.87,13.44-3.18C388.35,194,385.45,199.06,383.52,199.79Z"/><path class="cls-25" d="M312.48,205.36a85,85,0,0,1,6.16-13.4,65.87,65.87,0,0,1,8.56-12,42,42,0,0,1,5.43-5.06A31.72,31.72,0,0,1,339,171a28.3,28.3,0,0,1,7.15-2.18,29.5,29.5,0,0,1,7.51,0,.56.56,0,1,1-.14,1.12h0a27.54,27.54,0,0,0-7.2-.12,26.71,26.71,0,0,0-6.94,2,30.6,30.6,0,0,0-6.26,3.7,42,42,0,0,0-5.45,4.88,66,66,0,0,0-8.73,11.79A85.21,85.21,0,0,0,312.48,205.36Z"/><path class="cls-25" d="M335.07,226.31c3.09-7.86,6.48-15.61,10.26-23.17,1.9-3.77,3.91-7.5,6.15-11.1a62,62,0,0,1,3.62-5.25,26.25,26.25,0,0,1,4.48-4.65.56.56,0,0,1,.79.11.55.55,0,0,1-.1.78h0a24.75,24.75,0,0,0-4.38,4.36,62.16,62.16,0,0,0-3.68,5.09c-2.3,3.51-4.38,7.18-6.36,10.9C341.89,210.86,338.33,218.52,335.07,226.31Z"/><path class="cls-25" d="M370.82,241.24a43.42,43.42,0,0,1-1.6-8.77,68.25,68.25,0,0,1-.21-8.93,80.74,80.74,0,0,1,.9-8.91c.19-1.48.54-2.94.8-4.41s.69-2.91,1-4.36a.55.55,0,0,1,.67-.42.55.55,0,0,1,.42.67v0c-.38,1.42-.79,2.84-1.15,4.28s-.69,2.87-.93,4.33a79.09,79.09,0,0,0-1.17,8.8,69.23,69.23,0,0,0-.07,8.88A43.52,43.52,0,0,0,370.82,241.24Z"/><path class="cls-25" d="M297.22,167.47A46.94,46.94,0,0,1,305,156.06a38.18,38.18,0,0,1,10.93-8.45,33.22,33.22,0,0,1,6.52-2.45,35.69,35.69,0,0,1,6.91-.94A40.83,40.83,0,0,1,343,146.5a.57.57,0,0,1,.35.72.56.56,0,0,1-.71.35h0a39.47,39.47,0,0,0-13.33-2.5,30.59,30.59,0,0,0-13.2,3,37.78,37.78,0,0,0-11,8.14A47,47,0,0,0,297.22,167.47Z"/><path class="cls-26" d="M419.92,158.54c-.15-.13-.31-.23-.46-.36-19.46-15.79-34.44-8.48-45.34-13-3.26-1.35-6.35-13.44,8.88-13.19,14.57.24,29.45,8.91,30.88,9.58-6.87-14-17.19-23.81-28.47-26.88-32.89-9-44.68,23.21-43.3,28.42l52.34,109.08a122.49,122.49,0,0,0,21.68-37S413.75,212,404,208c-4.75-1.94-14.48-3.09-11.45-11.24,3.87-10.43,26.28,4.74,26.28,4.74s2.84-8.81,3.2-13.08c-.29-.26-.59-.5-.91-.76-16.88-13.93-32.26-4.75-35.7-18.59-2.35-9.45,8.91-7.54,12.39-6.83,11.93,2.38,23.58,10.12,23.58,10.12l.68.08A89.91,89.91,0,0,0,419.92,158.54Zm-67-6.08c-2.5-3,4.52-13.54,8.35-13.06,2.3.28,4,6.66,3,8.75C363,150.89,354.88,154.76,352.93,152.46Zm30.59,47.33c-2.52,1-10.09-1.56-9.91-4.26.23-3.45,11.28-5.87,13.44-3.18C388.35,193.94,385.45,199.07,383.52,199.79Z"/><path class="cls-25" d="M409.17,159a86.13,86.13,0,0,0-14.34-3.3,65.45,65.45,0,0,0-14.66-.56,40.9,40.9,0,0,0-7.22,1.19,30.48,30.48,0,0,0-6.8,2.56,27.2,27.2,0,0,0-5.88,4.19,28,28,0,0,0-4.41,5.69l0,0a.56.56,0,1,1-1-.58h0a29.42,29.42,0,0,1,4.71-5.84,28.29,28.29,0,0,1,6.18-4.22,31.48,31.48,0,0,1,7-2.49,41.63,41.63,0,0,1,7.35-1.07,65.54,65.54,0,0,1,14.74.84A86.47,86.47,0,0,1,409.17,159Z"/><path class="cls-25" d="M411.38,189.7c-8.12-2.33-16.32-4.35-24.6-5.95-4.14-.78-8.3-1.46-12.49-1.86a62.67,62.67,0,0,0-6.27-.31,24.43,24.43,0,0,0-6.13.69h0a.56.56,0,1,1-.29-1.09h0a26,26,0,0,1,6.43-.59c2.14,0,4.26.21,6.36.46,4.21.5,8.38,1.27,12.51,2.15C395.16,185,403.32,187.19,411.38,189.7Z"/><path class="cls-25" d="M400.66,226.92a44.4,44.4,0,0,0-6-6.53,70.75,70.75,0,0,0-7-5.5,81.56,81.56,0,0,0-7.6-4.59c-1.28-.73-2.64-1.32-4-2s-2.71-1.19-4.06-1.79h0a.57.57,0,0,1-.29-.74.58.58,0,0,1,.75-.29h0c1.35.64,2.71,1.26,4,1.93s2.66,1.36,3.94,2.13a82.37,82.37,0,0,1,7.51,4.87,71.11,71.11,0,0,1,6.84,5.76A44,44,0,0,1,400.66,226.92Z"/><path class="cls-25" d="M389.17,123.35a47.17,47.17,0,0,0-13.72-.83A37.73,37.73,0,0,0,362.24,126a32.36,32.36,0,0,0-5.79,3.6,33.72,33.72,0,0,0-4.84,4.79,39.46,39.46,0,0,0-6.4,12,.56.56,0,1,1-1.07-.35h0A40.51,40.51,0,0,1,351,133.84,34.88,34.88,0,0,1,356,129a33.42,33.42,0,0,1,6-3.55,38.16,38.16,0,0,1,13.43-3.24A47.31,47.31,0,0,1,389.17,123.35Z"/><line class="cls-27" x1="342.11" y1="143.09" x2="394.45" y2="252.18"/><path class="cls-22" d="M374.34,144.62a4.4,4.4,0,0,0,7.28,4.38l7.74,2.08a1.07,1.07,0,0,1-.2,2.1l-6.27.48a4.33,4.33,0,0,0-2.12-1,4.4,4.4,0,1,0,3.31,6.1l19.9-1.51,23.16-.41a3.85,3.85,0,0,0,3.78-4l-.07-2.9a6.52,6.52,0,0,0-7.72-6.23l-17.49,3.3-12.58-8.48a4.39,4.39,0,0,0-8.72-.8,4.43,4.43,0,0,0,3.38,5.07,4.24,4.24,0,0,0,2.24-.09l3.32,2.24a.86.86,0,0,1-.71,1.55l-10.08-2.71a4.4,4.4,0,0,0-8.15.77Z"/><path class="cls-2" d="M380.06,157.82a.75.75,0,0,1-.24,0,.81.81,0,0,1-.56-.78.8.8,0,0,1,.79-.78h.14a.83.83,0,0,1,.38.18l.45.38-.23.55A.83.83,0,0,1,380.06,157.82Zm15.37-3.51a1.59,1.59,0,0,1-1.7-1.74v0a4.78,4.78,0,0,0,0-1.07,1.55,1.55,0,0,1,.9-1.66,4.44,4.44,0,0,0,2.46-2.8,4.17,4.17,0,0,0,.19-1.25l7.07,4.76a1.56,1.56,0,0,0,1.15.24l18.32-3.46a3.41,3.41,0,0,1,.55-.05,2.92,2.92,0,0,1,2.9,2.83l.08,2.91a.27.27,0,0,1-.26.26l-22.68.4c-.39,0-.78,0-1.16.06Zm-16.85-7.68h-.14a.8.8,0,0,1-.54-.36.76.76,0,0,1-.09-.66.81.81,0,0,1,.75-.57.79.79,0,0,1,.72.45l.27.52-.43.4A.74.74,0,0,1,378.58,146.63Zm10.08-7.26-.16,0a.84.84,0,0,1-.61-.92.79.79,0,0,1,.78-.66h.13a.8.8,0,0,1,.66.79v.59l-.56.17A.67.67,0,0,1,388.66,139.37Z"/><path class="cls-22" d="M406.94,183.35a4.4,4.4,0,0,1,7.49-1.76l8.19-2.35a1.11,1.11,0,0,0,.51-1.83c-.25-.26-.06-.45-.78-.78a3.1,3.1,0,0,0-2.12-.15l-.87.25a4.4,4.4,0,1,1-.28-3.65l3.59-1a.89.89,0,0,0,.42-1.47l-4.26-4.69a3.34,3.34,0,0,1,4.72.23l4.32,4.76a8.77,8.77,0,0,1,1.14.1,7.79,7.79,0,0,1,6.44,8.94,7.71,7.71,0,0,1-2.11,4.17l-10.23,6.58a4.4,4.4,0,1,1-4.56-3.17,4.23,4.23,0,0,1,2.21.41l5.3-3.16a1.21,1.21,0,0,0,.52-1.38,1.23,1.23,0,0,0-.31-.6,1.45,1.45,0,0,0-1.5-.41L415.55,185l0,.26a4.4,4.4,0,1,1-8.58-1.9Z"/><path class="cls-2" d="M418.85,192.68a.78.78,0,0,1-.6-.32.79.79,0,0,1-.14-.65.83.83,0,0,1,.74-.62h0a.72.72,0,0,1,.34.07l.32.15.11.36a.82.82,0,0,1,0,.49.81.81,0,0,1-.74.52Zm-7.67-7.34h-.13a.78.78,0,0,1-.54-.36.79.79,0,0,1-.1-.66.82.82,0,0,1,.76-.57.78.78,0,0,1,.59.26l.24.27,0,.46A.81.81,0,0,1,411.18,185.34ZM429.93,182a4.7,4.7,0,0,0-1-1.67,5.1,5.1,0,0,0-2-1.33,4.69,4.69,0,0,0-.86-3.67,4.3,4.3,0,0,0-.61-.84,3.39,3.39,0,0,0,.41-.44l.37.41h1.57a4.07,4.07,0,0,1,.61.05,4.2,4.2,0,0,1,2.56,6.79Zm-14.69-6a.58.58,0,0,1-.22,0,.79.79,0,0,1,.21-1.56h.14a.8.8,0,0,1,.57.41l.17.31-.13.35A.79.79,0,0,1,415.24,176Z"/><line class="cls-28" x1="434.42" y1="167.54" x2="429.84" y2="171.16"/><path class="cls-22" d="M388.29,104a11.06,11.06,0,0,0,2.45,12.87A55.68,55.68,0,0,0,404,126.06a61.27,61.27,0,0,0,17.54,5.52,11.08,11.08,0,0,0,11.69-6.18l5-10.53a7.84,7.84,0,0,0-3.7-10.44l-.73-.34a8.75,8.75,0,0,0-5.52-.68l-2.44.49a7.91,7.91,0,0,1-5-.63l-8.62-4.16a7.93,7.93,0,0,1-4-4.42h0a8.79,8.79,0,0,0-4.48-4.93h0a7.84,7.84,0,0,0-10.44,3.7Z"/><ellipse class="cls-29" cx="433.73" cy="113.44" rx="7.77" ry="6.06" transform="translate(251.83 523.2) rotate(-80.72)"/><ellipse class="cls-29" cx="395.68" cy="96.51" rx="7.77" ry="6.06" transform="translate(82.13 356.45) rotate(-53.37)"/><path class="cls-22" d="M366.58,115.46l5.3-4.38,0-.16a8.31,8.31,0,0,1,9.54-6.85h0a8.3,8.3,0,0,1,6.85,9.53l-.1.65h.05L387,121.89a4.39,4.39,0,1,1-4.39-.72L383,119a.2.2,0,0,0-.37-.14l-4.7,7.56a4.4,4.4,0,1,1-4.1-3.25l3.24-5.88a1.33,1.33,0,0,0-.92-2h0a1.32,1.32,0,0,0-1.06.28l-4.72,3.56a4.36,4.36,0,0,1-.22,2.27,4.4,4.4,0,1,1-3.53-5.91Z"/><path class="cls-2" d="M373.61,128.34a.8.8,0,0,1,0-1.59l.62,0,.15.57a.78.78,0,0,1-.76,1Zm10.59-2.27a.82.82,0,0,1-.63-.3.76.76,0,0,1-.17-.63.8.8,0,0,1,.51-.61l.43-.17.35.3a.79.79,0,0,1,.27.81A.82.82,0,0,1,384.2,126.07ZM366,120.61a.83.83,0,0,1-.63-.3.81.81,0,0,1-.16-.63A.79.79,0,0,1,366,119h.11l.59.08.09.57a.8.8,0,0,1,0,.41A.82.82,0,0,1,366,120.61Zm14.76-4.9a5,5,0,0,0-.37-1.18,4.94,4.94,0,0,0-3.7-2.83,5.16,5.16,0,0,0-.79-.06l-.47,0,0-.15a4.68,4.68,0,0,1,4.63-4,5.09,5.09,0,0,1,.77.06,4.71,4.71,0,0,1,3.88,5.4l-.4,2.47a3.87,3.87,0,0,0-1.58-.34A3.81,3.81,0,0,0,380.76,115.71Z"/><path class="cls-12" d="M145.91,278.68h52.35a5.22,5.22,0,0,1,5.22,5.22v58a6.27,6.27,0,0,1-6.27,6.27H147a6.27,6.27,0,0,1-6.27-6.27v-58A5.22,5.22,0,0,1,145.91,278.68Z"/><path class="cls-14" d="M145.85,278.73H199a1.88,1.88,0,0,1,1.88,1.88V325.8a9.68,9.68,0,0,1-9.68,9.68H153.64A9.68,9.68,0,0,1,144,325.8V280.61A1.88,1.88,0,0,1,145.85,278.73Z"/><path class="cls-30" d="M144,308.5v17.23a9.76,9.76,0,0,0,9.75,9.75h37.45a9.76,9.76,0,0,0,9.75-9.75V308.5"/><g class="cls-31"><polygon class="cls-14" points="166.44 332.94 148.22 330.68 147.9 313.51 166.12 315.76 166.44 332.94"/><polygon class="cls-14" points="147.9 313.51 155.07 303.46 173.29 305.71 166.12 315.76 147.9 313.51"/><polygon class="cls-14" points="166.12 315.76 173.29 305.71 173.6 322.89 166.44 332.94 166.12 315.76"/></g><g class="cls-31"><polygon class="cls-14" points="170.08 311.47 170.12 330.03 187.32 332.45 187.28 313.89 170.08 311.47"/><polygon class="cls-14" points="187.32 332.45 198.28 326.49 198.25 307.92 187.28 313.89 187.32 332.45"/><polygon class="cls-14" points="187.28 313.89 198.25 307.92 181.05 305.5 170.08 311.47 187.28 313.89"/></g><g class="cls-31"><polygon class="cls-14" points="186.89 301.81 186.85 321.31 168.79 323.85 168.82 304.35 186.89 301.81"/><polygon class="cls-14" points="168.79 323.85 157.27 317.58 157.3 298.08 168.82 304.35 168.79 323.85"/><polygon class="cls-14" points="168.82 304.35 157.3 298.08 175.37 295.54 186.89 301.81 168.82 304.35"/></g><circle cx="393.64" cy="95.05" r="3.72"/><circle cx="436.1" cy="114.07" r="3.72"/><circle class="cls-2" cx="393.03" cy="95.67" r="2.1"/><circle class="cls-2" cx="436.6" cy="114.69" r="2.1"/><path class="cls-16" d="M315,334.6V264.68a17,17,0,0,0-17-17h0a17,17,0,0,0-17,17V334.6"/><path class="cls-16" d="M240,334.6V293.18a17,17,0,0,0-17-17h0a17,17,0,0,0-17,17V334.6"/><path class="cls-16" d="M389.89,334.6V293.18a17,17,0,0,0-17-17h0a17,17,0,0,0-17,17V334.6"/><path class="cls-2" d="M425.67,108.4a4.63,4.63,0,0,0-.12-3.23l-.33.06a7.88,7.88,0,0,1-5-.63l-8.62-4.16a8,8,0,0,1-2.9-2.39,5.12,5.12,0,0,0-3.4,3c-1.23,3.39,2.33,7.8,8,9.84S424.43,111.79,425.67,108.4Z"/><path class="cls-32" d="M426.25,131.28c-5.58-8.35-28.47-18.85-38-20.41"/><path class="cls-33" d="M405.62,118.26c-4.78-2-9.62-1.71-12.07.38a53.91,53.91,0,0,0,10.54,6.82,61.08,61.08,0,0,0,9.56,3.72h0C415.13,125.57,411.54,120.68,405.62,118.26Z"/><polygon class="cls-14" points="137.26 279.15 132.11 273.54 126.55 279.15 120.94 273.54 115.83 279.15 115.83 268.02 137.26 268.02 137.26 279.15"/><circle class="cls-14" cx="126.55" cy="268.03" r="3.34"/></svg>