<svg id="Layer_1" data-name="Layer 1" xmlns="http://www.w3.org/2000/svg" xmlns:xlink="http://www.w3.org/1999/xlink" viewBox="0 0 500 500"><defs><style>.cls-1,.cls-14,.cls-33,.cls-35,.cls-4,.cls-6{fill:none;}.cls-2{fill:#a041ff;}.cls-20,.cls-3,.cls-30,.cls-5{fill:#fff;}.cls-11,.cls-12,.cls-14,.cls-17,.cls-18,.cls-20,.cls-27,.cls-33,.cls-35,.cls-4,.cls-5,.cls-6{stroke:#000;}.cls-10,.cls-11,.cls-12,.cls-14,.cls-17,.cls-20,.cls-27,.cls-30,.cls-33,.cls-4,.cls-5,.cls-6,.cls-7,.cls-8{stroke-width:1.13px;}.cls-10,.cls-11,.cls-12,.cls-14,.cls-17,.cls-18,.cls-20,.cls-30,.cls-31,.cls-32,.cls-33,.cls-34,.cls-35,.cls-36,.cls-5,.cls-7,.cls-8{stroke-miterlimit:10;}.cls-20,.cls-33,.cls-35,.cls-6{stroke-linecap:round;}.cls-27,.cls-6{stroke-linejoin:round;}.cls-7{fill:#007d00;}.cls-10,.cls-30,.cls-7,.cls-8{stroke:#231f20;}.cls-8{fill:#00a700;}.cls-9{fill:#85ed73;}.cls-10{fill:#2ae21d;}.cls-11{fill:#d7b3ff;}.cls-13{clip-path:url(#clip-path);}.cls-15{clip-path:url(#clip-path-2);}.cls-16{clip-path:url(#clip-path-3);}.cls-17,.cls-31{fill:#bd80ff;}.cls-18{stroke-width:0.78px;}.cls-19,.cls-21{fill:#ffa9c6;}.cls-21{opacity:0.51;}.cls-22{fill:#de0364;}.cls-23{opacity:0.44;}.cls-24{clip-path:url(#clip-path-4);}.cls-25{fill:#fb5d96;}.cls-26{clip-path:url(#clip-path-5);}.cls-28{clip-path:url(#clip-path-6);}.cls-29{clip-path:url(#clip-path-7);}.cls-31,.cls-32,.cls-34,.cls-36{stroke:#7304e2;}.cls-32,.cls-34,.cls-36{fill:#7304e2;}.cls-34{stroke-width:0.69px;}.cls-35{stroke-width:0.91px;}.cls-36{stroke-width:1.19px;}</style><clipPath id="clip-path"><path class="cls-1" d="M209.21,343.29h-56L130.7,160.77H198v104a278.1,278.1,0,0,0,9.88,73.49Z"/></clipPath><clipPath id="clip-path-2"><path class="cls-1" d="M302.72,343.29h-56L224.21,160.77h67.25v104a278.11,278.11,0,0,0,9.89,73.49Z"/></clipPath><clipPath id="clip-path-3"><path class="cls-1" d="M392.66,343.29h-56L314.15,160.77H381.4v104a278.11,278.11,0,0,0,9.89,73.49Z"/></clipPath><clipPath id="clip-path-4"><path class="cls-1" d="M83.79,232.5c2,7.65,13.26,11.33,25.14,8.22s16.49-11.84,14.49-19.49-9.86-11.33-21.74-8.22S81.79,224.85,83.79,232.5Z"/></clipPath><clipPath id="clip-path-5"><path class="cls-1" d="M77.76,232.5c-2,7.65-13.26,11.33-25.14,8.22s-16.48-11.84-14.48-19.49S48,209.9,59.88,213,79.77,224.85,77.76,232.5Z"/></clipPath><clipPath id="clip-path-6"><path class="cls-1" d="M123.11,176.07c2,7.65,13.26,11.33,25.14,8.22s16.49-11.84,14.48-19.49-9.86-11.33-21.74-8.22S121.1,168.41,123.11,176.07Z"/></clipPath><clipPath id="clip-path-7"><path class="cls-1" d="M117.08,176.07c-2,7.65-13.26,11.33-25.14,8.22S75.45,172.45,77.45,164.8s9.86-11.33,21.74-8.22S119.08,168.41,117.08,176.07Z"/></clipPath></defs><rect class="cls-2" x="-5.23" y="-5.23" width="510.46" height="510.46"/><path class="cls-3" d="M107.5,375.28a6.74,6.74,0,0,0-2.73-4.93,9.88,9.88,0,0,0-6.11-1.83,11,11,0,0,0-4.55.89A7.37,7.37,0,0,0,91,371.87a6,6,0,0,0-1.11,3.55,5.14,5.14,0,0,0,.63,2.58,6.14,6.14,0,0,0,1.71,1.89,12.87,12.87,0,0,0,2.39,1.35,22.17,22.17,0,0,0,2.66.94l3.91,1.12a28.39,28.39,0,0,1,3.55,1.25,15.25,15.25,0,0,1,3.25,1.91,9,9,0,0,1,2.37,2.81,8.24,8.24,0,0,1,.9,4,9.64,9.64,0,0,1-1.54,5.34,10.66,10.66,0,0,1-4.42,3.76,17.88,17.88,0,0,1-13.48.12A10.62,10.62,0,0,1,87.47,399a9.85,9.85,0,0,1-1.79-5.17h3.48a6.51,6.51,0,0,0,1.44,3.72,8.08,8.08,0,0,0,3.3,2.31,12.52,12.52,0,0,0,4.53.78,12.35,12.35,0,0,0,4.93-.93,8.08,8.08,0,0,0,3.41-2.61,6.39,6.39,0,0,0,1.24-3.9,5.07,5.07,0,0,0-1-3.16,7.62,7.62,0,0,0-2.73-2.15,24.61,24.61,0,0,0-4-1.53L95.82,385a16.48,16.48,0,0,1-6.77-3.6,7.76,7.76,0,0,1-2.41-5.87,8.88,8.88,0,0,1,1.6-5.26,10.69,10.69,0,0,1,4.35-3.55,14.44,14.44,0,0,1,6.16-1.28,14.05,14.05,0,0,1,6.13,1.27,10.6,10.6,0,0,1,4.22,3.49,9.08,9.08,0,0,1,1.68,5Z"/><path class="cls-3" d="M127.94,366V403.1h-3.39V366Z"/><path class="cls-3" d="M171.78,366V403.1h-3.3L146.57,372h-.29V403.1h-3.39V366h3.28l22,31.09h.29V366Z"/><path class="cls-3" d="M212.4,377.6a13.88,13.88,0,0,0-1.49-3.47,11.37,11.37,0,0,0-2.42-2.84,10.55,10.55,0,0,0-3.31-1.91,12,12,0,0,0-4.18-.69,11.5,11.5,0,0,0-6.48,1.88A12.85,12.85,0,0,0,190,376a20.18,20.18,0,0,0-1.66,8.55,19.93,19.93,0,0,0,1.67,8.53,12.78,12.78,0,0,0,4.57,5.44,12.71,12.71,0,0,0,12.71.38,10.57,10.57,0,0,0,4.1-4.35,14.12,14.12,0,0,0,1.44-6.72l1.09.34H202v-3h14.09v3a16.66,16.66,0,0,1-1.92,8.21,13.47,13.47,0,0,1-5.27,5.34,15.48,15.48,0,0,1-21.85-7.09,23.34,23.34,0,0,1-2-10.08,25.2,25.2,0,0,1,1.15-7.88,17.87,17.87,0,0,1,3.29-6,14.51,14.51,0,0,1,5.05-3.83A15.27,15.27,0,0,1,201,365.5a15.54,15.54,0,0,1,5.57,1,14.81,14.81,0,0,1,4.46,2.63A15,15,0,0,1,214.2,373a14.64,14.64,0,0,1,1.67,4.65Z"/><path class="cls-3" d="M229.7,403.1h-3.55L239.64,366h3.63l13.49,37.09h-3.55l-11.63-32.69h-.25Zm2.56-14.22h18.4v3h-18.4Z"/><path class="cls-3" d="M268.22,403.1V366h12a13.15,13.15,0,0,1,6.6,1.51,9.93,9.93,0,0,1,4,4.1,12.43,12.43,0,0,1,1.35,5.83,12.59,12.59,0,0,1-1.34,5.84,9.79,9.79,0,0,1-4,4.11,13.1,13.1,0,0,1-6.58,1.52h-9.42v-3.05h9.33a9.68,9.68,0,0,0,4.84-1.09,7,7,0,0,0,2.87-3,10.34,10.34,0,0,0,0-8.66,7,7,0,0,0-2.88-3,9.82,9.82,0,0,0-4.88-1.09h-8.5V403.1Z"/><path class="cls-3" d="M335.62,384.55a22.9,22.9,0,0,1-2.07,10.08,15.9,15.9,0,0,1-5.68,6.63,15.89,15.89,0,0,1-16.6,0,15.81,15.81,0,0,1-5.67-6.63,25.69,25.69,0,0,1,0-20.16,15.79,15.79,0,0,1,5.68-6.62,15.81,15.81,0,0,1,16.59,0,15.93,15.93,0,0,1,5.68,6.62A23,23,0,0,1,335.62,384.55Zm-3.3,0a20,20,0,0,0-1.67-8.54,12.79,12.79,0,0,0-4.54-5.44,12.28,12.28,0,0,0-13.06,0A12.84,12.84,0,0,0,308.5,376a22.61,22.61,0,0,0,0,17.08,12.79,12.79,0,0,0,4.54,5.44,11.58,11.58,0,0,0,6.54,1.9,11.71,11.71,0,0,0,6.55-1.89,12.75,12.75,0,0,0,4.55-5.44A19.87,19.87,0,0,0,332.32,384.55Z"/><path class="cls-3" d="M348.9,403.1V366h12a13.78,13.78,0,0,1,6.6,1.42,9.56,9.56,0,0,1,4,3.93,11.94,11.94,0,0,1,1.35,5.75,11.76,11.76,0,0,1-1.35,5.72,9.37,9.37,0,0,1-4,3.88,13.89,13.89,0,0,1-6.55,1.39h-10.2V385h10.11a10.61,10.61,0,0,0,4.82-1,6.31,6.31,0,0,0,2.88-2.73,8.68,8.68,0,0,0,.95-4.2,9,9,0,0,0-1-4.25,6.58,6.58,0,0,0-2.88-2.81,10.5,10.5,0,0,0-4.87-1h-8.49V403.1Zm16.36-16.74,9.12,16.74h-3.91l-9-16.74Z"/><path class="cls-3" d="M386.18,403.1V366H407.7v3H389.57v14h17v3.05h-17v14h18.49v3Z"/><rect class="cls-4" x="74.72" y="342.87" width="349.8" height="83.25"/><path class="cls-5" d="M198.84,60.86H184.69a8.25,8.25,0,0,0-8.19-7.26H165.41a8.25,8.25,0,0,0-8.2-7.26H144.58a8.26,8.26,0,0,0-8.26,8.26v6.26h-7.91a8.26,8.26,0,0,0-8.26,8.27v1.58H207.1V69.13a8.26,8.26,0,0,0-8.26-8.27"/><path class="cls-6" d="M198.84,60.86H184.69a8.25,8.25,0,0,0-8.19-7.26H165.41a8.25,8.25,0,0,0-8.2-7.26H144.58a8.26,8.26,0,0,0-8.26,8.26v6.26h-7.91a8.26,8.26,0,0,0-8.26,8.27v1.58H207.1V69.13A8.26,8.26,0,0,0,198.84,60.86Z"/><line class="cls-5" x1="184.69" y1="60.86" x2="176.09" y2="60.86"/><line class="cls-6" x1="184.69" y1="60.86" x2="176.09" y2="60.86"/><line class="cls-5" x1="165.41" y1="53.6" x2="154.47" y2="53.6"/><line class="cls-6" x1="165.41" y1="53.6" x2="154.47" y2="53.6"/><line class="cls-5" x1="136.32" y1="60.86" x2="146.08" y2="60.86"/><line class="cls-6" x1="136.32" y1="60.86" x2="146.08" y2="60.86"/><path class="cls-5" d="M332.08,91.67h14.15a8.25,8.25,0,0,1,8.2-7.26h11.08a8.25,8.25,0,0,1,8.2-7.26h12.63a8.26,8.26,0,0,1,8.26,8.26v6.26h7.91a8.26,8.26,0,0,1,8.26,8.26v1.59H323.82V99.93a8.26,8.26,0,0,1,8.26-8.26"/><path class="cls-6" d="M332.08,91.67h14.15a8.25,8.25,0,0,1,8.2-7.26h11.08a8.25,8.25,0,0,1,8.2-7.26h12.63a8.26,8.26,0,0,1,8.26,8.26v6.26h7.91a8.26,8.26,0,0,1,8.26,8.26v1.59H323.82V99.93A8.26,8.26,0,0,1,332.08,91.67Z"/><line class="cls-5" x1="346.23" y1="91.67" x2="354.83" y2="91.67"/><line class="cls-6" x1="346.23" y1="91.67" x2="354.83" y2="91.67"/><line class="cls-5" x1="365.51" y1="84.41" x2="376.46" y2="84.41"/><line class="cls-6" x1="365.51" y1="84.41" x2="376.46" y2="84.41"/><line class="cls-5" x1="394.6" y1="91.67" x2="384.85" y2="91.67"/><line class="cls-6" x1="394.6" y1="91.67" x2="384.85" y2="91.67"/><polyline class="cls-7" points="129.36 278.02 185.93 296.62 186.78 299.22 122.14 278.85"/><path class="cls-8" d="M78.46,345.36a80.57,80.57,0,0,0,28.21-.34s1-2.45-.06-9.26c-.53-3.33-3.18-9.2,2.44-10.26,7.19-1.36,6.25,16.41,6.25,16.41a56.33,56.33,0,0,0,8.45-2.64c0-.25.09-.5.13-.77,2.11-14.24-8.28-19.78-1.65-26.42,4.53-4.52,7.27,2.47,8,4.66,2.71,7.54,2.31,16.72,2.31,16.72s.06.16.18.42a60.43,60.43,0,0,0,7.09-5.95c0-.13,0-.25,0-.38,2.29-16.32-6.91-22.29-8.07-30-.34-2.3,5.42-8.14,10.45.52,4.81,8.29,5,19.62,5.09,20.65,5.53-8.6,7.57-17.76,5.48-25.16-6.1-21.59-28.25-17.29-30.7-14.75,1.35-3.27-3.5-25.3-25.74-22.32-7.62,1-15.21,6.53-20.91,15,1-.31,11.45-4.65,21-3.53,9.94,1.18,6.87,8.79,4.63,9.38-7.5,2-16.63-4.09-30.7,4.5l-.33.19A60.23,60.23,0,0,0,67.42,291h.46s8.27-4,16.26-4.53c2.32-.15,9.83-.41,7.47,5.54-3.45,8.72-12.67,1.39-24.9,9l-.65.41a56.84,56.84,0,0,0,.93,8.81s15.94-7.92,17.55-.78c1.25,5.57-5.19,5.47-8.45,6.32-6.68,1.73-8.52,3.62-8.52,3.62A80.45,80.45,0,0,0,78.46,345.36Zm43-56.64c1-2.06,8.37-.87,9,1.32.41,1.3-2.62,3.74-4,3.72C124.74,293.73,120.69,290.34,121.46,288.72ZM114.8,302.4c1.16-1.17,5.65,1.42,5.83,3.05.1,1-2,2.68-2.94,2.49C116.15,307.64,113.7,303.5,114.8,302.4Zm-6.58-27c2.27-.24,6.31,6.07,4.8,7.79-1.18,1.34-5.9-1-6.63-2.65C105.83,279.29,106.86,275.54,108.22,275.39ZM96.88,294.28c-.55-.8.2-3.41,1.12-3.69,1.57-.49,5.73,2.6,5.12,4.13S97.76,295.57,96.88,294.28Zm8.33,23.22c1.14-.53,3.67,2.52,3.36,3.73-.18.72-2.14,1.39-2.77,1C104.79,321.62,104.13,318,105.21,317.5ZM88.3,307.92c1-.76,4.79.35,4.76,1.6s-3.6,2-4.58,1.34C87.88,310.44,87.72,308.37,88.3,307.92Z"/><path class="cls-9" d="M136,322a56.79,56.79,0,0,0-3.05-9.18,43,43,0,0,0-4.69-8.41,24.23,24.23,0,0,0-6.87-6.56,16.23,16.23,0,0,0-9-2.38h0a.57.57,0,0,1-.57-.56.55.55,0,0,1,.55-.57h0a19.64,19.64,0,0,1,4.94.7,18.44,18.44,0,0,1,4.5,2.09,24.74,24.74,0,0,1,6.89,6.94,43.69,43.69,0,0,1,4.49,8.63A57,57,0,0,1,136,322Z"/><path class="cls-9" d="M119.43,333.71q-2.21-8-5.09-15.84c-1-2.6-2-5.15-3.24-7.64a25,25,0,0,0-4.42-6.79l-.05-.05a.57.57,0,0,1,0-.8.56.56,0,0,1,.79,0l0,0c.46.56,1,1.09,1.38,1.68s.81,1.18,1.14,1.8l1,1.86.89,1.9c1.12,2.56,2.1,5.17,3,7.81Q117.51,325.58,119.43,333.71Z"/><path class="cls-9" d="M94.82,340.3a29,29,0,0,0,1.59-5.62,45.25,45.25,0,0,0,.68-5.79,54,54,0,0,0,0-5.83c0-1-.17-1.93-.25-2.89s-.27-1.92-.4-2.88v0a.57.57,0,0,1,.48-.64.56.56,0,0,1,.63.49v0c.08,1,.19,2,.26,2.95s.12,2,.11,2.95a52.82,52.82,0,0,1-.24,5.9,47.58,47.58,0,0,1-1,5.81A28.6,28.6,0,0,1,94.82,340.3Z"/><path class="cls-9" d="M149.26,298.68a30.67,30.67,0,0,0-4.22-8,24.8,24.8,0,0,0-6.46-6.22,21.85,21.85,0,0,0-4-2,22.93,22.93,0,0,0-4.32-1.07,25.6,25.6,0,0,0-8.85.51.55.55,0,0,1-.67-.43.56.56,0,0,1,.42-.67h0a26.87,26.87,0,0,1,9.21-.23,22.71,22.71,0,0,1,4.44,1.25,22,22,0,0,1,4.05,2.2,25.27,25.27,0,0,1,6.37,6.51A31,31,0,0,1,149.26,298.68Z"/><path class="cls-7" d="M78.45,345.36l43.69-66.51c1.35-3.26-3.5-25.3-25.73-22.32-7.63,1-15.22,6.53-20.92,15,1-.3,11.45-4.65,21-3.53,9.94,1.18,6.87,8.79,4.63,9.38-7.5,2-16.63-4.08-30.7,4.5l-.33.19A60.23,60.23,0,0,0,67.41,291c.29,0,.46,0,.46,0s8.27-4,16.25-4.53c2.33-.14,9.84-.41,7.48,5.54-3.45,8.72-12.67,1.39-24.9,9-.23.14-.45.28-.65.42a56.82,56.82,0,0,0,.93,8.8s15.94-7.92,17.54-.78c1.26,5.57-5.18,5.47-8.45,6.32-6.67,1.73-8.51,3.62-8.51,3.62A80.45,80.45,0,0,0,78.45,345.36Zm29.76-70c2.27-.25,6.3,6.06,4.8,7.78-1.18,1.35-5.9-1-6.64-2.65C105.81,279.29,106.85,275.54,108.21,275.4ZM98,290.59c1.58-.48,5.74,2.6,5.12,4.13s-5.35.85-6.23-.44C96.32,293.49,97.07,290.87,98,290.59Zm-9.69,17.33c1-.76,4.79.35,4.76,1.6s-3.61,2-4.58,1.34C87.86,310.44,87.71,308.37,88.29,307.92Z"/><path class="cls-9" d="M77,283.31a57.78,57.78,0,0,1,9.64-1.13,43.86,43.86,0,0,1,9.7.7,24.73,24.73,0,0,1,9.11,3.56,18.42,18.42,0,0,1,3.7,3.3A19.41,19.41,0,0,1,111.8,294a.56.56,0,0,1-1,.46h0v0a18.26,18.26,0,0,0-2.33-4.07,18.07,18.07,0,0,0-3.42-3.23,24.06,24.06,0,0,0-8.74-3.7,43.47,43.47,0,0,0-9.59-1A55.71,55.71,0,0,0,77,283.31Z"/><path class="cls-9" d="M72.91,303.15c5.47-1,11-1.71,16.52-2.18,2.77-.23,5.56-.36,8.35-.35l2.1.06,2.1.18c.71.06,1.41.22,2.11.33s1.39.4,2.09.6a.56.56,0,1,1-.31,1.08h-.05l-.08,0a25.36,25.36,0,0,0-8-1.37c-2.76-.1-5.53-.06-8.29.07Q81.16,302,72.91,303.15Z"/><path class="cls-9" d="M75.86,327.91A29,29,0,0,1,80.22,324a47.43,47.43,0,0,1,5-3.19,54.1,54.1,0,0,1,5.31-2.57c.9-.4,1.84-.71,2.76-1.07s1.87-.61,2.81-.93a.58.58,0,0,1,.71.36.56.56,0,0,1-.36.71h-.05c-.93.26-1.87.5-2.8.78s-1.86.57-2.76.92a54.82,54.82,0,0,0-5.36,2.27,46.89,46.89,0,0,0-5,2.93A29.21,29.21,0,0,0,75.86,327.91Z"/><path class="cls-9" d="M93.2,261.86a31,31,0,0,1,9.06.43,25.19,25.19,0,0,1,8.51,3.25,22.61,22.61,0,0,1,3.63,2.84,22.85,22.85,0,0,1,2.91,3.59,26.75,26.75,0,0,1,3.44,8.54.55.55,0,0,1-.42.67.57.57,0,0,1-.68-.42v0a25.78,25.78,0,0,0-3.05-8.33,22.6,22.6,0,0,0-2.7-3.53,21.34,21.34,0,0,0-3.43-2.86,24.8,24.8,0,0,0-8.26-3.46A31,31,0,0,0,93.2,261.86Z"/><line class="cls-10" x1="122.15" y1="278.85" x2="78.46" y2="345.36"/><path class="cls-5" d="M165.37,240.61a1.27,1.27,0,0,0-1.81-1.77c-10.94,11.25-13.77,33-15.28,47.53a198.49,198.49,0,0,1-1.43-28.3,1.27,1.27,0,1,0-2.53-.07c-.57,19.33,2.69,48.05,11.07,71.53-35.31-51.2-38.7-108.21-34.87-134.66a1.26,1.26,0,0,0-2.5-.36c-3.9,27-.44,85.19,35.82,137.23a173.92,173.92,0,0,1-28.2-24.56c-5.94-8.12-14.77-42.13-17.78-61.17a1.26,1.26,0,0,0-2.49.39c2.41,15.26,8.27,39,13.7,53-9.5-12.15-17.27-26.77-18.53-43a1.23,1.23,0,0,0-1.36-1.16A1.27,1.27,0,0,0,98,256.67c1.58,20.29,13,38.15,25.51,51.91a10.72,10.72,0,0,0,.66.86,1.31,1.31,0,0,0,.41.3,173.45,173.45,0,0,0,33.65,27.94l0,0a.7.7,0,0,0,.2.08l.1,0,.27,0h0a1.13,1.13,0,0,0,.36-.06l.1,0a1.34,1.34,0,0,0,.24-.12l.05,0s0,0,0,0a1.17,1.17,0,0,0,.29-.33h0a1.35,1.35,0,0,0,.17-.46,1.14,1.14,0,0,0,0-.37s0-.08,0-.12a1.19,1.19,0,0,0-.21-.44,1.23,1.23,0,0,0,.15-1.2c-4.81-11.61-8.19-25-10.34-38.09.27-2,.51-4.36.79-7.1C151.93,275.44,154.31,252,165.37,240.61Z"/><rect class="cls-11" x="153.99" y="96.95" width="36.98" height="21.31"/><rect class="cls-11" x="126.41" y="114.5" width="75.85" height="13.79"/><rect class="cls-11" x="333.58" y="96.95" width="36.98" height="21.31"/><rect class="cls-11" x="314.15" y="114.5" width="75.85" height="13.79"/><path d="M228.71,103.29a3.48,3.48,0,0,0-3.39,2.64l-.65,1.65c.09,0,.59.59.69.59.53,0,.94-.58,1.27-.17l.17-.32-.8-.27,1-.19.32-.75-1.18-.36,1.39-.1.39-.91-.91-.25,1.1-.17Z"/><path d="M223.12,106l1.39.1-1.19.36.33.75,1,.19-.79.27.05.09,0,0c.51-.33.85.13,1.41.43l0-2.24a3.47,3.47,0,0,0-3.38-2.64l.6,1.39,1.09.17-.91.25Z"/><path d="M227.87,110.26l-5.75-3,.64-.85-1.18.52-.87-.55,1-1.23-1.51.89-1.08-.66.77-.92-1.26.61-1.63-1h0a4.39,4.39,0,0,1,5.43.32l3,3.77Z"/><path d="M222.84,110.26l5.75-3-.63-.85,1.17.52.88-.55-1-1.23,1.52.89,1.07-.66-.77-.92,1.27.61,1.62-1h0a4.39,4.39,0,0,0-5.43.32l-2.95,3.77Z"/><path d="M227.17,134.41h-3.76s.42-5.33.49-7.11c.19-4.6.5-18.41.5-18.41h1.78s.31,13.81.5,18.41C226.75,129.08,227.17,134.41,227.17,134.41Z"/><path d="M225.4,108.89h-1s-.31,13.81-.5,18.41c-.07,1.78-.49,9.78-.49,9.78h3s-.42-8-.49-9.78C225.71,122.7,225.4,108.89,225.4,108.89Z"/><path d="M225.3,108.92l-6.48,0,.18-1-.81,1-1-.08.31-1.55-.95,1.49-1.25-.1.26-1.17-.85,1.12-1.9-.15h0a4.39,4.39,0,0,1,5-2.2l7.6,2Z"/><path d="M225.29,108.92l6.47,0-.17-1,.8,1,1-.08-.3-1.55.94,1.49,1.25-.1-.26-1.17.85,1.12,1.9-.15h0a4.38,4.38,0,0,0-5-2.2l-7.61,2Z"/><path d="M225.25,109l-5.82,2.84-.31-1-.28,1.25-1,.39-.41-1.52-.18,1.75-1.17.47-.28-1.17-.26,1.38-1.78.71h0a4.39,4.39,0,0,1,3.48-4.18l8.08-1.68Z"/><path d="M225.36,108.75l-3.94,5.14-.73-.77.31,1.25-.69.77-1-1.18.62,1.65-.84.94-.77-.92.38,1.36-1.28,1.42h0a4.39,4.39,0,0,1,1.26-5.29l6.72-5Z"/><path d="M225.36,109l5.82,2.84.3-1,.29,1.25,1,.39.4-1.52.19,1.75,1.17.47.28-1.17.26,1.38,1.78.71h0a4.4,4.4,0,0,0-3.49-4.18l-8-1.68Z"/><path d="M225.36,108.75l3.93,5.14.73-.77-.31,1.25.69.77,1-1.18-.62,1.65.84.94.77-.92-.38,1.36,1.27,1.42h0a4.38,4.38,0,0,0-1.25-5.29l-6.72-5Z"/><path d="M262.29,103.29a3.47,3.47,0,0,0-3.39,2.64l-.66,1.65c.1,0,.6.59.7.59.53,0,.93-.58,1.27-.17l.17-.32-.8-.27,1-.19.32-.75-1.19-.36,1.39-.1.4-.91-.91-.25,1.09-.17Z"/><path d="M256.7,106l1.39.1-1.19.36.32.75,1,.19-.8.27.06.09,0,0c.51-.33.85.13,1.41.43l0-2.24a3.47,3.47,0,0,0-3.39-2.64l.61,1.39,1.09.17-.91.25Z"/><path d="M261.45,110.26l-5.75-3,.64-.85-1.18.52-.88-.55,1-1.23-1.52.89-1.07-.66.77-.92-1.26.61-1.63-1h0a4.39,4.39,0,0,1,5.43.32l3,3.77Z"/><path d="M256.42,110.26l5.75-3-.64-.85,1.18.52.88-.55-1-1.23,1.52.89,1.07-.66-.77-.92,1.27.61,1.62-1h0a4.39,4.39,0,0,0-5.43.32l-2.95,3.77Z"/><path d="M260.75,134.41H257s.42-5.33.49-7.11c.19-4.6.5-18.41.5-18.41h1.78s.31,13.81.5,18.41C260.33,129.08,260.75,134.41,260.75,134.41Z"/><path d="M259,108.89h-1s-.31,13.81-.5,18.41c-.07,1.78-.49,9.78-.49,9.78h3s-.42-8-.5-9.78C259.29,122.7,259,108.89,259,108.89Z"/><path d="M258.87,108.92l-6.47,0,.17-1-.81,1-1-.08.3-1.55-.94,1.49-1.26-.1.27-1.17-.85,1.12-1.9-.15h0a4.38,4.38,0,0,1,5-2.2l7.61,2Z"/><path d="M258.86,108.92l6.48,0-.18-1,.81,1,1-.08-.31-1.55.95,1.49,1.25-.1-.26-1.17.85,1.12,1.9-.15h0a4.39,4.39,0,0,0-5-2.2l-7.6,2Z"/><path d="M258.83,109,253,111.79l-.31-1-.28,1.25-1,.39-.41-1.52-.18,1.75-1.17.47-.28-1.17-.27,1.38-1.77.71h0a4.38,4.38,0,0,1,3.48-4.18l8.08-1.68Z"/><path d="M258.94,108.75,255,113.89l-.73-.77.31,1.25-.69.77-1-1.18.62,1.65-.84.94-.77-.92.38,1.36L251,118.41h0a4.38,4.38,0,0,1,1.25-5.29l6.73-5Z"/><path d="M258.94,109l5.81,2.84.31-1,.28,1.25,1,.39.41-1.52.19,1.75,1.17.47.28-1.17.26,1.38,1.78.71h0a4.4,4.4,0,0,0-3.49-4.18l-8-1.68Z"/><path d="M258.94,108.75l3.93,5.14.73-.77-.31,1.25.69.77,1-1.18-.62,1.65.84.94.78-.92-.39,1.36,1.28,1.42h0a4.38,4.38,0,0,0-1.25-5.29l-6.72-5Z"/><path d="M295.87,101.52a3.46,3.46,0,0,0-3.39,2.64l-.66,1.64c.1,0,.6.6.69.6.54,0,.94-.58,1.28-.18l.17-.32-.8-.26,1-.2.32-.74-1.19-.36,1.39-.1.4-.92-.91-.25,1.09-.17Z"/><path d="M290.28,104.24l1.39.1-1.19.36.32.74,1,.2-.8.26.05.1.06,0c.51-.32.85.13,1.4.44l0-2.24a3.46,3.46,0,0,0-3.39-2.64l.61,1.38,1.09.17-.91.25Z"/><path d="M295,108.49l-5.75-3,.63-.86-1.17.52-.88-.54,1-1.23-1.52.89-1.07-.66.77-.92-1.27.61-1.62-1h0a4.39,4.39,0,0,1,5.43.32l2.95,3.77Z"/><path d="M290,108.49l5.75-3-.64-.86,1.18.52.87-.54-1-1.23,1.52.89,1.07-.66-.77-.92,1.26.61,1.63-1h0a4.39,4.39,0,0,0-5.43.32l-3,3.77Z"/><path d="M294.32,132.64h-3.75s.42-5.33.49-7.11c.18-4.6.5-18.41.5-18.41h1.77s.32,13.81.5,18.41C293.9,127.31,294.32,132.64,294.32,132.64Z"/><path d="M292.55,107.12h-1s-.32,13.81-.5,18.41c-.07,1.78-.49,9.77-.49,9.77h3s-.42-8-.49-9.77C292.87,120.93,292.55,107.12,292.55,107.12Z"/><path d="M292.45,107.15l-6.47,0,.17-1.05-.81,1-1-.09.31-1.54-.94,1.49-1.26-.1.27-1.17-.85,1.12-1.91-.16h0a4.39,4.39,0,0,1,5-2.19l7.6,2Z"/><path d="M292.44,107.15l6.48,0-.18-1.05.81,1,1-.09-.31-1.54,1,1.49,1.25-.1-.26-1.17.84,1.12,1.91-.16h0a4.39,4.39,0,0,0-5-2.19l-7.6,2Z"/><path d="M292.41,107.17,286.59,110l-.31-1-.28,1.25-1,.38-.41-1.52-.18,1.76-1.17.46-.29-1.16-.26,1.38-1.77.7h0a4.36,4.36,0,0,1,3.48-4.17l8.07-1.68Z"/><path d="M292.51,107l-3.93,5.15-.73-.78.31,1.25-.69.77-1.05-1.17.62,1.65-.84.94-.77-.92.39,1.35-1.28,1.43h0a4.4,4.4,0,0,1,1.25-5.3l6.72-4.94Z"/><path d="M292.51,107.17l5.82,2.85.31-1,.28,1.25,1,.38.41-1.52.18,1.76,1.17.46.29-1.16.26,1.38,1.77.7h0a4.36,4.36,0,0,0-3.48-4.17l-8-1.68Z"/><path d="M292.51,107l3.94,5.15.73-.78-.31,1.25.69.77,1-1.17-.62,1.65.84.94.77-.92-.38,1.35,1.28,1.43h0a4.39,4.39,0,0,0-1.26-5.3l-6.72-4.94Z"/><path class="cls-5" d="M392.19,136.49a16.75,16.75,0,0,1-16.75,16.75H132.89c-15.17,0-49.11-12.29-49.11-27.45H392.19Z"/><polygon class="cls-12" points="138.5 229.19 172.48 229.19 172.48 343.29 130.7 343.29 138.5 229.19"/><path class="cls-5" d="M209.21,343.29h-56L130.7,160.77H198v104a278.1,278.1,0,0,0,9.88,73.49Z"/><rect class="cls-12" x="142.16" y="153.24" width="44.33" height="7.52"/><polygon class="cls-12" points="232 229.19 265.98 229.19 265.98 343.29 224.21 343.29 232 229.19"/><path class="cls-5" d="M302.72,343.29h-56L224.21,160.77h67.25v104a278.11,278.11,0,0,0,9.89,73.49Z"/><rect class="cls-12" x="235.67" y="153.24" width="44.33" height="7.52"/><polygon class="cls-12" points="321.94 229.19 355.93 229.19 355.93 343.29 314.15 343.29 321.94 229.19"/><path class="cls-5" d="M392.66,343.29h-56L314.15,160.77H381.4v104a278.11,278.11,0,0,0,9.89,73.49Z"/><rect class="cls-12" x="325.61" y="153.24" width="44.33" height="7.52"/><g class="cls-13"><line class="cls-14" x1="120.91" y1="170.14" x2="217.01" y2="170.14"/><line class="cls-14" x1="120.91" y1="170.14" x2="217.01" y2="170.22"/><line class="cls-14" x1="120.9" y1="178.7" x2="217" y2="178.78"/><line class="cls-14" x1="120.9" y1="187.26" x2="216.99" y2="187.35"/><line class="cls-14" x1="120.89" y1="195.82" x2="216.98" y2="195.91"/><line class="cls-14" x1="120.88" y1="204.38" x2="216.98" y2="204.47"/><line class="cls-14" x1="120.87" y1="212.94" x2="216.97" y2="213.03"/><line class="cls-14" x1="120.86" y1="221.5" x2="216.96" y2="221.59"/><line class="cls-14" x1="120.86" y1="230.07" x2="216.95" y2="230.15"/><line class="cls-14" x1="120.85" y1="238.63" x2="216.95" y2="238.71"/><line class="cls-14" x1="120.84" y1="247.19" x2="216.94" y2="247.28"/><line class="cls-14" x1="120.83" y1="255.75" x2="216.93" y2="255.84"/><line class="cls-14" x1="120.83" y1="264.31" x2="216.92" y2="264.4"/><line class="cls-14" x1="120.82" y1="272.87" x2="216.91" y2="272.96"/><line class="cls-14" x1="120.81" y1="281.43" x2="216.91" y2="281.52"/><line class="cls-14" x1="120.8" y1="290" x2="216.9" y2="290.08"/><line class="cls-14" x1="120.8" y1="298.56" x2="216.89" y2="298.64"/><line class="cls-14" x1="120.79" y1="307.12" x2="216.88" y2="307.2"/><line class="cls-14" x1="120.78" y1="315.68" x2="216.88" y2="315.77"/><line class="cls-14" x1="120.77" y1="324.24" x2="216.87" y2="324.33"/><line class="cls-14" x1="120.76" y1="332.8" x2="216.86" y2="332.89"/></g><g class="cls-15"><line class="cls-14" x1="214.41" y1="170.14" x2="310.51" y2="170.14"/><line class="cls-14" x1="214.41" y1="170.14" x2="310.51" y2="170.22"/><line class="cls-14" x1="214.41" y1="178.7" x2="310.5" y2="178.78"/><line class="cls-14" x1="214.4" y1="187.26" x2="310.5" y2="187.35"/><line class="cls-14" x1="214.39" y1="195.82" x2="310.49" y2="195.91"/><line class="cls-14" x1="214.38" y1="204.38" x2="310.48" y2="204.47"/><line class="cls-14" x1="214.38" y1="212.94" x2="310.47" y2="213.03"/><line class="cls-14" x1="214.37" y1="221.5" x2="310.46" y2="221.59"/><line class="cls-14" x1="214.36" y1="230.07" x2="310.46" y2="230.15"/><line class="cls-14" x1="214.35" y1="238.63" x2="310.45" y2="238.71"/><line class="cls-14" x1="214.35" y1="247.19" x2="310.44" y2="247.28"/><line class="cls-14" x1="214.34" y1="255.75" x2="310.43" y2="255.84"/><line class="cls-14" x1="214.33" y1="264.31" x2="310.43" y2="264.4"/><line class="cls-14" x1="214.32" y1="272.87" x2="310.42" y2="272.96"/><line class="cls-14" x1="214.31" y1="281.43" x2="310.41" y2="281.52"/><line class="cls-14" x1="214.31" y1="290" x2="310.4" y2="290.08"/><line class="cls-14" x1="214.3" y1="298.56" x2="310.4" y2="298.64"/><line class="cls-14" x1="214.29" y1="307.12" x2="310.39" y2="307.2"/><line class="cls-14" x1="214.28" y1="315.68" x2="310.38" y2="315.77"/><line class="cls-14" x1="214.28" y1="324.24" x2="310.37" y2="324.33"/><line class="cls-14" x1="214.27" y1="332.8" x2="310.36" y2="332.89"/></g><g class="cls-16"><line class="cls-14" x1="304.36" y1="170.14" x2="400.45" y2="170.14"/><line class="cls-14" x1="304.36" y1="170.14" x2="400.45" y2="170.22"/><line class="cls-14" x1="304.35" y1="178.7" x2="400.44" y2="178.78"/><line class="cls-14" x1="304.34" y1="187.26" x2="400.44" y2="187.35"/><line class="cls-14" x1="304.33" y1="195.82" x2="400.43" y2="195.91"/><line class="cls-14" x1="304.33" y1="204.38" x2="400.42" y2="204.47"/><line class="cls-14" x1="304.32" y1="212.94" x2="400.41" y2="213.03"/><line class="cls-14" x1="304.31" y1="221.5" x2="400.41" y2="221.59"/><line class="cls-14" x1="304.3" y1="230.07" x2="400.4" y2="230.15"/><line class="cls-14" x1="304.29" y1="238.63" x2="400.39" y2="238.71"/><line class="cls-14" x1="304.29" y1="247.19" x2="400.38" y2="247.28"/><line class="cls-14" x1="304.28" y1="255.75" x2="400.38" y2="255.84"/><line class="cls-14" x1="304.27" y1="264.31" x2="400.37" y2="264.4"/><line class="cls-14" x1="304.26" y1="272.87" x2="400.36" y2="272.96"/><line class="cls-14" x1="304.26" y1="281.43" x2="400.35" y2="281.52"/><line class="cls-14" x1="304.25" y1="290" x2="400.34" y2="290.08"/><line class="cls-14" x1="304.24" y1="298.56" x2="400.34" y2="298.64"/><line class="cls-14" x1="304.23" y1="307.12" x2="400.33" y2="307.2"/><line class="cls-14" x1="304.23" y1="315.68" x2="400.32" y2="315.77"/><line class="cls-14" x1="304.22" y1="324.24" x2="400.31" y2="324.33"/><line class="cls-14" x1="304.21" y1="332.8" x2="400.31" y2="332.89"/></g><polyline class="cls-7" points="257.79 285.87 201.22 304.47 200.37 307.07 265 286.7"/><path class="cls-8" d="M319.58,327.19s-1.84-1.89-8.52-3.62c-3.26-.85-9.7-.75-8.45-6.32,1.61-7.14,17.55.79,17.55.79a57,57,0,0,0,.93-8.82l-.65-.41c-12.23-7.6-21.45-.27-24.9-9-2.36-5.95,5.15-5.69,7.47-5.54,8,.51,16.26,4.53,16.26,4.53h.46a60.23,60.23,0,0,0-2.65-8.87l-.33-.19c-14.07-8.59-23.2-2.51-30.7-4.5-2.24-.59-5.31-8.2,4.63-9.38,9.52-1.12,20,3.22,21,3.53-5.7-8.49-13.29-14-20.91-15-22.24-3-27.09,19.05-25.73,22.32-2.46-2.54-24.61-6.84-30.71,14.75-2.09,7.4-.05,16.56,5.48,25.16.11-1,.28-12.36,5.09-20.65,5-8.66,10.79-2.82,10.45-.52-1.16,7.67-10.36,13.64-8.07,30,0,.13,0,.25,0,.38a60.43,60.43,0,0,0,7.09,6c.12-.26.18-.42.18-.42s-.4-9.18,2.31-16.72c.78-2.19,3.52-9.18,8.05-4.66,6.63,6.64-3.76,12.18-1.65,26.42,0,.27.08.52.13.77a56.33,56.33,0,0,0,8.45,2.64s-.94-17.77,6.25-16.41c5.62,1.06,3,6.93,2.45,10.26-1.07,6.82-.07,9.26-.07,9.26a80.57,80.57,0,0,0,28.21.34A80.45,80.45,0,0,0,319.58,327.19Zm-58.95-25.58c-1.37,0-4.4-2.42-4-3.72.68-2.19,8.07-3.38,9.05-1.32C266.46,298.19,262.41,301.58,260.63,301.61Zm8.83,14.19c-.94.18-3-1.54-2.94-2.5.18-1.63,4.67-4.22,5.83-3.05S271,315.49,269.46,315.8Zm11.3-27.42c-.73,1.63-5.45,4-6.63,2.65-1.5-1.72,2.53-8,4.8-7.79C280.29,283.39,281.32,287.14,280.76,288.38ZM284,302.57c-.6-1.53,3.55-4.62,5.12-4.13.92.28,1.67,2.89,1.12,3.69C289.39,303.42,284.61,304,284,302.57Zm-2.68,27.52c-.63.38-2.59-.29-2.77-1-.31-1.21,2.22-4.26,3.36-3.73S282.36,329.47,281.35,330.09Zm17.32-11.38c-1,.69-4.55-.15-4.58-1.34s3.76-2.36,4.76-1.6C299.43,316.22,299.27,318.29,298.67,318.71Z"/><path class="cls-9" d="M251.16,329.88a57,57,0,0,1,2.79-9.29,43.69,43.69,0,0,1,4.49-8.63,24.74,24.74,0,0,1,6.89-6.94,18.44,18.44,0,0,1,4.5-2.09,19.64,19.64,0,0,1,4.94-.7.56.56,0,0,1,.57.55.57.57,0,0,1-.55.58h0a18.23,18.23,0,0,0-4.65.52,17.57,17.57,0,0,0-4.32,1.86,24,24,0,0,0-6.88,6.55,43,43,0,0,0-4.69,8.41A57.12,57.12,0,0,0,251.16,329.88Z"/><path class="cls-9" d="M267.72,341.56q1.93-8.12,4.56-16c.9-2.64,1.88-5.25,3-7.81l.89-1.9,1-1.86c.34-.62.76-1.2,1.14-1.8s.92-1.12,1.38-1.68a.56.56,0,1,1,.87.71l0,.05-.06.05a25.17,25.17,0,0,0-4.42,6.79c-1.2,2.49-2.26,5-3.24,7.64Q269.91,333.51,267.72,341.56Z"/><path class="cls-9" d="M292.33,348.15a29.29,29.29,0,0,1-1.86-5.56,47.26,47.26,0,0,1-1-5.81,52.82,52.82,0,0,1-.24-5.9c0-1,.08-2,.11-2.95s.18-2,.26-2.95a.56.56,0,0,1,.61-.51.58.58,0,0,1,.52.61v.06c-.13,1-.28,1.91-.4,2.88s-.21,1.93-.25,2.89a54,54,0,0,0,0,5.83,47.11,47.11,0,0,0,.68,5.79A29,29,0,0,0,292.33,348.15Z"/><path class="cls-9" d="M237.89,306.53a31,31,0,0,1,4-8.15,25.27,25.27,0,0,1,6.37-6.51,22,22,0,0,1,4.05-2.2,22.71,22.71,0,0,1,4.44-1.25,26.63,26.63,0,0,1,9.21.24.55.55,0,0,1,.45.65.56.56,0,0,1-.66.45h0a25.6,25.6,0,0,0-8.85-.51,22.93,22.93,0,0,0-4.32,1.07,21.85,21.85,0,0,0-4,2,24.8,24.8,0,0,0-6.46,6.22A30.67,30.67,0,0,0,237.89,306.53Z"/><path class="cls-7" d="M319.59,327.19s-1.84-1.89-8.51-3.62c-3.27-.84-9.71-.75-8.45-6.32,1.6-7.14,17.54.78,17.54.78a56.82,56.82,0,0,0,.93-8.8c-.2-.14-.42-.28-.65-.42-12.23-7.6-21.45-.27-24.9-9-2.36-5.95,5.15-5.68,7.48-5.54,8,.52,16.25,4.53,16.25,4.53h.46a60.23,60.23,0,0,0-2.65-8.87c-.1-.07-.22-.12-.33-.19-14.06-8.58-23.2-2.51-30.7-4.5-2.24-.59-5.31-8.2,4.63-9.37,9.52-1.13,20,3.22,21,3.52-5.7-8.49-13.29-14-20.92-15-22.23-3-27.08,19.05-25.73,22.31l43.69,66.51A80.45,80.45,0,0,0,319.59,327.19Zm-38.81-38.81c-.74,1.63-5.46,4-6.64,2.65-1.5-1.72,2.53-8,4.8-7.78C280.3,283.39,281.34,287.14,280.78,288.38Zm9.5,13.75c-.88,1.29-5.66,1.89-6.23.44s3.54-4.61,5.12-4.13C290.08,298.72,290.83,301.34,290.28,302.13Zm8.4,16.58c-1,.69-4.55-.14-4.58-1.34s3.76-2.36,4.76-1.6C299.44,316.22,299.29,318.29,298.68,318.71Z"/><path class="cls-9" d="M310.11,291.16a55.71,55.71,0,0,0-9.64-.84,43.32,43.32,0,0,0-9.58,1,24,24,0,0,0-8.75,3.7,18.07,18.07,0,0,0-3.42,3.23,18.66,18.66,0,0,0-2.33,4.07v0a.57.57,0,0,1-.74.3.56.56,0,0,1-.3-.74h0a19.41,19.41,0,0,1,2.61-4.26,18.7,18.7,0,0,1,3.7-3.3,24.73,24.73,0,0,1,9.11-3.56,43.9,43.9,0,0,1,9.7-.7A57.78,57.78,0,0,1,310.11,291.16Z"/><path class="cls-9" d="M314.24,311q-8.24-1.17-16.56-1.62c-2.76-.13-5.53-.17-8.29-.07a25.36,25.36,0,0,0-8,1.37l-.08,0a.56.56,0,0,1-.41-1l.05,0c.7-.2,1.39-.47,2.09-.6s1.4-.27,2.11-.33l2.1-.18,2.1-.06c2.79,0,5.58.12,8.35.35C303.26,309.29,308.78,310,314.24,311Z"/><path class="cls-9" d="M311.29,335.76a29.21,29.21,0,0,0-4.53-3.69,45.93,45.93,0,0,0-5-2.93,54.82,54.82,0,0,0-5.36-2.27c-.9-.35-1.84-.61-2.76-.92s-1.87-.52-2.8-.78h0a.56.56,0,0,1-.39-.69.57.57,0,0,1,.7-.39h0c.94.32,1.88.61,2.81.93s1.86.67,2.76,1.07a54.1,54.1,0,0,1,5.31,2.57,47.43,47.43,0,0,1,4.95,3.19A29,29,0,0,1,311.29,335.76Z"/><path class="cls-9" d="M294,269.71a31,31,0,0,0-9,.7,24.8,24.8,0,0,0-8.26,3.46,21.34,21.34,0,0,0-3.43,2.86,22.6,22.6,0,0,0-2.7,3.53,25.78,25.78,0,0,0-3.05,8.33.56.56,0,1,1-1.11-.21v0a26.75,26.75,0,0,1,3.44-8.54,22.85,22.85,0,0,1,2.91-3.59,22.61,22.61,0,0,1,3.63-2.84,25.19,25.19,0,0,1,8.51-3.25A31,31,0,0,1,294,269.71Z"/><line class="cls-10" x1="265.01" y1="286.7" x2="308.69" y2="353.21"/><path class="cls-17" d="M95.2,141.06c11.28,7.34,28.17,12.18,37.69,12.18H375.44a16.74,16.74,0,0,0,16.11-12.18Z"/><rect class="cls-12" x="126.41" y="122.32" width="75.85" height="3.46"/><rect class="cls-18" x="153.99" y="110.52" width="36.55" height="3.46"/><rect class="cls-18" x="333.8" y="110.91" width="36.55" height="3.46"/><path class="cls-19" d="M61.79,242.21A34.45,34.45,0,0,1,53,241.05c-5.8-1.51-10.26-4.39-12.92-8.32A14.21,14.21,0,0,1,38,221c1.58-6,6.76-9.5,14.21-9.5a32.58,32.58,0,0,1,8.22,1.16c12.32,3.22,20.67,12.21,18.62,20C77.57,238.48,70.78,242.21,61.79,242.21Z"/><path d="M52.24,212.08h0a32.38,32.38,0,0,1,8.08,1.14,30.09,30.09,0,0,1,14.5,8.22c3.33,3.63,4.65,7.58,3.72,11.13-1.45,5.52-8,9.08-16.76,9.08a33.78,33.78,0,0,1-8.6-1.14c-12.65-3.31-16.43-12.35-14.6-19.35,1.53-5.85,6.38-9.08,13.66-9.08m0-1.12c-7.93,0-13.13,3.74-14.75,9.92-2.13,8.13,2.77,17.41,15.4,20.72a35.12,35.12,0,0,0,8.89,1.17c8.94,0,16.23-3.74,17.84-9.91,2.14-8.14-6.38-17.42-19-20.73A33.55,33.55,0,0,0,52.24,211Z"/><path class="cls-19" d="M100.37,242.21c-9,0-15.78-3.73-17.29-9.5-1-3.74.38-7.88,3.84-11.65a30.68,30.68,0,0,1,14.77-8.38,32.64,32.64,0,0,1,8.22-1.16c7.45,0,12.63,3.46,14.21,9.5A14.24,14.24,0,0,1,122,232.73c-2.66,3.93-7.13,6.81-12.92,8.32a34.45,34.45,0,0,1-8.75,1.16Z"/><path d="M109.91,212.08c7.28,0,12.14,3.23,13.67,9.08,1.83,7-2,16-14.6,19.35a33.8,33.8,0,0,1-8.61,1.14c-8.73,0-15.3-3.56-16.75-9.08-2-7.52,6.2-16.2,18.21-19.35a32.51,32.51,0,0,1,8.08-1.14m0-1.12a33.53,33.53,0,0,0-8.36,1.17c-12.63,3.31-21.15,12.59-19,20.73,1.62,6.17,8.9,9.91,17.84,9.91a35.19,35.19,0,0,0,8.9-1.17c12.63-3.31,17.53-12.59,15.4-20.72-1.62-6.18-6.82-9.92-14.76-9.92Z"/><rect class="cls-19" x="71.52" y="226.87" width="19.04" height="11.18"/><path class="cls-3" d="M51.72,265c-2.81,0-5-.85-6.26-2.46-1.77-2.22-1.75-5.7.06-9.79a33.94,33.94,0,0,1,9.93-12.14c5.75-4.59,12.23-7.33,17.34-7.33,2.81,0,5,.85,6.26,2.46,3.75,4.7-.72,14.54-10,21.93C63.32,262.3,56.83,265,51.72,265Z"/><path d="M72.79,233.88h0c1.84,0,4.34.39,5.82,2.25,1.64,2.05,1.59,5.32-.13,9.21a33.38,33.38,0,0,1-9.76,11.93c-5.66,4.51-12,7.21-17,7.21-1.84,0-4.33-.39-5.82-2.25-3.5-4.38,1-14.07,9.9-21.14,5.65-4.51,12-7.21,17-7.21m0-1.12c-5,0-11.65,2.62-17.69,7.45C45.58,247.8,41.07,258,45,262.93c1.45,1.81,3.81,2.67,6.7,2.67,5,0,11.65-2.62,17.7-7.45,9.51-7.59,14-17.77,10.07-22.72-1.44-1.81-3.81-2.67-6.7-2.67Z"/><path class="cls-3" d="M108.32,264.38c-5.11,0-11.6-2.74-17.35-7.33a33.91,33.91,0,0,1-9.92-12.14c-1.82-4.09-1.84-7.57-.06-9.79,1.28-1.61,3.45-2.46,6.26-2.46,5.11,0,11.59,2.74,17.34,7.33,9.26,7.39,13.74,17.23,10,21.93-1.28,1.61-3.44,2.46-6.25,2.46Z"/><path d="M87.24,233.22c5,0,11.35,2.69,17,7.21A33.38,33.38,0,0,1,114,252.36c1.72,3.89,1.77,7.16.13,9.21-1.48,1.86-4,2.25-5.81,2.25-5,0-11.34-2.7-17-7.21a33.38,33.38,0,0,1-9.76-11.93c-1.72-3.89-1.77-7.16-.13-9.21,1.48-1.86,4-2.25,5.81-2.25m0-1.12c-2.88,0-5.25.86-6.69,2.66-4,5,.55,15.13,10.07,22.73,6,4.83,12.66,7.45,17.7,7.45,2.89,0,5.25-.86,6.69-2.67,4-4.95-.55-15.13-10.07-22.72-6-4.83-12.66-7.45-17.7-7.45Z"/><path d="M76.39,251.19C79.84,245.68,80.64,240.3,78,237c-1.5-1.89-4-2.88-7.13-2.88a21.61,21.61,0,0,0-7,1.33,23.91,23.91,0,0,1,10.31-2.81c2.81,0,5,.85,6.26,2.46,1.77,2.22,1.75,5.7-.06,9.79A28.18,28.18,0,0,1,76.39,251.19Z"/><path d="M74.14,233.22c1.84,0,4.34.39,5.82,2.25,1.71,2.14,1.5,5.56-.2,9.32.73-3.19.35-6-1.31-8.12s-4.23-3.09-7.57-3.09H70.8a16.54,16.54,0,0,1,3.34-.36m0-1.12c-5,0-11.65,2.62-17.7,7.45-.55.44-1.08.89-1.59,1.34,5.57-4,11.46-6.19,16-6.19,2.89,0,5.25.86,6.69,2.67,3.73,4.67-.06,14-8.47,21.38.56-.4,1.12-.82,1.67-1.26,9.51-7.6,14-17.77,10.07-22.73-1.44-1.8-3.81-2.66-6.7-2.66Z"/><path d="M85,251a27.88,27.88,0,0,1-4-6.29c-1.82-4.09-1.84-7.56-.06-9.79,1.28-1.61,3.45-2.46,6.26-2.46a24.06,24.06,0,0,1,10.31,2.81,21.61,21.61,0,0,0-7-1.33c-3.17,0-5.63,1-7.14,2.88C80.79,240.12,81.58,245.49,85,251Z"/><path d="M87.29,231.91V233a17.23,17.23,0,0,1,3.33.35h-.08c-3.33,0-6,1.07-7.57,3.09s-2,4.93-1.3,8.12c-1.7-3.76-1.91-7.17-.2-9.32,1.48-1.85,4-2.24,5.82-2.24v-1.13m0,0c-2.88,0-5.25.86-6.69,2.67-4,5,.55,15.13,10.07,22.73.55.43,1.11.85,1.67,1.26-8.41-7.42-12.2-16.72-8.48-21.39,1.44-1.8,3.81-2.66,6.7-2.66,4.57,0,10.45,2.17,16,6.19-.52-.46-1-.91-1.6-1.35-6-4.83-12.66-7.45-17.7-7.45Z"/><rect class="cls-3" x="70.72" y="234.07" width="19.04" height="11.18" transform="translate(319.9 159.41) rotate(90)"/><path class="cls-20" d="M85.7,230.39c0-2.85.5-3.95,2.76-5.68,3.81-2.93,9.93-7.85,9.93-13.42,0-9-10.12-16.28-18.15-16.28S62.1,202.3,62.1,211.29c0,5.57,6.12,10.49,9.93,13.42,2.26,1.73,2.77,3.14,2.77,6"/><path class="cls-21" d="M80.39,246.93c-.81-3,1-13.81-5.19-26.34-3-6.18-8.48-5.1-10.11-7.93-.44-.77,2.21-.69,2.21-1.37,0-.85-2.09-3.82-1.77-4.67.37-1,3.21.11,4-.84.56-.7-1.09-3.33-.33-4,.24-.21,2.81,1.56,3.06,1.37,1-.7,1.06-4.45,2.09-4.92,1.7-.77,4.35,1.94,5.91,1.94.62,0,1.56-3.22,2.22-3.09,1.15.23,2.05,3.93,3.22,4.5s3.23-2.47,4.25-1.61c.37.3-.23,4.38.09,4.7.7.7,2.69-1.75,3.17-1s-.63,4.56-.4,5.25,2.27-1.16,2.27-.4c0,3.23-5.47,4-9.74,11.52S81.21,243.92,80.39,246.93Z"/><path class="cls-22" d="M80.23,283.9A25.54,25.54,0,0,1,59.93,274c-1.18-1.52-1.64-2.67-1.45-3.62s1.31-2.1,3.64-3.42a26.94,26.94,0,0,0,11.58-13l.2-.48-.46-.24a7.93,7.93,0,0,1-4.38-7.11c0-.19,0-.38,0-.56a8,8,0,0,1,1.52-4.14l0,0A7.79,7.79,0,0,1,72,239.89l.11-.08a7.26,7.26,0,0,0,2.62-3.68,9.07,9.07,0,0,0,.38-2.59,8.43,8.43,0,0,0-.06-1,7.36,7.36,0,0,1,1.41,4.41c0,.19,0,.38,0,.57a7.81,7.81,0,0,1-.8,3l-.23.46.44.27c2.51,1.54,3.7,2.75,3.7,5.45a.91.91,0,0,0,.22.61.82.82,0,0,0,.59.25.89.89,0,0,0,.86-.92c0-2.84,1-4,3.36-5.39l.44-.27-.23-.46a8.2,8.2,0,0,1-.8-3c0-.19,0-.38,0-.57a8,8,0,0,1,1.37-4.46c0,.38,0,.72,0,1.06a9.15,9.15,0,0,0,.37,2.61,7.31,7.31,0,0,0,2.63,3.67l.09.07a7.91,7.91,0,0,1,2.94,5.62c0,.18,0,.37,0,.56A8,8,0,0,1,87,253.18l-.46.24.2.48a27,27,0,0,0,11.57,13c2.34,1.32,3.42,2.34,3.64,3.42s-.27,2.1-1.45,3.62A25.52,25.52,0,0,1,80.23,283.9Z"/><path d="M84.86,234.81a8.52,8.52,0,0,0,.32,1.5A7.79,7.79,0,0,0,88,240.26l.09.07a7.29,7.29,0,0,1,1.27,1.33l0,.06a7.35,7.35,0,0,1,1.4,3.83c0,.17,0,.35,0,.52a7.38,7.38,0,0,1-4.06,6.61l-.93.47.4,1a27.51,27.51,0,0,0,11.82,13.29c2.14,1.21,3.18,2.15,3.36,3s-.29,1.8-1.34,3.16a25.12,25.12,0,0,1-39.71,0c-1-1.36-1.49-2.39-1.34-3.16s1.22-1.83,3.37-3a27.56,27.56,0,0,0,11.82-13.29l.4-1-.93-.48a7.36,7.36,0,0,1-4.06-6.61,4.52,4.52,0,0,1,0-.52A7.26,7.26,0,0,1,71,241.72h0l0-.06a7.12,7.12,0,0,1,1.29-1.34l.08-.06a7.83,7.83,0,0,0,2.82-4,9.17,9.17,0,0,0,.32-1.47,7.62,7.62,0,0,1,.31,2.13c0,.17,0,.35,0,.53a7.45,7.45,0,0,1-.74,2.74l-.46.92.87.54c2.38,1.46,3.44,2.52,3.44,5a1.38,1.38,0,0,0,1.37,1.42,1.44,1.44,0,0,0,1.42-1.48c0-2.59.91-3.57,3.1-4.91l.87-.54-.45-.92a7.08,7.08,0,0,1-.74-2.74,4.78,4.78,0,0,1,0-.53,7.27,7.27,0,0,1,.31-2.13m-9.76-2.9a.61.61,0,0,0-.6.68,7.46,7.46,0,0,1,0,.95,8.81,8.81,0,0,1-.34,2.43,6.74,6.74,0,0,1-2.44,3.39l-.11.09A8.63,8.63,0,0,0,70.18,241h0a8.55,8.55,0,0,0-1.66,4.48c0,.2,0,.4,0,.6a8.55,8.55,0,0,0,4.68,7.62,26.32,26.32,0,0,1-11.34,12.74c-4.1,2.32-5.25,4.15-2.35,7.87a26.25,26.25,0,0,0,41.48,0c2.89-3.72,1.74-5.55-2.36-7.87a26.32,26.32,0,0,1-11.33-12.75A8.51,8.51,0,0,0,92,246.07c0-.2,0-.4,0-.6A8.55,8.55,0,0,0,90.27,241h0a8.63,8.63,0,0,0-1.48-1.54l-.1-.08A6.71,6.71,0,0,1,86.25,236a8.64,8.64,0,0,1-.35-2.45c0-.32,0-.63,0-.95a.61.61,0,0,0-.6-.68.55.55,0,0,0-.47.26,8.48,8.48,0,0,0-1.46,4.77c0,.2,0,.4,0,.61a8.43,8.43,0,0,0,.86,3.16c-2.45,1.5-3.64,2.79-3.64,5.87a.32.32,0,0,1-.29.36c-.13,0-.25-.1-.25-.3,0-3.08-1.52-4.43-4-5.93a8.43,8.43,0,0,0,.86-3.16c0-.21,0-.41,0-.61a8.48,8.48,0,0,0-1.46-4.77.55.55,0,0,0-.47-.26Z"/><path class="cls-19" d="M69.46,243.6a7.84,7.84,0,0,1,1.14-2.23l0,0A7.79,7.79,0,0,1,72,239.89l.11-.08a7.26,7.26,0,0,0,2.62-3.68,9.07,9.07,0,0,0,.38-2.59c0-.28,0-.57,0-.85a6.8,6.8,0,0,1,1,1.81,7.65,7.65,0,0,1,.39,2.44c0,.19,0,.38,0,.57s0,.51-.09.77a6.8,6.8,0,0,1-6.62,5.33Z"/><path d="M75.6,234.82a7.6,7.6,0,0,1,.31,2.12c0,.17,0,.35,0,.53s0,.47-.08.67A6.25,6.25,0,0,1,70.28,243a8.13,8.13,0,0,1,.76-1.31h0l0-.06a7.39,7.39,0,0,1,1.28-1.34l.09-.06a7.83,7.83,0,0,0,2.82-4,8.82,8.82,0,0,0,.32-1.46m-.5-2.9a.6.6,0,0,0-.6.67,7.46,7.46,0,0,1,0,.95,8.81,8.81,0,0,1-.34,2.43,6.74,6.74,0,0,1-2.44,3.39l-.11.09A8.63,8.63,0,0,0,70.18,241h0a8.52,8.52,0,0,0-1.44,3.11,8.12,8.12,0,0,0,1,.07,7.33,7.33,0,0,0,7.17-5.8,7.64,7.64,0,0,0,.1-.82c0-.21,0-.41,0-.61a8.53,8.53,0,0,0-.42-2.64,7.4,7.4,0,0,0-1.44-2.38Z"/><path class="cls-19" d="M90.73,243.61a6.8,6.8,0,0,1-6.62-5.36c0-.23-.07-.48-.08-.74a5.43,5.43,0,0,1,0-.57,7.86,7.86,0,0,1,.39-2.46,6.73,6.73,0,0,1,1-1.76c0,.29,0,.56,0,.82a8.94,8.94,0,0,0,.37,2.58,7.26,7.26,0,0,0,2.63,3.69l.1.08a7.85,7.85,0,0,1,1.38,1.44l0,0A7.79,7.79,0,0,1,91,243.6Z"/><path d="M84.88,234.82a9.26,9.26,0,0,0,.31,1.46,7.79,7.79,0,0,0,2.83,4l.09.07a7,7,0,0,1,1.28,1.33l0,.05a6.7,6.7,0,0,1,.77,1.32,6.23,6.23,0,0,1-5.52-4.85,5.94,5.94,0,0,1-.08-.71,4.78,4.78,0,0,1,0-.53,7.39,7.39,0,0,1,.31-2.12m.49-2.9h-.06a7.25,7.25,0,0,0-1.45,2.38,8.53,8.53,0,0,0-.42,2.64c0,.2,0,.4,0,.61s.06.55.1.82a7.33,7.33,0,0,0,7.17,5.8,8.28,8.28,0,0,0,1-.07A8.54,8.54,0,0,0,90.29,241h0a8.63,8.63,0,0,0-1.48-1.54l-.11-.09A6.72,6.72,0,0,1,86.27,236a8.45,8.45,0,0,1-.35-2.43c0-.32,0-.64,0-.95a.59.59,0,0,0-.6-.67Z"/><g class="cls-23"><path class="cls-3" d="M80.24,282.38A24,24,0,0,1,61.15,273C60,271.52,60,270.86,60,270.64c.08-.39.64-1.13,2.9-2.4.41-.23.82-.48,1.23-.74.6.41,6.78-6.23,7.4-5.87s-4.33,7.74-3.69,8.05c1,.47,5.57-7.48,6.57-7.12.38.13-2.87,8.62-2.49,8.73s2-3,2.46-2.88c.63.17,0,3.53.67,3.65,1.25.23,2.08-10.14,3.37-10.08.47,0,1.36,10.55,1.83,10.55.83,0,1.15-7.26,2-7.33,1.31-.11,3.1,6.92,4.36,6.63.63-.14-2.7-10.76-2.08-10.94s5.17,10.06,5.77,9.83-1.38-5.19-.73-5.49S93.41,269.3,94,269c.4-.23-5.7-7.33-5.3-7.58s7.28,6.37,7.67,6.1c.41.26.82.51,1.23.74,2.26,1.27,2.82,2,2.9,2.4,0,.21,0,.88-1.16,2.39A24,24,0,0,1,80.24,282.38Z"/></g><path d="M85.72,243.52a5.46,5.46,0,0,0-2-4.19,8.23,8.23,0,0,0,.54,1.38c-2.45,1.5-3.64,2.79-3.64,5.87,0,.44-.54.49-.54.06,0-3.08-1.52-4.43-4-5.93a8,8,0,0,0,.52-1.33,5.47,5.47,0,1,0,9,4.14Z"/><g class="cls-24"><g class="cls-23"><path class="cls-25" d="M123.16,222.69a22.57,22.57,0,0,1-6.88,18.77c-1.3,1.25-1.92,1.34-2.12,1.32-.38,0-1.12-.49-2.53-2.48-.26-.36-.53-.72-.82-1.08.33-.6-6.48-5.74-6.2-6.35s7.65,3.3,7.88,2.67c.35-.95-7.54-4.48-7.3-5.46.09-.36,8.34,1.85,8.41,1.49s-3-1.63-2.93-2c.09-.6,3.3-.37,3.34-1,.1-1.18-9.68-1-9.75-2.17,0-.43,9.73-2.3,9.69-2.74-.08-.78-6.91-.36-7-1.12-.23-1.21,6.17-3.57,5.78-4.72-.2-.58-9.8,3.57-10,3s8.91-5.81,8.64-6.35-4.72,1.79-5.07,1.22,3.44-4,3.07-4.56c-.25-.36-6.3,6-6.56,5.7s5.24-7.44,5-7.77c.2-.41.4-.82.57-1.23,1-2.23,1.61-2.83,2-2.94.2-.06.82-.1,2.35.85A22.59,22.59,0,0,1,123.16,222.69Z"/></g></g><g class="cls-26"><g class="cls-23"><path class="cls-25" d="M38.39,222.69a22.6,22.6,0,0,0,6.89,18.77c1.3,1.25,1.92,1.34,2.12,1.32.37,0,1.12-.49,2.53-2.48.25-.36.53-.72.81-1.08-.32-.6,6.49-5.74,6.21-6.35s-7.65,3.3-7.89,2.67c-.34-.95,7.54-4.48,7.31-5.46-.09-.36-8.34,1.85-8.42,1.49s3-1.63,2.94-2c-.09-.6-3.3-.37-3.35-1-.09-1.18,9.69-1,9.76-2.17,0-.43-9.74-2.3-9.69-2.74.08-.78,6.91-.36,7-1.12.23-1.21-6.17-3.57-5.78-4.72.2-.58,9.8,3.57,10,3S50,215,50.28,214.47s4.72,1.79,5.06,1.22-3.43-4-3.07-4.56c.26-.36,6.3,6,6.57,5.7s-5.24-7.44-5-7.77c-.21-.41-.4-.82-.58-1.23-1-2.23-1.6-2.83-2-2.94-.19-.06-.81-.1-2.34.85A22.63,22.63,0,0,0,38.39,222.69Z"/></g></g><path class="cls-27" d="M73.35,253.84l1.3-2.72S70,252,68.94,244C68.3,248.81,70.77,252.59,73.35,253.84Z"/><path class="cls-27" d="M87,253.43l-1.3-2.71s4.62.89,5.72-7.11C92.08,248.4,89.61,252.19,87,253.43Z"/><rect class="cls-12" x="314.15" y="121.25" width="75.85" height="3.46"/><path class="cls-19" d="M101.1,185.78a34.51,34.51,0,0,1-8.75-1.16c-5.79-1.51-10.26-4.39-12.92-8.32a14.24,14.24,0,0,1-2.08-11.71c1.58-6,6.76-9.5,14.21-9.5a33.06,33.06,0,0,1,8.22,1.15,30.72,30.72,0,0,1,14.77,8.39c3.46,3.77,4.83,7.91,3.85,11.65C116.88,182.05,110.1,185.78,101.1,185.78Z"/><path d="M91.56,155.65h0a32,32,0,0,1,8.08,1.14,30.1,30.1,0,0,1,14.5,8.22c3.32,3.62,4.64,7.58,3.71,11.13-1.44,5.51-8,9.08-16.75,9.08a34.31,34.31,0,0,1-8.61-1.14c-5.65-1.48-10-4.28-12.59-8.09a13.7,13.7,0,0,1-2-11.26c1.54-5.86,6.39-9.08,13.67-9.08m0-1.12c-7.94,0-13.14,3.74-14.76,9.91-2.13,8.14,2.77,17.42,15.41,20.73a35.52,35.52,0,0,0,8.89,1.17c8.94,0,16.22-3.74,17.84-9.92,2.13-8.13-6.38-17.41-19-20.72a33,33,0,0,0-8.36-1.17Z"/><path class="cls-19" d="M139.69,185.78c-9,0-15.79-3.73-17.3-9.5-1-3.74.39-7.88,3.84-11.65A30.75,30.75,0,0,1,141,156.24a33.06,33.06,0,0,1,8.22-1.15c7.45,0,12.63,3.46,14.21,9.5a14.21,14.21,0,0,1-2.09,11.71c-2.66,3.93-7.12,6.81-12.91,8.32a34.51,34.51,0,0,1-8.75,1.16Z"/><path d="M149.23,155.65c7.28,0,12.13,3.22,13.66,9.08,1.84,7-1.95,16-14.59,19.35a34.37,34.37,0,0,1-8.61,1.14c-8.73,0-15.31-3.57-16.75-9.08-2-7.53,6.2-16.21,18.21-19.35a31.92,31.92,0,0,1,8.08-1.14m0-1.12a33.15,33.15,0,0,0-8.37,1.17c-12.63,3.31-21.14,12.59-19,20.72,1.62,6.18,8.9,9.92,17.84,9.92a35.58,35.58,0,0,0,8.89-1.17c12.63-3.31,17.53-12.59,15.4-20.73-1.61-6.17-6.82-9.91-14.75-9.91Z"/><rect class="cls-19" x="110.84" y="170.43" width="19.04" height="11.18"/><path class="cls-3" d="M91,208.61c-2.81,0-5-.85-6.26-2.46-3.75-4.7.72-14.54,10-21.93,5.75-4.59,12.24-7.33,17.35-7.33,2.81,0,5,.85,6.25,2.46,1.78,2.22,1.76,5.7,0,9.79a33.94,33.94,0,0,1-9.93,12.14C102.63,205.87,96.15,208.61,91,208.61Z"/><path d="M112.11,177.45h0c1.83,0,4.33.39,5.81,2.25,3.51,4.38-1,14.07-9.89,21.14-5.65,4.51-12,7.21-17,7.21-1.84,0-4.34-.39-5.82-2.25-3.5-4.39,1-14.07,9.89-21.14,5.66-4.52,12-7.21,17-7.21m0-1.12c-5,0-11.65,2.62-17.7,7.45-9.52,7.59-14,17.77-10.07,22.72,1.44,1.81,3.81,2.67,6.7,2.67,5,0,11.64-2.62,17.69-7.45,9.52-7.6,14-17.77,10.07-22.73-1.44-1.8-3.8-2.66-6.69-2.66Z"/><path class="cls-3" d="M147.63,208c-5.11,0-11.59-2.74-17.34-7.33-9.26-7.39-13.74-17.23-10-21.94,1.29-1.6,3.45-2.45,6.26-2.45,5.11,0,11.6,2.74,17.35,7.32a34,34,0,0,1,9.92,12.15c1.81,4.09,1.83,7.56.06,9.79-1.28,1.61-3.45,2.46-6.26,2.46Z"/><path d="M126.56,176.79c5,0,11.34,2.69,17,7.2a33.47,33.47,0,0,1,9.76,11.93c1.72,3.89,1.77,7.17.13,9.22-1.48,1.85-4,2.24-5.82,2.24-5,0-11.34-2.69-17-7.2-8.87-7.08-13.4-16.76-9.9-21.15,1.49-1.85,4-2.24,5.82-2.24m0-1.13c-2.89,0-5.25.87-6.7,2.67-4,5,.56,15.13,10.08,22.73,6,4.83,12.66,7.45,17.69,7.45,2.89,0,5.26-.86,6.7-2.67,3.95-5-.56-15.13-10.07-22.73-6-4.82-12.67-7.45-17.7-7.45Z"/><path d="M115.69,194.78c3.47-5.53,4.26-10.9,1.64-14.19-1.51-1.89-4-2.88-7.13-2.88a21.62,21.62,0,0,0-7.06,1.33,23.92,23.92,0,0,1,10.32-2.81c2.81,0,5,.85,6.25,2.45C122.54,182.22,120.71,188.66,115.69,194.78Z"/><path d="M113.46,176.79c1.83,0,4.33.39,5.81,2.24,1.72,2.15,1.51,5.57-.19,9.32.73-3.18.35-6-1.31-8.11s-4.23-3.1-7.57-3.1h-.08a17.25,17.25,0,0,1,3.34-.35m0-1.13c-5,0-11.65,2.63-17.7,7.45-.55.44-1.08.89-1.6,1.35,5.58-4,11.46-6.19,16-6.19,2.88,0,5.25.86,6.69,2.67,3.73,4.67-.06,14-8.47,21.38.55-.4,1.11-.82,1.66-1.26,9.52-7.6,14-17.77,10.07-22.73-1.44-1.8-3.81-2.67-6.69-2.67Z"/><path d="M124.36,194.57a27.88,27.88,0,0,1-4-6.28c-1.81-4.09-1.83-7.57-.06-9.79,1.29-1.61,3.45-2.46,6.26-2.46a24,24,0,0,1,10.32,2.81,21.67,21.67,0,0,0-7.06-1.33c-3.16,0-5.63,1-7.13,2.88C120.11,183.69,120.9,189.06,124.36,194.57Z"/><path d="M126.6,175.48v1.12a17.29,17.29,0,0,1,3.34.36h-.08c-3.34,0-6,1.07-7.57,3.09s-2,4.93-1.31,8.12c-1.7-3.76-1.91-7.17-.2-9.32,1.49-1.86,4-2.25,5.82-2.25v-1.12m0,0c-2.89,0-5.25.86-6.7,2.67-4,4.95.56,15.13,10.08,22.72.55.44,1.1.86,1.66,1.26-8.41-7.41-12.2-16.71-8.47-21.38,1.44-1.8,3.8-2.67,6.69-2.67,4.58,0,10.46,2.17,16,6.19-.52-.45-1.05-.9-1.6-1.34-6.05-4.83-12.67-7.45-17.7-7.45Z"/><rect class="cls-3" x="110.04" y="177.64" width="19.04" height="11.18" transform="translate(302.79 63.67) rotate(90)"/><path class="cls-20" d="M125,174c0-2.85.5-4,2.76-5.68,3.82-2.93,9.93-7.85,9.93-13.42,0-9-10.12-16.28-18.14-16.28s-18.14,7.29-18.14,16.28c0,5.57,6.11,10.49,9.93,13.42,2.25,1.73,2.77,3.13,2.77,6"/><path class="cls-21" d="M119.71,190.5c-.82-3,1-13.82-5.19-26.34-3-6.18-8.48-5.1-10.12-7.94-.44-.76,2.22-.68,2.22-1.36,0-.85-2.09-3.82-1.78-4.68s3.21.11,4-.83c.57-.7-1.08-3.33-.33-4,.25-.2,2.81,1.56,3.07,1.38.94-.7,1-4.45,2.09-4.92,1.7-.78,4.35,1.94,5.91,1.94.62,0,1.55-3.22,2.21-3.09,1.15.23,2.06,3.93,3.22,4.5s3.24-2.47,4.26-1.62c.36.31-.24,4.39.08,4.71.7.7,2.69-1.75,3.17-1s-.63,4.57-.39,5.26,2.26-1.16,2.26-.4c0,3.23-5.47,4-9.73,11.51S120.52,187.49,119.71,190.5Z"/><path class="cls-22" d="M119.54,227.47a25.55,25.55,0,0,1-20.29-9.94c-1.18-1.52-1.64-2.67-1.45-3.62s1.3-2.1,3.64-3.42a27.08,27.08,0,0,0,11.58-13l.2-.48-.47-.24a7.92,7.92,0,0,1-4.37-7.11c0-.19,0-.38,0-.56A7.91,7.91,0,0,1,110,184.9a7.26,7.26,0,0,1,1.38-1.44l.1-.08a7.3,7.3,0,0,0,2.63-3.69,8.94,8.94,0,0,0,.37-2.58,8.43,8.43,0,0,0-.06-1,7.36,7.36,0,0,1,1.41,4.41,5.24,5.24,0,0,1,0,.56,7.81,7.81,0,0,1-.8,3l-.22.46.43.27c2.51,1.54,3.7,2.74,3.7,5.45a.86.86,0,0,0,.23.6.8.8,0,0,0,.58.26.89.89,0,0,0,.86-.92c0-2.85,1-4,3.37-5.39l.44-.27-.23-.46a7.81,7.81,0,0,1-.8-3c0-.19,0-.37,0-.56a7.94,7.94,0,0,1,1.36-4.46c0,.38,0,.72,0,1.06a9.16,9.16,0,0,0,.38,2.61,7.23,7.23,0,0,0,2.63,3.66l.09.07a8.18,8.18,0,0,1,1.38,1.44l0,.05a7.85,7.85,0,0,1,1.51,4.13,5.43,5.43,0,0,1,0,.57,7.94,7.94,0,0,1-4.36,7.11l-.47.23.2.49a27,27,0,0,0,11.58,13c2.33,1.32,3.42,2.34,3.63,3.42s-.26,2.1-1.44,3.62A25.57,25.57,0,0,1,119.54,227.47Z"/><path d="M114.91,178.38a7.22,7.22,0,0,1,.31,2.13c0,.17,0,.35,0,.52a7.44,7.44,0,0,1-.74,2.75l-.45.92.87.53c2.37,1.46,3.43,2.53,3.43,5a1.38,1.38,0,0,0,1.37,1.42,1.43,1.43,0,0,0,1.42-1.48c0-2.59.92-3.57,3.1-4.92l.88-.53-.46-.92a7.44,7.44,0,0,1-.74-2.75c0-.17,0-.35,0-.52a7.57,7.57,0,0,1,.31-2.13,9.53,9.53,0,0,0,.32,1.5,7.81,7.81,0,0,0,2.83,4l.08.07a7,7,0,0,1,1.28,1.33l0,0a7.26,7.26,0,0,1,1.41,3.85c0,.17,0,.34,0,.52a7.36,7.36,0,0,1-4.06,6.61l-.93.47.4,1A27.58,27.58,0,0,0,137.37,211c2.15,1.21,3.18,2.15,3.36,3s-.28,1.8-1.34,3.16a25.11,25.11,0,0,1-39.7,0c-1.06-1.36-1.49-2.39-1.34-3.16s1.22-1.83,3.36-3a27.53,27.53,0,0,0,11.83-13.29l.4-1-.93-.47a7.37,7.37,0,0,1-4.07-6.61c0-.18,0-.35,0-.53a7.38,7.38,0,0,1,1.38-3.8h0l.06-.08a7.12,7.12,0,0,1,1.29-1.34l.08-.06a7.79,7.79,0,0,0,2.83-4,9.15,9.15,0,0,0,.31-1.47m-.49-2.9a.6.6,0,0,0-.6.68c0,.31.05.63.05,1a8.38,8.38,0,0,1-.35,2.42,6.76,6.76,0,0,1-2.43,3.4L111,183a8.31,8.31,0,0,0-1.48,1.54h0a8.38,8.38,0,0,0-1.66,4.48,5.91,5.91,0,0,0,0,.6,8.51,8.51,0,0,0,4.68,7.61A26.34,26.34,0,0,1,101.16,210c-4.11,2.32-5.25,4.15-2.36,7.87a26.25,26.25,0,0,0,41.48,0c2.89-3.72,1.75-5.55-2.36-7.87a26.41,26.41,0,0,1-11.33-12.75,8.53,8.53,0,0,0,4.68-7.61,5.88,5.88,0,0,0,0-.6,8.45,8.45,0,0,0-1.65-4.48h0a8.25,8.25,0,0,0-1.47-1.54l-.11-.08a6.8,6.8,0,0,1-2.43-3.38,8.64,8.64,0,0,1-.36-2.45,7.46,7.46,0,0,1,.06-1,.61.61,0,0,0-.61-.68.55.55,0,0,0-.46.26,8.41,8.41,0,0,0-1.46,4.77c0,.2,0,.4,0,.6a8.66,8.66,0,0,0,.85,3.17c-2.44,1.5-3.63,2.79-3.63,5.87a.32.32,0,0,1-.3.35c-.13,0-.24-.09-.24-.29,0-3.08-1.53-4.43-4-5.93a8.66,8.66,0,0,0,.85-3.17q0-.3,0-.6a8.54,8.54,0,0,0-1.46-4.78.58.58,0,0,0-.47-.25Z"/><path class="cls-19" d="M108.77,187.17A7.8,7.8,0,0,1,110,184.9a7.26,7.26,0,0,1,1.38-1.44l.1-.08a7.3,7.3,0,0,0,2.63-3.69,8.94,8.94,0,0,0,.37-2.58,8.25,8.25,0,0,0,0-.86,6.62,6.62,0,0,1,1,1.82,7.93,7.93,0,0,1,.38,2.44,5.24,5.24,0,0,1,0,.56,6.48,6.48,0,0,1-.09.77,6.79,6.79,0,0,1-6.62,5.34Z"/><path d="M114.91,178.39a7.25,7.25,0,0,1,.31,2.12c0,.17,0,.35,0,.52a4.24,4.24,0,0,1-.08.67,6.23,6.23,0,0,1-5.52,4.89,7,7,0,0,1,.74-1.27h0l.06-.08a7.12,7.12,0,0,1,1.29-1.34l.08-.06a7.79,7.79,0,0,0,2.83-4,10.54,10.54,0,0,0,.31-1.46m-.49-2.9a.59.59,0,0,0-.6.67c0,.31.05.63.05,1a8.38,8.38,0,0,1-.35,2.42,6.76,6.76,0,0,1-2.43,3.4L111,183a8.31,8.31,0,0,0-1.48,1.54h0a8.46,8.46,0,0,0-1.45,3.11,8.26,8.26,0,0,0,1,.07,7.35,7.35,0,0,0,7.18-5.8c0-.27.07-.55.09-.83s0-.4,0-.6a8.53,8.53,0,0,0-.42-2.64,7.25,7.25,0,0,0-1.45-2.38Z"/><path class="cls-19" d="M130.05,187.18a6.79,6.79,0,0,1-6.62-5.36c0-.23-.07-.49-.09-.75s0-.37,0-.56a8,8,0,0,1,.39-2.47,6.58,6.58,0,0,1,1-1.75c0,.29,0,.55,0,.82a9.3,9.3,0,0,0,.37,2.58,7.3,7.3,0,0,0,2.63,3.69l.1.07a7.85,7.85,0,0,1,1.38,1.44,7.73,7.73,0,0,1,1.18,2.28Z"/><path d="M124.19,178.38a9.17,9.17,0,0,0,.32,1.47,7.87,7.87,0,0,0,2.82,4l.09.07a7,7,0,0,1,1.28,1.33l0,.05a7.5,7.5,0,0,1,.77,1.31,6.22,6.22,0,0,1-5.52-4.84q-.06-.36-.09-.72c0-.17,0-.35,0-.52a7.51,7.51,0,0,1,.31-2.13m.5-2.89h-.07a7.4,7.4,0,0,0-1.44,2.38,8.53,8.53,0,0,0-.42,2.64c0,.2,0,.4,0,.6a7.53,7.53,0,0,0,.1.83,7.33,7.33,0,0,0,7.17,5.8,8.26,8.26,0,0,0,1-.07,8.44,8.44,0,0,0-1.44-3.11h0a8.25,8.25,0,0,0-1.47-1.54l-.11-.09a6.72,6.72,0,0,1-2.44-3.4,8.73,8.73,0,0,1-.34-2.42,7.46,7.46,0,0,1,.05-1,.6.6,0,0,0-.6-.67Z"/><g class="cls-23"><path class="cls-3" d="M119.56,226a24,24,0,0,1-19.1-9.35c-1.17-1.52-1.2-2.18-1.16-2.39.08-.39.65-1.13,2.9-2.4.41-.23.82-.48,1.24-.74.59.41,6.78-6.23,7.4-5.87s-4.33,7.73-3.69,8.05c1,.47,5.57-7.48,6.57-7.13.37.14-2.88,8.62-2.5,8.74s2.06-3,2.47-2.88c.63.16,0,3.53.67,3.65,1.24.23,2.08-10.14,3.36-10.08.47,0,1.37,10.55,1.84,10.55.83,0,1.14-7.27,2-7.34,1.3-.11,3.1,6.92,4.36,6.64.63-.15-2.71-10.76-2.09-10.94s5.17,10.06,5.77,9.83-1.37-5.19-.73-5.5,3.9,4.08,4.48,3.75c.41-.22-5.69-7.32-5.3-7.57s7.29,6.36,7.67,6.1c.42.26.83.51,1.24.74,2.25,1.27,2.82,2,2.89,2.4.05.21,0,.87-1.15,2.38A24,24,0,0,1,119.56,226Z"/></g><path d="M125,187.09a5.44,5.44,0,0,0-2-4.19,9.16,9.16,0,0,0,.53,1.38c-2.44,1.5-3.63,2.79-3.63,5.87,0,.44-.54.49-.54.06,0-3.08-1.53-4.43-4-5.93a9.06,9.06,0,0,0,.52-1.34,5.48,5.48,0,1,0,9.05,4.15Z"/><g class="cls-28"><g class="cls-23"><path class="cls-25" d="M162.48,166.26A22.6,22.6,0,0,1,155.59,185c-1.3,1.25-1.91,1.34-2.12,1.32-.37,0-1.12-.5-2.52-2.48-.26-.36-.53-.72-.82-1.08.33-.6-6.49-5.74-6.21-6.35s7.66,3.3,7.89,2.66c.34-.94-7.54-4.48-7.31-5.45.09-.36,8.35,1.85,8.42,1.48s-3-1.63-2.94-2c.09-.6,3.3-.37,3.35-1,.09-1.19-9.69-1-9.76-2.17,0-.44,9.74-2.3,9.69-2.74-.08-.78-6.9-.36-7-1.12-.23-1.21,6.17-3.57,5.78-4.72-.19-.58-9.8,3.57-10,3s8.9-5.82,8.64-6.35-4.73,1.79-5.07,1.22,3.43-4,3.07-4.56c-.25-.36-6.3,6-6.57,5.7s5.24-7.44,4.95-7.77c.21-.42.4-.83.58-1.23,1-2.23,1.6-2.83,2-3,.2-.06.82-.1,2.34.86A22.59,22.59,0,0,1,162.48,166.26Z"/></g></g><g class="cls-29"><g class="cls-23"><path class="cls-25" d="M77.71,166.26A22.57,22.57,0,0,0,84.6,185c1.29,1.25,1.91,1.34,2.11,1.32.38,0,1.12-.5,2.53-2.48.26-.36.53-.72.82-1.08-.33-.6,6.49-5.74,6.21-6.35s-7.66,3.3-7.89,2.66c-.35-.94,7.54-4.48,7.3-5.45-.08-.36-8.34,1.85-8.41,1.48s3-1.63,2.93-2c-.09-.6-3.29-.37-3.34-1-.1-1.19,9.69-1,9.75-2.17,0-.44-9.73-2.3-9.69-2.74.08-.78,6.91-.36,7-1.12.24-1.21-6.16-3.57-5.77-4.72.19-.58,9.79,3.57,10,3s-8.91-5.82-8.64-6.35,4.72,1.79,5.07,1.22-3.43-4-3.07-4.56c.25-.36,6.3,6,6.57,5.7s-5.24-7.44-5-7.77c-.2-.42-.4-.83-.57-1.23-1-2.23-1.6-2.83-2-3-.2-.06-.82-.1-2.35.86A22.57,22.57,0,0,0,77.71,166.26Z"/></g></g><path class="cls-27" d="M112.67,197.41l1.3-2.72s-4.62.89-5.72-7.11C107.62,192.38,110.08,196.16,112.67,197.41Z"/><path class="cls-27" d="M126.34,197l-1.3-2.72s4.61.89,5.71-7.11C131.39,192,128.92,195.75,126.34,197Z"/><path class="cls-8" d="M105.68,327.14l.28-.09a33.05,33.05,0,0,1,9.08-6.26c1.4-.59,6-2.35,5.8,1.83-.28,6.12-7.54,3.55-13.47,10.85l-.32.4a36.66,36.66,0,0,0,2.46,5.25s8.15-8.3,10.67-4.23c2,3.18-2,4.49-3.87,5.71-3.76,2.49-4.5,4-4.5,4a52.56,52.56,0,0,0,12.28,13.76,52.54,52.54,0,0,0,17.35-6.22s.1-1.73-2-5.71c-1-1.94-3.92-5-.67-6.86,4.15-2.37,7.35,8.81,7.35,8.81a37,37,0,0,0,4.67-3.43l-.09-.5c-1.73-9.25-9.33-10.47-6.64-16,1.83-3.76,5,0,6,1.16a33.27,33.27,0,0,1,5,9.84,2.65,2.65,0,0,0,.2.22,38.83,38.83,0,0,0,3.11-5.18,2.21,2.21,0,0,1-.05-.25c-2.06-10.57-9-12.3-11.37-16.79-.7-1.35,1.61-6.18,6.57-1.9,4.73,4.09,7.26,11.06,7.54,11.67,1.58-6.49.89-12.59-2-16.71-8.37-12.05-21.14-4.67-22.12-2.58.14-2.3-7.55-14.88-20.65-8.31-4.5,2.26-8,7.28-9.73,13.74.55-.4,6.09-5.31,12.21-6.65,6.39-1.39,6.12,4,4.86,4.81-4.21,2.83-11.15,1-18,9.32l-.17.19A38.73,38.73,0,0,0,105.68,327.14Zm33-13.71c0-1.66,5.22-3.21,6.35-2,.68.73-.54,3.28-1.44,3.7C142.41,315.68,138.68,314.73,138.68,313.43Zm-2.53,10.51c.69-1.51,6.08-.73,6.61.85.31.94-1.87,2.75-2.86,2.76C138.6,327.55,135.61,325.13,136.15,323.94ZM128,312c-.59-.79-.44-3.62.51-3.94,1.58-.52,5.43,3.34,4.62,4.8C132.51,314,128.79,313.05,128,312Zm-5.87,20.56c.69-1.32,5.55-1.23,5.93.2.31,1.12-2.67,2.82-3.81,2.63C123.38,335.26,121.73,333.35,122.14,332.57Z"/><path class="cls-9" d="M154.67,331.74a36.84,36.84,0,0,0-3.88-5,28.14,28.14,0,0,0-4.71-4.16,15.63,15.63,0,0,0-5.62-2.52,11.43,11.43,0,0,0-3-.2,11.9,11.9,0,0,0-2.93.69h0a.56.56,0,0,1-.72-.33.55.55,0,0,1,.34-.72h0a11.25,11.25,0,0,1,6.53-.25,16.24,16.24,0,0,1,5.75,2.89,28.74,28.74,0,0,1,4.6,4.42A37.59,37.59,0,0,1,154.67,331.74Z"/><path class="cls-9" d="M146.92,342.48c-2.08-3-4.27-5.87-6.6-8.64-1.17-1.38-2.38-2.73-3.65-4a16.22,16.22,0,0,0-4.16-3.18l0,0a.56.56,0,1,1,.48-1h0a17.15,17.15,0,0,1,4.29,3.61c1.23,1.36,2.38,2.78,3.48,4.23C143,336.39,145,339.4,146.92,342.48Z"/><path class="cls-9" d="M133.12,351.8a18.7,18.7,0,0,0-.27-3.81,29.76,29.76,0,0,0-.86-3.71,35.27,35.27,0,0,0-1.3-3.56c-.5-1.16-1.07-2.28-1.67-3.39h0a.56.56,0,1,1,1-.54l0,0a38.65,38.65,0,0,1,1.45,3.6,35,35,0,0,1,1.07,3.72,30.93,30.93,0,0,1,.59,3.82A19,19,0,0,1,133.12,351.8Z"/><path class="cls-9" d="M157.89,314.48a20.81,20.81,0,0,0-4.34-4,16.2,16.2,0,0,0-5.31-2.39,14.68,14.68,0,0,0-2.86-.39,14.32,14.32,0,0,0-2.86.32,13,13,0,0,0-2.74.86c-.89.35-1.71.89-2.56,1.32l-.09.05a.56.56,0,0,1-.76-.25.55.55,0,0,1,.25-.75h0a30,30,0,0,1,2.77-1.28,14.57,14.57,0,0,1,3-.77,14.75,14.75,0,0,1,3-.19,15.65,15.65,0,0,1,3,.54,16.68,16.68,0,0,1,5.33,2.71A20.39,20.39,0,0,1,157.89,314.48Z"/><path class="cls-7" d="M105.68,327.14l.28-.09a33.05,33.05,0,0,1,9.08-6.26c1.4-.59,6-2.35,5.8,1.83-.28,6.12-7.54,3.55-13.47,10.85l-.32.4a36.37,36.37,0,0,0,2.46,5.24s8.15-8.29,10.67-4.22c2,3.18-2,4.49-3.88,5.71-3.75,2.49-4.49,4-4.49,4a52.71,52.71,0,0,0,12.28,13.76L136.91,308c.14-2.31-7.55-14.89-20.65-8.31-4.5,2.25-8,7.27-9.73,13.73.55-.4,6.09-5.31,12.21-6.65,6.39-1.39,6.12,4,4.86,4.81-4.21,2.83-11.15,1-18,9.32a1.54,1.54,0,0,1-.17.19A38.68,38.68,0,0,0,105.68,327.14ZM128,312c-.6-.8-.45-3.63.5-3.94,1.57-.52,5.43,3.34,4.62,4.8C132.52,314,128.79,313.06,128,312Zm-5.88,20.56c.68-1.32,5.54-1.23,5.93.2.31,1.12-2.67,2.82-3.81,2.63C123.38,335.26,121.73,333.35,122.14,332.57Z"/><path class="cls-9" d="M110,320.37a36.24,36.24,0,0,1,5.7-2.79,27.6,27.6,0,0,1,6.15-1.69,16.22,16.22,0,0,1,6.43.21,12.25,12.25,0,0,1,3,1.25,13.21,13.21,0,0,1,2.57,2.09.56.56,0,0,1-.81.78l0,0h0a10.42,10.42,0,0,0-5-3.28,15.83,15.83,0,0,0-6.14-.47,28.35,28.35,0,0,0-6.13,1.4A36.27,36.27,0,0,0,110,320.37Z"/><path class="cls-9" d="M111.66,333.51q4.74-2.68,9.71-5c1.66-.74,3.35-1.44,5.08-2a16.83,16.83,0,0,1,5.49-1.12.56.56,0,0,1,.57.56.57.57,0,0,1-.57.56h-.07a16.23,16.23,0,0,0-5.17.8c-1.72.51-3.43,1.1-5.11,1.76C118.22,330.4,114.91,331.89,111.66,333.51Z"/><path class="cls-9" d="M119.33,348.29a18.41,18.41,0,0,1,1.83-3.38,30,30,0,0,1,2.34-3.07,37.13,37.13,0,0,1,2.71-2.76c1-.88,2-1.68,3-2.47a.56.56,0,1,1,.68.9l0,0h0c-1.06.69-2.1,1.4-3.09,2.19a33.75,33.75,0,0,0-2.85,2.5,29.66,29.66,0,0,0-2.53,2.84A19.3,19.3,0,0,0,119.33,348.29Z"/><path class="cls-9" d="M115.41,303.67a20.62,20.62,0,0,1,5.68-1.71,16.72,16.72,0,0,1,6,.17,15.92,15.92,0,0,1,2.88.95,14.62,14.62,0,0,1,2.57,1.62,15.15,15.15,0,0,1,2.23,2.08c.69.76,1.21,1.63,1.82,2.45a.56.56,0,1,1-.89.67h0l-.06-.09c-.54-.79-1-1.65-1.61-2.39a13.92,13.92,0,0,0-2-2.06,11.9,11.9,0,0,0-5.06-2.67,16.15,16.15,0,0,0-5.8-.44A20.52,20.52,0,0,0,115.41,303.67Z"/><line class="cls-30" x1="136.91" y1="308" x2="124.09" y2="358.41"/><path class="cls-31" d="M266.93,243.12q.18-.09.18-.18c0-1.23-22.41-2.23-50.06-2.23s-50.05,1-50.05,2.23c0,.06.06.12.17.18H167v.49h0c1.12,0,2.24,0,3.35.13.64.07,1.36.15,2.16.21,17.74,2.19,32.84,14.46,36.48,31.52,3.55,16.62-1.12,68-1.12,68h18.36s-4.16-51.37-1.12-68c3.13-17.16,18.74-29.33,36.48-31.52l2.16-.21c1.11-.08,2.23-.13,3.36-.13h0v-.49Z"/><path class="cls-32" d="M266.94,243.13h.17v.49q-1.69,0-3.36.12c-.63.08-1.36.15-2.16.22-17.74,2.19-33.35,14.35-36.48,31.51-3,16.62,1.13,68,1.13,68H221.3c-.36-9.22-2.6-69-1.05-84.57,1.07-10.74,4.11-15.85,6.19-18.15,23.16.2,40.67,1.1,40.67,2.19C267.11,243,267.05,243.07,266.94,243.13Z"/><path class="cls-33" d="M217.22,277.23c-.17-1.2-.36-2.3-.56-3.27-2.12-9.92-6-19.23-13.64-25.73-2.23-1.89-8-7-8-7"/><path class="cls-33" d="M226.32,343.19s-4.14-51.1-1.12-67.64c3.11-17.06,18.64-29.17,36.29-31.34.8-.07,1.51-.14,2.15-.22q1.65-.12,3.33-.12h0"/><path class="cls-33" d="M167.39,243.87h0c1.12,0,2.23,0,3.34.12.63.08,1.35.15,2.14.22,17.65,2.17,32.67,14.38,36.3,31.34,3.53,16.54-1.12,67.64-1.12,67.64"/><path class="cls-33" d="M212.23,343.19c1-12.69,3.73-54.17.68-68.44a42,42,0,0,0-23.61-29.57c-2.12-1-8.65-3.49-8.65-3.49"/><path class="cls-33" d="M249.82,241.69c-12.27,6.07-26.06,20.44-28.39,33.18-2.6,14.21-.15,55.68.77,68.32"/><line class="cls-33" x1="217.22" y1="277.23" x2="217.22" y2="343.19"/><line class="cls-33" x1="217.18" y1="240.98" x2="217.18" y2="277.23"/><path class="cls-33" d="M217.12,276.31c-1.28-10.31-4.15-26.55-11-35.28"/><path class="cls-33" d="M239.39,241.39s-5.75,5.07-8,7c-7.65,6.49-11.51,15.8-13.63,25.72-.21,1-.4,2.07-.56,3.28"/><path class="cls-33" d="M217.31,276.43c1.28-10.31,4.15-26.56,10.95-35.28"/><path class="cls-31" d="M383.19,273.88c.08-.05.12-.09.12-.13,0-.84-15.34-1.53-34.26-1.53s-34.26.69-34.26,1.53c0,0,0,.08.12.13h-.12v.33h0c.78,0,1.54,0,2.3.09l1.48.15c12.14,1.49,22.48,9.89,25,21.56,2.43,11.38-.77,46.54-.77,46.54h12.57s-2.85-35.16-.78-46.54c2.15-11.74,12.83-20.07,25-21.56l1.48-.15c.76-.06,1.53-.09,2.3-.09h0v-.33Z"/><path class="cls-34" d="M383.15,273.87h.11v.34c-.77,0-1.55,0-2.31.08l-1.49.15c-12.25,1.51-23,9.9-25.18,21.75-2.09,11.47.78,46.92.78,46.92h-3.41c-.25-6.36-1.79-47.62-.72-58.36.73-7.41,2.83-10.94,4.27-12.53,16,.14,28.06.76,28.06,1.52C383.26,273.78,383.22,273.83,383.15,273.87Z"/><path class="cls-35" d="M349.16,297.22c-.11-.82-.24-1.57-.38-2.24-1.45-6.79-4.1-13.16-9.33-17.61-1.52-1.29-5.46-4.76-5.46-4.76"/><path class="cls-35" d="M355.39,342.36s-2.83-35-.76-46.29c2.13-11.68,12.76-20,24.83-21.45l1.47-.15c.76-.05,1.52-.08,2.29-.08h0"/><path class="cls-35" d="M315.06,274.39h0c.77,0,1.53,0,2.29.08l1.47.15c12.07,1.49,22.36,9.84,24.84,21.45,2.41,11.32-.77,46.29-.77,46.29"/><path class="cls-35" d="M345.75,342.36c.71-8.68,2.55-37.07.47-46.84a28.74,28.74,0,0,0-16.16-20.23c-1.45-.66-5.92-2.4-5.92-2.4"/><path class="cls-35" d="M371.47,272.89c-8.39,4.16-17.83,14-19.42,22.71-1.78,9.73-.11,38.11.53,46.76"/><line class="cls-35" x1="349.16" y1="297.22" x2="349.16" y2="342.36"/><line class="cls-35" x1="349.14" y1="272.41" x2="349.14" y2="297.22"/><path class="cls-35" d="M349.1,296.59c-.87-7-2.84-18.17-7.5-24.14"/><path class="cls-35" d="M364.34,272.69s-3.94,3.47-5.46,4.76c-5.24,4.45-7.88,10.82-9.33,17.61-.15.67-.27,1.42-.39,2.24"/><path class="cls-35" d="M349.23,296.67c.87-7.05,2.84-18.17,7.49-24.14"/><path class="cls-31" d="M435.69,222.05c.14-.08.21-.15.21-.23,0-1.48-27-2.68-60.32-2.68s-60.32,1.2-60.32,2.68c0,.08.07.15.2.23h-.2v.59h0c1.36,0,2.7.05,4,.15.77.09,1.64.17,2.6.26,21.38,2.64,39.58,17.42,44,38,4.28,20-1.36,82-1.36,82h22.14s-5-61.92-1.36-82c3.77-20.67,22.59-35.33,44-38,1-.09,1.83-.17,2.6-.26,1.33-.1,2.68-.15,4-.15h0v-.59Z"/><path class="cls-36" d="M434.5,222.79h.2v.59c-1.35,0-2.68.05-4,.14-.75.1-1.62.18-2.58.27-21.19,2.61-39.83,17.14-43.57,37.63-3.62,19.85,1.35,81.22,1.35,81.22H380c-.43-11-3.11-82.42-1.26-101,1.28-12.83,4.91-18.93,7.4-21.68,27.66.24,48.57,1.32,48.57,2.62C434.7,222.64,434.63,222.72,434.5,222.79Z"/><path class="cls-33" d="M375.78,263.15c-.2-1.45-.43-2.77-.68-3.95-2.55-11.95-7.21-23.17-16.43-31-2.68-2.27-9.62-8.39-9.62-8.39"/><path class="cls-33" d="M386.74,342.64s-5-61.59-1.35-81.51c3.76-20.57,22.47-35.15,43.74-37.78,1-.08,1.83-.17,2.59-.26,1.33-.09,2.67-.15,4-.15h0"/><path class="cls-33" d="M315.73,222.94h0c1.35,0,2.69.06,4,.15.77.09,1.63.18,2.59.26,21.27,2.63,39.37,17.33,43.74,37.78,4.25,19.92-1.35,81.51-1.35,81.51"/><path class="cls-33" d="M369.77,342.64c1.25-15.29,4.49-65.28.82-82.47a50.62,50.62,0,0,0-28.45-35.64c-2.56-1.15-10.43-4.21-10.43-4.21"/><path class="cls-33" d="M415.06,220.32c-14.78,7.31-31.4,24.63-34.2,40-3.13,17.13-.19,67.11.93,82.34"/><line class="cls-33" x1="375.78" y1="263.15" x2="375.78" y2="342.64"/><line class="cls-33" x1="375.74" y1="219.46" x2="375.74" y2="263.15"/><path class="cls-33" d="M375.66,262c-1.54-12.42-5-32-13.19-42.51"/><path class="cls-33" d="M402.5,220s-6.93,6.12-9.61,8.39c-9.22,7.83-13.88,19-16.44,31-.25,1.18-.47,2.5-.67,4"/><path class="cls-33" d="M375.89,262.19c1.54-12.43,5-32,13.2-42.52"/></svg>