<svg id="Layer_1" data-name="Layer 1" xmlns="http://www.w3.org/2000/svg" xmlns:xlink="http://www.w3.org/1999/xlink" viewBox="0 0 500 500"><defs><style>.cls-1,.cls-20,.cls-21,.cls-4,.cls-7{fill:none;}.cls-12,.cls-2{fill:#519af4;}.cls-14,.cls-19,.cls-3{fill:#fff;}.cls-10,.cls-11,.cls-12,.cls-13,.cls-14,.cls-15,.cls-16,.cls-17,.cls-18,.cls-19,.cls-20,.cls-21,.cls-22,.cls-23,.cls-24,.cls-25,.cls-4,.cls-8,.cls-9{stroke:#000;}.cls-12,.cls-13,.cls-14,.cls-15,.cls-16,.cls-17,.cls-18,.cls-21,.cls-22,.cls-23,.cls-24,.cls-25,.cls-4,.cls-8{stroke-width:1.13px;}.cls-5{clip-path:url(#clip-path);}.cls-13,.cls-6{fill:#15357a;}.cls-7{stroke:#231f20;stroke-width:0.93px;}.cls-20,.cls-7{stroke-linecap:round;}.cls-20,.cls-22,.cls-7{stroke-linejoin:round;}.cls-8{fill:#2fd395;}.cls-10,.cls-11,.cls-12,.cls-13,.cls-14,.cls-15,.cls-16,.cls-17,.cls-18,.cls-19,.cls-21,.cls-23,.cls-24,.cls-25,.cls-8,.cls-9{stroke-miterlimit:10;}.cls-16,.cls-9{fill:#ffc664;}.cls-9{stroke-width:1.18px;}.cls-10{fill:#fef2d2;}.cls-10,.cls-11{stroke-width:0.84px;}.cls-11{fill:#90a4ae;}.cls-15{fill:#ffe8c1;}.cls-17{fill:#239e70;}.cls-18{fill:#bf954b;}.cls-19,.cls-20{stroke-width:0.96px;}.cls-22,.cls-24{fill:#ff4633;}.cls-25{fill:#ff9085;}</style><clipPath id="clip-path"><rect class="cls-1" x="74.83" y="312.61" width="349.58" height="43.01"/></clipPath></defs><rect class="cls-2" x="-5.23" y="-5.23" width="510.46" height="510.46"/><path class="cls-3" d="M141.8,361.46V405.1h-4V361.46Z"/><path class="cls-3" d="M183.08,372.37a7.91,7.91,0,0,0-3.21-5.79,11.59,11.59,0,0,0-7.19-2.16,12.8,12.8,0,0,0-5.35,1.05,8.77,8.77,0,0,0-3.63,2.89,7,7,0,0,0-1.31,4.18,6,6,0,0,0,.75,3,7.09,7.09,0,0,0,2,2.22,14,14,0,0,0,2.82,1.59,26.4,26.4,0,0,0,3.12,1.11l4.6,1.32a33.63,33.63,0,0,1,4.18,1.47,17.53,17.53,0,0,1,3.82,2.25,10.33,10.33,0,0,1,2.79,3.3,9.74,9.74,0,0,1,1.06,4.68,11.26,11.26,0,0,1-1.82,6.28,12.4,12.4,0,0,1-5.19,4.43,20.95,20.95,0,0,1-15.86.14,12.44,12.44,0,0,1-5.15-4.1,11.48,11.48,0,0,1-2.11-6.07h4.09a7.62,7.62,0,0,0,1.7,4.37,9.33,9.33,0,0,0,3.88,2.71,14.58,14.58,0,0,0,5.33.93,14.36,14.36,0,0,0,5.8-1.1,9.54,9.54,0,0,0,4-3.06,7.56,7.56,0,0,0,1.46-4.6,5.9,5.9,0,0,0-1.15-3.71,9,9,0,0,0-3.21-2.53,29.48,29.48,0,0,0-4.76-1.81l-5.22-1.53a19.56,19.56,0,0,1-8-4.24,9.14,9.14,0,0,1-2.83-6.91,10.54,10.54,0,0,1,1.88-6.19,12.6,12.6,0,0,1,5.12-4.17,17,17,0,0,1,7.25-1.5,16.46,16.46,0,0,1,7.2,1.49,12.53,12.53,0,0,1,5,4.1,10.81,10.81,0,0,1,2,5.93Z"/><path class="cls-3" d="M203.14,405.1V361.46h14.09a16.27,16.27,0,0,1,7.77,1.68,11.09,11.09,0,0,1,4.7,4.62,14,14,0,0,1,1.59,6.76,13.87,13.87,0,0,1-1.59,6.74,11.1,11.1,0,0,1-4.69,4.56,16.48,16.48,0,0,1-7.72,1.64h-12v-3.65h11.89a12.7,12.7,0,0,0,5.67-1.12,7.51,7.51,0,0,0,3.39-3.22,10.28,10.28,0,0,0,1.12-5,10.58,10.58,0,0,0-1.13-5,7.74,7.74,0,0,0-3.4-3.32,12.41,12.41,0,0,0-5.72-1.17h-10V405.1Zm19.24-19.69,10.74,19.69h-4.6l-10.63-19.69Z"/><path class="cls-3" d="M247.07,405.1h-4.18l15.88-43.64H263L278.9,405.1h-4.17l-13.68-38.46h-.3Zm3-16.73h21.65V392H250.07Z"/><path class="cls-3" d="M292.38,405.1V361.46h25.31V365H296.37v16.43h20v3.58h-20v16.47h21.75v3.58Z"/><path class="cls-3" d="M334,405.1V361.46h4v40.06h20.79v3.58Z"/><rect class="cls-4" x="74.72" y="342.87" width="349.8" height="83.25"/><g class="cls-5"><path class="cls-6" d="M116.6,321.08c-5.4,11-22.59,11.06-28,0-5.4,11-22.59,11.06-28,0"/><path class="cls-6" d="M200.55,321.08a15.54,15.54,0,0,1-28,0,15.54,15.54,0,0,1-28,0,15.54,15.54,0,0,1-28,0"/><path class="cls-6" d="M256.45,321.08a15.54,15.54,0,0,1-28,0,15.54,15.54,0,0,1-28,0"/><path class="cls-6" d="M116.6,340c-5.4,11-22.59,11.07-28,0-5.4,11-22.59,11.07-28,0"/><path class="cls-6" d="M200.55,340a15.54,15.54,0,0,1-28,0,15.54,15.54,0,0,1-28,0,15.54,15.54,0,0,1-28,0"/><path class="cls-6" d="M256.45,340a15.54,15.54,0,0,1-28,0,15.54,15.54,0,0,1-28,0"/><path class="cls-6" d="M116.6,302.36c-5.4,11-22.59,11.07-28,0-5.4,11-22.59,11.07-28,0"/><path class="cls-6" d="M200.55,302.36a15.54,15.54,0,0,1-28,0,15.54,15.54,0,0,1-28,0,15.54,15.54,0,0,1-28,0"/><path class="cls-6" d="M256.45,302.36a15.54,15.54,0,0,1-28,0,15.54,15.54,0,0,1-28,0"/><path class="cls-6" d="M215.44,311.72c5.58,11.48,22.39,11.45,28,0a15.71,15.71,0,0,0,13,8.75v-8.75"/><path class="cls-6" d="M215.44,311.72a15.54,15.54,0,0,1-28,0,15.54,15.54,0,0,1-28,0,15.54,15.54,0,0,1-28,0"/><path class="cls-6" d="M131.49,311.72a15.54,15.54,0,0,1-28,0,15.54,15.54,0,0,1-28,0"/><path class="cls-6" d="M215.44,293.75c5.58,11.48,22.39,11.46,28,0a15.69,15.69,0,0,0,13,8.75v-8.75"/><path class="cls-6" d="M215.44,293.75a15.54,15.54,0,0,1-28,0,15.54,15.54,0,0,1-28,0,15.54,15.54,0,0,1-28,0"/><path class="cls-6" d="M131.49,293.75a15.54,15.54,0,0,1-28,0,15.54,15.54,0,0,1-28,0"/><path class="cls-6" d="M215.44,330.69c5.58,11.48,22.39,11.45,28,0a15.71,15.71,0,0,0,13,8.75v-8.75"/><path class="cls-6" d="M215.44,330.69a15.54,15.54,0,0,1-28,0,15.54,15.54,0,0,1-28,0,15.54,15.54,0,0,1-28,0"/><path class="cls-6" d="M131.49,330.69a15.54,15.54,0,0,1-28,0,15.54,15.54,0,0,1-28,0"/><path class="cls-7" d="M116.57,324c-5.4,11-22.59,11.06-28,0-5.41,11-22.6,11.06-28,0"/><path class="cls-7" d="M200.52,324a15.55,15.55,0,0,1-28,0,15.59,15.59,0,0,1-28,.11,15.59,15.59,0,0,1-28-.11"/><path class="cls-7" d="M256.41,324a15.54,15.54,0,0,1-28,0,15.54,15.54,0,0,1-28,0"/><path class="cls-7" d="M116.57,342.82c-5.4,11-22.59,11.07-28,0-5.41,11-22.6,11.07-28,0"/><path class="cls-7" d="M200.52,342.82a15.54,15.54,0,0,1-28,0,15.58,15.58,0,0,1-28,.11,15.58,15.58,0,0,1-28-.11"/><path class="cls-7" d="M256.41,342.82a15.54,15.54,0,0,1-28,0,15.54,15.54,0,0,1-28,0"/><path class="cls-7" d="M116.57,305.23c-5.4,11-22.59,11.07-28,0-5.41,11-22.6,11.07-28,0"/><path class="cls-7" d="M200.52,305.23a15.54,15.54,0,0,1-28,0,15.58,15.58,0,0,1-28,.11,15.58,15.58,0,0,1-28-.11"/><path class="cls-7" d="M256.41,305.23a15.54,15.54,0,0,1-28,0,15.54,15.54,0,0,1-28,0"/><path class="cls-7" d="M256.41,323.34a15.72,15.72,0,0,1-13-8.75c-5.59,11.45-22.4,11.48-28,0"/><path class="cls-7" d="M215.41,314.59a15.54,15.54,0,0,1-28,0,15.58,15.58,0,0,1-28,.11,15.58,15.58,0,0,1-28-.11"/><path class="cls-7" d="M131.46,314.59a15.54,15.54,0,0,1-28,0,15.54,15.54,0,0,1-28,0"/><path class="cls-7" d="M215.41,296.62c5.58,11.48,22.39,11.46,28,0a15.68,15.68,0,0,0,13,8.75"/><path class="cls-7" d="M215.41,296.62a15.54,15.54,0,0,1-28,0,15.58,15.58,0,0,1-28,.11,15.58,15.58,0,0,1-28-.11"/><path class="cls-7" d="M131.46,296.62a15.54,15.54,0,0,1-28,0,15.54,15.54,0,0,1-28,0"/><path class="cls-7" d="M256.41,342.31a15.7,15.7,0,0,1-13-8.75c-5.59,11.45-22.4,11.48-28,0"/><path class="cls-7" d="M215.41,333.56a15.54,15.54,0,0,1-28,0,15.58,15.58,0,0,1-28,.11,15.58,15.58,0,0,1-28-.11"/><path class="cls-7" d="M131.46,333.56a15.54,15.54,0,0,1-28,0,15.54,15.54,0,0,1-28,0"/><path class="cls-6" d="M396.29,321.08c5.41,11,22.6,11.06,28,0,5.4,11,22.59,11.06,28,0"/><path class="cls-6" d="M312.35,321.08a15.54,15.54,0,0,0,28,0,15.54,15.54,0,0,0,28,0,15.54,15.54,0,0,0,28,0"/><path class="cls-6" d="M256.45,321.08a15.54,15.54,0,0,0,28,0,15.54,15.54,0,0,0,28,0"/><path class="cls-6" d="M396.29,340c5.41,11,22.6,11.07,28,0,5.4,11,22.59,11.07,28,0"/><path class="cls-6" d="M312.35,340a15.54,15.54,0,0,0,28,0,15.54,15.54,0,0,0,28,0,15.54,15.54,0,0,0,28,0"/><path class="cls-6" d="M256.45,340a15.54,15.54,0,0,0,28,0,15.54,15.54,0,0,0,28,0"/><path class="cls-6" d="M396.29,302.36c5.41,11,22.6,11.07,28,0,5.4,11,22.59,11.07,28,0"/><path class="cls-6" d="M312.35,302.36a15.54,15.54,0,0,0,28,0,15.54,15.54,0,0,0,28,0,15.54,15.54,0,0,0,28,0"/><path class="cls-6" d="M256.45,302.36a15.54,15.54,0,0,0,28,0,15.54,15.54,0,0,0,28,0"/><path class="cls-6" d="M297.46,311.72c-5.59,11.48-22.4,11.45-28,0a15.7,15.7,0,0,1-13,8.75v-8.75"/><path class="cls-6" d="M297.46,311.72a15.54,15.54,0,0,0,28,0,15.54,15.54,0,0,0,28,0,15.54,15.54,0,0,0,28,0"/><path class="cls-6" d="M381.4,311.72a15.54,15.54,0,0,0,28,0,15.54,15.54,0,0,0,28,0"/><path class="cls-6" d="M297.46,293.75c-5.59,11.48-22.4,11.46-28,0a15.68,15.68,0,0,1-13,8.75v-8.75"/><path class="cls-6" d="M297.46,293.75a15.54,15.54,0,0,0,28,0,15.54,15.54,0,0,0,28,0,15.54,15.54,0,0,0,28,0"/><path class="cls-6" d="M381.4,293.75a15.54,15.54,0,0,0,28,0,15.54,15.54,0,0,0,28,0"/><path class="cls-6" d="M297.46,330.69c-5.59,11.48-22.4,11.45-28,0a15.7,15.7,0,0,1-13,8.75v-8.75"/><path class="cls-6" d="M297.46,330.69a15.54,15.54,0,0,0,28,0,15.54,15.54,0,0,0,28,0,15.54,15.54,0,0,0,28,0"/><path class="cls-6" d="M381.4,330.69a15.54,15.54,0,0,0,28,0,15.54,15.54,0,0,0,28,0"/><path class="cls-7" d="M396.33,324c5.4,11,22.59,11.06,28,0,5.4,11,22.59,11.06,28,0"/><path class="cls-7" d="M312.38,324a15.59,15.59,0,0,0,28,.11,15.59,15.59,0,0,0,28-.11,15.55,15.55,0,0,0,28,0"/><path class="cls-7" d="M256.48,324a15.54,15.54,0,0,0,28,0,15.55,15.55,0,0,0,28,0"/><path class="cls-7" d="M396.33,342.82c5.4,11,22.59,11.07,28,0,5.4,11,22.59,11.07,28,0"/><path class="cls-7" d="M312.38,342.82a15.58,15.58,0,0,0,28,.11,15.58,15.58,0,0,0,28-.11,15.54,15.54,0,0,0,28,0"/><path class="cls-7" d="M256.48,342.82a15.54,15.54,0,0,0,28,0,15.54,15.54,0,0,0,28,0"/><path class="cls-7" d="M396.33,305.23c5.4,11,22.59,11.07,28,0,5.4,11,22.59,11.07,28,0"/><path class="cls-7" d="M312.38,305.23a15.58,15.58,0,0,0,28,.11,15.58,15.58,0,0,0,28-.11,15.54,15.54,0,0,0,28,0"/><path class="cls-7" d="M256.48,305.23a15.54,15.54,0,0,0,28,0,15.54,15.54,0,0,0,28,0"/><path class="cls-7" d="M256.48,323.34a15.73,15.73,0,0,0,13-8.75c5.59,11.45,22.4,11.48,28,0"/><path class="cls-7" d="M297.49,314.59a15.58,15.58,0,0,0,28,.11,15.59,15.59,0,0,0,28-.11,15.54,15.54,0,0,0,28,0"/><path class="cls-7" d="M381.44,314.59a15.54,15.54,0,0,0,28,0,15.54,15.54,0,0,0,28,0"/><path class="cls-7" d="M297.49,296.62c-5.58,11.48-22.39,11.46-28,0a15.69,15.69,0,0,1-13,8.75"/><path class="cls-7" d="M297.49,296.62a15.58,15.58,0,0,0,28,.11,15.46,15.46,0,0,0,14,8.67c6.73,0,10.91-2.42,14-8.78a15.54,15.54,0,0,0,28,0"/><path class="cls-7" d="M381.44,296.62a15.54,15.54,0,0,0,28,0,15.54,15.54,0,0,0,28,0"/><path class="cls-7" d="M256.48,342.31a15.71,15.71,0,0,0,13-8.75c5.59,11.45,22.4,11.48,28,0"/><path class="cls-7" d="M297.49,333.56a15.58,15.58,0,0,0,28,.11,15.59,15.59,0,0,0,28-.11,15.54,15.54,0,0,0,28,0"/><path class="cls-7" d="M381.44,333.56a15.54,15.54,0,0,0,28,0,15.54,15.54,0,0,0,28,0"/></g><path d="M289.76,41.08V301.83h-214V41.08h214m1-1h-216V302.83h216V40.08Z"/><path class="cls-8" d="M119.07,66.8a16.54,16.54,0,0,0-16.18,12.64L99.73,87.3c.45-.08,2.84,2.85,3.31,2.83,2.57-.11,4.49-2.77,6.08-.82l.82-1.53-3.81-1.29,4.76-.91L112.45,82l-5.68-1.72,6.64-.48,1.9-4.36L111,74.24l5.24-.83Z"/><path class="cls-8" d="M92.34,79.8l6.64.48L93.3,82l1.56,3.58,4.76.91-3.8,1.29.24.46.25-.18c2.44-1.57,4.07.62,6.73,2.07l-.17-10.69A16.56,16.56,0,0,0,86.68,66.8l2.88,6.61,5.24.83-4.36,1.2Z"/><path class="cls-8" d="M115.06,100.15,87.57,85.87l3-4.07L85,84.27l-4.2-2.6,4.68-5.89L78.2,80.06l-5.12-3.18,3.68-4.39L70.7,75.41l-7.77-4.82h0a21,21,0,0,1,26,1.51l14.13,18Z"/><path class="cls-8" d="M91,100.15l27.49-14.28-3-4.07,5.62,2.47,4.2-2.6-4.68-5.89,7.27,4.28L133,76.88l-3.68-4.39,6.06,2.92,7.77-4.82h0a21,21,0,0,0-26,1.51L103,90.13Z"/><path class="cls-9" d="M111.7,215.67h-18s2-25.51,2.35-34c.88-22,2.39-88,2.39-88H107s1.52,66.06,2.4,88.06C109.7,190.17,111.7,215.67,111.7,215.67Z"/><path class="cls-10" d="M103.23,93.59H98.48s-1.51,66.06-2.39,88c-.34,8.52-2.35,46.78-2.35,46.78H108s-2-38.25-2.35-46.77C104.74,159.65,103.23,93.59,103.23,93.59Z"/><line class="cls-11" x1="94.86" y1="203.95" x2="110.81" y2="203.95"/><line class="cls-11" x1="95.94" y1="184.76" x2="109.4" y2="184.76"/><line class="cls-11" x1="96.61" y1="166.31" x2="108.84" y2="166.31"/><line class="cls-11" x1="97.04" y1="151.16" x2="108.4" y2="151.16"/><line class="cls-11" x1="97.41" y1="137.46" x2="108.04" y2="137.46"/><line class="cls-11" x1="97.77" y1="123.04" x2="107.69" y2="123.04"/><line class="cls-11" x1="98.06" y1="111.53" x2="107.39" y2="111.53"/><line class="cls-11" x1="98.28" y1="102.22" x2="107.17" y2="102.22"/><path class="cls-8" d="M102.75,93.74l-31-.16.84-5-3.87,4.76-4.93-.4,1.48-7.38-4.51,7.13-6-.49L56,86.61,52,92l-9.11-.74h0a21,21,0,0,1,23.81-10.5L103,90.13Z"/><path class="cls-8" d="M102.7,93.74l31-.16-.84-5,3.87,4.76,4.92-.4-1.48-7.38,4.52,7.13,6-.49-1.26-5.58L153.46,92l9.12-.74h0a21,21,0,0,0-23.81-10.5L102.4,90.13Z"/><path class="cls-8" d="M102.53,93.84,74.7,107.45l-1.47-4.87-1.36,6-4.59,1.83-2-7.27-.88,8.39-5.6,2.23-1.34-5.57-1.26,6.6-8.5,3.38h0a21,21,0,0,1,16.68-20L103,90.13Z"/><path class="cls-8" d="M103,92.89,84.22,117.5l-3.49-3.69,1.47,6-3.29,3.68-5-5.63,3,7.9-4,4.5-3.69-4.38L71,132.3l-6.1,6.82h0a21,21,0,0,1,6-25.32L103,90.13Z"/><path class="cls-8" d="M103,93.84l27.83,13.61,1.47-4.87,1.36,6,4.59,1.83,2-7.27.88,8.39,5.6,2.23,1.34-5.57,1.26,6.6,8.5,3.38h0a21,21,0,0,0-16.68-20L103,90.13Z"/><path class="cls-8" d="M103,92.89l18.82,24.61,3.49-3.69-1.47,6,3.29,3.68,5-5.63-3,7.9,4,4.5,3.69-4.38-1.83,6.46,6.1,6.82h0a21,21,0,0,0-6-25.32L103,90.13Z"/><path class="cls-12" d="M428.81,128.34A52.85,52.85,0,0,0,376.14,75.5c-30.76-.1-54.51,26.56-52.89,57.29,1,19.49,15.55,33.3,24.18,39.84a42,42,0,0,1,11.69,13.52c3.25,6,6.9,13.85,7.65,19.54l.67,5.13a116.3,116.3,0,0,1-.17,31.68l-1.1,7.73a9.9,9.9,0,0,0,9.8,11.3h0a9.9,9.9,0,0,0,9.8-11.3l-1.11-7.8a116.48,116.48,0,0,1-.19-31.54l.77-5.93c.79-6,4.8-14.46,8-20.51a36,36,0,0,1,9.12-11.08C411.2,166.27,428.81,149.45,428.81,128.34Z"/><path class="cls-12" d="M376,257.93a6.32,6.32,0,0,1-6-4.43,6.58,6.58,0,0,1-.2-2.86l1.1-7.64a120.2,120.2,0,0,0,.17-32.65l-.67-5.13c-.8-6.05-4.69-14.37-8.15-20.82a41.45,41.45,0,0,0-12.35-14c-8.42-6.05-22-18.62-23-37.25a51.87,51.87,0,0,1,14-38.29A48,48,0,0,1,376,79.61h0a49.47,49.47,0,0,1,49.24,49.24c0,19.18-14.4,33.65-23.4,40.83a49.43,49.43,0,0,0-13.38,16.4c-3,5.94-6.06,13.07-6.76,18.41l-.77,5.93a120.05,120.05,0,0,0,.2,32.52l1.09,7.7a6.42,6.42,0,0,1-.19,2.86A6.32,6.32,0,0,1,376,257.93Z"/><path class="cls-13" d="M385.24,205a54.53,54.53,0,0,1,4.69-16,60.15,60.15,0,0,0-28.19.07,54.52,54.52,0,0,1,5,16.68l.67,5.13a116.3,116.3,0,0,1-.17,31.68l-1.1,7.73a9.9,9.9,0,1,0,19.6,0l-1.11-7.8a116.48,116.48,0,0,1-.19-31.54Z"/><circle class="cls-14" cx="336.15" cy="158.06" r="17.06"/><path class="cls-14" d="M319.25,155.82a14.27,14.27,0,1,0,21.69-14.13,17.22,17.22,0,0,0-4.79-.69A17,17,0,0,0,319.25,155.82Z"/><path class="cls-14" d="M339.91,150.4a9.4,9.4,0,0,0-7-9.09A17,17,0,0,0,321.13,150c0,.14,0,.27,0,.41a9.4,9.4,0,0,0,18.8,0Z"/><rect class="cls-15" x="215.6" y="96.69" width="9.67" height="9.67"/><path class="cls-8" d="M220.43,92.13h0A3.84,3.84,0,0,1,224.27,96v.48a0,0,0,0,1,0,0H216.6a0,0,0,0,1,0,0V96a3.84,3.84,0,0,1,3.84-3.84Z"/><line class="cls-16" x1="220.43" y1="84.25" x2="220.43" y2="92.13"/><rect class="cls-17" x="74.68" y="204.99" width="149.53" height="97.48"/><path class="cls-17" d="M134.56,188.59a41.24,41.24,0,0,0-9,1,41.32,41.32,0,0,0-50.85-11.15v73.82a41.26,41.26,0,0,0,27.59,3.41c.58.72,1.19,1.42,1.82,2.1h61a41.31,41.31,0,0,0-30.49-69.18Z"/><path class="cls-8" d="M107.36,250.57a7.22,7.22,0,0,0-5.09-2.1,7.05,7.05,0,0,0-1.57.17,34.25,34.25,0,0,1-7.46.83c-3.92,0-14.78,1.82-18.41.53V185.65c4.1-3.37,14.49-4.41,18.41-4.41a34,34,0,0,1,26.66,12.84,7.23,7.23,0,0,0,5.63,2.71,7.53,7.53,0,0,0,1.56-.17,34.1,34.1,0,0,1,41.58,33.28,34,34,0,0,1-7,20.67Z"/><rect class="cls-15" x="211.04" y="137.58" width="18.79" height="20.06"/><rect class="cls-15" x="212.65" y="120.92" width="15.56" height="16.65"/><rect class="cls-15" x="214.47" y="106.36" width="11.93" height="14.56"/><rect class="cls-16" x="111.7" y="157.64" width="156.8" height="62.11"/><rect class="cls-16" x="121.74" y="182.28" width="193.82" height="45.03"/><rect class="cls-15" x="214.17" y="219.75" width="62.17" height="47.65"/><rect class="cls-16" x="267.34" y="262.46" width="24.4" height="40.67"/><rect class="cls-16" x="245.26" y="267.4" width="22.08" height="35.73"/><rect class="cls-16" x="251.65" y="219.75" width="9.88" height="47.65"/><path class="cls-8" d="M256.59,213.07h0a4.94,4.94,0,0,1,4.94,4.94v1.74a0,0,0,0,1,0,0h-9.88a0,0,0,0,1,0,0V218A4.94,4.94,0,0,1,256.59,213.07Z"/><rect class="cls-15" x="210.69" y="267.4" width="34.57" height="35.73"/><rect class="cls-16" x="276.34" y="219.75" width="39.22" height="33.73"/><rect class="cls-15" x="261.53" y="230.21" width="4.07" height="37.19"/><rect class="cls-16" x="265.59" y="252.87" width="94.08" height="50.26"/><rect class="cls-15" x="315.56" y="210.75" width="18.88" height="42.13"/><rect class="cls-18" x="415.21" y="244.58" width="10.2" height="58.69"/><rect class="cls-18" x="382.38" y="234.13" width="32.83" height="69"/><rect class="cls-16" x="334.45" y="210.75" width="29.92" height="42.13"/><rect class="cls-15" x="359.67" y="234.13" width="22.71" height="69"/><rect class="cls-15" x="111.7" y="157.64" width="26.16" height="53.11"/><rect class="cls-16" x="371.03" y="260.72" width="44.19" height="42.42"/><rect class="cls-15" x="74.68" y="210.75" width="47.06" height="28.75"/><rect class="cls-15" x="121.74" y="196.83" width="36.43" height="56.05"/><path class="cls-17" d="M220.76,242.71a21.06,21.06,0,0,0-37-13.76,21.05,21.05,0,0,0-36,7.39,28.76,28.76,0,0,0-31.26-.86,41.27,41.27,0,0,0-41.81-15.83v80.8a41.19,41.19,0,0,0,41.81-15.83,28.8,28.8,0,0,0,26.91,1.61,35,35,0,0,0,5.76,16.24h58.45a35.12,35.12,0,0,0-.68-40A21.06,21.06,0,0,0,220.76,242.71Z"/><path class="cls-8" d="M153.3,295.27a27.91,27.91,0,0,1-2.73-9.7A7.2,7.2,0,0,0,143.4,279a7.1,7.1,0,0,0-3,.65,21.6,21.6,0,0,1-20.16-1.2,7.19,7.19,0,0,0-9.54,1.86,33.84,33.84,0,0,1-27.43,13.83c-.46,0-8,.54-8.45.52V226.52c.47,0,8-.58,8.45-.58a33.84,33.84,0,0,1,27.43,13.83,7.2,7.2,0,0,0,9.54,1.85,21.57,21.57,0,0,1,23.42.65,7.16,7.16,0,0,0,4.08,1.27,7.32,7.32,0,0,0,2.34-.39,7.21,7.21,0,0,0,4.52-4.63,13.86,13.86,0,0,1,23.71-4.86,7.18,7.18,0,0,0,5.44,2.49h0a7.2,7.2,0,0,0,5.45-2.49,13.86,13.86,0,1,1,15.25,22.07,7.19,7.19,0,0,0-3.37,11,28,28,0,0,1,2.38,28.58Z"/><rect class="cls-16" x="74.68" y="303.27" width="350.73" height="10.76"/><path class="cls-17" d="M220.08,280.63A20.79,20.79,0,0,0,180.39,272a51.54,51.54,0,0,0-60.18,30,29,29,0,0,0-23.76-14.79,34.28,34.28,0,0,0-21.77-30v46h140.9a50.54,50.54,0,0,0-3.05-6.49A20.74,20.74,0,0,0,220.08,280.63Z"/><path class="cls-8" d="M131.75,296a44.12,44.12,0,0,1,35.91-18.39,44.69,44.69,0,0,1,11,1.36,7.31,7.31,0,0,0,1.78.23,7.2,7.2,0,0,0,6.54-4.19,13.59,13.59,0,1,1,21,16.15,7.17,7.17,0,0,0-2.57,4.84Zm-56.92,0V270.51c5.72-.72,14.07,10.57,14.44,17.05a7.2,7.2,0,0,0,6.81,6.79,21.71,21.71,0,0,1,7.19,1.61Z"/><rect class="cls-15" x="157.82" y="199.65" width="157.75" height="4.3"/><rect x="162.62" y="190.46" width="8.65" height="8.65"/><rect x="185.24" y="190.46" width="8.65" height="8.65"/><rect x="207.85" y="190.46" width="8.65" height="8.65"/><rect x="221.83" y="251.96" width="8.65" height="8.65"/><rect x="238.95" y="251.96" width="8.65" height="8.65"/><rect x="230.47" y="190.46" width="8.65" height="8.65"/><rect x="253.09" y="190.46" width="8.65" height="8.65"/><rect x="275.71" y="190.46" width="8.65" height="8.65"/><rect x="298.32" y="190.46" width="8.65" height="8.65"/><path d="M220.41,141.31h0a3.81,3.81,0,0,1,3.81,3.81v12.94a0,0,0,0,1,0,0H216.6a0,0,0,0,1,0,0V145.12A3.81,3.81,0,0,1,220.41,141.31Z"/><path d="M220.37,124.52h0a2.94,2.94,0,0,1,2.94,2.94v10a0,0,0,0,1,0,0h-5.89a0,0,0,0,1,0,0v-10a2.94,2.94,0,0,1,2.94-2.94Z"/><path d="M220.43,111.1h0a2.27,2.27,0,0,1,2.27,2.27v7.72a0,0,0,0,1,0,0h-4.55a0,0,0,0,1,0,0v-7.72A2.27,2.27,0,0,1,220.43,111.1Z"/><path d="M220.43,100.15h0a2.27,2.27,0,0,1,2.27,2.27v3.72a0,0,0,0,1,0,0h-4.55a0,0,0,0,1,0,0v-3.72A2.27,2.27,0,0,1,220.43,100.15Z"/><rect x="284.35" y="230.21" width="4.42" height="14.37"/><rect x="294.56" y="230.21" width="4.42" height="14.37"/><rect x="304.74" y="230.21" width="4.42" height="14.37"/><rect x="340.61" y="216.31" width="3.14" height="10.2"/><rect x="347.85" y="216.31" width="3.14" height="10.2"/><rect x="355.07" y="216.31" width="3.14" height="10.2"/><rect x="340.61" y="233.23" width="3.14" height="10.2"/><rect x="347.85" y="233.23" width="3.14" height="10.2"/><rect x="355.07" y="233.23" width="3.14" height="10.2"/><rect x="222.39" y="229.43" width="4.42" height="14.37"/><rect x="232.6" y="229.43" width="4.42" height="14.37"/><rect x="242.78" y="229.43" width="4.42" height="14.37"/><rect class="cls-16" x="247.6" y="229.43" width="17.99" height="8.9"/><path d="M284.35,259.13h0a5.95,5.95,0,0,1,5.95,5.95v9.72a0,0,0,0,1,0,0H278.41a0,0,0,0,1,0,0v-9.72a5.95,5.95,0,0,1,5.95-5.95Z"/><path d="M313.22,259.13h0a5.95,5.95,0,0,1,5.95,5.95v9.72a0,0,0,0,1,0,0H307.28a0,0,0,0,1,0,0v-9.72A5.95,5.95,0,0,1,313.22,259.13Z"/><path d="M342.09,259.13h0a5.95,5.95,0,0,1,5.95,5.95v9.72a0,0,0,0,1,0,0H336.15a0,0,0,0,1,0,0v-9.72A5.95,5.95,0,0,1,342.09,259.13Z"/><path d="M284.35,287.73h0a5.95,5.95,0,0,1,5.95,5.95v9.72a0,0,0,0,1,0,0H278.41a0,0,0,0,1,0,0v-9.72A5.95,5.95,0,0,1,284.35,287.73Z"/><path d="M313.22,287.73h0a5.95,5.95,0,0,1,5.95,5.95v9.72a0,0,0,0,1,0,0H307.28a0,0,0,0,1,0,0v-9.72A5.95,5.95,0,0,1,313.22,287.73Z"/><path d="M342.09,287.73h0a5.95,5.95,0,0,1,5.95,5.95v9.72a0,0,0,0,1,0,0H336.15a0,0,0,0,1,0,0v-9.72A5.95,5.95,0,0,1,342.09,287.73Z"/><rect class="cls-15" x="121.74" y="182.28" width="28.98" height="14.55"/><rect class="cls-15" x="74.68" y="303.44" width="145.4" height="10.59"/><rect class="cls-15" x="121.74" y="196.83" width="36.43" height="11.32"/><path d="M388.77,238.84h0a3.32,3.32,0,0,1,3.32,3.32v7.22a0,0,0,0,1,0,0h-6.63a0,0,0,0,1,0,0v-7.22A3.32,3.32,0,0,1,388.77,238.84Z"/><path d="M404.87,238.84h0a3.32,3.32,0,0,1,3.32,3.32v7.22a0,0,0,0,1,0,0h-6.63a0,0,0,0,1,0,0v-7.22A3.32,3.32,0,0,1,404.87,238.84Z"/><path d="M388.77,258.08h0a3.32,3.32,0,0,1,3.32,3.32v7.22a0,0,0,0,1,0,0h-6.63a0,0,0,0,1,0,0v-7.22A3.32,3.32,0,0,1,388.77,258.08Z"/><path d="M404.87,258.08h0a3.32,3.32,0,0,1,3.32,3.32v7.22a0,0,0,0,1,0,0h-6.63a0,0,0,0,1,0,0v-7.22a3.32,3.32,0,0,1,3.32-3.32Z"/><path d="M421,258.08h0a3.32,3.32,0,0,1,3.32,3.32v7.22a0,0,0,0,1,0,0h-6.63a0,0,0,0,1,0,0v-7.22a3.32,3.32,0,0,1,3.32-3.32Z"/><rect class="cls-16" x="137.86" y="157.64" width="130.64" height="8.67"/><path class="cls-19" d="M320.32,73H304.14a9.45,9.45,0,0,0-9.38-8.3H282.08a9.46,9.46,0,0,0-9.39-8.31H258.24a9.45,9.45,0,0,0-9.45,9.45V73h-9a9.46,9.46,0,0,0-9.45,9.46v1.81h99.48V82.44A9.46,9.46,0,0,0,320.32,73"/><path class="cls-20" d="M320.32,73H304.14a9.45,9.45,0,0,0-9.38-8.3H282.08a9.46,9.46,0,0,0-9.39-8.31H258.24a9.45,9.45,0,0,0-9.45,9.45V73h-9a9.46,9.46,0,0,0-9.45,9.46v1.81h99.48V82.44A9.46,9.46,0,0,0,320.32,73Z"/><line class="cls-19" x1="304.14" y1="72.98" x2="294.29" y2="72.98"/><line class="cls-20" x1="304.14" y1="72.98" x2="294.29" y2="72.98"/><line class="cls-19" x1="282.08" y1="64.68" x2="269.55" y2="64.68"/><line class="cls-20" x1="282.08" y1="64.68" x2="269.55" y2="64.68"/><line class="cls-19" x1="248.79" y1="72.98" x2="259.95" y2="72.98"/><line class="cls-20" x1="248.79" y1="72.98" x2="259.95" y2="72.98"/><line class="cls-4" x1="74.72" y1="302.83" x2="74.72" y2="372.44"/><line class="cls-21" x1="424.52" y1="378.62" x2="424.52" y2="303.44"/><path class="cls-22" d="M392,271.32c1.78-1.83,4.63-6.3,5.1-9.73s-.42-10.3-1.78-12.31c5.34.82,5.74,8.9,5.85,9.42.77-6.33,4.17-9.55,4.57-9.9,1.57,2.85,2.52,7.53.91,11.44,3.15-7.08,6.46-8.29,7.63-8.58a26.46,26.46,0,0,1-2.57,10.57c1.77-3.17,5.38-5.61,9.32-4.72,0,0-11.4,10.9-10.71,18.68Z"/><path class="cls-23" d="M396.57,263.73h0c-.47,3.42-2.79,5.76-4.57,7.58l18.32,4.88c-.23-2.62.91-5.6,2.53-8.4C410,265.87,398.67,264.07,396.57,263.73Z"/><circle class="cls-24" cx="390.21" cy="302.46" r="39.27"/><path class="cls-14" d="M390.22,338.13A35.67,35.67,0,1,1,424,313.79,35.67,35.67,0,0,1,390.22,338.13Z"/><path class="cls-24" d="M390.34,296.91l7.26-20a4.72,4.72,0,0,0-4-6.3,32,32,0,0,0-35.05,26.71A4.71,4.71,0,0,0,364,302.7l24.39-4.19A2.48,2.48,0,0,0,390.34,296.91Z"/><path class="cls-24" d="M362.92,307a4.13,4.13,0,0,0-3.21,5.36,31.88,31.88,0,0,0,10.57,15.28,31.47,31.47,0,0,0,2.89,2,4.12,4.12,0,0,0,6.05-2.09l7.6-20.93a2.49,2.49,0,0,0-2.76-3.3Z"/><path class="cls-24" d="M409.9,319.08a5,5,0,0,0,8.14-.78c7.33-13.39,4.18-31.35-7.86-40.91-.78-.62-1.59-1.2-2.42-1.74a4.62,4.62,0,0,0-6.82,2.36l-7.27,20a2.48,2.48,0,0,0,.44,2.45Z"/><path class="cls-24" d="M390.15,307.75l-7.63,21a4.11,4.11,0,0,0,3.27,5.48,32.06,32.06,0,0,0,21.61-4.68,4.13,4.13,0,0,0,.93-6.15L394.38,307A2.48,2.48,0,0,0,390.15,307.75Z"/><path class="cls-25" d="M376.93,324.75a4.47,4.47,0,1,1-7.39-5c1.39-2.05,5.58-4.64,7.62-3.25S378.32,322.71,376.93,324.75Z"/><circle class="cls-3" cx="373.73" cy="323.44" r="1.97"/><path class="cls-25" d="M369.14,317.82a4.48,4.48,0,0,1-4.21-7.9c2.18-1.16,7.1-1.51,8.26.67S371.32,316.65,369.14,317.82Z"/><circle class="cls-3" cx="366.91" cy="315.17" r="1.97"/><path class="cls-25" d="M379.66,317.2a2.92,2.92,0,1,1-4.82-3.28c.9-1.33,3.64-3,5-2.12S380.57,315.87,379.66,317.2Z"/><circle class="cls-3" cx="377.57" cy="316.35" r="1.29"/><path class="cls-25" d="M375.72,313.61a2.92,2.92,0,1,1-2.74-5.15c1.42-.76,4.62-1,5.38.44S377.14,312.85,375.72,313.61Z"/><circle class="cls-3" cx="374.27" cy="311.88" r="1.29"/><path class="cls-25" d="M381.47,311.85a2.91,2.91,0,1,1-3.85-4.37c1.21-1.07,4.28-2,5.34-.82S382.68,310.79,381.47,311.85Z"/><circle class="cls-3" cx="379.66" cy="310.51" r="1.29"/><path class="cls-25" d="M364.73,300.21a4.47,4.47,0,1,1,.59-8.93c2.47.16,6.83,2.46,6.67,4.93S367.2,300.37,364.73,300.21Z"/><circle class="cls-3" cx="364.24" cy="296.78" r="1.97"/><path class="cls-25" d="M367.71,288.73a4.47,4.47,0,1,1,6.46-6.18c1.71,1.78,3.38,6.42,1.59,8.13S369.42,290.52,367.71,288.73Z"/><circle class="cls-3" cx="369.66" cy="285.87" r="1.97"/><path class="cls-25" d="M376.09,280.55a4.47,4.47,0,1,1,8.3-3.34c.92,2.29.74,7.22-1.55,8.14S377,282.84,376.09,280.55Z"/><circle class="cls-3" cx="378.96" cy="278.62" r="1.97"/><path class="cls-25" d="M386,276a4.47,4.47,0,1,1,8.94.26c-.07,2.47-2.2,6.91-4.67,6.84S385.94,278.49,386,276Z"/><circle class="cls-3" cx="389.42" cy="275.39" r="1.97"/><path class="cls-25" d="M372.35,299.46a3,3,0,1,1,.4-6c1.65.11,4.58,1.65,4.47,3.3S374,299.57,372.35,299.46Z"/><circle class="cls-3" cx="372.02" cy="297.16" r="1.32"/><path class="cls-25" d="M374.35,291.76a3,3,0,0,1,4.34-4.16c1.14,1.2,2.26,4.32,1.06,5.46S375.49,293,374.35,291.76Z"/><circle class="cls-3" cx="375.65" cy="289.84" r="1.32"/><path class="cls-25" d="M380,286.26a3,3,0,0,1,5.57-2.24c.62,1.54.5,4.85-1,5.47S380.59,287.8,380,286.26Z"/><circle class="cls-3" cx="381.9" cy="284.97" r="1.32"/><path class="cls-25" d="M386.63,283.22a3,3,0,1,1,6,.18c-.05,1.66-1.48,4.64-3.14,4.59S386.58,284.88,386.63,283.22Z"/><circle class="cls-3" cx="388.92" cy="282.8" r="1.32"/><path class="cls-25" d="M378.12,298.29a1.87,1.87,0,1,1,.25-3.73c1,.07,2.85,1,2.78,2.06S379.15,298.35,378.12,298.29Z"/><circle class="cls-3" cx="377.92" cy="296.86" r="0.82"/><path class="cls-25" d="M379.36,293.5a1.87,1.87,0,0,1,2.7-2.58c.71.74,1.41,2.68.66,3.39S380.08,294.24,379.36,293.5Z"/><circle class="cls-3" cx="380.18" cy="292.31" r="0.82"/><path class="cls-25" d="M382.86,290.09a1.87,1.87,0,1,1,3.46-1.4c.39,1,.31,3-.64,3.4S383.24,291,382.86,290.09Z"/><circle class="cls-3" cx="384.06" cy="289.28" r="0.82"/><path class="cls-25" d="M387,288.19a1.87,1.87,0,1,1,3.73.11c0,1-.92,2.89-2,2.86S387,289.22,387,288.19Z"/><circle class="cls-3" cx="388.42" cy="287.94" r="0.82"/><path class="cls-25" d="M382.48,296.13a1.87,1.87,0,0,1,2.7-2.58c.71.75,1.41,2.68.66,3.4S383.2,296.88,382.48,296.13Z"/><circle class="cls-3" cx="383.3" cy="294.94" r="0.82"/><path class="cls-25" d="M386,292.72a1.86,1.86,0,1,1,3.46-1.39c.39.95.31,3-.64,3.39S386.36,293.68,386,292.72Z"/><circle class="cls-3" cx="387.18" cy="291.91" r="0.82"/><path class="cls-25" d="M411.1,317a4.47,4.47,0,1,0,5.27-7.23c-2-1.46-6.81-2.49-8.27-.5S409.1,315.58,411.1,317Z"/><circle class="cls-3" cx="413.68" cy="314.73" r="1.97"/><path class="cls-25" d="M416.18,306.32a4.47,4.47,0,1,0-1-8.89c-2.46.28-6.71,2.77-6.44,5.22S413.72,306.6,416.18,306.32Z"/><circle class="cls-3" cx="416.52" cy="302.88" r="1.97"/><path class="cls-25" d="M415,294.67a4.47,4.47,0,1,0-4.23-7.88c-2.18,1.16-5.2,5.06-4,7.23S412.82,295.84,415,294.67Z"/><circle class="cls-3" cx="414.03" cy="291.35" r="1.97"/><path class="cls-25" d="M410.29,284.83a4.48,4.48,0,0,0-7-5.54c-1.52,1.95-2.74,6.72-.8,8.25S408.76,286.77,410.29,284.83Z"/><circle class="cls-3" cx="408.08" cy="282.17" r="1.97"/><path class="cls-25" d="M405.74,311.58a3,3,0,0,0,3.54-4.85c-1.34-1-4.58-1.68-5.56-.34S404.4,310.6,405.74,311.58Z"/><circle class="cls-3" cx="407.47" cy="310.03" r="1.32"/><path class="cls-25" d="M409.14,304.39a3,3,0,1,0-.66-6c-1.65.18-4.5,1.85-4.32,3.5S407.5,304.57,409.14,304.39Z"/><circle class="cls-3" cx="409.37" cy="302.07" r="1.32"/><path class="cls-25" d="M408.35,296.57a3,3,0,0,0-2.83-5.3c-1.46.79-3.49,3.4-2.71,4.86S406.89,297.35,408.35,296.57Z"/><circle class="cls-3" cx="407.71" cy="294.33" r="1.32"/><path class="cls-25" d="M405.2,290a3,3,0,1,0-4.72-3.71c-1,1.3-1.84,4.51-.54,5.53S404.17,291.26,405.2,290Z"/><circle class="cls-3" cx="403.71" cy="288.17" r="1.32"/><path class="cls-25" d="M402.06,307a1.87,1.87,0,0,0,2.2-3c-.83-.61-2.84-1-3.45-.21S401.23,306.37,402.06,307Z"/><circle class="cls-3" cx="403.14" cy="306.01" r="0.82"/><path class="cls-25" d="M404.18,302.51a1.87,1.87,0,1,0-.41-3.71c-1,.11-2.8,1.15-2.69,2.17S403.15,302.62,404.18,302.51Z"/><circle class="cls-3" cx="404.32" cy="301.07" r="0.82"/><path class="cls-25" d="M403.69,297.65a1.87,1.87,0,1,0-1.77-3.29c-.91.48-2.17,2.11-1.68,3S402.78,298.13,403.69,297.65Z"/><circle class="cls-3" cx="403.28" cy="296.26" r="0.82"/><path class="cls-25" d="M401.72,293.54a1.87,1.87,0,0,0-2.93-2.31c-.64.81-1.14,2.8-.33,3.44S401.09,294.35,401.72,293.54Z"/><circle class="cls-3" cx="400.8" cy="292.43" r="0.82"/><path class="cls-25" d="M400.09,302.53a1.87,1.87,0,0,0-.41-3.71c-1,.11-2.8,1.15-2.68,2.17S399.07,302.64,400.09,302.53Z"/><circle class="cls-3" cx="400.24" cy="301.09" r="0.82"/><path class="cls-25" d="M399.6,297.67a1.87,1.87,0,1,0-1.76-3.29c-.91.48-2.17,2.11-1.68,3S398.69,298.15,399.6,297.67Z"/><circle class="cls-3" cx="399.2" cy="296.28" r="0.82"/><path class="cls-25" d="M385.74,327.38a4.47,4.47,0,1,0,8.9.88c.24-2.46-1.31-7.14-3.76-7.38S386,324.92,385.74,327.38Z"/><circle class="cls-3" cx="389.04" cy="328.43" r="1.97"/><path class="cls-25" d="M396.16,327.05a4.47,4.47,0,1,0,8.29-3.35c-.92-2.29-4.47-5.72-6.76-4.79S395.23,324.76,396.16,327.05Z"/><circle class="cls-3" cx="399.57" cy="326.45" r="1.97"/><path class="cls-25" d="M388.49,319.84a2.91,2.91,0,0,0,5.8.57c.16-1.6-.85-4.66-2.45-4.81S388.65,318.23,388.49,319.84Z"/><circle class="cls-3" cx="390.64" cy="320.52" r="1.29"/><path class="cls-25" d="M393.81,319.61a2.92,2.92,0,1,0,5.41-2.19c-.6-1.5-2.92-3.73-4.41-3.12S393.21,318.11,393.81,319.61Z"/><circle class="cls-3" cx="396.04" cy="319.22" r="1.29"/><path class="cls-25" d="M390.53,314.57a2.91,2.91,0,1,0,5.76-.89c-.24-1.59-2-4.29-3.57-4.05S390.28,313,390.53,314.57Z"/><circle class="cls-3" cx="392.78" cy="314.7" r="1.29"/></svg>