<svg id="Layer_1" data-name="Layer 1" xmlns="http://www.w3.org/2000/svg" viewBox="0 0 500 500"><defs><style>.cls-1,.cls-12,.cls-4{fill:#97dde5;}.cls-2,.cls-6{fill:#2c71f0;}.cls-3{fill:none;}.cls-10,.cls-11,.cls-12,.cls-13,.cls-14,.cls-15,.cls-17,.cls-18,.cls-19,.cls-3,.cls-4,.cls-5,.cls-6,.cls-7,.cls-8,.cls-9{stroke:#000;}.cls-10,.cls-11,.cls-16,.cls-17,.cls-18,.cls-3,.cls-4,.cls-5,.cls-6,.cls-7,.cls-8,.cls-9{stroke-width:1.13px;}.cls-10,.cls-12,.cls-13,.cls-14,.cls-16,.cls-17,.cls-18,.cls-19,.cls-4,.cls-5,.cls-6,.cls-7,.cls-8,.cls-9{stroke-miterlimit:10;}.cls-5{fill:#fbe62e;}.cls-16,.cls-7{fill:#fff;}.cls-8{fill:#f78400;}.cls-13,.cls-9{fill:#ff4633;}.cls-10{fill:#00a700;}.cls-11,.cls-15{stroke-linejoin:round;}.cls-12{stroke-width:1.21px;}.cls-13,.cls-14,.cls-15{stroke-width:1.03px;}.cls-14,.cls-15{fill:#2ae21d;}.cls-16{stroke:#231f20;}.cls-18{fill:#ffc664;}.cls-19{stroke-width:1.78px;}</style></defs><rect class="cls-1" x="-5.23" y="-5.23" width="510.46" height="510.46"/><path class="cls-2" d="M92.54,403.1V360.92h3.85v19.33h23.93V360.92h3.85V403.1h-3.85V383.71H96.39V403.1Z"/><path class="cls-2" d="M169.29,360.92h3.85v27.92a14.73,14.73,0,0,1-2,7.7,14.33,14.33,0,0,1-5.61,5.33,18.79,18.79,0,0,1-16.69,0,14.39,14.39,0,0,1-5.63-5.33,14.78,14.78,0,0,1-2-7.69V360.92H145v27.66a11.85,11.85,0,0,0,1.5,6,10.71,10.71,0,0,0,4.23,4.13,14.4,14.4,0,0,0,12.8,0,10.67,10.67,0,0,0,4.24-4.13,12,12,0,0,0,1.49-6Z"/><path class="cls-2" d="M223,360.92V403.1h-3.75l-24.92-35.33H194V403.1h-3.86V360.92h3.73l25,35.36h.33V360.92Z"/><path class="cls-2" d="M269.18,374.1a15.51,15.51,0,0,0-1.68-4,13.32,13.32,0,0,0-2.75-3.23,12.34,12.34,0,0,0-3.77-2.17,13.53,13.53,0,0,0-4.75-.79,13.08,13.08,0,0,0-7.37,2.15,14.41,14.41,0,0,0-5.14,6.17,25.85,25.85,0,0,0,0,19.43,14.5,14.5,0,0,0,5.2,6.19,14.47,14.47,0,0,0,14.45.42,11.93,11.93,0,0,0,4.66-4.95,15.9,15.9,0,0,0,1.64-7.64l1.24.39H257.4v-3.45h16v3.45a18.94,18.94,0,0,1-2.19,9.34,15.34,15.34,0,0,1-6,6.07,18.91,18.91,0,0,1-18.41-.52,17.75,17.75,0,0,1-6.44-7.54A26.66,26.66,0,0,1,238.11,382a28.46,28.46,0,0,1,1.31-9,20.13,20.13,0,0,1,3.74-6.84,16.36,16.36,0,0,1,5.74-4.36,17.41,17.41,0,0,1,7.33-1.51,17.6,17.6,0,0,1,6.33,1.09,16.67,16.67,0,0,1,8.67,7.38,16.47,16.47,0,0,1,1.91,5.29Z"/><path class="cls-2" d="M288.87,403.1h-4l15.34-42.18h4.12l15.35,42.18h-4l-13.22-37.18h-.29Zm2.9-16.17H312.7v3.46H291.77Z"/><path class="cls-2" d="M332.67,403.1V360.92h13.61a15.75,15.75,0,0,1,7.51,1.61,10.84,10.84,0,0,1,4.55,4.47,13.62,13.62,0,0,1,1.54,6.54,13.44,13.44,0,0,1-1.54,6.51,10.74,10.74,0,0,1-4.54,4.41,16,16,0,0,1-7.46,1.58H334.75v-3.52h11.49a12.23,12.23,0,0,0,5.49-1.09,7.25,7.25,0,0,0,3.27-3.11,10,10,0,0,0,1.09-4.78,10.18,10.18,0,0,0-1.1-4.83,7.41,7.41,0,0,0-3.28-3.2,11.93,11.93,0,0,0-5.53-1.14h-9.66V403.1Zm18.6-19,10.38,19H357.2l-10.28-19Z"/><path class="cls-2" d="M371.11,360.92h4.45l12.5,20h.37l12.5-20h4.45l-15.22,23.91V403.1h-3.83V384.83Z"/><rect class="cls-3" x="74.72" y="342.87" width="349.8" height="83.25"/><rect class="cls-4" x="74.46" y="257.95" width="76.28" height="59.77"/><rect class="cls-5" x="74.47" y="181.92" width="25.28" height="25.28"/><rect class="cls-6" x="99.93" y="181.92" width="25.28" height="25.28"/><rect class="cls-7" x="125.38" y="181.92" width="25.28" height="25.28"/><rect class="cls-8" x="74.47" y="207.2" width="25.28" height="25.28"/><rect class="cls-9" x="99.93" y="207.2" width="25.28" height="25.28"/><rect class="cls-10" x="125.38" y="207.2" width="25.28" height="25.28"/><rect class="cls-7" x="74.47" y="232.47" width="25.28" height="25.28"/><rect class="cls-5" x="99.93" y="232.47" width="25.28" height="25.28"/><rect class="cls-9" x="125.38" y="232.47" width="25.28" height="25.28"/><polygon class="cls-11" points="167.33 173.28 91.03 173.28 74.47 181.92 150.77 181.92 167.33 173.28"/><polygon class="cls-11" points="167.33 173.28 150.66 173.28 150.66 257.75 167.33 246.71 167.33 173.28"/><path class="cls-12" d="M389.68,70.24h0a34.85,34.85,0,0,1,34.85,34.85V317.72a0,0,0,0,1,0,0H354.83a0,0,0,0,1,0,0V105.08A34.85,34.85,0,0,1,389.68,70.24Z"/><path class="cls-13" d="M394,151.79a11.31,11.31,0,0,1,4.62,3c4.36,4.55,13,33.42,15.33,41.65,1.15,4,1.26,10.22-4.64,6.41-6.6-4.26-25.25-31.17-27.63-39a9.23,9.23,0,0,1,.45-7.17,10.2,10.2,0,0,1,4.21-3.78,10.94,10.94,0,0,1,5.46-1.52A7.82,7.82,0,0,1,394,151.79Z"/><path class="cls-14" d="M390.06,153.15l-1.76.64-5-11.32a1.8,1.8,0,0,1,1.09-2.31h0a1.81,1.81,0,0,1,2.32,1.08Z"/><path class="cls-15" d="M388.71,152.17c-3.73,1.35-5.32,2.18-6.29,3.74-.59,1-.83,2.76-1.26,4.29a9.09,9.09,0,0,0,3.53-4.08l.65-.11a6.46,6.46,0,0,0,3.29,3.18,15.91,15.91,0,0,1-1.34-3.66l.51-.15a16.37,16.37,0,0,0,4.47,2.59c-.47-1.22-.93-2.45-1.4-3.67l.2-.08a29.52,29.52,0,0,0,6,2.42,15.93,15.93,0,0,0-2.74-4l.08,0a10.5,10.5,0,0,0,3.32.9,2.75,2.75,0,0,0-1.17-1.83C395,150.72,392,151,388.71,152.17Z"/><path class="cls-13" d="M384.64,123.41a11.39,11.39,0,0,0-4.23,3.54c-3.79,5-8.91,34.73-10.27,43.18-.67,4.12,0,10.29,5.37,5.81,6-5,21.36-33.95,22.8-42a9.3,9.3,0,0,0-1.3-7.07,10.23,10.23,0,0,0-4.63-3.24,10.94,10.94,0,0,0-5.6-.86A7.79,7.79,0,0,0,384.64,123.41Z"/><path class="cls-14" d="M388.74,124.29l1.82.43,3.64-11.84a1.81,1.81,0,0,0-1.35-2.17h0a1.83,1.83,0,0,0-2.18,1.36Z"/><path class="cls-15" d="M390,123.16c3.86.89,5.54,1.54,6.68,3,.7.88,1.15,2.65,1.77,4.11a9,9,0,0,1-4-3.63l-.66,0a6.43,6.43,0,0,1-2.89,3.55,15.49,15.49,0,0,0,.89-3.79l-.52-.09a16.5,16.5,0,0,1-4.13,3.1c.32-1.27.64-2.54.95-3.81l-.2,0a29.28,29.28,0,0,1-5.68,3.11,15.88,15.88,0,0,1,2.24-4.3l-.09,0a10.31,10.31,0,0,1-3.18,1.28,2.72,2.72,0,0,1,.94-2C383.53,122.47,386.51,122.36,390,123.16Z"/><path class="cls-13" d="M399.43,187a11.5,11.5,0,0,1,3,4.66c2.09,5.93-2,35.79-3.22,44.26-.61,4.13-3.07,9.82-6.87,3.92-4.26-6.6-10.14-38.81-9.09-46.92a9.26,9.26,0,0,1,3.37-6.34,10.22,10.22,0,0,1,5.39-1.7,11,11,0,0,1,5.61.86A8,8,0,0,1,399.43,187Z"/><path class="cls-14" d="M395.25,186.6l-1.86-.15.09-12.38a1.81,1.81,0,0,1,1.95-1.66h0a1.81,1.81,0,0,1,1.66,2Z"/><path class="cls-15" d="M394.43,185.14c-4-.31-5.75-.2-7.27.82-.93.62-1.9,2.18-2.92,3.38a9.05,9.05,0,0,0,4.89-2.25l.64.16a6.56,6.56,0,0,0,1.68,4.26,16.39,16.39,0,0,1,.3-3.89l.52.08a16.8,16.8,0,0,0,3,4.19c.09-1.3.17-2.6.25-3.91h.21a29.11,29.11,0,0,0,4.47,4.68,15.91,15.91,0,0,0-.84-4.78h.1a10.46,10.46,0,0,0,2.65,2.18,2.79,2.79,0,0,0-.31-2.15C400.77,186.43,398,185.42,394.43,185.14Z"/><path class="cls-13" d="M401.94,107.46a11.41,11.41,0,0,1,4.62,3c4.36,4.55,13,33.42,15.33,41.65,1.15,4,1.26,10.22-4.64,6.41-6.6-4.26-25.25-31.17-27.63-39a9.24,9.24,0,0,1,.45-7.17,10.18,10.18,0,0,1,4.21-3.77,11,11,0,0,1,5.46-1.53A8.2,8.2,0,0,1,401.94,107.46Z"/><path class="cls-14" d="M398,108.82l-1.76.64-5-11.31a1.82,1.82,0,0,1,1.09-2.32h0a1.81,1.81,0,0,1,2.32,1.09Z"/><path class="cls-15" d="M396.62,107.84c-3.73,1.35-5.32,2.19-6.29,3.74a21.78,21.78,0,0,0-1.26,4.29,9,9,0,0,0,3.53-4.08l.65-.11a6.47,6.47,0,0,0,3.29,3.19,16,16,0,0,1-1.34-3.67l.51-.14a16.59,16.59,0,0,0,4.47,2.58l-1.4-3.66.2-.08a29.49,29.49,0,0,0,6,2.41,15.88,15.88,0,0,0-2.74-4l.08-.06a10.5,10.5,0,0,0,3.32.9,2.78,2.78,0,0,0-1.17-1.83C402.93,106.39,400,106.64,396.62,107.84Z"/><path class="cls-13" d="M373.33,202c3.89-3,5.44-7.64,6-12.38.91-7.66-2-20.13,7.41-23.73,7-2.67,11.85,2.44,12.78,9.13,1.08,7.82-2.48,18-7.3,24.06-6,7.56-22.26,14-30.91,6.81a1.64,1.64,0,0,1-.71-1.12,1.26,1.26,0,0,1,1.21-1.14,4.69,4.69,0,0,1,1.79.33A10.7,10.7,0,0,0,373.33,202Z"/><path class="cls-14" d="M391,166.07l-1.87.12-1.7-12.26a1.8,1.8,0,0,1,1.68-1.92h0a1.81,1.81,0,0,1,1.93,1.68Z"/><path class="cls-15" d="M390,164.75c-4,.27-5.72.63-7.07,1.86-.83.75-1.56,2.43-2.4,3.77a9,9,0,0,0,4.52-2.94l.65.07a6.49,6.49,0,0,0,2.28,4,16.37,16.37,0,0,1-.27-3.89h.53a16.58,16.58,0,0,0,3.58,3.71l-.33-3.9.21,0a29.78,29.78,0,0,0,5.11,4,15.87,15.87,0,0,0-1.53-4.6l.1,0a10.28,10.28,0,0,0,2.94,1.78,2.74,2.74,0,0,0-.63-2.08C396.46,165.1,393.54,164.51,390,164.75Z"/><path class="cls-13" d="M363.44,138.24c4.41-2.13,6.89-6.35,8.41-10.87,2.47-7.32,2.14-20.13,12.13-21.7,7.43-1.18,11.09,4.81,10.62,11.56-.54,7.86-6.11,17.08-12.07,22-7.43,6.16-24.66,9.1-31.66.31a1.66,1.66,0,0,1-.47-1.24,1.28,1.28,0,0,1,1.42-.87,4.68,4.68,0,0,1,1.69.69A10.67,10.67,0,0,0,363.44,138.24Z"/><path class="cls-14" d="M388.13,106.71l-1.84-.26.85-12.34a1.8,1.8,0,0,1,2-1.54h0a1.8,1.8,0,0,1,1.54,2Z"/><path class="cls-15" d="M387.4,105.21c-3.93-.55-5.73-.55-7.3.37-1,.57-2,2.06-3.13,3.2a9,9,0,0,0,5-2l.63.2a6.49,6.49,0,0,0,1.42,4.36,15.77,15.77,0,0,1,.53-3.87l.51.11a16.44,16.44,0,0,0,2.75,4.37l.48-3.89.21,0a29.54,29.54,0,0,0,4.18,5,15.64,15.64,0,0,0-.55-4.82h.1a10.53,10.53,0,0,0,2.51,2.34,2.76,2.76,0,0,0-.18-2.16C393.66,106.88,390.91,105.71,387.4,105.21Z"/><path class="cls-13" d="M421.29,164.52c-4.64-1.59-7.6-5.49-9.65-9.8-3.31-7-4.51-19.73-14.61-20.11-7.53-.28-10.45,6.1-9.18,12.74,1.47,7.75,8.1,16.24,14.61,20.45,8.1,5.24,25.57,6.11,31.46-3.45a1.59,1.59,0,0,0,.32-1.28,1.27,1.27,0,0,0-1.51-.7,4.91,4.91,0,0,0-1.59.89A10.71,10.71,0,0,1,421.29,164.52Z"/><path class="cls-14" d="M393,136.15l1.81-.48-2.32-12.16a1.8,1.8,0,0,0-2.21-1.28h0a1.8,1.8,0,0,0-1.28,2.21Z"/><path class="cls-15" d="M393.57,134.57c3.84-1,5.62-1.23,7.3-.5,1,.45,2.25,1.8,3.48,2.81a9,9,0,0,1-5.22-1.35c-.19.1-.39.19-.6.28a6.54,6.54,0,0,1-.89,4.49,15.88,15.88,0,0,0-1-3.77l-.5.17a16.73,16.73,0,0,1-2.2,4.66c-.32-1.26-.63-2.53-.94-3.8l-.21,0a29.57,29.57,0,0,1-3.56,5.41,15.78,15.78,0,0,1,0-4.85h-.1a10.42,10.42,0,0,1-2.22,2.63,2.79,2.79,0,0,1-.07-2.17C387.56,137,390.15,135.48,393.57,134.57Z"/><path class="cls-16" d="M91,120.82h20.15a11.76,11.76,0,0,1,11.67-10.35h15.79a11.77,11.77,0,0,1,11.68-10.34h18a11.76,11.76,0,0,1,11.76,11.77v8.92h11.27a11.76,11.76,0,0,1,11.77,11.76v2.26H79.25v-2.26A11.76,11.76,0,0,1,91,120.82Z"/><line class="cls-16" x1="111.17" y1="120.82" x2="123.43" y2="120.82"/><line class="cls-16" x1="138.63" y1="110.47" x2="154.22" y2="110.47"/><line class="cls-16" x1="180.07" y1="120.82" x2="166.18" y2="120.82"/><path class="cls-16" d="M376.31,84.83H356.16a11.77,11.77,0,0,0-11.68-10.34H328.69A11.76,11.76,0,0,0,317,64.15H299a11.77,11.77,0,0,0-11.77,11.76v8.92H276A11.77,11.77,0,0,0,264.22,96.6v2.26H388.07V96.6A11.76,11.76,0,0,0,376.31,84.83Z"/><line class="cls-16" x1="356.16" y1="84.83" x2="343.9" y2="84.83"/><line class="cls-16" x1="328.69" y1="74.49" x2="313.1" y2="74.49"/><line class="cls-16" x1="287.25" y1="84.83" x2="301.15" y2="84.83"/><rect class="cls-6" x="245.29" y="117.49" width="8.45" height="6.09"/><rect class="cls-5" x="74.46" y="317.72" width="350.07" height="25.07"/><rect class="cls-7" x="374.79" y="277.89" width="19.78" height="39.58" transform="translate(769.36 595.37) rotate(-180)"/><rect class="cls-7" x="354.92" y="277.9" width="19.78" height="39.58" transform="translate(729.62 595.37) rotate(-180)"/><rect class="cls-7" x="374.79" y="251.6" width="19.78" height="26.3" transform="translate(769.36 529.49) rotate(-180)"/><rect class="cls-7" x="354.92" y="251.6" width="19.78" height="26.3" transform="translate(729.62 529.49) rotate(-180)"/><rect class="cls-7" x="124.19" y="251.84" width="19.78" height="26.3"/><rect class="cls-7" x="104.41" y="251.84" width="19.78" height="26.3"/><rect class="cls-7" x="124.19" y="278.14" width="19.78" height="39.58"/><rect class="cls-7" x="104.41" y="278.14" width="19.78" height="39.58"/><rect class="cls-5" x="144.19" y="229.95" width="210.64" height="87.77"/><path class="cls-17" d="M130,260.11h0a1.74,1.74,0,0,1,1.74,1.74v12a0,0,0,0,1,0,0H128.3a0,0,0,0,1,0,0v-12a1.74,1.74,0,0,1,1.74-1.74Z"/><path class="cls-17" d="M138.11,260.09h0a1.74,1.74,0,0,1,1.74,1.74v12a0,0,0,0,1,0,0h-3.48a0,0,0,0,1,0,0v-12A1.74,1.74,0,0,1,138.11,260.09Z"/><rect class="cls-18" x="124.19" y="238.64" width="19.78" height="13.21"/><polygon class="cls-9" points="141.85 245.69 126.3 245.69 134.08 228.57 141.85 245.69"/><rect class="cls-7" x="126.34" y="247.59" width="1.27" height="1.27"/><rect class="cls-7" x="129.18" y="247.59" width="1.27" height="1.27"/><rect class="cls-7" x="132.02" y="247.59" width="1.27" height="1.27"/><rect class="cls-7" x="134.86" y="247.59" width="1.27" height="1.27"/><rect class="cls-7" x="137.7" y="247.59" width="1.27" height="1.27"/><rect class="cls-7" x="140.54" y="247.59" width="1.27" height="1.27"/><path class="cls-4" d="M134.08,282.26h0a7.92,7.92,0,0,1,7.92,7.92v27.55a0,0,0,0,1,0,0H126.16a0,0,0,0,1,0,0V290.17a7.92,7.92,0,0,1,7.92-7.92Z"/><path class="cls-4" d="M114.3,282.26h0a7.92,7.92,0,0,1,7.92,7.92v27.55a0,0,0,0,1,0,0H106.38a0,0,0,0,1,0,0V290.17a7.92,7.92,0,0,1,7.92-7.92Z"/><path class="cls-17" d="M110.26,260.09h0a1.74,1.74,0,0,1,1.74,1.74v12a0,0,0,0,1,0,0h-3.48a0,0,0,0,1,0,0v-12A1.74,1.74,0,0,1,110.26,260.09Z"/><path class="cls-17" d="M118.33,260.11h0a1.74,1.74,0,0,1,1.74,1.74v12a0,0,0,0,1,0,0H116.6a0,0,0,0,1,0,0v-12a1.74,1.74,0,0,1,1.74-1.74Z"/><rect class="cls-18" x="104.41" y="238.64" width="19.78" height="13.21"/><polygon class="cls-9" points="122.08 245.69 106.52 245.69 114.3 228.57 122.08 245.69"/><rect class="cls-7" x="106.56" y="247.59" width="1.27" height="1.27"/><rect class="cls-7" x="109.4" y="247.59" width="1.27" height="1.27"/><rect class="cls-7" x="112.25" y="247.59" width="1.27" height="1.27"/><rect class="cls-7" x="115.09" y="247.59" width="1.27" height="1.27"/><rect class="cls-7" x="117.93" y="247.59" width="1.27" height="1.27"/><rect class="cls-7" x="120.77" y="247.59" width="1.27" height="1.27"/><path class="cls-4" d="M195.68,234.58h0a7.92,7.92,0,0,1,7.92,7.92V270a0,0,0,0,1,0,0H187.76a0,0,0,0,1,0,0V242.5a7.92,7.92,0,0,1,7.92-7.92Z"/><path class="cls-4" d="M217.21,234.58h0a7.92,7.92,0,0,1,7.92,7.92V270a0,0,0,0,1,0,0H209.29a0,0,0,0,1,0,0V242.5A7.92,7.92,0,0,1,217.21,234.58Z"/><path class="cls-4" d="M238.75,234.58h0a7.92,7.92,0,0,1,7.92,7.92V270a0,0,0,0,1,0,0H230.83a0,0,0,0,1,0,0V242.5A7.92,7.92,0,0,1,238.75,234.58Z"/><path class="cls-4" d="M260.28,234.58h0a7.92,7.92,0,0,1,7.92,7.92V270a0,0,0,0,1,0,0H252.36a0,0,0,0,1,0,0V242.5A7.92,7.92,0,0,1,260.28,234.58Z"/><path class="cls-4" d="M281.81,234.58h0a7.92,7.92,0,0,1,7.92,7.92V270a0,0,0,0,1,0,0H273.9a0,0,0,0,1,0,0V242.5A7.92,7.92,0,0,1,281.81,234.58Z"/><path class="cls-4" d="M303.35,234.58h0a7.92,7.92,0,0,1,7.92,7.92V270a0,0,0,0,1,0,0H295.43a0,0,0,0,1,0,0V242.5A7.92,7.92,0,0,1,303.35,234.58Z"/><rect class="cls-18" x="211.35" y="164.91" width="76.32" height="55.1"/><path class="cls-9" d="M249.51,123.11h0a34.61,34.61,0,0,1,34.61,34.61v7.19a0,0,0,0,1,0,0H214.9a0,0,0,0,1,0,0v-7.19A34.61,34.61,0,0,1,249.51,123.11Z"/><polygon class="cls-7" points="217.99 164.91 211.34 164.91 214.24 143.7 215.1 143.7 217.99 164.91"/><polygon class="cls-7" points="231.93 164.91 225.28 164.91 228.17 143.7 229.04 143.7 231.93 164.91"/><polygon class="cls-7" points="245.87 164.91 239.22 164.91 242.11 143.7 242.97 143.7 245.87 164.91"/><polygon class="cls-7" points="259.81 164.91 253.16 164.91 256.05 143.7 256.91 143.7 259.81 164.91"/><polygon class="cls-7" points="273.74 164.91 267.09 164.91 269.99 143.7 270.85 143.7 273.74 164.91"/><polygon class="cls-7" points="287.68 164.91 281.03 164.91 283.93 143.7 284.79 143.7 287.68 164.91"/><polygon class="cls-18" points="208.09 199.12 205.2 177.9 204.33 177.9 201.44 199.12 200.48 199.12 198.63 185.57 197.77 185.57 195.37 220.01 211.34 220.01 211.34 199.12 208.09 199.12"/><polygon class="cls-18" points="290.93 199.12 293.83 177.9 294.69 177.9 297.58 199.12 298.55 199.12 300.39 185.57 301.26 185.57 303.66 220.01 287.68 220.01 287.68 199.12 290.93 199.12"/><path class="cls-17" d="M191.46,289.24h0A1.74,1.74,0,0,1,193.2,291v12a0,0,0,0,1,0,0h-3.48a0,0,0,0,1,0,0V291a1.74,1.74,0,0,1,1.74-1.74Z"/><path class="cls-17" d="M210.89,289.24h0a1.74,1.74,0,0,1,1.74,1.74v12a0,0,0,0,1,0,0h-3.48a0,0,0,0,1,0,0V291a1.74,1.74,0,0,1,1.74-1.74Z"/><path class="cls-17" d="M230.32,289.24h0a1.74,1.74,0,0,1,1.74,1.74v12a0,0,0,0,1,0,0h-3.48a0,0,0,0,1,0,0V291A1.74,1.74,0,0,1,230.32,289.24Z"/><path class="cls-17" d="M249.75,289.24h0a1.74,1.74,0,0,1,1.74,1.74v12a0,0,0,0,1,0,0H248a0,0,0,0,1,0,0V291A1.74,1.74,0,0,1,249.75,289.24Z"/><path class="cls-17" d="M269.17,289.24h0a1.74,1.74,0,0,1,1.74,1.74v12a0,0,0,0,1,0,0h-3.48a0,0,0,0,1,0,0V291A1.74,1.74,0,0,1,269.17,289.24Z"/><path class="cls-17" d="M288.6,289.24h0a1.74,1.74,0,0,1,1.74,1.74v12a0,0,0,0,1,0,0h-3.48a0,0,0,0,1,0,0V291A1.74,1.74,0,0,1,288.6,289.24Z"/><path class="cls-17" d="M308,289.24h0a1.74,1.74,0,0,1,1.74,1.74v12a0,0,0,0,1,0,0h-3.48a0,0,0,0,1,0,0V291A1.74,1.74,0,0,1,308,289.24Z"/><rect class="cls-18" x="181.51" y="302.98" width="136.01" height="14.74"/><polygon class="cls-6" points="255.95 117.49 243.08 117.49 248.87 96.72 250.88 96.72 255.95 117.49"/><rect class="cls-7" x="249.19" y="59.64" width="1.38" height="37.08"/><rect class="cls-18" x="181.59" y="270.05" width="135.85" height="14.87"/><polyline class="cls-5" points="181.59 216.85 191.29 202.28 200.99 216.85 210.69 202.28 220.39 216.85 230.1 202.28 239.8 216.85 249.5 202.28 259.21 216.85 268.91 202.28 278.61 216.85 288.31 202.28 298.02 216.85 307.73 202.28 317.44 216.85"/><rect class="cls-5" x="181.59" y="216.85" width="135.85" height="13.1"/><path class="cls-4" d="M356.89,282h15.83a0,0,0,0,1,0,0v27.55a7.92,7.92,0,0,1-7.92,7.92h0a7.92,7.92,0,0,1-7.92-7.92V282A0,0,0,0,1,356.89,282Z" transform="translate(729.62 599.49) rotate(-180)"/><path class="cls-17" d="M367.1,259.85h3.48a0,0,0,0,1,0,0v12a1.74,1.74,0,0,1-1.74,1.74h0a1.74,1.74,0,0,1-1.74-1.74v-12A0,0,0,0,1,367.1,259.85Z" transform="translate(737.67 533.44) rotate(-180)"/><path class="cls-17" d="M359,259.85h3.48a0,0,0,0,1,0,0v12a1.74,1.74,0,0,1-1.74,1.74h0a1.74,1.74,0,0,1-1.74-1.74v-12a0,0,0,0,1,0,0Z" transform="translate(721.55 533.45) rotate(180)"/><rect class="cls-18" x="354.92" y="238.39" width="19.78" height="13.21" transform="translate(729.62 489.99) rotate(-180)"/><polygon class="cls-9" points="357.03 245.44 372.59 245.44 364.81 228.32 357.03 245.44"/><rect class="cls-7" x="371.28" y="247.34" width="1.27" height="1.27" transform="translate(743.82 495.96) rotate(-180)"/><rect class="cls-7" x="368.44" y="247.34" width="1.27" height="1.27" transform="translate(738.14 495.96) rotate(-180)"/><rect class="cls-7" x="365.6" y="247.34" width="1.27" height="1.27" transform="translate(732.46 495.96) rotate(-180)"/><rect class="cls-7" x="362.75" y="247.34" width="1.27" height="1.27" transform="translate(726.78 495.96) rotate(-180)"/><rect class="cls-7" x="359.91" y="247.34" width="1.27" height="1.27" transform="translate(721.1 495.96) rotate(-180)"/><rect class="cls-7" x="357.07" y="247.34" width="1.27" height="1.27" transform="translate(715.42 495.96) rotate(-180)"/><path class="cls-4" d="M376.76,282h15.83a0,0,0,0,1,0,0v27.55a7.92,7.92,0,0,1-7.92,7.92h0a7.92,7.92,0,0,1-7.92-7.92V282A0,0,0,0,1,376.76,282Z" transform="translate(769.36 599.48) rotate(-180)"/><path class="cls-17" d="M387,259.84h3.48a0,0,0,0,1,0,0v12a1.74,1.74,0,0,1-1.74,1.74h0a1.74,1.74,0,0,1-1.74-1.74v-12A0,0,0,0,1,387,259.84Z" transform="translate(777.41 533.44) rotate(-180)"/><path class="cls-17" d="M378.89,259.84h3.48a0,0,0,0,1,0,0v12a1.74,1.74,0,0,1-1.74,1.74h0a1.74,1.74,0,0,1-1.74-1.74v-12a0,0,0,0,1,0,0Z" transform="translate(761.26 533.44) rotate(180)"/><rect class="cls-18" x="374.79" y="238.39" width="19.78" height="13.21" transform="translate(769.36 489.99) rotate(-180)"/><polygon class="cls-9" points="376.9 245.44 392.45 245.44 384.68 228.32 376.9 245.44"/><rect class="cls-7" x="391.14" y="247.34" width="1.27" height="1.27" transform="translate(783.56 495.96) rotate(-180)"/><rect class="cls-7" x="388.3" y="247.34" width="1.27" height="1.27" transform="translate(777.88 495.96) rotate(-180)"/><rect class="cls-7" x="385.46" y="247.34" width="1.27" height="1.27" transform="translate(772.2 495.96) rotate(-180)"/><rect class="cls-7" x="382.62" y="247.34" width="1.27" height="1.27" transform="translate(766.52 495.96) rotate(-180)"/><rect class="cls-7" x="379.78" y="247.34" width="1.27" height="1.27" transform="translate(760.83 495.96) rotate(-180)"/><rect class="cls-7" x="376.94" y="247.34" width="1.27" height="1.27" transform="translate(755.15 495.96) rotate(-180)"/><rect class="cls-18" x="317.44" y="229.7" width="30.72" height="87.77" transform="translate(665.59 547.18) rotate(-180)"/><rect class="cls-18" x="317.44" y="181.45" width="30.72" height="48.25" transform="translate(665.59 411.16) rotate(-180)"/><rect class="cls-18" x="319.81" y="162.45" width="25.97" height="19" transform="translate(665.59 343.9) rotate(-180)"/><rect class="cls-18" x="322.5" y="153.27" width="20.58" height="9.18" transform="translate(665.59 315.72) rotate(-180)"/><rect class="cls-18" x="324.88" y="129.52" width="15.83" height="23.75" transform="translate(665.59 282.79) rotate(-180)"/><polygon class="cls-18" points="326.15 129.52 339.45 129.52 333.66 87.08 331.93 87.08 326.15 129.52"/><path class="cls-4" d="M327.17,243.59h11.26a0,0,0,0,1,0,0v19.58a5.63,5.63,0,0,1-5.63,5.63h0a5.63,5.63,0,0,1-5.63-5.63V243.59A0,0,0,0,1,327.17,243.59Z" transform="translate(665.59 512.4) rotate(-180)"/><rect x="334.08" y="274.19" width="2.65" height="7.15" transform="translate(670.81 555.53) rotate(-180)"/><rect x="328.86" y="274.32" width="2.65" height="7.15" transform="translate(660.37 555.79) rotate(-180)"/><circle class="cls-4" cx="249.51" cy="181.7" r="7.54"/><circle class="cls-4" cx="271.18" cy="181.7" r="7.54"/><circle class="cls-4" cx="227.84" cy="181.7" r="7.54"/><path class="cls-4" d="M333,195.35h0a5.63,5.63,0,0,1,5.63,5.63v28.77a0,0,0,0,1,0,0H327.34a0,0,0,0,1,0,0V201A5.63,5.63,0,0,1,333,195.35Z"/><path class="cls-4" d="M333,168.75h0a3.27,3.27,0,0,1,3.27,3.27v9.48a0,0,0,0,1,0,0h-6.54a0,0,0,0,1,0,0V172A3.27,3.27,0,0,1,333,168.75Z"/><rect class="cls-18" x="150.73" y="229.95" width="30.72" height="87.77"/><path class="cls-4" d="M333,134.54h0a3,3,0,0,1,3,3v15.74a0,0,0,0,1,0,0h-6.07a0,0,0,0,1,0,0V137.57A3,3,0,0,1,333,134.54Z"/><rect class="cls-18" x="150.73" y="181.7" width="30.72" height="48.25"/><rect class="cls-18" x="153.11" y="162.7" width="25.97" height="19"/><rect class="cls-18" x="155.8" y="153.51" width="20.58" height="9.18"/><rect class="cls-18" x="158.17" y="129.76" width="15.83" height="23.75"/><polygon class="cls-18" points="172.74 129.76 159.44 129.76 165.23 87.33 166.95 87.33 172.74 129.76"/><path class="cls-4" d="M166.09,243.84h0a5.63,5.63,0,0,1,5.63,5.63v19.58a0,0,0,0,1,0,0H160.46a0,0,0,0,1,0,0V249.47a5.63,5.63,0,0,1,5.63-5.63Z"/><path class="cls-19" d="M166.51,289.24h0a4.35,4.35,0,0,1,4.35,4.35V303a0,0,0,0,1,0,0h-8.71a0,0,0,0,1,0,0v-9.39a4.35,4.35,0,0,1,4.35-4.35Z"/><rect x="162.16" y="274.44" width="2.65" height="7.15"/><rect x="167.38" y="274.57" width="2.65" height="7.15"/><path class="cls-4" d="M166.09,195.55h0a5.63,5.63,0,0,1,5.63,5.63V230a0,0,0,0,1,0,0H160.46a0,0,0,0,1,0,0V201.18a5.63,5.63,0,0,1,5.63-5.63Z"/><path class="cls-4" d="M166.09,168.94h0a3.27,3.27,0,0,1,3.27,3.27v9.48a0,0,0,0,1,0,0h-6.54a0,0,0,0,1,0,0v-9.48a3.27,3.27,0,0,1,3.27-3.27Z"/><path class="cls-4" d="M166.09,134.74h0a3,3,0,0,1,3,3v15.74a0,0,0,0,1,0,0h-6.07a0,0,0,0,1,0,0V137.77A3,3,0,0,1,166.09,134.74Z"/><path class="cls-17" d="M217.21,234.58a7.93,7.93,0,0,0-7.92,7.92v5a7.92,7.92,0,0,1,15.84,0v-5A7.93,7.93,0,0,0,217.21,234.58Z"/><path class="cls-17" d="M238.75,234.58a7.92,7.92,0,0,0-7.92,7.92v5a7.92,7.92,0,0,1,15.83,0v-5A7.92,7.92,0,0,0,238.75,234.58Z"/><path class="cls-17" d="M195.68,234.58a7.93,7.93,0,0,0-7.92,7.92v5a7.92,7.92,0,0,1,15.83,0v-5A7.92,7.92,0,0,0,195.68,234.58Z"/><path class="cls-17" d="M303.35,234.58a7.92,7.92,0,0,0-7.92,7.92v5a7.92,7.92,0,0,1,15.83,0v-5A7.92,7.92,0,0,0,303.35,234.58Z"/><path class="cls-17" d="M281.81,234.58a7.92,7.92,0,0,0-7.91,7.92v5a7.92,7.92,0,0,1,15.83,0v-5A7.93,7.93,0,0,0,281.81,234.58Z"/><path class="cls-17" d="M260.28,234.58h0a7.93,7.93,0,0,0-7.92,7.92v5a7.92,7.92,0,0,1,7.92-7.91h0a7.92,7.92,0,0,1,7.92,7.91v-5A7.93,7.93,0,0,0,260.28,234.58Z"/><path class="cls-17" d="M114.3,282.26h0a7.92,7.92,0,0,0-7.92,7.91v6a7.93,7.93,0,0,1,7.92-7.92h0a7.93,7.93,0,0,1,7.92,7.92v-6A7.92,7.92,0,0,0,114.3,282.26Z"/><path class="cls-17" d="M134.08,282.26a7.91,7.91,0,0,0-7.92,7.91v6a7.92,7.92,0,1,1,15.83,0v-6A7.91,7.91,0,0,0,134.08,282.26Z"/><path class="cls-17" d="M365,282.26h0a7.92,7.92,0,0,0-7.92,7.91v6a7.93,7.93,0,0,1,7.92-7.92h0a7.93,7.93,0,0,1,7.92,7.92v-6A7.92,7.92,0,0,0,365,282.26Z"/><path class="cls-17" d="M384.73,282.26a7.91,7.91,0,0,0-7.92,7.91v6a7.92,7.92,0,1,1,15.83,0v-6A7.91,7.91,0,0,0,384.73,282.26Z"/><path class="cls-19" d="M328.61,303v-9.39a4.35,4.35,0,0,1,4.35-4.35h0a4.35,4.35,0,0,1,4.36,4.35V303"/><line class="cls-17" x1="389.68" y1="70.24" x2="389.68" y2="92.57"/></svg>