<svg id="Layer_1" data-name="Layer 1" xmlns="http://www.w3.org/2000/svg" xmlns:xlink="http://www.w3.org/1999/xlink" viewBox="0 0 500 500"><defs><style>.cls-1,.cls-10,.cls-11,.cls-12,.cls-15,.cls-4,.cls-6{fill:none;}.cls-16,.cls-2{fill:#15357a;}.cls-22,.cls-25,.cls-3,.cls-5{fill:#fff;}.cls-10,.cls-11,.cls-12,.cls-16,.cls-17,.cls-4,.cls-7{stroke:#fff;}.cls-10,.cls-16,.cls-17,.cls-19,.cls-21,.cls-22,.cls-4,.cls-6{stroke-width:1.13px;}.cls-21,.cls-22,.cls-5,.cls-6,.cls-8{stroke:#000;}.cls-10,.cls-11,.cls-12,.cls-16,.cls-17,.cls-19,.cls-21,.cls-22,.cls-5,.cls-7,.cls-8{stroke-miterlimit:10;}.cls-15,.cls-6{stroke-linecap:round;stroke-linejoin:round;}.cls-17,.cls-23,.cls-7,.cls-8{fill:#9bcdfb;}.cls-7{stroke-width:1.13px;}.cls-8{stroke-width:0.74px;}.cls-9{clip-path:url(#clip-path);}.cls-11{stroke-width:1.3px;}.cls-12{stroke-width:1px;}.cls-13{clip-path:url(#clip-path-2);}.cls-14{fill:#519af4;}.cls-15{stroke:#231f20;stroke-width:0.93px;}.cls-18{clip-path:url(#clip-path-3);}.cls-19{fill:#ffc664;stroke:#01090f;}.cls-20{clip-path:url(#clip-path-4);}.cls-21{fill:#c3e1fd;}.cls-24{fill:#2c71f0;}.cls-25{opacity:0.25;}</style><clipPath id="clip-path"><path class="cls-1" d="M374.4,158.58l-2.8-47.88,22.95-25h-83l22.95,25-2.8,47.88a64.14,64.14,0,1,0,42.67,0Z"/></clipPath><clipPath id="clip-path-2"><rect class="cls-1" x="75.74" y="284.12" width="348.2" height="62"/></clipPath><clipPath id="clip-path-3"><path class="cls-1" d="M148.51,294.74a71.83,71.83,0,0,0-15.54,2.1L75.52,311.12v31.52H110.3v0a40,40,0,0,1,38.18-40Z"/></clipPath><clipPath id="clip-path-4"><polygon class="cls-1" points="351.25 187.73 324.2 187.73 324.2 204.82 305.68 204.82 305.68 187.73 258.95 187.73 258.95 204.82 244.23 204.82 244.23 187.73 197.5 187.73 197.5 204.82 197.5 204.82 197.5 224.29 146.59 224.29 146.59 340.46 351.09 340.46 351.09 218.76 351.25 218.76 351.25 187.73"/></clipPath></defs><rect class="cls-2" x="-5.23" y="-5.23" width="510.46" height="510.46"/><path class="cls-3" d="M151.84,373.1h-4a12.81,12.81,0,0,0-4.52-7.48,13.24,13.24,0,0,0-4-2.22,14.37,14.37,0,0,0-4.79-.79,13.78,13.78,0,0,0-7.54,2.16,15.11,15.11,0,0,0-5.43,6.31,26.72,26.72,0,0,0,0,20.43A15,15,0,0,0,127,397.8a13.85,13.85,0,0,0,7.54,2.14,14.37,14.37,0,0,0,4.79-.78,13.21,13.21,0,0,0,4-2.21,12.67,12.67,0,0,0,2.91-3.33,13,13,0,0,0,1.61-4.16h4a17.2,17.2,0,0,1-2,5.59,16.87,16.87,0,0,1-3.7,4.53,17.09,17.09,0,0,1-5.17,3,18.39,18.39,0,0,1-6.41,1.08,17.54,17.54,0,0,1-9.76-2.76,18.57,18.57,0,0,1-6.68-7.78,30.32,30.32,0,0,1,0-23.74,18.66,18.66,0,0,1,6.68-7.79,17.54,17.54,0,0,1,9.76-2.76,18.39,18.39,0,0,1,6.41,1.08,16.69,16.69,0,0,1,5.17,3,17.17,17.17,0,0,1,5.69,10.13Z"/><path class="cls-3" d="M163.13,359.46h4.6l12.93,20.71h.39L194,359.46h4.6L182.84,384.2v18.9h-4V384.2Z"/><path class="cls-3" d="M212.08,403.1V359.46h14.09a15.44,15.44,0,0,1,7.76,1.78,11.71,11.71,0,0,1,4.71,4.83,14.58,14.58,0,0,1,1.59,6.86,14.79,14.79,0,0,1-1.58,6.87,11.58,11.58,0,0,1-4.68,4.83,15.39,15.39,0,0,1-7.74,1.78H215.15v-3.58h11a11.43,11.43,0,0,0,5.69-1.28,8.27,8.27,0,0,0,3.38-3.53,12.15,12.15,0,0,0,0-10.19,8.14,8.14,0,0,0-3.39-3.51,11.58,11.58,0,0,0-5.74-1.28h-10V403.1Z"/><path class="cls-3" d="M255.6,403.1V359.46h14.09a16.35,16.35,0,0,1,7.76,1.67,11.25,11.25,0,0,1,4.71,4.63,14,14,0,0,1,1.59,6.76,13.83,13.83,0,0,1-1.59,6.73,11,11,0,0,1-4.7,4.56,16.29,16.29,0,0,1-7.71,1.65h-12v-3.65h11.89a12.56,12.56,0,0,0,5.67-1.13,7.41,7.41,0,0,0,3.39-3.22,10.24,10.24,0,0,0,1.12-4.94,10.56,10.56,0,0,0-1.13-5,7.69,7.69,0,0,0-3.4-3.32,12.41,12.41,0,0,0-5.72-1.17h-10V403.1Zm19.24-19.69,10.74,19.69H281l-10.63-19.69Z"/><path class="cls-3" d="M328.55,359.46h4v28.89a15.27,15.27,0,0,1-2.08,8,14.85,14.85,0,0,1-5.81,5.52,19.51,19.51,0,0,1-17.27,0,15,15,0,0,1-5.82-5.52,15.21,15.21,0,0,1-2.08-7.95V359.46h4v28.62a12.24,12.24,0,0,0,1.56,6.19,11.08,11.08,0,0,0,4.37,4.27,14.93,14.93,0,0,0,13.25,0,11,11,0,0,0,4.37-4.27,12.34,12.34,0,0,0,1.55-6.19Z"/><path class="cls-3" d="M373.82,370.37a8,8,0,0,0-3.22-5.8,11.62,11.62,0,0,0-7.18-2.15,12.85,12.85,0,0,0-5.36,1.05,8.72,8.72,0,0,0-3.62,2.88,7.09,7.09,0,0,0-1.31,4.19,6.07,6.07,0,0,0,.74,3,7.22,7.22,0,0,0,2,2.22,13.93,13.93,0,0,0,2.81,1.59,26.4,26.4,0,0,0,3.12,1.11l4.6,1.32a31.07,31.07,0,0,1,4.18,1.47,17.3,17.3,0,0,1,3.82,2.25,10.49,10.49,0,0,1,2.8,3.3,9.74,9.74,0,0,1,1,4.68,11.25,11.25,0,0,1-1.81,6.28,12.41,12.41,0,0,1-5.2,4.42,21,21,0,0,1-15.85.15,12.4,12.4,0,0,1-5.16-4.1,11.6,11.6,0,0,1-2.11-6.07h4.09a7.66,7.66,0,0,0,1.71,4.37,9.29,9.29,0,0,0,3.88,2.71A15.79,15.79,0,0,0,369,399.1a9.45,9.45,0,0,0,4-3.07,7.44,7.44,0,0,0,1.46-4.59,6,6,0,0,0-1.15-3.72,8.89,8.89,0,0,0-3.2-2.52,28.36,28.36,0,0,0-4.77-1.81l-5.22-1.54a19.22,19.22,0,0,1-8-4.24,9.12,9.12,0,0,1-2.84-6.9,10.46,10.46,0,0,1,1.89-6.19,12.57,12.57,0,0,1,5.11-4.17,16.87,16.87,0,0,1,7.26-1.51,16.63,16.63,0,0,1,7.2,1.49,12.6,12.6,0,0,1,5,4.11,10.71,10.71,0,0,1,2,5.93Z"/><rect class="cls-4" x="74.72" y="342.87" width="349.8" height="83.25"/><path class="cls-5" d="M201.22,85.65H181.07a11.76,11.76,0,0,0-11.68-10.34H153.61A11.77,11.77,0,0,0,141.93,65h-18a11.77,11.77,0,0,0-11.77,11.77v8.92H100.9A11.77,11.77,0,0,0,89.13,97.42v2.26H213V97.42a11.77,11.77,0,0,0-11.77-11.77"/><path class="cls-6" d="M201.22,85.65H181.07a11.76,11.76,0,0,0-11.68-10.34H153.61A11.77,11.77,0,0,0,141.93,65h-18a11.77,11.77,0,0,0-11.77,11.77v8.92H100.9A11.77,11.77,0,0,0,89.13,97.42v2.26H213V97.42A11.77,11.77,0,0,0,201.22,85.65Z"/><line class="cls-5" x1="181.07" y1="85.65" x2="168.81" y2="85.65"/><line class="cls-6" x1="181.07" y1="85.65" x2="168.81" y2="85.65"/><line class="cls-5" x1="153.61" y1="75.31" x2="138.01" y2="75.31"/><line class="cls-6" x1="153.61" y1="75.31" x2="138.01" y2="75.31"/><line class="cls-5" x1="112.16" y1="85.65" x2="126.06" y2="85.65"/><line class="cls-6" x1="112.16" y1="85.65" x2="126.06" y2="85.65"/><path class="cls-5" d="M238.76,113.81h20.15a11.76,11.76,0,0,1,11.68-10.34h15.79a11.76,11.76,0,0,1,11.67-10.35h18a11.77,11.77,0,0,1,11.77,11.77v8.92h11.26a11.77,11.77,0,0,1,11.77,11.77v2.26H227v-2.26a11.77,11.77,0,0,1,11.77-11.77"/><path class="cls-6" d="M238.76,113.81h20.15a11.76,11.76,0,0,1,11.68-10.34h15.79a11.76,11.76,0,0,1,11.67-10.35h18a11.77,11.77,0,0,1,11.77,11.77v8.92h11.26a11.77,11.77,0,0,1,11.77,11.77v2.26H227v-2.26A11.77,11.77,0,0,1,238.76,113.81Z"/><line class="cls-5" x1="258.91" y1="113.81" x2="271.17" y2="113.81"/><line class="cls-6" x1="258.91" y1="113.81" x2="271.17" y2="113.81"/><line class="cls-5" x1="286.38" y1="103.47" x2="301.97" y2="103.47"/><line class="cls-6" x1="286.38" y1="103.47" x2="301.97" y2="103.47"/><line class="cls-5" x1="327.82" y1="113.81" x2="313.92" y2="113.81"/><line class="cls-6" x1="327.82" y1="113.81" x2="313.92" y2="113.81"/><path class="cls-7" d="M353.06,50h0a71.46,71.46,0,0,1,71.46,71.46V284.23a0,0,0,0,1,0,0H281.61a0,0,0,0,1,0,0V121.5A71.46,71.46,0,0,1,353.06,50Z"/><rect class="cls-8" x="74.72" y="283.68" width="350.26" height="60.15"/><path class="cls-2" d="M353.06,282.66a63.59,63.59,0,0,1-21.14-123.55l.35-.12,2.83-48.5L312.86,86.25h80.41L371,110.49l2.84,48.5.35.12a63.59,63.59,0,0,1-21.15,123.55Z"/><path class="cls-3" d="M392,86.81l-21.22,23.13-.32.35,0,.47,2.79,47.89.05.74.7.25a63,63,0,1,1-41.92,0l.71-.25,0-.74,2.8-47.89,0-.47-.32-.35L314.14,86.81H392m2.56-1.12h-83l22.95,25-2.8,47.88a64.14,64.14,0,1,0,42.67,0l-2.8-47.88,22.95-25Z"/><path class="cls-3" d="M353.12,87.33c-20.7,0-36.41-.8-40.37-1.64,4-.84,19.67-1.65,40.37-1.65s36.41.81,40.37,1.65C389.53,86.53,373.83,87.33,353.12,87.33Z"/><path class="cls-3" d="M353.12,84.61c18.31,0,29.71.54,35.72,1.08-6,.54-17.41,1.08-35.72,1.08s-29.71-.54-35.72-1.08c6-.54,17.41-1.08,35.72-1.08m0-1.13c-23,0-41.7,1-41.7,2.21s18.67,2.2,41.7,2.2,41.7-1,41.7-2.2-18.67-2.21-41.7-2.21Z"/><g class="cls-9"><line class="cls-10" x1="332.44" y1="154.13" x2="373.69" y2="154.13"/><line class="cls-10" x1="332.44" y1="150.4" x2="373.69" y2="150.4"/><line class="cls-10" x1="332.44" y1="146.66" x2="373.69" y2="146.66"/><line class="cls-10" x1="332.44" y1="142.92" x2="373.69" y2="142.92"/><line class="cls-10" x1="332.44" y1="139.18" x2="373.69" y2="139.18"/><line class="cls-10" x1="332.44" y1="135.44" x2="373.69" y2="135.44"/><line class="cls-10" x1="333.84" y1="122.46" x2="372.32" y2="122.46"/><line class="cls-10" x1="333.88" y1="119.36" x2="372.36" y2="119.36"/><line class="cls-10" x1="333.88" y1="116.27" x2="372.36" y2="116.27"/><line class="cls-10" x1="333.88" y1="113.39" x2="372.36" y2="113.39"/><line class="cls-10" x1="309.15" y1="172.12" x2="396.64" y2="172.12"/><line class="cls-10" x1="306.22" y1="175.28" x2="399.91" y2="175.28"/><line class="cls-10" x1="302.02" y1="178.43" x2="404.11" y2="178.43"/><rect class="cls-10" x="339.95" y="191.84" width="28.75" height="28.75" transform="translate(249.6 -190.14) rotate(45)"/><rect class="cls-10" x="342.22" y="194.12" width="24.21" height="24.21" transform="translate(750.69 101.5) rotate(135)"/><rect class="cls-10" x="344.49" y="196.39" width="19.66" height="19.66" transform="translate(750.69 101.5) rotate(135)"/><rect class="cls-10" x="346.76" y="198.66" width="15.12" height="15.12" transform="translate(750.69 101.5) rotate(135)"/><rect class="cls-10" x="289.16" y="191.84" width="28.75" height="28.75" transform="translate(234.72 -154.23) rotate(45)"/><rect class="cls-10" x="291.43" y="194.12" width="24.21" height="24.21" transform="translate(663.99 137.41) rotate(135)"/><rect class="cls-10" x="293.7" y="196.39" width="19.66" height="19.66" transform="translate(663.99 137.41) rotate(135)"/><rect class="cls-10" x="295.97" y="198.66" width="15.12" height="15.12" transform="translate(663.99 137.41) rotate(135)"/><rect class="cls-10" x="390.74" y="191.84" width="28.75" height="28.75" transform="translate(264.47 -226.06) rotate(45)"/><rect class="cls-10" x="393.01" y="194.12" width="24.21" height="24.21" transform="translate(837.39 65.58) rotate(135)"/><rect class="cls-10" x="395.28" y="196.39" width="19.66" height="19.66" transform="translate(837.39 65.59) rotate(135)"/><rect class="cls-10" x="397.55" y="198.66" width="15.12" height="15.12" transform="translate(837.39 65.59) rotate(135)"/><line class="cls-10" x1="290.54" y1="206.22" x2="415.8" y2="206.22"/><line class="cls-10" x1="291.51" y1="237.16" x2="414.62" y2="237.16"/><line class="cls-10" x1="292.18" y1="239.31" x2="413.46" y2="239.31"/><line class="cls-10" x1="303.53" y1="259.8" x2="402.49" y2="259.8"/><line class="cls-10" x1="305.56" y1="262.18" x2="399.91" y2="262.18"/><line class="cls-10" x1="307.75" y1="264.48" x2="398.37" y2="264.48"/></g><path class="cls-3" d="M392.28,86.69,370.86,110l-.28.31,0,.43,2.8,47.88,0,.66.62.22a63.14,63.14,0,1,1-42,0l.63-.22,0-.66,2.79-47.88,0-.43-.29-.31L313.85,86.69h78.43m2.27-1h-83l22.95,25-2.8,47.88a64.14,64.14,0,1,0,42.67,0l-2.8-47.88,22.95-25Z"/><rect class="cls-11" x="92.76" y="142.77" width="188.85" height="141.73"/><rect class="cls-12" x="74.72" y="283.68" width="349.8" height="60.15"/><g class="cls-13"><path class="cls-14" d="M117.35,311.72c-5.38,11-22.51,11.06-27.87,0-5.39,11-22.51,11.06-27.88,0"/><path class="cls-14" d="M201,311.72a15.45,15.45,0,0,1-27.87,0,15.45,15.45,0,0,1-27.87,0,15.45,15.45,0,0,1-27.87,0"/><path class="cls-14" d="M256.64,311.72a15.45,15.45,0,0,1-27.87,0,15.45,15.45,0,0,1-27.87,0"/><path class="cls-14" d="M117.35,330.59c-5.38,11-22.51,11.07-27.87,0-5.39,11-22.51,11.07-27.88,0"/><path class="cls-14" d="M201,330.59a15.45,15.45,0,0,1-27.87,0,15.45,15.45,0,0,1-27.87,0,15.45,15.45,0,0,1-27.87,0"/><path class="cls-14" d="M256.64,330.59a15.45,15.45,0,0,1-27.87,0,15.45,15.45,0,0,1-27.87,0"/><path class="cls-14" d="M117.35,293c-5.38,11-22.51,11.07-27.87,0C84.09,304,67,304.07,61.6,293"/><path class="cls-14" d="M201,293a15.45,15.45,0,0,1-27.87,0,15.45,15.45,0,0,1-27.87,0,15.45,15.45,0,0,1-27.87,0"/><path class="cls-14" d="M256.64,293a15.45,15.45,0,0,1-27.87,0,15.45,15.45,0,0,1-27.87,0"/><path class="cls-14" d="M215.8,302.36c5.56,11.48,22.3,11.45,27.87,0a15.63,15.63,0,0,0,13,8.75v-8.75"/><path class="cls-14" d="M215.8,302.36a15.46,15.46,0,0,1-27.88,0,15.45,15.45,0,0,1-27.87,0,15.45,15.45,0,0,1-27.87,0"/><path class="cls-14" d="M132.18,302.36a15.45,15.45,0,0,1-27.87,0,15.45,15.45,0,0,1-27.87,0"/><path class="cls-14" d="M215.8,284.39c5.56,11.48,22.3,11.46,27.87,0a15.61,15.61,0,0,0,13,8.75v-8.75"/><path class="cls-14" d="M215.8,284.39a15.46,15.46,0,0,1-27.88,0,15.45,15.45,0,0,1-27.87,0,15.45,15.45,0,0,1-27.87,0"/><path class="cls-14" d="M132.18,284.39a15.45,15.45,0,0,1-27.87,0,15.45,15.45,0,0,1-27.87,0"/><path class="cls-14" d="M215.8,321.33c5.56,11.48,22.3,11.46,27.87,0a15.61,15.61,0,0,0,13,8.75v-8.75"/><path class="cls-14" d="M215.8,321.33a15.46,15.46,0,0,1-27.88,0,15.45,15.45,0,0,1-27.87,0,15.45,15.45,0,0,1-27.87,0"/><path class="cls-14" d="M132.18,321.33a15.45,15.45,0,0,1-27.87,0,15.45,15.45,0,0,1-27.87,0"/><path class="cls-15" d="M117.32,314.59c-5.39,11-22.51,11.06-27.88,0-5.38,11-22.5,11.06-27.87,0"/><path class="cls-15" d="M200.93,314.59a15.45,15.45,0,0,1-27.87,0,15.49,15.49,0,0,1-27.87.11,15.49,15.49,0,0,1-27.87-.11"/><path class="cls-15" d="M256.61,314.59a15.45,15.45,0,0,1-27.87,0,15.46,15.46,0,0,1-27.88,0"/><path class="cls-15" d="M117.32,333.46c-5.39,11-22.51,11.07-27.88,0-5.38,11-22.5,11.07-27.87,0"/><path class="cls-15" d="M200.93,333.46a15.45,15.45,0,0,1-27.87,0,15.49,15.49,0,0,1-27.87.11,15.49,15.49,0,0,1-27.87-.11"/><path class="cls-15" d="M256.61,333.46a15.45,15.45,0,0,1-27.87,0,15.46,15.46,0,0,1-27.88,0"/><path class="cls-15" d="M117.32,295.87c-5.39,11-22.51,11.07-27.88,0-5.38,11-22.5,11.07-27.87,0"/><path class="cls-15" d="M200.93,295.87a15.45,15.45,0,0,1-27.87,0,15.49,15.49,0,0,1-27.87.11,15.49,15.49,0,0,1-27.87-.11"/><path class="cls-15" d="M256.61,295.87a15.45,15.45,0,0,1-27.87,0,15.46,15.46,0,0,1-27.88,0"/><path class="cls-15" d="M256.61,314a15.65,15.65,0,0,1-13-8.75c-5.56,11.45-22.31,11.48-27.87,0"/><path class="cls-15" d="M215.76,305.23a15.45,15.45,0,0,1-27.87,0,15.49,15.49,0,0,1-27.87.11,15.49,15.49,0,0,1-27.87-.11"/><path class="cls-15" d="M132.15,305.23a15.46,15.46,0,0,1-27.88,0,15.45,15.45,0,0,1-27.87,0"/><path class="cls-15" d="M215.76,287.26c5.56,11.48,22.31,11.46,27.87,0a15.63,15.63,0,0,0,13,8.75"/><path class="cls-15" d="M215.76,287.26a15.45,15.45,0,0,1-27.87,0,15.49,15.49,0,0,1-27.87.11,15.49,15.49,0,0,1-27.87-.11"/><path class="cls-15" d="M132.15,287.26a15.46,15.46,0,0,1-27.88,0,15.45,15.45,0,0,1-27.87,0"/><path class="cls-15" d="M256.61,333a15.65,15.65,0,0,1-13-8.75c-5.56,11.45-22.31,11.48-27.87,0"/><path class="cls-15" d="M215.76,324.2a15.45,15.45,0,0,1-27.87,0,15.49,15.49,0,0,1-27.87.11,15.49,15.49,0,0,1-27.87-.11"/><path class="cls-15" d="M132.15,324.2a15.46,15.46,0,0,1-27.88,0,15.45,15.45,0,0,1-27.87,0"/><path class="cls-14" d="M395.94,311.72c5.38,11,22.5,11.06,27.87,0,5.38,11,22.5,11.06,27.87,0"/><path class="cls-14" d="M312.32,311.72a15.45,15.45,0,0,0,27.87,0,15.45,15.45,0,0,0,27.87,0,15.46,15.46,0,0,0,27.88,0"/><path class="cls-14" d="M256.64,311.72a15.45,15.45,0,0,0,27.87,0,15.46,15.46,0,0,0,27.88,0"/><path class="cls-14" d="M395.94,330.59c5.38,11,22.5,11.07,27.87,0,5.38,11,22.5,11.07,27.87,0"/><path class="cls-14" d="M312.32,330.59a15.45,15.45,0,0,0,27.87,0,15.45,15.45,0,0,0,27.87,0,15.46,15.46,0,0,0,27.88,0"/><path class="cls-14" d="M256.64,330.59a15.45,15.45,0,0,0,27.87,0,15.46,15.46,0,0,0,27.88,0"/><path class="cls-14" d="M395.94,293c5.38,11,22.5,11.07,27.87,0,5.38,11,22.5,11.07,27.87,0"/><path class="cls-14" d="M312.32,293a15.45,15.45,0,0,0,27.87,0,15.45,15.45,0,0,0,27.87,0,15.46,15.46,0,0,0,27.88,0"/><path class="cls-14" d="M256.64,293a15.45,15.45,0,0,0,27.87,0,15.46,15.46,0,0,0,27.88,0"/><path class="cls-14" d="M297.49,302.36c-5.56,11.48-22.31,11.45-27.87,0a15.65,15.65,0,0,1-13,8.75v-8.75"/><path class="cls-14" d="M297.49,302.36a15.45,15.45,0,0,0,27.87,0,15.45,15.45,0,0,0,27.87,0,15.45,15.45,0,0,0,27.87,0"/><path class="cls-14" d="M381.1,302.36a15.46,15.46,0,0,0,27.88,0,15.45,15.45,0,0,0,27.87,0"/><path class="cls-14" d="M297.49,284.39c-5.56,11.48-22.31,11.46-27.87,0a15.63,15.63,0,0,1-13,8.75v-8.75"/><path class="cls-14" d="M297.49,284.39a15.45,15.45,0,0,0,27.87,0,15.45,15.45,0,0,0,27.87,0,15.45,15.45,0,0,0,27.87,0"/><path class="cls-14" d="M381.1,284.39a15.46,15.46,0,0,0,27.88,0,15.45,15.45,0,0,0,27.87,0"/><path class="cls-14" d="M297.49,321.33c-5.56,11.48-22.31,11.46-27.87,0a15.63,15.63,0,0,1-13,8.75v-8.75"/><path class="cls-14" d="M297.49,321.33a15.45,15.45,0,0,0,27.87,0,15.45,15.45,0,0,0,27.87,0,15.45,15.45,0,0,0,27.87,0"/><path class="cls-14" d="M381.1,321.33a15.46,15.46,0,0,0,27.88,0,15.45,15.45,0,0,0,27.87,0"/><path class="cls-15" d="M396,314.59c5.38,11,22.5,11.06,27.87,0,5.38,11,22.51,11.06,27.87,0"/><path class="cls-15" d="M312.35,314.59a15.5,15.5,0,0,0,27.88.11,15.49,15.49,0,0,0,27.87-.11,15.45,15.45,0,0,0,27.87,0"/><path class="cls-15" d="M256.68,314.59a15.45,15.45,0,0,0,27.87,0,15.45,15.45,0,0,0,27.87,0"/><path class="cls-15" d="M396,333.46c5.38,11,22.5,11.07,27.87,0,5.38,11,22.51,11.07,27.87,0"/><path class="cls-15" d="M312.35,333.46a15.5,15.5,0,0,0,27.88.11,15.49,15.49,0,0,0,27.87-.11,15.45,15.45,0,0,0,27.87,0"/><path class="cls-15" d="M256.68,333.46a15.45,15.45,0,0,0,27.87,0,15.45,15.45,0,0,0,27.87,0"/><path class="cls-15" d="M396,295.87c5.38,11,22.5,11.07,27.87,0,5.38,11,22.51,11.07,27.87,0"/><path class="cls-15" d="M312.35,295.87a15.5,15.5,0,0,0,27.88.11,15.49,15.49,0,0,0,27.87-.11,15.45,15.45,0,0,0,27.87,0"/><path class="cls-15" d="M256.68,295.87a15.45,15.45,0,0,0,27.87,0,15.45,15.45,0,0,0,27.87,0"/><path class="cls-15" d="M256.68,314a15.65,15.65,0,0,0,13-8.75c5.57,11.45,22.31,11.48,27.87,0"/><path class="cls-15" d="M297.52,305.23a15.49,15.49,0,0,0,27.87.11,15.5,15.5,0,0,0,27.88-.11,15.45,15.45,0,0,0,27.87,0"/><path class="cls-15" d="M381.14,305.23a15.45,15.45,0,0,0,27.87,0,15.45,15.45,0,0,0,27.87,0"/><path class="cls-15" d="M297.52,287.26c-5.56,11.48-22.3,11.46-27.87,0a15.63,15.63,0,0,1-13,8.75"/><path class="cls-15" d="M297.52,287.26a15.49,15.49,0,0,0,27.87.11A15.4,15.4,0,0,0,339.33,296c6.7,0,10.86-2.42,13.94-8.78a15.45,15.45,0,0,0,27.87,0"/><path class="cls-15" d="M381.14,287.26a15.45,15.45,0,0,0,27.87,0,15.45,15.45,0,0,0,27.87,0"/><path class="cls-15" d="M256.68,333a15.65,15.65,0,0,0,13-8.75c5.57,11.45,22.31,11.48,27.87,0"/><path class="cls-15" d="M297.52,324.2a15.49,15.49,0,0,0,27.87.11,15.5,15.5,0,0,0,27.88-.11,15.45,15.45,0,0,0,27.87,0"/><path class="cls-15" d="M381.14,324.2a15.45,15.45,0,0,0,27.87,0,15.45,15.45,0,0,0,27.87,0"/></g><rect class="cls-2" x="109.52" y="303.22" width="47.06" height="39.65"/><path class="cls-16" d="M199.2,282a5.32,5.32,0,0,0,4.05-4.55c1.62-13.61,6.87-61.34,3.67-84-3.75-26.61-11.62-37.48-17.24-50.6s-7.87-27-8.25-43.86-.75-24-.75-24h-21.1s-.37,7.12-.75,24-2.62,30.74-8.25,43.86-13.49,24-17.24,50.6c-3.19,22.69,2,70.42,3.67,84a5.32,5.32,0,0,0,4.05,4.55h0a126.06,126.06,0,0,0,58.14,0Z"/><path class="cls-17" d="M203.68,193.83c-2.85-20.22-8-30.81-13-41.06-1.43-3-2.78-5.74-4.06-8.71-4.28-10-6.81-20.68-7.91-33.64H161.5c-1.1,13-3.63,23.65-7.91,33.64-1.27,3-2.62,5.76-4.05,8.71-5,10.25-10.11,20.84-13,41.06-3.13,22.21,2,69.28,3.68,83.18a2.06,2.06,0,0,0,1.56,1.75,122.36,122.36,0,0,0,56.62,0A2.06,2.06,0,0,0,200,277C201.66,263.11,206.81,216,203.68,193.83Z"/><path class="cls-16" d="M181.76,65.8a5.47,5.47,0,0,0-3.55-9.64H162.05a5.47,5.47,0,0,0-3.54,9.64,5.09,5.09,0,0,0-1.93,4h0a5.12,5.12,0,0,0,5.12,5.12h16.87a5.12,5.12,0,0,0,5.12-5.12h0A5.12,5.12,0,0,0,181.76,65.8Z"/><path class="cls-16" d="M164.13,48.93h12a4.12,4.12,0,0,1,4.12,4.12v3.11a0,0,0,0,1,0,0H160a0,0,0,0,1,0,0V53.05A4.12,4.12,0,0,1,164.13,48.93Z"/><line class="cls-16" x1="181.17" y1="65.9" x2="158.93" y2="65.9"/><g class="cls-18"><rect class="cls-19" x="76.06" y="338.34" width="9.56" height="4.39"/><rect class="cls-19" x="85.62" y="338.34" width="9.56" height="4.39"/><rect class="cls-19" x="95.18" y="338.34" width="9.56" height="4.39"/><rect class="cls-19" x="104.74" y="338.34" width="9.56" height="4.39"/><rect class="cls-19" x="114.37" y="338.34" width="9.56" height="4.39"/><rect class="cls-19" x="123.93" y="338.34" width="9.56" height="4.39"/><rect class="cls-19" x="133.49" y="338.34" width="9.56" height="4.39"/><rect class="cls-19" x="143.05" y="338.34" width="5.46" height="4.39"/><rect class="cls-19" x="71.28" y="333.95" width="9.56" height="4.39"/><rect class="cls-19" x="80.84" y="333.95" width="9.56" height="4.39"/><rect class="cls-19" x="90.4" y="333.95" width="9.56" height="4.39"/><rect class="cls-19" x="99.96" y="333.95" width="9.56" height="4.39"/><rect class="cls-19" x="109.59" y="333.95" width="9.56" height="4.39"/><rect class="cls-19" x="119.15" y="333.95" width="9.56" height="4.39"/><rect class="cls-19" x="128.71" y="333.95" width="9.56" height="4.39"/><rect class="cls-19" x="138.27" y="333.95" width="9.56" height="4.39"/><rect class="cls-19" x="147.83" y="333.95" width="0.68" height="4.39"/><rect class="cls-19" x="76.06" y="329.56" width="9.56" height="4.39"/><rect class="cls-19" x="85.62" y="329.56" width="9.56" height="4.39"/><rect class="cls-19" x="95.18" y="329.56" width="9.56" height="4.39"/><rect class="cls-19" x="104.74" y="329.56" width="9.56" height="4.39"/><rect class="cls-19" x="114.37" y="329.56" width="9.56" height="4.39"/><rect class="cls-19" x="123.93" y="329.56" width="9.56" height="4.39"/><rect class="cls-19" x="133.49" y="329.56" width="9.56" height="4.39"/><rect class="cls-19" x="143.05" y="329.56" width="5.46" height="4.39"/><rect class="cls-19" x="71.28" y="325.17" width="9.56" height="4.39"/><rect class="cls-19" x="80.84" y="325.17" width="9.56" height="4.39"/><rect class="cls-19" x="90.4" y="325.17" width="9.56" height="4.39"/><rect class="cls-19" x="99.96" y="325.17" width="9.56" height="4.39"/><rect class="cls-19" x="109.59" y="325.17" width="9.56" height="4.39"/><rect class="cls-19" x="119.15" y="325.17" width="9.56" height="4.39"/><rect class="cls-19" x="128.71" y="325.17" width="9.56" height="4.39"/><rect class="cls-19" x="138.27" y="325.17" width="9.56" height="4.39"/><rect class="cls-19" x="147.83" y="325.17" width="0.68" height="4.39"/><rect class="cls-19" x="76.06" y="320.78" width="9.56" height="4.39"/><rect class="cls-19" x="85.62" y="320.78" width="9.56" height="4.39"/><rect class="cls-19" x="95.18" y="320.78" width="9.56" height="4.39"/><rect class="cls-19" x="104.74" y="320.78" width="9.56" height="4.39"/><rect class="cls-19" x="114.37" y="320.78" width="9.56" height="4.39"/><rect class="cls-19" x="123.93" y="320.78" width="9.56" height="4.39"/><rect class="cls-19" x="133.49" y="320.78" width="9.56" height="4.39"/><rect class="cls-19" x="143.05" y="320.78" width="5.46" height="4.39"/><rect class="cls-19" x="71.28" y="316.39" width="9.56" height="4.39"/><rect class="cls-19" x="80.84" y="316.39" width="9.56" height="4.39"/><rect class="cls-19" x="90.4" y="316.39" width="9.56" height="4.39"/><rect class="cls-19" x="99.96" y="316.39" width="9.56" height="4.39"/><rect class="cls-19" x="109.59" y="316.39" width="9.56" height="4.39"/><rect class="cls-19" x="119.15" y="316.39" width="9.56" height="4.39"/><rect class="cls-19" x="128.71" y="316.39" width="9.56" height="4.39"/><rect class="cls-19" x="138.27" y="316.39" width="9.56" height="4.39"/><rect class="cls-19" x="147.83" y="316.39" width="0.68" height="4.39"/><rect class="cls-19" x="76.06" y="312" width="9.56" height="4.39"/><rect class="cls-19" x="85.62" y="312" width="9.56" height="4.39"/><rect class="cls-19" x="95.18" y="312" width="9.56" height="4.39"/><rect class="cls-19" x="104.74" y="312" width="9.56" height="4.39"/><rect class="cls-19" x="114.37" y="312" width="9.56" height="4.39"/><rect class="cls-19" x="123.93" y="312" width="9.56" height="4.39"/><rect class="cls-19" x="133.49" y="312" width="9.56" height="4.39"/><rect class="cls-19" x="143.05" y="312" width="5.46" height="4.39"/><rect class="cls-19" x="71.28" y="307.61" width="9.56" height="4.39"/><rect class="cls-19" x="80.84" y="307.61" width="9.56" height="4.39"/><rect class="cls-19" x="90.4" y="307.61" width="9.56" height="4.39"/><rect class="cls-19" x="99.96" y="307.61" width="9.56" height="4.39"/><rect class="cls-19" x="109.59" y="307.61" width="9.56" height="4.39"/><rect class="cls-19" x="119.15" y="307.61" width="9.56" height="4.39"/><rect class="cls-19" x="128.71" y="307.61" width="9.56" height="4.39"/><rect class="cls-19" x="138.27" y="307.61" width="9.56" height="4.39"/><rect class="cls-19" x="147.83" y="307.61" width="0.68" height="4.39"/><rect class="cls-19" x="76.06" y="303.22" width="9.56" height="4.39"/><rect class="cls-19" x="85.62" y="303.22" width="9.56" height="4.39"/><rect class="cls-19" x="95.18" y="303.22" width="9.56" height="4.39"/><rect class="cls-19" x="104.74" y="303.22" width="9.56" height="4.39"/><rect class="cls-19" x="114.37" y="303.22" width="9.56" height="4.39"/><rect class="cls-19" x="123.93" y="303.22" width="9.56" height="4.39"/><rect class="cls-19" x="133.49" y="303.22" width="9.56" height="4.39"/><rect class="cls-19" x="143.05" y="303.22" width="5.46" height="4.39"/><rect class="cls-19" x="71.28" y="298.82" width="9.56" height="4.39"/><rect class="cls-19" x="80.84" y="298.82" width="9.56" height="4.39"/><rect class="cls-19" x="90.4" y="298.82" width="9.56" height="4.39"/><rect class="cls-19" x="99.96" y="298.82" width="9.56" height="4.39"/><rect class="cls-19" x="109.59" y="298.82" width="9.56" height="4.39"/><rect class="cls-19" x="119.15" y="298.82" width="9.56" height="4.39"/><rect class="cls-19" x="128.71" y="298.82" width="9.56" height="4.39"/><rect class="cls-19" x="138.27" y="298.82" width="9.56" height="4.39"/><rect class="cls-19" x="147.83" y="298.82" width="0.68" height="4.39"/><rect class="cls-19" x="76.06" y="294.43" width="9.56" height="4.39"/><rect class="cls-19" x="85.62" y="294.43" width="9.56" height="4.39"/><rect class="cls-19" x="95.18" y="294.43" width="9.56" height="4.39"/><rect class="cls-19" x="104.74" y="294.43" width="9.56" height="4.39"/><rect class="cls-19" x="114.37" y="294.43" width="9.56" height="4.39"/><rect class="cls-19" x="123.93" y="294.43" width="9.56" height="4.39"/><rect class="cls-19" x="133.49" y="294.43" width="9.56" height="4.39"/><rect class="cls-19" x="143.05" y="294.43" width="5.46" height="4.39"/><rect class="cls-19" x="71.28" y="290.04" width="9.56" height="4.39"/><rect class="cls-19" x="80.84" y="290.04" width="9.56" height="4.39"/><rect class="cls-19" x="90.4" y="290.04" width="9.56" height="4.39"/><rect class="cls-19" x="99.96" y="290.04" width="9.56" height="4.39"/><rect class="cls-19" x="109.59" y="290.04" width="9.56" height="4.39"/><rect class="cls-19" x="119.15" y="290.04" width="9.56" height="4.39"/><rect class="cls-19" x="128.71" y="290.04" width="9.56" height="4.39"/><rect class="cls-19" x="138.27" y="290.04" width="9.56" height="4.39"/><rect class="cls-19" x="147.83" y="290.04" width="0.68" height="4.39"/></g><path d="M147.38,295.91l0,5.67a41.07,41.07,0,0,0-38.17,39.93H76.64V312l56.6-14.06a70.4,70.4,0,0,1,14.14-2m1.13-1.17a71.83,71.83,0,0,0-15.54,2.1L75.52,311.12v31.52H110.3v0a40,40,0,0,1,38.18-40l0-7.9Z"/><g class="cls-20"><rect class="cls-19" x="146.87" y="304.35" width="13.31" height="6.11"/><rect class="cls-19" x="160.18" y="304.35" width="13.31" height="6.11"/><rect class="cls-19" x="173.5" y="304.35" width="13.31" height="6.11"/><rect class="cls-19" x="186.81" y="304.35" width="13.31" height="6.11"/><rect class="cls-19" x="200.21" y="304.35" width="13.31" height="6.11"/><rect class="cls-19" x="213.52" y="304.35" width="13.31" height="6.11"/><rect class="cls-19" x="226.83" y="304.35" width="13.31" height="6.11"/><rect class="cls-19" x="240.15" y="304.35" width="13.31" height="6.11"/><rect class="cls-19" x="253.46" y="304.35" width="13.31" height="6.11"/><rect class="cls-19" x="266.77" y="304.35" width="13.31" height="6.11"/><rect class="cls-19" x="280.08" y="304.35" width="13.31" height="6.11"/><rect class="cls-19" x="293.39" y="304.35" width="13.31" height="6.11"/><rect class="cls-19" x="306.8" y="304.35" width="13.31" height="6.11"/><rect class="cls-19" x="320.11" y="304.35" width="13.31" height="6.11"/><rect class="cls-19" x="333.42" y="304.35" width="13.31" height="6.11"/><rect class="cls-19" x="346.73" y="304.35" width="13.31" height="6.11"/><rect class="cls-19" x="140.22" y="298.24" width="13.31" height="6.11"/><rect class="cls-19" x="153.53" y="298.24" width="13.31" height="6.11"/><rect class="cls-19" x="166.84" y="298.24" width="13.31" height="6.11"/><rect class="cls-19" x="180.15" y="298.24" width="13.31" height="6.11"/><rect class="cls-19" x="193.55" y="298.24" width="13.31" height="6.11"/><rect class="cls-19" x="206.87" y="298.24" width="13.31" height="6.11"/><rect class="cls-19" x="220.18" y="298.24" width="13.31" height="6.11"/><rect class="cls-19" x="233.49" y="298.24" width="13.31" height="6.11"/><rect class="cls-19" x="246.8" y="298.24" width="13.31" height="6.11"/><rect class="cls-19" x="260.11" y="298.24" width="13.31" height="6.11"/><rect class="cls-19" x="273.43" y="298.24" width="13.31" height="6.11"/><rect class="cls-19" x="286.74" y="298.24" width="13.31" height="6.11"/><rect class="cls-19" x="300.14" y="298.24" width="13.31" height="6.11"/><rect class="cls-19" x="313.45" y="298.24" width="13.31" height="6.11"/><rect class="cls-19" x="326.76" y="298.24" width="13.31" height="6.11"/><rect class="cls-19" x="340.08" y="298.24" width="13.31" height="6.11"/><rect class="cls-19" x="146.87" y="292.12" width="13.31" height="6.11"/><rect class="cls-19" x="160.18" y="292.12" width="13.31" height="6.11"/><rect class="cls-19" x="173.5" y="292.12" width="13.31" height="6.11"/><rect class="cls-19" x="186.81" y="292.12" width="13.31" height="6.11"/><rect class="cls-19" x="200.21" y="292.12" width="13.31" height="6.11"/><rect class="cls-19" x="213.52" y="292.12" width="13.31" height="6.11"/><rect class="cls-19" x="226.83" y="292.12" width="13.31" height="6.11"/><rect class="cls-19" x="240.15" y="292.12" width="13.31" height="6.11"/><rect class="cls-19" x="253.46" y="292.12" width="13.31" height="6.11"/><rect class="cls-19" x="266.77" y="292.12" width="13.31" height="6.11"/><rect class="cls-19" x="280.08" y="292.12" width="13.31" height="6.11"/><rect class="cls-19" x="293.39" y="292.12" width="13.31" height="6.11"/><rect class="cls-19" x="306.8" y="292.12" width="13.31" height="6.11"/><rect class="cls-19" x="320.11" y="292.12" width="13.31" height="6.11"/><rect class="cls-19" x="333.42" y="292.12" width="13.31" height="6.11"/><rect class="cls-19" x="346.73" y="292.12" width="13.31" height="6.11"/><rect class="cls-19" x="140.22" y="286.01" width="13.31" height="6.11"/><rect class="cls-19" x="153.53" y="286.01" width="13.31" height="6.11"/><rect class="cls-19" x="166.84" y="286.01" width="13.31" height="6.11"/><rect class="cls-19" x="180.15" y="286.01" width="13.31" height="6.11"/><rect class="cls-19" x="193.55" y="286.01" width="13.31" height="6.11"/><rect class="cls-19" x="206.87" y="286.01" width="13.31" height="6.11"/><rect class="cls-19" x="220.18" y="286.01" width="13.31" height="6.11"/><rect class="cls-19" x="233.49" y="286.01" width="13.31" height="6.11"/><rect class="cls-19" x="246.8" y="286.01" width="13.31" height="6.11"/><rect class="cls-19" x="260.11" y="286.01" width="13.31" height="6.11"/><rect class="cls-19" x="273.43" y="286.01" width="13.31" height="6.11"/><rect class="cls-19" x="286.74" y="286.01" width="13.31" height="6.11"/><rect class="cls-19" x="300.14" y="286.01" width="13.31" height="6.11"/><rect class="cls-19" x="313.45" y="286.01" width="13.31" height="6.11"/><rect class="cls-19" x="326.76" y="286.01" width="13.31" height="6.11"/><rect class="cls-19" x="340.08" y="286.01" width="13.31" height="6.11"/><rect class="cls-19" x="146.87" y="279.9" width="13.31" height="6.11"/><rect class="cls-19" x="160.18" y="279.9" width="13.31" height="6.11"/><rect class="cls-19" x="173.5" y="279.9" width="13.31" height="6.11"/><rect class="cls-19" x="186.81" y="279.9" width="13.31" height="6.11"/><rect class="cls-19" x="200.21" y="279.9" width="13.31" height="6.11"/><rect class="cls-19" x="213.52" y="279.9" width="13.31" height="6.11"/><rect class="cls-19" x="226.83" y="279.9" width="13.31" height="6.11"/><rect class="cls-19" x="240.15" y="279.9" width="13.31" height="6.11"/><rect class="cls-19" x="253.46" y="279.9" width="13.31" height="6.11"/><rect class="cls-19" x="266.77" y="279.9" width="13.31" height="6.11"/><rect class="cls-19" x="280.08" y="279.9" width="13.31" height="6.11"/><rect class="cls-19" x="293.39" y="279.9" width="13.31" height="6.11"/><rect class="cls-19" x="306.8" y="279.9" width="13.31" height="6.11"/><rect class="cls-19" x="320.11" y="279.9" width="13.31" height="6.11"/><rect class="cls-19" x="333.42" y="279.9" width="13.31" height="6.11"/><rect class="cls-19" x="346.73" y="279.9" width="13.31" height="6.11"/><rect class="cls-19" x="140.22" y="273.78" width="13.31" height="6.11"/><rect class="cls-19" x="153.53" y="273.78" width="13.31" height="6.11"/><rect class="cls-19" x="166.84" y="273.78" width="13.31" height="6.11"/><rect class="cls-19" x="180.15" y="273.78" width="13.31" height="6.11"/><rect class="cls-19" x="193.55" y="273.78" width="13.31" height="6.11"/><rect class="cls-19" x="206.87" y="273.78" width="13.31" height="6.11"/><rect class="cls-19" x="220.18" y="273.78" width="13.31" height="6.11"/><rect class="cls-19" x="233.49" y="273.78" width="13.31" height="6.11"/><rect class="cls-19" x="246.8" y="273.78" width="13.31" height="6.11"/><rect class="cls-19" x="260.11" y="273.78" width="13.31" height="6.11"/><rect class="cls-19" x="273.43" y="273.78" width="13.31" height="6.11"/><rect class="cls-19" x="286.74" y="273.78" width="13.31" height="6.11"/><rect class="cls-19" x="300.14" y="273.78" width="13.31" height="6.11"/><rect class="cls-19" x="313.45" y="273.78" width="13.31" height="6.11"/><rect class="cls-19" x="326.76" y="273.78" width="13.31" height="6.11"/><rect class="cls-19" x="340.08" y="273.78" width="13.31" height="6.11"/><rect class="cls-19" x="146.87" y="267.67" width="13.31" height="6.11"/><rect class="cls-19" x="160.18" y="267.67" width="13.31" height="6.11"/><rect class="cls-19" x="173.5" y="267.67" width="13.31" height="6.11"/><rect class="cls-19" x="186.81" y="267.67" width="13.31" height="6.11"/><rect class="cls-19" x="200.21" y="267.67" width="13.31" height="6.11"/><rect class="cls-19" x="213.52" y="267.67" width="13.31" height="6.11"/><rect class="cls-19" x="226.83" y="267.67" width="13.31" height="6.11"/><rect class="cls-19" x="240.15" y="267.67" width="13.31" height="6.11"/><rect class="cls-19" x="253.46" y="267.67" width="13.31" height="6.11"/><rect class="cls-19" x="266.77" y="267.67" width="13.31" height="6.11"/><rect class="cls-19" x="280.08" y="267.67" width="13.31" height="6.11"/><rect class="cls-19" x="293.39" y="267.67" width="13.31" height="6.11"/><rect class="cls-19" x="306.8" y="267.67" width="13.31" height="6.11"/><rect class="cls-19" x="320.11" y="267.67" width="13.31" height="6.11"/><rect class="cls-19" x="333.42" y="267.67" width="13.31" height="6.11"/><rect class="cls-19" x="346.73" y="267.67" width="13.31" height="6.11"/><rect class="cls-19" x="140.22" y="261.56" width="13.31" height="6.11"/><rect class="cls-19" x="153.53" y="261.56" width="13.31" height="6.11"/><rect class="cls-19" x="166.84" y="261.56" width="13.31" height="6.11"/><rect class="cls-19" x="180.15" y="261.56" width="13.31" height="6.11"/><rect class="cls-19" x="193.55" y="261.56" width="13.31" height="6.11"/><rect class="cls-19" x="206.87" y="261.56" width="13.31" height="6.11"/><rect class="cls-19" x="220.18" y="261.56" width="13.31" height="6.11"/><rect class="cls-19" x="233.49" y="261.56" width="13.31" height="6.11"/><rect class="cls-19" x="246.8" y="261.56" width="13.31" height="6.11"/><rect class="cls-19" x="260.11" y="261.56" width="13.31" height="6.11"/><rect class="cls-19" x="273.43" y="261.56" width="13.31" height="6.11"/><rect class="cls-19" x="286.74" y="261.56" width="13.31" height="6.11"/><rect class="cls-19" x="300.14" y="261.56" width="13.31" height="6.11"/><rect class="cls-19" x="313.45" y="261.56" width="13.31" height="6.11"/><rect class="cls-19" x="326.76" y="261.56" width="13.31" height="6.11"/><rect class="cls-19" x="340.08" y="261.56" width="13.31" height="6.11"/><rect class="cls-19" x="146.87" y="255.44" width="13.31" height="6.11"/><rect class="cls-19" x="160.18" y="255.44" width="13.31" height="6.11"/><rect class="cls-19" x="173.5" y="255.44" width="13.31" height="6.11"/><rect class="cls-19" x="186.81" y="255.44" width="13.31" height="6.11"/><rect class="cls-19" x="200.21" y="255.44" width="13.31" height="6.11"/><rect class="cls-19" x="213.52" y="255.44" width="13.31" height="6.11"/><rect class="cls-19" x="226.83" y="255.44" width="13.31" height="6.11"/><rect class="cls-19" x="240.15" y="255.44" width="13.31" height="6.11"/><rect class="cls-19" x="253.46" y="255.44" width="13.31" height="6.11"/><rect class="cls-19" x="266.77" y="255.44" width="13.31" height="6.11"/><rect class="cls-19" x="280.08" y="255.44" width="13.31" height="6.11"/><rect class="cls-19" x="293.39" y="255.44" width="13.31" height="6.11"/><rect class="cls-19" x="306.8" y="255.44" width="13.31" height="6.11"/><rect class="cls-19" x="320.11" y="255.44" width="13.31" height="6.11"/><rect class="cls-19" x="333.42" y="255.44" width="13.31" height="6.11"/><rect class="cls-19" x="346.73" y="255.44" width="13.31" height="6.11"/><rect class="cls-19" x="140.22" y="249.33" width="13.31" height="6.11"/><rect class="cls-19" x="153.53" y="249.33" width="13.31" height="6.11"/><rect class="cls-19" x="166.84" y="249.33" width="13.31" height="6.11"/><rect class="cls-19" x="180.15" y="249.33" width="13.31" height="6.11"/><rect class="cls-19" x="193.55" y="249.33" width="13.31" height="6.11"/><rect class="cls-19" x="206.87" y="249.33" width="13.31" height="6.11"/><rect class="cls-19" x="220.18" y="249.33" width="13.31" height="6.11"/><rect class="cls-19" x="233.49" y="249.33" width="13.31" height="6.11"/><rect class="cls-19" x="246.8" y="249.33" width="13.31" height="6.11"/><rect class="cls-19" x="260.11" y="249.33" width="13.31" height="6.11"/><rect class="cls-19" x="273.43" y="249.33" width="13.31" height="6.11"/><rect class="cls-19" x="286.74" y="249.33" width="13.31" height="6.11"/><rect class="cls-19" x="300.14" y="249.33" width="13.31" height="6.11"/><rect class="cls-19" x="313.45" y="249.33" width="13.31" height="6.11"/><rect class="cls-19" x="326.76" y="249.33" width="13.31" height="6.11"/><rect class="cls-19" x="340.08" y="249.33" width="13.31" height="6.11"/><rect class="cls-19" x="146.87" y="243.21" width="13.31" height="6.11"/><rect class="cls-19" x="160.18" y="243.21" width="13.31" height="6.11"/><rect class="cls-19" x="173.5" y="243.21" width="13.31" height="6.11"/><rect class="cls-19" x="186.81" y="243.21" width="13.31" height="6.11"/><rect class="cls-19" x="200.21" y="243.21" width="13.31" height="6.11"/><rect class="cls-19" x="213.52" y="243.21" width="13.31" height="6.11"/><rect class="cls-19" x="226.83" y="243.21" width="13.31" height="6.11"/><rect class="cls-19" x="240.15" y="243.21" width="13.31" height="6.11"/><rect class="cls-19" x="253.46" y="243.21" width="13.31" height="6.11"/><rect class="cls-19" x="266.77" y="243.21" width="13.31" height="6.11"/><rect class="cls-19" x="280.08" y="243.21" width="13.31" height="6.11"/><rect class="cls-19" x="293.39" y="243.21" width="13.31" height="6.11"/><rect class="cls-19" x="306.8" y="243.21" width="13.31" height="6.11"/><rect class="cls-19" x="320.11" y="243.21" width="13.31" height="6.11"/><rect class="cls-19" x="333.42" y="243.21" width="13.31" height="6.11"/><rect class="cls-19" x="346.73" y="243.21" width="13.31" height="6.11"/><rect class="cls-19" x="140.22" y="237.1" width="13.31" height="6.11"/><rect class="cls-19" x="153.53" y="237.1" width="13.31" height="6.11"/><rect class="cls-19" x="166.84" y="237.1" width="13.31" height="6.11"/><rect class="cls-19" x="180.15" y="237.1" width="13.31" height="6.11"/><rect class="cls-19" x="193.55" y="237.1" width="13.31" height="6.11"/><rect class="cls-19" x="206.87" y="237.1" width="13.31" height="6.11"/><rect class="cls-19" x="220.18" y="237.1" width="13.31" height="6.11"/><rect class="cls-19" x="233.49" y="237.1" width="13.31" height="6.11"/><rect class="cls-19" x="246.8" y="237.1" width="13.31" height="6.11"/><rect class="cls-19" x="260.11" y="237.1" width="13.31" height="6.11"/><rect class="cls-19" x="273.43" y="237.1" width="13.31" height="6.11"/><rect class="cls-19" x="286.74" y="237.1" width="13.31" height="6.11"/><rect class="cls-19" x="300.14" y="237.1" width="13.31" height="6.11"/><rect class="cls-19" x="313.45" y="237.1" width="13.31" height="6.11"/><rect class="cls-19" x="326.76" y="237.1" width="13.31" height="6.11"/><rect class="cls-19" x="340.08" y="237.1" width="13.31" height="6.11"/><rect class="cls-19" x="146.87" y="230.99" width="13.31" height="6.11"/><rect class="cls-19" x="160.18" y="230.99" width="13.31" height="6.11"/><rect class="cls-19" x="173.5" y="230.99" width="13.31" height="6.11"/><rect class="cls-19" x="186.81" y="230.99" width="13.31" height="6.11"/><rect class="cls-19" x="200.21" y="230.99" width="13.31" height="6.11"/><rect class="cls-19" x="213.52" y="230.99" width="13.31" height="6.11"/><rect class="cls-19" x="226.83" y="230.99" width="13.31" height="6.11"/><rect class="cls-19" x="240.15" y="230.99" width="13.31" height="6.11"/><rect class="cls-19" x="253.46" y="230.99" width="13.31" height="6.11"/><rect class="cls-19" x="266.77" y="230.99" width="13.31" height="6.11"/><rect class="cls-19" x="280.08" y="230.99" width="13.31" height="6.11"/><rect class="cls-19" x="293.39" y="230.99" width="13.31" height="6.11"/><rect class="cls-19" x="306.8" y="230.99" width="13.31" height="6.11"/><rect class="cls-19" x="320.11" y="230.99" width="13.31" height="6.11"/><rect class="cls-19" x="333.42" y="230.99" width="13.31" height="6.11"/><rect class="cls-19" x="346.73" y="230.99" width="13.31" height="6.11"/><rect class="cls-19" x="140.22" y="224.87" width="13.31" height="6.11"/><rect class="cls-19" x="153.53" y="224.87" width="13.31" height="6.11"/><rect class="cls-19" x="166.84" y="224.87" width="13.31" height="6.11"/><rect class="cls-19" x="180.15" y="224.87" width="13.31" height="6.11"/><rect class="cls-19" x="193.55" y="224.87" width="13.31" height="6.11"/><rect class="cls-19" x="206.87" y="224.87" width="13.31" height="6.11"/><rect class="cls-19" x="220.18" y="224.87" width="13.31" height="6.11"/><rect class="cls-19" x="233.49" y="224.87" width="13.31" height="6.11"/><rect class="cls-19" x="246.8" y="224.87" width="13.31" height="6.11"/><rect class="cls-19" x="260.11" y="224.87" width="13.31" height="6.11"/><rect class="cls-19" x="273.43" y="224.87" width="13.31" height="6.11"/><rect class="cls-19" x="286.74" y="224.87" width="13.31" height="6.11"/><rect class="cls-19" x="300.14" y="224.87" width="13.31" height="6.11"/><rect class="cls-19" x="313.45" y="224.87" width="13.31" height="6.11"/><rect class="cls-19" x="326.76" y="224.87" width="13.31" height="6.11"/><rect class="cls-19" x="340.08" y="224.87" width="13.31" height="6.11"/><rect class="cls-19" x="146.87" y="218.76" width="13.31" height="6.11"/><rect class="cls-19" x="160.18" y="218.76" width="13.31" height="6.11"/><rect class="cls-19" x="173.5" y="218.76" width="13.31" height="6.11"/><rect class="cls-19" x="186.81" y="218.76" width="13.31" height="6.11"/><rect class="cls-19" x="200.21" y="218.76" width="13.31" height="6.11"/><rect class="cls-19" x="213.52" y="218.76" width="13.31" height="6.11"/><rect class="cls-19" x="226.83" y="218.76" width="13.31" height="6.11"/><rect class="cls-19" x="240.15" y="218.76" width="13.31" height="6.11"/><rect class="cls-19" x="253.46" y="218.76" width="13.31" height="6.11"/><rect class="cls-19" x="266.77" y="218.76" width="13.31" height="6.11"/><rect class="cls-19" x="280.08" y="218.76" width="13.31" height="6.11"/><rect class="cls-19" x="293.39" y="218.76" width="13.31" height="6.11"/><rect class="cls-19" x="306.8" y="218.76" width="13.31" height="6.11"/><rect class="cls-19" x="320.11" y="218.76" width="13.31" height="6.11"/><rect class="cls-19" x="333.42" y="218.76" width="13.31" height="6.11"/><rect class="cls-19" x="346.73" y="218.76" width="13.31" height="6.11"/><rect class="cls-19" x="140.22" y="212.64" width="13.31" height="6.11"/><rect class="cls-19" x="153.53" y="212.64" width="13.31" height="6.11"/><rect class="cls-19" x="166.84" y="212.64" width="13.31" height="6.11"/><rect class="cls-19" x="180.15" y="212.64" width="13.31" height="6.11"/><rect class="cls-19" x="193.55" y="212.64" width="13.31" height="6.11"/><rect class="cls-19" x="206.87" y="212.64" width="13.31" height="6.11"/><rect class="cls-19" x="220.18" y="212.64" width="13.31" height="6.11"/><rect class="cls-19" x="233.49" y="212.64" width="13.31" height="6.11"/><rect class="cls-19" x="246.8" y="212.64" width="13.31" height="6.11"/><rect class="cls-19" x="260.11" y="212.64" width="13.31" height="6.11"/><rect class="cls-19" x="273.43" y="212.64" width="13.31" height="6.11"/><rect class="cls-19" x="286.74" y="212.64" width="13.31" height="6.11"/><rect class="cls-19" x="300.14" y="212.64" width="13.31" height="6.11"/><rect class="cls-19" x="313.45" y="212.64" width="13.31" height="6.11"/><rect class="cls-19" x="326.76" y="212.64" width="13.31" height="6.11"/><rect class="cls-19" x="340.08" y="212.64" width="13.31" height="6.11"/><rect class="cls-19" x="146.87" y="206.53" width="13.31" height="6.11"/><rect class="cls-19" x="160.18" y="206.53" width="13.31" height="6.11"/><rect class="cls-19" x="173.5" y="206.53" width="13.31" height="6.11"/><rect class="cls-19" x="186.81" y="206.53" width="13.31" height="6.11"/><rect class="cls-19" x="200.21" y="206.53" width="13.31" height="6.11"/><rect class="cls-19" x="213.52" y="206.53" width="13.31" height="6.11"/><rect class="cls-19" x="226.83" y="206.53" width="13.31" height="6.11"/><rect class="cls-19" x="240.15" y="206.53" width="13.31" height="6.11"/><rect class="cls-19" x="253.46" y="206.53" width="13.31" height="6.11"/><rect class="cls-19" x="266.77" y="206.53" width="13.31" height="6.11"/><rect class="cls-19" x="280.08" y="206.53" width="13.31" height="6.11"/><rect class="cls-19" x="293.39" y="206.53" width="13.31" height="6.11"/><rect class="cls-19" x="306.8" y="206.53" width="13.31" height="6.11"/><rect class="cls-19" x="320.11" y="206.53" width="13.31" height="6.11"/><rect class="cls-19" x="333.42" y="206.53" width="13.31" height="6.11"/><rect class="cls-19" x="346.73" y="206.53" width="13.31" height="6.11"/><rect class="cls-19" x="140.22" y="200.42" width="13.31" height="6.11"/><rect class="cls-19" x="153.53" y="200.42" width="13.31" height="6.11"/><rect class="cls-19" x="166.84" y="200.42" width="13.31" height="6.11"/><rect class="cls-19" x="180.15" y="200.42" width="13.31" height="6.11"/><rect class="cls-19" x="193.55" y="200.42" width="13.31" height="6.11"/><rect class="cls-19" x="206.87" y="200.42" width="13.31" height="6.11"/><rect class="cls-19" x="220.18" y="200.42" width="13.31" height="6.11"/><rect class="cls-19" x="233.49" y="200.42" width="13.31" height="6.11"/><rect class="cls-19" x="246.8" y="200.42" width="13.31" height="6.11"/><rect class="cls-19" x="260.11" y="200.42" width="13.31" height="6.11"/><rect class="cls-19" x="273.43" y="200.42" width="13.31" height="6.11"/><rect class="cls-19" x="286.74" y="200.42" width="13.31" height="6.11"/><rect class="cls-19" x="300.14" y="200.42" width="13.31" height="6.11"/><rect class="cls-19" x="313.45" y="200.42" width="13.31" height="6.11"/><rect class="cls-19" x="326.76" y="200.42" width="13.31" height="6.11"/><rect class="cls-19" x="340.08" y="200.42" width="13.31" height="6.11"/><rect class="cls-19" x="146.87" y="194.3" width="13.31" height="6.11"/><rect class="cls-19" x="160.18" y="194.3" width="13.31" height="6.11"/><rect class="cls-19" x="173.5" y="194.3" width="13.31" height="6.11"/><rect class="cls-19" x="186.81" y="194.3" width="13.31" height="6.11"/><rect class="cls-19" x="200.21" y="194.3" width="13.31" height="6.11"/><rect class="cls-19" x="213.52" y="194.3" width="13.31" height="6.11"/><rect class="cls-19" x="226.83" y="194.3" width="13.31" height="6.11"/><rect class="cls-19" x="240.15" y="194.3" width="13.31" height="6.11"/><rect class="cls-19" x="253.46" y="194.3" width="13.31" height="6.11"/><rect class="cls-19" x="266.77" y="194.3" width="13.31" height="6.11"/><rect class="cls-19" x="280.08" y="194.3" width="13.31" height="6.11"/><rect class="cls-19" x="293.39" y="194.3" width="13.31" height="6.11"/><rect class="cls-19" x="306.8" y="194.3" width="13.31" height="6.11"/><rect class="cls-19" x="320.11" y="194.3" width="13.31" height="6.11"/><rect class="cls-19" x="333.42" y="194.3" width="13.31" height="6.11"/><rect class="cls-19" x="346.73" y="194.3" width="13.31" height="6.11"/><rect class="cls-19" x="140.22" y="188.19" width="13.31" height="6.11"/><rect class="cls-19" x="153.53" y="188.19" width="13.31" height="6.11"/><rect class="cls-19" x="166.84" y="188.19" width="13.31" height="6.11"/><rect class="cls-19" x="180.15" y="188.19" width="13.31" height="6.11"/><rect class="cls-19" x="193.55" y="188.19" width="13.31" height="6.11"/><rect class="cls-19" x="206.87" y="188.19" width="13.31" height="6.11"/><rect class="cls-19" x="220.18" y="188.19" width="13.31" height="6.11"/><rect class="cls-19" x="233.49" y="188.19" width="13.31" height="6.11"/><rect class="cls-19" x="246.8" y="188.19" width="13.31" height="6.11"/><rect class="cls-19" x="260.11" y="188.19" width="13.31" height="6.11"/><rect class="cls-19" x="273.43" y="188.19" width="13.31" height="6.11"/><rect class="cls-19" x="286.74" y="188.19" width="13.31" height="6.11"/><rect class="cls-19" x="300.14" y="188.19" width="13.31" height="6.11"/><rect class="cls-19" x="313.45" y="188.19" width="13.31" height="6.11"/><rect class="cls-19" x="326.76" y="188.19" width="13.31" height="6.11"/><rect class="cls-19" x="340.08" y="188.19" width="13.31" height="6.11"/><rect class="cls-19" x="146.87" y="182.08" width="13.31" height="6.11"/><rect class="cls-19" x="160.18" y="182.08" width="13.31" height="6.11"/><rect class="cls-19" x="173.5" y="182.08" width="13.31" height="6.11"/><rect class="cls-19" x="186.81" y="182.08" width="13.31" height="6.11"/><rect class="cls-19" x="200.21" y="182.08" width="13.31" height="6.11"/><rect class="cls-19" x="213.52" y="182.08" width="13.31" height="6.11"/><rect class="cls-19" x="226.83" y="182.08" width="13.31" height="6.11"/><rect class="cls-19" x="240.15" y="182.08" width="13.31" height="6.11"/><rect class="cls-19" x="253.46" y="182.08" width="13.31" height="6.11"/><rect class="cls-19" x="266.77" y="182.08" width="13.31" height="6.11"/><rect class="cls-19" x="280.08" y="182.08" width="13.31" height="6.11"/><rect class="cls-19" x="293.39" y="182.08" width="13.31" height="6.11"/><rect class="cls-19" x="306.8" y="182.08" width="13.31" height="6.11"/><rect class="cls-19" x="320.11" y="182.08" width="13.31" height="6.11"/><rect class="cls-19" x="333.42" y="182.08" width="13.31" height="6.11"/><rect class="cls-19" x="346.73" y="182.08" width="13.31" height="6.11"/><rect class="cls-19" x="140.22" y="175.96" width="13.31" height="6.11"/><rect class="cls-19" x="153.53" y="175.96" width="13.31" height="6.11"/><rect class="cls-19" x="166.84" y="175.96" width="13.31" height="6.11"/><rect class="cls-19" x="180.15" y="175.96" width="13.31" height="6.11"/><rect class="cls-19" x="193.55" y="175.96" width="13.31" height="6.11"/><rect class="cls-19" x="206.87" y="175.96" width="13.31" height="6.11"/><rect class="cls-19" x="220.18" y="175.96" width="13.31" height="6.11"/><rect class="cls-19" x="233.49" y="175.96" width="13.31" height="6.11"/><rect class="cls-19" x="246.8" y="175.96" width="13.31" height="6.11"/><rect class="cls-19" x="260.11" y="175.96" width="13.31" height="6.11"/><rect class="cls-19" x="273.43" y="175.96" width="13.31" height="6.11"/><rect class="cls-19" x="286.74" y="175.96" width="13.31" height="6.11"/><rect class="cls-19" x="300.14" y="175.96" width="13.31" height="6.11"/><rect class="cls-19" x="313.45" y="175.96" width="13.31" height="6.11"/><rect class="cls-19" x="326.76" y="175.96" width="13.31" height="6.11"/><rect class="cls-19" x="340.08" y="175.96" width="13.31" height="6.11"/><rect class="cls-19" x="146.87" y="169.85" width="13.31" height="6.11"/><rect class="cls-19" x="160.18" y="169.85" width="13.31" height="6.11"/><rect class="cls-19" x="173.5" y="169.85" width="13.31" height="6.11"/><rect class="cls-19" x="186.81" y="169.85" width="13.31" height="6.11"/><rect class="cls-19" x="200.21" y="169.85" width="13.31" height="6.11"/><rect class="cls-19" x="213.52" y="169.85" width="13.31" height="6.11"/><rect class="cls-19" x="226.83" y="169.85" width="13.31" height="6.11"/><rect class="cls-19" x="240.15" y="169.85" width="13.31" height="6.11"/><rect class="cls-19" x="253.46" y="169.85" width="13.31" height="6.11"/><rect class="cls-19" x="266.77" y="169.85" width="13.31" height="6.11"/><rect class="cls-19" x="280.08" y="169.85" width="13.31" height="6.11"/><rect class="cls-19" x="293.39" y="169.85" width="13.31" height="6.11"/><rect class="cls-19" x="306.8" y="169.85" width="13.31" height="6.11"/><rect class="cls-19" x="320.11" y="169.85" width="13.31" height="6.11"/><rect class="cls-19" x="333.42" y="169.85" width="13.31" height="6.11"/><rect class="cls-19" x="346.73" y="169.85" width="13.31" height="6.11"/><rect class="cls-19" x="140.22" y="163.73" width="13.31" height="6.11"/><rect class="cls-19" x="153.53" y="163.73" width="13.31" height="6.11"/><rect class="cls-19" x="166.84" y="163.73" width="13.31" height="6.11"/><rect class="cls-19" x="180.15" y="163.73" width="13.31" height="6.11"/><rect class="cls-19" x="193.55" y="163.73" width="13.31" height="6.11"/><rect class="cls-19" x="206.87" y="163.73" width="13.31" height="6.11"/><rect class="cls-19" x="220.18" y="163.73" width="13.31" height="6.11"/><rect class="cls-19" x="233.49" y="163.73" width="13.31" height="6.11"/><rect class="cls-19" x="246.8" y="163.73" width="13.31" height="6.11"/><rect class="cls-19" x="260.11" y="163.73" width="13.31" height="6.11"/><rect class="cls-19" x="273.43" y="163.73" width="13.31" height="6.11"/><rect class="cls-19" x="286.74" y="163.73" width="13.31" height="6.11"/><rect class="cls-19" x="300.14" y="163.73" width="13.31" height="6.11"/><rect class="cls-19" x="313.45" y="163.73" width="13.31" height="6.11"/><rect class="cls-19" x="326.76" y="163.73" width="13.31" height="6.11"/><rect class="cls-19" x="340.08" y="163.73" width="13.31" height="6.11"/></g><rect class="cls-3" x="198.07" y="205.38" width="152.62" height="3.69"/><path d="M350.13,206v2.56H198.63V206h151.5m1.12-1.13H197.5v4.82H351.25v-4.82Z"/><rect x="197.5" y="209.64" width="153.75" height="3.01"/><rect x="244.79" y="228.78" width="15.82" height="15.82"/><path d="M260.05,229.34V244h-14.7v-14.7h14.7m1.13-1.13h-17v16.95h17V228.21Z"/><path d="M238.46,295.38a14.26,14.26,0,0,1,28.49,0Z"/><path d="M252.7,282.25a13.7,13.7,0,0,1,13.65,12.57H239.06a13.7,13.7,0,0,1,13.64-12.57m0-1.12A14.82,14.82,0,0,0,237.88,296h29.64a14.81,14.81,0,0,0-14.82-14.82Z"/><path d="M350.05,188.86v28.77h-.16v121.7H147.63V225.42h50.92V188.86H243V206h17V188.86h44.47V206h20.78V188.86h24.8m1.12-1.13h-27v17.09H305.6V187.73H258.87v17.09H244.15V187.73H197.43V224.3H146.51V340.46H351V218.76h.16v-31Z"/><rect class="cls-21" x="143.01" y="309.85" width="211.65" height="10.96"/><rect class="cls-21" x="137.38" y="320.81" width="223.61" height="10.96"/><rect class="cls-21" x="131.84" y="331.77" width="234.61" height="10.96"/><polygon class="cls-3" points="258.73 245.17 258.55 231.04 245.3 230.99 245.3 229.34 261.12 229.34 261.12 245.17 258.73 245.17"/><path d="M260.56,229.91v14.7h-1.28l-.16-13v-1.11H258l-12.14,0v-.52h14.7m1.12-1.13h-17v2.77l13.27,0,.17,14.13h3.51V228.78Z"/><path class="cls-22" d="M251.53,283.38a14.82,14.82,0,0,1,14.72,13.13H268a14.81,14.81,0,0,0-26.1-9.59A14.71,14.71,0,0,1,251.53,283.38Z"/><path class="cls-16" d="M129.13,279.57c-3.88-.21-9-1.39-9-6V224.23a4.78,4.78,0,0,1,2-3.87l3.79-2.76H120.1v-4.2h-3.7v4.2h-5.47l3.61,2.77a4.79,4.79,0,0,1,1.87,3.79c0,14.32,0,39,0,49.4,0,4.59-5.15,5.8-9,6C99,280,93.23,280.94,93.23,282c0,1.5,11.2,2.72,25,2.72s25-1.22,25-2.72C143.27,280.94,137.5,280,129.13,279.57Z"/><path class="cls-16" d="M92.1,158.36s-4.35,18.83-2.59,31.47c2.22,15.92,12.88,28.75,28.76,28.75S144.8,206.73,147,189.83c1.66-12.65-2.58-31.47-2.58-31.47Z"/><path class="cls-23" d="M118.26,216c-15.52,0-24.33-13.31-26.17-26.5-.15-1.11-.26-2.32-.32-3.62h53c0,1.31-.16,2.53-.3,3.64C142.28,205.82,132.26,216,118.26,216Z"/><path class="cls-3" d="M144.14,186.41c-.06,1.07-.15,2.08-.27,3-2.11,16-11.92,26-25.61,26-15.18,0-23.8-13.07-25.61-26-.13-.92-.22-1.92-.29-3h51.78m1.18-1.13H91.18a40.51,40.51,0,0,0,.36,4.26c1.87,13.44,10.86,27,26.72,27,14.3,0,24.54-10.33,26.73-27,.17-1.36.28-2.8.33-4.28Z"/><ellipse class="cls-16" cx="118.25" cy="158.45" rx="26.21" ry="1.69"/><path class="cls-24" d="M118.25,186.52c-13.57,0-22.63-.61-25.62-1.18,3-.57,12.05-1.18,25.62-1.18s22.63.61,25.62,1.18C140.88,185.91,131.82,186.52,118.25,186.52Z"/><path class="cls-3" d="M118.25,184.72c9.29,0,16.25.28,20.7.62-4.45.34-11.41.62-20.7.62s-16.26-.28-20.7-.62c4.44-.34,11.41-.62,20.7-.62m0-1.13c-15,0-27.07.79-27.07,1.75s12.12,1.74,27.07,1.74,27.07-.78,27.07-1.74-12.12-1.75-27.07-1.75Z"/><rect class="cls-25" x="280.08" y="212.64" width="69.76" height="97.21"/><polygon points="143.01 309.85 159.16 320.5 137.38 320.81 155.57 331.77 131.84 331.77 151.53 343.38 131.84 342.73 131.84 331.77 137.38 331.77 137.38 320.81 143.01 320.81 143.01 309.85"/><rect x="147.41" y="307.61" width="202.44" height="2.25"/></svg>