<svg width="163" height="37" viewBox="0 0 163 37" fill="none" xmlns="http://www.w3.org/2000/svg">
<path d="M19.6761 8.9333L10.4671 14.7025L19.6761 20.4718L10.4671 26.241L1.25806 20.4237L10.4671 14.6545L1.25806 8.9333L10.4671 3.16406L19.6761 8.9333ZM10.4181 28.0679L19.6271 22.2987L28.8361 28.0679L19.6271 33.8372L10.4181 28.0679ZM19.6761 20.4237L28.885 14.6545L19.6761 8.9333L28.8361 3.16406L38.0451 8.9333L28.8361 14.7025L38.0451 20.4718L28.8361 26.241L19.6761 20.4237Z" fill="#0061FF"/>
<path d="M45.2476 8.933H52.6931C57.4446 8.933 61.3633 11.6253 61.3633 17.7792V19.0773C61.3633 25.2792 57.6895 28.0677 52.8401 28.0677H45.2476V8.933ZM49.4112 12.3945V24.5581H52.5952C55.2893 24.5581 57.1017 22.8273 57.1017 18.9811V17.9715C57.1017 14.1253 55.1913 12.3945 52.4482 12.3945H49.4112ZM63.5676 12.5869H66.8985L67.4373 16.1926C68.0741 13.7407 69.6906 12.4426 72.6296 12.4426H73.6583V16.5773H71.9439C68.564 16.5773 67.7312 17.7311 67.7312 21.0003V28.1158H63.6166V12.5869H63.5676ZM74.491 20.6638V20.2311C74.491 15.0388 77.8709 12.2022 82.4754 12.2022C87.1779 12.2022 90.4598 15.0388 90.4598 20.2311V20.6638C90.4598 25.76 87.2759 28.5004 82.4754 28.5004C77.3811 28.4523 74.491 25.76 74.491 20.6638ZM86.2472 20.6157V20.2311C86.2472 17.3465 84.7777 15.6157 82.4264 15.6157C80.1242 15.6157 78.6057 17.2023 78.6057 20.2311V20.6157C78.6057 23.4042 80.0752 24.9907 82.4264 24.9907C84.7777 24.9427 86.2472 23.4042 86.2472 20.6157ZM92.6151 12.5869H96.044L96.4359 15.5196C97.2686 13.5484 99.032 12.2022 101.628 12.2022C105.645 12.2022 108.29 15.0388 108.29 20.2792V20.7119C108.29 25.8081 105.351 28.5004 101.628 28.5004C99.13 28.5004 97.4156 27.3946 96.5828 25.6157V33.4523H92.5661L92.6151 12.5869ZM104.126 20.6157V20.2792C104.126 17.2023 102.51 15.6638 100.355 15.6638C98.0523 15.6638 96.5338 17.3946 96.5338 20.2792V20.5677C96.5338 23.308 98.0034 25.0388 100.306 25.0388C102.657 24.9907 104.126 23.5004 104.126 20.6157ZM114.364 25.2311L114.021 28.0677H110.494V7.39453H114.511V15.3273C115.393 13.308 117.156 12.2022 119.654 12.2022C123.426 12.2503 126.218 14.7984 126.218 19.9427V20.4234C126.218 25.5677 123.573 28.5004 119.556 28.5004C116.911 28.4523 115.197 27.2504 114.364 25.2311ZM122.006 20.4234V20.0388C122.006 17.2023 120.438 15.6157 118.234 15.6157C115.981 15.6157 114.413 17.3946 114.413 20.0869V20.4234C114.413 23.308 115.932 24.9907 118.185 24.9907C120.585 24.9907 122.006 23.5004 122.006 20.4234ZM127.982 20.6638V20.2311C127.982 15.0388 131.361 12.2022 135.966 12.2022C140.668 12.2022 143.95 15.0388 143.95 20.2311V20.6638C143.95 25.76 140.717 28.5004 135.966 28.5004C130.872 28.4523 127.982 25.76 127.982 20.6638ZM139.787 20.6157V20.2311C139.787 17.3465 138.317 15.6157 135.966 15.6157C133.664 15.6157 132.145 17.2023 132.145 20.2311V20.6157C132.145 23.4042 133.615 24.9907 135.966 24.9907C138.317 24.9427 139.787 23.4042 139.787 20.6157ZM149.339 20.0388L143.803 12.5869H148.555L151.739 17.2503L154.972 12.5869H159.674L154.041 19.9907L159.968 28.0677H155.315L151.69 22.9234L148.163 28.0677H143.314L149.339 20.0388Z" fill="black"/>
</svg>
