<svg width="413" height="314" viewBox="0 0 413 314" fill="none" xmlns="http://www.w3.org/2000/svg">
<ellipse cx="211.415" cy="311.107" rx="194.03" ry="2.68626" fill="black"/>
<path d="M142.861 310.339L118.404 168.942H159.948L166.066 177.919H214.371V287.575L142.861 310.339Z" fill="#7304E2" stroke="black" stroke-width="1.36915"/>
<path d="M150.98 190.381L142.906 310.34H226.715L234.789 190.381H150.98Z" fill="#BD80FF" stroke="black" stroke-width="1.36915"/>
<path d="M193.447 70.4229C182.166 70.4229 173.023 79.5685 173.023 90.8479V191.174H238.809V90.8479C238.809 79.5664 247.954 70.4229 259.233 70.4229H193.447Z" fill="#C4D0F0" stroke="black" stroke-width="1.36915"/>
<path d="M363.969 290.634V190.422L211.189 190.421V290.632C211.189 301.559 220.048 310.418 230.974 310.418H383.751C372.825 310.418 363.967 301.559 363.967 290.632L363.969 290.634Z" fill="black" stroke="black" stroke-width="1.36915"/>
<path d="M359.882 190.422V90.209C359.882 79.2797 351.023 70.4229 340.097 70.4229H194.975C202.632 70.4229 207.102 79.2818 207.102 90.209V190.421L359.882 190.422Z" fill="black" stroke="black" stroke-width="1.36915"/>
<path d="M366.011 290.634V90.209C366.011 79.2797 357.153 70.4229 346.227 70.4229H193.447C204.374 70.4229 213.232 79.2818 213.232 90.209V290.632C213.232 301.559 222.09 310.418 233.017 310.418H385.794C374.867 310.418 366.009 301.559 366.009 290.632L366.011 290.634Z" fill="white" stroke="black" stroke-width="1.36915"/>
<g style="mix-blend-mode:multiply">
<path d="M352.485 168.981H243.048C242.562 168.981 242.168 169.375 242.168 169.862V172.782C242.168 173.268 242.562 173.662 243.048 173.662H352.485C352.971 173.662 353.365 173.268 353.365 172.782V169.862C353.365 169.375 352.971 168.981 352.485 168.981Z" fill="#BD80FF"/>
<path d="M352.485 168.981H243.048C242.562 168.981 242.168 169.375 242.168 169.862V172.782C242.168 173.268 242.562 173.662 243.048 173.662H352.485C352.971 173.662 353.365 173.268 353.365 172.782V169.862C353.365 169.375 352.971 168.981 352.485 168.981Z" stroke="black" stroke-width="1.36915"/>
</g>
<path d="M231.355 203.012C233.961 201.932 235.199 198.945 234.119 196.339C233.04 193.733 230.052 192.495 227.447 193.575C224.841 194.654 223.603 197.642 224.683 200.248C225.762 202.854 228.75 204.091 231.355 203.012Z" fill="#FF8793" stroke="black" stroke-width="1.36915"/>
<g style="mix-blend-mode:multiply">
<path d="M318.516 196.165H243.048C242.562 196.165 242.168 196.56 242.168 197.046V199.966C242.168 200.452 242.562 200.847 243.048 200.847H318.516C319.002 200.847 319.396 200.452 319.396 199.966V197.046C319.396 196.56 319.002 196.165 318.516 196.165Z" fill="#BD80FF"/>
<path d="M318.516 196.165H243.048C242.562 196.165 242.168 196.56 242.168 197.046V199.966C242.168 200.452 242.562 200.847 243.048 200.847H318.516C319.002 200.847 319.396 200.452 319.396 199.966V197.046C319.396 196.56 319.002 196.165 318.516 196.165Z" stroke="black" stroke-width="1.36915"/>
</g>
<g style="mix-blend-mode:multiply">
<path d="M352.485 213.021H243.048C242.562 213.021 242.168 213.415 242.168 213.902V216.822C242.168 217.308 242.562 217.703 243.048 217.703H352.485C352.971 217.703 353.365 217.308 353.365 216.822V213.902C353.365 213.415 352.971 213.021 352.485 213.021Z" fill="#BD80FF"/>
<path d="M352.485 213.021H243.048C242.562 213.021 242.168 213.415 242.168 213.902V216.822C242.168 217.308 242.562 217.703 243.048 217.703H352.485C352.971 217.703 353.365 217.308 353.365 216.822V213.902C353.365 213.415 352.971 213.021 352.485 213.021Z" stroke="black" stroke-width="1.36915"/>
</g>
<path d="M229.402 247.444C232.222 247.444 234.509 245.157 234.509 242.336C234.509 239.516 232.222 237.229 229.402 237.229C226.581 237.229 224.295 239.516 224.295 242.336C224.295 245.157 226.581 247.444 229.402 247.444Z" fill="#FF8793" stroke="black" stroke-width="1.36915"/>
<g style="mix-blend-mode:multiply">
<path d="M318.516 240.208H243.048C242.562 240.208 242.168 240.603 242.168 241.089V244.009C242.168 244.496 242.562 244.89 243.048 244.89H318.516C319.002 244.89 319.396 244.496 319.396 244.009V241.089C319.396 240.603 319.002 240.208 318.516 240.208Z" fill="#BD80FF"/>
<path d="M318.516 240.208H243.048C242.562 240.208 242.168 240.603 242.168 241.089V244.009C242.168 244.496 242.562 244.89 243.048 244.89H318.516C319.002 244.89 319.396 244.496 319.396 244.009V241.089C319.396 240.603 319.002 240.208 318.516 240.208Z" stroke="black" stroke-width="1.36915"/>
</g>
<g style="mix-blend-mode:multiply">
<path d="M352.485 257.064H243.048C242.562 257.064 242.168 257.459 242.168 257.945V260.865C242.168 261.352 242.562 261.746 243.048 261.746H352.485C352.971 261.746 353.365 261.352 353.365 260.865V257.945C353.365 257.459 352.971 257.064 352.485 257.064Z" fill="#BD80FF"/>
<path d="M352.485 257.064H243.048C242.562 257.064 242.168 257.459 242.168 257.945V260.865C242.168 261.352 242.562 261.746 243.048 261.746H352.485C352.971 261.746 353.365 261.352 353.365 260.865V257.945C353.365 257.459 352.971 257.064 352.485 257.064Z" stroke="black" stroke-width="1.36915"/>
</g>
<path d="M255.612 267.652V294.46C255.612 299.979 253.904 305.098 250.988 309.319H387.163C396.351 309.319 408.39 299.978 408.39 294.46V267.652H255.612Z" fill="black" stroke="black" stroke-width="1.36915"/>
<path d="M259.185 257.443V284.251C259.185 298.705 247.468 310.42 233.018 310.42H385.795C400.247 310.42 411.962 298.703 411.962 284.251V257.443H259.185Z" fill="white" stroke="black" stroke-width="1.36915"/>
<path d="M139.078 202.632L143.162 304.214L150.819 202.632H139.078Z" fill="black"/>
<path d="M329.084 118.967L360.34 310.487" stroke="#2D0D28" stroke-width="1.36915" stroke-linecap="round"/>
<path d="M364.07 119.088L396.775 310.366" stroke="#2D0D28" stroke-width="1.36915" stroke-linecap="round"/>
<path d="M347.1 227.986H382.633" stroke="#2D0D28" stroke-width="1.36915"/>
<path d="M350.281 244.957H385.814" stroke="#2D0D28" stroke-width="1.36915"/>
<path d="M352.402 261.928H387.936" stroke="#2D0D28" stroke-width="1.36915"/>
<path d="M355.23 278.545H390.764" stroke="#2D0D28" stroke-width="1.36915"/>
<path d="M335.434 160.102H370.967" stroke="#2D0D28" stroke-width="1.36915"/>
<path d="M332.957 143.131H368.49" stroke="#2D0D28" stroke-width="1.36915"/>
<path d="M338.613 177.073H374.146" stroke="#2D0D28" stroke-width="1.36915"/>
<path d="M341.09 194.043H376.623" stroke="#2D0D28" stroke-width="1.36915"/>
<path d="M344.271 211.015H379.805" stroke="#2D0D28" stroke-width="1.36915"/>
<path d="M274.819 150.819L271.322 136.197L259.156 144.151L279.158 97.1616L294.819 103.83L274.819 150.819Z" fill="#F78400" stroke="black" stroke-width="1.36915" stroke-linejoin="round"/>
<path d="M323.108 142.166L309.255 136.324L308.461 150.837L282.445 106.892L297.093 98.2192L323.108 142.166Z" fill="#F78400" stroke="black" stroke-width="1.36915" stroke-linejoin="round"/>
<path d="M290.037 56.0808C289.005 56.0808 288.114 56.7998 287.894 57.8073L285.25 69.9131H294.824L292.18 57.8073C291.96 56.7998 291.067 56.0808 290.037 56.0808Z" fill="#FFC842" stroke="black" stroke-width="1.36915"/>
<path d="M298.243 56.999C297.237 56.7695 296.208 57.2691 295.769 58.2035L290.49 69.4135L299.823 71.5503L299.947 59.1602C299.957 58.1283 299.248 57.2285 298.243 56.999Z" fill="#FFC842" stroke="black" stroke-width="1.36915"/>
<path d="M307.193 60.3096C306.281 59.8282 305.156 60.0475 304.492 60.8356L296.506 70.309L304.975 74.7755L308.284 62.8343C308.56 61.8411 308.105 60.7889 307.193 60.3075V60.3096Z" fill="#FFC842" stroke="black" stroke-width="1.36915"/>
<path d="M314.319 65.3512C313.547 64.6667 312.404 64.6139 311.571 65.2212L301.564 72.5273L308.732 78.8767L314.78 68.0628C315.284 67.163 315.093 66.0336 314.321 65.3491L314.319 65.3512Z" fill="#FFC842" stroke="black" stroke-width="1.36915"/>
<path d="M319.853 71.4805C319.254 70.6417 318.151 70.3329 317.202 70.7412L305.818 75.6302L311.387 83.4197L319.696 74.2287C320.389 73.4629 320.454 72.3194 319.853 71.4805Z" fill="#FFC842" stroke="black" stroke-width="1.36915"/>
<path d="M324.358 79.8933C323.994 78.9285 323.007 78.3476 321.988 78.4959L309.729 80.2894L313.104 89.2489L323.499 82.5054C324.364 81.9448 324.721 80.8561 324.358 79.8913V79.8933Z" fill="#FFC842" stroke="black" stroke-width="1.36915"/>
<path d="M326.421 89.0992C326.318 88.0735 325.511 87.259 324.488 87.1412L312.178 85.7356L313.147 95.2618L324.92 91.4066C325.901 91.0857 326.525 90.125 326.421 89.0992Z" fill="#FFC842" stroke="black" stroke-width="1.36915"/>
<path d="M326.338 97.355C326.466 96.3313 325.863 95.3584 324.89 95.0151L313.204 90.8979L312.021 100.4L324.36 99.2704C325.388 99.177 326.21 98.3787 326.336 97.3571L326.338 97.355Z" fill="#FFC842" stroke="black" stroke-width="1.36915"/>
<path d="M323.953 106.596C324.339 105.639 324.008 104.542 323.157 103.962L312.925 96.9744L309.338 105.853L321.55 107.937C322.568 108.109 323.567 107.553 323.953 106.596Z" fill="#FFC842" stroke="black" stroke-width="1.36915"/>
<path d="M319.966 113.764C320.557 112.919 320.478 111.776 319.777 111.018L311.362 101.923L305.883 109.775L317.321 114.534C318.274 114.93 319.373 114.609 319.964 113.764H319.966Z" fill="#FFC842" stroke="black" stroke-width="1.36915"/>
<path d="M314.516 119.967C315.279 119.275 315.458 118.143 314.944 117.25L308.772 106.507L301.68 112.94L311.77 120.132C312.611 120.731 313.752 120.664 314.518 119.971L314.516 119.967Z" fill="#FFC842" stroke="black" stroke-width="1.36915"/>
<path d="M306.682 125.415C307.598 124.942 308.063 123.896 307.795 122.898L304.596 110.929L296.086 115.318L303.985 124.865C304.643 125.659 305.764 125.888 306.68 125.415H306.682Z" fill="#FFC842" stroke="black" stroke-width="1.36915"/>
<path d="M298.128 128.453C299.134 128.222 299.84 127.32 299.828 126.29L299.68 113.9L290.352 116.055L295.653 127.255C296.093 128.187 297.125 128.687 298.13 128.453H298.128Z" fill="#FFC842" stroke="black" stroke-width="1.36915"/>
<path d="M289.929 129.404C290.96 129.404 291.85 128.681 292.069 127.674L294.689 115.564L285.115 115.582L287.782 127.682C288.003 128.689 288.897 129.406 289.929 129.404Z" fill="#FFC842" stroke="black" stroke-width="1.36915"/>
<path d="M280.461 128.195C281.458 128.459 282.504 127.992 282.974 127.074L288.622 116.047L279.364 113.599L278.828 125.979C278.784 127.009 279.462 127.931 280.459 128.195H280.461Z" fill="#FFC842" stroke="black" stroke-width="1.36915"/>
<path d="M271.593 124.439C272.486 124.955 273.618 124.776 274.312 124.015L282.648 114.846L274.353 110.065L270.6 121.874C270.287 122.857 270.701 123.925 271.595 124.439H271.593Z" fill="#FFC842" stroke="black" stroke-width="1.36915"/>
<path d="M264.944 119.546C265.7 120.247 266.843 120.328 267.69 119.739L277.861 112.663L270.842 106.151L264.548 116.824C264.024 117.712 264.191 118.845 264.946 119.548L264.944 119.546Z" fill="#FFC842" stroke="black" stroke-width="1.36915"/>
<path d="M258.84 112.21C259.391 113.083 260.473 113.453 261.444 113.103L273.094 108.883L267.988 100.782L259.159 109.476C258.424 110.199 258.292 111.336 258.842 112.21H258.84Z" fill="#FFC842" stroke="black" stroke-width="1.36915"/>
<path d="M255.279 104.357C255.608 105.334 256.573 105.952 257.598 105.84L269.914 104.489L266.864 95.4119L256.232 101.773C255.346 102.304 254.95 103.378 255.279 104.355V104.357Z" fill="#FFC842" stroke="black" stroke-width="1.36915"/>
<path d="M253.532 96.2879C253.634 97.3137 254.438 98.1302 255.462 98.25L267.768 99.682L266.819 90.1538L255.035 93.9826C254.054 94.3015 253.429 95.2602 253.53 96.2859L253.532 96.2879Z" fill="#FFC842" stroke="black" stroke-width="1.36915"/>
<path d="M253.819 86.7469C253.655 87.7645 254.219 88.7598 255.178 89.1397L266.702 93.6915L268.24 84.2405L255.869 84.9067C254.839 84.9615 253.986 85.7273 253.821 86.7449L253.819 86.7469Z" fill="#FFC842" stroke="black" stroke-width="1.36915"/>
<path d="M256.505 78.1426C256.093 79.0891 256.397 80.1941 257.232 80.7973L267.277 88.0506L271.096 79.2699L258.942 76.865C257.931 76.6639 256.915 77.1961 256.505 78.1426Z" fill="#FFC842" stroke="black" stroke-width="1.36915"/>
<path d="M260.619 70.9853C260.008 71.8161 260.056 72.9596 260.737 73.7355L268.91 83.0484L274.592 75.3422L263.282 70.2866C262.339 69.8662 261.232 70.1566 260.621 70.9874L260.619 70.9853Z" fill="#FFC842" stroke="black" stroke-width="1.36915"/>
<path d="M267.227 64.0954C266.423 64.7393 266.175 65.8585 266.632 66.7826L272.134 77.885L279.608 71.9012L269.979 64.1035C269.177 63.4536 268.031 63.4515 267.227 64.0954Z" fill="#FFC842" stroke="black" stroke-width="1.36915"/>
<path d="M273.533 60.1428C272.615 60.612 272.148 61.658 272.41 62.6553L275.564 74.6372L284.091 70.2783L276.226 60.7034C275.572 59.9072 274.451 59.6736 273.533 60.1428Z" fill="#FFC842" stroke="black" stroke-width="1.36915"/>
<path d="M282.521 56.9294C281.514 57.1467 280.792 58.0364 280.788 59.0682L280.754 71.4583L290.115 69.4414L284.98 58.1643C284.554 57.2259 283.53 56.7121 282.521 56.9294Z" fill="#FFC842" stroke="black" stroke-width="1.36915"/>
<path d="M308.983 111.95C319.447 101.486 319.447 84.52 308.983 74.0559C298.52 63.5917 281.556 63.5917 271.092 74.0559C260.629 84.52 260.629 101.486 271.092 111.95C281.556 122.414 298.52 122.414 308.983 111.95Z" fill="white" stroke="black" stroke-width="1.36915"/>
<path d="M305.101 108.068C313.421 99.7477 313.421 86.2582 305.101 77.9381C296.782 69.618 283.293 69.618 274.974 77.9381C266.654 86.2582 266.654 99.7477 274.974 108.068C283.293 116.388 296.782 116.388 305.101 108.068Z" fill="#F45183" stroke="black" stroke-width="1.36915"/>
<path d="M105.645 13.2512H96.9668V304.725H105.645V13.2512Z" fill="#BD80FF" stroke="black" stroke-width="1.36915" stroke-miterlimit="10"/>
<path d="M138.802 304.724H58.8501C57.3472 304.724 56.1289 305.943 56.1289 307.446C56.1289 308.948 57.3472 310.167 58.8501 310.167H138.802C140.305 310.167 141.523 308.948 141.523 307.446C141.523 305.943 140.305 304.724 138.802 304.724Z" fill="#FB5D96" stroke="black" stroke-width="1.36915" stroke-miterlimit="10"/>
<path d="M101.126 24.2862C107.68 24.2862 112.994 19.0734 112.994 12.6431C112.994 6.2128 107.68 1 101.126 1C94.5713 1 89.2578 6.2128 89.2578 12.6431C89.2578 19.0734 94.5713 24.2862 101.126 24.2862Z" fill="#7304E2" stroke="black" stroke-width="1.36915" stroke-miterlimit="10"/>
<path d="M194.341 127.251L164.513 50.8792L134.684 127.251" stroke="white" stroke-width="1.36915" stroke-miterlimit="10" stroke-linejoin="round"/>
<path d="M201.253 127.251C201.253 147.147 184.792 163.296 164.512 163.296C144.232 163.296 127.771 147.147 127.771 127.251H201.253Z" fill="#F45183" stroke="black" stroke-width="1.36915" stroke-miterlimit="10"/>
<path d="M132.773 127.251H127.771C127.771 147.147 144.232 163.296 164.512 163.296C165.376 163.296 166.194 163.251 167.013 163.206C147.87 161.957 132.773 146.344 132.773 127.251Z" fill="black"/>
<path d="M67.57 127.251L37.7411 50.8794L7.91211 127.251" stroke="white" stroke-width="1.36915" stroke-miterlimit="10" stroke-linejoin="round"/>
<path d="M74.4811 127.251C74.4811 147.147 58.0206 163.296 37.7405 163.296C17.4605 163.296 1 147.147 1 127.251H74.4811Z" fill="#F45183" stroke="black" stroke-width="1.36915" stroke-miterlimit="10"/>
<path d="M6.0018 127.251H1C1 147.147 17.4605 163.296 37.7405 163.296C38.6045 163.296 39.423 163.251 40.2414 163.206C21.1436 161.957 6.0018 146.344 6.0018 127.251Z" fill="black"/>
<path d="M39.0586 128.143H73.5711C73.3437 137.154 69.706 145.585 63.2037 151.965C56.7468 158.388 48.1983 162.046 39.0586 162.359V128.143Z" fill="#FF928E"/>
<path d="M165.832 128.099H200.345C200.117 137.111 196.479 145.542 189.977 151.921C183.52 158.345 174.972 162.003 165.832 162.315V128.099Z" fill="#FF928E"/>
<path d="M186.066 49.2981H16.2324V54.3836H186.066V49.2981Z" fill="white" stroke="black" stroke-width="1.36915" stroke-miterlimit="10"/>
<path d="M96.7617 54.8943H105.629L96.7617 64.1731V54.8943Z" fill="black"/>
<path d="M101.126 21.61C95.0326 21.61 90.0308 17.1044 89.3488 11.3052C89.3033 11.7513 89.2578 12.1974 89.2578 12.6435C89.2578 19.0673 94.5779 24.2866 101.126 24.2866C107.674 24.2866 112.994 19.0673 112.994 12.6435C112.994 12.1974 112.948 11.7513 112.903 11.3052C112.221 17.1044 107.219 21.61 101.126 21.61Z" fill="black"/>
</svg>
