<svg width="470" height="230" viewBox="0 0 470 230" fill="none" xmlns="http://www.w3.org/2000/svg">
<g clip-path="url(#clip0_540_1453)">
<path d="M301.474 202.999C299.259 201.349 296.843 199.989 294.283 198.954C291.841 197.925 289.343 197.037 286.8 196.293C273.906 192.442 255.421 190.001 234.936 190.001C228.846 190.001 222.931 190.217 217.286 190.617C215.189 190.764 213.144 190.938 211.152 191.138C208.491 191.402 205.907 191.702 203.399 192.037C185.044 194.576 171.238 199.228 166.375 204.855C165.13 206.293 164.465 207.79 164.465 209.327C164.465 217.807 184.536 225.057 212.311 227.641C214.963 227.89 217.683 228.093 220.473 228.252C225.142 228.522 229.983 228.666 234.936 228.666C258.881 228.666 280.103 225.358 292.845 220.324C300.759 217.178 305.406 213.403 305.406 209.327C305.406 207.134 304.017 204.994 301.474 202.999Z" fill="black" stroke="black" stroke-width="0.9438" stroke-linecap="round" stroke-linejoin="round"/>
<path d="M205.771 8.17948C205.596 11.8873 209.421 11.8873 210.49 10.2604C211.56 8.63346 210.85 6.39083 211.839 5.00209C212.499 4.03525 213.282 3.15759 214.167 2.39087C212.733 2.66053 211.308 2.95266 209.897 3.28973C209.685 3.51143 209.455 3.71576 209.21 3.90089C208.589 4.33684 205.911 5.23122 205.771 8.17948Z" fill="#549CF1" stroke="black" stroke-width="1.2584" stroke-linecap="round" stroke-linejoin="round"/>
<path d="M197.138 210.077C195.075 207.902 192.329 205.273 193.394 202.473C194.172 200.437 196.747 199.444 197.313 197.34C198.212 194.06 193.816 191.947 192.392 188.869C190.967 185.79 192.783 182.127 194.302 179.035C195.821 175.943 196.886 171.75 194.392 169.35C191.34 166.411 185.718 168.819 182.351 166.249C179.561 164.114 179.866 159.853 178.307 156.703C175.889 151.818 168.761 149 169.426 143.589C169.821 140.335 172.985 138.294 175.583 136.294C178.181 134.294 180.675 130.942 179.21 128.007C177.084 123.733 172.972 126.856 169.367 123.728C166.293 121.059 166.644 115.131 162.779 113.841C160.981 113.252 159.084 114.02 157.233 114.353C155.381 114.686 153.004 114.241 152.451 112.443C152.096 111.265 152.698 109.98 152.451 108.776C152.001 106.528 149.071 105.823 146.824 106.25C144.577 106.677 142.379 107.423 140.083 107.203C135.422 106.753 132.487 102.286 132.038 99.2163C131.588 96.1466 131.786 92.8883 130.442 90.0928C130.02 89.2507 129.424 88.5073 128.694 87.911C127.965 87.3147 127.118 86.879 126.209 86.6322C124.271 94.9681 123.296 103.499 123.301 112.057C123.301 160.784 154.527 202.208 198.055 217.434C200.275 216.028 199.088 212.131 197.138 210.077Z" fill="#549CF1" stroke="black" stroke-width="1.2584" stroke-linecap="round" stroke-linejoin="round"/>
<path d="M189.318 14.4941C192.914 14.2964 193.444 11.5054 197.107 11.5908C201.669 11.6942 200.621 7.99533 198.006 6.70996C193.702 8.22273 189.495 9.99836 185.408 12.0268C185.723 13.2222 186.622 14.6469 189.318 14.4941Z" fill="#549CF1" stroke="black" stroke-width="1.2584" stroke-linecap="round" stroke-linejoin="round"/>
<path d="M215.179 213.488L231.466 198.814C233.907 196.617 236.585 193.646 235.655 190.5C235.044 188.451 232.99 186.967 232.756 184.842C232.397 181.588 236.352 179.637 239.633 179.404C242.913 179.17 246.68 179.444 248.886 177.022C252.194 173.381 248.886 167.548 249.785 162.707C250.464 158.99 253.646 155.997 253.884 152.226C254.243 146.492 247.92 142.788 242.37 141.319C236.819 139.849 230.307 138.622 227.588 133.539C226.181 130.915 225.673 127.211 222.828 126.348C221.031 125.791 219.017 126.739 217.206 126.209C213.206 125.031 213.516 118.178 209.566 116.825C205.97 115.589 202.348 120.187 198.676 119.153C195.395 118.254 194.397 113.405 191.076 112.641C186.923 111.692 182.159 121.005 176.191 119.67C170.91 118.492 173.238 111.414 170.798 108.434C168.357 105.454 163.67 107.086 164.232 103.104C164.636 100.223 166.479 95.9444 163.575 95.5309C160.429 95.0814 158.897 100.803 153.238 101.868C150.924 102.317 146.982 101.315 146.56 94.9601C146.223 89.9085 150.263 83.8996 158.731 82.6412C170.865 80.8435 170.038 86.4029 173.93 87.7737C177.822 89.1445 179.261 88.3085 181.251 84.6951C183.094 81.3423 181.368 76.5739 183.917 73.7245C185.337 72.138 187.624 71.729 189.454 70.6369C194.847 67.4234 195.498 58.9023 201.224 56.3181C204.289 54.9338 207.831 55.3832 211.193 55.1765C214.554 54.9698 218.383 52.9923 216.208 48.2463C215.624 46.9699 214.069 46.3362 213.512 45.0508C211.921 41.4554 217.48 38.5925 219.417 42.3812C223.359 50.1024 227.201 41.4104 228.855 43.8149C230.253 45.8553 227.341 48.2778 228.855 50.3811C229.556 51.3519 231.309 51.0103 232.9 51.28C234.653 51.5631 236.262 52.3586 237.215 51.4822C239.012 49.8058 238.738 47.5317 235.624 46.1834C234.887 45.8643 233.336 45.4193 233.053 44.6688C232.127 42.1834 236.334 42.0081 236.648 39.8419C237.152 36.1925 233.979 35.8599 232.662 34.1116C230.932 31.824 231.435 27.3703 228.563 28.2467C225.691 29.1231 223.875 31.1274 221.925 28.8443C220.938 27.6094 220.177 26.2096 219.678 24.7096C217.992 20.1614 210.33 21.0018 209.543 25.2984C208.298 32.0938 206.932 33.7746 203.224 35.3476C199.921 36.7498 200.078 42.9565 196.77 41.5812C195.08 40.8801 196.487 36.6959 193.454 34.2285C191.813 32.8802 188.77 33.8285 187.161 32.4578C183.678 29.4825 186.514 24.8714 188.802 24.2467C194.487 22.6871 194.195 19.7524 197.939 19.1906C201.139 18.7411 202.806 22.1838 204.959 21.5366C207.309 20.831 207.399 17.1412 209.282 15.9322C211.979 14.2064 213.273 15.9322 217.013 11.8873C219.179 9.54131 226.963 10.8627 226.9 14.0536C226.855 16.1255 220.388 16.3682 220.019 18.8221C219.822 20.1434 222.523 20.2288 224.99 20.7232C226.518 21.0288 228.172 22.2692 229.215 22.2152C231.399 22.0984 230.77 19.4783 232.905 19.1277C236.28 18.5749 239.646 18.1434 239.471 15.0154C239.313 12.3682 236.055 14.5165 235.543 10.4762C235.093 7.10095 228.918 5.66277 227.084 3.73471C225.992 2.60692 224.688 1.70575 223.246 1.08301C220.187 1.4036 217.165 1.84563 214.181 2.40892C213.296 3.17564 212.514 4.05319 211.853 5.02002C210.878 6.40876 211.584 8.64701 210.505 10.2784C209.426 11.9099 205.611 11.9053 205.786 8.19753C205.925 5.24926 208.604 4.35487 209.211 3.90544C209.456 3.72031 209.686 3.51598 209.898 3.29428C205.884 4.21844 201.925 5.3647 198.038 6.72788C200.64 8.01325 201.687 11.7121 197.139 11.6087C193.476 11.5234 192.923 14.3053 189.35 14.512C186.654 14.6649 185.755 13.2402 185.436 12.0447C170.691 19.3599 157.742 29.8396 147.513 42.7357C137.285 55.6319 130.029 70.6267 126.264 86.6501C127.173 86.8969 128.02 87.3327 128.75 87.929C129.479 88.5253 130.075 89.2687 130.497 90.1107C131.846 92.9062 131.639 96.1646 132.093 99.2342C132.547 102.304 135.477 106.771 140.138 107.221C142.416 107.441 144.632 106.695 146.879 106.268C149.126 105.841 152.07 106.546 152.506 108.794C152.74 109.998 152.137 111.283 152.506 112.461C153.059 114.259 155.436 114.708 157.288 114.371C159.139 114.034 161.05 113.27 162.834 113.859C166.699 115.131 166.348 121.05 169.422 123.746C173.018 126.892 177.139 123.746 179.265 128.025C180.73 130.959 178.236 134.317 175.638 136.312C173.04 138.308 169.876 140.357 169.481 143.606C168.816 149 175.944 151.835 178.362 156.721C179.926 159.867 179.62 164.132 182.407 166.267C185.773 168.837 191.395 166.429 194.447 169.368C196.941 171.768 195.88 175.938 194.357 179.053C192.833 182.167 190.991 185.745 192.447 188.887C193.903 192.028 198.253 194.078 197.368 197.358C196.802 199.462 194.222 200.455 193.449 202.491C192.384 205.291 195.13 207.92 197.193 210.095C199.143 212.149 200.339 216.046 198.137 217.47C202.257 218.916 206.459 220.117 210.721 221.066C210.572 218.315 212.954 215.497 215.179 213.488Z" fill="#88EB7A" stroke="black" stroke-width="1.2584" stroke-linecap="round" stroke-linejoin="round"/>
<path d="M340.204 74.8526C339.404 74.9175 338.632 75.1803 337.958 75.6173C337.284 76.0542 336.729 76.6516 336.343 77.3559C336.002 78.0301 334.568 79.6795 333.728 79.6795C329.535 79.6795 331.085 77.212 326.878 76.3671C324.865 75.9671 321.485 78.1649 320.339 76.4391C319.665 75.4324 319.467 74.192 318.991 73.0864C317.31 69.3066 311.769 67.9673 308.546 70.5605C307.589 71.3335 306.843 72.3582 305.809 73.0279C301.45 75.8458 295.85 70.7448 290.731 71.6122C289.119 71.9399 287.679 72.8398 286.679 74.1459C285.679 75.4519 285.185 77.0757 285.288 78.7176C285.378 79.6794 285.684 80.6547 285.472 81.5985C285.131 83.1041 283.625 84.021 282.21 84.6457C279.441 85.8726 277.095 85.913 274.084 88.6276C271.837 90.6545 270.291 94.0478 271.837 96.65C272.241 97.3331 272.83 97.9083 273.185 98.6184C274.92 102.043 270.754 105.598 270.407 109.405C269.999 113.922 274.776 116.969 277.059 120.888C278.857 123.971 279.756 128.384 283.23 129.135C286.704 129.885 289.769 126.016 293.355 126.11C295.477 126.164 297.441 127.62 299.553 127.382C301.225 127.193 302.569 125.989 303.989 125.081C305.409 124.173 307.337 123.562 308.703 124.546C310.07 125.53 310.151 127.427 311.288 128.56C313.054 130.308 316.425 129.458 318.07 131.323C320.317 133.872 316.865 137.737 317.373 141.094C317.849 144.272 321.548 145.75 323.454 148.334C325.485 151.085 325.305 154.869 324.586 158.222C323.867 161.575 322.703 164.909 323.058 168.307C323.341 171.004 324.977 173.7 327.323 174.752C339.9 156.27 346.611 134.425 346.577 112.07C346.585 99.392 344.43 86.8056 340.204 74.8526Z" fill="#88EB7A" stroke="black" stroke-width="1.2584" stroke-linecap="round" stroke-linejoin="round"/>
<path d="M310.039 38.7051C308.884 40.6826 308.654 43.7702 306.398 44.1747C305.682 44.233 304.961 44.149 304.277 43.9274C302.358 43.478 300.205 43.5589 298.605 44.7004C298.038 45.1078 297.586 45.6552 297.293 46.2893C297 46.9233 296.876 47.6223 296.933 48.3184C297.077 50.2779 298.637 50.6823 299.706 51.6441C300.385 52.2509 300.848 53.3116 300.331 54.0576C298.632 55.2127 296.358 54.9564 294.363 54.4531C292.21 53.9317 289.963 53.2082 287.837 53.9813C287.269 54.1911 286.759 54.534 286.351 54.9813C285.943 55.4286 285.648 55.9672 285.491 56.552C284.835 59.0598 287.253 59.4822 287.859 61.0777C288.659 63.1945 285.846 65.9181 287.41 67.536C288.232 68.3855 289.657 68.0933 290.704 67.536C291.751 66.9787 292.754 66.1877 293.936 66.1877C294.996 66.1877 295.931 66.8394 296.893 67.2888C298.569 68.0708 300.628 68.2462 302.241 67.3338C304.093 66.2821 305.037 63.572 303.459 61.8867C303.036 61.4707 302.751 60.9338 302.646 60.3496C302.416 58.7227 303.949 58.3946 305.041 58.7272C305.859 58.9743 306.592 59.4867 307.437 59.626C309.684 60.044 311.481 57.9677 312.888 56.1789C313.618 55.1973 314.523 54.3593 315.558 53.7071C315.849 53.5461 316.175 53.457 316.508 53.447C316.84 53.4371 317.171 53.5067 317.471 53.6499C317.772 53.7931 318.034 54.006 318.236 54.2707C318.437 54.5355 318.573 54.8445 318.632 55.1722C318.888 56.4029 319.484 57.5375 320.351 58.4476C321.218 59.3577 322.323 60.0071 323.54 60.3227C325.027 60.6597 326.636 60.4665 327.944 61.4912C328.247 61.7147 328.479 62.0198 328.615 62.3709C328.75 62.7219 328.782 63.1043 328.708 63.4732C328.191 65.7203 324.281 64.772 323.477 67.1855C322.942 68.772 324.142 70.372 325.796 70.6102C328.34 70.9787 330.33 68.8124 331.081 66.4933C331.881 64.0529 333.566 63.0508 334.856 62.2867C330.181 52.9341 324.219 44.2823 317.144 36.5837C314.825 35.3972 311.356 36.4355 310.039 38.7051Z" fill="#88EB7A" stroke="black" stroke-width="1.2584" stroke-linecap="round" stroke-linejoin="round"/>
<path d="M334.872 62.2865C333.582 63.0505 331.896 64.0527 331.096 66.4931C330.346 68.7942 328.355 70.9874 325.811 70.6099C324.157 70.3717 322.957 68.7717 323.492 67.1852C324.297 64.7718 328.207 65.7111 328.723 63.4729C328.798 63.1041 328.765 62.7217 328.63 62.3706C328.495 62.0196 328.262 61.7144 327.959 61.491C326.652 60.4663 325.043 60.6595 323.555 60.3224C322.338 60.0069 321.234 59.3575 320.366 58.4473C319.499 57.5372 318.904 56.4027 318.647 55.1719C318.589 54.8442 318.453 54.5352 318.251 54.2705C318.049 54.0057 317.787 53.7929 317.487 53.6496C317.186 53.5064 316.856 53.4368 316.523 53.4468C316.19 53.4567 315.865 53.5459 315.573 53.7068C314.538 54.359 313.633 55.1971 312.903 56.1787C311.501 57.9764 309.681 60.0437 307.452 59.6258C306.607 59.4685 305.874 58.9561 305.056 58.7269C303.964 58.3943 302.432 58.727 302.661 60.3494C302.767 60.9335 303.051 61.4704 303.474 61.8864C305.052 63.5718 304.108 66.2819 302.256 67.3336C300.643 68.2324 298.585 68.0706 296.908 67.2886C295.946 66.8391 295.012 66.192 293.951 66.1875C292.769 66.1875 291.762 66.983 290.72 67.5358C289.677 68.0886 288.248 68.3942 287.425 67.5358C285.848 65.9178 288.661 63.1942 287.875 61.0774C287.268 59.4819 284.85 59.0595 285.506 56.5517C285.663 55.9669 285.958 55.4283 286.367 54.981C286.775 54.5337 287.284 54.1908 287.852 53.981C289.978 53.208 292.225 53.9315 294.378 54.4528C296.373 54.9427 298.648 55.2124 300.346 54.0574C300.863 53.3113 300.4 52.2596 299.722 51.6439C298.652 50.6821 297.092 50.2956 296.949 48.3181C296.891 47.6221 297.015 46.923 297.308 46.289C297.601 45.655 298.053 45.1076 298.621 44.7002C300.221 43.5586 302.373 43.4957 304.292 43.9272C304.976 44.1488 305.697 44.2328 306.414 44.1744C308.661 43.7699 308.899 40.6824 310.054 38.7049C311.371 36.4352 314.84 35.397 317.173 36.5835C306.731 25.1806 294.029 16.0784 279.874 9.85705C265.72 3.63568 250.425 0.431645 234.963 0.449291C231.045 0.449866 227.13 0.655439 223.233 1.06506C224.674 1.68781 225.979 2.58886 227.071 3.71666C228.905 5.63573 235.098 7.0739 235.53 10.4581C236.042 14.503 239.3 12.3503 239.458 14.9974C239.642 18.1434 236.267 18.5569 232.891 19.1097C230.757 19.4602 231.386 22.0803 229.202 22.1972C228.159 22.2511 226.505 21.0108 224.977 20.7052C222.51 20.2108 219.808 20.1254 220.006 18.8041C220.375 16.3502 226.842 16.1074 226.887 14.0356C226.95 10.8446 219.166 9.54123 217 11.8693C213.26 15.9142 211.957 14.1928 209.269 15.9142C207.386 17.1231 207.296 20.813 204.946 21.5186C202.793 22.1658 201.126 18.7096 197.926 19.1725C194.164 19.7208 194.474 22.6691 188.789 24.2286C186.501 24.8533 183.665 29.4645 187.148 32.4397C188.748 33.8105 191.791 32.8892 193.44 34.2106C196.474 36.6779 195.067 40.8621 196.757 41.5632C200.074 42.9384 199.903 36.7319 203.211 35.3296C206.919 33.7566 208.285 32.0757 209.53 25.2803C210.316 20.9838 217.979 20.1433 219.665 24.6915C220.164 26.1915 220.925 27.5913 221.912 28.8263C223.862 31.1094 225.674 29.1005 228.55 28.2286C231.426 27.3567 230.918 31.8241 232.649 34.0937C233.965 35.842 237.143 36.1746 236.635 39.8239C236.334 41.9902 232.141 42.1655 233.04 44.6508C233.323 45.4014 234.873 45.8462 235.61 46.1653C238.725 47.5136 239.022 49.7878 237.201 51.4641C236.249 52.363 234.64 51.5451 232.887 51.2619C231.296 51.0057 229.543 51.3473 228.842 50.3631C227.327 48.2597 230.24 45.8372 228.842 43.7968C227.197 41.3924 223.354 50.0889 219.404 42.3632C217.467 38.5745 211.907 41.4373 213.498 45.0328C214.065 46.3181 215.62 46.9519 216.195 48.2283C218.384 52.9743 214.51 54.9697 211.179 55.1584C207.849 55.3472 204.276 54.9158 201.211 56.3C195.485 58.8842 194.838 67.4055 189.44 70.6189C187.611 71.711 185.324 72.12 183.903 73.7065C181.355 76.5558 183.081 81.3243 181.238 84.677C179.247 88.2725 177.809 89.1309 173.917 87.7557C170.025 86.3804 170.847 80.821 158.717 82.6232C150.25 83.8816 146.21 89.8904 146.547 94.942C146.969 101.297 150.911 102.286 153.225 101.85C158.897 100.78 160.416 95.0634 163.562 95.5128C166.443 95.9263 164.623 100.205 164.218 103.086C163.657 107.072 168.295 105.382 170.785 108.416C173.274 111.45 170.897 118.47 176.178 119.652C182.146 121 186.91 111.674 191.063 112.623C194.384 113.387 195.382 118.214 198.663 119.135C202.335 120.169 205.948 115.571 209.552 116.807C213.498 118.155 213.188 125.013 217.193 126.191C218.99 126.721 221.008 125.773 222.815 126.33C225.66 127.207 226.168 130.91 227.575 133.521C230.271 138.582 236.806 139.813 242.356 141.301C247.907 142.788 254.23 146.474 253.871 152.208C253.633 155.979 250.451 158.972 249.772 162.689C248.873 167.53 252.19 173.363 248.873 177.004C246.666 179.426 242.887 179.156 239.619 179.385C236.352 179.615 232.384 181.57 232.743 184.824C232.977 186.949 235.031 188.419 235.642 190.482C236.572 193.628 233.894 196.599 231.453 198.796L215.166 213.47C212.941 215.479 210.559 218.297 210.672 221.021C218.64 222.788 226.778 223.679 234.941 223.677C253.164 223.688 271.112 219.233 287.214 210.702C303.317 202.17 317.083 189.822 327.308 174.738C324.962 173.705 323.326 170.968 323.043 168.294C322.688 164.896 323.856 161.552 324.571 158.208C325.285 154.865 325.47 151.08 323.438 148.321C321.533 145.737 317.834 144.276 317.357 141.081C316.849 137.723 320.297 133.858 318.054 131.31C316.409 129.445 313.038 130.294 311.272 128.546C310.135 127.413 309.991 125.472 308.688 124.533C307.384 123.593 305.389 124.16 303.973 125.067C302.558 125.975 301.209 127.18 299.537 127.368C297.425 127.607 295.461 126.151 293.34 126.097C289.744 126.002 286.72 129.872 283.214 129.121C279.709 128.371 278.837 123.957 277.043 120.874C274.76 116.955 269.983 113.908 270.392 109.391C270.738 105.571 274.886 102.016 273.169 98.6049C272.81 97.8948 272.221 97.3195 271.821 96.6364C270.271 94.0342 271.821 90.641 274.068 88.614C277.079 85.9174 279.425 85.8591 282.194 84.6321C283.61 84.0074 285.115 83.0906 285.457 81.585C285.668 80.6412 285.362 79.666 285.272 78.7042C285.169 77.0623 285.663 75.4383 286.663 74.1323C287.664 72.8263 289.103 71.9264 290.715 71.5987C295.834 70.7268 301.434 75.8322 305.793 73.0143C306.827 72.3492 307.591 71.32 308.531 70.5469C311.753 67.9537 317.294 69.2931 318.975 73.0728C319.47 74.1784 319.667 75.4188 320.324 76.4255C321.461 78.1289 324.849 75.9536 326.863 76.3536C331.069 77.1985 329.519 79.6659 333.712 79.6659C334.553 79.6659 335.986 78.0165 336.328 77.3424C336.714 76.6381 337.268 76.0406 337.942 75.6037C338.616 75.1668 339.388 74.904 340.188 74.839C338.673 70.5508 336.897 66.3588 334.872 62.2865Z" fill="#549CF1" stroke="black" stroke-width="1.2584" stroke-linecap="round" stroke-linejoin="round"/>
<path d="M234.936 155.808C307.797 155.808 366.861 136.218 366.861 112.056C366.861 103.63 359.67 95.7601 347.23 89.0815" stroke="black" stroke-width="1.2584" stroke-linejoin="round"/>
<path d="M120.524 90.259C109.387 96.6769 102.996 104.119 102.996 112.056C102.996 123.742 116.78 134.335 139.243 142.168L145.004 144.155" stroke="black" stroke-width="1.2584" stroke-linejoin="round"/>
<path d="M365.288 42.0964C366.853 41.3923 368.488 40.853 370.164 40.4874C369.8 40.3571 369.441 40.2088 369.09 40.038C366.425 38.8213 364.166 36.8641 362.582 34.3995C360.998 31.9349 360.156 29.0669 360.156 26.1372C360.152 23.0519 361.083 20.0379 362.826 17.4918C364.568 14.9456 367.04 12.9866 369.917 11.8722C371.683 11.1826 373.563 10.829 375.459 10.8295C379.519 10.8295 383.412 12.4424 386.283 15.3131C389.154 18.1838 390.766 22.0773 390.766 26.1372C390.767 28.5396 390.199 30.908 389.111 33.0496C388.022 35.1911 386.442 37.0451 384.501 38.4605C384.42 38.4875 384.344 38.528 384.268 38.555H384.339C383.232 39.3484 382.022 39.9893 380.744 40.4606C388.933 42.2313 395.526 47.984 398.2 55.4895C403.744 49.6763 406.833 41.9496 406.824 33.9168C406.823 25.6092 403.523 17.6422 397.648 11.7678C391.774 5.89341 383.807 2.59274 375.499 2.59155C367.192 2.59274 359.224 5.89341 353.35 11.7678C347.476 17.6422 344.175 25.6092 344.174 33.9168C344.163 41.9086 347.219 49.5999 352.713 55.4041C353.812 52.4572 355.491 49.7609 357.651 47.475C359.811 45.1891 362.408 43.3601 365.288 42.0964Z" fill="#FF9FBF" stroke="black" stroke-width="1.2584" stroke-linejoin="round"/>
<path d="M380.699 40.97C381.977 40.4988 383.186 39.8578 384.294 39.0644H384.222C384.299 39.0375 384.375 38.997 384.456 38.9701C386.397 37.5547 387.976 35.7007 389.065 33.5591C390.154 31.4176 390.721 29.0491 390.721 26.6467C390.721 22.5869 389.108 18.6934 386.237 15.8227C383.367 12.9519 379.473 11.3391 375.413 11.3391C373.517 11.3385 371.638 11.6922 369.872 12.3818C366.995 13.4961 364.522 15.4552 362.78 18.0013C361.038 20.5475 360.107 23.5615 360.11 26.6467C360.11 29.5765 360.952 32.4445 362.536 34.9091C364.12 37.3737 366.38 39.3309 369.045 40.5476C369.395 40.7094 369.755 40.8577 370.119 40.997C368.442 41.3626 366.808 41.9019 365.243 42.606C362.363 43.8747 359.768 45.7087 357.611 47.9993C355.454 50.2899 353.779 52.9904 352.686 55.9406C354.182 57.5268 355.838 58.9531 357.629 60.1967C362.866 63.8389 369.093 65.7873 375.472 65.7787C381.85 65.7864 388.077 63.8382 393.314 60.1967C395.071 58.9756 396.699 57.5781 398.172 56.0259C395.48 48.4935 388.887 42.7408 380.699 40.97Z" fill="white" stroke="black" stroke-width="1.2584" stroke-linecap="round" stroke-linejoin="round"/>
<path d="M386.537 55.0956C392.809 55.0956 397.894 50.0108 397.894 43.7385C397.894 37.4661 392.809 32.3813 386.537 32.3813C380.264 32.3813 375.18 37.4661 375.18 43.7385C375.18 50.0108 380.264 55.0956 386.537 55.0956Z" fill="#88EB79" stroke="black" stroke-width="1.2584" stroke-linecap="round" stroke-linejoin="round"/>
<path d="M386.473 37.8916V49.5858" stroke="black" stroke-width="1.2584" stroke-linecap="round" stroke-linejoin="round"/>
<path d="M392.321 43.7385H380.627" stroke="black" stroke-width="1.2584" stroke-linecap="round" stroke-linejoin="round"/>
<path d="M176.64 150.932C178.205 150.228 179.839 149.689 181.516 149.323C181.152 149.188 180.792 149.04 180.442 148.874C177.776 147.657 175.516 145.699 173.932 143.233C172.348 140.768 171.506 137.899 171.507 134.968C171.508 131.884 172.441 128.872 174.183 126.327C175.924 123.782 178.394 121.821 181.269 120.703C183.037 120.015 184.918 119.663 186.815 119.665C190.873 119.666 194.765 121.279 197.634 124.149C200.504 127.018 202.117 130.91 202.118 134.968C202.121 137.373 201.554 139.744 200.466 141.888C199.377 144.033 197.796 145.889 195.853 147.305L195.619 147.404H195.691C194.582 148.196 193.373 148.837 192.096 149.31C200.284 151.076 206.877 156.833 209.551 164.339C215.094 158.525 218.183 150.799 218.176 142.766C218.176 138.652 217.366 134.579 215.792 130.778C214.217 126.978 211.91 123.525 209.001 120.616C206.092 117.707 202.639 115.399 198.838 113.825C195.038 112.251 190.964 111.441 186.851 111.441C178.543 111.441 170.575 114.741 164.7 120.616C158.826 126.49 155.525 134.458 155.525 142.766C155.515 150.758 158.572 158.449 164.065 164.253C165.161 161.304 166.839 158.604 169 156.316C171.16 154.028 173.758 152.197 176.64 150.932Z" fill="#BC85FC" stroke="black" stroke-width="1.2584" stroke-miterlimit="10"/>
<path d="M192.109 149.323C193.386 148.85 194.595 148.209 195.704 147.418H195.632L195.866 147.319C197.807 145.904 199.387 144.05 200.476 141.908C201.564 139.767 202.132 137.398 202.131 134.996C202.13 130.937 200.517 127.045 197.648 124.176C194.778 121.306 190.886 119.694 186.828 119.692C184.931 119.69 183.05 120.042 181.282 120.731C178.407 121.849 175.938 123.809 174.196 126.354C172.454 128.899 171.521 131.911 171.52 134.996C171.519 137.926 172.361 140.795 173.945 143.26C175.529 145.726 177.789 147.684 180.455 148.901C180.806 149.058 181.165 149.206 181.529 149.35C179.852 149.716 178.218 150.255 176.653 150.959C173.773 152.227 171.178 154.061 169.021 156.352C166.863 158.642 165.189 161.343 164.096 164.294C165.592 165.879 167.248 167.304 169.039 168.545C174.275 172.19 180.503 174.14 186.882 174.132C193.261 174.14 199.489 172.19 204.724 168.545C206.48 167.325 208.108 165.929 209.583 164.379C206.89 156.847 200.297 151.09 192.109 149.323Z" fill="white" stroke="black" stroke-width="1.2584" stroke-linecap="round" stroke-linejoin="round"/>
<path d="M197.947 163.444C204.219 163.444 209.304 158.36 209.304 152.087C209.304 145.815 204.219 140.73 197.947 140.73C191.675 140.73 186.59 145.815 186.59 152.087C186.59 158.36 191.675 163.444 197.947 163.444Z" fill="#88EB79" stroke="black" stroke-width="1.2584" stroke-linecap="round" stroke-linejoin="round"/>
<path d="M197.885 146.24V157.939" stroke="black" stroke-width="1.2584" stroke-linecap="round" stroke-linejoin="round"/>
<path d="M203.736 152.087H192.037" stroke="black" stroke-width="1.2584" stroke-linecap="round" stroke-linejoin="round"/>
<path d="M328.919 190.172C330.483 189.467 332.115 188.928 333.791 188.563C333.427 188.428 333.072 188.28 332.721 188.114C330.055 186.898 327.795 184.941 326.21 182.476C324.625 180.011 323.783 177.143 323.782 174.213C323.782 171.128 324.715 168.115 326.456 165.568C328.198 163.022 330.669 161.062 333.544 159.943C335.312 159.258 337.193 158.906 339.09 158.905C343.145 158.911 347.033 160.527 349.898 163.397C352.763 166.267 354.372 170.157 354.37 174.213C354.371 176.615 353.804 178.982 352.715 181.123C351.626 183.264 350.047 185.117 348.105 186.532L347.872 186.63H347.944C346.836 187.424 345.627 188.065 344.348 188.536C352.532 190.302 359.125 196.059 361.799 203.565C367.345 197.753 370.434 190.025 370.424 181.992C370.425 177.878 369.615 173.805 368.041 170.004C366.467 166.203 364.159 162.75 361.25 159.841C358.341 156.932 354.888 154.624 351.087 153.05C347.286 151.476 343.213 150.666 339.099 150.667C330.791 150.667 322.823 153.967 316.948 159.842C311.074 165.717 307.773 173.684 307.773 181.992C307.765 189.984 310.821 197.674 316.313 203.48C317.415 200.53 319.099 197.832 321.264 195.545C323.43 193.259 326.033 191.432 328.919 190.172Z" fill="#FEC56D" stroke="black" stroke-width="1.2584" stroke-miterlimit="10"/>
<path d="M344.372 188.563C345.651 188.092 346.86 187.451 347.968 186.657H347.896L348.13 186.559C350.071 185.144 351.651 183.291 352.739 181.15C353.828 179.01 354.395 176.641 354.395 174.24C354.396 170.184 352.787 166.294 349.922 163.424C347.057 160.554 343.17 158.938 339.114 158.932C337.217 158.933 335.337 159.285 333.568 159.97C330.693 161.089 328.223 163.049 326.481 165.595C324.739 168.142 323.807 171.155 323.806 174.24C323.807 177.17 324.65 180.038 326.235 182.503C327.819 184.967 330.08 186.925 332.746 188.141C333.096 188.298 333.451 188.446 333.815 188.59C332.14 188.955 330.507 189.494 328.943 190.199C326.059 191.464 323.459 193.297 321.297 195.588C319.135 197.879 317.456 200.581 316.359 203.534C317.857 205.116 319.514 206.541 321.303 207.785C326.539 211.429 332.767 213.379 339.146 213.372C345.525 213.381 351.753 211.431 356.988 207.785C358.745 206.565 360.373 205.169 361.846 203.619C359.168 196.087 352.574 190.329 344.372 188.563Z" fill="white" stroke="black" stroke-width="1.2584" stroke-linecap="round" stroke-linejoin="round"/>
<path d="M350.222 202.688C356.495 202.688 361.579 197.604 361.579 191.331C361.579 185.059 356.495 179.974 350.222 179.974C343.95 179.974 338.865 185.059 338.865 191.331C338.865 197.604 343.95 202.688 350.222 202.688Z" fill="#88EB79" stroke="black" stroke-width="1.2584" stroke-linecap="round" stroke-linejoin="round"/>
<path d="M350.164 185.48V197.179" stroke="black" stroke-width="1.2584" stroke-linecap="round" stroke-linejoin="round"/>
<path d="M356.011 191.327H344.312" stroke="black" stroke-width="1.2584" stroke-linecap="round" stroke-linejoin="round"/>
<path d="M387.795 79.4683C375.432 73.0999 359.553 67.5584 341.055 63.136" stroke="black" stroke-width="1.2584" stroke-linecap="round" stroke-linejoin="round"/>
<path d="M338.943 42.2194C335.752 41.6951 332.524 41.1933 329.258 40.7139" stroke="black" stroke-width="1.2584" stroke-linejoin="round"/>
<path d="M381.439 172.662C435.079 158.411 469.424 136.505 469.424 111.94C469.424 91.8006 446.342 73.4458 408.477 59.6348" stroke="black" stroke-width="1.2584" stroke-linecap="round" stroke-linejoin="round"/>
<path d="M110.951 177.961C146.906 185.408 189.413 189.709 234.936 189.709C254.962 189.709 274.4 188.878 292.957 187.309" stroke="black" stroke-width="1.2584" stroke-linejoin="round"/>
<path d="M43.3339 67.0908C16.3186 79.7648 0.449219 95.2387 0.449219 111.94C0.449219 128.016 15.1546 142.95 40.3541 155.35" stroke="black" stroke-width="1.2584" stroke-linejoin="round"/>
<path d="M144.546 40.1565C133.76 41.6486 123.423 43.4013 113.535 45.3923" stroke="black" stroke-width="1.2584" stroke-linejoin="round"/>
<path d="M369.441 152.568C380.718 148.451 390.299 143.818 397.823 138.784" stroke="black" stroke-width="1.2584" stroke-linejoin="round"/>
<path d="M219.215 172.091C224.395 172.238 229.639 172.313 234.945 172.316C256.434 172.351 277.904 171.053 299.231 168.428" stroke="black" stroke-width="1.2584" stroke-linejoin="round"/>
<path d="M110.865 156.078C121.929 159.459 133.173 162.216 144.546 164.339" stroke="black" stroke-width="1.2584" stroke-linejoin="round"/>
<path d="M59.9452 95.7827C55.5812 100.96 53.2441 106.416 53.2441 112.057C53.2441 120.007 57.8867 127.598 66.3226 134.528" stroke="black" stroke-width="1.2584" stroke-linejoin="round"/>
<path d="M130.115 62.8125C125.998 63.7803 122.009 64.8005 118.146 65.8731" stroke="black" stroke-width="1.2584" stroke-linejoin="round"/>
<path d="M64.0705 176.833C65.6083 176.142 67.214 175.613 68.8615 175.255C68.5019 175.121 68.1514 174.977 67.8098 174.806C65.19 173.61 62.9692 171.687 61.4122 169.264C59.8551 166.842 59.0275 164.023 59.0279 161.143C59.0284 158.113 59.9443 155.153 61.6556 152.651C63.367 150.15 65.7941 148.224 68.6188 147.126C70.3554 146.45 72.2026 146.104 74.0659 146.105C78.0546 146.109 81.8786 147.697 84.6969 150.519C87.5153 153.342 89.0972 157.168 89.0948 161.157C89.0949 163.518 88.5368 165.847 87.466 167.951C86.3952 170.056 84.842 171.878 82.9331 173.269C82.8567 173.296 82.7848 173.332 82.7039 173.363H82.7758C81.6924 174.141 80.5105 174.771 79.2613 175.237C87.3016 176.972 93.7824 182.626 96.4116 190.001C101.858 184.288 104.892 176.695 104.883 168.802C104.883 160.638 101.64 152.808 95.8676 147.036C90.095 141.263 82.2656 138.02 74.1018 138.02C65.9384 138.021 58.1097 141.265 52.3373 147.037C46.565 152.809 43.3215 160.638 43.3203 168.802C43.3107 176.659 46.3174 184.22 51.7202 189.925C52.7967 187.027 54.4446 184.374 56.5662 182.125C58.6878 179.876 61.2398 178.076 64.0705 176.833Z" fill="#FEC56D" stroke="black" stroke-width="1.2584" stroke-miterlimit="10"/>
<path d="M79.2753 175.255C80.5297 174.787 81.7162 174.154 82.8033 173.372H82.7314C82.8123 173.341 82.8842 173.305 82.9606 173.278C84.8658 171.884 86.4145 170.059 87.4806 167.953C88.5467 165.846 89.1 163.518 89.0953 161.157C89.0942 157.168 87.5088 153.343 84.6879 150.523C81.8671 147.703 78.0416 146.119 74.0529 146.119C72.1896 146.118 70.3424 146.464 68.6058 147.139C65.7811 148.237 63.3541 150.164 61.6427 152.665C59.9313 155.166 59.0154 158.126 59.015 161.157C59.0145 164.036 59.8422 166.856 61.3992 169.278C62.9563 171.7 65.177 173.624 67.7968 174.819C68.1384 174.977 68.489 175.121 68.8485 175.269C67.201 175.627 65.5953 176.155 64.0576 176.846C61.2281 178.093 58.6779 179.895 56.5586 182.147C54.4393 184.398 52.7941 187.052 51.7207 189.952C53.1873 191.51 54.8126 192.911 56.5701 194.131C61.714 197.71 67.8319 199.623 74.0979 199.615C80.3638 199.623 86.4816 197.709 91.6256 194.131C93.3506 192.929 94.9496 191.556 96.3986 190.033C93.7964 182.644 87.2976 176.99 79.2753 175.255Z" fill="white" stroke="black" stroke-width="1.2584" stroke-linecap="round" stroke-linejoin="round"/>
<path d="M85.0051 189.129C91.1682 189.129 96.1644 184.133 96.1644 177.97C96.1644 171.807 91.1682 166.811 85.0051 166.811C78.8419 166.811 73.8457 171.807 73.8457 177.97C73.8457 184.133 78.8419 189.129 85.0051 189.129Z" fill="#88EB79" stroke="black" stroke-width="1.2584" stroke-linecap="round" stroke-linejoin="round"/>
<path d="M84.9453 172.226V183.718" stroke="black" stroke-width="1.2584" stroke-linecap="round" stroke-linejoin="round"/>
<path d="M90.6951 177.97H79.2031" stroke="black" stroke-width="1.2584" stroke-linecap="round" stroke-linejoin="round"/>
<path d="M399.957 114.83C401.493 114.138 403.098 113.609 404.744 113.252C404.389 113.122 404.038 112.973 403.692 112.803C401.073 111.607 398.853 109.684 397.296 107.263C395.74 104.841 394.911 102.023 394.91 99.1445C394.91 96.1136 395.826 93.1534 397.537 90.6519C399.249 88.1505 401.676 86.2245 404.501 85.1267C406.239 84.4499 408.088 84.1025 409.953 84.1021C413.942 84.1033 417.766 85.6886 420.586 88.5095C423.407 91.3303 424.991 95.1558 424.991 99.1445C424.992 101.505 424.434 103.833 423.364 105.937C422.294 108.041 420.742 109.862 418.834 111.252C418.757 111.284 418.681 111.32 418.604 111.346H418.676C417.591 112.124 416.408 112.754 415.157 113.221C423.202 114.955 429.678 120.614 432.307 127.989C437.756 122.277 440.792 114.683 440.784 106.789C440.784 102.747 439.989 98.7438 438.442 95.009C436.895 91.2741 434.628 87.8805 431.769 85.0221C428.911 82.1637 425.517 79.8964 421.782 78.3497C418.048 76.803 414.045 76.0072 410.002 76.0078C405.96 76.0072 401.957 76.803 398.222 78.3497C394.487 79.8964 391.094 82.1637 388.235 85.0221C385.377 87.8805 383.109 91.2741 381.563 95.009C380.016 98.7438 379.22 102.747 379.221 106.789C379.21 114.646 382.215 122.207 387.616 127.913C388.693 125.017 390.34 122.367 392.46 120.12C394.58 117.872 397.13 116.073 399.957 114.83Z" fill="#82DEB4" stroke="black" stroke-width="1.2584" stroke-miterlimit="10"/>
<path d="M415.156 113.252C416.407 112.785 417.59 112.155 418.675 111.378H418.603C418.68 111.351 418.756 111.315 418.833 111.283C420.741 109.894 422.293 108.072 423.363 105.968C424.434 103.864 424.991 101.536 424.99 99.1757C424.99 95.187 423.406 91.3616 420.586 88.5407C417.766 85.7198 413.941 84.1345 409.952 84.1333C408.087 84.1338 406.238 84.4812 404.5 85.158C401.675 86.2559 399.248 88.1817 397.536 90.6832C395.825 93.1846 394.909 96.1448 394.909 99.1757C394.91 102.055 395.739 104.872 397.296 107.294C398.853 109.715 401.073 111.638 403.691 112.834C404.037 112.991 404.388 113.14 404.743 113.283C403.097 113.64 401.493 114.169 399.957 114.861C397.127 116.107 394.576 117.91 392.456 120.161C390.336 122.412 388.69 125.067 387.615 127.966C389.083 129.525 390.71 130.925 392.469 132.146C397.613 135.725 403.73 137.641 409.997 137.634C416.263 137.641 422.381 135.725 427.525 132.146C429.25 130.947 430.85 129.575 432.298 128.052C429.677 120.645 423.201 114.987 415.156 113.252Z" fill="white" stroke="black" stroke-width="1.2584" stroke-linecap="round" stroke-linejoin="round"/>
<path d="M420.892 127.13C427.055 127.13 432.051 122.134 432.051 115.971C432.051 109.808 427.055 104.812 420.892 104.812C414.729 104.812 409.732 109.808 409.732 115.971C409.732 122.134 414.729 127.13 420.892 127.13Z" fill="#88EB79" stroke="black" stroke-width="1.2584" stroke-linecap="round" stroke-linejoin="round"/>
<path d="M420.834 110.223V121.715" stroke="black" stroke-width="1.2584" stroke-linecap="round" stroke-linejoin="round"/>
<path d="M426.578 115.971H415.086" stroke="black" stroke-width="1.2584" stroke-linecap="round" stroke-linejoin="round"/>
<path d="M68.4649 70.8256C70.0007 70.1325 71.6049 69.6022 73.2513 69.2436C72.8947 69.1148 72.5442 68.965 72.1996 68.7942C69.5808 67.5973 67.361 65.6734 65.8041 63.2513C64.2473 60.8291 63.419 58.0108 63.4178 55.1314C63.4188 52.1008 64.3349 49.1412 66.0463 46.64C67.7576 44.1388 70.1842 42.2126 73.0086 41.1137C74.7468 40.4384 76.5954 40.0924 78.4602 40.0935C80.4384 40.0935 82.3972 40.4839 84.2243 41.2421C86.0514 42.0004 87.711 43.1116 89.108 44.5123C90.5049 45.913 91.6117 47.5756 92.3651 49.4047C93.1184 51.2339 93.5035 53.1937 93.4981 55.1719C93.498 57.5324 92.9403 59.8595 91.8703 61.9635C90.8003 64.0676 89.2484 65.889 87.3409 67.2796C87.2645 67.311 87.1881 67.347 87.1117 67.3739H87.1791C86.0972 68.1538 84.9151 68.7843 83.6646 69.2481C91.7094 70.9874 98.1857 76.6412 100.815 84.0163C106.265 78.3034 109.301 70.708 109.291 62.8122C109.29 54.6489 106.047 46.8202 100.274 41.0478C94.5017 35.2754 86.673 32.032 78.5096 32.0308C70.349 32.0355 62.5242 35.2807 56.7554 41.0528C50.9867 46.825 47.7461 54.6516 47.7461 62.8122C47.7366 70.6686 50.7415 78.2291 56.1415 83.9355C57.2119 81.0358 58.8545 78.381 60.9715 76.1288C63.0886 73.8767 65.6369 72.0732 68.4649 70.8256Z" fill="#FF8782" stroke="black" stroke-width="1.2584" stroke-miterlimit="10"/>
<path d="M83.6661 69.2439C84.9165 68.7801 86.0987 68.1496 87.1806 67.3697H87.1132C87.1896 67.3427 87.266 67.3068 87.3424 67.2753C89.2493 65.8853 90.8008 64.0645 91.8708 61.9613C92.9407 59.8581 93.4988 57.5319 93.4996 55.1722C93.4996 51.1839 91.9153 47.3589 89.0951 44.5387C86.275 41.7186 82.45 40.1343 78.4617 40.1343C76.5969 40.1332 74.7483 40.4792 73.0101 41.1545C70.1857 42.2534 67.7591 44.1796 66.0477 46.6808C64.3364 49.182 63.4203 52.1416 63.4192 55.1722C63.4205 58.0515 64.2488 60.8699 65.8056 63.292C67.3625 65.7141 69.5823 67.638 72.2011 68.8349C72.5457 68.9937 72.8962 69.1435 73.2528 69.2843C71.6064 69.6429 70.0022 70.1731 68.4664 70.8663C65.6389 72.1073 63.0895 73.9037 60.9695 76.1487C58.8495 78.3938 57.2021 81.0419 56.125 83.9358C57.5944 85.4914 59.2211 86.8906 60.9788 88.111C66.1224 91.6904 72.2402 93.6057 78.5066 93.5985C84.7731 93.6057 90.8909 91.6904 96.0344 88.111C97.7601 86.9116 99.3594 85.5397 100.807 84.0166C98.1872 76.637 91.7109 70.9832 83.6661 69.2439Z" fill="white" stroke="black" stroke-width="1.2584" stroke-linecap="round" stroke-linejoin="round"/>
<path d="M89.4015 83.1222C95.5647 83.1222 100.561 78.126 100.561 71.9628C100.561 65.7997 95.5647 60.8035 89.4015 60.8035C83.2384 60.8035 78.2422 65.7997 78.2422 71.9628C78.2422 78.126 83.2384 83.1222 89.4015 83.1222Z" fill="#88EB79" stroke="black" stroke-width="1.2584" stroke-linecap="round" stroke-linejoin="round"/>
<path d="M89.3418 66.2146V77.711" stroke="black" stroke-width="1.2584" stroke-linecap="round" stroke-linejoin="round"/>
<path d="M95.0857 71.9629H83.5938" stroke="black" stroke-width="1.2584" stroke-linecap="round" stroke-linejoin="round"/>
</g>
<defs>
<clipPath id="clip0_540_1453">
<rect width="469.875" height="229.039" fill="white"/>
</clipPath>
</defs>
</svg>
