<svg width="24" height="24" viewBox="0 0 24 24" fill="none" xmlns="http://www.w3.org/2000/svg">
<path d="M11.1405 1.66851L3.90081 7.29937C3.33244 7.74144 3 8.42115 3 9.1412V18.6667C3 19.9553 4.04467 21 5.33333 21H7.6C8.3732 21 9 20.3732 9 19.6V12.4C9 11.6268 9.6268 11 10.4 11H13.6C14.3732 11 15 11.6268 15 12.4V19.6C15 20.3732 15.6268 21 16.4 21H18.6667C19.9553 21 21 19.9553 21 18.6667V9.1412C21 8.42115 20.6676 7.74144 20.0992 7.29938L12.8595 1.66851C12.354 1.2753 11.646 1.2753 11.1405 1.66851Z" stroke="#FEFEFE" stroke-width="2"/>
</svg>
