<svg width="119" height="43" viewBox="0 0 119 43" fill="none" xmlns="http://www.w3.org/2000/svg">
<path d="M6.62767 8.1024C7.86667 9.1054 8.33867 9.0464 10.679 8.88907L32.745 7.5714C33.217 7.5714 32.8237 7.0994 32.6663 7.02073L29.0083 4.36573C28.3003 3.81507 27.376 3.2054 25.5863 3.34307L4.22833 4.89674C3.44167 4.9754 3.28433 5.36874 3.599 5.6834L6.62767 8.1024ZM7.94534 13.2354V36.4421C7.94534 37.6811 8.57467 38.1531 9.971 38.0744L34.22 36.6781C35.6163 36.5994 35.7737 35.7341 35.7737 34.7311V11.6817C35.7737 10.6787 35.3803 10.1281 34.5347 10.2067L9.204 11.6817C8.26 11.7604 7.94534 12.2324 7.94534 13.2354ZM31.8797 14.4941C32.037 15.2021 31.8797 15.8904 31.1717 15.9691L30.0113 16.2051V33.3348C28.9887 33.8854 28.0643 34.2001 27.2777 34.2001C26.0387 34.2001 25.724 33.8068 24.78 32.6464L17.1297 20.6497V32.2531L19.5487 32.8037C19.5487 32.8037 19.5487 34.2001 17.6017 34.2001L12.2327 34.5148C12.0753 34.2001 12.2327 33.4331 12.7833 33.2757L14.1797 32.8824V17.5424L12.2327 17.3851C12.0753 16.6771 12.4687 15.6741 13.5503 15.5954L19.3127 15.2021L27.258 27.3561V16.5984L25.2323 16.3624C25.075 15.4971 25.7043 14.8874 26.4713 14.8087L31.8797 14.4941ZM2.419 2.81207L24.6423 1.17973C27.376 0.943732 28.0643 1.10107 29.795 2.34007L36.8947 7.31573C38.0747 8.18107 38.4483 8.39741 38.4483 9.34141V36.6781C38.4483 38.3891 37.819 39.4118 35.636 39.5691L9.83334 41.1228C8.201 41.2014 7.41434 40.9654 6.549 39.8838L1.31767 33.0988C0.373667 31.8597 0 30.9157 0 29.8341V5.52607C0 4.12973 0.629333 2.9694 2.419 2.81207Z" fill="white"/>
<path d="M59.7872 34.4559H57.0339L49.0886 19.4502V34.4559H47.0039V17.6802H50.4652L57.7222 31.3682V17.6802H59.8069V34.4559H59.7872Z" fill="white"/>
<path d="M74.7949 28.1808C74.7949 30.2262 74.2639 31.8388 73.2215 33.0385C72.1792 34.2185 70.7632 34.8085 68.9932 34.8085C67.2232 34.8085 65.8072 34.2185 64.7452 33.0385C63.7029 31.8585 63.1719 30.2262 63.1719 28.1808C63.1719 26.1355 63.7029 24.5032 64.7452 23.3232C65.7875 22.1432 67.2035 21.5335 68.9932 21.5335C70.7632 21.5335 72.1595 22.1235 73.2215 23.3232C74.2639 24.5032 74.7949 26.1355 74.7949 28.1808ZM72.6119 28.1808C72.6119 26.5485 72.2972 25.3488 71.6482 24.5425C71.0189 23.7558 70.1339 23.3625 68.9932 23.3625C67.8525 23.3625 66.9479 23.7558 66.3185 24.5425C65.6892 25.3292 65.3745 26.5485 65.3745 28.1808C65.3745 29.7542 65.6892 30.9538 66.3382 31.7602C66.9675 32.5665 67.8722 32.9795 69.0129 32.9795C70.1339 32.9795 71.0189 32.5665 71.6679 31.7602C72.2972 30.9735 72.6119 29.7738 72.6119 28.1808Z" fill="white"/>
<path d="M84.6054 34.3572C84.212 34.4555 83.7794 34.5538 83.3074 34.6128C82.8354 34.6718 82.4224 34.7112 82.0487 34.7112C80.7704 34.7112 79.787 34.3572 79.1184 33.6688C78.4497 32.9805 78.1154 31.8792 78.1154 30.3452V23.6585H76.6797V21.8885H78.1154V18.2698H80.2394V21.8885H84.6054V23.6585H80.2394V29.3815C80.2394 30.0502 80.259 30.5615 80.2787 30.9352C80.318 31.3088 80.4164 31.6628 80.5934 31.9775C80.7507 32.2725 80.9867 32.4888 81.2817 32.6265C81.5767 32.7642 82.0094 32.8428 82.5994 32.8428C82.9534 32.8428 83.3074 32.7838 83.681 32.6855C84.0547 32.5872 84.33 32.5085 84.4874 32.4298H84.6054V34.3572Z" fill="white"/>
<path d="M89.4265 19.784H87.0469V17.5814H89.4265V19.784ZM89.2889 34.4554H87.1649V21.8687H89.2889V34.4554Z" fill="white"/>
<path d="M104.213 28.1808C104.213 30.2262 103.682 31.8388 102.64 33.0385C101.597 34.2185 100.181 34.8085 98.4112 34.8085C96.6412 34.8085 95.2252 34.2185 94.1632 33.0385C93.1208 31.8585 92.5898 30.2262 92.5898 28.1808C92.5898 26.1355 93.1208 24.5032 94.1632 23.3232C95.2055 22.1432 96.6215 21.5335 98.4112 21.5335C100.181 21.5335 101.578 22.1235 102.64 23.3232C103.682 24.5032 104.213 26.1355 104.213 28.1808ZM102.01 28.1808C102.01 26.5485 101.696 25.3488 101.047 24.5425C100.417 23.7558 99.5322 23.3625 98.3915 23.3625C97.2508 23.3625 96.3462 23.7558 95.7168 24.5425C95.0875 25.3292 94.7728 26.5485 94.7728 28.1808C94.7728 29.7542 95.0875 30.9538 95.7365 31.7602C96.3658 32.5665 97.2705 32.9795 98.4112 32.9795C99.5322 32.9795 100.417 32.5665 101.066 31.7602C101.696 30.9735 102.01 29.7738 102.01 28.1808Z" fill="white"/>
<path d="M118.001 34.4549H115.877V27.2962C115.877 26.7259 115.838 26.1752 115.779 25.6639C115.72 25.1525 115.582 24.7592 115.405 24.4839C115.208 24.1692 114.953 23.9332 114.599 23.7759C114.245 23.6185 113.792 23.5399 113.222 23.5399C112.652 23.5399 112.042 23.6775 111.413 23.9725C110.783 24.2675 110.174 24.6215 109.603 25.0739V34.4746H107.479V21.8879H109.603V23.2842C110.272 22.7335 110.941 22.3009 111.649 22.0059C112.357 21.6912 113.084 21.5535 113.832 21.5535C115.189 21.5535 116.231 21.9665 116.939 22.7729C117.647 23.5989 118.001 24.7789 118.001 26.3129V34.4549Z" fill="white"/>
</svg>
