<svg width="1440" height="377" viewBox="0 0 1440 377" fill="none" xmlns="http://www.w3.org/2000/svg">
<path d="M789.5 125L787.056 111.556C785.222 99.9444 776.056 90.7778 764.444 88.9444L751 86.5L764.444 84.0555C776.056 82.2222 785.222 73.0555 787.056 61.4444L789.5 48L791.944 61.4444C793.778 73.0555 802.944 82.2222 814.556 84.0555L828 86.5L814.556 88.9444C802.944 90.7778 793.778 99.9444 791.944 111.556L789.5 125Z" fill="white" stroke="black" stroke-width="1.00948" stroke-miterlimit="10" stroke-linejoin="round"/>
<path d="M1125.92 82.9618L1117.13 56.8067L1132.15 51.7617L1140.95 77.9168L1166.44 69.3428L1171.36 83.9555L1145.86 92.5295L1154.71 118.837L1139.68 123.882L1130.84 97.5745L1105.48 106.098L1100.57 91.4848L1125.92 82.9618Z" fill="#FFC664" stroke="black" stroke-width="1.58144" stroke-miterlimit="10"/>
<path d="M1230.85 40.7544C1241.76 43.8629 1248.62 55.2651 1245.43 66.4126C1242.21 77.7002 1230.45 83.5096 1219.54 80.401C1208.5 77.2543 1201.89 65.9285 1205.04 54.8957C1208.22 43.7482 1219.93 37.6458 1230.84 40.7544H1230.85ZM1199.78 118.442L1277.78 55.5709L1291.85 59.584L1213.86 122.456L1199.79 118.442H1199.78ZM1222.76 69.1389C1227.37 70.4512 1231.77 67.9032 1233.2 62.9346C1234.61 57.966 1232.19 53.5962 1227.58 52.284C1222.97 50.9718 1218.6 53.3924 1217.18 58.361C1215.77 63.3295 1218.29 67.8522 1222.76 69.1389ZM1271.96 97.6C1282.87 100.709 1289.72 112.111 1286.54 123.258C1283.35 134.406 1271.55 140.355 1260.64 137.247C1249.61 134.1 1243 122.774 1246.14 111.741C1249.33 100.581 1261.04 94.4914 1271.95 97.6H1271.96ZM1263.87 125.972C1268.48 127.284 1272.88 124.736 1274.3 119.767C1275.73 114.799 1273.3 110.429 1268.68 109.117C1264.2 107.843 1259.7 110.225 1258.29 115.194C1256.87 120.162 1259.39 124.685 1263.87 125.972Z" fill="#F8BC20" stroke="black" stroke-width="1.58144" stroke-miterlimit="10"/>
<path d="M1160.65 77.9806L1163.92 62.4124L1234.46 77.2289L1231.19 92.7971L1160.65 77.9806ZM1154.57 106.938L1157.87 91.2301L1228.41 106.047L1225.11 121.755L1154.57 106.938Z" fill="#FCEE70" stroke="black" stroke-width="1.58144" stroke-miterlimit="10"/>
<path d="M1159.22 176.282C1157.62 176.282 1156.34 174.996 1156.34 173.403V168.014C1156.34 161.733 1161.45 156.625 1167.73 156.625H1228.11C1234.39 156.625 1239.5 161.733 1239.5 168.014V173.403C1239.5 174.996 1238.22 176.282 1236.62 176.282C1235.03 176.282 1233.74 174.996 1233.74 173.403V168.014C1233.74 164.918 1231.22 162.396 1228.13 162.396H1167.73C1164.63 162.396 1162.11 164.918 1162.11 168.014V173.403C1162.11 174.996 1160.82 176.282 1159.23 176.282H1159.22Z" fill="#97DDE5" stroke="black" stroke-width="1.58144" stroke-miterlimit="10"/>
<path d="M1293.75 361.011H1102.41V366.54C1102.41 370.273 1107.92 373.037 1113 373.037H1282.71C1287.49 373.037 1293.66 370.948 1293.73 366.54V361.011H1293.75Z" fill="#97DDE5" stroke="black" stroke-width="1.58144" stroke-miterlimit="10"/>
<path d="M1263.74 300.178H1132V355.495H1263.74V300.178Z" fill="#4AC7D3" stroke="black" stroke-width="1.58144" stroke-miterlimit="10"/>
<path d="M1292.03 364.553C1293.65 363.036 1294.27 360.985 1293.22 358.527L1272.52 303.49H1263.74V355.494L1292.03 364.553Z" fill="#008D98" stroke="black" stroke-width="1.58144" stroke-miterlimit="10"/>
<path d="M1132 303.49H1123.21L1102.5 358.527C1101.83 360.871 1102.5 362.896 1104.04 364.438L1132 355.507V303.503V303.49Z" fill="#97DDE5" stroke="black" stroke-width="1.58144" stroke-miterlimit="10"/>
<path d="M1263.74 355.507H1132L1104.04 364.438C1105.97 366.362 1109.27 367.521 1113 367.521H1282.71C1286.46 367.521 1290 366.451 1292.03 364.565L1263.74 355.507Z" fill="#97DDE5" stroke="black" stroke-width="1.58144" stroke-miterlimit="10"/>
<path d="M1197.89 341.264C1240.13 341.264 1274.38 307.023 1274.38 264.786C1274.38 222.548 1240.13 188.308 1197.89 188.308C1155.64 188.308 1121.4 222.548 1121.4 264.786C1121.4 307.023 1155.64 341.264 1197.89 341.264Z" fill="white" stroke="black" stroke-width="1.58144" stroke-miterlimit="10"/>
<path d="M1257.04 155.821H1247.16C1246.21 155.821 1245.43 155.044 1245.43 154.088C1245.43 153.133 1246.21 152.356 1247.16 152.356H1257.04C1274.4 152.356 1290.18 141.45 1296.31 125.207C1296.64 124.315 1297.65 123.856 1298.54 124.2C1299.43 124.532 1299.89 125.538 1299.54 126.43C1292.92 144.011 1275.83 155.821 1257.04 155.821Z" fill="#97DDE5"/>
<path d="M1148.64 155.821H1138.77C1119.97 155.821 1102.88 144.011 1096.26 126.43C1095.93 125.538 1096.37 124.544 1097.27 124.2C1098.17 123.856 1099.15 124.315 1099.5 125.207C1105.61 141.45 1121.4 152.356 1138.77 152.356H1148.64C1149.6 152.356 1150.37 153.133 1150.37 154.088C1150.37 155.044 1149.6 155.821 1148.64 155.821Z" fill="#97DDE5"/>
<path d="M1261.79 216.833V180.703C1261.79 175.721 1258.07 171.696 1251.9 171.696H1143.9C1137.74 171.696 1134.01 175.734 1134.01 180.703V216.833C1149.28 201.482 1173.77 185.149 1197.9 185.149C1222.04 185.149 1246.27 200.093 1261.79 216.833Z" fill="#4AC7D3" stroke="black" stroke-width="1.58144" stroke-miterlimit="10"/>
<path d="M1249.48 199.481C1235.3 188.257 1217.37 181.543 1197.89 181.543C1178.41 181.543 1160.48 188.257 1146.29 199.481C1127.01 214.731 1114.62 238.3 1114.62 264.786C1114.62 310.765 1151.9 348.029 1197.88 348.029C1243.85 348.029 1281.13 310.765 1281.13 264.786C1281.13 238.3 1268.75 214.731 1249.47 199.481H1249.48ZM1197.89 341.264C1155.65 341.264 1121.4 307.019 1121.4 264.786C1121.4 242.428 1130.99 222.324 1146.29 208.336C1159.89 195.901 1178 188.308 1197.89 188.308C1217.78 188.308 1235.89 195.901 1249.48 208.336C1264.77 222.324 1274.37 242.428 1274.37 264.786C1274.37 307.019 1240.12 341.264 1197.88 341.264H1197.89Z" fill="#CFD8DC" stroke="black" stroke-width="1.58144" stroke-miterlimit="10"/>
<path d="M1251.67 149.362H1144.17C1142.3 149.362 1140.79 150.874 1140.79 152.738V153.248C1140.79 155.113 1142.3 156.624 1144.17 156.624H1251.67C1253.54 156.624 1255.05 155.113 1255.05 153.248V152.738C1255.05 150.874 1253.54 149.362 1251.67 149.362Z" fill="#97DDE5" stroke="black" stroke-width="1.58144" stroke-miterlimit="10"/>
<path d="M1296.87 111.639H1098.97C1097.86 111.639 1096.96 112.54 1096.96 113.652C1096.96 114.764 1097.86 115.665 1098.97 115.665H1296.87C1297.98 115.665 1298.88 114.764 1298.88 113.652C1298.88 112.54 1297.98 111.639 1296.87 111.639Z" fill="#CFD8DC" stroke="black" stroke-width="1.58144" stroke-miterlimit="10"/>
<path d="M1100.41 115.678C1103.15 136.839 1121.22 149.362 1143.12 149.362H1252.72C1274.62 149.362 1292.69 136.839 1295.43 115.678H1100.41Z" fill="#90A4AE" stroke="black" stroke-width="1.58144" stroke-miterlimit="10"/>
<path opacity="0.77" d="M1154.07 143.859H1239.36C1268.16 143.859 1288.45 134.074 1291.98 116.328H1104.36C1107.84 134.074 1127.77 143.859 1154.07 143.859Z" fill="#F2F7F9"/>
<path d="M1207.13 130.864C1207.13 125.781 1203.01 121.666 1197.93 121.666C1192.85 121.666 1188.73 125.781 1188.73 130.864V149.362H1207.14V130.864H1207.13Z" fill="#97DDE5" stroke="black" stroke-width="1.58144" stroke-miterlimit="10"/>
<path d="M1257.5 254.632C1256.72 250.084 1255.46 245.702 1253.74 241.561" stroke="black" stroke-width="1.58144" stroke-miterlimit="10"/>
<path d="M1248.67 297.604C1251.28 293.578 1253.42 289.221 1255.01 284.609" stroke="black" stroke-width="1.58144" stroke-miterlimit="10"/>
<path d="M1255.03 284.609C1256.71 279.781 1257.78 274.672 1258.19 269.385" stroke="black" stroke-width="1.58144" stroke-miterlimit="10"/>
<path d="M1258.17 269.385C1258.29 267.869 1258.36 266.34 1258.36 264.799C1258.36 261.333 1258.06 257.945 1257.5 254.645" stroke="black" stroke-width="1.58144" stroke-miterlimit="10"/>
<path d="M1239.38 308.764C1242.91 305.439 1246.02 301.681 1248.67 297.604" stroke="black" stroke-width="1.58144" stroke-miterlimit="10"/>
<path d="M1170.67 210.782C1166 213.139 1161.68 216.082 1157.8 219.521" stroke="black" stroke-width="1.58144" stroke-miterlimit="10"/>
<path d="M1157.8 219.521C1154.11 222.795 1150.82 226.503 1148.03 230.579" stroke="black" stroke-width="1.58144" stroke-miterlimit="10"/>
<path d="M1197.89 204.322C1193.21 204.322 1188.65 204.857 1184.28 205.864" stroke="black" stroke-width="1.58144" stroke-miterlimit="10"/>
<path d="M1184.28 205.851C1179.5 206.947 1174.94 208.616 1170.67 210.782" stroke="black" stroke-width="1.58144" stroke-miterlimit="10"/>
<path d="M1148.02 230.579C1145.66 234.006 1143.63 237.688 1142.01 241.586" stroke="black" stroke-width="1.58144" stroke-miterlimit="10"/>
<path d="M1188.71 324.562C1183.06 323.696 1177.65 322.052 1172.62 319.733" stroke="black" stroke-width="1.58144" stroke-miterlimit="10"/>
<path d="M1156.38 308.752C1156.76 309.108 1157.14 309.452 1157.54 309.796" stroke="black" stroke-width="1.58144" stroke-miterlimit="10"/>
<path d="M1223.26 319.695C1228.75 317.147 1233.78 313.797 1238.24 309.796" stroke="black" stroke-width="1.58144" stroke-miterlimit="10"/>
<path d="M1188.72 324.562C1191.71 325.021 1194.77 325.263 1197.88 325.263C1200.99 325.263 1204.12 325.008 1207.14 324.55" stroke="black" stroke-width="1.58144" stroke-miterlimit="10"/>
<path d="M1238.24 309.796C1238.62 309.452 1239.01 309.121 1239.38 308.764" stroke="black" stroke-width="1.58144" stroke-miterlimit="10"/>
<path d="M1207.15 324.549C1212.82 323.67 1218.24 322.027 1223.27 319.683" stroke="black" stroke-width="1.58144" stroke-miterlimit="10"/>
<path d="M1157.52 309.796C1162.01 313.822 1167.08 317.198 1172.62 319.746" stroke="black" stroke-width="1.58144" stroke-miterlimit="10"/>
<path d="M1197.89 204.322C1213.35 204.322 1227.44 210.132 1238.13 219.661" stroke="black" stroke-width="1.58144" stroke-miterlimit="10"/>
<path d="M1253.74 241.574C1252.11 237.663 1250.07 233.955 1247.7 230.503" stroke="black" stroke-width="1.58144" stroke-miterlimit="10"/>
<path d="M1238.13 219.662C1241.73 222.872 1244.94 226.516 1247.7 230.503" stroke="black" stroke-width="1.58144" stroke-miterlimit="10"/>
<path d="M1140.83 284.826C1142.48 289.527 1144.69 293.96 1147.39 298.05" stroke="black" stroke-width="1.58144" stroke-miterlimit="10"/>
<path d="M1137.61 269.602C1138.03 274.902 1139.12 279.998 1140.82 284.813" stroke="black" stroke-width="1.58144" stroke-miterlimit="10"/>
<path d="M1138.18 255.155C1137.67 258.289 1137.4 261.512 1137.4 264.799C1137.4 266.417 1137.49 268.022 1137.61 269.615" stroke="black" stroke-width="1.58144" stroke-miterlimit="10"/>
<path d="M1147.39 298.037C1149.98 301.948 1152.99 305.541 1156.38 308.751" stroke="black" stroke-width="1.58144" stroke-miterlimit="10"/>
<path d="M1138.18 255.155C1138.94 250.428 1140.23 245.88 1142.03 241.587" stroke="black" stroke-width="1.58144" stroke-miterlimit="10"/>
<path d="M1197.89 204.322V218.922" stroke="black" stroke-width="1.58144" stroke-miterlimit="10"/>
<path d="M1238.26 309.814L1238.24 309.796" stroke="black" stroke-width="1.58144" stroke-miterlimit="10"/>
<path d="M1238.24 309.796L1228.51 298.929" stroke="black" stroke-width="1.58144" stroke-miterlimit="10"/>
<path d="M1157.52 309.796L1167.27 298.929" stroke="black" stroke-width="1.58144" stroke-miterlimit="10"/>
<path d="M1157.52 309.814V309.796" stroke="black" stroke-width="1.58144" stroke-miterlimit="10"/>
<path d="M1170.67 210.769V210.786" stroke="black" stroke-width="1.58144" stroke-miterlimit="10"/>
<path d="M1157.79 219.521H1157.81" stroke="black" stroke-width="1.58144" stroke-miterlimit="10"/>
<path d="M1247.72 230.49L1247.7 230.507" stroke="black" stroke-width="1.58144" stroke-miterlimit="10"/>
<path d="M1238.13 219.666L1238.15 219.648" stroke="black" stroke-width="1.58144" stroke-miterlimit="10"/>
<path d="M1248.7 297.618L1248.67 297.604" stroke="black" stroke-width="1.58144" stroke-miterlimit="10"/>
<path d="M1255.04 284.627L1255.03 284.609" stroke="black" stroke-width="1.58144" stroke-miterlimit="10"/>
<path d="M1258.19 269.385H1258.17" stroke="black" stroke-width="1.58144" stroke-miterlimit="10"/>
<path d="M1257.5 254.632L1243.1 257.091" stroke="black" stroke-width="1.58144" stroke-miterlimit="10"/>
<path d="M1257.51 254.632H1257.5" stroke="black" stroke-width="1.58144" stroke-miterlimit="10"/>
<path d="M1138.17 255.155H1138.18" stroke="black" stroke-width="1.58144" stroke-miterlimit="10"/>
<path d="M1138.18 255.155L1152.6 257.486" stroke="black" stroke-width="1.58144" stroke-miterlimit="10"/>
<path d="M1137.61 269.602H1137.58" stroke="black" stroke-width="1.58144" stroke-miterlimit="10"/>
<path d="M1140.82 284.826H1140.83" stroke="black" stroke-width="1.58144" stroke-miterlimit="10"/>
<path d="M1147.37 298.052L1147.4 298.037" stroke="black" stroke-width="1.58144" stroke-miterlimit="10"/>
<path d="M1172.62 319.746H1172.64" stroke="black" stroke-width="1.58144" stroke-miterlimit="10"/>
<path d="M1188.72 324.562V324.579" stroke="black" stroke-width="1.58144" stroke-miterlimit="10"/>
<path d="M1207.15 324.567V324.55" stroke="black" stroke-width="1.58144" stroke-miterlimit="10"/>
<path d="M1223.28 319.746L1223.26 319.695" stroke="black" stroke-width="1.58144" stroke-miterlimit="10"/>
<path d="M1246.28 244.67L1253.74 241.574" stroke="black" stroke-width="1.58144" stroke-miterlimit="10"/>
<path d="M1149.48 244.683L1142.03 241.587" stroke="black" stroke-width="1.58144" stroke-miterlimit="10"/>
<path d="M1184.28 205.851L1186.09 213.725" stroke="black" stroke-width="1.58144" stroke-miterlimit="10"/>
<path d="M1174.3 217.98L1170.67 210.782" stroke="black" stroke-width="1.58144" stroke-miterlimit="10"/>
<path d="M1163.15 225.56L1157.8 219.521" stroke="black" stroke-width="1.58144" stroke-miterlimit="10"/>
<path d="M1148.02 230.579L1154.68 235.14" stroke="black" stroke-width="1.58144" stroke-miterlimit="10"/>
<path d="M1241.05 235.077L1247.7 230.503" stroke="black" stroke-width="1.58144" stroke-miterlimit="10"/>
<path d="M1232.76 225.688L1238.13 219.662" stroke="black" stroke-width="1.58144" stroke-miterlimit="10"/>
<path d="M1225.28 210.884L1221.64 218.069" stroke="black" stroke-width="1.58144" stroke-miterlimit="10"/>
<path d="M1209.6 213.712L1211.41 205.851" stroke="black" stroke-width="1.58144" stroke-miterlimit="10"/>
<path d="M1241.9 293.234L1248.66 297.604" stroke="black" stroke-width="1.58144" stroke-miterlimit="10"/>
<path d="M1255.03 284.61L1247.41 281.972" stroke="black" stroke-width="1.58144" stroke-miterlimit="10"/>
<path d="M1250.13 268.774L1258.17 269.385" stroke="black" stroke-width="1.58144" stroke-miterlimit="10"/>
<path d="M1145.65 268.964L1137.61 269.601" stroke="black" stroke-width="1.58144" stroke-miterlimit="10"/>
<path d="M1148.42 282.151L1140.83 284.826" stroke="black" stroke-width="1.58144" stroke-miterlimit="10"/>
<path d="M1154.11 293.616L1147.39 298.037" stroke="black" stroke-width="1.58144" stroke-miterlimit="10"/>
<path d="M1176 312.408L1172.64 319.747" stroke="black" stroke-width="1.58144" stroke-miterlimit="10"/>
<path d="M1189.94 316.6L1188.72 324.562" stroke="black" stroke-width="1.58144" stroke-miterlimit="10"/>
<path d="M1205.92 316.587L1207.15 324.549" stroke="black" stroke-width="1.58144" stroke-miterlimit="10"/>
<path d="M1219.88 312.37L1223.26 319.695" stroke="black" stroke-width="1.58144" stroke-miterlimit="10"/>
<path d="M1202.42 269.118C1203.51 267.984 1204.18 266.455 1204.18 264.773C1204.18 261.958 1202.34 259.575 1199.79 258.76L1197.88 223.292L1195.96 258.747C1193.4 259.55 1191.54 261.945 1191.54 264.773C1191.54 266.468 1192.22 268.009 1193.31 269.143L1186.57 281.055C1189.01 284.698 1193.16 287.094 1197.86 287.094C1202.56 287.094 1206.73 284.686 1209.17 281.042L1202.42 269.118Z" fill="#FF4633" stroke="black" stroke-width="1.58144" stroke-miterlimit="10"/>
<path d="M1199.91 268.119C1201.76 266.975 1202.33 264.549 1201.19 262.7C1200.04 260.851 1197.62 260.279 1195.77 261.423C1193.92 262.566 1193.35 264.993 1194.49 266.842C1195.64 268.691 1198.06 269.262 1199.91 268.119Z" fill="#FFAE1F" stroke="black" stroke-width="1.58144" stroke-linecap="round" stroke-linejoin="round"/>
<path d="M1197.26 264.71C1197.26 263.78 1197.67 262.964 1198.31 262.378C1198.11 262.315 1197.89 262.276 1197.66 262.276C1196.32 262.276 1195.23 263.359 1195.23 264.71C1195.23 266.06 1196.31 267.143 1197.66 267.143C1197.89 267.143 1198.11 267.105 1198.31 267.041C1197.67 266.468 1197.26 265.64 1197.26 264.71Z" fill="white"/>
<line x1="1058" y1="373.513" x2="1334" y2="373.513" stroke="black" stroke-width="1.57765"/>
<path d="M1367.5 202L1366.26 195.19C1365.33 189.31 1360.69 184.667 1354.81 183.738L1348 182.5L1354.81 181.262C1360.69 180.333 1365.33 175.69 1366.26 169.81L1367.5 163L1368.74 169.81C1369.67 175.69 1374.31 180.333 1380.19 181.262L1387 182.5L1380.19 183.738C1374.31 184.667 1369.67 189.31 1368.74 195.19L1367.5 202Z" fill="white" stroke="black" stroke-width="1.3878" stroke-miterlimit="10" stroke-linejoin="round"/>
</svg>
