<svg width="74" height="62" viewBox="0 0 74 62" fill="none" xmlns="http://www.w3.org/2000/svg">
<path d="M12.2751 18.9561V34.8823H12.3529C13.2074 37.6014 22.2971 42.1074 33.3289 42.1074C44.3608 42.1074 53.4504 37.6014 54.305 34.8823H54.3826V18.9561H12.2751Z" fill="#D6E2F9" stroke="#15357A" stroke-width="1.5" stroke-miterlimit="10" stroke-linecap="round" stroke-linejoin="round"/>
<path d="M33.7947 31.1533L0 19.6553L33.7947 8.39038L67.5895 19.6553L33.7947 31.1533Z" fill="white"/>
<path d="M33.795 28.201L6.52612 17.9461L33.795 8.85645L61.0639 17.9461L33.795 28.201Z" fill="#D6E2F9" stroke="#15357A" stroke-width="1.5" stroke-miterlimit="10" stroke-linecap="round" stroke-linejoin="round"/>
<path d="M33.7946 18.9561L22.6074 24.3943V46.2249" stroke="#15357A" stroke-width="1.5" stroke-miterlimit="10" stroke-linecap="round" stroke-linejoin="round"/>
<path d="M25.7148 55.8583H19.5774L21.675 45.448H23.6172L25.7148 55.8583Z" fill="#15357A"/>
<path d="M22.6081 46.1473C23.552 46.1473 24.3172 45.3821 24.3172 44.4382C24.3172 43.4942 23.552 42.729 22.6081 42.729C21.6642 42.729 20.8989 43.4942 20.8989 44.4382C20.8989 45.3821 21.6642 46.1473 22.6081 46.1473Z" fill="#15357A"/>
<path d="M57.8785 45.215L57.4901 45.9919L56.7909 47.3126L55.0817 50.5756L54.6933 51.2748L52.9065 54.7708L51.6634 57.1792L49.7212 60.8305C49.5658 61.1413 49.022 60.9859 48.7889 60.6752L47.0021 56.2469L42.3407 57.2568C41.9523 57.3345 41.4862 56.9461 41.7192 56.6353L43.9722 52.3624L45.1376 50.1095L47.2351 46.0696L49.4881 41.719L49.8766 40.9421L54.2271 43.1951L57.3347 44.8266L57.8785 45.215Z" fill="white" stroke="#15357A" stroke-width="1.5" stroke-miterlimit="10" stroke-linecap="round" stroke-linejoin="round"/>
<path d="M66.8905 56.8681L62.2291 55.8582L60.4422 60.2864C60.2869 60.6749 59.7431 60.7526 59.51 60.4418L57.3347 56.402L56.2471 54.3821L54.6156 51.3522L54.2271 50.653L52.2849 46.9239L51.1973 44.904L54.0718 43.3502L58.4223 41.0195L59.1216 40.6311L61.6853 45.4478L64.0936 49.9538L65.0259 51.7406L67.3566 56.1689C67.745 56.4797 67.2789 56.9458 66.8905 56.8681Z" fill="white" stroke="#15357A" stroke-width="1.5" stroke-miterlimit="10" stroke-linecap="round" stroke-linejoin="round"/>
<path opacity="0.1" d="M65.1036 48.7882L65.1814 51.7404C64.5599 53.2165 63.1614 54.2264 61.2969 53.9933C59.7431 53.7603 58.1893 54.6149 57.4901 56.0909C57.4124 56.1686 57.4124 56.2463 57.3347 56.324L56.2471 54.3041C55.2372 55.0033 53.9164 55.1587 52.8288 54.6925L51.5858 57.1009C51.275 56.7901 50.9643 56.4017 50.8089 55.9356C50.1874 54.4595 48.7113 53.5272 47.0798 53.6826C45.7591 53.838 44.5937 53.2165 43.8945 52.2842L45.0599 50.0312C44.3607 49.6428 43.8169 49.0989 43.4284 48.3997C43.5061 48.1667 43.6615 48.0113 43.8169 47.7782C44.6715 46.6906 44.8268 45.2145 44.2053 43.9715C44.1276 43.8161 44.0499 43.6607 43.8945 43.5053C43.04 42.34 43.04 40.9416 43.5838 39.7762C44.2053 38.4555 45.6037 37.5233 47.3129 37.7563C47.5459 37.7563 47.779 37.834 48.0121 37.7563C49.3328 37.6786 50.4981 36.9017 51.1196 35.6587C51.1973 35.5033 51.1973 35.4257 51.275 35.348C52.7511 32.9396 56.3248 33.0173 57.6455 35.581C57.7232 35.6587 57.7232 35.7364 57.8009 35.8918C58.267 37.1348 59.4324 37.9117 60.6754 38.0671C60.9862 38.1448 61.2192 38.1448 61.53 38.0671C63.1614 37.9117 64.5598 38.844 65.1036 40.087C65.6475 41.2523 65.6475 42.7284 64.7152 43.8938C64.5598 44.1268 64.4044 44.2822 64.3268 44.5153C63.7829 45.6806 63.8606 47.079 64.6375 48.2444C64.8706 48.4774 65.026 48.6328 65.1036 48.7882Z" fill="#15357A"/>
<path d="M64.7925 45.1371C65.6471 46.3024 65.6471 47.7008 65.1033 48.8661C64.8702 49.3323 64.6372 49.7207 64.2487 50.0315C63.5495 50.7307 62.5395 51.0414 61.3742 50.9638C59.8204 50.7307 58.2667 51.5853 57.5675 53.0614C57.2567 53.6829 56.8683 54.149 56.4021 54.5374C55.3922 55.2366 54.0714 55.392 52.9838 54.9259C52.1292 54.6151 51.3523 53.9159 50.8862 52.906C50.2647 51.4299 48.7886 50.4976 47.1571 50.653C46.3802 50.7307 45.7587 50.5753 45.1372 50.2645C44.438 49.8761 43.8942 49.3323 43.5057 48.6331C42.9619 47.4677 42.9619 45.9916 43.8942 44.8263C44.0496 44.5932 44.2049 44.4379 44.2826 44.2048C44.8264 43.0395 44.7488 41.6411 43.9719 40.4757C43.8942 40.3204 43.7388 40.165 43.6611 40.0096C42.4181 37.4459 44.438 34.416 47.3902 34.8044C48.944 35.0375 50.4978 34.1829 51.197 32.7068C52.5177 29.8323 56.6352 29.91 57.8782 32.8622C58.4997 34.3383 59.9758 35.2706 61.6073 35.1152C64.5595 34.8821 66.424 37.912 65.181 40.398C65.1033 40.6311 64.9479 40.7865 64.7925 41.0196C63.938 42.1072 63.7826 43.5833 64.4041 44.8263C64.5595 44.7486 64.6372 44.904 64.7925 45.1371Z" fill="white" stroke="#15357A" stroke-width="1.5" stroke-miterlimit="10" stroke-linecap="round" stroke-linejoin="round"/>
<path d="M54.3825 50.653C58.759 50.653 62.3068 47.1052 62.3068 42.7287C62.3068 38.3523 58.759 34.8044 54.3825 34.8044C50.0061 34.8044 46.4583 38.3523 46.4583 42.7287C46.4583 47.1052 50.0061 50.653 54.3825 50.653Z" fill="#D6E2F9" stroke="#15357A" stroke-width="1.5" stroke-miterlimit="10" stroke-linecap="round" stroke-linejoin="round"/>
<path d="M56.7909 47.3121L54.3048 45.9137L51.7411 47.2344C51.3526 47.4675 50.8865 47.079 50.9642 46.6129L51.508 43.8161L49.4881 41.7961C49.1773 41.4854 49.3327 40.9416 49.7989 40.8639L52.6733 40.4754L53.994 37.9117C54.2271 37.5232 54.7709 37.5232 54.9263 37.9117L56.1693 40.4754L58.9662 40.9416C59.4323 41.0193 59.5876 41.5631 59.2769 41.8738L57.1793 43.8161L57.6454 46.6906C57.6454 47.2344 57.1793 47.5451 56.7909 47.3121Z" fill="white" stroke="#15357A" stroke-width="1.5" stroke-miterlimit="10" stroke-linecap="round" stroke-linejoin="round"/>
<path d="M23.7729 0L23.6175 1.47609L24.239 2.79681L22.7629 2.64143L21.4422 3.26294L21.5976 1.78685L20.9761 0.466133L22.4522 0.621515L23.7729 0Z" fill="#15357A"/>
<path d="M7.06948 40.1653L7.61326 42.0298L9.08937 43.3505L7.22482 43.8167L5.90414 45.2928L5.36031 43.4282L3.96191 42.1852L5.82642 41.6414L7.06948 40.1653Z" fill="#2C71F0"/>
<path d="M72.7945 25.1714L72.4838 27.8905L73.6491 30.3766L70.93 30.0658L68.444 31.2311L68.7547 28.512L67.5894 26.026L70.3085 26.3367L72.7945 25.1714Z" fill="#15357A"/>
</svg>
