<svg width="59" height="51" viewBox="0 0 59 51" fill="none" xmlns="http://www.w3.org/2000/svg">
<g clip-path="url(#clip0)">
<path d="M40.7194 33.8333L37.0101 37.2948L34.452 39.7307C34.0683 40.1154 33.6845 40.5 33.1729 40.7564C31.5101 41.9102 29.7194 42.5513 27.9287 42.8077C27.545 42.8077 27.0334 42.9359 26.6497 42.9359C26.2659 42.9359 25.7543 42.9359 25.3706 42.8077C22.6845 42.5513 20.1264 41.2692 18.2078 39.2179C13.859 34.6025 14.1148 27.1666 18.8473 22.8077L25.3706 16.6538L25.4985 16.782L27.1613 15.1154L32.5334 20.5L30.9985 22.0384L31.8938 22.9359C33.4287 24.3461 34.452 26.141 35.0915 28.0641L40.7194 33.8333Z" fill="white" stroke="#7304E2" stroke-width="2" stroke-miterlimit="10" stroke-linecap="round" stroke-linejoin="round"/>
<path d="M41.7426 38.5769C40.7194 39.6025 39.0566 39.6025 38.1612 38.5769L37.0101 37.423L34.7077 35.1154L36.8822 37.2948L38.1612 38.5769C38.6729 39.0897 38.9287 39.7307 38.9287 40.3718C38.9287 41.0128 38.6729 41.6538 38.1612 42.1666C37.138 43.1923 35.4752 43.1923 34.5798 42.1666L33.045 40.6282L31.8938 39.4743L34.4519 42.0384C35.4752 43.0641 35.3473 44.7307 34.324 45.6282C33.3008 46.6538 31.1264 46.6538 30.1031 45.6282L27.0333 43.1923L26.5217 42.6795C25.7543 42.9359 25.1147 43.0641 24.3473 43.1923C21.1496 43.5769 18.3357 41.9102 15.7775 39.4743L6.69612 31.0128C4.26589 28.7051 2.98682 25.6282 2.98682 22.5512C2.98682 19.7307 4.01007 16.9102 6.05658 14.6025C10.4054 9.98715 17.824 9.73074 22.4287 13.9615L24.9868 16.2692L25.1147 16.3974L30.6147 21.5256L31.5101 22.423C32.4054 23.1923 33.1729 24.2179 33.6845 25.1154C34.8357 27.1666 36.3705 29.0897 38.0333 30.8846L40.5915 33.4487L41.6147 34.4743C42.7659 35.8846 42.7659 37.5512 41.7426 38.5769Z" fill="white" stroke="#7304E2" stroke-width="2" stroke-miterlimit="10" stroke-linecap="round" stroke-linejoin="round"/>
<path d="M43.9171 14.9871C41.6148 12.5512 38.545 11.2692 35.4753 11.2692C32.6613 11.2692 29.8474 12.2948 27.545 14.3461L25.1148 16.782L19.2311 22.6794C18.3357 23.5769 18.3357 25.2435 19.2311 26.141C20.2543 27.1666 21.5334 27.6794 22.8125 27.6794C24.0915 27.6794 25.4985 27.1666 26.3939 26.141L30.6148 21.9102L31.5102 22.8076C32.4055 23.7051 33.1729 24.6025 33.8125 25.6281C34.7078 27.2948 35.859 28.9615 37.266 30.2435L40.7195 33.7051L43.4055 31.2692C48.0102 27.0384 48.266 19.6025 43.9171 14.9871Z" fill="#BD80FF" stroke="#7304E2" stroke-width="2" stroke-miterlimit="10" stroke-linecap="round" stroke-linejoin="round"/>
<path d="M17.1846 34.2179L14.7544 36.782C13.7311 37.9358 12.0683 37.9358 10.9172 36.9102C9.76601 35.8845 9.76601 34.2179 10.7893 33.064L13.2195 30.4999C14.2428 29.3461 15.9055 29.3461 17.0567 30.3717C18.08 31.3974 18.2079 33.064 17.1846 34.2179Z" fill="#BD80FF" stroke="#7304E2" stroke-width="2" stroke-miterlimit="10" stroke-linecap="round" stroke-linejoin="round"/>
<path d="M21.1495 38.1922L18.7192 40.7563C17.696 41.9102 16.0332 41.9102 14.882 40.8845C13.7309 39.8589 13.7309 38.1922 14.7541 37.0384L17.1843 34.4743C18.2076 33.3204 19.8704 33.3204 21.0216 34.3461C22.0448 35.3717 22.1727 37.0384 21.1495 38.1922Z" fill="#BD80FF" stroke="#7304E2" stroke-width="2" stroke-miterlimit="10" stroke-linecap="round" stroke-linejoin="round"/>
<path d="M25.1148 42.1666L22.6846 44.7307C21.6613 45.8845 19.9985 45.8845 18.8474 44.8589C17.6962 43.8333 17.6962 42.1666 18.7194 41.0127L21.1497 38.4486C22.1729 37.2948 23.8357 37.2948 24.9869 38.3204C26.0101 39.3461 26.1381 41.0127 25.1148 42.1666Z" fill="#BD80FF" stroke="#7304E2" stroke-width="2" stroke-miterlimit="10" stroke-linecap="round" stroke-linejoin="round"/>
<path d="M29.0796 46.141L26.6494 48.7051C25.6262 49.8589 23.9634 49.8589 22.8122 48.8333C21.661 47.8076 21.661 46.141 22.6843 44.9871L25.1145 42.423C26.1378 41.2692 27.8006 41.2692 28.9517 42.2948C29.975 43.3204 30.1029 44.9871 29.0796 46.141Z" fill="#BD80FF" stroke="#7304E2" stroke-width="2" stroke-miterlimit="10" stroke-linecap="round" stroke-linejoin="round"/>
<path d="M31.7658 39.6025L27.417 35.2435" stroke="#7304E2" stroke-width="2" stroke-miterlimit="10" stroke-linecap="round" stroke-linejoin="round"/>
<path d="M35.3474 35.8846L31.1265 31.6538" stroke="#7304E2" stroke-width="2" stroke-miterlimit="10" stroke-linecap="round" stroke-linejoin="round"/>
<path d="M37.6496 20.5C37.6496 20.5 35.4752 24.4744 30.6147 21.9103Z" fill="#BD80FF"/>
<path d="M37.6496 20.5C37.6496 20.5 35.4752 24.4744 30.6147 21.9103" stroke="#7304E2" stroke-width="2" stroke-miterlimit="10" stroke-linecap="round" stroke-linejoin="round"/>
<path d="M9.50986 0.5L9.12614 3.0641L10.2773 5.5L7.59125 5.24359L5.28893 6.26923L5.54474 3.70513L4.52148 1.26923L7.07962 1.65385L9.50986 0.5Z" fill="#7304E2"/>
<path d="M56.4515 29.6025L56.1957 31.5256L57.091 33.1923L55.1724 32.9359L53.3817 33.8333L53.6376 31.9102L52.8701 30.2436L54.7887 30.3718L56.4515 29.6025Z" fill="#7304E2"/>
<path d="M8.35846 42.2949L8.23055 43.577L8.87008 44.7308L7.46311 44.6026L6.31194 45.1154L6.43985 43.8334L5.92822 42.6795L7.20729 42.8077L8.35846 42.2949Z" fill="#7304E2"/>
</g>
<defs>
<clipPath id="clip0">
<rect width="55" height="50" fill="white" transform="translate(2.09131 0.5)"/>
</clipPath>
</defs>
</svg>
