<svg width="160" height="32" viewBox="0 0 160 32" fill="none" xmlns="http://www.w3.org/2000/svg">
<path d="M15.9965 23.5289L22.8898 27.6889C23.3965 27.9956 24.0232 27.5422 23.8898 26.9689L22.0632 19.1289L28.1432 13.8622C28.5832 13.4756 28.3565 12.7422 27.7565 12.6889L19.7432 12.0089L16.6098 4.62223C16.3832 4.07556 15.6098 4.07556 15.3832 4.62223L12.2498 12.0089L4.23649 12.6889C3.64983 12.7422 3.40983 13.4756 3.86316 13.8622L9.94316 19.1289L8.11649 26.9689C7.98316 27.5422 8.60983 27.9956 9.11649 27.6889L15.9965 23.5289Z" fill="#2C71F0"/>
<path d="M47.9965 23.5289L54.8898 27.6889C55.3965 27.9956 56.0232 27.5422 55.8898 26.9689L54.0632 19.1289L60.1432 13.8622C60.5832 13.4756 60.3565 12.7422 59.7565 12.6889L51.7432 12.0089L48.6098 4.62223C48.3832 4.07556 47.6098 4.07556 47.3832 4.62223L44.2498 12.0089L36.2365 12.6889C35.6498 12.7422 35.4098 13.4756 35.8632 13.8622L41.9432 19.1289L40.1165 26.9689C39.9832 27.5422 40.6098 27.9956 41.1165 27.6889L47.9965 23.5289Z" fill="#2C71F0"/>
<path d="M79.9965 23.5289L86.8898 27.6889C87.3965 27.9956 88.0232 27.5422 87.8898 26.9689L86.0632 19.1289L92.1432 13.8622C92.5832 13.4756 92.3565 12.7422 91.7565 12.6889L83.7432 12.0089L80.6098 4.62223C80.3832 4.07556 79.6098 4.07556 79.3832 4.62223L76.2498 12.0089L68.2365 12.6889C67.6498 12.7422 67.4098 13.4756 67.8632 13.8622L73.9432 19.1289L72.1165 26.9689C71.9832 27.5422 72.6098 27.9956 73.1165 27.6889L79.9965 23.5289Z" fill="#2C71F0"/>
<path d="M111.996 23.5289L118.89 27.6889C119.396 27.9956 120.023 27.5422 119.89 26.9689L118.063 19.1289L124.143 13.8622C124.583 13.4756 124.356 12.7422 123.756 12.6889L115.743 12.0089L112.61 4.62223C112.383 4.07556 111.61 4.07556 111.383 4.62223L108.25 12.0089L100.236 12.6889C99.6498 12.7422 99.4098 13.4756 99.8632 13.8622L105.943 19.1289L104.116 26.9689C103.983 27.5422 104.61 27.9956 105.116 27.6889L111.996 23.5289Z" fill="#2C71F0"/>
<path d="M143.996 23.5289L150.89 27.6889C151.396 27.9956 152.023 27.5422 151.89 26.9689L150.063 19.1289L156.143 13.8622C156.583 13.4756 156.356 12.7422 155.756 12.6889L147.743 12.0089L144.61 4.62223C144.383 4.07556 143.61 4.07556 143.383 4.62223L140.25 12.0089L132.236 12.6889C131.65 12.7422 131.41 13.4756 131.863 13.8622L137.943 19.1289L136.116 26.9689C135.983 27.5422 136.61 27.9956 137.116 27.6889L143.996 23.5289Z" fill="#2C71F0"/>
</svg>
