<svg width="61" height="56" viewBox="0 0 61 56" fill="none" xmlns="http://www.w3.org/2000/svg">
<path d="M51.8606 29.7385C51.8606 31.8937 51.4549 33.9052 50.7247 35.8448C50.2379 37.0661 49.6699 38.2155 48.8586 39.2931C47.8038 40.8736 46.5056 42.3104 44.9641 43.4598C44.7207 43.6753 44.4773 43.8908 44.1527 44.0345C42.6923 45.0402 41.1507 45.9023 39.4469 46.6207C37.9053 47.2673 36.2015 47.6983 34.4165 47.9138C33.3618 48.0575 32.2259 48.1293 31.09 48.1293C22.0029 48.1293 14.3762 43.0287 11.4553 35.9167C11.2119 35.342 11.0496 34.6954 10.8874 34.1207C10.644 33.115 10.4006 32.0374 10.3194 30.9598C10.2383 30.5287 10.2383 30.0977 10.2383 29.6667C10.2383 28.8046 10.3194 27.9425 10.4006 27.1523C10.4006 26.9368 10.4817 26.7213 10.4817 26.5776C10.7251 25.2845 11.1308 24.0632 11.6176 22.9138C12.2667 21.477 13.078 20.1121 14.1328 18.8908C17.9461 14.2931 24.0312 11.2759 31.0089 11.2759C36.526 11.2759 41.4753 13.1437 45.2075 16.1609C45.3698 16.3046 45.6132 16.4483 45.7754 16.592C46.6679 17.3822 47.5604 18.2443 48.2095 19.25C49.102 20.3994 49.9133 21.6925 50.4813 23.0575C50.8058 23.7759 51.0492 24.5661 51.2926 25.3563C51.6983 26.7931 51.8606 28.2299 51.8606 29.7385Z" fill="white" stroke="#7304E2" stroke-width="2" stroke-miterlimit="10" stroke-linecap="round" stroke-linejoin="round"/>
<path d="M18.5138 25.2126C18.5138 25.7873 18.2704 26.362 17.7836 26.7931C17.3779 27.1523 16.8911 27.3678 16.242 27.4396C16.1609 27.4396 16.0798 27.4396 15.9986 27.4396H11.3739C10.9682 27.4396 10.6437 27.3678 10.4003 27.2241C10.0758 27.0804 9.75122 26.8649 9.50781 26.6494C9.58895 26.6494 9.67008 26.6494 9.75122 26.6494H10.4814C10.7248 25.3563 11.1305 24.135 11.6173 22.9856H15.9986C17.3779 22.9856 18.5138 23.9913 18.5138 25.2126Z" fill="#BD80FF"/>
<path d="M16.8912 28.8764C16.8912 29.5229 16.6478 30.0258 16.161 30.4568C15.7553 30.816 15.3496 31.0315 14.7817 31.1034C14.6194 31.1034 14.5383 31.1034 14.376 31.1034H10.2381C10.157 30.6723 10.157 30.2413 10.157 29.8103C10.157 28.9482 10.2381 28.0861 10.3192 27.2959C9.9947 27.1522 9.67016 26.9367 9.42676 26.7212C9.50789 26.7212 9.58903 26.7212 9.67016 26.7212H14.2949C15.0251 26.7212 15.7553 27.0085 16.161 27.5114C16.6478 27.7988 16.8912 28.3017 16.8912 28.8764Z" fill="#BD80FF"/>
<path d="M15.0248 31.9655C15.0248 32.6121 14.7814 33.115 14.2946 33.546C13.8078 33.977 13.2399 34.1925 12.5097 34.1925H10.8058C10.5624 33.1868 10.319 32.1092 10.2379 31.0316C10.1567 30.6006 10.1567 30.1696 10.1567 29.7385H12.4285C13.4021 29.7385 14.2946 30.2414 14.7003 31.0316C14.9437 31.319 15.0248 31.6063 15.0248 31.9655Z" fill="#BD80FF"/>
<path d="M51.13 23.7759H43.5844C41.9617 23.7759 40.6636 22.4828 40.6636 20.9742C40.6636 20.184 40.9881 19.4656 41.5561 19.0346C42.124 18.5317 42.8542 18.1725 43.6656 18.1725H47.3978C48.128 18.8909 48.7771 19.6811 49.4262 20.4713C50.0752 21.5489 50.6432 22.6265 51.13 23.7759Z" fill="#BD80FF"/>
<path d="M52.266 29.6667C52.266 31.5346 51.9415 33.3305 51.2924 34.9828C50.8867 36.0604 50.3999 37.0662 49.832 38.0001C48.9395 39.365 47.8847 40.6581 46.6677 41.6639C46.4243 41.8075 46.262 42.0231 46.0186 42.1667C44.8828 43.1006 43.5846 43.819 42.2053 44.3937C41.7996 44.5374 41.3128 44.6093 40.9071 44.6811C40.3392 44.1782 40.0958 43.4598 40.0958 42.7415C40.0958 42.1667 40.2581 41.592 40.6637 41.0892H37.4183C36.039 41.0892 34.822 40.1552 34.5786 38.934V38.8621C34.4975 38.6466 34.4975 38.5029 34.4975 38.2874C34.4975 37.6409 34.7409 37.0662 35.1465 36.5633C33.6861 36.4196 32.4691 35.1983 32.4691 33.7616C32.4691 33.4742 32.5502 33.2587 32.6314 33.0432H31.3332C29.7105 33.0432 28.4123 31.7501 28.4123 30.2415C28.4123 29.8104 28.4935 29.4512 28.6557 29.092C27.7633 28.5892 27.1953 27.7271 27.1953 26.6495C27.1953 25.069 28.4935 23.8478 30.1162 23.8478H51.2924C51.5358 24.4943 51.7792 25.1409 51.9415 25.8593C52.1038 27.0087 52.266 28.3018 52.266 29.6667Z" fill="#BD80FF"/>
<path d="M27.0332 26.6495C27.0332 26.6495 27.2766 35.9886 34.9844 36.5633C34.9844 36.5633 31.739 41.161 40.8262 44.6811L48.9397 36.4196L38.7167 27.799L27.0332 26.6495Z" fill="#BD80FF"/>
<path d="M51.8606 29.7385C51.8606 31.8937 51.4549 33.9052 50.7247 35.8448C50.2379 37.0661 49.6699 38.2155 48.8586 39.2931C47.8038 40.8736 46.5056 42.3104 44.9641 43.4598C44.7207 43.6753 44.4773 43.8908 44.1527 44.0345C42.6923 45.0402 41.1507 45.9023 39.4469 46.6207C37.9053 47.2673 36.2015 47.6983 34.4165 47.9138C33.3618 48.0575 32.2259 48.1293 31.09 48.1293C22.0029 48.1293 14.3762 43.0287 11.4553 35.9167C11.2119 35.342 11.0496 34.6954 10.8874 34.1207C10.644 33.115 10.4006 32.0374 10.3194 30.9598C10.2383 30.5287 10.2383 30.0977 10.2383 29.6667C10.2383 28.8046 10.3194 27.9425 10.4006 27.1523C10.4006 26.9368 10.4817 26.7213 10.4817 26.5776C10.7251 25.2845 11.1308 24.0632 11.6176 22.9138C12.2667 21.477 13.078 20.1121 14.1328 18.8908C17.9461 14.2931 24.0312 11.2759 31.0089 11.2759C36.526 11.2759 41.4753 13.1437 45.2075 16.1609C45.3698 16.3046 45.6132 16.4483 45.7754 16.592C46.6679 17.3822 47.5604 18.2443 48.2095 19.25C49.102 20.3994 49.9133 21.6925 50.4813 23.0575C50.8058 23.7759 51.0492 24.5661 51.2926 25.3563C51.6983 26.7931 51.8606 28.2299 51.8606 29.7385Z" stroke="#7304E2" stroke-width="2" stroke-miterlimit="10" stroke-linecap="round" stroke-linejoin="round"/>
<path d="M15.9989 22.9856C15.9989 22.9856 23.9501 24.2069 13.1592 34.1207Z" fill="#BD80FF"/>
<path d="M42.611 18.3162C42.611 18.3162 37.4184 20.1121 40.6638 25.1409L46.3432 24.2788L42.611 18.3162Z" fill="#BD80FF"/>
<path d="M51.1302 23.7039C56.1606 24.997 59.2437 26.6493 59.2437 28.589C59.2437 32.4683 46.3433 35.6292 30.3597 35.6292C14.3761 35.6292 1.47559 32.3965 1.47559 28.5171C1.47559 26.4338 5.12666 24.6378 10.8873 23.3447" stroke="#7304E2" stroke-width="2" stroke-miterlimit="10" stroke-linecap="round" stroke-linejoin="round"/>
<path opacity="0.1" d="M52.266 27.7269C55.3491 28.8045 57.1341 30.0976 57.1341 31.4626C57.1341 35.0545 45.1261 37.9281 30.3595 37.9281C15.5929 37.9281 3.58496 35.0545 3.58496 31.4626C3.58496 29.8103 6.18128 28.3016 10.3192 27.1522" stroke="#7304E2" stroke-width="2" stroke-miterlimit="10" stroke-linecap="round" stroke-linejoin="round"/>
<path d="M40.5826 12.7126C38.8788 7.82754 36.3636 4.8103 33.605 4.8103C28.4124 4.8103 24.1934 15.9454 24.1934 29.8103C24.1934 43.6752 28.4124 54.8103 33.6862 54.8103C36.4447 54.8103 38.9599 51.6494 40.6638 46.6206" stroke="#7304E2" stroke-width="2" stroke-miterlimit="10" stroke-linecap="round" stroke-linejoin="round"/>
<path opacity="0.1" d="M40.0958 13.6465C38.6353 10.0546 36.6881 7.89941 34.4975 7.89941C29.9539 7.89941 26.2217 17.6695 26.2217 29.8103C26.2217 41.9511 29.9539 51.7212 34.4975 51.7212C36.4447 51.7212 38.3108 49.8534 39.6901 46.8362" stroke="#7304E2" stroke-width="2" stroke-miterlimit="10" stroke-linecap="round" stroke-linejoin="round"/>
<path d="M10.157 9.04883L10.9683 10.4856L12.3476 11.2758L10.9683 12.0661L10.157 13.5029L9.42674 12.0661L7.96631 11.2758L9.42674 10.4856L10.157 9.04883Z" fill="#BD80FF"/>
<path d="M54.619 9.40796L55.4304 10.9166L56.972 11.7786L55.4304 12.6407L54.619 14.1493L53.8077 12.6407L52.2661 11.7786L53.8077 10.9166L54.619 9.40796Z" fill="#7304E2"/>
<path d="M52.2659 47.2672L52.915 48.4166L54.0509 49.0632L52.915 49.7097L52.2659 50.931L51.6168 49.7097L50.481 49.0632L51.6168 48.4166L52.2659 47.2672Z" fill="#BD80FF"/>
</svg>
