<svg width="60" height="52" viewBox="0 0 60 52" fill="none" xmlns="http://www.w3.org/2000/svg">
<path d="M26.083 25.8268C24.6124 26.9706 23.632 27.5425 23.4686 27.134C21.998 23.2124 18.5666 20.0261 16.4424 18.3104C15.8705 17.8202 16.1156 16.8399 16.8509 16.7582L18.73 16.5131C18.8117 16.5131 24.1222 18.8823 26.083 25.8268Z" fill="#BD80FF" stroke="#7304E2" stroke-width="1.5" stroke-miterlimit="10" stroke-linecap="round" stroke-linejoin="round"/>
<path d="M27.8806 24.4379C27.227 25.0098 26.6551 25.5 26.165 25.9085C24.1225 18.964 18.812 16.513 18.812 16.513L39.1551 13.6536C39.1551 13.5719 32.4558 20.4346 27.8806 24.4379Z" fill="white" stroke="#7304E2" stroke-width="1.5" stroke-miterlimit="10" stroke-linecap="round" stroke-linejoin="round"/>
<path d="M34.2532 35.304C32.9461 36.5294 32.2108 37.5098 32.6193 37.6732C36.2957 39.7157 38.9918 43.5556 40.3807 45.9249C40.7892 46.5785 41.7696 46.4968 42.0147 45.6798L42.5866 43.8824C42.5049 43.8824 40.8709 38.2451 34.2532 35.304Z" fill="#BD80FF" stroke="#7304E2" stroke-width="1.5" stroke-miterlimit="10" stroke-linecap="round" stroke-linejoin="round"/>
<path d="M35.9689 33.7516C35.3154 34.3235 34.8252 34.8137 34.335 35.2222C40.9526 38.2451 42.5866 43.8006 42.5866 43.8006L48.3056 24.1111C48.3056 24.1111 40.6258 29.7483 35.9689 33.7516Z" fill="white" stroke="#7304E2" stroke-width="1.5" stroke-miterlimit="10" stroke-linecap="round" stroke-linejoin="round"/>
<path d="M29.5961 39.8791L21.0177 29.9935C20.8543 29.7484 20.8543 29.4216 21.0994 29.2582C21.0994 29.2582 44.1386 4.5033 54.2693 5.64709C55.8216 5.81049 58.6811 9.07846 58.5177 10.7124C57.2105 20.7615 30.3314 39.9608 30.3314 39.9608C30.0863 40.1242 29.7595 40.1242 29.5961 39.8791Z" fill="white" stroke="#7304E2" stroke-width="1.5" stroke-miterlimit="10" stroke-linecap="round" stroke-linejoin="round"/>
<path d="M20.2827 34.3236C18.4036 34.487 16.5245 39.4706 15.7892 41.7582C15.6258 42.2484 16.0343 42.8203 16.6062 42.7386C19.0572 42.4935 24.5311 41.7582 25.103 39.8791C25.5932 38.0817 22.0801 34.1602 20.2827 34.3236Z" fill="white" stroke="#7304E2" stroke-width="1.5" stroke-miterlimit="10" stroke-linecap="round" stroke-linejoin="round"/>
<path d="M25.1843 40.1242L19.8738 33.9968C19.3836 33.4249 19.3836 32.4445 20.0372 31.9543L21.5895 30.6471L28.8608 38.9804L27.3085 40.2876C26.6549 40.8595 25.6745 40.7778 25.1843 40.1242Z" fill="#BD80FF" stroke="#7304E2" stroke-width="1.5" stroke-miterlimit="10" stroke-linecap="round" stroke-linejoin="round"/>
<path d="M49.4491 17.0849C51.1186 17.0849 52.472 15.7316 52.472 14.0621C52.472 12.3926 51.1186 11.0392 49.4491 11.0392C47.7797 11.0392 46.4263 12.3926 46.4263 14.0621C46.4263 15.7316 47.7797 17.0849 49.4491 17.0849Z" fill="#BD80FF" stroke="#7304E2" stroke-width="1.5" stroke-miterlimit="10" stroke-linecap="round" stroke-linejoin="round"/>
<path d="M40.217 32.2811L38.3379 29.9935" stroke="#7304E2" stroke-width="1.5" stroke-miterlimit="10" stroke-linecap="round" stroke-linejoin="round"/>
<path d="M33.7627 30.3203L37.3575 34.5687" stroke="#7304E2" stroke-width="1.5" stroke-miterlimit="10" stroke-linecap="round" stroke-linejoin="round"/>
<path d="M16.1158 26.7255L10.9688 30.3202" stroke="#7304E2" stroke-width="1.5" stroke-miterlimit="10" stroke-linecap="round" stroke-linejoin="round"/>
<path d="M30.2499 46.9053L25.1846 50.5" stroke="#7304E2" stroke-width="1.5" stroke-miterlimit="10" stroke-linecap="round" stroke-linejoin="round"/>
<path d="M10.4786 46.9053L5.33154 50.5" stroke="#7304E2" stroke-width="1.5" stroke-miterlimit="10" stroke-linecap="round" stroke-linejoin="round"/>
<path d="M1.24654 40.9411V39.9608L0.756348 39.1438H1.73674L2.55373 38.6536V39.634L3.12563 40.451H2.14524L1.24654 40.9411Z" fill="#2C71F0"/>
<path d="M36.0505 5.81046L34.7433 4.25818L32.8643 3.60458L34.4165 2.37909L35.0701 0.5L36.3773 2.05229L38.2564 2.70589L36.7041 3.93138L36.0505 5.81046Z" fill="#2C71F0"/>
<path d="M56.0666 40.1241L55.5764 38.6536L54.4326 37.6732L55.9032 37.183L56.8836 36.0392L57.2921 37.5098L58.5176 38.4902L57.047 38.9804L56.0666 40.1241Z" fill="#2C71F0"/>
</svg>
