<svg width="25" height="24" viewBox="0 0 25 24" fill="none" xmlns="http://www.w3.org/2000/svg">
<g clip-path="url(#clip0)">
<path d="M12.9119 9.5C10.7869 9.5 9.16193 7.875 9.16193 5.75C9.16193 3.625 10.7869 2 12.9119 2C15.0369 2 16.6619 3.625 16.6619 5.75C16.6619 7.875 15.0369 9.5 12.9119 9.5Z" fill="#2C71F0"/>
<path d="M15.4119 22H10.4119V17L7.91193 14.5V10.75H17.9119V14.5L15.4119 17V22Z" fill="#2C71F0"/>
<path d="M5.41193 8.25C4.03693 8.25 2.91193 7.125 2.91193 5.75C2.91193 4.375 4.03693 3.25 5.41193 3.25C6.78693 3.25 7.91193 4.375 7.91193 5.75C7.91193 7.125 6.78693 8.25 5.41193 8.25Z" fill="#15357A"/>
<path d="M6.66193 15V9.5H2.91193V13.25L4.16193 14.5V19.5H7.91193V16.25L6.66193 15Z" fill="#15357A"/>
<path d="M20.4119 8.25C21.7869 8.25 22.9119 7.125 22.9119 5.75C22.9119 4.375 21.7869 3.25 20.4119 3.25C19.0369 3.25 17.9119 4.375 17.9119 5.75C17.9119 7.125 19.0369 8.25 20.4119 8.25Z" fill="#15357A"/>
<path d="M19.1619 15V9.5H22.9119V13.25L21.6619 14.5V19.5H17.9119V16.25L19.1619 15Z" fill="#15357A"/>
</g>
<defs>
<clipPath id="clip0">
<rect width="20" height="20" fill="white" transform="translate(2.91193 2)"/>
</clipPath>
</defs>
</svg>
