<svg width="88" height="62" viewBox="0 0 88 62" fill="none" xmlns="http://www.w3.org/2000/svg">
<path d="M49.3941 60.8472H1.06641C2.66929 56.8606 5.22318 53.316 8.5106 50.5151C11.798 47.7141 15.7216 45.7398 19.9473 44.7603C16.6133 43.5048 13.7525 41.2632 11.755 38.3415C9.75756 35.4197 8.7208 31.96 8.78618 28.4344C8.78618 18.9662 16.0409 11.2812 24.9698 11.2812H25.8999H25.9929C28.2804 11.4077 30.5107 12.0357 32.5222 13.1197C35.1968 14.6672 37.4082 16.8881 38.9311 19.5559C40.4539 22.2237 41.2336 25.243 41.1906 28.3057C41.2547 31.8024 40.2313 35.2341 38.2585 38.1374C36.2858 41.0406 33.4588 43.2754 30.1597 44.5397C32.8096 45.0739 35.354 46.0301 37.6935 47.371C38.5235 47.8318 39.3248 48.3413 40.0931 48.8969C43.397 51.2868 46.1174 54.3775 48.0547 57.9423C48.5696 58.8783 49.0172 59.849 49.3941 60.8472Z" fill="#4AC7D3" stroke="#01090F" stroke-width="0.5" stroke-linecap="round" stroke-linejoin="round"/>
<path d="M35.2084 49.2353L35.2068 49.2341C32.2885 46.9724 28.9106 45.3664 25.3085 44.5233C28.3349 43.2037 30.9273 41.0608 32.7782 38.3369C34.7795 35.3917 35.817 31.9096 35.7502 28.362C35.7949 25.2577 35.0066 22.1972 33.4658 19.4921C31.9244 16.7859 29.6848 14.5321 26.9757 12.9603L26.9757 12.9603L26.9724 12.9584C26.0666 12.4512 25.1127 12.035 24.1249 11.7155C24.7133 11.6025 25.3092 11.5292 25.9084 11.4961H25.9876C28.2349 11.6213 30.4258 12.2385 32.4019 13.3029C35.037 14.8283 37.2155 17.0167 38.7156 19.6447C40.2164 22.2738 40.9847 25.2491 40.9423 28.2671L40.9422 28.2671L40.9423 28.2752C41.0055 31.7199 39.9972 35.1011 38.0534 37.9617C36.1096 40.8224 33.3237 43.0249 30.0719 44.2711L29.2675 44.5793L30.112 44.7496C32.7356 45.2785 35.2547 46.2252 37.5708 47.5527L37.5738 47.5544C38.3951 48.0104 39.188 48.5146 39.9483 49.0643C43.222 51.4324 45.9174 54.4948 47.8367 58.0265L47.8369 58.0268C48.2901 58.8585 48.6896 59.7175 49.0331 60.5988H43.9813C43.597 59.6923 43.161 58.8081 42.6753 57.9504C41.2648 55.4022 39.4607 53.0873 37.3282 51.0892C36.6541 50.4358 35.9466 49.817 35.2084 49.2353Z" fill="#FFC664" stroke="#01090F" stroke-width="0.5"/>
<path d="M86.9332 60.8667H38.5684C40.1744 56.8789 42.7315 53.3336 46.0221 50.5327C49.3128 47.7318 53.2394 45.7581 57.4678 44.7798C54.1339 43.5243 51.273 41.2828 49.2756 38.361C47.2781 35.4392 46.2414 31.9796 46.3067 28.454C46.3067 18.9857 53.5615 11.3008 62.5089 11.3008H63.439C65.7284 11.416 67.9612 12.0447 69.9683 13.1393C72.6868 14.698 74.9311 16.9507 76.466 19.6613C78.0009 22.3719 78.77 25.4406 78.6926 28.5459C78.7567 32.0425 77.7332 35.4743 75.7605 38.3775C73.7877 41.2808 70.9608 43.5155 67.6617 44.7798C70.3165 45.3171 72.8665 46.2731 75.214 47.6111C76.0406 48.0678 76.836 48.5776 77.5951 49.1371C80.8736 51.506 83.58 54.5639 85.5194 58.0906C86.0468 58.9869 86.5189 59.914 86.9332 60.8667Z" fill="#4AC7D3" stroke="#01090F" stroke-width="0.5" stroke-linecap="round" stroke-linejoin="round"/>
<path d="M72.7432 49.2524L72.7429 49.2522C69.8294 46.9935 66.4578 45.3879 62.8621 44.5421C65.8643 43.2344 68.4408 41.1174 70.2915 38.426C72.2939 35.5141 73.3516 32.0681 73.3234 28.5468C73.3665 25.4402 72.5754 22.378 71.031 19.6724C69.4861 16.9659 67.2428 14.7132 64.5301 13.1437L64.5302 13.1437L64.5271 13.142C63.6227 12.6355 62.6702 12.2198 61.684 11.9005C62.2752 11.788 62.8737 11.7143 63.4756 11.68C65.7219 11.7951 67.9123 12.4127 69.8818 13.4862C72.5343 15.0169 74.7255 17.2188 76.2299 19.8646C77.7348 22.5112 78.4981 25.5064 78.4412 28.5414L78.441 28.5414L78.4412 28.5507C78.5044 31.9954 77.4961 35.3766 75.5523 38.2372C73.6084 41.098 70.8226 43.3005 67.5708 44.5466L66.7675 44.8544L67.6107 45.0251C70.2395 45.5571 72.7645 46.5037 75.0888 47.8285L75.0917 47.8302C75.9088 48.2816 76.695 48.7855 77.4453 49.3385L77.4472 49.3399C80.696 51.6873 83.3775 54.7172 85.299 58.2112L85.2989 58.2113L85.3026 58.2175C85.7601 58.9952 86.1756 59.7961 86.5473 60.6169H81.516C81.1206 59.7054 80.6659 58.8201 80.1546 57.9667C78.7676 55.4195 76.9825 53.1049 74.8651 51.1082C74.1947 50.4495 73.4862 49.8299 72.7432 49.2524Z" fill="#FFC664" stroke="#01090F" stroke-width="0.5"/>
<path d="M73.6318 60.8472H15.4824C17.3963 56.0311 20.4649 51.7464 24.4244 48.3614C28.384 44.9764 33.1161 42.5924 38.2139 41.4143C34.1879 39.9155 30.7301 37.2216 28.3154 33.7026C25.9006 30.1836 24.6473 26.012 24.7275 21.7608C24.7275 10.3805 33.4704 1.13281 44.2223 1.13281H45.3384H45.45C48.2127 1.30878 50.8979 2.10748 53.3 3.46771C56.5187 5.32559 59.1807 7.99457 61.0141 11.202C62.8475 14.4095 63.7867 18.0404 63.7357 21.724C63.8446 25.9587 62.627 30.1232 60.2495 33.6478C57.8721 37.1724 54.4509 39.8849 50.4539 41.4143C53.6254 42.0563 56.6716 43.1985 59.4758 44.7971C60.4782 45.3443 61.4415 45.9586 62.3591 46.6356C67.3033 50.3039 71.1584 55.2189 73.5202 60.8656L73.6318 60.8472Z" fill="#97DDE5" stroke="#01090F" stroke-width="0.5" stroke-linecap="round" stroke-linejoin="round"/>
<path d="M73.1346 60.5974C70.7783 55.1457 67.012 50.3993 62.2107 46.8369C61.3023 46.1667 60.3485 45.5585 59.3561 45.0168L59.3521 45.0146L59.3521 45.0145C56.5711 43.4291 53.5499 42.2962 50.4044 41.6595L49.5608 41.4888L50.3647 41.181C54.2929 39.6773 57.6581 37.0168 60.0049 33.5604C62.3516 30.1041 63.5667 26.0188 63.4858 21.8578L63.4857 21.8494L63.4858 21.8494C63.5362 18.2107 62.6085 14.6237 60.7972 11.455C58.986 8.2865 56.3562 5.64952 53.176 3.81364C50.8095 2.47371 48.1641 1.68629 45.4421 1.51172H45.346C44.5619 1.55873 43.7823 1.65778 43.0124 1.80807C44.2827 2.21205 45.5085 2.74434 46.6701 3.39704L46.6728 3.39859L46.6728 3.3986C49.9261 5.28084 52.6162 7.98264 54.4683 11.2286C56.3198 14.4733 57.2675 18.1455 57.2147 21.8707C57.2955 26.1316 56.0494 30.3139 53.6454 33.8512C51.394 37.1641 48.2289 39.7611 44.534 41.3399C48.9133 42.3314 53.024 44.2579 56.5761 46.988M73.1346 60.5974L56.4252 47.1874M73.1346 60.5974H67.0819M73.1346 60.5974L65.4983 57.3985M56.5761 46.988C56.5766 46.9884 56.5771 46.9888 56.5776 46.9892L56.4252 47.1874M56.5761 46.988C56.5757 46.9877 56.5753 46.9874 56.5748 46.9871L56.4252 47.1874M56.5761 46.988C57.4755 47.66 58.3336 48.3843 59.1458 49.1572M56.4252 47.1874C57.3172 47.8537 58.1682 48.572 58.9737 49.3384M59.1458 49.1572C59.1457 49.157 59.1455 49.1569 59.1454 49.1567L58.9737 49.3384M59.1458 49.1572C61.6871 51.5582 63.8307 54.3392 65.4983 57.3985M59.1458 49.1572C59.1459 49.1572 59.146 49.1573 59.146 49.1573L58.9737 49.3384M58.9737 49.3384L65.4983 57.3985M65.4983 57.3985C65.498 57.3979 65.4977 57.3973 65.4974 57.3968L65.2797 57.5197L65.4992 57.4001C65.4989 57.3996 65.4986 57.399 65.4983 57.3985ZM65.4983 57.3985C66.0843 58.4358 66.6129 59.5037 67.0819 60.5974M67.0819 60.5974H66.9167V60.8474L67.1469 60.7501C67.1254 60.6991 67.1037 60.6483 67.0819 60.5974ZM44.1312 41.5071C43.9821 41.4752 43.8327 41.4443 43.683 41.4145C43.8255 41.3601 43.9673 41.3041 44.1083 41.2466L44.1312 41.5071Z" fill="#FFC664" stroke="#01090F" stroke-width="0.5"/>
</svg>
