<svg width="128" height="130" viewBox="0 0 128 130" fill="none" xmlns="http://www.w3.org/2000/svg">
<g clip-path="url(#clip0)">
<path d="M87.4215 71.5803L81.7775 76.834L81.7075 76.8941L77.8147 80.5166C77.2317 81.0779 76.6061 81.5931 75.9434 82.0577C73.6042 83.7032 70.8894 84.7354 68.0478 85.0598C67.3837 85.1398 66.7154 85.1799 66.0464 85.1799C65.3776 85.1754 64.7096 85.1354 64.045 85.0598C60.7461 84.6941 57.6216 83.3883 55.0435 81.2978C52.4654 79.2073 50.5421 76.4202 49.5027 73.268C48.4632 70.1158 48.3512 66.7313 49.1801 63.5173C50.009 60.3033 51.7438 57.3951 54.1781 55.1388L64.045 46.0324L64.1951 46.1825L66.7569 43.6107L74.7626 51.6163L72.481 53.8979L73.8619 55.1788C76.0719 57.2451 77.7036 59.853 78.5953 62.7441L87.4215 71.5803Z" fill="white" stroke="#15357A" stroke-width="2" stroke-linecap="round" stroke-linejoin="round"/>
<path d="M88.9826 78.5953C88.2585 79.317 87.2779 79.7222 86.2557 79.7222C85.2334 79.7222 84.2528 79.317 83.5287 78.5953L81.7775 76.834L78.3951 73.4516C78.3991 73.4849 78.3991 73.5185 78.3951 73.5517L81.7475 76.8941L83.6588 78.8154C84.3821 79.5373 84.7889 80.5169 84.7898 81.5388C84.7908 82.5607 84.3857 83.541 83.6638 84.2642C82.9419 84.9875 81.9623 85.3943 80.9405 85.3952C79.9186 85.3962 78.9382 84.9911 78.215 84.2692L75.9434 82.0577L74.1321 80.2564L78.0149 84.1392C78.707 84.8872 79.0745 85.879 79.037 86.8974C78.9994 87.9158 78.56 88.8779 77.8147 89.573C76.9328 90.2958 75.8278 90.6907 74.6875 90.6907C73.5473 90.6907 72.4422 90.2958 71.5603 89.573L67.0472 86.0605L66.3367 85.36C65.263 85.6939 64.1609 85.9284 63.0443 86.0605C58.1609 86.6209 54.038 84.1292 50.2153 80.5366L36.6058 67.8677C34.8991 66.3263 33.516 64.4607 32.5371 62.3797C31.5582 60.2987 31.003 58.0438 30.9037 55.7462C30.8045 53.4486 31.1632 51.1542 31.9591 48.9965C32.7549 46.8388 33.9719 44.861 35.5394 43.1781C37.1068 41.4953 38.9932 40.1409 41.089 39.194C43.1847 38.2471 45.4479 37.7264 47.7468 37.6624C50.0456 37.5983 52.3343 37.9921 54.4795 38.8209C56.6247 39.6497 58.5837 40.8969 60.2424 42.4899L64.045 46.0324L64.1952 46.1825L72.481 53.8979L73.8619 55.1788C75.1267 56.3664 76.2031 57.7398 77.0542 59.2517C78.858 62.3927 81.0799 65.2743 83.6588 67.8177L87.4115 71.5803L88.9726 73.1414C89.6956 73.8641 90.1026 74.844 90.1045 75.8663C90.1064 76.8886 89.7029 77.8699 88.9826 78.5953Z" fill="white" stroke="#15357A" stroke-width="2" stroke-linecap="round" stroke-linejoin="round"/>
<path d="M92.2649 43.3604C89.1206 40.0123 84.7807 38.0422 80.1905 37.8792C75.6003 37.7161 71.1316 39.3733 67.7576 42.4898L64.1551 46.1424L55.3089 54.9786C54.6269 55.6648 54.2441 56.593 54.2441 57.5604C54.2441 58.5279 54.6269 59.456 55.3089 60.1422C56.751 61.5777 58.703 62.3835 60.7377 62.3835C62.7725 62.3835 64.7244 61.5777 66.1665 60.1422L72.4409 53.8578L73.8219 55.1387C75.1617 56.3889 76.2934 57.8449 77.1743 59.4518C78.5349 62.0143 80.2496 64.3724 82.2678 66.4567L87.4215 71.6103L91.4243 67.8977C94.7844 64.7523 96.7599 60.4027 96.9175 55.8029C97.0751 51.203 95.4019 46.7284 92.2649 43.3604Z" fill="#EAF1FE" stroke="#15357A" stroke-width="2" stroke-linecap="round" stroke-linejoin="round"/>
<path d="M46.3412 66.6358L42.7398 70.502C41.2141 72.1398 41.3034 74.7027 42.9391 76.2265C44.5749 77.7503 47.1378 77.6579 48.6635 76.0201L52.2649 72.1539C53.7906 70.5161 53.7014 67.9532 52.0656 66.4294C50.4298 64.9056 47.8669 64.998 46.3412 66.6358Z" fill="#EAF1FE" stroke="#15357A" stroke-width="2" stroke-linecap="round" stroke-linejoin="round"/>
<path d="M52.2413 72.5512L48.6399 76.4174C47.1142 78.0552 47.2034 80.6182 48.8392 82.1419C50.475 83.6657 53.0379 83.5733 54.5636 81.9355L58.165 78.0694C59.6907 76.4316 59.6014 73.8686 57.9657 72.3448C56.3299 70.821 53.767 70.9134 52.2413 72.5512Z" fill="#EAF1FE" stroke="#15357A" stroke-width="2" stroke-linecap="round" stroke-linejoin="round"/>
<path d="M58.1583 78.4693L54.5568 82.3355C53.0311 83.9733 53.1204 86.5362 54.7562 88.06C56.3919 89.5838 58.9548 89.4914 60.4805 87.8536L64.082 83.9874C65.6076 82.3496 65.5184 79.7867 63.8826 78.2629C62.2468 76.7391 59.6839 76.8315 58.1583 78.4693Z" fill="#EAF1FE" stroke="#15357A" stroke-width="2" stroke-linecap="round" stroke-linejoin="round"/>
<path d="M64.0752 84.3774L60.4737 88.2435C58.948 89.8813 59.0373 92.4443 60.6731 93.9681C62.3088 95.4919 64.8717 95.3995 66.3974 93.7617L69.9989 89.8955C71.5245 88.2577 71.4353 85.6947 69.7995 84.1709C68.1637 82.6471 65.6008 82.7396 64.0752 84.3774Z" fill="#EAF1FE" stroke="#15357A" stroke-width="2" stroke-linecap="round" stroke-linejoin="round"/>
<path d="M74.1121 80.2464L67.5675 73.7018" stroke="#15357A" stroke-width="2" stroke-linecap="round" stroke-linejoin="round"/>
<path d="M79.4759 74.5824L73.1815 68.368" stroke="#15357A" stroke-width="2.2" stroke-linecap="round" stroke-linejoin="round"/>
<path d="M82.9684 51.7263C82.9684 51.7263 79.686 57.7305 72.4409 53.8578L82.9684 51.7263Z" fill="#EAF1FE"/>
<path d="M82.9684 51.7263C82.9684 51.7263 79.686 57.7305 72.4409 53.8578" stroke="#15357A" stroke-width="2" stroke-linecap="round" stroke-linejoin="round"/>
<path d="M40.6886 21.8153L40.1983 25.7281L41.9095 29.2906L37.9867 28.8002L34.4242 30.5014L34.9145 26.5887L33.2133 23.0262L37.1261 23.5165L40.6886 21.8153Z" fill="#15357A"/>
<path d="M111.058 65.2759L110.698 68.1079L111.929 70.6797L109.107 70.3194L106.535 71.5503L106.885 68.7283L105.654 66.1565L108.486 66.5067L111.058 65.2759Z" fill="#2C71F0"/>
<path d="M39.1275 84.1691L38.8773 86.1305L39.7279 87.9118L37.7766 87.6716L35.9953 88.5222L36.2355 86.5608L35.3849 84.7796L37.3463 85.0297L39.1275 84.1691Z" fill="#2C71F0"/>
<path d="M66.5969 114.46C84.5477 114.46 99.0997 113.345 99.0997 111.969C99.0997 110.593 84.5477 109.477 66.5969 109.477C48.646 109.477 34.094 110.593 34.094 111.969C34.094 113.345 48.646 114.46 66.5969 114.46Z" fill="#EAF1FE"/>
</g>
<defs>
<clipPath id="clip0">
<rect width="128" height="129.341" fill="white"/>
</clipPath>
</defs>
</svg>
