<svg width="128" height="128" viewBox="0 0 128 128" fill="none" xmlns="http://www.w3.org/2000/svg">
<path d="M56.6413 2.42548L63.6452 25.3476" stroke="#2C71F0" stroke-width="1.5" stroke-miterlimit="10" stroke-linecap="round" stroke-linejoin="round"/>
<path d="M95.6937 84.3507C93.6775 84.2445 91.6612 84.7752 90.4938 84.9874" stroke="#15357A" stroke-width="1.5" stroke-miterlimit="10" stroke-linecap="round" stroke-linejoin="round"/>
<path d="M94.9508 88.2772C94.6325 86.8976 95.057 85.6242 95.5876 84.4568C97.2855 84.4568 98.9835 84.8813 100.151 85.8364C103.653 88.7017 95.7998 92.3098 94.9508 88.2772Z" stroke="#15357A" stroke-width="1.5" stroke-miterlimit="10" stroke-linecap="round" stroke-linejoin="round"/>
<path d="M95.6936 84.3507C95.6936 84.3507 96.2242 80.7426 99.8323 79.1508" stroke="#15357A" stroke-width="1.5" stroke-miterlimit="10" stroke-linecap="round" stroke-linejoin="round"/>
<path d="M58.7637 29.5924L53.5638 11.9763" stroke="#15357A" stroke-width="1.5" stroke-miterlimit="10" stroke-linecap="round" stroke-linejoin="round"/>
<path d="M46.9843 11.0212L49.7435 18.5558" stroke="#15357A" stroke-width="1.5" stroke-miterlimit="10" stroke-linecap="round" stroke-linejoin="round"/>
<path d="M58.3393 50.4981C56.8537 50.1798 55.4741 49.3308 54.519 48.2696C52.8211 46.4655 52.0782 43.9186 52.715 41.3717C53.67 37.233 57.8088 34.7923 61.9475 35.7473C62.6903 35.9596 63.327 36.1718 63.9638 36.5963C66.829 38.1881 68.3147 41.584 67.5719 44.9799C66.5107 49.0124 62.3719 51.4532 58.3393 50.4981Z" fill="white" stroke="#15357A" stroke-width="1.5" stroke-miterlimit="10" stroke-linecap="round" stroke-linejoin="round"/>
<path opacity="0.6" d="M62.8097 42.5138C62.8494 42.7204 62.851 42.9236 62.8147 43.1234C62.7852 43.3265 62.7216 43.5134 62.6239 43.6841C62.5262 43.8548 62.3961 44.0059 62.2335 44.1375C62.0777 44.2723 61.8918 44.3782 61.6758 44.4552L61.3669 43.5887C61.6281 43.4955 61.814 43.35 61.9246 43.152C62.0352 42.954 62.0467 42.732 61.9589 42.4858C61.8819 42.2698 61.7604 42.1037 61.5943 41.9873C61.4283 41.871 61.2323 41.8531 61.0062 41.9337C60.9007 41.9713 60.8124 42.0255 60.7414 42.0961C60.6771 42.17 60.6274 42.2528 60.5922 42.3446C60.5587 42.4415 60.5355 42.5432 60.5226 42.6497C60.5096 42.7562 60.5034 42.866 60.5041 42.979C60.5022 43.2118 60.4961 43.449 60.4859 43.6904C60.4775 43.9369 60.4419 44.1704 60.379 44.391C60.3161 44.6116 60.2164 44.8085 60.08 44.9817C59.9436 45.1549 59.7498 45.2862 59.4986 45.3758C59.2575 45.4618 59.0272 45.4986 58.8076 45.4863C58.5899 45.479 58.389 45.4317 58.205 45.3444C58.0228 45.2621 57.8568 45.1458 57.7069 44.9954C57.562 44.8432 57.4369 44.667 57.3316 44.4668L56.5328 44.7515L56.3126 44.1336L57.1113 43.8489C57.068 43.6322 57.0609 43.4139 57.0901 43.194C57.1211 42.9791 57.1869 42.7745 57.2874 42.5801C57.3948 42.3889 57.5396 42.2156 57.722 42.06C57.9093 41.9026 58.1361 41.7764 58.4024 41.6815L58.7113 42.5481C58.3647 42.6716 58.1325 42.862 58.0147 43.1192C57.8969 43.3763 57.8917 43.6556 57.9991 43.957C58.0421 44.0776 58.1 44.1843 58.1728 44.2773C58.2506 44.3684 58.3355 44.4401 58.4277 44.4921C58.5267 44.5474 58.632 44.5807 58.7435 44.5919C58.8551 44.603 58.9712 44.5871 59.0917 44.5442C59.2274 44.4958 59.3305 44.4279 59.4013 44.3404C59.4738 44.2579 59.5249 44.1632 59.5548 44.0563C59.5914 43.9527 59.6119 43.8435 59.6163 43.7287C59.6275 43.6171 59.632 43.5107 59.6299 43.4096C59.6294 43.138 59.6342 42.8815 59.6444 42.6401C59.6596 42.3968 59.6988 42.1734 59.762 41.9696C59.8321 41.7691 59.9389 41.5923 60.0825 41.4392C60.2261 41.2861 60.431 41.1621 60.6973 41.0672C60.8882 40.9991 61.0756 40.9691 61.2597 40.9771C61.4505 40.9883 61.6277 41.0327 61.7912 41.1103C61.9598 41.1861 62.1104 41.2909 62.2431 41.4248C62.3826 41.5619 62.5005 41.7181 62.5969 41.8932L63.3956 41.6084L63.6159 42.2263L62.8097 42.5138Z" fill="#15357A"/>
<path opacity="0.1" d="M54.519 48.2696C52.8211 46.4655 52.0782 43.9186 52.715 41.3717C53.67 37.233 57.8088 34.7923 61.9475 35.7473C62.6903 35.9596 63.327 36.1718 63.9638 36.5963C63.9638 36.4902 52.0783 35.2167 54.519 48.2696Z" fill="#15357A"/>
<path d="M89.9631 61.2164L89.7509 62.7021L90.4937 64.0817L88.9019 63.8694L87.5223 64.6123L87.7346 63.0205L87.0979 61.6409L88.5836 61.8532L89.9631 61.2164Z" fill="#15357A"/>
<path d="M29.6866 101.118L29.5806 102.603L30.2173 103.877L28.7316 103.665L27.4581 104.301L27.6704 102.922L27.0336 101.542L28.4132 101.754L29.6866 101.118Z" fill="#2C71F0"/>
<path d="M28.9438 65.9918L28.6255 68.4326L29.6867 70.6611L27.2459 70.3428L25.0174 71.404L25.3357 68.9632L24.2745 66.7347L26.7153 67.053L28.9438 65.9918Z" fill="#15357A"/>
<path d="M103.122 97.5097L102.804 100.375L103.971 102.922L101.212 102.604L98.6651 103.771L98.9835 101.012L97.71 98.4648L100.575 98.7832L103.122 97.5097Z" fill="#15357A"/>
<path d="M65.4493 113.746C81.3323 113.746 94.208 112.416 94.208 110.775C94.208 109.134 81.3323 107.803 65.4493 107.803C49.5663 107.803 36.6906 109.134 36.6906 110.775C36.6906 112.416 49.5663 113.746 65.4493 113.746Z" fill="#EAF1FE"/>
<path d="M51.1229 66.6285C47.0903 62.8082 44.5434 63.9755 44.5434 63.9755V71.5101L51.1229 69.1754V66.6285Z" fill="white" stroke="#15357A" stroke-width="1.5" stroke-miterlimit="10" stroke-linecap="round" stroke-linejoin="round"/>
<path d="M48.2579 104.195V104.832V108.228C48.2579 108.334 48.2579 108.44 48.2579 108.44C48.364 109.289 49.1069 110.032 50.062 110.032H50.6987H52.715C52.715 110.987 53.4578 111.836 54.5191 111.836H58.6578C59.6128 111.836 60.4618 111.093 60.4618 110.032V106.848C63.0087 107.273 65.3433 107.379 67.3596 107.273C68.527 107.273 69.5882 107.06 70.5433 106.954V107.697V110.244C70.5433 111.199 71.2861 111.836 72.1351 111.836H75.7432C76.6983 111.836 77.335 111.093 77.335 110.244V109.714H79.2452C79.7758 109.714 80.3064 109.501 80.6247 109.077C80.9431 108.758 81.1553 108.334 81.1553 107.803V102.391C83.9145 100.375 85.7185 98.0402 86.992 95.7056C87.2042 95.2811 87.5226 94.7505 87.6287 94.326C89.1144 90.9301 89.4328 87.7465 89.4328 85.4119C89.4328 83.2895 89.1144 81.9099 89.1144 81.9099V81.8038C88.9021 80.212 88.5838 78.8324 88.0532 77.4528C87.6287 76.4977 87.2042 75.6488 86.7797 74.9059C85.6124 72.9957 84.2328 71.5101 82.9594 70.4488C81.4737 69.1754 80.4125 68.4326 80.4125 68.4326C73.3024 62.8082 54.3068 65.7795 54.3068 65.7795C45.3927 67.4775 41.0417 76.1794 39.6622 79.4691C39.3438 80.3181 38.4948 80.8487 37.6458 80.8487C36.903 80.8487 36.1602 81.167 35.7357 81.6976C35.2051 82.2283 34.8867 82.865 34.8867 83.6078V88.8077C34.8867 90.2934 36.1601 91.5669 37.6458 91.5669H37.752C38.6009 91.5669 39.3438 92.0975 39.6622 92.8403C40.6172 94.9627 41.6784 96.6607 42.8458 98.0402C44.6498 100.375 46.56 101.861 48.1518 102.71V103.983V104.195" fill="white"/>
<path d="M48.2579 104.195V104.832V108.228C48.2579 108.334 48.2579 108.44 48.2579 108.44C48.364 109.289 49.1069 110.032 50.062 110.032H50.6987H52.715C52.715 110.987 53.4578 111.836 54.5191 111.836H58.6578C59.6128 111.836 60.4618 111.093 60.4618 110.032V106.848C63.0087 107.273 65.3433 107.379 67.3596 107.273C68.527 107.273 69.5882 107.06 70.5433 106.954V107.697V110.244C70.5433 111.199 71.2861 111.836 72.1351 111.836H75.7432C76.6983 111.836 77.335 111.093 77.335 110.244V109.714H79.2452C79.7758 109.714 80.3064 109.501 80.6247 109.077C80.9431 108.758 81.1553 108.334 81.1553 107.803V102.391C83.9145 100.375 85.7185 98.0402 86.992 95.7056C87.2042 95.2811 87.5226 94.7505 87.6287 94.326C89.1144 90.9301 89.4328 87.7465 89.4328 85.4119C89.4328 83.2895 89.1144 81.9099 89.1144 81.9099V81.8038C88.9021 80.212 88.5838 78.8324 88.0532 77.4528C87.6287 76.4977 87.2042 75.6488 86.7797 74.9059C85.6124 72.9957 84.2328 71.5101 82.9594 70.4488C81.4737 69.1754 80.4125 68.4326 80.4125 68.4326C73.3024 62.8082 54.3068 65.7795 54.3068 65.7795C45.3927 67.4775 41.0417 76.1794 39.6622 79.4691C39.3438 80.3181 38.4948 80.8487 37.6458 80.8487C36.903 80.8487 36.1602 81.167 35.7357 81.6976C35.2051 82.2283 34.8867 82.865 34.8867 83.6078V88.8077C34.8867 90.2934 36.1601 91.5669 37.6458 91.5669H37.752C38.6009 91.5669 39.3438 92.0975 39.6622 92.8403C40.6172 94.9627 41.6784 96.6607 42.8458 98.0402C44.6498 100.375 46.56 101.861 48.1518 102.71V103.983V104.195" stroke="#15357A" stroke-width="1.5" stroke-miterlimit="10" stroke-linecap="round" stroke-linejoin="round"/>
<path opacity="0.1" d="M47.8331 80.5304C48.595 80.5304 49.2127 79.9127 49.2127 79.1508C49.2127 78.3889 48.595 77.7712 47.8331 77.7712C47.0712 77.7712 46.4536 78.3889 46.4536 79.1508C46.4536 79.9127 47.0712 80.5304 47.8331 80.5304Z" fill="#15357A"/>
<path d="M49.9558 73.7387V63.0205C49.9558 63.0205 57.2781 62.4899 58.6577 70.5551" fill="white"/>
<path d="M49.9558 73.7387V63.0205C49.9558 63.0205 57.2781 62.4899 58.6577 70.5551" stroke="#15357A" stroke-width="1.5" stroke-miterlimit="10" stroke-linecap="round" stroke-linejoin="round"/>
<path d="M52.8209 110.032V99.7382" stroke="#15357A" stroke-width="1.5" stroke-miterlimit="10" stroke-linecap="round" stroke-linejoin="round"/>
<path d="M77.547 109.607V100.163" stroke="#15357A" stroke-width="1.5" stroke-miterlimit="10" stroke-linecap="round" stroke-linejoin="round"/>
<path d="M60.4616 106.742V103.24" stroke="#15357A" stroke-width="1.5" stroke-miterlimit="10" stroke-linecap="round" stroke-linejoin="round"/>
<path d="M70.6494 106.848V103.24" stroke="#15357A" stroke-width="1.5" stroke-miterlimit="10" stroke-linecap="round" stroke-linejoin="round"/>
<path d="M48.2577 102.71C48.2577 102.71 51.123 104.62 52.8209 105.044Z" fill="white"/>
<path d="M48.2577 102.71C48.2577 102.71 51.123 104.62 52.8209 105.044" stroke="#15357A" stroke-width="1.5" stroke-miterlimit="10" stroke-linecap="round" stroke-linejoin="round"/>
<path d="M81.3673 102.285C81.3673 102.285 79.1388 104.514 77.547 105.044Z" fill="white"/>
<path d="M81.3673 102.285C81.3673 102.285 79.1388 104.514 77.547 105.044" stroke="#15357A" stroke-width="1.5" stroke-miterlimit="10" stroke-linecap="round" stroke-linejoin="round"/>
<path opacity="0.1" d="M71.4982 68.4326H60.2494C59.931 68.4326 59.7188 68.2204 59.7188 67.902V67.6898C59.7188 67.3714 59.931 67.1592 60.2494 67.1592H71.4982C71.8166 67.1592 72.0288 67.3714 72.0288 67.6898V67.902C72.1349 68.1143 71.8166 68.4326 71.4982 68.4326Z" fill="#15357A"/>
<path opacity="0.1" d="M89.645 85.3058C89.645 87.6405 89.3266 90.8241 87.8409 94.2199C87.6287 94.6444 87.4165 95.175 87.2042 95.5995C85.9308 97.9342 84.1267 100.163 81.3676 102.285V107.697C81.3676 108.228 81.1553 108.652 80.837 108.971C80.5186 109.395 79.988 109.607 79.4574 109.607H77.5472V110.138C77.5472 111.093 76.8044 111.73 75.9554 111.73H72.3473C71.3922 111.73 70.7555 110.987 70.7555 110.138V106.954C69.8004 107.167 68.6331 107.273 67.5719 107.273C65.5556 107.379 63.2209 107.273 60.674 106.848V110.032C60.674 110.987 59.9312 111.836 58.87 111.836H54.7313C53.7762 111.836 52.9272 111.093 52.9272 110.032H50.1681C49.213 110.032 48.4701 109.395 48.364 108.44C48.364 108.334 48.364 108.228 48.364 108.228V104.195C77.8656 100.163 86.0369 83.3956 87.8409 78.6202C88.1593 77.8773 88.2654 77.3467 88.2654 77.3467C88.796 78.6202 89.2205 80.1059 89.3266 81.6977V81.8038C89.3266 81.8038 89.645 83.1834 89.645 85.3058Z" fill="#15357A"/>
</svg>
