<svg width="128" height="128" viewBox="0 0 128 128" fill="none" xmlns="http://www.w3.org/2000/svg">
<path d="M68.3577 111.766C87.9165 111.766 103.772 110.11 103.772 108.066C103.772 106.023 87.9165 104.366 68.3577 104.366C48.7989 104.366 32.9434 106.023 32.9434 108.066C32.9434 110.11 48.7989 111.766 68.3577 111.766Z" fill="#EAF1FE"/>
<path d="M82.6297 92.209C81.784 92.4204 80.7269 92.6318 79.564 92.7375H46.7925C44.2554 92.7375 42.0354 91.9975 40.1325 90.6233C36.8554 88.4033 34.7411 84.4918 35.0582 80.2633C35.0582 80.1575 35.0582 80.0518 35.0582 79.9461H72.2697C72.2697 79.9461 69.4154 92.6318 82.6297 92.209Z" fill="white" stroke="#15357A" stroke-width="1.5" stroke-miterlimit="10" stroke-linecap="round" stroke-linejoin="round"/>
<path d="M28.9268 62.8204L29.9839 64.7232L31.8868 65.7804L29.9839 66.8375L28.9268 68.7404L27.8697 66.8375L25.9668 65.7804L27.8697 64.7232L28.9268 62.8204Z" fill="#2C71F0"/>
<path d="M36.1148 21.9089L37.4891 24.4461L40.0262 25.8204L37.4891 27.3004L36.1148 29.8375L34.6348 27.3004L32.0977 25.8204L34.6348 24.4461L36.1148 21.9089Z" fill="#15357A"/>
<path d="M112.758 43.5804L113.604 45.1661L115.19 46.0118L113.604 46.8575L112.758 48.4432L111.912 46.8575L110.327 46.0118L111.912 45.1661L112.758 43.5804Z" fill="#15357A"/>
<path d="M95.7377 26.6661C94.4692 26.7718 91.5092 27.1946 90.3463 30.2604C90.0291 31.0004 89.9234 31.9518 89.9234 32.7975L90.1349 41.7832V84.7033C90.1349 84.7033 90.5577 90.4118 82.6291 92.3147C69.4148 92.7376 72.2691 80.0518 72.2691 80.0518H44.7834V34.7004C44.7834 34.7004 44.2548 26.7718 53.9805 26.5604H95.7377V26.6661Z" fill="white" stroke="#15357A" stroke-width="1.5" stroke-miterlimit="10" stroke-linecap="round" stroke-linejoin="round"/>
<path d="M100.812 41.6775H90.1353L89.9238 32.6918C89.9238 31.8461 90.0295 31.0004 90.3467 30.1547C91.5095 27.1947 94.4695 26.6661 95.7381 26.5604H96.3724C96.3724 26.6661 103.561 26.9832 100.812 41.6775Z" fill="#EAF1FE" stroke="#15357A" stroke-width="1.5" stroke-miterlimit="10" stroke-linecap="round" stroke-linejoin="round"/>
<path d="M82.6297 92.209C81.784 92.4204 80.7269 92.6318 79.564 92.7375H46.7925C44.2554 92.7375 42.0354 91.9975 40.1325 90.6233C36.8554 88.4033 34.7411 84.4918 35.0582 80.2633C35.0582 80.1575 35.0582 80.0518 35.0582 79.9461H72.2697C72.2697 79.9461 69.4154 92.6318 82.6297 92.209Z" fill="#EAF1FE" stroke="#15357A" stroke-width="1.5" stroke-miterlimit="10" stroke-linecap="round" stroke-linejoin="round"/>
<path d="M83.2637 41.1489H50.3865C49.4351 41.1489 48.5894 40.3032 48.5894 39.3518C48.5894 38.4003 49.4351 37.5546 50.3865 37.5546H83.2637C84.2151 37.5546 85.0608 38.4003 85.0608 39.3518C85.0608 40.4089 84.2151 41.1489 83.2637 41.1489Z" fill="#EAF1FE"/>
<path d="M83.2637 49.6061H50.3865C49.4351 49.6061 48.5894 48.7604 48.5894 47.8089C48.5894 46.8575 49.4351 46.0118 50.3865 46.0118H83.2637C84.2151 46.0118 85.0608 46.8575 85.0608 47.8089C85.0608 48.7604 84.2151 49.6061 83.2637 49.6061Z" fill="#EAF1FE"/>
<path d="M83.2637 58.0632H50.3865C49.4351 58.0632 48.5894 57.2175 48.5894 56.2661C48.5894 55.3146 49.4351 54.4689 50.3865 54.4689H83.2637C84.2151 54.4689 85.0608 55.3146 85.0608 56.2661C85.0608 57.2175 84.2151 58.0632 83.2637 58.0632Z" fill="#EAF1FE"/>
<path d="M83.2637 66.5204H50.3865C49.4351 66.5204 48.5894 65.6747 48.5894 64.7232C48.5894 63.7718 49.4351 62.9261 50.3865 62.9261H83.2637C84.2151 62.9261 85.0608 63.7718 85.0608 64.7232C85.0608 65.6747 84.2151 66.5204 83.2637 66.5204Z" fill="#EAF1FE"/>
<path d="M83.2637 74.9775H50.3865C49.3294 74.9775 48.5894 74.1318 48.5894 73.0747C48.5894 72.1232 49.4351 71.2775 50.3865 71.2775H83.2637C84.2151 71.2775 85.0608 72.1232 85.0608 73.0747C85.0608 74.1318 84.2151 74.9775 83.2637 74.9775Z" fill="#EAF1FE"/>
<path d="M99.0011 46.6567L67.7886 57.6421L72.9479 72.301L104.16 61.3156L99.0011 46.6567Z" fill="#EAF1FE" stroke="#15357A" stroke-width="1.5" stroke-miterlimit="10" stroke-linecap="round" stroke-linejoin="round"/>
<path d="M76.8154 72.2289L94.9983 68.7403L96.2669 68.4232L100.073 67.6832L102.504 67.2603L101.447 62.1861L100.39 56.7946L99.4383 52.0375L97.324 52.4603L75.3354 56.6889L75.124 56.7946L72.3754 57.3232L67.9354 58.1689L67.5126 58.2746H67.3011L67.0897 58.3803L67.5126 60.9175L67.8297 62.2918L68.7811 67.1546L68.9926 68.4232L69.7326 72.2289" fill="#EAF1FE"/>
<path d="M76.8154 72.2289L94.9983 68.7403L96.2669 68.4232L100.073 67.6832L102.504 67.2603L101.447 62.1861L100.39 56.7946L99.4383 52.0375L97.324 52.4603L75.3354 56.6889L75.124 56.7946L72.3754 57.3232L67.9354 58.1689L67.5126 58.2746H67.3011L67.0897 58.3803L67.5126 60.9175L67.8297 62.2918L68.7811 67.1546L68.9926 68.4232L69.7326 72.2289" stroke="#15357A" stroke-width="1.5" stroke-miterlimit="10" stroke-linecap="round" stroke-linejoin="round"/>
<path d="M100.178 56.6889H67.0897V72.2289H100.178V56.6889Z" fill="white" stroke="#15357A" stroke-width="1.5" stroke-miterlimit="10" stroke-linecap="round" stroke-linejoin="round"/>
<path d="M100.178 68.4232H67.0897V72.2289H100.178V68.4232Z" fill="#EAF1FE"/>
<path d="M100.178 56.7946H67.0897V60.9175H100.178V56.7946Z" fill="#EAF1FE"/>
<path d="M100.178 56.6889H67.0897V72.2289H100.178V56.6889Z" stroke="#15357A" stroke-width="1.5" stroke-miterlimit="10" stroke-linecap="round" stroke-linejoin="round"/>
<path d="M72.3753 57.006C72.3753 59.966 69.9439 62.3975 66.9839 62.3975V56.7946H72.3753C72.3753 56.7946 72.3753 56.9003 72.3753 57.006Z" fill="white" stroke="#15357A" stroke-width="1.5" stroke-miterlimit="10" stroke-linecap="round" stroke-linejoin="round"/>
<path d="M72.3753 72.229H66.9839V66.8375C70.0496 66.8375 72.3753 69.269 72.3753 72.229Z" fill="white" stroke="#15357A" stroke-width="1.5" stroke-miterlimit="10" stroke-linecap="round" stroke-linejoin="round"/>
<path d="M100.073 67.0489V72.3346H93.6241C93.6241 69.3746 96.0555 66.9432 99.0155 66.9432C99.3327 66.8375 99.7555 66.9432 100.073 67.0489Z" fill="white" stroke="#15357A" stroke-width="1.5" stroke-miterlimit="10" stroke-linecap="round" stroke-linejoin="round"/>
<path d="M100.072 56.6889V61.3403C99.7551 61.4461 99.3323 61.4461 99.0151 61.4461C96.2666 61.4461 94.0466 59.3318 93.7294 56.6889H100.072Z" fill="white" stroke="#15357A" stroke-width="1.5" stroke-miterlimit="10" stroke-linecap="round" stroke-linejoin="round"/>
<path d="M83.5812 70.5375C86.7924 70.5375 89.3955 67.9344 89.3955 64.7232C89.3955 61.5121 86.7924 58.9089 83.5812 58.9089C80.3701 58.9089 77.767 61.5121 77.767 64.7232C77.767 67.9344 80.3701 70.5375 83.5812 70.5375Z" fill="white"/>
<path d="M83.912 61.296C84.12 61.328 84.312 61.3947 84.488 61.496C84.6693 61.592 84.824 61.7147 84.952 61.864C85.08 62.0133 85.1787 62.1867 85.248 62.384C85.3227 62.576 85.36 62.7867 85.36 63.016H84.44C84.44 62.7387 84.3653 62.5147 84.216 62.344C84.0667 62.1733 83.8613 62.088 83.6 62.088C83.3707 62.088 83.1733 62.1467 83.008 62.264C82.8427 62.3813 82.76 62.56 82.76 62.8C82.76 62.912 82.7813 63.0133 82.824 63.104C82.872 63.1893 82.9333 63.264 83.008 63.328C83.088 63.392 83.176 63.448 83.272 63.496C83.368 63.544 83.4693 63.5867 83.576 63.624C83.7947 63.704 84.016 63.7893 84.24 63.88C84.4693 63.9707 84.6773 64.0827 84.864 64.216C85.0507 64.3493 85.2027 64.5093 85.32 64.696C85.4373 64.8827 85.496 65.1093 85.496 65.376C85.496 65.632 85.4533 65.8613 85.368 66.064C85.288 66.2667 85.176 66.44 85.032 66.584C84.8933 66.728 84.728 66.8453 84.536 66.936C84.344 67.0213 84.136 67.08 83.912 67.112V67.96H83.256V67.112C83.0373 67.08 82.8293 67.0133 82.632 66.912C82.44 66.8107 82.2693 66.68 82.12 66.52C81.976 66.3547 81.8613 66.16 81.776 65.936C81.6907 65.7067 81.648 65.4507 81.648 65.168H82.568C82.568 65.536 82.6693 65.8187 82.872 66.016C83.0747 66.2133 83.336 66.312 83.656 66.312C83.784 66.312 83.904 66.2933 84.016 66.256C84.128 66.2133 84.224 66.1573 84.304 66.088C84.3893 66.0133 84.456 65.9253 84.504 65.824C84.552 65.7227 84.576 65.608 84.576 65.48C84.576 65.336 84.5467 65.216 84.488 65.12C84.4347 65.024 84.3627 64.944 84.272 64.88C84.1867 64.8107 84.0907 64.7547 83.984 64.712C83.8827 64.664 83.784 64.624 83.688 64.592C83.432 64.5013 83.192 64.4107 82.968 64.32C82.744 64.224 82.5467 64.112 82.376 63.984C82.2107 63.8507 82.08 63.6907 81.984 63.504C81.888 63.3173 81.84 63.0827 81.84 62.8C81.84 62.5973 81.8747 62.4107 81.944 62.24C82.0187 62.064 82.12 61.912 82.248 61.784C82.376 61.6507 82.5253 61.544 82.696 61.464C82.872 61.3787 83.0587 61.32 83.256 61.288V60.44H83.912V61.296Z" fill="#D5E3FC"/>
</svg>
