<svg width="128" height="128" viewBox="0 0 128 128" fill="none" xmlns="http://www.w3.org/2000/svg">
<path d="M109.747 39.6689L80.6436 84.8946L78.8639 81.7539L71.3262 68.3537L70.4887 66.9928L61.9042 67.6209V58.6176L57.5073 56.1051L45.5727 49.3003L71.0122 45.4268L106.292 40.1923L109.747 39.6689Z" fill="#FDFDFF" stroke="#15357A" stroke-width="1.5" stroke-miterlimit="10" stroke-linecap="round" stroke-linejoin="round"/>
<path d="M61.9042 58.6176L109.747 39.6689L70.4887 66.9928" stroke="#15357A" stroke-width="1.5" stroke-miterlimit="10" stroke-linecap="round" stroke-linejoin="round"/>
<path d="M61.9042 67.6209L109.747 39.6689" stroke="#15357A" stroke-width="1.5" stroke-miterlimit="10" stroke-linecap="round" stroke-linejoin="round"/>
<path opacity="0.1" d="M106.188 41.1345L102.838 43.7518L93.8344 50.7659L71.3262 68.3537L70.4887 66.9927L61.9042 67.6209V65.213L106.188 41.1345Z" fill="#15357A"/>
<path opacity="0.1" d="M53.9478 50.9753L57.5073 56.1051L45.5727 49.3003L71.0122 45.4268L53.9478 50.9753Z" fill="#15357A"/>
<path opacity="0.1" d="M109.747 39.6689L80.6435 84.8946L78.8638 81.7539L103.989 43.6471L104.722 42.6002L105.245 41.7627L105.455 41.4486L105.56 41.3439L106.292 40.1923L109.747 39.6689Z" fill="#15357A"/>
<path d="M22.4364 84.6853L49.3415 68.8772" stroke="#15357A" stroke-width="1.5" stroke-miterlimit="10" stroke-linecap="round" stroke-linejoin="round"/>
<path d="M56.1463 73.9023L35.4179 85.6275" stroke="#15357A" stroke-width="1.5" stroke-miterlimit="10" stroke-linecap="round" stroke-linejoin="round"/>
<path d="M38.5585 92.3276L47.6665 87.1978" stroke="#2C71F0" stroke-width="1.5" stroke-miterlimit="10" stroke-linecap="round" stroke-linejoin="round"/>
<path d="M98.8596 75.5773L98.6502 77.9852L99.6971 80.1837L97.2893 79.8696L95.0908 80.9165L95.3002 78.5086L94.2533 76.3102L96.6611 76.6242L98.8596 75.5773Z" fill="#15357A"/>
<path d="M50.3885 36.3188L50.0744 38.7267L51.1213 40.9252L48.7135 40.6111L46.515 41.658L46.8291 39.2501L45.7822 37.0517L48.19 37.3657L50.3885 36.3188Z" fill="#15357A"/>
<path d="M80.1202 25.6406L80.0155 27.2109L80.6437 28.6765L79.0733 28.4672L77.6077 29.2L77.8171 27.6297L77.1889 26.164L78.7593 26.3734L80.1202 25.6406Z" fill="#2C71F0"/>
</svg>
