<svg width="61" height="55" viewBox="0 0 61 55" fill="none" xmlns="http://www.w3.org/2000/svg">
<path d="M31.4065 23.0079L29.7804 24.6339L30.7561 25.5282C32.3821 26.9917 33.439 28.8616 34.0894 30.8128L40.2683 36.9917L36.3658 40.6502L36.2845 40.7315L33.6016 43.2518C33.1951 43.6583 32.7886 43.9836 32.3008 44.3088C30.5935 45.447 28.7235 46.1787 26.7723 46.4226C26.2845 46.5039 25.878 46.5039 25.3902 46.5039C24.9024 46.5039 24.4959 46.5039 24.0081 46.4226C21.2438 46.0974 18.5609 44.8779 16.5284 42.6827C11.9755 37.8047 12.3007 30.1624 17.0975 25.6095L23.9268 19.2681L24.0081 19.3494" fill="white"/>
<path d="M31.4065 23.0079L29.7804 24.6339L30.7561 25.5282C32.3821 26.9917 33.439 28.8616 34.0894 30.8128L40.2683 36.9917L36.3658 40.6502L36.2845 40.7315L33.6016 43.2518C33.1951 43.6583 32.7886 43.9836 32.3008 44.3088C30.5935 45.447 28.7235 46.1787 26.7723 46.4226C26.2845 46.5039 25.878 46.5039 25.3902 46.5039C24.9024 46.5039 24.4959 46.5039 24.0081 46.4226C21.2438 46.0974 18.5609 44.8779 16.5284 42.6827C11.9755 37.8047 12.3007 30.1624 17.0975 25.6095L23.9268 19.2681L24.0081 19.3494" stroke="#15357A" stroke-width="1.5" stroke-miterlimit="10" stroke-linecap="round" stroke-linejoin="round"/>
<path d="M41.3253 41.8698C40.2684 42.9268 38.561 42.9268 37.5041 41.8698L36.2846 40.6503L33.9269 38.2926V38.3739L36.2846 40.7316L37.5854 42.0324C38.0732 42.5203 38.3984 43.252 38.3984 43.9024C38.3984 44.5528 38.1545 45.2845 37.5854 45.7723C36.5285 46.8292 34.8212 46.8292 33.7643 45.7723L32.2196 44.2276L30.9187 42.9268L33.6017 45.6097C34.6586 46.6666 34.496 48.3739 33.4391 49.4308C32.3822 50.4877 30.1057 50.4877 29.0488 49.4308L25.8781 46.9918L25.3903 46.504C24.6586 46.7479 23.8456 46.9105 23.1139 46.9918C19.6992 47.3983 16.8537 45.6097 14.1708 43.1707L4.82114 34.3902C2.30081 32.0324 1 28.7804 1 25.5284C1 22.6015 2.05691 19.5934 4.25204 17.317C8.80489 12.4389 16.4472 12.195 21.3252 16.7479L23.9269 19.1869L24.0082 19.2682L29.7805 24.6341L30.7561 25.5284C31.6505 26.4227 32.4635 27.317 33.0326 28.3739C34.2521 30.569 35.8781 32.6015 37.6667 34.3089L40.2683 36.9105L41.3253 37.9674C42.3822 39.1056 42.3822 40.8129 41.3253 41.8698Z" fill="white" stroke="#15357A" stroke-width="1.5" stroke-miterlimit="10" stroke-linecap="round" stroke-linejoin="round"/>
<path d="M43.6018 17.3172C41.244 14.7969 37.992 13.4961 34.74 13.4961C31.8131 13.4961 28.805 14.553 26.5286 16.7481L24.0082 19.2685L17.8294 25.4473C16.8538 26.4229 16.8538 28.049 17.8294 29.0246C18.8863 30.0815 20.2684 30.5693 21.6505 30.5693C23.0326 30.5693 24.4147 30.0815 25.4717 29.0246L29.8619 24.6343L30.8375 25.5286C31.8131 26.4229 32.5448 27.3986 33.1952 28.5368C34.1709 30.3254 35.3091 31.9514 36.7725 33.4148L40.3497 36.9921L43.114 34.3904C47.9107 29.8376 48.1546 22.1953 43.6018 17.3172Z" fill="#D6E2F9" stroke="#15357A" stroke-width="1.5" stroke-miterlimit="10" stroke-linecap="round" stroke-linejoin="round"/>
<path d="M15.7155 37.3986L13.1952 40.0815C12.1383 41.2197 10.3497 41.301 9.21145 40.2441C8.07324 39.1872 7.99194 37.3986 9.04885 36.2604L11.5692 33.5774C12.6261 32.4392 14.4147 32.3579 15.5529 33.4148C16.7724 34.4717 16.7724 36.2603 15.7155 37.3986Z" fill="#D6E2F9" stroke="#15357A" stroke-width="1.5" stroke-miterlimit="10" stroke-linecap="round" stroke-linejoin="round"/>
<path d="M19.8618 41.5448L17.3414 44.2277C16.2845 45.3659 14.4959 45.4473 13.3577 44.3903C12.2195 43.3334 12.1382 41.5448 13.1951 40.4066L15.7154 37.7237C16.7723 36.5854 18.561 36.5041 19.6992 37.5611C20.8374 38.5367 20.9187 40.4066 19.8618 41.5448Z" fill="#D6E2F9" stroke="#15357A" stroke-width="1.5" stroke-miterlimit="10" stroke-linecap="round" stroke-linejoin="round"/>
<path d="M24.008 45.6098L21.4877 48.2927C20.4308 49.4309 18.6421 49.5122 17.5039 48.4553C16.3657 47.3984 16.2844 45.6097 17.3413 44.4715L19.8617 41.7886C20.9186 40.6504 22.7072 40.5691 23.8454 41.626C24.9836 42.6829 25.0649 44.4715 24.008 45.6098Z" fill="#D6E2F9" stroke="#15357A" stroke-width="1.5" stroke-miterlimit="10" stroke-linecap="round" stroke-linejoin="round"/>
<path d="M28.073 49.756L25.5526 52.4389C24.4957 53.5771 22.7071 53.6584 21.5689 52.6015C20.4307 51.5446 20.3494 49.756 21.4063 48.6178L23.9266 45.9348C24.9835 44.7966 26.7721 44.7153 27.9104 45.7722C29.1299 46.8292 29.1299 48.6178 28.073 49.756Z" fill="#D6E2F9" stroke="#15357A" stroke-width="1.5" stroke-miterlimit="10" stroke-linecap="round" stroke-linejoin="round"/>
<path d="M31.0001 43.0079L26.4473 38.4551" stroke="#15357A" stroke-width="1.5" stroke-miterlimit="10" stroke-linecap="round" stroke-linejoin="round"/>
<path d="M34.7399 39.1056L30.3496 34.7153" stroke="#15357A" stroke-width="1.5" stroke-miterlimit="10" stroke-linecap="round" stroke-linejoin="round"/>
<path d="M37.1789 23.1704C37.1789 23.1704 34.9025 27.3981 29.8618 24.6338Z" fill="#D6E2F9"/>
<path d="M37.1789 23.1704C37.1789 23.1704 34.9025 27.3981 29.8618 24.6338" stroke="#15357A" stroke-width="1.5" stroke-miterlimit="10" stroke-linecap="round" stroke-linejoin="round"/>
<path d="M47.0162 32.0325C54.7393 32.0325 61 25.8081 61 18.13C61 10.4519 54.7393 4.22754 47.0162 4.22754C39.2932 4.22754 33.0325 10.4519 33.0325 18.13C33.0325 25.8081 39.2932 32.0325 47.0162 32.0325Z" fill="white"/>
<path d="M49.9431 20.0001H42.5447C41.9756 20.0001 41.5691 19.5936 41.5691 19.0245V9.8375C41.5691 7.80497 43.1951 6.17896 45.2276 6.17896H47.1789C49.2114 6.17896 50.8374 7.80497 50.8374 9.8375V19.0245C50.9187 19.5123 50.5122 20.0001 49.9431 20.0001Z" stroke="#15357A" stroke-width="1.5" stroke-miterlimit="10"/>
<path d="M46.2846 26.6667C50.7299 26.6667 54.3334 23.0631 54.3334 18.6179C54.3334 14.1727 50.7299 10.5691 46.2846 10.5691C41.8394 10.5691 38.2358 14.1727 38.2358 18.6179C38.2358 23.0631 41.8394 26.6667 46.2846 26.6667Z" fill="#D6E2F9" stroke="#15357A" stroke-width="1.5" stroke-miterlimit="10" stroke-linecap="round" stroke-linejoin="round"/>
<path opacity="0.1" d="M46.2845 22.6015C44.0894 22.6015 42.3008 20.8129 42.3008 18.6178C42.3008 16.4226 44.0894 14.634 46.2845 14.634C48.4797 14.634 50.2683 16.4226 50.2683 18.6178C50.2683 20.8129 48.4797 22.6015 46.2845 22.6015Z" fill="#15357A"/>
<path d="M47.2601 17.8865C47.2601 17.3174 46.7723 16.8296 46.2032 16.8296C45.634 16.8296 45.1462 17.3174 45.1462 17.8865C45.1462 18.293 45.3088 18.6182 45.634 18.7808L45.2275 20.4068H47.1788L46.691 18.8621C47.0975 18.6182 47.2601 18.293 47.2601 17.8865Z" fill="#15357A"/>
<path d="M14.0079 0L14.8209 2.76423L16.9348 4.63415L14.2518 5.44716L12.3819 7.56099L11.5689 4.79675L9.37378 2.92684L12.138 2.11383L14.0079 0Z" fill="#15357A"/>
<path d="M57.0165 42.1138L56.7726 44.3089L57.6669 46.3414L55.4718 46.0975L53.5205 46.9918L53.7644 44.7967L52.8701 42.8455L54.9839 43.0894L57.0165 42.1138Z" fill="#2C71F0"/>
<path d="M4.82112 45.3662L4.65852 46.8296L5.30893 48.2117L3.76421 48.0491L2.38209 48.6995L2.626 47.1548L1.89429 45.7727L3.439 46.0166L4.82112 45.3662Z" fill="#15357A"/>
</svg>
