<svg width="112" height="113" viewBox="0 0 112 113" fill="none" xmlns="http://www.w3.org/2000/svg">
<path d="M108.541 60.4839C121.808 23.0464 95.6189 -5.63111 52.1149 1.56132C9.73075 8.56933 8.86928 18.067 1.63296 56.0578C-7.15399 101.886 20.9298 106.128 52.1149 110.739C107.076 118.945 95.6189 96.9071 108.541 60.4839Z" fill="#EAF1FE"/>
<path d="M71.7462 8.85449L71.3087 12.267L72.7962 15.417L69.3837 14.9795L66.2337 16.467L66.6712 13.0545L65.1837 9.90449L68.5962 10.342L71.7462 8.85449Z" fill="#15357A"/>
<path d="M69.296 92.1545L68.946 94.692L69.996 96.8795L67.546 96.617L65.271 97.667L65.621 95.217L64.571 92.942L67.021 93.292L69.296 92.1545Z" fill="#2C71F0"/>
<path d="M13.9963 51.7295L13.7338 53.4795L14.5213 55.0545L12.7713 54.792L11.2838 55.5795L11.4588 53.8295L10.6713 52.342L12.4213 52.517L13.9963 51.7295Z" fill="#2C71F0"/>
<path d="M73.3211 54.3546C73.3211 56.2796 72.9711 58.0296 72.4461 59.6921C72.0961 60.7421 71.571 61.7921 71.046 62.7546C70.171 64.1546 69.2085 65.3796 67.9835 66.5171C67.8085 66.6921 67.546 66.8671 67.371 67.0421C66.2335 67.9171 65.0085 68.7046 63.6085 69.3171C62.3835 69.8421 61.071 70.2796 59.671 70.4546C58.796 70.6296 57.921 70.6296 57.046 70.6296C49.9585 70.6296 43.921 66.0796 41.646 59.7796C41.471 59.2546 41.296 58.7296 41.2085 58.2046C41.0335 57.3296 40.8585 56.3671 40.771 55.4046C40.771 55.0546 40.6835 54.6171 40.6835 54.2671C40.6835 53.4796 40.771 52.7796 40.8585 51.9921C40.8585 51.8171 40.946 51.6421 40.946 51.4671C41.121 50.3296 41.471 49.2796 41.821 48.2296C42.346 46.9171 42.9585 45.7796 43.746 44.6421C46.721 40.7046 51.5335 38.0796 56.9585 38.0796C61.246 38.0796 65.1836 39.7421 68.0711 42.4546C68.2461 42.5421 68.3336 42.7171 68.5086 42.8921C69.2086 43.5921 69.9086 44.3796 70.4335 45.2546C71.1336 46.3046 71.746 47.4421 72.1835 48.5796C72.4461 49.1921 72.621 49.8921 72.796 50.5921C73.146 51.7296 73.3211 53.0421 73.3211 54.3546Z" fill="#FAFAFA" stroke="#15357A" stroke-width="2" stroke-miterlimit="10" stroke-linecap="round" stroke-linejoin="round"/>
<path d="M47.1586 50.3295C47.1586 50.8545 46.9836 51.3795 46.5461 51.7295C46.1961 52.0795 45.8461 52.2545 45.4086 52.342C45.3211 52.342 45.2336 52.342 45.2336 52.342H41.6461C41.3836 52.342 41.1211 52.2545 40.8586 52.167C40.5961 52.0795 40.3336 51.9045 40.1586 51.642C40.2461 51.642 40.3336 51.642 40.3336 51.642H40.8586C41.0336 50.5045 41.3836 49.4545 41.7336 48.4045H45.1461C46.2836 48.4045 47.1586 49.2795 47.1586 50.3295Z" fill="#D5E3FC"/>
<path d="M45.9336 53.5669C45.9336 54.0919 45.7586 54.6169 45.3211 54.9669C45.0586 55.2294 44.6211 55.4919 44.2711 55.4919C44.1836 55.4919 44.0961 55.4919 44.0086 55.4919H40.7711C40.7711 55.1419 40.6836 54.7044 40.6836 54.3544C40.6836 53.5669 40.7711 52.8669 40.8586 52.0794C40.5961 51.9919 40.3336 51.8169 40.1586 51.5544C40.2461 51.5544 40.3336 51.5544 40.3336 51.5544H43.9211C44.5336 51.5544 45.0586 51.8169 45.4086 52.2544C45.7586 52.6919 45.9336 53.1294 45.9336 53.5669Z" fill="#D5E3FC"/>
<path d="M44.4461 56.3671C44.4461 56.8921 44.2711 57.4171 43.8336 57.7671C43.4836 58.1171 42.9586 58.3796 42.4336 58.3796H41.1211C40.9461 57.5046 40.7711 56.5421 40.6836 55.5796C40.6836 55.2296 40.5961 54.7921 40.5961 54.4421H42.4336C43.2211 54.4421 43.9211 54.8796 44.1836 55.5796C44.3586 55.7546 44.4461 56.0171 44.4461 56.3671Z" fill="#D5E3FC"/>
<path d="M72.7086 49.1047H66.8461C65.5336 49.1047 64.5711 47.9672 64.5711 46.5672C64.5711 45.8672 64.8336 45.2547 65.2711 44.8172C65.7086 44.3797 66.2336 44.1172 66.9336 44.1172H69.8211C70.4336 44.7297 70.9586 45.4297 71.3961 46.1297C71.9211 47.0922 72.3586 48.0547 72.7086 49.1047Z" fill="#D5E3FC"/>
<path d="M73.671 54.2672C73.671 55.9297 73.4085 57.5047 72.971 58.9922C72.621 59.9547 72.1835 60.8297 71.746 61.7047C71.046 62.9297 70.2585 64.0672 69.296 64.9422C69.121 65.1172 68.946 65.2922 68.771 65.3797C67.896 66.1672 66.846 66.8672 65.796 67.3922C65.446 67.4797 65.096 67.5672 64.746 67.6547C64.3085 67.2172 64.046 66.6047 64.046 65.9047C64.046 65.3797 64.221 64.8547 64.4835 64.5047H61.946C60.896 64.5047 59.9335 63.6297 59.671 62.5797C59.671 62.4047 59.5835 62.2297 59.5835 62.0547C59.5835 61.4422 59.7585 60.9172 60.1085 60.5672C58.971 60.4797 58.0086 59.3422 58.0086 58.1172C58.0086 57.8547 58.0085 57.6797 58.096 57.4172H57.046C55.7335 57.4172 54.771 56.2797 54.771 54.8797C54.771 54.5297 54.8586 54.1797 54.9461 53.8297C54.2461 53.3922 53.8085 52.6047 53.8085 51.6422C53.8085 50.2422 54.8585 49.1047 56.0835 49.1047H72.7085C72.8835 49.7172 73.0585 50.2422 73.2335 50.8547C73.496 51.9922 73.671 53.1297 73.671 54.2672Z" fill="#D5E3FC"/>
<path d="M53.8085 51.6421C53.8085 51.6421 53.9835 59.9546 60.1085 60.4796C60.1085 60.4796 57.571 64.5921 64.746 67.7421L71.1336 60.4796L62.996 52.6046L53.8085 51.6421Z" fill="#D5E3FC"/>
<path d="M73.3211 54.3546C73.3211 56.2796 72.9711 58.0296 72.4461 59.6921C72.0961 60.7421 71.571 61.7921 71.046 62.7546C70.171 64.1546 69.2085 65.3796 67.9835 66.5171C67.8085 66.6921 67.546 66.8671 67.371 67.0421C66.2335 67.9171 65.0085 68.7046 63.6085 69.3171C62.3835 69.8421 61.071 70.2796 59.671 70.4546C58.796 70.6296 57.921 70.6296 57.046 70.6296C49.9585 70.6296 43.921 66.0796 41.646 59.7796C41.471 59.2546 41.296 58.7296 41.2085 58.2046C41.0335 57.3296 40.8585 56.3671 40.771 55.4046C40.771 55.0546 40.6835 54.6171 40.6835 54.2671C40.6835 53.4796 40.771 52.7796 40.8585 51.9921C40.8585 51.8171 40.946 51.6421 40.946 51.4671C41.121 50.3296 41.471 49.2796 41.821 48.2296C42.346 46.9171 42.9585 45.7796 43.746 44.6421C46.721 40.7046 51.5335 38.0796 56.9585 38.0796C61.246 38.0796 65.1836 39.7421 68.0711 42.4546C68.2461 42.5421 68.3336 42.7171 68.5086 42.8921C69.2086 43.5921 69.9085 44.3796 70.4336 45.2546C71.1336 46.3046 71.7461 47.4421 72.1836 48.5796C72.4461 49.1921 72.621 49.8921 72.796 50.5921C73.146 51.7296 73.3211 53.0421 73.3211 54.3546Z" stroke="#15357A" stroke-width="2" stroke-miterlimit="10" stroke-linecap="round" stroke-linejoin="round"/>
<path d="M45.2336 48.4045C45.2336 48.4045 51.4461 49.4545 43.0461 58.292L45.2336 48.4045Z" fill="#D5E3FC"/>
<path d="M66.0586 44.292C66.0586 44.292 61.9461 45.9545 64.4836 50.3295L68.9461 49.542L66.0586 44.292Z" fill="#D5E3FC"/>
<path d="M39.2836 31.167C39.2836 32.392 39.1086 33.617 38.6711 34.667C38.4086 35.367 38.1461 36.067 37.7086 36.6795C37.1836 37.5545 36.4836 38.4295 35.6961 39.1295C35.6086 39.217 35.4336 39.392 35.2586 39.4795C34.5586 40.092 33.6836 40.617 32.8086 40.967C32.0211 41.317 31.1461 41.5795 30.1836 41.7545C29.6586 41.842 29.0461 41.9295 28.4336 41.9295C23.7961 41.9295 19.7711 38.9545 18.2836 34.842C18.1961 34.492 18.0211 34.142 17.9336 33.792C17.7586 33.1795 17.6711 32.567 17.6711 31.9545C17.6711 31.692 17.6711 31.4295 17.6711 31.167C17.6711 30.642 17.6711 30.2045 17.7586 29.6795C17.7586 29.592 17.7586 29.417 17.8461 29.3295C17.9336 28.6295 18.1961 27.842 18.4586 27.2295C18.8086 26.3545 19.2461 25.567 19.7711 24.867C21.6961 22.1545 24.9336 20.4045 28.4336 20.4045C31.2336 20.4045 33.8586 21.4545 35.7836 23.292C35.8711 23.3795 35.9586 23.467 36.0461 23.5545C36.4836 23.992 36.9211 24.517 37.3586 25.1295C37.7961 25.8295 38.2336 26.5295 38.4961 27.317C38.6711 27.7545 38.8461 28.192 38.9336 28.6295C39.1961 29.417 39.2836 30.292 39.2836 31.167Z" fill="#FAFAFA" stroke="#15357A" stroke-width="2" stroke-miterlimit="10" stroke-linecap="round" stroke-linejoin="round"/>
<path d="M22.0461 28.4546C22.0461 28.8046 21.8711 29.1546 21.6961 29.3296C21.5211 29.5046 21.2586 29.6796 20.9086 29.6796C20.8211 29.6796 20.8211 29.6796 20.7336 29.6796H18.3711C18.1961 29.6796 18.0211 29.6796 17.8461 29.5921C17.6711 29.5046 17.4961 29.4171 17.4086 29.2421C17.4961 29.2421 17.4961 29.2421 17.5836 29.2421H17.9336C18.0211 28.5421 18.2836 27.7546 18.5461 27.1421H20.8211C21.5211 27.2296 22.0461 27.7546 22.0461 28.4546Z" fill="#D5E3FC"/>
<path d="M21.2585 30.6422C21.2585 30.9922 21.0835 31.3422 20.9085 31.5172C20.7335 31.6922 20.471 31.8672 20.2085 31.8672C20.121 31.8672 20.121 31.8672 20.0335 31.8672H17.9335C17.9335 31.6047 17.9335 31.3422 17.9335 31.0797C17.9335 30.5547 17.9335 30.1172 18.021 29.5922C17.846 29.5047 17.671 29.4172 17.5835 29.2422C17.671 29.2422 17.671 29.2422 17.7585 29.2422H20.121C20.471 29.2422 20.821 29.4172 21.0835 29.6797C21.171 30.0297 21.2585 30.2922 21.2585 30.6422Z" fill="#D5E3FC"/>
<path d="M20.296 32.4796C20.296 32.8296 20.121 33.1796 19.946 33.3546C19.6835 33.6171 19.421 33.7046 19.071 33.7046H18.196C18.021 33.0921 17.9335 32.4796 17.9335 31.8671C17.9335 31.6046 17.9335 31.3421 17.9335 31.0796H19.1585C19.6835 31.0796 20.121 31.4296 20.296 31.8671C20.2085 32.0421 20.296 32.2171 20.296 32.4796Z" fill="#D5E3FC"/>
<path d="M38.8461 27.667H34.9961C34.1211 27.667 33.5086 26.967 33.5086 26.0045C33.5086 25.567 33.6836 25.1295 33.9461 24.867C34.2086 24.6045 34.5586 24.342 34.9961 24.342H36.9211C37.2711 24.7795 37.6211 25.217 37.9711 25.6545C38.3211 26.3545 38.6711 26.967 38.8461 27.667Z" fill="#D5E3FC"/>
<path d="M39.4585 31.0796C39.4585 32.1296 39.2835 33.1796 38.9335 34.1421C38.7585 34.7546 38.496 35.3671 38.146 35.8921C37.7085 36.6796 37.1835 37.3796 36.4835 38.0796C36.396 38.1671 36.3085 38.2546 36.1335 38.3421C35.521 38.8671 34.9085 39.3046 34.121 39.6546C33.8585 39.7421 33.6835 39.7421 33.421 39.8296C33.1585 39.5671 32.9835 39.1296 32.9835 38.6921C32.9835 38.3421 33.071 37.9921 33.246 37.7296H31.5835C30.8835 37.7296 30.271 37.2046 30.096 36.4171C30.096 36.3296 30.096 36.1546 30.096 36.0671C30.096 35.7171 30.1835 35.3671 30.446 35.1046C29.6585 35.0171 29.046 34.3171 29.046 33.4421C29.046 33.2671 29.046 33.1796 29.1335 33.0046H28.4335C27.5585 33.0046 26.946 32.3046 26.946 31.3421C26.946 31.0796 27.0335 30.9046 27.121 30.6421C26.6835 30.3796 26.3335 29.8546 26.3335 29.2421C26.3335 28.3671 27.0335 27.5796 27.821 27.5796H38.7585C38.9335 27.9296 39.021 28.3671 39.1085 28.7171C39.371 29.5921 39.4585 30.2921 39.4585 31.0796Z" fill="#D5E3FC"/>
<path d="M26.4211 29.3296C26.4211 29.3296 26.5086 34.7546 30.5336 35.1046C30.5336 35.1046 28.8711 37.8171 33.5961 39.8296L37.7961 35.0171L32.4586 29.9421L26.4211 29.3296Z" fill="#D5E3FC"/>
<path d="M39.2836 31.167C39.2836 32.392 39.1086 33.617 38.6711 34.667C38.4086 35.367 38.1461 36.067 37.7086 36.6795C37.1836 37.5545 36.4836 38.4295 35.6961 39.1295C35.6086 39.217 35.4336 39.392 35.2586 39.4795C34.5586 40.092 33.6836 40.617 32.8086 40.967C32.0211 41.317 31.1461 41.5795 30.1836 41.7545C29.6586 41.842 29.0461 41.9295 28.4336 41.9295C23.7961 41.9295 19.7711 38.9545 18.2836 34.842C18.1961 34.492 18.0211 34.142 17.9336 33.792C17.7586 33.1795 17.6711 32.567 17.6711 31.9545C17.6711 31.692 17.6711 31.4295 17.6711 31.167C17.6711 30.642 17.6711 30.2045 17.7586 29.6795C17.7586 29.592 17.7586 29.417 17.8461 29.3295C17.9336 28.6295 18.1961 27.842 18.4586 27.2295C18.8086 26.3545 19.2461 25.567 19.7711 24.867C21.6961 22.1545 24.9336 20.4045 28.4336 20.4045C31.2336 20.4045 33.8586 21.4545 35.7836 23.292C35.8711 23.3795 35.9586 23.467 36.0461 23.5545C36.4836 23.992 36.9211 24.517 37.3586 25.1295C37.7961 25.8295 38.2336 26.5295 38.4961 27.317C38.6711 27.7545 38.8461 28.192 38.9336 28.6295C39.1961 29.417 39.2836 30.292 39.2836 31.167Z" stroke="#15357A" stroke-width="2" stroke-miterlimit="10" stroke-linecap="round" stroke-linejoin="round"/>
<path d="M20.821 27.2295C20.821 27.2295 24.9335 27.9295 19.3335 33.7045L20.821 27.2295Z" fill="#D5E3FC"/>
<path d="M34.471 24.5171C34.471 24.5171 31.7585 25.5671 33.421 28.5421L36.396 28.0171L34.471 24.5171Z" fill="#D5E3FC"/>
<path d="M40.071 79.7295C40.071 80.9545 39.896 82.1795 39.4585 83.2295C39.196 83.9295 38.9335 84.6295 38.496 85.242C37.971 86.117 37.271 86.992 36.4835 87.692C36.396 87.7795 36.221 87.9545 36.046 88.042C35.346 88.6545 34.471 89.1795 33.596 89.5295C32.8085 89.8795 31.9335 90.142 30.971 90.317C30.446 90.4045 29.8335 90.492 29.221 90.492C24.5835 90.492 20.5585 87.517 19.071 83.4045C18.9835 83.0545 18.8085 82.7045 18.721 82.3545C18.546 81.742 18.4585 81.1295 18.4585 80.517C18.4585 80.2545 18.4585 79.992 18.4585 79.7295C18.4585 79.2045 18.4585 78.767 18.546 78.242C18.546 78.1545 18.546 77.9795 18.6335 77.892C18.721 77.192 18.9835 76.4045 19.246 75.792C19.596 74.917 20.0335 74.1295 20.5585 73.4295C22.4835 70.717 25.721 68.967 29.221 68.967C32.021 68.967 34.646 70.017 36.571 71.8545C36.6585 71.942 36.746 72.0295 36.8335 72.117C37.271 72.5545 37.7085 73.0795 38.146 73.692C38.5835 74.392 39.021 75.092 39.2835 75.8795C39.4585 76.317 39.6335 76.7545 39.721 77.192C39.896 77.9795 40.071 78.8545 40.071 79.7295Z" fill="#FAFAFA" stroke="#15357A" stroke-width="2" stroke-miterlimit="10" stroke-linecap="round" stroke-linejoin="round"/>
<path d="M22.8335 77.0171C22.8335 77.3671 22.6585 77.7171 22.4835 77.8921C22.3085 78.0671 22.046 78.2421 21.696 78.2421C21.6085 78.2421 21.6085 78.2421 21.521 78.2421H19.1585C18.9835 78.2421 18.8085 78.2421 18.6335 78.1546C18.4585 78.0671 18.2835 77.9796 18.196 77.8046C18.2835 77.8046 18.2835 77.8046 18.371 77.8046H18.721C18.8085 77.1046 19.071 76.3171 19.3335 75.7046H21.6085C22.3085 75.7921 22.8335 76.3171 22.8335 77.0171Z" fill="#D5E3FC"/>
<path d="M22.0459 79.2047C22.0459 79.5547 21.8709 79.9047 21.6959 80.0797C21.5209 80.2547 21.2584 80.4297 20.9959 80.4297C20.9084 80.4297 20.9084 80.4297 20.8209 80.4297H18.7209C18.7209 80.1672 18.7209 79.9047 18.7209 79.6422C18.7209 79.1172 18.7209 78.6797 18.8084 78.1547C18.6334 78.0672 18.4584 77.9797 18.3709 77.8047C18.4584 77.8047 18.4584 77.8047 18.5459 77.8047H20.9084C21.2584 77.8047 21.6084 77.9797 21.8709 78.2422C21.8709 78.5922 22.0459 78.8547 22.0459 79.2047Z" fill="#D5E3FC"/>
<path d="M21.0835 81.0421C21.0835 81.3921 20.9085 81.7421 20.7335 81.9171C20.471 82.1796 20.2085 82.2671 19.8585 82.2671H18.9835C18.8085 81.6546 18.721 81.0421 18.721 80.4296C18.721 80.1671 18.721 79.9046 18.721 79.6421H19.946C20.471 79.6421 20.9085 79.9921 21.0835 80.4296C20.996 80.6046 21.0835 80.7796 21.0835 81.0421Z" fill="#D5E3FC"/>
<path d="M39.6335 76.2295H35.7835C34.9085 76.2295 34.296 75.5295 34.296 74.567C34.296 74.1295 34.471 73.692 34.7335 73.4295C34.996 73.167 35.346 72.9045 35.7835 72.9045H37.7085C38.0585 73.342 38.4085 73.7795 38.7585 74.217C39.1085 74.917 39.4585 75.5295 39.6335 76.2295Z" fill="#D5E3FC"/>
<path d="M40.2459 79.6421C40.2459 80.6921 40.0709 81.7421 39.7209 82.7046C39.5459 83.3171 39.2834 83.9296 38.9334 84.4546C38.4959 85.2421 37.9709 85.9421 37.2709 86.6421C37.1834 86.7296 37.0959 86.8171 36.9209 86.9046C36.3084 87.4296 35.6959 87.8671 34.9084 88.2171C34.6459 88.3046 34.4709 88.3046 34.2084 88.3921C33.9459 88.1296 33.7709 87.6921 33.7709 87.2546C33.7709 86.9046 33.8584 86.5546 34.0334 86.2921H32.3709C31.6709 86.2921 31.0584 85.7671 30.8834 84.9796C30.8834 84.8921 30.8834 84.7171 30.8834 84.6296C30.8834 84.2796 30.9709 83.9296 31.2334 83.6671C30.4459 83.5796 29.8334 82.8796 29.8334 82.0046C29.8334 81.8296 29.8334 81.7421 29.9209 81.5671H29.2209C28.3459 81.5671 27.7334 80.8671 27.7334 79.9046C27.7334 79.6421 27.8209 79.4671 27.9084 79.2046C27.4709 78.9421 27.1209 78.4171 27.1209 77.8046C27.1209 76.9296 27.8209 76.1421 28.6084 76.1421H39.5459C39.7209 76.4921 39.8084 76.9296 39.8959 77.2796C40.1584 78.1546 40.2459 78.8546 40.2459 79.6421Z" fill="#D5E3FC"/>
<path d="M27.2085 77.8921C27.2085 77.8921 27.296 83.3171 31.321 83.6671C31.321 83.6671 29.6585 86.3796 34.3835 88.3921L38.5835 83.5796L33.246 78.5921L27.2085 77.8921Z" fill="#D5E3FC"/>
<path d="M40.071 79.7295C40.071 80.9545 39.896 82.1795 39.4585 83.2295C39.196 83.9295 38.9335 84.6295 38.496 85.242C37.971 86.117 37.271 86.992 36.4835 87.692C36.396 87.7795 36.221 87.9545 36.046 88.042C35.346 88.6545 34.471 89.1795 33.596 89.5295C32.8085 89.8795 31.9335 90.142 30.971 90.317C30.446 90.4045 29.8335 90.492 29.221 90.492C24.5835 90.492 20.5585 87.517 19.071 83.4045C18.9835 83.0545 18.8085 82.7045 18.721 82.3545C18.546 81.742 18.4585 81.1295 18.4585 80.517C18.4585 80.2545 18.4585 79.992 18.4585 79.7295C18.4585 79.2045 18.4585 78.767 18.546 78.242C18.546 78.1545 18.546 77.9795 18.6335 77.892C18.721 77.192 18.9835 76.4045 19.246 75.792C19.596 74.917 20.0335 74.1295 20.5585 73.4295C22.4835 70.717 25.721 68.967 29.221 68.967C32.021 68.967 34.646 70.017 36.571 71.8545C36.6585 71.942 36.746 72.0295 36.8335 72.117C37.271 72.5545 37.7085 73.0795 38.146 73.692C38.5835 74.392 39.021 75.092 39.2835 75.8795C39.4585 76.317 39.6335 76.7545 39.721 77.192C39.896 77.9795 40.071 78.8545 40.071 79.7295Z" stroke="#15357A" stroke-width="2" stroke-miterlimit="10" stroke-linecap="round" stroke-linejoin="round"/>
<path d="M21.521 75.792C21.521 75.792 25.6335 76.492 20.0335 82.267L21.521 75.792Z" fill="#D5E3FC"/>
<path d="M35.2585 73.0796C35.2585 73.0796 32.546 74.1296 34.2085 77.1046L37.1835 76.5796L35.2585 73.0796Z" fill="#D5E3FC"/>
<path d="M96.5961 31.167C96.5961 32.392 96.4211 33.617 95.9836 34.667C95.7211 35.367 95.4586 36.067 95.0211 36.6795C94.4961 37.5545 93.7961 38.4295 93.0086 39.1295C92.9211 39.217 92.7461 39.392 92.5711 39.4795C91.8711 40.092 90.9961 40.617 90.1211 40.967C89.3336 41.317 88.4586 41.5795 87.4961 41.7545C86.9711 41.842 86.3586 41.9295 85.7461 41.9295C81.1086 41.9295 77.0836 38.9545 75.5961 34.842C75.5086 34.492 75.3336 34.142 75.2461 33.792C75.0711 33.1795 74.9836 32.567 74.9836 31.9545C74.9836 31.692 74.9836 31.4295 74.9836 31.167C74.9836 30.642 74.9836 30.2045 75.0711 29.6795C75.0711 29.592 75.0711 29.417 75.1586 29.3295C75.2461 28.6295 75.5086 27.842 75.7711 27.2295C76.1211 26.3545 76.5586 25.567 77.0836 24.867C79.0086 22.1545 82.2461 20.4045 85.7461 20.4045C88.5461 20.4045 91.1711 21.4545 93.0961 23.292C93.1836 23.3795 93.2711 23.467 93.3586 23.5545C93.7961 23.992 94.2336 24.517 94.6711 25.1295C95.1086 25.8295 95.5461 26.5295 95.8086 27.317C95.9836 27.7545 96.1586 28.192 96.2461 28.6295C96.5086 29.417 96.5961 30.292 96.5961 31.167Z" fill="#FAFAFA" stroke="#15357A" stroke-width="2" stroke-miterlimit="10" stroke-linecap="round" stroke-linejoin="round"/>
<path d="M79.4462 28.4546C79.4462 28.8046 79.2712 29.1546 79.0962 29.3296C78.9212 29.5046 78.6587 29.6796 78.3087 29.6796C78.2212 29.6796 78.2212 29.6796 78.1337 29.6796H75.7712C75.5962 29.6796 75.4212 29.6796 75.2462 29.5921C75.0712 29.5046 74.8962 29.4171 74.8087 29.2421C74.8962 29.2421 74.8962 29.2421 74.9837 29.2421H75.3337C75.4212 28.5421 75.6837 27.7546 75.9462 27.1421H78.2212C78.8337 27.2296 79.4462 27.7546 79.4462 28.4546Z" fill="#D5E3FC"/>
<path d="M78.5711 30.6422C78.5711 30.9922 78.3961 31.3422 78.2211 31.5172C78.0461 31.6922 77.7836 31.8672 77.5211 31.8672C77.4336 31.8672 77.4336 31.8672 77.3461 31.8672H75.2461C75.2461 31.6047 75.2461 31.3422 75.2461 31.0797C75.2461 30.5547 75.2461 30.1172 75.3336 29.5922C75.1586 29.5047 74.9836 29.4172 74.8961 29.2422C74.9836 29.2422 74.9836 29.2422 75.0711 29.2422H77.4336C77.7836 29.2422 78.1336 29.4172 78.3961 29.6797C78.4836 30.0297 78.5711 30.2922 78.5711 30.6422Z" fill="#D5E3FC"/>
<path d="M77.6087 32.4796C77.6087 32.8296 77.4337 33.1796 77.2587 33.3546C76.9962 33.6171 76.7337 33.7046 76.3837 33.7046H75.5087C75.3337 33.0921 75.2462 32.4796 75.2462 31.8671C75.2462 31.6046 75.2462 31.3421 75.2462 31.0796H76.4712C76.9962 31.0796 77.4337 31.4296 77.6087 31.8671C77.6087 32.0421 77.6087 32.2171 77.6087 32.4796Z" fill="#D5E3FC"/>
<path d="M96.2462 27.667H92.3962C91.5212 27.667 90.9087 26.967 90.9087 26.0045C90.9087 25.567 91.0837 25.1295 91.3462 24.867C91.6087 24.6045 91.9587 24.342 92.3962 24.342H94.3212C94.6712 24.7795 95.0212 25.217 95.3712 25.6545C95.7212 26.3545 95.9837 26.967 96.2462 27.667Z" fill="#D5E3FC"/>
<path d="M96.8586 31.0796C96.8586 32.1296 96.6836 33.1796 96.3336 34.1421C96.1586 34.7546 95.8961 35.3671 95.5461 35.8921C95.1086 36.6796 94.5836 37.3796 93.8836 38.0796C93.7961 38.1671 93.7086 38.2546 93.5336 38.3421C92.9211 38.8671 92.3086 39.3046 91.5211 39.6546C91.2586 39.7421 91.0836 39.7421 90.8211 39.8296C90.5586 39.5671 90.3836 39.1296 90.3836 38.6921C90.3836 38.3421 90.4711 37.9921 90.6461 37.7296H88.9836C88.2836 37.7296 87.6711 37.2046 87.4961 36.4171C87.4961 36.3296 87.4961 36.1546 87.4961 36.0671C87.4961 35.7171 87.5836 35.3671 87.8461 35.1046C87.0586 35.0171 86.4461 34.3171 86.4461 33.4421C86.4461 33.2671 86.4461 33.1796 86.5336 33.0046H85.8336C84.9586 33.0046 84.3461 32.3046 84.3461 31.3421C84.3461 31.0796 84.4336 30.9046 84.5211 30.6421C84.0836 30.3796 83.7336 29.8546 83.7336 29.2421C83.7336 28.3671 84.4336 27.5796 85.2211 27.5796H96.2461C96.4211 27.9296 96.5086 28.3671 96.5961 28.7171C96.7711 29.5921 96.8586 30.2921 96.8586 31.0796Z" fill="#D5E3FC"/>
<path d="M83.8212 29.3296C83.8212 29.3296 83.9087 34.7546 87.9337 35.1046C87.9337 35.1046 86.2712 37.8171 90.9962 39.8296L95.1962 35.0171L89.8587 29.9421L83.8212 29.3296Z" fill="#D5E3FC"/>
<path d="M96.5961 31.167C96.5961 32.392 96.4211 33.617 95.9836 34.667C95.7211 35.367 95.4586 36.067 95.0211 36.6795C94.4961 37.5545 93.7961 38.4295 93.0086 39.1295C92.9211 39.217 92.7461 39.392 92.5711 39.4795C91.8711 40.092 90.9961 40.617 90.1211 40.967C89.3336 41.317 88.4586 41.5795 87.4961 41.7545C86.9711 41.842 86.3586 41.9295 85.7461 41.9295C81.1086 41.9295 77.0836 38.9545 75.5961 34.842C75.5086 34.492 75.3336 34.142 75.2461 33.792C75.0711 33.1795 74.9836 32.567 74.9836 31.9545C74.9836 31.692 74.9836 31.4295 74.9836 31.167C74.9836 30.642 74.9836 30.2045 75.0711 29.6795C75.0711 29.592 75.0711 29.417 75.1586 29.3295C75.2461 28.6295 75.5086 27.842 75.7711 27.2295C76.1211 26.3545 76.5586 25.567 77.0836 24.867C79.0086 22.1545 82.2461 20.4045 85.7461 20.4045C88.5461 20.4045 91.1711 21.4545 93.0961 23.292C93.1836 23.3795 93.2711 23.467 93.3586 23.5545C93.7961 23.992 94.2336 24.517 94.6711 25.1295C95.1086 25.8295 95.5461 26.5295 95.8086 27.317C95.9836 27.7545 96.1586 28.192 96.2461 28.6295C96.5086 29.417 96.5961 30.292 96.5961 31.167Z" stroke="#15357A" stroke-width="2" stroke-miterlimit="10" stroke-linecap="round" stroke-linejoin="round"/>
<path d="M78.1336 27.2295C78.1336 27.2295 82.2461 27.9295 76.6461 33.7045L78.1336 27.2295Z" fill="#D5E3FC"/>
<path d="M91.8711 24.5171C91.8711 24.5171 89.1586 25.5671 90.8211 28.5421L93.7961 28.0171L91.8711 24.5171Z" fill="#D5E3FC"/>
<path d="M94.321 79.7295C94.321 80.9545 94.146 82.1795 93.7085 83.2295C93.446 83.9295 93.1835 84.6295 92.746 85.242C92.221 86.117 91.521 86.992 90.7335 87.692C90.646 87.7795 90.471 87.9545 90.296 88.042C89.596 88.6545 88.721 89.1795 87.846 89.5295C87.0585 89.8795 86.1835 90.142 85.221 90.317C84.696 90.4045 84.0835 90.492 83.471 90.492C78.8335 90.492 74.8085 87.517 73.321 83.4045C73.2335 83.0545 73.0585 82.7045 72.971 82.3545C72.796 81.742 72.7085 81.1295 72.7085 80.517C72.7085 80.2545 72.7085 79.992 72.7085 79.7295C72.7085 79.2045 72.7085 78.767 72.796 78.242C72.796 78.1545 72.796 77.9795 72.8835 77.892C72.971 77.192 73.2335 76.4045 73.496 75.792C73.846 74.917 74.2835 74.1295 74.8085 73.4295C76.7335 70.717 79.971 68.967 83.471 68.967C86.271 68.967 88.896 70.017 90.821 71.8545C90.9085 71.942 90.996 72.0295 91.0835 72.117C91.521 72.5545 91.9585 73.0795 92.396 73.692C92.8335 74.392 93.271 75.092 93.5335 75.8795C93.7085 76.317 93.8835 76.7545 93.971 77.192C94.2335 77.9795 94.321 78.8545 94.321 79.7295Z" fill="#FAFAFA" stroke="#15357A" stroke-width="2" stroke-miterlimit="10" stroke-linecap="round" stroke-linejoin="round"/>
<path d="M77.1711 77.0171C77.1711 77.3671 76.9961 77.7171 76.8211 77.8921C76.6461 78.0671 76.3836 78.2421 76.0336 78.2421C75.9461 78.2421 75.9461 78.2421 75.8586 78.2421H73.4961C73.3211 78.2421 73.1461 78.2421 72.9711 78.1546C72.7961 78.0671 72.6211 77.9796 72.5336 77.8046C72.6211 77.8046 72.6211 77.8046 72.7086 77.8046H73.0586C73.1461 77.1046 73.4086 76.3171 73.6711 75.7046H75.9461C76.5586 75.7921 77.1711 76.3171 77.1711 77.0171Z" fill="#D5E3FC"/>
<path d="M76.296 79.2047C76.296 79.5547 76.121 79.9047 75.946 80.0797C75.771 80.2547 75.5085 80.4297 75.246 80.4297C75.1585 80.4297 75.1585 80.4297 75.071 80.4297H72.971C72.971 80.1672 72.971 79.9047 72.971 79.6422C72.971 79.1172 72.971 78.6797 73.0585 78.1547C72.8835 78.0672 72.7085 77.9797 72.621 77.8047C72.7085 77.8047 72.7085 77.8047 72.796 77.8047H75.1585C75.5085 77.8047 75.8585 77.9797 76.121 78.2422C76.2085 78.5922 76.296 78.8547 76.296 79.2047Z" fill="#D5E3FC"/>
<path d="M75.3336 81.0421C75.3336 81.3921 75.1586 81.7421 74.9836 81.9171C74.7211 82.1796 74.4586 82.2671 74.1086 82.2671H73.2336C73.0586 81.6546 72.9711 81.0421 72.9711 80.4296C72.9711 80.1671 72.9711 79.9046 72.9711 79.6421H74.1961C74.7211 79.6421 75.1586 79.9921 75.3336 80.4296C75.2461 80.6046 75.3336 80.7796 75.3336 81.0421Z" fill="#D5E3FC"/>
<path d="M93.9711 76.2295H90.1211C89.2461 76.2295 88.6336 75.5295 88.6336 74.567C88.6336 74.1295 88.8086 73.692 89.0711 73.4295C89.3336 73.167 89.6836 72.9045 90.1211 72.9045H92.0461C92.3961 73.342 92.7461 73.7795 93.0961 74.217C93.3586 74.917 93.7086 75.5295 93.9711 76.2295Z" fill="#D5E3FC"/>
<path d="M94.496 79.6421C94.496 80.6921 94.321 81.7421 93.971 82.7046C93.796 83.3171 93.5335 83.9296 93.1835 84.4546C92.746 85.2421 92.221 85.9421 91.521 86.6421C91.4335 86.7296 91.346 86.8171 91.171 86.9046C90.5585 87.4296 89.946 87.8671 89.1585 88.2171C88.896 88.3046 88.721 88.3046 88.4585 88.3921C88.196 88.1296 88.021 87.6921 88.021 87.2546C88.021 86.9046 88.1085 86.5546 88.2835 86.2921H86.621C85.921 86.2921 85.3086 85.7671 85.1336 84.9796C85.1336 84.8921 85.1336 84.7171 85.1336 84.6296C85.1336 84.2796 85.221 83.9296 85.4835 83.6671C84.696 83.5796 84.0835 82.8796 84.0835 82.0046C84.0835 81.8296 84.0835 81.7421 84.171 81.5671H83.471C82.596 81.5671 81.9835 80.8671 81.9835 79.9046C81.9835 79.6421 82.071 79.4671 82.1585 79.2046C81.721 78.9421 81.371 78.4171 81.371 77.8046C81.371 76.9296 82.071 76.1421 82.8585 76.1421H93.796C93.971 76.4921 94.0585 76.9296 94.146 77.2796C94.4085 78.1546 94.496 78.8546 94.496 79.6421Z" fill="#D5E3FC"/>
<path d="M81.5461 77.8921C81.5461 77.8921 81.6336 83.3171 85.6586 83.6671C85.6586 83.6671 83.9961 86.3796 88.7211 88.3921L92.9211 83.5796L87.5836 78.5046L81.5461 77.8921Z" fill="#D5E3FC"/>
<path d="M94.321 79.7295C94.321 80.9545 94.146 82.1795 93.7085 83.2295C93.446 83.9295 93.1835 84.6295 92.746 85.242C92.221 86.117 91.521 86.992 90.7335 87.692C90.646 87.7795 90.471 87.9545 90.296 88.042C89.596 88.6545 88.721 89.1795 87.846 89.5295C87.0585 89.8795 86.1835 90.142 85.221 90.317C84.696 90.4045 84.0835 90.492 83.471 90.492C78.8335 90.492 74.8085 87.517 73.321 83.4045C73.2335 83.0545 73.0585 82.7045 72.971 82.3545C72.796 81.742 72.7085 81.1295 72.7085 80.517C72.7085 80.2545 72.7085 79.992 72.7085 79.7295C72.7085 79.2045 72.7085 78.767 72.796 78.242C72.796 78.1545 72.796 77.9795 72.8835 77.892C72.971 77.192 73.2335 76.4045 73.496 75.792C73.846 74.917 74.2835 74.1295 74.8085 73.4295C76.7335 70.717 79.971 68.967 83.471 68.967C86.271 68.967 88.896 70.017 90.821 71.8545C90.9085 71.942 90.996 72.0295 91.0835 72.117C91.521 72.5545 91.9585 73.0795 92.396 73.692C92.8335 74.392 93.271 75.092 93.5335 75.8795C93.7085 76.317 93.8835 76.7545 93.971 77.192C94.2335 77.9795 94.321 78.8545 94.321 79.7295Z" stroke="#15357A" stroke-width="2" stroke-miterlimit="10" stroke-linecap="round" stroke-linejoin="round"/>
<path d="M75.8585 75.792C75.8585 75.792 79.971 76.492 74.371 82.267L75.8585 75.792Z" fill="#D5E3FC"/>
<path d="M89.596 73.0796C89.596 73.0796 86.8835 74.1296 88.546 77.1046L91.521 76.5796L89.596 73.0796Z" fill="#D5E3FC"/>
<path d="M37.0961 41.5796L40.0711 43.8546" stroke="#15357A" stroke-width="2" stroke-miterlimit="10" stroke-linecap="round" stroke-linejoin="round"/>
<path d="M72.3588 43.592L75.3338 41.2295" stroke="#15357A" stroke-width="2" stroke-miterlimit="10" stroke-linecap="round" stroke-linejoin="round"/>
<path d="M71.0463 67.7422L73.9338 70.1922" stroke="#15357A" stroke-width="2" stroke-miterlimit="10" stroke-linecap="round" stroke-linejoin="round"/>
<path d="M39.196 69.9295L42.2585 67.6545" stroke="#15357A" stroke-width="2" stroke-miterlimit="10" stroke-linecap="round" stroke-linejoin="round"/>
</svg>
