<svg width="113" height="113" viewBox="0 0 113 113" fill="none" xmlns="http://www.w3.org/2000/svg">
<g clip-path="url(#clip0)">
<path opacity="0.5" d="M102.14 87.0934C97.6819 91.1322 93.6077 95.6347 89.9763 100.535C78.6819 115.691 60.3392 116.973 32.6351 100.78C8.85155 89.5649 6.57093 68.0672 17.431 53.5062C23.1448 46.0393 28.1779 38.001 32.4614 29.502C42.8545 8.14426 67.496 6.33724 86.664 31.5072C89.2418 34.9108 92.2418 37.9194 95.5801 40.449C120.515 59.1604 113.575 76.8109 102.14 87.0934Z" fill="#D5E3FC"/>
<path d="M102.259 45.3573C101.936 51.5863 102.187 57.8343 103.008 64.0104C105.528 83.2347 93.788 98.437 63.8033 108.929C39.8786 119.865 23.7513 106.877 21.3187 88.3876C20.1964 78.7952 18.2218 69.3401 15.4217 60.1515C8.10197 37.4531 23.7731 16.9347 53.9858 19.2664C58.06 19.5862 62.1559 19.3077 66.16 18.4386C95.9492 11.8401 103.149 29.3623 102.259 45.3573Z" fill="#D5E3FC"/>
<path d="M4.49651 52.3052L2.78062 50.673L0.5 50.3L2.02041 48.4463L2.37879 46.0098L4.09469 47.6419L6.3753 48.015L4.85489 49.8686L4.49651 52.3052Z" fill="#15357A"/>
<path d="M106.364 97.6444L105.506 96.0939L103.997 95.2895L105.441 94.3568L106.19 92.7363L107.059 94.2869L108.558 95.0913L107.113 96.0239L106.364 97.6444Z" fill="#2C71F0"/>
<path d="M84.1771 9.62485L83.6775 6.27895L81.5815 3.73747L84.7092 3.2012L87.0659 0.951172L87.5654 4.30872L89.6614 6.83855L86.5337 7.37482L84.1771 9.62485Z" fill="#2C71F0"/>
<path d="M78.3668 38.8633C77.5422 38.865 76.7359 39.1237 76.0457 39.6079C75.3555 40.0922 74.8112 40.7812 74.4789 41.5913C74.2657 42.2017 74.1697 42.852 74.1965 43.5032L74.3051 50.4165V83.3508C74.3051 83.3508 74.5875 87.746 68.9511 89.1799C59.5028 89.5297 61.588 79.7368 61.588 79.7368H41.9204V45.0771C41.9204 45.0771 41.5728 38.9915 48.5124 38.8633H78.3668Z" fill="white" stroke="#15357A" stroke-width="1.5" stroke-linecap="round" stroke-linejoin="round"/>
<path d="M81.9504 50.4165H74.3484L74.2398 43.5032C74.2129 42.852 74.309 42.2017 74.5221 41.5913C74.8545 40.7812 75.3988 40.0922 76.089 39.6079C76.7791 39.1237 77.5855 38.865 78.41 38.8633H78.8661C78.8661 38.8633 83.8944 39.1664 81.9504 50.4165Z" fill="#EAF1FE" stroke="#15357A" stroke-width="1.5" stroke-linecap="round" stroke-linejoin="round"/>
<path d="M68.9186 89.1804C68.2035 89.3588 67.4778 89.4834 66.7466 89.5535H43.3974C42.2498 89.5538 41.1141 89.3028 40.0599 88.8158C39.0058 88.3289 38.0552 87.6162 37.2664 86.7214C36.4776 85.8266 35.867 84.7684 35.4722 83.6117C35.0773 82.4549 34.9065 81.2239 34.97 79.9938C34.97 79.9122 34.97 79.8306 34.97 79.7373H61.5772C61.5772 79.7373 59.5029 89.5535 68.9186 89.1804Z" fill="#EAF1FE" stroke="#15357A" stroke-width="1.5" stroke-linecap="round" stroke-linejoin="round"/>
<path d="M69.5159 47.2578H45.8084C45.1486 47.2578 44.6138 47.832 44.6138 48.5402V48.7384C44.6138 49.4467 45.1486 50.0208 45.8084 50.0208H69.5159C70.1757 50.0208 70.7105 49.4467 70.7105 48.7384V48.5402C70.7105 47.832 70.1757 47.2578 69.5159 47.2578Z" fill="#D5E3FC"/>
<path d="M69.5159 53.7275H45.8084C45.1486 53.7275 44.6138 54.3017 44.6138 55.0099V55.2081C44.6138 55.9164 45.1486 56.4905 45.8084 56.4905H69.5159C70.1757 56.4905 70.7105 55.9164 70.7105 55.2081V55.0099C70.7105 54.3017 70.1757 53.7275 69.5159 53.7275Z" fill="#D5E3FC"/>
<path d="M69.5159 60.1982H45.8084C45.1486 60.1982 44.6138 60.7724 44.6138 61.4806V61.6788C44.6138 62.3871 45.1486 62.9612 45.8084 62.9612H69.5159C70.1757 62.9612 70.7105 62.3871 70.7105 61.6788V61.4806C70.7105 60.7724 70.1757 60.1982 69.5159 60.1982Z" fill="#D5E3FC"/>
<path d="M69.5159 66.6797H45.8084C45.1486 66.6797 44.6138 67.2538 44.6138 67.9621V68.1603C44.6138 68.8685 45.1486 69.4427 45.8084 69.4427H69.5159C70.1757 69.4427 70.7105 68.8685 70.7105 68.1603V67.9621C70.7105 67.2538 70.1757 66.6797 69.5159 66.6797Z" fill="#D5E3FC"/>
<path d="M69.5159 73.1504H45.8084C45.1486 73.1504 44.6138 73.7245 44.6138 74.4328V74.631C44.6138 75.3392 45.1486 75.9134 45.8084 75.9134H69.5159C70.1757 75.9134 70.7105 75.3392 70.7105 74.631V74.4328C70.7105 73.7245 70.1757 73.1504 69.5159 73.1504Z" fill="#D5E3FC"/>
<path d="M73.2298 72.9522C77.8182 72.9522 81.5378 68.9593 81.5378 64.0337C81.5378 59.1082 77.8182 55.1152 73.2298 55.1152C68.6415 55.1152 64.9219 59.1082 64.9219 64.0337C64.9219 68.9593 68.6415 72.9522 73.2298 72.9522Z" fill="#2C71F0"/>
<path d="M71.6553 64.3481L72.8499 65.6188L75.6192 61.7949" stroke="white" stroke-width="1.5" stroke-linecap="round" stroke-linejoin="round"/>
</g>
<defs>
<clipPath id="clip0">
<rect width="112" height="112" fill="white" transform="translate(0.5 0.951172)"/>
</clipPath>
</defs>
</svg>
