<svg width="113" height="113" viewBox="0 0 113 113" fill="none" xmlns="http://www.w3.org/2000/svg">
<g clip-path="url(#clip0)">
<path opacity="0.5" d="M102.139 87.0934C97.6815 91.1322 93.6072 95.6347 89.9758 100.535C78.6814 115.691 60.3387 116.973 32.6346 100.78C8.85106 89.5649 6.57044 68.0672 17.4305 53.5062C23.1443 46.0393 28.1775 38.001 32.4609 29.502C42.854 8.14426 67.4955 6.33724 86.6635 31.5072C89.2413 34.9108 92.2413 37.9194 95.5797 40.449C120.514 59.1604 113.575 76.8109 102.139 87.0934Z" fill="#D5E3FC"/>
<path d="M102.259 45.3573C101.937 51.5863 102.188 57.8343 103.009 64.0104C105.528 83.2347 93.7885 98.437 63.8038 108.929C39.879 119.865 23.7518 106.877 21.3192 88.3876C20.1969 78.7952 18.2223 69.3401 15.4222 60.1515C8.10246 37.4531 23.7736 16.9347 53.9863 19.2664C58.0605 19.5862 62.1564 19.3077 66.1604 18.4386C95.9496 11.8401 103.15 29.3623 102.259 45.3573Z" fill="#D5E3FC"/>
<path d="M4.49651 52.3052L2.78062 50.673L0.5 50.3L2.02041 48.4463L2.37879 46.0098L4.09469 47.6419L6.3753 48.015L4.85489 49.8686L4.49651 52.3052Z" fill="#15357A"/>
<path d="M106.364 97.6444L105.506 96.0939L103.997 95.2895L105.441 94.3568L106.19 92.7363L107.059 94.2869L108.558 95.0913L107.113 96.0239L106.364 97.6444Z" fill="#2C71F0"/>
<path d="M84.1771 9.62485L83.6775 6.27895L81.5815 3.73747L84.7092 3.2012L87.0659 0.951172L87.5654 4.30872L89.6614 6.83855L86.5337 7.37482L84.1771 9.62485Z" fill="#2C71F0"/>
<path d="M78.9751 43.3405V92.5846H39.5312V34.6318H70.678L78.9751 43.3405Z" fill="white" stroke="#15357A" stroke-width="1.5" stroke-linecap="round" stroke-linejoin="round"/>
<path d="M78.8879 43.9H70.5908V35.1797L78.8879 43.9Z" fill="#EAF1FE" stroke="#15357A" stroke-width="1.5" stroke-linecap="round" stroke-linejoin="round"/>
<path d="M73.0998 78.2451H44.9288C44.329 78.2451 43.8428 78.7671 43.8428 79.4109V79.4809C43.8428 80.1247 44.329 80.6467 44.9288 80.6467H73.0998C73.6996 80.6467 74.1858 80.1247 74.1858 79.4809V79.4109C74.1858 78.7671 73.6996 78.2451 73.0998 78.2451Z" fill="#EAF1FE"/>
<path d="M73.0998 84.0859H44.9288C44.329 84.0859 43.8428 84.6079 43.8428 85.2518V85.3217C43.8428 85.9656 44.329 86.4875 44.9288 86.4875H73.0998C73.6996 86.4875 74.1858 85.9656 74.1858 85.3217V85.2518C74.1858 84.6079 73.6996 84.0859 73.0998 84.0859Z" fill="#EAF1FE"/>
<path d="M73.0998 61.5508H44.9288C44.329 61.5508 43.8428 62.0727 43.8428 62.7166V62.7866C43.8428 63.4304 44.329 63.9524 44.9288 63.9524H73.0998C73.6996 63.9524 74.1858 63.4304 74.1858 62.7866V62.7166C74.1858 62.0727 73.6996 61.5508 73.0998 61.5508Z" fill="#EAF1FE"/>
<path d="M73.0998 67.3799H44.9288C44.329 67.3799 43.8428 67.9018 43.8428 68.5457V68.6156C43.8428 69.2595 44.329 69.7815 44.9288 69.7815H73.0998C73.6996 69.7815 74.1858 69.2595 74.1858 68.6156V68.5457C74.1858 67.9018 73.6996 67.3799 73.0998 67.3799Z" fill="#EAF1FE"/>
<path d="M73.0998 55.6982H44.9288C44.329 55.6982 43.8428 56.2202 43.8428 56.8641V56.934C43.8428 57.5779 44.329 58.0998 44.9288 58.0998H73.0998C73.6996 58.0998 74.1858 57.5779 74.1858 56.934V56.8641C74.1858 56.2202 73.6996 55.6982 73.0998 55.6982Z" fill="#EAF1FE"/>
<path d="M45.253 45.7588H46.5037V40.4762H45.4161C45.4161 41.1287 45.1831 41.4317 44.1343 41.4317V42.4183H45.253V45.7588ZM49.7404 45.8753C51.1776 45.8753 51.9467 44.912 51.9467 43.1175C51.9467 41.3229 51.1776 40.3596 49.7404 40.3596C48.3033 40.3596 47.5342 41.3229 47.5342 43.1175C47.5342 44.912 48.3033 45.8753 49.7404 45.8753ZM49.7404 44.8654C49.0568 44.8654 48.7305 44.3138 48.7305 43.1175C48.7305 41.9289 49.0568 41.3696 49.7404 41.3696C50.4241 41.3696 50.7504 41.9289 50.7504 43.1175C50.7504 44.3061 50.4241 44.8654 49.7404 44.8654ZM56.6122 42.3484C56.6122 41.2064 55.8198 40.3596 54.5379 40.3596C53.2561 40.3596 52.456 41.2064 52.456 42.3484C52.456 43.4205 53.1474 44.2206 54.2971 44.3216L53.2095 45.7588H54.6467L56.216 43.5914C56.4723 43.2573 56.6122 42.83 56.6122 42.3484ZM53.6446 42.3484C53.6446 41.7813 53.9708 41.3618 54.5379 41.3618C55.0973 41.3618 55.4313 41.7813 55.4313 42.3484C55.4313 42.9155 55.0973 43.3272 54.5379 43.3272C53.9708 43.3272 53.6446 42.9155 53.6446 42.3484ZM61.2323 42.3484C61.2323 41.2064 60.4399 40.3596 59.1581 40.3596C57.8763 40.3596 57.0761 41.2064 57.0761 42.3484C57.0761 43.4205 57.7675 44.2206 58.9173 44.3216L57.8297 45.7588H59.2669L60.8361 43.5914C61.0925 43.2573 61.2323 42.83 61.2323 42.3484ZM58.2647 42.3484C58.2647 41.7813 58.591 41.3618 59.1581 41.3618C59.7174 41.3618 60.0515 41.7813 60.0515 42.3484C60.0515 42.9155 59.7174 43.3272 59.1581 43.3272C58.591 43.3272 58.2647 42.9155 58.2647 42.3484Z" fill="#15357A"/>
</g>
<defs>
<clipPath id="clip0">
<rect width="112" height="112" fill="white" transform="translate(0.5 0.951172)"/>
</clipPath>
</defs>
</svg>
