<svg width="112" height="113" viewBox="0 0 112 113" fill="none" xmlns="http://www.w3.org/2000/svg">
<g clip-path="url(#clip0)">
<path opacity="0.5" d="M101.639 87.0929C97.1818 91.1317 93.1075 95.6342 89.4762 100.535C78.1817 115.69 59.839 116.973 32.135 100.78C8.3514 89.5644 6.07079 68.0667 16.9309 53.5057C22.6446 46.0388 27.6778 38.0005 31.9612 29.5015C42.3543 8.14377 66.9958 6.33676 86.1639 31.5067C88.7417 34.9103 91.7416 37.9189 95.08 40.4485C120.015 59.1599 113.075 76.8104 101.639 87.0929Z" fill="#D5E3FC"/>
<path d="M101.759 45.3566C101.436 51.5856 101.687 57.8336 102.508 64.0097C105.028 83.234 93.2881 98.4362 63.3034 108.929C39.3786 119.864 23.2514 106.877 20.8188 88.3869C19.6965 78.7945 17.7219 69.3394 14.9217 60.1508C7.60206 37.4524 23.2732 16.934 53.4859 19.2656C57.5601 19.5854 61.656 19.3069 65.66 18.4379C95.4492 11.8394 102.649 29.3616 101.759 45.3566Z" fill="#D5E3FC"/>
<path d="M3.99651 52.3049L2.28062 50.6728L0 50.2997L1.52041 48.4461L1.87879 46.0095L3.59469 47.6417L5.8753 48.0147L4.35489 49.8684L3.99651 52.3049Z" fill="#15357A"/>
<path d="M105.864 97.6434L105.006 96.0929L103.497 95.2885L104.941 94.3558L105.69 92.7354L106.559 94.2859L108.058 95.0903L106.613 96.023L105.864 97.6434Z" fill="#2C71F0"/>
<path d="M83.6769 9.62436L83.1773 6.27847L81.0814 3.73699L84.2091 3.20071L86.5657 0.950684L87.0653 4.30824L89.1613 6.83806L86.0336 7.37433L83.6769 9.62436Z" fill="#2C71F0"/>
<path d="M80.5601 49.5652L80.4297 42.2672C80.4087 41.5754 80.5158 40.8859 80.7447 40.2387C81.0924 39.381 81.6664 38.6512 82.3959 38.1395C83.1254 37.6278 83.9784 37.3566 84.8498 37.3591H53.2904C45.9599 37.4874 46.3182 43.9227 46.3182 43.9227V45.5548L80.5601 77.265V49.5652Z" fill="white" stroke="#01090F" stroke-width="1.5" stroke-linecap="round" stroke-linejoin="round"/>
<path d="M88.6291 49.5653C90.6925 37.6739 85.3711 37.3591 85.3711 37.3591H84.8932C84.0218 37.3566 83.1688 37.6278 82.4393 38.1395C81.7098 38.6512 81.1358 39.381 80.7881 40.2387C80.5592 40.8859 80.4522 41.5754 80.4732 42.2672L80.6035 49.5653H88.6291Z" fill="#EAF1FE" stroke="#01090F" stroke-width="1.5" stroke-linecap="round" stroke-linejoin="round"/>
<path d="M52.1284 49.1454H76.998C77.3384 49.1128 77.6552 48.9445 77.8859 48.6737C78.1166 48.403 78.2445 48.0493 78.2445 47.6823C78.2445 47.3154 78.1166 46.9617 77.8859 46.6909C77.6552 46.4202 77.3384 46.2519 76.998 46.2192H52.1284C51.7674 46.2223 51.4221 46.3784 51.1678 46.6536C50.9135 46.9287 50.7709 47.3006 50.7709 47.6882C50.7725 47.9106 50.8207 48.1297 50.9121 48.3294L51.7048 49.0638C51.8412 49.1145 51.9841 49.142 52.1284 49.1454Z" fill="#D5E3FC"/>
<path d="M76.998 55.989C77.358 55.989 77.7033 55.8355 77.9579 55.5622C78.2125 55.2889 78.3555 54.9182 78.3555 54.5317C78.3555 54.1452 78.2125 53.7746 77.9579 53.5013C77.7033 53.228 77.358 53.0745 76.998 53.0745H56.0271L59.1874 55.989H76.998Z" fill="#D5E3FC"/>
<path d="M76.998 62.8323C77.358 62.8323 77.7033 62.6787 77.9579 62.4054C78.2125 62.1321 78.3555 61.7615 78.3555 61.375C78.3555 60.9885 78.2125 60.6178 77.9579 60.3445C77.7033 60.0713 77.358 59.9177 76.998 59.9177H63.4229L66.5723 62.8323H76.998Z" fill="#D5E3FC"/>
<path d="M76.998 69.7339C77.358 69.7339 77.7033 69.5803 77.9579 69.307C78.2125 69.0338 78.3555 68.6631 78.3555 68.2766C78.3555 67.8901 78.2125 67.5194 77.9579 67.2462C77.7033 66.9729 77.358 66.8193 76.998 66.8193H70.8077L73.9571 69.7339H76.998Z" fill="#D5E3FC"/>
<path d="M72.5671 76.414L38.3361 44.6921V79.6666H59.1223C59.1223 79.6666 56.9503 90.0191 66.909 89.646C72.8711 88.1305 72.5671 83.4789 72.5671 83.4789V76.414Z" fill="white" stroke="#01090F" stroke-width="1.5" stroke-linecap="round" stroke-linejoin="round"/>
<path d="M59.1223 79.7131H30.9947C30.9947 79.8064 30.9947 79.888 30.9947 79.9813C30.925 81.2815 31.1039 82.5832 31.5203 83.8064C31.9367 85.0296 32.5818 86.1484 33.4159 87.0941C34.2501 88.0397 35.2556 88.7922 36.3706 89.3052C37.4857 89.8183 38.6868 90.081 39.8999 90.0772H64.6283C65.3963 90.0092 66.1586 89.8806 66.909 89.6925C56.9177 90.0656 59.1223 79.7131 59.1223 79.7131Z" fill="white" stroke="#15357A" stroke-width="1.5" stroke-linecap="round" stroke-linejoin="round"/>
<path d="M59.1223 79.7131H30.9947C30.9947 79.8064 30.9947 79.888 30.9947 79.9813C30.925 81.2815 31.1039 82.5832 31.5203 83.8064C31.9367 85.0296 32.5818 86.1484 33.4159 87.0941C34.2501 88.0397 35.2556 88.7922 36.3706 89.3052C37.4857 89.8183 38.6868 90.081 39.8999 90.0772H64.6283C65.3963 90.0092 66.1586 89.8806 66.909 89.6925C56.9177 90.0656 59.1223 79.7131 59.1223 79.7131Z" fill="#EAF1FE" stroke="#01090F" stroke-width="1.5" stroke-linecap="round" stroke-linejoin="round"/>
<path d="M44.8521 52.2466H40.9425C40.5825 52.2466 40.2372 52.4001 39.9826 52.6734C39.728 52.9467 39.585 53.3174 39.585 53.7039C39.585 54.0903 39.728 54.461 39.9826 54.7343C40.2372 55.0076 40.5825 55.1611 40.9425 55.1611H48.0016L44.8521 52.2466Z" fill="#D5E3FC"/>
<path d="M52.237 59.0549H40.9425C40.5825 59.0549 40.2372 59.2085 39.9826 59.4818C39.728 59.755 39.585 60.1257 39.585 60.5122C39.585 60.8987 39.728 61.2694 39.9826 61.5426C40.2372 61.8159 40.5825 61.9695 40.9425 61.9695H55.3864L52.237 59.0549Z" fill="#D5E3FC"/>
<path d="M59.6327 65.8984H40.9425C40.5825 65.8984 40.2372 66.052 39.9826 66.3253C39.728 66.5986 39.585 66.9692 39.585 67.3557C39.585 67.7422 39.728 68.1129 39.9826 68.3862C40.2372 68.6594 40.5825 68.813 40.9425 68.813H62.7821L59.6327 65.8984Z" fill="#D5E3FC"/>
<path d="M65.8229 72.7417H40.9425C40.5825 72.7417 40.2372 72.8952 39.9826 73.1685C39.728 73.4418 39.585 73.8125 39.585 74.199C39.585 74.5855 39.728 74.9561 39.9826 75.2294C40.2372 75.5027 40.5825 75.6562 40.9425 75.6562H65.8229C66.183 75.6562 66.5283 75.5027 66.7829 75.2294C67.0374 74.9561 67.1805 74.5855 67.1805 74.199C67.1805 73.8125 67.0374 73.4418 66.7829 73.1685C66.5283 72.8952 66.183 72.7417 65.8229 72.7417Z" fill="#D5E3FC"/>
<path d="M58.0037 70.2467C63.0119 70.2467 67.0719 65.8884 67.0719 60.5122C67.0719 55.1359 63.0119 50.7776 58.0037 50.7776C52.9955 50.7776 48.9355 55.1359 48.9355 60.5122C48.9355 65.8884 52.9955 70.2467 58.0037 70.2467Z" fill="#E30004"/>
<path d="M54.2787 57.073L61.7396 64.7091" stroke="white" stroke-width="1.5" stroke-linecap="round" stroke-linejoin="round"/>
<path d="M61.7396 57.073L54.2787 64.7091" stroke="white" stroke-width="1.5" stroke-linecap="round" stroke-linejoin="round"/>
</g>
<defs>
<clipPath id="clip0">
<rect width="112" height="112" fill="white" transform="translate(0 0.950684)"/>
</clipPath>
</defs>
</svg>
