<svg width="112" height="113" viewBox="0 0 112 113" fill="none" xmlns="http://www.w3.org/2000/svg">
<g clip-path="url(#clip0)">
<path opacity="0.5" d="M100.909 85.9444C96.4505 89.9193 92.3185 94.4789 88.6214 99.2722C77.2039 114.471 58.8272 115.64 31.2078 99.1553C7.50294 87.6981 5.32818 66.0697 16.3107 51.5728C21.9651 44.0905 27.402 36.1407 31.534 27.6062C42.0816 6.32854 66.7651 4.6918 85.7942 30.0613C88.2952 33.4517 91.3398 36.6083 94.602 39.0634C119.503 58.1198 112.435 75.7732 100.909 85.9444Z" fill="#D5E3FC"/>
<path d="M101.887 45.6104C101.452 51.8066 101.779 58.2367 102.54 64.4329C104.932 83.7231 93.0796 98.9214 62.9592 109.093C38.9282 119.731 22.835 106.637 20.5515 88.1657C19.3554 78.696 17.7243 68.8755 14.8971 59.7565C7.72041 36.8421 23.5961 16.4997 53.8253 19.0717C57.8486 19.4225 61.9806 19.1887 66.0039 18.3703C95.9068 11.9402 102.975 29.5937 101.887 45.6104Z" fill="#D5E3FC"/>
<path d="M4.0233 51.6897L2.28349 50.053L0 49.7023L1.52233 47.8317L1.95728 45.3766L3.58835 47.0133L5.87184 47.481L4.34951 49.3515L4.0233 51.6897Z" fill="#15357A"/>
<path d="M105.693 98.1031L104.823 96.4664L103.301 95.648L104.715 94.8296L105.476 93.1929L106.346 94.7127L107.868 95.5311L106.454 96.4664L105.693 98.1031Z" fill="#2C71F0"/>
<path d="M84.0544 9.60204L83.6194 6.21164L81.5534 3.63962L84.7068 3.17198L86.9903 0.950684L87.534 4.34108L89.6 6.9131L86.4466 7.38075L84.0544 9.60204Z" fill="#2C71F0"/>
<path d="M81.8754 44.6527L28.0555 43.9939L27.6186 85.2591L81.4384 85.9179L81.8754 44.6527Z" fill="#EAF1FE" stroke="#15357A" stroke-width="1.5" stroke-miterlimit="10" stroke-linecap="round" stroke-linejoin="round"/>
<path d="M90.4659 44.6683L34.3628 43.9816L33.9258 85.2468L90.0289 85.9335L90.4659 44.6683Z" fill="white" stroke="#15357A" stroke-width="1.5" stroke-miterlimit="10" stroke-linecap="round" stroke-linejoin="round"/>
<path d="M68.3961 50.5206L68.2874 53.911L56.8699 53.7941L56.9786 44.3244L68.3961 44.4413V46.195V50.5206Z" fill="#2C71F0" stroke="#15357A" stroke-width="1.5" stroke-miterlimit="10" stroke-linecap="round" stroke-linejoin="round"/>
<path opacity="0.1" d="M51.4963 50.4868L37.7967 50.3191L37.6655 62.7103L51.3651 62.878L51.4963 50.4868Z" fill="#15357A"/>
<path opacity="0.1" d="M56.9786 44.3244L68.2874 53.911L56.8699 53.7941L56.9786 44.3244Z" fill="#15357A"/>
<path opacity="0.1" d="M33.9262 85.243L90.3612 44.6751L89.9262 85.9444L33.9262 85.243Z" fill="#15357A"/>
</g>
<defs>
<clipPath id="clip0">
<rect width="112" height="112" fill="white" transform="translate(0 0.950684)"/>
</clipPath>
</defs>
</svg>
