<svg width="142" height="37" viewBox="0 0 142 37" fill="none" xmlns="http://www.w3.org/2000/svg">
<path d="M32.1355 2.02832H6.06872C3.65899 2.02832 1.73584 3.95519 1.73584 6.32315V32.1618C1.73584 34.5298 3.68216 36.4566 6.06872 36.4566H32.1124C34.5221 36.4566 36.4453 34.5298 36.4453 32.1618V6.34637C36.4684 3.95519 34.5221 2.02832 32.1355 2.02832ZM23.7246 8.34289C23.7246 7.71607 24.2344 7.20534 24.8832 7.20534C25.5319 7.20534 26.0417 7.71607 26.0417 8.34289V23.6882C26.0417 24.315 25.5319 24.8258 24.8832 24.8258C24.2344 24.8258 23.7246 24.315 23.7246 23.6882V8.34289ZM17.9552 7.7625C17.9552 7.13569 18.4649 6.62495 19.1137 6.62495C19.7625 6.62495 20.2722 7.13569 20.2722 7.7625V24.4079C20.2722 25.0347 19.7625 25.5454 19.1137 25.5454C18.4649 25.5454 17.9552 25.0347 17.9552 24.4079V7.7625ZM12.1626 8.34289C12.1626 7.71607 12.6723 7.20534 13.3211 7.20534C13.9699 7.20534 14.4796 7.71607 14.4796 8.34289V23.6882C14.4796 24.315 13.9699 24.8258 13.3211 24.8258C12.6723 24.8258 12.1626 24.315 12.1626 23.6882V8.34289ZM6.36994 10.6412C6.36994 10.0144 6.87969 9.50365 7.52847 9.50365C8.17724 9.50365 8.68699 10.0144 8.68699 10.6412V20.972C8.68699 21.5988 8.17724 22.1096 7.52847 22.1096C6.87969 22.1096 6.36994 21.5988 6.36994 20.972V10.6412ZM31.4404 28.1456C31.2551 28.3081 26.9685 31.86 19.1137 31.86C11.2589 31.86 6.97237 28.2848 6.78701 28.1456C6.30043 27.7277 6.25409 27.008 6.67116 26.5205C7.08823 26.033 7.80651 25.9865 8.29309 26.4044C8.3626 26.4508 12.1857 29.5849 19.1137 29.5849C26.1344 29.5849 29.9112 26.4508 29.9343 26.4276C30.4209 26.0097 31.1392 26.0794 31.5563 26.5437C31.9733 27.008 31.927 27.7509 31.4404 28.1456ZM31.8343 20.972C31.8343 21.5988 31.3246 22.1096 30.6758 22.1096C30.027 22.1096 29.5173 21.5988 29.5173 20.972V10.6412C29.5173 10.0144 30.027 9.50365 30.6758 9.50365C31.3246 9.50365 31.8343 10.0144 31.8343 10.6412V20.972Z" fill="#286EFA"/>
<path d="M49.9299 24.2216C49.9299 24.802 49.4896 25.2663 48.864 25.2663C48.2615 25.2663 47.8213 24.802 47.8213 24.2216V14.239C47.8213 13.6586 48.2615 13.1943 48.8872 13.1943C49.4896 13.1943 49.9299 13.6586 49.9299 14.239V24.2216Z" fill="black"/>
<path d="M63.5531 14.239V23.3627C63.5531 24.5931 62.9043 25.2895 61.8385 25.2895H61.7458C60.7495 25.2895 60.2861 24.7091 59.8458 23.8734L57.7142 19.7411L55.8373 15.4695L55.8837 19.6018L55.9069 24.2216C55.9069 24.802 55.4666 25.2663 54.841 25.2663C54.2386 25.2663 53.7983 24.802 53.7983 24.2216V15.098C53.7983 13.9605 54.4471 13.1711 55.6056 13.1711H55.6983C56.7642 13.1711 57.2044 13.7515 57.6215 14.5873L59.7068 18.6964L61.4909 22.6894L61.4446 18.8589L61.4214 14.239C61.4214 13.6587 61.8617 13.1944 62.4873 13.1944C63.1129 13.1944 63.5531 13.6819 63.5531 14.239Z" fill="black"/>
<path d="M71.9886 24.2213C71.9886 24.8017 71.5483 25.266 70.9227 25.266C70.3203 25.266 69.88 24.8017 69.88 24.2213V15.1906H67.2617C66.7288 15.1906 66.2886 14.7959 66.2886 14.1923C66.2886 13.6119 66.7288 13.2173 67.2617 13.2173H74.6069C75.1398 13.2173 75.58 13.6119 75.58 14.2155C75.58 14.7959 75.1398 15.1906 74.6069 15.1906H71.9886V24.2213Z" fill="black"/>
<path d="M78.3369 23.8727V14.4938C78.3369 13.6116 78.8235 13.1241 79.7271 13.1473H85.7977C86.3306 13.1473 86.7708 13.5651 86.7708 14.1455C86.7708 14.7259 86.3306 15.1206 85.7977 15.1206H80.4222V18.0225H85.1489C85.6818 18.0225 86.0989 18.4171 86.0989 18.9743C86.0989 19.5315 85.6818 19.9261 85.1489 19.9261H80.4222V23.2691H85.7745C86.3074 23.2691 86.7477 23.687 86.7477 24.2674C86.7477 24.8478 86.3074 25.2424 85.7745 25.2424H79.6576C78.8003 25.2656 78.2906 24.7781 78.3369 23.8727Z" fill="black"/>
<path d="M98.7494 23.8967C99.0274 24.3842 98.8421 25.011 98.2628 25.3128C97.6835 25.5914 97.0579 25.3824 96.7799 24.8949L94.4396 20.5537H92.2152L92.2384 24.2449C92.2384 24.8253 91.7982 25.2896 91.1726 25.2896C90.5701 25.2896 90.1299 24.8253 90.1299 24.2449V14.5177C90.1299 13.6355 90.6165 13.148 91.5201 13.1712H95.4823C98.2396 13.1712 99.375 14.9588 99.375 16.7928C99.375 18.5339 98.3555 19.8108 96.6177 20.159L98.7494 23.8967ZM92.1921 18.65H95.5287C96.664 18.65 97.2433 17.9303 97.2433 16.8856C97.2433 15.8642 96.6177 15.1445 95.5055 15.1445H92.1921V18.65Z" fill="black"/>
<path d="M103.73 24.3603C102.456 23.2228 101.9 21.4584 101.9 19.2298C101.9 16.9779 102.456 15.2367 103.707 14.1224C104.472 13.4492 105.538 12.9849 107.044 12.9849C108.388 12.9849 109.407 13.2867 110.172 13.9367C110.844 14.4706 111.33 15.2367 111.631 16.3046C111.794 16.8618 111.4 17.419 110.751 17.5351C110.149 17.6279 109.662 17.2565 109.477 16.6993C109.268 16.1654 109.013 15.7707 108.689 15.4921C108.249 15.0975 107.716 14.9349 106.997 14.9349C106.233 14.9349 105.584 15.1439 105.097 15.6546C104.379 16.3743 104.078 17.6279 104.078 19.2298C104.078 20.8084 104.356 22.0852 105.097 22.8049C105.584 23.2924 106.233 23.5246 106.974 23.5246C107.739 23.5246 108.341 23.3157 108.828 22.8746C109.083 22.6424 109.291 22.3406 109.453 21.9692C109.662 21.4352 110.125 21.0638 110.728 21.2031C111.307 21.3424 111.678 21.9227 111.492 22.4799C111.191 23.4085 110.658 24.1514 109.963 24.6621C109.199 25.2193 108.225 25.4979 107.021 25.4979C105.445 25.4747 104.472 25.0104 103.73 24.3603Z" fill="black"/>
<path d="M113.997 19.2298C113.997 15.4457 115.55 12.9849 119.21 12.9849C122.825 12.9849 124.401 15.376 124.401 19.2298C124.401 23.1299 122.825 25.4747 119.21 25.4747C115.526 25.4747 113.997 23.1299 113.997 19.2298ZM122.246 19.2298C122.246 16.3511 121.203 14.9582 119.187 14.9582C117.218 14.9582 116.175 16.3511 116.175 19.2298C116.175 22.1085 117.195 23.5014 119.187 23.5014C121.18 23.5014 122.246 22.1085 122.246 19.2298Z" fill="black"/>
<path d="M140.758 24.2211C140.758 24.8014 140.318 25.2657 139.692 25.2657C139.09 25.2657 138.649 24.8014 138.649 24.2211V19.6941L138.696 15.2832L137.236 19.7637L135.753 24.1746C135.498 24.9407 134.988 25.2657 134.316 25.2657C133.621 25.2657 133.112 24.9407 132.857 24.1746L131.327 19.7869L129.937 15.376L129.984 19.7173V24.2443C129.984 24.8247 129.543 25.289 128.918 25.289C128.315 25.289 127.875 24.8247 127.875 24.2443V15.2135C127.875 13.9599 128.547 13.2402 129.729 13.2402C130.841 13.2402 131.466 13.8206 131.814 14.9117L133.366 19.5316L134.316 22.6656L135.266 19.5316L136.819 14.9117C137.166 13.8206 137.769 13.2402 138.904 13.2402C140.086 13.2402 140.735 13.9599 140.735 15.2135L140.758 24.2211Z" fill="black"/>
</svg>
