<svg width="166" height="31" viewBox="0 0 166 31" fill="none" xmlns="http://www.w3.org/2000/svg">
<path d="M22.1771 25.1016C22.4436 23.5746 21.884 21.9958 20.6851 20.9605C19.8324 20.1841 18.6867 19.7441 17.5144 19.7441C16.8216 19.7441 16.1555 19.5888 15.5427 19.2782C14.7434 18.8641 14.1039 18.2171 13.6776 17.4406C13.9174 16.8453 14.024 16.1983 14.024 15.4995C14.024 17.3888 15.5693 18.9159 17.4877 18.9159H17.5677C19.4594 18.89 20.9781 17.3629 20.9781 15.4995C20.9781 14.8265 21.1114 14.1795 21.3245 13.5583C21.6975 12.6007 22.337 11.7466 23.1896 11.1254C24.2287 10.349 25.5077 9.98661 26.7866 10.0384C25.8807 8.53722 24.6018 7.26901 23.0564 6.36315C23.0564 6.44079 23.0564 6.54432 23.0564 6.62197C23.0564 7.81253 22.6567 8.95133 21.9373 9.90896C21.7242 9.72779 21.4844 9.5725 21.2446 9.44309C21.884 8.64075 22.2038 7.65724 22.2038 6.64784C22.2038 6.05256 22.0972 5.45728 21.8574 4.88788C21.1646 3.23143 19.5393 2.06675 17.621 2.01498H17.4877H17.3545C16.1822 2.01498 15.0365 2.17028 13.9174 2.48086C9.20136 3.72319 5.4978 7.37254 4.24551 12.0054C3.44618 12.963 2.96659 14.1277 2.93994 15.37C3.01987 7.57959 9.41451 1.26441 17.3545 1.18677H17.5144C17.5943 1.18677 17.6476 1.18677 17.7275 1.18677C25.6143 1.31618 31.9822 7.57959 32.0622 15.37C32.0622 15.4218 32.0622 15.4736 32.0622 15.5253C32.0622 15.5771 32.0622 15.6289 32.0622 15.6806C32.0355 16.923 31.5826 18.0876 30.7566 19.0453C30.0106 19.9253 28.9714 20.5723 27.8257 20.8311C27.3994 20.9347 26.9465 20.9864 26.5202 20.9864C25.3212 20.9864 24.1488 20.5982 23.1896 19.8994C22.8432 20.3652 22.4169 20.7535 21.964 21.1158C22.7367 22.1252 23.1363 23.3934 23.0564 24.6616C24.6018 23.7558 25.8807 22.4876 26.7866 20.9864C27.133 20.9605 27.4794 20.9088 27.8257 20.8311C26.7333 22.9017 25.0014 24.584 22.8965 25.671C21.2446 26.5251 19.3795 26.9651 17.5144 26.9651C16.6884 26.9651 15.9157 26.5769 15.4361 25.9557C15.0897 25.4899 14.9032 24.9463 14.9032 24.3769C14.9032 23.6005 15.2763 22.8758 15.8358 22.4099C16.3687 22.5393 16.9548 22.617 17.541 22.617C16.5552 22.617 15.7292 23.4193 15.7292 24.4028C15.7292 25.3863 16.5285 26.1887 17.541 26.1887H17.5677C18.5535 26.1887 19.3795 25.3863 19.3795 24.4028C19.3795 23.4193 18.5802 22.617 17.5677 22.617C16.2355 22.617 14.9565 22.2546 13.8108 21.5817C13.571 21.4264 13.3312 21.2711 13.1181 21.1158C12.6385 20.7535 12.2388 20.3394 11.8658 19.8994C12.0789 19.7441 12.2921 19.5629 12.5052 19.3559C13.0115 20.0029 13.651 20.5723 14.397 20.9864C15.3562 21.5299 16.4486 21.8146 17.5677 21.8146C18.2071 21.8146 18.82 22.0476 19.2729 22.4358C19.8324 22.9017 20.2055 23.6264 20.2055 24.4028C20.2055 24.9722 20.0189 25.5157 19.6726 25.9816C20.5518 25.8004 21.4044 25.5416 22.2038 25.1534L22.1771 25.1016ZM28.1188 13.4548C27.9589 12.5748 27.6659 11.7466 27.2662 10.9442C25.9873 10.7372 24.6817 11.0736 23.6692 11.8242C22.4969 12.7042 21.8041 14.0759 21.8041 15.5253C21.8041 16.2241 21.6442 16.8712 21.3245 17.4665C20.9249 18.2429 20.2587 18.89 19.4861 19.3041C20.2055 19.5629 20.8449 19.977 21.4044 20.4947C22.0706 20.0029 22.6301 19.3559 23.0298 18.657C23.5893 17.6994 23.8824 16.6383 23.8824 15.5253C23.8824 14.8783 24.1222 14.3089 24.5218 13.843C25.0281 13.2736 25.7475 12.9371 26.5202 12.9371C27.1063 12.9371 27.6659 13.1183 28.1188 13.4548ZM28.3053 15.4477C28.2787 14.5159 27.4794 13.7654 26.4935 13.7395C25.481 13.7395 24.6817 14.5418 24.6817 15.4995C24.6817 15.5253 24.6817 15.5512 24.6817 15.5512C24.7083 16.5089 25.5077 17.2594 26.4935 17.2594C27.506 17.2594 28.3053 16.4571 28.3053 15.4995C28.3053 15.4995 28.3053 15.4736 28.3053 15.4477ZM24.5218 17.2077C24.3353 17.9065 24.0689 18.6053 23.6692 19.2264C24.6817 20.0029 25.9873 20.3135 27.2662 20.1064C27.6126 20.0547 27.959 19.9511 28.3053 19.8217C30.0372 19.1229 31.1829 17.4924 31.2362 15.6547V15.4218C31.2362 14.283 31.0763 13.1442 30.7566 12.0313C29.5043 7.4243 25.8008 3.77495 21.1114 2.50674C22.0173 3.25731 22.6301 4.26671 22.9232 5.37963V5.40551C25.3745 6.67373 27.2662 8.74428 28.3053 11.2548C28.8649 12.5748 29.1579 14.0242 29.1579 15.5512C29.1579 16.3794 28.7583 17.13 28.1188 17.5959C27.6659 17.9324 27.1063 18.1394 26.5202 18.1394C25.7208 18.1135 25.0014 17.7512 24.5218 17.2077ZM17.3012 29.838C9.41451 29.7086 3.04652 23.4193 2.96659 15.6547V15.4995V15.3442C2.99323 14.1018 3.44618 12.9371 4.27216 11.9795C5.0182 11.0995 6.05733 10.4784 7.20303 10.1937C7.62934 10.0901 8.08229 10.0384 8.5086 10.0384C9.7076 10.0384 10.8799 10.4266 11.8391 11.1254C12.1855 10.6595 12.6118 10.2713 13.0648 9.90896C12.2921 8.89957 11.8924 7.63136 11.9457 6.36315C10.4003 7.26901 9.12142 8.53722 8.21552 10.0384C7.86914 10.0643 7.52276 10.116 7.17639 10.1937C8.2688 8.12311 10.0007 6.44079 12.1056 5.35375C13.7575 4.49964 15.6226 4.05965 17.4877 4.05965C18.3137 4.05965 19.0864 4.44789 19.566 5.06905C19.9124 5.50904 20.0989 6.05256 20.0989 6.64784C20.0989 7.45018 19.7259 8.14899 19.1663 8.61487C18.6068 8.48546 18.0473 8.40781 17.4611 8.40781C18.4469 8.40781 19.2729 7.60548 19.2729 6.62197C19.2729 5.63845 18.4736 4.83611 17.4611 4.83611H17.4344C16.4486 4.83611 15.6226 5.63845 15.6226 6.62197C15.6226 7.60548 16.422 8.40781 17.4344 8.40781C18.7667 8.40781 20.0456 8.77016 21.1913 9.44309C21.4311 9.59838 21.6709 9.75367 21.884 9.90896C22.337 10.2713 22.7633 10.6854 23.1363 11.1254C22.9232 11.2807 22.71 11.4619 22.4969 11.6689C21.9906 11.0219 21.3512 10.4525 20.6051 10.0384C19.6459 9.49485 18.5535 9.21016 17.4344 9.21016C16.8216 9.21016 16.2088 8.97721 15.7292 8.58898C15.143 8.09723 14.7967 7.37254 14.7967 6.62197C14.7967 6.02668 15.0098 5.48316 15.3295 5.04317C14.4503 5.22434 13.571 5.50904 12.7717 5.87138C12.5052 7.39842 13.0648 8.97721 14.2638 10.0125C15.1164 10.7889 16.2621 11.2289 17.4344 11.2289C18.1272 11.2289 18.7933 11.3842 19.4061 11.6948C20.2055 12.1089 20.8449 12.756 21.2712 13.5324C21.0314 14.1536 20.8982 14.8006 20.9249 15.4736C20.9249 13.5842 19.3795 12.0572 17.4611 12.0572H17.4344C15.5427 12.083 14.024 13.6101 14.024 15.4736C14.024 16.1465 13.8908 16.7935 13.6776 17.4147C13.3046 18.3723 12.6651 19.2264 11.8125 19.8476C10.7734 20.6241 9.49444 20.9864 8.21552 20.9347C9.12142 22.4358 10.4003 23.704 11.9457 24.6099C11.8924 23.3417 12.2655 22.0993 13.0381 21.0899C13.2513 21.2711 13.4911 21.4264 13.7309 21.5558C13.0914 22.3582 12.7717 23.3417 12.7717 24.3511C12.7717 24.9463 12.8783 25.5416 13.1181 26.111C13.8108 27.7675 15.4361 28.9322 17.3545 28.9839H17.5943C18.7667 28.9839 19.9124 28.8286 21.0314 28.518C25.7475 27.2757 29.451 23.6264 30.7033 18.9935C31.5026 18.0359 31.9822 16.8712 32.0089 15.6289C31.929 23.4193 25.5343 29.7345 17.5943 29.8121H17.4344H17.2746C17.3545 29.838 17.3012 29.838 17.3012 29.838ZM13.9174 28.5439C13.0115 27.7934 12.3987 26.784 12.1056 25.671C12.1056 25.671 12.1056 25.671 12.1056 25.6452C9.65431 24.3769 7.76256 22.3064 6.72343 19.7958C6.1639 18.4241 5.87082 16.9747 5.87082 15.4995C5.87082 14.6712 6.27048 13.9207 6.90994 13.4548C7.3629 13.1183 7.89578 12.9113 8.5086 12.9113C9.30793 12.9113 10.0273 13.2736 10.5069 13.8171C10.6934 13.0924 10.9599 12.4195 11.3595 11.7983C10.3471 11.0219 9.04149 10.7113 7.76256 10.9184C7.38954 10.9701 7.06981 11.0736 6.72343 11.2031C4.99155 11.9019 3.84585 13.5324 3.79256 15.37C3.79256 15.4218 3.79256 15.4477 3.79256 15.4995V15.6289C3.79256 16.7677 3.95243 17.9065 4.27216 19.0194C5.55108 23.6523 9.228 27.3016 13.9174 28.5439ZM7.76256 20.1064C9.04149 20.3135 10.3471 19.977 11.3595 19.2264C12.5319 18.3465 13.2246 16.9747 13.2246 15.5253C13.2246 14.8265 13.3845 14.1795 13.7042 13.5842C14.1039 12.8077 14.77 12.1607 15.5427 11.7466H15.5161C14.7967 11.4878 14.1572 11.0736 13.5977 10.556C12.9316 11.0478 12.372 11.6948 11.9724 12.3936C11.4128 13.3513 11.1197 14.4124 11.1197 15.5253C11.1197 16.1724 10.8799 16.7418 10.4803 17.2077C9.97404 17.7771 9.25464 18.1135 8.48196 18.1135C7.86914 18.1135 7.33625 17.9065 6.8833 17.57C7.09645 18.45 7.38954 19.3041 7.76256 20.1064ZM6.72343 15.603C6.77672 16.5347 7.54941 17.3112 8.53525 17.3112C9.54773 17.3112 10.3471 16.5089 10.3471 15.5512C10.3471 15.5253 10.3471 15.4995 10.3471 15.4995C10.3204 14.5418 9.52109 13.7912 8.53525 13.7912C7.52276 13.7912 6.72343 14.5936 6.72343 15.5771C6.72343 15.5512 6.72343 15.5771 6.72343 15.603ZM43.759 8.01959H47.7557L51.4859 17.9065H51.5392L55.2161 8.01959H59.2127V21.944H56.6815V10.7631H56.6549L52.3118 21.944H50.5267L46.2369 10.7631H46.2103V21.944H43.7857L43.759 8.01959ZM66.1935 8.01959H75.6789V10.1937H68.7514V13.7395H75.3325V15.81H68.7247V19.7441H76.0253V21.944H66.1669L66.1935 8.01959ZM86.9761 14.0242C87.3491 14.0242 87.6955 13.9983 88.0685 13.9465C88.4149 13.8948 88.7346 13.7912 89.0543 13.6618C89.3474 13.5065 89.5872 13.2995 89.7738 13.0407C89.9603 12.7819 90.0668 12.4195 90.0668 12.0054C90.0668 11.6172 89.9869 11.3066 89.8004 11.0736C89.6139 10.8407 89.4007 10.6337 89.1343 10.5042C88.8412 10.349 88.5481 10.2454 88.2017 10.2195C87.882 10.1678 87.5356 10.1419 87.1892 10.1419H84.8712V14.0501C84.8978 14.0242 86.9761 14.0242 86.9761 14.0242ZM82.34 8.01959H87.3225C87.9886 8.01959 88.6547 8.09723 89.2942 8.22664C89.907 8.35605 90.4665 8.58899 90.9727 8.89957C91.4523 9.21015 91.8786 9.65014 92.1451 10.1419C92.4382 10.6595 92.598 11.2807 92.598 12.0054C92.598 13.0148 92.305 13.843 91.7188 14.4642C91.1326 15.1112 90.3333 15.5253 89.3208 15.7583L93.1309 21.9182H90.0668L86.7629 16.0171H84.8978V21.9182H82.34V8.01959ZM109.224 11.2807C108.851 10.789 108.345 10.4007 107.759 10.1937C107.199 9.96073 106.586 9.8572 105.973 9.8572C105.281 9.8572 104.588 9.98661 103.949 10.2454C103.362 10.5042 102.829 10.8666 102.377 11.3325C101.924 11.7983 101.577 12.3419 101.364 12.9371C101.124 13.5842 100.991 14.2571 101.018 14.93C101.018 15.6806 101.124 16.3794 101.364 17.0006C101.604 17.6218 101.924 18.1653 102.35 18.6312C102.776 19.0712 103.282 19.4335 103.869 19.6923C104.455 19.9511 105.121 20.0547 105.867 20.0547C106.64 20.0547 107.306 19.8994 107.919 19.6147C108.478 19.33 108.984 18.9417 109.357 18.45L111.409 19.8476C110.796 20.6241 109.997 21.2194 109.091 21.6335C108.185 22.0476 107.093 22.2805 105.867 22.2805C104.748 22.2805 103.709 22.0993 102.776 21.737C101.87 21.4005 101.044 20.8829 100.352 20.2358C99.6588 19.5629 99.1259 18.7864 98.7795 17.9065C98.4065 17.0006 98.22 16.0171 98.22 14.93C98.22 13.8171 98.4065 12.8077 98.8062 11.9019C99.2058 10.996 99.7387 10.2454 100.431 9.62426C101.151 8.97721 101.977 8.48546 102.883 8.17488C104.322 7.65724 105.894 7.52783 107.386 7.78665C107.892 7.8643 108.371 7.99371 108.824 8.17488C109.277 8.35605 109.704 8.56311 110.13 8.82193C110.53 9.08075 110.876 9.39132 111.169 9.75367C111.169 9.80543 109.224 11.2807 109.224 11.2807ZM128.195 16.8194C128.195 17.6477 128.035 18.4241 127.742 19.097C127.475 19.7441 127.049 20.3394 126.516 20.8052C125.983 21.2711 125.371 21.6593 124.704 21.8923C123.985 22.1511 123.186 22.2805 122.413 22.2805C121.64 22.2805 120.868 22.1511 120.122 21.8923C119.456 21.6593 118.816 21.2711 118.283 20.8052C117.75 20.3135 117.351 19.7441 117.058 19.097C116.764 18.4241 116.631 17.6735 116.631 16.8194V8.01959H119.189V16.7159C119.189 17.13 119.242 17.5182 119.349 17.9323C119.456 18.3206 119.642 18.6829 119.882 18.9935C120.122 19.3041 120.468 19.5629 120.868 19.77C121.267 19.977 121.8 20.0547 122.386 20.0547C122.999 20.0547 123.505 19.9511 123.905 19.77C124.305 19.5888 124.625 19.33 124.891 18.9935C125.131 18.6829 125.317 18.3206 125.424 17.9323C125.53 17.5441 125.584 17.13 125.584 16.7159V8.01959H128.142C128.195 8.01959 128.195 16.8194 128.195 16.8194ZM139.679 14.0242C140.052 14.0242 140.398 13.9983 140.771 13.9465C141.144 13.8948 141.464 13.7912 141.757 13.6618C142.05 13.5065 142.29 13.2995 142.476 13.0407C142.663 12.7819 142.769 12.4195 142.769 12.0054C142.769 11.6172 142.689 11.3066 142.503 11.0736C142.343 10.8407 142.103 10.6337 141.837 10.5042C141.544 10.349 141.251 10.2454 140.904 10.2195C140.584 10.1678 140.238 10.1419 139.892 10.1419H137.574V14.0501C137.6 14.0242 139.679 14.0242 139.679 14.0242ZM135.042 8.01959H140.025C140.691 8.01959 141.357 8.09723 141.997 8.22664C142.609 8.35605 143.169 8.58899 143.675 8.89957C144.155 9.21015 144.554 9.62426 144.848 10.1419C145.141 10.6595 145.301 11.2807 145.301 12.0054C145.301 13.0148 145.007 13.843 144.421 14.4642C143.835 15.1112 143.036 15.5253 142.023 15.7583L145.833 21.9182H142.769L139.465 16.0171H137.6V21.9182H135.042C135.042 21.944 135.042 8.01959 135.042 8.01959ZM154.919 15.9136L149.537 8.04547H152.654L156.251 13.8948L159.902 8.04547H162.859L157.477 15.9136V21.944H154.919V15.9136Z" fill="#1F1F30"/>
</svg>
