<svg width="124" height="37" viewBox="0 0 124 37" fill="none" xmlns="http://www.w3.org/2000/svg">
<g clip-path="url(#clip0_2412_10722)">
<path d="M26.6295 7.8879C26.6098 7.71135 26.4524 7.63288 26.3342 7.63288C26.2161 7.63288 23.6372 7.43672 23.6372 7.43672C23.6372 7.43672 21.8457 5.65162 21.6292 5.47508C21.4323 5.27891 21.0583 5.33776 20.9008 5.37699C20.8811 5.37699 20.507 5.49469 19.8968 5.69086C19.2865 3.945 18.2431 2.35607 16.3729 2.35607H16.1957C15.6839 1.68911 15.0145 1.37524 14.4633 1.37524C10.1323 1.37524 8.04553 6.76976 7.39587 9.51606C5.70284 10.0457 4.50197 10.3988 4.36416 10.4576C3.41921 10.7519 3.39952 10.7715 3.28141 11.6543C3.18297 12.3212 0.722168 31.2903 0.722168 31.2903L19.8771 34.8605L30.2715 32.6242C30.2912 32.585 26.6492 8.06444 26.6295 7.8879ZM18.8337 5.96549C18.3612 6.1028 17.7903 6.27935 17.2194 6.47551V6.12242C17.2194 5.06313 17.0816 4.20001 16.8257 3.51343C17.81 3.63113 18.4203 4.71004 18.8337 5.96549ZM15.6248 3.72921C15.8807 4.39617 16.0579 5.33776 16.0579 6.63245V6.82861C14.9948 7.16209 13.8727 7.49557 12.7112 7.86828C13.3609 5.39661 14.6011 4.18039 15.6248 3.72921ZM14.3649 2.513C14.5617 2.513 14.7586 2.59146 14.9161 2.70916C13.5184 3.3565 12.0419 4.98467 11.4316 8.28023C10.5063 8.57447 9.62044 8.82949 8.77392 9.10412C9.48264 6.59321 11.2544 2.513 14.3649 2.513Z" fill="#95BF47"/>
<path d="M26.3346 7.59313C26.2165 7.59313 23.6376 7.39697 23.6376 7.39697C23.6376 7.39697 21.8461 5.61187 21.6296 5.43533C21.5508 5.35686 21.4524 5.31763 21.3736 5.31763L19.9365 34.86L30.3309 32.6237C30.3309 32.6237 26.689 8.06393 26.6693 7.88738C26.5905 7.71083 26.4527 7.63237 26.3346 7.59313Z" fill="#5E8E3E"/>
<path d="M16.3745 13.3215L15.1146 17.1075C15.1146 17.1075 13.9728 16.4994 12.6144 16.4994C10.5867 16.4994 10.4882 17.7745 10.4882 18.0883C10.4882 19.8146 15.0161 20.4816 15.0161 24.5422C15.0161 27.7397 12.9884 29.7994 10.252 29.7994C6.94468 29.7994 5.29102 27.7593 5.29102 27.7593L6.17691 24.856C6.17691 24.856 7.90932 26.3469 9.36612 26.3469C10.3308 26.3469 10.7245 25.6015 10.7245 25.0522C10.7245 22.7963 7.02343 22.6982 7.02343 18.9711C7.02343 15.8521 9.26768 12.8311 13.8153 12.8311C15.5083 12.8115 16.3745 13.3215 16.3745 13.3215Z" fill="white"/>
<path d="M42.399 20.4418C41.3556 19.8925 40.8241 19.4021 40.8241 18.7548C40.8241 17.9309 41.5722 17.4012 42.7337 17.4012C44.0921 17.4012 45.2929 17.9505 45.2929 17.9505L46.2379 15.0669C46.2379 15.0669 45.3717 14.3999 42.8124 14.3999C39.2492 14.3999 36.7687 16.44 36.7687 19.304C36.7687 20.9322 37.9302 22.168 39.4657 23.0508C40.7257 23.7373 41.1588 24.2474 41.1588 24.9928C41.1588 25.7578 40.5288 26.3855 39.3673 26.3855C37.6546 26.3855 36.0206 25.5028 36.0206 25.5028L35.0166 28.3864C35.0166 28.3864 36.5128 29.3869 39.0326 29.3869C42.6943 29.3869 45.352 27.5821 45.352 24.3454C45.3126 22.58 43.9936 21.3637 42.399 20.4418ZM57.0064 14.3607C55.1952 14.3607 53.7778 15.2238 52.6951 16.5185L52.6557 16.4989L54.2306 8.33844H50.1555L46.1788 29.1318H50.2539L51.6123 22.0307C52.1438 19.3433 53.5416 17.6759 54.8409 17.6759C55.7661 17.6759 56.1205 18.3036 56.1205 19.1863C56.1205 19.7356 56.0811 20.4418 55.9433 20.991L54.4078 29.1318H58.4829L60.0775 20.736C60.2547 19.8533 60.3728 18.794 60.3728 18.0682C60.3531 15.7338 59.1522 14.3607 57.0064 14.3607ZM69.586 14.3607C64.6644 14.3607 61.4162 18.7744 61.4162 23.6981C61.4162 26.8367 63.3651 29.3869 67.0268 29.3869C71.85 29.3869 75.0983 25.0909 75.0983 20.0494C75.1179 17.1266 73.4249 14.3607 69.586 14.3607ZM67.578 26.2875C66.1803 26.2875 65.6094 25.1105 65.6094 23.6196C65.6094 21.2853 66.8103 17.4993 69.0348 17.4993C70.4719 17.4993 70.9641 18.7548 70.9641 19.9514C70.9641 22.4426 69.7239 26.2875 67.578 26.2875ZM85.5518 14.3607C82.7957 14.3607 81.2404 16.7931 81.2404 16.7931H81.2011L81.4373 14.6157H77.815C77.6378 16.0869 77.3031 18.3428 76.9882 20.0102L74.173 34.8991H78.2481L79.3899 28.8768H79.4883C79.4883 28.8768 80.3349 29.4065 81.8704 29.4065C86.6739 29.4065 89.8041 24.5024 89.8041 19.559C89.7844 16.8127 88.5441 14.3607 85.5518 14.3607ZM81.6539 26.3267C80.5908 26.3267 79.9608 25.7186 79.9608 25.7186L80.6302 21.9326C81.1026 19.3825 82.4413 17.7151 83.8587 17.7151C85.1187 17.7151 85.4927 18.8725 85.4927 19.9514C85.5124 22.58 83.9375 26.3267 81.6539 26.3267ZM95.6116 8.5346C94.3123 8.5346 93.2689 9.57427 93.2689 10.8886C93.2689 12.0852 94.0367 12.9287 95.1982 12.9287H95.2375C96.5172 12.9287 97.5999 12.0656 97.6196 10.5747C97.6393 9.37811 96.8321 8.5346 95.6116 8.5346ZM89.9025 29.1122H93.9776L96.7337 14.6745H92.6389L89.9025 29.1122ZM107.128 14.6549H104.293L104.431 13.988C104.667 12.5952 105.494 11.379 106.872 11.379C107.601 11.379 108.172 11.5948 108.172 11.5948L108.959 8.39728C108.959 8.39728 108.27 8.04419 106.734 8.04419C105.297 8.04419 103.841 8.45613 102.738 9.39772C101.34 10.5747 100.691 12.2813 100.376 14.0076L100.258 14.6745H98.348L97.7377 17.7543H99.6473L97.4818 29.1318H101.557L103.722 17.7543H106.538L107.128 14.6549ZM116.952 14.6745C116.952 14.6745 114.392 21.0891 113.27 24.6005H113.231C113.152 23.4627 112.227 14.6745 112.227 14.6745H107.935L110.396 27.896C110.435 28.1903 110.416 28.3668 110.298 28.563C109.825 29.4849 109.018 30.3677 108.073 31.015C107.305 31.5643 106.439 31.937 105.75 32.1724L106.892 35.6249C107.719 35.4483 109.451 34.7618 110.888 33.4082C112.739 31.682 114.471 28.9945 116.243 25.3459L121.224 14.6549H116.952V14.6745Z" fill="black"/>
</g>
<defs>
<clipPath id="clip0_2412_10722">
<rect width="123" height="37" fill="white" transform="translate(0.5)"/>
</clipPath>
</defs>
</svg>
