<svg width="40" height="40" viewBox="0 0 40 40" fill="none" xmlns="http://www.w3.org/2000/svg">
<rect width="40" height="40" rx="20" fill="#2C71F0"/>
<path d="M16.1678 20C16.1678 17.883 17.8835 16.1664 20.0005 16.1664C22.1175 16.1664 23.8341 17.883 23.8341 20C23.8341 22.117 22.1175 23.8336 20.0005 23.8336C17.8835 23.8336 16.1678 22.117 16.1678 20ZM14.0954 20C14.0954 23.2614 16.7391 25.9051 20.0005 25.9051C23.2619 25.9051 25.9056 23.2614 25.9056 20C25.9056 16.7386 23.2619 14.0949 20.0005 14.0949C16.7391 14.0949 14.0954 16.7386 14.0954 20ZM24.7593 13.8608C24.7593 14.6225 25.3771 15.2412 26.1397 15.2412C26.9014 15.2412 27.5201 14.6225 27.5201 13.8608C27.5201 13.0991 26.9023 12.4813 26.1397 12.4813C25.3771 12.4813 24.7593 13.0991 24.7593 13.8608ZM15.354 29.3607C14.2328 29.3096 13.6235 29.1229 13.2185 28.965C12.6815 28.756 12.2988 28.507 11.8957 28.1048C11.4935 27.7026 11.2436 27.3199 11.0355 26.783C10.8776 26.378 10.6909 25.7686 10.6398 24.6474C10.5841 23.4351 10.5729 23.071 10.5729 20C10.5729 16.929 10.585 16.5658 10.6398 15.3526C10.6909 14.2314 10.8785 13.623 11.0355 13.217C11.2445 12.6801 11.4935 12.2974 11.8957 11.8943C12.2979 11.492 12.6806 11.2422 13.2185 11.0341C13.6235 10.8762 14.2328 10.6895 15.354 10.6384C16.5663 10.5826 16.9304 10.5715 20.0005 10.5715C23.0715 10.5715 23.4347 10.5836 24.6479 10.6384C25.7691 10.6895 26.3775 10.8771 26.7834 11.0341C27.3204 11.2422 27.7031 11.492 28.1062 11.8943C28.5084 12.2965 28.7574 12.6801 28.9664 13.217C29.1243 13.6221 29.311 14.2314 29.3621 15.3526C29.4179 16.5658 29.429 16.929 29.429 20C29.429 23.0701 29.4179 23.4342 29.3621 24.6474C29.311 25.7686 29.1234 26.378 28.9664 26.783C28.7574 27.3199 28.5084 27.7026 28.1062 28.1048C27.704 28.507 27.3204 28.756 26.7834 28.965C26.3784 29.1229 25.7691 29.3096 24.6479 29.3607C23.4356 29.4164 23.0715 29.4276 20.0005 29.4276C16.9304 29.4276 16.5663 29.4164 15.354 29.3607ZM15.2593 8.56967C14.035 8.6254 13.199 8.81955 12.4679 9.1038C11.7118 9.39733 11.0708 9.7912 10.4308 10.4303C9.79168 11.0694 9.39782 11.7103 9.10428 12.4674C8.82004 13.1985 8.62589 14.0345 8.57016 15.2588C8.51349 16.485 8.50049 16.877 8.50049 20C8.50049 23.123 8.51349 23.515 8.57016 24.7412C8.62589 25.9655 8.82004 26.8015 9.10428 27.5326C9.39782 28.2887 9.79076 28.9306 10.4308 29.5697C11.0699 30.2088 11.7108 30.6017 12.4679 30.8962C13.1999 31.1805 14.035 31.3746 15.2593 31.4303C16.4864 31.4861 16.8775 31.5 20.0005 31.5C23.1244 31.5 23.5155 31.487 24.7417 31.4303C25.966 31.3746 26.802 31.1805 27.5331 30.8962C28.2892 30.6017 28.9302 30.2088 29.5702 29.5697C30.2093 28.9306 30.6022 28.2887 30.8967 27.5326C31.1809 26.8015 31.376 25.9655 31.4308 24.7412C31.4866 23.5141 31.4996 23.123 31.4996 20C31.4996 16.877 31.4866 16.485 31.4308 15.2588C31.3751 14.0345 31.1809 13.1985 30.8967 12.4674C30.6022 11.7113 30.2093 11.0703 29.5702 10.4303C28.9311 9.7912 28.2892 9.39733 27.534 9.1038C26.802 8.81955 25.966 8.62447 24.7426 8.56967C23.5164 8.51393 23.1244 8.5 20.0014 8.5C16.8775 8.5 16.4864 8.513 15.2593 8.56967Z" fill="white"/>
</svg>
