<svg width="40" height="40" viewBox="0 0 40 40" fill="none" xmlns="http://www.w3.org/2000/svg">
<rect width="40" height="40" rx="20" fill="#2C71F0"/>
<path d="M24.0001 16.5C25.5914 16.5 27.1175 17.1321 28.2427 18.2574C29.368 19.3826 30.0001 20.9087 30.0001 22.5V29.5001H26.0001V22.5C26.0001 21.9696 25.7894 21.4609 25.4143 21.0858C25.0392 20.7107 24.5305 20.5 24.0001 20.5C23.4696 20.5 22.9609 20.7107 22.5858 21.0858C22.2107 21.4609 22 21.9696 22 22.5V29.5001H18V22.5C18 20.9087 18.6321 19.3826 19.7574 18.2574C20.8826 17.1321 22.4087 16.5 24.0001 16.5Z" fill="white"/>
<path d="M14 17.5H10V29.5001H14V17.5Z" fill="white"/>
<path d="M12 14.4995C13.1046 14.4995 14 13.6041 14 12.4995C14 11.3949 13.1046 10.4995 12 10.4995C10.8954 10.4995 10 11.3949 10 12.4995C10 13.6041 10.8954 14.4995 12 14.4995Z" fill="white"/>
</svg>
