<svg width="40" height="40" viewBox="0 0 40 40" fill="none" xmlns="http://www.w3.org/2000/svg">
<rect width="40" height="40" rx="20" fill="#2C71F0"/>
<path d="M30.4899 11.4539C29.5767 12.0981 28.5656 12.5907 27.4955 12.913C26.9212 12.2526 26.1579 11.7845 25.3089 11.5721C24.4599 11.3597 23.5661 11.4131 22.7485 11.7252C21.9308 12.0373 21.2287 12.5929 20.7372 13.317C20.2456 14.0411 19.9883 14.8987 20.0001 15.7738V16.7274C18.3242 16.7709 16.6636 16.3992 15.1662 15.6455C13.6687 14.8918 12.3809 13.7795 11.4175 12.4075C11.4175 12.4075 7.60302 20.9901 16.1856 24.8046C14.2216 26.1377 11.8821 26.8062 9.51025 26.7118C18.0928 31.4799 28.5826 26.7118 28.5826 15.7452C28.5818 15.4796 28.5562 15.2146 28.5063 14.9537C29.4796 13.9939 30.1664 12.782 30.4899 11.4539Z" fill="white"/>
</svg>
