<svg width="160" height="40" viewBox="0 0 160 40" fill="none" xmlns="http://www.w3.org/2000/svg">
<path d="M31.7 12.5H33C35.3 12.5 36.4 13.6 36.4 15.8V27.4C36.4 29.6 35.3 30.7 33 30.7H31.7C30.5 30.7 29.7 30.2 29.4 29.2V35.8H26V12.5H29.4V14C29.7 13 30.5 12.5 31.7 12.5ZM33 26.9V16.3C33 15.8 32.9 15.6 32.8 15.4C32.7 15.3 32.3 15.2 31.9 15.2H30.6C30.1 15.2 29.8 15.3 29.6 15.5C29.4 15.7 29.3 16 29.3 16.5V26.6C29.3 27.1 29.4 27.4 29.6 27.6C29.8 27.8 30.1 27.9 30.6 27.9H31.9C32.4 27.9 32.6 27.8 32.8 27.7C33 27.7 33 27.4 33 26.9Z" fill="#0072EC"/>
<path d="M44.3 12.5H45V15.4H43.6C42 15.4 41.2 16.3 41.2 18.2V30.8H38V12.5H41.4V14.7C41.6 14.1 42 13.5 42.5 13.1C42.9 12.7 43.6 12.5 44.3 12.5Z" fill="#0072EC"/>
<path d="M49.8008 12.5H53.8008C56.1008 12.5 57.3008 13.6 57.3008 15.8V27.4C57.3008 29.6 56.1008 30.7 53.8008 30.7H49.8008C47.5008 30.7 46.3008 29.6 46.3008 27.4V15.8C46.3008 13.6 47.5008 12.5 49.8008 12.5ZM53.9008 27V16.3C53.9008 15.8 53.8008 15.6 53.7008 15.4C53.6008 15.3 53.2008 15.2 52.8008 15.2H50.7008C50.2008 15.2 50.0008 15.3 49.8008 15.4C49.7008 15.5 49.6008 15.9 49.6008 16.3V27C49.6008 27.5 49.7008 27.7 49.8008 27.9C49.9008 28 50.2008 28.1 50.7008 28.1H52.8008C53.3008 28.1 53.5008 28 53.7008 27.9C53.9008 27.7 53.9008 27.4 53.9008 27Z" fill="#0072EC"/>
<path d="M58.9992 32.0992V12.4992H62.3992V32.5992C62.3992 34.7992 61.1992 35.8992 58.8992 35.8992H57.1992V33.2992H57.8992C58.3992 33.2992 58.5992 33.1992 58.7992 33.0992C58.8992 32.8992 58.9992 32.5992 58.9992 32.0992ZM58.8992 8.99922V5.69922H62.3992V8.99922H58.8992Z" fill="#0072EC"/>
<path d="M67.6 12.5H71.3C73.6 12.5 74.8 13.6 74.8 15.8V22.6H67.4V27C67.4 27.4 67.5 27.7 67.6 27.9C67.7 28 68.1 28.1 68.5 28.1H70.2C70.7 28.1 70.9 28 71.1 27.9C71.2 27.8 71.3 27.4 71.3 27V25.5H74.6V27.5C74.6 29.7 73.4 30.8 71.1 30.8H67.5C65.2 30.8 64 29.7 64 27.5V15.8C64.1 13.6 65.3 12.5 67.6 12.5ZM67.4 20.2H71.4V16.2C71.4 15.8 71.3 15.5 71.2 15.3C71.1 15.2 70.8 15.1 70.3 15.1H68.5C68 15.1 67.8 15.2 67.6 15.3C67.5 15.4 67.4 15.7 67.4 16.2V20.2Z" fill="#0072EC"/>
<path d="M87.1 18.3H83.8V16.4C83.8 15.9 83.7 15.7 83.6 15.5C83.5 15.4 83.1 15.3 82.7 15.3H81C80.5 15.3 80.3 15.4 80.1 15.5C80 15.6 79.9 15.9 79.9 16.4V27C79.9 27.5 80 27.7 80.1 27.9C80.2 28 80.6 28.1 81 28.1H82.6C83.1 28.1 83.3 28 83.5 27.9C83.6 27.8 83.7 27.5 83.7 27V25H87V27.5C87 29.7 85.8 30.8 83.5 30.8H80C77.7 30.8 76.5 29.7 76.5 27.5V15.8C76.5 13.6 77.7 12.5 80 12.5H83.6C85.9 12.5 87.1 13.6 87.1 15.8V18.3Z" fill="#0072EC"/>
<path d="M96.1 15.1984H93.6V26.6984C93.6 27.1984 93.7 27.3984 93.8 27.5984C93.9 27.6984 94.2 27.7984 94.7 27.7984H96.1V30.6984H93.7C91.4 30.6984 90.2 29.5984 90.2 27.3984V15.1984H88.5V12.4984H90.2V9.39844H93.6V12.4984H96.1V15.1984Z" fill="#0072EC"/>
<path d="M128.602 7.4C125.102 3.9 120.502 2 115.502 2C110.602 2 106.002 3.9 102.502 7.4C95.3016 14.6 95.3016 26.2 102.502 33.4C109.602 40.5 121.202 40.6 128.402 33.6C128.402 33.6 128.502 33.5 128.602 33.4C132.102 29.9 134.002 25.3 134.002 20.4C134.002 15.5 132.102 10.9 128.602 7.4ZM114.802 25.5H112.602V30.7H109.302V25.5H101.102V22.3L106.102 9.4H109.502L104.402 22.4H109.302V17.3H112.602V22.4H114.802V25.5ZM127.502 25.5V30.7H124.102V25.5H116.002V22.3L121.002 9.4H124.402L119.302 22.4H124.202V17.3H127.602V22.4H129.802V25.5H127.502Z" fill="#0072EC"/>
</svg>
