<svg width="54" height="48" viewBox="0 0 54 48" fill="none" xmlns="http://www.w3.org/2000/svg">
<path d="M45.9188 28.2791L41.4591 32.441L38.3834 35.3697C37.9221 35.8321 37.4607 36.2946 36.8456 36.6028C34.8464 37.9901 32.6934 38.7608 30.5404 39.0691C30.0791 39.0691 29.4639 39.2233 29.0026 39.2233C28.5412 39.2233 27.9261 39.2233 27.4647 39.0691C24.2353 38.7608 21.1596 37.2194 18.8528 34.7531C13.6241 29.204 13.9317 20.2637 19.6217 15.0229L27.4647 7.62401L27.6185 7.77815L29.6177 5.77429L36.0766 12.2483L34.2312 14.098L35.3077 15.177C37.1531 16.8726 38.3834 19.0306 39.1523 21.3427L45.9188 28.2791Z" fill="#FFC664" stroke="#01090F" stroke-width="0.5" stroke-miterlimit="10" stroke-linecap="round" stroke-linejoin="round"/>
<path d="M47.1486 33.9832C45.9184 35.2163 43.9192 35.2163 42.8427 33.9832L41.4586 32.5959L38.6905 29.8213L41.3048 32.4417L42.8427 33.9832C43.4578 34.5997 43.7654 35.3704 43.7654 36.1412C43.7654 36.9119 43.4578 37.6826 42.8427 38.2992C41.6124 39.5323 39.6132 39.5323 38.5367 38.2992L36.6913 36.4494L35.3072 35.0622L38.3829 38.145C39.6132 39.3782 39.4594 41.382 38.2291 42.461C36.9989 43.6942 34.3845 43.6942 33.1543 42.461L29.4634 39.5323L28.8483 38.9157C27.9256 39.224 27.1567 39.3782 26.234 39.5323C22.3894 39.9947 19.0061 37.9909 15.9304 35.0622L5.01175 24.8887C2.08984 22.1142 0.552002 18.4147 0.552002 14.7153C0.552002 11.3242 1.78228 7.93304 4.24282 5.15847C9.47149 -0.390664 18.391 -0.69895 23.9272 4.38776L27.0029 7.16233L27.1567 7.31647L33.7694 13.4822L34.8459 14.5612C35.9224 15.486 36.8451 16.7192 37.4602 17.7982C38.8443 20.2645 40.6897 22.5766 42.6889 24.7346L45.7646 27.8175L46.9949 29.0506C48.3789 30.7462 48.3789 32.75 47.1486 33.9832Z" fill="#FFC664" stroke="#01090F" stroke-width="0.5" stroke-miterlimit="10" stroke-linecap="round" stroke-linejoin="round"/>
<path d="M49.7632 5.62016C46.9951 2.69145 43.3043 1.15002 39.6135 1.15002C36.2302 1.15002 32.847 2.38317 30.0789 4.84945L27.157 7.77816L20.0829 14.8687C19.0064 15.9477 19.0064 17.9516 20.0829 19.0306C21.3132 20.2637 22.851 20.8803 24.3888 20.8803C25.9267 20.8803 27.6183 20.2637 28.6948 19.0306L33.7697 13.9439L34.8462 15.0229C35.9227 16.1019 36.8454 17.1809 37.6143 18.414C38.6908 20.4179 40.0748 22.4217 41.7665 23.9632L45.9186 28.125L49.1481 25.1963C54.6843 20.1096 54.9919 11.1693 49.7632 5.62016Z" fill="#FFA9C6" stroke="#01090F" stroke-width="0.5" stroke-miterlimit="10" stroke-linecap="round" stroke-linejoin="round"/>
<path d="M17.6228 28.7428L14.7009 31.8256C13.4707 33.2129 11.4715 33.2129 10.0874 31.9798C8.70335 30.7466 8.70335 28.7428 9.93363 27.3555L12.8555 24.2726C14.0858 22.8853 16.085 22.8853 17.4691 24.1185C18.6993 25.3516 18.8531 27.3555 17.6228 28.7428Z" fill="#FFA9C6" stroke="#01090F" stroke-width="0.5" stroke-miterlimit="10" stroke-linecap="round" stroke-linejoin="round"/>
<path d="M22.3898 33.5216L19.4679 36.6044C18.2376 37.9917 16.2384 37.9917 14.8544 36.7586C13.4703 35.5254 13.4703 33.5216 14.7006 32.1343L17.6225 29.0514C18.8528 27.6641 20.852 27.6641 22.236 28.8973C23.4663 30.1304 23.6201 32.1343 22.3898 33.5216Z" fill="#FFA9C6" stroke="#01090F" stroke-width="0.5" stroke-miterlimit="10" stroke-linecap="round" stroke-linejoin="round"/>
<path d="M27.1568 38.2983L24.2349 41.3812C23.0046 42.7684 21.0054 42.7684 19.6213 41.5353C18.2373 40.3022 18.2373 38.2983 19.4676 36.911L22.3895 33.8282C23.6197 32.4409 25.6189 32.4409 27.003 33.674C28.2333 34.9072 28.3871 36.911 27.1568 38.2983Z" fill="#FFA9C6" stroke="#01090F" stroke-width="0.5" stroke-miterlimit="10" stroke-linecap="round" stroke-linejoin="round"/>
<path d="M31.9238 43.0771L29.0018 46.16C27.7716 47.5472 25.7724 47.5473 24.3883 46.3141C23.0043 45.081 23.0043 43.0771 24.2345 41.6898L27.1564 38.607C28.3867 37.2197 30.3859 37.2197 31.77 38.4528C33.0002 39.686 33.154 41.6898 31.9238 43.0771Z" fill="#FFA9C6" stroke="#01090F" stroke-width="0.5" stroke-miterlimit="10" stroke-linecap="round" stroke-linejoin="round"/>
<path d="M35.1536 35.216L29.9249 29.9751" stroke="#01090F" stroke-width="0.5" stroke-miterlimit="10" stroke-linecap="round" stroke-linejoin="round"/>
<path d="M39.4595 30.7469L34.3846 25.6602" stroke="#01090F" stroke-width="0.5" stroke-miterlimit="10" stroke-linecap="round" stroke-linejoin="round"/>
<path d="M42.2284 12.2496C42.2284 12.2496 39.6141 17.0281 33.7703 13.9452L42.2284 12.2496Z" fill="#FFA9C6"/>
<path d="M42.2284 12.2496C42.2284 12.2496 39.6141 17.0281 33.7703 13.9452" stroke="#01090F" stroke-width="0.5" stroke-miterlimit="10" stroke-linecap="round" stroke-linejoin="round"/>
</svg>
