<svg width="79" height="57" viewBox="0 0 79 57" fill="none" xmlns="http://www.w3.org/2000/svg">
<g filter="url(#filter0_d_2020_17746)">
<path d="M57.4923 37.5688H19.4985C9.81859 37.5688 1.83264 29.7039 1.83264 19.9029C1.83264 10.223 9.69759 2.23706 19.4985 2.23706H57.4923C67.1722 2.23706 75.1582 10.102 75.1582 19.9029C75.1582 29.7039 67.2932 37.5688 57.4923 37.5688Z" fill="#A041FF" stroke="#01090F" stroke-width="0.5" stroke-miterlimit="10" stroke-linecap="round" stroke-linejoin="round"/>
<path d="M54.1118 35.0777H20.1005C11.4352 35.0777 4.28638 28.3029 4.28638 19.8604C4.28638 11.5221 11.3269 4.64307 20.1005 4.64307H54.1118C62.7771 4.64307 69.926 11.4179 69.926 19.8604C69.926 28.3029 62.8855 35.0777 54.1118 35.0777Z" fill="#BD80FF" stroke="#01090F" stroke-width="0.5" stroke-miterlimit="10" stroke-linecap="round" stroke-linejoin="round"/>
<path d="M22.0445 27.3532H22.2945V27.1032V21.9083H24.5854C26.102 21.9083 27.2423 21.3998 28.2444 20.6483L28.2586 20.6376L28.2712 20.6251C29.1645 19.7317 29.6754 18.5794 29.6754 17.1813C29.6754 15.7833 29.1645 14.6309 28.2712 13.7376C27.3643 12.8306 26.2037 12.4543 24.7064 12.4543H19.2615H19.0115V12.7043V27.1032V27.3532H19.2615H22.0445ZM24.2224 18.9883H22.2945V15.2533H24.2224C24.8883 15.2533 25.419 15.4727 25.7274 15.773C26.0674 16.2296 26.2714 16.6577 26.2714 17.1813C26.2714 17.7062 26.0663 18.1244 25.752 18.4441C25.3017 18.7795 24.8714 18.9883 24.2224 18.9883Z" fill="#FFC664" stroke="#01090F" stroke-width="0.5"/>
<path d="M41.0487 27.1901L41.1092 27.3532H41.2832H44.4292H44.791L44.663 27.0148L39.218 12.6159L39.1569 12.4543H38.9842H35.7172H35.5458L35.484 12.6142L29.9181 27.0131L29.7866 27.3532H30.1512H33.0552H33.2292L33.2897 27.1901L34.4392 24.0863H39.8992L41.0487 27.1901ZM38.8645 20.9243H35.5874L37.1763 16.4556L38.8645 20.9243Z" fill="#FFC664" stroke="#01090F" stroke-width="0.5"/>
<path d="M44.7916 12.4543H44.3468L44.5781 12.8343L49.6236 21.1234V27.1032V27.3532H49.8736H52.6566H52.9066V27.1032V21.1234L57.9521 12.8343L58.1834 12.4543H57.7386H54.5926H54.4479L54.3758 12.5798L51.3256 17.8894L48.2754 12.5798L48.2033 12.4543H48.0586H44.7916Z" fill="#FFC664" stroke="#01090F" stroke-width="0.5"/>
<path d="M46.7318 20.6476L51.6928 53.6804L58.4687 39.7655L75.1667 39.8865L46.7318 20.6476Z" fill="#FFC664" stroke="#01090F" stroke-width="0.5" stroke-miterlimit="10" stroke-linecap="round" stroke-linejoin="round"/>
</g>
<defs>
<filter id="filter0_d_2020_17746" x="0.582642" y="0.987061" width="77.834" height="55.9434" filterUnits="userSpaceOnUse" color-interpolation-filters="sRGB">
<feFlood flood-opacity="0" result="BackgroundImageFix"/>
<feColorMatrix in="SourceAlpha" type="matrix" values="0 0 0 0 0 0 0 0 0 0 0 0 0 0 0 0 0 0 127 0" result="hardAlpha"/>
<feOffset dx="1" dy="1"/>
<feGaussianBlur stdDeviation="1"/>
<feComposite in2="hardAlpha" operator="out"/>
<feColorMatrix type="matrix" values="0 0 0 0 0 0 0 0 0 0 0 0 0 0 0 0 0 0 0.15 0"/>
<feBlend mode="normal" in2="BackgroundImageFix" result="effect1_dropShadow_2020_17746"/>
<feBlend mode="normal" in="SourceGraphic" in2="effect1_dropShadow_2020_17746" result="shape"/>
</filter>
</defs>
</svg>
