<svg width="64" height="64" viewBox="0 0 64 64" fill="none" xmlns="http://www.w3.org/2000/svg">
<rect width="64" height="64" rx="32" fill="#BD80FF"/>
<g filter="url(#filter0_d_1860_20394)">
<path d="M30.7052 57.1333C10.8521 46.7333 10.5644 26.5111 11.1398 20.1555C11.1398 19 12.003 18.1333 13.1539 17.8444C21.7857 16.4 27.5403 10.6222 30.4175 7.73331C31.2807 6.86665 32.7193 6.86665 33.5825 7.73331C36.172 10.9111 42.2143 16.6889 50.8461 17.8444C51.997 18.1333 52.8601 19 52.8601 20.1555C53.4356 26.5111 53.1479 46.4444 33.2948 57.1333C32.4316 57.7111 31.5684 57.7111 30.7052 57.1333Z" fill="#7304E2" stroke="#01090F" stroke-width="0.5" stroke-miterlimit="10" stroke-linecap="round" stroke-linejoin="round"/>
<path fill-rule="evenodd" clip-rule="evenodd" d="M31.9375 7.08417C31.3831 7.09929 30.8335 7.31567 30.4175 7.73332C27.5403 10.6222 21.7857 16.4 13.1539 17.8444C12.003 18.1333 11.1398 19 11.1398 20.1555C10.5644 26.5111 10.8521 46.7333 30.7052 57.1333C31.116 57.4083 31.5267 57.5524 31.9375 57.5656V7.08417Z" fill="#A041FF"/>
<path d="M30.4175 7.73332L30.5947 7.90974L30.4175 7.73332ZM31.9375 7.08417H32.1875C32.1875 7.01668 32.1602 6.95206 32.1119 6.905C32.0635 6.85793 31.9981 6.83242 31.9307 6.83426L31.9375 7.08417ZM13.1539 17.8444L13.1127 17.5979C13.1061 17.599 13.0996 17.6003 13.0931 17.6019L13.1539 17.8444ZM11.1398 20.1555L11.3888 20.1781C11.3895 20.1706 11.3898 20.1631 11.3898 20.1555H11.1398ZM30.7052 57.1333L30.8443 56.9256C30.8369 56.9206 30.8292 56.916 30.8212 56.9119L30.7052 57.1333ZM31.9375 57.5656L31.9294 57.8155C31.9971 57.8177 32.0628 57.7923 32.1114 57.7452C32.16 57.6982 32.1875 57.6333 32.1875 57.5656H31.9375ZM30.5947 7.90974C30.9626 7.54034 31.4499 7.34756 31.9443 7.33407L31.9307 6.83426C31.3162 6.85102 30.7044 7.09101 30.2404 7.5569L30.5947 7.90974ZM13.1952 18.091C21.9137 16.632 27.7182 10.7978 30.5947 7.90974L30.2404 7.5569C27.3623 10.4466 21.6578 16.1679 13.1127 17.5979L13.1952 18.091ZM11.3898 20.1555C11.3898 19.1441 12.1436 18.3558 13.2148 18.0869L13.0931 17.6019C11.8625 17.9108 10.8898 18.8558 10.8898 20.1555H11.3898ZM30.8212 56.9119C11.1088 46.5856 10.8158 26.5065 11.3888 20.1781L10.8909 20.133C10.313 26.5156 10.5954 46.8811 30.5892 57.3548L30.8212 56.9119ZM31.9456 57.3158C31.5903 57.3043 31.2241 57.1798 30.8443 56.9256L30.5662 57.3411C31.0079 57.6367 31.4632 57.8004 31.9294 57.8155L31.9456 57.3158ZM32.1875 57.5656V7.08417H31.6875V57.5656H32.1875Z" fill="#01090F"/>
<path d="M34.1957 29.9778V30.2278H34.4457H40.7757C40.8441 30.2278 40.9367 30.2661 41.0322 30.33C41.0578 30.3471 41.0811 30.3643 41.1011 30.3802V34.0222C41.1011 34.0857 41.067 34.1699 40.9942 34.243C40.9213 34.3162 40.8379 34.35 40.7757 34.35H34.4457H34.1957V34.6V40.9556C34.1957 41.019 34.1616 41.1032 34.0887 41.1764C34.0158 41.2496 33.9324 41.2833 33.8703 41.2833H30.1298C30.0676 41.2833 29.9842 41.2496 29.9113 41.1764C29.8385 41.1032 29.8044 41.019 29.8044 40.9556V34.6V34.35H29.5544H23.2244C23.1622 34.35 23.0788 34.3162 23.0059 34.243C22.933 34.1699 22.8989 34.0857 22.8989 34.0222V30.2667C22.8989 30.2032 22.933 30.119 23.0059 30.0459C23.0788 29.9727 23.1622 29.9389 23.2244 29.9389H29.5544H29.8044V29.6889V23.3333C29.8044 23.2698 29.8385 23.1857 29.9113 23.1125C29.9842 23.0393 30.0676 23.0056 30.1298 23.0056H33.8703C33.9324 23.0056 34.0158 23.0393 34.0887 23.1125C34.1616 23.1857 34.1957 23.2698 34.1957 23.3333V29.9778Z" fill="#FFC664" stroke="#01090F" stroke-width="0.5"/>
</g>
<defs>
<filter id="filter0_d_1860_20394" x="9.75024" y="5.83331" width="46.4995" height="54.9833" filterUnits="userSpaceOnUse" color-interpolation-filters="sRGB">
<feFlood flood-opacity="0" result="BackgroundImageFix"/>
<feColorMatrix in="SourceAlpha" type="matrix" values="0 0 0 0 0 0 0 0 0 0 0 0 0 0 0 0 0 0 127 0" result="hardAlpha"/>
<feOffset dx="1" dy="1"/>
<feGaussianBlur stdDeviation="1"/>
<feComposite in2="hardAlpha" operator="out"/>
<feColorMatrix type="matrix" values="0 0 0 0 0 0 0 0 0 0 0 0 0 0 0 0 0 0 0.15 0"/>
<feBlend mode="normal" in2="BackgroundImageFix" result="effect1_dropShadow_1860_20394"/>
<feBlend mode="normal" in="SourceGraphic" in2="effect1_dropShadow_1860_20394" result="shape"/>
</filter>
</defs>
</svg>
