<svg width="722" height="636" viewBox="0 0 722 636" fill="none" xmlns="http://www.w3.org/2000/svg">
<g clip-path="url(#clip0_1603_161236)">
<path d="M178.236 321.076L191.622 312.301L152.501 252.618L140.138 260.722C144.106 266.775 142.708 272.08 131.197 279.625L137.736 289.601L151.634 280.491L178.236 321.076Z" fill="#4AC7D3"/>
<path d="M223.458 322.377L214.834 317.867L215.716 310.712L212.454 312.85L211.852 319.63L211.752 319.695L208.825 315.229L206.182 316.962L213.857 328.671L216.499 326.938L214.153 323.359L214.414 321.203L220.397 324.384L223.458 322.377ZM228.327 319.186L231.053 317.398L227.727 302.839L224.817 304.747L227.436 314.652L227.302 314.74L219.28 308.376L216.336 310.306L228.327 319.186Z" fill="white"/>
<path d="M494.864 516.155C603.361 445.896 633.384 301.628 561.923 193.924C490.462 86.2206 344.579 55.8656 236.083 126.125C127.586 196.384 97.5631 340.651 169.024 448.355C240.484 556.059 386.368 586.414 494.864 516.155Z" fill="#1C4396" stroke="black" stroke-width="0.85" stroke-miterlimit="10"/>
<path d="M491.004 482.011C489.43 483.03 487.726 484.134 486.066 485.022L485.804 485.192C485.148 485.617 484.579 486.171 484.055 486.511C478.154 490.332 470.92 491.295 463.529 489.196C455.834 486.921 449.159 481.381 446.107 474.239C440.903 462.722 438.666 450.028 436.426 437.894C435.959 435.777 435.71 433.706 435.242 431.589C433.089 419.585 427.827 410.525 420.566 400.712C412.356 389.467 408.713 386.801 396.15 382.841C386.239 379.769 375.409 377.291 362.14 375.09L361.923 375.045L361.791 375.13C349.629 377.423 336.014 374.703 326.298 367.969C318.142 362.457 311.457 350.968 309.949 340.221C308.362 328.223 312.858 318.612 317.913 310.128C322.265 302.843 328.002 297.081 335.607 292.157C352.259 281.373 374.227 277.755 393.492 274.584C396.543 274.096 399.725 273.525 402.907 272.953C432.112 267.811 465.11 261.888 485.523 287.003C492.487 295.52 496.21 307.065 500.024 318.181C500.836 320.818 501.866 323.5 502.592 326.008L502.679 326.138L502.765 326.268C510.7 332.295 519.822 336.437 529.868 338.864L530.303 338.954L530.565 338.784C537.958 332.694 540.059 323.146 536.191 313.927C533.786 308.041 530.728 302.019 526.243 294.13L526.157 294L526.07 293.87C523.991 291.867 522.044 289.778 520.182 287.82C518.407 285.992 516.545 284.034 514.857 282.337L509.227 276.678C505.114 272.456 501.001 268.234 496.843 264.228C496.194 263.531 495.544 262.835 494.809 262.009C490.695 257.787 486.15 252.915 480.675 250.878C475.634 248.932 470.185 250.041 464.998 250.981C463.341 251.31 461.684 251.638 459.941 251.837C452.707 252.799 445.303 252.942 438.21 252.139C431.9 251.387 425.203 249.769 417.38 247.019C416.641 246.753 415.902 246.487 415.077 246.091C409.602 244.054 404.865 242.283 398.798 244.723C395.699 245.985 392.859 247.638 390.151 249.206C386.655 251.283 383.029 253.446 378.798 254.697C371.906 256.741 364.761 257.273 357.581 256.34C351.054 255.543 344.881 253.585 338.977 250.337C336.025 248.713 333.249 246.789 330.994 245.086C330.3 244.605 327.095 241.47 325.838 240.423L325.448 240.117L324.968 240.242C317.814 242.456 312.306 238.392 309.939 233.412C307.873 229.168 307.949 223.35 312.801 220.208C313.718 219.614 314.723 219.149 315.813 218.815C315.944 218.73 316.773 218.566 316.773 218.566L316.904 218.481C321.985 213.144 327.153 207.936 332.103 202.684C332.848 201.829 333.68 201.105 334.597 200.51C338.006 198.303 342.234 197.612 345.625 198.766C348.711 199.745 350.963 202.008 352.252 205.082C353.24 207.419 353.794 209.666 354.347 211.912C356.139 218.568 357.63 224.488 367.285 226.609C368.807 226.926 370.375 227.028 372.159 227.175L373.074 227.141L372.904 226.32C372.36 222.392 373.297 218.436 375.535 215.312C377.115 213.172 379.085 211.338 381.707 209.64C386.296 206.669 391.88 204.914 396.111 203.662C399.469 202.79 402.958 201.834 406.534 201.007C411.331 199.761 416.214 198.646 421.056 197.185L421.187 197.1L421.319 197.015C427.628 190.138 431.474 179.832 424.892 173.301C420.257 168.859 413.532 172.284 407.632 176.104C406.32 176.953 405.009 177.803 403.829 178.567C402.649 179.331 401.6 180.01 400.551 180.689C398.847 181.793 397.58 182.427 396.707 182.806C392.473 184.618 385.904 183.475 382.923 179.265C374.587 166.984 382.137 156.326 390.548 147.531C400.666 137.071 410.729 128.507 421.526 121.329C422.444 120.735 423.361 120.14 424.279 119.546C425.853 118.527 427.471 117.293 429.175 116.189C437.173 111.01 446.477 106.102 455.959 107.963C457.047 108.19 458.22 108.546 459.612 108.948C514.475 133.154 557.472 176.769 580.766 231.654C587.772 248.145 592.813 265.35 595.85 282.923C595.452 299.557 585.318 312.818 576.511 322.429L576.38 322.514L576.335 322.729C576.112 323.804 575.802 324.75 575.447 325.91C571.498 338.888 563.209 349.28 556.504 356.972L556.372 357.057L556.328 357.272C556.018 358.217 555.535 358.902 555.183 359.502C546.184 372.214 540.681 382.849 537.443 393.507C535.579 399.738 534.671 406.281 533.722 412.478C532.817 418.461 531.954 424.788 530.266 430.72C524.489 451.395 510.802 469.19 491.004 482.011Z" fill="#2FD395"/>
<path d="M430.176 116.847C438.043 111.752 447.215 106.93 456.349 108.83C457.436 109.057 458.524 109.283 459.784 109.769C514.43 133.931 557.34 177.415 580.462 232.04C587.381 248.401 592.423 265.606 595.504 282.964C595.281 291.668 592.73 303.927 576.386 321.955L576.21 322.255L576.121 322.685C575.897 323.76 575.542 324.921 575.232 325.866C571.328 338.629 563.17 348.936 556.465 356.628L556.202 356.797L556.158 357.013C555.761 357.828 555.496 358.558 555.058 359.027C546.014 371.955 540.425 382.46 537.055 393.202C535.06 399.519 534.152 406.061 533.289 412.389C532.385 418.371 531.522 424.699 529.747 430.5C523.666 451 510.025 468.58 490.357 481.316C488.784 482.335 487.079 483.439 485.419 484.327C485.419 484.327 485.288 484.412 485.157 484.497L485.026 484.582L484.895 484.667C484.371 485.007 483.801 485.561 483.277 485.901C477.508 489.637 470.405 490.515 463.448 488.506C455.971 486.277 449.513 480.782 446.503 473.985C441.299 462.469 439.149 449.904 436.909 437.77C436.442 435.654 436.192 433.582 435.725 431.466C433.485 419.332 428.137 410.141 421.007 400.243C412.624 388.738 408.981 386.072 396.201 382.067C386.203 378.864 375.374 376.386 362.059 374.401L361.842 374.356L361.493 374.395C349.68 376.649 336.282 373.973 326.521 367.455C318.583 361.988 311.939 350.845 310.518 340.228C309.1 329.05 312.633 320.249 318.479 310.695C322.786 303.626 328.437 297.733 335.91 292.894C352.431 282.195 374.181 278.531 393.447 275.36C396.498 274.873 399.549 274.386 402.862 273.729C431.85 268.542 464.717 262.704 484.653 287.383C491.53 295.77 495.254 307.316 498.98 318.301C499.879 321.068 500.823 323.62 501.549 326.128L501.677 326.603L502.067 326.909C510.089 333.066 519.297 337.338 529.474 339.68L530.212 339.946L530.782 339.391C538.351 333 540.627 323.152 536.587 313.673C534.182 307.787 531.037 301.635 526.553 293.746L526.466 293.616L526.38 293.486C524.301 291.483 522.353 289.395 520.492 287.437C518.717 285.609 516.855 283.651 515.166 281.953L509.278 275.903C505.251 271.812 501.224 267.72 497.197 263.629C496.548 262.933 495.899 262.237 495.249 261.54C491.136 257.319 486.374 252.401 480.812 250.234C475.554 248.242 470.104 249.352 464.655 250.462C462.998 250.79 461.342 251.119 459.685 251.447C452.582 252.325 445.178 252.467 438.085 251.664C431.775 250.912 425.295 249.34 417.472 246.59C416.733 246.324 415.994 246.058 415.169 245.662C409.694 243.625 404.74 241.809 398.324 244.288C395.225 245.551 392.386 247.203 389.546 248.856C385.919 251.019 382.424 253.096 378.455 254.177C371.563 256.221 364.55 256.669 357.456 255.866C351.146 255.114 344.887 253.026 339.069 249.908C336.117 248.284 333.341 246.36 331.173 244.787C330.696 244.351 327.837 241.737 326.103 240.254L325.454 239.558L324.494 239.807C317.82 241.896 312.616 238.009 310.291 233.374C308.397 229.39 308.384 224.002 312.842 221.115C313.628 220.605 314.633 220.141 315.723 219.807C315.854 219.722 315.854 219.722 316.072 219.767C316.203 219.682 316.42 219.728 316.42 219.728L316.9 219.603L317.207 219.218C321.981 214.266 327.194 208.843 332.406 203.421C333.152 202.566 333.938 202.057 334.856 201.462C338.134 199.34 342.013 198.688 345.186 199.797C348.055 200.731 350.134 202.734 351.337 205.677C352.239 207.884 352.879 210.261 353.346 212.378C355.137 219.033 356.756 225.429 366.846 227.641C368.369 227.957 370.022 228.189 371.721 228.206L373.636 228.268L373.342 226.412C372.839 222.829 373.645 218.958 375.839 216.049C377.287 213.994 379.257 212.16 381.748 210.547C386.337 207.575 391.79 205.905 395.89 204.739C399.248 203.867 402.737 202.91 406.313 202.083C411.11 200.838 415.993 199.722 420.835 198.262L421.315 198.137L421.622 197.752C428.325 190.62 432.261 179.884 425.07 173.002C420.177 168.17 412.972 171.719 406.809 175.709C405.498 176.559 404.187 177.408 403.007 178.172C401.827 178.936 400.778 179.615 399.729 180.294C398.155 181.313 396.889 181.947 396.016 182.327C392.044 183.968 385.996 183.046 383.188 179.096C375.198 167.336 382.047 157.318 390.851 148.267C400.838 137.892 410.902 129.328 421.698 122.151C422.616 121.557 423.534 120.962 424.452 120.368C426.767 119.055 428.471 117.951 430.176 116.847ZM429.312 115.545C426.559 117.328 424.023 119.157 421.532 120.77C410.08 128.372 399.84 137.236 390.422 147.056C381.18 156.577 374.066 167.325 382.705 179.781C385.859 184.252 392.601 185.655 397.446 183.634C398.581 183.085 399.978 182.366 401.421 181.432C403.519 180.073 405.923 178.33 408.415 176.717C414.315 172.896 420.647 169.726 424.674 173.817C431.387 180.263 426.409 190.558 421.107 196.411C412.731 199.044 404.099 200.725 396.031 202.973C391.102 204.304 385.954 206.149 381.496 209.036C379.004 210.649 376.903 212.568 375.148 215.007C372.865 218.347 371.883 222.518 372.427 226.446C370.86 226.344 369.293 226.242 367.771 225.926C355.505 223.261 357.123 214.398 353.3 204.964C350.037 196.656 340.897 195.876 334.472 200.036C333.423 200.715 332.592 201.44 331.716 202.379C326.634 207.717 321.684 212.97 316.516 218.177C316.254 218.347 316.036 218.302 315.905 218.386C314.684 218.805 313.679 219.27 312.762 219.864C302.272 226.656 311.702 245.672 325.662 241.284C325.662 241.284 330.124 245.466 330.904 246.078C333.463 247.956 336.153 249.75 338.973 251.459C344.878 254.707 351.268 256.71 357.882 257.638C365.193 258.486 372.468 257.868 379.447 255.955C386.818 253.786 392.507 248.799 399.447 245.98C406.125 243.331 411.031 245.923 417.507 248.056C424.288 250.364 431.244 252.373 438.555 253.221C445.866 254.069 453.27 253.927 460.504 252.964C467.041 252.08 474.284 249.437 480.802 251.915C487.017 254.218 492.208 260.347 496.711 264.874C502.686 271.054 508.705 277.018 514.68 283.198C518.317 286.984 522.126 291.03 525.98 294.861C529.732 301.364 533.136 307.906 535.928 314.658C539.796 323.877 537.35 332.904 530.481 338.655C520.739 336.404 511.618 332.262 503.682 326.235C499.009 313.258 495.003 297.615 486.441 286.97C463.607 258.77 424.791 269.205 393.888 274.33C374.491 277.586 352.524 281.205 335.741 292.073C328.66 296.658 322.444 302.545 317.871 310.344C312.112 320.028 308.141 329.299 309.687 340.952C311.066 351.224 317.53 363.228 326.38 369.22C336.228 375.869 350.016 378.851 362.527 376.518C374.056 378.356 385.365 380.709 396.45 384.138C409.23 388.144 412.525 390.849 420.476 401.703C427.996 411.907 432.737 420.747 434.98 432.32C437.728 446.916 439.693 461.461 445.8 475.185C452.207 489.645 471.285 496.644 484.921 487.814C485.576 487.389 486.101 487.05 486.67 486.495C486.801 486.41 486.801 486.41 486.932 486.325C488.592 485.436 490.297 484.333 491.87 483.314C510.751 471.087 525.394 453.603 531.874 431.728C535.557 419.48 535.412 406.548 539.182 394.43C542.996 382.097 549.59 371.128 556.877 360.64C557.36 359.955 557.757 359.14 558.067 358.195C566.349 348.924 573.416 338.951 577.055 326.918C577.41 325.758 577.72 324.813 577.944 323.737C588.285 312.202 596.935 299.529 597.417 283.586C594.422 266.358 589.511 249.069 582.246 232.187C558.05 175.095 513.611 132.414 460.615 109.045C459.442 108.689 458.137 108.417 456.963 108.061C447.007 105.203 437.573 110.196 429.312 115.545Z" fill="#1C4396"/>
<path d="M317.052 548.155C245.222 533.095 183.895 485.004 152.661 419.285C157.543 418.17 162.409 419.856 166.217 423.901L166.866 424.597C173.139 431.51 180.234 439.379 188.655 443.599C195.296 447.112 202.623 444.599 208.861 442.42C209.951 442.086 210.955 441.622 211.914 441.373L213.135 440.954C222.118 438.113 232.192 434.938 240.965 438.558C245.438 440.498 248.945 443.808 250.749 448.221C251.264 449.562 251.648 450.987 251.811 452.928L251.808 453.488L253.112 453.76C257.94 454.54 261.719 455.999 264.58 458.053C265.968 459.014 267.352 460.536 268.347 461.753L269.255 462.839L270.041 462.33C271.832 461.356 273.535 460.253 275.412 459.409C290.08 452.143 311.647 448.78 328.205 461.311C343.68 473.055 347.01 492.478 336.595 509.826L335.058 512.31C328.111 524.436 321.389 535.486 317.052 548.155Z" fill="#2FD395"/>
<path d="M153.874 419.987C158.101 419.297 162.401 420.977 165.732 424.586L166.382 425.282C172.741 432.325 179.967 440.11 188.344 444.545C195.288 448.233 202.747 445.635 209.201 443.501C210.292 443.167 211.295 442.703 212.254 442.454L213.476 442.036C222.328 439.279 232.315 435.974 240.74 439.634C245.127 441.444 248.33 444.578 250.134 448.991C250.649 450.332 250.946 451.627 251.023 453.438L251.103 454.688L252.321 454.83L252.539 454.875L253.191 455.011C257.801 455.746 261.58 457.205 264.224 459.213C265.394 460.13 266.91 461.567 267.818 462.653L267.991 462.913L268.25 463.303L269.158 464.39L270.337 463.626L270.468 463.541C272.259 462.567 273.963 461.464 275.839 460.621C290.376 453.439 311.594 450.116 327.849 462.471C342.934 473.91 346.222 492.988 336.114 509.951L334.577 512.435C327.634 524.001 320.956 534.836 316.75 547.42C282.227 540.012 249.315 524.863 221.49 503.259C192.752 481.128 169.45 452.502 153.874 419.987ZM151.617 418.845C184.182 487.981 246.998 534.363 317.655 549.066C322.129 535.193 329.552 523.503 337.374 510.438C347.699 493.52 345.069 473.457 328.728 460.972C313.081 448.967 291.872 450.61 275.065 458.89C273.189 459.733 271.354 460.921 269.432 461.979C269.26 461.719 269.173 461.589 269.001 461.329C268.006 460.112 266.404 458.545 265.148 457.499C261.81 455.01 257.465 453.545 253.376 453.03C253.159 452.985 252.941 452.94 252.724 452.895C252.602 451.299 252.394 449.573 251.707 447.972C249.73 443.299 246.137 439.859 241.446 437.874C232.066 433.903 220.944 437.757 211.829 440.683C204.546 442.981 196.385 446.779 189.005 443C180.498 438.65 173.144 430.39 166.871 423.477C162.154 418.346 156.457 417.384 151.617 418.845Z" fill="#1C4396"/>
<path d="M176.463 404.433C169.776 408.763 162.522 405.459 158.191 401.191C157.152 400.19 156.157 398.973 155.076 397.626C150.531 392.753 145.416 388.435 139.688 384.887C127.169 342.004 127.293 296.703 140.162 253.942C141.348 252.057 142.707 250.433 144.194 249.283C144.457 249.114 144.85 248.859 145.112 248.689C149.046 246.142 153.399 246.487 158.056 247.007C159.188 247.018 160.275 247.244 161.407 247.256C165.456 247.425 169.64 246.949 173.916 245.483L174.047 245.398L174.178 245.313C174.878 244.673 175.71 243.949 176.627 243.354C177.676 242.675 178.943 242.041 180.472 241.237C186.628 238.367 192.881 241.576 196.604 245.492C199.115 248.146 201.626 250.8 204.268 253.37C209.334 258.463 214.442 263.902 219.551 269.34C224.918 275.169 230.311 284.145 225.812 294.316C224.709 296.892 222.912 298.986 220.682 300.429C214.913 304.165 207.125 302.881 202.235 297.488C200.936 296.096 199.414 295.779 198.102 296.628C197.447 297.053 196.833 297.823 196.523 298.768C195.509 300.913 196.792 305.107 197.947 308.825C198.417 310.381 198.887 311.938 199.057 312.759C200.228 321.305 198.828 330.213 195.036 338.624C193.712 341.715 190.991 345.524 188.093 349.633C180.63 360.422 171.279 373.734 178.281 383.157C178.454 383.418 178.758 383.593 178.93 383.853C179.103 384.114 179.493 384.419 179.666 384.68C181.828 387.374 182.811 390.832 182.398 394.448C181.986 398.065 180.138 401.495 177.295 403.708C177.119 404.008 176.725 404.263 176.463 404.433Z" fill="#2FD395"/>
<path d="M145.636 249.47C149.439 247.008 153.661 247.438 158.1 247.913C159.232 247.924 160.32 248.15 161.452 248.161C165.718 248.376 169.815 247.77 174.309 246.349L174.657 246.309L174.92 246.14C175.62 245.5 176.32 244.86 177.238 244.266C178.287 243.587 179.554 242.953 181.082 242.149C186.845 239.533 192.708 242.436 196.345 246.222C198.856 248.877 201.498 251.446 204.009 254.1C208.944 259.278 214.183 264.632 219.205 269.94C224.4 275.509 229.706 284.355 225.297 294.096C224.239 296.456 222.572 298.466 220.474 299.824C215.098 303.306 207.746 302.112 203.114 297.109C201.252 295.151 199.292 295.304 197.981 296.153C197.194 296.663 196.449 297.518 196.007 298.548C195.08 300.823 195.931 304.366 197.342 309.035C197.812 310.592 198.196 312.018 198.366 312.839C199.582 321.17 198.182 330.078 194.434 338.274C193.024 341.234 190.389 345.174 187.623 349.198C179.897 360.157 170.457 373.9 177.849 383.628C178.022 383.889 178.195 384.149 178.498 384.324C178.671 384.585 179.061 384.89 179.234 385.151C181.31 387.714 182.206 391.042 181.838 394.444C181.471 397.845 179.667 401.06 177.086 403.104C176.693 403.359 176.431 403.528 176.037 403.783C171.973 406.415 165.263 407.039 158.766 400.638C157.727 399.636 156.819 398.55 155.737 397.203L155.651 397.073C151.106 392.2 146.078 388.012 140.48 384.379C128.003 341.841 128.3 296.8 141.124 254.253C142.179 252.453 143.494 251.044 144.981 249.895C145.112 249.81 145.374 249.64 145.636 249.47ZM144.773 248.169C144.51 248.339 144.117 248.593 143.724 248.848C141.974 250.167 140.484 251.876 139.384 253.891C126.694 295.792 125.828 341.388 138.862 385.613C144.591 389.161 149.619 393.349 154.25 398.352C155.245 399.569 156.326 400.915 157.452 402.047C162.736 407.186 170.214 409.415 176.639 405.255C177.032 405 177.426 404.745 177.819 404.49C183.899 399.809 185.171 390.425 180.197 384.341C179.851 383.82 179.288 383.255 178.812 382.819C169.606 370.357 190.709 350.177 195.736 339.106C199.484 330.91 201.06 321.702 199.847 312.81C199.427 309.918 196.075 302.04 197.354 299.164C197.751 298.349 198.102 297.749 198.758 297.325C199.676 296.73 200.763 296.957 201.889 298.089C207.256 303.918 215.438 304.947 221.338 301.126C223.567 299.683 225.496 297.503 226.643 294.713C230.791 285.142 227.01 276.052 220.213 268.916C212.811 260.868 204.93 252.945 197.266 245.068C192.98 240.585 186.42 237.762 180.263 240.632C178.779 241.221 177.468 242.07 176.288 242.834C175.37 243.428 174.539 244.153 173.707 244.877C169.694 246.174 165.814 246.825 161.548 246.611C155.759 246.079 150.018 244.772 144.773 248.169Z" fill="#1C4396"/>
<path d="M171.761 229.231C168.088 231.61 163.941 232.992 159.714 233.122C155.705 233.298 151.964 232.183 149.145 229.913C155.502 215.184 163.337 200.988 172.515 187.969C174.819 188.897 176.685 190.296 178.112 192.164C183.818 200.199 185.025 210.215 181.32 218.2C179.379 222.622 175.958 226.513 171.761 229.231Z" fill="#2FD395"/>
<path d="M172.989 188.963C174.858 189.8 176.419 191.023 177.674 192.631C183.207 200.405 184.459 210.207 180.799 217.976C178.771 222.268 175.482 226.074 171.415 228.707C167.873 231.001 163.727 232.383 159.849 232.474C156.188 232.61 152.883 231.585 150.323 229.706C156.459 215.492 164.073 201.811 172.989 188.963ZM172.346 187.145C162.729 200.634 154.718 215.13 148.272 230.289C151.264 232.82 155.264 234.326 159.753 234.025C164.111 233.809 168.389 232.342 172.193 229.879C176.522 227.076 179.942 223.185 182.146 218.593C186.247 209.793 184.301 199.51 178.768 191.737C177.299 189.523 174.998 188.034 172.346 187.145Z" fill="#1C4396"/>
<path d="M256.234 208.343C255.447 208.852 254.355 209.187 253.44 209.221L253.309 209.306L253.178 209.391C251.082 210.189 249.037 209.652 247.696 207.913L247.523 207.653L247.306 207.607C231.245 204.602 216.742 195.747 207.531 183.278C202.644 176.76 197.895 169.037 199.328 162.15C200.448 156.77 205.007 151.77 209.301 147.499C217.665 140.035 226.81 133.182 236.387 126.98C243.996 122.052 251.995 117.431 260.209 113.415C262.523 112.661 264.836 111.908 267.019 111.239C276.881 108.577 286.765 109.623 293.582 113.961C298.791 117.29 301.857 122.194 302.911 128.587C303.292 130.575 302.278 132.721 300.658 133.956C293.264 139.489 285.648 145.538 277.988 151.802L277.419 152.357C271.816 156.916 265.513 162.115 263.293 169.511C261.607 174.886 261.706 180.407 261.937 185.843C262.072 192.831 262.252 199.604 258.643 206.038C257.766 206.978 257.021 207.833 256.234 208.343Z" fill="#2FD395"/>
<path d="M236.465 127.668C244.074 122.741 251.942 118.204 260.156 114.188C262.469 113.435 264.783 112.682 266.965 112.013C276.609 109.305 286.276 110.307 292.875 114.598C297.781 117.752 300.76 122.526 301.858 128.704C302.198 130.346 301.36 132.192 299.872 133.342C292.477 138.875 284.862 144.924 277.202 151.188L276.632 151.743C271.03 156.302 264.595 161.586 262.33 169.197C260.599 174.787 260.699 180.308 260.93 185.744C261.065 192.732 261.203 199.16 257.725 205.508C257.329 206.324 256.628 206.963 255.841 207.473C255.185 207.898 254.311 208.278 253.396 208.312L253.179 208.266L253.047 208.351C251.956 208.685 250.081 208.969 248.305 207.14L248.046 206.749L247.479 206.744C231.636 203.784 217.22 195.058 208.096 182.72C203.295 176.333 198.632 168.739 199.976 162.284C201.05 157.119 205.479 152.203 209.641 148.018C218.092 140.684 227.019 133.785 236.465 127.668ZM235.601 126.366C225.892 132.653 216.879 139.421 208.384 146.97C203.959 151.326 199.354 156.542 198.19 162.137C196.623 169.668 202.239 178.134 206.608 183.87C216.382 196.905 231.06 205.46 246.99 208.55C248.808 210.724 251.246 211.007 253.342 210.209C254.388 210.09 255.479 209.755 256.529 209.076C257.447 208.481 258.193 207.626 258.765 206.51C265.324 194.629 259.774 182.024 263.677 169.814C265.897 162.418 272.418 157.265 278.152 152.62C285.55 146.526 293.12 140.693 300.822 134.774C302.704 133.37 303.676 130.878 303.34 128.675C300.478 110.792 281.854 106.468 266.45 110.671C264.05 111.294 261.736 112.048 259.509 112.931C251.295 116.947 243.21 121.439 235.601 126.366Z" fill="#1C4396"/>
<path d="M308.678 189.516C307.629 190.195 306.624 190.66 305.533 190.994C297.72 193.633 289.33 190.316 286.232 183.386C282.747 175.589 287.146 168.086 292.787 164.433C293.442 164.008 294.098 163.584 294.841 163.289C298.248 161.641 301.998 161.075 305.175 161.623L305.393 161.669L305.524 161.584C306.746 161.165 308.055 160.876 309.232 160.672C315.424 159.827 321.279 164.413 322.333 170.806C323.05 174.996 320.89 179.373 316.955 181.922C316.299 182.346 315.643 182.771 314.901 183.066L314.77 183.151L314.463 183.536C313.98 184.221 313.496 184.906 312.927 185.461C311.654 187.216 310.252 188.496 308.678 189.516Z" fill="#2FD395"/>
<path d="M293.214 165.081C293.87 164.656 294.526 164.231 295.268 163.937C298.545 162.374 302.077 161.762 305.123 162.396L305.558 162.486L306.038 162.362C307.261 161.943 308.438 161.739 309.615 161.535C315.458 160.73 320.837 164.88 321.935 171.057C322.61 174.902 320.627 178.979 316.954 181.358C316.298 181.782 315.773 182.122 315.031 182.417L314.551 182.541L314.244 182.926L314.068 183.226C313.585 183.912 313.233 184.512 312.664 185.067C311.173 186.777 309.771 188.057 308.328 188.991C307.41 189.586 306.274 190.135 305.315 190.384C297.85 192.984 289.895 189.757 286.97 183.088C283.613 175.767 287.836 168.564 293.214 165.081ZM292.35 163.779C285.791 168.026 282.087 176.01 285.486 183.677C288.971 191.473 298.016 194.366 305.83 191.726C307.052 191.307 308.188 190.758 309.237 190.078C310.943 188.974 312.606 187.524 313.966 185.899C314.58 185.129 315.063 184.444 315.678 183.674C316.42 183.379 317.293 183 317.949 182.575C321.885 180.026 324.437 175.394 323.723 170.644C322.497 163.991 316.6 159.059 309.625 159.853C308.23 160.012 306.921 160.3 305.699 160.72C302.173 160.21 298.423 160.777 294.798 162.38C293.88 162.974 293.006 163.354 292.35 163.779Z" fill="#1C4396"/>
<g opacity="0.37">
<path opacity="0.37" d="M314.232 91.7259C398.93 99.0295 476.843 151.479 511.997 234.409C562.278 353.134 506.123 489.425 386.271 538.753C372.478 544.521 358.432 548.779 344.352 551.57C380.912 554.69 418.521 549.503 454.529 534.558C574.25 485.315 630.537 348.939 580.256 230.214C535.732 125.253 422.743 69.0943 314.232 91.7259Z" fill="#1C4396"/>
</g>
<path d="M494.872 516.155C603.368 445.896 633.392 301.628 561.931 193.924C490.47 86.2206 344.587 55.8656 236.09 126.125C127.594 196.384 97.5709 340.651 169.032 448.355C240.492 556.059 386.376 586.414 494.872 516.155Z" stroke="black" stroke-width="0.85" stroke-miterlimit="10"/>
<path d="M227.013 131.198C227.013 131.198 192.802 46.0544 224.12 28.1656C258.064 8.77605 354.702 111.585 439.871 257.511C524.995 403.652 566.312 537.656 532.367 557.046C519.279 564.41 496.902 553.816 469.515 529.74" stroke="white" stroke-width="1.25" stroke-miterlimit="10"/>
<path d="M382.785 88.7559C437.35 49.6927 486.6 37.718 521.51 59.2342C586.684 99.5042 566.87 247.507 477.411 389.787C387.952 532.066 262.672 614.694 197.584 574.554C162.588 552.908 149.928 504.938 161.817 438.589" stroke="white" stroke-width="1.25" stroke-miterlimit="10"/>
<path d="M228.974 601.788C244.183 591.939 248.392 571.715 238.375 556.616C228.357 541.517 207.906 537.262 192.696 547.111C177.486 556.961 173.277 577.185 183.295 592.284C193.313 607.383 213.764 611.638 228.974 601.788Z" fill="#F8BC20" stroke="black" stroke-width="0.85" stroke-miterlimit="10"/>
<path d="M223.896 604.894C239.105 595.045 243.314 574.82 233.296 559.721C223.279 544.623 202.828 540.367 187.618 550.217C172.408 560.066 168.199 580.291 178.217 595.389C188.235 610.488 208.686 614.743 223.896 604.894Z" fill="#FBE62E" stroke="black" stroke-width="0.85" stroke-miterlimit="10"/>
<path d="M220.954 600.468C208.233 608.705 191.049 605.13 182.671 592.502C174.292 579.874 177.829 562.881 190.55 554.643C203.27 546.406 220.454 549.981 228.833 562.609C237.211 575.237 233.675 592.23 220.954 600.468Z" fill="#F8BC20" stroke="black" stroke-width="0.85" stroke-miterlimit="10"/>
<path d="M535.923 79.7706C550.771 70.1557 554.879 50.4129 545.1 35.6737C535.321 20.9345 515.357 16.7805 500.509 26.3954C485.661 36.0103 481.553 55.7531 491.332 70.4923C501.111 85.2315 521.075 89.3855 535.923 79.7706Z" fill="#F8BC20" stroke="black" stroke-width="0.85" stroke-miterlimit="10"/>
<path d="M531.111 82.7081C545.958 73.0932 550.067 53.3504 540.287 38.6112C530.508 23.872 510.544 19.718 495.696 29.3329C480.849 38.9478 476.74 58.6906 486.52 73.4298C496.299 88.169 516.263 92.323 531.111 82.7081Z" fill="#FBE62E" stroke="black" stroke-width="0.85" stroke-miterlimit="10"/>
<path d="M528.177 78.2821C515.849 86.2649 499.101 82.7799 490.981 70.5426C482.862 58.3054 486.309 41.7422 498.636 33.7594C510.963 25.7766 527.712 29.2616 535.832 41.4988C543.951 53.7361 540.504 70.2993 528.177 78.2821Z" fill="#F8BC20" stroke="black" stroke-width="0.85" stroke-miterlimit="10"/>
<path d="M592.535 261.891C643.726 297.22 667.816 335.081 660.068 371.735C645.104 443.582 499.667 473.94 335.091 439.836C170.514 405.732 49.3167 319.716 64.2815 247.869C71.3606 213.882 129.011 186.545 182.444 173.528" stroke="white" stroke-width="1.25" stroke-miterlimit="10"/>
<path d="M481.97 335.618C496.818 326.003 500.926 306.261 491.147 291.521C481.368 276.782 461.403 272.628 446.556 282.243C431.708 291.858 427.6 311.601 437.379 326.34C447.158 341.079 467.122 345.233 481.97 335.618Z" fill="#F8BC20" stroke="black" stroke-width="0.85" stroke-miterlimit="10"/>
<path d="M477.157 338.552C492.005 328.937 496.114 309.194 486.334 294.455C476.555 279.716 456.591 275.562 441.743 285.177C426.896 294.792 422.787 314.534 432.566 329.274C442.346 344.013 462.31 348.167 477.157 338.552Z" fill="#FBE62E" stroke="black" stroke-width="0.85" stroke-miterlimit="10"/>
<path d="M474.216 334.126C461.888 342.109 445.14 338.624 437.02 326.386C428.901 314.149 432.348 297.586 444.675 289.603C457.002 281.62 473.751 285.105 481.871 297.343C489.859 309.665 486.543 326.143 474.216 334.126Z" fill="#F8BC20" stroke="black" stroke-width="0.85" stroke-miterlimit="10"/>
<path d="M681.118 382.443C695.966 372.828 700.075 353.085 690.295 338.346C680.516 323.606 660.552 319.452 645.704 329.067C630.857 338.682 626.748 358.425 636.527 373.164C646.307 387.903 666.271 392.057 681.118 382.443Z" fill="#F8BC20" stroke="black" stroke-width="0.85" stroke-miterlimit="10"/>
<path d="M676.306 385.38C691.153 375.765 695.262 356.022 685.483 341.283C675.703 326.544 655.739 322.39 640.892 332.005C626.044 341.62 621.936 361.363 631.715 376.102C641.494 390.841 661.458 394.995 676.306 385.38Z" fill="#FBE62E" stroke="black" stroke-width="0.85" stroke-miterlimit="10"/>
<path d="M673.372 380.954C661.045 388.937 644.296 385.452 636.177 373.215C628.057 360.977 631.504 344.414 643.831 336.431C656.159 328.448 672.908 331.933 681.027 344.171C689.146 356.408 685.699 372.971 673.372 380.954Z" fill="#F8BC20" stroke="black" stroke-width="0.85" stroke-miterlimit="10"/>
<path d="M87.0246 272.298C101.872 262.683 105.981 242.94 96.2015 228.201C86.4222 213.462 66.4581 209.308 51.6105 218.923C36.7629 228.538 32.6543 248.28 42.4336 263.02C52.2129 277.759 72.177 281.913 87.0246 272.298Z" fill="#F8BC20" stroke="black" stroke-width="0.85" stroke-miterlimit="10"/>
<path d="M82.2121 275.232C97.0597 265.617 101.168 245.874 91.389 231.135C81.6097 216.395 61.6456 212.241 46.798 221.856C31.9504 231.471 27.8418 251.214 37.6211 265.953C47.4004 280.692 67.3645 284.846 82.2121 275.232Z" fill="#FBE62E" stroke="black" stroke-width="0.85" stroke-miterlimit="10"/>
<path d="M79.1844 270.681C66.8571 278.663 50.1083 275.178 41.989 262.941C33.8697 250.704 37.3166 234.141 49.6439 226.158C61.9712 218.175 78.72 221.66 86.8393 233.897C94.9587 246.135 91.5117 262.698 79.1844 270.681Z" fill="#F8BC20" stroke="black" stroke-width="0.85" stroke-miterlimit="10"/>
<path d="M514.99 44.2734C515.039 44.2734 515.079 44.3134 515.079 44.3627V48.5476C515.079 48.5927 515.113 48.6307 515.157 48.6362L515.284 48.6519C516.563 48.8543 517.792 49.3099 518.867 50.0185C520.505 51.1068 521.784 52.6254 522.578 54.397C523.473 56.2951 523.908 58.5982 523.908 61.205V64.1022C523.908 64.1515 523.868 64.1915 523.819 64.1915H520.62C520.57 64.1915 520.53 64.1515 520.53 64.1022V61.1544C520.53 59.0791 520.223 57.3328 519.634 55.9155C519.123 54.6247 518.253 53.4859 517.101 52.676C516.563 52.3216 516 52.0432 515.386 51.8661L515.196 51.8035C515.139 51.7845 515.079 51.8275 515.079 51.8883V64.0769C515.079 64.1262 515.039 64.1662 514.99 64.1662H511.739C511.69 64.1662 511.65 64.1262 511.65 64.0769V51.8883C511.65 51.8275 511.59 51.7845 511.532 51.8035L511.343 51.8661C510.754 52.0432 510.191 52.3216 509.653 52.676C508.502 53.4859 507.606 54.6247 507.094 55.9155C506.48 57.3328 506.173 59.0791 506.173 61.1544V64.0769C506.173 64.1262 506.133 64.1662 506.084 64.1662H502.91C502.86 64.1662 502.82 64.1262 502.82 64.0769V61.1797C502.82 58.5476 503.281 56.2698 504.177 54.3717C504.97 52.6 506.275 51.0815 507.913 49.9932C508.988 49.3099 510.191 48.8543 511.445 48.6266L511.571 48.6109C511.616 48.6054 511.65 48.5674 511.65 48.5223V44.3627C511.65 44.3134 511.69 44.2734 511.739 44.2734H514.99Z" fill="black"/>
<path d="M69.6795 255.196C70.0764 254.533 70.3772 253.823 70.5351 253.066C70.5438 253.024 70.5804 252.994 70.6232 252.994H73.975C74.0305 252.994 74.0726 253.044 74.0624 253.099C73.8519 254.225 73.4503 255.303 72.9041 256.309C72.3155 257.372 71.5477 258.334 70.6008 259.144C69.6539 259.954 68.579 260.561 67.4018 260.991C66.1477 261.447 64.8169 261.649 63.4605 261.649C63.1023 261.649 62.744 261.624 62.2833 261.599L62.1568 261.583C62.1121 261.578 62.0703 261.606 62.0592 261.65L62.0274 261.776L61.1763 264.623C61.165 264.661 61.1302 264.687 61.0907 264.687H60.0997C60.04 264.687 59.9971 264.629 60.0141 264.572L60.8757 261.675L60.9239 261.516C60.9392 261.466 60.9075 261.413 60.8557 261.403L60.6966 261.371C59.8008 261.169 58.9307 260.84 58.1117 260.409L57.9564 260.317C57.9057 260.287 57.8404 260.313 57.8247 260.37L57.779 260.536L56.5437 264.65C56.5325 264.687 56.4988 264.712 56.4601 264.713L55.4708 264.735C55.4101 264.736 55.3658 264.677 55.3834 264.619L56.8577 259.751L56.8922 259.632C56.9023 259.597 56.8903 259.559 56.8619 259.537L56.7809 259.473C55.3222 258.359 54.1705 256.917 53.3771 255.272C52.379 253.222 51.8672 250.741 51.8672 247.907C51.8672 245.072 52.379 242.567 53.3771 240.517C54.2729 238.593 55.706 236.973 57.4975 235.809C59.289 234.696 61.362 234.139 63.4605 234.164C63.7165 234.164 63.9724 234.189 64.2539 234.189H64.3915C64.4313 234.189 64.4662 234.163 64.4773 234.125L64.5098 234.012L65.3358 231.24C65.3469 231.203 65.3807 231.177 65.4195 231.176L66.4606 231.155C66.5211 231.154 66.5653 231.212 66.5481 231.27L65.7127 234.088L65.6615 234.274C65.6477 234.324 65.6793 234.375 65.7302 234.385L65.8918 234.417C66.3781 234.518 66.8387 234.62 67.325 234.797C67.7089 234.923 68.0928 235.101 68.4767 235.278L68.6357 235.356C68.6859 235.381 68.7464 235.354 68.7613 235.3L68.8094 235.126L69.9676 231.241C69.9789 231.204 70.0137 231.178 70.0532 231.178H71.095C71.1548 231.178 71.1977 231.235 71.1805 231.293L69.8075 235.86L69.7745 235.974C69.7637 236.011 69.7785 236.052 69.8112 236.073L69.9098 236.138C70.1146 236.265 70.3193 236.417 70.4985 236.594C71.4454 237.378 72.2387 238.34 72.853 239.428C73.4251 240.486 73.8281 241.64 74.0382 242.842C74.0477 242.897 74.0057 242.946 73.9506 242.946H70.6232C70.5805 242.946 70.5438 242.916 70.5352 242.874C70.3787 242.115 70.1012 241.381 69.6795 240.719C69.4748 240.415 69.27 240.112 69.0141 239.833L68.8392 239.629C68.7932 239.575 68.706 239.594 68.6858 239.662L68.6046 239.935L63.1534 258.132L63.0871 258.345C63.0692 258.402 63.1122 258.461 63.1724 258.461H63.3838C64.2539 258.486 65.1241 258.359 65.943 258.106C66.7108 257.878 67.4274 257.499 68.0672 257.018C68.707 256.461 69.2444 255.879 69.6795 255.196ZM61.9762 258.03L67.7089 238.846L67.7438 238.725C67.7537 238.691 67.7423 238.654 67.7148 238.632L67.6065 238.543C67.0947 238.214 66.5572 237.96 65.9942 237.783C65.6359 237.682 65.2776 237.581 64.9193 237.53L64.8008 237.501C64.7531 237.489 64.7048 237.518 64.6928 237.566L64.6634 237.682L58.9307 256.714L58.8978 256.828C58.8869 256.866 58.9017 256.906 58.9344 256.928L59.0257 256.988C59.0306 256.991 59.0352 256.995 59.0393 256.999L59.078 257.037C59.0821 257.041 59.0867 257.045 59.0916 257.048C59.1659 257.097 59.2403 257.146 59.3146 257.195C60.0312 257.676 60.8501 258.005 61.6947 258.207L61.8382 258.239C61.8862 258.25 61.9337 258.219 61.9445 258.171L61.9762 258.03ZM58.0861 255.626L63.4094 237.758L63.4757 237.545C63.4936 237.487 63.4506 237.429 63.3904 237.429H63.1534C61.797 237.48 60.4662 237.884 59.3146 238.644C58.0094 239.53 56.9857 240.77 56.3715 242.212C55.6805 243.756 55.3222 245.68 55.3222 247.907C55.3222 250.134 55.6805 252.083 56.3715 253.627C56.7042 254.361 57.1392 255.069 57.6511 255.702L57.8326 255.93C57.8762 255.985 57.9631 255.971 57.9866 255.905L58.0861 255.626Z" fill="black"/>
<path d="M668.022 347.949C668.081 347.949 668.124 348.005 668.108 348.062L667.389 350.692C667.379 350.731 667.343 350.758 667.303 350.758L663.507 350.733H663.191C663.119 350.733 663.077 350.814 663.118 350.873L663.302 351.138C663.456 351.341 663.584 351.568 663.712 351.796C664.121 352.581 664.428 353.416 664.556 354.302L664.572 354.426C664.578 354.471 664.615 354.504 664.66 354.504H667.996C668.055 354.504 668.098 354.56 668.082 354.617L667.364 357.223C667.353 357.261 667.318 357.288 667.278 357.288H664.66C664.615 357.288 664.578 357.322 664.572 357.366L664.556 357.491C664.428 358.275 664.198 359.034 663.865 359.768C663.302 360.907 662.406 361.869 661.306 362.527C660.129 363.236 658.542 363.666 656.623 363.793L656.469 363.818L656.216 363.885C656.154 363.901 656.129 363.975 656.168 364.026L656.341 364.248L664.493 374.556C664.539 374.615 664.498 374.701 664.423 374.701H660.376C660.349 374.701 660.324 374.688 660.307 374.667L651.267 363.336C651.255 363.32 651.248 363.301 651.248 363.281L651.224 361.149C651.223 361.1 651.263 361.059 651.313 361.059H655.548C656.571 361.085 657.595 360.907 658.542 360.502C659.335 360.148 660.001 359.566 660.461 358.807C660.692 358.427 660.845 358.022 660.948 357.617L660.996 357.425C661.011 357.368 660.968 357.313 660.91 357.313H651.109C651.05 357.313 651.008 357.257 651.023 357.2L651.742 354.595C651.753 354.556 651.788 354.53 651.828 354.53H660.826C660.887 354.53 660.929 354.471 660.912 354.414L660.845 354.2C660.641 353.542 660.257 352.91 659.77 352.404C658.875 351.492 657.467 351.012 655.573 351.012H651.108C651.049 351.012 651.007 350.956 651.021 350.9L651.768 348.041C651.778 348.002 651.814 347.974 651.854 347.974L668.022 347.949Z" fill="black"/>
<path d="M468.122 314.145V316.738C468.122 316.787 468.082 316.827 468.033 316.827H455.747C455.723 316.827 455.701 316.837 455.684 316.853L455.633 316.903C455.198 317.308 454.84 317.789 454.584 318.32C454.302 318.928 454.149 319.586 454.123 320.269C454.098 321.231 454.558 322.142 455.352 322.699C456.12 323.256 457.22 323.559 458.628 323.559C459.933 323.559 461.059 323.281 461.903 322.724C462.728 322.181 463.186 321.324 463.255 320.178C463.258 320.13 463.298 320.092 463.345 320.092H466.853C466.903 320.092 466.944 320.134 466.941 320.185C466.878 321.587 466.522 322.77 465.921 323.686C465.23 324.698 464.258 325.483 463.106 325.913C461.673 326.445 460.163 326.672 458.628 326.647C456.068 326.647 454.047 326.09 452.613 325.027C451.18 323.964 450.515 322.446 450.515 320.472C450.515 319.94 450.617 319.409 450.796 318.928C450.975 318.422 451.206 317.916 451.538 317.485L451.611 317.389C451.614 317.386 451.617 317.383 451.62 317.38L451.666 317.333L451.879 317.074C451.927 317.016 451.886 316.929 451.81 316.929H449.222C449.173 316.929 449.133 316.889 449.133 316.839V314.31C449.133 314.26 449.173 314.22 449.222 314.22H468.046C468.088 314.22 468.122 314.186 468.122 314.145V314.145Z" fill="black"/>
<path d="M458.704 299.111C460.138 299.086 461.545 299.314 462.876 299.82C463.925 300.225 464.821 300.959 465.435 301.87C466.049 302.857 466.331 303.996 466.305 305.135C466.305 305.641 466.229 306.172 466.075 306.653C465.921 307.159 465.691 307.615 465.41 308.071L465.218 308.363C465.18 308.422 465.222 308.501 465.293 308.501H468.033C468.082 308.501 468.122 308.541 468.122 308.59V311.145C468.122 311.194 468.082 311.234 468.033 311.234H449.222C449.173 311.234 449.133 311.194 449.133 311.145V308.59C449.133 308.541 449.173 308.501 449.222 308.501H461.347C461.375 308.501 461.401 308.488 461.418 308.466L461.468 308.4C461.801 307.969 462.134 307.539 462.39 307.058C462.697 306.501 462.876 305.894 462.85 305.261C462.902 304.376 462.492 303.515 461.801 302.958C461.11 302.401 460.086 302.123 458.756 302.123C457.322 302.123 456.247 302.452 455.557 303.135C454.912 303.772 454.556 304.623 454.511 305.504C454.508 305.552 454.469 305.59 454.42 305.59H450.915C450.864 305.59 450.824 305.548 450.827 305.497C450.889 304.416 451.169 303.361 451.666 302.401C452.229 301.364 453.125 300.529 454.2 299.997C455.326 299.415 456.836 299.111 458.704 299.111Z" fill="black"/>
<path d="M213.58 562.742H215.896C215.946 562.742 215.986 562.782 215.986 562.831V564.905C215.986 564.955 215.946 564.995 215.896 564.995H213.439C213.39 564.995 213.35 565.035 213.35 565.084V586.975C213.35 587.024 213.31 587.064 213.26 587.064H210.163C210.114 587.064 210.074 587.024 210.074 586.975V583.964C210.074 583.915 210.034 583.875 209.985 583.875H209.408C209.376 583.875 209.347 583.891 209.331 583.918L209.281 584.002C208.999 584.508 208.666 584.989 208.308 585.444C207.847 586.026 207.259 586.482 206.593 586.836C205.723 587.266 204.751 587.469 203.778 587.444C202.294 587.469 200.861 587.039 199.632 586.229C198.378 585.343 197.38 584.103 196.791 582.686C196.1 581.167 195.742 579.294 195.742 577.118C195.742 574.941 196.1 573.093 196.791 571.55C197.406 570.158 198.404 568.943 199.658 568.082C200.886 567.272 202.319 566.842 203.778 566.867C204.955 566.867 205.928 567.07 206.619 567.475C207.259 567.829 207.847 568.285 208.282 568.867C208.641 569.322 208.948 569.803 209.229 570.309L209.28 570.393C209.296 570.42 209.325 570.436 209.356 570.436H209.831C209.88 570.436 209.92 570.396 209.92 570.347V565.084C209.92 565.035 209.88 564.995 209.831 564.995H204.661C204.612 564.995 204.572 564.955 204.572 564.905V562.831C204.572 562.782 204.612 562.742 204.661 562.742H209.831C209.88 562.742 209.92 562.702 209.92 562.653V560.402C209.92 560.352 209.96 560.312 210.01 560.312H213.184C213.233 560.312 213.273 560.352 213.273 560.402V562.653C213.273 562.702 213.313 562.742 213.362 562.742H213.58ZM209.434 580.965C209.869 579.724 210.074 578.408 210.048 577.092C210.074 575.802 209.869 574.511 209.434 573.271C209.076 572.258 208.462 571.347 207.617 570.664C205.8 569.398 203.369 569.398 201.603 570.714C200.758 571.423 200.118 572.334 199.786 573.372C199.376 574.561 199.172 575.827 199.197 577.092C199.172 578.383 199.376 579.648 199.811 580.863C200.17 581.901 200.809 582.837 201.654 583.571C203.42 584.887 205.851 584.913 207.643 583.622C208.462 582.888 209.076 581.977 209.434 580.965Z" fill="black"/>
<path d="M212.896 590.305H196.824C196.774 590.305 196.734 590.345 196.734 590.394V593.075C196.734 593.125 196.774 593.165 196.824 593.165H212.896C212.946 593.165 212.986 593.125 212.986 593.075V590.394C212.986 590.345 212.946 590.305 212.896 590.305Z" fill="black"/>
</g>
<defs>
<clipPath id="clip0_1603_161236">
<rect width="722" height="636" rx="16" fill="white"/>
</clipPath>
</defs>
</svg>
