<svg width="96" height="40" viewBox="0 0 96 40" fill="none" xmlns="http://www.w3.org/2000/svg">
<path d="M10.4323 0L19.6626 7.91946L7.35559 22.4161H17.1209V38.5235H0.666992V22.4161C4.81392 15.0336 8.15822 7.51678 10.4323 0ZM25.6824 38.5235V22.4161C29.8293 15.0336 33.1736 7.51678 35.4477 0L44.678 7.91946L32.3709 22.4161H42.1363V38.5235H25.6824Z" fill="#1B1B1B"/>
<path d="M85.5683 40L76.338 32.0805L88.6451 17.5839H78.8797V1.47651H95.3336V17.5839C91.1867 24.9664 87.8424 32.4832 85.5683 40ZM51.3227 32.0805L63.6297 17.5839H53.8643V1.47651H70.3183V17.5839C66.1714 24.9664 62.8271 32.4832 60.5529 40L51.3227 32.0805Z" fill="#1B1B1B"/>
</svg>
