
<svg width="24" height="25" viewBox="0 0 24 25" fill="none" xmlns="http://www.w3.org/2000/svg">
<path d="M21.4378 8.84857H15.8648V8.58806C15.8648 7.63287 16.0546 6.84266 16.4342 6.22613C16.8138 5.60091 17.4694 5.05384 18.4184 4.56756L18.8498 4.35047C19.6175 3.95971 19.816 3.62105 19.816 3.22161C19.816 2.74401 19.4019 2.39667 18.7376 2.39667C17.9439 2.39667 17.3487 2.81348 16.9346 3.65579L15.8648 2.57902C16.0978 2.07537 16.4774 1.67593 16.9777 1.35464C17.4867 1.03335 18.0474 0.877042 18.66 0.877042C19.4277 0.877042 20.092 1.07676 20.6355 1.49358C21.1963 1.91039 21.4723 2.4835 21.4723 3.20424C21.4723 4.35916 20.8253 5.06253 19.6175 5.68774L18.936 6.03509C18.2114 6.3998 17.8577 6.72977 17.7541 7.31157H21.4378V8.84857ZM20.9461 10.62H14.8469L11.8016 15.9344H17.9008L20.9547 21.2487L24 15.9344L20.9461 10.62ZM12.3278 19.486C8.44572 19.486 5.28828 16.3078 5.28828 12.4001C5.28828 8.49254 8.44572 5.31435 12.3278 5.31435L14.7434 0.234456C13.9583 0.0781519 13.156 0 12.3278 0C5.52121 0 0 5.55749 0 12.4001C0 19.2515 5.51258 24.809 12.3278 24.809C15.0367 24.809 17.5471 23.9233 19.583 22.4297L16.9087 17.7753C15.6837 18.8347 14.0791 19.486 12.3278 19.486Z" fill="#1B1B1B"/>
</svg>
