<svg width="64" height="64" viewBox="0 0 64 64" fill="none" xmlns="http://www.w3.org/2000/svg">
<mask id="mask0_7479_11171" style="mask-type:alpha" maskUnits="userSpaceOnUse" x="0" y="0" width="64" height="57">
<ellipse cx="31.9147" cy="28.3947" rx="31.9147" ry="28.3947" fill="black"/>
</mask>
<g mask="url(#mask0_7479_11171)">
<path d="M49.7496 28.3948C49.7496 36.8061 47.6814 44.3758 44.3869 49.8117C41.082 55.2648 36.6445 58.4322 31.9149 58.4322C27.1854 58.4322 22.7479 55.2648 19.4429 49.8117C16.1485 44.3758 14.0803 36.8061 14.0803 28.3948C14.0803 19.9836 16.1485 12.4139 19.4429 6.978C22.7479 1.52486 27.1854 -1.64251 31.9149 -1.64251C36.6445 -1.64251 41.082 1.52486 44.3869 6.978C47.6814 12.4139 49.7496 19.9836 49.7496 28.3948Z" stroke="#FAF4EE" stroke-width="1.87733"/>
<path d="M41.7708 28.3948C41.7708 36.8722 40.5719 44.507 38.6614 49.9893C37.7046 52.7348 36.5868 54.8897 35.3921 56.3397C34.1922 57.7961 33.0122 58.4322 31.9148 58.4322C30.8174 58.4322 29.6374 57.7961 28.4375 56.3397C27.2428 54.8897 26.125 52.7348 25.1682 49.9893C23.2577 44.507 22.0588 36.8722 22.0588 28.3948C22.0588 19.9174 23.2577 12.2827 25.1682 6.80038C26.125 4.05484 27.2428 1.89999 28.4375 0.449953C29.6374 -1.00642 30.8174 -1.64251 31.9148 -1.64251C33.0122 -1.64251 34.1922 -1.00642 35.3921 0.449953C36.5868 1.89999 37.7046 4.05484 38.6614 6.80038C40.5719 12.2827 41.7708 19.9174 41.7708 28.3948Z" stroke="#FAF4EE" stroke-width="1.87733"/>
<path d="M62.8907 70.5175C62.8907 87.8292 49.0126 101.846 31.9147 101.846C14.8168 101.846 0.938667 87.8292 0.938667 70.5175C0.938667 53.2058 14.8168 39.1895 31.9147 39.1895C49.0126 39.1895 62.8907 53.2058 62.8907 70.5175Z" stroke="#FAF4EE" stroke-width="1.87733"/>
<path d="M62.8907 -13.7278C62.8907 3.58387 49.0126 17.6002 31.9147 17.6002C14.8168 17.6002 0.938667 3.58387 0.938667 -13.7278C0.938667 -31.0396 14.8168 -45.0558 31.9147 -45.0558C49.0126 -45.0558 62.8907 -31.0396 62.8907 -13.7278Z" stroke="#FAF4EE" stroke-width="1.87733"/>
</g>
<path d="M60.3093 28.3947C60.3093 41.7571 47.9946 53.2693 31.9147 53.2693C15.8347 53.2693 3.52 41.7571 3.52 28.3947C3.52 15.0322 15.8347 3.52 31.9147 3.52C47.9946 3.52 60.3093 15.0322 60.3093 28.3947Z" stroke="#FAF4EE" stroke-width="7.04"/>
<path d="M32 54L32 2.37333" stroke="#FAF4EE" stroke-width="1.64267"/>
<path d="M3 28H61.1973" stroke="#FAF4EE" stroke-width="1.87733"/>
</svg>
