<svg width="21" height="20" viewBox="0 0 21 20" fill="none" xmlns="http://www.w3.org/2000/svg">
<path d="M6.73398 15L10.334 11.4L13.934 15L15.334 13.6L11.734 10L15.334 6.4L13.934 5L10.334 8.6L6.73398 5L5.33398 6.4L8.93398 10L5.33398 13.6L6.73398 15ZM10.334 20C8.95065 20 7.65065 19.7373 6.43398 19.212C5.21732 18.6873 4.15898 17.975 3.25898 17.075C2.35898 16.175 1.64665 15.1167 1.12198 13.9C0.596651 12.6833 0.333984 11.3833 0.333984 10C0.333984 8.61667 0.596651 7.31667 1.12198 6.1C1.64665 4.88333 2.35898 3.825 3.25898 2.925C4.15898 2.025 5.21732 1.31233 6.43398 0.787C7.65065 0.262333 8.95065 0 10.334 0C11.7173 0 13.0173 0.262333 14.234 0.787C15.4507 1.31233 16.509 2.025 17.409 2.925C18.309 3.825 19.0213 4.88333 19.546 6.1C20.0713 7.31667 20.334 8.61667 20.334 10C20.334 11.3833 20.0713 12.6833 19.546 13.9C19.0213 15.1167 18.309 16.175 17.409 17.075C16.509 17.975 15.4507 18.6873 14.234 19.212C13.0173 19.7373 11.7173 20 10.334 20Z" fill="#CC0000"/>
</svg>
