<svg width="32" height="32" viewBox="0 0 32 32" fill="none" xmlns="http://www.w3.org/2000/svg">
<path d="M16.0007 20.0001C19.6825 20.0001 22.6673 17.0153 22.6673 13.3334C22.6673 9.65152 19.6825 6.66675 16.0007 6.66675C12.3188 6.66675 9.33398 9.65152 9.33398 13.3334C9.33398 17.0153 12.3188 20.0001 16.0007 20.0001Z" fill="#112A62"/>
<path d="M26.1288 4L23.3003 5.82135C24.465 7.47712 26.628 10.1264 25.7961 14.5969C24.7978 20.061 19.6399 23.5381 14.1493 22.5447C9.65699 21.7168 7.82679 18.5708 6.8285 16.915L4 18.7364C5.16468 20.3922 7.82679 25.0283 14.3157 25.8562V29.3333H17.6433V25.8562C23.3003 25.1939 27.959 20.8889 29.1237 15.0937C30.122 9.46405 27.2935 5.82135 26.1288 4Z" fill="#112A62"/>
</svg>
