<svg width="32" height="32" viewBox="0 0 32 32" fill="none" xmlns="http://www.w3.org/2000/svg">
<g clip-path="url(#clip0_2831_36555)">
<path d="M25.3333 25.3333H6.66667V6.66667H17.3333V4H6.66667C5.2 4 4 5.2 4 6.66667V25.3333C4 26.8 5.2 28 6.66667 28H25.3333C26.8 28 28 26.8 28 25.3333V17.3333H25.3333V25.3333ZM20 17.3333V22.6667H22.6667V17.3333H20ZM14.6667 22.6667H17.3333V12H14.6667V22.6667ZM12 22.6667V14.6667H9.33333V22.6667H12Z" fill="#112A62"/>
<path d="M24.4352 7.30401C22.598 6.82649 22.0072 6.33279 22.0072 5.56391C22.0072 4.68172 22.8246 4.06661 24.1924 4.06661C25.6331 4.06661 26.1672 4.75456 26.2158 5.76625H28.0045C27.9478 4.37417 27.098 3.0954 25.4064 2.68263V0.910156H22.9784V2.65835C21.4083 2.99827 20.1457 4.01805 20.1457 5.5801C20.1457 7.44969 21.6915 8.38044 23.9496 8.9227C25.973 9.40831 26.3777 10.1205 26.3777 10.8732C26.3777 11.4317 25.9811 12.322 24.1924 12.322C22.5252 12.322 21.8696 11.5774 21.7806 10.6223H20C20.0971 12.3948 21.4245 13.3903 22.9784 13.7221V15.4784H25.4064V13.7383C26.9847 13.4389 28.2392 12.5243 28.2392 10.8651C28.2392 8.56659 26.2724 7.78152 24.4352 7.30401Z" fill="#112A62" stroke="#112A62" stroke-width="0.4"/>
</g>
<defs>
<clipPath id="clip0_2831_36555">
<rect width="32" height="32" fill="white"/>
</clipPath>
</defs>
</svg>
