<svg width="32" height="32" viewBox="0 0 32 32" fill="none" xmlns="http://www.w3.org/2000/svg">
<path d="M24.0007 10.6668H22.6673V8.00016C22.6673 4.32016 19.6806 1.3335 16.0007 1.3335C12.3207 1.3335 9.33398 4.32016 9.33398 8.00016V10.6668H8.00065C6.53398 10.6668 5.33398 11.8668 5.33398 13.3335V26.6668C5.33398 28.1335 6.53398 29.3335 8.00065 29.3335H24.0007C25.4673 29.3335 26.6673 28.1335 26.6673 26.6668V13.3335C26.6673 11.8668 25.4673 10.6668 24.0007 10.6668ZM16.0007 22.6668C14.534 22.6668 13.334 21.4668 13.334 20.0002C13.334 18.5335 14.534 17.3335 16.0007 17.3335C17.4673 17.3335 18.6673 18.5335 18.6673 20.0002C18.6673 21.4668 17.4673 22.6668 16.0007 22.6668ZM20.134 10.6668H11.8673V8.00016C11.8673 5.72016 13.7207 3.86683 16.0007 3.86683C18.2807 3.86683 20.134 5.72016 20.134 8.00016V10.6668Z" fill="#112A62"/>
</svg>
