<svg width="10" height="12" viewBox="0 0 10 12" fill="none" xmlns="http://www.w3.org/2000/svg">
<path d="M5 0C2.54187 0 0 1.76216 0 4.71166C0 7.42086 4.09 11.3828 4.55625 11.8263C4.67375 11.9376 4.83313 12 5 12C5.16687 12 5.32625 11.9376 5.44375 11.8263C5.91 11.3828 10 7.42086 10 4.71166C10 1.76216 7.45813 0 5 0ZM5 5.88957C4.30937 5.88957 3.75 5.36245 3.75 4.71166C3.75 4.06086 4.30937 3.53374 5 3.53374C5.69063 3.53374 6.25 4.06086 6.25 4.71166C6.25 5.36245 5.69063 5.88957 5 5.88957Z" fill="#CFD0D6"/>
</svg>
