<svg width="128" height="128" viewBox="0 0 128 128" fill="none" xmlns="http://www.w3.org/2000/svg">
<path d="M20.0448 32.4565L21.2018 34.6547L23.2843 35.8117L21.2018 36.8529L20.0448 39.0511L18.8879 36.8529L16.8054 35.8117L18.8879 34.6547L20.0448 32.4565Z" fill="#2C71F0"/>
<path d="M49.2001 8.39209L50.7042 11.1688L53.4808 12.6728L50.7042 14.2925L49.2001 17.0692L47.6961 14.2925L44.8037 12.6728L47.6961 11.1688L49.2001 8.39209Z" fill="#15357A"/>
<path d="M100.569 56.9838L101.494 58.7192L103.229 59.6448L101.494 60.5704L100.569 62.3058L99.643 60.5704L97.9075 59.6448L99.643 58.7192L100.569 56.9838Z" fill="#15357A"/>
<path d="M89.3461 23.201H31.3831V99.0967H89.3461V23.201Z" fill="white" stroke="#15357A" stroke-width="1.5" stroke-miterlimit="10" stroke-linecap="round" stroke-linejoin="round"/>
<path opacity="0.2" d="M77.8242 33.592C78.2402 33.656 78.6242 33.7893 78.9762 33.992C79.3389 34.184 79.6482 34.4293 79.9042 34.728C80.1602 35.0267 80.3576 35.3733 80.4962 35.768C80.6456 36.152 80.7202 36.5733 80.7202 37.032H78.8802C78.8802 36.4773 78.7309 36.0293 78.4322 35.688C78.1336 35.3467 77.7229 35.176 77.2002 35.176C76.7416 35.176 76.3469 35.2933 76.0162 35.528C75.6856 35.7627 75.5202 36.12 75.5202 36.6C75.5202 36.824 75.5629 37.0267 75.6482 37.208C75.7442 37.3787 75.8669 37.528 76.0162 37.656C76.1762 37.784 76.3522 37.896 76.5442 37.992C76.7362 38.088 76.9389 38.1733 77.1522 38.248C77.5896 38.408 78.0322 38.5787 78.4802 38.76C78.9389 38.9413 79.3549 39.1653 79.7282 39.432C80.1016 39.6987 80.4056 40.0187 80.6402 40.392C80.8749 40.7653 80.9922 41.2187 80.9922 41.752C80.9922 42.264 80.9069 42.7227 80.7362 43.128C80.5762 43.5333 80.3522 43.88 80.0642 44.168C79.7869 44.456 79.4562 44.6907 79.0722 44.872C78.6882 45.0427 78.2722 45.16 77.8242 45.224V46.92H76.5122V45.224C76.0749 45.16 75.6589 45.0267 75.2642 44.824C74.8802 44.6213 74.5389 44.36 74.2402 44.04C73.9522 43.7093 73.7229 43.32 73.5522 42.872C73.3816 42.4133 73.2962 41.9013 73.2962 41.336H75.1362C75.1362 42.072 75.3389 42.6373 75.7442 43.032C76.1496 43.4267 76.6722 43.624 77.3122 43.624C77.5682 43.624 77.8082 43.5867 78.0322 43.512C78.2562 43.4267 78.4482 43.3147 78.6082 43.176C78.7789 43.0267 78.9122 42.8507 79.0082 42.648C79.1042 42.4453 79.1522 42.216 79.1522 41.96C79.1522 41.672 79.0936 41.432 78.9762 41.24C78.8696 41.048 78.7256 40.888 78.5442 40.76C78.3736 40.6213 78.1816 40.5093 77.9682 40.424C77.7656 40.328 77.5682 40.248 77.3762 40.184C76.8642 40.0027 76.3842 39.8213 75.9362 39.64C75.4882 39.448 75.0936 39.224 74.7522 38.968C74.4216 38.7013 74.1602 38.3813 73.9682 38.008C73.7762 37.6347 73.6802 37.1653 73.6802 36.6C73.6802 36.1947 73.7496 35.8213 73.8882 35.48C74.0376 35.128 74.2402 34.824 74.4962 34.568C74.7522 34.3013 75.0509 34.088 75.3922 33.928C75.7442 33.7573 76.1176 33.64 76.5122 33.576V31.88H77.8242V33.592Z" fill="#15357A"/>
<path opacity="0.1" d="M66.2073 30.1426H37.2836V34.8861H66.2073V30.1426Z" fill="#15357A"/>
<path opacity="0.1" d="M66.2073 38.1256H37.2836V42.8691H66.2073V38.1256Z" fill="#15357A"/>
<path opacity="0.1" d="M66.2073 46.1085H37.2836V50.852H66.2073V46.1085Z" fill="#15357A"/>
<path opacity="0.1" d="M83.5615 54.0915H37.2836V58.835H83.5615V54.0915Z" fill="#15357A"/>
<path opacity="0.1" d="M83.4457 62.0744H37.1678V66.8179H83.4457V62.0744Z" fill="#15357A"/>
<path opacity="0.1" d="M83.4457 70.0574H37.1678V74.8009H83.4457V70.0574Z" fill="#15357A"/>
<path opacity="0.1" d="M83.4457 78.0403H37.1678V82.7838H83.4457V78.0403Z" fill="#15357A"/>
<path opacity="0.1" d="M83.4457 85.9075H37.1678V90.651H83.4457V85.9075Z" fill="#15357A"/>
<path d="M61.5795 112.286C82.9848 112.286 100.337 110.473 100.337 108.237C100.337 106 82.9848 104.187 61.5795 104.187C40.1742 104.187 22.8217 106 22.8217 108.237C22.8217 110.473 40.1742 112.286 61.5795 112.286Z" fill="#EAF1FE"/>
<path d="M97.0759 71.9569L62.9167 83.9794L68.563 100.022L102.722 87.9997L97.0759 71.9569Z" fill="#EAF1FE" stroke="#15357A" stroke-width="1.5" stroke-miterlimit="10" stroke-linecap="round" stroke-linejoin="round"/>
<path d="M72.9176 100.022L92.8171 96.0887L94.2054 95.8573L98.3704 94.9317L100.916 94.4689L99.8745 88.9156L98.7175 83.0152L97.6762 77.8089L95.3623 78.2717L71.2978 83.0152H70.9508L68.0584 83.5936L63.1992 84.5192L62.7364 84.6349L62.505 84.7506H62.158V84.8663L62.7364 87.643L62.9678 89.0313L64.1248 94.4689L64.3562 95.8573L65.166 100.022" fill="#EAF1FE"/>
<path d="M72.9176 100.022L92.8171 96.0887L94.2054 95.8573L98.3704 94.9317L100.916 94.4689L99.8745 88.9156L98.7175 83.0152L97.6762 77.8089L95.3623 78.2717L71.2978 83.0152H70.9508L68.0584 83.5936L63.1992 84.5192L62.7364 84.6349L62.505 84.7506H62.158V84.8663L62.7364 87.643L62.9678 89.0313L64.1248 94.4689L64.3562 95.8573L65.166 100.022" stroke="#15357A" stroke-width="1.5" stroke-miterlimit="10" stroke-linecap="round" stroke-linejoin="round"/>
<path d="M98.3704 83.0152H62.158V100.022H98.3704V83.0152Z" fill="white" stroke="#15357A" stroke-width="1.5" stroke-miterlimit="10" stroke-linecap="round" stroke-linejoin="round"/>
<path d="M98.3704 95.8573H62.158V100.022H98.3704V95.8573Z" fill="#EAF1FE"/>
<path d="M98.3704 83.0152H62.158V87.5273H98.3704V83.0152Z" fill="#EAF1FE"/>
<path d="M98.3704 83.0152H62.158V100.022H98.3704V83.0152Z" stroke="#15357A" stroke-width="1.5" stroke-miterlimit="10" stroke-linecap="round" stroke-linejoin="round"/>
<path d="M68.0584 83.2466C68.0584 86.486 65.3974 89.147 62.158 89.147V83.0152H68.0584C68.0584 83.1309 68.0584 83.1309 68.0584 83.2466Z" fill="white" stroke="#15357A" stroke-width="1.5" stroke-miterlimit="10" stroke-linecap="round" stroke-linejoin="round"/>
<path d="M68.0584 100.022H62.158V94.1219C65.3974 94.1219 68.0584 96.7829 68.0584 100.022Z" fill="white" stroke="#15357A" stroke-width="1.5" stroke-miterlimit="10" stroke-linecap="round" stroke-linejoin="round"/>
<path d="M98.3704 94.2376V100.022H91.313C91.313 96.7829 93.974 94.1219 97.2134 94.1219C97.5605 94.1219 97.9076 94.1219 98.3704 94.2376Z" fill="white" stroke="#15357A" stroke-width="1.5" stroke-miterlimit="10" stroke-linecap="round" stroke-linejoin="round"/>
<path d="M98.3705 83.0152V88.1058C98.0234 88.2215 97.5606 88.2215 97.2135 88.2215C94.2054 88.2215 91.7759 85.9076 91.4288 83.0152H98.3705Z" fill="white" stroke="#15357A" stroke-width="1.5" stroke-miterlimit="10" stroke-linecap="round" stroke-linejoin="round"/>
<path d="M80.2064 98.1712C83.7207 98.1712 86.5697 95.3223 86.5697 91.808C86.5697 88.2937 83.7207 85.4448 80.2064 85.4448C76.6921 85.4448 73.8432 88.2937 73.8432 91.808C73.8432 95.3223 76.6921 98.1712 80.2064 98.1712Z" fill="white"/>
<path d="M80.9118 89.296C81.1198 89.328 81.3118 89.3947 81.4878 89.496C81.6691 89.592 81.8238 89.7147 81.9518 89.864C82.0798 90.0133 82.1784 90.1867 82.2478 90.384C82.3224 90.576 82.3598 90.7867 82.3598 91.016H81.4398C81.4398 90.7387 81.3651 90.5147 81.2158 90.344C81.0664 90.1733 80.8611 90.088 80.5998 90.088C80.3704 90.088 80.1731 90.1467 80.0078 90.264C79.8424 90.3813 79.7598 90.56 79.7598 90.8C79.7598 90.912 79.7811 91.0133 79.8238 91.104C79.8718 91.1893 79.9331 91.264 80.0078 91.328C80.0878 91.392 80.1758 91.448 80.2718 91.496C80.3678 91.544 80.4691 91.5867 80.5758 91.624C80.7944 91.704 81.0158 91.7893 81.2398 91.88C81.4691 91.9707 81.6771 92.0827 81.8638 92.216C82.0504 92.3493 82.2024 92.5093 82.3198 92.696C82.4371 92.8827 82.4958 93.1093 82.4958 93.376C82.4958 93.632 82.4531 93.8613 82.3678 94.064C82.2878 94.2667 82.1758 94.44 82.0318 94.584C81.8931 94.728 81.7278 94.8453 81.5358 94.936C81.3438 95.0213 81.1358 95.08 80.9118 95.112V95.96H80.2558V95.112C80.0371 95.08 79.8291 95.0133 79.6318 94.912C79.4398 94.8107 79.2691 94.68 79.1198 94.52C78.9758 94.3547 78.8611 94.16 78.7758 93.936C78.6904 93.7067 78.6478 93.4507 78.6478 93.168H79.5678C79.5678 93.536 79.6691 93.8187 79.8718 94.016C80.0744 94.2133 80.3358 94.312 80.6558 94.312C80.7838 94.312 80.9038 94.2933 81.0158 94.256C81.1278 94.2133 81.2238 94.1573 81.3038 94.088C81.3891 94.0133 81.4558 93.9253 81.5038 93.824C81.5518 93.7227 81.5758 93.608 81.5758 93.48C81.5758 93.336 81.5464 93.216 81.4878 93.12C81.4344 93.024 81.3624 92.944 81.2718 92.88C81.1864 92.8107 81.0904 92.7547 80.9838 92.712C80.8824 92.664 80.7838 92.624 80.6878 92.592C80.4318 92.5013 80.1918 92.4107 79.9678 92.32C79.7438 92.224 79.5464 92.112 79.3758 91.984C79.2104 91.8507 79.0798 91.6907 78.9838 91.504C78.8878 91.3173 78.8398 91.0827 78.8398 90.8C78.8398 90.5973 78.8744 90.4107 78.9438 90.24C79.0184 90.064 79.1198 89.912 79.2478 89.784C79.3758 89.6507 79.5251 89.544 79.6958 89.464C79.8718 89.3787 80.0584 89.32 80.2558 89.288V88.44H80.9118V89.296Z" fill="#EAF1FE"/>
</svg>
